{
  "accessors": [
    {
      "bufferView": 2,
      "componentType": 5126,
      "count": 715,
      "max": [
        101.84556579589844,
        26.336631774902344,
        101.84556579589844
      ],
      "min": [
        -101.84556579589844,
        -26.33661651611328,
        -101.84556579589844
      ],
      "type": "VEC3"
    },
    {
      "bufferView": 2,
      "byteOffset": 8580,
      "componentType": 5126,
      "count": 715,
      "max": [
        0.9985677003860474,
        1.0,
        1.0
      ],
      "min": [
        -0.9985677003860474,
        -1.0,
        -1.0
      ],
      "type": "VEC3"
    },
    {
      "bufferView": 1,
      "componentType": 5126,
      "count": 715,
      "max": [
        0.9926815629005432,
        0.9601386189460754
      ],
      "min": [
        0.11591732501983643,
        0.09346063435077667
      ],
      "type": "VEC2"
    },
    {
      "bufferView": 0,
      "componentType": 5125,
      "count": 2529,
      "type": "SCALAR"
    },
    {
      "bufferView": 2,
      "byteOffset": 17160,
      "componentType": 5126,
      "count": 90,
      "max": [
        52.257389068603516,
        50.0,
        58.915374755859375
      ],
      "min": [
        -52.257389068603516,
        -50.000003814697266,
        -58.915374755859375
      ],
      "type": "VEC3"
    },
    {
      "bufferView": 2,
      "byteOffset": 18240,
      "componentType": 5126,
      "count": 90,
      "max": [
        1.0,
        1.0,
        1.0
      ],
      "min": [
        -1.0,
        -1.0,
        -1.0
      ],
      "type": "VEC3"
    },
    {
      "bufferView": 1,
      "byteOffset": 5720,
      "componentType": 5126,
      "count": 90,
      "max": [
        0.30748528242111206,
        0.9874359369277954
      ],
      "min": [
        0.04923182725906372,
        0.45717719197273254
      ],
      "type": "VEC2"
    },
    {
      "bufferView": 0,
      "byteOffset": 10116,
      "componentType": 5125,
      "count": 288,
      "type": "SCALAR"
    },
    {
      "bufferView": 2,
      "byteOffset": 19320,
      "componentType": 5126,
      "count": 519,
      "max": [
        50.0,
        168.89227294921875,
        52.00931930541992
      ],
      "min": [
        -50.0,
        -7.07550048828125,
        -49.999996185302734
      ],
      "type": "VEC3"
    },
    {
      "bufferView": 2,
      "byteOffset": 25548,
      "componentType": 5126,
      "count": 519,
      "max": [
        0.99998939037323,
        1.0,
        0.9999164938926697
      ],
      "min": [
        -0.9999933838844299,
        -1.0,
        -0.9999799728393555
      ],
      "type": "VEC3"
    },
    {
      "bufferView": 1,
      "byteOffset": 6440,
      "componentType": 5126,
      "count": 519,
      "max": [
        0.6956292390823364,
        0.9497970938682556
      ],
      "min": [
        0.02241368219256401,
        0.029407382011413574
      ],
      "type": "VEC2"
    },
    {
      "bufferView": 0,
      "byteOffset": 11268,
      "componentType": 5125,
      "count": 2268,
      "type": "SCALAR"
    },
    {
      "bufferView": 2,
      "byteOffset": 31776,
      "componentType": 5126,
      "count": 715,
      "max": [
        101.84556579589844,
        26.336631774902344,
        101.84556579589844
      ],
      "min": [
        -101.84556579589844,
        -26.33661651611328,
        -101.84556579589844
      ],
      "type": "VEC3"
    },
    {
      "bufferView": 2,
      "byteOffset": 40356,
      "componentType": 5126,
      "count": 715,
      "max": [
        0.9985677003860474,
        1.0,
        1.0
      ],
      "min": [
        -0.9985677003860474,
        -1.0,
        -1.0
      ],
      "type": "VEC3"
    },
    {
      "bufferView": 1,
      "byteOffset": 10592,
      "componentType": 5126,
      "count": 715,
      "max": [
        0.9926815629005432,
        0.9601386189460754
      ],
      "min": [
        0.11591732501983643,
        0.09346063435077667
      ],
      "type": "VEC2"
    },
    {
      "bufferView": 0,
      "byteOffset": 20340,
      "componentType": 5125,
      "count": 2529,
      "type": "SCALAR"
    }
  ],
  "asset": {
    "extras": {
      "author": "citrusfriendd (https://sketchfab.com/citrusfriendd)",
      "license": "CC-BY-4.0 (http://creativecommons.org/licenses/by/4.0/)",
      "source": "https://sketchfab.com/3d-models/smores-12574793d7cd49f59f075d8ada1381a9",
      "title": "Smores"
    },
    "generator": "Sketchfab-10.99.0",
    "version": "2.0"
  },
  "bufferViews": [
    {
      "buffer": 0,
      "byteLength": 30456,
      "name": "floatBufferViews",
      "target": 34963
    },
    {
      "buffer": 0,
      "byteLength": 16312,
      "byteOffset": 30456,
      "byteStride": 8,
      "name": "floatBufferViews",
      "target": 34962
    },
    {
      "buffer": 0,
      "byteLength": 48936,
      "byteOffset": 46768,
      "byteStride": 12,
      "name": "floatBufferViews",
      "target": 34962
    }
  ],
  "buffers": [
    {
      "byteLength": 95704,
      "uri": "scene.bin"
    }
  ],
  "extensionsUsed": [
    "KHR_materials_unlit"
  ],
  "images": [
    {
      "uri": "textures/lambert1_baseColor.png"
    },
    {
      "uri": "textures/lambert2_baseColor.png"
    }
  ],
  "materials": [
    {
      "doubleSided": true,
      "extensions": {
        "KHR_materials_unlit": {}
      },
      "name": "lambert1",
      "pbrMetallicRoughness": {
        "baseColorTexture": {
          "index": 0
        },
        "metallicFactor": 0.0
      }
    },
    {
      "doubleSided": true,
      "extensions": {
        "KHR_materials_unlit": {}
      },
      "name": "lambert2",
      "pbrMetallicRoughness": {
        "baseColorTexture": {
          "index": 1
        },
        "metallicFactor": 0.0
      }
    }
  ],
  "meshes": [
    {
      "name": "Cracker_lambert1_0",
      "primitives": [
        {
          "attributes": {
            "NORMAL": 1,
            "POSITION": 0,
            "TEXCOORD_0": 2
          },
          "indices": 3,
          "material": 0,
          "mode": 4
        }
      ]
    },
    {
      "name": "Marshmallow_lambert2_0",
      "primitives": [
        {
          "attributes": {
            "NORMAL": 5,
            "POSITION": 4,
            "TEXCOORD_0": 6
          },
          "indices": 7,
          "material": 1,
          "mode": 4
        }
      ]
    },
    {
      "name": "Chocolate1_lambert2_0",
      "primitives": [
        {
          "attributes": {
            "NORMAL": 9,
            "POSITION": 8,
            "TEXCOORD_0": 10
          },
          "indices": 11,
          "material": 1,
          "mode": 4
        }
      ]
    },
    {
      "name": "Cracker2_lambert1_0",
      "primitives": [
        {
          "attributes": {
            "NORMAL": 13,
            "POSITION": 12,
            "TEXCOORD_0": 14
          },
          "indices": 15,
          "material": 0,
          "mode": 4
        }
      ]
    }
  ],
  "nodes": [
    {
      "children": [
        1
      ],
      "matrix": [
        1.0,
        0.0,
        0.0,
        0.0,
        0.0,
        2.220446049250313e-16,
        -1.0,
        0.0,
        0.0,
        1.0,
        2.220446049250313e-16,
        0.0,
        0.0,
        0.0,
        0.0,
        1.0
      ],
      "name": "Sketchfab_model"
    },
    {
      "children": [
        2
      ],
      "matrix": [
        1.0,
        0.0,
        0.0,
        0.0,
        0.0,
        0.0,
        1.0,
        0.0,
        0.0,
        -1.0,
        0.0,
        0.0,
        0.0,
        0.0,
        0.0,
        1.0
      ],
      "name": "smores.fbx"
    },
    {
      "children": [
        3
      ],
      "name": "RootNode"
    },
    {
      "children": [
        4,
        5,
        7,
        9
      ],
      "matrix": [
        0.009999999776482582,
        0.0,
        0.0,
        0.0,
        0.0,
        0.0063902465626597404,
        0.0,
        0.0,
        0.0,
        0.0,
        0.009999999776482582,
        0.0,
        0.0,
        0.8228933215141296,
        0.0,
        1.0
      ],
      "name": "Cracker"
    },
    {
      "mesh": 0,
      "name": "Cracker_lambert1_0"
    },
    {
      "children": [
        6
      ],
      "matrix": [
        1.7788963317871094,
        0.0,
        0.0,
        0.0,
        0.0,
        0.5807135105133057,
        0.0,
        0.0,
        0.0,
        0.0,
        1.6365563869476318,
        0.0,
        0.0,
        -66.73582458496094,
        0.0,
        1.0
      ],
      "name": "Marshmallow"
    },
    {
      "mesh": 1,
      "name": "Marshmallow_lambert2_0"
    },
    {
      "children": [
        8
      ],
      "matrix": [
        1.90729820728302,
        0.0,
        0.0,
        0.0,
        0.0,
        0.32602930068969727,
        0.0,
        0.0,
        0.0,
        0.0,
        1.8513498306274414,
        0.0,
        0.0,
        -59.28847122192383,
        0.0,
        1.0
      ],
      "name": "Chocolate1"
    },
    {
      "mesh": 2,
      "name": "Chocolate1_lambert2_0"
    },
    {
      "children": [
        10
      ],
      "matrix": [
        -1.0,
        1.2246467991473532e-16,
        0.0,
        0.0,
        -1.2246467991473532e-16,
        -1.0,
        0.0,
        0.0,
        0.0,
        0.0,
        1.0,
        0.0,
        0.0,
        -109.87860870361328,
        0.0,
        1.0
      ],
      "name": "Cracker2"
    },
    {
      "mesh": 3,
      "name": "Cracker2_lambert1_0"
    }
  ],
  "samplers": [
    {
      "magFilter": 9729,
      "minFilter": 9987,
      "wrapS": 10497,
      "wrapT": 10497
    }
  ],
  "scene": 0,
  "scenes": [
    {
      "name": "Sketchfab_Scene",
      "nodes": [
        0
      ]
    }
  ],
  "textures": [
    {
      "sampler": 0,
      "source": 0
    },
    {
      "sampler": 0,
      "source": 1
    }
  ]
}
