<svg width="91" height="117" viewBox="0 0 91 117" fill="none" xmlns="http://www.w3.org/2000/svg">
<path d="M8.90002 36.1L80.9 32.4L85.7 106L13.2999 109.3L8.90002 36.1Z" fill="#6ECFF5"/>
<path d="M85.7 106L13.2999 109.3L4.29993 116.5L74 113L85.7 106Z" fill="#3F86AA"/>
<path d="M8.90002 36.1L0 46.8L4.29993 116.5L13.2999 109.3L8.90002 36.1Z" fill="#16B2DB"/>
<mask id="mask0_149_64404" style="mask-type:luminance" maskUnits="userSpaceOnUse" x="0" y="36" width="14" height="81">
<path d="M8.89001 36.06L0.0200195 46.77L4.27002 116.51L13.3099 109.32L8.89001 36.06Z" fill="white"/>
</mask>
<g mask="url(#mask0_149_64404)">
<path d="M0.199951 -21.9L-21.6 102.5" stroke="#3F86AA" stroke-width="0.4"/>
<path d="M2.59998 -17.4L-19.3 107" stroke="#3F86AA" stroke-width="0.4"/>
<path d="M5 -12.9L-16.9 111.5" stroke="#3F86AA" stroke-width="0.4"/>
<path d="M7.29993 -8.40002L-14.5 116.1" stroke="#3F86AA" stroke-width="0.4"/>
<path d="M9.69995 -3.90002L-12.1 120.6" stroke="#3F86AA" stroke-width="0.4"/>
<path d="M12.1 0.700012L-9.80005 125.1" stroke="#3F86AA" stroke-width="0.4"/>
<path d="M14.5 5.20001L-7.40002 129.6" stroke="#3F86AA" stroke-width="0.4"/>
<path d="M16.7999 9.70001L-5 134.1" stroke="#3F86AA" stroke-width="0.4"/>
<path d="M19.2 14.2L-2.70007 138.7" stroke="#3F86AA" stroke-width="0.4"/>
<path d="M21.6 18.7L-0.300049 143.2" stroke="#3F86AA" stroke-width="0.4"/>
<path d="M24 23.3L2.09998 147.7" stroke="#3F86AA" stroke-width="0.4"/>
<path d="M26.2999 27.8L4.5 152.2" stroke="#3F86AA" stroke-width="0.4"/>
<path d="M28.7 32.3L6.79993 156.7" stroke="#3F86AA" stroke-width="0.4"/>
<path d="M31.1 36.8L9.19995 161.3" stroke="#3F86AA" stroke-width="0.4"/>
<path d="M33.4 41.3L11.6 165.8" stroke="#3F86AA" stroke-width="0.4"/>
<path d="M40.6 54.9L-9.30005 -40" stroke="#3F86AA" stroke-width="0.4"/>
<path d="M39.5 60.8L-10.3 -34.1" stroke="#3F86AA" stroke-width="0.4"/>
<path d="M38.5 66.8L-11.3 -28.2" stroke="#3F86AA" stroke-width="0.4"/>
<path d="M37.4 72.7L-12.4 -22.2" stroke="#3F86AA" stroke-width="0.4"/>
<path d="M36.4 78.6L-13.4 -16.3" stroke="#3F86AA" stroke-width="0.4"/>
<path d="M35.4 84.5L-14.5 -10.4" stroke="#3F86AA" stroke-width="0.4"/>
<path d="M34.2999 90.5L-15.5 -4.5" stroke="#3F86AA" stroke-width="0.4"/>
<path d="M33.2999 96.4L-16.6 1.5" stroke="#3F86AA" stroke-width="0.4"/>
<path d="M32.2 102.3L-17.6 7.40002" stroke="#3F86AA" stroke-width="0.4"/>
<path d="M31.2 108.2L-18.6 13.3" stroke="#3F86AA" stroke-width="0.4"/>
<path d="M30.2 114.2L-19.7001 19.2" stroke="#3F86AA" stroke-width="0.4"/>
<path d="M29.1 120.1L-20.7001 25.2" stroke="#3F86AA" stroke-width="0.4"/>
<path d="M28.1 126L-21.8 31.1" stroke="#3F86AA" stroke-width="0.4"/>
<path d="M27 131.9L-22.8 37" stroke="#3F86AA" stroke-width="0.4"/>
<path d="M26 137.9L-23.8 43" stroke="#3F86AA" stroke-width="0.4"/>
<path d="M24.9 143.8L-24.9 48.9" stroke="#3F86AA" stroke-width="0.4"/>
<path d="M23.9 149.7L-25.9 54.8" stroke="#3F86AA" stroke-width="0.4"/>
<path d="M22.9 155.6L-27 60.7" stroke="#3F86AA" stroke-width="0.4"/>
<path d="M21.7999 161.6L-28 66.7" stroke="#3F86AA" stroke-width="0.4"/>
<path d="M20.7999 167.5L-29 72.6" stroke="#3F86AA" stroke-width="0.4"/>
<path d="M19.7 173.4L-30.1 78.5" stroke="#3F86AA" stroke-width="0.4"/>
<path d="M18.7 179.3L-31.1 84.4" stroke="#3F86AA" stroke-width="0.4"/>
</g>
<path d="M48.6999 92.7H45.1C44.8 92.7 44.5 92.9 44.4 93.1L41.6999 100C41.4333 99.8 41.0666 99.7 40.6 99.7C39.2 99.7 37.6999 100.5 37.2999 101.7C36.7999 102.8 37.6 103.7 39 103.8C40.4 103.8 41.8999 102.9 42.2999 101.8L45 95.1C45.1 94.8 45.3 94.6 45.6 94.6L48.1999 94.5C48.4999 94.5 48.6999 94.4 48.7999 94.2L49.1 93.2C49.2 93 48.9999 92.7 48.6999 92.7Z" fill="url(#paint0_linear_149_64404)"/>
<path d="M49 92.8C49 92.8 49 92.8334 49 92.9L48.6 93.8C48.6 94 48.3 94.2 48.1 94.2L45.5 94.3C45.2 94.3 44.8999 94.4 44.7999 94.7L42.2 101.4C41.8 102.5 40.3 103.4 38.9 103.4C38.1 103.4 37.5 103 37.2 102.5C37.3 103.2 38 103.7 39 103.8C40.4 103.8 41.8999 102.9 42.2999 101.8L45 95.1C45.1 94.8 45.3 94.6 45.6 94.6L48.2 94.5C48.5 94.5 48.6999 94.4 48.7999 94.2L49.1 93.2C49.2 93.1 49.1 92.9 49 92.8Z" fill="#1782B9"/>
<path d="M46.7 93.2H45.2999C44.9999 93.2 44.8 93.3 44.7 93.6" stroke="#FEFEFE" stroke-width="0.4" stroke-linecap="round" stroke-linejoin="round"/>
<path d="M48.1 93.2H47.7999" stroke="#FEFEFE" stroke-width="0.4" stroke-linecap="round" stroke-linejoin="round"/>
<path d="M43.9 95.6L42.6 98.8" stroke="#FEFEFE" stroke-width="0.4" stroke-linecap="round" stroke-linejoin="round"/>
<path d="M44.2 94.8L44.1 95" stroke="#FEFEFE" stroke-width="0.4" stroke-linecap="round" stroke-linejoin="round"/>
<path d="M39.1 100.5C38.5 100.7 38.1 101.2 37.9 101.7" stroke="#FEFEFE" stroke-width="0.4" stroke-linecap="round" stroke-linejoin="round"/>
<path d="M39.9 100.2C39.8334 100.2 39.7666 100.2 39.7 100.2" stroke="#FEFEFE" stroke-width="0.4" stroke-linecap="round" stroke-linejoin="round"/>
<mask id="mask1_149_64404" style="mask-type:luminance" maskUnits="userSpaceOnUse" x="74" y="77" width="16" height="19">
<path d="M89.5499 77.53L78.5799 81.71C78.2899 81.82 78.0799 82.13 78.0799 82.43L78.1199 90.46C77.7466 90.4 77.3333 90.45 76.8799 90.61C75.4699 91.13 74.3399 92.61 74.3499 93.92C74.3599 95.23 75.5 95.87 76.9 95.36C78.3 94.84 79.4299 93.36 79.4199 92.05L79.3799 84.2C79.3799 83.9 79.5799 83.6 79.8599 83.48L83.15 82.05C83.56 81.87 83.9599 82.12 83.9599 82.55L83.9899 87.78C83.6699 87.7267 83.3165 87.77 82.9299 87.91C81.7499 88.34 80.7999 89.59 80.7999 90.7C80.8099 91.8 81.7699 92.35 82.9499 91.91C84.1399 91.48 85.0899 90.23 85.0799 89.12L85.0399 80C85.0399 79.6 89.6499 77.51 89.5799 77.52C89.5732 77.52 89.5632 77.5233 89.5499 77.53Z" fill="white"/>
</mask>
<g mask="url(#mask1_149_64404)">
<path d="M75.5 100.3L70.7 80.7L88.6 73.2L93.5 92.8L75.5 100.3Z" fill="url(#paint1_linear_149_64404)"/>
</g>
<path d="M80.4 81.6L79 82.1C78.7 82.2 78.5 82.5 78.5 82.8" stroke="#FEFEFE" stroke-width="0.4" stroke-linecap="round" stroke-linejoin="round"/>
<path d="M81.7 81L81.5 81.1" stroke="#FEFEFE" stroke-width="0.4" stroke-linecap="round" stroke-linejoin="round"/>
<path d="M83.7 82.1C83.6 81.8 83.3 81.7 82.9 81.8L79.7 83.2C79.4 83.4 79.2 83.7 79.2 84V91.7C79.2 93 78.1 94.5 76.7 95C75.8 95.3 74.9 95.2 74.5 94.6C74.8 95.4 75.8 95.8 76.9 95.4C78.3 94.8 79.4 93.4 79.4 92.1V84.2C79.4 83.9 79.6 83.6 79.9 83.5L83.2 82C83.4 81.9333 83.5666 81.9667 83.7 82.1Z" fill="#3A82B6"/>
<path d="M84.7999 79.5C84.7999 79.5667 84.7999 79.6667 84.7999 79.8L84.9 88.8C84.9 89.9 83.9 91.1 82.7 91.6C82 91.9 81.3 91.7 80.9 91.3C81.2 92 82 92.3 83 91.9C84.1 91.5 85.1 90.2 85.1 89.1L85 80C85 79.8 84.8999 79.6 84.7999 79.5Z" fill="#3A82B6"/>
<path d="M78.5 85.1L78.6 88.9" stroke="#FEFEFE" stroke-width="0.4" stroke-linecap="round" stroke-linejoin="round"/>
<path d="M78.5 84.2V84.4" stroke="#FEFEFE" stroke-width="0.4" stroke-linecap="round" stroke-linejoin="round"/>
<path d="M84.4 84.1V85.5" stroke="#FEFEFE" stroke-width="0.4" stroke-linecap="round" stroke-linejoin="round"/>
<path d="M75.7 92C75.2 92.5 74.9 93.1 74.9 93.7" stroke="#FEFEFE" stroke-width="0.4" stroke-linecap="round" stroke-linejoin="round"/>
<path d="M76.4 91.4C76.3334 91.4667 76.2666 91.5 76.2 91.5" stroke="#FEFEFE" stroke-width="0.4" stroke-linecap="round" stroke-linejoin="round"/>
<path d="M82.2999 88.8C81.7999 89.2 81.5 89.8 81.5 90.3" stroke="#FEFEFE" stroke-width="0.4" stroke-linecap="round" stroke-linejoin="round"/>
<path d="M82.9 88.3C82.9 88.3667 82.8666 88.4 82.7999 88.4" stroke="#FEFEFE" stroke-width="0.4" stroke-linecap="round" stroke-linejoin="round"/>
<mask id="mask2_149_64404" style="mask-type:luminance" maskUnits="userSpaceOnUse" x="78" y="77" width="13" height="16">
<path d="M89.6601 77.42L78.58 81.71C78.46 81.76 79.6 81.36 80.86 80.95C82.35 80.47 84.0201 79.96 84.0201 80.11L84.06 87.44C83.72 87.38 83.34 87.4267 82.92 87.58C81.64 88.05 80.61 89.4 80.61 90.6C80.62 91.79 81.66 92.38 82.94 91.91C84.22 91.44 85.25 90.09 85.25 88.89L85.21 81.72C85.21 81.45 85.3901 81.18 85.6501 81.06L88.6501 79.76C89.0301 79.6 89.39 79.82 89.39 80.21L89.4101 84.99C89.1234 84.9434 88.8033 84.9834 88.45 85.11C87.38 85.5 86.5 86.65 86.51 87.66C86.51 88.67 87.39 89.16 88.47 88.77C89.55 88.37 90.42 87.23 90.42 86.22L90.38 77.89C90.38 77.55 90.11 77.34 89.8 77.38C89.7533 77.3867 89.7067 77.4 89.6601 77.42Z" fill="white"/>
</mask>
<g mask="url(#mask2_149_64404)">
<path d="M80.7999 95.6L76.7999 79.6L89.6 74.3L93.6 90.3L80.7999 95.6Z" fill="url(#paint2_linear_149_64404)"/>
</g>
<path d="M86.1 79.3L84.9 79.8" stroke="#FEFEFE" stroke-width="0.4" stroke-linecap="round" stroke-linejoin="round"/>
<path d="M87.4 78.8L87.1 78.9" stroke="#FEFEFE" stroke-width="0.4" stroke-linecap="round" stroke-linejoin="round"/>
<path d="M89.1 79.8C89 79.5 88.7 79.4 88.5 79.6L85.5 80.9C85.2 81 85 81.2 85 81.5L85.1 88.6C85.1 89.8 84 91.1 82.7 91.6C81.9 91.9 81.1 91.7 80.7 91.3C81.1 92 81.9 92.3 82.9 91.9C84.2 91.4 85.3 90.1 85.2 88.9V81.7C85.2 81.4 85.4 81.2 85.6 81.1L88.7 79.8C88.8333 79.6667 88.9666 79.6667 89.1 79.8Z" fill="#3A82B6"/>
<path d="M90.1 77.4C90.1666 77.4667 90.2 77.5667 90.2 77.7V85.9C90.2 86.9 89.3999 88.1 88.2999 88.5C87.5999 88.7 87 88.6 86.6 88.2C86.9 88.8 87.6 89.1 88.5 88.8C89.6 88.4 90.4 87.2 90.4 86.2V77.9C90.4 77.7 90.3 77.5 90.1 77.4Z" fill="#3A82B6"/>
<path d="M84.4 82.5L84.5 86" stroke="#FEFEFE" stroke-width="0.4" stroke-linecap="round" stroke-linejoin="round"/>
<path d="M84.4 81.7V81.9" stroke="#FEFEFE" stroke-width="0.4" stroke-linecap="round" stroke-linejoin="round"/>
<path d="M89.7999 81.6V83" stroke="#FEFEFE" stroke-width="0.4" stroke-linecap="round" stroke-linejoin="round"/>
<path d="M89.7999 80.4V80.5" stroke="#FEFEFE" stroke-width="0.4" stroke-linecap="round" stroke-linejoin="round"/>
<path d="M81.7999 88.8C81.3999 89.3 81.2 89.9 81.2 90.4" stroke="#FEFEFE" stroke-width="0.4" stroke-linecap="round" stroke-linejoin="round"/>
<path d="M82.5 88.3C82.4333 88.3667 82.3666 88.4 82.2999 88.4" stroke="#FEFEFE" stroke-width="0.4" stroke-linecap="round" stroke-linejoin="round"/>
<path d="M87.7999 85.9C87.3999 86.3 87.2 86.8 87.2 87.3" stroke="#FEFEFE" stroke-width="0.4" stroke-linecap="round" stroke-linejoin="round"/>
<path d="M88.4 85.5C88.4 85.5 88.3666 85.5333 88.2999 85.6" stroke="#FEFEFE" stroke-width="0.4" stroke-linecap="round" stroke-linejoin="round"/>
<mask id="mask3_149_64404" style="mask-type:luminance" maskUnits="userSpaceOnUse" x="35" y="38" width="11" height="17">
<path d="M44.5982 38.63C44.5482 38.28 44.1781 38.08 43.8681 38.22C42.2781 38.93 38.2982 40.9 38.2982 40.9C38.0182 41.04 37.8282 41.35 37.8582 41.66L38.4981 49.66C38.1248 49.6267 37.7148 49.71 37.2681 49.91C35.9181 50.53 34.8981 52.09 35.0081 53.4C35.1081 54.7 36.2981 55.26 37.6581 54.64C39.0082 54.02 40.0282 52.46 39.9182 51.15L39.2882 43.32C39.2582 43.02 39.4382 42.72 39.7082 42.57L42.8781 40.89C43.2781 40.69 43.6882 40.9 43.7282 41.33L44.1481 46.54C43.8281 46.5134 43.4816 46.5833 43.1082 46.75C41.9582 47.28 41.1082 48.59 41.1982 49.7C41.2882 50.8 42.2882 51.27 43.4282 50.74C44.5782 50.22 45.4382 48.9 45.3482 47.8L44.6082 38.72C44.6082 38.7133 44.6082 38.7033 44.6082 38.69L44.5982 38.63Z" fill="white"/>
</mask>
<g mask="url(#mask3_149_64404)">
<path d="M36.6982 59.7L30.2982 40.5L47.5983 31.7L53.9982 50.9L36.6982 59.7Z" fill="url(#paint3_linear_149_64404)"/>
</g>
<path d="M40.0983 40.6L38.6982 41.3C38.4982 41.4 38.2982 41.7 38.2982 42" stroke="#FEFEFE" stroke-width="0.4" stroke-linecap="round" stroke-linejoin="round"/>
<path d="M41.3982 40L41.1982 40.1" stroke="#FEFEFE" stroke-width="0.4" stroke-linecap="round" stroke-linejoin="round"/>
<path d="M43.3982 40.9C43.2982 40.6 42.9982 40.5 42.6982 40.7L39.4982 42.4C39.1982 42.5 38.9983 42.8 39.0983 43.1L39.6982 50.8C39.7982 52.1 38.7982 53.7 37.3982 54.3C36.4982 54.7 35.6982 54.6 35.1982 54.1C35.5982 54.9 36.5982 55.1 37.6982 54.6C38.9982 54 39.9982 52.5 39.8982 51.1L39.2982 43.3C39.2982 43 39.3982 42.7 39.6982 42.6L42.8982 40.9C43.0982 40.8334 43.2649 40.8334 43.3982 40.9Z" fill="#3A82B6"/>
<path d="M44.2982 38.2C44.3649 38.3333 44.3982 38.4333 44.3982 38.5L45.0983 47.5C45.1983 48.6 44.2982 49.9 43.1982 50.4C42.4982 50.8 41.7982 50.7 41.3982 50.3C41.6982 51 42.4982 51.2 43.3982 50.7C44.5982 50.2 45.3982 48.9 45.2982 47.8L44.5983 38.7C44.5983 38.5 44.4982 38.3 44.2982 38.2Z" fill="#3A82B6"/>
<path d="M38.4982 44.3L38.7982 48.1" stroke="#FEFEFE" stroke-width="0.4" stroke-linecap="round" stroke-linejoin="round"/>
<path d="M38.3982 43.4L38.4982 43.6" stroke="#FEFEFE" stroke-width="0.4" stroke-linecap="round" stroke-linejoin="round"/>
<path d="M36.1982 51.4C35.7982 51.9 35.4982 52.5 35.5982 53.1" stroke="#FEFEFE" stroke-width="0.4" stroke-linecap="round" stroke-linejoin="round"/>
<path d="M36.7982 50.8C36.7982 50.8 36.7649 50.8 36.6982 50.8" stroke="#FEFEFE" stroke-width="0.4" stroke-linecap="round" stroke-linejoin="round"/>
<path d="M42.4982 47.7C42.0982 48.2 41.8982 48.7 41.8982 49.2" stroke="#FEFEFE" stroke-width="0.4" stroke-linecap="round" stroke-linejoin="round"/>
<path d="M43.0983 47.2C43.0983 47.2 43.0648 47.2334 42.9982 47.3" stroke="#FEFEFE" stroke-width="0.4" stroke-linecap="round" stroke-linejoin="round"/>
<path d="M44.1982 41.3L44.4982 44.7" stroke="#FEFEFE" stroke-width="0.4" stroke-linecap="round" stroke-linejoin="round"/>
<path d="M44.0983 40.5L44.1982 40.7" stroke="#FEFEFE" stroke-width="0.4" stroke-linecap="round" stroke-linejoin="round"/>
<path d="M13.2999 45.8V45.1C13.2999 44.8333 13.2999 44.6 13.2999 44.4C13.2999 44.2 13.3334 43.9 13.4 43.5C13.4667 43.1 13.5999 42.7334 13.7999 42.4C13.9999 42.1334 14.3333 41.8667 14.7999 41.6C15.2666 41.3333 15.8 41.1667 16.4 41.1C17.8 41 18.9 41.5 19.4 42C19.6667 42.2 19.9 42.5 20.1 42.9C20.2333 43.3 20.3334 43.6 20.4 43.8C20.4 44 20.4 44.2333 20.4 44.5L20.5 44.6C20.5 45.3333 20.3 46.1333 19.9 47C19.4334 47.8667 18.8666 48.6333 18.2 49.3L20.9 49.1L21.1 51.9L14.1 52.5L13.9 50C15.6 48.3 16.7 47 17 46.2C17.2 45.8 17.3334 45.5 17.4 45.3C17.4 45.1667 17.4 45 17.4 44.8C17.4 44.4 17.4 44.3 17.2 44.1C17.0666 43.9667 16.9333 43.9333 16.7999 44C16.2999 44 16.2999 44.3 16.2999 44.9L16.4 45.6L13.2999 45.8Z" fill="#050505"/>
<path d="M29.2999 47.8C29.3665 48.0667 29.4 48.3 29.4 48.5C29.4 48.7667 29.3332 49.1 29.1999 49.5C29.0666 49.9 28.8999 50.2333 28.6999 50.5C28.4999 50.8333 28.1666 51.1 27.6999 51.3C27.1666 51.5667 26.5666 51.7334 25.9 51.8C25.2333 51.8667 24.6666 51.8 24.1999 51.6C23.7332 51.4 23.3666 51.1667 23.0999 50.9C22.8999 50.6334 22.7 50.3 22.5 49.9C22.3666 49.5 22.2999 49.2 22.2999 49C22.2332 48.8667 22.1999 48.6667 22.1999 48.4V48.1L25.1999 47.9V48.1C25.1999 48.7 25.3999 49 25.7999 49C26.2999 48.9 26.2999 48.6 26.2999 48.1C26.2332 47.5667 25.9666 47.3 25.5 47.3L24.7999 47.4L24.6999 45L25.4 44.9C25.8 44.9 26 44.6667 26 44.2C25.9333 43.6 25.6999 43.3 25.2999 43.3C24.8999 43.3 24.9 43.6 24.9 44.2V44.5L21.9 44.7V44.4C21.8333 44.1334 21.8333 43.9 21.9 43.7C21.8333 43.5667 21.8666 43.2667 22 42.8C22.0666 42.4 22.2 42.0667 22.4 41.8C22.6 41.4667 22.9333 41.1667 23.4 40.9C23.8666 40.7 24.4 40.5667 25 40.5C26.4 40.4 27.5 40.8 28 41.3C28.2666 41.5667 28.4666 41.9 28.5999 42.3C28.7999 42.6334 28.9333 42.9334 29 43.2C29 43.4 29 43.6334 29 43.9C29.1 44.1 29.1 44.4 28.9 45.2C28.7666 45.5334 28.6 45.7667 28.4 45.9C28.6666 46.0334 28.8666 46.2333 29 46.5C29.1333 46.8333 29.2332 47.1334 29.2999 47.4V47.8Z" fill="#050505"/>
<path d="M14.7 44.3L14.6 43.5C14.6 43.3 14.6 43.1 14.6 42.9C14.6 42.7 14.6333 42.4 14.7 42C14.8333 41.5333 14.9666 41.1667 15.1 40.9C15.3 40.6334 15.6333 40.3667 16.1 40.1C16.5666 39.8334 17.1333 39.6667 17.7999 39.6C19.1999 39.5 20.2 39.9 20.7 40.4C20.9666 40.6667 21.2 41 21.4 41.4C21.5334 41.8 21.6333 42.1 21.7 42.3C21.7 42.5 21.7333 42.7333 21.7999 43C21.8666 43.8 21.6666 44.6333 21.2 45.5C20.7333 46.3667 20.1667 47.1334 19.5 47.8L22.2 47.6L22.4 50.4L15.4 50.9L15.2 48.4C16.9 46.8 17.9999 45.4 18.2999 44.7C18.4999 44.3 18.6333 44 18.7 43.8C18.7666 43.6 18.7666 43.4334 18.7 43.3C18.7 42.9 18.7 42.7 18.5 42.5C18.3667 42.4333 18.2333 42.4 18.1 42.4C17.6 42.5 17.6 42.7 17.6 43.4L17.7 44L14.7 44.3Z" fill="#FEFEFE"/>
<path d="M30.7 46.2V46.3C30.7 46.5667 30.7 46.8 30.7 47C30.7 47.2 30.6333 47.5 30.5 47.9C30.4333 48.3667 30.2667 48.7333 30 49C29.8 49.2667 29.4667 49.5333 29 49.8C28.5333 50.0667 27.9333 50.2333 27.2 50.3C26.6 50.3 26.0333 50.2 25.5 50C25.0333 49.8667 24.6667 49.6667 24.4 49.4C24.2 49.1334 24.0334 48.8 23.9 48.4C23.7 48 23.6 47.7 23.6 47.5C23.5333 47.3 23.5 47.1 23.5 46.9V46.6L26.5 46.3V46.6C26.6 47.2 26.7 47.4 27.1 47.4C27.6 47.4 27.7 47 27.6 46.5C27.5333 45.9667 27.3 45.7333 26.9 45.8H26.2L26 43.5L26.7 43.4C27.1 43.4 27.2999 43.1333 27.2999 42.6C27.2999 42 27.1 41.7333 26.7 41.8C26.2 41.8 26.2 42.1 26.2 42.7V42.9L23.2 43.2V42.9C23.2 42.6334 23.2 42.4 23.2 42.2C23.2 42 23.2333 41.7 23.2999 41.3C23.3666 40.9 23.5 40.5333 23.7 40.2C23.9 39.9333 24.2333 39.6667 24.7 39.4C25.1666 39.1334 25.7334 38.9667 26.4 38.9C27.7 38.8 28.7999 39.3 29.2999 39.8C29.5666 40 29.8 40.3 30 40.7C30.1333 41.1 30.2333 41.4 30.2999 41.6C30.2999 41.8 30.3334 42.0333 30.4 42.3V42.4C30.4 42.6 30.4 42.9 30.2 43.6C30.0666 44 29.9 44.2667 29.7 44.4C29.9666 44.4667 30.1666 44.6667 30.2999 45C30.4999 45.3333 30.6 45.6 30.6 45.8L30.7 46.2Z" fill="#FEFEFE"/>
<path opacity="0.3" d="M49.5999 101.5C49.4999 102.5 55.1999 103.4 62.2999 103.6C69.3999 103.8 75.0999 103.1 75.0999 102.1C75.0999 101.1 69.4 100.1 62.4 100C55.3 99.8 49.5999 100.5 49.5999 101.5Z" fill="#050505"/>
<path d="M83.5 41.2C83.5 41.2 84.1999 41.1 84.2999 41.2C84.3999 41.4 84.3 43.8 84.2 44C84.1 44.2 83.4 44.1 83.4 44.1L83.5 41.2Z" fill="#7B7B7B" stroke="#050505" stroke-width="0.4" stroke-linecap="round" stroke-linejoin="round"/>
<path d="M82.2999 38.6C84.3999 40.1 84.1 45.2 82.5 46.9L81.9 46.1C83 44.1 83.7 41 81.9 39.6L82.2999 38.6Z" fill="#81C241" stroke="#050505" stroke-width="0.5" stroke-linecap="round" stroke-linejoin="round"/>
<path opacity="0.4" d="M82.2999 38.6C84.3999 40.1 84.1 45.2 82.5 46.9L81.9 46.1C83 44.1 83.7 41 81.9 39.6L82.2999 38.6Z" fill="#050505"/>
<path d="M86.5 54.7L85.4 55.2L84.7 53.5L85.1 53.3L86.5 54.7Z" fill="#7B7B7B" stroke="#050505" stroke-width="0.4" stroke-linecap="round" stroke-linejoin="round"/>
<path d="M84.1 68.6C81.3 70.5 78.0999 71.4 75.2999 70.6C72.4999 69.9 68.5999 68.4 63.2999 68.2C58.0999 68.1 55.7999 65.7 55.7999 62C55.8999 58.2 59.4 37.5 59.4 35.5C59.5 33.5 59.8999 30.9 62.2999 31C64.5999 31 74 31.2 76.1 31.6C78.3 32 81.7 33.1 82.4 36.2C82.7 37.7 83.1999 41.9 83.2999 42.2C82.9999 42.4 82.5 42.3 82.5 42.3C82.3 51.5 85.5 50.9 85.5 59.9C85.4 61.7 84.8 67.3 84.1 68.6Z" fill="#81C241" stroke="#050505" stroke-width="0.7" stroke-linecap="round" stroke-linejoin="round"/>
<path d="M82.5 42.3C81.2 42.3 76.9 40.7 76 33.1" stroke="#050505" stroke-width="0.7" stroke-linecap="round" stroke-linejoin="round"/>
<path d="M74.2 32.5C74.6 33.2 74.7 35.2 74.7 36.2C74.8 37.2 74.4 63.8 74 65.9C73.6 68.1 72.9 68.8 71.7 69.4" stroke="#050505" stroke-width="0.5" stroke-linecap="round" stroke-linejoin="round"/>
<path opacity="0.4" d="M62.1999 31.7L73 32.1C73.6 32.1 74.3 32.2 74.5 33.9C74.6 35.5 74.5 63.3 74 65.9C73.5 68.6 72 69.6 70.9 69.4C69.8 69.3 65.4999 68.1 63.6999 68.2C61.7999 68.3 57.1 67.5 56.4 65.1C55.7 62.7 55.8 61.2 56 59.9C56.2 58.6 59.4 35.9 59.4 35.9C59.5 34.7 59.9 32 60.5 31.8C61.2 31.7 62.1999 31.7 62.1999 31.7Z" fill="#050505"/>
<path d="M81.2999 35.3C80.8999 35.2 80.1 35.1 79.6 35.3L78 34.4L77.6 34.9L78.5 37.2L78.2 38.1L79.5 39H81.9C81.8 38.7 81.2 36.5 81.1 36.3C81.1 36 81.2999 35.3 81.2999 35.3Z" fill="#E2C825" stroke="#050505" stroke-width="0.5" stroke-linecap="round" stroke-linejoin="round"/>
<path d="M78.7 36.1C78.7 35.9 78.9 35.7 79.1 35.7C79.3 35.7 79.4 35.9 79.4 36.1C79.4 36.3 79.3 36.5 79.1 36.5C78.8 36.5 78.7 36.3 78.7 36.1Z" fill="#050505"/>
<path d="M81.7999 68.7H82.2999C82.2999 63.9 82.6 59.8 83.1 57.1C83.6 54.5 84.1 53.7 84.4 53.6C84.4 53.6 84.4 53.6 84.5 53.7L85 53.3C84.7 53.1 84.5 53 84.2 53.1C83.8666 53.1667 83.5666 53.5334 83.2999 54.2C82.9666 54.8667 82.7 55.8 82.5 57C82 59.8 81.7999 63.8 81.7999 68.7Z" fill="#7B7B7B" stroke="#050505" stroke-width="0.4" stroke-linecap="round" stroke-linejoin="round"/>
<path d="M84.6 53.3C84.6 53.1 84.8 53 85 53C85.2 53 85.2999 53.1 85.2999 53.3C85.2999 53.5 85.1 53.7 85 53.7C84.8 53.7 84.6 53.5 84.6 53.3Z" fill="#7B7B7B" stroke="#050505" stroke-width="0.4" stroke-linecap="round" stroke-linejoin="round"/>
<path d="M85.7 54.3L85.9 54.6L85.6 54.7L85.4 54.3H85.7Z" stroke="#050505" stroke-width="0.4" stroke-linecap="round" stroke-linejoin="round"/>
<path d="M84.2 53.2L84.4 53.6" stroke="#050505" stroke-width="0.4" stroke-linecap="round" stroke-linejoin="round"/>
<path d="M83.7999 53.3L84.1 53.8" stroke="#050505" stroke-width="0.4" stroke-linecap="round" stroke-linejoin="round"/>
<path d="M83.6 53.7L83.9 54.1" stroke="#050505" stroke-width="0.4" stroke-linecap="round" stroke-linejoin="round"/>
<path d="M83.2999 54.1L83.7999 54.4" stroke="#050505" stroke-width="0.4" stroke-linecap="round" stroke-linejoin="round"/>
<path d="M83.1 54.6L83.6 54.8" stroke="#050505" stroke-width="0.4" stroke-linecap="round" stroke-linejoin="round"/>
<path d="M83 55L83.5 55.3" stroke="#050505" stroke-width="0.4" stroke-linecap="round" stroke-linejoin="round"/>
<path d="M82.9 55.5L83.4 55.7" stroke="#050505" stroke-width="0.4" stroke-linecap="round" stroke-linejoin="round"/>
<path d="M82.7 56L83.2 56.1" stroke="#050505" stroke-width="0.4" stroke-linecap="round" stroke-linejoin="round"/>
<path d="M82.6 56.4L83.1 56.6" stroke="#050505" stroke-width="0.4" stroke-linecap="round" stroke-linejoin="round"/>
<path d="M82.6 56.9L83.1 57.1" stroke="#050505" stroke-width="0.4" stroke-linecap="round" stroke-linejoin="round"/>
<path d="M82.5 57.4L83 57.5" stroke="#050505" stroke-width="0.4" stroke-linecap="round" stroke-linejoin="round"/>
<path d="M82.4 57.8L82.9 58" stroke="#050505" stroke-width="0.4" stroke-linecap="round" stroke-linejoin="round"/>
<path d="M82.2999 58.3L82.9 58.4" stroke="#050505" stroke-width="0.4" stroke-linecap="round" stroke-linejoin="round"/>
<path d="M82.2999 58.8L82.7999 58.9" stroke="#050505" stroke-width="0.4" stroke-linecap="round" stroke-linejoin="round"/>
<path d="M82.2 59.3L82.7999 59.4" stroke="#050505" stroke-width="0.4" stroke-linecap="round" stroke-linejoin="round"/>
<path d="M82.2 59.7L82.7 59.8" stroke="#050505" stroke-width="0.4" stroke-linecap="round" stroke-linejoin="round"/>
<path d="M82.1 60.2L82.6 60.3" stroke="#050505" stroke-width="0.4" stroke-linecap="round" stroke-linejoin="round"/>
<path d="M82.1 60.7L82.6 60.8" stroke="#050505" stroke-width="0.4" stroke-linecap="round" stroke-linejoin="round"/>
<path d="M82 61.2L82.6 61.3" stroke="#050505" stroke-width="0.4" stroke-linecap="round" stroke-linejoin="round"/>
<path d="M82 61.7L82.6 61.8" stroke="#050505" stroke-width="0.4" stroke-linecap="round" stroke-linejoin="round"/>
<path d="M82 62.2L82.5 62.3" stroke="#050505" stroke-width="0.4" stroke-linecap="round" stroke-linejoin="round"/>
<path d="M81.9 62.7H82.5" stroke="#050505" stroke-width="0.4" stroke-linecap="round" stroke-linejoin="round"/>
<path d="M81.9 63.2H82.4" stroke="#050505" stroke-width="0.4" stroke-linecap="round" stroke-linejoin="round"/>
<path d="M82.5 63.7H81.9" stroke="#050505" stroke-width="0.4" stroke-linecap="round" stroke-linejoin="round"/>
<path d="M82.4 64.3H81.9" stroke="#050505" stroke-width="0.4" stroke-linecap="round" stroke-linejoin="round"/>
<path d="M82.4 64.8H81.9" stroke="#050505" stroke-width="0.4" stroke-linecap="round" stroke-linejoin="round"/>
<path d="M82.4 65.3H81.7999" stroke="#050505" stroke-width="0.4" stroke-linecap="round" stroke-linejoin="round"/>
<path d="M82.4 65.7L81.7999 65.8" stroke="#050505" stroke-width="0.4" stroke-linecap="round" stroke-linejoin="round"/>
<path d="M82.2999 66.2H81.7999" stroke="#050505" stroke-width="0.4" stroke-linecap="round" stroke-linejoin="round"/>
<path d="M82.4 66.7H81.7999" stroke="#050505" stroke-width="0.4" stroke-linecap="round" stroke-linejoin="round"/>
<path d="M82.2999 67.1L81.7999 67.2" stroke="#050505" stroke-width="0.4" stroke-linecap="round" stroke-linejoin="round"/>
<path d="M82.2999 67.6H81.7" stroke="#050505" stroke-width="0.4" stroke-linecap="round" stroke-linejoin="round"/>
<path d="M82.2999 68L81.7 68.1" stroke="#050505" stroke-width="0.4" stroke-linecap="round" stroke-linejoin="round"/>
<path d="M82.4 68.4H81.7" stroke="#050505" stroke-width="0.4" stroke-linecap="round" stroke-linejoin="round"/>
<path d="M64 101.4C64 100.9 63.7 98 63.6 97.6C63.4 97.1 59.6999 96.3 58.2999 97.6C57.7999 98 56.8999 98.2 56.2999 98.4C55.1999 98.8 52.8 100.1 52.7 101.5C52.9 101.7 53.8999 101.9 55.2999 101.9C56.5999 101.9 63 102 63.4 102.1C63.8 102.1 64 101.7 64 101.4Z" fill="#C2B9B4" stroke="#050505" stroke-width="0.7" stroke-linecap="round" stroke-linejoin="round"/>
<path d="M58 99.3C57.8667 99.3667 57.7666 99.4333 57.7 99.5C57.1 99.1 56.4 98.9 55.7 98.7C56.5 98.3 57.5 98.1 58.2 97.5C58.3 97.4 58.5 97.3 58.9 97.2C59.5 97.3 60.1 97.5 60.6 97.9C59.8 98.4 58.9 98.7 58 99.3Z" fill="#D1202B" stroke="#050505" stroke-width="0.6" stroke-linecap="round" stroke-linejoin="round"/>
<path d="M55.2 98.9C55.3333 98.8334 55.5 98.7667 55.7 98.7C56.4 98.9 57.1 99.1 57.7 99.5C57.8 99.4 59.8 98.4 60.6 97.9C60.1 97.5 59.5 97.3 58.9 97.2C60.3 96.7 63.2 96.1 63.5 97.4C63.8 99.1 63.9 100.6 63.9 100.6C63.9 100.6 63.3 101.2 62.7 101.2C62 101.2 56.7999 101 56.7999 101C56.3999 100.5 55.6 99.8 54 99.7C54.4 99.4333 54.8 99.1667 55.2 98.9Z" fill="#FEFEFE" stroke="#050505" stroke-width="0.6" stroke-linecap="round" stroke-linejoin="round"/>
<path d="M58.5 98.8C58.2 98.6 57.1 98.2 57.1 98.2" stroke="#050505" stroke-width="0.6" stroke-linecap="round" stroke-linejoin="round"/>
<path d="M57.7 99.5C57.9 99.9 58.2 100.5 58.2 101" stroke="#050505" stroke-width="0.6" stroke-linecap="round" stroke-linejoin="round"/>
<path opacity="0.2" d="M61.7999 101.1C62.2999 101.1 62.6 100.5 62.6 100.2C62.5 99.7 62.2 98.3 61.9 97C62.8 97.1 63.5 97.4 63.6 97.6C63.7 98 64 100.9 64 101.4C64 101.7 63.8 102.1 63.4 102.1C63 102 56.5999 101.9 55.2999 101.9C54.6999 101.9 54.1999 101.867 53.7999 101.8C56.9999 101.5 61.3999 101.2 61.7999 101.1Z" fill="#050505"/>
<path d="M63.4001 74.2L63.6 97.5C62.8 98.3 59.1 98.1 58.2 97.7C58.2 97.7 55.8 76.9 55.6 74.6C55.5 72.3 56.4 70.1 59.3 70.1C63.2 70.2 63.4001 74.2 63.4001 74.2Z" fill="#6E6B85" stroke="#050505" stroke-width="0.7" stroke-linecap="round" stroke-linejoin="round"/>
<path d="M63.1999 71.9L63.5999 97.5C62.7999 98.3 59.0999 98.1 58.1999 97.7C58.1999 97.7 55.6 74.7 55.5 72.4C55.3 70 56.1999 67.9 59.1999 67.9C63.0999 68 63.4 74.2 63.4 74.2" fill="#6E6B85"/>
<path d="M63.1999 71.9L63.5999 97.5C62.7999 98.3 59.0999 98.1 58.1999 97.7C58.1999 97.7 55.6 74.7 55.5 72.4C55.3 70 56.1999 67.9 59.1999 67.9C63.0999 68 63.4 74.2 63.4 74.2" stroke="#050505" stroke-width="0.7" stroke-linecap="round" stroke-linejoin="round"/>
<path opacity="0.2" d="M61.7 73.7C61.7 73.7 61.5999 71.4 59.7999 70.2C63.1999 70.6 63.4 74.2 63.4 74.2L63.6 97.5C63.3 97.7 62.7 97.9 62 98L61.7 73.7Z" fill="#050505"/>
<path d="M60.7 74L62 97.8" stroke="#050505" stroke-width="0.4" stroke-linecap="round" stroke-linejoin="round"/>
<path d="M70.4 101.6C70.4 101 70 98.1 69.9 97.7C69.7 97.3 66 96.4 64.6 97.7C64.2 98.2 63.3 98.3 62.7 98.5C61.5 99 59.1 100.2 59.1 101.7C59.3 101.8 60.2 102 61.6 102.1C63 102.1 69.3 102.2 69.7 102.2C70.1 102.2 70.4 101.8 70.4 101.6Z" fill="#C2B9B4" stroke="#050505" stroke-width="0.7" stroke-linecap="round" stroke-linejoin="round"/>
<path d="M64.2999 99.4C64.2333 99.4667 64.1666 99.5333 64.1 99.6C63.5 99.2 62.7 99 62 98.8C62.9 98.5 63.8 98.3 64.5 97.7C64.6 97.6 64.9 97.5 65.2 97.3C65.8 97.5 66.5 97.6 66.9 98C66.1 98.6 65.1999 98.9 64.2999 99.4Z" fill="#D1202B" stroke="#050505" stroke-width="0.6" stroke-linecap="round" stroke-linejoin="round"/>
<path d="M61.5 99.1C61.7 98.9667 61.8667 98.8667 62 98.8C62.7 99 63.5 99.2 64.1 99.6C64.2 99.6 66.1 98.6 66.9 98C66.5 97.6 65.8 97.5 65.2 97.3C66.6 96.8 69.5999 96.2 69.7999 97.6C70.1999 99.3 70.2 100.7 70.2 100.7C70.2 100.7 69.6 101.4 69 101.3C68.4 101.3 63.1 101.2 63.1 101.2C62.8 100.7 61.8999 99.9 60.2999 99.9C60.6999 99.5667 61.1 99.3 61.5 99.1Z" fill="#FEFEFE" stroke="#050505" stroke-width="0.6" stroke-linecap="round" stroke-linejoin="round"/>
<path d="M64.9 98.9C64.5 98.7 63.5 98.4 63.5 98.4" stroke="#050505" stroke-width="0.6" stroke-linecap="round" stroke-linejoin="round"/>
<path d="M64.1 99.6C64.3 100 64.5 100.6 64.5 101.2" stroke="#050505" stroke-width="0.6" stroke-linecap="round" stroke-linejoin="round"/>
<path opacity="0.2" d="M68.1 101.3C68.7 101.3 68.9 100.7 68.9 100.3C68.9 99.9 68.5999 98.4 68.2999 97.2C69.1999 97.3 69.8 97.5 69.9 97.7C70 98.1 70.4 101 70.4 101.6C70.4 101.8 70.1 102.2 69.7 102.2C69.3 102.2 63 102.1 61.6 102.1C61 102.033 60.5 101.967 60.1 101.9C63.4 101.7 67.7 101.3 68.1 101.3Z" fill="#050505"/>
<path d="M69.7 74.3L69.9001 97.6C69.1001 98.4 65.4 98.2 64.5 97.9C64.5 97.9 62.1001 77 61.9001 74.7C61.8001 72.4 62.7 70.2 65.7 70.3C69.6 70.4 69.7 74.3 69.7 74.3Z" fill="#6E6B85" stroke="#050505" stroke-width="0.7" stroke-linecap="round" stroke-linejoin="round"/>
<path d="M69.7 74.3L69.9001 97.6C69.1001 98.4 65.4 98.2 64.5 97.9C64.5 97.9 62.1001 77 61.9001 74.7C61.8001 72.4 62.7 70.2 65.7 70.3C69.6 70.4 69.7 74.3 69.7 74.3Z" fill="#6E6B85" stroke="#050505" stroke-width="0.7" stroke-linecap="round" stroke-linejoin="round"/>
<path opacity="0.2" d="M68.1 73.9C68.1 73.9 68 71.5 66.2 70.3C69.6 70.7 69.7 74.3 69.7 74.3L69.9 97.6C69.7 97.9 68.9999 98.1 68.2999 98.1L68.1 73.9Z" fill="#050505"/>
<path d="M67.1 74.2L68.2999 98" stroke="#050505" stroke-width="0.4" stroke-linecap="round" stroke-linejoin="round"/>
<path d="M50.8 72.9C51.1 72.9 52.3 72.5 52.3 70.5C52.4 68.5 52 68 51.3 67.5C50.7 67 48.1 67.4 48.1 67.4C48.1 67.4 46.0001 67.9 44.9001 71.6C44.9001 71.6 44.4001 73.4 44.9001 73.4C45.5001 73.4 49.4001 73.4 49.9001 73.5C50.4001 73.5 50.3 73 50.8 72.9Z" fill="#E8B29A" stroke="#050505" stroke-width="0.7" stroke-linecap="round" stroke-linejoin="round"/>
<path d="M49.2999 73C49.0999 74.8 49.1999 75.3 49.1999 75.3C49.1999 75.8 49.5 76.1 49.9 76.2C50.3 76.2 50.6999 76 50.6999 75.6C50.8999 74.7 50.9 73.3 51 72.5" fill="#E8B29A"/>
<path d="M49.2999 73C49.0999 74.8 49.1999 75.3 49.1999 75.3C49.1999 75.8 49.5 76.1 49.9 76.2C50.3 76.2 50.6999 76 50.6999 75.6C50.8999 74.7 50.9 73.3 51 72.5" stroke="#050505" stroke-width="0.7" stroke-linecap="round" stroke-linejoin="round"/>
<path d="M47.7 72.8C47.4 74.3 47.5 75.9 47.5 75.9C47.5 76.4 47.7 76.7 48.2 76.8C48.6 76.9 48.9 76.6 49 76.2C49.1 75.8 49 75.8 49 74.9C49 74.9 49.1 74 49.3 73.1" fill="#E8B29A"/>
<path d="M47.7 72.8C47.4 74.3 47.5 75.9 47.5 75.9C47.5 76.4 47.7 76.7 48.2 76.8C48.6 76.9 48.9 76.6 49 76.2C49.1 75.8 49 75.8 49 74.9C49 74.9 49.1 74 49.3 73.1" stroke="#050505" stroke-width="0.7" stroke-linecap="round" stroke-linejoin="round"/>
<path d="M47.5 74.2C47.3 75.5 47.3999 75.9 47.2999 76.5C47.1999 76.9 46.8 77.1 46.4 77.1C46 77 45.6999 76.7 45.7999 76.2C45.7999 76.2 45.7 74.8 46 73.1" fill="#E8B29A"/>
<path d="M47.5 74.2C47.3 75.5 47.3999 75.9 47.2999 76.5C47.1999 76.9 46.8 77.1 46.4 77.1C46 77 45.6999 76.7 45.7999 76.2C45.7999 76.2 45.7 74.8 46 73.1" stroke="#050505" stroke-width="0.7" stroke-linecap="round" stroke-linejoin="round"/>
<path d="M45.7999 69.5C43.7999 73.5 44.1 76 44.1 76C44.1 76.5 44.3999 76.9 44.7999 77C45.1999 77.1 45.5999 76.8 45.6999 76.4C45.8999 75 46.0999 73 46.2999 72.8" fill="#E8B29A"/>
<path d="M45.7999 69.5C43.7999 73.5 44.1 76 44.1 76C44.1 76.5 44.3999 76.9 44.7999 77C45.1999 77.1 45.5999 76.8 45.6999 76.4C45.8999 75 46.0999 73 46.2999 72.8" stroke="#050505" stroke-width="0.7" stroke-linecap="round" stroke-linejoin="round"/>
<path opacity="0.2" d="M50.9 72.2C51.1 72.2 51.7999 71.4 50.7999 71C49.9999 70.8 48.7 70.5 47.7 70.6C46.4 70.8 45.4 71.1 45.4 70.5C45.4 70 46.3 68.5 47 68C47.6 67.4 49.6 67.2 50.2 67.2C50.9 67.3 51.9 67.8 52.2 68.8C52.5 69.9 52.3999 71.5 51.7999 72C51.1999 72.4 50.9 72.2 50.9 72.2Z" fill="#050505"/>
<path opacity="0.2" d="M46 72.1C46 72.1 45.5 72.9 45.3 73.7C45.1 74.5 44.7001 76.4 45.4001 76.4L45.8 76.2C45.8 76.2 46.1 76.7 46.6 76.6C47.1 76.5 47.3 75.5 47.3 75.5C47.3 75.5 47.7 76.3 48.3 76C48.8 75.7 48.7 75.3 48.7 75.3C48.7 75.3 49.1 75.8 49.6 75.6C50.1 75.4 50.6 74.8 50.6 74.2C50.7 73.6 50.8 72.4 50.8 72.4C50.8 72.4 50.4 72.8 49.6 72.8C48.7 72.8 47.8 72.7 47.8 72.7L46 72.1Z" fill="#050505"/>
<path d="M48 72.4C48 72.4 48 72.6 47.7 73.6C47.4 74.3 47.4 74.5 47.1 74.9C46.8 75.3 46.3 75.3 46 75C45.6 74.8 45.4999 74.3 45.7999 73.8C45.9999 73.2 46.1 72.9 46.1 72.2C46.1 72.2 46 71.5 45.6 71.4" fill="#E8B29A"/>
<path d="M48 72.4C48 72.4 48 72.6 47.7 73.6C47.4 74.3 47.4 74.5 47.1 74.9C46.8 75.3 46.3 75.3 46 75C45.6 74.8 45.4999 74.3 45.7999 73.8C45.9999 73.2 46.1 72.9 46.1 72.2C46.1 72.2 46 71.5 45.6 71.4" stroke="#050505" stroke-width="0.7" stroke-linecap="round" stroke-linejoin="round"/>
<path d="M54.5 41.5C59.4 41.6 59.1 45.2 59.1 45.2C58.3 52.9 56.4 60.3 54.4 67.7C54.3 67.8 53.1 71.5 53.1 71.5L45.2 69.6C45.2 69.6 48.1 60.1 49.2 54.5C50.2 49.9 50.5 46.8 50.9 45.2C51.4 43 52 41.5 54.5 41.5Z" fill="#692B83" stroke="#050505" stroke-width="0.7" stroke-linecap="round" stroke-linejoin="round"/>
<path opacity="0.2" d="M52.1 67.3C54.1 60 56.0999 52.5 56.7999 44.9C56.7999 44.9 57 42.4 54.4 41.5C54.4 41.5 54.4333 41.5 54.5 41.5C59.4 41.6 59.1 45.2 59.1 45.2C58.3 52.9 56.4 60.3 54.4 67.7C54.3 67.8 53.1 71.5 53.1 71.5C53.1 71.5 52.2 71.3 50.9 71C51.2 70.2 52.1 67.4 52.1 67.3Z" fill="#050505"/>
<path opacity="0.2" d="M51.6999 68.7C51.7999 68.3 52.1999 68.1 52.5999 68.2C52.9999 68.4 53.2 68.7 53 69.1C52.9 69.5 52.4999 69.7 52.1999 69.6C51.7999 69.5 51.5999 69.1 51.6999 68.7Z" fill="#050505" stroke="#050505" stroke-width="0.4" stroke-linecap="round" stroke-linejoin="round"/>
<path d="M51.7999 68.4C51.8999 68 52.2999 67.8 52.6999 67.9C52.9999 68 53.1999 68.4 53.0999 68.8C52.9999 69.2 52.5999 69.4 52.2999 69.3C51.8999 69.1 51.6999 68.8 51.7999 68.4Z" fill="#848484" stroke="#050505" stroke-width="0.4" stroke-linecap="round" stroke-linejoin="round"/>
<path d="M57.7 40.5C56.4 40.8 53.6999 41.6 53.2999 41.9C52.1999 47.6 52.8 60 52.5 62.3C52 66.1 50.5 72.6 50.5 72.6C52.9 73.8 55.8 73.5 58.4 73.6C60.9 73.8 58.2 42.1 57.7 40.5Z" fill="#692B83" stroke="#050505" stroke-width="0.7" stroke-linecap="round" stroke-linejoin="round"/>
<path d="M62.2999 40.4C59.3999 40.3 53.6 40.3 53.6 46.3C53.5 52.3 53.4 67.8 54.4 71C55.4 74.2 58.7 74.7 61.9 74.7C66.8 74.9 69.4 74.5 69.5 69.2C69.7 63.1 70.5 48.4 70.6 45.8C70.6 43.2 71.1999 40.6 62.2999 40.4Z" fill="#050505"/>
<path d="M53.6 59.8C53.9 57.4 51.2 53.4 51.2 48.3C51.2 48.3 53.2 47.5 53.6 47.2C53.6 47.2 52.1999 46.6 51.7999 46C52.4999 43.1 56.3 40.2 58.2 40L58.1 40.8C56.6 41.9 54.8999 45.3 54.7999 47.8C54.7999 50.3 54.0999 56.7 54.7999 59.5C54.6999 61.1 51.6 71.9 51.6 71.9" fill="#692B83"/>
<path d="M53.6 59.8C53.9 57.4 51.2 53.4 51.2 48.3C51.2 48.3 53.2 47.5 53.6 47.2C53.6 47.2 52.1999 46.6 51.7999 46C52.4999 43.1 56.3 40.2 58.2 40L58.1 40.8C56.6 41.9 54.8999 45.3 54.7999 47.8C54.7999 50.3 54.0999 56.7 54.7999 59.5C54.6999 61.1 51.6 71.9 51.6 71.9" stroke="#050505" stroke-width="0.7" stroke-linecap="round" stroke-linejoin="round"/>
<path d="M54.2999 68.7C58.1999 69.3 65 69.1 69.5 69C69.5 69.0667 69.5 69.1333 69.5 69.2C69.4 74.5 66.8 74.9 61.9 74.7C58.7 74.7 55.6 74.2 54.6 71C54.5 70.5 54.3999 69.7 54.2999 68.7Z" fill="#6E6B85"/>
<path d="M61.9 74.7C58.7 74.7 55.6 74.2 54.6 71C54.5 70.5 54.3999 69.7 54.2999 68.7C58.1999 69.3 65 69.1 69.5 69C69.5 69.0667 69.5 69.1333 69.5 69.2" stroke="#050505" stroke-width="0.7" stroke-linecap="round" stroke-linejoin="round"/>
<path d="M68.0001 39.2L68.2 32.3C68.2 32.3 68.4001 28.5 62.9001 28.4C57.5001 28.3 58.0001 31.6 58.0001 31.6L57.9001 41.7C57.6001 42 56.8 44.1 59.7 44.2C63.6 44.3 68.0001 42.3 68.0001 39.2Z" fill="#E8B29A" stroke="#050505" stroke-width="0.7" stroke-linecap="round" stroke-linejoin="round"/>
<path opacity="0.4" d="M53.7 64.8L54.2 68.5C53.7 69 54.5 72.4 56 73.5C54.3 73.8 51.2999 72.9 51.2999 72.9L53.7 64.8Z" fill="#050505"/>
<path d="M71.1 63.5C71.1 64 71.6 65.2 71.8 65.7C72 66.2 72.6 72.3 72.5 73.6C71.1 74.4 64.8 75 62.6 74.2C62.5 73.8 61.7 62.9 61.6 60.9C61.5 58.8 62.6 55.6 63.2 54.3C63.7 52.9 68 40 68.2 38.8C69.4 40 70.2 41 70.2 41C70.7 41.3 72.9001 41.4 73.9001 41.3C75.0001 41.2 76.6 44.2 76 47.1C75.5 49.9 73 52.8 72.8 54.3C72.5 55.8 71.1 61.7 71.1 63.5Z" fill="#692B83" stroke="#050505" stroke-width="0.7" stroke-linecap="round" stroke-linejoin="round"/>
<path d="M62.5 60.7C62.9 59 68.9001 52.2 69.4001 49C69.4001 49 67.6 47.9 66.8 47.6C66.8 47.6 69.8 46.9 70.2 46.6C70.2 46.6 70.4001 42.3 69.9001 41C69.9001 41 69.2 39.9 68 38.8C67.8 40 63.5 52.9 63 54.3C62.4 55.6 61.3001 58.8 61.4001 60.9C61.5001 62.9 62.2001 73.8 62.4001 74.2C64.6001 75 70.9 74.4 72.3 73.6C72.4 72.3 71.7 66.2 71.5 65.7C71.3 65.2 71 64 71.1 63.4" fill="#692B83"/>
<path d="M62.5 60.7C62.9 59 68.9001 52.2 69.4001 49C69.4001 49 67.6 47.9 66.8 47.6C66.8 47.6 69.8 46.9 70.2 46.6C70.2 46.6 70.4001 42.3 69.9001 41C69.9001 41 69.2 39.9 68 38.8C67.8 40 63.5 52.9 63 54.3C62.4 55.6 61.3001 58.8 61.4001 60.9C61.5001 62.9 62.2001 73.8 62.4001 74.2C64.6001 75 70.9 74.4 72.3 73.6C72.4 72.3 71.7 66.2 71.5 65.7C71.3 65.2 71 64 71.1 63.4" stroke="#050505" stroke-width="0.7" stroke-linecap="round" stroke-linejoin="round"/>
<path opacity="0.2" d="M62.9 64.3C62.9 63.9 63.3 63.6 63.6 63.6C64 63.7 64.2999 64 64.2999 64.4C64.2999 64.7 64 65 63.6 65C63.2 65 62.9 64.7 62.9 64.3Z" fill="#050505" stroke="#050505" stroke-width="0.4" stroke-linecap="round" stroke-linejoin="round"/>
<path d="M62.9 64C62.9 63.6 63.2 63.3 63.6 63.3C64 63.3 64.2999 63.7 64.2999 64C64.2999 64.4 64 64.7 63.6 64.7C63.2 64.7 62.9 64.4 62.9 64Z" fill="#848484" stroke="#050505" stroke-width="0.4" stroke-linecap="round" stroke-linejoin="round"/>
<path opacity="0.2" d="M63.1 68.4C63.1 68.1 63.3999 67.8 63.7999 67.8C64.1999 67.8 64.5 68.1 64.5 68.5C64.5 68.9 64.0999 69.2 63.7999 69.2C63.3999 69.1 63.1 68.8 63.1 68.4Z" fill="#050505" stroke="#050505" stroke-width="0.4" stroke-linecap="round" stroke-linejoin="round"/>
<path d="M63.1 68.1C63.1 67.7 63.3999 67.4 63.7999 67.5C64.1999 67.5 64.5 67.8 64.5 68.2C64.4 68.5 64.1 68.8 63.7 68.8C63.4 68.8 63.1 68.5 63.1 68.1Z" fill="#848484" stroke="#050505" stroke-width="0.4" stroke-linecap="round" stroke-linejoin="round"/>
<path opacity="0.2" d="M71.6 41.4C72.6 42.1 73 43.6 72.6 44.5C72.2 45.4 70.5 48.5 71.1 51.3C71.6 54.1 68.3001 61.3 68.4001 63.2C68.5001 65.1 68.7 74.5 68.7 74.5C70.3 74.2 72.3 73.6 72.3 73.6C72 66.6 70.6 63.5 71.1 62.2C71.5 61 72.8 53.9 72.8 53.9C74 52.1 76 48.2 76.1 46C76.1 43.7 74.8001 41.2 73.9001 41.3C73.1001 41.3 71.6 41.4 71.6 41.4Z" fill="#050505"/>
<path d="M54.2999 69.7L55.2 69.8L54.2999 69.7Z" fill="#6E6B85"/>
<path d="M54.2999 69.7L55.2 69.8" stroke="#050505" stroke-width="0.4" stroke-linecap="round" stroke-linejoin="round"/>
<path d="M56.6999 70.3C56.4999 71.7 56.7 73.1 57.5 74L58.6 74.4C58.1 73.6 57.3999 72.3 57.6999 70.6" stroke="#050505" stroke-width="0.4" stroke-linecap="round" stroke-linejoin="round"/>
<path d="M60.4 49.1L61.6 51.1L57.7999 57.2L55.9 50.9L57.1 49.1H60.4Z" fill="#FEFEFE" stroke="#9BCFE6" stroke-width="0.4" stroke-linecap="round" stroke-linejoin="round"/>
<path d="M61.5 51L55.9 50.9L61.5 51Z" fill="#FEFEFE"/>
<path d="M61.5 51L55.9 50.9" stroke="#9BCFE6" stroke-width="0.4" stroke-linecap="round" stroke-linejoin="round"/>
<path d="M60.5 49.2L60.1 51L59.2999 49.1L58.5 50.9L58.1 49.1L57.2 50.9L57.1 49.1" fill="#FEFEFE"/>
<path d="M60.5 49.2L60.1 51L59.2999 49.1L58.5 50.9L58.1 49.1L57.2 50.9L57.1 49.1" stroke="#9BCFE6" stroke-width="0.4" stroke-linecap="round" stroke-linejoin="round"/>
<path d="M57.2 51L57.9 57.1L60.1 51" stroke="#9BCFE6" stroke-width="0.4" stroke-linecap="round" stroke-linejoin="round"/>
<path d="M58.5 50.9L57.9 57.1" stroke="#9BCFE6" stroke-width="0.4" stroke-linecap="round" stroke-linejoin="round"/>
<path d="M58.7999 47.5L59 46.7C59 46.6 58.8999 46.4 58.7999 46.4C58.5999 46.4 58.4 46.5 58.4 46.6C58.4 46.6667 58.4 46.7 58.4 46.7L58.5 47.5C58.6 47.6 58.6 47.6 58.7 47.6C58.7666 47.6 58.7999 47.5667 58.7999 47.5Z" fill="#BA1E4B"/>
<path d="M60 47.9L60.6 47.4C60.7 47.3 60.8 47.2 60.7 47C60.6 46.9 60.4 46.9 60.2 47C60.2 47 60.2 47.0333 60.2 47.1L59.8 47.7C59.7 47.8 59.7 47.9 59.8 47.9C59.8666 47.9667 59.9334 47.9667 60 47.9Z" fill="#BA1E4B"/>
<path d="M60.8 48.7L61.6 48.5C61.8 48.5 61.9 48.3 61.8 48.2C61.8 48 61.6 47.9 61.5 48C61.4334 48 61.4001 48 61.4001 48L60.7 48.5C60.6 48.5 60.6 48.6 60.7 48.7C60.7 48.7 60.7333 48.7 60.8 48.7Z" fill="#BA1E4B"/>
<path d="M56.7 48.6L55.9 48.4C55.8 48.4 55.7 48.2 55.7 48C55.8 47.9 55.9 47.8 56.1 47.8C56.1 47.8 56.1333 47.8334 56.2 47.9L56.7999 48.4C56.8999 48.4 56.8999 48.5 56.7999 48.6C56.7999 48.6 56.7666 48.6 56.7 48.6Z" fill="#BA1E4B"/>
<path d="M57.4001 47.8L56.8 47.4C56.7 47.2 56.7 47.1 56.8 46.9C56.9 46.8 57.1 46.8 57.2 46.9C57.2 46.9 57.2333 46.9333 57.3 47L57.6 47.7C57.7 47.7 57.7 47.8 57.6 47.9C57.5334 47.9 57.4667 47.8667 57.4001 47.8Z" fill="#BA1E4B"/>
<path d="M61.9 70.2H59.7999H61.9Z" fill="#6E6B85"/>
<path d="M61.9 70.2H59.7999" stroke="#050505" stroke-width="0.4" stroke-linecap="round" stroke-linejoin="round"/>
<path d="M73.5 39.9C72.9 40.1 70.2999 39.8 70.2999 39.8C66.9999 43.2 64.9 50.7 72.5 58C72.5 58 73.2 58.2 73.4 58C70.3 52.8 67.4 46.2 73.5 39.9Z" fill="#81C241" stroke="#050505" stroke-width="0.7" stroke-linecap="round" stroke-linejoin="round"/>
<path d="M58.3 39.5C58.3 39.5 56.9 39.3 56.4 39.4C55.9 39.5 51.3 41.5 51.2 46.9C51 52.2 52.4 55.8 52.4 55.8C52.4 55.8 52.6 53.9 52.6 53.4C52.1 50.9 51.6 42.4 58.3 39.5Z" fill="#81C241" stroke="#050505" stroke-width="0.7" stroke-linecap="round" stroke-linejoin="round"/>
<path d="M62.5 60.7C62.9 59 68.9001 52.2 69.4001 49C69.4001 49 67.6 47.9 66.8 47.6C66.8 47.6 69.8 46.9 70.2 46.6C70.2 46.6 70.4001 42.3 69.9001 41C69.9001 41 69.2 39.9 68 38.8C67.8 40 63.5 52.9 63 54.3C62.4 55.6 61.3001 58.8 61.4001 60.9C61.5001 62.9 62.2001 73.8 62.4001 74.2" fill="#692B83"/>
<path d="M62.5 60.7C62.9 59 68.9001 52.2 69.4001 49C69.4001 49 67.6 47.9 66.8 47.6C66.8 47.6 69.8 46.9 70.2 46.6C70.2 46.6 70.4001 42.3 69.9001 41C69.9001 41 69.2 39.9 68 38.8C67.8 40 63.5 52.9 63 54.3C62.4 55.6 61.3001 58.8 61.4001 60.9C61.5001 62.9 62.2001 73.8 62.4001 74.2" stroke="#050505" stroke-width="0.7" stroke-linecap="round" stroke-linejoin="round"/>
<path opacity="0.2" d="M70.1 41.2L70.2 46.6L67 47.6L69.4 49C68.7 52 62.4 60.1 62.4 61.5C62.4 60 68.7 55 70.7 48.6L69.6 47.9L71.4 47C71.4 47 71.3 42.4 70.1 41.2Z" fill="#050505"/>
<path d="M53.6 59.8C53.9 57.4 51.2 53.4 51.2 48.3C51.2 48.3 53.2 47.5 53.6 47.2C53.6 47.2 52.1999 46.6 51.7999 46C52.4999 43.1 56.1 40.2 58 39.9V40.8C56.5 41.9 54.8999 45.3 54.7999 47.8C54.7999 50.3 54.0999 56.7 54.7999 59.5C54.6999 61.1 51.4 72.7 51.4 72.7" fill="#692B83"/>
<path d="M53.6 59.8C53.9 57.4 51.2 53.4 51.2 48.3C51.2 48.3 53.2 47.5 53.6 47.2C53.6 47.2 52.1999 46.6 51.7999 46C52.4999 43.1 56.1 40.2 58 39.9V40.8C56.5 41.9 54.8999 45.3 54.7999 47.8C54.7999 50.3 54.0999 56.7 54.7999 59.5C54.6999 61.1 51.4 72.7 51.4 72.7" stroke="#050505" stroke-width="0.7" stroke-linecap="round" stroke-linejoin="round"/>
<path d="M79.9 75.1C80.3 73.3 80.3999 71.8 79.7999 70.2C79.3999 69 78.3 68.5 77.2 68.2C76.7 68.1 73.7999 67.5 73.2999 70.1C73.0999 70.7 73.0999 71.5 72.7999 72.2C72.4999 72.6 72.3999 72.8 72.2999 73.7C72.2999 74 73.4 74.7 73.7 74.9C73.8 74.4 73.9 74.3 74.2 74.4C74.6 74.5 74.7 75 74.4 76C74.2 76.7 74.7 77.1 74.7 77.1L76.9 76.5C76.9 76.5 79.6 76.1 79.9 75.1Z" fill="#E8B29A" stroke="#050505" stroke-width="0.7" stroke-linecap="round" stroke-linejoin="round"/>
<path d="M72.5 72.7C72.5 72.7 72.2 73.9 72.1 74.9C72 75.8 72.1 76.3 72.2 76.6C72.5 77 73 77.2 73.3 77.1C73.7 77 73.8 76.7 73.7 76.1C73.6 75.5 73.6 75.3 73.8 74.5" fill="#E8B29A"/>
<path d="M72.5 72.7C72.5 72.7 72.2 73.9 72.1 74.9C72 75.8 72.1 76.3 72.2 76.6C72.5 77 73 77.2 73.3 77.1C73.7 77 73.8 76.7 73.7 76.1C73.6 75.5 73.6 75.3 73.8 74.5" stroke="#050505" stroke-width="0.7" stroke-linecap="round" stroke-linejoin="round"/>
<path d="M77.6 76.8C77.5 77.2 77.9 77 78.3 77.1C78.6 77.2 78.9 77 79.2 76.6C79.2 76.6 80.2 75.8 80.2 72.4" fill="#E8B29A"/>
<path d="M77.6 76.8C77.5 77.2 77.9 77 78.3 77.1C78.6 77.2 78.9 77 79.2 76.6C79.2 76.6 80.2 75.8 80.2 72.4" stroke="#050505" stroke-width="0.7" stroke-linecap="round" stroke-linejoin="round"/>
<path d="M76.9 76.2C76.6 76.9 76.5 76.9 76.5 77.3C76.4 77.7 76.6 78 77 78.2C77.3 78.3 77.6 78.1 77.9 77.8C77.9 77.8 78.4 77.3 78.9 75.1" fill="#E8B29A"/>
<path d="M76.9 76.2C76.6 76.9 76.5 76.9 76.5 77.3C76.4 77.7 76.6 78 77 78.2C77.3 78.3 77.6 78.1 77.9 77.8C77.9 77.8 78.4 77.3 78.9 75.1" stroke="#050505" stroke-width="0.7" stroke-linecap="round" stroke-linejoin="round"/>
<path d="M75.7999 76.1C75.4999 77.2 75.3999 77.5 75.2999 78C75.1999 78.4 75.3 78.8 75.6 78.9C76 79 76.3 78.8 76.5 78.4C76.5 78.4 77 77.8 77.5 75.6" fill="#E8B29A"/>
<path d="M75.7999 76.1C75.4999 77.2 75.3999 77.5 75.2999 78C75.1999 78.4 75.3 78.8 75.6 78.9C76 79 76.3 78.8 76.5 78.4C76.5 78.4 77 77.8 77.5 75.6" stroke="#050505" stroke-width="0.7" stroke-linecap="round" stroke-linejoin="round"/>
<path d="M76.0999 75.9C75.5999 78.1 75.1999 78.6 75.1999 78.6C74.8999 79.1 74.6999 79.2 74.2999 79.1C73.8999 79 73.6999 78.6 73.7999 78.2C74.0999 77 74.6 75.4 74.5 75.1" fill="#E8B29A"/>
<path d="M76.0999 75.9C75.5999 78.1 75.1999 78.6 75.1999 78.6C74.8999 79.1 74.6999 79.2 74.2999 79.1C73.8999 79 73.6999 78.6 73.7999 78.2C74.0999 77 74.6 75.4 74.5 75.1" stroke="#050505" stroke-width="0.7" stroke-linecap="round" stroke-linejoin="round"/>
<path opacity="0.1" d="M73.2 76.1C73.2 76.1 73 76.2 73 75.5C72.9 74.9 73.3 73.8 73.6 74.3L73.7 74.2L73.9001 74.5C73.5001 75.3 73.6 75.5 73.7 76.1C73.7 76.7 73.6 77 73.3 77.1C73.3 77.0333 73.3334 77 73.4001 77C73.7001 76.1 73.2 76.1 73.2 76.1Z" fill="#050505"/>
<path opacity="0.3" d="M76.2 76.4C76.2 76.4 76.4 77.6 75.6 78.9L75.2999 78.6L76.2 76.4Z" fill="#050505"/>
<path opacity="0.3" d="M77.6 75.9C77.6 75.9 77.8 77 77.1 78.3L76.7999 78.1L77.6 75.9Z" fill="#050505"/>
<path opacity="0.3" d="M79.1 75.3C79.1 75.3 79.5 75.8 78.7 77.1L78.1 77L79.1 75.3Z" fill="#050505"/>
<path opacity="0.3" d="M80.1999 73C80.1999 73 79.1 73.9 77 73.9C74.6 73.9 73.3999 72.9 72.6999 73.2C71.9999 73.4 72.5999 72.2 72.5999 72.2L73.2999 70.5C73.2999 70.5 73.3999 68.2 75.7999 68C78.1999 67.8 79.2999 69.3 79.2999 69.3C79.2999 69.3 79.9999 71 80.1999 73Z" fill="#050505"/>
<path d="M73.6 42C78.4 40.7 79.1 44.3 79.1 44.3C80.4 51.8 80.6 59.5 80.6 67.2C80.6 67.3 80.5 71.2 80.5 71.2L72.3 71.5C72.3 71.5 72.5 61.6 72.1 55.9C71.8 51.2 71.3 48.1 71.2 46.5C71 44.2 71.2 42.6 73.6 42Z" fill="#692B83" stroke="#050505" stroke-width="0.7" stroke-linecap="round" stroke-linejoin="round"/>
<path opacity="0.2" d="M78.2999 67.5C78.2999 59.8 78.1999 52.1 76.7999 44.6C76.7999 44.6 76.4 42.2 73.6 42C78.4 40.7 79.1 44.3 79.1 44.3C80.4 51.8 80.6 59.5 80.6 67.2C80.6 67.3 80.5 71.2 80.5 71.2C80.5 71.2 79.5 71.3 78.2 71.3C78.3 70.5 78.2999 67.6 78.2999 67.5Z" fill="#050505"/>
<path opacity="0.2" d="M78.4 68.9C78.4 68.5 78.7 68.2 79.1 68.2C79.5 68.2 79.7999 68.5 79.7999 68.9C79.6999 69.3 79.4 69.6 79 69.6C78.7 69.6 78.4 69.3 78.4 68.9Z" fill="#050505" stroke="#050505" stroke-width="0.4" stroke-linecap="round" stroke-linejoin="round"/>
<path d="M78.2999 68.6C78.3999 68.2 78.7 67.9 79.1 67.9C79.4 67.9 79.7 68.2 79.7 68.6C79.7 69 79.4 69.3 79 69.3C78.6 69.3 78.2999 68.9 78.2999 68.6Z" fill="#848484" stroke="#050505" stroke-width="0.4" stroke-linecap="round" stroke-linejoin="round"/>
<path d="M66.7 32.1C67.6 33.1 68.5 33.6 69.7 33.6C70.8 33.6 71.4 32.9 71.7 31.5C71.1 32 70 32 70 30.9C70.1 29.8 72.5 30.1 72.6 28.4C72.6 27.8 72.1 27.3 72.1 27.3C73.1 27.5 74.2 27.7 75 26.2C75.1 26.8 74.9999 27.6 74.7999 27.8C76.2999 27.8 77.9 25.6 77.4 22.6C77.9 23.2 78.3 24.3 78.2 24.8C79.6 22.6 78.6 21.2 78.1 20.7C77.5 20.2 76.7 19.5 76.6 19.3C77 19.3 77.7 19.3 78 18.7C78.2 18.9 78.7999 19.3 78.7999 19.9C78.7999 18.3 78.8 17.7 78 17.5C77.2 17.2 76.1 17 76.1 16.3C76.9 16.3 77.5 15.9 77.6 15.2C77.3 15.4 76.4 15.3 76.4 14.5C77 13.8 77.4 13.3 77.5 11.2C77.5 9.20001 75.2999 8.5 75.2999 8.5C76.3999 7.7 76.1 6.40001 75.4 5.60001C75.5 6.10001 75.5 7 74.6 7C73.8 6.9 73.7 4.90001 72.4 4.10001C71.2 3.30001 69.4 3.20001 69.4 3.20001C67.9 1.50001 64.5 1.80002 63.5 2.80002C63.5 2.80002 62.3 2.00002 60.5 1.90002C58.8 1.90002 57.8 3.20001 56 3.20001C54.8 3.20001 53.8999 1.5 54.2999 1C53.5999 1.7 53 3 54.2 4C53 3.4 51.1 4.00002 51.1 5.80002C50.7 5.80002 50.2 6.30002 50.1 6.80002C49.9 7.60002 50.8 8.90001 50.6 9.70001C50.4 10.5 49.1999 10.1 48.7999 9.90002C49.2999 10.4 49.6 10.9 50.1 11.2C49.5 12 49.3999 12.5 49.2999 12.7C49.1999 14.1 50 14.4 49.7 15.1C49.5 15.9 48.1999 15.7 47.7999 15.4C47.9999 15.8 48.6 16.7 49.2 17C48.7 17.3 47.5 17.5 46.6 16.8C46.9 18.4 47.5 20.2 50 21.3C49.8 21.5 49.1 21.8 48.9 21.8C49.5 24.1 53.5 24.8 53.6 25.9L66.7 32.1Z" fill="#786356" stroke="#050505" stroke-width="0.7" stroke-linecap="round" stroke-linejoin="round"/>
<g style="mix-blend-mode:multiply" opacity="0.2">
<path d="M51.5 21.4C53.5 19.8 55.2999 18.3 57.7999 17.8C60.1999 17.3 62.6 17.3 65 17.7C67.8 18.2 70.9 19 73.1 21.2C73.9 22 74.6 23.3 74.4 24.4C74.3 25.1 73.8999 25.5 73.2999 25.8C72.8999 26 71.7 26.3 71.5 26.7C71.1 27.5 71.4999 28 70.7999 28.6C70.2999 29.1 69.6 29.5 69.2 30.1C68.4 31.8 69.2 32.5 70.6 33.3C70.6 33.3 70.6333 33.3 70.7 33.3C70.4333 33.5 70.1 33.6 69.7 33.6C68.5 33.6 67.6 33.1 66.7 32.1L53.6 25.9C53.5 25 50.4999 24.3 49.2999 22.6C49.4999 22.9 50.5 22.2 51.5 21.4Z" fill="#050505"/>
</g>
<path d="M69.1 25.7C69.1 25.7 68.0001 33.4 67.9001 33.8C67.8334 34.2667 67.6667 34.8 67.4001 35.4C67.1001 35.9 65 38.7 64.7 39.1C64.4 39.5 64 39.9 63.3 39.9C62.6 39.9 58.3001 39.8 56.4001 39.7C54.6 39.7 52.7 38.3 52.8 33.4C52.8 32 52.5 25.7 52.5 25C52.4 24.2 51.1 23.5 51.1 22.4C51.1 21.4 51.9001 18.6 51.9001 18.6C51.9001 18.6 50.4 17 50.5 16.6C50.5 16.3 51.2 14.5 51.3 13.8C51.3 13.1 52.5 4.10004 58.3 4.30004C65.5 4.50004 72 3.40004 71.6 19.4C72.2 19.1 72.9 19.1 73.3 19.5C73.7 19.9 74.1 20 74 22.4C73.9 24.8 70.5 28.5 69.1 25.7Z" fill="#E8B29A" stroke="#050505" stroke-width="0.7" stroke-linecap="round" stroke-linejoin="round"/>
<path opacity="0.2" d="M64.2 36.3C65.2 34.3 65.0999 28.5 64.7999 27.4C64.4999 26.3 63.9 25.2 64.5 24.9C68.1 23.4 68.6 21.5 68.1 20.7C68 15.5 65.5999 8.90002 62.7999 4.40002C67.9999 4.80002 71.9 6.80002 71.6 19.4C72.2 19.1 72.8999 19.1 73.2999 19.5C73.6999 19.9 74.1 20 74 22.4C73.9 24.8 70.5 28.5 69.1 25.7C69.1 25.7 68 33.4 67.9 33.8C67.8334 34.2667 67.6667 34.8 67.4 35.4C67.1 35.9 65 38.7 64.7 39.1C64.4 39.5 63.9999 39.9 63.2999 39.9C63.0999 39.9 62.6 39.9 61.9 39.8C62.3 38.9 63.5 37.9 64.2 36.3Z" fill="#050505"/>
<path d="M74.5 17.6C74.9 18.6 74.9 19.2 74.6 20C74.3 20.7 72.4999 21.3 72.7999 22.2C72.4999 22 71.9 20.8 72.1 20.1C71.8 20.4 71.3 21.5 71.9 22.2C71.5 22 71 21.6 71 21.2C70.8 21.8 70.7999 23 71.2999 23.4C70.0999 23.2 69.2999 21.7 69.2999 20.7C69.2999 19.7 70 19.5 70.1 18C70.1 17.6 69.6 17.5 69.6 17.5C69.5 17.8 69.1 18.6 69.2 19.1C68.6 18.4 68.5 17.4 68.5 16.9C68.5 16.3 69.8 13.9 69 13.1C68.6 13.3 67.4999 13.3 67.7999 15.1C67.3999 14.8 67 13.7 67 13.2C67 12.7 68.3999 11.4 67.7999 10.4C67.2999 9.4 66.7 8.79999 66.7 8.79999C66.3 9.89999 64.6 10.3 64.7 11C64.2 10.1 64.7 9.2 64.7 8.4C64.7 7.6 63.7999 7.19998 63.2999 7.19998C62.6999 7.19998 62.4 7.79997 62.4 8.49997C62.4 9.09997 64.5 10.8 62.7 13.4C62.8 11.1 60.8 10.1 59.9 9.9C60.7 10.6 60.6999 12.6 59.2999 13.4C59.4999 12.8 59.5 11.4 58.4 11.1C57.3 10.7 56.2 10.1 56 9.49997C56.2 11.1 55.3 13.1 53 13.1C53.9 11.9 53.8999 11.4 53.2999 10.5C52.8999 9.89997 51.3 11.6 51.1 11.2C50.9 10.7 52.4 8.19999 52.6 7.79999C53.2 5.79999 54.4 3.39997 58.2 3.49997C62 3.59997 67.8 3.29997 69.6 4.99997C71.4 6.69997 74.7 10.5 74.5 17.6Z" fill="#786356"/>
<path d="M74.5 17.6C74.9 18.6 74.8999 19.2 74.5999 20C74.2999 20.7 72.4999 21.3 72.7999 22.2C72.4999 22 71.8999 20.8 72.0999 20.1C71.7999 20.4 71.3 21.5 71.9 22.2C71.5 22 71 21.6 71 21.2C70.8 21.8 70.7999 23 71.2999 23.4C70.0999 23.2 69.2999 21.7 69.2999 20.7C69.2999 19.7 69.9999 19.5 70.0999 18C70.0999 17.6 69.5999 17.5 69.5999 17.5C69.4999 17.8 69.0999 18.6 69.1999 19.1C68.5999 18.4 68.5 17.4 68.5 16.9C68.5 16.3 69.8 13.9 69 13.1C68.6 13.3 67.4999 13.3 67.7999 15.1C67.3999 14.8 67 13.7 67 13.2C67 12.7 68.3999 11.4 67.7999 10.4C67.2999 9.40002 66.6999 8.80002 66.6999 8.80002C66.2999 9.90002 64.5999 10.3 64.6999 11C64.1999 10.1 64.6999 9.20002 64.6999 8.40002C64.6999 7.60002 63.7999 7.20001 63.2999 7.20001C62.6999 7.20001 62.4 7.8 62.4 8.5C62.4 9.1 64.4999 10.8 62.6999 13.4C62.7999 11.1 60.8 10.1 59.9 9.90002C60.7 10.6 60.6999 12.6 59.2999 13.4C59.4999 12.8 59.5 11.4 58.4 11.1C57.3 10.7 56.2 10.1 56 9.5C56.2 11.1 55.3 13.1 53 13.1C53.9 11.9 53.8999 11.4 53.2999 10.5C52.6999 9.7 52.1999 8.50002 52.5999 7.80002" stroke="#050505" stroke-width="0.7" stroke-linecap="round" stroke-linejoin="round"/>
<path d="M52.7999 9.60001C52.6999 10.9 51.7 12.1 50 11.1" stroke="#050505" stroke-width="0.7" stroke-linecap="round" stroke-linejoin="round"/>
<path d="M73 17.7C73.2 18.5 72.7 19.5 72.1 20.1" stroke="#050505" stroke-width="0.7" stroke-linecap="round" stroke-linejoin="round"/>
<path d="M71.2 13.1C71.8 14.7 70.3 16.8 69.6 17.5" stroke="#050505" stroke-width="0.7" stroke-linecap="round" stroke-linejoin="round"/>
<path d="M66.7 7.59998C66.9 7.99998 66.7 8.89998 66.6 9.09998" stroke="#050505" stroke-width="0.7" stroke-linecap="round" stroke-linejoin="round"/>
<path d="M69.5 8.80005C70.9 10.4 71.5 12.4 69 13.1" stroke="#050505" stroke-width="0.7" stroke-linecap="round" stroke-linejoin="round"/>
<path d="M58.7 7.5C58.7 8.4 59.2 9.50002 59.9 9.90002" stroke="#050505" stroke-width="0.7" stroke-linecap="round" stroke-linejoin="round"/>
<path d="M55.8 8.20001C55.6 8.70001 55.8 9.30001 56.1 9.70001" stroke="#050505" stroke-width="0.7" stroke-linecap="round" stroke-linejoin="round"/>
<path d="M76.1 16.3C75.9 16.3 75.4 16 75.4 16" stroke="#050505" stroke-width="0.7" stroke-linecap="round" stroke-linejoin="round"/>
<path d="M77.9 18.6C77.7 18.6 77.2 18.3 77.1 18.2" stroke="#050505" stroke-width="0.7" stroke-linecap="round" stroke-linejoin="round"/>
<path d="M68 20.2C69.6 22.7 65.7 24.5 64.9 24.7C64.2 24.8 64.2999 25.9 64.6999 26.7" stroke="#050505" stroke-width="0.4" stroke-linecap="round" stroke-linejoin="round"/>
<path d="M61.7 35.6C60.2 34.5 55.1999 34.2 54.2999 35.6" stroke="#050505" stroke-width="0.4" stroke-linecap="round" stroke-linejoin="round"/>
<g style="mix-blend-mode:multiply" opacity="0.2">
<path d="M75.2999 27.5C76.3999 26.3 76.4 24.3 76.2 23.3C76.1 22.3 77.5 22.2 77.5 23.2C77.5 24.1 76.7999 27.2 75.2999 27.5Z" fill="#050505"/>
</g>
<g style="mix-blend-mode:multiply" opacity="0.2">
<path d="M78.4 24C78.5 22.8 78 21.1 76.9 20.6C75.9 20 77.2999 20 77.2999 20C77.2999 20 79.8 21.7 78.4 24Z" fill="#050505"/>
</g>
<g style="mix-blend-mode:multiply" opacity="0.2">
<path d="M63.6 2.90003C64.5 2.50003 65.9 2.50002 66.3 2.80002C66.7 3.10002 66.6 3.20001 66.3 3.10001C65.9 3.10001 63.7 3.50002 63.5 3.70002C63.2 4.00002 62.3001 3 61.4001 3C60.5001 3 60.8 2.70002 61.3 2.70002C61.7 2.70002 63.1 2.50003 63.6 2.90003Z" fill="#050505"/>
</g>
<g style="mix-blend-mode:multiply" opacity="0.2">
<path d="M72.7999 4.59999C72.2999 4.09999 71.6 4.6 72 5.2C72.5 5.7 73.2 6.39999 73.4 6.99999C73.5 7.59999 74.8 7.90001 75.4 6.90001C74.9 7.20001 73.9999 6.30001 73.7999 5.90001C73.6999 5.50001 73.1999 4.69999 72.7999 4.59999Z" fill="#050505"/>
</g>
<path d="M60.7 25.3C61.2 25.9 63.2 28.8 63.4 29.1L60.7 25.3Z" fill="#E8B29A"/>
<path d="M60.7 25.3C61.2 25.9 63.2 28.8 63.4 29.1" stroke="#050505" stroke-width="0.4" stroke-linecap="round" stroke-linejoin="round"/>
<path d="M54.2999 26.7C53.9999 27.2 53.7 28.5 53.7 28.5L54.2999 26.7Z" fill="#E8B29A"/>
<path d="M54.2999 26.7C53.9999 27.2 53.7 28.5 53.7 28.5" stroke="#050505" stroke-width="0.4" stroke-linecap="round" stroke-linejoin="round"/>
<path d="M62 29.6C62 30.9 57.6999 30.5 57.2999 31.2C56.9999 30.5 54.6 30.4 54.2 29.6" stroke="#050505" stroke-width="0.5" stroke-linecap="round" stroke-linejoin="round"/>
<path d="M58.6 32.5C58.1 32.7 56.8 32.8 56.1 32.3" stroke="#050505" stroke-width="0.4" stroke-linecap="round" stroke-linejoin="round"/>
<path d="M64.5 19.4C63.6 19.7 60.5 19.5 60 19.2C60.1 18.5 60.3 17.6 61.7 17.6C63.1 17.7 64.5 18.4 64.5 19.4Z" fill="#FEFEFE" stroke="#050505" stroke-width="0.5" stroke-linecap="round" stroke-linejoin="round"/>
<path d="M52.1 19.1C52.8 19.5 55.3999 19.4 55.7999 19.1C55.7999 18.4 55.6 17.5 54.5 17.4C53.3 17.4 52.1 18.1 52.1 19.1Z" fill="#FEFEFE" stroke="#050505" stroke-width="0.5" stroke-linecap="round" stroke-linejoin="round"/>
<path d="M62.1 18.6C62.1 18.3 61.8 17.9 61.4 17.9C61.1 17.9 60.7 18.2 60.7 18.6C60.7 19 61 19.3 61.4 19.3C61.8 19.3 62.1 19 62.1 18.6Z" fill="#54321D" stroke="#050505" stroke-width="0.4"/>
<path d="M60.7 18.5C60.7 18.5 60.9 17.9 61.4 17.9C62 18 62.1 18.7 62.1 18.7C62.1 18.7 61.8 18.4 61.4 18.4C61.1 18.4 60.7 18.5 60.7 18.5Z" fill="#462A18"/>
<path d="M61.7999 18.6C61.7999 18.4 61.6 18.3 61.4 18.3C61.2 18.3 61.1 18.4 61.1 18.6C61.1 18.8 61.2 19 61.4 19C61.6 19 61.7999 18.8 61.7999 18.6Z" fill="#050505"/>
<path d="M61.4 18.5C61.4 18.4 61.3 18.3 61.2 18.3C61 18.3 60.9 18.4 60.9 18.5C60.9 18.6 61 18.7 61.2 18.7C61.3 18.8 61.4 18.7 61.4 18.5Z" fill="#FEFEFE"/>
<path d="M62.1 18.6C62.1 18.3 61.8 17.9 61.4 17.9C61.1 17.9 60.7 18.2 60.7 18.6C60.7 19 61 19.3 61.4 19.3C61.8 19.3 62.1 19 62.1 18.6Z" stroke="#050505" stroke-width="0.4"/>
<path d="M54.2 18.5C54.2 18.1 53.9 17.8 53.5 17.8C53.1 17.7 52.7999 18.1 52.7999 18.4C52.7999 18.8 53.1 19.1 53.5 19.1C53.8 19.1 54.2 18.8 54.2 18.5Z" fill="#54321D" stroke="#050505" stroke-width="0.4"/>
<path d="M52.7999 18.3C52.7999 18.3 53 17.7 53.5 17.8C54 17.8 54.2 18.5 54.2 18.5C54.2 18.5 53.9 18.2 53.5 18.2C53.1 18.2 52.7999 18.3 52.7999 18.3Z" fill="#462A18"/>
<path d="M53.7999 18.5C53.7999 18.3 53.7 18.1 53.5 18.1C53.3 18.1 53.1 18.2 53.1 18.4C53.1 18.6 53.3 18.8 53.5 18.8C53.7 18.8 53.7999 18.6 53.7999 18.5Z" fill="#050505"/>
<path d="M53.4 18.4C53.4 18.2 53.3 18.1 53.2 18.1C53.1 18.1 53 18.2 53 18.4C53 18.5 53.1 18.6 53.2 18.6C53.3 18.6 53.4 18.5 53.4 18.4Z" fill="#FEFEFE"/>
<path d="M54.2 18.5C54.2 18.1 53.9 17.8 53.5 17.8C53.1 17.7 52.7999 18.1 52.7999 18.4C52.7999 18.8 53.1 19.1 53.5 19.1C53.8 19.1 54.2 18.8 54.2 18.5Z" stroke="#050505" stroke-width="0.4"/>
<path d="M56.9 17.4C56.9 18.5 56.2999 19.1 56.0999 19.6C55.7999 20.2 55.3999 21.9 55.2999 22.3C55.2999 22.7 54.3999 23.2 54.1999 23.9C53.9999 24.5 54.2 26.1 56 26.6C57.8 27.1 58.5 26.4 58.5 26.4" fill="#E8B29A"/>
<path d="M56.9 17.4C56.9 18.5 56.2999 19.1 56.0999 19.6C55.7999 20.2 55.3999 21.9 55.2999 22.3C55.2999 22.7 54.3999 23.2 54.1999 23.9C53.9999 24.5 54.2 26.1 56 26.6C57.8 27.1 58.5 26.4 58.5 26.4" stroke="#050505" stroke-width="0.6" stroke-linecap="round" stroke-linejoin="round"/>
<path d="M58.5 23.9C59.3 23.9 59.8 24.3 59.7 25.1C59.6 25.9 59.6 26.1 59.4 26.4C59.1 26.7 57.4 25.5 56.7 25.8" fill="#E8B29A"/>
<path d="M58.5 23.9C59.3 23.9 59.8 24.3 59.7 25.1C59.6 25.9 59.6 26.1 59.4 26.4C59.1 26.7 57.4 25.5 56.7 25.8" stroke="#050505" stroke-width="0.6" stroke-linecap="round" stroke-linejoin="round"/>
<path d="M66.2 16.8C66.2 16.4 65.8 15.9 65.1 15.7C64.4 15.5 60.7999 14.9 59.7999 15.4C59.4999 15.6 59.1 16 59.1 16.4C59.1 16.8 59.3 16.9 59.9 16.9C60.5 16.8 63.8 16.9 65 17.2C66.1 17.5 66.2 16.8 66.2 16.8Z" fill="#050505"/>
<path d="M55.9999 15.9C55.8999 15.5 55.4999 15.2 55.0999 15.2C54.5999 15.1 52.0999 14.7 50.9999 15.6C50.7999 15.9 50.5999 16.7 50.7999 17C51.4999 16.8 54.3999 16.4 55.2999 16.7C55.6999 16.8 56.3999 16.8 55.9999 15.9Z" fill="#050505"/>
<path d="M69.5 19.8L66.7999 19.4C66.6999 19.4 66.6 19.3 66.6 19.2V18.4C66.6 18.3334 66.6333 18.2667 66.7 18.2C66.7666 18.2 66.7999 18.2 66.7999 18.2C66.7999 18.2 66.8334 18.2 66.9 18.2L69.9 18.9C69.9 18.9 69.9333 18.9333 70 19C70 19.0667 70 19.1 70 19.1C69.9 19.4 69.7999 19.7 69.7999 19.7C69.7333 19.7667 69.6666 19.8 69.6 19.8C69.6 19.8 69.5667 19.8 69.5 19.8Z" fill="#FEFEFE"/>
<path fill-rule="evenodd" clip-rule="evenodd" d="M66.9 18L69.9 18.7C70.0334 18.7 70.1333 18.7667 70.2 18.9C70.2666 18.9667 70.2666 19.0667 70.2 19.2C70.1 19.4 70 19.8 69.9 19.8C69.9 20 69.7 20 69.6 20C69.5333 20 69.5 20 69.5 20L66.7999 19.6C66.5999 19.6 66.4 19.4 66.4 19.2V18.4C66.4 18.2667 66.4666 18.1333 66.6 18C66.6666 17.9333 66.7333 17.9 66.7999 17.9C66.8666 17.9 66.9 17.9333 66.9 18ZM66.7999 19.2L69.6 19.6C69.6 19.6 69.7999 19.3 69.7999 19.1L66.7999 18.4V19.2Z" fill="#050505"/>
<path opacity="0.6" d="M65.5 18.9C65.6 18 64.5 17 62.4 16.9C60.3 16.9 59.2 18.3 59.2 18.9C59.2 19.4 59.6999 21 62.2999 21C64.5999 21.1 65.5 19.5 65.5 18.9Z" fill="#EC1F40"/>
<path opacity="0.6" d="M56.0999 18.8C56.0999 18.1 54.9999 16.8 53.1999 16.7C51.9999 16.7 50.4999 17.3 50.4999 18.5C50.3999 19.6 52.0999 20.8 53.2999 20.8C54.3999 20.8 56.0999 20.3 56.0999 18.8Z" fill="#EC1F40"/>
<path fill-rule="evenodd" clip-rule="evenodd" d="M62.4 21.7C60.5 21.6 59.6 21 59.1 20.5C58.8 20.1 58.6 19.7 58.6 19.2C58.3 19.1 57.8 18.9 57.4 18.9C57.1334 18.9 56.9 18.9667 56.7 19.1C56.5 19.1 56.3 19.3 56.1 19.7C56.0333 19.9 55.9667 20.1334 55.9 20.4C55.9 20.4667 55.8666 20.5 55.7999 20.5C55.3999 20.9 54.8 21.5 53.5 21.5L53.2999 21.4C51.8999 21.4 51 20.8 50.5 20.3C50.1 19.8 49.8999 19.3 49.7999 19L49.2999 18.9C49.1999 18.9 49.1 18.8 49.1 18.7V18C49.1 17.9333 49.1333 17.8667 49.2 17.8C49.2666 17.8 49.2999 17.8 49.2999 17.8H50C50.3 17.2 51.2 16 53 16H53.1C55 16 56.4 17.1 56.7 18C56.9 17.9 57.3 17.9 57.6 17.9C57.9 17.9 58.3999 17.9 58.7999 18.1C59.3999 17.2 60.2999 16.2 62.2999 16.2H62.4C64.6 16.3 65.9 17.4 66.1 18.2L66.7 18.1C66.7666 18.1 66.8334 18.1333 66.9 18.2C66.9 18.2 66.9 18.2334 66.9 18.3L67 19.2C67 19.3 66.8999 19.4 66.7999 19.4H66.2C65.8 20.3 64.9 21.7 62.5 21.7H62.4ZM62.4 17.1C60.5 17.1 59.5 18.5 59.5 18.9C59.4 19.4 59.9 20.8 62.4 20.8H62.5C64.6 20.8 65.4 19.4 65.4 18.9C65.4 18.2 64.5 17.2 62.5 17.1H62.4ZM53.1 17C52.1 17 50.8 17.5 50.7 18.5C50.7 19.5 52.1999 20.6 53.2999 20.6H53.4C54.3 20.6 55.9 20.2 56 18.8C56 18.1 54.9 17 53.2 17H53.1Z" fill="#FEFEFE"/>
<path fill-rule="evenodd" clip-rule="evenodd" d="M53.1 15.8C54.1 15.8 54.9999 16.1 55.7999 16.6C56.2999 17 56.6999 17.4 56.7999 17.8C57.0666 17.7334 57.3333 17.7 57.6 17.7C57.9 17.7 58.3 17.7 58.7 17.9C59.4 17 60.2999 16 62.2999 16C62.2999 16 62.3334 16 62.4 16C64.6 16.1 65.8999 17.1 66.2999 18L66.7 17.9C66.8333 17.9 66.9333 17.9333 67 18C67.1333 18.1333 67.2 18.2334 67.2 18.3V19.2C67.2 19.4 66.9999 19.6 66.7999 19.6H66.2999C65.8999 20.5 64.9 21.9 62.5 21.9C62.4333 21.9 62.4 21.9 62.4 21.9C60.5 21.8 59.5 21.2 59 20.7C58.6 20.3 58.4 19.8 58.4 19.3C58.1 19.2 57.8 19.1 57.4 19.1C57.2 19.1 56.9999 19.1333 56.7999 19.2C56.7333 19.2667 56.7 19.3 56.7 19.3C56.7 19.3 56.4999 19.4 56.2999 19.8C56.2999 19.9 56.2 20.1 56.1 20.5C56.0333 20.5667 56 20.6 56 20.6C55.6 21.1 54.9 21.7 53.5 21.7C53.4333 21.7 53.3666 21.7 53.2999 21.7C51.7999 21.6 50.9 21 50.4 20.4C50 20 49.8 19.5 49.7 19.2H49.2999C49.0999 19.1 48.9 19 48.9 18.7V18C48.9 17.8667 48.9666 17.7667 49.1 17.7C49.1666 17.6333 49.2333 17.5667 49.2999 17.5C49.3666 17.5 49.4 17.5 49.4 17.5L49.9 17.6C50.2 16.9 51.2 15.8 53 15.8C53.0667 15.8 53.1 15.8 53.1 15.8ZM50.1 18H49.2999V18.7L50 18.8C50 19.2 50.6999 21.2 53.2999 21.2C53.3666 21.2 53.4333 21.2 53.5 21.2C54.7 21.2 55.2 20.8 55.7 20.4C55.8 20.1 55.9 19.8 55.9 19.7C56.1 19.3 56.3 18.9 56.7 18.9C56.9 18.7667 57.1334 18.7 57.4 18.7C57.9 18.7 58.4999 18.9 58.7999 19.1C58.6999 20.1 59.7 21.4 62.4 21.4C62.4667 21.4667 62.5 21.5 62.5 21.5C65.1 21.5 65.8 19.7 66 19.2H66.7999L66.7 18.3L66 18.4C65.9 17.8 64.8 16.5 62.4 16.4C62.3334 16.4 62.2999 16.4 62.2999 16.4C60.2999 16.4 59.4999 17.5 58.7999 18.4C58.4999 18.2 58 18.1 57.6 18.1C57.1 18.1 56.7 18.2 56.5 18.3C56.6 17.6 55.1 16.2 53.1 16.2C53.1 16.2 53.0667 16.2 53 16.2C51.1 16.2 50.3 17.5 50.1 18ZM62.2999 21C59.6999 21 59.2 19.4 59.2 18.9C59.2 18.4 60.2999 16.9 62.2999 16.9C62.3666 16.9 62.4 16.9 62.4 16.9C64.5 17 65.6 18 65.5 18.9C65.5 19.5 64.6 21 62.4 21C62.4 21 62.3666 21 62.2999 21ZM53.2999 20.8C52.0999 20.8 50.4 19.6 50.5 18.5C50.5 17.4 52 16.7 53.1 16.7C53.1 16.7 53.1333 16.7 53.2 16.7C55 16.8 56.1 18 56.1 18.8C56.1 20.3 54.5 20.8 53.4 20.8C53.3334 20.8 53.2999 20.8 53.2999 20.8ZM55.7 18.8C55.7 18.5 55.5 18.1 55.1 17.8C54.6 17.4 53.9 17.2 53.1 17.2C52.2 17.2 50.9 17.6 50.9 18.5C50.9 19.4 52.2999 20.4 53.2999 20.4H53.4C54.2 20.4 55.7 20 55.7 18.8ZM65.1 18.9C65.1 18.5 64.9 18.2 64.5 17.9C64.2 17.7 63.5 17.4 62.4 17.3H62.2999C60.4999 17.3 59.6 18.6 59.6 18.9C59.6 19.1 59.7 19.5 60.1 19.9C60.5 20.3 61.2999 20.6 62.2999 20.6C62.3666 20.6 62.4 20.6 62.4 20.6C64.4 20.6 65.1 19.2 65.1 18.9Z" fill="#050505"/>
<path fill-rule="evenodd" clip-rule="evenodd" d="M11.4 63.5C12.5 63.4 13.7 63.3 13.7 66.9C13.7 70.3 12.6 70.6 10.9 70.8L10.2999 70.9V63.7L11.4 63.5ZM11.2999 64.3V69.9C12.7999 69.7 12.7999 68.3 12.7999 67C12.7999 65.9 12.8999 64 11.2999 64.3Z" fill="#FEFEFE"/>
<path d="M14.9 62.7L14.4 62.5L15.2 60.9L15.7999 61.3L14.9 62.7ZM15.4 70.1L14.4 70.3L14.5 63L15.4 62.9V70.1Z" fill="#FEFEFE"/>
<path fill-rule="evenodd" clip-rule="evenodd" d="M18.1 62.5L19.5 69.5L18.6 69.7L18.2999 68.3L16.9 68.5L16.6 70L15.7 70.1L17.2999 62.6L18.1 62.5ZM18.1 66.6L17.7 64L17.1 67.8L18.2999 67.6L18.1 66.6Z" fill="#FEFEFE"/>
<path d="M22.4 64L22.6 66.4L22.5 69.1L21.6 69.2V62L22.5 61.9L24.2 67.1L24 64.2V61.6L24.9 61.5V68.7L24 68.9L22.4 63.5V63.6V64Z" fill="#FEFEFE"/>
<path fill-rule="evenodd" clip-rule="evenodd" d="M27.6 61.1L29 68.1L28.1 68.2L27.7999 66.9L26.4 67.1L26.2 68.5L25.2 68.7L26.7999 61.2L27.6 61.1ZM27.6 65.1L27.2999 62.6H27.2L26.6 66.3L27.7999 66.2L27.6 65.1Z" fill="#FEFEFE"/>
<path d="M32.2 61.4C32 61.3 31.8 61.3 31.6 61.3C30.3 61.5 30.2999 63.5 30.2999 64.4C30.2999 65.3 30.3 67.1 31.6 66.9C31.8 66.9 32 66.8333 32.2 66.7V67.5C31.9333 67.7 31.6667 67.8 31.4 67.8C29.5 68.1 29.2999 66.1 29.2999 64.6C29.2999 63.1 29.5 60.7 31.4 60.4C31.7 60.4 31.9 60.4 32.2 60.5V61.4Z" fill="#FEFEFE"/>
<path d="M33.6 67.4L32.7 67.6V60.3L33.6 60.2V67.4Z" fill="#FEFEFE"/>
<path fill-rule="evenodd" clip-rule="evenodd" d="M38 63.1C38 64.4 38 66.9 36.2 67.1C34.3 67.4 34.3001 65 34.4001 63.7C34.4001 62.4 34.4 60 36.2 59.7C38 59.4 38 61.8 38 63.1ZM35.3 63.5C35.3 65.1 35.4 66.3 36.2 66.2C36.9 66.1 37 64.8 37 63.3C37 61.8 36.9 60.5 36.2 60.6C35.5 60.7 35.4 62 35.3 63.5Z" fill="#FEFEFE"/>
<path d="M39.6 61.4L39.7 63.9V66.5L38.7 66.7L38.7999 59.4L39.7 59.3L41.2999 64.5L41.1 61.6V59.1L42.1 58.9L42 66.2L41.1 66.3L39.5 61L39.6 61.4Z" fill="#FEFEFE"/>
<path fill-rule="evenodd" clip-rule="evenodd" d="M44.7 58.5L46.2 65.5L45.2 65.7L45 64.3L43.6 64.5L43.2999 66L42.4 66.1L44 58.6L44.7 58.5ZM44.6 62.6L44.2999 60L43.7 63.8L44.7999 63.6L44.6 62.6Z" fill="#FEFEFE"/>
<path d="M47.5 58.1V64.5L49.1 64.3V65.1L46.6 65.5V58.2L47.5 58.1Z" fill="#FEFEFE"/>
<path fill-rule="evenodd" clip-rule="evenodd" d="M28 71.1C29.1 71 30.3999 70.9 30.2999 74.5C30.2999 77.9 29.2 78.2 27.5 78.4L26.9 78.5V71.3L28 71.1ZM27.9 71.9V77.5C29.4 77.3 29.4 75.9 29.4 74.6C29.4 73.5 29.5 71.6 27.9 71.9Z" fill="#FEFEFE"/>
<path d="M33.6 70.3V71.1L32 71.4V73.6L33.4 73.4V74.3L32 74.5V76.9L33.6 76.7L33.5 77.5L31 77.9L31.1 70.7L33.6 70.3Z" fill="#FEFEFE"/>
<path d="M35 70.1V76.5L36.6 76.2V77.1L34 77.5L34.1 70.2L35 70.1Z" fill="#FEFEFE"/>
<path d="M60.4 84.9L7.19995 92.1L7 86.4L59.9 79.4L60.4 84.9Z" fill="#ED2930"/>
<path d="M14 91.9L13.2999 92L11.6 89.6L11.7 93.3L9.09998 93.6L9 84.8L11.5 84.4L13.6 87.5L15.7999 83.8L18.2 83.4V92.3L15.6 92.7V89L14 91.9Z" fill="#FEFEFE"/>
<path d="M23.2 91.8C23.1 91.8 23 91.8 22.5 91.8C22 91.8 21.5 91.7 21 91.4C20.4 91.1 20 90.7 19.7 90C19.5666 89.6 19.5 89.1333 19.5 88.6V83.2L22.1 82.9V88.3C22.1 88.3 22.1 88.4 22.2 88.7C22.2 88.7667 22.2667 88.8667 22.4 89C22.5 89.2 22.8 89.3 23.2 89.3C23.4666 89.2334 23.7 89.1 23.9 88.9C24.1 88.7 24.2 88.5 24.2 88.3L24.2999 88L24.2 82.6L26.7999 82.2L26.9 87.6C26.9 88.6 26.6 89.4 26.1 90C25.9 90.2667 25.6667 90.5334 25.4 90.8C24.6 91.4 23.8 91.6 23.4 91.7L23.2 91.8ZM21.7999 82.2L22.9 79.6L25.9 79.2L24.4 81.8L21.7999 82.2Z" fill="#FEFEFE"/>
<path d="M29.5 87.4C30.1667 88 30.8666 88.2333 31.6 88.1C32.1333 88.0333 32.4 87.8667 32.4 87.6C32.4 87.4667 32.2334 87.3333 31.9 87.2C31.6334 87.1333 31.3 87.0667 30.9 87C30.5 86.8667 30.0666 86.7333 29.6 86.6C29.2 86.4667 28.8666 86.2334 28.6 85.9C28.3333 85.5 28.2 85.0667 28.2 84.6C28.2 84 28.2999 83.4 28.7999 82.8C29.1999 82.1 30.2 81.5 31.4 81.4C32.3 81.2 33.2 81.4 33.7 81.7C34.2 82 34.6999 82.3 34.7999 82.6L35 82.7L33.2 84.4C32.8666 84.0667 32.6 83.8667 32.4 83.8C32.1334 83.7334 31.8333 83.7334 31.5 83.8C31.1 83.8 30.7999 84.1 30.7999 84.2C30.7999 84.5 31.3 84.7 31.9 84.8C32.2334 84.8 32.5667 84.8667 32.9 85C33.2334 85.1333 33.5667 85.2667 33.9 85.4C34.2334 85.5334 34.5 85.7667 34.7 86.1C34.9 86.4333 35 86.8334 35 87.3C35 87.8 34.7999 88.5 34.2999 89.1C33.7999 89.8 32.8 90.4 31.5 90.5C30.5 90.7 29.7 90.6 29.1 90.2C28.4333 89.8667 27.9999 89.4667 27.7999 89L29.5 87.4Z" fill="#FEFEFE"/>
<path d="M36.1 89.7V80.8L38.6 80.5L38.7 89.3L36.1 89.7Z" fill="#FEFEFE"/>
<path d="M49 84.1C48.8 85.2333 48.3 86.2333 47.5 87.1C46.6333 87.9667 45.6333 88.5 44.5 88.7C43.2333 88.8333 42.1333 88.5333 41.2 87.8C40.3333 87.0667 39.9 86.0333 39.9 84.7C39.9 83.4333 40.3333 82.3 41.2 81.3C42.0666 80.3 43.1334 79.7 44.4 79.5C45.5334 79.3 46.5334 79.5 47.4 80.1C48.2667 80.7667 48.8 81.6333 49 82.7L46.2 83.1C46.0666 82.7 45.8333 82.4 45.5 82.2C45.1667 82 44.8333 81.9333 44.5 82C43.9667 82.0667 43.5 82.3333 43.1 82.8C42.7666 83.2667 42.6 83.7667 42.6 84.3C42.6 84.9 42.8 85.3667 43.2 85.7C43.5333 86.1 43.9667 86.2667 44.5 86.2C44.9 86.1333 45.2333 85.9333 45.5 85.6C45.8333 85.3333 46.0666 84.9667 46.2 84.5L49 84.1Z" fill="#FEFEFE"/>
<path fill-rule="evenodd" clip-rule="evenodd" d="M54.4 78C55.6667 77.8667 56.7333 78.1667 57.6 78.9C58.5333 79.6334 59 80.6667 59 82C59 83.2667 58.5666 84.4 57.7 85.4C56.8333 86.4 55.7334 87 54.4 87.2C53.1334 87.4 52.0666 87.1334 51.2 86.4C50.2666 85.6 49.7999 84.5667 49.7999 83.3C49.7999 82.0334 50.2333 80.8667 51.1 79.8C51.9666 78.8 53.0667 78.2 54.4 78ZM54.4 84.7C54.9334 84.6334 55.3666 84.3667 55.7 83.9C56.1 83.4334 56.2999 82.9334 56.2999 82.4C56.2999 81.8 56.1 81.3 55.7 80.9C55.3666 80.5667 54.9334 80.4333 54.4 80.5C53.8667 80.5667 53.4333 80.8334 53.1 81.3C52.7 81.7667 52.5 82.3 52.5 82.9C52.5 83.5 52.7 83.9667 53.1 84.3C53.4333 84.6334 53.8667 84.7667 54.4 84.7Z" fill="#FEFEFE"/>
<defs>
<linearGradient id="paint0_linear_149_64404" x1="29.6999" y1="105.3" x2="31.5999" y2="91" gradientUnits="userSpaceOnUse">
<stop stop-color="#1B55A6"/>
<stop offset="0.3" stop-color="#4372B8"/>
<stop offset="0.8" stop-color="#4372B8"/>
<stop offset="1" stop-color="#6392CC"/>
</linearGradient>
<linearGradient id="paint1_linear_149_64404" x1="92.5" y1="89" x2="89.5" y2="76.9" gradientUnits="userSpaceOnUse">
<stop stop-color="#3156A6"/>
<stop offset="0.3" stop-color="#4D70B6"/>
<stop offset="0.8" stop-color="#4D70B6"/>
<stop offset="1" stop-color="#7592CB"/>
</linearGradient>
<linearGradient id="paint2_linear_149_64404" x1="93" y1="87.9" x2="90.2" y2="76.6" gradientUnits="userSpaceOnUse">
<stop stop-color="#3156A6"/>
<stop offset="0.3" stop-color="#4D70B6"/>
<stop offset="0.8" stop-color="#4D70B6"/>
<stop offset="1" stop-color="#7592CB"/>
</linearGradient>
<linearGradient id="paint3_linear_149_64404" x1="52.6982" y1="47.1" x2="48.7982" y2="35.3" gradientUnits="userSpaceOnUse">
<stop stop-color="#3156A6"/>
<stop offset="0.3" stop-color="#4D70B6"/>
<stop offset="0.8" stop-color="#4D70B6"/>
<stop offset="1" stop-color="#7592CB"/>
</linearGradient>
</defs>
</svg>
