<?xml version="1.0" encoding="utf-8"?>
<!-- Generator: Adobe Illustrator 23.0.3, SVG Export Plug-In . SVG Version: 6.00 Build 0)  -->
<svg version="1.1" id="Capa_1" xmlns="http://www.w3.org/2000/svg" xmlns:xlink="http://www.w3.org/1999/xlink" x="0px" y="0px"
	 viewBox="0 0 10.4 80.8" style="enable-background:new 0 0 10.4 80.8;" xml:space="preserve">
<style type="text/css">
	.st0{fill:#74CBF1;}
	.st1{fill:#4287AB;}
	.st2{fill:#14B2DB;}
	.st3{fill:#FFFFFF;filter:url(#Adobe_OpacityMaskFilter);}
	.st4{mask:url(#mask0_149_64404_2_);}
	.st5{fill:none;stroke:#4287AB;stroke-width:0.4;}
</style>
<g>
	<path class="st0" d="M-31.1,0.7L41,0.6l1.1,73.7L-30.4,74L-31.1,0.7z"/>
	<path class="st1" d="M42.1,74.3L-30.4,74l-9.3,6.7l69.8,0L42.1,74.3z"/>
	<path class="st2" d="M-31.1,0.7l-9.4,10.2l0.8,69.8l9.3-6.7L-31.1,0.7z"/>
	<defs>
		<filter id="Adobe_OpacityMaskFilter" filterUnits="userSpaceOnUse" x="-73.7" y="-76.3" width="73.4" height="220.6">
			<feColorMatrix  type="matrix" values="1 0 0 0 0  0 1 0 0 0  0 0 1 0 0  0 0 0 1 0"/>
		</filter>
	</defs>
	<mask maskUnits="userSpaceOnUse" x="-73.7" y="-76.3" width="73.4" height="220.6" id="mask0_149_64404_2_">
		<path class="st3" d="M-31.1,0.7l-9.4,10.3l0.8,69.9l9.4-6.7L-31.1,0.7z"/>
	</mask>
	<g class="st4">
		<path class="st5" d="M-36.9-57.7l-28,123.2"/>
		<path class="st5" d="M-34.8-53.1L-62.8,70.1"/>
		<path class="st5" d="M-32.6-48.4L-60.6,74.7"/>
		<path class="st5" d="M-30.5-43.8l-28,123.3"/>
		<path class="st5" d="M-28.3-39.2L-56.3,84"/>
		<path class="st5" d="M-26.2-34.5L-54.2,88.7"/>
		<path class="st5" d="M-24-29.9L-52,93.3"/>
		<path class="st5" d="M-21.9-25.3l-28,123.2"/>
		<path class="st5" d="M-19.7-20.7l-28.1,123.3"/>
		<path class="st5" d="M-17.6-16.1l-28.1,123.3"/>
		<path class="st5" d="M-15.4-11.3l-28.1,123.2"/>
		<path class="st5" d="M-13.3-6.7l-28,123.2"/>
		<path class="st5" d="M-11.2-2.1L-39.2,121"/>
		<path class="st5" d="M-9,2.5L-37,125.8"/>
		<path class="st5" d="M-6.9,7.1l-28,123.3"/>
		<path class="st5" d="M-0.4,21l-45.1-97.3"/>
		<path class="st5" d="M-1.8,26.9l-45-97.3"/>
		<path class="st5" d="M-3.1,32.8l-45-97.4"/>
		<path class="st5" d="M-4.5,38.7l-45-97.3"/>
		<path class="st5" d="M-5.8,44.5l-45-97.3"/>
		<path class="st5" d="M-7.1,50.3l-45.1-97.3"/>
		<path class="st5" d="M-8.5,56.3l-45-97.4"/>
		<path class="st5" d="M-9.7,62.1l-45.1-97.3"/>
		<path class="st5" d="M-11.1,68l-45-97.3"/>
		<path class="st5" d="M-12.4,73.8l-45-97.3"/>
		<path class="st5" d="M-13.7,79.8l-45.1-97.4"/>
		<path class="st5" d="M-15.1,85.6l-45-97.3"/>
		<path class="st5" d="M-16.4,91.4L-61.5-5.8"/>
		<path class="st5" d="M-17.8,97.3L-62.8,0"/>
		<path class="st5" d="M-19.1,103.2L-64.1,6"/>
		<path class="st5" d="M-20.5,109.1l-45-97.3"/>
		<path class="st5" d="M-21.8,114.9l-45-97.3"/>
		<path class="st5" d="M-23.1,120.7l-45.1-97.3"/>
		<path class="st5" d="M-24.5,126.7l-45-97.3"/>
		<path class="st5" d="M-25.8,132.5l-45-97.3"/>
		<path class="st5" d="M-27.2,138.4l-45-97.3"/>
		<path class="st5" d="M-28.4,144.2l-45-97.3"/>
	</g>
</g>
</svg>
