<svg xmlns="http://www.w3.org/2000/svg" width="78" height="72" fill="none" viewBox="0 0 78 72">
  <path fill="#AB3878" d="M77.122 38.324c-.8 18.8-17.8 33.4-38.2 32.7-20.3-.7-36.2-16.5-35.5-35.3.8-18.8 17.8-33.5 38.2-32.8 20.3.8 36.2 16.6 35.5 35.4Z"/>
  <mask id="a" width="75" height="70" x="3" y="2" maskUnits="userSpaceOnUse" style="mask-type:luminance">
    <path fill="#fff" d="M77.072 38.304c-.73 18.8-17.8 33.45-38.13 32.73-20.33-.73-36.22-16.55-35.5-35.35.73-18.79 17.8-33.44 38.13-32.72 20.33.72 36.23 16.54 35.5 35.34Z"/>
  </mask>
  <g mask="url(#a)">
    <path fill="#ED4592" stroke="#AB3878" stroke-width=".5" d="M70.422 60.724c.267-.267.5-.533.7-.8l-50.1-48c-.333.2-.633.4-.9.6l50.3 48.2Zm6.7-11.4c.133-.334.267-.7.4-1.1l-43.6-41.8c-.4.066-.833.166-1.3.3l44.5 42.6Zm-4 8.1.6-1-48.9-46.8-1 .6 49.3 47.2Zm2.2-3.8c.2-.333.367-.7.5-1.1l-46.7-44.7c-.333.134-.7.267-1.1.4l47.3 45.4Zm3-9c.134-.467.2-.934.2-1.4l-39.2-37.6c-.466.067-.966.133-1.5.2l40.5 38.8Zm-10.6 18.8.4-.4-50.6-48.5-.4.4-.4.4 50.6 48.4c.134-.067.267-.167.4-.3Zm11.1-24.3v-1.6l-33.3-31.9c-.533 0-1.1-.033-1.7-.1l35 33.6Zm-27.8-32.6 27 25.9c-.133-.733-.3-1.433-.5-2.1l-24.3-23.3a26.11 26.11 0 0 0-2.2-.5Zm-11.7 66.1c.6.066 1.167.133 1.7.2l-35-33.6c0 .533.033 1.066.1 1.6l33.2 31.8Zm6.2.1a86.672 86.672 0 0 0 1.5-.2l-40.5-38.8c-.066.466-.133.9-.2 1.3l39.2 37.7Zm28.6-50.1c-1.467-2.4-3.3-4.667-5.5-6.8-2.2-2.1-4.6-3.9-7.2-5.3l12.7 12.1Zm-42.4 48.7c.667.2 1.367.366 2.1.5l-27-25.9c.134.666.3 1.333.5 2l24.4 23.4Zm28.3-2.7c.334-.134.667-.3 1-.5l-49.2-47.2c-.2.333-.4.633-.6.9l48.8 46.8Zm3.8-2.2a9.12 9.12 0 0 0 1-.7l-50.3-48.2a10.91 10.91 0 0 0-.8.9l50.1 48Zm-12.9 5.5c.467-.134.9-.234 1.3-.3l-44.5-42.7-.4 1.2 43.6 41.8Zm4.8-1.4 1.2-.4-47.4-45.4c-.2.333-.366.666-.5 1l46.7 44.8Zm-26.6 3.5 2.2.6-27-25.9c.134.666.3 1.333.5 2l24.3 23.3Z"/>
  </g>
  <path fill="#ED4592" d="M73.622 35.424c-.7 18.8-17.8 33.4-38.1 32.7-20.3-.7-36.2-16.5-35.5-35.3.7-18.8 17.8-33.5 38.1-32.8 20.3.8 36.2 16.6 35.5 35.4Z"/>
  <path fill="#050505" d="m44.422 10.224 2.6-.1.5 10.6-3 .1-.3-7.6c-.733.2-1.333.367-1.8.5l-.2-2.8 2.2-.7Z"/>
  <path fill="#050505" fill-rule="evenodd" d="M52.922 9.624c1.533-.067 2.667.4 3.4 1.4.734 1 1.133 2.3 1.2 3.9.067 1.667-.233 3.033-.9 4.1-.6 1-1.667 1.533-3.2 1.6-1.467.067-2.567-.367-3.3-1.3-.733-1-1.133-2.334-1.2-4-.067-1.6.2-2.934.8-4 .667-1.067 1.733-1.633 3.2-1.7Zm.2 2.8c-.333 0-.567.067-.7.2-.2.2-.333.433-.4.7-.066.333-.1.633-.1.9v1c0 .4.034.733.1 1 0 .266.067.533.2.8.067.333.2.566.4.7.2.133.434.2.7.2.334 0 .567-.1.7-.3.2-.133.333-.367.4-.7.067-.267.1-.533.1-.8v-1a8.265 8.265 0 0 1-.1-1.1 6.902 6.902 0 0 1-.2-.8c-.133-.267-.266-.467-.4-.6-.2-.133-.433-.2-.7-.2Z" clip-rule="evenodd"/>
  <path fill="#FEFEFE" d="m45.322 9.024 2.5-.2.5 10.7-2.9.1-.4-7.6c-.666.2-1.267.367-1.8.5l-.1-2.8 2.2-.7Z"/>
  <path fill="#FEFEFE" fill-rule="evenodd" d="M53.822 8.424c1.467-.067 2.567.367 3.3 1.3.733 1 1.134 2.333 1.2 4 .134 1.667-.133 3-.8 4-.666 1.067-1.733 1.634-3.2 1.7-1.533.067-2.666-.4-3.4-1.4-.733-.933-1.133-2.233-1.2-3.9-.066-1.667.233-3 .9-4 .6-1.067 1.667-1.633 3.2-1.7Zm.1 2.7c-.266.067-.5.167-.7.3-.133.133-.233.367-.3.7l-.2.8c0 .267.034.6.1 1v1.1l.2.8c.134.267.267.467.4.6.2.2.467.267.8.2.267 0 .5-.066.7-.2.134-.133.234-.367.3-.7.067-.333.1-.6.1-.8v-1.1c0-.4-.033-.733-.1-1 0-.267-.066-.533-.2-.8-.066-.333-.2-.567-.4-.7s-.433-.2-.7-.2Z" clip-rule="evenodd"/>
  <path fill="#28C5EF" d="m71.122 37.024-66.2 6.9-.6-4.7 66.5-6.9.3 4.7Z"/>
  <path fill="#FEFEFE" fill-rule="evenodd" d="M25.522 26.624c.9-.1 2-.1 1.9 3-.2 2.8-1.1 3.1-2.6 3.2l-.5.1.3-6.2.9-.1Zm-.1.7-.3 4.8c1.4-.1 1.4-1.4 1.4-2.4.1-1 .2-2.6-1.1-2.4Z" clip-rule="evenodd"/>
  <path fill="#FEFEFE" d="m28.622 32.424-.8.1.3-6.2.8-.1-.3 6.2Zm-.1-6.3-.4-.2.7-1.3.5.3-.8 1.2Z"/>
  <path fill="#FEFEFE" fill-rule="evenodd" d="m31.222 26.023 1 6-.8.1-.2-1.2-1.2.2-.2 1.2-.8.1 1.6-6.3.6-.1Zm-.2 3.4-.2-2.2-.6 3.2.9-.1-.1-.9Zm4.2-3.799c1-.1 2-.2 1.9 2.9-.2 2.9-1.1 3.1-2.5 3.3h-.6l.3-6.1.9-.1Zm-.1.7-.3 4.8c1.4-.1 1.4-1.4 1.4-2.5.1-.9.2-2.6-1.1-2.3Z" clip-rule="evenodd"/>
  <path fill="#FEFEFE" d="M40.022 25.124v.7l-1.4.1-.1 2 1.2-.2v.7l-1.2.2-.1 2.1 1.4-.2-.1.7-2.1.3.3-6.2 2.1-.2Zm2.7-.3-.3 5.4 1.4-.1-.1.7-2.1.2.3-6.1.8-.1Z"/>
  <path fill="#FEFEFE" fill-rule="evenodd" d="m45.922 24.424 1 6.1h-.9l-.1-1.1-1.2.1-.3 1.2-.8.1 1.6-6.3.7-.1Zm-.2 3.4-.2-2.2-.6 3.2 1-.1-.2-.9Z" clip-rule="evenodd"/>
  <path fill="#FEFEFE" d="m8.322 39.224-2.1.3.1-2.2 6.4-.7-.1 2.2-2.1.2-.1 5.4-2.3.3.2-5.5Z"/>
  <path fill="#FEFEFE" fill-rule="evenodd" d="m20.022 43.424-2.7.3-1.5-1.7h-.2l-.1 1.9-2.2.2.2-7.6 3.1-.3h.6c.4.1.7.1 1.2.4.4.2.7.5.9 1.1.134.333.2.666.2 1-.066 1.066-.5 1.9-1.3 2.5l1.8 2.2Zm-4.3-5-.1 1.5.9-.1c.4-.067.6-.334.6-.8 0-.5-.2-.7-.6-.6h-.8Zm9.8-3.1 2.5 7.2-2.4.3-.2-.8-2.4.3-.3.8-2.4.3 3-7.9 2.2-.2Zm-1.8 4.8 1-.1-.5-1.5-.5 1.6Zm5 2.3.3-7.5 2.9-.3c1.134-.133 2.033.1 2.7.7.667.667.967 1.534.9 2.6 0 1.134-.366 2.1-1.1 2.9-.733.8-1.633 1.234-2.7 1.3l-3 .3Zm2.4-5.6-.1 3.3.7-.1c.467-.066.834-.266 1.1-.6.267-.333.4-.733.4-1.2 0-.467-.1-.866-.3-1.2-.266-.267-.6-.367-1-.3l-.8.1Z" clip-rule="evenodd"/>
  <path fill="#FEFEFE" d="m36.322 41.624.3-7.5 2.2-.3-.2 7.6-2.3.2Zm11.3-4.4a5.69 5.69 0 0 1-1.5 2.6 4.698 4.698 0 0 1-2.6 1.2c-1.066.133-1.966-.134-2.7-.8-.733-.734-1.1-1.634-1.1-2.7a4.33 4.33 0 0 1 1.3-2.9c.734-.867 1.667-1.334 2.8-1.4.934-.134 1.767.066 2.5.6.734.533 1.167 1.266 1.3 2.2l-2.4.3a1.821 1.821 0 0 0-.6-.8 1.082 1.082 0 0 0-.9-.2c-.4.066-.767.266-1.1.6-.333.4-.5.833-.5 1.3-.067.533.067.966.4 1.3.267.266.633.4 1.1.4.333-.067.633-.234.9-.5.334-.2.567-.5.7-.9l2.4-.3Zm.7 3.1.2-7.5 2.2-.3-.2 7.6-2.2.2Z"/>
  <path fill="#FEFEFE" fill-rule="evenodd" d="M55.722 31.924c1.133-.133 2.067.133 2.8.8.734.667 1.067 1.567 1 2.7 0 1.067-.4 2.033-1.2 2.9-.8.8-1.733 1.267-2.8 1.4-1.133.133-2.066-.133-2.8-.8-.733-.667-1.066-1.567-1-2.7 0-1.067.4-2.033 1.2-2.9.8-.867 1.734-1.333 2.8-1.4Zm-.2 5.7c.467-.067.867-.3 1.2-.7.334-.333.5-.767.5-1.3 0-.467-.133-.867-.4-1.2-.333-.333-.7-.467-1.1-.4a2.069 2.069 0 0 0-1.2.6c-.333.4-.5.867-.5 1.4 0 .467.134.867.4 1.2.334.333.7.467 1.1.4Zm1.3-6.4-2.2.3 1.1-2.2 2.5-.2-1.4 2.1Z" clip-rule="evenodd"/>
  <path fill="#FEFEFE" d="m67.322 30.724-.2 7.6-2 .2-2.3-3-.1 3.3-2.2.2.2-7.5 2-.3 2.3 3.1.1-3.3 2.2-.3Z"/>
  <path fill="#050505" d="M49.322 60.324c0 1.9-4.8 3.3-10.5 3.2-5.8-.2-10.4-1.9-10.4-3.8.1-1.9 4.8-3.3 10.6-3.2 5.7.2 10.4 1.9 10.3 3.8Z" opacity=".3"/>
  <path fill="#DDEDF9" stroke="#2CABE2" stroke-linecap="round" stroke-linejoin="round" stroke-width=".4" d="m33.922 49.624 10.3-.5c3 2.8 3.3 7.4.6 10.4-2.7 3-7.4 3.2-10.4.5-2.9-2.7-3.2-7.4-.5-10.4Z"/>
  <path fill="#C2DFF4" d="M33.222 50.624c.2-.333.434-.667.7-1l10.3-.5.4.4v.1c0 .9-2.5 1.7-5.8 1.9-2.6.1-4.9-.3-5.6-.9Z"/>
  <path fill="#C2DFF4" d="M33.922 49.624h.8c-1.9 2.9-1.5 6.8 1.1 9.1 2.8 2.6 7.1 2.4 9.8-.3-.267.4-.533.767-.8 1.1-2.7 3-7.4 3.2-10.4.5-2.9-2.7-3.2-7.4-.5-10.4Z" style="mix-blend-mode:multiply"/>
  <path fill="#7EC1EA" stroke="#2CABE2" stroke-linecap="round" stroke-linejoin="round" stroke-width=".4" d="m34.422 48.124 9.2-.5c.6.3 1 1.5 1 1.8 0 .8-2.4 1.6-5.4 1.8-3 .1-5.5-.4-5.6-1.2 0-.4.2-1.6.8-1.9Z"/>
  <path fill="#93CAED" d="M42.322 47.924c-.066-.067-.1-.133-.1-.2l1.4-.1c.6.3 1 1.5 1 1.8 0 .4-.6.8-1.7 1.2a17.66 17.66 0 0 0-.6-2.7Z"/>
  <path fill="#82C2EA" d="m34.422 48.124 2.4-.2v.2l-.2 2.4v.6c-1.8-.2-2.9-.6-3-1.1 0-.4.2-1.6.8-1.9Z" style="mix-blend-mode:multiply"/>
  <path fill="#C4E0F5" stroke="#2CABE2" stroke-linecap="round" stroke-linejoin="round" stroke-width=".4" d="M34.222 48.424c.1.7 2.2 1.2 4.9 1.1 2.6-.2 4.8-.9 4.7-1.6 0-.7-2.2-1.2-4.8-1-2.7.1-4.8.8-4.8 1.5Z"/>
  <path fill="#7EC1EA" stroke="#2CABE2" stroke-linecap="round" stroke-linejoin="round" stroke-width=".4" d="M35.822 48.124c0 .4 1.5.7 3.3.6 1.7-.1 3.1-.5 3.1-.9s-1.4-.6-3.2-.6c-1.8.1-3.2.5-3.2.9Z"/>
  <path fill="#82C2EA" d="M37.422 47.424v1.3c-.9-.1-1.6-.3-1.6-.6s.7-.5 1.6-.7Zm3.3-.1c.9 0 1.5.2 1.5.5 0 .2-.5.5-1.4.7 0-.4-.033-.8-.1-1.2Z" style="mix-blend-mode:multiply"/>
  <mask id="b" width="11" height="8" x="29" y="41" maskUnits="userSpaceOnUse" style="mask-type:luminance">
    <path fill="#fff" d="M35.832 48.134c.02.4 1.47.65 3.24.56l-4.29-6.16-5.16-1.39-.24 1.01 6.45 5.98Z"/>
  </mask>
  <g mask="url(#b)">
    <path fill="#C4E0F5" stroke="#2CABE2" stroke-linecap="round" stroke-linejoin="round" stroke-width=".4" d="m39.322 51.124.6-.5c.1-.1.1-.3.1-.4l-5.9-6.9c-.2-.267-.433-.433-.7-.5l-3.2-1.1c-.1-.1-.3 0-.3.1-.1.1 0 .2.1.3l2.8 1.8c.133.067.267.167.4.3l5.8 6.9c0 .1.2.1.3 0Z"/>
    <path fill="#CDE5F6" d="M32.822 43.424c.133.067.267.167.4.3l6.1 6.6c.1.1.3.1.4 0l.2-.2.1.1c0 .1 0 .3-.1.4l-.6.5c-.1.1-.3.1-.3 0l-5.8-6.9a1.569 1.569 0 0 0-.4-.3l-2.8-1.8c-.1-.1-.2-.2-.1-.3l2.9 1.6Z" style="mix-blend-mode:multiply"/>
    <path fill="#DDEDF9" stroke="#2CABE2" stroke-linecap="round" stroke-linejoin="round" stroke-width=".4" d="M34.822 43.324c.1.2.1.5-.1.6l-1 .9c-.2.2-.5.1-.6 0-.2-.2-.2-.5 0-.6l1.1-.9c.2-.2.4-.2.6 0Z"/>
  </g>
  <path stroke="#2CABE2" stroke-linecap="round" stroke-linejoin="round" stroke-width=".4" d="M35.822 48.124c0 .4 1.5.7 3.3.6"/>
  <path fill="#050505" d="M39.122 19.524c-.1 2.7-6.4 4.8-14.2 4.6-7.7-.3-14-2.7-13.9-5.5.1-2.7 6.5-4.8 14.2-4.6 7.8.3 14 2.7 13.9 5.5Z" opacity=".3"/>
  <path fill="#F7AA29" d="M16.922 13.724c.7-.4 1.1-1.1 1.3-1.8.4-.1.7-.3 1-.6.067-.067.1-.133.1-.2a1.15 1.15 0 0 0 .2-.3c0-.1.2 0 .3-.1h.3c.333-.133.634-.3.9-.5.1-.2.2-.5.5-.5h.5c.4 0 .767-.133 1.1-.4.1-.1.2-.1.4-.1h.8c.467-.067.867-.2 1.2-.4.1-.1.2-.1.3 0 .134 0 .233.033.3.1l.4.2c.7.2 1.4.2 2 0 .334.267.667.433 1 .5l.6.2c.2 0 .5-.1.6 0 .2.2.3.5.4.6.133.2.3.4.5.6.2.2.5.6.9.5.1.7.5 1.3 1 1.8.067 0 .134.034.2.1.1.1.1.2.1.4 0 .133.033.3.1.5.134.267.3.5.5.7 0 .2 0 .6.1.8 0 .133.033.267.1.4.1.1.3.3.3.4-.1.1-.1.1-.1.2-.066.067-.1.133-.1.2 0 .133-.033.3-.1.5 0 .267.034.567.1.9-.8 0-1.7-.1-2.4-.1h-2.2c-2.5-.1-5-.3-7.4-.6-1.2-.2-2.367-.466-3.5-.8-.533-.2-1.1-.4-1.7-.6a5.26 5.26 0 0 1-1.3-.8 3.53 3.53 0 0 0 .7-1.8Z"/>
  <path fill="#F7AA29" d="M26.322 7.124c.334-.134.634-.2.9-.2.6.1 1.2.3 1.8.6l.1.1c.267 0 .534.066.8.2.133.066.267.166.4.3a.654.654 0 0 0 .3.3c.2.3.5.4.8.5.2.2.5.3.7.5.1.2.2.5.4.7l.6.3c.267.067.5.2.7.4.2.3.2.5.3.8.1.3.2.6.3.8.2.1.4.3.6.4.1.2.3.3.3.6.1.3.1.5.2.7.2.4.6.9.6 1.4-.1.1-.1.2-.2.3a.9.9 0 0 0 .1.4c.1.3.2.6.2.9 0 .2 0 .6-.1.8-.2.3-.5.3-.8.4h-.3c-.133-.334-.166-.634-.1-.9 0-.2.034-.367.1-.5 0-.1.1-.2.1-.3 0-.2-.1-.3-.1-.4a1.565 1.565 0 0 1-.3-.4v-.9c-.333-.267-.533-.567-.6-.9-.1-.2-.1-.3-.1-.5s-.1-.2-.3-.3c-.5-.5-.9-1.1-1-1.8 0-.1-.1-.1-.2-.1-.2.1-.4-.1-.5-.2l-.5-.5-.4-.6c-.1-.1-.2-.4-.4-.4-.1-.1-.3-.1-.5-.1-.2.066-.4.066-.6 0-.3-.1-.7-.4-.9-.6-.066-.067-.133-.1-.2-.1-.8.4-1.7.3-2.4-.2-.2-.1-.3-.2-.5-.1-.2 0-.3.1-.5.2-.4.2-.8.3-1.2.3-.2-.1-.4-.1-.6-.1-.2.1-.4.2-.5.3-.4.3-.8.3-1.2.3-.2-.1-.4 0-.5.1-.1.2-.2.3-.3.5-.3.2-.7.4-1.1.4-.1 0-.3 0-.4.2-.1.1-.1.3-.2.4-.3.3-.6.5-1 .6-.067 0-.1.033-.1.1-.1.7-.6 1.3-1.2 1.7-.1.1-.1.3-.1.5 0 .133-.033.3-.1.5-.133.333-.3.633-.5.9h-.2c-.7-.1-1.2-.7-1.1-1.4 0-.4.1-.7.3-1 .3-.3.5-.5.7-.8.1-.3.2-.6.5-.9l.4-.2c.1-.1.3-.2.4-.3.3-.2.3-.5.5-.8.134-.067.3-.167.5-.3.1 0 .3 0 .4-.1.2-.1.2-.3.3-.4l.4-.4c.3-.2.6-.2 1-.3.2 0 .367-.034.5-.1.134-.067.267-.167.4-.3.267-.267.534-.434.8-.5a1.729 1.729 0 0 1 1-.1h.3c.1 0 .1 0 .2-.1a1.15 1.15 0 0 1 .3-.2c.6-.3 1.2-.3 1.8-.2.134.066.3.133.5.2.1 0 .2-.1.3-.1Z"/>
  <path fill="#050505" fill-rule="evenodd" d="M29.122 7.324c.5 0 1.1.3 1.4.7a.654.654 0 0 1 .3.3c.1.1.3.1.4.2.267.133.5.3.7.5.267.133.467.333.6.6 0 .1.1.2.2.3.1.1.3.1.4.2.5.1.9.5 1.1 1 .2.3.2.7.3 1 .2.2.4.3.6.5.2.1.4.3.4.5.067.133.1.267.1.4s.034.3.1.5c.2.4.6.8.6 1.4v.3c-.066.067-.1.133-.1.2v.3c.133.267.233.567.3.9 0 .3 0 .7-.2.9-.1.3-.5.4-.8.5-.4.1-.9.1-1.4.1h-1.6c-.666-.067-1.333-.1-2-.1-1.333-.067-2.633-.133-3.9-.2-2.4-.1-4.8-.4-7.2-1.1-.6-.2-1.233-.433-1.9-.7-.6-.2-1.2-.4-1.6-.9h-.1c-.8 0-1.3-.9-1.2-1.7 0-.4.2-.8.5-1.1.1-.2.3-.4.4-.6.1-.2.2-.5.3-.7l.5-.5c.1-.1.4-.2.6-.3.2-.2.2-.4.4-.6.134-.2.3-.367.5-.5.2-.1.5-.1.6-.3.2-.2.3-.4.5-.6.2-.133.4-.233.6-.3.2-.1.5-.1.7-.2.2 0 .367-.033.5-.1l.3-.3c.2-.2.434-.333.7-.4.5-.2 1-.3 1.5-.2.8-.6 1.9-.7 2.8-.3 1-.4 2.3-.3 3.1.4Zm-11.6 9c.6.2 1.167.4 1.7.6 1.133.334 2.3.6 3.5.8 2.4.3 4.9.5 7.4.6h2.2c.7 0 1.6.1 2.4.1a4.643 4.643 0 0 1-.1-.9c.067-.2.1-.367.1-.5 0-.067.034-.133.1-.2 0-.1 0-.1.1-.2 0-.1-.2-.3-.3-.4a.888.888 0 0 1-.1-.4c-.1-.2-.1-.6-.1-.8a2.67 2.67 0 0 1-.5-.7c-.067-.2-.1-.367-.1-.5 0-.2 0-.3-.1-.4-.066-.066-.133-.1-.2-.1-.5-.5-.9-1.1-1-1.8-.4.1-.7-.3-.9-.5-.2-.2-.367-.4-.5-.6-.1-.1-.2-.4-.4-.6-.1-.1-.4 0-.6 0l-.6-.2c-.333-.067-.666-.233-1-.5-.6.2-1.3.2-2 0l-.4-.2c-.067-.067-.166-.1-.3-.1-.1-.1-.2-.1-.3 0-.333.2-.733.333-1.2.4h-.8c-.2 0-.3 0-.4.1-.333.267-.7.4-1.1.4h-.5c-.3 0-.4.3-.5.5-.266.2-.567.367-.9.5h-.3c-.1.1-.3 0-.3.1a1.165 1.165 0 0 1-.2.3c0 .067-.033.133-.1.2-.3.3-.6.5-1 .6-.2.7-.6 1.4-1.3 1.8a3.531 3.531 0 0 1-.7 1.8c.4.333.833.6 1.3.8Zm8-9.3c-.6-.1-1.2-.1-1.8.2a1.164 1.164 0 0 0-.3.2c-.1.1-.1.1-.2.1h-.3a1.729 1.729 0 0 0-1 .1c-.267.067-.533.233-.8.5a1.567 1.567 0 0 1-.4.3c-.133.067-.3.1-.5.1-.4.1-.7.1-1 .3l-.4.4c-.1.1-.1.3-.3.4-.1.1-.3.1-.4.1-.2.133-.367.233-.5.3-.2.3-.2.6-.5.8-.1.1-.3.2-.4.3l-.4.2c-.3.3-.4.6-.5.9-.2.3-.4.5-.7.8-.2.3-.3.6-.3 1-.1.7.4 1.3 1.1 1.4h.2c.2-.266.367-.567.5-.9.067-.2.1-.367.1-.5 0-.2 0-.4.1-.5.6-.4 1.1-1 1.2-1.7 0-.067.033-.1.1-.1.4-.1.7-.3 1-.6.1-.1.1-.3.2-.4.1-.2.3-.2.4-.2.4 0 .8-.2 1.1-.4.1-.2.2-.3.3-.5.1-.1.3-.2.5-.1.4 0 .8 0 1.2-.3.1-.1.3-.2.5-.3.2 0 .4 0 .6.1.4 0 .8-.1 1.2-.3.2-.1.3-.2.5-.2.2-.1.3 0 .5.1.7.5 1.6.6 2.4.2.067 0 .134.033.2.1.2.2.6.5.9.6.2.067.4.067.6 0 .2 0 .4 0 .5.1.2 0 .3.3.4.4l.4.6.5.5c.1.1.3.3.5.2.1 0 .2 0 .2.1.1.7.5 1.3 1 1.8.2.1.3.1.3.3 0 .2 0 .3.1.5.067.333.267.634.6.9v.9c.067.133.167.267.3.4 0 .1.1.2.1.4 0 .1-.1.2-.1.3-.066.134-.1.3-.1.5-.067.267-.033.567.1.9h.3c.3-.1.6-.1.8-.4.1-.2.1-.6.1-.8 0-.3-.1-.6-.2-.9a.887.887 0 0 1-.1-.4c.1-.1.1-.2.2-.3 0-.5-.4-1-.6-1.4-.1-.2-.1-.4-.2-.7 0-.3-.2-.4-.3-.6-.2-.1-.4-.3-.6-.4-.1-.2-.2-.5-.3-.8-.1-.3-.1-.5-.3-.8-.2-.2-.433-.333-.7-.4l-.6-.3c-.2-.2-.3-.5-.4-.7-.2-.2-.5-.3-.7-.5-.3-.1-.6-.2-.8-.5a.654.654 0 0 1-.3-.3 1.568 1.568 0 0 0-.4-.3 1.775 1.775 0 0 0-.8-.2l-.1-.1c-.6-.3-1.2-.5-1.8-.6-.267 0-.566.067-.9.2-.1 0-.2.1-.3.1a3.878 3.878 0 0 1-.5-.2Z" clip-rule="evenodd"/>
  <path fill="#F08721" d="M33.722 13.424c.067.067.1.167.1.3-1.2-.8-1.9-2.2-3.1-3-.8-.6-1.9-.9-2.9-.9a9.07 9.07 0 0 0-2.7.2c-.8.2-1.6.4-2.3.9-.7.5-1.2 1.3-1.2 2.1-.1 1 .4 1.9 1.1 2.5.8.7 1.7 1 2.6 1.3 2.267.8 4.567 1.3 6.9 1.5h-2.1c-2.5-.1-5-.3-7.4-.6-1.2-.2-2.367-.466-3.5-.8-.533-.2-1.1-.4-1.7-.6a5.26 5.26 0 0 1-1.3-.8 3.53 3.53 0 0 0 .7-1.8c.7-.4 1.1-1.1 1.3-1.8.4-.1.7-.3 1-.6.067-.067.1-.133.1-.2a1.15 1.15 0 0 0 .2-.3c0-.1.2 0 .3-.1h.3c.333-.133.634-.3.9-.5.1-.2.2-.5.5-.5h.5c.4 0 .767-.133 1.1-.4.1-.1.2-.1.4-.1h.8c.467-.067.867-.2 1.2-.4.1-.1.2-.1.3 0 .134 0 .233.033.3.1l.4.2c.7.2 1.4.2 2 0 .334.267.667.433 1 .5l.6.2c.2 0 .5-.1.6 0 .2.2.3.5.4.6.133.2.3.4.5.6.2.2.5.6.9.5.1.7.5 1.3 1 1.8.067 0 .134.034.2.1Z"/>
  <path fill="#F08721" d="M36.122 15.524c-.1.1-.1.2-.2.3a.9.9 0 0 0 .1.4c.1.3.2.6.2.9 0 .2 0 .6-.1.8-.2-.667-.4-1.3-.6-1.9v-.3c0-.1.1-.2.1-.3.2-.4 0-.8-.2-1-.2-.2-.5-.4-.7-.7 0-.1 0-.1.1-.2.067 0 .134-.033.2-.1l-1.3-1.3c-.1 0 0-.1 0-.1l.2-.2v-.1c-.2-.5-.7-.9-1.2-1.1-.2 0-.5-.1-.6-.2-.066-.067-.1-.167-.1-.3-.3-.4-.6-.7-1.1-.9l-.6-.2-.1-.1c0-.067.034-.1.1-.1.1-.1 0-.3-.1-.3a1.163 1.163 0 0 0-.3-.2 10.62 10.62 0 0 0-1.5-.1c0-.2.067-.367.2-.5-.8-.2-1.7-.1-2.5.2-.1.1-.3.1-.4.1-.1-.1-.1-.3.1-.4-.2-.1-.4-.1-.6-.1-.5 0-1 .1-1.4.4l-.3.3c-.2 0-.4-.1-.3-.3-.8-.1-1.6.3-2 .9l-.2.2c-.1 0-.2-.1-.2-.1-.2-.1-.3 0-.5 0-.2.2-.5.3-.7.5-.2.2-.4.4-.5.7v.1c0 .1-.2.1-.2 0-.1-.1-.2-.1-.3-.2 0 0-.2-.1-.2 0-.4.3-.7.8-.8 1.4 0 0 0 .1-.1.1-.1.1-.1 0-.2-.1-.2 0-.4.1-.5.2-.4.4-.7.9-.6 1.5 0 .066-.033.133-.1.2-.2.1-.3-.2-.5-.3-.2.2-.2.6-.2 1 .133.466.3.933.5 1.4-.7-.1-1.2-.7-1.1-1.4 0-.4.1-.7.3-1 .3-.3.5-.5.7-.8.1-.3.2-.6.5-.9l.4-.2c.1-.1.3-.2.4-.3.3-.2.3-.5.5-.8.134-.067.3-.167.5-.3.1 0 .3 0 .4-.1.2-.1.2-.3.3-.4l.4-.4c.3-.2.6-.2 1-.3.2 0 .367-.034.5-.1.134-.067.267-.167.4-.3.267-.267.534-.434.8-.5a1.729 1.729 0 0 1 1-.1h.3c.1 0 .1 0 .2-.1a1.15 1.15 0 0 1 .3-.2c.6-.3 1.2-.3 1.8-.2.134.066.3.133.5.2.1 0 .2-.1.3-.1.334-.134.634-.2.9-.2.6.1 1.2.3 1.8.6l.1.1c.267 0 .534.066.8.2.133.066.267.166.4.3a.654.654 0 0 0 .3.3c.2.3.5.4.8.5.2.2.5.3.7.5.1.2.2.5.4.7l.6.3c.267.067.5.2.7.4.2.3.2.5.3.8.1.3.2.6.3.8.2.1.4.3.6.4.1.2.3.3.3.6.1.3.1.5.2.7.2.4.6.9.6 1.4Z"/>
  <path fill="#FCCB43" d="M16.322 14.124v.3c0 .1-.1.2-.2.2s-.2-.1-.2-.2c0-.067-.033-.1-.1-.1v-.4l.1-.1c0-.067.034-.1.1-.1h.2c0 .066 0 .066 0 0v.1c.067 0 .1.033.1.1v.2Zm1.1-2v.1c-.067.067-.1.134-.1.2 0 .067-.033.134-.1.2 0 .067-.033.134-.1.2 0 .1 0 .2-.1.2-.1.1-.2 0-.3-.1v-.2c.067 0 .1-.033.1-.1v-.2c0-.133.034-.233.1-.3v-.1l.2-.2h.2c.067.067.1.133.1.2v.1Z"/>
  <path fill="#FCCB43" d="M17.722 12.024v.2l-.1.1h-.1v-.1h-.1v-.1h.1v-.1l.1-.1.1.1Zm.9-1.4v-.1h-.1l-.1.1c-.067 0-.1.033-.1.1v-.1c-.1.1-.1.2-.1.3 0 .067-.033.1-.1.1v.2l.1.1h.1c.067 0 .1-.034.1-.1.067 0 .1-.033.1-.1h.1v-.2c.067 0 .1-.033.1-.1v-.1c0-.067-.033-.1-.1-.1Zm1.9-.9c0 .066-.033.1-.1.1 0 .066-.033.1-.1.1l-.1.1c-.067.066-.133.1-.2.1-.1 0-.2 0-.2-.1-.1-.1 0-.3.1-.4l.1-.1c.067-.067.133-.1.2-.1h.2c.067 0 .133.033.2.1 0 .066-.033.133-.1.2Zm2.3-1.2v.2l-.1.1-.1.1h-.1a1.162 1.162 0 0 0-.3.2c-.1 0-.2 0-.2-.1-.1 0-.1-.1-.1-.2.067-.066.133-.1.2-.1 0-.067.034-.133.1-.2.067 0 .1-.033.1-.1h.1c.067-.066.133-.1.2-.1s.1.034.1.1c.067 0 .1.034.1.1Zm2.3-.5c.1.1 0 .2 0 .2-.1.1-.2.2-.4.2 0 .067-.033.1-.1.1-.067.067-.166.1-.3.1-.1 0-.2 0-.3-.1 0-.2.2-.4.4-.5.1-.1.4-.2.6-.1.067 0 .1.033.1.1Zm2.7.5c-.066.067-.133.1-.2.1h-.1l-.1.1h-.5v-.1c-.067 0-.1-.033-.1-.1v-.2c.067 0 .167-.033.3-.1h.2c.067 0 .1-.033.1-.1l.1.1h.1c.067 0 .1.033.1.1.1 0 .1.1.1.2Zm2.1.5v.1c0 .066-.033.1-.1.1h-.3c-.066 0-.1-.034-.1-.1h-.1c-.066 0-.1-.034-.1-.1v-.2l.1-.1h.4c.1 0 .1 0 .1.1.067 0 .1.033.1.1.067.066.067.1 0 .1Zm2.4 1.7c.067 0 .067.033 0 .1 0 .066 0 .066 0 0-.066.066-.1.066-.1 0 0 .066-.033.066-.1 0h-.1l-.1-.1c-.067-.067-.1-.134-.1-.2 0-.067.034-.1.1-.1h.2c.067 0 .1.033.1.1h.1v.1c.067 0 .067.033 0 .1Zm1.3 1v.1h-.3c0-.066-.033-.1-.1-.1l-.1-.1v-.1c-.067 0-.1-.033-.1-.1.067-.066.134-.1.2-.1h.2v.1h.1v.1h.1v.2Zm1 1.6c0 .066-.033.133-.1.2h-.3a1.163 1.163 0 0 0-.3-.2v-.2c-.067 0-.067-.034 0-.1v-.1h.4c.067.133.133.233.2.3.067 0 .1.033.1.1Zm.5 1.3c0 .067-.033.1-.1.1h-.2v-.1h-.1v-.1h-.1v-.1l-.1-.1c0-.067.033-.133.1-.2h.3v.1h.1v.1h.1v.3Zm.3 1.2-.1.1v.1h-.1c-.066 0-.133-.033-.2-.1l-.1-.1v-.2c.067-.067.133-.1.2-.1h.1l.1.1v.1c0 .066.033.1.1.1Zm.3 1.7v.1c0 .066-.033.1-.1.1 0 .066-.033.1-.1.1h-.2c-.066-.067-.1-.134-.1-.2-.1 0-.1-.1-.1-.2 0-.067.034-.1.1-.1 0-.067.034-.1.1-.1h.2c.067 0 .1.033.1.1l.1.1v.1Zm-1.9-.7c.1.2.1.6-.2.7-.067 0-.133-.033-.2-.1-.1-.1-.3-.2-.4-.4-.133-.2-.3-.4-.5-.6-.2-.4-.5-.9-.7-1.3l-.4-.6-.1-.1a1.16 1.16 0 0 1-.2-.3 3.276 3.276 0 0 1-.5-.4c-.067 0-.067 0 0 0-.067 0-.1-.033-.1-.1-.1 0-.2-.1-.2-.2l-.1-.3c0-.3.1-.5.3-.5.067-.067.067-.067 0 0l.1-.1h.2c.2 0 .4.1.6.2.2.133.4.3.6.5.334.4.634.833.9 1.3a4.4 4.4 0 0 1 .7 1.5c.1.3.1.5.2.8Zm-3.8-4.7c0 .067-.033.134-.1.2v.1c-.067.067-.133.1-.2.1h-.4c0-.066-.033-.1-.1-.1s-.133-.033-.2-.1h-.1c-.133-.066-.2-.166-.2-.3-.067 0-.1-.033-.1-.1a.426.426 0 0 1 0-.4c.067-.133.2-.2.4-.2h.2c.067 0 .133.034.2.1.067 0 .133.034.2.1 0 .067.034.1.1.1.067.067.1.134.1.2.067 0 .1.034.1.1.067.067.1.134.1.2Z"/>
  <path fill="#F7AA29" d="M27.922 19.624c-.7-.4-1.3-1.1-1.6-1.8-.4-.1-.8-.3-1.1-.6l-.2-.2c-.1-.1-.1-.2-.2-.3-.1-.1-.2 0-.4 0h-.3c-.4-.1-.8-.3-1.1-.5-.1-.2-.3-.5-.5-.5-.2.1-.4.1-.6.1a1.81 1.81 0 0 1-1.3-.3c-.1-.1-.2-.1-.4-.1-.067 0-.167.033-.3.1h-.7c-.4 0-.8-.067-1.2-.2-.2-.1-.3-.2-.5-.1l-.2.2a1.26 1.26 0 0 1-.5.3c-.6.4-1.4.4-2.2.2-.267.333-.566.6-.9.8-.2.066-.433.133-.7.2-.2 0-.6-.1-.7.1-.1.3-.2.5-.3.8-.133.2-.3.4-.5.6-.2.3-.5.7-.9.7-.1.8-.4 1.5-.9 2l-.2.2c-.1.2 0 .3 0 .4 0 .2-.033.4-.1.6a1.742 1.742 0 0 1-.5.9c.1.2.1.6.1.8-.066.2-.133.366-.2.5 0 .1-.2.3-.2.4.1.1.1.2.1.3.067.066.1.133.1.2.067.133.134.3.2.5.067.333.067.666 0 1 .9-.1 1.8-.3 2.7-.4.8-.067 1.6-.167 2.4-.3 2.7-.4 5.4-.8 8-1.6 1.267-.334 2.5-.767 3.7-1.3.6-.2 1.2-.467 1.8-.8.5-.3 1-.6 1.4-1-.5-.5-.9-1.2-1.1-1.9Z"/>
  <path fill="#F7AA29" d="M16.822 13.524a5.084 5.084 0 0 0-1-.1c-.7.1-1.3.5-1.8.9h-.2a2.2 2.2 0 0 0-.9.4 1.567 1.567 0 0 1-.3.4c-.1.1-.2.2-.3.4-.2.2-.5.4-.8.6-.2.2-.5.4-.7.7-.1.2-.2.5-.4.7-.1.2-.4.3-.6.4-.266.133-.5.333-.7.6-.2.3-.2.6-.3.9 0 .3-.1.6-.2.9-.2.2-.4.3-.5.5-.2.2-.4.4-.4.7 0 .3 0 .5-.1.8-.2.5-.6 1-.4 1.6 0 .1.1.2.1.3.067.133.1.267.1.4-.1.4-.2.7-.2 1 0 .3.1.7.2 1 .2.2.7.2.9.3h.4v-.1a2.525 2.525 0 0 0 0-1 3.883 3.883 0 0 0-.2-.5c0-.1-.1-.2-.2-.4 0-.1.1-.2.2-.4l.2-.4v-.5a.888.888 0 0 0-.1-.4v-.2c.267-.267.467-.6.6-1v-.5c0-.2.1-.3.2-.4.6-.6.9-1.4 1-2.1 0-.1.1-.1.1-.1.3 0 .5-.2.6-.4.2-.2.367-.4.5-.6l.4-.6c0-.2.1-.4.3-.6.1-.1.4 0 .5 0 .267-.067.5-.134.7-.2.4-.2.7-.4 1-.8 0-.067.034-.067.1 0 .9.2 1.9 0 2.7-.6.1-.1.3-.2.5-.2s.3.1.5.2c.467.133.934.166 1.4.1.2 0 .5-.1.7-.1l.6.3c.4.2.9.2 1.3.1.2 0 .4 0 .6.1.1.2.2.3.4.4.3.3.7.4 1.2.4.1 0 .3 0 .5.1.1.2.2.4.3.5.3.3.7.5 1.1.5.067 0 .1.033.1.1.3.8.8 1.4 1.5 1.8.2 0 .2.3.2.4l.2.6c.2.333.433.667.7 1 .067-.067.134-.1.2-.1.7-.2 1.2-.9 1-1.7 0-.4-.2-.7-.5-1-.3-.3-.6-.5-.8-.8-.2-.4-.3-.7-.6-.9a4.89 4.89 0 0 0-.5-.3c-.2 0-.4-.1-.5-.2-.3-.2-.4-.5-.7-.7a1.255 1.255 0 0 0-.5-.3c-.2-.1-.4-.1-.5-.2-.2-.1-.3-.2-.4-.3l-.4-.4c-.4-.2-.8-.2-1.2-.2-.2 0-.366-.034-.5-.1a3.885 3.885 0 0 1-.5-.2c-.333-.267-.666-.434-1-.5-.333-.134-.7-.134-1.1 0-.067 0-.166.033-.3.1-.1 0-.1-.1-.2-.1l-.4-.2c-.7-.2-1.4-.2-2 0a4.01 4.01 0 0 1-.5.2c-.1.1-.3 0-.4 0Z"/>
  <path fill="#050505" fill-rule="evenodd" d="M17.122 13.224c1-.5 2.2-.5 3.2.1.5-.2 1.1-.2 1.6-.1l.8.4c.1.1.3.2.4.3.2.067.367.1.5.1.3 0 .6 0 .9.1.267.066.5.166.7.3.2.1.3.3.5.5.3.2.6.2.8.3.267.133.467.267.6.4.2.2.3.5.5.7.3.1.5.1.8.3.2.133.367.3.5.5.2.2.2.4.4.7.1.2.4.3.6.5.3.3.6.7.7 1.2.2.8-.3 1.9-1.2 2h-.1c-.4.6-1.1.9-1.6 1.3-.667.333-1.367.633-2.1.9-2.4 1-5.1 1.7-7.7 2.1-1.4.266-2.833.5-4.3.7a24.91 24.91 0 0 1-2.2.3c-.5.1-1.1.2-1.7.2-.5.2-1.1.2-1.6.1-.3 0-.7-.1-.9-.4-.2-.3-.2-.7-.3-1 0-.334.067-.667.2-1v-.4c-.067-.067-.1-.134-.1-.2-.067-.067-.1-.167-.1-.3-.1-.6.3-1.1.5-1.6v-.5c0-.134.033-.3.1-.5 0-.2.2-.4.4-.6.2-.2.4-.4.5-.6.2-.4.1-.8.2-1.1.2-.6.6-1.1 1.2-1.3.1-.1.2-.1.4-.2.1-.1.1-.3.2-.4.067-.334.233-.6.5-.8.2-.2.433-.367.7-.5.2-.2.4-.3.5-.4l.2-.4c.4-.4.9-.8 1.5-.8.8-.9 2.2-1.2 3.3-.9Zm.1.3c-.1.1-.3 0-.4 0a5.085 5.085 0 0 0-1-.1c-.7.1-1.3.5-1.8.9h-.2c-.333.066-.633.2-.9.4a1.567 1.567 0 0 1-.3.4c-.1.1-.2.2-.3.4-.2.2-.5.4-.8.6-.2.2-.5.4-.7.7-.1.2-.2.5-.4.7-.1.2-.4.3-.6.4-.266.133-.5.333-.7.6-.2.3-.2.6-.3.9 0 .3-.1.6-.2.9-.2.2-.4.3-.5.5-.2.2-.4.4-.4.7 0 .3 0 .5-.1.8-.2.5-.6 1-.4 1.6 0 .1.1.2.1.3.067.133.1.267.1.4-.1.4-.2.7-.2 1 0 .3.1.7.2 1 .2.2.7.2.9.3h.4v-.1a2.525 2.525 0 0 0 0-1 3.877 3.877 0 0 0-.2-.5c0-.1-.1-.2-.2-.4 0-.1.1-.2.2-.4l.2-.4v-.5a.888.888 0 0 0-.1-.4v-.2c.267-.267.467-.6.6-1v-.5c0-.2.1-.3.2-.4.6-.6.9-1.4 1-2.1 0-.1.1-.1.1-.1.3 0 .5-.2.6-.4.2-.2.367-.4.5-.6l.4-.6c0-.2.1-.4.3-.6.1-.1.4 0 .5 0 .267-.067.5-.134.7-.2.4-.2.7-.4 1-.8 0-.067.033-.067.1 0 .9.2 1.9 0 2.7-.6.1-.1.3-.2.5-.2s.3.1.5.2a3.33 3.33 0 0 0 1.4.1c.2 0 .5-.1.7-.1l.6.3c.4.2.9.2 1.3.1.2 0 .4 0 .6.1.1.2.2.3.4.4.3.3.7.4 1.2.4.1 0 .3 0 .5.1.1.2.2.4.3.5.3.3.7.5 1.1.5.067 0 .1.033.1.1.3.8.8 1.4 1.5 1.8.2 0 .2.3.2.4l.2.6c.2.333.433.666.7 1 .067-.067.134-.1.2-.1.7-.2 1.2-.9 1-1.7 0-.4-.2-.7-.5-1-.3-.3-.6-.5-.8-.8-.2-.4-.3-.7-.6-.9a4.883 4.883 0 0 0-.5-.3c-.2 0-.4-.1-.5-.2-.3-.2-.4-.5-.7-.7a1.253 1.253 0 0 0-.5-.3c-.2-.1-.4-.1-.5-.2-.2-.1-.3-.2-.4-.3l-.4-.4c-.4-.2-.8-.2-1.2-.2-.2 0-.367-.034-.5-.1a3.878 3.878 0 0 1-.5-.2c-.333-.267-.667-.434-1-.5-.333-.134-.7-.134-1.1 0-.067 0-.166.033-.3.1-.1 0-.1-.1-.2-.1l-.4-.2c-.7-.2-1.4-.2-2 0a4.01 4.01 0 0 1-.5.2Zm11.8 8c-.5-.5-.9-1.2-1.1-1.9-.7-.4-1.3-1.1-1.6-1.8-.4-.1-.8-.3-1.1-.6l-.2-.2c-.1-.1-.1-.2-.2-.3-.1-.1-.2 0-.4 0h-.3c-.4-.1-.8-.3-1.1-.5-.1-.2-.3-.5-.5-.5-.2.1-.4.1-.6.1a1.81 1.81 0 0 1-1.3-.3c-.1-.1-.2-.1-.4-.1-.067 0-.167.033-.3.1h-.7c-.4 0-.8-.067-1.2-.2-.2-.1-.3-.2-.5-.1l-.2.2a1.26 1.26 0 0 1-.5.3c-.6.4-1.4.4-2.2.2-.267.333-.567.6-.9.8-.2.066-.433.133-.7.2-.2 0-.6-.1-.7.1-.1.3-.2.5-.3.8-.133.2-.3.4-.5.6-.2.3-.5.7-.9.7-.1.8-.4 1.5-.9 2l-.2.2c-.1.2 0 .3 0 .4 0 .2-.033.4-.1.6a1.743 1.743 0 0 1-.5.9c.1.2.1.6.1.8a3.92 3.92 0 0 1-.2.5c0 .1-.2.3-.2.4.1.1.1.2.1.3.067.066.1.133.1.2.067.133.133.3.2.5.067.333.067.666 0 1 .9-.1 1.8-.3 2.7-.4.8-.067 1.6-.167 2.4-.3 2.7-.4 5.4-.8 8-1.6 1.267-.333 2.5-.767 3.7-1.3.6-.2 1.2-.467 1.8-.8.5-.3 1-.6 1.4-1Z" clip-rule="evenodd"/>
  <path fill="#F08721" d="M9.522 21.324v.3c1.2-1 1.7-2.6 2.9-3.7.9-.7 2-1.1 3.1-1.3 1-.134 2-.167 3-.1 1 .1 1.9.3 2.7.8.7.4 1.4 1.2 1.6 2.1.2 1-.3 2.1-1 2.9-.7.8-1.7 1.3-2.7 1.7-2.3 1.1-4.8 2-7.4 2.5.8-.067 1.6-.167 2.4-.3 2.7-.4 5.4-.8 8-1.6 1.267-.334 2.5-.767 3.7-1.3.6-.2 1.2-.467 1.8-.8.5-.3 1-.6 1.4-1-.5-.5-.9-1.2-1.1-1.9-.7-.4-1.3-1.1-1.6-1.8-.4-.1-.8-.3-1.1-.6l-.2-.2c-.1-.1-.1-.2-.2-.3-.1-.1-.2 0-.4 0h-.3c-.4-.1-.8-.3-1.1-.5-.1-.2-.3-.5-.5-.5-.2.1-.4.1-.6.1a1.81 1.81 0 0 1-1.3-.3c-.1-.1-.2-.1-.4-.1-.067 0-.167.033-.3.1h-.7c-.4 0-.8-.067-1.2-.2-.2-.1-.3-.2-.5-.1l-.2.2a1.26 1.26 0 0 1-.5.3c-.6.4-1.4.4-2.2.2-.267.333-.566.6-.9.8-.2.066-.433.133-.7.2-.2 0-.6-.1-.7.1-.1.3-.2.5-.3.8-.133.2-.3.4-.5.6-.2.3-.5.7-.9.7-.1.8-.4 1.5-.9 2l-.2.2Z"/>
  <path fill="#F08721" d="M7.222 23.924c0 .1.1.2.1.3.067.133.1.267.1.4-.1.4-.2.7-.2 1 0 .3 0 .7.2.9.134-.667.267-1.367.4-2.1a.425.425 0 0 0 0-.4c0-.1-.1-.2-.2-.3-.2-.3 0-.8.2-1.1.2-.3.5-.5.6-.8.1-.1 0-.2-.1-.2-.066-.067-.133-.1-.2-.1l1.3-1.6s0-.1-.1-.2c-.066 0-.133-.034-.2-.1-.067-.067-.067-.1 0-.1.2-.6.6-1.1 1.2-1.4.2 0 .5-.1.6-.3.067-.067.1-.167.1-.3.2-.5.6-.9 1-1.1.2-.133.4-.233.6-.3.1-.1.2-.1.2-.2l-.1-.1c-.1-.1-.1-.2 0-.3.067-.134.167-.2.3-.2a4.8 4.8 0 0 1 1.7-.3c0-.2-.1-.4-.3-.5.9-.4 1.9-.4 2.8-.1h.4c.1-.1.1-.4-.1-.4.2-.2.4-.1.6-.2.5-.1 1.1-.1 1.6.3.1.1.2.2.4.2.1 0 .3-.1.3-.3.8-.2 1.7.1 2.3.7.1.1.1.2.2.2s.2-.1.2-.1c.2-.1.3-.1.5 0 .3.1.6.2.9.4.3.1.5.4.6.7v.1c.1.1.2.1.3 0 .1-.1.1-.2.2-.3.1 0 .2-.1.2 0 .6.3.9.8 1.1 1.4 0 .1 0 .2.1.2s.2-.1.3-.2c.2-.1.4 0 .5.2.5.4.9.9.9 1.5 0 .133.034.2.1.2.2.1.3-.2.5-.3.3.2.3.6.3 1a3.55 3.55 0 0 1-.4 1.6h.1c.7-.2 1.2-.9 1-1.7 0-.4-.2-.7-.5-1-.3-.3-.6-.5-.8-.8-.2-.4-.3-.7-.6-.9a4.89 4.89 0 0 0-.5-.3c-.2 0-.4-.1-.5-.2-.3-.2-.4-.5-.7-.7a1.255 1.255 0 0 0-.5-.3c-.2-.1-.4-.1-.5-.2-.2-.1-.3-.2-.4-.3l-.4-.4c-.4-.2-.8-.2-1.2-.2-.2 0-.366-.034-.5-.1a3.885 3.885 0 0 1-.5-.2c-.333-.267-.666-.434-1-.5-.333-.134-.7-.134-1.1 0-.067 0-.166.033-.3.1-.1 0-.1-.1-.2-.1l-.4-.2c-.7-.2-1.4-.2-2 0a4.01 4.01 0 0 1-.5.2c-.1.1-.3 0-.4 0a5.084 5.084 0 0 0-1-.1c-.7.1-1.3.5-1.8.9h-.2a2.2 2.2 0 0 0-.9.4 1.567 1.567 0 0 1-.3.4c-.1.1-.2.2-.3.4-.2.2-.5.4-.8.6-.2.2-.5.4-.7.7-.1.2-.2.5-.4.7-.1.2-.4.3-.6.4-.266.133-.5.333-.7.6-.2.3-.2.6-.3.9 0 .3-.1.6-.2.9-.2.2-.4.3-.5.5-.2.2-.4.4-.4.7 0 .3 0 .5-.1.8-.2.5-.6 1-.4 1.6Z"/>
  <path fill="#FCCB43" d="M28.622 19.924v.1l.1.1v.2c0 .1.1.2.3.2.1 0 .1-.2.1-.3.067-.067.1-.134.1-.2v-.3l-.2-.2c-.066-.067-.133-.067-.2 0l-.1.1c0 .066-.033.133-.1.2v.1Zm-1.4-2c0 .066.034.1.1.1v.2l.2.2c0 .066.033.133.1.2.1.1.1.2.2.2.1.1.2 0 .3-.1v-.1l-.1-.1v-.1c0-.067-.033-.134-.1-.2v-.1c0-.067-.033-.167-.1-.3 0-.067-.033-.1-.1-.1 0-.1-.1-.2-.2-.2-.066 0-.133.033-.2.1l-.1.1v.2Z"/>
  <path fill="#FCCB43" d="M26.922 17.924v.2h.2c.067 0 .1-.034.1-.1v-.1l-.1-.1-.1-.1c-.066 0-.1.033-.1.1v.1Zm-1.2-1.5v.3c0 .066.034.1.1.1v.1h.1c0 .067.034.133.1.2.067.066.134.066.2 0h.1v-.3c0-.067-.033-.1-.1-.1 0-.1-.1-.2-.2-.3-.1-.1-.1-.1-.2-.1h-.1v.1Zm-2.2-.7h.1l.2.2h.1c.067.067.133.1.2.1.1 0 .3 0 .3-.2 0-.1-.1-.2-.2-.3 0-.067-.033-.1-.1-.1l-.1-.1h-.4c-.067 0-.133.033-.2.1 0 .1 0 .2.1.3Zm-2.7-1.1c0 .066.034.133.1.2l.1.1.1.1h.2c.067.066.167.133.3.2.1 0 .2-.1.2-.1.1-.1.1-.2 0-.3 0-.067-.033-.1-.1-.1l-.2-.2c-.066 0-.133-.033-.2-.1h-.4c-.067.067-.1.133-.1.2Zm-2.6-.2c0 .1.1.1.2.2 0 .1.2.1.3.2h.2c.067.067.167.1.3.1.1 0 .3 0 .3-.2.1-.2-.2-.4-.4-.5-.2-.1-.6-.2-.7 0l-.2.2Zm-2.8.8c.067.066.133.1.2.1h.8c.067-.067.1-.134.1-.2 0-.067-.033-.133-.1-.2 0 0-.1-.1-.2-.1h-.6c-.066 0-.1.033-.1.1-.066 0-.1.033-.1.1-.1 0-.1.1 0 .2Zm-2.3.8v.1c.067.067.134.1.2.1h.3l.1-.1h.1c.067-.067.1-.133.1-.2v-.2c-.067-.067-.133-.1-.2-.1h-.3c0 .067-.033.1-.1.1 0 0-.1 0-.1.1-.066 0-.1.033-.1.1v.1Zm-2.4 2.2v.1h.3l.1-.1.1-.1c.067-.067.067-.133 0-.2 0-.067-.033-.1-.1-.1h-.1c-.066 0-.1.033-.1.1h-.1l-.1.1v.1c-.066 0-.066.033 0 .1Zm-1.3 1.2v.1h.3l.1-.1h.1c0-.067.034-.134.1-.2v-.2c-.1 0-.1-.1-.2-.1-.066 0-.1.033-.1.1h-.1l-.1.1-.1.1v.2Zm-.9 1.9c0 .066.033.133.1.2.067.066.134.1.2.1 0-.067.033-.1.1-.1h.1a1.14 1.14 0 0 1 .2-.3l.1-.1v-.2c0-.067-.033-.1-.1-.1h-.3l-.1.1-.2.2c-.1.1-.1.2-.1.2Zm-.4 1.5c.067.066.134.1.2.1l.1-.1h.1l.1-.1v-.1c.067 0 .1-.034.1-.1v-.1c0-.133-.033-.2-.1-.2h-.2c-.067 0-.1.033-.1.1h-.1v.1l-.1.1v.3Zm-.1 1.4v.1h.2c.067 0 .133-.034.2-.1 0-.067.034-.1.1-.1v-.1l-.1-.1c0-.133-.033-.2-.1-.2l-.1.1h-.1c0 .066-.033.1-.1.1v.3Zm-.2 1.9v.1h.1v.1c.067 0 .1.033.1.1h.1c.067 0 .134-.033.2-.1.067-.067.1-.133.1-.2.1 0 .1-.2 0-.3v-.1h-.1c-.066-.067-.166-.067-.3 0l-.1.1v.1c-.067 0-.1.033-.1.1v.1Zm2-1.1c0 .3 0 .7.3.8.067 0 .134-.034.2-.1.2-.1.3-.3.4-.5.2-.267.333-.534.4-.8.3-.4.5-1 .7-1.5l.4-.6v-.1l.1-.1c.067-.134.134-.234.2-.3.134-.2.3-.367.5-.5 0-.067-.033-.067-.1 0 .067-.067.133-.1.2-.1 0-.1.1-.2.1-.3.1 0 .1-.3.1-.4 0-.2-.1-.4-.4-.5h.1-.2c-.066-.067-.166-.1-.3-.1-.2.1-.4.2-.5.3-.266.2-.466.433-.6.7-.4.466-.7.966-.9 1.5a7.144 7.144 0 0 0-.6 1.8c0 .2 0 .5-.1.8Zm3.6-5.5c0 .066.034.1.1.1 0 .1.1.1.1.1.067.066.134.1.2.1h.2c.067 0 .133-.034.2-.1h.1a1.16 1.16 0 0 1 .3-.2l.3-.3v-.1c.067-.2.067-.367 0-.5a.678.678 0 0 0-.5-.2h-.2c-.066.067-.133.1-.2.1v.1c-.066 0-.133.033-.2.1 0 .066-.033.133-.1.2l-.1.1c-.067.066-.1.133-.1.2-.066.066-.1.166-.1.3Z"/>
</svg>
