<svg xmlns="http://www.w3.org/2000/svg" width="103" height="120" fill="none" viewBox="0 0 103 120">
  <path fill="#ED4592" d="m75.83 105.1-68.2 2.7-1.9-64.2 65.9-3.1 4.2 64.6Z"/>
  <path fill="#7C265A" d="m87.5 118-72.27-10.3 60.6-2.6-4.2-64.6L84 57l3.5 61Z"/>
  <path fill="#A13675" d="M24.5 119.5 7.63 107.8l68.2-2.6L87.5 118l-63 1.5Z"/>
  <mask id="a" width="81" height="15" x="7" y="105" maskUnits="userSpaceOnUse" style="mask-type:alpha">
    <path fill="#A13675" d="M24.5 119.5 7.63 107.8l68.2-2.6L87.5 118l-63 1.5Z"/>
  </mask>
  <g mask="url(#a)">
    <mask id="b" width="145" height="81" x="7" y="105" maskUnits="userSpaceOnUse" style="mask-type:luminance">
      <path fill="#fff" d="m151.92 185.36-65.93-.39L7.6 107.84l68.24-2.69 76.08 80.21Z"/>
    </mask>
    <g mask="url(#b)">
      <path stroke="#ED4592" stroke-width=".4" d="m10.13 67 112.9 123.2M9.73 70.6l112.9 123.201M10.23 75.7l105.6 114.4M11.23 80.7l105.3 114.4M12.23 85.7l96.6 105.1M12.93 90.7l97 105.1m-96-100.1 82.1 89m-81.1-83.9 82.2 88.5m-81.4-83.5 83.3 89m-89.6-91.4 90.3 95.3m-93.4-94.599 89.7 95.3M18.73 119.3l66.5 71.9M47.83 92l89.2 97.4m-88.3-92.2 80.7 87.9m-79.6-82.9 80.1 87.3M46.73 103l74.9 81.4m-61.9-94.1 90.8 97.4m-86.4-97.9 74.6 81.3m-77.6-75.7 81.9 87.9m-80.8-82.9 81.1 87.4m-83.9-86.6 75.5 81.5"/>
    </g>
  </g>
  <path fill="#050505" d="M51 49.8v-1.5c0-.134.067-.433.2-.9.067-.4.2-.733.4-1s.533-.533 1-.8c.466-.267 1.033-.4 1.7-.4 1.4-.1 2.5.4 3 .9.2.267.4.6.6 1l.3.9v.8c.067.733-.167 1.533-.7 2.4a10.79 10.79 0 0 1-1.7 2.2l2.7-.1.2 2.9-7.1.3-.1-2.5c1.7-1.7 2.8-3 3.2-3.7.2-.4.333-.7.4-.9.066-.133.1-.3.1-.5-.1-.4-.1-.6-.3-.8-.067-.067-.2-.1-.4-.1-.4 0-.5.3-.4.9v.7l-3.1.2Zm14.5-.9c.267.133.533.3.8.5.5.5.9 1.6.9 2.9v.4c0 .2-.034.5-.1.9-.133.4-.333.767-.6 1.1-.2.4-.567.733-1.1 1a5.134 5.134 0 0 1-1.8.5c-.667 0-1.267-.134-1.8-.4-.533-.2-.933-.5-1.2-.9-.5-.7-.8-1.5-.8-2l-.1-.4 3.1-.2c0 .1.1.3.1.5 0 .067.033.133.1.2.067.2.267.3.6.3.5 0 .6-.3.5-1 0-.667-.233-1-.7-1-.2 0-.333.067-.4.2l-2.9-.1-.2-6.3 6-.2.2 2.8-3.1.1.1 1c.2-.133.533-.2 1-.2.4 0 .7 0 1.4.3Z"/>
  <path fill="#FEFEFE" d="m52.1 48.9-.1-.8v-.6c.067-.2.133-.5.2-.9.133-.4.3-.767.5-1.1.2-.267.533-.533 1-.8.467-.2 1-.334 1.6-.4 1.4 0 2.5.4 3 .9.267.267.467.6.6 1l.3.9v.7l.1.1c0 .8-.233 1.6-.7 2.4a12.497 12.497 0 0 1-1.8 2.3l2.8-.1.1 2.8-7.1.3-.1-2.5c1.7-1.6 2.9-2.9 3.3-3.7.2-.4.3-.667.3-.8.066-.2.1-.4.1-.6 0-.3 0-.5-.2-.7-.133-.133-.267-.167-.4-.1-.5 0-.5.3-.5.9v.7l-3 .1Zm14.4-.9c.333.133.6.333.8.6.5.5.9 1.5 1 2.9v.4c0 .133-.067.433-.2.9a5.5 5.5 0 0 1-.5 1.1c-.267.333-.633.633-1.1.9-.533.333-1.167.5-1.9.5-.667.067-1.267-.033-1.8-.3-.533-.267-.9-.567-1.1-.9-.5-.8-.8-1.6-.9-2.1l-.1-.4 3.2-.1v.4c.067.067.1.167.1.3.133.2.333.267.6.2.5 0 .6-.3.6-1-.067-.667-.333-1-.8-1-.2 0-.333.1-.4.3l-2.8-.2-.3-6.2L67 44l.1 2.8-3 .2v1c.2-.133.533-.233 1-.3.4 0 .8 0 1.4.3Z"/>
  <path fill="#050505" d="M96.254 100.117c0 .824-6.672 1.4-14.826 1.236-8.237-.165-14.908-.989-14.908-1.813.082-.906 6.754-1.4 14.908-1.317 8.237.165 14.826.988 14.826 1.894Z" opacity=".2"/>
  <path fill="#965023" stroke="#050505" stroke-linecap="round" stroke-linejoin="round" stroke-width=".412" d="M77.969 77.96s-2.471 3.542-7.166 3.872c-4.695.33-8.32-1.894-7.743-5.683 2.389-1.73 2.224-3.213 3.213-7.33 1.4-5.684-.577-12.85 3.13-15.486 6.836-4.86 23.721-1.647 24.627 4.86L80.852 72.936l-2.883 5.025Z"/>
  <path fill="#050505" d="M69.403 65.194C67.92 76.478 63.06 77.796 63.06 77.796s-.082 3.953 7.496 4.118h.576c1.4-.165 2.554-.494 3.542-.988-6.59-7.001-5.272-15.732-5.272-15.732Z" opacity=".1"/>
  <path fill="#050505" stroke="#050505" stroke-linecap="round" stroke-linejoin="round" stroke-width=".412" d="M72.368 97.976s.412.906-1.483 1.73l8.32.164.082-1.812-6.92-.082Z"/>
  <path fill="#050505" d="m75.745 97.976 3.541.082-.082 1.812-5.024-.165c1.894-.74 1.565-1.73 1.565-1.73Z" opacity=".2"/>
  <path fill="#EFAC1D" d="m72.862 91.386-.741 6.507 7.907.577.165-6.425"/>
  <path stroke="#050505" stroke-linecap="round" stroke-linejoin="round" stroke-width=".412" d="m72.862 91.386-.741 6.507 7.907.577.165-6.425"/>
  <path fill="#0A0C0F" d="m74.18 97.975-2.06-.082.742-6.507 1.483.165-.165 6.424Z" opacity=".3"/>
  <path fill="#D29F6D" stroke="#050505" stroke-width=".412" d="M69.567 88.01c-.494.329-1.482.988-1.812 2.058-.33.906-.082 1.895.66 2.471.823.742 2.223.66 2.47 0 .165-.33.33-.576.577-.906.247-.33.659-.823.823-.906.412-.494.907-1.73-.082-2.635-1.318-.989-2.636-.083-2.636-.083Z"/>
  <path fill="#D29F6D" d="m69.32 88.668-.906.083c-.412.082-.659.412-.576.741 0 .33.247.494.412.577.329.082.576 0 .576 0"/>
  <path stroke="#050505" stroke-linecap="round" stroke-width=".412" d="m69.32 88.668-.906.083c-.412.082-.659.412-.576.741 0 .33.247.494.412.577.329.082.576 0 .576 0"/>
  <path fill="#050505" d="M68.99 90.233s-.246.247-.164.824c0 .576.494.988.741 1.153.247.165 1.07.412 1.07.165.083-.165.742-.906.825-1.071.082-.247-.989-.659-1.483-.989-.494-.411-.988-.082-.988-.082Zm-.247-1.565s1.154-.247 2.142.989c.989 1.235.989 1.647.989 1.647s1.153-1.153.906-2.306c-.33-1.236-1.73-1.73-2.636-1.318-.906.412-1.4.988-1.4.988Z" opacity=".2" style="mix-blend-mode:multiply"/>
  <path fill="#F5F6F7" stroke="#050505" stroke-linecap="round" stroke-linejoin="round" stroke-width=".412" d="M73.274 91.798c.741-1.07 1.4-1.894 2.306-3.13 1.565-2.224 1.977-4.118 1.977-4.118.412-1.647-.247-3.212-1.73-3.707l-.412-.164c-1.318-.412-2.883 0-3.541 1.894 0 0-.742 1.894-1.813 3.377-.74 1.07-1.647 2.389-1.647 2.389l4.86 3.46Z"/>
  <path fill="#0A0C0F" d="M73.274 91.798c.741-1.07 1.4-1.894 2.306-3.13 1.565-2.224 1.977-4.118 1.977-4.118.412-1.647-.247-3.212-1.73-3.707l-.412-.164a1.556 1.556 0 0 0-.494-.083c.082.247.165.412.165.412s1.565 1.483.165 4.283c-.906 1.895-2.636 4.119-3.625 5.354l1.648 1.153Z" opacity=".3"/>
  <path fill="#050505" stroke="#050505" stroke-linecap="round" stroke-linejoin="round" stroke-width=".412" d="M89.747 98.305s-.412.906 1.483 1.73l-8.402-.165v-1.73l6.919.165Z"/>
  <path fill="#050505" d="m86.452 98.223-3.624-.083v1.73l5.025.082c-1.895-.823-1.4-1.73-1.4-1.73Z" opacity=".2"/>
  <path fill="#EFAC1D" d="m89.088 91.798.989 6.507-7.908.165-.494-6.26"/>
  <path stroke="#050505" stroke-linecap="round" stroke-linejoin="round" stroke-width=".412" d="m89.088 91.798.989 6.507-7.908.165-.494-6.26"/>
  <path fill="#0A0C0F" d="m86.864 91.88 2.224-.082.989 6.507h-2.471l-.742-6.424Z" opacity=".3"/>
  <path fill="#F5F6F7" stroke="#050505" stroke-linecap="round" stroke-linejoin="round" stroke-width=".412" d="M79.945 81.502s-1.07-1.07-1.317-1.153c-1.154-.412-2.554-.494-3.13-.576-.989-.165-2.307.494-2.307 1.73-.082 1.317-.33 4.365-1.07 7.33-.742 2.718-1.977 4.53-1.977 5.024.412 1.483 6.26 2.8 8.072 2.966 4.942.33 7.578-1.071 11.037-.989 2.636.082 3.047-.33 3.377-.659.824-.988.576-14.414-1.812-15.979-.989-.659-5.848.989-5.848.989l-5.025 1.317Z"/>
  <path fill="#050505" d="m90.57 86.609 2.307-.165c.33 3.954.165 8.155-.247 8.731-.247.247-.494.494-1.812.659l-.247-9.225Z" opacity=".2"/>
  <path stroke="#050505" stroke-linecap="round" stroke-linejoin="round" stroke-width=".329" d="M84.558 91.304c0 1.812 1.153 2.636 2.553 2.718 1.4 0 2.554-.824 2.636-2.636V89.41l-5.189-.083v1.977Z"/>
  <path fill="#EC272B" d="m84.476 90.315 5.271.083-5.271-.083Z"/>
  <path stroke="#050505" stroke-width=".329" d="m84.476 90.315 5.271.083"/>
  <path fill="#050505" d="M80.275 89.574c-.083.33-.247.577-.577.577-.33 0-.494-.247-.494-.577 0-.33.247-.494.494-.494.33 0 .577.247.577.494Zm-.495 2.306c0 .33-.246.577-.576.577-.33 0-.494-.247-.494-.576 0-.248.247-.495.494-.495.33 0 .577.247.577.495Zm-.658 2.39c-.082.246-.247.494-.577.494-.33 0-.494-.248-.494-.577 0-.247.247-.494.494-.494.33 0 .577.247.577.576Z"/>
  <path fill="#FEFEFE" d="M79.04 87.68s-.083 1.4-.824 4.118c-.824 2.719-.989 4.695-.989 4.695"/>
  <path stroke="#050505" stroke-linecap="round" stroke-linejoin="round" stroke-width=".329" d="M79.04 87.68s-.083 1.4-.824 4.118c-.824 2.719-.989 4.695-.989 4.695"/>
  <path fill="#6ECFF5" d="m79.287 87.35-.495-.164-.247-6.836 1.648.576 2.059-.165-2.965 6.59Z"/>
  <path fill="#B5B5B5" stroke="#B5B5B5" stroke-linejoin="round" stroke-width=".329" d="M84.393 83.561v.412l-2.965.083.494.33.66.905-3.378 2.883.083-.824 1.482-3.871 3.624.082Z" opacity=".4"/>
  <path fill="#B5B5B5" d="m77.64 83.314.082.495 1.153 3.871-1.73-4.036-1.4-.165v-.412l1.894.248Z" opacity=".4"/>
  <path stroke="#050505" stroke-linecap="round" stroke-linejoin="round" stroke-width=".329" d="M70.39 93.034c1.236.082 2.307-.577 2.719-2.06l.412-1.894-1.4-.329"/>
  <path fill="#EC272B" d="m71.874 89.657 1.482.33-1.482-.33Z"/>
  <path stroke="#050505" stroke-width=".329" d="m71.874 89.657 1.482.33"/>
  <path fill="#050505" d="m80.275 82.985.082.247-1.235 4.53v-3.13l1.153-1.647Z" opacity=".2"/>
  <path fill="#F5F6F7" stroke="#050505" stroke-linecap="round" stroke-linejoin="round" stroke-width=".412" d="m82.252 80.267 2.059 3.295-3.048.082.494.741-2.718 3.377v-.576l1.648-5.19 1.565-1.729Zm-3.542-.329-2.8 3.13 1.73.246-.495.412 1.812 4.119.082-.824-.164-5.93-.165-1.153Z"/>
  <path fill="#D29F6D" stroke="#050505" stroke-linecap="round" stroke-linejoin="round" stroke-width=".412" d="M95.348 90.398c.33.495.824 1.565.659 2.636-.165.906-.824 1.73-1.73 1.894-1.153.165-2.306-.494-2.224-1.235 0-.247 0-.577-.082-.988 0-.412-.247-1.071-.247-1.236-.165-.659-.082-1.977 1.235-2.224 1.648-.33 2.389 1.153 2.389 1.153Z"/>
  <path fill="#D29F6D" d="m92.136 91.222-1.071 1.07a.646.646 0 0 0 0 .906c.247.248.576.248.741.165.247-.165.824-.494.824-.494"/>
  <path stroke="#050505" stroke-linecap="round" stroke-linejoin="round" stroke-width=".412" d="m92.136 91.222-1.071 1.07a.646.646 0 0 0 0 .906c.247.248.576.248.741.165.247-.165.824-.494.824-.494"/>
  <path fill="#050505" d="M96.007 91.304s-1.153-.741-2.636-.082c-1.4.576-1.647.988-1.647.988s-.742-1.235.082-2.141c.824-.907 2.306-1.318 2.883-.495.577.742 1.318 1.73 1.318 1.73Z" opacity=".2" style="mix-blend-mode:multiply"/>
  <path fill="#F5F6F7" stroke="#050505" stroke-linecap="round" stroke-linejoin="round" stroke-width=".412" d="M96.419 91.222c-.165-1.318-.33-2.306-.495-3.871-.411-2.636-1.4-4.366-1.4-4.366-.741-1.483-2.388-2.141-3.788-1.483l-.412.165c-1.236.577-2.142 1.977-1.236 3.871 0 0 .742 1.812.989 3.707.164 1.235.412 2.8.412 2.8l5.93-.823Z"/>
  <path fill="#0A0C0F" d="M96.419 91.222c-.165-1.318-.33-2.306-.495-3.871-.411-2.636-1.4-4.366-1.4-4.366-.741-1.483-2.388-2.141-3.788-1.483l-.412.165a4.03 4.03 0 0 1-.412.247c.247.165.412.165.412.165s2.141.082 3.047 3.047c.66 2.06.906 4.778 1.071 6.425l1.977-.33Z" opacity=".3"/>
  <path fill="#D29F6D" stroke="#050505" stroke-width=".412" d="M85.052 52.098a2.502 2.502 0 0 0-.906 0c-.22-.055-.522-.083-.906-.083-.576-.082-14.496-1.565-15.567 12.767-.741 9.143 1.153 17.132 11.531 17.544h.083c7.495.247 14.825-7.33 17.132-16.473 1.647-10.378-10.79-13.755-11.367-13.755Z"/>
  <path fill="#050505" d="M71.297 54.98s-3.789 4.448-1.812 6.507c1.977 2.06 15.485 6.672 17.626 7.002 2.06.329 2.8 7.165 2.142 9.883-.659 2.636 4.695.083 4.942-2.306.33-2.306.824-16.638-2.8-18.78-3.625-2.14-20.098-2.306-20.098-2.306Z" opacity=".1"/>
  <path fill="#965023" d="M88.43 63.794c1.564 2.965 2.305 6.012 1.976 9.39-.247 2.306-.906 4.612-1.4 6.918-.412 1.977 0 3.048 2.388 3.212.989.083.824.248 2.307.248 3.953.164 9.06-3.295 8.978-6.672-4.201-3.79-4.284-10.955-3.872-16.062-.165-3.377-.576-4.612-4.283-7.66-6.59-5.353-22.403-2.965-25.121.165"/>
  <path stroke="#050505" stroke-linecap="round" stroke-linejoin="round" stroke-width=".412" d="M88.43 63.794c1.564 2.965 2.305 6.012 1.976 9.39-.247 2.306-.906 4.612-1.4 6.918-.412 1.977 0 3.048 2.388 3.212.989.083.824.248 2.307.248 3.953.164 9.06-3.295 8.978-6.672-4.201-3.79-4.284-10.955-3.872-16.062-.165-3.377-.576-4.612-4.283-7.66-6.59-5.353-22.403-2.965-25.121.165"/>
  <path fill="#050505" d="M94.112 80.926c-.905-.577-2.058-.412-2.965-2.554-.329-.741-.823-4.2-.741-5.189-.33 1.647-1.4 6.59-1.483 7.578-.33 2.471 2.883 3.047 3.707 2.718.824-.247-.576-1.153-.247-1.894.165-.412 1.07-.33 1.73-.66Z" opacity=".1"/>
  <path fill="#965023" d="M71.05 53.992c-6.59 3.542 3.542 8.813 12.108 12.273 5.189 2.141 12.766 2.8 12.766 2.8s.412-2.965-.823-8.154c-1.236-5.19-4.612-9.143-9.966-9.637"/>
  <path stroke="#050505" stroke-linecap="round" stroke-linejoin="round" stroke-width=".412" d="M71.05 53.992c-6.095 4.119 3.542 8.813 12.108 12.273 5.189 2.141 12.766 2.8 12.766 2.8s.906-3.13-.823-8.154"/>
  <path fill="#7AC057" stroke="#050505" stroke-width=".329" d="M94.03 69.065c0 .33.33.577.659.494l2.883-.329c.33-.082.576-.33.576-.659v-.247c-.082-.33-.33-.494-.74-.494l-2.884.411c-.33 0-.576.33-.576.577l.082.247Z"/>
  <path stroke="#050505" stroke-linecap="round" stroke-linejoin="round" stroke-width=".412" d="M94.03 69.065c0 .33.33.577.659.494l2.883-.329c.33 0 .576-.33.576-.659v-.247c-.082-.33-.33-.494-.74-.494l-2.884.33c-.33.082-.576.411-.576.658l.082.247Z"/>
  <path fill="#FEFEFE" d="M84.31 69.889c0 1.153-1.4 1.977-3.129 1.977-1.73-.083-3.13-.989-3.047-2.06 0-1.07 1.4-1.894 3.13-1.894 1.647 0 3.047.906 3.047 1.977Zm-15.813-.577c-.083 1.071.906 2.06 2.141 2.142 1.153.082 2.224-.741 2.306-1.812 0-1.07-.906-2.06-2.141-2.142-1.236-.082-2.224.742-2.306 1.812Z"/>
  <path fill="#673B17" stroke="#050505" stroke-width=".329" d="M68.826 69.724c0-.66.577-1.153 1.236-1.153.74 0 1.235.576 1.235 1.235 0 .577-.577 1.153-1.236 1.153-.74-.082-1.317-.576-1.235-1.235Z"/>
  <path fill="#41281B" d="M71.297 69.806s-.247-1.235-1.236-1.235c-.906 0-1.235 1.153-1.235 1.153s1.236-.824 2.471.082Z"/>
  <path fill="#050505" d="M69.485 69.724c0-.247.247-.494.576-.494.248 0 .495.247.495.494 0 .33-.247.494-.495.494-.329 0-.576-.247-.576-.494Z"/>
  <path fill="#FEFEFE" d="M69.238 69.806c0-.165.164-.33.33-.247.164 0 .329.082.329.247 0 .165-.165.33-.33.33a.354.354 0 0 1-.33-.33Z"/>
  <path stroke="#050505" stroke-width=".329" d="M68.826 69.724c0-.66.577-1.153 1.236-1.153.74 0 1.235.576 1.235 1.235 0 .577-.577 1.153-1.236 1.153-.74-.082-1.317-.576-1.235-1.235Z"/>
  <path fill="#673B17" stroke="#050505" stroke-width=".329" d="M79.122 70.054c0-.577.576-1.154 1.235-1.154.742.083 1.236.577 1.236 1.236s-.577 1.153-1.236 1.153c-.741 0-1.318-.576-1.235-1.235Z"/>
  <path fill="#41281B" d="M81.593 70.136s-.247-1.153-1.236-1.153c-.906-.083-1.235 1.07-1.235 1.07s1.235-.823 2.47.083Z"/>
  <path fill="#050505" d="M79.78 70.136c.083-.33.248-.494.577-.494.33 0 .495.247.495.494s-.248.494-.495.494c-.33 0-.576-.247-.576-.494Z"/>
  <path fill="#FEFEFE" d="M79.534 70.218c0-.165.164-.33.329-.33s.33.165.33.33-.165.247-.33.247-.33-.082-.33-.247Z"/>
  <path stroke="#050505" stroke-width=".329" d="M79.122 70.054c0-.577.576-1.154 1.235-1.154.742.083 1.236.577 1.236 1.236s-.577 1.153-1.236 1.153c-.741 0-1.318-.576-1.235-1.235Z"/>
  <path fill="#050505" d="M72.944 69.394c.055 0 .11-.027.165-.082a.525.525 0 0 0 0-.494c-1.153-1.483-2.389-1.483-3.212-1.236a3.643 3.643 0 0 0-1.483.824c-.165.165-.165.33-.082.494a.25.25 0 0 0 .33 0s.576-.576 1.317-.741c1.043-.33 1.977.055 2.8 1.153.056.055.11.082.165.082Z"/>
  <path stroke="#050505" stroke-linecap="round" stroke-linejoin="round" stroke-width=".494" d="m67.755 67.5.742 1.07m.082-1.317.412.659"/>
  <path fill="#050505" d="M78.133 69.642c-.11 0-.192-.055-.247-.165-.082-.083-.082-.33.083-.412 1.73-1.4 3.46-1.318 4.53-.988 1.235.33 1.977.988 2.059.988.082.165.165.33 0 .494-.082.083-.33.083-.412 0 0 0-.741-.576-1.812-.906-1.428-.384-2.773-.082-4.036.906-.055.055-.11.083-.165.083Z"/>
  <path stroke="#050505" stroke-linecap="round" stroke-linejoin="round" stroke-width=".577" d="m85.546 68.242-1.153.988m0-1.318-.576.577"/>
  <path fill="#050505" stroke="#050505" stroke-linecap="round" stroke-linejoin="round" stroke-width=".329" d="M76.815 77.549s4.53-.494 6.508-2.389c0 0-.495 2.471-1.977 3.542-1.483 1.153-2.224.659-2.06 0 .165-.659-.823-.906-2.47-1.153Z"/>
  <path stroke="#2E2012" stroke-linecap="round" stroke-linejoin="round" stroke-width=".494" d="M72.203 64.947s-2.141-.989-3.295.576"/>
  <path fill="#050505" d="M75.25 74.83c-.905-.082-1.235-.164-1.647-.906 0 0 1.812.577 3.542.247 0 0 0 .824-1.894.66Z" opacity=".3"/>
  <path stroke="#050505" stroke-linecap="round" stroke-linejoin="bevel" stroke-width=".412" d="M77.227 74.09c-.741.164-3.87.658-3.624-.907"/>
  <path fill="#FEFEFE" fill-rule="evenodd" d="M11.3 59.3c.9 0 1.9 0 1.6 2.8-.3 2.5-1.1 2.7-2.4 2.7l-.5.1.5-5.5.8-.1Zm-.1.6-.4 4.3c1.2-.1 1.2-1.2 1.3-2.1.1-.9.3-2.3-.9-2.2Z" clip-rule="evenodd"/>
  <path fill="#FEFEFE" d="m13.9 64.6-.7.1.5-5.5.7-.1-.5 5.5Zm.2-5.7-.4-.2.7-1.1.5.3-.8 1Z"/>
  <path fill="#FEFEFE" fill-rule="evenodd" d="m16.5 59 .6 5.5h-.7l-.1-1.1-1.1.1-.3 1.1h-.7l1.7-5.5.6-.1Zm-.3 3-.1-2-.7 2.9.9-.1-.1-.8Z" clip-rule="evenodd"/>
  <path fill="#FEFEFE" d="m19.4 64.3-.7.1.5-5.5.8-.1-.6 5.5Zm1.7-3.9v1.8l-.2 2-.8.1.6-5.5.7-.1.8 4.1.1-2.2.2-1.9.7-.1-.5 5.5-.7.1-.9-4.2v.4Zm4.7-1.9v.6l-.9.1-.4 4.8-.8.1.5-4.9-.8.1v-.7l2.4-.1Zm2.2-.2-.1.7-1.2.1-.2 1.7 1.1-.1v.7h-1.1l-.2 1.9 1.2-.1-.1.6-1.9.2.5-5.5 2-.2Z"/>
  <path fill="#FEFEFE" fill-rule="evenodd" d="M28.4 58.3h.8c.6-.1 1.4-.1 1.3 1.3-.1.5-.3 1.3-.9 1.5l.7 2.6h-.8l-.7-2.6-.2 2.7h-.8l.6-5.5Zm1.3 1.5c.1-.5.1-1-.5-.9h-.1l-.2 1.8c.6 0 .8-.3.8-.9Z" clip-rule="evenodd"/>
  <path fill="#FEFEFE" d="M31.6 59.8v1.8l-.2 2-.7.1.5-5.5.7-.1.8 4.1h.1V60l.2-1.9.7-.1-.5 5.5h-.7l-.8-4.1h-.1v.4Z"/>
  <path fill="#FEFEFE" fill-rule="evenodd" d="m35.8 57.9.6 5.4-.7.1-.1-1.1-1.1.1-.3 1-.7.1 1.7-5.6h.6Zm-.3 3.1-.1-2-.7 2.8h.8V61Z" clip-rule="evenodd"/>
  <path fill="#FEFEFE" d="M39.3 58.4c-.133-.067-.3-.1-.5-.1-1 .1-1.1 1.6-1.2 2.3-.1.7-.2 2 .8 2 .2 0 .367-.034.5-.1l-.1.6c-.2.133-.4.2-.6.2-1.5.1-1.5-1.5-1.4-2.6.1-1.2.4-3 1.9-3.1.3 0 .4.1.6.2v.6Zm.6 4.7-.7.1.5-5.5.7-.1-.5 5.5Z"/>
  <path fill="#FEFEFE" fill-rule="evenodd" d="M43.6 60.2c-.1 1-.3 2.8-1.7 2.9-1.4.1-1.3-1.8-1.2-2.8.1-1 .3-2.8 1.7-2.9 1.4-.1 1.3 1.8 1.2 2.8Zm-2.1.1c-.1 1.2-.1 2.1.4 2.1.6 0 .8-1 .9-2.2.1-1.2.1-2.1-.4-2.1-.6 0-.8 1-.9 2.2Z" clip-rule="evenodd"/>
  <path fill="#FEFEFE" d="M44.8 59v1.8l-.2 2-.8.1.6-5.5.7-.1.8 4.1h.1v-2.2l.2-1.9.7-.1-.5 5.5-.7.1-.8-4.2h-.1v.4Z"/>
  <path fill="#FEFEFE" fill-rule="evenodd" d="m49 57.1.6 5.4-.7.1-.1-1.1-1.1.1-.3 1.1h-.7l1.7-5.5.6-.1Zm-.3 3-.1-2-.7 2.9.8-.1v-.8Z" clip-rule="evenodd"/>
  <path fill="#FEFEFE" d="m51.1 57-.4 4.9 1.2-.1-.1.6-1.9.1.5-5.5h.7Z"/>
  <path fill="#FEFEFE" fill-rule="evenodd" d="M16.3 67.6c.8-.1 1.8-.1 1.5 2.7-.2 2.5-1 2.7-2.3 2.8H15l.5-5.5h.8Zm-.2.7-.4 4.2c1.2 0 1.3-1.2 1.4-2.1 0-.8.3-2.3-1-2.1Z" clip-rule="evenodd"/>
  <path fill="#FEFEFE" d="m20.6 67.3-.1.6-1.2.1-.1 1.7h1.1l-.1.6-1.1.1-.2 1.8h1.2v.6l-2 .1.6-5.5 1.9-.1Zm2.4-.1-.4 4.8 1.2-.1-.1.7-1.9.1.5-5.5h.7Z"/>
  <path fill="#FEFEFE" fill-rule="evenodd" d="m25.8 67 .7 5.4h-.7l-.1-1-1.1.1-.3 1-.7.1 1.7-5.6h.5Zm-.3 3.1-.1-2-.7 2.8h.8v-.8Z" clip-rule="evenodd"/>
  <path fill="#FEFEFE" d="m16.2 98.2-.4 4.8 1.2-.1-.1.7-1.9.1.5-5.5h.7Z"/>
  <path fill="#FEFEFE" fill-rule="evenodd" d="m19 98 .7 5.4H19l-.1-1-1.1.1-.3 1-.7.1 1.6-5.6h.6Zm-.2 3.1-.1-2h-.1l-.6 2.8h.8v-.8Z" clip-rule="evenodd"/>
  <path fill="#6A559A" d="M59.9 79.3 0 83.1l.3-4.5 59.6-3.8v4.5Z"/>
  <path fill="#FEFEFE" d="m6.1 83.9-2.2.1-2-7 2.3-.2L5.3 81 7 76.7l2.3-.2-3.2 7.4Zm3.2-.2.7-7.2 2.1-.1-.6 7.2-2.2.1Z"/>
  <path fill="#FEFEFE" fill-rule="evenodd" d="M16.8 76c1.067-.067 1.933.267 2.6 1 .667.667.967 1.5.9 2.5-.133 1.067-.567 1.967-1.3 2.7-.8.8-1.733 1.2-2.8 1.2-1.067.067-1.933-.233-2.6-.9-.6-.667-.867-1.533-.8-2.6.067-1 .5-1.9 1.3-2.7.733-.733 1.633-1.133 2.7-1.2Zm-.4 5.4c.4 0 .767-.167 1.1-.5.333-.333.533-.767.6-1.3 0-.466-.133-.833-.4-1.1-.267-.333-.6-.5-1-.5a2.069 2.069 0 0 0-1.2.6c-.333.334-.5.733-.5 1.2-.067.467.033.867.3 1.2.267.333.633.467 1.1.4Z" clip-rule="evenodd"/>
  <path fill="#FEFEFE" d="m23.7 75.8-.4 5.1 3-.1-.2 2-5.1.2.6-7.1 2.1-.1Zm5.7 1.7-.1.7 2.8-.2-.1 1.8-2.8.2-.1.6 3-.2-.1 2-5.2.3.6-7.1 5.2-.3-.2 2-3 .2Zm10.5-2.6-.6 7.2-2 .1-2-3-.2 3.1-2.1.1.6-7.2 1.9-.1 2 3 .3-3.1 2.1-.1Zm8.1 3.7a4.493 4.493 0 0 1-1.5 2.3c-.733.667-1.567 1-2.5 1-1.067.067-1.9-.233-2.5-.9-.667-.666-.967-1.533-.9-2.6.067-1 .5-1.9 1.3-2.7.8-.733 1.7-1.133 2.7-1.2.933-.066 1.733.2 2.4.8.667.534 1.033 1.234 1.1 2.1l-2.3.2a1.28 1.28 0 0 0-.5-.8c-.267-.2-.533-.3-.8-.3a2.069 2.069 0 0 0-1.2.6 2.43 2.43 0 0 0-.5 1.2c-.067.467.067.867.4 1.2.267.334.6.467 1 .4.333 0 .633-.1.9-.3.267-.266.467-.566.6-.9l2.3-.1Zm.5 2.9.6-7.1 2.2-.1-.6 7.1-2.2.1Z"/>
  <path fill="#FEFEFE" fill-rule="evenodd" d="m56.7 74 2 7-2.3.1-.2-.7-2.3.1-.3.8-2.3.1 3.3-7.3 2.1-.1Zm-2 4.5 1-.1-.4-1.4-.6 1.5Z" clip-rule="evenodd"/>
  <path fill="#6A559A" d="M55.9 91.2 9 93.4l.4-4.6 46.5-2.1v4.5Z"/>
  <path fill="#FEFEFE" d="M17.9 91.3a4.494 4.494 0 0 1-1.5 2.3c-.733.666-1.567 1-2.5 1-1.067.066-1.933-.234-2.6-.9-.6-.734-.867-1.6-.8-2.6.133-1.067.567-1.967 1.3-2.7a4.444 4.444 0 0 1 2.8-1.2c.933-.067 1.7.2 2.3.8.667.533 1.033 1.266 1.1 2.2l-2.3.1a1.28 1.28 0 0 0-.5-.8c-.2-.2-.467-.3-.8-.3-.4.066-.767.266-1.1.6a2.069 2.069 0 0 0-.6 1.2c-.067.466.033.866.3 1.2.267.266.633.4 1.1.4.333 0 .633-.1.9-.3a2.66 2.66 0 0 0 .6-.9l2.3-.1Z"/>
  <path fill="#FEFEFE" fill-rule="evenodd" d="M22.7 86.8c1.067 0 1.933.333 2.6 1 .667.666.933 1.533.8 2.6-.067 1-.5 1.9-1.3 2.7a4.445 4.445 0 0 1-2.8 1.2c-1.067 0-1.9-.334-2.5-1-.667-.667-.966-1.534-.9-2.6.133-1 .6-1.9 1.4-2.7.733-.734 1.633-1.133 2.7-1.2Zm-.5 5.4c.467 0 .833-.167 1.1-.5.333-.334.533-.734.6-1.2.067-.467-.033-.867-.3-1.2-.267-.334-.633-.467-1.1-.4-.4 0-.767.166-1.1.5a2.068 2.068 0 0 0-.6 1.2c0 .466.133.867.4 1.2.267.333.6.466 1 .4Z" clip-rule="evenodd"/>
  <path fill="#FEFEFE" d="m33.8 86.4-.7 7.2-1.9.1-2-3-.3 3.1-2.1.1.7-7.2 1.9-.1 2 3.1.3-3.2 2.1-.1Zm2.6 1.9-2 .1.2-2 6.1-.3-.2 2-2 .1-.5 5.2-2.1.1.5-5.2Z"/>
  <path fill="#FEFEFE" fill-rule="evenodd" d="m47.2 93-2.6.1-1.3-1.8-.2.1-.1 1.8h-2.2l.7-7.1 2.9-.1c.1 0 .2-.1.6 0 .4.1.7.1 1.1.4.4.2.7.6.8 1.1.067.333.1.666.1 1-.067 1-.533 1.766-1.4 2.3l1.6 2.2Zm-3.8-5-.1 1.4.8-.1c.4 0 .633-.234.7-.7 0-.4-.2-.6-.5-.6h-.9Zm9.5-2.4 2 7-2.3.1-.2-.7-2.3.1-.3.7-2.3.1 3.3-7.2 2.1-.1Zm-2 4.4h1l-.4-1.5-.6 1.5Z" clip-rule="evenodd"/>
  <path fill="#6A559A" d="m59 101.6-37 1.6.3-4.5 36.8-1.6-.1 4.5Z"/>
  <path fill="#FEFEFE" d="M27.2 103.4h-.6l-1.1-2.1-.3 3-2.2.1.8-7.2 1.9-.1 1.5 2.7 2.1-2.8 1.9-.1-.7 7.2h-2.1l.3-2.9-1.5 2.2Zm7.4.6H34c-.4-.1-.7-.2-1.2-.4-.4-.3-.7-.7-.9-1.3a3.042 3.042 0 0 1 0-1.1l.4-4.3 2.1-.1-.4 4.3v.4l.2.2c.1.2.3.3.6.3.267 0 .467-.067.6-.2.133-.2.233-.367.3-.5l.1-.2.4-4.4 2.1-.1-.4 4.4c-.1.8-.4 1.5-.8 1.9-.2.2-.4.367-.6.5-.7.5-1.4.6-1.8.6h-.1Zm3.4-1.8 1.7-1.1c.267.467.567.7.9.7.333 0 .533-.167.6-.5l.4-4.8 2.2-.1-.5 5a2.19 2.19 0 0 1-.9 1.6c-.6.467-1.267.733-2 .8-.7 0-1.3-.2-1.6-.6-.4-.3-.6-.6-.8-.9v-.1Zm8.8-3.9-.1.7 2.8-.2-.2 1.9-2.8.1-.1.6 3.1-.1-.2 2-5.2.2.7-7.2 5.2-.2-.2 2-3 .2Z"/>
  <path fill="#FEFEFE" fill-rule="evenodd" d="m56.6 103-2.5.1-1.3-1.7h-.2l-.2 1.8-2.1.1.7-7.2 2.9-.1h.6c.3.1.7.2 1.1.4.4.3.7.6.8 1.2.067.267.1.6.1 1-.133 1-.6 1.733-1.4 2.2l1.5 2.2Zm-3.8-5-.1 1.4.8-.1c.4 0 .6-.2.6-.6.1-.5-.1-.7-.5-.7h-.8Z" clip-rule="evenodd"/>
  <path fill="#6A559A" d="m46.9 70.61-17.9 1 .3-4.6 17.7-.9-.1 4.5Z"/>
  <path fill="#FEFEFE" d="m37.1 65.31-.7 7.1-1.9.099-2-3-.3 3.1-2.1.1.7-7.2h1.9l2 3 .3-3.1 2.1-.1Z"/>
  <path fill="#FEFEFE" fill-rule="evenodd" d="M41.9 65.01c1.067-.068 1.9.233 2.5.9.666.733.967 1.6.9 2.6a4.277 4.277 0 0 1-1.4 2.7 4.443 4.443 0 0 1-2.8 1.2c-1 0-1.833-.334-2.5-1-.667-.667-.933-1.534-.8-2.6.067-1 .5-1.867 1.3-2.6.8-.8 1.733-1.2 2.8-1.2Zm-.6 5.4a2.068 2.068 0 0 0 1.2-.6c.333-.334.5-.734.5-1.2.066-.468-.033-.867-.3-1.2-.267-.267-.6-.4-1-.4-.467 0-.867.166-1.2.5-.334.332-.5.733-.5 1.2-.067.466.033.866.3 1.2.267.333.6.5 1 .5Z" clip-rule="evenodd"/>
  <path fill="#050505" d="M11 53.5c0 .9 6.6 1.6 14.8 1.6 8.2 0 14.8-.7 14.8-1.6 0-.9-6.6-1.6-14.8-1.6-8.2 0-14.8.7-14.8 1.6Z" opacity=".2"/>
  <path fill="#1A1A1A" stroke="#050505" stroke-linecap="round" stroke-linejoin="round" stroke-width=".4" d="M34.8 51.8s-.4 1 1.5 1.8h-8.6v-1.8h7.1Z"/>
  <path fill="#050505" d="M31.4 51.8h-3.7v1.8h5.2c-2-.8-1.5-1.8-1.5-1.8Z" opacity=".2"/>
  <path fill="#0D7D75" d="m34.4 45 .6 6.7-8.1.5-.1-6.7"/>
  <path stroke="#050505" stroke-linecap="round" stroke-linejoin="round" stroke-width=".4" d="m34.4 45 .6 6.7-8.1.5-.1-6.7"/>
  <path fill="#0A0C0F" d="m32.8 45.1.1 6.7 2.1-.1-.6-6.7-1.6.1Z" opacity=".3"/>
  <path fill="#D29F6D" stroke="#050505" stroke-linecap="round" stroke-linejoin="round" stroke-width=".4" d="M37.9 41.6c.5.3 1.5 1.1 1.8 2.1.3 1 0 2-.7 2.6-.9.7-2.4.6-2.6-.1-.1-.3-.3-.6-.5-.9-.3-.4-.7-.8-.9-1-.4-.5-.9-1.8.2-2.6 1.3-1.1 2.7-.1 2.7-.1Z"/>
  <path fill="#D29F6D" d="m38.1 42.2 1 .2c.4.1.6.4.6.8-.1.3-.4.5-.5.5-.4.1-.6 0-.6 0"/>
  <path stroke="#050505" stroke-linecap="round" stroke-linejoin="round" stroke-width=".4" d="m38.1 42.2 1 .2c.4.1.6.4.6.8-.1.3-.4.5-.5.5-.4.1-.6 0-.6 0"/>
  <path fill="#050505" d="M38.5 43.9s.2.3.1.9c0 .5-.5.9-.8 1.1-.2.1-1.1.4-1.1.2-.1-.2-.7-1-.8-1.2-.1-.2 1-.6 1.5-1 .6-.4 1.1 0 1.1 0Zm-2-.6c.7-.9 1.7-1.1 2.1-1.1-.2-.3-.5-.5-.7-.6 0 0-1.4-1-2.7.1-1.1.8-.6 2.1-.2 2.6l.5.5c.1-.2.3-.7 1-1.5Z" opacity=".2" style="mix-blend-mode:multiply"/>
  <path fill="#F5F6F7" stroke="#050505" stroke-linecap="round" stroke-linejoin="round" stroke-width=".4" d="M34 45.5c-.8-1.2-1.4-2.1-2.3-3.4-1.6-2.3-2-4.2-2-4.2-.4-1.7.4-3.4 1.9-3.8l.4-.2c1.4-.4 3 .1 3.6 2.1 0 0 .7 1.9 1.8 3.5.8 1.1 1.7 2.4 1.7 2.4L34 45.5Z"/>
  <path fill="#0A0C0F" d="M34 45.5c-.8-1.2-1.4-2.1-2.3-3.4-1.6-2.3-2-4.2-2-4.2-.4-1.7.4-3.4 1.9-3.8l.4-.2c.2-.067.367-.1.5-.1l-.2.4s-1.6 1.6-.2 4.5c.9 1.9 2.6 4.2 3.6 5.6L34 45.5Z" opacity=".3"/>
  <path fill="#1A1A1A" stroke="#050505" stroke-linecap="round" stroke-linejoin="round" stroke-width=".4" d="M16.9 51.8s.4 1-1.6 1.8H24v-1.8h-7.1Z"/>
  <path fill="#050505" d="M20.3 51.8H24v1.8h-5.2c1.9-.8 1.5-1.8 1.5-1.8Z" opacity=".2"/>
  <path fill="#0D7D75" d="m17.7 45.1-1.1 6.7 8.1.4.6-6.5"/>
  <path stroke="#050505" stroke-linecap="round" stroke-linejoin="round" stroke-width=".4" d="m17.7 45.1-1.1 6.7 8.1.4.6-6.5"/>
  <path fill="#0A0C0F" d="m20 45.3-2.3-.2-1.1 6.7 2.4.1 1-6.6Z" opacity=".3"/>
  <path fill="#F5F6F7" stroke="#050505" stroke-linecap="round" stroke-linejoin="round" stroke-width=".4" d="M25 31.3c2.9 0 5.2.6 5.8.7 1.1.3 3.5 1.5 3.5 2.8 0 1.4.2 4.5.9 7.6.8 2.8 2 4.7 1.9 5.2-.4 1.5-6.5 2.8-8.3 2.9-5.1.3-7.8-1.2-11.3-1.2-2.8 0-3.2-.4-3.5-.8-.8-.9-.7-10.8 1.1-14.3.3-.6 1.5-2.3 4-2.7 1.2-.1 3.4-.2 5.9-.2Z"/>
  <path fill="#17B473" stroke="#050505" stroke-linecap="round" stroke-linejoin="round" stroke-width=".4" d="M25 31.3c-1.1 0-2.8 0-4.4.1l4.7 3.3 2.6 6 .5-.1.3-6 1.7-2.7c-.9-.2-3-.6-5.4-.6Z"/>
  <path fill="#050505" d="M14.5 36c-1 4.1-1.3 11.6-.5 12.5.2.3.6.6 2.3.7-.5-6.7 0-8.3.3-11.3.1-1.6-1.3-2.9-2.1-1.9Z" opacity=".2"/>
  <path stroke="#050505" stroke-linecap="round" stroke-linejoin="round" stroke-width=".4" d="M22.3 44.7c0 1.8-1.1 2.7-2.6 2.7s-2.7-.9-2.7-2.7v-2h5.4l-.1 2Z"/>
  <path fill="#EC272B" d="M22.5 43.7H17h5.5Z"/>
  <path stroke="#050505" stroke-width=".4" d="M22.5 43.7H17"/>
  <path fill="#050505" d="M26.8 43c0 .3.3.6.6.6s.5-.3.5-.6-.2-.5-.5-.5-.6.2-.6.5Zm.5 2.4c0 .3.3.6.6.6s.5-.3.5-.6-.2-.5-.5-.5-.6.2-.6.5Zm.6 2.4c0 .3.3.6.6.6s.5-.3.5-.6-.2-.5-.5-.5-.6.2-.6.5Z"/>
  <path fill="#B5B5B5" stroke="#B5B5B5" stroke-linejoin="round" stroke-width=".4" d="M22.7 36.7v.4l3 .1-.5.4v2.7l2.8 1.3-.1-.9-1.5-4h-3.7Z" opacity=".4"/>
  <path fill="#FEFEFE" d="M28.2 41.1s0 1.4.7 4.2c.8 2.9.9 4.8.9 4.8"/>
  <path stroke="#050505" stroke-linecap="round" stroke-linejoin="round" stroke-width=".4" d="M28.2 41.1s0 1.4.7 4.2c.8 2.9.9 4.8.9 4.8"/>
  <path fill="#B5B5B5" d="m29.7 36.6-.2.5-1.2 4 1.8-4.1 1.5-.2v-.4l-1.9.2Z" opacity=".4"/>
  <path stroke="#050505" stroke-linecap="round" stroke-linejoin="round" stroke-width=".4" d="M36.9 46.7c-1.3.1-2.4-.5-2.7-2.1l-.4-2 1.4-.3"/>
  <path fill="#EC272B" d="m35.5 43.2-1.6.4 1.6-.4Z"/>
  <path stroke="#050505" stroke-width=".4" d="m35.5 43.2-1.6.4"/>
  <path fill="#050505" d="M26.7 35.2h-.2l1.6 5.7v-3l-1.4-2.7Z" opacity=".2"/>
  <path fill="#F5F6F7" stroke="#050505" stroke-linecap="round" stroke-linejoin="round" stroke-width=".4" d="m24.9 33.4-2.1 3.3 3.1.1-.6.8 2.8 3.5v-.5l-1.6-5.4-1.6-1.8Zm3.7-.3 2.8 3.3-1.7.2.5.5-2 4.1-.1-.8.3-6.1.2-1.2Z"/>
  <path fill="#D29F6D" stroke="#050505" stroke-linecap="round" stroke-linejoin="round" stroke-width=".4" d="M11.2 43.5c-.3.5-.9 1.6-.6 2.7.1 1 .8 1.8 1.7 2 1.1.3 2.4-.4 2.3-1.1 0-.4 0-.7.1-1.1 0-.4.2-1.1.3-1.3.1-.6.1-2-1.3-2.3-1.7-.4-2.5 1.1-2.5 1.1Z"/>
  <path fill="#D29F6D" d="m14.5 44.4 1.1 1.2c.3.2.3.7 0 .9-.3.3-.6.2-.7.2-.3-.2-.6-.5-.6-.5"/>
  <path stroke="#050505" stroke-linecap="round" stroke-linejoin="round" stroke-width=".4" d="m14.5 44.4 1.1 1.2c.3.2.3.7 0 .9-.3.3-.6.2-.7.2-.3-.2-.6-.5-.6-.5"/>
  <path fill="#050505" d="M10.8 44.5s1-.8 2.4-.1c1.5.7 1.7 1.1 1.7 1.1s.6-1.6-.3-2.6c-.8-.9-2.3-.7-2.9.1-.7.8-.9 1.5-.9 1.5Z" opacity=".2" style="mix-blend-mode:multiply"/>
  <path fill="#F5F6F7" stroke="#050505" stroke-linecap="round" stroke-linejoin="round" stroke-width=".4" d="M10.1 44.4c.2-1.4.4-2.4.6-4 .5-2.7 1.6-4.8 1.6-4.8.9-1.6 2.5-2.2 4-1.5l.4.2c1.3.6 2.1 2.1 1.2 4 0 0-.9 2.2-1.2 4.1-.2 1.3-.5 3-.5 3l-6.1-1Z"/>
  <path fill="#0A0C0F" d="M10.1 44.4c.2-1.4.4-2.4.6-4 .5-2.7 1.6-4.8 1.6-4.8.9-1.6 2.5-2.2 4-1.5l.4.2.4.2-.4.2s-2.2 0-3.2 3.1c-.7 2-1.2 5.3-1.3 6.9l-2.1-.3Z" opacity=".3"/>
  <path fill="#41281B" stroke="#050505" stroke-linecap="round" stroke-linejoin="round" stroke-width=".4" d="M34.6 15.2c0-1.9 1.5-3.5 3.4-3.5 2 0 3.5 1.6 3.5 3.5 0 .9-.3 1.7-.9 2.4 1 .4 1.6 1.3 1.6 2.4 0 1.6-1.3 2.8-2.8 2.8-1.5 0-2.8-1.2-2.8-2.8 0-.533.166-1 .5-1.4-1.5-.5-2.5-1.8-2.5-3.4Z"/>
  <path fill="#D29F6D" stroke="#050505" stroke-linecap="round" stroke-linejoin="round" stroke-width=".4" d="M10.3 17.2c0 9.2 4.3 18.4 15.8 18.6 10.6.3 14.4-6.4 14.4-15.7 0-9.3-8.3-16.8-15.3-16.8-8.4 0-14.9 4.7-14.9 13.9Z"/>
  <path fill="#050505" d="M32.3 28.2c1 0 1.3-.5 1.7-1.2 0 0-2.1.4-3.9.1 0 0 .3 1.3 2.2 1.1Z" opacity=".3"/>
  <path fill="#050505" d="M22.5 15.5c1.8-1.3 3.3-2 5.6-2.9 1.2-.4 6.2-1.7 9.1-2.4-3.1-4.2-7.8-6.9-12-6.9-8.4 0-14.9 4.7-14.9 13.9s4.3 18.4 15.8 18.6c1.066.067 2.066.033 3-.1-5.4-.4-9.5-5.2-10.1-9.4-.5-4.1 1.7-9.6 3.5-10.8Z" opacity=".2"/>
  <path fill="#41281B" stroke="#050505" stroke-linecap="round" stroke-linejoin="round" stroke-width=".4" d="M10.7 28.6c-3.2 0-5.7-2.5-5.7-5.7 0-1.6.7-3 1.7-4-1-1.2-1.6-2.6-1.6-4.3 0-3.6 2.9-6.5 6.5-6.5.4 0 .767.033 1.1.1v-.5c0-3.2 2.6-5.8 5.8-5.8 1.8 0 3.5.9 4.5 2.2.8-1.9 2.7-3.1 4.8-3.1 1.9 0 3.6 1 4.5 2.5.6-.3 1.2-.5 1.8-.5 2 0 3.6 1.6 3.6 3.5 0 2-1.6 3.6-3.6 3.6l-6.3 2.3-6.2 4.2-3.4 2.7-2.1 3.5s-.7 1.2-.7 3.2.6 3 1.1 4.3c1.1 2.6-.5 5.2-3.9 4.4-4.4-1-1.9-6.1-1.9-6.1Z"/>
  <path fill="#050505" d="M5 22.9c0-1.6.7-3 1.7-4-1-1.2-1.6-2.6-1.6-4.3 0-2.6 1.6-4.9 3.8-5.9C7.7 9.9 7 11.6 7 13.4c0 1.6.6 3.1 1.5 4.2-1 1.1-1.7 2.5-1.7 4.1 0 3.1 2.6 5.7 5.7 5.7 0 0-2.4 5 2 6 .733.2 1.367.234 1.9.1-.6 1-1.9 1.6-3.8 1.2-4.4-1-1.9-6.1-1.9-6.1-3.2 0-5.7-2.5-5.7-5.7Z" opacity=".1"/>
  <path fill="#D29F6D" d="M15 22.7c-2.5-.7-4.5 4.8 1.2 5.7L15 22.7Z"/>
  <path stroke="#050505" stroke-linecap="round" stroke-linejoin="round" stroke-width=".4" d="M15 22.7c-2.5-.7-4.5 4.8 1.2 5.7"/>
  <path fill="#050505" d="M15 22.7c-2.5-.7-4.5 4.8 1.2 5.7L15 22.7Z" opacity=".2"/>
  <path fill="#41281B" d="M14.9 22.3c.2 6.5 5 6.1 5 6.1s-1.2-1.1-1.2-3.1c0-1.9-1.3-3.3-1.3-3.3 1.3 0 9.8-4.9 9.8-9.6h-5.1"/>
  <path stroke="#050505" stroke-linecap="round" stroke-linejoin="round" stroke-width=".4" d="M14.9 22.3c.2 6.5 5 6.1 5 6.1s-1.2-1.1-1.2-3.1c0-1.9-1.3-3.3-1.3-3.3 1.3 0 9.8-4.9 9.8-9.6h-5.1"/>
  <path fill="#050505" d="M18.5 12.4s-2.3 4.5 0 6.4c0 0 1.9-3.9 7-2.5l-.8.9s8.4 1.1 13.2-2.1c0 0-12.3-5.4-19.4-2.7Z" opacity=".2"/>
  <path fill="#41281B" d="M37.6 6.8s3.2.8 3.2 4.3c0 3.6-3.5 4.8-8 4.8s-6.8-1.4-9.4-1.4c-2.6 0-4.8 2.8-4.8 2.8s-1.9-3.4.8-6.1"/>
  <path stroke="#050505" stroke-linecap="round" stroke-linejoin="round" stroke-width=".4" d="M37.6 6.8s3.2.8 3.2 4.3c0 3.6-3.5 4.8-8 4.8s-6.8-1.4-9.4-1.4c-2.6 0-4.8 2.8-4.8 2.8s-1.9-3.4.8-6.1"/>
  <path fill="#050505" d="M15.5 25.5s1.2-2.1 3-1l-.3-1.9-3.3.6.6 2.3Z" opacity=".2"/>
  <path fill="#A48AC0" stroke="#050505" stroke-linecap="round" stroke-linejoin="round" stroke-width=".4" d="M18.4 19.4c.2-.067.367-.067.5 0 .3.1.6.4.8.8v.1c.067 0 .1.033.1.1v.1c.066 0 .1.033.1.1v.1c0 .066.033.1.1.1v.3c.1.5.1.9-.1 1.2-.067.133-.2.233-.4.3-.2.1-.5.1-.8.1-.8 0-1.6-.2-1.6-.2l-.1-.8-.4-.7s.5-.6 1.1-1.1c.2-.2.4-.4.7-.5Z"/>
  <path fill="#050505" d="m17 20.8.1.8s.8.2 1.6.2c.3 0 .6 0 .8-.1a.6.6 0 0 0 .4-.4c.067-.067.1-.134.1-.2.1.5.1.9-.1 1.2-.067.133-.2.233-.4.3-.2.1-.5.1-.8.1-.8 0-1.6-.2-1.6-.2l-.1-.8-.4-.7s.1-.2.3-.4l.1.2Z" opacity=".2"/>
  <path fill="#A48AC0" stroke="#050505" stroke-linecap="round" stroke-linejoin="round" stroke-width=".4" d="M15 24.2c-.2.066-.367.066-.5 0-.3-.1-.6-.4-.8-.8l-.1-.1v-.1l-.1-.1v-.2h-.1v-.4c-.1-.4-.1-.8 0-1.1a.96.96 0 0 1 .5-.4c.2-.1.5-.1.8-.1.8 0 1.6.2 1.6.2l.1.8.4.7s-.5.7-1.1 1.2c-.2.2-.4.3-.7.4Z"/>
  <path fill="#050505" d="M13.4 21.4c0-.067.033-.1.1-.1v.4h.1v.2l.1.1v.1l.1.1c.2.4.5.7.8.8.133.066.3.066.5 0 .3-.1.5-.2.7-.4l.6-.6.4.6s-.5.7-1.1 1.2c-.2.2-.4.3-.7.4-.2.066-.367.066-.5 0-.3-.1-.6-.4-.8-.8l-.1-.1v-.1l-.1-.1v-.2h-.1v-.4c-.1-.4-.1-.8 0-1.1Z" opacity=".2"/>
  <path fill="#A48AC0" stroke="#050505" stroke-linecap="round" stroke-linejoin="round" stroke-width=".4" d="M15.6 20.2c-.3.2-.5.5-.4.9l.8 2.1c.1.3.5.5.8.4l.7-.3c.3-.1.5-.5.3-.8l-.7-2.1c-.1-.3-.5-.5-.8-.4l-.7.2Z"/>
  <path fill="#050505" d="m15.4 20.3.7 1.8c.1.3.5.5.8.4l.7-.3.1-.1.1.4c.2.3 0 .7-.3.8l-.7.3c-.3.1-.7-.1-.8-.4l-.8-2.1c-.1-.3 0-.6.2-.8Z" opacity=".2"/>
  <path fill="#FEFEFE" stroke="#050505" stroke-width=".4" d="M35.9 23.2s1.3-2.1 3.8-.3c0 0-.6 1.9-2.1 1.7-1.6-.3-1.7-1.4-1.7-1.4Z"/>
  <path stroke="#050505" stroke-linecap="round" stroke-linejoin="round" stroke-width=".4" d="m40.3 21.8-.7 1.1"/>
  <path stroke="#050505" stroke-linecap="round" stroke-linejoin="bevel" stroke-width=".4" d="m39.6 21.8-.4.7"/>
  <path fill="#FEFEFE" stroke="#050505" stroke-width=".4" d="M29.3 23.2s-2-2.1-5.8-.3c0 0 .8 1.9 3.2 1.7 2.5-.3 2.6-1.4 2.6-1.4Z"/>
  <path stroke="#050505" stroke-linecap="round" stroke-linejoin="round" stroke-width=".4" d="m22.6 21.8 1 1.1"/>
  <path stroke="#050505" stroke-linecap="round" stroke-linejoin="bevel" stroke-width=".4" d="m23.7 21.8.6.7"/>
  <path fill="#905E36" stroke="#050505" stroke-width=".4" d="M39 23.3c0-.6-.5-1.1-1.2-1.1s-1.2.5-1.2 1.1c0 .6.5 1.1 1.2 1.1s1.2-.5 1.2-1.1Z"/>
  <path fill="#673B17" d="M36.6 23.3s.3-1.1 1.2-1.1c.9 0 1.2 1.1 1.2 1.1s-1.2-.8-2.4 0Z"/>
  <path fill="#050505" d="M38.3 23.3c0-.2-.2-.4-.5-.4s-.5.2-.5.4c0 .3.2.5.5.5s.5-.2.5-.5Z"/>
  <path fill="#FEFEFE" d="M37.7 22.9c0-.1-.1-.2-.3-.2-.2 0-.3.1-.3.2 0 .2.1.3.3.3.2 0 .3-.1.3-.3Z"/>
  <path stroke="#050505" stroke-width=".4" d="M39 23.3c0-.6-.5-1.1-1.2-1.1s-1.2.5-1.2 1.1c0 .6.5 1.1 1.2 1.1s1.2-.5 1.2-1.1Z"/>
  <path fill="#905E36" stroke="#050505" stroke-width=".4" d="M27.9 23.3c0-.6-.6-1.2-1.3-1.2-.7 0-1.3.6-1.3 1.2 0 .7.6 1.2 1.3 1.2.7 0 1.3-.5 1.3-1.2Z"/>
  <path fill="#673B17" d="M25.3 23.3s.3-1.2 1.3-1.2 1.3 1.2 1.3 1.2-1.3-.9-2.6 0Z"/>
  <path fill="#050505" d="M27.1 23.3c0-.3-.2-.5-.5-.5s-.5.2-.5.5.2.5.5.5.5-.2.5-.5Z"/>
  <path fill="#FEFEFE" d="M26.4 22.9c0-.2-.2-.3-.3-.3-.2 0-.4.1-.4.3 0 .2.2.3.4.3.1 0 .3-.1.3-.3Z"/>
  <path stroke="#050505" stroke-width=".4" d="M27.9 23.3c0-.6-.6-1.2-1.3-1.2-.7 0-1.3.6-1.3 1.2 0 .7.6 1.2 1.3 1.2.7 0 1.3-.5 1.3-1.2Z"/>
  <path stroke="#050505" stroke-linecap="round" stroke-linejoin="round" stroke-width=".4" d="M29.4 31.2c.8.6 2.8.6 3.5.5"/>
  <path stroke="#050505" stroke-linecap="round" stroke-width=".5" d="M36.3 20.8s1-.7 2.8-.5m-14.1.4s2-.5 3.6.1"/>
</svg>
