<svg xmlns="http://www.w3.org/2000/svg" width="136" height="156" fill="none" viewBox="0 0 136 156">
  <path fill="#332F56" d="m1 61.734 76.63 1.6-60.6 6.2 9.6 85.7-17.13-11.5-8.5-82Z"/>
  <path fill="#523E80" d="m49.5 57.734-49.5 4 16.83 6.7 60.8-5.1-28.13-5.6Z"/>
  <mask id="a" width="78" height="12" x="0" y="57" maskUnits="userSpaceOnUse" style="mask-type:alpha">
    <path fill="#523E80" d="m49.5 57.734-49.5 4 16.83 6.7 60.8-5.1-28.13-5.6Z"/>
  </mask>
  <g mask="url(#a)">
    <mask id="b" width="149" height="42" x="-71" y="27" maskUnits="userSpaceOnUse" style="mask-type:luminance">
      <path fill="#fff" d="m-66.51 37.704-3.99-10.22 148.17 35.81-61.06 5.29-83.12-30.88Z"/>
    </mask>
    <g mask="url(#b)">
      <path stroke="#7358A5" stroke-width=".4" d="m111.83 106.334-152.8-59.1m150.5 55.5-183.5-69.4m181.2 67.3-180.1-69.3m177.8 66.7-174.4-67.4m172.1 64.7-169.2-65.7m166.8 62.8-168.9-65m166.8 62.8-152.8-59.6m150.5 57-152.8-59.6m150.5 57-151.9-59.4m149.6 56.4-152.8-59m150.5 56.4-152.7-59.1m150.4 56.4-152.7-59m150.5 56.3-152.8-59m150.5 56.1-152.8-58.4m150.5 55.7-152.8-58.1m152 56-154.3-58.1m151.4 55.5-153.7-58.4m150.5 55.7-152.8-59m150.5 56.4-152.7-59.1"/>
    </g>
  </g>
  <path fill="#6A559A" d="m87.13 148.434-60.5 6.8-9.9-86.7 60.9-5.2 9.5 85.1Z"/>
  <path fill="#050505" d="m56.63 72.035-.1-.7v-.7c0-.2.067-.5.2-.9.067-.4.2-.767.4-1.1.2-.267.533-.534 1-.8.466-.267 1.033-.4 1.7-.4 1.4-.1 2.4.4 2.9.9.267.266.5.567.7.9l.3.9v.8c.067.8-.133 1.633-.6 2.5a10.8 10.8 0 0 1-1.7 2.2l2.7-.1.2 2.8-7.1.4-.1-2.5c1.7-1.7 2.8-2.9 3.2-3.7.2-.4.3-.7.3-.9.066-.134.1-.3.1-.5 0-.4 0-.6-.2-.7a.678.678 0 0 0-.5-.2c-.4.1-.5.3-.4 1v.6l-3 .2Z"/>
  <path fill="#050505" fill-rule="evenodd" d="M69.43 66.834c1.533-.066 2.7.4 3.5 1.4.733 1 1.166 2.367 1.3 4.1.066 1.667-.2 3.067-.8 4.2-.667 1.067-1.767 1.634-3.3 1.7-1.6.067-2.767-.4-3.5-1.4-.8-.933-1.234-2.266-1.3-4-.134-1.733.133-3.133.8-4.2.666-1.066 1.767-1.666 3.3-1.8Zm.2 2.9c-.334 0-.567.067-.7.2-.2.2-.333.467-.4.8-.067.267-.1.534-.1.8v1.1c.066.4.1.734.1 1 .067.267.133.567.2.9.133.334.3.567.5.7.133.134.367.2.7.2.333-.066.566-.166.7-.3.2-.2.333-.433.4-.7.067-.333.1-.633.1-.9v-1.1a6.28 6.28 0 0 1-.1-1 19.525 19.525 0 0 1-.2-.9 1.509 1.509 0 0 0-.5-.6c-.2-.133-.434-.2-.7-.2Z" clip-rule="evenodd"/>
  <path fill="#FEFEFE" d="M57.63 71.134v-.7c-.067-.266-.1-.5-.1-.7 0-.2.067-.5.2-.9.067-.4.2-.733.4-1 .2-.333.533-.6 1-.8.466-.266 1.033-.433 1.7-.5 1.4-.1 2.5.4 3 .9.2.267.4.6.6 1l.3.9c0 .2.033.434.1.7v.1c0 .734-.233 1.534-.7 2.4a9.801 9.801 0 0 1-1.7 2.3l2.7-.2.2 2.9-7.1.4-.1-2.6c1.7-1.6 2.8-2.9 3.2-3.7.2-.4.3-.666.3-.8.066-.2.1-.4.1-.6 0-.4 0-.5-.2-.7-.133-.133-.267-.166-.4-.1-.5 0-.5.3-.5.9v.7l-3 .1Z"/>
  <path fill="#FEFEFE" fill-rule="evenodd" d="M70.43 66.034c1.533-.133 2.7.3 3.5 1.3.8 1 1.233 2.367 1.3 4.1.133 1.734-.133 3.134-.8 4.2-.667 1.067-1.767 1.634-3.3 1.7-1.533.134-2.7-.3-3.5-1.3-.733-1-1.167-2.366-1.3-4.1-.067-1.666.2-3.066.8-4.2.666-1.066 1.767-1.633 3.3-1.7Zm.2 2.8c-.334 0-.567.1-.7.3-.2.134-.333.367-.4.7a4.62 4.62 0 0 0-.1.9v1c.067.467.1.834.1 1.1l.2.8c.133.334.3.567.5.7.2.134.433.2.7.2.333 0 .566-.1.7-.3.2-.133.333-.366.4-.7.067-.333.1-.633.1-.9v-1a8.262 8.262 0 0 1-.1-1.1l-.2-.8c-.133-.333-.3-.566-.5-.7-.2-.133-.433-.2-.7-.2Z" clip-rule="evenodd"/>
  <path fill="#1C1C1A" d="M52.583 62.386c.063 1.899-5.787 3.494-13.087 3.636-7.2.139-13.152-1.365-13.215-3.264.037-1.902 5.887-3.497 13.087-3.636 7.302-.042 13.252 1.362 13.215 3.264Z" opacity=".3"/>
  <path fill="#050505" d="M54.44 33.909c.047 1.4-1.216 2.542-2.615 2.588-1.403-.053-2.545-1.316-2.592-2.716.054-1.402 1.317-2.545 2.716-2.591 1.403.053 2.545 1.316 2.491 2.719Zm-23.117-.134c-.056 1.303-1.223 2.342-2.522 2.385-1.303-.057-2.442-1.22-2.385-2.522.057-1.303 1.12-2.439 2.523-2.385 1.302.057 2.438 1.12 2.384 2.522Z"/>
  <path fill="#050505" d="M59.961 31.424c-.037 1.903-1.686 3.458-3.588 3.421-2.002-.033-3.558-1.683-3.421-3.588.034-2.002 1.586-3.455 3.588-3.421 1.903.037 3.455 1.586 3.421 3.588ZM27.77 29.19c.666 1.98-.264 4.112-2.043 4.771-1.783.56-3.721-.577-4.487-2.553-.666-1.979.264-4.11 2.046-4.67 1.78-.66 3.718.477 4.484 2.453Z"/>
  <path fill="#050505" d="M59.94 21.72c-.205 8.912-8.975 16.006-19.489 15.755-10.614-.249-18.965-7.676-18.763-16.688.204-8.911 8.978-15.906 19.492-15.654 10.614.248 18.964 7.675 18.76 16.587Z"/>
  <path stroke="#3F1D13" stroke-width=".5" d="M27.48 32.502c-.674.822-.538 1.918.282 2.492.723.676 1.819.54 2.492-.283m-6.832-6.877c-1.376.746-1.92 2.465-1.077 3.738.746 1.376 2.465 1.919 3.838 1.073m29.477-4.179c-1.372.846-1.919 2.465-1.176 3.74.743 1.277 2.458 1.72 3.734.977m-7.026 2.335c1.01.266 2.089-.37 2.356-1.38"/>
  <path fill="#803531" stroke="#050505" stroke-linecap="round" stroke-linejoin="round" stroke-width=".4" d="M48.593 59.717s-1.652-4.548-1.995-5.837c-.453-1.586-1.669-2.046-2.758-1.71-1.093.237-1.766 1.06-1.307 2.845.456 1.686 1.795 5.844 1.795 5.844.686 2.579 5.15 1.43 4.264-1.142Z"/>
  <path fill="#050505" d="M45.414 60.423c.543 1.283 2.848 1.406 1.659 1.746-1.093.236-2.406-.12-2.745-1.31 0 0-1.339-4.158-1.795-5.844-.459-1.785.214-2.608 1.307-2.845 1.09-.336 2.305.124 2.758 1.71.343 1.29-2.552 1.485-2.316 2.578.22.593.7 2.979 1.132 3.965Z" opacity=".4"/>
  <path fill="#803531" d="M48.632 60.916c.217.493.55 1.483 1.972 2.136l-6.306-.091.03-2.102"/>
  <path stroke="#050505" stroke-linecap="round" stroke-linejoin="round" stroke-width=".4" d="M48.632 60.916c.217.493.55 1.483 1.972 2.136l-6.306-.091.03-2.102"/>
  <path fill="#050505" d="M45.528 60.82c.03.899-.05 1.502 1.471 2.152l-2.701-.011.03-2.102" opacity=".4"/>
  <path fill="#EE4963" stroke="#050505" stroke-linecap="round" stroke-linejoin="round" stroke-width=".4" d="M43.795 62.878c.002.066.036.098.103.096l7.01.168c.066-.002.098-.037.096-.103l-.013-.4c-.003-.067-.037-.099-.104-.097l-7.01-.167c-.066.002-.098.036-.096.103l.014.4Zm3.392-3.315s.073-.803.673-.823c.3-.01 1.102.064 1.302.057.4-.013.02.6-.073.803-.09.303-.173.806.036 1.1l.633.98-.786.425-1.65-1.446-.135-1.096Z"/>
  <path fill="#F69226" stroke="#050505" stroke-linecap="round" stroke-linejoin="round" stroke-width=".4" d="M43.878 62.375s.057-1.303.047-1.603c-.013-.4.28-.61.583-.52.4-.013.71.277 1.6-.053.689-.323.786-.426 1.079-.636.396-.113.403.087.516.483l.123.697 1.34 1.156.019.6-5.307-.124Z"/>
  <path fill="#FEFEFE" stroke="#050505" stroke-linecap="round" stroke-linejoin="round" stroke-width=".4" d="M50.887 62.542c-.006-.2-.826-.772-1.129-.862-.8.026-1.273.842-1.273.842l2.402.02Z"/>
  <path stroke="#050505" stroke-linecap="round" stroke-linejoin="round" stroke-width=".4" d="M47.53 60.852c.286-.41 1.282-.542 1.689-.356m-1.276.744c.386-.414 1.186-.44 1.489-.35m-.976.733c.386-.413.986-.433 1.292-.243"/>
  <path fill="#EE4963" stroke="#050505" stroke-linecap="round" stroke-linejoin="round" stroke-width=".4" d="M46.034 61.003c.5-.017.803.073 1.212.36l1.24 1.16-.903-.07-.723-.677c-.138-.13-.408-.22-.81-.274-.2.007-2.102-.03-2.102-.03l-.017-.5s1.903.037 2.103.03Z"/>
  <path fill="#803531" stroke="#050505" stroke-linecap="round" stroke-linejoin="round" stroke-width=".4" d="M31.372 59.387s1.85-4.563 2.31-5.78c.446-1.615 1.736-1.958 2.845-1.695 1.013.367 1.642 1.246 1.099 2.965-.444 1.716-2.11 5.774-2.11 5.774-.716 2.525-5.164 1.171-4.144-1.264Z"/>
  <path fill="#050505" d="M34.5 60.184c-.66 1.223-2.958 1.299-1.746 1.659 1.11.263 2.402.02 2.762-1.192 0 0 1.667-4.058 2.11-5.774.543-1.719-.086-2.598-1.099-2.965-1.11-.263-2.398.08-2.845 1.696-.46 1.216 2.451 1.52 2.088 2.632-.18.606-.803 2.928-1.27 3.944Z" opacity=".4"/>
  <path fill="#803531" d="M31.209 60.493c-.184.507-.55 1.52-2.033 2.069l6.31.19.03-2.101"/>
  <path stroke="#050505" stroke-linecap="round" stroke-linejoin="round" stroke-width=".4" d="M31.209 60.493c-.184.507-.55 1.52-2.033 2.069l6.31.19.03-2.101"/>
  <path fill="#050505" d="M34.413 60.587c-.173.806-.15 1.506-1.632 2.055l2.705.11.03-2.101" opacity=".4"/>
  <path fill="#EE4963" stroke="#050505" stroke-linecap="round" stroke-linejoin="round" stroke-width=".4" d="M35.982 62.637c.002.066-.029.134-.093.203l-7.01-.168c-.068-.065-.104-.13-.106-.197l-.01-.3c-.004-.133.027-.2.093-.203l7.01.168c.135.062.204.127.206.193l-.09.304Zm-3.214-3.396s-.026-.8-.63-.88l-1.299.044c-.4.013-.083.503.027.8.106.196.126.796-.067 1.002l-.766 1.026.912.37 1.66-1.256.163-1.106Z"/>
  <path fill="#F69226" stroke="#050505" stroke-linecap="round" stroke-linejoin="round" stroke-width=".4" d="M35.866 62.14s.06-1.203.047-1.602c.09-.303-.217-.493-.52-.583-.4.013-.79.326-1.602-.047-.61-.28-.716-.477-1.023-.667-.406-.186-.4.014-.486.417l-.177.706-1.463 1.149.017.5 5.207.127Z"/>
  <path fill="#FEFEFE" stroke="#050505" stroke-linecap="round" stroke-linejoin="round" stroke-width=".4" d="M28.856 61.972c.094-.203.877-.729 1.177-.739.802.074 1.329.857 1.329.857l-2.506-.118Z"/>
  <path stroke="#050505" stroke-linecap="round" stroke-linejoin="round" stroke-width=".4" d="M32.408 60.454c-.313-.39-1.32-.557-1.716-.444m1.23.86c-.314-.39-1.216-.46-1.516-.45m1.029.866c-.316-.49-1.02-.566-1.316-.456"/>
  <path fill="#EE4963" stroke="#050505" stroke-linecap="round" stroke-linejoin="round" stroke-width=".4" d="M33.817 60.707c-.5.017-.8.026-1.19.34l-1.265 1.042.9-.03.779-.626c.129-.137.393-.213.793-.226.2-.007 2.105.13 2.105.13l-.02-.6s-1.802-.04-2.102-.03Z"/>
  <path fill="#803531" stroke="#050505" stroke-linecap="round" stroke-linejoin="round" stroke-width=".4" d="M57.085 35.222c-2.299 3.078-5.141 4.873-8.093 6.372-3.052 1.502-5.093-2.733-2.138-4.132 3.052-1.502 4.328-2.244 6.44-4.916.48-.616 1.863-1.162 3.099-.102 1.232.96 1.172 2.162.692 2.778Z"/>
  <path fill="#050505" d="M57.085 35.222c-2.299 3.078-5.141 4.873-8.093 6.372-3.052 1.502-5.093-2.733-2.138-4.132 1.18-.64 2.878 2.306 4.06 1.767 1.873-.863 4.206-2.941 5.552-4.587.483-.516.553-1.419-.073-2.199 1.232.96 1.172 2.163.692 2.779Z" opacity=".4"/>
  <path fill="#803531" d="M54.277 35.015c.923.67 2.122.63 2.698-.09.577-.719.337-1.912-.586-2.581-.925-.77-2.125-.73-2.698.089-.576.72-.337 1.912.586 2.582Z"/>
  <path fill="#803531" d="M53.198 32.65c.576-.72 1.723-2.359 2.303-2.978.88-.63 1.792-.26 2.618.513 1.026.766 1.462 1.853.596 2.882l-.67.923-.96 1.232"/>
  <path stroke="#050505" stroke-linecap="round" stroke-linejoin="round" stroke-width=".4" d="M53.198 32.65c.576-.72 1.723-2.359 2.303-2.978.88-.63 1.792-.26 2.618.513 1.026.766 1.462 1.853.596 2.882l-.67.923-.96 1.232"/>
  <path fill="#803531" d="m53.785 32.23-.037-1.1c.083-.503.473-.816.873-.83.4-.012.61.28.716.477.113.397.12.597.12.597"/>
  <path stroke="#050505" stroke-linecap="round" stroke-linejoin="round" stroke-width=".4" d="m53.785 32.23-.037-1.1c.083-.503.473-.816.873-.83.4-.012.61.28.716.477.113.397.12.597.12.597"/>
  <path fill="#050505" d="M55.437 30.774s.406.187.42.586c.013.4-.074.803.13.897.206.193 1.035 1.066 1.432.953.296-.11 1.563-1.153 1.036-1.936-.423-.686-1.862-1.839-2.545-1.316-.786.426-.473.816-.473.816Z" opacity=".2" style="mix-blend-mode:multiply"/>
  <path fill="#803531" stroke="#050505" stroke-linecap="round" stroke-linejoin="round" stroke-width=".4" d="M23.84 34.423c2.105 3.132 4.873 5.142 7.828 6.745 2.958 1.703 5.221-2.475 2.267-4.078-2.955-1.603-4.184-2.462-6.176-5.198-.52-.583-1.839-1.14-3.108-.197-1.27.943-1.23 2.142-.81 2.728Z"/>
  <path fill="#050505" d="M23.84 34.423c2.105 3.132 4.873 5.142 7.828 6.744 2.958 1.703 5.221-2.474 2.266-4.077-1.119-.563-2.928 2.198-4.147 1.638-1.833-.94-4.005-3.069-5.264-4.828-.42-.586-.549-1.482.127-2.205-1.269.942-1.23 2.142-.81 2.728Z" opacity=".4"/>
  <path fill="#803531" d="M26.64 34.33c-.98.633-2.083.57-2.71-.21-.526-.783-.162-1.895.714-2.625.98-.633 2.186-.473 2.709.21.526.783.266 1.993-.714 2.626Z"/>
  <path fill="#803531" d="M27.762 31.992c-.423-.686-1.582-2.449-2.101-3.032-.923-.67-1.713-.343-2.592.286-1.073.836-1.64 1.856-.8 3.028l.629.88.943 1.27"/>
  <path stroke="#050505" stroke-linecap="round" stroke-linejoin="round" stroke-width=".4" d="M27.762 31.992c-.423-.686-1.582-2.449-2.101-3.032-.923-.67-1.713-.343-2.592.286-1.073.836-1.64 1.856-.8 3.028l.629.88.943 1.27"/>
  <path fill="#050505" d="M25.697 30.06s-.393.213-.38.612c-.087.404-.076.703-.27.91-.196.106-1.07.936-1.376.746-.403-.087-1.539-1.15-1.062-1.866.576-.72 1.939-1.865 2.658-1.289.72.577.43.886.43.886Z" opacity=".2" style="mix-blend-mode:multiply"/>
  <path fill="#F69226" stroke="#050505" stroke-linecap="round" stroke-linejoin="round" stroke-width=".4" d="M40.165 52.993c-7.41-.154-7.659-1.647-7.958-4.639-.28-2.392.81-8.731 1.348-10.65.893-3.232 3.455-4.417 7.06-4.337 3.605.08 6.05 1.4 6.859 4.675.462 1.886 1.174 8.266.854 10.678-.5 3.018-.854 4.43-8.163 4.273Z"/>
  <path fill="#EE4963" stroke="#050505" stroke-linecap="round" stroke-linejoin="round" stroke-width=".4" d="M35.636 43.138c-.68-2.38-1.475-5.254-.785-8.58l1.813.34c-.6 3.022.185 5.598.755 7.68l-1.783.56Z"/>
  <path fill="#EE4763" stroke="#050505" stroke-linecap="round" stroke-linejoin="round" stroke-width=".4" d="m40.168 53.093-1.303 2.945c-5.646-1.314-7.392-2.657-7.392-2.657s.11-2.705.43-5.117c.407.187 2.12.53 2.12.53l2-6.07s2.521.617 4.323.657c1.803.04 4.388-.445 4.388-.445l1.705 6.147s1.692-.256 2.089-.37c.18 2.396.275 5.294.275 5.294s-1.862 1.162-7.642 1.854l-.993-2.768Z"/>
  <path fill="#050505" d="m40.168 53.093-1.303 2.944a5.3 5.3 0 0 0-1.11-.263s1.494-3.251 2.397-3.181c.9-.03 2.105 3.132 2.105 3.132a5.62 5.62 0 0 1-1.096.136l-.993-2.768Zm8.36-4.38c.18 2.396.276 5.294.276 5.294s-.49.317-1.876.763c.573-.82 1.12-2.439.604-5.924l.996-.133Z" opacity=".4"/>
  <path stroke="#6ECFF5" stroke-dasharray=".8 .8" stroke-linecap="round" stroke-linejoin="round" stroke-width=".4" d="M48.384 53.42s-1.973.867-7.346 1.745"/>
  <path fill="#050505" d="M31.904 48.264c-.32 2.412-.43 5.117-.43 5.117s.512.383 1.731.943c-.43-.886-.979-2.369-.292-5.794l-1.01-.266Z" opacity=".4"/>
  <path stroke="#6ECFF5" stroke-dasharray=".8 .8" stroke-linecap="round" stroke-linejoin="round" stroke-width=".4" d="M31.956 52.865s1.936 1.036 7.086 2.466"/>
  <path fill="#803531" stroke="#050505" stroke-linecap="round" stroke-linejoin="round" stroke-width=".4" d="M36.094 35.818c-.02 2.402 1.948 4.438 4.35 4.458 2.405.12 4.441-1.848 4.561-4.253.02-2.402-1.948-4.438-4.353-4.558a4.528 4.528 0 0 0-4.558 4.353Z"/>
  <path fill="#EE4963" stroke="#050505" stroke-linecap="round" stroke-linejoin="round" stroke-width=".4" d="M45.047 43.326c.824-2.329 1.73-5.16 1.218-8.545l-1.79.359c.5 2.985-.417 5.517-1.147 7.642l1.72.544Z"/>
  <path fill="#6ECFF5" stroke="#050505" stroke-linecap="round" stroke-linejoin="round" stroke-width=".4" d="M45.34 43.116c.02.6-.463 1.116-1.162 1.14a1.301 1.301 0 0 1-1.143-1.264c-.02-.6.563-1.119 1.163-1.139.703.077 1.22.56 1.142 1.263Zm-10.014-.269c.02.6.54 1.183 1.14 1.163.702.077 1.185-.44 1.262-1.142-.02-.6-.54-1.183-1.139-1.163-.7.023-1.183.54-1.263 1.142Z"/>
  <path fill="#050505" d="M35.653 43.637c.516.483 1.219.56 1.702.044 0 0-.896.13-1.313-.357-.416-.487-.343-1.29-.343-1.29-.486.417-.46 1.217-.046 1.603Zm9.414.288c-.486.417-1.286.443-1.702-.043 0 0 .803.073 1.29-.343.486-.416.456-1.316.456-1.316.416.486.343 1.29-.044 1.702Z" opacity=".4"/>
  <path stroke="#6ECFF5" stroke-linecap="round" stroke-linejoin="round" stroke-width=".4" d="m45.146 49.326.297-.11-.01-.3"/>
  <path stroke="#6ECFF5" stroke-dasharray=".8 .8" stroke-linecap="round" stroke-linejoin="round" stroke-width=".4" d="m45.21 48.223-.79-2.676"/>
  <path stroke="#6ECFF5" stroke-linecap="round" stroke-linejoin="round" stroke-width=".4" d="m44.307 45.15-.11-.296-.3.01"/>
  <path stroke="#6ECFF5" stroke-dasharray=".8 .8" stroke-linecap="round" stroke-linejoin="round" stroke-width=".4" d="m43.198 44.888-2.905-.104-3.205-.094"/>
  <path stroke="#6ECFF5" stroke-linecap="round" stroke-linejoin="round" stroke-width=".4" d="m36.788 44.7-.3.01-.19.306"/>
  <path stroke="#6ECFF5" stroke-dasharray=".8 .8" stroke-linecap="round" stroke-linejoin="round" stroke-width=".4" d="m36.122 45.723-.913 2.632"/>
  <path stroke="#6ECFF5" stroke-linecap="round" stroke-linejoin="round" stroke-width=".4" d="m35.119 48.657-.19.307.403.087"/>
  <path stroke="#6ECFF5" stroke-dasharray=".8 .8" stroke-linecap="round" stroke-linejoin="round" stroke-width=".4" d="m35.941 49.33 4.254 1.56 4.655-1.455"/>
  <path fill="#050505" d="M40.424 39.677c-2.106-.13-3.218-.494-4.544-1.25-1.02-.567-1.703-.044-1.953 1.465-.346 1.613-1.44 7.852-.534 8.023.403.086 1.666-4.058 2.26-4.278l-1.63 5.157-1.816-.44c-.28-2.392.81-8.731 1.348-10.65.893-3.232 3.455-4.417 7.06-4.337 3.605.08 6.05 1.4 6.859 4.675.462 1.886 1.174 8.266.854 10.678l-1.89.363-1.37-5.158c.506.184 1.648 4.448 2.044 4.335.896-.13.088-6.406-.169-8.099-.146-1.396-.865-1.972-1.948-1.436-1.283.543-2.469.982-4.571.952Z" opacity=".4"/>
  <path fill="#803531" stroke="#050505" stroke-linecap="round" stroke-linejoin="round" stroke-width=".4" d="M27.21 24.406c-.147 7.61 3.65 13.487 13.177 14.171 9.425.588 13.71-5.957 13.858-13.566.148-7.61-5.764-13.917-13.173-14.071-7.51-.152-13.714 5.857-13.862 13.466Z"/>
  <path fill="#050505" d="m29.61 24.327.432.986S27.935 37.19 41.187 38.551c.103.097-.106-.197-.7.023l-.1.004c-9.527-.685-13.324-6.562-13.176-14.172.03-2.102.567-4.02 1.41-5.75.546 1.383.988 5.671.988 5.671Z" opacity=".4"/>
  <path fill="#FEFEFE" d="M43.08 29.283s.874-3.831 5.728-2.291c0 0 0 3.002-2.696 3.191-2.492.283-3.031-.9-3.031-.9Zm-5.396.179s-.43-3.888-5.5-2.92c0 0-.2 3.009 2.318 3.525 2.519.517 3.182-.605 3.182-.605Z"/>
  <path fill="#050505" d="M38.63 30.831s.536 1.083 1.739 1.143c1.199-.04 1.959-1.266 1.959-1.266s-1.28.643-1.883.563c-.6.02-1.815-.44-1.815-.44ZM52.453 7.16c-.034 2.002-1.683 3.558-3.785 3.527-2.102-.03-3.758-1.676-3.724-3.678.037-1.902 1.786-3.461 3.888-3.43 2.102.03 3.758 1.675 3.621 3.581Zm-17.117-.233c-.047 1.603-1.407 2.848-3.012 2.702-1.603-.047-2.845-1.307-2.798-2.91.047-1.602 1.406-2.847 3.009-2.8 1.602.046 2.848 1.406 2.8 3.008Z"/>
  <path fill="#050505" d="M58.182 10.973c-.117 2.505-2.056 4.37-4.458 4.35-2.405-.12-4.37-2.056-4.253-4.562.02-2.402 2.06-4.27 4.461-4.25 2.406.12 4.27 2.06 4.25 4.462Zm-30.59 3.815c-.117 2.505-2.153 4.474-4.558 4.354-2.502-.018-4.37-2.057-4.353-4.559.02-2.402 2.056-4.37 4.561-4.253 2.402.02 4.37 2.056 4.35 4.458ZM46.423 6.36c-.1 3.005-3.023 5.403-6.627 5.322-3.505-.084-6.39-2.59-6.29-5.594.101-3.005 3.023-5.404 6.628-5.323 3.505.084 6.39 2.59 6.29 5.595Z"/>
  <path fill="#050505" d="M32.124 9.635c-.02 2.402-2.06 4.271-4.462 4.25-2.405-.12-4.27-2.06-4.25-4.461.12-2.405 2.06-4.27 4.462-4.25 2.402.02 4.37 2.056 4.25 4.461ZM27.048 22.51c-.014 2.602-2.143 4.774-4.549 4.654-2.502-.018-4.477-2.253-4.363-4.859.01-2.701 2.043-4.77 4.545-4.753 2.505.117 4.477 2.253 4.367 4.958Zm36.579 1.79c-.11 2.704-2.14 4.873-4.641 4.855-2.406-.12-4.381-2.356-4.37-5.057.106-2.805 2.136-4.974 4.641-4.857 2.502.017 4.377 2.256 4.37 5.058Z"/>
  <path fill="#050505" d="M61.95 15.95c-.028 2.203-1.867 4.065-4.172 3.941-2.302-.024-4.064-1.866-4.04-4.168.126-2.206 1.966-4.068 4.271-3.944 2.202.027 3.964 1.87 3.94 4.172Zm-18.564 1.416c-.04 1.802-1.593 3.255-3.395 3.214-1.803-.04-3.251-1.493-3.211-3.295.04-1.802 1.593-3.255 3.395-3.215 1.803.04 3.251 1.494 3.211 3.296Z"/>
  <path fill="#050505" d="M49.606 17.86c-.037 1.903-1.59 3.355-3.492 3.318-1.802-.04-3.255-1.593-3.218-3.495.04-1.803 1.593-3.255 3.396-3.214 1.902.037 3.354 1.59 3.314 3.391Z"/>
  <path fill="#050505" d="M54.596 20.496c-.137 1.906-1.59 3.355-3.492 3.318-1.802-.04-3.255-1.593-3.218-3.496.04-1.802 1.593-3.254 3.396-3.214 1.802.04 3.354 1.59 3.314 3.392Z"/>
  <path fill="#050505" d="M56.644 24.931c-.053 1.403-1.216 2.542-2.619 2.488-1.499.05-2.642-1.213-2.588-2.615.054-1.403 1.217-2.542 2.716-2.592 1.402.054 2.545 1.317 2.491 2.72Zm-26.445-.924c-.054 1.402-1.216 2.541-2.719 2.491-1.402-.053-2.542-1.216-2.488-2.619.05-1.502 1.213-2.641 2.616-2.588 1.502.05 2.641 1.213 2.591 2.716Z"/>
  <path fill="#050505" d="M33.098 20.91c-.06 1.202-1.03 2.134-2.132 2.071-1.203-.06-2.136-1.03-2.072-2.133.06-1.202 1.03-2.135 2.132-2.071 1.203.06 2.136 1.03 2.072 2.132Z"/>
  <path fill="#050505" d="M37.803 17.951c-.044 1.703-1.5 3.052-3.102 3.005-1.703-.044-3.052-1.5-3.005-3.102.044-1.703 1.4-3.048 3.102-3.005 1.703.044 3.048 1.4 3.005 3.102Z"/>
  <path fill="#050505" d="m27.35 25.602 5.782-6.695 5.867-1.095 6.223.594 4.197 2.862 2.965 1.903 1.685 2.546 3.219-2.508 1.07-6.94-8.274-8.13-8.742-1.11-9.59.417-7.081 6.739-2.444 7.785 5.123 3.632Z"/>
  <path stroke="#3F1D13" stroke-width=".5" d="M29.613 21.425c-.906-.17-1.632-.947-1.465-1.953.07-.902.946-1.632 1.852-1.462 1.003.067 1.632.947 1.562 1.85m22.63 6.553c.903.07 1.779-.66 1.75-1.559.066-1.002-.66-1.779-1.563-1.849-1.003-.067-1.779.66-1.846 1.662M35.466 4.822c.46-1.216 1.626-2.255 3.012-2.701 1.983-.566 4.108.163 5.054 1.533.277.324.49.684.636 1.08"/>
  <path stroke="#3F1D13" stroke-width=".4" d="M42.581 8.188c-.136-1.096-1.162-1.863-2.158-1.73-.596.12-.986.433-1.276.743"/>
  <path stroke="#3F1D13" stroke-width=".5" d="M27.317 6.493c-1.593.253-2.745 1.692-2.49 3.384.254 1.593 1.793 2.742 3.385 2.49m4.658-1.356c1.602.047 2.962-1.199 3.109-2.804.047-1.603-1.2-2.962-2.802-3.009-1.605-.147-2.965 1.099-3.112 2.704"/>
  <path stroke="#3F1D13" stroke-width=".4" d="M52.628 15.459a3.733 3.733 0 0 0-4.67-2.046c-1.88.662-2.81 2.794-2.146 4.673"/>
  <path stroke="#3F1D13" stroke-width=".5" d="M58.814 17.956c1.286-.443 1.943-1.766 1.6-3.055-.443-1.286-1.766-1.943-3.055-1.6"/>
  <path stroke="#3F1D13" stroke-width=".4" d="M43.584 11.256c-2.335-1.023-5.2.073-6.224 2.408"/>
  <path stroke="#3F1D13" stroke-width=".5" d="M61.211 26.88c1.446-1.648 1.267-4.043-.279-5.393"/>
  <path stroke="#3F1D13" stroke-width=".4" d="M26.95 25.616c1.396-.147 2.356-1.38 2.31-2.779"/>
  <path stroke="#3F1D13" stroke-width=".5" d="M49.425 21.468c.227.793 1.043 1.266 1.836 1.04.693-.223 1.166-1.04.94-1.832m-18.95-1.173c1.516.45 2.989-.399 3.439-1.915.45-1.515-.403-3.088-1.819-3.542a2.834 2.834 0 0 0-3.538 1.919"/>
  <path stroke="#3F1D13" stroke-width=".4" d="M57.372 16.702c-1.423-.653-3.105-.097-3.758 1.326-.753 1.425-.197 3.108 1.225 3.76 1.426.754 3.105.098 3.761-1.224m-35.36-1.229c-1.076.736-1.326 2.245-.59 3.321.736 1.077 2.245 1.327 3.322.59 1.076-.735 1.326-2.244.59-3.32"/>
  <path stroke="#3F1D13" stroke-width=".5" d="M53.907 14.816c1.993-.266 3.432-2.115 3.066-4.104-.266-1.992-2.115-3.431-4.107-3.165a3.764 3.764 0 0 0-3.063 4.204m-5.444 4.783c-.763 1.126-.417 2.515.61 3.281 1.022.667 2.514.417 3.178-.706m-26.792.689a3.12 3.12 0 0 0-1.97 3.967c.553 1.583 2.285 2.526 3.868 1.973M19.98 14.54c-.044 1.703 1.302 3.059 2.904 3.106 1.602.047 2.959-1.299 3.006-2.901.043-1.703-1.203-3.062-2.905-3.106-1.602-.047-2.958 1.3-3.005 2.902Z"/>
  <path stroke="#3F1D13" stroke-width=".4" d="M28.848 13.446c.92.57 2.106.13 2.576-.786.47-.916.13-2.105-.786-2.575-.916-.47-2.106-.13-2.572.886m10.216 6.364c-.066 1.003.763 1.876 1.766 1.943m2.039-1.868c-.033-1-.863-1.873-1.865-1.94"/>
  <path stroke="#3F1D13" stroke-width=".5" d="M45.666 7.686c-.046 1.602 1.2 2.962 2.802 3.008 1.702.044 3.061-1.202 3.105-2.904-.053-1.6-1.298-2.959-2.9-3.006-1.603-.047-2.96 1.3-3.007 2.902Z"/>
  <path fill="#855226" d="M47.152 28.347c.13.896-.543 1.72-1.343 1.746a1.58 1.58 0 0 1-1.652-1.546c-.03-.9.647-1.623 1.446-1.65.797-.126 1.52.55 1.55 1.45Z"/>
  <path fill="#050505" d="M46.156 28.48c.01.3-.183.507-.483.517-.203-.093-.41-.287-.42-.587-.01-.3.183-.506.483-.516.203.093.41.287.42.587Z"/>
  <path fill="#FEFEFE" d="M45.337 27.907c.003.1-.19.307-.294.21-.2.007-.303-.09-.31-.29-.003-.1.19-.306.29-.31.204.094.307.19.313.39Z"/>
  <path fill="#855226" d="M33.736 28.092c-.17.906.356 1.689 1.163 1.862.906.17 1.685-.456 1.756-1.359.17-.906-.357-1.689-1.163-1.862-.803-.074-1.686.456-1.756 1.359Z"/>
  <path fill="#050505" d="M34.742 28.259c-.09.303.12.596.42.586.2-.006.493-.216.487-.416-.01-.3-.12-.596-.42-.587-.3.01-.493.217-.486.417Z"/>
  <path fill="#FEFEFE" d="M35.629 27.83c.003.1.11.296.31.29.1-.004.196-.108.29-.31-.004-.1-.11-.297-.31-.29-.1.003-.297.11-.29.31Z"/>
  <path stroke="#050505" stroke-linecap="round" stroke-linejoin="round" stroke-width=".5" d="m31.135 25.077 1.146 1.363s4.684-.556 5.403 3.022"/>
  <path fill="#BB8653" d="m32.438 25.133.639 1.18-.64-1.18Z"/>
  <path stroke="#050505" stroke-linecap="round" stroke-linejoin="round" stroke-width=".5" d="m32.438 25.133.639 1.18m16.987-.663-1.26 1.242s-4.64-1.147-5.723 2.39"/>
  <path fill="#BB8653" d="m48.758 25.492-.76 1.227.76-1.227Z"/>
  <path stroke="#050505" stroke-linecap="round" stroke-linejoin="round" stroke-width=".5" d="m48.758 25.492-.76 1.227"/>
  <path stroke="#050505" stroke-linecap="round" stroke-linejoin="round" stroke-width=".6" d="M44.038 24.949s2.365-1.08 4.037 1.067m-10.84-1.042s-2.245-1.326-4.081.636"/>
  <path fill="#050505" d="M36.93 33.89c.37-.914 1.883-.563 2.789-.393.203.093.606.18.906.17.2-.007.6-.02.896-.13.896-.13 2.486-.483 2.818.507.333.99-.5 3.018-3.398 3.114l-.4.013a.888.888 0 0 0-.403-.086c-2.908-.204-3.674-2.18-3.208-3.196Z"/>
  <path fill="#803531" d="m26.813 30.523-1.116-.464c-.403-.086-.896.13-.983.533-.186.407.023.7.227.793.31.29.51.284.51.284"/>
  <path stroke="#050505" stroke-linecap="round" stroke-linejoin="round" stroke-width=".4" d="m26.813 30.523-1.116-.464c-.403-.086-.896.13-.983.533-.186.407.023.7.227.793.31.29.51.284.51.284"/>
  <path fill="#EC252D" d="M25.43 76.634c-.2 0-.3-.1-.3-.3 0-.2.1-.3.3-.3.2 0 .3.2.3.3 0 .2-.2.3-.3.3Z"/>
  <g opacity=".7">
    <path fill="#FEFEFE" d="M42.93 125.735s-.8-.701-.7-.701c0-.1.6-.2.7-.2.1 0 .3.801.3.801l-.3.1Z"/>
    <path stroke="#FEFEFE" stroke-linecap="round" stroke-linejoin="round" stroke-width=".4" d="M42.93 125.735s-.8-.701-.7-.701c0-.1.6-.2.7-.2.1 0 .3.801.3.801l-.3.1Z"/>
    <path fill="#FEFEFE" d="m42.63 122.034 1 2.401s.1.5.7.3c.7-.1 2.3-.5 2.3-.5s-.2-.3-.6-.3c-.4 0-.6 0-.9-.2-.4-.1-.9-.4-.9-.5-.1 0-.6-.4-.7-.6-.1-.1 0-.1-.4-.4-.4-.3-.5-.201-.5-.201Z"/>
    <path stroke="#FEFEFE" stroke-linecap="round" stroke-linejoin="round" stroke-width=".4" d="m42.63 122.034 1 2.401s.1.5.7.3c.7-.1 2.3-.5 2.3-.5s-.2-.3-.6-.3c-.4 0-.6 0-.9-.2-.4-.1-.9-.4-.9-.5-.1 0-.6-.4-.7-.6-.1-.1 0-.1-.4-.4-.4-.3-.5-.201-.5-.201Z"/>
    <path fill="#FEFEFE" d="M41.53 103.534c-.2.1-.2.401-.4.101-.1-.3-.5-.2-.5-.2l-.4.3s0 .199.1.299c.1.2.4.401.4.401h.1s-.3.2-.3.8c0 .6.1 1.2.1 1.2.1.1.3.8.3.8s0 .2-.1.4v.5s-1.2.6-1.3 1c-.1.3-.3.8-.3.8v.8c0 .1.1.5.1.5s.7.6.9.7c.1.1.6.2.7.2.2 0 1-.101 1-.101s.4.001.4.401c-.1.4-.1.6-.1.7-.1.1.1.1.1.1.1 0-.1.799-.2 1.099-.2.3-.5.701-.5.801 0 .2-.3.8-.3.8l-.1.599.3.5s.1.501 0 .601c-.1.1-.2.3-.3.3-.1-.1-.4-.2-.4-.2l-.2.2.2.099.1.201s-.2.8-.2 1v.7l.4.099.3.601-.4.3s.5-.001.7.099c.1.1.6.401.6.401l-.4.3-3.1.9s-.6-.201-.9-.801c-.2-.5-.2-1-.5-1-.3-.1-.5.101-.7.301-.2.1.1.2-.2.1-.3-.1-1-.9-1.1-1.3-.1-.3.1-1.4.1-1.5.1-.1.3-.301.2-.601-.1-.3-.7-2-.7-2.5-.1-.4 0-.399 0-.599v-.6c-.1-.3 0-.201-.2-.601-.2-.4-.2-.599-.3-.799-.1-.2-.3-.4-.4-.5 0-.1.3-.501.3-.701-.1-.1-.6-.5-.6-.5s.1-.199.2-.299c0-.1 0-.4-.1-.5 0-.1-.3-.1-.5-.1-.1 0-.2.199-.3-.101-.1-.3-.3-.9-.3-1-.1 0-.4-.299-.4-.399-.1-.1-.3-.001-.8-.601-.4-.6-.7-1.199-.6-1.299 0-.1.3-.6.3-.6s-1.2-2.4-1.3-2.5c0-.2 0-.6-.1-.7-.1-.1 0-.501 0-.601 0-.1-.3-1.1-.3-1.3.1-.2.2-.499.2-.599.1-.2-.9-1.4-1.3-2.4-.3-1 0-1 0-1.3.1-.2.2-.9.2-1.1-.1-.1 0-.3 0-.3s-.6-1-.7-1.8c-.1-.7.5-1.3-.2-2.3-.8-1-.8-.6-.9-1.1-.2-.4-1.2-1.6-1.3-1.8-.2-.1-.4-.6-.3-.7 0-.2.1-.2 0-.8-.1-.5.1-1.1.1-1.2 0 0-.5-.8-.6-1.2-.2-.4-.2-1.6-.1-1.8 0-.2.3-1.2.3-1.4-.1-.1-.2-1.1-.1-1.2 0-.1.4-.3.5-.5.1-.1.2 0-.1-.4-.3-.3-.7-.4-.7-.4s.4-.3.1-1c-.3-.8-.4-.8-.5-1.1-.1-.3-.1-.3-.1-.5-.1-.3-.3-.3-.4-.5 0-.1-.3 0 .2-.5.5-.4 1.1-1.2 1.2-1.4.1-.3.2-.5.1-.6-.1-.2-.2-1.2-.4-1.5-.3-.2.5-1.5.6-1.7.2-.2.2-.3.2-.3.1-.1.3 0 .6 0 .3-.1 1.6-.4 1.7-.5.1 0 .4.2.4.2l.8.7.3-1.6 1.7-.6s.7.6 1.3.8c.6.2 2.5 1.1 2.5 1.1l2.8.2 2.3.6h.9s.3.2.3.3c0 .1-.2 1.3-.3 1.6-.1.3-.3 2.2-.3 2.2s1-.1 1.3-.2c.2 0 2.6-.2 2.6-.2s.1-.3.2-.4c0-.1.7-.2.7-.2s.6-.8.6-1.1c.1-.2.4-.5.5-.8 0-.3-.1-1.1-.1-1.3 0-.1-.1-.2.3-.4.5-.2.7-.2.8.1.2.3.5.7.6 1 .1.3.3.6-.3 1.3-.6.6-2.1 2.3-2.1 2.3l-2.2 5.1.1.4s.2 2 .2 2.3c0 .3.1.9.1 1 .1.1.2.4.3.6 0 .1-.1.2-.2.4v.7c.1.2.3.8.3.9 0 0 .2.4.1.5-.1 0-.2.2-.4.3l1.5.6c.2-.1.8.1 1 .2.2.1.5.4.5.4l-.1.4s-.1.6.1.8c.3.2.8.3 1 .4.1 0 .2.1.2.1s.2.8-.1 1.3c-.2.6-.4 1.2-.4 1.3 0 .1-.2.5-.2.5s-1.2 1.6-2.6 2.2c-1.5.6-3.2.9-3.2.9l-.3.1s.1.3.2.5c0 .2.2.4.2.4s.3.2.4.3c.1.2 0 .4-.1.6-.1.2 0 .8.1.8 0 .1.4.7.4.7s-.1.3-.2.3c0 .1-.5.299-.5.299s.2.2-.2.3c-.5.2-2.2.2-2.3.2-.1-.1-.4.101-.4.101s-.2.1-.1.5c.1.3.4.8.6 1 .1.3.2.899.2.899s.2.101.2.201h.6l.3-.1"/>
    <path stroke="#FEFEFE" stroke-linecap="round" stroke-linejoin="round" stroke-width=".4" d="M41.53 103.534c-.2.1-.2.401-.4.101-.1-.3-.5-.2-.5-.2l-.4.3s0 .199.1.299c.1.2.4.401.4.401h.1s-.3.2-.3.8c0 .6.1 1.2.1 1.2.1.1.3.8.3.8s0 .2-.1.4v.5s-1.2.6-1.3 1c-.1.3-.3.8-.3.8v.8c0 .1.1.5.1.5s.7.6.9.7c.1.1.6.2.7.2.2 0 1-.101 1-.101s.4.001.4.401c-.1.4-.1.6-.1.7-.1.1.1.1.1.1.1 0-.1.799-.2 1.099-.2.3-.5.701-.5.801 0 .2-.3.8-.3.8l-.1.599.3.5s.1.501 0 .601c-.1.1-.2.3-.3.3-.1-.1-.4-.2-.4-.2l-.2.2.2.099.1.201s-.2.8-.2 1v.7l.4.099.3.601-.4.3s.5-.001.7.099c.1.1.6.401.6.401l-.4.3-3.1.9s-.6-.201-.9-.801c-.2-.5-.2-1-.5-1-.3-.1-.5.101-.7.301-.2.1.1.2-.2.1-.3-.1-1-.9-1.1-1.3-.1-.3.1-1.4.1-1.5.1-.1.3-.301.2-.601-.1-.3-.7-2-.7-2.5-.1-.4 0-.399 0-.599v-.6c-.1-.3 0-.201-.2-.601-.2-.4-.2-.599-.3-.799-.1-.2-.3-.4-.4-.5 0-.1.3-.501.3-.701-.1-.1-.6-.5-.6-.5s.1-.199.2-.299c0-.1 0-.4-.1-.5 0-.1-.3-.1-.5-.1-.1 0-.2.199-.3-.101-.1-.3-.3-.9-.3-1-.1 0-.4-.299-.4-.399-.1-.1-.3-.001-.8-.601-.4-.6-.7-1.199-.6-1.299 0-.1.3-.6.3-.6s-1.2-2.4-1.3-2.5c0-.2 0-.6-.1-.7-.1-.1 0-.501 0-.601 0-.1-.3-1.1-.3-1.3.1-.2.2-.499.2-.599.1-.2-.9-1.4-1.3-2.4-.3-1 0-1 0-1.3.1-.2.2-.9.2-1.1-.1-.1 0-.3 0-.3s-.6-1-.7-1.8c-.1-.7.5-1.3-.2-2.3-.8-1-.8-.6-.9-1.1-.2-.4-1.2-1.6-1.3-1.8-.2-.1-.4-.6-.3-.7 0-.2.1-.2 0-.8-.1-.5.1-1.1.1-1.2 0 0-.5-.8-.6-1.2-.2-.4-.2-1.6-.1-1.8 0-.2.3-1.2.3-1.4-.1-.1-.2-1.1-.1-1.2 0-.1.4-.3.5-.5.1-.1.2 0-.1-.4-.3-.3-.7-.4-.7-.4s.4-.3.1-1c-.3-.8-.4-.8-.5-1.1-.1-.3-.1-.3-.1-.5-.1-.3-.3-.3-.4-.5 0-.1-.3 0 .2-.5.5-.4 1.1-1.2 1.2-1.4.1-.3.2-.5.1-.6-.1-.2-.2-1.2-.4-1.5-.3-.2.5-1.5.6-1.7.2-.2.2-.3.2-.3.1-.1.3 0 .6 0 .3-.1 1.6-.4 1.7-.5.1 0 .4.2.4.2l.8.7.3-1.6 1.7-.6s.7.6 1.3.8c.6.2 2.5 1.1 2.5 1.1l2.8.2 2.3.6h.9s.3.2.3.3c0 .1-.2 1.3-.3 1.6-.1.3-.3 2.2-.3 2.2s1-.1 1.3-.2c.2 0 2.6-.2 2.6-.2s.1-.3.2-.4c0-.1.7-.2.7-.2s.6-.8.6-1.1c.1-.2.4-.5.5-.8 0-.3-.1-1.1-.1-1.3 0-.1-.1-.2.3-.4.5-.2.7-.2.8.1.2.3.5.7.6 1 .1.3.3.6-.3 1.3-.6.6-2.1 2.3-2.1 2.3l-2.2 5.1.1.4s.2 2 .2 2.3c0 .3.1.9.1 1 .1.1.2.4.3.6 0 .1-.1.2-.2.4v.7c.1.2.3.8.3.9 0 0 .2.4.1.5-.1 0-.2.2-.4.3l1.5.6c.2-.1.8.1 1 .2.2.1.5.4.5.4l-.1.4s-.1.6.1.8c.3.2.8.3 1 .4.1 0 .2.1.2.1s.2.8-.1 1.3c-.2.6-.4 1.2-.4 1.3 0 .1-.2.5-.2.5s-1.2 1.6-2.6 2.2c-1.5.6-3.2.9-3.2.9l-.3.1s.1.3.2.5c0 .2.2.4.2.4s.3.2.4.3c.1.2 0 .4-.1.6-.1.2 0 .8.1.8 0 .1.4.7.4.7s-.1.3-.2.3c0 .1-.5.299-.5.299s.2.2-.2.3c-.5.2-2.2.2-2.3.2-.1-.1-.4.101-.4.101s-.2.1-.1.5c.1.3.4.8.6 1 .1.3.2.899.2.899s.2.101.2.201h.6l.3-.1"/>
    <path fill="#FEFEFE" fill-rule="evenodd" d="M48.43 120.735v-.1s.2-.001.2-.101c0 0-.1.001 0-.099.2-.1.3.099.3-.101-.1.1-.1.1-.2 0 .133 0 .2-.033.2-.099 0-.1-.1-.101-.1-.201-.1.1-.2.101-.2-.099.1 0 .4-.1.4-.2h-.4c-.1-.2.1-.101.1-.201-.1 0-.2.1-.3 0v-.099c.2 0 .5.2.7 0-.3-.1.2-.301.2-.101.2-.2.2-.199.4-.199 0 0-.2-.1 0-.2 0 .1.1-.001.2.099-.1.1 0 .4-.3.5.1.2-.1.701-.2.701 0 0-.1-.1-.1 0 .1.2-.1.1-.2.2.2.1.1.3-.1.2.067.133.033.233-.1.3-.1 0-.1-.3-.2-.2 0 0 .1-.001.1.099-.2 0-.3-.099-.4-.099Zm.4-.701c.1-.1.1.101.2.101 0-.1-.1-.2.1-.2l-.1-.101-.2.2Z" clip-rule="evenodd"/>
    <path stroke="#FEFEFE" stroke-linecap="round" stroke-linejoin="round" stroke-width=".4" d="M48.83 120.034c0 .1.1.101.1.201 0 .066-.067.099-.2.099.1.1.1.1.2 0 0 .2-.1.001-.3.101-.1.1 0 .099 0 .099 0 .1-.2.101-.2.101v.1c.1 0 .2.099.4.099 0-.1-.1-.099-.1-.099.1-.1.1.2.2.2.133-.067.167-.167.1-.3.2.1.3-.1.1-.2.1-.1.3 0 .2-.2 0-.1.1 0 .1 0 .1 0 .3-.501.2-.701.3-.1.2-.4.3-.5-.1-.1-.2.001-.2-.099-.2.1 0 .2 0 .2-.2 0-.2-.001-.4.199 0-.2-.5.001-.2.101-.2.2-.5 0-.7 0v.099c.1.1.2 0 .3 0 0 .1-.2.001-.1.201h.4c0 .1-.3.2-.4.2 0 .2.1.199.2.099Zm0 0c.1-.1.1.101.2.101 0-.1-.1-.2.1-.2l-.1-.101-.2.2Z"/>
    <path fill="#FEFEFE" fill-rule="evenodd" d="M50.03 118.735h.1c.1 0 .3-.1.5-.2l.2.2c.1-.3.5-.3.6 0-.2.1-.3 0-.4.1.1.2.4-.1.5.1-.2 0-.1 0-.1.1-.1.1-.3.2-.3.2 0 .1-.1.3-.2.3h-.1c-.2.1-.3.2-.5.1.2.1.3 0 .5.1v.2c0-.1-.1 0-.1-.1-.1.1-.1.2-.2.2s-.2-.2-.3 0c.1-.1.2.1.2.1h.1v.2c-.2 0-.3-.1-.4-.1.1.1.1.2.2.3-.067 0-.1.033-.1.1-.1-.2-.3-.2-.5-.3.2-.1.1-.2.1-.4.1 0 0-.1 0-.2.2.1.2-.4.4-.3 0-.1-.1-.1-.2-.2 0-.1.1 0 .1-.2-.1.1-.2.1-.2 0 .1-.1.2-.1.3-.2-.1-.1-.1 0-.2-.1Zm1 .3c0-.067-.067-.134-.2-.2v.1c-.067-.067-.067-.1 0-.1-.2.1-.2-.1-.3-.1.2.2.3.1.5.3Z" clip-rule="evenodd"/>
    <path stroke="#FEFEFE" stroke-linecap="round" stroke-linejoin="round" stroke-width=".4" d="M50.83 118.835c.133.066.2.133.2.2-.2-.2-.3-.1-.5-.3.1 0 .1.2.3.1Zm0 0v.1c-.067-.067-.067-.1 0-.1Zm-.8-.1h.1c.1 0 .3-.1.5-.2l.2.2c.1-.3.5-.3.6 0-.2.1-.3 0-.4.1.1.2.4-.1.5.1-.2 0-.1 0-.1.1-.1.1-.3.2-.3.2 0 .1-.1.3-.2.3h-.1c-.2.1-.3.2-.5.1.2.1.3 0 .5.1v.2c0-.1-.1 0-.1-.1-.1.1-.1.2-.2.2s-.2-.2-.3 0c.1-.1.2.1.2.1h.1v.2c-.2 0-.3-.1-.4-.1.1.1.1.2.2.3-.067 0-.1.033-.1.1-.1-.2-.3-.2-.5-.3.2-.1.1-.2.1-.4.1 0 0-.1 0-.2.2.1.2-.4.4-.3 0-.1-.1-.1-.2-.2 0-.1.1 0 .1-.2-.1.1-.2.1-.2 0 .1-.1.2-.1.3-.2-.1-.1-.1 0-.2-.1Z"/>
  </g>
  <path fill="#9B82BB" d="m43.83 125.834-.7-.8c.1 0 .7-.099.7-.099.1 0 .4.7.4.7l-.4.199Zm-.3-3.7 1 2.3s.1.5.8.4c.6-.1 2.2-.6 2.2-.6s-.2-.2-.6-.2c-.3 0-.6-.1-.9-.2-.3-.2-.9-.5-.9-.5 0-.1-.5-.4-.6-.6-.1-.2-.1-.2-.5-.4-.4-.3-.5-.2-.5-.2Zm3-34.6c.1 0 .7.1.9.3.2.1.5.4.5.4l-.1.4s-.1.5.2.7c.2.3.8.4.9.4.1 0 .3.2.3.2s.1.8-.1 1.3c-.3.5-.4 1.1-.4 1.2-.1.1-.2.6-.2.6s-1.3 1.6-2.7 2.2c-1.4.6-3.1.9-3.1.9h-.4s.1.3.2.5c.1.3.3.4.3.4l.4.4c.1.2 0 .4-.1.6-.1.1 0 .7 0 .8 0 .1.5.6.5.6l-.2.4c-.1 0-.5.2-.5.2s.2.201-.3.401c-.4.2-2.2.199-2.3.099-.1 0-.4.101-.4.101s-.2.2 0 .5c.1.4.4.8.5 1.1.2.2.2.799.2.799s.2.201.3.201c.1 0 .6.099.6.099l.2-.099s.2-.101.2-.401c.1-.3.2-.299.3-.099.1.1.3.599.3.599s.2.201 0 .301c-.2.1-.3.4-.4 0-.1-.3-.5-.101-.5-.101l-.4.3s-.1.101 0 .301c.2.2.4.399.5.399v-.099s-.2.299-.3.899c0 .5.1 1.1.2 1.2l.2.701v.4c-.1.3-.1.5-.1.5s-1.2.6-1.2 1c-.1.4-.3.8-.3.8s-.1.799 0 .899c0 .1.1.5.1.5s.7.6.8.7c.1.1.6.101.8.101.1.1.9-.101.9-.101s.4.1.4.5 0 .601-.1.701c0 .1.1.099.2.099s-.1.801-.3 1.101c-.2.3-.4.6-.5.8 0 .2-.3.799-.3.799v.5l.2.601s.1.4 0 .6c-.1.1-.2.3-.2.2-.1 0-.4-.2-.4-.2l-.3.2.2.2.2.199s-.3.7-.3 1c0 .2.1.7.1.7l.3.101.4.6-.4.299s.5.001.6.101c.1.1.6.3.6.3l-.4.399-3.1.901s-.6-.3-.8-.8c-.3-.5-.2-1.001-.6-1.101-.3 0-.5.201-.7.301-.1.2.2.299-.1.199-.4-.2-1-1-1.1-1.3-.1-.4 0-1.4.1-1.5 0-.2.3-.299.2-.599-.2-.4-.7-2.1-.8-2.5 0-.4.1-.401 0-.601v-.599c0-.4 0-.201-.1-.701-.2-.4-.2-.499-.4-.799-.1-.2-.3-.301-.3-.401-.1-.1.3-.599.2-.699 0-.1-.5-.5-.5-.5s.1-.2.1-.4v-.401c-.1-.1-.3-.099-.5-.099-.2-.1-.3.1-.4-.1-.1-.3-.3-.9-.3-1 0-.1-.4-.3-.4-.4 0-.1-.3 0-.7-.6-.5-.6-.7-1.301-.7-1.301.1-.1.3-.599.3-.599s-1.2-2.4-1.2-2.6c-.1-.1-.1-.501-.1-.601-.1-.2-.1-.599-.1-.599 0-.1-.3-1.1-.2-1.3 0-.2.1-.5.2-.7 0-.1-1-1.4-1.3-2.4-.4-.9-.1-1 0-1.2 0-.3.1-1 .1-1.1v-.3s-.6-1.1-.7-1.8c0-.8.5-1.3-.2-2.3-.7-1-.7-.7-.9-1.1-.2-.4-1.1-1.6-1.3-1.8-.2-.2-.3-.6-.3-.8.1-.1.2-.1.1-.7-.1-.5.1-1.1.1-1.2 0-.1-.6-.8-.7-1.3-.1-.4-.1-1.6-.1-1.8 0-.2.3-1.2.3-1.3 0-.2-.1-1.2-.1-1.2.1-.1.5-.4.6-.5 0-.1.1-.1-.2-.4-.3-.4-.6-.5-.6-.5s.4-.2 0-1c-.3-.7-.4-.8-.5-1-.1-.3 0-.3-.1-.6-.1-.2-.3-.3-.3-.4-.1-.1-.4-.1.1-.5.6-.4 1.2-1.2 1.2-1.5.1-.3.2-.4.1-.6 0-.2-.1-1.1-.4-1.4-.2-.3.5-1.6.7-1.8.1-.2.1-.2.2-.3.1 0 .3.1.5 0 .3-.1 1.6-.4 1.8-.4.1 0 .3.2.3.2l.8.6.3-1.5 1.8-.6s.6.6 1.2.8c.6.2 2.5 1.1 2.5 1.1l2.9.2 2.3.5.8.1s.3.2.3.3c.1 0-.2 1.3-.3 1.6 0 .2-.3 2.1-.3 2.1s1.1-.1 1.3-.1c.2-.1 2.6-.3 2.6-.3s.1-.2.2-.3c0-.1.7-.2.7-.2s.6-.9.7-1.1c0-.2.3-.6.4-.9.1-.3 0-1 0-1.2-.1-.2-.2-.3.3-.5s.6-.2.8.1c.1.3.4.7.5 1 .1.3.4.7-.2 1.3-.6.7-2.1 2.4-2.1 2.4l-2.3 5 .1.4s.2 2 .2 2.3c.1.4.2 1 .2 1.1 0 .1.1.4.2.5.1.2-.1.2-.1.4-.1.2-.1.6 0 .8 0 .2.2.7.2.8.1.1.2.4.1.5 0 .1-.2.3-.3.3l1.5.6Z"/>
  <path fill="#9B82BB" fill-rule="evenodd" d="M49.33 120.834v-.1c.1 0 .3 0 .3-.1l-.1-.1c.2-.1.3.1.3-.1h-.1l.1-.1c0-.1-.1-.1 0-.2-.1.1-.3 0-.3-.1.1 0 .4-.1.4-.2-.1-.1-.2-.1-.3-.1-.1-.1.1 0 0-.1 0-.1-.2.1-.3 0 0-.066.033-.133.1-.2.2.1.4.2.6 0-.3 0 .3-.3.3-.1.1-.1.2-.1.3-.1 0 0-.1-.1 0-.2h.2c0 .2 0 .4-.2.6 0 .2-.1.7-.2.7 0 0-.1-.1-.2-.1.1.2-.1.1-.1.2.1.1 0 .3-.1.3 0 .134-.033.2-.1.2-.1 0-.2-.3-.3-.1h.1-.4Zm.5-.7c.1-.1 0 .1.1.1 0-.1-.1-.2.1-.2v-.1c-.133.067-.2.134-.2.2Zm1.2-1.399c.2.1.4 0 .6-.1l.1.1c.1-.2.6-.2.6.1-.2.1-.3-.1-.3.1.1.1.3-.1.4 0-.2.1-.1.1 0 .2-.2 0-.3.2-.4.2.1.1 0 .2-.1.3-.1 0-.1-.1-.2 0-.2 0-.3.1-.4 0 .1.2.2.1.4.1 0 .1.1.199 0 .299 0-.1-.1-.099-.1-.099-.1 0 0 .099-.1.099s-.3-.1-.3 0c.1-.1.1.101.1.201 0 0 .1-.1.1 0v.1c-.1.1-.3-.1-.4 0 .1.1.2.2.2.3-.2-.1-.4-.1-.5-.3.2 0 0-.101 0-.301.1 0 .1-.199.1-.199.2 0 .1-.401.4-.301-.1-.1-.2-.099-.3-.199 0-.1.2-.1.1-.2 0 0-.1.1-.1 0s.1-.1.2-.2c0-.1-.1-.1-.1-.2Zm.9.4c0-.134-.033-.2-.1-.2h-.1v-.1c-.1.1-.1-.1-.2 0 .1.2.3.1.4.3Z" clip-rule="evenodd"/>
  <path fill="#070709" d="M34.73 98.234c0 .067-.033.1-.1.1-.1 0-.2-.1-.2-.1l-.2-.2h.2s.1.1.2.1l.1.1Z"/>
  <path fill="#1B0C0F" d="M34.73 98.234c.067.067.067.1 0 .1h-.1c-.1 0-.1-.1-.2-.1l-.1-.2c-.067 0-.067 0 0 0h.1c.1 0 .2.1.2.1l.1.1Z"/>
  <path fill="#8A3825" d="M34.63 98.234c.066 0 .066 0 0 0-.1 0-.1 0-.2-.1 0-.067 0-.067 0 0 .1 0 .2 0 .2.1Z"/>
  <path fill="#2391CE" d="m85.43 91.634-70.2 8.6-.4-4.9 70.3-8.6.3 4.9Z"/>
  <path fill="#FEFEFE" fill-rule="evenodd" d="M35.23 82.335c1-.1 2.2-.2 2 3.2-.1 3-1.1 3.2-2.7 3.4l-.5.1.3-6.6.9-.1Zm-.2.8-.2 5c1.4-.1 1.4-1.4 1.4-2.5.1-1 .3-2.8-1.2-2.5Z" clip-rule="evenodd"/>
  <path fill="#FEFEFE" d="m38.63 88.435-.9.1.3-6.5.9-.1-.3 6.5Zm-.2-6.8-.4-.2.7-1.3.6.3-.9 1.2Z"/>
  <path fill="#FEFEFE" fill-rule="evenodd" d="m41.33 81.635 1 6.4-.8.1-.2-1.2-1.3.1-.3 1.3-.8.1 1.7-6.7.7-.1Zm-.2 3.7-.2-2.4-.7 3.4 1-.1-.1-.9Zm4.4-4.101c1-.1 2.1-.2 2 3.1-.2 3-1.2 3.3-2.7 3.4l-.6.1.3-6.5 1-.1Zm-.1.7-.2 5.1c1.4-.1 1.4-1.5 1.4-2.6.1-1 .2-2.7-1.2-2.5Z" clip-rule="evenodd"/>
  <path fill="#FEFEFE" d="m50.63 80.635-.1.8-1.4.1-.1 2.1 1.3-.2v.8l-1.3.1-.1 2.2 1.4-.1v.7l-2.3.3.3-6.5 2.3-.3Zm2.8-.3-.3 5.8 1.5-.2-.1.8-2.2.2.3-6.5.8-.1Z"/>
  <path fill="#FEFEFE" fill-rule="evenodd" d="m56.73 79.935 1.1 6.4-.8.1-.2-1.3-1.3.2-.3 1.3-.8.1 1.7-6.7.6-.1Zm-.2 3.6-.2-2.3-.7 3.4 1-.1-.1-1Z" clip-rule="evenodd"/>
  <path fill="#FEFEFE" d="M18.23 98.134c.533.534 1.133.767 1.8.7.467-.066.7-.233.7-.5 0-.066-.134-.166-.4-.3a6.52 6.52 0 0 0-.9-.2c-.333-.133-.7-.266-1.1-.4-.333-.133-.633-.366-.9-.7-.267-.333-.4-.733-.4-1.2 0-.466.2-1 .6-1.6.5-.6 1.3-1.1 2.4-1.2.9-.1 1.7.1 2.1.4.5.3.9.6 1 .8l.1.2-1.6 1.4c-.267-.333-.534-.533-.8-.6h-.8c-.3 0-.6.2-.6.4s.4.4 1 .5c.267.067.567.134.9.2.333.134.633.267.9.4.267.2.5.434.7.7.133.267.2.634.2 1.1 0 .4-.2 1-.7 1.6-.5.6-1.4 1.1-2.5 1.2-.933.134-1.667 0-2.2-.4-.6-.333-1-.7-1.2-1.1l1.7-1.4Z"/>
  <path fill="#FEFEFE" fill-rule="evenodd" d="M28.33 91.835c1.133-.134 2.1.166 2.9.9.8.666 1.167 1.6 1.1 2.8 0 1.133-.433 2.166-1.3 3.1-.8.866-1.8 1.366-3 1.5-1.133.133-2.1-.167-2.9-.9-.733-.667-1.1-1.6-1.1-2.8.067-1.134.5-2.167 1.3-3.1.8-.867 1.8-1.367 3-1.5Zm-.2 6c.466 0 .867-.2 1.2-.6.333-.467.533-.934.6-1.4 0-.534-.167-.967-.5-1.3a1.344 1.344 0 0 0-1.2-.4c-.467 0-.867.2-1.2.6-.333.4-.5.866-.5 1.4-.067.533.067.966.4 1.3.333.333.733.466 1.2.4Zm5.2 1.599.2-8 3.5-.4h.3c.133-.066.333-.066.6 0 .333.067.6.167.8.3.2.067.4.234.6.5.2.334.3.7.3 1.1a2.9 2.9 0 0 1-.7 1.6c.6.4.9.934.9 1.6-.067 1.734-1.2 2.7-3.4 2.9l-3.1.4Zm2.4-2.5 1.1-.1c.333-.066.5-.233.5-.5 0-.3-.2-.4-.5-.3l-1 .1-.1.8Zm.1-2.7.9-.1c.2 0 .4-.1.4-.4 0-.4-.2-.5-.3-.4l-1 .1v.8Z" clip-rule="evenodd"/>
  <path fill="#FEFEFE" d="M43.23 92.534v.8l3.1-.4-.1 2.1-3.1.4v.6l3.4-.3-.1 2.2-5.7.6.2-8 5.7-.6v2.3l-3.4.3Z"/>
  <path fill="#FEFEFE" fill-rule="evenodd" d="m54.63 97.034-2.9.3-1.6-1.8h-.2l-.1 2-2.3.3.2-8 3.3-.4h.6c.4.1.8.1 1.2.4.5.2.9.6 1.1 1.2.067.334.1.7.1 1.1 0 1.134-.467 2-1.4 2.6l2 2.3Zm-4.5-5.2-.1 1.5 1-.1c.4-.066.6-.333.6-.8 0-.5-.2-.8-.6-.7l-.9.1Zm10.3-3.399 2.7 7.7-2.6.2-.2-.8-2.6.3-.3.9-2.5.3 3.1-8.4 2.4-.2Zm-1.9 5.2 1.1-.2-.5-1.6-.6 1.8Z" clip-rule="evenodd"/>
  <path fill="#FEFEFE" d="m71.13 87.234-.3 8-2.1.2-2.4-3.2-.1 3.5-2.4.3.2-8 2.2-.3 2.4 3.2.1-3.5 2.4-.2Zm1 7.901.2-8.1 2.4-.2-.3 8-2.3.3Zm2.7-9-2.4.3 1.1-2.3 2.7-.3-1.4 2.3Z"/>
  <path fill="#FEFEFE" fill-rule="evenodd" d="m80.73 86.135 2.7 7.7-2.6.3-.2-.8-2.6.3-.3.8-2.5.3 3.1-8.3 2.4-.3Zm-1.9 5.1 1.1-.1-.5-1.6-.6 1.7Z" clip-rule="evenodd"/>
  <path fill="#2391CE" d="m81.53 103.234-63.9 7.2-.4-5 63.9-7.2.4 5Z"/>
  <path fill="#FEFEFE" d="m26.83 102.935-.3 8-2.1.2-2.4-3.2-.1 3.5-2.4.3.2-8 2.2-.3 2.4 3.2.1-3.5 2.4-.2Z"/>
  <path fill="#FEFEFE" fill-rule="evenodd" d="m32.83 102.234 2.7 7.7-2.6.3-.2-.8-2.6.3-.3.8-2.5.3 3.1-8.3 2.4-.3Zm-1.8 5.1 1-.1-.5-1.6-.5 1.7Z" clip-rule="evenodd"/>
  <path fill="#FEFEFE" d="M44.13 105.634a6.39 6.39 0 0 1-1.5 2.7 4.956 4.956 0 0 1-2.8 1.3c-1.133.134-2.1-.166-2.9-.9-.733-.733-1.1-1.666-1.1-2.8.067-1.2.5-2.233 1.3-3.1.8-.866 1.8-1.366 3-1.5 1-.133 1.867.1 2.6.7.8.534 1.267 1.3 1.4 2.3l-2.5.3a1.822 1.822 0 0 0-.6-.8 1.93 1.93 0 0 0-1-.3c-.467.067-.867.3-1.2.7-.334.4-.5.867-.5 1.4-.067.534.067.967.4 1.3a1.34 1.34 0 0 0 1.2.4c.333 0 .667-.133 1-.4.267-.266.467-.6.6-1l2.6-.3Zm.7 3.301.3-8.1 2.3-.2-.2 8-2.4.3Z"/>
  <path fill="#FEFEFE" fill-rule="evenodd" d="M52.73 99.935c1.133-.134 2.1.133 2.9.8.8.733 1.167 1.7 1.1 2.9 0 1.133-.433 2.133-1.3 3-.8.933-1.767 1.466-2.9 1.6-1.2.133-2.2-.167-3-.9-.733-.734-1.1-1.667-1.1-2.8.067-1.2.5-2.234 1.3-3.1.8-.867 1.8-1.367 3-1.5Zm-.2 6c.467-.067.867-.3 1.2-.7.4-.4.6-.867.6-1.4 0-.534-.167-.967-.5-1.3a1.341 1.341 0 0 0-1.2-.4c-.467.066-.867.3-1.2.7-.333.4-.5.866-.5 1.4-.067.533.066.966.4 1.3.333.333.733.466 1.2.4Z" clip-rule="evenodd"/>
  <path fill="#FEFEFE" d="m65.03 98.635-.2 8-2.2.3-2.4-3.2-.1 3.5-2.4.2.3-8 2.1-.2 2.4 3.2.1-3.5 2.4-.3Z"/>
  <path fill="#FEFEFE" fill-rule="evenodd" d="m71.03 98.034 2.7 7.6-2.5.3-.3-.8-2.6.3-.2.9-2.6.3 3.1-8.4 2.4-.2Zm-1.8 5.2 1-.2-.5-1.6-.5 1.8Z" clip-rule="evenodd"/>
  <path fill="#FEFEFE" d="m77.03 97.335-.1 5.8 3.3-.4v2.2l-5.7.7.2-8 2.3-.3Z"/>
  <path fill="#31205B" d="M20.53 80.734c0-.1 0-.1.1-.1s.2 0 .2.2v.1l.6 3.4c0 .2-.3.3-.3.1l-.6-3.7Zm1-.1c-.1-.2.2-.3.3-.1l1.6 2.6c0-.2-.2-1.5-.3-2-.1-.3-.1-.6-.1-.9h.1c.1-.1.1-.1.1 0 .1.6.2 1.1.2 1.6.1.3.3 1.7.4 2 0 .1-.2.1-.2 0-.1-.1-.2-.2-1.8-2.8l.6 3.1c0 .1-.2.2-.3.1l-.6-3.6Z"/>
  <path fill="#31205B" fill-rule="evenodd" d="M24.43 82.834c-.1-.4-.5-2.4-.6-2.8v-.1c0-.1 0-.2.1-.3h.1c.2 0 .4 0 .6.1.6.4.9 1.2 1 1.9.1.9.1 1.9-.7 2.2-.2 0-.3 0-.3-.2l-.2-.8Zm.1-1c.1.5.2 1.2.3 1.7.6-.2.6-1.2.5-1.8-.1-.3-.4-1.9-1.1-1.7h-.1c.1.2.3 1.6.4 1.8Z" clip-rule="evenodd"/>
  <path fill="#31205B" d="M25.93 79.835c-.1-.1 0-.2.1-.2l.8-.2s.1 0 .1.1c.1.1-.1.2-.1.2l-.6.1.3 1.7.5-.2h.1c.2-.1.2.2 0 .2l-.5.2.2 1.3h.3c.3-.1.6-.3.6-.1.1.2-1.1.4-1.1.3l-.7-3.4Z"/>
  <path fill="#31205B" fill-rule="evenodd" d="M28.13 81.834c0-.4-.4-2.3-.5-2.7 0 0 .2 0 .2-.1.5-.1 1 .3 1.1.8.1.5-.1 1.2-.6 1.6 0 0 .1.4.1.5 0 .2.2.9.2 1.1 0 .1-.1.1-.1.1h-.1l-.3-1.3Zm.1-.8h.1c.2-.4.4-.7.3-1.1-.1-.3-.4-.7-.7-.6l.3 1.7Z" clip-rule="evenodd"/>
  <path fill="#31205B" d="M29.43 79.034s0-.2.1-.2l.8-.1h.2v.1c0 .1-.1.1-.2.2l-.6.1.4 1.6.5-.2c.2 0 .2.2 0 .3l-.5.2.3 1.3.2-.1c.4 0 .6-.2.7 0 0 .2-1.1.4-1.1.3l-.8-3.5Zm1.8-.4c0-.2.2-.3.4-.1l1.6 2.6c-.1-.3-.3-1.5-.3-2-.1-.3-.2-.6-.2-.9 0 0 .1 0 .2-.1.1 0 .1 0 .1.1.1.6.1 1.1.2 1.6.1.3.3 1.7.4 2-.1.1-.2.1-.3 0-.1-.1-.1-.2-1.8-2.8l.6 3.1c.1.1-.2.2-.2 0l-.7-3.5Z"/>
  <path fill="#31205B" fill-rule="evenodd" d="M34.23 80.834c-.1-.4-.5-2.4-.6-2.9 0-.1 0-.2.1-.3.2 0 .4 0 .6.1.6.4.9 1.2 1 1.9.2.9.2 1.9-.6 2.2-.2 0-.3 0-.3-.2l-.2-.8Zm0-1c.1.5.3 1.2.4 1.7.6-.2.6-1.2.4-1.8 0-.4-.4-1.9-1.1-1.7 0 .2.3 1.5.3 1.8Z" clip-rule="evenodd"/>
  <path fill="#31205B" d="M35.63 77.835c0-.1.1-.2.2-.2l.7-.2c.1 0 .2 0 .2.1s-.1.2-.2.2l-.6.1.4 1.6.5-.1v-.1c.3 0 .2.2 0 .3l-.5.2.3 1.3s.2 0 .3-.1c.3 0 .5-.2.6 0 0 .2-1.1.4-1.1.3l-.8-3.4Zm1.9-.401c-.1-.2.2-.4.3-.2l1.6 2.6c0-.2-.3-1.5-.3-2-.1-.3-.2-.6-.1-.9h.1c.1-.1.1 0 .1.1.1.5.1 1 .2 1.5.1.3.3 1.7.4 2 0 .1-.2.1-.3 0 0-.1-.1-.2-1.7-2.8l.6 3.1c0 .1-.3.2-.3.1l-.6-3.5Zm3.4-.9c0 .2-.3.2-.4.2-.5.1-.5 1.2-.4 1.7.2.7.3 1.1.8 1.4.3.1.6-.1.7 0 .1.2-.1.3-.2.3-1.2.2-1.7-1.3-1.6-2.3 0-.5.2-1.3.8-1.4.1 0 .2 0 .3.1Zm.7-.1c0-.1.1-.2.2-.2s.1.1.2.2v.1l.5 3.4c.1.2-.2.3-.2.2l-.7-3.7Z"/>
  <path fill="#31205B" fill-rule="evenodd" d="M43.53 78.834v.6c0 .1 0 .3-.1.3s-.1-.1-.1-.1c-.3-3.7-.3-3.8-.3-3.8 0-.1 0-.2.2-.2h.1l.1.1c.5 1.1.9 2.2 1.3 3.4l.1.3c0 .1-.1.2-.2.2h-.1l-.3-1-.7.2Zm0-.3.7-.1-.9-2.2.2 2.3Z" clip-rule="evenodd"/>
  <path fill="#31205B" d="M23.03 75.335c-.3.2-.4.2-.5.1 0-.1-.1-.2.4-.3l.4-.2c.2 0 .3-.1.4 0 0 .1 0 .2-.1.2l-.4.1 1.3 3-.1.1h-.2l-1.2-3Zm1.1-.301c0-.1 0-.2.1-.2l.7-.3h.2c0 .1-.1.2-.1.2l-.6.3.6 1.5.5-.2v-.1c.3 0 .3.2.1.3l-.5.3.5 1.2.2-.1c.4-.1.6-.3.7-.1 0 .2-1 .6-1.1.5l-1.3-3.3Z"/>
  <path fill="#31205B" fill-rule="evenodd" d="M27.03 77.434c-.4-1.066-.8-2.166-1.2-3.3-.1-.2 0-.2.2-.3.5-.2.9 0 1 .4v.1c.2.3.2.7 0 1.1l.2.1c.4.2.6.9.7 1.2 0 0 .1.2.1.3h.1c0 .1-.1.1-.1.2-.1 0-.2 0-.2-.1-.1-.1-.4-.8-.5-1-.1-.2-.2-.5-.5-.4h-.1c0 .1.1.3.1.3 0 .1.4 1.1.5 1.5.1.1.1.2 0 .3h-.2l-.1-.4Zm-.3-2c.3-.1.2-.8.1-1-.1-.3-.3-.5-.6-.4-.067 0-.067.067 0 .2.1.4.2.7.4 1.2h.1Zm2 1.301-1.2-3.2c-.1-.3 0-.3.2-.4.5-.1.9 0 1 .4v.1c.2.3.2.8 0 1.1l.2.1c.3.2.6.9.7 1.3l.1.2.1.1-.1.1h-.2c-.1-.2-.4-.9-.5-1-.1-.3-.2-.6-.5-.4h-.1s.1.2.1.3c0 0 .4 1.1.5 1.5.1.1.1.2 0 .2h-.2l-.1-.4Zm-.3-2c.3-.1.2-.8.1-1-.1-.2-.3-.5-.6-.4-.067.066-.067.133 0 .2.1.4.2.8.4 1.2h.1Z" clip-rule="evenodd"/>
  <path fill="#31205B" d="M29.33 72.835c-.1-.1 0-.1.1-.2.1 0 .1.1.2.2v.1l1.1 3.3c.1.2-.2.3-.2.2l-1.2-3.6Zm1.1-.3c-.3.1-.4.1-.5.1 0-.2-.1-.3.4-.4l.4-.2c.2 0 .3-.1.4.1 0 0 0 .1-.1.1l-.4.1 1.3 3c0 .1-.1.1-.1.1s-.1.1-.2 0l-1.2-2.9Z"/>
  <path fill="#31205B" fill-rule="evenodd" d="M32.33 71.434c.8-.3 1.5 1.8 1.7 2.5.1.3.2 1-.3 1.2-.8.3-1.4-1.1-1.7-1.7-.2-.6-.6-1.7.3-2Zm0 1.9c.5 1.4.9 1.7 1.3 1.5.4-.1 0-1.3-.1-1.6v-.1c-.2-.3-.8-1.6-1.2-1.4-.4.1-.2 1-.2 1.2l.2.4Zm2.6 1.001c-.4-1.067-.8-2.167-1.2-3.3-.1-.2 0-.2.2-.3.5-.2.9 0 1 .4l.1.1c.1.3.2.8-.1 1.1.1 0 .2.1.3.1.3.2.5.9.6 1.2 0 .1.2.3.2.3 0 .1-.1.2-.1.2h-.2c0-.2-.4-.9-.4-1.1-.1-.2-.3-.5-.6-.4l-.1.1.1.2c0 .1.4 1.2.5 1.6.1 0 .1.1 0 .2h-.2l-.1-.4Zm-.3-2c.3-.1.2-.8.1-1 0-.2-.3-.5-.5-.4-.067.066-.1.133-.1.2.2.4.3.8.4 1.2h.1Z" clip-rule="evenodd"/>
  <path fill="#31205B" d="M35.53 70.434c0-.1 0-.1.1-.2.1 0 .2 0 .2.2v.1l1.2 3.3c0 .2-.2.3-.3.1l-1.2-3.5Z"/>
  <path fill="#31205B" fill-rule="evenodd" d="M37.03 69.534c.9-.2 1.6 1.8 1.8 2.5.1.4.2 1-.3 1.2-.9.3-1.5-1.1-1.7-1.6-.2-.6-.6-1.8.2-2.1Zm.1 1.9c.5 1.4.9 1.7 1.3 1.6.4-.2 0-1.4-.1-1.7-.2-.4-.8-1.7-1.3-1.5-.3.1-.2 1-.1 1.2l.2.4Zm2.7 2.8c.1-.6.5-3.3.6-3.9 0-.1.2-.1.2-.1.7.1.9.7.8 1.3-.1.7-.4 1.1-1.1 1.3l-.1.3c0 .2-.1 1-.2 1.1 0 .1 0 .1-.1.1s-.1 0-.1-.1Zm.6-1.9-.1.2h.2c.4-.2.5-.6.6-1 0-.3.1-.9-.4-.9h-.1l-.2 1.7Z" clip-rule="evenodd"/>
  <path fill="#31205B" d="M42.13 70.634c.067-.066.133-.1.2-.1.1.1.1.2.1.4l-.3 1.5c-.1.3-.4 1.7.1 1.8.2 0 .5-.5.5-.6.3-.9.6-1.8.7-2.7v-.1h.2c.1 0 .2.1.2.1l-.1.1c-.1.8-.3 1.5-.5 2.2l-.1.1c-.1.4-.4 1.2-.9 1.1-.6-.1-.6-.8-.5-1.2v-.1s.1-.7.1-.9c.1-.5.2-1.1.3-1.6Zm1.7 3.5.1-1c.1-.7.1-1.2.2-1.9l.1-.2c.8 0 .9.1.9.2l-.1.1-.6-.1v.1c-.1.5-.1.9-.1 1.5h.5c.2.1.3.4.1.4l-.7-.1-.1 1.1c.1.1.7.1.7.3 0 .067-.033.1-.1.1-.2 0-1-.1-.9-.2v-.3Z"/>
  <path fill="#31205B" fill-rule="evenodd" d="M45.93 71.434v-.3c0-.1.2-.2.2-.1.5.1.9.3.8.8 0 .4 0 .4-.3.6.6.4.6 1.2.5 1.8 0 .5-.5.9-1 .9h-.4c-.2-.2.2-3.2.2-3.7Zm.2 1.3c-.1.8-.2 1.4-.2 2.2.6 0 .9-.3 1-.8.1-.7-.1-1.4-.8-1.6v.2Zm0-.8v.3s.1 0 .1.1c.2 0 .4-.2.4-.4.1-.4-.1-.6-.4-.6 0 .1-.1.5-.1.6Z" clip-rule="evenodd"/>
  <path fill="#31205B" d="M48.13 71.334c.1 0 .1.2.2.2-.2 1.2-.3 2.3-.4 3.5.1 0 .4-.1.6 0 .1 0 .2 0 .2.1 0 .067-.067.1-.2.1-.1.1-.4 0-.5.1h-.3s-.1-.1-.1-.2c0-.6.1-1.2.2-1.8l.1-1.3.1-.6c0-.067.033-.1.1-.1Z"/>
  <path fill="#31205B" fill-rule="evenodd" d="M50.43 71.734c.9.2.5 2.3.3 3-.1.4-.3 1-.8.9-.9-.1-.7-1.7-.7-2.2.1-.7.4-1.8 1.2-1.7Zm-.9 1.7c-.2 1.4 0 1.9.4 1.9.5.1.7-1.2.7-1.5.1-.4.2-1.8-.3-1.9-.4 0-.7.8-.7 1 0 .2-.033.367-.1.5Z" clip-rule="evenodd"/>
  <path fill="#050505" d="M82.964 147.237c.1 1.6 5.8 2.7 12.9 2.4 7-.2 12.7-1.6 12.7-3.1-.1-1.6-5.8-2.7-12.9-2.5-7 .2-12.7 1.6-12.7 3.2Z" opacity=".3"/>
  <path fill="#050505" d="M92.764 145.737s-.4.9 1.3 1.6l-8.2.5.2-1.8 6.7-.3Z"/>
  <path fill="#050505" fill-rule="evenodd" d="m85.864 148.037-.1-.1v-.1l.1-1.8c.1-.1.1-.1.2-.1l6.7-.4c.066 0 .133.033.2.1v.2s-.1.2 0 .5c.133.333.5.6 1.1.8.133.067.167.167.1.3 0 .067-.034.1-.1.1l-8.1.5h-.1Zm7.5-.8c-.4-.267-.633-.533-.7-.8-.133-.2-.167-.367-.1-.5l-6.3.3-.1 1.4 7.2-.4Z" clip-rule="evenodd"/>
  <path fill="#4E69B1" d="m86.164 140.237-.4 6.3 7.2-.2 1.4-6"/>
  <path fill="#050505" d="m85.764 146.737 7.2-.2c.133 0 .2-.033.2-.1l1.4-6.1c.1-.1 0-.2-.1-.2s-.2 0-.2.1l-1.4 5.9-6.9.2.4-6.1c0-.1-.1-.2-.2-.2s-.2.1-.2.2l-.4 6.3v.2h.2Z"/>
  <g opacity=".2" style="mix-blend-mode:multiply">
    <mask id="c" width="9" height="5" x="85" y="141" maskUnits="userSpaceOnUse" style="mask-type:luminance">
      <path fill="#fff" d="m93.774 145.777-7.95.12-.06-3.79 7.96-.12.05 3.79Z"/>
    </mask>
    <g mask="url(#c)">
      <path fill="#050505" d="M85.864 145.937s.3-1.8 1.7-1.9c1.4-.2 5.4.5 5.9.6l.3-1.8-7.8-.7s0 2.5-.1 3.8Z"/>
    </g>
  </g>
  <path fill="#050505" d="M103.964 145.037s-.2.8 2.2 1.6l-8.1.4-.5-1.7 6.4-.3Z"/>
  <path fill="#050505" fill-rule="evenodd" d="M98.064 147.237c-.067 0-.1-.033-.1-.1l-.6-1.7c0-.067.033-.133.1-.2 0-.067.033-.1.1-.1l6.4-.3c.067 0 .133.033.2.1v.1c0 .1 0 .7 2.1 1.4.066.067.1.133.1.2s-.067.133-.2.2l-8.1.4Zm7.2-.8c-1.1-.5-1.4-.9-1.5-1.2l-5.9.3.4 1.3 7-.4Z" clip-rule="evenodd"/>
  <path fill="#4E69B1" d="m102.464 139.237 1.8 5.9-6.9.8-2.9-5.8"/>
  <path fill="#050505" d="m97.364 146.137 6.9-.8.1-.1c.066-.067.1-.133.1-.2l-1.9-5.9c0-.1-.1-.1-.2-.1-.1.1-.2.2-.1.3l1.7 5.6-6.5.8-2.8-5.7c-.1-.1-.2-.1-.3-.1-.1 0-.1.2-.1.3l2.9 5.8c.067.067.133.1.2.1Z"/>
  <g opacity=".2" style="mix-blend-mode:multiply">
    <mask id="d" width="9" height="5" x="95" y="140" maskUnits="userSpaceOnUse" style="mask-type:luminance">
      <path fill="#fff" d="m103.754 144.587-8.22.12-.06-4.08 8.22-.12.06 4.08Z"/>
    </mask>
    <g mask="url(#d)">
      <path fill="#050505" d="M96.764 144.737s1.7 0 3.2-.5c1.5-.5 3.8-.9 3.8-.9l-.9-2.8-7.4 1.4 1.3 2.8Z"/>
    </g>
  </g>
  <path fill="#B3805F" d="M109.664 128.937s2.2.1 3.3-1.2c1.1-1.3-.2-4.6-2.2-3.9-1.8.7-2.4 1.6-2.3 2.2.1.5 1.2 2.9 1.2 2.9Z"/>
  <path fill="#050505" fill-rule="evenodd" d="M109.464 129.037v-.1c-.1-.1-1.1-2.4-1.2-2.9-.1-.7.7-1.7 2.4-2.3.9-.3 1.7 0 2.3.9.7.9.9 2.4.2 3.3-1.2 1.3-3.5 1.2-3.6 1.1h-.1Zm2.9-4.6c-.3-.3-.9-.6-1.6-.4-1.6.6-2.2 1.5-2.1 1.9.1.4.8 2.1 1.1 2.8.4 0 2.2 0 3.1-1.1.6-.7.4-2-.2-2.8a1.583 1.583 0 0 0-.3-.4Z" clip-rule="evenodd"/>
  <path fill="#050505" d="M111.164 128.037a75.425 75.425 0 0 1-.4-.4c-.3-.4-1.3-2-.2-2.9.1 0 .2 0 .3.1.1.1 0 .2 0 .2-.9.7 0 2 .2 2.4.5.6.9.7 1 .7.1 0 .2 0 .2.1.1.1.1.2 0 .3-.3.1-.7-.1-1.1-.5Z"/>
  <path fill="#B3805F" d="M110.164 124.137c.2-.2.6-.2.8 0l.7.8c.2.2.2.6 0 .8-.3.2-.6.2-.9 0l-.4-.5"/>
  <path fill="#050505" d="m110.164 125.437.5.4c.133.133.3.2.5.2.266.067.466 0 .6-.2.133-.134.233-.3.3-.5 0-.2-.1-.4-.3-.6l-.6-.7c-.3-.3-.8-.3-1.2 0v.2c.1.1.2.1.3 0 .2-.1.4-.1.6 0l.7.8c.066.067.1.166.1.3 0 .066-.067.167-.2.3-.067.067-.134.1-.2.1-.134 0-.233-.067-.3-.2l-.5-.4c-.1-.1-.2-.1-.3 0-.1.1-.1.2 0 .3Z"/>
  <g opacity=".1" style="mix-blend-mode:multiply">
    <mask id="e" width="3" height="3" x="110" y="124" maskUnits="userSpaceOnUse" style="mask-type:luminance">
      <path fill="#fff" d="m111.184 126.957-1.18-1.14 1.15-1.19 1.18 1.13-1.15 1.2Z"/>
    </mask>
    <g mask="url(#e)">
      <path fill="#050505" d="M110.464 125.337s.7.9 1.1.4c.5-.5.5-.2.5-.2s.1.7-.6 1c-.7.4-1.5-.6-1-1.2Z"/>
    </g>
  </g>
  <g opacity=".1" style="mix-blend-mode:multiply">
    <mask id="f" width="5" height="5" x="108" y="125" maskUnits="userSpaceOnUse" style="mask-type:luminance">
      <path fill="#fff" d="m110.664 129.707-2.41-2.32 1.99-2.07 2.41 2.32-1.99 2.07Z"/>
    </mask>
    <g mask="url(#f)">
      <path fill="#050505" d="M110.264 125.337s-.5.3-.3 1.3c.3 1 .4 1.5.2 1.6-.2 0-.6.1-.6.4 0 .2.8.5 1.3.3.6-.3 1.1-.6 1.1-.6s-1.3-.6-1.5-1.3c-.2-.6-.2-1.7-.2-1.7Z"/>
    </g>
  </g>
  <path fill="#F1F1F1" d="M95.064 131.337c-.7-2.8 1.7-3.3 1.7-3.3l12.1-3.7 2 5.3-12.9 3.9s-2.1.7-2.9-2.2Z"/>
  <path fill="#050505" fill-rule="evenodd" d="M95.864 133.137c-.4-.4-.734-1-1-1.8-.2-.934-.1-1.734.3-2.4.5-.8 1.4-1 1.5-1.1l12.2-3.7c.1 0 .2.1.2.1l2 5.3v.2l-.1.1-12.9 3.8c-.1.1-.9.3-1.7-.1a.965.965 0 0 1-.5-.4Zm12.9-8.6-12 3.7s-.9.2-1.3.9c-.334.6-.4 1.3-.2 2.1.266 1 .7 1.666 1.3 2 .7.3 1.3.1 1.4.1l12.7-3.8-1.9-5Z" clip-rule="evenodd"/>
  <g opacity=".1" style="mix-blend-mode:multiply">
    <mask id="g" width="18" height="17" x="93" y="120" maskUnits="userSpaceOnUse" style="mask-type:luminance">
      <path fill="#fff" d="m99.894 136.797-6.29-6.05 10.2-10.59 6.29 6.06-10.2 10.58Z"/>
    </mask>
    <g mask="url(#g)">
      <path fill="#050505" d="M102.964 129.937c2.5.4 6.2-1.9 6-3-.2-.7-.5-1.7-.6-2.4l-11.6 3.5s-2.4.5-1.7 3.3c.8 2.9 2.9 2.2 2.9 2.2l4.9-1.5c-1-1.2-2.2-2.4.1-2.1Z"/>
    </g>
  </g>
  <path fill="#F1F1F1" d="M93.364 131.237s2.2-2.6 3.1-2.9c.8-.3 1.4-.8 2.2 0 .9 1 3.4 4.1 5.1 10.4-.3 1.4-1.9 2.3-5.1 3.2-4.3 1.2-7 1.1-10.1 1.4-3 .3-3.8.1-3.8-.2.1-9.8-2.2-12.8-2.2-12.8l5.5-.3 5.3 1.2Z"/>
  <path fill="#050505" fill-rule="evenodd" d="M86.364 143.737c-1.2 0-1.5-.2-1.7-.3-.067-.067-.1-.167-.1-.3.1-9.6-2.1-12.7-2.1-12.7-.067-.067-.1-.133-.1-.2.066-.067.133-.1.2-.1l5.5-.3h.1l5.1 1.2c.5-.6 2.3-2.6 3.1-2.9l.4-.2c.6-.2 1.3-.5 2 .3 1 1 3.4 4.1 5.2 10.4v.1c-.3 1.4-1.9 2.4-5.3 3.3-3.3 1-5.7 1.2-8.1 1.3l-2 .2c-.9.1-1.7.1-2.2.2Zm17.2-5c-1.7-6.2-4.1-9.3-5-10.3-.6-.6-1-.4-1.7-.1a.896.896 0 0 1-.4.1c-.6.3-2.4 2.2-3 2.9 0 .066-.034.066-.1 0l-5.3-1.1-5.2.2c.6 1 2.2 4.4 2.1 12.7.2.2.9.3 3.6 0a19.99 19.99 0 0 1 2-.1c2.3-.2 4.7-.4 8-1.3 3.2-.9 4.7-1.8 5-3Z" clip-rule="evenodd"/>
  <path fill="#050505" fill-rule="evenodd" d="M88.364 141.837c-.6 0-1.1-.2-1.5-.6-.5-.4-.7-1-.7-1.8v-1.7c0-.1 0-.2.1-.2l4.6-.5c.066 0 .133.033.2.1v1.9c0 1.5-.9 2.6-2.4 2.7-.133.067-.234.1-.3.1Zm-1.9-3.9v1.5c.067.667.266 1.2.6 1.6.4.333.9.467 1.5.4 1.1-.1 2.1-.8 2.1-2.4v-1.6l-4.2.5Z" clip-rule="evenodd"/>
  <path fill="#ED3937" d="m90.964 138.137-4.7.5 4.7-.5Z"/>
  <path fill="#050505" d="m86.264 138.737 4.7-.4v-.4l-4.7.5v.3Z"/>
  <g opacity=".1" style="mix-blend-mode:multiply">
    <mask id="h" width="6" height="5" x="87" y="138" maskUnits="userSpaceOnUse" style="mask-type:luminance">
      <path fill="#fff" d="m92.784 141.957-5 .08-.06-3.51 5.01-.08.05 3.51Z"/>
    </mask>
    <g mask="url(#h)">
      <path fill="#050505" d="M87.764 142.038s1.3.199 3.1-1.1c1.8-1.4 1.9-2.5 1.9-2.5l-1.8.5s-.3 2.699-2.7 2.699l-.5.401Z"/>
    </g>
  </g>
  <path fill="#8DBEE6" d="M87.764 129.837s4.7 1.1 7.7 3.3c0 0 1.1-3.1-.1-6.2l-7.6 2.9Z"/>
  <path fill="#050505" d="M102.864 138.237c.266 0 .533-.067.8-.2.1-.1.2-.2.1-.3 0-.1-.1-.1-.2-.1-.9.4-1.3 0-1.4-.1l-1-2.7 1.1-.4c.1-.1.2-.2.1-.3 0-.1-.1-.1-.2-.1l-1.3.5c-.1 0-.2.1-.1.2l1.1 2.9v.1s.3.5 1 .5Z"/>
  <path fill="#050505" d="m101.264 135.737 1.4-.5c.1-.1.1-.2.1-.3 0-.1-.1-.1-.2-.1l-1.4.5c-.1.1-.2.2-.1.3 0 .067.066.1.2.1Z"/>
  <g opacity=".1" style="mix-blend-mode:multiply">
    <mask id="i" width="16" height="16" x="84" y="127" maskUnits="userSpaceOnUse" style="mask-type:luminance">
      <path fill="#fff" d="m99.244 142.117-14.87.23-.22-14.52 14.87-.23.22 14.52Z"/>
    </mask>
    <g mask="url(#i)">
      <path fill="#050505" d="m88.764 129.037-4.6 1.3 5.8 2.1-2 1.4 7.6.3s.5 1.5.9 2.6c.4 1.2-.4 1.3.1 1.6.4.2.7.7.9 1.4.3.8.4 2.4.4 2.4l.6-.6s-1.2-4.4-2.4-7.3l3-3.9-1.5-.7.6-2-2.9.2.5 5.9-7-4.7Z"/>
    </g>
  </g>
  <path fill="#050505" d="M94.764 135.437c0 .2.3.4.5.4.3-.1.5-.3.4-.6 0-.2-.2-.4-.5-.4-.2.1-.4.3-.4.6Zm.6 2c0 .2.2.4.5.4.2-.1.4-.3.4-.6s-.2-.4-.5-.4c-.3.1-.4.3-.4.6Zm.7 1.9c0 .3.3.5.5.4.3 0 .5-.3.4-.5 0-.3-.2-.5-.5-.4-.2 0-.4.3-.4.5Z"/>
  <path fill="#FEFEFE" d="M95.664 133.437s1.5 3 2.9 8.4l-2.9-8.4Z"/>
  <path fill="#050505" d="M98.564 142.037c.1-.1.2-.2.2-.3-1.4-5.3-2.9-8.3-2.9-8.3-.1-.1-.2-.2-.3-.1-.1 0-.1.1 0 .2 0 .1 1.4 3 2.8 8.3.066.133.133.2.2.2Z"/>
  <path fill="#F0F1F1" d="M94.464 127.937s.6 2.5 1.2 5.5l3.4-3.9-2.3.8 2.3-3.2-4.6.8Z"/>
  <path fill="#050505" fill-rule="evenodd" d="M95.664 133.637c-.067 0-.133-.033-.2-.1-.6-3-1.1-5.5-1.1-5.6-.067 0-.067-.033 0-.1 0-.067.033-.1.1-.1l4.6-.8c.066 0 .133.033.2.1v.2l-2 2.7 1.7-.6c.133 0 .2.033.2.1.066.067.066.133 0 .2l-3.3 4h-.2Zm1.2-3.1c-.067 0-.134-.033-.2-.1-.067-.067-.067-.133 0-.2l2-2.9-3.9.7c.1.7.5 2.7 1 5l2.7-3.1-1.6.6Z" clip-rule="evenodd"/>
  <path fill="#F0F1F1" d="M90.664 128.637s1.8 1.4 5 4.8l-6.2-.3 2.1-.8-5.3-.9 4.4-2.8Z"/>
  <path fill="#050505" fill-rule="evenodd" d="m95.664 133.637-6.2-.3c-.133 0-.2-.034-.2-.1 0-.134.033-.2.1-.2l1.6-.7-4.7-.7-.2-.2c0-.067.033-.134.1-.2l4.4-2.8c.066-.067.133-.067.2 0 0 0 1.8 1.5 5.1 4.9v.2c-.067.066-.133.1-.2.1Zm-8.9-2.3 4.9.8c.067 0 .1.033.1.1 0 .133-.033.2-.1.2l-1.4.6 5 .2c-2.6-2.6-4.2-4.1-4.6-4.4l-3.9 2.5Z" clip-rule="evenodd"/>
  <g opacity=".1" style="mix-blend-mode:multiply">
    <mask id="j" width="8" height="15" x="84" y="129" maskUnits="userSpaceOnUse" style="mask-type:luminance">
      <path fill="#fff" d="m91.154 143.457-6.85.1-.21-13.91 6.85-.1.21 13.91Z"/>
    </mask>
    <g mask="url(#j)">
      <path fill="#050505" d="M84.764 143.337s1.8.6 3.5-.4c1.6-1 0-.3-1-.7-1.1-.5-.6-1.3-.6-1.3s-.5-1.2-.4-3.2c0 0 1.7-.7 3-1.3 1.4-.6.8-1.7.2-1.5-.6.3 2.4-2 1.3-4.2-1.1-2.2-3.8-.7-3.8-.7l-2.8 5.7.6 7.6Z"/>
    </g>
  </g>
  <g opacity=".1" style="mix-blend-mode:multiply">
    <mask id="k" width="6" height="8" x="96" y="127" maskUnits="userSpaceOnUse" style="mask-type:luminance">
      <path fill="#fff" d="m101.974 134.127-5.71.08-.11-6.9 5.72-.09.1 6.91Z"/>
    </mask>
    <g mask="url(#k)">
      <path fill="#050505" d="M96.164 129.037s4.1 1 5.8 5.1c0 0-.6-3-1.6-4.4-1-1.4-2.2-2.5-2.2-2.5l-2 1.8Z"/>
    </g>
  </g>
  <path fill="#B3805F" d="M76.264 122.937c3.1 6.5 8.7 11.3 17.8 7.7 10.4-4 9.6-10.4 6.5-16.8-3.2-6.5-11-9.2-17.5-6.1-6.5 3.1-9.9 8.8-6.8 15.2Z"/>
  <path fill="#050505" fill-rule="evenodd" d="M88.664 132.337c-2.067.066-3.934-.367-5.6-1.3-2.7-1.4-5-4-6.7-7.7-1.5-3.1-1.6-6.2-.2-9 1.2-2.6 3.7-4.8 7.1-6.4 3.2-1.6 6.8-1.8 10.1-.6 3.3 1.1 6 3.5 7.5 6.7 1 2.1 1.7 3.8 1.9 5.4.4 1.9.3 3.6-.3 5.2-1.1 2.7-3.8 4.9-8.1 6.5-2 .8-3.9 1.2-5.7 1.2Zm.1-25.4c-1.8.1-3.6.5-5.4 1.3-3.3 1.6-5.7 3.8-6.9 6.3-1.3 2.7-1.2 5.7.2 8.7 2.7 5.5 7.9 11.3 17.6 7.6 4.2-1.7 6.8-3.7 7.8-6.4 1.1-2.7.6-5.8-1.5-10.2-2.2-4.7-6.9-7.3-11.8-7.3Z" clip-rule="evenodd"/>
  <g opacity=".1" style="mix-blend-mode:multiply">
    <mask id="l" width="23" height="22" x="75" y="111" maskUnits="userSpaceOnUse" style="mask-type:luminance">
      <path fill="#fff" d="m97.254 132.157-21.86.33-.32-20.88 21.86-.33.32 20.88Z"/>
    </mask>
    <g mask="url(#l)">
      <path fill="#050505" d="m77.764 111.637 1.8-.1s7.7.4 5.7 4c-2 3.5-1.7 4.8-1.4 5.8.3 1.1 1.8.3 1.8.3-4.8 4.2-1.7 8.5 2.8 9.2 3.3.5 7.3-.8 8.7-1.3-.734.467-1.6.933-2.6 1.4-8.9 4-15.1-1.5-18.2-8-2.1-4.3-1.3-8.2 1.4-11.3Z"/>
    </g>
  </g>
  <path fill="#050505" d="M95.164 107.637s4.7.9 7.6 4.9c.1.2-1.5-1.2-3.8-1.9m-22.5.8s-6 5.8-1.8 13.5c0 0-.8-5.6 1.8-13.5Z"/>
  <path fill="#050505" d="M81.164 116.737c.2-.1 2.1 7.6-1.1 9.6-2-2.3-1.5-5.5-1.5-5.5-.5 2.8.3 5.1.9 5.8-.5.4-2.1 1.2-3.1 1.3 0 0-8.3-13.3 6.9-20.7 0 0 8.8-5.2 18.7 5.5 0 0 .1.5-.6 1.8-.5 1-4.1-4.5-4.8-3.7"/>
  <path fill="#050505" d="M84.964 106.537c1.5-.5 7.5-2.8 15.4 2.5 0 0-16.9-2-15.4-2.5Z"/>
  <path fill="#050505" d="M94.364 106.237s-13.3-4.7-19.2 7.1c-6 11.8 19.2-7.1 19.2-7.1Z"/>
  <path fill="#050505" d="M84.064 107.337s6.7-2.9 16.7 4.6c0 0 .2 0-.2.8-.3.6-.3.6-.8 1.1-.9-1.1-1.8-1.4-5.3-2.4 0 0 3.8 1.1 4.5 2.9-5.9 3.7-11.8 1.6-11.8 1.6.1-.1 1.8 3.1-2.2 3.8-2-1.5-2.9-3.8-2.9-3.8.1 1.8.8 2.9 1.9 4.1-.4.2-1.8.4-2.7.4 0 0-9-9.1 2.8-13.1Z"/>
  <path fill="#050505" d="m80.064 116.237 3.3 6.9s-5.4 4.7 2.2 8.7l-7.3-2s-5.7-5.6-3.6-12.7 3.9-3.5 3.9-3.5l1.5 2.6Zm-3.2-4.7s1-3.1 2.7-4.5c1.8-1.5 2-1.2 2-1.2s-2.6 1.5-3.1 5"/>
  <path fill="#050505" d="M74.664 114.337s1-1.6-.8-2.1c0 0 1.2-.7 1.6-.1-.1-.9-.1-2.5 2-4.2 0 0-.7 2.1.7 1.7m8.8 8.3c.067 0 .133-.033.2-.1.1-.3 1.3-.5 2.5-.6.1-.1.1-.2.1-.3 0-.1-.1-.1-.2-.1-.6 0-2.6.2-2.8.9 0 .1 0 .2.1.2.066.067.1.067.1 0Zm1.7 2.1c.3.6.8 1 1.3.9.4-.1.5-.7.3-1.3-.2-.7-.8-1.1-1.2-.9-.5.1-.6.7-.4 1.3Z"/>
  <path fill="#FEFEFE" d="M89.164 119.137c.1.1.2.2.3.1 0 0 .1-.1 0-.2 0-.1-.1-.2-.2-.2-.1.1-.1.2-.1.3Z"/>
  <path fill="#050505" d="M98.164 116.637c.2.6.7 1 1.1 1 .5 0 .7-.5.5-1.1-.2-.6-.7-1.1-1.1-1-.4 0-.6.5-.5 1.1Z"/>
  <path fill="#FEFEFE" d="M98.764 115.837c0 .1.1.2.2.2s.1-.1.1-.2c-.1-.1-.1-.2-.2-.2s-.2.1-.1.2Z"/>
  <path fill="#9A724F" d="M94.564 120.737s.9.8 1.8.6c.9-.3 1-1.6 1-1.6s-.9.9-1.3 1c-.4.1-1.5 0-1.5 0Z"/>
  <path fill="#050505" d="M96.264 120.837c.2 0 .5-.1.6-.3l.5-.6c0-.1 0-.2-.1-.3-.1 0-.2 0-.3.1l-.4.6c-.1.1-.4.2-.7.1h-1.3c-.1 0-.2.1-.2.2s.1.2.2.2l1.3.1a.896.896 0 0 0 .4-.1Zm-3 3.8s2 .2 3 0c.9-.3.9 1.7-.3 2.6-.8.7-2.4 2.2-5.8 1.6-3.6-.6-4.3-4-2.7-5.1 1.5-1.1 3.6.4 5.8.9Z"/>
  <g opacity=".1" style="mix-blend-mode:multiply">
    <mask id="m" width="4" height="2" x="87" y="128" maskUnits="userSpaceOnUse" style="mask-type:luminance">
      <path fill="#fff" d="m90.614 129.937-3.56.06-.02-1.64 3.55-.05.03 1.63Z"/>
    </mask>
    <g mask="url(#m)">
      <path fill="#050505" d="M87.064 128.337s1.1 1.5 3.5 1.3c0 0-2.5 1.2-3.5-1.3Z"/>
    </g>
  </g>
  <path fill="#050505" d="M76.964 127.637s-2.3.1.8 2.8c1.5 1.4 4.8 2.3 4.8 2.3l-5.6-5.1Z"/>
  <path fill="#050505" d="M76.164 129.237s1.5 2.4 3.9 3.5c2.3 1 2.7.9 2.7.9s-1.3-.6-3.3-3.5"/>
  <path fill="#B3805F" d="M74.464 131.137s-2.1-.6-2.8-2.2c-.6-1.6 1.8-4.3 3.5-2.9 1.4 1.1 1.7 2.3 1.4 2.7-.3.5-2.1 2.4-2.1 2.4Z"/>
  <path fill="#050505" fill-rule="evenodd" d="M74.564 131.337h-.1c-.1-.1-2.3-.7-2.9-2.3-.4-1.1.3-2.4 1.2-3.1.9-.6 1.8-.6 2.5-.1 1.4 1.2 1.8 2.4 1.5 3-.3.5-2 2.3-2.1 2.4l-.1.1Zm-.7-5.5c-.4.1-.7.3-.9.4-.8.6-1.4 1.8-1.1 2.6.5 1.3 2.2 1.9 2.6 2.1.5-.6 1.7-1.9 2-2.3.2-.4-.1-1.4-1.5-2.5-.3-.3-.7-.3-1.1-.3Z" clip-rule="evenodd"/>
  <path fill="#B3805F" d="M73.364 126.337c1 .4.7 1.6.6 2.1 0 .4-.1 1.5-.8 1.6-.8.1-1.4-.1-2-.4-.7-.3-.5-2.6.1-3.3.5-.6 1.7-.1 2.1 0Z"/>
  <path fill="#050505" fill-rule="evenodd" d="M73.164 130.237c-.8.1-1.5-.1-2.1-.4-.267-.067-.434-.3-.5-.7-.2-.9.1-2.4.5-2.9.466-.467 1.267-.467 2.4 0 1 .4.8 1.5.7 2v.2c0 .4-.1 1.6-1 1.8Zm.1-3.7c-.934-.4-1.567-.4-1.9 0-.4.4-.6 1.7-.4 2.5.067.266.133.433.2.5.7.2 1.2.4 1.9.3h.1c.5-.1.6-1.1.7-1.4v-.2c.1-.7.1-1.4-.6-1.7Z" clip-rule="evenodd"/>
  <path fill="#B3805F" d="M75.564 126.437c-.1-.3-.5-.4-.8-.2l-.9.4c-.3.2-.4.5-.2.8.1.3.5.4.8.3l.6-.3"/>
  <path fill="#050505" d="M74.264 127.937c.133 0 .233-.033.3-.1l.6-.2c.1 0 .1-.1.1-.2-.1-.1-.2-.2-.3-.1l-.6.2c-.2.1-.4 0-.5-.2-.067-.067-.1-.167-.1-.3l.2-.2.9-.5c.2-.1.5 0 .6.2 0 .1.1.1.2.1.1-.1.2-.2.1-.3-.2-.4-.7-.5-1-.3l-.9.5a.6.6 0 0 0-.4.4.92.92 0 0 0 0 .6c.2.3.5.5.8.4Z"/>
  <g opacity=".1" style="mix-blend-mode:multiply">
    <mask id="n" width="3" height="3" x="73" y="126" maskUnits="userSpaceOnUse" style="mask-type:luminance">
      <path fill="#fff" d="m75.064 128.357-1.69.26-.23-1.5 1.69-.26.23 1.5Z"/>
    </mask>
    <g mask="url(#n)">
      <path fill="#050505" d="M74.964 127.537s-1.1.6-1.3-.1c-.2-.6-.4-.3-.4-.3s-.2.6.3 1.2c.5.5 1.6-.1 1.4-.8Z"/>
    </g>
  </g>
  <path fill="#F1F1F1" d="M85.364 136.137c.7-2.6-1.6-5-1.6-5l-7.1-4.3-3.1 4.7 7.8 4.6s3.2 2.5 4 0Z"/>
  <path fill="#050505" fill-rule="evenodd" d="M84.264 137.437c-1.3.2-2.9-1-3-1.1l-7.8-4.6c-.067 0-.1-.033-.1-.1v-.2l3.2-4.7c0-.1.1-.1.2 0l7.1 4.2h.1c.1.2 2.3 2.6 1.5 5.2-.133.667-.467 1.067-1 1.2-.067.067-.134.1-.2.1Zm.9-1.4c.7-2.3-1.3-4.5-1.5-4.8l-6.9-4.1-3 4.4 7.7 4.4c0 .1 1.8 1.4 2.9 1.1.4-.133.666-.467.8-1Z" clip-rule="evenodd"/>
  <g opacity=".1" style="mix-blend-mode:multiply">
    <mask id="o" width="11" height="13" x="75" y="126" maskUnits="userSpaceOnUse" style="mask-type:luminance">
      <path fill="#fff" d="m85.684 136.907-8.84 1.35-1.62-10.59 8.84-1.36 1.62 10.6Z"/>
    </mask>
    <g mask="url(#o)">
      <path fill="#050505" d="m75.964 130.037 1.4-2.7 6.3 3.8s2.3 3.7 1.7 5.1c-.6 1.4-2.2 1-4-.3-1.9-1.4 1-1.8-.3-3.4-1.4-1.6-3.3-2.2-3.3-2.2s-.7 1.4-1.3 1.2c-.7-.3-1.1-.8-.5-1.5Z"/>
    </g>
  </g>
  <path stroke="#050505" stroke-width=".4" d="M112.264 130.137s.3.1.8-.5"/>
  <path fill="#4091CD" fill-rule="evenodd" d="M103.664 89.837c9.3 3.5 18.5-7.3 27.7-7.1.6 3.067 1.2 6.167 1.8 9.3-2.5-.4-4.9 0-7.3.8 0 .067-.034.1-.1.1 0-.2-.034-.4-.1-.6h.1c.1.2.5.2.6-.1.2-.2.2-.4.1-.6 0-.2-.2-.4-.3-.6a1.583 1.583 0 0 0-.3-.4c-.1.5-.3.9-.3 1.4a.884.884 0 0 1-.1-.4c-.2-.533-.5-1-.9-1.4l-.1-.1c.2.067.367.067.5 0a.68.68 0 0 0 .2-.5.68.68 0 0 0-.2-.5c-.2-.2-.4-.3-.7-.4-.067-.066-.134-.1-.2-.1 0 .267.033.5.1.7 0 .2 0 .4.2.6-.067 0-.1.034-.1.1v-.1c-.334-.333-.767-.6-1.3-.8h-.1c.3-.1.5-.5.4-.7 0-.2-.2-.3-.4-.4-.2-.133-.467-.2-.8-.2h-.1c.1.4.2.8.5 1.2a5.46 5.46 0 0 0-1.8-.1c.3-.3.4-.6.1-.8-.134-.133-.267-.166-.4-.1-.267 0-.534.033-.8.1-.067 0-.167.034-.3.1a1.6 1.6 0 0 1 .3.4c.2.1.4.3.6.3-.334.133-.7.267-1.1.4.133-.067.233-.1.3-.1l-1 .8c.333.067.666.1 1 .1.133 0 .3-.067.5-.2s.3-.266.3-.4c.066-.267 0-.4-.2-.4h-.1l.1-.1c.467-.067.9-.1 1.3-.1h.8l-.1.1c-.067 0-.167.033-.3.1a2.25 2.25 0 0 0-.8.4l-.2.2c.266.134.566.2.9.2.2.067.366.067.5 0 .266-.133.4-.333.4-.6 0-.133-.034-.233-.1-.3.533.133 1 .333 1.4.6 0 .067.033.1.1.1-.2 0-.5 0-.7.1a9.56 9.56 0 0 0-.7.2c.2.2.5.4.8.6a.88.88 0 0 0 .4.1c.3-.1.5-.3.5-.5v-.2h.1c.333.334.633.733.9 1.2a.9.9 0 0 1 .1.4c-.2-.3-.6-.5-.9-.6 0 .4 0 .8.1 1.1.067.133.166.267.3.4.3.1.6 0 .7-.4v-.1c.133.334.2.633.2.9.066.067.1.167.1.3v.5c0 .067.033.1.1.1.466.133.933.3 1.4.5.066 0 .1.033.1.1l-.2 1.2c0 .2 0 .2-.2.2-.467.067-.934.167-1.4.3h-.1v.3a1.25 1.25 0 0 0-.3.5v.1c.4.267.766.567 1.1.9v.1l-.8 1.2c0 .067-.034.1-.1.1a10.473 10.473 0 0 0-1.4-.3h-.1c-.134.2-.3.367-.5.5-.1.1-.1.1 0 .3.066.4.166.833.3 1.3v.1c-.4.267-.834.567-1.3.9h-.1a12.47 12.47 0 0 0-1-.9c0-.067-.034-.067-.1 0l-1.2.6v.1c-.2.533-.367 1.067-.5 1.6h-.1c-.467.2-.9.333-1.3.4-.1 0-.1 0-.1-.1a10.442 10.442 0 0 1-.3-1.4c0-.067-.034-.1-.1-.1h-.5c-.067 0-.134.033-.2.1-.334.467-.7.9-1.1 1.3 0 .067-.034.1-.1.1a5.5 5.5 0 0 1-1.1-.5h-.1l.2-.6.4-1c-.2-.2-.4-.367-.6-.5h-.1c-.067.067-.134.1-.2.1-.4.267-.8.5-1.2.7h-.1c-.267-.333-.5-.7-.7-1.1-.067-.067-.067-.133 0-.2l1-1.2.1-.1a4.028 4.028 0 0 0-.2-.5c0-.067-.033-.167-.1-.3a3.271 3.271 0 0 1-.1-.8c.2.2.5.2.7-.1.133-.2.166-.4.1-.6 0-.2-.034-.4-.1-.6a3.744 3.744 0 0 1-.2-.5l-.6 1.2c0-.733.133-1.466.4-2.2v.1c0 .2.3.4.5.3.2-.133.333-.266.4-.4.3-.4.4-.8.5-1.2v-.1l-.2.2c-.4.2-.8.4-1.1.7l.1-.1c.133-.333.3-.7.5-1.1.133-.2.266-.367.4-.5-.1.3.1.6.4.5.2-.067.366-.167.5-.3.266-.333.5-.667.7-1 0-.067.033-.1.1-.1h-.1a9.56 9.56 0 0 0-.7.2c-.267.067-.5.167-.7.3h.1c.466-.6 1-1.133 1.6-1.6l.1-.1c0 .067-.034.1-.1.1-.067.2-.067.367 0 .5.066.133.2.167.4.1.133 0 .267-.067.4-.2.2-.133.367-.3.5-.5l.4-.6a9.34 9.34 0 0 0-1.1.3s.2-.1.3-.2c-.4.2-.767.433-1.1.7.3-.5.4-1 .5-1.5l-.1.1-.8.6c-.2.2-.334.4-.4.6-.1.3.1.6.4.5-.534.467-1 1-1.4 1.6.1-.5 0-.9-.1-1.4-.267.334-.5.633-.7.9-.067.2-.1.4-.1.6-.1.2.1.4.3.4.066 0 .166-.033.3-.1v.1c-.267.333-.467.7-.6 1.1a5.58 5.58 0 0 1-.3.7v-.5l-.2-.6c0-.133-.034-.233-.1-.3l-.5 1c-.067.2-.1.4-.1.6.066.2.2.3.4.3s.333-.1.4-.3h.1c-.2.6-.3 1.167-.3 1.7 0 .2.033.4.1.6-.2-.3-.5-.6-.8-.9-.133.333-.2.7-.2 1.1 0 .2.067.367.2.5s.3.167.5.1c.133-.067.233-.2.3-.4.066.2.1.4.1.6h-.1c-2.4.8-4.8 1.2-7.2.8h-.1v-.1c-.6-3.133-1.2-6.333-1.8-9.6Zm13.4.5c.133-.067.233-.133.3-.2 0 0-.2.1-.3.2Zm1.5 9.2c0 .133.033.3.1.5.066.267.266.467.6.6l.8.2c.133.067.267.1.4.1.267-.4.5-.833.7-1.3a.68.68 0 0 0 .2-.5c.1-.3 0-.6 0-.9l-.1-.1h.1c.466.267.966.267 1.5 0l1.2-.6v-.1a5.756 5.756 0 0 0-.3-1c-.1-.4-.3-.6-.7-.8-.067 0-.167-.033-.3-.1.2-.067.366-.133.5-.2.2-.1.4-.2.6-.4.333-.333.566-.7.7-1.1l.2-.4c-.667.267-1.334.567-2 .9.066-.133.166-.267.3-.4.266-.2.533-.367.8-.5.133-.067.233-.133.3-.2.2-.1.3-.3.3-.5-.067 0-.1.033-.1.1a5.724 5.724 0 0 1-1 .3c-.134-.067-.234-.067-.3 0-.267.067-.5.167-.7.3h-.1l-.1.1c.4-.5.6-.9.8-1.4a1.567 1.567 0 0 1-.4.3c-.267.267-.567.4-.9.4h-.1l.4-.6c.3-.4.5-.7.5-1.2 0-.133-.034-.3-.1-.5v.1c-.1.3-.2.6-.4.8a.657.657 0 0 1-.3.3c-.267.134-.5.333-.7.6l-.1.1c0-.2-.067-.333-.2-.4-.067-.067-.1-.166-.1-.3.066-.066.1-.133.1-.2h-.1a1.24 1.24 0 0 0-.3.5c0 .067-.034.167-.1.3 0 .067-.034.133-.1.2-.067-.267-.134-.5-.2-.7v-.4c0-.2-.1-.3-.1-.4a.884.884 0 0 1-.1-.4v-.1c-.134.067-.2.167-.2.3-.067.067-.1.133-.1.2 0 .267-.034.567-.1.9-.134.133-.2.3-.2.5v.1c-.067-.2-.2-.3-.4-.3-.134-.066-.2-.167-.2-.3v-.1c-.067.067-.1.133-.1.2 0 .133.033.267.1.4 0 .1.1.2 0 .3a.896.896 0 0 1-.1.4h-.1a1.978 1.978 0 0 1-.6-.7c-.1-.2-.2-.4-.4-.5a.89.89 0 0 0-.4-.1v.1c.1.2.1.4.2.6.066.467.166.933.3 1.4l-.2-.2c-.1-.1-.2-.2-.4-.3h-.3l.2.6v.7a1.584 1.584 0 0 0-.4-.3c-.2-.133-.4-.2-.6-.2a1.128 1.128 0 0 0-.8.1 1.178 1.178 0 0 1-.3.2h.5c.2.1.3.1.4.3.067.067.1.167.1.3 0 .2.066.367.2.5.066.067.133.1.2.1-.5.3-1 .6-1.5.5.4.2.8.5 1.4.4a3.86 3.86 0 0 0-.5.2c-.2.067-.4.167-.6.3-.3.1-.6.2-.9.1-.067.134-.067.234 0 .3.066.067.166.1.3.1h.4c.2-.1.4-.1.6-.1h.9v.1c-.667.267-1.334.567-2 .9.333.2.7.333 1.1.4.266.067.533.033.8-.1l.4-.2-.1.1c-.2.334-.334.7-.4 1.1 0 .4.033.8.1 1.2 0 .067.033.133.1.2a.883.883 0 0 0 .4-.1c.4-.133.766-.3 1.1-.5.4-.267.733-.633 1-1.1Z" clip-rule="evenodd"/>
  <path fill="#0B7E52" d="M113.064 98.937c.066.133.133.3.2.5l-.1.1-1 1.2c-.067.066-.067.133 0 .2.2.4.433.767.7 1.1h.1c.4-.2.8-.434 1.2-.7.066 0 .133-.034.2-.1h.1c.2.133.4.3.6.5l-.4 1-.2.6h.1c.333.2.7.366 1.1.5.066 0 .1-.034.1-.1.4-.4.766-.834 1.1-1.3.066-.067.133-.1.2-.1h.5c.066 0 .1.033.1.1.066.466.167.933.3 1.4 0 .1 0 .1.1.1.4-.067.833-.2 1.3-.4h.1c.133-.533.3-1.067.5-1.6v-.1l1.2-.6c.066-.067.1-.067.1 0 .333.266.666.566 1 .9h.1c.466-.334.9-.634 1.3-.9v-.1c-.134-.467-.234-.9-.3-1.3-.1-.1-.1-.2 0-.3.2-.134.366-.3.5-.5h.1c.467.066.933.166 1.4.3.066 0 .1-.034.1-.1l.8-1.2v-.1a7.219 7.219 0 0 0-1.1-.9v-.1c.066-.2.167-.367.3-.5v-.3h.1c.466-.134.933-.234 1.4-.3.2 0 .2 0 .2-.2l.2-1.2c0-.067-.034-.1-.1-.1a11.8 11.8 0 0 0-1.4-.5c-.067 0-.1-.034-.1-.1v-.5h.1c2.4-.9 4.9-1.3 7.3-.9h.1c.6 3.2 1.2 6.433 1.8 9.7-9.2-3.5-18.5 7.3-27.7 7.1v-.1c-.6-3-1.2-6.034-1.8-9.1v-.1c2.5.5 5 0 7.4-.9h.1Z"/>
  <path fill="#EC2024" d="M133.264 92.337h-.1c-2.4-.4-4.9 0-7.3.9h-.1c0-.133-.034-.234-.1-.3h.1c.066 0 .1-.034.1-.1 2.4-.8 4.8-1.2 7.3-.8.066.133.1.233.1.3Z"/>
  <path fill="#F4EC22" fill-rule="evenodd" d="M118.564 99.537c-.267.467-.6.833-1 1.1-.334.2-.7.367-1.1.5a.886.886 0 0 1-.4.1c-.067-.067-.1-.133-.1-.2-.067-.4-.1-.8-.1-1.2.066-.4.2-.767.4-1.1l.1-.1-.4.2a1.13 1.13 0 0 1-.8.1c-.4-.1-.8-.2-1.1-.4a26.194 26.194 0 0 1 2-.9v-.1h-.9c-.2 0-.4 0-.6.1h-.4c-.134 0-.234-.033-.3-.1-.067-.067-.067-.167 0-.3.3.1.6 0 .9-.1.2-.133.4-.233.6-.3.133-.067.3-.133.5-.2-.6.1-1-.2-1.4-.4.5.1 1-.2 1.5-.5-.067 0-.134-.033-.2-.1a.676.676 0 0 1-.2-.5c0-.133-.034-.233-.1-.3 0-.2-.2-.2-.4-.3h-.5c.133-.067.233-.133.3-.2.266-.133.533-.167.8-.1.2 0 .4.1.6.2a1.6 1.6 0 0 1 .4.3v-.7l-.2-.6h.3c.2.1.3.2.4.3l.2.2a10.288 10.288 0 0 1-.3-1.4c-.1-.2-.1-.4-.2-.6v-.1a.89.89 0 0 1 .4.1c.2.1.3.3.4.5.133.267.333.5.6.7h.1a.896.896 0 0 0 .1-.4c.1-.1 0-.2 0-.3a.883.883 0 0 1-.1-.4c0-.067.033-.133.1-.2v.1c0 .133.066.233.2.3.2 0 .333.1.4.3v-.1c0-.2.066-.367.2-.5.066-.333.1-.633.1-.9 0-.067.033-.133.1-.2 0-.133.066-.233.2-.3v.1c0 .133.033.267.1.4.066.133.1.267.1.4v.4c.066.2.133.433.2.7.066-.067.1-.133.1-.2.066-.133.1-.233.1-.3.066-.2.166-.367.3-.5h.1c0 .067-.034.133-.1.2 0 .133.033.233.1.3.133.067.2.2.2.4l.1-.1c.2-.267.433-.467.7-.6a.658.658 0 0 0 .3-.3c.2-.2.3-.5.4-.8v-.1c.066.2.1.367.1.5 0 .5-.2.8-.5 1.2l-.4.6h.1c.333 0 .633-.133.9-.4a1.6 1.6 0 0 0 .4-.3c-.2.5-.4.9-.8 1.4l.1-.1h.1c.2-.133.433-.233.7-.3.066-.067.166-.067.3 0 .3 0 .6-.2 1-.3 0-.067.033-.1.1-.1 0 .2-.1.4-.3.5a1.178 1.178 0 0 1-.3.2 5.18 5.18 0 0 0-.8.5 1.536 1.536 0 0 0-.3.4 26.23 26.23 0 0 1 2-.9l-.2.4a6.2 6.2 0 0 1-.7 1.1c-.2.2-.4.3-.6.4a3.92 3.92 0 0 1-.5.2c.133.067.233.1.3.1.4.2.6.4.7.8.133.333.233.667.3 1v.1l-1.2.6c-.534.267-1.034.267-1.5 0h-.1l.1.1c0 .3.1.6 0 .9a.68.68 0 0 1-.2.5 8.1 8.1 0 0 1-.7 1.3.88.88 0 0 1-.4-.1l-.8-.2c-.334-.133-.534-.333-.6-.6-.067-.2-.1-.367-.1-.5Zm3.4-4.9-.4.2c-1.5.7-3 1.5-4.4 2.2l-.4.2c-.1 0-.1 0 0 .1v.2c.133.4.4.7.8.9.466.333 1 .433 1.6.3.333-.133.666-.3 1-.5.4-.2.733-.5 1-.9.533-.6.833-1.267.9-2 0-.2-.034-.433-.1-.7Z" clip-rule="evenodd"/>
  <path fill="#0B7E52" fill-rule="evenodd" d="M125.764 92.937h-.1c0-.267-.067-.567-.2-.9v.1c-.1.4-.4.5-.7.4a1.56 1.56 0 0 1-.3-.4c-.1-.3-.1-.7-.1-1.1.3.1.7.3.9.6a.896.896 0 0 0-.1-.4 5.664 5.664 0 0 0-.9-1.2h-.1v.2c0 .2-.2.4-.5.5a.885.885 0 0 1-.4-.1 1.816 1.816 0 0 1-.8-.6c.2-.067.433-.133.7-.2.2-.1.5-.1.7-.1-.067 0-.1-.033-.1-.1a4.446 4.446 0 0 0-1.4-.6c.066.067.1.167.1.3 0 .3-.1.4-.4.6-.134.067-.3.067-.5 0-.334 0-.634-.067-.9-.2l.2-.2c.266-.2.533-.333.8-.4.133-.067.233-.1.3-.1h.1v-.1h-.8c-.4 0-.833.033-1.3.1l-.1.1h.1c.2 0 .266.133.2.4 0 .1-.1.3-.3.4-.2.133-.367.2-.5.2-.334 0-.667-.033-1-.1l1-.8c-.067 0-.167.033-.3.1.4-.133.766-.267 1.1-.4-.2 0-.4-.2-.6-.3a1.58 1.58 0 0 0-.3-.4c.133-.067.233-.1.3-.1.266-.067.533-.1.8-.1.133-.067.266-.033.4.1.3.2.2.5-.1.8.6-.067 1.2-.033 1.8.1-.3-.4-.4-.8-.5-1.2h.1c.333 0 .6.067.8.2.2.067.333.2.4.4.1.2-.1.6-.4.7h.1c.533.2.966.467 1.3.8v.1h.1v-.1c-.2-.2-.2-.4-.2-.6-.067-.2-.1-.433-.1-.7.066 0 .133.033.2.1.3.1.5.2.7.4.133.133.2.3.2.5a.68.68 0 0 1-.2.5c-.133.067-.3.067-.5 0l.1.1c.4.4.7.867.9 1.4 0 .133.033.267.1.4 0-.5.2-.9.3-1.4.133.133.233.267.3.4.1.2.3.4.3.6.1.2.1.4-.1.6-.1.3-.5.3-.6.1h-.1c.066.2.1.4.1.6Zm-12.8 2.5h-.1c-.067.2-.2.3-.4.3s-.334-.1-.4-.3c0-.2.033-.4.1-.6l.5-1c.066.133.1.233.1.3l.2.6v.5c.133-.267.233-.5.3-.7.133-.4.333-.767.6-1.1v-.1c-.134.067-.234.1-.3.1-.2 0-.4-.2-.3-.4 0-.2.033-.4.1-.6.2-.267.433-.567.7-.9.1.5.2.9.1 1.4.4-.6.866-1.133 1.4-1.6-.3.1-.5-.2-.4-.5.066-.2.2-.4.4-.6l.8-.6.1-.1c-.1.5-.2 1-.5 1.5.333-.267.7-.5 1.1-.7-.2.1-.3.2-.3.2a9.34 9.34 0 0 1 1.1-.3l-.4.6c-.133.2-.3.367-.5.5-.133.133-.267.2-.4.2-.2.067-.334.033-.4-.1-.067-.133-.067-.3 0-.5.066 0 .1-.033.1-.1l-.1.1c-.6.467-1.134 1-1.6 1.6h-.1c.2-.133.433-.233.7-.3.2-.067.433-.133.7-.2h.1c-.067 0-.1.033-.1.1a9.2 9.2 0 0 1-.7 1 1.26 1.26 0 0 1-.5.3c-.3.1-.5-.2-.4-.5-.134.133-.267.3-.4.5-.2.4-.367.767-.5 1.1l-.1.1c.3-.3.7-.5 1.1-.7l.2-.2v.1c-.1.4-.2.8-.5 1.2-.067.133-.2.267-.4.4-.2.1-.5-.1-.5-.3v-.1a6.392 6.392 0 0 0-.4 2.2l.6-1.2c.066.2.133.367.2.5.066.2.1.4.1.6.066.2.033.4-.1.6-.2.3-.5.3-.7.1 0 .267.033.533.1.8l-.1.1c0-.2-.034-.4-.1-.6-.067.2-.167.333-.3.4-.2.067-.367.033-.5-.1a.68.68 0 0 1-.2-.5c0-.4.1-.7.2-1.1.3.3.6.6.8.9-.067-.2-.1-.4-.1-.6 0-.533.1-1.1.3-1.7Zm4.1-5.1c.1-.1.3-.2.3-.2a1.178 1.178 0 0 1-.3.2Zm-2.8 2.5v.1-.1Z" clip-rule="evenodd"/>
  <path fill="#EC2024" d="m112.864 98.737.1-.1c.067.133.1.233.1.3h-.1c-2.4.9-4.9 1.4-7.4.9 0-.067-.033-.167-.1-.3h.1c2.4.4 4.8 0 7.2-.8h.1Zm9.1-4.1c.067.266.1.5.1.7-.067.733-.367 1.4-.9 2-.267.4-.6.7-1 .9-.333.2-.667.367-1 .5-.6.133-1.134.033-1.6-.3-.4-.2-.667-.5-.8-.9v-.2c-.1-.1-.1-.1 0-.1l.4-.2c1.4-.7 2.9-1.5 4.4-2.2l.4-.2Z"/>
  <path fill="#4091CD" d="M124.364 90.037h-.1c0-.067.033-.1.1-.1v.1Zm-2.3-1.1v.1h-.1l.1-.1Z"/>
  <path fill="#652672" d="M107.564 106.337c1-.2 2.2-.2 1.1-2.9l-3-13.9c-.4-2.3.2-.8-2-.3" opacity=".2"/>
  <path fill="#D68B3E" d="M103.864 87.837c-.4.1-.7.5-.6 1l8.9 45.5c.1.5.5.8 1 .7.4-.1.7-.5.6-1l-8.9-45.5c-.1-.5-.5-.8-1-.7Z"/>
  <path fill="#652672" d="m105.064 89.237-.2-.7c-.1-.5-.5-.8-1-.7-.4.1-.7.5-.6 1l.3 1.4a7.37 7.37 0 0 0 1.5-1Z" opacity=".2"/>
  <path fill="#652672" d="M113.664 134.337c-.5.1-.9-.2-1-.7l-8.9-45.5c-.067-.067-.1-.133-.1-.2-.3.1-.5.5-.4.9l8.9 45.5c.1.5.5.8 1 .7.4-.1.6-.4.7-.8-.067.067-.133.1-.2.1Z" opacity=".2"/>
  <path fill="#FEC30B" d="M105.964 86.737c.2 1.2-.5 2.4-1.8 2.6-1.2.2-2.4-.5-2.6-1.8-.2-1.2.5-2.4 1.8-2.6 1.2-.2 2.4.5 2.6 1.8Z"/>
  <path fill="#FEFEFE" d="M104.764 85.537c.3.2.4.5.3.7-.1.1-.4.1-.7-.1-.2-.2-.4-.5-.3-.6.1-.2.4-.1.7 0Z" opacity=".2"/>
  <path fill="#CA4F36" d="M104.664 88.637c-1.2.2-2.4-.6-2.6-1.8-.134-.467-.1-.9.1-1.3-.5.5-.8 1.3-.6 2 .2 1.3 1.4 2 2.6 1.8.8-.1 1.4-.7 1.7-1.3a3.396 3.396 0 0 1-1.2.6Z" opacity=".3"/>
  <path fill="#B3805F" d="m109.764 124.537.7-.4.3-.1.7.7.4.6.5-.7.5 3-.7.7-.7-.3-.7-.8-.4-1.2v-.8l-.6-.7Z"/>
  <path fill="#050505" d="M111.164 128.037a75.425 75.425 0 0 1-.4-.4c-.3-.4-1.3-2-.2-2.9.1 0 .2 0 .3.1.1.1 0 .2 0 .2-.9.7 0 2 .2 2.4.5.6.9.7 1 .7.1 0 .2 0 .2.1.1.1.1.2 0 .3-.3.1-.7-.1-1.1-.5Z"/>
  <path fill="#050505" d="m110.164 125.437.5.4c.133.133.3.2.5.2.266.067.466 0 .6-.2.133-.134.233-.3.3-.5 0-.2-.1-.4-.3-.6l-.6-.7c-.3-.3-.8-.3-1.2 0v.2c.1.1.2.1.3 0 .2-.1.4-.1.6 0l.7.8c.066.067.1.166.1.3 0 .066-.067.167-.2.3-.067.067-.134.1-.2.1-.134 0-.233-.067-.3-.2l-.5-.4c-.1-.1-.2-.1-.3 0-.1.1-.1.2 0 .3Z"/>
  <g opacity=".1" style="mix-blend-mode:multiply">
    <mask id="p" width="3" height="3" x="110" y="124" maskUnits="userSpaceOnUse" style="mask-type:luminance">
      <path fill="#fff" d="m111.184 126.957-1.18-1.14 1.15-1.19 1.18 1.13-1.15 1.2Z"/>
    </mask>
    <g mask="url(#p)">
      <path fill="#050505" d="M110.464 125.337s.7.9 1.1.4c.5-.5.5-.2.5-.2s.1.7-.6 1c-.7.4-1.5-.6-1-1.2Z"/>
    </g>
  </g>
  <g opacity=".1" style="mix-blend-mode:multiply">
    <mask id="q" width="4" height="5" x="109" y="125" maskUnits="userSpaceOnUse" style="mask-type:luminance">
      <path fill="#fff" d="m110.734 129.407-1.13-3.32.64-.77 2.41 2.32-1.92 1.77Z"/>
    </mask>
    <g mask="url(#q)">
      <path fill="#050505" d="M110.264 125.337s-.5.3-.3 1.3c.3 1 .4 1.5.2 1.6-.2 0-.6.1-.6.4 0 .2.8.5 1.3.3.6-.3 1.1-.6 1.1-.6s-1.3-.6-1.5-1.3c-.2-.6-.2-1.7-.2-1.7Z"/>
    </g>
  </g>
  <path fill="#2391CE" d="m69.3 133.234-55.1 7.8-.7-4.7 55.3-7.8.5 4.7Zm20.2 9.5-77.2 10.9-.8-4.7 77.5-10.9.5 4.7Z"/>
  <path fill="#FEFEFE" fill-rule="evenodd" d="M12.6 125.334c.9-.1 2-.2 1.9 2.9-.1 2.9-1 3.1-2.4 3.3l-.6.1.2-6.1.9-.2Zm-.1.7-.1 4.7c1.3-.1 1.3-1.4 1.3-2.4s.1-2.6-1.2-2.3Z" clip-rule="evenodd"/>
  <path fill="#FEFEFE" d="m15.8 131.034-.7.1.1-6.1.8-.1-.2 6.1Zm-.3-6.3-.4-.2.7-1.3.5.3-.8 1.2Z"/>
  <path fill="#FEFEFE" fill-rule="evenodd" d="m18.2 124.634 1.2 5.9-.8.1-.2-1.1-1.2.1-.3 1.3-.7.1 1.4-6.3.6-.1Zm-.1 3.4-.2-2.2-.6 3.2 1-.2-.2-.8Zm4.1-3.9c.9-.2 2-.2 1.9 2.9-.1 2.8-1 3-2.4 3.2l-.6.1.2-6.1.9-.1Zm-.1.7-.1 4.7c1.3-.1 1.2-1.4 1.3-2.4 0-1 .1-2.6-1.2-2.3Z" clip-rule="evenodd"/>
  <path fill="#FEFEFE" d="M26.9 123.435v.7l-1.3.199-.1 1.901 1.2-.1v.699l-1.2.101v2.1l1.3-.201v.701l-2.2.299.2-6.099 2.1-.3Zm2.7-.301-.1 5.4 1.3-.2v.7l-2.2.3.2-6.1.8-.1Z"/>
  <path fill="#FEFEFE" fill-rule="evenodd" d="m32.7 122.734 1.1 5.9-.8.1-.2-1.2-1.2.2-.2 1.2-.8.1 1.5-6.3h.6Zm-.1 3.4-.3-2.1-.5 3.1.9-.1-.1-.9Zm-16.1 16.001v-7.801l3.3-.399h.9c.333.066.6.133.8.2.2.133.4.333.6.6.2.266.3.6.3 1 0 .6-.2 1.133-.6 1.599.533.334.8.834.8 1.5 0 1.6-1.033 2.567-3.1 2.901l-3 .4Zm2.3-2.5.9-.1c.333-.067.5-.234.5-.5 0-.3-.2-.4-.4-.4l-1 .199v.801Zm0-2.6.9-.1c.2 0 .3-.2.4-.4-.1-.4-.2-.4-.4-.4l-.9.1v.8Zm9.3-4.201 2.7 7.3-2.4.4-.3-.8-2.4.3-.3.9-2.5.3 2.9-8.1 2.3-.3Zm-1.7 5 1-.2-.5-1.5-.5 1.7Z" clip-rule="evenodd"/>
  <path fill="#FEFEFE" d="m38.4 131.435-.1 7.8-2.1.2-2.4-3v3.3l-2.3.4.1-7.801 2.1-.299 2.4 3.1v-3.4l2.3-.3Z"/>
  <path fill="#FEFEFE" fill-rule="evenodd" d="m39.5 139.035.1-7.701 3-.4c1.133-.2 2.033.034 2.7.7.733.667 1.1 1.534 1.1 2.601 0 1.133-.367 2.099-1.1 2.899-.733.867-1.667 1.367-2.8 1.5l-3 .401Zm2.3-5.901v3.401l.8-.101c.4-.066.733-.266 1-.6.267-.333.4-.766.4-1.299 0-.467-.1-.834-.3-1.101-.267-.333-.634-.466-1.1-.399l-.8.099Z" clip-rule="evenodd"/>
  <path fill="#FEFEFE" d="M49.6 132.134v.7l3-.4-.1 2-3 .4v.7l3.3-.5v2.2l-5.5.8v-7.8l5.5-.7v2.2l-3.2.4Z"/>
  <path fill="#FEFEFE" fill-rule="evenodd" d="m60.6 136.235-2.7.3-1.6-1.701h-.2v2l-2.3.301.1-7.7 3.1-.5h.6c.4.1.8.1 1.2.3.5.3.8.6 1 1.2.133.333.2.666.2 1 0 1.133-.433 2-1.3 2.6l1.9 2.2Zm-4.5-5v1.5l.9-.1c.4-.067.6-.334.6-.801 0-.5-.2-.699-.6-.699l-.9.1Zm10-3.501 2.7 7.4-2.5.3-.2-.8-2.5.4-.2.8-2.5.3 2.9-8.1 2.3-.3Zm-1.7 5 1-.1-.5-1.6-.5 1.7Zm-49.7 21.5.1-7.7 3.3-.5h.9c.267.067.5.167.7.3a.895.895 0 0 1 .6.5c.2.267.3.6.3 1 0 .6-.2 1.133-.6 1.6.6.333.9.867.9 1.6 0 1.6-1.067 2.533-3.2 2.8l-3 .4Zm2.3-2.5 1-.1c.333-.067.467-.233.4-.5 0-.3-.1-.4-.4-.3l-1 .1v.8Zm0-2.5 1-.2c.1 0 .3-.1.3-.4 0-.3-.2-.4-.3-.4l-1 .1v.9Zm8.5-4.3c1.133-.133 2.067.134 2.8.8.8.667 1.2 1.567 1.2 2.7 0 1.067-.4 2.067-1.2 3-.8.867-1.733 1.367-2.8 1.5-1.133.134-2.1-.133-2.9-.8-.733-.667-1.1-1.566-1.1-2.7 0-1.066.4-2.066 1.2-3 .733-.866 1.667-1.366 2.8-1.5Zm0 5.8a1.53 1.53 0 0 0 1.1-.7c.333-.4.5-.833.5-1.3 0-.533-.133-.966-.4-1.3-.333-.266-.733-.367-1.2-.3-.467.067-.867.3-1.2.7a3.11 3.11 0 0 0-.5 1.3c0 .533.167.967.5 1.3.333.267.733.367 1.2.3Z" clip-rule="evenodd"/>
  <path fill="#FEFEFE" d="M37.3 143.534v7.7l-2.1.3-2.4-3.1v3.4l-2.3.3.1-7.7 2-.3 2.4 3 .1-3.3 2.2-.3Z"/>
  <path fill="#FEFEFE" fill-rule="evenodd" d="m43.1 142.734 2.8 7.3-2.5.4-.2-.8-2.5.3-.3.9-2.4.3 2.8-8.1 2.3-.3Zm-1.7 5 1.1-.2-.5-1.5-.6 1.7Z" clip-rule="evenodd"/>
  <path fill="#FEFEFE" d="M48.9 144.134v.7l3-.4v2l-3 .4v.7l3.2-.5v2.2l-5.5.7v-7.7l5.5-.7v2.2l-3.2.4Z"/>
  <path fill="#FEFEFE" fill-rule="evenodd" d="m59.9 148.235-2.7.3-1.6-1.701h-.2v2l-2.3.301.1-7.801 3.1-.399h.6c.4 0 .8.1 1.2.3.5.3.8.6 1 1.2.133.266.2.6.2 1 0 1.066-.433 1.933-1.3 2.6l1.9 2.2Zm-4.5-5v1.5l.9-.2c.4 0 .6-.234.6-.701 0-.5-.2-.699-.6-.699l-.9.1Z" clip-rule="evenodd"/>
  <path fill="#FEFEFE" d="M62.9 142.234v.8l3-.4v1.9l-3 .4v.7l3.2-.4v2.1l-5.5.8v-7.8l5.5-.7v2.2l-3.2.4Zm11.1-3.6-.1 7.7-2.1.3-2.4-3.1v3.4l-2.3.3.1-7.7 2.1-.3 2.4 3v-3.3l2.3-.3Zm2.3 4.5c.6.533 1.2.767 1.8.7.467-.067.7-.233.7-.5 0-.133-.133-.233-.4-.3-.2-.067-.5-.133-.9-.2a4.47 4.47 0 0 1-1.1-.4 2.654 2.654 0 0 1-.9-.6c-.2-.333-.3-.733-.3-1.2 0-.4.167-.9.5-1.5.4-.6 1.3-1.1 2.3-1.2.8-.1 1.6 0 2 .3.5.3.9.6 1 .8l.1.1-1.5 1.4c-.267-.267-.533-.433-.8-.5-.2-.067-.467-.067-.8 0-.3 0-.5.2-.5.4s.4.4.9.4c.267.067.567.167.9.3.333.067.633.167.9.3.267.133.467.367.6.7.2.267.3.6.3 1s-.2 1-.6 1.6c-.5.6-1.4 1-2.4 1.2-.933.133-1.667.033-2.2-.3-.533-.333-.9-.7-1.1-1.1l1.5-1.4Zm8-3.7v.7l3-.4v2l-3 .4v.6l3.2-.4v2.2l-5.5.7.1-7.7 5.5-.8v2.2l-3.3.5Z"/>
</svg>
