<svg xmlns="http://www.w3.org/2000/svg" width="72" height="70" fill="none" viewBox="0 0 72 70">
  <path fill="#F9A419" d="M58.4 69.4 0 65.5 4.6 4.6l58.1 3.5-4.3 61.3Z"/>
  <path fill="#D38429" d="m4.6 4.6 58.1 3.5L72 3.4 16 0 4.6 4.6Z"/>
  <path fill="#B76B28" d="m58.4 69.4 9.5-8.1L72 3.4l-9.3 4.7-4.3 61.3Z"/>
  <mask id="a" width="14" height="67" x="58" y="3" maskUnits="userSpaceOnUse" style="mask-type:luminance">
    <path fill="#fff" d="m58.42 69.35 9.53-8.01L71.98 3.4l-9.3 4.73-4.26 61.22Z"/>
  </mask>
  <g mask="url(#a)">
    <path stroke="#F9A419" stroke-width=".4" d="m66.8 135.3 34.6-102.1m-36.3 98.1L99.7 29.1m-36.3 98.1L98 25m-36.3 98.1L96.3 21m-36.4 98.1L94.6 16.9M58.2 115 92.9 12.8m-36.4 98.1L91.1 8.8m-36.3 98.1L89.4 4.7m-36.3 98.1L87.7.6M51.4 98.8 86-3.4M49.7 94.7 84.3-7.5M48 90.6 82.6-11.6M46.3 86.6 80.9-15.6M44.6 82.5 79.2-19.7M42.9 78.4 77.5-23.8M41.2 74.4 75.8-27.8M39.5 70.3 74.1-31.9M37.7 66.2 72.4-35.9M36 62.2 70.7-40M32.6 54 67.2-48.1M30.9 50l35.9 85.3M32.6 45.1l35.8 85.4M34.2 40.2l35.9 85.4M35.9 35.4l35.8 85.3M37.5 30.5l35.9 85.4M39.2 25.6 75 111M40.8 20.8l35.9 85.3M42.5 15.9l35.8 85.4M44.1 11 80 96.4M45.8 6.2l35.8 85.3M47.4 1.3l35.9 85.4M49.1-3.6l35.8 85.4M50.7-8.4 86.6 77M52.3-13.3l35.9 85.4M54-18.1l35.9 85.3M55.6-23l35.9 85.4M57.3-27.9l35.8 85.4M58.9-32.7l35.9 85.3M60.6-37.6l35.8 85.4M62.2-42.5l35.9 85.4M63.9-47.3 99.7 38M65.5-52.2l35.9 85.4"/>
  </g>
  <path fill="#050505" fill-rule="evenodd" d="m57.1 17.8-.2 2.8-1.1-.1-.1 1.9-2.9-.2.1-1.9-3.9-.2.2-2.5 4-6 3.2.2-.4 6h1.1Zm-4.9-.3h1.1l.1-1.9-1.2 1.9Z" clip-rule="evenodd"/>
  <path fill="#FEFEFE" fill-rule="evenodd" d="m58.3 17-.1 2.7h-1.1l-.1 1.8-3-.2.1-1.8-3.8-.3.1-2.5 4.1-6 3.1.2-.3 6 1 .1Zm-5-.3 1.2.1.1-2-1.3 1.9Z" clip-rule="evenodd"/>
  <path fill="#F7B24D" d="M36.5 40.4c.1-.1.1-.3.1-.4 0-.1 0-.2.2-.3.067 0 .1-.067.1-.2a.887.887 0 0 1-.1-.4V39h-.1c-.1.2-.2.4-.2.6a.888.888 0 0 1-.1.4c-.2.1-.2.3-.1.4 0 .067.033.133.1.2 0 0 0 .1-.1.1-.067 0-.1.033-.1.1v.5a.888.888 0 0 1-.1.4c-.133.2-.267.433-.4.7a9.56 9.56 0 0 1-.2.7c-.1.2-.2.4-.4.5-.1.2-.3.2-.5.2-.1 0-.2.1-.4.1-.2.2-.4.2-.6.2h-.3c-.1.1-.3 0-.4-.1-.067-.067-.133-.067-.2 0h-.4c0 .1-.1.1-.2 0-.067 0-.1-.033-.1-.1-.067 0-.1-.067-.1-.2.1-.2 0-.3 0-.5a.888.888 0 0 1-.1-.4c0-.133-.067-.3-.2-.5 0 .1 0 .2.1.3v.1c-.1.2-.1.3 0 .5v.1c0 .133.033.233.1.3v.3c-.1.1 0 .2 0 .2.067.133.167.2.3.2.2 0 .4.1.7 0h.1c0 .1.1.2.2.3 0 .1.1.2 0 .4 0 .2.2.4.4.5.067 0 .133.033.2.1 0 .133.033.267.1.4 0 .2 0 .4-.1.5-.1.1-.1.3-.1.4 0 .067-.033.133-.1.2l-.2.4c0 .067-.033.1-.1.1-.067.066-.133.1-.2.1-.067.133-.167.2-.3.2-.334.2-.633.4-.9.6-.4.2-.8.3-1.3.4h-.1c-.2 0-.3.1-.4.2v.1c.067 0 .133.033.2.1s.1.167.1.3v.3c0 .2-.034.367-.1.5-.1.1 0 .2.1.2h.2l.1.1-.1.1-.2.2c-.133.133-.267.2-.4.2-.1 0-.3.1-.4.1-.2.1-.3.1-.3-.1-.067-.067-.133-.1-.2-.1-.133.066-.3.1-.5.1-.067 0-.1.033-.1.1-.067 0-.067.033 0 .1.2.1.2.4.2.6 0 .2.1.4.2.5.1.1.2.1.3.1.1 0 .1-.1.1-.1.067-.133.1-.233.1-.3.067-.067.133-.1.2-.1.067.066.133.1.2.1.1-.1.2 0 .2.1-.067.133-.1.3-.1.5v.1c0 .133-.034.167-.1.1a.655.655 0 0 1-.3-.3c-.1-.1-.2-.1-.3 0-.133.067-.167.133-.1.2s.167.133.3.2v.1l-.1.1c-.2.1-.2.3-.2.4v.2c-.067.133-.033.267.1.4v.1c.067.2.067.4 0 .6 0 .133-.067.166-.2.1-.067-.067-.1-.033-.1.1a.654.654 0 0 0-.3.3 1.164 1.164 0 0 1-.3.2c-.1.1-.2.2-.2.4a.888.888 0 0 1-.1.4v.4c.067.133.133.2.2.2v.1c.2.2.4.1.6.1.2 0 .3-.1.4-.1.133 0 .2.033.2.1.1.1.2.2.1.4-.067 0-.1.033-.1.1-.067.133-.034.2.1.2.133 0 .2.033.2.1v.3c-.2.2-.3.5-.5.6a1.566 1.566 0 0 1-.4.3c-.067.067-.1.167-.1.3 0 .2-.033.433-.1.7v.1c.067.067.1.133.1.2 0 .1 0 .1-.1.2h-.1c-.133 0-.233.067-.3.2 0 .1-.2.3-.2.5v.1c-.1 0 0 .1 0 .2.067.067.1.133.1.2 0 .2.1.367.3.5.067.133.167.267.3.4.067 0 .133.033.2.1.067 0 .067.033 0 .1-.067.066-.133.1-.2.1h-.3c-.067 0-.133-.034-.2-.1-.133.066-.2.133-.2.2 0 .133.067.2.2.2s.233.033.3.1c.133.066.233.066.3 0 0-.1.1-.1.2-.1s.1.1.2.1.1.1 0 .2c0 .133.067.233.2.3.067 0 .1.033.1.1.2.2.4.3.6.2h.1c0 .067.033.133.1.2 0 .067.033.1.1.1.133 0 .233.033.3.1.2.1.3.1.5.1a.425.425 0 0 1 .4 0l.1-.1c.2 0 .2 0 .2.2.067.067.067.1 0 .1l-.2.2c-.1.1-.2.2-.4.1 0-.1-.1 0-.1 0a1.78 1.78 0 0 1-.8.2c0 .067-.034.067-.1 0-.1 0-.2.1-.4.1l-.6.2H29c-.1.1-.3.1-.4 0-.067-.067-.134-.1-.2-.1-.2.1-.4.2-.5.3h-.2c-.067-.067-.167-.067-.3 0-.067 0-.1-.033-.1-.1s.033-.133.1-.2c.1-.1.2-.3.5-.3h.4c.1 0 .2-.1.2-.1 0-.1-.1-.2-.2-.2h-.1s-.1 0-.2-.1a.887.887 0 0 1-.1-.4c0-.1.1-.1.1-.1h.1c.1-.1.1-.1.1-.2H28a.887.887 0 0 0-.4.1c-.133 0-.167-.067-.1-.2a.654.654 0 0 1 .3-.3l.2-.2c.067-.067.033-.1-.1-.1a.425.425 0 0 0-.4 0c0 .1-.1.1 0 .2 0 .1-.1.1-.1.2l-.2.2a.426.426 0 0 0 0 .4c.067.067.1.133.1.2 0 .2-.1.3-.3.4h-.4c-.1 0-.2 0-.2-.1 0-.067-.033-.133-.1-.2 0-.1 0-.2.1-.3.1-.1.2-.2.3-.1h.1c.067-.067.067-.1 0-.1l-.2-.4c-.067-.067-.134-.1-.2-.1h-.5c-.1-.1-.1-.1-.2 0 0 0 0 .1-.1.1 0-.1-.1-.1-.1-.2h-.1c-.1-.1-.1-.1 0-.2.133-.067.167-.133.1-.2v-.2c-.133.067-.233.067-.3 0H25l-.1.1v.1c0 .1.1.2 0 .2-.133.067-.233.033-.3-.1-.067 0-.1-.033-.1-.1 0-.133-.067-.233-.2-.3 0-.067-.034-.1-.1-.1 0-.1-.1-.1-.2 0 0 .1-.1.1-.2 0h-.3c-.067-.067-.1-.133-.1-.2.067 0 .133-.033.2-.1.1 0 .2-.1.2-.2.067-.133.033-.2-.1-.2 0-.067-.033-.1-.1-.1-.2 0-.2-.3-.1-.4.1-.1.1-.1 0-.2v-.2c.1-.2 0-.4-.2-.4V61c-.067-.133-.167-.2-.3-.2-.1 0 0-.1 0-.1 0-.1.1-.3.1-.4-.067-.133 0-.2.2-.2.133 0 .233-.067.3-.2.067-.067.067-.1 0-.1-.067-.067-.134-.1-.2-.1h-.2c0 .1 0 .1-.1.1 0-.2 0-.2-.1-.1-.133.067-.267.033-.4-.1-.067-.067-.034-.133.1-.2l.2-.2c0-.133-.033-.233-.1-.3 0-.067-.034-.067-.1 0-.067.067-.133.1-.2.1-.067.067-.1.067-.1 0 0-.1 0-.1-.1-.1-.067 0-.1.033-.1.1-.067 0-.1.033-.1.1-.067.133-.134.167-.2.1-.133 0-.233-.034-.3-.1-.067 0-.067-.033 0-.1s.133-.1.2-.1l.2-.2c.067-.067.067-.133 0-.2s-.067-.133 0-.2c0-.067.033-.1.1-.1.1-.2.2-.2.3 0 0 .1.1.1.2.1.2 0 .2 0 .2.2l.1.1c.067-.067.1-.133.1-.2a.887.887 0 0 0 .1-.4c.1-.1.1-.2 0-.3-.1-.1-.1-.4 0-.4.067-.067.1-.067.1 0h.1c.067 0 .067 0 0 0 0-.1 0-.2-.1-.2-.133 0-.167-.067-.1-.2 0-.067-.033-.133-.1-.2 0-.067.067-.133.2-.2 0 0 .1 0 .1-.1 0-.133-.034-.2-.1-.2-.3-.1-.3-.3-.3-.5-.067-.133-.1-.233-.1-.3v-.6c-.067-.067-.067-.133 0-.2v-.1c-.1-.1 0-.2 0-.4-.067-.067-.133-.1-.2-.1v-.2l.1-.1c.067-.067.067-.1 0-.1-.1 0-.3-.1-.4 0 0 .066-.034.1-.1.1-.2 0-.4 0-.6-.1-.067-.067-.1-.167-.1-.3-.067-.067-.067-.167 0-.3.1-.2.1-.4 0-.6a.425.425 0 0 1 0-.4.425.425 0 0 0 0-.4c-.067-.067-.1-.167-.1-.3a.654.654 0 0 0-.3-.3c0-.067-.033-.133-.1-.2 0-.2-.1-.3-.2-.5 0-.133.033-.3.1-.5 0-.1.1-.3.1-.5h.1c.1-.1.1-.3 0-.5v-.4c.067-.267.133-.5.2-.7 0-.2 0-.3-.1-.5-.067-.067-.1-.167-.1-.3.067-.067.1-.133.1-.2a.425.425 0 0 0 0-.4c0-.1.1-.3.1-.4 0-.333-.067-.6-.2-.8 0-.067-.033-.133-.1-.2 0-.2-.034-.4-.1-.6-.1-.1 0-.3-.1-.5s0-.5 0-.8c0-.1 0-.2-.1-.3-.1-.1-.1-.2-.2-.3v-.5a.925.925 0 0 1 0-.6c0-.3-.1-.7-.1-1v-.2c0-.133-.033-.233-.1-.3-.067-.067-.067-.167 0-.3a.92.92 0 0 0 0-.6c-.1-.4-.1-.7-.2-1 0-.067-.033-.133-.1-.2-.133-.2-.167-.433-.1-.7a.887.887 0 0 0-.1-.4V36c.1-.3 0-.6-.2-.8-.067-.067-.1-.133-.1-.2 0-.4-.2-.7-.4-1 0-.067-.033-.1-.1-.1v-.2c0-.3-.3-.3-.5-.4-.2-.1-.4-.2-.5-.3a.654.654 0 0 0-.3-.3.678.678 0 0 0-.5-.2c-.2.067-.4.033-.6-.1h-.2c-.067.067-.133.1-.2.1-.3-.1-.6-.2-.8-.3-.133-.067-.233-.1-.3-.1h-.2c-.067 0-.133-.033-.2-.1-.133-.133-.267-.2-.4-.2-.1 0-.2 0-.3-.1-.067 0-.1-.034-.1-.1l-.2-.2c-.067 0-.167-.034-.3-.1-.133-.067-.167-.167-.1-.3a.888.888 0 0 0-.1-.4c-.067 0-.1-.033-.1-.1l-.2-.2c-.133 0-.233-.067-.3-.2-.067-.134-.133-.2-.2-.2l-.4-.4c0-.067-.067-.134-.2-.2-.067 0-.1-.033-.1-.1a7.202 7.202 0 0 1-.9-1.1c-.1-.1-.2-.3-.4-.4-.2 0-.3-.2-.5-.3a1.566 1.566 0 0 0-.3-.4c0-.1-.2-.1-.2-.2-.1 0-.1-.1-.2-.1 0-.1-.1-.2-.2-.2-.1-.1-.4-.2-.6-.2-.1 0-.3-.1-.4-.1-.1-.1-.1-.2 0-.3.067-.067.067-.133 0-.2-.1-.1-.1-.2-.2-.2-.2 0-.3-.2-.3-.3-.067-.067-.1-.2-.1-.4v-.2c0-.2.1-.4.3-.5a1.14 1.14 0 0 1 .2-.3.654.654 0 0 0 .3-.3v-.3c-.1 0 0-.1-.1-.2 0 0 .1-.1 0-.1S8 23 8 23v.3c-.1.1-.2.1-.3 0-.067-.067-.133-.1-.2-.1-.067-.067-.1-.133-.1-.2s-.033-.1-.1-.1c-.067-.067-.1-.133-.1-.2v-.1c-.1-.1 0-.2 0-.3.1-.2.1-.4 0-.5-.067-.2-.033-.367.1-.5.067-.134.067-.233 0-.3-.067 0-.1-.033-.1-.1-.133-.133-.1-.233.1-.3 0-.067.033-.1.1-.1.066 0 .1-.033.1-.1.133-.133.266-.2.4-.2.133 0 .167-.067.1-.2-.1-.1-.1-.3 0-.4v-.3c-.067-.067-.033-.134.1-.2l.2-.2.2-.2c.1-.1.2-.3.2-.5.067-.067.1-.133.1-.2.1-.1.1-.2 0-.3-.1-.1-.1-.2-.2-.3v-.3c0-.134-.067-.267-.2-.4-.134-.067-.167-.167-.1-.3v-.2c-.133-.133-.2-.267-.2-.4 0-.134-.033-.233-.1-.3-.1 0-.2-.1-.2-.2h-.1c-.1-.1-.1-.1 0-.2s0-.2.1-.3c0-.1.1-.1.2-.2a.888.888 0 0 0 .1-.4c0-.133.033-.267.1-.4.1-.1.1-.2.2-.3v-.2c0-.1.1-.1.2-.1.2 0 .3-.2.2-.4 0-.134-.033-.3-.1-.5v-.2c.1-.3.3-.4.6-.5.133 0 .233-.067.3-.2.1-.3.2-.3.4-.2.2 0 .3 0 .4-.2a1.15 1.15 0 0 1 .2-.3c.133-.067.2-.167.2-.3.1-.2.2-.4.4-.5.133-.067.3-.1.5-.1.2-.1.2-.1.2.1l.1.1c0 .067-.034.1-.1.1-.1 0-.1 0-.1.1-.067.133-.167.2-.3.2h-.1c-.1.1-.2.1-.2.2 0 0 0 .1.1.2.1 0 .2.1.2.2.2.2.2.5.1.8-.067.066-.067.133 0 .2.1.2.2.3.4.4.2.067.333.033.4-.1.066-.067.066-.134 0-.2 0-.067-.033-.133-.1-.2 0-.1-.1-.2-.1-.4-.1 0-.2-.1-.2-.1-.3-.1-.4-.4-.2-.6.133-.067.233-.1.3-.1.133-.067.233-.133.3-.2 0-.1.1-.1 0-.2s.1-.6.2-.6h.3v.1c.066.133.133.233.2.3.1.1.2.1.3.1.2-.067.367-.1.5-.1.1 0 .1 0 .2.1.1.2.2.3.4.3.067 0 .133.033.2.1.133 0 .233-.033.3-.1.067-.067.167-.133.3-.2 0-.1.1-.1.2-.1.067 0 .167-.034.3-.1 0-.1.1-.1.2 0 .2.133.4.167.6.1.2 0 .4 0 .5-.1.1 0 .1 0 .1-.1l.2-.2c0-.1.1-.2.2-.2.2 0 .4-.033.6-.1.067 0 .1-.033.1-.1.1-.1.3-.1.4-.1 0 .1-.1.1-.1.2-.067.067-.1.133-.1.2 0 .133.067.166.2.1.1 0 .1 0 .2.1.067.067.133.067.2 0l.2-.2c.067-.067.1-.034.1.1.1.1.1.1.2.1.267-.133.466-.1.6.1v.1c-.067.133-.1.233-.1.3 0 .1-.1.2 0 .2 0 .1.1 0 .2-.1.1-.2.3-.1.5-.2.1 0 .2.1.3.1.1.1.3.2.4.2.133 0 .267.033.4.1 0 .067.067.067.2 0l.1.1c.1.1.3.2.4.5.067.066.133.1.2.1.3-.2.6 0 .9.1.1.1.3.2.4.3h.2l.2-.2h.2c.1.1.1 0 .2-.1 0-.067.033-.1.1-.1.3 0 .5-.1.7-.1h.2c.2-.2.5-.2.7-.1.1 0 .2 0 .3.1.3 0 .5.1.8.2.267 0 .533.1.8.3.067.066.133.1.2.1.2 0 .333.1.4.3.1.1.1.3.3.4.1.1.1.2.1.3 0 .067.033.167.1.3 0 .067.033.1.1.1.2.066.367.1.5.1l.2.2v.2c.1.1.1.2 0 .3v.1c.067.133.067.233 0 .3-.1.1-.3.2-.4.3-.067.066-.1.133-.1.2-.067.067-.1.166-.1.3v.1l.4.4c.1.1.1.1.2.1v-.2c-.1-.1-.1-.2-.2-.3-.067-.067-.067-.133 0-.2l.2-.2c.067-.067.133-.1.2-.1.2.1.4.1.6 0 .2 0 .367-.034.5-.1 0-.067.033-.1.1-.1s.1.033.1.1v.7c0 .067-.033.133-.1.2a1.569 1.569 0 0 1-.4.3c-.3 0-.5.2-.8.1v.1c.067.067.133.1.2.1h.1c.1.1.3 0 .4 0 .1-.1.2-.2.2-.1.067.067.1.067.1 0 .067 0 .133-.034.2-.1 0-.134.067-.267.2-.4s.2-.3.2-.5c.1-.3.2-.4.5-.4.066 0 .133-.033.2-.1s.133-.067.2 0c.133.067.267.1.4.1.1 0 .2.1.4.1h.1c.133-.067.233-.067.3 0 .2.067.4.067.6 0 .3 0 .6.3.5.6v.3c.133 0 .2-.033.2-.1 0-.2 0-.2.2-.2.133 0 .233-.1.3-.3.2-.2.3-.2.5-.1h.2c.067.133.167.167.3.1.067-.067.133-.067.2 0 .333.133.6.067.8-.2.3-.1.6-.2.9-.1h.2c.133-.067.233-.067.3 0l.8.2c.2.1.4.2.6.2.2 0 .333.1.4.3.067.133.2.233.4.3.066.067.133.067.2 0 .2 0 .4-.1.6 0 .1 0 .2-.1.3-.1.1-.1.1-.1.2 0 .2.267.4.5.6.7.1.2.3.4.2.6v.2c.133.2.233.433.3.7v.1c-.1.2 0 .4-.1.6l-.2.6c0 .066-.033.133-.1.2-.2.1-.3.3-.4.5-.133.133-.233.333-.3.6 0 .066-.033.1-.1.1-.1.1-.1.2-.1.3 0 .2-.033.367-.1.5v.2c0 .2-.1.3-.2.4h-.1c-.2 0-.3.1-.5.2.1.1.3 0 .3.1-.067.067-.133.1-.2.1-.067.067-.067.133 0 .2.1.1.2.3.2.5 0 .067.033.1.1.1.1.2.1.5.1.7.1.2.1.4.2.6.133.133.166.267.1.4 0 .2.033.367.1.5.1.1.1.3.1.4v.3c0 .1-.1.2-.1.2-.2.2-.2.3-.1.5.066.067.1.167.1.3 0 .2.033.367.1.5 0 .1 0 .2-.1.2-.067 0-.067.033 0 .1 0 .1-.1.3-.1.4-.1.1-.1.3-.2.5 0 .067-.033.133-.1.2a.425.425 0 0 0 0 .4c.067.133.033.3-.1.5-.1.1-.1.3-.3.4-.1.1-.1.1-.1.2v.2c0 .1-.1.1-.2.2h-.1c-.133-.067-.2-.067-.2 0-.1.2-.2.2-.4.2h-.2l-.4.2c-.067 0-.1.033-.1.1-.2 0-.3 0-.3.2 0 0 0 .1-.1.1-.1.1-.1.2-.3.2 0 .067-.033.1-.1.1-.067.066-.033.133.1.2h.1c-.1.1-.3.1-.4.2h-.1c-.067-.067-.167-.067-.3 0 0 .067-.033.1-.1.1-.1.1-.2.2-.2.3l-.2.2c-.2.2-.367.433-.5.7-.067.2-.167.3-.3.3h-.2c-.133.066-.133.133 0 .2 0 .067.033.133.1.2s.067.1 0 .1l-.1.1c-.067 0-.067.033 0 .1.2.1.2.3.4.4v.1c.1.2.2.3.2.5v.6c0 .1-.1.2-.1.3-.067.2-.1.4-.1.6l-.2.2c-.067.067-.1.166-.1.3 0 .133-.033.233-.1.3v.2c0 .2 0 .4-.1.5-.067.067-.067.133 0 .2.1.2 0 .3 0 .4-.1.2-.3.4-.4.6l-.2.2c0 .133-.067.2-.2.2Z"/>
  <path fill="#D38429" d="M37.8 39.5c.1-.1.1-.3.2-.5 0-.1 0-.1.1-.2.067-.067.1-.167.1-.3v-.4h-.1c-.1.2-.2.4-.2.6 0 .133-.067.267-.2.4-.1.1-.1.3-.1.4l.1.1c0 .1 0 .2-.1.2-.067 0-.1.033-.1.1v.4c.067.2.033.367-.1.5-.133.2-.233.433-.3.7a5.46 5.46 0 0 1-.3.7c0 .2-.2.3-.3.5-.1.2-.3.2-.5.2s-.3.1-.4.1h-.1c-.2.2-.4.2-.6.2h-.2c-.2 0-.4 0-.5-.1-.067-.067-.133-.1-.2-.1-.067.067-.133.1-.2.1-.066-.067-.1-.067-.1 0-.1.1-.2.1-.3 0l-.1-.1c-.066-.067-.1-.133-.1-.2.1-.2.1-.4 0-.6-.067-.067-.1-.167-.1-.3 0-.2-.033-.367-.1-.5-.1.1 0 .2 0 .2.067.066.067.133 0 .2-.1.2-.1.3 0 .4.067.067.1.133.1.2-.067.133-.067.233 0 .3.067.067.067.167 0 .3 0 0 0 .1.1.2l.2.2h.8c.1.1.2.2.2.3 0 .1.1.2.1.4s.1.4.4.4c.067 0 .1.033.1.1.067.133.1.267.1.4 0 .3.1.4-.1.6 0 .1 0 .3-.1.4v.2c-.133.067-.233.2-.3.4l-.1.1c-.067 0-.1.033-.1.1a1.163 1.163 0 0 0-.3.2c-.333.133-.666.3-1 .5-.4.3-.8.4-1.2.5h-.2c-.1 0-.2.1-.3.1-.067.066-.067.1 0 .1.067.067.1.133.1.2.133.067.2.167.2.3-.067.067-.1.167-.1.3a.887.887 0 0 1-.1.4c0 .2 0 .3.2.3h.1c.067 0 .1.033.1.1a.654.654 0 0 0-.3.3 1.167 1.167 0 0 1-.3.2c-.2 0-.3.1-.5.1-.1.1-.2.1-.3-.1 0-.067-.033-.1-.1-.1h-.6c-.067 0-.1.033-.1.1v.2c.3.1.2.4.3.6h-.1c0 .2.2.4.3.5 0 .1.2 0 .3 0l.1-.1v-.2c.067-.067.133-.1.2-.1h.2c.2 0 .2 0 .2.2v.6c0 .067-.033.1-.1.1a1.57 1.57 0 0 1-.4-.3c-.1-.1-.2-.1-.3 0-.067.067-.067.133 0 .2s.134.1.2.1c.067.066.067.133 0 .2l-.1.1c-.1.1-.1.2-.1.4v.2c-.067.133-.067.233 0 .3l.1.1v.7c0 .133-.067.167-.2.1-.067-.067-.133-.067-.2 0a1.164 1.164 0 0 1-.2.3l-.3.3c-.2 0-.3.2-.3.4v.4a.425.425 0 0 0 0 .4c0 .067.033.133.1.2.067 0 .1.033.1.1.2.1.4.1.6.1.1-.1.2-.1.4-.1.067-.067.133-.033.2.1 0 .1.2.2 0 .3 0 .067-.033.133-.1.2s0 .1.2.1c.133.067.2.133.2.2 0 .1 0 .2-.1.2-.1.3-.2.5-.5.7a.654.654 0 0 1-.3.3c-.067.067-.1.167-.1.3l-.2.6c0 .067.033.133.1.2v.2c.1.1 0 .1-.1.2h-.1c-.133 0-.2.033-.2.1-.1.2-.2.4-.2.6-.2.1-.1.2 0 .3v.2c0 .2.1.367.3.5.133.133.267.233.4.3 0 .067.034.1.1.1.067.067.067.133 0 .2s-.133.1-.2.1-.166-.033-.3-.1h-.2c-.133 0-.2.067-.2.2s.067.2.2.2.267.033.4.1c.067.067.133.067.2 0 .1-.1.1-.1.2-.1s.2.1.3.1v.1c-.067.2-.033.333.1.4.067 0 .133.033.2.1.1.1.3.2.5.2.067-.067.1-.067.1 0l.1.1c.067.133.133.2.2.2s.133.033.2.1c.2.1.4.1.5.1a.888.888 0 0 1 .4-.1h.1c.2 0 .2 0 .3.2l-.1.1-.2.2c-.1.1-.2.1-.3.1-.1-.1-.1 0-.2 0-.2.133-.433.2-.7.2h-.1c-.2 0-.3 0-.4.1-.2.067-.4.1-.6.1-.133 0-.233.033-.3.1-.1.1-.2 0-.3-.1h-.3c-.1.1-.3.1-.5.2-.067.067-.1.067-.1 0a.888.888 0 0 0-.4.1c-.067 0-.1-.034-.1-.1 0-.133.033-.2.1-.2.1-.1.3-.3.5-.3h.3c.067 0 .1-.033.1-.1.1 0 .2 0 .2-.1 0 0-.1-.1-.2-.1s-.2 0-.2-.1c-.133-.133-.2-.267-.2-.4 0-.1.1-.1.2-.1h.1v-.2c0-.1-.1 0-.1 0h-.5c-.067.067-.067.033 0-.1l.2-.4c.067 0 .133-.033.2-.1s.067-.1 0-.1a.425.425 0 0 0-.4 0c-.1.1-.1.1-.1.2 0 0 0 .1-.1.1a1.163 1.163 0 0 0-.2.3.425.425 0 0 0 0 .4c.067.067.1.133.1.2 0 .2-.1.3-.3.3a.888.888 0 0 1-.4.1c-.1 0-.1 0-.1-.1-.067-.067-.1-.133-.1-.2-.1-.1-.1-.2 0-.3.1-.1.2-.2.3-.1.067 0 .1-.034.1-.1.133 0 .167-.033.1-.1a.654.654 0 0 1-.3-.3l-.1-.1h-.3c-.067 0-.133-.033-.2-.1-.1 0-.2 0-.3.1 0 0 0 .1-.1.1 0-.1 0-.2-.1-.2-.1-.1-.1-.1 0-.2.067-.067.1-.133.1-.2 0-.1 0-.2-.1-.3-.067.133-.167.167-.3.1h-.2v.2c0 .1 0 .2-.1.2-.133.067-.233.033-.3-.1v-.2c0-.133-.067-.233-.2-.3-.067 0-.1-.034-.1-.1h-.2c-.1.1-.2.1-.3.1-.067 0-.167-.034-.3-.1-.067 0-.067-.033 0-.1 0-.067.033-.1.1-.1.1 0 .2-.1.3-.2.067-.133.034-.233-.1-.3H25c-.2-.1-.3-.3-.1-.4v-.2c-.1-.1-.1-.2-.1-.3.1-.2.1-.3-.1-.4h-.1c-.067-.133-.167-.2-.3-.2v-.2c.1-.1.1-.2.1-.3-.067-.133 0-.233.2-.3a.887.887 0 0 0 .4-.1c.067-.067.067-.1 0-.1-.133-.067-.233-.1-.3-.1-.067-.067-.1-.067-.1 0-.1 0-.1.1-.1.1-.067 0-.1-.033-.1-.1.1-.1 0-.1-.1-.1-.133.133-.233.133-.3 0-.067-.133-.067-.233 0-.3.1 0 .2 0 .2-.1 0-.133-.033-.233-.1-.3 0-.133-.033-.167-.1-.1s-.1.133-.1.2c-.067.066-.133.066-.2 0 0-.1 0-.1-.1-.1-.067-.067-.1-.067-.1 0-.067.067-.1.133-.1.2-.067.067-.133.1-.2.1s-.133-.033-.2-.1c-.133-.067-.133-.1 0-.1 0-.067.034-.1.1-.1l.2-.2c.067-.067.067-.133 0-.2s-.067-.133 0-.2.1-.133.1-.2c.1-.1.3-.1.3.1.1.1.2.1.3.1.1 0 .2 0 .2.2v.1c.067-.067.1-.133.1-.2l.2-.4c0-.1 0-.2-.1-.4-.1-.1 0-.3.1-.4h.1c0 .067.033.1.1.1 0-.1-.1-.2-.2-.2-.067-.067-.1-.133-.1-.2v-.2c0-.133.033-.2.1-.2.1 0 .1-.1.1-.2 0-.067-.033-.1-.1-.1-.2-.1-.3-.3-.3-.5v-.4c-.1-.1-.1-.2-.1-.3v-.4c.067 0 .1-.034.1-.1-.1-.1-.1-.3-.1-.4 0-.067-.033-.133-.1-.2-.1 0-.1-.1 0-.1 0-.067.034-.1.1-.1 0-.067-.033-.1-.1-.1-.1-.1-.2-.1-.3 0-.067.067-.133.1-.2.1-.2 0-.4 0-.5-.1-.133-.067-.2-.167-.2-.3v-.3c.1-.2.1-.4.1-.7-.067-.067-.067-.167 0-.3a.425.425 0 0 0 0-.4 1.163 1.163 0 0 1-.2-.3c0-.133-.067-.267-.2-.4-.067 0-.1-.033-.1-.1-.1-.2-.2-.3-.2-.5-.067-.2-.067-.367 0-.5.1-.2.2-.3.2-.5.1-.2.1-.3.1-.5 0-.1 0-.2-.1-.3v-.1c.067-.267.134-.5.2-.7.1-.2.1-.3-.1-.5-.067-.067-.067-.167 0-.3 0-.067.034-.133.1-.2V45c.067-.333 0-.633-.2-.9V44l-.2-.6c0-.1 0-.3-.1-.5s0-.5 0-.8c.1-.1.1-.2-.1-.3-.1-.1-.1-.2-.1-.3 0-.2-.1-.3 0-.5-.067-.2-.1-.4-.1-.6v-1c-.067-.067-.1-.133-.1-.2.067-.133.067-.233 0-.3-.133-.133-.166-.267-.1-.4a.92.92 0 0 0 0-.6c0-.3-.1-.6-.2-.9v-.2a1.775 1.775 0 0 1-.2-.8.426.426 0 0 0 0-.4.924.924 0 0 1 0-.6c0-.3-.1-.5-.3-.7-.067-.067-.1-.133-.1-.2 0-.4-.2-.7-.4-1v-.2c-.067 0-.1-.033-.1-.1.1-.3-.2-.4-.4-.5-.2 0-.4-.1-.6-.3l-.2-.2c-.2-.134-.367-.2-.5-.2-.267 0-.5-.033-.7-.1-.067-.067-.133-.067-.2 0s-.1.067-.1 0c-.3 0-.6-.1-.9-.2-.067-.067-.167-.1-.3-.1h-.2c-.067 0-.133-.034-.2-.1-.067-.134-.167-.2-.3-.2-.2 0-.3-.1-.4-.1l-.1-.1c0-.067-.033-.133-.1-.2-.133 0-.233-.033-.3-.1-.133-.067-.2-.167-.2-.3.067-.134.033-.267-.1-.4l-.1-.1c-.067-.134-.133-.2-.2-.2a1.166 1.166 0 0 1-.3-.2c0-.133-.067-.233-.2-.3a.654.654 0 0 1-.3-.3c-.067-.134-.133-.2-.2-.2s-.133-.034-.2-.1a4.22 4.22 0 0 1-.8-1.1c-.2-.2-.3-.3-.5-.4-.2 0-.3-.2-.4-.3a1.567 1.567 0 0 1-.3-.4c-.1-.1-.2-.1-.3-.2 0-.1-.1-.1-.1-.2s-.1-.1-.2-.2c-.2 0-.5-.1-.6-.1-.2 0-.3-.1-.5-.2 0 0-.1-.1 0-.2.067-.067.067-.134 0-.2 0-.1-.1-.2-.2-.2-.2 0-.2-.2-.3-.3a.425.425 0 0 1 0-.4v-.2c-.1-.2.1-.4.2-.6.067-.067.167-.133.3-.2.067-.133.133-.233.2-.3 0-.1.1-.2 0-.3v-.2s0-.1-.1-.2v.2c0 .066-.033.133-.1.2 0 .2-.2.2-.2.1-.066-.133-.167-.2-.3-.2-.067 0-.1-.034-.1-.1.067-.067.034-.133-.1-.2-.066 0-.066-.034 0-.1v-.1c-.1-.1-.1-.2 0-.3.1-.2 0-.4 0-.5a.5.5 0 0 1 0-.6c.067-.067.067-.134 0-.2l-.1-.1c-.067-.133-.033-.233.1-.3l.1-.1c.067 0 .133-.033.2-.1a.654.654 0 0 1 .3-.3c.133 0 .167-.034.1-.1-.1-.2 0-.3 0-.4v-.3c0-.133.033-.233.1-.3.067-.067.167-.1.3-.1.067-.067.1-.134.1-.2.2-.2.2-.4.3-.6 0-.067.033-.133.1-.2 0-.1 0-.1-.1-.2s-.1-.2-.1-.4c0-.067-.033-.133-.1-.2 0-.2-.067-.333-.2-.4-.067-.134-.1-.233-.1-.3v-.2c-.066-.134-.1-.3-.1-.5l-.2-.2c-.1 0-.2-.1-.2-.2-.1-.1-.1-.1-.1-.3.1 0 .1-.2.1-.2 0-.1.2-.1.2-.2a.888.888 0 0 0 .1-.4c0-.134.067-.267.2-.4.1-.1.1-.2.1-.3 0-.067.033-.133.1-.2 0-.1 0-.2.1-.2.2 0 .3-.1.3-.3-.067-.2-.1-.367-.1-.5-.066-.067-.066-.133 0-.2 0-.3.3-.5.6-.5.133-.067.2-.167.2-.3.1-.2.2-.2.4-.2.2.1.3 0 .5-.2 0-.067.067-.134.2-.2.067-.067.133-.2.2-.4 0-.1.2-.3.3-.4l.6-.2c.1 0 .1 0 .2.1v.2c-.1.1-.2.1-.2.2-.066.133-.166.2-.3.2h-.1l-.1.1c0 .1 0 .2.1.2.1.1.1.2.2.3.1.2.1.5 0 .7-.067.133-.033.233.1.3.1.1.2.3.3.4.2.067.367.033.5-.1v-.2c-.067-.067-.1-.133-.1-.2 0-.1-.1-.2-.2-.4 0-.1-.1-.1-.2-.1-.3-.1-.3-.4-.1-.6l.2-.2c.133 0 .233-.033.3-.1.1-.1.1-.2 0-.3 0 0 .1-.5.2-.5.1-.1.2 0 .3 0 .1 0 .1.1.1.1 0 .133.033.233.1.3.1.1.2.1.4.1a.887.887 0 0 1 .4-.1c.2 0 .2 0 .2.1.1.2.2.3.4.3.067 0 .133.033.2.1.133 0 .233-.033.3-.1.067-.133.167-.2.3-.2.1-.1.1-.1.2-.1.133 0 .233-.033.3-.1.1-.1.1-.1.2 0 .2.133.433.166.7.1.1 0 .3-.1.5-.1l.1-.1c0-.067.033-.167.1-.3.1-.1.1-.1.2-.1.2-.067.4-.1.6-.1l.1-.1c.1-.1.3-.1.5-.1l-.2.2c-.067.067-.1.133-.1.2.067.133.167.167.3.1 0 0 .1-.1.1 0 .067.133.167.167.3.1 0-.067.034-.134.1-.2.067-.067.133-.067.2 0 0 .2.1.2.2.1.2-.067.367 0 .5.2.067 0 .067.033 0 .1 0 .067-.033.167-.1.3v.2c.1 0 .2 0 .2-.1.1-.2.3-.2.5-.2.1 0 .2 0 .3.1.2.1.3.1.5.1.133.067.233.133.3.2h.3c.2.2.4.3.4.5v.1c.067.067.134.1.2.1.4-.2.6 0 .9.1.2.1.3.2.5.3h.2l.2-.2s.1-.1.1 0c.1.1.2 0 .2-.1.067-.067.133-.1.2-.1.2 0 .4-.1.6-.1.133 0 .2-.034.2-.1.3-.1.5-.1.8 0 .1 0 .2 0 .2.1h.1c.2 0 .5.1.7.1.333.067.6.2.8.4.067.067.167.1.3.1.133 0 .233.1.3.3.1.1.2.3.3.4.1 0 .1.1.1.2 0 .133.033.266.1.4l.1.1c.2 0 .367.033.5.1.133 0 .2.067.2.2 0 .067.034.133.1.2 0 .1.1.2 0 .2v.2c0 .066-.033.166-.1.3-.1.1-.2.2-.4.3-.067.067-.1.133-.1.2 0 .066-.033.133-.1.2 0 .066.033.133.1.2l.4.4s0 .1.1 0c.067 0 .067-.034 0-.1 0-.1 0-.3-.1-.3-.067-.067-.1-.133-.1-.2.133-.067.233-.134.3-.2 0-.067.033-.1.1-.1.2 0 .4.1.6 0 0-.067.033-.1.1-.1a.887.887 0 0 0 .4-.1h.1c.067 0 .1.033.1.1.067.2.1.433.1.7 0 .066-.033.133-.1.2a.68.68 0 0 1-.5.2c-.2.1-.5.2-.7.2h-.1c0 .067.033.1.1.1h.1c.067 0 .1.033.1.1.2.1.3 0 .4-.1.1 0 .2-.1.3 0 0 .066.033.066.1 0 .067-.067.1-.134.1-.2.067-.133.133-.233.2-.3.134-.134.233-.3.3-.5 0-.3.1-.4.4-.4.067-.067.133-.1.2-.1.067-.067.167-.067.3 0 .067 0 .167.033.3.1.1 0 .3 0 .4.1.067 0 .133-.033.2-.1h.3c.133.067.3.1.5.1.3 0 .7.3.5.6v.1c0 .1 0 .1.1.2.067 0 .1-.067.1-.2.1-.1.1-.1.2-.1.2-.067.333-.167.4-.3.1-.2.3-.2.5-.1h.1c.133.067.233.1.3.1.133-.067.233-.067.3 0 .267.066.533 0 .8-.2.2-.2.5-.3.8-.2.134.067.233.067.3 0h.2c.267.067.534.167.8.3.2.1.4.2.6.2.2 0 .333.1.4.3.133.133.267.233.4.3h.2c.2-.1.4-.1.6-.1.1 0 .2 0 .3-.1.1 0 .2 0 .3.1.2.2.367.433.5.7.2.2.3.4.2.6v.2c.133.2.233.433.3.7v.1c0 .2 0 .4-.1.6-.066.2-.133.366-.2.5 0 .066-.033.133-.1.2-.1.2-.2.4-.3.5-.133.2-.267.433-.4.7l-.1.1c-.1 0-.1.2-.1.3.067.133.067.3 0 .5-.067.066-.1.133-.1.2.1.2-.1.3-.2.4h-.1c-.1 0-.3.1-.4.1.1.1.2.1.3.1 0 .067-.033.1-.1.1-.067.067-.133.1-.2.1-.066.066-.066.1 0 .1.2.2.2.4.3.6v.1c.1.2.2.5.2.7 0 .2 0 .4.2.6.067.067.1.2.1.4-.067.133-.033.3.1.5.1.1 0 .3.1.4 0 .133-.033.233-.1.3 0 .1 0 .2-.1.2-.1.1-.2.3-.1.4.067.133.1.267.1.4.067.2.1.366.1.5.1.1.1.2 0 .2-.067 0-.1.033-.1.1 0 .1 0 .2-.1.4 0 .1-.1.3-.1.4 0 .133-.033.233-.1.3-.133.133-.167.233-.1.3.133.2.133.367 0 .5-.1.2-.2.4-.4.5 0 0 0 .1-.1.2v.1c0 .2 0 .2-.2.2h-.1c-.067 0-.133.033-.2.1-.1.2-.2.2-.3.2-.1-.1-.2 0-.3 0l-.4.2h-.1c-.1 0-.2.1-.2.3l-.1.1c-.1.1-.2.2-.4.2v.1c-.133.067-.133.133 0 .2h.1c-.1.1-.2.1-.3.2h-.1c-.133-.067-.233-.067-.3 0-.066.066-.133.1-.2.1-.1.1-.2.1-.2.3 0 .067-.033.133-.1.2-.2.2-.366.433-.5.7-.066.133-.2.233-.4.3h-.2c-.067.067-.067.133 0 .2.067 0 .133.033.2.1 0 .067-.033.133-.1.2-.066.067-.066.133 0 .2.1.1.2.3.3.4.067 0 .1.033.1.1 0 .1.1.3.1.4 0 .2.1.5.1.7-.1.1-.1.2-.1.3l-.2.6c0 .067-.033.133-.1.2a1.16 1.16 0 0 0-.2.3c0 .067-.033.167-.1.3v.2c0 .2 0 .3-.1.5v.2c.1.1.1.3 0 .4-.1.2-.3.4-.4.6l-.2.2c0 .067-.033.133-.1.2h-.1Z"/>
  <path fill="#6A559A" d="m55.9 39.9-47.8-3 .2-4.2 48 3-.4 4.2Z"/>
  <path fill="#FEFEFE" fill-rule="evenodd" d="M7.5 23.5c.8.1 1.7.2 1.1 2.6-.5 2.3-1.3 2.3-2.5 2.2h-.4l1.1-4.9.7.1Zm-.2.6-.9 3.7c1.1.2 1.3-.9 1.5-1.7.2-.7.5-2-.6-2Z" clip-rule="evenodd"/>
  <path fill="#FEFEFE" d="m9.2 28.6-.6-.1 1.1-4.8h.6l-1.1 4.9Zm.9-5.1-.3-.2.7-.9.4.3-.8.8Z"/>
  <path fill="#FEFEFE" fill-rule="evenodd" d="m12.2 23.8-.1 5-.7-.1.1-.9-1-.1-.4.9h-.6l2.2-4.8h.5Zm-.7 2.7.2-1.8-1 2.5h.8v-.7Zm3.9-2.4c.8 0 1.6.2 1.1 2.6-.6 2.3-1.3 2.3-2.5 2.2h-.5l1.2-4.9.7.1Zm-.2.6-.9 3.7c1.1.1 1.2-.9 1.4-1.7.2-.7.6-2-.5-2Z" clip-rule="evenodd"/>
  <path fill="#FEFEFE" d="m19.3 24.4-.1.5h-1.1l-.4 1.5 1 .1-.1.5-1-.1-.4 1.7 1.1.1-.1.5-1.8-.1 1.2-4.9 1.7.2Zm2.2.1-1 4.3 1.1.1-.2.6-1.7-.2 1.1-4.8h.7Z"/>
  <path fill="#FEFEFE" fill-rule="evenodd" d="m24 24.7-.1 5-.6-.1v-1h-1l-.4.9h-.6l2.2-4.8h.5Zm-.6 2.7.1-1.8-.9 2.4.7.1.1-.7Z" clip-rule="evenodd"/>
  <path fill="#FEFEFE" d="m27.2 25-.9 3.5c-.1.6.1.8.3.8.5 0 .6-.2.7-.6l.8-3.7.7.1-.8 3.4c-.2.7-.4 1.5-1.5 1.4-1-.1-1-.8-.8-1.6l.8-3.4.7.1Zm2.4 1.6-.3 1.6-.4 1.8h-.6l1.1-4.9.6.1.3 3.7.3-1.9.4-1.8.7.1-1.2 4.8h-.6l-.2-3.8-.1.3Zm2.2 3.6h-.6l1.1-4.9.7.1-1.2 4.8Z"/>
  <path fill="#FEFEFE" fill-rule="evenodd" d="M34.3 25.5c.8.1 1.7.2 1.1 2.6-.5 2.3-1.3 2.3-2.5 2.2h-.4l1.1-4.9.7.1Zm-.2.6-.9 3.7c1.1.2 1.3-.9 1.5-1.7.1-.7.5-2-.6-2Zm3.6-.4-.1 5-.7-.1.1-.9-1-.1-.4.9H35l2.2-4.8h.5Zm-.7 2.7.2-1.8-1 2.5h.8v-.7Zm2.7-2.5c.8.1 1.7.2 1.1 2.6-.5 2.3-1.3 2.3-2.5 2.2h-.4l1.1-4.9.7.1Zm-.2.6-.9 3.7c1.1.2 1.3-.9 1.5-1.7.1-.7.5-2-.6-2Zm4.3-.3c.8.1 1.6.2 1 2.6-.5 2.3-1.3 2.3-2.4 2.2h-.5l1.2-4.9.7.1Zm-.2.6-.9 3.7c1 .2 1.2-.9 1.4-1.7.2-.7.6-2-.5-2Z" clip-rule="evenodd"/>
  <path fill="#FEFEFE" d="m47.7 26.5-.1.5h-1.1l-.4 1.5 1 .1-.2.5H46l-.4 1.6 1.1.1-.2.5-1.7-.1 1.1-4.8 1.8.1Zm2.2.2-1.1 4.2 1.1.1-.1.6-1.7-.1 1.1-4.9.7.1Z"/>
  <path fill="#FEFEFE" fill-rule="evenodd" d="M53.1 29.4c-.3.8-.6 2.4-1.9 2.4-1.3-.1-.9-1.8-.7-2.6.2-.9.6-2.5 1.9-2.4 1.2.1.9 1.7.7 2.6Zm-1.9-.2c-.3 1-.4 1.9.1 1.9.5.1.8-.8 1.1-1.8.2-1 .3-1.9-.2-1.9-.5-.1-.8.8-1 1.8Z" clip-rule="evenodd"/>
  <path fill="#FEFEFE" d="M55.5 27.8c-.2-.1-.3-.2-.5-.2-.4 0-.7.2-.8.6 0 .2 0 .3.1.5l.4.6c.3.5.5.8.3 1.4-.1.7-.7 1.3-1.4 1.2-.3 0-.5-.1-.7-.3l.2-.6c.1.2.3.3.6.3.4 0 .6-.3.7-.6.2-1-1.1-1.3-.8-2.6.1-.7.6-1.2 1.4-1.1.267 0 .467.067.6.2l-.1.6Z"/>
  <path fill="#FEFEFE" fill-rule="evenodd" d="M5.9 41.1c.8.1 1.7.2 1.1 2.7-.6 2.2-1.3 2.3-2.5 2.2l-.5-.1 1.2-4.8h.7Zm-.2.5-.9 3.8c1.1.1 1.3-.9 1.5-1.7.1-.8.5-2-.6-2.1Z" clip-rule="evenodd"/>
  <path fill="#FEFEFE" d="m9.8 41.5-.1.5-1.1-.1-.4 1.5 1 .1-.1.6-1-.1-.4 1.7h1.1l-.1.6-1.8-.1 1.2-4.9 1.7.2Z"/>
  <path fill="#FEFEFE" fill-rule="evenodd" d="m10.8 31.1 2.8.2c.1 0 .2 0 .5.1.4.1.7.2 1 .5.4.3.6.6.7 1.2.067.266.033.6-.1 1-.1.6-.5 1.2-.8 1.5-.2.133-.433.266-.7.4-.6.3-1.2.3-1.5.3h-1l-.3 1.6-2-.1 1.4-6.7Zm2.3 2.1-.7-.1-.3 1.3h.8c.333.066.533-.1.6-.5.1-.4 0-.7-.4-.7Z" clip-rule="evenodd"/>
  <path fill="#FEFEFE" d="M18.2 38.6c-.1 0-.2 0-.6-.1-.3-.1-.6-.2-1-.5s-.6-.7-.7-1.3a3.043 3.043 0 0 1 0-1.1l.9-4 2.1.1-.9 4.1c-.1.1-.1.1 0 .3v.3c.1.1.3.3.6.3.267.066.467.033.6-.1.2-.134.3-.267.3-.4l.1-.3.9-4 2.1.1-.9 4.1c-.2.7-.6 1.3-1 1.7-.2.2-.433.333-.7.4-.7.4-1.3.4-1.7.4h-.1Zm7-4.5-.2.7 2.7.2-.4 1.7-2.7-.2-.1.6 2.9.2-.4 1.9-4.9-.4 1.5-6.7 4.9.4-.5 1.9-2.8-.3Z"/>
  <path fill="#FEFEFE" fill-rule="evenodd" d="m27.9 39.2 1.5-6.6 2.9.2h.3c.067 0 .233.066.5.2.267.066.467.166.6.3.2.133.367.333.5.6.067.266.067.566 0 .9-.133.533-.4.966-.8 1.3.4.4.533.9.4 1.5-.267 1.4-1.333 2-3.2 1.8l-2.7-.2Zm2.4-1.7.9.1c.267 0 .433-.1.5-.3 0-.267-.1-.4-.3-.4l-.9-.1-.2.7Zm.5-2.2.8.1c.1 0 .3-.1.4-.3 0-.3-.1-.4-.2-.4l-.9-.1-.1.7Z" clip-rule="evenodd"/>
  <path fill="#FEFEFE" d="m37.7 33.2-1 4.8 2.8.2-.4 1.9-4.9-.4 1.5-6.6 2 .1Z"/>
  <path fill="#FEFEFE" fill-rule="evenodd" d="M44.6 33.6c1 .133 1.767.533 2.3 1.2.533.733.7 1.6.5 2.6-.2.933-.733 1.7-1.6 2.3-.8.667-1.7.966-2.7.9-1-.133-1.767-.533-2.3-1.2-.533-.733-.7-1.6-.5-2.6.2-.933.733-1.733 1.6-2.4.8-.6 1.7-.867 2.7-.8Zm-1.1 5.1c.4 0 .767-.134 1.1-.4.4-.267.633-.633.7-1.1.133-.4.067-.767-.2-1.1-.2-.334-.5-.533-.9-.6-.4 0-.767.133-1.1.4-.4.267-.633.633-.7 1.1-.133.4-.066.767.2 1.1.2.333.5.533.9.6Z" clip-rule="evenodd"/>
  <path fill="#FEFEFE" d="M49.2 38.4c.4.533.867.833 1.4.9.4 0 .633-.1.7-.3 0-.067-.1-.167-.3-.3a6.517 6.517 0 0 0-.7-.4 3.914 3.914 0 0 1-.9-.5c-.267-.133-.5-.367-.7-.7a2.017 2.017 0 0 1-.1-1.1c.133-.4.4-.8.8-1.2.5-.4 1.3-.7 2.2-.6.7 0 1.4.3 1.7.6.4.3.6.7.7.9l.1.1-1.6 1c-.2-.333-.4-.533-.6-.6-.133-.133-.333-.2-.6-.2-.4 0-.6.1-.6.2 0 .2.3.4.7.6.267.133.5.267.7.4.267.133.5.267.7.4.2.2.367.433.5.7.067.267.067.567 0 .9-.067.467-.333.9-.8 1.3-.5.4-1.4.7-2.3.6-.8-.067-1.4-.3-1.8-.7-.467-.333-.733-.7-.8-1.1l1.6-.9Z"/>
  <path fill="#6A559A" d="m58.4 48.9-47.7-3 .2-4.3 48 3.1-.5 4.2Z"/>
  <path fill="#FEFEFE" fill-rule="evenodd" d="m17.5 40.4 1 6.9-2.2-.2-.1-.7-2.2-.2-.3.7-2.2-.2 3.9-6.5 2.1.2Zm-2.4 4 1 .1-.2-1.4-.8 1.3Z" clip-rule="evenodd"/>
  <path fill="#FEFEFE" d="m23.1 46.9-.5-.1-.8-2.1-.6 2.8-2.1-.2 1.5-6.7 1.9.2 1.1 2.7 2.3-2.4 1.8.1-1.4 6.7-2.1-.2.6-2.7-1.7 1.9Zm7.3-3.6-.1.7 2.6.2-.4 1.7-2.6-.2-.2.5 2.9.3-.4 1.9-4.9-.4 1.5-6.7 4.9.4-.4 1.8-2.9-.2Zm1.9-2.3-2-.2 1.3-1.7 2.3.2-1.6 1.7Z"/>
  <path fill="#FEFEFE" fill-rule="evenodd" d="m39.2 48.9-2.4-.2-1.1-1.8h-.2l-.3 1.7-2-.2 1.4-6.7 2.8.3c.1 0 .2 0 .5.1.4.1.7.2 1 .5.4.3.6.6.7 1.2.067.266.033.566-.1.9-.2.933-.7 1.6-1.5 2l1.2 2.2Zm-3-5.2-.3 1.3h.8c.333.066.567-.1.7-.5.1-.4-.1-.7-.4-.7l-.8-.1Z" clip-rule="evenodd"/>
  <path fill="#FEFEFE" d="m39.8 48.9 1.5-6.6 2 .1-1.5 6.7-2-.2Zm10.7-2c-.4.866-.967 1.533-1.7 2-.8.533-1.633.766-2.5.7-1-.067-1.767-.467-2.3-1.2-.533-.734-.7-1.6-.5-2.6.2-.934.733-1.7 1.6-2.3.8-.667 1.7-.934 2.7-.8.867.066 1.567.4 2.1 1 .533.6.8 1.333.8 2.2l-2.2-.2c0-.334-.1-.6-.3-.8a2.254 2.254 0 0 0-.8-.4c-.4 0-.767.133-1.1.4a1.53 1.53 0 0 0-.7 1.1c-.067.466 0 .866.2 1.2.2.333.5.5.9.5.333 0 .633-.067.9-.2.267-.2.5-.434.7-.7l2.2.1Z"/>
  <path fill="#FEFEFE" fill-rule="evenodd" d="m56 43.4 1 6.9-2.2-.2-.1-.7-2.2-.2-.4.7-2.2-.2 4-6.5 2.1.2Zm-2.4 4.1h.9l-.1-1.4-.8 1.4Z" clip-rule="evenodd"/>
  <path fill="#6A559A" d="M52.1 57.6 9.5 54.9l.2-4.3 42.9 2.8-.5 4.2Z"/>
  <path fill="#FEFEFE" fill-rule="evenodd" d="m10.7 55.7 1.5-6.7 2.7.3c1 .067 1.733.433 2.2 1.1.533.667.7 1.5.5 2.5a4.495 4.495 0 0 1-1.5 2.3c-.8.6-1.7.833-2.7.7l-2.7-.2Zm3.1-4.6-.6 2.9.7.1c.333 0 .667-.133 1-.4.267-.267.467-.6.6-1 .067-.4 0-.767-.2-1.1-.133-.267-.4-.434-.8-.5h-.7Z" clip-rule="evenodd"/>
  <path fill="#FEFEFE" d="m20.7 51.6-.1.7 2.7.2-.4 1.7-2.7-.2-.1.5 2.9.3-.4 1.8-4.9-.3 1.4-6.7 4.9.4-.4 1.8-2.9-.2Zm6.3-1.4L25.9 55l2.9.2-.4 1.9-4.9-.4L25 50l2 .2Zm5.8 4.7c.4.6.867.9 1.4.9.4.067.633 0 .7-.2 0-.133-.1-.267-.3-.4a5.488 5.488 0 0 1-.7-.3 3.913 3.913 0 0 1-.9-.5 1.82 1.82 0 0 1-.6-.8c-.2-.267-.267-.6-.2-1 .133-.4.4-.833.8-1.3.5-.4 1.3-.6 2.2-.6.7.1 1.4.4 1.7.7.4.3.6.6.7.8l.1.2-1.6.9c-.2-.267-.4-.466-.6-.6-.133-.067-.333-.1-.6-.1-.4-.1-.6.1-.6.2 0 .2.3.4.7.6.267.067.5.167.7.3.267.133.5.3.7.5.2.133.367.367.5.7.067.267.067.567 0 .9-.067.4-.333.833-.8 1.3-.5.4-1.4.6-2.3.6-.8-.067-1.4-.3-1.8-.7-.4-.4-.667-.8-.8-1.2l1.6-.9Zm7.3 3.3c-.1-.1-.2-.1-.5-.2-.4-.1-.7-.2-1.1-.5-.4-.3-.6-.7-.7-1.3a1.729 1.729 0 0 1 .1-1l.9-4.1 2 .2-.9 4.1s-.1.1 0 .3c0 .066.033.133.1.2 0 .2.2.3.5.4.267 0 .467-.067.6-.2.2-.134.333-.267.4-.4v-.2l1-4.1 2 .2-.9 4c-.2.8-.6 1.4-1 1.7-.2.2-.4.366-.6.5-.7.3-1.4.4-1.7.3l-.2.1Z"/>
  <path fill="#FEFEFE" fill-rule="evenodd" d="m50.1 58.8-2.5-.2-1-1.8h-.2l-.4 1.7-2-.2 1.5-6.7 2.8.3s.1 0 .5.1c.3.1.6.2 1 .5.3.3.6.6.6 1.2.067.266.067.566 0 .9-.2.933-.733 1.6-1.6 2l1.3 2.2Zm-3-5.2-.2 1.3h.7c.4.066.633-.1.7-.5.1-.4-.1-.7-.4-.7l-.8-.1Z" clip-rule="evenodd"/>
</svg>
