<svg xmlns="http://www.w3.org/2000/svg" width="83" height="100" fill="none" viewBox="0 0 83 100">
  <path fill="#F68D26" d="m13.6 88 68.7-6-6.4-64.7-66.4 5.5L13.6 88Z"/>
  <path fill="#E57523" d="m3.5 99.2 71.2-16.4L13.6 88 9.5 22.8 0 39.2l3.5 60Z"/>
  <path fill="#D85727" d="M72.5 92.2 82.3 82l-68.7 6.1L3.5 99.2l69-7Z"/>
  <mask id="a" width="80" height="18" x="3" y="82" maskUnits="userSpaceOnUse" style="mask-type:alpha">
    <path fill="#D85727" d="M72.5 92.2 82.3 82l-68.7 6.1L3.5 99.2l69-7Z"/>
  </mask>
  <g mask="url(#a)">
    <mask id="b" width="136" height="127" x="-53" y="81" maskUnits="userSpaceOnUse" style="mask-type:luminance">
      <path fill="#fff" d="m-52.34 178.17 35.68 29.74L82.31 81.97l-68.72 6.06-65.93 90.14Z"/>
    </mask>
    <g mask="url(#b)">
      <path stroke="#F68D26" stroke-width=".4" d="m76.6 41.3-99.4 136.5M77.8 45l-99.7 135.8M78 50.1l-93.6 126.1m93.5-121-93.5 125.5M77.8 60.4-22.5 194.2M78 65.5-22.9 198.7m101.2-128-88.8 115.5M78.2 75.8-11 190.9m89.1-110-90.2 115.4M84.3 77.7l-96.5 122.5M41.5 71.3l-78.4 108.2m78.1-103-71 97.6m70.5-92.4-70.5 96.9m73.7-96.5-66 90.4M28.7 71.1l-79.4 108.6M24.9 71.2l-65.9 91m69.2-85.8L-44 175m71.8-93.5-71.5 98M30.7 82l-66.6 91.3"/>
    </g>
  </g>
  <path fill="#050505" d="m57.1 25.1 2.7-.1.5 11-3.1.1-.4-7.9c-.667.267-1.267.466-1.8.6l-.2-2.9 2.3-.8Z"/>
  <path fill="#050505" fill-rule="evenodd" d="M65.3 24.5c1.2 0 2.1.267 2.7.8.6.6.9 1.4.9 2.4.067.934-.167 1.633-.7 2.1.867.6 1.333 1.367 1.4 2.3.133 2.4-1.1 3.667-3.7 3.8s-3.967-1-4.1-3.4c-.067-1 .333-1.8 1.2-2.4-.6-.467-.933-1.167-1-2.1 0-.933.267-1.733.8-2.4.533-.667 1.367-1.033 2.5-1.1Zm.4 8.6c.533 0 .8-.3.8-.9 0-.667-.267-1-.8-1-.533.067-.8.4-.8 1 .067.667.333.967.8.9Zm-.2-4.2c.4 0 .6-.267.6-.8-.067-.467-.267-.7-.6-.7-.4 0-.567.267-.5.8 0 .467.167.7.5.7Z" clip-rule="evenodd"/>
  <path fill="#FEFEFE" d="m58.1 24.3 2.7-.2.5 11-3 .1-.4-7.9c-.733.267-1.367.467-1.9.6l-.1-2.9 2.2-.7Z"/>
  <path fill="#FEFEFE" fill-rule="evenodd" d="M66.4 23.7c1.133-.066 2 .2 2.6.8.6.6.933 1.367 1 2.3 0 .933-.267 1.633-.8 2.1.867.6 1.333 1.367 1.4 2.3.133 2.4-1.1 3.667-3.7 3.8-2.6.134-3.967-1-4.1-3.4 0-.933.433-1.733 1.3-2.4-.667-.466-1-1.166-1-2.1-.067-.933.167-1.733.7-2.4.533-.6 1.4-.933 2.6-1Zm.4 8.6c.533-.067.767-.4.7-1 0-.667-.267-.966-.8-.9-.533 0-.8.334-.8 1 .067.6.367.9.9.9Zm-.2-4.3c.333 0 .5-.266.5-.8-.067-.466-.267-.7-.6-.7-.4 0-.567.267-.5.8 0 .533.2.767.6.7Z" clip-rule="evenodd"/>
  <path fill="#489FD7" d="M33.6 83.2c-.2-.1-.4-.3-.3-.5.1-.3.3-.4.5-.3.2 0 .4.3.3.5-.1.2-.3.4-.5.3Z"/>
  <path fill="#EC252D" d="M18 11.3c-.2-.1-.3-.3-.3-.5.1-.3.3-.4.6-.3.2 0 .3.3.3.5-.1.2-.3.3-.6.3Z"/>
  <path fill="#489FD7" d="M33.6 83.2c-.2-.1-.4-.3-.3-.5.1-.3.3-.4.5-.3.2 0 .4.3.3.5-.1.2-.3.4-.5.3Z"/>
  <g opacity=".7">
    <path fill="#FEFEFE" d="M27.3 83.1s-.8-1.3-.7-1.3c.1 0 .9.1 1 .1.1 0 .3 1.1.3 1.1l-.6.1Z"/>
    <path stroke="#FEFEFE" stroke-linecap="round" stroke-linejoin="round" stroke-width=".4" d="M27.3 83.1s-.8-1.3-.7-1.3c.1 0 .9.1 1 .1.1 0 .3 1.1.3 1.1l-.6.1Z"/>
    <path fill="#FEFEFE" d="m28 77.9.7 3.5s0 .7.9.8c.9 0 3.2-.2 3.2-.2s-.2-.4-.7-.5c-.5-.1-.8-.2-1.2-.5-.4-.3-1-.8-1.1-.9 0-.1-.6-.7-.6-1-.1-.3-.1-.3-.6-.7-.4-.5-.6-.5-.6-.5Z"/>
    <path stroke="#FEFEFE" stroke-linecap="round" stroke-linejoin="round" stroke-width=".4" d="m28 77.9.7 3.5s0 .7.9.8c.9 0 3.2-.2 3.2-.2s-.2-.4-.7-.5c-.5-.1-.8-.2-1.2-.5-.4-.3-1-.8-1.1-.9 0-.1-.6-.7-.6-1-.1-.3-.1-.3-.6-.7-.4-.5-.6-.5-.6-.5Z"/>
    <path fill="#FEFEFE" d="M32.1 52.6c-.4 0-.5.4-.6-.1-.1-.4-.7-.4-.7-.4l-.6.3s-.1.2 0 .5.4.6.5.6h.1s-.4.3-.6 1c-.3.8-.3 1.6-.2 1.7 0 .1.1 1.1.1 1.1l-.2.6c-.1.2-.2.6-.2.6s-1.8.5-2 1c-.2.5-.6 1-.6 1s-.3 1-.3 1.1v.8s.7 1 .9 1.2c.2.1.8.3 1 .4.2.1 1.3.1 1.3.1s.6.2.4.8c-.1.5-.2.7-.3.8-.1.2.1.2.2.3.1 0-.4 1-.7 1.3-.3.4-.8.8-.9 1-.1.3-.7 1-.7 1l-.2.8.2.7s0 .7-.2.9c-.1.1-.3.3-.4.2-.1-.1-.5-.3-.5-.3l-.4.2.2.2.2.3s-.5 1-.6 1.3c-.1.3-.2 1-.2 1l.5.2.3.9-.6.3s.6.2.8.3c.1.2.7.7.7.7l-.7.3-4.4.4s-.7-.6-.9-1.3c-.3-.8 0-1.5-.4-1.7-.5-.1-.8.1-1.1.2-.3.2.1.4-.3.2-.4-.3-1-1.6-1.1-2.1 0-.5.5-1.9.6-2 .1-.2.5-.3.4-.8 0-.4-.3-2.9-.2-3.5.1-.6.2-.6.2-.9 0-.3.1-.4.1-.8 0-.5.1-.3 0-.9-.1-.6-.1-.9-.2-1.2-.1-.3-.4-.6-.4-.7 0-.2.6-.7.6-.9-.1-.2-.6-.8-.6-.8s.2-.3.3-.5c.1-.1.1-.5.1-.6-.1-.2-.4-.2-.7-.3-.2-.1-.4.2-.4-.2-.1-.4-.2-1.3-.2-1.4 0-.1-.4-.6-.4-.7 0-.2-.4-.1-.8-1.1-.4-.9-.6-1.8-.5-1.9.1-.1.5-.7.5-.7s-.8-3.6-.9-3.9c0-.2.1-.7.1-.9-.1-.2 0-.7.1-.8 0-.2-.1-1.6 0-1.8.2-.3.4-.6.5-.8.1-.2-.9-2.3-1.1-3.7-.1-1.4.2-1.4.4-1.7.1-.3.5-1.3.5-1.5 0-.1.1-.3.1-.3s-.5-1.7-.4-2.7c.1-1.1 1.1-1.6.4-3.2-.7-1.5-.8-1.1-.9-1.7-.1-.6-1.1-2.5-1.3-2.8-.2-.3-.2-1-.1-1.2.1-.2.2-.2.3-1 0-.7.4-1.4.4-1.6.1-.1-.4-1.2-.5-1.9 0-.6.3-2.2.4-2.5.1-.2.8-1.5.8-1.7 0-.2.1-1.6.2-1.7.1-.1.8-.3.9-.5.2-.1.3 0 0-.6-.4-.5-.8-.7-.8-.7s.6-.3.4-1.4c-.2-1.1-.3-1.2-.4-1.6v-.8c0-.3-.3-.4-.3-.6 0-.2-.5-.2.4-.7.8-.4 1.8-1.3 2-1.6.2-.4.4-.5.3-.8 0-.3.1-1.6-.1-2-.3-.5 1.2-2 1.4-2.3.2-.2.3-.3.4-.3.1 0 .3.2.7.1h2.5c.1 0 .4.3.4.3l.9 1.1.9-2 2.6-.3s.6 1.1 1.4 1.5c.7.5 3.1 2.2 3.1 2.2l3.8 1.2 2.9 1.4 1.1.3s.4.3.4.4c0 .1-.6 1.8-.8 2.1-.3.4-1.1 2.9-1.1 2.9s1.4.1 1.8.1c.3 0 3.6.5 3.6.5s.2-.3.3-.5c.1-.1 1.1 0 1.1 0s1-1 1.2-1.3c.1-.3.6-.6.8-1 .2-.4.3-1.4.3-1.7 0-.3-.1-.4.6-.6.7-.1.9 0 1 .4.2.5.4 1.1.5 1.5 0 .4.2 1-.7 1.7-1 .8-3.6 2.6-3.6 2.6l-4.5 6.2v.6s-.3 2.7-.4 3.2c-.1.4-.1 1.3-.1 1.4 0 .1.1.6.2.8 0 .3-.2.3-.3.5-.2.3-.3.8-.3 1.1 0 .2.1 1.1.1 1.2 0 .1.2.6 0 .7-.1.1-.4.2-.6.3l1.9 1.3c.2-.1 1 .3 1.2.5.3.2.5.8.5.8l-.2.5s-.3.7 0 1c.3.4 1 .8 1.2.8l.3.3s0 1.2-.5 1.8c-.5.6-.9 1.4-1 1.6 0 .1-.4.6-.4.6s-2.1 1.8-4.3 2.2c-2.1.4-4.5.4-4.5.4l-.4-.1v.7c.1.4.3.6.3.6s.3.4.4.7c.1.2-.1.5-.3.7-.2.2-.2 1-.2 1.1 0 .1.5 1 .5 1s-.3.5-.4.5c-.1 0-.8.2-.8.2s.3.3-.4.4c-.7.1-3.1-.4-3.2-.5-.1-.1-.6 0-.6 0s-.3.1-.2.6c.1.5.3 1.2.5 1.6.1.4 0 1.3 0 1.3l.3.3c.1.1.8.2.8.2h.4"/>
    <path stroke="#FEFEFE" stroke-linecap="round" stroke-linejoin="round" stroke-width=".4" d="M32.1 52.6c-.4 0-.5.4-.6-.1-.1-.4-.7-.4-.7-.4l-.6.3s-.1.2 0 .5.4.6.5.6h.1s-.4.3-.6 1c-.3.8-.3 1.6-.2 1.7 0 .1.1 1.1.1 1.1l-.2.6c-.1.2-.2.6-.2.6s-1.8.5-2 1c-.2.5-.6 1-.6 1s-.3 1-.3 1.1v.8s.7 1 .9 1.2c.2.1.8.3 1 .4.2.1 1.3.1 1.3.1s.6.2.4.8c-.1.5-.2.7-.3.8-.1.2.1.2.2.3.1 0-.4 1-.7 1.3-.3.4-.8.8-.9 1-.1.3-.7 1-.7 1l-.2.8.2.7s0 .7-.2.9c-.1.1-.3.3-.4.2-.1-.1-.5-.3-.5-.3l-.4.2.2.2.2.3s-.5 1-.6 1.3c-.1.3-.2 1-.2 1l.5.2.3.9-.6.3s.6.2.8.3c.1.2.7.7.7.7l-.7.3-4.4.4s-.7-.6-.9-1.3c-.3-.8 0-1.5-.4-1.7-.5-.1-.8.1-1.1.2-.3.2.1.4-.3.2-.4-.3-1-1.6-1.1-2.1 0-.5.5-1.9.6-2 .1-.2.5-.3.4-.8 0-.4-.3-2.9-.2-3.5.1-.6.2-.6.2-.9 0-.3.1-.4.1-.8 0-.5.1-.3 0-.9-.1-.6-.1-.9-.2-1.2-.1-.3-.4-.6-.4-.7 0-.2.6-.7.6-.9-.1-.2-.6-.8-.6-.8s.2-.3.3-.5c.1-.1.1-.5.1-.6-.1-.2-.4-.2-.7-.3-.2-.1-.4.2-.4-.2-.1-.4-.2-1.3-.2-1.4 0-.1-.4-.6-.4-.7 0-.2-.4-.1-.8-1.1-.4-.9-.6-1.8-.5-1.9.1-.1.5-.7.5-.7s-.8-3.6-.9-3.9c0-.2.1-.7.1-.9-.1-.2 0-.7.1-.8 0-.2-.1-1.6 0-1.8.2-.3.4-.6.5-.8.1-.2-.9-2.3-1.1-3.7-.1-1.4.2-1.4.4-1.7.1-.3.5-1.3.5-1.5 0-.1.1-.3.1-.3s-.5-1.7-.4-2.7c.1-1.1 1.1-1.6.4-3.2-.7-1.5-.8-1.1-.9-1.7-.1-.6-1.1-2.5-1.3-2.8-.2-.3-.2-1-.1-1.2.1-.2.2-.2.3-1 0-.7.4-1.4.4-1.6.1-.1-.4-1.2-.5-1.9 0-.6.3-2.2.4-2.5.1-.2.8-1.5.8-1.7 0-.2.1-1.6.2-1.7.1-.1.8-.3.9-.5.2-.1.3 0 0-.6-.4-.5-.8-.7-.8-.7s.6-.3.4-1.4c-.2-1.1-.3-1.2-.4-1.6v-.8c0-.3-.3-.4-.3-.6 0-.2-.5-.2.4-.7.8-.4 1.8-1.3 2-1.6.2-.4.4-.5.3-.8 0-.3.1-1.6-.1-2-.3-.5 1.2-2 1.4-2.3.2-.2.3-.3.4-.3.1 0 .3.2.7.1h2.5c.1 0 .4.3.4.3l.9 1.1.9-2 2.6-.3s.6 1.1 1.4 1.5c.7.5 3.1 2.2 3.1 2.2l3.8 1.2 2.9 1.4 1.1.3s.4.3.4.4c0 .1-.6 1.8-.8 2.1-.3.4-1.1 2.9-1.1 2.9s1.4.1 1.8.1c.3 0 3.6.5 3.6.5s.2-.3.3-.5c.1-.1 1.1 0 1.1 0s1-1 1.2-1.3c.1-.3.6-.6.8-1 .2-.4.3-1.4.3-1.7 0-.3-.1-.4.6-.6.7-.1.9 0 1 .4.2.5.4 1.1.5 1.5 0 .4.2 1-.7 1.7-1 .8-3.6 2.6-3.6 2.6l-4.5 6.2v.6s-.3 2.7-.4 3.2c-.1.4-.1 1.3-.1 1.4 0 .1.1.6.2.8 0 .3-.2.3-.3.5-.2.3-.3.8-.3 1.1 0 .2.1 1.1.1 1.2 0 .1.2.6 0 .7-.1.1-.4.2-.6.3l1.9 1.3c.2-.1 1 .3 1.2.5.3.2.5.8.5.8l-.2.5s-.3.7 0 1c.3.4 1 .8 1.2.8l.3.3s0 1.2-.5 1.8c-.5.6-.9 1.4-1 1.6 0 .1-.4.6-.4.6s-2.1 1.8-4.3 2.2c-2.1.4-4.5.4-4.5.4l-.4-.1v.7c.1.4.3.6.3.6s.3.4.4.7c.1.2-.1.5-.3.7-.2.2-.2 1-.2 1.1 0 .1.5 1 .5 1s-.3.5-.4.5c-.1 0-.8.2-.8.2s.3.3-.4.4c-.7.1-3.1-.4-3.2-.5-.1-.1-.6 0-.6 0s-.3.1-.2.6c.1.5.3 1.2.5 1.6.1.4 0 1.3 0 1.3l.3.3c.1.1.8.2.8.2h.4"/>
    <path fill="#FEFEFE" fill-rule="evenodd" d="M36.3 77.9v-.1c.1 0 .3.1.4-.1-.1 0-.2-.1-.1-.1.3-.1.4.2.5-.1-.1 0-.2.1-.2 0 .067 0 .134-.033.2-.1 0-.1-.1-.2 0-.3-.2.1-.3 0-.4-.2.2 0 .6 0 .7-.2-.2-.1-.4-.1-.5-.1-.1-.3.2-.1.2-.2-.1-.1-.4 0-.4-.1v-.2c.3.1.6.4.9.2-.4-.2.5-.3.4-.1.2-.1.3-.2.5-.1 0 0-.2-.2 0-.2.1.1.3 0 .4.1-.2.1-.2.5-.6.6 0 .3-.3.9-.5.9l-.1-.1c.1.3-.2.1-.3.2.2.2 0 .5-.2.4 0 .1-.1.2-.2.3-.1-.1-.1-.5-.3-.3.1 0 .2 0 .1.1-.2 0-.3-.2-.5-.2Zm.8-.8c.2-.1.1.2.2.1 0-.1-.1-.3.2-.2-.066 0-.1-.033-.1-.1-.133 0-.233.067-.3.2Z" clip-rule="evenodd"/>
    <path stroke="#FEFEFE" stroke-linecap="round" stroke-linejoin="round" stroke-width=".4" d="M37.1 77.1c-.1.1 0 .2 0 .3-.066.067-.133.1-.2.1 0 .1.1 0 .2 0-.1.3-.2 0-.5.1-.1 0 0 .1.1.1-.1.2-.3.1-.4.1v.1c.2 0 .3.2.5.2.1-.1 0-.1-.1-.1.2-.2.2.2.3.3.1-.1.2-.2.2-.3.2.1.4-.2.2-.4.1-.1.4.1.3-.2l.1.1c.2 0 .5-.6.5-.9.4-.1.4-.5.6-.6-.1-.1-.3 0-.4-.1-.2 0 0 .2 0 .2-.2-.1-.3 0-.5.1.1-.2-.8-.1-.4.1-.3.2-.6-.1-.9-.2v.2c0 .1.3 0 .4.1 0 .1-.3-.1-.2.2.1 0 .3 0 .5.1-.1.2-.5.2-.7.2.1.2.2.3.4.2Zm0 0c.2-.1.1.2.2.1 0-.1-.1-.3.2-.2-.066 0-.1-.033-.1-.1-.133 0-.233.067-.3.2Z"/>
    <path fill="#FEFEFE" fill-rule="evenodd" d="M39.1 75.6h.1c.2.1.5.1.8 0 0 .1.1.2.2.2.1-.3.8-.1.7.3-.2.1-.3-.2-.4 0 0 .2.5 0 .5.2-.3 0-.1.1-.1.2-.2 0-.4.2-.5.2 0 .1-.2.3-.3.3h-.2c-.3 0-.5.1-.6-.1.1.3.3.2.5.3 0 .1.1.3 0 .3 0-.1-.1 0-.2-.1-.1 0 0 .1-.2.1-.1 0-.3-.2-.4 0 .2-.2.2.1.2.2 0 0 .1-.1.1 0v.2c-.2 0-.4-.2-.6-.1.1.1.1.3.2.4h-.1c-.2-.2-.4-.3-.6-.5.3 0 .1-.2.2-.5.1.1.1-.1.1-.2.3.1.4-.5.7-.3-.1-.2-.2-.2-.3-.3 0-.2.2-.1.2-.3-.1 0-.2.1-.2 0 .1-.1.2-.1.4-.3 0-.1-.2-.1-.2-.2Zm1.2.8c0-.2 0-.3-.2-.4v.1c-.067-.067-.067-.133 0-.2-.2.1-.2-.1-.3 0 .1.3.4.1.5.5Z" clip-rule="evenodd"/>
    <path stroke="#FEFEFE" stroke-linecap="round" stroke-linejoin="round" stroke-width=".4" d="M39.1 75.6h.1c.2.1.5.1.8 0 0 .1.1.2.2.2.1-.3.8-.1.7.3-.2.1-.3-.2-.4 0 0 .2.5 0 .5.2-.3 0-.1.1-.1.2-.2 0-.4.2-.5.2 0 .1-.2.3-.3.3h-.2c-.3 0-.5.1-.6-.1.1.3.3.2.5.3 0 .1.1.3 0 .3 0-.1-.1 0-.2-.1-.1 0 0 .1-.2.1-.1 0-.3-.2-.4 0 .2-.2.2.1.2.2 0 0 .1-.1.1 0v.2c-.2 0-.4-.2-.6-.1.1.1.1.3.2.4h-.1c-.2-.2-.4-.3-.6-.5.3 0 .1-.2.2-.5.1.1.1-.1.1-.2.3.1.4-.5.7-.3-.1-.2-.2-.2-.3-.3 0-.2.2-.1.2-.3-.1 0-.2.1-.2 0 .1-.1.2-.1.4-.3 0-.1-.2-.1-.2-.2Zm1.2.8c0-.2 0-.3-.2-.4v.1c-.067-.067-.067-.133 0-.2-.2.1-.2-.1-.3 0 .1.3.4.1.5.5Z" clip-rule="evenodd"/>
  </g>
  <path fill="#3E89C8" d="M28.6 83.4s-.8-1.2-.7-1.2h1c.1 0 .2 1.1.2 1.1l-.5.1Zm.7-5.1.6 3.5s0 .7 1 .7c.9.1 3.1-.1 3.1-.1s-.1-.4-.6-.5c-.5-.1-.8-.2-1.2-.5-.4-.4-1.1-.9-1.1-1-.1-.1-.6-.7-.7-.9-.1-.3-.1-.3-.5-.8s-.6-.4-.6-.4Zm14.2-46c.1 0 .9.4 1.2.6.2.2.5.7.5.7l-.2.6s-.3.6-.1 1c.3.4 1 .7 1.2.8.2 0 .4.3.4.3s-.1 1.1-.6 1.7c-.5.7-.9 1.5-.9 1.6-.1.1-.4.6-.4.6s-2.2 1.9-4.3 2.3c-2.1.4-4.5.3-4.5.3l-.5-.1s.1.5.1.8c0 .3.3.6.3.6s.2.3.3.6c.2.3 0 .6-.2.8-.2.1-.2 1-.2 1.1 0 .1.5 1 .5 1s-.4.4-.5.4c-.1 0-.7.2-.7.2s.2.3-.5.4c-.6.1-3-.4-3.1-.5-.2-.1-.6.1-.6.1s-.3.1-.2.6c.1.5.3 1.2.4 1.6.2.4.1 1.2.1 1.2s.1.3.3.3c.1.1.8.3.8.3l.3-.1s.3 0 .4-.4c.1-.4.4-.3.5-.1.1.2.2.9.2.9s.1.4-.2.4c-.3.1-.5.4-.5 0-.1-.5-.7-.4-.7-.4l-.6.3s-.1.2 0 .4c.1.3.4.7.5.7l.1-.1s-.5.3-.7 1.1c-.2.8-.2 1.6-.2 1.7.1.1.2 1.1.2 1.1s-.1.2-.2.5c-.2.3-.2.6-.2.6s-1.8.5-2.1 1c-.2.5-.6 1.1-.6 1.1s-.2.9-.3 1.1c0 .1.1.7.1.7s.7 1 .9 1.2c.1.2.7.4.9.5.2 0 1.4.1 1.4.1s.5.2.4.7c-.2.5-.2.8-.3.9-.1.1 0 .2.1.2.2 0-.3 1.1-.6 1.4-.4.3-.8.8-.9 1-.1.2-.7 1-.7 1l-.2.7.2.8s0 .7-.2.8c-.2.1-.4.4-.4.3-.1-.1-.5-.4-.5-.4l-.4.2.2.3.2.3s-.6.9-.7 1.3c-.1.3-.1.9-.1.9l.4.3.3.9-.6.3s.7.1.8.3c.2.2.7.6.7.6l-.6.4-4.4.3s-.8-.5-1-1.3c-.2-.8 0-1.5-.4-1.6-.4-.2-.8 0-1 .2-.3.1.1.4-.3.1-.4-.2-1.1-1.5-1.1-2.1 0-.5.5-1.8.6-2 0-.1.5-.3.4-.7-.1-.5-.3-3-.2-3.6 0-.6.1-.5.2-.9 0-.3 0-.3.1-.8 0-.4.1-.2-.1-.8-.1-.7 0-.9-.2-1.2-.1-.3-.3-.6-.3-.8 0-.1.6-.6.5-.8 0-.2-.5-.9-.5-.9l.2-.4c.1-.2.1-.5.1-.7 0-.1-.4-.2-.6-.2-.2-.1-.4.1-.5-.3 0-.4-.1-1.3-.1-1.4 0-.1-.4-.5-.4-.7-.1-.1-.4 0-.8-1-.5-1-.7-1.9-.6-2 .1-.1.6-.7.6-.7s-.9-3.6-.9-3.8c-.1-.3.1-.8 0-1 0-.2.1-.7.1-.8 0-.1 0-1.6.1-1.8.1-.2.4-.6.5-.8.1-.2-.9-2.2-1.1-3.6-.2-1.5.2-1.5.3-1.8.2-.3.6-1.2.6-1.4 0-.2.1-.4.1-.4s-.5-1.6-.4-2.7c.1-1 1-1.6.3-3.1-.7-1.6-.7-1.2-.9-1.8-.1-.6-1-2.5-1.2-2.8-.2-.3-.2-.9-.1-1.1.1-.2.2-.2.2-1 .1-.8.5-1.5.5-1.6 0-.1-.5-1.3-.5-1.9-.1-.6.3-2.2.4-2.5.1-.3.8-1.5.8-1.7 0-.3.1-1.6.2-1.7.1-.1.8-.3.9-.5.1-.2.3 0-.1-.6-.3-.6-.7-.8-.7-.8s.6-.3.4-1.4c-.3-1.1-.4-1.1-.4-1.5-.1-.4 0-.5 0-.8 0-.4-.3-.5-.3-.7-.1-.2-.5-.2.3-.6.9-.5 1.9-1.3 2.1-1.7.2-.3.3-.5.3-.8-.1-.3.1-1.6-.2-2-.2-.4 1.2-2 1.5-2.2.2-.2.2-.3.3-.4.1 0 .4.2.8.2s2.3-.1 2.4-.1c.2.1.5.3.5.3l.9 1.2.9-2 2.5-.3s.7 1 1.4 1.5c.8.4 3.1 2.2 3.1 2.2L38 6.2l3 1.4 1.1.3s.4.4.4.5c0 .1-.7 1.8-.9 2.1-.2.3-1 2.8-1 2.8s1.4.2 1.7.2c.4 0 3.7.5 3.7.5s.2-.4.3-.5c.1-.1 1 0 1 0s1.1-1 1.2-1.3c.2-.3.7-.7.9-1.1.1-.3.2-1.4.3-1.6 0-.3-.2-.5.5-.6.8-.1 1-.1 1.1.4.1.5.4 1 .4 1.5.1.4.3 1-.7 1.7s-3.5 2.6-3.5 2.6l-4.6 6.1v.6s-.2 2.8-.3 3.2c-.1.5-.2 1.4-.1 1.5 0 .1.1.5.1.8 0 .2-.1.2-.3.5-.1.2-.2.8-.2 1 0 .3.1 1.1.1 1.2 0 .1.1.6 0 .7-.1.1-.4.3-.6.4l1.9 1.2Z"/>
  <path fill="#3E89C8" fill-rule="evenodd" d="M37.6 78.2c-.066 0-.1-.033-.1-.1.2.1.4.1.5 0-.1 0-.2-.1-.1-.2.3 0 .4.2.5 0-.1 0-.2 0-.3-.1.134 0 .234-.033.3-.1 0-.1-.1-.1-.1-.2-.1.1-.3 0-.3-.3.2.1.6 0 .6-.1-.1-.1-.3-.2-.4-.2-.1-.2.1-.1.1-.1-.1-.1-.3 0-.4-.1 0-.133.034-.2.1-.2.2 0 .5.4.9.1-.4-.1.4-.3.3 0 .3-.2.4-.2.5-.1.1-.1-.1-.2.1-.3.1.1.2.1.3.1-.1.2-.1.6-.5.7 0 .3-.4.9-.5.9 0 0-.1-.2-.2-.1.1.3-.2.1-.2.2.1.2-.1.5-.3.3.1.2 0 .3-.1.3-.2 0-.2-.4-.3-.2 0 0 .1 0 .1.1-.2-.1-.3-.2-.5-.3Zm.8-.8c.1 0 0 .2.1.2.1-.1 0-.3.2-.2v-.2a1.165 1.165 0 0 0-.3.2Zm2-1.4c.2.1.6 0 .9 0 0 .1.1.1.1.2.2-.3.8-.2.8.2-.3.1-.4-.1-.5.1.1.2.5-.1.6.2-.3 0-.1 0-.1.2-.2 0-.5.1-.6.1.1.2-.1.3-.3.4 0 0-.1-.1-.2-.1-.2 0-.4.1-.6 0 .2.2.4.2.6.3 0 .1 0 .2-.1.3 0-.1-.1-.1-.1-.2-.1 0-.1.2-.2.2s-.4-.3-.4-.1c.2-.1.1.2.1.2h.2c-.1 0-.1.2-.1.3-.2 0-.4-.3-.5-.2.1.1.1.3.2.5h-.1c-.2-.2-.4-.3-.6-.5.3 0 .1-.2.1-.5.2 0 .2-.2.2-.3.3.1.3-.5.6-.2 0-.2-.2-.2-.2-.4s.2 0 .1-.2c0 0-.2.1-.1-.1 0-.1.2-.1.3-.2 0-.1-.1-.1-.1-.2Zm1.1.7c.1-.1 0-.2-.1-.3v.1c-.066-.067-.1-.133-.1-.2-.2.1-.1-.1-.3-.1.2.3.4.2.5.5Z" clip-rule="evenodd"/>
  <path stroke="#2C4265" stroke-linecap="round" stroke-linejoin="round" stroke-width=".4" d="M18 33.5s.7-1.7.8-2.1c0-.4-.1-2.5 2-1.5 2 1 .5 2.6.5 2.6s-1.2 1.6-1.2 2.1"/>
  <path stroke="#22B24E" stroke-linecap="round" stroke-linejoin="round" stroke-width=".4" d="M18.2 33.6s.7-1.8.7-2.1c.1-.4 0-2.5 2-1.5s.5 2.6.5 2.6-1.1 1.5-1.2 2"/>
  <path stroke="#2B0A41" stroke-linecap="round" stroke-linejoin="round" stroke-width=".4" d="M18.7 33.6s.8-1.9.8-2.3c.1-.4.1-2.6 2.1-1.6s.4 2.7.4 2.7-1.2 1.7-1.3 2.3"/>
  <path fill="#825AA5" d="M13.4 34s2.7-3.6 5.7-2.3l1.4.6s3.2 1.2 2.7 5.4c0 0-.1 1.3-2.4.2-2.4-1-5.9-2.6-5.9-2.6s-1.8-.6-1.5-1.3Z"/>
  <path fill="url(#c)" d="M13.4 34s2.7-3.6 5.7-2.3l1.4.6s3.2 1.2 2.7 5.4c0 0-.1 1.3-2.4.2-2.4-1-5.9-2.6-5.9-2.6s-1.8-.6-1.5-1.3Z" style="mix-blend-mode:multiply"/>
  <g opacity=".3" style="mix-blend-mode:multiply">
    <path fill="#78469B" d="M14.1 34.3s2.5-3.6 5.4-2.4l-5.4 2.4Z"/>
    <path stroke="#050505" stroke-width=".4" d="M14.1 34.3s2.5-3.6 5.4-2.4"/>
  </g>
  <path fill="#78469B" d="M14.8 34.6s2.5-3.7 5.1-2.6l1.2.6s2.8 1 2.1 5.1c0 0-.1 1.3-2.2.4-2-.9-5-2.3-5-2.3s-1.5-.5-1.2-1.2Z"/>
  <path fill="url(#d)" d="M15.2 34.6c-.3.7 1.1 1.1 1.1 1.1s1.1.5 2.3 1c.3-.6.6-1.5 1.1-2.3-.4-.2-.9-.3-1.3-.5-.3-.1-.7-.1-.8-.1-.4-.1-1.3-.1-1.5-.2-.5.5-.9 1-.9 1Zm.9-1c.2.1 1.1.1 1.5.2.1 0 .5 0 .8.1.4.2.9.3 1.3.5.3-.6.7-1.2 1-1.8a3.902 3.902 0 0 1-.8-.3c-.8-.4-1.6-.2-2.3.1-.6.3-1.1.8-1.5 1.2Zm2.5 3.1c.8.4 1.6.7 2.3 1.1 1.9.8 2-.4 2-.4a17.4 17.4 0 0 0 .1-1.7c-.2-.6-.8-.3-1.8-.7-.4-.2-.9-.4-1.2-.5-.1 0-.2 0-.3-.1-.5.8-.8 1.7-1.1 2.3Zm1.1-2.3c.1.1.2.1.3.1.3.1.8.3 1.2.5 1 .4 1.6.1 1.8.7a3.576 3.576 0 0 0-.3-.9c-.5-1.6-1.7-2-1.7-2a1.162 1.162 0 0 1-.3-.2c-.3.6-.7 1.2-1 1.8Z" style="mix-blend-mode:multiply"/>
  <path fill="#ED2545" d="M21.8 36.9c-1.3-.6-2.5-.2-3.8-1 .134-.267.234-.567.3-.9 1.3.6 2.5.3 3.8 1a7.098 7.098 0 0 0-.3.9Z" opacity=".5"/>
  <path fill="#FEFEFE" d="M18.5 35.9c.067-.2.1-.367.1-.5h.1c.067.067.167.1.3.1h.1l-.1.1v.1c-.066-.067-.133-.1-.2-.1 0 .067.034.1.1.1v.1h-.2v.1h-.2Z"/>
  <path fill="#FEFEFE" fill-rule="evenodd" d="M19.2 35.9c0 .067-.033.133-.1.2-.067 0-.1-.033-.1-.1h-.1l.2-.4v-.1c.133.067.233.1.3.1.067 0 .1.033.1.1.067 0 .1.033.1.1l-.1.1v.3c-.067-.067-.133-.1-.2-.1v-.2h-.1Zm0-.2v.1h.2v-.1h-.2Z" clip-rule="evenodd"/>
  <path fill="#FEFEFE" fill-rule="evenodd" d="M20 36.2c-.066-.067-.166-.1-.3-.1v.1h-.2v-.1l.4-.4h.2c0 .2.034.367.1.5v.1c-.066-.067-.133-.1-.2-.1Zm-.2-.2h.2c-.066 0-.1-.033-.1-.1 0 .067-.033.1-.1.1Z" clip-rule="evenodd"/>
  <path fill="#FEFEFE" d="M20.4 36.1c0 .067.034.1.1.1h.1v-.1h-.1V36h.3v.1c-.067.067-.1.133-.1.2h-.3c-.066 0-.133-.033-.2-.1V36c0-.066.034-.133.1-.2.067-.067.167-.067.3 0h.2v.2h-.1v-.1h-.3v.2Z"/>
  <path fill="#FEFEFE" d="m20.7 36.3.2-.4v-.1c0 .067.034.1.1.1-.067.133-.1.3-.1.5-.066 0-.133-.033-.2-.1Zm.4 0h.3v.1l-.1.1a.887.887 0 0 0-.4-.1c.067-.2.1-.367.1-.5h.2a.887.887 0 0 1-.1.4Zm.5-.1c-.067.067-.1.133-.1.2h-.1v-.1c.067 0 .1-.033.1-.1V36c.067 0 .1.033.1.1v.1Zm-.1.2v.1h-.1v-.1h.1Z"/>
  <path stroke="#78469B" stroke-linecap="round" stroke-linejoin="round" stroke-width=".4" d="M18.5 33.5s.8-1.8.9-2.2c0-.4.1-2.7 2-1.7 2 1 .4 2.8.4 2.8s-1.2 1.7-1.2 2.2"/>
  <path fill="#78469B" stroke="#78469B" stroke-width=".4" d="m18.6 34.2-.6-.3.6-1.4.6.2-.6 1.5Z"/>
  <path fill="#33469C" stroke="#78469B" stroke-width=".4" d="m18.6 33.9-.4-.2.4-1 .5.2-.5 1Z"/>
  <path fill="#78469B" stroke="#78469B" stroke-width=".4" d="m20.7 35.1-.6-.3.6-1.4.6.2-.6 1.5Z"/>
  <path fill="#33469C" stroke="#78469B" stroke-width=".4" d="m20.7 34.8-.5-.2.5-1 .4.2-.4 1Z"/>
  <path fill="#33469C" d="M14.1 34.5h-.2l.1-.3.2.1-.1.2Z"/>
  <path fill="#33469C" d="M14 34.5h-.1l-.4.3.1.2.4-.5Z"/>
  <path fill="#FECF1B" stroke="#F48125" stroke-width=".4" d="M18.7 35.2c-.1.3-.4.4-.7.3-.2-.2-.3-.5-.2-.7.1-.3.4-.4.7-.3.2.1.3.4.2.7Z"/>
  <path fill="#F37523" stroke="#F48125" stroke-width=".4" d="m18.4 35.4-.6-.2.3-.6.6.2-.3.6Z"/>
  <path stroke="#2C4265" stroke-linecap="round" stroke-linejoin="round" stroke-width=".4" d="M18 33.5s.7-1.7.8-2.1c0-.4-.1-2.5 2-1.5 2 1 .5 2.6.5 2.6s-1.2 1.6-1.2 2.1"/>
  <path stroke="#0A7857" stroke-linecap="round" stroke-linejoin="round" stroke-width=".4" d="M18.2 33.6s.7-1.8.7-2.1c.1-.4 0-2.5 2-1.5s.5 2.6.5 2.6-1.1 1.5-1.2 2"/>
  <path stroke="#32BBA4" stroke-linecap="round" stroke-linejoin="round" stroke-width=".4" d="M18.7 33.6s.8-1.9.8-2.3c.1-.4.1-2.6 2.1-1.6s.4 2.7.4 2.7-1.2 1.7-1.3 2.3"/>
  <path fill="#B2DFDB" d="M13.4 34s2.7-3.6 5.7-2.3l1.4.6s3.2 1.2 2.7 5.4c0 0-.1 1.3-2.4.2-2.4-1-5.9-2.6-5.9-2.6s-1.8-.6-1.5-1.3Z"/>
  <path fill="url(#e)" d="M13.4 34s2.7-3.6 5.7-2.3l1.4.6s3.2 1.2 2.7 5.4c0 0-.1 1.3-2.4.2-2.4-1-5.9-2.6-5.9-2.6s-1.8-.6-1.5-1.3Z" style="mix-blend-mode:multiply"/>
  <path stroke="#050505" stroke-width=".4" d="M14.1 34.3s2.5-3.6 5.4-2.4" opacity=".3" style="mix-blend-mode:multiply"/>
  <path fill="#80C9A0" d="M14.8 34.6s2.5-3.7 5.1-2.6l1.2.6s2.8 1 2.1 5.1c0 0-.1 1.3-2.2.4-2-.9-5-2.3-5-2.3s-1.5-.5-1.2-1.2Z"/>
  <path fill="url(#f)" d="M15.2 34.6c-.3.7 1.1 1.1 1.1 1.1s1.1.5 2.3 1c.3-.6.6-1.5 1.1-2.3-.4-.2-.9-.3-1.3-.5-.3-.1-.7-.1-.8-.1-.4-.1-1.3-.1-1.5-.2-.5.5-.9 1-.9 1Zm.9-1c.2.1 1.1.1 1.5.2.1 0 .5 0 .8.1.4.2.9.3 1.3.5.3-.6.7-1.2 1-1.8a3.902 3.902 0 0 1-.8-.3c-.8-.4-1.6-.2-2.3.1-.6.3-1.1.8-1.5 1.2Zm2.5 3.1c.8.4 1.6.7 2.3 1.1 1.9.8 2-.4 2-.4a17.4 17.4 0 0 0 .1-1.7c-.2-.6-.8-.3-1.8-.7-.4-.2-.9-.4-1.2-.5-.1 0-.2 0-.3-.1-.5.8-.8 1.7-1.1 2.3Zm1.1-2.3c.1.1.2.1.3.1.3.1.8.3 1.2.5 1 .4 1.6.1 1.8.7a3.576 3.576 0 0 0-.3-.9c-.5-1.6-1.7-2-1.7-2a1.162 1.162 0 0 1-.3-.2c-.3.6-.7 1.2-1 1.8Z" style="mix-blend-mode:multiply"/>
  <path fill="#ED2545" d="M21.8 36.9c-1.3-.6-2.5-.2-3.8-1 .134-.267.234-.567.3-.9 1.3.6 2.5.3 3.8 1a7.098 7.098 0 0 0-.3.9Z" opacity=".5"/>
  <path fill="#FEFEFE" d="M18.5 35.9c.067-.2.1-.367.1-.5h.1c.067.067.167.1.3.1h.1l-.1.1v.1c-.066-.067-.133-.1-.2-.1 0 .067.034.1.1.1v.1h-.2v.1h-.2Z"/>
  <path fill="#FEFEFE" fill-rule="evenodd" d="M19.2 35.9c0 .067-.033.133-.1.2-.067 0-.1-.033-.1-.1h-.1l.2-.4v-.1c.133.067.233.1.3.1.067 0 .1.033.1.1.067 0 .1.033.1.1l-.1.1v.3c-.067-.067-.133-.1-.2-.1v-.2h-.1Zm0-.2v.1h.2v-.1h-.2Z" clip-rule="evenodd"/>
  <path fill="#FEFEFE" fill-rule="evenodd" d="M20 36.2c-.066-.067-.166-.1-.3-.1v.1h-.2v-.1l.4-.4h.2c0 .2.034.367.1.5v.1c-.066-.067-.133-.1-.2-.1Zm-.2-.2h.2c-.066 0-.1-.033-.1-.1 0 .067-.033.1-.1.1Z" clip-rule="evenodd"/>
  <path fill="#FEFEFE" d="M20.4 36.1c0 .067.034.1.1.1h.1v-.1h-.1V36h.3v.1c-.067.067-.1.133-.1.2h-.3c-.066 0-.133-.033-.2-.1V36c0-.066.034-.133.1-.2.067-.067.167-.067.3 0h.2v.2h-.1v-.1h-.3v.2Z"/>
  <path fill="#FEFEFE" d="m20.7 36.3.2-.4v-.1c0 .067.034.1.1.1-.067.133-.1.3-.1.5-.066 0-.133-.033-.2-.1Zm.4 0h.3v.1l-.1.1a.887.887 0 0 0-.4-.1c.067-.2.1-.367.1-.5h.2a.887.887 0 0 1-.1.4Zm.5-.1c-.067.067-.1.133-.1.2h-.1v-.1c.067 0 .1-.033.1-.1V36c.067 0 .1.033.1.1v.1Zm-.1.2v.1h-.1v-.1h.1Z"/>
  <path stroke="#78C7A4" stroke-linecap="round" stroke-linejoin="round" stroke-width=".4" d="M18.5 33.5s.8-1.8.9-2.2c0-.4.1-2.7 2-1.7 2 1 .4 2.8.4 2.8s-1.2 1.7-1.2 2.2"/>
  <path fill="#996B74" d="m18.6 34.2-.6-.3.6-1.4.6.2-.6 1.5Z"/>
  <path fill="#29B6A4" stroke="#78469B" stroke-width=".4" d="m18.6 33.9-.4-.2.4-1 .5.2-.5 1Z"/>
  <path fill="#996B74" d="m20.7 35.1-.6-.3.6-1.4.6.2-.6 1.5Z"/>
  <path fill="#29B6A4" stroke="#78469B" stroke-width=".4" d="m20.7 34.8-.5-.2.5-1 .4.2-.4 1Z"/>
  <path fill="#33469C" d="M14.1 34.5h-.2l.1-.3.2.1-.1.2Z"/>
  <path fill="#33469C" d="M14 34.5h-.1l-.4.3.1.2.4-.5Z"/>
  <path fill="#FECF1B" stroke="#F48125" stroke-width=".4" d="M18.7 35.2c-.1.3-.4.4-.7.3-.2-.2-.3-.5-.2-.7.1-.3.4-.4.7-.3.2.1.3.4.2.7Z"/>
  <path fill="#F37523" stroke="#F48125" stroke-width=".4" d="m18.4 35.4-.6-.2.3-.6.6.2-.3.6Z"/>
  <path fill="#070709" d="m33.3 10.2.4.3c.067.133.033.167-.1.1l-.1-.1c-.1 0-.2-.1-.3-.1 0 0-.2-.1 0-.4l.2-.3c0-.133.034-.133.1 0l-.2.5Zm2.3-4.5c-.066 0-.066-.033 0-.1v-.2c.1-.1.1-.2.2-.3 0 0 .1-.2.4 0l.3.2c.067 0 .067.033 0 .1l-.9.3Z"/>
  <path fill="#701511" d="m42.9 9.6-.3-.8c0-.1-.1-.2-.2-.3l-6.3-3.4h-.2l2.2 5.4 4.7-.7c.1 0 .1-.1.1-.2Z"/>
  <path fill="#57130B" d="m35.8 5.2-2.5 4.7c0 .1-.1.3 0 .4l.3.7c0 .1.1.2.2.2l4.3-.7-2.2-5.4-.1.1Z"/>
  <path fill="#811517" d="M40.4 14.6c-.1.1-.2.1-.3.1l-6.3-3.4c-.1 0-.2-.2-.1-.2l2.5-4.8c.1-.1.2-.1.3 0l6.3 3.3c.1.1.1.2.1.3l-2.5 4.7Z"/>
  <path fill="#822F19" d="M40.3 14.3c-.1.1-.2.2-.2.1L34 11.2c-.1 0-.1-.1 0-.2l2.3-4.4c0-.1.1-.1.2-.1l6.1 3.2c0 .1.1.2 0 .3l-2.3 4.3Z"/>
  <path fill="#82481D" d="M40.2 14.1c0 .1-.1.1-.2.1l-5.8-3.1s-.1-.1 0-.2l2.1-4.1c.1-.1.2-.1.3-.1l5.8 3.1c0 .1.1.2 0 .2l-2.2 4.1Z"/>
  <g opacity=".5">
    <path fill="#E2E44C" d="M39.1 10.1c-.4.8-1.3 1.1-2.1.7-.7-.4-1-1.4-.6-2.1.4-.8 1.3-1.1 2.1-.7.8.4 1.1 1.4.6 2.1Z"/>
    <path fill="#050505" d="m37.3 9.3-.3-.2.5-.8.3.2-.5.8Zm1.1.5-.3-.1.4-.8.3.1-.4.8Zm-1.8-.5s.3 1.5 2.1 1l-2.1-1Z"/>
  </g>
  <path stroke="#070709" stroke-width=".4" d="m33.5 10.3 2.6-4.7L42.5 9"/>
  <path stroke="#461114" stroke-width=".4" d="M36.1 5.6 42.5 9"/>
  <path fill="#070709" d="m39 7-.4-.2c-.3-.1-.5-.3-.4-.3 0 0 .2 0 .4.2.3.1.5.2.4.3Zm2 1s-.2 0-.5-.2c-.2-.1-.4-.2-.4-.3.1 0 .3.1.5.2s.4.3.4.3Z"/>
  <path fill="#070709" d="M38.3 6.6s.3-.7 1-.3l.8.4-.1.3-.7-.4s-.4-.1-.6.2l-.4-.2Z"/>
  <path fill="#070709" d="M40.8 7.9s.4-.6-.3-1l-.9-.5-.1.3.7.4s.3.2.1.6l.5.2Z"/>
  <path fill="#1B0C0F" d="M38.4 6.7s.3-.7 1-.4l.8.5-.1.2-.7-.4s-.4-.1-.6.3l-.4-.2Z"/>
  <path fill="#1B0C0F" d="M40.8 8s.5-.7-.2-1l-.9-.5-.2.2.8.4s.3.3.1.6l.4.3Z"/>
  <path fill="#070709" d="M36 6.7c-.066 0-.1-.033-.1-.1l.1-.1c.1-.1.1-.3.2-.3 0 0 .1-.2.4 0l.3.1c.067.066.034.133-.1.2l-.8.2Zm6.6 3.5c.067.134.1.134.1 0l.1-.1c.1-.1.1-.2.2-.3 0 0 .1-.2-.3-.4l-.3-.1c-.066-.067-.1-.033-.1.1l.3.8Z"/>
  <path fill="#070709" d="M36 6.7c-.066 0-.1-.033-.1-.1l.1-.1c.1-.1.1-.3.2-.3 0 0 .1-.2.4 0l.3.1c.067.066.034.133-.1.2l-.8.2Zm6.6 3.5c.067.134.1.134.1 0l.1-.1c.1-.1.1-.2.2-.3 0 0 .1-.2-.3-.4l-.3-.1c-.066-.067-.1-.033-.1.1l.3.8Zm-2.1 3.9c.133 0 .167.034.1.1l-.1.2s-.1.2-.1.3c0 0-.1.1-.4 0l-.3-.2c-.067-.067-.067-.1 0-.1l.8-.3Zm-6.6-3.5c0-.066-.033-.066-.1 0l-.1.1c0 .1-.1.3-.1.4 0 0-.1.1.2.3l.3.2c.134 0 .167-.033.1-.1l-.3-.9ZM36 5.2l-.4.5c-.066 0-.066-.033 0-.1v-.2c.1-.1.1-.2.2-.3 0 0 .1-.2.4 0l.3.2c.067 0 .067.033 0 .1l-.5-.2ZM42.7 9l-.1-.2-.5-.4c0-.067.033-.1.1-.1l.2.1.1.1s.3.1.3.2m-5.4-2.4c.067.067.033.1-.1.1l-.1-.1s-.2-.1-.2-.2l-.1-.2c-.067-.067-.067-.067 0 0h.1c.1.1.2.2.3.2l.1.2Z"/>
  <path fill="#1B0C0F" d="M37.5 6.3c0 .133-.033.167-.1.1l-.1-.1c-.1 0-.2-.1-.2-.2l-.2-.2c0-.067.034-.067.1 0h.1l.2.2.2.2Z"/>
  <path fill="#8A3825" d="M37.3 6.2c.067.067.067.1 0 .1l-.2-.2c-.067-.067-.067-.1 0-.1.1 0 .2.1.2.2Z"/>
  <path fill="#070709" d="M42.1 8.8c.067.133.034.167-.1.1v-.1c-.1 0-.2-.1-.3-.2l-.1-.2c-.066-.067-.066-.067 0 0h.1c.1.1.2.2.3.2l.1.2Z"/>
  <path fill="#1B0C0F" d="M42.2 8.9c0 .067-.033.067-.1 0H42c-.1-.1-.2-.2-.2-.3l-.2-.2c0-.067.034-.067.1 0h.1c.1.1.2.2.2.3l.2.2Z"/>
  <path fill="#8A3825" d="M42 8.7c.067.067.067.1 0 .1-.1-.1-.2-.1-.2-.2-.066-.067-.066-.1 0-.1.1 0 .2.1.2.2Z"/>
  <path fill="#070709" d="M24.3 43.4c.067.067.034.067-.1 0h-.1c0-.1-.2-.2-.2-.2l-.1-.2c-.066-.133-.066-.167 0-.1h.1l.3.3.1.2Z"/>
  <path fill="#1B0C0F" d="M24.4 43.4c0 .067-.033.067-.1 0h-.1l-.2-.2-.2-.2c0-.133.034-.167.1-.1l.1.1c.1 0 .2.1.2.2l.2.2Z"/>
  <path fill="#8A3825" d="M24.2 43.2c.067.067.067.1 0 .1-.1 0-.2-.1-.2-.2-.067-.067-.067-.1 0-.1l.2.2Z"/>
  <path fill="#FBE109" d="M18.8 8.4c-.2-.1-.4-.3-.3-.5 0-.2.3-.3.5-.3.2.1.3.3.3.5-.1.2-.3.4-.5.3Z"/>
  <path fill="#FBE109" d="M18.8 8.4c-.2-.1-.4-.3-.3-.5 0-.2.3-.3.5-.3.2.1.3.3.3.5-.1.2-.3.4-.5.3Z"/>
  <path fill="#5D463C" d="M21.6 6.6s.8 1.1.7 2.4c-.1 1.4-.3 1.9-.4 2.1-.1.2-.4.6-.4.6h-1l-1.2-.4s.1-1.8.5-2.7c.4-.8 1-2 1.2-2.1.2-.2.6.1.6.1Z"/>
  <path stroke="#050505" stroke-linecap="round" stroke-linejoin="round" stroke-width=".4" d="M21.6 6.6s.8 1.1.7 2.4c-.1 1.4-.3 1.9-.4 2.1-.1.2-.4.6-.4.6h-1l-1.2-.4s.1-1.8.5-2.7c.4-.8 1-2 1.2-2.1.2-.2.6.1.6.1Z"/>
  <g opacity=".3" style="mix-blend-mode:multiply">
    <mask id="g" width="4" height="7" x="19" y="6" maskUnits="userSpaceOnUse" style="mask-type:luminance">
      <path fill="#fff" d="m19.11 11.34 2.51.7 1.35-4.84-2.5-.7-1.36 4.84Z"/>
    </mask>
    <g mask="url(#g)">
      <path fill="#050505" d="M21 6.7S19.9 8.8 19.8 9c-.1.2-.6 2.2-.4 2.3.2.1.7.3 1 .4h1.1c.1 0 .3-.5.3-.6-.1.1-.3.3-.5.2-.2-.1-.2-.3-.3-.3-.3-.1-.3.2-.5.2-.6.2-.6-.8-.5-1.1.1-.5 1-3.4 1-3.4Z"/>
      <path stroke="#050505" stroke-linecap="round" stroke-linejoin="round" stroke-width=".4" d="M21 6.7S19.9 8.8 19.8 9c-.1.2-.6 2.2-.4 2.3.2.1.7.3 1 .4h1.1c.1 0 .3-.5.3-.6-.1.1-.3.3-.5.2-.2-.1-.2-.3-.3-.3-.3-.1-.3.2-.5.2-.6.2-.6-.8-.5-1.1.1-.5 1-3.4 1-3.4Z"/>
    </g>
  </g>
  <g opacity=".2" style="mix-blend-mode:multiply">
    <mask id="h" width="3" height="4" x="20" y="6" maskUnits="userSpaceOnUse" style="mask-type:luminance">
      <path fill="#fff" d="m20.32 8.71 1.27.35.63-2.24-1.27-.35-.63 2.24Z"/>
    </mask>
    <g mask="url(#h)">
      <path fill="#B9BBC7" d="M21 6.6s-.1.9-.1 1.2v1l.6.1s-.1-.9-.1-1.2c0-.4.1-1 .1-1l-.5-.1Z"/>
      <path stroke="#050505" stroke-width=".4" d="M21 6.6s-.1.9-.1 1.2v1l.6.1s-.1-.9-.1-1.2c0-.4.1-1 .1-1l-.5-.1Z"/>
      <path fill="#B9BBC7" d="M21.2 6.7v.9c-.1.4 0 1.2 0 1.2"/>
      <path stroke="#050505" stroke-width=".4" d="M21.2 6.7v.9c-.1.4 0 1.2 0 1.2"/>
    </g>
  </g>
  <path fill="#B9BBC7" d="M21.1 6.5s0 .9-.1 1.2v.9l.7.1s-.2-.8-.1-1.2v-.9l-.5-.1Z"/>
  <path stroke="#050505" stroke-width=".4" d="M21.1 6.5s0 .9-.1 1.2v.9l.7.1s-.2-.8-.1-1.2v-.9l-.5-.1Z"/>
  <path fill="#B9BBC7" d="M21.4 6.5s-.1.6-.1 1v1.2"/>
  <path stroke="#050505" stroke-width=".4" d="M21.4 6.5s-.1.6-.1 1v1.2"/>
  <path fill="#3D2822" d="M20.5 6.4c-.2-.1-.2-.3-.2-.4l.2-.4c.067-.267.1-.433.1-.5-.1-.1-.4-.2-.9-.4-.4-.1-.9-.2-1-.3-.1 0-.2.1-.3.4-.1.2-.1.3-.1.3-.1.2-.3.3-.4.2-.1 0-.2-.2-.2-.3 0 0 .1-.3.3-.5.067-.2.134-.333.2-.4.1-.1.3-.2.5-.2s.8.2 1.3.4c.267.066.5.133.7.2.2.2.4.3.4.5.1.1.1.3-.1.7-.1.3-.2.5-.2.5 0 .1-.2.2-.3.2Z"/>
  <path stroke="#050505" stroke-linecap="round" stroke-linejoin="round" stroke-width=".4" d="M20.5 6.4c-.2-.1-.2-.3-.2-.4l.2-.4c.067-.267.1-.433.1-.5-.1-.1-.4-.2-.9-.4-.4-.1-.9-.2-1-.3-.1 0-.2.1-.3.4-.1.2-.1.3-.1.3-.1.2-.3.3-.4.2-.1 0-.2-.2-.2-.3 0 0 .1-.3.3-.5.067-.2.134-.333.2-.4.1-.1.3-.2.5-.2s.8.2 1.3.4c.267.066.5.133.7.2.2.2.4.3.4.5.1.1.1.3-.1.7-.1.3-.2.5-.2.5 0 .1-.2.2-.3.2Z"/>
  <path fill="#3D2822" d="M16.2 4.8c.2 0 1.8.1 3 .6 1.3.5 2.4 1.2 2.4 1.2s-.5-.2-.6.1c-.2.2-.9 1.5-1.2 2.3-.1.3-.3 1.1-.4 1.6-.1.3 0 .7 0 .7s-1.3-.1-2.9-.8c-1.6-.7-2.6-1-2.6-1.2 0-.2.1-1.7.7-2.6.7-1 1.4-1.9 1.6-1.9Z"/>
  <path stroke="#050505" stroke-linecap="round" stroke-linejoin="round" stroke-width=".4" d="M16.2 4.8c.2 0 1.8.1 3 .6 1.3.5 2.4 1.2 2.4 1.2s-.5-.2-.6.1c-.2.2-.9 1.5-1.2 2.3-.1.3-.3 1.1-.4 1.6-.1.3 0 .7 0 .7s-1.3-.1-2.9-.8c-1.6-.7-2.6-1-2.6-1.2 0-.2.1-1.7.7-2.6.7-1 1.4-1.9 1.6-1.9Z"/>
  <g opacity=".3" style="mix-blend-mode:multiply">
    <mask id="i" width="5" height="7" x="13" y="4" maskUnits="userSpaceOnUse" style="mask-type:luminance">
      <path fill="#fff" d="m13.63 9.62 2.1.59 1.41-5.04-2.1-.58-1.41 5.03Z"/>
    </mask>
    <g mask="url(#i)">
      <path fill="#050505" d="M16 4.9s-1.5 1.9-1.6 2.2c-.2.4-.6 2-.5 2.2.1.1 1.8.9 1.8.9s-1-1-1-1.7c0-.4.1-1.2.6-2.3.3-.6.7-1.3.7-1.3Z"/>
      <path stroke="#050505" stroke-linecap="round" stroke-linejoin="round" stroke-width=".4" d="M16 4.9s-1.5 1.9-1.6 2.2c-.2.4-.6 2-.5 2.2.1.1 1.8.9 1.8.9s-1-1-1-1.7c0-.4.1-1.2.6-2.3.3-.6.7-1.3.7-1.3Z"/>
    </g>
  </g>
  <path fill="#3D2822" d="M20.3 6.3c-.2-.1-.2-.2-.2-.4l.2-.4c.067-.2.1-.333.1-.4-.1-.1-.4-.2-.9-.4-.4-.2-.9-.3-1-.3-.1 0-.2.1-.3.3-.1.2-.1.4-.1.4-.1.1-.2.2-.4.2-.1-.1-.2-.2-.2-.4 0 0 .1-.3.3-.5L18 4c.1-.1.3-.2.5-.2.2.1.8.2 1.3.4.267.134.5.233.7.3.3.1.4.2.5.4 0 .1 0 .3-.2.8-.1.2-.2.4-.2.5 0 .1-.2.1-.3.1Z"/>
  <path stroke="#050505" stroke-linecap="round" stroke-linejoin="round" stroke-width=".4" d="M20.3 6.3c-.2-.1-.2-.2-.2-.4l.2-.4c.067-.2.1-.333.1-.4-.1-.1-.4-.2-.9-.4-.4-.2-.9-.3-1-.3-.1 0-.2.1-.3.3-.1.2-.1.4-.1.4-.1.1-.2.2-.4.2-.1-.1-.2-.2-.2-.4 0 0 .1-.3.3-.5L18 4c.1-.1.3-.2.5-.2.2.1.8.2 1.3.4.267.134.5.233.7.3.3.1.4.2.5.4 0 .1 0 .3-.2.8-.1.2-.2.4-.2.5 0 .1-.2.1-.3.1Z"/>
  <path fill="#471F10" d="m32.7 37.9.6.1c.067.133.034.2-.1.2l-.1-.1h-.4s-.2 0-.2-.4l.1-.3c0-.133.034-.133.1 0v.5Zm.5-5.2c-.066.067-.1.067-.1 0v-.2c0-.1.1-.2.1-.3 0 0 0-.2.3-.2l.4.1c.067 0 .067.033 0 .1l-.7.5Z"/>
  <path fill="#DB7327" d="m41.6 33.7-.6-.6c0-.1-.2-.2-.3-.2l-7.3-.8h-.1l4.1 4.3 4.1-2.4c.1-.1.1-.2.1-.3Z"/>
  <path fill="#C37429" d="m33.2 32.3-.6 5.4c0 .1.1.2.1.3l.6.6c.1.1.2.1.3 0l3.8-2.2-4.1-4.3c-.066.067-.1.133-.1.2Z"/>
  <path fill="#BB7429" d="M41.1 39.4c0 .1-.1.2-.2.2l-7.3-.8c-.1 0-.2-.1-.2-.2l.6-5.4c0-.1.1-.2.2-.2l7.3.8c.1 0 .2.1.2.2l-.6 5.4Z"/>
  <path stroke="#471F10" stroke-width=".4" d="m33 38 .6-5.5 7.4.8"/>
  <path stroke="#B42224" stroke-width=".4" d="m33.6 32.5 7.4.8"/>
  <path fill="#471F10" d="M36.9 32.7s-.2.1-.5 0c-.2 0-.5-.1-.5-.1 0-.1.3-.1.5 0 .3 0 .5.1.5.1Zm2.3.3h-.5c-.3-.1-.5-.1-.5-.2h.5c.3 0 .5.1.5.2Z"/>
  <path fill="#471F10" d="M36.1 32.6s0-.7.8-.6l1 .1-.1.2H37s-.3 0-.4.4l-.5-.1Z"/>
  <path fill="#471F10" d="M38.9 32.9s.2-.7-.6-.8l-1-.1-.1.3.9.1s.4.1.3.5h.5Z"/>
  <path fill="#CF2427" d="M36.2 32.6s.1-.7.8-.6l1 .1v.3l-.9-.1s-.3 0-.4.4l-.5-.1Z"/>
  <path fill="#CF2427" d="M39 33s.2-.8-.6-.9l-1-.1-.1.3.9.1s.4.1.3.5l.5.1Z"/>
  <path fill="#471F10" d="M34 33.6c-.066.067-.1.033-.1-.1V33s.1-.2.4-.1h.4c.067 0 .067.034 0 .1l-.7.6Zm7.5.8c.067.133.133.133.2 0v-.5s0-.2-.3-.2l-.4-.1c-.066 0-.066.033 0 .1l.5.7Z"/>
  <path fill="#471F10" d="M34 33.6c-.066.067-.1.033-.1-.1V33s.1-.2.4-.1h.4c.067 0 .067.034 0 .1l-.7.6Zm7.5.8c.067.133.133.133.2 0v-.5s0-.2-.3-.2l-.4-.1c-.066 0-.066.033 0 .1l.5.7Zm-.5 4.5c.133-.067.167-.033.1.1v.5s0 .2-.4.1h-.3c-.133 0-.166-.033-.1-.1l.7-.6Zm-7.5-.8c-.066-.066-.1-.066-.1 0l-.1.2v.3s0 .2.3.3h.4c.134 0 .167-.033.1-.1l-.6-.7Zm-.1-5.9-.2.5c-.066.067-.1.067-.1 0v-.2c0-.1.1-.2.1-.3 0 0 0-.2.3-.2l.4.1c.067 0 .067.033 0 .1h-.5Zm7.8 1-.2-.1-.6-.2c-.066-.067-.033-.1.1-.1h.3s.3 0 .3.2m-5.9-.3c.067.067.033.1-.1.1H35c-.1 0-.2-.1-.3-.1l-.2-.2c-.066-.067-.066-.1 0-.1l.1.1c.1 0 .3 0 .4.1l.2.1Z"/>
  <path fill="#861F19" d="M35.2 32.7c.067.067.067.1 0 .1h-.1c-.1 0-.3-.1-.3-.1l-.2-.2c-.066-.067-.066-.1 0-.1h.1c.1.1.3.1.3.2l.2.1Z"/>
  <path fill="#F59828" d="M35 32.6c.067.067.067.1 0 .1-.1 0-.2-.1-.2-.1-.066-.067-.066-.1 0-.1l.2.1Z"/>
  <path fill="#471F10" d="M40.6 33.3c.067.067.034.1-.1.1h-.1c-.1 0-.2-.1-.3-.1l-.2-.2c-.066-.066-.066-.066 0 0h.1c.1 0 .3 0 .4.1l.2.1Z"/>
  <path fill="#861F19" d="M40.6 33.3c.067.067.067.1 0 .1h-.1c-.1 0-.3-.1-.4-.1l-.2-.2c-.066-.067-.033-.1.1-.1l.1.1c.1 0 .2 0 .3.1l.2.1Z"/>
  <path fill="#F59828" d="M40.4 33.2c.067.067.067.1 0 .1-.1 0-.2 0-.2-.1-.067-.067-.067-.1 0-.1 0 0 .1.1.2.1Z"/>
  <path fill="#102A47" d="M40.5 35.5c.2.5 0 1.1-.5 1.3-.6.2-1.2-.1-1.4-.6-.2-.5.1-1.1.6-1.3.5-.2 1.1 0 1.3.6Z"/>
  <path fill="#DB454A" d="m39.5 35.5.3-.4.1.5.4.2-.4.2v.5l-.4-.3-.4.1.2-.4-.3-.4h.5Z"/>
  <mask id="j" width="4" height="3" x="35" y="34" maskUnits="userSpaceOnUse" style="mask-type:luminance">
    <path fill="#fff" d="m35.22 36.25 3.63-.61-3.54-1.55-.09 2.16Z"/>
  </mask>
  <g mask="url(#j)">
    <path fill="url(#k)" d="m35.6 38.3-1.5-3.8 4.1-1.5 1.4 3.7-4 1.6Z"/>
  </g>
  <g opacity=".3">
    <mask id="l" width="4" height="3" x="35" y="34" maskUnits="userSpaceOnUse" style="mask-type:luminance">
      <path fill="#fff" d="m35.19 35.86 2.83.8.44-1.56-2.83-.8-.44 1.56Z"/>
    </mask>
    <g mask="url(#l)">
      <path fill="#3E6CB4" d="m38.3 35.5-2.7-1.2V36l2.7-.5Z"/>
    </g>
  </g>
  <path fill="#2D3332" d="M26.7 26c0 .1 0 .2-.2.2-.1 0-.2 0-.3-.1 0-.1.1-.2.2-.2.2-.1.3 0 .3.1Zm1.4.2c0 .1-.1.2-.2.2-.2.1-.3 0-.3-.1s0-.2.2-.2c.1-.1.2 0 .3.1Zm8.3-2c0 .1-.1.2-.2.2-.1.1-.3 0-.3-.1s.1-.2.2-.2.3 0 .3.1Z"/>
  <path fill="#874D7D" d="m26.1 21.1-1.1-.5c-.067.067-.067.133 0 .2l1.2 5.1c0 .1.1.1.2.1l1.4.2 7.1-2.2c.1 0 .1-.1.1-.3l-1.1-4.5-7.8 1.9Z"/>
  <path fill="#9B4D7D" d="m33.9 19.2-.1-.2c-.1-.1-.7-.4-.8-.4l-7.9 1.9c-.066 0-.1.033-.1.1l1.1.5 7.8-1.9Z"/>
  <path fill="#2D3332" d="M28.2 20s-.3-.7.5-.9l.9-.2v.2l-.8.2s-.3.2-.2.6l-.4.1Z"/>
  <path fill="#2D3332" d="M30.8 19.3s-.1-.7-.9-.5l-.9.2v.3l.9-.2s.3 0 .4.4l.5-.2Z"/>
  <path fill="#2D3332" d="M28.3 19.9s-.3-.7.5-.8l.9-.3v.3l-.8.2s-.3.1-.2.5l-.4.1Z"/>
  <path fill="#2D3332" d="M30.9 19.3s-.1-.7-.9-.5l-.9.2v.3l.9-.2s.3-.1.4.3l.5-.1Z"/>
  <path fill="#B24D7D" d="M27.9 26.2c-.1 0-.2 0-.3-.2l-2-4.9c0-.1.1-.2.2-.3l7.8-1.9c.2 0 .3.1.3.2l2.4 4.9c0 .1 0 .2-.1.2"/>
  <path stroke="#D88F52" stroke-width=".4" d="M27.9 26.2c-.1 0-.2 0-.3-.2l-2-4.9c0-.1.1-.2.2-.3l7.8-1.9c.2 0 .3.1.3.2l2.4 4.9c0 .1 0 .2-.1.2"/>
  <path fill="#9B4D7D" d="M36 23.8c0 .1 0 .3-.1.3L28.1 26c-.2 0-.3-.1-.3-.2l-1.9-4.6c0-.1.1-.2.2-.2l7.4-1.8c.1 0 .2 0 .3.1l2.2 4.5Z"/>
  <path fill="#99777C" d="M35.7 23.7c0 .1 0 .2-.1.3l-7.4 1.7c-.1 0-.2 0-.2-.1l-1.8-4.3c0-.1.1-.2.2-.2l7-1.7c.1 0 .2.1.2.2l2.1 4.1Z"/>
  <path fill="#2D3332" d="m29.1 26-.4.1-.1-.5.4-.1.1.5Zm6.2-1.5-.4.1-.1-.5.4-.1.1.5Z"/>
  <path fill="#6A3433" d="m29.2 26-.4.1-.1-.6.4-.1.1.6Zm-2.3-5.5-.4.1-.7-.3.4-.1.7.3Zm6-1.4-.4.1-.7-.4.4-.1.7.4ZM27.2 21l-.4.1-.2-.5.4-.1.2.5Z"/>
  <path fill="#6A3433" d="m33.1 19.6-.4.1-.2-.5.4-.1.2.5Z"/>
  <path stroke="#6A3433" stroke-width=".4" d="M28.9 25.5 27 20.9m8 3.1-2.1-4.4"/>
  <path fill="#6A3433" d="m35.4 24.5-.4.1-.1-.5.4-.1.1.5Zm-9 1.4-1.1-5 2 5.1-.9-.1Z"/>
  <path fill="#612C0F" d="M26.3 47.6c-.1-.2-2.8.2-3.2.4-1.2.2-2.8.8-2.9 1.2.4 1.8-.1 5.9 2 6.9.8.1 2.1-.1 2.9-.6.4-.1.8-.2 1.1-.3.6-.2 1-.4 1.5-.8.3-.2.6-.4.6-.8 0-.5-.2-.7-.4-1.1-.4-.9-1.5-4.7-1.6-4.9Z"/>
  <path stroke="#0C0908" stroke-linecap="round" stroke-linejoin="round" stroke-width=".4" d="M26.3 47.6c-.1-.2-2.8.2-3.2.4-1.2.2-2.8.8-2.9 1.2.4 1.8-.1 5.9 2 6.9.8.1 2.1-.1 2.9-.6.4-.1.8-.2 1.1-.3.6-.2 1-.4 1.5-.8.3-.2.6-.4.6-.8 0-.5-.2-.7-.4-1.1-.4-.9-1.5-4.7-1.6-4.9Z"/>
  <g opacity=".2">
    <mask id="m" width="10" height="12" x="20" y="45" maskUnits="userSpaceOnUse" style="mask-type:luminance">
      <path fill="#fff" d="m20.05 54.83 7.41 1.95 2.34-8.89-7.41-1.95-2.34 8.89Z"/>
    </mask>
    <g mask="url(#m)">
      <path fill="#0C0908" d="M28.3 53.6c0-.5-.2-.7-.4-1.1-.4-.9-1.5-4.7-1.6-4.9-.1-.2.2-.5 0-.6-.5-.3-1.7.2-2 .4-.4.133-.766.3-1.1.5-.5.1-1.1.4-1.5.8-.4 2.5-.4 7.1 2.2 7.1.334 0 .667-.033 1-.1.067-.067.134-.1.2-.1.4-.2.8-.3 1.1-.4.6-.2 1-.4 1.5-.8.3-.2.6-.4.6-.8Z"/>
    </g>
  </g>
  <g opacity=".2">
    <mask id="n" width="10" height="11" x="20" y="46" maskUnits="userSpaceOnUse" style="mask-type:luminance">
      <path fill="#fff" d="m20.86 54.71 6.68 1.76 2.26-8.58-6.68-1.76-2.26 8.58Z"/>
    </mask>
    <g mask="url(#n)">
      <path fill="#0C0908" d="M26.3 47c-.5-.3-1.7.2-2 .4-.6.3-1.2.6-1.7 1 0 .066-.033.133-.1.2 0 .7.1 1.7.3 2.7a.89.89 0 0 0 .1.4l1.7 3.9c.067.067.134.1.2.1.4-.2 1-.3 1.4-.5.6-.2 1-.4 1.5-.8.3-.2.6-.4.6-.8 0-.5-.2-.7-.4-1.1-.4-.9-1.5-4.7-1.6-4.9-.1-.2.2-.5 0-.6Z"/>
    </g>
  </g>
  <path fill="#2E130C" d="m29.7 53.1-.7.1s.2.1.1.4c-.4.5-1 .5-1 .5l-.8.4c.2.1.7.1 1.3-.1.4-.1.7-.3.8-.5l.1-.1v-.1c.2-.3.2-.6.2-.6Z"/>
  <path stroke="#150D0B" stroke-linejoin="round" stroke-width=".4" d="m29.7 53.1-.7.1s.2.1.1.4c-.4.5-1 .5-1 .5l-.8.4c.2.1.7.1 1.3-.1.4-.1.7-.3.8-.5l.1-.1v-.1c.2-.3.2-.6.2-.6Z"/>
  <path fill="#2E130C" d="M25.4 49.4s1.2 2.2 2.7 2.6c1.2.3 1 1.3 1 1.3l.7-.1s.1-.7-.4-1.3c-.4-.5-.8-.4-1.6-.9-.5-.3-1.6-1.9-1.6-1.9l-.8.3Z"/>
  <path stroke="#150D0B" stroke-linejoin="round" stroke-width=".4" d="M25.4 49.4s1.2 2.2 2.7 2.6c1.2.3 1 1.3 1 1.3l.7-.1s.1-.7-.4-1.3c-.4-.5-.8-.4-1.6-.9-.5-.3-1.6-1.9-1.6-1.9l-.8.3Z"/>
  <path fill="#2E130C" d="M29.6 52.8c.1.4.3.7.5.9.3.2.5.4.4.5-.2.3-.6.2-.8-.1-.3-.3-.5-.7-.7-1l.6-.3Z"/>
  <path stroke="#150D0B" stroke-linejoin="round" stroke-width=".4" d="M29.6 52.8c.1.4.3.7.5.9.3.2.5.4.4.5-.2.3-.6.2-.8-.1-.3-.3-.5-.7-.7-1l.6-.3Z"/>
  <path fill="#767777" d="M29.9 53.2s0-.1-.1-.2c0-.1-.1-.1-.2-.1-.2.067-.366.167-.5.3H29v.1l.1.1c0 .067.034.1.1.1l.1.1c-.1 0-.1.1-.1.1h-.1c-.066-.066-.1-.133-.1-.2l-.1-.1v-.3c0-.066.034-.1.1-.1.134-.066.3-.133.5-.2l.1-.1c.2-.1.2.1.2.1.1 0 .1.2.2.3 0 0 0 .1-.1.2"/>
  <path stroke="#363637" stroke-linecap="round" stroke-width=".4" d="m29.9 53.2-.1-.2c0-.1-.1-.1-.2-.1-.2.067-.366.167-.5.3-.066 0-.1.033-.1.1l.1.2"/>
  <path stroke="#363637" stroke-width=".4" d="M29.3 53.6c-.1 0-.1.1-.2.1-.1-.1-.1-.2-.2-.3v-.3c0-.066.034-.1.1-.1.134-.066.3-.133.5-.2l.1-.1c.2-.1.2.1.2.1.1 0 .1.2.2.3 0 0 0 .1-.1.2"/>
  <path fill="#767777" d="m29.5 53.1-.1-.3c0-.067-.033-.067-.1 0-.067 0-.1.033-.1.1l.1.3h.1l.1-.1Z"/>
  <path stroke="#363637" stroke-linejoin="round" stroke-width=".4" d="m29.5 53.1-.1-.3c0-.067-.033-.067-.1 0-.067 0-.1.033-.1.1l.1.3h.1l.1-.1Z"/>
  <path fill="#150D0B" d="M29.6 53.4v.1h-.1v-.1c.067-.067.1-.067.1 0Zm.2.2-.1.1c-.066-.067-.066-.1 0-.1h.1Z"/>
  <path fill="#2E130C" d="m27.3 54-.7.1s.3.1.2.3c-.5.5-.9.8-.9.8l-.9.4c.3.1.6-.1 1.3-.3.4-.1.6-.4.8-.6h.1v-.1c.1-.3.1-.6.1-.6Z"/>
  <path stroke="#150D0B" stroke-linejoin="round" stroke-width=".4" d="m27.3 54-.7.1s.3.1.2.3c-.5.5-.9.8-.9.8l-.9.4c.3.1.6-.1 1.3-.3.4-.1.6-.4.8-.6h.1v-.1c.1-.3.1-.6.1-.6Z"/>
  <path fill="#2E130C" d="M23.1 50.2s1.1 2.2 2.7 2.7c1.1.3 1 1.2 1 1.2h.7s0-.8-.4-1.3c-.5-.5-.8-.5-1.6-.9-.6-.3-1.6-1.9-1.6-1.9l-.8.2Z"/>
  <path stroke="#150D0B" stroke-linejoin="round" stroke-width=".4" d="M23.1 50.2s1.1 2.2 2.7 2.7c1.1.3 1 1.2 1 1.2h.7s0-.8-.4-1.3c-.5-.5-.8-.5-1.6-.9-.6-.3-1.6-1.9-1.6-1.9l-.8.2Z"/>
  <path fill="#2E130C" d="M27.4 53.9V55c.1.3.2.5 0 .6-.3.1-.5-.1-.6-.5v-1.2h.6Z"/>
  <path stroke="#150D0B" stroke-linejoin="round" stroke-width=".4" d="M27.4 53.9V55c.1.3.2.5 0 .6-.3.1-.5-.1-.6-.5v-1.2h.6Z"/>
  <path fill="#767777" d="M27.4 54.3c.1 0 .1-.1.1-.1v-.1c0-.1 0-.1-.2-.1h-.6v.1c-.066 0-.1.033-.1.1v.2h.1v.1h-.1c-.066-.067-.1-.133-.1-.2v-.4c.067-.067.134-.1.2-.1h.6c.3 0 .3.1.3.2v.3l-.1.1"/>
  <path stroke="#363637" stroke-linecap="round" stroke-width=".4" d="M27.5 54.3v-.2c0-.1 0-.1-.2-.1h-.5c-.067 0-.1.033-.1.1-.1 0 0 .3 0 .3"/>
  <path stroke="#363637" stroke-width=".4" d="M26.7 54.5h-.1c-.1-.1-.1-.2-.1-.3v-.3c.067-.067.134-.1.2-.1h.6c.3 0 .3.1.3.2v.3s0 .1-.1.1"/>
  <path fill="#767777" d="M27.1 54.1v-.4c-.066 0-.1.033-.1.1v.3c0 .067.034.1.1.1v-.1Z"/>
  <path stroke="#363637" stroke-linejoin="round" stroke-width=".4" d="M27.1 54.1v-.4c-.066 0-.1.033-.1.1v.3c0 .067.034.1.1.1v-.1Z"/>
  <path fill="#150D0B" d="M27.1 54.4v.1c-.066 0-.1-.033-.1-.1h.1Zm.1.3H27l.1-.1.1.1Z"/>
  <path fill="#612C0F" d="M21.7 53c.2-.067.434 0 .7.2.2.134.367.333.5.6.5.7.7 1.3.4 1.6-.4.2-1 .1-1.6-.8-.5-.6-.1-1.4 0-1.6Z"/>
  <path stroke="#0C0908" stroke-width=".4" d="M21.7 53c.2-.067.434 0 .7.2.2.134.367.333.5.6.5.7.7 1.3.4 1.6-.4.2-1 .1-1.6-.8-.5-.6-.1-1.4 0-1.6Z"/>
  <path stroke="#0C0908" stroke-linejoin="round" stroke-width=".4" d="M22.2 53.9c.1.3.5.9 1.1 1.3"/>
  <g opacity=".2">
    <mask id="o" width="3" height="3" x="21" y="53" maskUnits="userSpaceOnUse" style="mask-type:luminance">
      <path fill="#fff" d="m21.51 54.81 1.96.52.44-1.69-1.96-.51-.44 1.68Z"/>
    </mask>
    <g mask="url(#o)">
      <path fill="#0C0908" d="M22.3 53.9c-.2-.2-.3-.5-.4-.8.134 0 .3.066.5.2.2.133.367.3.5.5.5.7.6 1.3.6 1.5-.5-.3-.9-.9-1.2-1.4Z"/>
    </g>
  </g>
  <path fill="#612C0F" d="M22.4 54.3c-.4.2-.9.1-1.2.1.1-.3-.2-1.1.4-1.4.3-.1.5 0 .7.2.2.3.3.7.1 1.1Z"/>
  <path stroke="#0C0908" stroke-linejoin="round" stroke-width=".4" d="M22.4 54.3c-.4.2-.9.1-1.2.1.1-.3-.2-1.1.4-1.4.3-.1.5 0 .7.2.2.3.3.7.1 1.1Z"/>
  <path fill="#F5F7F7" d="M21.5 54.2c.1.1.2.1.2 0 .067 0 .1-.033.1-.1-.1-.1-.1-.1-.2-.1-.066.067-.1.133-.1.2Z"/>
  <path stroke="#B1B3B4" stroke-linejoin="round" stroke-width=".4" d="M21.5 54.2c.1.1.2.1.2 0 .067 0 .1-.033.1-.1-.1-.1-.1-.1-.2-.1-.066.067-.1.133-.1.2Z"/>
  <path fill="#0C0908" d="M22.5 48.1c-.1-.1-2.1.7-2.2.9-.3.3 0 .7.1 1.1.1.2 1.3 1.9 1.5 1.3.1-.3.2-1.2.2-1.7.1-.2.2-.8.3-1.1.3-.4.9-.7 1.3-.9l-1.2.4Z"/>
  <path fill="#2E130C" d="M24.6 50.2c.2.4.4.7.5 1 .3.2.5.4.4.5-.2.2-.6.1-.8-.2-.3-.3-.5-.7-.7-1.1.2 0 .6-.2.6-.2Z"/>
  <path stroke="#150D0B" stroke-linejoin="round" stroke-width=".4" d="M24.6 50.2c.2.4.4.7.5 1 .3.2.5.4.4.5-.2.2-.6.1-.8-.2-.3-.3-.5-.7-.7-1.1.2 0 .6-.2.6-.2Z"/>
  <path fill="#0C0908" d="M24.9 51.3c.067 0 .067.033 0 .1-.066 0-.1-.033-.1-.1h.1c0-.067 0-.067 0 0Z"/>
  <path fill="#2E130C" d="M27.2 48.7c.2.4.4.7.6.9.2.3.4.5.3.6-.2.2-.6.1-.8-.2-.2-.3-.5-.7-.6-1.1.1 0 .5-.2.5-.2Z"/>
  <path stroke="#150D0B" stroke-linejoin="round" stroke-width=".4" d="M27.2 48.7c.2.4.4.7.6.9.2.3.4.5.3.6-.2.2-.6.1-.8-.2-.2-.3-.5-.7-.6-1.1.1 0 .5-.2.5-.2Z"/>
  <path fill="#0C0908" d="M27.6 49.8h-.1c0 .067 0 .067 0 0-.067 0-.067 0 0 0 .067-.067.1-.067.1 0Z"/>
  <path fill="#612C0F" d="M22.3 48.8c.9-.3 1.1.6 1.3 1.3 0 .2.034.4.1.6.1.2.1.3.3.3.4 0 .9-.2 1.3-.4.334-.133.7-.3 1.1-.5.4-.2.9-.4 1.2-.8.3-.3-.1-.4-.3-.7-.2-.2-.3-.6-.5-.9-.1-.3-.2-.6-.6-.7-.3-.1-.1-.1-1.7.3-1.6.4-2.2 1.5-2.2 1.5Z"/>
  <path stroke="#0C0908" stroke-width=".4" d="M22.3 48.8c.9-.3 1.1.6 1.3 1.3 0 .2.034.4.1.6.1.2.1.3.3.3.4 0 .9-.2 1.3-.4.334-.133.7-.3 1.1-.5.4-.2.9-.4 1.2-.8.3-.3-.1-.4-.3-.7-.2-.2-.3-.6-.5-.9-.1-.3-.2-.6-.6-.7-.3-.1-.1-.1-1.7.3-1.6.4-2.2 1.5-2.2 1.5Z"/>
  <g opacity=".2">
    <mask id="p" width="7" height="5" x="21" y="47" maskUnits="userSpaceOnUse" style="mask-type:luminance">
      <path fill="#fff" d="m21.87 50.48 5.12 1.35.78-2.98-5.11-1.35-.79 2.98Z"/>
    </mask>
    <g mask="url(#p)">
      <path fill="#0C0908" d="M26.2 49.1c-.6.1-1.4.2-1.9 0-.4-.1-.7-.5-1.1-.6-.2-.1-.4-.1-.7 0-.1.2-.2.3-.2.3.9-.3 1.1.6 1.3 1.3 0 .2.034.4.1.6.1.2.1.3.3.3.4 0 .9-.2 1.3-.4.334-.133.7-.3 1.1-.5.4-.2.9-.4 1.2-.8.2-.3 0-.4-.1-.5-.466.133-.9.233-1.3.3Z"/>
    </g>
  </g>
  <path fill="#ED2930" d="m79.4 63.8-63.1 6.9v-4.9l62.5-6.9.6 4.9Z"/>
  <path fill="#FEFEFE" fill-rule="evenodd" d="m18.4 63.7 3.1-.4h.6c.4.1.8.1 1.2.4.5.2.8.6 1 1.2.133.333.167.7.1 1.1 0 .8-.3 1.5-.6 1.9l-.6.6c-.7.5-1.3.7-1.7.7l-.1.1-.9.1v1.9l-2.3.3.2-7.9Zm3.1 1.9-.9.1-.1 1.5.9-.1c.4-.067.6-.334.6-.8.1-.5-.2-.8-.5-.7Z" clip-rule="evenodd"/>
  <path fill="#FEFEFE" d="M27.4 64.9v.8l2.9-.4v2.1l-3 .3v.7l3.2-.4-.1 2.3-5.4.5.2-7.9 5.5-.6-.1 2.3-3.2.3Z"/>
  <path fill="#FEFEFE" fill-rule="evenodd" d="m38.2 69.4-2.7.3-1.5-1.8h-.2l-.1 2-2.2.2.2-7.9 3.1-.3c.1 0 .2-.1.6 0 .4 0 .8.1 1.2.3.4.3.8.6 1 1.2.067.333.1.7.1 1.1 0 1.133-.433 2-1.3 2.6l1.8 2.3Zm-4.4-5.2v1.5l.9-.1c.4-.067.6-.334.6-.8 0-.5-.2-.7-.6-.7l-.9.1Z" clip-rule="evenodd"/>
  <path fill="#FEFEFE" d="M39.9 66.3c.533.533 1.133.766 1.8.7.4-.067.6-.234.6-.5 0-.067-.1-.134-.3-.2a3.562 3.562 0 0 0-.9-.3c-.4-.134-.767-.267-1.1-.4-.333-.133-.633-.367-.9-.7-.2-.334-.3-.733-.3-1.2 0-.467.2-1 .6-1.6.4-.5 1.2-1 2.3-1.1.8-.1 1.5.1 2 .3.4.3.8.6.9.9l.1.1-1.5 1.4c-.267-.267-.533-.433-.8-.5-.2-.067-.433-.1-.7-.1-.4.1-.6.3-.6.4 0 .2.4.4.9.5.267.066.567.166.9.3.267.066.533.2.8.4.267.133.5.333.7.6.133.333.2.7.2 1.1 0 .5-.2 1-.7 1.6-.4.6-1.3 1.1-2.4 1.2-.867.067-1.567-.067-2.1-.4-.533-.334-.9-.7-1.1-1.1l1.6-1.4Z"/>
  <path fill="#FEFEFE" fill-rule="evenodd" d="M49.5 60.1c1.133-.133 2.067.167 2.8.9.733.733 1.1 1.666 1.1 2.8a4.98 4.98 0 0 1-1.2 3c-.8.933-1.767 1.433-2.9 1.5-1.133.133-2.067-.167-2.8-.9-.733-.667-1.067-1.567-1-2.7 0-1.2.4-2.233 1.2-3.1.8-.867 1.733-1.367 2.8-1.5Zm-.1 6c.4-.067.767-.3 1.1-.7.333-.4.533-.867.6-1.4 0-.467-.167-.867-.5-1.2-.267-.333-.633-.5-1.1-.5-.467.067-.867.3-1.2.7-.333.4-.5.867-.5 1.4 0 .533.133.967.4 1.3a1.34 1.34 0 0 0 1.2.4Z" clip-rule="evenodd"/>
  <path fill="#FEFEFE" d="m61.3 59-.3 7.9-2 .2-2.3-3.2-.1 3.5-2.3.2.3-7.9 2-.2 2.3 3.2.1-3.5 2.3-.2Z"/>
  <path fill="#FEFEFE" fill-rule="evenodd" d="m67 58.3 2.6 7.7-2.5.2-.2-.8-2.4.3-.3.9-2.5.2 3.1-8.2 2.2-.3Zm-1.8 5.1 1-.2-.5-1.6-.5 1.8Z" clip-rule="evenodd"/>
  <path fill="#FEFEFE" d="M71.6 62.8c.533.533 1.1.767 1.7.7.467 0 .7-.133.7-.4 0-.133-.133-.233-.4-.3l-.9-.3a3.141 3.141 0 0 1-1-.4c-.333-.133-.633-.367-.9-.7-.2-.333-.3-.7-.3-1.1 0-.533.2-1.066.6-1.6.4-.6 1.2-1.1 2.3-1.2.8-.1 1.5.1 2 .4.4.3.7.6.9.8l.1.2-1.5 1.4c-.333-.333-.6-.533-.8-.6-.2-.066-.467-.066-.8 0-.3 0-.5.2-.5.4s.4.3.9.5c.267 0 .567.067.9.2l.8.4c.267.134.5.367.7.7.133.267.2.6.2 1 0 .5-.2 1.1-.7 1.6-.4.6-1.3 1.1-2.4 1.2-.867.134-1.567 0-2.1-.4-.533-.333-.9-.7-1.1-1.1l1.6-1.4Z"/>
  <path fill="#ED2930" d="m81.4 74-69.6 7.1v-4.9l69-7.1.6 4.9Z"/>
  <path fill="#FEFEFE" d="M18.5 81.3h-.6l-1.3-2.2-.1 3.3-2.3.3.2-8 2.1-.2 1.8 2.8 2-3.2 2.1-.3-.2 8-2.3.2.1-3.3-1.5 2.6Zm4.8.3.2-7.9 2.3-.2-.2 7.9-2.3.2Zm9.3-5.9c-.267-.333-.533-.567-.8-.7a2.524 2.524 0 0 0-1 0c-.467.067-.867.3-1.2.7-.333.4-.5.833-.5 1.3 0 .533.133.966.4 1.3.333.333.733.467 1.2.4.267 0 .533-.067.8-.2l.4-.4.1-.2-1.5.1.1-1.8 3.9-.5-.1 1.7c-.1.8-.4 1.6-.9 2.1-.2.2-.433.4-.7.6-.267.2-.5.367-.7.5a9.56 9.56 0 0 1-.7.2c-.267.067-.433.1-.5.1-.133.067-.233.1-.3.1-1.133.133-2.067-.167-2.8-.9-.733-.733-1.1-1.667-1.1-2.8.067-1.133.5-2.133 1.3-3 .8-.933 1.733-1.466 2.8-1.6 1.467-.133 2.633.4 3.5 1.6l-1.7 1.4Z"/>
  <path fill="#FEFEFE" fill-rule="evenodd" d="m42.1 79.5-2.7.3-1.5-1.8h-.2l-.1 2-2.2.3.2-8 3.1-.3h.6c.4 0 .7.1 1.2.4.4.2.7.5.9 1.2.133.267.2.634.2 1.1-.067 1.067-.5 1.9-1.3 2.5l1.8 2.3Zm-4.4-5.2v1.5l.9-.1c.4-.067.6-.333.6-.8 0-.5-.2-.7-.6-.7l-.9.1Zm10-3.3 2.5 7.6-2.4.3-.2-.8-2.5.3-.3.8-2.4.3 3-8.3 2.3-.2Zm-1.8 5.1 1-.1-.4-1.6-.6 1.7Z" clip-rule="evenodd"/>
  <path fill="#FEFEFE" d="m57.8 69.8-.2 8-2 .2-2.3-3.2-.1 3.5-2.3.2.2-7.9 2.1-.2 2.3 3.2.1-3.5 2.2-.3Zm2.9 1.9-2 .3v-2.3l6.4-.7v2.2l-2.1.3-.2 5.7-2.2.2.1-5.7Zm7.5-.8v.8l2.9-.4v2.1l-3 .3v.7l3.2-.4-.1 2.2-5.4.6.2-7.9 5.5-.6-.1 2.2-3.2.4Zm5.4 2.1c.533.6 1.1.834 1.7.7.467 0 .7-.133.7-.4 0-.133-.133-.233-.4-.3l-.9-.3a5.69 5.69 0 0 1-1-.3 3.382 3.382 0 0 1-.9-.8c-.267-.266-.367-.633-.3-1.1 0-.466.2-1 .6-1.6.3-.6 1.2-1.1 2.2-1.2.8-.1 1.6.1 2 .4.5.3.8.6 1 .8l.1.2-1.6 1.4c-.267-.333-.5-.533-.7-.6-.2-.067-.467-.067-.8 0-.3 0-.5.2-.5.4s.3.4.9.5l.8.2c.333.133.633.267.9.4s.467.367.6.7c.2.267.3.6.3 1 0 .5-.3 1.1-.7 1.7-.4.5-1.3 1-2.4 1.1-.867.133-1.567.034-2.1-.3-.533-.4-.9-.8-1.1-1.2l1.6-1.4Z"/>
  <path fill="#FEFEFE" fill-rule="evenodd" d="M41.5 51.9c.9-.1 1.9-.1 1.8 2.9-.1 2.8-1 3-2.4 3.1l-.5.1.2-6 .9-.1Zm-.1.7-.2 4.6c1.3-.1 1.3-1.3 1.3-2.3.1-.9.2-2.5-1.1-2.3Z" clip-rule="evenodd"/>
  <path fill="#FEFEFE" d="M46 51.4v.7l-1.3.1-.1 1.9 1.1-.1v.7l-1.1.1-.1 2 1.3-.1-.1.7-2 .2.3-6 2-.2Zm2.5-.3-.2 5.3 1.2-.1v.7l-2 .2.2-6 .8-.1Z"/>
  <path fill="#FEFEFE" fill-rule="evenodd" d="m51.4 50.8 1 5.8-.8.1-.1-1.1-1.1.1-.3 1.2-.7.1 1.4-6.1.6-.1Zm-.1 3.3-.2-2.1-.6 3 .9-.1-.1-.8Z" clip-rule="evenodd"/>
  <path fill="#FEFEFE" d="M54.7 51.3c-.2-.1-.4-.2-.7-.1-.4 0-.7.4-.7.8 0 .3.1.4.2.6l.6.6c.5.5.7.9.7 1.7 0 .8-.6 1.6-1.4 1.7-.3 0-.6 0-.8-.2v-.8c.2.2.5.3.8.2.4 0 .6-.4.6-.9.1-1.2-1.5-1.2-1.4-2.8 0-.8.5-1.6 1.3-1.7.267 0 .534.033.8.1v.8Z"/>
  <path fill="#FEFEFE" fill-rule="evenodd" d="M27.1 44.8c.9-.1 1.9-.1 1.8 2.9-.2 2.7-1 3-2.4 3.1l-.5.1.2-6 .9-.1Zm-.1.7-.2 4.6c1.3-.1 1.3-1.3 1.3-2.3.1-1 .2-2.5-1.1-2.3Z" clip-rule="evenodd"/>
  <path fill="#FEFEFE" d="m30.1 50.4-.8.1.3-6 .7-.1-.2 6Zm-.2-6.2-.4-.1.7-1.3.5.3-.8 1.1Z"/>
  <path fill="#FEFEFE" fill-rule="evenodd" d="m32.4 44.2 1 5.9h-.7l-.2-1.1-1.1.1-.3 1.2-.7.1 1.4-6.1.6-.1Zm-.1 3.3-.2-2.1-.6 3.1.9-.1-.1-.9Z" clip-rule="evenodd"/>
  <path fill="#FEFEFE" d="m35.8 49.8-.7.1.2-6 .8-.1-.3 6Zm1.6-4.4v2l-.1 2.2-.7.1.2-6 .7-.1 1.2 4.4-.1-2.4.1-2.1.7-.1-.2 6-.7.1-1.2-4.5.1.4Zm4.7-2.3v.7l-.8.1-.2 5.3-.8.1.2-5.3-.9.1.1-.7 2.4-.3Zm2.3-.2v.7l-1.3.1-.1 1.9 1.2-.1-.1.6-1.1.2-.1 2 1.3-.1v.7l-2.1.2.3-6 2-.2Z"/>
  <path fill="#FEFEFE" fill-rule="evenodd" d="m44.8 42.8.9-.1c.6 0 1.4-.1 1.4 1.4-.1.6-.3 1.4-.9 1.6l.9 2.8-.7.1-1-2.8-.1 2.9-.7.1.2-6Zm1.4 1.5c0-.5 0-1-.6-.9h-.1l-.1 2c.6 0 .8-.4.8-1.1Z" clip-rule="evenodd"/>
  <path fill="#FEFEFE" d="M48.3 44.2v4.2l-.8.1.2-6 .8-.1 1.1 4.4-.1-2.4.1-2.1.8-.1-.3 6-.7.1-1.1-4.5v.4Z"/>
  <path fill="#FEFEFE" fill-rule="evenodd" d="m52.5 42 1 5.8-.8.1-.1-1.1-1.2.1-.2 1.2-.8.1 1.5-6.2h.6Zm-.1 3.4-.2-2.2h-.1l-.5 3.1.9-.1-.1-.8Z" clip-rule="evenodd"/>
  <path fill="#FEFEFE" d="M56.2 42.4c-.2-.1-.3-.2-.5-.1-1 .1-1.1 1.7-1.1 2.4-.1.8-.1 2.3 1 2.2.133 0 .267-.066.4-.2v.7c-.2.2-.4.3-.6.3-1.6.2-1.7-1.6-1.6-2.8 0-1.2.2-3.2 1.8-3.4.2 0 .4 0 .6.1v.8Zm.9 5-.7.1.2-6 .8-.1-.3 6Z"/>
  <path fill="#FEFEFE" fill-rule="evenodd" d="M60.8 44c-.1 1.1-.2 3.1-1.6 3.3-1.5.1-1.4-1.9-1.4-3 .1-1 .2-3 1.6-3.2 1.5-.2 1.4 1.8 1.4 2.9Zm-2.2.3c0 1.2 0 2.3.6 2.2.6-.1.7-1.1.8-2.4 0-1.3 0-2.3-.6-2.2-.6 0-.7 1.1-.8 2.4Z" clip-rule="evenodd"/>
  <path fill="#FEFEFE" d="m62 42.7.1 2-.1 2.2h-.8l.3-5.9.7-.1 1.1 4.4h.1l-.1-2.4.1-2.2h.7l-.2 6h-.7L62 42.3v.4Z"/>
  <path fill="#FEFEFE" fill-rule="evenodd" d="m66.2 40.4 1 5.9-.7.1-.2-1.2-1.1.1-.3 1.2-.7.1 1.4-6.1.6-.1Zm-.1 3.3-.2-2.1-.6 3.1.9-.1-.1-.9Z" clip-rule="evenodd"/>
  <path fill="#FEFEFE" d="m68.5 40.2-.2 5.3 1.3-.2-.1.7-2 .2.3-5.9.7-.1Z"/>
  <defs>
    <linearGradient id="c" x1="15.2" x2="24.8" y1="30" y2="34.2" gradientUnits="userSpaceOnUse">
      <stop stop-color="#fff"/>
      <stop offset="1"/>
    </linearGradient>
    <linearGradient id="d" x1="15.5" x2="19.8" y1="34.5" y2="34.3" gradientUnits="userSpaceOnUse">
      <stop stop-color="#78469B"/>
      <stop offset="1" stop-color="#B13293"/>
    </linearGradient>
    <linearGradient id="e" x1="15.2" x2="24.8" y1="30" y2="34.2" gradientUnits="userSpaceOnUse">
      <stop stop-color="#fff"/>
      <stop offset="1"/>
    </linearGradient>
    <linearGradient id="f" x1="15.5" x2="22.9" y1="34.4" y2="37.1" gradientUnits="userSpaceOnUse">
      <stop stop-color="#F6F7F8"/>
      <stop offset="1" stop-color="#78469B"/>
    </linearGradient>
    <linearGradient id="k" x1="39.1" x2="38.2" y1="35.5" y2="33" gradientUnits="userSpaceOnUse">
      <stop stop-color="#FEFEFE"/>
      <stop offset="1" stop-color="#F5D20C"/>
    </linearGradient>
  </defs>
</svg>
