<svg xmlns="http://www.w3.org/2000/svg" width="99" height="141" fill="none" viewBox="0 0 99 141">
  <path fill="#629A45" d="m10.677 137.322 68.7-5.801-56.8-8 30.4-64.9-27.2 5.7-15.1 19.5v53.501Z"/>
  <path fill="#155E30" d="m70.177 139.322 9.2-7.901-61.5-2.9-7.2 8.801 59.5 2Z"/>
  <mask id="a" width="70" height="12" x="10" y="128" maskUnits="userSpaceOnUse" style="mask-type:alpha">
    <path fill="#155E30" d="m70.177 139.322 9.2-7.901-61.5-2.9-7.2 8.801 59.5 2Z"/>
  </mask>
  <g mask="url(#a)">
    <mask id="b" width="117" height="87" x="-37" y="128" maskUnits="userSpaceOnUse" style="mask-type:luminance">
      <path fill="#fff" d="m-36.903 191.631 40.59 22.54 75.61-82.599-61.38-3.03-54.82 63.089Z"/>
    </mask>
    <g mask="url(#b)">
      <path stroke="#56B846" stroke-width=".4" d="m90.377 81.522-97.8 114.7m96.7-109.301-97.9 114.701m96.7-109.201-89.7 105.201m88.6-99.8-89.7 105.3m88.6-99.9-81.1 95.299m79.9-89.799-81.1 95.199m79.999-89.799-80.9 95.299m79.801-89.9-79.9 94.9m78.7-89.4-79.4 95.4m78.499-89.9-78.2 94.201m49.601-115.201-74.2 87m73.7-81.399-66.4 76.899m65.1-71.5-65.7 76.301m68.4-75.401-60 70m46-84.099-74.3 87.099m71.1-87.599-74.2 87m76.6-80.901-66.1 76.901m65.1-71.5-65.7 76.3m68.4-75.4-60 70"/>
    </g>
  </g>
  <path fill="#56B846" d="m17.877 128.521 61.5 3 1.9-49.2c.6-12.4-8.5-22.3-21.3-26.1-1.9-.5-4.8-1.3-10.3-1.6-1.1 0-2.6 0-3.6.1-13.3.8-26 10.9-26.7 24.2l-1.5 49.6Z"/>
  <path fill="#FEF3DD" d="m29.576 113.822-19.5-11.2.7-1.101 19.4 11.101-.6 1.2Zm-1.599 2.699-19.4-11.1.6-1.199 19.4 11.199-.6 1.1Zm-1.6 2.801-19.4-11.1.6-1.201 19.5 11.101-.7 1.2Zm-1.601 2.699-19.4-11.1.7-1.199 19.4 11.199-.7 1.1Zm-1.599 2.801-19.4-11.1.7-1.201 19.4 11.101-.7 1.2Zm-1.5 2.699-19.5-11.1.7-1.099 19.4 11.099-.6 1.1Zm-1.601 2.801-19.4-11.1.6-1.201 19.5 11.101-.7 1.2Z"/>
  <path fill="#31469C" d="m25.477 106.021-18 23 15.5-4 7.1-17.5-4.6-1.5Z" opacity=".4"/>
  <path fill="#ED4997" d="m9.276 124.721 4.1-21.899c0-.4.4-.601.8-.401l13.5 7.8c.4.2.4.6.1.9l-16.9 14.5c-.7.6-1.7 0-1.6-.9Z"/>
  <path fill="#7358A4" d="m25.576 86.822-.5.7c-.1.1-.2.1-.3 0l-1.4-1.4c-.1 0-.2-.2-.1-.3l.5-.6c.1-.1.3-.1.4 0l1.4 1.3c.1.1.1.2 0 .3Z"/>
  <path fill="#ED4997" d="m22.576 92.622-.8.4c-.1 0-.2 0-.3-.2l-.8-1.6c0-.1 0-.3.1-.3l.8-.4c.1 0 .2 0 .3.2l.8 1.6c.1.1 0 .3-.1.3Zm4.301-1.4-.4-1c-.067-.067-.067-.1 0-.1l2-.9h.1l.4 1.1v.1l-2 .8c-.067.066-.1.066-.1 0Z"/>
  <path fill="#7358A4" d="m30.276 99.022-.8.1c-.1 0-.2-.1-.2-.2l-.2-1.8c0-.1.1-.2.2-.2l.9-.1c.1 0 .2.1.2.2l.2 1.7c0 .2-.1.3-.3.3Z"/>
  <path fill="#ED4997" d="m24.976 103.521-1.1-.399v-.101l.8-2 .1-.1 1.1.5v.1l-.8 2h-.1Zm-.7-5.999-.8-.8c-.066-.067-.066-.1 0-.1l1.5-1.5c.067-.067.1-.067.1 0l.8.8c.067 0 .067.033 0 .1l-1.5 1.5h-.1Z"/>
  <path fill="#FBB323" d="m36.577 91.421-.9.8h-.1l-1.4-1.7c-.067 0-.067 0 0 0l.8-.8h.1l1.5 1.6v.1Z"/>
  <path fill="#7358A4" d="m20.177 101.522-.9-.8v-.1l1.6-1.5c0-.067.033-.067.1 0l.8.8v.1l-1.6 1.5Z"/>
  <path fill="#FFD90F" d="m26.977 104.721 7.4-5.2c.5-.4 1.2-.2 1.5.3.3.601.1 1.301-.5 1.501l-8.2 3.699c-.2.1-.4-.2-.2-.3Z"/>
  <path fill="#6ECFF5" d="m27.277 107.021 3.9-1c.6-.2 1.3.3 1.4 1 0 .7-.6 1.301-1.3 1.101l-4-.701c-.2 0-.2-.3 0-.4Z"/>
  <path fill="#FFD90F" d="m17.476 97.622 2.5-10.4c.2-.7-.3-1.5-1.1-1.6-.7-.1-1.4.5-1.4 1.2l-.4 10.7c0 .3.4.3.4.1Z"/>
  <path fill="#6ECFF5" d="m14.576 99.322.4-4.4c.1-.8-.6-1.4-1.4-1.3-.8.1-1.2.9-1 1.6l1.6 4.2c.1.2.4.2.4-.1Z"/>
  <path fill="#FEF3DD" d="m86.277 111.521-17.6 13.701-.8-1 17.6-13.801.8 1.1Zm2 2.5-17.7 13.701-.8-1 17.7-13.801.8 1.1Zm1.9 2.5-17.6 13.701-.8-1 17.6-13.801.8 1.1Zm2 2.5-17.7 13.701-.8-1 17.7-13.801.8 1.1Zm1.899 2.5-17.6 13.701-.8-1 17.6-13.801.8 1.1Zm2 2.5-17.7 13.801-.8-1.1 17.7-13.801.8 1.1Zm2 2.5-17.7 13.801-.8-1.1 17.6-13.701.9 1Z"/>
  <path fill="#31469C" d="m77.576 112.222 14.5 25.5 2.1-15.9-13.5-13.2-3.1 3.6Z" opacity=".4"/>
  <path fill="#ED4997" d="m88.777 134.322-18.8-12c-.3-.2-.3-.701 0-.901l12.3-9.599c.3-.2.8-.1.9.3l7 21.1c.3.9-.6 1.6-1.4 1.1Z"/>
  <path fill="#7358A4" d="m63.177 98.622-1-.5v-.1l.9-2h.1l1 .5c.066 0 .1.033.1.1l-1 1.9c0 .066-.034.1-.1.1Z"/>
  <path fill="#ED4997" d="m64.077 109.921.1.801c0 .1-.1.299-.3.299l-1.8.101c-.1 0-.3-.101-.3-.201v-.799c0-.2.1-.3.3-.3l1.8-.1c.1 0 .2.099.2.199Z"/>
  <path fill="#F5B4D0" d="M64.477 105.421h-1.2v-.099l-.1-2.1c0-.067.033-.1.1-.1h1.2v2.299Z"/>
  <path fill="#7358A4" d="m72.977 105.122-.3.799c0 .2-.1.201-.3.201l-1.6-.5c-.1-.1-.2-.2-.2-.3l.3-.801c0-.2.1-.199.3-.199l1.6.5c.1.1.2.2.2.3Z"/>
  <path fill="#ED4997" d="m75.077 111.822-.8.8h-.1l-1.5-1.5c-.067-.067-.067-.1 0-.1l.8-.8c0-.067.033-.067.1 0l1.5 1.5v.1Zm-5.8-1.6-1.1.4-.9-2v-.1l1.1-.4c.066-.067.1-.067.1 0l.8 2v.1Zm-1-13.7.4 1.1v.1l-2.1.7h-.1l-.4-1.1c0-.067.033-.1.1-.1l2-.7h.1Z"/>
  <path fill="#7358A4" d="m70.777 117.222-1 .4c-.067.066-.1.066-.1 0l-.8-2c-.067-.067-.067-.101 0-.101l1-.399h.1l.9 2c0 .066-.034.1-.1.1Z"/>
  <path fill="#6ECFF5" d="m76.977 110.421-2.1-8.799c-.1-.6.3-1.2 1-1.3.6-.1 1.1.4 1.2 1l.2 9c.1.2-.3.299-.3.099Z"/>
  <path fill="#FFD90F" d="m79.276 111.022.4-4c.1-.7.8-1.1 1.5-.9.7.3 1 1.1.6 1.7l-2.2 3.3c-.1.2-.4.1-.3-.1Z"/>
  <path fill="#6ECFF5" d="m66.777 116.522-8.7-6.3c-.6-.4-1.4-.2-1.8.4-.4.7-.1 1.5.6 1.8l9.7 4.5c.2.1.4-.3.2-.4Z"/>
  <path fill="#FFD90F" d="m67.177 120.122-3.9-2.1c-.7-.3-1.6.1-1.8.8-.2.8.4 1.5 1.2 1.6l4.4.1c.2 0 .3-.3.1-.4Z"/>
  <path fill="#F68D26" d="m70.577 103.722-35.6 4.299-.7-5.1 35.6-4.3.7 5.101Z"/>
  <path fill="#FEFEFE" fill-rule="evenodd" d="m43.877 100.122 3 8.6-2.8.299-.3-.899-2.9.399-.3.9-2.8.401 3.4-9.301 2.7-.399Zm-2 5.7 1.1-.1-.5-1.801-.6 1.901Z" clip-rule="evenodd"/>
  <path fill="#FEFEFE" d="m55.677 98.722-.2 8.9-2.4.299-2.7-3.5-.1 3.901-2.6.3.1-8.9 2.4-.3 2.8 3.499v-3.9l2.7-.3Zm-.9-3.5c0 1-.3 1.9-.7 2.3-.4.4-.7.7-1 .7l-.2.1c-.267 0-.567-.067-.9-.2-.334-.2-.567-.3-.7-.3-.134 0-.2.2-.2.6l-2.2.3c0-1.1.3-1.9.7-2.4.4-.4.8-.6 1-.7h.2c.266-.067.566 0 .9.2.4.133.633.2.7.2.133 0 .2-.2.2-.6l2.2-.2Z"/>
  <path fill="#FEFEFE" fill-rule="evenodd" d="M61.577 97.822c1.266-.134 2.366.2 3.3 1 .866.733 1.266 1.766 1.2 3.099 0 1.267-.467 2.401-1.4 3.401-.867 1-1.967 1.599-3.3 1.799-1.267.134-2.334-.2-3.2-1-.867-.733-1.3-1.766-1.3-3.1 0-1.266.466-2.4 1.4-3.4.866-1 1.966-1.6 3.3-1.8Zm-.1 6.799c.533-.066.966-.333 1.3-.799.4-.467.6-1.001.6-1.601 0-.6-.167-1.066-.5-1.399-.4-.4-.867-.567-1.4-.5-.467.066-.9.333-1.3.799-.4.467-.6 1-.6 1.6 0 .6.166 1.067.5 1.4.4.4.866.567 1.4.5Z" clip-rule="evenodd"/>
  <path fill="#F68D26" d="m72.977 89.222-44.2 4.9-.7-5.1 44.2-4.9.7 5.1Z"/>
  <path fill="#FEFEFE" d="m33.877 95.522-2.6.3.1-8.9 6.4-.8v2.5l-3.8.5v1.2l3.5-.4-.1 2.3-3.4.4-.1 2.9Zm4.8-.601.2-8.9 2.6-.3-.1 8.9-2.7.3Zm12-10.399-.1 9-2.4.3-2.8-3.6v3.9l-2.6.3.1-8.9 2.4-.3 2.7 3.6.1-3.9 2.6-.4Z"/>
  <path fill="#FEFEFE" fill-rule="evenodd" d="m54.677 93.022.2-9 3.5-.4c1.266-.134 2.3.166 3.1.9.8.733 1.2 1.733 1.2 3 0 1.333-.434 2.466-1.3 3.4-.8.933-1.867 1.466-3.2 1.6l-3.5.5Zm2.8-6.7-.1 3.9.9-.1c.533-.067.933-.3 1.2-.7.333-.4.5-.9.5-1.5 0-.534-.134-.967-.4-1.3a1.344 1.344 0 0 0-1.2-.4l-.9.1Z" clip-rule="evenodd"/>
  <path fill="#FEFEFE" d="m66.477 85.122-.1.9 3.5-.4v2.2l-3.5.5v.7l3.7-.4v2.5l-6.4.8.2-9 6.4-.8-.1 2.6-3.7.4Z"/>
  <path fill="#1C1C1A" d="M51.077 70.721c.5 2.2-5.9 5.3-14.3 7-8.3 1.7-15.4 1.3-15.8-.9-.5-2.2 5.9-5.3 14.3-7 8.3-1.7 15.4-1.3 15.8.9Z" opacity=".3"/>
  <path fill="#050505" d="M46.977 36.322c.3 1.8-.9 3.4-2.6 3.7-1.7.2-3.3-.9-3.6-2.6-.3-1.8.9-3.4 2.6-3.7 1.7-.2 3.4.9 3.6 2.6Zm-27.6 5c.3 1.6-.8 3.1-2.4 3.4-1.6.3-3.2-.8-3.4-2.4-.3-1.6.8-3.2 2.4-3.4 1.6-.3 3.1.8 3.4 2.4Z"/>
  <path fill="#050505" d="M52.977 32.121c.3 2.4-1.2 4.6-3.6 4.9-2.3.4-4.5-1.2-4.8-3.5-.4-2.3 1.2-4.5 3.5-4.9 2.3-.4 4.5 1.2 4.9 3.5Zm-38.901 4.601c1.3 2.2.7 4.9-1.3 6-1.9 1.2-4.6.3-5.8-1.9-1.3-2.2-.7-4.9 1.2-6.1 2-1.1 4.7-.2 5.9 2Z"/>
  <path fill="#050505" d="M50.777 20.722c1.7 10.6-7.1 21-19.7 23-12.7 2-24.3-5-26-15.6-1.8-10.7 7.1-21.1 19.7-23.1s24.3 5 26 15.7Z"/>
  <path stroke="#3F1D13" stroke-width=".6" d="M14.476 40.722c-.5 1.1-.1 2.4.9 2.9 1.1.6 2.4.2 2.9-.9m-9.599-6.7c-1.5 1.2-1.7 3.3-.5 4.8 1.2 1.4 3.4 1.6 4.8.4m34.199-11.5c-1.5 1.2-1.7 3.2-.6 4.6 1.2 1.4 3.3 1.5 4.8.3m-7.899 4.4c1.3.1 2.3-.9 2.4-2.2"/>
  <path fill="#803531" stroke="#050505" stroke-linecap="round" stroke-linejoin="round" stroke-width=".4" d="M45.677 68.421s-3-5-3.6-6.5c-.9-1.8-2.4-2.1-3.7-1.5-1.2.6-1.8 1.7-.9 3.7s3.5 6.6 3.5 6.6c1.3 2.9 6.4.6 4.7-2.3Z"/>
  <path fill="#050505" d="M42.077 69.921c1 1.4 3.8 1.1 2.4 1.7-1.3.6-2.9.5-3.5-.9 0 0-2.6-4.6-3.5-6.6-.9-2-.3-3.1.9-3.7 1.3-.6 2.8-.3 3.7 1.5.6 1.5-2.7 2.3-2.1 3.6.2.6 1.4 3.4 2.1 4.4Z" opacity=".4"/>
  <path fill="#803531" d="M46.077 69.822c.4.5.9 1.7 2.9 2.2l-7.7 1.2-.3-2.5"/>
  <path stroke="#050505" stroke-linecap="round" stroke-linejoin="round" stroke-width=".4" d="M46.077 69.822c.4.5.9 1.7 2.9 2.2l-7.7 1.2-.3-2.5"/>
  <path fill="#050505" d="M42.277 70.421c.3 1 .4 1.8 2.3 2.3l-3.3.5-.3-2.5" opacity=".4"/>
  <path fill="#EE4963" stroke="#050505" stroke-linecap="round" stroke-linejoin="round" stroke-width=".4" d="M40.676 73.222c0 .1.1.1.2.1l8.4-1.3s.1-.1.1-.2l-.1-.4c0-.1-.1-.2-.2-.2l-8.3 1.4c-.1 0-.2.1-.2.2l.1.4Zm3.401-4.701s-.1-.9.6-1.1c.3 0 1.2-.2 1.5-.2.5-.1.2.6.2 1-.1.3-.1.9.2 1.2l1 1.1-.9.6-2.3-1.3-.3-1.3Z"/>
  <path fill="#F69226" stroke="#050505" stroke-linecap="round" stroke-linejoin="round" stroke-width=".4" d="M40.777 72.621s-.3-1.5-.3-1.9c-.1-.5.1-.8.6-.8.4-.1.9.2 1.8-.4.8-.5.8-.7 1.2-1 .4-.2.5 0 .6.4l.4.9 1.8 1.1.1.7-6.2 1Z"/>
  <path fill="#FEFEFE" stroke="#050505" stroke-linecap="round" stroke-linejoin="round" stroke-width=".4" d="M49.077 71.222c0-.2-1.1-.8-1.5-.7-.9.2-1.4 1.2-1.4 1.2l2.9-.5Z"/>
  <path stroke="#050505" stroke-linecap="round" stroke-linejoin="round" stroke-width=".4" d="M44.676 70.022c.3-.6 1.5-.9 1.9-.9m-1.199 1.299c.3-.6 1.3-.8 1.7-.8m-1.1 1.101c.3-.5 1.1-.7 1.5-.6"/>
  <path fill="#EE4963" stroke="#050505" stroke-linecap="round" stroke-linejoin="round" stroke-width=".4" d="M42.977 70.522c.6-.1 1-.1 1.5.2l1.7 1-1 .2-1.1-.7c-.2-.133-.534-.167-1-.1-.3.1-2.5.4-2.5.4l-.1-.6s2.2-.4 2.5-.4Z"/>
  <path fill="#803531" stroke="#050505" stroke-linecap="round" stroke-linejoin="round" stroke-width=".4" d="M25.177 71.822s1.2-5.8 1.4-7.4c.2-2 1.6-2.7 3-2.6 1.3.2 2.3 1.1 2.1 3.2-.3 2.2-1.3 7.4-1.3 7.4-.3 3.2-5.9 2.6-5.2-.6Z"/>
  <path fill="#050505" d="M29.077 72.122c-.5 1.6-3.3 2.2-1.8 2.3 1.5.1 2.9-.5 3.1-2 0 0 1-5.2 1.3-7.4.2-2.1-.8-3-2.1-3.2-1.4-.1-2.8.6-3 2.6-.2 1.6 3.3 1.3 3.1 2.8 0 .6-.3 3.6-.6 4.9Z" opacity=".4"/>
  <path fill="#803531" d="M25.177 73.222c-.1.6-.3 1.9-2 2.9l7.6-1.2-.4-2.5"/>
  <path stroke="#050505" stroke-linecap="round" stroke-linejoin="round" stroke-width=".4" d="M25.177 73.222c-.1.6-.3 1.9-2 2.9l7.6-1.2-.4-2.5"/>
  <path fill="#050505" d="M28.977 72.522c.1 1.1.3 1.9-1.4 2.9l3.2-.5-.4-2.5" opacity=".4"/>
  <path fill="#EE4963" stroke="#050505" stroke-linecap="round" stroke-linejoin="round" stroke-width=".4" d="M31.377 74.722c.1.1 0 .2-.1.2l-8.4 1.3s-.1 0-.1-.1l-.1-.4c0-.1 0-.2.1-.2l8.4-1.4c.1 0 .2.1.2.2v.4Zm-4.6-3.4s-.2-.9-.9-.8c-.4 0-1.3.2-1.5.2-.6.1-.1.7.1 1 .2.3.4.9.2 1.3l-.7 1.3 1.1.3 1.8-2-.1-1.3Z"/>
  <path fill="#F69226" stroke="#050505" stroke-linecap="round" stroke-linejoin="round" stroke-width=".4" d="M31.177 74.121s-.2-1.5-.3-1.9c-.1-.4-.4-.6-.8-.5-.5 0-.8.5-1.9.2-.9-.2-1-.4-1.4-.6-.5-.1-.5.2-.5.6l-.1.9-1.4 1.7.1.7 6.3-1.1Z"/>
  <path fill="#FEFEFE" stroke="#050505" stroke-linecap="round" stroke-linejoin="round" stroke-width=".4" d="M22.776 75.521c0-.3.9-1.1 1.2-1.2 1-.1 1.8.7 1.8.7l-3 .5Z"/>
  <path stroke="#050505" stroke-linecap="round" stroke-linejoin="round" stroke-width=".4" d="M26.577 72.921c-.4-.5-1.6-.4-2.1-.2m1.599.8c-.4-.5-1.5-.4-1.8-.2m1.301.701c-.5-.4-1.3-.3-1.6-.1"/>
  <path fill="#EE4963" stroke="#050505" stroke-linecap="round" stroke-linejoin="round" stroke-width=".4" d="M28.377 72.822c-.6.1-1 .3-1.3.7l-1.3 1.5 1-.1.8-1c.133-.2.433-.334.9-.4.3-.1 2.5-.4 2.5-.4l-.1-.7s-2.2.4-2.5.4Z"/>
  <path fill="#803531" stroke="#050505" stroke-linecap="round" stroke-linejoin="round" stroke-width=".4" d="M50.377 37.322c-2 4.2-5 7-8.2 9.4-3.3 2.5-6.7-2.1-3.5-4.5 3.3-2.4 4.6-3.6 6.6-7.2.5-.8 1.9-1.8 3.7-.8 1.6.9 1.8 2.4 1.4 3.1Z"/>
  <path fill="#050505" d="M50.377 37.322c-2 4.2-5 7-8.2 9.4-3.3 2.5-6.7-2.1-3.5-4.5 1.3-.9 3.9 2.2 5.3 1.2 2-1.3 4.3-4.3 5.5-6.6.5-.8.4-1.8-.5-2.6 1.6.9 1.8 2.4 1.4 3.1Z" opacity=".4"/>
  <path fill="#803531" d="M46.977 37.722c1.3.6 2.7.3 3.2-.7s0-2.4-1.3-3c-1.2-.6-2.6-.3-3.1.7-.6 1 0 2.4 1.2 3Z"/>
  <path fill="#803531" d="M45.176 35.121c.6-.9 1.6-3.2 2.2-4 .9-.9 2-.7 3.1 0 1.4.7 2.2 1.9 1.4 3.4l-.6 1.2-.8 1.6"/>
  <path stroke="#050505" stroke-linecap="round" stroke-linejoin="round" stroke-width=".4" d="M45.176 35.121c.6-.9 1.6-3.2 2.2-4 .9-.9 2-.7 3.1 0 1.4.7 2.2 1.9 1.4 3.4l-.6 1.2-.8 1.6"/>
  <path fill="#803531" d="m45.877 34.521-.3-1.3c-.1-.6.3-1.1.8-1.2.5-.1.8.2.9.4.3.4.3.7.3.7"/>
  <path stroke="#050505" stroke-linecap="round" stroke-linejoin="round" stroke-width=".4" d="m45.877 34.521-.3-1.3c-.1-.6.3-1.1.8-1.2.5-.1.8.2.9.4.3.4.3.7.3.7"/>
  <path fill="#050505" d="M47.377 32.421s.6.2.7.7c.1.4.1.9.4 1 .2.1 1.4.9 1.8.7.4-.1 1.6-1.7.9-2.4-.7-.8-2.6-1.9-3.4-1.1-.8.8-.4 1.1-.4 1.1Z" opacity=".2" style="mix-blend-mode:multiply"/>
  <path fill="#803531" stroke="#050505" stroke-linecap="round" stroke-linejoin="round" stroke-width=".4" d="M10.577 43.822c3.3 3.3 7 5 10.9 6.3 3.8 1.3 5.6-4.2 1.8-5.4-3.9-1.2-5.5-1.9-8.6-4.8-.6-.6-2.3-1-3.7.5-1.3 1.3-1 2.8-.4 3.4Z"/>
  <path fill="#050505" d="M10.577 43.822c3.3 3.3 7 5 10.9 6.3 3.8 1.3 5.6-4.2 1.8-5.4-1.5-.5-3 3.3-4.6 2.8-2.4-.6-5.5-2.7-7.4-4.5-.6-.6-.9-1.6-.3-2.6-1.3 1.3-1 2.8-.4 3.4Z" opacity=".4"/>
  <path fill="#803531" d="M13.976 43.122c-1 .9-2.4 1.1-3.3.3-.8-.8-.7-2.3.3-3.2 1-1 2.4-1.2 3.2-.4.9.8.7 2.3-.2 3.3Z"/>
  <path fill="#803531" d="M14.877 40.122c-.8-.8-2.5-2.6-3.3-3.2-1.2-.6-2.1 0-3 .9-1.1 1.2-1.5 2.6-.3 3.7l1 1 1.3 1.3"/>
  <path stroke="#050505" stroke-linecap="round" stroke-linejoin="round" stroke-width=".4" d="M14.877 40.122c-.8-.8-2.5-2.6-3.3-3.2-1.2-.6-2.1 0-3 .9-1.1 1.2-1.5 2.6-.3 3.7l1 1 1.3 1.3"/>
  <path fill="#050505" d="M11.877 38.122s-.4.4-.4.9c.1.5.2.9 0 1.1-.2.2-1.1 1.3-1.5 1.3-.4-.1-2.1-1.1-1.7-2.1.5-1 1.9-2.6 2.9-2.1s.7.9.7.9Z" opacity=".2" style="mix-blend-mode:multiply"/>
  <path fill="#F69226" stroke="#050505" stroke-linecap="round" stroke-linejoin="round" stroke-width=".4" d="M34.176 62.322c-8.8 1.4-9.5-.3-10.5-3.8-.8-2.8-1-10.6-.7-13 .3-4 3.1-6 7.4-6.7 4.3-.7 7.5.3 9.1 4 1 2.2 3.3 9.7 3.4 12.5.2 3.8.1 5.5-8.7 7Z"/>
  <path fill="#EE4963" stroke="#050505" stroke-linecap="round" stroke-linejoin="round" stroke-width=".4" d="M26.677 51.522c-1.4-2.7-3-5.9-2.9-10.1l2.3.1c-.1 3.7 1.4 6.6 2.6 9l-2 1Z"/>
  <path fill="#EE4763" stroke="#050505" stroke-linecap="round" stroke-linejoin="round" stroke-width=".4" d="m34.177 62.421-.8 3.8c-7-.4-9.5-1.5-9.5-1.5s-.4-3.3-.5-6.2c.5.1 2.5.1 2.5.1l1.1-7.7s3.2.3 5.3-.1c2.2-.3 5.1-1.6 5.1-1.6l3.5 7s1.9-.7 2.4-1c.7 2.9 1.5 6.4 1.5 6.4s-2.1 1.7-8.7 3.9l-1.9-3.1Z"/>
  <path fill="#050505" d="m34.177 62.421-.8 3.8a9.899 9.899 0 0 0-1.4-.1s1-4.2 2.1-4.3c1.1-.2 3.2 3.3 3.2 3.3l-1.2.4-1.9-3.1Zm9.1-7.199c.7 2.9 1.5 6.4 1.5 6.4s-.6.5-2.1 1.2c.5-1.1.8-3.1-.6-7.1l1.2-.5Z" opacity=".4"/>
  <path stroke="#6ECFF5" stroke-dasharray=".8 .8" stroke-linecap="round" stroke-linejoin="round" stroke-width=".4" d="M44.077 60.921s-2.2 1.5-8.3 3.8"/>
  <path fill="#050505" d="M23.377 58.522c.1 2.9.5 6.2.5 6.2s.7.3 2.4.7c-.8-1-1.7-2.6-1.7-6.9h-1.2Z" opacity=".4"/>
  <path stroke="#6ECFF5" stroke-dasharray=".8 .8" stroke-linecap="round" stroke-linejoin="round" stroke-width=".4" d="M24.377 63.921s2.5.8 9 1.4"/>
  <path fill="#803531" stroke="#050505" stroke-linecap="round" stroke-linejoin="round" stroke-width=".4" d="M25.577 42.722c.5 2.9 3.2 4.9 6.1 4.4 3-.5 4.9-3.2 4.5-6.1-.5-2.9-3.3-4.9-6.2-4.5-2.9.5-4.9 3.3-4.4 6.2Z"/>
  <path fill="#EE4963" stroke="#050505" stroke-linecap="round" stroke-linejoin="round" stroke-width=".4" d="M37.877 49.722c.5-3 .9-6.6-.4-10.5l-2.1.8c1.2 3.5.7 6.7.3 9.4l2.2.3Z"/>
  <path fill="#6ECFF5" stroke="#050505" stroke-linecap="round" stroke-linejoin="round" stroke-width=".4" d="M38.177 49.322c.2.8-.4 1.5-1.1 1.6-.8.2-1.5-.4-1.7-1.1-.1-.8.4-1.5 1.2-1.7.8-.1 1.5.4 1.6 1.2Zm-11.901 1.9c.1.8.8 1.3 1.6 1.2.8-.1 1.3-.8 1.2-1.6-.2-.8-.9-1.3-1.7-1.2-.7.1-1.3.9-1.1 1.6Z"/>
  <path fill="#050505" d="M26.776 52.222c.7.4 1.5.3 2-.4 0 0-1 .3-1.6-.1-.7-.5-.7-1.5-.7-1.5-.5.6-.3 1.5.3 2Zm11.201-1.801c-.5.6-1.4.7-2 .3 0 0 1-.1 1.5-.7s.2-1.6.2-1.6c.6.4.8 1.3.3 2Z" opacity=".4"/>
  <path stroke="#6ECFF5" stroke-linecap="round" stroke-linejoin="round" stroke-width=".4" d="m39.377 56.822.3-.2-.2-.4"/>
  <path stroke="#6ECFF5" stroke-dasharray=".8 .8" stroke-linecap="round" stroke-linejoin="round" stroke-width=".4" d="m39.077 55.421-1.5-2.9"/>
  <path stroke="#6ECFF5" stroke-linecap="round" stroke-linejoin="round" stroke-width=".4" d="m37.377 52.022-.2-.3h-.3"/>
  <path stroke="#6ECFF5" stroke-dasharray=".8 .8" stroke-linecap="round" stroke-linejoin="round" stroke-width=".4" d="m36.077 51.921-3.5.5-3.9.7"/>
  <path stroke="#6ECFF5" stroke-linecap="round" stroke-linejoin="round" stroke-width=".4" d="m28.276 53.122-.4.1v.4"/>
  <path stroke="#6ECFF5" stroke-dasharray=".8 .8" stroke-linecap="round" stroke-linejoin="round" stroke-width=".4" d="m27.776 54.522-.5 3.3"/>
  <path stroke="#6ECFF5" stroke-linecap="round" stroke-linejoin="round" stroke-width=".4" d="M27.177 58.222v.4l.4.1"/>
  <path stroke="#6ECFF5" stroke-dasharray=".8 .8" stroke-linecap="round" stroke-linejoin="round" stroke-width=".4" d="m28.377 58.822 5.4.9 5.2-2.7"/>
  <path fill="#050505" d="M31.576 46.322c-2.5.4-3.9.1-5.7-.4-1.3-.4-2 .3-2 2.1-.1 2.1 0 9.7 1.1 9.7.6.1 1.2-5.1 1.8-5.5l-.9 6.4-2.2-.1c-.8-2.8-1-10.6-.7-13 .3-4 3.1-6 7.4-6.7 4.3-.7 7.5.3 9.1 4 1 2.2 3.3 9.7 3.4 12.5l-2 .9-2.9-5.8c.7.1 2.9 4.9 3.5 4.7 1-.4-1.3-7.7-2-9.6-.6-1.7-1.5-2.2-2.6-1.4-1.5 1.1-2.8 1.8-5.3 2.2Z" opacity=".4"/>
  <path fill="#803531" stroke="#050505" stroke-linecap="round" stroke-linejoin="round" stroke-width=".4" d="M12.377 31.122c1.5 9.1 7.4 15.2 18.9 13.9 11.3-1.3 15-10.1 13.5-19.2s-9.9-15.3-18.9-13.8c-8.9 1.4-14.9 10-13.5 19.1Z"/>
  <path fill="#050505" d="m15.277 30.421.7 1.1s.2 14.7 16.2 13.4c.2 0-.2-.3-.8.1h-.1c-11.5 1.3-17.4-4.8-18.9-13.9-.4-2.5-.2-4.9.4-7.1 1 1.4 2.5 6.4 2.5 6.4Z" opacity=".4"/>
  <path fill="#FEFEFE" d="M32.377 33.422s.3-4.7 6.4-4.1c0 0 .6 3.6-2.5 4.5-3 .8-3.9-.4-3.9-.4Zm-6.3 1.4s-1.5-4.5-7.2-2.3c0 0 .3 3.6 3.5 3.7 3.1 0 3.7-1.4 3.7-1.4Z"/>
  <path fill="#050505" d="M27.377 36.222s1 1.2 2.4.9c1.4-.2 2.1-1.9 2.1-1.9s-1.5 1-2.2 1.2c-.6.1-2.3-.2-2.3-.2ZM38.676 5.021c.4 2.3-1.3 4.6-3.8 5-2.5.4-4.8-1.2-5.2-3.5-.3-2.4 1.4-4.6 3.8-5 2.5-.4 4.9 1.1 5.2 3.5ZM18.177 8.522c.3 1.9-1 3.6-2.9 3.9-1.9.3-3.7-1-4-2.9-.3-1.9 1-3.7 2.9-4 1.9-.3 3.7 1.1 4 3Z"/>
  <path fill="#050505" d="M46.277 8.322c.5 2.9-1.5 5.6-4.3 6-2.9.5-5.6-1.5-6.1-4.3-.5-2.9 1.5-5.6 4.4-6.1 2.8-.5 5.6 1.5 6 4.4Zm-35.6 11.3c.5 3-1.5 5.7-4.4 6.2-2.9.5-5.7-1.5-6.2-4.5-.5-2.9 1.5-5.6 4.5-6.1 2.9-.5 5.6 1.5 6.1 4.4Zm20.6-14.201c.6 3.6-2.4 7.1-6.6 7.8-4.3.7-8.2-1.7-8.8-5.3-.6-3.6 2.4-7.1 6.6-7.8 4.3-.7 8.3 1.7 8.8 5.3Z"/>
  <path fill="#050505" d="M14.976 12.422c.5 2.9-1.4 5.6-4.3 6-2.9.5-5.6-1.4-6.1-4.3-.4-2.9 1.5-5.6 4.4-6 2.9-.5 5.6 1.4 6 4.3Zm-3.199 16.499c.5 3.1-1.4 6.1-4.4 6.6-2.9.4-5.8-1.7-6.3-4.9s1.5-6.1 4.5-6.6c2.9-.5 5.7 1.7 6.2 4.9Zm43.9-6.099c.6 3.3-1.4 6.4-4.3 6.8-3 .5-5.8-1.8-6.4-5-.5-3.3 1.5-6.3 4.4-6.8 3-.5 5.8 1.8 6.3 5Z"/>
  <path fill="#050505" d="M51.877 13.322c.5 2.7-1.4 5.2-4.1 5.7-2.7.4-5.2-1.4-5.6-4.1-.5-2.7 1.4-5.3 4.1-5.7 2.7-.5 5.2 1.4 5.6 4.1Zm-21.801 5.9c.4 2.1-1.1 4.2-3.3 4.5-2.1.4-4.2-1.1-4.5-3.3-.4-2.1 1.1-4.2 3.3-4.5 2.1-.4 4.2 1.1 4.5 3.3Z"/>
  <path fill="#050505" d="M37.577 18.421c.4 2.2-1.1 4.3-3.3 4.6-2.3.4-4.3-1.1-4.7-3.3-.4-2.3 1.1-4.3 3.4-4.7 2.2-.4 4.3 1.1 4.6 3.4Z"/>
  <path fill="#050505" d="M44.077 20.422c.4 2.2-1.1 4.3-3.3 4.6-2.2.4-4.3-1.1-4.7-3.3-.3-2.2 1.2-4.3 3.4-4.7 2.2-.3 4.3 1.2 4.6 3.4Z"/>
  <path fill="#050505" d="M47.577 25.222c.3 1.7-.9 3.3-2.6 3.6-1.7.3-3.3-.9-3.6-2.6-.3-1.7.9-3.4 2.6-3.7 1.7-.2 3.3.9 3.6 2.7Zm-31.7 4.7c.3 1.7-.9 3.4-2.6 3.6-1.7.3-3.4-.9-3.6-2.6-.3-1.7.8-3.3 2.6-3.6 1.7-.3 3.3.9 3.6 2.6Z"/>
  <path fill="#050505" d="M18.677 25.622c.2 1.4-.7 2.7-2.1 3-1.4.2-2.7-.8-2.9-2.1-.3-1.4.7-2.7 2.1-3 1.4-.2 2.7.8 2.9 2.1Z"/>
  <path fill="#050505" d="M23.577 21.122c.3 2-1.1 3.9-3.1 4.2-2 .3-3.8-1-4.2-3-.3-2 1.1-3.9 3.1-4.2 2-.4 3.9 1 4.2 3Z"/>
  <path fill="#050505" d="m12.877 32.522 5.3-9.2 6.9-2.7 7.5-.6 5.6 2.5 3.9 1.5 2.6 2.7 3.3-3.7-.3-8.5-11.6-7.8-10.7.6-11.3 2.6-7 9.6-1.2 9.8 7 3.2Z"/>
  <path stroke="#3F1D13" stroke-width=".6" d="M14.677 27.021c-1.2.1-2.2-.8-2.3-2-.1-1.1.8-2.1 2-2.2 1.1-.1 2.1.8 2.2 2m28.4 2.701c1.1-.1 1.9-1.2 1.8-2.3-.2-1.1-1.2-2-2.3-1.8-1.2.1-2 1.2-1.9 2.3m-24.7-19.8c.3-1.5 1.4-3 3.1-3.8 2.2-1.1 4.8-.8 6.3.7.4.333.7.733.9 1.2"/>
  <path stroke="#3F1D13" stroke-width=".4" d="M27.077 8.322c-.4-1.2-1.7-1.9-3-1.5-.6.2-1 .7-1.3 1.2"/>
  <path stroke="#3F1D13" stroke-width=".6" d="M8.577 9.722c-1.8.7-2.8 2.7-2.2 4.6.6 1.9 2.7 2.9 4.5 2.3m5.3-2.701c2-.3 3.3-2.1 3.1-4-.3-1.9-2.1-3.3-4-3-2 .2-3.3 2-3.1 4"/>
  <path stroke="#3F1D13" stroke-width=".4" d="M40.676 14.822c-1.3-2-3.9-2.7-6-1.4-2.1 1.2-2.7 3.9-1.5 6"/>
  <path stroke="#3F1D13" stroke-width=".6" d="M48.677 16.322c1.4-.7 1.9-2.5 1.2-3.9-.8-1.4-2.6-1.9-4-1.2"/>
  <path stroke="#3F1D13" stroke-width=".4" d="M28.977 11.822c-3-.7-6.1 1.2-6.8 4.3"/>
  <path stroke="#3F1D13" stroke-width=".6" d="M53.477 26.521c1.3-2.2.6-5.1-1.6-6.4"/>
  <path stroke="#3F1D13" stroke-width=".4" d="M12.377 32.522c1.6-.4 2.5-2 2.1-3.7"/>
  <path stroke="#3F1D13" stroke-width=".6" d="M38.176 22.722c.5.9 1.5 1.2 2.4.8.9-.5 1.2-1.5.8-2.4m-22.899 2.799c1.9.2 3.6-1.2 3.8-3.1.2-1.8-1.2-3.5-3.1-3.7-1.8-.2-3.5 1.1-3.7 3"/>
  <path stroke="#3F1D13" stroke-width=".4" d="M46.577 15.322c-1.8-.5-3.7.5-4.2 2.4-.5 1.8.6 3.7 2.4 4.2 1.8.5 3.7-.6 4.2-2.4m-42.4 6.499c-1.1 1.1-1.1 2.9 0 4 1.2 1.1 3 1.1 4.1 0 1.1-1.1 1.1-2.9-.1-4.1"/>
  <path stroke="#3F1D13" stroke-width=".6" d="M42.077 13.822c2.3-.8 3.6-3.3 2.8-5.7-.8-2.3-3.3-3.5-5.6-2.7-2.3.7-3.6 3.3-2.8 5.6m-5.4 6.999c-.6 1.4 0 3 1.5 3.6 1.4.6 3 0 3.6-1.4m-31.8 6.8c-1.8 1-2.4 3.3-1.4 5.1 1 1.8 3.3 2.4 5.1 1.4m-6.4-12.5c.3 2 2.1 3.3 4.1 3 1.9-.3 3.3-2.2 3-4.1-.4-2-2.2-3.3-4.2-3-1.9.3-3.2 2.1-2.9 4.1Z"/>
  <path stroke="#3F1D13" stroke-width=".4" d="M11.977 17.721c1.2.4 2.5-.3 2.9-1.5.3-1.2-.4-2.5-1.6-2.9-1.2-.3-2.5.3-2.8 1.6m13.5 5.301c.2 1.3 1.4 2.1 2.6 1.9m2-2.601c-.3-1.3-1.4-2.1-2.7-1.9"/>
  <path stroke="#3F1D13" stroke-width=".6" d="M30.677 7.122c.3 1.9 2.1 3.3 4.1 3 1.9-.4 3.2-2.2 2.9-4.1-.3-2-2.1-3.3-4.1-3-1.9.3-3.2 2.1-2.9 4.1Z"/>
  <path fill="#855226" d="M37.077 31.421c.3 1-.3 2.1-1.3 2.3-1 .2-2-.4-2.2-1.4-.3-1.1.3-2.1 1.3-2.4 1-.2 2 .4 2.2 1.5Z"/>
  <path fill="#050505" d="M35.877 31.722c.1.4-.1.7-.4.7-.4.1-.6-.2-.7-.5-.1-.4.2-.7.5-.7.3-.1.6.2.6.5Z"/>
  <path fill="#FEFEFE" d="M34.777 31.222c0 .2-.1.4-.3.4-.2 0-.4-.1-.4-.3 0-.2.1-.4.3-.4.2 0 .3.1.4.3Z"/>
  <path fill="#855226" d="M20.977 34.122c0 1 .9 1.9 1.9 1.9 1-.1 1.8-.9 1.8-2s-.9-1.9-1.9-1.9c-1 0-1.8.9-1.8 2Z"/>
  <path fill="#050505" d="M22.277 34.122c0 .3.3.6.6.5.3 0 .5-.3.5-.6-.1-.4-.3-.6-.6-.6-.4 0-.6.3-.5.7Z"/>
  <path fill="#FEFEFE" d="M23.177 33.322c.1.2.2.3.4.3s.3-.2.3-.4-.2-.3-.4-.3c-.1 0-.3.2-.3.4Z"/>
  <path stroke="#050505" stroke-linecap="round" stroke-linejoin="round" stroke-width=".6" d="m17.177 31.021 1.7 1.4s5.5-1.8 7.2 2.4"/>
  <path fill="#BB8653" d="m18.877 30.822 1 1.3-1-1.3Z"/>
  <path stroke="#050505" stroke-linecap="round" stroke-linejoin="round" stroke-width=".6" d="m18.877 30.822 1 1.3m20.1-4.601-1.3 1.7s-5.8-.3-6.3 4.2"/>
  <path fill="#BB8653" d="m38.276 27.622-.6 1.6.6-1.6Z"/>
  <path stroke="#050505" stroke-linecap="round" stroke-linejoin="round" stroke-width=".6" d="m38.276 27.622-.6 1.6"/>
  <path stroke="#050505" stroke-linecap="round" stroke-linejoin="round" stroke-width=".8" d="M32.577 28.021s2.5-1.8 5 .3m-13.1 1.301s-3-1.1-4.7 1.6"/>
  <path fill="#050505" d="M26.076 40.222c.2-1.2 2.2-1 3.3-1 .3 0 .7 0 1-.1.3 0 .8-.2 1.1-.3 1.1-.3 2.9-1.1 3.5 0 .6 1.1.1 3.6-3.4 4.4-.133 0-.3.033-.5.1h-.4c-3.6.4-4.9-1.8-4.6-3.1Z"/>
  <path fill="#803531" d="m13.277 38.421-1.3-.2c-.6-.1-1.1.3-1.2.8 0 .5.2.8.5.9.4.3.7.3.7.3"/>
  <path stroke="#050505" stroke-linecap="round" stroke-linejoin="round" stroke-width=".4" d="m13.277 38.421-1.3-.2c-.6-.1-1.1.3-1.2.8 0 .5.2.8.5.9.4.3.7.3.7.3"/>
  <path fill="#050505" d="M62.977 72.622v.8c-.067.266-.167.6-.3 1-.134.4-.3.733-.5 1-.267.266-.667.5-1.2.7-.467.266-1.067.4-1.8.4-.667 0-1.234-.134-1.7-.4-.534-.2-.9-.467-1.1-.8a3.5 3.5 0 0 1-.5-1c-.134-.4-.2-.7-.2-.9v-1h3.1v.2c0 .7.1 1 .5 1 .5 0 .6-.4.6-.9 0-.534-.234-.8-.7-.8h-.8v-2.5h.8c.4 0 .633-.234.7-.7 0-.6-.2-.9-.6-.9-.5 0-.5.2-.5.9v.2h-3.1v-1c0-.2.066-.5.2-.9.133-.4.3-.734.5-1 .2-.267.566-.534 1.1-.8.466-.2 1.033-.3 1.7-.3 1.4 0 2.5.5 3 1 .2.266.366.6.5 1 .133.466.233.8.3 1v.799c0 .2 0 .5-.3 1.2-.134.4-.3.666-.5.8.2.066.4.266.6.6.133.333.2.633.2.9v.4Zm3.4-7.6h2.7v11.3h-3.2v-8.1c-.734.2-1.367.366-1.9.5v-3l2.4-.7Z"/>
  <path fill="#FEFEFE" d="M64.076 71.822v.8l-.3.9a3.54 3.54 0 0 1-.6 1.1c-.2.266-.566.5-1.1.7-.533.2-1.133.3-1.8.3-.666 0-1.233-.1-1.7-.3-.533-.267-.9-.534-1.1-.8-.2-.267-.366-.6-.5-1-.133-.467-.2-.8-.2-1v-.901h3.1v.2c0 .6 0 .9.5.9s.6-.3.6-.8c0-.6-.233-.9-.7-.9h-.8v-2.4h.8c.4 0 .634-.234.7-.7 0-.667-.2-1-.6-1-.5 0-.5.3-.5 1v.2h-3.1v-1c0-.2.067-.5.2-.9.134-.4.3-.767.5-1.1.2-.267.567-.5 1.1-.7.467-.267 1.034-.4 1.7-.4 1.4 0 2.5.5 2.9 1.1.267.266.467.6.6 1 .134.4.234.733.3 1v.801c0 .2 0 .5-.3 1.2-.133.4-.333.633-.6.7.267.133.467.366.6.7.2.333.3.633.3.9v.4Zm3.4-7.6h2.7v11.2h-3.2v-8c-.733.2-1.366.333-1.9.4v-2.9l2.4-.7Z"/>
</svg>
