<svg width="83" height="82" viewBox="0 0 83 82" fill="none" xmlns="http://www.w3.org/2000/svg">
<path d="M9 14.2846L78.8999 8.28461L82.6001 73.4846L13.6001 81.6846L9 14.2846Z" fill="#7358A4"/>
<path d="M0 5.8846L71.6001 7.58459L9 14.2846L13.6001 81.6846L2.5 62.8846L0 5.8846Z" fill="#332F56"/>
<path d="M72 0.384598L78.8999 8.28461L9 14.1846L0 5.8846L72 0.384598Z" fill="#564088"/>
<mask id="mask0_150_4812" style="mask-type:alpha" maskUnits="userSpaceOnUse" x="0" y="0" width="79" height="15">
<path d="M72 0.384598L78.8999 8.28461L9 14.1846L0 5.8846L72 0.384598Z" fill="#564088"/>
</mask>
<g mask="url(#mask0_150_4812)">
<path d="M84.6001 57.2846L-31.2 -66.5154" stroke="#9B82BB" stroke-width="0.4"/>
<path d="M84.2 52.8846L-31.1001 -70.9154" stroke="#9B82BB" stroke-width="0.4"/>
<path d="M82.8 46.7846L-23.2 -66.7154" stroke="#9B82BB" stroke-width="0.4"/>
<path d="M81.1001 40.7846L-25.2 -72.7154" stroke="#9B82BB" stroke-width="0.4"/>
<path d="M79.8999 34.7846L-16.8 -67.6154" stroke="#9B82BB" stroke-width="0.4"/>
<path d="M78.2 28.7846L-18.2 -73.3154" stroke="#9B82BB" stroke-width="0.4"/>
<path d="M76.8 22.7846L-19.8999 -79.3154" stroke="#9B82BB" stroke-width="0.4"/>
<path d="M75.3999 16.7846L-21.3999 -84.8154" stroke="#9B82BB" stroke-width="0.4"/>
<path d="M74 10.7846L-22.8999 -90.6154" stroke="#9B82BB" stroke-width="0.4"/>
<path d="M76.8999 9.28461L-25.3 -96.7154" stroke="#9B82BB" stroke-width="0.4"/>
<path d="M42.2 28.7846L-46.6001 -65.8154" stroke="#9B82BB" stroke-width="0.4"/>
<path d="M40.3999 22.5846L-38.8999 -60.9154" stroke="#9B82BB" stroke-width="0.4"/>
<path d="M38.8 16.6846L-39.7 -66.2154" stroke="#9B82BB" stroke-width="0.4"/>
<path d="M41.8 15.5846L-29.8999 -59.6154" stroke="#9B82BB" stroke-width="0.4"/>
<path d="M28.6001 31.3846L-60.8999 -63.0154" stroke="#9B82BB" stroke-width="0.4"/>
<path d="M24.5 32.1846L-65.2 -62.4154" stroke="#9B82BB" stroke-width="0.4"/>
<path d="M26.7 25.2846L-52 -58.2154" stroke="#9B82BB" stroke-width="0.4"/>
<path d="M25.5 19.2846L-52.2 -63.5154" stroke="#9B82BB" stroke-width="0.4"/>
<path d="M28.7 18.2846L-43.3 -57.8154" stroke="#9B82BB" stroke-width="0.4"/>
<path d="M-58.6001 -58.8154L-19.8 -95.1154L79 8.28461L9 14.2846L-58.6001 -58.8154Z" stroke="#9B82BB" stroke-width="0.4"/>
</g>
<path d="M16.6001 17.7846L19.2 17.4846L20.2 28.4846L17.2 28.6846L16.5 20.8846C15.7667 21.1513 15.1334 21.3513 14.6001 21.4846L14.3999 18.5846L16.6001 17.7846Z" fill="#050505"/>
<path d="M28.5 24.1846C28.5667 24.4513 28.6001 24.6846 28.6001 24.8846C28.6001 25.1513 28.5332 25.4846 28.3999 25.8846C28.3332 26.2846 28.2 26.618 28 26.8846C27.7333 27.218 27.3666 27.4846 26.8999 27.6846C26.4332 27.9513 25.8666 28.1179 25.2 28.1846C24.5333 28.2513 23.9667 28.1846 23.5 27.9846C22.9667 27.8513 22.5999 27.6513 22.3999 27.3846C22.1332 27.118 21.9334 26.7846 21.8 26.3846C21.6 25.9846 21.5 25.6846 21.5 25.4846C21.4333 25.2846 21.3999 25.0846 21.3999 24.8846V24.5846L24.3999 24.2846V24.4846C24.4999 25.1846 24.6 25.3846 25 25.3846C25.5 25.2846 25.6 24.9846 25.5 24.4846C25.4333 23.9513 25.1666 23.718 24.7 23.7846H24L23.8 21.3846H24.5C24.9667 21.318 25.2 21.0513 25.2 20.5846C25.1333 19.9846 24.9 19.6846 24.5 19.6846C24.1 19.7846 24.0001 20.0846 24.1001 20.6846V20.8846L21.1001 21.1846L21 20.8846C21 20.618 21 20.3846 21 20.1846C21 19.9846 21.0334 19.6846 21.1001 19.2846C21.2334 18.8846 21.3667 18.5513 21.5 18.2846C21.7 17.9513 22.0333 17.6513 22.5 17.3846C22.9667 17.118 23.5001 16.9513 24.1001 16.8846C25.5001 16.7846 26.6001 17.1846 27.1001 17.6846C27.3668 17.9513 27.6 18.2846 27.8 18.6846C27.9334 19.0179 28.0334 19.2846 28.1001 19.4846C28.1668 19.7513 28.2 19.9846 28.2 20.1846V20.2846C28.2 20.4846 28.3001 20.7846 28.1001 21.5846C27.9668 21.9179 27.7667 22.1513 27.5 22.2846C27.7667 22.418 28 22.618 28.2 22.8846C28.3333 23.218 28.4333 23.518 28.5 23.7846V24.1846Z" fill="#050505"/>
<path d="M15.8 16.5846L18.3999 16.3846L19.3999 27.2846L16.3 27.5846L15.6001 19.6846C14.9334 19.9513 14.3334 20.1846 13.8 20.3846L13.6001 17.4846L15.8 16.5846Z" fill="#FEFEFE"/>
<path d="M27.7 22.9846V23.0846C27.7666 23.3513 27.8 23.5846 27.8 23.7846C27.7334 23.9846 27.6668 24.2846 27.6001 24.6846C27.4668 25.0846 27.3001 25.4513 27.1001 25.7846C26.9001 26.0513 26.5668 26.3179 26.1001 26.5846C25.6334 26.8513 25.0334 27.0179 24.3 27.0846C23.7 27.1513 23.1334 27.0846 22.6001 26.8846C22.1334 26.6846 21.7667 26.4513 21.5 26.1846C21.3 25.9179 21.0999 25.618 20.8999 25.2846C20.7666 24.8846 20.6668 24.5846 20.6001 24.3846C20.6001 24.1846 20.6001 23.9513 20.6001 23.6846L20.5 23.3846L23.6001 23.1846V23.3846C23.6001 23.9846 23.8 24.2846 24.2 24.1846C24.7 24.1846 24.7 23.8846 24.7 23.2846C24.6333 22.818 24.3666 22.5846 23.8999 22.5846L23.2 22.6846L23 20.2846L23.7 20.1846C24.1666 20.1846 24.3667 19.918 24.3 19.3846C24.3 18.7846 24.1 18.5179 23.7 18.5846C23.2 18.5846 23.2 18.8846 23.2 19.4846L23.3 19.7846L20.2 19.9846V19.6846C20.2 19.4846 20.2 19.2846 20.2 19.0846C20.2 18.8846 20.2334 18.5846 20.3 18.1846C20.3667 17.7846 20.5 17.4179 20.7 17.0846C20.9 16.8179 21.2333 16.5513 21.7 16.2846C22.1666 16.018 22.7 15.8513 23.3 15.7846C24.7 15.6846 25.8 16.0846 26.3 16.5846C26.5667 16.7846 26.8 17.0846 27 17.4846C27.1333 17.8846 27.2334 18.1846 27.3 18.3846C27.3 18.5846 27.3332 18.8179 27.3999 19.0846V19.1846C27.3999 19.3846 27.5 19.6846 27.2 20.3846C27.1333 20.7846 26.9666 21.0513 26.7 21.1846C26.9666 21.2513 27.1999 21.4513 27.3999 21.7846C27.5332 22.0513 27.6333 22.3179 27.7 22.5846V22.9846Z" fill="#FEFEFE"/>
<path d="M77.3999 65.0846L37.8 70.4846L37.6001 65.3846L77 60.0846L77.3999 65.0846Z" fill="#DD4297"/>
<path fill-rule="evenodd" clip-rule="evenodd" d="M21.5 56.4846C22.5 56.3846 23.6001 56.2846 23.6001 59.5846C23.5001 62.5846 22.5 62.8846 21 63.0846L20.3999 63.1846L20.5 56.6846L21.5 56.4846ZM21.3999 57.1846L21.3 62.2846C22.7 62.0846 22.7 60.7846 22.7 59.6846C22.7 58.6846 22.7999 56.8846 21.3999 57.1846Z" fill="#FEFEFE"/>
<path d="M25 62.4846L24.1001 62.6846L24.3 56.0846L25.1001 55.9846L25 62.4846ZM24.6001 55.7846L24.2 55.5846L24.8999 54.1846L25.5 54.4846L24.6001 55.7846Z" fill="#FEFEFE"/>
<path fill-rule="evenodd" clip-rule="evenodd" d="M27.5 55.6846L28.8 61.9846L27.8999 62.0846L27.7 60.8846L26.3999 61.0846L26.2 62.3846L25.3 62.4846L26.8 55.7846L27.5 55.6846ZM27.5 59.2846L27.2 56.9846L26.6001 60.3846L27.6001 60.1846L27.5 59.2846Z" fill="#FEFEFE"/>
<path d="M31.7 55.0846L32.5 59.6846L32.6001 59.3846L32.8999 57.7846L33.3999 54.7846L34.2 54.6846L34.7 61.1846L33.8 61.2846L33.7 58.8846V57.6846V56.7846L33.5 57.7846L32.8 61.3846L32.2 61.4846L31.5 57.0846L31.1001 61.6846L30.3 61.7846L31 55.1846L31.7 55.0846Z" fill="#FEFEFE"/>
<path d="M36.1001 54.4846V59.1846C36.0001 60.0846 36.3001 60.1846 36.6001 60.1846C37.2001 60.0846 37.3 59.6846 37.3 59.1846L37.3999 54.2846L38.2 54.1846V58.7846C38.1 59.6846 38.1001 60.7846 36.6001 60.9846C35.3001 61.1846 35.2 60.2846 35.2 59.0846L35.3 54.5846L36.1001 54.4846Z" fill="#FEFEFE"/>
<path d="M39.7 55.8846L39.8 58.0846V60.4846L38.8999 60.5846L39 53.9846L39.8999 53.8846L41.3 58.6846L41.1001 56.0846L41.2 53.6846L42 53.5846L41.8999 60.1846L41.1001 60.2846L39.7 55.3846V55.4846V55.8846Z" fill="#FEFEFE"/>
<path fill-rule="evenodd" clip-rule="evenodd" d="M43.8 53.3846C44.8 53.1846 45.8999 53.0846 45.8999 56.4846C45.7999 59.4846 44.8 59.6846 43.3 59.9846H42.7L42.8 53.4846L43.8 53.3846ZM43.7 54.1846L43.6001 59.1846C45.0001 59.0846 45 57.6846 45 56.5846C45 55.5846 45.2 53.8846 43.7 54.1846Z" fill="#FEFEFE"/>
<path d="M47.3 59.3846L46.5 59.4846L46.6001 52.9846L47.3999 52.8846L47.3 59.3846Z" fill="#FEFEFE"/>
<path fill-rule="evenodd" clip-rule="evenodd" d="M49.8 52.4846L51.1001 58.8846L50.2 58.9846L50 57.6846L48.7 57.8846L48.5 59.1846L47.6001 59.3846L49.1001 52.5846L49.8 52.4846ZM49.8 56.1846L49.5 53.7846L48.8999 57.1846L49.8999 57.0846L49.8 56.1846Z" fill="#FEFEFE"/>
<path d="M52.3999 52.1846L52.3 57.8846L53.7 57.6846V58.4846L51.3999 58.7846L51.5 52.2846L52.3999 52.1846Z" fill="#FEFEFE"/>
<path fill-rule="evenodd" clip-rule="evenodd" d="M22.2 66.0846C23.2 65.9846 24.3 65.8846 24.3 69.1846C24.2 72.1846 23.2 72.4846 21.7 72.6846L21.1001 72.7846L21.2 66.2846L22.2 66.0846ZM22.1001 66.7846L22 71.8846C23.4 71.6846 23.3999 70.3846 23.3999 69.2846C23.3999 68.2846 23.6001 66.4846 22.1001 66.7846Z" fill="#FEFEFE"/>
<path d="M27.3 65.3846V66.1846L25.8 66.3846V68.3846L27.1001 68.1846L27 68.9846L25.8 69.1846L25.7 71.3846L27.2 71.1846L27.1001 71.9846L24.8999 72.2846L25 65.6846L27.3 65.3846Z" fill="#FEFEFE"/>
<path d="M30.1001 64.9846L30 70.7846L31.3999 70.5846V71.3846L29.1001 71.6846L29.2 65.0846L30.1001 64.9846Z" fill="#FEFEFE"/>
<path fill-rule="evenodd" clip-rule="evenodd" d="M33.3999 64.5846L34.7 70.8846L33.8 70.9846L33.6001 69.7846L32.3 69.9846L32.1001 71.2846L31.2 71.3846L32.7 64.5846H33.3999ZM33.3999 68.2846L33.1001 65.9846L32.5 69.3846L33.5 69.1846L33.3999 68.2846Z" fill="#FEFEFE"/>
<path fill-rule="evenodd" clip-rule="evenodd" d="M46.3 70.7846L43.3999 71.1846L41.8 69.3846H41.6001V71.3846L39.2 71.6846L39.3 63.6846L42.5 63.2846C42.6 63.2846 42.7001 63.2846 43.1001 63.2846C43.5001 63.2846 43.8999 63.3846 44.3999 63.5846C44.8999 63.7846 45.1999 64.1846 45.3999 64.7846C45.5332 65.1179 45.6001 65.4846 45.6001 65.8846C45.6001 67.0179 45.1667 67.8846 44.3 68.4846L46.3 70.7846ZM41.6001 65.6846V67.1846L42.5 67.0846C42.9667 67.0179 43.2 66.7179 43.2 66.1846C43.2 65.7846 42.9 65.4846 42.5 65.5846L41.6001 65.6846Z" fill="#FEFEFE"/>
<path fill-rule="evenodd" clip-rule="evenodd" d="M51.8999 61.9846L54.8 69.5846L52.2 69.9846L51.8999 69.1846L49.3999 69.4846L49.1001 70.3846L46.6001 70.6846L49.5 62.2846L51.8999 61.9846ZM50.2 67.1846L51.2 67.0846L50.7 65.3846L50.2 67.1846Z" fill="#FEFEFE"/>
<path fill-rule="evenodd" clip-rule="evenodd" d="M55.5 69.4846V61.4846L58.7 61.0846C59.8333 60.9512 60.7667 61.1846 61.5 61.7846C62.2333 62.4513 62.6001 63.3846 62.6001 64.5846C62.6001 65.7179 62.2333 66.7179 61.5 67.5846C60.7667 68.4512 59.8001 68.9512 58.6001 69.0846L55.5 69.4846ZM57.8999 63.3846V66.8846L58.7 66.7846C59.1666 66.7179 59.5334 66.5179 59.8 66.1846C60.0667 65.7846 60.2 65.3513 60.2 64.8846C60.2 64.3513 60.0667 63.9513 59.8 63.6846C59.5334 63.3513 59.1666 63.2179 58.7 63.2846L57.8999 63.3846Z" fill="#FEFEFE"/>
<path d="M63.5 68.3846L63.6001 60.3846L65.8999 60.0846V68.0846L63.5 68.3846Z" fill="#FEFEFE"/>
<path fill-rule="evenodd" clip-rule="evenodd" d="M71.2 59.2846C72.3333 59.0846 73.3001 59.3512 74.1001 60.0846C74.9001 60.7512 75.3 61.6513 75.3 62.7846C75.3 63.9846 74.9001 65.0512 74.1001 65.9846C73.3001 66.8512 72.3001 67.3846 71.1001 67.5846C69.9668 67.7179 69 67.4513 68.2 66.7846C67.4 66.0513 67 65.1179 67 63.9846C67 62.7846 67.4 61.7513 68.2 60.8846C69 59.9513 70 59.4179 71.2 59.2846ZM71.1001 65.2846C71.5668 65.2179 71.9667 64.9846 72.3 64.5846C72.6334 64.1846 72.8 63.7179 72.8 63.1846C72.8 62.6513 72.6666 62.2179 72.3999 61.8846C72.0666 61.5513 71.6666 61.4179 71.2 61.4846C70.6666 61.5512 70.2332 61.7846 69.8999 62.1846C69.6332 62.5846 69.4666 63.0512 69.3999 63.5846C69.3999 64.1179 69.5666 64.5513 69.8999 64.8846C70.2332 65.2179 70.6334 65.3513 71.1001 65.2846Z" fill="#FEFEFE"/>
<path opacity="0.2" d="M74.2001 38.3846L78.2001 40.2846C79.2001 40.8846 79.1001 42.3846 78.0001 42.7846L47.8002 53.2846C44.7002 54.2846 41.2002 54.0846 38.3002 52.4846L28.7001 47.3846C27.6001 46.8846 27.8 45.3846 28.9 44.9846L35.7001 42.7846L74.2001 38.3846Z" fill="#050505"/>
<path d="M29.3999 44.0846L29.8999 30.3846C29.9999 29.1846 30.8 28.0846 32 27.6846L62.8 17.3846C63.5 17.1846 64.3 17.1846 65 17.4846L72.3 19.8846C74.4 20.5846 75.8 22.3846 76 24.4846L77.3 38.7846C77.4 40.0846 76.6 41.2846 75.2 41.7846L47.8 50.9846C45 51.8846 41.9 51.6846 39.2 50.4846L31.3999 47.0846C30.1999 46.5846 29.3999 45.3846 29.3999 44.0846Z" fill="#EC2993"/>
<path d="M48.0001 50.5846L74.7001 41.5846C76.0001 41.1846 76.8001 39.9846 76.7001 38.6846L75.5001 25.5846C75.3001 23.5846 73.2001 22.2846 71.2001 22.8846L44.5001 31.8846C43.2001 32.2846 42.4001 33.4846 42.5001 34.7846L43.7001 47.8846C43.9001 49.8846 46.0001 51.1846 48.0001 50.5846Z" fill="#C43794"/>
<path d="M65.6999 35.2846C66.0999 38.9846 68.3999 41.2846 70.8999 40.4846C73.3999 39.5846 75.1 35.9846 74.8 32.1846C74.4 28.4846 72.1001 26.1846 69.6001 26.9846C67.2001 27.8846 65.3999 31.5846 65.6999 35.2846Z" fill="#43A9DF"/>
<path d="M66.1001 35.0846C66.4001 38.4846 68.5001 40.5846 70.8001 39.8846C73.1001 39.0846 74.6999 35.7846 74.3999 32.3846C74.0999 28.9846 72 26.8846 69.7 27.5846C67.4 28.3846 65.8001 31.7846 66.1001 35.0846Z" fill="#F3EB18"/>
<path d="M44.9 42.2846C45.2 45.9846 47.5001 48.2846 50.0001 47.4846C52.5001 46.5846 54.3 42.8846 53.9 39.1846C53.6 35.4846 51.3001 33.1846 48.8001 33.9846C46.3001 34.8846 44.5 38.4846 44.9 42.2846Z" fill="#43A9DF"/>
<path d="M45.3001 42.0846C45.6001 45.4846 47.7 47.5846 49.9 46.8846C52.2 46.0846 53.8001 42.6846 53.5001 39.3846C53.2001 35.9846 51.1001 33.8846 48.8001 34.5846C46.6001 35.3846 45.0001 38.6846 45.3001 42.0846Z" fill="#F3EB18"/>
<path opacity="0.3" d="M67.7 41.0846C67.7 41.0846 65.7001 40.0846 65.1001 37.3846L57.5 33.3846C57.5 33.3846 56.6 34.1846 56.2 33.8846C55.7 33.6846 51.8999 30.1846 51.8999 30.1846L45.2 32.3846C43.9 32.7846 43.1001 33.9846 43.3001 35.2846L43.6001 39.1846C43.6001 39.1846 44.4 36.5846 45.5 35.3846C46.7 34.2846 53.5 40.9846 53.5 40.9846L53.2 42.4846L58.3001 45.9846L67 43.0846C67 43.0846 67.1 41.8846 67.7 41.0846Z" fill="#FEFEFE"/>
<path d="M62.7 40.6846L63.3 40.4846C63.4 40.4846 63.5 40.2846 63.5 40.1846L63.3999 38.8846C63.3999 38.6846 63.3001 38.6846 63.1001 38.6846L62.5 38.8846C62.4 38.8846 62.3 39.0846 62.3 39.1846L62.5 40.4846C62.5 40.6846 62.6 40.6846 62.7 40.6846Z" fill="#F3EB18"/>
<path d="M61.3999 41.1846L61.8999 40.9846C62.0999 40.8846 62.2001 40.7846 62.1001 40.5846L62 39.2846C62 39.1846 61.9 39.0846 61.8 39.1846L61.2 39.3846C61.1 39.3846 61 39.4846 61 39.6846L61.1001 40.9846C61.1001 41.0846 61.1999 41.1846 61.3999 41.1846Z" fill="#F3EB18"/>
<path d="M60 41.5846L60.6001 41.3846C60.7001 41.3846 60.8 41.1846 60.8 41.0846L60.7 39.7846C60.7 39.6846 60.5999 39.5846 60.3999 39.5846L59.8 39.7846C59.7 39.7846 59.6001 39.9846 59.6001 40.0846L59.8 41.3846C59.8 41.5846 59.9 41.5846 60 41.5846Z" fill="#F3EB18"/>
<path d="M58.7 42.0846L59.2 41.8846C59.4 41.7846 59.4999 41.6846 59.3999 41.4846L59.3 40.1846C59.3 40.0846 59.2001 39.9846 59.1001 40.0846L58.5 40.2846C58.4 40.2846 58.3 40.3846 58.3 40.5846L58.3999 41.8846C58.3999 41.9846 58.5 42.0846 58.7 42.0846Z" fill="#F3EB18"/>
<path d="M57.3 42.4846L57.8998 42.2846C57.9998 42.2846 58.1 42.0846 58.1 41.9846L57.9999 40.6846C57.9999 40.5846 57.8999 40.4846 57.6999 40.4846L57.1999 40.6846C56.9999 40.7846 56.8999 40.8846 56.9999 40.9846L57.1 42.2846C57.1 42.4846 57.2 42.5846 57.3 42.4846Z" fill="#F3EB18"/>
<path d="M55.9 41.2846C55.9 41.6846 56.2001 41.8846 56.5001 41.7846L63.9 39.2846C64.2 39.1846 64.5 38.7846 64.4 38.4846L63.9 32.6846C63.9 32.3846 63.6001 32.1846 63.3001 32.2846L55.9 34.6846C55.6 34.7846 55.3 35.1846 55.4 35.5846L55.9 41.2846Z" fill="#43A9DF"/>
<path d="M53.2 33.5846C53.2 33.9846 53.5 34.1846 53.8 34.0846L65.1001 30.2846C65.4001 30.1846 65.7001 29.7846 65.6001 29.4846L65.5 27.8846C65.5 27.4846 65.1999 27.2846 64.8999 27.3846L53.5 31.1846C53.2 31.2846 53 31.6846 53 32.0846L53.2 33.5846Z" fill="#F3EB18"/>
<path d="M56.8 38.6846C56.9 38.9846 57.0999 39.1846 57.3999 39.0846L62.6001 37.2846C62.9001 37.1846 63.1001 36.8846 63.1001 36.5846L62.8999 34.2846C62.7999 33.9846 62.6 33.7846 62.3 33.8846L57.1001 35.6846C56.8001 35.7846 56.6001 36.0846 56.6001 36.3846L56.8 38.6846Z" fill="#F3EB18"/>
<path d="M47.3 41.3846C47.5 43.1846 48.4999 44.1846 49.6999 43.8846C50.7999 43.4846 51.5999 41.7846 51.4999 39.9846C51.2999 38.2846 50.3 37.1846 49.1 37.5846C48 37.9846 47.1 39.6846 47.3 41.3846Z" fill="#43A9DF"/>
<path d="M68.2001 34.4846C68.3001 36.1846 69.4001 37.2846 70.5001 36.8846C71.7001 36.4846 72.5002 34.7846 72.3002 33.0846C72.2002 31.2846 71.1001 30.2846 70.0001 30.5846C68.8001 30.9846 68.0001 32.6846 68.2001 34.4846Z" fill="#43A9DF"/>
<path opacity="0.8" d="M34.2 30.7846L39.3999 32.5846C40.5999 32.9846 41.4 33.9846 41.5 35.0846L42.5 47.0846C42.7 49.1846 40.4 50.6846 38.3 49.7846L31.7 46.8846C30.6 46.3846 29.8999 45.2846 29.8999 44.0846L30.3 33.2846C30.4 31.3846 32.3 30.0846 34.2 30.7846Z" fill="#9A2D91"/>
<path d="M70.6999 20.1846L64.8 18.1846C64.2 17.9846 63.4998 17.9846 62.8998 18.1846L35.6999 27.2846C35.0999 27.5846 35.1 28.3846 35.8 28.6846L41.1999 30.5846C42.0999 30.8846 43 30.8846 43.8 30.5846L70.6999 21.4846C71.3999 21.2846 71.3999 20.3846 70.6999 20.1846Z" fill="#E35FA2"/>
<path opacity="0.8" d="M60.7 19.9846C61.3 19.7846 62.0002 19.7846 62.6002 19.9846L63.4 20.2846C64.2 20.5846 64.2 21.5846 63.4 21.7846L46.0001 27.6846C45.2001 27.9846 44.3001 27.9846 43.5001 27.6846L42.9 27.4846C42.2 27.1846 42.2 26.1846 42.9 25.9846L60.7 19.9846Z" fill="#9A2D91"/>
<path d="M45.6 16.2846L55.3998 12.9846C55.8998 12.7846 57.2998 12.6846 58.3998 12.8846C59.3998 13.0846 60.1999 13.4846 60.4999 13.6846C61.5999 14.3846 62.2999 15.5846 62.4999 16.7846L62.8 20.9846L59.9999 21.8846L58.6 21.6846L58.3 16.8846C58.2 16.4846 57.9999 16.0846 57.6999 15.8846L47.8998 19.1846C47.2998 19.3846 47 19.8846 47.1 20.3846L47.6 26.3846L44.6999 27.3846L43.3998 27.1846L42.8998 20.3846C42.6998 18.5846 43.8 16.8846 45.6 16.2846Z" fill="#9A2D91"/>
<path d="M44.7 27.3846L47.6001 26.3846L47.1001 20.3846C47.0001 19.8846 47.2999 19.3846 47.8999 19.1846L57.7 15.8846C58.1 15.7846 58.6 15.7846 59 16.0846C59.3 16.2846 59.6001 16.6846 59.6001 17.0846L60 21.8846L62.8001 20.9846L62.5 16.7846C62.3 15.5846 61.6 14.3846 60.5 13.6846C59.4 12.9846 58 12.7846 56.7 13.1846L46.8999 16.4846C45.1999 17.0846 44 18.7846 44.2 20.5846L44.7 27.3846Z" fill="#43A9DF"/>
<path d="M60.7 24.7846L66.5 22.7846" stroke="#FEFEFE" stroke-width="1.4" stroke-linecap="round" stroke-linejoin="round"/>
<path d="M69.1001 21.8846L68.6001 21.9846" stroke="#FEFEFE" stroke-width="1.4" stroke-linecap="round" stroke-linejoin="round"/>
<path d="M68.6 18.0846L72.1 17.6846C72.4 17.6846 72.6999 17.7846 72.7999 18.0846L75.9999 24.3846C76.2666 24.2513 76.5999 24.1513 76.9999 24.0846C78.3999 23.8846 79.8998 24.5846 80.3998 25.6846C80.8998 26.6846 80.2998 27.6846 78.8998 27.7846C77.5998 27.9846 76.1 27.2846 75.6 26.1846L72.4999 19.9846C72.2999 19.7846 72.0999 19.5846 71.7999 19.5846L69.2999 19.7846C68.9999 19.7846 68.7998 19.6846 68.6998 19.4846L68.2999 18.5846C68.1999 18.3846 68.3 18.0846 68.6 18.0846Z" fill="url(#paint0_linear_150_4812)"/>
<path d="M68.3001 18.1846C68.3668 18.1846 68.4 18.2179 68.4 18.2846L68.8001 19.0846C68.9001 19.2846 69.1001 19.3846 69.3001 19.3846L71.9 19.2846C72.2 19.1846 72.4 19.3846 72.5 19.5846L75.7 25.8846C76.2 26.8846 77.7 27.5846 79 27.4846C79.8 27.3846 80.4001 26.9846 80.6001 26.4846C80.5001 27.1846 79.9 27.6846 78.9 27.7846C77.6 27.9846 76.1001 27.2846 75.6001 26.1846L72.5 19.9846C72.3 19.7846 72.1001 19.5846 71.8001 19.5846L69.3001 19.7846C69.0001 19.7846 68.8 19.6846 68.7 19.4846L68.3001 18.5846C68.2001 18.4846 68.2001 18.2846 68.3001 18.1846Z" fill="#1782B9"/>
<path d="M70.6001 18.2846L71.8999 18.1846C72.1999 18.1846 72.5001 18.2846 72.6001 18.4846" stroke="#FEFEFE" stroke-width="0.4" stroke-linecap="round" stroke-linejoin="round"/>
<path d="M69.3 18.4846L69.5 18.3846" stroke="#FEFEFE" stroke-width="0.4" stroke-linecap="round" stroke-linejoin="round"/>
<path d="M73.5 20.3846L75 23.3846" stroke="#FEFEFE" stroke-width="0.4" stroke-linecap="round" stroke-linejoin="round"/>
<path d="M73.1001 19.6846L73.2 19.8846" stroke="#FEFEFE" stroke-width="0.4" stroke-linecap="round" stroke-linejoin="round"/>
<path d="M78.5 24.6846C79.1 24.8846 79.6 25.2846 79.8 25.6846" stroke="#FEFEFE" stroke-width="0.4" stroke-linecap="round" stroke-linejoin="round"/>
<path d="M77.8 24.4846C77.8 24.4846 77.8332 24.4846 77.8999 24.4846" stroke="#FEFEFE" stroke-width="0.4" stroke-linecap="round" stroke-linejoin="round"/>
<path d="M67.0001 42.9846L63.7001 43.2846C63.4001 43.3846 63.2002 43.5846 63.1002 43.7846L61.4 50.2846C61.1333 50.1513 60.7668 50.1179 60.3002 50.1846C59.1002 50.2846 57.8001 51.2846 57.5001 52.2846C57.3001 53.3846 58.1002 54.1846 59.3002 54.0846C60.6002 53.8846 61.8002 52.9846 62.1002 51.8846L63.8002 45.4846C63.8002 45.2846 64.1002 45.0846 64.3002 44.9846L66.7001 44.6846C66.9001 44.6846 67.1002 44.4846 67.1002 44.2846L67.4 43.3846C67.4 43.0846 67.2001 42.8846 67.0001 42.9846Z" fill="url(#paint1_linear_150_4812)"/>
<path d="M67.2 42.9846C67.2 43.0513 67.2 43.0846 67.2 43.0846L67 43.9846C66.9 44.1846 66.8001 44.2846 66.6001 44.3846L64.2 44.6846C63.9 44.7846 63.7001 44.9846 63.6001 45.1846L62 51.5846C61.7 52.6846 60.4 53.5846 59.2 53.6846C58.4 53.7846 57.8 53.5846 57.5 53.0846C57.7 53.7846 58.4 54.0846 59.3 54.0846C60.6 53.8846 61.8001 52.9846 62.1001 51.8846L63.8 45.4846C63.8 45.2846 64.1 45.0846 64.3 44.9846L66.7 44.6846C66.9 44.6846 67.1001 44.4846 67.1001 44.2846L67.3999 43.3846C67.3999 43.1846 67.3 43.0846 67.2 42.9846Z" fill="#1782B9"/>
<path d="M65.2 43.5846L63.8999 43.6846C63.6999 43.7846 63.3999 43.9846 63.3999 44.1846" stroke="#FEFEFE" stroke-width="0.4" stroke-linecap="round" stroke-linejoin="round"/>
<path d="M66.3999 43.4846H66.2" stroke="#FEFEFE" stroke-width="0.4" stroke-linecap="round" stroke-linejoin="round"/>
<path d="M62.8999 46.0846L62.1001 49.1846" stroke="#FEFEFE" stroke-width="0.4" stroke-linecap="round" stroke-linejoin="round"/>
<path d="M63.1001 45.2846L63 45.4846" stroke="#FEFEFE" stroke-width="0.4" stroke-linecap="round" stroke-linejoin="round"/>
<path d="M59.1001 51.0846C58.6001 51.3846 58.2001 51.7846 58.1001 52.2846" stroke="#FEFEFE" stroke-width="0.4" stroke-linecap="round" stroke-linejoin="round"/>
<path d="M59.7 50.6846C59.7 50.7513 59.6668 50.7846 59.6001 50.7846" stroke="#FEFEFE" stroke-width="0.4" stroke-linecap="round" stroke-linejoin="round"/>
<mask id="mask1_150_4812" style="mask-type:luminance" maskUnits="userSpaceOnUse" x="58" y="0" width="13" height="15">
<path d="M58.7099 0.524601C58.6899 0.194601 59 -0.0654091 59.33 0.0145909C60.95 0.384591 65.09 1.51459 65.09 1.51459C65.38 1.59459 65.6198 1.86461 65.6498 2.15461L66.52 9.85462C66.8666 9.75462 67.2699 9.75462 67.7299 9.85462C69.1299 10.1946 70.38 11.4846 70.52 12.7446C70.66 14.0046 69.6399 14.7446 68.2399 14.4046C66.8399 14.0746 65.5899 12.7846 65.4499 11.5246L64.6 3.9946C64.57 3.7046 64.35 3.44462 64.06 3.35462L60.7499 2.35462C60.3399 2.23462 59.99 2.51459 60.03 2.92459L60.59 7.94461C60.89 7.85795 61.2334 7.85795 61.6201 7.94461C62.8001 8.23461 63.8499 9.32462 63.9699 10.3846C64.0899 11.4446 63.23 12.0746 62.05 11.7846C60.87 11.5046 59.8099 10.4146 59.6899 9.35462L58.7099 0.624607C58.7099 0.611273 58.7099 0.601275 58.7099 0.594608V0.524601Z" fill="white"/>
</mask>
<g mask="url(#mask1_150_4812)">
<path d="M70.1001 18.9846L72.6001 -0.315399L54.5 -5.51541L52.1001 13.8846L70.1001 18.9846Z" fill="url(#paint2_linear_150_4812)"/>
</g>
<path d="M63.3 1.58459L64.7 1.98459C65 1.98459 65.2 2.28459 65.3 2.58459" stroke="#FEFEFE" stroke-width="0.4" stroke-linecap="round" stroke-linejoin="round"/>
<path d="M62 1.1846L62.2 1.28461" stroke="#FEFEFE" stroke-width="0.4" stroke-linecap="round" stroke-linejoin="round"/>
<path d="M60.2 2.3846C60.3 2.1846 60.5999 1.98458 60.8999 2.08458L64.2 3.08458C64.5 3.18458 64.7 3.48459 64.8 3.78459L65.6001 11.1846C65.8001 12.3846 66.9999 13.6846 68.3999 14.0846C69.2999 14.2846 70.1 13.9846 70.5 13.4846C70.2 14.2846 69.4 14.6846 68.2 14.3846C66.8 14.0846 65.5999 12.7846 65.3999 11.4846L64.6001 3.98457C64.6001 3.68457 64.3001 3.4846 64.1001 3.3846L60.7 2.3846C60.5 2.31793 60.3333 2.31793 60.2 2.3846Z" fill="#3A82B6"/>
<path d="M58.8999 0.0845947C58.8999 0.151261 58.8999 0.25128 58.8999 0.384613L59.8999 9.08459C59.9999 10.0846 61 11.1846 62.2 11.4846C63 11.5846 63.5999 11.3846 63.8999 10.9846C63.6999 11.6846 63 11.9846 62 11.7846C60.9 11.4846 59.8 10.3846 59.7 9.38461L58.7 0.584595C58.7 0.384595 58.7999 0.184595 58.8999 0.0845947Z" fill="#3A82B6"/>
<path d="M65.5 4.78461L65.8999 8.38461" stroke="#FEFEFE" stroke-width="0.4" stroke-linecap="round" stroke-linejoin="round"/>
<path d="M65.3999 3.88461V4.08459" stroke="#FEFEFE" stroke-width="0.4" stroke-linecap="round" stroke-linejoin="round"/>
<path d="M69 11.0846C69.5 11.4846 69.8999 12.0846 69.8999 12.5846" stroke="#FEFEFE" stroke-width="0.4" stroke-linecap="round" stroke-linejoin="round"/>
<path d="M68.3 10.5846C68.3667 10.5846 68.3999 10.6179 68.3999 10.6846" stroke="#FEFEFE" stroke-width="0.4" stroke-linecap="round" stroke-linejoin="round"/>
<path d="M62.3999 8.78461C62.7999 9.08461 63.2 9.58459 63.2 10.0846" stroke="#FEFEFE" stroke-width="0.4" stroke-linecap="round" stroke-linejoin="round"/>
<path d="M61.7 8.38461C61.7 8.38461 61.7334 8.38461 61.8 8.38461" stroke="#FEFEFE" stroke-width="0.4" stroke-linecap="round" stroke-linejoin="round"/>
<path d="M59.6001 2.98459L59.8999 6.28461" stroke="#FEFEFE" stroke-width="0.4" stroke-linecap="round" stroke-linejoin="round"/>
<path d="M59.5 2.1846V2.38461" stroke="#FEFEFE" stroke-width="0.4" stroke-linecap="round" stroke-linejoin="round"/>
<defs>
<linearGradient id="paint0_linear_150_4812" x1="87.9997" y1="28.4846" x2="84.8997" y2="14.8846" gradientUnits="userSpaceOnUse">
<stop stop-color="#1B55A6"/>
<stop offset="0.3" stop-color="#4372B8"/>
<stop offset="0.8" stop-color="#4372B8"/>
<stop offset="1" stop-color="#6392CC"/>
</linearGradient>
<linearGradient id="paint1_linear_150_4812" x1="51.1002" y1="56.4846" x2="51.2002" y2="43.2846" gradientUnits="userSpaceOnUse">
<stop stop-color="#1B55A6"/>
<stop offset="0.3" stop-color="#4372B8"/>
<stop offset="0.8" stop-color="#4372B8"/>
<stop offset="1" stop-color="#6392CC"/>
</linearGradient>
<linearGradient id="paint2_linear_150_4812" x1="52.6001" y1="10.0846" x2="54.1001" y2="-1.81541" gradientUnits="userSpaceOnUse">
<stop stop-color="#3156A6"/>
<stop offset="0.3" stop-color="#4D70B6"/>
<stop offset="0.8" stop-color="#4D70B6"/>
<stop offset="1" stop-color="#7592CB"/>
</linearGradient>
</defs>
</svg>
