<svg width="90" height="79" viewBox="0 0 90 79" fill="none" xmlns="http://www.w3.org/2000/svg">
<path d="M4.69995 69.1071L8.3999 10.6071L86.2 16.1071L82.5 74.5071L4.69995 69.1071Z" fill="#62CAE5"/>
<path d="M0 73.0071L4.6001 69.1071L82.3999 74.5071L78.2 78.5071L0 73.0071Z" fill="#30A2BB"/>
<path d="M3.69995 15.1071L8.5 10.6071L4.69995 69.1071L0 73.0071L3.69995 15.1071Z" fill="#1976A1"/>
<path d="M72.8999 22.1072V21.3072C72.9666 21.0405 73 20.8072 73 20.6072C73.0667 20.4072 73.1667 20.1072 73.3 19.7072C73.4334 19.3072 73.6332 18.9738 73.8999 18.7072C74.1666 18.3738 74.5668 18.1071 75.1001 17.9071C75.5668 17.7071 76.1666 17.6405 76.8999 17.7072C78.2999 17.8072 79.3999 18.4072 79.8999 19.0072C80.0999 19.3405 80.2666 19.7072 80.3999 20.1072C80.5332 20.5738 80.6001 20.9072 80.6001 21.1072C80.6001 21.3738 80.5667 21.6405 80.5 21.9071C80.5 22.7738 80.1667 23.6071 79.5 24.4071C78.9 25.2071 78.2333 25.9405 77.5 26.6072L80.3 26.8072L80.1001 29.8072L72.6001 29.3072L72.8 26.6072C74.9 25.1072 76.2 23.9072 76.7 23.1072C76.9666 22.7072 77.1333 22.4405 77.2 22.3072C77.2666 22.1072 77.3 21.9072 77.3 21.7072C77.3 21.3072 77.4 21.1071 77.2 20.9071C77.0666 20.7738 76.9334 20.7072 76.8 20.7072C76.3 20.7072 76.2001 21.0072 76.1001 21.6072V22.4071L72.8999 22.1072Z" fill="#050505"/>
<path d="M74.3 20.9071V20.1072C74.3 19.8405 74.3332 19.6071 74.3999 19.4071C74.3999 19.2071 74.5 18.9071 74.7 18.5071C74.8333 18.1071 75.0334 17.7738 75.3 17.5071C75.5667 17.1738 75.9332 16.9072 76.3999 16.7072C76.9332 16.5072 77.5333 16.4405 78.2 16.5071C79.7 16.6071 80.8 17.2072 81.2 17.8072C81.4666 18.1405 81.6667 18.5071 81.8 18.9071C81.8667 19.3738 81.8999 19.7071 81.8999 19.9071C81.9666 20.1738 81.9666 20.4405 81.8999 20.7072C81.8332 21.5738 81.4999 22.4072 80.8999 23.2072C80.2999 24.0072 79.6 24.7405 78.8 25.4071L81.7 25.6072L81.5 28.6072L74 28.1072L74.2 25.4071C76.2 23.9071 77.6001 22.7071 78.1001 21.9071C78.3001 21.5071 78.4668 21.2405 78.6001 21.1072C78.6668 20.9072 78.7 20.7071 78.7 20.5071C78.7 20.1071 78.7001 19.9072 78.6001 19.7072C78.4668 19.5738 78.3001 19.5071 78.1001 19.5071C77.7001 19.5071 77.6 19.8071 77.5 20.4071V21.2072L74.3 20.9071Z" fill="#FEFEFE"/>
<path d="M16.8 28.0071C16.6 26.5071 15.7 19.4071 15.2 18.5071C16.4 18.6071 18.4 20.6071 19.5 20.5071C20.7 20.5071 21.9 20.2071 22.8 19.6071C23.1 19.3071 23.4 19.1071 23.8 19.0071C24.5 18.8071 25.2 19.2072 25.7 19.8072C26.1 20.4072 26.1999 21.2071 26.3999 21.9071C27.0666 24.9738 27.8667 28.0071 28.8 31.0071C28.8 31.1071 17.3999 31.9071 17.3999 31.9071C16.9999 31.0071 16.9 29.0071 16.8 28.0071Z" fill="#EC5F42"/>
<path d="M61.5 29.0071C61.6 27.4071 62.1 20.3072 62.5 19.3072C61.4 19.5072 59.5 21.6071 58.3 21.6071C57.2 21.6071 56 21.4072 55 20.8072C54.7 20.6072 54.4 20.4072 54 20.3072C53.3 20.2072 52.6 20.6072 52.2 21.3072C51.8 21.9072 51.7001 22.6072 51.6001 23.3072C51.1001 26.5072 49.8999 32.7071 49.8999 32.6071L61.1001 32.9071C61.5001 31.9071 61.4 30.0071 61.5 29.0071Z" fill="#EC5F42"/>
<path d="M33.7 7.50715C33.7667 7.50715 33.8333 7.50715 33.9 7.50715C33.7667 8.10715 33.5002 8.60715 33.1002 9.00715C32.5002 9.70715 31.3 10.0072 30.4 9.60716C29.3 9.10716 28.7002 7.80716 29.1002 6.60716C29.1669 6.40716 29.2335 6.20715 29.3001 6.00715C29.4001 5.80715 29.5 5.80714 29.7 5.90714C29.8334 5.90714 29.9334 5.94048 30.0001 6.00715C30.2001 6.10715 30.2002 6.30715 30.1002 6.50715C30.0002 6.80715 29.9 7.00717 29.9 7.30717C29.9 8.00717 30.3 8.50716 30.9 8.70716C31.4 8.90716 32.1001 8.80717 32.5001 8.30717C32.7001 8.10717 32.8 7.90716 32.9 7.60716C32.9 7.50716 33.0002 7.50715 33.1002 7.50715C33.3002 7.64048 33.5 7.64048 33.7 7.50715Z" fill="#7358A4"/>
<path fill-rule="evenodd" clip-rule="evenodd" d="M50.8001 26.2072C51.0001 25.0072 51.2 23.8072 51.4 22.6072C51.4667 22.2072 51.5667 21.8405 51.7 21.5071C51.7 21.4071 51.7001 21.3072 51.5001 21.2072C51.1001 21.0072 50.7001 20.7071 50.5001 20.4071C50.2334 20.1405 50.1002 19.8405 50.1002 19.5071C50.1002 19.3738 50.0333 19.3405 49.9 19.4071C49.4333 19.6071 48.9333 19.7405 48.4 19.8072C47.8 19.8072 47.2334 19.6738 46.7 19.4071C46.5667 19.2738 46.4335 19.2405 46.3001 19.3072C46.0335 19.3072 45.7333 19.3072 45.4 19.3072C45.2667 19.3738 45.1669 19.4071 45.1002 19.4071C45.0335 19.5405 44.9335 19.6405 44.8001 19.7072C44.4001 19.9072 44.0002 20.0405 43.6002 20.1072C43.2002 20.0405 42.8 19.9405 42.4 19.8072C42.4 19.8072 42.4 19.7738 42.4 19.7072C42.2 19.5738 41.9667 19.4072 41.7 19.2072C41.6334 19.1405 41.5668 19.1072 41.5001 19.1072C41.3001 19.0072 41.0001 19.0071 40.8001 19.0071C40.6001 18.9405 40.4667 18.7738 40.4 18.5071C40.3 18.1071 40.6001 17.7072 41.0001 17.6072C41.1334 17.6072 41.2 17.5738 41.2 17.5071C41.2 17.4405 41.2 17.3738 41.2 17.3072C41.1334 17.3072 41.0668 17.3072 41.0001 17.3072C40.6668 17.2405 40.4667 17.0405 40.4 16.7072C40.4 16.4072 40.5001 16.1071 40.8001 16.0071C41.0001 15.9071 41.2 15.9071 41.4 16.0071C41.7333 16.1405 42.0335 16.0738 42.3001 15.8072C42.3001 15.7405 42.3001 15.7072 42.3001 15.7072C42.4335 15.6405 42.6001 15.6072 42.8001 15.6072C43.1001 15.5072 43.5001 15.5071 43.8001 15.5071C44.2668 15.6405 44.6668 15.8738 45.0001 16.2072C45.1001 16.2072 45.2001 16.3072 45.3001 16.3072C45.6335 16.3072 45.9334 16.2738 46.2 16.2072C46.3334 16.2072 46.4334 16.1738 46.5001 16.1072C47.2334 15.3738 48.1334 15.0738 49.2 15.2072C49.4 15.2072 49.6333 15.2405 49.9 15.3072C50.0333 15.3738 50.2 15.4738 50.4 15.6072C50.4667 15.0072 50.5001 14.4405 50.5001 13.9071C50.6001 13.5071 50.8002 13.1072 51.1002 12.8072C51.4335 12.6072 51.8 12.5071 52.2 12.5071C52.5 12.5071 52.5001 12.5072 52.5001 12.2072C52.4001 11.1072 52.5 9.90716 52.7 8.70716C52.7667 8.17382 52.8333 7.67382 52.9 7.20716C52.9 7.14049 52.8668 7.07381 52.8001 7.00714C52.5001 6.60714 52.6002 6.10716 52.6002 5.70716C52.6669 5.37382 52.7335 5.07383 52.8001 4.80716C52.8001 4.5405 52.8333 4.27381 52.9 4.00714C52.9667 3.74048 53.0001 3.47382 53.0001 3.20716C53.0668 2.60716 53.4001 2.20714 54.0001 2.00714C54.6001 1.80714 55.1335 1.90716 55.6002 2.30716C55.7002 2.50716 55.8001 2.60716 56.0001 2.80716C56.0001 2.20716 56.2 1.80714 56.7 1.50714C56.7667 1.50714 56.8333 1.47381 56.9 1.40714C56.9 1.40714 56.9334 1.40714 57.0001 1.40714C57.2001 1.40714 57.4002 1.37383 57.6002 1.30716C57.6002 1.30716 57.6334 1.30716 57.7 1.30716C57.9 1.37383 58.1001 1.44048 58.3001 1.50714C58.3668 1.50714 58.4 1.50714 58.4 1.50714C58.4 1.50714 58.4334 1.50714 58.5001 1.50714C58.5001 1.57381 58.5001 1.60715 58.5001 1.60715H58.6002C58.6002 1.60715 58.6334 1.64049 58.7 1.70716C58.7 1.70716 58.7335 1.70716 58.8001 1.70716V1.80716C58.9335 2.00716 59.0667 2.17383 59.2 2.30716C59.3334 2.10716 59.4334 1.90716 59.5001 1.70716C59.5668 1.70716 59.6002 1.67382 59.6002 1.60715C59.6002 1.60715 59.6334 1.60715 59.7 1.60715C59.7 1.54048 59.7 1.50714 59.7 1.50714C59.8334 1.44048 59.9334 1.40714 60.0001 1.40714V1.30716C60.2001 1.30716 60.4002 1.27382 60.6002 1.20716C61.0002 1.10716 61.3002 1.30714 61.6002 1.40714C61.6002 1.40714 61.6334 1.44048 61.7 1.50714C61.9 1.70714 62.1001 1.94049 62.3001 2.20716C62.7001 1.70716 62.8 1.60714 63.2 1.50714C63.7334 1.37381 64.2334 1.50714 64.7 1.90714C64.8334 2.04047 64.9334 2.17383 65.0001 2.30716C65.2001 2.60716 65.2002 3.00714 65.1002 3.40714C65.0335 3.94047 64.9667 4.47381 64.9 5.00714C64.8333 5.20714 64.8001 5.44049 64.8001 5.70716C64.8001 5.77382 64.8001 5.80716 64.8001 5.80716C64.8001 5.87383 64.8001 5.90714 64.8001 5.90714C64.8001 5.90714 64.8001 5.94048 64.8001 6.00714C64.8001 6.00714 64.8333 6.04048 64.9 6.10715C64.9 6.10715 64.9 6.14049 64.9 6.20716C65.3 6.70716 65.4001 7.20716 65.3001 7.80716C65.2335 8.00716 65.1669 8.20714 65.1002 8.40714C64.7669 8.87381 64.4667 9.37381 64.2 9.90714C64.0667 10.1071 63.9667 10.3071 63.9 10.5071C63.7667 11.3738 63.6 12.2738 63.4 13.2072C63.4 13.3072 63.4001 13.4071 63.5001 13.4071C64.3001 13.8071 64.7002 14.5071 64.6002 15.4071C64.4669 16.8738 64.3334 18.3738 64.2 19.9071C64.2 20.0405 64.2 20.1738 64.2 20.3072C64.2 20.9072 63.9 21.3072 63.4 21.6072C63 21.8738 62.6 22.0738 62.2 22.2072C62 22.2072 62.0001 22.3071 62.0001 22.4071C62.0001 22.5405 62.0001 22.6738 62.0001 22.8072C62.0001 22.9405 62.0001 23.0738 62.0001 23.2072C61.9334 23.5405 61.9 23.8405 61.9 24.1072C61.9 24.1738 61.9 24.2072 61.9 24.2072C61.9 24.6072 61.9 25.0071 61.9 25.4071C61.8333 25.8071 61.8001 26.2405 61.8001 26.7072C61.7335 27.4405 61.7 28.1405 61.7 28.8072C61.6334 29.4072 61.6002 30.0072 61.6002 30.6072C61.5335 31.2738 61.4667 31.9738 61.4 32.7072C61.3333 32.7072 61.2335 32.7072 61.1002 32.7072C61.1669 32.1072 61.2 31.5071 61.2 30.9071C61.3334 28.1071 61.4669 25.3071 61.6002 22.5071C61.6002 22.4405 61.6002 22.3738 61.6002 22.3072C61.5335 22.3072 61.5001 22.3072 61.5001 22.3072C59.9001 22.6072 58.4001 22.6071 56.8001 22.5071C55.5001 22.4071 54.1001 22.1072 52.8001 21.7072C52.6001 21.6405 52.4 21.5738 52.2 21.5071C52.0667 21.4405 52.0001 21.4738 52.0001 21.6072C51.8668 22.4072 51.7001 23.2405 51.5001 24.1072C51.1668 25.9738 50.8334 27.8738 50.5001 29.8072C50.3668 30.6738 50.2667 31.5405 50.2 32.4071C50.2 32.4071 50.2 32.4405 50.2 32.5071C50.0667 32.5071 49.9335 32.5071 49.8001 32.5071C49.8001 32.5071 49.8001 32.4738 49.8001 32.4071C50.1335 30.6071 50.4334 28.7738 50.7 26.9071M47.9 25.6072C47.8333 25.8072 47.8001 25.9738 47.8001 26.1072C47.9001 26.4072 47.7001 26.7072 47.5001 26.8072C47.2001 27.0072 46.9002 27.1071 46.6002 26.9071C46.6002 26.8405 46.6002 26.8072 46.6002 26.8072H46.5001C46.5001 26.7405 46.5001 26.7072 46.5001 26.7072C46.5001 26.7072 46.4667 26.7072 46.4 26.7072C46.4 26.6405 46.4 26.5738 46.4 26.5071C46.3 26.0071 46.3 25.6072 46.4 25.1072C46.6 24.7072 46.8002 24.2071 47.1002 23.9071C47.5669 23.4405 48.1335 23.2072 48.8001 23.2072C49.4001 23.2072 49.9333 23.3738 50.4 23.7072C50.8 24.0072 50.8001 24.5071 50.5001 24.9071C50.2001 25.2071 49.7 25.2071 49.4 24.9071C49.1 24.6071 48.3001 24.6072 48.0001 25.2072L47.9 25.6072ZM64.9 8.00714C65.2 7.40715 65 6.40715 64.4 6.00714C63.0667 5.20714 61.7333 4.40715 60.4 3.60715C60.2667 3.54048 60.1334 3.47381 60.0001 3.40714C59.3001 3.30714 58.7001 3.80714 58.5001 4.40714C58.2001 5.10714 58.4001 5.60714 59.0001 6.00714C59.8668 6.60714 60.7001 7.17382 61.5001 7.70716C61.6001 7.80716 61.7002 7.90715 61.6002 8.00714C61.6002 8.10714 61.4001 8.10715 61.3001 8.10715C60.6001 7.90715 60.0001 7.90715 59.3001 8.10715C58.3668 8.24048 57.4669 8.50714 56.6002 8.90714C56.5002 9.00714 56.4001 9.00714 56.3001 8.90714C56.3001 8.80714 56.3 8.70715 56.4 8.60715C57.3 8.20715 58.2002 7.90716 59.1002 7.70716C59.3669 7.70716 59.6001 7.67382 59.8001 7.60715C59.3335 7.40715 59.0001 7.10716 58.8001 6.70716C58.5001 7.50716 58.2001 7.80714 57.5001 7.90714C56.6334 8.04047 56.0002 7.70714 55.6002 6.90714C54.9002 7.70714 54.4001 7.80716 53.3001 7.30716C53.3001 7.4405 53.2667 7.50714 53.2 7.50714C53.1334 8.30715 53.0333 9.07383 52.9 9.80716C52.7667 10.9405 52.8001 12.1072 53.0001 13.3072C53.0668 13.7072 53.2669 14.0072 53.6002 14.2072C53.6002 14.2738 53.6002 14.3072 53.6002 14.3072C54.6002 15.0072 55.8001 15.3071 57.0001 15.4071C57.7334 15.4738 58.5001 15.5071 59.3001 15.5071C60.1668 15.5071 61.0001 15.3405 61.8001 15.0071C62.4001 14.8071 62.8 14.4072 62.9 13.8072C63.2333 12.6738 63.5 11.5072 63.7 10.3072C63.7 10.1072 63.7667 9.9405 63.9 9.80716C64.2333 9.20716 64.5667 8.60714 64.9 8.00714ZM64.9 3.10715C65 2.40715 64.4 1.80716 63.7 1.80716C63.1 1.80716 62.6001 2.10716 62.5001 2.70716C62.4334 3.17382 62.3668 3.67382 62.3001 4.20716C62.3001 4.30716 62.4 4.40714 62.4 4.40714C63.0667 4.80714 63.7001 5.20715 64.3001 5.60715C64.4001 5.70715 64.5001 5.60714 64.5001 5.50714C64.6001 4.70714 64.7 3.90715 64.9 3.10715ZM63.7 16.1072C64.2334 15.7738 64.4335 15.3405 64.3001 14.8072C64.2001 14.3072 63.9001 14.0072 63.5001 13.8072C63.4001 14.0072 63.3002 14.2071 63.1002 14.4071C62.8002 14.9071 62.3 15.2071 61.7 15.4071C60.9 15.7071 60.0002 15.9071 59.1002 15.9071C58.2335 15.9071 57.3668 15.8405 56.5001 15.7072C55.8334 15.5738 55.2002 15.4072 54.6002 15.2072C54.4669 15.1405 54.3668 15.1405 54.3001 15.2072C54.1668 15.4072 54.0333 15.5738 53.9 15.7072C53.8333 15.8405 53.7335 16.0072 53.6002 16.2072C53.6669 16.2738 53.7335 16.3072 53.8001 16.3072C54.5001 16.4072 55.3001 16.6072 56.0001 16.7072C56.6001 16.8072 57.3 16.9071 57.9 16.9071C59.3 17.0071 60.7002 17.0072 62.1002 16.7072C62.7002 16.6072 63.3 16.4072 63.7 16.1072ZM64.2 17.0071C64.2 16.7405 64.2 16.4738 64.2 16.2072C64.1334 16.2072 64.1002 16.2405 64.1002 16.3072C63.8002 16.4072 63.5 16.6072 63.2 16.7072C62.2 17.1072 61.2002 17.3072 60.1002 17.3072C57.9002 17.4072 55.7002 17.2072 53.6002 16.6072C53.5335 16.6072 53.4667 16.6072 53.4 16.6072C53.4 16.9405 53.4 17.2405 53.4 17.5071C53.3333 17.6405 53.3668 17.7405 53.5001 17.8072C53.7668 17.8738 54.0335 17.9738 54.3001 18.1072C54.4001 18.1072 54.5001 18.2072 54.5001 18.3072C54.4334 18.4405 54.3334 18.4738 54.2 18.4071C53.9334 18.3405 53.6335 18.2405 53.3001 18.1072C53.3001 18.1072 53.3001 18.1405 53.3001 18.2072C53.3001 18.6072 53.2667 19.0405 53.2 19.5071L53.3001 19.6072C53.5668 19.7405 53.8667 19.8405 54.2 19.9071C54.3 20.0071 54.4001 20.0072 54.3001 20.2072C54.3001 20.3072 54.2001 20.3072 54.0001 20.3072C53.8001 20.1738 53.5668 20.0738 53.3001 20.0071C53.2335 19.9405 53.2 19.9738 53.2 20.1072C53.1334 20.5072 53.1002 20.8738 53.1002 21.2072C53.1002 21.3072 53.1001 21.4071 53.3001 21.5071C54.5001 21.8405 55.7669 22.0405 57.1002 22.1072C58.7002 22.2072 60.3 22.3071 61.9 21.9071C62.4 21.7071 63 21.6072 63.4 21.2072C63.7333 21.0072 63.9 20.7072 63.9 20.3072C63.9667 19.2405 64.0667 18.1405 64.2 17.0071ZM62.0001 2.90714C62.0668 2.24047 61.8 1.80715 61.2 1.60715C60.6 1.30715 59.8 1.60716 59.7 2.20716C59.6 2.50716 59.6001 2.80715 59.5001 3.10715C59.5668 3.10715 59.6334 3.10715 59.7 3.10715C59.9 3.10715 60.0002 3.10715 60.1002 3.10715C60.4335 3.24048 60.7334 3.37381 61.0001 3.50714C61.2668 3.70714 61.5335 3.87381 61.8001 4.00714C61.8668 3.60714 61.9334 3.24047 62.0001 2.90714ZM59.2 6.60715C59.3 6.90715 59.7 7.30716 60.2 7.30716C59.8667 7.0405 59.5334 6.80715 59.2 6.60715ZM58.9 3.30716C59 2.90716 59.0001 2.60716 58.8001 2.20716C58.5001 1.80716 57.9 1.60716 57.4 1.70716C56.8 1.80716 56.5 2.10714 56.4 2.50714C56.2 3.77381 56.0333 5.00716 55.9 6.20716C55.8 6.70716 56 7.10714 56.4 7.40714C56.6667 7.54047 56.9334 7.60715 57.2 7.60715C57.8 7.60715 58.2 7.30714 58.4 6.90714C58.4 6.70714 58.5001 6.40716 58.5001 6.20716C58.5001 6.10716 58.5 6.10714 58.4 6.00714C58.3 5.80715 58.2002 5.70714 58.1002 5.50714C57.8002 4.80714 58.1001 4.00714 58.8001 3.40714L58.9 3.30716ZM55.7 4.00714C55.7 3.80714 55.8001 3.50716 55.8001 3.30716C55.8001 2.80716 55.3 2.30716 54.7 2.30716C54 2.20716 53.5 2.60716 53.4 3.20716C53.2667 4.14049 53.1334 5.04047 53.0001 5.90714C52.9001 6.70714 53.4 7.20716 54.2 7.30716C54.9 7.30716 55.3 6.80716 55.4 6.20716C55.5 5.50716 55.6 4.70714 55.7 4.00714ZM54.0001 15.1072C54.0001 15.0405 54.0001 14.9738 54.0001 14.9071C53.8001 14.8405 53.6 14.7405 53.4 14.6072C52.9 14.2072 52.4001 13.7071 52.3001 12.9071C52.3001 12.8405 52.2667 12.8072 52.2 12.8072C51.8 12.8072 51.5001 12.9072 51.3001 13.2072C50.9001 13.7072 50.7001 14.4071 51.3001 15.0071C51.7001 15.5071 52.2001 15.7071 52.8001 15.9071C53.3001 16.1071 53.2001 16.2072 53.5001 15.7072C53.6334 15.5072 53.8001 15.3072 54.0001 15.1072ZM53.1002 16.6072C53.1002 16.5072 53.1 16.4072 52.9 16.3072C52.2 16.1072 51.4 15.7072 50.9 15.1072C50.9 15.1072 50.8668 15.1072 50.8001 15.1072C50.8001 15.3072 50.8001 15.4738 50.8001 15.6072C50.7335 16.8072 50.6334 18.0072 50.5001 19.2072C50.4334 19.6072 50.5667 19.9405 50.9 20.2072C51.3 20.7072 51.9002 21.0072 52.6002 21.2072C52.6669 21.2738 52.7 21.2405 52.7 21.1072C52.7667 20.7072 52.8001 20.3405 52.8001 20.0071C52.8001 19.8738 52.7667 19.8072 52.7 19.8072C52.5 19.7405 52.3334 19.6738 52.2 19.6072C52.0667 19.6072 51.9335 19.5738 51.8001 19.5071C51.8001 19.4071 51.8001 19.4072 51.8001 19.3072L51.9 19.2072C51.9667 19.2072 52.0335 19.2072 52.1002 19.2072C52.3669 19.2738 52.6001 19.3738 52.8001 19.5071C52.8668 19.4405 52.9 19.4071 52.9 19.4071C52.9 18.9405 52.9334 18.5072 53.0001 18.1072C53.0001 18.0072 52.9001 18.0071 52.8001 17.9071C52.6001 17.8405 52.3669 17.7738 52.1002 17.7072C52.0002 17.6072 51.9 17.6071 51.9 17.4071C52 17.3071 52.1 17.3072 52.2 17.3072C52.4 17.3738 52.6001 17.4405 52.8001 17.5071C53.0001 17.6071 53.0001 17.6071 53.0001 17.4071C53.0001 17.1405 53.0335 16.8738 53.1002 16.6072ZM50.5001 24.3072C50.5001 24.0072 50.3001 23.8072 50.0001 23.8072C49.7001 23.8072 49.5001 24.0072 49.5001 24.3072C49.5001 24.6072 49.7001 24.8072 50.0001 24.8072C50.3001 24.8072 50.5001 24.6072 50.5001 24.3072ZM50.4 16.2072C50.4 16.0072 50.3 15.9072 50.2 15.8072C49.6 15.4738 48.9668 15.3738 48.3001 15.5071C47.5001 15.7071 46.9 16.1072 46.4 16.8072C46.2 17.0738 46.1002 17.3738 46.1002 17.7072C46.1002 17.8072 46.1001 17.9071 46.3001 17.9071C46.5001 17.8405 46.7 17.7738 46.9 17.7072C47 17.7072 47.0001 17.6071 47.0001 17.5071C47.1001 17.3071 47.1001 17.1071 47.3001 16.9071C47.7001 16.3071 48.5 16.0072 49.2 16.2072C49.4667 16.2738 49.7 16.4072 49.9 16.6072C50.3 17.1072 50.2 17.8072 49.7 18.2072C49.2334 18.6738 48.7002 18.8405 48.1002 18.7072C48.0335 18.7072 47.9667 18.7072 47.9 18.7072C47.6333 18.8405 47.3669 18.9738 47.1002 19.1072C47.1669 19.1738 47.2335 19.2072 47.3001 19.2072C48.3001 19.6072 49.2002 19.4071 50.1002 18.9071C50.1002 18.8071 50.2 18.7072 50.2 18.6072C50.2667 17.8072 50.3333 17.0072 50.4 16.2072ZM49.6002 17.9071C49.8002 17.6071 49.9001 17.4072 49.8001 17.1072C49.6001 16.5072 48.6002 16.3072 48.1002 16.7072C48.7669 17.1738 48.8335 17.7072 48.3001 18.3072C48.3668 18.3738 48.4 18.4071 48.4 18.4071C48.9 18.4071 49.3002 18.2071 49.6002 17.9071ZM49.7 23.6072C49.6334 23.6072 49.6002 23.5738 49.6002 23.5071C49.4002 23.5071 49.2001 23.5071 49.0001 23.4071C48.1001 23.4071 47.2 24.0071 46.9 24.9071C46.7 25.3738 46.6334 25.8405 46.7 26.3072C46.7667 26.7072 46.9668 26.8072 47.3001 26.6072C47.5668 26.5405 47.6669 26.3738 47.6002 26.1072C47.5002 25.2072 48.1002 24.3071 49.1002 24.4071L49.2 24.3072C49.2 23.9738 49.3667 23.7405 49.7 23.6072ZM48.1002 18.0071C48.4002 17.6071 48.3001 17.2071 47.8001 16.9071H47.7C47.6 17.1071 47.4 17.3071 47.4 17.5071C47.4 17.8071 47.3001 18.0071 47.0001 18.0071C46.3334 18.2738 45.6333 18.3405 44.9 18.2072C44.6 18.2072 44.5 18.0072 44.4 17.7072C44.4 17.5072 44.3334 17.3405 44.2 17.2072C44.2 17.0738 44.1334 17.0738 44.0001 17.2072C43.6001 17.6072 43.7 18.2071 44.2 18.5071C44.6 18.8071 45.1002 19.0071 45.6002 19.0071C46.0002 18.9071 46.4001 18.9072 46.8001 18.8072C47.3001 18.7072 47.8002 18.5071 48.1002 18.0071ZM46.1002 16.6072C45.9002 16.6072 45.7001 16.6072 45.5001 16.6072C45.6001 16.8072 45.7001 17.0072 45.8001 17.3072C45.9001 17.0072 46.0002 16.8072 46.1002 16.6072ZM45.5001 17.7072C45.5001 17.5738 45.4667 17.4405 45.4 17.3072C45.1 16.1072 43.8002 15.5071 42.6002 16.0071C42.0002 16.2738 41.6669 16.7738 41.6002 17.5071C41.5335 17.5738 41.5667 17.6072 41.7 17.6072C41.8334 17.6072 41.9669 17.6072 42.1002 17.6072C42.2335 17.6072 42.3001 17.5405 42.3001 17.4071C42.3668 17.1405 42.5 16.9072 42.7 16.7072C43.5 16.2072 44.6 16.6072 44.7 17.6072C44.7 17.8072 44.8001 17.9071 45.0001 17.9071C45.0668 17.9071 45.1334 17.9071 45.2 17.9071C45.5 18.0071 45.5001 18.0072 45.5001 17.7072ZM44.8001 19.2072C44.6001 19.1405 44.3669 19.0405 44.1002 18.9071C44.1002 18.9071 44.0668 18.9405 44.0001 19.0071C43.6668 19.1405 43.3334 19.1071 43.0001 18.9071C42.9334 18.8405 42.8668 18.8072 42.8001 18.8072C42.6001 18.8738 42.4 18.9405 42.2 19.0071C42.6 19.7071 44.1001 20.0072 44.8001 19.2072ZM43.5001 17.4071C43.6334 17.2738 43.7667 17.1071 43.9 16.9071C43.7 16.8405 43.4667 16.8072 43.2 16.8072C43.3 17.0072 43.4001 17.2071 43.5001 17.4071ZM43.2 18.6072C43.4 18.7072 43.6001 18.8072 43.8001 18.6072C43.6668 18.4072 43.5668 18.2405 43.5001 18.1072C43.3668 18.2405 43.2667 18.4072 43.2 18.6072ZM42.8001 18.4071C43.3001 18.1071 43.4001 17.5072 43.0001 17.1072C42.9334 17.0405 42.8668 17.0405 42.8001 17.1072C42.7335 17.2405 42.6669 17.3738 42.6002 17.5071C42.5002 17.8071 42.4002 18.0071 42.1002 18.0071C41.9002 18.0071 41.7001 18.0071 41.5001 18.0071C41.3668 18.0071 41.2335 18.0071 41.1002 18.0071C40.9002 18.0071 40.8001 18.1072 40.8001 18.3072C40.7335 18.5072 40.8001 18.6072 41.0001 18.6072C41.2001 18.6738 41.3668 18.7072 41.5001 18.7072C42.0001 18.7072 42.5001 18.7071 42.8001 18.4071ZM41.3001 16.9071C41.5001 16.7071 41.5002 16.5072 41.6002 16.3072C41.4669 16.3072 41.3334 16.3072 41.2 16.3072C40.9 16.2072 40.8001 16.4072 40.8001 16.7072C40.9001 16.8072 41.0002 16.9071 41.1002 16.9071H41.3001Z" fill="#261A0E"/>
<path d="M64.3 6.10714C64.9 6.40714 65.2 7.40714 64.8 8.10714C64.4666 8.64048 64.1333 9.20715 63.8 9.80715C63.7333 9.94049 63.6667 10.1072 63.6 10.3072C63.4 11.5072 63.1665 12.6738 62.8998 13.8072C62.6998 14.4072 62.3 14.8071 61.8 15.0071C61 15.3405 60.1332 15.5071 59.1999 15.5071C58.4665 15.5738 57.6998 15.5405 56.8998 15.4071C55.6998 15.3071 54.6 15.0072 53.6 14.3072C53.5333 14.3072 53.4999 14.3072 53.4999 14.3072C53.1666 14.0405 52.9665 13.7072 52.8998 13.3072C52.7665 12.1072 52.7665 10.9405 52.8998 9.80715C52.9665 9.07382 53.0665 8.34048 53.1999 7.60714C53.1999 7.54048 53.1999 7.4738 53.1999 7.40713C54.2999 7.80713 54.7999 7.70713 55.4999 6.90713C55.8999 7.70713 56.5666 8.04046 57.4999 7.90713C58.1999 7.80713 58.4999 7.50715 58.6999 6.70715C58.9665 7.17381 59.2999 7.47381 59.6999 7.60714C59.6999 7.60714 59.6999 7.64048 59.6999 7.70715C59.4999 7.70715 59.3 7.70715 59.1 7.70715C58.1 7.90715 57.1998 8.20714 56.3998 8.60714C56.2998 8.70714 56.2 8.80713 56.3 8.90713C56.3 9.00713 56.4 9.00713 56.6 8.90713C57.4 8.50713 58.2665 8.24048 59.1999 8.10714C59.8999 8.00714 60.6 8.00714 61.3 8.10714C61.4 8.10714 61.5 8.10714 61.6 8.00714C61.6 7.90714 61.4998 7.80715 61.3998 7.70715C60.5998 7.17381 59.7999 6.64048 58.9999 6.10714C58.3999 5.70714 58.1998 5.10713 58.3998 4.40713C58.5998 3.80713 59.2998 3.40714 59.8998 3.50714C60.0998 3.50714 60.2333 3.54048 60.3 3.60714C61.6333 4.40714 62.9666 5.24048 64.3 6.10714Z" fill="#EC5F42"/>
<path d="M63.6001 1.80716C64.3001 1.80716 64.9 2.40715 64.8 3.10715C64.7 3.90715 64.5999 4.70714 64.3999 5.50714C64.3999 5.70714 64.4 5.70715 64.2 5.60715C63.6 5.20715 62.9999 4.80714 62.3999 4.40714C62.2999 4.40714 62.3 4.30715 62.3 4.20715C62.3 3.74049 62.3667 3.24049 62.5 2.70715C62.6 2.10715 63.0001 1.80716 63.6001 1.80716Z" fill="#EC5F42"/>
<path d="M64.2 14.8072C64.3333 15.3405 64.1666 15.7738 63.7 16.1071C63.2 16.4071 62.6001 16.6072 62.1001 16.7072C60.7001 17.0072 59.3 17.0071 57.8 17.0071C57.2 16.9071 56.5999 16.9072 55.8999 16.8072C55.1999 16.6072 54.5 16.5072 53.8 16.3072C53.7334 16.3072 53.6333 16.2738 53.5 16.2072C53.6333 16.0738 53.7666 15.9405 53.8999 15.8072C53.9666 15.6072 54.0666 15.4405 54.2 15.3072C54.2666 15.1738 54.3667 15.1405 54.5 15.2072C55.1667 15.4738 55.8333 15.6405 56.5 15.7072C57.3667 15.9072 58.2334 15.9738 59.1001 15.9071C59.9001 15.9071 60.8001 15.8071 61.6001 15.5071C62.2001 15.2071 62.7001 15.0071 63.1001 14.5071C63.2001 14.3071 63.3 14.0072 63.5 13.8072C63.8 14.0072 64.1 14.3072 64.2 14.8072Z" fill="#7358A4"/>
<path d="M64.2 16.2072C64.1333 16.5405 64.1001 16.8405 64.1001 17.1071C64.0334 18.1738 63.9666 19.2738 63.8999 20.4071C63.8332 20.7405 63.6666 21.0072 63.3999 21.2072C62.8999 21.6072 62.4 21.8071 61.8 21.9071C60.3 22.3071 58.7 22.3072 57 22.2072C55.7333 22.0738 54.4666 21.8405 53.2 21.5071C53.1 21.4071 53 21.4072 53 21.2072C53.0667 20.8738 53.1001 20.5405 53.1001 20.2072C53.1001 20.0738 53.1667 20.0071 53.3 20.0071C53.5 20.1405 53.7333 20.2405 54 20.3072C54.1 20.3072 54.2 20.3072 54.3 20.2072C54.3 20.1072 54.2001 20.0071 54.1001 19.9071C53.8334 19.8405 53.5667 19.7738 53.3 19.7072C53.2 19.6072 53.2 19.5071 53.2 19.5071C53.2 19.0405 53.2334 18.6072 53.3 18.2072C53.3 18.2072 53.3 18.1738 53.3 18.1071C53.5667 18.2405 53.8666 18.3405 54.2 18.4071C54.3333 18.4738 54.3999 18.4405 54.3999 18.3072C54.4999 18.2072 54.4 18.1071 54.3 18.1071C54.0334 17.9738 53.7667 17.8738 53.5 17.8072C53.3667 17.8072 53.3 17.7071 53.3 17.5071C53.3667 17.2405 53.3999 16.9405 53.3999 16.6071C53.4666 16.6071 53.5334 16.6071 53.6001 16.6071C55.7001 17.2071 57.9 17.4072 60 17.3072C61.1 17.3072 62.2 17.2072 63.2 16.7072C63.5 16.6072 63.7 16.4072 64 16.3072C64.0667 16.3072 64.1333 16.2738 64.2 16.2072Z" fill="#7358A4"/>
<path d="M61.2 1.60714C61.8 1.87381 62.0332 2.30713 61.8999 2.90713C61.8999 3.30713 61.8667 3.70714 61.8 4.10714C61.4667 3.90714 61.1666 3.74048 60.8999 3.60714C60.6332 3.40714 60.3668 3.24048 60.1001 3.10714C60.0001 3.10714 59.8 3.10714 59.7 3.10714C59.6333 3.10714 59.5667 3.10714 59.5 3.10714C59.5 2.80714 59.5001 2.50716 59.6001 2.30716C59.8001 1.70716 60.5 1.40714 61.2 1.60714Z" fill="#EC5F42"/>
<path d="M58.7001 2.20715C59.0001 2.60715 58.9 2.90716 58.9 3.30716C58.8 3.40716 58.8001 3.40714 58.7001 3.50714C58.0001 4.00714 57.8002 4.80715 58.1002 5.60715C58.2002 5.70715 58.3 5.90714 58.4 6.00714C58.4 6.10714 58.4 6.10715 58.4 6.20715C58.4 6.40715 58.4002 6.70714 58.3002 6.90714C58.2002 7.40714 57.7002 7.60715 57.1002 7.60715C56.8335 7.60715 56.6 7.54047 56.4 7.40714C55.9 7.10714 55.7002 6.80716 55.8002 6.30716C56.0002 5.04049 56.2 3.80715 56.4 2.60715C56.4 2.10715 56.8002 1.80715 57.3002 1.70715C57.8002 1.60715 58.5001 1.80715 58.7001 2.20715Z" fill="#EC5F42"/>
<path d="M55.7 3.30715C55.7 3.60715 55.7 3.80714 55.7 4.00714C55.6 4.80714 55.4001 5.50715 55.3001 6.20715C55.3001 6.80715 54.8001 7.30715 54.1001 7.30715C53.4001 7.30715 52.9 6.70713 53 5.90713C53.1334 5.04046 53.2334 4.14048 53.3001 3.20715C53.4001 2.60715 54.0001 2.20715 54.6001 2.30715C55.2001 2.30715 55.7 2.80715 55.7 3.30715Z" fill="#EC5F42"/>
<path d="M54 15.0071C53.9333 15.0071 53.8999 15.0405 53.8999 15.1071C53.7666 15.3071 53.5999 15.5405 53.3999 15.8072C53.0999 16.2072 53.3 16.2071 52.7 15.9071C52.2 15.7071 51.7001 15.5071 51.3001 15.1071C50.6001 14.5071 50.8 13.7072 51.2 13.2072C51.4 13.0072 51.8001 12.9072 52.1001 12.8072C52.2334 12.8072 52.3001 12.8738 52.3001 13.0071C52.4001 13.7071 52.7999 14.2071 53.3999 14.6071C53.5999 14.7405 53.8 14.8738 54 15.0071Z" fill="#7358A4"/>
<path d="M52.8999 16.4071C52.9999 16.4071 53 16.5071 53 16.6071C53 16.8738 53 17.1405 53 17.4071C52.9 17.6071 52.9 17.6071 52.7 17.6071C52.5 17.5405 52.3001 17.4738 52.1001 17.4071C52.0001 17.3071 51.8999 17.3071 51.8999 17.5071C51.7999 17.6071 51.9 17.7072 52 17.7072C52.2667 17.7738 52.5334 17.8738 52.8 18.0071C52.8 18.0071 52.8999 18.0071 52.8999 18.1071C52.8999 18.5738 52.8667 19.0071 52.8 19.4071C52.8 19.4071 52.8 19.4405 52.8 19.5071C52.5334 19.4405 52.3001 19.3405 52.1001 19.2072C52.0334 19.2072 51.9666 19.2072 51.8999 19.2072C51.7999 19.2072 51.7 19.3072 51.7 19.3072C51.7 19.4072 51.7 19.5071 51.8 19.5071C51.8667 19.5738 51.9668 19.6071 52.1001 19.6071C52.3001 19.6738 52.4668 19.7405 52.6001 19.8072C52.7334 19.8072 52.8 19.8738 52.8 20.0071C52.7334 20.4071 52.7 20.7738 52.7 21.1071C52.7 21.2405 52.6333 21.2738 52.5 21.2072C51.9 21.0072 51.3 20.7072 50.8 20.2072C50.5334 19.9405 50.3999 19.6072 50.3999 19.2072C50.5332 18.0072 50.6333 16.8405 50.7 15.7072C50.7666 15.5072 50.8 15.3071 50.8 15.1071C51.4 15.8071 52.0999 16.1071 52.8999 16.4071Z" fill="#7358A4"/>
<path fill-rule="evenodd" clip-rule="evenodd" d="M50.8999 7.10715C50.8999 7.60715 50.6 7.90715 50.3 8.20715C49.5667 8.87382 48.7334 9.14048 47.8 9.00714C47.3 8.90714 46.9 8.70716 46.5 8.30716C46.3 8.04049 46.2 7.74047 46.2 7.40714C46.3333 7.14047 46.5334 6.9738 46.8 6.90714C46.8667 6.90714 46.9333 6.90714 47 6.90714C47.1333 6.9738 47.2666 7.04048 47.3999 7.10715C47.4666 7.10715 47.5334 7.14049 47.6001 7.20715C48.0001 7.60715 48.8 7.60715 49.2 7.10715C49.2 7.10715 49.2334 7.07381 49.3 7.00714C49.3 7.00714 49.3332 6.9738 49.3999 6.90714C49.5999 6.50714 50 6.30714 50.5 6.50714C50.7 6.64048 50.8332 6.84048 50.8999 7.10715ZM50.1001 7.70715C50.4001 7.70715 50.6001 7.50715 50.6001 7.20715C50.6001 6.90715 50.4001 6.70715 50.1001 6.70715C49.8001 6.70715 49.6001 6.90715 49.6001 7.20715C49.6001 7.50715 49.8001 7.70715 50.1001 7.70715ZM50 8.00714C49.9333 8.00714 49.8999 7.9738 49.8999 7.90714C49.6999 7.80714 49.4999 7.70715 49.3999 7.60715C49.2999 7.40715 49.3 7.40714 49.2 7.50714C48.6 7.90714 47.8999 7.90714 47.3999 7.40714C47.2666 7.34047 47.1668 7.27382 47.1001 7.20715C46.9001 7.20715 46.8001 7.20716 46.6001 7.30716C46.5001 7.40716 46.5001 7.60715 46.6001 7.70715C46.7001 8.10715 46.9 8.30714 47.2 8.50714C48.1 8.90714 49.2 8.80714 50 8.00714Z" fill="#261A0E"/>
<path d="M50 23.8072C50.2 23.8072 50.3999 24.1072 50.3999 24.3072C50.3999 24.6072 50.1999 24.8072 49.8999 24.8072C49.6999 24.8072 49.5 24.6072 49.5 24.3072C49.5 24.1072 49.7 23.8072 50 23.8072Z" fill="#7358A4"/>
<path d="M50.6001 7.20715C50.6001 7.50715 50.4001 7.70715 50.1001 7.70715C49.8001 7.70715 49.6001 7.50715 49.6001 7.20715C49.6001 6.90715 49.8001 6.70715 50.1001 6.70715C50.4001 6.70715 50.6001 6.90715 50.6001 7.20715Z" fill="#7358A4"/>
<path d="M50.1001 15.8072C50.3001 15.9072 50.4 16.0072 50.3 16.2072C50.2334 17.0072 50.1668 17.8405 50.1001 18.7072C50.1001 18.7072 50.1 18.8071 50 18.9071C49.1 19.5071 48.2 19.6072 47.2 19.2072C47.1333 19.2072 47.1001 19.1738 47.1001 19.1072C47.3001 18.9738 47.5334 18.8738 47.8 18.8072C47.8667 18.7405 47.9668 18.7072 48.1001 18.7072C48.7001 18.8405 49.2333 18.7072 49.7 18.3072C50.2 17.8072 50.1999 17.1072 49.8999 16.6072C49.6999 16.4072 49.4666 16.2738 49.2 16.2072C48.4 16.1072 47.7 16.3072 47.2 17.0072C47.1 17.1072 47.1 17.3072 47 17.5072C47 17.6072 46.8999 17.7072 46.8999 17.7072C46.6332 17.7738 46.4 17.8405 46.2 17.9071C46.1 17.9071 46.1001 17.8072 46.1001 17.8072C46.1001 17.4072 46.1999 17.0738 46.3999 16.8072C46.7999 16.1072 47.5 15.7072 48.3 15.6072C48.9667 15.4738 49.5668 15.5405 50.1001 15.8072Z" fill="#7358A4"/>
<path d="M49.9 7.90714C49.9 7.9738 49.9334 8.00714 50 8.00714C49.2 8.80714 48.1 8.90714 47.2 8.50714C46.9 8.30714 46.7001 8.10715 46.6001 7.70715C46.5001 7.60715 46.5001 7.40716 46.6001 7.30716C46.8001 7.20716 46.9001 7.20715 47.1001 7.20715C47.1668 7.27382 47.2666 7.34047 47.4 7.40714C47.9 7.90714 48.6 7.90714 49.2 7.50714C49.3 7.40714 49.3 7.40715 49.4 7.60715C49.5 7.70715 49.7 7.80713 49.9 7.90714Z" fill="#7358A4"/>
<path d="M49.6002 23.6071C49.3335 23.8071 49.2001 24.0405 49.2001 24.3072C49.2001 24.4072 49.1001 24.4071 49.0001 24.4071C48.0001 24.3071 47.5002 25.3071 47.6002 26.1071C47.6002 26.3738 47.4667 26.5405 47.2001 26.6071C46.8667 26.8071 46.6669 26.7405 46.6002 26.4071C46.5335 25.8738 46.6002 25.3738 46.8002 24.9071C47.2002 24.0071 48 23.4071 48.9 23.5071C49.2 23.5071 49.4002 23.5071 49.6002 23.6071Z" fill="#7358A4"/>
<path d="M47.8 16.9071C48.3 17.2071 48.3999 17.7071 47.9999 18.1071C47.6999 18.5071 47.3 18.7072 46.8 18.8072C46.4 18.9072 45.8999 19.0071 45.4999 19.0071C44.9999 19.0071 44.5 18.9071 44.1 18.6071C43.6 18.2071 43.5999 17.6072 43.9999 17.2072C44.0666 17.1405 44.1332 17.1405 44.1999 17.2072C44.2665 17.4072 44.3332 17.5738 44.3998 17.7072C44.3998 18.0072 44.4998 18.2072 44.8998 18.3072C45.5665 18.4405 46.2666 18.3738 46.9999 18.1071C47.1999 18.0071 47.2998 17.8071 47.3998 17.5071C47.3998 17.3071 47.5 17.1071 47.6 17.0071C47.7 16.9071 47.7 16.9071 47.8 16.9071Z" fill="#7358A4"/>
<path d="M45.3999 16.6071C45.6666 16.6071 45.9001 16.6071 46.1001 16.6071C46.0001 16.8071 45.9 17.0072 45.8 17.3072C45.6 17.1072 45.4999 16.8071 45.3999 16.6071Z" fill="#7358A4"/>
<path d="M45.3999 17.3072C45.3999 17.4405 45.4333 17.5738 45.5 17.7072C45.4 18.0072 45.4 18.0072 45.2 18.0072C45.1333 17.9405 45.0667 17.9071 45 17.9071C44.8 17.9071 44.7001 17.8072 44.6001 17.6072C44.5001 16.6072 43.4 16.2072 42.7 16.7072C42.4333 16.9072 42.3 17.1405 42.3 17.4071C42.2334 17.5405 42.1668 17.6072 42.1001 17.6072C41.9668 17.6738 41.8333 17.7072 41.7 17.7072C41.5666 17.7072 41.5 17.6405 41.5 17.5072C41.5667 16.7738 41.9334 16.2738 42.6001 16.0072C43.7001 15.5072 44.9999 16.1072 45.3999 17.3072Z" fill="#7358A4"/>
<path d="M44.1001 19.0072C44.3001 19.0738 44.5 19.1738 44.7 19.3072C44 20.0072 42.6001 19.8072 42.1001 19.1072C42.3001 19.0405 42.5 18.9738 42.7 18.9071C42.7666 18.8405 42.8332 18.8405 42.8999 18.9071C43.2332 19.1071 43.6 19.1405 44 19.0072C44 18.9405 44.0334 18.9405 44.1001 19.0072Z" fill="#7358A4"/>
<path d="M43.0001 17.1072C43.3001 17.5072 43.3002 18.1071 42.8002 18.4071C42.4002 18.7071 41.9001 18.7072 41.5001 18.7072C41.3001 18.7072 41.1 18.7072 40.9 18.7072C40.7 18.6405 40.6334 18.5072 40.7001 18.3072C40.7667 18.1072 40.9002 18.0072 41.1002 18.0072C41.2335 18.0072 41.3668 18.0072 41.5001 18.0072C41.7001 18.0072 41.8668 18.0072 42.0001 18.0072C42.4001 18.0072 42.5002 17.9072 42.6002 17.5072C42.6002 17.3738 42.6668 17.2405 42.8002 17.1072C42.8002 17.0405 42.8668 17.0405 43.0001 17.1072Z" fill="#7358A4"/>
<path d="M41.6 16.3072C41.5 16.5072 41.3999 16.7071 41.2999 16.9071C41.2999 16.9071 41.0999 17.0071 40.9999 16.9071C40.8999 16.9071 40.7999 16.8072 40.7999 16.7072C40.6999 16.4072 40.8998 16.2072 41.1998 16.3072C41.3332 16.3072 41.4667 16.3072 41.6 16.3072Z" fill="#7358A4"/>
<path fill-rule="evenodd" clip-rule="evenodd" d="M27.5001 18.4071C27.3001 18.3405 27.1334 18.2738 27.0001 18.2072C26.8668 18.2738 26.7335 18.4071 26.6002 18.6071L26.4 18.8072C26.4 18.8072 26.3668 18.8405 26.3002 18.9071C26.1668 19.0405 26.0002 19.1405 25.8002 19.2072C25.8002 19.2738 25.8002 19.3405 25.8002 19.4071C25.8002 19.4738 25.8002 19.5405 25.8002 19.6071C25.8002 19.6738 25.8333 19.7072 25.9 19.7072C26.1667 20.8405 26.4668 21.9405 26.8002 23.0071C26.9335 23.5405 27.0667 24.0405 27.2001 24.5071C27.2001 24.5071 27.7002 26.2072 27.8002 26.8072C28.0002 27.6072 28.2 28.4072 28.4 29.2072C28.5333 29.6738 28.6334 30.1071 28.7001 30.5071C28.5667 30.5071 28.4667 30.5071 28.4 30.5071C28.1 29.5071 27.9001 28.5071 27.7001 27.5071C27.1667 25.5738 26.6335 23.6405 26.1002 21.7072C25.9002 21.0405 25.7001 20.3405 25.5001 19.6071C25.5001 19.5071 25.4002 19.5071 25.3002 19.5071C24.2002 20.1071 23.0002 20.5072 21.8002 20.7072C20.5335 21.0405 19.2333 21.2405 17.9 21.3072C17.3 21.3072 16.8001 21.2072 16.2001 21.2072C16.2001 21.2072 16.1669 21.2072 16.1002 21.2072C15.9669 21.2072 15.9334 21.2738 16.0001 21.4071C16.1334 22.4738 16.2667 23.5738 16.4 24.7072C16.6667 26.6405 16.9668 28.5738 17.3002 30.5071C17.3668 30.8405 17.4334 31.1738 17.5001 31.5071C17.3668 31.5071 17.2335 31.5071 17.1002 31.5071C17.0335 31.3071 17.0001 31.1071 17.0001 30.9071C16.7334 28.9738 16.4335 27.0405 16.1002 25.1071C16.1002 24.7738 16.0668 24.4071 16.0001 24.0071C15.9334 23.8071 15.9 23.5738 15.9 23.3072C15.9 23.2405 15.9 23.1738 15.9 23.1071C15.8333 22.8405 15.7667 22.5738 15.7001 22.3072C15.7001 22.2405 15.7001 22.1738 15.7001 22.1071C15.7001 21.9738 15.6669 21.8738 15.6002 21.8072C15.6002 21.6738 15.6002 21.5405 15.6002 21.4071C15.6002 21.2071 15.5001 21.1071 15.2001 21.1071C14.6001 20.9071 14.0002 20.7072 13.6002 20.3072C13.5335 20.2405 13.4667 20.1405 13.4 20.0071C13.4 20.0071 13.3668 20.0071 13.3002 20.0071C13.3002 19.9405 13.3002 19.8738 13.3002 19.8072C13.3002 19.7405 13.2667 19.6738 13.2001 19.6071C13.2001 19.6071 13.2001 19.5738 13.2001 19.5071C13.1334 19.0405 13.0333 18.5405 12.9 18.0071C12.8333 17.4738 12.7667 16.9738 12.7001 16.5071C12.7001 16.4405 12.6669 16.4071 12.6002 16.4071C12.6002 16.3405 12.6002 16.3072 12.6002 16.3072C12.6002 16.1738 12.6002 16.0738 12.6002 16.0071C12.5335 15.8071 12.5001 15.6405 12.5001 15.5071C12.4334 15.1738 12.3668 14.8071 12.3002 14.4071C12.2335 14.0738 12.3001 13.7405 12.5001 13.4071C12.6334 13.0071 12.8667 12.7405 13.2001 12.6071C13.3334 12.5405 13.3668 12.4405 13.3002 12.3072C13.1668 12.0405 13.0668 11.7738 13.0001 11.5071C13.0001 11.4405 12.9667 11.3738 12.9 11.3072C12.7667 10.7072 12.6 10.1405 12.4 9.60715C12.4 9.54048 12.3668 9.4738 12.3002 9.40714C11.9002 8.90714 11.5002 8.40714 11.1002 7.90714C10.6002 7.30714 10.6001 6.20715 11.0001 5.60715C11.0668 5.47382 11.1002 5.37383 11.1002 5.30716C10.8335 4.44049 10.6 3.57382 10.4 2.70715C10.1 1.90716 10.6 1.20714 11.4 0.907137C12 0.773803 12.5334 0.94047 13.0001 1.40714C13.0001 1.40714 13.0335 1.40714 13.1002 1.40714C13.3002 0.707137 13.8001 0.307155 14.5001 0.207155C15.3001 0.140488 15.8335 0.473822 16.1002 1.20715C16.4335 0.407155 17.0002 0.00714268 17.8002 0.00714268C18.6668 -0.059524 19.2 0.340488 19.4 1.20715C19.6 0.740488 19.9002 0.440494 20.3002 0.307161C20.3668 0.307161 20.4 0.273822 20.4 0.207155C20.4667 0.207155 20.5001 0.207155 20.5001 0.207155C20.9001 0.107155 21.2001 0.207155 21.5001 0.207155C21.8001 0.307155 22.1001 0.507149 22.2001 0.607149C22.3001 0.807149 22.4 1.10716 22.4 1.30716C22.4 1.37383 22.4334 1.40714 22.5001 1.40714C22.5001 1.40714 22.5001 1.44048 22.5001 1.50714C22.7001 2.24048 22.9002 2.97382 23.1002 3.70715C23.2002 4.10715 23.3001 4.50714 23.0001 5.00714C23.0001 5.07381 23.0001 5.14049 23.0001 5.20715C23.1334 5.60715 23.2335 6.00714 23.3002 6.40714C23.6002 7.20714 23.8001 8.10714 24.0001 9.00714C24.0001 9.07381 24.0001 9.14049 24.0001 9.20716C24.0668 9.60715 24.1002 10.0071 24.1002 10.4071C24.1002 10.6071 24.2002 10.5071 24.3002 10.5071C24.6002 10.6071 24.9001 10.6071 25.2001 10.6071C25.7001 10.8071 26.1001 11.2072 26.2001 11.8072C26.3001 12.3072 26.4001 12.9071 26.5001 13.4071C26.5001 13.5405 26.5335 13.6405 26.6002 13.7072C26.6002 13.9072 26.6002 13.9071 26.8002 13.9071C27.8002 13.5071 28.7 13.9071 29.4 14.6071C29.4667 14.6738 29.5335 14.7405 29.6002 14.8072C29.7335 14.8738 29.8333 14.9738 29.9 15.1071C29.9 15.1738 29.9334 15.2405 30.0001 15.3072C30.1001 15.4072 30.2002 15.5071 30.3002 15.5071C30.5668 15.5738 30.8335 15.6071 31.1002 15.6071C31.1669 15.6738 31.2335 15.6738 31.3002 15.6071C31.7668 15.2738 32.3 15.0405 32.9 14.9071C33.7 14.7071 34.5002 14.7071 35.3002 14.9071C35.3668 14.9738 35.4669 14.9738 35.6002 14.9071C35.9002 14.8071 36.1 14.7072 36.4 14.7072C36.7 14.6072 36.9001 14.7071 37.0001 15.0071C37.0668 15.1405 37.1002 15.2738 37.1002 15.4071C37.1002 15.7071 37.0001 15.9071 36.7001 15.9071C36.6334 15.9738 36.5668 16.0071 36.5001 16.0071C36.5001 16.3071 36.5001 16.3072 36.7001 16.3072C37.1001 16.3072 37.4 16.6071 37.4 16.9071C37.5 17.3071 37.3 17.6072 36.9 17.7072C36.7 17.8072 36.4002 17.8071 36.1002 17.9071C36.0335 17.9071 35.9667 17.9738 35.9 18.1071C35.6 18.3071 35.4002 18.5072 35.1002 18.7072C34.8002 18.9072 34.5001 19.0071 34.2001 19.1071C34.2001 19.1738 34.1669 19.2072 34.1002 19.2072C33.8002 19.2072 33.6002 19.3072 33.3002 19.3072C32.4002 19.4072 31.7001 19.2072 31.0001 18.7072C31.0001 18.7072 30.9667 18.6738 30.9 18.6071C30.5 18.6071 30.1335 18.5738 29.8002 18.5071C29.7335 18.5071 29.7001 18.5071 29.7001 18.5071C29.6001 18.5071 29.5001 18.4071 29.5001 18.5071C29.2334 18.5738 28.9667 18.6071 28.7001 18.6071C28.6001 18.6071 28.3001 18.6071 28.0001 18.6071C27.9001 18.5071 27.5001 18.4071 27.5001 18.4071ZM36.8002 17.3072C37.0002 17.3072 37.1002 17.1071 37.1002 16.9071C37.0335 16.7738 36.9001 16.7072 36.7001 16.7072C36.6334 16.7072 36.5668 16.7072 36.5001 16.7072C36.2334 16.7738 36.0002 16.8405 35.8002 16.9071C35.6002 16.9071 35.3669 16.9071 35.1002 16.9071C34.9002 16.9071 34.8001 16.9071 34.7001 16.6071C34.6334 16.4071 34.5002 16.2738 34.3002 16.2072C34.2002 16.2072 34.1002 16.2072 34.1002 16.2072C34.0002 16.4072 33.8001 16.6072 33.7001 16.8072C33.6001 17.0072 33.7 17.2072 33.9 17.3072C34.1 17.4072 34.2002 17.5071 34.3002 17.5071C34.7002 17.6071 35.7002 17.6071 35.8002 17.6071C36.1335 17.5405 36.4668 17.4405 36.8002 17.3072ZM36.6002 15.6071C36.7335 15.5405 36.8002 15.4405 36.8002 15.3072C36.7002 15.1072 36.6001 15.0071 36.5001 15.0071C36.2334 15.0071 36.0002 15.0738 35.8002 15.2072C35.8668 15.2738 35.9334 15.3072 36.0001 15.3072C36.0668 15.3738 36.1334 15.4405 36.2001 15.5071C36.3001 15.7071 36.4002 15.7071 36.6002 15.6071ZM36.0001 16.4071C36.1334 16.4071 36.1669 16.3405 36.1002 16.2072C35.9669 15.8072 35.7333 15.5405 35.4 15.4071C34.8 15.1071 34.1001 15.1071 33.5001 15.1071C32.7001 15.2071 31.9002 15.5071 31.3002 16.0071C30.9668 16.3405 30.7667 16.7071 30.7001 17.1071C30.7001 17.2071 30.7 17.3072 30.9 17.3072C31.0333 17.3072 31.2 17.2738 31.4 17.2072C31.5333 17.2072 31.6002 17.1405 31.6002 17.0071C31.6002 16.9405 31.6334 16.8405 31.7001 16.7072C32.0001 16.3072 32.3001 16.1071 32.7001 16.0071C33.3001 15.7071 33.8 15.7072 34.4 15.8072C34.7 15.9072 35.0002 16.1071 35.1002 16.4071C35.1002 16.5071 35.2002 16.6071 35.3002 16.5071C35.5002 16.5071 35.7334 16.4738 36.0001 16.4071ZM35.4 18.0071C35.0667 18.0071 34.8002 18.0071 34.6002 18.0071C34.4669 18.0071 34.3334 18.0405 34.2001 18.1071C33.6667 18.3071 33.1335 18.3738 32.6002 18.3072C32.4669 18.3072 32.3668 18.3072 32.3002 18.3072C32.1002 18.3738 31.9001 18.4405 31.7001 18.5071C31.6334 18.5738 31.5668 18.6071 31.5001 18.6071C32.3001 19.0071 33.1 19.1071 33.9 18.9071C34.4333 18.7738 34.9333 18.4738 35.4 18.0071ZM33.7001 16.1071C33.5001 16.1071 33 16.2072 32.9 16.3072C33.0333 16.4405 33.1668 16.5738 33.3002 16.7072C33.4335 16.5738 33.5667 16.3738 33.7001 16.1071ZM33.8002 17.8072C33.6668 17.6738 33.5002 17.5405 33.3002 17.4071C33.1668 17.6071 33.0333 17.8071 32.9 18.0071C33.1 18.1071 33.7002 18.0072 33.8002 17.8072ZM32.8002 17.5071C33.1002 17.2071 32.9001 16.7071 32.5001 16.5071C32.4334 16.5071 32.4 16.5071 32.4 16.5071C32.2 16.7071 32.0001 16.9071 32.0001 17.1071C32.0001 17.3071 31.8002 17.5071 31.6002 17.5071C31.3002 17.7071 30.9001 17.7071 30.5001 17.6071C30.1001 17.6071 29.6002 17.4071 29.3002 17.1071C29.1002 17.0405 29.0335 16.8738 29.1002 16.6071C29.1002 16.4071 29.0001 16.2071 29.0001 16.0071C28.9001 16.0071 28.8002 15.9071 28.8002 15.9071C28.4002 16.0071 28.2002 16.4072 28.3002 16.7072C28.3668 16.9072 28.4669 17.1072 28.6002 17.3072C29.2002 18.1072 30.1001 18.3072 31.0001 18.3072C31.0668 18.3072 31.1668 18.3072 31.3002 18.3072C31.9002 18.2072 32.4002 18.0071 32.8002 17.5071ZM30.9 16.0071C30.7 15.9405 30.5002 15.8738 30.3002 15.8072C30.3668 16.0738 30.4334 16.3071 30.5001 16.5071C30.5001 16.5071 30.5001 16.5405 30.5001 16.6071C30.6334 16.4071 30.7667 16.2071 30.9 16.0071ZM30.1002 16.7072C30.1002 15.6072 29.2002 14.5072 28.1002 14.2072C27.6335 14.0738 27.2002 14.0738 26.8002 14.2072C26.7002 14.3072 26.7001 14.3071 26.7001 14.4071C26.7001 14.6738 26.7335 14.9738 26.8002 15.3072C26.8668 15.2405 26.9334 15.1738 27.0001 15.1071C27.2668 14.8405 27.5667 14.7405 27.9 14.8072C28.7 15.0072 29.4 15.7071 29.4 16.5071C29.4 16.8071 29.5001 16.9071 29.7001 17.0071C30.1001 17.2071 30.2002 17.2072 30.1002 16.7072ZM28.7001 15.6071C28.7001 15.6071 28.7001 15.5738 28.7001 15.5071C28.5001 15.5071 28.3002 15.3072 28.3002 15.3072C28.0335 15.1072 27.7333 15.1072 27.4 15.3072C27.1 15.4072 27.0001 15.6071 27.0001 15.9071C27.0001 16.2405 27.1002 16.5072 27.3002 16.7072C27.5002 17.0072 27.9002 17.2072 28.1002 17.2072C28.0335 17.0072 28.0001 16.8405 28.0001 16.7072C27.9001 16.5072 27.9001 16.5072 28.0001 16.3072C28.0668 15.9738 28.3001 15.7405 28.7001 15.6071ZM29.1002 18.2072C28.8335 18.0072 28.6 17.8071 28.4 17.6071C28.4 17.6071 28.3668 17.6071 28.3002 17.6071C27.9668 17.6071 27.6335 17.4738 27.3002 17.2072C27.3002 17.2072 27.2667 17.1738 27.2001 17.1071C27.2001 17.3738 27.1669 17.5738 27.1002 17.7072C27.1002 17.8072 27.2001 17.9071 27.2001 17.9071C27.4001 17.9738 27.5667 18.0405 27.7001 18.1071C28.1001 18.3071 28.6002 18.3072 29.1002 18.2072ZM26.4 18.4071C26.7 18.0071 26.9002 17.6071 26.8002 17.0071C26.6002 16.2071 26.5 15.4071 26.4 14.6071C26.2667 14.0738 26.1669 13.5405 26.1002 13.0071C25.9002 13.3071 25.7001 13.5071 25.5001 13.6071C25.1001 14.0071 24.6002 14.3071 24.1002 14.5071C24.1002 14.5071 24.0001 14.6072 24.0001 14.7072C24.0668 15.0405 24.1334 15.4072 24.2001 15.8072C24.4667 15.6738 24.7 15.5405 24.9 15.4071C25 15.4071 25.2001 15.3071 25.2001 15.5071C25.3001 15.6071 25.2002 15.7072 25.1002 15.7072C24.8335 15.8405 24.6 15.9405 24.4 16.0071C24.3 16.1071 24.2001 16.1072 24.2001 16.2072C24.2667 16.6072 24.3333 17.0071 24.4 17.4071C24.4667 17.5405 24.5335 17.5738 24.6002 17.5071C24.8669 17.4405 25.1002 17.3738 25.3002 17.3072C25.4002 17.2072 25.5001 17.2072 25.5001 17.3072C25.6001 17.5072 25.5 17.5071 25.4 17.6071C25.2 17.6738 24.9667 17.7738 24.7001 17.9071C24.5667 17.9071 24.5335 17.9738 24.6002 18.1071C24.6669 18.5071 24.7335 18.8738 24.8002 19.2072C24.8002 19.2738 24.8002 19.3405 24.8002 19.4071C24.9335 19.3405 25.0667 19.2738 25.2001 19.2072C25.6001 19.0072 26 18.7071 26.4 18.4071ZM25.5001 13.2072C26.0001 12.7072 26.1002 12.2071 25.8002 11.6071C25.6002 11.2071 25.0001 10.8071 24.5001 10.9071C24.5001 10.9071 24.4 10.9071 24.4 11.0071C24.4 11.6071 24.1001 12.1071 23.7001 12.5071C23.5001 12.7071 23.2 13.0072 22.9 13.2072C23.1667 13.5405 23.4668 13.8738 23.8002 14.2072H23.9C24.5 14.0072 25.0001 13.6072 25.5001 13.2072ZM23.7001 11.8072C23.8334 10.6738 23.7668 9.57381 23.5001 8.50714C23.3001 7.50714 23.0002 6.50715 22.8002 5.60715C22.7002 5.40715 22.7002 5.40714 22.6002 5.50714C21.9002 6.00714 21.1001 5.90716 20.5001 5.30716C20.5001 5.30716 20.4667 5.30716 20.4 5.30716C20 6.10716 19.5002 6.50714 18.8002 6.50714C18.0002 6.50714 17.4001 6.20714 17.2001 5.40714C17.0001 5.90714 16.7001 6.30714 16.2001 6.50714C16.2667 6.50714 16.3002 6.50714 16.3002 6.50714C17.1002 6.50714 17.9001 6.60716 18.7001 6.80716C19.0334 6.87383 19.4002 6.97382 19.8002 7.10715C19.8002 7.10715 19.9 7.20716 19.9 7.30716C19.9 7.40716 19.8001 7.50714 19.7001 7.40714C19.5667 7.40714 19.4667 7.37383 19.4 7.30716C18.2 6.90716 17.1 6.80714 15.9 6.90714C15.5 7.00714 15.2002 7.10715 14.8002 7.20715C14.7002 7.20715 14.6002 7.20715 14.6002 7.10715C14.5002 7.00715 14.6002 6.90714 14.6002 6.90714C14.6002 6.84047 14.6334 6.80716 14.7001 6.80716C15.4334 6.14049 16.2001 5.44049 17.0001 4.70715C17.2668 4.50715 17.4 4.24047 17.4 3.90714C17.4 3.30714 17.1002 2.80714 16.6002 2.50714C16.0669 2.24048 15.5669 2.30715 15.1002 2.70715C13.9669 3.64049 12.8334 4.54047 11.7001 5.40714C10.9001 6.00714 10.8 7.00715 11.4 7.70715C11.8 8.24049 12.2002 8.77383 12.6002 9.30716C12.6669 9.37383 12.7335 9.47382 12.8002 9.60715C13.1335 10.7405 13.5 11.8405 13.9 12.9071C14.1 13.4071 14.5001 13.7071 15.0001 13.9071C15.7001 14.2071 16.5001 14.3072 17.2001 14.3072C18.8001 14.3072 20.3001 14.0071 21.7001 13.4071C22.3001 13.1071 22.9 12.8072 23.4 12.3072C23.6 12.2072 23.7001 12.0072 23.7001 11.8072ZM24.3002 19.6071C24.4335 19.5405 24.4667 19.4405 24.4 19.3072C24.4 19.1072 24.3668 18.8738 24.3002 18.6071C24.3002 18.4738 24.2667 18.3071 24.2001 18.1071C23.9334 18.2405 23.6667 18.3738 23.4 18.5071C23.3 18.5071 23.1002 18.6071 23.1002 18.4071C23.0002 18.3071 23.1001 18.2072 23.2001 18.2072C23.4667 18.0738 23.7334 17.9405 24.0001 17.8072C24.1334 17.8072 24.1669 17.7405 24.1002 17.6071C24.0335 17.2071 23.9667 16.8071 23.9 16.4071C23.9 16.4071 23.9 16.3738 23.9 16.3072C23.7 16.3738 23.5333 16.4405 23.4 16.5071C23.2667 16.5738 23.1334 16.6405 23.0001 16.7072C22.8668 16.7072 22.8002 16.6738 22.8002 16.6071C22.7002 16.5071 22.8 16.4072 22.9 16.3072C23.0333 16.2405 23.2 16.1738 23.4 16.1071C23.5 16.0071 23.7002 16.0071 23.8002 15.9071C23.9002 15.7071 23.8001 15.5071 23.7001 15.4071C23.7001 15.2071 23.6669 14.9738 23.6002 14.7072C23.6002 14.7738 23.5668 14.8072 23.5001 14.8072C22.6001 15.1072 21.7002 15.4071 20.8002 15.6071C19.8002 15.8071 18.8002 15.9738 17.8002 16.1071C16.8002 16.2071 15.7001 16.2071 14.7001 16.0071C14.1001 15.9071 13.5 15.8071 12.9 15.4071C12.9 15.4071 12.8668 15.4071 12.8002 15.4071C12.8668 15.5405 12.9 15.6405 12.9 15.7072C13.1 16.9738 13.3001 18.2071 13.5001 19.4071C13.5668 19.8738 13.8335 20.2071 14.3002 20.4071C14.9002 20.7071 15.7 20.8071 16.4 20.9071C17.4 20.9738 18.3668 20.9405 19.3002 20.8072C19.9002 20.7405 20.4668 20.6405 21.0001 20.5071C21.6001 20.4405 22.2002 20.3071 22.8002 20.1071C23.3002 20.0071 23.8002 19.8071 24.3002 19.6071ZM21.9 5.40714C22.6 5.30714 23.0002 4.60714 22.8002 4.00714C22.6002 3.14048 22.3669 2.2738 22.1002 1.40714C21.9002 0.807137 21.5 0.507143 20.9 0.507143C20.1 0.607143 19.6002 1.30714 19.8002 1.90714C20.0002 2.84047 20.2334 3.74048 20.5001 4.60715C20.7001 5.20715 21.1002 5.50714 21.8002 5.40714C21.8002 5.40714 21.8333 5.40714 21.9 5.40714ZM23.3002 14.5071C23.4002 14.4071 23.4002 14.4072 23.3002 14.3072C23.1002 14.0405 22.9001 13.7738 22.7001 13.5071C22.6334 13.3738 22.5333 13.3738 22.4 13.5071C21.6 13.9071 20.7002 14.2072 19.8002 14.3072C18.7002 14.6072 17.6001 14.7071 16.5001 14.6071C15.9001 14.5071 15.3001 14.4072 14.7001 14.2072C14.2001 13.9072 13.8001 13.7072 13.5001 13.2072C13.4334 13.1405 13.3668 13.0405 13.3002 12.9071C13.2335 12.9738 13.1334 13.0738 13.0001 13.2072C12.5001 13.7072 12.4001 14.7071 13.2001 15.1071C13.7001 15.5071 14.3001 15.6072 15.0001 15.7072C15.9001 15.8072 16.9001 15.8072 18.0001 15.7072C18.5001 15.6072 19.1001 15.6071 19.7001 15.5071C20.5001 15.3071 21.2668 15.1071 22.0001 14.9071C22.4001 14.8071 22.9002 14.6071 23.3002 14.5071ZM19.2001 6.10715C19.8001 5.90715 20.2001 5.30715 20.0001 4.60715C19.6668 3.54048 19.3669 2.44049 19.1002 1.30716C19.0335 1.10716 18.9667 0.973803 18.9 0.907137C18.7 0.407137 18.2002 0.307161 17.8002 0.307161C17.2002 0.407161 16.8002 0.607143 16.6002 1.00714C16.4669 1.27381 16.4334 1.50715 16.5001 1.70715C16.6001 2.00715 16.7 2.20716 16.9 2.30716C17.7 2.90716 18 4.00715 17.4 4.70715C17.4 4.80715 17.4 4.90714 17.4 5.00714C17.4667 5.14048 17.5001 5.2738 17.5001 5.40714C17.6334 5.74047 17.8335 5.94048 18.1002 6.00714C18.4335 6.20714 18.8001 6.24048 19.2001 6.10715ZM15.9 2.00714L16.0001 1.90714C15.9001 1.60714 15.8001 1.30715 15.7001 1.10715C15.5001 0.607149 14.8002 0.407149 14.3002 0.607149C13.7002 0.807149 13.4001 1.40714 13.5001 1.90714C13.6001 2.30714 13.7002 2.70715 13.8002 3.20715C14.0668 3.00715 14.3001 2.84049 14.5001 2.70715C14.9001 2.30715 15.3 2.00714 15.9 2.00714ZM15.9 6.20715C16.2 6.30715 16.8002 5.80714 16.8002 5.40714C16.4668 5.6738 16.1667 5.94049 15.9 6.20715ZM13.3002 3.70715C13.4002 3.60716 13.4 3.50714 13.4 3.40714C13.2667 2.94047 13.1334 2.47381 13.0001 2.00714C12.8001 1.50714 12.3002 1.20715 11.8002 1.20715C11.1002 1.30715 10.5001 1.90716 10.7001 2.70715C10.9001 3.44049 11.1002 4.20714 11.3002 5.00714C11.4002 5.20714 11.4002 5.20715 11.6002 5.10715C12.1335 4.64048 12.7002 4.17382 13.3002 3.70715Z" fill="#261A0E"/>
<path d="M37.1 16.9071C37.1 17.1071 37 17.3072 36.8 17.3072C36.4666 17.4405 36.1333 17.5405 35.8 17.6071C35.7 17.6071 34.7 17.6071 34.3 17.5071C34.2 17.5071 34.0998 17.4072 33.8998 17.3072C33.6998 17.2072 33.5999 17.0072 33.6999 16.8072C33.7999 16.6072 34 16.4072 34.1 16.2072C34.1 16.2072 34.2 16.2072 34.3 16.2072C34.5 16.2738 34.6332 16.4071 34.6999 16.6071C34.7999 16.9071 34.9 16.9071 35.1 16.9071C35.3667 16.9071 35.6 16.9071 35.8 16.9071C36 16.8405 36.2333 16.7738 36.4999 16.7072C36.5666 16.7072 36.6332 16.7072 36.6999 16.7072C36.8999 16.7072 37.0334 16.7738 37.1 16.9071Z" fill="#7358A4"/>
<path d="M36.8 15.3072C36.8 15.4405 36.7334 15.5405 36.6001 15.6071C36.4001 15.7071 36.3 15.7071 36.2 15.5071C36.1333 15.4405 36.0667 15.3738 36 15.3072C35.9333 15.3072 35.8667 15.2738 35.8 15.2072C36 15.0738 36.2333 15.0071 36.5 15.0071C36.6 15.0071 36.7 15.1072 36.8 15.3072Z" fill="#7358A4"/>
<path d="M36.1001 16.2072C36.1668 16.3405 36.1333 16.4071 36 16.4071C35.7333 16.4738 35.5 16.5071 35.3 16.5071C35.2 16.6071 35.1001 16.5071 35.1001 16.4071C35.0001 16.1071 34.6999 15.9072 34.3999 15.8072C33.7999 15.7072 33.3 15.7071 32.7 16.0071C32.3 16.1071 32 16.3072 31.7 16.7072C31.6333 16.8405 31.6001 16.9405 31.6001 17.0071C31.6001 17.1405 31.5332 17.2072 31.3999 17.2072C31.1999 17.2738 31.0332 17.3072 30.8999 17.3072C30.6999 17.3072 30.7 17.2071 30.7 17.1071C30.7666 16.7071 30.9667 16.3405 31.3 16.0071C31.9 15.5071 32.7 15.2071 33.5 15.1071C34.1 15.1071 34.7999 15.1071 35.3999 15.4071C35.7332 15.5405 35.9668 15.8072 36.1001 16.2072Z" fill="#7358A4"/>
<path d="M34.6001 18.0071C34.8001 18.0071 35.0666 18.0071 35.3999 18.0071C34.9332 18.4738 34.4332 18.7738 33.8999 18.9071C33.0999 19.1071 32.3 19.0071 31.5 18.6071C31.5667 18.6071 31.6333 18.5738 31.7 18.5071C31.9 18.4405 32.1 18.3738 32.3 18.3072C32.3667 18.3072 32.4668 18.3072 32.6001 18.3072C33.1334 18.3738 33.6666 18.3071 34.2 18.1071C34.3333 18.0405 34.4668 18.0071 34.6001 18.0071Z" fill="#7358A4"/>
<path fill-rule="evenodd" clip-rule="evenodd" d="M33.5 6.00715C33.9 6.10715 34.2 6.40717 34.2 6.70717C34.3 7.70717 34.0001 8.60717 33.3001 9.30717C32.7667 9.77384 32.1667 10.0405 31.5 10.1072C29.5 10.2072 28.2001 8.20715 28.8001 6.40715C28.8667 6.20715 28.9668 6.04048 29.1001 5.90715C29.2334 5.64048 29.4667 5.54049 29.8001 5.60716C30.2001 5.60716 30.4999 6.00715 30.3999 6.40715C30.3999 6.60715 30.3001 6.80715 30.3001 6.90715C30.0001 7.80715 30.7001 8.70715 31.6001 8.50715C32.2001 8.40715 32.7 7.80716 32.7 7.10716C32.6 6.90716 32.6 6.60715 32.7 6.40715C32.9 6.20715 33.2 6.00715 33.5 6.00715ZM33.5 7.30717C33.7 7.30717 33.8999 7.00717 33.8999 6.80717C33.8999 6.50717 33.6001 6.30717 33.3001 6.30717C33.1001 6.40717 32.8999 6.60715 32.8999 6.90715C32.8999 7.10715 33.2 7.30717 33.5 7.30717ZM33.8999 7.50715C33.8332 7.50715 33.7666 7.50715 33.7 7.50715C33.5 7.64049 33.3001 7.64049 33.1001 7.50715C33.0001 7.50715 32.8999 7.50716 32.8999 7.60716C32.7999 7.90716 32.7 8.10717 32.5 8.30717C32.1 8.80717 31.3999 8.90717 30.8999 8.70717C30.2999 8.50717 29.8999 8.00717 29.8999 7.30717C29.8999 7.00717 30.0001 6.80715 30.1001 6.50715C30.2001 6.30715 30.2 6.10715 30 6.00715C29.9333 5.94049 29.8333 5.90715 29.7 5.90715C29.5 5.80715 29.4001 5.80715 29.3001 6.00715C29.2334 6.20715 29.1668 6.40716 29.1001 6.60716C28.7001 7.80716 29.2999 9.10716 30.3999 9.60716C31.2999 10.0072 32.5001 9.70715 33.1001 9.00715C33.5001 8.60715 33.7666 8.10715 33.8999 7.50715Z" fill="#261A0E"/>
<path d="M33.8999 6.80716C33.8999 7.00716 33.7 7.30716 33.5 7.30716C33.2 7.30716 32.8999 7.10713 32.8999 6.90714C32.8999 6.60713 33.1 6.40716 33.3 6.30716C33.6 6.30716 33.8999 6.50716 33.8999 6.80716Z" fill="#7358A4"/>
<path d="M32.5001 16.5071C32.9001 16.7071 33.1001 17.2071 32.8001 17.5071C32.4001 18.0071 31.9001 18.2072 31.3001 18.3072C31.1668 18.3072 31.0668 18.3072 31.0001 18.3072C30.1001 18.3072 29.2002 18.1072 28.6002 17.3072C28.4669 17.1072 28.3668 16.9072 28.3001 16.7072C28.2001 16.4072 28.4001 16.0071 28.8001 15.9071C28.8001 15.9071 28.9001 16.0071 29.0001 16.0071C29.0001 16.2071 29.1002 16.4071 29.1002 16.6071C29.0335 16.8738 29.1001 17.0405 29.3001 17.1071C29.6001 17.4071 30.1001 17.6071 30.5001 17.6071C30.9001 17.7071 31.3002 17.7071 31.6002 17.5071C31.8002 17.5071 32.0001 17.3071 32.0001 17.1071C32.0001 16.9071 32.2 16.7071 32.4 16.5071C32.4 16.5071 32.4334 16.5071 32.5001 16.5071Z" fill="#7358A4"/>
<path d="M28.1001 14.2071C29.2001 14.5071 30.1001 15.6071 30.1001 16.7071C30.2001 17.2071 30.1 17.2071 29.7 17.0071C29.5 16.9071 29.3999 16.8071 29.3999 16.5071C29.3999 15.7071 28.6999 15.0072 27.8999 14.8072C27.5666 14.7405 27.2667 14.8405 27 15.1071C26.9333 15.1738 26.8667 15.2405 26.8 15.3072C26.7334 14.9738 26.7 14.6738 26.7 14.4071C26.7 14.3071 26.7 14.3071 26.8 14.2071C27.2 14.0738 27.6334 14.0738 28.1001 14.2071Z" fill="#7358A4"/>
<path d="M28.3999 17.6071C28.5999 17.8071 28.8334 18.0072 29.1001 18.2072C28.6001 18.3072 28.1 18.3071 27.7 18.1071C27.5666 18.0405 27.4 17.9738 27.2 17.9071C27.2 17.9071 27.1001 17.8072 27.1001 17.7072C27.1668 17.5738 27.2 17.3738 27.2 17.1071C27.2666 17.1738 27.3 17.2072 27.3 17.2072C27.6334 17.4738 27.9667 17.6071 28.3 17.6071C28.3667 17.6071 28.3999 17.6071 28.3999 17.6071Z" fill="#7358A4"/>
<path d="M26.8 17.0071C26.9 17.6071 26.6999 18.0071 26.3999 18.4071C25.9999 18.7071 25.6 19.0072 25.2 19.2072C25.0666 19.2738 24.9334 19.3405 24.8 19.4071C24.8 19.3405 24.8 19.2738 24.8 19.2072C24.7334 18.8738 24.6668 18.5071 24.6001 18.1071C24.5334 17.9738 24.5666 17.9071 24.7 17.9071C24.9666 17.7738 25.1999 17.6738 25.3999 17.6071C25.4999 17.5071 25.6 17.5072 25.5 17.3072C25.5 17.2072 25.4 17.2072 25.3 17.3072C25.1 17.3738 24.8668 17.4405 24.6001 17.5071C24.5334 17.5738 24.4666 17.5405 24.3999 17.4071C24.3332 17.0071 24.2666 16.6072 24.2 16.2072C24.2 16.1072 24.2999 16.1071 24.3999 16.0071C24.5999 15.9405 24.8334 15.8405 25.1001 15.7072C25.2001 15.7072 25.3 15.6071 25.2 15.5071C25.2 15.3071 24.9999 15.4071 24.8999 15.4071C24.6999 15.5405 24.4666 15.6738 24.2 15.8072C24.1333 15.4072 24.0667 15.0405 24 14.7072C24 14.6072 24.1001 14.5071 24.1001 14.5071C24.6001 14.3071 25.1 14.0071 25.5 13.6071C25.7 13.5071 25.9001 13.3071 26.1001 13.0071C26.1668 13.5405 26.2666 14.0738 26.3999 14.6071C26.4999 15.4071 26.6 16.2071 26.8 17.0071Z" fill="#7358A4"/>
<path d="M25.8 11.6072C26.1 12.2072 26 12.7072 25.5 13.2072C25 13.6072 24.4999 14.0072 23.8999 14.2072H23.8C23.4667 13.8738 23.1666 13.5405 22.8999 13.2072C23.1999 13.0072 23.5 12.7071 23.7 12.5071C24.1 12.1071 24.3999 11.6071 24.3999 11.0071C24.3999 10.9071 24.5 10.9071 24.5 10.9071C25 10.8071 25.6 11.2072 25.8 11.6072Z" fill="#7358A4"/>
<path d="M23.5 8.50713C23.7666 9.5738 23.8332 10.6738 23.6999 11.8072C23.6999 12.0072 23.5999 12.2072 23.3999 12.3072C22.8999 12.8072 22.2999 13.1071 21.6999 13.4071C20.2999 14.0071 18.7999 14.3072 17.1999 14.3072C16.4999 14.3072 15.7 14.2071 15 13.9071C14.5 13.7071 14.0999 13.4071 13.8999 12.9071C13.4999 11.8405 13.1333 10.7405 12.8 9.60714C12.7333 9.47381 12.6667 9.37382 12.6001 9.30715C12.2001 8.77382 11.7999 8.24048 11.3999 7.70715C10.7999 7.00715 10.8999 6.00713 11.6999 5.40713C12.8332 4.54046 13.9667 3.64048 15.1001 2.70715C15.5667 2.30715 16.0667 2.24047 16.6001 2.50713C17.1001 2.80713 17.3999 3.30713 17.3999 3.90713C17.3999 4.24046 17.2666 4.50715 17 4.70715C16.2 5.44048 15.4332 6.14048 14.6999 6.80715C14.6332 6.80715 14.6001 6.84046 14.6001 6.90713C14.6001 6.90713 14.5001 7.00714 14.6001 7.10714C14.6001 7.20714 14.7 7.20715 14.8 7.20715C15.2 7.10715 15.4999 7.00713 15.8999 6.90713C17.0999 6.80713 18.1999 6.90715 19.3999 7.30715C19.4665 7.37382 19.5666 7.40713 19.6999 7.40713C19.7999 7.50713 19.8999 7.40715 19.8999 7.30715C19.8999 7.20715 19.8 7.10714 19.8 7.10714C19.4 6.97381 19.0332 6.87382 18.6999 6.80715C17.8999 6.60715 17.1 6.50713 16.3 6.50713C16.3 6.50713 16.2666 6.50713 16.1999 6.50713C16.6999 6.30713 16.9999 5.90713 17.1999 5.40713C17.3999 6.20713 18 6.50713 18.8 6.50713C19.5 6.50713 19.9999 6.10715 20.3999 5.30715C20.4665 5.30715 20.5 5.30715 20.5 5.30715C21.1 5.90715 21.9001 6.00713 22.6001 5.50713C22.7001 5.40713 22.7 5.40714 22.8 5.60714C23 6.50714 23.3 7.50713 23.5 8.50713Z" fill="#EC5F42"/>
<path d="M24.3999 19.3072C24.4666 19.4405 24.4334 19.5405 24.3 19.6071C23.8 19.8071 23.3 20.0071 22.8 20.1071C22.2 20.3071 21.6 20.4405 21 20.5071C20.4667 20.6405 19.9 20.7405 19.3 20.8072C18.3667 20.9405 17.3999 20.9738 16.3999 20.9071C15.6999 20.8071 14.9 20.7071 14.3 20.4071C13.8334 20.2071 13.5667 19.8738 13.5 19.4071C13.3 18.2071 13.0999 16.9738 12.8999 15.7072C12.8999 15.6405 12.8667 15.5405 12.8 15.4071C12.8667 15.4071 12.8999 15.4071 12.8999 15.4071C13.4999 15.8071 14.1 15.9071 14.7 16.0071C15.7 16.2071 16.8 16.2071 17.8 16.1071C18.8 15.9738 19.8 15.8071 20.8 15.6071C21.7 15.4071 22.6 15.1072 23.5 14.8072C23.5667 14.8072 23.6001 14.7738 23.6001 14.7072C23.6668 14.9738 23.7 15.2071 23.7 15.4071C23.8 15.5071 23.9 15.7071 23.8 15.9071C23.7 16.0071 23.4999 16.0071 23.3999 16.1071C23.1999 16.1738 23.0332 16.2405 22.8999 16.3072C22.7999 16.4072 22.7 16.5071 22.8 16.6071C22.8 16.6738 22.8667 16.7072 23 16.7072C23.1333 16.6405 23.2666 16.5738 23.3999 16.5071C23.5332 16.4405 23.6999 16.3738 23.8999 16.3072C23.8999 16.3738 23.8999 16.4071 23.8999 16.4071C23.9666 16.8071 24.0334 17.2071 24.1001 17.6071C24.1668 17.7405 24.1333 17.8072 24 17.8072C23.7333 17.9405 23.4666 18.0738 23.2 18.2072C23.1 18.2072 23.0001 18.3071 23.1001 18.4071C23.1001 18.6071 23.2999 18.5071 23.3999 18.5071C23.6666 18.3738 23.9333 18.2405 24.2 18.1071C24.2666 18.3071 24.3 18.4738 24.3 18.6071C24.3667 18.8738 24.3999 19.1072 24.3999 19.3072Z" fill="#7358A4"/>
<path d="M22.8 4.00714C23 4.60714 22.5998 5.30714 21.8998 5.40714C21.8332 5.40714 21.8 5.40714 21.8 5.40714C21.1 5.50713 20.6999 5.20715 20.4999 4.60715C20.2333 3.74048 20 2.84047 19.8 1.90714C19.6 1.30713 20.0998 0.607141 20.8998 0.507141C21.4998 0.507141 21.9 0.807135 22.1 1.40714C22.3667 2.2738 22.6 3.14047 22.8 4.00714Z" fill="#EC5F42"/>
<path d="M23.3001 14.3072C23.4001 14.4072 23.4001 14.4071 23.3001 14.5071C22.9001 14.6071 22.4001 14.8071 22.0001 14.9071C21.2667 15.1071 20.5 15.3071 19.7 15.5071C19.1 15.6071 18.5001 15.6072 18.0001 15.7072C16.9001 15.8072 15.9001 15.8072 15.0001 15.7072C14.3001 15.6072 13.7 15.5071 13.2 15.1071C12.4 14.7071 12.5001 13.7072 13.0001 13.2072C13.1334 13.0738 13.2334 12.9738 13.3001 12.9071C13.3668 13.0405 13.4334 13.1405 13.5001 13.2072C13.8001 13.7072 14.2 13.9072 14.7 14.2072C15.3 14.4072 15.9001 14.5071 16.5001 14.6071C17.6001 14.7071 18.7001 14.6072 19.8001 14.3072C20.7001 14.2072 21.6 13.9071 22.4 13.5071C22.5333 13.3738 22.6333 13.3738 22.7 13.5071C22.9 13.7738 23.1001 14.0405 23.3001 14.3072Z" fill="#7358A4"/>
<path d="M20.0001 4.60715C20.2001 5.30715 19.8001 5.90715 19.2001 6.10715C18.8001 6.24048 18.4335 6.20714 18.1002 6.00714C17.8335 5.94047 17.6334 5.74047 17.5001 5.40714C17.5001 5.2738 17.4667 5.14047 17.4 5.00714C17.4 4.90714 17.4 4.80715 17.4 4.70715C18 4.00715 17.7 2.90716 16.9 2.30716C16.7 2.20716 16.6001 2.00715 16.5001 1.70715C16.4334 1.50715 16.4669 1.27381 16.6002 1.00714C16.8002 0.607141 17.2002 0.407159 17.8002 0.307159C18.2002 0.307159 18.7 0.407135 18.9 0.907135C18.9667 0.973802 19.0335 1.10716 19.1002 1.30716C19.3669 2.44049 19.6668 3.54048 20.0001 4.60715Z" fill="#EC5F42"/>
<path d="M15.9999 1.90715L15.8998 2.00715C15.2998 2.00715 14.8999 2.30716 14.4999 2.70716C14.2999 2.8405 14.0666 3.00716 13.8 3.20716C13.7 2.70716 13.5999 2.30715 13.4999 1.90715C13.3999 1.40715 13.7 0.807158 14.3 0.607158C14.8 0.407158 15.4999 0.607158 15.6999 1.10716C15.7999 1.30716 15.8999 1.60715 15.9999 1.90715Z" fill="#EC5F42"/>
<path d="M13.3998 3.40714C13.3998 3.50713 13.4 3.60715 13.3 3.70715C12.7 4.17382 12.1334 4.64048 11.6 5.10715C11.4 5.20715 11.4 5.20714 11.3 5.00714C11.1 4.20714 10.8999 3.44049 10.6999 2.70715C10.4999 1.90715 11.1 1.30715 11.8 1.20715C12.3 1.20715 12.7999 1.50714 12.9999 2.00714C13.1333 2.47381 13.2665 2.94047 13.3998 3.40714Z" fill="#EC5F42"/>
<path d="M11.7 34.3072C11.5 34.1072 11.4001 34.0071 11.1001 34.0071C10.6001 33.9071 10.3 34.3072 10.2 34.7072C10.1 35.0072 10.2 35.2071 10.3 35.4071L10.7 36.1071C11.2 36.7071 11.4 37.1071 11.2 37.9071C11 38.8071 10.2999 39.4071 9.3999 39.4071C9.0999 39.4071 8.8001 39.3071 8.6001 39.1071L8.80005 38.2072C9.00005 38.4072 9.2 38.6071 9.5 38.6071C10 38.6071 10.2999 38.3072 10.3999 37.8072C10.6999 36.6072 8.9999 36.3072 9.3999 34.7072C9.5999 33.8072 10.2001 33.2072 11.1001 33.2072C11.4334 33.2072 11.6999 33.3071 11.8999 33.5071L11.7 34.3072Z" fill="#FEFEFE"/>
<path d="M14.8999 33.5071L14.7 34.2072L13.3999 34.1071L12.8999 36.0071L14.2 36.1071L14 36.8072L12.8 36.7072L12.3 38.8072L13.7 38.9071L13.5 39.6071L11.3999 39.4071L12.7 33.4071L14.8999 33.5071Z" fill="#FEFEFE"/>
<path fill-rule="evenodd" clip-rule="evenodd" d="M17.7 33.7072C18.6 33.8072 19.7 33.9071 19 37.0071C18.4 39.7071 17.4 39.8072 16 39.7072H15.3999L16.8 33.6071L17.7 33.7072ZM17.3999 34.4071L16.3999 39.1071C17.6999 39.2071 17.9 38.0071 18.2 36.9071C18.4 36.0071 18.7999 34.4071 17.3999 34.4071Z" fill="#FEFEFE"/>
<path d="M22.5 34.0071L22.3999 34.7072L21 34.6071L20.6001 36.5071L21.8 36.6071L21.6001 37.3072L20.3999 37.2072L20 39.3072H21.3L21.2 40.0071L19 39.9071L20.3 33.9071L22.5 34.0071Z" fill="#FEFEFE"/>
<path d="M25.1001 35.0071C25.0001 34.9071 24.8001 34.8071 24.6001 34.8071C23.5001 34.7071 23.1 36.4071 23 37.1071C22.8 37.9071 22.5001 39.4071 23.6001 39.5071C23.8001 39.5071 23.9668 39.4738 24.1001 39.4071L24 40.1071C23.7333 40.2405 23.5001 40.3071 23.3001 40.3071C21.6001 40.2071 21.8001 38.4071 22.1001 37.1071C22.4001 35.9071 23.0001 33.9071 24.6001 34.1071C24.9001 34.1071 25.1001 34.1071 25.3001 34.3071L25.1001 35.0071Z" fill="#FEFEFE"/>
<path d="M26.5 34.3072L25.3 39.6071L26.7 39.7072L26.6001 40.4071L24.3999 40.2072L25.7 34.2072L26.5 34.3072Z" fill="#FEFEFE"/>
<path fill-rule="evenodd" clip-rule="evenodd" d="M29.7 34.4071V40.6071L28.8999 40.5071V39.3072H27.7L27.2 40.4071H26.3999L29.1001 34.4071H29.7ZM28.8999 37.8072L29.1001 35.6071L27.8999 38.6071L28.8999 38.7072V37.8072Z" fill="#FEFEFE"/>
<path fill-rule="evenodd" clip-rule="evenodd" d="M31.3999 34.6071H32.3C32.9 34.6071 33.8 34.7072 33.5 36.3072C33.4 36.8072 33 37.7072 32.3 37.8072L32.8 40.8072L31.8999 40.7072L31.5 37.7072L30.8 40.6071H30L31.3999 34.6071ZM32.6001 36.4071C32.8001 35.8071 32.8 35.4072 32.2 35.3072H32.1001L31.6001 37.3072C32.2001 37.4072 32.5001 37.0071 32.6001 36.4071Z" fill="#FEFEFE"/>
<path fill-rule="evenodd" clip-rule="evenodd" d="M36 34.8072V41.0071L35.2 40.9071V39.7072L34 39.6071L33.5 40.8072H32.7L35.3999 34.8072H36ZM35.2 38.2072L35.3999 36.0071L34.2 39.0071L35.2 39.1071V38.2072Z" fill="#FEFEFE"/>
<path d="M10.1001 52.1071V56.6071V56.3072L10.7 54.9071L11.8 52.2072L12.5 52.3072L11.8 58.4071L11 58.3072L11.3 56.1071L11.5 54.9071L11.7 54.1071L11.3 55.0071L10 58.3072L9.3999 58.2072L9.6001 54.0071H9.5L8.3999 58.2072L7.6001 58.1071L9.3999 52.1071H10.1001Z" fill="#FEFEFE"/>
<path fill-rule="evenodd" clip-rule="evenodd" d="M15.1001 52.4071V58.6071L14.3 58.5071V57.3072L13.1001 57.2072L12.6001 58.4071H11.8L14.3999 52.4071H15.1001ZM14.3999 55.8072L14.6001 53.5071L13.3999 56.6071H14.3999V55.8072Z" fill="#FEFEFE"/>
<path fill-rule="evenodd" clip-rule="evenodd" d="M17.6001 52.6071C18.6001 52.6071 19.7 52.8072 19 55.8072C18.4 58.6072 17.4 58.7071 16 58.6071H15.3999L16.7 52.5071L17.6001 52.6071ZM17.3999 53.3072L16.3999 58.0071C17.6999 58.1071 17.9001 56.9072 18.1001 55.8072C18.3001 54.9072 18.7999 53.3072 17.3999 53.3072Z" fill="#FEFEFE"/>
<path fill-rule="evenodd" clip-rule="evenodd" d="M20.3 52.7072L21.3 52.8072C21.9 52.8072 22.8 52.9071 22.5 54.4071C22.3 55.0071 22 55.9071 21.3 55.9071L21.8 58.9071H20.8999L20.5 55.9071H20.3999L19.8 58.8072H19L20.3 52.7072ZM21.5 54.5071C21.7 53.9071 21.7001 53.4071 21.1001 53.4071H20.8999L20.5 55.4071C21.1 55.5071 21.4 55.1071 21.5 54.5071Z" fill="#FEFEFE"/>
<path d="M25.6001 53.0071L25.5 53.7072H24.1001L23.7 55.6071H24.8999L24.8 56.3072H23.6001L23.1001 58.3072L24.5 58.4071L24.3 59.1071L22.1001 59.0071L23.5 52.9071L25.6001 53.0071Z" fill="#FEFEFE"/>
<path d="M27.8 54.1071C27.6 53.9071 27.4001 53.8072 27.1001 53.8072C26.7001 53.8072 26.3 54.1071 26.2 54.6071C26.2 54.8071 26.2 55.0072 26.3 55.2072L26.8 55.9071C27.2 56.5071 27.4 56.9072 27.3 57.7072C27.1 58.6072 26.4 59.3072 25.5 59.2072C25.2 59.2072 24.9 59.1071 24.7 58.9071L24.8 58.1071C25 58.3071 25.2001 58.4071 25.6001 58.5071C26.1001 58.5071 26.4 58.1072 26.5 57.7072C26.7 56.4072 25.0999 56.1071 25.3999 54.5071C25.5999 53.7071 26.2001 53.0071 27.1001 53.1071C27.4334 53.1071 27.6999 53.1738 27.8999 53.3072L27.8 54.1071Z" fill="#FEFEFE"/>
<path fill-rule="evenodd" clip-rule="evenodd" d="M81 37.6071V43.7072H80.2V42.5071L79 42.4071L78.5 43.6071L77.8 43.5071L80.3999 37.5071L81 37.6071ZM80.3 41.0071L80.3999 38.8072L79.3 41.8072L80.2 41.9071L80.3 41.0071Z" fill="#FEFEFE"/>
<path fill-rule="evenodd" clip-rule="evenodd" d="M72.5 46.5071C73.5 46.6071 74.5999 46.7072 73.8999 49.8072C73.2999 52.6072 72.2999 52.7071 70.8999 52.6071L70.3 52.5071L71.6001 46.5071H72.5ZM72.3 47.2072L71.3 51.9071C72.6 52.0071 72.8 50.7072 73 49.7072C73.2 48.8072 73.7 47.2072 72.3 47.2072Z" fill="#FEFEFE"/>
<path d="M77.3999 46.8072L77.2 47.5071L75.8999 47.4071L75.3999 49.3072L76.7 49.4071L76.5 50.1071L75.3 50.0071L74.8 52.1071L76.2 52.2072L76.1001 52.9071L73.8999 52.8072L75.2 46.7072L77.3999 46.8072Z" fill="#FEFEFE"/>
<path d="M76.1001 42.7072L37.7 40.2072L38.6001 35.5071L76.8999 37.9071L76.1001 42.7072Z" fill="#7358A4"/>
<path d="M42.5 34.2072L41.3999 39.5071L44.6001 39.7072L44.2 41.8072L38.7 41.5071L40.2 34.0071L42.5 34.2072Z" fill="#FEFEFE"/>
<path d="M44.8999 41.8072L46.3999 34.4071L48.7 34.6071L47.1001 42.0071L44.8999 41.8072Z" fill="#FEFEFE"/>
<path fill-rule="evenodd" clip-rule="evenodd" d="M48.3 42.1071L49.8 34.6071L53.1001 34.8072C53.1668 34.8738 53.2666 34.9071 53.3999 34.9071C53.5332 34.9071 53.7333 34.9405 54 35.0071C54.2667 35.1405 54.5 35.2738 54.7 35.4071C54.9 35.5405 55.0334 35.7405 55.1001 36.0071C55.2334 36.3405 55.2666 36.6738 55.2 37.0071C55.0666 37.6071 54.7667 38.1071 54.3 38.5071C54.8334 38.9071 55.0332 39.4405 54.8999 40.1071C54.5666 41.7071 53.3667 42.4405 51.3 42.3072L48.3 42.1071ZM50.8999 40.1071L51.8999 40.2072C52.2332 40.2072 52.4333 40.0738 52.5 39.8072C52.5 39.5405 52.3668 39.4071 52.1001 39.4071L51.1001 39.3072L50.8999 40.1071ZM51.3999 37.7072H52.3C52.5 37.8072 52.7 37.7071 52.8 37.4071C52.8 37.1071 52.6 37.0071 52.5 37.0071L51.6001 36.9071L51.3999 37.7072Z" fill="#FEFEFE"/>
<path fill-rule="evenodd" clip-rule="evenodd" d="M62 42.9071L59.3 42.8072L58.1001 40.8072H57.8999L57.6001 42.7072L55.3 42.5071L56.8 35.1071L59.8999 35.3072C59.9999 35.3072 60.1 35.3071 60.5 35.4071C60.9 35.5071 61.2001 35.6071 61.6001 35.9071C62.0001 36.2071 62.2999 36.6072 62.3999 37.2072C62.4666 37.5405 62.4334 37.9072 62.3 38.3072C62.1 39.3072 61.5334 40.0405 60.6001 40.5071L62 42.9071ZM58.6001 37.2072L58.3999 38.6071L59.2 38.7072C59.6 38.7072 59.8667 38.4738 60 38.0071C60.1 37.6071 59.9 37.3072 59.5 37.3072L58.6001 37.2072Z" fill="#FEFEFE"/>
<path d="M66 37.8072L65.8999 38.5071L68.8 38.7072L68.3999 40.6071L65.5 40.4071L65.3999 41.0071L68.5 41.2072L68.1001 43.3072L62.7 43.0071L64.2 35.6071L69.7 35.9071L69.2 38.0071L66 37.8072Z" fill="#FEFEFE"/>
<path d="M70.8999 40.7072C71.3666 41.3072 71.9 41.6405 72.5 41.7072C72.9667 41.7072 73.2334 41.6071 73.3 41.4071C73.3 41.2738 73.2 41.1405 73 41.0071C72.7333 40.9405 72.4334 40.8071 72.1001 40.6071C71.7668 40.4738 71.4666 40.3071 71.2 40.1071C70.8666 39.9071 70.5999 39.6405 70.3999 39.3072C70.1999 38.9738 70.1667 38.5738 70.3 38.1071C70.3667 37.7071 70.6334 37.2405 71.1001 36.7072C71.6001 36.3072 72.5 36.0071 73.5 36.0071C74.3 36.1071 74.9999 36.4072 75.3999 36.7072C75.7999 37.0072 76.1 37.4071 76.2 37.6071L76.3 37.8072L74.6001 38.9071C74.3334 38.5738 74.0999 38.3405 73.8999 38.2072C73.6999 38.1405 73.4666 38.1071 73.2 38.1071C72.8 38.0071 72.6001 38.2072 72.6001 38.3072C72.5001 38.5072 72.8999 38.8071 73.3999 38.9071C73.5999 39.0405 73.8666 39.1738 74.2 39.3072C74.4666 39.5072 74.6999 39.6738 74.8999 39.8072C75.1666 40.0072 75.3667 40.2738 75.5 40.6071C75.5667 40.8738 75.5667 41.2071 75.5 41.6071C75.4 42.0071 75.1001 42.5071 74.6001 43.0071C74.1001 43.5071 73.1001 43.8072 72.1001 43.7072C71.2334 43.6405 70.5668 43.4071 70.1001 43.0071C69.5668 42.6071 69.2666 42.1738 69.2 41.7072L70.8999 40.7072Z" fill="#FEFEFE"/>
<path d="M68 51.8072L9.8999 48.0071L10.7 43.3072L68.6001 47.1071L68 51.8072Z" fill="#7358A4"/>
<path d="M15.8 49.8072L16.2 47.4071L14.3999 47.3072L13.8999 49.7072L11.7 49.6071L13.2 42.1071L15.3999 42.2072L14.8 45.2072L16.7 45.3072L17.3 42.3072L19.6001 42.5071L18 50.0071L15.8 49.8072Z" fill="#FEFEFE"/>
<path d="M19.2 50.0071L20.8 42.6071L23 42.7072L21.5 50.2072L19.2 50.0071Z" fill="#FEFEFE"/>
<path d="M22.3999 48.5071L24.3 47.7072C24.5667 48.1738 24.8334 48.4071 25.1001 48.4071C25.5001 48.4738 25.7334 48.3405 25.8 48.0071L26.8999 43.0071L29.1001 43.1071L28.1001 48.4071C27.9001 49.0071 27.4999 49.5405 26.8999 50.0071C26.2999 50.4071 25.5666 50.5738 24.7 50.5071C24.1 50.5071 23.4001 50.2072 23.1001 49.8072C22.8001 49.4072 22.4999 49.0072 22.3999 48.7072V48.5071Z" fill="#FEFEFE"/>
<path fill-rule="evenodd" clip-rule="evenodd" d="M34.1001 43.3072C35.2334 43.3738 36.1 43.8071 36.7 44.6071C37.3666 45.4071 37.5667 46.3405 37.3001 47.4071C37.1001 48.4738 36.5334 49.3738 35.6001 50.1071C34.6668 50.7738 33.6333 51.0738 32.5 51.0071C31.4333 50.9405 30.6 50.5072 30 49.7071C29.3333 48.9071 29.1332 47.9738 29.3999 46.9071C29.5999 45.8405 30.1668 44.9405 31.1001 44.2072C32.0334 43.5405 33.0334 43.2405 34.1001 43.3072ZM33 48.9071C33.4667 48.9738 33.8666 48.8405 34.2 48.5071C34.6 48.1738 34.8667 47.7738 35 47.3072C35.0667 46.7738 35.0001 46.3405 34.8001 46.0071C34.5334 45.6071 34.1666 45.4071 33.7 45.4071C33.2333 45.3405 32.7999 45.4738 32.3999 45.8072C32.0666 46.1405 31.8333 46.5738 31.7 47.1071C31.6333 47.5738 31.6999 47.9738 31.8999 48.3072C32.1666 48.7072 32.5333 48.9071 33 48.9071Z" fill="#FEFEFE"/>
<path d="M39.3 48.5071C39.7667 49.1071 40.3333 49.4405 41 49.5071C41.4 49.5071 41.6333 49.4071 41.7 49.2071C41.7 49.0738 41.5999 48.9405 41.3999 48.8072C41.1332 48.7405 40.8333 48.6071 40.5 48.4071C40.1667 48.2738 39.8668 48.1071 39.6001 47.9071C39.2668 47.7071 39 47.4405 38.8 47.1071C38.6 46.7738 38.5666 46.3738 38.7 45.9071C38.7666 45.4405 39.0333 44.9738 39.5 44.5071C40 44.0071 40.9 43.7072 42 43.8072C42.8 43.8072 43.4999 44.1071 43.8999 44.5071C44.2999 44.8071 44.6 45.2071 44.7 45.4071V45.6071L43 46.6071C42.8 46.3405 42.5999 46.1405 42.3999 46.0071C42.1999 45.9405 41.9334 45.8738 41.6001 45.8072C41.2001 45.8072 41 45.9071 41 46.1071C40.9 46.3071 41.3 46.5071 41.8 46.7071C42.0667 46.8405 42.3334 46.9738 42.6001 47.1071C42.8668 47.2405 43.1332 47.4071 43.3999 47.6071C43.5999 47.8071 43.7666 48.0738 43.8999 48.4071C44.0332 48.6738 44.0667 49.0071 44 49.4071C43.9 49.9071 43.6 50.4072 43 50.8072C42.5 51.3072 41.5 51.6071 40.5 51.5071C39.6333 51.5071 38.9667 51.2738 38.5 50.8072C37.9667 50.4072 37.6333 49.9738 37.5 49.5071L39.3 48.5071Z" fill="#FEFEFE"/>
<path d="M44.1001 52.6071L50.8 44.1071L53.2 44.2072L46.5 52.7072L44.1001 52.6071Z" fill="#FEFEFE"/>
<path fill-rule="evenodd" clip-rule="evenodd" d="M57.3999 44.9071L58.7 52.6071L56.2 52.4071L56.1001 51.6071L53.7 51.4071L53.2 52.2072L50.8 52.1071L55.1001 44.7072L57.3999 44.9071ZM54.8 49.5071H55.8L55.7 47.9071L54.8 49.5071Z" fill="#FEFEFE"/>
<path d="M61.2 49.9071C61.6 50.5071 62.1334 50.8405 62.8 50.9071C63.2 50.9071 63.4333 50.8071 63.5 50.6071C63.5 50.4738 63.4 50.3405 63.2 50.2071C62.9333 50.0738 62.6666 49.9405 62.3999 49.8072C62.0666 49.6738 61.7332 49.5072 61.3999 49.3072C61.0666 49.1072 60.8001 48.8405 60.6001 48.5071C60.4668 48.1071 60.4333 47.7072 60.5 47.3072C60.5667 46.8405 60.8334 46.3738 61.3 45.9071C61.8 45.4071 62.7 45.1071 63.8 45.2071C64.6 45.2071 65.3 45.5071 65.7 45.9071C66.1 46.2071 66.4 46.6072 66.5 46.8072V47.0071L64.8 48.0071C64.6 47.6738 64.4 47.4738 64.2 47.4071C64 47.3405 63.7332 47.2738 63.3999 47.2071C63.0999 47.2071 62.8 47.3071 62.8 47.5071C62.7 47.7071 63.1001 47.9071 63.6001 48.1071C63.8668 48.2405 64.1332 48.3738 64.3999 48.5071C64.6666 48.6405 64.9333 48.8071 65.2 49.0071C65.4 49.2071 65.5666 49.4405 65.7 49.7071C65.8333 50.0405 65.8667 50.4072 65.8 50.8072C65.7 51.2072 65.4 51.7071 64.8 52.2071C64.3 52.7071 63.4 53.0071 62.3 52.9071C61.4334 52.8405 60.7667 52.6071 60.3 52.2071C59.8334 51.8071 59.5332 51.3738 59.3999 50.9071L61.2 49.9071Z" fill="#FEFEFE"/>
<path d="M89.3 62.8072L29.3999 59.1071L30.2 54.4071L89.8 58.4071L89.3 62.8072Z" fill="#7358A4"/>
<path d="M34.3999 55.3072L34.2 56.0071L37.2 56.2072L36.8 58.1071L33.8 57.9071L33.7 58.5071L36.8999 58.8072L36.5 60.8072L31 60.5071L32.6001 53.1071L38 53.4071L37.6001 55.5071L34.3999 55.3072Z" fill="#FEFEFE"/>
<path d="M39.3 58.2072C39.7 58.8072 40.2332 59.1405 40.8999 59.2072C41.2999 59.2072 41.5334 59.1071 41.6001 58.9071C41.6001 58.7738 41.5 58.6405 41.3 58.5071C41.1 58.4405 40.8333 58.3071 40.5 58.1071C40.1667 57.9738 39.8333 57.8071 39.5 57.6071C39.1667 57.4071 38.9334 57.1405 38.8 56.8072C38.6 56.4738 38.5334 56.0738 38.6001 55.6071C38.6668 55.2071 38.9667 54.7738 39.5 54.3072C39.9 53.8072 40.7999 53.5071 41.8999 53.5071C42.6999 53.6071 43.4 53.9072 43.8 54.2072C44.2 54.6072 44.4001 54.9071 44.6001 55.1071V55.3072L42.8999 56.4071C42.6999 56.0738 42.5 55.8405 42.3 55.7072C42.1 55.6405 41.8333 55.6071 41.5 55.6071C41.2 55.6071 40.8999 55.7072 40.8999 55.8072C40.8999 56.0072 41.2 56.3071 41.7 56.5071C41.9666 56.5738 42.2333 56.6738 42.5 56.8072C42.7667 57.0072 43.0334 57.1738 43.3 57.3072C43.5 57.5072 43.6667 57.7738 43.8 58.1071C43.9334 58.3738 43.9666 58.7071 43.8999 59.1071C43.7999 59.6071 43.4999 60.1071 42.8999 60.5071C42.3999 61.0071 41.4999 61.3072 40.3999 61.2072C39.5332 61.2072 38.8666 60.9738 38.3999 60.5071C37.9332 60.1071 37.6333 59.7072 37.5 59.3072L39.3 58.2072Z" fill="#FEFEFE"/>
<path d="M52.7 58.7072C52.3667 59.6405 51.7666 60.4071 50.8999 61.0071C50.0333 61.5405 49.1001 61.7738 48.1001 61.7072C47.0335 61.6405 46.2001 61.2071 45.6001 60.4071C45.0001 59.6071 44.8 58.6738 45 57.6071C45.2 56.5405 45.7667 55.6738 46.7 55.0071C47.6333 54.2738 48.6333 53.9405 49.7 54.0071C50.7 54.0738 51.5001 54.4405 52.1001 55.1071C52.7001 55.7738 53 56.5738 53 57.5071L50.6001 57.4071C50.5335 57.0738 50.3668 56.7738 50.1001 56.5071C49.9001 56.3071 49.6334 56.1738 49.3001 56.1071C48.8334 56.1071 48.4 56.2738 48 56.6071C47.6667 56.8738 47.4334 57.2738 47.3001 57.8072C47.2334 58.2738 47.3 58.7071 47.5 59.1071C47.7667 59.4405 48.1335 59.6071 48.6001 59.6071C48.9335 59.6738 49.2334 59.6071 49.5 59.4071C49.8334 59.2071 50.1001 58.9405 50.3001 58.6071L52.7 58.7072Z" fill="#FEFEFE"/>
<path d="M56.7 54.6071L55.6001 59.9071L58.8 60.1071L58.3999 62.2072L52.8999 61.9071L54.3999 54.5071L56.7 54.6071Z" fill="#FEFEFE"/>
<path fill-rule="evenodd" clip-rule="evenodd" d="M65.3999 55.2072L66.7 62.8072L64.2 62.6071L64.1001 61.8072L61.7 61.7072L61.3 62.4071L58.8999 62.3072L63.2 55.0071L65.3999 55.2072ZM62.8 59.7072L63.8 59.8072L63.6001 58.2072L62.8 59.7072Z" fill="#FEFEFE"/>
<path d="M70.7 63.0071L68.3999 62.9071L67.2 55.3072L69.6001 55.4071L70.2 59.9071L72.6001 55.6071L75 55.8072L70.7 63.0071Z" fill="#FEFEFE"/>
<path fill-rule="evenodd" clip-rule="evenodd" d="M79.1001 56.0071L80.3 63.6071L77.8999 63.5071L77.8 62.7072L75.3 62.5071L74.8999 63.3072L72.5 63.1071L76.8 55.9071L79.1001 56.0071ZM76.5 60.5071H77.5L77.3 58.9071L76.5 60.5071Z" fill="#FEFEFE"/>
<path d="M82.8 61.0071C83.2 61.6071 83.7332 61.9405 84.3999 62.0071C84.7999 62.0071 85.0334 61.9071 85.1001 61.7071C85.1001 61.5738 85 61.4405 84.8 61.3072C84.6 61.1738 84.3333 61.0405 84 60.9071C83.6667 60.7738 83.3333 60.6071 83 60.4071C82.6667 60.2071 82.4 59.9405 82.2 59.6071C82.0666 59.2738 82.0334 58.8738 82.1001 58.4071C82.1668 57.9405 82.4667 57.4738 83 57.0071C83.4 56.5071 84.2999 56.2072 85.3999 56.3072C86.1999 56.4072 86.9 56.6071 87.3 57.0071C87.7 57.3071 87.9 57.7071 88 57.9071L88.1001 58.1071L86.3999 59.1071C86.1999 58.8405 86 58.6405 85.8 58.5071C85.6 58.4405 85.3333 58.3738 85 58.3072C84.7 58.3072 84.3999 58.5071 84.3999 58.6071C84.2999 58.8071 84.7 59.0071 85.2 59.2071C85.4666 59.3405 85.7333 59.4738 86 59.6071C86.2667 59.7405 86.5334 59.9071 86.8 60.1071C87 60.3071 87.1667 60.5405 87.3 60.8072C87.4334 61.1405 87.4666 61.5071 87.3999 61.9071C87.2999 62.3071 86.9999 62.8072 86.3999 63.3072C85.8999 63.8072 84.9999 64.1071 83.8999 64.0071C83.0332 63.9405 82.3666 63.7072 81.8999 63.3072C81.4332 62.9072 81.1333 62.4738 81 62.0071L82.8 61.0071Z" fill="#FEFEFE"/>
<path d="M80.3999 73.3072L5 68.2072L5.3999 63.1071L80.7 68.1071L80.3999 73.3072Z" fill="#FEFEFE"/>
<path fill-rule="evenodd" clip-rule="evenodd" d="M12.2 66.9071C11.8 67.1738 11.3334 67.3072 10.8 67.3072L9.8999 67.2072L10.6001 63.6071L11.6001 63.7072C12.1334 63.7738 12.5 63.9738 12.7 64.3072C12.9666 64.6405 13.0332 65.0738 12.8999 65.6071C12.8332 66.1405 12.6 66.5738 12.2 66.9071ZM11 64.1071L10.5 66.8072H11C11.3333 66.8072 11.6332 66.7071 11.8999 66.5071C12.1666 66.3071 12.3332 66.0071 12.3999 65.6071C12.5332 65.2071 12.5 64.8738 12.3 64.6071C12.1 64.3405 11.8333 64.2072 11.5 64.2072L11 64.1071Z" fill="#FEFEFE"/>
<path d="M14.2 64.8072L13.7 67.5071L13.2 67.4071L13.7 64.8072H14.2ZM14.3 64.5071L13.8 64.4071L14.3 63.8072H14.8999L14.3 64.5071Z" fill="#FEFEFE"/>
<path fill-rule="evenodd" clip-rule="evenodd" d="M16.1999 67.6071L16.3 67.3072C16.1666 67.4405 16.0332 67.5405 15.8998 67.6071C15.7665 67.6071 15.6667 67.6071 15.6 67.6071C15.5334 67.6738 15.4665 67.6738 15.3998 67.6071C15.0665 67.6071 14.8332 67.4738 14.6999 67.2072C14.5665 66.9405 14.5334 66.6072 14.6 66.2072C14.6667 65.8072 14.8334 65.4738 15.1 65.2072C15.3 65.0072 15.5665 64.9071 15.8998 64.9071C16.0332 64.9071 16.1332 64.9071 16.1999 64.9071C16.2665 64.9071 16.3332 64.9405 16.3998 65.0071C16.5332 65.0738 16.6332 65.1738 16.6999 65.3072V65.0071H17.1999L16.6999 67.7072L16.1999 67.6071ZM16.3998 66.3072C16.5332 65.6405 16.3665 65.3072 15.8998 65.3072C15.4998 65.3072 15.2334 65.6072 15.1 66.2072C14.9667 66.8072 15.1334 67.1071 15.6 67.1071C16.0667 67.1738 16.3332 66.9072 16.3998 66.3072Z" fill="#FEFEFE"/>
<path d="M20.2 67.3072H20.1001L19.5 65.1071L18.8999 67.8072H18.3999L19.2 64.2072H19.7L20.3999 66.3072L21.8 64.4071H22.3L21.6001 68.0071H21.1001L21.7 65.3072L20.2 67.3072Z" fill="#FEFEFE"/>
<path d="M24.7001 67.0071C24.5001 67.8738 24.0667 68.2738 23.4 68.2072C22.6667 68.1405 22.4002 67.7071 22.6002 66.9071L22.9 65.4071L23.4 65.5071L23.1002 66.9071C22.9669 67.4405 23.1001 67.7072 23.5001 67.7072C23.8334 67.7738 24.0667 67.5405 24.2001 67.0071L24.5001 65.5071L25.0001 65.6071L24.7001 67.0071Z" fill="#FEFEFE"/>
<path d="M26.8 68.3072L27.1001 66.9071C27.1668 66.3738 27.0667 66.1071 26.8 66.1071C26.5 66.1071 26.3 66.2071 26.2 66.4071C26.0666 66.5405 26 66.6738 26 66.8072L25.7 68.3072L25.2 68.2072L25.7 65.6071L26.2 65.7072L26.1001 66.0071C26.3001 65.7405 26.5666 65.6071 26.8999 65.6071C27.2999 65.7071 27.5001 65.8071 27.6001 66.0071C27.6001 66.0738 27.6001 66.1738 27.6001 66.3072C27.7001 66.5072 27.6001 66.6072 27.6001 66.7072L27.3 68.4071L26.8 68.3072Z" fill="#FEFEFE"/>
<path fill-rule="evenodd" clip-rule="evenodd" d="M29.6999 68.5071L29.8 68.2072C29.6666 68.3405 29.5332 68.4405 29.3998 68.5071C29.3332 68.5738 29.2665 68.6071 29.1999 68.6071C29.1332 68.6071 29.0332 68.6071 28.8998 68.6071C28.5665 68.5405 28.3332 68.3738 28.1999 68.1071C28.0665 67.8405 28.0334 67.5071 28.1 67.1071C28.1667 66.7071 28.3334 66.3738 28.6 66.1071C28.8667 65.9071 29.1666 65.8072 29.4999 65.8072C29.5666 65.8072 29.6332 65.8072 29.6999 65.8072C29.7665 65.8738 29.8666 65.9405 29.9999 66.0071C30.0666 66.0738 30.1332 66.1405 30.1999 66.2072L30.4999 64.9071H30.9999L30.1999 68.6071L29.6999 68.5071ZM29.9999 67.2072C30.1333 66.6072 29.9666 66.2738 29.4999 66.2072C29.0333 66.2072 28.7334 66.5071 28.6 67.1071C28.4667 67.7071 28.6334 68.0071 29.1 68.0071C29.5667 68.0738 29.8666 67.8072 29.9999 67.2072Z" fill="#FEFEFE"/>
<path d="M31 68.6071L31.5 66.0071H32L31.5 68.7072L31 68.6071ZM31.7 65.1071C31.7666 65.0405 31.8332 65.0071 31.8999 65.0071C32.0999 65.0071 32.2 65.2072 32.2 65.3072C32.1 65.5072 32 65.6071 31.8 65.6071C31.6 65.6071 31.5001 65.5072 31.6001 65.3072C31.6001 65.2405 31.6333 65.1738 31.7 65.1071Z" fill="#FEFEFE"/>
<path fill-rule="evenodd" clip-rule="evenodd" d="M33.9999 68.8072V68.5071C33.9332 68.6405 33.8332 68.7405 33.6999 68.8072C33.5665 68.8072 33.4665 68.8072 33.3998 68.8072C33.3331 68.8738 33.2333 68.8738 33.1 68.8072C32.7667 68.8072 32.5331 68.6738 32.3998 68.4071C32.2665 68.1405 32.2665 67.8071 32.3998 67.4071C32.4665 67.0071 32.6 66.6738 32.8 66.4071C33.0666 66.2071 33.3665 66.1071 33.6999 66.1071C33.8332 66.1071 33.9332 66.1071 33.9999 66.1071C34.0666 66.1071 34.1332 66.1405 34.1999 66.2072C34.2665 66.2738 34.3331 66.3738 34.3998 66.5071L34.4999 66.2072H34.9999L34.3998 68.9071L33.9999 68.8072ZM34.3 67.5071C34.4333 66.8405 34.2666 66.5071 33.8 66.5071C33.3333 66.4405 33.0331 66.7405 32.8998 67.4071C32.8331 68.0071 32.9998 68.3072 33.3998 68.3072C33.8665 68.3738 34.1666 68.1071 34.3 67.5071Z" fill="#FEFEFE"/>
<path d="M35.2 68.9071L36 65.2072L36.5 65.3072L35.7 68.9071H35.2Z" fill="#FEFEFE"/>
<path fill-rule="evenodd" clip-rule="evenodd" d="M39.1999 69.2072L39.3 68.9071C39.1666 68.9738 39.0332 69.0405 38.8998 69.1071C38.7665 69.1738 38.6667 69.2072 38.6 69.2072C38.5334 69.2072 38.4665 69.2072 38.3998 69.2072C38.0665 69.2072 37.8332 69.0405 37.6999 68.7072C37.5665 68.4405 37.5334 68.1072 37.6 67.7072C37.6667 67.3072 37.8334 67.0072 38.1 66.8072C38.3 66.5405 38.5999 66.4071 38.9999 66.4071C39.0666 66.4738 39.1332 66.5071 39.1999 66.5071C39.2665 66.5071 39.3332 66.5405 39.3998 66.6071C39.5332 66.6738 39.6332 66.7738 39.6999 66.9071L39.9999 65.5071H40.3998L39.6999 69.2072H39.1999ZM39.4999 67.9071C39.6333 67.3071 39.4666 66.9738 38.9999 66.9071C38.5333 66.9071 38.2334 67.2072 38.1 67.8072C37.9667 68.4072 38.1334 68.7405 38.6 68.8072C39.0667 68.8072 39.3666 68.5071 39.4999 67.9071Z" fill="#FEFEFE"/>
<path fill-rule="evenodd" clip-rule="evenodd" d="M42.8998 68.3072L40.9999 68.2072C40.9999 68.6738 41.2 68.9071 41.6 68.9071C41.7334 68.9738 41.9 68.9405 42.1 68.8072L42.3 69.3072C42.1 69.3738 41.8333 69.4071 41.4999 69.4071C41.0999 69.4071 40.8332 69.2738 40.6999 69.0072C40.5665 68.7405 40.5334 68.3738 40.6 67.9071C40.6667 67.5071 40.8334 67.2072 41.1 67.0072C41.3667 66.7405 41.6666 66.6405 41.9999 66.7072C42.3999 66.7072 42.6666 66.8405 42.8 67.1072C42.9333 67.3738 42.9665 67.7072 42.8998 68.1072V68.3072ZM41.1999 67.8072L42.4999 67.9071C42.5666 67.4405 42.3999 67.1738 41.9999 67.1072C41.5999 67.1072 41.3332 67.3405 41.1999 67.8072Z" fill="#FEFEFE"/>
<path d="M44.2 69.5071L45 65.8072L45.5 65.9071L44.7 69.6071L44.2 69.5071Z" fill="#FEFEFE"/>
<path fill-rule="evenodd" clip-rule="evenodd" d="M47.1 67.0071C47.5 67.0071 47.7665 67.1405 47.8998 67.4071C48.0332 67.7405 48.0666 68.0738 47.9999 68.4071C47.9333 68.8071 47.7666 69.1405 47.4999 69.4071C47.2333 69.6738 46.8999 69.7738 46.4999 69.7072C46.1666 69.7072 45.8999 69.5738 45.6999 69.3072C45.5665 69.0405 45.5334 68.7072 45.6 68.3072C45.6667 67.9072 45.8334 67.5738 46.1 67.3072C46.3667 67.1072 46.7 67.0071 47.1 67.0071ZM47.4999 68.4071C47.5999 67.8071 47.4999 67.5071 46.9999 67.5071C46.5333 67.4405 46.2334 67.7072 46.1 68.3072C46 68.9072 46.2 69.2072 46.6 69.3072C47.0667 69.3072 47.3666 69.0071 47.4999 68.4071Z" fill="#FEFEFE"/>
<path d="M48.7 69.2072C48.7 69.2738 48.7334 69.3405 48.8 69.4071C48.9334 69.4071 49 69.4405 49 69.5071H49.1001C49.4334 69.5071 49.6333 69.4072 49.7 69.2072C49.7 69.0072 49.5999 68.9072 49.3999 68.8072C49.3332 68.8072 49.2334 68.7738 49.1001 68.7072C49.0334 68.6405 48.9334 68.5738 48.8 68.5071C48.7334 68.5071 48.6668 68.4405 48.6001 68.3072C48.6001 68.1738 48.6001 68.0405 48.6001 67.9071C48.6668 67.7071 48.8 67.5072 49 67.3072C49.1333 67.1738 49.3666 67.1405 49.7 67.2072C49.9666 67.2072 50.1999 67.3405 50.3999 67.6072L50 67.8072C49.9333 67.7405 49.8667 67.7072 49.8 67.7072C49.7334 67.6405 49.6668 67.6072 49.6001 67.6072C49.3334 67.6072 49.1668 67.7071 49.1001 67.9071C49.0001 68.3071 49.4999 68.3071 49.8999 68.5071C49.9666 68.5738 50.0666 68.6738 50.2 68.8072C50.2666 68.9405 50.2666 69.0738 50.2 69.2072C50.1333 69.4072 50.0332 69.5738 49.8999 69.7072C49.6999 69.8405 49.4334 69.9071 49.1001 69.9071C48.7001 69.9071 48.4999 69.7072 48.3999 69.6072C48.3332 69.5405 48.3 69.4738 48.3 69.4071L48.7 69.2072Z" fill="#FEFEFE"/>
<path d="M54 68.3072L54.3 66.6071H54.8L54.1001 70.2072L53.6001 70.1071L53.8999 68.8072L52.3999 68.7072L52.1001 70.0071H51.6001L52.3 66.4071L52.8 66.5071L52.5 68.2072L54 68.3072Z" fill="#FEFEFE"/>
<path d="M57.2001 69.2072C57.0001 70.0072 56.5667 70.4071 55.9 70.4071C55.1667 70.3405 54.9002 69.9071 55.1002 69.1071L55.4 67.6071L55.9 67.7072L55.6002 69.1071C55.4669 69.6405 55.6001 69.9071 56.0001 69.9071C56.3334 69.9071 56.5667 69.6738 56.7001 69.2072L57.0001 67.7072L57.5001 67.8072L57.2001 69.2072Z" fill="#FEFEFE"/>
<path d="M60 68.6071C59.9333 68.7405 59.8667 68.9071 59.8 69.1071L59.5 70.5071H59L59.3999 69.0071C59.4666 68.5405 59.3668 68.3072 59.1001 68.3072C58.7668 68.2405 58.5667 68.4738 58.5 69.0071L58.2 70.5071L57.7 70.4071L58.2 67.8072H58.7L58.6001 68.1071C58.8001 67.9071 59.0334 67.8072 59.3 67.8072C59.6 67.8072 59.8 68.0071 59.8 68.4071C60 68.0738 60.2668 67.9071 60.6001 67.9071C60.9001 67.9071 61.1 68.1072 61.2 68.2072C61.2666 68.2738 61.3 68.3738 61.3 68.5071C61.3 68.7071 61.3 68.9071 61.2 69.1071L60.8999 70.6071H60.3999L60.7 69.1071C60.8333 68.6405 60.7332 68.4071 60.3999 68.4071C60.2666 68.3405 60.1333 68.4071 60 68.6071Z" fill="#FEFEFE"/>
<path fill-rule="evenodd" clip-rule="evenodd" d="M64.0001 69.7072L62.2001 69.6072C62.1334 70.0738 62.3001 70.3405 62.7001 70.4071C62.9001 70.4071 63.1002 70.3738 63.3002 70.3072L63.5001 70.7072C63.3001 70.8405 63.0334 70.8738 62.7001 70.8072C62.3001 70.8072 62.0002 70.6738 61.8002 70.4071C61.6668 70.1405 61.6334 69.8071 61.7001 69.4071C61.8334 69.0071 62.0001 68.6738 62.2001 68.4071C62.4667 68.1405 62.8001 68.0405 63.2001 68.1072C63.5334 68.1072 63.8001 68.2405 64.0001 68.5072C64.1334 68.7738 64.1334 69.1072 64.0001 69.5072V69.7072ZM62.3002 69.2072L63.6002 69.3072C63.6669 68.8405 63.5002 68.5738 63.1002 68.5072C62.7002 68.5072 62.4335 68.7405 62.3002 69.2072Z" fill="#FEFEFE"/>
<path fill-rule="evenodd" clip-rule="evenodd" d="M66.1002 71.0071L66.2001 70.7072C66.0667 70.7738 65.9335 70.8405 65.8002 70.9071C65.7335 70.9738 65.6669 71.0071 65.6002 71.0071C65.5335 71.0071 65.4335 71.0071 65.3002 71.0071C64.9668 71.0071 64.7335 70.8738 64.6002 70.6071C64.4669 70.3405 64.4334 70.0071 64.5001 69.6071C64.5668 69.2071 64.7334 68.8738 65.0001 68.6071C65.2668 68.3405 65.5667 68.2405 65.9 68.3072C65.9667 68.3072 66.0335 68.3072 66.1002 68.3072C66.1669 68.3072 66.2667 68.3405 66.4 68.4071C66.4667 68.4738 66.5335 68.5738 66.6002 68.7072L66.9 67.3072H67.4L66.6002 71.0071H66.1002ZM66.4 69.7072C66.5333 69.1072 66.3667 68.8072 65.9 68.8072C65.4333 68.7405 65.1334 69.0071 65.0001 69.6071C64.8668 70.2071 65.0334 70.5405 65.5001 70.6071C65.9668 70.6071 66.2667 70.3072 66.4 69.7072Z" fill="#FEFEFE"/>
<path fill-rule="evenodd" clip-rule="evenodd" d="M69.1002 71.2072L69.2001 70.9071C69.0667 70.9738 68.9335 71.0405 68.8002 71.1072C68.7335 71.1738 68.6669 71.2072 68.6002 71.2072C68.5335 71.2072 68.4335 71.2072 68.3002 71.2072C67.9668 71.2072 67.7335 71.0738 67.6002 70.8072C67.4669 70.5405 67.4334 70.2072 67.5001 69.8072C67.5668 69.4072 67.7334 69.0738 68.0001 68.8072C68.2001 68.5405 68.5 68.4405 68.9 68.5072C68.9667 68.5072 69.0335 68.5072 69.1002 68.5072C69.1669 68.5072 69.2667 68.5405 69.4 68.6072C69.4667 68.6738 69.5335 68.7738 69.6002 68.9071V68.6072H70.1002L69.6002 71.2072H69.1002ZM69.4 69.9071C69.5333 69.3071 69.3667 69.0072 68.9 69.0072C68.4333 68.9405 68.1334 69.2072 68.0001 69.8072C67.8668 70.4072 68.0334 70.7405 68.5001 70.8072C68.9668 70.8072 69.2667 70.5071 69.4 69.9071Z" fill="#FEFEFE"/>
<path d="M70.3999 71.3072L71.1001 67.6071H71.6001L70.8 71.3072H70.3999Z" fill="#FEFEFE"/>
<path fill-rule="evenodd" clip-rule="evenodd" d="M74.0001 70.4071L72.2001 70.3072C72.1334 70.7738 72.3335 71.0071 72.8002 71.0071C72.9335 71.0738 73.1002 71.0405 73.3002 70.9071L73.5001 71.3072C73.3001 71.4405 73.0334 71.5071 72.7001 71.5071C72.3001 71.5071 72.0333 71.3738 71.9 71.1071C71.7 70.8405 71.6334 70.4738 71.7001 70.0071C71.8334 69.6071 72.0335 69.3071 72.3002 69.1071C72.5002 68.8405 72.8001 68.7072 73.2001 68.7072C73.6001 68.7738 73.8668 68.9405 74.0001 69.2072C74.1334 69.4738 74.1669 69.8072 74.1002 70.2072L74.0001 70.4071ZM72.2001 69.9071L73.5001 70.0071C73.5668 69.5405 73.4001 69.2738 73.0001 69.2072C72.6001 69.2072 72.3334 69.4405 72.2001 69.9071Z" fill="#FEFEFE"/>
<path d="M74.6001 70.9071C74.6668 70.9738 74.7334 71.0405 74.8 71.1071C74.8667 71.1738 74.9333 71.2072 75 71.2072H75.1001C75.4334 71.2738 75.6333 71.1738 75.7 70.9071C75.7 70.8071 75.5999 70.6071 75.3999 70.6071C75.3332 70.5405 75.2334 70.5071 75.1001 70.5071C75.0334 70.4405 74.9334 70.3738 74.8 70.3072C74.7334 70.2405 74.6668 70.1405 74.6001 70.0071C74.6001 69.9405 74.6001 69.8071 74.6001 69.6071C74.6668 69.4071 74.7666 69.2405 74.8999 69.1071C75.0999 68.9738 75.3666 68.9071 75.7 68.9071C75.9666 68.9071 76.1999 69.0405 76.3999 69.3072L76 69.6071C75.9333 69.5405 75.8667 69.4738 75.8 69.4071C75.7334 69.4071 75.6668 69.4071 75.6001 69.4071C75.3334 69.3405 75.1668 69.4405 75.1001 69.7072C75.0001 70.0072 75.4999 70.1072 75.8999 70.3072C75.9666 70.3738 76.0334 70.4405 76.1001 70.5071C76.1668 70.6405 76.2 70.8071 76.2 71.0071C76.1333 71.2071 76 71.3738 75.8 71.5071C75.6667 71.6405 75.4334 71.7072 75.1001 71.7072C74.7001 71.6072 74.4999 71.5071 74.3999 71.4071C74.3332 71.3405 74.2666 71.2405 74.2 71.1071L74.6001 70.9071Z" fill="#FEFEFE"/>
</svg>
