<svg width="149" height="117" viewBox="0 0 149 117" fill="none" xmlns="http://www.w3.org/2000/svg">
<path d="M122.076 105L0.5 97.7771L9.92373 42L131.5 49.2229L122.076 105Z" fill="#7AC057"/>
<path d="M130 117L122 104.5L131.1 49.3L137.5 71L130 117Z" fill="#107C3F"/>
<path d="M16.5 109.5L0 97.5L122 104.5L130 117L16.5 109.5Z" fill="#105B30"/>
<path d="M50.6639 98.5878C52.1665 97.6922 53.8679 97.1971 54.3734 95.2986C54.4746 94.8989 52.6768 94.0937 52.778 93.6939C52.2725 95.5925 50.5707 96.1876 48.9684 96.9829C47.6661 97.7792 46.4625 99.0757 47.1579 100.678C47.3561 101.278 48.4551 101.581 48.7531 102.282C48.058 100.58 49.2619 99.2838 50.6639 98.5878Z" fill="#FCE003"/>
<path d="M100.194 53.731C101.29 55.2342 101.985 56.8361 103.884 57.1416C104.284 57.2428 104.889 55.3446 105.289 55.3457C103.29 55.0399 102.595 53.4379 101.599 51.935C100.703 50.7324 99.2058 49.6281 97.7032 50.5238C97.1021 50.922 96.899 52.0214 96.2981 52.3197C97.9007 51.4243 99.2974 52.5284 100.194 53.731Z" fill="#FCE003"/>
<path d="M34.4449 70.6408C32.8417 71.7362 31.0394 72.531 30.633 74.7298C30.5318 75.1295 32.7298 75.8359 32.6287 76.2356C33.035 74.0367 34.8371 73.342 36.4406 72.1466C37.8434 71.1506 39.0479 69.5541 38.0528 67.8512C37.6549 67.1501 36.4552 67.0466 36.0572 66.3455C37.0523 68.0484 35.8478 69.6449 34.4449 70.6408Z" fill="#FCE003"/>
<path d="M123.936 73.8998C122.332 75.0951 120.53 75.7899 120.224 77.9891C120.123 78.3888 122.221 79.0948 122.22 79.4948C122.526 77.3957 124.328 76.6009 125.931 75.4055C127.434 74.4099 128.539 72.9131 127.644 71.1105C127.245 70.5093 125.946 70.3056 125.648 69.6047C126.543 71.3073 125.439 72.9041 123.936 73.8998Z" fill="#FCE003"/>
<path d="M68.3431 71.2389C67.1468 69.9354 66.1513 68.4325 64.2513 68.427C63.8513 68.4259 63.5454 70.425 63.1454 70.4239C65.1454 70.4296 66.041 71.9322 67.3376 73.136C68.3344 74.2389 69.9318 75.1435 71.3349 74.0475C71.8364 73.549 71.8397 72.449 72.4408 72.0507C71.0377 73.1467 69.4399 72.3421 68.3431 71.2389Z" fill="#FCE003"/>
<path d="M103.272 95.9401C102.965 98.1392 101.061 99.8337 98.8601 100.027C99.1601 100.028 99.7547 101.93 100.155 101.931C102.455 101.738 104.26 100.043 104.667 97.7441C104.768 97.2444 103.27 96.4401 103.272 95.9401Z" fill="#DD4297"/>
<path d="M37.4625 99.0496C39.7613 99.4563 41.4563 101.261 41.6496 103.562C41.6508 103.162 43.552 102.667 43.4532 102.267C43.2599 99.9664 41.6655 98.0618 39.3667 97.6552C38.867 97.5537 37.9622 99.1511 37.4625 99.0496Z" fill="#DD4297"/>
<path d="M137.877 59.7401C136.671 61.6366 134.268 62.5297 132.071 61.8233C132.47 61.9245 132.265 63.9238 132.664 64.025C134.862 64.7313 137.165 63.938 138.47 61.9418C138.672 61.5424 137.575 60.1392 137.877 59.7401Z" fill="#DD4297"/>
<path d="M138.435 74.0417C140.634 74.4481 142.329 76.353 142.522 78.5536C142.523 78.2536 144.425 77.6591 144.426 77.2591C144.233 74.9585 142.538 73.1536 140.239 72.7469C139.74 72.6455 138.935 74.1432 138.435 74.0417Z" fill="#DD4297"/>
<path d="M48.5331 74.6816C50.8319 75.0882 52.4268 76.8929 52.6201 79.1934C52.6213 78.7934 54.5226 78.2989 54.5238 77.8989C54.3304 75.5984 52.636 73.6935 50.3372 73.2868C49.8372 73.2854 49.0328 74.783 48.5331 74.6816Z" fill="#DD4297"/>
<path d="M99.1604 65.328C99.154 67.528 97.7485 69.424 95.6471 69.9179C95.9474 69.8188 96.8425 71.5214 97.2428 71.4225C99.3443 70.9286 100.75 69.0327 100.756 66.8327C100.758 66.3327 99.1589 65.828 99.1604 65.328Z" fill="#DD4297"/>
<path fill-rule="evenodd" clip-rule="evenodd" d="M16.6053 107.203C16.7065 106.803 15.4095 105.8 15.511 105.3C16.3182 102.802 19.9204 102.013 22.1247 100.519C22.058 100.519 21.9914 100.519 21.9248 100.518C21.0259 100.116 19.7303 98.6121 19.434 97.3113C19.2366 96.4107 19.3388 95.711 20.0402 95.213C22.1448 93.6191 24.0355 96.8246 24.5303 98.626C25.0641 98.4942 25.5311 98.3289 25.9317 98.1301C27.9349 97.0359 29.2401 95.2396 29.7465 93.0411C29.6447 93.6408 30.8424 94.4443 30.7407 95.044C30.1326 97.8422 27.5247 100.535 24.6238 100.826C23.5151 103.823 17.5149 103.906 16.6053 107.203ZM23.5298 98.8231C23.7309 98.4237 23.7655 97.9571 23.6337 97.4234C22.4363 96.52 20.5359 96.7144 20.3316 98.2139C21.2298 98.8165 22.4292 99.0199 23.5298 98.8231Z" fill="#7358A4"/>
<path fill-rule="evenodd" clip-rule="evenodd" d="M95.5609 65.1176C95.2595 65.6167 96.3557 66.9199 96.0546 67.3191C94.5479 69.6147 90.7489 69.3037 88.1466 70.0962C88.2133 70.0964 88.2798 70.1299 88.3463 70.1968C89.1445 70.7991 89.9393 72.6014 89.835 74.1011C89.7327 74.9008 89.4304 75.6999 88.6298 75.8976C86.0272 76.7901 85.1379 73.0875 85.1434 71.1875C84.6101 71.186 84.11 71.2179 83.6432 71.2832C81.442 71.6768 79.538 73.0713 78.4322 75.0681C78.7337 74.569 77.737 73.3661 78.0385 72.867C79.446 70.271 82.8512 68.4809 85.8498 68.9896C87.757 66.4951 93.6523 68.1121 95.5609 65.1176ZM86.2432 71.2907C85.9756 71.6233 85.8076 72.0894 85.7392 72.6892C86.6354 73.9918 88.5346 74.2973 89.2389 72.7994C88.5412 71.9973 87.4427 71.4942 86.2432 71.2907Z" fill="#7358A4"/>
<path fill-rule="evenodd" clip-rule="evenodd" d="M137.977 94.2405C137.676 94.6396 138.472 96.0419 138.171 96.4411C136.365 98.5359 132.667 97.7251 130.065 98.2176C130.065 98.2176 130.099 98.251 130.165 98.3179C130.863 99.0199 131.458 100.922 131.154 102.321C131.051 103.22 130.549 103.919 129.749 104.017C127.047 104.609 126.658 100.808 126.863 98.9084C126.397 98.8403 125.897 98.8056 125.364 98.804C123.063 98.9974 121.06 100.092 119.754 101.988C120.056 101.489 119.26 100.186 119.661 99.6875C121.368 97.2924 124.972 95.9029 127.87 96.8113C130.076 94.5176 135.669 96.9338 137.977 94.2405ZM127.963 99.1116C127.628 99.4439 127.394 99.8766 127.259 100.41C128.055 101.812 129.853 102.417 130.657 101.019C130.16 100.118 129.062 99.5147 127.963 99.1116Z" fill="#7358A4"/>
<path d="M82.8494 103.681C83.4497 103.583 84.1457 104.985 84.6457 104.986C86.9465 104.693 86.7536 102.192 87.2582 100.594C87.8652 98.1955 89.8645 98.4013 91.4686 97.0059C91.3683 97.1056 89.7728 95.601 89.6725 95.7007C88.0685 97.0961 86.0689 96.8903 85.462 99.2885C84.9573 100.887 85.1502 103.388 82.8494 103.681Z" fill="#30A2BB"/>
<path d="M120.966 63.4911C120.965 63.6911 118.865 63.6851 118.865 63.8851C118.558 66.0842 119.253 68.0862 120.648 69.6902C120.847 69.9908 122.55 68.9957 122.749 69.2963C121.354 67.6923 120.66 65.5902 120.966 63.4911Z" fill="#30A2BB"/>
<path d="M103.718 80.0413C103.618 79.841 105.322 78.6459 105.223 78.3456C104.128 76.5425 102.432 75.2375 100.333 74.8315C99.933 74.7303 99.2281 76.4283 98.8281 76.4271C100.927 76.8332 102.623 78.1381 103.718 80.0413Z" fill="#30A2BB"/>
<path d="M40.7998 53.5V52.8C40.7998 52.5333 40.8332 52.3 40.8999 52.1C40.8999 51.9 41 51.6 41.2 51.2C41.3333 50.8 41.5331 50.4333 41.7998 50.1C41.9998 49.8333 42.3666 49.6 42.8999 49.4C43.4332 49.2 44.0333 49.1334 44.7 49.2C46.1 49.3 47.1999 49.9 47.5999 50.5C47.7999 50.7667 47.9665 51.1333 48.0999 51.6C48.2332 52 48.2998 52.3333 48.2998 52.6C48.2998 52.8 48.2998 53.0333 48.2998 53.3V53.4C48.2331 54.2 47.8998 55 47.2998 55.8C46.6998 56.6 46 57.3 45.2 57.9L48.0999 58.1L47.7998 61.1L40.5 60.5L40.7 57.9C42.7 56.4 44 55.3 44.5 54.5C44.7667 54.1667 44.9333 53.9 45 53.7C45.0667 53.5 45.0999 53.3 45.0999 53.1C45.0999 52.8 45.2 52.6 45 52.3C44.8667 52.2333 44.7332 52.2 44.5999 52.2C44.0999 52.1 44 52.4 44 53.1L43.8999 53.8L40.7998 53.5Z" fill="#050505"/>
<path fill-rule="evenodd" clip-rule="evenodd" d="M54.6998 49.9C56.2998 50.0333 57.4331 50.6667 58.0997 51.8C58.7664 52.9333 59.0331 54.3667 58.8998 56.1C58.7665 57.9 58.2999 59.3 57.4999 60.3C56.6332 61.3667 55.3997 61.8334 53.7997 61.7C52.1997 61.5667 51.0665 60.9333 50.3998 59.8C49.7331 58.7333 49.4664 57.3 49.5997 55.5C49.7331 53.7 50.1999 52.3 50.9999 51.3C51.8665 50.2333 53.0998 49.7667 54.6998 49.9ZM54.4999 52.9C54.1665 52.8333 53.8998 52.8667 53.6998 53C53.4998 53.2 53.3332 53.4334 53.1998 53.7C53.1332 54.0334 53.0665 54.3333 52.9999 54.6C52.9332 54.8667 52.8998 55.2334 52.8998 55.7C52.8331 56.1667 52.7997 56.5333 52.7997 56.8C52.7997 57.0667 52.8331 57.3667 52.8998 57.7C52.9665 58.0334 53.0997 58.3 53.2997 58.5C53.4997 58.6333 53.7332 58.7333 53.9999 58.8C54.3332 58.8 54.5997 58.7333 54.7997 58.6C54.9997 58.4667 55.1664 58.2333 55.2997 57.9C55.3664 57.5667 55.4332 57.2667 55.4999 57C55.5665 56.7333 55.5997 56.3667 55.5997 55.9C55.6664 55.4333 55.6998 55.0667 55.6998 54.8C55.6332 54.5333 55.5997 54.2333 55.5997 53.9C55.5331 53.5667 55.3998 53.3 55.1998 53.1C54.9998 52.9667 54.7665 52.9 54.4999 52.9Z" fill="#050505"/>
<path d="M63.5999 53.8L66.8999 54L67.5 58L68.7 54.2L72 54.4L68.5 63.1C67.9667 64.1 67.3666 64.8 66.7 65.2C66.0333 65.6 65.3332 65.7667 64.5999 65.7C63.9999 65.7 63.4 65.5 63.2 65.5L63.0999 65.4L63.2998 62.6C63.6331 62.7333 64.0333 62.8 64.5 62.8C64.9 62.8 65.3999 62.6 65.5999 62.2L63.5999 53.8Z" fill="#050505"/>
<path d="M76.2 56.1L76.2998 55.3C76.2998 55.0333 76.3332 54.8 76.3999 54.6C76.3999 54.4 76.5 54.1 76.7 53.7C76.8333 53.3 77.0331 52.9667 77.2998 52.7C77.4998 52.4333 77.8666 52.2 78.3999 52C78.9332 51.8 79.5333 51.7 80.2 51.7C81.6 51.8 82.5999 52.4 83.0999 53C83.2999 53.3333 83.4665 53.7 83.5999 54.1C83.7332 54.5 83.7998 54.8333 83.7998 55.1C83.7998 55.3 83.7998 55.5333 83.7998 55.8V55.9C83.7331 56.7 83.3998 57.5 82.7998 58.3C82.1998 59.1 81.5 59.8 80.7 60.4L83.5 60.6L83.2998 63.6L76 63.1L76.2 60.5C78.2 59 79.5 57.8 80 57C80.2667 56.6667 80.4333 56.4 80.5 56.2C80.5667 56 80.5999 55.8 80.5999 55.6C80.5999 55.3 80.6 55.1 80.5 54.9C80.3667 54.7667 80.2 54.7 80 54.7C79.6 54.7 79.5 54.9 79.5 55.6L79.3999 56.3L76.2 56.1Z" fill="#050505"/>
<path d="M87.2 52.4L89.8999 52.6L89.0999 64L85.8999 63.8L86.5 55.6C85.7 55.7333 85.0333 55.8333 84.5 55.9L84.7 52.9L87.2 52.4Z" fill="#050505"/>
<path d="M42.3999 52.2V51.4C42.3999 51.1333 42.4333 50.9 42.5 50.7C42.5 50.5 42.5998 50.2 42.7998 49.8C42.9331 49.4 43.1332 49.0667 43.3999 48.8C43.5999 48.5333 43.9667 48.2667 44.5 48C45.0333 47.8667 45.6331 47.8 46.2998 47.8C47.6998 47.9 48.7 48.5 49.2 49.1C49.4 49.4333 49.5666 49.8 49.7 50.2C49.8333 50.6 49.8999 50.9333 49.8999 51.2C49.8999 51.4 49.8999 51.6333 49.8999 51.9V52C49.8332 52.8 49.4999 53.6 48.8999 54.4C48.2999 55.2 47.5998 55.9 46.7998 56.5L49.5999 56.7L49.3999 59.7L42.0999 59.2L42.2998 56.5C44.2998 55.1 45.5999 53.9 46.0999 53.1C46.3665 52.7667 46.5332 52.5 46.5999 52.3C46.6665 52.1 46.7 51.9 46.7 51.7C46.7 51.4 46.6999 51.2 46.5999 51C46.4665 50.8667 46.3333 50.8 46.2 50.8C45.7 50.7 45.5999 51 45.5999 51.7L45.5 52.4L42.3999 52.2Z" fill="#FEFEFE"/>
<path fill-rule="evenodd" clip-rule="evenodd" d="M56.2997 48.5C57.8997 48.6333 59.0332 49.2667 59.6998 50.4C60.3665 51.5333 60.6332 53 60.4999 54.8C60.3665 56.5333 59.8997 57.9333 59.0997 59C58.2331 60 56.9998 60.4333 55.3998 60.3C53.7998 60.2333 52.6665 59.6333 51.9999 58.5C51.3332 57.3667 51.0665 55.9 51.1998 54.1C51.3332 52.3667 51.7997 50.9667 52.5997 49.9C53.4664 48.9 54.6997 48.4333 56.2997 48.5ZM55.9999 51.5C55.7332 51.4333 55.4997 51.5 55.2997 51.7C55.0997 51.8333 54.933 52.0333 54.7997 52.3C54.733 52.6333 54.6664 52.9333 54.5997 53.2C54.5331 53.5333 54.4999 53.9 54.4999 54.3C54.4332 54.7666 54.3998 55.1333 54.3998 55.4C54.3998 55.7333 54.4332 56.0333 54.4999 56.3C54.5665 56.6333 54.6998 56.9 54.8998 57.1C55.0998 57.2333 55.3331 57.3333 55.5997 57.4C55.9331 57.4 56.1998 57.3333 56.3998 57.2C56.5998 57.0667 56.7665 56.8333 56.8998 56.5C56.9665 56.1667 57.0331 55.8667 57.0997 55.6C57.1664 55.3333 57.1998 54.9667 57.1998 54.5C57.2665 54.0333 57.2997 53.6667 57.2997 53.4C57.233 53.1333 57.1998 52.8333 57.1998 52.5C57.1332 52.1667 56.9997 51.9333 56.7997 51.8C56.5997 51.6 56.3332 51.5 55.9999 51.5Z" fill="#FEFEFE"/>
<path d="M65.2 52.4L68.5 52.7L69.0999 56.7L70.2998 52.8L73.5999 53L70.0999 61.7C69.5665 62.7667 68.9665 63.4667 68.2998 63.8C67.6331 64.2 66.9333 64.3667 66.2 64.3C65.6 64.3 64.9998 64.2 64.7998 64.1L64.7 64L64.8999 61.2C65.2332 61.3333 65.6332 61.4 66.0999 61.4C66.4999 61.5 67 61.2 67.2 60.8L65.2 52.4Z" fill="#FEFEFE"/>
<path d="M77.7998 54.7L77.8999 53.9C77.8999 53.6333 77.9333 53.4 78 53.2C78 53 78.0998 52.7 78.2998 52.3C78.4331 51.9 78.6332 51.5667 78.8999 51.3C79.0999 51.0333 79.4667 50.8 80 50.6C80.5333 50.4 81.1331 50.3 81.7998 50.3C83.1998 50.4 84.2 51 84.7 51.6C84.9 51.9333 85.0666 52.3 85.2 52.7C85.3333 53.1667 85.3999 53.5 85.3999 53.7C85.3999 53.9 85.3999 54.1333 85.3999 54.4V54.5C85.3332 55.3 84.9999 56.1 84.3999 56.9C83.7999 57.7 83.0998 58.4333 82.2998 59.1L85.0999 59.3L84.8999 62.2L77.5999 61.7L77.7998 59.1C79.7998 57.6 81.0999 56.4 81.5999 55.6C81.7999 55.2667 81.9665 55 82.0999 54.8C82.1665 54.6667 82.2 54.5 82.2 54.3C82.2 53.9 82.1999 53.7 82.0999 53.5C81.9665 53.3667 81.7999 53.3 81.5999 53.3C81.1999 53.3 81.1 53.5 81 54.2V54.9L77.7998 54.7Z" fill="#FEFEFE"/>
<path d="M88.7 51L91.5 51.2L90.7 62.6L87.5 62.4L88.0999 54.2C87.2999 54.3333 86.6332 54.4333 86.0999 54.5L86.2998 51.5L88.7 51Z" fill="#FEFEFE"/>
<path d="M109.2 91.9L10.5 84.7L10.8 78.1L109.6 85.2L109.2 91.9Z" fill="#ED4592"/>
<path d="M24.7 83.5C24.1 85.0333 23.1 86.2667 21.7 87.2C20.3 88.0667 18.8334 88.4667 17.3 88.4C15.5 88.2667 14.1333 87.5666 13.2 86.3C12.2 85.0333 11.8666 83.5333 12.2 81.8C12.6 80.0667 13.5333 78.6333 15 77.5C16.4667 76.3667 18.1001 75.8667 19.9001 76C21.4335 76.0667 22.7 76.6333 23.7 77.7C24.6333 78.7667 25.1001 80.0667 25.1001 81.6L21.2 81.4C21.1333 80.8 20.9 80.3333 20.5 80C20.1 79.6 19.6666 79.4 19.2 79.4C18.4666 79.3333 17.7668 79.5667 17.1001 80.1C16.5001 80.5667 16.1333 81.2 16 82C15.8 82.8 15.9 83.5 16.3 84.1C16.7 84.6333 17.2667 84.9333 18 85C18.5333 85.0667 19.0668 84.9333 19.6001 84.6C20.0668 84.2667 20.4667 83.8333 20.8 83.3L24.7 83.5Z" fill="#FEFEFE"/>
<path fill-rule="evenodd" clip-rule="evenodd" d="M34.4001 77.2L36.3 89.4L32.4001 89.1L32.3 87.9L28.4001 87.6L27.7 88.8L23.8 88.6L30.7 76.9L34.4001 77.2ZM30.2 84.4L31.9001 84.5L31.6001 81.9L30.2 84.4Z" fill="#FEFEFE"/>
<path fill-rule="evenodd" clip-rule="evenodd" d="M48.3 90.2L43.9001 89.9L42 86.7H41.7L41.1001 89.7L37.5 89.5L39.9001 77.5L44.9001 77.8C45.0001 77.9 45.2 77.9 45.8 78C46.5 78.2 47.0001 78.4 47.6001 78.9C48.3001 79.4 48.7 80 48.8 81C48.9334 81.5333 48.9334 82.1 48.8 82.7C48.4667 84.3667 47.5333 85.5333 46 86.2L48.3 90.2ZM42.9001 81.1L42.4001 83.4L43.8 83.5C44.4667 83.5 44.8667 83.1333 45 82.4C45.2 81.7 44.9 81.3 44.3 81.2L42.9001 81.1Z" fill="#FEFEFE"/>
<path d="M62.5 79L60.1001 91L56.8 90.7L54 85.3L52.9001 90.5L49.3 90.2L51.8 78.3L55.1001 78.5L57.8 84L58.9001 78.8L62.5 79Z" fill="#FEFEFE"/>
<path fill-rule="evenodd" clip-rule="evenodd" d="M71.8 79.6L73.8 91.9L69.8 91.6L69.7 90.3L65.8 90.1L65.1001 91.3L61.2 91L68.1001 79.4L71.8 79.6ZM67.6001 86.8L69.3 86.9L69 84.3L67.6001 86.8Z" fill="#FEFEFE"/>
<path d="M80.3 92.3L76.6001 92L74.6001 79.8L78.5 80.1L79.4001 87.3L83.3 80.4L87.2 80.6L80.3 92.3Z" fill="#FEFEFE"/>
<path fill-rule="evenodd" clip-rule="evenodd" d="M93.7 81.1L95.7 93.3L91.8 93L91.6001 91.8L87.7 91.5L87 92.7L83.1001 92.5L90 80.8L93.7 81.1ZM89.6001 88.3L91.2 88.4L90.9001 85.8L89.6001 88.3Z" fill="#FEFEFE"/>
<path d="M102.9 81.7L101.1 90.2L106.2 90.6L105.5 93.9L96.8 93.4L99.3 81.4L102.9 81.7Z" fill="#FEFEFE"/>
<g opacity="0.3">
<path d="M8.19995 70.8C8.19995 71.5 16.1 72.1 25.8 72.1C35.5 72.1 43.4001 71.5 43.4001 70.8C43.4001 70 35.5 69.4 25.8 69.4C16.1 69.4 8.19995 70 8.19995 70.8Z" fill="#1C1C1A"/>
</g>
<path d="M39.1001 42.4C39.1001 43.8 38.0001 45 36.6001 44.9C35.1001 44.9 34.0001 43.7 34.1001 42.3C34.1001 40.9 35.2001 39.8 36.6001 39.8C38.1001 39.9 39.2001 41 39.1001 42.4Z" fill="#050505"/>
<path d="M16.5 42.4C16.5 43.7 15.4001 44.8 14.1001 44.8C12.8001 44.7 11.7 43.6 11.7 42.3C11.8 41 12.8 40 14.2 40C15.5 40 16.5 41.1 16.5 42.4Z" fill="#050505"/>
<path d="M44.5 40C44.4 41.8 42.9 43.4 41 43.3C39.1 43.3 37.6001 41.7 37.6001 39.8C37.6001 37.9 39.2001 36.4 41.1001 36.5C43.0001 36.5 44.5 38.1 44.5 40Z" fill="#050505"/>
<path d="M13 38C13.7 39.9 12.8001 42 11.1001 42.6C9.30012 43.2 7.39997 42.1 6.69997 40.2C5.99997 38.3 6.80012 36.2 8.60012 35.6C10.3001 35 12.3 36 13 38Z" fill="#050505"/>
<path d="M44.4001 30.5C44.2001 39.2 35.7001 46.2 25.4001 46C15.1001 45.8 6.89993 38.6 6.99993 29.8C7.19993 21.1 15.6999 14.2 25.9999 14.4C36.2999 14.5 44.6001 21.8 44.4001 30.5Z" fill="#050505"/>
<path d="M12.6999 41.2C12.0999 42 12.2 43.1 13 43.7C13.8 44.3 14.8001 44.1 15.4001 43.4" stroke="#3F1D13" stroke-width="0.5"/>
<path d="M8.69996 36.6C7.39996 37.4 6.89996 39.1 7.69996 40.4C8.39996 41.7 10.1002 42.2 11.4002 41.4" stroke="#3F1D13" stroke-width="0.5"/>
<path d="M40.2001 37.2C38.9001 37.9 38.4002 39.5 39.1002 40.8C39.9002 42 41.5002 42.4 42.8002 41.7" stroke="#3F1D13" stroke-width="0.5"/>
<path d="M36 44C37 44.3 37.9 43.7 38.2 42.7" stroke="#3F1D13" stroke-width="0.5"/>
<path d="M33.5 67.7C33.5 67.7 31.9 63.3 31.5 62C31.1 60.5 29.9001 60 28.8001 60.3C27.8001 60.6 27.1001 61.4 27.6001 63.1C28.0001 64.8 29.4002 68.8 29.4002 68.8C30.0002 71.3 34.4 70.2 33.5 67.7Z" fill="#803531" stroke="#050505" stroke-width="0.4" stroke-linecap="round" stroke-linejoin="round"/>
<path opacity="0.4" d="M30.4002 68.4C31.0002 69.7 33.3001 69.8 32.1001 70.1C31.0001 70.4 29.7002 70 29.4002 68.8C29.4002 68.8 28.0001 64.8 27.6001 63.1C27.1001 61.4 27.8001 60.6 28.8001 60.3C29.9001 60 31.1 60.5 31.5 62C31.9 63.3 29.1002 63.4 29.4002 64.6C29.5002 65.1 30.0002 67.5 30.4002 68.4Z" fill="#050505"/>
<path d="M33.6001 68.8C33.8001 69.3 34.1001 70.3 35.6001 71L29.3 70.8L29.4001 68.8" fill="#803531"/>
<path d="M33.6001 68.8C33.8001 69.3 34.1001 70.3 35.6001 71L29.3 70.8L29.4001 68.8" stroke="#050505" stroke-width="0.4" stroke-linecap="round" stroke-linejoin="round"/>
<path opacity="0.4" d="M30.5 68.8C30.6 69.6 30.5 70.3 32 70.9L29.3 70.8L29.4001 68.8" fill="#050505"/>
<path d="M28.8 70.8C28.8 70.8667 28.8667 70.9 29 70.9L35.8 71C35.8667 71 35.9001 70.9667 35.9001 70.9V70.6C35.9001 70.4667 35.8667 70.4 35.8 70.4L29 70.3C28.9333 70.3 28.8667 70.3333 28.8 70.4V70.8Z" fill="#EE4963" stroke="#050505" stroke-width="0.4" stroke-linecap="round" stroke-linejoin="round"/>
<path d="M32.2 67.6C32.2 67.6 32.2 66.8 32.8 66.8C33.1 66.8 33.8 66.8 34 66.8C34.5 66.8 34.1 67.3 34 67.6C33.9 67.8 33.9001 68.3 34.1001 68.6L34.7 69.6L33.9001 70L32.3 68.6L32.2 67.6Z" fill="#EE4963" stroke="#050505" stroke-width="0.4" stroke-linecap="round" stroke-linejoin="round"/>
<path d="M29 70.3C29 70.3 29 69.1 29 68.7C29 68.4 29.2001 68.2 29.6001 68.2C30.0001 68.2 30.3001 68.5 31.1001 68.2C31.8001 67.9 31.9 67.7 32.2 67.6C32.5 67.4 32.6 67.6 32.7 68L32.8 68.7L34.1001 69.8V70.4L29 70.3Z" fill="#F69226" stroke="#050505" stroke-width="0.4" stroke-linecap="round" stroke-linejoin="round"/>
<path d="M35.8 70.4C35.8 70.2 35 69.6 34.7 69.6C33.9 69.6 33.4001 70.4 33.4001 70.4H35.8Z" fill="#FEFEFE" stroke="#050505" stroke-width="0.4" stroke-linecap="round" stroke-linejoin="round"/>
<path d="M32.5 68.8C32.8 68.4 33.8001 68.3 34.1001 68.4" stroke="#050505" stroke-width="0.4" stroke-linecap="round" stroke-linejoin="round"/>
<path d="M32.9001 69.2C33.3001 68.8 34.1001 68.7 34.4001 68.8" stroke="#050505" stroke-width="0.4" stroke-linecap="round" stroke-linejoin="round"/>
<path d="M33.4001 69.6C33.7001 69.2 34.4 69.2 34.7 69.3" stroke="#050505" stroke-width="0.4" stroke-linecap="round" stroke-linejoin="round"/>
<path d="M31 68.9C31.6 68.9 31.9 69 32.2 69.3L33.4001 70.4H32.5L31.8 69.7C31.6667 69.5667 31.4 69.5 31 69.5C30.8 69.5 29 69.4 29 69.4V68.9C29 68.9 30.8 68.9 31 68.9Z" fill="#EE4963" stroke="#050505" stroke-width="0.4" stroke-linecap="round" stroke-linejoin="round"/>
<path d="M16.7 67.4C16.7 67.4 18.5002 63 18.9002 61.8C19.3002 60.2 20.6 59.8 21.7 60.2C22.7 60.5 23.3001 61.3 22.8001 63C22.3001 64.7 20.8001 68.6 20.8001 68.6C20.0001 71.1 15.7 69.9 16.7 67.4Z" fill="#803531" stroke="#050505" stroke-width="0.4" stroke-linecap="round" stroke-linejoin="round"/>
<path opacity="0.4" d="M19.8001 68.2C19.2001 69.4 16.9001 69.5 18.0001 69.8C19.2001 70.1 20.4001 69.9 20.8001 68.6C20.8001 68.6 22.3001 64.7 22.8001 63C23.3001 61.3 22.7 60.5 21.7 60.2C20.6 59.8 19.3002 60.2 18.9002 61.8C18.5002 63 21.3001 63.3 21.0001 64.4C20.8001 64.9 20.2001 67.3 19.8001 68.2Z" fill="#050505"/>
<path d="M16.6001 68.5C16.4001 69 16 70 14.5 70.6L20.8 70.7V68.6" fill="#803531"/>
<path d="M16.6001 68.5C16.4001 69 16 70 14.5 70.6L20.8 70.7V68.6" stroke="#050505" stroke-width="0.4" stroke-linecap="round" stroke-linejoin="round"/>
<path opacity="0.4" d="M19.7 68.6C19.6 69.4 19.6001 70.1 18.1001 70.7H20.8V68.6" fill="#050505"/>
<path d="M21.3 70.6C21.3 70.7333 21.2334 70.8 21.1001 70.8L14.3 70.6C14.2334 70.6 14.2 70.5667 14.2 70.5V70.2C14.2 70.0667 14.2334 70 14.3 70L21.2 70.2C21.2666 70.2 21.3 70.2333 21.3 70.3V70.6Z" fill="#EE4963" stroke="#050505" stroke-width="0.4" stroke-linecap="round" stroke-linejoin="round"/>
<path d="M18 67.3C18 67.3 18 66.5 17.5 66.5C17.1 66.5 16.4 66.5 16.2 66.5C15.8 66.5 16.1 67 16.2 67.3C16.3 67.5 16.3001 68 16.1001 68.3L15.4001 69.3L16.3 69.6L17.9001 68.3L18 67.3Z" fill="#EE4963" stroke="#050505" stroke-width="0.4" stroke-linecap="round" stroke-linejoin="round"/>
<path d="M21.2 70.2C21.2 70.2 21.2 68.9 21.2 68.6C21.2 68.2 21.0001 68 20.6001 68C20.2001 68 19.9001 68.3 19.1001 67.9C18.4001 67.6 18.3 67.5 18 67.3C17.7 67.2 17.7001 67.4 17.6001 67.7L17.4001 68.4L16 69.5V70.1L21.2 70.2Z" fill="#F69226" stroke="#050505" stroke-width="0.4" stroke-linecap="round" stroke-linejoin="round"/>
<path d="M14.3 70C14.3 69.8 15.1001 69.3 15.4001 69.3C16.2001 69.3 16.7 70.1 16.7 70.1L14.3 70Z" fill="#FEFEFE" stroke="#050505" stroke-width="0.4" stroke-linecap="round" stroke-linejoin="round"/>
<path d="M17.7 68.5C17.4 68.1 16.4001 68 16.1001 68.1" stroke="#050505" stroke-width="0.4" stroke-linecap="round" stroke-linejoin="round"/>
<path d="M17.2 68.9C16.9 68.5 16.1 68.4 15.8 68.5" stroke="#050505" stroke-width="0.4" stroke-linecap="round" stroke-linejoin="round"/>
<path d="M16.7 69.3C16.4 68.9 15.8 68.8 15.5 68.9" stroke="#050505" stroke-width="0.4" stroke-linecap="round" stroke-linejoin="round"/>
<path d="M19.1001 68.7C18.6001 68.7 18.3 68.8 18 69.1L16.7 70.1H17.6001L18.3 69.4C18.4334 69.2667 18.7001 69.2333 19.1001 69.3C19.3001 69.3 21.2 69.3 21.2 69.3V68.8C21.2 68.8 19.3001 68.7 19.1001 68.7Z" fill="#EE4963" stroke="#050505" stroke-width="0.4" stroke-linecap="round" stroke-linejoin="round"/>
<path d="M41.6999 43.7C39.4999 46.7 36.7 48.5 33.8 50C30.8 51.5 28.7999 47.3 31.6999 45.9C34.6999 44.5 35.8999 43.7 37.9999 41.1C38.3999 40.5 39.7999 40 40.9999 41C42.1999 42 42.0999 43.1 41.6999 43.7Z" fill="#803531" stroke="#050505" stroke-width="0.4" stroke-linecap="round" stroke-linejoin="round"/>
<path opacity="0.4" d="M41.6999 43.7C39.4999 46.7 36.7 48.5 33.8 50C30.8 51.5 28.7999 47.3 31.6999 45.9C32.8999 45.4 34.4999 48.2 35.6999 47.6C37.4999 46.8 39.7999 44.8 40.9999 43.2C41.4999 42.6 41.5999 41.7 40.9999 41C42.1999 42 42.0999 43.1 41.6999 43.7Z" fill="#050505"/>
<path d="M38.9999 43.5C39.7999 44.2 41 44.1 41.6 43.4C42.1 42.7 41.8999 41.5 40.9999 40.9C40.0999 40.2 38.9001 40.2 38.4001 41C37.8001 41.7 38.0999 42.8 38.9999 43.5Z" fill="#803531"/>
<path d="M37.9001 41.2C38.4001 40.5 39.6 38.9 40.2 38.3C41 37.7 41.8 38.1 42.7 38.7C43.7 39.6 44.1 40.6 43.3 41.6L42.6001 42.5L41.7 43.7" fill="#803531"/>
<path d="M37.9001 41.2C38.4001 40.5 39.6 38.9 40.2 38.3C41 37.7 41.8 38.1 42.7 38.7C43.7 39.6 44.1 40.6 43.3 41.6L42.6001 42.5L41.7 43.7" stroke="#050505" stroke-width="0.4" stroke-linecap="round" stroke-linejoin="round"/>
<path d="M38.5 40.8V39.7C38.5 39.3 38.8 38.9 39.2 38.9C39.6 38.9 39.9001 39.2 39.9001 39.4C40.1001 39.7 40 40 40 40" fill="#803531"/>
<path d="M38.5 40.8V39.7C38.5 39.3 38.8 38.9 39.2 38.9C39.6 38.9 39.9001 39.2 39.9001 39.4C40.1001 39.7 40 40 40 40" stroke="#050505" stroke-width="0.4" stroke-linecap="round" stroke-linejoin="round"/>
<g style="mix-blend-mode:multiply" opacity="0.2">
<path d="M39.9999 39.3C39.9999 39.3 40.4001 39.6 40.4001 40C40.5001 40.4 40.4 40.7 40.6 40.8C40.8 41 41.5999 41.8 41.9999 41.7C42.2999 41.6 43.4999 40.6 42.9999 39.9C42.5999 39.2 41.1999 38 40.4999 38.5C39.6999 39 39.9999 39.3 39.9999 39.3Z" fill="#050505"/>
</g>
<path d="M9.19991 43.1C11.2999 46.2 14.0001 48.1 16.9001 49.7C19.7001 51.3 22.0001 47.2 19.1001 45.7C16.2001 44.1 15 43.3 13 40.6C12.6 40 11.3 39.5 9.99996 40.4C8.79996 41.4 8.79991 42.5 9.19991 43.1Z" fill="#803531" stroke="#050505" stroke-width="0.4" stroke-linecap="round" stroke-linejoin="round"/>
<path opacity="0.4" d="M9.19991 43.1C11.2999 46.2 14.0001 48.1 16.9001 49.7C19.7001 51.3 22.0001 47.2 19.1001 45.7C18.0001 45.1 16.2 47.9 15 47.3C13.2 46.4 11.1001 44.3 9.9001 42.6C9.4001 42 9.29996 41.2 9.99996 40.4C8.79996 41.4 8.79991 42.5 9.19991 43.1Z" fill="#050505"/>
<path d="M11.9001 43C11.0001 43.7 9.89996 43.6 9.29996 42.8C8.79996 42.1 9.09991 40.9 9.99991 40.3C10.8999 39.6 12.1 39.7 12.6 40.5C13.1 41.2 12.8001 42.4 11.9001 43Z" fill="#803531"/>
<path d="M13.1 40.8C12.6 40 11.5 38.4 10.9 37.8C10.1 37.1 9.20003 37.5 8.40003 38.1C7.40003 38.9 6.89998 39.9 7.59998 41L8.29993 41.9L9.19983 43.1" fill="#803531"/>
<path d="M13.1 40.8C12.6 40 11.5 38.4 10.9 37.8C10.1 37.1 9.20003 37.5 8.40003 38.1C7.40003 38.9 6.89998 39.9 7.59998 41L8.29993 41.9L9.19983 43.1" stroke="#050505" stroke-width="0.4" stroke-linecap="round" stroke-linejoin="round"/>
<g style="mix-blend-mode:multiply" opacity="0.2">
<path d="M11 38.8C11 38.8 10.6001 39 10.6001 39.4C10.6001 39.8 10.6002 40.2 10.4002 40.3C10.2002 40.4 9.30003 41.2 9.00003 41.1C8.70003 41 7.50003 39.9 8.00003 39.2C8.50003 38.5 9.90013 37.4 10.6001 38C11.3001 38.5 11 38.8 11 38.8Z" fill="#050505"/>
</g>
<path d="M25.1999 61.2C17.9999 61 17.8001 59.6 17.4001 56.6C17.2001 54.3 18.1999 48.1 18.6999 46.2C19.5999 43.1 22.1001 42 25.6001 42C29.1001 42.1 31.5 43.3 32.3 46.5C32.7 48.4 33.4999 54.6 33.1999 56.9C32.6999 59.9 32.3999 61.3 25.1999 61.2Z" fill="#F69226" stroke="#050505" stroke-width="0.4" stroke-linecap="round" stroke-linejoin="round"/>
<path d="M20.8 51.5C20.1 49.2 19.3 46.4 20 43.1L21.8 43.5C21.2 46.4 21.9 49 22.5 51L20.8 51.5Z" fill="#EE4963" stroke="#050505" stroke-width="0.4" stroke-linecap="round" stroke-linejoin="round"/>
<path d="M25.2 61.3L24 64.1C18.5 62.9 16.7 61.6 16.7 61.6C16.7 61.6 16.9 58.9 17.2 56.6C17.6 56.8 19.2 57.1 19.2 57.1L21.2 51.1C21.2 51.1 23.6001 51.8 25.4001 51.8C27.2001 51.8 29.7 51.3 29.7 51.3L31.4001 57.3C31.4001 57.3 33.0001 57.1 33.4001 56.9C33.6001 59.2 33.7 62.1 33.7 62.1C33.7 62.1 31.8 63.2 26.3 64L25.2 61.3Z" fill="#EE4763" stroke="#050505" stroke-width="0.4" stroke-linecap="round" stroke-linejoin="round"/>
<path opacity="0.4" d="M25.2 61.3L24 64.1C23.6667 64.0333 23.3333 63.9667 23 63.9C23 63.9 24.3 60.7 25.2 60.8C26.1 60.8 27.3 63.8 27.3 63.8C26.9667 63.8667 26.6334 63.9333 26.3 64L25.2 61.3Z" fill="#050505"/>
<path opacity="0.4" d="M33.4001 56.9C33.6001 59.2 33.7 62.1 33.7 62.1C33.7 62.1 33.2001 62.4 31.9001 62.8C32.5001 62 33 60.5 32.5 57.1L33.4001 56.9Z" fill="#050505"/>
<path d="M33.3 61.5C33.3 61.5 31.3001 62.4 26.1001 63.3" stroke="#6ECFF5" stroke-width="0.4" stroke-linecap="round" stroke-linejoin="round" stroke-dasharray="0.8 0.8"/>
<path opacity="0.4" d="M17.2 56.6C16.9 58.9 16.7 61.6 16.7 61.6C16.7 61.6 17.2 62 18.5 62.5C18 61.6 17.5001 60.2 18.1001 56.8L17.2 56.6Z" fill="#050505"/>
<path d="M17.2 61C17.2 61 19.1 62.1 24.2 63.5" stroke="#6ECFF5" stroke-width="0.4" stroke-linecap="round" stroke-linejoin="round" stroke-dasharray="0.8 0.8"/>
<path d="M21.2 44.4C21.2 46.8 23.1 48.7 25.5 48.8C27.8 48.8 29.8001 46.9 29.9001 44.5C29.9001 42.2 28.0001 40.2 25.6001 40.2C23.2001 40.1 21.3 42 21.2 44.4Z" fill="#803531" stroke="#050505" stroke-width="0.4" stroke-linecap="round" stroke-linejoin="round"/>
<path d="M30 51.7C30.8 49.4 31.7001 46.6 31.1001 43.4L29.3 43.6C29.8 46.6 29 49.1 28.3 51.2L30 51.7Z" fill="#EE4963" stroke="#050505" stroke-width="0.4" stroke-linecap="round" stroke-linejoin="round"/>
<path d="M30.3 51.5C30.3 52.1 29.8001 52.6 29.1001 52.6C28.5001 52.6 28 52 28 51.4C28 50.8 28.6 50.3 29.2 50.3C29.8 50.3 30.3 50.8 30.3 51.5Z" fill="#6ECFF5" stroke="#050505" stroke-width="0.4" stroke-linecap="round" stroke-linejoin="round"/>
<path d="M20.5 51.3C20.5 51.9 21.0001 52.4 21.6001 52.4C22.3001 52.5 22.8 52 22.8 51.3C22.8 50.7 22.3 50.2 21.7 50.2C21 50.1 20.5 50.6 20.5 51.3Z" fill="#6ECFF5" stroke="#050505" stroke-width="0.4" stroke-linecap="round" stroke-linejoin="round"/>
<path opacity="0.4" d="M20.8 52.1C21.3 52.5 21.9999 52.6 22.4999 52.1C22.4999 52.1 21.5999 52.2 21.1999 51.8C20.6999 51.3 20.9001 50.5 20.9001 50.5C20.4001 50.9 20.4 51.6 20.8 52.1Z" fill="#050505"/>
<path opacity="0.4" d="M30 52.3C29.5 52.7 28.8 52.7 28.3 52.2C28.3 52.2 29.2001 52.3 29.6001 51.9C30.1001 51.5 30 50.6 30 50.6C30.4 51.1 30.4 51.8 30 52.3Z" fill="#050505"/>
<path d="M30.1001 57.6L30.4001 57.5L30.3 57.2" stroke="#6ECFF5" stroke-width="0.4" stroke-linecap="round" stroke-linejoin="round"/>
<path d="M30.1001 56.4L29.4001 53.9" stroke="#6ECFF5" stroke-width="0.4" stroke-linecap="round" stroke-linejoin="round" stroke-dasharray="0.8 0.8"/>
<path d="M29.3 53.5L29.2 53.2H28.9001" stroke="#6ECFF5" stroke-width="0.4" stroke-linecap="round" stroke-linejoin="round"/>
<path d="M28.2 53.2L25.4001 53.1H22.2" stroke="#6ECFF5" stroke-width="0.4" stroke-linecap="round" stroke-linejoin="round" stroke-dasharray="0.8 0.8"/>
<path d="M21.9001 53.1H21.6001L21.5 53.4" stroke="#6ECFF5" stroke-width="0.4" stroke-linecap="round" stroke-linejoin="round"/>
<path d="M21.2 54.1L20.4001 56.6" stroke="#6ECFF5" stroke-width="0.4" stroke-linecap="round" stroke-linejoin="round" stroke-dasharray="0.8 0.8"/>
<path d="M20.3 57L20.2 57.3L20.5 57.4" stroke="#6ECFF5" stroke-width="0.4" stroke-linecap="round" stroke-linejoin="round"/>
<path d="M21.1001 57.6L25.3 59.1L29.8 57.7" stroke="#6ECFF5" stroke-width="0.4" stroke-linecap="round" stroke-linejoin="round" stroke-dasharray="0.8 0.8"/>
<path opacity="0.4" d="M25.5 48.1C23.4 48.1 22.3 47.7 21 47C20 46.4 19.3001 47 19.1001 48.4C18.8001 50 17.7001 56.1 18.6001 56.3C19.0001 56.4 20.3 52.3 20.8 52.1L19.1999 57.1L17.4001 56.6C17.2001 54.3 18.1999 48.1 18.6999 46.2C19.5999 43.1 22.1001 42 25.6001 42C29.1001 42.1 31.5 43.3 32.3 46.5C32.7 48.4 33.4999 54.6 33.1999 56.9L31.4001 57.3L30 52.3C30.5 52.5 31.6001 56.6 32.1001 56.5C32.9001 56.4 32.1 50.3 31.8 48.6C31.6 47.2 31.0001 46.6 29.9001 47.2C28.6001 47.8 27.5 48.2 25.5 48.1Z" fill="#050505"/>
<path d="M12.4001 33.3C12.3001 40.7 16.1001 46.5 25.4001 47C34.6001 47.6 38.7001 41.2 38.9001 33.8C39.0001 26.3 33.2001 20.2 25.9001 20C18.6001 19.9 12.6001 25.8 12.4001 33.3Z" fill="#803531" stroke="#050505" stroke-width="0.4" stroke-linecap="round" stroke-linejoin="round"/>
<path opacity="0.4" d="M14.8 33.2L15.1999 34.2C15.1999 34.2 13.1999 45.8 26.1999 47.1C26.2999 47.1 26 46.8 25.5 47.1C25.4333 47.1 25.4001 47.0667 25.4001 47C16.1001 46.5 12.3001 40.7 12.4001 33.3C12.5001 31.3 12.8999 29.4 13.6999 27.7C14.2999 29 14.8 33.2 14.8 33.2Z" fill="#050505"/>
<path d="M27.9001 38C27.9001 38 28.8001 34.3 33.6001 35.7C33.6001 35.7 33.5 38.6 31 38.9C28.5 39.1 27.9001 38 27.9001 38Z" fill="#FEFEFE"/>
<path d="M22.7 38.2C22.7 38.2 22.2002 34.4 17.4002 35.3C17.4002 35.3 17.1001 38.3 19.6001 38.8C22.1001 39.2 22.7 38.2 22.7 38.2Z" fill="#FEFEFE"/>
<path d="M23.6001 39.5C23.6001 39.5 24.2 40.6 25.3 40.6C26.5 40.6 27.3 39.4 27.3 39.4C27.3 39.4 26.0001 40 25.4001 40C24.9001 40 23.6001 39.5 23.6001 39.5Z" fill="#050505"/>
<path d="M37.1001 16.4C37.0001 18.3 35.3 19.8 33.3 19.8C31.3 19.7 29.7 18.1 29.7 16.2C29.7 14.3 31.4001 12.8 33.4001 12.8C35.5001 12.8 37.1001 14.4 37.1001 16.4Z" fill="#050505"/>
<path d="M20.2 16.2C20.2 17.7 18.9001 18.9 17.4001 18.9C15.8001 18.8 14.6001 17.5 14.6001 16C14.7001 14.4 16 13.2 17.5 13.3C19.1 13.3 20.3 14.6 20.2 16.2Z" fill="#050505"/>
<path d="M42.6002 20C42.6002 22.4 40.6002 24.3 38.3002 24.2C35.9002 24.2 34.0002 22.2 34.1002 19.9C34.1002 17.5 36.1003 15.7 38.4003 15.7C40.8003 15.7 42.7002 17.7 42.6002 20Z" fill="#050505"/>
<path d="M12.7001 23.9C12.7001 26.3 10.7002 28.2 8.30016 28.2C5.90016 28.2 4.00021 26.2 4.10021 23.8C4.10021 21.4 6.10011 19.5 8.50011 19.5C10.9001 19.6 12.8001 21.6 12.7001 23.9Z" fill="#050505"/>
<path d="M31.1 15.6C31.1 18.5 28.1999 20.9 24.6999 20.8C21.1999 20.8 18.3999 18.3 18.4999 15.4C18.4999 12.4 21.4001 10.1 24.9001 10.1C28.4001 10.2 31.2 12.6 31.1 15.6Z" fill="#050505"/>
<path d="M17.2001 18.8C17.1001 21.2 15.2003 23 12.9003 23C10.5003 23 8.60006 21 8.70006 18.7C8.70006 16.3 10.7001 14.5 13.0001 14.5C15.4001 14.6 17.2001 16.5 17.2001 18.8Z" fill="#050505"/>
<path d="M12.3 31.4C12.2 34 10.2 36.1 7.80005 36C5.40005 36 3.5 33.9 3.5 31.3C3.6 28.7 5.6 26.6 8 26.7C10.4 26.7 12.3 28.8 12.3 31.4Z" fill="#050505"/>
<path d="M48.0001 33C48.0001 35.6 46.0001 37.8 43.5001 37.7C41.1001 37.7 39.2002 35.5 39.3002 32.8C39.3002 30.1 41.3001 28 43.7001 28C46.1001 28.1 48.0001 30.3 48.0001 33Z" fill="#050505"/>
<path d="M46.4002 24.8C46.3002 27 44.5001 28.8 42.3001 28.7C40.1001 28.7 38.3002 26.9 38.4002 24.7C38.4002 22.5 40.2002 20.7 42.4002 20.7C44.6002 20.8 46.4002 22.6 46.4002 24.8Z" fill="#050505"/>
<path d="M28.2 26.4C28.2 28.1 26.7001 29.5 24.9001 29.5C23.2001 29.5 21.8 28 21.8 26.2C21.8 24.5 23.3 23.1 25 23.1C26.8 23.1 28.2 24.6 28.2 26.4Z" fill="#050505"/>
<path d="M34.3 26.8C34.2 28.6 32.7001 30 30.9001 30C29.1001 30 27.7 28.5 27.7 26.7C27.7 24.9 29.2 23.4 31 23.5C32.8 23.5 34.3 25 34.3 26.8Z" fill="#050505"/>
<path d="M39.1001 29.3C39.1001 31.1 37.6 32.6 35.8 32.6C34 32.5 32.6001 31 32.6001 29.2C32.6001 27.4 34.1001 26 35.9001 26C37.7001 26 39.2001 27.5 39.1001 29.3Z" fill="#050505"/>
<path d="M41.2 33.6C41.2 35 40.0001 36.2 38.6001 36.1C37.2001 36.1 36.1001 35 36.1001 33.5C36.1001 32.1 37.3 31 38.7 31C40.1 31.1 41.2 32.2 41.2 33.6Z" fill="#050505"/>
<path d="M15.4001 32.9C15.3001 34.3 14.2 35.4 12.8 35.4C11.3 35.3 10.2 34.2 10.3 32.8C10.3 31.3 11.4 30.2 12.8 30.3C14.3 30.3 15.4001 31.4 15.4001 32.9Z" fill="#050505"/>
<path d="M18.2 29.9C18.2 31 17.2002 31.9 16.1002 31.9C15.0002 31.9 14.0002 30.9 14.1002 29.8C14.1002 28.7 15 27.8 16.2 27.8C17.3 27.8 18.2 28.7 18.2 29.9Z" fill="#050505"/>
<path d="M22.7 27C22.7 28.6 21.3 29.9 19.7 29.9C18.1 29.8 16.8 28.5 16.8 26.8C16.8 25.2 18.2 23.9 19.8 23.9C21.4 24 22.7 25.3 22.7 27Z" fill="#050505"/>
<path d="M12.6001 34.5L18.2 27.9L24 26.8L30 27.4L34.2 30.1L37 31.9L38.6001 34.5L41.8 32L42.8 25.2L34.7 17.3L26.1001 16.2L16.8 16.7L9.90015 23.4L7.5 30.9L12.6001 34.5Z" fill="#050505"/>
<path d="M14.8001 30.3C13.9001 30.2 13.2001 29.4 13.3001 28.5C13.4001 27.6 14.2 26.9 15.2 27C16.1 27.1 16.8 27.9 16.7 28.9" stroke="#3F1D13" stroke-width="0.5"/>
<path d="M38.8 35.1C39.7 35.2 40.5001 34.5 40.6001 33.5C40.6001 32.6 39.9 31.8 39 31.8C38 31.7 37.2 32.4 37.2 33.4" stroke="#3F1D13" stroke-width="0.5"/>
<path d="M20.4001 14.1C20.9001 12.9 21.9001 11.9 23.4001 11.5C25.3001 10.9 27.3 11.6 28.3 13C28.5667 13.2667 28.7668 13.6 28.9001 14" stroke="#3F1D13" stroke-width="0.5"/>
<path d="M27.4001 17.3C27.2001 16.3 26.2 15.6 25.2 15.7C24.7 15.8 24.3 16.1 24 16.5" stroke="#3F1D13" stroke-width="0.4"/>
<path d="M12.5 15.8C10.9 16 9.80002 17.5 10 19.1C10.3 20.7 11.8001 21.8 13.3001 21.5" stroke="#3F1D13" stroke-width="0.5"/>
<path d="M17.9001 20.2C19.5001 20.2 20.8001 19 20.9001 17.4C21.0001 15.9 19.7 14.5 18.2 14.5C16.6 14.4 15.2 15.6 15.2 17.2" stroke="#3F1D13" stroke-width="0.5"/>
<path d="M37.2 24.5C36.5 22.6 34.5001 21.7 32.6001 22.4C30.8001 23.1 29.9001 25.2 30.6001 27" stroke="#3F1D13" stroke-width="0.4"/>
<path d="M43.3 26.8C44.5 26.4 45.2 25.1 44.8 23.8C44.4 22.6 43.1001 21.9 41.9001 22.3" stroke="#3F1D13" stroke-width="0.5"/>
<path d="M28.4001 20.4C26.0001 19.4 23.3 20.4 22.3 22.8" stroke="#3F1D13" stroke-width="0.4"/>
<path d="M45.7 35.5C47.1 34 46.9 31.6 45.3 30.3" stroke="#3F1D13" stroke-width="0.5"/>
<path d="M12.2 34.4C13.5 34.3 14.5001 33.1 14.4001 31.8" stroke="#3F1D13" stroke-width="0.4"/>
<path d="M34.1001 30.3C34.3001 31.1 35.1001 31.5 35.9001 31.3C36.6001 31.1 37.1001 30.3 36.9001 29.5" stroke="#3F1D13" stroke-width="0.5"/>
<path d="M18.3 28.5C19.8 28.9 21.3 28 21.7 26.6C22.1 25.1 21.3 23.6 19.8 23.1C18.4 22.7 16.9001 23.6 16.4001 25" stroke="#3F1D13" stroke-width="0.5"/>
<path d="M41.8 25.7C40.5 25 38.7999 25.6 38.1999 26.9C37.4999 28.3 38.1001 30 39.4001 30.6C40.8001 31.3 42.4001 30.7 43.1001 29.3" stroke="#3F1D13" stroke-width="0.4"/>
<path d="M8.50011 28.4C7.50011 29.1 7.30011 30.6 8.00011 31.6C8.70011 32.6 10.2001 32.9 11.2001 32.2C12.2001 31.4 12.5001 30 11.7001 29" stroke="#3F1D13" stroke-width="0.4"/>
<path d="M38.5 23.8C40.4 23.5 41.8 21.7 41.5 19.7C41.2 17.8 39.4002 16.4 37.4002 16.7C35.5002 17 34.1002 18.8 34.4002 20.8" stroke="#3F1D13" stroke-width="0.5"/>
<path d="M29.1002 25.6C28.4002 26.6 28.7002 28 29.8002 28.7C30.8002 29.4 32.2003 29.1 32.9003 28.1" stroke="#3F1D13" stroke-width="0.5"/>
<path d="M6.70001 28.9C5.10001 29.4 4.30011 31.1 4.80011 32.7C5.30011 34.3 7.00016 35.1 8.60016 34.6" stroke="#3F1D13" stroke-width="0.5"/>
<path d="M5.30005 23.7C5.30005 25.4 6.59995 26.7 8.19995 26.7C9.79995 26.7 11.1001 25.5 11.1001 23.9C11.1001 22.2 9.90005 20.9 8.30005 20.9C6.70005 20.9 5.40005 22.1 5.30005 23.7Z" stroke="#3F1D13" stroke-width="0.5"/>
<path d="M14 22.6C14.9 23.1 16 22.7 16.5 21.8C17 20.9 16.6 19.8 15.7 19.3C14.8 18.9 13.7 19.2 13.2 20.1" stroke="#3F1D13" stroke-width="0.4"/>
<path d="M23.2 26.3C23.2 27.4 24 28.2 25 28.2" stroke="#3F1D13" stroke-width="0.4"/>
<path d="M26.9001 26.4C26.9001 25.4 26.1001 24.5 25.1001 24.5" stroke="#3F1D13" stroke-width="0.4"/>
<path d="M30.4002 16.9C30.3002 18.5 31.6 19.8 33.2 19.8C34.8 19.8 36.1001 18.6 36.1001 17C36.1001 15.4 34.9001 14.1 33.3001 14C31.7001 14 30.4002 15.3 30.4002 16.9Z" stroke="#3F1D13" stroke-width="0.5"/>
<path d="M32 37.1C32 37.9 31.4001 38.7 30.6001 38.7C29.8001 38.8 29.1 38.1 29 37.2C29 36.4 29.6001 35.6 30.4001 35.6C31.2001 35.5 31.9 36.2 32 37.1Z" fill="#855226"/>
<path d="M31 37.2C31 37.4 30.8 37.7 30.5 37.6C30.3 37.6 30.1001 37.4 30.1001 37.1C30.1001 36.9 30.3 36.6 30.5 36.6C30.8 36.7 31 36.9 31 37.2Z" fill="#050505"/>
<path d="M30.1001 36.6C30.1001 36.7 30.0001 36.9 29.9001 36.9C29.7001 36.9 29.6001 36.7 29.6001 36.6C29.6001 36.4 29.7001 36.3 29.9001 36.3C30.0001 36.3 30.1001 36.4 30.1001 36.6Z" fill="#FEFEFE"/>
<path d="M18.8 36.9C18.7 37.7 19.2 38.5 20 38.7C20.8 38.8 21.5999 38.2 21.6999 37.3C21.8999 36.5 21.3 35.7 20.5 35.6C19.7 35.4 19 36 18.8 36.9Z" fill="#855226"/>
<path d="M19.8 37.1C19.8 37.3 20 37.6 20.2 37.6C20.5 37.6 20.7 37.4 20.7 37.1C20.7 36.9 20.5 36.6 20.3 36.6C20 36.6 19.8 36.8 19.8 37.1Z" fill="#050505"/>
<path d="M20.7 36.6C20.7 36.7 20.8001 36.9 20.9001 36.9C21.1001 36.9 21.2 36.8 21.2 36.6C21.3 36.5 21.1 36.3 21 36.3C20.8 36.3 20.7 36.4 20.7 36.6Z" fill="#FEFEFE"/>
<path d="M16.3 33.9L17.4001 35.2C17.4001 35.2 22 34.7 22.7 38.2" stroke="#050505" stroke-width="0.5" stroke-linecap="round" stroke-linejoin="round"/>
<path d="M17.6001 34L18.2 35.2L17.6001 34Z" fill="#BB8653"/>
<path d="M17.6001 34L18.2 35.2" stroke="#050505" stroke-width="0.5" stroke-linecap="round" stroke-linejoin="round"/>
<path d="M34.8 34.4L33.6001 35.6C33.6001 35.6 29 34.5 28 38" stroke="#050505" stroke-width="0.5" stroke-linecap="round" stroke-linejoin="round"/>
<path d="M33.5 34.3L32.7 35.4L33.5 34.3Z" fill="#BB8653"/>
<path d="M33.5 34.3L32.7 35.4" stroke="#050505" stroke-width="0.5" stroke-linecap="round" stroke-linejoin="round"/>
<path d="M28.9001 33.8C28.9001 33.8 31.2 32.6 32.8 34.7" stroke="#050505" stroke-width="0.6" stroke-linecap="round" stroke-linejoin="round"/>
<path d="M22.2 33.8C22.2 33.8 20 32.5 18.2 34.4" stroke="#050505" stroke-width="0.6" stroke-linecap="round" stroke-linejoin="round"/>
<path d="M22 42.5C22.3 41.6 23.8999 42 24.6999 42.1C24.8999 42.2 25.3001 42.2 25.6001 42.2C25.8001 42.3 26.2 42.2 26.5 42.2C27.4 42.1 28.8999 41.7 29.1999 42.7C29.5999 43.6 28.8001 45.6 25.9001 45.7C25.7668 45.7 25.6333 45.7 25.5 45.7C25.4333 45.7 25.3333 45.6667 25.1999 45.6C22.2999 45.4 21.6 43.5 22 42.5Z" fill="#050505"/>
<path d="M12.1 39.2L10.9999 38.9C10.5999 38.8 10.0999 38.9 9.99992 39.3C9.89992 39.7 10.0999 40 10.1999 40.1C10.4999 40.4 10.8 40.4 10.8 40.4" fill="#803531"/>
<path d="M12.1 39.2L10.9999 38.9C10.5999 38.8 10.0999 38.9 9.99992 39.3C9.89992 39.7 10.0999 40 10.1999 40.1C10.4999 40.4 10.8 40.4 10.8 40.4" stroke="#050505" stroke-width="0.4" stroke-linecap="round" stroke-linejoin="round"/>
<path d="M43.9999 21.7C38.7999 20.8 34.4999 18.6 34.4999 18.6C34.4999 18.6 28.1001 15.7 23.9001 12.5C19.7001 9.3 19.4999 15.8 30.9999 20.9C42.5999 25.9 49.1999 22.6 43.9999 21.7Z" fill="#8A52A0"/>
<g style="mix-blend-mode:multiply" opacity="0.5">
<path d="M44.0001 21.7C38.8001 20.8 34.5001 18.6 34.5001 18.6C34.5001 18.6 29.4003 16.2 25.9003 13.9C25.2003 14.2 24.4001 14.9 25.5001 16C27.1001 17.8 35.5002 23.2 40.6002 22.7C42.1002 22.8 43.2002 22.5 44.3002 23.4C46.3002 23 46.4001 22.1 44.0001 21.7Z" fill="#8A52A0"/>
</g>
<path d="M38.5 3.79999C34 1.79999 30.8 0 30.8 0L26.4001 16C28.7001 18 36.7 21.9 39.7 22.2L48.4001 8.10001C48.4001 8.10001 43.1 5.69999 38.5 3.79999Z" fill="#8A52A0"/>
<path d="M27.2 13.1L26.4001 16C28.7001 18 36.7 21.9 39.7 22.2L41.3 19.6C37.9 19.1 29.9 15.2 27.2 13.1Z" fill="#FAA918"/>
<g style="mix-blend-mode:multiply" opacity="0.5">
<path d="M26.6001 15.4L26.4001 16C28.7001 18 36.7 21.9 39.7 22.2L48.4001 8.10001C48.4001 8.10001 47.7 7.9 46.5 7.5C44.5 11.3 35.7001 21 26.6001 15.4Z" fill="#8A52A0"/>
</g>
<path opacity="0.2" d="M95.723 66.4193C95.723 67.2463 101.76 67.9079 109.203 67.9079C116.645 67.9079 122.599 67.1636 122.599 66.3366C122.599 65.5923 116.645 64.9308 109.203 64.9308C101.76 64.9308 95.723 65.5924 95.723 66.4193Z" fill="#050505"/>
<path d="M99.3617 38.7988C99.3617 38.7988 97.0461 38.0545 96.5499 37.4756C95.6403 36.7314 95.6404 35.3255 96.4674 34.4159C97.2943 33.5062 98.6174 33.5062 99.5271 34.2505C100.271 34.912 100.354 35.9871 99.9406 36.8967C100.051 36.8967 100.134 36.9243 100.189 36.9794C100.437 37.2275 100.519 37.5583 100.271 37.8064L99.3617 38.7988Z" fill="#B48054"/>
<path d="M99.3617 38.7988C99.3617 38.7988 97.0461 38.0545 96.5499 37.4756C95.6403 36.7314 95.6404 35.3255 96.4674 34.4159C97.2943 33.5062 98.6174 33.5062 99.5271 34.2505C100.271 34.912 100.354 35.9871 99.9406 36.8967C100.051 36.8967 100.134 36.9243 100.189 36.9794C100.437 37.2275 100.519 37.5583 100.271 37.8064L99.3617 38.7988Z" stroke="#050505" stroke-width="0.330785" stroke-linecap="round" stroke-linejoin="round"/>
<path d="M106.391 46.903C106.722 45.3318 105.646 43.7606 104.075 43.4298C103.083 43.2644 102.339 43.0163 101.843 42.6855C101.264 42.4374 101.015 42.1893 100.85 41.8585C100.602 41.6104 100.519 41.2796 100.437 40.6181C100.354 40.0392 100.354 39.2949 100.602 38.2199L94.8133 37.1448C94.5652 38.6334 94.4825 39.9565 94.5652 41.3624C94.7306 42.6855 95.2267 44.0086 95.971 45.1664C96.7152 46.3241 97.7903 47.2338 99.0307 47.8127C100.188 48.4742 101.512 48.9704 103 49.2185C104.571 49.5493 106.143 48.4742 106.391 46.903Z" fill="#EAECED"/>
<path d="M106.391 46.903C106.722 45.3318 105.646 43.7606 104.075 43.4298C103.083 43.2644 102.339 43.0163 101.843 42.6855C101.264 42.4374 101.015 42.1893 100.85 41.8585C100.602 41.6104 100.519 41.2796 100.437 40.6181C100.354 40.0392 100.354 39.2949 100.602 38.2199L94.8133 37.1448C94.5652 38.6334 94.4825 39.9565 94.5652 41.3624C94.7306 42.6855 95.2267 44.0086 95.971 45.1664C96.7152 46.3241 97.7903 47.2338 99.0307 47.8127C100.188 48.4742 101.512 48.9704 103 49.2185C104.571 49.5493 106.143 48.4742 106.391 46.903Z" stroke="#050505" stroke-width="0.330785" stroke-linecap="round" stroke-linejoin="round"/>
<g style="mix-blend-mode:multiply">
<mask id="mask0_150_5910" style="mask-type:luminance" maskUnits="userSpaceOnUse" x="94" y="37" width="12" height="13">
<path d="M105.357 49.2681L94.5322 49.2764L94.5239 37.1448L105.349 37.1365L105.357 49.2681Z" fill="white"/>
</mask>
<g mask="url(#mask0_150_5910)">
<path d="M104.654 48.5569C103.248 48.3088 101.925 47.8953 100.685 47.2338C99.5269 46.5722 98.452 45.6626 97.7077 44.5048C96.8807 43.4298 96.4671 42.1066 96.3017 40.7007C96.1914 39.6533 96.2191 38.5782 96.3845 37.4756L94.8133 37.1448C94.5652 38.6333 94.4825 39.9565 94.5652 41.3624C94.7306 42.6855 95.2267 44.0086 95.971 45.1664C96.7152 46.3241 97.7903 47.2338 99.0307 47.8127C100.188 48.4742 101.512 48.9704 103 49.2185C103.827 49.3839 104.737 49.1358 105.398 48.6396C105.123 48.6396 104.875 48.612 104.654 48.5569Z" fill="#D7D7D5"/>
</g>
</g>
<path d="M104.737 63.8557C104.737 63.8557 105.233 64.6827 103.166 65.5924L111.518 65.9231L111.353 64.1865L104.737 63.8557Z" fill="#050505"/>
<path d="M104.737 63.8557C104.737 63.8557 105.233 64.6827 103.166 65.5924L111.518 65.9231L111.353 64.1865L104.737 63.8557Z" stroke="#050505" stroke-width="0.330785" stroke-linecap="round" stroke-linejoin="round"/>
<path d="M103.662 57.3228L104.241 63.7731L111.849 64.6L112.428 58.1497" fill="#28377C"/>
<path d="M103.662 57.3228L104.241 63.7731L111.849 64.6L112.428 58.1497" stroke="#050505" stroke-width="0.330785" stroke-linecap="round" stroke-linejoin="round"/>
<g opacity="0.3">
<mask id="mask1_150_5910" style="mask-type:luminance" maskUnits="userSpaceOnUse" x="108" y="58" width="4" height="7">
<path d="M111.005 64.5008H108.392V58.0091H110.997L111.005 64.5008Z" fill="white"/>
</mask>
<g mask="url(#mask1_150_5910)">
<path d="M108.376 57.9843L109.203 64.2692L111.022 64.5173L110.443 58.3978L108.376 57.9843Z" fill="#0C0E10"/>
</g>
</g>
<path d="M111.105 64.5173C111.105 64.5173 111.683 65.5924 109.864 66.254L118.134 66.9982L117.968 65.1789L111.105 64.5173Z" fill="#050505"/>
<path d="M111.105 64.5173C111.105 64.5173 111.683 65.5924 109.864 66.254L118.134 66.9982L117.968 65.1789L111.105 64.5173Z" stroke="#050505" stroke-width="0.330785" stroke-linecap="round" stroke-linejoin="round"/>
<path d="M110.03 57.7362L110.857 64.4346L118.713 65.7578L119.043 59.1421" fill="#28377C"/>
<path d="M110.03 57.7362L110.857 64.4346L118.713 65.7578L119.043 59.1421" stroke="#050505" stroke-width="0.330785" stroke-linecap="round" stroke-linejoin="round"/>
<g opacity="0.3">
<mask id="mask2_150_5910" style="mask-type:luminance" maskUnits="userSpaceOnUse" x="116" y="60" width="3" height="6">
<path d="M118.977 65.7743H116.827L116.819 60.2667H118.977V65.7743Z" fill="white"/>
</mask>
<g mask="url(#mask2_150_5910)">
<path d="M118.961 61.2922L118.878 60.4652L116.811 60.2998L117.389 65.5924L118.713 65.7578L118.961 61.2922Z" fill="#0C0E10"/>
</g>
</g>
<path d="M111.27 49.632L108.045 46.7376L105.481 44.2567C105.481 44.2567 103.827 49.3839 102.421 52.1129C101.181 54.5938 99.6098 56.165 99.5271 56.6612C99.6925 58.1497 105.068 60.7133 106.804 61.2095C111.601 62.5326 114.33 61.7057 117.72 62.4499C120.367 63.0288 120.863 62.698 121.194 62.4499C122.269 61.623 122.682 48.3915 122.682 48.3915H116.232L111.27 49.632Z" fill="#EAECED"/>
<path d="M111.27 49.632L108.045 46.7376L105.481 44.2567C105.481 44.2567 103.827 49.3839 102.421 52.1129C101.181 54.5938 99.6098 56.165 99.5271 56.6612C99.6925 58.1497 105.068 60.7133 106.804 61.2095C111.601 62.5326 114.33 61.7057 117.72 62.4499C120.367 63.0288 120.863 62.698 121.194 62.4499C122.269 61.623 122.682 48.3915 122.682 48.3915H116.232L111.27 49.632Z" stroke="#050505" stroke-width="0.330785" stroke-linecap="round" stroke-linejoin="round"/>
<path d="M114.082 56.9919C113.751 58.8113 114.661 59.8863 116.066 60.2171C117.39 60.4652 118.713 59.8863 119.126 58.1497L119.54 56.2477L114.495 55.0899L114.082 56.9919Z" stroke="#050505" stroke-width="0.330785" stroke-linecap="round" stroke-linejoin="round"/>
<path d="M114.247 56.0823L119.374 57.24L114.247 56.0823Z" fill="#E3272C"/>
<path d="M114.247 56.0823L119.374 57.24" stroke="#050505" stroke-width="0.330785"/>
<path d="M110.195 54.511C110.195 54.7591 109.864 54.9245 109.616 54.9245C109.285 54.8418 109.12 54.511 109.203 54.263C109.285 53.9322 109.533 53.7668 109.781 53.8495C110.112 53.9322 110.278 54.1802 110.195 54.511Z" fill="#050505"/>
<path d="M109.285 56.6612C109.203 56.992 108.954 57.1574 108.624 57.0747C108.376 56.992 108.21 56.7438 108.21 56.4131C108.293 56.165 108.624 55.9996 108.872 55.9996C109.203 56.0823 109.368 56.4131 109.285 56.6612Z" fill="#050505"/>
<path d="M108.128 58.8113C108.128 59.1421 107.797 59.3075 107.549 59.2248C107.218 59.1421 107.053 58.894 107.135 58.5632C107.218 58.3151 107.466 58.1497 107.797 58.1497C108.045 58.2324 108.21 58.5632 108.128 58.8113Z" fill="#050505"/>
<g style="mix-blend-mode:multiply">
<mask id="mask3_150_5910" style="mask-type:luminance" maskUnits="userSpaceOnUse" x="119" y="48" width="4" height="15">
<path d="M122.69 62.7559H119.275L119.267 48.4246H122.682L122.69 62.7559Z" fill="white"/>
</mask>
<g mask="url(#mask3_150_5910)">
<path d="M121.194 62.4499C122.186 61.7057 122.599 50.6243 122.682 48.7223V48.3915L120.863 48.7223L119.292 62.698C120.532 62.8634 120.945 62.6153 121.194 62.4499Z" fill="#D7D7D5"/>
</g>
</g>
<path d="M126.073 59.5555C126.403 60.0517 127.23 61.1268 127.148 62.2845C127.148 63.3596 126.486 64.2692 125.576 64.6C124.419 64.9308 123.013 64.4346 123.013 63.6076C123.013 63.2768 122.93 62.9461 122.765 62.5326C122.682 62.1191 122.351 61.4575 122.351 61.2921C122.103 60.6306 122.021 59.142 123.344 58.6458C124.998 58.067 126.073 59.5555 126.073 59.5555Z" fill="#AB795A"/>
<path d="M126.073 59.5555C126.403 60.0517 127.23 61.1268 127.148 62.2845C127.148 63.3596 126.486 64.2692 125.576 64.6C124.419 64.9308 123.013 64.4346 123.013 63.6076C123.013 63.2768 122.93 62.9461 122.765 62.5326C122.682 62.1191 122.351 61.4575 122.351 61.2921C122.103 60.6306 122.021 59.142 123.344 58.6458C124.998 58.067 126.073 59.5555 126.073 59.5555Z" stroke="#050505" stroke-width="0.413482" stroke-linecap="round" stroke-linejoin="round"/>
<path d="M122.765 60.8787L121.772 62.2018C121.524 62.5326 121.607 63.0288 121.938 63.1942C122.186 63.4423 122.517 63.3596 122.682 63.2769C123.013 63.0288 123.261 62.698 123.261 62.698" fill="#AB795A"/>
<path d="M122.765 60.8787L121.772 62.2018C121.524 62.5326 121.607 63.0288 121.938 63.1942C122.186 63.4423 122.517 63.3596 122.682 63.2769C123.013 63.0288 123.261 62.698 123.261 62.698" stroke="#050505" stroke-width="0.413482" stroke-linecap="round" stroke-linejoin="round"/>
<g style="mix-blend-mode:multiply">
<mask id="mask4_150_5910" style="mask-type:luminance" maskUnits="userSpaceOnUse" x="121" y="58" width="6" height="5">
<path d="M126.908 62.0612L121.954 62.0695V58.4061H126.899L126.908 62.0612Z" fill="white"/>
</mask>
<g mask="url(#mask4_150_5910)">
<path d="M126.9 60.4652C126.9 60.4652 125.494 59.8036 124.088 60.7133C122.682 61.6229 122.517 62.0365 122.517 62.0365C122.517 62.0365 121.524 60.796 122.186 59.7209C122.93 58.6459 124.419 57.9843 125.246 58.7286C125.99 59.4729 126.9 60.4652 126.9 60.4652Z" fill="#DFDFDF"/>
</g>
</g>
<path d="M127.396 60.2998C126.982 58.8939 126.652 57.8189 126.238 56.2477C125.411 53.436 124.088 51.7821 124.088 51.7821C123.013 50.2935 121.194 49.7974 119.788 50.707L119.374 51.0378C118.134 51.782 117.389 53.436 118.63 55.338C118.63 55.338 119.705 57.1573 120.284 59.0593C120.615 60.3825 121.111 62.1191 121.111 62.1191L127.396 60.2998Z" fill="#F5F6F7"/>
<path d="M127.396 60.2998C126.982 58.8939 126.652 57.8189 126.238 56.2477C125.411 53.436 124.088 51.7821 124.088 51.7821C123.013 50.2935 121.194 49.7974 119.788 50.707L119.374 51.0378C118.134 51.782 117.389 53.436 118.63 55.338C118.63 55.338 119.705 57.1573 120.284 59.0593C120.615 60.3825 121.111 62.1191 121.111 62.1191L127.396 60.2998Z" stroke="#050505" stroke-width="0.413482" stroke-linecap="round" stroke-linejoin="round"/>
<g opacity="0.3">
<mask id="mask5_150_5910" style="mask-type:luminance" maskUnits="userSpaceOnUse" x="118" y="50" width="10" height="11">
<path d="M127.363 60.9035L118.952 60.9117L118.944 50.277L127.354 50.2687L127.363 60.9035Z" fill="white"/>
</mask>
<g mask="url(#mask5_150_5910)">
<path d="M127.396 60.2998C126.982 58.8939 126.651 57.8189 126.238 56.2477C125.411 53.436 124.088 51.7821 124.088 51.7821C123.013 50.2935 121.193 49.7974 119.788 50.707L119.374 51.0378C119.209 51.0929 119.071 51.1756 118.961 51.2859C119.209 51.3686 119.457 51.4513 119.457 51.4513C119.457 51.4513 121.69 51.2032 123.178 54.263C124.17 56.3304 124.832 59.2247 125.245 60.8787L127.396 60.2998Z" fill="#0A0C0F"/>
</g>
</g>
<path d="M109.368 52.361C109.368 52.361 109.12 53.6841 107.797 56.2477C106.474 58.8113 105.895 60.6306 105.895 60.6306" fill="#FEFEFE"/>
<path d="M109.368 52.361C109.368 52.361 109.12 53.6841 107.797 56.2477C106.474 58.8113 105.895 60.6306 105.895 60.6306" stroke="#050505" stroke-width="0.330785" stroke-linecap="round" stroke-linejoin="round"/>
<path d="M109.699 52.0302L109.285 51.8648L109.616 47.8127L112.593 49.632L109.699 52.0302Z" fill="#96BFE2"/>
<g opacity="0.4">
<mask id="mask6_150_5910" style="mask-type:luminance" maskUnits="userSpaceOnUse" x="109" y="50" width="7" height="4">
<path d="M115.215 53.0474L109.31 53.0556V50.5334H115.206L115.215 53.0474Z" fill="white"/>
</mask>
<g mask="url(#mask6_150_5910)">
<path d="M114.991 51.534V51.9475L112.014 51.3686L112.428 51.8648L112.345 52.2782L109.451 52.8571L109.699 52.0302L111.518 50.707L114.991 51.534Z" fill="#ACACAD"/>
<path d="M114.991 51.534V51.9475L112.014 51.3686L112.428 51.8648L112.345 52.2782L109.451 52.8571L109.699 52.0302L111.518 50.707L114.991 51.534Z" stroke="#ACACAD" stroke-width="0.330785" stroke-linejoin="round"/>
</g>
</g>
<g opacity="0.4">
<mask id="mask7_150_5910" style="mask-type:luminance" maskUnits="userSpaceOnUse" x="106" y="49" width="4" height="4">
<path d="M109.277 52.3196H106.631L106.622 49.3425L109.277 49.3343V52.3196Z" fill="white"/>
</mask>
<g mask="url(#mask7_150_5910)">
<path d="M108.458 49.9628V50.459L109.285 52.2782L107.962 50.2108L106.639 49.7147V49.3012L108.458 49.9628Z" fill="#ACACAD"/>
</g>
</g>
<path d="M109.368 47.5646L106.804 49.3839L108.458 49.9628L107.879 50.2936L109.285 52.4436L109.616 51.6994L109.781 47.8953L109.368 47.5646Z" fill="#EAECED"/>
<path d="M109.368 47.5646L106.804 49.3839L108.458 49.9628L107.879 50.2936L109.285 52.4436L109.616 51.6994L109.781 47.8953L109.368 47.5646Z" stroke="#050505" stroke-width="0.330785" stroke-linecap="round" stroke-linejoin="round"/>
<path d="M113.586 49.0531L114.909 51.534L111.932 50.9551L112.262 51.8648L109.451 52.4436L109.533 51.8648L111.683 49.3012L113.586 49.0531Z" fill="#EAECED"/>
<path d="M113.586 49.0531L114.909 51.534L111.932 50.9551L112.262 51.8648L109.451 52.4436L109.533 51.8648L111.683 49.3012L113.586 49.0531Z" stroke="#050505" stroke-width="0.330785" stroke-linecap="round" stroke-linejoin="round"/>
<mask id="mask8_150_5910" style="mask-type:luminance" maskUnits="userSpaceOnUse" x="99" y="50" width="8" height="8">
<path d="M106.796 52.3114L103.654 57.9264L99.5271 56.4544L103.306 50.2026L106.796 52.3114Z" fill="white"/>
</mask>
<g mask="url(#mask8_150_5910)">
<path d="M98.2867 52.1956C97.5425 53.8495 98.204 55.0899 99.5272 55.7515C100.85 56.3304 102.256 55.9996 103 54.4284L103.827 52.6091L99.1137 50.459L98.2867 52.1956Z" stroke="#050505" stroke-width="0.330785" stroke-linecap="round" stroke-linejoin="round"/>
<path d="M98.6173 51.2859L103.414 53.5187L98.6173 51.2859Z" fill="#E3272C"/>
<path d="M98.6173 51.2859L103.414 53.5187" stroke="#050505" stroke-width="0.330785"/>
</g>
<g opacity="0.5">
<mask id="mask9_150_5910" style="mask-type:luminance" maskUnits="userSpaceOnUse" x="109" y="48" width="3" height="4">
<path d="M111.435 51.3273H109.773V48.9043H111.427L111.435 51.3273Z" fill="white"/>
</mask>
<g mask="url(#mask9_150_5910)">
<path d="M110.939 48.8877L111.435 49.3012L109.781 51.3686L109.864 50.3762L110.939 48.8877Z" fill="#6983A5"/>
</g>
</g>
<path d="M111.683 49.3012L108.127 46.5722" stroke="#050505" stroke-width="0.330785" stroke-linecap="round" stroke-linejoin="round"/>
<path d="M131.861 42.272C127.396 49.632 117.886 52.3609 109.947 48.1434C102.256 44.0913 100.519 34.1677 105.068 26.8078C109.533 19.4478 118.878 16.9669 126.238 21.5152C133.598 25.9808 136.41 34.912 131.861 42.272Z" fill="#9A7448"/>
<path d="M129.05 41.6931C124.749 48.7223 116.811 51.6167 109.864 47.3165C102.918 43.0989 100.767 33.9196 105.068 26.8078C109.368 19.7786 113.751 20.6882 120.697 24.9884C127.644 29.2886 133.433 34.6639 129.05 41.6931Z" fill="#BC8357"/>
<path d="M132.771 40.7008C128.305 48.0607 120.201 53.9322 110.112 48.0608C98.2039 41.1143 100.602 34.2505 105.15 26.8905C109.616 19.5305 119.291 17.215 126.651 21.6806C134.011 26.2289 137.319 33.3408 132.771 40.7008Z" fill="#B48054"/>
<path d="M132.771 40.7008C128.305 48.0607 120.201 53.9322 110.112 48.0608C98.2039 41.1143 100.602 34.2505 105.15 26.8905C109.616 19.5305 119.291 17.215 126.651 21.6806C134.011 26.2289 137.319 33.3408 132.771 40.7008Z" stroke="#050505" stroke-width="0.330785"/>
<path d="M104.158 30.6945C103.745 31.3561 103.745 32.1003 104.158 32.3484C104.571 32.5965 105.233 32.2657 105.647 31.6041C106.06 30.9426 106.06 30.281 105.647 29.9502C105.233 29.7021 104.571 30.0329 104.158 30.6945Z" fill="#050505"/>
<path d="M116.066 37.9718C115.653 38.6333 114.991 38.9641 114.578 38.7161C114.082 38.3853 114.082 37.7237 114.495 37.0621C114.909 36.4006 115.57 36.0698 115.984 36.3178C116.397 36.5659 116.397 37.3102 116.066 37.9718Z" fill="#050505"/>
<path d="M116.149 37.1448C116.066 37.2275 115.901 37.3102 115.818 37.2275C115.736 37.2275 115.736 37.0621 115.818 36.9794C115.901 36.814 115.984 36.7314 116.066 36.8141C116.149 36.8967 116.232 36.9794 116.149 37.1448Z" fill="#FEFEFE"/>
<path d="M104.158 30.6945C103.745 31.3561 103.745 32.1003 104.158 32.3484C104.571 32.5965 105.233 32.2657 105.647 31.6041C106.06 30.9426 106.06 30.281 105.647 29.9502C105.233 29.7021 104.571 30.0329 104.158 30.6945Z" fill="#050505"/>
<path d="M105.647 30.6945C105.564 30.7772 105.399 30.8599 105.316 30.7772C105.233 30.7772 105.233 30.6118 105.316 30.5291C105.399 30.3637 105.481 30.3637 105.647 30.3637C105.729 30.4464 105.729 30.6118 105.647 30.6945Z" fill="#FEFEFE"/>
<path d="M116.066 37.9718C115.653 38.6333 114.991 38.9641 114.578 38.7161C114.082 38.3853 114.082 37.7237 114.495 37.0621C114.909 36.4006 115.57 36.0698 115.984 36.3178C116.397 36.5659 116.397 37.3102 116.066 37.9718Z" fill="#B48054"/>
<path d="M116.066 37.9718C115.653 38.6333 114.991 38.9641 114.578 38.7161C114.082 38.3853 114.082 37.7237 114.495 37.0621C114.909 36.4006 115.57 36.0698 115.984 36.3178C116.397 36.5659 116.397 37.3102 116.066 37.9718Z" stroke="#B48054" stroke-width="0.330785"/>
<path d="M116.149 37.1448C116.066 37.2275 115.901 37.3102 115.818 37.2275C115.736 37.2275 115.736 37.0621 115.818 36.9794C115.901 36.814 115.984 36.7314 116.066 36.8141C116.149 36.8967 116.232 36.9794 116.149 37.1448Z" fill="#B48054"/>
<path d="M116.149 37.1448C116.066 37.2275 115.901 37.3102 115.818 37.2275C115.736 37.2275 115.736 37.0621 115.818 36.9794C115.901 36.814 115.984 36.7314 116.066 36.8141C116.149 36.8967 116.232 36.9794 116.149 37.1448Z" stroke="#B48054" stroke-width="0.330785"/>
<path d="M104.158 30.6945C103.745 31.3561 103.745 32.1003 104.158 32.3484C104.571 32.5965 105.233 32.2657 105.647 31.6041C106.06 30.9426 106.06 30.281 105.647 29.9502C105.233 29.7021 104.571 30.0329 104.158 30.6945Z" fill="#B48054"/>
<path d="M104.158 30.6945C103.745 31.3561 103.745 32.1003 104.158 32.3484C104.571 32.5965 105.233 32.2657 105.647 31.6041C106.06 30.9426 106.06 30.281 105.647 29.9502C105.233 29.7021 104.571 30.0329 104.158 30.6945Z" stroke="#B48054" stroke-width="0.330785"/>
<path d="M105.647 30.6945C105.564 30.7772 105.399 30.8599 105.316 30.7772C105.233 30.7772 105.233 30.6118 105.316 30.5291C105.399 30.3637 105.481 30.3637 105.647 30.3637C105.729 30.4464 105.729 30.6118 105.647 30.6945Z" fill="#B48054"/>
<path d="M105.647 30.6945C105.564 30.7772 105.399 30.8599 105.316 30.7772C105.233 30.7772 105.233 30.6118 105.316 30.5291C105.399 30.3637 105.481 30.3637 105.647 30.3637C105.729 30.4464 105.729 30.6118 105.647 30.6945Z" stroke="#B48054" stroke-width="0.330785"/>
<path d="M114.164 36.8967C114.66 35.9871 115.57 35.8217 116.149 36.1525C116.645 36.4832 116.811 37.3102 116.232 38.1372" fill="#B48054"/>
<path d="M114.164 36.8967C114.66 35.9871 115.57 35.8217 116.149 36.1525C116.645 36.4832 116.811 37.3102 116.232 38.1372" stroke="#050505" stroke-width="0.330785" stroke-linecap="round" stroke-linejoin="round"/>
<path d="M105.729 31.6869C106.143 31.0253 106.06 30.281 105.647 29.9502C105.233 29.7021 104.571 30.0329 104.158 30.6945" fill="#B48054"/>
<path d="M105.729 31.6869C106.143 31.0253 106.06 30.281 105.647 29.9502C105.233 29.7021 104.571 30.0329 104.158 30.6945" stroke="#050505" stroke-width="0.330785" stroke-linecap="round" stroke-linejoin="round"/>
<g style="mix-blend-mode:multiply">
<mask id="mask10_150_5910" style="mask-type:luminance" maskUnits="userSpaceOnUse" x="107" y="19" width="28" height="32">
<path d="M134.847 50.4507L107.524 50.4755L107.499 19.7207L134.822 19.7042L134.847 50.4507Z" fill="white"/>
</mask>
<g mask="url(#mask10_150_5910)">
<path d="M118.63 43.9259C118.685 43.9259 118.685 43.8984 118.63 43.8433C118.878 43.3471 119.043 42.9336 119.043 42.5201C118.933 42.2444 118.795 41.9412 118.63 41.6105C118.299 40.8662 118.051 40.0392 117.886 39.2122C117.059 37.1448 116.811 34.3332 116.645 32.5965C116.397 30.6945 115.074 20.1094 115.074 20.1094C115.074 20.1094 119.457 19.0343 123.84 20.3575C123.895 20.4126 123.95 20.4402 124.005 20.4402C124.17 20.4953 124.336 20.5504 124.501 20.6056C124.556 20.6607 124.612 20.6883 124.667 20.6883C129.959 23.0038 133.598 28.6271 134.838 33.7543C134.838 33.7543 134.838 33.7819 134.838 33.837C134.838 36.0698 134.26 38.3853 132.771 40.7008C128.305 48.0607 120.201 53.9322 110.112 48.0608C109.23 47.5646 108.431 47.0684 107.714 46.5722C107.604 46.4069 107.549 46.3242 107.549 46.3242C114.578 49.5493 118.63 43.9259 118.63 43.9259Z" fill="#D7D7D5"/>
</g>
</g>
<path d="M132.109 42.272C132.109 42.272 134.921 42.272 131.448 45.8279C129.628 47.5646 125.907 48.8877 125.907 48.8877L132.109 42.272Z" fill="#201E1E"/>
<path d="M111.849 19.4478C111.849 19.4478 106.143 20.1094 102.421 24.7404C102.256 24.9058 104.323 23.4172 107.135 22.673" fill="#050505"/>
<path d="M133.929 25.5673C133.929 25.5673 140.545 32.9273 134.838 41.8585C134.838 41.8585 136.327 35.1601 133.929 25.5673Z" fill="#050505"/>
<path d="M127.809 31.4388C127.479 31.2734 124.667 40.4527 128.306 43.0163C130.786 40.4527 130.621 36.5659 130.621 36.5659C130.952 39.9565 129.711 42.6855 128.967 43.4298C129.546 43.926 131.283 45.0837 132.606 45.3318C132.606 45.3318 143.604 30.033 126.073 19.8613C126.073 19.8613 116.066 12.9975 103.249 24.9058C103.249 24.9058 103.166 25.5674 103.827 27.1386C104.324 28.379 109.12 22.1768 109.864 23.0864" fill="#050505"/>
<path d="M124.088 18.9516C122.351 18.2074 115.405 15.0649 105.564 20.6883C105.564 20.6883 125.907 19.6959 124.088 18.9516Z" fill="#050505"/>
<path d="M113.007 17.8766C113.007 17.8766 129.215 13.2456 135.335 27.8828C141.371 42.4374 113.007 17.8766 113.007 17.8766Z" fill="#050505"/>
<path d="M133.102 44.4221C133.102 44.4221 131.53 47.3992 128.801 48.8877C126.073 50.2936 125.576 50.2108 125.576 50.2108C125.576 50.2108 127.148 49.4666 129.298 45.7453" fill="#050505"/>
<path d="M123.426 50.5416C123.426 50.5416 122.434 50.6244 121.772 50.0455C121.524 49.7974 123.096 49.3012 123.096 49.3012L123.426 50.5416Z" fill="#050505"/>
<path d="M121.276 19.117C121.276 19.117 114.247 14.1553 103.497 25.4847C103.497 25.4847 103.331 25.402 103.662 26.7251C103.993 27.7175 103.993 27.7174 104.489 28.4617C105.399 26.8078 106.474 26.3116 110.195 25.0712C110.195 25.0712 106.143 26.477 105.316 29.3714C111.187 35.9044 117.638 33.0927 117.638 33.0927C117.472 32.9273 115.818 37.3929 120.036 38.8815C122.186 36.4833 123.178 32.9273 123.178 32.9273C123.013 35.739 122.269 37.5583 121.028 39.3776C121.442 39.7084 122.93 40.0392 123.923 40.2046C123.923 40.2046 133.681 26.1462 121.276 19.117Z" fill="#050505"/>
<path d="M123.923 40.2046C123.923 40.2046 127.726 42.7682 122.351 49.7147L130.125 47.3992C130.125 47.3992 137.402 41.1142 135.5 32.4311C133.681 23.748 131.2 27.9655 131.2 27.9655L127.479 27.8828L123.923 40.2046Z" fill="#050505"/>
<path d="M121.028 39.3776C121.028 39.3776 124.336 43.4297 122.434 49.3012C122.186 50.1282 123.426 50.5416 123.426 50.5416C123.426 50.5416 127.23 49.632 128.884 47.4819C130.621 45.2491 126.734 38.7161 126.734 38.7161L121.028 39.3776Z" fill="#050505"/>
<path d="M132.275 23.748C132.275 23.748 130.952 20.1921 128.802 18.5381C126.651 16.8842 126.321 17.215 126.321 17.215C126.321 17.215 129.546 18.9516 130.373 23.0864" fill="#050505"/>
<path d="M135.087 26.9732C135.087 26.9732 133.763 25.2366 135.914 24.4096C135.914 24.4096 134.508 23.748 133.929 24.4096C134.094 23.4173 133.929 21.4325 131.448 19.5305C131.448 19.5305 132.357 22.0114 130.621 21.6806" fill="#050505"/>
<path d="M108.954 36.8967C108.954 36.8967 107.714 37.5583 106.722 36.9794C105.812 36.4005 106.143 34.912 106.143 34.912C106.143 34.912 106.804 36.1525 107.218 36.4833C107.714 36.7313 108.954 36.8967 108.954 36.8967Z" fill="#9A7448"/>
<path d="M106.308 35.1601L106.556 35.9044C106.722 36.1525 107.135 36.4006 107.466 36.4832L108.954 36.8141" stroke="#050505" stroke-width="0.330785" stroke-linecap="round" stroke-linejoin="bevel"/>
<path d="M109.616 44.8356C108.376 43.5951 108.127 41.6931 109.037 40.0392C109.781 38.7987 111.105 38.0545 112.51 38.0545" stroke="#050505" stroke-width="0.330785" stroke-linecap="round" stroke-linejoin="bevel"/>
<path d="M101.512 38.7987C100.437 37.3929 100.354 35.4909 101.346 34.1678C102.256 33.01 103.579 32.5965 104.985 32.7619" fill="#B48054"/>
<path d="M101.512 38.7987C100.437 37.3929 100.354 35.4909 101.346 34.1678C102.256 33.01 103.579 32.5965 104.985 32.7619" stroke="#050505" stroke-width="0.330785" stroke-linecap="round" stroke-linejoin="round"/>
<path d="M122.765 22.4249L118.216 17.1323" stroke="#050505" stroke-width="0.330785"/>
<path d="M136.492 28.2963L135.004 27.4693L134.508 29.206L135.087 29.5367L136.492 28.2963Z" fill="#050505"/>
<path d="M97.2943 33.6716C86.5438 28.9579 78.1913 19.3651 77.5298 19.0343C76.2893 18.4554 74.3874 20.4402 72.6507 24.2442C70.8314 28.0482 70.0044 30.6118 71.741 31.3561C72.568 31.7695 88.7765 33.6716 98.452 37.0621C104.075 39.0469 103.91 40.37 104.406 40.2046C104.571 40.1219 105.15 39.7911 105.481 39.1295C105.729 38.5507 105.647 37.9718 105.564 37.7237C105.399 37.2275 104.82 37.641 99.3617 35.0774" fill="#FAA918"/>
<g style="mix-blend-mode:multiply" opacity="0.2">
<mask id="mask11_150_5910" style="mask-type:luminance" maskUnits="userSpaceOnUse" x="70" y="28" width="36" height="13">
<path d="M105.068 40.2294L70.7735 34.9534L70.7653 28.5527L105.068 33.8287V40.2294Z" fill="white"/>
</mask>
<g mask="url(#mask11_150_5910)">
<path d="M104.406 40.2046C104.489 40.2046 104.82 39.8738 105.068 39.543L104.902 39.2122C104.406 39.2949 104.241 38.7988 98.7827 36.2352C92.0843 33.0927 73.9739 28.9579 73.0642 28.5444L70.9141 28.7098C70.5833 30.0329 70.8314 30.9426 71.741 31.3561C72.568 31.7696 90.1824 34.0024 98.452 37.0621C104.075 39.2123 103.91 40.37 104.406 40.2046Z" fill="#180E20"/>
</g>
</g>
<path d="M78.1086 18.6208C77.9432 18.6208 77.6126 18.4555 77.4472 18.3728C76.2068 17.7939 73.8086 20.3575 72.0719 23.9961C70.3353 27.7175 70.0045 31.1907 71.245 31.7696C71.3277 31.8523 71.6584 32.0176 71.8238 32.0176C73.395 32.7619 76.0413 30.3637 77.7779 26.7251C79.5145 23.0038 79.6798 19.3651 78.1086 18.6208Z" fill="#FEC908"/>
<path d="M76.6202 26.1462C74.8836 29.8676 72.4854 32.3484 71.245 31.7696C70.0045 31.1907 70.3353 27.7175 72.0719 23.9961C73.8086 20.3575 76.2068 17.7939 77.4472 18.3728C78.6877 18.9516 78.3569 22.4249 76.6202 26.1462Z" fill="#FCB613"/>
<g opacity="0.9">
<mask id="mask12_150_5910" style="mask-type:luminance" maskUnits="userSpaceOnUse" x="71" y="20" width="6" height="10">
<path d="M76.6448 29.6856H71.6584L71.6501 20.283L76.6368 20.2748L76.6448 29.6856Z" fill="white"/>
</mask>
<g mask="url(#mask12_150_5910)">
<path d="M75.297 25.5673C74.1392 28.1309 72.6507 29.9503 71.9891 29.6195C71.3276 29.3714 71.741 26.9732 72.9815 24.4096C74.1392 21.846 75.7105 20.0267 76.3721 20.2748C76.951 20.6056 76.5374 22.921 75.297 25.5673Z" fill="#600B3C"/>
</g>
</g>
<g opacity="0.7">
<mask id="mask13_150_5910" style="mask-type:luminance" maskUnits="userSpaceOnUse" x="72" y="21" width="5" height="9">
<path d="M76.6368 29.2887L72.8575 29.2969L72.8492 21.2093H76.6368V29.2887Z" fill="white"/>
</mask>
<g mask="url(#mask13_150_5910)">
<path d="M75.2971 25.5673C76.124 23.8307 76.6203 22.1768 76.6203 21.1844C75.876 21.846 74.9663 23.2518 74.1394 24.9884C73.3124 26.7251 72.8989 28.2963 72.8162 29.2887C73.5604 28.6271 74.5528 27.2213 75.2971 25.5673Z" fill="#4E0E26"/>
</g>
</g>
<path d="M100.354 35.739C100.023 36.3178 99.0309 36.4833 98.0385 35.9871C96.9635 35.4909 96.3845 34.6639 96.7153 34.0024C96.9634 33.4235 98.0385 33.2581 99.0308 33.7543C100.023 34.1678 100.602 35.0774 100.354 35.739Z" fill="#B48054"/>
<path d="M100.354 35.739C100.023 36.3178 99.0309 36.4833 98.0385 35.9871C96.9635 35.4909 96.3845 34.6639 96.7153 34.0024C96.9634 33.4235 98.0385 33.2581 99.0308 33.7543C100.023 34.1678 100.602 35.0774 100.354 35.739Z" stroke="#050505" stroke-width="0.330785"/>
<path d="M100.85 37.3102C100.519 37.9718 100.271 38.468 99.5271 38.1372C98.7001 37.8064 99.0309 37.3102 99.3617 36.5659C99.6925 35.9044 100.189 35.6563 100.602 35.8217C101.016 35.9871 101.181 36.566 100.85 37.3102Z" fill="#B48054"/>
<path d="M100.85 37.3102C100.519 37.9718 100.271 38.468 99.5271 38.1372C98.7001 37.8064 99.0309 37.3102 99.3617 36.5659C99.6925 35.9044 100.189 35.6563 100.602 35.8217C101.016 35.9871 101.181 36.566 100.85 37.3102Z" stroke="#050505" stroke-width="0.330785" stroke-linecap="round" stroke-linejoin="round"/>
<path d="M104.158 40.37C104.323 40.37 104.985 39.9565 105.398 39.1295C105.729 38.3853 105.647 37.7237 105.564 37.4756" stroke="#050505" stroke-width="0.413482"/>
<path d="M121.028 2.74313C121.028 2.74313 128.967 6.54716 126.569 16.7188C128.719 14.1552 138.312 3.40469 138.312 3.40469C138.312 3.40469 133.102 16.8842 131.779 19.8613C139.717 13.1629 146.747 18.5381 146.747 18.5381C136.41 18.6208 134.26 27.304 134.26 27.304C130.207 26.7251 125.659 23.9961 125.659 23.9961C125.659 23.9961 121.111 21.1844 118.878 17.7939C118.878 17.7939 125.659 12.0051 121.028 2.74313Z" fill="#71B24E"/>
<g style="mix-blend-mode:multiply" opacity="0.8">
<path d="M121.028 2.74313C121.028 2.74313 126.073 9.77231 123.509 17.0496C124.088 19.0343 128.967 24.3269 134.508 26.5597C134.342 27.0559 134.26 27.304 134.26 27.304C130.207 26.7251 125.659 23.9961 125.659 23.9961C125.659 23.9961 121.111 21.1844 118.878 17.7939C118.878 17.7939 125.659 12.0051 121.028 2.74313Z" fill="#94C845"/>
</g>
<g style="mix-blend-mode:multiply" opacity="0.5">
<path d="M126.569 16.7188C128.719 14.1552 138.311 3.40469 138.311 3.40469L127.809 20.5229C127.809 20.5229 126.238 18.7035 126.569 16.7188Z" fill="#94C845"/>
</g>
<g style="mix-blend-mode:multiply" opacity="0.5">
<path d="M133.267 22.0941C132.606 21.2671 131.779 19.8613 131.779 19.8613C139.717 13.1629 146.746 18.5381 146.746 18.5381C146.746 18.5381 139.387 16.3053 133.267 22.0941Z" fill="#94C845"/>
</g>
<path d="M148.235 19.4478C147.739 20.2748 146.664 20.5228 145.837 20.0266C145.01 19.5305 144.762 18.4554 145.258 17.6285C145.754 16.8015 146.829 16.5534 147.656 17.0496C148.483 17.5458 148.731 18.6208 148.235 19.4478Z" fill="#7358A4"/>
<path d="M136.823 2.49504C136.327 3.322 136.575 4.39705 137.402 4.89323C138.229 5.3894 139.304 5.14133 139.8 4.31437C140.379 3.4874 140.048 2.41236 139.304 1.91618C138.477 1.42 137.402 1.66807 136.823 2.49504Z" fill="#7358A4"/>
<path d="M119.54 1.83346C119.043 2.66043 119.291 3.73548 120.118 4.23165C120.945 4.72783 122.02 4.47973 122.517 3.65277C123.013 2.82581 122.765 1.75076 121.938 1.25458C121.111 0.758402 120.036 1.0065 119.54 1.83346Z" fill="#7358A4"/>
<path d="M126.817 22.0941C126.817 22.0941 130.952 24.575 134.921 25.5673C134.425 26.6424 134.26 27.304 134.26 27.304C130.207 26.7251 125.659 23.9961 125.659 23.9961C125.659 23.9961 121.111 21.1844 118.878 17.7939C118.878 17.7939 119.374 17.2977 120.036 16.4707C122.765 19.5305 126.817 22.0941 126.817 22.0941Z" fill="#FAA918"/>
</svg>
