<svg width="89" height="78" viewBox="0 0 89 78" fill="none" xmlns="http://www.w3.org/2000/svg">
<path d="M74.8 10.2581L11.4 7.45801L8.70001 68.7581L72.1 71.5581L74.8 10.2581Z" fill="#ED4592"/>
<path d="M8.5 68.458L72.1 71.5581L80.2 77.2581L18.9 74.2581L8.5 68.458Z" fill="#AB3878"/>
<path d="M74.8 10.2581L82.8 19.1581L80.2 77.2581L72.1 71.5581L74.8 10.2581Z" fill="#7C265A"/>
<mask id="mask0_152_8864" style="mask-type:luminance" maskUnits="userSpaceOnUse" x="72" y="10" width="11" height="68">
<path d="M74.81 10.2681L82.79 19.208L80.2 77.218L72.07 71.5481L74.81 10.2681Z" fill="white"/>
</mask>
<g mask="url(#mask0_152_8864)">
<path d="M81.7 -39.042L102.7 66.0581" stroke="#ED4592" stroke-width="0.4"/>
<path d="M79.6 -35.142L100.6 69.958" stroke="#ED4592" stroke-width="0.4"/>
<path d="M77.6 -31.2419L98.6 73.858" stroke="#ED4592" stroke-width="0.4"/>
<path d="M75.6 -27.4419L96.6 77.6581" stroke="#ED4592" stroke-width="0.4"/>
<path d="M73.5 -23.542L94.5 81.5581" stroke="#ED4592" stroke-width="0.4"/>
<path d="M71.5 -19.642L92.5 85.458" stroke="#ED4592" stroke-width="0.4"/>
<path d="M69.5 -15.8419L90.5 89.2581" stroke="#ED4592" stroke-width="0.4"/>
<path d="M67.4 -11.9419L88.5 93.1581" stroke="#ED4592" stroke-width="0.4"/>
<path d="M65.4 -8.04199L86.4 97.0581" stroke="#ED4592" stroke-width="0.4"/>
<path d="M63.4 -4.24194L84.4 100.858" stroke="#ED4592" stroke-width="0.4"/>
<path d="M61.3 -0.341919L82.4 104.758" stroke="#ED4592" stroke-width="0.4"/>
<path d="M59.3 3.55811L80.3 108.658" stroke="#ED4592" stroke-width="0.4"/>
<path d="M57.3 7.35803L78.3 112.458" stroke="#ED4592" stroke-width="0.4"/>
<path d="M55.2 11.2581L76.3 116.358" stroke="#ED4592" stroke-width="0.4"/>
<path d="M53.2 15.1581L74.2 120.258" stroke="#ED4592" stroke-width="0.4"/>
<path d="M47.1 26.7581L89.8 -54.4419" stroke="#ED4592" stroke-width="0.4"/>
<path d="M48.1 31.7581L90.8 -49.4419" stroke="#ED4592" stroke-width="0.4"/>
<path d="M49.1 36.7581L91.8 -44.4419" stroke="#ED4592" stroke-width="0.4"/>
<path d="M50.1 41.7581L92.8 -39.4419" stroke="#ED4592" stroke-width="0.4"/>
<path d="M51.1 46.7581L93.8 -34.4419" stroke="#ED4592" stroke-width="0.4"/>
<path d="M52.1 51.7581L94.8 -29.4419" stroke="#ED4592" stroke-width="0.4"/>
<path d="M53.1 56.7581L95.8 -24.4419" stroke="#ED4592" stroke-width="0.4"/>
<path d="M54.1 61.7581L96.8 -19.4419" stroke="#ED4592" stroke-width="0.4"/>
<path d="M55.1 66.7581L97.8 -14.4419" stroke="#ED4592" stroke-width="0.4"/>
<path d="M56.1 71.7581L98.8 -9.44189" stroke="#ED4592" stroke-width="0.4"/>
<path d="M57.1 76.7581L99.8 -4.44189" stroke="#ED4592" stroke-width="0.4"/>
<path d="M58.1 81.7581L100.8 0.558105" stroke="#ED4592" stroke-width="0.4"/>
<path d="M59.1 86.7581L101.8 5.55811" stroke="#ED4592" stroke-width="0.4"/>
<path d="M60.1 91.7581L102.8 10.5581" stroke="#ED4592" stroke-width="0.4"/>
<path d="M61.1 96.7581L103.8 15.5581" stroke="#ED4592" stroke-width="0.4"/>
<path d="M62.1 101.758L104.8 20.6581" stroke="#ED4592" stroke-width="0.4"/>
<path d="M63.1 106.758L105.8 25.6581" stroke="#ED4592" stroke-width="0.4"/>
<path d="M64.1 111.758L106.8 30.6581" stroke="#ED4592" stroke-width="0.4"/>
<path d="M65.1 116.858L107.8 35.6581" stroke="#ED4592" stroke-width="0.4"/>
<path d="M66.1 121.858L108.8 40.6581" stroke="#ED4592" stroke-width="0.4"/>
<path d="M67.1 126.858L109.8 45.6581" stroke="#ED4592" stroke-width="0.4"/>
<path d="M68.1 131.858L110.8 50.6581" stroke="#ED4592" stroke-width="0.4"/>
</g>
<path d="M16.1 12.958H18.8V24.1581H15.7V16.0581C14.9667 16.2581 14.3 16.4248 13.7 16.5581V13.5581L16.1 12.958Z" fill="#050505"/>
<path d="M17.3 11.6581H20V22.958H16.9V14.858C16.1667 15.058 15.5333 15.2247 15 15.358V12.358L17.3 11.6581Z" fill="#FEFEFE"/>
<g opacity="0.2">
<path d="M70 64.858C69.7 66.758 63.3 67.3581 55.8 66.0581C48.4 64.7581 42.6 62.158 42.9 60.258C43.2 58.258 49.6 57.758 57 58.958C64.5 60.258 70.3 62.858 70 64.858Z" fill="#1C1C1A"/>
</g>
<path d="M48.2 32.758C47.8 32.058 46.8 29.558 46.2 28.758C45.4 27.858 44.3 28.058 43.2 28.658C41.8 29.358 41.2 30.358 41.6 31.958C41.8 32.558 42.6 33.958 43 34.758C43.5 35.558 44.7 37.358 46.9 36.358C49 35.358 48.5 33.458 48.2 32.758Z" fill="#AB795A" stroke="#050505" stroke-width="0.5" stroke-linecap="round" stroke-linejoin="round"/>
<g style="mix-blend-mode:multiply" opacity="0.2">
<path d="M43 34.7581C43.5 35.5581 44.7 37.358 46.9 36.358C49 35.358 48.4 33.158 48 32.458C46.4 32.558 44.9 33.5581 43 34.7581Z" fill="#050505"/>
</g>
<path d="M47.6 32.1581L47.9 30.858C47.9 30.358 47.6 29.758 47.2 29.758C46.7 29.658 46.4 29.8581 46.2 30.0581C46 30.4581 45.9 30.758 45.9 30.758" fill="#AB795A"/>
<path d="M47.6 32.1581L47.9 30.858C47.9 30.358 47.6 29.758 47.2 29.758C46.7 29.658 46.4 29.8581 46.2 30.0581C46 30.4581 45.9 30.758 45.9 30.758" stroke="#050505" stroke-width="0.5" stroke-linecap="round" stroke-linejoin="round"/>
<g style="mix-blend-mode:multiply" opacity="0.2">
<path d="M46.1 30.0582C46.1 30.0582 45.6 30.2581 45.5 30.6581C45.4 31.1581 45.3 31.5581 45.1 31.6581C44.8 31.7581 43.6 32.5581 43.3 32.3581C42.9 32.1581 41.7 30.6581 42.5 29.9581C43.2 29.1581 45.1 28.1581 45.8 28.9581C46.5 29.7581 46.1 30.0582 46.1 30.0582Z" fill="#050505"/>
</g>
<path d="M43.1 35.1581C43.9 36.5581 44.5 37.6581 45.5 39.2581C47.2 42.1581 49.1 43.5581 49.1 43.5581C50.7 44.8581 52.8 44.858 54.1 43.458L54.5 43.0581C55.6 41.7581 55.9 39.7581 54.1 38.0581C54.1 38.0581 52.3 36.358 51.2 34.458C50.4 33.158 49.4 31.458 49.4 31.458L43.1 35.1581Z" fill="#F5F6F7" stroke="#050505" stroke-width="0.5" stroke-linecap="round" stroke-linejoin="round"/>
<path opacity="0.3" d="M43.1 35.1581C43.9 36.5581 44.5 37.6581 45.5 39.2581C47.2 42.1581 49.1 43.5581 49.1 43.5581C50.7 44.8581 52.8 44.858 54.1 43.458L54.5 43.0581C54.6333 42.8581 54.7666 42.6914 54.9 42.5581C54.5 42.5581 54.3 42.5581 54.3 42.5581C54.3 42.5581 51.9 43.5581 49.4 40.5581C47.7 38.6581 46.1 35.658 45.2 33.958L43.1 35.1581Z" fill="#0A0C0F"/>
<path d="M62.9999 43.658C62.1999 48.358 65.2999 52.858 69.8999 53.758C74.5999 54.658 79.0999 51.558 79.9999 46.858C80.8999 42.158 77.7999 37.658 73.0999 36.758C68.3999 35.858 63.8999 38.958 62.9999 43.658Z" fill="#C02F2D" stroke="#050505" stroke-width="0.5" stroke-linecap="round" stroke-linejoin="round"/>
<path d="M49.4 58.858C49.4 58.858 49.1 60.4581 46.8 60.6581L57.1 62.5581L57.5 60.358C57.7 59.258 58 56.958 54 56.258C50.1 55.558 50.1 56.858 49.4 58.858Z" fill="#050505" stroke="#050505" stroke-width="0.5" stroke-linecap="round" stroke-linejoin="round"/>
<path d="M60.4 51.7581L58 60.6581L48.5 59.1581L49.5 50.0582C49.7 48.7582 50.1 45.2581 56 46.4581C61.2 47.5581 60.7 50.5581 60.4 51.7581Z" fill="#2B6EB6" stroke="#050505" stroke-width="0.5" stroke-linecap="round" stroke-linejoin="round"/>
<path opacity="0.3" d="M50 49.0581C49.2 51.2581 48.8 59.1581 48.8 59.1581L51.1 59.5581L52.9 46.1581C52.6 46.2581 50.9 46.1581 50 49.0581Z" fill="#0A0C0F"/>
<path d="M58.2 60.5581C58.2 60.5581 57.9 62.1581 55.6 62.2581L65.9 64.1581L66.3 61.958C66.5 60.858 66.8 58.6581 62.7 57.8581C58.9 57.1581 58.9 58.5581 58.2 60.5581Z" fill="#050505" stroke="#050505" stroke-width="0.5" stroke-linecap="round" stroke-linejoin="round"/>
<path d="M69.2 53.458L66.7 62.358L57.3 60.7581L58.2 51.7581C58.4 50.4581 58.8 46.8581 64.7 48.1581C69.9 49.1581 69.4 52.258 69.2 53.458Z" fill="#2B6EB6" stroke="#050505" stroke-width="0.5" stroke-linecap="round" stroke-linejoin="round"/>
<path opacity="0.3" d="M58.7 50.7581C58 52.8581 57.5 60.858 57.5 60.858L59.8 61.1581L61.6 47.858C61.3 47.958 59.7 47.8581 58.7 50.7581Z" fill="#0A0C0F"/>
<path d="M62.4 36.458C57.3 35.958 55.5 36.358 54.2 36.458C52.5 36.658 50.5 37.858 50.3 39.558C50.2 41.158 49.9 42.158 48.7 45.658C47.5 48.958 45.9 51.058 45.9 51.658C46.3 53.558 53.4 56.558 55.6 57.058C61.7 58.458 65 57.258 69.2 58.058C72.5 58.658 73.1 58.2579 73.5 57.958C74.6 56.858 72.9 40.058 72.9 40.058C72.9 40.058 72.6 39.458 71.4 38.758C69.5 37.558 64.5 36.658 62.4 36.458Z" fill="#F5F6F7" stroke="#050505" stroke-width="0.5" stroke-linecap="round" stroke-linejoin="round"/>
<path d="M63.8999 51.358C63.6999 53.658 65 54.958 66.8 55.358C68.5 55.658 69.9999 54.8581 70.1999 52.5581L70.3999 50.1581L64 48.958L63.8999 51.358Z" stroke="#050505" stroke-width="0.5" stroke-linecap="round" stroke-linejoin="round"/>
<path d="M63.8 50.1581L70.4 51.358L63.8 50.1581Z" fill="#EE3D3B"/>
<path d="M63.8 50.1581L70.4 51.358" stroke="#050505" stroke-width="0.5" stroke-linejoin="round"/>
<path d="M58.6 48.358C58.6 48.758 58.3 48.958 57.9 48.958C57.6 48.858 57.3 48.4581 57.3 48.1581C57.4 47.7581 57.7 47.5581 58 47.5581C58.4 47.6581 58.7 47.958 58.6 48.358Z" fill="#050505"/>
<path d="M57.9 51.1581C57.8 51.5581 57.5 51.7581 57.1 51.7581C56.8 51.6581 56.5 51.358 56.5 50.958C56.6 50.558 56.9 50.358 57.3 50.358C57.6 50.458 57.9 50.8581 57.9 51.1581Z" fill="#050505"/>
<path d="M56.8 53.958C56.8 54.358 56.5 54.5581 56.1 54.5581C55.8 54.4581 55.5 54.0581 55.5 53.7581C55.6 53.3581 55.9 53.1581 56.2 53.1581C56.6 53.2581 56.9 53.558 56.8 53.958Z" fill="#050505"/>
<path d="M57.3 45.6581C57.3 45.6581 57.1 47.4581 55.9 50.7581C54.7 54.0581 54.4 56.358 54.4 56.358" fill="#FEFEFE"/>
<path d="M57.3 45.6581C57.3 45.6581 57.1 47.4581 55.9 50.7581C54.7 54.0581 54.4 56.358 54.4 56.358" stroke="#050505" stroke-width="0.5" stroke-linecap="round" stroke-linejoin="round"/>
<path d="M57.6 45.258L57.1 45.0581L56.8 39.858C56.8 39.858 56.8 36.4581 62 37.1581C66.7 37.7581 63.6 41.1581 61.4 42.5581C59.9 43.4581 57.6 45.258 57.6 45.258Z" fill="#9FC8EA"/>
<mask id="mask1_152_8864" style="mask-type:luminance" maskUnits="userSpaceOnUse" x="46" y="43" width="9" height="11">
<path d="M49.69 43.328L46.11 51.458L51.16 53.0681L54.06 45.7681L49.69 43.328Z" fill="white"/>
</mask>
<g mask="url(#mask1_152_8864)">
<path d="M43.6 46.0581C43 48.1581 44 49.758 45.7 50.458C47.4 51.158 49.1 50.6581 49.7 48.5581L50.4 46.2581L44.3 43.7581L43.6 46.0581Z" stroke="#050505" stroke-width="0.5" stroke-linecap="round" stroke-linejoin="round"/>
<path d="M43.8 44.858L50.1 47.458L43.8 44.858Z" fill="#EE3D3B"/>
<path d="M43.8 44.858L50.1 47.458" stroke="#050505" stroke-width="0.5" stroke-linejoin="round"/>
</g>
<g style="mix-blend-mode:multiply">
<path d="M71.3 51.0581C71.3 51.0581 71.4 53.1581 71.3 54.6581C71.1 56.1581 71 58.2581 71 58.2581C71 58.2581 73.3 58.7581 73.7 57.2581C74.1 55.8581 73.7 50.458 73.7 50.458C73.7 50.458 72 51.3581 71.3 51.0581Z" fill="#DFDFDF"/>
</g>
<g style="mix-blend-mode:multiply">
<path d="M57.1 47.358C57 48.158 57.5 47.3581 57.8 47.0581C58.2 46.6581 58.3 46.2581 58.3 46.2581C58.3 46.2581 61.6 45.558 62.7 45.458L62.4 44.7581C62.4 44.7581 64.6 44.6581 65.1 44.6581C65.5 44.5581 65.3 38.8581 65.1 37.7581C65.1 37.7581 64.4 40.258 63 41.458C61.6 42.658 58.7 44.0581 58.2 44.7581C57.6 45.3581 57.4 46.158 57.1 47.358Z" fill="#DFDFDF"/>
</g>
<path d="M65.2 38.1581C64.9 39.9581 64.1 44.0581 64.1 44.0581L60.1 43.858L60.7 44.958L57.3 45.7581L57.4 45.0581C57.4 45.0581 59.6 42.858 60.4 42.458C61.3 42.058 64.1 39.9581 64.4 37.6581" fill="#F5F6F7"/>
<path d="M65.2 38.1581C64.9 39.9581 64.1 44.0581 64.1 44.0581L60.1 43.858L60.7 44.958L57.3 45.7581L57.4 45.0581C57.4 45.0581 59.6 42.858 60.4 42.458C61.3 42.058 64.1 39.9581 64.4 37.6581" stroke="#050505" stroke-width="0.5" stroke-linecap="round" stroke-linejoin="round"/>
<g style="mix-blend-mode:multiply">
<path d="M57 37.458C57 37.458 53.8 39.858 52.6 42.458L54.4 43.0581C54.4 43.0581 53.6 43.258 53.6 43.358C53.6 43.558 55.7 45.2581 56 45.6581C56.4 46.0581 55.9 47.1581 56.2 47.1581C56.6 47.1581 56.4 45.6581 56.8 45.7581C57.1 45.8581 56.6 44.1581 56.6 44.1581C56.6 44.1581 55.4 41.158 56.1 39.958C56.9 38.758 57 37.458 57 37.458Z" fill="#DFDFDF"/>
</g>
<path d="M57.4 36.958C55.6 38.458 53.6 42.0581 53.6 42.0581L55.7 42.6581L55 43.1581L57.2 45.858L57.4 44.858C57.4 44.858 56.8 42.5581 56.7 41.7581C56.6 40.9581 57.1 38.5581 58.1 37.1581" fill="#F5F6F7"/>
<path d="M57.4 36.958C55.6 38.458 53.6 42.0581 53.6 42.0581L55.7 42.6581L55 43.1581L57.2 45.858L57.4 44.858C57.4 44.858 56.8 42.5581 56.7 41.7581C56.6 40.9581 57.1 38.5581 58.1 37.1581" stroke="#050505" stroke-width="0.5" stroke-linecap="round" stroke-linejoin="round"/>
<g style="mix-blend-mode:multiply">
<path d="M57 46.5581C57 46.5581 56.3 48.4581 55.7 49.5581C55.2 50.7581 54.9 52.0581 54.5 53.5581C54.1 54.9581 53.8 56.358 53.8 56.358L54.4 56.1581C54.4 56.1581 55.4 52.7581 56 50.7581C56.6 48.7581 57 46.5581 57 46.5581Z" fill="#DFDFDF"/>
</g>
<g style="mix-blend-mode:multiply">
<path d="M47 50.958C47 50.958 49.4 51.358 50.3 48.858C51.2 46.358 50.7 46.2581 50.7 46.2581C50.7 46.2581 50.5 46.658 50.1 47.858C49.7 48.958 49.5 50.058 47 50.958Z" fill="#DFDFDF"/>
</g>
<g style="mix-blend-mode:multiply">
<path d="M63.9 48.958V50.0581L68.9 51.2581C68.9 51.2581 65.1 50.858 64.7 50.858C64.4 50.858 64.2 52.358 64.4 53.358C64.4 53.358 65.4 55.3581 66.9 55.5581C68.4 55.7581 70 54.7581 70 54.7581C70 54.7581 69.1 56.3581 66.8 56.1581C64.6 55.9581 62.9 54.0581 63 51.7581C63 51.7581 63.2 52.3581 63.4 52.6581C63.6 53.0581 63.3 49.158 63.9 48.958Z" fill="#DFDFDF"/>
</g>
<path d="M69.3 40.758C64.6 44.058 68.2 50.758 72 50.458C79.5 49.758 76.2 42.358 76.2 42.358C76.2 42.358 74.6 38.158 69.3 40.758Z" fill="#ED2D2F" stroke="#050505" stroke-width="0.5" stroke-linecap="round" stroke-linejoin="round"/>
<path d="M50.3 39.5581C50.2 40.7581 50 41.758 49.3 43.858C49.3 43.858 48.4 46.458 49.3 43.958C50.2 41.558 56.3 36.458 56.3 36.458C56.1 36.258 55.4 36.658 55.1 36.358C54.7666 36.4247 54.4666 36.458 54.2 36.458C52.5 36.658 50.5 37.8581 50.3 39.5581Z" fill="#ED2D2F" stroke="#050505" stroke-width="0.5" stroke-linecap="round" stroke-linejoin="round"/>
<g style="mix-blend-mode:multiply">
<path d="M72.2 40.1581C72.2 40.1581 69.5 39.8581 68.2 42.2581C68.2 42.2581 69.6 41.758 70.2 43.458C70.9 45.158 70.2 46.8581 71.3 48.1581C72.4 49.4581 71.9 50.5581 71.3 50.5581C71.3 50.5581 71.6 51.1581 72.7 50.8581C73.8 50.4581 74.3 50.3581 74.3 50.3581L76 49.0581L77 46.8581L75.8999 41.1581L72.7 40.1581H72.2Z" fill="#DFDFDF"/>
</g>
<g style="mix-blend-mode:multiply">
<path d="M56 36.858C56 36.858 51.2 43.3581 50.4 44.1581C49.7 44.9581 49.7 45.858 49.7 45.858L48.8 45.458L49.4 43.5581L56 36.858Z" fill="#DFDFDF"/>
</g>
<path d="M84.9 24.158C82.9 34.758 76.1 45.258 61.6 42.858C44.5 40.058 44.2 30.958 46.1 20.358C48.1 9.75799 58.4 2.85801 69 4.75801C79.7 6.75801 86.8 13.558 84.9 24.158Z" fill="#AB795A" stroke="#050505" stroke-width="0.5"/>
<g style="mix-blend-mode:multiply">
<path d="M84.9 24.1581C86.8 13.5581 79.7 6.75811 69 4.75811C64 3.85811 59 4.95806 54.9 7.45806C54.9 7.85806 54.8 8.05815 54.8 8.05815C54.8 8.05815 61.1 19.8581 62.2 21.8581C63.3 23.9581 64.9 27.1581 66.8 29.1581C68.8 31.1581 70 31.8581 69.7 34.1581C69.7666 34.1581 69.7666 34.1581 69.7 34.1581C69.7 34.1581 68.3 42.3581 58.6 41.6581C58.6 41.6581 58.8 41.9581 59.2 42.4581C59.9333 42.5914 60.7333 42.7247 61.6 42.8581C76.1 45.2581 82.9 34.7581 84.9 24.1581Z" fill="#DFDFDF"/>
</g>
<g style="mix-blend-mode:multiply">
<path d="M55.2 30.1581C55.2 30.1581 53.9999 31.758 52.5999 31.458C51.2999 31.258 51.3 29.458 51.3 29.458C51.3 29.458 51.8999 30.4581 52.5999 30.5581C53.1999 30.6581 55.2 30.1581 55.2 30.1581Z" fill="#DFDFDF"/>
</g>
<path d="M51.2 29.5581L52 30.2581C52.3 30.5581 52.8 30.6581 53.2 30.5581L55.2 30.2581" stroke="#050505" stroke-width="0.5" stroke-linecap="round" stroke-linejoin="round"/>
<path d="M62.7 25.0582C62.7 25.0582 63.7 24.7581 64.3 25.2581C65.1 25.8581 65.5 26.7581 65.5 26.7581" stroke="#050505" stroke-width="0.5" stroke-linecap="round"/>
<path d="M49.2 22.5581C49.2 22.5581 48.3 21.9581 47.5 22.1581C46.6 22.3581 45.9 23.1581 45.9 23.1581" stroke="#050505" stroke-width="0.5" stroke-linecap="round"/>
<path d="M47 25.3581C46.8 26.1581 47.1 26.9581 47.7 27.0581C48.2 27.1581 48.8 26.5581 48.9 25.7581C49.1 24.9581 48.8 24.1581 48.2 24.0581C47.7 23.9581 47.1 24.5581 47 25.3581Z" fill="#050505"/>
<path d="M48.5 24.7581C48.5 24.9581 48.4 25.0581 48.3 25.0581C48.2 24.9581 48.1 24.8581 48.1 24.7581C48.2 24.5581 48.3 24.458 48.4 24.458C48.5 24.458 48.6 24.6581 48.5 24.7581Z" fill="#FEFEFE"/>
<path d="M48.5 24.7581C48.5 24.9581 48.4 25.0581 48.3 25.0581C48.2 24.9581 48.1 24.8581 48.1 24.7581C48.2 24.5581 48.3 24.458 48.4 24.458C48.5 24.458 48.6 24.6581 48.5 24.7581Z" fill="#FEFEFE"/>
<path d="M64 28.458C63.8 29.458 63.1999 30.058 62.5999 29.958C61.8999 29.858 61.6 28.9581 61.8 28.0581C61.9 27.1581 62.6 26.4581 63.2 26.5581C63.8 26.6581 64.1 27.558 64 28.458Z" fill="#050505"/>
<path d="M63.7 27.458C63.7 27.658 63.4999 27.7581 63.3999 27.6581C63.2999 27.6581 63.2 27.558 63.2 27.358C63.3 27.158 63.4 27.0581 63.5 27.0581C63.7 27.1581 63.7 27.258 63.7 27.458Z" fill="#FEFEFE"/>
<path d="M78.6 6.15806C78.6 6.15806 75.9 2.25798 72.8 0.957984C69.7 -0.342016 69.4 0.0580816 69.4 0.0580816C69.4 0.0580816 73.9 1.15798 76.2 5.95798" fill="#050505"/>
<path d="M83.1 9.25806C83.1 9.25806 80.9 7.45803 83.3 5.85803C83.3 5.85803 81.4 5.55811 80.9 6.55811C80.8 5.15811 80 2.85803 76.3 1.35803C76.3 1.35803 78.2 4.05808 76 4.15808" fill="#050505"/>
<path d="M84.8 26.358C84.8 26.358 88.1 25.0581 85.6 30.7581C84.3 33.5581 80.5 36.7581 80.5 36.7581L84.8 26.358Z" fill="#221E1F"/>
<path d="M50.7 8.65808C50.7 8.65808 44.3 12.0581 42 19.1581C41.9 19.4581 43.6 16.7581 46.6 14.6581" fill="#050505"/>
<path d="M79.3 5.95801C79.3 5.95801 90.4 11.6581 87.8 24.5581C87.8 24.5581 86.5 16.158 79.3 5.95801Z" fill="#050505"/>
<path d="M74.8 15.658C74.4 15.558 75.2 27.558 80.6 28.858C82.4 24.758 80.4 20.358 80.4 20.358C82.3 24.058 82.1 27.8581 81.6 29.0581C82.5 29.3581 85.1 29.858 86.7 29.658C86.7 29.658 92.7 6.85799 67.6 2.85799C67.6 2.85799 52.7 -0.642038 43.1 18.958C43.1 18.958 43.3 19.758 44.8 21.358C45.9 22.558 48.7 13.158 50.1 13.858" fill="#050505"/>
<path d="M64.8 2.65808C62.4 2.55808 52.9 1.95801 43.8 12.958C43.8 12.958 67.3 2.75808 64.8 2.65808Z" fill="#050505"/>
<path d="M51.3 6.35803C51.3 6.35803 68.2 -6.24189 82 8.05811C95.7 22.3581 51.3 6.35803 51.3 6.35803Z" fill="#050505"/>
<path d="M87 28.358C87 28.358 86.4999 32.558 83.8999 35.458C81.2999 38.358 80.7 38.458 80.7 38.458C80.7 38.458 82.1999 36.9581 83.0999 31.6581" fill="#050505"/>
<path d="M78.2999 39.858C78.2999 39.858 77.2999 40.358 76.1999 39.958C75.7999 39.858 77.3999 38.5581 77.3999 38.5581L78.2999 39.858Z" fill="#050505"/>
<path d="M61.5999 4.15813C61.5999 4.15813 51.0999 1.55805 43.5999 19.4581C43.5999 19.4581 43.3999 19.5581 44.3999 20.8581C45.1999 21.8581 45.1999 21.9582 46.0999 22.5582C46.4999 20.2582 47.4 19.1582 51.3 16.0582C51.3 16.0582 47.2 19.5581 47.5 23.1581C57.3 28.1581 63.6999 22.0582 63.6999 22.0582C63.4 21.9582 63.4999 27.8581 69.0999 27.7581C70.4999 23.9581 70.0999 19.3581 70.0999 19.3581C71.1999 22.7581 71.1 25.1581 70.5 27.8581C71.1 28.1581 73.0999 27.8582 74.1999 27.5582C74.1999 27.5582 79.2999 6.85813 61.5999 4.15813Z" fill="#050505"/>
<path d="M74.2 27.5582C74.2 27.5582 79.8 28.8581 76.7 39.3581L84.7 33.1581C84.7 33.1581 90.5 22.5581 84.3 13.2581C78.2 4.05812 77.2 10.0582 77.2 10.0582L72.9 11.6581L74.2 27.5582Z" fill="#050505"/>
<path d="M70.5 27.858C70.5 27.858 76.2 31.1581 76.6 38.7581C76.6 39.8581 78.3 39.858 78.3 39.858C78.3 39.858 82.4 37.0581 83.4 33.7581C84.4 30.4581 76.8 24.5581 76.8 24.5581L70.5 27.858Z" fill="#050505"/>
<path d="M73.6 35.358L75.2 34.1581C75.5 33.8581 75.6 33.358 75.3 32.958C75 32.658 74.7 32.6581 74.5 32.7581C74.1 32.8581 73.6 33.1581 73.6 33.1581" fill="#AB795A"/>
<path d="M73.6 35.358L75.2 34.1581C75.5 33.8581 75.6 33.358 75.3 32.958C75 32.658 74.7 32.6581 74.5 32.7581C74.1 32.8581 73.6 33.1581 73.6 33.1581" stroke="#050505" stroke-width="0.5" stroke-linecap="round" stroke-linejoin="round"/>
<path d="M74.2 35.4581C74.3 34.7581 74.6 33.2582 73.9 32.0582C73.4 30.9582 72.3 30.3581 71.1 30.4581C69.8 30.5581 68.6 31.8581 69 32.6581C69.1 33.0581 69.2 33.4581 69.3 33.9581C69.4 34.4581 69.4 35.2581 69.4 35.4581C69.5 36.2581 70.1 37.8581 71.8 37.6581C73.8 37.4581 74.2 35.4581 74.2 35.4581Z" fill="#AB795A" stroke="#050505" stroke-width="0.5" stroke-linecap="round" stroke-linejoin="round"/>
<g style="mix-blend-mode:multiply">
<path d="M74.3 33.958C74.3 33.958 73.6 35.3581 71.7 35.1581C69.8 34.9581 69.3 34.5581 69.3 34.5581C69.3 34.5581 68.9 36.3581 70.2 37.1581C71.5 37.9581 73.4 37.8581 73.8 36.6581C74.3 35.4581 74.3 33.958 74.3 33.958Z" fill="#DFDFDF"/>
</g>
<path d="M75.9 35.0581C76 36.7581 76.1 37.958 76.3 39.958C76.6 43.258 75.8 45.5581 75.8 45.5581C75.3 47.6581 73.5 48.858 71.6 48.458L71.1 48.358C69.4 47.958 68 46.5581 68.5 44.0581C68.5 44.0581 68.9 41.5581 68.7 39.2581C68.6 37.6581 68.4 35.6581 68.4 35.6581L75.9 35.0581Z" fill="#F5F6F7" stroke="#050505" stroke-width="0.5" stroke-linecap="round" stroke-linejoin="round"/>
<path opacity="0.3" d="M75.9 35.0581C76 36.7581 76.1 37.958 76.3 39.958C76.6 43.258 75.8 45.5581 75.8 45.5581C75.3 47.6581 73.5 48.858 71.6 48.458L71.1 48.358C70.9 48.2914 70.7 48.2247 70.5 48.1581C70.8 47.9581 71 47.858 71 47.858C71 47.858 73.5 47.1581 73.9 43.2581C74.1 40.6581 73.7 37.2581 73.4 35.2581L75.9 35.0581Z" fill="#0A0C0F"/>
<path d="M59.2 34.3581C59.2 34.3581 56.7 34.758 55.5 34.458C54.2 34.158 53.9 35.7581 55.3 37.2581C56.4 38.3581 59.1 40.5581 63.4 39.5581C67.8 38.5581 68.5 34.2581 66.5 32.7581C64.4 31.2581 62 33.5581 59.2 34.3581Z" fill="#050505"/>
<path d="M51.3 52.7581L0.5 58.0581L0 53.1581L50.8 47.958L51.3 52.7581Z" fill="#7BC044"/>
<path d="M44.9 44.6581L6.5 48.5581L6 43.6581L44.3 39.7581L44.9 44.6581Z" fill="#7BC044"/>
<path d="M14.4 39.0581L13.5 39.1581L14 32.7581L14.8 32.6581L14.4 39.0581Z" fill="#FEFEFE"/>
<path d="M16.2 34.458V36.5581L16 38.958L15.2 39.0581L15.6 32.6581L16.4 32.5581L17.6 37.2581V34.7581L17.7 32.458L18.6 32.358L18.1 38.7581L17.3 38.858L16.2 34.0581V34.458Z" fill="#FEFEFE"/>
<path d="M19.8 38.6581H18.9L19.4 32.2581H20.2L19.8 38.6581Z" fill="#FEFEFE"/>
<path d="M23.4 32.7581C23.3 32.7581 23.1 32.6581 22.9 32.6581C21.7 32.7581 21.6 34.558 21.5 35.358C21.5 36.158 21.4 37.7581 22.6 37.6581C22.7333 37.6581 22.9 37.5913 23.1 37.458L23 38.2581C22.8 38.3914 22.6 38.458 22.4 38.458C20.6 38.658 20.5 36.758 20.6 35.458C20.7 34.158 21 32.058 22.8 31.858C23 31.858 23.2 31.8581 23.5 32.0581L23.4 32.7581Z" fill="#FEFEFE"/>
<path d="M24.3 38.2581H23.5L23.9 31.858H24.8L24.3 38.2581Z" fill="#FEFEFE"/>
<path fill-rule="evenodd" clip-rule="evenodd" d="M28.5 34.658C28.4 35.858 28.2 37.9581 26.6 38.0581C25 38.2581 25.1 36.158 25.2 34.958C25.3 33.758 25.4 31.6581 27.1 31.5581C28.7 31.3581 28.6 33.558 28.5 34.658ZM26.1 34.858C26 36.258 26 37.358 26.7 37.258C27.3 37.258 27.5 36.158 27.6 34.758C27.7 33.358 27.7 32.258 27 32.358C26.3 32.358 26.2 33.558 26.1 34.858Z" fill="#FEFEFE"/>
<path fill-rule="evenodd" clip-rule="evenodd" d="M31.8 31.1581C32.8 31.0581 33.9 31.058 33.7 34.358C33.5 37.258 32.5 37.4581 31 37.6581H30.4L30.9 31.258L31.8 31.1581ZM31.6 31.858L31.3 36.858C32.7 36.758 32.7 35.458 32.8 34.358C32.8 33.358 33 31.658 31.6 31.858Z" fill="#FEFEFE"/>
<path d="M36.8 30.7581V31.458L35.4 31.6581L35.2 33.6581L36.5 33.5581L36.4 34.2581L35.2 34.358L35 36.5581L36.4 36.458V37.1581L34.1 37.358L34.6 30.958L36.8 30.7581Z" fill="#FEFEFE"/>
<path d="M38.1 30.6581L37.7 36.2581L39.1 36.1581V36.958L36.8 37.1581L37.3 30.6581H38.1Z" fill="#FEFEFE"/>
<path d="M15.9 45.5581C15.7 46.5581 15.2 47.4247 14.4 48.1581C13.6 48.8247 12.7 49.2247 11.7 49.358C10.5667 49.4247 9.60002 49.0914 8.80002 48.358C8.06669 47.6914 7.73335 46.7914 7.80002 45.6581C7.86669 44.4581 8.30002 43.4581 9.10002 42.6581C9.96669 41.7914 10.9667 41.2914 12.1 41.1581C13.1 41.0914 13.9667 41.358 14.7 41.958C15.4334 42.4913 15.8667 43.258 16 44.258L13.5 44.458C13.3667 44.1247 13.1667 43.8581 12.9 43.6581C12.6334 43.4581 12.3334 43.358 12 43.358C11.5334 43.4247 11.1334 43.6581 10.8 44.0581C10.4667 44.4581 10.2667 44.8914 10.2 45.358C10.2 45.8914 10.3334 46.3247 10.6 46.6581C10.9334 46.9914 11.3334 47.1581 11.8 47.1581C12.1334 47.0914 12.4667 46.9247 12.8 46.6581C13.0667 46.4581 13.2667 46.158 13.4 45.758L15.9 45.5581Z" fill="#FEFEFE"/>
<path d="M16.6 48.7581L17 40.858L19.4 40.6581L19 48.5581L16.6 48.7581Z" fill="#FEFEFE"/>
<path d="M28.4 44.458C28.1333 45.458 27.6 46.3248 26.8 47.0581C26.0667 47.7914 25.1667 48.1914 24.1 48.258C22.9667 48.3247 22.0334 48.0247 21.3 47.358C20.5667 46.6247 20.2 45.6914 20.2 44.5581C20.2667 43.4248 20.7333 42.4248 21.6 41.5581C22.4 40.6914 23.3667 40.1914 24.5 40.0581C25.5667 39.9914 26.4333 40.258 27.1 40.858C27.8333 41.3914 28.2667 42.1581 28.4 43.1581L25.9 43.358C25.8333 43.0247 25.6667 42.7581 25.4 42.5581C25.0667 42.3581 24.7333 42.258 24.4 42.258C23.9333 42.3247 23.5333 42.558 23.2 42.958C22.8667 43.358 22.7 43.7914 22.7 44.258C22.6333 44.7914 22.7667 45.2248 23.1 45.5581C23.3667 45.8914 23.7333 46.0581 24.2 46.0581C24.6 45.9914 24.9333 45.8248 25.2 45.5581C25.5333 45.3581 25.7667 45.0581 25.9 44.6581L28.4 44.458Z" fill="#FEFEFE"/>
<path d="M31.8 39.5581L31.5 45.2581L34.8 44.958L34.7 47.1581L29.1 47.6581L29.5 39.7581L31.8 39.5581Z" fill="#FEFEFE"/>
<path fill-rule="evenodd" clip-rule="evenodd" d="M39.7 38.7581C40.8334 38.6247 41.8 38.9248 42.6 39.6581C43.3334 40.3914 43.6667 41.3247 43.6 42.458C43.5334 43.5913 43.1 44.5913 42.3 45.458C41.4334 46.3247 40.4334 46.7914 39.3 46.858C38.1667 46.9914 37.2 46.6913 36.4 45.958C35.6667 45.2247 35.3334 44.2914 35.4 43.1581C35.4667 42.0248 35.9 41.0248 36.7 40.1581C37.5667 39.2914 38.5667 38.8247 39.7 38.7581ZM39.4 44.6581C39.8667 44.6581 40.2667 44.4581 40.6 44.0581C40.9334 43.6581 41.1334 43.1914 41.2 42.6581C41.2 42.1248 41.0667 41.6914 40.8 41.358C40.4667 41.0247 40.0667 40.8913 39.6 40.958C39.1334 41.0247 38.7334 41.2248 38.4 41.5581C38.0667 41.9581 37.8667 42.4247 37.8 42.958C37.8 43.4913 37.9334 43.9247 38.2 44.2581C38.5334 44.5914 38.9334 44.7248 39.4 44.6581Z" fill="#FEFEFE"/>
<path d="M4.50002 51.1581L4.20001 56.7581L7.50002 56.458L7.40001 58.7581L1.70001 59.2581L2.10001 51.358L4.50002 51.1581Z" fill="#FEFEFE"/>
<path d="M10.8 52.7581L10.7 53.5581L13.8 53.2581L13.7 55.2581L10.6 55.5581V56.2581L13.9 55.958L13.8 58.1581L8.10001 58.6581L8.50001 50.7581L14.2 50.2581L14.1 52.458L10.8 52.7581Z" fill="#FEFEFE"/>
<path d="M23.1 54.0581C22.8334 55.0581 22.3 55.9247 21.5 56.6581C20.7 57.3914 19.8 57.7914 18.8 57.858C17.6667 57.9914 16.7334 57.6913 16 56.958C15.2 56.2247 14.8334 55.2914 14.9 54.1581C14.9667 53.0247 15.4334 52.0247 16.3 51.1581C17.1 50.2914 18.0667 49.7914 19.2 49.6581C20.2 49.5914 21.0667 49.858 21.8 50.458C22.5334 51.058 22.9667 51.8247 23.1 52.758L20.6 53.0581C20.5334 52.6581 20.3334 52.3581 20 52.1581C19.7334 51.9581 19.4334 51.8913 19.1 51.958C18.6334 51.958 18.2334 52.1581 17.9 52.5581C17.5667 52.9581 17.3667 53.4247 17.3 53.958C17.3 54.4247 17.4667 54.8247 17.8 55.1581C18.0667 55.4914 18.4334 55.6581 18.9 55.6581C19.2334 55.5914 19.5667 55.458 19.9 55.258C20.1667 54.9914 20.4 54.658 20.6 54.258L23.1 54.0581Z" fill="#FEFEFE"/>
<path d="M25.6 51.458L23.4 51.6581L23.5 49.458L30.2 48.858L30.1 51.0581L27.9 51.2581L27.6 56.958L25.3 57.1581L25.6 51.458Z" fill="#FEFEFE"/>
<path d="M30.7 56.6581L31.1 48.7581L33.4 48.5581L33 56.458L30.7 56.6581Z" fill="#FEFEFE"/>
<path d="M38.9 55.958L36.5 56.1581L34.1 48.5581L36.6 48.2581L37.9 52.858L39.6 48.0581L42.2 47.858L38.9 55.958Z" fill="#FEFEFE"/>
<path fill-rule="evenodd" clip-rule="evenodd" d="M46.1 47.358C47.3 47.2247 48.2667 47.5247 49 48.2581C49.7333 48.9914 50.0667 49.9248 50 51.0581C49.9333 52.1914 49.5 53.1914 48.7 54.0581C47.9 54.9248 46.9 55.3913 45.7 55.458C44.5667 55.5913 43.6333 55.2914 42.9 54.5581C42.1667 53.8248 41.8 52.8914 41.8 51.7581C41.8667 50.6247 42.3333 49.6247 43.2 48.7581C44 47.8914 44.9667 47.4247 46.1 47.358ZM45.8 53.2581C46.2667 53.2581 46.7 53.0581 47.1 52.6581C47.4333 52.2581 47.6 51.7914 47.6 51.2581C47.6667 50.7247 47.5333 50.2913 47.2 49.958C46.8667 49.6247 46.4667 49.4914 46 49.5581C45.5333 49.6248 45.1334 49.8248 44.8 50.1581C44.4667 50.5581 44.3 51.0248 44.3 51.5581C44.2334 52.0914 44.3667 52.5247 44.7 52.858C44.9667 53.1914 45.3334 53.3247 45.8 53.2581Z" fill="#FEFEFE"/>
</svg>
