<svg width="70" height="71" viewBox="0 0 70 71" fill="none" xmlns="http://www.w3.org/2000/svg">
<path d="M54.2 70.9L0 64.9L6.4 3.90002L60.6 9.90002L54.2 70.9Z" fill="#20B04B"/>
<path d="M6.19995 4.1001L60.5999 9.90002L69.5 5.5L17.3 0L6.19995 4.1001Z" fill="#107C3F"/>
<path d="M54.2 70.9L63.4 63.2001L69.5 5.5L60.5999 9.90002L54.2 70.9Z" fill="#105B30"/>
<mask id="mask0_152_8768" style="mask-type:luminance" maskUnits="userSpaceOnUse" x="54" y="5" width="16" height="66">
<path d="M54.2 70.87L63.4199 63.2201L69.5 5.47009L60.62 9.86011L54.2 70.87Z" fill="white"/>
</mask>
<g mask="url(#mask0_152_8768)">
<path d="M59.3999 137.1L95.7999 36.3" stroke="#20B04B" stroke-width="0.4"/>
<path d="M57.8999 133L94.3999 32.2001" stroke="#20B04B" stroke-width="0.4"/>
<path d="M56.5 128.9L92.9 28.1001" stroke="#20B04B" stroke-width="0.4"/>
<path d="M55.1 124.7L91.5 23.9" stroke="#20B04B" stroke-width="0.4"/>
<path d="M53.6 120.6L90.1 19.8" stroke="#20B04B" stroke-width="0.4"/>
<path d="M52.2 116.5L88.5999 15.7001" stroke="#20B04B" stroke-width="0.4"/>
<path d="M50.7999 112.4L87.1999 11.6001" stroke="#20B04B" stroke-width="0.4"/>
<path d="M49.2999 108.2L85.7999 7.40002" stroke="#20B04B" stroke-width="0.4"/>
<path d="M47.8999 104.1L84.2999 3.30005" stroke="#20B04B" stroke-width="0.4"/>
<path d="M46.5 100L82.9 -0.799927" stroke="#20B04B" stroke-width="0.4"/>
<path d="M45 95.9L81.5 -4.8999" stroke="#20B04B" stroke-width="0.4"/>
<path d="M43.6 91.7001L80 -9.09998" stroke="#20B04B" stroke-width="0.4"/>
<path d="M42.2 87.6001L78.5999 -13.2" stroke="#20B04B" stroke-width="0.4"/>
<path d="M40.7 83.5L77.1999 -17.2999" stroke="#20B04B" stroke-width="0.4"/>
<path d="M39.2999 79.4L75.6999 -21.5" stroke="#20B04B" stroke-width="0.4"/>
<path d="M37.8999 75.2001L74.2999 -25.6" stroke="#20B04B" stroke-width="0.4"/>
<path d="M36.3999 71.1001L72.8999 -29.7" stroke="#20B04B" stroke-width="0.4"/>
<path d="M35 67L71.4 -33.7999" stroke="#20B04B" stroke-width="0.4"/>
<path d="M33.6 62.9L70 -38" stroke="#20B04B" stroke-width="0.4"/>
<path d="M30.7 54.6001L67.0999 -46.2" stroke="#20B04B" stroke-width="0.4"/>
<path d="M29.2 50.5L59.4 137.1" stroke="#20B04B" stroke-width="0.4"/>
<path d="M31 45.7001L61.1 132.3" stroke="#20B04B" stroke-width="0.4"/>
<path d="M32.7 40.9L62.8 127.5" stroke="#20B04B" stroke-width="0.4"/>
<path d="M34.5 36.1001L64.6 122.7" stroke="#20B04B" stroke-width="0.4"/>
<path d="M36.2 31.3L66.3 117.9" stroke="#20B04B" stroke-width="0.4"/>
<path d="M37.8999 26.5L68.0999 113.1" stroke="#20B04B" stroke-width="0.4"/>
<path d="M39.7 21.7001L69.8 108.3" stroke="#20B04B" stroke-width="0.4"/>
<path d="M41.3999 16.9L71.4999 103.5" stroke="#20B04B" stroke-width="0.4"/>
<path d="M43.1 12.1001L73.3 98.7001" stroke="#20B04B" stroke-width="0.4"/>
<path d="M44.8999 7.30005L74.9999 93.9" stroke="#20B04B" stroke-width="0.4"/>
<path d="M46.6 2.5L76.7 89.1001" stroke="#20B04B" stroke-width="0.4"/>
<path d="M48.2999 -2.29993L78.4999 84.3" stroke="#20B04B" stroke-width="0.4"/>
<path d="M50.1 -7.09998L80.2 79.5" stroke="#20B04B" stroke-width="0.4"/>
<path d="M51.7999 -11.8999L81.8999 74.7001" stroke="#20B04B" stroke-width="0.4"/>
<path d="M53.5 -16.7L83.7 69.9" stroke="#20B04B" stroke-width="0.4"/>
<path d="M55.2999 -21.5L85.3999 65.1001" stroke="#20B04B" stroke-width="0.4"/>
<path d="M57 -26.2999L87.1 60.3" stroke="#20B04B" stroke-width="0.4"/>
<path d="M58.7 -31.1L88.9 55.5" stroke="#20B04B" stroke-width="0.4"/>
<path d="M60.5 -35.8999L90.6 50.7001" stroke="#20B04B" stroke-width="0.4"/>
<path d="M62.2 -40.7L92.3 45.9" stroke="#20B04B" stroke-width="0.4"/>
<path d="M63.8999 -45.5L94.0999 41.1001" stroke="#20B04B" stroke-width="0.4"/>
<path d="M65.7 -50.2999L95.8 36.3" stroke="#20B04B" stroke-width="0.4"/>
</g>
<path d="M8.20005 13L8.30005 12.3001C8.30005 12.0334 8.33338 11.8001 8.40005 11.6001C8.40005 11.4001 8.50005 11.1334 8.70005 10.8001C8.83338 10.4001 9.03338 10.0667 9.30005 9.80006C9.50005 9.60006 9.86671 9.40009 10.4 9.20009C10.8667 9.06675 11.4 9.03345 12 9.10011C13.4 9.20011 14.3 9.80004 14.7 10.4C14.9 10.6667 15.0334 11 15.1 11.4C15.2334 11.8 15.3 12.1001 15.3 12.3001C15.3 12.5001 15.2667 12.7333 15.2 13V13.1001C15.1334 13.8334 14.8 14.5667 14.2 15.3001C13.6 16.0334 12.9667 16.6668 12.3 17.2001L14.9 17.5L14.6 20.2001L7.80005 19.5L8.00005 17.1001C9.90005 15.7001 11.2 14.7 11.7 14C11.9 13.6667 12.0334 13.4001 12.1 13.2001C12.2334 13.0668 12.3 12.9001 12.3 12.7001C12.3 12.4001 12.3 12.2 12.2 12C12.1334 11.8667 12 11.8001 11.8 11.8001C11.4 11.8001 11.3 12.0001 11.2 12.6001V13.3001L8.20005 13Z" fill="#050505"/>
<path d="M16.4 9.70007L22.9 10.4L22.7 12.6001L18.6 20.6001L15.4 20.3L19.3 12.8L16.1 12.4L16.4 9.70007Z" fill="#050505"/>
<path d="M9.20005 11.9L9.30005 11.2001C9.36672 10.9334 9.40005 10.7 9.40005 10.5C9.46672 10.3 9.56672 10.0334 9.70005 9.70006C9.83338 9.30006 10.0334 8.96672 10.3 8.70006C10.5667 8.50006 10.9334 8.30008 11.4 8.10008C11.8667 7.96675 12.4 7.93332 13 7.99998C14.4 8.09998 15.3001 8.70003 15.7001 9.30003C15.9001 9.5667 16.0667 9.90003 16.2001 10.3C16.2667 10.7 16.3 11.0001 16.3 11.2001C16.3 11.4001 16.3 11.6333 16.3 11.9L16.2001 12C16.1334 12.7333 15.8001 13.4667 15.2001 14.2001C14.6667 14.9334 14.0334 15.5667 13.3 16.1001L15.9 16.4L15.6 19.1001L8.80005 18.4L9.00005 16C10.9 14.6 12.2001 13.6 12.7001 12.9C12.9667 12.5667 13.1334 12.3001 13.2001 12.1001C13.2667 11.9667 13.3 11.8001 13.3 11.6001C13.3 11.3001 13.4001 11.1 13.2001 10.9C13.1334 10.7667 13 10.7001 12.8 10.7001C12.4 10.7001 12.3001 10.9 12.2001 11.5V12.2001L9.20005 11.9Z" fill="#FEFEFE"/>
<path d="M17.4 8.6001L23.9 9.30005L23.7 11.5L19.6 19.5L16.5 19.2001L20.3 11.7001L17.1 11.3L17.4 8.6001Z" fill="#FEFEFE"/>
<path d="M59.8 45.7001L10.7 29.6001L11.9 25.2001L61 41.2001L59.8 45.7001Z" fill="#28C5EF"/>
<path d="M27.3 20L26.3 24.2001L26.4 24L27.2 22.8L28.9 20.5L29.5 20.7001L27.5 26.3L26.8 26.1001L27.6 24L28 23L28.3 22.3V22.2001L27.8 23L25.8 25.9L25.3 25.7001L26.3 21.7001L24.3 25.4L23.6 25.2001L26.6 19.8L27.3 20Z" fill="#FEFEFE"/>
<path d="M31.3 21.2001L29.4 25.2001C29.1 25.9001 29.3 26.1001 29.6 26.2001C30.1 26.4001 30.3 26.0001 30.5 25.6001L32.4 21.5L33.2 21.7001L31.4 25.6001C31 26.3001 30.6 27.3 29.3 26.9C28.1 26.6 28.3 25.7001 28.8 24.7001L30.5 20.9L31.3 21.2001Z" fill="#FEFEFE"/>
<path d="M33.8 23.7001L33.1 25.6001L32.1 27.6001L31.4 27.4L33.9 21.9L34.7 22.1001L34.1 26.7001L34.9 24.4L35.8 22.4L36.6 22.6001L34.1 28.2001L33.3 28L34 23.3H33.9L33.8 23.7001Z" fill="#FEFEFE"/>
<path fill-rule="evenodd" clip-rule="evenodd" d="M38.1999 23.1001C39.0999 23.4001 40.0999 23.7 38.7999 26.5C37.6999 29 36.6999 28.9 35.2999 28.5L34.7999 28.4L37.2999 22.9L38.1999 23.1001ZM37.8999 23.7001L35.8999 27.9C37.0999 28.3 37.5999 27.2001 38.0999 26.2001C38.3999 25.4001 39.1999 23.9001 37.8999 23.7001Z" fill="#FEFEFE"/>
<path d="M38.9 29.5L38.2 29.3L40.7 23.8L41.5 24L38.9 29.5Z" fill="#FEFEFE"/>
<path fill-rule="evenodd" clip-rule="evenodd" d="M43.6999 24.6001L42.3999 30.5L41.5999 30.3L41.8999 29.2001L40.6999 28.8L39.9999 29.8L39.2999 29.6001L43.0999 24.5L43.6999 24.6001ZM42.1999 27.6001L42.8999 25.5H42.7999L41.0999 28.2001L41.9999 28.5L42.1999 27.6001Z" fill="#FEFEFE"/>
<path d="M46 25.3L43.7 30.2001L45 30.5L44.7 31.2001L42.7 30.6001L45.2 25.1001L46 25.3Z" fill="#FEFEFE"/>
<path fill-rule="evenodd" clip-rule="evenodd" d="M49.8 26.4C50.7 26.6 51.7 27 50.4 29.8C49.2 32.3 48.3 32.2 46.9 31.8L46.4 31.6001L48.9 26.1001L49.8 26.4ZM49.5 27L47.5 31.3C48.7 31.7 49.2 30.5001 49.6 29.6001C50 28.7001 50.8 27.3 49.5 27Z" fill="#FEFEFE"/>
<path d="M54.3999 27.7001L54.0999 28.3L52.7999 27.9L51.9999 29.7001L53.1999 30L52.8999 30.6001L51.6999 30.3L50.7999 32.2001L52.0999 32.5L51.7999 33.2001L49.7999 32.6001L52.2999 27.1001L54.3999 27.7001Z" fill="#FEFEFE"/>
<path d="M55.5999 28L53.2999 32.9L54.5999 33.2001L54.2999 33.9L52.2 33.3L54.7999 27.8L55.5999 28Z" fill="#FEFEFE"/>
<path d="M15.8 28.1001L13.7 27.5L14.7 25.4L21.2 27.3L20.3 29.3L18.1 28.7001L15.8 34L13.5 33.3L15.8 28.1001Z" fill="#FEFEFE"/>
<path d="M23.4 30.2001L23.1 30.9L26.1 31.8L25.3 33.6001L22.3 32.8L22 33.4L25.2001 34.3L24.4001 36.4L18.8 34.8L22 27.5L27.6 29.1001L26.7001 31.1001L23.4 30.2001Z" fill="#FEFEFE"/>
<path fill-rule="evenodd" clip-rule="evenodd" d="M33.3 30.7001L32.9 38.8L30.4 38.1001L30.5 37.3L28 36.6001L27.4 37.2001L24.9 36.5L30.9 30L33.3 30.7001ZM29.7 34.8L30.7 35.1001L30.9 33.4L29.7 34.8Z" fill="#FEFEFE"/>
<path d="M36.3 33.9L34.2 33.3L35.1 31.2001L41.7 33L40.7 35.1001L38.6 34.5L36.3 39.8L34 39.1001L36.3 33.9Z" fill="#FEFEFE"/>
<path fill-rule="evenodd" clip-rule="evenodd" d="M46.2001 42.5L43.4001 41.8L42.6 39.5L42.4001 39.4L41.6 41.3L39.3 40.6001L42.5 33.3L45.7001 34.2001C45.8001 34.2001 45.8001 34.2 46.2001 34.4C46.6001 34.6 46.9 34.8001 47.3 35.2001C47.6 35.6001 47.8 36.0001 47.8 36.7001C47.7334 37.0334 47.6334 37.4 47.5 37.8C47.0334 38.8 46.2667 39.4334 45.2001 39.7001L46.2001 42.5ZM44 35.9L43.4001 37.3L44.3 37.5C44.7 37.6333 45.0001 37.4667 45.2001 37C45.4001 36.6 45.2001 36.3001 44.9001 36.2001L44 35.9Z" fill="#FEFEFE"/>
<path fill-rule="evenodd" clip-rule="evenodd" d="M53.5 36.2C54.6333 36.5334 55.4333 37.1667 55.9 38.1001C56.3666 39.1001 56.3666 40.1334 55.9 41.2C55.4333 42.2667 54.6333 43.0333 53.5 43.5C52.4333 44.0333 51.3333 44.1334 50.2 43.8C49.0666 43.5334 48.2666 42.9 47.8 41.9C47.3333 40.9667 47.3333 39.9667 47.8 38.9C48.2666 37.8333 49.0666 37.0333 50.2 36.5C51.2666 36.0333 52.3666 35.9334 53.5 36.2ZM51.1 41.8C51.5666 41.9334 52.0333 41.8667 52.5 41.6001C52.9666 41.3334 53.3 40.9666 53.5 40.5C53.7 40.0333 53.7 39.5667 53.5 39.1001C53.3666 38.7001 53.0666 38.4334 52.6 38.3C52.1333 38.1667 51.6666 38.2333 51.2 38.5C50.7333 38.7 50.4 39.0667 50.2 39.6001C50 40.0667 49.9666 40.5 50.1 40.9C50.3 41.3667 50.6333 41.6667 51.1 41.8Z" fill="#FEFEFE"/>
<path fill-rule="evenodd" clip-rule="evenodd" d="M29.3 65.5C28.6 65.1 27.9 64.5 27.4 63.9C26.1334 62.4334 25.2334 60.7667 24.7 58.9C24.7 58.8334 24.6667 58.7334 24.6 58.6001C24.6 58.5334 24.6 58.4667 24.6 58.4C24.3334 57.2667 24.3 56.1 24.5 54.9C24.5667 54.2334 24.7334 53.5667 25 52.9C25.2 52.4334 25.4334 51.9334 25.7 51.4C26.3667 50.0667 27.0667 48.7334 27.8 47.4C27.9334 47 28.1 46.6001 28.3 46.2001C28.3667 46.0667 28.4334 45.9334 28.5 45.8C28.8334 45.2 29.1334 44.6334 29.4 44.1001C29.4 44.0334 29.4 43.9667 29.4 43.9C29.4667 43.8334 29.5334 43.7667 29.6 43.7001C29.6 43.6334 29.6334 43.5667 29.7 43.5C29.7 43.4333 29.7334 43.3334 29.8 43.2001C29.8 43.2001 29.8 43.1668 29.8 43.1001C29.9334 42.9001 30.0667 42.6667 30.2 42.4C30.4667 41.9334 30.8667 41.7001 31.4 41.7001C31.7 41.7001 32 41.8 32.2 42C33.1 42.7 33.9 43.4 34.8 44C36.3334 45.0667 37.9334 46 39.6 46.8C39.8 46.9334 40 47.0334 40.2 47.1001C40.2 47.2334 40.1667 47.3667 40.1 47.5C39.8334 47.9667 39.6 48.4334 39.4 48.9C39.1334 49.4334 38.8667 49.9334 38.6 50.4C38.4 50.8667 38.1667 51.3667 37.9 51.9C37.7 52.3667 37.5 52.8334 37.3 53.3C37.1 53.7667 36.9 54.2667 36.7 54.8C36.5667 55.0667 36.4334 55.3334 36.3 55.6001C36.1667 55.8668 36.0667 56.1667 36 56.5C35.8667 56.8333 35.7334 57.1667 35.6 57.5C35.5334 57.7 35.4334 57.8667 35.3 58C34.8334 58 34.3334 57.9667 33.8 57.9C33.5 57.9 33.4 57.8001 33.2 57.6001C32.9334 57.3334 32.6667 57.0334 32.4 56.7001C32.3334 56.6334 32.2667 56.5667 32.2 56.5C32.1334 57.1 32.1 57.7 32.1 58.3C32.1 58.4 32.1 58.5001 32 58.6001C31.8667 58.5334 31.7334 58.5 31.6 58.5C30.2 58.4 29 58.8001 27.9 59.6001C27.8334 59.6001 27.8 59.6334 27.8 59.7001C27.6 59.8001 27.7 60.0001 27.9 60.1001C27.9667 60.1001 28.0334 60.1001 28.1 60.1001C28.5 60.2001 29 60.2 29.5 60.3C30.5 60.5667 31.4667 60.9667 32.4 61.5C33.3 62 34.2 62.7001 34.9 63.6001C34.7667 63.6001 34.6667 63.5667 34.6 63.5C33.9334 63.3 33.3 63.1 32.7 62.9C32.3 62.7 31.9 62.5 31.5 62.4C31.4334 62.3334 31.3667 62.3 31.3 62.3C31.2334 62.3667 31.1667 62.4333 31.1 62.5C30.7667 63.2333 30.4334 63.9334 30.1 64.6001C29.9 64.9334 29.7334 65.2668 29.6 65.6001C29.6 65.6001 29.5667 65.6001 29.5 65.6001C29.4334 65.5334 29.3667 65.5 29.3 65.5ZM29.6 49.4C29.4 49.4 29.4 49.5001 29.4 49.6001C29.4 49.9334 29.4 50.2333 29.4 50.5C29.6 52 30.6 53.0001 32.1 53.1001C32.7 53.2001 33.4 53.0001 34 52.7001C34.1 52.6001 34.1 52.6 34.1 52.4C32.3 51.8667 30.8 50.8667 29.6 49.4ZM30 46.3C29.7 46.2 29.4 46.4001 29.4 46.7001C29.3 47.0001 29.5 47.3 29.7 47.3C30 47.4 30.3 47.2 30.4 47C30.5 46.7 30.3 46.4 30 46.3Z" fill="#F69226"/>
<path fill-rule="evenodd" clip-rule="evenodd" d="M16.6 61.7C16.4666 61.7 16.3333 61.7 16.2 61.7C15.3333 61.5 14.5 61.1667 13.7 60.7C12.3 59.9 11.1 58.8667 10.1 57.6001C10.0333 57.4667 9.96664 57.3667 9.89998 57.3C9.83331 57.3 9.79997 57.2667 9.79997 57.2C9.79997 57.2 9.79997 57.1667 9.79997 57.1001C9.59997 56.9001 9.43331 56.6667 9.29997 56.4C8.83331 55.6 8.46664 54.7334 8.19998 53.8C7.99998 53 7.93331 52.2 7.99998 51.4C7.99998 50.9 8.09998 50.4 8.09998 49.8C8.29998 48.0667 8.53331 46.3 8.79997 44.5C8.93331 43.0333 9.09997 41.5667 9.29997 40.1001C9.29997 39.7001 9.29998 39.4001 9.59998 39.1001C9.89998 38.7001 10.4 38.5001 10.9 38.6001C11.6 38.9001 12.2 39.1 12.9 39.3C13.6333 39.5 14.3333 39.7 15 39.9C16.2 40.2 17.5 40.4 18.7 40.5C19.2333 40.5666 19.7666 40.6334 20.3 40.7C20.2333 41.3 20.1666 41.8667 20.1 42.4C20.0333 43.0667 19.9666 43.7333 19.9 44.4C19.7666 45.4667 19.6666 46.5 19.6 47.5C19.5333 48.5666 19.4666 49.6334 19.4 50.7C19.4 51.3667 19.4 52.0334 19.4 52.7C19.4 52.9 19.4 53.1 19.4 53.3C18.7333 53.5 18.1333 53.7 17.6 53.9C17 53.6 16.5 53.2 15.9 53C16.0333 53.2666 16.1666 53.5334 16.3 53.8C16.4333 54.0667 16.5333 54.3334 16.6 54.6001C16.7 54.7001 16.7 54.7 16.7 54.8C15.3666 54.6 14.1 54.2001 12.9 53.6001C12.6 53.8001 12.5 53.8001 12.6 54.1001C13 55.1001 13.4 56 14.1 56.7C14.7 57.3 15.3 57.8 16 58C17.3 58.5 18.6 58.4 19.8 57.7C20.5 57.3 21.1 56.7001 21.6 56.1001C21.9 55.7001 22.1 55.4 22.4 55C22.4 55.1 22.4 55.1 22.3 55.2C22.1666 55.5334 22 55.8667 21.8 56.2C21.5333 56.5334 21.2666 56.8667 21 57.2C20.4666 58 19.8 58.6 19 59C18.4 59.3333 17.7333 59.5 17 59.5C17 59.5 16.9666 59.5 16.9 59.5C16.8333 59.9 16.7666 60.3334 16.7 60.8C16.7 61.1334 16.6666 61.4334 16.6 61.7ZM16.3 48.2C16.4 48.1 16.4 48 16.3 47.9C16.1 47.6 16 47.3001 15.7 47.1001C14.9 46.2001 13.9 45.9 12.7 46.3C12 46.5 11.4 47.0001 11 47.6001C10.9 47.8001 10.8 48 10.8 48.2C10.9 48.3 11 48.3 11.1 48.2C11.6 48.1 12.1 48 12.6 47.9C13.6 47.7667 14.6333 47.8334 15.7 48.1001C15.9 48.1001 16.1 48.1334 16.3 48.2ZM11 44.2C11.1 43.8 10.9 43.6 10.6 43.5C10.3 43.4 9.99997 43.5 9.89998 43.8C9.79998 44.1 9.99997 44.4 10.3 44.5C10.6 44.6 10.9 44.4 11 44.2Z" fill="#E53C33"/>
<path fill-rule="evenodd" clip-rule="evenodd" d="M29.6 65.6001C29.7333 65.2668 29.9 64.9334 30.1 64.6001C30.4333 63.9334 30.7666 63.2333 31.1 62.5C31.1666 62.4333 31.2333 62.3667 31.3 62.3C31.3666 62.3 31.4333 62.3334 31.5 62.4C31.9 62.5 32.3 62.7 32.7 62.9C33.3 63.1 33.9333 63.3 34.6 63.5C34.6666 63.5667 34.7666 63.6001 34.9 63.6001C34.9 63.6001 34.9333 63.6334 35 63.7001C35.2 63.8001 35.4 63.7 35.5 63.5C35.5 63.4333 35.5 63.3667 35.5 63.3C35.5 62.3 35.2333 61.3667 34.7 60.5C34.0333 59.5 33.1333 58.8668 32 58.6001C32.1 58.5001 32.1 58.4 32.1 58.3C32.1 57.7 32.1333 57.1 32.2 56.5C32.2666 56.5667 32.3333 56.6334 32.4 56.7001C32.6666 57.0334 32.9333 57.3334 33.2 57.6001C33.4 57.8001 33.5 57.9 33.8 57.9C34.3333 57.9667 34.8333 58 35.3 58C35.4333 57.8667 35.5333 57.7 35.6 57.5C35.7333 57.1667 35.8666 56.8333 36 56.5C36.0666 56.1667 36.1666 55.8668 36.3 55.6001C36.4333 55.3334 36.5666 55.0667 36.7 54.8C36.9 54.2667 37.1 53.7667 37.3 53.3C37.5 52.8334 37.7 52.3667 37.9 51.9C38.1666 51.3667 38.4 50.8667 38.6 50.4C38.8666 49.9334 39.1333 49.4334 39.4 48.9C39.6 48.4334 39.8333 47.9667 40.1 47.5C40.1666 47.3667 40.2 47.2334 40.2 47.1001C41.7 47.7001 43.1 48.3001 44.6 48.7001C45.3333 48.9667 46.0666 49.2 46.8 49.4C47.4 49.5 47.8 49.8 47.9 50.4C47.9 50.4 47.9 50.4333 47.9 50.5C47.9 50.6333 47.9 50.7334 47.9 50.8C47.9 50.9334 47.8666 51.0334 47.8 51.1001C47.8 51.1668 47.8 51.2001 47.8 51.2001C47.7333 51.2667 47.7 51.3334 47.7 51.4C47.3666 52 47.0333 52.6334 46.7 53.3C46.1666 54.3667 45.6333 55.4333 45.1 56.5C44.5 57.7667 43.8666 59.0334 43.2 60.3C42.9 60.9 42.6 61.5001 42.2 62.1001C41.5333 63.1001 40.7 63.9 39.7 64.5C37.9 65.7 35.8 66.3 33.6 66.4C32.4 66.4 31.2 66.3 30 65.8C29.8666 65.7334 29.7333 65.6668 29.6 65.6001ZM37.3 54.2001C37.3 55.1001 38 56.8001 39.6 57.1001C40.6 57.3001 42.3 56.7 42.6 55.9C42.5333 55.9 42.4666 55.8667 42.4 55.8C41.8666 55.7334 41.3666 55.6668 40.9 55.6001C40.3 55.5001 39.7 55.3 39.1 55C38.5666 54.8 38.0666 54.5334 37.6 54.2001C37.5 54.1001 37.4 54.1001 37.3 54.2001ZM40 61.7001C40.0666 61.7001 40.1333 61.7334 40.2 61.8C40.2666 61.8 40.3666 61.8 40.5 61.8C41 61.8 41.6 61.2001 41.6 60.6001C41.7 59.7001 41.5 58.9 41.4 58C41.3 57.8 41 57.7 40.8 57.9C40.6666 58.1 40.5333 58.2667 40.4 58.4C40 58.8 39.6333 59.2667 39.3 59.8C38.8 60.5 39.3 61.5001 40 61.7001ZM45 54.3C45.1 54 44.9 53.7001 44.6 53.6001C44.3 53.5001 44 53.7 43.9 54C43.9 54.3 44 54.6001 44.3 54.6001C44.6 54.7001 44.9 54.6 45 54.3Z" fill="#D87928"/>
<path fill-rule="evenodd" clip-rule="evenodd" d="M16.7 54.8C16.7 54.7 16.7 54.7001 16.6 54.6001C16.5334 54.3334 16.4334 54.0667 16.3 53.8C16.1667 53.5334 16.0334 53.2666 15.9 53C16.5 53.2 17 53.6 17.6 53.9C18.1334 53.7 18.7334 53.5 19.4 53.3C19.4 53.1 19.4 52.9001 19.4 52.7001C19.4 52.0334 19.4 51.3667 19.4 50.7001C19.4667 49.6334 19.5334 48.5666 19.6 47.5C19.6667 46.5 19.7667 45.4667 19.9 44.4C19.9667 43.7333 20.0334 43.0667 20.1 42.4C20.1667 41.8667 20.2334 41.3001 20.3 40.7001C20.8334 40.7667 21.3667 40.8 21.9 40.8C22.6334 40.8 23.3667 40.8 24.1 40.8C25.0334 40.7334 25.9334 40.6667 26.8 40.6001C26.9334 40.6001 27.0334 40.6001 27.1 40.6001C27.9 40.5001 28.4 40.7 28.7 41.4C28.7667 41.4667 28.8 41.5 28.8 41.5C28.8 41.7 28.8 41.9001 28.8 42.1001C28.6667 43.3001 28.5 44.5001 28.3 45.7001C28.3 45.8334 28.3 46.0001 28.3 46.2001C28.1 46.6001 27.9334 47 27.8 47.4C27.0667 48.7333 26.3667 50.0667 25.7 51.4C25.4334 51.9333 25.2 52.4333 25 52.9C24.7334 53.5667 24.5667 54.2333 24.5 54.9C24.3 56.1 24.3334 57.2667 24.6 58.4C24.6 58.4667 24.6 58.5334 24.6 58.6001C24.4 58.7334 24.2 58.9001 24 59.1001C23.2667 59.7001 22.4667 60.2001 21.6 60.6001C20.7334 61.0667 19.7667 61.4001 18.7 61.6001C18.1 61.8001 17.4 61.8 16.7 61.8C16.6334 61.8 16.6 61.7667 16.6 61.7001C16.6667 61.4334 16.7 61.1334 16.7 60.8C16.7667 60.3334 16.8334 59.9 16.9 59.5C16.9667 59.5 17 59.5 17 59.5C17.7334 59.5 18.4 59.3333 19 59C19.8 58.6 20.4667 58.0001 21 57.2001C21.2667 56.8667 21.5334 56.5334 21.8 56.2001C22 55.8667 22.1667 55.5334 22.3 55.2001C22.4 55.1001 22.4 55.1 22.4 55C22.4 54.9333 22.4 54.9 22.4 54.9C22.3334 54.9 22.3 54.8667 22.3 54.8C22.3 54.6 22.2 54.6001 22.1 54.7001C22.0334 54.7001 21.9667 54.7001 21.9 54.7001C20.8 54.9001 19.7 55.1 18.5 55C17.9 55 17.3 54.9 16.7 54.8ZM25.3 50C25.4 49.8 25.4 49.6 25.4 49.5C25.2 48.9 24.9 48.4 24.4 47.9C23.7334 47.3 22.9667 47.0667 22.1 47.2001C21.3 47.3001 20.6 47.7 20 48.3C20 48.4 20 48.5001 19.9 48.6001C20.4 48.7001 20.9 48.6001 21.3 48.7001C21.7667 48.7667 22.2334 48.8333 22.7 48.9C23.1667 49.0333 23.6 49.2 24 49.4C24.5 49.5 24.9 49.8 25.3 50ZM26.1 45.7001C26.1 46.0001 26.2 46.3 26.5 46.4C26.8 46.5 27.1 46.3 27.2 46C27.3 45.7 27.2 45.4 26.8 45.3C26.5 45.2 26.2 45.4001 26.1 45.7001Z" fill="#9E2B25"/>
<path fill-rule="evenodd" clip-rule="evenodd" d="M24.6 58.6001C24.4 58.7334 24.2 58.9001 24 59.1001C23.2666 59.7001 22.4666 60.2001 21.6 60.6001C20.7333 61.0667 19.7666 61.4001 18.7 61.6001C18.1 61.8001 17.4 61.8 16.7 61.8C16.6333 61.8 16.6 61.7667 16.6 61.7C16.4666 61.7 16.3333 61.7 16.2 61.7C15.3333 61.5 14.5 61.1667 13.7 60.7C12.3 59.9 11.1 58.8667 10.1 57.6001C10.0333 57.4667 9.96664 57.3667 9.89998 57.3C9.83331 57.3 9.79997 57.2667 9.79997 57.2C9.79997 57.2 9.79997 57.1667 9.79997 57.1001C9.59997 56.9001 9.43331 56.6667 9.29997 56.4C8.83331 55.6 8.46664 54.7334 8.19998 53.8C7.99998 53 7.93331 52.2 7.99998 51.4C7.99998 50.9 8.09998 50.4 8.09998 49.8C8.29998 48.0667 8.53331 46.3 8.79997 44.5C8.93331 43.0333 9.09997 41.5667 9.29997 40.1001C9.29997 39.7001 9.29998 39.4001 9.59998 39.1001C9.89998 38.7001 10.4 38.5001 10.9 38.6001C11.6 38.9001 12.2 39.1 12.9 39.3C13.6333 39.5 14.3333 39.7 15 39.9C16.2 40.2 17.5 40.4 18.7 40.5C19.2333 40.5666 19.7666 40.6334 20.3 40.7C20.8333 40.7667 21.3666 40.8 21.9 40.8C22.6333 40.8 23.3666 40.8 24.1 40.8C25.0333 40.7334 25.9333 40.6667 26.8 40.6001C26.9333 40.6001 27.0333 40.6001 27.1 40.6001C27.9 40.5001 28.4 40.7 28.7 41.4C28.7666 41.4667 28.8 41.5 28.8 41.5C28.8 41.7 28.8 41.9001 28.8 42.1001C28.6666 43.3001 28.5 44.5 28.3 45.7C28.3 45.8334 28.3 46 28.3 46.2C28.1 46.6 27.9333 47 27.8 47.4C27.0666 48.7333 26.3666 50.0667 25.7 51.4C25.4333 51.9333 25.2 52.4333 25 52.9C24.7333 53.5667 24.5666 54.2333 24.5 54.9C24.3 56.1 24.3333 57.2667 24.6 58.4C24.6 58.4667 24.6 58.5334 24.6 58.6001ZM15.7 48.1001C15.9 48.1001 16.1 48.1334 16.3 48.2C16.4 48.1 16.4 48 16.3 47.9C16.1 47.6 16 47.3001 15.7 47.1001C14.9 46.2001 13.9 45.9 12.7 46.3C12 46.5 11.4 47.0001 11 47.6001C10.9 47.8001 10.8 48 10.8 48.2C10.9 48.3 11 48.3 11.1 48.2C11.6 48.1 12.1 48 12.6 47.9C13.6 47.7667 14.6333 47.8334 15.7 48.1001ZM19.8 57.7C20.5 57.3 21.1 56.7001 21.6 56.1001C21.9 55.7001 22.1 55.4 22.4 55C22.4 54.9333 22.4 54.9 22.4 54.9C22.3333 54.9 22.3 54.8667 22.3 54.8C22.3 54.6 22.2 54.6 22.1 54.7C22.0333 54.7 21.9666 54.7 21.9 54.7C20.8 54.9 19.7 55.1 18.5 55C17.9 55 17.3 54.9 16.7 54.8C15.3666 54.6 14.1 54.2001 12.9 53.6001C12.6 53.8001 12.5 53.8001 12.6 54.1001C13 55.1001 13.4 56 14.1 56.7C14.7 57.3 15.3 57.8 16 58C17.3 58.5 18.6 58.4 19.8 57.7ZM25.4 49.5C25.2 48.9 24.9 48.4 24.4 47.9C23.7333 47.3 22.9666 47.0667 22.1 47.2C21.3 47.3 20.6 47.7 20 48.3C20 48.4 20 48.5001 19.9 48.6001C20.4 48.7001 20.9 48.6 21.3 48.7C21.7666 48.7667 22.2333 48.8333 22.7 48.9C23.1666 49.0333 23.6 49.2 24 49.4C24.5 49.5 24.9 49.8 25.3 50C25.4 49.8 25.4 49.6 25.4 49.5Z" stroke="#050505" stroke-width="0.4"/>
<path d="M40 61.7001C39.3 61.5001 38.8 60.5001 39.3 59.8001C39.6334 59.2667 40 58.8 40.4 58.4C40.5334 58.2667 40.6667 58.1 40.8 57.9C41 57.7 41.3 57.8 41.4 58C41.5 58.9 41.7 59.7001 41.6 60.6001C41.6 61.2001 41 61.8001 40.5 61.8001C40.3667 61.8001 40.2667 61.8001 40.2 61.8001C40.1334 61.7334 40.0667 61.7001 40 61.7001Z" fill="#F69226"/>
<path fill-rule="evenodd" clip-rule="evenodd" d="M47.8 51.1001C47.8 51.1668 47.8 51.2001 47.8 51.2001C47.7334 51.2667 47.7 51.3334 47.7 51.4C47.3667 52 47.0334 52.6334 46.7 53.3C46.1667 54.3667 45.6334 55.4333 45.1 56.5C44.5 57.7667 43.8667 59.0334 43.2 60.3C42.9 60.9 42.6 61.5001 42.2 62.1001C41.5334 63.1001 40.7 63.9 39.7 64.5C37.9 65.7 35.8 66.3 33.6 66.4C32.4 66.4 31.2 66.3 30 65.8C29.8667 65.7334 29.7334 65.6668 29.6 65.6001C29.6 65.6001 29.5667 65.6001 29.5 65.6001C29.4334 65.5334 29.3667 65.5 29.3 65.5C28.6 65.1 27.9 64.5 27.4 63.9C26.1334 62.4334 25.2334 60.7667 24.7 58.9C24.7 58.8334 24.6667 58.7334 24.6 58.6001C24.6 58.5334 24.6 58.4667 24.6 58.4C24.3334 57.2667 24.3 56.1 24.5 54.9C24.5667 54.2334 24.7334 53.5667 25 52.9C25.2 52.4334 25.4334 51.9334 25.7 51.4C26.3667 50.0667 27.0667 48.7334 27.8 47.4C27.9334 47 28.1 46.6001 28.3 46.2001C28.3667 46.0667 28.4334 45.9334 28.5 45.8C28.8334 45.2 29.1334 44.6334 29.4 44.1001C29.4 44.0334 29.4 43.9667 29.4 43.9C29.4667 43.8334 29.5334 43.7667 29.6 43.7001C29.6 43.6334 29.6334 43.5667 29.7 43.5C29.7 43.4333 29.7334 43.3334 29.8 43.2001C29.8 43.2001 29.8 43.1668 29.8 43.1001C29.9334 42.9001 30.0667 42.6667 30.2 42.4C30.4667 41.9334 30.8667 41.7001 31.4 41.7001C31.7 41.7001 32 41.8 32.2 42C33.1 42.7 33.9 43.4 34.8 44C36.3334 45.0667 37.9334 46 39.6 46.8C39.8 46.9334 40 47.0334 40.2 47.1001C41.7 47.7001 43.1 48.3001 44.6 48.7001C45.3334 48.9667 46.0667 49.2 46.8 49.4C47.4 49.5 47.8 49.8 47.9 50.4C47.9 50.4 47.9 50.4333 47.9 50.5C47.9 50.6333 47.9 50.7334 47.9 50.8C47.9 50.9334 47.8667 51.0334 47.8 51.1001ZM32.1 53.1001C32.7 53.2001 33.4 53.0001 34 52.7001C34.1 52.6001 34.1 52.6 34.1 52.4C32.3 51.8667 30.8 50.8667 29.6 49.4C29.4 49.4 29.4 49.5001 29.4 49.6001C29.4 49.9334 29.4 50.2333 29.4 50.5C29.6 52 30.6 53.0001 32.1 53.1001ZM35.5 63.5C35.5 63.4333 35.5 63.3667 35.5 63.3C35.5 62.3 35.2334 61.3667 34.7 60.5C34.0334 59.5 33.1334 58.8668 32 58.6001C31.8667 58.5334 31.7334 58.5 31.6 58.5C30.2 58.4 29 58.8001 27.9 59.6001C27.8334 59.6001 27.8 59.6334 27.8 59.7001C27.6 59.8001 27.7 60.0001 27.9 60.1001C27.9667 60.1001 28.0334 60.1001 28.1 60.1001C28.5 60.2001 29 60.2 29.5 60.3C30.5 60.5667 31.4667 60.9667 32.4 61.5C33.3 62 34.2 62.7001 34.9 63.6001C34.9 63.6001 34.9334 63.6334 35 63.7001C35.2 63.8001 35.4 63.7 35.5 63.5ZM39.6 57.1001C40.6 57.3001 42.3 56.7 42.6 55.9C42.5334 55.9 42.4667 55.8667 42.4 55.8C41.8667 55.7334 41.3667 55.6668 40.9 55.6001C40.3 55.5001 39.7 55.3 39.1 55C38.5667 54.8 38.0667 54.5334 37.6 54.2001C37.5 54.1001 37.4 54.1001 37.3 54.2001C37.3 55.1001 38 56.8001 39.6 57.1001Z" stroke="#050505" stroke-width="0.4"/>
<path fill-rule="evenodd" clip-rule="evenodd" d="M42.2001 16C43.1001 16.2 44.1 16.5 42.8 19.4C41.7 21.9 40.7001 21.8 39.4001 21.4L38.8 21.3L41.3 15.7001L42.2001 16ZM41.9001 16.6001L39.9001 20.9C41.2001 21.3 41.6 20.1001 42.1 19.2001C42.4 18.3001 43.2001 16.9001 41.9001 16.6001Z" fill="#FEFEFE"/>
<path d="M43.0001 22.4L42.2001 22.2001L44.7001 16.6001L45.5001 16.9L43.0001 22.4ZM45.1001 16.5L44.8001 16.1001L46.0001 15.2001L46.3001 15.7001L45.1001 16.5Z" fill="#FEFEFE"/>
<path fill-rule="evenodd" clip-rule="evenodd" d="M47.6 17.5L46.4001 23.3L45.6 23.1001L45.9001 22L44.7001 21.7001L44 22.7001L43.3 22.5L47 17.3L47.6 17.5ZM46.2001 20.6001L46.9001 18.5H46.8L45.1 21.2001L46 21.4L46.2001 20.6001Z" fill="#FEFEFE"/>
</svg>
