<svg xmlns="http://www.w3.org/2000/svg" width="111" height="117" fill="none" viewBox="0 0 111 117">
  <g class="7 abril" clip-path="url(#a)">
    <g class="circulo">
      <path fill="#512E8D" d="M85.096 81.8c-3.5 22.4-24.5 37.8-46.9 34.3s-37.8-24.5-34.3-46.9c3.4-22.4 24.4-37.8 46.9-34.3 22.4 3.4 37.8 24.4 34.3 46.9Z" class="sombra"/>
      <g class="lineas">
        <mask id="b" width="83" height="83" x="3" y="34" class="b" maskUnits="userSpaceOnUse" style="mask-type:luminance">
          <g class="cp187">
            <path fill="#fff" d="M85.076 81.77c-3.48 22.42-24.47 37.78-46.89 34.31-22.43-3.48-37.79-24.47-34.32-46.89 3.48-22.43 24.47-37.79 46.89-34.32 22.43 3.48 37.79 24.47 34.32 46.9Z" class="Vector"/>
          </g>
        </mask>
        <g class="&lt;Clip Group&gt;" mask="url(#b)">
          <g class="&lt;Group&gt;">
            <path fill="#7358A5" stroke="#512E8D" stroke-width=".6" d="m77.996 107.8.9-.9-48.7-63.9c-.4.2-.767.4-1.1.6l48.9 64.2Zm9.1-12.8c.2-.4.367-.833.5-1.3L45.296 38a86.63 86.63 0 0 0-1.5.2l43.3 56.8Zm-5.7 9.1.8-1-47.4-62.4-1.2.6 47.8 62.8Zm3.1-4.2c.2-.4.433-.8.7-1.2l-45.4-59.6c-.467.133-.9.267-1.3.4l46 60.4Zm4.6-10.4.4-1.6-38.1-50.1h-1.7l39.4 51.7Zm-14.5 21.1c.2-.133.367-.267.5-.4l-49.1-64.5a3.26 3.26 0 0 0-.5.4 3.26 3.26 0 0 0-.5.4l49.1 64.5c.2-.133.367-.267.5-.4Zm15.8-27.7c.067-.6.1-1.233.1-1.9l-32.3-42.4c-.6-.133-1.2-.233-1.8-.3l34 44.6Zm-26.2-42.6 26.3 34.5c-.067-.8-.167-1.633-.3-2.5l-23.7-31c-.733-.333-1.5-.667-2.3-1Zm-22.3 77.8c.6.133 1.2.233 1.8.3l-34-44.6c-.067.6-.1 1.233-.1 1.9l32.3 42.4Zm6.9.8h1.6l-39.4-51.7-.4 1.6 38.2 50.1Zm38.7-56.3c-1.3-3.1-3-6-5.2-8.8-2.1-2.8-4.5-5.3-7.1-7.3l12.3 16.1Zm-53.9 52.8c.733.333 1.5.667 2.3 1l-26.3-34.5c.067.8.167 1.633.3 2.5l23.7 31Zm-21-21.3c1.3 3.1 3 6 5.2 8.8 2.1 2.8 4.5 5.3 7.1 7.3l-12.3-16.1Zm52.7 21.9c.4-.2.833-.4 1.3-.6l-47.9-62.8-.8 1 47.4 62.4Zm4.6-2.3c.4-.2.767-.4 1.1-.6l-48.9-64.2-.9.9 48.7 63.9Zm-15.1 5a86.63 86.63 0 0 0 1.5-.2l-43.2-56.8c-.2.4-.4.833-.6 1.3l42.3 55.7Zm5.5-1.1 1.4-.4-46.1-60.4c-.2.4-.433.8-.7 1.2l45.4 59.6Z" class="&lt;Path&gt;"/>
          </g>
        </g>
      </g>
      <path fill="#7358A4" d="M81.696 77.8c-3.5 22.5-24.5 37.8-46.9 34.4-22.4-3.5-37.8-24.5-34.3-46.9 3.5-22.5 24.4-37.8 46.9-34.3 22.4 3.4 37.8 24.4 34.3 46.8Z" class="fondo"/>
    </g>
    <g class="texto">
      <g class="&lt;Group&gt;">
        <path fill="#FEFEFE" fill-rule="evenodd" d="M43.796 65.6c.9-.1 2-.2 1.9 2.9 0 2.8-.9 3.1-2.3 3.3l-.6.1.1-6.2.9-.1Zm-.1.7-.1 4.8c1.3-.2 1.3-1.4 1.3-2.5 0-.9.1-2.5-1.2-2.3Z" class="&lt;Compound Path&gt;" clip-rule="evenodd"/>
        <path fill="#FEFEFE" d="M48.496 64.9v.7l-1.3.2-.1 1.9 1.2-.2v.8l-1.2.1v2.1l1.4-.2v.7l-2.2.3.1-6.1 2.1-.3Z" class="&lt;Compound Path&gt;"/>
      </g>
      <g class="&lt;Group&gt;">
        <path fill="#7BC044" d="m80.296 74.6-39.1 6.8-.9-4.8 39.1-6.8.9 4.8Zm-11.4-7.1-16.8 2.9-.9-4.8 16.8-2.9.9 4.8Z" class="&lt;Path&gt;"/>
        <g class="&lt;Group&gt;">
          <g class="&lt;Group&gt;">
            <g class="&lt;Group&gt;">
              <path fill="#FEFEFE" fill-rule="evenodd" d="M38.896 57.1c1-.2 2.1-.3 2.1 3 0 3-.9 3.3-2.4 3.6l-.6.1-.1-6.6 1-.1Zm0 .8v5c1.4-.1 1.3-1.5 1.3-2.6 0-1 .1-2.7-1.3-2.4Z" class="&lt;Compound Path&gt;" clip-rule="evenodd"/>
              <path fill="#FEFEFE" d="m41.996 56.3-.4-.2.7-1.4.5.3-.8 1.3Zm.6 6.7-.9.1v-6.5l.8-.1.1 6.5Z" class="&lt;Compound Path&gt;"/>
              <path fill="#FEFEFE" fill-rule="evenodd" d="m44.896 56.1 1.4 6.3-.9.1-.2-1.2-1.3.2-.2 1.3-.8.2 1.3-6.8.7-.1Zm0 3.6-.3-2.3-.5 3.4 1-.1-.2-1Z" class="&lt;Compound Path&gt;" clip-rule="evenodd"/>
              <path fill="#FEFEFE" d="m49.096 55.4.9 4.6v-.3l.3-1.6.5-3 .8-.1.6 6.5-.9.1-.1-2.4-.1-1.2v-.9l-.2 1-.6 3.7h-.6l-.8-4.3-.3 4.5-.8.2.5-6.7.8-.1Zm4.4-.7v4.8c0 .8.3 1 .6.9.6-.1.6-.5.6-1v-4.9l.9-.1V59c0 .9 0 2-1.5 2.2-1.3.2-1.4-.7-1.4-1.9l-.1-4.5.9-.1Zm3.6 1.4.1 2.1v2.4l-.8.2v-6.6l.8-.1 1.5 4.7-.2-2.6v-2.3l.8-.1.1 6.5-.8.1-1.5-4.8v.5Z" class="&lt;Compound Path&gt;"/>
              <path fill="#FEFEFE" fill-rule="evenodd" d="M61.096 53.5c1-.2 2.1-.3 2.1 3 0 3-.9 3.3-2.4 3.6l-.6.1-.1-6.6 1-.1Zm-.1.8.1 5c1.4-.2 1.3-1.5 1.3-2.6 0-1 .1-2.7-1.4-2.4Z" class="&lt;Compound Path&gt;" clip-rule="evenodd"/>
              <path fill="#FEFEFE" d="m64.696 59.4-.8.1V53l.8-.1v6.5Z" class="&lt;Compound Path&gt;"/>
              <path fill="#FEFEFE" fill-rule="evenodd" d="m67.096 52.5 1.4 6.3-.9.1-.2-1.2-1.3.2-.2 1.3-.8.2 1.3-6.8.7-.1Zm0 3.6-.3-2.3-.5 3.4 1-.1-.2-1Z" class="&lt;Compound Path&gt;" clip-rule="evenodd"/>
              <path fill="#FEFEFE" d="m69.596 52.1.1 5.8 1.4-.3v.8l-2.3.3v-6.5l.8-.1Z" class="&lt;Compound Path&gt;"/>
            </g>
          </g>
          <g class="&lt;Group&gt;">
            <g class="&lt;Group&gt;">
              <path fill="#FEFEFE" d="m44.196 90.3.8 4.8v-.4l.4-2.3.3-2.3.8-.2-1.2 6.7-.6.2-1.3-6.4.8-.1Zm3.6 6-.9.1v-6.5l.8-.2.1 6.6Zm3-7.1v.8l-1.4.2v2.1l1.3-.2v.7l-1.3.2v2.2l1.5-.2v.8l-2.3.3v-6.5l2.2-.4Z" class="&lt;Compound Path&gt;"/>
              <path fill="#FEFEFE" fill-rule="evenodd" d="m51.296 89.2 1-.2c.6-.1 1.6-.2 1.6 1.4 0 .6-.2 1.6-.9 1.8l1.2 3-.9.2-1.1-3.1h-.1l.1 3.2-.9.2v-6.5Zm1.7 1.6c0-.7-.1-1.2-.7-1h-.1v2.1c.6 0 .8-.5.8-1.1Z" class="&lt;Compound Path&gt;" clip-rule="evenodd"/>
              <path fill="#FEFEFE" d="m55.296 90.4.1 2.2V95l-.8.1v-6.5l.8-.1 1.5 4.7-.2-2.6v-2.3l.8-.2.1 6.6-.8.1-1.5-4.8v.4Zm5.3-2.8v.8l-1.4.2v2.1l1.3-.2v.7l-1.3.2v2.2l1.4-.2v.8l-2.2.3-.1-6.5 2.3-.4Zm2.4.7c-.2-.2-.4-.3-.7-.2-.5.1-.7.5-.7 1 0 .2 0 .4.2.6l.6.6c.6.5 1 .9 1 1.8s-.6 1.8-1.5 2c-.4 0-.7 0-1-.2V93c.3.2.5.3.9.2.5-.1.7-.5.7-1 0-1.3-1.8-1.3-1.8-3 0-.9.5-1.7 1.4-1.9.4 0 .7 0 .9.1v.9Zm4.3-.7c-.2-.2-.4-.2-.7-.2-.5.1-.7.5-.7 1 0 .2 0 .4.2.6l.6.6c.6.5.9.9.9 1.8s-.5 1.8-1.4 2c-.4 0-.7 0-1-.2v-.9c.3.2.5.3.9.2.5-.1.7-.5.7-1 0-1.3-1.8-1.3-1.8-3 0-.9.5-1.7 1.4-1.9.3 0 .7 0 .9.1v.9Z" class="&lt;Compound Path&gt;"/>
              <path fill="#FEFEFE" fill-rule="evenodd" d="m69.696 86.2 1.4 6.3-.9.1-.2-1.2-1.3.2-.2 1.3-.8.1 1.3-6.7.7-.1Zm0 3.6-.3-2.3-.5 3.4 1-.2-.2-.9Z" class="&lt;Compound Path&gt;" clip-rule="evenodd"/>
              <path fill="#FEFEFE" d="m72.096 87.7.2 2.2v2.4l-.9.1v-6.5l.8-.1 1.5 4.7-.2-2.6v-2.4l.9-.1v6.5l-.8.2-1.5-4.8v.4Zm5.3-2.8v.8l-.9.1v5.8l-.8.1-.1-5.7-1 .1v-.7l2.8-.5Z" class="&lt;Compound Path&gt;"/>
              <path fill="#FEFEFE" fill-rule="evenodd" d="M80.896 87.6c0 1.2-.1 3.4-1.7 3.6-1.6.3-1.7-1.9-1.7-3 0-1.2.1-3.4 1.7-3.7 1.6-.2 1.6 1.9 1.7 3.1Zm-2.5.4c0 1.4.1 2.5.8 2.4.7-.1.8-1.2.8-2.6 0-1.4-.1-2.6-.8-2.4-.7.1-.8 1.2-.8 2.6Z" class="&lt;Compound Path&gt;" clip-rule="evenodd"/>
            </g>
          </g>
          <g class="&lt;Group&gt;">
            <g class="&lt;Group&gt;">
              <path fill="#FEFEFE" d="m55.196 62.8.2 5.6 3.2-.5.1 2.2-5.6.9-.2-7.8 2.3-.4Z" class="&lt;Compound Path&gt;"/>
              <path fill="#FEFEFE" fill-rule="evenodd" d="m64.196 61.3 3 7.4-2.5.5-.2-.8-2.6.4-.2.8-2.5.4 2.7-8.3 2.3-.4Zm-1.6 5.1 1-.1-.5-1.6-.5 1.7Z" class="&lt;Compound Path&gt;" clip-rule="evenodd"/>
            </g>
          </g>
          <g class="&lt;Group&gt;">
            <g class="&lt;Group&gt;">
              <path fill="#FEFEFE" d="M43.396 79.1c.6.533 1.233.767 1.9.7.4-.133.6-.3.6-.5 0-.133-.133-.233-.4-.3-.2-.067-.5-.133-.9-.2a9.26 9.26 0 0 1-1.1-.3c-.4-.133-.7-.367-.9-.7a2.362 2.362 0 0 1-.5-1.1c0-.467.2-1 .6-1.6.4-.6 1.2-1.2 2.3-1.3.8-.2 1.6 0 2 .2.5.3.9.6 1.1.8l.1.1-1.5 1.5c-.333-.267-.6-.433-.8-.5a1.627 1.627 0 0 0-.8 0c-.4.1-.6.3-.6.4 0 .3.4.4 1 .5.267 0 .567.067.9.2.333.067.633.167.9.3.267.133.5.333.7.6.2.333.3.7.3 1.1 0 .5-.2 1-.6 1.6-.5.6-1.4 1.1-2.5 1.3-.867.133-1.567.066-2.1-.2-.6-.334-1.033-.7-1.3-1.1l1.6-1.5Z" class="&lt;Compound Path&gt;"/>
              <path fill="#FEFEFE" fill-rule="evenodd" d="m53.696 72.5 3 7.4-2.5.4-.3-.7-2.5.4-.3.8-2.5.4 2.7-8.3 2.4-.4Zm-1.6 5.1 1.1-.2-.6-1.5-.5 1.7Z" class="&lt;Compound Path&gt;" clip-rule="evenodd"/>
              <path fill="#FEFEFE" d="m59.496 71.5.2 5.7 3.2-.5.1 2.2-5.6.9-.2-7.9 2.3-.4Zm7.4 6.9h-.6c-.5 0-.9 0-1.4-.3-.5-.2-.8-.6-1.1-1.2-.133-.4-.2-.8-.2-1.2l-.1-4.8 2.3-.4.1 4.9s0 .1.1.3c0 .067.033.167.1.3.2.1.4.2.8.2a.97.97 0 0 0 .6-.4c.133-.133.233-.3.3-.5V75l-.1-4.8 2.3-.4.1 4.8c0 .9-.2 1.7-.6 2.2-.2.267-.4.5-.6.7-.7.6-1.4.8-1.8.9h-.2Z" class="&lt;Compound Path&gt;"/>
              <path fill="#FEFEFE" fill-rule="evenodd" d="m71.296 77.5-.2-7.8 3.1-.5c1.133-.2 2.067 0 2.8.6.733.667 1.133 1.567 1.2 2.7 0 1.133-.333 2.133-1 3-.733.867-1.667 1.367-2.8 1.5l-3.1.5Zm2.2-6V75l.8-.2c.467-.067.833-.267 1.1-.6.267-.4.367-.833.3-1.3 0-.533-.133-.933-.4-1.2-.267-.267-.6-.367-1-.3l-.8.1Z" class="&lt;Compound Path&gt;" clip-rule="evenodd"/>
            </g>
          </g>
        </g>
      </g>
    </g>
    <g class="numero">
      <g class="negro">
        <path fill="#050505" d="m45.896 38.7 7.9-.9.3 2.7-2.7 10.4-3.8.4 2.6-9.8-3.9.5-.4-3.3Z" class="&lt;Compound Path&gt;"/>
      </g>
      <g class="blanco">
        <path fill="#FEFEFE" d="m47.196 37.1 7.8-.9.3 2.7-2.7 10.4-3.7.5 2.5-9.8-3.9.4-.3-3.3Z" class="&lt;Compound Path&gt;"/>
      </g>
    </g>
    <g class="ilustracion">
      <g class="nene">
        <path fill="#050505" fill-rule="evenodd" d="m106.041 44.7 4.6 8.5c-1.6-1.2-2.8-1-3.2-.9-.5.8-2 2-2 2v-.2c-.5.4-1.2.8-2 1.1-.067.133-.1.233-.1.3 0 0-1.3.3-3.3.2-1.1 0-2-.2-2.9-.5-.667-.2-1.367-.467-2.1-.8a10.2 10.2 0 0 1-1.5-.8c-.467.2-1 .333-1.6.4-1.3.3-2.5.4-3.7.4-.3 1-.6 1.7-.7 2-.3 1.7-1.1 4-1.5 5.2v1.3l-10.7 1.4c2.2-1.4 1.3-2.3 1.3-2.3h.3c0-.3 0-1.4.1-1.8h.1v-2h-.4c0-1 .1-2 .4-2.9h-.1l-.1-.9c-.067 0-.1.033-.1.1 0 0-1.8-3.4-2.6-8.6a3.894 3.894 0 0 1-.5-.2c-1.7 1.4-3.5 2.2-5 2.6h-.2c-.8.2-1.567.3-2.3.3-.1 0-2 .1-3.6-1.1-.6-.4-1.2-.9-1.8-1.7-1.1-1.7-.6-3.2.1-4.4.2-.6.4-1.1.7-1.3.3-.3.9-.6 1.5-.6 1.3-.4 3.2-.4 4.8 1.3.6-.267 1.133-.6 1.6-1 .067 0 .1-.033.1-.1-.6-.3-1.1-.5-1.1-.5l.6-.1c-2.4-1.6-4.1-3.9-5.4-6.8-.2-.333-.4-.7-.6-1.1-.5-.2-.9-1.2-.9-1.2-.667-2.134-1.167-4.067-1.5-5.8v.1s-1.3-7.1-1-9.8c.2-1.6.5-2.3.6-2.1.2.2.4 1.5.8 1.1 0-1.3 0-1.3.1-2.4.2-1.3 1.5-2.4 1.5-2-.1.8-.2 1.8.3 1.6h.1c2.8-3.8 8.7-8.6 20.6-7.8 1.7.1 3.7.9 3.7 1.6 0 .3-1.2.3-2.3.7 5.5.9 9.9 3.2 9.4 4.5-.4.9-1.7 0-3.6-.2 5 2.5 6.2 5.3 5.5 6-.6.7-2.1-1.4-5.4-2.1v.1c1 .3 2.5 1.1 3.5 2.3 1.5 1.8 1.7 2.7 1.3 3.1-.6.4-.8-.4-1.9-1 .067.133.133.3.2.5.5.7 1.5 2.1 1.7 3.8.2 2 0 2.8-.5 2.9-.133 0-.233-.034-.3-.1.2.267.433.533.7.8.6-.7 2.4-1 3.8-.7 2 .5 3.6 2.3 3.2 4.4l.1-.1c.6 1.9.6 3.7.2 5.2.9-.3 1.6-.3 2.2.2 1.6 1.5 1 7.3 4.1 8.5 0 0-1.7 1.2-5.1 1.1-.3.6-.7 1.1-1.2 1.4.4.133.833.233 1.3.3.067-.067.1-.133.1-.2v-.1l.1-.1.1-.1v.1l1.4-1Zm-11.2-19.9a9.617 9.617 0 0 1-.2-.7v.5l.2.2Z" class="&lt;Compound Path&gt;" clip-rule="evenodd" opacity=".1"/>
        <g class="&lt;Group&gt;">
          <g class="&lt;Group&gt;">
            <g class="&lt;Group&gt;">
              <path fill="#E8E8E8" stroke="#050505" stroke-linecap="round" stroke-linejoin="round" stroke-width=".4" d="M75.141 41s5.2-5.3 2.8-7.3c-3.3-2.8-6.8 1.6-9 3.2-3.1 2.3-7.3 2.2-6.5 7.1.4 2.4 6.9 3.2 12.7-3Z" class="&lt;Path&gt;"/>
              <g class="&lt;Path&gt;">
                <path fill="#E8E8E8" d="M64.84 45.7s-2.8-.1-4.5-2.7c-1.7-2.5 0-4.6.9-5.6s5.901-2.8 8.301 4.2"/>
                <path stroke="#050505" stroke-linecap="round" stroke-linejoin="round" stroke-width=".4" d="M64.84 45.7s-2.8-.1-4.5-2.7c-1.7-2.5 0-4.6.9-5.6s5.901-2.8 8.301 4.2"/>
              </g>
              <path fill="#050505" d="M75.141 41s2.4-2.5 3.2-4.8c0-.4-.2-.7-.6-.7-1.4.2-5 4.5-5.9 5.1-.9.6-.2 1.5-.8 1.7-.5.2-1.1.5-3.2-.8-.5-.3-.9 4.5-5.9 3.1 1.8 1.3 3.8 1.2 3.8 1.2v-.1c2.5.1 6-1.1 9.4-4.7Z" class="&lt;Path&gt;" opacity=".2" style="mix-blend-mode:multiply"/>
              <path fill="#050505" d="M62.441 37.1s-2.4.9-2.2 3.5c.2 2.4 1.9 3.2 3.5 3.3 1.6 0 3.1-1.4 2.6-3.6-.7-2.9-2.1-3.6-3.9-3.2Z" class="&lt;Path&gt;"/>
            </g>
            <g class="&lt;Group&gt;">
              <path fill="#C0292D" stroke="#050505" stroke-linecap="round" stroke-width=".4" d="M64.34 42.4c-.9.3-3.799-.1-4.199-1-.4-.9.2-3.5.9-4.2.7-.6 2.5-1.1 3.8.9 1.2 1.8.9 3.8-.5 4.3Z" class="&lt;Path&gt;"/>
              <path fill="#C0292D" stroke="#050505" stroke-linecap="round" stroke-width=".4" d="M63.541 39.3c-.1.4 0 .8.4 1 .5.1.9-.1 1.1-.5l.6-1.5c.1-.4-.1-.8-.5-1-.4-.1-.8.1-1 .5l-.6 1.5Z" class="&lt;Path&gt;"/>
              <g class="&lt;Path&gt;">
                <path fill="#C0292D" d="M64.141 40.3s-.5 1.8-1.8 1.7Z"/>
                <path stroke="#050505" stroke-linecap="round" stroke-width=".4" d="M64.141 40.3s-.5 1.8-1.8 1.7"/>
              </g>
            </g>
          </g>
          <path fill="#CBD230" stroke="#050505" stroke-linecap="round" stroke-width=".4" d="M78.041 27.3s-8.3 6.6-7.6 12c.7 5.5 9.4 4.4 10.7 4.2 1.4-.1 1.9-2.9 1.4-7.2-.5-4.2-1.9-11.1-4.5-9Z" class="&lt;Path&gt;"/>
          <g class="&lt;Group&gt;">
            <path fill="#1571B2" stroke="#050505" stroke-linecap="round" stroke-linejoin="round" stroke-width=".4" d="M88.541 32.7s1 1.7 6.2 1.3c5.3-.5 8.3-3.5 9.9-2 1.6 1.5 1 7.3 4.1 8.5 0 0-4.8 3.3-15.5-2.1-10.8-5.5-4.7-5.7-4.7-5.7Z" class="&lt;Path&gt;"/>
            <g class="&lt;Group&gt;">
              <path fill="#104978" stroke="#050505" stroke-linecap="round" stroke-linejoin="round" stroke-width=".4" d="M104.541 45.2c-.4-.5-1.5.3-1.9.8-.4.6-1.5 3.9-2.9 3.9s-10.3-5.7-10.1-13.4c.1-4.5 1.9-.5 1.9-.5s5.1 6.5 7.7 7.4c2.6.9 5.3 1.8 5.3 1.8Z" class="&lt;Path&gt;"/>
              <path fill="#1571B2" stroke="#050505" stroke-linecap="round" stroke-linejoin="round" stroke-width=".4" d="M89.541 29s5.2 13.9 15 14.3c0 0 1.1 1.8.8 2.8 0 0-4.9-.1-8.5-2.8-3-2.2-5.6-3.9-7.3-14.3Z" class="&lt;Path&gt;"/>
            </g>
          </g>
          <g class="&lt;Group&gt;">
            <g class="&lt;Path&gt;">
              <path fill="#CBD230" d="M88.441 24.4s4-3.9 5.1-3.1c1.2.7 4.5 6.1 6.1 6.4 1.6.4-1.2.8-1.2.8s1 4.4 2 6.2c1 1.8 2.4 6.9-2.1 8.1-4.4 1.1-5.5-7.2-5.5-7.2l-4.4-11.5"/>
              <path stroke="#050505" stroke-linecap="round" stroke-width=".4" d="M88.441 24.4s4-3.9 5.1-3.1c1.2.7 4.5 6.1 6.1 6.4 1.6.4-1.2.8-1.2.8s1 4.4 2 6.2c1 1.8 2.4 6.9-2.1 8.1-4.4 1.1-5.5-7.2-5.5-7.2l-4.4-11.5"/>
            </g>
            <path fill="#050505" d="m93.741 28.8 2-1.2s1.3.7 2.2.8c.9 0-.1 2.1.2 2.7.3.6-1.2-.3-.9.7.4 1.1 1.1 4.7 1.9 5.1.7.5.4 4.5-.7 5s-4.7-13.1-4.7-13.1Z" class="&lt;Path&gt;" opacity=".1"/>
            <path stroke="#050505" stroke-linecap="round" stroke-linejoin="round" stroke-width=".4" d="M95.441 27.4s1 1.1 3.5.7" class="&lt;Path&gt;"/>
          </g>
          <g class="&lt;Group&gt;">
            <g class="&lt;Path&gt;">
              <path fill="#D8A986" d="M97.041 42.7s3.9 1.4 5 1.3c1.1 0 2-.9 2-1.3l2.5 6.9s-1.9 2.7-5.2 3.1c-2.5.4-4.1-.1-5.8-.7-3-1.2-4.2-2.2-4.2-2.2"/>
              <path stroke="#050505" stroke-width=".4" d="M97.041 42.7s3.9 1.4 5 1.3c1.1 0 2-.9 2-1.3l2.5 6.9s-1.9 2.7-5.2 3.1c-2.5.4-4.1-.1-5.8-.7-3-1.2-4.2-2.2-4.2-2.2"/>
            </g>
            <path fill="#1B783C" stroke="#050505" stroke-linecap="round" stroke-linejoin="round" stroke-width=".4" d="M102.641 44.1s1.2 5.1.1 8.5c0 0-5.7 1.5-10.9-2.8l6.7-5 .9-2.1s1.1 1.5 3.2 1.4Z" class="&lt;Path&gt;"/>
            <path fill="#060505" d="M93.641 46.9c2.1 2.1 5.7 4.1 8.6 3.5 2.2-.4 3.4-1.5 3.9-2 .2.7.4 1.2.4 1.2s-1.9 2.7-5.2 3.1c-2.5.4-4.1-.1-5.8-.7-3-1.2-4.2-2.2-4.2-2.2l2.3-2.9Z" class="&lt;Path&gt;" opacity=".2"/>
            <path fill="#E75E27" stroke="#050505" stroke-linecap="round" stroke-linejoin="round" stroke-width=".4" d="m103.541 43.2 1.3 8.2s2.1-1.6 2.3-2.4c.2-.8-2.1-4.9-2.1-4.9l-1.5-.9Z" class="&lt;Path&gt;"/>
            <path fill="#050505" stroke="#060505" stroke-linecap="round" stroke-linejoin="round" stroke-width=".4" d="M106.741 49.5s1.4-.6 3.3.8l-4.6-8.5-1.6 1.2 2.9 6.5Z" class="&lt;Path&gt;"/>
          </g>
          <g class="&lt;Group&gt;">
            <g class="&lt;Path&gt;">
              <path fill="#D8A986" d="M83.741 42.4s4.4 3.8 3.4 10.2c-.5 2.6-2.3 6.7-2.3 6.7l-8.3-1.8s-.1-4.2.1-5.6c.2-1.8 1.2-3.6 1.2-3.6"/>
              <path stroke="#050505" stroke-width=".5" d="M83.741 42.4s4.4 3.8 3.4 10.2c-.5 2.6-2.3 6.7-2.3 6.7l-8.3-1.8s-.1-4.2.1-5.6c.2-1.8 1.2-3.6 1.2-3.6"/>
            </g>
            <path fill="#E75E27" stroke="#050505" stroke-linecap="round" stroke-linejoin="round" stroke-width=".5" d="m85.141 58.8-8.8.4s-.1-1.4.2-1.8c.2-.5 9.2.1 9.2.1l-.6 1.3Z" class="&lt;Path&gt;"/>
            <path fill="#2DA149" stroke="#050505" stroke-linecap="round" stroke-linejoin="round" stroke-width=".5" d="M76.141 55.3s8.8-.9 10.8-1.7c0 0 1.7-4.7 3.3-11.8l-10.2 4.8s-4.1 3.9-3.9 8.7Z" class="&lt;Path&gt;"/>
            <path fill="#060505" d="m85.141 59.7-.9-.3c.4-1.3 1.2-4.6.5-7.6-.2-1.1-.8-2.1-1.5-2.8-.9-1-6.1 3.7-6.8 3.4l-.4-2.5 8.2-7.1s3.9 4.1 2.9 10c-.4 2.5-2 6.9-2 6.9Z" class="&lt;Path&gt;" opacity=".2"/>
            <path fill="#050505" stroke="#060505" stroke-linecap="round" stroke-linejoin="round" stroke-width=".5" d="M76.041 59.2s.9.8-1.3 2.2l10.7-1.3v-1.8l-9.4.9Z" class="&lt;Path&gt;"/>
          </g>
          <g class="&lt;Group&gt;">
            <path fill="#F5F6F6" stroke="#050505" stroke-linecap="round" stroke-linejoin="round" stroke-width=".4" d="M100.841 45.1s-2.9 4.8-9.4 6.1c-6.6 1.3-11-1.7-15.2.4 0 0-4.7-8.7-2.3-19.7.4-1.7 11.4-9.9 16.5-3 5.1 7 8.2 12 9.3 13.3 1.1 1.2 1.7 2.1 1.1 2.9Z" class="&lt;Path&gt;"/>
            <path stroke="#050505" stroke-linecap="round" stroke-linejoin="round" stroke-width=".4" d="M78.14 50.2s-4.6-8.6-2.3-17.1" class="&lt;Path&gt;"/>
            <path fill="#050505" d="m86.941 32.1 3.6-3c5 6.8 8.1 11.8 9.2 13.1 1.1 1.2 1.7 2.1 1.1 2.9 0 0-1 1.6-3.2 3.3.7-.9 1-1.9.6-2.2-.7-.4-1.5 1.7-2.4 1.2-.8-.5 2.1-3.1 1.1-4.3-.9-1.2-2.2-3.6-2.2-3.6s-4.3 1.2-6.8-1.8c-2.6-3-1-5.6-1-5.6Z" class="&lt;Path&gt;" opacity=".1"/>
            <path fill="#F5F6F6" stroke="#050505" stroke-linecap="round" stroke-linejoin="round" stroke-width=".4" d="m75.041 39.4 7.5-3.2-2.5-.3s7.6-4 9.1-6l-15.5 2.4-1.2.9 1.5 2.3-1.4.1s.5 2.1 2.5 3.8Z" class="&lt;Path&gt;"/>
            <path fill="#0E0C0D" d="M75.141 38.9s-.8-3.8-.5-7.1l6 .5s-5.1 4.3-5.5 6.6Z" class="&lt;Path&gt;"/>
            <path stroke="#050505" stroke-linecap="round" stroke-linejoin="round" stroke-width=".4" d="M91.741 41.6s-4.7 1.7-6.5 2.5c0 0 .5 4.7 3.7 4.9 3.1.1 4.7-1.8 4.3-3.6-.4-2-1.5-3.8-1.5-3.8Zm.7 1.5-6.8 2.6" class="&lt;Path&gt;"/>
            <path fill="#050505" d="M78.241 48.5c.1.4.4.6.6.5.3 0 .5-.4.4-.7 0-.4-.3-.6-.6-.6-.3.1-.5.4-.4.8Zm-1.2-3.1c.1.3.4.6.7.5.3 0 .4-.4.4-.7-.1-.4-.4-.7-.7-.6-.3.1-.4.4-.4.8Zm-.7-3c.1.4.3.6.6.5.3 0 .5-.4.4-.7-.1-.4-.3-.7-.6-.6-.3.1-.5.4-.4.8Z" class="&lt;Path&gt;"/>
            <path fill="#050505" d="M89.141 49.3s-1.6.2-3.7-.6c-2.1-.7-4.3-.8-5.1-.7 0 0 2-.6 3.7-.3 1.7.3 2.9 1.6 5.1 1.6Zm-11 1.1s-3.2-6.9-3.1-11c0 0-1.5-1.2-2-2.7l.1 1.8s.7 1 1.3 1.6c0 0 1.3 6.4 3.2 10.2l.5.1Zm4.5-16.1-2.6 1.6 2.5.3-6.7 3s-.3.7-.3 1c0 0 .4-.6.9-.8.5-.2 7.2-3.1 7.4-3.2.2-.2-1.9-.6-1.9-.6l2.2-1.7-1.5.4Z" class="&lt;Path&gt;" opacity=".1"/>
            <path fill="#060505" d="M92.741 25.7s-2.5 7.5-9.6 10.5c-7 3.1-12.5.1-10.3-4.1l19.9-6.4Z" class="&lt;Path&gt;" opacity=".2"/>
            <path fill="#050505" d="M87.34 43.5c.134.533.268 1.033.401 1.5l4.1-1.7c.2.3.1.4-.2.6-.2.1-2 .9-2.8 1.2-.7.3-.8.7-.8 1.1 1 2.7 2.3 2.4 2.3 2.4.6 0 .1.4.1.4s-2.7.4-3.8-1.1c-1.2-1.6-1.4-3.8-1.4-3.8l2.1-.6Z" class="&lt;Path&gt;" opacity=".1"/>
            <path fill="#050505" d="M88.541 42.2s-1.5.5-1.6.9c0 0-1.5.5-1.9.7-.3.1-.2 1.5.9 2.9l.2.6s-.6-.7-1.4-2.1c-.8-1.5.5-3.6.8-3.9.4-.3-.1 1.3.3 1.3.4.1 2-.5 2.7-.4Z" class="&lt;Path&gt;" opacity=".1"/>
            <g class="&lt;Group&gt;">
              <path fill="#0D4978" stroke="#0D2235" stroke-linecap="round" stroke-linejoin="round" stroke-width=".4" d="M83.141 39c.3.9 1.1 1.4 1.8 1.3.7-.1 1-.9.7-1.8-.3-.8-1.1-1.4-1.8-1.2-.7.1-1 .9-.7 1.7Z" class="&lt;Path&gt;"/>
              <path fill="#F3F6F7" d="m84.041 37.7-.1.7-.5.2.6.4.1.7.4-.4.6.2-.3-.7.2-.5h-.6l-.4-.6Z" class="&lt;Path&gt;"/>
            </g>
            <g class="&lt;Group&gt;">
              <path fill="#050505" d="M76.141 35s-1.9 1.7-1.4 3.4.9 1.5.9 1.5-.6 1.9 1.3 4.2c1.9 2.3 5.4 3.5 8.1 2.5l.9-2.1-2-1.6s-1.9 1.5-4.2-.8c-2.4-2.4-2.5-4.7-2.5-4.7l-1.1-2.4Z" class="&lt;Path&gt;" opacity=".1"/>
              <g class="&lt;Group&gt;">
                <path fill="#1472B3" stroke="#050505" stroke-linecap="round" stroke-linejoin="round" stroke-width=".4" d="M75.741 37.8s-.4 4.3 2.8 6c3.2 1.8 5 1.1 5 1.1s1.5-1.7 2.1-1.9l-2.2-2.2s-2.2 1-4.1-.4c-1.9-1.4-1.8-2.4-1.8-2.4l-1.8-.2Z" class="&lt;Path&gt;"/>
                <path fill="#1472B3" stroke="#050505" stroke-linecap="round" stroke-linejoin="round" stroke-width=".4" d="M78.941 34.3s-2.2.7-4.1-.1c0 0-.1 4 .8 4.3 0 0 1.2 0 2.2-.1 0 0 1-2.3 1.1-4.1Z" class="&lt;Path&gt;"/>
                <path fill="#050505" d="M75.241 37.9s2.1-.1 2.2-.6c.1-.5.2-1.3-.4-1.4-.6-.2-2.3-.7-2.3-.7l.1-1s3.3.6 4.1.1c.9-.5-1.1 4.1-1.2 4.3 0 .1-2.1-.1-2.1-.1l-.4-.6Zm7.599 3.6s-1.8 2-4 1.6c-2.1-.3-2.099-2.9-2.099-2.9s.9 1.4 1.7 1.5c.7.1 1.5-.7 1.2-1l1.4.5s.2 1 1.8.3Z" class="&lt;Path&gt;" opacity=".1"/>
              </g>
            </g>
          </g>
          <path fill="#7BCAE1" d="m92.741 24.4-.2.3Z" class="&lt;Path&gt;"/>
          <g class="&lt;Group&gt;">
            <path fill="#050505" d="M67.941 36.3s4.7 2 4.8 4.4c.2 2.3 10.1-3.2 12.1-2.9 2 .3 6.1-4.1 5.8-8.4-.2-4.3-12.7 5-12.7 5l-10 1.9Z" class="&lt;Path&gt;" opacity=".1"/>
            <path fill="#A27448" d="M91.441 17.6c2.1 8.4-2 15.8-10.7 18.6-8.4 2.7-16.5-1.6-18.6-10.1-2.2-8.4 2.6-15.4 11.1-17.6 8.6-2.1 16 .6 18.2 9.1Z" class="&lt;Path&gt;"/>
            <path fill="#C48A58" d="M89.741 19.3c2.1 8.1-1.6 14.4-9.7 16.4-8 2-16.1-1.3-18.2-9.4-2-8.1 1.8-10.6 9.8-12.7 8.1-2 16.1-2.4 18.1 5.7Z" class="&lt;Path&gt;"/>
            <path fill="#DBAB88" stroke="#050505" stroke-width=".4" d="M91.341 14.6c2.1 8.6-.6 20.9-12.5 23.2-9.8 1.9-15.1-4.2-17.2-12.8-2.2-8.6 3.2-16 11.7-18.1 8.5-2.2 15.8-.9 18 7.7Z" class="&lt;Path&gt;"/>
            <path fill="#DFDFDE" d="M91.041 27.7s4-8.8-3.1-19.5c-9.4-5-12.9-2.2-18.4.5-4.2 2.3-6.7.1-6.7.1s18.4.4 19.9 1.6c1.5 1.1-4.5-.1-2.9 1.5 4.8 4.9 6.4 11.7 6.4 13.8 0 3.5-1 9-8.3 11.8 0 0 3.8-.1 7.5-2.4.4-.3 1.7-1.6 1.9-2l1.4-1.2 2.3-4.2Z" class="&lt;Path&gt;" style="mix-blend-mode:multiply"/>
            <path stroke="#050505" stroke-linecap="round" stroke-linejoin="round" stroke-width=".4" d="m72.241 25.5-.7 2.9 2.3-.6" class="&lt;Path&gt;"/>
            <path fill="#DFDFDE" d="m71.541 28.6 1 1.3 1.6-1.8" class="&lt;Path&gt;" style="mix-blend-mode:multiply"/>
            <g class="&lt;Group&gt;">
              <path fill="#050505" d="M83.641 14.2c2.9 2.2 2.3 5.1 3.5 5.1 1.2-.1 1.9.1 2.4 2.1.2.5.6 1.5.6 2.5.8-.1 2.9-1.3 2.9-5.1 0 0-1.3-18.6-20.1-15.8-8.5 1.3-17.4 6.2-11.2 24.1 0 0 .4 1.4 1 1.2.5-.1-2.5-5.2-1.1-9.8 0 0 .4-4.3 3.9-4.7 2.4-.2 4.3 1.2 4.7 1.3.5 0 6.4-6.7 13.4-.9Z" class="&lt;Path&gt;"/>
              <path fill="#050505" d="M91.541 14c-1.2 1.9-7.6-2.7-15.1-3-6.9-.4-15.1 3.6-15.1 3.6s3.2-13.9 21.3-8.4c7.3 2.2 9.5 6.8 8.9 7.8Z" class="&lt;Path&gt;"/>
              <path fill="#050505" d="M60.141 12.5s3.5-13.8 23-12.4c1.7.1 3.7.9 3.7 1.5 0 .5-3 .3-3.6 1.7" class="&lt;Path&gt;"/>
              <path fill="#050505" d="M76.341 2s-.5-.8 7.2.2c5.9.7 11 3.2 10.4 4.6-.5 1.4-3.3-1.3-6.6.2" class="&lt;Path&gt;"/>
              <path fill="#050505" d="M80.641 3.9s-1.6-1.8 7 1.5c7.3 2.8 9.1 6.4 8.3 7.3-.8.8-3-2.6-8.1-2.3" class="&lt;Path&gt;"/>
              <path fill="#050505" d="M89.941 11.1s3.7 1.8 4.1 6.9c.5 4.8-1 7.1-1.8 6.9-.8-.2.3-1.8-2.6-4.9" class="&lt;Path&gt;"/>
              <path fill="#050505" d="M89.541 10.3s2.8.7 4.4 2.7c1.5 1.7 1.7 2.6 1.3 3-.7.6-.9-.7-2.8-1.4m.8.6s1.8 1.9 2 4.1c.2 2.1 0 2.8-.5 2.9-.8.1-.3-1-1.4-2.4" class="&lt;Path&gt;"/>
              <path fill="#050505" d="M93.941 20s.5 2.6-.5 4.6c-.8 1.9-1.4 2.4-1.9 2.2-.7-.4.3-1 0-2.8" class="&lt;Path&gt;"/>
              <path fill="#050505" d="M89.641 21.7c1.1 2.7-.1 6.2 1.1 6 1.6-.2 4.3-3 3-9.8" class="&lt;Path&gt;"/>
              <g class="&lt;Group&gt;">
                <path fill="#050505" d="M60.141 21.5s-1.3-7.1-1-9.9c.3-1.5.5-2.3.7-2 .1.2.4 1.8.9.7.4-.9-.6 11.2-.6 11.2Z" class="&lt;Path&gt;"/>
                <path fill="#050505" d="M60.541 11.2c0-1.8 0-1.7.1-2.9.2-1.3 1.5-2.4 1.5-2-.1.7-.2 1.8.3 1.6.9-.3-1.9 3.3-1.9 3.3Z" class="&lt;Path&gt;"/>
              </g>
            </g>
            <g class="&lt;Group&gt;">
              <path fill="#050505" d="M62.14 24.5c.3 1.9 2.701 3 4.901 2.6 2.2-.3 3.8-2.1 3.5-4-.3-1.9-2.4-3.1-4.6-2.7-2.2.3-4.1 2.2-3.8 4.1Z" class="&lt;Path&gt;"/>
              <path fill="#050505" d="M74.34 20.2s-1.299 1.6-2.799 1.7c-.9.1-1.9-.8-2.5-1-.7-.3-.1 2.2-.1 2.2l1.5 1.4s.2-1.2 1.2-1.3c1.7-.2 2.2.1 2.9 1m5.799-5.4s2.401.8 3.901.5c1.5-.2 6.1-1.7 6.1-1.7l.5 1.3s-6.9 1-8.3 3.7" class="&lt;Path&gt;"/>
              <path fill="#050505" d="M73.741 22.6c.3 1.8 2.5 3 4.9 2.6 2.4-.4 4.4-2.4 4.1-4.2-.3-1.9-2.9-2.9-5.2-2.5-2.4.3-4.1 2.2-3.8 4.1Zm-11.401.3s-.099.9-.399 1.1c-.4.3-.9.3-.9.3l.2.8s.7-.2 1.3.5" class="&lt;Path&gt;"/>
              <g class="&lt;Group&gt;">
                <g class="&lt;Group&gt;">
                  <path fill="#FEFEFE" stroke="#050505" stroke-width=".4" d="M79.441 21.5c.2.7-.3 1.5-1.1 1.6-.8.2-1.5-.3-1.7-1-.1-.8.4-1.5 1.2-1.6.7-.2 1.5.3 1.6 1Z" class="&lt;Path&gt;"/>
                </g>
                <g class="&lt;Group&gt;">
                  <path fill="#050505" d="M78.641 22c.1.5-.2.9-.7 1-.5.1-1-.2-1.1-.6-.1-.5.2-1 .7-1.1.5-.1 1 .2 1.1.7Z" class="&lt;Path&gt;"/>
                </g>
                <g class="&lt;Group&gt;">
                  <path fill="#FEFEFE" d="M78.541 21.4c0 .2-.1.4-.3.4-.2.1-.3 0-.4-.2 0-.2.1-.4.3-.4.2 0 .4.1.4.2Z" class="&lt;Path&gt;"/>
                </g>
              </g>
              <g class="&lt;Group&gt;">
                <g class="&lt;Group&gt;">
                  <path fill="#FEFEFE" stroke="#050505" stroke-width=".4" d="M67.441 23.4c.1.7-.4 1.4-1.2 1.6-.8.1-1.5-.3-1.6-1.1-.2-.7.3-1.4 1.1-1.6.8-.1 1.5.4 1.7 1.1Z" class="&lt;Path&gt;"/>
                </g>
                <g class="&lt;Group&gt;">
                  <path fill="#050505" d="M66.541 23.9c.1.4-.2.9-.7 1-.5.1-1-.2-1.1-.7-.1-.4.3-.9.8-1 .5-.1.9.2 1 .7Z" class="&lt;Path&gt;"/>
                </g>
                <g class="&lt;Group&gt;">
                  <path fill="#FEFEFE" d="M66.441 23.3c.1.2-.1.3-.2.4-.2 0-.4-.1-.4-.3-.1-.1.1-.3.2-.3.2-.1.4 0 .4.2Z" class="&lt;Path&gt;"/>
                </g>
              </g>
            </g>
            <g class="&lt;Group&gt;">
              <path stroke="#050505" stroke-linecap="round" stroke-linejoin="round" stroke-width=".4" d="M63.141 20.3c1.1-2.3 3.4-1.8 4.7-1.1m11.7-2.2c-2-1.7-4-.9-5.2.9" class="&lt;Path&gt;"/>
            </g>
            <path stroke="#050505" stroke-linecap="round" stroke-linejoin="round" stroke-width=".4" d="M74.541 31.7s3.3.4 5.1-3.4" class="&lt;Path&gt;"/>
            <path fill="#050505" d="M78.34 32.3s1.901-.8 2.301-2.9c0 0 .7 2.4-2.3 2.9Z" class="&lt;Path&gt;" opacity=".1"/>
          </g>
          <g class="&lt;Group&gt;">
            <path fill="#AD86A9" stroke="#050505" stroke-linecap="round" stroke-width=".4" d="M103.941 39.2c.2 2-.8 3.8-2.3 4-1.6.3-3.1-1.1-3.4-3.1-.3-2 .8-3.8 2.3-4 1.6-.2 3.1 1.2 3.4 3.1Z" class="&lt;Path&gt;"/>
            <path fill="#AD86A9" stroke="#050505" stroke-linecap="round" stroke-width=".4" d="M102.741 39.4c.1 1.2-.5 2.2-1.4 2.3-.8.1-1.7-.7-1.9-1.8-.1-1.1.4-2.2 1.3-2.3.9-.1 1.8.7 2 1.8Z" class="&lt;Path&gt;"/>
            <path fill="#AD86A9" stroke="#050505" stroke-linecap="round" stroke-width=".4" d="M101.841 39.6c0 .5-.2.9-.6 1-.4 0-.8-.3-.9-.8-.1-.5.2-1 .6-1.1.4 0 .8.3.9.9Z" class="&lt;Path&gt;"/>
          </g>
          <g class="&lt;Group&gt;">
            <path fill="#CBD230" stroke="#050505" stroke-linecap="round" stroke-width=".4" d="M98.441 25.9s-9.2.8-10.1 4.8c-.9 4.1 7.1 7.3 8.3 7.8 1.3.5 2.5-1.1 3.2-4.3.7-3.2 1.4-8.6-1.4-8.3Z" class="&lt;Path&gt;"/>
            <g class="&lt;Group&gt;">
              <path fill="#C0292D" stroke="#050505" stroke-linecap="round" stroke-width=".4" d="M97.34 29c2.1.5 4.201-.1 4.801-2.3.5-2.1-1.1-4-3.2-4.5s-5 .5-3.7 2.2c.1.1.8 1 .5 1.5-1.2 1.9-.5 2.5 1.6 3.1Z" class="&lt;Path&gt;"/>
              <g class="&lt;Path&gt;">
                <path fill="#F5F6F6" d="M95.241 29.4s-3.3-2.1-4.4-.7c-1.2 1.3-.2 5.5 4.1 7.7 4.4 2.1 9.2-2.9 7.4-9.9 0 0-3.2 2.2-7.3 1.5 0 0 .9 2.8-.7 2.8"/>
                <path stroke="#050505" stroke-linecap="round" stroke-linejoin="round" stroke-width=".4" d="M95.241 29.4s-3.3-2.1-4.4-.7c-1.2 1.3-.2 5.5 4.1 7.7 4.4 2.1 9.2-2.9 7.4-9.9 0 0-3.2 2.2-7.3 1.5 0 0 .9 2.8-.7 2.8"/>
              </g>
              <g class="&lt;Path&gt;">
                <path fill="#C0292D" d="M95.741 25.5c.3.5-.4.9-1.3 1-1 .1-1.3.4-1.3.9 0 .7 1.1 1 3.1.7"/>
                <path stroke="#050505" stroke-linecap="round" stroke-width=".4" d="M95.741 25.5c.3.5-.4.9-1.3 1-1 .1-1.3.4-1.3.9 0 .7 1.1 1 3.1.7"/>
              </g>
              <path fill="#050505" d="M92.24 31.7s-.299-.9.201-.9c.6 0 3 1.2 2.9 1.7 0 .6-.4 1.3-1.5.6-1.1-.7-1.6-1.4-1.6-1.4Zm10.301-2.3c.1-1.1-.1-2.1-.6-1.8-.6.4-1.6.8-2.1.9-.6.2-.3 2.1-.6 3.8-.4 1.7-.3 2.8-1.4 3.2-1 .5-.6.7-.6.7s-.9-.2-1.5-.1-.4.7.3.8c.7.2 3.7-.1 4.9-2.2 1.2-2 1.6-5.3 1.6-5.3Z" class="&lt;Path&gt;" opacity=".1"/>
            </g>
            <path fill="#050505" d="M84.541 37.9s.4 1.2 1.9.9c1.6-.3 3-2.5 3-2.5s.4-.8.8-.6c0 0-.4 1.6-.9 2.2-.5.7-1.5 2.1-1.9 2.2-.3.1-2.4-.7-2.9-2.2Z" class="&lt;Path&gt;" opacity=".1"/>
          </g>
        </g>
      </g>
      <g class="circulos">
        <g class="&lt;Group&gt;">
          <path stroke="#F2F2F2" stroke-linecap="round" stroke-width=".4" d="m62.496 68.2 5.6-6.4" class="&lt;Path&gt;" opacity=".2"/>
        </g>
        <g class="&lt;Group&gt;">
          <path fill="#479DD6" d="M55.696 76.1c0 .2-.1.3-.3.4-.2 0-.3-.2-.3-.3 0-.2.1-.3.3-.3.1-.1.3.1.3.2Zm18.1-6.3c0 .2-.1.3-.3.3-.1.1-.3-.1-.3-.3 0-.1.1-.3.3-.3.2 0 .3.1.3.3Zm-40.1 33.4c0 .2-.1.4-.3.4-.1 0-.3-.2-.3-.3 0-.2.1-.4.3-.4.2 0 .3.1.3.3Zm-30.8-33.9c0 .1-.1.3-.3.3-.2 0-.3-.1-.3-.3 0-.1.1-.3.3-.3.1 0 .3.1.3.3Zm13 12.5c0 .2-.1.3-.3.4-.1 0-.3-.2-.3-.3 0-.2.1-.3.3-.4.2 0 .3.2.3.3Zm51.2-27.6c0 .1-.1.2-.2.2s-.2 0-.2-.1.1-.2.2-.2.2 0 .2.1ZM43.996 36c0 .1-.1.2-.2.2-.1.1-.1 0-.1-.1-.1-.1 0-.2.1-.2s.2 0 .2.1Zm32 24.8c0 .1-.1.2-.2.2s-.2 0-.2-.1.1-.2.2-.2.1 0 .2.1Zm-28.2-7.9c0 .1-.1.2-.2.2s-.2-.1-.2-.2.1-.1.2-.2c.1 0 .2.1.2.2Zm-7 11.8c0 .1-.1.3-.2.3-.2 0-.3-.1-.3-.3 0-.1.1-.2.2-.3.2 0 .3.1.3.3Zm5.7-18.5c0 .1-.1.2-.2.2-.2 0-.3-.1-.3-.2 0-.2.1-.3.2-.3.2 0 .3.1.3.3Zm-37.8 15.3c.1.2-.1.4-.4.4-.2.1-.4-.1-.5-.4 0-.2.2-.4.5-.5.2 0 .4.2.4.5Zm50.6-11.4c0 .3-.2.5-.4.5-.3 0-.5-.2-.5-.4 0-.3.2-.5.4-.5.3 0 .5.2.5.4Zm-5.4 35.6c.1.2-.1.4-.4.5-.2 0-.4-.2-.5-.5 0-.2.2-.4.5-.4.2-.1.4.1.4.4Zm-17.1-31.4c0 .3-.2.5-.5.5-.2 0-.4-.2-.4-.4-.1-.3.1-.5.4-.5.2 0 .4.2.5.4Zm-18.5 46c0 .1-.1.2-.2.2s-.2 0-.2-.1.1-.2.2-.2.2 0 .2.1Zm-1.4 1.4c.1.1 0 .2-.1.2s-.2-.1-.2-.2 0-.1.2-.2c.1 0 .1.1.1.2Zm29.7 9.6c.1.2-.1.3-.2.3s-.3-.1-.3-.2c0-.2.1-.3.3-.3.1 0 .2.1.2.2Zm-32-3.2c0 .3-.2.5-.4.5-.3 0-.5-.2-.5-.4 0-.3.1-.5.4-.5.2 0 .5.2.5.4Zm57.5-21.6c.1.2-.1.3-.3.4-.1 0-.3-.2-.3-.3 0-.2.1-.4.3-.4.2 0 .3.1.3.3Zm-55.5 12.3c.1.2-.1.3-.3.3-.2.1-.4-.1-.4-.3 0-.2.1-.4.3-.4.2 0 .4.2.4.4Zm32.2 4.9c0 .3-.2.5-.4.5-.3 0-.5-.2-.5-.4 0-.3.1-.5.4-.5.2 0 .5.2.5.4Z" class="&lt;Path&gt;"/>
        </g>
        <g class="&lt;Group&gt;">
          <path fill="#7BC044" d="M38.196 69.5c-.4-.4-.4-1 0-1.4.5-.4 1.1-.4 1.5 0 .4.4.4 1.1 0 1.5-.4.4-1.1.4-1.5-.1Z" class="&lt;Path&gt;"/>
          <g class="&lt;Group&gt;" style="mix-blend-mode:multiply">
            <g class="&lt;Group&gt;">
              <path fill="#CACAC9" d="M39.496 68.5c.3.2.4.5.4.8.2-.4.1-.9-.2-1.2-.4-.4-1-.4-1.4 0a.654.654 0 0 0-.3.3c.4-.4 1.1-.3 1.5.1Z" class="&lt;Path&gt;"/>
            </g>
          </g>
        </g>
        <g class="&lt;Group&gt;">
          <path fill="#74C3AE" d="M61.896 88.8c.7.6.8 1.5.2 2.2-.5.6-1.5.7-2.1.2-.7-.6-.7-1.5-.2-2.2.5-.6 1.5-.7 2.1-.2Z" class="&lt;Path&gt;"/>
          <path fill="#CACAC9" d="M60.196 90.5c-.3-.3-.6-.6-.7-1-.2.6 0 1.2.5 1.7.6.5 1.6.4 2.1-.2.133-.133.233-.267.3-.4-.6.4-1.5.5-2.2-.1Z" class="&lt;Path&gt;" style="mix-blend-mode:multiply"/>
        </g>
        <g class="&lt;Group&gt;">
          <path fill="#1D7BC0" fill-rule="evenodd" d="M37.396 39.4a1.78 1.78 0 0 1-.8-.2c-.4-.2-.7-.5-.8-.9-.3-.8.1-1.7.9-2 .9-.3 1.8.2 2 1 .2.4.1.8 0 1.2-.2.3-.5.6-.9.8a.887.887 0 0 0-.4.1Zm-.2-3h-.4c-.8.3-1.2 1.1-.9 1.9.1.3.4.6.7.8.4.2.8.2 1.1.1.4-.2.7-.4.9-.8.1-.3.2-.7 0-1.1-.2-.6-.8-1-1.4-.9Z" class="&lt;Compound Path&gt;" clip-rule="evenodd"/>
        </g>
        <g class="&lt;Group&gt;">
          <g class="&lt;Group&gt;">
            <path fill="#7BC044" d="M17.396 87.9c-.4-.4-.4-1.2 0-1.6.5-.4 1.2-.4 1.7 0 .4.5.4 1.2-.1 1.7-.4.4-1.1.4-1.6-.1Z" class="&lt;Path&gt;"/>
            <g class="&lt;Group&gt;" style="mix-blend-mode:multiply">
              <g class="&lt;Group&gt;">
                <path fill="#CACAC9" d="M18.896 86.8c.2.2.4.5.4.9.2-.4.1-1-.2-1.4-.5-.4-1.2-.4-1.6 0a.654.654 0 0 0-.3.3c.4-.3 1.2-.3 1.7.2Z" class="&lt;Path&gt;"/>
              </g>
            </g>
          </g>
          <g class="&lt;Group&gt;">
            <path fill="#74C3AE" d="M43.396 49.5c.6.6.7 1.5.2 2.2-.6.6-1.5.7-2.2.1-.6-.5-.7-1.5-.2-2.1.6-.6 1.6-.7 2.2-.2Z" class="&lt;Path&gt;"/>
            <path fill="#CACAC9" d="M41.696 51.2c-.4-.3-.7-.6-.7-1-.2.6-.1 1.2.4 1.6.7.6 1.6.5 2.2-.1l.2-.4c-.6.4-1.5.4-2.1-.1Z" class="&lt;Path&gt;" style="mix-blend-mode:multiply"/>
          </g>
          <g class="&lt;Group&gt;">
            <path fill="#1D7BC0" fill-rule="evenodd" d="M48.196 92.3c-.267 0-.5-.034-.7-.1-.3-.2-.6-.5-.7-.8-.3-.8.1-1.6.9-1.8.7-.3 1.5.1 1.7.8.2.4.1.8 0 1.1-.2.3-.5.6-.8.7a.887.887 0 0 1-.4.1Zm-.2-2.7c-.067 0-.167.033-.3.1-.7.2-1 .9-.8 1.6.1.4.3.6.7.8.3.1.6.1.9 0 .4-.1.6-.3.8-.6.1-.3.2-.7 0-1-.2-.6-.7-.9-1.3-.9Z" class="&lt;Compound Path&gt;" clip-rule="evenodd"/>
          </g>
          <g class="&lt;Group&gt;">
            <path fill="#FCD904" d="M74.896 64.8c.1.9-.6 1.7-1.5 1.8-1 0-1.8-.7-1.8-1.6-.1-.9.6-1.7 1.5-1.8.9 0 1.7.7 1.8 1.6Z" class="&lt;Path&gt;"/>
            <g class="&lt;Group&gt;" style="mix-blend-mode:multiply">
              <g class="&lt;Group&gt;">
                <path fill="#CACAC9" d="M72.296 64.7c0-.5 0-1 .4-1.4-.7.3-1.2 1-1.1 1.7 0 .9.8 1.6 1.7 1.6.2-.1.5-.2.7-.2-.8 0-1.6-.7-1.7-1.7Z" class="&lt;Path&gt;"/>
              </g>
            </g>
          </g>
        </g>
        <g class="&lt;Group&gt;">
          <path fill="#7BC044" d="M57.696 99c.9.1 1.5.8 1.5 1.7-.1.8-.8 1.5-1.7 1.5-.9-.1-1.5-.8-1.5-1.7.1-.9.8-1.5 1.7-1.5Z" class="&lt;Path&gt;"/>
          <g class="&lt;Group&gt;" style="mix-blend-mode:multiply">
            <g class="&lt;Group&gt;">
              <path fill="#CACAC9" d="M57.296 101.5c-.5 0-1-.1-1.2-.5.1.6.7 1.1 1.4 1.2.9 0 1.6-.6 1.7-1.5 0-.2-.033-.4-.1-.6-.1.8-.9 1.5-1.8 1.4Z" class="&lt;Path&gt;"/>
            </g>
          </g>
        </g>
      </g>
      <g class="reloj 3">
        <path fill="#F9FCFE" d="M71.096 98c1 1.2-.2 3.9-2.6 6-2.5 2.2-5.4 3-6.4 1.8-1-1.1.2-3.8 2.7-6s5.3-3 6.3-1.8Z" class="&lt;Path&gt;" opacity=".1"/>
        <path fill="#F9FCFE" d="M67.596 102.3c-.133-.8-.233-1.6-.3-2.4a86.37 86.37 0 0 0-.2-1.5c-.4.2-.8.433-1.2.7.133 1.267.267 2.567.4 3.9l.2 2.2c.467-.2.933-.5 1.4-.9a20.681 20.681 0 0 0-.3-2Z" class="&lt;Path&gt;" opacity=".1"/>
        <g class="&lt;Group&gt;">
          <path fill="#D99E28" d="M72.196 97.1c-1.3-1.6-5-.7-8.1 2-3 2.6-4.4 6.1-3 7.7l2.1 2.1c1.3 1.6 4.9.8 7.9-1.9 3-2.6 4.3-6 3-7.5-.4-.4-1.5-2-1.9-2.4Z" class="&lt;Compound Path&gt;"/>
          <path fill="#AA7F2C" d="m68.796 96.5.4.6c1.533 1.867 3 3.767 4.4 5.7l.4.6c.7-1.6.8-3.1.1-3.9-.4-.4-1.5-2-1.9-2.4-.7-.8-1.9-1-3.4-.6Zm-3.8 8.7-3.2-3.4c-1.3 2-1.7 3.9-.7 5l2.1 2.1c.9 1.2 3 1 5.2 0a185.96 185.96 0 0 0-3.4-3.7Z" class="&lt;Path&gt;" opacity=".2"/>
          <path fill="#FCB84A" d="M70.896 97.6c1.1 1.2-.2 4-2.7 6.1-2.5 2.2-5.4 3.1-6.4 1.9-1.1-1.2.1-4 2.7-6.2 2.5-2.2 5.4-3 6.4-1.8Z" class="&lt;Path&gt;"/>
          <path fill="#F1B142" d="M65.196 103.6c-.8-.7-1.7-1.5-2.5-2.3-1.3 1.7-1.7 3.4-.9 4.3.8.9 2.7.6 4.8-.6l-1.4-1.4Zm2.1-6c.9 1.4 1.9 2.7 2.8 4.1 1.2-1.6 1.5-3.2.8-4.1-.6-.7-2-.7-3.6 0Z" class="&lt;Path&gt;" opacity=".3"/>
          <path fill="#757578" d="M71.496 98.6c1.1 1.2 0 3.9-2.5 6-2.5 2.2-5.3 2.9-6.4 1.7-1-1.2.1-3.9 2.6-6 2.4-2.2 5.3-2.9 6.3-1.7Z" class="&lt;Path&gt;" opacity=".2"/>
          <path fill="#BDD4EB" d="M71.296 98.8c1 1.2 0 3.8-2.4 5.8-2.3 2-5 2.7-6 1.6-1-1.2.1-3.7 2.4-5.8 2.4-2 5-2.7 6-1.6Z" class="&lt;Path&gt;"/>
          <g class="&lt;Group&gt;">
            <path fill="#8489AB" d="m67.296 100-.2.2v-.6l.3-.1-.1.5Zm-.2 5.5-.2.1v-.5l.3-.1-.1.5Zm-3.5-.9-.1.2-.7.4v-.2l.8-.4Zm7.9-4.7v.2l-.8.4v-.1l.8-.5Z" class="&lt;Path&gt;"/>
          </g>
          <g class="&lt;Group&gt;">
            <g class="&lt;Group&gt;">
              <path fill="#5E68AC" d="m64.296 103.1 3-.4.1-.2-3.2.5.1.1Z" class="&lt;Path&gt;"/>
              <path fill="#A191C4" d="m64.196 103 3-.4.1-.2-3 .4-.1.2Z" class="&lt;Path&gt;"/>
            </g>
            <g class="&lt;Group&gt;">
              <path fill="#5E68AC" d="m70.796 99-.1-.1-3.7 3.5h.4l3.4-3.4Z" class="&lt;Path&gt;"/>
              <path fill="#A191C4" d="M70.696 98.9h-.1l-3.6 3.5h.4l3.3-3.5Z" class="&lt;Path&gt;"/>
            </g>
            <g class="&lt;Group&gt;">
              <path fill="#6D6E74" d="M67.296 102.2c0-.1-.2 0-.4.1-.2.2-.3.3-.2.4 0 .1.2.2.2.2.1.1.3.1.4-.1.2-.1.3-.3.2-.4 0-.1-.1-.2-.2-.2Z" class="&lt;Path&gt;"/>
              <path fill="#88888C" d="M67.296 102.2c.1.1 0 .3-.1.4-.2.2-.4.2-.5.1-.1-.1 0-.2.2-.4.2-.1.4-.2.4-.1Z" class="&lt;Path&gt;"/>
            </g>
          </g>
          <path fill="#F9FCFE" d="M64.596 106c-.067-1.2-.1-2.433-.1-3.7v-2.1c-2.1 2-3.1 4.4-2.2 5.5.5.5 1.3.6 2.3.3Zm4.5-8.3c.4 1.4.8 2.9 1 4.3 1.2-1.5 1.5-3.1.8-3.8-.4-.5-1-.6-1.8-.5Z" class="&lt;Path&gt;" opacity=".1"/>
          <path fill="#F3EB18" fill-rule="evenodd" d="M72.196 97.1c1.4 1.6.1 5.1-3 7.8-3.1 2.6-6.7 3.5-8.1 1.9-1.4-1.6 0-5.1 3-7.7 3.1-2.7 6.8-3.6 8.1-2Zm-1.3.5c-1-1.2-3.9-.4-6.4 1.8-2.6 2.2-3.8 5-2.7 6.2 1 1.2 3.9.3 6.4-1.9 2.5-2.1 3.8-4.9 2.7-6.1Z" class="&lt;Compound Path&gt;" clip-rule="evenodd"/>
        </g>
      </g>
      <g class="reloj 2">
        <path fill="#F9FCFE" d="M40.296 39.8c.6.7-.1 2.4-1.6 3.7-1.6 1.3-3.3 1.8-3.9 1.1-.7-.7.1-2.4 1.6-3.7 1.5-1.3 3.3-1.8 3.9-1.1Z" class="&lt;Path&gt;" opacity=".1"/>
        <path fill="#F9FCFE" d="m38.096 42.4-.2-1.4c0-.333-.033-.667-.1-1-.267.133-.5.3-.7.5l.2 2.4c.067.467.133.9.2 1.3.267-.133.533-.3.8-.5-.067-.467-.133-.9-.2-1.3Z" class="&lt;Path&gt;" opacity=".1"/>
        <g class="&lt;Group&gt;">
          <path fill="#D99E28" d="M40.996 39.2c-.9-.9-3.1-.4-5 1.2-1.9 1.7-2.7 3.8-1.9 4.8l1.3 1.3c.8 1 3 .5 4.9-1.2 1.8-1.6 2.6-3.6 1.8-4.6-.2-.2-.9-1.2-1.1-1.5Z" class="&lt;Compound Path&gt;"/>
          <path fill="#AA7F2C" d="M38.896 38.9c.067.067.133.166.2.3.933 1.2 1.833 2.4 2.7 3.6l.3.3c.4-1 .5-1.9 0-2.4-.2-.2-.9-1.2-1.1-1.5-.4-.5-1.2-.6-2.1-.3Zm-2.4 5.3a60.937 60.937 0 0 1-2-2.1c-.8 1.2-1 2.4-.4 3.1l1.3 1.3c.6.7 1.9.6 3.2 0a754.07 754.07 0 0 0-2.1-2.3Z" class="&lt;Path&gt;" opacity=".2"/>
          <path fill="#FCB84A" d="M40.196 39.6c.6.7-.1 2.4-1.7 3.7-1.5 1.4-3.3 1.9-3.9 1.1-.7-.7.1-2.4 1.6-3.7 1.6-1.4 3.3-1.9 4-1.1Z" class="&lt;Path&gt;"/>
          <path fill="#F1B142" d="M36.696 43.2c-.533-.4-1.067-.867-1.6-1.4-.7 1.1-1 2.1-.5 2.6.5.6 1.7.4 2.9-.3a10.922 10.922 0 0 1-.8-.9Zm1.3-3.7c.533.867 1.1 1.733 1.7 2.6.7-1 .9-2 .5-2.5s-1.3-.5-2.2-.1Z" class="&lt;Path&gt;" opacity=".3"/>
          <path fill="#757578" d="M40.596 40.2c.6.7-.1 2.4-1.6 3.7-1.5 1.3-3.3 1.8-3.9 1-.7-.7 0-2.4 1.5-3.7 1.6-1.3 3.3-1.8 4-1Z" class="&lt;Path&gt;" opacity=".2"/>
          <path fill="#BDD4EB" d="M40.396 40.3c.6.7 0 2.3-1.4 3.5-1.5 1.3-3.1 1.7-3.7 1-.7-.7 0-2.3 1.4-3.5 1.5-1.3 3.1-1.7 3.7-1Z" class="&lt;Path&gt;"/>
          <g class="&lt;Group&gt;">
            <path fill="#8489AB" d="m37.996 41-.2.1v-.3l.2-.1v.3Zm-.2 3.4-.1.1v-.3l.2-.1-.1.3Zm-2.1-.6-.1.1-.4.3v-.1l.5-.3Zm4.8-2.8v.1l-.5.3v-.2l.5-.2Z" class="&lt;Path&gt;"/>
          </g>
          <g class="&lt;Group&gt;">
            <g class="&lt;Group&gt;">
              <path fill="#5E68AC" d="m36.096 42.9 1.8-.2.1-.2-2 .4h.1Z" class="&lt;Path&gt;"/>
              <path fill="#A191C4" d="m35.996 42.9 1.9-.3v-.1l-1.8.3-.1.1Z" class="&lt;Path&gt;"/>
            </g>
            <g class="&lt;Group&gt;">
              <path fill="#5E68AC" d="m40.096 40.4-2.3 2.1h.2l2.1-2.1Z" class="&lt;Path&gt;"/>
              <path fill="#A191C4" d="m40.096 40.4-.1-.1-2.2 2.2h.2l2.1-2.1Z" class="&lt;Path&gt;"/>
            </g>
            <g class="&lt;Group&gt;">
              <path fill="#6D6E74" d="M37.996 42.4c-.1-.1-.2-.1-.3 0-.1.1-.2.2-.1.3l.1.1c0 .1.2 0 .3-.1.1 0 .1-.2.1-.2l-.1-.1Z" class="&lt;Path&gt;"/>
              <path fill="#88888C" d="M37.996 42.4s0 .1-.1.2-.3.2-.3.1c-.1-.1 0-.2.1-.3.1-.1.2-.1.3 0Z" class="&lt;Path&gt;"/>
            </g>
          </g>
          <path fill="#F9FCFE" d="M36.296 44.7c-.067-.733-.1-1.5-.1-2.3v-1.3c-1.3 1.3-1.9 2.7-1.3 3.4.3.3.8.4 1.4.2Zm2.8-5.1c.2.867.4 1.767.6 2.7.7-1 .9-1.9.5-2.4-.3-.3-.7-.4-1.1-.3Z" class="&lt;Path&gt;" opacity=".1"/>
          <path fill="#F3EB18" fill-rule="evenodd" d="M40.996 39.2c.8 1 0 3.2-1.9 4.8-1.9 1.7-4.1 2.2-5 1.2-.8-1 0-3.1 1.9-4.8 1.9-1.6 4.1-2.1 5-1.2Zm-.8.4c-.7-.8-2.4-.3-4 1.1-1.5 1.3-2.3 3-1.6 3.7.6.8 2.4.3 3.9-1.1 1.6-1.3 2.3-3 1.7-3.7Z" class="&lt;Compound Path&gt;" clip-rule="evenodd"/>
        </g>
      </g>
      <g class="reloj 1">
        <path fill="#F9FCFE" d="M42.296 99.7c.5.6-.1 1.9-1.3 2.9s-2.5 1.4-3 .9c-.5-.6.1-1.9 1.3-2.9 1.1-1.1 2.5-1.4 3-.9Z" class="&lt;Path&gt;" opacity=".1"/>
        <path fill="#F9FCFE" d="m40.596 101.8-.2-1.2c0-.2-.033-.433-.1-.7-.133.067-.3.167-.5.3.067.667.133 1.3.2 1.9 0 .4.033.767.1 1.1.2-.133.433-.3.7-.5a19.738 19.738 0 0 0-.2-.9Z" class="&lt;Path&gt;" opacity=".1"/>
        <g class="&lt;Group&gt;">
          <path fill="#D99E28" d="M42.796 99.3c-.6-.8-2.4-.4-3.8.9-1.5 1.3-2.2 3-1.5 3.7.2.2.8.9 1 1.1.6.7 2.3.3 3.8-1 1.4-1.2 2-2.8 1.4-3.6-.2-.2-.7-.9-.9-1.1Z" class="&lt;Compound Path&gt;"/>
          <path fill="#AA7F2C" d="M41.196 99c.067.067.133.167.2.3a41.912 41.912 0 0 1 2.1 2.7c.067.133.133.233.2.3.3-.8.4-1.5 0-1.9-.2-.2-.7-.9-.9-1.1-.3-.4-.9-.5-1.6-.3Zm-1.8 4.2a39.5 39.5 0 0 1-1.6-1.7c-.6 1-.8 1.9-.3 2.4.2.2.8.9 1 1.1.4.5 1.4.4 2.5-.1a39.56 39.56 0 0 0-1.6-1.7Z" class="&lt;Path&gt;" opacity=".2"/>
          <path fill="#FCB84A" d="M42.196 99.5c.5.6-.1 1.9-1.3 3-1.2 1-2.6 1.4-3.1.8-.5-.5.1-1.8 1.3-2.9 1.2-1 2.6-1.4 3.1-.9Z" class="&lt;Path&gt;"/>
          <path fill="#F1B142" d="m39.396 102.4-1.1-1.1c-.6.8-.8 1.6-.5 2 .4.5 1.3.3 2.3-.3-.2-.2-.433-.4-.7-.6Zm1.1-2.9c.4.667.833 1.333 1.3 2 .6-.8.7-1.6.4-2-.3-.3-1-.3-1.7 0Z" class="&lt;Path&gt;" opacity=".3"/>
          <path fill="#757578" d="M42.496 100c.5.6-.1 1.9-1.2 2.9-1.2 1-2.6 1.4-3.1.8-.5-.6.1-1.9 1.2-2.9 1.2-1 2.6-1.4 3.1-.8Z" class="&lt;Path&gt;" opacity=".2"/>
          <path fill="#BDD4EB" d="M42.396 100.1c.5.6 0 1.8-1.2 2.8-1.1.9-2.4 1.3-2.8.7-.5-.5 0-1.8 1.1-2.7 1.1-1 2.4-1.3 2.9-.8Z" class="&lt;Path&gt;"/>
          <g class="&lt;Group&gt;">
            <path fill="#8489AB" d="M40.496 100.7h-.1v-.2l.1-.1v.3Zm-.1 2.6-.1.1v-.3l.1-.1v.3Zm-1.7-.4-.4.3v-.1l.4-.2Zm3.8-2.3v.1l-.4.2v-.1l.4-.2Z" class="&lt;Path&gt;"/>
          </g>
          <g class="&lt;Group&gt;">
            <g class="&lt;Group&gt;">
              <path fill="#5E68AC" d="m38.996 102.2 1.4-.2.1-.1-1.5.2v.1Z" class="&lt;Path&gt;"/>
              <path fill="#A191C4" d="m38.996 102.1 1.4-.2.1-.1-1.5.2v.1Z" class="&lt;Path&gt;"/>
            </g>
            <g class="&lt;Group&gt;">
              <path fill="#5E68AC" d="m42.096 100.2-1.8 1.6h.2l1.6-1.6Z" class="&lt;Path&gt;"/>
              <path fill="#A191C4" d="m42.096 100.2-.1-.1-1.7 1.7h.2l1.6-1.6Z" class="&lt;Path&gt;"/>
            </g>
            <g class="&lt;Group&gt;">
              <path fill="#6D6E74" d="M40.496 101.7c-.1 0-.2 0-.2.1-.1 0-.2.1-.1.2 0 0 0 .1.1.1 0 0 .1 0 .2-.1s.1-.2.1-.2c-.1 0-.1-.1-.1-.1Z" class="&lt;Path&gt;"/>
              <path fill="#88888C" d="M40.496 101.7c0 .1 0 .1-.1.2s-.2.1-.2.1c-.1-.1 0-.2.1-.2 0-.1.1-.1.2-.1Z" class="&lt;Path&gt;"/>
            </g>
          </g>
          <path fill="#F9FCFE" d="M39.196 103.6c-.067-.6-.1-1.2-.1-1.8v-1c-1 .9-1.5 2.1-1 2.6.2.2.6.3 1.1.2Zm2.1-4c.2.667.367 1.333.5 2 .6-.7.7-1.4.4-1.8-.2-.2-.5-.267-.9-.2Z" class="&lt;Path&gt;" opacity=".1"/>
          <path fill="#F3EB18" fill-rule="evenodd" d="M42.796 99.3c.7.8 0 2.4-1.4 3.7-1.5 1.3-3.3 1.7-3.9.9-.7-.7 0-2.4 1.5-3.7 1.4-1.3 3.2-1.7 3.8-.9Zm-.6.2c-.5-.5-1.9-.1-3.1.9-1.2 1.1-1.8 2.4-1.3 2.9.5.6 1.9.2 3.1-.8 1.2-1.1 1.8-2.4 1.3-3Z" class="&lt;Compound Path&gt;" clip-rule="evenodd"/>
        </g>
      </g>
      <g class="doctor">
        <path fill="#050505" d="M38.596 111.2c0 .9-6.5 2.1-14.7 2.7-8.2.6-14.8.3-14.9-.6-.1-.9 6.5-2.1 14.7-2.7 8.1-.6 14.8-.3 14.9.6Z" class="&lt;Path&gt;" opacity=".3" style="mix-blend-mode:multiply"/>
        <g class="&lt;Group&gt;">
          <path fill="#050505" d="M41.296 90.8s-.2-1.4-1.5-3.7l-.1-.2a14.002 14.002 0 0 0-.9-1.3.887.887 0 0 1-.1-.4l.7-.3s-.3-.5-.8-1.4c0-.6-.1-1-.1-1l-.4.1c-.7-1.4-1.7-3.3-2.8-5.4-.3-2.4-.8-4.6-1.5-6.9-1.3-3.8-3.9-7.4-5.6-9.6 1.3-1.5 2.2-3.4 2.4-5.6.5-4.8-.6-6.4-1.1-10.5l-.2-1c.5.2.6.2.6-.1 0 0-.1-.6-.8-.9-.2-.733-.4-1.4-.6-2 .2.4.333.8.4 1.2 0 0 .1-2.1 0-2.8 0 0-1.3-.3-1.5-1.4-.3-1.1.4-1.6.4-1.6-.2-.2-.4-.367-.6-.5-.6-.4-1.6-1-2.8-1.5-.467-.2-.967-.4-1.5-.6-2.8-.9-6.4-1.1-9.4 1.9h-.2c-.8-.1-5-.7-7.6 1.4-.3.3-.9 1.7-1.2 4-.067.733-.1 1.567-.1 2.5.1 4.5.6 6 2 9.5l.2-.2c.067.4.233.767.5 1.1v.4c.067.333.167.7.3 1.1l-.5.5h-.1l-.4.4-.1.1c-.067.067-.1.133-.1.2l-.1-.1c-.3-.3-.5 0-.5.3 0 .067.033.167.1.3-.667.8-1.167 1.633-1.5 2.5-.4.733-.7 1.533-.9 2.4v.1h-.1c-.067 0-.1.033-.1.1h-.1c0 .067-.033.1-.1.1v.1c-.067 0-.133.033-.2.1s-.1.133-.1.2l-.2.2c0 .067-.033.133-.1.2l-.1.1v.1c-.067.067-.1.133-.1.2-.067.067-.1.133-.1.2v.1l-.1.1v.3c-.067.067-.1.133-.1.2v.8c.1 3 .5 13.4.7 19.4h-.5v1c-.3 0-.5.2-.5.5s.3.6.6.6v.2l.5-.1c.1 1.3.1 2.1.1 2.1h.2c0 .6.1 1.233.3 1.9.5 2.1 1.2 2.6 1.2 2.6.133.2.3.3.5.3v.1h.1c.067 0 .167-.033.3-.1.133.2.233.333.3.4.7 3.8 1.3 6.8 1.8 7.8.067.133.133.233.2.3h.2v.1c.2 0 .467.033.8.1.4.067.933.1 1.6.1l1.1 5.8h.1c.1 1.8.2 3.9.4 4.8.1.4 1.4.5 3.1.5h.7c.133-.067.233-.1.3-.1h1.1c0-.067.033-.1.1-.1h.9c.067-.067.133-.1.2-.1h.8c0-.067.033-.1.1-.1h.6c.067 0 .1-.033.1-.1h.6c.067 0 .133-.033.2-.1h.7c.067-.067.133-.1.2-.1h.5l.1-.1h.7c.133 0 .233-.033.3-.1h.9c0-.067.033-.1.1-.1h.6c.067 0 .133-.033.2-.1h.7c.067 0 .133-.033.2-.1h.7c.067-.067.133-.1.2-.1h.3c.067 0 .167-.033.3-.1h.6l.1-.1h.6c.067-.067.133-.1.2-.1h.5c0-.067.033-.1.1-.1h.5l.1-.1h.5c.067 0 .1-.033.1-.1h.2c1.6-.3 1.5-2 .6-2.9l-.1-.1h-.1v-.1h-.1l-.1-.1h-.1v-.1h-.2c-.067 0-.1-.033-.1-.1h-1.1v.1h-.2c-.4.1-.8.2-1.1.3h-.1c-.2 0-.8-.3-1-.7v-1l.4-.1v-6.4c.333-.067.6-.133.8-.2 0 0 4.2-.7 6.8-3.2.1-.5.3-2.4.4-4.6.2.067.367.067.5 0a.654.654 0 0 0 .3-.3.887.887 0 0 0 .4-.1c.067.067.1.133.1.2.2.4.5.5.9.4.4-.1.6-.5.5-.9 0-.067-.033-.133-.1-.2.067-.067.1-.133.1-.2.1.4.1.6.2.8.2.4.6.5 1 .4.3-.2.5-.5.4-1 .067.067.1.167.1.3.1.3.6.5.9.3.4-.1.6-.6.5-1.1Z" class="&lt;Path&gt;" opacity=".1"/>
          <g class="&lt;Group&gt;">
            <g class="&lt;Group&gt;">
              <path fill="#BF9469" stroke="#050505" stroke-linecap="round" stroke-linejoin="round" stroke-width=".4" d="M36.396 89.3c-.3 0-1.5-.1-1.9-2-.5-1.8-.3-2.3.2-3 .5-.6 3-.8 3-.8s2 .1 3.9 3.3c0 0 .8 1.6.3 1.6-.5.1-4.2 1-4.6 1.2-.4.1-.5-.4-.9-.3Z" class="&lt;Path&gt;"/>
              <g class="&lt;Path&gt;">
                <path fill="#BF9469" d="M37.796 89c.6 1.6.6 2.1.6 2.1.1.5-.1.8-.5 1-.4.1-.8-.1-.9-.4-.3-.8-.7-2.1-1-2.8"/>
                <path stroke="#050505" stroke-linecap="round" stroke-linejoin="round" stroke-width=".4" d="M37.796 89c.6 1.6.6 2.1.6 2.1.1.5-.1.8-.5 1-.4.1-.8-.1-.9-.4-.3-.8-.7-2.1-1-2.8"/>
              </g>
              <g class="&lt;Path&gt;">
                <path fill="#BF9469" d="M39.196 88.4c.6 1.4.9 2.9.9 2.9.1.5-.1.8-.5 1-.3.1-.7-.1-.9-.4l-.3-1.2s-.2-.8-.6-1.6"/>
                <path stroke="#050505" stroke-linecap="round" stroke-linejoin="round" stroke-width=".4" d="M39.196 88.4c.6 1.4.9 2.9.9 2.9.1.5-.1.8-.5 1-.3.1-.7-.1-.9-.4l-.3-1.2s-.2-.8-.6-1.6"/>
              </g>
              <g class="&lt;Path&gt;">
                <path fill="#BF9469" d="M39.696 89.8c.4 1.1.5 1.5.7 2 .1.3.5.5.9.4.4-.2.5-.6.4-1 0 0-.2-1.3-.8-2.8"/>
                <path stroke="#050505" stroke-linecap="round" stroke-linejoin="round" stroke-width=".4" d="M39.696 89.8c.4 1.1.5 1.5.7 2 .1.3.5.5.9.4.4-.2.5-.6.4-1 0 0-.2-1.3-.8-2.8"/>
              </g>
              <g class="&lt;Path&gt;">
                <path fill="#BF9469" d="M40.296 85c2.6 3.3 2.9 5.7 2.9 5.7.1.4-.1.9-.4 1.1-.4.1-.8 0-1-.4-.4-1.3-1-3.1-1.3-3.2"/>
                <path stroke="#050505" stroke-linecap="round" stroke-linejoin="round" stroke-width=".4" d="M40.296 85c2.6 3.3 2.9 5.7 2.9 5.7.1.4-.1.9-.4 1.1-.4.1-.8 0-1-.4-.4-1.3-1-3.1-1.3-3.2"/>
              </g>
              <path fill="#050505" d="M36.096 88.6c-.2 0-1-.6-.1-1.1.7-.4 1.8-1 2.7-1.1 1.3-.1 2.2 0 2.2-.5-.1-.5-1.3-1.7-2-2.1-.7-.3-2.6-.1-3.2 0-.6.2-1.5.9-1.5 1.9-.1 1.1.4 2.6 1 2.9.7.2.9 0 .9 0Zm4.5-1.1s.7.6 1 1.3c.3.7 1.2 2.4.5 2.5l-.4-.1s-.2.5-.7.5c-.4.1-.8-.8-.8-.8s-.3.8-.8.6c-.6-.1-.6-.5-.6-.5s-.3.5-.8.5c-.5-.1-1-.6-1.2-1.2-.2-.5-.5-1.5-.5-1.5s.5.2 1.2.1c.8-.2 1.6-.5 1.6-.5l1.5-.9Z" class="&lt;Path&gt;" opacity=".2"/>
              <g class="&lt;Path&gt;">
                <path fill="#BF9469" d="M38.896 88.2s0 .1.5 1c.4.6.4.8.8 1.1.4.3.8.2 1.1-.1.3-.3.2-.8-.1-1.2-.3-.5-.5-.8-.6-1.4 0 0-.1-.7.2-.8"/>
                <path stroke="#050505" stroke-linecap="round" stroke-linejoin="round" stroke-width=".4" d="M38.896 88.2s0 .1.5 1c.4.6.4.8.8 1.1.4.3.8.2 1.1-.1.3-.3.2-.8-.1-1.2-.3-.5-.5-.8-.6-1.4 0 0-.1-.7.2-.8"/>
              </g>
            </g>
            <g class="&lt;Group&gt;">
              <path fill="#F8F9F9" stroke="#050505" stroke-linecap="round" stroke-linejoin="round" stroke-width=".4" d="m34.096 88.5 7.2-3.7s-9-17.2-11-21.1c-2.4-4.5-9.5-.7-7.1 3.8 1.9 3.7 10.9 21 10.9 21Z" class="&lt;Path&gt;"/>
              <path fill="#050505" d="M26.696 61.7c-.3.5-1.3 2.1-.8 3.1l11.3 22.1-3 1.6-2.8-5.3-8.4-16.2c-1.1-2.7 1.3-5.1 3.7-5.3Z" class="&lt;Path&gt;" opacity=".2"/>
              <g class="&lt;Path&gt;">
                <path fill="#F8F9F9" d="m37.896 84.4-5.2 2.5-1-2 5.2-2.6"/>
                <path stroke="#050505" stroke-linecap="round" stroke-linejoin="round" stroke-width=".4" d="m37.896 84.4-5.2 2.5-1-2 5.2-2.6"/>
              </g>
            </g>
            <g class="&lt;Group&gt;">
              <g class="Zapato 00000176036875947319245440000007063364598530269090">
                <path fill="#643412" stroke="#050505" stroke-linejoin="round" stroke-width=".4" d="M28.996 103.3v3.9c.1 2.6 2.6-.5 4.3 1.2.9.9 1 2.6-.5 2.9 0 0-12.9 2.2-13.3.7-.4-1.7-.6-8.2-.6-8.2l10.1-.5Z" class="&lt;Path&gt;"/>
                <path stroke="#C1B29A" stroke-linecap="round" stroke-linejoin="round" stroke-width=".4" d="m27.496 108.4 1.4-.3m-1.6-.6 1.5-.3" class="&lt;Path&gt;"/>
              </g>
              <g class="Pierna 00000045613765825268612930000002905290683024588473">
                <g class="&lt;Path&gt;">
                  <path fill="#3D261A" d="m15.496 89.3 3.5 17.8s2.9.4 5.2.2c2.2-.1 5.3-.8 5.3-.8l-.2-20.8"/>
                  <path stroke="#050505" stroke-linecap="round" stroke-linejoin="round" stroke-width=".4" d="m15.496 89.3 3.5 17.8s2.9.4 5.2.2c2.2-.1 5.3-.8 5.3-.8l-.2-20.8"/>
                </g>
              </g>
              <path fill="#050505" d="M33.296 108.4c-1-1.1-2.4-.3-3.3-.1.1 0-1.2-.4-1-1.1v-.6l.5-.1-.2-20.8-2.9.7.2 20.3c-.067 0-.233.033-.5.1v.6c0 2.8 4.2 1.1 4.8 2.1.6.9-.5 1.1-1.5 1.4-.9.3-3.3 1.2-6.8 1.6 3.9-.2 10.2-1.2 10.2-1.2 1.5-.3 1.4-2 .5-2.9Z" class="&lt;Path&gt;" opacity=".2"/>
            </g>
            <g class="&lt;Group&gt;">
              <g class="Zapato 00000042715287144209674280000014845563475313591442">
                <path fill="#643412" stroke="#050505" stroke-linejoin="round" stroke-width=".4" d="M23.196 104v3.9c.2 2.6 2.7-.6 4.4 1.2.8.9.9 2.6-.6 2.8 0 0-12.9 2.2-13.2.7-.4-1.6-.6-8.2-.6-8.2l10-.4Z" class="&lt;Path&gt;"/>
                <path stroke="#C1B29A" stroke-linecap="round" stroke-linejoin="round" stroke-width=".4" d="m21.696 109.1 1.5-.3m-1.6-.6 1.4-.3" class="&lt;Path&gt;"/>
              </g>
              <g class="Pierna 00000028285119185935385950000002182723951866988940">
                <g class="&lt;Path&gt;">
                  <path fill="#3D261A" d="m9.796 89.9 3.4 17.9s3 .3 5.2.2c2.2-.1 5.3-.8 5.3-.8l-.2-20.8"/>
                  <path stroke="#050505" stroke-linecap="round" stroke-linejoin="round" stroke-width=".4" d="m9.796 89.9 3.4 17.9s3 .3 5.2.2c2.2-.1 5.3-.8 5.3-.8l-.2-20.8"/>
                </g>
              </g>
              <path fill="#050505" d="M27.596 109.1c-1.1-1.1-2.5-.3-3.4-.1.1 0-1.1-.4-1-1.1.1-.1 0-.4 0-.6l.5-.1-.2-20.8-2.9.7.2 20.3-.5.1v.6c0 2.7 4.3 1.1 4.8 2.1.6.9-.5 1.1-1.4 1.4-.9.3-3.3 1.2-6.8 1.5 3.9-.1 10.1-1.2 10.1-1.2 1.5-.2 1.4-1.9.6-2.8Z" class="&lt;Path&gt;" opacity=".2"/>
            </g>
            <g class="&lt;Group&gt;">
              <path fill="#D3D4D4" stroke="#050505" stroke-linecap="round" stroke-linejoin="round" stroke-width=".4" d="M8.296 55.9c3.1-3.2 14.9-6.1 20 2 5.1 8-1.2 14.7-1.2 14.7s-21.9-13.5-18.8-16.7Z" class="&lt;Path&gt;"/>
              <g class="&lt;Path&gt;">
                <path fill="#BF9469" d="M26.796 56.2s-2.6-3.9-4-4.7c-1.4-.8-3.1-1.6-6.1-1-2.4.5-7.3 1.4-4.7 10.4 2.7 9 8.3 5.1 12.9 4 4.6-1.2 2.1-8.7 2.1-8.7"/>
                <path stroke="#050505" stroke-linecap="round" stroke-linejoin="round" stroke-width=".4" d="M26.796 56.2s-2.6-3.9-4-4.7c-1.4-.8-3.1-1.6-6.1-1-2.4.5-7.3 1.4-4.7 10.4 2.7 9 8.3 5.1 12.9 4 4.6-1.2 2.1-8.7 2.1-8.7"/>
              </g>
              <g class="&lt;Group&gt;">
                <g class="&lt;Path&gt;">
                  <path fill="#050505" d="M10.796 98.8c2.5.5 10.7.8 16.5-2.9 5.8-3.8 5.8-8.1 5.8-8.1s-20.5-1.3-22 1.5"/>
                  <path stroke="#050505" stroke-width=".4" d="M10.796 98.8c2.5.5 10.7.8 16.5-2.9 5.8-3.8 5.8-8.1 5.8-8.1s-20.5-1.3-22 1.5"/>
                </g>
                <g class="&lt;Path&gt;">
                  <path fill="#3D261A" d="M19.396 93.6s10.1.7 14.1-2.4c4.1-3.1 3.5-13.1 2.8-16.6l-27.5 2"/>
                  <path stroke="#050505" stroke-linecap="round" stroke-linejoin="round" stroke-width=".4" d="M19.396 93.6s10.1.7 14.1-2.4c4.1-3.1 3.5-13.1 2.8-16.6l-27.5 2"/>
                </g>
                <g class="&lt;Group&gt;">
                  <path fill="#404041" stroke="#050505" stroke-linecap="round" stroke-linejoin="round" stroke-width=".4" d="M24.496 66.3s-.3 1.5 0 2.7c.2 1.2 2.2 3.4 2.2 3.4l1.8-3.2s-1-2.7-1.9-3.6c-.9-.9-2.1.7-2.1.7Z" class="&lt;Path&gt;"/>
                  <path fill="#050505" d="M25.496 68.9c-.3-1.2 0-2.7 0-2.7s.4-.5.9-.8c-.9-.5-1.9.9-1.9.9s-.3 1.5 0 2.7c.2 1.2 2.2 3.4 2.2 3.4l.5-.8c-.6-.7-1.5-2-1.7-2.7Z" class="&lt;Path&gt;" opacity=".2" style="mix-blend-mode:multiply"/>
                  <path fill="#404041" stroke="#050505" stroke-linecap="round" stroke-linejoin="round" stroke-width=".4" d="M24.296 65.9c.1.4.4.6.8.5l1-.4c.4-.1.6-.5.5-.8l-.3-2.1c-.1-.4-.5-.6-.8-.5l-1.7.5c-.4.1-.6.5-.5.9l1 1.9Z" class="&lt;Path&gt;"/>
                  <path fill="#050505" d="M25.996 63.1s-.4.1-1.1.4c-.7.2-.9 0-.6 1.3.4 1.3 1 1 1.3 1 .3.1-.1.4-.1.4s-.8.3-1 .1c-.1-.2-1.3-2.6-1.3-2.7 0-.1.3-.3.4-.3 0-.1 1.3-.6 1.4-.6h1v.4Z" class="&lt;Path&gt;" opacity=".2" style="mix-blend-mode:multiply"/>
                  <path fill="#F8F9F9" stroke="#050505" stroke-linecap="round" stroke-linejoin="round" stroke-width=".4" d="m25.296 62.1 2.4 2.8s1.6-2.1 1.5-4.1c-.1-2-2.5-5-2.5-5s2.4 3.6-1.4 6.3Zm-2.6 4c.4-.5 1.4-3.5 1.4-3.5s-15.4-3.3-12.9-7.7c.4-.7-4.7.2 1.2 6.3 5.8 6.1 10.3 4.9 10.3 4.9Z" class="&lt;Path&gt;"/>
                </g>
                <path fill="#F8F9F9" stroke="#050505" stroke-linecap="round" stroke-linejoin="round" stroke-width=".4" d="M28.296 58.3s5.3 5.8 7.4 11.9c1.7 5 2 9.5 1.9 17.2 0 3.4-.3 8.4-.6 9.3-2.6 2.5-6.8 3.1-6.8 3.1s-.1-13.7-1.2-20.7c-1.2-7-1.6-8.3-1.6-8.3s1.3-7.7.9-12.5Z" class="&lt;Path&gt;"/>
                <g class="&lt;Path&gt;">
                  <path fill="#F8F9F9" d="M11.796 53.5c-7.9 3.9-7.2 10.9-6.7 19.6.5 8.6 3.3 26.6 4.4 28.6 2 1.1 18.6-1.1 20.7-1.9.4-2.6-.7-13.8-.9-20-.2-6.1-1.4-7.5-1.9-9l-8.7-7.5s-11.1-6.3-7.1-9.6"/>
                  <path stroke="#050505" stroke-linecap="round" stroke-linejoin="round" stroke-width=".4" d="M11.796 53.5c-7.9 3.9-7.2 10.9-6.7 19.6.5 8.6 3.3 26.6 4.4 28.6 2 1.1 18.6-1.1 20.7-1.9.4-2.6-.7-13.8-.9-20-.2-6.1-1.4-7.5-1.9-9l-8.7-7.5s-11.1-6.3-7.1-9.6"/>
                </g>
                <path fill="#050505" d="M5.096 73.1c-.5-8.7-.8-13 3-16.7l2.7 3.4c-2.2 3-2.9 4.9-2.5 11.9.4 7.3 4.4 27.8 5.8 30.3-2.3.2-3.8 0-4.4-.2-1.4-.3-4.1-20.1-4.6-28.7Z" class="&lt;Path&gt;" opacity=".2"/>
                <path fill="#050505" d="M8.096 56.1c.2 1.6 4.3 10.1 5 11.6.2.6.8 1.9 1.4 2.1.8.1 3.4-1.3 3.4-1.3s-.5 2.7-.2 3.3c.4.8 8.6-.3 10.3.5" class="&lt;Path&gt;" opacity=".2"/>
                <g class="&lt;Path&gt;">
                  <path fill="#F8F9F9" d="M8.796 55.5c.2 1.6 3.8 9.2 4.4 10.7.3.6.8 1.9 1.5 2.1.8.1 3.4-1.3 3.4-1.3s-.6 2.7-.2 3.3c.4.8 8.3.5 10 1.3"/>
                  <path stroke="#050505" stroke-linecap="round" stroke-linejoin="round" stroke-width=".4" d="M8.796 55.5c.2 1.6 3.8 9.2 4.4 10.7.3.6.8 1.9 1.5 2.1.8.1 3.4-1.3 3.4-1.3s-.6 2.7-.2 3.3c.4.8 8.3.5 10 1.3"/>
                </g>
                <path fill="#050505" d="M11.896 60.9c.3.8 3.4 5.9 9.4 6.7 6.1.8 8.4-5.3 8.7-6.6 0 0-2.1-8.2-10.7-8.2s-11.3 3.4-11.3 3.4m23.9 8c.5.9 1.4 2.7 1.3 3-.2.3-1.8.9-2.2 1.5.6.2 2.2.6 2.1.8-1.3 1.1-2.5.9-5.1 2.5" class="&lt;Path&gt;" opacity=".2"/>
                <g class="&lt;Path&gt;">
                  <path fill="#F8F9F9" d="M30.996 61.7c.5.8 1.7 4.4 1.6 4.7-.1.3-1.7.9-2.2 1.4.6.3 1.7.4 2.1.9-1.3 1.1-2 1.3-4.6 2.9"/>
                  <path stroke="#050505" stroke-linecap="round" stroke-linejoin="round" stroke-width=".4" d="M30.996 61.7c.5.8 1.7 4.4 1.6 4.7-.1.3-1.7.9-2.2 1.4.6.3 1.7.4 2.1.9-1.3 1.1-2 1.3-4.6 2.9"/>
                </g>
                <g class="&lt;Group&gt;">
                  <path fill="#F8F9F9" stroke="#050505" stroke-linecap="round" stroke-linejoin="round" stroke-width=".4" d="m14.296 84.9 4.1-.2 4.1-.4s.3 4.5.4 5.6c.1 1.2-.8 3.1-4 3.3-3.3.3-4.1-1.7-4.2-2.8-.1-1-.4-5.5-.4-5.5Z" class="&lt;Path&gt;"/>
                  <g class="&lt;Path&gt;">
                    <path fill="#F8F9F9" d="m14.496 87.1 3.9-.2 4.3-.4"/>
                    <path stroke="#050505" stroke-linecap="round" stroke-linejoin="round" stroke-width=".4" d="m14.496 87.1 3.9-.2 4.3-.4"/>
                  </g>
                </g>
                <g class="Clip path group">
                  <mask id="c" width="11" height="42" x="27" y="58" class="c" maskUnits="userSpaceOnUse" style="mask-type:luminance">
                    <g class="cp188">
                      <path fill="#fff" d="M28.306 58.34s4.77 5.74 6.82 11.85c2.43 7.24 2.37 12.03 2.3 17.16-.05 3.57-.45 8.44-.74 9.35-2.6 2.47-6.45 3.13-6.45 3.13s-.17-13.72-1.28-20.71-1.52-8.33-1.52-8.33 1.27-7.69.87-12.45Z" class="Vector"/>
                    </g>
                  </mask>
                  <g class="&lt;Clip Group&gt;" mask="url(#c)">
                    <g class="&lt;Group&gt;">
                      <path fill="#F8F9F9" stroke="#050505" stroke-linecap="round" stroke-linejoin="round" stroke-width=".4" d="m32.296 83.6 4.1-.2 4.1-1.1s.3 5.2.4 6.3c.1 1.2-.2 3.1-3.4 3.3-3.3.2-4.7-1.7-4.8-2.7-.1-1.1-.4-5.6-.4-5.6Z" class="&lt;Path&gt;"/>
                      <g class="&lt;Path&gt;">
                        <path fill="#F8F9F9" d="m32.496 85.8 3.9-.2 4.2-1.1"/>
                        <path stroke="#050505" stroke-linecap="round" stroke-linejoin="round" stroke-width=".4" d="m32.496 85.8 3.9-.2 4.2-1.1"/>
                      </g>
                    </g>
                  </g>
                </g>
                <g class="&lt;Group&gt;">
                  <path fill="#F8F9F9" stroke="#050505" stroke-linecap="round" stroke-linejoin="round" stroke-width=".4" d="M34.596 71.7s-1.8.4-3.2.4c-.333 0-.633-.033-.9-.1 0 0 .2 2.5.2 3.3.1.7.4 2.4 2.6 2.2 0 0 1.7-.2 1.6-1.9-.2-1.6-.3-3.9-.3-3.9Z" class="&lt;Path&gt;"/>
                  <g class="&lt;Path&gt;">
                    <path fill="#FBC432" d="m31.596 71.8.2 2.3h.4l-.2-2.7c-.1-.9-.2-1.7-.7-1.7-.5 0-.5.8-.4 1.8v.4"/>
                    <path stroke="#050505" stroke-linecap="round" stroke-linejoin="round" stroke-width=".4" d="m31.596 71.8.2 2.3h.4l-.2-2.7c-.1-.9-.2-1.7-.7-1.7-.5 0-.5.8-.4 1.8v.4"/>
                  </g>
                  <g class="&lt;Path&gt;">
                    <path fill="#C7C8D0" d="m33.996 71.8-.2 2.4h.5l.1-2.7c.1-1 0-1.8-.5-1.8-.4 0-.6.8-.6 1.7v.4"/>
                    <path stroke="#050505" stroke-linecap="round" stroke-linejoin="round" stroke-width=".4" d="m33.996 71.8-.2 2.4h.5l.1-2.7c.1-1 0-1.8-.5-1.8-.4 0-.6.8-.6 1.7v.4"/>
                  </g>
                  <g class="&lt;Path&gt;">
                    <path fill="#CBB46F" d="m32.796 71.8-.1 2.3h.4l.2-2.6c0-1 0-1.8-.5-1.8-.5-.1-.6.7-.7 1.7v.4"/>
                    <path stroke="#050505" stroke-linecap="round" stroke-linejoin="round" stroke-width=".4" d="m32.796 71.8-.1 2.3h.4l.2-2.6c0-1 0-1.8-.5-1.8-.5-.1-.6.7-.7 1.7v.4"/>
                  </g>
                </g>
                <g class="&lt;Group&gt;">
                  <path fill="#C7C8D0" stroke="#050505" stroke-linecap="round" stroke-linejoin="round" stroke-width=".4" d="M22.896 68.4s3.6.6 6-1.3l-.2.7s-.9.5-2.2.9c-1.4.3-2.4.2-2.4.2l-1.2-.5Z" class="&lt;Path&gt;"/>
                  <g class="&lt;Group&gt;">
                    <path fill="#404041" stroke="#050505" stroke-linecap="round" stroke-width=".4" d="m29.096 84.8-.9.1s-.5-1.9-.5-3.3c-.1-1.3 1.1-4.6 1-6-.1-1.2-1.7-3.2-1.7-3.2h.9s1.6 1.9 1.7 3.2c.1 1.5-1 4.6-1 5.9 0 1.3.5 3.3.5 3.3Z" class="&lt;Path&gt;"/>
                  </g>
                  <path fill="url(#d)" stroke="#050505" stroke-linecap="round" stroke-width=".4" d="M30.696 85.5c.1 1.2-.7 2.2-1.9 2.3-1.2.1-2.2-.8-2.3-2 0-1.1.8-2.1 2-2.2 1.1-.1 2.2.8 2.2 1.9Z" class="&lt;Path&gt;"/>
                  <path fill="#EE3D3A" stroke="#050505" stroke-linecap="round" stroke-linejoin="round" stroke-width=".4" d="M28.796 58.2s2.1 2.8 2 5.4c0 1.3-2.5 7.4-3 7.8-.3.2-.1.6-.1.6l-.6.4-.5-.3s0-.3-.3-.6c-.3-.2-1.3-.9-2.9-1.7-1.4-.8-5.7-3-7.9-4.5-1.9-1.3-7.7-6.8-8-9 0-.3.3-.5.6-.2l.3.7s2.8 4.4 7.6 7.8c2.3 1.6 6.1 3.4 7.3 4.2 1.6 1 2.7 1.8 3.6 2.5h.3s3.1-6.3 3-8.1c-.2-1.8-.9-3-1.3-3.7l-.1-1.3Z" class="&lt;Path&gt;"/>
                  <path fill="#C7C8D0" stroke="#050505" stroke-linecap="round" stroke-linejoin="round" stroke-width=".4" d="M27.696 71.8c-.1.1-.3.2-.6.2s-.5 0-.6-.1c-.1.1-.3.1-.3.3 0 .2.5.5.9.4.1 0 .9-.1.9-.6 0-.1-.1-.2-.3-.2Z" class="&lt;Path&gt;"/>
                </g>
              </g>
            </g>
            <g class="&lt;Group&gt;">
              <g class="&lt;Group&gt;">
                <path fill="#BF9469" stroke="#050505" stroke-linecap="round" stroke-linejoin="round" stroke-width=".4" d="M5.596 91.6c-.7-1.5-.9-2.8-.6-4.4.2-1 1.1-1.7 2.1-2 .4-.2 2.9-1.1 3.7 1.1.2.6.3 1.3.7 1.8.3.4.5.5.6 1.3.1.3-.8 1.1-1.1 1.3-.1-.4-.2-.5-.4-.4-.4.1-.4.6 0 1.5.2.5-.2 1-.2 1l-2-.3s-2.5 0-2.8-.9Z" class="&lt;Path&gt;"/>
                <g class="&lt;Path&gt;">
                  <path fill="#BF9469" d="M11.896 88.6s.3 1 .6 1.9c.2.8.2 1.2.1 1.5-.2.4-.6.6-.9.6-.3 0-.5-.3-.5-.8 0-.6 0-.8-.3-1.4"/>
                  <path stroke="#050505" stroke-linecap="round" stroke-linejoin="round" stroke-width=".4" d="M11.896 88.6s.3 1 .6 1.9c.2.8.2 1.2.1 1.5-.2.4-.6.6-.9.6-.3 0-.5-.3-.5-.8 0-.6 0-.8-.3-1.4"/>
                </g>
                <g class="&lt;Group&gt;">
                  <g class="&lt;Path&gt;">
                    <path fill="#BF9469" d="M7.796 92.9c.1.4-.3.2-.6.3-.3.2-.6.1-.9-.2 0 0-.9-.7-1.4-3.7"/>
                    <path stroke="#050505" stroke-linecap="round" stroke-linejoin="round" stroke-width=".4" d="M7.796 92.9c.1.4-.3.2-.6.3-.3.2-.6.1-.9-.2 0 0-.9-.7-1.4-3.7"/>
                  </g>
                  <g class="&lt;Path&gt;">
                    <path fill="#BF9469" d="M8.396 92.3c.3.6.4.6.5.9.1.3 0 .7-.4.9-.3.1-.5 0-.8-.3 0 0-.5-.3-1.3-2.2"/>
                    <path stroke="#050505" stroke-linecap="round" stroke-linejoin="round" stroke-width=".4" d="M8.396 92.3c.3.6.4.6.5.9.1.3 0 .7-.4.9-.3.1-.5 0-.8-.3 0 0-.5-.3-1.3-2.2"/>
                  </g>
                  <g class="&lt;Path&gt;">
                    <path fill="#BF9469" d="M9.296 92c.5.9.7 1.2.9 1.7.1.3-.1.7-.4.8-.3.2-.6 0-.8-.3 0 0-.5-.3-1.2-2.2"/>
                    <path stroke="#050505" stroke-linecap="round" stroke-linejoin="round" stroke-width=".4" d="M9.296 92c.5.9.7 1.2.9 1.7.1.3-.1.7-.4.8-.3.2-.6 0-.8-.3 0 0-.5-.3-1.2-2.2"/>
                  </g>
                  <g class="&lt;Path&gt;">
                    <path fill="#BF9469" d="M9.096 91.9c.6 1.9 1.1 2.4 1.1 2.4.3.3.5.4.8.3.4-.2.5-.6.4-.9-.5-1.1-1.1-2.4-1.1-2.7"/>
                    <path stroke="#050505" stroke-linecap="round" stroke-linejoin="round" stroke-width=".4" d="M9.096 91.9c.6 1.9 1.1 2.4 1.1 2.4.3.3.5.4.8.3.4-.2.5-.6.4-.9-.5-1.1-1.1-2.4-1.1-2.7"/>
                  </g>
                </g>
                <path fill="#050505" d="M11.696 91.7s.1.1.1-.5c-.1-.6-.5-1.6-.7-1.1-.1.1-.1 0-.2 0l-.1.2c.5.7.4 1 .4 1.5 0 .467.133.733.4.8v-.1c-.4-.8.1-.8.1-.8Z" class="&lt;Path&gt;" opacity=".1"/>
                <path fill="#050505" d="M8.996 92.4s0 1 .9 2.1l.2-.3-1.1-1.8Zm-1.4-.3s0 1 .9 2.1l.2-.3-1.1-1.8Zm-1.4-.3s-.2.5.6 1.5l.5-.2-1.1-1.3Zm-1.2-2s1.1.7 3 .5c2.1-.3 3.1-1.4 3.7-1.3.7.1 0-.9 0-.9l-.9-1.4s-.3-2-2.5-1.9c-2.2.1-3 1.6-3 1.6s-.4 1.6-.3 3.4Z" class="&lt;Path&gt;" opacity=".3"/>
              </g>
              <g class="&lt;Group&gt;">
                <g class="&lt;Group&gt;">
                  <path fill="#F8F9F9" stroke="#050505" stroke-linecap="round" stroke-linejoin="round" stroke-width=".4" d="m4.596 88.5 8.1-.3s-.8-19.4-.9-23.8c-.2-5.1-8.3-4.6-8.1.3.2 4.3.9 23.8.9 23.8Z" class="&lt;Path&gt;"/>
                  <path fill="#050505" d="M9.396 61.1c-.5.2-2.1 1.3-2.1 2.4l.7 24.8-3.3.2-.3-6-.7-18.2c.2-2.9 3.4-4.1 5.7-3.2Z" class="&lt;Path&gt;" opacity=".2"/>
                  <g class="&lt;Path&gt;">
                    <path fill="#F8F9F9" d="m9.796 86.3-5.8.1v-2.2l5.7-.1"/>
                    <path stroke="#050505" stroke-linecap="round" stroke-linejoin="round" stroke-width=".4" d="m9.796 86.3-5.8.1v-2.2l5.7-.1"/>
                  </g>
                </g>
                <path fill="#F8F9F9" stroke="#050505" stroke-linecap="round" stroke-linejoin="round" stroke-width=".4" d="M3.496 85.7c0 .3.2.5.5.5s.6-.2.5-.5c0-.4-.2-.6-.5-.6s-.6.3-.5.6Z" class="&lt;Path&gt;"/>
              </g>
            </g>
            <g class="&lt;Group&gt;">
              <path fill="#BF9469" stroke="#050505" stroke-linecap="round" stroke-width=".4" d="M8.196 46.1c-.1-7.9 1.7-11.2 11.7-11.3 6.5 0 10.6 2.3 11.5 9.7.5 4 1.6 5.6 1.1 10.5-.5 5.4-5.1 9-10.8 9-7.7 0-12.1-7.2-12.6-10.1-.6-2.9-.9-7.8-.9-7.8Z" class="&lt;Path&gt;"/>
              <path fill="#050505" d="M14.596 53.9c-.3-3 2.7-10.7 2.7-10.7-2.8-4.8-2.8-6.5 5.2-8.3-.8-.067-1.667-.1-2.6-.1-10 .1-11.8 3.4-11.7 11.3 0 0 .3 4.9.9 7.8.5 2.9 4.9 10.1 12.6 10.1 1.8 0 3.4-.3 4.9-1-6.5-.8-11.2-3.1-12-9.1Z" class="&lt;Path&gt;" opacity=".2"/>
              <path fill="#3D261A" stroke="#050505" stroke-linecap="round" stroke-linejoin="round" stroke-width=".4" d="m13.596 50.3 1.2-.9s-1.7-3.6 1.5-6c0 0-5.1-3.2-4.2-5.3 1-2 3.5-2.4 3.5-2.4 3-.6 5-.4 7 .7.4.3.9.4.9.4s1.2-.8 1.6-.8c.6 0 5.1 2.4 5.7 5.7 0 0 .1-2.2 0-2.8 0 0-1.2-.4-1.5-1.5-.2-1 .5-1.5.5-1.5s-8.5-6.8-14.4-.7c0 0-4.8-1-7.8 1.3-.4.5-1.3 2.7-1.3 6.5.1 4.5.6 6.1 2 9.6 0 0 2.5-3.4 3.2-3.7.7-.2 2.1 1.4 2.1 1.4Z" class="&lt;Path&gt;"/>
              <g class="&lt;Group&gt;" style="mix-blend-mode:multiply">
                <path stroke="#3D261A" stroke-linecap="round" stroke-linejoin="round" stroke-width=".4" d="M14.296 47.5c-.8.4-1.9.9-2.1 1.6m2.6-4c-3 .9-5.3 2.5-7.4 4.9m8.7-6.6c-3.7.3-6.6 1.7-9.2 4.7m7.3-6.2c-2.3.2-5.9 1.8-7.7 4.3m6.3-5.7c-1.2-.1-5.3.3-6.5 2.5m5.6-4.1c-1.6-.5-4.4.1-5.4 1.6m1.6-3.8c1.4 0 3.2.3 4.1 1.3m-1-2.7c.7.5 1.4.8 1.8 1.6m0-1.8c.6.2 1.1.5 1.3 1m2.2-.7c1.3-1.5 3.9-2.7 6-2.6m-3.3 2.6c.9-1.2 3.8-2.3 5.6-2.1m-3.5 2.6c1.4-1 3.3-1.9 5.1-2.1" class="&lt;Path&gt;"/>
              </g>
              <path stroke="#050505" stroke-linecap="round" stroke-linejoin="round" stroke-width=".4" d="M24.796 36.1c.9-.7 3.1-1.7 5-.2" class="&lt;Path&gt;"/>
              <g class="&lt;Path&gt;">
                <path fill="#BF9469" d="M12.096 49.6c-.5-.9-1.8-1.5-2.9-1-1.1.5-1.6 3 .1 5.3 1.5 2.1 2.2 2.4 2.8 2.3.6-.2.9-1.2.9-1.2"/>
                <path stroke="#050505" stroke-linecap="round" stroke-width=".4" d="M12.096 49.6c-.5-.9-1.8-1.5-2.9-1-1.1.5-1.6 3 .1 5.3 1.5 2.1 2.2 2.4 2.8 2.3.6-.2.9-1.2.9-1.2"/>
              </g>
              <path stroke="#050505" stroke-linecap="round" stroke-linejoin="round" stroke-width=".4" d="M25.096 59.9s.6-1.1 1.6-1c1.1.2 1.6 1 1.6 1.6.1.8-.1 2.2-3.7 3.2" class="&lt;Path&gt;"/>
              <path fill="#DEDFDD" d="M26.596 58.4c.1.1.6-.1.9-.2.3-.1.7-.7.8-.9-.2.2-.6.4-.9.6-.2.1-.5.1-.7.2-.2 0-.2.1-.1.3Z" class="&lt;Path&gt;" style="mix-blend-mode:multiply"/>
              <path fill="#050505" d="M9.596 52.5c-.6-.8-.9-1.9-.4-2.5.4-.7.9-.6 1.2-.3-.7.4-1.1 1.2-.8 2.8Z" class="&lt;Path&gt;" opacity=".2"/>
              <path fill="#050505" d="M12.096 49.6c-.5-.9-1.8-1.5-2.9-1-1.1.5-1.6 3 .1 5.3 1.5 2.1 2.2 2.4 2.8 2.3.6-.2.9-1.2.9-1.2m15.2 5.1c.4.6.9.8 1.6.9l-.6.3c-.2.1-.3.3-.5.4a3.26 3.26 0 0 1-.5.4c-.2.1-.4.3-.6.4.1-.2.3-.4.5-.6l.2-.6c.1-.3.2-.5.2-.8m-3.7-24.4c.133-.067.233-.1.3-.1.6 0 5.1 2.4 5.7 5.7 0 0 .1-2.2 0-2.8 0 0-1.2-.4-1.5-1.5-.2-1 .5-1.5.5-1.5-1.5-1.5-4.1-.5-5 .2Z" class="&lt;Path&gt;" opacity=".2"/>
            </g>
            <path stroke="#050505" stroke-linecap="round" stroke-width=".4" d="M23.396 49.3c.1 0 .2 1.4-2.1 2.3" class="&lt;Path&gt;"/>
            <g class="&lt;Group&gt;">
              <path fill="#FEFEFE" stroke="#050505" stroke-linecap="round" stroke-linejoin="round" stroke-width=".4" d="M31.296 46.9c-.1-.3-.3-1.2-1.8-1.1-1.4.1-1.7 1-1.6 1.5.1.5.6 1 1.8 1 1.2-.1 1.6-1 1.6-1.4Z" class="&lt;Path&gt;"/>
              <g class="&lt;Group&gt;">
                <path fill="#FEFEFE" stroke="#050505" stroke-linecap="round" stroke-linejoin="round" stroke-width=".4" d="M22.696 47.2c0-.4-.3-1.2-1.7-1.1-1.5.1-1.7 1-1.7 1.5.1.4.6 1 1.8.9 1.2 0 1.6-.9 1.6-1.3Z" class="&lt;Path&gt;"/>
              </g>
            </g>
            <g class="&lt;Group&gt;">
              <path fill="#4B2910" stroke="#050505" stroke-width=".4" d="M28.396 47.1c0-.5.4-1 .9-1 .5-.1 1 .3 1 .8.1.6-.3 1-.8 1.1-.6 0-1-.4-1.1-.9Z" class="&lt;Path&gt;"/>
              <g class="&lt;Group&gt;">
                <path fill="#050505" stroke="#050505" stroke-width=".4" d="M28.396 47.1c0-.5.4-1 .9-1 .5-.1 1 .3 1 .8-1.1-.7-1.9.4-1.9.2Z" class="&lt;Path&gt;" opacity=".3"/>
                <path fill="#050505" d="M28.896 47.1c0-.3.2-.5.5-.5.2-.1.4.1.4.4.1.2-.1.5-.4.5-.2 0-.4-.2-.5-.4Z" class="&lt;Path&gt;"/>
                <path fill="#FEFEFE" d="M29.396 46.9c0-.2.1-.3.3-.4.1 0 .3.2.3.3 0 .2-.1.4-.3.4-.2 0-.3-.1-.3-.3Z" class="&lt;Path&gt;"/>
              </g>
            </g>
            <g class="&lt;Group&gt;">
              <path fill="#4B2910" stroke="#050505" stroke-width=".4" d="M19.796 47.4c-.1-.5.3-1 .9-1.1.6 0 1.1.4 1.1 1 0 .5-.4 1-1 1.1-.5 0-1-.4-1-1Z" class="&lt;Path&gt;"/>
              <g class="&lt;Group&gt;">
                <path fill="#050505" stroke="#050505" stroke-width=".4" d="M19.796 47.4c-.1-.5.3-1 .9-1.1.6 0 1.1.4 1.1 1-1.3-.8-2 .3-2 .1Z" class="&lt;Path&gt;" opacity=".3"/>
                <path fill="#050505" d="M20.296 47.4c0-.3.2-.5.4-.5.3-.1.5.1.6.4 0 .3-.2.5-.5.5s-.5-.2-.5-.4Z" class="&lt;Path&gt;"/>
                <path fill="#FEFEFE" d="M20.796 47.2c0-.2.1-.4.3-.4.2 0 .3.2.3.3 0 .2-.1.4-.3.4-.2 0-.3-.1-.3-.3Z" class="&lt;Path&gt;"/>
              </g>
            </g>
            <path fill="#8F6F4F" stroke="#050505" stroke-linecap="round" stroke-linejoin="round" stroke-width=".4" d="M29.496 45.8c-1.1.1-1.5.6-1.6 1.1.1-.1.7-.2 1.7-.3 1-.2 1.6.2 1.6.3 0-.4-.3-1.2-1.7-1.1Z" class="&lt;Path&gt;"/>
            <g class="&lt;Group&gt;">
              <path fill="#DBD2D2" d="M22.396 47s-.1.3.1.5c0 .1.2-.3.2-.3l-.3-.2Z" class="&lt;Path&gt;" style="mix-blend-mode:multiply"/>
              <path fill="#8F6F4F" stroke="#050505" stroke-linecap="round" stroke-linejoin="round" stroke-width=".4" d="M20.996 46.1c-1.2.1-1.6.6-1.7 1.1.1-.1.7-.1 1.7-.3 1.1-.1 1.7.2 1.7.3 0-.4-.3-1.2-1.7-1.1Z" class="&lt;Path&gt;"/>
            </g>
            <path fill="#3D261A" stroke="#050505" stroke-linecap="round" stroke-linejoin="round" stroke-width=".4" d="M31.796 43.4s-.2-1-1.4-1.2c-1.7-.3-2.2 0-2.4.2-.2.5-.2 1.1 0 1.1.4.1 1.3-.8 3.3 0 .5.2.5.2.5-.1Zm-13.8-.2s1.3-1.1 2.8-1.3c1.7-.2 2.8.1 3.2.4.1.4.1 1.1-.1 1.1-.4 0-3.4-.7-5.4 0-.5.1-.9 0-.5-.2Z" class="&lt;Path&gt;"/>
            <path stroke="#050505" stroke-linecap="round" stroke-width=".4" d="M28.096 56.4c-.3.3-1.5.7-2.4.7-2.5 0-4.3-.8-4.6-1.5-.3-.6.2-.8.2-.8" class="&lt;Path&gt;"/>
            <g class="&lt;Path&gt;">
              <path fill="#BF9469" d="M24.596 52s-.9.5-.8 1.2c0 .7.8.8.9.8.4 0 .9-.3 1.2-.2.5.1.7.6 1.4.6.6.1 1.7-.7 1.7-1.6 0-.8-.3-1.2-1.1-2.5-.5-.6-.9-2.3-.9-4"/>
              <path stroke="#050505" stroke-linecap="round" stroke-width=".4" d="M24.596 52s-.9.5-.8 1.2c0 .7.8.8.9.8.4 0 .9-.3 1.2-.2.5.1.7.6 1.4.6.6.1 1.7-.7 1.7-1.6 0-.8-.3-1.2-1.1-2.5-.5-.6-.9-2.3-.9-4"/>
            </g>
          </g>
        </g>
      </g>
    </g>
  </g>
  <defs>
    <radialGradient id="d" cx="0" cy="0" r="1" class="d" gradientTransform="matrix(2.09998 0 0 2.10004 28.596 85.7)" gradientUnits="userSpaceOnUse">
      <stop stop-color="#B3B3B3"/>
      <stop offset="1" stop-color="#919191"/>
    </radialGradient>
    <clipPath id="a" class="a">
      <path fill="#fff" d="M0 0h111v117H0z"/>
    </clipPath>
  </defs>
</svg>
