<svg width="78" height="65" viewBox="0 0 78 65" fill="none" xmlns="http://www.w3.org/2000/svg">
<g clip-path="url(#clip0_239_66684)">
<path d="M69.5 3L7.6001 0L1.90015 55.6L65.9001 59.2L69.5 3Z" fill="#ED4592"/>
<path d="M1.90015 55.6L65.9001 59.2L73.8 64.8L12.2 61.1L1.90015 55.6Z" fill="#AB3878"/>
<path d="M69.5 3L77.9001 11.3L73.8 64.8L65.9001 59.2L69.5 3Z" fill="#7C265A"/>
<mask id="mask0_239_66684" style="mask-type:luminance" maskUnits="userSpaceOnUse" x="65" y="2" width="13" height="63">
<path d="M69.8101 2.97998L77.8801 11.25L73.8101 64.74L65.8601 59.17L69.8101 2.97998Z" fill="white"/>
</mask>
<g mask="url(#mask0_239_66684)">
<path d="M78 -41.5L96.8 54.2" stroke="#ED4592" stroke-width="0.4"/>
<path d="M75.9001 -38L94.7 57.6" stroke="#ED4592" stroke-width="0.4"/>
<path d="M73.8 -34.6L92.5 61.1" stroke="#ED4592" stroke-width="0.4"/>
<path d="M71.7 -31.1L90.4001 64.5" stroke="#ED4592" stroke-width="0.4"/>
<path d="M69.5 -27.7L88.3 68" stroke="#ED4592" stroke-width="0.4"/>
<path d="M67.4001 -24.2L86.2 71.4" stroke="#ED4592" stroke-width="0.4"/>
<path d="M65.3 -20.7L84.1001 74.9" stroke="#ED4592" stroke-width="0.4"/>
<path d="M63.2 -17.3L82 78.3" stroke="#ED4592" stroke-width="0.4"/>
<path d="M61.1001 -13.8L79.8 81.8" stroke="#ED4592" stroke-width="0.4"/>
<path d="M58.9001 -10.4L77.7 85.2" stroke="#ED4592" stroke-width="0.4"/>
<path d="M56.8 -6.90002L75.6001 88.7" stroke="#ED4592" stroke-width="0.4"/>
<path d="M54.7 -3.5L73.5 92.2" stroke="#ED4592" stroke-width="0.4"/>
<path d="M52.6001 0L71.4001 95.6" stroke="#ED4592" stroke-width="0.4"/>
<path d="M50.5 3.40002L69.3 99.1" stroke="#ED4592" stroke-width="0.4"/>
<path d="M48.4001 6.90002L67.1001 102.5" stroke="#ED4592" stroke-width="0.4"/>
<path d="M42 17.2L86.5 -55.3" stroke="#ED4592" stroke-width="0.4"/>
<path d="M42.9001 21.8L87.4001 -50.7" stroke="#ED4592" stroke-width="0.4"/>
<path d="M43.8 26.4L88.3 -46.2" stroke="#ED4592" stroke-width="0.4"/>
<path d="M44.7 30.9L89.2 -41.6" stroke="#ED4592" stroke-width="0.4"/>
<path d="M45.6001 35.5L90.1001 -37.1" stroke="#ED4592" stroke-width="0.4"/>
<path d="M46.5 40L90.9001 -32.5" stroke="#ED4592" stroke-width="0.4"/>
<path d="M47.4001 44.6L91.8 -28" stroke="#ED4592" stroke-width="0.4"/>
<path d="M48.3 49.1L92.7 -23.4" stroke="#ED4592" stroke-width="0.4"/>
<path d="M49.2 53.7L93.6001 -18.9" stroke="#ED4592" stroke-width="0.4"/>
<path d="M50.1001 58.2L94.5 -14.3" stroke="#ED4592" stroke-width="0.4"/>
<path d="M50.9001 62.8L95.4001 -9.69995" stroke="#ED4592" stroke-width="0.4"/>
<path d="M51.8 67.3L96.3 -5.19995" stroke="#ED4592" stroke-width="0.4"/>
<path d="M52.7 71.9L97.2 -0.599976" stroke="#ED4592" stroke-width="0.4"/>
<path d="M53.6001 76.4L98.1001 3.90002" stroke="#ED4592" stroke-width="0.4"/>
<path d="M54.5 81L99 8.5" stroke="#ED4592" stroke-width="0.4"/>
<path d="M55.4001 85.6L99.9001 13" stroke="#ED4592" stroke-width="0.4"/>
<path d="M56.3 90.1L100.8 17.6" stroke="#ED4592" stroke-width="0.4"/>
<path d="M57.2 94.7L101.7 22.1" stroke="#ED4592" stroke-width="0.4"/>
<path d="M58.1001 99.2L102.6 26.7" stroke="#ED4592" stroke-width="0.4"/>
<path d="M59 103.8L103.5 31.2" stroke="#ED4592" stroke-width="0.4"/>
<path d="M59.9001 108.3L104.4 35.8" stroke="#ED4592" stroke-width="0.4"/>
<path d="M60.8 112.9L105.3 40.3" stroke="#ED4592" stroke-width="0.4"/>
</g>
<path d="M60.6001 7.40002L63.3 7.59998L62.5 18.6L59.4001 18.3L60 10.5C59.2667 10.6333 58.6334 10.7334 58.1001 10.8L58.3 7.90002L60.6001 7.40002Z" fill="#050505"/>
<path d="M62.2 6.09998L64.8 6.30005L64 17.2L61 17L61.5 9.19995C60.7667 9.33328 60.1334 9.43333 59.6001 9.5L59.8 6.59998L62.2 6.09998Z" fill="#FEFEFE"/>
<path fill-rule="evenodd" clip-rule="evenodd" d="M14.1001 4.59998C14.9001 4.69998 15.9 4.79998 15.3 7.59998C14.7 10.1 13.8 10.2 12.5 10.1H11.9001L13.2 4.5L14.1001 4.59998ZM13.9001 5.30005L12.9001 9.5C14.1001 9.7 14.3001 8.49998 14.6001 7.59998C14.7001 6.69998 15.2001 5.30005 13.9001 5.30005Z" fill="#FEFEFE"/>
<path d="M16 10.4L15.2 10.3L16.5 4.80005H17.2L16 10.4ZM16.9001 4.59998L16.6001 4.40002L17.5 3.30005L17.9001 3.69995L16.9001 4.59998Z" fill="#FEFEFE"/>
<path fill-rule="evenodd" clip-rule="evenodd" d="M19.3 5V10.6L18.5 10.5V9.40002H17.4001L17 10.4H16.3L18.7 4.90002L19.3 5ZM18.6001 8.09998L18.8 6.09998L17.7 8.90002H18.6001V8.09998Z" fill="#FEFEFE"/>
<path d="M10.8 18.3H10L11.3 12.7L12 12.8L10.8 18.3Z" fill="#FEFEFE"/>
<path d="M13 14.5L12.7 16.4L12.2 18.4H11.5L12.8 12.8L13.5 12.9L13.8 17.2L14.2 14.9L14.6001 13H15.4001L14.1001 18.6L13.4001 18.5L13.1001 14.2L13 14.5Z" fill="#FEFEFE"/>
<path d="M18.1001 13.2L17.9001 13.9L17.1001 13.8L15.9001 18.7L15.2 18.6L16.3 13.7H15.5L15.6001 13L18.1001 13.2Z" fill="#FEFEFE"/>
<path d="M20.3 13.4L20.1001 14L18.9001 13.9L18.5 15.7H19.6001L19.5 16.4L18.3 16.3L17.9001 18.2L19.2 18.3L19 18.9L17 18.8L18.3 13.2L20.3 13.4Z" fill="#FEFEFE"/>
<path fill-rule="evenodd" clip-rule="evenodd" d="M20.7 13.4L21.6001 13.5C22.1001 13.5 23.0001 13.6 22.6001 15C22.5001 15.5 22.2 16.3 21.5 16.3L21.9001 19.1H21.2L20.8 16.3L20.1001 19L19.4001 18.9L20.7 13.4ZM21.8 15.1C22 14.6 22.0001 14.1 21.4001 14.1H21.3L20.9001 15.9C21.4001 16 21.7 15.7 21.8 15.1Z" fill="#FEFEFE"/>
<path d="M23.8 15.3L23.5 17.2L23 19.2L22.3 19.1L23.6001 13.6L24.3 13.7L24.6001 17.9L25 15.7L25.4001 13.7L26.2 13.8L24.9001 19.3H24.2L23.9001 14.9L23.8 15.3Z" fill="#FEFEFE"/>
<path fill-rule="evenodd" clip-rule="evenodd" d="M28.3 13.9L28.2 19.5H27.4001L27.5 18.4L26.4001 18.3L25.9001 19.4L25.2 19.3L27.7 13.9H28.3ZM27.6001 17L27.7 14.9L26.6001 17.7L27.5 17.8L27.6001 17Z" fill="#FEFEFE"/>
<path d="M31.8001 14.9C31.6667 14.8333 31.5001 14.8 31.3001 14.8C30.3001 14.7 29.9001 16.2 29.8001 16.9C29.6001 17.6 29.3002 18.9999 30.4002 19.0999C30.5335 19.0999 30.6667 19.0666 30.8001 19L30.7 19.5999C30.5 19.7333 30.3001 19.7666 30.1001 19.6999C28.5001 19.5999 28.7 18 29 16.9C29.2 15.8 29.8001 13.9999 31.3001 14.0999C31.6001 14.0999 31.7002 14.1 31.9002 14.3L31.8001 14.9Z" fill="#FEFEFE"/>
<path d="M31.8 19.8L31 19.7L32.3 14.2L33.1001 14.3L31.8 19.8Z" fill="#FEFEFE"/>
<path fill-rule="evenodd" clip-rule="evenodd" d="M35.9001 17.3001C35.7001 18.3001 35.2 20.1 33.8 20C32.4 19.9 32.8 18.1 33 17.1C33.2 16.1 33.7 14.2001 35.1 14.3001C36.6 14.4001 36.1001 16.3001 35.9001 17.3001ZM33.8 17.1C33.5 18.3 33.4 19.3001 34 19.3001C34.5 19.4001 34.9 18.4 35.1 17.2C35.4 16 35.5 15.1 35 15C34.4 15 34.1 16 33.8 17.1Z" fill="#FEFEFE"/>
<path d="M37.4001 16.2L37.1001 18.1L36.6001 20.1H35.9001L37.1001 14.6H37.8L38.2 18.9L38.5 16.7L39 14.7H39.7L38.4001 20.3L37.8 20.2L37.4001 15.9V16.2Z" fill="#FEFEFE"/>
<path fill-rule="evenodd" clip-rule="evenodd" d="M41.8 14.9L41.7 20.5L41 20.4V19.3H39.9001L39.5 20.3H38.7L41.2 14.8L41.8 14.9ZM41.1001 18L41.3 16L40.2 18.8H41.1001V18Z" fill="#FEFEFE"/>
<path d="M44.1001 15L42.9001 19.9L44.2 20L44 20.7L42 20.5L43.3 15H44.1001Z" fill="#FEFEFE"/>
<path fill-rule="evenodd" clip-rule="evenodd" d="M47.8 15.3C48.6 15.4 49.6 15.5 49 18.3C48.4 20.8 47.5 20.9 46.2 20.8H45.7L46.9001 15.2L47.8 15.3ZM47.6001 16L46.6001 20.2C47.8001 20.4 48 19.2 48.3 18.3C48.4 17.4 48.9001 16 47.6001 16Z" fill="#FEFEFE"/>
<path d="M52.2 15.6L52 16.2H50.8L50.4001 17.9L51.5 18L51.4001 18.6L50.2 18.5L49.8 20.4L51.1001 20.5L50.9001 21.1L48.9001 21L50.2 15.5L52.2 15.6Z" fill="#FEFEFE"/>
<path d="M53.3 15.7L52.2 20.6L53.4001 20.7L53.3 21.3L51.3 21.2L52.6001 15.6L53.3 15.7Z" fill="#FEFEFE"/>
<path fill-rule="evenodd" clip-rule="evenodd" d="M27 46.2C26.6 46.5333 26.1334 46.6666 25.6001 46.6H24.7L25.3 43H26.3C26.8334 43.0667 27.2333 43.2666 27.5 43.6C27.7 43.9333 27.7666 44.3667 27.7 44.9C27.5666 45.4334 27.3333 45.8666 27 46.2ZM25.7 43.5L25.2 46.1L25.7 46.2C26.1 46.2 26.4333 46.0667 26.7 45.8C26.9666 45.6 27.1333 45.3 27.2 44.9C27.2666 44.5 27.2 44.1667 27 43.9C26.8667 43.6334 26.6 43.5 26.2 43.5H25.7Z" fill="#FEFEFE"/>
<path d="M29 44.1L28.5 46.8L28 46.7L28.5 44.1H29ZM29 43.8L28.5 43.7L29 43.1H29.6001L29 43.8Z" fill="#FEFEFE"/>
<path fill-rule="evenodd" clip-rule="evenodd" d="M31.0001 46.9V46.6C30.9334 46.7333 30.8334 46.8 30.7001 46.8C30.5667 46.8667 30.4669 46.9 30.4003 46.9C30.3336 46.9 30.2667 46.9 30.2001 46.9C29.8001 46.9 29.5336 46.7666 29.4003 46.5C29.2669 46.2333 29.2335 45.9 29.3002 45.5C29.4335 45.1 29.6002 44.7666 29.8002 44.5C30.0668 44.2333 30.3667 44.1333 30.7001 44.1999C30.7667 44.1999 30.8336 44.1999 30.9003 44.1999C30.9669 44.1999 31.0667 44.2334 31.2001 44.3C31.2667 44.3667 31.3336 44.4666 31.4003 44.6L31.5001 44.3H31.9003L31.5001 46.9H31.0001ZM31.2001 45.6C31.3334 45 31.1667 44.6999 30.7001 44.6999C30.2334 44.6333 29.9335 44.9 29.8002 45.5C29.7335 46.1666 29.9002 46.5 30.3002 46.5C30.7668 46.5 31.0667 46.2 31.2001 45.6Z" fill="#FEFEFE"/>
<path fill-rule="evenodd" clip-rule="evenodd" d="M35.0001 47.1V46.8C34.9334 46.9334 34.8334 47 34.7001 47C34.5667 47.0667 34.4669 47.1 34.4003 47.1C34.3336 47.1 34.2667 47.1 34.2001 47.1C33.8001 47.1 33.5336 46.9666 33.4003 46.7C33.2669 46.4333 33.2335 46.1 33.3002 45.7C33.4335 45.3 33.6002 44.9666 33.8002 44.7C34.0668 44.4333 34.3667 44.3334 34.7001 44.4C34.7667 44.4 34.8336 44.4 34.9003 44.4C34.9669 44.4 35.0667 44.4333 35.2001 44.5C35.2667 44.5667 35.3336 44.6667 35.4003 44.8L35.7001 43.4H36.2001L35.5001 47.1H35.0001ZM35.2001 45.8C35.3334 45.2 35.1667 44.9 34.7001 44.9C34.2334 44.8334 33.9335 45.1334 33.8002 45.8C33.7335 46.4 33.9002 46.7 34.3002 46.7C34.7668 46.7 35.0667 46.4 35.2001 45.8Z" fill="#FEFEFE"/>
<path fill-rule="evenodd" clip-rule="evenodd" d="M38.6002 46.2L36.8002 46.1C36.7335 46.5666 36.9336 46.8 37.4003 46.8C37.5336 46.8 37.7003 46.7666 37.9003 46.7L38.1002 47.1C37.9002 47.2333 37.6335 47.3 37.3002 47.3C36.9002 47.3 36.6334 47.1667 36.5001 46.9C36.3001 46.6334 36.2335 46.3 36.3002 45.9C36.4335 45.5 36.6002 45.1667 36.8002 44.9C37.0668 44.6334 37.4002 44.5 37.8002 44.5C38.1335 44.5667 38.3668 44.7333 38.5001 45C38.7001 45.2667 38.7667 45.6 38.7001 46L38.6002 46.2ZM36.8002 45.7H38.1002C38.1669 45.2333 38.0002 45 37.6002 45C37.2002 45 36.9335 45.2333 36.8002 45.7Z" fill="#FEFEFE"/>
<path d="M40 47.4L40.7 43.7H41.2L40.5 47.4H40Z" fill="#FEFEFE"/>
<path fill-rule="evenodd" clip-rule="evenodd" d="M42.9999 47.5L43.1 47.2C42.9667 47.3333 42.8332 47.4333 42.6999 47.5C42.5665 47.5 42.4667 47.5333 42.4001 47.6C42.3334 47.6 42.2665 47.6 42.1999 47.6C41.8665 47.5333 41.6333 47.3666 41.4999 47.1C41.3666 46.8333 41.3334 46.5 41.4001 46.1C41.4667 45.7 41.6 45.3666 41.8 45.1C42.0666 44.9 42.3665 44.8 42.6999 44.8C42.8332 44.8 42.9333 44.8 42.9999 44.8C43.0666 44.8 43.1332 44.8334 43.1999 44.9C43.2665 44.9667 43.3334 45.0666 43.4001 45.2L43.4999 44.9H43.9999L43.4999 47.6L42.9999 47.5ZM43.1999 46.1C43.3332 45.5 43.1665 45.2 42.6999 45.2C42.2332 45.2 41.9667 45.5 41.9001 46.1C41.7667 46.7 41.9334 47 42.4001 47C42.8667 47.0667 43.1332 46.7666 43.1999 46.1Z" fill="#FEFEFE"/>
<path d="M9.69992 51.3C9.49992 50.9 9.46674 50.4334 9.60007 49.9C9.66674 49.3667 9.86659 48.9333 10.1999 48.6C10.5333 48.2666 10.9666 48.1 11.5 48.1C12.3 48.1666 12.6999 48.6333 12.6999 49.5L12.1999 49.4C12.0999 48.9 11.9001 48.6 11.4001 48.6C11.0668 48.6 10.7666 48.7333 10.5 49C10.3 49.2 10.1667 49.5 10.1001 49.9C10.0334 50.3667 10.0666 50.7333 10.1999 51C10.2666 51.2667 10.5001 51.4 10.9001 51.4C11.4001 51.4 11.7001 51.2 11.9001 50.7H12.5C12.1666 51.5 11.6 51.9 10.8 51.9C10.3334 51.8334 9.96659 51.6334 9.69992 51.3Z" fill="#FEFEFE"/>
<path fill-rule="evenodd" clip-rule="evenodd" d="M14.5001 49.3C14.8334 49.3 15.1002 49.4333 15.3002 49.6999C15.4335 49.9666 15.4669 50.2999 15.4003 50.6999C15.3336 51.0999 15.1669 51.4333 14.9003 51.6999C14.6336 51.9666 14.3003 52.0667 13.9003 52C13.5669 52 13.3002 51.8666 13.1002 51.6C12.9669 51.3333 12.9334 51 13.0001 50.6C13.0668 50.2 13.2334 49.8666 13.5001 49.6C13.7668 49.3333 14.1001 49.2334 14.5001 49.3ZM14.9003 50.6999C15.0003 50.0999 14.9003 49.7999 14.4003 49.6999C13.9336 49.6999 13.6334 50 13.5001 50.6C13.4001 51.2 13.5001 51.5 14.0001 51.6C14.4668 51.6 14.7669 51.2999 14.9003 50.6999Z" fill="#FEFEFE"/>
<path d="M17.4001 52.1L17.7 50.7C17.7666 50.1666 17.6334 49.9 17.3 49.9C17.1 49.9 16.9 50 16.8 50.2C16.6667 50.3333 16.6001 50.5 16.6001 50.7L16.3 52.1H15.8L16.3 49.4L16.8 49.5L16.7 49.8C16.9 49.5334 17.1667 49.4 17.5 49.4C17.9 49.4 18.1 49.6 18.2 49.8C18.2 49.8667 18.2 49.9666 18.2 50.1C18.2 50.3 18.2 50.4 18.2 50.5L17.9001 52.2L17.4001 52.1Z" fill="#FEFEFE"/>
<path d="M18.8 51.6C18.8667 51.6666 18.9333 51.7334 19 51.8C19.0667 51.8 19.1333 51.8 19.2 51.8L19.3 51.9C19.6334 51.9 19.8335 51.8 19.9001 51.6C19.9001 51.4 19.8001 51.3 19.6001 51.2C19.5334 51.2 19.4334 51.1666 19.3 51.1C19.1667 51.0333 19.0667 50.9667 19 50.9C18.9333 50.9 18.8667 50.8333 18.8 50.7C18.7334 50.5666 18.7334 50.4334 18.8 50.3C18.8 50.1 18.9001 49.9 19.1001 49.7C19.3001 49.5666 19.5334 49.5 19.8 49.5C20.1334 49.5667 20.3667 49.7 20.5 49.9L20.2 50.2H20.1001C20.1001 50.1333 20.0335 50.0667 19.9001 50C19.9001 50 19.8333 50 19.7 50C19.5 50 19.3667 50.1 19.3 50.3C19.2 50.6 19.7 50.7 20 50.9C20.1333 50.9667 20.2334 51.0666 20.3 51.2C20.3667 51.2666 20.4001 51.4 20.4001 51.6C20.3335 51.8 20.2334 51.9666 20.1001 52.1C19.9001 52.2333 19.6334 52.3 19.3 52.3C18.9 52.3 18.7001 52.1 18.6001 52C18.5334 51.9333 18.4668 51.8667 18.4001 51.8L18.8 51.6Z" fill="#FEFEFE"/>
<path d="M22.2 52.4C22.1333 52.4 22.0335 52.4 21.9001 52.4C21.8335 52.4 21.7666 52.4 21.7 52.4C21.7 52.3334 21.6333 52.3 21.5 52.3C21.4333 52.2334 21.3667 52.1666 21.3 52.1C21.2 52 21.1 51.7 21.2 51.3L21.4001 50.2L20.9001 50.1L21 49.7H21.5L21.7 48.8L22.2 48.7L22 49.7L22.7 49.8L22.6001 50.2H21.9001L21.7 51.4C21.6333 51.7334 21.8 51.9 22.2 51.9C22.2 51.9 22.2334 51.9 22.3 51.9L22.2 52.4Z" fill="#FEFEFE"/>
<path d="M22.8 52.4L23.3 49.8H23.8L23.3 52.4H22.8ZM23.5 49C23.5667 48.9333 23.6333 48.9 23.7 48.9C23.9 48.9 24 49 24 49.2C24 49.4 23.8001 49.5 23.6001 49.5C23.5001 49.5 23.3001 49.4 23.4001 49.2C23.4001 49.0666 23.4333 49 23.5 49Z" fill="#FEFEFE"/>
<path d="M25.5 52.6C25.4333 52.6 25.3333 52.5667 25.2 52.5C25.1333 52.5 25.0667 52.5 25 52.5C25 52.5 24.9668 52.5 24.9001 52.5C24.7668 52.4333 24.6668 52.3667 24.6001 52.3C24.5001 52.2 24.5 51.9 24.5 51.5L24.8 50.3H24.3V49.9H24.8L25 48.9L25.5 48.8L25.3 49.9H26L25.9001 50.4H25.3L25 51.6C24.9333 51.9333 25.1 52.1 25.5 52.1C25.5667 52.1 25.6001 52.1 25.6001 52.1L25.5 52.6Z" fill="#FEFEFE"/>
<path d="M28.4 51.5C28.2667 52.3667 27.8333 52.7666 27.1 52.7C26.4333 52.7 26.1666 52.2667 26.2999 51.4L26.6 50H27.1L26.7999 51.5C26.7333 51.9667 26.8665 52.2334 27.1998 52.3C27.5998 52.3 27.8334 52.0333 27.9 51.5L28.1998 50.1H28.6998L28.4 51.5Z" fill="#FEFEFE"/>
<path d="M29.1999 52.4C29.0665 52.1334 29.0334 51.8 29.1 51.4C29.1667 51 29.3334 50.6667 29.6 50.4C29.8 50.2 30.0999 50.1 30.4999 50.1C31.0999 50.1666 31.4333 50.5 31.4999 51.1L30.9001 51C30.9001 50.7 30.8001 50.6 30.4001 50.6C30.0001 50.5 29.7 50.9 29.6 51.4C29.5 52 29.6 52.4 30.1 52.4C30.4 52.4 30.6 52.3 30.8 52H31.3C31.0333 52.6 30.5999 52.9 29.9999 52.9C29.5999 52.8334 29.3332 52.6667 29.1999 52.4Z" fill="#FEFEFE"/>
<path d="M31.7 52.9L32.2 50.3H32.7L32.2 52.9H31.7ZM32.4001 49.4C32.4668 49.3334 32.5334 49.3 32.6001 49.3C32.8001 49.4 32.9001 49.5 32.9001 49.7C32.8001 49.8 32.7 50 32.5 50C32.3 50 32.2 49.8 32.3 49.7C32.3 49.5666 32.3335 49.4667 32.4001 49.4Z" fill="#FEFEFE"/>
<path fill-rule="evenodd" clip-rule="evenodd" d="M34.4999 50.3C34.8999 50.3 35.2001 50.4667 35.4001 50.8C35.5334 51.0667 35.5666 51.4 35.4999 51.8C35.4333 52.2 35.2666 52.5 34.9999 52.7C34.7333 52.9666 34.3999 53.1 33.9999 53.1C33.5999 53.0333 33.3332 52.8666 33.1999 52.6C33.0665 52.3333 33.0334 52 33.1 51.6C33.1667 51.2 33.3334 50.9 33.6 50.7C33.8667 50.4333 34.1666 50.3 34.4999 50.3ZM34.9999 51.7C35.0999 51.2 34.8999 50.8 34.4999 50.8C33.9666 50.7334 33.6667 51.0333 33.6 51.7C33.5 52.2 33.6 52.6 34.1 52.6C34.5667 52.6 34.8666 52.3 34.9999 51.7ZM34.8 50H34.4001L34.8 49.4H35.4001L34.8 50Z" fill="#FEFEFE"/>
<path d="M37.5 53.2L37.8 51.7C37.8667 51.2333 37.7335 50.9667 37.4001 50.9C37.2001 50.9 36.9 51 36.8 51.2C36.7334 51.4 36.6668 51.5666 36.6001 51.7L36.4001 53.1H35.9001L36.4001 50.5H36.9001L36.8 50.8C37 50.6 37.2668 50.5 37.6001 50.5C37.9001 50.5 38.2 50.7 38.2 50.8C38.2666 50.9334 38.3 51.0333 38.3 51.1C38.3 51.4 38.3 51.5 38.3 51.5L38 53.2H37.5Z" fill="#FEFEFE"/>
<path d="M41.9001 52.5L42.4001 49.8L42.9001 49.9L42.3 53.4H41.8L40.7 50.7L40.2 53.3H39.7L40.3 49.7H40.8L41.9001 52.5Z" fill="#FEFEFE"/>
<path fill-rule="evenodd" clip-rule="evenodd" d="M44.8 53.6V53.3C44.7333 53.3667 44.6333 53.4333 44.4999 53.5C44.3666 53.5667 44.2665 53.6 44.1999 53.6C44.1332 53.6 44.0666 53.6 43.9999 53.6C43.5999 53.6 43.3332 53.4666 43.1999 53.2C43.0665 52.9333 43.0334 52.6 43.1 52.2C43.2334 51.8 43.4 51.4666 43.6 51.2C43.8667 50.9333 44.1666 50.8 44.4999 50.8C44.5666 50.8 44.6332 50.8334 44.6999 50.9C44.7665 50.9 44.8666 50.9333 44.9999 51C45.0666 51.0667 45.1332 51.1667 45.1999 51.3L45.3 50.9L45.8 51L45.3 53.6H44.8ZM44.9999 52.3C45.1333 51.7 44.9666 51.3667 44.4999 51.3C44.0333 51.3 43.7334 51.6 43.6 52.2C43.5334 52.8 43.7 53.1333 44.1 53.2C44.5667 53.2 44.8666 52.9 44.9999 52.3Z" fill="#FEFEFE"/>
<path d="M46.3002 53.3C46.1002 53.0334 46.0335 52.7 46.1002 52.3C46.2335 51.9 46.4002 51.5667 46.6002 51.3C46.8669 51.1 47.2002 51 47.6002 51C48.2002 51 48.5001 51.3333 48.5001 52L48.0001 51.9C48.0001 51.6 47.8001 51.5 47.5001 51.5C47.0001 51.4 46.7002 51.8 46.6002 52.3C46.5002 52.9 46.7002 53.3 47.1002 53.3C47.5002 53.3 47.7002 53.2 47.8002 52.9H48.4003C48.1336 53.5 47.7002 53.8 47.1002 53.8C46.7002 53.7334 46.4335 53.5667 46.3002 53.3Z" fill="#FEFEFE"/>
<path d="M48.8 53.8L49.3 51.2H49.8L49.3 53.8H48.8ZM49.5 50.3C49.5667 50.2334 49.6333 50.2 49.7 50.2C49.9 50.2 50.0001 50.4 49.9001 50.6C49.9001 50.7 49.7001 50.9 49.6001 50.9C49.4001 50.9 49.3 50.7 49.3 50.5C49.3667 50.4333 49.4333 50.3667 49.5 50.3Z" fill="#FEFEFE"/>
<path fill-rule="evenodd" clip-rule="evenodd" d="M51.6002 51.2C52.0002 51.2 52.2669 51.3333 52.4003 51.6C52.6003 51.9333 52.6669 52.3 52.6002 52.7C52.4669 53.0333 52.2668 53.3333 52.0001 53.6C51.8001 53.8666 51.5002 54 51.1002 54C50.7002 53.9333 50.4335 53.7667 50.3002 53.5C50.1002 53.2333 50.0335 52.9 50.1002 52.5C50.2335 52.1 50.4334 51.8 50.7001 51.6C50.9001 51.3333 51.2002 51.2 51.6002 51.2ZM52.1002 52.6C52.2002 52.1 52.0001 51.7 51.5001 51.7C51.0334 51.6333 50.7335 51.9333 50.6002 52.6C50.5002 53.1 50.7001 53.5 51.2001 53.5C51.6667 53.5 51.9669 53.2 52.1002 52.6Z" fill="#FEFEFE"/>
<path d="M54.5 54.1L54.8 52.6C54.9334 52.1333 54.8333 51.8667 54.5 51.8C54.2 51.8 54.0001 51.9 53.9001 52.1C53.7668 52.3 53.7 52.4666 53.7 52.6L53.4001 54H52.9001L53.4001 51.4H53.9001V51.6999C54.1001 51.4333 54.3666 51.3333 54.7 51.4C55 51.4 55.2 51.5999 55.3 51.6999C55.3667 51.8333 55.4001 51.9333 55.4001 52C55.4001 52.3 55.4001 52.4 55.4001 52.4L55 54.1H54.5Z" fill="#FEFEFE"/>
<path fill-rule="evenodd" clip-rule="evenodd" d="M57.5 54.2V53.9C57.4333 54.0334 57.3333 54.1333 57.1999 54.2C57.0666 54.2666 56.9668 54.3 56.9001 54.3C56.8335 54.3 56.7666 54.3 56.6999 54.3C56.3666 54.2334 56.1333 54.0667 56 53.8C55.8 53.5334 55.7668 53.2 55.9001 52.8C55.9668 52.4 56.1 52.0667 56.3 51.8C56.5667 51.6 56.8666 51.5 57.1999 51.5C57.3333 51.5 57.4333 51.5 57.5 51.5C57.5666 51.5 57.6333 51.5333 57.6999 51.6C57.7666 51.6666 57.8335 51.7667 57.9001 51.9L58 51.6H58.5L58 54.3L57.5 54.2ZM57.6999 52.9C57.8333 52.2334 57.6666 51.9 57.1999 51.9C56.7333 51.9 56.4668 52.2 56.4001 52.8C56.2668 53.4 56.4335 53.7 56.9001 53.7C57.3668 53.7666 57.6333 53.5 57.6999 52.9Z" fill="#FEFEFE"/>
<path d="M58.7 54.3L59.4001 50.6H59.9001L59.2 54.3H58.7Z" fill="#FEFEFE"/>
<path d="M33 30.1L33.1001 32L33.3 31.5L33.9001 30.2H34.5L33.3 32.4L32.9001 34.1H32.3L32.7 32.4L32.4001 30.1H33Z" fill="#FEFEFE"/>
<path d="M36.2 30.3L35.4001 33.8L36.3 33.9L36.2 34.4L34.8 34.3L35.7 30.3H36.2Z" fill="#FEFEFE"/>
<path fill-rule="evenodd" clip-rule="evenodd" d="M38.6001 30.5L38.5 34.5H38V33.7L37.2 33.6L36.9001 34.4H36.4001L38.1001 30.5H38.6001ZM38.1001 32.7L38.2 31.2L37.5 33.2L38.1001 33.3V32.7Z" fill="#FEFEFE"/>
<path d="M72.8 30.8L3.40015 25.9L4.1001 21.5L73.3 26.4L72.8 30.8Z" fill="#1C78BD"/>
<path d="M6.90015 22.6L5 22.4L5.40015 20.5L11.3 20.9L10.9001 22.8L9 22.7L7.90015 27.6L5.90015 27.5L6.90015 22.6Z" fill="#FEFEFE"/>
<path fill-rule="evenodd" clip-rule="evenodd" d="M16.3 28.2L13.8 28L12.8 26.2H12.6001L12.2 27.9L10.2 27.8L11.6001 20.9L14.4001 21.1C14.5001 21.2 14.6 21.2 15 21.2C15.3 21.3 15.6 21.5 16 21.7C16.3 22 16.6 22.4 16.7 22.9C16.7 23.2334 16.6668 23.5667 16.6001 23.9C16.4001 24.8334 15.8667 25.5 15 25.9L16.3 28.2ZM13.3 23L13 24.3L13.8 24.4C14.2 24.4 14.4333 24.2 14.5 23.8C14.6 23.4 14.4001 23.1 14.1001 23.1L13.3 23Z" fill="#FEFEFE"/>
<path fill-rule="evenodd" clip-rule="evenodd" d="M22.2 21.7L23.3 28.7L21 28.5L20.9001 27.8L18.7 27.6L18.3 28.3L16.1001 28.2L20.1001 21.5L22.2 21.7ZM19.8 25.8L20.7 25.9L20.6001 24.4L19.8 25.8Z" fill="#FEFEFE"/>
<path fill-rule="evenodd" clip-rule="evenodd" d="M23.4001 28.7L24.9001 21.9L27.9001 22.1C27.9668 22.1 28.0334 22.1 28.1001 22.1C28.2334 22.1 28.4001 22.1667 28.6001 22.3C28.8668 22.3667 29.1 22.4666 29.3 22.6C29.4334 22.7333 29.5666 22.9333 29.7 23.2C29.8333 23.4666 29.8667 23.7666 29.8 24.1C29.6667 24.6333 29.4 25.0667 29 25.4C29.4 25.8 29.5335 26.3 29.4001 26.9C29.1335 28.3667 28.0334 29.0334 26.1001 28.9L23.4001 28.7ZM25.9001 26.9H26.8C27.0667 26.9667 27.2334 26.8666 27.3 26.6C27.3 26.4 27.1668 26.2666 26.9001 26.2H26.1001L25.9001 26.9ZM26.3 24.6L27.2 24.7C27.3 24.7 27.5001 24.6 27.6001 24.4C27.6001 24.1 27.4 24 27.3 24L26.5 23.9L26.3 24.6Z" fill="#FEFEFE"/>
<path fill-rule="evenodd" clip-rule="evenodd" d="M34.9001 22.6L36 29.5L33.7 29.4L33.6001 28.7L31.4001 28.5L31 29.2L28.8 29L32.8 22.4L34.9001 22.6ZM32.5 26.7L33.4001 26.8L33.3 25.3L32.5 26.7Z" fill="#FEFEFE"/>
<path d="M35.9001 28L37.7 27.2C37.9 27.6666 38.1335 27.9 38.4001 27.9C38.7335 27.9 38.9333 27.7667 39 27.5L40 22.9L42 23.1L41 27.9C40.8667 28.4334 40.5333 28.9 40 29.3C39.4 29.7 38.7333 29.8667 38 29.8C37.4 29.8 36.8 29.5 36.5 29.1C36.2 28.8 36.0001 28.4 35.9001 28.2V28Z" fill="#FEFEFE"/>
<path fill-rule="evenodd" clip-rule="evenodd" d="M46.8 23.4L47.9001 30.4L45.6001 30.2V29.5L43.3 29.3L42.9001 30L40.7 29.9L44.7 23.2L46.8 23.4ZM44.4001 27.5L45.3 27.6L45.2 26.1L44.4001 27.5Z" fill="#FEFEFE"/>
<path fill-rule="evenodd" clip-rule="evenodd" d="M48 30.4L49.5 23.6L52.2 23.8C53.2 23.8667 53.9667 24.2334 54.5 24.9C54.9667 25.5667 55.1001 26.4 54.9001 27.4C54.7001 28.4 54.2333 29.2 53.5 29.8C52.7 30.4 51.8 30.6666 50.8 30.6L48 30.4ZM51.1001 25.6L50.4001 28.6H51.1001C51.5001 28.6666 51.8666 28.5667 52.2 28.3C52.4666 28.0334 52.6333 27.7 52.7 27.3C52.8333 26.8334 52.8001 26.4666 52.6001 26.2C52.4668 25.8666 52.2 25.7 51.8 25.7L51.1001 25.6Z" fill="#FEFEFE"/>
<path fill-rule="evenodd" clip-rule="evenodd" d="M59.6001 24.1999C60.6001 24.2666 61.3668 24.6667 61.9002 25.4C62.4335 26.1333 62.6002 26.9667 62.4002 27.9C62.2002 28.9 61.7002 29.7333 60.9002 30.4C60.0335 31 59.1001 31.2666 58.1001 31.1999C57.0335 31.1333 56.2333 30.7333 55.7 30C55.1666 29.2667 55 28.4 55.2 27.4C55.4 26.4667 55.9334 25.6667 56.8001 25C57.6001 24.4 58.5335 24.1333 59.6001 24.1999ZM58.5 29.3C58.9 29.3 59.2668 29.1667 59.6001 28.9C60.0001 28.6333 60.2334 28.2667 60.3001 27.8C60.3667 27.3334 60.3001 26.9333 60.1001 26.6C59.9001 26.2666 59.6 26.1 59.2 26.1C58.7333 26.0333 58.3334 26.1667 58 26.5C57.6667 26.7667 57.4334 27.1333 57.3001 27.6C57.2334 28.0666 57.3 28.4667 57.5 28.8C57.7667 29.1334 58.1 29.3 58.5 29.3Z" fill="#FEFEFE"/>
<path fill-rule="evenodd" clip-rule="evenodd" d="M68.4001 31.8L65.9001 31.6L64.8 29.8H64.6001L64.3 31.5L62.2 31.4L63.6001 24.6L66.5 24.8C66.5 24.8 66.6 24.8 67 24.9C67.4 25 67.7 25.1 68 25.4C68.4 25.6 68.6 26 68.7 26.6C68.7666 26.8666 68.7666 27.1667 68.7 27.5C68.5 28.4333 67.9668 29.1 67.1001 29.5L68.4001 31.8ZM65.3 26.6L65 27.9L65.8 28C66.2 28 66.4333 27.8 66.5 27.4C66.6 27 66.4001 26.7 66.1001 26.7L65.3 26.6Z" fill="#FEFEFE"/>
<path d="M75.4001 43.1L0 38.1L0.699951 33.8L75.9001 38.8L75.4001 43.1Z" fill="#1C78BD"/>
<path d="M3.5 34.8L1.6001 34.6L2 32.7L7.90015 33.1L7.5 35L5.6001 34.9L4.6001 39.8L2.5 39.6L3.5 34.8Z" fill="#FEFEFE"/>
<path fill-rule="evenodd" clip-rule="evenodd" d="M13 40.3L10.5 40.1L9.40015 38.3H9.19995L8.90015 40L6.80005 39.9L8.19995 33.1L11 33.3C11.1 33.3 11.2001 33.3 11.6001 33.4C11.9001 33.5 12.2001 33.6 12.6001 33.9C13.0001 34.1 13.2 34.5 13.3 35C13.3 35.3333 13.2666 35.6667 13.2 36C13.0666 36.9333 12.5666 37.6 11.7 38L13 40.3ZM9.90015 35.2L9.6001 36.4L10.4001 36.5C10.8001 36.5 11.0334 36.3 11.1001 35.9C11.2001 35.5 11 35.2 10.7 35.2H9.90015Z" fill="#FEFEFE"/>
<path fill-rule="evenodd" clip-rule="evenodd" d="M18.8 33.7L19.9001 40.7L17.7 40.6L17.6001 39.8L15.4001 39.7L15 40.4L12.8 40.3L16.7 33.6L18.8 33.7ZM16.4001 37.8L17.4001 37.9L17.2 36.4L16.4001 37.8Z" fill="#FEFEFE"/>
<path fill-rule="evenodd" clip-rule="evenodd" d="M20.1001 40.7L21.5 33.9L24.5 34.1C24.5667 34.1 24.6333 34.1 24.7 34.1C24.8333 34.1 25.0334 34.1333 25.3 34.2C25.5 34.3333 25.7001 34.4666 25.9001 34.6C26.1001 34.7333 26.2334 34.9333 26.3 35.2C26.4334 35.4666 26.4668 35.7666 26.4001 36.1C26.2668 36.6333 26.0001 37.0667 25.6001 37.4C26.0668 37.8 26.2334 38.3 26.1001 38.9C25.8334 40.3 24.7334 40.9667 22.8 40.9L20.1001 40.7ZM22.5 38.9H23.4001C23.7335 38.9667 23.9001 38.8666 23.9001 38.6C23.9668 38.4 23.8668 38.2666 23.6001 38.2H22.7L22.5 38.9ZM23 36.6L23.8 36.7C23.9 36.7 24.1 36.6 24.2 36.3C24.2 36.1 24.1 36 24 35.9H23.1001L23 36.6Z" fill="#FEFEFE"/>
<path fill-rule="evenodd" clip-rule="evenodd" d="M31.5 34.5L32.6001 41.5L30.4001 41.3L30.3 40.6L28.1001 40.5L27.7 41.2L25.5 41L29.4001 34.4L31.5 34.5ZM29.1001 38.6H30.1001L29.9001 37.2L29.1001 38.6Z" fill="#FEFEFE"/>
<path d="M32.5 39.9L34.3 39.1C34.5 39.5666 34.7333 39.8 35 39.8C35.4 39.8 35.6333 39.6667 35.7 39.4L36.6001 34.8L38.7 34.9L37.7 39.7C37.5666 40.3 37.2333 40.8 36.7 41.2C36.1 41.6 35.4333 41.7666 34.7 41.7C34.1 41.7 33.5 41.4 33.2 41C32.9 40.7 32.7001 40.3 32.6001 40.1L32.5 39.9Z" fill="#FEFEFE"/>
<path fill-rule="evenodd" clip-rule="evenodd" d="M43.4001 35.2L44.6001 42.2L42.3 42.1L42.2 41.3L40 41.2L39.6001 41.9L37.4001 41.8L41.3 35.1L43.4001 35.2ZM41.1001 39.3L42 39.4L41.8 37.9L41.1001 39.3Z" fill="#FEFEFE"/>
<path fill-rule="evenodd" clip-rule="evenodd" d="M44.7 42.2L46.1001 35.4L48.8 35.6C49.8667 35.6 50.6334 35.9666 51.1001 36.7C51.6334 37.3666 51.8001 38.2 51.6001 39.2C51.4001 40.1333 50.9001 40.9333 50.1001 41.6C49.3668 42.2 48.5 42.4667 47.5 42.4L44.7 42.2ZM47.7 37.4L47.1001 40.4H47.8C48.2 40.4667 48.5334 40.3333 48.8 40C49.1334 39.7333 49.3335 39.4 49.4001 39C49.4668 38.6 49.4334 38.2334 49.3 37.9C49.1 37.6334 48.8001 37.4667 48.4001 37.4H47.7Z" fill="#FEFEFE"/>
<path fill-rule="evenodd" clip-rule="evenodd" d="M56.1999 35.9C57.1999 35.9667 57.9666 36.3666 58.5 37.1C59.1 37.7666 59.3 38.6 59.1 39.6C58.9 40.6 58.3666 41.4333 57.5 42.1C56.7 42.7 55.7666 42.9667 54.6999 42.9C53.6999 42.8334 52.9334 42.4667 52.4001 41.8C51.8668 41.0667 51.6667 40.1999 51.8 39.1999C52.0667 38.1999 52.6001 37.3666 53.4001 36.6999C54.2001 36.0999 55.1332 35.8334 56.1999 35.9ZM55.1 41C55.5667 41.0667 55.9667 40.9333 56.3 40.6C56.6333 40.3333 56.8666 39.9667 57 39.5C57.0666 39.0333 57 38.6334 56.8 38.3C56.5333 37.9667 56.2 37.8 55.8 37.8C55.4 37.8 55 37.9333 54.6 38.1999C54.2667 38.4666 54.0666 38.8334 54 39.3C53.8666 39.7667 53.9332 40.1667 54.1999 40.5C54.3999 40.8333 54.7 41 55.1 41Z" fill="#FEFEFE"/>
<path fill-rule="evenodd" clip-rule="evenodd" d="M65.1001 43.4L62.6001 43.3L61.5 41.5H61.3L61 43.2L58.9001 43.1L60.3 36.2L63.1001 36.4C63.2001 36.4 63.3001 36.4 63.6001 36.5C64.0001 36.6 64.3 36.7 64.7 37C65 37.3 65.3 37.6 65.3 38.2C65.3667 38.4666 65.3667 38.8 65.3 39.2C65.1 40.1333 64.6 40.8 63.8 41.2L65.1001 43.4ZM61.9001 38.2L61.7 39.5H62.5C62.8333 39.5667 63.0334 39.4 63.1001 39C63.2001 38.5 63.1 38.3 62.7 38.3L61.9001 38.2Z" fill="#FEFEFE"/>
<path fill-rule="evenodd" clip-rule="evenodd" d="M70.8 36.9L72 43.9L69.8 43.7L69.7 43L67.4001 42.9L67.1001 43.6L64.8 43.4L68.8 36.8L70.8 36.9ZM68.4001 41H69.3L69.2 39.6L68.4001 41Z" fill="#FEFEFE"/>
</g>
<defs>
<clipPath id="clip0_239_66684">
<rect width="78" height="65" fill="white"/>
</clipPath>
</defs>
</svg>
