<svg width="77" height="68" viewBox="0 0 77 68" fill="none" xmlns="http://www.w3.org/2000/svg">
<g clip-path="url(#clip0_239_65474)">
<path d="M69.0237 37.9152C68.3237 55.3152 52.4238 68.8153 33.4238 68.1153C14.4238 67.5153 -0.476115 52.9153 0.223885 35.5153C0.923885 18.2153 16.8237 4.71527 35.8237 5.31527C54.8237 6.01527 69.7237 20.6152 69.0237 37.9152Z" fill="#AB3878"/>
<mask id="mask0_239_65474" style="mask-type:luminance" maskUnits="userSpaceOnUse" x="0" y="5" width="70" height="64">
<path d="M69.0136 37.9654C68.3336 55.3054 52.3838 68.8153 33.3838 68.1553C14.3938 67.4853 -0.466156 52.8854 0.213844 35.5554C0.893844 18.2154 16.8437 4.69542 35.8437 5.36542C54.8437 6.02542 69.6936 20.6254 69.0136 37.9654Z" fill="white"/>
</mask>
<g mask="url(#mask0_239_65474)">
<path d="M62.8237 58.7153C63.0237 58.4487 63.2238 58.1819 63.4238 57.9153L16.6238 13.6154C16.3571 13.8154 16.0904 14.0153 15.8237 14.2153L62.8237 58.7153Z" fill="#ED4592" stroke="#AB3878" stroke-width="0.4"/>
<path d="M69.1238 48.2153C69.1904 47.8153 69.2905 47.4487 69.4238 47.1154L28.7239 8.51538C28.3239 8.64871 27.9237 8.74864 27.5237 8.81531L69.1238 48.2153Z" fill="#ED4592" stroke="#AB3878" stroke-width="0.4"/>
<path d="M65.3237 55.6154C65.5237 55.282 65.6904 54.982 65.8237 54.7153L20.2239 11.5154C19.8905 11.7154 19.5904 11.882 19.3237 12.0154L65.3237 55.6154Z" fill="#ED4592" stroke="#AB3878" stroke-width="0.4"/>
<path d="M67.4238 52.1154C67.5572 51.782 67.7238 51.4487 67.9238 51.1154L24.2239 9.81531C23.8905 9.94864 23.5238 10.082 23.1238 10.2153L67.4238 52.1154Z" fill="#ED4592" stroke="#AB3878" stroke-width="0.4"/>
<path d="M70.2239 43.7153C70.2905 43.3153 70.3572 42.9154 70.4238 42.5154L33.7239 7.81531C33.2572 7.88197 32.8238 7.91528 32.4238 7.91528L70.2239 43.7153Z" fill="#ED4592" stroke="#AB3878" stroke-width="0.4"/>
<path d="M60.3237 61.1154C60.4571 60.982 60.5905 60.882 60.7239 60.8153L13.4238 16.0154C13.2905 16.1487 13.157 16.2819 13.0237 16.4153C12.8903 16.4819 12.7571 16.582 12.6238 16.7153L59.9238 61.4153C60.0572 61.3486 60.1904 61.2487 60.3237 61.1154Z" fill="#ED4592" stroke="#AB3878" stroke-width="0.4"/>
<path d="M70.6238 38.7153C70.6238 38.182 70.6238 37.682 70.6238 37.2153L39.5237 7.81531C38.9903 7.81531 38.4572 7.782 37.9238 7.71533L70.6238 38.7153Z" fill="#ED4592" stroke="#AB3878" stroke-width="0.4"/>
<path d="M44.7239 8.61536L69.9238 32.5154C69.7905 31.9154 69.6238 31.282 69.4238 30.6154L46.7239 9.11536C46.0572 8.91536 45.3905 8.74869 44.7239 8.61536Z" fill="#ED4592" stroke="#AB3878" stroke-width="0.4"/>
<path d="M33.7239 69.7153C34.2572 69.7153 34.7904 69.7153 35.3237 69.7153L2.62378 38.8153C2.62378 39.282 2.65721 39.782 2.72388 40.3153L33.7239 69.7153Z" fill="#ED4592" stroke="#AB3878" stroke-width="0.4"/>
<path d="M39.6238 69.7153C40.0238 69.6487 40.4572 69.582 40.9238 69.5154L3.12378 33.7153C3.05711 34.1153 2.99049 34.5487 2.92383 35.0154L39.6238 69.7153Z" fill="#ED4592" stroke="#AB3878" stroke-width="0.4"/>
<path d="M66.2239 23.5154C64.8239 21.2487 63.1238 19.1487 61.1238 17.2153C59.0238 15.3153 56.8238 13.7153 54.4238 12.3153L66.2239 23.5154Z" fill="#ED4592" stroke="#AB3878" stroke-width="0.4"/>
<path d="M26.6238 68.4153C27.2904 68.5486 27.9571 68.7153 28.6238 68.9153L3.32373 45.0154C3.52373 45.6154 3.6904 46.2486 3.82373 46.9153L26.6238 68.4153Z" fill="#ED4592" stroke="#AB3878" stroke-width="0.4"/>
<path d="M53.1238 66.0154C53.3904 65.8154 53.6903 65.6487 54.0237 65.5154L8.02368 21.9153C7.82368 22.2486 7.62383 22.5486 7.42383 22.8153L53.1238 66.0154Z" fill="#ED4592" stroke="#AB3878" stroke-width="0.4"/>
<path d="M56.7239 63.9153C56.9905 63.7153 57.257 63.5153 57.5237 63.3153L10.5237 18.8153C10.3237 19.082 10.0904 19.3487 9.82373 19.6154L56.7239 63.9153Z" fill="#ED4592" stroke="#AB3878" stroke-width="0.4"/>
<path d="M44.6238 68.9153C45.0238 68.8486 45.4237 68.782 45.8237 68.7153L4.22388 29.3153C4.09054 29.7153 3.99049 30.0819 3.92383 30.4153L44.6238 68.9153Z" fill="#ED4592" stroke="#AB3878" stroke-width="0.4"/>
<path d="M49.1238 67.7153C49.4571 67.582 49.7904 67.4486 50.1238 67.3153L5.92383 25.4153C5.72383 25.7486 5.55716 26.0819 5.42383 26.4153L49.1238 67.7153Z" fill="#ED4592" stroke="#AB3878" stroke-width="0.4"/>
<path d="M24.2239 70.9153C24.8905 71.1153 25.5904 71.2819 26.3237 71.4153L1.02368 47.5154C1.15701 48.182 1.32368 48.8153 1.52368 49.4153L24.2239 70.9153Z" fill="#ED4592" stroke="#AB3878" stroke-width="0.4"/>
</g>
<path d="M64.9776 37.7063C64.3167 55.0489 49.211 68.5822 31.3672 67.9807C13.429 67.279 -0.638516 52.643 0.0223651 35.3004C0.683247 17.8576 15.6948 4.32438 33.633 5.0261C51.5712 5.62758 65.6385 20.2635 64.9776 37.7063Z" fill="#ED4592"/>
<path d="M58.6239 18.1154C58.6239 18.0487 58.6239 18.0154 58.6239 18.0154C58.6239 18.0154 58.6239 17.982 58.6239 17.9153C59.1239 18.0153 59.5239 17.7153 59.6239 17.3153L59.724 17.2153C59.824 16.7153 59.5238 16.3153 59.0238 16.2153C59.0238 16.1487 59.0238 16.082 59.0238 16.0154C59.5238 16.1154 59.9239 15.7153 59.9239 15.3153V15.2153C60.0239 14.8153 59.624 14.4153 59.224 14.3153C59.1573 14.3153 59.1239 14.3153 59.1239 14.3153C59.1239 14.2486 59.1239 14.2153 59.1239 14.2153C59.1239 14.2153 59.1573 14.2153 59.224 14.2153C59.624 14.1153 60.0239 13.7153 59.9239 13.3153V13.2153C59.9239 12.8153 59.5238 12.4154 59.0238 12.5154C59.0238 12.4487 59.0238 12.382 59.0238 12.3153C59.5238 12.2153 59.7239 11.7153 59.6239 11.3153C59.5239 10.8153 59.1239 10.5154 58.6239 10.6154C58.6239 10.6154 58.6239 10.582 58.6239 10.5154C59.0239 10.3154 59.2239 9.81528 59.1239 9.41528V9.31531C58.9239 8.91531 58.4238 8.71528 58.0238 8.91528C57.9571 8.84862 57.9239 8.782 57.9239 8.71533C58.3239 8.51533 58.5238 8.01536 58.3238 7.61536L58.224 7.51538C58.024 7.11538 57.5239 7.01533 57.1239 7.21533C57.0572 7.21533 57.0238 7.18202 57.0238 7.11536C57.4238 6.81536 57.524 6.31528 57.224 5.91528C56.924 5.51528 56.3238 5.41533 56.0238 5.71533C55.9571 5.71533 55.9239 5.68202 55.9239 5.61536C56.2239 5.31536 56.2239 4.71528 55.9239 4.41528H55.8238C55.5238 4.01528 55.024 4.01528 54.724 4.41528C54.6573 4.41528 54.6239 4.41528 54.6239 4.41528C54.6239 4.34862 54.5904 4.31531 54.5238 4.31531C54.8238 3.91531 54.7239 3.41536 54.4239 3.11536H54.3238C54.0238 2.81536 53.424 2.91533 53.224 3.21533C53.224 3.21533 53.1905 3.24864 53.1239 3.31531C53.1239 3.24864 53.0904 3.21533 53.0238 3.21533C53.3238 2.71533 53.124 2.21538 52.724 2.01538C52.324 1.81538 51.7238 1.91531 51.5238 2.31531C51.5238 2.31531 51.5238 2.34862 51.5238 2.41528C51.4571 2.34862 51.4239 2.31531 51.4239 2.31531C51.5239 1.81531 51.3239 1.31533 50.9239 1.21533H50.8238C50.4238 1.01533 49.9238 1.21533 49.8238 1.71533C49.7572 1.71533 49.6905 1.71533 49.6239 1.71533C49.6239 1.64867 49.6239 1.61536 49.6239 1.61536C49.7239 1.21536 49.4238 0.715356 49.0238 0.615356H48.9239C48.5239 0.515356 48.0239 0.815308 47.9239 1.31531C47.9239 1.31531 47.8905 1.31531 47.8238 1.31531C47.8238 1.31531 47.8238 1.282 47.8238 1.21533C47.8238 0.815332 47.5238 0.415308 47.0238 0.315308C46.5238 0.315308 46.1239 0.615356 46.1239 1.11536C46.0572 1.11536 45.9906 1.11536 45.9239 1.11536C45.9239 0.615356 45.5238 0.315308 45.0238 0.315308C44.5238 0.415308 44.224 0.815332 44.224 1.21533C44.224 1.21533 44.224 1.24864 44.224 1.31531C44.1573 1.31531 44.0904 1.31531 44.0238 1.31531C43.9238 0.815308 43.5238 0.515356 43.0238 0.615356C42.5238 0.715356 42.3239 1.21536 42.4239 1.61536C42.4239 1.61536 42.4239 1.64867 42.4239 1.71533C42.3573 1.71533 42.2906 1.71533 42.224 1.71533C42.124 1.21533 41.6239 1.01533 41.1239 1.21533C40.7239 1.41533 40.4239 1.81531 40.6239 2.31531C40.5572 2.31531 40.5238 2.34862 40.5238 2.41528C40.5238 2.34862 40.5238 2.31531 40.5238 2.31531C40.2238 1.91531 39.7238 1.81538 39.3238 2.01538C38.9238 2.21538 38.7239 2.81533 38.9239 3.21533C38.9906 3.21533 39.0238 3.21533 39.0238 3.21533C38.9571 3.21533 38.8905 3.24864 38.8238 3.31531C38.8238 3.31531 38.8238 3.282 38.8238 3.21533C38.5238 2.91533 38.0239 2.81536 37.6239 3.11536C37.2239 3.41536 37.2239 3.91531 37.4239 4.31531C37.4239 4.31531 37.4571 4.31531 37.5238 4.31531C37.4571 4.38197 37.3905 4.41528 37.3238 4.41528C37.0238 4.01528 36.5239 4.01528 36.1239 4.41528C35.8239 4.71528 35.8239 5.31536 36.1239 5.61536C36.1239 5.68202 36.0904 5.71533 36.0238 5.71533C35.6238 5.41533 35.1238 5.51528 34.8238 5.91528C34.5238 6.31528 34.6238 6.81536 35.0238 7.11536C35.0238 7.18202 34.9906 7.21533 34.9239 7.21533C34.5239 7.01533 34.024 7.21536 33.724 7.61536C33.524 8.01536 33.6239 8.51533 34.1239 8.71533C34.1239 8.71533 34.1239 8.74864 34.1239 8.81531C34.1239 8.81531 34.0904 8.84862 34.0238 8.91528C33.6238 8.71528 33.1239 8.91528 32.9239 9.41528C32.7239 9.81528 33.0239 10.3154 33.4239 10.5154C33.4239 10.582 33.4239 10.6154 33.4239 10.6154C32.9239 10.5154 32.4239 10.8153 32.4239 11.3153H32.3238C32.2238 11.8153 32.5238 12.2153 33.0238 12.3153C33.0238 12.382 33.0238 12.4487 33.0238 12.5154C32.5238 12.4154 32.1239 12.8153 32.1239 13.3153C32.0239 13.7153 32.324 14.1153 32.724 14.2153C32.7906 14.2153 32.8238 14.2153 32.8238 14.2153C32.8905 14.2153 32.9239 14.2153 32.9239 14.2153C32.9239 14.282 32.9239 14.3153 32.9239 14.3153C32.9239 14.3153 32.8905 14.3153 32.8238 14.3153C32.4238 14.4153 32.0239 14.8153 32.1239 15.2153V15.3153C32.1239 15.7153 32.424 16.0154 32.724 16.0154C32.7906 16.082 32.8904 16.1154 33.0238 16.1154C33.0238 16.1154 33.0238 16.1487 33.0238 16.2153C32.5238 16.3153 32.2238 16.8153 32.3238 17.2153V17.3153C32.4238 17.6153 32.7238 17.8153 33.0238 17.9153C33.1571 17.9153 33.2906 17.9153 33.4239 17.9153C33.4239 17.982 33.4239 18.0154 33.4239 18.0154C33.0239 18.2154 32.7239 18.7154 32.9239 19.1154V19.2153C33.0239 19.4153 33.3238 19.6153 33.5238 19.7153C33.7238 19.7153 33.8904 19.7153 34.0238 19.7153C34.0238 19.7153 34.0238 19.682 34.0238 19.6154C34.0904 19.682 34.1239 19.7486 34.1239 19.8153C33.7239 20.0153 33.524 20.5153 33.724 20.9153V21.0154C33.924 21.2154 34.1238 21.3153 34.3238 21.4153C34.5238 21.482 34.7239 21.4486 34.9239 21.3153C34.9906 21.382 35.0238 21.4153 35.0238 21.4153C34.6238 21.7153 34.5238 22.2154 34.8238 22.6154C34.9572 22.8154 35.1238 22.9487 35.3238 23.0154C35.5238 23.0154 35.8238 23.0153 36.0238 22.8153C36.0904 22.882 36.1239 22.9153 36.1239 22.9153C35.8239 23.3153 35.8239 23.8154 36.1239 24.1154V24.2153C36.2572 24.282 36.3904 24.3486 36.5238 24.4153C36.8238 24.4153 37.1238 24.4153 37.3238 24.2153C37.3238 24.1487 37.3238 24.1154 37.3238 24.1154C37.3905 24.182 37.4571 24.2153 37.5238 24.2153C37.4571 24.2153 37.4239 24.2153 37.4239 24.2153C37.2239 24.6153 37.2239 25.1153 37.6239 25.4153V25.5154C37.7572 25.582 37.8904 25.6154 38.0238 25.6154C38.3238 25.7154 38.6238 25.6153 38.8238 25.3153C38.8905 25.3153 38.9571 25.3153 39.0238 25.3153C39.0238 25.382 38.9906 25.4153 38.9239 25.4153C38.7239 25.8153 38.9238 26.3154 39.3238 26.5154C39.3905 26.582 39.4571 26.6154 39.5238 26.6154C39.9238 26.7154 40.3238 26.5153 40.5238 26.2153C40.5238 26.2153 40.5572 26.2153 40.6239 26.2153C40.6239 26.2153 40.6239 26.2486 40.6239 26.3153C40.4239 26.7153 40.7239 27.2153 41.1239 27.3153V27.4153C41.1905 27.4153 41.224 27.4153 41.224 27.4153C41.724 27.5153 42.124 27.3153 42.224 26.9153C42.224 26.8486 42.224 26.8153 42.224 26.8153C42.2906 26.882 42.3573 26.9153 42.4239 26.9153C42.3239 27.4153 42.6238 27.8153 43.0238 27.9153C43.5238 28.0153 43.9238 27.7153 44.0238 27.3153C44.0238 27.3153 44.0238 27.282 44.0238 27.2153C44.0904 27.282 44.1573 27.3153 44.224 27.3153C44.224 27.7153 44.5239 28.1153 44.9239 28.2153C44.9239 28.2153 44.9571 28.2153 45.0238 28.2153C45.5238 28.2153 45.9239 27.9153 45.9239 27.4153C45.9906 27.4153 46.0572 27.4153 46.1239 27.4153C46.1239 27.8153 46.424 28.1153 46.724 28.2153C46.7906 28.2153 46.8904 28.2153 47.0238 28.2153C47.5238 28.2153 47.8238 27.8153 47.8238 27.3153C47.8905 27.3153 47.9239 27.282 47.9239 27.2153C47.9239 27.282 47.9239 27.3153 47.9239 27.3153C48.0239 27.6153 48.3239 27.9153 48.6239 27.9153C48.7572 27.982 48.8573 27.982 48.9239 27.9153H49.0238C49.4238 27.8153 49.7239 27.4153 49.6239 26.9153C49.6905 26.9153 49.7572 26.882 49.8238 26.8153C49.8238 26.8153 49.8238 26.8486 49.8238 26.9153C49.9238 27.1153 50.1239 27.3153 50.4239 27.4153C50.5573 27.4153 50.6905 27.4153 50.8238 27.4153L50.9239 27.3153C51.3239 27.2153 51.5239 26.7153 51.4239 26.3153C51.4239 26.2486 51.4239 26.2153 51.4239 26.2153C51.4239 26.2153 51.4571 26.2153 51.5238 26.2153C51.6238 26.4153 51.8239 26.6154 52.1239 26.6154C52.3239 26.682 52.524 26.6487 52.724 26.5154C53.124 26.3154 53.3238 25.8153 53.0238 25.4153C53.0238 25.4153 53.0238 25.382 53.0238 25.3153C53.0904 25.3153 53.1239 25.3153 53.1239 25.3153C53.1905 25.3153 53.224 25.3153 53.224 25.3153C53.3573 25.5153 53.524 25.6154 53.724 25.6154C53.924 25.7154 54.1238 25.6154 54.3238 25.5154L54.4239 25.4153C54.7239 25.2153 54.8238 24.6153 54.5238 24.3153C54.5238 24.3153 54.5238 24.282 54.5238 24.2153C54.5904 24.2153 54.6239 24.182 54.6239 24.1154C54.6905 24.182 54.724 24.2153 54.724 24.2153C54.7906 24.282 54.9239 24.3486 55.1239 24.4153C55.3239 24.4153 55.6239 24.4153 55.9239 24.2153V24.1154C56.2239 23.8154 56.2239 23.3153 55.9239 22.9153C55.9239 22.9153 55.9571 22.882 56.0238 22.8153C56.0904 22.882 56.1905 22.9487 56.3238 23.0154C56.6238 23.0154 57.024 22.9154 57.224 22.6154C57.524 22.3154 57.4238 21.7154 57.0238 21.5154C57.0238 21.4487 57.0238 21.4153 57.0238 21.4153C57.0238 21.4153 57.0572 21.382 57.1239 21.3153C57.1905 21.382 57.2572 21.4153 57.3238 21.4153C57.7238 21.5153 58.124 21.3154 58.224 21.0154H58.3238C58.5238 20.5154 58.3239 20.0153 57.9239 19.8153C57.9239 19.7486 57.9571 19.7153 58.0238 19.7153C58.0238 19.7153 58.0572 19.7153 58.1239 19.7153C58.5239 19.8153 58.9239 19.6153 59.1239 19.2153V19.1154C59.3239 18.7154 59.0239 18.2154 58.6239 18.1154Z" fill="#3F86AA"/>
<path d="M44.8237 37.1154L42.1238 34.0154L38.1238 35.0154L43.1238 18.9153L49.8237 21.0154L44.8237 37.1154Z" fill="#58BDEA"/>
<path d="M40.6238 34.4153L42.1238 34.0154L43.1238 35.2153L47.7239 20.4153L45.2239 19.6154L40.6238 34.4153Z" fill="#FEFEFE"/>
<path d="M53.6238 36.5154L55.8237 33.0154L59.9238 33.4153L52.6238 18.2153L46.3237 21.3153L53.6238 36.5154Z" fill="#58BDEA"/>
<path d="M57.4238 33.2153L55.8237 33.0154L55.0237 34.3153L48.2239 20.3153L50.6238 19.2153L57.4238 33.2153Z" fill="#FEFEFE"/>
<path d="M60.9238 18.1154C60.8572 18.1154 60.8237 18.1154 60.8237 18.1154C60.8237 18.0487 60.8572 18.0154 60.9238 18.0154C61.4238 18.1154 61.8238 17.8154 61.9238 17.3154C62.0238 16.8154 61.7237 16.3154 61.3237 16.2154C61.3237 16.1487 61.3237 16.1154 61.3237 16.1154C61.8237 16.1154 62.2239 15.7154 62.2239 15.3154V15.2154C62.3239 14.8154 61.9238 14.3154 61.4238 14.3154C61.4238 14.2487 61.4238 14.2154 61.4238 14.2154C61.9238 14.1154 62.3239 13.7154 62.2239 13.2154C62.2239 12.7154 61.8237 12.4153 61.3237 12.4153C61.3237 12.3487 61.2905 12.282 61.2239 12.2154C61.2905 12.2154 61.3237 12.2154 61.3237 12.2154C61.8237 12.1154 62.0238 11.7154 61.9238 11.2154C61.8238 10.7154 61.4238 10.4154 60.9238 10.5154C60.9238 10.4488 60.8904 10.4153 60.8237 10.4153C60.8237 10.4153 60.8572 10.4153 60.9238 10.4153C61.3238 10.2153 61.5238 9.71535 61.4238 9.31536V9.21538C61.2238 8.81538 60.7239 8.51538 60.2239 8.71538C60.2239 8.71538 60.1904 8.68207 60.1238 8.6154C60.1904 8.6154 60.2239 8.6154 60.2239 8.6154C60.6239 8.4154 60.7237 7.81533 60.5237 7.41533C60.3237 6.91533 59.7237 6.81543 59.3237 7.01543C59.3237 7.01543 59.2905 6.982 59.2239 6.91533C59.6239 6.61533 59.7238 6.11538 59.4238 5.71538C59.1238 5.31538 58.6239 5.21543 58.2239 5.51543C58.1572 5.44876 58.1238 5.41533 58.1238 5.41533C58.4238 5.01533 58.4238 4.5154 58.1238 4.1154C57.7238 3.8154 57.2237 3.8154 56.8237 4.1154C56.8237 4.1154 56.7905 4.0821 56.7239 4.01543C57.0239 3.61543 56.9237 3.11536 56.5237 2.81536C56.1237 2.51536 55.6237 2.61543 55.3237 3.01543C55.2571 2.94876 55.2239 2.91533 55.2239 2.91533C55.4239 2.51533 55.2237 1.91538 54.8237 1.71538C54.4237 1.51538 53.8238 1.61543 53.6238 2.01543C53.6238 2.01543 53.6238 2.04874 53.6238 2.1154C53.5571 2.04874 53.5237 2.01543 53.5237 2.01543C53.6237 1.51543 53.4237 1.01533 53.0237 0.915331L52.9238 0.815355C52.5238 0.715355 52.0237 0.915355 51.8237 1.31536C51.8237 1.38202 51.8237 1.41533 51.8237 1.41533C51.7571 1.41533 51.7239 1.38202 51.7239 1.31536C51.8239 0.815355 51.5237 0.415355 51.0237 0.315355C50.5237 0.215355 50.0238 0.515331 49.9238 0.915331C49.9238 0.915331 49.9238 0.948762 49.9238 1.01543C49.9238 1.01543 49.8904 0.981997 49.8237 0.915331C49.8237 0.415331 49.5237 0.0154283 49.0237 0.0154283C48.5237 -0.0845717 48.1237 0.315355 48.0237 0.815355C48.0237 0.815355 47.9905 0.815355 47.9238 0.815355C47.8238 0.315355 47.4237 -0.0845717 47.0237 0.0154283H46.9238C46.4238 0.0154283 46.1238 0.415331 46.1238 0.915331C46.0571 0.915331 46.0237 0.948762 46.0237 1.01543C46.0237 0.948762 46.0237 0.915331 46.0237 0.915331C45.9237 0.515331 45.4238 0.215355 44.9238 0.315355C44.4238 0.415355 44.1239 0.815355 44.2239 1.31536C44.2239 1.38202 44.1904 1.41533 44.1238 1.41533C43.9238 0.915331 43.4237 0.715355 43.0237 0.815355L42.9238 0.915331C42.5238 1.01533 42.3238 1.51543 42.4238 2.01543C42.4238 2.01543 42.3904 2.04874 42.3237 2.1154C42.3237 2.04874 42.3237 2.01543 42.3237 2.01543C42.1237 1.61543 41.5238 1.51538 41.1238 1.71538C40.7238 1.91538 40.5239 2.51533 40.7239 2.91533C40.7239 2.91533 40.7571 2.91533 40.8237 2.91533C40.7571 2.982 40.6904 3.01543 40.6238 3.01543C40.3238 2.61543 39.8238 2.51536 39.4238 2.81536C39.0238 3.11536 38.9239 3.61543 39.2239 4.01543C39.2239 4.0821 39.1904 4.14871 39.1238 4.21538C39.1238 4.14871 39.1238 4.1154 39.1238 4.1154C38.7238 3.8154 38.2238 3.8154 37.9238 4.1154L37.8237 4.21538C37.5237 4.51538 37.5237 5.01533 37.8237 5.41533C37.8237 5.41533 37.8572 5.41533 37.9238 5.41533C37.8572 5.482 37.7905 5.51543 37.7239 5.51543C37.3239 5.21543 36.8237 5.31538 36.5237 5.71538C36.2237 6.11538 36.3239 6.61533 36.7239 6.91533C36.7239 6.982 36.6904 7.04874 36.6238 7.1154C36.6238 7.04874 36.6238 7.01543 36.6238 7.01543C36.2238 6.81543 35.6238 7.01533 35.4238 7.41533C35.2238 7.81533 35.3239 8.4154 35.7239 8.6154C35.7905 8.6154 35.8237 8.6154 35.8237 8.6154C35.7571 8.68207 35.7239 8.71538 35.7239 8.71538C35.2239 8.61538 34.7238 8.81538 34.6238 9.21538V9.31536C34.4238 9.71535 34.6238 10.2153 35.1238 10.4153C35.1238 10.482 35.0903 10.5154 35.0237 10.5154C34.6237 10.4154 34.1237 10.7154 34.0237 11.2154C33.9237 11.7154 34.2238 12.2154 34.6238 12.3154C34.6904 12.3154 34.7239 12.3154 34.7239 12.3154C34.7239 12.3154 34.7239 12.3487 34.7239 12.4153C34.6572 12.4153 34.6238 12.4153 34.6238 12.4153C34.1238 12.4153 33.7239 12.7154 33.7239 13.2154V13.3154C33.7239 13.7154 34.0238 14.1154 34.4238 14.2154C34.4238 14.2154 34.457 14.2154 34.5237 14.2154C34.5237 14.282 34.5237 14.3154 34.5237 14.3154C34.0237 14.4154 33.7239 14.8154 33.7239 15.3154C33.7239 15.7154 34.0238 16.0154 34.4238 16.1154C34.4905 16.1154 34.5571 16.1154 34.6238 16.1154C34.6904 16.1821 34.7239 16.2154 34.7239 16.2154C34.7239 16.2154 34.6904 16.2154 34.6238 16.2154C34.2238 16.4154 33.9237 16.8154 34.0237 17.3154C34.1237 17.7154 34.3238 17.9154 34.6238 18.0154C34.7571 18.0154 34.8903 18.0154 35.0237 18.0154C35.0903 18.0154 35.1238 18.0487 35.1238 18.1154C34.6238 18.3154 34.4238 18.8154 34.6238 19.2154V19.3154C34.7238 19.6154 34.9239 19.7154 35.2239 19.8154C35.3572 19.882 35.5239 19.882 35.7239 19.8154C35.7239 19.8154 35.7571 19.8487 35.8237 19.9153C35.8237 19.9153 35.7905 19.9153 35.7239 19.9153C35.3239 20.1153 35.2238 20.7154 35.4238 21.1154C35.5238 21.4154 35.8237 21.5154 36.0237 21.6154C36.2237 21.6154 36.4238 21.5821 36.6238 21.5154C36.6238 21.5154 36.6238 21.482 36.6238 21.4153C36.6904 21.482 36.7239 21.5487 36.7239 21.6154C36.3239 21.9154 36.2237 22.4154 36.5237 22.8154C36.657 23.0154 36.8237 23.1487 37.0237 23.2154C37.3237 23.2154 37.5239 23.2154 37.7239 23.0154C37.7239 23.0154 37.7571 23.0154 37.8237 23.0154C37.8237 23.0154 37.8572 23.0487 37.9238 23.1154C37.8572 23.1154 37.8237 23.1154 37.8237 23.1154C37.5237 23.5154 37.5237 24.0154 37.8237 24.3154L37.9238 24.4153C37.9905 24.5487 38.1237 24.6154 38.3237 24.6154C38.6237 24.7154 38.9238 24.6153 39.1238 24.4153C39.1904 24.4153 39.2239 24.4488 39.2239 24.5154C38.9239 24.9154 39.0238 25.4154 39.4238 25.7154C39.5572 25.782 39.6572 25.8487 39.7239 25.9153C40.1239 25.9153 40.4238 25.8154 40.6238 25.5154C40.6904 25.5821 40.7571 25.6154 40.8237 25.6154C40.8237 25.6154 40.7905 25.6154 40.7239 25.6154C40.5239 26.0154 40.7238 26.6154 41.1238 26.8154C41.1904 26.882 41.2905 26.9153 41.4238 26.9153C41.7238 27.0153 42.1237 26.8154 42.3237 26.5154C42.3237 26.5154 42.3237 26.482 42.3237 26.4153C42.3904 26.482 42.4238 26.5154 42.4238 26.5154C42.3238 27.0154 42.5238 27.5154 42.9238 27.6154L43.0237 27.7154C43.0237 27.7154 43.0571 27.7154 43.1238 27.7154C43.5238 27.8154 43.9238 27.6154 44.1238 27.1154C44.1904 27.1154 44.2239 27.1487 44.2239 27.2154C44.1239 27.7154 44.4238 28.1154 44.9238 28.2154C45.4238 28.3154 45.9237 28.0154 46.0237 27.6154C46.0237 27.6154 46.0237 27.5821 46.0237 27.5154C46.0237 27.5154 46.0571 27.5487 46.1238 27.6154C46.1238 28.0154 46.4237 28.4154 46.8237 28.5154C46.8904 28.5154 46.9238 28.5154 46.9238 28.5154H47.0237C47.4237 28.6154 47.8238 28.2154 47.9238 27.7154C47.9905 27.7154 48.0237 27.7154 48.0237 27.7154C48.1237 28.1154 48.3239 28.4154 48.7239 28.5154C48.7905 28.5154 48.8903 28.5154 49.0237 28.5154C49.5237 28.5154 49.8237 28.1154 49.8237 27.6154C49.8904 27.6154 49.9238 27.5821 49.9238 27.5154C49.9238 27.5821 49.9238 27.6154 49.9238 27.6154C50.0238 27.9154 50.3238 28.2154 50.6238 28.2154C50.7571 28.282 50.8903 28.282 51.0237 28.2154C51.5237 28.1154 51.8239 27.7154 51.7239 27.2154C51.7239 27.1487 51.7571 27.1154 51.8237 27.1154C51.9237 27.4154 52.2237 27.6154 52.5237 27.7154C52.657 27.7154 52.7905 27.7154 52.9238 27.7154L53.0237 27.6154C53.4237 27.5154 53.6237 27.0154 53.5237 26.5154C53.5237 26.5154 53.5571 26.482 53.6238 26.4153C53.6238 26.482 53.6238 26.5154 53.6238 26.5154C53.7238 26.7154 54.0239 26.9153 54.2239 26.9153C54.4239 26.982 54.6237 26.9487 54.8237 26.8154C55.2237 26.6154 55.4239 26.0154 55.2239 25.6154C55.2239 25.6154 55.2571 25.5821 55.3237 25.5154C55.4571 25.7154 55.6237 25.8487 55.8237 25.9153C56.0237 25.9153 56.3237 25.9154 56.5237 25.7154C56.9237 25.4154 57.0239 24.9154 56.7239 24.5154C56.7905 24.4488 56.8237 24.4153 56.8237 24.4153C56.9571 24.5487 57.1237 24.6154 57.3237 24.6154C57.5237 24.7154 57.8238 24.6153 58.1238 24.4153C58.4238 24.0153 58.4238 23.5154 58.1238 23.1154C58.1238 23.1154 58.1572 23.0821 58.2239 23.0154C58.2905 23.0821 58.3903 23.1487 58.5237 23.2154C58.8237 23.2154 59.2238 23.1154 59.4238 22.8154C59.7238 22.4154 59.6239 21.9154 59.2239 21.6154C59.2905 21.5487 59.3237 21.5154 59.3237 21.5154C59.3904 21.5154 59.4904 21.5487 59.6238 21.6154C59.9238 21.6154 60.3237 21.5154 60.5237 21.1154C60.8237 20.7154 60.6239 20.2153 60.2239 19.9153C60.2239 19.9153 60.1904 19.9153 60.1238 19.9153C60.1904 19.8487 60.2239 19.8154 60.2239 19.8154C60.2905 19.8154 60.3572 19.8154 60.4238 19.8154C60.8238 19.9154 61.2238 19.7154 61.4238 19.3154V19.2154C61.5238 18.8154 61.3238 18.3154 60.9238 18.1154Z" fill="#6ECFF5"/>
<path d="M58.2239 17.3153C58.2239 17.3153 58.2239 17.282 58.2239 17.2153C58.2905 17.2153 58.3237 17.2153 58.3237 17.2153C58.6237 17.3153 59.0238 17.1153 59.1238 16.7153V16.6154C59.2238 16.3154 58.9238 15.9153 58.6238 15.8153C58.6238 15.8153 58.6238 15.782 58.6238 15.7153C59.0238 15.7153 59.3237 15.4154 59.3237 15.1154V15.0154C59.4237 14.7154 59.1239 14.3153 58.7239 14.3153C58.7239 14.2486 58.7239 14.2153 58.7239 14.2153C59.1239 14.1153 59.4237 13.8153 59.3237 13.4153C59.3237 13.0153 59.0238 12.7153 58.6238 12.8153C58.6238 12.7486 58.5903 12.7153 58.5237 12.7153C58.5903 12.7153 58.6238 12.682 58.6238 12.6154C59.0238 12.6154 59.2238 12.2153 59.1238 11.8153C59.0238 11.4153 58.6237 11.2153 58.3237 11.3153C58.3237 11.3153 58.2905 11.3153 58.2239 11.3153C58.2239 11.2486 58.2239 11.2153 58.2239 11.2153C58.6239 11.0153 58.8238 10.6153 58.6238 10.3153V10.2153C58.5238 9.91533 58.1239 9.71531 57.7239 9.81531C57.7239 9.81531 57.7239 9.782 57.7239 9.71533C58.0239 9.61533 58.1237 9.11531 58.0237 8.81531H57.9238C57.8238 8.41531 57.3237 8.31538 57.0237 8.51538C57.0237 8.51538 56.9905 8.48195 56.9238 8.41528C57.3238 8.21528 57.3238 7.71528 57.1238 7.41528C56.8238 7.11528 56.4238 7.01531 56.1238 7.31531C56.0571 7.24864 56.0237 7.21533 56.0237 7.21533C56.3237 6.91533 56.3237 6.51533 56.0237 6.21533C55.7237 5.91533 55.3237 5.91533 55.0237 6.21533C55.0237 6.21533 54.9905 6.18202 54.9238 6.11536C55.2238 5.81536 55.1237 5.41536 54.8237 5.11536C54.5237 4.91536 54.0237 4.91531 53.8237 5.31531C53.7571 5.24864 53.7239 5.21533 53.7239 5.21533C53.9239 4.91533 53.8238 4.41533 53.4238 4.21533C53.1238 4.11533 52.6237 4.21538 52.5237 4.51538C52.457 4.51538 52.3904 4.51538 52.3237 4.51538C52.3904 4.51538 52.4238 4.51538 52.4238 4.51538C52.5238 4.11538 52.3238 3.71536 51.9238 3.61536C51.6238 3.41536 51.2237 3.61538 51.0237 4.01538C51.0237 4.01538 50.9905 4.01538 50.9238 4.01538C50.9238 3.94871 50.9238 3.91528 50.9238 3.91528C51.0238 3.61528 50.8238 3.21536 50.4238 3.11536C50.0238 3.01536 49.6237 3.31536 49.5237 3.61536C49.5237 3.61536 49.5237 3.64867 49.5237 3.71533C49.5237 3.71533 49.4905 3.68202 49.4238 3.61536C49.4238 3.21536 49.2237 2.91528 48.8237 2.91528C48.4237 2.91528 48.0237 3.11538 48.0237 3.51538C48.0237 3.51538 47.9905 3.51538 47.9238 3.51538C47.9238 3.11538 47.5239 2.91528 47.2239 2.91528H47.1238C46.7238 2.91528 46.5237 3.21536 46.5237 3.61536C46.457 3.68202 46.4238 3.71533 46.4238 3.71533C46.4238 3.71533 46.4238 3.68202 46.4238 3.61536C46.3238 3.31536 45.9237 3.01536 45.5237 3.11536C45.1237 3.21536 44.9237 3.61528 45.0237 3.91528C45.0237 3.98195 45.0237 4.01538 45.0237 4.01538C44.957 4.01538 44.9238 4.01538 44.9238 4.01538C44.7238 3.61538 44.3237 3.41536 44.0237 3.61536C43.6237 3.71536 43.4238 4.11538 43.6238 4.51538C43.5571 4.51538 43.5237 4.51538 43.5237 4.51538C43.457 4.51538 43.4238 4.51538 43.4238 4.51538C43.3238 4.21538 42.8237 4.11533 42.5237 4.21533V4.31531C42.1237 4.41531 42.0239 4.91533 42.2239 5.21533C42.2239 5.21533 42.1904 5.24864 42.1238 5.31531C41.9238 5.01531 41.4238 4.91536 41.1238 5.11536C40.8238 5.41536 40.8237 5.81536 41.0237 6.11536C40.957 6.18202 40.9238 6.21533 40.9238 6.21533C40.6238 5.91533 40.2238 5.91533 39.9238 6.21533C39.6238 6.51533 39.6238 6.91533 39.9238 7.21533C39.9238 7.21533 39.8904 7.24864 39.8237 7.31531C39.5237 7.01531 39.1237 7.11528 38.8237 7.41528C38.6237 7.71528 38.7237 8.21528 39.0237 8.41528C39.0237 8.48195 38.9905 8.51538 38.9238 8.51538C38.6238 8.31538 38.1237 8.41531 38.0237 8.81531H37.9238C37.8238 9.11531 37.9239 9.61533 38.2239 9.71533C38.2239 9.71533 38.2239 9.74864 38.2239 9.81531C38.2239 9.81531 38.2239 9.84862 38.2239 9.91528C37.8239 9.71528 37.4237 9.91531 37.3237 10.3153C37.1237 10.6153 37.3239 11.0153 37.7239 11.2153C37.7239 11.2153 37.7239 11.2486 37.7239 11.3153C37.7239 11.3153 37.6904 11.3153 37.6238 11.3153C37.3238 11.2153 36.9237 11.4153 36.8237 11.8153C36.7237 12.2153 37.0238 12.6153 37.4238 12.7153C37.4238 12.7153 37.4238 12.7486 37.4238 12.8153C37.3572 12.8153 37.3237 12.8153 37.3237 12.8153C37.0237 12.8153 36.6238 13.0153 36.6238 13.4153V13.5154C36.6238 13.8154 36.8238 14.1153 37.1238 14.2153C37.1904 14.2153 37.2239 14.2153 37.2239 14.2153C37.2239 14.2153 37.2571 14.2153 37.3237 14.2153C37.3237 14.282 37.3237 14.3153 37.3237 14.3153C37.2571 14.3153 37.2239 14.3153 37.2239 14.3153C36.8239 14.3153 36.6238 14.7154 36.6238 15.1154C36.6238 15.4154 36.8238 15.6153 37.1238 15.7153C37.1904 15.7153 37.2571 15.7153 37.3237 15.7153C37.3237 15.7153 37.3572 15.7153 37.4238 15.7153C37.4238 15.782 37.4238 15.8153 37.4238 15.8153C37.4238 15.8153 37.3904 15.8153 37.3237 15.8153C37.0237 15.9153 36.7237 16.3153 36.8237 16.7153C36.9237 17.0153 37.1238 17.2153 37.4238 17.2153C37.4905 17.2153 37.5571 17.2153 37.6238 17.2153C37.6904 17.2153 37.7239 17.2153 37.7239 17.2153C37.7239 17.282 37.7239 17.3153 37.7239 17.3153C37.3239 17.5153 37.1237 17.9153 37.3237 18.2153C37.4237 18.5153 37.6237 18.6153 37.8237 18.7153C37.9571 18.7153 38.0905 18.7153 38.2239 18.7153C38.2239 18.6487 38.2239 18.6154 38.2239 18.6154C38.2239 18.682 38.2239 18.7486 38.2239 18.8153C37.9239 18.9153 37.8238 19.4153 37.9238 19.7153H38.0237C38.0903 19.9153 38.2238 20.0487 38.4238 20.1154C38.6238 20.1154 38.7905 20.082 38.9238 20.0154C38.9905 20.0154 39.0237 20.0487 39.0237 20.1154C38.7237 20.3154 38.6237 20.8154 38.8237 21.1154C38.9571 21.2487 39.0905 21.3153 39.2239 21.3153C39.4239 21.382 39.6237 21.3487 39.8237 21.2153C39.8904 21.282 39.9238 21.3153 39.9238 21.3153C39.6238 21.6153 39.6238 22.0153 39.9238 22.3153C40.0572 22.4486 40.1904 22.5154 40.3237 22.5154C40.5237 22.6154 40.7238 22.5153 40.9238 22.3153C40.9238 22.3153 40.957 22.3486 41.0237 22.4153C40.8237 22.7153 40.8238 23.1153 41.1238 23.4153C41.2571 23.482 41.3572 23.5154 41.4238 23.5154C41.7238 23.6154 41.9238 23.5153 42.1238 23.2153C42.1904 23.282 42.2239 23.3153 42.2239 23.3153C42.0239 23.6153 42.1237 24.1153 42.5237 24.2153V24.3153C42.5903 24.3153 42.6572 24.3153 42.7239 24.3153C43.0239 24.4153 43.3238 24.3154 43.4238 24.0154C43.4905 24.0154 43.5237 24.0154 43.5237 24.0154C43.5237 24.0154 43.5571 24.0154 43.6238 24.0154C43.4238 24.4154 43.6237 24.8153 44.0237 24.9153C44.0237 24.982 44.0571 25.0154 44.1238 25.0154C44.4238 25.0154 44.8238 24.9154 44.9238 24.5154C44.9238 24.5154 44.957 24.5154 45.0237 24.5154C45.0237 24.5154 45.0237 24.5487 45.0237 24.6154C44.9237 24.9154 45.2237 25.3153 45.5237 25.4153H45.6238C45.9238 25.5153 46.3238 25.2153 46.4238 24.9153C46.4238 24.8486 46.4238 24.8153 46.4238 24.8153C46.4238 24.8153 46.457 24.8486 46.5237 24.9153C46.5237 25.2153 46.7237 25.5154 47.0237 25.6154C47.0903 25.6154 47.1238 25.6154 47.1238 25.6154H47.2239C47.5239 25.6154 47.9238 25.4154 47.9238 25.0154C47.9905 25.0154 48.0237 25.0154 48.0237 25.0154C48.0237 25.3154 48.3238 25.5154 48.6238 25.6154C48.6904 25.6154 48.7571 25.6154 48.8237 25.6154C49.2237 25.6154 49.5238 25.3153 49.4238 24.9153C49.4905 24.9153 49.5237 24.882 49.5237 24.8153C49.5237 24.882 49.5237 24.9153 49.5237 24.9153C49.6237 25.1153 49.8238 25.3153 50.1238 25.4153C50.1904 25.4153 50.2905 25.4153 50.4238 25.4153C50.8238 25.3153 51.0238 24.9154 50.9238 24.6154C50.9238 24.6154 50.9238 24.582 50.9238 24.5154C50.9905 24.5154 51.0237 24.5154 51.0237 24.5154C51.1237 24.8154 51.3237 24.9154 51.5237 25.0154C51.657 25.0154 51.7905 24.982 51.9238 24.9153H52.0237C52.3237 24.8153 52.5238 24.4154 52.4238 24.0154C52.4238 24.0154 52.3904 24.0154 52.3237 24.0154C52.3904 24.0154 52.457 24.0154 52.5237 24.0154C52.5903 24.2154 52.7238 24.3153 52.9238 24.3153C53.1238 24.382 53.2905 24.382 53.4238 24.3153V24.2153C53.8238 24.1153 53.9239 23.6153 53.7239 23.3153C53.7239 23.3153 53.7571 23.282 53.8237 23.2153C53.8237 23.2153 53.8237 23.2486 53.8237 23.3153C53.9571 23.4486 54.0905 23.5154 54.2239 23.5154C54.4239 23.582 54.6237 23.5486 54.8237 23.4153C55.1237 23.1153 55.2238 22.7153 54.9238 22.4153C54.9905 22.3486 55.0237 22.3153 55.0237 22.3153C55.157 22.4486 55.2905 22.5154 55.4238 22.5154C55.6238 22.6154 55.8237 22.5153 56.0237 22.3153C56.3237 22.0153 56.3237 21.6153 56.0237 21.3153C56.0903 21.3153 56.1238 21.282 56.1238 21.2153C56.1904 21.282 56.2905 21.3486 56.4238 21.4153C56.6238 21.4153 56.9238 21.3154 57.1238 21.1154C57.3238 20.8154 57.3238 20.3154 56.9238 20.1154C56.9905 20.0487 57.0237 20.0154 57.0237 20.0154C57.0903 20.082 57.1572 20.1154 57.2239 20.1154C57.5239 20.1154 57.8237 20.0153 58.0237 19.7153C58.2237 19.4153 58.0239 19.0153 57.7239 18.8153C57.7239 18.7486 57.7239 18.7153 57.7239 18.7153C57.7905 18.7153 57.8237 18.7153 57.8237 18.7153C58.2237 18.8153 58.5238 18.6153 58.6238 18.3153V18.2153C58.8238 17.9153 58.6239 17.5153 58.2239 17.3153Z" fill="#FEFEFE"/>
<path d="M53.6238 15.5154C52.9238 18.6154 49.8239 20.6153 46.7239 19.9153C43.6239 19.2153 41.7237 16.1154 42.3237 13.0154C43.0237 9.91542 46.1239 7.9154 49.2239 8.6154C52.3239 9.3154 54.3238 12.4154 53.6238 15.5154Z" fill="#6ECFF5"/>
<path d="M12.2239 14.0154L14.8237 13.6154L16.6238 24.4153L13.5237 24.9153L12.3237 17.1154C11.6571 17.4487 11.057 17.7153 10.5237 17.9153L10.0237 15.1154L12.2239 14.0154Z" fill="#050505"/>
<path fill-rule="evenodd" clip-rule="evenodd" d="M20.3237 12.5154C21.457 12.3821 22.357 12.5487 23.0236 13.0154C23.6903 13.5487 24.0905 14.282 24.2238 15.2153C24.3572 16.1487 24.1905 16.882 23.7238 17.4153C24.6572 17.882 25.1904 18.5821 25.3237 19.5154C25.7237 21.9154 24.6571 23.3153 22.1237 23.7153C19.5904 24.182 18.1238 23.2153 17.7238 20.8153C17.5905 19.882 17.8904 19.0487 18.6237 18.3153C17.9571 17.9153 17.5571 17.2487 17.4238 16.3153C17.2905 15.382 17.4237 14.582 17.8237 13.9153C18.2904 13.182 19.1237 12.7154 20.3237 12.5154ZM21.0236 16.8153C21.357 16.8153 21.4905 16.5487 21.4238 16.0154C21.3571 15.5487 21.1238 15.3153 20.7238 15.3153C20.3905 15.382 20.257 15.682 20.3237 16.2153C20.3904 16.682 20.6236 16.882 21.0236 16.8153ZM21.6237 21.0154C22.1571 20.9487 22.3904 20.6154 22.3237 20.0154C22.1904 19.3487 21.857 19.0487 21.3237 19.1154C20.857 19.2487 20.6572 19.6153 20.7238 20.2153C20.8572 20.8153 21.1571 21.0821 21.6237 21.0154Z" fill="#050505"/>
<path d="M13.4238 12.7153L16.0237 12.3153L17.7239 23.1154L14.7239 23.6154L13.5237 15.8153C12.7903 16.1486 12.1905 16.4154 11.7239 16.6154L11.2239 13.7153L13.4238 12.7153Z" fill="#FEFEFE"/>
<path fill-rule="evenodd" clip-rule="evenodd" d="M21.4238 11.2154C22.6238 11.0154 23.5571 11.182 24.2238 11.7154C24.8238 12.2487 25.2238 12.982 25.4238 13.9153C25.5571 14.8486 25.357 15.5821 24.8237 16.1154C25.8237 16.5821 26.3903 17.282 26.5236 18.2154C26.9236 20.6154 25.857 22.0153 23.3237 22.4153C20.7237 22.8153 19.2571 21.8487 18.9238 19.5154C18.7238 18.5154 19.0237 17.6486 19.8237 16.9153C19.157 16.582 18.757 15.9487 18.6237 15.0154C18.4237 14.0821 18.5569 13.2487 19.0236 12.5154C19.4903 11.8487 20.2904 11.4154 21.4238 11.2154ZM22.1237 15.5154C22.5237 15.4487 22.6904 15.182 22.6237 14.7154C22.4904 14.182 22.2571 13.9487 21.9238 14.0154C21.5904 14.0821 21.4569 14.3487 21.5236 14.8153C21.5903 15.3487 21.7904 15.5821 22.1237 15.5154ZM22.8237 19.7154C23.357 19.582 23.5903 19.2154 23.5236 18.6154C23.3903 18.0154 23.0569 17.7487 22.5236 17.8153C21.9903 17.882 21.7904 18.2486 21.9238 18.9153C21.9904 19.5153 22.2903 19.782 22.8237 19.7154Z" fill="#FEFEFE"/>
<path fill-rule="evenodd" clip-rule="evenodd" d="M12.9238 36.1154C13.8238 35.9154 14.9237 35.8154 15.0237 39.0154C15.1237 42.0154 14.1238 42.3154 12.6238 42.5154L12.1238 42.6154L11.9238 36.3153L12.9238 36.1154ZM12.9238 36.8153L13.0237 41.7154C14.3237 41.5154 14.2239 40.2154 14.2239 39.1154C14.2239 38.2154 14.3238 36.5153 12.9238 36.8153Z" fill="#FEFEFE"/>
<path d="M15.9238 35.3153L15.5237 35.1154L16.1238 33.7153L16.7239 34.0154L15.9238 35.3153ZM16.5237 41.9153L15.7239 42.0154L15.6238 35.6154L16.4238 35.5154L16.5237 41.9153Z" fill="#FEFEFE"/>
<path fill-rule="evenodd" clip-rule="evenodd" d="M18.7239 35.0154L20.2239 41.2153L19.4238 41.3153L19.1238 40.1154L17.9238 40.4153L17.7239 41.6154L16.9238 41.8153L18.1238 35.2153L18.7239 35.0154ZM18.7239 38.5154L18.4238 36.3153L17.9238 39.6154L18.9238 39.4153L18.7239 38.5154Z" fill="#FEFEFE"/>
<path fill-rule="evenodd" clip-rule="evenodd" d="M22.8237 34.3153C23.8237 34.1153 24.9238 34.0154 24.9238 37.2154C25.0238 40.2154 24.1238 40.5153 22.6238 40.8153L22.0237 40.9153L21.9238 34.5154L22.8237 34.3153ZM22.7239 35.0154L22.8237 40.0154C24.2237 39.8154 24.1238 38.4153 24.1238 37.4153C24.0238 36.4153 24.1239 34.7154 22.7239 35.0154Z" fill="#FEFEFE"/>
<path d="M27.7239 33.4153V34.2153L26.3237 34.4153L26.4238 36.4153L27.6238 36.2153V36.9153L26.4238 37.2153V39.3153L27.8237 39.1154L27.9238 39.8153L25.6238 40.2153L25.5237 33.8153L27.7239 33.4153Z" fill="#FEFEFE"/>
<path d="M30.5237 32.9153L30.6238 38.6154L32.0237 38.3153V39.1154L29.8237 39.5154L29.6238 33.1154L30.5237 32.9153Z" fill="#FEFEFE"/>
<path fill-rule="evenodd" clip-rule="evenodd" d="M33.7239 32.4153L35.2239 38.5154L34.3237 38.7153L34.1238 37.4153L32.8237 37.7153L32.6238 39.0154L31.8237 39.1154L33.0237 32.5154L33.7239 32.4153ZM33.8237 35.9153L33.4238 33.7153L33.0237 37.0154L34.0237 36.8153L33.8237 35.9153Z" fill="#FEFEFE"/>
<path d="M77.2239 40.1154L7.32373 52.5154L7.02368 47.9153L76.6238 35.7153L77.2239 40.1154Z" fill="#28C5EF"/>
<path d="M10.7239 48.1154V48.8153L13.5237 48.3153V50.1154L10.8237 50.6154V51.2153L13.8237 50.7153L13.9238 52.7153L8.72388 53.6154L8.52368 46.4153L13.6238 45.5154L13.7239 47.6154L10.7239 48.1154Z" fill="#FEFEFE"/>
<path d="M15.9238 49.7153C16.4572 50.1819 17.0238 50.3486 17.6238 50.2153C18.0238 50.1486 18.2239 50.0152 18.2239 49.8152C18.2239 49.6819 18.0904 49.582 17.8237 49.5153C17.6237 49.5153 17.357 49.4819 17.0237 49.4152C16.6237 49.3486 16.2572 49.2486 15.9238 49.1153C15.5905 48.982 15.3238 48.782 15.1238 48.5153C14.8571 48.2487 14.7239 47.8819 14.7239 47.4152C14.6572 47.0152 14.8239 46.5487 15.2239 46.0153C15.5239 45.4153 16.3239 44.9152 17.2239 44.8152C18.0239 44.6152 18.7238 44.8153 19.1238 45.0153C19.6238 45.2153 19.9238 45.5153 20.1238 45.7153L20.2239 45.8152L18.8237 47.2153C18.5571 46.9486 18.3238 46.7819 18.1238 46.7153C17.9238 46.7153 17.6571 46.7153 17.3237 46.7153C17.0237 46.8153 16.8237 47.0153 16.8237 47.1153C16.8237 47.3153 17.2239 47.5153 17.7239 47.5153C17.9905 47.582 18.2904 47.6486 18.6238 47.7153C18.8904 47.7819 19.1572 47.882 19.4238 48.0153C19.6905 48.1487 19.8903 48.3486 20.0237 48.6153C20.2237 48.8153 20.3237 49.1153 20.3237 49.5153C20.3237 49.9153 20.1237 50.5153 19.8237 51.0153C19.4237 51.6153 18.6238 52.1153 17.6238 52.2153C16.8238 52.3486 16.1571 52.282 15.6238 52.0153C15.0904 51.7487 14.6905 51.4153 14.4238 51.0153L15.9238 49.7153Z" fill="#FEFEFE"/>
<path d="M28.4238 47.2153C28.2905 48.1487 27.8905 48.982 27.2239 49.7153C26.5572 50.382 25.7571 50.8154 24.8237 51.0154C23.8237 51.1487 22.9572 50.9153 22.2239 50.3153C21.4905 49.7153 21.0903 48.9153 21.0237 47.9153C21.0237 46.8486 21.357 45.8821 22.0237 45.0154C22.6903 44.2154 23.5571 43.7154 24.6238 43.5154C25.5571 43.3821 26.357 43.5487 27.0237 44.0154C27.757 44.4821 28.2238 45.1487 28.4238 46.0154L26.1238 46.4153C25.9904 46.082 25.7903 45.8487 25.5237 45.7153C25.257 45.5153 24.9905 45.4487 24.7239 45.5154C24.2572 45.5821 23.8904 45.8153 23.6238 46.2153C23.3571 46.6153 23.2239 47.0487 23.2239 47.5154C23.2239 47.9821 23.3905 48.3487 23.7239 48.6154C23.9905 48.882 24.3571 48.982 24.8237 48.9153C25.0904 48.9153 25.3571 48.7821 25.6238 48.5154C25.8904 48.2487 26.0905 47.9487 26.2239 47.6154L28.4238 47.2153Z" fill="#FEFEFE"/>
<path fill-rule="evenodd" clip-rule="evenodd" d="M33.1238 42.1154L35.9238 48.9153L33.6238 49.3153L33.4238 48.6154L31.1238 49.0154L30.9238 49.8153L28.6238 50.2153L31.0237 42.5154L33.1238 42.1154ZM31.7239 46.8153L32.6238 46.7153L32.1238 45.2153L31.7239 46.8153Z" fill="#FEFEFE"/>
<path fill-rule="evenodd" clip-rule="evenodd" d="M42.9238 47.7153L40.3237 48.1154L38.8237 46.6154H38.6238L38.7239 48.4153L36.6238 48.8153L36.3237 41.6154L39.2239 41.1154C39.3239 41.1154 39.4237 41.0154 39.8237 41.0154C40.2237 41.0154 40.5237 41.1153 41.0237 41.3153C41.4237 41.5153 41.7238 41.8153 41.9238 42.3153C42.0572 42.582 42.1238 42.9153 42.1238 43.3153C42.1904 44.3153 41.8237 45.1153 41.0237 45.7153L42.9238 47.7153ZM38.5237 43.3153L38.6238 44.6154L39.4238 44.5154C39.8238 44.4487 40.0237 44.182 40.0237 43.7153C39.9237 43.3153 39.7238 43.1154 39.4238 43.1154L38.5237 43.3153Z" fill="#FEFEFE"/>
<path fill-rule="evenodd" clip-rule="evenodd" d="M47.7239 39.6154L50.5237 46.4153L48.2239 46.8153L47.9238 46.1154L45.7239 46.5154L45.4238 47.2153L43.2239 47.6154L45.5237 40.0154L47.7239 39.6154ZM46.3237 44.3153L47.3237 44.1154L46.7239 42.7153L46.3237 44.3153Z" fill="#FEFEFE"/>
<path fill-rule="evenodd" clip-rule="evenodd" d="M50.9238 39.0154L53.8237 38.5154C53.9237 38.5154 54.0238 38.5154 54.4238 38.5154C54.7238 38.5154 55.1237 38.6153 55.5237 38.8153C55.9237 39.0153 56.3237 39.2153 56.5237 39.8153C56.657 40.082 56.7239 40.4153 56.7239 40.8153C56.7239 41.5153 56.5239 42.1154 56.2239 42.6154C56.0905 42.8154 55.9239 42.982 55.7239 43.1154C55.1239 43.6154 54.4238 43.8153 54.1238 43.9153H54.0237L53.2239 44.1154L53.3237 45.9153L51.1238 46.2153L50.9238 39.0154ZM53.9238 40.6154L53.1238 40.7153L53.2239 42.1154L54.0237 41.9153C54.357 41.8486 54.5237 41.6153 54.5237 41.2153C54.5237 40.7153 54.3238 40.5154 53.9238 40.6154Z" fill="#FEFEFE"/>
<path d="M59.4238 39.6154V40.3153L62.2239 39.8153L62.3237 41.7153L59.5237 42.1154V42.7153L62.5237 42.2153L62.6238 44.3153L57.5237 45.1154L57.2239 37.9153L62.3237 37.0154L62.4238 39.1154L59.4238 39.6154Z" fill="#FEFEFE"/>
<path d="M65.4238 36.5154L65.6238 41.7153L68.6238 41.2153L68.7239 43.2153L63.6238 44.1154L63.3237 36.9153L65.4238 36.5154Z" fill="#FEFEFE"/>
<path fill-rule="evenodd" clip-rule="evenodd" d="M73.6238 35.1154L76.5237 41.8153L74.2239 42.2153L73.9238 41.5154L71.6238 41.9153L71.4238 42.7153L69.1238 43.1154L71.5237 35.4153L73.6238 35.1154ZM72.2239 39.9153L73.1238 39.7153L72.6238 38.3153L72.2239 39.9153Z" fill="#FEFEFE"/>
</g>
<defs>
<clipPath id="clip0_239_65474">
<rect width="77" height="68" fill="white"/>
</clipPath>
</defs>
</svg>
