<svg width="95" height="100" viewBox="0 0 95 100" fill="none" xmlns="http://www.w3.org/2000/svg">
<g clip-path="url(#clip0_239_65123)">
<path d="M87.9001 0L19.5 6.70007L25.7002 70.6L94.8 63.1L87.9001 0Z" fill="#ED2930"/>
<path d="M25.7002 70.6L22 74.7001L92.4001 66.8L94.8 63.1L25.7002 70.6Z" fill="#9B181B"/>
<path d="M85.8 32.2001L47.4001 37.1L46.7002 32.4L85.4001 27.4L85.8 32.2001Z" fill="#1C78BD"/>
<path d="M85 50.5L49.9001 55L49.3 50.2001L84.7002 45.7001L85 50.5Z" fill="#1C78BD"/>
<path fill-rule="evenodd" clip-rule="evenodd" d="M51.5 13.7001L52.6001 19.6L51.8 19.7001L51.6001 18.5L50.4001 18.7001L50.1001 19.9L49.3 20L50.9001 13.7001H51.5ZM51.3 17.1L51.1001 14.9V15L50.5 18.1L51.5 18L51.3 17.1Z" fill="#FEFEFE"/>
<path d="M53.7002 15.2001L53.8 17.2001L53.7002 19.5L52.9001 19.6L53.1001 13.5L53.9001 13.4L55.1001 17.9V17.8L55 15.4L55.1001 13.2001L55.9001 13.1L55.7002 19.3H54.9001L53.7002 14.8V15.2001Z" fill="#FEFEFE"/>
<path d="M57.2002 19.1L56.4001 19.2001L56.7002 13.1L57.5 13L57.2002 19.1Z" fill="#FEFEFE"/>
<path d="M58.6001 12.8L59.1001 17.4L59.2002 17.3V17L59.6001 14.9L60.1001 12.7001L60.8 12.6L59.4001 18.8L58.8 18.9L57.8 12.9L58.6001 12.8Z" fill="#FEFEFE"/>
<path d="M63.3 12.3V13L61.9001 13.2001L61.8 15.1L63 14.9V15.6L61.8 15.8L61.7002 17.9L63.1001 17.7001L63 18.4L60.9001 18.7001L61.2002 12.5L63.3 12.3Z" fill="#FEFEFE"/>
<path fill-rule="evenodd" clip-rule="evenodd" d="M63.7002 12.2001L64.7002 12.1C65.3002 12.1 66.2001 12 66.1001 13.5C66.1001 14.1 65.9002 15.0001 65.2002 15.2001L66.2002 18L65.4001 18.1L64.4001 15.3001L64.3 18.3001L63.5 18.4001L63.7002 12.2001ZM65.2002 13.7001C65.2002 13.1001 65.2001 12.7001 64.6001 12.7001L64.4001 12.8001V14.8001C65.0001 14.7001 65.2002 14.3001 65.2002 13.7001Z" fill="#FEFEFE"/>
<path d="M68.6001 12.6C68.4001 12.5 68.2 12.4 68 12.4C67.5 12.5 67.3002 12.9001 67.2002 13.3001C67.2002 13.6001 67.3001 13.7 67.4001 13.9L68 14.5C68.5 15 68.8 15.4001 68.8 16.2001C68.8 17.1001 68.2 17.9 67.3 18C67 18 66.7001 18.0001 66.4001 17.8001L66.5 17C66.7 17.1 66.9 17.2001 67.3 17.2001C67.7 17.2001 68 16.7001 68 16.3001C68 15.1001 66.4001 15 66.4001 13.4C66.5001 12.5 67.0001 11.8001 67.9001 11.7001C68.1668 11.6334 68.4335 11.6667 68.7002 11.8001L68.6001 12.6Z" fill="#FEFEFE"/>
<path fill-rule="evenodd" clip-rule="evenodd" d="M70.9001 11.4L72 17.4L71.2002 17.5L71 16.3L69.8 16.4L69.5 17.7001H68.7002L70.3 11.5L70.9001 11.4ZM70.8 14.8L70.5 12.6L69.9001 15.8L70.9001 15.7001L70.8 14.8Z" fill="#FEFEFE"/>
<path fill-rule="evenodd" clip-rule="evenodd" d="M72.6001 11.2L73.5 11.0999C74.1 10.9999 75.0001 11 74.9001 12.5C74.9001 13.1 74.7 14 74 14.2L75 17L74.2002 17.0999L73.2002 14.2V14.3L73.1001 17.2L72.3 17.3L72.6001 11.2ZM74.1001 12.8C74.2001 12.2 74.1 11.7 73.5 11.8H73.4001L73.3 13.9C73.9 13.8 74.1001 13.4 74.1001 12.8Z" fill="#FEFEFE"/>
<path d="M76.2002 16.9L75.4001 17L75.7002 10.9L76.5 10.8L76.2002 16.9Z" fill="#FEFEFE"/>
<path fill-rule="evenodd" clip-rule="evenodd" d="M80.1 13.4C80 14.5 79.9 16.5 78.4 16.7C76.8 16.9 76.8999 14.9 76.9999 13.8C76.9999 12.7 77.1001 10.6 78.7001 10.4C80.2001 10.3 80.1 12.3 80.1 13.4ZM77.8 13.7C77.7 15 77.8 16 78.4 15.9C79 15.9 79.2001 14.8 79.2001 13.5C79.3001 12.2 79.2 11.1 78.6 11.2C78 11.3 77.9 12.4 77.8 13.7Z" fill="#FEFEFE"/>
<path fill-rule="evenodd" clip-rule="evenodd" d="M61.1001 21.1C62.1001 21 63.1 21 63 24.1C62.9 26.9 62 27.1001 60.5 27.3001L60 27.4001L60.2002 21.2001L61.1001 21.1ZM61 21.8001L60.8 26.6C62.1 26.5 62.1002 25.2001 62.2002 24.2001C62.2002 23.2001 62.4 21.6001 61 21.8001Z" fill="#FEFEFE"/>
<path d="M65.9001 20.6V21.3L64.5 21.5L64.4001 23.4L65.6001 23.2001V23.9L64.4001 24.1L64.3 26.2001L65.7002 26L65.6001 26.7001L63.5 27L63.7002 20.8L65.9001 20.6Z" fill="#FEFEFE"/>
<path d="M68.5 20.3L68.3 25.7001L69.7002 25.5L69.6001 26.2001L67.5 26.5L67.7002 20.4L68.5 20.3Z" fill="#FEFEFE"/>
<path fill-rule="evenodd" clip-rule="evenodd" d="M71.7002 19.9L72.7002 25.9L71.9001 26L71.7002 24.8L70.5 25L70.3 26.2001L69.5 26.3L71 20L71.7002 19.9ZM71.6001 23.3L71.4001 21.1H71.3L70.7002 24.3L71.7002 24.2001L71.6001 23.3Z" fill="#FEFEFE"/>
<path fill-rule="evenodd" clip-rule="evenodd" d="M64.7002 38.4C65.7002 38.3 66.7001 38.2 66.6001 41.3C66.5001 44.1 65.6001 44.4 64.1001 44.5L63.6001 44.5999L63.8 38.5L64.7002 38.4ZM64.6001 39.0999L64.4001 43.8C65.7001 43.7 65.7 42.4 65.8 41.4C65.8 40.5 66.0001 38.7999 64.6001 39.0999Z" fill="#FEFEFE"/>
<path d="M69.5 37.8V38.5L68.1001 38.7001L68 40.6L69.2002 40.5V41.2001L68 41.3L67.9001 43.4L69.3 43.2001L69.2002 43.9L67.1001 44.2001L67.3 38.1L69.5 37.8Z" fill="#FEFEFE"/>
<path d="M55 32.7001C54.7333 32.3668 54.4669 32.1667 54.2002 32.1C53.8669 32.0333 53.5335 32 53.2002 32C52.7335 32.0667 52.3333 32.3001 52 32.7001C51.6667 33.1001 51.5 33.5667 51.5 34.1C51.5 34.5667 51.6335 34.9667 51.9001 35.3001C52.2335 35.6334 52.6334 35.7668 53.1001 35.7001C53.4334 35.6334 53.7001 35.5334 53.9001 35.4C54.1001 35.2667 54.2334 35.1333 54.3 35L54.4001 34.9L52.9001 35L53 33.2001L56.9001 32.7001V34.3001C56.8001 35.2001 56.4 35.9 56 36.4C55.8 36.6667 55.5667 36.8667 55.3 37C54.9667 37.2 54.7 37.3667 54.5 37.5C54.3 37.5667 54.0667 37.6334 53.8 37.7001C53.5334 37.7668 53.3667 37.8001 53.3 37.8001C53.2334 37.8667 53.1333 37.9 53 37.9C51.8667 38.0334 50.9335 37.7333 50.2002 37C49.4669 36.3333 49.1001 35.4334 49.1001 34.3001C49.1668 33.2334 49.5667 32.2667 50.3 31.4C51.1 30.5334 52.0669 30.0334 53.2002 29.9C54.7335 29.7 55.9002 30.2 56.7002 31.4L55 32.7001Z" fill="#FEFEFE"/>
<path d="M60.2002 31.4V32.1L63.2002 31.7001V33.7001L60.2002 34.1V34.7001L63.4001 34.4V36.5L57.8 37.2001L58 29.4L63.5 28.8V31L60.2002 31.4Z" fill="#FEFEFE"/>
<path d="M65.7002 33.4C66.2335 33.9334 66.8333 34.1667 67.5 34.1C67.9 34.0333 68.1001 33.8667 68.1001 33.6C68.1001 33.5333 68 33.4667 67.8 33.4C67.5334 33.2667 67.2335 33.1667 66.9001 33.1C66.5001 33.0333 66.1334 32.9001 65.8 32.7001C65.4667 32.5668 65.1668 32.3667 64.9001 32.1C64.6335 31.7667 64.5 31.3667 64.5 30.9C64.5667 30.4334 64.8002 29.9334 65.2002 29.4C65.6002 28.8 66.4 28.3001 67.5 28.2001C68.3 28.1001 69 28.3 69.5 28.6C69.9 28.8 70.3001 29.1 70.4001 29.4L70.5 29.5L69 30.9C68.7333 30.6334 68.4669 30.4667 68.2002 30.4C68.0002 30.3334 67.7667 30.3001 67.5 30.3001C67.1 30.4001 66.9001 30.5001 66.9001 30.7001C66.9001 30.9001 67.3 31.1001 67.8 31.2001C68.0667 31.2668 68.3669 31.3334 68.7002 31.4C68.9669 31.5334 69.2333 31.6667 69.5 31.8001C69.7667 31.9334 70.0002 32.1334 70.2002 32.4C70.4002 32.7334 70.4668 33.0667 70.4001 33.4C70.4001 33.9 70.2 34.5 69.8 35C69.3 35.6 68.4001 36.1001 67.4001 36.2001C66.4668 36.3334 65.7335 36.2334 65.2002 35.9C64.6669 35.5667 64.3001 35.2001 64.1001 34.8001L65.7002 33.4Z" fill="#FEFEFE"/>
<path d="M73.2002 29.9L71.1001 30.1V27.9L77.6001 27.2001V29.4L75.5 29.6L75.3 35.1L73.1001 35.4L73.2002 29.9Z" fill="#FEFEFE"/>
<path fill-rule="evenodd" clip-rule="evenodd" d="M81.8 26.7001L84.4001 34.1L82 34.4L81.7002 33.6L79.2002 33.9L79 34.7001L76.5 35L79.5 27L81.8 26.7001ZM80 31.6L81 31.5L80.6001 29.9L80 31.6Z" fill="#FEFEFE"/>
<path d="M56.1001 54.4L55.5 54.5L54.2002 52.4L54.1001 55.6L51.8 55.8L52 48.1L54.1001 47.9L55.9001 50.6L57.9001 47.4L60 47.2001L59.8 54.9L57.6001 55.2001V52L56.1001 54.4Z" fill="#FEFEFE"/>
<path fill-rule="evenodd" clip-rule="evenodd" d="M65.8 46.5L68.5 53.9L66 54.2001L65.7002 53.4L63.3 53.7001L63 54.5L60.5 54.8L63.5 46.8L65.8 46.5ZM64 51.4L65.1001 51.3L64.6001 49.7001L64 51.4Z" fill="#FEFEFE"/>
<path d="M72.1001 53.5L69.8 53.7001L69.9001 51.1L67.2002 46.3L69.8 46L71 48.4L72.4001 45.7001L75 45.4L72.1001 50.9V53.5Z" fill="#FEFEFE"/>
<path fill-rule="evenodd" clip-rule="evenodd" d="M78.8 44.9C79.9334 44.7667 80.8668 45.0334 81.6001 45.7001C82.3334 46.3667 82.7002 47.2667 82.7002 48.4C82.7002 49.5334 82.3 50.5334 81.5 51.4C80.7 52.2667 79.7334 52.7667 78.6001 52.9C77.4668 53.0334 76.5334 52.7333 75.8 52C75.0667 51.3333 74.7002 50.4334 74.7002 49.3001C74.7002 48.2334 75.1001 47.2667 75.9001 46.4C76.7001 45.5334 77.6667 45.0334 78.8 44.9ZM78.7002 50.7001C79.1002 50.6334 79.4667 50.4 79.8 50C80.1334 49.6 80.3 49.1667 80.3 48.7001C80.3667 48.1667 80.2335 47.7334 79.9001 47.4C79.5668 47.1334 79.1669 47 78.7002 47C78.3002 47.0667 77.9334 47.3001 77.6001 47.7001C77.2668 48.1001 77.1001 48.5666 77.1001 49.1C77.0334 49.5666 77.1667 49.9667 77.5 50.3001C77.8333 50.6334 78.2335 50.7667 78.7002 50.7001Z" fill="#FEFEFE"/>
<path d="M25.8 15.7001L25.7002 15C25.7002 14.7334 25.7002 14.5001 25.7002 14.3001C25.7002 14.1001 25.7334 13.8001 25.8 13.4001C25.8667 13.0667 26.0002 12.7334 26.2002 12.4001C26.4002 12.1334 26.7001 11.8667 27.1001 11.6C27.5668 11.3334 28.1002 11.1667 28.7002 11.1C30.1002 11 31.1001 11.4001 31.6001 11.9001C31.8668 12.1001 32.0669 12.4001 32.2002 12.8001C32.4002 13.1334 32.5334 13.4 32.6001 13.6C32.6001 13.8667 32.6001 14.1001 32.6001 14.3001V14.4001C32.7334 15.1334 32.5668 15.9334 32.1001 16.8001C31.6334 17.6001 31.1 18.3334 30.5 19L33.2002 18.8001L33.4001 21.5L26.6001 22.2001L26.4001 19.7001C28.0001 18.1001 29 16.8 29.3 16C29.5 15.6667 29.6335 15.4001 29.7002 15.2001C29.7002 15.0001 29.7002 14.8335 29.7002 14.7001C29.7002 14.3001 29.7 14.1 29.5 14C29.3667 13.8667 29.2 13.8001 29 13.8001C28.6 13.9001 28.6001 14.2001 28.6001 14.8001L28.7002 15.4001L25.8 15.7001Z" fill="#050505"/>
<path fill-rule="evenodd" clip-rule="evenodd" d="M41.9001 16.1L42.2002 18.9L41.1001 19L41.3 20.8L38.3 21.1L38.1001 19.2001L34.3 19.6L34 17.1L37.1001 10.5L40.3 10.2001L40.8 16.2001L41.9001 16.1ZM37 16.6L38.1001 16.5L38 14.5L37 16.6Z" fill="#050505"/>
<path d="M26.8 14.2001L26.7002 13.5C26.7002 13.2334 26.7002 13.0001 26.7002 12.8001C26.7002 12.6001 26.7334 12.3001 26.8 11.9001C26.8667 11.5001 27.0002 11.1667 27.2002 10.9001C27.4002 10.6334 27.7001 10.3667 28.1001 10.1C28.5668 9.83335 29.1002 9.66669 29.7002 9.60002C31.1002 9.50002 32.1001 9.90007 32.6001 10.4001C32.8668 10.6001 33.0669 10.9001 33.2002 11.3001C33.4002 11.6334 33.5334 11.9 33.6001 12.1C33.6001 12.3667 33.6335 12.6001 33.7002 12.8001V12.9001C33.7669 13.6334 33.5668 14.4334 33.1001 15.3001C32.7001 16.1001 32.2001 16.8334 31.6001 17.5L34.2002 17.3001L34.4001 20L27.6001 20.7001L27.4001 18.2001C29.0001 16.6001 30.0001 15.3 30.4001 14.5C30.5335 14.1 30.6335 13.8335 30.7002 13.7001C30.7002 13.5001 30.7002 13.3 30.7002 13.1C30.7002 12.8 30.7 12.6001 30.5 12.4001C30.3667 12.3334 30.2334 12.3001 30.1001 12.3001C29.6001 12.4001 29.6001 12.7001 29.6001 13.3001L29.7002 13.9001L26.8 14.2001Z" fill="#FEFEFE"/>
<path fill-rule="evenodd" clip-rule="evenodd" d="M42.9001 14.6L43.2002 17.4L42.1001 17.5L42.3 19.3L39.3 19.6L39.2002 17.7001L35.3 18.1L35.1001 15.6L38.1001 9L41.3 8.70007L41.9001 14.7001L42.9001 14.6ZM37.9001 15.1L39.1001 15L38.9001 13L37.9001 15.1Z" fill="#FEFEFE"/>
<path opacity="0.2" d="M4.1001 96.1C4.1001 98.2 12.3001 99.9 22.4001 99.9C32.5001 99.9 40.6001 98.2 40.6001 96.1C40.6001 94.1 32.5001 92.4 22.4001 92.4C12.3001 92.4 4.1001 94.1 4.1001 96.1Z" fill="#1C1C1A"/>
<path d="M36.9001 85.2001L34.7002 85.3001C34.7002 85.3001 24.2002 84.2001 21.2002 83.7001C18.3002 83.3001 16.1 79.6 15.8 74.1C15.5 68.5 35.3 72.4001 35.3 72.4001L38.3 74.1L36.9001 84.6" fill="#050505"/>
<path d="M34.7002 85.5L36.9001 85.4001V85L34.7002 85.2001C34.3002 85.1001 24.2 84 21.3 83.6C18.3 83.1 16.3 79.4 16 74C15.9333 73.4 16.1669 72.9 16.7002 72.5C20.0002 69.6 34.5 72.4 35.3 72.5L38.1001 74.2001L36.8 84.5L37.1001 84.6L38.5 74L35.4001 72.2001H35.3C34.7 72.1001 20.0001 69.2001 16.4001 72.3001C15.8668 72.7668 15.6001 73.3667 15.6001 74.1C15.9001 79.7 18.1002 83.5001 21.2002 83.9001C24.2002 84.3001 34.6002 85.5 34.7002 85.5Z" fill="#050505"/>
<path d="M23.2002 79.7001L13 92.4L6 86.3L14.4001 71.4" fill="#FEFEFE"/>
<path d="M13 92.6C13.0666 92.6 13.1 92.6 13.1 92.6C13.1 92.6 13.1335 92.5667 13.2001 92.5L23.3 79.8001C23.3 79.7001 23.3 79.6 23.3 79.6C23.2 79.5 23.1 79.5 23 79.6L13 92.2001L6.20015 86.3001L14.6 71.5C14.6 71.4 14.6 71.3001 14.5 71.3001C14.4 71.2001 14.3 71.2001 14.3 71.3001L5.8 86.2001C5.73333 86.2668 5.73333 86.3334 5.8 86.4001L12.9001 92.5C12.9668 92.5667 13 92.6 13 92.6Z" fill="#050505"/>
<path d="M14.3 81.2001C14.6 77.1001 12.1001 75.5 12.1001 75.5L5.5 86.9C5.5 86.9 4.8001 88.4 1.6001 87.4L9.80005 94.4C10.4 94.8 11.2002 94.8001 11.7002 94.2001C13.3002 92.1001 16.8 87.8 17.5 86.9C16.8 86 14.2 83.1001 14.3 81.2001Z" fill="#783C18"/>
<path fill-rule="evenodd" clip-rule="evenodd" d="M9.70015 94.5L1.49995 87.5C1.43328 87.4333 1.43328 87.3667 1.49995 87.3C1.56662 87.2334 1.63348 87.2001 1.70015 87.2001C4.60015 88.2001 5.4001 86.9 5.4001 86.8L12 75.5C12 75.4333 12.0334 75.4 12.1 75.4C12.1 75.4 12.1335 75.4 12.2001 75.4C12.3001 75.5 14.8 77.1001 14.5 81.2001C14.3666 82.4001 15.4 84.2334 17.6 86.7001V86.8C17.6667 86.8667 17.6667 86.9333 17.6 87C16.9 87.9 13.3 92.4 11.8 94.3C11.6 94.6 11.2 94.8 10.8 94.8C10.8 94.8 10.7668 94.8 10.7001 94.8C10.3001 94.8 9.96681 94.7 9.70015 94.5ZM14.1 81.1C14.4 77.8 12.7 76.2 12.1 75.8L5.70015 87C5.70015 87 5 88.4001 2.3 87.7001L9.99995 94.2001C10.2 94.4001 10.4667 94.5 10.8 94.5C11.1333 94.4333 11.4 94.3 11.6 94.1C13 92.2 16.4 88 17.3 86.9C16.4 85.9 14 83.1 14.1 81.1Z" fill="#050505"/>
<path d="M16.8 87.1L17.1001 86.8C15.3668 85.0667 14.3668 83.4667 14.1001 82C14.0001 81.5 14 81 14 80.6C14 79.9 14.0002 79.3 13.7002 78.3C13.3002 77.1 12.6 76.3 12.3 76L12 76.3C12.3 76.5 13.0001 77.3 13.4001 78.4C13.6001 79.3 13.6001 80 13.6001 80.6C13.7001 81 13.7 81.5 13.8 82C14.0667 83.6 15.0667 85.3 16.8 87.1Z" fill="#FBB356"/>
<g style="mix-blend-mode:multiply" opacity="0.2">
<path d="M7.5 92.3L9.80005 94.4C10.4 94.8 11.2002 94.8001 11.7002 94.2001C13.0002 92.5001 15.6001 89.3001 16.9001 87.7001C16.2001 87.0001 15 85.8001 14.5 84.7001L10.2002 90.3C10.2002 90.3 9.90015 91.1 9.40015 90.9C8.90015 90.6 7.30005 89.6 7.30005 89.6C7.30005 89.6 8.3 90.8 8.5 91.4C8.6 91.8 8.1 92.3 7.5 92.3Z" fill="#050505"/>
</g>
<g style="mix-blend-mode:multiply" opacity="0.2">
<path d="M17.9001 86.3L24 78.7001L14.7002 71L13 74.1C13.7 74.1 17.5001 78.4 16.4001 80.8C16.4001 80.8667 16.3667 80.9333 16.3 81C16.2 80.1 15.8 78.4 15.5 78.1C15.1 77.7 15.3 78.9 15.5 80C15.7 80.9 15.6002 81.8001 15.7002 82.2001C15.5002 82.5001 15.4001 82.7001 15.4001 82.7001C15.4001 82.7001 16.5001 84.7 17.9001 86.3Z" fill="#050505"/>
</g>
<path d="M13.1002 71.2001C13.1002 71.2001 12.4003 74.4001 14.7003 76.7001C17.0003 79.0001 26.3001 80 30.5001 79.9C34.7001 79.8 37.5003 79.5 37.7003 77.9C38.0003 76.2 37.9002 73.3 37.9002 73.3L13.1002 71.2001Z" fill="#FEFEFE"/>
<path fill-rule="evenodd" clip-rule="evenodd" d="M14.6002 76.8C12.2002 74.5 12.9002 71.2 12.9002 71.1C13.0002 71.1 13.0002 71 13.1002 71L37.9002 73.1C38.0002 73.1 38.1002 73.2 38.1002 73.3C38.1002 73.4 38.1002 76.3 37.9002 77.9C37.6002 79.7 34.7001 79.9 30.5001 80.1C30.2334 80.1 29.9669 80.1 29.7003 80.1C25.1003 80.1 16.8002 79.1 14.6002 76.8ZM13.3001 71.4C13.2001 72 12.9001 74.6 14.8001 76.6C17.1001 78.9 26.4001 79.8001 30.5001 79.7001C34.4001 79.6001 37.3002 79.4 37.6002 77.8C37.8002 76.5 37.7003 74.1 37.7003 73.5L13.3001 71.4Z" fill="#050505"/>
<g style="mix-blend-mode:multiply" opacity="0.2">
<path d="M13.5 74.2001C13.5 74.2001 13.7 75.5 14.3 76.4C14.3 76.4 16.4 77.3 19.5 77.6C22.6 77.9 26.1002 76.5 29.7002 77.5V76.5L13.5 74.2001Z" fill="#050505"/>
</g>
<path d="M24.2002 78.5L23.9001 93.3L33.4001 93.2001L36.1001 78.4" fill="#FEFEFE"/>
<path d="M23.9001 93.5L33.4001 93.4001C33.5335 93.4001 33.6001 93.3335 33.6001 93.2001L36.3 78.5C36.3 78.4 36.2001 78.3001 36.1001 78.3001C36.0001 78.2001 35.9001 78.3001 35.9001 78.4001L33.3 93L24.1001 93.2001L24.4001 78.5C24.4001 78.4 24.3002 78.3001 24.2002 78.3001C24.1002 78.3001 24 78.4 24 78.5L23.7002 93.3001C23.7002 93.3668 23.7334 93.4334 23.8 93.5C23.8 93.5 23.8335 93.5 23.9001 93.5Z" fill="#050505"/>
<path d="M30.3 83.7C32.7 80.3 35.7002 80.8 35.7002 80.8L33.4001 93.9C33.4001 93.9 33.0001 95.6 36.1001 96.9L25.1001 96.3C24.4001 96.3 23.9001 95.6999 23.9001 94.9999C23.9001 92.5999 24 87.2999 24 86.0999C25.1 85.8999 29.1 85.3 30.3 83.7Z" fill="#783C18"/>
<path fill-rule="evenodd" clip-rule="evenodd" d="M36.1001 97L25.1001 96.5C24.3001 96.5 23.7002 95.8 23.7002 95C23.8002 92.7 23.8 87.3 23.8 86.1C23.8667 85.9666 23.9333 85.9 24 85.9C27.3333 85.4333 29.3668 84.6666 30.1001 83.6C32.6001 80.2 35.6002 80.6 35.7002 80.6C35.7669 80.6 35.8 80.6334 35.8 80.7001C35.8667 80.7001 35.8667 80.7334 35.8 80.8L33.5 94C33.5 94 33.2002 95.5001 36.2002 96.7001C36.2669 96.7667 36.3 96.8333 36.3 96.9C36.2334 96.9667 36.1668 97 36.1001 97ZM35.5 80.9C34.8 80.9 32.4001 81 30.4001 83.8C29.2001 85.4 25.5002 86.0001 24.2002 86.2001C24.2002 87.7001 24.1001 92.8 24.1001 95C24.1001 95.6 24.5002 96.1001 25.2002 96.2001L35.2002 96.6C32.9002 95.4 33.2002 94 33.2002 93.9L35.5 80.9Z" fill="#050505"/>
<g style="mix-blend-mode:multiply" opacity="0.2">
<path d="M30.1 94.2001L32.6 80.3C32.6 80.3 32.5666 80.3 32.4999 80.3L32.9 78.4H36.1L35.7001 80.8L33.4 93.9C33.4 93.9 33 95.6 36.1 96.9H32.1C29.8 95.6 30.1 94.2001 30.1 94.2001Z" fill="#050505"/>
</g>
<path d="M24.4001 86.7001C26.9335 86.4334 28.8334 85.8 30.1001 84.8C30.5001 84.4 30.8002 84.0001 31.2002 83.7001C31.6002 83.2001 32 82.7001 32.8 82.2001C33.8 81.5001 34.8002 81.4 35.2002 81.4V81C34.8002 81 33.7001 81.2 32.6001 81.9C31.8001 82.5 31.3001 83 30.9001 83.5C30.6001 83.8 30.3001 84.2 29.9001 84.5C28.7001 85.5 26.8668 86.1 24.4001 86.3V86.7001Z" fill="#FBB356"/>
<path d="M17.1002 55.5C17.0002 55.9 17.3002 56.1001 17.6002 56.2001L25.5001 57.2001C25.8001 57.3001 26.1002 57.1001 26.1002 56.8001L26.9002 51.3001C26.9002 51.0001 26.7002 50.7 26.4002 50.6L18.5001 49.6C18.2001 49.5 17.9001 49.7 17.8001 50L17.1002 55.5Z" fill="#D8DADF"/>
<path fill-rule="evenodd" clip-rule="evenodd" d="M25.5 57.4L17.6001 56.3C17.3334 56.3 17.1668 56.2333 17.1001 56.1C16.9668 55.9 16.9001 55.7 16.9001 55.5L17.7002 50C17.7002 49.8 17.7668 49.6333 17.9001 49.5C18.1001 49.4333 18.3 49.4 18.5 49.4L26.4001 50.5C26.8001 50.5 27.1 50.9 27 51.3L26.3 56.8C26.3 57 26.2 57.1667 26 57.3C25.8667 57.3667 25.7334 57.4 25.6001 57.4C25.5334 57.4 25.5 57.4 25.5 57.4ZM18.2002 49.8C18.0669 49.8667 18 49.9666 18 50.1L17.3 55.6C17.2334 55.6666 17.2334 55.7667 17.3 55.9C17.3667 55.9667 17.4668 56 17.6001 56L25.5 57.1C25.6333 57.1 25.7334 57.0667 25.8 57C25.8667 56.9333 25.9333 56.8334 26 56.7001L26.7002 51.2001C26.7002 51.0001 26.6001 50.8 26.4001 50.8L18.4001 49.7001C18.3335 49.7001 18.2669 49.7334 18.2002 49.8Z" fill="#050505"/>
<path d="M24.2002 54.7001C24.2669 54.7001 24.3335 54.6667 24.4001 54.6C24.4001 54.5 24.4 54.4001 24.3 54.4001C24.2 54.4001 22.9 54 21.5 53.6C20.3 53.2 19.6001 52.8001 19.6001 52.8001C19.5001 52.7001 19.4 52.7001 19.3 52.8001C19.3 52.9001 19.3001 53 19.4001 53C19.4001 53.1 20.1001 53.5001 21.4001 53.9001C22.8001 54.4001 24.2002 54.7001 24.2002 54.7001Z" fill="#050505"/>
<path d="M36.5 86.3C35.9 86.6 35 85.4 35 83.9C34.7 78.7 31.2001 77.7 27.4001 77C26.7001 76.8 21.5 77.3 16 76C14.4 75.6 12.2002 74 12.2002 74L12.3 71.8C12.4 67.7 12.8002 61.7 12.7002 59.6C12.5002 54.6 13.2 51.9 14.3 49.4C16.5 44.5 22.1001 58.2001 22.1001 58.2001L40.5 46.3C40.5 46.3 44.5001 47.7 42.4001 62.1C41.2001 70.3 38.7 85.2001 36.5 86.3Z" fill="#1965AC"/>
<path fill-rule="evenodd" clip-rule="evenodd" d="M35.8 86.5C35.2 86.1 34.7002 85 34.7002 83.9C34.5002 79 31.3 78.0001 27.3 77.2001C27.2 77.2001 26.7002 77.2001 26.2002 77.2001C24.2002 77.2001 20.2 77.3 16 76.3C14.3 75.8 12.2001 74.3001 12.1001 74.2001L12 74.1L12.1001 71.8C12.1001 70.2 12.2 68.2 12.3 66.4C12.4 63.5 12.5001 60.9 12.4001 59.6C12.2001 54.6 12.9001 51.9 14.1001 49.3C14.4334 48.5 14.9 48.1 15.5 48.1C18 48.1 21.5 56 22.3 57.8L40.5 46L40.6001 46.1C40.8001 46.1 44.7002 47.7 42.7002 62.1C42.1002 66.1 41.1001 72 40.1001 76.9C38.2001 85.7 37.0001 86.3 36.6001 86.5C36.4668 86.5667 36.3667 86.6 36.3 86.6C36.1667 86.6 36 86.5667 35.8 86.5ZM36.3 86C36.9 85.8 38.0001 84.2001 39.6001 76.8C40.6001 71.9 41.5001 66.1 42.1001 62C44.0001 49.5 41.1 47 40.5 46.6L22 58.6L21.9001 58.3C20.8001 55.6 17.5 48.6 15.5 48.6C15.1 48.6 14.7667 48.9 14.5 49.5C13.4 52.1 12.7001 54.7 12.9001 59.6C13.0001 60.9 12.9 63.6 12.8 66.4C12.7 68.3 12.6001 70.2 12.6001 71.9L12.5 73.9C13 74.2 14.7001 75.4001 16.1001 75.7001C20.3001 76.8001 24.3002 76.7001 26.2002 76.7001C26.9002 76.7001 27.2001 76.7001 27.4001 76.7001C31.5001 77.5001 35.0002 78.6 35.2002 83.9C35.3002 84.9 35.7001 85.8 36.1001 86C36.2334 86.0667 36.3 86.0667 36.3 86Z" fill="#050505"/>
<g style="mix-blend-mode:multiply" opacity="0.2">
<path d="M42 49.9C42 49.9 43.2 54.5 41.8 62.9C40.3 71.2 39.5001 78.7 37.6001 83.6C37.1001 85 36.3 86.5 36 84.3C35.6 82 35.2 79.4 33 77.1C31.9 75.9 36.3002 69.5 35.7002 63.1C35.1002 56.8 32.2002 54.6 32.2002 54.6L42 49.9Z" fill="#050505"/>
</g>
<g style="mix-blend-mode:multiply" opacity="0.2">
<path d="M22.8 77C22.8 77 22.8001 71.4001 22.9001 70.7001C22.9001 70.0001 23.4002 70.8 23.2002 68.8C23.0002 66.8 23.4001 62.1 23.4001 60.4L22.1001 60.8C22.1001 60.8 22.1 62.4 22 64C22 65.6 21.5 76.6 21.5 76.6L22.8 77Z" fill="#050505"/>
</g>
<path d="M21.5 76.8L22.1001 63.2001L21.5 76.8Z" fill="#1965AC"/>
<path d="M21.5 77.1C21.7 77.1 21.8 77 21.8 76.8L22.4001 63.3C22.4001 63.1 22.3001 63 22.1001 63C22.0001 63 21.9001 63.1001 21.9001 63.2001L21.3 76.8C21.3 76.9 21.4 77.1 21.5 77.1Z" fill="#050505"/>
<g style="mix-blend-mode:multiply" opacity="0.2">
<path d="M14.1001 49.3C14.1001 49.3 13.0002 51.8001 12.7002 55.2001C12.7002 55.2001 14.9001 59.9001 22.1001 63.7001C22.1001 63.7001 22.0002 62.4 21.7002 62C21.5002 61.7 14.7001 53 14.1001 49.3Z" fill="#050505"/>
</g>
<path d="M19.5 74.7C19.4 75.1 19.0002 75.2999 18.7002 75.0999C18.3002 74.9999 18.1001 74.6 18.1001 74.2C18.2001 73.8 18.6001 73.6 18.9001 73.7C19.3001 73.9 19.5 74.3 19.5 74.7Z" fill="#FDC02E"/>
<path fill-rule="evenodd" clip-rule="evenodd" d="M18.6002 75.3001C18.2002 75.1001 17.9001 74.6 18.0001 74.1C18.0668 73.9 18.2002 73.7333 18.4002 73.6C18.6002 73.4667 18.8001 73.4667 19.0001 73.6C19.4001 73.7 19.7002 74.2001 19.6002 74.7001C19.6002 74.9668 19.5001 75.1334 19.3001 75.2001C19.1668 75.2668 19.0336 75.3001 18.9002 75.3001C18.7669 75.3001 18.6669 75.3001 18.6002 75.3001ZM18.5001 73.9C18.4334 73.9667 18.3668 74.0668 18.3001 74.2001C18.3001 74.5001 18.4003 74.8 18.7003 75C18.8336 75 18.9669 74.9667 19.1002 74.9C19.2335 74.8334 19.3001 74.7333 19.3001 74.6C19.4001 74.3 19.2002 74 18.9002 73.9C18.8336 73.9 18.767 73.9 18.7003 73.9C18.6336 73.9 18.5668 73.9 18.5001 73.9Z" fill="#050505"/>
<path d="M16.4001 73.9C16.3001 74.3 16.0001 74.5 15.6001 74.4C15.3001 74.3 15 73.9 15 73.5C15.1 73.1 15.4 72.9 15.8 73C16.1 73.1 16.4001 73.5 16.4001 73.9Z" fill="#FDC02E"/>
<path fill-rule="evenodd" clip-rule="evenodd" d="M15.6002 74.6C15.1002 74.5 14.8003 74 14.9003 73.5C14.9003 73.2333 15.0003 73.0334 15.2003 72.9C15.4003 72.7667 15.6002 72.7334 15.8002 72.8001C16.3002 72.9001 16.6002 73.4 16.6002 73.9C16.5336 74.1667 16.4003 74.3667 16.2003 74.5C16.067 74.5667 15.9335 74.6 15.8002 74.6C15.7335 74.6 15.6669 74.6 15.6002 74.6ZM15.7003 73.2001C15.567 73.1334 15.4669 73.1334 15.4003 73.2001C15.2669 73.2668 15.2003 73.4 15.2003 73.6C15.2003 73.9 15.4003 74.2001 15.7003 74.3001C15.8336 74.3001 15.9335 74.2668 16.0001 74.2001C16.1335 74.1334 16.2003 74.0334 16.2003 73.9C16.2003 73.6 16.0003 73.2001 15.7003 73.2001Z" fill="#050505"/>
<path d="M19.5 71C19.4 71.4 19.0002 71.6 18.7002 71.4C18.3002 71.3 18.1001 70.9 18.1001 70.5C18.2001 70.1 18.6001 69.8999 18.9001 70.0999C19.3001 70.1999 19.5 70.6 19.5 71Z" fill="#FDC02E"/>
<path fill-rule="evenodd" clip-rule="evenodd" d="M18.6002 71.5999C18.1002 71.3999 17.9001 70.9 18.0001 70.5C18.0001 70.2333 18.1001 70.0333 18.3001 69.9C18.5668 69.8333 18.8001 69.8333 19.0001 69.9C19.4001 70.1 19.7002 70.6 19.6002 71C19.5335 71.2666 19.4003 71.4666 19.2003 71.5999C19.1336 71.6666 19.0336 71.7 18.9002 71.7C18.7669 71.7 18.6669 71.6666 18.6002 71.5999ZM19.3001 71C19.3001 70.7 19.2002 70.3 18.9002 70.2C18.7669 70.1334 18.6334 70.1334 18.5001 70.2C18.3668 70.2667 18.3001 70.3666 18.3001 70.5C18.2001 70.8 18.4003 71.2 18.7003 71.3C18.8336 71.3667 18.9669 71.3667 19.1002 71.3C19.1669 71.2333 19.2335 71.1333 19.3001 71Z" fill="#050505"/>
<path d="M16.3 70.2C16.3 70.6 16.0001 70.8 15.6001 70.7C15.2001 70.6 15 70.2 15 69.8C15 69.4 15.4002 69.2 15.7002 69.3C16.1002 69.4 16.4 69.8 16.3 70.2Z" fill="#FDC02E"/>
<path fill-rule="evenodd" clip-rule="evenodd" d="M15.6001 70.9C15.1001 70.8 14.8 70.3 14.8 69.8C14.8667 69.5334 15.0002 69.3334 15.2002 69.2001C15.3335 69.0667 15.5334 69.0333 15.8 69.1C16.2 69.2 16.6 69.7001 16.5 70.2001C16.5 70.4667 16.4002 70.6667 16.2002 70.8C16.0669 70.8667 15.9334 70.9 15.8 70.9C15.7334 70.9 15.6668 70.9 15.6001 70.9ZM15.3 69.5C15.2334 69.5666 15.2002 69.6667 15.2002 69.8C15.1002 70.1 15.4001 70.5 15.6001 70.5C15.7334 70.5666 15.8667 70.5666 16 70.5C16.0667 70.4333 16.1335 70.3 16.2002 70.1C16.2002 69.8 16.0002 69.5 15.7002 69.4C15.6335 69.4 15.6001 69.4 15.6001 69.4C15.5334 69.4 15.4334 69.4333 15.3 69.5Z" fill="#050505"/>
<path d="M19.6001 65C19.5001 65.4 19.1 65.6 18.8 65.4C18.4 65.3 18.2002 64.9 18.2002 64.5C18.3002 64.1 18.7 63.9 19 64C19.4 64.2 19.6001 64.6 19.6001 65Z" fill="#FDC02E"/>
<path fill-rule="evenodd" clip-rule="evenodd" d="M18.7003 65.5999C18.2003 65.3999 18.0002 64.9 18.1002 64.5C18.1002 64.2333 18.2002 64.0333 18.4002 63.9C18.6669 63.8333 18.9002 63.8333 19.1002 63.9C19.5002 64.1 19.8003 64.6 19.7003 65C19.6336 65.2666 19.5001 65.4666 19.3001 65.5999C19.2335 65.5999 19.1334 65.5999 19.0001 65.5999C18.8668 65.5999 18.767 65.5999 18.7003 65.5999ZM19.0001 64.2C18.8668 64.1334 18.7335 64.1334 18.6002 64.2C18.5335 64.2667 18.4669 64.3666 18.4002 64.5C18.3002 64.8 18.5001 65.2 18.8001 65.3C18.9335 65.3 19.067 65.3 19.2003 65.3C19.267 65.2333 19.3336 65.1333 19.4002 65C19.4002 64.6 19.3001 64.3 19.0001 64.2Z" fill="#050505"/>
<path d="M16.5001 64.0999C16.5001 64.3999 16.1002 64.6999 15.8002 64.5999C15.4002 64.4999 15.1003 64.1 15.2003 63.7C15.2003 63.3 15.5002 63.1 15.9002 63.2C16.3002 63.3 16.5001 63.6999 16.5001 64.0999Z" fill="#FDC02E"/>
<path fill-rule="evenodd" clip-rule="evenodd" d="M15.7001 64.8001C15.3001 64.6001 14.8999 64.2001 14.9999 63.7001C14.9999 63.4334 15.1 63.2333 15.3 63.1C15.5 62.9667 15.7001 62.9333 15.9001 63C16.4001 63.1 16.7001 63.6 16.7001 64.1C16.6334 64.3 16.5 64.5001 16.3 64.7001C16.2333 64.7668 16.1001 64.8001 15.9001 64.8001C15.8334 64.8001 15.7668 64.8001 15.7001 64.8001ZM15.9001 63.3001C15.7667 63.3001 15.6332 63.3334 15.4999 63.4C15.4332 63.4667 15.3666 63.5668 15.3 63.7001C15.3 64.0001 15.5 64.4 15.8 64.4C15.9333 64.4667 16.0333 64.4667 16.1 64.4C16.2333 64.3334 16.3 64.2 16.3 64C16.4 63.7 16.1001 63.4001 15.9001 63.3001Z" fill="#050505"/>
<path d="M0.999892 75C0.799892 73.3 0.900038 72.6 1.90004 71C2.50004 70.1 2.90004 70.1 3.90004 70.1C4.40004 70.1 6.40004 70.7001 7.40004 71.7001C7.80004 72.1001 7.50009 73.1 7.70009 73.8C7.90009 74.2 8.00004 74.4001 7.90004 75.2001C7.90004 75.5001 7.50009 75.8 7.20009 75.9C6.80009 76 6.70004 75.5 6.40004 75.5C6.00004 75.6 5.60009 76.5 5.70009 77C5.80009 77.6 5.49989 77.8 5.49989 77.8L3.49989 76.9C3.49989 76.9 1.09989 75.9 0.999892 75Z" fill="#EAC39E"/>
<path d="M7.90004 74.3C7.90004 74.3 7.99989 75.4 7.99989 76.3C7.99989 77.2 7.69999 77.5 7.59999 77.8C7.49999 78.1 7.00009 78.2 6.70009 78.1C6.40009 77.9 6.30004 77.6 6.40004 77.1C6.60004 76.6 6.69989 76.4001 6.49989 75.7001" fill="#EAC39E"/>
<path d="M6.80002 78.3C6.73335 78.3 6.66673 78.3 6.60006 78.3C6.20006 78.1 6.06683 77.7 6.20016 77.1C6.20016 77.0333 6.23335 76.9667 6.30002 76.9C6.40002 76.5 6.40002 76.4001 6.30002 75.7001C6.20002 75.6001 6.30011 75.5 6.40011 75.5C6.50011 75.5 6.70016 75.5 6.70016 75.6C6.90016 76.4 6.80016 76.6 6.70016 77C6.70016 77.0667 6.66673 77.1334 6.60006 77.2001C6.50006 77.7001 6.70002 77.8 6.80002 77.9C6.90002 77.9 7.10016 77.9 7.20016 77.9C7.3335 77.8334 7.40011 77.7667 7.40011 77.7001C7.46678 77.6334 7.49997 77.5667 7.49997 77.5C7.59997 77.3 7.80002 77 7.80002 76.3C7.80002 75.4 7.70016 74.4 7.70016 74.4C7.70016 74.3 7.80011 74.1 7.90011 74.1C8.00011 74.1 8.10006 74.2 8.10006 74.3C8.10006 74.4 8.20016 75.4 8.20016 76.3C8.20016 77.1 8.00011 77.5001 7.90011 77.7001C7.90011 77.7667 7.86668 77.8334 7.80002 77.9C7.73335 78.1 7.60011 78.2334 7.40011 78.3C7.20011 78.3667 7.00002 78.3667 6.80002 78.3Z" fill="#050505"/>
<path d="M2.90017 77C2.90017 77.4 2.60022 77.1 2.20022 77.1C1.90022 77.1 1.60017 76.9 1.40017 76.5C1.40017 76.5 0.700021 75.6 1.00002 72.6" fill="#EAC39E"/>
<path fill-rule="evenodd" clip-rule="evenodd" d="M1.90015 77.3C1.50015 77.2 1.3002 76.8 1.2002 76.6C1.1002 76.5 0.500198 75.4 0.700198 72.5C0.800198 72.4 0.900003 72.3 1 72.3C1.1 72.3 1.2002 72.5 1.2002 72.6C0.900198 75.4 1.6001 76.4 1.6001 76.4C1.8001 76.9 2.0002 76.9 2.2002 76.9C2.4002 76.9 2.5002 76.9 2.7002 76.9C2.7002 76.8334 2.76682 76.8 2.90015 76.8C3.00015 76.8 3.1001 76.9 3.1001 77C3.1001 77.1333 3.06667 77.2334 3 77.3C2.8 77.5 2.7 77.4 2.5 77.4C2.43334 77.3334 2.33353 77.3 2.2002 77.3C2.13353 77.3 2.03348 77.3 1.90015 77.3Z" fill="#050505"/>
<path d="M3.6001 76.6C3.7001 77.3 3.80005 77.3 3.80005 77.6C3.80005 78 3.60005 78.3 3.30005 78.3C2.90005 78.4 2.7 78.1 2.5 77.8C2.5 77.8 2.10015 77.3001 1.90015 75.2001" fill="#EAC39E"/>
<path d="M3 78.6C2.6 78.5 2.40005 78.1 2.30005 77.9C2.20005 77.8 1.9001 77.2 1.6001 75.3C1.6001 75.2 1.70005 75 1.80005 75C2.00005 75 2.1001 75.1001 2.1001 75.2001C2.3001 77.2001 2.7002 77.6 2.7002 77.6C2.7002 77.6666 2.7002 77.7001 2.7002 77.7001C2.9002 78.1001 3.1002 78.1 3.2002 78.1C3.5002 78.1 3.6001 77.9001 3.6001 77.7001C3.6001 77.5001 3.6 77.4 3.5 77.3C3.5 77.2 3.40005 77 3.30005 76.6C3.30005 76.5 3.4 76.4 3.5 76.4C3.6 76.3 3.80005 76.4 3.80005 76.5C3.90005 76.9 3.9 77.0001 4 77.2001C4 77.3001 4 77.4 4 77.6C4.1 78.1 3.80005 78.5 3.30005 78.6C3.16672 78.6 3.06667 78.6 3 78.6Z" fill="#050505"/>
<path d="M4.6001 76.7001C4.8001 77.7001 4.9 78.1 5 78.5C5 78.9 4.70015 79.2001 4.40015 79.2001C4.00015 79.3001 3.8001 79.0001 3.6001 78.7001C3.6001 78.7001 3.3001 78.2 3.1001 76.1" fill="#EAC39E"/>
<path d="M4.10003 79.4C3.70003 79.3 3.50008 78.9 3.40008 78.8C3.40008 78.6 3.00008 78 2.90008 76.1C2.80008 76 2.90003 75.9 3.10003 75.9C3.20003 75.9 3.29998 76 3.29998 76.1C3.49998 78 3.79998 78.5 3.79998 78.5C3.79998 78.5 3.79998 78.5333 3.79998 78.6C4.09998 79 4.20008 79 4.40008 79C4.60008 79 4.70013 78.8 4.70013 78.5C4.70013 78.3 4.70003 78.1 4.60003 77.9C4.50003 77.6 4.50008 77.2001 4.40008 76.7001C4.40008 76.6001 4.40003 76.5 4.60003 76.4C4.70003 76.4 4.79998 76.5 4.79998 76.6C4.89998 77.1 4.99993 77.5 4.99993 77.8C5.09993 78.1 5.20013 78.3 5.20013 78.5C5.20013 79 4.90008 79.4 4.40008 79.5C4.33341 79.5 4.23336 79.4667 4.10003 79.4Z" fill="#050505"/>
<path d="M4.30005 76.5C4.50005 78.6 4.80005 79.1 4.80005 79.1C5.00005 79.5 5.2001 79.7001 5.6001 79.7001C5.9001 79.7001 6.2001 79.4 6.1001 79C6.0001 77.8 5.70005 76.4 5.80005 76" fill="#EAC39E"/>
<path d="M5.30005 79.9C5.00005 79.8 4.8001 79.5001 4.6001 79.2001C4.6001 79.1001 4.2001 78.5 4.1001 76.5C4.1001 76.4 4.20005 76.3001 4.30005 76.2001C4.50005 76.2001 4.6001 76.3 4.6001 76.5C4.7001 78.4 5 79 5 79C5.2 79.4 5.4 79.5 5.5 79.5C5.63333 79.5 5.73338 79.4334 5.80005 79.3C5.90005 79.3 5.90015 79.2 5.90015 79.1V78.6C5.60015 77.2 5.5001 76.3 5.6001 76C5.6001 75.9 5.70015 75.8 5.90015 75.8C6.00015 75.8 6.1 76 6 76.1C6 76.3 6.20005 77.6 6.30005 78.5L6.40015 79C6.40015 79.2 6.33353 79.4 6.2002 79.6C6.1002 79.8 5.8001 79.9 5.6001 79.9C5.46676 79.9667 5.36672 79.9667 5.30005 79.9Z" fill="#050505"/>
<path d="M5.80005 76.2001C5.66672 76.2001 5.6001 76.1334 5.6001 76C5.6001 75.8 5.7 75.5001 6 75.3001C6.1 75.3001 6.4002 75.2 6.7002 75.6C6.7002 75.7 6.7001 75.9 6.6001 75.9C6.5001 76 6.40005 76 6.30005 75.9C6.23338 75.7667 6.2002 75.7334 6.2002 75.8001C6.1002 75.8001 6 75.9 6 76C6.1 76.1 6.00015 76.2001 5.90015 76.2001C5.83348 76.2001 5.80005 76.2001 5.80005 76.2001Z" fill="#050505"/>
<path opacity="0.1" d="M7.10013 77.2001C7.10013 77.2001 7.20018 77.3 7.40018 76.8C7.50018 76.2 7.00022 75.1 6.70022 75.5C6.60022 75.5 6.60013 75.4 6.60013 75.4L6.40018 75.6C6.70018 76.4 6.60018 76.6 6.40018 77.1C6.26684 77.5666 6.33346 77.8667 6.60013 78C6.60013 78 6.60013 77.9667 6.60013 77.9C6.40013 77.1 7.10013 77.2001 7.10013 77.2001Z" fill="#050505"/>
<path opacity="0.3" d="M4.20012 76.9C4.20012 76.9 3.90007 77.9 4.40007 79.3L4.70012 79.1L4.20012 76.9Z" fill="#050505"/>
<path opacity="0.3" d="M2.90017 76.1C2.90017 76.1 2.60022 77.1 3.20022 78.5L3.40017 78.3L2.90017 76.1Z" fill="#050505"/>
<path opacity="0.3" d="M1.60003 75.4C1.60003 75.4 1.29998 75.7 1.79998 77.1L2.40007 77L1.60003 75.4Z" fill="#050505"/>
<path opacity="0.3" d="M1 73C1 73 1.8002 74.1 3.7002 74.5C5.8002 75 7.0001 74.3001 7.6001 74.7001C8.3001 75.0001 7.80005 73.8 7.80005 73.8L7.40015 72.2001L2.2002 71.3C2.2002 71.3 1.3 71.3 1 73Z" fill="#050505"/>
<path d="M1.1001 70.5L0.800049 72.3C0.800049 72.3 2.6001 74.1001 5.6001 74.2001C8.7001 74.3001 8.2001 73.5 8.1001 72.1C8.0001 70.7 1.1001 70.5 1.1001 70.5Z" fill="#FEFEFE"/>
<path fill-rule="evenodd" clip-rule="evenodd" d="M3.90015 74.2001C1.90015 73.7001 0.700098 72.6 0.600098 72.5C0.600098 72.4333 0.600098 72.3667 0.600098 72.3L0.800049 70.5C0.800049 70.4 0.900098 70.3 1.1001 70.3C1.1001 70.3 2.8001 70.3 4.6001 70.5C7.9001 70.9 8.30005 71.6 8.30005 72C8.36672 72.2 8.40015 72.3667 8.40015 72.5C8.40015 73 8.5002 73.5 8.2002 73.9C7.8002 74.3 7.0001 74.5 5.6001 74.4C5.0001 74.4 4.43348 74.3334 3.90015 74.2001ZM1.1001 72.2001C1.4001 72.6001 3.1001 73.9 5.6001 73.9C6.9001 74 7.60005 73.9 7.80005 73.6C8.00005 73.4 8.00015 73.1 7.90015 72.5C7.90015 72.3667 7.90015 72.2333 7.90015 72.1C7.80015 71.4 4.40005 70.9 1.30005 70.8L1.1001 72.2001Z" fill="#050505"/>
<path d="M13.8 55.8C13.3 56.7 12.3 58.5 12.3 58.5C9.60005 65.1 8 74.2001 8 74.2001C2.7 75.0001 0.400146 71.6 0.400146 71.6C0.400146 71.6 2.00005 63.1 5.30005 55.3C8.70005 47.5 12.9001 46.4 12.9001 46.4" fill="#1965AC"/>
<path d="M4.30005 74.3C1.50005 73.6 0.300195 71.8001 0.200195 71.7001V71.6C0.200195 71.5 1.8001 62.9001 5.1001 55.2001C8.4001 47.4001 12.7 46.2 12.8 46.1C13 46.1 13.1002 46.2 13.2002 46.3C13.2002 46.5 13.1 46.6001 13 46.7001C12.9 46.7001 8.8001 47.9 5.6001 55.4C2.5001 62.6 0.900195 70.5 0.700195 71.5C1.1002 72 3.30005 74.6 7.80005 73.9C8.10005 72.6 9.6001 64.4 12.1001 58.4V58.3C12.1001 58.3 13.1001 56.6001 13.6001 55.7001C13.7001 55.6001 13.8 55.5 14 55.6C14.1 55.7 14.1001 55.8 14.1001 56C13.6001 56.8 12.6 58.4 12.5 58.6C9.9 65.1 8.30005 74.1001 8.30005 74.2001V74.4H8.1001C6.6001 74.7 5.30005 74.6 4.30005 74.3Z" fill="#050505"/>
<path d="M8.1001 74.2001C8.1001 74.2001 5.40015 74.7 2.90015 73.6C0.400146 72.5 0.300049 71.6 0.300049 71.6L0.900146 68.9C0.900146 68.9 2 70.7 4.5 71.3C6.8 71.9 8.6001 71.8 8.6001 71.8L8.1001 74.2001Z" fill="#1965AC"/>
<path fill-rule="evenodd" clip-rule="evenodd" d="M4.1001 74.3C3.7001 74.1667 3.26672 74 2.80005 73.8C0.200049 72.7 0 71.7 0 71.6L0.800049 68.2001L1.2002 68.8C1.2002 68.8 2.2 70.4 4.5 71C6.8 71.6 8.6001 71.5 8.6001 71.5H8.90015L8.40015 74.4H8.2002C8.10019 74.5 6.2001 74.8 4.1001 74.3ZM0.600098 71.6C0.600098 71.8 1 72.5 3 73.4C5.1 74.3 7.30015 74 7.90015 73.9L8.30005 72C7.70005 72 6.20015 72 4.40015 71.5C2.70015 71.1 1.6001 70.1 1.1001 69.5L0.600098 71.6Z" fill="#050505"/>
<path d="M0.999895 71.2001C0.899895 71.5001 0.999944 71.8 1.29994 71.9C1.49994 71.9 1.69994 71.7 1.79994 71.4C1.89994 71.1 1.79989 70.9001 1.49989 70.8001C1.29989 70.7001 1.09989 70.9001 0.999895 71.2001Z" fill="#FDC02F"/>
<path fill-rule="evenodd" clip-rule="evenodd" d="M1.20032 72.0999C0.900317 71.9999 0.700171 71.6 0.800171 71.2C0.900171 70.8 1.20022 70.4999 1.60022 70.5999C1.90022 70.6999 2.10012 71.1 2.00012 71.5C1.90012 71.9 1.60032 72.1999 1.20032 72.0999ZM1.50012 71C1.40012 71 1.30032 71.1 1.20032 71.3C1.20032 71.5 1.20017 71.6 1.30017 71.7C1.40017 71.7 1.60022 71.6 1.60022 71.4C1.60022 71.2 1.60012 71 1.50012 71Z" fill="#050505"/>
<g style="mix-blend-mode:multiply" opacity="0.2">
<path d="M13.8001 50.3001C13.8001 50.3001 11.6002 47.6001 8.90023 51.8001C6.20023 56.1001 3.40023 65.9 3.40023 65.9C3.40023 65.9 2.70027 68.7001 2.70027 69.2001C2.70027 69.8001 2.30023 69.5 1.90023 69.1C1.50023 68.8 1.50008 69.6 1.50008 69.6C1.50008 69.6 1.80027 70.0001 2.20027 70.2001C2.60028 70.3001 1.40023 70.1001 1.40023 70.8001C1.30023 71.5001 1.20027 72.7001 1.20027 72.7001C1.20027 72.7001 0.100275 71.9 0.200275 71.6C0.300275 71.4 0.900226 69.1 0.900226 69.1C0.900226 69.1 1.10018 68.5001 1.10018 68.3001C1.20018 68.0001 3.50013 59.4001 4.30013 57.7001C5.10013 56.0001 7.70023 50.1 9.40023 48.9C11.1002 47.7 12.4001 46.2 13.3001 46.4C14.2001 46.7 15.4001 48.0001 13.8001 50.3001Z" fill="#050505"/>
</g>
<g style="mix-blend-mode:multiply" opacity="0.2">
<path d="M10.2002 61.7001C10.2002 61.7001 9.80019 63.1001 9.40019 62.8001C9.00019 62.4001 6.30005 60.1 7.00005 60C7.70005 59.9 10.3002 61.1001 10.2002 61.7001Z" fill="#050505"/>
</g>
<path d="M18.0001 47.9001L17.1002 48.9001L17.4003 50.9001C17.4003 50.9001 16.7002 56.7001 21.6002 60.7001C21.6002 60.7001 22.3003 61.6001 22.2003 63.3001C22.2003 63.6001 14.3003 58.5001 13.2003 51.8001C13.1003 51.6001 13.7003 51.1001 13.7003 50.9001C13.6003 50.6001 12.8002 50.6001 12.8002 50.4001C12.6668 49.8667 12.5668 49.4001 12.5001 49.0001C11.9001 44.5001 16.0002 39.4001 16.1002 39.7001C16.7002 41.3001 16.2003 42.6 16.9003 45.1C17.0003 45.3 18.0001 47.9001 18.0001 47.9001Z" fill="#1965AC"/>
<path fill-rule="evenodd" clip-rule="evenodd" d="M17.8001 60.2001C15.9001 58.3001 13.5002 55.3001 12.9002 51.8001C12.9002 51.6001 13.0002 51.4001 13.2002 51.2001C13.3002 51.1001 13.3002 51.0001 13.4002 50.9001C13.3002 50.9001 13.2001 50.9001 13.1001 50.9001C12.9001 50.8001 12.6 50.7001 12.5 50.4001C12.4334 49.9334 12.3667 49.4667 12.3001 49C11.9001 46.7 12.8002 44.3001 13.7002 42.7001C14.4002 41.1001 15.6 39.6 16 39.5C16.1 39.4 16.3001 39.5 16.3001 39.6C16.6001 40.4 16.7002 41.1 16.7002 42C16.8002 42.8 16.8002 43.8 17.2002 45.1C17.2002 45.2 17.9002 46.8001 18.2002 47.8001L18.3001 47.9001L17.4002 49L17.7002 50.9001V51C17.7002 51 17.0001 56.6 21.8001 60.5V60.6C21.9001 60.6 22.6002 61.5001 22.4002 63.3001C22.4002 63.5001 22.3002 63.6 22.2002 63.6C21.8002 63.6 19.6001 62.1001 17.8001 60.2001ZM17.2002 51L16.8001 48.8001L17.7002 47.8001C17.4002 47.1001 16.7002 45.3001 16.7002 45.2001C16.3002 43.8001 16.2002 42.9 16.2002 42C16.1002 41.3 16.1002 40.8 15.9002 40.1C15.1002 41.1 12.2001 45.2001 12.8001 48.9001C12.8667 49.3667 12.9334 49.8334 13 50.3001C13.1 50.3001 13.2001 50.3001 13.3001 50.4001C13.6001 50.4001 13.8002 50.5001 13.9002 50.8001C14.0002 51.0001 13.8001 51.3 13.6001 51.5C13.6001 51.6 13.5002 51.7001 13.4002 51.8001C14.0002 55.1001 16.2 57.9001 18 59.7001C19.7 61.4001 21.3002 62.6001 21.9002 62.9001C22.0002 61.7001 21.5002 61.0001 21.4002 60.9001C16.7002 57.0001 17.1002 51.5 17.2002 51Z" fill="#050505"/>
<path d="M21.8 62.8001C21.8666 62.8001 21.9001 62.7668 21.9001 62.7001C22.0001 62.6001 22.0001 62.5 21.9001 62.5C21.9001 62.4 18.2001 59.8001 16.2001 56.9001C14.4001 54.4001 13.9 52.2001 13.8 51.8001C14 51.6001 14.5 51 14.3 50.6C14.2 50.2 13.6 50 13.3 50C13.2 49.5 12.7001 47.0001 13.7001 44.8001C14.8001 42.3001 16.8 39.6 16.8 39.6C16.9 39.5 16.9 39.4001 16.8 39.4001C16.7 39.3001 16.6 39.3001 16.6 39.4001C16.6 39.4001 14.5001 42.1 13.4001 44.6C12.2001 47.3 12.9999 50 12.9999 50.1L13.1 50.2001L13.2001 50.3001C13.5001 50.3001 13.8999 50.5001 13.9999 50.7001C14.0999 50.9001 13.7999 51.4001 13.4999 51.7001V51.8001C13.4999 51.9001 13.9001 54.2 15.9001 57.1C18.0001 60.1 21.7001 62.7001 21.7001 62.7001C21.7001 62.7668 21.7333 62.8001 21.8 62.8001Z" fill="#FDC02E"/>
<path d="M17.3001 52.5C17.6001 53.9 16.3001 54.4 20.6001 59.9C20.7001 60 23.3001 59 23.3001 59L23 56.4C22.9 56.3 22.6002 56.3001 22.4002 56.2001C20.7002 55.6001 19.0002 51.6 18.9002 51.6C18.9002 51.6 18.1002 43.3 16.4002 45.5C13.4002 49.5 17.0001 51.1 17.3001 52.5Z" fill="#D8DADF"/>
<path fill-rule="evenodd" clip-rule="evenodd" d="M20.4002 59.9999C17.1002 55.5999 17.1002 54.4 17.2002 53.3C17.2002 53 17.2001 52.7999 17.1001 52.4999C17.1001 52.1999 16.7002 51.8 16.4002 51.4C15.4002 50.1 14.0001 48.4 16.3001 45.4C16.5667 45.0666 16.8335 44.9333 17.1001 44.9999C18.4001 45.3999 19.0001 50.6999 19.1001 51.4999C19.1001 51.5999 19.2002 51.6999 19.4002 51.9999C19.9002 53.0999 21.2 55.5999 22.5 56.0999C22.5 56.0999 22.7001 56.0999 22.8001 56.0999C22.8667 56.1666 22.9334 56.2 23 56.2C23.0667 56.2667 23.1001 56.3333 23.1001 56.4L23.4002 58.9C23.4002 59.0333 23.3667 59.0999 23.3001 59.0999C21.5001 59.8999 20.9001 60.0999 20.6001 60.0999C20.5001 60.0999 20.5002 59.9999 20.4002 59.9999ZM22.8001 56.4999C22.8001 56.4999 22.7669 56.4999 22.7002 56.4999C22.5669 56.4333 22.4668 56.4 22.4002 56.4C21.0002 55.9 19.7001 53.4 19.1001 52.2C19.0001 52 18.9001 51.8 18.8001 51.7C18.8001 51.7 18.7669 51.6666 18.7002 51.5999C18.5002 49.2999 17.8 45.6 17 45.3C16.8667 45.3 16.7 45.3999 16.5 45.5999C14.4 48.3999 15.7002 49.8999 16.7002 51.0999C17.0002 51.5999 17.4 52 17.5 52.4C17.5 52.8 17.5 53 17.5 53.3C17.5 54.3 17.4002 55.5 20.7002 59.7C20.9002 59.7 22.1001 59.3 23.1001 58.9L22.8001 56.4999Z" fill="#050505"/>
<path d="M42.5 41.5C43.5 32.6 38.8 28.0999 30.8 27.0999C21.9 26.0999 14.2001 27.7 13.1001 37.3C13.1001 37.3 13.2002 40.3 13.7002 41.2L14.6001 46C16.1001 51.6 17.9001 51.3 22.9001 51.8C26.5001 52.2 36.5 52.6999 39.3 49.0999C41.4 46.3999 42.2002 41.9 42.2002 41.9" fill="#DAB48C"/>
<g style="mix-blend-mode:multiply" opacity="0.2">
<path d="M20.8 36.3L20.7002 43.8L21.7002 38.7001V37.1L20.8 36.3Z" fill="#050505"/>
</g>
<path d="M28.2002 52.3001C32.3002 52.3001 37.5001 51.7001 39.4001 49.2001C41.5001 46.5001 42.4001 42.1001 42.4001 41.9001H42.1001C42.1001 41.9001 41.2001 46.4001 39.1001 49.0001C36.7001 52.3001 27.7001 52.2001 22.9001 51.7001C22.5001 51.6335 22.1334 51.5667 21.8 51.5001C17.7 51.1001 16.2 51.0001 14.8 46.0001L13.8 41.2001V41.1C13.4 40.3 13.3 37.5001 13.3 37.3001C13.7 33.9001 15.0001 31.3 17.1001 29.6C20.0001 27.3 24.5 26.5001 30.8 27.3001C36.7 28.0001 43.5 31.1001 42.3 41.4001L42.6001 41.5001C43.2001 37.2001 42.3002 33.7001 40.2002 31.2001C38.1002 28.9001 35 27.5001 30.8 27.0001C24.4 26.2001 19.9001 27.0001 16.9001 29.3001C14.7001 31.1001 13.3 33.7001 13 37.3001C13 37.4001 13 40.3001 13.5 41.3001L14.5 46.0001C15.9 51.3001 17.6002 51.5001 21.7002 51.9001C22.0335 51.9001 22.4 51.9334 22.8 52.0001C23.4 52.1001 25.5002 52.3001 28.2002 52.3001Z" fill="#050505"/>
<g style="mix-blend-mode:multiply" opacity="0.2">
<path d="M30.8 36.4C30.7 36.3 30.8001 36.5 30.6001 36.4C29.7001 35.6 29.9002 36.1 28.7002 36.1C28.5669 36.1 28.4334 36.1 28.3 36.1C27.5 36.2 27.1 35.9 26.5 36.4C26.2 36.6 26.3001 36.4001 26.1001 36.7001C26.1001 37.0001 26.3001 37.7 26.6001 38C28.1001 39.1 30.4 39.1 31.8 37.9C31.9 37.8 32.4 37.4 32.5 37.1C32 36.4 30.9 36.5 30.8 36.4Z" fill="#050505"/>
<path d="M19.6001 35.8001C18.1001 34.9001 16.6 35.1 15 35.9C15 35.9 14.3 35.8 14.5 36.4C14.6 36.6 14.7001 36.8 14.8001 36.9C14.9001 37.1 15.0002 37.2001 15.2002 37.3001C16.3002 38.4001 17.9002 38.5 19.4002 37.6C19.7002 37.4 20.3001 36.6 20.3001 36.4C20.4001 36.2 20.1001 36.1001 19.6001 35.8001Z" fill="#050505"/>
</g>
<path d="M28.5 26.8001C28.5 26.8001 26.1001 26.2 22.9001 28.4C19.8001 30.7 22.5001 25.4 22.4001 25.4C22.4001 25.3 27.5 25.4 27.5 25.4C27.6 25.4 28.5 26.8001 28.5 26.8001Z" fill="#050505"/>
<path fill-rule="evenodd" clip-rule="evenodd" d="M21.4002 29.1C21.0002 28.7 21.2002 27.6 22.2002 25.5C22.2002 25.4333 22.2334 25.4 22.3001 25.4V25.3C22.4001 25.2 22.4 25.2001 25 25.2001C26.1 25.2001 27.5001 25.3 27.6001 25.3C27.6001 25.3 27.7001 25.3 28.6001 26.8L28.8001 27.1L28.4002 27C28.4002 27 26.1 26.4 23 28.6C22.4667 29 22.0336 29.2001 21.7002 29.2001C21.5669 29.2001 21.4668 29.1666 21.4002 29.1ZM28.1001 26.6C27.8001 26.2 27.6 25.7 27.5 25.6C26.9 25.6 23.2001 25.5 22.6001 25.5C22.5335 25.5667 22.5 25.6334 22.5 25.7001C21.3 28.2001 21.5001 28.7 21.6001 28.8C21.7001 28.8 21.9001 28.9 22.8001 28.3C24.9001 26.9 26.6001 26.6 27.6001 26.6C27.8001 26.6 27.9668 26.6 28.1001 26.6Z" fill="#050505"/>
<path d="M35.6001 31C35.6001 31 35.9001 30.7 36.1001 31C36.4001 31.3 36.3 30.3 36.3 30.3L35.7002 30.2001L35.6001 31Z" fill="#050505"/>
<path fill-rule="evenodd" clip-rule="evenodd" d="M35.5 30L36.4001 30.1L36.5 30.3C36.5 31.1 36.4 31.2001 36.3 31.2001C36.2 31.3001 36.1 31.3 36 31.1C35.9333 31.1 35.9001 31.1 35.9001 31.1C35.8001 31.1 35.7002 31.1 35.7002 31.1L35.3 31.5L35.5 30ZM35.8 30.3V30.7001C35.8 30.7001 35.8335 30.7001 35.9001 30.7001C35.9668 30.7001 36.0334 30.7001 36.1001 30.7001C36.1001 30.6334 36.1001 30.5334 36.1001 30.4L35.8 30.3Z" fill="#050505"/>
<path d="M33.6001 29.6C33.6001 29.6 34.2001 29.7 34.6001 30.1C35.0001 30.5 34.8 29.3 34.8 29.3L33.6001 29.2001V29.6Z" fill="#050505"/>
<path fill-rule="evenodd" clip-rule="evenodd" d="M34.5 30.2C34.2 29.9 33.6001 29.8 33.6001 29.8H33.4001V29.6C33.4001 29.2 33.4001 29.1 33.6001 29.1C33.6001 29 33.6 29 34.8 29.2H35V29.3C35.1 30.2 34.9 30.3 34.8 30.3C34.8 30.3667 34.7669 30.4 34.7002 30.4C34.6335 30.4 34.5667 30.3334 34.5 30.2ZM33.8 29.4C33.8 29.4667 33.8 29.5 33.8 29.5C34 29.5 34.4002 29.7 34.7002 29.9C34.7002 29.8333 34.7002 29.7 34.7002 29.5C34.4002 29.5 34 29.4 33.8 29.4Z" fill="#050505"/>
<path fill-rule="evenodd" clip-rule="evenodd" d="M43.1 33.6C45.9 39.7 41.6 45 41.6 45L39.4001 45.8001L39.7001 44.7001C39.7001 44.7001 39.9999 43.8 40.4999 43C40.0999 43.4 39.7 43.5001 39.3 43.2001C38.7 42.7001 39.7 40.2001 39.3 38.9001C38.8 38.1001 37.9001 38.8001 37.9001 38.8001C38.3001 38.2001 38.8001 38.1 39.2001 38.1C39.2668 37.9 39.3 37.7 39.3 37.5C38.4 37.2 37.7001 38.2001 37.7001 38.2001C37.6001 37.1001 38.7001 36.7 39.2001 36.6C37.8001 36 36.9999 37.7 36.9999 37.6C36.9999 36.5 37.6001 35.9 38.2001 35.5C37.0001 35.2 36.5001 34.4001 36.7001 34.4001C38.3001 34.6001 38.7001 32.9001 38.4001 32.2001C37.6001 30.5001 35.9999 32.1 34.9999 31.6C34.9999 31.6 36.8 31.2001 35.8 30.8001C35.3 31.5001 33.9999 31.1 33.9999 31.1C34.7999 30.7 35.0999 30.5 34.4999 30C34.3999 29.9 34.3999 29.8001 34.4999 29.8001C34.2999 29.8001 34.0334 29.7333 33.7001 29.6C31.7001 29.1 32.4001 30.5001 30.9001 30.2001C29.5001 30.0001 28.9001 28.8 28.7001 28.5C28.7001 28.5 28.6667 28.5 28.6 28.5C28.3 28.6 27.6001 28.9001 27.9001 29.4001C27.9001 29.4001 26.7001 28.9001 26.7001 28.2001C26.6334 28.1334 26.5334 28.1 26.4001 28.1C26.2001 28.0333 26.0334 28 25.9001 28C25.4001 28 24.7001 28.2001 24.2001 29.2001C23.8001 30.1001 24.9 31.0001 26.1 31.2001C26.3 31.3001 23 31.8 21.1 31C20.8 31.4 20.1001 32.4001 18.9001 32.7001C18.1001 33.0001 17.3 33.2001 16.8 33.3001C16.2 33.7001 15.1 33.4 14.8 34.5C14.4 35.7 12.9001 38.7001 12.9001 37.9001C12.7001 35.4001 7.00002 22.6 29.1 24.5C43.9 25.7 43.1 33.6 43.1 33.6ZM42.2001 38.9001C42.0668 38.7667 41.9333 38.7334 41.8 38.8001L41.9999 39.5C41.9999 39.5 41.7001 39.7001 41.4001 39.8001C41.1001 40.8001 41.0999 42.2001 40.9999 42.4001C41.1999 42.2001 41.4 42 41.6 42C42.6 41.9 43.1001 39.8001 42.2001 38.9001Z" fill="#050505"/>
<path style="mix-blend-mode:multiply" opacity="0.3" d="M30 41.3001C30.1 42.3001 31.9001 43.0001 34.1001 42.8001C36.3001 42.6001 37.9001 41.6 37.8001 40.5C37.7001 39.5 35.9002 38.8 33.7002 39C31.6002 39.2 29.9 40.2001 30 41.3001Z" fill="url(#paint0_radial_239_65123)"/>
<path style="mix-blend-mode:multiply" opacity="0.3" d="M13.3001 38.9C13.0001 39.5 13.9002 40.5 15.2002 41C16.6002 41.5 17.9001 41.4 18.1001 40.8C18.4001 40.1 17.5001 39.2 16.1001 38.7C14.8001 38.2 13.5001 38.3 13.3001 38.9Z" fill="url(#paint1_radial_239_65123)"/>
<path d="M12.3 35C12.3 35.1 12.8002 37.2 11.2002 36.3C11.2002 36.3 11.7 38.2 12.8 37.9C14.2 37.5 13.4001 35.6 13.4001 35.6L12.3 35Z" fill="#050505"/>
<g style="mix-blend-mode:multiply" opacity="0.2">
<path d="M42.2002 35.7001H39.1001H39.3C39.3 35.7001 38.4001 37.6 37.4001 41C35.3001 48.7 24.1 52.2001 17.8 50.2001C16.7 49.8001 15.6002 46.8 15.2002 42.9C14.9002 39.6 14.1001 33.6 14.1001 32.1C13.3001 33.9 13.4001 35.1 13.1001 37.3C13.1001 37.3 13.2002 40.3001 13.7002 41.2001L14.6001 46C16.1001 51.6 17.9001 51.3 22.9001 51.8C26.5001 52.2 36.5 52.7 39.3 49.1C41.4 46.4 42.2002 41.9 42.2002 41.9L42.5 41.5C42.7 39.3 42.6002 37.3667 42.2002 35.7001Z" fill="#050505"/>
</g>
<path d="M42.6 41C42.3 42.2 41.7001 43.3 40.2001 43.1C39.6001 43.1 39.9 41.8 40.4 40.3C40.9 38.9 41.6999 37.8 42.2999 38C42.7999 38.2 43.1 39.4 42.6 41Z" fill="#DAB48C"/>
<path d="M25 28.3001C25 28.3001 25.6 27.5001 26.8 27.4001C27.9 27.3001 32.2001 29.4001 33.1001 29.9001C33.9001 30.4001 36.7 32.1 36.8 33.1C36.9 34.1 37.2001 34.7 35.9001 35C34.5001 35.4 29 32 29 32L25.1001 29.7001L25 28.3001Z" fill="#DAB48C"/>
<path d="M19.9001 36.4C19.6001 36.6 19.3 36.7 19 36.9C19 36.6 19.1001 36.4 19.1001 36.1C19.3001 36.2 19.6001 36.3 19.9001 36.4Z" fill="#FEFEFE"/>
<path d="M17.7002 37.1C16.8002 37.3 15.5002 36.7 15.2002 36.1C15.7002 35.9 17.0001 35.7 17.6001 35.8C17.4001 36.3 17.3002 36.8 17.7002 37.1Z" fill="#FEFEFE"/>
<path d="M26.7002 36.3001C28.1002 35.5001 30.0001 35.6001 31.1001 36.3001C30.0001 36.0001 27.8002 35.9001 26.7002 36.3001Z" fill="#DAB48C"/>
<path fill-rule="evenodd" clip-rule="evenodd" d="M32.4002 36.8C32.4002 36.9 32.4001 36.9999 32.5001 37.0999C32.4001 37.0999 32.3003 37.2 32.2003 37.2C32.1003 37.1 31.9001 37.1 31.8001 37.3C30.4001 38.5 28.1002 38.5 26.6002 37.3C26.4669 37.1667 26.3336 37.0333 26.2003 36.9C26.0003 36.6 26.0003 36.5 26.2003 36.3C26.8003 35.8333 27.5001 35.5666 28.3001 35.5C28.4335 35.5 28.567 35.5 28.7003 35.5C29.9003 35.4 31.0001 35.7999 32.0001 36.5999C32.1001 36.6999 32.2002 36.7 32.4002 36.8ZM31.6002 37C31.6002 37 31.6002 36.9667 31.6002 36.9C31.3002 36.6 30.9001 36.5 30.3001 36.4C30.2001 36.8 30.5002 37.2999 30.4002 37.5999C30.8002 37.3999 31.2002 37.2 31.6002 37ZM31.1002 36.3C30.0002 35.6 28.1003 35.5 26.7003 36.3C27.8003 35.9 30.0002 36 31.1002 36.3ZM26.5001 36.5999C27.0001 37.3999 28.3003 37.9 29.2003 37.8C28.6003 37.4 28.8002 37 29.1002 36.4C28.1002 36.4 27.5001 36.3999 26.5001 36.5999Z" fill="#050505"/>
<path d="M31.6001 36.9C31.6001 36.9667 31.6001 37 31.6001 37C31.2001 37.2 30.8001 37.4 30.4001 37.6C30.5001 37.3 30.2 36.8 30.3 36.4C30.9 36.5 31.3001 36.6 31.6001 36.9Z" fill="#FEFEFE"/>
<path d="M29.2002 37.8C28.3002 37.9 27 37.4 26.5 36.6C27.5 36.4 28.1001 36.4 29.1001 36.4C28.8001 37 28.6002 37.4 29.2002 37.8Z" fill="#FEFEFE"/>
<path d="M29.1002 33.9C30.1002 33.7667 31.0667 33.7667 32.0001 33.9C32.1334 33.9 32.2669 33.9334 32.4002 34C31.6002 34 30.9002 34.1 30.1002 34.1C28.8002 34.3 27.6001 34.9001 26.5001 35.7001C26.3667 35.8334 26.2335 35.9334 26.1002 36C26.0002 36.1 25.8003 36.1 25.7003 36C25.6003 35.9 25.6001 35.7 25.8001 35.6C26.7001 34.7 27.8002 34.1 29.1002 33.9Z" fill="#050505"/>
<path d="M20.4001 46.2001C21.9001 46.4001 23.4 46.4 24.8 46C24.9 45.9 25.1001 46 25.1001 46.1C25.2001 46.3 25.0001 46.3001 24.9001 46.4001C23.9668 46.6001 23 46.7334 22 46.8001C21.4667 46.7334 20.9335 46.6667 20.4001 46.6C20.3001 46.6 20.1001 46.5001 20.1001 46.4001C20.1001 46.2001 20.3001 46.2001 20.4001 46.2001Z" fill="#050505"/>
<path d="M21.6001 37.9C21.7001 37.1 21.3 36.7001 20.8 36.3001C20.8 36.2334 20.7669 36.2001 20.7002 36.2001C20.6002 36.1001 20.6001 36 20.6001 35.9C20.7001 35.8 20.9 35.9 21 35.9C21.7 36.5 22.1001 37.1001 21.9001 38.2001C21.6001 39.9001 21.4002 41.6 21.2002 43.4C21.0002 44.2 21.1001 44.2001 21.9001 44.3001C22.0001 44.3001 22.1001 44.3001 22.1001 44.3001C22.2001 44.3001 22.3001 44.2 22.4001 44.1C22.5001 43.8 22.8002 43.6 23.2002 43.6C23.2669 43.6 23.3667 43.6 23.5 43.6C23.7 43.6 23.9001 43.5001 23.9001 43.3001C23.9001 43.2001 24.0001 43.1 24.1001 43C24.2001 43.1 24.3 43.2001 24.3 43.3001C24.3 43.7001 24.1334 43.9 23.8 43.9C23.6 43.9667 23.4002 44 23.2002 44C22.9002 44 22.7002 44.1 22.7002 44.4C22.7002 44.6 22.6001 44.7001 22.4001 44.7001C21.9335 44.7001 21.4667 44.6667 21 44.6C20.9 44.6 20.8 44.5001 20.8 44.3001C20.7 44.2001 20.7002 44.0001 20.7002 43.8001C20.7002 43.8001 21.0002 41.4001 21.2002 40.2001C21.3335 39.4001 21.4668 38.6334 21.6001 37.9Z" fill="#050505"/>
<path fill-rule="evenodd" clip-rule="evenodd" d="M15.1002 35.5C16.6002 34.7 18.2003 34.7001 19.7003 35.7001C20.7003 36.3001 20.4003 36.5001 19.7003 36.9001C18.2003 37.9001 16.3003 37.7001 15.2003 36.7001C15.0003 36.6001 14.9002 36.4001 14.8002 36.3001C14.7002 36.2001 14.6001 36.6001 14.5001 36.4001C14.3001 35.8001 15.1002 35.5 15.1002 35.5ZM19.9003 36.4001C19.6003 36.3001 19.3002 36.2 19.1002 36.1C19.1002 36.4 19.0001 36.6001 19.0001 36.9001C19.3001 36.7001 19.6003 36.6001 19.9003 36.4001ZM18.6002 35.8001C17.9002 35.7001 15.7003 35.9 15.2003 36.1C15.5003 36.7 16.8003 37.3 17.7003 37.1C17.3003 36.8 18.3002 36.3001 18.6002 35.8001ZM15.3002 35.7001C16.0002 35.6001 17.1002 35.5 17.6002 35.5C18.0002 35.6 18.9003 35.7001 19.4003 35.8001C18.4003 35.3001 17.2002 34.8001 15.3002 35.7001Z" fill="#050505"/>
<path d="M16.4999 33.7001C17.9999 33.7001 19.4 34.1 20.8 34.9C20.2666 34.7667 19.7335 34.6333 19.2001 34.5C18.0001 34.2 16.9001 34.2 15.7001 34.5C15.2001 34.6 14.4001 34.9 14.4001 35.4C14.4001 35.5 14.3 35.6001 14.3 35.7001C14.3 35.7001 14.0001 34.9 14.2001 34.5C14.5001 34 16.4999 33.7001 16.4999 33.7001Z" fill="#050505"/>
<path d="M15.3 35.7C16 35.6 17.1001 35.4999 17.6001 35.4999C18.0001 35.5999 18.9001 35.7 19.4001 35.8C18.4001 35.3 17.2 34.8 15.3 35.7Z" fill="#DAB48C"/>
<path d="M19.2002 36.5C19.2002 37 18.7002 37.4 18.2002 37.4C17.7002 37.4 17.3 37 17.3 36.5C17.3 36 17.7002 35.6 18.2002 35.6C18.7002 35.6 19.2002 36 19.2002 36.5Z" fill="#050505"/>
<path d="M18.9001 36.5C18.9001 36.8 18.6002 37.1 18.2002 37.1C17.9002 37.1 17.6001 36.8 17.6001 36.5C17.6001 36.2 17.9002 35.9 18.2002 35.9C18.6002 35.9 18.9001 36.2 18.9001 36.5Z" fill="#401215"/>
<path d="M18.4001 36.5C18.4001 36.6 18.3002 36.7001 18.2002 36.7001C18.1002 36.7001 18 36.6 18 36.5C18 36.4 18.1002 36.3 18.2002 36.3C18.3002 36.3 18.4001 36.4 18.4001 36.5Z" fill="#050505"/>
<path d="M17 35.8C17 35.8 19.3001 35.9 19.9001 36.4C20.5001 36.9 19.8 35.9 19.8 35.9L17.4001 35.6L17 35.8Z" fill="#050505"/>
<path d="M18.7002 36.6C18.7002 36.6666 18.6668 36.7001 18.6001 36.7001C18.5334 36.7001 18.5 36.6666 18.5 36.6C18.5 36.6 18.5334 36.5667 18.6001 36.5C18.6668 36.5667 18.7002 36.6 18.7002 36.6Z" fill="#FEFEFE"/>
<path d="M30.6001 37C30.6001 37.5 30.2001 37.9 29.6001 37.9C29.1001 37.9 28.7002 37.5 28.7002 37C28.7002 36.6 29.1001 36.2001 29.6001 36.2001C30.2001 36.2001 30.6001 36.6 30.6001 37Z" fill="#050505"/>
<path d="M30.3 37C30.3 37.4 30.0001 37.7001 29.6001 37.7001C29.3001 37.7001 29 37.4 29 37C29 36.7 29.3001 36.4 29.6001 36.4C30.0001 36.4 30.3 36.7 30.3 37Z" fill="#401215"/>
<path d="M29.9001 37C29.9001 37.2 29.7001 37.3 29.6001 37.3C29.5001 37.3 29.4001 37.2 29.4001 37C29.4001 36.9 29.5001 36.8 29.6001 36.8C29.7001 36.8 29.9001 36.9 29.9001 37Z" fill="#050505"/>
<path d="M30.1001 37.2001C30.1001 37.2667 30.0667 37.3 30 37.3C29.9333 37.3 29.9001 37.2667 29.9001 37.2001C29.9001 37.1334 29.9333 37.1 30 37.1C30.0667 37.1 30.1001 37.1334 30.1001 37.2001Z" fill="#FEFEFE"/>
<path d="M26.9001 29.8C26.6001 29.3 27.3002 29.1 27.7002 29C27.9002 29.3 28.4001 30.5 29.6001 30.9C31.1001 31.3 30.5001 29.9001 32.4001 30.7001C32.7335 30.8334 33.0002 30.9 33.2002 30.9C33.1002 30.9 33.0002 31.0001 33.2002 31.2001C33.7002 31.7001 33.4001 31.9 32.6001 32.1C32.5001 32.1 33.7 32.6 34.3 32.1C35.2 32.6 33.5 32.7001 33.5 32.7001C34.4 33.4001 36.1001 32 36.6001 33.8C36.9001 34.4 36.3002 36.1001 34.7002 35.7001C34.6002 35.6001 35 36.4 36 36.9C36.6 37.1 37.2 37.0334 37.8 36.7001C38.3 36.3001 40.8002 32.7 38.7002 30.4C36.6002 28.2 30.0001 25.2001 29.9001 25.2001C29.7001 25.1001 24.3 26.7001 24.3 26.7001C24.3 26.7001 24.3001 28.9 24.1001 29.4C24.4001 28.7 25.1 28.2 25.8 28.4C25.7 29.2 26.9001 29.8 26.9001 29.8Z" fill="#050505"/>
<g style="mix-blend-mode:multiply" opacity="0.2">
<path d="M22.5 48.1C22.8 48.1 23.3002 48.1 23.7002 47.9C23.8002 47.8 23.8 47.7001 23.8 47.7001C23.7334 47.6334 23.6668 47.6 23.6001 47.6C23.0001 48 21.6001 47.8 21.6001 47.8C21.5334 47.7334 21.4668 47.7334 21.4001 47.8C21.4001 47.9 21.4 48 21.5 48C21.5 48 21.9 48.1 22.5 48.1Z" fill="#050505"/>
</g>
<path d="M46.4001 78.1C47.0001 76.5 47.1 75.8 46.5 74C46.2 73 45.7 73.0001 44.8 72.7001C44.3 72.6001 42.2 72.7 41 73.4C40.5 73.7 40.6002 74.8 40.2002 75.4C39.9002 75.8 39.8001 75.9001 39.6001 76.7001C39.6001 77.0001 39.9002 77.4 40.2002 77.5C40.5002 77.7 40.8001 77.3 41.1001 77.4C41.4001 77.5 41.6001 78.5 41.4001 79C41.1001 79.6 41.4001 79.8001 41.4001 79.8001L43.5 79.4C43.5 79.4 46.0001 79 46.4001 78.1Z" fill="#EAC39E"/>
<path d="M39.9002 75.9C39.9002 75.9 39.5001 76.9 39.3001 77.8C39.1001 78.7 39.3001 79 39.3001 79.3C39.3001 79.6 39.8002 79.9 40.2002 79.8C40.5002 79.7 40.7001 79.5 40.6001 78.9C40.6001 78.4 40.6002 78.2 40.9002 77.5" fill="#EAC39E"/>
<path d="M40 80C40.0667 80 40.1335 80 40.2002 80C40.6669 79.9334 40.9001 79.5667 40.9001 78.9001C40.9001 78.8334 40.8667 78.8001 40.8 78.8001C40.8 78.4001 40.8001 78.2 41.1001 77.6C41.2001 77.5 41.1 77.4001 41 77.3001C40.9 77.3001 40.8002 77.3001 40.7002 77.4001C40.4002 78.1001 40.4001 78.4001 40.4001 78.8001C40.4001 78.8668 40.4001 78.9001 40.4001 78.9001C40.4001 79.5001 40.2001 79.6 40.1001 79.6C40.0001 79.6 39.8002 79.6 39.7002 79.5C39.5669 79.4334 39.5 79.3668 39.5 79.3001C39.5 79.2334 39.5 79.1667 39.5 79.1C39.4 78.8 39.3 78.5001 39.5 77.8001C39.7 77.0001 40.1001 76.0001 40.1001 75.9001C40.1001 75.8001 40.0001 75.7001 39.9001 75.7001C39.8001 75.6001 39.7001 75.7001 39.6001 75.8001C39.6001 75.8001 39.3001 76.8001 39.1001 77.7001C38.9001 78.5001 39.0001 78.9001 39.1001 79.2001C39.1001 79.2668 39.1001 79.3001 39.1001 79.3001C39.1001 79.5001 39.2001 79.6668 39.4001 79.8001C39.6001 79.9334 39.8 80 40 80Z" fill="#050505"/>
<path d="M44.1001 79.7001C44.0001 80.0001 44.4002 79.8 44.7002 79.9C45.1002 80 45.4002 79.9 45.7002 79.5C45.7002 79.5 46.6 78.8 47 75.8" fill="#EAC39E"/>
<path fill-rule="evenodd" clip-rule="evenodd" d="M44.7001 80.1C44.5668 80.1 44.4668 80.1 44.4001 80.1C44.2001 80.1 44.0001 80.1 43.9001 80C43.8334 79.8667 43.8334 79.7333 43.9001 79.6C43.9001 79.5 44.0001 79.4 44.2001 79.4C44.2668 79.4667 44.3 79.5333 44.3 79.6C44.5 79.6 44.6 79.6001 44.8 79.7001C45 79.7001 45.2 79.8 45.5 79.4C45.5 79.3 46.4 78.6001 46.8 75.7001C46.8 75.6001 46.9 75.5 47 75.5C47.2 75.6 47.3001 75.7 47.2001 75.8C46.9001 78.7 46 79.6001 45.8 79.7001C45.7 79.8001 45.4 80.2001 45 80.2001C44.8666 80.2001 44.7668 80.1666 44.7001 80.1Z" fill="#050505"/>
<path d="M43.5001 79.1C43.2001 79.7 43.2001 79.7 43.0001 80C42.9001 80.4 43.1003 80.7 43.4003 80.9C43.7003 81 44.0002 80.8 44.3002 80.5C44.3002 80.5 44.8001 80.1001 45.5001 78.2001" fill="#EAC39E"/>
<path d="M43.6002 81.1C44.0002 81.1 44.3002 80.8001 44.4002 80.7001C44.6002 80.6001 45.1003 80.1001 45.7003 78.3001C45.8003 78.1001 45.7002 78 45.6002 78C45.5002 77.9 45.3001 78 45.3001 78.1C44.6001 79.9 44.2003 80.3001 44.2003 80.3001C44.1336 80.3001 44.1002 80.3001 44.1002 80.3001C43.8002 80.7001 43.6001 80.7 43.5001 80.6C43.3001 80.6 43.2001 80.3 43.3001 80.1C43.3001 80 43.3002 79.9001 43.4002 79.8001C43.5002 79.6001 43.6003 79.5001 43.7003 79.2001C43.8003 79.1001 43.8002 78.9001 43.6002 78.9001C43.5002 78.8001 43.4001 78.9 43.3001 79C43.2001 79.3 43.1001 79.4 43.0001 79.5C43.0001 79.7 42.9001 79.8 42.8001 80C42.7001 80.4 42.9001 80.9 43.3001 81.1C43.4335 81.1 43.5335 81.1 43.6002 81.1Z" fill="#050505"/>
<path d="M42.4999 78.9C42.0999 79.9 41.9001 80.2 41.7001 80.6C41.6001 81 41.8 81.3 42.1 81.5C42.4 81.6 42.6999 81.4 42.9999 81.1C42.9999 81.1 43.5 80.7001 44.1 78.7001" fill="#EAC39E"/>
<path d="M42.3001 81.7001C42.7001 81.7001 43.0002 81.4001 43.1002 81.2001C43.3002 81.1001 43.7001 80.6 44.3001 78.8C44.4001 78.7 44.3003 78.5 44.2003 78.5C44.1003 78.5 44.0002 78.5001 43.9002 78.7001C43.3002 80.5001 42.8001 80.9 42.8001 80.9C42.5001 81.3 42.3003 81.3001 42.2003 81.2001C42.0003 81.2001 41.9001 80.9001 42.0001 80.7001C42.0001 80.5001 42.1003 80.3 42.2003 80.1C42.4003 79.8 42.5003 79.5 42.7003 79C42.8003 78.9 42.7002 78.8001 42.6002 78.7001C42.5002 78.7001 42.4001 78.7 42.3001 78.8C42.1001 79.3 42.0001 79.6 41.8001 79.9C41.7001 80.1 41.6001 80.3 41.5001 80.6C41.4001 81 41.6001 81.5001 42.0001 81.7001C42.1334 81.7001 42.2335 81.7001 42.3001 81.7001Z" fill="#050505"/>
<path d="M42.8001 78.8C42.2001 80.8 41.7003 81.2001 41.7003 81.2001C41.4003 81.6001 41.2002 81.8 40.9002 81.6C40.5002 81.5 40.3001 81.2 40.5001 80.8C40.9001 79.7 41.5001 78.4 41.5001 78" fill="#EAC39E"/>
<path d="M41.1 81.9C41.4 81.9 41.7001 81.7 41.9001 81.4C42.0001 81.3 42.3999 80.7 42.9999 78.9C43.0999 78.7 43.0001 78.6 42.9001 78.6C42.8001 78.5 42.6 78.6001 42.6 78.7001C42 80.6001 41.6 81.1 41.6 81.1C41.5334 81.1 41.4999 81.1 41.4999 81.1C41.2999 81.5 41.1001 81.5 40.9001 81.4C40.8334 81.4 40.7668 81.3334 40.7001 81.2001C40.6001 81.1001 40.6001 81 40.7001 80.9L40.8 80.5C41.4 79.2 41.7001 78.3 41.7001 78C41.7001 77.9 41.5999 77.8 41.4999 77.8C41.3999 77.8 41.3 77.9 41.3 78C41.3 78.3 40.8001 79.5 40.4001 80.3L40.2001 80.8C40.1335 81 40.1666 81.2 40.3 81.4C40.4 81.6 40.6 81.8 40.8 81.9C40.8666 81.9 40.9667 81.9 41.1 81.9Z" fill="#050505"/>
<path d="M41.5 78.2001C41.5667 78.2001 41.6335 78.1667 41.7002 78.1C41.8002 77.9 41.7 77.5001 41.5 77.3001C41.4 77.2001 41.1 77.1001 40.8 77.4001C40.7 77.5001 40.7002 77.6001 40.7002 77.7001C40.8002 77.8001 41.0001 77.8001 41.1001 77.7001C41.1668 77.6334 41.2002 77.6334 41.2002 77.7001C41.2002 77.7001 41.3 77.8001 41.3 77.9001C41.2 78.0001 41.3001 78.1001 41.4001 78.2001C41.4001 78.2001 41.4333 78.2001 41.5 78.2001Z" fill="#050505"/>
<path opacity="0.1" d="M39.9001 78.9C39.9001 78.9 39.8 78.9 39.8 78.4C39.8 77.8 40.6 76.8 40.8 77.3L40.9001 77.2L41 77.4C40.6 78.2 40.6001 78.4 40.6001 78.9C40.6668 79.3667 40.5335 79.6667 40.2002 79.8C40.2669 79.7333 40.3 79.7 40.3 79.7C40.7 78.9 39.9001 78.9 39.9001 78.9Z" fill="#050505"/>
<path opacity="0.3" d="M42.9001 79.3C42.9001 79.3 42.9001 80.3 42.1001 81.5L41.8 81.2001L42.9001 79.3Z" fill="#050505"/>
<path opacity="0.3" d="M44.3 78.8C44.3 78.8 44.3 79.8 43.5 81L43.3 80.7001L44.3 78.8Z" fill="#050505"/>
<path opacity="0.3" d="M45.7002 78.4C45.7002 78.4 46.0001 78.8 45.1001 80L44.6001 79.8L45.7002 78.4Z" fill="#050505"/>
<path opacity="0.3" d="M46.9002 76.3C46.9002 76.3 45.8002 77.1 43.9002 77C41.7002 77 40.7001 76.1 40.0001 76.3C39.4001 76.5 40.1002 75.4 40.1002 75.4L40.8001 73.9L46.2003 74.3C46.2003 74.3 47.0002 74.5 46.9002 76.3Z" fill="#050505"/>
<path d="M47.4003 73.8L47.2003 75.5999C47.2003 75.5999 45.1002 76.9 42.1002 76.3C39.1002 75.6 39.8003 74.8999 40.2003 73.5999C40.6003 72.2999 47.4003 73.8 47.4003 73.8Z" fill="#FEFEFE"/>
<path fill-rule="evenodd" clip-rule="evenodd" d="M42.1 76.5C40.7 76.2 40.0001 75.9 39.7001 75.4C39.5001 75 39.6 74.5 39.8 73.9C39.8666 73.7667 39.9333 73.6333 39.9999 73.5C40.0999 73.1 40.6999 72.6 43.9999 73C45.6999 73.2 47.3999 73.5999 47.4999 73.5999C47.5999 73.5999 47.7 73.7 47.6 73.8L47.4999 75.5999C47.4333 75.6666 47.3666 75.7333 47.3 75.8C47.3 75.8 45.9 76.7 43.8 76.7C43.2666 76.7 42.7 76.6333 42.1 76.5ZM47.2001 74C44.1001 73.3 40.7001 73 40.4001 73.7C40.4001 73.8334 40.3666 73.9666 40.3 74.0999C40.1 74.5999 40 74.9 40.1 75.2C40.3 75.5 41.0001 75.8 42.2001 76C44.6001 76.6 46.5999 75.7 46.9999 75.5L47.2001 74Z" fill="#050505"/>
<path d="M38.5 56.5C38.8 57.5 39.3 59.4 39.3 59.4C40.4 66.5 39.8 75.7001 39.8 75.7001C44.8 77.7001 47.8 75 47.8 75C47.8 75 48.2001 66.4 46.9001 58C45.5001 49.6 41.6001 47.5 41.6001 47.5" fill="#1965AC"/>
<path d="M43.4001 76.7001C46.2001 76.7001 47.8001 75.2001 47.9001 75.2001L48 75.1V75C48 74.9 48.5001 66.2 47.1001 58C45.7001 49.6 41.9002 47.4001 41.7002 47.3001C41.6002 47.2001 41.4001 47.3001 41.4001 47.4001C41.3001 47.5001 41.3 47.7001 41.5 47.8001C41.5 47.8001 45.2001 49.9 46.6001 58C47.9001 65.8 47.6 73.8001 47.5 74.8001C47 75.3001 44.3 77.2 40 75.5C40.1 74.1 40.5001 65.8001 39.6001 59.4001V59.3001C39.6001 59.3001 39.0002 57.4001 38.7002 56.4001C38.7002 56.3001 38.5001 56.2001 38.4001 56.2001C38.3001 56.3001 38.2002 56.4 38.2002 56.6C38.5002 57.5 39.0001 59.3 39.1001 59.5C40.1001 66.4 39.5 75.6001 39.5 75.7001V75.8001L39.7002 75.9001C41.1002 76.5001 42.3001 76.7001 43.4001 76.7001Z" fill="#050505"/>
<path d="M39.7002 75.7001C39.7002 75.7001 42.2001 76.8 44.9001 76.3C47.6001 75.9 47.9001 75 47.9001 75V72.2001C47.9001 72.2001 46.4001 73.7001 43.9001 73.7001C41.5001 73.7001 39.8 73.2001 39.8 73.2001L39.7002 75.7001Z" fill="#1965AC"/>
<path fill-rule="evenodd" clip-rule="evenodd" d="M39.6001 75.9L39.4001 75.8L39.5 72.8L39.9001 72.9C39.9001 72.9 41.5001 73.5 43.9001 73.4C46.3001 73.4 47.7002 72.1 47.7002 72.1L48.2002 71.6V75.1C48.1002 75.2 47.7001 76.1 44.9001 76.6C44.4335 76.6666 43.9667 76.7001 43.5 76.7001C41.4 76.7001 39.6001 75.9 39.6001 75.9ZM47.6001 72.8C47.0001 73.2 45.7001 74 43.9001 74C42.1001 74 40.6 73.7 40 73.5L39.9001 75.5C40.5001 75.7 42.6001 76.5 44.9001 76.1C47.0001 75.7 47.5001 75.1 47.6001 75V72.8Z" fill="#050505"/>
<path d="M47.3 74.5C47.3 74.8 47.1001 75.1 46.9001 75.1C46.6001 75.1 46.5 74.8 46.5 74.5C46.5 74.2 46.6001 73.9 46.9001 73.9C47.1001 73.9 47.3 74.2 47.3 74.5Z" fill="#FDC02F"/>
<path fill-rule="evenodd" clip-rule="evenodd" d="M46.2002 74.5C46.2002 74.1 46.5001 73.7001 46.9001 73.7001C47.2001 73.7001 47.5 74.1 47.5 74.5C47.5 74.9 47.2001 75.3 46.9001 75.3C46.5001 75.3 46.2002 74.9 46.2002 74.5ZM46.7002 74.5C46.7002 74.7 46.8001 74.8 46.9001 74.8C47.0001 74.8 47.1001 74.7 47.1001 74.5C47.1001 74.3 47.0001 74.2001 46.9001 74.2001C46.8001 74.2001 46.7002 74.3 46.7002 74.5Z" fill="#050505"/>
<g style="mix-blend-mode:multiply" opacity="0.2">
<path d="M39.8 51.1C39.8 51.1 42.6002 49.1 44.2002 53.8C45.9002 58.5 46.2002 68.7001 46.2002 68.7001C46.2002 68.7001 46.2001 71.6001 46.1001 72.2001C46.0001 72.7001 46.5001 72.5001 46.9001 72.2001C47.4001 72.0001 47.2002 72.7001 47.2002 72.7001C47.2002 72.7001 46.8001 73.1 46.4001 73.1C45.9001 73.2 47.2 73.2 47 73.9C46.9 74.6 46.8 75.9 46.8 75.9C46.8 75.9 48 75.3 48 75.1C48 74.8 48 72.4 48 72.4C48 72.4 47.9001 71.8 47.9001 71.6C47.9001 71.3 47.7 62.4 47.3 60.6C46.9 58.7 45.8001 52.3 44.4001 50.8C43.0001 49.2 42.2002 47.5 41.2002 47.5C40.3002 47.5 38.8 48.5 39.8 51.1Z" fill="#050505"/>
</g>
<g style="mix-blend-mode:multiply" opacity="0.2">
<path d="M40.6001 63.1C40.6001 63.1 40.7001 64.5001 41.1001 64.3001C41.6001 64.0001 44.7001 62.4 44.1001 62.1C43.5001 61.9 40.6001 62.5 40.6001 63.1Z" fill="#050505"/>
</g>
<path d="M41.6002 46.8C41.6002 46.8 41.0002 47.5 38.6002 47.8C36.5002 48.1 34.1001 48.5 33.5001 48.8C32.2001 49.3 32.6002 50.8 31.1002 51.4C29.7002 51.9 24.3002 50.6 22.3002 52.6C19.9002 54.9 21.0001 59.8 21.0001 59.8L42.7003 49.8L41.6002 46.8Z" fill="#FEFEFE"/>
<path fill-rule="evenodd" clip-rule="evenodd" d="M20.9001 60C20.9001 60 20.9001 59.9667 20.9001 59.9C20.8001 59.7 19.8002 54.9 22.2002 52.5C23.5002 51.2 26.3001 51.3 28.4001 51.3C29.6001 51.4 30.6001 51.4001 31.1001 51.2001C31.8001 51.0001 32 50.5 32.3 50C32.5 49.4 32.8001 48.9 33.4001 48.6C34.0001 48.4 36.5001 47.9001 38.6001 47.7001C40.8001 47.4001 41.5 46.7001 41.5 46.7001C41.5666 46.6334 41.6335 46.6 41.7002 46.6C41.7668 46.6 41.8 46.6334 41.8 46.7001L42.9001 49.7001C42.9001 49.8001 42.9 49.9 42.8 49.9L21.1001 60C21.1001 60 21.0666 60 21 60C21 60 20.9668 60 20.9001 60ZM41.6001 47.1C41.2001 47.3 40.4001 47.8 38.6001 48C36.5001 48.3 34.1001 48.7 33.6001 48.9C33.0001 49.2 32.8001 49.6 32.6001 50.1C32.3001 50.6 32.0002 51.2 31.2002 51.6C30.6002 51.8 29.6001 51.7001 28.4001 51.7001C26.3001 51.6001 23.7 51.5001 22.5 52.7001C20.4 54.7001 21.0001 58.6 21.1001 59.6L42.5 49.7001L41.6001 47.1Z" fill="#050505"/>
<g style="mix-blend-mode:multiply" opacity="0.2">
<path d="M21.6001 59.3C21.6001 59.3 21.1002 55.3 22.9002 53.6C24.8002 51.9 27 52.7001 27 52.7001C27 52.7001 24.4002 52.4001 23.9002 54.2001C23.4002 56.0001 25.2002 54.9 25.2002 54.9L28.1001 53.2001L28 52.8C28 52.8 29.4002 52.6 30.4002 52.4C31.5002 52.2 29.9002 54.1 29.9002 54.1L21.6001 59.3Z" fill="#050505"/>
</g>
<g style="mix-blend-mode:multiply" opacity="0.2">
<path d="M33.1001 51C33.1001 51 33.3001 49.8 34.1001 49.5C35.0001 49.1 37.4001 48.8 37.4001 48.8L33.8 51.3L33.1001 51Z" fill="#050505"/>
</g>
<path d="M32.1002 57.8001C32.4002 57.7001 31.6002 55.6 31.9002 55.5C32.2002 55.3 33.2001 56.8001 33.5001 56.7001C36.6001 55.9001 39.9003 53.6001 42.7003 50.8001C43.5003 49.9001 43.4003 47.9001 42.2003 46.7001C41.7003 46.2001 34.9002 49.5001 29.6002 52.9001C24.2002 56.2001 20.4002 59.7001 20.4002 59.7001C20.4002 59.7001 20.3001 59.6 21.0001 60.5C21.8001 61.5 22.1002 61.5 22.1002 61.5C22.1002 61.5 26.2002 60.5001 32.1002 57.8001Z" fill="#1965AC"/>
<path fill-rule="evenodd" clip-rule="evenodd" d="M22.1 61.8001C22 61.8001 21.6 61.6 20.8 60.6C20.6 60.4 20.4668 60.2333 20.4001 60.1L20.2001 59.9C20.1001 59.7 20.2 59.6 20.3 59.5C20.9 58.9 24.6001 55.7 29.4001 52.6C31.9001 51.1 34.9 49.4 37.6 48.1C41.9 46 42.2001 46.3 42.4001 46.5C43.6001 47.8 43.9001 49.9 42.9001 51C39.9001 54 36.5 56.2 33.6 57C33.3 57 32.9999 56.8001 32.4999 56.3001C32.3999 56.1001 32.2 56.0001 32.1 55.8001C32.1 56.1001 32.2 56.4 32.3 56.6C32.5 57.4 32.6001 57.9 32.2001 58C26.3001 60.8 22.2001 61.8001 22.2001 61.8001H22.1ZM31.8 56.7001C31.6 55.9001 31.5 55.4001 31.8 55.2001C32.2 55.1001 32.5001 55.4 32.9001 55.9C33.1001 56.1 33.3999 56.4 33.4999 56.5C36.3999 55.7 39.6999 53.6 42.4999 50.6C43.1999 49.8 43.2 48.1 42.1 46.9C41.2 46.8 35 49.8 29.8 53.1C25.2 56 21.7 59.0001 20.8 59.8001C20.9333 59.8667 21.1 60.0334 21.3 60.3001C21.8 61.0001 22.1001 61.2001 22.2001 61.2001C22.7001 61.1001 26.5999 60.1 31.9999 57.6C31.9999 57.4 31.9 57.0001 31.8 56.7001Z" fill="#050505"/>
<path d="M22.2002 61.3001C22.2002 61.3001 25.9001 60.5001 31.8001 57.8001C32.0001 57.7001 31.9001 57.2 31.8001 56.6C31.7001 56.2 31.5001 55.3001 31.6001 55.2001C32.1001 55.0001 32.5002 55.5001 32.9002 55.9001C33.2002 56.2001 33.4001 56.4001 33.6001 56.4001C36.4001 55.7001 39.5 53.6001 42.5 50.3001C42.5667 50.3001 42.6001 50.3001 42.6001 50.3001C42.6001 50.3001 43.6 48.8001 42 46.9001C42 46.8001 41.9001 46.8001 41.8001 46.9001C41.7001 46.9001 41.7001 47 41.8001 47.1C43.1001 48.8 42.4001 50 42.3001 50.1C39.3001 53.3 36.3 55.3 33.5 56C33.4 56 33.3001 55.8001 33.1001 55.7001C32.7001 55.2001 32.2 54.6001 31.5 54.9001C31.1 55.1001 31.3002 55.8 31.4002 56.6C31.5002 56.9 31.6001 57.3 31.6001 57.5C26.2001 59.9 22.8002 60.8 22.2002 61C22.1002 60.8 21.7001 60.4 21.1001 59.6C21.0001 59.6 20.9001 59.5 20.8001 59.6C20.7001 59.7 20.7001 59.8001 20.8001 59.8001C21.6001 60.8001 22 61.3001 22 61.3001C22.0667 61.3001 22.1336 61.3001 22.2002 61.3001Z" fill="#FDC02E"/>
</g>
<defs>
<radialGradient id="paint0_radial_239_65123" cx="0" cy="0" r="1" gradientUnits="userSpaceOnUse" gradientTransform="translate(33.9001 40.9001) scale(3.90002 3.90005)">
<stop stop-color="#F5A2B8"/>
<stop offset="1" stop-color="white"/>
</radialGradient>
<radialGradient id="paint1_radial_239_65123" cx="0" cy="0" r="1" gradientUnits="userSpaceOnUse" gradientTransform="translate(15.7001 39.8) scale(2.60002 2.59997)">
<stop stop-color="#F5A2B8"/>
<stop offset="1" stop-color="white"/>
</radialGradient>
<clipPath id="clip0_239_65123">
<rect width="95" height="100" fill="white"/>
</clipPath>
</defs>
</svg>
