<svg width="97" height="113" viewBox="0 0 97 113" fill="none" xmlns="http://www.w3.org/2000/svg">
<g clip-path="url(#clip0_239_64584)">
<path d="M70 103.388L0 98.5878L5.5 29.8878L73 34.8878L70 103.388Z" fill="#7358A4"/>
<path d="M79.2 113.045L70 103.388L72.3999 32.5878L79.2 44.0446V113.045Z" fill="#332F56"/>
<path d="M17.7 108.545L0 98.5878L70 103.388L79.2 113.045L17.7 108.545Z" fill="#5A438D"/>
<path d="M45.3999 47.3878C44.9999 46.7878 43.5999 44.4878 42.8999 43.7878C41.9999 43.0878 40.9999 43.3878 39.8999 44.1878C38.6999 45.0878 38.2999 46.0878 38.8999 47.5878C39.1999 48.1878 40.2 49.3878 40.7 50.0878C41.3 50.7878 42.8 52.3878 44.7 51.0878C46.6 49.7878 45.8999 47.9878 45.3999 47.3878Z" fill="#AB795A" stroke="#050505" stroke-width="0.5" stroke-linecap="round" stroke-linejoin="round"/>
<g style="mix-blend-mode:multiply" opacity="0.2">
<path d="M40.7 50.0878C41.3 50.7878 42.8 52.3878 44.7 51.0878C46.6 49.7878 45.7 47.7878 45.2 47.0878C43.7 47.4878 42.4 48.6878 40.7 50.0878Z" fill="#050505"/>
</g>
<path d="M44.8 46.8878L44.8999 45.5878C44.7999 45.0878 44.5 44.5878 44 44.5878C43.5 44.5878 43.3 44.8878 43.2 45.0878C43 45.4878 43 45.7877 43 45.7877" fill="#AB795A"/>
<path d="M44.8 46.8878L44.8999 45.5878C44.7999 45.0878 44.5 44.5878 44 44.5878C43.5 44.5878 43.3 44.8878 43.2 45.0878C43 45.4878 43 45.7877 43 45.7877" stroke="#050505" stroke-width="0.5" stroke-linecap="round" stroke-linejoin="round"/>
<g style="mix-blend-mode:multiply" opacity="0.2">
<path d="M42.9999 45.0878C42.9999 45.0878 42.4999 45.2878 42.4999 45.7878C42.4999 46.2878 42.5 46.5878 42.3 46.7878C42 46.9878 41 47.8878 40.6 47.6878C40.2 47.5878 38.8999 46.2878 39.4999 45.4878C40.0999 44.6878 41.7 43.3878 42.6 44.0878C43.4 44.6878 42.9999 45.0878 42.9999 45.0878Z" fill="#050505"/>
</g>
<path d="M39.8 51.7877C40.8 53.0877 41.5 54.0878 42.7 55.5878C44.7 58.1878 46.7 59.3878 46.7 59.3878C48.5 60.5878 50.6 60.2877 51.7 58.7877L52 58.2877C53 56.9877 53.1001 54.9878 51.1001 53.4878C51.1001 53.4878 49.2 51.9878 47.8 50.0878C46.9 48.8878 45.7 47.2877 45.7 47.2877L39.8 51.7877Z" fill="#F5F6F7" stroke="#050505" stroke-width="0.5" stroke-linecap="round" stroke-linejoin="round"/>
<path opacity="0.3" d="M39.8 51.7877C40.8 53.0877 41.5 54.0878 42.7 55.5878C44.7 58.1878 46.7 59.3878 46.7 59.3878C48.5 60.5878 50.6 60.2877 51.7 58.7877L52 58.2877C52.1333 58.1544 52.2666 57.9877 52.3999 57.7877C51.9999 57.8877 51.8 57.8878 51.8 57.8878C51.8 57.8878 49.5 59.0878 46.7 56.4878C44.8 54.6878 42.9 51.8877 41.8 50.2877L39.8 51.7877Z" fill="#0A0C0F"/>
<path d="M46.9 62.0878L39.0001 65.5878C39.0001 65.5878 38.4001 70.5878 41.5001 73.8878C50.7001 71.0878 58.3001 68.9878 58.3001 68.9878C58.3001 68.9878 59.4002 67.3877 55.1002 64.7877C51.4002 62.3877 46.9 62.0878 46.9 62.0878Z" fill="#4E69B1" stroke="#050505" stroke-width="0.5" stroke-linecap="round" stroke-linejoin="round"/>
<g style="mix-blend-mode:multiply">
<path d="M55.2 64.7877C51.1 66.2877 41.7 69.5878 39.5 70.3878C39.9 71.5878 40.5 72.7878 41.5 73.8878C50.7 71.0878 58.3 68.9878 58.3 68.9878C58.3 68.9878 59.4 67.3877 55.2 64.7877Z" fill="#DFDFDF"/>
</g>
<path d="M39.3999 65.5878C39.3999 65.5878 37.5 66.2878 35.5 63.8878L39.2 74.5878C39.2 74.5878 41.4 73.9877 41.8 73.7877C41.9 73.7877 42.3 71.8878 40.7 67.9878C39.9 66.0878 39.3999 65.5878 39.3999 65.5878Z" fill="#050505" stroke="#050505" stroke-width="0.4" stroke-linecap="round" stroke-linejoin="round"/>
<path d="M35.4999 63.8878C35.4999 63.8878 36.6 65.4877 37.3 67.1877C37.9 68.8877 39.2 72.6878 39.3 73.4878C39.5 74.2878 39.3999 74.4878 39.1999 74.5878C38.9999 74.6878 38.4998 74.2878 37.8998 73.0878C37.0998 71.4878 36.1 68.6878 35.8 67.3878C35.3 65.1878 35.4999 63.8878 35.4999 63.8878Z" fill="#766155" stroke="#050505" stroke-width="0.4" stroke-linecap="round" stroke-linejoin="round"/>
<path d="M52.8 67.6877L44.8998 71.2877C44.8998 71.2877 44.3999 76.2878 47.4999 79.5878C56.6999 76.7878 64.1999 74.6877 64.1999 74.6877C64.1999 74.6877 65.4 73.0878 61.1 70.4878C57.4 68.0878 52.8 67.6877 52.8 67.6877Z" fill="#4E69B1" stroke="#050505" stroke-width="0.5" stroke-linecap="round" stroke-linejoin="round"/>
<g style="mix-blend-mode:multiply">
<path d="M61.2 70.4878C57.1 71.9878 47.6 75.2878 45.5 76.0878C45.8 77.2878 46.5 78.4878 47.5 79.5878C56.7 76.7878 64.2 74.6877 64.2 74.6877C64.2 74.6877 65.3 73.0878 61.2 70.4878Z" fill="#DFDFDF"/>
</g>
<path d="M45.3 71.2877C45.3 71.2877 43.4999 71.9878 41.3999 69.5878L45.2 80.2877C45.2 80.2877 47.3 79.6878 47.7 79.4878C47.9 79.3878 48.2 77.4877 46.7 73.6877C45.9 71.7877 45.3 71.2877 45.3 71.2877Z" fill="#050505" stroke="#050505" stroke-width="0.4" stroke-linecap="round" stroke-linejoin="round"/>
<path d="M41.3998 69.5878C41.3998 69.5878 42.5999 71.1877 43.1999 72.7877C43.8999 74.4877 45.2 78.3877 45.3 79.1877C45.4 79.9877 45.3999 80.1877 45.1999 80.2877C44.9999 80.3877 44.5 79.9877 43.8 78.7877C43 77.1877 41.9999 74.3878 41.6999 73.0878C41.1999 70.8878 41.3998 69.5878 41.3998 69.5878Z" fill="#766155" stroke="#050505" stroke-width="0.4" stroke-linecap="round" stroke-linejoin="round"/>
<path d="M60.8001 60.3878C59.2001 64.7878 61.5 69.6877 65.9 71.1877C70.4 72.7877 75.2001 70.4877 76.8001 66.0877C78.4001 61.6877 76.1001 56.7877 71.6001 55.1877C67.2001 53.6877 62.4001 55.9878 60.8001 60.3878Z" fill="#C02F2D" stroke="#050505" stroke-width="0.5" stroke-linecap="round" stroke-linejoin="round"/>
<path d="M61.3 53.2877C56.4 51.9877 54.6 52.0878 53.3 51.9878C51.7 51.8878 49.5001 52.7878 49.1001 54.3878C48.7001 55.8878 48.3 56.8877 46.5 60.0877C44.9 63.0877 42.9999 64.7878 42.8999 65.3878C42.9999 67.3878 49.4 71.2877 51.5 72.1877C57.2 74.4877 60.5001 73.8877 64.6001 75.2877C67.7001 76.3877 68.3 76.0877 68.7 75.7877C70 74.9877 71 58.3878 71 58.3878C71 58.3878 70.7 57.7878 69.7 56.8878C68 55.4878 63.3 53.7877 61.3 53.2877Z" fill="#F5F6F7" stroke="#050505" stroke-width="0.5" stroke-linecap="round" stroke-linejoin="round"/>
<path d="M60.4 67.9878C59.9 70.0878 60.9002 71.6877 62.6002 72.2877C64.2002 72.8877 65.8 72.2878 66.4 70.0878L66.9 67.7877L60.9 65.5878L60.4 67.9878Z" stroke="#050505" stroke-width="0.4" stroke-linecap="round" stroke-linejoin="round"/>
<path d="M60.5 66.7877L66.7 68.9878L60.5 66.7877Z" fill="#EE3D3B"/>
<path d="M60.5 66.7877L66.7 68.9878" stroke="#050505" stroke-width="0.4" stroke-linejoin="round"/>
<path d="M55.7999 64.1877C55.6999 64.5877 55.3999 64.7877 54.9999 64.6877C54.6999 64.4877 54.5 64.1877 54.6 63.7877C54.6 63.3877 54.9999 63.2878 55.2999 63.3878C55.6999 63.4878 55.8999 63.8877 55.7999 64.1877Z" fill="#050505"/>
<path d="M54.6002 66.8878C54.5002 67.1878 54.2002 67.3877 53.8002 67.2877C53.5002 67.1877 53.3 66.7878 53.4 66.3878C53.4 66.0878 53.8002 65.8878 54.1002 65.9878C54.5002 66.0878 54.7002 66.4878 54.6002 66.8878Z" fill="#050505"/>
<path d="M53.2 69.3878C53.1 69.7878 52.6999 69.8877 52.3999 69.7877C52.0999 69.6877 51.8999 69.2878 51.8999 68.9878C51.9999 68.5878 52.4 68.3878 52.7 68.4878C53.1 68.6878 53.3 68.9878 53.2 69.3878Z" fill="#050505"/>
<path d="M54.8999 61.3878C54.8999 61.3878 54.5 63.0878 52.8 66.0878C51.1 69.0878 50.3999 71.3878 50.3999 71.3878" fill="#FEFEFE"/>
<path d="M54.8999 61.3878C54.8999 61.3878 54.5 63.0878 52.8 66.0878C51.1 69.0878 50.3999 71.3878 50.3999 71.3878" stroke="#050505" stroke-width="0.4" stroke-linecap="round" stroke-linejoin="round"/>
<path d="M55.3 61.0877L54.8 60.7877L55.3 55.6877C55.3 55.6877 55.8 52.3878 60.8 53.8878C65.3 55.1878 61.6999 57.9878 59.3999 58.9878C57.7999 59.5878 55.3 61.0877 55.3 61.0877Z" fill="#9FC8EA"/>
<mask id="mask0_239_64584" style="mask-type:luminance" maskUnits="userSpaceOnUse" x="43" y="57" width="9" height="11">
<path d="M47.8899 57.9377L43.1399 65.2777L47.8 67.6178L51.75 60.9978L47.8899 57.9377Z" fill="white"/>
</mask>
<g mask="url(#mask0_239_64584)">
<path d="M41.6002 59.6877C40.6002 61.5877 41.4 63.2877 42.9 64.2877C44.4 65.1877 46.1002 64.9878 47.1002 63.0878L48.1002 60.9878L42.6002 57.4878L41.6002 59.6877Z" stroke="#050505" stroke-width="0.4" stroke-linecap="round" stroke-linejoin="round"/>
<path d="M42 58.4878L47.7 61.9878L42 58.4878Z" fill="#EE3D3B"/>
<path d="M42 58.4878L47.7 61.9878" stroke="#050505" stroke-width="0.4" stroke-linejoin="round"/>
</g>
<g style="mix-blend-mode:multiply">
<path d="M67.6001 68.7877C67.6001 68.7877 67.4001 70.8877 67.1001 72.2877C66.7001 73.7877 66.3 75.6877 66.3 75.6877C66.3 75.6877 68.4 76.6877 69 75.2877C69.6 73.8877 70.1001 68.6877 70.1001 68.6877C70.1001 68.6877 68.3001 69.1877 67.6001 68.7877Z" fill="#DFDFDF"/>
</g>
<g style="mix-blend-mode:multiply">
<path d="M54.5 63.0878C54.2 63.7878 54.8 63.0877 55.2 62.7877C55.6 62.4877 55.8001 62.0878 55.8001 62.0878C55.8001 62.0878 59.1 61.9878 60.2 61.9878L60 61.2877C60 61.2877 62.2001 61.5878 62.6001 61.5878C63.0001 61.5878 63.8 55.9878 63.7 54.8878C63.7 54.8878 62.6001 57.2877 61.1001 58.1877C59.5001 59.0877 56.5999 60.0878 55.8999 60.5878C55.2999 61.1878 54.9 61.8878 54.5 63.0878Z" fill="#DFDFDF"/>
</g>
<path d="M63.8 55.3878C63.2 57.0878 61.8 60.8878 61.8 60.8878L57.8999 59.9878L58.3999 61.1877L54.8999 61.4878L55.1001 60.8878C55.1001 60.8878 57.6 59.0877 58.5 58.7877C59.4 58.4877 62.4001 56.9877 63.1001 54.6877" fill="#F5F6F7"/>
<path d="M63.8 55.3878C63.2 57.0878 61.8 60.8878 61.8 60.8878L57.8999 59.9878L58.3999 61.1877L54.8999 61.4878L55.1001 60.8878C55.1001 60.8878 57.6 59.0877 58.5 58.7877C59.4 58.4877 62.4001 56.9877 63.1001 54.6877" stroke="#050505" stroke-width="0.4" stroke-linecap="round" stroke-linejoin="round"/>
<g style="mix-blend-mode:multiply">
<path d="M55.8999 53.3878C55.8999 53.3878 52.3999 55.1878 50.8999 57.5878L52.5 58.3878C52.5 58.3878 51.7 58.4878 51.7 58.5878C51.7 58.7878 53.4 60.7877 53.7 61.1877C54 61.5877 53.3001 62.5877 53.6001 62.6877C54.0001 62.7877 53.9999 61.2878 54.3999 61.3878C54.6999 61.4878 54.5 59.7877 54.5 59.7877C54.5 59.7877 53.7001 56.6877 54.6001 55.6877C55.6001 54.5877 55.8999 53.3878 55.8999 53.3878Z" fill="#DFDFDF"/>
</g>
<path d="M56.3 52.8878C54.4 54.0878 51.8999 57.2877 51.8999 57.2877L53.8 58.2877L53.1001 58.5878L54.8 61.5878L55.1001 60.6877C55.1001 60.6877 54.8999 58.2878 54.8999 57.4878C54.8999 56.6878 55.8 54.3877 57 53.2877" fill="#F5F6F7"/>
<path d="M56.3 52.8878C54.4 54.0878 51.8999 57.2877 51.8999 57.2877L53.8 58.2877L53.1001 58.5878L54.8 61.5878L55.1001 60.6877C55.1001 60.6877 54.8999 58.2878 54.8999 57.4878C54.8999 56.6878 55.8 54.3877 57 53.2877" stroke="#050505" stroke-width="0.4" stroke-linecap="round" stroke-linejoin="round"/>
<g style="mix-blend-mode:multiply">
<path d="M54.5 62.1877C54.5 62.1877 53.5 63.8878 52.8 64.9878C52 65.9878 51.6 67.1878 51 68.5878C50.4 69.9878 49.8 71.2877 49.8 71.2877L50.3999 71.1877C50.3999 71.1877 51.8999 67.9877 52.8999 66.1877C53.7999 64.2877 54.5 62.1877 54.5 62.1877Z" fill="#DFDFDF"/>
</g>
<g style="mix-blend-mode:multiply">
<path d="M44.1001 64.8878C44.1001 64.8878 46.3001 65.6878 47.6001 63.3878C48.9001 61.0878 48.3999 60.9878 48.3999 60.9878C48.3999 60.9878 48.1001 61.2878 47.6001 62.3878C47.0001 63.3878 46.6001 64.3878 44.1001 64.8878Z" fill="#DFDFDF"/>
</g>
<g style="mix-blend-mode:multiply">
<path d="M60.8002 65.5878L60.6002 66.6877L65.3002 68.6877C65.3002 68.6877 61.7002 67.5878 61.3002 67.5878C61.0002 67.4878 60.6002 68.9878 60.6002 69.9878C60.6002 69.9878 61.3001 72.0878 62.7001 72.4878C64.1001 72.9878 65.9 72.1877 65.9 72.1877C65.9 72.1877 64.7001 73.5878 62.5001 73.0878C60.4001 72.5878 59.1001 70.4877 59.5001 68.1877C59.5001 68.1877 59.6001 68.7878 59.7001 69.0878C59.9001 69.4878 60.2002 65.6878 60.8002 65.5878Z" fill="#DFDFDF"/>
</g>
<path d="M67.3 58.4878C62.3 60.9878 64.7 68.0877 68.5 68.2877C75.8 68.7877 73.6999 61.0878 73.6999 61.0878C73.6999 61.0878 72.9 56.7878 67.3 58.4878Z" fill="#EE3D3B" stroke="#050505" stroke-width="0.5" stroke-linecap="round" stroke-linejoin="round"/>
<path d="M49.1 54.3878C48.8 55.5878 48.3998 56.4878 47.3998 58.3878C47.3998 58.3878 46.1998 60.6878 47.3998 58.4878C48.6998 56.2878 55.3998 52.2877 55.3998 52.2877C55.1998 52.0877 54.4998 52.3878 54.1998 51.9878C53.8665 51.9878 53.5666 51.9878 53.2999 51.9878C51.6999 51.8878 49.5 52.7878 49.1 54.3878Z" fill="#EE3D3B" stroke="#050505" stroke-width="0.5" stroke-linecap="round" stroke-linejoin="round"/>
<g style="mix-blend-mode:multiply">
<path d="M70.3 58.3878C70.3 58.3878 67.7 57.6877 66 59.7877C66 59.7877 67.4 59.4877 67.8 61.1877C68.2 62.9877 67.2001 64.5878 68.1001 65.9878C69.0001 67.3878 68.3 68.4877 67.8 68.2877C67.8 68.2877 67.9001 68.9877 69.1001 68.7877C70.2001 68.5877 70.7 68.5877 70.7 68.5877L72.5 67.5877L73.8999 65.5877L73.7 59.8878L70.7 58.3878H70.3Z" fill="#DFDFDF"/>
</g>
<g style="mix-blend-mode:multiply">
<path d="M55 52.5878C55 52.5878 49.3 58.1878 48.5 58.8878C47.6 59.4878 47.5 60.4878 47.5 60.4878L46.7 59.8878L47.6001 58.0878L55 52.5878Z" fill="#DFDFDF"/>
</g>
<path d="M84.9999 44.7877C81.4999 54.7877 73.2999 63.8877 59.4999 59.2877C43.2999 53.9877 44.4999 45.0878 47.9999 35.0878C51.5999 25.1878 62.5998 19.9878 72.6998 23.4878C82.6998 27.0878 88.5999 34.8877 84.9999 44.7877Z" fill="#AB795A" stroke="#050505" stroke-width="0.5"/>
<g style="mix-blend-mode:multiply">
<path d="M85 44.7877C88.6 34.8877 82.7 27.0878 72.7 23.4878C67.9 21.7878 62.9001 22.0878 58.6001 23.9878C58.4001 24.2878 58.3999 24.4878 58.3999 24.4878C58.3999 24.4878 62.6999 36.8878 63.3999 39.0878C64.0999 41.1878 65.1 44.5878 66.8 46.8878C68.4 49.1878 69.4 49.8878 68.8 52.1878C68.8 52.1878 66.1 59.8878 56.8 57.6878C56.8 57.6878 56.9 57.9878 57.3 58.4878C57.9667 58.8211 58.7 59.0877 59.5 59.2877C73.3 63.8877 81.5 54.7877 85 44.7877Z" fill="#DFDFDF"/>
</g>
<g style="mix-blend-mode:multiply">
<path d="M55.2999 46.0878C55.2999 46.0878 53.9 47.3878 52.6 46.8878C51.3 46.4878 51.6 44.6877 51.6 44.6877C51.6 44.6877 51.9998 45.7878 52.6998 45.9878C53.2998 46.1878 55.2999 46.0878 55.2999 46.0878Z" fill="#DFDFDF"/>
</g>
<path d="M51.5 44.7877L52.1001 45.5878C52.4001 45.8878 52.9 46.0878 53.3 46.0878H55.3" stroke="#050505" stroke-width="0.5" stroke-linecap="round" stroke-linejoin="round"/>
<path d="M63.6001 51.3878C63.6001 51.3878 60.9 52.2878 59 51.9878" stroke="#050505" stroke-width="0.5" stroke-linecap="round" stroke-linejoin="round"/>
<path opacity="0.2" d="M61.7 53.0878C61.2 53.1878 60.5999 53.2877 59.8999 53.2877" stroke="#050505" stroke-width="0.7" stroke-linecap="round" stroke-linejoin="round"/>
<path d="M63.3 42.1878C63.3 42.1878 64.3999 42.0878 64.8999 42.6878C65.5999 43.3878 65.8 44.3878 65.8 44.3878" stroke="#050505" stroke-width="0.5" stroke-linecap="round"/>
<path d="M50.6001 37.6878C50.6001 37.6878 49.9001 36.9878 49.1001 37.0878C48.1001 37.0878 47.3999 37.7877 47.3999 37.7877" stroke="#050505" stroke-width="0.5" stroke-linecap="round"/>
<path d="M48.1002 40.0878C47.8002 40.8878 48.0001 41.5878 48.5001 41.7878C49.0001 41.9878 49.6 41.4878 49.9 40.7878C50.2 39.9878 50.0001 39.1878 49.5001 38.9878C49.0001 38.7878 48.3002 39.2878 48.1002 40.0878Z" fill="#050505"/>
<path d="M49.6 39.7877C49.6 39.8877 49.4999 39.9878 49.3999 39.9878C49.2999 39.8878 49.2 39.7878 49.3 39.5878C49.3 39.4878 49.3999 39.3878 49.4999 39.3878C49.6999 39.4878 49.7 39.5877 49.6 39.7877Z" fill="#FEFEFE"/>
<path d="M49.6 39.7877C49.6 39.8877 49.4999 39.9878 49.3999 39.9878C49.2999 39.8878 49.2 39.7878 49.3 39.5878C49.3 39.4878 49.3999 39.3878 49.4999 39.3878C49.6999 39.4878 49.7 39.5877 49.6 39.7877Z" fill="#FEFEFE"/>
<path d="M64.1 45.7877C63.8 46.5877 62.9999 47.1877 62.4999 46.9877C61.8999 46.7877 61.6999 45.8877 61.9999 44.9877C62.2999 44.0877 63 43.5877 63.6 43.7877C64.2 43.9877 64.4 44.8877 64.1 45.7877Z" fill="#050505"/>
<path d="M64 44.6877C63.9 44.8877 63.8001 44.9878 63.6001 44.8878C63.5001 44.8878 63.5 44.6878 63.5 44.5878C63.6 44.3878 63.6999 44.2877 63.8999 44.2877C63.9999 44.3877 64 44.5877 64 44.6877Z" fill="#FEFEFE"/>
<path d="M81.8 26.3878C81.8 26.3878 79.7999 22.1878 76.8999 20.3878C74.0999 18.5878 73.8 18.9878 73.8 18.9878C73.8 18.9878 77.9999 20.7877 79.3999 25.7877" fill="#050505"/>
<path d="M85.6001 30.0878C85.6001 30.0878 83.8 27.9877 86.3 26.7877C86.3 26.7877 84.5 26.1878 84 27.0878C84 25.7878 83.6 23.3877 80.3 21.2877C80.3 21.2877 81.7 24.1878 79.5 23.9878" fill="#050505"/>
<path d="M84.6001 46.8878C84.6001 46.8878 88 46.1877 84.7 51.2877C83 53.8877 78.8 56.3878 78.8 56.3878L84.6001 46.8878Z" fill="#221E1F"/>
<path d="M54.3 24.4878C54.3 24.4878 47.4999 26.6877 44.1999 33.1877C44.0999 33.4877 46.1 31.1878 49.3 29.5878" fill="#050505"/>
<path d="M82.5 26.2877C82.5 26.2877 92.4 33.5877 87.8 45.6877C87.8 45.6877 87.9 37.2877 82.5 26.2877Z" fill="#050505"/>
<path d="M76.6001 34.9877C76.2001 34.7877 75.1 46.5877 80.2 48.6877C82.6 44.9877 81.3 40.3878 81.3 40.3878C82.6 44.3878 81.8001 47.9877 81.1001 49.0877C82.0001 49.4877 84.4 50.3878 86 50.3878C86 50.3878 95.3001 29.2877 71.6001 21.4877C71.6001 21.4877 57.6 15.6877 45.3 33.2877C45.3 33.2877 45.3 34.0877 46.5 35.7877C47.5 37.1877 51.6 28.4878 52.8 29.3878" fill="#050505"/>
<path d="M68.8999 20.7878C66.5999 20.2878 57.3999 18.2878 46.8999 27.5878C46.8999 27.5878 71.2999 21.2878 68.8999 20.7878Z" fill="#050505"/>
<path d="M55.2 22.2877C55.2 22.2877 73.6 12.6877 84.8 28.6877C95.9 44.7877 55.2 22.2877 55.2 22.2877Z" fill="#050505"/>
<path d="M86.3999 49.1877C86.3999 49.1877 85.3 53.1877 82.3 55.6877C79.4 58.0877 78.8 58.0878 78.8 58.0878C78.8 58.0878 80.4001 56.7877 82.1001 51.7877" fill="#050505"/>
<path d="M76.1999 58.9878C76.1999 58.9878 75.0999 59.3877 74.1999 58.7877C73.7999 58.5877 75.4999 57.5878 75.4999 57.5878L76.1999 58.9878Z" fill="#050505"/>
<path d="M65.5001 21.7877C65.5001 21.7877 55.8 17.5878 45.7 33.8878C45.7 33.8878 45.5 33.8877 46.2 35.2877C46.8 36.3877 46.8 36.4878 47.7 37.1878C48.4 34.9878 49.5 34.0878 53.7 31.6878C53.7 31.6878 49.2 34.3878 48.9 38.0878C57.6 44.3878 64.8001 39.4878 64.8001 39.4878C64.5001 39.3878 63.7 45.0877 69.2 45.7877C71.2 42.3877 71.4 37.8878 71.4 37.8878C71.9 41.2878 71.5001 43.5878 70.5001 46.0878C71.1001 46.4878 73 46.4878 74.2 46.3878C74.2 46.3878 82.3001 27.0877 65.5001 21.7877Z" fill="#050505"/>
<path d="M74.2 46.3878C74.2 46.3878 79.4 48.5877 74.8 58.2877L83.5 53.4878C83.5 53.4878 90.7 44.0877 86.2 34.1877C81.7 24.2877 79.8 29.8878 79.8 29.8878L75.3999 30.7877L74.2 46.3878Z" fill="#050505"/>
<path d="M70.5 46.0878C70.5 46.0878 75.5 50.2877 74.7 57.6877C74.6 58.7877 76.2 58.9878 76.2 58.9878C76.2 58.9878 80.6001 56.9878 82.1001 53.8878C83.6001 50.7878 77.2 43.9878 77.2 43.9878L70.5 46.0878Z" fill="#050505"/>
<path d="M78.8001 59.3878C79.6001 59.1878 82.1 58.2877 83 58.1877C84.2 58.1877 84.8001 59.0877 85.1001 60.2877C85.5001 61.7877 85.1001 62.8878 83.8001 63.5878C83.2001 63.8878 81.6001 64.1878 80.8001 64.3878C79.9001 64.5878 77.7 64.8877 77 62.6877C76.4 60.3877 78.1001 59.5878 78.8001 59.3878Z" fill="#AB795A" stroke="#050505" stroke-width="0.5" stroke-linecap="round" stroke-linejoin="round"/>
<g style="mix-blend-mode:multiply" opacity="0.2">
<path d="M80.8 64.3878C79.9 64.5878 77.7 64.8877 77 62.6877C76.4 60.3877 78.3999 59.4877 79.1999 59.2877C80.0999 60.4877 80.4 62.1878 80.8 64.3878Z" fill="#050505"/>
</g>
<path d="M79.7 59.3878L80.3999 58.2877C80.6999 57.8877 81.3 57.7878 81.7 58.0878C82.1 58.3878 82.1001 58.7878 82.1001 58.9878C81.9001 59.3878 81.7 59.6878 81.7 59.6878" fill="#AB795A"/>
<path d="M79.7 59.3878L80.3999 58.2877C80.6999 57.8877 81.3 57.7878 81.7 58.0878C82.1 58.3878 82.1001 58.7878 82.1001 58.9878C81.9001 59.3878 81.7 59.6878 81.7 59.6878" stroke="#050505" stroke-width="0.5" stroke-linecap="round" stroke-linejoin="round"/>
<g style="mix-blend-mode:multiply" opacity="0.2">
<path d="M82.2 58.9878C82.2 58.9878 82.4002 59.5879 82.1002 59.8879C81.9002 60.2879 81.6 60.5879 81.7 60.8879C81.7 61.1879 82 62.4878 82.4 62.6878C82.7 62.7878 84.6 62.5878 84.7 61.5878C84.7 60.5878 84.2 58.5878 83.2 58.5878C82.1 58.4878 82.2 58.9878 82.2 58.9878Z" fill="#050505"/>
</g>
<path d="M80.4 65.9878C78.8 66.3878 77.6 66.6878 75.7 67.0878C72.5 67.8878 70.2 67.4878 70.2 67.4878C68.1 67.2878 66.6 65.7878 66.7 63.8878V63.2877C66.8 61.5877 68.0002 59.9877 70.6002 60.1877C70.6002 60.1877 73 60.1877 75.2 59.6877C76.7 59.2877 78.6002 58.7877 78.6002 58.7877L80.4 65.9878Z" fill="#F5F6F7" stroke="#050505" stroke-width="0.5" stroke-linecap="round" stroke-linejoin="round"/>
<path opacity="0.3" d="M80.4 65.9878C78.8 66.3878 77.6 66.6878 75.7 67.0878C72.5 67.8878 70.2 67.4878 70.2 67.4878C68.1 67.2878 66.6 65.7878 66.7 63.8878V63.2877C66.7667 63.0877 66.8001 62.8877 66.8001 62.6877C67.1001 62.9877 67.2 63.0878 67.2 63.0878C67.2 63.0878 68.2002 65.5877 72.1002 65.2877C74.6002 65.0877 77.9001 64.1878 79.8001 63.5878L80.4 65.9878Z" fill="#0A0C0F"/>
<path fill-rule="evenodd" clip-rule="evenodd" d="M80.6999 36.6877C80.6999 36.6877 80.7333 36.6877 80.8 36.6877C81.2 36.7877 81.4 37.1878 81.3 37.5878C81.3 37.7878 81.2666 37.9544 81.1999 38.0878V38.2877C81.1999 38.4211 81.1667 38.5544 81.1 38.6877V38.9878C80.8 41.2878 79.7999 43.3877 78.8999 45.2877C77.9665 47.2877 76.8333 49.2211 75.4999 51.0878C75.4333 51.1544 75.3667 51.2211 75.3 51.2877C75 51.6877 74.5999 52.2877 74.3999 52.6877C74.1999 52.9877 73.7999 53.1877 73.4999 53.1877L72.8999 53.0878C72.5999 52.9878 72.4 52.7878 72.3 52.5878C72.2 52.3878 72.2999 52.0878 72.3999 51.8878C74.6999 49.0878 76.6 46.1878 77.8 43.0878C78.0667 42.5544 78.5 41.4544 79.1 39.7877L79.1999 39.4878C79.1999 39.3545 79.1999 39.2544 79.1999 39.1877C79.2666 39.0544 79.3 38.8877 79.3 38.6877C79.3667 38.2211 79.4333 37.7878 79.4999 37.3878C79.5999 36.8878 79.8998 36.5878 80.3998 36.5878C80.4665 36.5878 80.4999 36.5878 80.4999 36.5878H80.6C80.6 36.5878 80.6332 36.6211 80.6999 36.6877ZM80.4999 37.0878C80.4333 37.0878 80.3998 37.0878 80.3998 37.0878C80.0998 37.0878 79.9999 37.0878 79.9999 37.3878C79.8666 38.0545 79.7666 38.6877 79.6999 39.2877C79.6999 39.3877 79.5999 39.5878 79.4999 39.8878C79.1999 40.7878 78.6 42.4877 78.3 43.2877C76.9 46.4877 75.1 49.4877 72.8 52.1877C72.7 52.3877 72.7999 52.5878 72.8999 52.5878L73.6 52.6877C73.7 52.6877 73.8999 52.5878 73.8999 52.4878C74.2999 51.8878 74.8 51.1877 75.1 50.7877C76.3667 48.9877 77.4999 47.0878 78.4999 45.0878C79.3999 43.0878 80.3 41.0878 80.6 38.8878C80.6667 38.6212 80.6999 38.3877 80.6999 38.1877C80.7666 37.9877 80.8332 37.7545 80.8998 37.4878C80.8998 37.2878 80.7999 37.1878 80.6999 37.0878C80.6332 37.0878 80.6 37.0878 80.6 37.0878C80.5334 37.0878 80.4999 37.0878 80.4999 37.0878Z" fill="#070505"/>
<path d="M80.8998 37.4878C80.8998 37.2878 80.7999 37.1878 80.6999 37.0878C80.6332 37.0878 80.6 37.0878 80.6 37.0878C80.5334 37.0878 80.4999 37.0878 80.4999 37.0878C80.4333 37.0878 80.3999 37.0878 80.3999 37.0878C80.0999 37.0878 79.9999 37.0878 79.9999 37.3878C79.8666 38.0545 79.7666 38.6877 79.6999 39.2877C79.6999 39.3877 79.5999 39.5878 79.4999 39.8878C79.1999 40.7878 78.6 42.4877 78.3 43.2877C76.9 46.4877 75.1 49.4877 72.8 52.1877C72.7 52.3877 72.7999 52.5878 72.8999 52.5878L73.6 52.6877C73.7 52.6877 73.8999 52.5878 73.8999 52.4878C74.2999 51.8878 74.8 51.1877 75.1 50.7877C76.3667 48.9877 77.4999 47.0878 78.4999 45.0878C79.3999 43.0878 80.3 41.0878 80.6 38.8878C80.6667 38.6212 80.6999 38.3877 80.6999 38.1877C80.7666 37.9877 80.8332 37.7545 80.8998 37.4878Z" fill="#E0CC2E"/>
<path d="M84.5 8.38776C84.3 8.48776 84.0999 8.58766 83.8999 8.78766C83.4333 9.121 83.0667 9.02107 82.8001 8.48774C83.4001 8.58774 84 8.38774 84.5 7.98774C85.1 7.38774 85.7999 6.88776 86.3999 6.38776C87.2999 5.68776 88.1 4.98771 88.7 4.08771C89.4 3.18771 89.3 2.38771 88.5 1.58771C88 1.18771 87.5 1.28774 86.7 1.98774C86.5666 2.0544 86.4334 2.15433 86.3001 2.28766C84.8001 3.68766 83.8001 5.48766 82.8001 7.28766C82.6001 7.68766 82.7001 8.08776 82.8001 8.38776C82.1001 8.28776 81.9001 7.88766 82.1001 7.28766C82.2001 6.58766 82.4001 5.98776 82.8001 5.38776C83.4001 4.32109 84.0001 3.25436 84.6001 2.18769C84.6668 2.05436 84.7666 1.921 84.8999 1.78766C86.1999 -0.112336 88.3999 0.0876887 89.3999 2.18769C89.6999 2.78769 89.6 3.38774 89.2 3.98774C88.9 4.68774 88.3001 5.18771 87.8001 5.58771C87.0667 6.25438 86.3335 6.88774 85.6001 7.48774C85.4001 7.68774 85.0001 7.88766 85.1001 8.28766C85.0335 8.35433 84.9666 8.42107 84.8999 8.48774C84.7999 8.18774 84.8 8.18776 84.5 8.38776Z" fill="#A19535"/>
<path d="M80 37.1877C80.0667 37.1877 80.1001 37.1877 80.1001 37.1877L78.5 35.8878C78.7 36.4878 79.3 36.9877 80 37.1877Z" fill="#070505"/>
<path fill-rule="evenodd" clip-rule="evenodd" d="M81.8 8.48776C82.7 8.68776 83.3 9.58774 83.1 10.5877C82.8 11.8877 81.4998 12.7877 80.3998 12.5877C79.3998 12.3877 78.9 11.4878 79.1 10.4878C79.4 9.18776 80.7 8.28776 81.8 8.48776ZM74.6 9.38779C75.6 7.58779 76.8998 7.28772 78.8998 8.18772C79.1998 8.28772 79.6 8.38774 79.8 8.58774C79 9.48774 78.5 10.3877 78.8 11.5877C78.8 11.6877 78.9 11.8878 78.8 11.9878C78.7 12.0878 78.6 11.9878 78.6 11.8878C78.2 11.6211 77.7998 11.3544 77.3998 11.0877C77.0998 10.9877 75.5 10.0878 74.8 9.98776C74.4 9.88776 74.3 9.78779 74.6 9.38779ZM71.3 15.1877C72.2 13.8877 73 12.4877 73.8 11.1877C74.4 10.2877 74.6 10.2877 75.6 10.7877C75.8 10.8877 78.6998 12.4878 79.8998 13.3878C82.8998 15.4878 85.5 18.0878 87.8 20.9878C88.1333 21.3211 88.4666 21.6877 88.8 22.0877C90 23.4877 89.9999 23.4878 88.1999 23.8878C87.8999 23.8878 85.7999 24.2878 84.9999 24.3878C83.3333 24.5211 81.7 24.3545 80.1 23.8878C79.6 23.7878 78.2999 23.1877 78.1999 23.1877C78.0999 23.0877 77.9 23.0878 77.8 22.9878C77.6 22.8878 77.1999 22.8877 77.1999 22.5877C77.1999 22.2877 77.5 22.1877 77.8 22.1877C77.8666 22.121 77.9333 22.0544 77.9999 21.9878C77.9999 21.9878 78.0334 21.9545 78.1 21.8878C77.8 21.0878 78.3999 20.7877 78.6999 20.2877C78.9999 19.9877 79.6 19.5878 78.6 19.3878C78.3 19.3878 78.3999 19.1878 78.4999 18.9878C78.6999 18.7878 78.7999 18.6878 78.9999 18.4878C79.3999 17.7878 79.3999 17.7877 78.6999 17.5877C78.2999 17.4877 78.3999 17.3877 78.4999 17.0877C78.5999 16.6877 78.7998 16.1877 78.8998 15.7877C78.9998 15.3877 78.8999 15.1877 78.4999 15.2877C77.8999 15.4877 77.4999 15.8877 76.9999 16.1877C76.7999 16.1877 76.8 16.0878 76.8 15.8878C76.8 15.2878 76.4999 15.4877 76.1999 15.6877C75.7999 16.0877 75.5998 16.5877 74.8998 16.1877C74.5998 16.0877 74.3 16.6878 74.1 16.9878C73.9 17.1878 73.7998 17.4878 73.3998 17.4878C73.0998 17.3878 72.9 17.7877 72.8 18.0877C72.4 18.7877 72.2999 18.8877 71.6999 18.1877C71.6332 18.0544 71.5332 17.9545 71.3998 17.8878C70.5998 16.9878 70.5 16.1877 71.3 15.1877ZM69.3998 16.8878L69.4999 16.7877C69.6999 16.4877 69.9999 16.6878 70.1999 16.8878C70.4665 17.2878 70.7333 17.6877 70.9999 18.0877C71.6666 18.7544 72.3667 19.4211 73.1 20.0877C73.2334 20.0211 73.3332 19.921 73.3998 19.7877C73.3332 19.721 73.2665 19.6544 73.1999 19.5877C73.0999 18.9877 73.0999 18.9878 73.1999 18.3878C73.4999 18.3878 73.3999 18.7877 73.6999 18.7877C73.9999 18.1877 74.0999 17.4878 74.6999 16.9878C74.6999 17.0544 74.7333 17.0877 74.8 17.0877C74.8 17.3877 74.5 17.7878 74.8 17.8878C75.2 17.9878 75.2998 17.4877 75.3998 17.2877C75.6998 16.9877 75.9 16.5878 76.3 16.3878C76.4 16.8878 76.1999 17.2877 75.9999 17.6877C75.9999 17.7877 75.7999 17.9877 75.9999 18.0877C76.1999 18.1877 76.2 17.9878 76.3 17.8878C76.8 17.2878 77.1998 16.5877 77.8998 16.1877C77.9998 16.0877 78.1998 15.8878 78.3998 15.9878C78.2998 16.8878 77.6999 17.3878 77.1999 17.8878C77.0665 18.0211 76.9333 18.1544 76.8 18.2877C76.7 18.3877 76.5999 18.4877 76.6999 18.6877C76.7999 18.7877 76.9 18.6877 77.1 18.5877C77.5 18.2877 78 18.0877 78.6 18.0877C78.4 18.7877 77.8999 18.9878 77.4999 19.3878C77.3999 19.4878 77 19.5878 77.1 19.8878C77.2 20.0878 77.4999 19.9878 77.6999 19.9878C77.9999 19.9878 78.1999 19.8878 78.4999 19.8878C78.0999 20.5878 77.6 20.7877 77.1 21.0877C76.9 21.1877 76.6 20.9878 76.6 21.3878C76.6 21.5878 76.9 21.4877 77.1 21.5877C77.2334 21.6544 77.3332 21.6877 77.3998 21.6877C77.2998 22.0877 77 21.9877 76.8 22.0877C76.6 22.2211 76.4333 22.2211 76.3 22.0877C76.3 22.0877 76.2665 22.0544 76.1999 21.9878C75.9332 21.9878 75.7334 21.8877 75.6 21.6877C75.6 21.621 75.6 21.5877 75.6 21.5877C75.4 21.5877 75.1999 21.6877 75.1999 21.7877C78.3999 24.1877 81.9 25.1877 85.8 24.7877C87.1 24.4877 88.4999 24.3878 89.6999 23.8878C89.7999 23.8878 89.9999 23.7878 89.9999 23.9878C90.0999 24.1878 89.8 24.2878 89.6 24.3878C85 26.7878 80.5 26.2877 76.1 23.7877C73.4 22.2877 71.1998 20.0878 69.3998 17.4878C69.2998 17.2878 69.0998 17.0878 69.3998 16.8878ZM90.1 25.6877C87.9 26.9877 85.6 28.0878 83.1 28.8878C81.2 29.4878 79.3 29.8877 77.3 29.5877C75.5 29.2877 73.9999 28.2877 72.4999 27.2877C70.1999 25.7877 68.2 23.8877 66.6 21.5877C66.3 21.2877 66.3 20.8877 66.8 20.6877C67.2 20.5877 67.2998 20.8877 67.3998 21.1877C67.7998 21.3877 68 21.7877 68.3 22.1877C68.7666 22.6544 69.2332 23.1211 69.6999 23.5877C69.7665 23.6544 69.8332 23.721 69.8998 23.7877C70.0332 23.921 70.1666 24.0544 70.3 24.1877C70.3 23.9877 70.3332 23.821 70.3998 23.6877C70.2665 23.6877 70.1667 23.6211 70.1 23.4878C70.0334 23.4211 69.9999 23.3878 69.9999 23.3878C69.9333 23.3211 69.8666 23.2544 69.8 23.1877C69.7333 23.1877 69.6667 23.1211 69.6 22.9878C69.4 22.7878 69.4999 22.5878 69.6999 22.3878C70.0332 21.8545 70.5 21.5211 71.1 21.3878C71.7 21.2878 72.2 21.2877 72.6 21.7877C72.8 21.9877 73.1 22.1878 73.3 22.3878C74.7 23.4878 74.6999 24.5877 73.4999 25.7877C73.1999 26.0877 72.8 25.6878 72.6 25.9878C74.3 27.2878 76.1 28.4877 78.3 28.6877C79.9 28.7877 81.3999 28.3878 82.9999 27.8878C85.2999 27.1878 87.4999 25.9877 89.6999 24.7877C89.8999 24.6877 90.1998 24.3877 90.3998 24.7877C90.5998 25.1877 90.6 25.4877 90.1 25.6877ZM68.3998 19.4878C68.4665 19.4878 68.4999 19.4878 68.4999 19.4878C69.2999 18.1878 69.4 18.1878 70.3 19.4878C70.3666 19.5544 70.3998 19.5877 70.3998 19.5877C70.5998 20.0877 71.3999 20.2877 71.1999 20.6877C71.0999 21.0877 70.3999 21.1878 69.9999 21.3878C69.9999 21.3878 69.9665 21.4211 69.8998 21.4878C69.8332 21.4878 69.7665 21.5211 69.6999 21.5877C69.6332 21.6544 69.6 21.6877 69.6 21.6877C69.5334 21.7544 69.4999 21.7877 69.4999 21.7877C69.2999 22.4877 68.9999 22.3878 68.6999 21.8878C68.6332 21.8878 68.6 21.8544 68.6 21.7877C67.6 20.6877 67.5998 20.6878 68.3998 19.4878ZM74.8 23.9878C74.8 23.4878 75.1 23.7878 75.3 23.8878C76.1666 24.4211 77.0666 24.8877 77.9999 25.2877C79.9999 26.1877 81.8999 26.3878 83.9999 26.3878C84.1999 26.3878 84.6 26.1877 84.6 26.5877C84.7 26.8877 84.3 26.8878 84.1 26.9878C83.5667 27.1878 83.0667 27.3544 82.6 27.4878C82.4 27.6878 82.1333 27.7877 81.8 27.7877C81.2 27.921 80.5665 28.0544 79.8998 28.1877C77.6998 28.4877 75.8 27.6877 74.1 26.5877C73.8 26.3877 73.7999 26.1878 73.9999 25.8878C74.3999 25.3878 74.8 24.7878 74.8 23.9878ZM95.6999 27.5877C94.3999 28.5877 94.3999 28.5878 93.4999 27.3878C92.9999 26.6878 92.2998 26.1877 92.3998 25.1877C92.3998 25.0877 92.3999 24.8877 92.4999 24.6877C92.7999 24.3877 92.9 23.9877 92.6 23.5877C92.3 23.0877 91.7998 22.7878 91.3998 22.9878C90.1998 23.3878 89.8 22.5877 89.3 21.7877C88.1 20.521 86.8999 19.2211 85.6999 17.8878C84.6999 16.6878 83.4998 15.6877 82.3998 14.6877C82.3332 14.621 82.2665 14.5544 82.1999 14.4878C82.0665 14.4211 81.9665 14.321 81.8998 14.1877C81.8332 14.1877 81.7665 14.1544 81.6999 14.0877C81.2999 13.7877 80.8998 13.4877 80.3998 13.0877C81.8998 12.9877 82.8 12.3877 83.3 11.0877C83.5 10.5877 83.7999 10.9877 83.9999 11.0877C85.5999 12.2877 87.0665 13.6544 88.3998 15.1877C89.5998 16.4877 90.6999 17.7877 91.6999 19.2877C93.2999 21.6877 94.6998 24.0877 95.8998 26.6877C96.0998 27.0877 95.9999 27.2877 95.6999 27.5877ZM96.4999 26.3878C96.2999 26.4878 96.2 26.2877 96.1 26.0877C95.7 25.4877 95.5 24.6878 95.1 23.9878C94.1 22.2878 93.0999 20.5878 91.9999 18.9878C90.8999 17.5878 89.9999 16.0878 88.6999 14.8878C87.2999 13.2878 85.7999 11.7877 83.9999 10.5877C83.6999 10.3877 83.5999 10.1877 83.4999 9.78769C83.4999 9.78769 83.4999 9.75438 83.4999 9.68772C83.4999 9.58772 83.5999 9.48774 83.6999 9.58774C83.7665 9.58774 83.8332 9.58774 83.8998 9.58774C84.4998 10.0544 85.0667 10.5211 85.6 10.9878C86.2 11.4878 87.3999 12.4877 87.6999 12.7877C88.5999 13.6877 90.9 16.4878 91.3 16.9878C91.3 16.9878 93.3 19.6877 93.6 20.1877C94.6667 21.921 95.6333 23.6878 96.4999 25.4878C96.5666 25.6211 96.6332 25.7545 96.6999 25.8878C96.7999 26.0878 96.6999 26.2878 96.4999 26.3878ZM91.6 25.6877C91.4 25.7877 91.2 25.6878 91.1 25.4878C90.9667 24.9544 90.8 24.4211 90.6 23.8878C90.6 23.6878 90.6999 23.5877 90.6999 23.5877C91.0999 23.6877 91.9998 25.1878 91.8998 25.3878C91.8998 25.5878 91.7 25.5877 91.6 25.6877ZM92.1 24.3878C91.8 24.2878 91.6999 24.0877 91.6999 23.7877C91.5999 23.5877 91.7999 23.5877 91.9999 23.5877C92.1999 23.6544 92.3332 23.8211 92.3998 24.0877C92.3998 24.2877 92.3 24.3878 92.1 24.3878Z" fill="#070505"/>
<path fill-rule="evenodd" clip-rule="evenodd" d="M97 26.5878C96.8667 26.6545 96.7666 26.7211 96.6999 26.7878C96.3999 27.0878 96.8 27.2878 96.3 27.6878C96.3 27.6878 96.2001 27.7878 96.1001 27.7878C95.7001 28.1878 95.3999 28.2878 94.8999 28.6878C94.8999 28.6878 94.4999 28.8878 94.3999 28.9878C94.1999 29.0878 93.7999 28.8878 93.6999 28.5878C93.2999 27.7878 92.7999 27.0878 92.1999 26.4878C91.9999 26.1878 90.6999 26.0878 90.3999 26.1878C88.9999 26.8878 87.5999 27.5878 86.1999 28.2878C84.5333 29.0211 82.8334 29.5878 81.1001 29.9878C80.8334 29.9878 80.5667 30.0212 80.3 30.0878C80.1667 30.0878 80.0667 30.0878 80 30.0878C79.6 30.0878 78.6999 30.3878 77.6999 30.1878C77.3999 30.0878 77.1 29.8878 77 30.1878C76.9 30.4878 77.3 30.4878 77.5 30.6878L79.1001 32.0878C79.1668 32.1545 79.2666 32.2211 79.3999 32.2878C79.5332 32.4211 79.6333 32.5212 79.6999 32.5878C80.0333 32.7212 80.3666 32.7878 80.6999 32.7878C81.4999 32.7878 82.6001 33.5878 82.6001 34.1878C82.7001 35.0878 83.2 35.3878 83.8 35.6878C84 35.7878 84.3 35.7878 84.3 36.0878C84.3 36.1545 84.2666 36.1878 84.1999 36.1878C84.1999 36.2545 84.1668 36.2878 84.1001 36.2878C84.0334 36.3544 83.9666 36.4212 83.8999 36.4878C83.8332 36.4878 83.8 36.5212 83.8 36.5878C83.7334 36.5878 83.6668 36.6211 83.6001 36.6878C83.1001 36.9878 82.5999 37.5878 81.6999 37.1878C81.3999 37.2878 81.1001 37.3879 81.1001 37.3879L80.1001 37.1878C81.1001 37.2878 82.1 36.5878 82.3 35.4878C82.5 34.4878 81.7001 33.4878 80.6001 33.2878C79.9001 33.1878 79.2 33.4878 78.8 33.9878C78.8 34.0878 78.4001 33.9879 78.1001 33.8879C78.0001 33.7879 77.1 33.4879 77 33.3879C76.4 33.1879 76.5001 32.9878 75.6001 32.4878C74.9001 32.0878 74.2 31.6879 73.5 31.3879C74.5 31.9212 75.5666 32.3878 76.6999 32.7878C76.8999 32.8878 78.0999 33.2878 78.1999 33.2878C78.2999 33.4878 78.5999 33.6879 78.6999 33.3879C78.7999 33.1879 78.6 33.0878 78.5 33.0878C78.4 33.0878 77.2 32.5879 76.8 32.3879C72 30.3879 67.8001 27.4878 64.1001 23.7878C63.7001 23.3878 63.3333 22.9545 63 22.4878C62.5 21.7878 62.5999 21.5878 63.3999 21.4878C64.2999 21.3878 65.0999 21.4878 65.8999 21.5878C65.9999 21.3878 65.8999 21.2878 65.8999 21.0878C66.0999 20.4878 66.4001 20.1878 67.1001 20.1878C67.5001 20.2878 67.6 19.9878 67.8 19.6878C68.1 19.3878 69.1001 18.0878 69.1001 17.9878C69.2001 17.7878 68.8999 17.5879 68.8999 17.3879C68.6999 16.9879 68.8001 16.7878 69.1001 16.5878C69.2334 16.4545 69.4001 16.3544 69.6001 16.2878C69.8001 16.1878 69.9 16.2878 70 16.2878C70 16.1878 70.2 15.9879 70.3 15.8879C70.4 15.6879 71.0001 14.7878 71.1001 14.4878C71.5001 13.8878 72.9001 11.5878 73.1001 11.4878C73.1668 11.3545 73.2334 11.2545 73.3 11.1878C73.5 10.8878 73.5 10.6878 73.8 10.2878C74.2 9.78777 73.6 9.98787 74 9.38787C74 9.38787 75.0999 7.58787 76.1999 6.88787C76.1999 6.8212 76.2334 6.78777 76.3 6.78777C76.3 6.78777 76.4999 6.68782 76.8999 6.58782L77.1999 6.48784C77.5999 6.48784 78.1 6.58782 78.5 6.58782C79.4 6.68782 80.5999 7.18777 80.8999 7.28777C81.0332 7.35444 81.1999 7.42118 81.3999 7.48784C81.4999 7.58784 81.6001 7.6878 81.6001 7.6878C81.6001 7.55446 81.6001 7.45454 81.6001 7.38787C81.6001 7.18787 81.6333 6.92115 81.6999 6.58782C81.7999 6.28782 82.2 5.3878 82.3 5.1878C83 3.7878 83.7999 2.48777 84.6999 1.28777C85.8999 -0.412228 87.7999 -0.412204 89.1999 1.1878C90.1999 2.4878 90.1 3.88782 88.8 5.08782C88 5.88782 86.9999 6.68784 86.1999 7.48784C85.8999 7.68784 84.4999 8.78787 84.3999 8.88787C84.3999 8.88787 84.2001 8.98782 84.1001 9.08782C84.1001 9.15449 84.1001 9.1878 84.1001 9.1878C85.8334 10.3878 87.4332 11.7211 88.8999 13.1878C88.9999 13.2878 90.5 15.0878 90.5 15.0878C91.5 16.2878 93.3 18.5878 93.8 19.2878C94.7 20.6878 95.6 22.1878 96.3 23.7878C96.4 23.8878 97 25.1878 97 25.1878C97 25.2878 97.3999 26.0878 97.3999 26.1878C97.4999 26.2878 97.3 26.3878 97 26.5878ZM71.5 30.1878C71.5 30.1878 72.4 30.6879 73.5 31.3879C72.8333 30.9879 72.1667 30.5878 71.5 30.1878ZM80.8999 7.58782C80.8999 7.58782 79.7999 7.18782 79.3999 7.08782C78.7999 6.88782 78.0999 6.78777 77.6999 6.78777C77.2999 6.78777 76.7 6.78777 76.3 7.28777C77.9 7.28777 79.0999 7.78777 80.1999 8.28777C80.3333 8.28777 80.4333 8.28777 80.5 8.28777C80.7 8.28777 81.1 8.08782 81.3 8.08782C81.6 7.88782 81.1999 7.68782 80.8999 7.58782Z" fill="#070505"/>
<path fill-rule="evenodd" clip-rule="evenodd" d="M82.7 35.5877C82.6 36.1877 82.3 36.7877 81.7 37.1877C81.2 37.4877 80.6001 37.6877 80.0001 37.5877H79.9C78.7 37.3877 77.8001 36.1878 78.0001 34.8878C78.1001 34.1878 78.4 33.6877 78.9 33.2877C79.5 32.8877 80.1 32.7878 80.7 32.8878C82.1 33.0878 82.9 34.2877 82.7 35.5877ZM80.6002 33.2877C79.6002 33.0877 78.6 33.8877 78.4 34.9877C78.3 35.9877 79.0001 36.9877 80.0001 37.1877C81.1001 37.2877 82.1001 36.5877 82.3001 35.4877C82.5001 34.4877 81.7 33.4877 80.7 33.2877C80.7 33.2877 80.6668 33.2877 80.6002 33.2877ZM80.1002 36.4877C79.4002 36.2877 79.0002 35.6877 79.1002 34.9877C79.2002 34.2877 79.9002 33.8877 80.6002 33.9877C81.3002 34.0877 81.7002 34.7878 81.6002 35.3878C81.5002 36.0878 80.9 36.5877 80.2 36.4877C80.1334 36.4877 80.1002 36.4877 80.1002 36.4877ZM81.2 35.3878C81.3 34.8878 81.0001 34.4878 80.5001 34.3878C80.0001 34.2878 79.6001 34.5877 79.5001 35.0877C79.5001 35.2877 79.5667 35.4877 79.7 35.6877C79.8334 35.8877 80 35.9877 80.2 35.9877C80.7 36.0877 81.1 35.7878 81.2 35.3878Z" fill="#070505"/>
<path fill-rule="evenodd" clip-rule="evenodd" d="M66.3 20.8878C66.3 20.9545 66.3 20.9878 66.3 20.9878C66.4 21.1878 66.5 21.4877 66.3 21.7877L66.1 22.0878H65.8999L65.6 21.9878C64.9 21.9878 64.1999 21.8878 63.4999 21.9878C63.3666 21.9878 63.2666 21.9878 63.1999 21.9878C63.2666 22.0545 63.3332 22.1211 63.3999 22.1878C63.6665 22.5878 64.0333 23.0211 64.4999 23.4878C68.4999 27.4878 72.7999 30.3878 77.4999 32.1878C77.7999 32.2878 78.5999 32.6878 78.6999 32.6878C78.7999 32.6878 79.0999 32.7878 79.1999 32.9878C79.1999 33.0878 79.2999 33.2878 79.1999 33.5878C78.9999 33.7878 78.7999 33.9878 78.4999 33.9878C78.1999 33.8878 76.0999 33.0878 75.9999 33.0878C74.3999 32.3544 72.7999 31.5211 71.1999 30.5878L69.6 29.5878C69.4 29.4878 68 28.4878 67.6 28.0878C67.6 28.0878 67.1999 27.7878 66.8999 27.4878C66.3999 27.0878 65.8999 26.6878 65.6999 26.5878C65.5999 26.4878 64.3 25.1878 63.3 24.1878C62.9 23.8878 62.5999 23.4878 62.3999 23.3878C62.0999 23.0878 61.8999 22.6878 61.8999 22.5878C61.5999 21.9878 61.6999 21.5878 61.9999 21.0878C62.1999 20.8211 62.6333 20.6544 63.3 20.5878C63.6 20.4878 65.2999 20.5878 65.8999 20.5878H66.1999L66.3 20.8878ZM63.3999 20.9878C62.9999 21.0878 62.5999 21.1878 62.3999 21.3878C62.0999 21.6878 62.1 21.9878 62.3 22.3878C62.3 22.3878 62.5 22.7878 62.8 22.9878C63.3 23.5878 65.8999 26.1877 65.9999 26.2877C66.2999 26.4877 67.7999 27.6877 67.8999 27.7877C68.2999 28.0877 69.8 29.1878 69.8 29.1878L71.4999 30.1878C72.9666 31.1211 74.5332 31.9211 76.1999 32.5878C76.5999 32.7878 78.2999 33.4878 78.4999 33.4878C78.4999 33.4878 78.5334 33.4878 78.6 33.4878C78.6667 33.4878 78.6999 33.4545 78.6999 33.3878C78.7999 33.1878 78.7 33.1878 78.6 33.0878C78.5 33.0878 77.6 32.7878 77.3 32.6878C72.3 30.6878 68 27.5877 64.1 23.7877C63.7 23.3877 63.3333 22.9545 62.9999 22.4878C62.4999 21.7878 62.5999 21.5878 63.4999 21.4878C64.2999 21.3878 65.0999 21.4878 65.8999 21.5878C65.9999 21.3878 65.8999 21.2878 65.8999 21.0878C65.1999 20.9878 63.5999 20.9878 63.3999 20.9878Z" fill="#070505"/>
<path d="M95.8999 26.6877C94.6999 24.0877 93.3 21.6877 91.7 19.2877C91.1 18.421 90.4667 17.5544 89.8 16.6877C89.3 16.1877 87 13.5878 86.2 12.8878C85.4666 12.2211 84.7333 11.621 84 11.0877C83.8 10.9877 83.5 10.5877 83.3 11.0877C82.8 12.3877 81.8999 12.9877 80.3999 13.0877C80.8999 13.4877 82.6999 14.9877 82.8999 15.0877C83.7999 15.9877 84.8 16.8878 85.7 17.8878C86.9 19.2211 88.1 20.521 89.3 21.7877C90 22.5877 90.1999 23.3877 91.3999 22.9877C91.7999 22.7877 92.3001 23.0877 92.6001 23.5877C92.9001 23.9877 92.8 24.3877 92.5 24.6877C92.4 24.8877 92.3999 25.0877 92.3999 25.1877C92.2999 26.1877 93 26.6878 93.5 27.3878C94.4 28.5878 94.4 28.5877 95.7 27.5877C96 27.2877 96.0999 27.0877 95.8999 26.6877Z" fill="#E0CC2E"/>
<path d="M73 19.3878C73 19.1878 73 18.3877 73.2 18.2877C73.5 18.2877 73.4 18.5878 73.7 18.5878C74.1 18.4878 74.1 18.0878 74.2 17.6878C74.2 17.3878 74.2999 17.1878 74.3999 17.0878C74.4666 17.0211 74.5666 16.9878 74.7 16.9878C74.8 16.9878 74.8 17.0878 74.8 17.0878C74.8 17.3878 74.6999 17.6877 74.8999 17.7877C74.8999 17.7877 74.9333 17.7877 75 17.7877C75.0667 17.8544 75.1333 17.8544 75.2 17.7877C75.5 17.6877 76.0999 15.9878 76.3999 16.0878C76.6999 16.2878 76.2 17.2878 76 17.6878C76 17.7878 75.8 17.9878 76 18.0878C76.2 18.1878 76.2 17.9878 76.3 17.8878C76.8 17.2878 77.2 16.5878 77.8 16.0878C78 15.9878 78.3 15.6878 78.5 15.8878C78.7 15.9878 78.4 16.3878 78.3 16.4878C78 17.0878 77.6 17.4878 77.2 17.8878C77.0666 18.0212 76.9334 18.1544 76.8 18.2877C76.7 18.3877 76.6 18.4878 76.7 18.6878C76.8 18.7878 76.9001 18.6878 77.1001 18.5878C77.4001 18.3878 77.8999 18.0878 78.3999 17.9878C78.4999 17.9878 78.8 17.8878 78.8 17.9878C78.9 17.9878 78.8 18.0878 78.8 18.1878C78.6 18.3878 78.3001 18.6878 78.1001 18.8878C77.9001 19.0878 77.7 19.2545 77.5 19.3878C77.4 19.4878 77.0001 19.5878 77.1001 19.8878C77.2001 20.0878 77.5 20.0878 77.7 19.9878C78 19.8878 78.1 19.7877 78.3 19.7877C78.5 19.7877 78.6001 19.6877 78.6001 19.7877C78.6001 19.8544 78.6001 19.9211 78.6001 19.9878C78.5001 20.0878 78.2 20.4878 78 20.5878C77.7 20.7878 77.5001 20.9878 77.1001 21.0878C76.8001 21.1878 76.6001 20.9878 76.6001 21.3878C76.6001 21.4878 76.7 21.4878 76.8 21.5878C76.9 21.5878 77.0001 21.5878 77.1001 21.5878C77.3001 21.5878 77.3999 21.5878 77.3999 21.6878C77.3999 21.8878 77.3 21.9878 77.2 22.0878C76.8 22.2878 76.6 22.1878 76.3 22.0878C76.3 22.0878 76.2666 22.0545 76.2 21.9878C76 21.8878 75.6001 21.5878 75.6001 21.5878C75.3001 21.3878 74.2001 20.4878 74.1001 20.3878L73.3999 19.7877C73.2999 19.6877 73 19.4878 73 19.3878Z" fill="#FCBC60"/>
<path d="M83.1001 10.5878C82.8001 11.8878 81.4999 12.7878 80.3999 12.5878C79.3999 12.3878 78.9001 11.4878 79.1001 10.4878C79.4001 9.18778 80.7001 8.28778 81.8001 8.48778C82.7001 8.68778 83.3001 9.58776 83.1001 10.5878Z" fill="#9DCDED"/>
<path d="M82.4999 10.5878C82.2999 11.4878 81.4 12.0878 80.6 11.9878C79.9 11.8878 79.5999 11.1878 79.6999 10.4878C79.8999 9.58779 80.8 8.98777 81.6 9.08777C82.2 9.28777 82.5999 9.88777 82.4999 10.5878Z" fill="#FEFEFE"/>
<path d="M81.8002 10.5878C81.7002 10.9878 81.2002 11.3878 80.8002 11.2878C80.5002 11.1878 80.3 10.8878 80.4 10.4878C80.5 10.0878 81 9.68776 81.4 9.78776C81.7 9.88776 81.9002 10.1878 81.8002 10.5878Z" fill="#9DCDED"/>
<path fill-rule="evenodd" clip-rule="evenodd" d="M82.3 35.4878C82.1 36.5878 81.1 37.3877 80 37.1877C79 36.9877 78.2999 35.9878 78.3999 34.9878C78.5999 33.8878 79.6001 33.0877 80.6001 33.2877C81.7001 33.4877 82.5 34.4878 82.3 35.4878ZM80.1001 36.4878C80.8001 36.5878 81.5001 36.0878 81.6001 35.3878C81.7001 34.7878 81.3001 34.0878 80.6001 33.9878C79.9001 33.8878 79.2001 34.2878 79.1001 34.9878C79.0001 35.6878 79.4001 36.2878 80.1001 36.4878Z" fill="#A19535"/>
<path d="M91.3999 16.7877C90.9999 16.2877 90.6 15.8878 90.3 15.4878C89.4 14.3878 88.3 13.1877 87.5 12.2877C87.1 11.9877 86.0999 11.0878 85.8999 10.9878C85.0999 10.2878 84.2999 9.6878 83.8999 9.4878C83.6999 9.3878 83.5 9.38775 83.5 9.68775C83.5 9.68775 83.5001 9.98778 83.6001 10.0878C83.6668 10.2878 83.8 10.4544 84 10.5878C85.1 11.3878 85.9999 12.0878 86.8999 12.9878C87.4999 13.5878 89.7 15.9878 90.2 16.5878C90.8 17.3878 92.8001 20.0878 93.1001 20.6878C93.8001 21.7878 94.4001 22.8878 95.1001 23.9878C95.5001 24.6878 95.7001 25.4878 96.1001 26.0878C96.2001 26.2878 96.3 26.4878 96.5 26.3878C96.7 26.2878 96.9999 26.1878 96.8999 25.9878C96.8332 25.8545 96.7666 25.7211 96.7 25.5878C96.1 24.1878 95.3 22.5878 94.5 21.1878C94.4 20.9878 93.8 20.0878 93.2 19.0878C92.9 18.6878 92.0999 17.6877 91.3999 16.7877Z" fill="#264485"/>
<path d="M90.7 23.5878C91.1 23.6878 91.9999 25.1878 91.8999 25.3878C91.8999 25.5878 91.7001 25.5877 91.6001 25.6877C91.4001 25.7877 91.2001 25.6878 91.1001 25.4878C90.9668 24.9545 90.8001 24.4212 90.6001 23.8878C90.6001 23.6878 90.7 23.5878 90.7 23.5878Z" fill="#A19535"/>
<path d="M91.8 23.3878C92 23.4878 92.3999 23.7878 92.3999 24.0878C92.3999 24.2878 92.3001 24.3878 92.1001 24.3878C91.8001 24.2878 91.6 23.8878 91.5 23.5878C91.5 23.3878 91.6 23.3878 91.8 23.3878Z" fill="#A19535"/>
<path d="M90.3998 24.7877C90.1998 24.3877 89.8998 24.6877 89.6998 24.7877C87.4998 25.9877 85.2999 27.1878 82.9999 27.8878C81.3999 28.3878 79.8999 28.7877 78.2999 28.6877C76.4999 28.5877 75.0998 27.7877 73.6998 26.7877C73.2998 26.5877 72.3999 25.8878 72.2999 25.8878C71.6999 25.4878 69.9998 23.8877 69.8998 23.7877C69.8331 23.721 69.7665 23.6544 69.6998 23.5877C69.2332 23.1211 68.7666 22.6544 68.2999 22.1877C68.0999 21.9877 67.3998 21.2877 67.3998 21.1877C67.2998 20.9877 67.2 20.7877 67.1 20.6877C67.0333 20.621 66.9333 20.621 66.7999 20.6877C66.7333 20.6877 66.6667 20.721 66.6 20.7877C66.3 20.9877 66.4 21.2877 66.6 21.5877C68.2 23.8877 70.1999 25.7877 72.4999 27.2877C73.9999 28.2877 75.4999 29.2877 77.2999 29.5877C79.2999 29.8877 81.2 29.4878 83.1 28.8878C85.6 28.0878 87.9 26.9877 90.1 25.6877C90.6 25.4877 90.5998 25.1877 90.3998 24.7877Z" fill="#E0CC2E"/>
<path d="M90.2001 25.0878C88 26.3878 85.7001 27.4877 83.2001 28.2877C81.3001 28.8877 79.4 29.3878 77.4 28.9878C75.6 28.6878 74.1002 27.6877 72.6002 26.6877C70.3002 25.1877 68.3 23.2878 66.7 20.9878C66.6334 20.9211 66.5668 20.8544 66.5001 20.7877C66.3001 20.9877 66.4002 21.2878 66.6002 21.5878C68.2002 23.8878 70.2001 25.7877 72.5001 27.2877C74.0001 28.2877 75.5001 29.2878 77.3001 29.5878C79.3001 29.8878 81.2002 29.4878 83.1002 28.8878C85.6002 28.0878 87.9002 26.9877 90.1002 25.6877C90.5002 25.4877 90.6001 25.2878 90.5001 24.9878C90.4334 25.0545 90.3334 25.0878 90.2001 25.0878Z" fill="#A19535"/>
<path d="M69.7 18.6877C69.5 18.4877 69.3001 18.4877 69.1001 18.6877C68.9001 18.8211 68.7 19.0878 68.5 19.4878C68.5 19.4878 68 20.0877 67.9 20.2877C67.8 20.4877 67.8 20.6878 67.9 20.8878C68 21.1878 68.8 22.0877 68.9 22.1877C69.1 22.3877 69.2 22.3877 69.4 22.1877C69.4 22.0877 70 21.2877 70.4 21.1877C70.9 20.9877 71.1 21.0877 71.2 20.6877C71.3 20.4877 71.1 20.2877 70.9 20.0877C70.7 19.9877 69.9 18.8877 69.7 18.6877Z" fill="#264485"/>
<path d="M86.9999 25.8878C86.9999 25.6878 86.6 25.8878 86.3 25.9878C86 26.0878 85.6 26.1877 85.3 26.2877C85.1 26.2877 83.8999 26.3878 83.4999 26.3878C81.2999 26.4878 79.5999 25.9877 77.9999 25.2877C77.0666 24.8877 76.1667 24.4211 75.3 23.8878C75.1 23.7878 74.8 23.4878 74.8 23.9878C74.8 24.7878 74.3999 25.3878 73.9999 25.8878C73.7999 26.1878 73.8 26.3878 74.1 26.5878C75.8 27.6878 77.6998 28.4877 79.8998 28.1877C80.3665 28.0544 80.7999 27.9545 81.1999 27.8878C83.4999 27.4878 85.8999 26.3877 86.1999 26.2877C86.5999 26.1877 86.9999 25.9878 86.9999 25.8878Z" fill="#264485"/>
<path d="M89.9999 23.9878C89.9999 23.7878 89.7999 23.8879 89.6999 23.8879C88.4999 24.3879 87.1 24.4878 85.8 24.7878C81.9 25.1878 78.3999 24.1878 75.1999 21.7878C75.1332 21.7878 75.1 21.7544 75.1 21.6878C74.5 21.3878 72.6999 19.7878 72.4999 19.5878C71.9999 19.1878 71.4999 18.6878 70.9999 18.0878C70.6999 17.6878 70.3999 17.2879 70.1999 16.8879C69.9999 16.6879 69.8999 16.5878 69.6999 16.6878C69.5999 16.6878 69.3 16.8879 69.3 16.8879C69.1 17.0879 69.2998 17.2878 69.3998 17.4878C71.1998 20.0878 73.4 22.2878 76.1 23.7878C80.5 26.2878 85 26.7879 89.6 24.3879C89.8 24.2879 90.0999 24.1878 89.9999 23.9878Z" fill="#E0CC2E"/>
<path d="M76.4999 23.3878C73.6999 21.8878 71.6 19.6878 69.8 17.0878C69.7 16.9878 69.6 16.8877 69.6 16.6877C69.5 16.7877 69.3 16.8878 69.3 16.8878C69.1 17.0878 69.2998 17.2878 69.3998 17.4878C71.1998 20.0878 73.4 22.2877 76.1 23.7877C80.5 26.2877 85 26.7878 89.6 24.3878C89.8 24.2878 90.0999 24.1878 89.9999 23.9878C85.3999 26.3878 80.8999 25.8878 76.4999 23.3878Z" fill="#A19535"/>
<path d="M79.7999 8.58778C79.8999 8.38778 78.0999 7.78778 76.7999 7.58778C76.4999 7.58778 76.1999 7.48778 75.9999 7.58778C75.4999 7.88778 75 8.68783 74.6 9.38783C74.3 9.78783 74.3999 9.8878 74.7999 9.9878C75.7999 10.1878 77.9 11.4878 78.6 11.8878C78.7 11.9878 78.7999 11.9878 78.7999 11.9878C78.8999 11.8878 78.7999 11.7878 78.7999 11.5878C78.5999 10.5878 78.9 9.68783 79.6 8.88783C79.7 8.78783 79.7999 8.68778 79.7999 8.58778Z" fill="#E0CC2E"/>
<path d="M79.8998 23.8879C81.6998 24.3879 83.5998 24.5878 85.3998 24.2878C86.0998 24.2878 87.8998 23.8879 88.1998 23.8879C89.9998 23.4879 89.9999 23.4878 88.7999 22.0878C88.4666 21.6878 88.1333 21.3212 87.7999 20.9878C85.4999 18.0878 82.8998 15.4879 79.8998 13.3879C78.6998 12.4879 75.8 10.8878 75.6 10.7878C74.6 10.2878 74.3999 10.2878 73.7999 11.1878C72.8999 12.4878 72.2998 13.3878 71.3998 14.7878C71.1998 15.0878 70.7 15.9878 70.6 16.1878C70.5 16.4878 70.3999 16.4878 70.4999 16.6878C70.6999 17.0878 70.9999 17.3878 71.2999 17.7878C71.3999 17.9878 71.5998 18.1878 71.6998 18.2878C72.1998 18.6878 72.4998 19.1879 72.6998 18.8879C72.7998 18.6879 72.8998 18.6879 72.8998 18.3879C72.9998 17.9879 72.9999 17.7879 73.2999 17.8879C73.4999 17.8879 73.5998 18.1878 73.6998 18.1878C73.8998 18.1878 73.7998 17.5878 73.8998 17.2878C74.0998 16.8878 74.3998 16.4878 74.6998 16.5878C75.0998 16.6878 74.9998 17.0878 75.1998 17.0878C75.2998 17.0878 75.5998 16.3878 75.6998 16.1878C75.8998 15.9878 75.9998 15.8878 76.1998 15.6878C76.4998 15.3878 76.7999 15.2879 76.7999 15.8879C76.7999 15.9879 76.7998 16.3878 76.6998 16.6878C76.6998 16.7878 76.7999 16.7878 76.7999 16.7878C76.7999 16.7878 76.8999 16.6878 76.9999 16.4878C76.9999 16.4878 77.3999 16.0878 77.4999 15.9878C77.7999 15.6878 78.0999 15.3878 78.4999 15.2878C78.8999 15.1878 78.9998 15.3878 78.8998 15.7878C78.8331 16.1211 78.7333 16.4879 78.6 16.8879C78.5 16.8879 78.2999 17.2878 77.9999 17.5878C77.8999 17.6878 77.6998 17.7878 77.6998 17.7878C77.6998 17.9878 77.7998 17.8878 77.8998 17.7878C78.0998 17.7878 78.2998 17.6878 78.3998 17.6878C78.6998 17.5878 78.8999 17.6878 78.9999 17.6878C79.2999 17.7878 79.2 17.9878 79.1 18.2878C79 18.3878 78.7999 18.6878 78.4999 18.9878C78.3999 19.1878 78.0999 19.3878 77.7999 19.4878C77.6999 19.5878 77.5998 19.6878 77.6998 19.7878C77.9998 19.5878 78.2999 19.3878 78.4999 19.4878C78.6999 19.4878 78.7998 19.5878 78.8998 19.5878C79.0998 19.7878 78.8998 20.0878 78.6998 20.2878C78.6332 20.4211 78.4999 20.5878 78.2999 20.7878C78.1999 20.8878 77.8998 21.0878 77.6998 21.1878C77.4998 21.1878 77.2999 21.1878 77.2999 21.2878C77.3999 21.4878 77.6999 21.3878 77.7999 21.4878C77.7999 21.6878 77.7999 21.7878 77.7999 21.9878C77.6999 22.0878 77.1998 22.3878 77.1998 22.5878C77.1998 22.6878 77.2998 22.7879 77.3998 22.8879C77.4998 22.8879 77.8998 23.0878 78.1998 23.2878C78.4998 23.3878 79.4998 23.6879 79.8998 23.8879Z" fill="#264485"/>
<path d="M79.8998 23.8879C81.6998 24.3879 83.5998 24.5878 85.3998 24.2878C86.0998 24.2878 87.8998 23.8879 88.1998 23.8879C89.9998 23.4879 89.9999 23.4878 88.7999 22.0878C88.4666 21.6878 88.1333 21.3212 87.7999 20.9878C85.4999 18.0878 82.8998 15.4879 79.8998 13.3879C78.6998 12.4879 75.8 10.8878 75.6 10.7878C74.6 10.2878 74.3999 10.2878 73.7999 11.1878C72.8999 12.4878 72.2998 13.3878 71.3998 14.7878C71.1998 15.0878 70.7 15.9878 70.6 16.1878C70.5 16.4878 70.3999 16.4878 70.4999 16.6878C70.6999 17.0878 70.9999 17.3878 71.2999 17.7878C71.3999 17.9878 71.5998 18.1878 71.6998 18.2878C72.1998 18.6878 72.4998 19.1879 72.6998 18.8879C72.7998 18.6879 72.8998 18.6879 72.8998 18.3879C72.9998 17.9879 72.9999 17.7879 73.2999 17.8879C73.4999 17.8879 73.5998 18.1878 73.6998 18.1878C73.8998 18.1878 73.7998 17.5878 73.8998 17.2878C74.0998 16.8878 74.3998 16.4878 74.6998 16.5878C75.0998 16.6878 74.9998 17.0878 75.1998 17.0878C75.2998 17.0878 75.5998 16.3878 75.6998 16.1878C75.8998 15.9878 75.9998 15.8878 76.1998 15.6878C76.4998 15.3878 76.7999 15.2879 76.7999 15.8879C76.7999 15.9879 76.7998 16.3878 76.6998 16.6878C76.6998 16.7878 76.7999 16.7878 76.7999 16.7878C76.7999 16.7878 76.8999 16.6878 76.9999 16.4878C76.9999 16.4878 77.3999 16.0878 77.4999 15.9878C77.7999 15.6878 78.0999 15.3878 78.4999 15.2878C78.8999 15.1878 78.9998 15.3878 78.8998 15.7878C78.8331 16.1211 78.7333 16.4879 78.6 16.8879C78.5 16.8879 78.2999 17.2878 77.9999 17.5878C77.8999 17.6878 77.6998 17.7878 77.6998 17.7878C77.6998 17.9878 77.7998 17.8878 77.8998 17.7878C78.0998 17.7878 78.2998 17.6878 78.3998 17.6878C78.6998 17.5878 78.8999 17.6878 78.9999 17.6878C79.2999 17.7878 79.2 17.9878 79.1 18.2878C79 18.3878 78.7999 18.6878 78.4999 18.9878C78.3999 19.1878 78.0999 19.3878 77.7999 19.4878C77.6999 19.5878 77.5998 19.6878 77.6998 19.7878C77.9998 19.5878 78.2999 19.3878 78.4999 19.4878C78.6999 19.4878 78.7998 19.5878 78.8998 19.5878C79.0998 19.7878 78.8998 20.0878 78.6998 20.2878C78.6332 20.4211 78.4999 20.5878 78.2999 20.7878C78.1999 20.8878 77.8998 21.0878 77.6998 21.1878C77.4998 21.1878 77.2999 21.1878 77.2999 21.2878C77.3999 21.4878 77.6999 21.3878 77.7999 21.4878C77.7999 21.6878 77.7999 21.7878 77.7999 21.9878C77.6999 22.0878 77.1998 22.3878 77.1998 22.5878C77.1998 22.6878 77.2998 22.7879 77.3998 22.8879C77.4998 22.8879 77.8998 23.0878 78.1998 23.2878C78.4998 23.3878 79.4998 23.6879 79.8998 23.8879Z" fill="#264485"/>
<path d="M75.6 10.7878C74.6 10.2878 74.3999 10.2878 73.7999 11.1878C72.8999 12.4878 72.2998 13.3878 71.3998 14.7878C71.1998 15.0878 70.7 15.9878 70.6 16.1878C70.5 16.4878 70.3999 16.4878 70.4999 16.6878C70.6999 16.9878 70.8998 17.2878 71.1998 17.6878L76.1998 11.0878C75.7998 10.8878 75.6 10.7878 75.6 10.7878Z" fill="#232F64"/>
<path d="M75.9999 7.58778C75.4999 7.88778 75 8.68783 74.6 9.38783C74.3 9.78783 74.3999 9.8878 74.7999 9.9878C75.1999 10.0878 75.8999 10.3878 76.4999 10.6878L78.4999 7.9878C77.9999 7.7878 77.2999 7.68778 76.7999 7.58778C76.4999 7.58778 76.1999 7.48778 75.9999 7.58778Z" fill="#A19535"/>
<path d="M92.6001 23.5878C92.9001 23.9878 92.8 24.3877 92.5 24.6877C92.4 24.8877 92.3999 25.0877 92.3999 25.1877C92.2999 26.1877 93 26.6878 93.5 27.3878C94.4 28.5878 94.4 28.5878 95.7 27.5878C96 27.2878 96.0999 27.0877 95.8999 26.6877C94.6999 24.2877 93.4999 21.8877 91.8999 19.6877L89.3999 21.9878C89.9999 22.7878 90.2999 23.3878 91.3999 22.9878C91.7999 22.7878 92.3001 23.0878 92.6001 23.5878Z" fill="#A19535"/>
<path d="M73.3 22.3878C73.1 22.1878 72.4 21.4878 72.3 21.4878C71.8 21.1878 71.7999 21.0877 71.1999 21.2877C70.5999 21.3877 69.9999 21.8878 69.6999 22.3878C69.4999 22.5878 69.4 22.7878 69.6 22.9878C69.7 23.0878 69.8999 23.2878 69.9999 23.3878C69.9999 23.3878 71.2998 24.5878 71.3998 24.5878C71.3998 24.6878 71.7 24.8878 71.8 24.8878C71.8 24.9878 72.5998 25.5878 72.8998 25.6878C73.0998 25.7878 73.2999 25.8877 73.4999 25.7877C73.9999 25.2877 74.0998 24.9878 74.3998 24.4878C74.4998 24.0878 74.6998 23.7877 74.3998 23.2877C74.1998 23.0877 73.6 22.5878 73.3 22.3878Z" fill="#FCBC60"/>
<path d="M73.3001 25.5878C72.9001 25.3878 72.1 24.7877 72 24.6877C71.9 24.5877 71.6001 24.3878 71.6001 24.3878C71.5001 24.2878 70.1 23.0878 70 22.9878C70 22.9878 69.8 22.7878 69.7 22.5878C69.6333 22.5878 69.6001 22.5545 69.6001 22.4878C69.5001 22.6878 69.5001 22.7878 69.6001 22.9878C69.7001 23.0878 69.9 23.2878 70 23.3878C70 23.3878 71.3 24.5878 71.4 24.5878C71.4 24.6878 71.7001 24.8878 71.8001 24.8878C71.8001 24.9878 72.6 25.5877 72.9 25.6877C73.1 25.7877 73.3 25.8877 73.5 25.7877C73.5667 25.7877 73.6001 25.7544 73.6001 25.6877C73.4668 25.6877 73.3668 25.6544 73.3001 25.5878Z" fill="#CE9A46"/>
<path d="M86.5 6.68769C86.9 6.35435 87.3334 5.98771 87.8001 5.58771C88.3001 5.18771 88.9 4.68774 89.2 3.98774C89.6 3.38774 89.6999 2.78769 89.3999 2.18769C88.3999 0.0876887 86.1999 -0.112336 84.8999 1.78766C84.7666 1.921 84.6668 2.05436 84.6001 2.18769C84.0001 3.25436 83.4001 4.32109 82.8001 5.38776C82.4001 5.98776 82.2001 6.58766 82.1001 7.28766C81.9001 7.88766 82.1001 8.18776 82.8001 8.38776V8.48774C83.2001 8.78774 83.3999 9.08766 83.8999 8.78766C84.0999 8.58766 86.2 6.98769 86.5 6.68769Z" fill="#E0CC2E"/>
<path d="M88.7 1.18769C87.6 -0.0123052 85.9001 0.0876949 84.8001 1.68769C84.6667 1.82103 84.5667 1.98769 84.5 2.18769C83.9 3.1877 83.2668 4.221 82.6001 5.28767C82.3001 5.98767 82.1 6.4877 82 7.1877C81.8 7.78769 82.1001 8.18777 82.8001 8.38777C82.5001 8.18777 82.5 7.58767 82.7 7.28767C83.7 5.38767 84.7 3.6877 86.2 2.18769C86.3333 2.05436 86.4668 1.95443 86.6001 1.88777C87.4001 1.18777 88.5 1.08774 89 1.48774C89 1.48774 88.9 1.38769 88.7 1.18769Z" fill="#A19535"/>
<path fill-rule="evenodd" clip-rule="evenodd" d="M80.1002 36.4877C79.4002 36.2877 79.0002 35.6877 79.1002 34.9877C79.2002 34.2877 79.9002 33.8877 80.6002 33.9877C81.3002 34.0877 81.7002 34.7878 81.6002 35.3878C81.5002 36.0878 80.8002 36.5877 80.1002 36.4877ZM79.5001 35.0877C79.4001 35.5877 79.7 35.8877 80.2 36.0877C80.7 36.0877 81.1 35.8878 81.2 35.3878C81.3 34.7878 81 34.4878 80.4 34.3878C79.9 34.2878 79.6001 34.5877 79.5001 35.0877Z" fill="#070505"/>
<path d="M93.7 28.5878C93.3 27.7878 92.8 27.0878 92.2 26.4878C92 26.1878 90.6999 26.0878 90.3999 26.1878C88.9999 26.8878 87.6 27.5877 86.2 28.2877C84.5333 29.0211 82.8334 29.5878 81.1001 29.9878C80.8334 29.9878 80.5667 30.0211 80.3 30.0878C80.1667 30.0878 80.0667 30.0878 80 30.0878C79.6 30.0878 78.1 30.1878 77.5 29.9878C77.3 29.9878 76.7 29.8878 76 29.6878C76.7 30.0878 77.1999 30.5878 77.3999 30.6878C77.3999 30.6878 79.2999 32.2878 79.3999 32.3878C79.7999 32.5878 80 32.7877 80.5 32.7877C81.2 32.8877 82.4001 33.2878 82.6001 34.3878C82.8001 35.2878 83.2 35.3878 83.8 35.6878C84 35.7878 84.3 35.7878 84.3 36.0878C84.3 36.1878 84.2 36.1878 84.2 36.1878C84.3 36.1878 84.6001 36.0878 84.6001 35.9878L84.8 35.8878C84.8 35.8878 93.0999 29.4878 94.3999 28.9878C94.1999 28.9878 93.8 28.9878 93.7 28.5878Z" fill="#264485"/>
<path d="M94.3999 28.9878C94.1999 28.9878 93.8 28.9878 93.7 28.5878C93.3 27.7878 92.8 27.0878 92.2 26.4878C92 26.1878 90.6999 26.0878 90.3999 26.1878C88.9999 26.8878 87.6 27.5877 86.2 28.2877C84.6 29.0211 82.9667 29.5545 81.3 29.8878L79.1001 32.0878C79.3001 32.1878 79.3999 32.2878 79.3999 32.3878C79.7999 32.5878 80 32.7877 80.5 32.7877C81.2 32.8877 82.4001 33.2878 82.6001 34.3878C82.8001 35.2878 83.2 35.3878 83.8 35.6878C84 35.7878 84.3 35.7878 84.3 36.0878C84.3 36.1878 84.2 36.1878 84.2 36.1878C84.3 36.1878 84.6001 36.0878 84.6001 35.9878L84.8 35.8878C84.8 35.8878 93.0999 29.4878 94.3999 28.9878Z" fill="#232F64"/>
<path d="M84.1001 36.2877L83.8 35.6877C83.9 35.6877 84.0001 35.7877 84.1001 35.6877C84.1668 35.6877 84.2334 35.6877 84.3 35.6877L84.3999 35.4878C84.4999 35.4878 91.0001 30.5878 93.6001 28.8878C93.7001 28.7878 93.7001 28.6878 93.6001 28.4878C93.8001 28.2878 94.4 28.3878 94.5 28.3878L94.7 28.7877C93.5 29.3877 85.6 35.2878 84.7 35.8878L84.1001 36.2877Z" fill="#070505"/>
<path d="M77.3001 32.6877C72.3001 30.6877 68.0001 27.5877 64.1001 23.7877C63.7001 23.3877 63.3334 22.9545 63 22.4878C62.5 21.7878 62.5999 21.5878 63.3999 21.4878C64.2999 21.3878 65.0999 21.4878 65.8999 21.5878C65.9999 21.3878 65.8999 21.2878 65.8999 21.0878C65.1999 20.9878 63.5999 20.9878 63.3999 20.9878C62.9999 21.0878 62.4999 21.1878 62.3999 21.3878C62.0999 21.6878 62.1001 21.9878 62.3001 22.3878C62.3001 22.3878 62.5 22.7878 62.7 22.9878C63.3 23.5878 65.9 26.1877 66 26.2877C66.2 26.4877 67.7999 27.6877 67.8999 27.7877C68.2999 28.0877 69.8001 29.1877 69.8001 29.1877L71.5 30.1877C72.9667 31.1211 74.5333 31.9211 76.2 32.5878C76.6 32.7878 78.4 33.4878 78.5 33.4878C78.6334 33.4878 78.7 33.4545 78.7 33.3878C78.8 33.1878 78.7001 33.1878 78.6001 33.0878C78.5001 33.0878 77.6001 32.7877 77.3001 32.6877Z" fill="#E0CC2E"/>
<path d="M78.5 33.4878C78.6333 33.4878 78.7 33.4545 78.7 33.3878C78.8 33.1878 78.7001 33.1878 78.6001 33.0878C78.6001 33.0878 78.4001 32.9878 78.1001 32.9878L77.8 33.2877C78.2 33.3877 78.5 33.4878 78.5 33.4878Z" fill="#A19535"/>
<path d="M70.1999 16.8879C69.9999 16.6879 69.8999 16.5878 69.6999 16.6878C69.5999 16.6878 69.3 16.8879 69.3 16.8879C69.1 17.0879 69.2998 17.2878 69.3998 17.4878C69.7332 17.9545 70.0333 18.3878 70.3 18.7878L70.8998 17.9878C70.6998 17.5878 70.3999 17.1879 70.1999 16.8879Z" fill="#A19535"/>
<path d="M69.7 18.6877C69.5 18.4877 69.3001 18.4877 69.1001 18.6877C68.9001 18.8211 68.7 19.0878 68.5 19.4878C68.5 19.4878 68 20.0877 67.9 20.2877C67.8 20.4877 67.8 20.6878 67.9 20.8878C67.9 20.9878 68.1001 21.1878 68.3001 21.4878L70.1001 19.0877C69.9001 18.8877 69.8 18.7877 69.7 18.6877Z" fill="#232F64"/>
<path d="M67.9999 21.8878C67.6999 21.5878 67.3998 21.2877 67.3998 21.1877C67.2998 20.9877 67.2 20.7877 67.1 20.6877C67.0333 20.621 66.9333 20.621 66.7999 20.6877C66.7333 20.6877 66.6667 20.721 66.6 20.7877C66.3 20.9877 66.4 21.2877 66.6 21.5877C66.8667 21.9211 67.1331 22.2877 67.3998 22.6877L67.9999 21.8878Z" fill="#A19535"/>
<path d="M95.1001 23.9878C95.5001 24.6878 95.7001 25.4878 96.1001 26.0878C96.2001 26.2878 96.3 26.4878 96.5 26.3878C96.7 26.2878 96.9999 26.1878 96.8999 25.9878C96.8332 25.8545 96.7666 25.7211 96.7 25.5878C96.1 24.1878 95.3 22.5877 94.5 21.1877C94.4 20.9877 93.8 20.0878 93.2 19.0878C93.1333 19.0211 93.0332 18.8877 92.8999 18.6877L92.2 19.2877C92.6 19.8877 93.0001 20.3877 93.1001 20.6877C93.8001 21.7877 94.4001 22.8878 95.1001 23.9878Z" fill="#232F64"/>
<path d="M89.6001 24.3878C89.8001 24.2878 90.1 24.1878 90 23.9878C90 23.7878 89.8 23.8878 89.7 23.8878C88.8 24.2878 87.8 24.4878 86.8 24.5878L85.5 25.7877C86.9 25.5877 88.2668 25.1211 89.6001 24.3878Z" fill="#A19535"/>
<path d="M86.2 26.2877C86.6 26.1877 87 25.9878 87 25.8878C87 25.6878 86.6 25.8878 86.3 25.9878C86 26.0878 85.6 26.1877 85.3 26.2877C85.2334 26.2877 85.1333 26.2877 85 26.2877L84.2 27.0878C85.2 26.6878 86 26.3877 86.2 26.2877Z" fill="#232F64"/>
<path d="M83.1001 28.8878C85.6001 28.0878 87.9001 26.9877 90.1001 25.6877C90.6001 25.4877 90.5999 25.1877 90.3999 24.7877C90.1999 24.3877 89.9 24.6877 89.7 24.7877C87.7 25.8877 85.7 26.9877 83.5 27.6877L82 29.1877C82.3333 29.1211 82.7001 29.0212 83.1001 28.8878Z" fill="#A19535"/>
<path d="M80.7 37.0878C80.6333 37.0878 80.6001 37.0878 80.6001 37.0878C80.5334 37.0878 80.5 37.0878 80.5 37.0878C80.4333 37.0878 80.3999 37.0878 80.3999 37.0878C80.0999 37.0878 80 37.0878 80 37.3878C79.8667 38.0545 79.7666 38.6877 79.7 39.2877C79.7 39.3877 79.6 39.5878 79.5 39.8878C79.5 39.9545 79.4666 40.0544 79.3999 40.1877L80.3999 39.9878C80.4666 39.6545 80.5334 39.2878 80.6001 38.8878C80.6668 38.6212 80.7 38.3877 80.7 38.1877C80.7666 37.9877 80.8332 37.7545 80.8999 37.4878C80.8999 37.2878 80.8 37.1878 80.7 37.0878Z" fill="#A19535"/>
<path d="M81.3 8.08777C81.1 8.08777 80.7 8.28772 80.5 8.28772C80.4333 8.28772 80.3333 8.28772 80.2 8.28772C79.2 7.78772 78.1 7.38772 76.7 7.28772C76.5 7.28772 76.3 7.28772 76.3 7.28772C76.3 7.18772 76.4 7.08777 76.5 7.08777C76.9 6.78777 77.4 6.78772 77.7 6.78772C78.1 6.78772 78.7999 6.88777 79.3999 7.08777C79.7999 7.18777 80.8999 7.58777 80.8999 7.58777C81.1999 7.68777 81.6 7.88777 81.3 8.08777Z" fill="#264485"/>
<path d="M77.7 6.78772C77.4 6.78772 76.9 6.78777 76.5 7.08777C76.4 7.08777 76.3 7.18772 76.3 7.28772C76.3 7.28772 76.5 7.28772 76.7 7.28772C77.5 7.28772 78.1 7.48774 78.7 7.68774L79.2 7.08777C78.7 6.88777 78.1 6.78772 77.7 6.78772Z" fill="#212F61"/>
<path d="M72.3001 22.0877C72.2001 22.4877 71.9001 22.6877 71.5001 22.6877C71.2001 22.5877 70.9001 22.2878 71.0001 21.8878C71.0001 21.5878 71.4 21.2878 71.7 21.3878C72.1 21.3878 72.3001 21.7877 72.3001 22.0877Z" fill="#FDDDB4"/>
<path d="M56 71.6877L55.7 70.3878L54.5 69.9878L58.5 66.2877L60 67.9878L56 71.6877Z" fill="#58BDEA"/>
<path d="M55.2 70.1877L55.7 70.3878L55.8 70.8878L59.5 67.4878L58.8999 66.8878L55.2 70.1877Z" fill="#FEFEFE"/>
<path d="M58.5 72.8878L59.7 72.3878L60.8 73.0878L61.2 67.6877L59 67.4878L58.5 72.8878Z" fill="#58BDEA"/>
<path d="M60.1001 72.5878L59.7 72.3878L59.2 72.5878L59.7 67.5878L60.5 67.6877L60.1001 72.5878Z" fill="#FEFEFE"/>
<path opacity="0.2" d="M61.2 67.7877L60.5 67.6877H59.6001V67.5878H59.5L58.8999 66.8878L58.3999 66.3878L57.2 67.4878C57.5 68.1878 58.1 68.7877 58.8 69.1877C59.5 69.4877 60.3001 69.5878 61.1001 69.4878L61.2 67.7877Z" fill="#050505"/>
<path d="M63.6998 67.2877C62.7998 69.0877 60.6998 69.7878 58.8998 68.8878C57.1998 67.9878 56.4999 65.8878 57.2999 64.0878C58.1999 62.3878 60.3 61.5878 62.1 62.4878C63.9 63.3878 64.5998 65.4877 63.6998 67.2877Z" fill="#58BDEA"/>
<path d="M62.6002 66.6877C62.0002 67.7877 60.6001 68.2877 59.5001 67.6877C58.4001 67.1877 57.9001 65.7877 58.5001 64.6877C59.0001 63.5877 60.4001 63.0877 61.5001 63.6877C62.7001 64.1877 63.1002 65.5877 62.6002 66.6877Z" fill="#FEFEFE"/>
<path d="M61.6001 66.1878C61.3001 66.7878 60.6 67.0877 60 66.7877C59.4 66.4877 59.0999 65.7878 59.3999 65.1878C59.6999 64.5878 60.5001 64.2878 61.1001 64.5878C61.7001 64.8878 61.9001 65.5878 61.6001 66.1878Z" fill="#58BDEA"/>
<path d="M63.6 67.1877C62.7 68.8877 60.6999 69.5877 58.9999 68.7877C57.2999 67.8877 56.5999 65.8877 57.4999 64.1877C58.2999 62.4877 60.2999 61.7877 61.9999 62.5877C63.6999 63.4877 64.4 65.4877 63.6 67.1877Z" fill="#58BDEA"/>
<path d="M62.5 66.6877C61.9 67.7877 60.6 68.1877 59.5 67.6877C58.5 67.0877 58.0001 65.7877 58.6001 64.6877C59.1001 63.5877 60.4 63.1877 61.5 63.6877C62.6 64.2877 63 65.5877 62.5 66.6877Z" fill="#FEFEFE"/>
<path d="M61.6 66.1878C61.3 66.7878 60.5999 66.9878 59.9999 66.6878C59.3999 66.4878 59.1999 65.7878 59.4999 65.1878C59.7999 64.5878 60.4999 64.3878 60.9999 64.6878C61.5999 64.8878 61.8 65.5878 61.6 66.1878Z" fill="#58BDEA"/>
<path d="M9.30005 40.8878V40.1877C9.36672 39.921 9.3999 39.6878 9.3999 39.4878C9.3999 39.3544 9.49995 39.0877 9.69995 38.6877C9.83328 38.2877 10.0334 37.9544 10.3 37.6877C10.5 37.421 10.8666 37.1878 11.3999 36.9878C11.8666 36.7878 12.4334 36.721 13.1001 36.7877C14.5001 36.8877 15.3999 37.4877 15.8999 38.0877C16.0999 38.3544 16.2666 38.721 16.3999 39.1877C16.4666 39.5877 16.5 39.8877 16.5 40.0877C16.5 40.2877 16.5 40.521 16.5 40.7877V40.8878C16.4333 41.6211 16.1 42.3877 15.5 43.1877C14.9 43.921 14.2333 44.5877 13.5 45.1877L16.2 45.3878L16 48.2877L8.8999 47.6877L9.1001 45.1877C11.1001 43.7877 12.3 42.5878 12.8 41.8878C13.0667 41.5544 13.2334 41.2877 13.3 41.0877C13.3667 40.9544 13.3999 40.7877 13.3999 40.5877C13.4999 40.1877 13.5 40.0877 13.3 39.7877C13.2334 39.721 13.0999 39.6877 12.8999 39.6877C12.4999 39.5877 12.4 39.8878 12.3 40.4878V41.1877L9.30005 40.8878Z" fill="#050505"/>
<path d="M23.6001 41.8878C23.9334 42.0878 24.1999 42.3211 24.3999 42.5878C24.7999 43.0878 25.1 44.1878 25 45.5878C24.9333 45.6544 24.8999 45.7878 24.8999 45.9878C24.8999 46.1211 24.8001 46.3877 24.6001 46.7877C24.4001 47.1877 24.1666 47.5545 23.8999 47.8878C23.6332 48.1545 23.2333 48.3878 22.7 48.5878C22.1666 48.8544 21.5666 48.9545 20.8999 48.8878C20.1666 48.8212 19.5668 48.6211 19.1001 48.2877C18.6334 48.0211 18.3001 47.6877 18.1001 47.2877C17.7001 46.4877 17.5 45.5878 17.5 45.0878V44.6877L20.6001 44.9878C20.6001 44.9878 20.6001 45.2878 20.6001 45.4878C20.6001 45.5545 20.6333 45.6211 20.7 45.6877C20.7666 45.8877 20.9333 46.0211 21.2 46.0878C21.7 46.0878 21.7999 45.7878 21.8999 45.0878C21.9666 44.4211 21.7667 44.0545 21.3 43.9878C21.1 43.9878 20.9334 44.0544 20.8 44.1877L18.1001 43.6877L18.6001 37.4878L24.6001 37.9878L24.3999 40.7877L21.3999 40.5878L21.3 41.5878C21.5 41.4544 21.8334 41.4211 22.3 41.4878C22.7 41.4878 23.1001 41.4878 23.6001 41.8878Z" fill="#050505"/>
<path d="M10.5 39.5878L10.6001 38.8878C10.6001 38.6211 10.6333 38.3877 10.7 38.1877C10.7 38.0544 10.7666 37.7878 10.8999 37.3878C11.0999 36.9878 11.3 36.6545 11.5 36.3878C11.7667 36.1211 12.1334 35.8877 12.6001 35.6877C13.1334 35.4877 13.7 35.4211 14.3 35.4878C15.7 35.5878 16.7001 36.1877 17.1001 36.7877C17.3001 37.0544 17.4668 37.4211 17.6001 37.8878C17.7334 38.2878 17.8 38.5877 17.8 38.7877C17.8 38.9877 17.7666 39.2211 17.7 39.4878V39.5878C17.6333 40.3211 17.3334 41.0878 16.8 41.8878C16.2 42.6211 15.5334 43.2878 14.8 43.8878L17.5 44.0878L17.2 46.9878L10.2 46.3878L10.3999 43.8878C12.2999 42.3878 13.6001 41.2878 14.1001 40.5878C14.3668 40.2544 14.5334 39.9877 14.6001 39.7877C14.6668 39.6544 14.7 39.4877 14.7 39.2877C14.7 38.8877 14.7001 38.7878 14.6001 38.4878C14.4668 38.4211 14.3333 38.3878 14.2 38.3878C13.7 38.2878 13.6001 38.5877 13.6001 39.1877L13.5 39.8878L10.5 39.5878Z" fill="#FEFEFE"/>
<path d="M24.8999 40.5878C25.1666 40.7878 25.4001 41.0211 25.6001 41.2877C26.0001 41.7877 26.3 42.8877 26.2 44.2877C26.2 44.3544 26.2 44.4544 26.2 44.5878C26.1333 44.7878 26.0332 45.0878 25.8999 45.4878C25.6999 45.8878 25.4666 46.2211 25.2 46.4878C24.9333 46.8211 24.5333 47.0877 24 47.2877C23.4667 47.5544 22.8334 47.6544 22.1001 47.5878C21.4334 47.5211 20.8666 47.3211 20.3999 46.9878C19.8666 46.7211 19.5 46.3878 19.3 45.9878C18.9 45.1878 18.7 44.2877 18.8 43.7877L18.7 43.3878L21.8 43.6877C21.8 43.6877 21.7999 43.9877 21.8999 44.1877C21.8999 44.2544 21.8999 44.3212 21.8999 44.3878C21.9666 44.5878 22.1667 44.7211 22.5 44.7877C23 44.7877 23.1 44.4877 23.2 43.7877C23.2 43.1211 22.9667 42.7544 22.5 42.6877C22.3667 42.6877 22.2334 42.7545 22.1001 42.8878L19.3 42.3878L19.8 36.1877L25.8999 36.6877L25.6001 39.4878L22.6001 39.2877L22.5 40.2877C22.7667 40.1544 23.1334 40.1211 23.6001 40.1877C24.0001 40.1877 24.2999 40.1878 24.8999 40.5878Z" fill="#FEFEFE"/>
<path d="M83.5 85.2877L4.6001 80.3878L5.5 75.2877L83.7 80.0878L83.5 85.2877Z" fill="#ED4592"/>
<path fill-rule="evenodd" clip-rule="evenodd" d="M11.2 62.7877C12.2 62.8877 13.3 63.0878 12.5 66.3878C11.9 69.2878 10.8 69.3877 9.30005 69.2877H8.80005L10.3 62.7877H11.2ZM10.8999 63.4878L9.69995 68.4878C11.1 68.6878 11.4001 67.2877 11.6001 66.1877C11.8001 65.1877 12.2999 63.4878 10.8999 63.4878Z" fill="#FEFEFE"/>
<path d="M13.3 69.5878L12.5 69.4878L14 62.9878L14.8 63.0878L13.3 69.5878ZM14.3999 62.7877L14 62.4878L15 61.2877L15.3999 61.6877L14.3999 62.7877Z" fill="#FEFEFE"/>
<path fill-rule="evenodd" clip-rule="evenodd" d="M17.2 63.2877L17 69.8878L16.2 69.7877V68.4878L15 68.3878L14.5 69.6877L13.6001 69.5878L16.5 63.1877L17.2 63.2877ZM16.3999 66.8878L16.6001 64.5878L15.3 67.7877L16.3 67.8878L16.3999 66.8878Z" fill="#FEFEFE"/>
<path fill-rule="evenodd" clip-rule="evenodd" d="M21.3 63.5878C22.3 63.5878 23.4001 63.7878 22.6001 67.0878C22.0001 70.0878 20.9 70.0878 19.5 69.9878H18.8999L20.3999 63.4878L21.3 63.5878ZM21 64.2877L19.8 69.3878C21.2 69.4878 21.5 68.0878 21.7 66.9878C21.9 66.0878 22.4 64.2877 21 64.2877Z" fill="#FEFEFE"/>
<path d="M26.3 63.8878L26.1001 64.6877L24.7 64.5878L24.3 66.5878L25.5 66.6877L25.3 67.4878L24.1001 67.3878L23.6001 69.5878L25 69.6877L24.8 70.3878L22.6001 70.2877L24.1001 63.7877L26.3 63.8878Z" fill="#FEFEFE"/>
<path d="M29.1001 64.0878L27.8 69.8878L29.2 69.9878L29 70.6877L26.8 70.5878L28.3 64.0878H29.1001Z" fill="#FEFEFE"/>
<path fill-rule="evenodd" clip-rule="evenodd" d="M32.3999 64.3878L32.2 70.9878L31.3999 70.8878V69.5878L30.2 69.4878L29.7 70.7877L28.8999 70.6877L31.7 64.2877L32.3999 64.3878ZM31.6001 67.9878L31.8 65.6877L30.5 68.8878L31.5 68.9878L31.6001 67.9878Z" fill="#FEFEFE"/>
<path fill-rule="evenodd" clip-rule="evenodd" d="M13.2 82.4878L10.3 82.2877L9.1001 80.0878H8.8999L8.5 82.0878L6.1001 81.9878L7.80005 73.8878L11.1001 74.0878C11.1001 74.0878 11.2 74.0877 11.7 74.1877C12.1 74.2877 12.4 74.3877 12.8 74.7877C13.3 75.0877 13.5001 75.4877 13.6001 76.1877C13.6668 76.5211 13.6668 76.8877 13.6001 77.2877C13.3334 78.4211 12.7 79.2544 11.7 79.7877L13.2 82.4878ZM9.69995 76.2877L9.3999 77.7877L10.3 77.8878C10.7667 77.8878 11.0334 77.6544 11.1001 77.1877C11.2001 76.6877 11.0001 76.3878 10.6001 76.3878L9.69995 76.2877Z" fill="#FEFEFE"/>
<path d="M17.3999 76.7877L17.3 77.5878L20.3999 77.7877L20 79.8878L16.8999 79.6877L16.7 80.3878L20.1001 80.5878L19.6001 82.8878L13.8999 82.4878L15.6001 74.3878L21.3 74.6877L20.8 76.9878L17.3999 76.7877Z" fill="#FEFEFE"/>
<path d="M25.3999 83.2877L23 83.0878L21.8 74.7877L24.3999 74.8878L24.8999 79.8878L27.5 75.0878L30 75.2877L25.3999 83.2877Z" fill="#FEFEFE"/>
<path fill-rule="evenodd" clip-rule="evenodd" d="M34.1001 75.3878C35.2335 75.5212 36.1334 76.0212 36.8001 76.8878C37.4001 77.7545 37.5999 78.7545 37.3999 79.8878C37.1333 81.0878 36.5335 82.0544 35.6001 82.7877C34.6001 83.5877 33.5001 83.9545 32.3001 83.8878C31.1667 83.7545 30.2668 83.2545 29.6001 82.3878C29.0001 81.5212 28.8335 80.5212 29.1001 79.3878C29.3001 78.1878 29.8999 77.2211 30.8999 76.4878C31.8333 75.6878 32.9001 75.3212 34.1001 75.3878ZM32.8001 81.5878C33.2667 81.5878 33.7001 81.4211 34.1001 81.0878C34.5668 80.7544 34.8333 80.3211 34.8999 79.7877C35.0333 79.2544 34.9666 78.7878 34.7 78.3878C34.4333 77.9878 34.0668 77.7544 33.6001 77.6877C33.1335 77.6877 32.7001 77.8544 32.3001 78.1877C31.9001 78.5211 31.6334 78.9545 31.5 79.4878C31.3667 80.0211 31.4333 80.4878 31.7 80.8878C31.9666 81.2878 32.3334 81.5211 32.8001 81.5878Z" fill="#FEFEFE"/>
<path d="M41.7 76.0878L40.5 81.8878L43.8 82.0878L43.3999 84.3878L37.7 83.9878L39.3 75.8878L41.7 76.0878Z" fill="#FEFEFE"/>
<path d="M47.3999 84.7877C47.2999 84.7877 47.1999 84.7877 46.6999 84.6877C46.2999 84.5877 45.9 84.4878 45.5 84.0878C45 83.6878 44.7999 83.2878 44.6999 82.4878C44.6332 82.1545 44.6332 81.7544 44.6999 81.2877L45.6999 76.2877L48.1 76.4878L47.1 81.4878C47.1 81.4878 47 81.5877 47.1 81.7877C47.1 81.9211 47.1332 82.0211 47.1999 82.0878C47.2999 82.2878 47.5 82.4878 47.8 82.5878C48.0667 82.5878 48.3 82.4877 48.5 82.2877C48.7 82.1544 48.8332 82.0212 48.8999 81.8878L49 81.5878L50.1 76.5878L52.3999 76.7877L51.3999 81.6877C51.1999 82.5877 50.8 83.3877 50.3 83.7877C50.0333 83.9877 49.7666 84.1878 49.5 84.3878C48.7 84.7878 47.9 84.7877 47.5 84.7877H47.3999Z" fill="#FEFEFE"/>
<path d="M60.8001 82.0878C60.4001 83.0878 59.7335 83.9211 58.8001 84.5878C57.8668 85.1878 56.9 85.4545 55.9 85.3878C54.7 85.3212 53.8 84.8545 53.2 83.9878C52.6 83.1212 52.4002 82.0879 52.6002 80.8879C52.8668 79.6878 53.4666 78.7212 54.4 77.9878C55.4 77.2545 56.4668 76.9212 57.6002 76.9878C58.6668 77.0545 59.5002 77.4544 60.1002 78.1878C60.7668 78.8544 61.0667 79.7211 61.0001 80.7878L58.5001 80.5878C58.4334 80.2545 58.2667 79.9544 58.0001 79.6878C57.8001 79.4211 57.5334 79.2878 57.2 79.2878C56.6667 79.2211 56.2001 79.3544 55.8001 79.6878C55.4001 80.0878 55.1668 80.5545 55.1002 81.0878C54.9668 81.6211 55.0335 82.0878 55.3001 82.4878C55.5668 82.8878 55.9333 83.0878 56.4 83.0878C56.7333 83.0878 57.0666 82.9878 57.4 82.7878C57.7333 82.5878 58 82.2878 58.2 81.8878L60.8001 82.0878Z" fill="#FEFEFE"/>
<path d="M60.8999 85.5878L62.6001 77.3878L65 77.5878L63.3 85.6877L60.8999 85.5878Z" fill="#FEFEFE"/>
<path fill-rule="evenodd" clip-rule="evenodd" d="M70.3001 77.7877C71.4334 77.8544 72.3334 78.3211 73 79.1877C73.6 80.0544 73.7667 81.0877 73.5 82.2877C73.3 83.4211 72.7 84.3877 71.7 85.1877C70.7667 85.9211 69.7 86.2544 68.5 86.1877C67.3667 86.1211 66.4667 85.6544 65.8001 84.7877C65.2001 83.9211 65 82.8877 65.2 81.6877C65.4667 80.5544 66.1001 79.5877 67.1001 78.7877C68.0335 78.0544 69.1001 77.7211 70.3001 77.7877ZM69 83.8878C69.4667 83.9545 69.9001 83.7878 70.3001 83.3878C70.7001 83.0545 70.9668 82.6211 71.1001 82.0878C71.2335 81.5544 71.1666 81.0877 70.8999 80.6877C70.6333 80.2877 70.2667 80.0878 69.8001 80.0878C69.3334 80.0211 68.9 80.1878 68.5 80.5878C68.1 80.9211 67.8333 81.3545 67.7 81.8878C67.5667 82.4212 67.6333 82.8877 67.8999 83.2877C68.1666 83.6877 68.5334 83.8878 69 83.8878ZM71.5 77.2877L69.2 77.0878L70.7 75.0878L73.3999 75.1877L71.5 77.2877Z" fill="#FEFEFE"/>
<path d="M82.5 78.6877L80.8999 86.8878L78.7 86.6877L76.8999 82.9878L76.2 86.5878L73.8 86.3878L75.5 78.2877L77.6001 78.3878L79.3999 82.0878L80.2 78.5878L82.5 78.6877Z" fill="#FEFEFE"/>
<path d="M61.3999 95.0878L7 91.9878L7.6001 86.8878L61.7 89.8878L61.3999 95.0878Z" fill="#ED4592"/>
<path fill-rule="evenodd" clip-rule="evenodd" d="M9 93.2877L10.7 85.1877L13.8 85.3878C15 85.4545 15.8666 85.8877 16.3999 86.6877C16.9999 87.5544 17.1666 88.5544 16.8999 89.6877C16.6999 90.8877 16.1333 91.8211 15.2 92.4878C14.3333 93.2211 13.3333 93.5545 12.2 93.4878L9 93.2877ZM12.5 87.5878L11.8 91.1877H12.6001C13.0668 91.2544 13.4667 91.1211 13.8 90.7877C14.1334 90.4544 14.3332 90.0544 14.3999 89.5878C14.5332 89.0544 14.5 88.6211 14.3 88.2877C14.1 87.8877 13.7667 87.6877 13.3 87.6877L12.5 87.5878Z" fill="#FEFEFE"/>
<path d="M20.6001 88.0878L20.5 88.8878L23.6001 89.0878L23.2 91.1877L20 90.9878L19.8999 91.6877L23.3 91.8878L22.8 94.1877L17.1001 93.7877L18.8 85.6877L24.5 86.0878L24 88.3878L20.6001 88.0878Z" fill="#FEFEFE"/>
<path d="M31 93.7877L30.3999 93.6877L29.3999 91.1877L28.7 94.5878L26.3999 94.3878L28 86.2877L30.2 86.4878L31.6001 89.6877L34.2 86.6877L36.3999 86.7877L34.7 94.9878L32.3 94.7877L33 91.3878L31 93.7877Z" fill="#FEFEFE"/>
<path fill-rule="evenodd" clip-rule="evenodd" d="M42.3999 87.1877L43.6001 95.5878L41.1001 95.3878L41 94.4878L38.3999 94.3878L38 95.1877L35.3999 94.9878L40 87.0878L42.3999 87.1877ZM39.6001 92.0878L40.7 92.1877L40.5 90.3878L39.6001 92.0878Z" fill="#FEFEFE"/>
<path d="M47.3999 95.7877L45 95.5878L45.6001 92.8878L43.8 87.2877L46.5 87.4878L47.3 90.1877L49.3 87.6877L51.8999 87.8878L47.8999 93.0878L47.3999 95.7877Z" fill="#FEFEFE"/>
<path fill-rule="evenodd" clip-rule="evenodd" d="M55.8999 87.9878C57.0333 88.0545 57.9335 88.5212 58.6001 89.3878C59.2001 90.2545 59.4 91.2878 59.2 92.4878C58.9333 93.6212 58.3333 94.5878 57.3999 95.3878C56.3999 96.1212 55.3001 96.4545 54.1001 96.3878C52.9668 96.3212 52.0666 95.8545 51.3999 94.9878C50.7999 94.1212 50.6333 93.0879 50.8999 91.8879C51.0999 90.7545 51.7 89.7878 52.7 88.9878C53.6333 88.2545 54.6999 87.9212 55.8999 87.9878ZM54.6001 94.0878C55.0668 94.1545 55.4999 93.9878 55.8999 93.5878C56.3666 93.2545 56.6333 92.8211 56.7 92.2878C56.8333 91.7544 56.7667 91.2879 56.5 90.8879C56.2334 90.4878 55.8666 90.2878 55.3999 90.2878C54.9333 90.2211 54.5001 90.3544 54.1001 90.6878C53.7001 91.0878 53.4334 91.5545 53.3001 92.0878C53.1667 92.6211 53.2334 93.0878 53.5 93.4878C53.7667 93.8878 54.1335 94.0878 54.6001 94.0878Z" fill="#FEFEFE"/>
</g>
<defs>
<clipPath id="clip0_239_64584">
<rect width="97" height="113" fill="white"/>
</clipPath>
</defs>
</svg>
