<svg xmlns="http://www.w3.org/2000/svg" width="80" height="77" fill="none" viewBox="0 0 80 77">
  <path fill="#ED4997" d="m8.7 69.764 62.1-2.3-5-64.9-59.9 2.3 2.8 64.9Z"/>
  <path fill="#AB3878" d="m2 77 64.8-5.836 2.2-3.2-60.3 1.8-2.8-64.9L0 13l2 64Z"/>
  <path fill="#7C265A" d="m70.8 67.464-62.1 2.3L2 77l61.5-2 7.3-7.536Z"/>
  <mask id="a" width="69" height="10" x="2" y="67" maskUnits="userSpaceOnUse" style="mask-type:alpha">
    <path fill="#7C265A" d="m70.8 67.464-62.1 2.3L2 77l61.5-2 7.3-7.536Z"/>
  </mask>
  <g mask="url(#a)">
    <mask id="b" width="190" height="247" x="-119" y="67" maskUnits="userSpaceOnUse" style="mask-type:luminance">
      <path fill="#fff" d="m-118.9 251.994 20.73 61.65 53.84-74.3L70.8 67.484l-62.12 2.29-127.58 182.22Z"/>
    </mask>
    <g mask="url(#b)">
      <path stroke="#ED4592" stroke-width=".4" d="m74 8.164-179.5 258m179-251.5-179.6 258m179-251.4-170.8 245.7m170.3-239.2-170.8 245.7m170.3-239.1-161.6 232.6m161-226.1-161.5 232.7m161-226.1-161.2 232.7m160.7-226.2-160.1 232M70 60.564l-159.7 232.6m159.2-226-157.8 231M23.8-5.936l-55.2 75.6m54.9-72.3-55.2 75.6M23.1.664l-55.1 75.6m54.8-72.4-55.2 75.6m54.8-72.3-55.1 75.6m54.8-72.3-55.2 75.6m54.9-72.4-55.2 75.6m54.8-72.3-55.1 75.6m54.8-72.3-55.2 75.6m54.9-72.3-55.2 75.5m71-94.4-55.1 75.6m54.8-72.3-55.2 75.6m54.9-72.3-55.2 75.6m54.8-72.4-55.1 75.6m54.8-72.3-55.2 75.6m54.9-72.3-55.2 75.6m54.8-72.4-55.1 75.6m54.8-72.3-55.2 75.6m55.8-72.2-92 125.1m89.4-123.8-91.4 125.1m89.6-117-157.1 226.3m156.7-219.7-154.3 222m153.9-215.4-145.3 208.8m145.3-202.2-145.3 208M29 66.764l-134.8 193.7"/>
    </g>
  </g>
  <path fill="#7C265A" fill-rule="evenodd" d="M4.7 3.564c.2.266.4.3.6.1.3-.2.1-.4 0-.6l-.2-.2c-1.1-.5-1.1-1.6-1.6-2.5-.1-.2 0-.3.3-.3.9-.2 1.6.1 2.4.5.9.4 1.8.5 2.7.4.1 0 .2.1.3 0 .4-.5 1.1-.5 1.5-.1l.6.6c.2.1.3.2.4.4 0 .3.2.5.4.7.4.3.5.3.8-.1.2-.3.7-.4 1-.2.2.1.5.3.6.7 0 .1.1.2.2.3.3.3.6.6.7 1.1.1.5.6.7 1.1.7.1.1.4 0 .4.2s0 .3-.2.4c0 .1-.1.1-.1.2 0 .8-.4 1.7.2 2.6.2.2.1.4.2.6.3.7.8 1.2 1.5 1.5.3.1.8-.1 1.2-.1.1 0 .2-.1.3-.1.2-.1.5.1.7-.1.2-.3.4-.6.5-1 .1-.5.3-.7.8-.8.333-.067.7-.134 1.1-.2.5-.1.7.1.8.5 0 .2 0 .4-.2.4-.3 0-.3.2-.4.4 0 .5-.1.9-.4 1.3-.2.4-.1.9-.4 1.3 0 .1.2.1.3.1h1.1c.6-.1 1.2 0 1.8.2.333.133.467.366.4.7-.067.666-.134 1.366-.2 2.1v.5c.5.5.8 1.1 1.6 1.3.2 0 .4-.1.6-.2.4-.1.9-.2 1.3-.1.3 0 .5.1.6.4.2.4.3.3.6 0s.5-.6.7-1c.1-.4.5-.4.9-.5.5-.2 1.2-.2 1.5-.8.1-.1.2-.1.3 0 .1.1.2.3 0 .4-.1.1-.3.1-.2.3.2.2.3.1.5.1.3-.1.5-.2.5-.5 0-.1 0-.2.2-.2.067 0 .1.066.1.2.1.2.3.3.5.4.2.1.6.2.8.5 0 .1.3.1.5 0 .3-.1.6 0 .8.1.4.2.6.1 1-.1s.9-.1 1.4-.1c-.4.4-.3.5.2.6.4.1.7.1.6.7-.1.2.1.2.2.2.4-.067.7.066.9.4.4.5 1 .7 1.4 1.2.1.1.3.1.5.1.7 0 1.5 0 2.2.2.8.3 1.4.9 1.5 1.7.1.3.1.6.4.8.1 0 .1.1.1.2-.3.5.1.4.4.5.667.333 1.333.7 2 1.1.2.1.3.2.5.2.4.1.6.3.7.6.1 0 .1.1.2.1.6 0 1.2.4 1.9.3.6-.2 1.2.1 1.7.5.267.2.5.4.7.6.3.3.6.4 1 .4.6-.1.8.1.8.7-.1.4-.1.7.1 1 .1.4 0 .7-.3 1-.2.266-.4.466-.6.6-.5.5-1 1-1.4 1.6-.067.133-.2.266-.4.4-.3.2-.3.6-.3.9 0 .5.2 1 0 1.5-.2.8-.2 1.7-.6 2.4-.2.3-.5.4-.6.8-.2.9-.3.8-1.1 1-.6.1-1.2.2-1.7.5-.1.1-.2.2-.3.1-.5-.2-.7.2-.9.4-.4.4-.9.7-1.1 1.3 0 .2-.1.3 0 .4.2.4 0 .8.1 1.3 0 .1-.1.2-.2.3-.4.1-.4.4-.5.7-.3.9-1.1 1.6-1.6 2.3-.4.4-.7.8-.9 1.2-.2.5-.8.7-1.3.6-.6-.2-1.2-.367-1.8-.5-.1.3.3.3.4.4.2.2.5.2.2.6-.1.1 0 .3.2.3.3 0 .3.2.3.4 0 1-.9 1.9-2 2-.4 0-.8.1-1.3 0-.2-.1-.4 0-.4.3.1.4 0 .7 0 1.1 0 .4-.2.5-.5.5-.4 0-.7-.1-1-.2 0 0-.1-.1-.2-.1-.2.3-.1.6-.1.9 0 .1.1.3.3.3a.887.887 0 0 1 .4-.1c.133 0 .233.066.3.2.1.2 0 .3-.1.4-.2.1-.3.1-.4-.1 0 0-.1-.1-.2 0-.133.066-.133.133 0 .2.2.2 0 .2 0 .3-.4.4-.6.9-.6 1.4 0 .2-.1.3-.2.3-.4.1-.8.2-1 .6-.2.5 0 1.1.6 1.1.2.1.4.1.4.4.1.3.2.6-.1.8-.6.4-1.2.8-1.2 1.6 0 .3-.3.3-.4.4-.5.3-.7.6-.5 1.1.1.3.3.5.3.8.1.4.3.8.2 1.3 0 .1.1.2.2.3.5.8 1.3 1.2 2.2 1.5-.6.2-1.2.2-1.8.3-.1.1-.4 0-.2.3 0 .2-.2.2-.3.1-.3-.3-.9-.2-1.3-.5-.1-.1-.3-.3-.5-.4-.2-.3-.4-.6-.8-.6-.2-.1-.4-.2-.5-.5 0-.1-.1-.2-.2-.2-.6-.1-.4-.6-.5-.9-.2-.8-.1-1.7-.4-2.5-.267-.534-.4-1.134-.4-1.8 0-.3.2-.6.5-.7.4-.2 0-.5 0-.7 0-.2-.2 0-.3 0-.1 0-.2.2-.3 0 0-.1 0-.3.1-.3.3-.2.1-.8.6-.7.1-.6.7-.7 1-1 .2-.2.1-.3-.1-.4-.2-.2-.2-.4-.1-.7.2-.4 0-.9.3-1.3.1-.1 0-.3-.2-.4-.3 0-.2.2-.2.4-.1.3-.2.5-.1.9 0 .1-.2.2-.4.2s-.267-.1-.2-.3l.3-2.4c.2-.8.1-1.5.1-2.1 0-.3-.1-.4.2-.6.2-.2.3-.6.5-.9.5-1 .9-2.1.6-3.2-.2-.8.1-1.5.1-2.2 0-.5.2-1.1.4-1.6.1-.2.2-.4.2-.6-.1-1.3.3-2.5.2-3.8 0-.4 0-.8-.1-1.2-.4-.7-.8-1.3-1.6-1.6-.7-.3-1.4-.7-2-1.2-.1-.2-.3-.4-.3-.7v-.2c-.6-.9-1-1.9-1.4-2.9-.4-.7-.8-1.3-1.5-1.8-.134-.067-.2-.2-.2-.4 0-.1.1-.3 0-.4-.2-.5 0-.8.3-1 .3-.2.1-.4 0-.6-.3-.2-.4-.7-.2-1 .2-.4.5-.7.6-1.1 0-.2.2-.3.3-.3.4 0 .4-.2.5-.5.1-.3.1-.5.5-.6.5-.1.6-.4.5-.9-.1-.4-.3-.9-.1-1.4.1-.1-.1-.3-.2-.4-.2-.3-.4-.6-.3-1 0-.1-.1-.2-.1-.2-.3-.3-1.2-.1-1.4.2 0 .133.033.233.1.3.1.1.3.2 0 .3-.1.1-.3.2-.4.1-.1-.1-.2-.3-.3-.2-.3.2-.3.1-.3-.2 0-.3-.3-.3-.5-.3-.4.1-.6 0-.8-.4-.2-.3-.5-.5-.9-.6-.4 0-.6-.2-.6-.6 0-.4-.2-.6-.4-.8-.3-.3-.6-.5-.7-.9-.1-.2-.2-.1-.3-.1-.2.1-.4.1-.7 0-.4-.2-.8-.4-1.3-.4-.5-.1-.7-.4-1.1-.7-.2-.2-.5-.5-.8-.6-.3-.2-.6-.3-.9-.1-.8.4-1.5 0-2.2-.2-1.1-.3-1.9-1-3-1.3-.6-.2-1.2-.6-1.8-1.2-.1-.1 0-.3 0-.5 0-.5.2-1-.2-1.5-.334-.334-.6-.7-.8-1.1-.1-.1-.2-.2-.4-.3-.5-.3-1.1-.6-1.1-1.3 0-.1 0-.1-.1-.2-.4-.2-.6-.7-1-1l-.6-.6v-.2c-.7-.2-.5-.9-.7-1.3-.2-.4-.6-.8-1-.8-.2 0-.3.1-.2.3a5.7 5.7 0 0 1 .3 1l.1.1c.6.1.8.6.9 1 .4.9 1.2 1.6 1.4 2.6.1.4.3.6.6.7.5.2.5.5.3.8-.2.2-.4.2-.6-.1-.2-.5-.7-.7-1.1-1-.2-.1-.3-.2-.2-.4.2-.4-.1-.9-.6-1.1-.5-.2-.9-.7-1.4-.9-.067-.067-.067-.167 0-.3Zm45.8 34.9v-.1c-.1 0-.1.1 0 .1Zm-17.1-22.8h-.1s.1.1.1 0Zm16.6 23.1.1-.1c-.067 0-.1-.034-.1-.1v.2Zm0-.6c-.1-.2-.2-.3-.5-.3.1.3.4.2.4.5.2 0 .2-.1.1-.2Zm-.2.3c0 .1.1.1.2.1 0-.067-.033-.134-.1-.2 0 0-.1 0-.1.1Zm-14.2-21c.1-.1 0-.2-.1-.2 0 0 0 .1.1.2Zm-.2-.5v.1c0 .1 0 .1.1.1 0 0 0-.1-.1-.2Zm.6 42.9c0-.1-.1-.1-.1 0h.1Zm.3-.2c0-.1-.1-.1-.1-.1-.2 0-.2.1-.2.2.1 0 .3.1.3-.1Zm-3.1-43.2h-.1c-.1.2 0 .6.2.7.1.1.2 0 .3-.1 0 0-.3-.6-.4-.6Zm-2.4 1.4c.466 0 .633-.234.5-.7-.1.2-.3.4-.5.7Zm17.4 19.5c.1-.3-.1-.7.5-.6-.1-.2-.2-.4-.4-.3-.3.2-.1.6-.1.9Zm-14.3 22.5c.2.1.3 0 .5 0 .1-.1.2-.1.1-.3 0 0-.1-.1-.2.1-.1.1-.3.1-.4.2Zm0-42.1c-.2-.1-.4-.2-.6-.4.1.4.3.5.6.4Zm1.8 42.5c0-.1 0-.2-.1-.2s-.2.1-.2.2.1.1.2.1c.133.066.166.033.1-.1Zm12.5-20.8c-.1.1-.2.1-.2.2s.1.1.2.1c.066 0 .1-.067.1-.2 0-.067-.033-.1-.1-.1Zm-12.1-21.7c.1.1.2.2.4.1v-.1c-.067-.067-.2-.067-.4 0Zm1.2-.3c0 .066.033.133.1.2.133 0 .167-.067.1-.2 0-.067-.033-.1-.1-.1-.1 0-.1 0-.1.1Zm9.4 19.1c.2 0 .4.1.5-.1v-.1c-.2-.1-.3.1-.5.2Zm-8.6-19.7c-.2.1-.3.2-.2.4.1-.1.2-.2.2-.4Zm-2.6-.8c0-.067-.033-.1-.1-.1-.1 0-.1.1-.1.1 0 .1 0 .2.1.2s.1-.1.1-.2Zm3.6.4c-.2-.1-.3-.1-.4.1.2 0 .3 0 .4-.1Zm-5.6 45c0 .1 0 .3.2.3 0-.1 0-.2-.2-.3Zm4.2-44.6c0-.134-.033-.2-.1-.2s-.1.033-.1.1c.1.1.1.2.2.1Zm-3.7 45.3c-.133 0-.2.033-.2.1l.1.1c.1 0 .2 0 .2-.1s-.1-.1-.1-.1Zm14.8-25.9c.1 0 .1 0 .1-.1h-.1s-.1 0-.1.1h.1Zm1.3.3c.2-.1.3-.2.2-.4-.1.1-.2.2-.2.4Zm-13-18.7c-.1-.2-.1-.4-.3-.3.1.1.1.2.3.3Zm16 19.6v-.1c-.067 0-.133.033-.2.1 0 .1 0 .1.1.1s.1-.1.1-.1Zm-.8-.3c-.067-.067-.133-.1-.2-.1 0 0 0 .1-.1.1 0 .1.1.1.1.1.067 0 .133-.034.2-.1Zm-11.9-19.6h-.1c-.067 0-.1.033-.1.1h.1l.1-.1Zm-4.9 43.2h-.1c0 .066.033.1.1.1v-.1Zm14.4-24.5c.067 0 .067-.034 0-.1h-.1c0 .066.033.1.1.1Zm-1.5 3.7c0 .066.033.1.1.1l.1-.1h-.2Zm-10.2-23.5H38c-.067 0-.067.033 0 .1h.1l.1-.1Zm14 20.2H52h.2Zm-12.9-19.7c0-.067-.033-.1-.1-.1l-.1.1c0 .066.033.1.1.1.066 0 .1-.034.1-.1Zm9.1 20.8h.1v-.1h-.1v.1Zm-9.2-20.2h.1c.067 0 .067 0 0 0v-.1c-.067 0-.1.033-.1.1Zm12.9 20.5v-.1H52c0 .066.033.1.1.1Zm-18.6 21v.1c.1 0 .1-.1.1-.1l-.1-.1v.1Zm-.8.7c0-.067-.033-.1-.1-.1v.1h.1Zm-.8-42.9c.067-.067.067-.134 0-.2-.067.066-.067.133 0 .2Zm6.9 0v-.1h-.1l.1.1Zm1.5 1.1c0-.067-.033-.1-.1-.1v.1h.1Zm8.7 21.9-.1-.1v.1h.1Zm-9.4-22.2c0 .066.033.1.1.1v-.1h-.1Zm-3.7-.5h-.1.1Zm-1.5.4v.1-.1Zm-4 .2h-.1v.1l.1-.1Zm4.4 1.7h-.1.1Zm14 17 .1.1v-.1h-.1Zm.1 1.5h-.1.1Zm-19.3-20.8v.1l.1-.1h-.1Z" clip-rule="evenodd"/>
  <path fill="#7C265A" d="M25.1 8.464c.5-.6 1.1-1.1 2-1 .2 0 .4 0 .6.1.5.1 1 .4 1.5.4s.7.4 1.1.6c.5.2 1 .5 1.5.8.1 0 .2.1.2.2s-.1.1-.2.2c-.7.2-1.3.1-1.9.1-.1-.2.2-.3.2-.5-.5 0-1.1.3-1.4-.3h.2c.1.1.3.2.3 0 .1-.1 0-.3-.2-.3-.5-.1-.9-.3-1.4-.4-.3-.1-.5-.1-.7-.4-.2-.2-.5.1-.7.2-.2.3-.8.5-1.1.3Zm6.7 2.3c.7.3.8-.3 1-.5.3-.2-.3-.2-.3-.4s.2-.1.3-.1c.7-.1 1.5-.1 2.2.1.467.133.867.366 1.2.7.066.066.066.133 0 .2-.2.1-.3.3-.5.2-.4-.2-.8.2-1.2 0-.2-.1-.3.2-.3.3-.1.2-.3.3-.3.1-.1-.4-.4-.4-.7-.3-.2 0-.4 0-.7.1-.2 0-.4 0-.7-.4Zm10.1 52.5c-.2 0-.2-.1-.3-.2 0-.1 0-.2-.1-.2-.1-.1-.2 0-.2.1-.1.1-.1.3-.3.1-.2-.1-.4-.2-.4-.4-.1-.1.1-.2.1-.1.4.1.4-.1.5-.3.1-.3.4-.3.7-.3.2.067.433.1.7.1.2 0 .3.1.4.3.1.1-.2.2-.3.3-.2.133-.4.3-.6.5-.067.067-.134.1-.2.1Zm-11.4-56.9c-.3-.6-.5-1.5-1.6-1.3.2-.2.5-.3.8-.3.4 0 .6.1.5.6-.1.1-.1.2 0 .2.5.1.6.6.9.8.1.1.2.2.1.3-.1.2-.2-.1-.2-.1-.1-.2-.3-.1-.5-.2Zm8.3 4.3c-.6.4-1.1.5-1.7.5-.2 0-.4-.1-.3-.4 0-.2.2-.3.4-.2.5.1 1 .5 1.6.1Zm-8.9 0c.133 0 .266.033.4.1.2.1.4.1.4.3-.1.2-.3.2-.4.2-.2 0-.3 0-.5-.1-.2 0-.4-.1-.3-.3 0-.2.2-.2.4-.2Zm.1-4.5c-.3.1-.3.2-.2.5.1.1.2.3 0 .4-.2.1-.2-.1-.3-.3-.1-.1-.4-.2-.2-.5.2-.4.5-.1.7-.1Zm-8.3 17.3c-.3 0-.5-.1-.6.2 0 .1-.2.1-.2 0 0-.2-.3-.5-.1-.7.1-.2.2-.1.3 0 .1.2.5.1.6.5Zm10.1-16.5c-.3.3-.1.6-.2.9-.1-.5-.5-.5-.8-.7.3.1.6-.3 1-.1v-.1Zm9.5 8.7c-.1.1-.1.3-.1.4.1.2.1.3-.1.3-.1.1-.3.1-.4-.1 0-.1 0-.3.1-.4.133-.067.3-.134.5-.2Zm-8.4-7.5c.2.1.3.4.6.5.1 0 0 .2-.1.2-.4-.1-.4-.5-.7-.6 0-.1.1-.1.2-.1Z"/>
  <path fill="#7C265A" d="M27.1 8.664c-.2.1-.4 0-.6 0-.1.1-.2.1-.2-.1 0-.1.1-.2.2-.2.2.066.4.166.6.3Zm14.2 4.9c0 .066-.034.1-.1.1-.1 0-.2-.1-.2-.1 0-.2-.3-.5-.2-.6.3-.1.2.3.3.4.1 0 .2.1.2.2Zm-8.5-4.9c.1.3 0 .5-.3.5-.2.1-.3 0-.1-.2a1.52 1.52 0 0 1 .4-.3Zm7.9 3.9c-.1-.1-.3 0-.3-.3 0-.1.1-.1.2-.1.2 0 .3.1.3.3 0 .133-.067.166-.2.1Zm-8.7-4.2c-.1 0-.1-.1-.1-.2 0-.2.067-.267.2-.2.1 0 .2 0 .2.2 0 .1-.1.2-.3.2Zm7.5 2.5c.1.1.2.1.2.2 0 .2-.2.2-.3.2-.067 0-.1-.034-.1-.1 0-.133.067-.234.2-.3Zm-3.6 3.8c0 .066-.033.1-.1.1-.1 0-.2-.2-.3-.3 0 0 0-.1.1-.1.2.066.3.166.3.3Zm-.9-.4c.1 0 .2.1.3.2 0 .1-.1.1-.2.1s-.2 0-.2-.1c0-.134.033-.2.1-.2Zm-4.5-7.9c0 .2 0 .3.2.5-.3 0-.4-.2-.4-.3 0-.2.1-.1.2-.2Zm-8.4 17.4c-.1-.2 0-.3.2-.4v.1c0 .2-.1.2-.2.3Zm6.4-18c.3 0 .4 0 .4.2-.133 0-.267-.067-.4-.2Zm7.9 9c0 .1 0 .1-.1.1-.067 0-.1-.034-.1-.1-.1-.1 0-.1.1-.1.067 0 .1.033.1.1Zm-9-4.6c0 .066-.034.1-.1.1-.1 0-.2 0-.1-.1 0 0 0-.1.1-.1 0 0 0 .1.1.1Zm13.7 3.9c0 .066-.033.1-.1.1 0-.1-.1-.1-.1-.2.067-.067.133-.067.2 0v.1Zm-.7-2.4c.1 0 .1 0 .1.1s-.1.1-.1.1c0-.1-.1-.1-.1-.1 0-.1.1-.1.1-.1Zm-.6 0h-.1l-.1-.1h.1c.066 0 .1.033.1.1Zm-12.1-1.7c0 .066-.033.1-.1.1 0-.1-.1-.1-.1-.1.1-.1.1-.1.2-.1v.1Zm10.9 1.3c-.067 0-.134.033-.2.1l-.1-.1c0-.1.1-.1.1-.1.066 0 .133.033.2.1Zm1.6.8-.1.1c-.1 0-.1 0-.1-.1h.2Zm1.5 2.3c-.067.066-.1.066-.1 0v-.1c.066 0 .1.033.1.1ZM30 7.464c0 .066-.034.1-.1.1l-.1-.1h.2Zm11 7v.1c-.067 0-.1-.034-.1-.1.1-.1.1 0 .1 0Zm-9.2-7.4c-.1-.1-.1-.2-.1-.3h.1c.1.1-.1.2 0 .2v.1Zm8.5 4.2h.1l-.1.1v-.1Zm-3.9-.3h-.1l.1-.1v.1Zm-14.9 11.9-.1-.1h.1v.1Z"/>
  <path fill="#050505" d="m44 11.964-.1-.8v-.7c0-.2.067-.5.2-.9.067-.4.2-.767.4-1.1.2-.334.533-.634 1-.9.533-.267 1.133-.4 1.8-.4 1.4-.1 2.5.3 3.1.9.2.266.4.6.6 1 .2.4.3.7.3.9.067.266.1.5.1.7v.1c.067.8-.167 1.666-.7 2.6a9.8 9.8 0 0 1-1.7 2.3l2.8-.1.2 2.9-7.4.5-.1-2.6c1.8-1.8 2.9-3.1 3.3-3.9.2-.4.333-.7.4-.9v-.6c0-.4 0-.6-.2-.8-.133-.067-.3-.1-.5-.1-.4 0-.5.3-.4 1v.7l-3.1.2Z"/>
  <path fill="#050505" fill-rule="evenodd" d="m61.3 12.964.1 2.9-1.1.1.1 2-3.1.2-.2-2-4.1.2-.2-2.7 3.5-6.9 3.4-.2.4 6.4h1.2Zm-5.3.4 1.2-.1-.1-2.1-1.1 2.2Z" clip-rule="evenodd"/>
  <path fill="#FEFEFE" d="m45.5 11.064-.1-.8v-.7c0-.2.067-.5.2-.9.067-.4.2-.767.4-1.1.2-.334.567-.634 1.1-.9.467-.2 1.033-.334 1.7-.4 1.4-.1 2.5.4 3.1.9.267.266.467.6.6 1 .2.4.3.7.3.9.067.266.1.533.1.8.067.8-.167 1.666-.7 2.6a9.801 9.801 0 0 1-1.7 2.3l2.8-.1.2 2.9-7.3.5-.2-2.6c1.8-1.8 2.9-3.1 3.3-3.9.2-.4.333-.7.4-.9a.92.92 0 0 0 0-.6c0-.4 0-.5-.2-.7-.133-.134-.267-.2-.4-.2-.5.1-.5.4-.5 1v.7l-3.1.2Z"/>
  <path fill="#FEFEFE" fill-rule="evenodd" d="m62.8 12.064.2 2.9-1.2.1.1 2-3.1.2-.2-2-4.1.3-.2-2.7 3.5-7 3.4-.2.4 6.5 1.2-.1Zm-5.2.3 1.2-.1-.2-2.1-1 2.2Z" clip-rule="evenodd"/>
  <path fill="#5A50A2" d="m79.6 36.764-78.9 5.7-.4-4.6 79.1-5.7.2 4.6Z"/>
  <path fill="#FEFEFE" fill-rule="evenodd" d="M30.3 25.864c.9 0 1.9-.1 1.6 2.8-.2 2.6-1.1 2.8-2.4 2.9H29l.5-5.6.8-.1Zm-.2.6-.3 4.4c1.2-.1 1.2-1.2 1.3-2.2.1-.9.3-2.3-1-2.2Z" clip-rule="evenodd"/>
  <path fill="#FEFEFE" d="m33 31.264-.7.1.4-5.7h.8l-.5 5.6Zm.1-5.9-.4-.2.7-1.1.5.3-.8 1Z"/>
  <path fill="#FEFEFE" fill-rule="evenodd" d="m35.6 25.464.7 5.6-.8.1-.1-1.1h-1.1l-.3 1.2h-.7l1.7-5.7.6-.1Zm-.3 3.1-.1-2-.7 2.9.9-.1-.1-.8Zm3.9-3.3c.9-.1 1.9-.1 1.7 2.8-.3 2.6-1.1 2.8-2.5 2.9h-.5l.5-5.6.8-.1Zm-.1.6-.4 4.4c1.2-.1 1.3-1.2 1.3-2.2.1-.9.3-2.4-.9-2.2Z" clip-rule="evenodd"/>
  <path fill="#FEFEFE" d="m43.7 24.964-.1.6-1.2.1-.2 1.8 1.1-.1v.7h-1.2l-.1 2 1.2-.1v.6l-2 .2.5-5.7 2-.1Zm2.4-.2-.4 5 1.2-.1v.7l-2 .1.5-5.6.7-.1Z"/>
  <path fill="#FEFEFE" fill-rule="evenodd" d="m49 24.564.7 5.6H49l-.1-1.1-1.1.1-.3 1.1-.8.1 1.7-5.7.6-.1Zm-.2 3.1-.1-2h-.1l-.7 2.9.9-.1v-.8Zm-35.9 19.8c.9 0 1.9-.1 1.6 2.8-.2 2.6-1.1 2.8-2.4 2.9h-.5l.5-5.6.8-.1Zm-.2.6-.3 4.4c1.2-.1 1.2-1.2 1.3-2.2.1-.9.3-2.4-1-2.2Z" clip-rule="evenodd"/>
  <path fill="#FEFEFE" d="M17.3 47.164v.7H16l-.1 1.8 1.1-.1-.1.7-1.1.1-.1 1.9 1.2-.1-.1.6-1.9.2.4-5.7 2-.1Zm-14.9-3.5.5-7.4 2.2-.1-.5 7.4-2.2.1Zm10.4-8.101-.5 7.4-2 .2-2.2-3.1-.2 3.2-2.2.2.5-7.4 2-.2 2.2 3.1.2-3.2 2.2-.2Zm2.7 1.9-2 .2.1-2.1 6.3-.5-.2 2.1-2 .2-.4 5.3-2.2.1.4-5.3Zm7.3-.499-.1.7 2.9-.2-.1 1.9-2.9.2-.1.6 3.2-.2-.2 2.1-5.3.4.5-7.4 5.3-.4-.1 2.1-3.1.2Zm9.6 0c-.267-.334-.533-.534-.8-.6a3.72 3.72 0 0 0-.9-.1 2.068 2.068 0 0 0-1.2.6c-.333.4-.533.833-.6 1.3 0 .466.133.866.4 1.2.333.333.7.466 1.1.4.333 0 .6-.067.8-.2.2-.134.333-.234.4-.3l.1-.2-1.4.1.1-1.8 3.8-.2-.1 1.5c-.1.8-.5 1.5-.9 1.9a3.135 3.135 0 0 1-.8.6c-.267.2-.5.333-.7.4-.2.066-.433.133-.7.2-.2.066-.367.1-.5.1h-.2c-1.133.066-2.033-.234-2.7-.9-.667-.667-.967-1.534-.9-2.6.067-1.134.5-2.067 1.3-2.8.8-.8 1.733-1.234 2.8-1.3 1.467-.134 2.567.4 3.3 1.6l-1.7 1.1Z"/>
  <path fill="#FEFEFE" fill-rule="evenodd" d="m41.5 40.964-2.7.2-1.4-1.8-.2.1-.1 1.8-2.2.2.5-7.4 3-.3c.1 0 .2 0 .6.1.4 0 .8.1 1.2.4.4.2.7.5.9 1.1.067.333.1.666.1 1-.067 1.066-.533 1.866-1.4 2.4l1.7 2.2Zm-4-5-.1 1.4.8-.1c.4 0 .633-.234.7-.7 0-.5-.2-.7-.6-.7l-.8.1Zm9.7-2.8 2.2 7.2-2.4.2-.2-.7-2.4.1-.3.8-2.3.2 3.2-7.6 2.2-.2Zm-1.9 4.7.9-.1-.3-1.5-.6 1.6Z" clip-rule="evenodd"/>
  <path fill="#FEFEFE" d="M57.5 36.764a5.073 5.073 0 0 1-1.5 2.4 4.17 4.17 0 0 1-2.6 1.1c-1.067.066-1.933-.234-2.6-.9-.733-.734-1.067-1.633-1-2.7.067-1.067.5-2 1.3-2.8.8-.734 1.767-1.167 2.9-1.3.933-.067 1.733.2 2.4.8.666.533 1.067 1.266 1.2 2.2l-2.4.2a1.28 1.28 0 0 0-.5-.8c-.267-.2-.567-.3-.9-.3-.467.066-.833.266-1.1.6-.334.4-.533.833-.6 1.3 0 .466.133.866.4 1.2.267.333.633.466 1.1.4.267 0 .567-.134.9-.4.267-.2.467-.467.6-.8l2.4-.2Zm.6 3 .5-7.4 2.2-.1-.5 7.4-2.2.1Z"/>
  <path fill="#FEFEFE" fill-rule="evenodd" d="M65.7 31.764c1.067-.067 1.966.233 2.7.9.666.733.966 1.633.9 2.7-.067 1.066-.5 2-1.3 2.8a4.33 4.33 0 0 1-2.9 1.3c-1.067.066-1.933-.234-2.6-.9-.667-.734-.967-1.634-.9-2.7.067-1.067.5-2 1.3-2.8.733-.8 1.667-1.234 2.8-1.3Zm-.4 5.6c.466 0 .833-.2 1.1-.6.333-.334.533-.767.6-1.3 0-.467-.133-.867-.4-1.2-.267-.267-.633-.4-1.1-.4-.4.066-.767.266-1.1.6-.334.333-.534.766-.6 1.3 0 .466.133.866.4 1.2.267.333.633.466 1.1.4Zm1.5-6.2-2.2.2 1.1-2.1 2.5-.1-1.4 2Z" clip-rule="evenodd"/>
  <path fill="#FEFEFE" d="m77.1 31.164-.5 7.4-2 .1-2.1-3.1-.3 3.3-2.1.1.5-7.4 2-.1 2.1 3 .2-3.2 2.2-.1Z"/>
  <path fill="#5A50A2" d="m72.3 48.364-53 3.5-.5-4.5 53.3-3.6.2 4.6Z"/>
  <path fill="#FEFEFE" fill-rule="evenodd" d="m25.9 45.464 2.2 7.2-2.4.2-.2-.8-2.4.2-.3.8-2.4.1 3.2-7.6 2.3-.1Zm-1.9 4.7 1-.1-.4-1.5-.6 1.6Z" clip-rule="evenodd"/>
  <path fill="#FEFEFE" d="m32.9 51.464-.5.1-1.3-2.2-.2 3.1-2.2.2.6-7.4 2-.2 1.6 2.7 2-2.9 2.1-.2-.5 7.4-2.2.2.2-3.1-1.6 2.3Zm7.3-4.9-.1.7 2.9-.2-.1 1.9-2.9.2v.6l3.1-.2-.2 2.1-5.3.3.5-7.4 5.4-.3-.2 2-3.1.3Zm1.7-2.8-2.2.2 1.1-2.1 2.5-.2-1.4 2.1Z"/>
  <path fill="#FEFEFE" fill-rule="evenodd" d="m50.5 51.064-2.6.2-1.4-1.7h-.2l-.2 1.8-2.1.2.5-7.4 3-.2h.6c.4.1.7.1 1.1.4.4.2.7.6.9 1.2.067.267.1.6.1 1-.067 1-.533 1.767-1.4 2.3l1.7 2.2Zm-4-5-.1 1.4.9-.1c.4 0 .6-.233.6-.7 0-.4-.2-.7-.5-.6h-.9Z" clip-rule="evenodd"/>
  <path fill="#FEFEFE" d="m51.2 51.064.5-7.4 2.2-.2-.6 7.4-2.1.2Zm11.1-3.9a5.072 5.072 0 0 1-1.5 2.4 4.17 4.17 0 0 1-2.6 1.1c-1.067.133-1.933-.167-2.6-.9-.733-.667-1.067-1.533-1-2.6a4.96 4.96 0 0 1 1.3-2.8 4.33 4.33 0 0 1 2.9-1.3c.933-.067 1.733.166 2.4.7.667.6 1.067 1.366 1.2 2.3l-2.4.1a1.28 1.28 0 0 0-.5-.8 1.081 1.081 0 0 0-.9-.2c-.4 0-.767.167-1.1.5-.333.4-.533.833-.6 1.3 0 .466.133.867.4 1.2.267.333.633.5 1.1.5.267-.067.567-.2.9-.4a2.66 2.66 0 0 0 .6-.9l2.4-.2Z"/>
  <path fill="#FEFEFE" fill-rule="evenodd" d="m67.6 42.564 2.2 7.2-2.4.2-.2-.8-2.4.2-.3.8-2.4.1 3.3-7.6 2.2-.1Zm-2 4.7 1-.1-.4-1.5-.6 1.6Z" clip-rule="evenodd"/>
  <path fill="#5A50A2" d="m58.1 59.063-41.5 3.2-.5-4.5 41.9-3.2.1 4.5Z"/>
  <path fill="#FEFEFE" d="m20.9 55.964-.3 5.4 3.1-.3-.2 2.1-5.3.4.5-7.4 2.2-.2Z"/>
  <path fill="#FEFEFE" fill-rule="evenodd" d="m29.5 55.464 2.2 7.2-2.4.1-.2-.7-2.4.1-.3.8-2.4.2 3.2-7.6 2.3-.1Zm-1.9 4.7 1-.1-.4-1.5-.6 1.6Z" clip-rule="evenodd"/>
  <path fill="#FEFEFE" d="m33.1 57.264-2 .1.2-2.1 6.2-.4-.1 2.1-2.1.1-.3 5.3-2.2.2.3-5.3Zm4.8 4.9.5-7.4 2.2-.1-.6 7.4-2.1.1Zm10.4-8.101-.6 7.4-2 .2-2.1-3.1-.2 3.2-2.2.2.5-7.4 2-.1 2.1 3 .3-3.2 2.2-.2Z"/>
  <path fill="#FEFEFE" fill-rule="evenodd" d="m53.9 53.764 2.2 7.2-2.4.1-.2-.7-2.4.1-.3.8-2.4.2 3.2-7.6 2.3-.1Zm-1.9 4.7 1-.1-.4-1.5-.6 1.6Z" clip-rule="evenodd"/>
</svg>
