<svg xmlns="http://www.w3.org/2000/svg" width="90" height="115" fill="none" viewBox="0 0 90 115">
  <path fill="#46C2DD" d="m77.5 109.35 8.1-73.2L8 28.55l-8 73.6 77.5 7.2Z"/>
  <path fill="#1976A1" d="m81.4 114.75-3.8-5.3-77.6-7.3 3.4 5.3 78 7.3Z"/>
  <path fill="#17B2C9" d="m89.3 42.15-3.8-6-8 73.2 3.9 5.4 7.9-72.6Z"/>
  <path fill="#ED4997" d="M85.8 99.55.9 91.35l.4-4.9 84.9 8.2-.4 4.9Z"/>
  <path fill="#FEFEFE" fill-rule="evenodd" d="M15.1 78.15c1 .1 2 .2 1.2 3.2-.7 2.8-1.6 2.8-3 2.7l-.6-.1 1.5-5.9.9.1Zm-.2.6-1.2 4.6c1.3.2 1.5-1 1.8-2 .2-1 .7-2.5-.6-2.6Z" clip-rule="evenodd"/>
  <path fill="#FEFEFE" d="m17 84.35-.8-.1 1.5-5.9.8.1-1.5 5.9Zm1.2-6.2-.4-.3 1-1.1.4.4-1 1Z"/>
  <path fill="#FEFEFE" fill-rule="evenodd" d="m20.8 78.65-.2 6.1-.8-.1v-1.2l-1.2-.1-.5 1.1-.8-.1 2.9-5.8.6.1Zm-.9 3.3.3-2.1h-.1l-1.2 2.9.9.1.1-.9Zm4.9-2.9c.9.1 1.9.2 1.2 3.2-.7 2.8-1.7 2.8-3.1 2.7l-.6-.1 1.6-5.9.9.1Zm-.3.7-1.2 4.5c1.3.2 1.6-1 1.8-2 .3-.9.8-2.5-.6-2.5Z" clip-rule="evenodd"/>
  <path fill="#FEFEFE" d="m29.5 79.45-.1.7-1.4-.1-.5 1.9 1.2.1-.1.7-1.3-.2-.5 2.1 1.4.1-.2.7-2.1-.2 1.5-6 2.1.2Zm2.7.3-1.4 5.2 1.4.2-.2.6-2.1-.2 1.5-5.9.8.1Z"/>
  <path fill="#FEFEFE" fill-rule="evenodd" d="m35.3 80.05-.2 6h-.8v-1.2l-1.1-.1-.6 1.1-.7-.1 2.8-5.8.6.1Zm-.9 3.3.3-2.2-1.3 3 1 .1v-.9Z" clip-rule="evenodd"/>
  <path fill="#FEFEFE" d="m1.8 92.35 1.8-7.2 2.1.2-1.7 7.2-2.2-.2Zm11.2-6.3-1.8 7.2-2-.2-1.6-3.4-.7 3.2-2.2-.2 1.7-7.3 2 .2 1.6 3.4.8-3.2 2.2.3Z"/>
  <path fill="#FEFEFE" fill-rule="evenodd" d="m11.9 93.35 1.7-7.3 3 .3c1.067.133 1.866.567 2.4 1.3.466.733.6 1.633.4 2.7-.267 1.067-.833 1.9-1.7 2.5-.8.6-1.767.867-2.9.8l-2.9-.3Zm3.5-5-.8 3.1.8.1c.4.067.766-.066 1.1-.4.333-.267.533-.633.6-1.1.133-.4.1-.767-.1-1.1-.134-.333-.433-.533-.9-.6h-.7Z" clip-rule="evenodd"/>
  <path fill="#FEFEFE" d="m22.4 88.95-.2.7 2.9.3-.5 1.9-2.8-.3-.2.6 3.1.3-.4 2.1-5.4-.6 1.8-7.2 5.3.5-.5 2-3.1-.3Z"/>
  <path fill="#FEFEFE" fill-rule="evenodd" d="m26.5 87.25 3 .3c.1 0 .2 0 .6.2.4.1.7.2 1.1.5.4.3.6.7.7 1.3 0 .333-.034.667-.1 1-.2.8-.6 1.4-1 1.7-.2.133-.434.267-.7.4-.7.4-1.4.4-1.7.4h-.2l-.8-.1-.4 1.8-2.2-.2 1.7-7.3Zm2.5 2.3h-.8l-.3 1.3.8.1c.4.067.666-.133.8-.6.1-.5-.1-.7-.5-.8Z" clip-rule="evenodd"/>
  <path fill="#FEFEFE" d="m34.3 90.15-.1.7 2.9.2-.5 1.9-2.9-.3-.1.7 3.1.2-.5 2.1-5.3-.5 1.7-7.3 5.4.5-.5 2.1-3.2-.3Zm10.7-1.1-1.7 7.3-2-.2-1.6-3.4-.8 3.2-2.2-.3 1.8-7.2 2 .2 1.6 3.4.7-3.2 2.2.2Z"/>
  <path fill="#FEFEFE" fill-rule="evenodd" d="m44 96.35 1.7-7.2 2.9.2c1.133.133 1.933.567 2.4 1.3.533.8.667 1.7.4 2.7-.2 1.067-.733 1.9-1.6 2.5-.867.667-1.833.934-2.9.8l-2.9-.3Zm3.4-5-.7 3.2h.7c.467.067.833-.033 1.1-.3.333-.267.566-.633.7-1.1.133-.467.1-.867-.1-1.2-.2-.333-.5-.5-.9-.5l-.8-.1Z" clip-rule="evenodd"/>
  <path fill="#FEFEFE" d="m54.4 92.05-.1.7 2.9.3-.5 1.8-2.9-.3-.1.7 3.1.3-.5 2-5.3-.5 1.7-7.3 5.4.5-.5 2.1-3.2-.3Zm10.7-1.1-1.7 7.3-2-.2-1.6-3.4-.8 3.2-2.2-.2 1.8-7.3 2 .2 1.6 3.4.7-3.2 2.2.2Zm7.3 5a4.698 4.698 0 0 1-1.9 2.2c-.867.533-1.767.733-2.7.6-1.133-.067-1.967-.5-2.5-1.3-.6-.8-.767-1.733-.5-2.8a4.597 4.597 0 0 1 1.7-2.6 5.043 5.043 0 0 1 3.1-.8c.933.133 1.7.5 2.3 1.1.533.667.8 1.5.8 2.5l-2.4-.3c-.067-.333-.2-.6-.4-.8a.95.95 0 0 0-.8-.4 1.81 1.81 0 0 0-1.3.3 2.726 2.726 0 0 0-.7 1.2c-.133.467-.067.9.2 1.3.2.334.533.533 1 .6.267 0 .566-.067.9-.2.333-.2.6-.467.8-.8l2.4.2Zm-.4 3.1 1.7-7.3 2.2.2-1.7 7.3-2.2-.2Z"/>
  <path fill="#FEFEFE" fill-rule="evenodd" d="m81 92.45 1 7.5-2.4-.2-.1-.8-2.3-.2-.5.7-2.4-.2 4.5-7 2.2.2Zm-2.7 4.3 1 .1-.1-1.5-.9 1.4Z" clip-rule="evenodd"/>
  <path fill="#EDEDED" d="M46.1 45.45c.2 0 .4-.2.5-.4l-.7-.1v.4l.2.1Z"/>
  <path fill="#EDEDED" d="M46.3 45.05c-.1.2-.3.3-.5.3s-.4-.2-.3-.4m.8.7-.9-.1-.1 1.4.8.1.2-1.4Zm.3.2h-.3l-.1.8h.3l.1-.8Z"/>
  <path fill="#EDEDED" d="m46.3 45.85-1.1-.2.1-.2 1 .1v.3Zm.3 0h-.3v-.2l.3.1v.1Z"/>
  <path fill="#EDEDED" d="m46.3 45.65-1-.1v-.1l1 .1v.1Zm.3.1-.3-.1v-.1h.3v.2Zm-.3-.6-.9-.1v-.3l.9.1v.3Zm.3 0h-.3v-.3l.3.1v.2Z"/>
  <path fill="#EDEDED" d="m46.3 44.95-.9-.1v-.1l.9.1v.1Zm.3.1-.3-.1v-.1l.3.1v.1Zm-.4.4-.7-.1v.1l.7.1v-.1Z"/>
  <path fill="#EDEDED" d="M46.4 45.45h-.2v.1h.2v-.1Zm-.4-1.3.5.8-.7-.1.2-.7Z"/>
  <path fill="#EDEDED" d="m46.2 44.85-.2-.7-.4.6.6.1Z"/>
  <path fill="#EDEDED" d="M46.2 44.05c0 .1-.1.2-.2.1 0 0-.1 0-.1-.1s.1-.1.2-.1l.1.1Z"/>
  <path fill="#EDEDED" d="M46.1 43.95v.1c0 .1-.1.1-.1.1s.2.1.2-.1c0-.1-.1-.1-.1-.1Z"/>
  <path fill="#CCC" d="M45.8 46.45c-.1 1.2-1.8 2.1-3.8 1.9-1.9-.2-3.4-1.4-3.3-2.7.2-1.2 1.9-2.1 3.8-1.9 2 .2 3.5 1.4 3.3 2.7Z"/>
  <path fill="#EDEDED" d="M44.1 46.25c-.1 1.3-1.4 2.1-2.9 2-1.5-.2-2.6-1.3-2.5-2.6.2-1.2 1.5-2.1 3-2 2.3.2 2.6 1.4 2.4 2.6Z"/>
  <path fill="#EDEDED" d="M44.1 46.25c-.1 1.3-1.2 2.2-2.5 2-1.2-.1-2.1-1.2-2-2.5.1-1.2 1.3-2.1 2.5-2 1.9.1 2.2 1.3 2 2.5Z"/>
  <path fill="#EDEDED" d="m46.4 46.35-8.4-.9-1.3 11.9 8.4 1 1.3-12Z"/>
  <path fill="#E0E0E0" d="M38.8 44.35c.2 0 .4-.1.4-.3l-.6-.1-.1.4h.3Z"/>
  <path fill="#FEFEFE" d="M38.9 43.95c0 .3-.2.4-.4.4s-.4-.2-.4-.4m.8.6-.8-.1-.2 1.5.9.1.1-1.5Z"/>
  <path fill="#E3E3E3" d="M39.2 44.75h-.3l-.1.8.3.1.1-.9Z"/>
  <path fill="#FEFEFE" d="m39 44.75-1.1-.1v-.2l1.1.1v.2Zm.2 0H39v-.1h.3l-.1.1Z"/>
  <path fill="#E0E0E0" d="m39 44.65-1.1-.1v-.1l1.1.1v.1Zm.3 0H39v-.1h.3v.1Z"/>
  <path fill="#FEFEFE" d="m39 44.05-.9-.1v-.2l.9.1v.2Z"/>
  <path fill="#E0E0E0" d="m39 43.95-.9-.1v-.1l.9.1v.1Z"/>
  <path fill="#BDBDBD" d="M39.2 43.95H39v-.1h.3l-.1.1Z"/>
  <path fill="#FEFEFE" d="m38.9 44.35-.7-.1-.1.2.7.1.1-.2Z"/>
  <path fill="#E0E0E0" d="M39.1 44.35h-.2l-.1.2h.3v-.2Zm-.4-1.2.4.7-.6-.1.2-.6Z"/>
  <path fill="#FEFEFE" d="m38.9 43.85-.2-.7-.4.6.6.1Zm0-.8c-.1.1-.1.1-.2.1s-.1-.1-.1-.1c0-.1.1-.2.1-.2.1 0 .2.1.2.2Z"/>
  <path fill="#E0E0E0" d="M38.7 42.85s.1.1.1.2-.1.1-.1.1.1 0 .2-.1c0-.1-.2-.2-.2-.2Zm5.1 2.1c.2 0 .4-.2.4-.4l-.6-.1-.1.4.3.1Z"/>
  <path fill="#FEFEFE" d="M43.9 44.55c0 .2-.2.3-.4.3s-.4-.2-.4-.4m.8.7-.8-.1-.2 1.4.9.1.1-1.4Z"/>
  <path fill="#E3E3E3" d="M44.2 45.35h-.3l-.1.8h.3l.1-.8Z"/>
  <path fill="#FEFEFE" d="m44 45.35-1.1-.2v-.2l1.1.1v.3Zm.2 0H44v-.2l.3.1-.1.1Z"/>
  <path fill="#E0E0E0" d="m44 45.15-1.1-.1v-.1l1.1.1v.1Zm.3.1-.3-.1v-.1h.3v.2Z"/>
  <path fill="#FEFEFE" d="m44 44.65-.9-.1v-.3l.9.1v.3Z"/>
  <path fill="#E0E0E0" d="m44 44.45-.9-.1v-.1l.9.1v.1Z"/>
  <path fill="#BDBDBD" d="m44.2 44.55-.2-.1v-.1l.3.1-.1.1Z"/>
  <path fill="#FEFEFE" d="m43.9 44.95-.7-.1-.1.1.7.1.1-.1Z"/>
  <path fill="#E0E0E0" d="M44.1 44.95h-.2l-.1.1h.3v-.1Zm-.4-1.3.4.8-.6-.1.2-.7Z"/>
  <path fill="#FEFEFE" d="m43.9 44.35-.2-.7-.4.6.6.1Z"/>
  <path fill="#FEFEFE" d="M43.9 43.55c-.1.1-.1.2-.2.1-.1 0-.1 0-.1-.1s.1-.1.1-.1c.1 0 .2.1.2.1Z"/>
  <path fill="#E0E0E0" d="M43.7 43.45s.1 0 .1.1-.1.1-.1.1.1.1.2-.1c0-.1-.2-.1-.2-.1Zm-1.3-.9.4 1.3-.6-.1.2-1.2Z"/>
  <path fill="#FEFEFE" d="m42.6 43.75-.2-1.2-.5 1.2h.7Z"/>
  <path fill="#FEFEFE" d="M42.6 42.45c0 .1-.1.2-.2.2 0-.1-.1-.1-.1-.2s.1-.1.2-.1l.1.1Z"/>
  <path fill="#E0E0E0" d="M42.5 42.35v.1c0 .1-.1.2-.1.2s.2 0 .2-.2c0-.1-.1-.1-.1-.1Z"/>
  <path fill="#FEFEFE" d="m43.2 51.95-5.8-.6-.5 5.2 5.7.6.6-5.2Z"/>
  <path fill="#FEFEFE" d="m43.8 46.05-5.7-.6-.7 5.9 5.8.7.6-6Z"/>
  <path fill="#FCFAEC" d="m37.5 55.55-.6-.1 1.2-10.7.6.1-1.2 10.7Z"/>
  <path fill="#E0E0E0" d="m43.4 50.95-6.1-.6v-.2l6.1.7v.1Z"/>
  <path fill="#C7C7C7" d="m46 51.25-2.6-.3v-.1l2.6.3v.1Z"/>
  <path fill="#FEFEFE" d="m43.4 51.25-6.2-.7.1-.2 6.1.6v.3Z"/>
  <path fill="#E6E6E6" d="m46 51.55-2.6-.3v-.3l2.6.3v.3Z"/>
  <path fill="#C7C7C7" d="m46.5 46.45-2.6-.3v-.2l2.6.3v.2Z"/>
  <path fill="#E6E6E6" d="m46.5 46.65-2.6-.3v-.2l2.6.2v.3Z"/>
  <path fill="#E0E0E0" d="m43.9 46.15-6.1-.7v-.1l6.1.6v.2Z"/>
  <path fill="#FEFEFE" d="m43.9 46.35-6.1-.7v-.2l6.1.6v.3Z"/>
  <path fill="#6A5D60" d="M40.8 46.45c-.5-.1-.9.2-.9.7l-.3 2.6 1.7.2.3-2.6c.1-.5-.3-.9-.8-.9Z"/>
  <path fill="#CCC" d="M45 46.95c-.3 0-.6.2-.6.5l-.4 2.8 1.3.2.3-2.9c0-.3-.2-.6-.6-.6Z"/>
  <path fill="#050505" d="M42.6 41.75h-.1v.6l.1-.6Zm0 0h-.1v-.1c.067 0 .1.033.1.1Z"/>
  <path fill="#050505" d="m42.3 41.85.5.2-.5-.1v-.1Z"/>
  <path stroke="#CCCCCB" stroke-width=".4" d="M41.2 52.25c-.1.6-.6 1-1.1.9-.6 0-1-.5-.9-1.1 0-.5.5-.9 1.1-.9.5.1.9.6.9 1.1Z"/>
  <path fill="#FEFEFE" stroke="#221E1F" stroke-width=".4" d="M41.1 52.25c-.1.6-.6 1-1.1.9-.6-.1-1-.6-.9-1.1.1-.6.6-1 1.1-.9.6.1 1 .6.9 1.1Z"/>
  <path stroke="#221E1F" stroke-width=".4" d="M40.7 52.25c-.1.3-.3.5-.7.5-.3-.1-.5-.4-.5-.7.1-.3.4-.5.7-.5.3.1.5.3.5.7Zm-.5-.7v-.4m-.2 1.6v.4m-.5-1.1h-.4m1.6.2h.4m-1.3.4-.3.3m.9-1.3.3-.3m-1.1 1-.4.2m1.4-.6.4-.2m-.4.7.3.3m-1.3-.9-.3-.3m1 1.1.2.4m-.6-1.4-.2-.4"/>
  <path fill="#221E1F" d="M40.2 52.15c0 .067-.034.1-.1.1l-.1-.1c0-.066.033-.1.1-.1.066 0 .1.034.1.1Z"/>
  <path fill="#F2F2F2" d="m23.1 73.05-18.8-2 1.1-10.2 18.8 2-1.1 10.2Z"/>
  <path fill="#FEFEFE" d="m5.7 54.25 18.3 2-.6 6-18.4-2 .7-6Z"/>
  <path fill="#969696" d="M14.8 56.65h-.7.2c-.7.1-.9.9-.9 1 0 .2-.4 3.4-.4 3.4h-.3l3.3.4.4-3.5c0-.8-.7-1.2-1.6-1.3Z"/>
  <path fill="#E0E0E0" d="M13.4 57.65c0-.1.2-.9.9-1h-.2c-.6.1-1 .4-1 1l-.4 3.4h.3s.4-3.2.4-3.4Z"/>
  <path fill="#969696" d="M20.8 57.35c-.267-.067-.5-.067-.7 0h.1c-.7.1-.9.8-.9 1 0 .1-.3 3.4-.3 3.4l-.4-.1 3.3.4.4-3.4c.1-.9-.6-1.2-1.5-1.3Z"/>
  <path fill="#E0E0E0" d="M19.3 58.35c0-.2.2-.9.9-1h-.1c-.6.1-1 .4-1.1.9l-.4 3.4.4.1s.3-3.3.3-3.4Z"/>
  <path fill="#969696" d="M9.3 56.05h-.7.1c-.7.1-.8.9-.8 1-.1.2-.4 3.4-.4 3.4h-.3l3.2.4.4-3.5c.1-.8-.6-1.2-1.5-1.3Z"/>
  <path fill="#E0E0E0" d="M7.9 57.05c0-.1.1-.9.8-1h-.1c-.6.1-1 .4-1.1 1l-.3 3.4h.3s.3-3.2.4-3.4Z"/>
  <path fill="#DE4926" d="M5.3 54.55c-.067.067-.033.1.1.1l19.2 2.1c.1 0 .1-.1.2-.2v-.7c0-.1 0-.2-.1-.2l-18.5-2s-.1.1-.2.1l-.7.8Zm.7-.8-.7.8Z"/>
  <path stroke="#DC8927" stroke-width=".4" d="m6.3 53.75-.7.7m.9-.7-.6.8m.9-.7-.6.7m.9-.7-.7.7m1-.7-.7.8m1-.7-.7.7m.9-.7-.6.7m.9-.7-.6.8m.9-.8-.7.8m1-.7-.7.7m1-.7-.7.8m.9-.8-.6.8m.9-.7-.6.7m.9-.7-.7.7m1-.7-.7.8m1-.7-.7.7m.9-.7-.6.7m.9-.7-.7.8m1-.7-.7.7m1-.7-.7.7m1-.7-.7.8m.9-.8-.6.8m.9-.7-.7.7m1-.7-.7.7m1-.7-.7.8m1-.7-.7.7m.9-.7-.6.7m.9-.7-.7.8m1-.7-.7.7m1-.7-.7.7m1-.7-.7.8m.9-.8-.6.8m.9-.7-.7.7m1-.7-.7.8m1-.8-.7.8m.9-.7-.6.7m.9-.7-.6.7m1.3-.6-.7.7m1-.7-.7.7m1-.7-.7.8m.9-.7-.6.7m.9-.7-.6.7m.9-.7-.6.8m.9-.7-.7.7m1-.7-.7.7m1-.7-.7.8m1-.7-.7.7m1-.7-.7.7m1-.7-.7.8m1-.8-.7.8m.9-.7-.6.7m.9-.7-.6.8m.9-.8-.6.8m.9-.7-.7.7m1-.7-.7.7m1-.7-.7.8m1-.7-.7.7m1-.7-.7.7m1-.7-.7.8m.9-.7-.6.7m.9-.7-.6.7m.9-.7-.6.8m.9-.7-.6.7m-7-1.6-.4.5"/>
  <path fill="#FCFAEC" d="M5.5 60.25H5l.6-5.5 1.4.1-1.5 5.4Z"/>
  <path fill="#E0E0E0" d="m5.7 54.75-.2 1.4 18.3 1.9.1-1.4-18.2-1.9Z" style="mix-blend-mode:multiply"/>
  <path fill="#8A8A8A" d="m4.8 58.35 11.3 1.3Zm0 .1c-.067 0-.1-.033-.1-.1h.1l11.3 1.2v.1l-11.3-1.2Zm.5.1-.1 1.6Z"/>
  <path fill="#8A8A8A" d="m5.1 60.15.2-1.6v-.1c.067 0 .1.033.1.1l-.2 1.6h-.1Zm.8-1.6-.2 1.6Zm-.2 1.6.1-1.6h.1l-.1 1.6-.1.1v-.1Zm.7-1.5-.1 1.6Zm-.2 1.6.2-1.6c0-.066.033-.1.1-.1v.1l-.2 1.6h-.1Zm.8-1.6-.2 1.7Zm-.2 1.7.2-1.7c.066 0 .066.033 0 .1l-.1 1.6h-.1Zm.8-1.6-.2 1.6Zm-.2 1.6.1-1.6h.1l-.2 1.6v.1c-.067 0-.067-.033 0-.1Zm.7-1.5-.1 1.6Zm-.2 1.6.2-1.6v-.1c.067 0 .1.033.1.1l-.2 1.6h-.1Zm.8-1.6-.2 1.6Zm-.2 1.6.1-1.6h.1l-.1 1.7h-.1v-.1Zm.7-1.5-.1 1.6Zm-.2 1.6.2-1.6h.1l-.2 1.6H9Zm.8-1.5-.2 1.6Zm-.2 1.6.2-1.7v.1l-.1 1.6h-.1Zm.8-1.6-.2 1.6Zm-.3 1.6.2-1.6h.1l-.2 1.6v.1c-.067 0-.1-.033-.1-.1Zm.8-1.5-.2 1.6Zm-.2 1.6.2-1.6v-.1c.067 0 .1.034.1.1l-.2 1.6h-.1Zm.8-1.6-.2 1.7Zm-.2 1.6.1-1.6h.1l-.2 1.7v-.1Zm.7-1.5-.1 1.6Zm-.2 1.6.2-1.6h.1l-.2 1.6v.1l-.1-.1Zm.8-1.5-.2 1.6Zm-.2 1.6.2-1.6-.1 1.6h-.1Zm.8-1.6-.2 1.6Zm-.3 1.6.2-1.6h.1l-.2 1.6v.1c-.067 0-.1-.033-.1-.1Zm.8-1.5-.2 1.6Zm-.2 1.6.2-1.6v-.1c.067 0 .1.033.1.1l-.2 1.6h-.1Zm.8-1.6-.2 1.7Zm-.2 1.7.1-1.7h.1l-.2 1.7Zm.7-1.6-.1 1.6Zm-.2 1.6.2-1.6h.1l-.2 1.6v.1l-.1-.1Zm.8-1.5-.2 1.6Zm-.2 1.6.2-1.6-.1 1.6h-.1Zm.8-1.6-.2 1.6Zm-.3 1.6.2-1.6h.1l-.2 1.6v.1c-.067 0-.1-.033-.1-.1Zm-3.7-2.1 11.3 1.3Z"/>
  <path fill="#8A8A8A" d="M12 59.25v-.1l11.3 1.2c.067 0 .1.033.1.1h-.1L12 59.25Zm.6.1-.2 1.6Z"/>
  <path fill="#8A8A8A" d="m12.3 60.95.2-1.7h.1v.1l-.2 1.6h-.1Zm.8-1.6-.2 1.6Zm-.2 1.6.2-1.6h.1l-.2 1.6c0 .067-.033.1-.1.1v-.1Zm.8-1.5-.2 1.6Zm-.2 1.6.1-1.6.1-.1v.1l-.1 1.6h-.1Zm.7-1.6-.1 1.7Zm-.2 1.6.2-1.6h.1l-.2 1.7c-.067 0-.1-.033-.1-.1Zm.8-1.5-.2 1.6Zm-.2 1.6.2-1.6-.1 1.6c0 .067-.033.1-.1.1v-.1Zm.8-1.5-.2 1.6Zm-.3 1.6.2-1.6c0-.066.033-.1.1-.1v.1l-.2 1.6h-.1Zm.8-1.6-.2 1.6Zm-.2 1.6.2-1.6h.1l-.2 1.6c0 .067-.033.1-.1.1v-.1Zm.8-1.5-.2 1.6Zm-.2 1.6.1-1.6c0-.067.033-.1.1-.1v.1l-.2 1.6Zm.7-1.6-.1 1.7Zm-.2 1.7.2-1.7h.1l-.2 1.7h-.1Zm.8-1.6-.2 1.6Zm-.2 1.6.2-1.6-.1 1.6c0 .067-.033.1-.1.1v-.1Zm.8-1.5-.2 1.6Zm-.3 1.6.2-1.6c0-.067.033-.1.1-.1v.1l-.2 1.6h-.1Zm.8-1.6-.2 1.6Zm-.2 1.6.2-1.6h.1l-.2 1.6c0 .067-.033.1-.1.1v-.1Zm.8-1.5-.2 1.6Zm-.2 1.6.1-1.6c0-.067.033-.1.1-.1v.1l-.2 1.6Zm.7-1.6-.1 1.7Zm-.2 1.7.2-1.7h.1l-.2 1.7h-.1Zm.8-1.6-.2 1.6Zm-.2 1.6.2-1.6-.1 1.6c0 .067-.033.1-.1.1v-.1Zm.8-1.5-.2 1.6Zm-.3 1.6.2-1.6c0-.067.033-.1.1-.1v.1l-.2 1.6h-.1Zm.8-1.6-.2 1.6Zm-.2 1.6.2-1.6h.1l-.2 1.6c0 .067-.033.1-.1.1v-.1Zm.8-1.5-.2 1.6Zm-.2 1.6.1-1.6c0-.067.033-.1.1-.1v.1l-.2 1.6Zm.7-1.6-.1 1.7Zm-.2 1.7.2-1.7c.067 0 .1.033.1.1l-.2 1.6h-.1Zm.8-1.6-.2 1.6Zm-.2 1.6.2-1.6-.1 1.6-.1.1v-.1Z"/>
  <path fill="#FEFEFE" d="m23.2 62.95-18.1-2 .1-.7 18.1 1.9-.1.8Z"/>
  <path fill="#D4D4D4" d="M20.7 66.05c-.8 0-1.5.3-1.6.9l-.3 2.9 3 .3.3-2.9c.1-.6-.5-1.1-1.4-1.2Z"/>
  <path fill="#FEFEFE" d="M20.4 66.05c-.8-.1-1.5.3-1.6.8l-.3 2.9 3 .4.3-3c.1-.5-.5-1-1.4-1.1Z"/>
  <path fill="#E0E0E0" d="m22.4 72.25-4.8-.6.2-1.8 4.8.5-.2 1.9Z"/>
  <path fill="#FEFEFE" d="m22.2 72.15-4.8-.5.2-2 4.8.6-.2 1.9Z"/>
  <path fill="#6A5D60" d="M20.3 66.45c-.7 0-1.3.3-1.3.7l-.3 2.6 2.5.3.3-2.6c0-.5-.5-.9-1.2-1Z"/>
  <path fill="#969696" d="M20.3 66.75c-.6-.1-1.1.1-1.2.5l-.2 2.3 2.2.2.2-2.2c.1-.4-.4-.8-1-.8Z"/>
  <path fill="#6A5D60" d="M20 69.85h-.1l.4-3.3h.1l-.4 3.3Z"/>
  <path fill="#6A5D60" d="m21.3 67.85-2.3-.2v-.1l2.4.3h-.1Zm-.1 1-2.3-.2v-.1l2.3.3Z"/>
  <path fill="#D4D4D4" d="M14.7 65.45c-.8-.1-1.6.3-1.6.8l-.4 2.9 3.1.3.3-2.9c.1-.5-.6-1-1.4-1.1Z"/>
  <path fill="#FEFEFE" d="M14.4 65.45c-.9-.1-1.6.2-1.6.8l-.4 2.9 3.1.3.3-2.9c.1-.5-.6-1.1-1.4-1.1Z"/>
  <path fill="#E0E0E0" d="m16.4 71.55-4.8-.5.2-1.9 4.8.5-.2 1.9Z"/>
  <path fill="#FEFEFE" d="m16.1 71.55-4.8-.5.2-2 4.9.5-.3 2Z"/>
  <path fill="#6A5D60" d="M14.3 65.85c-.7-.1-1.3.2-1.3.6l-.3 2.6 2.5.3.2-2.6c.1-.4-.4-.8-1.1-.9Z"/>
  <path fill="#969696" d="M14.3 66.05c-.6-.1-1.2.2-1.2.6l-.3 2.3 2.2.2.3-2.3c0-.4-.4-.7-1-.8Z"/>
  <path fill="#6A5D60" d="M14 69.15h-.1l.3-3.2h.1l-.3 3.2Z"/>
  <path fill="#6A5D60" d="m15.3 67.25-2.3-.3v-.1l2.3.3v.1Zm-.1 1-2.3-.3v-.1l2.3.3v.1Z"/>
  <path fill="#E3E3E3" d="M18 69.25s.3-2.9.3-3.4c.2-.8.8-1.8 2.6-1.6 1.9.2-3.3-.3-3.3-.3l-.7 5.3H18Z"/>
  <path fill="#D1D1D1" d="M17.6 72.75h-.5l.3-3.5h.6l-.4 3.5Z"/>
  <path fill="#D4D4D4" d="M8.6 64.75c-.9-.1-1.6.3-1.7.8l-.3 2.9 3.1.4.3-2.9c0-.6-.6-1.1-1.4-1.2Z"/>
  <path fill="#FEFEFE" d="M8.3 64.75c-.9-.1-1.6.3-1.7.8l-.3 2.9 3.1.3.3-2.9c0-.5-.6-1-1.4-1.1Z"/>
  <path fill="#E0E0E0" d="m10.2 70.85-4.7-.5.2-1.9 4.7.6-.2 1.8Z"/>
  <path fill="#FEFEFE" d="m10 70.85-4.8-.5.2-2 4.8.5-.2 2Z"/>
  <path fill="#6A5D60" d="M8.2 65.15c-.7-.1-1.3.2-1.4.7l-.2 2.6 2.4.3.3-2.6c.1-.5-.4-.9-1.1-1Z"/>
  <path fill="#969696" d="M8.1 65.35c-.6 0-1.1.2-1.1.6l-.3 2.3 2.2.2.3-2.3c0-.3-.5-.7-1.1-.8Z"/>
  <path fill="#6A5D60" d="M7.8 68.55v-.1l.3-3.2h.1l-.4 3.3Z"/>
  <path fill="#6A5D60" d="m9.2 66.55-2.3-.3 2.3.2v.1Zm-.1 1-2.3-.3 2.3.2v.1Z"/>
  <path fill="#E3E3E3" d="M11.8 68.55s.3-2.9.4-3.4c.1-.8.7-1.8 2.6-1.5 1.8.2-3.4-.4-3.4-.4l-.6 5.3h1Z"/>
  <path fill="#D1D1D1" d="m11.5 72.15-.6-.1.4-3.5h.6l-.4 3.6Z"/>
  <path fill="#E3E3E3" d="M5.8 67.95s.3-3 .4-3.5c.1-.7.7-1.7 2.6-1.5 1.8.2-3.4-.4-3.4-.4l-.6 5.4h1Z"/>
  <path fill="#D1D1D1" d="M5.5 71.45h-.6l.4-3.6.6.1-.4 3.5Z"/>
  <path fill="#FEFEFE" fill-rule="evenodd" d="m23.6 69.95.4-3.2c.1-1.4.2-1.9.2-2.1l.2-1.8-19.3-2.1-.8 7h-.1l-.3 3.5 1.2.2.4-3.6h-.2l.4-3.2c.1-.7.4-1.2.9-1.5.5-.2 1.1-.3 1.5-.3l.5.1c.5.1 1.3.3 1.7.9.3.4.4.8.3 1.4l-.3 3.2h-.1l-.4 3.5 1.2.1.4-3.5h-.1l.3-3.2c.1-.8.5-1.2 1-1.5.5-.3 1.1-.3 1.5-.3l.8.1c.5.1 1.1.4 1.5.9.3.4.4.8.4 1.4l-.4 3.2h-.1l-.4 3.4 1.2.2.4-3.5h-.1l.4-3.2c0-.8.4-1.2.9-1.5.6-.4 1.4-.3 1.7-.3.5 0 1.5.2 2 1 .2.3.4.8.3 1.3l-.3 3.2h-.1l-.4 3.5 1.3.1.4-3.4Z" clip-rule="evenodd"/>
  <path fill="#FEFEFE" d="m22.4 63.05-17.3-1.9.1-.9 17.3 1.9-.1.9Z"/>
  <path fill="#969696" d="m5.3 61.15-.1-.1.1-.7h.1l-.1.8Zm1.7.1h-.2l.1-.7H7v.7Zm1.6.2h-.2l.1-.7h.2l-.1.7Zm1.6.2h-.1l.1-.8.1.1-.1.7Zm1.6.2-.1-.1.1-.7h.1l-.1.8Zm1.7.1h-.2l.1-.7h.1v.7Zm1.6.2h-.2l.1-.7h.2l-.1.7Zm1.6.2h-.1l.1-.8.1.1-.1.7Zm1.6.2h-.1l.1-.8h.1l-.1.8Zm1.7.1h-.2l.1-.7h.1v.7Zm1.6.2h-.2l.1-.7h.2l-.1.7Z"/>
  <path fill="#6E6E6E" d="m22.9 62.25-18-1.9v-.2l18 2v.1Z"/>
  <path fill="#E0E0E0" d="m4.9 60.35 18.4 1.9-.1 1.1-18-2 .1-.7-.4-.1v-.2Z" style="mix-blend-mode:multiply"/>
  <path fill="#F2F2F2" d="m53.1 76.35 17.9 1.9 1.1-10.2-17.9-1.9-1.1 10.2Z"/>
  <path fill="#D4D4D4" d="M57 70.05c-.8-.1-1.6.3-1.6.8l-.4 2.9 3.1.3.3-2.9c.1-.5-.6-1-1.4-1.1Z"/>
  <path fill="#FEFEFE" d="M56.7 70.05c-.8-.1-1.6.2-1.6.8l-.4 2.9 3.1.3.3-2.9c.1-.5-.6-1.1-1.4-1.1Z"/>
  <path fill="#E0E0E0" d="m58.7 76.15-4.8-.5.2-1.9 4.8.5-.2 1.9Z"/>
  <path fill="#FEFEFE" d="m58.5 76.15-4.9-.5.3-2 4.8.5-.2 2Z"/>
  <path fill="#6A5D60" d="M56.6 70.45c-.7-.1-1.3.2-1.3.6l-.3 2.6 2.5.3.3-2.6c0-.4-.5-.8-1.2-.9Z"/>
  <path fill="#969696" d="M56.6 70.65c-.6-.1-1.1.2-1.2.6l-.2 2.3 2.1.2.3-2.3c0-.4-.4-.7-1-.8Z"/>
  <path fill="#6A5D60" d="M56.3 73.75h-.1l.4-3.2-.3 3.2Z"/>
  <path fill="#6A5D60" d="m57.6 71.85-2.3-.3v-.1l2.3.3v.1Zm-.1 1-2.3-.3v-.1l2.3.3v.1Z"/>
  <path fill="#FEFEFE" d="m73.2 61.55-18.3-2-.6 6.1 18.3 2 .6-6.1Z"/>
  <path fill="#969696" d="M63.8 62.05c-.267-.067-.5-.067-.7 0h.1c-.7.1-.8.8-.9.9 0 .2-.3 3.5-.3 3.5l-.3-.1 3.2.4.4-3.4c.1-.9-.6-1.3-1.5-1.3Z"/>
  <path fill="#E0E0E0" d="M62.3 62.95c.1-.1.2-.8.9-.9h-.1c-.6.1-1 .4-1.1.9l-.3 3.4.3.1s.3-3.3.3-3.5Z"/>
  <path fill="#969696" d="M57.9 61.35h-.8.2c-.7.1-.9.8-.9 1 0 .2-.4 3.4-.4 3.4h-.3l3.3.3.4-3.4c.1-.8-.6-1.2-1.5-1.3Z"/>
  <path fill="#E0E0E0" d="M56.4 62.35c0-.2.2-.9.9-1h-.2c-.5.1-1 .4-1 1l-.4 3.4h.3s.4-3.2.4-3.4Z"/>
  <path fill="#969696" d="M69.3 62.65c-.267-.067-.5-.067-.7 0h.1c-.6.1-.8.8-.8.9 0 .2-.4 3.5-.4 3.5l-.3-.1 3.3.4.3-3.4c.1-.9-.6-1.2-1.5-1.3Z"/>
  <path fill="#E0E0E0" d="M67.9 63.55c0-.1.2-.8.8-.9h-.1c-.6.1-1 .4-1 .9l-.4 3.4.3.1s.4-3.3.4-3.5Z"/>
  <path fill="#E0E0E0" d="M73.1 62.05v1.4l-18.3-2 .1-1.4 18.2 2Z" style="mix-blend-mode:multiply"/>
  <path fill="#8A8A8A" d="m72.8 65.85-10.9-1.2Zm0 .1v-.1l-10.9-1.2v.1l10.9 1.2Zm-.1 0-.2 1.6Z"/>
  <path fill="#8A8A8A" d="m72.6 67.55.1-1.6v-.1l-.1.1-.1 1.6h.1Zm-.5-1.7-.1 1.6Zm-.1 1.6.2-1.6h-.1l-.2 1.6v.1c.067 0 .1-.033.1-.1Zm-.4-1.6-.2 1.6Zm-.2 1.6.2-1.6v-.1c-.067 0-.1.033-.1.1l-.2 1.6h.1Zm-.4-1.7-.2 1.6Zm-.1 1.6.1-1.6-.2 1.6v.1c.067 0 .1-.033.1-.1Zm-.5-1.7-.1 1.6Zm-.1 1.7.2-1.7h-.1l-.2 1.6c0 .067.033.1.1.1Zm-.4-1.7-.2 1.6Zm-.1 1.6.1-1.6v-.1l-.1.1-.1 1.6h.1Zm-.5-1.7-.1 1.6Zm-.1 1.6.2-1.6h-.1l-.2 1.6v.1c.067 0 .1-.033.1-.1Zm-.4-1.6-.2 1.6Zm-.2 1.6.2-1.6v-.1h-.1l-.1 1.7Zm-.4-1.7-.2 1.6Zm-.1 1.6.2-1.6-.1-.1v.1l-.2 1.6h.1Zm-.4-1.7-.2 1.6Zm-.2 1.6.2-1.6h-.1l-.2 1.6c0 .067.033.1.1.1v-.1Zm-.4-1.6-.2 1.6Zm-.1 1.6.1-1.6-.2 1.6h.1Zm-.5-1.7-.1 1.6Zm-.1 1.6.2-1.6h-.1l-.2 1.6c0 .067.034.1.1.1v-.1Zm-.4-1.7-.2 1.7Zm-.2 1.7.2-1.6v-.1h-.1l-.1 1.7Zm-.4-1.7-.2 1.6Zm-.1 1.6.2-1.6-.1-.1v.1l-.2 1.6h.1Zm-.4-1.7-.2 1.6Zm-.2 1.6.2-1.6h-.1l-.2 1.6c0 .067.033.1.1.1v-.1Zm-.4-1.6-.2 1.6Zm-.1 1.6.1-1.6-.2 1.6h.1Zm-.5-1.7-.1 1.6Zm-.1 1.6.2-1.6h-.1l-.2 1.6c0 .067.033.1.1.1v-.1Zm-.4-1.7-.2 1.7Zm-.2 1.7.2-1.7h-.1l-.1 1.7Zm-.4-1.7-.2 1.6Zm-.1 1.6.2-1.6c0-.067-.033-.1-.1-.1v.1l-.2 1.6h.1Zm-.4-1.7-.2 1.6Zm-.2 1.6.2-1.6H62l-.2 1.6c0 .067.034.1.1.1v-.1Zm4.1-1.2-11.3-1.2Z"/>
  <path fill="#8A8A8A" d="M66 65.15v-.1l-11.6-1.2v.1h.3l11.3 1.2Zm-.6 0-.1 1.6Z"/>
  <path fill="#8A8A8A" d="m65.3 66.75.2-1.6-.1-.1v.1l-.2 1.6h.1Zm-.4-1.7-.2 1.6Zm-.2 1.6.2-1.6h-.1l-.1 1.6Zm-.4-1.6-.2 1.6Zm-.1 1.6.2-1.6c0-.067-.033-.1-.1-.1v.1l-.2 1.6h.1Zm-.4-1.7-.2 1.6Zm-.2 1.6.2-1.6h-.1l-.2 1.6c0 .067.033.1.1.1v-.1Zm-.4-1.7-.2 1.7Zm-.1 1.7.1-1.7-.2 1.7h.1Zm-.5-1.7-.1 1.6Zm-.1 1.6.2-1.6c0-.067-.033-.1-.1-.1v.1l-.2 1.6h.1Zm-.4-1.7-.2 1.6Zm-.2 1.6.2-1.6H62l-.1 1.6Zm-.4-1.6-.2 1.6Zm-.1 1.6.2-1.6c0-.067-.033-.1-.1-.1v.1l-.2 1.6h.1Zm-.4-1.7-.2 1.6Zm-.2 1.6.2-1.6h-.1l-.2 1.6.1.1v-.1Zm-.4-1.7-.2 1.7Zm-.1 1.7.1-1.7-.2 1.7h.1Zm-.5-1.7-.1 1.6Zm-.1 1.6.2-1.6c0-.067-.033-.1-.1-.1v.1l-.2 1.6h.1Zm-.4-1.7-.2 1.6Zm-.2 1.6.2-1.6h-.1l-.1 1.6Zm-.4-1.6-.2 1.6Zm-.1 1.6.2-1.6c0-.067-.033-.1-.1-.1v.1l-.2 1.6h.1Zm-.4-1.7-.2 1.6Zm-.2 1.6.2-1.6h-.1l-.2 1.6.1.1v-.1Zm-.4-1.7-.2 1.7Zm-.1 1.7.1-1.7-.2 1.6v.1h.1Zm-.5-1.7-.1 1.6Zm-.1 1.6.2-1.6c0-.067-.033-.1-.1-.1v.1l-.2 1.6h.1Zm-.4-1.7-.2 1.6Zm-.2 1.6.2-1.6h-.1l-.1 1.6Zm-.4-1.6-.2 1.6Zm-.1 1.6.2-1.6c0-.067-.033-.1-.1-.1l-.2 1.7h.1Zm-.4-1.7-.2 1.6Zm-.2 1.6.2-1.6h-.1l-.2 1.6h.1Zm-.4-1.7-.2 1.6Zm-.1 1.7.1-1.7-.2 1.6v.1h.1Z"/>
  <path fill="#D4D4D4" d="M63 70.65c-.8 0-1.6.3-1.6.9l-.4 2.9 3.1.3.3-2.9c.1-.6-.6-1.1-1.4-1.2Z"/>
  <path fill="#FEFEFE" d="M62.7 70.65c-.9-.1-1.6.3-1.6.8l-.4 2.9 3.1.4.3-3c.1-.5-.6-1-1.4-1.1Z"/>
  <path fill="#E0E0E0" d="m64.7 76.85-4.8-.6.2-1.8 4.8.5-.2 1.9Z"/>
  <path fill="#FEFEFE" d="m64.5 76.75-4.9-.5.3-2 4.8.6-.2 1.9Z"/>
  <path fill="#6A5D60" d="M62.6 71.05c-.7 0-1.3.3-1.3.7l-.3 2.6 2.5.3.3-2.6c0-.5-.5-.9-1.2-1Z"/>
  <path fill="#969696" d="M62.6 71.35c-.6-.1-1.1.1-1.2.5l-.2 2.3 2.1.2.3-2.2c0-.4-.4-.8-1-.8Z"/>
  <path fill="#6A5D60" d="M62.3 74.45h-.1l.3-3.3h.1l-.3 3.3Z"/>
  <path fill="#6A5D60" d="m63.6 72.45-2.3-.2v-.1l2.3.3Zm-.1 1-2.3-.2v-.1l2.3.3Z"/>
  <path fill="#E3E3E3" d="M54.3 73.35s.3-3.1.4-3.6c.2-.8.7-1.8 2.6-1.6 1.9.2-3.4-.3-3.4-.3l-.6 5.3 1 .2Z"/>
  <path fill="#D1D1D1" d="m54 76.65-.5-.1.3-3.4.6.1-.4 3.4Z"/>
  <path fill="#D4D4D4" d="M69 71.35c-.9-.1-1.6.3-1.7.8l-.3 2.9 3 .3.4-2.9c0-.5-.6-1-1.4-1.1Z"/>
  <path fill="#FEFEFE" d="M68.6 71.35c-.8-.1-1.5.2-1.6.8l-.3 2.9 3 .3.4-2.9c0-.5-.6-1.1-1.5-1.1Z"/>
  <path fill="#E0E0E0" d="m70.6 77.45-4.8-.5.2-1.9 4.8.5-.2 1.9Z"/>
  <path fill="#FEFEFE" d="m70.4 77.45-4.8-.5.2-2 4.8.5-.2 2Z"/>
  <path fill="#6A5D60" d="M68.6 71.75c-.7-.1-1.3.2-1.4.6l-.3 2.6 2.5.3.3-2.6c.1-.4-.5-.8-1.1-.9Z"/>
  <path fill="#969696" d="M68.5 71.95c-.6-.1-1.1.2-1.1.6l-.3 2.3 2.2.2.2-2.3c.1-.4-.4-.7-1-.8Z"/>
  <path fill="#6A5D60" d="m68.2 75.05.3-3.2h.1l-.4 3.2Z"/>
  <path fill="#6A5D60" d="m69.6 73.15-2.4-.3.1-.1 2.3.3v.1Zm-.1 1-2.4-.3v-.1l2.4.3v.1Z"/>
  <path fill="#E3E3E3" d="M60.2 74.05s.3-3.2.4-3.7c.1-.8.7-1.7 2.5-1.5 1.9.2-3.3-.4-3.3-.4l-.7 5.3 1.1.3Z"/>
  <path fill="#D1D1D1" d="M59.9 77.25h-.6l.4-3.5.5.1-.3 3.4Z"/>
  <path fill="#E3E3E3" d="M66.2 74.65s.3-3.1.4-3.6c.1-.8.7-1.8 2.6-1.6 1.8.2-3.4-.4-3.4-.4l-.6 5.4 1 .2Z"/>
  <path fill="#D1D1D1" d="m65.9 77.95-.6-.1.4-3.4.6.1-.4 3.4Z"/>
  <path fill="#FEFEFE" d="m54.3 66.35 18.1 2 .1-.8-18.1-2-.1.8Z"/>
  <path fill="#FEFEFE" fill-rule="evenodd" d="M53.1 76.55h.5l.3-3.3-.1-.1.4-3.1c0-.6.3-1 .6-1.3.7-.7 1.7-.7 2.1-.6.3 0 1.1.2 1.6.7.4.4.7 1 .6 1.8l-.4 3.1h-.1l-.4 3.4 1.2.1.4-3.4h-.1l.4-3.2c0-.6.3-1 .6-1.4.5-.4 1.2-.6 1.7-.6l.8.1c.4.1.9.2 1.4.6.4.4.6 1 .5 1.8l-.3 3.2h-.1l-.4 3.4 1.2.1.4-3.4h-.1l.3-3.2c.1-.6.3-1 .6-1.3.6-.6 1.4-.6 1.9-.6h.5c.4.1.9.3 1.4.7.3.4.6 1 .5 1.8l-.3 3.1h-.2l-.3 3.5 1.2.1.4-3.4h-.1l.9-7.5-18.3-2-1.2 10.9Z" clip-rule="evenodd"/>
  <path fill="#FEFEFE" d="m55.1 66.45 17.2 1.9.1-.8-17.2-1.9-.1.8Z"/>
  <path fill="#969696" d="M72.1 68.35h.2v-.7h-.1l-.1.7Zm-1.6-.2.1.1.1-.8h-.1l-.1.7Zm-1.6-.1h.1l.1-.8h-.2v.8Zm-1.7-.2h.2l.1-.7h-.2l-.1.7Zm-1.6-.2h.2v-.7h-.1l-.1.7Zm-1.6-.2.1.1.1-.8h-.1l-.1.7Zm-1.6-.1h.1l.1-.8h-.2v.8Zm-1.7-.2h.2l.1-.7h-.2l-.1.7Zm-1.6-.2h.1l.1-.7h-.1l-.1.7Zm-1.6-.2h.1l.1-.7h-.1l-.1.7Zm-1.6-.1h.1l.1-.8h-.2v.8Zm-1.7-.2h.2l.1-.7-.2-.1-.1.8Z"/>
  <path fill="#6E6E6E" d="m54.3 65.65 18.3 2v-.1l-18.3-2v.1Z"/>
  <path fill="#E0E0E0" d="m72.5 67.65-18.2-2-.1 1.1 18 1.9.1-.8.2.1v-.3Z" style="mix-blend-mode:multiply"/>
  <mask id="a" width="9" height="5" x="65" y="59" maskUnits="userSpaceOnUse" style="mask-type:luminance">
    <path fill="#fff" d="m72.97 63.76-7.77-.85.42-3.91 7.77.84-.42 3.92Z"/>
  </mask>
  <g mask="url(#a)">
    <path fill="#DE4926" d="M77.4 62.45c0 .067-.033.1-.1.1-.1 0-11.8-1.3-11.8-1.3l.1-1.1 13 1.4c.1 0 .2.1.1.2s-1.1.6-1.3.7Zm-10.9-2-.7.8Z"/>
    <path stroke="#C82127" stroke-width=".4" d="m66.5 60.45-.7.8m.9-.8-.6.7m.9-.7-.6.8m.9-.8-.7.8m1-.7-.7.7m1-.7-.7.7m.9-.7-.6.8m.9-.7-.6.7m.9-.7-.7.7m1-.7-.7.8m1-.7-.7.7m.9-.7-.6.7m.9-.7-.6.8m.9-.7-.7.7m1-.7-.7.7m1-.7-.7.8m.9-.8-.6.8m.9-.7-.7.7m1-.7-.7.7m1-.7-.7.8m1-.7-.7.7m.9-.7-.6.7m1.5-.6-.7.7m1.2-.7-.6.8m.9-.7-.7.7"/>
  </g>
  <mask id="b" width="13" height="6" x="54" y="57" maskUnits="userSpaceOnUse" style="mask-type:luminance">
    <path fill="#fff" d="m65.97 63-11.36-1.24.42-3.91 11.37 1.23-.43 3.92Z"/>
  </mask>
  <g mask="url(#b)">
    <path fill="#DE4926" d="M66.8 61.35h-.1c-.1 0-11.8-1.3-11.8-1.3l.2-1 12.9 1.4c.1 0 .2.1.1.1-.1.1-1.1.6-1.3.8Zm-10.9-2-.7.7Z"/>
    <path stroke="#C82127" stroke-width=".4" d="m55.9 59.35-.7.7m1-.8-.7.8m.9-.7-.6.7m.9-.7-.7.7m1-.7-.7.8m1-.7-.7.7m.9-.7-.6.7m.9-.7-.6.8m.9-.8-.7.8m1-.7-.7.7m1-.7-.7.7m.9-.7-.6.8m.9-.7-.6.7m.9-.7-.7.7m1-.7-.7.8m1-.7-.7.7m.9-.7-.6.7m.9-.7-.6.8m.9-.7-.7.7m1-.7-.7.7m1-.7-.7.8m.9-.8-.6.8m.9-.7-.6.7m.9-.7-.7.7m1-.7-.7.8m1-.7-.7.7m.9-.7-.6.7m.9-.7-.6.8m.9-.7-.7.7m1-.7-.7.7m1-.7-.7.8m.9-.8-.6.8m.9-.7-.6.7m.9-.7-.7.7m1-.7-.7.8m1-.7-.7.7m1-.7-.7.7m1-.7-.8.8"/>
  </g>
  <path fill="#F2F2F2" d="m73.9 78.55-2.3-.2.9-8.5 2.3.3-.9 8.4Z"/>
  <path fill="#E3E3E3" d="m76.1 62.25-1.1-1-1.9.7-.6 5.6 3 .3.6-5.6Z"/>
  <path fill="#CCC" d="M74.5 63.25c-.5 0-.9.3-.9.7l-.4 3.7 1.6.1.4-3.6c0-.4-.3-.8-.7-.9Z"/>
  <path fill="#E3E3E3" fill-rule="evenodd" d="m75.4 67.95-1.1 10.7-3-.3 1.2-10.7 2.9.3Zm-.9 3c.1-.3-.2-.7-.8-.8-.6 0-1 .3-1.1.6l-.8 7.6 1.9.2.8-7.6Z" clip-rule="evenodd"/>
  <path fill="#3D3D3D" d="m75.7 66.15-3-.3Zm-3-.2v-.1l3 .3v.1l-3-.3Zm2.5.3-.2 1.6Z"/>
  <path fill="#3D3D3D" d="m74.9 67.85.2-1.7h.1v.1l-.2 1.6h-.1Zm.5 0 .2-1.6h.1l-.2 1.6v.1c-.067 0-.1-.033-.1-.1Zm-.8-1.7-.2 1.6Zm-.2 1.6.2-1.6c0-.067 0-.067 0 0l-.1 1.6h-.1Zm-.4-1.7-.1 1.6Zm-.2 1.6.2-1.6h.1l-.2 1.6v.1c-.067 0-.1-.033-.1-.1Zm-.3-1.6-.2 1.6Zm-.2 1.6.1-1.6.1-.1v.1l-.1 1.6h-.1Zm-.4-1.7-.2 1.6Zm-.2 1.6.2-1.6h.1l-.2 1.6c0 .067-.034.1-.1.1v-.1Z"/>
  <path fill="#3D3D3D" d="m75.5 67.95-3-.3v-.1l3 .3v.1Z"/>
  <path fill="#969696" d="m72.7 68.45.1-.7h.5l-.6.7Zm.9.1.1-.7h.5l-.6.7Zm.9.1.1-.7h.6l-.7.7Z"/>
  <path fill="#DE4926" d="M73.8 62.05c0 .067-.067.1-.2.1l-.6-.1.2-1.1 1.8.2c.1 0 .2.1.1.2s-1.1.6-1.3.7Z"/>
  <path stroke="#C82127" stroke-width=".4" d="m74.4 61.25-.5.4"/>
  <path fill="#DE4926" d="m75.1 61.25 1.1 1s0 .1-.1.1-1.1-1-1.1-1l.1-.1Z"/>
  <path fill="#E3E3E3" d="m71.9 78.25-.6-.1v.4h.5l.1-.3Z"/>
  <path fill="#F2F2F2" d="m42.4 75.15-20.2-2.2 1.1-10.2 20.2 2.2-1.1 10.2Z"/>
  <path fill="#969696" d="M35.5 68.25c.1-.9 1.3-1.6 2.6-1.4 1.4.1 2.4 1 2.3 2l-.6 5.2-4.9-.5.6-5.3Z"/>
  <path fill="#D4D4D4" d="m38.6 65.55 2.6 8.8.7-6.2c.1-1.3-1.4-2.4-3.3-2.6Z"/>
  <path fill="#6E6E6E" d="m34.7 73.45.8.1s.5-5 .6-5.2c0-.3.3-1.6 1.7-1.5h-2.3l-.8 6.6Z"/>
  <path fill="#FEFEFE" d="m40.3 74.75-5.1-.5v-.3l4.7.5.4.3Z"/>
  <path fill="#F2F0E5" d="m38.3 66.55-.8 7.4Z"/>
  <path fill="#4A6766" d="M40.5 68.85c.2-1.4-.9-1.9-2.3-2l-.7 6.9 2.4.3.6-5.2Z"/>
  <path fill="#4A6766" d="M35.6 68.25c.2-1.3 1.3-1.6 2.7-1.4l-.8 6.9-2.4-.2.5-5.3Z"/>
  <path fill="#283D3C" d="M38.3 66.75h-.1l-.7 7h.1l.7-7Z"/>
  <path fill="url(#c)" d="m31.1 71.15 3.2.4v.1l-3.2-.4v-.1Z" opacity=".6"/>
  <path fill="url(#d)" d="m26 72.65 7.7.9-7.7-.8v-.1Z"/>
  <path fill="url(#e)" d="m26.6 73.05 7.7.9-7.7-.8v-.1Z"/>
  <path fill="#FEFEFE" d="m54.6 66.35-31.4-3.4.1-.8 31.4 3.5-.1.7Z"/>
  <path fill="#050505" d="m32 65.85.7.1-.1-.4h-.1l-.5.3Z"/>
  <path fill="#283D3C" d="m32.3 65.85.7.1-.2-.4h-.3l-.2.3Z"/>
  <path fill="#283D3C" d="m32.3 65.85.7.1-.2-.4h-.3l-.2.3Z"/>
  <path fill="#283D3C" d="m32.3 65.55.6.1-.2-.3h-.1l-.3.2Zm-.3.3.7.1-.2.8h-.2l-.3-.9Z"/>
  <path fill="#FEFEFE" d="m32.1 65.95.6.1-.2.6h-.1l-.3-.7Z"/>
  <path fill="#283D3C" d="m32.3 65.85.7.1-.4.8h-.2l-.1-.9Z"/>
  <path fill="#FEFEFE" d="m32.4 65.95.5.1-.3.6h-.2v-.7Z"/>
  <path fill="#283D3C" d="M32.3 66.75h.4l-.2.2-.2-.2Zm.3.3h-.1c-.067 0-.1-.033-.1-.1h.1l.1.1Z"/>
  <path fill="#DBDBDB" d="m39.9 74.55-5.3-.6v-.3l5.4.6-.1.3Z"/>
  <path fill="#B5B5B5" d="M40.4 74.55h-.5l.1-.3h.4v.3Z"/>
  <path fill="#F2F2F2" fill-rule="evenodd" d="m41 68.55-.7 5.9-6.9-.7.6-5.9c.2-1.4 1.8-2.3 3.8-2.1 1.9.2 3.3 1.5 3.2 2.8Zm-.5.3c.2-1.3-.9-1.9-2.3-2-1.4-.2-2.6.3-2.7 1.4l-.6 5.3 5.1.5.5-5.2Z" clip-rule="evenodd"/>
  <path fill="#E0E0E0" d="M41.4 74.35h-.5l.2-2.1.5.1-.2 2Z"/>
  <path fill="#F2F2F2" d="M41 74.45h-.4l.2-2.2h.5l-.3 2.2Z"/>
  <path fill="#283D3C" d="M40.4 70.35c0 .067-.033.1-.1.1v-.4l.1-.1v.4Z"/>
  <path fill="#283D3C" d="M40.4 70.15h-.1l-.1-.1h-.1v.2h.2c.067 0 .1-.033.1-.1Zm-.3 3c0 .067-.033.1-.1.1v-.4c0-.067.033-.1.1-.1v.4Z"/>
  <path fill="#283D3C" d="M40.1 72.95H40l-.1-.1h-.1v.2h.2c.067 0 .1-.033.1-.1Zm0-.2H40l.1-.1v.1Z"/>
  <g opacity=".6">
    <path fill="#4A6766" d="M39.7 73.65v-.2h-.1l.1-.8h.1v-.2h-.2v.1l-.5-.1-.1-.1v.2h.1l-.1.8h-.1l-.1.2h.2v-.1l.5.1v.1h.2Z"/>
    <path fill="#4A6766" d="M39.5 73.35h-.4v-.7h.4c.067 0 .1.033.1.1l-.1.6Z"/>
  </g>
  <path fill="#4A6766" d="M39 73.55c0 .067-.033.1-.1.1l-.2-.1v-.2h.3v.2Zm.6.1h-.2v-.3h.2v.3Zm-.5-1.1c0 .067-.033.1-.1.1l-.2-.1v-.2h.3v.2Zm.6.1h-.2v-.3l.2.1h.1l-.1.2Z"/>
  <path fill="#4A6766" d="m39.5 73.55-.7-.1.1-1h.7v.1l-.1 1Z"/>
  <path fill="#4A6766" d="M39.6 73.65v-.2h-.1l.1-.8h.1v-.2h-.2v.1l-.5-.1v-.1h-.1v.2h.1l-.1.8h-.1v.2h.1v-.1h.5v.2h.2Z"/>
  <path fill="#4A6766" d="m39.7 72.65.1-.2h-.1l-.2-.1v.1h-.4v-.1h-.3v.2l.1.1-.1.7h-.1v.2l.2.1c.067 0 .1-.033.1-.1h.4v.1h.2v-.3h-.1l.1-.7h.1Z"/>
  <path fill="#283D3C" d="M39.4 73.35H39v-.7h.4c.067 0 .1.033.1.1l-.1.6Z" opacity=".4"/>
  <g opacity=".6">
    <path fill="#4A6766" d="M38.7 73.55v-.2h-.1l.1-.8h.1v-.2h-.1l-.1.1-.5-.1.1-.1H38v.2h.1l-.1.8h-.1v.2h.1v-.1h.5v.2h.2Z"/>
    <path fill="#4A6766" d="M38.5 73.25h-.3c-.067 0-.1-.033-.1-.1l.1-.6h.3c.067 0 .1.034.1.1l-.1.6Z"/>
  </g>
  <path fill="#4A6766" d="M38 73.45h-.3v-.2l.1-.1.2.1v.2Zm.6.1h-.2v-.3h.2c.067 0 .1.033.1.1l-.1.2Zm-.5-1.1v.1l-.2-.1h-.1l.1-.2h.2v.2Zm.6.1h-.2v-.2c0-.067.033-.1.1-.1l.1.1h.1l-.1.2Z"/>
  <path fill="#4A6766" d="m38.5 73.45-.6-.1h-.1l.1-1h.7c.067 0 .1.033.1.1l-.2 1Z"/>
  <path fill="#4A6766" d="M38.6 73.55v-.2h-.1l.1-.8h.1v-.2h-.1v.1l-.6-.1.1-.1h-.2v.2h.1l-.1.8h-.1v.2h.1v-.1h.5v.1l.2.1Z"/>
  <path fill="#4A6766" d="m38.7 72.55.1-.2h-.1l-.1-.1c-.067 0-.1.033-.1.1h-.4v-.1h-.2l-.1.2h.1l-.1.8v-.1l-.1.1v.2h.3v-.1l.4.1v.1h.2l.1-.2c0-.067-.033-.1-.1-.1v-.7h.1Z"/>
  <path fill="#283D3C" d="M38.4 73.25h-.3c-.067 0-.1-.033-.1-.1l.1-.6h.3c.067 0 .1.034.1.1l-.1.6Z" opacity=".4"/>
  <g opacity=".6">
    <path fill="#4A6766" d="M39.8 72.15v-.2h-.1l.1-.8h.1l.1-.2h-.2v.1h-.5v-.1l-.2-.1v.2h.1l-.1.8H39v.2h.2v-.1l.5.1v.1h.1Z"/>
    <path fill="#4A6766" d="M39.7 71.85h-.4c-.067 0-.1-.033-.1-.1l.1-.6h.4v.7Z"/>
  </g>
  <path fill="#4A6766" d="M39.1 72.05v.1l-.2-.1v-.2h.2v.2Zm.7.1h-.3l.1-.2v-.1h.2v.3Zm-.6-1.1v.1H39v-.3h.3l-.1.2Zm.7.1h-.3l.1-.2v-.1l.2.1v.2Z"/>
  <path fill="#4A6766" d="m39.7 72.05-.7-.1.1-1h.7v.1l-.1 1Z"/>
  <path fill="#4A6766" d="m39.7 72.15.1-.2h-.2l.1-.8h.1l.1-.2h-.2v.1l-.5-.1v-.1H39v.2h.1l-.1.8h-.1v.2h.2v-.1h.5v.2h.1Z"/>
  <path fill="#283D3C" d="M39.6 71.85h-.4c-.067 0-.1-.033-.1-.1l.1-.6h.4v.7Z" opacity=".4"/>
  <g opacity=".6">
    <path fill="#4A6766" d="M38.9 72.05v-.2h-.1l.1-.8h.1v-.2h-.2v.1l-.5-.1v-.1h-.1l-.1.2h.1l-.1.8H38v.2h.2v-.1l.5.1v.1h.2Z"/>
    <path fill="#4A6766" d="M38.7 71.75h-.4v-.7h.4c.067 0 .067.034 0 .1v.6Z"/>
  </g>
  <path fill="#4A6766" d="M38.1 71.95h-.2v-.2h.3l-.1.2Zm.7.1h-.3l.1-.2v-.1h.2v.3Zm-.6-1.1v.1l-.2-.1v-.2h.3l-.1.2Zm.7.1h-.2v-.3l.2.1v.2Z"/>
  <path fill="#4A6766" d="m38.7 71.95-.7-.1.1-1h.7v.1l-.1 1Z"/>
  <path fill="#4A6766" d="M38.8 72.05v-.2h-.1l.1-.8h.1v-.2h-.2v.1l-.5-.1v-.1h-.1l-.1.2h.1v.8H38l-.1.2h.2v-.1h.5v.1l.2.1Z"/>
  <path fill="#283D3C" d="M38.6 71.75h-.4v-.7h.4c.067 0 .1.034.1.1l-.1.6Z" opacity=".4"/>
  <g opacity=".6">
    <path fill="#4A6766" d="M40 70.65v-.2h-.1l.1-.8h.1v-.2H40v.1h-.6l.1-.1-.2-.1v.2h.1l-.1.8h-.1v.2h.1v-.1l.5.1v.1h.2Z"/>
    <path fill="#4A6766" d="M39.8 70.35h-.3c-.067 0-.1-.033-.1-.1l.1-.6h.3c.067 0 .1.033.1.1l-.1.6Z"/>
  </g>
  <path fill="#4A6766" d="M39.3 70.55c0 .067-.033.1-.1.1l-.1-.1H39l.1-.2h.2v.2Zm.6.1h-.2v-.2c0-.067.033-.1.1-.1l.1.1h.1l-.1.2Zm-.5-1.1v.1h-.2l-.1-.1.1-.2h.2v.2Zm.7.1h-.3v-.2c0-.067.034-.1.1-.1l.1.1h.1v.2Z"/>
  <path fill="#4A6766" d="M39.9 70.55h-.1l-.6-.1h-.1l.1-1h.1l.6.1h.1l-.1 1Z"/>
  <path fill="#4A6766" d="M39.9 70.65v-.2h-.1l.1-.8h.1v-.2h-.1v.1l-.5-.1v-.1h-.2v.2h.1l-.1.8h-.1v.2h.1v-.1l.6.1-.1.1h.2Z"/>
  <path fill="#283D3C" d="M39.7 70.35h-.3c-.066 0-.1-.033-.1-.1l.1-.6h.3c.067 0 .1.033.1.1l-.1.6Z" opacity=".4"/>
  <g opacity=".6">
    <path fill="#4A6766" d="M39 70.55v-.2h-.1l.1-.8h.1v-.2H39v.1l-.5-.1-.2-.1v.2h.1l-.1.8h-.1v.2h.2v-.1l.5.1v.1h.1Z"/>
    <path fill="#4A6766" d="M38.8 70.25h-.3c-.067 0-.1-.033-.1-.1l.1-.6h.4v.1l-.1.6Z"/>
  </g>
  <path fill="#4A6766" d="M38.3 70.45v.1l-.2-.1H38l.1-.2h.2v.2Zm.7.1h-.3v-.2c0-.067.033-.1.1-.1h.2v.3Zm-.6-1.1v.1l-.2-.1v-.2h.2v.2Zm.7.1h-.3v-.2c0-.067.034-.1.1-.1l.2.1v.2Z"/>
  <path fill="#4A6766" d="M38.9 70.45h-.1l-.6-.1.1-1h.6l.1.1-.1 1Z"/>
  <path fill="#4A6766" d="M38.9 70.55v-.2h-.1l.1-.8h.1v-.2h-.1v.1l-.5-.1v-.1h-.2v.2h.1l-.1.8h-.1v.2h.2v-.1h.5v.2h.1Z"/>
  <path fill="#4A6766" d="M39 69.55h.1v-.2l-.2-.1c-.066 0-.1.033-.1.1h-.4v-.1h-.2v1h-.1l-.1.2h.1l.2.1v-.2l.4.1v.1h.3v-.3h-.1l.1-.7Z"/>
  <path fill="#283D3C" d="M38.8 70.25h-.4c-.066 0-.1-.033-.1-.1l.1-.6h.4v.7Z" opacity=".4"/>
  <path fill="#4A6766" d="M39 68.75h-.4v-.7h.4c.067 0 .1.034.1.1l-.1.6Z" opacity=".6"/>
  <path fill="#4A6766" d="M38.5 68.95c0 .067-.033.1-.1.1l-.2-.1v-.2h.3v.2Zm.6.1h-.2v-.3h.2l.1.1-.1.2Zm-.5-1.1c0 .067-.033.1-.1.1l-.2-.1v-.2h.3v.2Zm.6.1H39v-.3l.2.1h.1l-.1.2Z"/>
  <path fill="#4A6766" d="m39 68.95-.6-.1h-.1l.1-1h.7v.1l-.1 1Z"/>
  <path fill="#4A6766" d="M39.1 69.05v-.2H39l.1-.8h.1v-.2h-.1l-.1.1-.5-.1v-.1h-.1v.2h.1l-.1.8h-.1v.2h.1v-.1h.5v.2h.2Z"/>
  <path fill="#4A6766" d="m39.2 68.05.1-.2h-.1l-.2-.1v.1h-.4v-.1h-.3v.2l.1.1-.1.7h-.1v.2l.2.1c.067 0 .1-.033.1-.1h.4v.1h.2l.1-.2-.1-.1H39l.1-.7h.1Z"/>
  <path fill="#283D3C" d="M38.9 68.75h-.4v-.1l.1-.6h.3c.067 0 .1.034.1.1l-.1.6Zm1 .1h-.4v-.7h.4c.067 0 .1.033.1.1l-.1.6Zm-2.2-.3c0 .067-.033.1-.1.1h-.3c-.067 0-.1-.033-.1-.1l.1-.6c0-.067.034-.1.1-.1l.3.1v.6Zm-1-.1c0 .067-.033.1-.1.1h-.3v-.7l.1-.1.3.1h.1l-.1.6Zm.8 1.7h-.4v-.7h.4c.067 0 .1.033.1.1l-.1.6Zm-1-.1h-.3c-.067 0-.1-.033-.1-.1l.1-.6h.3c.067 0 .1.033.1.1l-.1.6Zm.8 1.6v.1l-.3-.1h-.1l.1-.6v-.1h.3l.1.1-.1.6Zm-.9-.1c0 .067-.033.1-.1.1l-.3-.1h-.1l.1-.6c0-.067.033-.1.1-.1h.3v.7Zm.8 1.7h-.4c-.067 0-.1-.033-.1-.1l.1-.6h.4v.7Zm-1-.1h-.4v-.7l.1-.1.3.1c.067 0 .1.033.1.1l-.1.6Z" opacity=".4"/>
  <path fill="#E0E0E0" d="M38.2 66.85s2.3.2 2.1 2l-.5 5.2h.2l.5-5.2s.4-1.8-2.3-2Z" opacity=".4" style="mix-blend-mode:multiply"/>
  <path fill="#E0E0E0" d="M34.5 63.45h-.1l.7-6.4h.1l-.7 6.4Z"/>
  <path fill="#FCFAEC" d="m35 63.55-.6-.1.7-6.4.6.1-.7 6.4Z"/>
  <path fill="#FEFEFE" d="m54.6 65.95-31.7-3.4v-.4l31.8 3.4-.1.4Z"/>
  <path fill="#FEFEFE" d="m24 56.25 11.1 1.2-.7 6-11-1.2.6-6Z"/>
  <path fill="#969696" d="M32 58.55h-.7.2c-.7.1-.9.8-.9 1 0 .1-.4 3.4-.4 3.4h-.3l3.3.3.4-3.4c0-.8-.7-1.2-1.6-1.3Z"/>
  <path fill="#E0E0E0" d="M30.6 59.55c0-.2.2-.9.9-1h-.2c-.5.1-1 .4-1 1l-.4 3.4h.3s.4-3.3.4-3.4Z"/>
  <path fill="#969696" d="M26.8 57.95h-.7.1c-.7.1-.8.9-.8 1 0 .2-.4 3.4-.4 3.4h-.3l3.3.4.3-3.5c.1-.8-.6-1.2-1.5-1.3Z"/>
  <path fill="#E0E0E0" d="M25.4 58.95c0-.1.1-.9.8-1h-.1c-.6.1-1 .4-1 1l-.4 3.4h.3s.4-3.2.4-3.4Z"/>
  <path fill="#DE4926" d="M23.7 56.55c-.067.067-.067.1 0 .1l11.1 1.2c.1 0 .2-.1.2-.2l.1-.7c0-.1-.1-.1-.2-.2l-10.3-1.1c-.1 0-.2.1-.3.1l-.6.8Zm.6-.8-.6.8Z"/>
  <path stroke="#DC8927" stroke-width=".4" d="m24.6 55.75-.7.7m1-.7-.7.8m1-.7-.7.7m.9-.7-.6.7m.9-.7-.7.8m1-.7-.7.7m1-.7-.7.7m.9-.7-.6.8m.9-.8-.6.8m.9-.7-.7.7m1-.7-.7.7m1-.7-.7.8m.9-.7-.6.7m.9-.7-.6.7m.9-.7-.7.8m1-.7-.7.7m1-.7-.7.7m.9-.7-.6.8m.9-.8-.6.8m.9-.7-.7.7m1-.7-.7.8m1-.8-.7.8m.9-.7-.6.7m.9-.7-.6.7m.9-.7-.7.8m1-.7-.7.7m1-.7-.7.7m.9-.7-.6.8m.9-.7-.6.7m.9-.7-.7.7m1-.7-.7.8m1-.8-.7.8m.9-.7-.6.7m.9-.7-.7.7m1-.7-.7.8m1-.7-.7.7m1-.7-.7.7m.9-.7-.4.5"/>
  <path fill="#E0E0E0" d="m23.9 56.65-.1 1.4 10.9 1.2.2-1.4-11-1.2Z" style="mix-blend-mode:multiply"/>
  <path fill="#8A8A8A" d="m23.1 60.35 11.3 1.3Zm0 .1v-.1l11.3 1.2c.067 0 .1.034.1.1h-.1l-11.3-1.2Zm.6.1-.2 1.6Z"/>
  <path fill="#8A8A8A" d="m23.4 62.15.2-1.6c0-.067.033-.1.1-.1v.1l-.2 1.6h-.1Zm.8-1.6-.2 1.6Zm-.2 1.6.2-1.6h.1l-.2 1.6c0 .067-.033.1-.1.1v-.1Zm.8-1.5-.2 1.6Zm-.2 1.6.1-1.6c0-.066.033-.1.1-.1v.1l-.2 1.6Zm.7-1.6-.1 1.7Zm-.2 1.7.2-1.7h.1l-.2 1.7h-.1Zm.8-1.6-.2 1.6Zm-.2 1.6.2-1.6-.1 1.6c0 .067-.033.1-.1.1v-.1Zm.8-1.5-.2 1.6Zm-.3 1.6.2-1.6c0-.067.033-.1.1-.1v.1l-.2 1.6h-.1Zm.8-1.6-.2 1.6Zm-.2 1.6.2-1.6h.1l-.2 1.6c0 .067-.033.1-.1.1v-.1Zm.8-1.5-.2 1.6Zm-.2 1.6.1-1.6c0-.067.033-.1.1-.1v.1l-.2 1.6Zm.7-1.6-.1 1.7Zm-.2 1.7.2-1.7c.067 0 .1.033.1.1l-.2 1.6h-.1Zm.8-1.6-.2 1.6Zm-.2 1.6.1-1.6h.1l-.1 1.6-.1.1v-.1Zm.7-1.5-.1 1.6Zm-.2 1.6.2-1.6c0-.066.033-.1.1-.1v.1l-.2 1.6H29Zm.8-1.6-.2 1.6Zm-.2 1.6.2-1.6c.067 0 .067 0 0 0l-.1 1.6c0 .067-.033.1-.1.1v-.1Zm.8-1.5-.2 1.6Zm-.2 1.6.1-1.6c0-.067.034-.1.1-.1v.1l-.2 1.6Zm.7-1.5-.1 1.6Zm-.2 1.6.2-1.7c.067 0 .1.033.1.1l-.2 1.6h-.1Zm.8-1.6-.2 1.6Zm-.2 1.6.1-1.6h.1l-.1 1.6-.1.1v-.1Zm.7-1.5-.1 1.6Zm-.2 1.6.2-1.6v-.1c.067 0 .1.033.1.1l-.2 1.6h-.1Zm.8-1.6-.2 1.6Zm-.2 1.6.2-1.6-.1 1.7h-.1v-.1Zm.8-1.5-.2 1.6Zm-.3 1.6.2-1.6h.1l-.2 1.6v.1l-.1-.1Zm.8-1.5-.2 1.6Zm-.2 1.6.2-1.6v-.1c.067 0 .1.034.1.1l-.2 1.6h-.1Zm.8-1.6-.2 1.6Zm-.2 1.6.1-1.6h.1l-.2 1.6Z"/>
  <path fill="#F2F2F2" d="m53 76.35-11-1.2 1.1-10.2 11 1.2-1.1 10.2Z"/>
  <path fill="#050505" d="M44.3 67.25h.7l-.2-.3-.1-.1-.4.4Z"/>
  <path fill="#283D3C" d="m44.5 67.25.7.1-.2-.4-.2-.1-.3.4Z"/>
  <path fill="#283D3C" d="m44.5 67.25.7.1-.2-.4-.2-.1-.3.4Z"/>
  <path fill="#283D3C" d="M44.6 66.95h.5l-.2-.3-.3.3Zm-.3.3h.7l-.3.9-.1-.1-.3-.8Z"/>
  <path fill="#FEFEFE" d="m44.4 67.25.6.1-.3.7-.1-.1-.2-.7Z"/>
  <path fill="#283D3C" d="m44.5 67.25.7.1-.3.8-.3-.1-.1-.8Z"/>
  <path fill="#FEFEFE" d="M44.6 67.35h.5l-.2.6h-.2l-.1-.6Z"/>
  <path fill="#283D3C" d="m44.5 68.05.4.1-.2.2-.2-.3Z"/>
  <path fill="#D4D4D4" d="M51.1 69.45c-.8-.1-1.5.2-1.6.8l-.3 2.9 3 .3.3-2.9c.1-.5-.5-1.1-1.4-1.1Z"/>
  <path fill="#FEFEFE" d="M50.8 69.35c-.8-.1-1.6.3-1.6.8l-.3 2.9 3 .4.3-2.9c.1-.6-.5-1.1-1.4-1.2Z"/>
  <path fill="#E0E0E0" d="m52.8 75.55-4.8-.5.2-1.9 4.8.5-.2 1.9Z"/>
  <path fill="#FEFEFE" d="m52.6 75.55-4.8-.6.2-2 4.8.6-.2 2Z"/>
  <path fill="#6A5D60" d="M50.8 69.85c-.7-.1-1.3.2-1.4.6l-.2 2.6 2.4.3.3-2.6c.1-.5-.4-.9-1.1-.9Z"/>
  <path fill="#969696" d="M50.8 70.05c-.6-.1-1.2.2-1.2.5l-.3 2.3 2.2.3.3-2.3c0-.4-.4-.8-1-.8Z"/>
  <path fill="#6A5D60" d="M50.5 73.15h-.1l.3-3.3.1.1-.3 3.2Z"/>
  <path fill="#6A5D60" d="m51.8 71.15-2.3-.2v-.1l2.3.3Zm-.1 1-2.3-.2v-.1l2.3.3Z"/>
  <path fill="#D4D4D4" d="M44.9 68.75c-.8-.1-1.6.2-1.6.8l-.3 2.9 3 .3.3-2.9c.1-.5-.5-1-1.4-1.1Z"/>
  <path fill="#FEFEFE" d="M44.6 68.65c-.8 0-1.6.3-1.6.9l-.4 2.9 3.1.3.3-2.9c.1-.6-.6-1.1-1.4-1.2Z"/>
  <path fill="#E0E0E0" d="m46.6 74.85-4.8-.5.2-1.9 4.8.5-.2 1.9Z"/>
  <path fill="#FEFEFE" d="m46.4 74.85-4.8-.5.2-2 4.8.5-.2 2Z"/>
  <path fill="#6A5D60" d="M44.6 69.15c-.7-.1-1.3.2-1.4.6l-.3 2.6 2.5.3.3-2.6c.1-.4-.5-.8-1.1-.9Z"/>
  <path fill="#969696" d="M44.5 69.35c-.6-.1-1.1.2-1.1.6l-.3 2.2 2.2.3.3-2.3c0-.4-.5-.7-1.1-.8Z"/>
  <path fill="#6A5D60" d="m44.2 72.45.3-3.2h.1l-.4 3.2Z"/>
  <path fill="#6A5D60" d="m45.6 70.55-2.3-.3v-.1l2.3.3v.1Zm-.1 1-2.4-.3.1-.1 2.3.3v.1Z"/>
  <path fill="#D4D4D4" d="M26.8 66.75c-.8-.1-1.6.3-1.6.8l-.3 2.9 3 .4.3-3c.1-.5-.6-1-1.4-1.1Z"/>
  <path fill="#FEFEFE" d="M26.5 66.75c-.8-.1-1.6.2-1.6.8l-.4 2.9 3.1.3.3-2.9c.1-.5-.6-1-1.4-1.1Z"/>
  <path fill="#E0E0E0" d="m28.5 72.85-4.8-.5.2-1.9 4.8.5-.2 1.9Z"/>
  <path fill="#FEFEFE" d="m28.3 72.85-4.9-.5.3-2 4.8.5-.2 2Z"/>
  <path fill="#6A5D60" d="M26.4 67.15c-.7-.1-1.3.2-1.3.7l-.3 2.6 2.5.2.3-2.6c0-.4-.5-.8-1.2-.9Z"/>
  <path fill="#969696" d="M26.4 67.35c-.6 0-1.1.2-1.2.6l-.2 2.3 2.1.2.3-2.3c0-.4-.4-.7-1-.8Z"/>
  <path fill="#6A5D60" d="M26.1 70.45H26l.4-3.2-.3 3.2Z"/>
  <path fill="#6A5D60" d="m27.4 68.55-2.3-.3 2.3.2v.1Zm-.1 1-2.3-.3 2.3.2v.1Z"/>
  <path fill="#E3E3E3" d="M36.1 71.15s.3-2.9.4-3.4c.1-.8.7-1.8 2.5-1.6 1.9.2-3.3-.3-3.3-.3l-.7 5.3h1.1Z"/>
  <path fill="#D1D1D1" d="M35.8 74.65h-.6l.4-3.5h.5l-.3 3.5Z"/>
  <path fill="#E3E3E3" d="M24 69.85s.3-3 .4-3.5c.1-.8.7-1.7 2.6-1.5 1.8.2-3.4-.4-3.4-.4l-.6 5.3 1 .1Z"/>
  <path fill="#D1D1D1" d="m23.7 73.35-.6-.1.4-3.5.6.1-.4 3.5Z"/>
  <path fill="#E3E3E3" d="M29.9 70.45s.3-2.9.4-3.4c.1-.8.7-1.8 2.6-1.6 1.8.2-3.4-.3-3.4-.3l-.6 5.3h1Z"/>
  <path fill="#D1D1D1" d="m29.6 74.05-.6-.1.4-3.5h.6l-.4 3.6Z"/>
  <path fill="#FEFEFE" fill-rule="evenodd" d="m41.8 71.85.4-3.2c.1-1.4.2-1.9.2-2.1l.2-1.6-19.4-2.1-.7 6.8h-.1l-.4 3.5 1.2.2.4-3.6h-.1l.3-3.2c.1-.7.5-1.2 1-1.5.5-.3 1.1-.3 1.5-.3l.5.1c.5.1 1.2.3 1.7.9.2.4.4.8.3 1.4l-.4 3.2-.1-.1-.3 3.6 1.2.1.4-3.5h-.2l.4-3.2c.1-.8.4-1.3.9-1.5.5-.3 1.1-.4 1.5-.3l.8.1c.5.1 1.2.3 1.6.9.2.3.4.8.3 1.4l-.3 3.2h-.1l-.4 3.4 1.2.2.4-3.5h-.1l.3-3.2c.1-.8.5-1.2.9-1.5.7-.4 1.4-.4 1.8-.3.4 0 1.4.2 2 1 .2.3.3.7.3 1.3l-.4 3.2h-.1l-.4 3.5 1.5.1.4-3.4h-.1Z" clip-rule="evenodd"/>
  <path fill="#E3E3E3" d="M48.2 72.45s.3-2.9.3-3.4c.2-.8.8-1.8 2.6-1.6 1.9.2-3.3-.3-3.3-.3l-.7 5.3h1.1Z"/>
  <path fill="#D1D1D1" d="M47.8 75.95h-.5l.3-3.5h.6l-.4 3.5Z"/>
  <path fill="#E3E3E3" d="M36.1 71.15s.3-3 .4-3.5c.1-.7.7-1.7 2.6-1.5 1.8.2-3.4-.4-3.4-.4l-.7 5.3 1.1.1Z"/>
  <path fill="#D1D1D1" d="M35.8 74.65h-.6l.4-3.6.6.1-.4 3.5Z"/>
  <path fill="#E3E3E3" d="M42 71.75s.3-2.9.4-3.4c.1-.8.7-1.8 2.6-1.6 1.8.2-3.4-.3-3.4-.3l-.6 5.3h1Z"/>
  <path fill="#D1D1D1" d="m41.7 75.35-.6-.1.4-3.5h.6l-.4 3.6Z"/>
  <path fill="#FEFEFE" fill-rule="evenodd" d="m53.8 73.15.4-3.2c.1-1.3.2-1.9.2-2.1l.2-1.6-19.3-2.1-.7 6.8h-.1l-.4 3.5 1.2.2.4-3.6h-.1l.3-3.2c.1-.7.5-1.2.9-1.5.6-.2 1.1-.3 1.5-.3l.6.1c.5.1 1.2.3 1.7.9.2.4.3.8.3 1.4l-.4 3.2h-.1l-.4 3.5 1.3.1.3-3.5h-.1l.4-3.2c.1-.8.4-1.2.9-1.5.5-.3 1.1-.3 1.5-.3l.8.1c.5.1 1.2.4 1.6.9.2.4.3.8.3 1.4l-.4 3.2h-.1l-.3 3.5 1.2.1.4-3.5h-.2l.4-3.2c.1-.8.4-1.2.9-1.5.7-.4 1.4-.3 1.8-.3.4 0 1.4.2 1.9 1 .3.3.4.8.3 1.3l-.3 3.2h-.1l-.4 3.5 1.4.1.3-3.4Z" clip-rule="evenodd"/>
  <path fill="#FEFEFE" d="m54.6 65.95-11-1.2.7-6.5 11 1.2-.7 6.5Z"/>
  <path fill="#969696" d="M52 60.75c-.2-.067-.433-.067-.7 0h.2c-.7.1-.9.8-.9 1 0 .1-.4 3.4-.4 3.4l-.3-.1v.1l3.3.3.4-3.4c.1-.9-.6-1.2-1.6-1.3Z"/>
  <path fill="#E0E0E0" d="M50.6 61.75c0-.2.2-.9.9-1h-.2c-.5.1-1 .4-1 .9l-.4 3.4.3.1s.4-3.3.4-3.4Z"/>
  <path fill="#969696" d="M46.8 60.15h-.7.1c-.7.1-.8.8-.8 1-.1.2-.4 3.4-.4 3.4h-.3l3.2.3.4-3.4c.1-.8-.6-1.2-1.5-1.3Z"/>
  <path fill="#E0E0E0" d="M45.4 61.15c0-.2.1-.9.8-1h-.1c-.6.1-1 .4-1.1 1l-.3 3.4h.3s.3-3.2.4-3.4Z"/>
  <path fill="#E0E0E0" d="m44.1 58.95-.2 1.3 11.2 1.3.2-1.7-11.2-.9Z" style="mix-blend-mode:multiply"/>
  <path fill="#6E6E6E" d="m55 63.95-11.3-1.2Zm-11.3-1.2v-.1l11.4 1.3H55l-11.3-1.2Zm10.8 1.2-.2 1.6Zm-.2 1.6.1-1.6h.1l-.2 1.6Zm-.4-1.7-.2 1.7Zm-.2 1.7.2-1.7h.1l-.2 1.7h-.1Zm-.3-1.7-.2 1.6Z"/>
  <path fill="#6E6E6E" d="m53.1 65.45.2-1.6c0-.067.034-.1.1-.1v.1l-.2 1.6h-.1Zm-.3-1.7-.2 1.6Zm-.2 1.6.2-1.6-.1 1.6c0 .067-.033.1-.1.1v-.1Zm-.4-1.6-.1 1.6Zm-.2 1.6.2-1.6v-.1c.067 0 .1.033.1.1l-.2 1.6H52Zm-.3-1.7-.2 1.6Zm-.2 1.6.1-1.6h.1l-.1 1.6-.1.1v-.1Zm-.4-1.7-.1 1.7Zm-.2 1.6.2-1.6h.1l-.2 1.7h-.1v-.1Zm-.3-1.6-.2 1.6Zm-.2 1.6.1-1.6c0-.067.033-.1.1-.1v.1l-.2 1.6c-.067 0-.067 0 0 0Zm-.4-1.7-.2 1.6Zm-.2 1.6.2-1.6c.067 0 .067 0 0 0l-.1 1.6c0 .067-.033.1-.1.1v-.1Zm-.4-1.6-.1 1.6Zm-.2 1.6.2-1.6c0-.067.033-.1.1-.1v.1l-.2 1.6h-.1Zm-.3-1.7-.2 1.6Zm-.2 1.6.1-1.6h.1l-.1 1.6-.1.1v-.1Zm-.4-1.7-.1 1.6Zm-.2 1.6.2-1.6h.1l-.2 1.7c-.067 0-.1-.033-.1-.1Zm-.3-1.6-.2 1.6Zm-.2 1.6.1-1.6c0-.067.033-.1.1-.1v.1l-.2 1.6Zm-.4-1.7-.2 1.6Zm-.2 1.6.2-1.6h.1l-.2 1.6c0 .067-.033.1-.1.1v-.1Zm-.3-1.6-.2 1.6Zm-.3 1.6.2-1.7h.1v.1l-.2 1.6h-.1Zm-.3-1.7-.2 1.6Zm-.2 1.6.2-1.6v-.1.1l-.1 1.6h-.1Zm-.4-1.7-.1 1.6Zm-.2 1.6.2-1.6h.1l-.2 1.6v.1c-.066 0-.1-.033-.1-.1Zm-.3-1.6-.2 1.6Zm-.2 1.6.1-1.6c0-.067.033-.1.1-.1v.1l-.2 1.6Zm-.4-1.7-.2 1.6Zm-.2 1.6.2-1.6h.1l-.2 1.6c0 .067-.033.1-.1.1v-.1Zm-.3-1.7-.2 1.7Zm-.3 1.7.2-1.7h.1v.1l-.2 1.6h-.1Z"/>
  <path fill="#FEFEFE" d="m53.1 66.35-17.2-1.9.1-.9 17.2 1.9-.1.9Z"/>
  <path fill="#969696" d="m24.7 63.25-.2-.1.1-.7h.2l-.1.8Zm1.6.1h-.1v-.7h.2l-.1.7Zm1.6.2h-.1l.1-.7h.1l-.1.7Zm1.7.2h-.2l.1-.8.1.1v.7Zm1.6.2H31l.1-.8h.2l-.1.8Zm1.6.1h-.1v-.7h.2l-.1.7Zm1.5.2h-.1v-.7h.2l-.1.7Zm9.9 1.1H44l.1-.8.2.1-.1.7Zm1.6.2-.1-.1.1-.7h.1l-.1.8Zm1.6.1h-.1l.1-.7h.1l-.1.7Zm1.7.2h-.2l.1-.7h.1v.7Zm1.6.2h-.2l.1-.8.2.1-.1.7Zm1.6.2h-.1l.1-.8h.1l-.1.8Zm1.6.1h-.1l.1-.7h.1l-.1.7Z"/>
  <path fill="#6E6E6E" d="m54.7 65.75-31.8-3.5v-.1l31.8 3.4v.2Zm-.1 0 .1-.2Z"/>
  <path fill="#E0E0E0" d="m22.9 62.25 31.8 3.4-.2 1.1-31.3-3.4.1-.8h-.4v-.3Z" style="mix-blend-mode:multiply"/>
  <mask id="f" width="13" height="6" x="43" y="56" maskUnits="userSpaceOnUse" style="mask-type:luminance">
    <path fill="#fff" d="m55.14 61.82-11.37-1.24.42-3.91 11.37 1.23-.42 3.92Z"/>
  </mask>
  <g mask="url(#f)">
    <path fill="#DE4926" d="M56 60.15h-.2c-.1 0-11.7-1.2-11.7-1.2l.1-1.1 13 1.4.1.1c-.1.1-1.1.7-1.3.8Zm-11-2-.6.7Z"/>
    <path stroke="#C82127" stroke-width=".4" d="m45 58.15-.6.7m.9-.7-.7.7m1-.7-.7.7m1-.7-.7.8m1-.8-.7.8m.9-.7-.6.7m.9-.7-.7.7m1-.7-.7.8m1-.7-.7.7m.9-.7-.6.7m.9-.7-.6.8m.9-.7-.7.7m1-.7-.7.7m1-.7-.7.8m.9-.7-.6.7m.9-.7-.6.7m.9-.7-.7.8m1-.8-.7.8m1-.7-.7.7m.9-.7-.6.7m.9-.7-.6.8m.9-.7-.7.7m1-.7-.7.7m1-.7-.7.8m.9-.7-.6.7m.9-.7-.6.7m.9-.7-.7.8m1-.8-.7.8m1-.7-.7.7m.9-.7-.6.7m.9-.7-.6.8m.9-.7-.7.7m1-.7-.7.7m1-.7-.7.8m.9-.7-.6.7m1-.7-.8.7m1.1-.7-.8.8m1.1-.7-.8.7"/>
  </g>
  <path fill="#FEFEFE" d="m43.7 64.55-9.4-1.1.7-6.4 9.4 1-.7 6.5Zm-5.7-7.9-2.1-.2.1-.9 2.1.3-.1.8Z"/>
  <path fill="#E0E0E0" d="M44.3 54.85c.3 0 .6-.2.6-.5l-1-.1v.6h.4Z"/>
  <path fill="#FEFEFE" d="M44.5 54.35c-.1.3-.4.5-.7.5-.3-.1-.6-.4-.5-.7m1.2 1-1.3-.1-.2 2.2 1.3.1.2-2.2Z"/>
  <path fill="#E3E3E3" d="m44.9 55.55-.4-.1-.2 1.2.5.1.1-1.2Z"/>
  <path fill="#FEFEFE" d="m44.6 55.45-1.7-.2.1-.3 1.6.2v.3Zm.4.1-.4-.1v-.2l.4.1v.2Z"/>
  <path fill="#E0E0E0" d="m44.6 55.25-1.6-.2v-.1l1.6.2v.1Z"/>
  <path fill="#E0E0E0" d="m45 55.35-.5-.1v-.2l.5.1v.2Z"/>
  <path fill="#FEFEFE" d="m44.5 54.45-1.3-.2v-.3l1.4.1-.1.4Z"/>
  <path fill="#E0E0E0" d="m44.6 54.25-1.4-.2v-.1l1.4.1v.2Z"/>
  <path fill="#BDBDBD" d="M45 54.25h-.4v-.2l.4.1v.1Z"/>
  <path fill="#FEFEFE" d="m44.4 54.85-1.1-.1v.2l1 .1.1-.2Z"/>
  <path fill="#E0E0E0" d="m44.7 54.95-.3-.1v.2l.3.1v-.2Zm-.6-2 .7 1.2-1-.2.3-1Z"/>
  <path fill="#FEFEFE" d="m44.4 54.05-.3-1.1-.6 1 .9.1Z"/>
  <path fill="#FEFEFE" d="M44.4 52.85c0 .1-.1.2-.3.2-.1 0-.1-.1-.1-.2s.1-.2.2-.2.2.1.2.2Z"/>
  <path fill="#E0E0E0" d="M44.2 52.65s.1.1.1.2-.2.2-.2.2.3 0 .3-.2-.2-.2-.2-.2Zm-7.8 1.4c.4 0 .7-.2.7-.6l-1-.1-.1.6.4.1Z"/>
  <path fill="#FEFEFE" d="M36.6 53.45c0 .3-.3.5-.7.5-.3 0-.5-.3-.5-.6m1.2 1-1.2-.2-.3 2.2 1.3.2.2-2.2Z"/>
  <path fill="#E3E3E3" d="M37.1 54.65h-.5l-.1 1.2h.4l.2-1.2Z"/>
  <path fill="#FEFEFE" d="m36.7 54.65-1.6-.2v-.4l1.6.2v.4Zm.4 0h-.4v-.2h.4v.2Z"/>
  <path fill="#E0E0E0" d="m36.7 54.45-1.6-.2v-.2l1.6.2v.2Zm.4 0h-.4v-.2h.4v.2Z"/>
  <path fill="#FEFEFE" d="m36.7 53.55-1.4-.1.1-.4 1.3.2v.3Z"/>
  <path fill="#E0E0E0" d="m36.7 53.35-1.4-.1.1-.2 1.3.2v.1Z"/>
  <path fill="#BDBDBD" d="m37.1 53.45-.4-.1v-.1h.4v.2Z"/>
  <path fill="#FEFEFE" d="m36.5 54.05-1-.1-.1.2 1.1.1v-.2Z"/>
  <path fill="#E0E0E0" d="M36.9 54.05h-.4v.2h.3l.1-.2Zm-.6-1.9.6 1.1-1-.1.4-1Z"/>
  <path fill="#FEFEFE" d="m36.5 53.15-.2-1-.7.9.9.1Zm0-1.1c0 .1-.1.1-.2.1s-.2-.1-.2-.2.1-.2.2-.2.2.1.2.3Z"/>
  <path fill="#E0E0E0" d="M36.3 51.75s.1.1.1.2c0 .2-.1.2-.1.2s.2 0 .2-.1c0-.2-.2-.3-.2-.3Z"/>
  <path fill="#FEFEFE" d="m43.5 57.25-2-.2.1-.9 2 .3-.1.8Z"/>
  <path fill="#969696" d="M37.3 60.25c.1-.6.9-1 1.8-.9.9.1 1.5.7 1.4 1.3l-.3 3.4-3.2-.3.3-3.5Z"/>
  <path fill="#D4D4D4" d="m39.4 58.45 1.6 1.7-.4 3.9.5.1.4-4c.1-.8-.9-1.5-2.1-1.7Z"/>
  <path fill="#FEFEFE" fill-rule="evenodd" d="m41.3 60.25-.4 3.9-4.5-.5.4-3.9c.1-.8 1.2-1.4 2.4-1.3 1.3.1 2.2 1 2.1 1.8Zm-.7.4c.1-.9-.6-1.2-1.5-1.3-.9-.1-1.7.2-1.7.9l-.4 3.4 3.3.4.3-3.4Z" clip-rule="evenodd"/>
  <path fill="#E0E0E0" d="M37.4 60.25c0-.7.8-1 1.7-.9.9.1 1.6.4 1.5 1.3l-.3 3.4-3.3-.4.4-3.4Z"/>
  <path fill="#E0E0E0" d="M39.1 59.35s1.5.2 1.4 1.3l-.4 3.4h.2l.3-3.4s.3-1.1-1.5-1.3Z" opacity=".4" style="mix-blend-mode:multiply"/>
  <path fill="#E0E0E0" d="m44.9 58.15-10.5-1.1.1-.3 10.4 1.1v.3Z"/>
  <path fill="#E0E0E0" d="m36.7 57.25-1.4-.2-.7 6.4 1.4.1.7-6.3Z"/>
  <path fill="#FEFEFE" d="m36.6 57.25-1.4-.2-.7 6.4 1.4.1.7-6.3Z"/>
  <path fill="#E0E0E0" d="m44.1 58.05-1.4-.2-.7 6.4 1.4.1.7-6.3Z"/>
  <path fill="#FEFEFE" d="m44 58.05-1.4-.2-.7 6.4 1.4.1.7-6.3Z"/>
  <path fill="#E0E0E0" d="M41.9 64.25h-.1l.7-6.4h.1l-.7 6.4Z"/>
  <path fill="#969696" d="M39.1 59.35c-.267-.067-.5-.067-.7 0h.1c-.7.1-.9.8-.9 1 0 .1-.3 3.4-.3 3.4l-.4-.1 3.3.4.4-3.4c.1-.9-.6-1.2-1.5-1.3Z"/>
  <path fill="#E0E0E0" d="M37.6 60.35c0-.2.2-.9.9-1h-.1c-.6.1-1 .4-1.1.9l-.4 3.4.4.1s.3-3.3.3-3.4Z"/>
  <path fill="#FEFEFE" d="M34.5 55.35s2.5.5 3.6-.7c.5-.5 1.2-.6 1.7-.5h.5l-.1.5h-.4c-.6-.1-1.2 0-1.7.5-1.1 1.2-3.6.7-3.6.7v-.5Z"/>
  <path stroke="#D4D4D4" stroke-width=".4" d="M38.1 54.65c.5-.5 1.2-.6 1.7-.5m-5.3 1.2s2.5.5 3.6-.7"/>
  <path fill="#FEFEFE" d="M45 56.55s-2.5-.1-3.4-1.5c-.3-.6-.9-.8-1.5-.9l-.2.1-.3.3.5.1c.5 0 1.1.2 1.5.9.8 1.4 3.4 1.4 3.4 1.4v-.4Z"/>
  <path stroke="#D4D4D4" stroke-width=".4" d="M45 56.55s-2.5-.1-3.4-1.5"/>
  <path fill="#E0E0E0" d="m45 57.65-10.7-1.2v-.3l10.7 1.2v.3Zm-2.5.2.8.7.8.1v-.6l-1.6-.2Zm-7.4-.8.8.7.8.1v-.6l-1.6-.2Z"/>
  <path fill="#FEFEFE" d="m44.7 57.95-10.2-1.1v-.4l10.3 1.2-.1.3Z"/>
  <path fill="#FCFAEC" d="m43.4 64.15-1.6-.1.7-6.2 1.5.2-.6 6.1Z" style="mix-blend-mode:multiply"/>
  <path fill="#FEFEFE" d="M35.9 55.75s1.8-.4 2.2-.8c.4-.4.6-.7 1.8-.5 1.1.1 1.5.9 1.8 1.1.4.2 2 1.6 2 1.6l-7.6-.8-.2-.6Z"/>
  <path fill="#595959" d="m30.7 67.65 3.6.4-.2 2.3-3.6-.4.2-2.3Z"/>
  <path stroke="#595959" stroke-width=".4" d="m34.1 70.25-3.6-.4.2-2.2 3.6.4-.2 2.2Z"/>
  <path fill="#FCFAEC" d="m30.7 67.65 3.6.4-.2 2.2-3.6-.4.2-2.2Z"/>
  <path fill="#595959" d="M34 70.15v-.1h-.1l.1.1Z"/>
  <path fill="#0D0D0D" d="M33.8 70.15h.2l-.1-.1-.1.1Z"/>
  <path fill="#303030" d="m33.8 70.15.1-.1-.1-.1v.2Z"/>
  <path fill="#8C8C8C" d="m34 70.05-.2-.1.1.1h.1Z"/>
  <path fill="#595959" d="M34.2 68.05v.2l-.1-.1.1-.1Z"/>
  <path fill="#8C8C8C" d="M34 68.05h.2l-.1.1-.1-.1Z"/>
  <path fill="#303030" d="m34 68.05.1.1-.1.1v-.2Z"/>
  <path fill="#0D0D0D" d="M34.2 68.25H34l.1-.1.1.1Z"/>
  <path fill="#595959" d="M30.6 69.85v-.2l.1.1-.1.1Z"/>
  <path fill="#0D0D0D" d="M30.7 69.85h-.1l.1-.1v.1Z"/>
  <path fill="#303030" d="M30.7 69.85v-.1l.1-.1-.1.2Z"/>
  <path fill="#8C8C8C" d="M30.6 69.65h.2l-.1.1-.1-.1Z"/>
  <path fill="#303030" d="M31.2 68.45v-.3l-.1.1v-.1.2H31l.1-.3v.1l.2-.1-.1.4Z"/>
  <path fill="#303030" d="M31.4 68.45h-.1v-.1h-.1l.1-.2v.2h.1v-.2.3Zm.1 0h-.1v-.1c.067.067.1.067.1 0v-.1h-.1v-.1h.1v.3Zm.1 0v-.2.1c0 .067.033.1.1.1h-.1Z"/>
  <path fill="#303030" fill-rule="evenodd" d="M32 68.45h-.2l-.1-.1c0-.067.033-.1.1-.1 0-.067.034-.1.1-.1.067 0 .1.033.1.1v.2Zm0-.2h-.1c-.066-.067-.1-.067-.1 0v.2h.2v-.2Zm.2.2v.1-.2h.1v.1h-.1Zm0-.1v.1h.1c0-.067-.033-.1-.1-.1Z" clip-rule="evenodd"/>
  <path fill="#303030" d="M32.3 68.45v-.1h.1v.1l-.1-.1v.1Zm.4.1-.1-.1c0-.067.033-.1.1-.1 0-.067.033-.1.1-.1v.1c-.067-.067-.1-.067-.1 0v.1c0 .067.033.1.1.1h-.1Z"/>
  <path fill="#303030" fill-rule="evenodd" d="M33 68.65v-.1h-.2v-.1l.1-.2.1.4Zm0-.3-.1.1h.1v-.1Zm.1.3H33l.1-.4v.1l.1.1v.1h-.1v.1Zm0-.2v.1h.1c0-.067-.033-.1-.1-.1Z" clip-rule="evenodd"/>
  <path fill="#303030" d="M33.2 68.65v-.3h.1l-.1.3Zm0 0 .1-.3v.2l.1.1h-.2Z"/>
  <path fill="#303030" fill-rule="evenodd" d="M33.5 68.65h-.1v-.3h.1c.067.067.1.133.1.2l-.1.1Zm0-.2c0-.067-.033-.1-.1-.1v.3c.067 0 .1-.033.1-.1v-.1Z" clip-rule="evenodd"/>
  <path fill="#303030" fill-rule="evenodd" d="M33.8 68.65h-.2v-.2l.1-.1c.067 0 .133.033.2.1v.1c0 .067-.033.1-.1.1Zm0-.2h-.1c-.067 0-.1.033-.1.1v.1h.2c0-.067.034-.1.1-.1 0-.067-.033-.1-.1-.1Zm-3 1h-.1v-.3h.1v.1c.067 0 .1.033.1.1h-.1v.1h.1v.1l-.1-.1Zm0-.2v.1-.1Z" clip-rule="evenodd"/>
  <path fill="#303030" d="M30.9 69.45v-.3l.2.1h-.2.2v.1h-.2c0 .067.033.1.1.1v.1l-.1-.1Zm.3.1h-.1v-.3l.1.2.1-.2-.1.3Z"/>
  <path fill="#303030" fill-rule="evenodd" d="M31.5 69.55h-.2v-.3h.1c.067 0 .133.033.2.1v.1l-.1.1Zm0-.2c0-.067-.033-.1-.1-.1v.1h-.1v.1l.1.1h.1c0-.067.033-.1.1-.1 0-.067-.033-.1-.1-.1Z" clip-rule="evenodd"/>
  <path fill="#303030" d="m31.9 69.55-.1.1v-.1h-.1l.1-.3v.3h.1v-.2.2Zm.1 0c-.067 0-.1-.033-.1-.1s.033-.1.1-.1v.2h.1v.1c-.067 0-.1-.033-.1-.1Z"/>
  <path fill="#303030" fill-rule="evenodd" d="M32.4 69.65h-.1c-.067 0-.1-.033-.1-.1-.067 0-.1-.033-.1-.1l.1-.1h.1c.067 0 .1.033.1.1.067 0 .067.033 0 .1v.1Zm0-.2c0-.067-.033-.1-.1-.1l-.1.1v.1c0 .067.033.1.1.1l.1-.1v-.1Z" clip-rule="evenodd"/>
  <path fill="#303030" d="M32.6 69.65v-.2h-.1v.2h-.1l.1-.3c.067 0 .1.033.1.1v-.1.3Z"/>
  <path fill="#303030" fill-rule="evenodd" d="M32.8 69.65c0 .067-.033.1-.1.1v-.3h.1v.2Zm0-.1-.1.1h.1v-.1Z" clip-rule="evenodd"/>
  <path fill="#303030" d="m33.2 69.75.1-.2h-.1l.1-.1v.3h-.1Z"/>
  <path fill="#303030" fill-rule="evenodd" d="m33.5 69.75-.1-.1-.1.1v-.1l.1-.2h.1v.3Zm0-.2-.1.1h.1v-.1Z" clip-rule="evenodd"/>
  <path fill="#303030" d="m33.6 69.55-.1-.1h.1v.1Z"/>
  <path fill="#303030" fill-rule="evenodd" d="m33.9 69.75-.1.1c-.067 0-.1-.033-.1-.1-.067 0-.1-.033-.1-.1l.1-.1h.2l.1.1-.1.1Zm0-.2h-.2v.2h.2v-.2Z" clip-rule="evenodd"/>
  <path fill="#303030" d="M32.1 68.85v.2H32l.1-.2Z"/>
  <path fill="#303030" fill-rule="evenodd" d="M32.3 69.05h-.1v-.2h.1v.2Zm0-.2h-.1v.2c.067 0 .1-.033.1-.1v-.1Z" clip-rule="evenodd"/>
  <path fill="#303030" d="m32.4 69.05-.1-.1v-.1h.1v.2Zm.1 0v-.2h.1l-.1.2Z"/>
  <path fill="#303030" fill-rule="evenodd" d="M32.7 69.15v-.3l.1.3h-.1Zm-.1-.2v.1h.1l-.1-.1Z" clip-rule="evenodd"/>
  <path fill="#595959" d="M30.8 67.75v.1h.1l-.1-.1Z"/>
  <path fill="#8C8C8C" d="M31 67.75h-.2l.1.1.1-.1Z"/>
  <path fill="#303030" d="m31 67.75-.1.1.1.1v-.2Z"/>
  <path fill="#0D0D0D" d="m30.8 67.85.2.1-.1-.1h-.1Z"/>
  <path fill="#1C1C1A" d="M63.4 84.35c-.4 2.1-7.2 2.6-15.2 1.2-8-1.4-14.2-4.2-13.8-6.3.4-2.1 7.1-2.6 15.1-1.2 8 1.4 14.2 4.2 13.9 6.3Z" opacity=".3"/>
  <path fill="#F5F6F7" d="M39.8 57.25c.7-.2 1.9-.5 1.9-.5s3.6-.8 4.3 2.6c.6 2.4-1.9 3.7-2.7 3.9-.4.2-1.5.5-3.3.5-1.2 0-2.2-.1-3.1-.2-.733-.133-1.367-.366-1.9-.7-.8-.5-1.5-1.2-1.9-2.1"/>
  <path stroke="#050505" stroke-linecap="round" stroke-linejoin="round" stroke-width=".5" d="M39.8 57.25c.7-.2 1.9-.5 1.9-.5s3.6-.8 4.3 2.6c.6 2.4-1.9 3.7-2.7 3.9-.4.2-1.5.5-3.3.5-1.2 0-2.2-.1-3.1-.2-.733-.133-1.367-.366-1.9-.7-.8-.5-1.5-1.2-1.9-2.1"/>
  <path fill="#0A0C0F" d="M33.1 60.75c.4.9 1.1 1.6 1.9 2.1.533.333 1.167.567 1.9.7.9.1 1.9.2 3.1.2 1.8 0 2.9-.3 3.3-.5.7-.2 2.9-1.3 2.8-3.4-.6.6-1.8 1.5-3 1.6-2.5.4-7.5.5-8.4-1.3" opacity=".3"/>
  <path fill="#C02F2D" stroke="#050505" stroke-linecap="round" stroke-linejoin="round" stroke-width=".5" d="M54.9 63.35c-.7 4.7 2.5 9.2 7.2 10 4.7.8 9.2-2.5 10-7.2.8-4.7-2.4-9.2-7.2-10-4.7-.8-9.2 2.5-10 7.2Z"/>
  <path fill="#050505" stroke="#050505" stroke-linecap="round" stroke-linejoin="round" stroke-width=".5" d="M41.5 78.95s-.3 1.6-2.5 1.8l10.4 1.7.3-2.2c.2-1.1.5-3.4-3.6-4.1-3.9-.6-3.9.8-4.6 2.8Z"/>
  <path fill="#4E69B1" stroke="#050505" stroke-linecap="round" stroke-linejoin="round" stroke-width=".5" d="m52.5 71.55-2.3 9-9.5-1.4.8-9.1c.1-1.3.4-4.9 6.4-3.8 5.2 1 4.8 4.1 4.6 5.3Z"/>
  <path fill="#0A0C0F" d="M41.9 69.05c-.7 2.2-1 10.2-1 10.2l2.3.3 1.6-13.5c-.4.1-2 0-2.9 3Z" opacity=".3"/>
  <path fill="#050505" stroke="#050505" stroke-linecap="round" stroke-linejoin="round" stroke-width=".5" d="M50.4 80.35s-.3 1.7-2.6 1.9l10.5 1.7.3-2.2c.2-1.2.5-3.5-3.7-4.1-3.9-.7-3.8.7-4.5 2.7Z"/>
  <path fill="#4E69B1" stroke="#050505" stroke-linecap="round" stroke-linejoin="round" stroke-width=".5" d="m61.3 73.05-2.3 9-9.5-1.4.8-9.1c.1-1.3.5-4.9 6.4-3.8 5.3 1 4.8 4.1 4.6 5.3Z"/>
  <path fill="#0A0C0F" d="M50.7 70.55c-.7 2.2-1 10.2-1 10.2l2.4.3 1.5-13.5c-.3.1-2 0-2.9 3Z" opacity=".3"/>
  <path fill="#F5F6F7" stroke="#050505" stroke-linecap="round" stroke-linejoin="round" stroke-width=".5" d="M54.1 56.05c-5.1-.3-6.9.1-8.2.2-1.7.2-3.7 1.5-3.8 3.2-.1 1.6-.4 2.7-1.6 6.2-1.1 3.4-2.7 5.4-2.7 6.1.5 1.9 7.7 4.7 9.9 5.2 6.2 1.3 9.5.1 13.8.8 3.3.5 3.9.1 4.2-.3 1.2-1.1-.9-18-.9-18s-.3-.6-1.5-1.3c-2-1.1-7-1.9-9.2-2.1Z"/>
  <path stroke="#050505" stroke-linecap="round" stroke-linejoin="round" stroke-width=".5" d="M55.9 71.05c-.1 2.3 1.3 3.6 3 3.9 1.8.3 3.3-.5 3.4-2.8l.2-2.5-6.5-1-.1 2.4Z"/>
  <path fill="#EE3D3B" d="m55.9 69.85 6.6 1.1Z"/>
  <path stroke="#050505" stroke-linejoin="round" stroke-width=".5" d="m55.9 69.85 6.6 1.1"/>
  <path fill="#050505" d="M50.6 68.15c0 .4-.3.6-.7.6-.4-.1-.6-.4-.6-.8s.3-.6.7-.6c.4.1.6.4.6.8Zm-.7 2.9c0 .3-.4.6-.7.5-.4 0-.7-.4-.6-.8 0-.3.3-.6.7-.5.3 0 .6.4.6.8Zm-1 2.8c0 .4-.3.6-.7.6-.3-.1-.6-.5-.6-.8 0-.4.3-.7.7-.6.4.1.6.4.6.8Z"/>
  <path fill="#FEFEFE" d="M49.2 65.45s-.1 1.8-1.3 5.1c-1.1 3.4-1.4 5.8-1.4 5.8"/>
  <path stroke="#050505" stroke-linecap="round" stroke-linejoin="round" stroke-width=".5" d="M49.2 65.45s-.1 1.8-1.3 5.1c-1.1 3.4-1.4 5.8-1.4 5.8"/>
  <path fill="#9FC8EA" d="m49.5 65.05-.5-.2-.4-5.2s-.1-3.5 5.2-2.9c4.7.6 1.6 4.1-.6 5.5-1.5.9-3.7 2.8-3.7 2.8Z"/>
  <mask id="g" width="8" height="11" x="38" y="63" maskUnits="userSpaceOnUse" style="mask-type:luminance">
    <path fill="#fff" d="m41.49 63.28-3.43 8.26 5.12 1.51 2.77-7.4-4.46-2.37Z"/>
  </mask>
  <g mask="url(#g)">
    <path stroke="#050505" stroke-linecap="round" stroke-linejoin="round" stroke-width=".5" d="M35.4 66.15c-.6 2.2.5 3.7 2.2 4.4 1.7.7 3.4.2 4-2l.7-2.3-6.2-2.4-.7 2.3Z"/>
    <path fill="#EE3D3B" d="m35.6 64.95 6.4 2.5Z"/>
    <path stroke="#050505" stroke-linejoin="round" stroke-width=".5" d="m35.6 64.95 6.4 2.5"/>
  </g>
  <path fill="#DFDFDF" d="M63.4 70.65s.2 2 .1 3.6c-.1 1.5-.2 3.6-.2 3.6s2.3.5 2.7-1c.3-1.5-.2-6.9-.2-6.9s-1.7.9-2.4.7ZM49 67.25c-.1.7.4-.1.8-.4.3-.4.4-.8.4-.8s3.4-.8 4.5-1l-.4-.6s2.2-.2 2.7-.2c.4-.1.1-5.9-.1-6.9 0 0-.7 2.5-2.1 3.7-1.4 1.3-4.2 2.8-4.7 3.4-.6.7-.8 1.6-1.1 2.8Z" style="mix-blend-mode:multiply"/>
  <path fill="#F5F6F7" d="M57 57.75c-.2 1.8-1 6-1 6l-4-.2.7 1.1-3.5.9.1-.7s2.1-2.2 3-2.7c.8-.4 3.7-2.5 3.9-4.9"/>
  <path stroke="#050505" stroke-linecap="round" stroke-linejoin="round" stroke-width=".5" d="M57 57.75c-.2 1.8-1 6-1 6l-4-.2.7 1.1-3.5.9.1-.7s2.1-2.2 3-2.7c.8-.4 3.7-2.5 3.9-4.9"/>
  <path fill="#DFDFDF" d="M48.7 57.15s-3.2 2.6-4.3 5.2l1.9.5s-.9.2-.9.4c.1.2 2.2 1.9 2.5 2.2.4.4-.1 1.5.3 1.5.3.1.1-1.4.5-1.4.3.1-.3-1.6-.3-1.6s-1.2-3-.5-4.2c.7-1.2.8-2.6.8-2.6Z" style="mix-blend-mode:multiply"/>
  <path fill="#F5F6F7" d="M49.1 56.65c-1.8 1.5-3.7 5.3-3.7 5.3l2.1.6-.6.4 2.2 2.7.2-1s-.7-2.3-.8-3.1c-.1-.8.3-3.3 1.4-4.6"/>
  <path stroke="#050505" stroke-linecap="round" stroke-linejoin="round" stroke-width=".5" d="M49.1 56.65c-1.8 1.5-3.7 5.3-3.7 5.3l2.1.6-.6.4 2.2 2.7.2-1s-.7-2.3-.8-3.1c-.1-.8.3-3.3 1.4-4.6"/>
  <path fill="#DFDFDF" d="M48.9 66.35s-.6 1.9-1.2 3.1c-.5 1.2-.8 2.5-1.1 4-.4 1.5-.7 2.9-.7 2.9l.6-.2s.9-3.5 1.5-5.5c.6-2.1.9-4.3.9-4.3Zm-9.9 4.6s2.4.4 3.2-2.1c.9-2.6.3-2.6.3-2.6s-.1.4-.5 1.5c-.4 1.2-.6 2.3-3 3.2Zm16.9-2.3v1.1l5.1 1.1s-3.8-.3-4.2-.3c-.4 0-.5 1.6-.3 2.5 0 0 1.1 2 2.6 2.2 1.5.2 3.1-.9 3.1-.9s-.9 1.6-3.2 1.5c-2.2-.1-4-2-4-4.4 0 0 .2.6.5.9.2.4-.2-3.5.4-3.7Z" style="mix-blend-mode:multiply"/>
  <path fill="#EE3D3B" stroke="#050505" stroke-linecap="round" stroke-linejoin="round" stroke-width=".5" d="M61.2 60.25c-4.7 3.4-.9 10.1 2.9 9.7 7.5-.8 4-8.2 4-8.2s-1.6-4.2-6.9-1.5Zm-19.1-.8c-.1 1.3-.3 2.2-1 4.4 0 0-.8 2.6 0 .1.9-2.5 6.9-7.8 6.9-7.8-.2-.1-.9.3-1.3 0-.267.067-.533.1-.8.1-1.7.2-3.7 1.5-3.8 3.2Z"/>
  <path fill="#DFDFDF" d="M64.1 59.55s-2.7-.2-4 2.2c0 0 1.4-.5 2.1 1.2.7 1.7 0 3.4 1.1 4.7 1.2 1.3.7 2.5.1 2.4 0 0 .3.7 1.4.3 1.2-.4 1.6-.5 1.6-.5l1.7-1.4 1-2.2-1.2-5.7-3.3-1h-.5Zm-16.4-3s-4.7 6.7-5.4 7.5c-.8.9-.7 1.8-.7 1.8l-.9-.4.5-1.9 6.5-7Z" style="mix-blend-mode:multiply"/>
  <path fill="#AB795A" stroke="#050505" stroke-linecap="round" stroke-linejoin="round" stroke-width=".5" d="M70.4 71.15c.5.5 1.5 1.7 1.5 3.1.1 1.2-.6 2.3-1.6 2.8-1.3.5-3 0-3-.9-.1-.4-.2-.8-.4-1.2-.2-.5-.6-1.2-.7-1.4-.3-.8-.6-2.4.9-3.1 1.9-.9 3.3.7 3.3.7Z"/>
  <path fill="#AB795A" d="m66.7 73.05-1 1.6c-.2.4-.2 1 .2 1.2.4.2.7.1.9-.1.4-.2.7-.6.7-.6"/>
  <path stroke="#050505" stroke-linecap="round" stroke-linejoin="round" stroke-width=".5" d="m66.7 73.05-1 1.6c-.2.4-.2 1 .2 1.2.4.2.7.1.9-.1.4-.2.7-.6.7-.6"/>
  <path fill="#DFDFDF" d="M71.4 72.15s-1.6-.6-3.2.6c-1.5 1.1-1.7 1.7-1.7 1.7s-1.3-1.4-.6-2.7c.8-1.4 2.5-2.2 3.4-1.4 1 .8 2.1 1.8 2.1 1.8Z" style="mix-blend-mode:multiply"/>
  <path fill="#F5F6F7" stroke="#050505" stroke-linecap="round" stroke-linejoin="round" stroke-width=".5" d="M72 71.95c-.6-1.6-1.1-2.8-1.8-4.6-1.2-3.2-2.9-5-2.9-5-1.4-1.6-3.5-1.9-5-.8l-.5.4c-1.4 1-2 3-.5 5 0 0 1.5 2.1 2.3 4.3.6 1.4 1.3 3.3 1.3 3.3l7.1-2.6Z"/>
  <path fill="#0A0C0F" d="M72 71.95c-.6-1.6-1.1-2.8-1.8-4.6-1.2-3.2-2.9-5-2.9-5-1.4-1.6-3.5-1.9-5-.8l-.5.4a3.26 3.26 0 0 0-.5.4c.4.1.6.1.6.1s2.6-.5 4.6 2.9c1.3 2.2 2.5 5.5 3.1 7.5l2.4-.9Z" opacity=".3"/>
  <path fill="#AB795A" stroke="#050505" stroke-width=".5" d="M77.2 48.55c-4.3 10-13.3 18.7-27 13.2-16.2-6.6-14.4-15.6-10.2-25.5 4.3-10 15.9-14.6 26-10.3 10 4.4 15.5 12.7 11.2 22.6Z"/>
  <path fill="#DFDFDF" d="M77.2 48.55c4.3-9.9-1.2-18.2-11.2-22.6-4.8-2-9.9-2-14.4-.5l-.3.6s3.6 13 4.2 15.2c.6 2.3 1.4 5.8 2.9 8.2 1.5 2.4 2.5 3.3 1.7 5.6.067 0 .067 0 0 0 0 0-3.2 7.6-12.6 4.8 0 0 .1.4.4.9.733.333 1.5.666 2.3 1 13.7 5.5 22.7-3.2 27-13.2Zm-30.4-.7s-1.6 1.3-2.8.7c-1.3-.5-1-2.3-1-2.3s.5 1.1 1.1 1.4c.6.2 2.7.2 2.7.2Z" style="mix-blend-mode:multiply"/>
  <path stroke="#050505" stroke-linecap="round" stroke-linejoin="round" stroke-width=".5" d="m43 46.35.5.9c.3.3.8.5 1.2.5l2 .1"/>
  <path stroke="#050505" stroke-linecap="round" stroke-width=".5" d="M55.7 43.65s1-.1 1.6.5c.6.8.8 1.8.8 1.8M43 38.15s-.7-.8-1.5-.8c-1 .1-1.9.7-1.9.7"/>
  <path fill="#050505" d="M39.8 41.25c-.4.8-.2 1.6.3 1.8.5.3 1.2-.2 1.5-1 .3-.7.2-1.5-.3-1.8-.5-.2-1.2.3-1.5 1Z"/>
  <path fill="#FEFEFE" d="M41.4 41.05c-.1.2-.2.2-.3.2-.1-.1-.1-.2-.1-.3.1-.2.2-.3.3-.2.1 0 .2.2.1.3Z"/>
  <path fill="#FEFEFE" d="M41.4 41.05c-.1.2-.2.2-.3.2-.1-.1-.1-.2-.1-.3.1-.2.2-.3.3-.2.1 0 .2.2.1.3Z"/>
  <path fill="#050505" d="M55.7 48.15c-.3.9-1.1 1.4-1.7 1.1-.6-.2-.7-1.1-.3-2 .3-.9 1.1-1.4 1.7-1.1.6.2.7 1.1.3 2Z"/>
  <path fill="#FEFEFE" d="M55.7 47.05c-.1.2-.2.2-.3.2-.1-.1-.2-.2-.1-.4 0-.1.2-.2.3-.2.1.1.2.2.1.4Z"/>
  <path fill="#221E1F" d="M76.6 50.65s3.6-.5-.1 4.5c-1.9 2.5-6.4 4.8-6.4 4.8l6.5-9.3Z"/>
  <path fill="#050505" d="M69.3 37.95c-.4-.2-2.3 11.7 2.7 14.3 2.7-3.7 1.7-8.5 1.7-8.5 1 4.2 0 7.8-.8 8.9.9.5 3.3 1.6 4.9 1.7 0 0 11-21-12.8-30.5 0 0-13.8-6.8-27.6 10.3 0 0-.1.8 1.1 2.7.9 1.4 5.7-7.2 6.8-6.2"/>
  <path fill="#050505" d="M48.2 23.55s19.5-8.6 29.8 8.5c10.3 17.2-29.8-8.5-29.8-8.5Zm19.1 38.9s-1.1.3-2.1-.3c-.4-.3 1.5-1.1 1.5-1.1l.6 1.4Z"/>
  <path fill="#050505" d="M58.8 23.75s-9.7-5-21.1 11c0 0-.2 0 .5 1.5.6 1.2.6 1.3 1.4 2.1.8-2.2 2-3 6.5-5.3 0 0-4.8 2.5-5.3 6.2 8.5 7.1 16.1 2.5 16.1 2.5-.3-.1-1.5 5.7 4.1 6.8 2.2-3.4 2.8-8 2.8-8 .3 3.6-.3 5.9-1.5 8.4.6.4 2.5.6 3.7.5 0 0 9.6-19.1-7.2-25.7Z"/>
  <path fill="#050505" d="M66 49.45s5.2 2.6-.1 12.2l9.2-4.3s8-9.1 4-19.6c-3.9-10.4-6.2-4.8-6.2-4.8l-4.6.6-2.3 15.9Z"/>
  <path fill="#050505" d="M62.3 48.95s4.9 4.5 3.5 12.1c-.2 1.1 1.5 1.4 1.5 1.4s4.6-1.8 6.3-4.8c1.7-3-4.4-10.5-4.4-10.5l-6.9 1.8Zm-20.5-18.3c-3.4 1.4-5.7 3.7-5.5 3.4 3.8-6.5 10.8-8.3 10.8-8.3 6.8-.1-5.3 4.9-5.3 4.9Z"/>
  <path fill="#050505" d="M62.4 22.95c-2.4-.6-11.7-3.3-23 5.5 0 0 25.3-4.9 23-5.5Zm11.4 32.5c-.4 2.9-3.8 6.2-3.8 6.2s.6.1 3.8-2.2c3.1-2.3 4.6-6.3 4.6-6.3 2-10.4-3.8-4.5-4.6 2.3Zm2-26s9.7 8.1 4.2 20.1c0 0 .6-8.5-4.2-20.1Z"/>
  <path fill="#050505" d="M77.3 30.35c.6-.9 2.4-.1 2.4-.1-2.6 1.1-.9 3.3-.9 3.3 1.5 2.8-5.1 1.2-1.5-3.2Z"/>
  <path fill="#050505" d="M73 26.95c2.2.4.9-2.7.9-2.7 3.3 2.3 3.6 4.8 3.4 6.1.1 3.6-8.9-2.1-4.3-3.4Z"/>
  <path fill="#050505" d="M72.7 28.75c-.8-4.9-5.3-7.3-5.3-7.3s.4-.4 3.2 1.6c2.7 2 4.5 6.5 4.5 6.5 1.2 3.8-1.5 4.1-2.4-.8Z"/>
  <path fill="#AB795A" stroke="#050505" stroke-linecap="round" stroke-linejoin="round" stroke-width=".5" d="M38.6 48.95c-1.8.3-3 2-2.6 3.7.3 1.6 2 2.6 3.8 2.2 1.8-.3 3-2 2.7-3.6-.3-1.7-2.1-2.7-3.9-2.3Z"/>
  <path fill="#050505" d="M36.6 50.25c.3-.1.6.1.5.4-.2.4-.3 1-.1 1.6.5 1.4 2.3 1.1 2.3 1.1s0-.9.8-.9c0 0 .2.9 1 1.4.8.5-1 1-1 1s-3.1.7-4-1.8c-.5-1.5 0-2.3.5-2.8Z" opacity=".2" style="mix-blend-mode:multiply"/>
  <path fill="#F5F6F7" d="M33.1 60.75c-.6-1.2-.4-2.9.2-4.4.3-.8.9-2.6 1.6-3.6 2.6-.8 6.3 2.6 6.3 2.6s-1.3 1.6-1.4 1.9c-.1.6 0 1 0 1"/>
  <path stroke="#050505" stroke-linecap="round" stroke-linejoin="round" stroke-width=".5" d="M33.1 60.75c-.6-1.2-.4-2.9.2-4.4.3-.8.9-2.6 1.6-3.6 2.6-.8 6.3 2.6 6.3 2.6s-1.3 1.6-1.4 1.9c-.1.6 0 1 0 1"/>
  <path fill="#0A0C0F" d="M34.7 60.15c-.8-1.6 2.6-6.1 3.2-7-.9-.3-2.1-.7-3-.4-.7 1-1.3 2.8-1.6 3.6-.6 1.5-.8 3.2-.2 4.4" opacity=".3"/>
  <path fill="#FEC908" d="M38.4 48.35c-7.1-3.8-9-11.9-9.7-12.3-1.3-.7-3.5 1.4-5.6 5.4-2.2 4-3.3 6.7-1.4 7.7.9.5 8.5-2.5 15.6 1.2 5.8 3.1 5.8 4 6.3 3.8.2-.1.7-.5 1.1-1.2.4-.7.4-1.2.3-1.4-.2-.6-.8-.2-6.6-3.2Z"/>
  <path fill="#050505" d="M21.2 46.15h2.2c.3.1 1 .2 2 .2.133 0 .233-.067.3-.2l3.3-6.9c.1-.1.3-.2.4-.2l.3.2h.5c.1 0 .2.1.2.2.4 1.7.4 4.7-1.4 6.5-.067.067-.1.133-.1.2 0 .2.067.367.2.5 0 .067.033.1.1.1h.2c2.4.4 5.4 1.2 8.4 2.8 5.3 2.8 5.9 3.5 6.3 3.5l.2.2c.1.1.1.2 0 .3-.3.3-.6.6-.7.6-.5.2-.5-.7-6.3-3.8-7-3.7-14.6-.7-15.6-1.2-.9-.5-1.1-1.4-.8-2.8.1-.1.2-.2.3-.2Z" opacity=".1" style="mix-blend-mode:multiply"/>
  <path fill="#FDDA6A" d="M28.5 44.35c-2.1 3.9-5.1 6.4-6.8 5.5-2.2-.7-1.3-4.8.8-8.7 2.1-3.9 5.2-7.2 6.8-5.5 1.6 1.1 1.3 4.8-.8 8.7Z"/>
  <path fill="#FEC908" d="M27.3 43.65c-2.1 4-4.9 6.6-6.2 5.9-1.3-.7-.7-4.5 1.4-8.4 2.1-3.9 4.9-6.5 6.2-5.8 1.3.7.7 4.4-1.4 8.3Z"/>
  <path fill="#715C2E" d="M25.9 42.95c-1.4 2.8-3.2 4.7-3.9 4.3-.6-.4 0-2.9 1.4-5.6 1.5-2.7 3.2-4.7 3.9-4.3.7.4.1 2.9-1.4 5.6Z"/>
  <g opacity=".9">
    <path stroke="#FFF6CF" stroke-linecap="round" stroke-linejoin="round" stroke-width=".6" d="M24.1 39.15c0-.066.033-.1.1-.1"/>
    <path stroke="#FFF6CF" stroke-dasharray="1.11 1.11" stroke-linecap="round" stroke-linejoin="round" stroke-width=".6" d="M25 38.05c.8-1 1.7-1.8 2.3-2.2"/>
    <path stroke="#FFF6CF" stroke-linecap="round" stroke-linejoin="round" stroke-width=".6" d="M27.9 35.65h.2"/>
  </g>
  <path stroke="#FFF6CF" stroke-linecap="round" stroke-linejoin="round" stroke-width=".7" d="M35.4 46.95s-.2-.1-1.2-1c-.9-.9-1.5-1.7-1.9-2.2" opacity=".9"/>
  <path fill="#AB795A" stroke="#050505" stroke-linecap="round" stroke-linejoin="round" stroke-width=".5" d="M38.6 47.75c-1.5 0-2.2 1-1.5 2.2.6 1.2 2.3 2.2 3.8 2.1 1.4 0 2.1-1 1.4-2.2-.6-1.2-2.3-2.2-3.7-2.1Z"/>
  <path fill="#AB795A" stroke="#050505" stroke-linecap="round" stroke-linejoin="round" stroke-width=".5" d="M41.6 51.55c-.2-.4-.7-.7-1.2-.5-.5.2-.7.7-.5 1.2l.3 1c.2.5.7.7 1.2.5.5-.2.7-.7.5-1.2l-.3-1Z"/>
  <path fill="#AB795A" d="M46.5 58.25c-2.1-1.1-3.1-3.7-2.1-5.8 1.1-2.1 3.7-3 5.9-1.9"/>
  <path stroke="#050505" stroke-linecap="round" stroke-linejoin="round" stroke-width=".5" d="M46.5 58.25c-2.1-1.1-3.1-3.7-2.1-5.8 1.1-2.1 3.7-3 5.9-1.9"/>
  <path fill="#070505" fill-rule="evenodd" d="M71.5 39.05h.1c.4.2.6.6.5 1 0 .2-.033.4-.1.6v.1c0 .133-.033.3-.1.5l-.1.2c-.3 2.5-1.4 4.7-2.4 6.8-1 2.1-2.3 4.2-3.8 6.1 0 .067-.033.133-.1.2-.4.5-.8 1-1.1 1.5-.2.4-.5.5-.9.5l-.7-.1c-.2-.1-.4-.3-.5-.5-.1-.3-.1-.6.1-.8 2.5-2.9 4.5-6 5.9-9.3.267-.533.733-1.7 1.4-3.5l.1-.3c.067-.133.1-.233.1-.3 0-.2.033-.367.1-.5a87.42 87.42 0 0 1 .2-1.5c.1-.5.4-.8 1-.8h.1v.1h.2Zm-.3.4h-.1c-.2 0-.4.1-.4.4a20.71 20.71 0 0 0-.3 2c-.1.1-.1.3-.3.6-.3 1-1 2.8-1.3 3.6-1.5 3.5-3.6 6.6-6 9.5-.1.1-.1.3.1.4l.7.1c.1 0 .3-.1.4-.2.4-.6.9-1.4 1.2-1.8a35.069 35.069 0 0 0 3.8-6c1-2.1 2-4.3 2.4-6.6 0-.267.033-.533.1-.8.067-.2.133-.433.2-.7 0-.2-.1-.3-.3-.4h-.1v-.1h-.1Z" clip-rule="evenodd"/>
  <path fill="#E0CC2E" d="M71.7 39.95c0-.2-.1-.3-.3-.4h-.1c0-.067-.033-.1-.1-.1h-.1c-.2 0-.4.1-.4.4a20.71 20.71 0 0 0-.3 2c-.1.1-.1.3-.3.6-.3 1-1 2.8-1.3 3.6-1.5 3.5-3.6 6.6-6 9.5-.1.1-.1.3.1.4l.7.1c.1 0 .3-.1.4-.2.4-.6.9-1.4 1.2-1.8a35.069 35.069 0 0 0 3.8-6c1-2.1 2-4.3 2.4-6.6 0-.267.033-.533.1-.8.067-.2.133-.433.2-.7Z"/>
  <path fill="#A19535" d="m76 8.95-.6.3c-.533.4-.933.3-1.2-.3.7.2 1.3 0 1.8-.5.7-.6 1.5-1.1 2.2-1.6.8-.8 1.8-1.5 2.5-2.4.6-1 .5-1.9-.3-2.7-.4-.5-1-.4-1.9.3l-.4.4c-1.6 1.5-2.8 3.4-3.8 5.3-.2.4-.2.8-.1 1.2-.7-.2-.9-.6-.7-1.3.2-.7.4-1.4.8-2a192.26 192.26 0 0 1 1.9-3.3c.133-.2.267-.367.4-.5 1.4-2 3.7-1.7 4.8.5.3.7.2 1.4-.2 2-.4.7-1 1.2-1.6 1.7l-2.4 2c-.2.2-.6.3-.5.7l-.2.2c-.1-.3-.1-.3-.5 0Z"/>
  <path fill="#070505" d="M70.8 39.55h.1l-1.7-1.4c.2.7.8 1.3 1.6 1.4Z"/>
  <path fill="#262E59" d="M89.2 27.65c-.133 0-.167-.067-.1-.2 0 .067.033.134.1.2Z"/>
  <path fill="#070505" fill-rule="evenodd" d="M73.2 8.95c1 .3 1.5 1.2 1.3 2.3-.3 1.4-1.7 2.4-2.9 2.1-1-.2-1.6-1.2-1.3-2.3.3-1.3 1.7-2.3 2.9-2.1Zm-7.8.9c1.1-1.9 2.6-2.3 4.7-1.2.3.1.7.2 1 .5-1 .8-1.5 1.8-1.2 3.1 0 .1.2.3 0 .4-.1.1-.2 0-.2-.1-.467-.267-.9-.533-1.3-.8-.3-.2-2-1.1-2.7-1.3-.4-.1-.5-.2-.3-.6Zm-3.6 6.1c1-1.3 1.8-2.8 2.8-4.2.7-1 .8-1 1.9-.4.2.1 3.3 1.9 4.5 2.8 3.2 2.3 5.9 5.2 8.4 8.3.334.4.667.767 1 1.1 1.2 1.6 1.2 1.6-.7 2-.3 0-2.6.4-3.4.4-1.8.2-3.567.033-5.3-.5-.4-.2-1.9-.8-1.9-.8-.2-.1-.4-.1-.5-.2-.2-.2-.6-.2-.6-.5s.4-.4.7-.4c0-.067.034-.133.1-.2.067-.067.133-.1.2-.1-.4-.8.3-1.2.7-1.7.2-.3 1-.8-.1-.9-.4-.1-.3-.3-.1-.5.1-.2.3-.4.5-.6.5-.7.5-.7-.4-.9-.3-.1-.3-.3-.2-.5l.6-1.5c.1-.4-.1-.5-.5-.4-.6.2-1.1.6-1.6.9-.2 0-.2-.2-.2-.3 0-.6-.3-.5-.7-.2-.3.3-.6.9-1.3.5-.3-.2-.7.5-.9.8-.3.2-.4.5-.8.5-.3-.1-.5.3-.6.6-.4.8-.5.8-1.2.1a.654.654 0 0 0-.3-.3c-.9-.9-1-1.8-.1-2.9Zm-2 1.7c.3-.3.6-.1.8.2l.8 1.2c.8.733 1.567 1.433 2.3 2.1.133 0 .233-.1.3-.3h-.1c0-.067-.033-.133-.1-.2-.2-.6-.2-.6 0-1.2.3-.1.2.4.5.4.3-.6.4-1.4 1.1-1.9l.1.1c.1.3-.3.8.1.9.3.1.4-.4.6-.7.3-.3.5-.7.9-1 .2.6-.1 1-.3 1.4 0 .2-.2.3 0 .5.2.1.3-.1.4-.2.5-.7.9-1.4 1.6-1.8.2-.1.4-.3.6-.2-.1.9-.8 1.4-1.4 2a1.567 1.567 0 0 1-.3.4c-.1.1-.3.2-.2.4.1.2.3 0 .4 0 .5-.4 1-.5 1.7-.6-.2.7-.8 1-1.2 1.4-.2.1-.5.2-.4.5.1.3.4.1.6.1h.8c-.4.7-.9.9-1.5 1.2-.2.1-.5-.1-.5.3 0 .2.4.2.6.3.067 0 .167.033.3.1-.2.4-.5.3-.8.4-.133.133-.266.1-.4-.1H67c-.333-.067-.533-.2-.6-.4l-.1-.1c-.2 0-.4.1-.4.3 3.3 2.6 7.1 3.7 11.3 3.3 1.4-.2 2.8-.4 4.1-.8.2-.1.4-.2.4 0 0 .3-.3.3-.5.4-4.9 2.6-9.7 2-14.4-.8-2.9-1.7-5.1-4.1-7-6.8-.2-.3-.3-.5 0-.8Zm22 9.9c-2.5 1.3-5 2.4-7.6 3.2-2 .7-4.1 1.1-6.2.7-2-.4-3.5-1.5-5.1-2.6-2.5-1.6-4.5-3.7-6.2-6.1-.3-.4-.3-.8.2-1 .4-.1.6.2.7.5.4.3.6.7.9 1.1.467.534.967 1.067 1.5 1.6l.2.2.4.4c0-.2.033-.367.1-.5a.654.654 0 0 1-.3-.3c-.066 0-.1-.033-.1-.1l-.2-.2c-.133 0-.2-.067-.2-.2-.2-.2-.1-.4.1-.6.333-.6.867-.967 1.6-1.1.6-.1 1.1-.1 1.6.5.2.2.4.4.7.6 1.4 1.2 1.4 2.4.1 3.7-.3.3-.7-.1-1 .2 1.8 1.4 3.7 2.7 6.1 2.9 1.7.2 3.3-.3 5-.7 2.5-.8 4.9-1.9 7.2-3.2.3-.1.5-.5.8 0 .2.5.1.7-.3 1Zm-23.1-7c0-.067.033-.1.1-.1.9-1.3 1-1.3 1.9.1l.1.1c.2.5 1 .7.8 1.2-.1.3-.8.5-1.2.7-.066 0-.133.034-.2.1-.067 0-.133.033-.2.1l-.1.1c-.066.067-.1.133-.1.2-.2.7-.5.6-.9 0l-.1-.1c-1-1.1-1-1.2-.1-2.4Zm6.7 4.9c0-.5.3-.3.5-.1 1 .534 2 1.034 3 1.5 2 1 4.1 1.2 6.3 1.3.2 0 .6-.2.7.2 0 .3-.4.4-.7.4-.467.2-.967.4-1.5.6-.267.2-.533.267-.8.2l-2.2.4c-2.3.4-4.2-.5-6.1-1.8-.3-.2-.3-.4-.1-.7.5-.6.9-1.2.9-2Zm22.3 4.2c-1.4 1-1.4 1.1-2.4-.3-.5-.7-1.2-1.3-1.1-2.3 0-.2 0-.4.1-.6.4-.3.4-.7.2-1.2-.3-.4-.9-.8-1.4-.7-1.3.5-1.7-.4-2.2-1.2-1.267-1.4-2.5-2.833-3.7-4.3-1.1-1.2-2.3-2.3-3.5-3.5-.067 0-.133-.033-.2-.1a1.566 1.566 0 0 0-.4-.3c0-.066-.033-.133-.1-.2-.4-.3-.9-.6-1.5-1.1 1.6-.1 2.7-.7 3.2-2.1.3-.5.5-.1.7.1a26.681 26.681 0 0 1 4.7 4.4c1.3 1.4 2.4 2.9 3.4 4.5 1.7 2.5 3.1 5.2 4.4 7.9.2.4.1.7-.2 1Zm.9-1.3c-.3.1-.4-.1-.5-.3-.4-.7-.6-1.6-1-2.3-1.1-1.8-2-3.7-3.2-5.4-1.1-1.5-2.2-3.1-3.4-4.4-1.6-1.7-3.1-3.3-5-4.7-.3-.2-.5-.4-.5-.8-.067 0-.1-.033-.1-.1.1-.2.2-.3.3-.2.067 0 .133.033.2.1.6.467 1.2.967 1.8 1.5.6.5 1.9 1.6 2.2 2 .9.9 3.4 4 3.7 4.4.1.1 2.1 3 2.5 3.6a45.21 45.21 0 0 1 3 5.6c.067.133.1.3.1.5.1.2.1.4-.1.5Zm-5.3-.8c-.2 0-.4 0-.5-.2-.2-.6-.367-1.2-.5-1.8 0-.2.1-.3.1-.3.4.1 1.4 1.7 1.3 1.9-.1.2-.3.3-.4.4Zm.6-1.4c-.3-.1-.4-.4-.5-.6 0-.3.2-.3.3-.3a.895.895 0 0 1 .5.6c0 .1-.1.3-.3.3Z" clip-rule="evenodd"/>
  <path fill="#070505" fill-rule="evenodd" d="m89 28.55-.3.3c-.3.3.2.5-.4.9 0 0-.1.1-.2.1-.5.4-.8.6-1.3.9 0 .1-.5.3-.5.3-.3.1-.7 0-.8-.4-.4-.9-1-1.6-1.5-2.3-.3-.3-1.7-.5-2-.3-1.5.7-3 1.5-4.5 2.1-1.733.8-3.567 1.4-5.5 1.8h-1.2c-.3.1-1.3.4-2.4.1-.3-.1-.6-.3-.7 0-.2.3.2.4.5.5 0 .1 1.6 1.5 1.6 1.5l.4.4c.133.066.233.133.3.2.333.2.7.3 1.1.3.8 0 1.9.9 2 1.5 0 .9.6 1.3 1.2 1.6.2.1.6.1.5.5v.1c-.067 0-.133.033-.2.1s-.133.1-.2.1c-.067.067-.1.133-.1.2-.067 0-.133.033-.2.1-.6.3-1.1.9-2 .4-.4.2-.7.3-.7.3l-1-.3c1 .2 2.1-.6 2.3-1.7.2-1.1-.5-2.2-1.7-2.4-.8-.1-1.5.2-2 .8 0 0-.4-.1-.8-.3-.1 0-1-.4-1.1-.4-.6-.3-.6-.5-1.5-1-.7-.5-1.5-.9-2.2-1.3 1.067.6 2.2 1.133 3.4 1.6.2.1 1.4.6 1.5.6.2.1.5.4.7 0 .1-.2-.1-.2-.3-.3-.1 0-1.4-.5-1.9-.7-5-2.2-9.4-5.4-13.3-9.4l-1.2-1.4c-.5-.8-.3-1 .5-1.1.9-.1 1.8.1 2.6.1.2-.2.1-.3 0-.5.2-.6.6-1 1.3-.9.5.1.6-.2.8-.5.3-.4 1.4-1.7 1.4-1.8.2-.2-.1-.5-.2-.7-.2-.4 0-.7.2-.9.133-.133.333-.233.6-.3.2-.1.3.1.4 0 .1 0 .2-.3.3-.4.2-.2.8-1.1 1-1.4.4-.7 2-3.1 2.1-3.2l.2-.4c.2-.3.3-.4.6-.9.4-.5-.2-.3.2-.9 0 0 1.3-2 2.4-2.7l.1-.1.6-.2h.4c.4-.1.9 0 1.4.1.9.1 2.2.6 2.5.7.133.067.3.167.5.3.2.1.3.2.3.2-.067-.133-.067-.233 0-.3 0-.267.033-.567.1-.9.1-.3.6-1.3.7-1.4.7-1.5 1.6-2.9 2.6-4.2 1.3-1.8 3.3-1.8 4.7 0 1.2 1.4 1 2.9-.4 4.2-.9.8-1.9 1.6-2.9 2.4-.3.3-1.8 1.4-1.9 1.5l-.2.2-.1.1c1.8 1.3 3.5 2.8 5 4.4.1.1 1.7 2 1.7 2.1 1 1.2 3 3.8 3.5 4.5 1 1.5 1.8 3.1 2.6 4.8.1.1.7 1.5.7 1.6 0 0 .4.9.5 1 0 .2-.2.2-.6.4Zm-27.2 3.4s.9.6 2.1 1.3c-.733-.4-1.433-.834-2.1-1.3Zm10.5-23.9s-1.2-.4-1.7-.6c-.6-.2-1.4-.3-1.7-.3-.5-.1-1.2-.1-1.6.4 1.7.1 3 .7 4.2 1.2h.3c.2 0 .6-.2.8-.2.3-.2 0-.4-.3-.5Z" clip-rule="evenodd"/>
  <path fill="#070505" fill-rule="evenodd" d="M73.7 37.95c-.1.7-.5 1.3-1.1 1.6-.6.4-1.3.6-1.9.5-1.4-.3-2.3-1.6-2.1-3 .1-.6.5-1.2 1.1-1.6.5-.4 1.2-.6 1.9-.5 1.4.3 2.3 1.6 2.1 3Zm-2.2-2.5c-1.1-.2-2.2.6-2.4 1.7-.2 1.1.6 2.2 1.7 2.4 1.1.2 2.2-.6 2.4-1.7.2-1.1-.5-2.2-1.7-2.4Zm-.6 3.4c-.8-.2-1.2-.9-1.1-1.6.2-.7.9-1.2 1.6-1.1.8.2 1.2.9 1.1 1.6-.2.7-.8 1.2-1.6 1.1Zm1.1-1.2c.1-.4-.2-.9-.7-1-.5-.1-.9.2-1 .7-.067.2-.033.4.1.6a.97.97 0 0 0 .6.4c.5.1.9-.2 1-.7Z" clip-rule="evenodd"/>
  <path fill="#070505" fill-rule="evenodd" d="M56.4 21.95v.1c.1.2.2.5 0 .9l-.2.3-.3-.1h-.3c-.8-.1-1.5-.2-2.2-.1-.133 0-.233.034-.3.1.067 0 .133.067.2.2.267.4.633.833 1.1 1.3 4.2 4.4 8.7 7.5 13.7 9.6.3.1 1.3.5 1.4.5 0 0 .3.1.4.4.1.1.1.3 0 .6-.1.2-.4.4-.7.4h-.1c-.3-.1-2.5-1-2.5-1-1.733-.8-3.433-1.7-5.1-2.7l-1.8-1.2c-.1-.1-1.6-1.2-2-1.5-.1-.1-.5-.4-.8-.7-.5-.4-1.1-.9-1.2-1-.1-.1-1.6-1.5-2.6-2.6-.4-.4-.7-.8-.9-.9-.3-.4-.5-.8-.5-.8-.3-.7-.3-1.1.1-1.6.267-.333.733-.533 1.4-.6.3 0 2.1 0 2.8.1h.3l.1.3Zm-3.1.1c-.5 0-.9.1-1.1.4-.3.3-.3.5-.1 1 0 0 .2.4.5.7.5.6 3.3 3.4 3.4 3.5.2.2 1.9 1.6 2 1.7l2 1.5 1.8 1.1c1.6 1 3.267 1.9 5 2.7.4.2 2.2 1 2.4 1h.1c.067 0 .133-.067.2-.2 0-.1-.1-.2-.2-.2-.1-.1-1.1-.5-1.3-.6-5.4-2.2-9.9-5.5-14-9.6a20.06 20.06 0 0 1-1.1-1.4c-.6-.8-.4-1 .4-1.1.9-.1 1.8 0 2.7.1.1-.2 0-.3-.1-.5-.6-.1-2.4-.1-2.6-.1Z" clip-rule="evenodd"/>
  <path fill="#E0CC2E" d="M87.9 28.65c-1.3-2.7-2.7-5.4-4.4-7.9-.6-1-1.267-1.967-2-2.9-.4-.5-2.9-3.3-3.8-4.1-.733-.667-1.5-1.3-2.3-1.9-.2-.2-.4-.6-.7-.1-.5 1.4-1.6 2-3.2 2.1.6.5 2.5 2 2.7 2.2l3 3c1.2 1.467 2.433 2.9 3.7 4.3.8.9.9 1.7 2.2 1.2.5-.1 1.1.3 1.4.7.2.5.2.9-.2 1.2-.1.2-.1.4-.1.6-.1 1 .6 1.6 1.1 2.3 1 1.4 1 1.3 2.4.3.3-.3.4-.6.2-1Z"/>
  <path fill="#FCBC60" d="M63.6 20.45c0-.2 0-1.1.2-1.1.4 0 .2.3.6.3.3-.1.4-.5.4-.9.1-.4.2-.6.3-.7.067-.067.167-.1.3-.1.1 0 .1.1.1.1.1.3 0 .6.1.7l.1.1h.2c.4-.1 1-2 1.4-1.8.2.2-.3 1.2-.5 1.6 0 .2-.2.3 0 .5.2.1.3-.1.4-.2.5-.7 1-1.4 1.6-1.9.2-.1.5-.4.7-.3.2.2-.1.6-.2.8-.3.6-.8.9-1.3 1.4a1.569 1.569 0 0 1-.3.4c-.1.1-.3.2-.2.4.1.2.3 0 .4 0 .4-.3.9-.6 1.4-.7.2 0 .5-.1.5 0 .1 0 0 .1-.1.2-.1.2-.5.6-.7.8-.2.2-.4.367-.6.5-.2.1-.5.2-.4.5.1.3.4.2.6.1.3-.1.5-.1.7-.2.1 0 .2-.1.3.1 0 .067-.033.133-.1.2 0 .1-.4.5-.6.6-.3.2-.5.4-1 .5-.3.1-.5-.1-.5.3 0 .1.1.2.2.2h.4c.1.1.3 0 .3.2s-.2.3-.3.3c-.4.3-.7.2-.9 0H67c-.3-.2-.7-.4-.7-.5-.3-.2-1.5-1.2-1.6-1.3l-.8-.7s-.3-.2-.3-.4Z"/>
  <path fill="#9DCDED" d="M74.5 11.25c-.3 1.4-1.7 2.4-2.9 2.1-1-.2-1.6-1.2-1.3-2.3.3-1.3 1.7-2.3 2.9-2.1 1 .3 1.5 1.2 1.3 2.3Z"/>
  <path fill="#FEFEFE" d="M73.8 11.15c-.2 1-1.1 1.7-2 1.5-.7-.1-1.1-.8-.9-1.6.2-.9 1.2-1.6 2-1.4.7.2 1.1.8.9 1.5Z"/>
  <path fill="#9DCDED" d="M73.1 11.15c-.1.5-.6.9-1 .8-.4-.1-.6-.4-.5-.8.1-.5.6-.9 1.1-.8.3.1.5.5.4.8Z"/>
  <path fill="#A19535" fill-rule="evenodd" d="M73.2 37.85c-.2 1.1-1.3 1.9-2.4 1.7-1.1-.2-1.9-1.3-1.7-2.4.2-1.1 1.3-1.9 2.4-1.7 1.2.2 1.9 1.3 1.7 2.4Zm-2.3 1c.7.1 1.4-.4 1.6-1.1.1-.7-.3-1.4-1.1-1.6-.7-.1-1.4.3-1.6 1.1-.1.7.3 1.4 1.1 1.6Z" clip-rule="evenodd"/>
  <path fill="#264485" d="M83.3 18.05c-.4-.5-.9-1.1-1.2-1.5-.9-1.1-2-2.4-3-3.4-.3-.3-1.4-1.3-1.6-1.5-.8-.7-1.7-1.3-2.1-1.6-.2-.1-.4 0-.5.3l.1.3c.133.267.3.467.5.6 1.1.9 2.1 1.7 3 2.6.7.7 3 3.3 3.5 3.9.6.9 2.7 3.8 3 4.4l2.1 3.6c.4.7.6 1.6 1 2.3.1.2.2.4.5.3.2-.1.5-.2.4-.4l-.2-.4c-.7-1.6-1.5-3.3-2.3-4.8-.1-.2-.7-1.2-1.4-2.2-.3-.5-1.1-1.5-1.8-2.5Z"/>
  <path fill="#A19535" d="M82.4 25.25c.4.1 1.4 1.7 1.3 1.9-.1.2-.3.3-.4.4-.2 0-.4 0-.5-.2-.2-.6-.367-1.2-.5-1.8 0-.2.1-.3.1-.3Zm1.2-.2c.2.1.6.5.6.8 0 .1-.1.3-.3.3-.3-.1-.6-.6-.6-.8-.1-.2.1-.3.3-.3Z"/>
  <path fill="#E0CC2E" d="M82.1 26.55c-.3-.5-.5-.1-.8 0-2.3 1.3-4.7 2.4-7.2 3.2-1.7.4-3.3.9-5 .7-1.9-.1-3.5-1-4.9-2.1-.4-.2-1.4-.9-1.5-1-.6-.4-2.4-2.1-2.5-2.2l-.2-.2a32.953 32.953 0 0 1-1.5-1.6c-.2-.2-.9-.9-.9-1.1-.1-.2-.2-.4-.3-.5-.067-.067-.2-.067-.4 0-.067 0-.133.033-.2.1-.3.2-.3.5 0 .9 1.7 2.4 3.7 4.5 6.2 6.1 1.6 1.1 3.1 2.2 5.1 2.6 2.1.4 4.2 0 6.2-.7 2.6-.8 5.1-1.9 7.6-3.2.4-.3.5-.5.3-1Z"/>
  <path fill="#A19535" d="M81.9 26.95c-2.5 1.2-5 2.4-7.6 3.2-2 .7-4.1 1.1-6.2.7-2-.4-3.5-1.5-5.1-2.6-2.4-1.6-4.5-3.7-6.2-6.1-.067-.133-.1-.233-.1-.3-.3.2-.2.6 0 .9 1.7 2.4 3.7 4.5 6.2 6.1 1.6 1.1 3.1 2.2 5.1 2.6 2.1.4 4.2 0 6.2-.7 2.6-.8 5.1-1.9 7.6-3.2.4-.2.5-.5.3-.8l-.2.2Z"/>
  <path fill="#264485" d="M60.1 19.65c-.3-.2-.5-.2-.7 0-.2.134-.4.4-.6.8-.1 0-.5.7-.6.9-.2.3-.2.4-.1.7.1.2 1 1.2 1 1.3.2.2.4.2.5 0 .1-.1.8-.9 1.2-1 .5-.2.7-.2.8-.5.1-.2-.1-.4-.3-.6-.2-.2-1.1-1.4-1.2-1.6Zm18.3 8c0-.2-.4 0-.7.1-.4.1-.8.2-1.1.3-.3 0-1.5.1-2 .1-2.2 0-4.1-.5-5.7-1.3-1-.466-2-.966-3-1.5-.2-.2-.5-.4-.5.1 0 .8-.4 1.4-.9 2-.2.3-.2.5.1.7 1.9 1.3 3.8 2.2 6.1 1.8a9.962 9.962 0 0 0 1.5-.3c2.5-.3 5-1.5 5.4-1.6.4-.1.9-.3.8-.4Z"/>
  <path fill="#E0CC2E" d="M81.7 25.65c0-.2-.2-.1-.4 0-1.3.4-2.7.6-4.1.8-4.2.4-8-.7-11.3-3.3-.067-.066-.133-.1-.2-.1-.6-.5-2.5-2.2-2.6-2.4-.6-.5-1.1-.9-1.7-1.6-.2-.4-.5-.9-.8-1.3-.2-.2-.3-.3-.5-.3-.1.1-.4.3-.5.3-.1.2 0 .4.2.7 1.9 2.7 4.1 5.1 7 6.8 4.7 2.8 9.5 3.4 14.4.8.2-.1.5-.1.5-.4Z"/>
  <path fill="#A19535" d="M67.2 24.85c-2.9-1.7-5.1-4.1-7-6.9-.1-.1-.2-.3-.2-.4-.2.1-.3.2-.4.2-.1.2 0 .4.2.7 1.9 2.7 4.1 5.1 7 6.8 4.7 2.8 9.5 3.4 14.4.8.2-.1.5-.1.5-.4h-.1c-4.9 2.6-9.7 1.9-14.4-.8Z"/>
  <path fill="#E0CC2E" d="M71.1 9.15c0-.3-1.9-1-3.3-1.2-.3-.1-.5-.1-.8 0-.6.2-1.1 1.1-1.6 1.9-.2.4-.1.5.3.6 1.1.3 3.3 1.7 4 2.1.1.1.2.1.2.1.1-.1 0-.2 0-.4-.2-1.1.1-2.1.9-2.9.1-.1.2-.2.3-.2Z"/>
  <path fill="#264485" d="M70.9 25.35c1.9.6 3.9.8 5.9.6.6-.1 2.6-.4 2.9-.4 1.9-.4 1.9-.4.7-2-.333-.333-.666-.7-1-1.1-2.5-3.1-5.2-6-8.4-8.3-1.2-.9-4.3-2.7-4.5-2.8-1.1-.6-1.2-.6-1.9.4-1 1.3-1.6 2.3-2.6 3.8-.3.3-.8 1.2-.9 1.4-.2.3-.2.4-.1.6.2.4.4.8.8 1.2.1.2.3.4.4.5.5.5.8 1 1.1.7.1-.2.1-.3.2-.6s.1-.6.4-.5c.2 0 .3.4.4.3.3.1.2-.6.3-.9.1-.4.5-.8.9-.7.4.1.3.5.4.5.2 0 .5-.7.7-.9.1-.3.2-.4.4-.6.3-.2.7-.3.7.3 0 0 0 .5-.1.8v.1c.1 0 .2-.1.3-.3 0 0 .4-.4.5-.6.4-.3.7-.5 1.1-.6.4-.1.6 0 .5.4-.133.4-.3.8-.5 1.2 0 .1-.2.4-.6.8-.1.1-.2.1-.3.2 0 .2.1.1.3 0 .1 0 .4-.1.5-.1.3-.1.5 0 .6 0 .3.1.2.3.1.6-.1.1-.3.5-.6.8-.2.2-.5.4-.8.6-.1.1-.3.2-.1.2.3-.2.6-.3.8-.3.3 0 .4.1.5.2.2.2 0 .5-.2.7l-.5.5c-.1.1-.4.3-.7.4-.2 0-.4.1-.4.1.1.3.5.1.6.3 0 .1 0 .3-.1.4-.1.2-.6.5-.6.7 0 .2.1.3.2.3s.5.3.9.4c.3.1 1.4.6 1.8.7Z"/>
  <path fill="#264485" d="M70.9 25.35c1.9.6 3.9.8 5.9.6.6-.1 2.6-.4 2.9-.4 1.9-.4 1.9-.4.7-2-.333-.333-.666-.7-1-1.1-2.5-3.1-5.2-6-8.4-8.3-1.2-.9-4.3-2.7-4.5-2.8-1.1-.6-1.2-.6-1.9.4-1 1.3-1.6 2.3-2.6 3.8-.3.3-.8 1.2-.9 1.4-.2.3-.2.4-.1.6.2.4.4.8.8 1.2.1.2.3.4.4.5.5.5.8 1 1.1.7.1-.2.1-.3.2-.6s.1-.6.4-.5c.2 0 .3.4.4.3.3.1.2-.6.3-.9.1-.4.5-.8.9-.7.4.1.3.5.4.5.2 0 .5-.7.7-.9.1-.3.2-.4.4-.6.3-.2.7-.3.7.3 0 0 0 .5-.1.8v.1c.1 0 .2-.1.3-.3 0 0 .4-.4.5-.6.4-.3.7-.5 1.1-.6.4-.1.6 0 .5.4-.133.4-.3.8-.5 1.2 0 .1-.2.4-.6.8-.1.1-.2.1-.3.2 0 .2.1.1.3 0 .1 0 .4-.1.5-.1.3-.1.5 0 .6 0 .3.1.2.3.1.6-.1.1-.3.5-.6.8-.2.2-.5.4-.8.6-.1.1-.3.2-.1.2.3-.2.6-.3.8-.3.3 0 .4.1.5.2.2.2 0 .5-.2.7l-.5.5c-.1.1-.4.3-.7.4-.2 0-.4.1-.4.1.1.3.5.1.6.3 0 .1 0 .3-.1.4-.1.2-.6.5-.6.7 0 .2.1.3.2.3s.5.3.9.4c.3.1 1.4.6 1.8.7Z"/>
  <path fill="#232F64" d="M66.5 11.35c-1.1-.6-1.2-.6-1.9.4-1 1.3-1.6 2.3-2.6 3.8-.3.3-.8 1.2-.9 1.4-.2.3-.2.4-.1.6.2.3.4.7.7 1l5.4-6.9c-.3-.2-.6-.3-.6-.3Z"/>
  <path fill="#A19535" d="M67 7.95c-.6.2-1.1 1.1-1.6 1.9-.2.4-.1.5.3.6.4.1 1.1.4 1.7.8l2.3-2.8c-.6-.2-1.3-.4-1.9-.5-.3-.1-.5-.1-.8 0Zm17.5 17.3c.2.5.2.9-.2 1.2-.1.2-.1.4-.1.6-.1 1 .6 1.6 1.1 2.3 1 1.4 1 1.3 2.4.3.3-.3.4-.6.2-1-1.2-2.6-2.5-5.2-4.2-7.6l-2.6 2.5c.6.8.8 1.5 2 1 .5-.1 1.1.3 1.4.7Z"/>
  <path fill="#FCBC60" d="M63.9 23.65c-.3-.2-1-.9-1.2-1-.5-.3-.5-.4-1-.2-.7.2-1.4.6-1.7 1.2-.2.2-.3.4-.1.6l.4.4s1.4 1.3 1.5 1.4c0 0 .3.3.4.3 0 .1.9.7 1.2.9.2.1.4.2.6.1.5-.5.7-.9.9-1.4.2-.5.4-.8.1-1.3-.2-.2-.8-.7-1.1-1Z"/>
  <path fill="#CE9A46" d="M63.8 27.05c-.4-.2-1.3-.9-1.4-.9l-.4-.4c-.1-.1-1.6-1.4-1.6-1.4h-.1c0-.1-.3-.3-.4-.5v-.1c-.1.2-.2.3 0 .5l.4.4s1.4 1.3 1.5 1.4c0 0 .3.3.4.3 0 .1.9.7 1.2.9.2.1.4.2.6.1l.1-.1a1.165 1.165 0 0 1-.3-.2Z"/>
  <path fill="#E0CC2E" d="M78.2 7.15c.467-.333.933-.7 1.4-1.1.6-.5 1.2-1 1.6-1.7.4-.6.5-1.3.2-2-1.1-2.2-3.4-2.5-4.8-.5a3.26 3.26 0 0 0-.4.5 192.26 192.26 0 0 0-1.9 3.3c-.4.6-.6 1.3-.8 2-.2.7 0 1 .7 1.3.4.4.7.7 1.2.3.2-.1 2.5-1.8 2.8-2.1Z"/>
  <path fill="#A19535" d="M80.7 1.35c-1.2-1.4-3-1.2-4.2.4-.133.2-.266.367-.4.5a144.007 144.007 0 0 1-2 3.3c-.3.8-.6 1.3-.7 2.1-.2.6.1 1 .8 1.3-.3-.3-.3-.9 0-1.3 1-1.9 2.1-3.8 3.7-5.3.133-.133.3-.233.5-.3.9-.7 2.1-.8 2.5-.4 0 0 0-.1-.2-.3Z"/>
  <path fill="#070505" fill-rule="evenodd" d="M70.9 38.85c-.8-.2-1.2-.9-1.1-1.6.2-.8.9-1.2 1.6-1.1.8.2 1.2.9 1.1 1.6-.2.7-.9 1.2-1.6 1.1Zm-.6-1.5c-.1.6.2.9.7 1 .5.1.9-.1 1-.7.1-.5-.2-.9-.7-1-.6-.1-1 .2-1 .7Z" clip-rule="evenodd"/>
  <path fill="#264485" d="M85.5 30.65c-.4-.9-1-1.6-1.5-2.3-.3-.3-1.7-.5-2-.3-1.5.7-3 1.5-4.5 2.1-1.733.8-3.567 1.4-5.5 1.8h-1.2c-.3.1-2 .1-2.6-.1-.2 0-.9-.1-1.6-.3.7.5 1.3.9 1.5 1.1 0 0 2 1.7 2.1 1.8.4.3.6.5 1.1.5.8 0 2 .5 2.3 1.7.2.9.6 1.1 1.2 1.4.2.1.6.1.5.5v.1c0-.1.3-.2.4-.2l.2-.2s9-6.6 10.4-7.2c-.3.1-.6 0-.8-.4Z"/>
  <path fill="#232F64" d="M86.3 31.05c-.3.1-.6 0-.8-.4-.4-.9-1-1.6-1.5-2.3-.3-.3-1.7-.5-2-.3-1.5.7-3 1.5-4.5 2.1a27.355 27.355 0 0 1-5.3 1.7l-2.4 2.3c.2.1.4.2.4.3.4.3.6.5 1.1.5.8 0 2 .5 2.3 1.7.2.9.6 1.1 1.2 1.4.2.1.6.1.5.5v.1c0-.1.3-.2.4-.2l.2-.2s9-6.6 10.4-7.2Z"/>
  <path fill="#070505" d="m75.1 38.75-.2-.7c0 .1.2.1.3 0h.1l.2-.2c.1 0 7.1-5.1 9.9-6.9.1-.1.1-.2 0-.4.3-.2.8-.1.9-.1l.3.5c-1.3.5-9.9 6.7-10.8 7.4l-.7.4Z"/>
  <path fill="#E0CC2E" d="M68 34.65c-5.4-2.2-9.9-5.5-14-9.6l-1.2-1.4c-.5-.8-.3-1 .5-1.1.9-.1 1.8.1 2.6.1.2-.2.1-.3 0-.5-.7-.1-2.4-.1-2.6-.1-.5 0-.9.1-1.1.4-.3.3-.3.6-.1 1.1 0 0 .2.3.5.6.5.6 3.3 3.4 3.4 3.5.2.2 1.9 1.6 2 1.7.4.4 2 1.5 2 1.5l1.8 1.1a25.704 25.704 0 0 0 5 2.7c.4.2 2.3 1 2.4 1 .133 0 .233-.067.3-.2 0-.1-.1-.2-.2-.2s-1.1-.4-1.3-.6Z"/>
  <path fill="#A19535" d="M69.2 35.65c.133 0 .233-.067.3-.2 0-.1-.1-.2-.2-.2 0 0-.2-.1-.5-.2l-.3.3c.4.2.7.3.7.3Zm-8.6-17.9c-.2-.2-.3-.3-.5-.3-.1.1-.4.3-.5.3-.1.2 0 .4.2.7.333.4.667.833 1 1.3l.6-.8c-.3-.4-.5-.8-.8-1.2Z"/>
  <path fill="#232F64" d="M60.1 19.65c-.3-.2-.5-.2-.7 0-.2.134-.4.4-.6.8-.1 0-.5.7-.6.9-.2.3-.2.4-.1.7 0 .1.2.3.4.5l1.9-2.4c-.1-.2-.3-.4-.3-.5Z"/>
  <path fill="#A19535" d="M58.2 23.05c-.3-.3-.6-.7-.6-.8-.1-.2-.2-.4-.3-.5-.067-.067-.2-.067-.4 0-.067 0-.133.033-.2.1-.3.2-.3.5 0 .9.267.333.533.7.8 1.1l.7-.8Z"/>
  <path fill="#232F64" d="M87.1 25.75c.4.7.6 1.6 1 2.3.1.2.2.4.5.3.2-.1.5-.2.4-.4l-.2-.4c-.7-1.6-1.5-3.3-2.3-4.8-.1-.2-.7-1.2-1.4-2.2a4.893 4.893 0 0 0-.3-.5l-.7.7c.4.6.8 1.2.9 1.4l2.1 3.6Z"/>
  <path fill="#A19535" d="M81.2 26.05c.2-.1.5-.1.5-.4 0-.2-.2-.1-.4 0-1 .3-2 .5-3.1.6l-1.4 1.3c1.467-.2 2.933-.7 4.4-1.5Z"/>
  <path fill="#232F64" d="M77.6 28.05c.4-.1.9-.3.8-.4 0-.2-.4 0-.7.1-.4.1-.8.2-1.1.3h-.3l-.9.8c1.1-.3 2-.7 2.2-.8Z"/>
  <path fill="#A19535" d="M74.2 30.75c2.6-.8 5.1-1.9 7.6-3.2.4-.3.5-.5.3-1-.3-.5-.5-.1-.8 0-2.1 1.2-4.3 2.2-6.6 3l-1.7 1.6 1.2-.4Zm-2.8 8.8h-.1c0-.067-.033-.1-.1-.1h-.1c-.2 0-.4.1-.4.4a20.68 20.68 0 0 0-.3 2c-.1.1-.1.3-.3.6 0 .133-.033.233-.1.3l1.1-.1c.133-.4.234-.8.3-1.2 0-.267.033-.533.1-.8.067-.2.133-.433.2-.7 0-.2-.1-.3-.3-.4Z"/>
  <path fill="#264485" d="M72.6 8.55c-.2 0-.6.2-.8.2h-.3c-1.1-.5-2.3-1-3.8-1.1-.1-.1-.4 0-.4-.1 0 0 .2-.1.3-.2.4-.3.9-.3 1.3-.2.3 0 1.1.1 1.7.3.5.2 1.7.6 1.7.6.3.1.6.3.3.5Z"/>
  <path fill="#212F61" d="M68.9 7.15c-.4-.1-.9-.1-1.3.2-.1.1-.3.2-.3.2 0 .1.3 0 .4.1.8 0 1.6.2 2.2.4l.5-.6c-.5-.2-1.2-.3-1.5-.3Z"/>
  <path fill="#FDDDB4" d="M62.8 23.35c-.1.4-.5.7-.9.6-.3-.1-.6-.4-.5-.8 0-.4.4-.7.8-.6.4.1.6.4.6.8Z"/>
  <path fill="#050505" fill-rule="evenodd" d="m10.6 44.95 2.5-3.2c-1.8-.4-2.567-1.833-2.3-4.3.133-1.2.6-2.133 1.4-2.8.8-.733 1.8-1.033 3-.9 1.2.133 2.133.633 2.8 1.5.6.867.867 1.867.8 3-.133.867-.533 1.7-1.2 2.5l-3.5 4.6-3.5-.4Zm4-6c.533.067.833-.267.9-1 .133-.8-.067-1.2-.6-1.2-.6-.067-.933.267-1 1-.067.8.167 1.2.7 1.2Z" clip-rule="evenodd"/>
  <path fill="#FEFEFE" fill-rule="evenodd" d="m12.2 45.25 2.5-3.2c-1.8-.4-2.566-1.866-2.3-4.4.133-1.133.633-2.033 1.5-2.7.8-.733 1.767-1.033 2.9-.9 1.2.133 2.134.633 2.8 1.5.667.8.934 1.8.8 3-.066.867-.433 1.7-1.1 2.5l-3.6 4.6-3.5-.4Zm4.1-6c.534.067.834-.267.9-1 .067-.8-.166-1.233-.7-1.3-.533 0-.833.367-.9 1.1-.133.733.1 1.133.7 1.2Z" clip-rule="evenodd"/>
  <defs>
    <linearGradient id="c" x1="34.3" x2="31.1" y1="71.65" y2="71.25" gradientUnits="userSpaceOnUse">
      <stop stop-color="#fff"/>
      <stop offset=".478" stop-color="#858585"/>
      <stop offset="1" stop-color="#FEFEFE"/>
    </linearGradient>
    <linearGradient id="d" x1="33.7" x2="26" y1="73.55" y2="72.75" gradientUnits="userSpaceOnUse">
      <stop stop-color="#fff"/>
      <stop offset=".478" stop-color="#858585"/>
      <stop offset="1" stop-color="#FEFEFE"/>
    </linearGradient>
    <linearGradient id="e" x1="34.3" x2="26.6" y1="73.95" y2="73.15" gradientUnits="userSpaceOnUse">
      <stop stop-color="#fff"/>
      <stop offset=".478" stop-color="#858585"/>
      <stop offset="1" stop-color="#FEFEFE"/>
    </linearGradient>
  </defs>
</svg>
