<svg xmlns="http://www.w3.org/2000/svg" width="129" height="131" fill="none" viewBox="0 0 129 131">
  <path fill="#D38429" d="m96.275 68.47 3.7-3.4 3.6 58.4-3.5 3.3-3.8-58.3Z"/>
  <path fill="#F9A419" d="m22.975 130.67 77.1-3.9-3.8-58.1-77.2 4.6 3.9 57.4Z"/>
  <path fill="#1C1C1A" d="M1.175 126.07c0 .8 8.2 1.4 18.2 1.4 10.1 0 18.3-.6 18.3-1.4 0-.7-8.2-1.3-18.3-1.3-10 0-18.2.6-18.2 1.3Z" opacity=".3"/>
  <path fill="#694A22" d="M14.275 109.17c3.7-8.6 2.8-38.6 2.8-38.6-10.5 0-17.1 7.3-16.1 13.7.9 6.5 2.7 8.4 1.2 13.9-1.4 5.5 1.4 11.7 6.2 12.3.8.1 5.2.4 5.9-1.3Z"/>
  <path fill="#050505" fill-rule="evenodd" d="M8.375 110.77a6.33 6.33 0 0 1-2.8-1.1c-.8-.533-1.5-1.266-2.1-2.2-1.8-2.6-2.3-6.2-1.5-9.4 1-3.6.5-5.7-.2-8.7-.4-1.4-.7-3-1.1-5.1-.2-1.4-.067-2.833.4-4.3.533-1.4 1.3-2.7 2.3-3.9 1.5-1.7 3.4-3.1 5.7-4.1 2.4-1 5.1-1.6 8-1.6.1 0 .2.1.2.2s.2 7.6 0 16.1c-.1 5-.4 9.3-.8 12.9-.5 4.5-1.2 7.7-2 9.7-.333.8-1.367 1.3-3.1 1.5h-3Zm5.7-1.6c.8-2 1.5-5.2 2-9.6.4-3.6.6-7.9.8-12.9.2-7.7 0-14.6 0-15.9-5.4.1-10.2 2.1-13.1 5.5-2.1 2.4-3 5.3-2.6 7.9.3 2.1.7 3.7 1 5.1.4 1.5.7 2.8.8 4.2.1 1.5-.1 3-.6 4.7-.8 3.1-.3 6.6 1.4 9.1 1.2 1.7 2.8 2.8 4.6 3 1.3.2 5.1.2 5.7-1.1Z" clip-rule="evenodd"/>
  <path fill="#050505" d="M17.075 109.17c3.7-8.6 2.8-38.5 2.8-38.5-10.5 0-17.1 7.2-16.1 13.6.9 6.5 2.7 8.4 1.3 13.9-1.5 5.5 1.3 11.7 6.1 12.3.8.1 5.2.4 5.9-1.3Z" opacity=".2"/>
  <path fill="#694A22" d="M17.075 71.47c4.3-2.1 9.7-3.8 17 2 7.3 5.8 7.6 13.1 6.5 19.6-1 6.6 2.7 8.4.5 14.2-2.2 5.8-10 7.7-16.9 4.4-6.9-3.4-7.1-40.2-7.1-40.2Z"/>
  <path fill="#050505" fill-rule="evenodd" d="M30.175 113.47c-2-.1-4.1-.7-6.1-1.6-.867-.467-1.633-1.4-2.3-2.8-.666-1.267-1.267-2.966-1.8-5.1-.9-3.5-1.6-8.1-2.1-13.7-.9-9.5-1-18.7-1-18.8 0-.067.033-.133.1-.2 2.1-1 4.6-2 7.5-2 1.533 0 3.067.3 4.6.9 1.667.667 3.4 1.7 5.2 3.1 1.733 1.4 3.167 2.967 4.3 4.7a18.472 18.472 0 0 1 2.1 5c.8 2.9.8 6.2.1 10.2-.5 3 .1 4.9.6 6.8.5 2.2 1.1 4.2-.1 7.4a9.198 9.198 0 0 1-2.1 3.2c-.933.867-2.033 1.567-3.3 2.1-1.4.6-3.1.8-4.8.8h-.9Zm-12.9-41.9c.1 1.2.2 9.8 1 18.7 1.2 12.5 3.3 19.9 6 21.2 3.8 1.8 8.1 2.1 11.4.8 2.5-1 4.3-2.8 5.2-5.1 1.1-3 .6-4.9.1-7.1-.5-1.8-1.1-3.9-.6-7 1-5.9 1.1-13.5-6.4-19.5-3.6-2.8-6.7-3.9-9.6-3.9-2.6 0-4.9.9-7.1 1.9Z" clip-rule="evenodd"/>
  <path fill="#050505" d="M14.675 71.47c4.5-2.1 10.2-3.8 17.8 2 7.6 5.8 7.9 13.1 6.7 19.6-1.1 6.6 2.8 8.4.5 14.2-2.3 5.8-10.4 7.7-17.6 4.4-7.1-3.4-7.4-40.2-7.4-40.2Z" opacity=".2"/>
  <path fill="#1A1A1A" d="M9.675 124.57s.4 1.1-1.7 2h9.2v-2h-7.5Z"/>
  <path fill="#050505" fill-rule="evenodd" d="M7.775 126.57c0-.1.1-.2.2-.2 1.8-.8 1.5-1.6 1.5-1.7-.067-.067-.067-.133 0-.2.067-.066.133-.1.2-.1h7.5c.067 0 .133.034.2.1v2.1c0 .1-.1.2-.2.2h-9.2c-.1 0-.1-.1-.2-.2Zm9.2-1.8h-7.1c0 .133-.033.333-.1.6-.133.333-.433.633-.9.9h8.1v-1.5Z" clip-rule="evenodd"/>
  <path fill="#050505" d="M13.275 124.57h3.9v2h-5.5c2.1-.9 1.6-2 1.6-2Z" opacity=".2"/>
  <path fill="#0D7D75" d="m9.975 117.37-.6 7.1 8.7.5v-7"/>
  <path fill="#050505" d="M18.075 125.17h.1c.067-.067.1-.133.1-.2v-7c0-.1 0-.2-.2-.2-.1 0-.2.1-.2.2v6.8l-8.2-.5.5-6.8c.1-.1 0-.2-.1-.3-.2 0-.3.1-.3.2l-.6 7.1c0 .067.033.133.1.2h.1l8.7.5Z"/>
  <path fill="#0A0C0F" d="m11.775 117.57-.1 7.1-2.3-.2.6-7.1 1.8.2Z" opacity=".3"/>
  <path fill="#D29F6D" d="M6.375 113.77c-.5.4-1.6 1.1-1.9 2.3-.4 1-.1 2.1.7 2.7 1 .8 2.5.7 2.7-.1.2-.3.4-.6.6-1 .3-.3.8-.8.9-1 .4-.6 1-1.9-.1-2.8-1.5-1.1-2.9-.1-2.9-.1Z"/>
  <path fill="#050505" fill-rule="evenodd" d="M5.075 118.97c-.467-.333-.767-.8-.9-1.4a2.638 2.638 0 0 1 .1-1.6c.3-1.2 1.4-2 1.9-2.4.1 0 .5-.3 1-.4.6-.1 1.4-.1 2.2.5.6.5.8 1.1.7 1.7 0 .6-.3 1.1-.5 1.4l-.3.3c-.2.2-.4.5-.6.8-.3.3-.5.6-.6.9-.1.3-.3.5-.7.7h-.6c-.6 0-1.2-.2-1.7-.5Zm2.2-5.4c-.5.1-.8.4-.8.4-.5.3-1.5 1.1-1.8 2.1v.1c-.4.9-.1 1.9.6 2.4.6.5 1.5.6 2 .5.1-.1.4-.2.5-.4.1-.4.3-.7.5-1l.1-.1c.1-.2.4-.6.6-.8l.2-.2c.4-.5 1-1.7-.1-2.6-.4-.266-.833-.4-1.3-.4h-.5Z" clip-rule="evenodd"/>
  <path fill="#050505" d="M5.775 116.17s-.2.4-.2 1c.1.6.6 1 .9 1.2.2.1 1.1.4 1.2.2 0-.2.7-1 .8-1.3.1-.2-1.1-.6-1.6-1-.6-.4-1.1-.1-1.1-.1Zm2.1-.6c-.8-1-1.8-1.2-2.3-1.2.3-.3.6-.5.8-.6 0 0 1.4-1 2.9.1 1.1.9.5 2.2.1 2.8l-.5.5c-.1-.2-.3-.7-1-1.6Z" opacity=".2" style="mix-blend-mode:multiply"/>
  <path fill="#F5F6F7" d="M10.475 117.87c.9-1.2 1.5-2.1 2.5-3.5 1.6-2.5 2-4.5 2-4.5.5-1.9-.3-3.6-1.9-4.1l-.5-.1c-1.4-.5-3.1 0-3.8 2.2 0 0-.8 2-1.9 3.7-.8 1.1-1.8 2.6-1.8 2.6l5.4 3.7Z"/>
  <path fill="#050505" fill-rule="evenodd" d="m10.375 118.07-5.4-3.7c-.067-.067-.1-.133-.1-.2v-.1l1.8-2.6c1.1-1.6 1.8-3.6 1.9-3.7.3-1.1.9-1.8 1.7-2.2.7-.3 1.6-.4 2.4-.1l.5.1c.8.3 1.5.9 1.8 1.7.4.7.5 1.7.3 2.6-.1.2-.5 2.2-2.2 4.6l-2.4 3.5-.1.1h-.2Zm.1-12.1c-.7.3-1.2 1-1.5 1.9-.1.1-.8 2.1-2 3.8l-1.6 2.4 5.1 3.5 2.3-3.3c1.6-2.4 2-4.5 2-4.5.5-1.7-.3-3.3-1.8-3.8l-.4-.1a2.682 2.682 0 0 0-1-.2c-.4 0-.767.1-1.1.3Z" clip-rule="evenodd"/>
  <path fill="#0A0C0F" d="M10.475 117.87c.9-1.2 1.5-2.1 2.5-3.5 1.6-2.5 2-4.5 2-4.5.5-1.9-.3-3.6-1.9-4.1l-.5-.1c-.133-.067-.3-.1-.5-.1l.2.4s1.7 1.6.2 4.7c-.9 2.1-2.7 4.5-3.8 6l1.8 1.2Z" opacity=".3"/>
  <path fill="#1A1A1A" d="M28.675 124.57s-.5 1.1 1.6 2h-9.2v-2h7.6Z"/>
  <path fill="#050505" fill-rule="evenodd" d="M21.075 126.77c-.1 0-.2-.1-.2-.2v-2c0-.067.033-.1.1-.1l.1-.1h7.6c.067 0 .133.034.2.1v.2s-.1.2 0 .5.5.7 1.5 1.2c.1 0 .2.1.1.2 0 .1-.1.2-.2.2h-9.2Zm.2-2v1.5h8.1c-.467-.267-.767-.567-.9-.9a2.74 2.74 0 0 1-.1-.6h-7.1Z" clip-rule="evenodd"/>
  <path fill="#050505" d="M25.075 124.57h-4v2h5.6c-2.1-.9-1.6-2-1.6-2Z" opacity=".2"/>
  <path fill="#0D7D75" d="m27.775 117.47 1.2 7.1-8.6.4-.7-6.8"/>
  <path fill="#050505" d="m20.375 125.17 8.6-.4c.067 0 .133-.033.2-.1v-.1l-1.2-7.1c0-.1-.1-.2-.2-.2-.2 0-.2.2-.2.3l1.2 6.8-8.2.4-.7-6.6c0-.1-.1-.2-.2-.2s-.2.1-.2.2l.7 6.9c0 .1.1.1.2.1Z"/>
  <path fill="#0A0C0F" d="m25.375 117.67 2.4-.2 1.2 7.1-2.6.1-1-7Z" opacity=".3"/>
  <path fill="#F5F6F7" d="M20.075 102.87c-3.1 0-5.6.6-6.2.7-1.2.3-3.7 1.6-3.7 3s-.2 4.8-1 8c-.8 3-2.1 5-2 5.6.5 1.6 6.9 3 8.9 3.1 5.4.2 8.2-1.3 12-1.3 2.9 0 3.3-.5 3.6-.8.9-1 .8-11.5-1.1-15.3-.3-.6-1.6-2.4-4.2-2.8-1.3-.1-3.7-.2-6.3-.2Z"/>
  <path fill="#050505" fill-rule="evenodd" d="M16.075 123.47c-1-.1-3.1-.4-5.1-1-1.066-.333-1.933-.666-2.6-1-.8-.4-1.266-.8-1.4-1.2v-.1c-.1-.3.1-.7.5-1.5.4-1 1-2.4 1.5-4.1.8-3.2 1-6.5 1-8 0-.8.8-1.6 1.5-2.1.8-.6 1.8-.9 2.4-1.1h.1c.8-.2 3.1-.7 6.1-.7 2.7 0 5 .1 6.3.2 3 .4 4.2 2.7 4.4 2.9 1.2 2.4 1.5 6.9 1.6 8.8.1 2.8 0 6.1-.5 6.7-.2.2-.4.4-.9.6-.6.2-1.567.3-2.9.3-1.6 0-3.1.3-4.6.6-1.7.3-3.7.7-6.2.7h-1.2Zm4-20.4c-2.9 0-5.3.5-6 .7h-.1c-.6.2-1.5.5-2.3 1.1-.8.6-1.3 1.2-1.3 1.7 0 1.5-.2 4.9-1 8.1-.5 1.7-1.1 3.2-1.5 4.2-.3.5-.5 1.1-.5 1.3.2.6 1.6 1.3 3.7 1.9 2 .6 4 .9 5 1h1.2c2.5 0 4.3-.4 6.1-.7 1.6-.3 3-.6 4.7-.6 2.9 0 3.3-.5 3.5-.8.1-.1.3-.8.4-2.1.1-1.2.1-2.7 0-4.3-.2-3.8-.8-7-1.6-8.6-.1-.2-1.3-2.3-4-2.6-1.3-.2-3.6-.3-6.3-.3Z" clip-rule="evenodd"/>
  <path fill="#17B473" d="M20.075 102.87c1.2 0 2.9 0 4.6.1l-5 3.5-2.7 6.4-.5-.2-.3-6.3-1.9-2.9c1-.2 3.2-.6 5.8-.6Z"/>
  <path fill="#050505" fill-rule="evenodd" d="m16.875 113.07-.5-.2c-.067 0-.1-.067-.1-.2l-.3-6.2-1.9-2.8v-.2c0-.066.033-.133.1-.2 2-.4 3.967-.6 5.9-.6.7 0 2.6 0 4.6.1.133 0 .2.033.2.1 0 .133-.033.233-.1.3l-4.9 3.4-2.7 6.3c-.067.133-.133.2-.2.2h-.1Zm3.2-10c-1.8 0-3.633.2-5.5.6l1.7 2.6.1.1.3 6.2h.2l2.6-6.2.1-.1 4.5-3.1c-1.8-.1-3.4-.1-4-.1Z" clip-rule="evenodd"/>
  <path fill="#050505" d="M31.175 107.87c1.1 4.4 1.4 12.3.5 13.3-.2.3-.5.6-2.3.7.4-7.1-.1-8.8-.4-12-.1-1.7 1.3-3.1 2.2-2Z" opacity=".2"/>
  <path fill="#050505" fill-rule="evenodd" d="M23.575 119.37c-.6-.5-.9-1.3-.9-2.3l-.1-2.1c0-.066.033-.133.1-.2h5.8c.1 0 .2.1.2.2v2.1c0 1-.3 1.8-.9 2.3-.5.5-1.2.8-2.1.8-.9 0-1.6-.3-2.1-.8Zm-.6-4.2.1 1.9c0 2 1.3 2.7 2.6 2.7s2.6-.7 2.6-2.7v-1.9h-5.3Z" clip-rule="evenodd"/>
  <path fill="#050505" d="M22.775 116.17h5.8v-.4h-5.8v.4Zm-4.7-.9c0 .4-.3.6-.6.6s-.6-.2-.6-.6c0-.3.3-.5.6-.5s.6.2.6.5Zm-.5 2.6c0 .3-.2.6-.6.6-.3 0-.6-.3-.6-.6s.3-.6.6-.6c.4 0 .6.3.6.6Zm-.7 2.5c0 .4-.2.6-.5.6-.4 0-.6-.2-.6-.6 0-.3.2-.6.6-.6.3 0 .5.3.5.6Z"/>
  <g opacity=".4">
    <path fill="#B5B5B5" d="m22.475 108.57.1.5-3.3.1.5.4v2.9l-2.9 1.3.1-.9 1.6-4.3h3.9Z"/>
    <path fill="#B5B5B5" fill-rule="evenodd" d="m16.875 113.87-.1-.1.1-.9v-.1l1.6-4.3h4c.067 0 .1.033.1.1l.1.5c0 .067-.033.1-.1.1l-3 .1.3.2v3.1l-2.9 1.3h-.1Zm2.8-4.2-.5-.4v-.1c0-.067.034-.1.1-.1l3.1-.1v-.3h-3.8l-1.5 4.2-.1.7 2.7-1.2v-2.7Z" clip-rule="evenodd"/>
  </g>
  <path fill="#FEFEFE" d="M16.675 113.27s0 1.5-.8 4.5-1 5.1-1 5.1"/>
  <path fill="#050505" d="M14.875 123.07c.1 0 .2-.1.2-.2 0 0 .2-2.1 1-5.1.8-3 .8-4.5.8-4.5 0-.1-.1-.2-.2-.2s-.2 0-.2.2c0 0 0 1.5-.8 4.4-.8 3-1 5.2-1 5.2 0 .1.1.2.2.2Z"/>
  <path fill="#B5B5B5" d="m15.075 108.47.1.6 1.4 4.1-2-4.3-1.5-.2-.1-.4 2.1.2Z" opacity=".4"/>
  <path fill="#050505" d="M7.675 119.47c.6 0 1.167-.2 1.7-.6.533-.4.9-1.033 1.1-1.9l.5-2.1c0-.1-.1-.2-.2-.2l-1.5-.4c-.2 0-.3.1-.3.2s.1.2.2.2l1.3.3-.4 1.9c-.3 1.5-1.3 2.3-2.6 2.2-.2 0-.2.1-.3.2 0 .1.1.2.2.2h.3Z"/>
  <path fill="#EC272B" d="m8.875 115.57 1.7.3-1.7-.3Z"/>
  <path fill="#050505" d="m10.475 116.07.1-.4-1.6-.3-.1.4 1.6.3Z"/>
  <path fill="#050505" d="M18.275 106.97h.1l-1.7 6.1v-3.2l1.6-2.9Z" opacity=".2"/>
  <path fill="#F5F6F7" d="m20.075 105.07 2.3 3.5-3.3.2.6.8-3 3.7.1-.6 1.6-5.7 1.7-1.9Z"/>
  <path fill="#050505" fill-rule="evenodd" d="M16.675 113.47c-.133-.066-.2-.133-.2-.2l.1-.6 1.6-5.7.1-.1 1.7-1.9.1-.1c.067 0 .134.034.2.1l2.3 3.5c.067.067.067.133 0 .2 0 .067-.067.1-.2.1l-3 .1.5.6c0 .067-.033.133-.1.2l-2.9 3.7c-.067.067-.133.1-.2.1Zm2.2-4.6c-.067-.067-.067-.133 0-.2 0-.067.033-.1.1-.1l3.1-.2-2-3-1.5 1.7-1.6 5.6 2.4-3.1-.5-.7Z" clip-rule="evenodd"/>
  <path fill="#F5F6F7" d="m16.175 104.77-2.9 3.5 1.8.2-.5.5 2 4.4.1-.9-.2-6.5-.3-1.2Z"/>
  <path fill="#050505" fill-rule="evenodd" d="m16.475 113.47-2.1-4.4c-.067-.067-.067-.133 0-.2l.3-.2-1.5-.2c-.067 0-.1-.033-.1-.1-.067-.067-.067-.133 0-.2l3-3.6c0-.067.067-.067.2 0 .067 0 .1.033.1.1l.3 1.3.2 6.5v.1l-.1.8c0 .133-.033.2-.1.2h-.1c-.067 0-.1-.033-.1-.1Zm-.2-7.4-.2-.9-2.5 2.9 1.5.2c.133 0 .2.067.2.2 0 .067-.033.133-.1.2l-.4.4 1.7 3.6v-.2l-.2-6.4Z" clip-rule="evenodd"/>
  <path fill="#D29F6D" d="M34.675 115.87c.3.5.9 1.7.7 2.8-.1 1.1-.9 1.9-1.9 2.2-1.1.2-2.5-.5-2.4-1.3.1-.3 0-.7-.1-1.1 0-.5-.3-1.2-.3-1.4-.2-.6-.1-2.1 1.3-2.4 1.8-.4 2.7 1.2 2.7 1.2Z"/>
  <path fill="#050505" fill-rule="evenodd" d="M31.275 120.47c-.3-.3-.4-.6-.4-.9 0-.3 0-.6-.1-1v-.1c0-.3-.1-.7-.2-1-.067-.133-.1-.233-.1-.3-.1-.4-.1-1 .1-1.5.2-.7.7-1.1 1.4-1.2 1-.3 1.7.1 2.2.4.4.4.7.8.7.9.3.5 1 1.7.7 3a3.247 3.247 0 0 1-.6 1.5c-.4.4-.867.667-1.4.8h-.6c-.6 0-1.3-.2-1.7-.6Zm.8-5.6c-1.3.3-1.3 1.7-1.2 2.2 0 .067.034.167.1.3.1.3.2.7.2 1v.1c.1.4.2.8.1 1.1 0 .3.2.5.3.6.4.3 1.2.6 1.9.5.9-.2 1.6-1 1.7-2 .2-1.1-.4-2.3-.7-2.7 0-.1-.6-1.2-1.9-1.2-.133 0-.3.034-.5.1Z" clip-rule="evenodd"/>
  <path fill="#D29F6D" d="m31.175 116.77-1.2 1.2c-.2.3-.2.8 0 1.1.3.2.6.2.8.1.3-.2.7-.5.7-.5"/>
  <path fill="#050505" d="M30.475 119.47a.883.883 0 0 0 .4-.1c.4-.2.7-.5.7-.5.1-.1.1-.2 0-.3-.1-.1-.2-.1-.3 0 0 0-.3.3-.6.4 0 0-.3.1-.5-.1-.2-.1-.2-.5 0-.7l1.1-1.2c.1-.1.1-.2 0-.3-.1-.1-.2-.1-.3 0l-1.1 1.2h-.1c-.3.4-.3 1 .1 1.3.2.2.4.3.6.3Z"/>
  <path fill="#050505" d="M35.175 116.87s-1.1-.8-2.7-.1c-1.5.7-1.7 1.2-1.7 1.2s-.6-1.8.3-2.8c.8-1 2.4-.8 3.1.1.7.9 1 1.6 1 1.6Z" opacity=".2" style="mix-blend-mode:multiply"/>
  <path fill="#D29F6D" d="M34.675 115.87c.3.5.9 1.7.7 2.8-.1 1.1-.9 1.9-1.9 2.2-1.1.2-2.5-.5-2.4-1.3.1-.3 0-.7-.1-1.1 0-.5-.3-1.2-.3-1.4-.2-.6-.1-2.1 1.3-2.4 1.8-.4 2.7 1.2 2.7 1.2Z"/>
  <path fill="#050505" fill-rule="evenodd" d="M31.275 120.47c-.3-.3-.4-.6-.4-.9 0-.3 0-.6-.1-1v-.1c0-.3-.1-.7-.2-1-.067-.133-.1-.233-.1-.3-.1-.4-.1-1 .1-1.5.2-.7.7-1.1 1.4-1.2 1-.3 1.7.1 2.2.4.4.4.7.8.7.9.3.5 1 1.7.7 3a3.247 3.247 0 0 1-.6 1.5c-.4.4-.867.667-1.4.8h-.6c-.6 0-1.3-.2-1.7-.6Zm.8-5.6c-1.3.3-1.3 1.7-1.2 2.2 0 .067.034.167.1.3.1.3.2.7.2 1v.1c.1.4.2.8.1 1.1 0 .3.2.5.3.6.4.3 1.2.6 1.9.5.9-.2 1.6-1 1.7-2 .2-1.1-.4-2.3-.7-2.7 0-.1-.6-1.2-1.9-1.2-.133 0-.3.034-.5.1Z" clip-rule="evenodd"/>
  <path fill="#D29F6D" d="m31.175 116.77-1.2 1.2c-.2.3-.2.8 0 1.1.3.2.6.2.8.1.3-.2.7-.5.7-.5"/>
  <path fill="#050505" d="M30.475 119.47a.883.883 0 0 0 .4-.1c.4-.2.7-.5.7-.5.1-.1.1-.2 0-.3-.1-.1-.2-.1-.3 0 0 0-.3.3-.6.4 0 0-.3.1-.5-.1-.2-.1-.2-.5 0-.7l1.1-1.2c.1-.1.1-.2 0-.3-.1-.1-.2-.1-.3 0l-1.1 1.2h-.1c-.3.4-.3 1 .1 1.3.2.2.4.3.6.3Z"/>
  <path fill="#050505" d="M35.175 116.87s-1.1-.8-2.7-.1c-1.5.7-1.7 1.2-1.7 1.2s-.6-1.8.3-2.8c.8-1 2.4-.8 3.1.1.7.9 1 1.6 1 1.6Z" opacity=".2" style="mix-blend-mode:multiply"/>
  <path fill="#F5F6F7" d="M35.875 116.77c-.3-1.4-.4-2.6-.7-4.2-.5-3-1.7-5.2-1.7-5.2-.9-1.6-2.6-2.3-4.2-1.6l-.4.3c-1.4.6-2.3 2.2-1.3 4.2 0 0 1 2.4 1.3 4.4.2 1.4.5 3.1.5 3.1l6.5-1Z"/>
  <path fill="#050505" fill-rule="evenodd" d="M29.175 117.97v-.1l-.5-3.1c-.3-2-1.2-4.3-1.3-4.4-.5-1-.5-2-.2-2.8.3-.8.8-1.4 1.6-1.7l.5-.3c.7-.3 1.6-.4 2.4-.1.9.4 1.6 1 2 1.8.1.1 1.3 2.3 1.7 5.2l.7 4.3c0 .067-.033.1-.1.1 0 .067-.033.1-.1.1l-6.5 1h-.2Zm5.8-5.4c-.5-2.8-1.6-5.1-1.7-5.1-.8-1.5-2.4-2.2-3.9-1.5l-.4.2c-.7.4-1.2.9-1.4 1.5-.3.8-.2 1.6.2 2.5 0 .1 1 2.5 1.3 4.5l.4 2.9 6.1-1-.6-4Z" clip-rule="evenodd"/>
  <path fill="#0A0C0F" d="M35.875 116.77c-.3-1.4-.4-2.6-.7-4.2-.5-3-1.7-5.2-1.7-5.2-.9-1.6-2.6-2.3-4.2-1.6l-.4.3a3.86 3.86 0 0 0-.5.2l.5.2s2.3 0 3.4 3.3c.7 2.2 1.2 5.6 1.4 7.3l2.2-.3Z" opacity=".3"/>
  <path fill="#D29F6D" d="M37.375 87.57c.1 9.4-4.1 18.8-17 19.7-15.3 1.1-16.8-7.3-16.8-16.8 0-9.4 9.3-17 17.1-17 9.5-.1 16.7 4.7 16.7 14.1Z"/>
  <path fill="#050505" fill-rule="evenodd" d="M7.275 104.37c-1.6-1.4-2.6-3.4-3.2-6.1-.6-2.5-.7-5.4-.7-7.8 0-2.3.5-4.5 1.6-6.7 1-2 2.3-3.9 4.1-5.5 1.6-1.5 3.6-2.8 5.6-3.7 2-.9 4.1-1.3 6-1.4h.1c4.9 0 9 1.3 12 3.6a13.783 13.783 0 0 1 3.6 4.5c.8 1.867 1.233 3.967 1.3 6.3 0 5.2-1.3 9.8-3.8 13.2-1.4 1.9-3.2 3.4-5.3 4.6-2.3 1.2-5.1 1.9-8.2 2.1-.867.067-1.733.1-2.6.1-4.7 0-8.2-1-10.5-3.2Zm13.5-30.7h-.1c-3.8 0-8 1.8-11.3 4.9-3.6 3.4-5.6 7.6-5.6 11.9 0 6.1.7 10.7 3.8 13.6 2.2 2.1 5.6 3.1 10.2 3.1.8 0 1.667-.033 2.6-.1 15.2-1.1 16.8-14 16.8-19.5 0-8.6-6.3-13.9-16.4-13.9Z" clip-rule="evenodd"/>
  <path fill="#050505" d="M17.875 81.17c-2.1-1.5-4.3-5.7-1.3-7.1 1.4-.4 2.8-.6 4.1-.6 9.5-.1 16.7 4.7 16.7 14.1.1 9.4-4.1 18.8-17 19.7a.883.883 0 0 1-.4.1c-1.3-.2-2.1-.6-2.1-.6 8.4-1 9.4-6 10-10.6.5-3.3-.2-7.6-2.3-10.3-1.9-2.4-5.2-3-7.7-4.7Z" opacity=".1"/>
  <path fill="#694A22" d="M39.575 84.57c-1.9 6.2-2.6 8.4-1.3 12.9 1.3 5-.5 9.4-4.1 9.4-4.3 0-6.2-3.7-4.5-9.6 1.7-6 .2-9.8.2-9.8"/>
  <path fill="#050505" d="M34.175 107.07c1.4 0 2.5-.6 3.4-1.7.7-.9 1.1-2.1 1.3-3.5.1-1.4 0-2.9-.4-4.4-1.2-4.4-.7-6.6 1.3-12.8.1-.1 0-.2-.1-.3-.1 0-.2.1-.3.2-1 3.1-1.6 5.2-1.9 7.1-.2 1.9-.1 3.6.6 5.9.8 2.9.5 5.8-.8 7.5-.8 1-1.9 1.6-3.1 1.6-1.7 0-3-.6-3.8-1.7-1.3-1.7-1.4-4.4-.5-7.7.4-1.333.667-2.7.8-4.1.067-1.067.067-2.1 0-3.1-.2-1.7-.6-2.7-.6-2.7 0-.1-.2-.2-.3-.1-.1 0-.1.1-.1.2s.4 1 .5 2.7c.2 1.5.2 4-.7 7-.466 1.733-.667 3.3-.6 4.7.067 1.333.433 2.433 1.1 3.3.9 1.2 2.4 1.9 4.2 1.9Z"/>
  <path fill="#050505" d="M31.575 87.47s1.5 3.8-.2 9.8c-1.5 5.1-.3 8.6 2.9 9.4 2.7-.9 4-4.8 2.8-9.2-1.2-4.2-.7-6.5 1.1-12l-6.6 2Z" opacity=".2"/>
  <path fill="#D29F6D" d="M32.875 92.17c3-1.5 5.3 3.2 1.4 5.9-1.6 1.1-2.5-.6-2.5-.6"/>
  <path fill="#050505" d="M33.175 98.67c.4 0 .8-.166 1.2-.5 1.1-.7 1.8-1.6 2.1-2.7.2-.8.1-1.8-.3-2.5-.4-.6-.8-1-1.4-1.2-.6-.2-1.3-.1-2 .2-.1.1-.2.2-.1.3 0 .1.2.1.3.1 1.1-.5 2.2-.2 2.8.8.4.6.5 1.5.2 2.2-.2 1-.9 1.8-1.8 2.5-.467.267-.9.367-1.3.3-.6-.1-.9-.8-.9-.8-.1-.1-.2-.1-.3-.1-.1.1-.2.2-.1.3 0 .1.4.8 1.2 1 .133.067.267.1.4.1Z"/>
  <path fill="#050505" d="M32.575 93.37c2.1-.9 3.7 1.9.9 3.5-1.2.7-1.8-.3-1.8-.3" opacity=".2"/>
  <path fill="#FCE060" d="M33.375 92.87c2.5 0 3-.6 4.7-2.9 3.3-4.6 3.1-15-8.5-19.8-7.1-3-13.7.3-13.7.3l17.5 22.4Z"/>
  <path fill="#050505" fill-rule="evenodd" d="m33.275 92.97-17.5-22.3c-.066-.067-.1-.133-.1-.2l.1-.1c.1-.1 1.7-.9 4.3-1.4a16.259 16.259 0 0 1 4.4-.2c1.8.067 3.533.467 5.2 1.2 2.7 1.1 5 2.7 6.8 4.6 1.533 1.667 2.6 3.534 3.2 5.6.5 1.8.6 3.7.3 5.5-.3 1.7-.9 3.2-1.7 4.4-.8 1.2-1.4 1.9-2.1 2.4-.7.4-1.5.6-2.8.6-.067 0-.1-.033-.1-.1Zm-13.1-23.6c-2 .4-3.4 1-3.9 1.2l17.2 22.1c2.3 0 2.8-.6 4.4-2.8 1.8-2.4 2.3-6.2 1.4-9.6-.9-3-3.3-7.2-9.8-10-2.2-.9-4.3-1.1-6.1-1.1-1.2 0-2.3.1-3.2.2Z" clip-rule="evenodd"/>
  <path fill="#694A22" d="M27.875 85.77c1.7 5.4 2.8 12.5 0 17.1-2.4 3.9-.3 5.4-.3 5.4s.4-2.9 3.1-3.8c4.1-1.3 3.8-10.3 1.9-14"/>
  <path fill="#050505" d="M27.575 108.47h.1c.067-.066.1-.133.1-.2 0 0 .1-.7.5-1.5.6-1 1.433-1.7 2.5-2.1 1.133-.333 2-1.233 2.6-2.7 1.3-3.4.8-8.9-.6-11.6 0-.1-.2-.1-.3-.1-.1.1-.1.2-.1.3 1.4 2.6 1.9 8 .6 11.3-.533 1.267-1.3 2.067-2.3 2.4-1.5.5-2.3 1.5-2.7 2.3-.3.5-.4 1-.5 1.3-.2-.2-.3-.5-.4-.9-.3-1.1.1-2.5 1-4 1.3-2.1 1.9-4.9 1.7-8.4-.1-2.6-.7-5.6-1.7-8.8 0-.1-.1-.2-.2-.2-.2.1-.2.2-.2.3 1.6 5.2 2.9 12.3 0 16.9-.533.933-.867 1.767-1 2.5-.133.667-.133 1.267 0 1.8.2.9.8 1.3.8 1.4h.1Z"/>
  <path fill="#050505" d="M30.675 104.47c4.1-1.3 3.8-10.3 1.9-14l-1.7-1.7c1.2 4.9 1.7 10.5-.7 14.4-.5.8-.8 1.6-1 2.2.4-.4.9-.7 1.5-.9Z" opacity=".2"/>
  <path fill="#FEFEFE" d="M15.275 93.97s2.3-2.3 6.5-.4c.1.1-.7.9-.8 1a2.726 2.726 0 0 1-1.2.7c-1.1.4-2.5.4-3.4-.2-.2-.1-1.4-.8-1.1-1.1Z"/>
  <path fill="#050505" fill-rule="evenodd" d="M17.975 95.77c-.6 0-1.2-.2-1.7-.5-.1 0-.4-.2-.7-.4-.4-.4-.5-.6-.5-.8-.067-.067-.067-.167 0-.3.1 0 .7-.6 1.8-.9a7.27 7.27 0 0 1 2.1-.3c.933.067 1.9.334 2.9.8.067.067.1.133.1.2 0 .1 0 .2-.4.6-.2.3-.4.5-.4.5-.4.4-.867.667-1.4.8-.467.2-.967.3-1.5.3h-.3Zm-1-2.5c-.9.2-1.4.7-1.5.8 0 .1.1.2.4.5.3.2.5.3.6.4.8.5 2.1.6 3.2.1.4-.133.8-.366 1.2-.7 0-.1.4-.5.6-.7-1.6-.7-3.1-.8-4.5-.4Z" clip-rule="evenodd"/>
  <path fill="#050505" d="M21.675 93.87c.067 0 .133-.033.2-.1l1.2-1.2c.1-.1.1-.3 0-.4-.1-.1-.3-.1-.4 0l-1.2 1.2c-.1.2-.1.3 0 .4.067.067.133.1.2.1Zm-.7-.5c.067 0 .133-.033.2-.1l.7-.7c.1-.1 0-.3-.1-.4-.1-.1-.2-.1-.3 0l-.7.8c-.1.1-.1.3 0 .4h.2Z"/>
  <path fill="#FEFEFE" d="M9.675 93.97s-1.4-2.3-4.2-.4c0 .1.3.6.3.7.5.8 1.4 1.4 2.4 1.2.4-.1.8-.3 1.1-.6.1-.1.6-.7.4-.9Z"/>
  <path fill="#050505" fill-rule="evenodd" d="M6.675 95.47c-.4-.3-.8-.7-1.1-1.1 0-.1-.1-.2-.2-.4 0-.1-.2-.4 0-.6.933-.667 1.833-.9 2.7-.7 1.2.2 1.8 1.1 1.8 1.2.3.4-.5 1.2-.5 1.2-.3.3-.8.5-1.2.6a.888.888 0 0 1-.4.1c-.4 0-.767-.1-1.1-.3Zm1.3-2.4c-.667-.133-1.4.067-2.2.6 0 .1.1.4.2.5.4.7 1.2 1.3 2.1 1.1.4-.1.7-.3 1-.5.2-.2.5-.6.4-.7 0-.1-.5-.8-1.5-1Z" clip-rule="evenodd"/>
  <path fill="#050505" d="M5.475 93.77h.2c.1-.1.1-.2 0-.3l-.7-1.2c-.1-.1-.2-.1-.3 0-.1 0-.1.2-.1.3l.8 1.1c0 .067.033.1.1.1Zm.6-.4h.1c.1-.1.1-.2.1-.3l-.5-.7c0-.1-.2-.2-.3-.1-.1.1-.1.2 0 .3l.4.7c.067.067.133.1.2.1Z"/>
  <path fill="#4F1E11" d="M16.975 94.17c0-.7.6-1.3 1.4-1.3.7 0 1.4.6 1.4 1.3 0 .7-.7 1.3-1.4 1.3-.8 0-1.4-.6-1.4-1.3Z"/>
  <path fill="#050505" fill-rule="evenodd" d="M16.775 94.17c0-.8.7-1.5 1.6-1.5.8 0 1.5.7 1.5 1.5s-.7 1.5-1.5 1.5c-.9 0-1.6-.7-1.6-1.5Zm.4 0c0 .6.5 1.1 1.2 1.1.6 0 1.2-.5 1.2-1.1 0-.6-.6-1.1-1.2-1.1-.7 0-1.2.5-1.2 1.1Z" clip-rule="evenodd"/>
  <path fill="#050505" d="M17.775 94.17c0-.3.3-.6.6-.6s.6.3.6.6-.3.5-.6.5-.6-.2-.6-.5Z"/>
  <path fill="#FEFEFE" d="M17.475 94.27c0-.2.2-.4.4-.4s.3.2.3.4-.1.3-.3.3c-.2 0-.4-.1-.4-.3Z"/>
  <path fill="#050505" fill-rule="evenodd" d="M16.775 94.17c0-.8.7-1.5 1.6-1.5.8 0 1.5.7 1.5 1.5s-.7 1.5-1.5 1.5c-.9 0-1.6-.7-1.6-1.5Zm.4 0c0 .6.5 1.1 1.2 1.1.6 0 1.2-.5 1.2-1.1 0-.6-.6-1.1-1.2-1.1-.7 0-1.2.5-1.2 1.1Z" clip-rule="evenodd"/>
  <path fill="#4F1E11" d="M6.175 94.17c0-.7.6-1.2 1.3-1.2.7 0 1.3.5 1.3 1.2 0 .6-.6 1.1-1.3 1.1-.7 0-1.3-.5-1.3-1.1Z"/>
  <path fill="#050505" fill-rule="evenodd" d="M6.075 94.17c0-.8.6-1.4 1.4-1.4.8 0 1.4.6 1.4 1.4 0 .7-.6 1.3-1.4 1.3-.8 0-1.4-.6-1.4-1.3Zm.3 0c0 .5.5 1 1.1 1 .6 0 1.1-.5 1.1-1 0-.6-.5-1-1.1-1-.6 0-1.1.4-1.1 1Z" clip-rule="evenodd"/>
  <path fill="#050505" d="M6.975 94.17c0-.3.2-.5.5-.5s.5.2.5.5c0 .2-.2.5-.5.5s-.5-.3-.5-.5Z"/>
  <path fill="#FEFEFE" d="M6.675 94.17c0-.1.2-.3.3-.3.2 0 .4.2.4.3 0 .2-.2.3-.4.3-.1 0-.3-.1-.3-.3Z"/>
  <path fill="#050505" fill-rule="evenodd" d="M6.075 94.17c0-.8.6-1.4 1.4-1.4.8 0 1.4.6 1.4 1.4 0 .7-.6 1.3-1.4 1.3-.8 0-1.4-.6-1.4-1.3Zm.3 0c0 .5.5 1 1.1 1 .6 0 1.1-.5 1.1-1 0-.6-.5-1-1.1-1-.6 0-1.1.4-1.1 1Z" clip-rule="evenodd"/>
  <path fill="#050505" d="M12.975 102.47c1.4 0 2.2-.4 2.2-.4.1 0 .2-.1.1-.3 0-.1-.2-.1-.3-.1 0 .1-.9.5-2.5.4-1.4-.1-2.1-.5-2.1-.5-.1-.1-.2-.1-.3 0-.1.1 0 .2.1.3 0 0 .7.5 2.3.6h.5Zm-3.3-11.2h-.1c0-.067-.033-.1-.1-.1h-.2c0-.067-.033-.1-.1-.1h-.2c-.067-.067-.133-.1-.2-.1h-.3c-.067 0-.1-.033-.1-.1h-1.5l-.1.1h-.5l-.1.1c-.2 0-.3.2-.3.3.1.2.2.3.3.3h1c.067 0 .167.033.3.1h.3l.1.1h.3c0 .067.033.1.1.1h.1l.1.1h.1c.067 0 .1.034.1.1h.2c0 .067.033.1.1.1v.1c.3.2.7.1.9-.2.2-.3.1-.7-.1-.8l-.1-.1Zm11.4.2-.1-.1c-.133 0-.3-.033-.5-.1h-.3a.887.887 0 0 0-.4-.1h-.4a.887.887 0 0 0-.4-.1h-.8c-.067 0-.1.034-.1.1h-.6c-.067 0-.133.033-.2.1h-.3c-.067.067-.133.1-.2.1-.3 0-.4.4-.4.7.1.3.4.4.7.4l.1-.1h.2c0-.067.033-.1.1-.1s.167-.033.3-.1h.2c.067-.067.133-.1.2-.1h.1a.886.886 0 0 0 .4-.1h2.3v.1c.2 0 .3-.1.4-.3 0-.2-.1-.3-.3-.3Z"/>
  <path fill="#050505" fill-rule="evenodd" d="M11.475 99.17c-.4 0-1.1-.1-1.3-.6-.1-.4.1-.8.2-1 0-.1.1-.1.2 0 .1 0 .2.2.1.3-.1.1-.2.4-.1.6 0 .1.4.3.9.3 1.4.1 1.7-.1 1.8-.1 0-.1.1-.2.2-.1.1 0 .2.1.2.2-.1.1-.1.3-.5.4-.2.067-.533.1-1 .1-.2 0-.433-.033-.7-.1Z" clip-rule="evenodd"/>
  <path fill="#050505" d="M11.575 75.77s-2.6 4.4-2.6 7.6c0 3.2.4 6.4.4 6.4s-1.8.8-4.5.5c-2.9-.3 6.7-14.5 6.7-14.5Z" opacity=".2"/>
  <path fill="#694A22" d="M16.675 70.47s-5.5-1.4-9.4.9c-4 2.3-8.7 9.7-6.1 17.4.8 2.3 4.8 2.2 6.6.8-1.2-8 3.1-11.8 3.1-11.8s-1.9 7.1.1 12c0 0 1.5.9 3.3 1.2 3.3.5 4.9-.6 4.9-.6s.7 1.4 4.2 2.2c1.7.4 5-.5 5-.5s2 .8 4.6.8c2.3 0 2.8-.6 4.4-2.9 2.6-3.9 1.1-14.7-8.6-19.1-6.6-2.9-12.1-.4-12.1-.4Z"/>
  <path fill="#050505" fill-rule="evenodd" d="M28.275 92.27c-.3.1-2.2.6-3.8.6-.4 0-.767-.033-1.1-.1-2.9-.6-3.9-1.7-4.2-2.1-.2.1-.6.3-1.1.4-.8.2-2.1.4-3.9.1-1.7-.2-3.2-1.2-3.3-1.2l-.1-.1c-.466-1.133-.767-2.467-.9-4-.067-1.2-.033-2.5.1-3.9.1-1.5.4-2.7.5-3.4-.4.4-.9 1.2-1.4 2.2-.8 1.8-1.7 4.7-1 8.8 0 .067-.033.133-.1.2-1.3.9-3.5 1.3-5.1.8-.9-.3-1.6-.9-1.9-1.7a15.43 15.43 0 0 1-.7-5.8 15.552 15.552 0 0 1 1.3-5.1c.6-1.5 1.5-2.9 2.5-4.1 1-1.2 2-2.1 3.1-2.7.933-.533 2-.9 3.2-1.1.933-.2 1.967-.267 3.1-.2 1.6 0 2.9.3 3.2.4.3-.2 1.6-.7 3.5-.9a20.055 20.055 0 0 1 4 0c1.6.2 3.167.633 4.7 1.3 2.4 1.1 4.5 2.7 6.1 4.7 1.4 1.7 2.5 3.8 3.1 5.9 1 3.4.8 6.9-.6 8.8-.7 1.2-1.3 1.9-1.9 2.4-.7.4-1.4.6-2.6.6-2.4 0-4.3-.6-4.7-.8Zm-8-22.5c-2.1.3-3.5.9-3.5.9h-.2s-1.3-.4-3.2-.4c-1.6-.1-4 .1-6 1.3-2.1 1.2-4.2 3.7-5.4 6.6-1.1 2.4-2 6.2-.6 10.5.3.9 1.1 1.3 1.7 1.5 1.3.4 3.3.1 4.5-.7-.267-1.8-.267-3.5 0-5.1.2-1.333.567-2.6 1.1-3.8 1-1.9 2-2.9 2.1-2.9.067-.067.133-.067.2 0s.1.133.1.2c0 0-.5 1.8-.7 4.1-.2 2.1-.2 5.2.8 7.6.3.2 1.6 1 3.1 1.2 1.7.3 2.9.1 3.6-.1.8-.2 1.2-.5 1.2-.5h.2c.067 0 .1.033.1.1 0 .1.2.4.8.8.5.4 1.5.9 3.3 1.3 1.6.4 4.8-.5 4.8-.5h.1s2.1.8 4.6.8c2.2 0 2.6-.5 4.2-2.8 1.2-1.9 1.4-5.2.5-8.5-.7-2.7-2.9-7.6-9-10.3-2.4-1.1-4.7-1.4-6.6-1.4-.667 0-1.267.033-1.8.1Z" clip-rule="evenodd"/>
  <path fill="#050505" d="M28.775 70.87c-.8-.333-1.567-.6-2.3-.8 9.4 5.5 10.6 13.7 9.9 17.8-.5 3.4-3.1 5-3.1 5 2.1-.1 2.5-.7 4.1-2.9 2.6-3.9 1.1-14.7-8.6-19.1Zm-10 9.3s1.3 4.2 1.1 10.5l-.7-.3-.6.3s.9-4.8.2-10.5Zm-12.4-8.3c-3.7 2.8-7.6 9.7-5.2 16.9.3.9 1.1 1.4 2.1 1.7-2.5-6.5-.8-13.8 3.1-18.6Zm1.4 17.7-1 .6s-.6-4.3.5-8.2c1.1-4.3 3.5-4.6 3.5-4.6s-1.5 1.7-2.4 4.5c-.8 2.9-.6 7.7-.6 7.7Zm20.6 2.5-1 .2c1.3-6.9 1.2-10.3-2-16.1 3.9 5.1 4.8 9.2 3.9 16.2l-.9-.3Z" opacity=".2"/>
  <path fill="#FCE060" d="M29.475 72.77c-.267.067-.433.167-.5.3-.2.4-.2.8-.1 1.3v.3c0 .067.033.1.1.1v.2c0 .067.033.1.1.1v.2l.1.1c.2.5.5.8.9 1 .133.067.333.067.6 0 .3-.1.5-.3.8-.5.6-.5 1.2-1.3 1.2-1.3l-.4-.8-.1-.9s-1-.2-1.8-.2c-.3 0-.7 0-.9.1Z"/>
  <path fill="#050505" fill-rule="evenodd" d="M29.975 76.57c-.4-.2-.7-.6-1-1.1v-.1c-.067 0-.1-.033-.1-.1v-.1c-.067 0-.1-.033-.1-.1v-.2l-.1-.1v-.3h-.1c0-.6 0-1.1.2-1.5.067-.2.267-.333.6-.4.267-.133.6-.166 1-.1.9 0 1.8.2 1.8.2.133.067.2.133.2.2l.1.9.4.7c.067.067.067.167 0 .3 0 0-.6.7-1.3 1.2a3.131 3.131 0 0 1-.8.6c-.2.067-.366.1-.5.1-.133 0-.233-.033-.3-.1Zm2.1-2.6c0-.067-.033-.1-.1-.1v-.8c-.3-.1-1-.2-1.6-.2-.333 0-.6.033-.8.1h-.1c-.2.067-.3.133-.3.2-.2.3-.2.7-.1 1.2v.3l.1.1v.3h.1v.1l.1.1c.2.4.5.8.8.9.067.067.2.067.4 0s.434-.233.7-.5c.5-.4 1-.9 1.2-1.1l-.4-.6Z" clip-rule="evenodd"/>
  <path fill="#050505" d="m31.575 72.97.5.8s-.6.7-1.3 1.3c-.2.2-.5.4-.8.4-.2.133-.4.167-.6.1l-.2-.2c.2.5.5.8.9 1 .133.067.333.067.6 0 .3-.1.5-.3.8-.5.6-.5 1.2-1.3 1.2-1.3l-.4-.8-.1-.9s-.3 0-.6-.1v.2Z" opacity=".2"/>
  <path fill="#FCE060" d="M35.675 74.67c.267-.067.433-.2.5-.4.2-.3.2-.8.2-1.3l-.1-.1v-.3l-.1-.1v-.2c-.067 0-.1-.033-.1-.1v-.1l-.1-.1c-.2-.4-.5-.8-.8-.9-.2-.133-.433-.133-.7 0-.2.1-.5.2-.7.5-.7.5-1.3 1.2-1.3 1.2l.5.8.1.9s.9.2 1.7.3c.4 0 .7 0 .9-.1Z"/>
  <path fill="#050505" fill-rule="evenodd" d="M34.775 74.97c-.8-.1-1.8-.3-1.8-.3-.067 0-.133-.067-.2-.2v-.8l-.5-.8c-.067-.067-.067-.133 0-.2 0 0 .6-.8 1.3-1.3.333-.267.633-.433.9-.5.267-.133.5-.133.7 0 .4.1.7.5 1 1v.1h.1v.1c0 .067.033.1.1.1v.2c0 .067.033.1.1.1v.3l.1.1v.1c.1.5 0 1-.2 1.4-.067.2-.267.367-.6.5-.2.067-.433.1-.7.1h-.3Zm1.3-2v-.4h-.1v-.2l-.1-.1v-.2h-.1c-.2-.4-.5-.7-.7-.9-.133 0-.3.033-.5.1s-.433.2-.7.4c-.5.4-1 .9-1.2 1.1l.4.7c.067 0 .1.033.1.1v.7c.3.1 1 .2 1.6.2h.1c.333.067.6.067.8 0 .2-.067.333-.167.4-.3.1-.3.1-.7.1-1.1v-.1h-.1Z" clip-rule="evenodd"/>
  <path fill="#050505" d="m35.175 71.07-.1-.1v.1c.067 0 .1.034.1.1v.1l.1.1v.2l.1.1v.3c.1.5.1 1-.1 1.3-.066.2-.233.334-.5.4-.3.1-.6.1-.9.1a4.637 4.637 0 0 0-.9-.1l.1.8s.9.2 1.7.3c.4 0 .7 0 .9-.1.267-.067.433-.2.5-.4.2-.3.2-.8.2-1.3l-.1-.1v-.3l-.1-.1v-.2c-.067 0-.1-.033-.1-.1v-.1l-.1-.1c-.2-.4-.5-.8-.8-.9Z" opacity=".2"/>
  <path fill="#FCE060" d="M32.475 71.57c.4-.2.8 0 .9.4l.8 2.4c.1.4-.1.8-.5.9l-.7.3c-.4.1-.8-.1-.9-.5l-.8-2.4c-.2-.3 0-.8.4-.9l.8-.2Z"/>
  <path fill="#050505" fill-rule="evenodd" d="m31.875 75.17-.8-2.4c-.067-.267-.067-.5 0-.7a.895.895 0 0 1 .6-.5l.7-.2c.267-.067.5-.067.7 0a.895.895 0 0 1 .5.6l.8 2.3c.067.267.067.533 0 .8a.971.971 0 0 1-.6.4l-.7.3h-.3c-.4 0-.8-.2-.9-.6Zm.6-3.4-.7.2a.654.654 0 0 0-.3.3.426.426 0 0 0 0 .4l.8 2.4c.1.2.4.4.6.3l.8-.3c.133 0 .233-.067.3-.2a.425.425 0 0 0 0-.4l-.8-2.4a.654.654 0 0 0-.3-.3c-.067-.067-.133-.1-.2-.1s-.133.033-.2.1Z" clip-rule="evenodd"/>
  <path fill="#050505" d="m32.675 71.47.6 2c.2.4 0 .8-.4.9l-.8.3h-.2l.2.4c.1.4.5.6.9.5l.7-.3c.4-.1.6-.5.5-.9l-.8-2.4c-.1-.3-.4-.5-.7-.5Z" opacity=".2"/>
  <path fill="#93D7E6" d="M2.375 110.17c0 .2.5.3 1.1.2.6-.1 1-.4 1-.6-.1-.4-.6-.4-1.2-.2-.5.1-1 .2-.9.6Z" opacity=".3"/>
  <path fill="#93D7E6" d="M3.875 109.77a.883.883 0 0 1-.4.1l-.5-2c0-.067.033-.133.1-.2l3.4-2.7c.1 0 .2 0 .3.1 0 .1 0 .2-.1.2l-3.2 2.6.4 1.9Zm-3.7.1 2.4-1.9c.067-.067.134-.067.2 0 .067 0 .1.033.1.1l.4 1.9h-.4l-.3-1.5-2.2 1.7c-.1 0-.2 0-.2-.1-.1-.1-.1-.2 0-.2Z" opacity=".3"/>
  <path fill="#93D7E6" d="m3.975 109.57 1.6 7h.1c1.8 0 3.3 1.5 3.3 3.3 0 1.8-1.5 3.3-3.3 3.3-1.8 0-3.3-1.5-3.3-3.3 0-1.4.8-2.5 1.9-3l-1.5-7" opacity=".3"/>
  <path fill="#FEFEFE" fill-rule="evenodd" d="M2.875 109.97c-.133 0-.2-.033-.2-.1-.067-.066 0-.167.2-.3.067-.067.2-.1.4-.1.3-.1.7-.1.8.1 0 .2-.4.4-.7.4a.883.883 0 0 1-.4.1l-.1-.1Zm.4-.4c-.3.1-.5.2-.5.3h.6c.3-.1.5-.2.5-.3h-.6Z" clip-rule="evenodd"/>
  <path fill="#FEFEFE" fill-rule="evenodd" d="M2.675 110.47c-.3 0-.4-.2-.4-.3-.067-.2.033-.367.3-.5.133-.133.367-.2.7-.2.333-.066.6-.1.8-.1.267 0 .433.133.5.4 0 .3-.5.6-1.1.7h-.8Zm.6-.9a9.56 9.56 0 0 0-.7.2c-.133.133-.167.267-.1.4 0 .067.067.1.2.1.267.067.533.067.8 0 .6-.1.9-.4.9-.5-.067-.133-.167-.2-.3-.2h-.8Z" clip-rule="evenodd"/>
  <path fill="#69BC45" d="M2.975 119.17c0 .3 1.2.6 2.7.6 1.5 0 2.7-.3 2.7-.6.067.2.1.433.1.7 0 1.5-1.3 2.8-2.8 2.8-1.5 0-2.8-1.3-2.8-2.8 0-.267.033-.5.1-.7Z"/>
  <path fill="#0F793D" fill-rule="evenodd" d="M3.675 121.87c-.6-.5-.9-1.2-.9-2 0-.267.033-.5.1-.7 0-.067.033-.1.1-.1s.1.033.1.1c0 .1.2.2.7.3.5.1 1.2.2 1.9.2s1.4-.1 1.9-.2.7-.3.7-.3c0-.067.033-.1.1-.1l.1.1c.067.2.1.433.1.7 0 .8-.3 1.5-.9 2-.5.6-1.2.9-2 .9s-1.5-.3-2-.9Zm3.9-2.2c-.5.1-1.2.2-1.9.2s-1.4-.1-1.9-.2c-.333-.067-.6-.167-.8-.3v.5c0 1.5 1.2 2.7 2.7 2.7 1.5 0 2.7-1.2 2.7-2.7 0-.133-.033-.3-.1-.5-.133.133-.367.233-.7.3Z" clip-rule="evenodd"/>
  <path fill="#A0D082" d="M2.975 119.17c0 .3 1.2.6 2.7.6 1.5 0 2.7-.3 2.7-.6 0-.4-1.2-.6-2.7-.6-1.5 0-2.7.2-2.7.6Z"/>
  <path fill="#0F793D" fill-rule="evenodd" d="M3.775 119.67c-.6-.133-.9-.3-.9-.5 0-.267.3-.467.9-.6.5-.1 1.2-.1 1.9-.1s1.4 0 1.9.1c.6.133.9.333.9.6 0 .2-.3.367-.9.5-.5.1-1.2.2-1.9.2s-1.4-.1-1.9-.2Zm0-.9c-.6.2-.7.3-.7.4 0 0 .1.2.7.3.5.1 1.2.2 1.9.2s1.4-.1 1.9-.2.7-.3.7-.3c0-.1-.2-.2-.7-.4-.5-.1-1.2-.1-1.9-.1s-1.4 0-1.9.1Z" clip-rule="evenodd"/>
  <path fill="#FEFEFE" fill-rule="evenodd" d="M2.875 107.87c0-.133.033-.233.1-.3l3.4-2.6c.2-.1.3-.1.4 0 .1.1.1.3 0 .4l-3.2 2.6.4 1.8-.1.1c-.067.067-.2.1-.4.1h-.1l-.5-2.1Zm.4 0 3.3-2.6.1-.1c-.067-.066-.133-.066-.2 0l-3.4 2.6v.1l.4 1.9h.2l-.4-1.9Z" clip-rule="evenodd"/>
  <path fill="#FEFEFE" fill-rule="evenodd" d="M.075 110.17c-.1-.1-.1-.3 0-.4l2.4-1.9c.067-.067.167-.067.3 0 .134 0 .2.067.2.2l.4 1.9h-.1c-.2.067-.333.1-.4.1l-.1-.1-.3-1.3-2 1.5c-.067.067-.133.1-.2.1-.066 0-.133-.033-.2-.1Zm2.9-.3h.2l-.4-1.8h-.1c0-.067-.033-.067-.1 0l-2.3 1.8c-.066.067-.066.133 0 .2h.1l2.2-1.7.4 1.5Z" clip-rule="evenodd"/>
  <path fill="#FEFEFE" d="M5.675 123.27c.9 0 1.8-.4 2.4-1 .7-.6 1-1.5 1-2.4 0-.9-.3-1.8-1-2.4-.6-.7-1.5-1-2.4-1h-.1l-1.4-6.3c0-.067-.033-.1-.1-.1s-.1.033-.1.1l1.5 6.4c0 .067.033.1.1.1h.1c1.8 0 3.2 1.4 3.2 3.2 0 1.8-1.4 3.2-3.2 3.2-1.8 0-3.2-1.4-3.2-3.2 0-1.3.7-2.4 1.9-2.9.067-.066.067-.133 0-.2l-1.4-6.4c0-.067-.033-.1-.1-.1-.067.067-.1.134-.1.2l1.4 6.3c-1.2.6-1.9 1.8-1.9 3.1 0 .9.3 1.8 1 2.4.6.6 1.5 1 2.4 1Z"/>
  <path fill="#FEFEFE" d="M4.675 116.97c.067.067.167.1.3.1l.4-.2h.3c1.5 0 2.8 1.2 2.9 2.7-.4-1.4-1.6-2.4-3.1-2.4-.9 0-1.6.3-2.2.8.4-.4.8-.8 1.4-1Z"/>
  <path fill="#D29F6D" d="m6.575 115.17-.9.5c-.3.2-.8.1-1-.2-.2-.3 0-.6.1-.8.2-.3.4-.4.4-.4"/>
  <path fill="#050505" d="M4.875 114.27c.1-.1.4-.3.4-.3l.1.2.1.2-.2.1s-.2.1-.4.3c0 .1-.2.3 0 .6.1.2.5.3.7.2l.9-.6c.1 0 .2 0 .3.1.1.1 0 .2-.1.3l-.8.5h-.1c-.4.3-1 .1-1.3-.3-.2-.4-.1-.8.1-1l.3-.3Zm78.4-40.8 2.4-.2.7 10-2.8.2-.5-7.2c-.6.2-1.167.367-1.7.5l-.1-2.6 2-.7Zm5.4-.4 2.4-.1.6 10-2.7.1-.5-7.2c-.667.267-1.233.467-1.7.6l-.1-2.7 2-.7Z"/>
  <path fill="#FEFEFE" d="m84.375 72.27 2.4-.2.6 10-2.8.2-.4-7.2c-.667.2-1.233.367-1.7.5l-.2-2.6 2.1-.7Zm5.4-.4 2.4-.1.6 10-2.8.2-.5-7.2c-.6.2-1.133.367-1.6.5l-.2-2.6 2.1-.8Z"/>
  <mask id="a" width="75" height="75" x="18" y="0" maskUnits="userSpaceOnUse" style="mask-type:luminance">
    <path fill="#fff" d="M92.285 68.6s-5.68 4.07-13.94 5.72c-5.36 1.07-7.41-1.89-9.54-2.85-1.16-.52-2.1-1.03-2.1-1.03l-48.24 2.5V0h73.82v68.6Z"/>
  </mask>
  <g mask="url(#a)">
    <path fill="#050505" d="M44.275 55.97c-.3 1.7.8 3.2 2.4 3.5 1.7.3 3.2-.8 3.5-2.4.3-1.7-.8-3.2-2.4-3.5-1.7-.3-3.2.8-3.5 2.4Zm26.3 5.1c-.3 1.5.8 3 2.3 3.2 1.5.3 3-.7 3.3-2.3.2-1.5-.8-3-2.3-3.2-1.6-.3-3 .7-3.3 2.3Z"/>
    <path fill="#050505" d="M38.675 51.97c-.4 2.2 1.1 4.3 3.3 4.7 2.2.4 4.3-1.1 4.7-3.3.4-2.2-1.1-4.4-3.3-4.7-2.3-.4-4.4 1.1-4.7 3.3Zm37 4.7c-1.3 2.1-.7 4.7 1.2 5.8 1.8 1.1 4.4.3 5.6-1.8 1.2-2.1.7-4.7-1.2-5.8-1.9-1.1-4.4-.3-5.6 1.8Z"/>
    <path fill="#050505" d="M40.775 40.97c-1.7 10.2 6.6 20.1 18.6 22.2 12.1 2.1 23.2-4.5 25-14.6 1.8-10.2-6.6-20.2-18.6-22.2-12-2.1-23.2 4.4-25 14.6Z"/>
    <path fill="#3F1D13" d="M73.375 63.77c-.8 0-1.6-.4-2-1.2l.4-.3c.5.9 1.6 1.2 2.5.8.4-.2.7-.6.8-1.1.2-.4.1-.9-.1-1.3l.5-.3c.3.6.3 1.2.2 1.8-.2.6-.6 1.1-1.2 1.4-.333.133-.7.2-1.1.2Zm5.4-1.7c-.8 0-1.6-.3-2.3-.9l.4-.4c.6.5 1.4.8 2.2.7.7 0 1.5-.4 2-1 1-1.2.9-3.1-.4-4.2l.4-.4c1.5 1.3 1.7 3.5.4 5-.6.7-1.5 1.1-2.4 1.2h-.3Zm-36.4-6.7c-.9 0-1.7-.3-2.4-.9l.4-.4c.5.5 1.3.8 2 .8.8 0 1.5-.4 2.1-1 .4-.5.7-1.2.6-1.9-.1-.8-.4-1.6-1.1-2.1l.4-.4c.7.6 1.2 1.5 1.3 2.4 0 .9-.2 1.7-.8 2.4-.7.7-1.6 1.1-2.5 1.1Zm5.1 3.5c-1.3 0-2.4-1-2.4-2.4h.5c.1 1.1 1 1.9 2 1.9v.5h-.1Z"/>
    <path fill="#803531" d="M41.175 59.07c2.5 3.6 5.8 5.8 9.2 7.6 3.5 1.8 6-3.1 2.5-4.8-3.4-1.7-4.9-2.7-7.3-5.8-.5-.7-2-1.4-3.6-.2-1.4 1.1-1.3 2.5-.8 3.2Z"/>
    <path fill="#050505" fill-rule="evenodd" d="M51.875 67.27a3.55 3.55 0 0 1-1.6-.4c-2-1.1-3.6-2.1-5-3.2-1.7-1.3-3.1-2.8-4.3-4.5-.3-.4-.4-1-.3-1.6.1-.5.3-1.2 1.2-1.9.9-.7 1.7-.7 2.3-.6.8.1 1.3.5 1.6.8 2.4 3.2 3.9 4.1 7.2 5.8.6.267 1.033.633 1.3 1.1.333.4.5.867.5 1.4.1 1.1-.5 2.1-1.4 2.7-.4.267-.867.4-1.4.4h-.1Zm-8.1-11.8c-.4 0-1 .1-1.6.6-1.3 1-1.3 2.2-.9 2.8 2.8 3.9 6.2 6 9.2 7.6 1 .5 1.9.5 2.7 0 .7-.5 1.2-1.4 1.1-2.3 0-.9-.5-1.6-1.5-2.1-3.4-1.7-4.9-2.6-7.4-5.9-.2-.3-.6-.6-1.3-.7h-.3Z" clip-rule="evenodd"/>
    <path fill="#050505" d="M41.175 59.07c2.5 3.6 5.8 5.8 9.2 7.6 3.5 1.8 6-3.1 2.5-4.8-1.3-.7-3.3 2.6-4.7 2-2.1-1-4.8-3.5-6.2-5.4-.6-.7-.7-1.7 0-2.6-1.4 1.1-1.3 2.5-.8 3.2Z" opacity=".4"/>
    <path fill="#EE4763" d="m47.875 76.27-1.6 4c2.3 1.6 6.1 2.9 10.1 4l1.1-3.6c.8-2.1-1-4.3-3.4-5.3-2.3-1.1-5.3-1.1-6.2.9Z"/>
    <path fill="#050505" fill-rule="evenodd" d="M56.375 84.47c-2.4-.7-4.2-1.3-5.8-1.8-1.9-.7-3.3-1.5-4.5-2.3-.067-.067-.067-.133 0-.2l1.6-3.9a3.123 3.123 0 0 1 1.6-1.6c1.4-.5 3.2-.3 4.9.5 1.3.6 2.3 1.4 3 2.3.7 1.1.9 2.2.5 3.2l-1.1 3.6c-.067.133-.133.2-.2.2Zm-9.9-4.3c2.5 1.7 6.3 2.9 9.8 3.8l1-3.4c.4-1.2 0-2.2-.5-2.8-.6-.9-1.6-1.7-2.7-2.2-1.6-.8-3.4-.9-4.6-.5-.667.267-1.133.7-1.4 1.3l-1.6 3.8Z" clip-rule="evenodd"/>
    <path fill="#050505" d="M47.875 76.27c-.9 2.3 2.9 6.1 3.9 6.6 1.4.6 3 .9 4.6 1.4l1.1-3.6c.8-2.1-1-4.3-3.4-5.3-2.3-1.1-5.3-1.1-6.2.9Z" opacity=".4"/>
    <path fill="#F69226" d="M56.675 80.77c-7.4-1.3-7.8-4.2-7.9-6.5.2-3.7 2-9.8 2.9-12 1.6-3.5 4.7-4.4 8.8-3.7 4.1.8 7.5 2.6 7 6.5-.4 3.1-1.4 8.9-1.2 12.3-.8 3.3-2.2 4.6-9.6 3.4Z"/>
    <path fill="#050505" fill-rule="evenodd" d="M61.175 81.37c-1.2 0-2.7-.1-4.6-.4-3.3-.6-5.5-1.6-6.8-2.9-.466-.6-.8-1.233-1-1.9-.2-.7-.2-1.3-.2-1.8v-.1c.1-1.7.5-4 1.2-6.6.6-2.3 1.2-4.3 1.7-5.5 1.6-3.3 4.5-4.5 9-3.8 2.333.4 4.133 1.1 5.4 2.1 1.467 1.2 2.067 2.733 1.8 4.6-.1.7-.2 1.7-.3 2.6-.5 3.2-1.1 7.1-.9 9.7-.2 1-.5 1.6-.8 2.2a4.07 4.07 0 0 1-1.6 1.4c-.8.3-1.7.4-2.9.4Zm-12.2-7.1c.1 2 .2 5 7.7 6.3 1.9.3 3.4.4 4.6.4 3.3 0 4.2-1.2 4.8-3.6-.2-2.7.4-6.6.9-9.7.1-1 .2-1.9.3-2.7.2-1.666-.367-3.067-1.7-4.2-1.2-.933-2.9-1.6-5.1-2-4.4-.7-7.2.5-8.6 3.6-1 2.2-2.7 8.3-2.9 11.9Z" clip-rule="evenodd"/>
    <path fill="#050505" d="M56.675 80.77c-6.1-1.1-.2-11.7 3.9-11.6 0 0 .9 4 1.1 5.4.4 1.8 2.3 2.2 2.2.1-.1-4-1.9-6.7.3-10 2.1-3.2-7.8-6.8-3.7-6.1 4.1.8 7.5 2.6 7 6.5-.4 3.1-1.4 8.9-1.2 12.3-.7 3.2-2.2 4.6-9.6 3.4Z" opacity=".4"/>
    <path fill="#803531" d="M54.975 60.57c-1.4 2.7-1.1 5 1.2 5.4 2.4.4 5.4-1.4 6.7-4 1.3-2.6.4-2.9-2-3.3-2.3-.4-4.6-.7-5.9 1.9Z"/>
    <path fill="#050505" fill-rule="evenodd" d="M56.875 66.27c-.2 0-.433-.033-.7-.1-.9-.1-1.6-.6-1.9-1.3-.5-1.1-.4-2.6.5-4.4.7-1.2 1.5-1.9 2.7-2.1 1.1-.3 2.2-.1 3.5.1 1.4.3 2.3.5 2.6 1.1.2.5.1 1.3-.5 2.5-.7 1.3-1.8 2.4-3.1 3.2-1 .7-2.1 1-3.1 1Zm-1.7-5.6c-.9 1.6-1 3.1-.6 4 .333.6.9.967 1.7 1.1 2.2.4 5.1-1.3 6.4-3.9.6-1 .7-1.7.5-2.1-.2-.5-1-.7-2.3-.9-2.6-.4-4.5-.6-5.7 1.8Z" clip-rule="evenodd"/>
    <path fill="#EE4763" d="M50.575 68.17c.7-2.8 1.4-6.2 4-9.2l1.2 1.3c-2.3 2.7-3 5.8-3.5 8.2l-1.7-.3Z"/>
    <path fill="#050505" fill-rule="evenodd" d="M52.275 68.77v-.1l-1.7-.3c-.1-.1-.2-.2-.2-.3.4-1.6.7-3 1.3-4.5.7-1.8 1.6-3.4 2.7-4.7.067-.066.133-.1.2-.1s.1.033.1.1l1.2 1.3c.1 0 .1.1 0 .2-2.2 2.7-2.9 5.7-3.4 8.1v.1c0 .067-.033.1-.1.1 0 .067-.033.1-.1.1Zm-1.4-.8 1.2.3c.6-2.4 1.3-5.4 3.4-8l-.9-1c-2.4 2.9-3.2 6.2-3.7 8.7Z" clip-rule="evenodd"/>
    <path fill="#EE4763" d="M48.175 74.77c.8-2.8 2.7-6.9 2.7-6.9s1.9.9 4 1.2c2 .4 5.2.4 5.2.4l1.3 7.4s3.6.7 5.1 0c-.2 1.5-.4 2.5-.7 3.8-1.2 1.5-7.1 1.4-10.3.8-4.4-.7-8.7-2-7.3-6.7Z"/>
    <path fill="#050505" d="M55.475 81.67h-.1c-1.2-.2-2.8-.5-4.2-1.1-1.4-.5-2.4-1.2-2.9-2.1-.333-.467-.533-1-.6-1.6-.067-.667.033-1.367.3-2.1.8-2.8 2.7-6.9 2.7-6.9.1-.1.2-.2.3-.1 0 0 1.9.8 3.9 1.1 2 .4 5.2.4 5.2.4.1 0 .2.1.2.2l1.2 7.2c.7.2 3.6.6 4.9 0 .067 0 .133.033.2.1.067 0 .1.033.1.1-.1.9-.3 1.9-.5 2.8-.067.4-.133.733-.2 1 0 .2-.1.2-.2.2s-.2-.1-.2-.2c.067-.333.133-.7.2-1.1.2-.8.3-1.6.4-2.4-1.6.5-4.7-.1-4.9-.1-.066 0-.1-.067-.1-.2l-1.3-7.2c-.6 0-3.3-.1-5.1-.4-1.7-.3-3.3-.9-3.8-1.1-.4.8-1.9 4.3-2.6 6.7-.4 1.333-.333 2.467.2 3.4.5.8 1.4 1.4 2.8 2 1.3.5 2.9.8 4.1 1 .1 0 .2.1.2.2-.1.1-.1.2-.2.2Z"/>
    <path fill="#EE4763" d="M58.775 69.37c.6-3.1 3.1-6.1 6.3-9.2l1.4 1.6c-2.8 2.8-5.1 5.3-5.6 8.2l-2.1-.6Z"/>
    <path fill="#050505" fill-rule="evenodd" d="M60.875 70.17h-.1l-2-.6c-.1-.1-.2-.2-.2-.3.3-1.4 1-3 2.2-4.6 1-1.4 2.3-2.8 4.1-4.7h.3l1.5 1.6v.3c-2.7 2.6-5.1 5.2-5.6 8.1 0 .067-.033.133-.1.2h-.1Zm-1.8-1 1.6.5c.3-1.3.9-2.6 2-4 1-1.4 2.3-2.7 3.5-3.9l-1.1-1.3c-2.8 2.7-5.4 5.7-6 8.7Z" clip-rule="evenodd"/>
    <path fill="#6ECFF5" d="M61.275 69.97c-.2.7-.9 1.2-1.6 1.1-.7-.1-1.2-.8-1.1-1.6.1-.7.8-1.2 1.6-1.1.7.2 1.2.9 1.1 1.6Z"/>
    <path fill="#050505" fill-rule="evenodd" d="M59.875 71.27h-.2c-.9-.1-1.4-.9-1.3-1.8.1-.4.3-.8.6-1 .4-.2.8-.3 1.2-.3.8.2 1.4 1 1.3 1.8-.2.8-.8 1.3-1.6 1.3Zm0-2.7c-.2 0-.4.067-.6.2a1.28 1.28 0 0 0-.5.8c-.1.6.3 1.2.9 1.3h.2c.6 0 1.1-.4 1.2-.9.1-.7-.3-1.3-1-1.4h-.2Z" clip-rule="evenodd"/>
    <path fill="#050505" d="M60.675 70.87c-.6.4-1.4.3-1.9-.3 0 0 1 .2 1.6-.2.6-.4.6-1.4.6-1.4.5.6.3 1.5-.3 1.9Z" opacity=".4"/>
    <path fill="#6ECFF5" d="M52.175 68.57c-.3.7-.9 1.1-1.4.9-.6-.2-.8-.9-.5-1.6.3-.7.9-1.1 1.4-.9.5.2.8.9.5 1.6Z"/>
    <path fill="#050505" fill-rule="evenodd" d="M50.975 69.77c-.067 0-.167-.033-.3-.1-.3-.1-.6-.4-.7-.7-.1-.4 0-.8.1-1.2.1-.3.4-.7.7-.8.3-.3.7-.3 1-.2.3.1.5.4.6.8.1.3.1.7 0 1.1-.2.4-.4.7-.7.9-.2.133-.433.2-.7.2Zm.4-2.6a.887.887 0 0 0-.4.1c-.2.133-.367.367-.5.7-.2.6-.1 1.2.3 1.4.5.1 1-.2 1.2-.8.2-.6.1-1.2-.4-1.4h-.2Z" clip-rule="evenodd"/>
    <path fill="#050505" d="M51.575 69.37c-.6.4-1.2.2-1.4-.5 0 0 .7.4 1.2 0 .6-.3.9-1.3.9-1.3.1.7-.2 1.5-.7 1.8Z" opacity=".4"/>
    <path fill="#A0C7E9" d="M59.575 75.87c-.067-.067-.1-.133-.1-.2l-.2-.9c0-.1.1-.1.2-.2 0 0 .1.1.1.2l.2.9c0 .1-.1.1-.1.2h-.1Zm-.3-1.8c-.066 0-.1-.067-.1-.2l-.2-.9c0-.1.1-.1.2-.1.1-.1.1 0 .2.1l.1.9c0 .1 0 .1-.1.2h-.1Zm-.2-1.8c-.133 0-.2-.067-.2-.2v-.2l-.3-.1c-.1 0-.2-.1-.1-.2l.1-.1.4.1c.067 0 .133.034.2.1v.4c0 .1 0 .2-.1.2Zm-1.3-.6-.9-.2c-.1 0-.1-.1-.1-.1 0-.1.1-.2.2-.2l.8.2c.1 0 .2.1.1.2 0 .067-.033.1-.1.1Zm-1.7-.3-.8-.2c-.1 0-.2 0-.2-.1s.1-.2.2-.2l.8.2c.1 0 .2.1.2.2-.066.067-.133.1-.2.1Zm-1.7-.3-.8-.1c-.1-.1-.2-.1-.1-.2 0-.1 0-.2.1-.2l.9.2c.1 0 .1.1.1.2 0 .067-.067.1-.2.1Zm-1.6-.3h-.1l-.8-.1c-.1 0-.1-.1-.1-.2s.1-.2.2-.1l.8.1c.1 0 .1.1.1.2 0 .067-.033.1-.1.1Zm-2.2 0h-.1c-.1 0-.1-.1-.1-.2l.2-.4c0-.067.067-.1.2-.1l.3.1c.1 0 .2.1.2.2-.1.1-.1.1-.2.1h-.3l-.1.2c0 .067-.033.1-.1.1Zm-1.3 3.3c-.066 0-.1-.033-.1-.1-.1 0-.1-.1-.1-.2l.4-.8c0-.1.1-.1.2-.1 0 .1.1.2.1.3l-.4.8c0 .067-.033.1-.1.1Zm.6-1.7c-.1 0-.2-.1-.1-.2l.3-.8c0-.1.1-.1.2-.1.1.1.1.1.1.2l-.3.8c-.067.067-.133.1-.2.1Zm-.8 3-.4-.2c-.067-.067-.067-.133 0-.2l.1-.4s.1-.1.2 0c.1 0 .1.1.1.2l-.1.2.2.1c.1.1.1.2.1.2-.067.067-.133.1-.2.1Z"/>
    <path fill="#050505" d="M67.475 62.37c-6.6 6.9-17 1.1-14.9-1.6 3.5-4.3 16.7-.3 14.9 1.6Z" opacity=".4"/>
    <path fill="#803531" d="M76.575 73.27c-4.4-.4-8-1.9-11.3-3.9-3.4-2-.6-6.7 2.7-4.7 3.3 2 4.9 2.8 8.8 3.2.9.1 2.2 1 2 3-.2 1.7-1.4 2.4-2.2 2.4Z"/>
    <path fill="#050505" fill-rule="evenodd" d="M76.675 73.47h-.1c-2.1-.2-4.1-.6-6.1-1.3-1.7-.7-3.4-1.5-5.4-2.6-.533-.333-.933-.733-1.2-1.2a2.974 2.974 0 0 1-.4-1.5c0-1.1.7-2.1 1.6-2.6.4-.2.867-.3 1.4-.3.533 0 1.067.167 1.6.5 3.2 2 4.8 2.7 8.7 3.1.5.1 1.1.4 1.6 1 .4.4.8 1.2.7 2.3-.2 1.1-.6 1.7-1 2-.4.4-.9.6-1.4.6Zm-.1-.5c.7.1 1.8-.6 2-2.2.1-.9-.2-1.6-.5-1.9-.4-.5-1-.8-1.3-.8-4.1-.4-5.7-1.2-8.9-3.2-.9-.5-1.8-.6-2.6-.2-.8.5-1.3 1.3-1.3 2.2 0 .9.5 1.7 1.4 2.3 2.9 1.7 6.5 3.5 11.2 3.8Z" clip-rule="evenodd"/>
    <path fill="#050505" d="M76.575 73.27c-4.4-.4-8-1.9-11.3-3.9-3.4-2-.6-6.7 2.7-4.7 1.3.8-.5 4.2.9 5.1 1.9 1.3 5.4 2.2 7.8 2.5.8.1 1.8-.4 2.1-1.4-.2 1.7-1.4 2.4-2.2 2.4Z" opacity=".4"/>
    <path fill="#803531" d="M76.775 67.87c.8.1 1.8.1 3.1-.6 1.6-.8 3.1-1.2 3.5-.6.6.9-1.9 1.9-2.1 3.3-.3 1.5-.8 2.9-2.5 3.3a10.02 10.02 0 0 1-2 0"/>
    <path fill="#050505" d="M77.775 73.57a6.7 6.7 0 0 1-1.1-.1c-.1 0-.2-.1-.2-.3.1-.1.2-.2.3-.2.733.133 1.4.133 2 0 1.6-.3 2-1.8 2.2-3 .2-.8.8-1.4 1.4-1.9.6-.6 1-1 .8-1.3-.2-.3-1.4-.2-3.2.7-1.4.8-2.4.7-3.2.6-.2 0-.2-.1-.2-.3 0-.1.1-.2.3-.2.7.2 1.6.2 2.9-.5.7-.4 3.2-1.5 3.8-.5.2.267.167.567-.1.9-.2.3-.5.6-.8.9-.5.5-1.1 1-1.2 1.7-.1.9-.4 1.5-.7 2.1-.467.667-1.1 1.1-1.9 1.3-.333.067-.7.1-1.1.1Z"/>
    <path fill="#803531" d="M75.075 70.37c-.1 1.3.6 2.4 1.7 2.6 1.1.1 2.1-.9 2.2-2.2.2-1.3-.6-2.5-1.6-2.6-1.1-.1-2.1.8-2.3 2.2Zm4.8 2.4.6-.4 1.8-.6c.5-.3.7-.8.5-1.3-.3-.4-.7-.5-.9-.5l-1.9.1"/>
    <path fill="#050505" d="M79.875 72.97c-.067 0-.133-.033-.2-.1 0-.1 0-.2.1-.3l.6-.4h.1l1.7-.7c.2-.1.3-.2.4-.4v-.5c-.3-.4-.7-.4-.7-.4l-1.8.2c-.2 0-.3-.1-.3-.2 0-.2.1-.3.2-.3l1.8-.2h.1c.3 0 .8.2 1.1.7a.85.85 0 0 1 0 .8c-.1.3-.3.6-.6.8l-1.8.6-.5.4h-.2Z"/>
    <path fill="#803531" d="M77.375 51.37c-1.5 8.6-7.2 14.5-18.2 13.1-10.8-1.4-14.2-9.8-12.7-18.5 1.5-8.6 9.7-14.5 18.2-13s14.2 9.7 12.7 18.4Z"/>
    <path fill="#050505" fill-rule="evenodd" d="M62.275 64.87c-1 0-2.033-.067-3.1-.2-2.4-.333-4.467-1-6.2-2-1.733-.867-3.133-2.067-4.2-3.6-1.267-1.733-2.1-3.733-2.5-6-.4-2.2-.4-4.6 0-7.1a17.788 17.788 0 0 1 2.3-6 17.217 17.217 0 0 1 4.3-4.5c1.667-1.2 3.5-2.033 5.5-2.5a14.34 14.34 0 0 1 6.3-.2c2.133.333 4.1 1.1 5.9 2.3 1.667 1.133 3.1 2.567 4.3 4.3a15.212 15.212 0 0 1 2.5 5.6c.467 2.133.533 4.267.2 6.4-.4 2.267-1.067 4.267-2 6-.933 1.8-2.133 3.3-3.6 4.5-1.6 1.2-3.433 2.033-5.5 2.5-1.267.333-2.667.5-4.2.5Zm-.3-31.9c-3.2 0-6.2 1-8.9 2.9-3.4 2.4-5.6 6-6.4 10.2-.8 5 0 9.6 2.4 12.8 2.2 3 5.6 4.8 10.2 5.4 1.067.133 2.067.2 3 .2 8.2 0 13.4-4.6 14.9-13.2 1.4-8.5-4.2-16.7-12.6-18.1-.867-.133-1.733-.2-2.6-.2Z" clip-rule="evenodd"/>
    <path fill="#050505" d="m74.575 50.67-.6 1.1s-.3 14-15.7 12.5c-.1 0 .2-.2.8.2h.1c11 1.4 16.7-4.5 18.2-13.1.4-2.4.2-4.7-.3-6.8-.9 1.4-2.5 6.1-2.5 6.1Z" opacity=".4"/>
    <path fill="#FEFEFE" d="M58.275 53.37s-.2-4.5-6.1-4c0 0-.6 3.5 2.4 4.3 2.8.8 3.7-.3 3.7-.3Zm6 1.4s1.4-4.3 6.9-2.1c0 0-.4 3.4-3.4 3.4s-3.5-1.3-3.5-1.3Z"/>
    <path fill="#050505" d="M62.975 56.07s-.9 1.1-2.3.9c-1.3-.3-2-1.9-2-1.9s1.4 1 2.1 1.1c.6.1 2.2-.1 2.2-.1Zm-10.5-29.9c-.4 2.3 1.2 4.4 3.6 4.8 2.4.4 4.6-1.1 5-3.3.4-2.2-1.2-4.4-3.6-4.8-2.4-.4-4.6 1.1-5 3.3Zm19.6 3.5c-.3 1.8.9 3.5 2.8 3.8 1.8.3 3.5-.9 3.8-2.7.3-1.8-1-3.5-2.8-3.8-1.8-.3-3.5.9-3.8 2.7Z"/>
    <path fill="#050505" d="M45.175 29.27c-.4 2.7 1.4 5.3 4.2 5.8 2.7.5 5.3-1.4 5.8-4.1.5-2.8-1.4-5.4-4.1-5.9-2.8-.4-5.4 1.4-5.9 4.2Zm33.9 11.2c-.5 2.7 1.4 5.4 4.2 5.9 2.8.5 5.4-1.4 5.9-4.2.5-2.8-1.4-5.4-4.2-5.9-2.8-.5-5.4 1.4-5.9 4.2Zm-19.5-13.8c-.6 3.4 2.2 6.7 6.3 7.4 4 .8 7.8-1.5 8.4-4.9.6-3.4-2.2-6.8-6.3-7.5-4-.7-7.8 1.5-8.4 5Z"/>
    <path fill="#050505" d="M75.075 33.47c-.5 2.8 1.3 5.4 4.1 5.8 2.7.5 5.3-1.3 5.8-4.1.4-2.7-1.4-5.3-4.1-5.8-2.8-.4-5.4 1.4-5.8 4.1Zm2.9 15.8c-.6 3 1.3 5.8 4.1 6.3s5.5-1.6 6.1-4.6c.5-3-1.4-5.8-4.2-6.3-2.8-.5-5.5 1.5-6 4.6Zm-41.9-6.2c-.5 3.1 1.3 6 4.1 6.5s5.6-1.7 6.1-4.8c.5-3.1-1.3-6-4.1-6.5s-5.6 1.7-6.1 4.8Z"/>
    <path fill="#050505" d="M39.775 33.97c-.4 2.6 1.3 5 3.9 5.4 2.6.5 5-1.2 5.5-3.8.4-2.6-1.3-5-3.9-5.5-2.6-.4-5 1.3-5.5 3.9Zm20.8 5.8c-.4 2.1 1 4 3.1 4.4 2 .4 4-1 4.4-3.1.3-2-1.1-4-3.1-4.4-2.1-.3-4 1.1-4.4 3.1Z"/>
    <path fill="#050505" d="M53.475 38.97c-.4 2.1 1 4.1 3.1 4.5 2.1.3 4.1-1.1 4.5-3.2.4-2.1-1.1-4.1-3.2-4.5-2.1-.3-4.1 1.1-4.4 3.2Z"/>
    <path fill="#050505" d="M47.175 40.77c-.4 2.1 1.1 4.2 3.2 4.5 2.1.4 4.1-1 4.5-3.1.3-2.2-1.1-4.2-3.2-4.5-2.1-.4-4.1 1-4.5 3.1Z"/>
    <path fill="#050505" d="M43.775 45.37c-.2 1.6.9 3.2 2.5 3.5 1.6.2 3.2-.9 3.5-2.5.3-1.6-.8-3.2-2.5-3.5-1.6-.3-3.2.8-3.5 2.5Zm30.3 4.8c-.3 1.7.8 3.2 2.4 3.5 1.7.3 3.2-.8 3.5-2.5.3-1.6-.8-3.2-2.4-3.4-1.7-.3-3.3.8-3.5 2.4Z"/>
    <path fill="#050505" d="M71.375 46.07c-.2 1.3.7 2.6 2 2.8 1.3.3 2.6-.6 2.8-2 .3-1.3-.6-2.5-1.9-2.8-1.4-.2-2.6.7-2.9 2Z"/>
    <path fill="#050505" d="M66.775 41.67c-.3 1.9 1 3.7 2.9 4.1 1.9.3 3.7-1 4-2.9.4-1.9-.9-3.7-2.8-4-1.9-.4-3.7.9-4.1 2.8Z"/>
    <path fill="#050505" d="m76.875 52.67-5-8.9-6.5-2.6-7.2-.6-5.4 2.3-3.7 1.4-2.5 2.6-3.1-3.6.4-8.1 11.2-7.3 10.2.6 10.6 2.7 6.6 9.2 1.1 9.3-6.7 3Z"/>
    <path fill="#3F1D13" d="M75.375 47.67h-.2l.1-.5c.5 0 .9-.2 1.2-.4.4-.3.6-.8.6-1.2.1-.5-.1-.9-.4-1.3-.3-.3-.7-.5-1.1-.6-.5 0-.9.2-1.3.4-.3.3-.6.8-.6 1.2h-.5c0-.6.3-1.2.8-1.6.4-.4 1-.6 1.6-.5.6 0 1.2.3 1.6.8.4.4.5 1 .5 1.6 0 .6-.3 1.2-.8 1.6-.4.3-.9.5-1.5.5Zm-29.1.2c-.6-.1-1.1-.4-1.5-.9-.4-.4-.5-1-.4-1.6 0-.6.4-1.2.8-1.5.5-.4 1.1-.5 1.7-.5 1.3.2 2.1 1.4 2 2.6l-.6-.1c.1-.9-.5-1.8-1.5-1.9-.4-.1-.9 0-1.2.3-.4.3-.6.7-.7 1.1-.1.5.1.9.3 1.3.3.4.7.6 1.2.7l-.1.5Zm25.8-20.5c-.3-1.5-1.3-2.8-2.7-3.5-2-1-4.3-.8-5.8.5-.333.333-.6.7-.8 1.1l-.5-.3a5.65 5.65 0 0 1 .9-1.2c.8-.7 1.9-1.2 3-1.3 1.2-.1 2.4.1 3.4.7.8.4 1.5 1 2 1.6.5.7.9 1.5 1.1 2.2l-.6.2Zm-8.3 2.2-.4-.2c.2-.6.6-1.1 1.2-1.4.6-.2 1.3-.3 1.9-.1.6.2 1.1.7 1.4 1.3l-.4.2c-.2-.5-.6-.9-1.1-1.1-.5-.2-1.1-.1-1.6.1s-.8.7-1 1.2Zm16.3 8.4c-.467 0-.9-.067-1.3-.2l.2-.5c.8.2 1.7.2 2.4-.2.8-.3 1.4-1 1.6-1.8.6-1.6-.2-3.4-1.9-4l.2-.5c1.9.7 2.9 2.8 2.3 4.7-.4.9-1 1.7-1.9 2.1-.533.267-1.067.4-1.6.4Zm-6.2-2.8c-1-.2-1.8-.7-2.4-1.4-.6-.8-.9-1.8-.7-2.8.3-1.9 2.1-3.3 4.1-3 1 .1 1.9.6 2.5 1.4.5.8.8 1.7.6 2.7l-.5-.1c.1-.8-.1-1.6-.6-2.3-.5-.6-1.2-1.1-2-1.2-1.7-.2-3.3.9-3.6 2.6-.1.8.1 1.7.6 2.3.5.7 1.2 1.1 2.1 1.2l-.1.6Zm-16.1 4.9-.3-.2c.5-.9.7-2 .5-3-.3-1-.9-1.9-1.8-2.5-1.9-1.1-4.3-.6-5.5 1.3l-.3-.2c.6-1 1.6-1.7 2.7-2 1.1-.2 2.3 0 3.3.6s1.7 1.6 2 2.7c.2 1.1 0 2.3-.6 3.3Zm-15-2.9c-.7-.4-1.2-1-1.5-1.8-.2-.8-.1-1.6.3-2.4.4-.7 1-1.2 1.8-1.4.8-.3 1.6-.2 2.3.2l-.2.5c-.6-.3-1.3-.4-1.9-.2-.7.2-1.2.6-1.5 1.2-.3.6-.4 1.3-.2 1.9.2.7.6 1.2 1.2 1.5l-.3.5Zm25.2-.2c-.3-1.4-1.1-2.5-2.3-3.3-1.2-.8-2.6-1-4-.7v-.4c1.4-.3 3-.1 4.2.8 1.3.8 2.2 2 2.5 3.5l-.4.1Zm-30 9.7c-.7-1.1-.8-2.4-.5-3.6.3-1.2 1.1-2.2 2.2-2.8l.2.5c-.9.5-1.6 1.4-1.9 2.5-.3 1-.1 2.2.4 3.1l-.4.3Zm39.3 6.3c-1.6-.5-2.6-2.2-2.1-3.8l.4.1c-.4 1.4.4 2.9 1.8 3.3l-.1.4Zm-26-8.7c-.267 0-.567-.067-.9-.2-.4-.3-.8-.7-.9-1.2-.2-.5-.2-1 .1-1.5l.5.3c-.2.3-.2.7-.1 1.1.1.3.3.6.7.8.3.2.7.2 1.1.1.3-.1.6-.4.8-.7l.5.3c-.3.4-.7.8-1.2.9-.2.067-.4.1-.6.1Zm20 .4c-1.8 0-3.3-1.3-3.5-3.2-.2-1.9 1.3-3.7 3.2-3.8 1.9-.2 3.6 1.2 3.8 3.2h-.5c-.2-1.6-1.6-2.8-3.3-2.7-1.6.2-2.8 1.6-2.6 3.3.1 1.6 1.6 2.8 3.2 2.7v.5h-.3Zm-25.6-2.1c-1.5 0-2.9-1-3.3-2.6l.4-.1c.4 1.6 2.1 2.6 3.7 2.2 1.7-.5 2.6-2.1 2.2-3.8-.5-1.6-2.1-2.6-3.8-2.2l-.1-.3c1.9-.5 3.8.6 4.3 2.4.5 1.9-.6 3.8-2.5 4.3-.267.067-.567.1-.9.1Zm35.3 8.8c-.8 0-1.5-.3-2.1-.9-1.1-1.2-1.1-3 .1-4.2l.3.3c-1 1-1.1 2.6-.1 3.6.5.5 1.1.8 1.8.8.6 0 1.3-.3 1.8-.7 1-1 1-2.6 0-3.6l.3-.3c1.1 1.2 1.1 3-.1 4.1-.5.6-1.3.9-2 .9Zm-31.9-16.6c-1.1-.4-2-1.2-2.6-2.3-.5-1.1-.5-2.3-.1-3.4.4-1.2 1.2-2.1 2.3-2.6 1-.5 2.3-.6 3.4-.2 1.1.4 2 1.2 2.6 2.3.5 1.1.5 2.3.1 3.4l-.5-.1c.7-2.1-.3-4.4-2.4-5.1-2-.7-4.3.4-5 2.4-.7 2.1.3 4.4 2.4 5.1l-.2.5Z"/>
    <path fill="#3F1D13" d="M57.175 42.57c-1.1 0-2.2-.6-2.7-1.8l.5-.2c.5 1.2 1.9 1.8 3.1 1.3 1.3-.5 1.8-1.9 1.3-3.1l.5-.2c.7 1.5 0 3.2-1.5 3.8-.4.134-.8.2-1.2.2Zm26 11.9c-.6 0-1.2-.2-1.8-.5l.2-.5a3.55 3.55 0 0 0 1.6.4c1.2 0 2.3-.6 2.9-1.6.9-1.6.4-3.6-1.2-4.5l.3-.5c1.8 1 2.5 3.4 1.4 5.2-.7 1.3-2 2-3.4 2Z"/>
    <path fill="#3F1D13" fill-rule="evenodd" d="M84.375 44.97h-.7c-2-.4-3.3-2.3-3-4.3.2-1 .7-1.9 1.5-2.4.8-.6 1.8-.8 2.8-.7 1 .2 1.8.7 2.4 1.5.6.9.8 1.8.6 2.8-.3 1.8-1.9 3.1-3.6 3.1Zm0-6.9c-.7 0-1.3.2-1.9.6-.6.5-1.1 1.2-1.2 2.1-.3 1.7.8 3.3 2.5 3.6.2.067.4.1.6.1 1.5 0 2.8-1.1 3.1-2.7.1-.8-.1-1.6-.6-2.3-.5-.7-1.2-1.2-2-1.3-.2-.067-.367-.1-.5-.1Z" clip-rule="evenodd"/>
    <path fill="#3F1D13" d="M77.275 38.87c-.4 0-.8-.1-1.2-.3-.5-.3-.9-.8-1.1-1.4-.2-.6-.1-1.3.2-1.8.3-.6.8-1 1.4-1.2 1.3-.3 2.6.4 3 1.7l-.4.1c-.3-1.1-1.4-1.7-2.5-1.4-.5.1-.9.5-1.1 1-.3.4-.4 1-.2 1.5.1.5.5.9.9 1.2.5.2 1 .3 1.5.1l.2.4c-.266.067-.5.1-.7.1Zm-13 4h-.4v-.4c1.1.2 2.1-.6 2.3-1.6h.4c-.2 1.2-1.2 2-2.3 2Zm-2-2.7-.4-.1c.1-.6.5-1.2 1-1.5.5-.4 1.1-.5 1.8-.4l-.1.4c-.5-.1-1.1 0-1.5.3-.4.3-.7.8-.8 1.3Z"/>
    <path fill="#3F1D13" fill-rule="evenodd" d="M56.775 31.37h-.6c-1-.2-1.8-.7-2.4-1.5-.5-.9-.8-1.8-.6-2.8.4-2 2.3-3.4 4.3-3 .9.1 1.8.7 2.3 1.5.6.8.8 1.8.7 2.7-.4 1.8-1.9 3.1-3.7 3.1Zm0-6.8c-1.4 0-2.8 1.1-3 2.6-.2.8 0 1.6.5 2.3.5.7 1.2 1.2 2 1.3.2.067.367.1.5.1 1.5 0 2.8-1.1 3.1-2.7.2-.8 0-1.6-.5-2.3-.5-.7-1.2-1.1-2-1.3h-.6Z" clip-rule="evenodd"/>
    <path fill="#855226" d="M53.775 51.37c-.3 1 .3 2 1.2 2.2 1 .3 1.9-.3 2.2-1.3.2-1-.3-2-1.2-2.3-1-.2-1.9.4-2.2 1.4Z"/>
    <path fill="#050505" d="M54.875 51.67c0 .4.2.7.5.7.3.1.6-.2.6-.5.1-.3-.1-.6-.4-.7-.3 0-.6.2-.7.5Z"/>
    <path fill="#FEFEFE" d="M56.075 51.27c-.1.2 0 .3.2.4.2 0 .4-.1.4-.3 0-.2-.1-.4-.3-.4-.1-.1-.3.1-.3.3Z"/>
    <path fill="#855226" d="M69.075 54.07c0 1.1-.8 1.9-1.8 1.8-.9 0-1.7-.9-1.7-1.9.1-1 .9-1.8 1.9-1.8.9.1 1.7.9 1.6 1.9Z"/>
    <path fill="#050505" d="M67.975 54.07c-.1.4-.4.6-.6.6-.3-.1-.6-.4-.5-.7 0-.3.3-.6.6-.5.3 0 .5.3.5.6Z"/>
    <path fill="#FEFEFE" d="M66.975 53.37c0 .2-.2.3-.3.3-.2-.1-.3-.2-.3-.4s.2-.3.3-.3c.2 0 .3.2.3.4Z"/>
    <path fill="#050505" d="M64.275 54.97h-.1c-.1 0-.2-.2-.2-.3.7-1.7 2.2-2.7 4.3-2.8 1.3-.1 2.4.2 2.8.3l1.5-1.1c.1-.1.3-.1.4 0 .1.1.1.3-.1.4l-1.5 1.2c-.133.067-.233.1-.3.1 0 0-1.3-.4-2.8-.4-1.867.134-3.133.967-3.8 2.5 0 .067-.066.1-.2.1Z"/>
    <path fill="#BB8653" d="m71.175 50.97-1 1.3 1-1.3Z"/>
    <path fill="#050505" d="M70.175 52.47h-.1c-.2-.1-.2-.3-.1-.4l1-1.3c.1-.1.3-.1.4 0 .1.1.1.3 0 .4l-1 1.2c-.067.067-.133.1-.2.1Zm-11.9 1.1c-.2 0-.3-.1-.3-.2-.2-1.666-1.2-2.8-3-3.4-1.4-.5-2.7-.4-2.7-.4-.133 0-.2-.033-.2-.1l-1.2-1.7c-.1-.1-.1-.3.1-.4.1 0 .2 0 .3.1l1.1 1.5c.4 0 1.6.1 2.8.5 2 .7 3.2 2 3.4 3.8 0 .2-.1.3-.3.3Z"/>
    <path fill="#BB8653" d="m52.675 47.77.6 1.5-.6-1.5Z"/>
    <path fill="#050505" d="M53.275 49.57c-.133 0-.233-.067-.3-.2l-.6-1.5c0-.1 0-.3.2-.3.1-.1.3 0 .3.1l.6 1.5c.1.1 0 .3-.1.4h-.1Z"/>
    <path fill="#050505" d="M53.375 48.87c-.133 0-.233-.066-.3-.2-.1-.1-.1-.3 0-.5 1.4-1.1 2.7-1.1 3.6-.9 1 .2 1.7.6 1.7.7.2.1.2.3.1.5-.1.1-.4.2-.5 0 0 0-.6-.4-1.4-.5-1.133-.266-2.133 0-3 .8-.067.067-.133.1-.2.1Zm17 2.9c-.133 0-.233-.067-.3-.2-.667-1-1.533-1.533-2.6-1.6-.9-.1-1.5.2-1.5.2-.2 0-.4-.1-.5-.3-.1-.1 0-.3.2-.4 0 0 .8-.3 1.8-.2.9 0 2.2.4 3.2 1.9.1.2 0 .4-.1.5-.067.067-.133.1-.2.1Zm-9.2 9.4c-1 0-1.8-.2-2.4-.3-1.1-.3-1.7-.6-1.7-.6-.1-.1-.2-.2-.1-.3 0-.1.2-.1.3-.1 0 0 .6.3 1.6.6.9.2 2.2.4 3.7.2.1-.1.2 0 .3.1 0 .1-.1.2-.2.3-.533.067-1.033.1-1.5.1Z"/>
    <path fill="#5F4D9B" fill-rule="evenodd" d="M53.075 30.97c.4 5.7-3.9 10.5-9.6 10.9-5.7.3-10.6-4-10.9-9.7-.3-5.6 4-10.5 9.7-10.9 5.6-.3 10.5 4 10.8 9.7Zm-1.6.1c-.3-4.8-4.4-8.4-9.1-8.1-4.8.3-8.4 4.4-8.2 9.1.3 4.8 4.4 8.4 9.2 8.1 4.7-.3 8.4-4.3 8.1-9.1Z" clip-rule="evenodd"/>
    <g opacity=".4">
      <mask id="b" width="29" height="29" x="28" y="17" maskUnits="userSpaceOnUse" style="mask-type:luminance">
        <path fill="#fff" d="m28.705 35.03 17.59 10.69 10.69-17.58-17.6-10.69-10.68 17.58Z"/>
      </mask>
      <g mask="url(#b)">
        <path fill="#060505" fill-rule="evenodd" d="M53.075 30.97c.4 5.7-3.9 10.5-9.6 10.9-5.7.3-10.6-4-10.9-9.7-.3-5.6 4-10.5 9.7-10.9 5.6-.3 10.5 4 10.8 9.7Zm-1.6.1c-.3-4.8-4.4-8.4-9.1-8.1-4.8.3-8.4 4.4-8.2 9.1.3 4.8 4.4 8.4 9.2 8.1 4.7-.3 8.4-4.3 8.1-9.1Z" clip-rule="evenodd"/>
      </g>
    </g>
    <g opacity=".3">
      <mask id="c" width="28" height="27" x="29" y="18" maskUnits="userSpaceOnUse" style="mask-type:luminance">
        <path fill="#fff" d="m29.465 34.85 16.65 10.11 10.11-16.64-16.65-10.11-10.11 16.64Z"/>
      </mask>
      <g mask="url(#c)">
        <path fill="#D0E7F7" d="M52.575 30.97c.3 5.4-3.8 10-9.2 10.3-5.3.4-9.9-3.7-10.3-9.1-.3-5.4 3.8-10 9.2-10.3 5.4-.3 10 3.8 10.3 9.1Z"/>
      </g>
    </g>
    <g opacity=".2">
      <mask id="d" width="11" height="9" x="41" y="23" maskUnits="userSpaceOnUse" style="mask-type:luminance">
        <path fill="#fff" d="m41.175 26.48 8.44 5.12 1.85-3.05-8.44-5.12-1.85 3.05Z"/>
      </mask>
      <g mask="url(#d)">
        <path stroke="#FEFEFE" stroke-linecap="round" stroke-linejoin="round" stroke-width=".7" d="M42.575 24.97c3.6-.3 6.7 2.5 6.9 6.1"/>
      </g>
    </g>
    <path fill="#5F4D9B" fill-rule="evenodd" d="M53.575 30.87c.3 5.8-4.1 10.9-10 11.2-5.9.4-10.9-4.1-11.2-10-.4-5.8 4.1-10.8 9.9-11.2 5.9-.3 10.9 4.1 11.3 10Zm-2.8.1c-.3-4.3-4-7.6-8.3-7.3-4.3.2-7.6 4-7.4 8.3.3 4.3 4 7.6 8.3 7.3 4.4-.2 7.7-3.9 7.4-8.3Z" clip-rule="evenodd"/>
    <g opacity=".2">
      <mask id="e" width="26" height="23" x="28" y="24" maskUnits="userSpaceOnUse" style="mask-type:luminance">
        <path fill="#fff" d="m28.345 35.03 18.07 10.98 6.69-11.02-18.06-10.97-6.7 11.01Z"/>
      </mask>
      <g mask="url(#e)">
        <path fill="#060505" d="M44.075 41.47c-5.9.4-10.9-4.1-11.2-9.9-.2-2.8.7-5.4 2.4-7.4-2 2-3.1 4.9-2.9 7.9.3 5.9 5.3 10.4 11.2 10 3.1-.2 5.7-1.6 7.6-3.8-1.8 1.8-4.3 3.1-7.1 3.2Z"/>
      </g>
    </g>
    <g opacity=".2">
      <mask id="f" width="20" height="17" x="35" y="20" maskUnits="userSpaceOnUse" style="mask-type:luminance">
        <path fill="#fff" d="m35.725 28.47 13.46 8.17 5.01-8.25-13.46-8.18-5.01 8.26Z"/>
      </mask>
      <g mask="url(#f)">
        <path fill="#060505" d="M51.175 30.57c-.2-4.4-4-7.7-8.3-7.4-2.3.1-4.3 1.2-5.7 2.9 1.3-1.4 3.2-2.3 5.2-2.4 4.4-.3 8.1 3 8.4 7.4.1 2.1-.6 4-1.8 5.5 1.5-1.6 2.4-3.7 2.2-6Z"/>
      </g>
    </g>
    <path fill="#E94A94" d="m44.575 62.37-1.6.1c-.7 0-1.3-.5-1.3-1.2l-.5-13.2c0-.7.5-1.3 1.1-1.3l2.1-.2c.7 0 1.2.5 1.3 1.1l1.1 13.2c0 .7-.5 1.5-1.2 1.5"/>
    <path fill="#5F4D9B" d="m45.575 46.57-3.5.2c-.1 0-.1 0-.1-.1l-.3-4.9c0-.067.034-.1.1-.1l3.5-.2c.067 0 .133.033.2.1l.3 4.9c-.066.067-.133.1-.2.1Z"/>
    <g opacity=".2">
      <mask id="g" width="8" height="8" x="39" y="41" maskUnits="userSpaceOnUse" style="mask-type:luminance">
        <path fill="#fff" d="m39.605 45.23 4.98 3.02 2.25-3.7-4.98-3.02-2.25 3.7Z"/>
      </mask>
      <g mask="url(#g)">
        <path fill="#060505" d="m42.475 45.97-.3-4.1c0-.1-.1-.3-.2-.2-.2 0-.3.1-.3.2l.3 4.6c0 .2.1.3.3.3l3.2-.2c.1 0 .3-.1.2-.3 0-.1-.1-.2-.2-.2l-2.7.1c-.2 0-.3-.1-.3-.2Z"/>
      </g>
    </g>
    <path fill="#5F4D9B" d="m46.075 43.37-4.8.3c-.2 0-.4-.1-.4-.3v-1c0-.2.1-.4.3-.4l4.8-.3c.2 0 .3.2.4.4v.9c0 .2-.1.4-.3.4Zm.1 2.7-4.7.3c-.2 0-.4-.2-.4-.4l-.1-.9c0-.2.2-.4.4-.4l4.7-.3c.2 0 .4.2.4.4l.1.9c0 .2-.2.4-.4.4Z"/>
    <g opacity=".2">
      <mask id="h" width="7" height="6" x="40" y="40" maskUnits="userSpaceOnUse" style="mask-type:luminance">
        <path fill="#fff" d="m40.555 43.08 4.12 2.5 1.68-2.77-4.12-2.5-1.68 2.77Z"/>
      </mask>
      <g mask="url(#h)">
        <path fill="#060505" d="m46.075 42.87-3.8.2c-.5 0-.9-.3-.9-.8v-.3c-.3.2-.5.5-.5.9s.4.8.9.8l3.8-.2c.4-.1.7-.3.8-.7-.133.067-.233.1-.3.1Z"/>
      </g>
    </g>
    <g opacity=".2">
      <mask id="i" width="7" height="6" x="40" y="43" maskUnits="userSpaceOnUse" style="mask-type:luminance">
        <path fill="#fff" d="m40.715 45.77 4.12 2.5 1.68-2.77-4.12-2.5-1.68 2.77Z"/>
      </mask>
      <g mask="url(#i)">
        <path fill="#060505" d="m46.175 45.57-3.7.2c-.5 0-.9-.3-.9-.8v-.3c-.3.2-.6.5-.5.9 0 .4.4.8.9.8l3.7-.3c.4 0 .7-.2.8-.6-.067.067-.166.1-.3.1Z"/>
      </g>
    </g>
    <path stroke="#FEFEFE" stroke-linecap="round" stroke-linejoin="round" stroke-width=".7" d="M44.675 42.27h.9m-.8 2.6h1"/>
    <path stroke="#FEFEFE" stroke-linecap="round" stroke-linejoin="round" stroke-width=".8" d="m44.575 48.27.1 1m.4 5.4-.3-4.1"/>
    <path stroke="#FEFEFE" stroke-linecap="round" stroke-linejoin="round" stroke-width=".7" d="M49.975 24.87c-1-1-2.2-1.9-3.6-2.4"/>
    <path fill="#803531" d="M39.675 55.17c-.6 1.7.2 3.5 1.8 4 1.5.5 3.2-.4 3.7-2.1.6-1.7-.2-3.5-1.8-4-1.5-.5-3.2.4-3.7 2.1Z"/>
    <path fill="#050505" fill-rule="evenodd" d="M42.275 59.57c-.266 0-.567-.067-.9-.2-1.7-.5-2.5-2.5-1.9-4.3.3-.9.9-1.7 1.7-2.1.7-.3 1.6-.4 2.3-.1 1.7.5 2.5 2.4 2 4.3-.3.9-1 1.6-1.8 2-.466.267-.933.4-1.4.4Zm-2.4-4.3c-.5 1.5.2 3.2 1.6 3.7.7.2 1.4.1 2-.2.7-.3 1.3-1 1.5-1.8.5-1.6-.2-3.2-1.6-3.7-.7-.2-1.4-.2-2 .1-.7.4-1.2 1.1-1.5 1.9Z" clip-rule="evenodd"/>
    <path fill="#050505" d="M39.975 56.47s.4 1.4 1.7 1.6c1.4.3 2-1.3 2-1.3s-.7-.5-.3-1.1c0 0 .5 1 1.5.4l.5.8s-.9 2.9-3.4 2.4-2.2-2.4-2-2.8Z" opacity=".2" style="mix-blend-mode:multiply"/>
  </g>
  <path fill="url(#j)" d="M49.975 108.67c0 11.4-7.8 20.7-17.6 20.7-9.7 0-17.6-9.3-17.6-20.7 0-11.5 7.9-20.8 17.6-20.8 9.8 0 17.6 9.3 17.6 20.8Z" opacity=".3" style="mix-blend-mode:multiply"/>
  <path fill="#1C78BD" d="m128.675 96.17-105.4 9.9v-5.1l105.4-9.9v5.1Z"/>
  <path fill="#FEFEFE" fill-rule="evenodd" d="M34.975 88.97c1-.1 2.1-.1 1.9 3.3-.3 3.1-1.3 3.3-2.8 3.4l-.6.1.6-6.7.9-.1Zm-.2.7-.4 5.2c1.4 0 1.4-1.4 1.5-2.6.1-1 .3-2.8-1.1-2.6Z" clip-rule="evenodd"/>
  <path fill="#FEFEFE" d="m38.075 95.37-.8.1.5-6.7.8-.1-.5 6.7Zm.1-7-.4-.2.8-1.4.5.4-.9 1.2Z"/>
  <path fill="#FEFEFE" fill-rule="evenodd" d="m40.975 88.47.9 6.7h-.9l-.1-1.3-1.3.1-.3 1.3-.8.1 1.9-6.8.6-.1Zm-.3 3.7-.2-2.4-.8 3.5 1.1-.1-.1-1Zm3.1 2.8.5-6.7 1.1-.1c1.1-.1 1.4.6 1.3 1.7-.1.7-.2 1.3-.9 1.5v.1c.7.1.8.7.7 1.5-.1 1.2-.5 1.8-1.7 1.9l-1 .1Zm.8-.8c.8 0 1-.4 1.1-1.2 0-.7-.1-1.2-.9-1.1l-.2 2.3Zm.6-5.2h-.2l-.1 2.2c.8 0 .9-.5 1-1.3 0-.5-.1-1-.7-.9Zm5.3 2.2c-.1 1.2-.3 3.4-1.9 3.5-1.7.2-1.5-2.1-1.4-3.3.1-1.2.3-3.4 1.9-3.6 1.7-.1 1.5 2.1 1.4 3.4Zm-2.4.1c-.1 1.5-.1 2.6.6 2.6.6-.1.8-1.3.9-2.7.1-1.4.1-2.6-.5-2.5-.7 0-.9 1.2-1 2.6Z" clip-rule="evenodd"/>
  <path fill="#FEFEFE" d="M51.975 89.67v2.2l-.2 2.5-.9.1.6-6.8h.8l1.1 5v-2.7l.2-2.4.8-.1-.5 6.7-.8.1-1.1-5.1v.5Z"/>
  <path fill="#FEFEFE" fill-rule="evenodd" d="m56.775 87.27.9 6.7h-.9l-.1-1.3-1.3.1-.3 1.4h-.9l2-6.8.6-.1Zm-.4 3.7-.1-2.4-.8 3.5 1-.1-.1-1Z" clip-rule="evenodd"/>
  <path fill="#FEFEFE" d="M60.775 86.97v.8l-1.5.1-.1 2.1 1.2-.1v.8l-1.3.1-.2 2.3 1.5-.1-.1.8-2.3.1.5-6.7 2.3-.2Z"/>
  <path fill="#FEFEFE" fill-rule="evenodd" d="m61.275 86.97 1-.1c.6 0 1.6-.1 1.4 1.6 0 .7-.3 1.6-1 1.8l1 3.2-.9.1-.9-3.2-.3 3.3h-.9l.6-6.7Zm1.6 1.8c.1-.6 0-1.2-.6-1.1h-.2l-.1 2.2c.6 0 .9-.4.9-1.1Z" clip-rule="evenodd"/>
  <path fill="#FEFEFE" d="m66.875 86.57-.1.7-1.4.2-.2 2.1 1.3-.1-.1.7-1.2.1-.2 2.3 1.4-.1-.1.8-2.2.2.5-6.8 2.3-.1Zm1 1.9-.1 2.2-.2 2.5-.8.1.5-6.8h.8l1.1 5 .1-2.7.1-2.4.9-.1-.5 6.7-.8.1-1.1-5.1v.5Zm5.1-1.4c-.2-.1-.4-.2-.7-.2-.5 0-.8.5-.8.9 0 .3 0 .5.2.7l.5.7c.6.6.9 1 .8 1.9-.1 1-.7 1.8-1.6 1.9-.4 0-.7 0-.9-.2v-.9c.3.1.5.3.8.2.6 0 .8-.5.9-1 .1-1.3-1.7-1.4-1.6-3.2.1-.9.6-1.8 1.6-1.8.3 0 .6 0 .9.1l-.1.9Zm3.2-1.2-.1.7-1.4.1-.2 2.2 1.3-.1-.1.7-1.2.1-.2 2.3 1.4-.1v.8l-2.3.2.5-6.8 2.3-.1Z"/>
  <path fill="#FEFEFE" fill-rule="evenodd" d="M79.075 85.57c1 0 2.1-.1 1.9 3.4-.3 3.1-1.3 3.3-2.8 3.4h-.6l.6-6.7.9-.1Zm-.2.8-.4 5.2c1.4-.1 1.4-1.5 1.5-2.6.1-1 .3-2.8-1.1-2.6Z" clip-rule="evenodd"/>
  <path fill="#FEFEFE" d="m84.175 85.27-.1.7-1.4.1-.2 2.2 1.3-.1-.1.7-1.2.1-.2 2.3 1.4-.1v.8l-2.3.2.5-6.8 2.3-.1Zm2.8-.3-.5 6 1.5-.1-.1.8-2.3.1.6-6.7.8-.1Z"/>
  <path fill="#FEFEFE" fill-rule="evenodd" d="m90.275 84.77.9 6.6-.9.1-.1-1.3-1.3.1-.3 1.3-.9.1 2-6.9h.6Zm-.3 3.8-.2-2.4-.8 3.4 1-.1v-.9Z" clip-rule="evenodd"/>
  <path fill="#FEFEFE" d="M93.875 85.47c-.2-.1-.4-.2-.7-.2-.4 0-.7.5-.8.9 0 .3.1.5.2.7l.6.7c.5.6.8 1 .7 1.9 0 1-.7 1.8-1.6 1.9-.3 0-.7 0-.9-.2l.1-.9c.2.1.4.3.8.2.5 0 .8-.4.8-.9.1-1.4-1.7-1.5-1.5-3.3 0-.9.6-1.7 1.5-1.8.4 0 .7 0 .9.1l-.1.9Zm-64.2 20.6h-.6l-1.4-2.3-.1 3.4-2.4.2.4-8.2 2.2-.2 1.8 3 2.1-3.4 2.2-.2-.4 8.3-2.3.2.1-3.4-1.6 2.6Zm8.3.3h-.7c-.4-.1-.8-.1-1.3-.4-.5-.3-.8-.7-1-1.4-.133-.4-.2-.833-.2-1.3l.2-5 2.4-.2-.2 5v.4c.067.134.133.233.2.3.1.2.3.3.7.3.267-.067.467-.167.6-.3.2-.2.3-.4.3-.6l.1-.3.2-5 2.4-.2-.2 5c-.1.9-.4 1.7-.8 2.2-.2.267-.433.5-.7.7-.7.5-1.5.7-1.8.8h-.2Zm3.6-2.3 1.9-1.3c.333.467.667.7 1 .7.4-.066.6-.267.6-.6l.3-5.6 2.3-.2-.3 5.8c0 .733-.3 1.367-.9 1.9-.533.6-1.233.933-2.1 1-.7.1-1.4-.2-1.8-.5-.4-.4-.8-.8-.9-1.1l-.1-.1Zm9.5-5v.8l3.1-.3-.1 2.1-3.1.3-.1.7 3.4-.3-.1 2.3-5.7.6.4-8.3 5.7-.5-.1 2.3-3.4.3Z"/>
  <path fill="#FEFEFE" fill-rule="evenodd" d="m62.275 103.97-2.8.2-1.6-1.9h-.2l-.1 2.1-2.3.2.3-8.2 3.3-.3c.1 0 .2-.1.6 0 .4 0 .8.1 1.2.4.5.3.8.6 1 1.3.133.333.2.7.2 1.1-.067 1.133-.567 2-1.5 2.6l1.9 2.5Zm-4.4-5.4v1.5l.9-.1c.4-.066.6-.333.6-.8 0-.5-.2-.8-.6-.7l-.9.1Z" clip-rule="evenodd"/>
  <path fill="#FEFEFE" d="M65.575 97.77v.7l3-.2v2.1l-3.1.3-.1.7 3.4-.4-.1 2.4-5.7.5.4-8.3 5.6-.5-.1 2.3-3.3.4Zm5.6 2.3c.533.6 1.133.867 1.8.8.467-.066.7-.233.7-.5 0-.133-.133-.233-.4-.3a6.977 6.977 0 0 1-.9-.3 19.41 19.41 0 0 1-1.1-.4c-.4-.2-.7-.467-.9-.8-.267-.333-.4-.733-.4-1.2.067-.466.3-1 .7-1.6.4-.6 1.3-1.1 2.4-1.2.8-.1 1.6.1 2.1.4.4.3.8.6.9.9l.1.1-1.6 1.5c-.267-.333-.5-.533-.7-.6a2.045 2.045 0 0 0-.9 0c-.3 0-.5.2-.5.3-.1.3.3.5.9.6.267.067.567.134.9.2.334.134.633.3.9.5.267.134.467.367.6.7.2.267.3.633.3 1.1-.1.5-.3 1.1-.8 1.7-.5.6-1.4 1-2.5 1.1-.867.134-1.6 0-2.2-.4-.533-.333-.9-.733-1.1-1.2l1.7-1.4Zm8 3.1-2.3.2 1.1-3.1 2.7-.2-1.5 3.1Zm20.1-11.4-.4 8.3-2.1.2-2.4-3.4-.1 3.6-2.4.2.4-8.2 2.1-.2 2.4 3.3.1-3.6 2.4-.2Zm.9 8.1.3-8.2 2.4-.2-.4 8.2-2.3.2Zm10.8-9.2-.3 8.3-2.2.2-2.3-3.4-.2 3.6-2.3.2.3-8.2 2.2-.2 2.3 3.3.2-3.6 2.3-.2Zm-.7-3.3c-.1 1-.4 1.8-.7 2.1-.4.4-.7.6-.9.7h-.2c-.267.067-.533 0-.8-.2-.333-.2-.533-.267-.6-.2-.133 0-.2.167-.2.5l-2 .2c0-1 .3-1.8.7-2.2.3-.3.7-.6.9-.6h.2c.267-.067.533 0 .8.2.333.133.533.2.6.2.133 0 .2-.167.2-.5l2-.2Z"/>
  <path fill="#FEFEFE" fill-rule="evenodd" d="m117.075 90.07 2.5 8-2.5.3-.3-.9-2.5.3-.3.8-2.6.3 3.3-8.6 2.4-.2Zm-1.9 5.3 1-.1-.4-1.7-.6 1.8Z" clip-rule="evenodd"/>
  <path fill="#FEFEFE" d="M121.775 94.87c.533.533 1.133.767 1.8.7.4 0 .633-.133.7-.4 0-.133-.133-.233-.4-.3a3.577 3.577 0 0 0-.9-.3c-.4-.133-.767-.267-1.1-.4-.4-.2-.7-.467-.9-.8-.267-.333-.4-.733-.4-1.2.067-.533.3-1.067.7-1.6.4-.6 1.3-1.1 2.4-1.2.8-.1 1.6.1 2.1.4.4.3.8.6.9.9l.1.1-1.6 1.5c-.267-.333-.5-.533-.7-.6a3.72 3.72 0 0 0-.9-.1c-.3.1-.5.2-.6.4 0 .2.4.4 1 .5.267.067.567.167.9.3.333.133.633.267.9.4.267.2.467.433.6.7.2.333.3.7.3 1.1-.1.6-.3 1.1-.8 1.7-.5.6-1.4 1.1-2.5 1.2-.867.067-1.6-.067-2.2-.4-.533-.4-.9-.8-1.1-1.2l1.7-1.4Z"/>
  <path fill="#1C78BD" d="m114.975 108.07-90.2 8.7v-5.1l90.2-8.7v5.1Zm-16.3 12.6-68 5.9v-5.1l68-6v5.2Z"/>
  <path fill="#FEFEFE" d="m83.275 94.87-.4 5.6 1.3-.1v.7l-2.2.2.5-6.3.8-.1Z"/>
  <path fill="#FEFEFE" fill-rule="evenodd" d="m86.475 94.67.8 6.2-.8.1-.2-1.3-1.2.1-.3 1.3h-.8l1.8-6.4h.7Zm-.3 3.5-.1-2.2-.7 3.2.9-.1-.1-.9Z" clip-rule="evenodd"/>
  <path fill="#FEFEFE" d="M89.875 95.37c-.2-.2-.4-.3-.7-.2-.4 0-.7.4-.8.8 0 .3.1.5.2.7l.5.7c.5.5.8.9.8 1.7-.1.9-.7 1.7-1.6 1.8-.3 0-.6 0-.8-.2v-.9c.3.2.5.3.8.3.5 0 .7-.5.8-.9.1-1.3-1.6-1.4-1.5-3.1.1-.9.6-1.6 1.5-1.7.333-.066.6-.033.8.1v.9Zm-63 15.6.5 2.9.2-.8.7-2.2.8-.1-1.4 3.7-.2 2.8h-.8l.2-2.7-.9-3.5.9-.1Z"/>
  <path fill="#FEFEFE" fill-rule="evenodd" d="m31.375 117.47.3-8.2 3.2-.3c1.133-.133 2.067.167 2.8.9.667.733.967 1.7.9 2.9a4.983 4.983 0 0 1-1.2 3c-.8.867-1.767 1.334-2.9 1.4l-3.1.3Zm2.6-6.1-.2 3.6.9-.1c.4 0 .767-.2 1.1-.6.267-.333.4-.766.4-1.3.067-.533-.033-.966-.3-1.3-.267-.266-.633-.4-1.1-.4l-.8.1Z" clip-rule="evenodd"/>
  <path fill="#FEFEFE" d="m39.375 116.77.4-8.3 2.3-.2-.3 8.3-2.4.2Zm8.3-.8-2.4.2-2.5-8 2.5-.2 1.4 4.8 1.7-5.1 2.6-.2-3.3 8.5Zm6.2-6.5v.8l3.1-.3-.1 2.1-3.1.3-.1.7 3.4-.3-.1 2.3-5.7.6.4-8.3 5.6-.5-.1 2.3-3.3.3Z"/>
  <path fill="#FEFEFE" fill-rule="evenodd" d="m65.075 114.37-2.8.2-1.6-1.9h-.2l-.1 2.1-2.3.2.3-8.2 3.3-.3c.1 0 .1-.1.6 0 .4 0 .8.1 1.2.4.5.3.8.6 1 1.3.133.334.167.7.1 1.1 0 1.133-.467 2.034-1.4 2.7l1.9 2.4Zm-4.4-5.5-.1 1.5.9-.1c.467 0 .7-.266.7-.8 0-.5-.2-.8-.6-.7l-.9.1Z" clip-rule="evenodd"/>
  <path fill="#FEFEFE" d="M66.875 111.17c.533.533 1.133.767 1.8.7.467 0 .7-.133.7-.4 0-.133-.1-.233-.3-.3a3.576 3.576 0 0 0-1-.3c-.333-.133-.7-.267-1.1-.4a3.388 3.388 0 0 1-.9-.8c-.2-.333-.3-.733-.3-1.2 0-.533.2-1.1.6-1.7.5-.6 1.3-1 2.4-1.1.9-.1 1.7.1 2.1.4.5.3.8.6 1 .9l.1.1-1.6 1.5c-.333-.333-.6-.533-.8-.6-.2-.067-.466-.1-.8-.1-.4.1-.6.2-.6.4s.4.4.9.5c.267.067.567.167.9.3.333.133.633.267.9.4.267.2.5.433.7.7.133.333.2.7.2 1.1 0 .5-.3 1.1-.7 1.7-.5.6-1.4 1.1-2.5 1.2-.933.067-1.667-.067-2.2-.4-.6-.4-1-.8-1.2-1.2l1.7-1.4Zm5.8 2.5.3-8.3 2.4-.2-.4 8.2-2.3.3Z"/>
  <path fill="#FEFEFE" fill-rule="evenodd" d="m76.275 113.27.3-8.2 3.2-.3c1.133-.133 2.033.167 2.7.9.733.733 1.067 1.667 1 2.8-.067 1.2-.466 2.233-1.2 3.1-.8.867-1.767 1.334-2.9 1.4l-3.1.3Zm2.6-6.1-.2 3.6.8-.1c.467 0 .833-.2 1.1-.6.267-.333.433-.767.5-1.3 0-.533-.1-.966-.3-1.3-.267-.333-.633-.467-1.1-.4l-.8.1Zm10.1-3.3 2.5 8-2.6.2-.2-.8-2.5.2-.4.9-2.5.3 3.3-8.6 2.4-.2Zm-2 5.3 1.1-.1-.5-1.7-.6 1.8Zm5.2 2.6.4-8.2 3.1-.3c1.133-.133 2.067.167 2.8.9.667.733.967 1.7.9 2.9 0 1.133-.4 2.133-1.2 3-.733.867-1.7 1.334-2.9 1.4l-3.1.3Zm2.6-6.1-.1 3.6.8-.1c.467 0 .833-.2 1.1-.6.267-.333.4-.767.4-1.3.067-.533-.033-.966-.3-1.3-.267-.333-.6-.467-1-.4l-.9.1Z" clip-rule="evenodd"/>
  <path fill="#FEFEFE" d="M102.775 104.87v.8l3.1-.3-.1 2.2-3.1.2v.7l3.3-.3-.1 2.3-5.7.6.4-8.3 5.7-.5-.1 2.3-3.4.3Zm5.6 2.4c.533.533 1.133.767 1.8.7.467 0 .7-.133.7-.4 0-.133-.1-.233-.3-.3a3.58 3.58 0 0 0-1-.3c-.333-.133-.7-.266-1.1-.4a3.399 3.399 0 0 1-.9-.8c-.2-.333-.3-.733-.3-1.2 0-.533.233-1.066.7-1.6.4-.6 1.3-1.1 2.4-1.2.8-.1 1.6.1 2 .4.5.3.8.6 1 .9l.1.1-1.6 1.5c-.333-.333-.6-.533-.8-.6-.2-.066-.467-.1-.8-.1-.4.1-.6.2-.6.4s.4.4 1 .5c.267.067.533.167.8.3.333.134.633.267.9.4.267.2.5.433.7.7.133.333.2.7.2 1.1 0 .6-.2 1.1-.7 1.7-.5.6-1.4 1.1-2.5 1.2-.933.067-1.667-.066-2.2-.4-.6-.4-1-.8-1.2-1.2l1.7-1.4Zm-72.3 13.1v.7l-1.4.1-.1 2 1.2-.1-.1.8-1.2.1-.2 2.1 1.4-.1-.1.7-2.1.2.5-6.3 2.1-.2Zm1 1.8-.1 2.1-.2 2.3-.8.1.5-6.3.8-.1 1 4.7h.1v-2.5l.1-2.3h.8l-.5 6.3-.7.1-1-4.8v.4Zm5.2-2.3-.4 5.6 1.3-.1v.8l-2.2.1.5-6.3.8-.1Z"/>
  <path fill="#FEFEFE" fill-rule="evenodd" d="m45.475 119.67.8 6.2-.8.1-.2-1.2-1.2.1-.3 1.2-.8.1 1.8-6.4.7-.1Zm-.3 3.5-.1-2.3-.7 3.3.9-.1-.1-.9Z" clip-rule="evenodd"/>
  <path fill="#FEFEFE" d="M56.875 122.47a4.76 4.76 0 0 1-1.5 2.7c-.8.733-1.7 1.167-2.7 1.3-1.2.067-2.167-.266-2.9-1-.8-.733-1.167-1.7-1.1-2.9.067-1.2.5-2.267 1.3-3.2.867-.867 1.867-1.367 3-1.5 1.067-.067 1.967.2 2.7.8.733.6 1.167 1.433 1.3 2.5l-2.5.2c-.133-.4-.334-.7-.6-.9-.334-.2-.667-.267-1-.2-.467 0-.867.2-1.2.6-.333.4-.5.9-.5 1.5-.067.533.067.967.4 1.3.333.333.733.5 1.2.5.333-.067.633-.233.9-.5.333-.267.567-.6.7-1l2.5-.2Zm.7 3.4.4-8.3 2.3-.2-.3 8.2-2.4.3Zm6.2-6.5v.8l3.1-.3-.1 2.1-3.1.3v.7l3.3-.3-.1 2.3-5.7.5.4-8.2 5.7-.6-.1 2.4-3.4.3Zm11.6-3.4-.4 8.2-2.2.2-2.3-3.3-.2 3.6-2.3.2.4-8.3 2.1-.2 2.3 3.4.2-3.6 2.4-.2Zm9.1 3.9a5.337 5.337 0 0 1-1.6 2.7c-.733.8-1.633 1.233-2.7 1.3-1.133.133-2.1-.2-2.9-1-.733-.733-1.067-1.7-1-2.9.067-1.2.5-2.233 1.3-3.1.867-.933 1.867-1.467 3-1.6 1-.067 1.867.2 2.6.8.733.6 1.2 1.433 1.4 2.5l-2.6.2c-.066-.333-.267-.633-.6-.9a1.081 1.081 0 0 0-.9-.2c-.466 0-.866.2-1.2.6a3.246 3.246 0 0 0-.6 1.5c0 .533.167.967.5 1.3.267.333.633.5 1.1.5.334-.067.667-.233 1-.5.267-.267.5-.6.7-1l2.5-.2Zm.7 3.4.4-8.3 2.3-.2-.3 8.3-2.4.2Z"/>
  <path fill="#FEFEFE" fill-rule="evenodd" d="m93.875 114.17 2.6 8-2.6.3-.2-.9-2.6.3-.3.8-2.5.3 3.2-8.5 2.4-.3Zm-1.9 5.2 1.1-.1-.5-1.7-.6 1.8Z" clip-rule="evenodd"/>
  <defs>
    <radialGradient id="j" cx="0" cy="0" r="1" gradientTransform="matrix(19.2 0 0 19.2 32.375 108.67)" gradientUnits="userSpaceOnUse">
      <stop/>
      <stop offset="1" stop-color="#fff" stop-opacity="0"/>
    </radialGradient>
  </defs>
</svg>
