<svg xmlns="http://www.w3.org/2000/svg" width="130" height="74" fill="none" viewBox="0 0 130 74">
  <path fill="#28C5EF" d="M87.9 6.9 11.8 0 4.7 62l78.6 8.3 4.6-63.4Z"/>
  <path fill="#086675" d="M4.7 62 0 65l79.9 8.8 3.3-3.5L4.7 62Z"/>
  <path fill="#050505" d="m72.2 9.2 2.8.3-1 11.4-3.2-.2.7-8.3c-.8.134-1.467.233-2 .3l.3-3 2.4-.5Zm4.1.4 7.1.6-.2 2.4-4.3 8.8-3.4-.3 4.1-8.3-3.5-.3.2-2.9Z"/>
  <path fill="#FEFEFE" d="m73.5 8.1 2.8.3-1 11.4-3.2-.2.7-8.3c-.733.133-1.4.233-2 .3l.3-3 2.4-.5Zm4.1.4 7.2.6-.3 2.4-4.2 8.8-3.5-.3 4.1-8.3-3.5-.3.2-2.9Z"/>
  <mask id="a" width="91" height="71" x="39" y="0" maskUnits="userSpaceOnUse" style="mask-type:luminance">
    <path fill="#fff" d="m83.25 70.28-43.31-4.55L51.85.94l78.02 9.39-46.62 59.95Z"/>
  </mask>
  <g mask="url(#a)">
    <path fill="#1B2A45" d="m62.4 58.1-12.3 3.2s-3.2 1-3.2 4.2c0 1.7.7 3.5 1.9 3.6 1.1.1 14.6.7 14.6.7"/>
    <path stroke="#090707" stroke-linecap="round" stroke-linejoin="round" stroke-width=".6" d="m59.3 58.8-10.6 2.9s-1.8.6-1.8 3.8c0 1.7.7 3.5 1.9 3.6 1.1.1 12.2.6 12.2.6"/>
    <path fill="#100E0C" d="M48.6 61.1s-3.7 7.6-6.6 8.8c-.9.4-2.5.5-1.6 1.5.6.7 4.2 4.8 4.2 4.8l9.2-6.8-5.2-8.3Z"/>
    <path stroke="#090707" stroke-linecap="round" stroke-linejoin="round" stroke-width=".6" d="M48.6 61.1s-3.7 7.6-6.6 8.8c-.9.4-2.5.5-1.6 1.5.6.7 4.2 4.8 4.2 4.8l9.2-6.8-5.2-8.3Z"/>
    <path stroke="#F9B74D" stroke-linecap="round" stroke-linejoin="round" stroke-width=".4" d="M42.4 69.9s4 4.1 1.7 5.8"/>
    <g opacity=".2" style="mix-blend-mode:multiply">
      <mask id="b" width="14" height="14" x="51" y="58" maskUnits="userSpaceOnUse" style="mask-type:luminance">
        <path fill="#fff" d="m51.27 68.67 10.29 2.96 3.07-10.62-10.29-2.97-3.07 10.63Z"/>
      </mask>
      <g mask="url(#b)">
        <path fill="#100E0C" d="M61.5 60.1s1.6 5.2 1.7 5.8c.1.5-1.7 3.2-1.8 3.7-.1.6-2.5.2-3.2.1-.8-.2-4.7-.4-4.7-.4s-.5-2.8-.9-4.2c-.4-1.3.4-.8.7-.2.3.6 1.1 2.5 1.1 2.5s.4-.8.5-1.3c.2-.5 2-.2 2.6-.3.6-.1 2-.5 2.2.5.1 1.1.8.7.9-.1.1-.8.2-3.7-.1-4.6-.2-1 .8.3.9-.3 0-.6.1-1.2.1-1.2Z"/>
      </g>
    </g>
    <g opacity=".2" style="mix-blend-mode:multiply">
      <mask id="c" width="23" height="17" x="50" y="64" maskUnits="userSpaceOnUse" style="mask-type:luminance">
        <path fill="#fff" d="m50.77 75.02 18.68 5.39 2.91-10.11-18.67-5.38-2.92 10.1Z"/>
      </mask>
      <g mask="url(#c)">
        <path fill="#100E0C" d="m50.8 75 18.7 3.8 2.9-8.5s-3.4 0-9.5-1.3c-6.1-1.2-8.4-2.6-8.4-2.6L50.8 75Z"/>
      </g>
    </g>
    <path fill="#161311" d="m50.2 74 18.7 3.8 2.9-8.5s-3.3 0-9.5-1.3c-6.1-1.3-8.3-2.7-8.3-2.7L50.2 74Z"/>
    <path stroke="#090707" stroke-linecap="round" stroke-linejoin="round" stroke-width=".6" d="m50.2 74 18.7 3.8 2.9-8.5s-3.3 0-9.5-1.3c-6.1-1.3-8.3-2.7-8.3-2.7L50.2 74Z"/>
    <path fill="#161311" d="m56 64.7.7 2.4s1.7 2.1 6.3 2.9c4.6.8 6.5-.6 6.5-.6l1.6-2.9-2.6.1s-1.3 2-5.4 1.3c-4.1-.7-5.8-2.9-5.8-2.9l-1.3-.3Z"/>
    <path stroke="#090707" stroke-linecap="round" stroke-linejoin="round" stroke-width=".6" d="m56 64.7.7 2.4s1.7 2.1 6.3 2.9c4.6.8 6.5-.6 6.5-.6l1.6-2.9-2.6.1s-1.3 2-5.4 1.3c-4.1-.7-5.8-2.9-5.8-2.9l-1.3-.3Z"/>
    <path fill="#FACF09" d="M50.1 74.5s-1.4-2-1.5-3.7c0-1.6 5-7.7 5-7.7l3.4.6s-1.2 7.8-2.3 9c-1.1 1.2-4.6 1.8-4.6 1.8Z"/>
    <path stroke="#090707" stroke-width=".6" d="M50.1 74.5s-1.4-2-1.5-3.7c0-1.6 5-7.7 5-7.7l3.4.6s-1.2 7.8-2.3 9c-1.1 1.2-4.6 1.8-4.6 1.8Z"/>
    <path fill="#29367D" d="M51.2 71.7s-.8-1.1-.8-1.9c.1-.8 3.4-5.5 3.4-5.5l1.6.4s-1.2 5.7-1.7 6.4c-.6.6-2.5.6-2.5.6Z"/>
    <path stroke="#090707" stroke-width=".6" d="M51.2 71.7s-.8-1.1-.8-1.9c.1-.8 3.4-5.5 3.4-5.5l1.6.4s-1.2 5.7-1.7 6.4c-.6.6-2.5.6-2.5.6Z"/>
    <path fill="#FACF09" d="M51.8 68.6s-1.4-1.1-1.6-2c-.2-.8 3.4-3.5 3.4-3.5s1.1-.1 2.1.1c.9.1 1.6.5 1.6.5s-.4 3.8-1.4 4.3c-.9.5-4.1.6-4.1.6Z"/>
    <path stroke="#090707" stroke-width=".6" d="M51.8 68.6s-1.4-1.1-1.6-2c-.2-.8 3.4-3.5 3.4-3.5s1.1-.1 2.1.1c.9.1 1.6.5 1.6.5s-.4 3.8-1.4 4.3c-.9.5-4.1.6-4.1.6Z"/>
    <path fill="#29367D" d="M52.6 67.2s-.8-.6-.8-1c-.1-.4 2.7-2.9 2.7-2.9h.8l1 .4s-1 3.1-1.5 3.4c-.4.3-2.2.1-2.2.1Z"/>
    <path stroke="#090707" stroke-width=".6" d="M52.6 67.2s-.8-.6-.8-1c-.1-.4 2.7-2.9 2.7-2.9h.8l1 .4s-1 3.1-1.5 3.4c-.4.3-2.2.1-2.2.1Z"/>
    <path fill="#FACF09" d="M55.4 65.5c-.2.5-.8.7-1.3.5-.6-.2-.9-.8-.7-1.2.1-.5.7-.7 1.3-.5.5.2.8.8.7 1.2Z"/>
    <path stroke="#090707" stroke-width=".6" d="M55.4 65.5c-.2.5-.8.7-1.3.5-.6-.2-.9-.8-.7-1.2.1-.5.7-.7 1.3-.5.5.2.8.8.7 1.2Z"/>
    <path fill="#192B46" d="M55.7 60.3s-1.1 3.7 1.4 5.3c2.5 1.6 2.8 1.5 4.9 2.3 2.1.9 3.7-2.2 3.7-2.2"/>
    <path stroke="#090707" stroke-linecap="round" stroke-linejoin="round" stroke-width=".6" d="M55.7 60.3s-1.1 3.7 1.4 5.3c2.5 1.6 2.8 1.5 4.9 2.3 2.1.9 3.7-2.2 3.7-2.2"/>
    <path fill="#192B46" d="M66.3 34.8s-2.4-.6-5.6.9c-3.2 1.5-8.7 5.5-9.6 6-.8.4-4 1.3-4.6 3.6-.6 2.3 2.2 6.4 9.8 4.3 7.6-2.1 8.4-7.7 8.4-7.7l1.6-7.1Z"/>
    <path stroke="#090707" stroke-linecap="round" stroke-linejoin="round" stroke-width=".6" d="M66.3 34.8s-2.4-.6-5.6.9c-3.2 1.5-8.7 5.5-9.6 6-.8.4-4 1.3-4.6 3.6-.6 2.3 2.2 6.4 9.8 4.3 7.6-2.1 8.4-7.7 8.4-7.7l1.6-7.1Z"/>
    <path fill="#FACF09" d="M58.9 35.8c0 .3-.2.5-.5.5-.2-.1-.4-.3-.4-.6l.1-.8c.1-.2.3-.4.5-.4.3 0 .5.3.4.5l-.1.8Z"/>
    <path stroke="#090707" stroke-linecap="round" stroke-linejoin="round" stroke-width=".4" d="M58.9 35.8c0 .3-.2.5-.5.5-.2-.1-.4-.3-.4-.6l.1-.8c.1-.2.3-.4.5-.4.3 0 .5.3.4.5l-.1.8Z"/>
    <path fill="#F3971E" d="M59.8 36.3c-.1.2-.3.4-.5.4-.3 0-.4-.3-.4-.5l.1-.8c0-.3.2-.5.5-.5.2.1.4.3.4.6l-.1.8Z"/>
    <path stroke="#090707" stroke-linecap="round" stroke-linejoin="round" stroke-width=".4" d="M59.8 36.3c-.1.2-.3.4-.5.4-.3 0-.4-.3-.4-.5l.1-.8c0-.3.2-.5.5-.5.2.1.4.3.4.6l-.1.8Z"/>
    <path fill="#FACF09" d="M60.6 36.6c0 .2-.3.4-.5.4s-.4-.3-.4-.5l.1-.9c0-.2.3-.4.5-.4.3 0 .4.3.4.6l-.1.8Z"/>
    <path stroke="#090707" stroke-linecap="round" stroke-linejoin="round" stroke-width=".4" d="M60.6 36.6c0 .2-.3.4-.5.4s-.4-.3-.4-.5l.1-.9c0-.2.3-.4.5-.4.3 0 .4.3.4.6l-.1.8Z"/>
    <path fill="#F3971E" d="M61.6 37c0 .3-.2.5-.5.5H61c-.3-.1-.5-.3-.4-.6l.1-.8c0-.3.2-.4.5-.4h.1c.3 0 .5.3.4.5l-.1.8Z"/>
    <path stroke="#090707" stroke-linecap="round" stroke-linejoin="round" stroke-width=".4" d="M61.6 37c0 .3-.2.5-.5.5H61c-.3-.1-.5-.3-.4-.6l.1-.8c0-.3.2-.4.5-.4h.1c.3 0 .5.3.4.5l-.1.8Z"/>
    <path fill="#FACF09" d="M66.3 36.7c0 .2-.2.4-.5.4-.2 0-.4-.3-.4-.5l.1-.8c.1-.3.3-.5.5-.5.3.1.5.3.4.6l-.1.8Z"/>
    <path stroke="#090707" stroke-linecap="round" stroke-linejoin="round" stroke-width=".4" d="M66.3 36.7c0 .2-.2.4-.5.4-.2 0-.4-.3-.4-.5l.1-.8c.1-.3.3-.5.5-.5.3.1.5.3.4.6l-.1.8Z"/>
    <path fill="#F3971E" d="M65.5 36.9c0 .3-.3.5-.5.5-.3-.1-.4-.3-.4-.6l.1-.8c0-.3.2-.4.5-.4.2 0 .4.2.4.5l-.1.8Z"/>
    <path stroke="#090707" stroke-linecap="round" stroke-linejoin="round" stroke-width=".4" d="M65.5 36.9c0 .3-.3.5-.5.5-.3-.1-.4-.3-.4-.6l.1-.8c0-.3.2-.4.5-.4.2 0 .4.2.4.5l-.1.8Z"/>
    <path fill="#FACF09" d="M64.6 37c0 .3-.3.5-.5.5-.3-.1-.4-.3-.4-.6l.1-.8c0-.3.3-.5.5-.4.2 0 .4.2.4.5l-.1.8Z"/>
    <path stroke="#090707" stroke-linecap="round" stroke-linejoin="round" stroke-width=".4" d="M64.6 37c0 .3-.3.5-.5.5-.3-.1-.4-.3-.4-.6l.1-.8c0-.3.3-.5.5-.4.2 0 .4.2.4.5l-.1.8Z"/>
    <path fill="#F3971E" d="M63.7 37.3c-.1.2-.3.4-.6.4H63c-.2 0-.4-.3-.4-.6l.1-.8c0-.2.3-.4.5-.4h.1c.3 0 .5.3.5.6l-.1.8Z"/>
    <path stroke="#090707" stroke-linecap="round" stroke-linejoin="round" stroke-width=".4" d="M63.7 37.3c-.1.2-.3.4-.6.4H63c-.2 0-.4-.3-.4-.6l.1-.8c0-.2.3-.4.5-.4h.1c.3 0 .5.3.5.6l-.1.8Z"/>
    <path fill="#FACF09" d="M62.5 37.3c0 .3-.2.5-.5.4h-.1c-.2 0-.4-.2-.4-.5l.1-.8c.1-.3.3-.5.5-.4h.1c.3 0 .5.2.4.5l-.1.8Z"/>
    <path stroke="#090707" stroke-linecap="round" stroke-linejoin="round" stroke-width=".4" d="M62.5 37.3c0 .3-.2.5-.5.4h-.1c-.2 0-.4-.2-.4-.5l.1-.8c.1-.3.3-.5.5-.4h.1c.3 0 .5.2.4.5l-.1.8Z"/>
    <path fill="#FACF09" d="M66.4 35.6c-.1.6-2.1.8-4.4.5-2.3-.3-3.9-.8-3.8-1.4 0-.5 1.7-.8 4-.5 2.4.3 4.2.9 4.2 1.4Z"/>
    <path stroke="#090707" stroke-linecap="round" stroke-linejoin="round" stroke-width=".4" d="M66.4 35.6c-.1.6-2.1.8-4.4.5-2.3-.3-3.9-.8-3.8-1.4 0-.5 1.7-.8 4-.5 2.4.3 4.2.9 4.2 1.4Z"/>
    <g opacity=".2" style="mix-blend-mode:multiply">
      <mask id="d" width="8" height="5" x="59" y="33" maskUnits="userSpaceOnUse" style="mask-type:luminance">
        <path fill="#fff" d="m59.5 35.4 6.44 1.86.58-2.02-6.44-1.86-.58 2.02Z"/>
      </mask>
      <g mask="url(#d)">
        <path fill="#100E0C" d="M59.9 34.2c-.3-.1 4.6.9 3.1 1.3-1 .3-2.7.1-2.7.1s2.7.7 3.4.7c.8 0 4-.1 2.1-1.1-1.8-1-5.4-1-5.9-1Z"/>
      </g>
    </g>
    <g opacity=".2" style="mix-blend-mode:multiply">
      <mask id="e" width="13" height="14" x="50" y="33" maskUnits="userSpaceOnUse" style="mask-type:luminance">
        <path fill="#fff" d="m50.17 43.97 8.91 2.57 2.99-10.36-8.91-2.57-2.99 10.36Z"/>
      </mask>
      <g mask="url(#e)">
        <path fill="#100E0C" d="M51.2 42.1s0 .8-.8 1.1c0 0 3.1.8 3.5 1.7.3.9 4.2-.4 4.2-.4s3.2-6.2 3.4-6.4c.2-.1.3-2 .3-2s-2.8.4-3.6.9c-.8.5.2 1.2-.1 1.7-.4.5-2.6 2-4 2.4-1.4.5.2 1.4-.5 1.5-.6.1-2.4-.5-2.4-.5Z"/>
      </g>
    </g>
    <path fill="#FDCF0A" d="M70.4 70.2c.3-1.3-.5-2.7-1.8-3-1.3-.4-2.7.4-3 1.8l-.3 1.2c-.4 1.4.4 2.7 1.7 3.1 1.4.3 2.7-.5 3.1-1.8l.3-1.3Z"/>
    <path stroke="#090707" stroke-width=".5" d="M70.4 70.2c.3-1.3-.5-2.7-1.8-3-1.3-.4-2.7.4-3 1.8l-.3 1.2c-.4 1.4.4 2.7 1.7 3.1 1.4.3 2.7-.5 3.1-1.8l.3-1.3Z"/>
    <path fill="#FDCF0A" d="M70.1 71.5c-.4 1.3-1.7 2.1-3.1 1.8-1.3-.4-2.1-1.7-1.7-3.1.3-1.3 1.7-2.1 3-1.7 1.3.3 2.1 1.7 1.8 3Z"/>
    <path stroke="#090707" stroke-width=".5" d="M70.1 71.5c-.4 1.3-1.7 2.1-3.1 1.8-1.3-.4-2.1-1.7-1.7-3.1.3-1.3 1.7-2.1 3-1.7 1.3.3 2.1 1.7 1.8 3Z"/>
    <path fill="#2A347D" d="M69 71.2c-.2.7-1 1.2-1.7 1-.7-.2-1.2-1-1-1.7.2-.7 1-1.2 1.7-1 .7.2 1.2 1 1 1.7Z"/>
    <path stroke="#090707" stroke-width=".5" d="M69 71.2c-.2.7-1 1.2-1.7 1-.7-.2-1.2-1-1-1.7.2-.7 1-1.2 1.7-1 .7.2 1.2 1 1 1.7Z"/>
    <path fill="#100E0C" d="M68.4 71c-.1.4-.5.7-.9.6-.4-.1-.6-.5-.5-.9.1-.4.5-.6.8-.5.4.1.7.5.6.8Z"/>
    <path fill="#1B2A45" d="m59.8 62.4-5.3 11.5s-1.2 3.1 1.2 5.2c1.3 1 3.2 1.6 4 .7.8-.8 9.8-10.8 9.8-10.8"/>
    <path stroke="#090707" stroke-linecap="round" stroke-linejoin="round" stroke-width=".6" d="M58.4 65.1 54 75.2s-.7 1.8 1.7 3.9c1.3 1 3.2 1.6 4 .7.8-.8 8.2-9 8.2-9"/>
    <g opacity=".2" style="mix-blend-mode:multiply">
      <mask id="f" width="13" height="14" x="57" y="64" maskUnits="userSpaceOnUse" style="mask-type:luminance">
        <path fill="#fff" d="m57.82 74.87 8.44 2.44 3.05-10.57-8.44-2.43-3.05 10.56Z"/>
      </mask>
      <g mask="url(#f)">
        <path fill="#100E0C" d="M60.9 64.3s5 2.1 5.5 2.4c.4.2 1.4 3.3 1.7 3.7.4.4-1.4 2-2 2.6-.6.5-3.2 3.3-3.2 3.3s-2.5-1.4-3.8-1.9c-1.3-.6-.4-.9.2-.7.7.1 2.7.7 2.7.7s-.4-.8-.7-1.2c-.3-.4 1-1.6 1.3-2.2.4-.5 1-1.8 1.9-1.3.9.5 1-.3.5-.9-.5-.5-2.8-2.4-3.6-2.8-.9-.4.7-.4.3-.8-.5-.4-.8-.9-.8-.9Z"/>
      </g>
    </g>
    <path fill="#F3AB1B" d="M68 36.1s-4.8 0-4.9 2.5l3.3.2 1.6-2.7Z"/>
    <path stroke="#090707" stroke-linecap="round" stroke-linejoin="round" stroke-width=".6" d="M68 36.1s-4.8 0-4.9 2.5l3.3.2 1.6-2.7Z"/>
    <g style="mix-blend-mode:multiply">
      <mask id="g" width="21" height="33" x="61" y="35" maskUnits="userSpaceOnUse" style="mask-type:luminance">
        <path fill="#fff" d="m61.39 64.44 11.39 3.29 8.46-29.33-11.39-3.29-8.46 29.33Z"/>
      </mask>
      <g mask="url(#g)">
        <path fill="#E6E7E5" d="M69.7 35.7s13.7 1-1.1 30.7l1.1.4L75.8 55l3.1-8.5 1.9-6.8-8.1-3.4-2.8-1.2-.2.6Z"/>
      </g>
    </g>
    <path fill="#192B46" d="M69.2 34.7s-9.5-3.1-12.6 9.2c-1 4.3-1 16.4-1 16.4s5.3 3.2 15.3 5.9c0 0 7.4-10 9-13.9 2.1-5.3 2-4.9 2.6-9.8.2-2.2-1.4-2.8-1.4-2.8l-11.9-5Z"/>
    <path stroke="#090707" stroke-linecap="round" stroke-linejoin="round" stroke-width=".6" d="M69.2 34.7s-9.5-3.1-12.6 9.2c-1 4.3-1 16.4-1 16.4s5.3 3.2 15.3 5.9c0 0 7.4-10 9-13.9 2.1-5.3 2-4.9 2.6-9.8.2-2.2-1.4-2.8-1.4-2.8l-11.9-5Z"/>
    <path fill="#FDD00B" d="M60.6 42s5.1 2.6-.7 4.5c0 0 3.9 3.7-.5 6.2 0 0 1.9 2.6-.6 4.5 0 0 1.3 2.9-.8 4.3l-.3-1-.8-1.2s-.3-2.8.4-2.4c0 0-.7-2.6-.6-3.7.1-1.1.9-.7.9-.7s-.6-2.2-.6-4c0-1.8.9-2.4 1.4-1.5 0 0-.5-7 2.2-5Z"/>
    <path stroke="#090707" stroke-linecap="round" stroke-linejoin="round" stroke-width=".4" d="M60.6 42s5.1 2.6-.7 4.5c0 0 3.9 3.7-.5 6.2 0 0 1.9 2.6-.6 4.5 0 0 1.3 2.9-.8 4.3l-.3-1-.8-1.2s-.3-2.8.4-2.4c0 0-.7-2.6-.6-3.7.1-1.1.9-.7.9-.7s-.6-2.2-.6-4c0-1.8.9-2.4 1.4-1.5 0 0-.5-7 2.2-5Z"/>
    <g opacity=".2" style="mix-blend-mode:multiply">
      <mask id="h" width="22" height="28" x="51" y="37" maskUnits="userSpaceOnUse" style="mask-type:luminance">
        <path fill="#fff" d="m51.76 60.78 13.89 4.01 6.8-23.59-13.89-4.01-6.8 23.59Z"/>
      </mask>
      <g mask="url(#h)">
        <path fill="#100E0C" d="M56.2 46.8s.4-1.4.8-1.2c.4.3.6 4.1 1.3 6.2.7 2.1 1.7 5.5 2.2 6.6.5 1.1 1.7 3.1 1 3.5-.6.4-4.4-3.3-4.9-3.5-.6-.1-1.1.6-1.1.6l.1 1.6s8.8 3.8 10 4.2c1.2.3-6.2-18-6.1-20.9.1-2.9.3-6.4.3-6.4s-2.9 2.3-3.6 9.3Z"/>
      </g>
    </g>
    <path fill="#FDD00B" d="M74.3 38s-3.7 2.5-7.8 1.3c0 0-.3 2.6-3.2 2.8 0 0 1.1 3.2-2.7 6.2 0 0-.8-9.5 3.6-11.7 0 0 6 .1 10.1 1.4Z"/>
    <path stroke="#090707" stroke-linecap="round" stroke-linejoin="round" stroke-width=".4" d="M74.3 38s-3.7 2.5-7.8 1.3c0 0-.3 2.6-3.2 2.8 0 0 1.1 3.2-2.7 6.2 0 0-.8-9.5 3.6-11.7 0 0 6 .1 10.1 1.4Z"/>
    <path fill="#B7942F" d="M57.8 61.3c-.1 0-.1-.1-.1-.2V60c.2-12.3 1-19.9 2.5-22.4.1-.1.2-.1.3-.1.1.1.1.2.1.3-1.4 2.5-2.3 10-2.5 22.2v1.2c0 .1-.1.2-.2.1h-.1Z"/>
    <path stroke="#090707" stroke-linecap="round" stroke-linejoin="round" stroke-width=".5" d="M58.3 61.3c0-.4.2-19.1 2.5-23.4"/>
    <g style="mix-blend-mode:multiply">
      <mask id="i" width="9" height="14" x="59" y="33" maskUnits="userSpaceOnUse" style="mask-type:luminance">
        <path fill="#fff" d="m59.57 45.18 4.92 1.42 3.39-11.73-4.93-1.42-3.38 11.73Z"/>
      </mask>
      <g mask="url(#i)">
        <path fill="#B8B3B3" d="M67.9 34.9S63 37 60.8 44.5c-1.2 3.9.6-5.7.6-5.7l4.9-4 1.6.1Z"/>
      </g>
    </g>
    <path fill="#FEFEFE" d="M68.9 34.4c-6.2-1.5-10.1 3.3-10.9 7.2-2 9 6.1 22.6 6.5 22.7.4.2 3.4 1.5 3.4 1.5-15-27.8 1-31.4 1-31.4Z"/>
    <path stroke="#090707" stroke-linecap="round" stroke-linejoin="round" stroke-width=".4" d="M68.9 34.4c-6.2-1.5-10.1 3.3-10.9 7.2-2 9 6.1 22.6 6.5 22.7.4.2 3.4 1.5 3.4 1.5-15-27.8 1-31.4 1-31.4Z"/>
    <g opacity=".2" style="mix-blend-mode:multiply">
      <mask id="j" width="20" height="31" x="52" y="32" maskUnits="userSpaceOnUse" style="mask-type:luminance">
        <path fill="#fff" d="m52.77 59.5 10.87 3.13 7.92-27.46-10.86-3.14-7.93 27.47Z"/>
      </mask>
      <g mask="url(#j)">
        <path fill="#100E0C" d="M64.4 59.9s-.8-1.7-1.2-2.9c-.5-1.2-1-1.7-1-1.7l-2-.5c-.2 0-.4-.133-.6-.4 1.2 3.4 2.7 6.4 3.8 8.2a5.484 5.484 0 0 0-.3-.7c-1.7-3.4-1.4-3.9-1.4-3.9l2.7 1.9Zm4.5-25.5c-6.2-1.5-10.1 3.3-10.9 7.2-.4 1.6-.4 3.3-.2 5 .1-1.7.9-2.5 1.1-3.1.2-.6 1.6.3 1.6-.6.1-.9 1.2-3.5 1.4-4 .2-.4 1.1-.1.4 1-.3.7-.4 1.6-.4 2.2 1.6-6.5 7-7.7 7-7.7Z"/>
      </g>
    </g>
    <g opacity=".2" style="mix-blend-mode:multiply">
      <mask id="k" width="18" height="31" x="66" y="37" maskUnits="userSpaceOnUse" style="mask-type:luminance">
        <path fill="#fff" d="M66.12 65.31 75.44 68l8-27.72-9.32-2.69-8 27.72Z"/>
      </mask>
      <g mask="url(#k)">
        <path fill="#100E0C" d="m78.7 39.1 2.5.5.1 1.9c.2 1.9-.2 7-.8 8.8-1 3.4-3.9 8-6.2 11.2-.7.9-3 4.2-3.7 5.1l-2.1-.9 1.1-4.2s2.8-1 2.3-3.1c-.4-2-1.6-5.4-1.6-5.4s-.5-1.4 0-1.7c.5-.4 1.4 1.1 2.2 1.8.8.6 2.2 1.4 2.9.2.7-1.2-3.4-4.8-3.4-4.8s2.4 1.3 3.8 1c1.3-.2 1.1-5.6 1.1-5.6l1.8-4.8Z"/>
      </g>
    </g>
    <path fill="#F3C999" d="m66.8 25.4-.6 3-.2 1.2s-.5.3-.6.6c0 .3-1.7 6.3-2 7.2l2.3.4 2.2.3 8.2.1.2-1.5 1.1-3.4.6-4.6-3.3-4.1-7.9.8Z"/>
    <path stroke="#090707" stroke-width=".6" d="m66.8 25.4-.6 3-.2 1.2s-.5.3-.6.6c0 .3-1.7 6.3-2 7.2l2.3.4 2.2.3 8.2.1.2-1.5 1.1-3.4.6-4.6-3.3-4.1-7.9.8Z"/>
    <path fill="#100E0C" d="M66.6 25.5s.3.5 1.3.5c1.1.1 3.8-1.6 5.7 0 0 0 2.2 1.7-.2 1.2-.1 0 .2.2.4.3.5.3 1 .2 1 .2s.2 0 .2.1c0 .4-.4.2-.4.3-.1 0 0 0 .1.1.4.1.9.1 1.1 0 0 0 .2.1.2.3.1.1.1.7-.6.8-.9.1-1.1-.3-1.1-.3s.3.7 1.3.7c.7-.1-.1.6-1.1.3 0 .2.4.3.8.3.4-.1-.5 2.3-1.7 3.3s-1 1.6-.4 2.1c.8.6 1.2-.2 1.4-.4 1-1 1.7-3.1 2-1.9 0 0-.1 1.6.4 1.2 0 0 .1.3.3-.1.2-.5 2.4-5 1.1-7.6-.6-1.1-1.9-2.3-3.4-3-1.3-.7-4.2-.9-6.1-1.4-1.8-.5-3.1 1.8-2.3 3Zm1 3 .2-.5-1.1-.7-.4.7 1.3.5Z"/>
    <path fill="#FEFEFE" d="M72.2 29.8s.1-.6-.5-.8l-2.4.2-.1.3"/>
    <path stroke="#090707" stroke-width=".4" d="M72.2 29.8s.1-.6-.5-.8l-2.4.2-.1.3"/>
    <mask id="l" width="4" height="1" x="69" y="29" maskUnits="userSpaceOnUse" style="mask-type:luminance">
      <path fill="#fff" d="m69.48 29.2-.04.28 2.56.34s.82-.04-.2-.82l-2.32.2Z"/>
    </mask>
    <g mask="url(#l)">
      <path fill="#100E0C" d="M70.9 29.5c-.1.3-.5 1.1-.9 1-.3 0-.5-.9-.5-1.2 0-.3.4-.5.7-.4.4 0 .7.3.7.6Z"/>
    </g>
    <mask id="m" width="2" height="2" x="66" y="28" maskUnits="userSpaceOnUse" style="mask-type:luminance">
      <path fill="#fff" d="m66.46 28.26-.13.97 1.17.15.12-.97-1.16-.15Z"/>
    </mask>
    <g mask="url(#m)">
      <path fill="#FEFEFE" d="M65.8 28.9s.1-.3.7-.4l2.3.5-.1.3"/>
      <path stroke="#090707" stroke-width=".4" d="M65.8 28.9s.1-.3.7-.4l2.3.5-.1.3"/>
    </g>
    <mask id="n" width="2" height="2" x="66" y="28" maskUnits="userSpaceOnUse" style="mask-type:luminance">
      <path fill="#fff" d="m66.42 28.55-.06.49 1.16.12.05-.37-1.15-.24Z"/>
    </mask>
    <g mask="url(#n)">
      <path fill="#100E0C" d="M65.8 28.7c0 .4.2 1.2.6 1.2.3.1.7-.7.8-1 0-.3-.3-.6-.7-.7-.3 0-.7.2-.7.5Z"/>
    </g>
    <mask id="o" width="2" height="2" x="66" y="28" maskUnits="userSpaceOnUse" style="mask-type:luminance">
      <path fill="#fff" d="m66.46 28.26-.13.97 1.17.15.12-.97-1.16-.15Z"/>
    </mask>
    <g mask="url(#o)">
      <path fill="#FEFEFE" d="M66.9 28.8v.1h.1c0-.067-.033-.1-.1-.1Z"/>
    </g>
    <path fill="#F3C999" d="m67.8 27.7-.2 1.2s-.4.2-.4.4c-.1.2-1 2.8-.8 2.9.1.1 1.3.2 1.6.3.4 0 .8-.3.5-.9"/>
    <path stroke="#090707" stroke-linecap="round" stroke-width=".4" d="m67.8 27.7-.2 1.2s-.4.2-.4.4c-.1.2-1 2.8-.8 2.9.1.1 1.3.2 1.6.3.4 0 .8-.3.5-.9"/>
    <path fill="#100E0C" d="M78.6 30.7c1.6-5 1-4.3-.6-6.5-.6-.8-2.3-1-3.8-1.4-7.2-1.6-7.7 1.9-7.7 1.9s3.9-1.2 7.4-.3c3.5 1 4.7 6.3 4.7 6.3Z"/>
    <path fill="#100E0C" d="M71.7 22.8s.5-.1 1.7.3c1.2.3 1.8.9 1.8.9l.9.8-4.4-1.6v-.4Z"/>
    <g opacity=".1">
      <mask id="p" width="5" height="3" x="68" y="28" maskUnits="userSpaceOnUse" style="mask-type:luminance">
        <path fill="#fff" d="m68.92 30.01 3.04.87.3-1.03-3.04-.88-.3 1.04Z"/>
      </mask>
      <g mask="url(#p)">
        <path fill="#292422" d="M69.1 29.4s-.1.7.6.8c1.3.2 2.6-.4 2.6-.4"/>
      </g>
    </g>
    <mask id="q" width="3" height="3" x="65" y="28" maskUnits="userSpaceOnUse" style="mask-type:luminance">
      <path fill="#fff" d="m65.18 28.77.09.8 1.64.44.36-.97-2.09-.27Z"/>
    </mask>
    <g mask="url(#q)" opacity=".1">
      <mask id="r" width="4" height="3" x="66" y="28" maskUnits="userSpaceOnUse" style="mask-type:luminance">
        <path fill="#fff" d="m66.15 29.65 3.04.87.3-1.03-3.04-.88-.3 1.04Z"/>
      </mask>
      <g mask="url(#r)">
        <path fill="#292422" d="M66.3 29.1s-.1.7.6.8c1.3.1 2.6-.4 2.6-.4"/>
      </g>
    </g>
    <path fill="#F3C999" d="M64.7 34.1s-.6-.4-1.1.2c-.5.5-1.3 3.4-1.3 3.4l5.6.6 8.2-.3"/>
    <path stroke="#090707" stroke-linecap="round" stroke-linejoin="round" stroke-width=".6" d="M64.7 34.1s-.6-.4-1.1.2c-.5.5-1.3 3.4-1.3 3.4l5.6.6 8.2-.3"/>
    <g opacity=".1">
      <mask id="s" width="14" height="8" x="62" y="34" maskUnits="userSpaceOnUse" style="mask-type:luminance">
        <path fill="#fff" d="m62.34 37.48 12.59 3.64.78-2.7-12.59-3.64-.78 2.7Z"/>
      </mask>
      <g mask="url(#s)">
        <path fill="#292422" d="m75.7 38.4-13.1-1.7-.1.8 5.2 1 8-.1Z"/>
      </g>
    </g>
    <path fill="#100E0C" d="M74.4 26.6s-.4.1-1.2-.2c0 0 1 0 .5-.4m4.2-1.9c-1.2-1.1-4.8-1.5-6-1.7-1.2-.1-4.8-.8-5.5 1.1 0 0-.5 1.2.1 1.7 0 0 1.8 1.2 5.3-.7 0 0 1.7-.6 2.1 0 0 0 .3.3-.6.3 0 0-.4.1-.1.4.4.3 1.3 0 1.3 0s.2 0 .2.1c0 .2-.1.3-.3.3 0 0-.3.1.1.2.4 0 .8-.1 1-.3 0 0 .2 0 .2.2"/>
    <g opacity=".1">
      <mask id="t" width="1" height="2" x="76" y="33" maskUnits="userSpaceOnUse" style="mask-type:luminance">
        <path fill="#fff" d="m76.02 33.89.78.22.2-.67-.78-.23-.2.68Z"/>
      </mask>
      <g mask="url(#t)">
        <path fill="#292422" d="M76.1 33.5s0 .4.4.5c.3.1.4-.3.4-.3l-.7-.5-.1.3Z"/>
      </g>
    </g>
    <path fill="#100E0C" d="M77 29.7s-.1.2-.3.2c-.1 0-.2-.1-.3.2-.2.3-.2.5-.4.8-.1.3-.1.7-.1.9-.1.2-.2 1.2-.3 1.4-.4.5-.4 0-.6-.2-.1-.2.1-1.3.3-2 .2-.7.6-1.7 1.1-1.8.5-.1.6.5.6.5Z"/>
    <path fill="#F3C999" d="M76.5 30.9s-.3 2.1-.6 2.6c-.2.3-.1.4-.1.4h.3l1.1-3.3h-.1c-.3.1-.5 0-.6.3Z"/>
    <path fill="#F3C999" d="M76.3 33.8c-.4-.2 0-1.6.1-2 .2-.8.3-1.4.7-1.4.3 0 1.1 1 .1 2.2-.5.5-.7 1.3-.9 1.2Z"/>
    <g opacity=".1">
      <mask id="u" width="2" height="4" x="76" y="30" maskUnits="userSpaceOnUse" style="mask-type:luminance">
        <path fill="#fff" d="m76.33 33.32.74.21.72-2.51-.74-.22-.72 2.52Z"/>
      </mask>
      <g mask="url(#u)">
        <path fill="#292422" d="M76.4 33.3c-.2-.1.6-1 .6-1.3 0-.6 0-1.1.2-1.1.3 0 .7.9 0 1.4-.4.3-.7 1.1-.8 1Z"/>
      </g>
    </g>
    <g opacity=".1">
      <mask id="v" width="2" height="3" x="76" y="30" maskUnits="userSpaceOnUse" style="mask-type:luminance">
        <path fill="#fff" d="m76.21 32.51.67.19.61-2.1-.67-.19-.61 2.1Z"/>
      </mask>
      <g mask="url(#v)">
        <path fill="#292422" d="M76.6 31.4c0 .4-.3 1.1-.2 1.1 0 .1.4-.3.3-1.1 0-.5.3-.6.4-.7.2 0 .3.2.3.2.1 0-.1-.5-.4-.4-.1 0-.4.4-.4.9Z"/>
      </g>
    </g>
    <g opacity=".1">
      <mask id="w" width="5" height="11" x="74" y="29" maskUnits="userSpaceOnUse" style="mask-type:luminance">
        <path fill="#fff" d="m74.22 38.56 1.83.53 2.57-8.91-1.83-.53-2.57 8.91Z"/>
      </mask>
      <g mask="url(#w)">
        <path fill="#292422" d="m77.6 29.9-3.4 8.7 1.7-.1 2.6-7.8-.9-.8Z"/>
      </g>
    </g>
    <path fill="#100E0C" d="M68.5 27.3s2.5-.2 3.2-.1c.7.2 1.6 1.7 1.6 1.7s-1.5-1.3-3.2-.8c-1.2.4-1.2-.3-1.8-.4l.2-.4Z"/>
    <path fill="#FACF09" d="M67.6 38.4s.9-3.2 4.7-3.5l6.7-.4-.7 3.9H67.6Z"/>
    <path stroke="#090707" stroke-linecap="round" stroke-linejoin="round" stroke-width=".6" d="M67.6 38.4s.9-3.2 4.7-3.5l6.7-.4-.7 3.9H67.6Z"/>
    <g opacity=".2" style="mix-blend-mode:multiply">
      <mask id="x" width="13" height="11" x="67" y="31" maskUnits="userSpaceOnUse" style="mask-type:luminance">
        <path fill="#fff" d="m67.51 38.24 10.17 2.94 1.83-6.35-10.17-2.93-1.83 6.34Z"/>
      </mask>
      <g mask="url(#x)">
        <path fill="#100E0C" d="M68 37.4s7.4-.5 8.2-.8c.7-.4 1.2-1.8 1.2-1.8l1.5-.1-.4 3.5h-11l.5-.8Z"/>
      </g>
    </g>
    <path fill="#100E0C" d="M70.4 34.2c0 .1-.1.3-.3.3l-1.9.4c-.2 0-.3-.1-.2-.3 0 0 0-.4-.1-.7-.1-.3-.1-.4-.1-.4-.1-.1-.1-.2 0-.2l2.3-.6c.2 0 .3.1.3.2v1.3Z"/>
    <path fill="#1B2A45" d="M63.2 63.3c-.3.8-.6 1.4-.6 1.4s6.5 4.2 6 9.5c0 .7.6.7.9.1.9-1.5 1.4-6.8.8-7.5l.4-1.6"/>
    <path stroke="#090707" stroke-linecap="round" stroke-linejoin="round" stroke-width=".7" d="M63.2 63.3c-.3.8-.6 1.4-.6 1.4s6.5 4.2 6 9.5c0 .7.6.7.9.1.9-1.5 1.4-6.8.8-7.5l.3-.7"/>
    <path stroke="#FDD00B" stroke-linecap="round" stroke-linejoin="round" stroke-width=".4" d="M63.9 64s5.6 4.4 5.4 8.6"/>
    <path stroke="#FDD00B" stroke-linecap="round" stroke-linejoin="round" stroke-width=".4" d="M68.8 65.4c.2.6 1.5 3.9.5 7.4"/>
    <path fill="#FEFEFE" d="M55.8 58.5c-.067 0-.1.033-.1.1l-.2 2.8c0 .067.033.1.1.1 0 0 4.4 2.1 7.1 3.4 4.7 2.3 7.9 3.4 7.9 3.4.067 0 .1-.033.1-.1l.6-2.3c.067 0 .067-.033 0-.1 0 0-2.8-1.1-7.7-3.3-3.8-1.7-7.8-4-7.8-4Z"/>
    <path stroke="#090707" stroke-width=".6" d="M55.8 58.5c-.067 0-.1.033-.1.1l-.2 2.8c0 .067.033.1.1.1 0 0 4.4 2.1 7.1 3.4 4.7 2.3 7.9 3.4 7.9 3.4.067 0 .1-.033.1-.1l.6-2.3c.067 0 .067-.033 0-.1 0 0-2.8-1.1-7.7-3.3-3.8-1.7-7.8-4-7.8-4Z"/>
    <path fill="#FEFEFE" d="m59.1 62.8-2.5-1.2.6-2.1 2.5 1.2-.6 2.1Z"/>
    <path fill="#F4D60C" fill-rule="evenodd" d="m60.5 60.9-.6 2.4c-.1.3-.4.4-.7.3l-3-1.4c-.3-.1-.4-.5-.4-.8l.6-2.3c.1-.3.4-.5.7-.3l3 1.3c.3.2.5.5.4.8Zm-1.3.2c0-.2-.1-.4-.2-.5l-1.6-.7c-.2-.1-.3 0-.4.2l-.2 1c-.1.2 0 .4.2.5l1.6.7c.1.1.3 0 .3-.2l.3-1Z" clip-rule="evenodd"/>
    <path stroke="#090707" stroke-linecap="round" stroke-linejoin="round" stroke-width=".4" d="m60.5 60.9-.6 2.4c-.1.3-.4.4-.7.3l-3-1.4c-.3-.1-.4-.5-.4-.8l.6-2.3c.1-.3.4-.5.7-.3l3 1.3c.3.2.5.5.4.8Zm-1.3.2c0-.2-.1-.4-.2-.5l-1.6-.7c-.2-.1-.3 0-.4.2l-.2 1c-.1.2 0 .4.2.5l1.6.7c.1.1.3 0 .3-.2l.3-1Z" clip-rule="evenodd"/>
    <g opacity=".3" style="mix-blend-mode:multiply">
      <mask id="y" width="7" height="8" x="55" y="57" maskUnits="userSpaceOnUse" style="mask-type:luminance">
        <path fill="#fff" d="m55 62.52 5.23 1.51 1.38-4.77-5.23-1.51L55 62.52Z"/>
      </mask>
      <g mask="url(#y)">
        <mask id="z" width="7" height="7" x="55" y="57" maskUnits="userSpaceOnUse" style="mask-type:luminance">
          <path fill="#fff" d="m55.47 60.9 4.19 2.97 1.48-2.99-4.19-2.96-1.48 2.98Z"/>
        </mask>
        <g mask="url(#z)">
          <path fill="#181716" d="m56.5 58.9 3 1.4s.4.3.3.8c-.2.5-.6 2.5-.6 2.5l.7-.1.6-2.6-.4-.8-3.2-1.4-.4.2Z"/>
        </g>
      </g>
    </g>
    <g opacity=".3" style="mix-blend-mode:multiply">
      <mask id="A" width="3" height="4" x="59" y="60" maskUnits="userSpaceOnUse" style="mask-type:luminance">
        <path fill="#fff" d="m59.34 63.43 1.33.38.74-2.56-1.33-.38-.74 2.56Z"/>
      </mask>
      <g mask="url(#A)">
        <mask id="B" width="3" height="4" x="59" y="60" maskUnits="userSpaceOnUse" style="mask-type:luminance">
          <path fill="#fff" d="m59.43 63.1.83.59 1.06-2.12-.84-.59-1.05 2.12Z"/>
        </mask>
        <g mask="url(#B)">
          <path fill="#181716" d="m59.8 63.4.5.2.6-2.3-.4-.2-.7 2.3Z"/>
          <path fill="#31302F" d="M59.9 63.2V63c0-.1.1-.2.1-.2v-.1h.1-.1c0-.1.1-.1.1-.1v-.4h.1v-.1.1-.3h.1v-.3l.1-.1h-.1c.067 0 .1-.033.1-.1v.1-.4h.2l.1.1h.1v.1c0-.1.1 0 .1 0v.2c-.1 0 0 0 0 .1-.1 0-.1.1-.1.1v.3-.1l-.1.1h.1-.1c.067 0 .067 0 0 0v.3c0 .067-.033.1-.1.1.067 0 .067 0 0 0v.3h-.1v.4h-.1.1c0 .067-.033.067-.1 0 0 .1.1 0 .1.1h-.1v.2-.1.2-.1h-.1v.2h-.2v-.1h.1v.1h.1-.1v-.1l.1-.1v-.3l.1-.1v-.3h.1c-.1-.1 0-.1 0-.2v-.2h.1V62c0-.067.033-.1.1-.1v-.3s.1 0 0-.1h.1v-.2s0-.1.1.1l-.1-.1h-.2v-.1h-.1s-.1 0 0-.1v.3c-.067.067-.1.133-.1.2-.066.2-.1.367-.1.5-.1 0-.1 0-.1.1v.2c0 .2-.1.3-.2.5v.1c-.067.133-.1.233-.1.3v-.1Z"/>
        </g>
      </g>
    </g>
    <g opacity=".2" style="mix-blend-mode:multiply">
      <mask id="C" width="12" height="7" x="60" y="62" maskUnits="userSpaceOnUse" style="mask-type:luminance">
        <path fill="#fff" d="m60.58 65.31 10.11 2.92.82-2.82-10.12-2.92-.81 2.82Z"/>
      </mask>
      <g mask="url(#C)">
        <path fill="#100E0C" d="M71.3 66.2S65 64 63 63l.5 1s-.4.4-1 .2-1.4-.6-1.4-.6v.5s6.4 3.1 8.4 3.7l1.2.4.6-2Z"/>
      </g>
    </g>
    <path fill="#192B46" d="M49.3 43.5c.7-.5 2-.3 2-.3s2 .2 4.1-.1c2.1-.3 3.6 1 3.6 2 .2 2.6-1 3.4-1 3.4s-2.1 1.8-6.2 1.7"/>
    <path stroke="#090707" stroke-linecap="round" stroke-linejoin="round" stroke-width=".6" d="M49.3 43.5c.7-.5 2-.3 2-.3s2 .2 4.1-.1c2.1-.3 3.6 1 3.6 2 .2 2.6-1 3.4-1 3.4s-2.1 1.8-6.2 1.7"/>
    <path fill="#FDD00B" d="M58 48.5s1.2-.8 1-3.4c0-1-1.5-2.3-3.6-2-1.1.2-2.2.2-3 .2-.9.4-1.8 1.2-2.2 2.4-.7 2.2.8 3.9 2.8 4.5 3.3-.2 5-1.7 5-1.7Z"/>
    <path stroke="#090707" stroke-linecap="round" stroke-linejoin="round" stroke-width=".5" d="M58 48.5s1.2-.8 1-3.4c0-1-1.5-2.3-3.6-2-1.1.2-2.2.2-3 .2-.9.4-1.8 1.2-2.2 2.4-.7 2.2.8 3.9 2.8 4.5 3.3-.2 5-1.7 5-1.7Z"/>
    <g opacity=".2" style="mix-blend-mode:multiply">
      <mask id="D" width="13" height="9" x="45" y="43" maskUnits="userSpaceOnUse" style="mask-type:luminance">
        <path fill="#fff" d="m45.52 48.57 10.01 2.89 1.48-5.16-10-2.88-1.49 5.15Z"/>
      </mask>
      <g mask="url(#D)">
        <path fill="#100E0C" d="M46.5 45.3s.9-1.5 1.5-1.4c.6.1-.4 1.7-.4 1.7s.8-1.2 1.7-.3c.8.9 1.9 1.2 2.6 1.1l1.1-1.2s-1.2 1.8.5 3.8c0 0 .8 1.1 2.6.6 0 0-2.5.7-3.6.6-1.1-.1-6.2-.1-6-4.9Z"/>
      </g>
    </g>
    <path fill="#EEC193" d="M58.3 44.8s2 .9 2.5 2c.5 1-1.2.3-1.2.3l-1.3-2.3Z"/>
    <path stroke="#090707" stroke-linecap="round" stroke-linejoin="round" stroke-width=".6" d="M58.3 44.8s2 .9 2.5 2c.5 1-1.2.3-1.2.3l-1.3-2.3Z"/>
    <path fill="#100E0C" d="M58.5 45.8c.4 1.1-.4 2.5-1.7 3-1.4.5-2.9 0-3.3-1.1-.4-1.2.4-2.5 1.7-3 1.4-.5 2.8 0 3.3 1.1Z"/>
    <path fill="#FDCF0A" d="M56.5 53.8c.2.067.4.1.6.1 1.267-.2 2.534-2.033 3.8-5.5.3-.5.1-1-.1-1.2-.6-.9-2.3-.9-2.6-.9-.3-.1-.6.2-.6.5s.3.6.6.6c.7 0 1.5.2 1.7.4v.2c-1.3 3.4-2.4 4.7-3 4.7-.1.1-.3.1-.6-.3-1.1-1.5-1.4-2.9-1.1-3.5.067-.2.167-.334.3-.4 1.1-.1 3.1.1 3.1.1.4 0 .6-.2.7-.5 0-.3-.2-.6-.5-.6-.1 0-2.2-.3-3.4-.1-.6.1-1 .4-1.2 1-.5 1.2-.1 3.1 1.2 4.7.4.4.8.7 1.1.7Z"/>
    <path stroke="#090707" stroke-linecap="round" stroke-linejoin="round" stroke-width=".4" d="M56.5 53.8c.2.067.4.1.6.1 1.267-.2 2.534-2.033 3.8-5.5.3-.5.1-1-.1-1.2-.6-.9-2.3-.9-2.6-.9-.3-.1-.6.2-.6.5s.3.6.6.6c.7 0 1.5.2 1.7.4v.2c-1.3 3.4-2.4 4.7-3 4.7-.1.1-.3.1-.6-.3-1.1-1.5-1.4-2.9-1.1-3.5.067-.2.167-.334.3-.4 1.1-.1 3.1.1 3.1.1.4 0 .6-.2.7-.5 0-.3-.2-.6-.5-.6-.1 0-2.2-.3-3.4-.1-.6.1-1 .4-1.2 1-.5 1.2-.1 3.1 1.2 4.7.4.4.8.7 1.1.7Z"/>
    <path fill="#FDCF0A" d="M60.3 58.4c.6.2 1.1.1 1.6-.4.333-.4.467-.834.4-1.3-.2-1-1.3-1.9-2.6-2.6V54c.1-.3.4-1.2 1.3-3.1.4-.933.433-1.767.1-2.5-.3-.8-1.1-1.1-1.2-1.2-.3-.1-.6.1-.7.4-.2.3 0 .6.3.7 0 0 .4.2.6.6.133.4.067.9-.2 1.5-1.6 3.7-1.5 3.9-1.3 4.2.1.1.2.2.5.4.5.3 1.9 1.2 2 1.9.1.1 0 .2-.1.3-.4.5-2.1-.8-3-1.5-1.2-.9-2.1-1.6-2.9-1.3-.2.1-.8.4-.5.5.1 0 .3-.1.7.2.2 0 1.4 1.1 2 1.5 1 .8 2.1 1.6 3 1.8Z"/>
    <path stroke="#090707" stroke-linecap="round" stroke-linejoin="round" stroke-width=".4" d="M60.3 58.4c.6.2 1.1.1 1.6-.4.333-.4.467-.834.4-1.3-.2-1-1.3-1.9-2.6-2.6V54c.1-.3.4-1.2 1.3-3.1.4-.933.433-1.767.1-2.5-.3-.8-1.1-1.1-1.2-1.2-.3-.1-.6.1-.7.4-.2.3 0 .6.3.7 0 0 .4.2.6.6.133.4.067.9-.2 1.5-1.6 3.7-1.5 3.9-1.3 4.2.1.1.2.2.5.4.5.3 1.9 1.2 2 1.9.1.1 0 .2-.1.3-.4.5-2.1-.8-3-1.5-1.2-.9-2.1-1.6-2.9-1.3-.2.1-.8.4-.5.5.1 0 .3-.1.7.2.2 0 1.4 1.1 2 1.5 1 .8 2.1 1.6 3 1.8Z"/>
    <g opacity=".2" style="mix-blend-mode:multiply">
      <mask id="E" width="6" height="9" x="57" y="46" maskUnits="userSpaceOnUse" style="mask-type:luminance">
        <path fill="#fff" d="m57.32 53.4 2.75.8 1.98-6.87-2.75-.8-1.98 6.87Z"/>
      </mask>
      <g mask="url(#E)">
        <path fill="#100E0C" d="M60.5 46.9s.4.5.1.6c-.3.2-.5-.1-.5-.1v1.5s-.1.8-.9.5l.1.1s-.7 1.7-1.6 2.6c0 0 .4.4.2.6-.3.3-.5 1 0 .8.4-.2 1.3-1.3 1.3-1.3l.7-1.8s.3-.4.6-.2.2 1.5.2 1.5 1.2-2.2.3-3.6c0 0 .3-.7-.5-1.2Z"/>
      </g>
    </g>
    <g opacity=".2" style="mix-blend-mode:multiply">
      <mask id="F" width="4" height="6" x="53" y="47" maskUnits="userSpaceOnUse" style="mask-type:luminance">
        <path fill="#fff" d="m53.3 51.44 2.59.74 1.08-3.73-2.6-.75-1.07 3.74Z"/>
      </mask>
      <g mask="url(#F)">
        <path fill="#100E0C" d="M56 52s-.8-.8-1.1-.4c-.3.4-.4.1-.4.1s-.8-1.9-.5-2.8c.4-1 .3.1.6-.3.3-.3.1-.8.1-.8l.4.2v1.3s-.1 1.1.9 2.7Z"/>
      </g>
    </g>
    <g opacity=".2" style="mix-blend-mode:multiply">
      <mask id="G" width="5" height="4" x="58" y="54" maskUnits="userSpaceOnUse" style="mask-type:luminance">
        <path fill="#fff" d="m58.13 56.68 3.44 1 .59-2.05-3.44-.99-.59 2.04Z"/>
      </mask>
      <g mask="url(#G)">
        <path fill="#100E0C" d="M58.7 54.6s2.6.8 3 1.7c.4.9-.4 1.6-2 .7 0 0 1 .7 1.4.1.4-.7-.8-1.5-2.4-2.5Z"/>
      </g>
    </g>
    <path fill="#EEC193" d="M54.2 46.7c0-.1-.6-.1-.6-.1-.2-.6.6-1.5 1.4-1.8 1.5-.6 2.9-.8 4.4 1 .8 1.1.9 1.5-.7 2.5-1.5.8-2 1.5-3.2.1-.6-.8-1.1-1.2-1.3-1.7Z"/>
    <path stroke="#090707" stroke-width=".6" d="M54.2 46.7c0-.1-.6-.1-.6-.1-.2-.6.6-1.5 1.4-1.8 1.5-.6 2.9-.8 4.4 1 .8 1.1.9 1.5-.7 2.5-1.5.8-2 1.5-3.2.1-.6-.8-1.1-1.2-1.3-1.7Z"/>
    <path fill="#EEC193" d="m56.2 47.7.1 1.4c0 .3-.2.5-.6.5-.3 0-.5-.2-.6-.5v-1.6"/>
    <path stroke="#090707" stroke-linecap="round" stroke-linejoin="round" stroke-width=".6" d="m56.2 47.7.1 1.4c0 .3-.2.5-.6.5-.3 0-.5-.2-.6-.5v-1.6"/>
    <path fill="#EEC193" d="M57.5 47.2v1.9c.1.3-.2.6-.5.6-.4 0-.6-.2-.6-.5l-.2-2"/>
    <path stroke="#090707" stroke-linecap="round" stroke-linejoin="round" stroke-width=".6" d="M57.5 47.2v1.9c.1.3-.2.6-.5.6-.4 0-.6-.2-.6-.5l-.2-2"/>
    <path fill="#EEC193" d="m58.7 47.1.1 2c0 .3-.2.6-.6.6-.3 0-.6-.2-.6-.5l-.1-1.7"/>
    <path stroke="#090707" stroke-linecap="round" stroke-linejoin="round" stroke-width=".6" d="m58.7 47.1.1 2c0 .3-.2.6-.6.6-.3 0-.6-.2-.6-.5l-.1-1.7"/>
    <path fill="#EEC193" d="m60 46.9.1 1.9c0 .3-.3.6-.6.6s-.6-.3-.6-.6l-.2-1.4"/>
    <path stroke="#090707" stroke-linecap="round" stroke-linejoin="round" stroke-width=".6" d="m60 46.9.1 1.9c0 .3-.3.6-.6.6s-.6-.3-.6-.6l-.2-1.4"/>
    <path fill="#192B46" d="M73.5 39.5c1.5-1.7 3.9-2.1 6.2-2 2.4 0 8.3 2.2 11.6-1.8 3.3-4.1 1.6-6.2 4.8-6.7 0 0 1.4-.3 2 1.7 0 0 2.9 3-3.5 10.5-6.4 7.4-14.9 6.5-16.2 6.2-.9-.3-2.1-.8-3.2-1.7"/>
    <path stroke="#090707" stroke-linecap="round" stroke-linejoin="round" stroke-width=".6" d="M73.5 39.5c1.5-1.7 3.9-2.1 6.2-2 2.4 0 8.3 2.2 11.6-1.8 3.3-4.1 1.6-6.2 4.8-6.7 0 0 1.4-.3 2 1.7 0 0 2.9 3-3.5 10.5-6.4 7.4-14.9 6.5-16.2 6.2-.9-.3-2.1-.8-3.2-1.7"/>
    <path fill="#FDD00B" d="M93.1 33.6s.4-1 .7-.8c.3.3 0 1.7 0 1.7s.4.7 0 1.4c0 0 .7 1.5 2.5 1.4 1.6-.1 2.2-.9 2.3-1.6 0 0 .5-2 .3-3.7.3-.9 1.1-2.6.2-4-.8-1.3-4.6-1.7-5.4.4 0 0-.5.7-.3 2.3 0 0 .2.7-.4 2.2l.1.7Z"/>
    <path stroke="#090707" stroke-linecap="round" stroke-linejoin="round" stroke-width=".5" d="M93.1 33.6s.4-1 .7-.8c.3.3 0 1.7 0 1.7s.4.7 0 1.4c0 0 .7 1.5 2.5 1.4 1.6-.1 2.2-.9 2.3-1.6 0 0 .5-2 .3-3.7.3-.9 1.1-2.6.2-4-.8-1.3-4.6-1.7-5.4.4 0 0-.5.7-.3 2.3 0 0 .2.7-.4 2.2l.1.7Z"/>
    <g opacity=".2" style="mix-blend-mode:multiply">
      <mask id="H" width="24" height="23" x="75" y="28" maskUnits="userSpaceOnUse" style="mask-type:luminance">
        <path fill="#fff" d="M75.38 45.84 93.26 51l5.12-17.75-17.87-5.16-5.13 17.75Z"/>
      </mask>
      <g mask="url(#H)">
        <path fill="#100E0C" d="M95.6 36.9s1.4-.1 1.7-1.7c.2-1.6.2-2.2.2-2.2s-1 .8-2.2.3c-1.1-.6-.8.4-.8.4s.5.1.5.5c-.1.4-.5 2.6-.8 2.5l.6.4s.1.6-.6.4c-.8-.1-1 .2-1.5.7-.5.5-1.3 2.7-2.9 4.1 0 0 .3 1.4-1.4 2.2-1.8.9-1.5-.5-1.5-.5s-2.4.6-4.1.5c-1.8-.1-7-1.8-6.9-.5.2 1.3 2.9 2.4 3 2.4.2.1-2.4-.3-2.4-.3s2.5 1.2 7.2.8c4.7-.5 10.1-3.7 11.9-6.7 1.8-2.9 1.8-3.5 1.8-3.5s-1.7.7-1.8.2Z"/>
      </g>
    </g>
    <path fill="#100E0C" d="M99.1 30.1c-.4 1.1-1.8 1.7-3.2 1.3-1.4-.5-2.3-1.7-2-2.8.3-1.1 1.7-1.7 3.1-1.2 1.5.4 2.4 1.6 2.1 2.7Z"/>
    <path fill="#EEC193" d="m94.8 26 4.5-1.7s1.3-.1 1.3.9c-.1.9-1.2 3.7-1.8 4.6-.6.9-2.6 1.4-3.2 1-.5-.5-1.6-2.2-.8-3 .8-.9 0-1.8 0-1.8Z"/>
    <path stroke="#090707" stroke-width=".6" d="m94.8 26 4.5-1.7s1.3-.1 1.3.9c-.1.9-1.2 3.7-1.8 4.6-.6.9-2.6 1.4-3.2 1-.5-.5-1.6-2.2-.8-3 .8-.9 0-1.8 0-1.8Z"/>
    <path fill="#100F0D" d="M91.8 18c-2.7-5-7.1-6.9-7.3-7.3-.2-.4 2.3-.3 3.1-.7 1-.4 7.8-2.7 12.3 3.4"/>
    <path stroke="#090707" stroke-linejoin="round" stroke-width=".6" d="M91.8 18c-2.7-5-7.1-6.9-7.3-7.3-.2-.4 2.3-.3 3.1-.7 1-.4 7.8-2.7 12.3 3.4"/>
    <path fill="#100F0D" d="m98.3 27.1-1 3.2s-1.2-.7-1.8-1.6c-.3-.5-.2.2-.5-1.4-1.6-4.2-4-6.5-6.1-10.7-1.5-2.8-2.2-3.1-4.1-4.8 0 0 .9.5 2.9.9s5.1-.1 6.3 1.4c1.3 1.4 6.2 10 6 10.8-.2.9-1.7 2.2-1.7 2.2Z"/>
    <path stroke="#090707" stroke-linejoin="round" stroke-width=".6" d="m98.3 27.1-1 3.2s-1.2-.7-1.8-1.6c-.3-.5-.2.2-.5-1.4-1.6-4.2-4-6.5-6.1-10.7-1.5-2.8-2.2-3.1-4.1-4.8 0 0 .9.5 2.9.9s5.1-.1 6.3 1.4c1.3 1.4 6.2 10 6 10.8-.2.9-1.7 2.2-1.7 2.2Z"/>
    <path fill="#100E0C" d="M88.1 14.2s.8 1.3 1.3 2.4c.5 1 2.3 4 3.6 5.9 1.2 1.8 1.8 3 1.8 3s.3.7.5.5c.3-.2.9-2.6.4-3.9-.6-1.3-2.7-5.6-3.6-6.2-.8-.6-3.9-2.2-4-1.7Z"/>
    <path fill="#192B46" d="M88.9 11.7s7.9-3.3 12 3.1c3.8 5.8-2.3 12-3.5 15.5-.1.2-.6-.2-.7-1-.1-.8-.8-4.2-3.6-9.3-2.8-5-6.9-7.1-7.1-7.5-.2-.4 1.6-.1 2.9-.8Z"/>
    <path stroke="#090707" stroke-linecap="round" stroke-linejoin="round" stroke-width=".6" d="M88.9 11.7s7.9-3.3 12 3.1c3.8 5.8-2.3 12-3.5 15.5-.1.2-.6-.2-.7-1-.1-.8-.8-4.2-3.6-9.3-2.8-5-6.9-7.1-7.1-7.5-.2-.4 1.6-.1 2.9-.8Z"/>
    <path stroke="#090707" stroke-linejoin="round" stroke-width=".4" d="M84.8 10.4h.5"/>
    <path fill="#100F0D" d="m87.4 12.5-1.2.3s-1.1-.5-1.8-1.4c-.3-.4-.1-.8.3-1h.4"/>
    <path stroke="#090707" stroke-linejoin="round" stroke-width=".6" d="m87.4 12.5-1.2.3s-1.1-.5-1.8-1.4c-.3-.4-.1-.8.3-1h.4"/>
    <path fill="#192B46" d="M87.4 12.2c-1.4.5-2.9-.8-2.9-.8s1.2 1 2.1 1.6"/>
    <path stroke="#090707" stroke-linecap="round" stroke-linejoin="round" stroke-width=".6" d="M87.4 12.2c-1.4.5-2.9-.8-2.9-.8s1.2 1 2.1 1.6"/>
    <path stroke="#CDAE2C" stroke-width=".9" d="M86.3 12.5c.3.1 2.1-.1 3-.6.4-.3 7.7-2.6 11.4 3.2 3.5 5.5-2.2 11.7-3.5 14.9"/>
    <path stroke="#090707" stroke-linecap="round" stroke-linejoin="round" stroke-width=".6" d="M88.9 11.7s7.9-3.3 12 3.1c3.8 5.8-2.3 12-3.5 15.5-.1.2-.6-.2-.7-1-.1-.8-.8-4.2-3.6-9.3-2.8-5-6.9-7.1-7.2-7.5-.2-.3 1.7-.1 3-.8Z"/>
    <g style="mix-blend-mode:multiply">
      <mask id="I" width="12" height="19" x="92" y="12" maskUnits="userSpaceOnUse" style="mask-type:luminance">
        <path fill="#fff" d="m92.94 29.21 6.19 1.78 4.73-16.39-6.19-1.78-4.73 16.39Z"/>
      </mask>
      <g mask="url(#I)">
        <path fill="#B1ADAC" d="M99.8 13.4s-.5 3-1.8 6c-.7 1.7-3.3 3.7-3.3 3.7l2.2 7s.4.4.5.4c.1-.1 3.1-5.8 3.2-5.9.1-.1 1.4-3.2 1.5-4 .1-.8.3-1.5.1-2.7-.3-1.2-.8-2.5-1-2.7-.2-.3-1.4-1.8-1.4-1.8Z"/>
      </g>
    </g>
    <path fill="#EEC193" d="m99.1 25.5-1.4-.1c-.3 0-.7-.3-.6-.7 0-.3.2-.5.5-.5h1.9s1.4-.2 1 1.5c-.1.3-.5 1.7-.8 2.4-.5 1.1-.7 1.7-1.5 2.3"/>
    <path stroke="#090707" stroke-linecap="round" stroke-linejoin="round" stroke-width=".6" d="m99.1 25.5-1.4-.1c-.3 0-.7-.3-.6-.7 0-.3.2-.5.5-.5h1.9s1.4-.2 1 1.5c-.1.3-.5 1.7-.8 2.4-.5 1.1-.7 1.7-1.5 2.3"/>
    <path fill="#EEC193" d="m98.9 27.9-1.7-.1c-.3 0-.6.3-.6.6s.2.6.5.6h1.4"/>
    <path stroke="#090707" stroke-linecap="round" stroke-linejoin="round" stroke-width=".6" d="m98.9 27.9-1.7-.1c-.3 0-.6.3-.6.6s.2.6.5.6h1.4"/>
    <path fill="#EEC193" d="M99.3 26.7h-2c-.3 0-.5.2-.5.6 0 .3.2.6.5.6h1.6"/>
    <path stroke="#090707" stroke-linecap="round" stroke-linejoin="round" stroke-width=".6" d="M99.3 26.7h-2c-.3 0-.5.2-.5.6 0 .3.2.6.5.6h1.6"/>
    <path fill="#EEC193" d="m99.4 25.5-2.1-.1c-.3 0-.5.3-.5.6 0 .4.2.6.5.7h2"/>
    <path stroke="#090707" stroke-linecap="round" stroke-linejoin="round" stroke-width=".6" d="m99.4 25.5-2.1-.1c-.3 0-.5.3-.5.6 0 .4.2.6.5.7h2"/>
    <path fill="#EEC193" d="M95.8 30.9c-1.3-.2-1.8-1.3-1.8-1.3-.4-1.2.2-2.1.2-2.1l.3-1.3c0-.3.3-.5.6-.5.3.1.6.3.6.6l-.3 1s-.1.5.8 1.2c0 0 .3 1 .4 1.5"/>
    <path stroke="#090707" stroke-linecap="round" stroke-linejoin="round" stroke-width=".6" d="M95.8 30.9c-1.3-.2-1.8-1.3-1.8-1.3-.4-1.2.2-2.1.2-2.1l.3-1.3c0-.3.3-.5.6-.5.3.1.6.3.6.6l-.3 1s-.1.5.8 1.2c0 0 .3 1 .4 1.5"/>
    <g opacity=".2" style="mix-blend-mode:multiply">
      <mask id="J" width="11" height="7" x="74" y="35" maskUnits="userSpaceOnUse" style="mask-type:luminance">
        <path fill="#fff" d="m74.2 39 9.37 2.71 1.05-3.64-9.37-2.7L74.2 39Z"/>
      </mask>
      <g mask="url(#J)">
        <path fill="#100E0C" d="M76.1 37.7s-1.5.6-1.8 1.1c-.4.5 1.2 0 2.4.5 1.1.6 4.2 1.3 5.6.9 1.3-.4 2.6-1.9 2.2-2.2-.5-.2-2.2-.3-2.2-.3h-6.2Z"/>
      </g>
    </g>
    <path fill="#FACF09" d="M75.9 38.1c0 .3-.2.6-.4.6-.3 0-.5-.2-.6-.5v-.8c-.1-.3.1-.5.4-.5.3 0 .5.2.5.4l.1.8Z"/>
    <path stroke="#090707" stroke-linecap="round" stroke-linejoin="round" stroke-width=".4" d="M75.9 38.1c0 .3-.2.6-.4.6-.3 0-.5-.2-.6-.5v-.8c-.1-.3.1-.5.4-.5.3 0 .5.2.5.4l.1.8Z"/>
    <path fill="#F3971E" d="M76.9 38.4c0 .3-.2.6-.4.6-.3 0-.6-.2-.6-.5l-.1-.8c0-.3.2-.5.5-.5.2-.1.5.2.5.4l.1.8Z"/>
    <path stroke="#090707" stroke-linecap="round" stroke-linejoin="round" stroke-width=".4" d="M76.9 38.4c0 .3-.2.6-.4.6-.3 0-.6-.2-.6-.5l-.1-.8c0-.3.2-.5.5-.5.2-.1.5.2.5.4l.1.8Z"/>
    <path fill="#FACF09" d="M77.8 38.6c.1.3-.1.5-.4.5-.3 0-.5-.2-.5-.5l-.1-.8c-.1-.2.1-.5.4-.5.3 0 .5.2.6.5v.8Z"/>
    <path stroke="#090707" stroke-linecap="round" stroke-linejoin="round" stroke-width=".4" d="M77.8 38.6c.1.3-.1.5-.4.5-.3 0-.5-.2-.5-.5l-.1-.8c-.1-.2.1-.5.4-.5.3 0 .5.2.6.5v.8Z"/>
    <path fill="#F3971E" d="M79 38.9c.1.3-.1.5-.4.5h-.2c-.2 0-.5-.2-.5-.5l-.1-.7c0-.3.2-.6.5-.6h.1c.3 0 .5.2.6.5v.8Z"/>
    <path stroke="#090707" stroke-linecap="round" stroke-linejoin="round" stroke-width=".4" d="M79 38.9c.1.3-.1.5-.4.5h-.2c-.2 0-.5-.2-.5-.5l-.1-.7c0-.3.2-.6.5-.6h.1c.3 0 .5.2.6.5v.8Z"/>
    <path fill="#FACF09" d="M84 37.8c0 .3-.2.5-.5.5-.2 0-.5-.2-.5-.5l-.1-.8c0-.2.2-.5.4-.5.3 0 .5.2.6.5l.1.8Z"/>
    <path stroke="#090707" stroke-linecap="round" stroke-linejoin="round" stroke-width=".4" d="M84 37.8c0 .3-.2.5-.5.5-.2 0-.5-.2-.5-.5l-.1-.8c0-.2.2-.5.4-.5.3 0 .5.2.6.5l.1.8Z"/>
    <path fill="#F3971E" d="M83.1 38.2c0 .2-.2.5-.4.5-.3 0-.5-.2-.6-.5v-.8c-.1-.3.1-.5.4-.5.3 0 .5.2.5.5l.1.8Z"/>
    <path stroke="#090707" stroke-linecap="round" stroke-linejoin="round" stroke-width=".4" d="M83.1 38.2c0 .2-.2.5-.4.5-.3 0-.5-.2-.6-.5v-.8c-.1-.3.1-.5.4-.5.3 0 .5.2.5.5l.1.8Z"/>
    <path fill="#FACF09" d="M82.2 38.4c0 .3-.2.5-.5.5-.2 0-.5-.2-.5-.4l-.1-.9c0-.2.2-.5.5-.5.2 0 .5.2.5.5l.1.8Z"/>
    <path stroke="#090707" stroke-linecap="round" stroke-linejoin="round" stroke-width=".4" d="M82.2 38.4c0 .3-.2.5-.5.5-.2 0-.5-.2-.5-.4l-.1-.9c0-.2.2-.5.5-.5.2 0 .5.2.5.5l.1.8Z"/>
    <path fill="#F3971E" d="M81.2 38.8c.1.3-.1.5-.4.5h-.1c-.3 0-.6-.2-.6-.5l-.1-.7c0-.3.2-.6.5-.6h.1c.3 0 .5.2.6.5v.8Z"/>
    <path stroke="#090707" stroke-linecap="round" stroke-linejoin="round" stroke-width=".4" d="M81.2 38.8c.1.3-.1.5-.4.5h-.1c-.3 0-.6-.2-.6-.5l-.1-.7c0-.3.2-.6.5-.6h.1c.3 0 .5.2.6.5v.8Z"/>
    <path fill="#FACF09" d="M80.1 39c0 .3-.2.5-.5.6h-.1c-.3 0-.5-.2-.5-.5l-.1-.8c0-.3.2-.5.4-.5h.1c.3-.1.5.2.6.4l.1.8Z"/>
    <path stroke="#090707" stroke-linecap="round" stroke-linejoin="round" stroke-width=".4" d="M80.1 39c0 .3-.2.5-.5.6h-.1c-.3 0-.5-.2-.5-.5l-.1-.8c0-.3.2-.5.4-.5h.1c.3-.1.5.2.6.4l.1.8Z"/>
    <path fill="#FACF09" d="M83.7 36.8c.1.5-1.9 1-4.5 1.1-2.5.1-4.3-.2-4.4-.7 0-.5 1.7-1.1 4.2-1.2 2.6-.1 4.7.2 4.7.8Z"/>
    <path stroke="#090707" stroke-linecap="round" stroke-linejoin="round" stroke-width=".4" d="M83.7 36.8c.1.5-1.9 1-4.5 1.1-2.5.1-4.3-.2-4.4-.7 0-.5 1.7-1.1 4.2-1.2 2.6-.1 4.7.2 4.7.8Z"/>
    <g opacity=".2" style="mix-blend-mode:multiply">
      <mask id="K" width="8" height="6" x="76" y="34" maskUnits="userSpaceOnUse" style="mask-type:luminance">
        <path fill="#fff" d="m76.2 37.41 6.87 1.98.81-2.79L77 34.62l-.8 2.79Z"/>
      </mask>
      <g mask="url(#K)">
        <path fill="#100E0C" d="M76.5 36.3c-.3 0 5.1.2 3.7.8-1.1.5-2.9.6-2.9.6s3 .2 3.8.1c.8-.1 4.1-.7 2-1.4-2.2-.7-6-.1-6.6-.1Z"/>
      </g>
    </g>
  </g>
  <path fill="#6A4C9E" d="M49.3 41.8 11.4 39l1-4.9 37.3 2.7-.4 5Z"/>
  <path fill="#FEFEFE" d="m13.9 29.5-.8-.1 1.4-6.2.8.1-1.4 6.2Zm2.4-4.3-.3 2.1-.6 2.3-.8-.1 1.5-6.2.7.1.3 4.8h.1l.3-2.5.6-2.2h.8l-1.5 6.2h-.7l-.3-4.9-.1.4Zm4.2-1.5-.2 4.5.1-.3.6-1.4 1.2-2.7h.7l-.9 6.3-.8-.1.4-2.3.2-1.2.2-.8-.4.9-1.4 3.3h-.5l.2-4.3-1.2 4.2h-.8l1.9-6.2.7.1Z"/>
  <path fill="#FEFEFE" fill-rule="evenodd" d="M26.2 27.2c-.3 1.1-.8 3.2-2.3 3.1-1.6-.1-1.1-2.2-.9-3.3.3-1.1.8-3.2 2.3-3.1 1.6.2 1.1 2.2.9 3.3Zm-2.3-.1c-.3 1.3-.5 2.4.1 2.4.7.1 1-1 1.3-2.3.3-1.3.5-2.4-.1-2.5-.7 0-1 1.1-1.3 2.4Zm3.6-2.9 1 .1c.5 0 1.4.1 1.1 1.7-.1.5-.5 1.4-1.2 1.5l.4 3.1-.8-.1-.4-3.1-.7 3h-.8l1.4-6.2Zm1.2 1.9c.1-.6.1-1.1-.5-1.2h-.1l-.5 2.1c.6.1.9-.3 1.1-.9Z" clip-rule="evenodd"/>
  <path fill="#FEFEFE" d="m32.6 24.6-.2.7-.9-.1-1.2 5.5-.8-.1 1.2-5.4-.9-.1.2-.7 2.6.2Z"/>
  <path fill="#FEFEFE" fill-rule="evenodd" d="m34 24.7-.1 6.3-.8-.1v-1.2l-1.1-.1-.6 1.2-.7-.1 2.7-6.1.6.1Zm-.8 3.5.2-2.3-1.2 3.1 1 .1v-.9Z" clip-rule="evenodd"/>
  <path fill="#FEFEFE" d="m36.5 24.9-1.3 5.4 1.3.1-.1.7-2.2-.1 1.5-6.2.8.1Zm1 6.3h-.8l1.4-6.2h.8l-1.4 6.2Z"/>
  <path fill="#FEFEFE" fill-rule="evenodd" d="M40.6 25.2c.9 0 2 .2 1.2 3.3-.6 2.9-1.6 2.9-3 2.8h-.6l1.5-6.2.9.1Zm-.3.7-1.1 4.8c1.3.1 1.6-1.2 1.8-2.2.2-1 .7-2.6-.7-2.6Zm4.4-.4-.2 6.3-.8-.1.1-1.2-1.2-.1-.5 1.2-.8-.1 2.7-6.1.7.1Zm-.8 3.5.2-2.3-1.2 3.1 1 .1V29Zm3.3-3.3c.9 0 2 .2 1.3 3.3-.7 2.9-1.7 2.9-3.1 2.8h-.5l1.4-6.2.9.1Zm-.3.7-1.1 4.8c1.3.1 1.6-1.2 1.8-2.2.2-1 .7-2.6-.7-2.6Zm5.2-.4c1 .1 2 .3 1.3 3.4-.6 2.8-1.6 2.9-3 2.8h-.6l1.5-6.2h.8Zm-.3.7-1.1 4.8c1.3.1 1.5-1.2 1.8-2.2.2-1 .7-2.6-.7-2.6Z" clip-rule="evenodd"/>
  <path fill="#FEFEFE" d="m56.9 26.4-.1.7-1.4-.1-.4 2h1.2l-.2.8-1.2-.1-.5 2.1 1.3.1-.1.7-2.2-.2 1.5-6.2 2.1.2Zm1.2.1L56.9 32l1.3.1-.2.7-2.1-.2 1.4-6.2.8.1Zm-38.5 9.3c-.2-.4-.433-.667-.7-.8-.266-.133-.6-.2-1-.2-.4-.067-.833.067-1.3.4-.4.333-.633.767-.7 1.3-.133.533-.066 1 .2 1.4.2.4.534.6 1 .6.333.067.633.033.9-.1.2-.066.367-.167.5-.3l.1-.2-1.5-.1.4-1.9 4 .4-.3 1.6c-.3.8-.8 1.5-1.3 1.9-.266.2-.567.367-.9.5-.333.133-.6.233-.8.3-.266.067-.533.1-.8.1-.2.067-.366.1-.5.1h-.3c-1.133-.133-2-.633-2.6-1.5-.6-.8-.767-1.8-.5-3 .267-1.133.867-2.067 1.8-2.8.933-.733 1.967-1.033 3.1-.9 1.534.067 2.6.8 3.2 2.2l-2 1Z"/>
  <path fill="#FEFEFE" fill-rule="evenodd" d="m28.4 41.5-2.8-.2-1.1-2.1h-.2l-.5 2-2.3-.2 1.8-7.9 3.1.2c.1 0 .2 0 .6.2.4.1.8.2 1.2.5.4.4.6.8.7 1.4.067.4.067.8 0 1.2-.266 1.067-.9 1.834-1.9 2.3l1.4 2.6Zm-3.3-6.1-.3 1.5.9.1c.4 0 .634-.233.7-.7.1-.5-.1-.8-.4-.8l-.9-.1Zm10.6-1.3 1.1 8.1-2.5-.2-.1-.8-2.5-.2-.5.8-2.5-.2 4.6-7.7 2.4.2Zm-2.8 4.7 1.1.1-.2-1.7-.9 1.6Z" clip-rule="evenodd"/>
  <path fill="#FEFEFE" d="m41.5 34.5-1.2 5.7 3.2.3-.4 2.2-5.6-.4 1.7-8 2.3.2Zm3.1 6.2c.333-.267.667-.4 1-.4.4.067.7.233.9.5.133.267.167.6.1 1a1.743 1.743 0 0 1-.5.9c-.333.2-.667.3-1 .3-.4 0-.7-.167-.9-.5-.2-.267-.233-.567-.1-.9.067-.4.233-.7.5-.9Z"/>
  <path fill="#6A4C9E" d="m81.9 55.5-73-6.2 1-5 72.3 6.2-.3 5Z"/>
  <path fill="#FEFEFE" d="M12.9 48.3c.4.667.933 1.034 1.6 1.1.467 0 .733-.133.8-.4 0-.066-.133-.166-.4-.3-.2-.133-.467-.3-.8-.5a6.993 6.993 0 0 1-1-.5c-.333-.267-.566-.566-.7-.9-.2-.4-.267-.833-.2-1.3.134-.466.433-.933.9-1.4.5-.5 1.5-.8 2.6-.8.8.1 1.5.4 1.9.8.4.3.7.7.8 1v.2l-1.8 1.1c-.2-.333-.4-.566-.6-.7-.2-.133-.466-.2-.8-.2-.3 0-.6.1-.6.3-.1.2.3.5.8.7.267.067.534.2.8.4.334.134.6.3.8.5.267.2.433.467.5.8.133.333.167.7.1 1.1-.1.5-.5 1-1 1.5-.6.5-1.5.8-2.6.7-.933-.066-1.633-.3-2.1-.7-.466-.466-.767-.933-.9-1.4l1.9-1.1Z"/>
  <path fill="#FEFEFE" fill-rule="evenodd" d="m24.3 44.1 1.1 8.2-2.5-.2-.1-.9-2.5-.2-.4.8-2.5-.1 4.6-7.8 2.3.2Zm-2.8 4.8 1.1.1-.2-1.7-.9 1.6Z" clip-rule="evenodd"/>
  <path fill="#FEFEFE" d="M34.7 44.9 33 52.8l-2.1-.1-1.7-3.7-.8 3.5-2.3-.2 1.8-7.9 2.1.2 1.7 3.6.7-3.5 2.3.2Zm6.5 7.6h-.6l-.9-2.5-.7 3.3-2.4-.2 1.8-7.9 2.1.1 1.3 3.2 2.5-2.9 2.2.2-1.7 7.9-2.3-.2.7-3.2-2 2.2Z"/>
  <path fill="#FEFEFE" fill-rule="evenodd" d="m52.4 46.2 1.1 8.2-2.5-.2-.1-.9-2.5-.1-.4.8-2.5-.2 4.5-7.7 2.4.1Zm-2.7 4.7 1 .1-.1-1.7-.9 1.6ZM61.1 55l-2.8-.3-1.1-2.1h-.3l-.4 2-2.3-.2 1.7-7.9 3.2.3c.1 0 .2 0 .6.1.4.1.7.2 1.1.6.4.3.7.7.8 1.4 0 .334-.033.7-.1 1.1-.2 1.067-.8 1.833-1.8 2.3l1.4 2.7Zm-3.4-6-.3 1.4.9.1c.4.067.667-.167.8-.7.1-.5-.1-.7-.5-.8h-.9Z" clip-rule="evenodd"/>
  <path fill="#FEFEFE" d="m64.5 49.4-2.1-.1.5-2.3 6.6.5-.5 2.3-2.2-.2-1.2 5.7-2.3-.2 1.2-5.7Zm4.1 6.1 1.8-7.9 2.3.2-1.8 7.9-2.3-.2Zm4.2-8.4-2.3-.2 1.5-2 2.6.1-1.8 2.1Zm7.9 1.3L79 56.3l-2.1-.2-1.7-3.6-.7 3.5-2.3-.2 1.7-7.9 2.1.1 1.7 3.7.7-3.5 2.3.2Z"/>
  <path fill="#FEFEFE" fill-rule="evenodd" d="m14.8 19.9 1.4-6.2 1 .1c.7 0 1.5.2 1.2 1.8-.3 1.2-.9 1.8-2.2 1.6l-.6 2.7h-.8Zm2.1-5.4-.5 2.1c.7.1.9-.3 1.1-1 .1-.5.1-1-.5-1.1h-.1Zm3.5-.5-.2 6.3-.8-.1.1-1.2-1.2-.1-.5 1.2-.8-.1 2.7-6h.7Zm-.8 3.4.2-2.3-1.2 3.1 1 .1v-.9Z" clip-rule="evenodd"/>
  <path fill="#FEFEFE" d="M23.6 15.2c-.2-.1-.3-.3-.6-.3-.4 0-.8.3-.9.8-.1.2 0 .4.1.7l.4.7c.4.6.6 1 .5 1.9-.3.8-1 1.5-1.8 1.5-.4-.1-.6-.2-.8-.4l.1-.8c.2.2.5.3.8.4.5 0 .8-.4.9-.9.2-1.2-1.4-1.6-1-3.2.2-.9.8-1.5 1.7-1.5.333.067.6.167.8.3l-.2.8Z"/>
  <path fill="#FEFEFE" fill-rule="evenodd" d="M26.9 17.7c-.3 1.1-.8 3.1-2.3 3-1.6-.1-1.1-2.2-.9-3.3.3-1.1.8-3.1 2.3-3 1.6.1 1.1 2.1.9 3.3Zm-2.3-.2c-.3 1.3-.5 2.4.1 2.4.7.1 1-1 1.3-2.3.3-1.3.5-2.4-.1-2.5-.7 0-1 1.1-1.3 2.4Zm6.5-2.7-.1 6.3h-.8v-1.3l-1.2-.1-.5 1.2h-.7l2.7-6.1h.6Zm-.8 3.4.2-2.2-1.2 3.1h.9l.1-.9Z" clip-rule="evenodd"/>
  <path fill="#FEFEFE" d="m35 15.1-1.3 5.5 1.4.1-.2.7-2.2-.1 1.5-6.2h.8Z"/>
  <path fill="#FEFEFE" fill-rule="evenodd" d="m38.1 15.4-.1 6.3-.8-.1v-1.2l-1.2-.1-.5 1.2-.8-.1 2.8-6.1.6.1Zm-.8 3.5.2-2.3-1.2 3.1.9.1.1-.9Z" clip-rule="evenodd"/>
</svg>
