<svg xmlns="http://www.w3.org/2000/svg" width="74" height="79" fill="none" viewBox="0 0 74 79">
  <path fill="#116432" d="M72.363 53.214c-4.5 18.1-23.6 29.1-42.6 24.6-18.9-4.4-30.7-22.7-26.1-40.8 4.5-18 23.6-29.1 42.5-24.6 19 4.5 30.7 22.7 26.2 40.8Z"/>
  <path fill="#116432" d="M72.363 53.214c-4.5 18.1-23.6 29.1-42.6 24.6-18.9-4.4-30.7-22.7-26.1-40.8 4.5-18 23.6-29.1 42.5-24.6 19 4.5 30.7 22.7 26.2 40.8Z"/>
  <mask id="a" width="72" height="68" x="2" y="11" maskUnits="userSpaceOnUse" style="mask-type:luminance">
    <path fill="#fff" d="M72.343 53.214c-4.53 18.07-23.58 29.09-42.55 24.62-18.98-4.47-30.69-22.73-26.16-40.79 4.53-18.07 23.59-29.09 42.56-24.62 18.97 4.47 30.68 22.73 26.15 40.79Z"/>
  </mask>
  <g mask="url(#a)">
    <path fill="#56B846" stroke="#116432" stroke-width=".5" d="M61.463 73.714c.267-.2.566-.433.9-.7l-37.3-55.7-1 .4 37.4 56Zm8.7-9.8.6-1-32.5-48.6c-.4.067-.8.1-1.2.1l33.1 49.5Zm-5.5 7c.267-.2.533-.433.8-.7l-36.3-54.4a5.3 5.3 0 0 0-1.1.3l36.6 54.8Zm2.9-3.2c.267-.333.5-.633.7-.9l-34.7-52-1.2.2 35.2 52.7Zm4.7-8.2c.2-.4.367-.8.5-1.2l-29.2-43.7-1.4-.2 30.1 45.1Zm-13.8 16.3c.133-.134.267-.234.4-.3l-37.6-56.3a1.25 1.25 0 0 0-.5.3 3.89 3.89 0 0 1-.5.2l37.7 56.3c.133-.067.3-.134.5-.2Zm15.4-21.5a13.5 13.5 0 0 1 .3-1.6l-24.8-37-1.6-.4 26.1 39Zm-19.5-36.7 20.1 30.1c0-.733-.033-1.433-.1-2.1l-18.1-27.1c-.6-.333-1.233-.633-1.9-.9Zm-24.5 61.9c.466.133.966.267 1.5.4l-26-38.9a9.948 9.948 0 0 0-.3 1.5l24.8 37Zm5.8 1.2a9.9 9.9 0 0 1 1.4.1l-30.1-45.1c-.2.4-.367.833-.5 1.3l29.2 43.7Zm37.1-43.2c-.933-2.667-2.2-5.2-3.8-7.6-1.6-2.5-3.5-4.6-5.6-6.5l9.4 14.1Zm-49.9 39.2 2 1-20.1-30.1v2l18.1 27.1Zm27.2 2.7a5.34 5.34 0 0 0 1.1-.3l-36.7-54.8c-.2.267-.433.533-.7.8l36.3 54.3Zm4.1-1.4c.333-.2.667-.367 1-.5l-37.4-56c-.333.266-.634.5-.9.7l37.3 55.8Zm-13.3 2.9c.467 0 .9-.033 1.3-.1l-33.1-49.5c-.2.333-.4.7-.6 1.1l32.4 48.5Zm4.8-.5 1.2-.2-35.3-52.7c-.2.333-.4.633-.6.9l34.7 52Zm-25.7-1.5c.667.333 1.3.667 1.9 1l-20.1-30.1c0 .667.033 1.367.1 2.1l18.1 27Z"/>
  </g>
  <path fill="#7AC057" d="M69.663 49.814c-4.5 18-23.5 29-42.5 24.6-19-4.5-30.7-22.8-26.2-40.8 4.6-18.1 23.6-29.1 42.6-24.6 19 4.4 30.7 22.7 26.1 40.8Z"/>
  <path fill="#503413" d="m55.763 62.814-2.8-.3.9-10.9 2.8.2-.9 11Z"/>
  <path fill="url(#b)" d="m55.763 62.814-1.4-.1.9-11 1.4.1-.9 11Z" opacity=".2" style="mix-blend-mode:multiply"/>
  <path fill="#588E3F" d="M65.963 48.314c-.5 5.7-5.5 9.9-11.2 9.5-5.7-.5-9.9-5.5-9.4-11.2.5-5.7 5.4-9.9 11.1-9.4 5.7.5 9.9 5.4 9.5 11.1Z"/>
  <path fill="#050505" d="M58.963 63.114c0 .3-2.1.4-4.7.2-2.5-.2-4.6-.7-4.6-1 .1-.4 2.2-.5 4.7-.3 2.6.2 4.6.7 4.6 1.1Z" opacity=".1"/>
  <path fill="#588E3F" d="M62.663 29.114c-.3 3-2.9 5.2-5.9 4.9-3-.2-5.2-2.8-4.9-5.8.2-3 2.8-5.2 5.8-5 3 .3 5.2 2.9 5 5.9Z"/>
  <path fill="#588E3F" d="M64.163 36.814c-.4 4.2-4.1 7.3-8.2 6.9-4.2-.3-7.3-4-6.9-8.2.3-4.1 4-7.2 8.2-6.9 4.1.4 7.2 4.1 6.9 8.2Z"/>
  <path fill="url(#c)" d="M62.963 40.214c.7-1 1.1-2.1 1.2-3.4.2-2.2-.6-4.3-2.1-5.8a4.89 4.89 0 0 0 .6-1.9c.2-3-2-5.6-5-5.9-.6 0-1.167.067-1.7.2 2.1.9 3.5 3 3.3 5.4a4.873 4.873 0 0 1-.6 1.9c1.5 1.5 2.3 3.6 2.1 5.8-.1 1.3-.6 2.4-1.2 3.4 2.1 2.1 3.2 5 3 8.1-.5 5.1-4.6 9.1-9.5 9.5.533.133 1.1.233 1.7.3 5.7.4 10.7-3.8 11.2-9.5.2-3.1-.9-6-3-8.1Z" opacity=".2" style="mix-blend-mode:multiply"/>
  <path stroke="#FEFEFE" stroke-linecap="round" stroke-linejoin="round" stroke-width=".4" d="M47.963 42.814c.9-1.7 2.5-2.9 4.4-3.4m1.3-13.7c.267-.333.567-.6.9-.8m-3.2 7.9c.5-.9 1.3-1.5 2.2-1.9" opacity=".3"/>
  <path fill="#503413" d="m43.163 68.714-2.5-.2.8-9.7 2.5.2-.8 9.7Z"/>
  <path fill="url(#d)" d="m43.163 68.714-1.2-.1.8-9.7 1.2.1-.8 9.7Z" opacity=".2" style="mix-blend-mode:multiply"/>
  <path fill="#588E3F" d="M52.163 55.914c-.4 5-4.8 8.8-9.9 8.3-5-.4-8.8-4.8-8.3-9.9.4-5 4.8-8.8 9.9-8.3 5 .4 8.8 4.8 8.3 9.9Z"/>
  <path fill="#050505" d="M46.063 69.014c-.1.3-1.9.4-4.2.2-2.3-.2-4.1-.6-4-.9 0-.4 1.8-.5 4.1-.3s4.1.6 4.1 1Z" opacity=".1"/>
  <path fill="#588E3F" d="M49.263 38.814c-.2 2.7-2.5 4.6-5.2 4.4-2.6-.2-4.6-2.6-4.4-5.2.3-2.7 2.6-4.6 5.2-4.4 2.7.2 4.6 2.6 4.4 5.2Z"/>
  <path fill="#588E3F" d="M50.663 45.714c-.4 3.7-3.6 6.4-7.3 6.1-3.7-.3-6.5-3.6-6.1-7.3.3-3.7 3.5-6.4 7.2-6.1 3.7.3 6.5 3.6 6.2 7.3Z"/>
  <path fill="url(#e)" d="M49.563 48.714c.6-.9 1-1.9 1.1-3 .1-2-.6-3.9-1.8-5.2.2-.534.333-1.1.4-1.7.2-2.6-1.7-5-4.4-5.2a3.727 3.727 0 0 0-1.5.1c1.9.8 3.1 2.7 2.9 4.8-.067.666-.233 1.233-.5 1.7 1.3 1.4 2 3.2 1.8 5.2-.1 1.1-.4 2.1-1 3 1.8 1.9 2.9 4.5 2.6 7.2-.4 4.6-4 8-8.4 8.4.533.133 1.033.2 1.5.2 5.1.5 9.5-3.3 9.9-8.3.3-2.8-.7-5.4-2.6-7.2Z" opacity=".2" style="mix-blend-mode:multiply"/>
  <path stroke="#FEFEFE" stroke-linecap="round" stroke-linejoin="round" stroke-width=".4" d="M36.263 51.014c.8-1.5 2.3-2.6 3.9-3.1m1.1-12.1c.267-.267.567-.5.9-.7m-2.9 7c.5-.8 1.2-1.4 2-1.7" opacity=".3"/>
  <path fill="#503413" d="m11.763 35.114-2.5-.2.8-9.7 2.5.2-.8 9.7Z"/>
  <path fill="url(#f)" d="m11.763 35.114-1.2-.1.8-9.7 1.2.1-.8 9.7Z" opacity=".2" style="mix-blend-mode:multiply"/>
  <path fill="#588E3F" d="M20.763 22.314c-.4 5-4.8 8.8-9.9 8.4-5-.5-8.8-4.9-8.3-10 .4-5 4.8-8.7 9.9-8.3 5 .4 8.8 4.9 8.3 9.9Z"/>
  <path fill="#050505" d="M14.663 35.413c-.1.3-1.9.4-4.2.2-2.3-.2-4.1-.6-4.1-.9.1-.3 1.9-.4 4.2-.3 2.3.2 4.1.7 4.1 1Z" opacity=".1"/>
  <path fill="#588E3F" d="M17.863 5.214c-.2 2.7-2.5 4.6-5.2 4.4-2.6-.2-4.6-2.5-4.4-5.2.2-2.6 2.6-4.6 5.2-4.4 2.7.2 4.6 2.6 4.4 5.2Z"/>
  <path fill="#588E3F" d="M19.163 12.114c-.3 3.7-3.5 6.4-7.2 6.1-3.7-.3-6.5-3.6-6.2-7.3.4-3.7 3.6-6.4 7.3-6.1 3.7.3 6.5 3.6 6.1 7.3Z"/>
  <path fill="url(#g)" d="M18.163 15.114c.6-.9 1-1.9 1-3 .2-2-.5-3.8-1.8-5.2.267-.534.433-1.1.5-1.7.2-2.6-1.7-5-4.4-5.2-.533 0-1.033.033-1.5.1 1.8.8 3.1 2.7 2.9 4.9a5.009 5.009 0 0 1-.5 1.7c1.3 1.3 2 3.1 1.8 5.1-.1 1.1-.4 2.2-1 3 1.8 1.9 2.8 4.5 2.6 7.2-.4 4.6-4 8.1-8.4 8.4a10 10 0 0 0 1.5.3c5.1.4 9.5-3.4 9.9-8.4.3-2.8-.8-5.4-2.6-7.2Z" opacity=".2" style="mix-blend-mode:multiply"/>
  <path stroke="#FEFEFE" stroke-linecap="round" stroke-linejoin="round" stroke-width=".4" d="M4.863 17.414c.8-1.5 2.2-2.6 3.9-3m1.1-12.2c.267-.267.567-.5.9-.7m-2.9 6.999c.5-.8 1.2-1.3 2-1.7" opacity=".3"/>
  <path fill="#050505" d="m27.063 18.514.1-.8c.067-.267.1-.5.1-.7.067-.2.2-.5.4-.9.133-.4.333-.734.6-1 .267-.267.667-.5 1.2-.7.533-.134 1.133-.167 1.8-.1 1.5.2 2.5.8 2.9 1.5.267.266.433.633.5 1.1.067.4.1.733.1 1v.8c-.133.8-.533 1.6-1.2 2.4-.667.8-1.367 1.5-2.1 2.1l2.8.3-.4 3-7.4-.9.3-2.7c2.1-1.4 3.5-2.5 4.1-3.2.267-.4.433-.667.5-.8l.2-.6c0-.4 0-.6-.1-.8-.133-.134-.267-.2-.4-.2-.5-.1-.6.2-.7.9l-.1.7-3.2-.4Z"/>
  <path fill="#050505" fill-rule="evenodd" d="m35.563 26.713 2.6-3.2c-1.8-.467-2.533-1.967-2.2-4.5.133-1.133.6-2.066 1.4-2.8.867-.666 1.9-.933 3.1-.8 1.2.133 2.133.634 2.8 1.5.6.867.833 1.9.7 3.1-.133.867-.533 1.733-1.2 2.6l-3.7 4.5-3.5-.4Zm4.2-5.9c.6.067.933-.3 1-1.1.067-.8-.167-1.233-.7-1.3-.533-.067-.834.3-.9 1.1-.133.8.067 1.233.6 1.3Z" clip-rule="evenodd"/>
  <path fill="#FEFEFE" d="m28.563 17.314.1-.8c0-.267.033-.5.1-.7l.3-.9c.2-.4.433-.733.7-1 .267-.267.667-.5 1.2-.7.533-.133 1.133-.167 1.8-.1 1.5.2 2.5.8 2.9 1.5.2.266.367.633.5 1.1.067.467.1.8.1 1 0 .2-.033.433-.1.7v.1c-.067.8-.433 1.6-1.1 2.4-.667.8-1.4 1.5-2.2 2.1l2.9.3-.4 3-7.4-.9.3-2.7c2.1-1.4 3.5-2.5 4-3.2.267-.4.467-.667.6-.8.066-.2.1-.4.1-.6.1-.4.1-.6-.1-.8-.067-.134-.2-.2-.4-.2-.4-.1-.6.2-.6.9l-.1.7-3.2-.4Z"/>
  <path fill="#FEFEFE" fill-rule="evenodd" d="m37.063 25.514 2.5-3.2c-1.8-.467-2.534-1.967-2.2-4.5.133-1.134.633-2.067 1.5-2.8.8-.667 1.8-.933 3-.8 1.267.133 2.2.633 2.8 1.5.667.867.933 1.9.8 3.1-.133.866-.533 1.733-1.2 2.6l-3.7 4.5-3.5-.4Zm4.2-5.9c.533.067.833-.3.9-1.1.133-.733-.067-1.133-.6-1.2-.533-.067-.867.267-1 1-.067.8.167 1.233.7 1.3Z" clip-rule="evenodd"/>
  <path fill="#6A4C9E" d="m45.463 53.814-42.1-5 1.1-5 41.5 4.9-.5 5.1Z"/>
  <path fill="#FEFEFE" fill-rule="evenodd" d="M18.763 34.314c1 .1 2.1.3 1.1 3.6-.8 3-1.8 3-3.4 2.8l-.5-.1 1.8-6.4 1 .1Zm-.3.7-1.4 5c1.3.2 1.7-1.1 2-2.2.3-1 .9-2.7-.6-2.8Z" clip-rule="evenodd"/>
  <path fill="#FEFEFE" d="m20.463 41.214-.8-.1 1.8-6.5.9.1-1.9 6.5Zm1.4-6.8-.3-.3 1-1.2.5.4-1.2 1.1Z"/>
  <path fill="#FEFEFE" fill-rule="evenodd" d="m24.763 35.014-.5 6.7-.9-.1.2-1.3-1.3-.2-.6 1.3-.8-.1 3.2-6.4.7.1Zm-1 3.7.3-2.4-1.5 3.2 1.1.1.1-.9Zm5.1-3.1c1 .1 2.2.3 1.2 3.6-.8 3-1.9 3-3.4 2.8l-.6-.1 1.9-6.5.9.2Zm-.3.8-1.5 5c1.4.2 1.8-1.2 2.1-2.3.3-1 .8-2.7-.6-2.7Z" clip-rule="evenodd"/>
  <path fill="#FEFEFE" d="m33.963 36.214-.2.7-1.4-.1-.6 2 1.2.2-.2.7-1.2-.2-.7 2.2 1.5.2-.3.8-2.2-.3 1.8-6.5 2.3.3Zm1.3.2-1.7 5.7 1.5.2-.3.7-2.2-.3 1.8-6.5.9.2Z"/>
  <path fill="#FEFEFE" fill-rule="evenodd" d="m11.863 43.114.9 8.3-2.6-.3-.1-.8-2.5-.3-.5.8-2.5-.3 4.9-7.7 2.4.3Zm-3 4.8 1.1.1-.1-1.7-1 1.6Zm3.1-5.5-2.3-.3 1.6-2 2.6.3-1.9 2Zm8.5 9.9-2.8-.4-1.2-2.1-.2-.1-.5 2-2.3-.2 2-8 3.2.3c.1 0 .2 0 .6.2.4.1.8.2 1.2.6.4.4.6.8.7 1.5 0 .334-.033.7-.1 1.1-.267 1.134-.9 1.9-1.9 2.3l1.3 2.8Zm-3.3-6.3-.4 1.5.9.1c.466.067.767-.133.9-.6.1-.5-.1-.8-.5-.9l-.9-.1Zm4 6.301 2-8 3.4.4h.3a3.1 3.1 0 0 0 .6.2c.267.133.5.266.7.4.2.2.366.466.5.8.067.266.067.633 0 1.1-.134.6-.467 1.1-1 1.5.466.466.6 1.066.4 1.8-.4 1.666-1.667 2.4-3.8 2.2l-3.1-.4Zm2.9-2 1 .1c.333 0 .533-.134.6-.4.1-.3-.1-.4-.4-.5l-1-.1-.2.9Zm.7-2.6.9.1c.2 0 .4-.1.5-.4 0-.3-.1-.5-.3-.5l-.9-.1-.2.9Zm9.5-2.3c1.2.133 2.1.633 2.7 1.5.533.866.666 1.9.4 3.1-.267 1.133-.9 2.066-1.9 2.8-1 .733-2.1 1.033-3.3.9-1.133-.134-2-.634-2.6-1.5-.6-.934-.733-1.967-.4-3.1.267-1.2.9-2.134 1.9-2.8 1-.734 2.067-1.034 3.2-.9Zm-1.5 6c.467.066.9-.067 1.3-.4a2.22 2.22 0 0 0 .9-1.3c.133-.534.067-1-.2-1.4-.2-.4-.533-.634-1-.7-.533 0-1 .133-1.4.4-.4.333-.667.766-.8 1.3-.133.533-.1 1 .1 1.4.267.4.633.633 1.1.7Z" clip-rule="evenodd"/>
  <path fill="#FEFEFE" d="m41.863 46.314-1.5 5.8 3.3.3-.5 2.3-5.7-.6 2-8 2.4.2Z"/>
  <path fill="#68B044" d="M26.563 65.114c2-.6 3.5-1.6 3.9-1.8.1 0 .1-.1 0-.1-.4 0-1.9.1-3.6.5 1.3-1.2 2.1-2.3 2.3-2.7 0-.1.1 0 0 0-.4.1-1.5.7-2.8 1.6.6-1.5.9-2.8 1-3.2h-.1c-.3.3-1.1 1.3-2 2.7 0-1.7-.2-3-.3-3.4-.2.4-.6 1.6-.8 3.2-.6-1.5-1.4-2.6-1.6-3v.1c0 .4.1 1.8.5 3.4-1.2-1.2-2.3-2-2.6-2.2 0 0-.1 0 0 .1.1.3.8 1.7 1.8 3.1-1.6-.8-3.1-1.1-3.5-1.2v.1c.3.3 1.7 1.5 3.5 2.4"/>
  <path fill="url(#h)" d="M27.963 62.614c0-.067-.034-.1-.1-.1-.2-.2-.433-.334-.7-.4h-.1c-.267.2-.5.366-.7.5.067-.134.133-.3.2-.5-.333 0-.667.1-1 .3-.4.2-.8.6-1.3.7h-.5c-.133 0-.3-.034-.5-.1-.3 0-.6-.1-.9 0-.067 0-.167.033-.3.1.067.066.133.167.2.3l-.4-.2c-.2.1-.5.4-.7.6-.067 0-.167.033-.3.1l1.4.8 4.3.4c2-.6 3.5-1.6 3.9-1.8.1 0 .1-.1 0-.1-.4 0-1.9.1-3.6.5l1.1-1.1Z" style="mix-blend-mode:multiply"/>
  <g opacity=".1" style="mix-blend-mode:multiply">
    <path fill="url(#i)" d="M22.963 62.414c-.067-.067-.1-.133-.1-.2-.8-.8-1.7-1.5-2.1-1.8.4.4 1.3 1.1 2.2 2Z"/>
    <path fill="url(#j)" d="M25.963 62.614c.2-.133.367-.267.5-.4.6-1.3.8-2.4.9-2.8h-.1a6.04 6.04 0 0 0-.4.5c-.1.6-.4 1.6-.9 2.7Z"/>
    <path fill="url(#k)" d="M22.163 63.414v-.1c-.6-.267-1.133-.467-1.6-.6.467.133 1 .367 1.6.7Z"/>
    <path fill="url(#l)" d="M26.463 63.714c.2-.067.4-.1.6-.1 1.1-1.2 1.9-2.3 2.1-2.6 0-.1.1 0 0 0-.134 0-.367.1-.7.3-.3.5-1 1.5-2 2.4Z"/>
    <path fill="url(#m)" d="M18.763 62.214v.1c.2.2.8.7 1.7 1.3-.9-.6-1.5-1.3-1.7-1.4Z"/>
    <path fill="url(#n)" d="M29.863 63.214c-.4.3-1.8 1.3-3.6 1.9h.3c2-.6 3.5-1.6 3.9-1.8.1 0 .1-.1 0-.1h-.6Z"/>
    <path fill="url(#o)" d="M24.963 62.114c.133-.2.233-.367.3-.5 0-1.4-.2-2.5-.3-2.9-.067.067-.1.2-.1.4 0 .5.2 1.7.1 3Z"/>
    <path fill="url(#p)" d="M20.363 60.214s.1.2.3.7c-.134-.4-.233-.633-.3-.7Z"/>
    <path fill="url(#q)" d="M23.963 61.914v-.4c-.6-1.3-1.2-2.3-1.4-2.6v.1c.2.4.8 1.5 1.4 2.9Z"/>
  </g>
  <path fill="#DEECC1" d="M23.263 61.114h-.1c-.067-.2-.1-.367-.1-.5l-.2-.4c0-.067.033-.1.1-.1v.1c.067.133.1.233.1.3.067.2.133.366.2.5v.1Zm-.5-1.3v-.2l.1.2h-.1Zm-.9 2h-.1v-.1h.1v.1Zm-.4-.3-.2-.3c0-.067 0-.067 0 0l.2.2c.067 0 .067.033 0 .1Zm3.3-.001h-.1v-.1c0-.066.033-.1.1-.1v.2Zm0-.599v-.7c0-.067.033-.1.1-.1v.8h-.1Z" opacity=".2"/>
  <defs>
    <linearGradient id="b" x1="55.263" x2="56.663" y1="51.714" y2="51.814" gradientUnits="userSpaceOnUse">
      <stop stop-color="#fff"/>
      <stop offset=".996" stop-color="#24134F"/>
    </linearGradient>
    <linearGradient id="c" x1="55.963" x2="67.963" y1="23.114" y2="24.114" gradientUnits="userSpaceOnUse">
      <stop stop-color="#fff"/>
      <stop offset="1" stop-color="#22474F"/>
    </linearGradient>
    <linearGradient id="d" x1="42.763" x2="43.963" y1="58.914" y2="59.014" gradientUnits="userSpaceOnUse">
      <stop stop-color="#fff"/>
      <stop offset=".996" stop-color="#24134F"/>
    </linearGradient>
    <linearGradient id="e" x1="43.363" x2="54.063" y1="33.514" y2="34.414" gradientUnits="userSpaceOnUse">
      <stop stop-color="#fff"/>
      <stop offset="1" stop-color="#22474F"/>
    </linearGradient>
    <linearGradient id="f" x1="11.363" x2="12.563" y1="25.314" y2="25.413" gradientUnits="userSpaceOnUse">
      <stop stop-color="#fff"/>
      <stop offset=".996" stop-color="#24134F"/>
    </linearGradient>
    <linearGradient id="g" x1="11.963" x2="22.663" y1="-.086" y2=".814" gradientUnits="userSpaceOnUse">
      <stop stop-color="#fff"/>
      <stop offset="1" stop-color="#22474F"/>
    </linearGradient>
    <linearGradient id="h" x1="23.963" x2="30.263" y1="59.214" y2="66.714" gradientUnits="userSpaceOnUse">
      <stop stop-color="#fff"/>
      <stop offset="1" stop-color="#22474F"/>
    </linearGradient>
    <linearGradient id="i" x1="20.763" x2="23.063" y1="60.414" y2="60.614" gradientUnits="userSpaceOnUse">
      <stop stop-color="#fff"/>
      <stop offset="1" stop-color="#22474F"/>
    </linearGradient>
    <linearGradient id="j" x1="26.263" x2="27.363" y1="59.314" y2="59.414" gradientUnits="userSpaceOnUse">
      <stop stop-color="#fff"/>
      <stop offset="1" stop-color="#22474F"/>
    </linearGradient>
    <linearGradient id="k" x1="20.563" x2="22.263" y1="62.714" y2="62.814" gradientUnits="userSpaceOnUse">
      <stop stop-color="#fff"/>
      <stop offset="1" stop-color="#22474F"/>
    </linearGradient>
    <linearGradient id="l" x1="26.663" x2="29.163" y1="60.714" y2="61.014" gradientUnits="userSpaceOnUse">
      <stop stop-color="#fff"/>
      <stop offset="1" stop-color="#22474F"/>
    </linearGradient>
    <linearGradient id="m" x1="18.763" x2="20.563" y1="62.214" y2="62.414" gradientUnits="userSpaceOnUse">
      <stop stop-color="#fff"/>
      <stop offset="1" stop-color="#22474F"/>
    </linearGradient>
    <linearGradient id="n" x1="26.363" x2="30.563" y1="62.914" y2="63.214" gradientUnits="userSpaceOnUse">
      <stop stop-color="#fff"/>
      <stop offset="1" stop-color="#22474F"/>
    </linearGradient>
    <linearGradient id="o" x1="24.863" x2="25.563" y1="58.714" y2="58.814" gradientUnits="userSpaceOnUse">
      <stop stop-color="#fff"/>
      <stop offset="1" stop-color="#22474F"/>
    </linearGradient>
    <linearGradient id="p" x1="20.363" x2="20.763" y1="60.214" y2="60.214" gradientUnits="userSpaceOnUse">
      <stop stop-color="#fff"/>
      <stop offset="1" stop-color="#22474F"/>
    </linearGradient>
    <linearGradient id="q" x1="22.563" x2="24.163" y1="58.914" y2="59.114" gradientUnits="userSpaceOnUse">
      <stop stop-color="#fff"/>
      <stop offset="1" stop-color="#22474F"/>
    </linearGradient>
  </defs>
</svg>
