<svg xmlns="http://www.w3.org/2000/svg" width="97" height="87" fill="none" viewBox="0 0 97 87">
  <path fill="#F9A419" d="m73.51 77.7-62.8-1.9.5-75.8 62.8 1.4-.5 76.3Z"/>
  <path fill="#B76B28" d="m79.91 86.5.3-76.1-6.2-9-.5 76.3-62.9-1.9 69.3 10.7Z"/>
  <mask id="a" width="97" height="18" x="0" y="69" maskUnits="userSpaceOnUse" style="mask-type:luminance">
    <path fill="#fff" d="m0 69.76 88.72 4.83 7.45 12.34-81.25-1.99L0 69.76Z"/>
  </mask>
  <g mask="url(#a)">
    <path fill="#D38429" d="m146.71 260.7-136-184.9 62.8 1.9 66.8 92.6 6.4 90.4Z"/>
    <mask id="b" width="121" height="103" x="10" y="75" maskUnits="userSpaceOnUse" style="mask-type:luminance">
      <path fill="#fff" d="m130.47 156.31-45.04 21.28L10.61 75.8l62.92 1.86 56.94 78.65Z"/>
    </mask>
    <g mask="url(#b)">
      <path stroke="#F9A419" stroke-width=".4" d="m8.41 27.5 93.7 133.8M7.71 31.8l93.7 133.7M7.81 37.7l85.9 122.8M8.51 43.7l85.9 122.8M9.11 49.7l77.7 111.1M9.51 55.6l78 111.2M10.21 61.6l77.7 111.2m-77-105.2 77.8 110.6M11.21 73.6l79 111.3M11.91 79.6l74.7 109.7M45.51 60l71.2 101.5m-70.6-95.4 63.6 89.701M46.81 72.1l63.1 89.001M43.61 72.7l57.5 81.7m-43.1-95.5 72.8 101.6M62.51 58.7l71.2 101.6M59.11 65l63.6 89.8M59.81 71l62.5 89m-65.4-88.3 57.5 81.6"/>
    </g>
  </g>
  <path fill="#15132A" fill-rule="evenodd" d="M57.91 53.6c.1-1.9.2-3.8.4-5.6.1-2.5.4-4.6.9-6.1-1.9-1.9-6.2-6.5-8.5-8.9-.1.3-.2.4-.2.5h-.2l-.5-.5c-.067-.067-.1-.133-.1-.2l.2-.6c-.3-.4-.5-.6-.6-.7v-.1c0-.1.2-.4.5-.9-.5-.5-.6-1-.5-1.3a1.567 1.567 0 0 0-.4-.3c-.3-.3-.6-.5-.7-.7-.3-.2-.3-.5-.1-.8a.887.887 0 0 1 .4-.1c0-.067-.033-.1-.1-.1-.2-.2-.2-.6 0-.8.133-.133.267-.2.4-.2-.1-.2-.1-.5.1-.7.067-.133.2-.2.4-.2l-.1-.1c0-.2.067-.367.2-.5.2-.2.6-.2.9 0 .1.1.9.5 1.8 1.8l.1.1c.333.4.567.767.7 1.1v.1c.067 0 .1.034.1.1.2-.2.4-.3.4-.3h.1c.1.1 1.6 1.7 3.4 3.6.4-.2.8-.666 1.2-1.4v-.2c0-.4.033-.8.1-1.2-.4 0-.633-.033-.7-.1h-.1v-.1c.067-.2.133-.5.2-.9.6-2.4 2-8 7-8.9 4-.8 7 0 8.7.9h.1c1 .3 1.5.7 1.6.9.133.067.233.134.3.2.3 0 .4.1.4.3a.654.654 0 0 1 .3.3c.4 0 1.2 0 2.2.5 2.2 1 1.5 5.9 1.4 6.9 0 .067-.033.134-.1.2 0 .6-.1 1-.1 1.1l-.1.1v.3c-.3 1.7-.5 2.7-.2 3.1.3.4 1 .5 2.2.5.067 0 .1.033.1.1v.1s-.9 1.7-2.9 1.7c-.4 0-.867-.133-1.4-.4a6.518 6.518 0 0 1-.7-.4c-.2.334-.4.633-.6.9a14.01 14.01 0 0 1-1.3 1.5l.6.2c.267.133.533.333.8.6.267.133.467.3.6.5.333.333.633.767.9 1.3.3.8 1.7 9.2 2.4 13.2.3-.1.4-.2.4-.2.067-.066.133-.066.2 0v.1l.2.7c0 .067-.033.1-.1.1 0 0-.2.3-.5.5.1.4.1.8.1.8v.2c-.067 0-.167.033-.3.1.067.2.1.433.1.7.2 1.3-.1 1.8-.2 1.9-.133.267-.3.434-.5.5l-.1.3c-.1.2-.2.5-.5.4h-.1c-.067.067-.1.133-.1.2-.133.267-.3.4-.5.4h-.1c-.067 0-.1-.033-.1-.1-.067.2-.167.333-.3.4-.2 2.1-.3 3.3-.7 4.2 0 .3-.1.4-.2.5-.2.4-2.7.7-4.3.9l-.3 2.3c.3.3.3.7.3.7l-.8 5.5c3.3.3 5.6.7 5.6 1.1 0 .6-4.9.9-11 .6-6.1-.2-11-.8-11-1.3.1-.4 1.8-.6 4.4-.7.7-1.1.5-2.2.5-2.2l.2-3.9c0-.1-.1-.2 0-.4.067-.066.133-.1.2-.1v-2.1c-1.2-.3-2.2-.9-2.4-2.1 0 0-.1-2.1-.1-5-.067.067-.133.1-.2.1m8.3 15.7c.6-1 .5-1.9.5-2l.1-3.9c0-.1 0-.2.1-.4l.1-.1v-1.6h-1l-.2 1.9c.2.3.2.6.2.7l-.8 5.4h1Z" clip-rule="evenodd" opacity=".2"/>
  <path fill="#AB7C4D" d="m64.71 69.3-4.7-.3v-7l5.5.8-.8 6.5Z"/>
  <path fill="#050505" fill-rule="evenodd" d="m59.81 69.1.1-7.3 5.7.9-.8 6.7-5-.3Zm.3-6.9v6.6l4.5.3.7-6.2-5.2-.7Z" clip-rule="evenodd"/>
  <path fill="#492817" d="M62.31 66.9c-2.9-.1-2.5.8-2.5.8l-.2 3.9s.3 1.7-1.4 3.2l4.2.2.7-1.4.3 1.4h.8l.9-6.7s.2-1.4-2.8-1.4Z"/>
  <path fill="#090607" fill-rule="evenodd" d="m63.31 75.1-.2-1.1-.5 1c-.067.066-.133.1-.2.1l-4.2-.1-.1-.1c0-.067.033-.134.1-.2 1.5-1.4 1.3-3.1 1.3-3.1l.1-3.9c0-.1 0-.2.1-.4.267-.4 1.133-.6 2.6-.6 1.267.066 2.133.333 2.6.8.4.4.4.8.3.8l-.9 6.7c0 .133-.033.2-.1.2h-.8c-.067 0-.1-.034-.1-.1Zm1.7-6.8s0-.3-.3-.6-.9-.7-2.4-.7c-1.9 0-2.3.3-2.4.4v.3l-.2 3.9c.1.3.1 1.7-1.1 3.1l3.8.1.6-1.3c0-.067.033-.067.1 0 .067 0 .1.033.1.1l.4 1.3h.4l1-6.6Z" clip-rule="evenodd"/>
  <path fill="#AB7C4D" d="m71.11 69.5-4.7-.3v-7l5.5.8-.8 6.5Z"/>
  <path fill="#050505" fill-rule="evenodd" d="M66.31 69.3v-7.2l5.8.8-.8 6.7-5-.3Zm.3-6.9-.1 6.7 4.5.2.7-6.2-5.1-.7Z" clip-rule="evenodd"/>
  <path fill="#552F19" d="M68.81 67.1c-3-.1-2.6.8-2.6.8l-.1 3.9h-.1s.3 1.7-1.3 3.2l4.2.2.7-1.4.3 1.5.7-.1 1-6.7s.1-1.4-2.8-1.4Z"/>
  <path fill="#090607" fill-rule="evenodd" d="m69.81 75.3-.3-1.1-.5 1c0 .067-.033.1-.1.1l-4.2-.1c-.067 0-.1-.033-.1-.1-.067-.066-.067-.133 0-.2 1.5-1.4 1.3-3.1 1.3-3.1l.2-3.9c0-.1-.1-.2 0-.4.267-.4 1.167-.6 2.7-.6 1.267.067 2.133.367 2.6.9.3.4.3.7.3.8l-1 6.7c0 .067-.033.1-.1.1h-.7c-.067 0-.1-.033-.1-.1Zm1.6-6.8s0-.3-.2-.6c-.3-.3-1-.7-2.4-.7-1.9 0-2.3.3-2.4.5-.1 0-.1.1-.1.1.067 0 .1.034.1.1l-.2 3.9c0 .3.1 1.8-1.2 3.1l3.8.1.6-1.3h.2c.067 0 .1.034.1.1l.3 1.3h.5l.9-6.6Z" clip-rule="evenodd"/>
  <path fill="#BB8553" d="M49.01 29c-.1.2-.3.9.6 1.6 1 .7 1.3.6 1.8.5.5-.1 1.2-1.5 1.2-1.5s.4-1.1-1-3c0 0-.7-.8-.9-.5-.1.2-1.5 2.1-1.7 2.3-.2.3.1.4 0 .6Z"/>
  <path fill="#050505" fill-rule="evenodd" d="M49.61 30.7c-1-.7-.8-1.5-.7-1.7v-.2c-.1-.1-.1-.3 0-.5.2-.1 1.6-2 1.7-2.3.067-.067.133-.1.2-.1.3 0 .8.5.9.7 1.5 1.8 1 3 1 3.1-.1.1-.7 1.4-1.2 1.5-.2.066-.4.1-.6.1-.3 0-.7-.2-1.3-.6Zm1.9-4c-.2-.3-.5-.5-.6-.5-.2.2-1.5 2.1-1.8 2.3v.2c.1.1.1.2 0 .4 0 .2-.2.8.6 1.4.9.6 1.3.6 1.7.5.3-.1.8-.9 1-1.4.1-.1.4-1.2-.9-2.9Z" clip-rule="evenodd"/>
  <path fill="#BB8553" d="M49.51 28.3c-.8-.7-1.1-.8-1.1-.8-.2-.2-.5-.2-.6 0-.2.2-.2.5 0 .6.3.4 1 .9 1.4 1.2"/>
  <path fill="#050505" d="m49.21 29.5.1-.1v-.2c-.2-.2-.5-.4-.7-.6-.3-.2-.5-.4-.7-.6-.1-.1-.1-.3 0-.4.133-.133.267-.133.4 0h.1s.3.1 1 .8h.2v-.2c-.7-.6-1-.8-1.1-.8-.3-.2-.6-.2-.8 0-.2.3-.2.6 0 .8l.7.7c.2.1.5.4.7.5 0 .067.033.1.1.1Z"/>
  <path fill="#BB8553" d="M50.11 27.6c-.6-.7-1.4-1.1-1.4-1.1-.2-.2-.5-.2-.6 0-.2.2-.2.4 0 .6.1.2.2.1.6.4 0 0 .4.3.7.8"/>
  <path fill="#050505" d="M49.41 28.4h.1c.1-.1.1-.2 0-.2-.3-.5-.7-.8-.8-.8-.1-.1-.2-.2-.3-.2-.1-.1-.2-.1-.2-.2-.1-.1-.2-.3 0-.4.133-.133.267-.133.4 0 0 0 .8.5 1.4 1.1h.2c.1-.1.1-.1 0-.2-.6-.6-1.3-1.1-1.4-1.2-.3-.2-.6-.1-.8.1-.3.2-.2.6 0 .8l.2.2c.1 0 .2.1.4.3 0 0 .4.3.7.6l.1.1Z"/>
  <path fill="#BB8553" d="M49.51 27c-.5-.5-.8-.6-1-.8-.2-.2-.2-.5 0-.6.2-.2.4-.2.6 0 0 0 .8.4 1.4 1.1"/>
  <path fill="#050505" d="M49.51 27.2c.067 0 .1-.033.1-.1.1 0 0-.1 0-.2-.3-.2-.5-.4-.6-.5a2.974 2.974 0 0 1-.4-.3c-.1-.1-.1-.3 0-.4.133-.133.3-.133.5 0 0 0 .7.4 1.3 1.1h.2c.1-.1.1-.2 0-.2-.6-.7-1.3-1.1-1.4-1.2-.2-.2-.6-.2-.8.1-.2.2-.2.5 0 .8.1.1.2.2.4.3.2.1.3.3.6.5 0 .067.033.1.1.1Z"/>
  <path fill="#BB8553" d="M52.31 27.8c-1.2-2.3-2.5-3-2.5-3-.2-.1-.6-.1-.7 0-.2.2-.2.5-.1.6.7.6 1.6 1.4 1.6 1.6"/>
  <path fill="#050505" d="M52.31 27.9h.1c.1 0 .1-.1.1-.2-1.3-2.2-2.5-3-2.6-3-.3-.2-.7-.2-.9 0a.68.68 0 0 0-.2.5c0 .133.067.233.2.3a.654.654 0 0 0 .3.3c.4.4 1.1 1 1.1 1.2.067.067.133.1.2.1.1 0 .1-.1.1-.1 0-.2-.4-.6-1.2-1.4a1.567 1.567 0 0 1-.4-.3v-.4c.2-.1.4-.1.6 0 0 0 1.3.8 2.5 3h.1Z"/>
  <g opacity=".2">
    <path fill="#050505" d="M50.91 27s-.2-.5-.6-.9c-.3-.3-1.1-1.1-1.3-.8v.2s-.4 0-.5.3c-.1.3.3.7.3.7s-.5-.1-.6.3c0 .3.2.4.2.4s-.3.1-.4.4c-.1.3.1.7.3.9.3.3.8.7.8.7s0-.3.2-.7l.6-.8 1-.7Z"/>
    <path fill="#050505" fill-rule="evenodd" d="M49.01 29.3s-.5-.4-.8-.7c-.3-.2-.4-.7-.3-1.1 0-.2.2-.3.3-.3a.887.887 0 0 1-.1-.4c0-.134.067-.234.2-.3.067-.067.167-.1.3-.1-.2-.2-.3-.5-.2-.7.1-.2.3-.3.5-.3v-.2c.067-.067.133-.1.2-.1.4 0 .9.5 1.3.9v.1c.4.3.6.8.6.9 0 .066-.033.1-.1.1l-.9.7-.6.8c-.2.3-.2.6-.2.6v.1h-.2Zm1.2-3.1c-.2-.2-.8-.9-1-.8h-.1v.2c0 .066-.033.1-.1.1 0 0-.3 0-.4.2 0 .1.2.4.3.5.067.066.067.1 0 .1 0 .066-.033.1-.1.1-.1 0-.3 0-.4.1v.1c0 .3.1.3.1.3.067.066.067.133 0 .2 0 .066-.033.1-.1.1 0 0-.2 0-.3.2-.1.2.1.6.3.8.2.2.4.4.6.5 0-.134.067-.3.2-.5l.6-.8h.1l.8-.6c-.1-.2-.2-.5-.5-.8Z" clip-rule="evenodd"/>
  </g>
  <path fill="#BB8553" d="M50.21 27.9s-.1-.1-.4-.6c-.3-.3-.4-.4-.5-.7-.1-.3.1-.5.3-.6.267-.067.5.067.7.4.2.3.3.4.6.6 0 0 .4.3.5.1"/>
  <path fill="#050505" d="M50.21 28h.1c.067-.067.067-.134 0-.2 0 0-.1-.1-.4-.6-.066-.067-.133-.1-.2-.1-.2-.3-.2-.3-.3-.5 0-.3.1-.4.3-.4.2-.1.4.1.5.2l.1.1c.1.3.2.5.5.6v.1c.1 0 .5.2.7 0 .1-.1.1-.2 0-.2 0-.1-.1-.1-.2 0 0 0-.2 0-.3-.1-.3-.1-.4-.3-.5-.5l-.1-.1c-.2-.4-.5-.5-.8-.4-.4.1-.5.4-.4.7 0 .3.1.4.3.6.067.066.1.133.1.2.4.5.5.6.5.6h.1Z"/>
  <path fill="#F3F6F7" d="M63.71 41.7c-1 1.5-2.3 1.9-4 .8-.9-.5-10.7-11.1-10.7-11.1s.6-1.3 1.6-2.1c1-.7 2.4-1.6 2.4-1.6s9.2 9.8 9.7 10.3c1.1 1 1.9 2.3 1 3.7Z"/>
  <path fill="#050505" fill-rule="evenodd" d="M59.61 42.6c-.9-.5-10.3-10.7-10.7-11.1-.067-.067-.067-.134 0-.2 0 0 .6-1.3 1.6-2.1 1.1-.7 2.4-1.6 2.4-1.6.067-.067.133-.067.2 0 .1.1 9.2 9.8 9.7 10.3 1.4 1.3 1.8 2.7 1 3.8-.667 1.066-1.467 1.566-2.4 1.5-.533 0-1.133-.2-1.8-.6Zm4-1c.9-1.4 0-2.7-1-3.5-.4-.5-8.7-9.2-9.6-10.2-.4.2-1.4.9-2.3 1.5-.8.6-1.4 1.7-1.6 2 3.4 3.6 9.9 10.6 10.7 11 1.5 1 2.8.7 3.8-.8Z" clip-rule="evenodd"/>
  <path fill="#050505" d="M50.31 30c-.3 1.1 10 11 11 11.6.733.467 1.367.7 1.9.7-.9.9-2.1 1.1-3.5.2-.9-.5-10.1-10.6-10.7-11.1.3-.3.7-.9 1.3-1.4Z" opacity=".2"/>
  <path fill="#F3F6F7" d="M50.81 31s-1 .8-1.1 1.1c-.2.3-.3.7-.3.7l.5.6s.4-.7.7-1.1c.4-.5.8-.6.8-.6"/>
  <path fill="#050505" d="M49.91 33.5c.067 0 .1-.033.1-.1 0 0 .4-.6.7-1 .4-.4.7-.5.7-.5.1-.1.1-.1.1-.2s-.1-.1-.2-.1c0 0-.3.1-.8.6-.2.3-.5.7-.6.9l-.3-.3c0-.1.1-.4.2-.6.1-.2.7-.8 1.1-1.1.1 0 .1-.1 0-.2h-.2c-.1.1-1 .8-1.2 1.1l-.2.8v.1l.5.6h.1Z"/>
  <path fill="#BB8553" d="M60.41 39.3c.1-1.3.8-1.1 1.9-1.3.5-.1.9-.2 1.1-.6.1-.1.5-2.8.7-3.2.8-1.7 2-1 3.8-1.1 1.6-.1 3.2 0 2.7 2-.2.7-1.2 1.9-.9 2.8.3.7 1 .3 1.8.5 3.5.9-1.2 4.4-2.5 5.3-1.7 1.1-5.6 3.3-7.4 2.5-2-.8-1.4-5-1.2-6.9Z"/>
  <path fill="#050505" fill-rule="evenodd" d="M61.51 46.3c-1.9-.8-1.5-4.4-1.3-6.5v-.5c.1-1.2.7-1.2 1.5-1.3.2-.067.4-.1.6-.1.5-.1.8-.3 1-.5 0-.1.1-.7.2-1.2.2-1 .3-1.9.5-2.1.6-1.3 1.4-1.2 2.5-1.1h1.4c1-.1 2.1-.1 2.6.5.333.333.4.867.2 1.6 0 .3-.2.6-.4 1-.3.6-.6 1.2-.4 1.7.1.4.4.4.9.4.2 0 .5 0 .8.1.8.2 1.233.567 1.3 1.1.3 1.6-3.4 4.1-3.8 4.4-.8.5-4.4 2.8-6.7 2.7-.333 0-.633-.067-.9-.2Zm9.3-7.8c-.5 0-1 0-1.2-.6-.2-.6.2-1.3.5-2 .1-.3.3-.6.4-.9.133-.6.067-1.034-.2-1.3-.4-.5-1.4-.5-2.4-.4-.5 0-1 0-1.4-.1-1-.1-1.7-.1-2.3 1-.1.2-.3 1.3-.4 2.1-.2.8-.2 1.1-.3 1.2-.2.4-.7.5-1.2.6-.2.066-.4.1-.6.1-.7.1-1.1.2-1.2 1.2v.4c-.2 2-.6 5.5 1.1 6.3 1.6.7 4.9-1 7.3-2.5 1.5-1 3.9-3 3.7-4.2-.067-.4-.433-.667-1.1-.8-.2-.067-.4-.1-.6-.1h-.1Z" clip-rule="evenodd"/>
  <path fill="#979ABE" d="M68.61 37.6c.8-.4 2.4.2 3 1.2.8 1 .2 2.7 0 3.9-.5 2.4-.3 2.7-.3 3.6-.1.6.1 1.8 0 2.1 0 1-5.4.8-6.3.8-1.7-.1-2.8-.6-4.2-.9-1.6-.3-.7-2-.6-3.5.2-1.7-.1-2.7-.2-4.1-.2-1.5.4-2.5 1.6-2.9 1.5-.5 1 2.1 2 2.4 1.1.2 3.6-2 5-2.6Z"/>
  <path fill="#050505" fill-rule="evenodd" d="M62.01 48.8a7.429 7.429 0 0 0-1.3-.3c-1.3-.3-1.1-1.5-.8-2.7.067-.333.134-.7.2-1.1.1-1.1 0-2-.1-3a5.086 5.086 0 0 1-.1-1c-.2-1.5.4-2.6 1.7-3.1.267-.067.5-.033.7.1.4.2.6.7.7 1.2.2.6.3 1.1.7 1.1.6.2 1.9-.7 3.1-1.5.6-.4 1.2-.8 1.7-1 1-.5 2.6.2 3.2 1.2.7.9.4 2.3.2 3.4-.066.267-.133.5-.2.7-.3 1.7-.3 2.3-.3 2.9v2c.067.333.1.567.1.7 0 .3-.4.8-3 .9h-3.5c-1.2 0-2.1-.3-3-.5Zm6.6-11.1c-.4.2-1 .6-1.7 1-1.2.9-2.6 1.8-3.3 1.6-.5-.1-.7-.7-.9-1.3-.1-.5-.2-.9-.5-1.1-.133-.066-.3-.066-.5 0-1.1.4-1.7 1.4-1.6 2.8.067.333.1.667.1 1 .2 1 .3 1.9.2 3.1-.066.333-.133.7-.2 1.1-.3 1.3-.4 2.1.6 2.3.4.067.8.167 1.2.3 1 .3 1.8.5 3 .5 4.3.2 6.2-.2 6.2-.6v-.6c-.1-.5-.1-1.1-.1-1.5v-.6c0-.6 0-1.2.4-3 0-.2.033-.4.1-.6.2-1.1.5-2.4-.1-3.3-.5-.7-1.5-1.2-2.3-1.2-.2 0-.4.033-.6.1Z" clip-rule="evenodd"/>
  <path fill="#F3F6F7" d="m60.71 46.8.9-8-.6-.3c-.9-.4-2.8 3.3-3 9.5-.6 6.2-.5 14.4-.5 15 .5 1.8 2.6 2.2 4.9 2.4 6.1.7 13.2-.3 13.5-.8.7-1.1.8-3.5 1.1-9.2.1-1.2-1.1-4.2-1-5.1.2-2.9.9-5.8.9-8.3-.1-5.5-4.5-4.8-4.5-4.8l-11.7 9.6Z"/>
  <path fill="#050505" fill-rule="evenodd" d="M62.31 65.6c-2.4-.3-4.4-.7-4.9-2.6 0-.1-.2-8.5.4-15 .2-5.5 1.7-8.9 2.7-9.6.2-.1.4-.1.5-.1v.1l.6.3c.067 0 .1.033.1.1l-.8 7.7 11.4-9.4c.1 0 1.8-.3 3.2.8 1 .867 1.5 2.233 1.5 4.1 0 1.4-.2 2.9-.4 4.4-.2 1.3-.4 2.6-.5 3.9 0 .4.2 1.3.5 2.2.3 1.1.6 2.3.6 2.9-.3 5.8-.5 8.1-1.2 9.3-.2.4-3.2.8-4.7.9-1.3.1-3.5.3-6 .2l-3-.2Zm10.1-28.3-11.6 9.6c-.067.067-.133.067-.2 0v-.1l.8-7.9-.5-.3c-.1 0-.2 0-.2.1-.8.5-2.4 3.7-2.6 9.3-.6 6.3-.4 14.6-.4 15 .4 1.7 2.3 2 4.7 2.3 6.1.7 13-.4 13.4-.7.7-1.1.8-3.6 1.1-9.2 0-.6-.3-1.8-.6-2.8-.2-1-.5-1.9-.4-2.4 0-1.3.2-2.5.4-3.8.3-1.6.5-3 .5-4.4-.067-1.8-.567-3.1-1.5-3.9-.8-.6-1.7-.8-2.3-.8h-.6Z" clip-rule="evenodd"/>
  <mask id="c" width="21" height="29" x="57" y="37" maskUnits="userSpaceOnUse" style="mask-type:luminance">
    <path fill="#fff" d="m62.62 41.64-1.06-2.85-.58-.32c-.82-.33-2.79 3.34-3.01 9.5-.57 6.25-.45 14.39-.43 15.02.45 1.84 2.57 2.17 4.82 2.43 6.12.7 13.28-.34 13.55-.79.7-1.13.85-3.56 1.12-9.19.06-1.22-1.08-4.25-1.02-5.19.15-2.87.93-5.75.89-8.28-.08-5.49-4.54-4.76-4.54-4.76l-9.74 4.43Z"/>
  </mask>
  <g mask="url(#c)">
    <path fill="#F3F6F7" d="M55.61 55.3c-.1 2.1 1.3 2.6 1.3 2.6s1.4.5 1.5-1.7l.1-2.3-2.9-.7v2.1Z"/>
    <path fill="#050505" fill-rule="evenodd" d="M56.81 58s-1.4-.5-1.3-2.7v-2.1l.1-.1 2.9.7.1.1-.1 2.4c-.066.733-.266 1.233-.6 1.5-.3.2-.6.2-.8.2h-.3Zm-1.1-4.6v2c-.1 1.9 1.1 2.4 1.2 2.4 0 0 .5.1.8-.1.334-.267.534-.767.6-1.5V54l-2.6-.6Z" clip-rule="evenodd"/>
    <path fill="#F3F6F7" d="m55.51 54.4 2.9.7-2.9-.7Z"/>
    <path fill="#050505" d="M58.41 55.2c.067 0 .1-.033.1-.1.067-.066.067-.1 0-.1l-2.9-.8c-.066 0-.133.034-.2.1 0 .067.034.134.1.2l2.9.7Z"/>
  </g>
  <path fill="#F3F6F7" d="M65.61 47.4c-.1 1.7 2 1.8 2 1.8s2.2.2 2.3-1.5l.1-1.8-4.4-.2v1.7Z"/>
  <path fill="#050505" fill-rule="evenodd" d="M67.61 49.3s-2.3-.2-2.1-1.9v-1.7c0-.067.033-.1.1-.1l4.4.1c.067 0 .1.033.1.1v.1l-.1 1.8c-.1 1.7-2.2 1.6-2.4 1.6Zm-1.9-3.5v1.6c-.1 1.5 1.8 1.7 1.9 1.7.1 0 2.1.1 2.2-1.4l.1-1.7-4.2-.2Z" clip-rule="evenodd"/>
  <path fill="#F3F6F7" d="m65.51 46.6 4.5.2-4.5-.2Z"/>
  <path fill="#050505" d="M70.01 46.9v-.2l-4.5-.2v.2l4.5.2Z"/>
  <path fill="#F3F6F7" d="M66.41 57.1c.1 2.1 2.8 2.2 2.8 2.2s2.8-.1 2.7-2.2v-2.3l-5.5.2v2.1Z"/>
  <path fill="#050505" fill-rule="evenodd" d="M66.31 57.1V55c0-.066.033-.1.1-.1l5.5-.2h.1v2.4c.1 2.2-2.8 2.3-2.8 2.3h-.1c-.3 0-2.8-.2-2.8-2.3Zm.2-2 .1 2c0 2 2.5 2 2.6 2 0 0 2.6 0 2.6-2v-2.2l-5.3.2Z" clip-rule="evenodd"/>
  <path fill="#F3F6F7" d="m66.31 56.1 5.7-.1-5.7.1Z"/>
  <path fill="#050505" d="m66.31 56.2 5.7-.1v-.2l-5.7.1v.2Z"/>
  <path fill="#050505" fill-rule="evenodd" d="M62.31 65.6c-2.4-.3-4.4-.7-4.9-2.6 0-.1-.2-8.5.4-15 .2-5.5 1.7-8.9 2.7-9.6.2-.1.4-.1.5-.1v.1l.6.3c.067 0 .1.033.1.1l-.8 7.7 11.4-9.4c.1 0 1.8-.3 3.2.8 1 .867 1.5 2.233 1.5 4.1 0 1.4-.2 2.9-.4 4.4-.2 1.3-.4 2.6-.5 3.9 0 .4.2 1.3.5 2.2.3 1.1.6 2.3.6 2.9-.3 5.8-.5 8.1-1.2 9.3-.2.4-3.2.8-4.7.9-1.3.1-3.5.3-6 .2l-3-.2Zm10.1-28.3-11.6 9.6c-.067.067-.133.067-.2 0v-.1l.8-7.9-.5-.3c-.1 0-.2 0-.2.1-.8.5-2.4 3.7-2.6 9.3-.6 6.3-.4 14.6-.4 15 .4 1.7 2.3 2 4.7 2.3 6.1.7 13-.4 13.4-.7.7-1.1.8-3.6 1.1-9.2 0-.6-.3-1.8-.6-2.8-.2-1-.5-1.9-.4-2.4 0-1.3.2-2.5.4-3.8.3-1.6.5-3 .5-4.4-.067-1.8-.567-3.1-1.5-3.9-.8-.6-1.7-.8-2.3-.8h-.6Z" clip-rule="evenodd"/>
  <path fill="#050505" d="M59.51 64.8c.1 0 .1 0 .1-.1 0 0 .1-1.1.2-2.9a6.7 6.7 0 0 0-.1-1.1v-1.6l.2-1.4c.067-.467.1-.933.1-1.4.067-.4.1-.8.1-1.2a4.242 4.242 0 0 1 0-1.3c0-.466.034-.933.1-1.4.067-.4.133-.833.2-1.3V49l.2-.8.2-.8c.267-2.666.6-4.5 1-5.5 0 0 0-.1-.1-.2-.1 0-.1.1-.2.1-.333 1-.666 2.867-1 5.6 0 .2-.066.434-.2.7-.067.267-.1.567-.1.9-.066.334-.066.7 0 1.1 0 .334-.033.667-.1 1 0 .467-.033.9-.1 1.3l-.2 1.4v2.5l-.2 1.4c-.066.467-.1.934-.1 1.4a6.421 6.421 0 0 0 0 1.6v1.1c-.1 1.8-.1 2.9-.1 2.9 0 .1 0 .1.1.1Z"/>
  <path fill="#E6E6E6" d="M61.11 48.8c0 .3.2.5.5.5s.5-.2.5-.5c0-.2-.2-.5-.5-.5-.2 0-.5.2-.5.5Z"/>
  <path fill="#050505" fill-rule="evenodd" d="M61.01 48.8c.1-.3.3-.5.6-.5s.6.2.6.5c-.1.3-.3.6-.6.6s-.6-.3-.6-.6Zm.2 0c0 .2.2.4.4.4s.4-.1.4-.4c0-.2-.2-.4-.4-.4s-.4.2-.4.4Z" clip-rule="evenodd"/>
  <path fill="#E6E6E6" d="M60.91 53.9c-.1.3.1.5.4.5.3 0 .5-.2.5-.5 0-.2-.2-.4-.5-.4-.2-.1-.4.2-.4.4Z"/>
  <path fill="#050505" fill-rule="evenodd" d="M60.81 53.9c0-.3.2-.5.5-.5.4 0 .6.2.6.6 0 .3-.3.5-.6.5s-.5-.3-.5-.6Zm.1 0c0 .2.2.4.4.4s.4-.1.4-.4c0-.2-.1-.4-.4-.4-.2 0-.4.2-.4.4Z" clip-rule="evenodd"/>
  <path fill="#E6E6E6" d="M60.41 59.1c0 .2.2.5.5.5.2 0 .4-.2.5-.5 0-.3-.2-.5-.5-.5s-.5.2-.5.5Z"/>
  <path fill="#050505" fill-rule="evenodd" d="M60.31 59.1c0-.3.3-.6.6-.6s.5.3.5.6-.2.6-.5.5c-.3 0-.6-.2-.6-.5Zm.2 0c0 .2.1.4.4.4.2 0 .4-.2.4-.4s-.2-.4-.4-.4-.4.2-.4.4Z" clip-rule="evenodd"/>
  <g opacity=".2" style="mix-blend-mode:multiply">
    <path fill="#050505" d="M60.51 47.1s0-4.6-.9-5.7c-.3-.4 1.2.1 1.2.1s-1.5-2.2-1.5-2.6c.1-.4 2.3-.5 2.3-.5s.1 1.3 0 3.2c0 1.9-.8 5.1-.8 5.1"/>
    <path fill="#050505" d="M60.51 47.2c.067 0 .1-.033.1-.1 0-.2 0-4.5-.9-5.8.2.1.7.2 1.1.3 0 .067.033.067.1 0v-.1c-.6-.9-1.5-2.4-1.5-2.6 0-.2 1-.4 2.1-.4 0 .3.1 1.5 0 3.1 0 1.9-.8 5-.8 5v.2c.067 0 .133-.033.2-.1 0 0 .8-3.2.8-5.1.1-1.9 0-3.2 0-3.2v-.1h-.1c-.7 0-2.3.2-2.4.6 0 .3.9 1.8 1.4 2.4-1-.3-1.1-.1-1.1-.1s-.1.1 0 .2c.9 1.1.9 5.7.9 5.7 0 .067.034.1.1.1Z"/>
  </g>
  <path fill="#F3F6F7" d="M60.71 46.8s0-4.6-.9-5.8c-.3-.3 1.2.2 1.2.2s-1.5-2.3-1.5-2.6c.1-.4 2.3-.6 2.3-.6s.1 1.3 0 3.3c-.1 1.9-.8 5-.8 5"/>
  <path fill="#050505" d="M60.71 46.9c.067 0 .1-.033.1-.1 0-.2 0-4.5-.9-5.8.2 0 .7.2 1.1.3h.1v-.2c-.7-1.1-1.5-2.3-1.5-2.5.1-.2 1-.4 2.1-.4 0 .3.1 1.5 0 3.1-.1 1.8-.8 5-.8 5-.066.067-.066.1 0 .1.067.067.134.067.2 0 0-.1.8-3.2.8-5.1.1-2 0-3.3 0-3.3 0-.066-.033-.1-.1-.1-.9.1-2.3.2-2.4.6 0 .4.9 1.8 1.3 2.5-.9-.3-1-.2-1-.1-.1 0-.1.1 0 .2.8 1.1.9 5.6.9 5.7 0 .067.034.1.1.1Z"/>
  <g opacity=".1" style="mix-blend-mode:multiply">
    <path fill="#050505" d="M75.31 38.1s1.7 1.6 1.6 3.9c-.1 2.2-1.1 7.1-.9 8.3.2 1.1 1 3.3 1 4.7 0 1.3-.4 9.4-1.1 9.6-.7.3-4.3.8-4.3.8s1.9-2.9 2.1-9.7c0-1.7-.8-2.7-1.1-4.3-.2-1.6.7-3 1.1-4.5.4-1.4.2-2.5-.2-3.9-.533-1.933-1.1-3.833-1.7-5.7l.7-.2s2 .1 2.8 1Z"/>
    <path fill="#050505" fill-rule="evenodd" d="M71.51 65.5v-.1c0-.1 1.9-3 2.1-9.7 0-1-.3-1.7-.6-2.5-.2-.6-.4-1.1-.5-1.8-.1-1.2.3-2.2.6-3.2.2-.467.367-.9.5-1.3.4-1.5.2-2.6-.2-3.9-.5-1.7-1-3.6-1.7-5.6-.066-.066-.066-.133 0-.2l.8-.2c.1 0 2 .1 2.8 1.1.1.1 1.8 1.6 1.7 3.9-.1 1-.3 2.4-.5 3.9-.2 1.8-.5 3.7-.4 4.3.1.4.2 1 .4 1.7.3 1 .6 2.2.6 3.1 0 .6-.1 2.9-.3 5.2-.3 4.3-.7 4.5-.9 4.5-.7.3-4.1.8-4.3.8h-.1Zm.4-28.1c.7 2 1.2 3.8 1.7 5.5.4 1.4.6 2.5.2 4-.133.467-.3.9-.5 1.3-.4 1-.7 2.1-.6 3.1.1.7.3 1.3.5 1.8.3.8.6 1.6.6 2.6-.2 5.8-1.6 8.9-2 9.6.8-.1 3.4-.5 4.1-.8.1 0 .4-.4.7-4.3.2-2.3.3-4.6.3-5.2 0-.9-.3-2-.6-3.1-.2-.6-.3-1.2-.4-1.6-.1-.7.2-2.5.4-4.5.2-1.4.4-2.9.5-3.8.1-2.2-1.6-3.8-1.6-3.8-.7-.8-2.5-1-2.7-1l-.6.2Z" clip-rule="evenodd"/>
  </g>
  <g opacity=".2" style="mix-blend-mode:multiply">
    <path fill="#050505" d="M72.51 37.5s2-.1 2.7 1.1c-3.1.3-7.9 3.4-7.9 3.4s1.8.3 1.5.4c-2.4.9-8.1 4.8-8.1 4.8s1.9-3.2 3.8-4.9c3.3-3.3 8-4.8 8-4.8Z"/>
    <path fill="#050505" fill-rule="evenodd" d="M60.61 47.3v-.1c0-.1 2-3.3 3.8-5 3.4-3.3 8-4.8 8.1-4.8.1 0 2-.1 2.8 1.1.067.067.067.1 0 .1v.1c-2.8.2-6.8 2.6-7.8 3.2 1.4.3 1.4.4 1.4.5 0 0 0 .1-.1.1-2.4.9-8 4.8-8 4.8h-.2Zm6.6-5.2v-.2c.1 0 4.7-3 7.9-3.4-.8-1-2.4-.9-2.6-.9-.2.1-4.7 1.6-8 4.7-1.4 1.4-2.9 3.7-3.5 4.6 1.3-.9 5.5-3.7 7.6-4.5-.3-.1-.8-.2-1.4-.3Z" clip-rule="evenodd"/>
  </g>
  <path fill="#F3F6F7" d="M72.51 37.1s2-.2 2.8 1c-3.2.3-8 3.4-8 3.4s1.8.4 1.5.5c-2.4.9-8.1 4.8-8.1 4.8s1.9-3.2 3.8-5c3.4-3.2 8-4.7 8-4.7Z"/>
  <path fill="#050505" fill-rule="evenodd" d="M60.61 46.9v-.2s2-3.2 3.8-5c3.4-3.2 8-4.7 8.1-4.7v-.1c.1 0 2-.1 2.9 1.2v.1h-.1c-2.7.3-6.7 2.7-7.7 3.3 1.3.3 1.3.4 1.3.4 0 .1 0 .2-.1.2-2.4.9-8 4.7-8 4.8h-.2Zm6.7-5.2-.1-.1v-.1c.2-.2 4.7-3 7.9-3.5-.8-.9-2.4-.8-2.6-.8-.2.1-4.7 1.6-7.9 4.7-1.4 1.4-2.9 3.6-3.5 4.5 1.3-.9 5.4-3.6 7.5-4.4-.3-.1-.9-.3-1.3-.3Z" clip-rule="evenodd"/>
  <path fill="#E6E6E6" d="M61.31 49c0 .3.2.5.4.5.3 0 .5-.2.5-.4 0-.3-.2-.5-.4-.5-.3 0-.5.2-.5.4Zm-.3 5.1c0 .3.2.5.5.5.2 0 .4-.2.5-.4 0-.3-.2-.5-.5-.5s-.5.2-.5.4Z" opacity=".2" style="mix-blend-mode:multiply"/>
  <path fill="#23AAE1" d="M67.81 44.9c-.1.9.6 1.6 1.4 1.7.8 0 1.6-.6 1.6-1.5.1-.8-.5-1.5-1.4-1.6-.8-.1-1.6.6-1.6 1.4Z"/>
  <path fill="#050505" fill-rule="evenodd" d="M69.21 46.6c-.9-.1-1.5-.8-1.5-1.7.1-.4.3-.8.6-1.1.3-.2.7-.4 1.1-.4.9.1 1.5.9 1.5 1.7-.1.9-.8 1.5-1.6 1.5h-.1Zm-.9-2.7c-.3.3-.4.6-.5 1 0 .8.6 1.5 1.4 1.6.8.1 1.5-.6 1.6-1.4 0-.8-.6-1.5-1.4-1.5v-.1c-.4 0-.8.2-1.1.4Z" clip-rule="evenodd"/>
  <path fill="#FEFEFE" d="M68.51 45c0 .4.3.8.8.8.4.1.8-.3.8-.7.1-.5-.3-.9-.7-.9-.5 0-.8.3-.9.8Z"/>
  <path fill="#23AAE1" d="M69.01 45c0 .2.2.3.3.3.2 0 .4-.1.4-.3 0-.2-.2-.3-.3-.3-.2 0-.4.1-.4.3Z"/>
  <path fill="#BB8553" d="M79.31 56.9c.1-1.1-.1-1.9-.6-2.8-.4-.6-1.1-.8-1.7-.8-.3 0-2 0-2 1.6 0 .3.1.8 0 1.2-.1.3-.2.4-.1.9 0 .2.7.5.9.5 0-.2.1-.3.2-.3.3 0 .4.3.3.9 0 .4.3.5.3.5l1.2-.5s1.5-.6 1.5-1.2Z"/>
  <path fill="#050505" fill-rule="evenodd" d="M76.61 58.8c0-.1-.4-.3-.4-.7 0-.5-.1-.7-.1-.7 0-.066-.034-.1-.1-.1v.4h-.2s-1-.4-1-.7c-.1-.4-.1-.6 0-.8v-.1c.1-.3.1-.6.1-.9-.067-.133-.1-.233-.1-.3 0-.466.166-.867.5-1.2.5-.5 1.3-.5 1.7-.5.8 0 1.4.3 1.8.9.5.8.7 1.6.6 2.8 0 .7-1.3 1.2-1.5 1.3l-1.3.6Zm.4-5.3c-.2 0-1 0-1.5.5-.2.2-.3.5-.3.9v.3c0 .3 0 .7-.1 1v.1c0 .2-.1.3 0 .7 0 .1.4.3.7.4 0-.133.033-.2.1-.2 0-.067.067-.1.2-.1.067 0 .166.033.3.1.133.133.166.434.1.9 0 .2.1.4.2.4l1.1-.5c.6-.3 1.4-.7 1.4-1.1.1-1.1-.1-1.9-.6-2.7-.3-.5-1-.7-1.5-.7h-.1Z" clip-rule="evenodd"/>
  <path fill="#BB8553" d="M74.91 56.5s-.1.6 0 1.2.2.8.3 1c.2.2.5.2.7.1.133-.067.167-.267.1-.6-.1-.3-.2-.4-.2-.9"/>
  <path fill="#050505" d="M75.61 59c.133 0 .233-.033.3-.1.267-.133.333-.367.2-.7v-.1c-.1-.3-.2-.4-.1-.8l-.1-.1c-.1 0-.2 0-.2.1 0 .5 0 .6.1.9v.1c.2.3.1.4 0 .4-.1.1-.4 0-.5-.1-.1-.1-.2-.3-.3-.9v-1.2c0-.1-.1-.2-.1-.2-.1 0-.2.1-.2.2 0 0 0 .7.1 1.2 0 .5.1.9.3 1.1.1.1.3.2.5.2Z"/>
  <path fill="#BB8553" d="M78.21 58.2c0 .2.2 0 .5 0 .2 0 .333-.133.4-.4 0 0 .5-.6.1-2.5"/>
  <path fill="#050505" d="M78.31 58.4h.2l.1-.1c.333.067.567-.066.7-.4 0-.1.4-.8 0-2.6 0-.1-.1-.1-.1-.1-.1 0-.2.1-.1.2.3 1.8-.1 2.4-.1 2.4-.1.3-.2.3-.3.3h-.3c-.067-.066-.133-.1-.2-.1-.1 0-.1.1-.1.2 0 .067.033.134.1.2h.1Z"/>
  <path fill="#BB8553" d="M77.81 57.9c-.1.4-.1.4-.1.6 0 .3.1.5.4.5.2 0 .3-.1.4-.4 0 0 .2-.3.3-1.6"/>
  <path fill="#050505" d="M78.11 59.1c.3 0 .5-.3.5-.4.1-.1.3-.5.3-1.7 0 0 0-.1-.1-.1s-.2.1-.2.1c0 1.2-.2 1.6-.2 1.6-.1.2-.2.3-.3.3-.2-.1-.3-.2-.3-.4v-.2c0-.1.1-.2.1-.4 0-.1 0-.1-.1-.2-.1 0-.2.1-.2.2v.4c-.1 0-.1.1-.1.2 0 .3.3.6.5.6h.1Z"/>
  <path fill="#BB8553" d="M77.21 57.8c0 .7-.2 1-.2 1.3 0 .2.2.4.4.4.2.1.4-.1.4-.3 0 0 .3-.4.3-1.7"/>
  <path fill="#050505" d="M77.41 59.7c.267 0 .467-.167.6-.5 0 0 .2-.5.2-1.7 0-.1-.1-.1-.2-.1l-.1.1c0 1.3-.2 1.6-.2 1.6-.1.3-.2.3-.3.3-.1 0-.3-.1-.3-.3 0-.133.033-.267.1-.4.1-.2.1-.5.2-.8 0-.1-.1-.2-.2-.2l-.1.1c0 .4-.1.6-.2.8v.5c0 .3.2.6.5.6Z"/>
  <path fill="#BB8553" d="M77.31 57.8c0 1.3-.2 1.7-.2 1.7-.1.2-.2.4-.4.3-.3 0-.5-.2-.4-.4 0-.7.1-1.7 0-1.9"/>
  <path fill="#050505" d="M76.71 60c.3 0 .4-.2.5-.5.1 0 .2-.5.2-1.7 0-.1-.1-.1-.1-.1-.1 0-.2 0-.2.1.1 1.2-.1 1.6-.1 1.6-.1.3-.2.3-.3.3-.2 0-.3-.1-.3-.3v-.3c.1-.9.1-1.4 0-1.6 0-.1-.1-.1-.1-.1-.1 0-.2.1-.1.2 0 .1 0 .9-.1 1.5v.3c0 .3.3.6.6.6Z"/>
  <path fill="#050505" d="M75.71 58.3s-.1 0-.2-.3c-.1-.4 0-1.1.2-.8l.1.1c-.1.5 0 .6.1.9.133.333.133.534 0 .6v-.1c.1-.5-.2-.4-.2-.4Z" opacity=".1"/>
  <path fill="#050505" d="M77.41 58.1s.2.6 0 1.5l-.2-.2.2-1.3Zm.8-.5s.2.6-.1 1.5l-.2-.2.3-1.3Zm.7-.5s.3.3 0 1.1h-.3l.3-1.1Z" opacity=".3"/>
  <path fill="#F3F6F7" d="M73.01 38.3c1.6-.7 2.9-.3 3.8 1.5.5 1 2.7 15.2 2.7 15.2s-1.2.8-2.5.9h-2.8s-2.3-13.3-2.4-14c-.4-1.4-.3-2.9 1.2-3.6Z"/>
  <path fill="#050505" fill-rule="evenodd" d="M74.01 55.9c0-.1-2.2-13.3-2.4-13.9-.4-1.9 0-3.2 1.3-3.8 1.8-.733 3.133-.2 4 1.6.5 1 2.7 14.6 2.8 15.2 0 .067-.033.134-.1.2 0 0-1.3.7-2.6.8-1.2.1-2.8 0-2.8 0h-.1c-.067 0-.1-.033-.1-.1Zm2.7-16c-.8-1.7-2-2.1-3.6-1.4-1.5.6-1.5 2.2-1.2 3.4.1.6 2.1 12.5 2.4 13.9.4 0 1.6 0 2.7-.1 1 0 2.1-.6 2.4-.7-.8-5-2.4-14.3-2.7-15.1Z" clip-rule="evenodd"/>
  <path fill="#050505" d="M77.61 55.5c1-.8-2.2-14.8-2.6-15.8-.333-.8-.767-1.333-1.3-1.6 1.3-.3 2.4.2 3.1 1.7.5 1 2.5 14.5 2.7 15.2-.4.2-1.1.4-1.9.5Z" opacity=".2"/>
  <path fill="#F3F6F7" d="M77.81 54.4s1.3-.1 1.6-.3c.2-.2.6-.5.6-.5l-.2-.7s-.6.4-1.2.5c-.5.1-.9 0-.9 0"/>
  <path fill="#050505" d="M77.81 54.5c.1 0 1.3-.1 1.6-.3.3-.2.7-.5.7-.5v-.1l-.1-.7c0-.067-.033-.1-.1-.1-.067-.067-.1-.067-.1 0 0 0-.7.3-1.2.5-.5.1-.8 0-.8 0-.1 0-.2 0-.2.1s0 .1.1.2c0 0 .4.1 1-.1.4-.1.8-.3 1-.4l.1.5c-.1.1-.3.3-.5.4-.2.1-1 .2-1.5.2-.1 0-.2.1-.1.2 0 .067.033.1.1.1Z"/>
  <path fill="#67361C" d="M64.71 25.4s.4-.7-1.9-1.6c-2-.8-3.7 1.7-4.2 3.6-1.1 4.6-3.1 4.8-4.5 2.7 0 0 .3 2.6 2.6 3.2 4.9 1.3 6.6-3.5 7.7-5.8"/>
  <path fill="#141112" d="M58.11 33.7c3.6.1 5.2-3.4 6.2-5.6.067-.2.167-.4.3-.6 0 0 0-.1-.1-.1-.1-.1-.2 0-.2 0-.067.2-.166.4-.3.6-1.1 2.5-2.9 6.3-7.3 5.2-1.5-.4-2.1-1.8-2.4-2.5.6.6 1.3.9 1.9.8.8-.2 1.8-1 2.5-4.1.3-1.2 1.2-2.7 2.3-3.3.6-.333 1.2-.4 1.8-.2 1.4.6 1.7 1 1.8 1.2v.2c-.1 0-.1.1 0 .2.1 0 .1 0 .2-.1 0 0 .1-.1 0-.3-.133-.466-.767-.933-1.9-1.4-.666-.267-1.333-.233-2 .1-1.3.7-2.1 2.3-2.4 3.6-.6 2.3-1.4 3.6-2.3 3.8-.7.2-1.4-.3-2-1.1-.066-.066-.133-.1-.2-.1-.066.067-.1.134-.1.2 0 0 .4 2.6 2.8 3.2a10.5 10.5 0 0 0 1.4.3Z"/>
  <path fill="#BB8553" d="M77.41 28c0 5.4-2.5 11.2-10 11.3-9.1.2-9.7-4.3-9.6-9.8 0-5.4 4.5-9.8 10-9.8s9.6 2.8 9.6 8.3Z"/>
  <path fill="#050505" fill-rule="evenodd" d="M59.61 37.3c-1.8-1.8-2-4.7-2-7.8 0-2.6 1.1-5.2 3-7 1.9-1.9 4.5-2.9 7.2-2.9 2.8 0 5.2.7 6.9 2.1 1.9 1.5 2.8 3.6 2.8 6.3 0 2.1-.4 5.2-2.2 7.7-1.7 2.5-4.4 3.7-7.9 3.8h-1.2c-3.1-.1-5.2-.8-6.6-2.2Zm15-15.4c-1.7-1.3-4.1-2-6.8-2.1-2.7 0-5.1 1-7 2.9-1.9 1.8-2.9 4.2-2.9 6.8 0 3 .1 5.8 1.9 7.6 1.5 1.5 4 2.2 7.6 2.1 9.1-.1 9.8-8.6 9.8-11.3.1-2.5-.9-4.6-2.6-6Z" clip-rule="evenodd"/>
  <path fill="#050505" d="M74.01 24.3s1.4 8.7-2.9 11.9c-4.4 3.2-9.3 2.3-9.3 2.3s8.1 2.9 12.7-2.1c4.7-5.3 2.2-11.8 2.2-11.8l-2.7-.3Z" opacity=".1"/>
  <path fill="#DEDFDD" d="M66.51 31.2s.2 1.5 2.9 1.4c1.2-.1 2-1.1 1.6-1.8-.3-.5-4.5.4-4.5.4Zm-4.5-1s-.6 1.4-2.2.8c-.5-.2-1.1-.9-.9-1.5.1-.4 3.1.7 3.1.7Z" style="mix-blend-mode:multiply"/>
  <path fill="#FEFEFE" d="M61.91 30.1s-.7-1.7-2.9-.6c0 0 .7 1.6 1.8 1.4 1.1-.1 1.1-.8 1.1-.8Zm4.5 1s.8-1.9 4.7-.4c0 0-.7 1.8-2.6 1.4-1.8-.3-2.1-1-2.1-1Z"/>
  <path fill="#8B5123" d="M61.61 30.1c-.2.4-.6.6-1 .5-.4-.1-.7-.5-.6-1 .2-.4.6-.6 1-.5.4.1.7.6.6 1Z"/>
  <path fill="#050505" d="M61.11 29.9c-.1.2-.2.3-.4.2-.1 0-.2-.2-.1-.3 0-.1.2-.2.3-.2.1.1.2.2.2.3Z"/>
  <path fill="#FEFEFE" d="M60.51 29.8c0 .1-.1.2-.2.2-.1-.1-.2-.2-.1-.3 0 0 .1-.1.2-.1s.1.1.1.2Z"/>
  <path fill="#050505" d="M61.91 30.2v-.1c.067 0 .1-.033.1-.1-.467-.6-.967-.933-1.5-1-.7-.2-1.3.2-1.5.4l-.6-.9h-.1c-.067 0-.1.033-.1.1l.7.9h.1c.1 0 .7-.5 1.5-.4.467.067.9.4 1.3 1l.1.1Z"/>
  <path fill="#050505" d="M59.31 29.3h.1v-.1l-.5-.6c0-.067-.033-.067-.1 0v.1l.5.6Z"/>
  <path fill="#8B5123" d="M68.21 30.9c.1.6.7 1 1.3.9.6-.2 1-.7.9-1.3-.6-.3-1.1-.4-2-.4-.2.2-.3.5-.2.8Z"/>
  <path fill="#050505" d="M69.01 30.9c0 .2.2.3.4.3.1 0 .3-.2.2-.4 0-.2-.2-.3-.4-.3-.2.1-.3.3-.2.4Z"/>
  <path fill="#FEFEFE" d="M68.31 30.9c0 .1.2.2.3.2.1-.1.2-.2.2-.3-.1-.1-.2-.2-.3-.2-.1 0-.2.2-.2.3Z"/>
  <path fill="#050505" d="M66.41 31.2c.067 0 .1-.033.1-.1 1.4-1.9 4.4-.2 4.4-.2.067 0 .1-.033.1-.1l.9-.9v-.1c-.067-.067-.133-.067-.2 0l-.8.9c-.4-.3-3.2-1.6-4.5.3-.067.067-.067.133 0 .2Z"/>
  <path fill="#050505" d="m70.41 30.6.1-.1.5-.5c.067-.067.067-.134 0-.2h-.1l-.6.6v.2h.1Z"/>
  <path fill="#080606" d="M64.71 35s-.7 1.5-1.6 1.5c-.9-.1-1.2-1.8-1.2-1.8.5.1 2.1.2 2.8.3Z"/>
  <path fill="#080606" fill-rule="evenodd" d="M63.11 36.6c-.9-.1-1.3-1.8-1.3-1.9-.067-.067-.067-.1 0-.1 0-.067.033-.1.1-.1.2.1.7.1 1.2.2.6.1 1.2.1 1.6.2l.1.1v.1c-.1.1-.7 1.5-1.6 1.5h-.1Zm0-1.7c-.4 0-.8 0-1.1-.1.2.5.6 1.5 1.1 1.6.7 0 1.2-.9 1.4-1.3-.4 0-.9-.1-1.4-.2Z" clip-rule="evenodd"/>
  <path fill="#050505" d="M64.31 32.9s-.2.5-1 .3c-.5-.1-.6-.7-.6-.7s.4.4.6.4c.5.1 1 0 1 0Z"/>
  <path fill="#8E4C21" d="M75.71 21.3s-3.9-4.2-11.5-2.8c-5.7 1.1-6.6 8.1-7.1 9.7 0 0 8 1.1 13.3-.7 1.3-.4 3.4-1.4 4.2-2"/>
  <path fill="#141112" d="M61.11 28.6c2.8.1 6.4 0 9.4-1 1.2-.4 3.4-1.3 4.2-2v-.2c-.1-.1-.2-.1-.2 0-.8.6-2.9 1.6-4.1 2-4.9 1.6-12 .8-13.1.7 0-.2.033-.433.1-.7.6-2.4 1.9-7.8 6.8-8.8 3.9-.7 6.8.1 8.6.9 1.8.8 2.8 1.9 2.8 1.9.1.1.2.1.2 0 .1 0 .1-.1 0-.2 0 0-1-1.1-2.9-2-1.8-.8-4.7-1.6-8.7-.8-5.1.9-6.4 6.5-7 8.9-.067.4-.133.7-.2.9v.1h.1s1.7.3 4 .3Z"/>
  <path fill="#8E4C21" d="M75.31 21.1s1.1-.2 2.4.5c1.8.9 1.6 4.8 1.3 6.7-.8 4.9-1.4 5.4 1.8 5.5 0 0-1.3 2.5-4.1 1.3-2.9-1.3-2.7-7.1-2.1-9.6"/>
  <path fill="#141112" d="M78.11 35.6c1.9 0 2.8-1.7 2.8-1.7.067-.066.067-.1 0-.1 0-.066-.033-.1-.1-.1-1.1 0-1.8-.1-2.1-.5-.4-.4-.2-1.4.1-3.1.067-.533.167-1.1.3-1.7.2-1 .8-5.9-1.3-6.9-1.4-.7-2.5-.5-2.5-.5-.1 0-.1.1-.1.1 0 .1 0 .2.1.1 0 0 1.1-.1 2.4.5 1.5.8 1.6 4 1.1 6.6a12.629 12.629 0 0 1-.3 1.8c-.3 1.8-.5 2.7 0 3.3.3.4 1 .5 2.1.5-.4.6-1.6 2-3.8 1.1-2.8-1.2-2.7-6.8-2.1-9.5 0-.1 0-.2-.1-.2s-.1 0-.2.1c-.2 1.2-.5 3.3-.2 5.4.2 1.6.8 3.7 2.4 4.4a7.21 7.21 0 0 0 1.5.4Z"/>
  <path fill="#C9C9C8" d="M74.61 20.6c.5.8-.4-.1.2-.2.7-.1.3.8.3.8s-1.4-1.6-7.1-2.1c-5.1-.5-7.5 2.1-7 1.6s2.8-3.3 8.7-2.2c5.9 1.1 4.9 2.1 4.9 2.1Z" style="mix-blend-mode:multiply"/>
  <path fill="#C2C2BE" d="M75.61 21.4s3.7.9 3 7.2c-.3 2.8.3 1.2.3 1 0-.1 1.3-6.6-1-7.8-2.4-1.2-2.3-.4-2.3-.4Zm-.4 9.7s-.2 4.5 4.9 3.2c1-.3-1.3 1.3-2.1 1-.8-.2-2.9.1-2.8-4.2Z" style="mix-blend-mode:multiply"/>
  <path fill="#B4B4B3" d="M57.71 27.1s4.8 1.2 10.4.6c5.6-.6-4.1.9-9.4.5-2.2-.1-1.6.1-1.6.1l.6-1.2Z" style="mix-blend-mode:multiply"/>
  <path fill="#B4B4B3" d="M73.61 20.9c-.8-.5-2-.9-3.3-1.2-1.2-.4-4.6-.3-5.2-.2-.5.1 5 .2 8 1.9 1.4.8 1.3 0 .5-.5Zm-1 3.3s-5.4 2.8-9.2 2.6c-2.2-.1-1.8-.2-3-.4-1.2-.3-1.1-1.2.3-1 2.4.5 6.4.6 11.9-1.2Zm-.1-1.2s-4.7 1.7-8 1.5c-2-.2-1.6-.2-2.7-.4-1-.2-1-.9.3-.7 2.1.4 5.6.6 10.4-.4Zm-1.1-1.4s-3.7.7-6.4.6c-1.5-.2-1.3-.2-2.1-.3-.9-.1-.9-.5.1-.3 1.8.2 4.6.4 8.4 0Zm4.5.7c-.1-.2 3 3.1 2.7 5.9-.2 2.9-.7 2.7-.7 2.7s.1 1.1 0-1.2-.1-4.8-2-7.4Z" opacity=".3" style="mix-blend-mode:multiply"/>
  <path fill="#15132A" d="m13.91 69.2 36 1.3c.267 0 .5.066.7.2l2.4 1.9c.3.2.2.9-.1.9l-36.1-1.3c-.2 0-.433-.067-.7-.2l-2.4-1.9c-.3-.2-.1-.9.2-.9Z" opacity=".2"/>
  <path fill="#9E5D41" d="m51.61 64.9 1.4.1c.1 0 .2.1.2.2l-.3 7.9c0 .1-.1.2-.2.2l-1.4-.1c-.1 0-.2-.1-.2-.2l.3-7.9c0-.1.1-.2.2-.2Z"/>
  <path fill="#552C23" d="M51.71 64.9h-.1c-.1 0-.2.1-.2.2l-.3 7.9c0 .1.1.2.2.2h.1c.1 0 .2 0 .2-.1l.2-8c.1-.1 0-.2-.1-.2Z"/>
  <path fill="#9E5D41" d="m17.61 63.7 1.3.1c.1 0 .2.1.2.2l-.2 7.9c0 .1-.1.2-.3.2h-1.3c-.1 0-.2-.1-.2-.3l.2-7.8c0-.2.1-.3.3-.3Z"/>
  <path fill="#552C23" d="M17.61 63.7h-.1c-.1 0-.2.1-.2.2l-.2 8c0 .1 0 .2.1.2h.2c.1 0 .1-.1.1-.2l.3-8c0-.1-.1-.2-.2-.2Z"/>
  <path fill="#9E5D41" d="M48.41 63.3h1.3c.2 0 .2.1.2.2l-.2 7.1c0 .1-.1.2-.2.2h-1.4c-.1 0-.2-.1-.2-.2l.2-7.1c0-.2.1-.2.3-.2Z"/>
  <path fill="#552C23" d="M48.41 63.3h-.1c-.1 0-.2 0-.2.1l-.2 7.2c0 .1.1.2.2.2h.1c.1 0 .2-.1.2-.2l.2-7.1c0-.1-.1-.2-.2-.2Z"/>
  <path fill="#9E5D41" d="M48.71 53.3h1.4c.1 0 .2.1.2.3l-.3 9.7c-.1.1-.2.2-.3.2h-1.3c-.2 0-.3-.1-.3-.3l.4-9.7c0-.1.1-.2.2-.2Z"/>
  <path fill="#552C23" d="M48.81 53.3h-.1c-.1 0-.2.1-.2.2l-.4 9.8c0 .1.1.2.2.2h.1c.1 0 .2-.1.2-.2l.4-9.8c0-.1-.1-.2-.2-.2Z"/>
  <path fill="#D1966F" d="M15.91 53.9c.4-1.6 3.2-2.7 6.6-2.6 1.3 0 2.5.3 3.5.6.9.3 11.4.7 12.4.4 1-.2 2.2-.4 3.5-.3 3.4.1 6.2 1.4 6.4 3l-32.4-1.1Z"/>
  <path fill="#D1966F" d="M15.91 53.5c.4-1.6 3.2-2.7 6.6-2.6 1.3 0 2.5.2 3.5.6.9.3 11.4.7 12.4.4 1-.3 2.2-.4 3.5-.3 3.4.1 6.2 1.4 6.4 3l-32.4-1.1Z"/>
  <path fill="#D1966F" d="m16.01 52.7 32.5 1.1c.1 0 .3.1.3.3l-.1.9c0 .2-.1.3-.3.3l-32.5-1.1c-.2 0-.3-.2-.3-.4V53c0-.2.2-.3.4-.3Z"/>
  <path fill="#CE7753" d="M16.01 54.1c.4-1.6 3.2-2.7 6.6-2.6 1.3.1 2.5.3 3.5.6s11.5.7 12.4.4c1-.2 2.2-.4 3.5-.3 3.4.1 6.2 1.4 6.4 3l-32.4-1.1Z"/>
  <path fill="#9E5D41" d="M16.11 53.7c.3-1.6 3.2-2.7 6.6-2.6 1.3.1 2.5.3 3.5.6.9.3 11.4.7 12.4.4 1-.2 2.2-.4 3.5-.3 3.5.1 6.2 1.4 6.5 3l-32.5-1.1Z"/>
  <path fill="#8F5042" d="M19.01 52.4c.7-.2 2-.5 3.7-.4 1.1 0 2.2.2 3.2.5.133.066.3.133.5.2.1 0 .2.1.2.3 0 .1-.2.2-.3.2l-7.2-.3c-.2 0-.3-.1-.3-.2s.1-.2.2-.3Zm19.3.7c.2-.067.367-.1.5-.1 1-.3 2.1-.4 3.3-.4 1.7.1 2.9.5 3.6.7.1.1.2.2.2.3 0 .2-.2.3-.3.2l-7.2-.2c-.2 0-.3-.1-.3-.2 0-.2.1-.3.2-.3Z"/>
  <path fill="#9E5D41" d="m16.11 52.9 32.3 1.1c.2 0 .4.1.4.3l-.1 2.3c0 .2-.2.4-.4.4l-32.3-1.1c-.2-.1-.3-.2-.3-.4l.1-2.3c0-.2.1-.3.3-.3Z"/>
  <path fill="#D1966F" d="m15.91 57.8 32.4 1.1c.2 0 .3.2.3.3v.7c0 .2-.2.3-.4.3l-32.3-1.1c-.2 0-.3-.2-.3-.3v-.7c0-.2.1-.3.3-.3Z"/>
  <path fill="#9E5D41" d="m15.91 58.1 32.4 1.1c.2 0 .3.2.3.3v.4c0 .2-.2.3-.4.3l-32.3-1.1c-.2 0-.3-.2-.3-.3v-.4c0-.2.1-.3.3-.3Z"/>
  <path fill="#9E5D41" d="m14.71 52.1 1.3.1c.2 0 .3.1.3.2l-.4 9.7c0 .2-.1.3-.2.2h-1.4c-.1 0-.2-.1-.2-.2l.3-9.8c.1-.1.2-.2.3-.2Z"/>
  <path fill="#552C23" d="M14.81 52.1h-.2c-.1 0-.1.1-.2.2l-.3 9.8c0 .1.1.2.2.2h.1c.1 0 .2-.1.2-.2l.3-9.8c0-.1 0-.2-.1-.2Z"/>
  <path fill="#9E5D41" d="M14.31 62.1h1.4c.1 0 .2.1.2.3l-.2 7.1c0 .1-.1.2-.3.2l-1.3-.1c-.1 0-.2-.1-.2-.2l.2-7.1c0-.1.1-.2.2-.2Z"/>
  <path fill="#552C23" d="M14.41 62.1h-.1c-.1 0-.2.1-.2.2l-.2 7.1c0 .1 0 .2.1.2h.2c.1 0 .1-.1.1-.2l.3-7.1c0-.1-.1-.2-.2-.2Z"/>
  <path fill="#15132A" d="m51.31 67.3.1-2.2c0-.1.1-.2.2-.2l1.3.1c.2 0 .3.1.3.2l-.1 2.1h-1.8Zm-34-1.2V64c0-.2.1-.3.3-.3l1.3.1c.1 0 .2.1.2.2v2.1h-1.8Zm30.7 1 .1-3.6c0-.1.2-.2.3-.2h1.3c.1 0 .2.1.2.3l-.1 3.6-1.8-.1Zm-32.2-1.4c-.6-.267-1.2-.567-1.8-.9l.1-2.5c0-.1.1-.2.3-.2h1.3c.1 0 .2.2.2.3l-.1 3.4v-.1Z" opacity=".2"/>
  <path fill="#C68457" d="m50.91 63.3 3.1 1.5c.3.1.4.4.4.7v.4c0 .4-.3.7-.7.7l-36.6-1.3a1.78 1.78 0 0 1-.8-.2l-3.1-1.5c-.3-.1-.4-.4-.4-.6v-.4c0-.4.3-.7.7-.7l36.5 1.2c.333 0 .633.066.9.2Z"/>
  <path fill="#CE7753" d="m17.31 65.3 36.5 1.3c.3 0 .6-.3.6-.6v-.4c0-.3-.2-.6-.6-.6l-36.4-1.3c-.4 0-.7.3-.7.6v.4c0 .3.3.6.6.6Z"/>
  <path fill="#8F5042" d="m15.71 64.8-2.5-1.2c-.3-.1-.4-.4-.4-.6 0-.6.5-.9 1-.7l2.5 1.2c.3.1.4.4.4.7 0 .5-.5.9-1 .6Z"/>
  <path fill="#D1966F" d="m14.11 61.9 36 1.2c.267 0 .5.066.7.2l2.5 1.1c.3.2.2.6-.1.6l-36.1-1.3c-.267 0-.5-.034-.7-.1l-2.4-1.2c-.3-.2-.2-.6.1-.5Z"/>
  <path fill="#15132A" d="m13.21 63.3 3.1 1.4c.267.133.567.2.9.2l36.5 1.3c.4 0 .7-.3.7-.7v.4c0 .4-.3.7-.7.7l-36.6-1.3a1.78 1.78 0 0 1-.8-.2l-3.1-1.5c-.3-.1-.4-.4-.4-.6v-.4c0 .3.1.5.4.7Z" opacity=".2"/>
  <path fill="#8F5042" d="m17.71 54.1 28.7 1c.1 0 .3-.1.3-.3v-.4c0-.1-.1-.2-.2-.2l-28.8-1c-.1 0-.2.1-.2.2v.4c0 .2.1.3.2.3Zm0 1.3 28.7 1c.1 0 .2-.1.2-.3v-.4c0-.1-.1-.2-.2-.2l-28.7-1c-.1 0-.2.1-.2.2l-.1.4c0 .2.1.3.3.3Z"/>
  <path fill="#050505" fill-rule="evenodd" d="M51.91 43.4c-.1 1.1-1.1 1.8-2.1 1.7h-.2c.3.3.4.7.4 1.1-.1.7-.7 1.2-1.5 1.1-.3 1.9-1.2 3.4-3.1 4.2.9.1 1.6 0 2.8-.3.3-.1.7-.2 1.1-.7.5-.5 1.1-.9 1.3-.7.4.3-.4 1-.3 1.6l.2-.1c.1 0 .3 0 .4.1.2.1.2.4 0 .6l-.6.5-.2.2a1.563 1.563 0 0 1-.3.4 3.566 3.566 0 0 1-.9.3c-1.4.4-2.7.4-4 .3.1.8.1 1.7.1 2.5.067.4.133.767.2 1.1 0 .267-.033.533-.1.8l.5 1.5c-.4.267-.867.467-1.4.6.1.6.4 1.5.6 2h.4c.2 0 0 .3 0 .4-.1.1-.1.3-.1.4h.1l-.1.1h.1v.1c1.6.2 2.6.5 2.6.7 0 .5-3.3.8-7.3.7-4-.2-7.2-.7-7.2-1.2 0-.3 1.5-.5 3.6-.6l.1-.1h-.1.1l.1-.1v-.1h-.1.1c.1-.2 0-.3 0-.4 0-.2-.2-.4 0-.4h.5c.2-.3.5-1 .7-1.6-.4-.1-.8-.3-1.1-.5l.2-1.2c0-.5-.1-.8 0-1.3v-.3c0-.133.033-.267.1-.4v-2.9c-.133-.067-.3-.2-.5-.4-.9-1.1-1.7-2.4-2.2-3.9a2.223 2.223 0 0 1-.3-.7c-.2.067-.367.067-.5 0h-.4c-.3 1-.6 1.7-1.1 1.9l-1 1.6v.8l-.1 1.4 1.4 3.3c0 .067-.033.1-.1.1l-.2.1v.1c.1.3.4.9.1 1.6-.1.6-.6 1-1.2 1h-.1a.888.888 0 0 1-.4-.1c.067.133.1.233.1.3l-.1.1c0 .1-.2 0-.7 0h-1l-.1 1.8c0 .067-.033.1-.1.1 1.3.3 2.1.5 2.1.7-.1.5-3.3.8-7.3.7-4-.1-7.2-.7-7.2-1.1 0-.3 1-.5 2.7-.7v-1.7h-.5c-.5.1-.9.1-1.1-.2-.067 0-.1-.033-.1-.1.067-.133.133-.367.2-.7 0-.133.033-.3.1-.5v-.2l.2-.6a1.93 1.93 0 0 1-.3-1l-.1-.2v-.5l.1-2.4-2.7-1.6c-.067 0-.1-.033-.1-.1v-.1l.2-.2c-.067 0-.133-.067-.2-.2-.133-.133-.167-.233-.1-.3v-.2h-.1a.678.678 0 0 1-.5-.2c-.2-.3-.3-.7-.2-1.1V50c.2-.6.7-1 1.3-1 .3-.1.7 0 .9.1.067.067.133.1.2.1-.5-.7-1.1-1.9-1.1-4v-.1c-.4-.3-.4-.5-.4-.5.2-.8.4-1.533.6-2.2-.7 1-.9 1.7-.9 1.6.2-1.3.7-2.4 1.2-3.2-.6.5-1 .8-1 .8 3.5-7.1 9.5-6.4 9.5-6.4 1.267.067 2.367.2 3.3.4-1.3-1.3-2.9-1.5-2.9-1.5s0-.2 1.7.2c.9.2 1.7.9 2.3 1.4.3-.4-.3-1.2-.3-1.2 1.8.6 2.3 1.7 2.4 2.4.2-.5 1.2-.4 1.2-.4-.5.4-.6.7-.5 1 .333.2.633.433.9.7.5-.7 1.1-1.2 2-1h.1v-.5c.2-1 1.1-1.8 2.2-1.6.2 0 .4.067.6.2.3-1.1 1.3-1.9 2.4-1.7.5 0 1 .3 1.3.7.8-1 2.1-1.5 3.5-1.3 1.4.2 2.6 1.1 3 2.2.267-.067.533-.067.8 0 1.2.1 2 1.2 1.9 2.4v.1c1 .3 1.7 1.4 1.6 2.5-.1.6-.4 1.1-.8 1.5.6.4.9 1 .8 1.7Zm-27.4 18.8-.1-1.1h-.3l-.2 1.1h.6Zm18.2.7c-.1-.4-.4-1.6-.6-2.3l-1 .2-.1-.5h-.5c-.3.7-.8 1.9-1 2.4.067 0 .1.033.1.1h1c.733 0 1.433.034 2.1.1Z" clip-rule="evenodd" opacity=".3"/>
  <path fill="#C02F2D" d="M30.81 57.2c0 1.6-1.4 2.9-3 2.8l-7.5-.3c-1.7 0-2.9-1.4-2.9-3l.2-4.4c0-1.6 1.4-2.9 3-2.8l7.5.2c1.6.1 2.9 1.5 2.9 3.1l-.2 4.4Z"/>
  <path fill="#050505" fill-rule="evenodd" d="m27.81 60.1-7.5-.2c-1.7-.1-3-1.5-3-3.2l.2-4.4c0-1.7 1.4-3 3.1-2.9l7.5.2c1.7.1 3 1.5 3 3.2l-.2 4.4c0 1.6-1.4 3-3.1 2.9Zm-7.2-10.5c-1.5-.1-2.9 1.2-2.9 2.7l-.2 4.4c0 1.6 1.2 2.9 2.8 2.9l7.5.3c1.5 0 2.9-1.2 2.9-2.8l.2-4.3c0-1.6-1.2-2.9-2.8-3l-7.5-.2Z" clip-rule="evenodd"/>
  <path fill="#050505" d="M19.31 62.1s0 .8-1.1 1l4.8.2v-1c0-.6 0-1.6-1.8-1.7-1.8 0-1.7.6-1.9 1.5Z"/>
  <path fill="#050505" fill-rule="evenodd" d="m23.01 63.5-4.8-.2c-.1 0-.2-.1-.2-.2s.1-.2.2-.2c.8-.2.9-.7.9-.8v-.3c.1-.4.2-.8.5-1 .3-.3.8-.4 1.6-.4 2 .1 2 1.3 2 1.8v1.1c0 .1-.1.2-.2.2Zm-3.9-.6 3.7.1v-.8c0-.2 0-.5-.2-.8-.2-.333-.667-.5-1.4-.5-.733-.067-1.2 0-1.4.2-.1.2-.2.4-.3.8v.3c0 .1-.1.4-.4.7Z" clip-rule="evenodd"/>
  <path fill="#2B6EB6" d="m24.11 58.5-.8 4.1-4.3-.4.1-4.1c0-.6.1-2.2 2.8-1.9 2.4.3 2.3 1.7 2.2 2.3Z"/>
  <path fill="#050505" fill-rule="evenodd" d="m23.31 62.7-4.3-.4c-.067 0-.1-.034-.1-.1l.1-4.1c0-.4.1-1.1.6-1.6.534-.4 1.3-.533 2.3-.4 2.6.4 2.4 1.9 2.3 2.4l-.8 4.1c0 .066-.033.1-.1.1Zm-4.2-.6 4.1.4.8-4c.1-.5.2-1.9-2.1-2.2-1-.134-1.7 0-2.1.4-.5.4-.6 1-.6 1.4l-.1 4Z" clip-rule="evenodd"/>
  <path fill="#0A0C0F" d="M20.51 56.2c-1.3.3-1.4 1.4-1.4 1.9l-.1 4.1 1.1.1.4-6.1Z" opacity=".3"/>
  <path fill="#050505" d="M28.31 62.4s0 .8 1 1.1l-4.8-.2v-1c.1-.5.1-1.5 2-1.5 1.8.1 1.7.7 1.8 1.6Z"/>
  <path fill="#050505" fill-rule="evenodd" d="m29.31 63.7-4.8-.2c-.1 0-.2-.1-.2-.2v-1c.1-.5.2-1.8 2.2-1.7.8 0 1.3.2 1.6.5.3.2.3.6.4 1v.4s0 .5.8.8c.1 0 .2.1.2.2s-.1.2-.2.2Zm-4.6-.6 3.7.1c-.3-.3-.3-.6-.3-.7 0-.133-.033-.233-.1-.3 0-.4 0-.7-.2-.8-.2-.2-.633-.333-1.3-.4-.733 0-1.233.167-1.5.5-.2.2-.2.6-.2.8l-.1.8Z" clip-rule="evenodd"/>
  <path fill="#2B6EB6" d="m23.71 58.5.6 4.1 4.3-.1.2-4.1c0-.6 0-2.2-2.7-2-2.4.1-2.4 1.5-2.4 2.1Z"/>
  <path fill="#050505" fill-rule="evenodd" d="M24.31 62.7c-.066 0-.1-.034-.1-.1l-.6-4.1c0-.5-.1-2.1 2.5-2.2 1-.067 1.733.1 2.2.5.6.5.6 1.2.6 1.6l-.2 4.1c0 .066-.033.1-.1.1l-4.3.1Zm-.5-4.2.6 4 4.1-.1.1-4c0-.4.1-1-.4-1.4-.4-.4-1.1-.567-2.1-.5-2.4.1-2.3 1.5-2.3 2Z" clip-rule="evenodd"/>
  <path fill="#0A0C0F" d="M27.51 56.5v6h1.1l.2-4.1c0-.5 0-1.6-1.3-1.9Z" opacity=".3"/>
  <path fill="#AB795A" d="M16.51 49.5c-.3-.2-.9-.5-1.5-.4-.6 0-1.1.4-1.2.9-.2.6.2 1.3.6 1.3.2 0 .4 0 .6.1.2 0 .6.1.7.2.3.1 1.1.1 1.3-.7.3-.9-.5-1.4-.5-1.4Z"/>
  <path fill="#050505" fill-rule="evenodd" d="M13.71 50.1V50c.1-.6.7-1 1.2-1 .7-.1 1.3.3 1.6.4 0 0 .9.6.6 1.6-.2.7-1 .8-1.5.7l-.1-.1c-.2 0-.4-.1-.5-.1h-.1c-.2-.067-.367-.1-.5-.1a.678.678 0 0 1-.5-.2c-.2-.3-.3-.7-.2-1.1Zm3.2.7c.2-.8-.5-1.2-.5-1.2-.3-.1-.8-.5-1.4-.4-.5 0-1 .3-1.1.8-.1.4 0 .8.2 1 0 .1.2.2.3.2h.6v.1c.2 0 .4.1.5.1.067.067.133.1.2.1.3 0 1 .1 1.2-.6v-.1Z" clip-rule="evenodd"/>
  <path fill="#AB795A" d="m15.81 51.3-.6.6c-.2.1-.4.1-.6 0-.1-.2 0-.4 0-.4.1-.2.3-.4.3-.4"/>
  <path fill="#050505" d="M14.51 51.5v-.1c.1-.2.3-.3.3-.4.067 0 .1.033.1.1.067 0 .067.033 0 .1 0 0-.1.2-.2.3 0 0-.1.2 0 .3.1.1.3.1.4 0l.7-.5c.067-.067.1-.067.1 0 .067 0 .067.034 0 .1l-.6.6c-.3.2-.6.1-.7-.1-.133-.133-.166-.267-.1-.4Z"/>
  <path fill="#050505" d="M15.91 49.1s.4.7 0 1.5-.7.9-.7.9.7.5 1.3.1c.5-.5.8-1.3.4-1.7-.4-.3-1-.8-1-.8Z" opacity=".2" style="mix-blend-mode:multiply"/>
  <path fill="#F5F6F7" d="M20.41 53.8c-1 1.5-2.2.7-2.2.7l-3.5-2.1 2.1-3.1 3.4 2.2s1.3.7.2 2.3Z"/>
  <path fill="#050505" fill-rule="evenodd" d="M14.61 52.4v-.1l2.1-3.1c0-.067.033-.067.1 0l3.4 2.2c.1.1.5.3.7.9.133.466 0 1-.4 1.6-.333.533-.733.833-1.2.9-.6.1-1.1-.2-1.2-.2l-3.4-2.1-.1-.1Zm2.2-3-1.9 2.9 3.4 2.1s.4.3 1 .2c.4-.067.733-.367 1-.9.333-.534.467-1 .4-1.4-.2-.5-.6-.7-.6-.7l-3.3-2.2Z" clip-rule="evenodd"/>
  <path fill="#DFDFDF" d="m16.21 50.1 4.6 2.8c.2-1-.6-1.4-.6-1.4l-3.4-2.2-.6.8Z" style="mix-blend-mode:multiply"/>
  <path fill="#AB795A" d="M32.01 57.8c.1.3.3.9.1 1.5-.1.6-.6.9-1.1 1-.6 0-1.3-.5-1.2-.9.1-.1.1-.3.1-.6 0-.2-.1-.6-.1-.7 0-.3.1-1.1.9-1.1.9-.1 1.3.8 1.3.8Z"/>
  <path fill="#050505" fill-rule="evenodd" d="M30.91 60.4c-.4 0-.8-.2-1-.5a.678.678 0 0 1-.2-.5c.067-.133.1-.3.1-.5v-.1c0-.1-.1-.3-.1-.5v-.2c0-.5.2-1.2 1-1.3 1 0 1.4.9 1.4.9.1.3.3 1 .1 1.7-.1.5-.6 1-1.2 1h-.1Zm-.1-3.3h-.1c-.7 0-.8.7-.8 1v.2c.1.2.1.4.1.5v.1c0 .2-.033.4-.1.6 0 .1.1.2.1.3.2.2.6.4 1 .4.5-.1.9-.4 1-.9.2-.6 0-1.2-.1-1.5 0 0-.3-.7-1.1-.7Z" clip-rule="evenodd"/>
  <path fill="#AB795A" d="m30.11 58-.7.5c-.2.2-.2.4-.1.6.1.1.3.1.4.1l.4-.2"/>
  <path fill="#050505" d="M29.61 59.3c-.133 0-.267-.067-.4-.2-.1-.1-.1-.5.1-.6v-.1l.7-.5h.2c0 .067-.033.133-.1.2l-.6.5c-.2.1-.2.3-.1.4.1.1.3.1.3.1.1 0 .3-.2.3-.2h.2c0 .067-.033.133-.1.2l-.4.2h-.1Z"/>
  <path fill="#050505" d="M32.11 58.3c0-.2-.033-.367-.1-.5 0 0-.4-.9-1.3-.8-.8 0-.9.8-.9 1.1v.1l-.1.1.1.3s.1-.2 1-.5c.6-.2 1.1 0 1.3.2Z" opacity=".2" style="mix-blend-mode:multiply"/>
  <path fill="#F5F6F7" d="M28.61 53c-1.7.7-1.1 2.1-1.1 2.1l1.3 3.8 3.4-1.4-1.5-3.8s-.3-1.4-2.1-.7Z"/>
  <path fill="#050505" fill-rule="evenodd" d="M28.81 59c-.066 0-.1-.033-.1-.1l-1.3-3.8c-.1 0-.3-.6 0-1.2.134-.4.5-.733 1.1-1 .667-.2 1.233-.2 1.7 0 .5.2.6.7.6.8l1.5 3.8c.067.066.067.1 0 .1l-3.4 1.4h-.1Zm-.2-5.9c-.533.2-.866.5-1 .9-.3.5 0 1 0 1l1.3 3.7 3.2-1.2-1.5-3.7s-.1-.5-.5-.7c-.4-.2-.9-.2-1.5 0Z" clip-rule="evenodd"/>
  <path fill="#DFDFDF" d="m31.31 57.9.9-.4-1.5-3.8s-.2-.9-1.2-.9l1.8 5.1Z" style="mix-blend-mode:multiply"/>
  <path fill="#F5F6F7" d="M29.61 52.9s.8 7.1.9 7.7c0 .1-1.5-.1-2.7 0-1.6.2-3.2.5-4.7.4-.8-.1-1.9-.3-3.2-.6-1.2-.2-2.2.2-2.6-.2.2-.7 1.2-5 1.3-7.9 0-.3.9-1.7 5.5-1.6 4.6.2 5.4 1.9 5.5 2.2Z"/>
  <path fill="#050505" fill-rule="evenodd" d="M23.51 61.1h-.4c-.6-.1-1.3-.2-2.1-.4-.333-.067-.7-.134-1.1-.2-.6-.1-1.1 0-1.5 0-.5 0-.9.1-1.1-.2-.066 0-.1-.033-.1-.1.067-.134.133-.367.2-.7.3-1.6 1-4.8 1.1-7.2 0-.2.3-.6 1.1-1 1-.533 2.5-.767 4.5-.7 1.934.067 3.4.4 4.4 1 .8.5 1.1 1 1.2 1.2v.1c0 .1.8 7.1.9 7.7l-.1.1h-.7c-.5 0-1.3-.1-2 0-.133.066-.233.1-.3.1-1.3.2-2.7.4-4 .3Zm-4.2-.8h.6l1.2.2c.8.2 1.5.3 2 .4 1.4.1 2.9-.1 4.3-.3.134-.067.233-.1.3-.1.8-.1 1.6 0 2.1 0h.5c-.1-.9-.7-7.1-.8-7.6-.6-1.2-2.5-1.9-5.4-2-2.4-.1-3.7.2-4.4.6-.8.3-1 .8-1 .9-.1 2.3-.8 5.5-1.1 7.1-.066.333-.1.566-.1.7.1.1.5.1.9.1h.9Z" clip-rule="evenodd"/>
  <path fill="#050505" d="M24.51 59.6c0 .1-.2.3-.3.2-.2 0-.3-.1-.3-.3 0-.1.1-.3.3-.2.2 0 .3.1.3.3Zm.1-1.4c0 .1-.1.3-.3.3-.2 0-.3-.2-.3-.3 0-.2.2-.3.3-.3.2 0 .3.1.3.3Zm0-1.4c0 .2-.1.3-.3.3-.2 0-.3-.2-.3-.3 0-.2.2-.3.3-.3.2 0 .3.1.3.3Z"/>
  <path fill="#DFDFDF" d="M30.51 60.6c-.1-.6-.9-7.7-.9-7.7-.1-.2-.5-1.2-2.5-1.7l-.2.6s.8.3 1.2.5c.4.1.7.4.8.7.1.2.5 5.4.7 7.6h.9Z" style="mix-blend-mode:multiply"/>
  <path fill="#FEFEFE" d="M23.51 61s.3-4.1.3-5.2l-.3 5.2Z"/>
  <path fill="#050505" d="M23.51 61.1c-.067 0-.1-.033-.1-.1 0 0 .3-4.1.3-5.2 0-.066.034-.1.1-.1.067 0 .1.034.1.1 0 1.1-.2 5.2-.3 5.2 0 .067-.033.1-.1.1Z"/>
  <mask id="d" width="5" height="7" x="17" y="54" maskUnits="userSpaceOnUse" style="mask-type:luminance">
    <path fill="#fff" d="M18.46 54.45s-.46 2.72-.55 3.14c-.08.43-.51 2.43-.51 2.43l2.99-.4s.72-4.32.61-4.3c-.11.03-2.54-.87-2.54-.87Z"/>
  </mask>
  <g mask="url(#d)">
    <path fill="#050505" fill-rule="evenodd" d="M18.41 59.3c-1 0-1.5-.7-1.5-1.7v-1.1l.1-.1 2.9.1.1.1v1.1c0 1-.7 1.6-1.6 1.6Zm-1.3-2.7v1c0 1.1.6 1.5 1.3 1.5.7 0 1.4-.3 1.4-1.4v-1l-2.7-.1Z" clip-rule="evenodd"/>
    <path fill="#EC272B" d="m16.91 57.1 3 .1-3-.1Z"/>
    <path fill="#050505" d="m19.91 57.3-3-.1.1-.2 2.9.1v.2Z"/>
  </g>
  <mask id="e" width="4" height="7" x="27" y="54" maskUnits="userSpaceOnUse" style="mask-type:luminance">
    <path fill="#fff" d="M29.82 54.85s.29 2.71.34 3.14c.04.43.27 2.54.27 2.54l-2.86-.66s-.42-4.36-.31-4.33c.1.03 2.56-.69 2.56-.69Z"/>
  </mask>
  <g mask="url(#e)">
    <path fill="#050505" fill-rule="evenodd" d="M29.61 59.7c-1-.1-1.6-.7-1.5-1.7v-1.1c0-.067.034-.1.1-.1l2.9.1c.067 0 .1.033.1.1v1.1c-.1 1-.7 1.6-1.6 1.6Zm-1.3-2.7v1c-.1 1.1.6 1.4 1.3 1.5.6 0 1.3-.4 1.4-1.4v-1l-2.7-.1Z" clip-rule="evenodd"/>
    <path fill="#EC272B" d="m31.21 57.6-3-.1 3 .1Z"/>
    <path fill="#050505" d="m31.21 57.7-3-.1v-.2l3 .1v.2Z"/>
  </g>
  <path fill="#DFDFDF" d="M23.81 55.8v.9s.1-.5.5-.7c.4-.2 1.9-.4 1.9-.4l-.5-.5h1.2s.3-2.7.4-3.1c0-.4-.5-.6-.5-.6l-.6 2.2-2.4 2.2Zm-.1.8.1-1-2.7-4.3-.4.4.3 2.8c-.1.1.5.1.5.1s-.1.3 0 .4c.1 0 1.9 1.1 2.2 1.6Z" style="mix-blend-mode:multiply"/>
  <path fill="#9FC8EA" d="m23.91 55.7-.2-.1-1-2.2-1.2-2.3s.7-.2 2.4-.1c1.8 0 2.7.3 2.7.3l-1.3 2.2-1.4 2.2Z"/>
  <path fill="#DFDFDF" d="M23.61 56.7s-.2 1.3-.4 1.7c-.1.4.3 0 .2.3 0 .3-.1 2.3-.1 2.3h.3l.1-4.4-.1.1Zm-6 2.9s.1-.4.7-.2c.7.2 1.3.1 1.6-.4.3-.5 0-2.1 0-2.1s0 1.7-.6 2.1c-.5.3-1.5 0-1.5 0l-.2.6Zm10.6-2.7s-.2 1.4.2 2.1c.4.6 1.1.6 1.1.6s-.8.3-1.4-.3c-.3-.4-.2-1.3-.2-1.3s.1-.9.3-1.1Z" style="mix-blend-mode:multiply"/>
  <path fill="#F5F6F7" d="M23.81 56v-.5l-.9-1.6-1.6-3-.8.2.8 3.2 1.1.4-.3.2 1.7 1.1Z"/>
  <path fill="#050505" fill-rule="evenodd" d="M23.81 56.1h-.1l-1.6-1.1c-.066 0-.1-.033-.1-.1l.1-.1.1-.1-.9-.3c-.066 0-.1-.033-.1-.1l-.8-3.2c0-.067.034-.1.1-.1l.8-.2h.1l1.6 3.1.9 1.6v.5c0 .066-.033.1-.1.1Zm-1.5-1.2 1.4.9v-.3l-.9-1.5-1.5-3c-.266.066-.5.1-.7.1l.8 3.1 1 .4h.1v.1l-.2.2Z" clip-rule="evenodd"/>
  <path fill="#F5F6F7" d="M27.41 51.3a2.224 2.224 0 0 0-.7-.3l-1.9 3-.9 1.5v.5l1.7-1-.3-.2 1.1-.3 1-3.2Z"/>
  <path fill="#050505" fill-rule="evenodd" d="M23.91 56.1h-.1v-.6l2.8-4.5c0-.066.034-.1.1-.1.267.067.534.167.8.3v.1l-1 3.2v.1l-1 .2.1.1.1.1c0 .067-.033.1-.1.1l-1.7 1Zm.1-.5v.2l1.4-.8-.2-.2v-.1h.1l1.1-.3.9-3.1c-.2-.066-.4-.1-.6-.1l-2.7 4.4Z" clip-rule="evenodd"/>
  <path fill="#ED2D2F" d="M30.01 56.4c-2.9-.7-2.1-4.7-1.7-4.8 1.1-.1 1.3.9 1.3.9l.4 3.9Z"/>
  <path fill="#050505" fill-rule="evenodd" d="M30.01 56.5c-.867-.267-1.5-.767-1.9-1.5-.3-.8-.3-1.7-.3-2.1 0-.6.2-1.3.4-1.4 1.3-.2 1.5 1 1.5 1l.4 3.9-.1.1Zm-1.7-4.8c-.1.1-.2.3-.3.8 0 .3-.1.9.1 1.6.1.7.5 1.7 1.8 2.1l-.4-3.7s-.2-.9-1.2-.8Z" clip-rule="evenodd"/>
  <path fill="#DFDFDF" d="M28.01 52.7s-.1 1.1.4 1.7c.4.6.9.2 1-.2 0-.4-.1-1.4-.4-1.5-.3-.1-.9-.3-.8-.6 0-.3.3-.5.3-.5s1.1.2 1.2.8c.1.5.3 3.9.3 3.9s-.7.1-1.3-.7c-.6-.7-1.1-1.8-.7-2.9Z" style="mix-blend-mode:multiply"/>
  <path fill="#ED2D2F" d="M18.21 56c3-.6 2.4-4.6 2.1-4.6-1.2-.3-1.6.8-1.6.8l-.5 3.8Z"/>
  <path fill="#050505" fill-rule="evenodd" d="m18.21 56.1-.1-.1v-.1l.5-3.8s.1-.3.4-.5c.2-.2.7-.5 1.3-.3.3 0 .4.8.4 1.3s-.1 1.3-.5 2.1c-.4.733-1.067 1.2-2 1.4Zm.6-3.9-.5 3.6c1.3-.3 1.8-1.2 2-2 .2-.7.2-1.3.1-1.6 0-.4-.1-.7-.1-.7-.467-.133-.867-.067-1.2.2-.2.2-.3.4-.3.5Z" clip-rule="evenodd"/>
  <path fill="#DFDFDF" d="M20.41 52.4s.1 1.2-.4 1.7c-.5.6-.9.2-1-.2 0-.4.1-1.5.5-1.6.3 0 .8-.1.8-.5 0-.3-.2-.4-.2-.4s-1.1 0-1.3.6c-.1.5-.6 3.9-.6 3.9s.7.1 1.3-.6c.7-.7 1.3-1.7.9-2.9Z" style="mix-blend-mode:multiply"/>
  <path fill="#050505" d="M32.91 45.8s1.2-2.5 1.1.1c-.1 3.2-1.9 4.4-1.9 4.4l.8-4.5Zm-16.8-.6s-1-2.5-1.1 0c-.1 3.3 1.6 4.6 1.6 4.6l-.5-4.6Z"/>
  <path fill="#050505" d="M24.81 37.9h-.3c-4.4-.1-8.3 2.6-8.5 8.5 0 1.4.8 3.1.8 3.1s3.7-1.3 7.5-1.2c3.8.2 7.7 1.8 7.7 1.8s.7-1.7.8-3.1c.2-5.9-3.5-8.9-8-9.1Z"/>
  <path fill="#050505" fill-rule="evenodd" d="m16.71 49.8-.1-.2s-.8-1.7-.8-3.2c.067-1.467.333-2.767.8-3.9.467-1.067 1.1-1.967 1.9-2.7a7.318 7.318 0 0 1 2.8-1.6 8.855 8.855 0 0 1 3-.5h.7a8.98 8.98 0 0 1 3 .7c1.067.467 1.967 1.066 2.7 1.8.733.8 1.3 1.767 1.7 2.9.4 1.133.6 2.433.6 3.9-.1 1.4-.8 3.1-.9 3.1v.2l-.2-.1c-.1 0-3.9-1.5-7.6-1.7-3.7-.1-7.4 1.2-7.5 1.2l-.1.1Zm-.4-3.4c-.1 1.2.5 2.5.6 2.9.8-.2 4.2-1.2 7.5-1.2 3.3.2 6.7 1.4 7.5 1.7.2-.4.7-1.7.7-2.8.2-6.2-3.8-8.7-7.7-8.9h-.3c-3.9 0-8.1 2.1-8.3 8.3Z" clip-rule="evenodd"/>
  <path fill="#AB795A" d="M24.81 37.9h-.3c-4.4-.1-8.3 2.6-8.5 8.5-.1 3.5 1.6 7.7 8.1 7.7 6.5.4 8.5-3.7 8.7-7.1.2-5.9-3.5-8.9-8-9.1Z"/>
  <path fill="#050505" fill-rule="evenodd" d="M24.41 54.3h-.3c-2.9-.1-5.2-1-6.6-2.7a6.893 6.893 0 0 1-1.3-2.5c-.2-.867-.3-1.767-.3-2.7.067-1.467.334-2.767.8-3.9.467-1 1.1-1.9 1.9-2.7.8-.667 1.7-1.167 2.7-1.5 1-.333 2.034-.5 3.1-.5h.5c1.134.067 2.167.3 3.1.7 1 .4 1.867 1 2.6 1.8.8.733 1.367 1.667 1.7 2.8.4 1.133.6 2.433.6 3.9a8.243 8.243 0 0 1-.6 2.6c-.333 1-.8 1.833-1.4 2.5-1.533 1.533-3.7 2.267-6.5 2.2Zm-.3-.3c.134 0 .233.033.3.1 2.8.066 4.9-.667 6.3-2.2 1.5-1.5 1.9-3.5 1.9-4.9.3-6.3-3.9-8.8-7.8-9h-.3c-3.9-.1-8.2 2.1-8.4 8.4 0 1.4.2 3.4 1.6 5.1 1.4 1.6 3.5 2.5 6.4 2.5Z" clip-rule="evenodd"/>
  <path fill="#DFDFDF" d="M26.11 38c-1.2 0-3.6 0-4.8.4-1.1.3-3 1.8-3.8 2.8-1.1 1.4-1.4 4.5-1.4 4.5s7.2 1.8 12-.5c0 0 1.8 1.6 3.7 1.4 2.7-.4-1.2-6.2-1.2-6.2s-2.7-2.3-4.5-2.4Z" style="mix-blend-mode:multiply"/>
  <path fill="#DFDFDF" d="m29.81 42.7 1.5 3.7s.3 7.3-7.5 7.7h.3c6.5.4 8.5-3.7 8.7-7.1 0-2.2-.4-3.9-1.2-5.3-1 .3-1.8 1-1.8 1Z" style="mix-blend-mode:multiply"/>
  <path fill="#050505" fill-rule="evenodd" d="M24.41 54.3h-.3c-2.9-.1-5.2-1-6.6-2.7a6.893 6.893 0 0 1-1.3-2.5c-.2-.867-.3-1.767-.3-2.7.067-1.467.334-2.767.8-3.9.467-1 1.1-1.9 1.9-2.7.8-.667 1.7-1.167 2.7-1.5 1-.333 2.034-.5 3.1-.5h.5c1.134.067 2.167.3 3.1.7 1 .4 1.867 1 2.6 1.8.8.733 1.367 1.667 1.7 2.8.4 1.133.6 2.433.6 3.9a8.243 8.243 0 0 1-.6 2.6c-.333 1-.8 1.833-1.4 2.5-1.533 1.533-3.7 2.267-6.5 2.2Zm-.3-.3c.134 0 .233.033.3.1 2.8.066 4.9-.667 6.3-2.2 1.5-1.5 1.9-3.5 1.9-4.9.3-6.3-3.9-8.8-7.8-9h-.3c-3.9-.1-8.2 2.1-8.4 8.4 0 1.4.2 3.4 1.6 5.1 1.4 1.6 3.5 2.5 6.4 2.5Z" clip-rule="evenodd"/>
  <path fill="#050505" d="M17.31 38.7s-2.4 1.8-3 5.2c0 .2.3-1 1.5-2.2"/>
  <path fill="#050505" d="M24.01 35.2s-6.9-.7-9.5 9.4c0 0 .1.3.6.6.6.4 1 .7 1.7 1-.2-.8-.1-2.2 2-4.1 0 0-2.1 2.3-1.5 4.2 6.6 1.9 10.5-1.8 10.5-1.8-.2-.1 1.2 1.7 3.7 1.9.5-2-.7-3.9-.7-3.9 1.1 1.6 1.3 3.4 1.1 3.9.5.1 1.6.2 2.3 0 0 0 1.2-11.1-10.2-11.2Z"/>
  <path fill="#050505" d="M28.41 36.4s5.2.4 5.9 6.6c0 0-1.3-3.1-5.9-6.6Zm-4.4-1.2s-6-.7-9.5 6.4c0 0 4.7-3.8 9.5-6.4Z"/>
  <path fill="#050505" d="M29.31 36.4s-1.6-1.7-3.2-2.1c-1.7-.4-1.7-.2-1.7-.2s2.2.2 3.7 2.4"/>
  <path fill="#050505" d="M31.71 38.1s-1.2-.8-.1-1.6c0 0-.9-.2-1.1.4-.1-.7-.6-1.8-2.4-2.4 0 0 1 1.2-.1 1.4"/>
  <path fill="#DFDFDF" d="M25.41 49.3s-.5.7-1.2.7c-.8-.1-1.3-1-1.3-1s.8.5 1.2.5c.4 0 1.3-.2 1.3-.2Z" style="mix-blend-mode:multiply"/>
  <path fill="#050505" d="M24.11 49.6a.887.887 0 0 1-.4-.1l-.8-.3c-.067 0-.067-.033 0-.1 0-.067.033-.1.1-.1l.8.3c.2.1.5.1.6.1l.8-.3c.067 0 .133.033.2.1 0 .067-.033.1-.1.1l-.8.3h-.4Zm6-2.4c0-.067-.033-.1-.1-.1-.1-.6-.7-.9-1.3-.7a1.567 1.567 0 0 0-.4.3c-.067.066-.133.066-.2 0v-.2c.133-.134.3-.234.5-.3.7-.2 1.4.1 1.7.8 0 .066-.033.1-.1.1 0 .066-.033.1-.1.1Zm-11.8-.5h-.1v-.1c.3-.7 1-1 1.7-.7.134.067.267.2.4.4.067.067.067.1 0 .1-.066.067-.1.067-.1 0a1.566 1.566 0 0 0-.4-.3c-.6-.2-1.2 0-1.4.6h-.1Zm.3 1.2c0 .5.2.8.5.8s.5-.3.5-.7c0-.4-.2-.8-.5-.8s-.5.3-.5.7Z"/>
  <path fill="#FEFEFE" d="M19.41 47.7c0 .066-.033.133-.1.2-.066-.067-.1-.134-.1-.2 0-.067.034-.1.1-.1.067 0 .1.033.1.1Z"/>
  <path fill="#050505" d="M29.61 48.3c0 .5-.2.8-.5.8s-.5-.4-.5-.8.3-.8.6-.8c.2.1.5.4.4.8Z"/>
  <path fill="#FEFEFE" d="M29.41 48.1c0 .066-.033.1-.1.1-.066 0-.1-.034-.1-.1 0-.133.034-.2.1-.2.067 0 .1.067.1.2Z"/>
  <path fill="#050505" d="M25.21 51.5c-.333 0-.733-.067-1.2-.2-.067-.067-.067-.134 0-.2 0-.067.034-.067.1 0 1 .333 1.9.266 2.7-.2.6-.3 1-.7 1-.7 0-.067.034-.067.1 0 .067 0 .067.033 0 .1 0 0-.3.5-1 .8-.4.2-.9.4-1.7.4Z"/>
  <path fill="#DFDFDF" d="M25.41 51.8s1.9-.8 2.3-.5l-.1.4s-1.7.3-2.1.4c-.3 0-.6-.1-.1-.3Z" style="mix-blend-mode:multiply"/>
  <path fill="#050505" d="M41.51 49.8s-1.1-.3-1.6-1.5c-.1-.3-.5-.5-.9-.2-.5.5-.5 1.9.6 2.4s2.3-.5 1.9-.7Z"/>
  <path fill="#050505" d="M39.11 50.7s-.8-.6-.8-1.4c0 0-.4 1.2.8 1.4Z" opacity=".2" style="mix-blend-mode:multiply"/>
  <path fill="#803531" stroke="#050505" stroke-linecap="round" stroke-linejoin="round" stroke-width=".4" d="M48.41 53.3c-1.7.5-3.4.4-5 0-1.6-.3-1.2-2.5.4-2.2 1.6.3 2.3.4 4 0 .3-.1 1 .1 1.2.9.2.7-.2 1.2-.6 1.3Z"/>
  <path fill="#050505" d="M48.41 53.3c-1.7.5-3.4.4-5 0-1.6-.3-1.2-2.5.4-2.2.6.1.4 1.8 1.1 1.9.9.2 2.4.1 3.4-.1.4-.1.7-.4.7-.9.2.7-.2 1.2-.6 1.3Z" opacity=".4"/>
  <path fill="#050505" d="M46.41 51.7s.1.4-.3.5c0 0 .3.2.2.6-.1.3-.4.2-.4.2s.3.2.3.4c0 0 .1 0 .6.2.5.1.6-.1.6-.1s0 .5.2.6l-.2.1-2.2-.5.5-2.3.7.3Z" opacity=".2" style="mix-blend-mode:multiply"/>
  <path fill="#803531" d="M47.81 51.1c.3-.1.7-.2 1.1-.7.5-.5 1-.9 1.3-.7.3.3-.5 1-.4 1.6.1.6.1 1.3-.5 1.6-.2.134-.467.234-.8.3"/>
  <path stroke="#050505" stroke-linecap="round" stroke-linejoin="round" stroke-width=".4" d="M47.81 51.1c.3-.1.7-.2 1.1-.7.5-.5 1-.9 1.3-.7.3.3-.5 1-.4 1.6.1.6.1 1.3-.5 1.6-.2.134-.467.234-.8.3"/>
  <path fill="#803531" d="M47.41 52.3c.2.6.6.9 1.1.8.4-.1.7-.599.6-1.199-.2-.5-.6-.8-1.1-.7-.4.1-.7.6-.6 1.1Zm2.3.3.2-.3.6-.5c.1-.1.1-.4 0-.5-.2-.2-.4-.1-.5-.1l-.6.3"/>
  <path stroke="#050505" stroke-linecap="round" stroke-linejoin="round" stroke-width=".4" d="m49.71 52.6.2-.3.6-.5c.1-.1.1-.4 0-.5-.2-.2-.4-.1-.5-.1l-.6.3"/>
  <path fill="#803531" stroke="#050505" stroke-linecap="round" stroke-linejoin="round" stroke-width=".4" d="M44.51 62.2s-.7-2.3-.9-2.9c-.2-.8-.8-1-1.3-.8-.5.1-.9.501-.6 1.401.2.8.8 2.8.8 2.8.3 1.3 2.5.7 2-.5Z"/>
  <path fill="#050505" d="M43.01 62.5c.3.6 1.4.701.8.901-.5.1-1.2-.1-1.3-.7 0 0-.6-2-.8-2.8-.3-.9.1-1.3.6-1.4.5-.2 1.1 0 1.3.8.3.9-1.2.7-1 1.3 0 .2.2 1.5.4 1.9Z" opacity=".4"/>
  <path fill="#EE4763" stroke="#050505" stroke-linecap="round" stroke-linejoin="round" stroke-width=".4" d="M42.21 63.8v.1l3.4.2c.067 0 .1-.033.1-.1v-.2l-3.4-.2h-.1v.2Zm1.7-1.5s.1-.4.3-.4h.7c.2 0 0 .3-.1.4 0 .1-.1.4 0 .5l.3.5-.4.2-.8-.7v-.5Z"/>
  <path fill="#F69226" stroke="#050505" stroke-linecap="round" stroke-linejoin="round" stroke-width=".4" d="M42.31 63.601v-.8c0-.2.1-.3.3-.3.2 0 .4.2.8 0 .3-.1.4-.2.5-.2.2-.1.2 0 .2.2l.1.3.6.6v.3l-2.5-.1Z"/>
  <path fill="#FEFEFE" stroke="#050505" stroke-linecap="round" stroke-linejoin="round" stroke-width=".4" d="M45.71 63.8c0-.2-.4-.5-.6-.5-.4 0-.6.4-.6.4l1.2.1Z"/>
  <path stroke="#050505" stroke-linecap="round" stroke-linejoin="round" stroke-width=".4" d="M44.01 62.9c.2-.2.7-.2.9-.2m-.6.4c.1-.2.5-.2.7-.2m-.5.4c.2-.2.5-.2.6-.1"/>
  <path fill="#EE4763" stroke="#050505" stroke-linecap="round" stroke-linejoin="round" stroke-width=".4" d="M43.31 62.9c.3 0 .4.1.6.2l.6.6h-.5l-.3-.4c-.067-.066-.2-.1-.4-.1-.1 0-1-.1-1-.1v-.2h1Z"/>
  <path fill="#803531" stroke="#050505" stroke-linecap="round" stroke-linejoin="round" stroke-width=".4" d="M37.31 61.7s.9-2.2 1.2-2.7c.3-.8.9-.9 1.4-.7.5.2.8.7.4 1.5-.3.8-1.1 2.7-1.1 2.7-.5 1.2-2.6.3-1.9-.8Z"/>
  <path fill="#050505" d="M38.71 62.2c-.4.6-1.5.5-.9.7.5.3 1.1.2 1.4-.4 0 0 .8-1.9 1.1-2.7.4-.8.1-1.3-.4-1.5-.5-.2-1.1-.1-1.4.7-.4.8 1.1.8.9 1.4-.1.2-.4 1.4-.7 1.8Z" opacity=".4"/>
  <path fill="#EE4763" stroke="#050505" stroke-linecap="round" stroke-linejoin="round" stroke-width=".4" d="M39.31 63.6v.1l-3.4-.3c-.067 0-.1-.033-.1-.1v-.1c0-.066.033-.1.1-.1l3.4.3v.2Zm-1.5-1.7s0-.4-.3-.5h-.6c-.2 0 0 .2 0 .4 0 .1 0 .4-.1.5l-.3.5.4.2.8-.6.1-.5Z"/>
  <path fill="#F69226" stroke="#050505" stroke-linecap="round" stroke-linejoin="round" stroke-width=".4" d="M39.31 63.4v-.8c0-.2-.067-.3-.2-.3-.2 0-.4.1-.8-.1-.3-.2-.3-.3-.5-.3-.2-.1-.2 0-.2.1l-.1.4-.7.5-.1.3 2.6.2Z"/>
  <path fill="#FEFEFE" stroke="#050505" stroke-linecap="round" stroke-linejoin="round" stroke-width=".4" d="M35.91 63.1c0-.1.4-.4.6-.3.4 0 .6.4.6.4l-1.2-.1Z"/>
  <path stroke="#050505" stroke-linecap="round" stroke-linejoin="round" stroke-width=".4" d="M37.61 62.4c-.1-.2-.6-.3-.8-.2m.6.4c-.2-.2-.6-.2-.7-.2m.4.4c-.1-.2-.5-.3-.6-.2"/>
  <path fill="#EE4763" stroke="#050505" stroke-linecap="round" stroke-linejoin="round" stroke-width=".4" d="M38.31 62.6c-.2 0-.4 0-.6.1l-.6.5h.4l.4-.3c.067-.066.2-.066.4 0h1v-.2s-.9-.1-1-.1Zm6.4-5.1.6 1.9c-1.1.6-2.8.7-4.5 1.1l-.2-1.5c-.3-.9.5-1.7 1.5-2.1 1-.4 2.2-.3 2.6.6Z"/>
  <path stroke="#A0C7E9" stroke-dasharray=".4 .4" stroke-linecap="round" stroke-linejoin="round" stroke-width=".4" d="M44.91 59.1s-.8.4-3.9 1"/>
  <path fill="#050505" d="M44.71 57.5c.2.9-1.4 2.4-1.9 2.6-.6.2-1.4.2-2 .4l-.2-1.5c-.3-.9.5-1.7 1.5-2.1 1-.4 2.2-.3 2.6.6Z" opacity=".4"/>
  <path fill="#EE4763" stroke="#050505" stroke-linecap="round" stroke-linejoin="round" stroke-width=".4" d="m37.21 58.2-.3 1.2c1.2.4 2.9.7 4.6.7l.1-1c.1-.9-.8-1.8-1.9-2-1.1-.1-2.4.2-2.5 1.1Z"/>
  <path stroke="#A0C7E9" stroke-dasharray=".4 .4" stroke-linecap="round" stroke-linejoin="round" stroke-width=".4" d="M37.21 59.1s1 .6 4.1.6"/>
  <path fill="#050505" d="m37.21 58.2-.3 1.2c.4.1.9.4 1.3.5 0-1.3.2-2.7 1.5-2.8-1.1-.1-2.4.2-2.5 1.1Z" opacity=".4"/>
  <path fill="#F69226" stroke="#050505" stroke-linecap="round" stroke-linejoin="round" stroke-width=".4" d="M40.91 58.9c3.1 0 3.5-1.2 3.7-2.1.2-1.6-.1-4.2-.3-5.2-.4-1.5-1.6-2.1-3.4-2.1-1.7 0-3.5.5-3.6 2.1 0 1.3 0 3.6-.1 5.2.1 1.4.6 2 3.7 2.1Z"/>
  <path fill="#050505" d="M40.91 58.9c2.6 0 .9-4.8-.8-5.1 0 0-.6 1.6-.8 2.1-.3.8-1.1.8-.9-.1.3-1.6 1.2-2.6.6-4.1-.6-1.5 3.7-2.2 1.9-2.2-1.7 0-3.5.5-3.6 2.1-.1 1.3.2 3.8-.2 5.2.1 1.3.7 2 3.8 2.1Z" opacity=".4"/>
  <path fill="#803531" stroke="#050505" stroke-width=".4" d="M43.11 50.7c.3 1.2 0 2.1-1 2.1-.9 0-2-.9-2.4-2.1-.4-1.2.1-1.2 1.1-1.2.9 0 1.9 0 2.3 1.2Z"/>
  <path fill="#EE4763" stroke="#050505" stroke-linecap="round" stroke-linejoin="round" stroke-width=".4" d="M44.31 54.1c-.1-1.2-.1-2.6-1-4l-.5.4c.7 1.3.7 2.6.8 3.7l.7-.1Z"/>
  <path fill="#EE4763" d="M44.81 57c-.1-1.2-.6-3-.6-3s-.8.2-1.7.2c-.9 0-2.2-.2-2.2-.2l-1 2.9s-1.6.1-2.1-.3c-.1.6-.1 1 0 1.6.3.7 2.8 1 4.1 1 1.9 0 3.7-.2 3.5-2.2Z"/>
  <path fill="#050505" d="M38.51 56.9s-.9-.1-1.3-.3c-.1.6-.1 1 0 1.6.1.2.5.4 1.1.6-.2-.5 0-1.6.2-1.9Z" opacity=".4"/>
  <path stroke="#050505" stroke-linecap="round" stroke-linejoin="round" stroke-width=".4" d="M37.21 58.2c0-.5-.1-1.1 0-1.6.5.4 2.1.3 2.1.3l1-2.9s1.3.2 2.2.2c.9 0 1.7-.2 1.7-.2s.5 1.8.6 3c.2 2-1.6 2.2-3.5 2.2"/>
  <path fill="#EE4763" stroke="#050505" stroke-linecap="round" stroke-linejoin="round" stroke-width=".4" d="M40.81 54c0-1.3-.8-2.7-1.9-4.2l-.7.6c1 1.3 1.8 2.5 1.8 3.7l.8-.1Z"/>
  <path fill="#6ECFF5" stroke="#050505" stroke-linecap="round" stroke-linejoin="round" stroke-width=".4" d="M39.81 54.1c0 .3.2.6.6.6.3 0 .5-.3.5-.6s-.2-.6-.5-.6-.6.3-.6.6Z"/>
  <path fill="#050505" d="M40.01 54.5c.2.2.5.2.8 0 0 0-.4.1-.7-.2-.2-.2-.1-.6-.1-.6-.3.2-.3.6 0 .8Z" opacity=".4"/>
  <path fill="#6ECFF5" stroke="#050505" stroke-linecap="round" stroke-linejoin="round" stroke-width=".4" d="M43.61 54.2c.1.3.3.5.5.5.3-.1.4-.3.4-.7-.1-.3-.3-.5-.6-.4-.2 0-.3.3-.3.6Z"/>
  <path fill="#050505" d="M43.81 54.6c.2.2.5.1.6-.1 0 0-.3.1-.5-.1s-.2-.6-.2-.6c-.2.2-.1.6.1.8Z" opacity=".4"/>
  <path stroke="#A0C7E9" stroke-linecap="round" stroke-linejoin="round" stroke-width=".4" d="M40.01 57.1h-.1v-.2"/>
  <path stroke="#A0C7E9" stroke-dasharray=".4 .4" stroke-linecap="round" stroke-linejoin="round" stroke-width=".4" d="m40.11 56.6.4-1.3"/>
  <path stroke="#A0C7E9" stroke-linecap="round" stroke-linejoin="round" stroke-width=".4" d="M40.61 55.1V55h.2"/>
  <path stroke="#A0C7E9" stroke-dasharray=".4 .4" stroke-linecap="round" stroke-linejoin="round" stroke-width=".4" d="M41.11 55h2.7"/>
  <path stroke="#A0C7E9" stroke-linecap="round" stroke-linejoin="round" stroke-width=".4" d="M43.91 55h.2v.1"/>
  <path stroke="#A0C7E9" stroke-dasharray=".4 .4" stroke-linecap="round" stroke-linejoin="round" stroke-width=".4" d="m44.21 55.5.3 1.3"/>
  <path stroke="#A0C7E9" stroke-linecap="round" stroke-linejoin="round" stroke-width=".4" d="M44.51 56.9v.2h-.1"/>
  <path stroke="#A0C7E9" stroke-dasharray=".4 .4" stroke-linecap="round" stroke-linejoin="round" stroke-width=".4" d="m44.11 57.2-1.8.7-2.1-.7"/>
  <path fill="#050505" d="M37.81 50.5c2.2 3.3 6.9 1.7 6.2.5-1.1-2.1-6.8-1.4-6.2-.5Z" opacity=".4"/>
  <path fill="#050505" d="M42.71 49s-1.1 0-1.8-1c-.2-.3-.7-.3-.9 0-.4.6 0 1.9 1.1 2.1 1.1.3 2-1 1.6-1.1Z"/>
  <path fill="#050505" d="M40.71 50.4s-.9-.3-1.1-1c0 0-.1 1.1 1.1 1Z" opacity=".2" style="mix-blend-mode:multiply"/>
  <path fill="#803531" stroke="#050505" stroke-width=".4" d="M34.71 45.1c.1 3.8 2.7 6.7 7 6.7 5.5.1 6.5-2.8 6.7-6.9.2-3.7-3.2-6.7-6.9-6.7-3.8.1-6.8 3.2-6.8 6.9Z"/>
  <path fill="#050505" d="M41.51 38.2c3.7 0 7.1 3 6.9 6.7v.7c-.4.3-2.1-.5-1.7-1.5-.7.8-2.1.2-2.7-.5-.6 1-1.8.8-2.1.5.3.4-.8 1.7-1.9 1.2.9 1.3-.9 2.7-1.3 2.4-.7 1-.3 2.3.2 2.9.6.7 2 1.1 2.7 1.2h-.2c-4.1-.2-6.6-3-6.7-6.7 0-3.7 3-6.8 6.8-6.9Z" opacity=".2" style="mix-blend-mode:multiply"/>
  <path fill="#FEFEFE" d="M46.41 47.5s.4-2 1.5-1.2c0 0-.1 1.3-.9 1.5-.4.1-.6-.3-.6-.3Zm-2.2-.3s-.2-1.9-2.8-1.5c0 0-.1 1.5 1.2 1.8 1.2.3 1.6-.3 1.6-.3Z"/>
  <path fill="#050505" d="M46.11 48.4s-.1.2-.6.2-.9-.3-.9-.3 0 .5.4.7c.4.2.9-.1 1.1-.6Z" opacity=".2" style="mix-blend-mode:multiply"/>
  <path fill="#050505" d="M44.51 48.2s.1.6.9.6c.6 0 .8-.5.8-.5s-.3.2-.7.1c-.5 0-1-.2-1-.2Zm-8.6.2-2.6-3.1.3-4.1 4.4-5s5.3-.1 5.4-.1c.1 0 4.6 1.2 4.6 1.3 0 .1 1.8 3.1 1.8 3.1l-.1 2.8-1.5.5-2.3-2.5-8.3 3.2-1.7 3.9Z"/>
  <path fill="#050505" d="M36.91 48.3c-.1.8-.8 1.3-1.5 1.2-.7-.1-1.2-.8-1.1-1.5.1-.7.7-1.2 1.5-1.1.7.1 1.2.7 1.1 1.4Z"/>
  <path fill="#050505" d="M37.51 46.7c-.1.6-.7 1-1.3 1-.6-.1-1.1-.7-1-1.3.1-.7.7-1.1 1.3-1 .6 0 1.1.6 1 1.3Zm3.9-10.6c-.1 1.2-1.2 2-2.4 1.9-1.2-.1-2-1.2-1.8-2.4.1-1.2 1.2-2 2.4-1.8 1.1.1 2 1.2 1.8 2.3Zm8 7.6c-.1.6-.7 1.1-1.3 1-.6-.1-1.1-.6-1-1.3.1-.6.7-1.1 1.3-1 .6.1 1.1.7 1 1.3Zm-7.9-.5c-.1.7-.7 1.2-1.4 1.1-.7-.1-1.2-.7-1.1-1.4.1-.7.7-1.2 1.4-1.1.7 0 1.2.7 1.1 1.4Z"/>
  <path fill="#050505" d="M44.21 41.8c-.2 1-1 1.6-1.9 1.5-.9-.1-1.6-1-1.5-1.9.1-.9 1-1.6 1.9-1.4.9.1 1.6.9 1.5 1.8Zm4.2 2.9c.7.1 1.2.7 1.1 1.4 0 .7-.7 1.2-1.4 1.2 0 0 .2-1.1.3-2.6Zm1.5-7c-.2 1.1-1.2 1.9-2.4 1.8-1.2-.2-2-1.2-1.8-2.4.1-1.1 1.2-1.9 2.3-1.8 1.2.2 2 1.2 1.9 2.4Zm-14 9.1c-.1 1.1-1.1 1.8-2.1 1.7-1-.2-1.8-1.1-1.6-2.1.1-1.1 1-1.8 2.1-1.7 1 .2 1.7 1.1 1.6 2.1Zm3.7-2.4c-.2 1-1.1 1.8-2.1 1.6-1.1-.1-1.8-1-1.7-2.1.1-1 1.1-1.7 2.1-1.6 1 .1 1.8 1.1 1.7 2.1Zm-1.4-7.1c-.2 1.1-1.1 1.8-2.1 1.7-1.1-.2-1.8-1.1-1.7-2.1.2-1.1 1.1-1.8 2.1-1.7 1.1.2 1.8 1.1 1.7 2.1Z"/>
  <path fill="#050505" d="M51.41 43.5c-.1 1-1 1.7-2.1 1.6-1-.1-1.7-1.1-1.6-2.1.1-1 1.1-1.8 2.1-1.6 1 .1 1.8 1 1.6 2.1Zm-16.1.1c-.2 1.3-1.3 2.2-2.6 2-1.3-.2-2.2-1.3-2-2.6.1-1.3 1.3-2.2 2.6-2 1.3.1 2.2 1.3 2 2.6Z"/>
  <path fill="#050505" d="M48.31 41.5c-.2 1.3-1.3 2.2-2.6 2-1.3-.1-2.2-1.3-2-2.6.1-1.2 1.3-2.2 2.6-2 1.2.2 2.2 1.3 2 2.6Z"/>
  <path fill="#050505" d="M51.41 40.3c-.1 1.3-1.3 2.2-2.6 2-1.3-.2-2.2-1.3-2-2.6.1-1.3 1.3-2.2 2.6-2 1.3.1 2.2 1.3 2 2.6Zm-4-3.5c-.2 1.7-2 2.9-4 2.7-2-.3-3.4-1.9-3.2-3.6.2-1.8 2-3 4-2.7 2 .2 3.5 1.8 3.2 3.6Zm-11.2 2.9c-.1 1.2-1.2 2.1-2.4 2-1.3-.2-2.1-1.3-2-2.5.2-1.2 1.3-2.1 2.5-1.9 1.2.1 2.1 1.2 1.9 2.4Z"/>
  <path stroke="#38170E" stroke-linecap="round" stroke-linejoin="round" stroke-width=".4" d="M35.21 46.1c.3.3.8.2 1.2-.1.3-.4.2-.9-.1-1.2-.4-.3-.9-.3-1.2.1m.6-5.4c-.1-.8-.8-1.4-1.6-1.4-.8.1-1.4.8-1.3 1.6m10.7.3c-.3-.9-1.3-1.5-2.2-1.2-.9.2-1.5 1.2-1.3 2.1m-1.5-2c0-.5-.4-.9-.9-.9-.5.1-.9.5-.9 1m13.9 5.3c.4-.8.1-1.7-.7-2.1m-13.4-6.3c-.7.1-1.2.6-1.2 1.3m11 2.4c0-1.3-1-2.3-2.3-2.3m-6.4 8.1c.7 0 1.3-.5 1.3-1.2m8.9-.1c.3.3.7.3 1 .1.3-.3.3-.8.1-1.1m-11.9.5c.9-.1 1.6-.8 1.6-1.7-.1-.9-.8-1.6-1.7-1.5-.9 0-1.5.7-1.5 1.6m-.6 6.1c-.1.4.1.8.5.9.4.2.8-.1.9-.5m-2.6-3.2c-.7.3-1 1.1-.7 1.8.3.7 1.1 1 1.8.7m14.2-10.2c.3-.6 0-1.3-.6-1.5-.2-.2-.6-.2-.8-.1m-8.3 2c.9.1 1.8-.5 1.9-1.4.1-.9-.5-1.7-1.4-1.9-.9-.1-1.7.5-1.9 1.4m3.6-1.1c.5-.5 1.3-.9 2.2-.9 1.7-.1 3 1.1 3 2.6m-6.4 7.1c.5 0 .9-.4.8-1 0-.5-.4-.9-.9-.9-.5.1-.9.5-.9 1m9.5 3.8c.4-.3.5-.9.2-1.3m.3-3.6c1.1 0 1.9-.9 1.8-1.9 0-1-.9-1.8-1.9-1.8-1 .1-1.8.9-1.8 2m-2.7-.1c-.7.7-.6 1.9.2 2.6.8.6 2 .5 2.7-.3m-13.2-.3c-.8-.5-1.8-.4-2.4.3-.5.8-.4 1.8.3 2.4"/>
  <path fill="#855226" d="M47.41 47.1c-.1.4-.4.6-.6.5-.2-.1-.3-.4-.1-.8.1-.4.4-.7.6-.6.2.1.3.5.1.9Z"/>
  <path fill="#050505" d="M47.11 47c0 .1-.1.2-.2.2s-.2-.1-.2-.2c0-.2.1-.3.2-.3.2 0 .2.1.2.3Z"/>
  <path fill="#FEFEFE" d="M47.31 46.6v.2c-.067 0-.1-.067-.1-.2 0-.067.033-.1.1-.1s.067.033 0 .1Z"/>
  <path fill="#855226" d="M41.81 46.3c-.1.4.2.9.6.9.4.1.8-.2.9-.6.1-.5-.2-.9-.6-1-.4 0-.8.2-.9.7Z"/>
  <path fill="#050505" d="M42.31 46.4c0 .1.1.3.2.3.2 0 .3-.1.3-.2 0-.2-.1-.3-.2-.3s-.3.1-.3.2Z"/>
  <path fill="#FEFEFE" d="M42.81 46.2c0 .1 0 .1.1.1s.2 0 .2-.1-.1-.2-.1-.2c-.1 0-.2.1-.2.2Z"/>
  <path stroke="#050505" stroke-linecap="round" stroke-linejoin="round" stroke-width=".4" d="m48.21 45.5-.3.8s-1.1-.6-1.5 1.2"/>
  <path stroke="#050505" stroke-linecap="round" stroke-linejoin="bevel" stroke-width=".4" d="m47.81 45.6-.2.6"/>
  <path stroke="#050505" stroke-linecap="round" stroke-linejoin="round" stroke-width=".4" d="m40.91 44.9.5.7s2.5-.2 2.8 1.6"/>
  <path stroke="#050505" stroke-linecap="round" stroke-linejoin="bevel" stroke-width=".4" d="m41.61 44.9.3.7"/>
  <path stroke="#050505" stroke-linecap="round" stroke-width=".4" d="M47.01 44.9s.7-.6 1 .2m-3.8-.5s-.8-1-2-.2"/>
  <path stroke="#050505" stroke-linecap="round" stroke-linejoin="bevel" stroke-width=".4" d="M44.21 50s-1.2.2-2.3-.4"/>
  <path fill="#803531" stroke="#050505" stroke-linecap="round" stroke-linejoin="round" stroke-width=".4" d="M34.51 48.4c.4 1.9 1.3 3.3 2.3 4.6 1.1 1.3 2.9-.2 1.8-1.5-1-1.2-1.4-1.8-1.8-3.5-.1-.3-.6-.9-1.4-.7-.8.2-1 .8-.9 1.1Z"/>
  <path fill="#050505" d="M34.51 48.4c.4 1.9 1.3 3.3 2.3 4.6 1.1 1.3 2.9-.2 1.8-1.5-.4-.5-1.7.5-2.2 0-.6-.8-1.2-2.2-1.5-3.2-.1-.3 0-.7.5-1-.8.2-1 .8-.9 1.1Z" opacity=".4"/>
  <path fill="#050505" d="M36.91 49.5s-.5.1-.4.5c0 0-.3-.1-.5.1-.3.3-.1.5-.1.5s-.3-.2-.4-.1c0 0-.1-.1-.5-.4-.4-.4-.3-.6-.3-.6s-.3.2-.6.1v.2l1.5 1.7 1.8-1.5-.5-.5Z" opacity=".2" style="mix-blend-mode:multiply"/>
  <path fill="#803531" stroke="#050505" stroke-linecap="round" stroke-width=".4" d="M34.61 46.7c-.5.5-.5 1.4 0 1.8.5.5 1.3.4 1.8-.2.5-.5.5-1.4 0-1.8-.5-.5-1.3-.4-1.8.2Z"/>
  <path fill="#803531" stroke="#050505" stroke-linecap="round" stroke-width=".4" d="M36.41 47.2c-.2 0-.4.1-.4.4 0 .2.2.3.4.3h.4c.2 0 .4-.1.4-.3 0-.2-.2-.4-.4-.4h-.4Z"/>
  <path fill="#050505" d="M34.51 47.2s-.1.6.4 1c.5.3 1-.2 1-.2s-.2-.3 0-.5c0 0 0 .5.6.4v.4s-.8 1-1.7.4c-.9-.7-.5-1.4-.3-1.5Z" opacity=".2" style="mix-blend-mode:multiply"/>
  <path fill="#DD4297" d="m67.01 26-53.3 5.2-.5-4.7 53.2-4.9.6 4.4Zm-8.9-8.3-52.6 5-.6-4.4 52.9-5 .3 4.4Z"/>
  <path fill="#FEFEFE" fill-rule="evenodd" d="M22.71 6.8c.9-.1 2-.1 1.8 2.8-.2 2.7-1.1 2.9-2.5 3l-.5.1.4-5.9h.8Zm-.1.7-.3 4.5c1.2-.1 1.2-1.3 1.3-2.2.1-.9.3-2.5-1-2.3Z" clip-rule="evenodd"/>
  <path fill="#FEFEFE" d="M25.61 12.3h-.7l.3-5.8h.8l-.4 5.8Zm0-6-.4-.2.7-1.2.5.2-.8 1.2Z"/>
  <path fill="#FEFEFE" fill-rule="evenodd" d="m28.21 6.3.8 5.7h-.8l-.1-1.1-1.1.1-.3 1.2-.8.1 1.7-6h.6Zm-.3 3.3-.1-2.1-.7 3 .9-.1-.1-.8Zm4-3.7c.9 0 1.9-.1 1.7 2.9-.1 2.6-1 2.9-2.4 3h-.5l.4-5.8.8-.1Zm-.2.7-.3 4.5c1.3-.1 1.3-1.3 1.4-2.3 0-.9.2-2.4-1.1-2.2Z" clip-rule="evenodd"/>
  <path fill="#FEFEFE" d="m36.51 5.5-.1.7-1.3.1-.1 1.8 1.1-.1v.7l-1.1.1-.2 2 1.3-.1v.6l-2.1.2.4-5.8 2.1-.2Zm2.5-.2-.4 5.1 1.3-.1v.7l-2.1.2.4-5.8.8-.1Z"/>
  <path fill="#FEFEFE" fill-rule="evenodd" d="m42.01 5 .8 5.7-.8.1-.1-1.1-1.1.1-.3 1.1-.8.1 1.7-5.9.6-.1Zm-.3 3.2-.1-2.1-.7 3 .9-.1-.1-.8Z" clip-rule="evenodd"/>
  <path fill="#FEFEFE" d="m4.81 26.7.5 2.5.2-.7.6-1.9.7-.1-1.2 3.2-.1 2.4h-.7l.1-2.3-.8-3 .7-.1Zm5.5-.5-.1.6-1.2.2-.1 1.7 1.1-.1v.6l-1.1.1-.1 1.8 1.2-.1-.1.7-1.9.1.4-5.4 1.9-.2Zm1.1-.1-.3 4.8 1.1-.1v.6l-1.9.2.4-5.4.7-.1Zm-.2-3.9-.6.1-1.2-2-.1 2.9-2.2.2.4-7.1 2-.2 1.6 2.6 1.9-2.9 1.9-.2-.3 7.1-2.1.2.1-2.9-1.4 2.2Z"/>
  <path fill="#FEFEFE" fill-rule="evenodd" d="m20.31 15.1 2.3 6.9-2.3.2-.2-.7-2.3.2-.3.8-2.3.2 3-7.4 2.1-.2Zm-1.8 4.6 1-.1-.5-1.5-.5 1.6Z" clip-rule="evenodd"/>
  <path fill="#FEFEFE" d="m25.61 16.7-.1.6 2.8-.2-.1 1.8-2.8.3v.6l3-.3-.1 2-5.1.5.3-7.2 5.2-.4-.1 2-3 .3Zm4.9 2c.533.467 1.1.667 1.7.6.4 0 .6-.133.6-.4 0-.066-.1-.133-.3-.2a7.095 7.095 0 0 1-.9-.3 3.57 3.57 0 0 1-.9-.3 4.65 4.65 0 0 1-.9-.7c-.2-.266-.3-.633-.3-1.1.067-.4.267-.866.6-1.4.4-.5 1.2-.9 2.2-1 .7 0 1.4.1 1.8.4.4.2.8.5.9.7l.1.2-1.5 1.2c-.2-.266-.4-.433-.6-.5-.2-.066-.467-.066-.8 0-.3 0-.5.2-.5.3 0 .2.4.4.8.5.267 0 .533.067.8.2.333.134.6.267.8.4.267.134.467.334.6.6.2.267.267.567.2.9 0 .5-.2 1-.6 1.5-.5.5-1.3.9-2.3 1-.8.067-1.433-.066-1.9-.4-.533-.266-.9-.6-1.1-1l1.5-1.2Zm7-3.1-1.9.1.1-2 6-.5-.1 2-2 .2-.2 5.1-2.1.2.2-5.1Z"/>
  <path fill="#FEFEFE" fill-rule="evenodd" d="m48.51 19.7-2.6.2-1.4-1.7-.2.1v1.8l-2.1.1.3-7.1 2.9-.2c.1-.1.2-.1.5 0 .4 0 .8.1 1.2.3.4.2.7.5.9 1.1.067.267.1.6.1 1-.066 1-.5 1.767-1.3 2.3l1.7 2.1Zm-4-4.8v1.4l.8-.1c.4-.066.6-.3.6-.7 0-.4-.2-.7-.6-.6h-.8Zm9.3-2.8 2.3 6.9-2.3.2-.2-.7-2.3.2-.3.7-2.3.2 3-7.3 2.1-.2Zm-1.8 4.5 1-.1-.4-1.4-.6 1.5Z" clip-rule="evenodd"/>
  <path fill="#FEFEFE" d="M19.41 30.5h-.5l-1.2-2-.2 2.9-2.1.2.4-7.1 1.9-.2 1.6 2.6 1.9-2.9 2-.2-.4 7.2-2.1.2.2-3-1.5 2.3Z"/>
  <path fill="#FEFEFE" fill-rule="evenodd" d="m28.61 23.4 2.2 6.8-2.3.3-.2-.8-2.3.2-.2.8-2.3.2 2.9-7.4 2.2-.1Zm-1.7 4.6.9-.1-.4-1.5-.5 1.6Z" clip-rule="evenodd"/>
  <path fill="#FEFEFE" d="M33.81 24.9v.7l2.8-.3-.1 1.8-2.8.3v.6l3-.3-.1 2-5.1.5.3-7.1 5.1-.5-.1 2-3 .3Zm5 2c.533.467 1.067.7 1.6.7.4-.067.633-.2.7-.4 0-.133-.133-.233-.4-.3a15.29 15.29 0 0 1-.8-.3 5.696 5.696 0 0 1-1-.3 1.624 1.624 0 0 1-.8-.7c-.2-.267-.3-.6-.3-1 0-.467.2-.933.6-1.4.4-.5 1.2-1 2.2-1.1.7 0 1.4.1 1.8.4.4.3.7.6.9.8l.1.1-1.5 1.2c-.267-.267-.5-.433-.7-.5h-.7c-.3 0-.5.2-.5.3 0 .2.3.4.8.5l.8.2.8.4c.267.133.467.333.6.6.133.267.2.567.2.9 0 .5-.2 1-.7 1.5-.4.5-1.2.9-2.2 1-.8.067-1.467-.067-2-.4-.467-.267-.8-.6-1-1l1.5-1.2Zm7-3.1-1.9.2.1-2 6-.6-.1 2-2 .2-.2 5.1-2.1.2.2-5.1Z"/>
  <path fill="#FEFEFE" fill-rule="evenodd" d="m56.71 27.9-2.5.2-1.4-1.6h-.2l-.1 1.8-2.1.2.4-7.2 2.9-.2h.5c.4 0 .7.1 1.1.3.5.3.7.6.9 1.1.133.333.167.667.1 1 0 1-.4 1.767-1.2 2.3l1.6 2.1Zm-4-4.7-.1 1.3.9-.1c.334 0 .534-.233.6-.7 0-.4-.2-.6-.6-.6l-.8.1Zm8.1-2.9c1.067-.067 1.933.2 2.6.8.733.667 1.067 1.533 1 2.6-.067 1-.467 1.9-1.2 2.7-.733.734-1.633 1.167-2.7 1.3-1.067.067-1.933-.2-2.6-.8-.667-.666-.967-1.533-.9-2.6 0-1 .4-1.9 1.2-2.7.733-.8 1.6-1.233 2.6-1.3Zm-.2 5.4c.4-.067.767-.267 1.1-.6.333-.333.5-.733.5-1.2 0-.466-.133-.867-.4-1.2-.267-.267-.6-.4-1-.4-.467.067-.833.267-1.1.6-.333.334-.5.733-.5 1.2-.067.467.033.867.3 1.2.333.267.7.4 1.1.4Z" clip-rule="evenodd"/>
  <path fill="#050505" d="M61.51 5h2.3l-.2 9.7-2.7-.1.2-7c-.667.2-1.233.333-1.7.4l.1-2.5 2-.5Zm5.2.1h2.3l-.2 9.7-2.6-.1.1-6.9c-.667.133-1.234.233-1.7.3l.1-2.5 2-.5Z"/>
  <path fill="#FEFEFE" d="m62.81 3.7 2.3.1-.2 9.6h-2.7l.2-7c-.667.134-1.233.267-1.7.4l.1-2.6 2-.5Zm5.2.1 2.3.1-.2 9.6h-2.7l.2-7c-.667.2-1.233.334-1.7.4l.1-2.5 2-.6Z"/>
</svg>
