<svg xmlns="http://www.w3.org/2000/svg" width="86" height="119" fill="none" viewBox="0 0 86 119">
  <path fill="#ED2930" d="m17.9 18 55.9 5.3-7.9 91.8-56.7-5.5L17.9 18Z"/>
  <path fill="#9B181B" d="m65.9 115.101-56.7-5.5-7.9 4.099 54.7 5.201 9.9-3.8Z"/>
  <path fill="#66141B" d="m17.9 18-8.2 6.6-8.4 89.1 7.9-4.1L17.9 18Z"/>
  <mask id="a" width="17" height="97" x="1" y="17" maskUnits="userSpaceOnUse" style="mask-type:luminance">
    <path fill="#fff" d="m17.85 17.95-8.17 6.67-8.39 89.06 7.88-4.14 8.68-91.59Z"/>
  </mask>
  <g mask="url(#a)">
    <path stroke="#ED2930" stroke-width=".4" d="m9.2.6-31.7 86.3M10.5 4l-31.7 86.4m33-82.9-31.7 86.4m33-82.9-31.6 86.4m32.9-82.9-31.6 86.401M15.8 18l-31.7 86.301m33-82.801-31.7 86.301m33-82.901-31.7 86.4m33-82.9L-12 114.8m33-82.9-31.7 86.4m33-82.9-31.6 86.4m33-82.9L-8 125.2m33-82.8-31.7 86.3m33-82.9-31.7 86.401m33-82.901-31.7 86.401m33-82.901-31.7 86.401m33-82.901-31.6 86.401M31.5 59.8-.1 146.102m33-82.802L1.2 149.602M35.5 70.2 3.8 156.6m33-82.9L9.2.6m26.1 77.2L7.7 4.7m26.1 77.2L6.2 8.8m26.1 77.3L4.7 12.9m26.1 77.3L3.2 17m26.1 77.3L1.6 21.1m26.2 77.3L.1 25.2m26.1 77.301-27.6-73.2m26.1 77.3-27.6-73.1M23.2 110.7-4.4 37.6m26.1 77.2L-5.9 41.7m26.1 77.301-27.6-73.2M18.7 123.1-8.9 49.9m26.1 77.3L-10.4 54m26.1 77.301-27.6-73.2M14.2 135.4l-27.6-73.2m26.1 77.3L-15 66.4m26.2 77.201-27.7-73.1M9.7 147.7-18 74.6m26.1 77.3-27.6-73.2m26.1 77.301-27.6-73.2M5.1 160.1l-27.6-73.2"/>
  </g>
  <path fill="#EBAE9B" stroke="#050505" stroke-linecap="round" stroke-linejoin="round" stroke-width=".4" d="M62.3 37.7c-.7.7-1.3.6-1.5.5-.3-.2-.8.3-1 0-.2-.2-2.3-1.8-2.6-2.1-.3-.2.7-.9.7-.9 2.2-1.5 3.7-1 4.5-.2.8.8.6 1.9-.1 2.7Z"/>
  <path fill="#EBAE9B" d="M59.7 37.8c-.9.8-1 1.1-1 1.1-.2.3-.2.5 0 .7.1.2.5.3.7.1.4-.4 1-1.1 1.4-1.5 0 0 .6.1.9-.1"/>
  <path stroke="#050505" stroke-linecap="round" stroke-linejoin="round" stroke-width=".4" d="M59.7 37.8c-.9.8-1 1.1-1 1.1-.2.3-.2.5 0 .7.1.2.5.3.7.1.4-.4 1-1.1 1.4-1.5 0 0 .6.1.9-.1"/>
  <path fill="#EBAE9B" d="M58.9 37c-.8.6-1.4 1.5-1.4 1.5-.2.3-.2.6 0 .7.2.2.5.2.7.1.2-.2.2-.2.5-.7 0 0 .4-.4.9-.8"/>
  <path stroke="#050505" stroke-linecap="round" stroke-linejoin="round" stroke-width=".4" d="M58.9 37c-.8.6-1.4 1.5-1.4 1.5-.2.3-.2.6 0 .7.2.2.5.2.7.1.2-.2.2-.2.5-.7 0 0 .4-.4.9-.8"/>
  <path fill="#EBAE9B" d="M57.9 36.4c-.8.8-1.4 1.5-1.4 1.5-.2.3-.2.6 0 .8.2.2.5.2.7 0 .3-.2.4-.5 1-1.1l.6-.6"/>
  <path stroke="#050505" stroke-linecap="round" stroke-linejoin="round" stroke-width=".4" d="M57.9 36.4c-.8.8-1.4 1.5-1.4 1.5-.2.3-.2.6 0 .8.2.2.5.2.7 0 .3-.2.4-.5 1-1.1l.6-.6"/>
  <path fill="#EBAE9B" d="M59.2 34.5c-2.1.9-3.5 2.7-3.5 2.7-.2.2-.2.6 0 .8.2.2.5.2.7 0 .7-.6 1.6-1.6 1.8-1.6"/>
  <path stroke="#050505" stroke-linecap="round" stroke-linejoin="round" stroke-width=".4" d="M59.2 34.5c-2.1.9-3.5 2.7-3.5 2.7-.2.2-.2.6 0 .8.2.2.5.2.7 0 .7-.6 1.6-1.6 1.8-1.6"/>
  <path fill="#050505" d="M60.8 38c.1 0 .8-.1.5-.7-.4-.4-.9-1.1-1.5-1.5-.7-.4-1.3-.7-1.2-.9.2-.3 2.3-1.3 3.9.2.4.3.6 1 .3 1.6-.3.7-.9 1.5-1.4 1.5-.5 0-.6-.2-.6-.2Zm-2.5-2.1s-.6.2-1 .5c-.4.4-1.4 1.2-1.1 1.5h.3s0 .4.3.6c.3.1.8-.3.8-.3s-.1.6.3.7c.4 0 .5-.2.5-.2s0 .4.4.5c.3.1.8 0 1.1-.3.3-.3.8-.9.8-.9s-.4.1-.8-.3c-.5-.3-.9-.7-.9-.7l-.7-1.1Z" opacity=".1"/>
  <path stroke="#4C4B4B" stroke-linecap="round" stroke-linejoin="round" stroke-width=".4" d="M54.7 33c-.1.1 0 .4.2.6m-.5-.2c-.1.1 0 .3.2.5m-.6-.2c-.1.1 0 .4.2.6m-.5-.2c-.1.1 0 .3.2.5m-.6-.2c-.1.1 0 .4.2.6m-.5-.2c-.1.1 0 .3.1.5m-.5-.2c-.1.1 0 .4.2.6m-.5-.2c-.1.1 0 .3.1.5m-.5-.2c-.1.1 0 .4.2.6m-.5-.2c-.1.1-.1.3.1.5m-.5-.2c-.1.1 0 .4.2.6m-.5-.2c-.1.1-.1.3.1.5m-.5-.2c-.1.1 0 .4.2.6m-.5-.2c-.1.1-.1.3.1.5m-.5-.2c-.1.1 0 .4.2.6m-.5-.2c-.1.1-.1.3.1.5"/>
  <path fill="#FAB76B" stroke="#873F1D" stroke-linecap="round" stroke-linejoin="round" stroke-width=".4" d="m57.7 46.9 5.6-5.6c.2-.2.2-.5 0-.7l-7.4-7.5c-.2-.2-.5-.2-.8 0l-5.5 5.6c-.2.2-.2.6 0 .8l7.4 7.4c.2.2.5.2.7 0Z"/>
  <path fill="#FAFCFC" stroke="#979696" stroke-linecap="round" stroke-linejoin="round" stroke-width=".4" d="m57.3 46.8 5.8-5.8-7.8-7.8-5.8 5.8 7.8 7.8Z"/>
  <path fill="#FAFCFC" stroke="#979696" stroke-linecap="round" stroke-linejoin="round" stroke-width=".4" d="M63.4 40.8s-1.2-.8-7.9-7.6L49.7 39c6.7 6.8 7.9 7.6 7.9 7.6l5.8-5.8Z"/>
  <path fill="#FAFCFC" stroke="#979696" stroke-linecap="round" stroke-linejoin="round" stroke-width=".4" d="M63.8 40.6s-1.4-.6-8.1-7.4L49.9 39c6.7 6.8 8.1 7.4 8.1 7.4l5.8-5.8Z"/>
  <path stroke="#4C4B4B" stroke-linecap="round" stroke-linejoin="round" stroke-width=".4" d="M55.4 33.7c.1-.1.1-.3-.1-.5s-.5-.3-.6-.2m.4 1.1c.1-.1 0-.4-.2-.5-.2-.2-.4-.3-.5-.2m.3 1c.1-.1 0-.3-.1-.5-.2-.2-.5-.3-.6-.2m.4 1.1c.1-.1 0-.4-.2-.5-.2-.2-.4-.3-.5-.2m.3 1c.1-.1 0-.3-.1-.5-.2-.2-.5-.3-.6-.2m.4 1.1c.1-.1 0-.3-.2-.5s-.4-.3-.5-.2m.3 1c.1-.1 0-.3-.2-.5-.1-.2-.4-.3-.5-.2m.4 1.1c.1-.1 0-.3-.2-.5s-.4-.3-.5-.2m.3 1c.1-.1 0-.3-.2-.5-.1-.2-.4-.3-.5-.2m.4 1.1c.1-.1 0-.3-.2-.5s-.4-.3-.5-.2m.3 1c.1-.1 0-.3-.2-.5s-.4-.3-.5-.2m.4 1.1c.1-.1 0-.3-.2-.5s-.4-.3-.5-.2m.3 1c.1-.1 0-.3-.2-.5s-.4-.3-.5-.2m.4 1.1c.1-.1 0-.3-.2-.5s-.4-.3-.5-.2m.3 1.1c.1-.1 0-.4-.2-.6-.2-.2-.4-.3-.5-.2m.4 1.1c.1-.1 0-.3-.2-.5s-.4-.3-.5-.2"/>
  <path fill="#EBAE9B" d="M59.5 36.6s-.1 0-.5.6c-.4.3-.5.5-.8.6-.3.1-.5 0-.7-.3-.1-.2 0-.5.3-.8.3-.3.4-.4.6-.8 0 0 .2-.5 0-.6"/>
  <path stroke="#050505" stroke-linecap="round" stroke-linejoin="round" stroke-width=".4" d="M59.5 36.6s-.1 0-.5.6c-.4.3-.5.5-.8.6-.3.1-.5 0-.7-.3-.1-.2 0-.5.3-.8.3-.3.4-.4.6-.8 0 0 .2-.5 0-.6"/>
  <path fill="#7AC057" stroke="#050505" stroke-linecap="round" stroke-linejoin="round" stroke-width=".4" d="m59 34.3 1.2-.9c.733 1.4 1.733 2.5 3 3.3l-.9 1.1c-1.3-.8-2.6-2.3-3.3-3.5Z"/>
  <path fill="#050505" d="M62.1 35.8c.3.3.7.7 1.1.9l-.9 1.1a7.196 7.196 0 0 1-1.1-.9l.9-1.1Z" opacity=".3" style="mix-blend-mode:multiply"/>
  <path stroke="#5B9041" stroke-linecap="round" stroke-linejoin="round" stroke-width=".4" d="m60.5 34-1.1.9m1.6-.3-1.1.9m1.6-.2-1 1m1.6-.5-.9 1.1m1.5-.5-.9 1.1"/>
  <path stroke="#050505" stroke-linecap="round" stroke-linejoin="round" stroke-width=".4" d="m59 34.3 1.2-.9c.733 1.4 1.733 2.5 3 3.3l-.9 1.1c-1.3-.8-2.6-2.3-3.3-3.5Z"/>
  <path fill="#7AC056" stroke="#050505" stroke-linecap="round" stroke-linejoin="round" stroke-width=".4" d="M72.6 23.2c1.5 1.2.7 3.2-.1 4.3-.3.4-1.4 1.9-3.8 4.5-2.8 3-4.8 4.9-5.5 4.7-.5-.1-3.1-2.8-3-3.3.1-.9 1.7-1.4 4.6-4.7 1.8-2.2 3-4 3.7-4.9 1-1.3 2.6-1.6 4.1-.6Z"/>
  <path fill="#050505" d="M72.3 23c.067.067.167.133.3.2 1.5 1.2.7 3.2-.1 4.3-.3.4-1.4 1.9-3.8 4.5-2.8 3-4.8 4.9-5.5 4.7-.1 0-.6-.4-1.1-.9 1.2-1 3.7-3.1 5.5-4.9 2.4-2.4 3.7-4 3.9-4.4.7-.9 1.4-2.4.8-3.5Z" opacity=".3" style="mix-blend-mode:multiply"/>
  <path fill="#050505" d="M84.4 59.6c0 .8-3.6 1.5-8.1 1.5s-8.1-.7-8.1-1.5c0-.9 3.6-1.6 8.1-1.6s8.1.7 8.1 1.6Z" opacity=".3"/>
  <path fill="#050505" stroke="#050505" stroke-linecap="round" stroke-linejoin="round" stroke-width=".4" d="M71 57.4c-1 .5-2.3 1.4-2.1 2.2H74l.8-.8v.8h1.9l-.2-2.2c0-3.2-5.5-3.1-5.5 0Z"/>
  <path fill="#2E6BAF" stroke="#050505" stroke-linecap="round" stroke-linejoin="round" stroke-width=".4" d="M69.7 40.3c0-4.4 7.4-4.5 7 0l-.1 17.1h-5.8s-1.1-10.9-1.1-17.1Z"/>
  <path fill="#050505" d="M74 43.3 72.8 37c2-.2 4.1.9 3.9 3.3l-.1 17.1h-2c-.2-3.7-.6-9.4-.6-14.1Z" opacity=".3" style="mix-blend-mode:multiply"/>
  <path fill="#050505" stroke="#050505" stroke-linecap="round" stroke-linejoin="round" stroke-width=".4" d="M76.7 57.4c-1 .5-2.3 1.4-2.1 2.2h5l.9-.8v.8h1.8l-.1-2.2c0-3.2-5.5-3.1-5.5 0Z"/>
  <path fill="#2E6BAF" stroke="#050505" stroke-linecap="round" stroke-linejoin="round" stroke-width=".4" d="M75.3 40.3c0-4.4 7.5-4.5 7.1 0l-.1 17.1h-5.8s-1.2-10.9-1.2-17.1Z"/>
  <path fill="#050505" d="M79.6 43.3 78.5 37c1.9-.2 4.1.9 3.9 3.3 0 0-.2 16.9-.1 17.1h-2c-.2-3.7-.6-9.4-.7-14.1Z" opacity=".3" style="mix-blend-mode:multiply"/>
  <path fill="#2E6BAF" d="M69.2 39.7c0 1.7 1.1 3.7 6.4 3.7h1c2.2 0 5.9.4 5.9-3.7 0-4.2-3.5-6.7-6.8-6.7s-6.5 2-6.5 6.7Z"/>
  <path fill="#050505" d="M69.2 39.7c0 .7 1 1.4 6.4 1.4 1.2 0 2.9-.1 2.9-.1.8 0 1.1 1.4 1.1 2.3 1.6-.3 2.9-1.1 2.9-3.6 0-4.2-3.5-6.7-6.8-6.7s-6.5 2-6.5 6.7Z" opacity=".3" style="mix-blend-mode:multiply"/>
  <path stroke="#050505" stroke-linecap="round" stroke-linejoin="round" stroke-width=".4" d="M81.7 42.2c.5-.5.8-1.3.8-2.5 0-4.2-3.5-6.7-6.8-6.7s-6.5 2-6.5 6.7c0 1.7 1.1 3.7 6.4 3.7h1.7"/>
  <path fill="#7AC057" stroke="#050505" stroke-linecap="round" stroke-linejoin="round" stroke-width=".4" d="M68.7 38.4c.3.5-.1 1.2 0 1.5.1.3 2.2.9 6.8.9 4.5 0 6.9-.6 7.3-.8.4-.1-.1-1-.1-1.6h-14Z"/>
  <path stroke="#5B9041" stroke-linecap="round" stroke-linejoin="round" stroke-width=".4" d="m69.5 38.6-.1 1.6m.9-1.4-.1 1.6m1-1.5-.1 1.6m11.2-1.9.2 1.5m-1-1.4.2 1.6m-1-1.4.3 1.5m-1-1.5.2 1.6M79.1 39l.3 1.6M78.2 39l.2 1.7m-1-1.6.1 1.6m-1-1.6v1.6M72.2 39l-.1 1.6m1.2-1.6-.1 1.7m1.2-1.6-.1 1.6m1.2-1.6-.1 1.7"/>
  <path stroke="#050505" stroke-linecap="round" stroke-linejoin="round" stroke-width=".4" d="M68.7 38.4c.3.5-.1 1.2 0 1.5.1.3 2.2.9 6.8.9 4.5 0 6.9-.6 7.3-.8.4-.1-.1-1-.1-1.6h-14Z"/>
  <path fill="#7AC057" stroke="#050505" stroke-linecap="round" stroke-linejoin="round" stroke-width=".4" d="M75.1 39.1c-3.7-.1-5.6-.3-6.4-.7-.7-.5-.9-1.1-.5-3.8.3-1.9.1-4.5.2-7.1 0-2.3.4-4.1 1.4-4.8.4-.3 4.5-1.5 7.5-1.6 3.2-.1 3.9.4 5.3.9 1.3.6 1.5 1.7 1.1 4.7-.4 3.1-.5 6.5-.4 7.7.1 1.7 1 3.5-1 4.2-1.1.3-3.4.5-7.2.5Z"/>
  <path fill="#050505" d="M82.6 22c1.3.6 1.5 1.7 1.1 4.7-.4 3.1-.5 6.5-.4 7.7.1 1.5.9 3.2-.6 4 0 .6.5 1.5.1 1.6-.2.1-1 .3-2.3.5l-.2-1.6c1.1-.6.7-6 .5-8-.1-2.2 1.5-5.9.8-7.1-.6-1-2.3-1.2-2.3-1.2-1.5.2-2.7.1-2.7.1l.2-1.5c.2-.066.367-.1.5-.1 3.2-.1 3.9.4 5.3.9Z" opacity=".3" style="mix-blend-mode:multiply"/>
  <path stroke="#5B9041" stroke-linecap="round" stroke-linejoin="round" stroke-width=".4" d="m73.4 28.8-.2 1.3m.5-1.5.6.9m0-1.3.6.8m0-1.3.7.8m.1-1.5.7.8m-.1-1.5.7.8m-.1-1.5.8.8m-.2-1.4.8.7m-.2-1.5.9.7m-.3-1.5.8.7m-.3-1.4.9.5m-.5-1.2.9.4m-.6-.9 1 .2M73 28.5l-.5.9m.2-1.6-.8.7m.5-1.5-.9.5m.7-1.3-1 .3m.8-1.1-1 .2m.8-1.2-.9.1m.8-.9-.8.2m.8-.8-.7.1m.8-.7-.7.1"/>
  <path stroke="#050505" stroke-linecap="round" stroke-linejoin="round" stroke-width=".4" d="M73.2 30.1c-.6 0-3.2-4-2-7.9 1.6-.4 4.1-1 6.1-1.1 1.8 0 2.9.1 3.7.3-1.7 4.5-7.2 8.7-7.8 8.7Z"/>
  <path fill="#C8C7C7" stroke="#050505" stroke-linecap="round" stroke-linejoin="round" stroke-width=".4" d="M79.5 20.1c-.2.9-4 2.8-5.2 3.2l-.8 1.1-.3-1.3c-1-.4-1.2-1.4-1.2-1.4 1-2.2 7.6-2.5 7.5-1.6Z"/>
  <path fill="#EBAE9B" stroke="#050505" stroke-linecap="round" stroke-linejoin="round" stroke-width=".4" d="M72.4 25v-8.1c0-4.1 7.1-4.4 7.1 0v4.2c0 1.3-3.5 3.9-7.1 3.9Z"/>
  <g opacity=".3" style="mix-blend-mode:multiply">
    <path fill="#050505" d="M74.9 21.3s-2.4 0-2.4-1.1c0 0-.1-1.9-.1-3.3 0-4.1 7.1-4.4 7.1 0v4.2c0 .6-.8 1.6-2.1 2.4 0-1.4-1-2.2-2.5-2.2Z"/>
    <path stroke="#050505" stroke-linecap="round" stroke-linejoin="round" stroke-width=".4" d="M74.9 21.3s-2.4 0-2.4-1.1c0 0-.1-1.9-.1-3.3 0-4.1 7.1-4.4 7.1 0v4.2c0 .6-.8 1.6-2.1 2.4 0-1.4-1-2.2-2.5-2.2Z"/>
  </g>
  <path fill="#FEFEFE" stroke="#050505" stroke-linecap="round" stroke-linejoin="round" stroke-width=".4" d="M80 21.2c-1.7 3.6-6.2 7.7-6.6 7.6-.4 0-2.1-4.1-1.6-6.8l.2-.3s.2 1 1.2 1.4l.3 1.3.8-1.1c1.2-.4 5-2.3 5.2-3.2.1-.5.6.3.5 1.1Z"/>
  <g opacity=".3" style="mix-blend-mode:multiply">
    <path fill="#050505" d="M74.3 23.3c1.2-.4 5-2.3 5.2-3.2.1-.5.6.3.5 1.1-.1.8-2.9 5.8-4.3 6.4 0 0 .5-3.2-.9-4.1"/>
    <path stroke="#050505" stroke-linecap="round" stroke-linejoin="round" stroke-width=".4" d="M74.3 23.3c1.2-.4 5-2.3 5.2-3.2.1-.5.6.3.5 1.1-.1.8-2.9 5.8-4.3 6.4 0 0 .5-3.2-.9-4.1"/>
  </g>
  <path fill="#FEFEFE" d="M74.3 23.3c1.2-.4 5-2.3 5.2-3.2.1-.5.6.3.5 1.1-.1.8-2.4 5-3.7 5.9 0 0-.1-2.7-1.5-3.6"/>
  <path stroke="#050505" stroke-linecap="round" stroke-linejoin="round" stroke-width=".4" d="M74.3 23.3c1.2-.4 5-2.3 5.2-3.2.1-.5.6.3.5 1.1-.1.8-2.4 5-3.7 5.9 0 0-.1-2.7-1.5-3.6"/>
  <g opacity=".3" style="mix-blend-mode:multiply">
    <path fill="#050505" d="M73.2 23.1c-1-.4-1.2-1.4-1.2-1.4s-1 3.3.1 5.5c0 0 .2-2.5.7-3.7"/>
    <path stroke="#050505" stroke-linecap="round" stroke-linejoin="round" stroke-width=".4" d="M73.2 23.1c-1-.4-1.2-1.4-1.2-1.4s-1 3.3.1 5.5c0 0 .2-2.5.7-3.7"/>
  </g>
  <path fill="#FEFEFE" d="M73.2 23.1c-1-.4-1.2-1.4-1.2-1.4s-1.3 2.8-.1 5c0 0-.1-2.3.9-3.2"/>
  <path stroke="#050505" stroke-linecap="round" stroke-linejoin="round" stroke-width=".4" d="M73.2 23.1c-1-.4-1.2-1.4-1.2-1.4s-1.3 2.8-.1 5c0 0-.1-2.3.9-3.2m.7.9s-.5.5-.5.8c0 .3.6.6.6 1.1.1.5-.3.5-.2 1.7"/>
  <path fill="#050505" d="M79.5 20.1c.1-.5.6.3.5 1.1 0 .3-.2.7-.5 1.3l-.2.1c-.1-.4-.9-.9-1.5-1 .9-.6 1.6-1.1 1.7-1.5Z" opacity=".3" style="mix-blend-mode:multiply"/>
  <path stroke="#646464" stroke-linecap="round" stroke-linejoin="round" stroke-width=".4" d="M75.5 1.9c0-.4.5-.9.9-.9m-.1 1c.2-.4.7-.6 1.2-.5m-2.7.4c.1-.2-.1-.5-.3-.6"/>
  <path fill="#646464" stroke="#050505" stroke-linecap="round" stroke-linejoin="round" stroke-width=".4" d="M70.1 4c-.5.8-2.2 1.8-1.8 3.7-.7.6-.6 1.9-.1 2.4-.4.9.2 2 1 1.9 1.1-.1 1.8-2.2 1.8-4.4s-.2-4.4-.9-3.6Z"/>
  <path stroke="#050505" stroke-linecap="round" stroke-linejoin="round" stroke-width=".4" d="M69.4 6.3c-.5 0-.7.4-.9 1.1m.6.6c-.6.1-.6 1-.7 1.8" opacity=".3" style="mix-blend-mode:multiply"/>
  <path fill="#EBAE9B" d="M80.6 14.8c-.4 1.7-2.6 6.9-7.9 6.9-1.1 0-1.8-.2-2.4-1-.7-.7-2.1-2.4-2.1-5.1 0-2.1.5-4.3.6-5.8 0-1.1.2-4.5 1.4-6 1.3-1.4 2.8-1.9 5.1-1.9s3.7.6 4.8 2.3c1 1.7 1.5 5.9 1.2 7.3"/>
  <path stroke="#050505" stroke-linecap="round" stroke-linejoin="round" stroke-width=".4" d="M80.6 14.8c-.4 1.7-2.6 6.9-7.9 6.9-1.1 0-1.8-.2-2.4-1-.7-.7-2.1-2.4-2.1-5.1 0-2.1.5-4.3.6-5.8 0-1.1.2-4.5 1.4-6 1.3-1.4 2.8-1.9 5.1-1.9s3.7.6 4.8 2.3c1 1.7 1.5 5.9 1.2 7.3"/>
  <path fill="#646464" stroke="#050505" stroke-linecap="round" stroke-linejoin="round" stroke-width=".4" d="m80.5 15.3.8-4.3c-1.1.8-.6 1.7-.9 1.7-1.2-.2-1.2-3.1-.8-3.5.8-.8 1.5-3.7.2-5.4 1 .4 1.6.9 1.9 1.7.3.3 1.1 1.3 1 2.3 1.1.5 1.1 2.2.6 3.1.8 1-.2 3-.9 2.9 0 1-1.2 2.1-1.9 1.5Z"/>
  <path stroke="#050505" stroke-linecap="round" stroke-linejoin="round" stroke-width=".4" d="M80.8 7.1c1.2 0 2.1 2.2 2.3 3.5m-2.4-2.1c1.2.5 1.7 3 1.5 4.8m-2.4-3.8c0 .8.1 1.8.9 2.3m1.6-4.3c-.1-.4-.8-1.6-1.5-1.5" opacity=".3" style="mix-blend-mode:multiply"/>
  <g opacity=".3" style="mix-blend-mode:multiply">
    <path fill="#050505" d="M74.4 21.5c3.7-.8 5.5-4.4 6.1-6.2.3.3 1.6.2 1.9-1.5 0 0 .4-5.4-.7-8.3-.6-1.4-1.9-1.7-1.9-1.7-.9-1.2-2.2-1.8-3.7-1.8 4.3 1.9 1.4 5.8 1.4 8.6 0 1.8.9 2.7.7 5.2-.2 2-1.6 5-3.8 5.7Z"/>
    <path stroke="#050505" stroke-linecap="round" stroke-linejoin="round" stroke-width=".4" d="M74.4 21.5c3.7-.8 5.5-4.4 6.1-6.2.3.3 1.6.2 1.9-1.5 0 0 .4-5.4-.7-8.3-.6-1.4-1.9-1.7-1.9-1.7-.9-1.2-2.2-1.8-3.7-1.8 4.3 1.9 1.4 5.8 1.4 8.6 0 1.8.9 2.7.7 5.2-.2 2-1.6 5-3.8 5.7Z"/>
  </g>
  <path stroke="#646464" stroke-linecap="round" stroke-linejoin="round" stroke-width=".4" d="M75 2.7c.2.5-.2 1.7.5 1.8m-.9-1.8c0 .4-1.3 1.8-.8 2.3m.3-2.4c.1.4-1.7 1-1.6 1.5"/>
  <path fill="#FEFEFE" stroke="#050505" stroke-linecap="round" stroke-linejoin="round" stroke-width=".4" d="M71.1 10.8c0-1-2.2-1-2.2 0 0 .8 2.2.9 2.2 0Zm3.2 0c0-1 2.7-1 2.7 0 0 .8-2.7.9-2.7 0Z"/>
  <path fill="#3E1F10" stroke="#050505" stroke-width=".4" d="M70.8 10.7c0-.3-.3-.6-.6-.6-.4 0-.6.3-.6.6 0 .4.2.6.6.6.3 0 .6-.2.6-.6Z"/>
  <path fill="#050505" d="M70.8 10.7c0-.3-.3-.6-.6-.6-.4 0-.6.3-.6.6 0 0 .1-.2.6-.2.4 0 .6.2.6.2Z" opacity=".5"/>
  <path fill="#050505" d="M70.4 10.7c0-.1-.1-.2-.2-.2-.2 0-.3.1-.3.2 0 .2.1.3.3.3.1 0 .2-.1.2-.3Z"/>
  <path fill="#FEFEFE" d="M70.1 10.6c0-.1-.1-.2-.2-.2s-.2.1-.2.2.1.2.2.2.2-.1.2-.2Z"/>
  <path fill="#3E1F10" stroke="#050505" stroke-width=".4" d="M76.5 10.7c0-.3-.3-.6-.6-.6s-.6.3-.6.6c0 .4.3.6.6.6s.6-.2.6-.6Z"/>
  <path fill="#050505" d="M76.5 10.7c0-.3-.3-.6-.6-.6s-.6.3-.6.6c0 0 .2-.2.6-.2.4 0 .6.2.6.2Z" opacity=".5"/>
  <path fill="#050505" d="M76.2 10.7c0-.1-.2-.2-.3-.2-.2 0-.3.1-.3.2 0 .2.1.3.3.3.1 0 .3-.1.3-.3Z"/>
  <path fill="#FEFEFE" d="M75.8 10.6c0-.1 0-.2-.2-.2-.1 0-.2.1-.2.2s.1.2.2.2c.2 0 .2-.1.2-.2Z"/>
  <path fill="#EBAE9B" stroke="#050505" stroke-linecap="round" stroke-linejoin="round" stroke-width=".4" d="M71 10.4c-.4-.6-1.8-.5-2.1.2.4-.3 1.5-.4 2.1-.2Zm3.4 0c.5-.6 2.2-.5 2.6.2-.5-.3-1.9-.4-2.6-.2Z"/>
  <path stroke="#050505" stroke-linecap="round" stroke-linejoin="round" stroke-width=".4" d="M69.8 16.7c.1.3.4.5.9.6.5.1 3 .1 3.7 0 .8-.2 1.2-.5 1.4-.7"/>
  <path fill="#524C41" stroke="#050505" stroke-linecap="round" stroke-linejoin="round" stroke-width=".4" d="M71.1 9c.1.1.1.5.1.6-.1 0-.5-.3-1.2-.4-.8 0-1.4.2-1.6.3-.1.1.1-.8.4-.9.3-.2 1.6-.3 2.3.4Zm2.7 0c-.1.1-.1.5 0 .6.1 0 .6-.3 1.6-.4 1.1 0 1.9.2 2.2.3.2.1-.1-.8-.4-.9-.5-.2-2.4-.3-3.4.4Z"/>
  <path fill="#050505" d="M70.2 14.4c0 .8.6 1.4 2.1 1.4s1.8-.9 1.9-1.4c0-.4-3.9-.6-4 0Z" opacity=".1"/>
  <path fill="#EBAE9B" d="M71.7 10.7c-.7.5-.9 2.2-1 2.3-.2.1-.5.9-.6 1.1-.1.3-.1.8.1 1 .2.2.7.7 1.2.7.6-.1.8-.3 1.1-.4.4-.2.8-.1 1.1-.1.2 0 .6-.3.6-.7 0-.4-.6-1.1-1.2-.8"/>
  <path stroke="#050505" stroke-linecap="round" stroke-linejoin="round" stroke-width=".4" d="M71.7 10.7c-.7.5-.9 2.2-1 2.3-.2.1-.5.9-.6 1.1-.1.3-.1.8.1 1 .2.2.7.7 1.2.7.6-.1.8-.3 1.1-.4.4-.2.8-.1 1.1-.1.2 0 .6-.3.6-.7 0-.4-.6-1.1-1.2-.8"/>
  <path fill="#63C9E1" stroke="#42110D" stroke-linecap="round" stroke-linejoin="round" stroke-width=".4" d="M74.1 12.6c.2.3.9.6 1.5.6.7 0 1.3 0 1.7-.5.5-.4.6-1.4.6-1.9 0-.9-.9-1-2-1h-.7c-1.2 0-1.8-.1-1.8.8 0 .8.3 1.5.7 2Zm-6.5.1c.3.5.9.5 1.5.5.5 0 1.1-.3 1.3-.6.4-.5.7-1.2.7-2 0-.9-.6-.8-1.7-.8h-.5c-1 0-1.8.1-1.8 1 0 .5.1 1.5.5 1.9Z" opacity=".3"/>
  <path fill="#060507" fill-rule="evenodd" stroke="#050505" stroke-linecap="round" stroke-linejoin="round" stroke-width=".4" d="M69.1 9.4c1.3 0 2.3.1 2.5.9.1-.2.9-.2 1.2 0 .2-.8 1.3-.9 2.8-.9 1.5 0 2.8 0 3.1.3v.7l-.4.4c0 .2 0 1.2-.3 1.7s-.7 1-2.2 1c-1.4 0-2.1-.6-2.4-1.1-.2-.5-.5-1.3-.7-1.5-.2-.3-.8-.4-1.1 0-.2.2-.4 1-.6 1.5-.2.5-.9 1.1-2.1 1.1-1.3 0-1.6-.5-1.9-1-.2-.5-.3-1.5-.3-1.7l-.3-.4v-.7c.3-.3 1.4-.3 2.7-.3Zm5 3.2c.2.3.9.6 1.5.6.7 0 1.3 0 1.7-.5.5-.4.6-1.4.6-1.9 0-.9-.9-1-2-1h-.7c-1.2 0-1.8-.1-1.8.8 0 .8.3 1.5.7 2Zm-6.5.1c.3.5.9.5 1.5.5.5 0 1.1-.3 1.3-.6.4-.5.7-1.2.7-2 0-.9-.6-.8-1.7-.8h-.5c-1 0-1.8.1-1.8 1 0 .5.1 1.5.5 1.9Z" clip-rule="evenodd"/>
  <path fill="#060507" stroke="#050505" stroke-linecap="round" stroke-linejoin="round" stroke-width=".4" d="M82.5 11c.2.1.9 1.2 1.1 1.3.1.1.5-.2.5-.3.1-.2-1-1.2-1.4-1.3-.4-.2-3.8-1-3.8-1v.7s3.4.5 3.6.6Z"/>
  <path fill="#E7B299" d="M81.1 11.3s.9-1 1.3-1.3c.2-.2.7-.2.8.4.3 1.9-.6 4.1-1.2 4.8-.5.7-1.2.7-1.5.1-.4-.6.4-3.7.6-4Z"/>
  <path stroke="#050505" stroke-linecap="round" stroke-linejoin="round" stroke-width=".4" d="M81.1 11.3s.9-1 1.3-1.3c.2-.2.7-.2.8.4.3 1.9-.6 4.1-1.2 4.8-.5.7-1.2.7-1.5.1"/>
  <path stroke="#050505" stroke-linecap="round" stroke-linejoin="round" stroke-width=".4" d="M81.2 13.7c.9-.4 1.1-1.8.2-1.4.7-1.3 1.8-2.9 1.5-.6"/>
  <path fill="#050505" d="M81.1 11.3s.9-1 1.3-1.3c.2-.2.7-.2.8.4.3 1.9-.6 4.1-1.2 4.8-.5.7-1.2.7-1.5.1-.4-.6.4-3.7.6-4Z" opacity=".3" style="mix-blend-mode:multiply"/>
  <path fill="#EBAE9B" stroke="#050505" stroke-linecap="round" stroke-linejoin="round" stroke-width=".4" d="M70.9 29.1c1 .8 1.8 1.2 2.9 1.2.7.1 1.3-.4 1.7-1 .2-.2 1.2-1.7-.1-2.7-.4-.2-.8-.4-1.1-.8-.2-.2-.3-.3-.8-.6-.2-.1-.9.4-1 .5.2.2.2.3.2.4-.2.2-.5.1-1-.3-.4-.3-.7-.1-.7-.1l-.2 1.4s-.4 1.6.1 2Z"/>
  <path fill="#EBAE9B" d="M74 25.5s-.6-.4-1.1-.7c-.6-.3-.9-.4-1.1-.4-.2.1-.5.3-.5.5-.067.267.1.434.5.5.3.1.5.1.8.5"/>
  <path stroke="#050505" stroke-linecap="round" stroke-linejoin="round" stroke-width=".4" d="M74 25.5s-.6-.4-1.1-.7c-.6-.3-.9-.4-1.1-.4-.2.1-.5.3-.5.5-.067.267.1.434.5.5.3.1.5.1.8.5"/>
  <path fill="#050505" d="M71.9 25.1s0-.1.4 0c.3.2.9.7.5.7v.1h-.1c-.4-.4-.6-.4-.9-.5-.333-.133-.5-.3-.5-.5v.1c.5.4.6.1.6.1Z" opacity=".1"/>
  <path fill="#FBE109" d="m71.3 28.9-1.1-.4 2-5.1s.3-.1.6 0c.4.2.5.4.5.4l-2 5.1Z"/>
  <path stroke="#050505" stroke-linecap="round" stroke-linejoin="round" stroke-width=".4" d="m70.6 28.6 1.9-5.1M71 28.8l1.9-5.1"/>
  <path fill="#D99D56" d="m71.4 28.7-.4.1-.1-.3-.3.1-.3-.4-.1.3.1 1.6 1-1.2.1-.2Z"/>
  <path fill="#181818" d="m70.3 29.3.5.2-.5.6v-.8Z"/>
  <path fill="#050505" d="m70.3 30.1 1-1.2 2-5.1-.3-.3-2.1 5.4-.6 1.2Z" opacity=".2"/>
  <path fill="#C72026" d="M72.2 23.4s.4-.1.6 0c.3.2.5.4.5.4s-.3.1-.7 0c-.3-.2-.4-.4-.4-.4Z"/>
  <path stroke="#050505" stroke-linecap="round" stroke-linejoin="round" stroke-width=".4" d="m70.2 28.5 2-5.1s.3-.1.6 0c.4.2.5.4.5.4l-1.9 4.9-.1.2-1 1.2-.1-1.6Z"/>
  <path fill="#EBAE9B" d="M73.8 25.4c.2.1.3.2.5.4.3.4.7.6 1.1.8 1.3 1 .3 2.5.1 2.7-.4.6-1 1.1-1.7 1-1.1 0-1.9-.4-2.9-1.2-.5-.4-.1-2-.1-2l.2-1.4s.3-.2.7.1c.5.4.8.5 1 .3 0-.1.1-.2.1-.2"/>
  <path stroke="#050505" stroke-linecap="round" stroke-linejoin="round" stroke-width=".4" d="M73.8 25.4c.2.1.3.2.5.4.3.4.7.6 1.1.8 1.3 1 .3 2.5.1 2.7-.4.6-1 1.1-1.7 1-1.1 0-1.9-.4-2.9-1.2-.5-.4-.1-2-.1-2l.2-1.4s.3-.2.7.1c.5.4.8.5 1 .3 0-.1.1-.2.1-.2"/>
  <path fill="#EBAE9B" d="M70.4 27.4c-.2-.1-.1.2-.3.3-.133.2-.1.433.1.7 0 0 .3.7 2.2 1.6"/>
  <path stroke="#050505" stroke-linecap="round" stroke-linejoin="round" stroke-width=".4" d="M70.4 27.4c-.2-.1-.1.2-.3.3-.133.2-.1.433.1.7 0 0 .3.7 2.2 1.6"/>
  <path fill="#EBAE9B" d="M71 27.2c-.4-.4-.4-.4-.6-.5-.2-.2-.4-.2-.6 0-.2.2-.1.4 0 .6 0 0 .2.4 1.3 1.3"/>
  <path stroke="#050505" stroke-linecap="round" stroke-linejoin="round" stroke-width=".4" d="M71 27.2c-.4-.4-.4-.4-.6-.5-.2-.2-.4-.2-.6 0-.2.2-.1.4 0 .6 0 0 .2.4 1.3 1.3"/>
  <path fill="#EBAE9B" d="M71.3 26.6c-.6-.4-.8-.6-1-.8-.2-.1-.4-.2-.6 0-.2.2-.1.4.1.6 0 0 .2.4 1.4 1.3"/>
  <path stroke="#050505" stroke-linecap="round" stroke-linejoin="round" stroke-width=".4" d="M71.3 26.6c-.6-.4-.8-.6-1-.8-.2-.1-.4-.2-.6 0-.2.2-.1.4.1.6 0 0 .2.4 1.4 1.3"/>
  <path fill="#EBAE9B" d="M71.3 26.8c-1.2-.8-1.4-1.2-1.4-1.2-.1-.3-.2-.4 0-.6.1-.2.4-.3.6-.1.7.5 1.4 1.2 1.7 1.2"/>
  <path stroke="#050505" stroke-linecap="round" stroke-linejoin="round" stroke-width=".4" d="M71.3 26.8c-1.2-.8-1.4-1.2-1.4-1.2-.1-.3-.2-.4 0-.6.1-.2.4-.3.6-.1.7.5 1.4 1.2 1.7 1.2"/>
  <path fill="#050505" d="M71 26.7s-.7-.2-1.3-.9l.2-.1 1.1 1Zm0 1s-.7-.2-1.3-1h.2l1.1 1Zm0 .9s-.4.1-1-.6l.2-.3.8.9Zm3.5-2.6c.2.3.6.5.9.6 1.3 1 .3 2.5.1 2.7-.4.6-1 1.1-1.7 1-.7 0-1.3-.2-1.9-.5 0-.7 1.7-3.5 2.6-3.8Z" opacity=".3"/>
  <path fill="#7AC057" stroke="#050505" stroke-linecap="round" stroke-linejoin="round" stroke-width=".4" d="M81 33.7c-2.7.2-5.7-1.4-7.3-2.6-.1 0-.3-.2-.3-.4.2-1 1.6-3.3 2.4-3.8.2-.1.5.1.6.1.9.5 2.3 1 3.2 1.2.2-.6.3-1.3.3-2.3-.1-.7 0-3.1 2.4-3.4 2.4-.2 2.9 2.8 3 3.5.3 4.9-1.7 7.4-4.3 7.7Z"/>
  <path fill="#050505" d="M74 29.3c1.2.9 4.6 3.1 7 2.9 2.5-.2 3.1-3.9 2.9-6.3-.2-2.5-1.6-3.4-1.6-3.4 2.4-.2 2.9 2.8 3 3.5.3 4.9-1.7 7.4-4.3 7.7-2.7.2-5.7-1.4-7.3-2.6-.1 0-.3-.2-.3-.4l.6-1.4Z" opacity=".3" style="mix-blend-mode:multiply"/>
  <path stroke="#050505" stroke-linecap="round" stroke-linejoin="round" stroke-width=".4" d="m79.6 28.2.4.1"/>
  <path fill="#7AC057" stroke="#050505" stroke-linecap="round" stroke-linejoin="round" stroke-width=".4" d="m74.7 26 1.1.9a10.256 10.256 0 0 0-2.4 3.8l-1.2-.6c.4-1.5 1.5-3.1 2.5-4.1Z"/>
  <path fill="#050505" d="M74 29.3c-.2.4-.4.9-.6 1.4l-1.2-.6c.133-.466.3-.933.5-1.4l1.3.6Z" opacity=".3" style="mix-blend-mode:multiply"/>
  <path stroke="#5B9041" stroke-linecap="round" stroke-linejoin="round" stroke-width=".4" d="m75.4 27.4-1.1-.9m.6 1.5-1.1-.9m.6 1.5-1.2-.7m-.5.8 1.3.6m-.4.8-1.2-.6"/>
  <path stroke="#050505" stroke-linecap="round" stroke-linejoin="round" stroke-width=".4" d="m74.7 26 1.1.9a10.256 10.256 0 0 0-2.4 3.8l-1.2-.6c.4-1.5 1.5-3.1 2.5-4.1Z"/>
  <path fill="#7358A4" d="M72.9 62.3 11.7 57l.3-4.5 61.2 5.6-.3 4.2Zm-3.7-9.5L8.4 47.6l.3-4.2 61.1 5.2-.6 4.2Z"/>
  <path fill="#FEFEFE" fill-rule="evenodd" d="M32.9 29.8c.8.1 1.7.3 1 2.8-.6 2.4-1.4 2.4-2.6 2.3l-.5-.1 1.3-5h.8Zm-.2.5-1 4c1.1.1 1.3-1 1.6-1.8.1-.8.6-2.1-.6-2.2Z" clip-rule="evenodd"/>
  <path fill="#FEFEFE" d="m34.5 35.2-.7-.1 1.3-5.1.7.1-1.3 5.1Zm.9-5.3-.3-.2.9-1 .3.3-.9.9Z"/>
  <path fill="#FEFEFE" fill-rule="evenodd" d="m37.7 30.3-.1 5.2-.7-.1v-1l-1-.1-.4 1-.7-.1 2.4-5 .5.1Zm-.7 2.9.2-1.9-1.1 2.5.8.1.1-.7Z" clip-rule="evenodd"/>
  <path fill="#FEFEFE" d="m18.9 37-.3 1.7-.5 1.8h-.7l1.3-5.1.6.1.3 3.9.3-2 .5-1.8h.7l-1.3 5.1-.7-.1-.2-4v.4Z"/>
  <path fill="#FEFEFE" fill-rule="evenodd" d="m23 35.8-.2 5.2-.7-.1.1-1-1-.1-.5 1-.6-.1 2.4-4.9h.5Zm-.8 2.8.2-1.9-1 2.5.8.1v-.7Z" clip-rule="evenodd"/>
  <path fill="#FEFEFE" d="m26.2 36.8-.4-.2c-1-.1-1.3 1.3-1.5 1.9-.1.7-.4 2 .5 2.1.134 0 .3-.033.5-.1l-.2.6c-.2.067-.4.1-.6.1-1.4-.1-1.2-1.6-.9-2.7.2-1 .8-2.6 2.2-2.5.2 0 .4.1.6.2l-.2.6Zm-.1 4.5-.7-.1 1.3-5.1.7.1-1.3 5.1Z"/>
  <path fill="#FEFEFE" fill-rule="evenodd" d="M30 39c-.3.9-.7 2.6-2 2.5-1.3-.1-.9-1.8-.7-2.7.2-.9.7-2.6 2-2.5 1.3.1.9 1.8.7 2.7Zm-2-.1c-.3 1-.4 1.9.1 2 .6 0 .9-.9 1.1-1.9.3-1.1.5-2-.1-2.1-.5 0-.8.9-1.1 2Z" clip-rule="evenodd"/>
  <path fill="#FEFEFE" d="m31.3 38.1-.3 1.7-.5 1.9-.6-.1 1.2-5.1.7.1.2 4v-.1l.4-2 .4-1.8.7.1-1.3 5h-.6l-.2-4-.1.3Z"/>
  <path fill="#FEFEFE" fill-rule="evenodd" d="m35.5 36.9-.2 5.2-.7-.1.1-1-1.1-.1-.4 1h-.7l2.4-5h.6Zm-.7 2.8.2-1.9-1.1 2.6.8.1.1-.8Z" clip-rule="evenodd"/>
  <path fill="#FEFEFE" d="m37.5 37.1-1.1 4.5 1.1.1-.1.6-1.8-.2 1.2-5h.7Z"/>
  <path fill="#FEFEFE" fill-rule="evenodd" d="M40.9 37.4c.8.1 1.7.2 1.1 2.8-.6 2.3-1.4 2.4-2.7 2.3l-.4-.1 1.3-5h.7Zm-.3.5-1 4c1.2.1 1.4-1 1.6-1.8.2-.8.6-2.1-.6-2.2Z" clip-rule="evenodd"/>
  <path fill="#FEFEFE" d="m45 37.8-.1.6-1.2-.1-.4 1.6 1 .1-.1.6-1.1-.1-.4 1.7 1.2.1-.2.6-1.8-.2 1.3-5.1 1.8.2Zm2.3.2-1.2 4.5 1.2.1-.2.6-1.8-.2 1.3-5.1.7.1Z"/>
  <path fill="#FEFEFE" fill-rule="evenodd" d="m49.9 38.3-.1 5.1h-.7v-1l-1-.1-.4.9H47l2.4-5 .5.1Zm-.7 2.8.2-1.8-1.1 2.5.8.1.1-.8Z" clip-rule="evenodd"/>
  <path fill="#FEFEFE" d="m13.6 49 .5-2.1-1.7-.1-.4 2.1-2.1-.2 1.6-6.7 2 .2-.6 2.7 1.6.1.7-2.6 2 .2-1.6 6.6-2-.2Zm3.1.3 1.6-6.6 2 .1-1.6 6.7-2-.2Zm4.7-2.1c.4.6.9.9 1.5.9.333.067.533 0 .6-.2.067-.133 0-.233-.2-.3a4.442 4.442 0 0 0-.8-.4 5.256 5.256 0 0 1-.8-.5 1.624 1.624 0 0 1-.7-.8c-.133-.266-.167-.6-.1-1s.333-.833.8-1.3c.5-.4 1.3-.6 2.2-.5.7 0 1.4.3 1.7.6.3.3.6.7.7.9l.1.1-1.6.9c-.2-.267-.4-.433-.6-.5-.2-.133-.433-.2-.7-.2-.3 0-.5.1-.5.2-.1.2.2.4.7.6.2.067.433.167.7.3.267.2.5.367.7.5.2.2.333.433.4.7.133.267.167.567.1.9-.133.467-.433.9-.9 1.3-.5.4-1.4.7-2.3.6-.8-.067-1.4-.3-1.8-.7-.4-.4-.667-.8-.8-1.2l1.6-.9Zm7.2-1.7-1.9-.2.5-1.8 5.7.5-.4 1.9-1.9-.2-1.1 4.8-2-.2 1.1-4.8Z"/>
  <path fill="#FEFEFE" fill-rule="evenodd" d="M36.7 44.2c1 .067 1.767.467 2.3 1.2.533.733.667 1.6.4 2.6-.2.933-.7 1.733-1.5 2.4-.867.6-1.8.833-2.8.7-1-.067-1.767-.467-2.3-1.2-.533-.733-.7-1.6-.5-2.6.267-.933.8-1.7 1.6-2.3.867-.6 1.8-.867 2.8-.8Zm-1.2 5.1c.4 0 .8-.133 1.2-.4.333-.267.567-.633.7-1.1.067-.467 0-.867-.2-1.2-.2-.333-.5-.5-.9-.5-.4-.067-.8.067-1.2.4-.333.267-.567.6-.7 1-.067.467 0 .867.2 1.2.2.333.5.533.9.6ZM45.7 52l-2.5-.3-1-1.8H42l-.4 1.7-2-.2 1.6-6.7 2.8.3s.1 0 .5.1c.3.1.6.2 1 .5.3.3.6.6.6 1.2.067.267.067.567 0 .9-.267.933-.8 1.6-1.6 2l1.2 2.3Zm-3-5.2-.2 1.3h.7c.4.067.633-.1.7-.5.1-.4 0-.7-.4-.7l-.8-.1Z" clip-rule="evenodd"/>
  <path fill="#FEFEFE" d="m46.3 52 1.5-6.7 2 .2-1.5 6.7-2-.2Zm6.2-4.3-.2.6 2.7.3-.4 1.7-2.7-.3-.1.6 2.9.3-.5 1.8-4.9-.4 1.6-6.7 4.9.5-.4 1.8-2.9-.2Zm5.4.5L56 48l.5-1.9 5.7.6-.4 1.8-1.9-.1-1.1 4.8-2-.2 1.1-4.8Z"/>
  <path fill="#FEFEFE" fill-rule="evenodd" d="m65.9 47 1 6.9-2.2-.2-.1-.7-2.2-.2-.4.6-2.2-.2 4.1-6.4 2 .2Zm-2.5 4 .9.1-.1-1.5-.8 1.4Zm-44.4.6.9 6.9-2.2-.2-.1-.7-2.2-.2-.4.7-2.2-.2 4.1-6.5 2.1.2Zm-2.4 4 .9.1-.2-1.5-.7 1.4Zm10 3.5-2.5-.2-1-1.8h-.2l-.4 1.6-2-.1 1.6-6.7 2.8.2c0 .1.1.1.5.2.3.1.6.2 1 .5.3.3.5.6.6 1.2.067.267.067.567 0 .9-.267.934-.8 1.567-1.6 1.9l1.2 2.3Zm-3-5.1-.3 1.2.8.1c.4.067.633-.133.7-.6.1-.4-.1-.6-.4-.6l-.8-.1Z" clip-rule="evenodd"/>
  <path fill="#FEFEFE" d="M33 55.5c-.2-.4-.4-.633-.6-.7a1.985 1.985 0 0 0-.9-.2c-.4-.066-.767.034-1.1.3-.4.267-.633.634-.7 1.1-.133.467-.066.867.2 1.2.2.334.5.5.9.5.267 0 .5-.033.7-.1.2-.066.367-.133.5-.2l.1-.2-1.3-.1.3-1.6 3.5.3-.3 1.4c-.2.7-.7 1.3-1.1 1.6-.267.2-.533.367-.8.5-.267.067-.5.134-.7.2-.2.067-.433.1-.7.1h-.7c-1-.066-1.767-.466-2.3-1.2-.533-.733-.666-1.6-.4-2.6.2-.933.733-1.733 1.6-2.4.867-.6 1.8-.833 2.8-.7 1.267.134 2.167.767 2.7 1.9l-1.7.9Zm4.8-.3-.2.7 2.7.2-.4 1.7-2.7-.2-.1.6 2.9.2-.5 1.9-4.9-.5 1.6-6.6 4.9.4-.4 1.9-2.9-.3Zm10.3-.9-1.6 6.6-1.9-.1-1.4-3.1-.7 2.9-2-.2 1.5-6.7 1.9.2 1.4 3.1.7-2.9 2.1.2Zm2.2 2.1-1.9-.2.4-1.9 5.8.5-.4 1.9-1.9-.1-1.1 4.8-2.1-.2 1.2-4.8Zm3.5 5.2 1.6-6.7 2 .2-1.6 6.7-2-.2Zm10.7-5.9-1.6 6.7-1.8-.1-1.5-3.1-.7 2.9-2-.2 1.6-6.7 1.8.2 1.5 3.1.7-2.9 2 .1Z"/>
  <path fill="#FEFEFE" fill-rule="evenodd" d="m69.7 56.2.9 6.9-2.2-.2-.1-.7-2.2-.2-.4.7-2.2-.2 4.1-6.5 2.1.2Zm-2.4 4 .9.1-.2-1.5-.7 1.4Z" clip-rule="evenodd"/>
  <path fill="#050505" fill-rule="evenodd" d="m29 28.7-.3 2.7-1.1-.1-.2 1.8-2.9-.3.2-1.8-3.9-.4.3-2.5 4.3-5.8 3.2.3-.7 6 1.1.1Zm-4.9-.6 1.1.2.3-2-1.4 1.8Z" clip-rule="evenodd"/>
  <path fill="#FEFEFE" fill-rule="evenodd" d="m30.3 27.6-.3 2.7-1.1-.1-.2 1.8-2.9-.3.2-1.8-3.8-.4.2-2.6 4.3-5.7 3.2.3-.7 6 1.1.1Zm-4.9-.6 1.2.2.2-2-1.4 1.8Z" clip-rule="evenodd"/>
  <path fill="#489FD7" d="M50.3 113c-.1 0-.3-.1-.3-.3 0-.1.1-.3.2-.3.2 0 .3.1.4.2 0 .2-.1.3-.3.4Z"/>
  <path fill="#EC252D" d="M19.6 72.8c-.1 0-.3-.1-.3-.3 0-.1.1-.3.3-.3.1 0 .3.1.3.2 0 .2-.1.3-.3.4Z"/>
  <path fill="#489FD7" d="M50.3 113c-.1 0-.3-.1-.3-.3 0-.1.1-.3.2-.3.2 0 .3.1.4.2 0 .2-.1.3-.3.4Z"/>
  <g opacity=".7">
    <path fill="#FEFEFE" d="M46.4 114.7s-.9-.5-.8-.5c0-.1.6-.3.6-.3.1 0 .5.6.5.6l-.3.2Z"/>
    <path stroke="#FEFEFE" stroke-linecap="round" stroke-linejoin="round" stroke-width=".4" d="M46.4 114.7s-.9-.5-.8-.5c0-.1.6-.3.6-.3.1 0 .5.6.5.6l-.3.2Z"/>
    <path fill="#FEFEFE" d="m45.3 111.3 1.4 2s.3.5.8.2c.6-.2 2-1 2-1s-.2-.2-.6-.1c-.3.1-.6.1-.9 0-.3-.1-.9-.2-.9-.3-.1 0-.6-.2-.7-.4l-.6-.3c-.4-.2-.5-.1-.5-.1Z"/>
    <path stroke="#FEFEFE" stroke-linecap="round" stroke-linejoin="round" stroke-width=".4" d="m45.3 111.3 1.4 2s.3.5.8.2c.6-.2 2-1 2-1s-.2-.2-.6-.1c-.3.1-.6.1-.9 0-.3-.1-.9-.2-.9-.3-.1 0-.6-.2-.7-.4l-.6-.3c-.4-.2-.5-.1-.5-.1Z"/>
    <path fill="#FEFEFE" d="M40.4 94.4c-.2.1-.2.4-.3.1-.2-.3-.6-.1-.6-.1l-.3.4s0 .2.2.3c.1.1.4.3.5.2 0 0-.2.3-.1.8.1.6.3 1.1.4 1.1 0 .1.4.7.4.7v.4c0 .2.1.4.1.4s-1 .9-1 1.2c0 .4-.1.9-.1.9s.2.7.2.8l.2.4s.8.4.9.5h.8c.1 0 .8-.4.8-.4s.4 0 .5.4c.1.4.1.5.1.6-.1.1.1.1.1.1.1 0 .1.8 0 1.1-.1.3-.2.7-.2.9 0 .1-.2.8-.2.8l.1.5.3.4s.2.4.2.6c-.1.1-.1.3-.2.3-.1-.1-.4-.1-.4-.1l-.2.2.2.1.2.2s-.1.7 0 .9c0 .3.2.7.2.7h.3l.5.5-.3.4s.4-.1.6-.1c.1.1.6.2.6.2l-.3.4-2.7 1.5s-.6-.1-.9-.5c-.4-.4-.5-.9-.8-.9-.3 0-.4.2-.6.4-.1.2.3.2-.1.2-.3-.1-1.1-.7-1.3-1-.1-.3-.2-1.3-.2-1.4 0-.1.2-.3 0-.6-.1-.3-1-1.8-1.1-2.2-.2-.3-.1-.3-.2-.6-.1-.2 0-.2-.2-.5-.1-.3.1-.2-.2-.5-.3-.4-.3-.5-.5-.7-.2-.2-.4-.3-.4-.4-.1-.1.1-.5.1-.7-.1-.1-.6-.3-.6-.3v-.4c0-.1-.1-.3-.1-.4-.1-.1-.3 0-.5 0s-.2.2-.4 0c-.1-.2-.4-.8-.5-.8 0-.1-.4-.3-.4-.4-.1 0-.3.1-.8-.4-.6-.4-1-.9-.9-1 0-.1.1-.6.1-.6s-1.6-2-1.7-2.1c-.1-.2-.1-.5-.2-.6-.1-.2-.2-.5-.2-.6 0-.1-.5-1-.5-1.1 0-.2.1-.5.1-.7 0-.1-1.2-1.1-1.8-1.9-.5-.9-.2-1-.2-1.2-.1-.2-.1-.9-.1-1-.1-.2-.1-.3-.1-.3s-.8-.9-1-1.6c-.2-.7.2-1.3-.7-2-.9-.8-.8-.5-1.1-.9-.2-.3-1.4-1.2-1.6-1.4-.2-.1-.4-.5-.4-.6 0-.2.1-.2-.1-.7-.2-.5-.2-1.1-.2-1.1 0-.1-.7-.7-.9-1.1-.2-.3-.4-1.5-.4-1.7-.1-.2 0-1.1-.1-1.3 0-.1-.3-1-.3-1.1 0 0 .4-.4.4-.5 0-.2.2-.1-.2-.4-.4-.3-.7-.3-.7-.3s.3-.3-.2-.9c-.4-.6-.5-.7-.7-.9-.1-.2-.1-.3-.2-.5s-.3-.2-.4-.3c-.1-.1-.3 0 .1-.5s.7-1.3.8-1.6c0-.3 0-.4-.1-.6-.1-.2-.4-1-.7-1.2-.3-.2.2-1.6.3-1.8 0-.2 0-.3.1-.3.1-.1.3 0 .5-.2.3-.1 1.4-.7 1.5-.7.1-.1.4 0 .4 0l.9.5-.1-1.5 1.5-1s.8.5 1.4.6c.6 0 2.5.4 2.5.4l2.7-.4H32l.8-.1s.3.1.3.2c.1 0 .1 1.3.1 1.5 0 .3.2 2.1.2 2.1s.9-.3 1.1-.4c.2-.1 2.4-.8 2.4-.8s.1-.3.1-.4c0-.1.6-.3.6-.3s.4-.9.4-1.1c0-.2.2-.6.2-.9 0-.3-.2-1-.3-1.2 0-.1-.2-.2.2-.5s.6-.3.8 0c.2.2.5.5.7.8.1.2.4.5 0 1.2-.4.8-1.4 2.7-1.4 2.7l-1 5.1.1.4s.7 1.8.7 2.1c.1.3.3.9.4.9 0 .1.2.4.3.5.1.1 0 .2 0 .4s.1.5.2.7c0 .2.3.7.4.7 0 .1.2.4.2.5l-.3.3 1.5.3c.1-.1.7-.1.9 0 .3 0 .6.3.6.3v.4s0 .5.3.6c.3.2.8.2.9.2.2 0 .3.1.3.1s.4.7.2 1.2c-.1.6-.1 1.2-.1 1.3 0 .1-.1.5-.1.5s-.8 1.7-2 2.6c-1.2.9-2.7 1.6-2.7 1.6h-.3s.1.3.3.5c.1.2.3.3.3.3s.3.1.4.3c.2.1.2.3.1.5s.1.7.2.8l.6.4s-.1.4-.2.4c0 .1-.4.4-.4.4s.3.1-.1.4c-.4.2-2 .6-2.1.6-.1 0-.4.2-.4.2s-.1.1.1.4c.1.3.5.7.7.9.2.2.4.7.4.7s.2.2.3.2l.5-.1.2-.2"/>
    <path stroke="#FEFEFE" stroke-linecap="round" stroke-linejoin="round" stroke-width=".4" d="M40.4 94.4c-.2.1-.2.4-.3.1-.2-.3-.6-.1-.6-.1l-.3.4s0 .2.2.3c.1.1.4.3.5.2 0 0-.2.3-.1.8.1.6.3 1.1.4 1.1 0 .1.4.7.4.7v.4c0 .2.1.4.1.4s-1 .9-1 1.2c0 .4-.1.9-.1.9s.2.7.2.8l.2.4s.8.4.9.5h.8c.1 0 .8-.4.8-.4s.4 0 .5.4c.1.4.1.5.1.6-.1.1.1.1.1.1.1 0 .1.8 0 1.1-.1.3-.2.7-.2.9 0 .1-.2.8-.2.8l.1.5.3.4s.2.4.2.6c-.1.1-.1.3-.2.3-.1-.1-.4-.1-.4-.1l-.2.2.2.1.2.2s-.1.7 0 .9c0 .3.2.7.2.7h.3l.5.5-.3.4s.4-.1.6-.1c.1.1.6.2.6.2l-.3.4-2.7 1.5s-.6-.1-.9-.5c-.4-.4-.5-.9-.8-.9-.3 0-.4.2-.6.4-.1.2.3.2-.1.2-.3-.1-1.1-.7-1.3-1-.1-.3-.2-1.3-.2-1.4 0-.1.2-.3 0-.6-.1-.3-1-1.8-1.1-2.2-.2-.3-.1-.3-.2-.6-.1-.2 0-.2-.2-.5-.1-.3.1-.2-.2-.5-.3-.4-.3-.5-.5-.7-.2-.2-.4-.3-.4-.4-.1-.1.1-.5.1-.7-.1-.1-.6-.3-.6-.3v-.4c0-.1-.1-.3-.1-.4-.1-.1-.3 0-.5 0s-.2.2-.4 0c-.1-.2-.4-.8-.5-.8 0-.1-.4-.3-.4-.4-.1 0-.3.1-.8-.4-.6-.4-1-.9-.9-1 0-.1.1-.6.1-.6s-1.6-2-1.7-2.1c-.1-.2-.1-.5-.2-.6-.1-.2-.2-.5-.2-.6 0-.1-.5-1-.5-1.1 0-.2.1-.5.1-.7 0-.1-1.2-1.1-1.8-1.9-.5-.9-.2-1-.2-1.2-.1-.2-.1-.9-.1-1-.1-.2-.1-.3-.1-.3s-.8-.9-1-1.6c-.2-.7.2-1.3-.7-2-.9-.8-.8-.5-1.1-.9-.2-.3-1.4-1.2-1.6-1.4-.2-.1-.4-.5-.4-.6 0-.2.1-.2-.1-.7-.2-.5-.2-1.1-.2-1.1 0-.1-.7-.7-.9-1.1-.2-.3-.4-1.5-.4-1.7-.1-.2 0-1.1-.1-1.3 0-.1-.3-1-.3-1.1 0 0 .4-.4.4-.5 0-.2.2-.1-.2-.4-.4-.3-.7-.3-.7-.3s.3-.3-.2-.9c-.4-.6-.5-.7-.7-.9-.1-.2-.1-.3-.2-.5s-.3-.2-.4-.3c-.1-.1-.3 0 .1-.5s.7-1.3.8-1.6c0-.3 0-.4-.1-.6-.1-.2-.4-1-.7-1.2-.3-.2.2-1.6.3-1.8 0-.2 0-.3.1-.3.1-.1.3 0 .5-.2.3-.1 1.4-.7 1.5-.7.1-.1.4 0 .4 0l.9.5-.1-1.5 1.5-1s.8.5 1.4.6c.6 0 2.5.4 2.5.4l2.7-.4H32l.8-.1s.3.1.3.2c.1 0 .1 1.3.1 1.5 0 .3.2 2.1.2 2.1s.9-.3 1.1-.4c.2-.1 2.4-.8 2.4-.8s.1-.3.1-.4c0-.1.6-.3.6-.3s.4-.9.4-1.1c0-.2.2-.6.2-.9 0-.3-.2-1-.3-1.2 0-.1-.2-.2.2-.5s.6-.3.8 0c.2.2.5.5.7.8.1.2.4.5 0 1.2-.4.8-1.4 2.7-1.4 2.7l-1 5.1.1.4s.7 1.8.7 2.1c.1.3.3.9.4.9 0 .1.2.4.3.5.1.1 0 .2 0 .4s.1.5.2.7c0 .2.3.7.4.7 0 .1.2.4.2.5l-.3.3 1.5.3c.1-.1.7-.1.9 0 .3 0 .6.3.6.3v.4s0 .5.3.6c.3.2.8.2.9.2.2 0 .3.1.3.1s.4.7.2 1.2c-.1.6-.1 1.2-.1 1.3 0 .1-.1.5-.1.5s-.8 1.7-2 2.6c-1.2.9-2.7 1.6-2.7 1.6h-.3s.1.3.3.5c.1.2.3.3.3.3s.3.1.4.3c.2.1.2.3.1.5s.1.7.2.8l.6.4s-.1.4-.2.4c0 .1-.4.4-.4.4s.3.1-.1.4c-.4.2-2 .6-2.1.6-.1 0-.4.2-.4.2s-.1.1.1.4c.1.3.5.7.7.9.2.2.4.7.4.7s.2.2.3.2l.5-.1.2-.2"/>
    <path fill="#FEFEFE" fill-rule="evenodd" d="M50.5 108.9c-.067 0-.1-.033-.1-.1.1 0 .3 0 .3-.1-.1 0-.2-.1-.1-.1.1-.1.3 0 .2-.2 0 .1-.1.1-.1.1.067-.067.1-.133.1-.2 0 0-.1 0-.1-.1 0 .1-.2.1-.3-.1.2 0 .4-.1.4-.3-.1 0-.3 0-.3.1-.2-.1 0-.1 0-.2-.1 0-.2.2-.3.1v-.1c.2-.1.5 0 .6-.2-.3 0 .2-.3.2-.2.1-.1.2-.2.3-.2 0 0-.1 0 0-.1 0 0 .1-.1.2 0-.1.1.1.3-.1.5 0 .2 0 .7-.1.7 0 0-.1-.1-.1 0 .1.2-.1.1-.1.2.1.1.1.3-.1.3.067.067.067.133 0 .2-.1 0-.2-.2-.3-.1.1 0 .2 0 .1.1-.1 0-.2-.1-.3 0Zm.2-.8c.1-.1.1.1.2.1-.1-.1-.1-.2 0-.2v-.1l-.2.2Z" clip-rule="evenodd"/>
    <path stroke="#FEFEFE" stroke-linecap="round" stroke-linejoin="round" stroke-width=".4" d="M50.5 108.9c-.067 0-.1-.033-.1-.1.1 0 .3 0 .3-.1-.1 0-.2-.1-.1-.1.1-.1.3 0 .2-.2 0 .1-.1.1-.1.1.067-.067.1-.133.1-.2 0 0-.1 0-.1-.1 0 .1-.2.1-.3-.1.2 0 .4-.1.4-.3-.1 0-.3 0-.3.1-.2-.1 0-.1 0-.2-.1 0-.2.2-.3.1v-.1c.2-.1.5 0 .6-.2-.3 0 .2-.3.2-.2.1-.1.2-.2.3-.2 0 0-.1 0 0-.1 0 0 .1-.1.2 0-.1.1.1.3-.1.5 0 .2 0 .7-.1.7 0 0-.1-.1-.1 0 .1.2-.1.1-.1.2.1.1.1.3-.1.3.067.067.067.133 0 .2-.1 0-.2-.2-.3-.1.1 0 .2 0 .1.1-.1 0-.2-.1-.3 0Zm.2-.8c.1-.1.1.1.2.1-.1-.1-.1-.2 0-.2v-.1l-.2.2Z" clip-rule="evenodd"/>
    <path fill="#FEFEFE" fill-rule="evenodd" d="M51.6 106.6c.1 0 .3-.1.5-.2.067.067.133.1.2.1 0-.3.4-.4.5-.1-.1.1-.2 0-.3.2.1.1.3-.2.4-.1-.1.1 0 .1 0 .2-.1.1-.2.2-.3.2.1.1 0 .3-.1.3l-.1.1c-.2 0-.2.2-.4.1.2.1.3 0 .5 0 0 .1.1.2 0 .3 0-.1-.1-.1-.1-.1-.1 0 0 .1-.1.2-.1 0-.3-.1-.3 0 .1-.1.2.1.2.1s0-.1.1 0c-.1 0 0 .1 0 .1-.1.1-.3 0-.4.1.1 0 .2.1.3.2l-.1.1c-.1-.1-.3-.1-.5-.2.2-.1 0-.1 0-.3.1-.1 0-.2 0-.2.2-.1 0-.4.3-.4-.1-.1-.2-.1-.3-.1 0-.2.2-.1.1-.2-.1 0-.1.1-.2 0 .1-.1.1-.1.2-.3 0 0-.1 0-.1-.1Zm.9.2c-.067-.133-.133-.2-.2-.2v.1l-.1-.1c0 .1-.1-.1-.2 0 .2.2.3 0 .5.2Z" clip-rule="evenodd"/>
    <path stroke="#FEFEFE" stroke-linecap="round" stroke-linejoin="round" stroke-width=".4" d="M51.6 106.6c.1 0 .3-.1.5-.2.067.067.133.1.2.1 0-.3.4-.4.5-.1-.1.1-.2 0-.3.2.1.1.3-.2.4-.1-.1.1 0 .1 0 .2-.1.1-.2.2-.3.2.1.1 0 .3-.1.3l-.1.1c-.2 0-.2.2-.4.1.2.1.3 0 .5 0 0 .1.1.2 0 .3 0-.1-.1-.1-.1-.1-.1 0 0 .1-.1.2-.1 0-.3-.1-.3 0 .1-.1.2.1.2.1s0-.1.1 0c-.1 0 0 .1 0 .1-.1.1-.3 0-.4.1.1 0 .2.1.3.2l-.1.1c-.1-.1-.3-.1-.5-.2.2-.1 0-.1 0-.3.1-.1 0-.2 0-.2.2-.1 0-.4.3-.4-.1-.1-.2-.1-.3-.1 0-.2.2-.1.1-.2-.1 0-.1.1-.2 0 .1-.1.1-.1.2-.3 0 0-.1 0-.1-.1Zm.9.2c-.067-.133-.133-.2-.2-.2v.1l-.1-.1c0 .1-.1-.1-.2 0 .2.2.3 0 .5.2Z" clip-rule="evenodd"/>
  </g>
  <path fill="#3E89C8" d="M47.3 114.6s-.9-.5-.8-.6l.6-.2c.1-.1.5.5.5.5l-.3.3Zm-1.1-3.4 1.4 2s.3.4.8.2c.6-.3 2-1.1 2-1.1s-.2-.2-.6-.1c-.3.1-.6.1-.9 0-.3 0-.9-.2-.9-.2-.1-.1-.6-.3-.7-.4-.2-.2-.2-.2-.6-.3-.4-.2-.5-.1-.5-.1Zm-4.6-32.8c.1-.1.7 0 .9 0 .3.1.6.3.6.3v.4s0 .5.3.7c.2.1.8.2.9.1.2 0 .3.1.3.1s.3.7.2 1.3c-.1.5-.1 1.1-.1 1.2 0 .1-.1.5-.1.5s-.8 1.8-2 2.7c-1.2.9-2.7 1.5-2.7 1.5l-.3.1s.1.3.3.4c.1.2.3.3.3.3s.3.2.4.3c.2.2.1.4.1.5-.1.2.1.7.2.8 0 .1.6.5.6.5s-.1.4-.2.4l-.4.3s.3.2-.1.4c-.4.3-2.1.7-2.2.6-.1 0-.3.2-.3.2s-.1.2 0 .5c.2.3.6.6.8.8.2.2.4.8.4.8l.2.1c.1 0 .6-.1.6-.1l.2-.1s.2-.1.1-.4c0-.3.2-.3.3-.2.1.1.4.5.4.5s.2.2 0 .3c-.2.1-.2.4-.3.2-.2-.3-.6-.1-.6-.1l-.3.4s0 .1.2.2c.1.2.4.3.4.3h.1s-.2.3-.1.8.3 1 .4 1.1l.4.6v.4c0 .3.1.5.1.5s-1 .8-1 1.2c0 .4-.1.8-.1.8s.1.7.2.8c0 .1.2.4.2.4s.8.5.9.5c.2.1.6 0 .8 0 .1 0 .8-.3.8-.3s.4 0 .5.3c0 .4.1.6 0 .7 0 .1.1.1.2.1s.1.7 0 1c-.1.3-.3.7-.3.9 0 .2-.1.8-.1.8l.1.5.3.5s.2.4.2.5c-.1.2-.2.3-.2.3-.1 0-.4-.1-.4-.1l-.2.3.2.1.2.1s-.1.7 0 1c0 .2.1.6.1.6l.4.1.5.5-.3.3s.4-.1.6 0c.1 0 .6.2.6.2l-.3.4-2.7 1.5s-.6-.2-.9-.6c-.4-.4-.5-.9-.8-.9-.3.1-.4.3-.6.5-.1.1.2.2-.1.1-.3 0-1.1-.6-1.3-.9-.2-.4-.2-1.3-.2-1.5 0-.1.2-.3 0-.6-.1-.2-1-1.7-1.2-2.1-.1-.4 0-.4-.1-.6-.1-.2-.1-.3-.2-.5-.1-.3 0-.2-.2-.6-.3-.3-.3-.5-.5-.7-.2-.1-.4-.2-.4-.3-.1-.1.1-.6 0-.7 0-.1-.6-.4-.6-.4s.1-.2.1-.3c0-.1-.1-.4-.1-.5-.1 0-.4 0-.5.1-.2 0-.2.2-.4 0-.1-.3-.4-.8-.5-.9 0-.1-.4-.2-.4-.3-.1-.1-.3.1-.8-.4-.6-.5-1-1-1-1.1.1-.1.2-.6.2-.6s-1.6-1.9-1.7-2.1c-.1-.1-.1-.5-.2-.6-.1-.1-.2-.5-.2-.5 0-.1-.5-1-.5-1.2 0-.2.1-.5.1-.6 0-.2-1.2-1.1-1.8-2-.5-.8-.3-.9-.3-1.2v-1c-.1-.1-.1-.3-.1-.3s-.8-.8-1-1.5c-.3-.7.2-1.3-.7-2.1-.9-.8-.8-.5-1.1-.8-.2-.4-1.4-1.3-1.6-1.4-.2-.1-.4-.5-.4-.7 0-.1.1-.2-.1-.7-.2-.4-.2-1-.2-1.1 0-.1-.7-.7-.9-1-.2-.4-.4-1.5-.5-1.7 0-.2.1-1.2 0-1.3 0-.1-.4-1-.3-1.1 0-.1.4-.4.4-.6 0-.1.2-.1-.2-.3-.4-.3-.7-.3-.7-.3s.3-.3-.2-1c-.4-.6-.5-.6-.7-.8-.1-.3-.1-.3-.2-.5-.1-.3-.3-.2-.4-.3-.1-.2-.4 0 0-.5.4-.6.8-1.4.9-1.7 0-.3 0-.4-.1-.6-.1-.1-.4-1-.7-1.2-.3-.2.2-1.6.2-1.8.1-.2.1-.3.2-.3 0 0 .3 0 .5-.1.2-.2 1.4-.7 1.5-.8.1 0 .4.1.4.1l.9.4-.1-1.5 1.5-.9s.7.5 1.3.5c.6.1 2.6.5 2.6.5l2.7-.4h2.3l.7-.1.4.1c.1.1.1 1.3.1 1.6 0 .3.2 2.1.2 2.1s.9-.3 1.1-.4c.2-.2 2.4-.8 2.4-.8s0-.3.1-.4c0-.1.6-.3.6-.3s.4-1 .4-1.2c0-.2.2-.6.2-.9 0-.3-.2-.9-.3-1.1-.1-.2-.2-.2.2-.5s.5-.3.8-.1c.2.3.5.6.7.8.1.3.4.5 0 1.3-.4.7-1.4 2.6-1.4 2.6L38 71.7l.2.4s.7 1.7.7 2.1c.1.3.3.8.4.9 0 0 .2.3.3.5.1.1 0 .1 0 .3-.1.2.1.6.1.8.1.1.4.6.5.7 0 0 .2.3.1.4 0 .1-.1.3-.2.4l1.5.2Z"/>
  <path fill="#3E89C8" fill-rule="evenodd" d="M51.3 108.7c.1 0 .3-.1.2-.2 0 0-.1 0 0-.1s.3 0 .2-.1c0 0-.1.1-.1 0 .067 0 .1-.034.1-.1 0-.1-.1-.1-.1-.2-.1.1-.2.1-.3 0 .2-.1.4-.2.4-.3h-.4c-.1-.1.1-.1.1-.1-.1 0-.2.1-.3 0v-.1c.2 0 .4.1.6-.1-.3 0 .2-.4.2-.2.1-.1.2-.2.3-.2 0 0-.2-.1-.1-.2.1.1.2 0 .3 0-.1.1 0 .4-.2.5.1.2.1.7 0 .8l-.1-.1c.1.2-.1.2-.1.3.1 0 .1.2-.1.2.067.133.067.233 0 .3-.1 0-.2-.3-.3-.1h.1c-.1.1-.2 0-.4 0Zm.3-.7c.1-.1.1.1.2 0-.1-.1-.2-.1 0-.1v-.1c-.133.066-.2.133-.2.2Z" clip-rule="evenodd"/>
  <path fill="#3E89C8" fill-rule="evenodd" d="M52.4 106.5h.1c.1 0 .3-.1.5-.3.067.066.133.1.2.1 0-.2.4-.3.5 0-.1.1-.3 0-.3.1.1.1.3-.2.4 0-.1.1 0 0 0 .1-.1.1-.2.3-.3.3.1.1 0 .2-.1.3h-.1c-.2.1-.3.2-.4.2.2.1.3 0 .5 0 0 .1.1.1 0 .2 0-.1-.1 0-.1-.1-.1.1 0 .2-.1.2s-.3-.1-.3.1c.1-.2.2 0 .2.1 0 0 0-.1.1-.1-.1 0 0 .2 0 .2-.1 0-.3 0-.4.1.1 0 .2.1.3.2H53c-.2-.1-.3-.1-.5-.1.2-.1 0-.2-.1-.4.2 0 .1-.1.1-.2.2 0 0-.4.3-.3-.1-.2-.2-.1-.3-.2 0-.1.1-.1.1-.2-.1 0-.1.1-.2 0 .1 0 .1-.1.2-.2 0-.1-.1 0-.2-.1Zm1 .1a34.284 34.284 0 0 0-.2-.2v.1c-.067 0-.1-.034-.1-.1-.1.1-.1 0-.2.1.2.1.3 0 .5.1Z" clip-rule="evenodd"/>
  <path stroke="#2C4265" stroke-linecap="round" stroke-linejoin="round" stroke-width=".4" d="M36.3 106s-.1-1.3-.2-1.6c-.1-.2-.7-1.5.8-1.5 1.6 0 1.1 1.5 1.1 1.5s-.3 1.3-.1 1.6"/>
  <path stroke="#22B24E" stroke-linecap="round" stroke-linejoin="round" stroke-width=".4" d="M36.4 106s-.1-1.3-.1-1.6c-.1-.2-.8-1.5.8-1.5 1.5 0 1 1.5 1 1.5s-.2 1.3-.1 1.6"/>
  <path stroke="#2B0A41" stroke-linecap="round" stroke-linejoin="round" stroke-width=".4" d="M36.7 105.8s0-1.4-.1-1.6c-.1-.3-.7-1.7.8-1.7 1.5.1 1 1.6 1 1.6s-.2 1.4-.1 1.8"/>
  <path fill="#825AA5" d="M33.6 107.6s.6-3 2.8-3.1h1.1s2.3-.2 3.2 2.5c0 0 .4.9-1.4.9-1.8.1-4.4.1-4.4.1s-1.3.2-1.3-.4Z"/>
  <path fill="url(#b)" d="M33.6 107.6s.6-3 2.8-3.1h1.1s2.3-.2 3.2 2.5c0 0 .4.9-1.4.9-1.8.1-4.4.1-4.4.1s-1.3.2-1.3-.4Z" style="mix-blend-mode:multiply"/>
  <g opacity=".3" style="mix-blend-mode:multiply">
    <path fill="#78469B" d="M34 107.6s.6-3 2.7-3.1l-2.7 3.1Z"/>
    <path stroke="#050505" stroke-width=".4" d="M34 107.6s.6-3 2.7-3.1"/>
  </g>
  <path fill="#78469B" d="M34.6 107.6s.5-3.1 2.4-3.1h.9s2-.2 2.8 2.5c0 0 .3.9-1.2.9s-3.8.1-3.8.1-1.1.1-1.1-.4Z"/>
  <path fill="url(#c)" d="M34.9 107.5c0 .5 1 .3 1 .3h1.7c0-.5-.1-1.1 0-1.8-.3 0-.7.1-.9.1-.3 0-.5.1-.6.2-.2 0-.9.3-1 .3-.2.5-.2.9-.2.9Zm.2-.9c.1 0 .8-.3 1-.3.1-.1.3-.2.6-.2.2 0 .6-.1.9-.1 0-.467.033-.933.1-1.4h-.6c-.6.1-1.1.4-1.4.8-.3.4-.5.8-.6 1.2Zm2.5 1.2h1.7c1.4-.1 1.2-.8 1.2-.8-.133-.467-.3-.833-.5-1.1-.3-.3-.6.1-1.3 0-.3 0-.7.1-.9.1h-.2c-.1.7 0 1.3 0 1.8Zm0-1.8h.2c.2 0 .6-.1.9-.1.7.1 1-.3 1.3 0a3.255 3.255 0 0 0-.4-.5c-.8-.9-1.7-.8-1.7-.8h-.2c-.067.467-.1.933-.1 1.4Z" style="mix-blend-mode:multiply"/>
  <path fill="#ED2545" d="M39.7 107c-.9 0-1.8.5-2.7.5-.066-.267-.1-.5-.1-.7.9 0 1.8-.5 2.7-.5 0 .266.033.5.1.7Z" opacity=".5"/>
  <path fill="#FEFEFE" d="M37.3 107.3h-.1v-.4h.3v.1h-.2v.1c.067 0 .134-.033.2-.1v.1c-.066.067-.133.1-.2.1.067 0 .1.034.1.1h-.1Z"/>
  <path fill="#FEFEFE" fill-rule="evenodd" d="M37.7 107.1v.1h-.1c0 .067 0 .067 0 0-.066-.067-.1-.167-.1-.3h.2c.067-.067.1-.067.1 0h.1v.2h.1v.1h-.2c0-.067-.033-.1-.1-.1Zm-.1-.1h.2v-.1h-.1c0 .067-.033.1-.1.1Z" clip-rule="evenodd"/>
  <path fill="#FEFEFE" fill-rule="evenodd" d="M38.3 107.1v-.1c-.066 0-.133.034-.2.1-.066 0-.1.034-.1.1v-.1c0-.066.034-.166.1-.3.067 0 .1-.033.1-.1.067.134.134.234.2.3 0 .067-.033.1-.1.1Zm-.2-.1h.1v-.1l-.1.1Z" clip-rule="evenodd"/>
  <path fill="#FEFEFE" d="M38.5 106.9h.1v-.1c.067 0 .133-.033.2-.1v.2l-.1.1h-.2c-.066 0-.1-.033-.1-.1v-.2c.067 0 .133-.033.2-.1h.1v.1h-.1c-.067 0-.1.033-.1.1v.1Z"/>
  <path fill="#FEFEFE" d="M38.8 106.9v-.3h.1v.3h-.1Zm.3-.1h.1l.1.1h-.4v-.3c.067 0 .1-.033.1-.1v.1c0 .067.033.133.1.2Zm.2-.2v.2-.1l-.1-.1v-.1h.1v.1Zm0 .2h.1v.1h-.1v-.1Z"/>
  <path stroke="#78469B" stroke-linecap="round" stroke-linejoin="round" stroke-width=".4" d="M36.6 105.8s0-1.4-.1-1.6c-.1-.3-.8-1.7.8-1.7 1.5.1 1 1.6 1 1.6s-.2 1.4-.1 1.8"/>
  <path fill="#78469B" stroke="#78469B" stroke-width=".4" d="M36.8 106.2h-.4v-1.1h.4v1.1Z"/>
  <path fill="#33469C" stroke="#78469B" stroke-width=".4" d="m36.8 106-.4.1v-.8h.4v.7Z"/>
  <path fill="#78469B" stroke="#78469B" stroke-width=".4" d="m38.4 106.1-.5.1v-1.1h.5v1Z"/>
  <path fill="#33469C" stroke="#78469B" stroke-width=".4" d="M38.3 106H38v-.8h.3v.8Z"/>
  <path fill="#33469C" d="M34.1 107.8H34v-.2h.1v.2Zm-.1 0-.1.3h.1v-.3Z"/>
  <path fill="#FECF1B" stroke="#F48125" stroke-width=".4" d="M37.2 106.8c0 .2-.1.4-.3.4-.2 0-.4-.2-.4-.4s.2-.3.4-.3c.1-.1.3.1.3.3Z"/>
  <path fill="#F37523" stroke="#F48125" stroke-width=".4" d="m37.1 107-.5.1v-.5h.5v.4Z"/>
  <path stroke="#2C4265" stroke-linecap="round" stroke-linejoin="round" stroke-width=".4" d="M36.3 106s-.1-1.3-.2-1.6c-.1-.2-.7-1.5.8-1.5 1.6 0 1.1 1.5 1.1 1.5s-.3 1.3-.1 1.6"/>
  <path stroke="#0A7857" stroke-linecap="round" stroke-linejoin="round" stroke-width=".4" d="M36.4 106s-.1-1.3-.1-1.6c-.1-.2-.8-1.5.8-1.5 1.5 0 1 1.5 1 1.5s-.2 1.3-.1 1.6"/>
  <path stroke="#32BBA4" stroke-linecap="round" stroke-linejoin="round" stroke-width=".4" d="M36.7 105.8s0-1.4-.1-1.6c-.1-.3-.7-1.7.8-1.7 1.5.1 1 1.6 1 1.6s-.2 1.4-.1 1.8"/>
  <path fill="#B2DFDB" d="M33.6 107.6s.6-3 2.8-3.1h1.1s2.3-.2 3.2 2.5c0 0 .4.9-1.4.9-1.8.1-4.4.1-4.4.1s-1.3.2-1.3-.4Z"/>
  <path fill="url(#d)" d="M33.6 107.6s.6-3 2.8-3.1h1.1s2.3-.2 3.2 2.5c0 0 .4.9-1.4.9-1.8.1-4.4.1-4.4.1s-1.3.2-1.3-.4Z" style="mix-blend-mode:multiply"/>
  <path stroke="#050505" stroke-width=".4" d="M34 107.6s.6-3 2.7-3.1" opacity=".3" style="mix-blend-mode:multiply"/>
  <path fill="#80C9A0" d="M34.6 107.6s.5-3.1 2.4-3.1h.9s2-.2 2.8 2.5c0 0 .3.9-1.2.9s-3.8.1-3.8.1-1.1.1-1.1-.4Z"/>
  <path fill="url(#e)" d="M34.9 107.5c0 .5 1 .3 1 .3h1.7c0-.5-.1-1.1 0-1.8-.3 0-.7.1-.9.1-.3 0-.5.1-.6.2-.2 0-.9.3-1 .3-.2.5-.2.9-.2.9Zm.2-.9c.1 0 .8-.3 1-.3.1-.1.3-.2.6-.2.2 0 .6-.1.9-.1 0-.467.033-.933.1-1.4h-.6c-.6.1-1.1.4-1.4.8-.3.4-.5.8-.6 1.2Zm2.5 1.2h1.7c1.4-.1 1.2-.8 1.2-.8-.133-.467-.3-.833-.5-1.1-.3-.3-.6.1-1.3 0-.3 0-.7.1-.9.1h-.2c-.1.7 0 1.3 0 1.8Zm0-1.8h.2c.2 0 .6-.1.9-.1.7.1 1-.3 1.3 0a3.255 3.255 0 0 0-.4-.5c-.8-.9-1.7-.8-1.7-.8h-.2c-.067.467-.1.933-.1 1.4Z" style="mix-blend-mode:multiply"/>
  <path fill="#ED2545" d="M39.7 107c-.9 0-1.8.5-2.7.5-.066-.267-.1-.5-.1-.7.9 0 1.8-.5 2.7-.5 0 .266.033.5.1.7Z" opacity=".5"/>
  <path fill="#FEFEFE" d="M37.3 107.3h-.1v-.4h.3v.1h-.2v.1c.067 0 .134-.033.2-.1v.1c-.066.067-.133.1-.2.1.067 0 .1.034.1.1h-.1Z"/>
  <path fill="#FEFEFE" fill-rule="evenodd" d="M37.7 107.1v.1h-.1c0 .067 0 .067 0 0-.066-.067-.1-.167-.1-.3h.2c.067-.067.1-.067.1 0h.1v.2h.1v.1h-.2c0-.067-.033-.1-.1-.1Zm-.1-.1h.2v-.1h-.1c0 .067-.033.1-.1.1Z" clip-rule="evenodd"/>
  <path fill="#FEFEFE" fill-rule="evenodd" d="M38.3 107.1v-.1c-.066 0-.133.034-.2.1-.066 0-.1.034-.1.1v-.1c0-.066.034-.166.1-.3.067 0 .1-.033.1-.1.067.134.134.234.2.3 0 .067-.033.1-.1.1Zm-.2-.1h.1v-.1l-.1.1Z" clip-rule="evenodd"/>
  <path fill="#FEFEFE" d="M38.5 106.9h.1v-.1c.067 0 .133-.033.2-.1v.2l-.1.1h-.2c-.066 0-.1-.033-.1-.1v-.2c.067 0 .133-.033.2-.1h.1v.1h-.1c-.067 0-.1.033-.1.1v.1Z"/>
  <path fill="#FEFEFE" d="M38.8 106.9v-.3h.1v.3h-.1Zm.3-.1h.1l.1.1h-.4v-.3c.067 0 .1-.033.1-.1v.1c0 .067.033.133.1.2Zm.2-.2v.2-.1l-.1-.1v-.1h.1v.1Zm0 .2h.1v.1h-.1v-.1Z"/>
  <path stroke="#78C7A4" stroke-linecap="round" stroke-linejoin="round" stroke-width=".4" d="M36.6 105.8s0-1.4-.1-1.6c-.1-.3-.8-1.7.8-1.7 1.5.1 1 1.6 1 1.6s-.2 1.4-.1 1.8"/>
  <path fill="#996B74" d="M36.8 106.2h-.4v-1.1h.4v1.1Z"/>
  <path fill="#29B6A4" stroke="#78469B" stroke-width=".4" d="m36.8 106-.4.1v-.8h.4v.7Z"/>
  <path fill="#996B74" d="m38.4 106.1-.5.1v-1.1h.5v1Z"/>
  <path fill="#29B6A4" stroke="#78469B" stroke-width=".4" d="M38.3 106H38v-.8h.3v.8Z"/>
  <path fill="#33469C" d="M34.1 107.8H34v-.2h.1v.2Zm-.1 0-.1.3h.1v-.3Z"/>
  <path fill="#FECF1B" stroke="#F48125" stroke-width=".4" d="M37.2 106.8c0 .2-.1.4-.3.4-.2 0-.4-.2-.4-.4s.2-.3.4-.3c.1-.1.3.1.3.3Z"/>
  <path fill="#F37523" stroke="#F48125" stroke-width=".4" d="m37.1 107-.5.1v-.5h.5v.4Z"/>
  <path fill="#070709" d="m28.8 67.6.4.1c.067.067.067.1 0 .1h-.4s-.1 0-.1-.3v-.2c0-.067.034-.067.1 0v.3Zm.2-3.5c-.067.067-.1.067-.1 0v-.4s0-.1.2-.1h.3c.067.067.067.1 0 .1l-.4.4Z"/>
  <path fill="#701511" d="m34.6 64.4-.4-.4s-.1-.1-.2-.1l-4.9-.2H29l2.9 2.7 2.7-1.8c.067-.066.067-.133 0-.2Z"/>
  <path fill="#57130B" d="m28.9 63.8-.1 3.7c-.1 0 0 .1 0 .2l.4.4h.2l2.5-1.7-2.9-2.7-.1.1Z"/>
  <path fill="#811517" d="M34.5 68.3c0 .067-.033.1-.1.1l-5-.2c-.066 0-.1-.034-.1-.1l.2-3.7c0-.067.034-.1.1-.1l5 .2c.067 0 .1.033.1.1l-.2 3.7Z"/>
  <path fill="#822F19" d="M34.4 68.2c0 .067-.033.1-.1.1l-4.7-.2c-.066-.066-.1-.133-.1-.2l.1-3.4c.067-.066.134-.1.2-.1l4.7.2c.067.067.1.134.1.2l-.2 3.4Z"/>
  <path fill="#82481D" d="M34.3 68.1c0 .067-.033.1-.1.1l-4.5-.3c-.067 0-.1-.033-.1-.1l.1-3.2c0-.067.067-.1.2-.1l4.5.3c.067 0 .1.034.1.1l-.2 3.2Z"/>
  <g opacity=".5">
    <path fill="#E2E44C" d="M32.5 65.9c-.1.6-.6 1.1-1.2 1-.6 0-1-.5-1-1.1 0-.6.5-1.1 1.1-1 .6 0 1.1.5 1.1 1.1Z"/>
    <path fill="#050505" d="M31.1 65.9h-.3l.1-.6h.2v.6Zm.8 0h-.2v-.6h.2v.6Zm-1.3.2s.7.9 1.6 0h-1.6Z"/>
  </g>
  <path stroke="#070709" stroke-width=".4" d="m29 67.7.2-3.8 5 .3"/>
  <path stroke="#461114" stroke-width=".4" d="m29.2 63.9 5 .3"/>
  <path fill="#070709" d="M31.4 63.9c0 .1-.1.1-.3.1-.2 0-.3-.1-.3-.1h.6Zm1.6.1c0 .1-.2.1-.4.1-.1 0-.3-.1-.3-.1s.2-.1.3 0h.4Z"/>
  <path fill="#070709" d="M30.9 63.9s0-.5.5-.4h.7v.2l-.6-.1s-.3.1-.3.4l-.3-.1Z"/>
  <path fill="#070709" d="M32.8 64s.1-.5-.5-.5h-.7v.2h.6s.3 0 .3.3h.3Z"/>
  <path fill="#1B0C0F" d="M31 63.9s0-.5.5-.4h.6v.2l-.5-.1s-.3.1-.3.4l-.3-.1Z"/>
  <path fill="#1B0C0F" d="M32.9 64s0-.5-.5-.5h-.7v.2h.6s.2 0 .2.3h.4Z"/>
  <path fill="#070709" d="M29.5 64.7c-.067 0-.1-.033-.1-.1v-.3s0-.1.3-.1h.2c.067 0 .067.034 0 .1l-.4.4Zm5.1.2c.067.067.1.067.1 0v-.3s0-.2-.2-.2h-.3c-.067 0-.067.034 0 .1l.4.4Z"/>
  <path fill="#070709" d="M29.5 64.7c-.067 0-.1-.033-.1-.1v-.3s0-.1.3-.1h.2c.067 0 .067.034 0 .1l-.4.4Zm5.1.2c.067.067.1.067.1 0v-.3s0-.2-.2-.2h-.3c-.067 0-.067.034 0 .1l.4.4Zm-.1 3.1c0-.067.034-.067.1 0l-.1.1v.3s0 .1-.2.1h-.2c-.066 0-.1-.033-.1-.1l.5-.4Zm-5.1-.3c-.066-.067-.1-.067-.1 0v.1c0 .1-.1.2-.1.3 0 0 0 .1.3.1h.3l-.4-.5Zm-.3-3.9-.1.3c-.067.067-.1.067-.1 0v-.4s0-.1.2-.1h.3c.067.067.067.1 0 .1l-.3.1Zm5.2.3-.1-.1h-.4c-.066-.066-.033-.1.1-.1h.1s.3 0 .3.1m-4 0c0 .067-.033.1-.1.1-.1 0-.2 0-.3-.1l-.1-.1c-.066 0-.066 0 0 0h.3l.2.1Z"/>
  <path fill="#1B0C0F" d="M30.3 64c.067.067.067.1 0 .1h-.1c-.1 0-.2-.1-.2-.1l-.2-.1h.4l.1.1Z"/>
  <path fill="#8A3825" d="M30.2 64H30c-.067-.066-.067-.1 0-.1 0 0 .1 0 .2.1Z"/>
  <path fill="#070709" d="M33.9 64.2c.067.067.067.1 0 .1h-.1c-.1 0-.2-.1-.2-.1l-.1-.1c-.066 0-.066 0 0 0h.3l.1.1Z"/>
  <path fill="#1B0C0F" d="M34 64.2c0 .067-.033.1-.1.1-.1 0-.2-.1-.3-.1l-.1-.1c-.066 0-.066 0 0 0h.3l.2.1Z"/>
  <path fill="#8A3825" d="M33.8 64.2c.067 0 .067 0 0 0h-.2v-.1c.1 0 .2 0 .2.1Z"/>
  <path fill="#070709" d="M32.9 90.9c.067.067.067.1 0 .1h-.1s-.1-.1-.2-.1l-.1-.1c-.066-.067-.066-.067 0 0h.3l.1.1Z"/>
  <path fill="#1B0C0F" d="M33 90.9h-.4l-.1-.1c-.066-.066-.066-.1 0-.1h.1c.1 0 .2.1.2.1l.2.1Z"/>
  <path fill="#8A3825" d="M32.8 90.8c.067.067.067.1 0 .1 0 0-.1 0-.2-.1h.2Z"/>
  <path fill="#FBE109" d="M19.3 70.8c-.2 0-.3-.1-.4-.3 0-.1.1-.2.3-.3.1 0 .3.1.3.3 0 .1-.1.2-.2.3Z"/>
  <path fill="#FBE109" d="M19.3 70.8c-.2 0-.3-.1-.4-.3 0-.1.1-.2.3-.3.1 0 .3.1.3.3 0 .1-.1.2-.2.3Z"/>
  <path fill="#5D463C" d="M20.5 68.8s.8.5 1.1 1.3c.4.9.4 1.3.4 1.4 0 .2-.1.5-.1.5l-.6.3c-.2.1-.9.1-.9.1s-.4-1.2-.4-1.8c0-.7 0-1.5.1-1.7.1-.1.4-.1.4-.1Z"/>
  <path stroke="#050505" stroke-linecap="round" stroke-linejoin="round" stroke-width=".4" d="M20.5 68.8s.8.5 1.1 1.3c.4.9.4 1.3.4 1.4 0 .2-.1.5-.1.5l-.6.3c-.2.1-.9.1-.9.1s-.4-1.2-.4-1.8c0-.7 0-1.5.1-1.7.1-.1.4-.1.4-.1Z"/>
  <g opacity=".3" style="mix-blend-mode:multiply">
    <mask id="f" width="4" height="5" x="19" y="68" maskUnits="userSpaceOnUse" style="mask-type:luminance">
      <path fill="#fff" d="m20.33 72.49 1.77-.29-.57-3.41-1.77.29.57 3.41Z"/>
    </mask>
    <g mask="url(#f)">
      <path fill="#050505" d="M20.1 69v1.8c0 .1.2 1.6.4 1.6.1 0 .6 0 .8-.1l.6-.3c.1 0 .1-.4.1-.5-.1.2-.2.3-.3.3-.1 0-.2-.1-.3-.1-.2 0-.1.2-.2.3-.4.3-.7-.3-.7-.6-.1-.3-.4-2.4-.4-2.4Z"/>
      <path stroke="#050505" stroke-linecap="round" stroke-linejoin="round" stroke-width=".4" d="M20.1 69v1.8c0 .1.2 1.6.4 1.6.1 0 .6 0 .8-.1l.6-.3c.1 0 .1-.4.1-.5-.1.2-.2.3-.3.3-.1 0-.2-.1-.3-.1-.2 0-.1.2-.2.3-.4.3-.7-.3-.7-.6-.1-.3-.4-2.4-.4-2.4Z"/>
    </g>
  </g>
  <g opacity=".2" style="mix-blend-mode:multiply">
    <mask id="g" width="2" height="3" x="20" y="68" maskUnits="userSpaceOnUse" style="mask-type:luminance">
      <path fill="#fff" d="m20.32 70.5.89-.15-.26-1.58-.89.15.26 1.58Z"/>
    </mask>
    <g mask="url(#g)">
      <path fill="#B9BBC7" d="M20.1 69s.3.6.3.8l.3.6.4-.1s-.3-.5-.4-.8l-.3-.6-.3.1Z"/>
      <path stroke="#050505" stroke-width=".4" d="M20.1 69s.3.6.3.8l.3.6.4-.1s-.3-.5-.4-.8l-.3-.6-.3.1Z"/>
      <path fill="#B9BBC7" d="m20.3 68.999.2.6c.1.2.4.7.4.7"/>
      <path stroke="#050505" stroke-width=".4" d="m20.3 68.999.2.6c.1.2.4.7.4.7"/>
    </g>
  </g>
  <path fill="#B9BBC7" d="M20.2 68.9s.2.6.3.8c0 .2.2.6.2.6l.5-.2s-.4-.5-.4-.7l-.3-.6-.3.1Z"/>
  <path stroke="#050505" stroke-width=".4" d="M20.2 68.9s.2.6.3.8c0 .2.2.6.2.6l.5-.2s-.4-.5-.4-.7l-.3-.6-.3.1Z"/>
  <path fill="#B9BBC7" d="m20.3 68.8.3.6c.1.3.3.8.3.8"/>
  <path stroke="#050505" stroke-width=".4" d="m20.3 68.8.3.6c.1.3.3.8.3.8"/>
  <path fill="#3D2822" d="M19.7 69c-.1 0-.2-.1-.2-.2v-.3c0-.2-.033-.3-.1-.3h-.6c-.4 0-.7.1-.8.1v.6c0 .1-.1.2-.2.2s-.2-.1-.2-.2v-.4c0-.067.033-.167.1-.3 0-.1.1-.2.2-.2.2-.1.6-.1.9-.2h.5c.2 0 .4 0 .4.1.1.1.1.2.2.6v.3c0 .1-.1.2-.2.2Z"/>
  <path stroke="#050505" stroke-linecap="round" stroke-linejoin="round" stroke-width=".4" d="M19.7 69c-.1 0-.2-.1-.2-.2v-.3c0-.2-.033-.3-.1-.3h-.6c-.4 0-.7.1-.8.1v.6c0 .1-.1.2-.2.2s-.2-.1-.2-.2v-.4c0-.067.033-.167.1-.3 0-.1.1-.2.2-.2.2-.1.6-.1.9-.2h.5c.2 0 .4 0 .4.1.1.1.1.2.2.6v.3c0 .1-.1.2-.2.2Z"/>
  <path fill="#3D2822" d="M16.6 69.2c.1 0 1.2-.4 2.1-.4.9-.1 1.8 0 1.8 0s-.4.1-.4.2c0 .2-.1 1.3 0 1.8 0 .3.1.8.2 1.1 0 .3.2.5.2.5s-.8.3-2.1.3c-1.2.1-1.8.1-1.9 0-.1-.1-.4-1-.3-1.8.1-.8.3-1.6.4-1.7Z"/>
  <path stroke="#050505" stroke-linecap="round" stroke-linejoin="round" stroke-width=".4" d="M16.6 69.2c.1 0 1.2-.4 2.1-.4.9-.1 1.8 0 1.8 0s-.4.1-.4.2c0 .2-.1 1.3 0 1.8 0 .3.1.8.2 1.1 0 .3.2.5.2.5s-.8.3-2.1.3c-1.2.1-1.8.1-1.9 0-.1-.1-.4-1-.3-1.8.1-.8.3-1.6.4-1.7Z"/>
  <g opacity=".3" style="mix-blend-mode:multiply">
    <mask id="h" width="3" height="5" x="15" y="69" maskUnits="userSpaceOnUse" style="mask-type:luminance">
      <path fill="#fff" d="m16.42 73.03 1.48-.25-.59-3.55-1.48.25.59 3.55Z"/>
    </mask>
    <g mask="url(#h)">
      <path fill="#050505" d="M16.5 69.4s-.3 1.6-.3 1.9c0 .2.2 1.4.3 1.4.1.1 1.4.1 1.4.1s-.9-.4-1.1-.8c-.1-.3-.4-.8-.3-1.6v-1Z"/>
      <path stroke="#050505" stroke-linecap="round" stroke-linejoin="round" stroke-width=".4" d="M16.5 69.4s-.3 1.6-.3 1.9c0 .2.2 1.4.3 1.4.1.1 1.4.1 1.4.1s-.9-.4-1.1-.8c-.1-.3-.4-.8-.3-1.6v-1Z"/>
    </g>
  </g>
  <path fill="#3D2822" d="M19.6 69c-.1 0-.2-.1-.2-.2v-.3c-.067-.134-.1-.234-.1-.3h-.7c-.3.1-.6.1-.7.1 0 .067-.033.166-.1.3 0 .2.1.3.1.3 0 .1-.1.2-.2.2s-.2 0-.2-.2v-.6c.1-.1.1-.3.3-.3.1-.1.5-.1.9-.2h.5c.2 0 .3.1.4.2.1 0 .1.1.1.5.1.2.1.3.1.3 0 .1-.1.2-.2.2Z"/>
  <path stroke="#050505" stroke-linecap="round" stroke-linejoin="round" stroke-width=".4" d="M19.6 69c-.1 0-.2-.1-.2-.2v-.3c-.067-.134-.1-.234-.1-.3h-.7c-.3.1-.6.1-.7.1 0 .067-.033.166-.1.3 0 .2.1.3.1.3 0 .1-.1.2-.2.2s-.2 0-.2-.2v-.6c.1-.1.1-.3.3-.3.1-.1.5-.1.9-.2h.5c.2 0 .3.1.4.2.1 0 .1.1.1.5.1.2.1.3.1.3 0 .1-.1.2-.2.2Z"/>
  <path fill="#471F10" d="M36.3 85.8h.4c.067.067.067.1 0 .1h-.1c-.1 0-.2.1-.3.1 0 0-.1 0-.2-.2v-.2c-.067-.067-.067-.1 0-.1l.2.3Zm-1.2-3.3c0 .066-.033.066-.1 0v-.1c0-.1-.1-.2-.1-.2s0-.2.2-.2l.2-.1c.067 0 .1.033.1.1l-.3.5Z"/>
  <path fill="#DB7327" d="m40.6 80.7-.6-.3h-.2L35 82v.1l3.8 1.5 1.8-2.8c.067-.067.067-.1 0-.1Z"/>
  <path fill="#C37429" d="m35 82.2 1.2 3.6.1.1.6.2c0 .1.1 0 .1 0l1.8-2.5-3.8-1.5v.1Z"/>
  <path fill="#BB7429" d="M41.9 84.4c.1.1 0 .1 0 .1l-4.8 1.7c-.067 0-.133-.033-.2-.1l-1.2-3.6c0-.067.033-.1.1-.1l4.8-1.6c.067-.067.1-.067.1 0l1.2 3.6Z"/>
  <path stroke="#471F10" stroke-width=".4" d="m36.5 85.8-1.2-3.6 4.8-1.6"/>
  <path stroke="#B42224" stroke-width=".4" d="m35.3 82.2 4.8-1.6"/>
  <path fill="#471F10" d="M37.4 81.4s-.1.1-.3.2c-.2 0-.3.1-.4 0 0 0 .2-.1.4-.1.1-.1.3-.1.3-.1Zm1.5-.5s-.2.1-.3.2c-.2 0-.4.1-.4 0 0 0 .2-.1.3-.1.2-.1.4-.1.4-.1Z"/>
  <path fill="#471F10" d="M36.9 81.6s-.2-.5.3-.7l.6-.2.1.2-.6.2s-.2.1-.1.4l-.3.1Z"/>
  <path fill="#471F10" d="M38.7 81s-.1-.5-.6-.3l-.7.2.1.2.5-.2s.3-.1.4.2l.3-.1Z"/>
  <path fill="#CF2427" d="M37 81.6s-.3-.5.2-.7l.7-.2v.2l-.5.2s-.2.1-.1.4l-.3.1Z"/>
  <path fill="#CF2427" d="M38.8 81s-.1-.6-.7-.4l-.6.3v.1l.6-.2s.3 0 .3.3l.4-.1Z"/>
  <path fill="#471F10" d="M35.8 82.8c0 .067-.033.067-.1 0v-.1c0-.1-.1-.2-.1-.2s0-.1.2-.2l.2-.1c.067 0 .1.033.1.1l-.3.5Zm5-1.7c.067.067.067.067 0 0V81c0-.1-.1-.2-.1-.3 0 0 0-.1-.3 0l-.2.1c-.067 0-.067.033 0 .1l.6.2Z"/>
  <path fill="#471F10" d="M35.8 82.8c0 .067-.033.067-.1 0v-.1c0-.1-.1-.2-.1-.2s0-.1.2-.2l.2-.1c.067 0 .1.033.1.1l-.3.5Zm5-1.7c.067.067.067.067 0 0V81c0-.1-.1-.2-.1-.3 0 0 0-.1-.3 0l-.2.1c-.067 0-.067.033 0 .1l.6.2Zm1 3c0-.067.034-.067.1 0v.1s0 .2.1.2c0 0 0 .1-.2.2l-.2.1c-.066 0-.1-.034-.1-.1l.3-.5Zm-5 1.7c-.066-.067-.066-.067 0 0v.1c0 .1 0 .2.1.3 0 0 0 .1.3 0l.2-.1c.067 0 .067-.033 0-.1l-.6-.2Zm-1.7-3.7v.4c0 .066-.033.066-.1 0v-.1c0-.1-.1-.2-.1-.2s0-.2.2-.2l.2-.1c.067 0 .1.033.1.1l-.3.1Zm5.1-1.6-.2-.1-.4.1c-.067 0-.067-.033 0-.1h.2s.3-.1.3 0m-3.8 1.5c.067.067.067.1 0 .1h-.5c-.066 0-.066-.033 0-.1h.5Z"/>
  <path fill="#861F19" d="M36.3 81.9c.067 0 .067.033 0 .1h-.4c-.067 0-.067-.033 0-.1h.4Z"/>
  <path fill="#F59828" d="M36.2 81.9c.067 0 .067.033 0 .1H36c-.066 0-.066-.033 0-.1h.2Z"/>
  <path fill="#471F10" d="M39.8 80.7c.067.066.067.1 0 .1-.1 0-.2.1-.3 0h-.1c-.067 0-.067 0 0 0v-.1h.4Z"/>
  <path fill="#861F19" d="M39.9 80.7c.067 0 .067.033 0 .1h-.5c-.067 0-.067-.034 0-.1h.5Z"/>
  <path fill="#F59828" d="M39.7 80.7c.067 0 .067.033 0 .1h-.2v-.1h.2Z"/>
  <path fill="#102A47" d="M40.4 82.1c.3.2.3.7.1 1-.3.3-.7.3-1 0-.3-.3-.3-.7-.1-1 .3-.3.8-.3 1 0Z"/>
  <path fill="#DB454A" d="m39.8 82.4.1-.3.2.3.3-.1-.2.3.1.3-.3-.1-.2.2v-.3l-.3-.2.3-.1Z"/>
  <mask id="i" width="4" height="3" x="36" y="82" maskUnits="userSpaceOnUse" style="mask-type:luminance">
    <path fill="#fff" d="m37.37 84.11 2.08-1.43-2.65.06.57 1.37Z"/>
  </mask>
  <g mask="url(#i)">
    <path fill="url(#j)" d="m38.2 85.3-2-1.9 2-2.2 2 1.9-2 2.2Z"/>
  </g>
  <g opacity=".3">
    <mask id="k" width="3" height="2" x="37" y="82" maskUnits="userSpaceOnUse" style="mask-type:luminance">
      <path fill="#fff" d="m37.24 83.88 1.99-.33-.18-1.1-2 .33.19 1.1Z"/>
    </mask>
    <g mask="url(#k)">
      <path fill="#3E6CB4" d="m39.1 82.7-2 .1.4 1 1.6-1.1Z"/>
    </g>
  </g>
  <path fill="#2D3332" d="M28.8 79.7s0 .1-.1.2h-.2c0-.1 0-.2.1-.2.1-.1.2-.1.2 0Zm.9-.3c0 .1 0 .1-.1.2 0 .1-.1.1-.2 0 0 0 0-.1.1-.2.1 0 .2-.1.2 0Zm4.6-3.7c0 .1 0 .2-.1.2 0 .1-.1.1-.2 0 0 0 0-.1.1-.2h.2Z"/>
  <path fill="#874D7D" d="M27 76.8h-.9c0 .067.033.1.1.1l2.2 2.8c.1.1.2.1.2.1l.9-.3 3.8-3.4c0-.1.1-.2 0-.3l-2-2.4-4.3 3.4Z"/>
  <path fill="#9B4D7D" d="m31.3 73.4-.2-.2h-.5l-4.4 3.5-.1.1h.9l4.3-3.4Z"/>
  <path fill="#2D3332" d="M27.9 75.5s-.3-.4.1-.7l.5-.4.1.2-.4.3s-.2.2 0 .4l-.3.2Z"/>
  <path fill="#2D3332" d="M29.4 74.3s-.3-.4-.7 0l-.5.4.1.1.4-.3s.3-.2.4 0l.3-.2Z"/>
  <path fill="#2D3332" d="M28 75.5s-.4-.4.1-.7l.5-.4.1.1-.5.4s-.1.1.1.4l-.3.2Z"/>
  <path fill="#2D3332" d="M29.5 74.3s-.3-.4-.7-.1l-.6.4.1.2.5-.4s.2-.1.4.1l.3-.2Z"/>
  <path fill="#B24D7D" d="M29.6 79.5c-.1 0-.2 0-.2-.1l-2.7-2.5c-.1 0-.1-.1 0-.2l4.4-3.4c0-.1.1-.1.2 0l2.9 2.3v.2"/>
  <path stroke="#D88F52" stroke-width=".4" d="M29.6 79.5c-.1 0-.2 0-.2-.1l-2.7-2.5c-.1 0-.1-.1 0-.2l4.4-3.4c0-.1.1-.1.2 0l2.9 2.3v.2"/>
  <path fill="#9B4D7D" d="M34 75.6c0 .1 0 .2-.1.2l-4.3 3.5s-.1 0-.2-.1l-2.5-2.3v-.2l4.1-3.2c.1-.1.2-.1.2 0l2.8 2.1Z"/>
  <path fill="#99777C" d="M33.7 75.6c.1.1.1.2 0 .2l-4 3.3c-.1 0-.2 0-.2-.1l-2.4-2.1c0-.1 0-.1.1-.2l3.8-3.1c.1 0 .2 0 .2.1l2.5 1.9Z"/>
  <path fill="#2D3332" d="m30.3 79-.2.2-.2-.3.2-.2.2.3Zm3.4-2.8-.2.2-.2-.3.2-.2.2.3Z"/>
  <path fill="#6A3433" d="m30.4 78.9-.3.2-.2-.3.2-.2.3.3Zm-3.1-2.7-.2.2h-.5l.2-.2h.5Zm3.3-2.6-.2.1h-.5l.2-.1h.5Z"/>
  <path fill="#6A3433" d="m27.7 76.4-.3.2-.3-.3.2-.1.4.2Zm3.2-2.6-.2.2-.3-.3.2-.2.3.3Z"/>
  <path stroke="#6A3433" stroke-width=".4" d="m30 78.7-2.5-2.3m5.9-.4-2.6-2.1"/>
  <path fill="#6A3433" d="m33.8 76.2-.2.2-.3-.3.3-.2.2.3Zm-5.2 3.5-2.2-2.8 2.8 2.6-.6.2Z"/>
  <path fill="#612C0F" d="M35.3 90.7c-.1-.1-1.6.9-1.8 1.1-.7.5-1.5 1.4-1.5 1.7.8.9 1.7 3.7 3.3 3.7.5-.2 1.3-.7 1.7-1.3.1-.1.4-.3.5-.5.3-.2.5-.5.7-.9.2-.2.3-.4.1-.7-.1-.3-.3-.4-.5-.5-.5-.5-2.3-2.5-2.5-2.6Z"/>
  <path stroke="#0C0908" stroke-linecap="round" stroke-linejoin="round" stroke-width=".4" d="M35.3 90.7c-.1-.1-1.6.9-1.8 1.1-.7.5-1.5 1.4-1.5 1.7.8.9 1.7 3.7 3.3 3.7.5-.2 1.3-.7 1.7-1.3.1-.1.4-.3.5-.5.3-.2.5-.5.7-.9.2-.2.3-.4.1-.7-.1-.3-.3-.4-.5-.5-.5-.5-2.3-2.5-2.5-2.6Z"/>
  <g opacity=".2">
    <mask id="l" width="7" height="8" x="32" y="89" maskUnits="userSpaceOnUse" style="mask-type:luminance">
      <path fill="#fff" d="m33.58 97 5.18-.95-1.14-6.22-5.18.95L33.58 97Z"/>
    </mask>
    <g mask="url(#l)">
      <path fill="#0C0908" d="M38.3 93.8c-.1-.3-.3-.4-.5-.5-.5-.5-2.3-2.5-2.5-2.6-.1-.1 0-.4-.1-.4-.4 0-1 .6-1.2.8-.133.2-.3.433-.5.7-.2.2-.5.5-.7.9.5 1.7 1.8 4.5 3.4 3.8.2-.134.433-.267.7-.4V96c.2-.2.5-.4.6-.6.3-.2.5-.5.7-.9.2-.2.3-.4.1-.7Z"/>
    </g>
  </g>
  <g opacity=".2">
    <mask id="m" width="7" height="8" x="32" y="89" maskUnits="userSpaceOnUse" style="mask-type:luminance">
      <path fill="#fff" d="m34.05 96.68 4.67-.85-1.1-6-4.67.86 1.1 5.99Z"/>
    </mask>
    <g mask="url(#m)">
      <path fill="#0C0908" d="M35.2 90.3c-.4 0-1 .6-1.2.8-.2.4-.5.7-.7 1.1v.2c.2.5.5 1 1 1.6 0 .066.033.133.1.2l2.3 1.9c0 .067.033.1.1.1.2-.3.5-.5.7-.8.3-.2.5-.5.7-.9.2-.2.3-.4.1-.7-.1-.3-.3-.4-.5-.5-.5-.5-2.3-2.5-2.5-2.6-.1-.1 0-.4-.1-.4Z"/>
    </g>
  </g>
  <path fill="#2E130C" d="m39.1 93.1-.4.3s.2 0 .2.2c-.2.4-.5.6-.5.6l-.4.5c.2-.1.5-.2.8-.5.2-.2.3-.4.3-.5l.1-.1h-.1c.1-.3 0-.5 0-.5Z"/>
  <path stroke="#150D0B" stroke-linejoin="round" stroke-width=".4" d="m39.1 93.1-.4.3s.2 0 .2.2c-.2.4-.5.6-.5.6l-.4.5c.2-.1.5-.2.8-.5.2-.2.3-.4.3-.5l.1-.1h-.1c.1-.3 0-.5 0-.5Z"/>
  <path fill="#2E130C" d="M35.3 92s1.4 1.1 2.5.9c.8-.2 1 .5 1 .5l.4-.3s-.2-.4-.6-.6c-.5-.2-.7-.1-1.3-.1-.4-.1-1.5-.8-1.5-.8l-.5.4Z"/>
  <path stroke="#150D0B" stroke-linejoin="round" stroke-width=".4" d="M35.3 92s1.4 1.1 2.5.9c.8-.2 1 .5 1 .5l.4-.3s-.2-.4-.6-.6c-.5-.2-.7-.1-1.3-.1-.4-.1-1.5-.8-1.5-.8l-.5.4Z"/>
  <path fill="#2E130C" d="m38.9 93 .6.3c.3.1.4.2.4.3 0 .2-.3.2-.5.1-.3-.1-.5-.2-.7-.4 0-.1.2-.3.2-.3Z"/>
  <path stroke="#150D0B" stroke-linejoin="round" stroke-width=".4" d="m38.9 93 .6.3c.3.1.4.2.4.3 0 .2-.3.2-.5.1-.3-.1-.5-.2-.7-.4 0-.1.2-.3.2-.3Z"/>
  <path fill="#767777" d="M39.2 93.1s0-.1-.1-.1c0 0-.1-.1-.1 0h-.1a1.165 1.165 0 0 1-.2.3v.1l.1.1h.1l.1.1h-.2l-.1-.1-.1-.1v-.2a1.15 1.15 0 0 1 .3-.2v-.1c.1-.1.2 0 .2 0l.1.1c.067.066.1.133.1.2"/>
  <path stroke="#363637" stroke-linecap="round" stroke-width=".4" d="m39.2 93.1-.1-.1s-.1-.1-.1 0h-.1a1.168 1.168 0 0 1-.2.3v.1l.2.1"/>
  <path stroke="#363637" stroke-width=".4" d="M39 93.6h-.1c-.1 0-.1 0-.2-.1l-.1-.1v-.2a1.15 1.15 0 0 1 .3-.2v-.1c.1-.1.2 0 .2 0l.1.1c.1 0 .1.1.1.2"/>
  <path fill="#767777" d="m39 93.2-.2-.2h-.1v.1l.2.2v-.1h.1Z"/>
  <path stroke="#363637" stroke-linejoin="round" stroke-width=".4" d="m39 93.2-.2-.2h-.1v.1l.2.2v-.1h.1Z"/>
  <path fill="#150D0B" d="M39.1 93.3v.1c-.067 0-.067-.034 0-.1Zm.2.1v.1h-.1v-.1h.1Z"/>
  <path fill="#2E130C" d="m37.9 94.4-.5.2s.3 0 .3.2c-.2.4-.4.7-.4.7l-.4.5c.2 0 .3-.2.7-.6.2-.1.3-.3.3-.5l.1-.1h-.1c.1-.3 0-.4 0-.4Z"/>
  <path stroke="#150D0B" stroke-linejoin="round" stroke-width=".4" d="m37.9 94.4-.5.2s.3 0 .3.2c-.2.4-.4.7-.4.7l-.4.5c.2 0 .3-.2.7-.6.2-.1.3-.3.3-.5l.1-.1h-.1c.1-.3 0-.4 0-.4Z"/>
  <path fill="#2E130C" d="M34.1 93.3s1.4 1 2.5.8c.8-.1 1 .5 1 .5l.4-.2s-.2-.5-.6-.7c-.5-.2-.7-.1-1.3-.1-.4 0-1.5-.7-1.5-.7l-.5.4Z"/>
  <path stroke="#150D0B" stroke-linejoin="round" stroke-width=".4" d="M34.1 93.3s1.4 1 2.5.8c.8-.1 1 .5 1 .5l.4-.2s-.2-.5-.6-.7c-.5-.2-.7-.1-1.3-.1-.4 0-1.5-.7-1.5-.7l-.5.4Z"/>
  <path fill="#2E130C" d="M37.9 94.3c.067.267.167.467.3.6.2.2.3.3.2.4-.1.2-.4.1-.5-.1-.2-.3-.3-.5-.4-.8.1 0 .4-.1.4-.1Z"/>
  <path stroke="#150D0B" stroke-linejoin="round" stroke-width=".4" d="M37.9 94.3c.067.267.167.467.3.6.2.2.3.3.2.4-.1.2-.4.1-.5-.1-.2-.3-.3-.5-.4-.8.1 0 .4-.1.4-.1Z"/>
  <path fill="#767777" d="M38 94.5v-.1c0-.1-.1-.1-.1-.1l-.1.1c-.067 0-.167.034-.3.1v.2c0 .1 0 .1.1.1v.1h-.1l-.1-.1v-.1s-.1-.1 0-.2v-.1l.4-.2c.2 0 .2 0 .2.1l.1.1v.2"/>
  <path stroke="#363637" stroke-linecap="round" stroke-width=".4" d="M38 94.5v-.1c0-.1-.1-.1-.1-.1l-.1.1c-.067 0-.167.033-.3.1v.1l.1.2"/>
  <path stroke="#363637" stroke-width=".4" d="M37.6 94.9h-.1s0-.1-.1-.2c0 0-.1-.1 0-.2v-.1l.4-.2c.2 0 .2 0 .2.1l.1.1v.2"/>
  <path fill="#767777" d="m37.8 94.5-.1-.2c0-.067-.033-.067-.1 0l.1.2h.1Z"/>
  <path stroke="#363637" stroke-linejoin="round" stroke-width=".4" d="m37.8 94.5-.1-.2c0-.067-.033-.067-.1 0l.1.2h.1Z"/>
  <path fill="#150D0B" d="M37.9 94.7h-.1c.067-.067.1-.067.1 0Zm.1.1c0 .067-.033.1-.1.1v-.1h.1Z"/>
  <path fill="#612C0F" d="M34.1 95.4c.067-.133.233-.167.5-.1.133 0 .3.067.5.2.5.3.8.6.7.9-.3.2-.6.4-1.3 0-.4-.3-.5-.9-.4-1Z"/>
  <path stroke="#0C0908" stroke-width=".4" d="M34.1 95.4c.067-.133.233-.167.5-.1.133 0 .3.067.5.2.5.3.8.6.7.9-.3.2-.6.4-1.3 0-.4-.3-.5-.9-.4-1Z"/>
  <path stroke="#0C0908" stroke-linejoin="round" stroke-width=".4" d="M34.6 95.8c.2.1.6.4 1.1.5"/>
  <g opacity=".2">
    <mask id="n" width="2" height="2" x="34" y="95" maskUnits="userSpaceOnUse" style="mask-type:luminance">
      <path fill="#fff" d="m34.48 96.56 1.37-.25-.21-1.18-1.37.25.21 1.18Z"/>
    </mask>
    <g mask="url(#n)">
      <path fill="#0C0908" d="M34.7 95.7a1.57 1.57 0 0 1-.4-.3c.067-.067.167-.067.3 0 .133 0 .3.033.5.1.5.3.7.7.8.8-.4 0-.9-.3-1.2-.6Z"/>
    </g>
  </g>
  <path fill="#612C0F" d="M34.9 95.9c-.2.3-.5.4-.7.5-.1-.2-.5-.6-.2-1 .2-.2.3-.1.5-.1.2.2.4.4.4.6Z"/>
  <path stroke="#0C0908" stroke-linejoin="round" stroke-width=".4" d="M34.9 95.9c-.2.3-.5.4-.7.5-.1-.2-.5-.6-.2-1 .2-.2.3-.1.5-.1.2.2.4.4.4.6Z"/>
  <path fill="#F5F7F7" d="M34.3 96.2c.067 0 .133-.033.2-.1l-.1-.1h-.1v.2Z"/>
  <path stroke="#B1B3B4" stroke-linejoin="round" stroke-width=".4" d="M34.3 96.2c.067 0 .133-.033.2-.1l-.1-.1h-.1v.2Z"/>
  <path fill="#0C0908" d="M33.1 92.1s-1.1 1-1.1 1.2c0 .3.2.4.4.6.2.1 1.4.8 1.3.4 0-.2-.2-.8-.3-1.1 0-.2-.2-.6-.1-.8 0-.3.3-.6.5-.9l-.7.6Z"/>
  <path fill="#2E130C" d="M35.1 92.8c.2.2.4.333.6.4.2.1.4.2.3.3 0 .2-.3.2-.5.1-.3-.2-.5-.3-.7-.5l.3-.3Z"/>
  <path stroke="#150D0B" stroke-linejoin="round" stroke-width=".4" d="M35.1 92.8c.2.2.4.333.6.4.2.1.4.2.3.3 0 .2-.3.2-.5.1-.3-.2-.5-.3-.7-.5l.3-.3Z"/>
  <path fill="#0C0908" d="M35.6 93.4h-.1c.067-.067.1-.067.1 0Z"/>
  <path fill="#2E130C" d="M36.3 91.1c.2.2.4.333.6.4.2.1.4.2.4.3-.1.2-.4.2-.6.1-.3-.2-.5-.3-.7-.5l.3-.3Z"/>
  <path stroke="#150D0B" stroke-linejoin="round" stroke-width=".4" d="M36.3 91.1c.2.2.4.333.6.4.2.1.4.2.4.3-.1.2-.4.2-.6.1-.3-.2-.5-.3-.7-.5l.3-.3Z"/>
  <path fill="#0C0908" d="M36.8 91.6v.1h-.1l.1-.1Z"/>
  <path fill="#612C0F" d="M33.2 92.6c.5-.4.9 0 1.2.4.067.133.167.267.3.4 0 .1.1.1.2.1.3-.1.5-.4.7-.6.2-.267.367-.5.5-.7.3-.3.5-.5.6-.8 0-.3-.2-.3-.4-.4-.2-.1-.4-.2-.6-.4-.1-.2-.3-.3-.6-.3-.2 0-.1 0-.9.7-.9.7-1 1.6-1 1.6Z"/>
  <path stroke="#0C0908" stroke-width=".4" d="M33.2 92.6c.5-.4.9 0 1.2.4.067.133.167.267.3.4 0 .1.1.1.2.1.3-.1.5-.4.7-.6.2-.267.367-.5.5-.7.3-.3.5-.5.6-.8 0-.3-.2-.3-.4-.4-.2-.1-.4-.2-.6-.4-.1-.2-.3-.3-.6-.3-.2 0-.1 0-.9.7-.9.7-1 1.6-1 1.6Z"/>
  <g opacity=".2">
    <mask id="o" width="5" height="3" x="33" y="91" maskUnits="userSpaceOnUse" style="mask-type:luminance">
      <path fill="#fff" d="m33.44 93.76 3.58-.66-.38-2.08-3.58.66.38 2.08Z"/>
    </mask>
    <g mask="url(#o)">
      <path fill="#0C0908" d="M35.7 91.7c-.3.2-.7.5-1.2.5-.2 0-.5-.1-.8-.1-.133 0-.267.067-.4.2l-.1.3c.5-.4.9 0 1.2.4.067.133.167.267.3.4 0 .1.1.1.2.1.3-.1.5-.4.7-.6.2-.267.367-.5.5-.7.3-.3.5-.5.6-.8 0-.3-.1-.3-.3-.3-.2.2-.433.4-.7.6Z"/>
    </g>
  </g>
  <path fill="#7358A4" d="M75.2 96.7 0 89l1-5.1 74.6 7.7-.4 5.1Z"/>
  <path fill="#FEFEFE" fill-rule="evenodd" d="M29.8 74.2c1 .1 2.1.3 1.3 3.6-.9 3-1.9 3-3.4 2.8h-.6l1.8-6.5.9.1Zm-.3.7-1.4 5c1.4.2 1.7-1.1 2-2.2.3-1 .8-2.7-.6-2.8Z" clip-rule="evenodd"/>
  <path fill="#FEFEFE" d="m31.7 81.1-.9-.1 1.8-6.5.9.1-1.8 6.5Zm1.3-6.9-.3-.3 1-1.2.5.5-1.2 1Z"/>
  <path fill="#FEFEFE" fill-rule="evenodd" d="m35.9 74.9-.5 6.6-.8-.1.1-1.3-1.3-.1-.5 1.2-.9-.1 3.2-6.3.7.1Zm-1 3.6.3-2.4-1.4 3.2 1 .2.1-1Zm5.1-3.2c1 .1 2.2.3 1.3 3.6-.9 3-1.9 3.1-3.4 2.9l-.6-.1 1.8-6.5.9.1Zm-.3.7-1.4 5.1c1.4.2 1.7-1.2 2-2.3.3-1 .8-2.7-.6-2.8Z" clip-rule="evenodd"/>
  <path fill="#FEFEFE" d="m45.1 75.9-.2.8-1.4-.2-.6 2 1.3.2-.2.7-1.3-.1-.6 2.2 1.4.2-.2.7-2.3-.2 1.8-6.6 2.3.3Zm1.3.1-1.6 5.8 1.4.2-.2.7-2.2-.2 1.7-6.5h.9ZM1.7 90.7l2-8.1 2.3.3-1.9 8-2.4-.2Zm12.5-7-1.9 8-2.1-.2-1.7-3.7-.8 3.5-2.4-.3 1.9-8 2.2.2 1.6 3.7.9-3.5 2.3.3Zm4 7.6-.6-.1-.9-2.5-.8 3.3-2.3-.2 1.9-8 2.2.2 1.2 3.3 2.7-2.9 2.1.2-1.9 8-2.3-.2.8-3.4-2.1 2.3Zm4.9 1.4 1.9-8 2.3.2-1.9 8-2.3-.2Zm10.7-4.1c-.2-.4-.433-.666-.7-.8a3.552 3.552 0 0 0-1-.3c-.467 0-.933.167-1.4.5-.4.334-.667.767-.8 1.3-.133.534-.067 1 .2 1.4.267.4.633.6 1.1.6.267.067.533.034.8-.1.267-.067.433-.166.5-.3l.2-.2-1.5-.1.4-1.9 4.1.4-.4 1.6c-.3.9-.9 1.6-1.4 2a3.91 3.91 0 0 1-.9.5 3.91 3.91 0 0 1-.8.3c-.267.067-.5.1-.7.1h-.9c-1.133-.133-2-.633-2.6-1.5-.6-.866-.767-1.9-.5-3.1.267-1.133.9-2.067 1.9-2.8 1-.733 2.067-1.033 3.2-.9 1.533.134 2.6.9 3.2 2.3l-2 1Z"/>
  <path fill="#FEFEFE" fill-rule="evenodd" d="m42.7 94.6-2.9-.3-1.1-2.1-.3-.1-.4 2-2.4-.2 1.9-8 3.3.3s.1 0 .6.1c.4.1.7.3 1.1.6.4.4.7.8.7 1.5.066.334.066.7 0 1.1-.267 1.134-.9 1.934-1.9 2.4l1.4 2.7Zm-3.3-6.3-.4 1.5.9.1c.4.067.666-.166.8-.7.1-.4-.1-.7-.4-.8l-.9-.1Zm10.7-1.2 1 8.3-2.5-.2-.1-.9-2.5-.2-.5.8-2.6-.3 4.9-7.7 2.3.2Zm-2.9 4.7 1 .1-.1-1.7-.9 1.6Z" clip-rule="evenodd"/>
  <path fill="#FEFEFE" d="m60.8 88.1-2 8-2.1-.2-1.7-3.7-.8 3.5-2.3-.2 1.9-8.1 2.1.2 1.7 3.8.8-3.5 2.4.2Zm2.5 2.6-2.2-.3.6-2.2 6.7.6-.6 2.3-2.2-.2-1.3 5.8-2.4-.3 1.4-5.7Zm7.8.7-.2.8 3.1.3-.5 2-3.1-.3-.2.7 3.4.3-.6 2.3-5.7-.5 2-8.1 5.6.6-.5 2.2-3.3-.3Z"/>
  <defs>
    <linearGradient id="b" x1="33.5" x2="40.7" y1="104.6" y2="104.4" gradientUnits="userSpaceOnUse">
      <stop stop-color="#fff"/>
      <stop offset="1"/>
    </linearGradient>
    <linearGradient id="c" x1="34.9" x2="37.5" y1="107.4" y2="106" gradientUnits="userSpaceOnUse">
      <stop stop-color="#78469B"/>
      <stop offset="1" stop-color="#B13293"/>
    </linearGradient>
    <linearGradient id="d" x1="33.5" x2="40.7" y1="104.6" y2="104.4" gradientUnits="userSpaceOnUse">
      <stop stop-color="#fff"/>
      <stop offset="1"/>
    </linearGradient>
    <linearGradient id="e" x1="34.9" x2="40.2" y1="107.4" y2="106.9" gradientUnits="userSpaceOnUse">
      <stop stop-color="#F6F7F8"/>
      <stop offset="1" stop-color="#78469B"/>
    </linearGradient>
    <linearGradient id="j" x1="39.6" x2="38.2" y1="82.5" y2="81.2" gradientUnits="userSpaceOnUse">
      <stop stop-color="#FEFEFE"/>
      <stop offset="1" stop-color="#F5D20C"/>
    </linearGradient>
  </defs>
</svg>
