<svg width="81" height="70" viewBox="0 0 81 70" fill="none" xmlns="http://www.w3.org/2000/svg">
<path d="M51.5 0.600037L77.7999 6.69995L18.5999 9.29993L21.4999 70.2L2.5 53.6L0.5 0.600037H51.5Z" fill="#7C265A"/>
<path d="M51.5 0.100037L0 1.10004L18.4999 8.19995L77.7999 6.69995L51.5 0.100037Z" fill="#AB3878"/>
<mask id="mask0_239_69851" style="mask-type:alpha" maskUnits="userSpaceOnUse" x="0" y="0" width="78" height="9">
<path d="M51.5 0.100037L0 1.10004L18.4999 8.19995L77.7999 6.69995L51.5 0.100037Z" fill="#AB3878"/>
</mask>
<g mask="url(#mask0_239_69851)">
<mask id="mask1_239_69851" style="mask-type:luminance" maskUnits="userSpaceOnUse" x="-64" y="-37" width="142" height="46">
<path d="M-60.5302 -26.28L-63.8201 -36.4L77.7899 6.66003L18.2999 8.33997L-60.5302 -26.28Z" fill="white"/>
</mask>
<g mask="url(#mask1_239_69851)">
<path d="M108.5 50.2999L-36.3002 -15.6" stroke="#ED4592" stroke-width="0.4"/>
<path d="M106.4 47.6L-67.6001 -30.9" stroke="#ED4592" stroke-width="0.4"/>
<path d="M104.3 44.9L-66.4001 -32.5" stroke="#ED4592" stroke-width="0.4"/>
<path d="M102.3 42.2L-63.1001 -33" stroke="#ED4592" stroke-width="0.4"/>
<path d="M100.2 39.4L-60.2001 -33.8" stroke="#ED4592" stroke-width="0.4"/>
<path d="M97.9999 36.2L-62.0001 -36.4" stroke="#ED4592" stroke-width="0.4"/>
<path d="M96.0999 34L-48.7001 -32.5" stroke="#ED4592" stroke-width="0.4"/>
<path d="M93.9999 31.2999L-50.8002 -35.1" stroke="#ED4592" stroke-width="0.4"/>
<path d="M91.8999 28.6L-51.9001 -37.5" stroke="#ED4592" stroke-width="0.4"/>
<path d="M89.8999 25.6L-54.9001 -40.2001" stroke="#ED4592" stroke-width="0.4"/>
<path d="M87.7999 22.9L-56.9001 -42.9" stroke="#ED4592" stroke-width="0.4"/>
<path d="M85.7999 20.2L-59.0001 -45.6" stroke="#ED4592" stroke-width="0.4"/>
<path d="M83.6998 17.5L-61.1001 -48.3" stroke="#ED4592" stroke-width="0.4"/>
<path d="M81.6998 14.5L-63.1001 -51.3" stroke="#ED4592" stroke-width="0.4"/>
<path d="M79.5999 11.7999L-65.2001 -54" stroke="#ED4592" stroke-width="0.4"/>
<path d="M78.0999 9.59998L-67.3002 -56.2001" stroke="#ED4592" stroke-width="0.4"/>
<path d="M75.3999 6.90002L-69.4001 -58.9" stroke="#ED4592" stroke-width="0.4"/>
<path d="M73.2999 4.19995L-71.4001 -61.6" stroke="#ED4592" stroke-width="0.4"/>
<path d="M71.2999 1.5L-73.5001 -64.3" stroke="#ED4592" stroke-width="0.4"/>
</g>
</g>
<path d="M80.5999 67.1L21.4999 70.2L18.3999 8.29993L77.7999 6.69995L80.5999 67.1Z" fill="#ED4592"/>
</svg>
