<svg width="145" height="161" viewBox="0 0 145 161" fill="none" xmlns="http://www.w3.org/2000/svg">
<mask id="path-1-outside-1_1088_25029" maskUnits="userSpaceOnUse" x="-0.814453" y="-0.0859375" width="146" height="161" fill="black">
<rect fill="white" x="-0.814453" y="-0.0859375" width="146" height="161"/>
<path d="M106.068 99.7709L123.032 51.742C123.307 50.9696 124.006 50.3843 124.865 50.2135C129.54 49.2622 132.453 44.8389 133.533 41.3508C134.666 37.6757 134.666 33.7892 134.666 29.675L134.675 27.0651C134.715 24.1913 134.897 21.3305 135.19 18.477C135.246 17.9325 134.858 17.4387 134.313 17.3933C126.883 16.775 119.217 19.542 114.417 24.8372C113.895 25.4227 113.062 25.7479 112.257 25.6503C111.424 25.569 110.698 25.1218 110.3 24.4551C108.193 20.8613 103.172 18.7879 98.8339 19.731L97.4172 20.105C95.9917 20.5034 94.3714 20.9507 92.5563 20.8044C88.1823 20.4385 85.9423 17.2186 83.9678 14.3809C82.6132 12.4376 81.3293 10.6082 79.6116 9.88452C78.3277 9.34788 76.61 9.38055 74.9809 9.42121L52.3134 9.884C51.8355 9.89376 51.4314 10.2403 51.3488 10.7111L49.7644 19.7473C49.4634 21.528 48.879 24.8534 46.0103 26.5934C44.4431 27.5447 42.6634 27.7561 41.0254 27.7561L40.2108 27.7398C34.4012 27.5372 28.6596 26.0605 23.4103 23.6803C22.7741 23.3919 22.0346 23.8069 21.9551 24.5008C21.7447 26.3385 21.434 28.1974 20.7672 30.0409C20.0057 32.1305 18.8635 34.0007 17.7479 35.7976C16.9245 37.1392 16.0922 38.4808 15.4725 39.9037C14.3391 42.4649 14.0912 45.8066 16.0833 47.5059C17.6151 48.815 20.0323 48.9287 22.8302 49.067C25.3005 49.1889 27.8505 49.319 30.2854 50.2866C36.6692 52.8315 38.8119 60.0275 37.5811 65.5077C36.3593 70.9879 32.6229 75.4273 29.3203 79.3464L9.3636 103.07C8.85451 103.675 9.2159 104.61 9.99168 104.763C11.4682 105.055 12.9394 105.49 14.348 106.154C17.8453 107.829 21.2365 111.626 20.4219 116C20.2714 116.772 19.9969 117.512 19.7136 118.244L19.2407 119.679C19.2254 119.725 19.2132 119.773 19.2061 119.821C18.9309 121.689 20.505 123.766 22.1308 125.741L33.2781 139.14V139.14C33.6745 139.553 34.3381 139.541 34.7192 139.114L35.3853 138.368L36.6691 136.994C38.5374 135.246 41.176 134.425 44.0624 134.717C47.6395 135.075 51.1722 137.083 53.0847 139.856C55.3965 143.228 55.8582 147.243 55.8736 150.793C55.8761 151.391 56.3871 151.867 56.9754 151.763C61.0702 151.042 64.8671 148.55 66.7112 145.133C67.632 143.377 68.6325 141.466 70.97 140.775C72.5017 140.311 73.9804 140.645 74.972 140.872L91.1414 144.544C91.6823 144.667 92.2195 144.326 92.3419 143.785C93.476 138.774 94.8981 133.417 96.7178 127.473C99.5776 118.122 102.88 108.796 106.068 99.7709"/>
</mask>
<path d="M106.068 99.7709L123.032 51.742C123.307 50.9696 124.006 50.3843 124.865 50.2135C129.54 49.2622 132.453 44.8389 133.533 41.3508C134.666 37.6757 134.666 33.7892 134.666 29.675L134.675 27.0651C134.715 24.1913 134.897 21.3305 135.19 18.477C135.246 17.9325 134.858 17.4387 134.313 17.3933C126.883 16.775 119.217 19.542 114.417 24.8372C113.895 25.4227 113.062 25.7479 112.257 25.6503C111.424 25.569 110.698 25.1218 110.3 24.4551C108.193 20.8613 103.172 18.7879 98.8339 19.731L97.4172 20.105C95.9917 20.5034 94.3714 20.9507 92.5563 20.8044C88.1823 20.4385 85.9423 17.2186 83.9678 14.3809C82.6132 12.4376 81.3293 10.6082 79.6116 9.88452C78.3277 9.34788 76.61 9.38055 74.9809 9.42121L52.3134 9.884C51.8355 9.89376 51.4314 10.2403 51.3488 10.7111L49.7644 19.7473C49.4634 21.528 48.879 24.8534 46.0103 26.5934C44.4431 27.5447 42.6634 27.7561 41.0254 27.7561L40.2108 27.7398C34.4012 27.5372 28.6596 26.0605 23.4103 23.6803C22.7741 23.3919 22.0346 23.8069 21.9551 24.5008C21.7447 26.3385 21.434 28.1974 20.7672 30.0409C20.0057 32.1305 18.8635 34.0007 17.7479 35.7976C16.9245 37.1392 16.0922 38.4808 15.4725 39.9037C14.3391 42.4649 14.0912 45.8066 16.0833 47.5059C17.6151 48.815 20.0323 48.9287 22.8302 49.067C25.3005 49.1889 27.8505 49.319 30.2854 50.2866C36.6692 52.8315 38.8119 60.0275 37.5811 65.5077C36.3593 70.9879 32.6229 75.4273 29.3203 79.3464L9.3636 103.07C8.85451 103.675 9.2159 104.61 9.99168 104.763C11.4682 105.055 12.9394 105.49 14.348 106.154C17.8453 107.829 21.2365 111.626 20.4219 116C20.2714 116.772 19.9969 117.512 19.7136 118.244L19.2407 119.679C19.2254 119.725 19.2132 119.773 19.2061 119.821C18.9309 121.689 20.505 123.766 22.1308 125.741L33.2781 139.14V139.14C33.6745 139.553 34.3381 139.541 34.7192 139.114L35.3853 138.368L36.6691 136.994C38.5374 135.246 41.176 134.425 44.0624 134.717C47.6395 135.075 51.1722 137.083 53.0847 139.856C55.3965 143.228 55.8582 147.243 55.8736 150.793C55.8761 151.391 56.3871 151.867 56.9754 151.763C61.0702 151.042 64.8671 148.55 66.7112 145.133C67.632 143.377 68.6325 141.466 70.97 140.775C72.5017 140.311 73.9804 140.645 74.972 140.872L91.1414 144.544C91.6823 144.667 92.2195 144.326 92.3419 143.785C93.476 138.774 94.8981 133.417 96.7178 127.473C99.5776 118.122 102.88 108.796 106.068 99.7709" fill="white"/>
<path d="M123.032 51.742L114.546 48.7446L114.549 48.7366L114.552 48.7285L123.032 51.742ZM124.865 50.2135L126.66 59.0328L126.64 59.0368L126.62 59.0408L124.865 50.2135ZM133.533 41.3508L142.133 44.003L142.13 44.0132L133.533 41.3508ZM134.666 29.675H125.666V29.6598L125.667 29.6445L134.666 29.675ZM134.675 27.0651L125.675 27.0345L125.676 26.9876L125.676 26.9407L134.675 27.0651ZM114.417 24.8372L107.702 18.845L107.725 18.8189L107.749 18.793L114.417 24.8372ZM112.257 25.6503L113.132 16.693L113.235 16.7031L113.339 16.7156L112.257 25.6503ZM110.3 24.4551L102.574 29.0719L102.555 29.0398L102.536 29.0075L110.3 24.4551ZM98.8339 19.731L96.5368 11.0291L96.7284 10.9786L96.922 10.9365L98.8339 19.731ZM97.4172 20.105L94.9946 11.4372L95.0572 11.4197L95.1201 11.4031L97.4172 20.105ZM92.5563 20.8044L91.8329 29.7753L91.8195 29.7742L91.806 29.773L92.5563 20.8044ZM83.9678 14.3809L91.3509 9.23405L91.3554 9.24054L83.9678 14.3809ZM79.6116 9.88452L83.0825 1.58073L83.0941 1.5856L83.1057 1.5905L79.6116 9.88452ZM74.9809 9.42121L75.2054 18.4184L75.185 18.4189L75.1646 18.4193L74.9809 9.42121ZM49.7644 19.7473L40.8903 18.2471L40.8949 18.22L40.8996 18.193L49.7644 19.7473ZM46.0103 26.5934L41.3402 18.8999L41.3429 18.8983L46.0103 26.5934ZM41.0254 27.7561V36.7561H40.9355L40.8456 36.7543L41.0254 27.7561ZM40.2108 27.7398L40.031 36.738L39.964 36.7367L39.8971 36.7343L40.2108 27.7398ZM20.7672 30.0409L29.2305 33.1022L29.2269 33.1122L29.2233 33.1223L20.7672 30.0409ZM17.7479 35.7976L10.0775 31.0897L10.0895 31.07L10.1017 31.0504L17.7479 35.7976ZM15.4725 39.9037L23.7237 43.4978L23.7133 43.5217L23.7027 43.5455L15.4725 39.9037ZM16.0833 47.5059L21.9241 40.6586L21.9305 40.6641L16.0833 47.5059ZM22.8302 49.067L22.3864 58.056L22.3861 58.056L22.8302 49.067ZM30.2854 50.2866L33.609 41.9227L33.6182 41.9264L30.2854 50.2866ZM37.5811 65.5077L28.7968 63.5491L28.7999 63.5356L37.5811 65.5077ZM29.3203 79.3464L22.4331 73.5528L22.4381 73.5468L29.3203 79.3464ZM14.348 106.154L18.1859 98.0131L18.2107 98.0247L18.2354 98.0366L14.348 106.154ZM20.4219 116L29.2698 117.648L29.2629 117.685L29.2557 117.721L20.4219 116ZM19.7136 118.244L11.1661 115.426L11.2379 115.209L11.3207 114.995L19.7136 118.244ZM22.1308 125.741L15.2119 131.497L15.1973 131.479L15.1828 131.461L22.1308 125.741ZM35.3853 138.368L28.6725 132.373L28.7399 132.298L28.8091 132.224L35.3853 138.368ZM36.6691 136.994L30.0929 130.85L30.2992 130.629L30.5199 130.422L36.6691 136.994ZM44.0624 134.717L43.1668 143.673L43.1544 143.671L44.0624 134.717ZM53.0847 139.856L60.4932 134.746L60.5004 134.756L60.5075 134.767L53.0847 139.856ZM66.7112 145.133L74.682 149.312L74.6569 149.36L74.6313 149.408L66.7112 145.133ZM70.97 140.775L73.5763 149.389L73.5491 149.397L73.5218 149.405L70.97 140.775ZM74.972 140.872L72.979 149.649L72.9686 149.647L72.9582 149.644L74.972 140.872ZM96.7178 127.473L105.324 130.105L105.324 130.107L96.7178 127.473ZM91.1414 144.544L89.1483 153.321L91.1414 144.544ZM92.3419 143.785L83.5639 141.799L92.3419 143.785ZM55.8736 150.793L46.8736 150.832L55.8736 150.793ZM34.7192 139.114L28.0063 133.119L34.7192 139.114ZM19.2407 119.679L10.6931 116.861L19.2407 119.679ZM19.2061 119.821L10.3022 118.509L19.2061 119.821ZM9.3636 103.07L16.2508 108.864L9.3636 103.07ZM9.99168 104.763L8.24485 113.592L9.99168 104.763ZM23.4103 23.6803L19.6936 31.877L23.4103 23.6803ZM21.9551 24.5008L30.8967 25.5247L21.9551 24.5008ZM52.3134 9.884L52.1297 0.88588L52.3134 9.884ZM135.19 18.477L126.237 17.5585L126.237 17.5585L135.19 18.477ZM97.5815 96.7735L114.546 48.7446L131.518 54.7395L114.554 102.768L97.5815 96.7735ZM114.552 48.7285C115.966 44.7485 119.378 42.1282 123.11 41.3863L126.62 59.0408C128.634 58.6404 130.647 57.1907 131.513 54.7555L114.552 48.7285ZM123.07 41.3943C123.073 41.3936 123.08 41.3922 123.096 41.3856C123.114 41.3785 123.15 41.3614 123.207 41.3252C123.326 41.2495 123.522 41.0962 123.763 40.8197C124.288 40.2165 124.72 39.3847 124.936 38.6884L142.13 44.0132C140.613 48.9135 136.008 57.1306 126.66 59.0328L123.07 41.3943ZM124.933 38.6987C125.597 36.5459 125.666 34.0598 125.666 29.675H143.666C143.666 33.5187 143.736 38.8054 142.133 44.003L124.933 38.6987ZM125.667 29.6445L125.675 27.0345L143.675 27.0956L143.666 29.7056L125.667 29.6445ZM125.676 26.9407C125.72 23.7695 125.921 20.6418 126.237 17.5585L144.143 19.3955C143.874 22.0192 143.71 24.613 143.674 27.1894L125.676 26.9407ZM133.566 26.3623C128.644 25.9526 123.819 27.8652 121.086 30.8814L107.749 18.793C114.614 11.2188 125.122 7.59734 135.059 8.42432L133.566 26.3623ZM121.132 30.8294C118.672 33.5862 114.939 35.0409 111.175 34.585L113.339 16.7156C111.186 16.4549 109.117 17.2591 107.702 18.845L121.132 30.8294ZM111.382 34.6077C107.916 34.2691 104.543 32.3658 102.574 29.0719L118.026 19.8383C116.854 17.8779 114.933 16.8689 113.132 16.693L111.382 34.6077ZM102.536 29.0075C102.605 29.1248 102.627 29.1134 102.52 29.0255C102.413 28.9378 102.23 28.8181 101.973 28.7122C101.401 28.4763 100.925 28.4867 100.746 28.5256L96.922 10.9365C104.738 9.23721 113.824 12.6729 118.064 19.9027L102.536 29.0075ZM101.131 28.433L99.7143 28.8069L95.1201 11.4031L96.5368 11.0291L101.131 28.433ZM99.8397 28.7729C98.5245 29.1404 95.4531 30.0672 91.8329 29.7753L93.2796 11.8335C93.2325 11.8297 93.2974 11.8439 93.5649 11.7966C93.8833 11.7403 94.2452 11.6467 94.9946 11.4372L99.8397 28.7729ZM91.806 29.773C82.6621 29.0081 78.2137 21.8688 76.5802 19.5212L91.3554 9.24054C91.8724 9.98356 92.2348 10.4999 92.6007 10.9649C92.9512 11.4105 93.1913 11.659 93.3478 11.7984C93.4899 11.925 93.5164 11.9193 93.4388 11.8833C93.3435 11.839 93.2746 11.833 93.3065 11.8357L91.806 29.773ZM76.5847 19.5277C76.2359 19.0273 75.9733 18.6524 75.7241 18.3159C75.4797 17.9857 75.3159 17.7856 75.2082 17.6648C75.1004 17.5439 75.1108 17.573 75.2359 17.6722C75.3688 17.7775 75.6626 17.9869 76.1174 18.1785L83.1057 1.5905C85.6967 2.68205 87.4984 4.40169 88.6434 5.68589C89.771 6.95049 90.7383 8.35533 91.3509 9.23405L76.5847 19.5277ZM76.1407 18.1883C76.4987 18.338 76.7568 18.3948 76.8484 18.4127C76.9413 18.4309 76.9432 18.4243 76.8166 18.4157C76.692 18.4073 76.5037 18.4007 76.2198 18.401C75.9307 18.4013 75.6172 18.4081 75.2054 18.4184L74.7564 0.424006C75.8136 0.397624 79.6664 0.152838 83.0825 1.58073L76.1407 18.1883ZM75.1646 18.4193L52.4971 18.8821L52.1297 0.88588L74.7972 0.423081L75.1646 18.4193ZM60.2136 12.2655L58.6292 21.3017L40.8996 18.193L42.4841 9.15673L60.2136 12.2655ZM58.6385 21.2476C58.4139 22.5759 57.4904 30.1564 50.6777 34.2886L41.3429 18.8983C41.0662 19.0661 40.8515 19.273 40.7104 19.4511C40.5823 19.6128 40.5503 19.705 40.5718 19.6546C40.5948 19.6008 40.6442 19.4664 40.7044 19.2162C40.7669 18.9567 40.8163 18.6849 40.8903 18.2471L58.6385 21.2476ZM50.6804 34.2869C47.0347 36.5 43.2924 36.7561 41.0254 36.7561V18.7561C41.2446 18.7561 41.411 18.7489 41.5373 18.7385C41.6631 18.7281 41.7309 18.7161 41.7529 18.7116C41.7913 18.7038 41.6104 18.7359 41.3402 18.8999L50.6804 34.2869ZM40.8456 36.7543L40.031 36.738L40.3906 18.7416L41.2052 18.7579L40.8456 36.7543ZM39.8971 36.7343C32.7865 36.4864 25.8936 34.6883 19.6936 31.877L27.1269 15.4836C31.4256 17.4327 36.016 18.588 40.5245 18.7453L39.8971 36.7343ZM30.8967 25.5247C30.6544 27.6411 30.2451 30.2975 29.2305 33.1022L12.3039 26.9796C12.623 26.0973 12.8351 25.036 13.0136 23.477L30.8967 25.5247ZM29.2233 33.1223C28.1 36.2048 26.4697 38.8123 25.3941 40.5447L10.1017 31.0504C11.2573 29.1891 11.9115 28.0562 12.3111 26.9595L29.2233 33.1223ZM25.4184 40.5055C24.5125 41.9814 24.0436 42.7632 23.7237 43.4978L7.22124 36.3096C8.14087 34.1983 9.33652 32.2969 10.0775 31.0897L25.4184 40.5055ZM23.7027 43.5455C23.5727 43.8393 23.6088 43.967 23.6009 43.7297C23.5927 43.4829 23.4542 41.9638 21.9241 40.6586L10.2426 54.3532C6.72035 51.3487 5.7097 47.309 5.61078 44.3263C5.51219 41.3531 6.23889 38.5293 7.24222 36.2618L23.7027 43.5455ZM21.9305 40.6641C21.4597 40.2617 21.0272 40.0456 20.7716 39.942C20.5362 39.8465 20.4442 39.8437 20.6 39.8721C20.7566 39.9008 21.0354 39.9387 21.5154 39.9764C22.0044 40.0148 22.5427 40.0418 23.2743 40.0779L22.3861 58.056C21.1573 57.9953 19.2104 57.9163 17.3639 57.5789C15.453 57.2296 12.7043 56.457 10.2362 54.3478L21.9305 40.6641ZM23.274 40.0779C25.5324 40.1894 29.5713 40.3183 33.609 41.9228L26.9618 58.6504C26.1297 58.3198 25.0685 58.1884 22.3864 58.056L23.274 40.0779ZM33.6182 41.9264C45.3149 46.5894 48.2475 59.0859 46.3624 67.4798L28.7999 63.5356C29.0134 62.5847 28.9317 61.3285 28.4939 60.2888C28.1077 59.3714 27.5871 58.8997 26.9525 58.6467L33.6182 41.9264ZM46.3655 67.4662C44.5837 75.4575 39.2403 81.5411 36.2025 85.146L22.4381 73.5468C26.0055 69.3135 28.1348 66.5183 28.7968 63.5491L46.3655 67.4662ZM36.2075 85.14L16.2508 108.864L2.47636 97.2765L22.4331 73.5528L36.2075 85.14ZM11.7385 95.9342C13.7566 96.3335 15.9626 96.9649 18.1859 98.0131L10.51 114.294C9.91615 114.014 9.17989 113.777 8.24485 113.592L11.7385 95.9342ZM18.2354 98.0366C23.3833 100.502 31.1727 107.429 29.2698 117.648L11.574 114.352C11.522 114.631 11.5437 114.907 11.5952 115.106C11.6398 115.278 11.6817 115.302 11.6072 115.195C11.5311 115.085 11.3823 114.91 11.1475 114.716C10.9131 114.522 10.6667 114.37 10.4605 114.271L18.2354 98.0366ZM29.2557 117.721C28.9359 119.363 28.3859 120.772 28.1065 121.494L11.3207 114.995C11.4542 114.65 11.5229 114.463 11.5691 114.322C11.6115 114.194 11.6047 114.193 11.588 114.279L29.2557 117.721ZM28.2612 121.062L27.7883 122.496L10.6931 116.861L11.1661 115.426L28.2612 121.062ZM28.11 121.133C28.2601 120.114 28.1184 119.314 27.9962 118.87C27.8806 118.45 27.7584 118.255 27.7996 118.328C27.8353 118.392 27.9431 118.567 28.179 118.885C28.4128 119.201 28.7006 119.561 29.0787 120.02L15.1828 131.461C14.3796 130.486 13.1074 128.924 12.1115 127.153C11.1673 125.475 9.73612 122.351 10.3022 118.509L28.11 121.133ZM29.0496 119.985L40.1969 133.385L26.3592 144.896L15.2119 131.497L29.0496 119.985ZM28.0063 133.119L28.6725 132.373L42.0982 144.363L41.4321 145.109L28.0063 133.119ZM28.8091 132.224L30.0929 130.85L43.2454 143.138L41.9616 144.512L28.8091 132.224ZM30.5199 130.422C34.5297 126.67 39.8493 125.244 44.9704 125.763L43.1544 143.671C42.8245 143.638 42.6613 143.683 42.6395 143.69C42.6279 143.693 42.6451 143.689 42.6824 143.668C42.7204 143.646 42.7685 143.612 42.8184 143.566L30.5199 130.422ZM44.9581 125.762C50.9538 126.362 56.9631 129.628 60.4932 134.746L45.6762 144.966C45.3813 144.539 44.3251 143.788 43.1668 143.673L44.9581 125.762ZM60.5075 134.767C64.3769 140.41 64.8558 146.672 64.8735 150.754L46.8736 150.832C46.8606 147.814 46.4161 146.045 45.6619 144.945L60.5075 134.767ZM55.415 142.9C57.2324 142.58 58.4493 141.492 58.7911 140.858L74.6313 149.408C71.2849 155.608 64.9079 159.505 58.5358 160.627L55.415 142.9ZM58.7403 140.954C59.4336 139.631 61.9517 134.056 68.4181 132.144L73.5218 149.405C73.8769 149.3 74.247 149.125 74.5857 148.89C74.9117 148.663 75.1136 148.447 75.2043 148.339C75.2844 148.243 75.2755 148.234 75.172 148.408C75.0559 148.603 74.9307 148.838 74.682 149.312L58.7403 140.954ZM68.3636 132.16C72.4474 130.925 76.1143 131.9 76.9858 132.101L72.9582 149.644C72.7058 149.586 72.5957 149.562 72.5019 149.545C72.4201 149.53 72.4171 149.533 72.4677 149.537C72.5653 149.544 72.9903 149.566 73.5763 149.389L68.3636 132.16ZM76.9651 132.096L93.1345 135.768L89.1483 153.321L72.979 149.649L76.9651 132.096ZM83.5639 141.799C84.7515 136.551 86.2327 130.977 88.112 124.838L105.324 130.107C103.563 135.857 102.2 140.997 101.12 145.772L83.5639 141.799ZM88.1113 124.84C91.0375 115.273 94.4071 105.761 97.5814 96.7738L114.554 102.768C111.353 111.831 108.118 120.971 105.324 130.105L88.1113 124.84ZM93.1345 135.768C88.7962 134.783 84.5324 137.519 83.5639 141.799L101.12 145.772C99.9065 151.134 94.5683 154.552 89.1483 153.321L93.1345 135.768ZM64.8735 150.754C64.8548 146.431 60.9503 141.925 55.415 142.9L58.5358 160.627C51.8239 161.808 46.8975 156.35 46.8736 150.832L64.8735 150.754ZM39.7664 132.903C36.5311 129.538 31.1159 129.637 28.0063 133.119L41.4321 145.109C37.5604 149.444 30.8179 149.568 26.7897 145.377L39.7664 132.903ZM27.7883 122.496C27.8967 122.167 28.0259 121.703 28.11 121.133L10.3022 118.509C10.4005 117.842 10.5541 117.283 10.6931 116.861L27.7883 122.496ZM16.2508 108.864C20.4859 103.829 17.1662 97.0081 11.7385 95.9342L8.24485 113.592C1.26561 112.211 -2.77692 103.521 2.47636 97.2765L16.2508 108.864ZM19.6936 31.877C24.5661 34.0864 30.2753 30.9521 30.8967 25.5247L13.0136 23.477C13.7939 16.6616 20.9821 12.6973 27.1269 15.4836L19.6936 31.877ZM52.4971 18.8821C56.32 18.8041 59.5532 16.0317 60.2136 12.2655L42.4841 9.15673C43.3095 4.44893 47.3511 0.983444 52.1297 0.88588L52.4971 18.8821ZM126.237 17.5585C125.809 21.7347 128.804 25.966 133.566 26.3623L135.059 8.42432C140.912 8.91144 144.683 14.1302 144.143 19.3955L126.237 17.5585Z" fill="#FFBF02" mask="url(#path-1-outside-1_1088_25029)"/>
</svg>
