<svg width="480" height="629" viewBox="0 0 480 629" fill="none" xmlns="http://www.w3.org/2000/svg">
<path d="M263.768 29.6919L263.755 29.6945C260.03 30.4313 257.803 30.6857 255.924 29.6188L255.917 29.6147L255.91 29.6107C254.659 28.9064 253.796 27.6092 252.803 25.959L252.797 25.9496L252.69 25.7728C248.675 19.1365 243.764 11.0201 236.895 5.81995C234.237 3.80762 230.597 4.67078 228.956 7.29468L214.338 30.6646C213.163 32.5417 212.251 33.7654 210.911 34.2455C209.776 34.6508 208.41 34.507 206.431 34.1822C206.428 34.1818 206.426 34.1815 206.424 34.1811L185.592 30.7205C184.19 30.4844 182.609 30.238 181.072 30.1887C179.53 30.1391 177.719 30.2718 175.945 31.0179L175.941 31.0197C173.46 32.0658 171.856 33.9583 170.785 35.6387C169.769 37.2345 168.988 39.0454 168.38 40.4561L168.316 40.6034L168.311 40.616L168.031 41.2693C168.029 41.2749 168.026 41.2804 168.024 41.2859C161.077 57.1897 146.682 69.4683 133.021 81.0094L133.015 81.0146C129.011 84.4088 125.12 87.6617 120.442 89.4763C116.751 90.897 112.717 91.4065 107.982 91.8543L107.981 91.8545C76.0588 94.8851 43.7786 94.4516 11.9567 90.5544C8.19817 90.0941 5.0912 93.4869 5.91483 97.205L6.03275 97.7374V140.596C6.03275 141.158 6.11914 141.716 6.28737 142.25C6.11866 142.785 6.03272 143.343 6.03277 143.904L6.07687 586.957C5.73729 587.388 5.41736 587.906 5.17962 588.513C4.75185 589.607 4.54085 591.176 5.28558 592.789C6.9841 596.469 10.3978 599.556 13.076 601.977C13.2029 602.092 13.3283 602.205 13.4517 602.317C15.7896 604.438 17.7765 606.248 19.2924 608.313L19.2962 608.318C21.6757 611.549 22.8944 615.386 24.3051 619.941L263.768 29.6919ZM263.768 29.6919C263.883 29.6695 264.002 29.6462 264.123 29.6224C265.966 29.2605 268.53 28.7567 270.96 29.0359C274.699 29.4592 277.857 31.6669 280.046 33.197C280.159 33.2764 280.27 33.3539 280.378 33.4293L280.382 33.4315C282.012 34.559 283.352 35.4848 284.807 36.192C286.963 37.2322 289.307 37.7624 292.175 38.4L292.214 38.4085C293.866 38.7719 295.765 39.1896 297.642 39.8133C302.33 41.3475 306.477 44.0966 309.931 46.3863L310.135 46.5211L310.136 46.522L347.595 71.3271C349.488 72.58 351.036 73.5544 352.764 73.918L354.524 74.0666C356.806 74.1206 358.769 75.7836 359.16 78.0773L359.181 78.2025L359.208 78.3606L359.224 78.5203C359.558 81.9323 358.645 85.0109 357.579 87.5613C356.921 89.136 356.015 90.8961 355.233 92.4179C354.851 93.1599 354.498 93.8452 354.218 94.4248C353.207 96.5123 352.659 98.0697 352.565 99.4109C352.486 100.544 352.712 101.734 353.842 103.215L353.843 103.216C355.039 104.785 356.903 106.121 359.47 107.524C360.584 108.132 361.733 108.704 362.963 109.315C363.135 109.4 363.309 109.487 363.484 109.574C364.871 110.265 366.358 111.015 367.772 111.84L367.775 111.842C371.503 114.022 375.103 116.495 378.542 118.857C379.814 119.731 381.065 120.59 382.292 121.413C391.548 127.622 396.807 133.132 401.445 143.067C404.596 149.804 409.863 153.695 417.632 158.143L417.636 158.145M263.768 29.6919L417.636 158.145M135.925 84.447L135.904 84.4642C131.987 87.7855 127.548 91.549 122.059 93.6756L135.925 84.447ZM135.925 84.447C149.418 73.0475 164.718 60.1115 172.156 43.0693L172.448 42.3862L172.454 42.3726C173.753 39.3602 175.09 36.2621 177.689 35.1661C179.584 34.3693 182.046 34.6863 184.844 35.158L205.695 38.6217L205.709 38.6241C207.541 38.9247 210.04 39.3348 212.424 38.4834C215.425 37.4104 217.063 34.7935 218.152 33.0535L218.153 33.052L232.771 9.68103C233.074 9.19617 233.723 9.06256 234.179 9.40778C240.295 14.0378 244.807 21.4374 248.947 28.2793M135.925 84.447L248.947 28.2793M248.947 28.2793L248.965 28.3083M248.947 28.2793L248.965 28.3083M35.1609 619.652C36.9462 617.607 37.6019 617.479 37.9714 617.407C37.9836 617.405 37.9956 617.402 38.0072 617.4C38.4574 617.31 38.9557 617.277 40.0376 617.205C40.1094 617.2 40.1838 617.195 40.2609 617.19C41.4062 617.114 42.8668 617.002 44.686 616.685C47.5644 616.185 51.5428 614.821 54.1941 612.776C55.1147 612.067 55.8218 611.234 56.3347 610.568C56.736 610.046 57.1393 609.463 57.4588 609C57.5386 608.884 57.6132 608.776 57.6812 608.679C58.3668 607.695 58.6828 607.374 58.7625 607.293C58.7867 607.269 58.7891 607.266 58.7736 607.274C59.4694 606.92 59.8344 606.871 60.6703 606.758C61.0652 606.704 61.5653 606.637 62.255 606.516C63.2491 606.342 64.4778 606.037 65.7889 605.317C67.095 604.6 68.2602 603.594 69.3496 602.281C70.5415 600.849 71.4456 599.362 71.9627 597.742C72.4952 596.075 72.5357 594.523 72.3412 593.106C72.1609 591.792 71.7672 590.558 71.4684 589.627C71.4423 589.545 71.4166 589.465 71.3911 589.386C71.097 588.471 70.8436 587.683 70.6389 586.786L70.6384 586.783C70.3928 585.709 70.3049 584.667 70.2639 583.504C70.254 583.224 70.2469 582.899 70.2392 582.547C70.2192 581.632 70.1953 580.533 70.1081 579.567C69.8137 576.306 68.7445 572.969 65.2184 569.686L65.2176 569.686C64.3416 568.871 63.4268 568.091 62.6775 567.452C62.3731 567.193 62.096 566.957 61.8599 566.751C60.9209 565.933 60.4428 565.44 60.1681 565.053C59.9657 564.768 59.9365 564.63 59.9257 564.472C59.9089 564.225 59.9375 563.602 60.4126 562.363L60.4136 562.36C60.889 561.119 61.3084 560.631 61.5294 560.425C61.7402 560.229 62.0292 560.045 62.7138 559.814C62.93 559.741 63.2452 559.657 63.6372 559.552C65.2618 559.116 68.2054 558.328 70.8846 556.547C73.2349 554.989 74.7463 552.878 75.4432 550.459C76.1086 548.149 75.9503 545.851 75.5353 543.897C74.7273 540.093 72.6724 536.44 71.4566 534.306C71.0447 533.58 70.8015 533.048 70.6594 532.677C70.7568 532.634 70.8684 532.587 70.9959 532.537C71.8838 532.19 73.0955 531.848 74.789 531.421L74.7905 531.42C77.7601 530.671 80.822 529.887 83.2561 528.065C85.9484 526.05 87.3635 523.227 88.454 519.779C90.192 514.304 91.4258 507.538 90.4713 501.143C89.9456 497.621 88.7388 494.17 86.6006 491.164C87.7797 491.061 89.1008 490.765 90.2982 490.015C91.7495 489.105 92.7251 487.704 93.0622 486.06C93.3622 484.596 93.0919 483.273 92.7959 482.351C92.4885 481.394 92.0376 480.515 91.5969 479.777C89.9185 476.968 87.1544 474.228 86.4886 473.57C85.4975 472.587 84.5133 471.704 83.6592 470.938C83.5582 470.847 83.4591 470.759 83.362 470.671C82.4039 469.811 81.6427 469.111 80.9884 468.406C79.7822 467.105 79.0371 465.89 78.6912 464.106C78.229 461.7 78.0953 459.191 77.9971 456.378C77.9861 456.064 77.9755 455.744 77.9648 455.42C77.8833 452.948 77.7933 450.219 77.4321 447.518M35.1609 619.652L399.338 390.983C399.965 392.718 400.361 393.813 398.608 396.387L402.332 398.913C402.332 398.914 402.331 398.914 402.331 398.914C396.534 407.457 388.017 408.008 381.126 407.586C372.144 407.047 360.499 410.299 352.379 414.668C350.945 415.441 349.6 416.333 348.058 417.357C347.62 417.648 347.166 417.95 346.689 418.262C344.651 419.598 342.291 421.064 339.611 422.114C336.932 423.165 334.138 423.75 331.668 424.225C331.252 424.305 330.846 424.382 330.449 424.458C328.373 424.851 326.554 425.195 324.81 425.707L324.81 425.707C317.505 427.849 310.484 430.194 303.384 432.565C298.286 434.268 293.147 435.984 287.833 437.649C275.357 441.557 262.502 444.975 248.884 446.481L248.884 446.481C237.69 447.718 226.381 448.313 215.179 448.827C213.658 448.897 212.138 448.966 210.621 449.034C200.932 449.47 191.344 449.902 181.842 450.689L181.838 450.689C170.246 451.64 158.712 453.769 147.426 456.632M35.1609 619.652C34.1584 620.809 33.2365 621.722 32.2474 622.483C29.2125 624.818 25.2664 623.045 24.3053 619.942L35.1609 619.652ZM77.4321 447.518L72.9722 448.115L77.4325 447.521C77.4324 447.52 77.4323 447.519 77.4321 447.518ZM77.4321 447.518C77.1796 445.626 76.2723 443.668 75.6184 442.3C75.3865 441.816 75.1642 441.362 74.9517 440.929C74.4422 439.89 73.9894 438.966 73.5988 438.006C73.3582 437.414 73.2019 436.944 73.1029 436.579M73.1029 436.579C72.9783 436.429 72.8633 436.304 72.7583 436.2C72.54 435.985 72.4261 435.926 72.4262 435.926L72.4279 435.927C72.5229 435.972 72.6148 435.986 72.6884 435.99L70.5109 432.147L72.698 435.99C72.7273 435.991 72.7536 435.991 72.7756 435.989C72.7953 435.964 72.8167 435.933 72.8387 435.897C72.9338 435.74 72.9496 435.623 72.9503 435.622C72.9505 435.622 72.9501 435.626 72.9495 435.635C72.9406 435.788 72.9702 436.089 73.1029 436.579ZM73.1029 436.579C73.254 436.76 73.4194 436.978 73.5985 437.235C74.2759 438.21 74.9062 439.395 75.631 440.769C75.6642 440.832 75.6981 440.896 75.7326 440.962C76.3366 442.109 77.1555 443.663 78.0639 444.785L78.0643 444.785C81.92 449.543 87.2499 450.153 90.9965 450.46C91.3947 450.493 91.777 450.523 92.1444 450.552C95.6959 450.833 97.8643 451.004 99.7348 452.234M99.7348 452.234L102.217 448.481L99.7404 452.238C99.7386 452.237 99.7367 452.235 99.7348 452.234ZM99.7348 452.234C100.739 452.898 101.587 453.861 102.938 455.445L103.02 455.542C104.22 456.949 105.881 458.898 108.159 460.34L108.17 460.347C113.491 463.695 119.932 463.331 124.61 462.593L124.616 462.593C128.64 461.953 132.63 460.884 136.421 459.784C137.566 459.452 138.681 459.121 139.777 458.795C142.399 458.016 144.909 457.271 147.426 456.632M147.426 456.632L146.326 452.295L147.427 456.631C147.427 456.631 147.426 456.631 147.426 456.632ZM454.447 251.73C456.787 252.086 458.886 252.738 461.068 254.121C461.982 254.698 462.628 255.22 463.13 255.668C463.197 255.728 463.265 255.789 463.329 255.848C463.419 255.85 463.525 255.851 463.65 255.85C464.102 255.845 464.116 255.836 464.248 255.755C464.39 255.668 464.667 255.498 465.752 255.161C466.999 254.773 468.671 254.664 470.394 255.637C471.657 256.35 472.578 257.465 473.245 258.361L473.25 258.367L473.255 258.374C475.436 261.326 475.461 264.811 475.195 267.245C474.993 269.091 474.507 271.098 474.172 272.481C474.073 272.891 473.987 273.246 473.925 273.526L473.925 273.527C473.143 277.089 472.708 280.64 472.243 284.434C472.001 286.409 471.751 288.45 471.44 290.593C470.571 296.574 469.252 302.928 466.117 308.812L466.116 308.813C465.064 310.785 464.04 312.801 463.005 314.84C459.031 322.666 454.884 330.834 448.299 338.168C442.639 344.479 435.758 349.833 429.274 354.878C428.425 355.538 427.584 356.193 426.752 356.844C419.398 362.603 412.767 368.125 408.012 374.806L408.011 374.809C404.58 379.624 402.403 383.45 402.946 387.196L453.769 256.178M454.447 251.73L453.769 256.178M454.447 251.73C454.448 251.73 454.449 251.73 454.45 251.73L453.769 256.178M454.447 251.73C453.215 251.542 452.012 251.627 451.084 251.74C450.141 251.854 449.166 252.041 448.422 252.177C447.915 252.271 447.498 252.344 447.14 252.397M453.769 256.178C452.55 255.992 450.983 256.281 449.448 256.564C447.771 256.874 446.131 257.176 445.021 256.845M447.14 252.397C447.147 252.699 447.142 252.977 447.133 253.232C447.124 253.496 447.105 253.81 447.093 254.015C447.089 254.088 447.085 254.147 447.083 254.185C447.074 254.347 447.075 254.405 447.075 254.405C447.075 254.405 447.074 254.393 447.073 254.373C447.066 254.285 447.038 254.002 446.889 253.637C446.736 253.264 446.515 252.945 446.275 252.703L445.021 256.845M447.14 252.397C446.917 252.43 446.717 252.455 446.533 252.471C446.349 252.487 446.231 252.489 446.168 252.489C445.96 252.42 445.867 252.376 445.851 252.369C445.848 252.367 445.852 252.369 445.864 252.375C445.908 252.4 446.054 252.489 446.237 252.665C446.245 252.673 446.253 252.681 446.262 252.69M447.14 252.397C447.126 251.675 447.051 250.823 446.832 249.866M445.021 256.845L446.262 252.69M445.021 256.845L446.262 252.69M446.262 252.69L446.832 249.866M446.832 249.866C446.832 249.868 446.833 249.87 446.833 249.872L442.453 250.867L446.831 249.863C446.831 249.864 446.831 249.865 446.832 249.866ZM417.636 158.145C421.868 160.574 430.978 166.187 437.987 172.889C441.463 176.213 444.754 180.113 446.509 184.313C448.349 188.714 448.586 193.77 445.283 198.383C443.734 200.55 441.381 202.441 439.547 203.882C439.228 204.132 438.92 204.373 438.623 204.604C436.982 205.886 435.683 206.9 434.735 207.893C434.734 207.895 434.732 207.896 434.731 207.898L434.677 207.954C430.818 212.019 428.477 214.485 427.37 218.298C427.279 218.613 427.189 218.924 427.1 219.23C426.308 221.96 425.616 224.346 425.53 226.545C425.446 228.694 425.962 229.902 427.278 230.826M417.636 158.145L427.278 230.826M427.278 230.826C428.689 231.816 429.988 232.444 431.575 233.211C432.159 233.494 432.783 233.796 433.466 234.141C435.876 235.361 438.569 236.954 441.007 239.865L427.278 230.826ZM248.965 28.3083C249.894 29.8533 251.291 32.1744 253.702 33.5318L248.965 28.3083ZM32.9027 617.28C32.9026 617.28 32.9025 617.279 32.9025 617.279L32.5575 617.386L32.5581 617.386L32.9027 617.28ZM32.5537 617.388L32.5531 617.387L30.5411 618.01C30.5409 618.011 30.5407 618.011 30.5406 618.011L32.5537 617.388ZM463.663 256.172L463.695 260.35L463.663 256.172ZM75.9276 484.357C75.928 484.357 75.934 484.354 75.9449 484.346C75.9327 484.353 75.9273 484.357 75.9276 484.357ZM210.429 444.538C223.142 443.966 235.86 443.393 248.39 442.009L80.6535 474.287C77.6645 471.606 75.1186 469.322 74.2735 464.962C73.6763 461.857 73.5715 458.708 73.467 455.564C73.3839 453.068 73.301 450.576 72.9718 448.115C72.7892 446.742 71.9115 444.952 70.9772 443.046C68.9681 438.948 66.6969 434.316 70.5105 432.146C74.8667 429.678 77.5052 434.678 79.5919 438.633C80.296 439.967 80.9372 441.183 81.5604 441.952C84.4064 445.464 88.4476 445.763 92.5963 446.07C95.9207 446.316 99.3141 446.567 102.217 448.481C103.815 449.537 105.05 450.987 106.289 452.439C107.576 453.948 108.865 455.461 110.566 456.538C114.418 458.961 119.421 458.856 123.91 458.148C128.722 457.384 133.59 455.938 138.404 454.508C141.065 453.718 143.71 452.933 146.319 452.27C157.794 449.359 169.579 447.18 181.47 446.204C191.064 445.41 200.745 444.974 210.429 444.538Z" fill="white" stroke="#FFBF02" stroke-width="9"/>
</svg>
