<svg width="437" height="79" viewBox="0 0 437 79" fill="none" xmlns="http://www.w3.org/2000/svg">
<g filter="url(#filter0_d_260_119509)">
<mask id="path-1-inside-1_260_119509" fill="white">
<path d="M4 0H433V70.0233H4V0Z"/>
</mask>
<path d="M4 0H433V70.0233H4V0Z" fill="#F69227" shape-rendering="crispEdges"/>
<path d="M44.3246 46.5117H39.2349L46.9902 24.0468H53.111L60.8552 46.5117H55.7655L50.1383 29.1804H49.9628L44.3246 46.5117ZM44.0065 37.6815H56.0288V41.3891H44.0065V37.6815ZM70.2997 46.8408C68.5739 46.8408 67.0894 46.4752 65.8462 45.7439C64.6103 45.0053 63.6597 43.9815 62.9942 42.6725C62.3361 41.3635 62.007 39.8571 62.007 38.1532C62.007 36.4274 62.3397 34.9136 63.0052 33.6119C63.678 32.303 64.6323 31.2828 65.8681 30.5515C67.104 29.813 68.5739 29.4437 70.2778 29.4437C71.7476 29.4437 73.0347 29.7106 74.1389 30.2444C75.2431 30.7782 76.117 31.5278 76.7605 32.4931C77.4041 33.4584 77.7587 34.5919 77.8246 35.8935H73.4149C73.2906 35.0526 72.9615 34.3761 72.4277 33.8642C71.9012 33.345 71.2101 33.0854 70.3545 33.0854C69.6306 33.0854 68.998 33.2829 68.4569 33.6778C67.923 34.0653 67.5062 34.6321 67.2064 35.378C66.9066 36.1239 66.7566 37.027 66.7566 38.0874C66.7566 39.1624 66.9029 40.0765 67.1954 40.8297C67.4952 41.5829 67.9157 42.1569 68.4569 42.5518C68.998 42.9467 69.6306 43.1442 70.3545 43.1442C70.8884 43.1442 71.3674 43.0345 71.7915 42.8151C72.223 42.5957 72.5776 42.2776 72.8555 41.8608C73.1407 41.4366 73.3272 40.9284 73.4149 40.3361H77.8246C77.7514 41.6231 77.4004 42.7566 76.7715 43.7365C76.1499 44.7091 75.2907 45.4696 74.1938 46.0181C73.0968 46.5666 71.7988 46.8408 70.2997 46.8408ZM89.7782 29.663V33.1732H79.6317V29.663H89.7782ZM81.9353 25.6264H86.6081V41.3343C86.6081 41.7657 86.674 42.1021 86.8056 42.3434C86.9372 42.5774 87.12 42.742 87.354 42.837C87.5954 42.9321 87.8733 42.9796 88.1877 42.9796C88.4071 42.9796 88.6265 42.9614 88.8459 42.9248C89.0652 42.8809 89.2334 42.848 89.3504 42.8261L90.0854 46.3033C89.8514 46.3764 89.5223 46.4605 89.0981 46.5556C88.674 46.658 88.1585 46.7201 87.5515 46.7421C86.4253 46.7859 85.4381 46.636 84.5898 46.2923C83.7488 45.9486 83.0943 45.4148 82.6263 44.6908C82.1583 43.9669 81.9279 43.0528 81.9353 41.9485V25.6264ZM92.8222 46.5117V29.663H97.4951V46.5117H92.8222ZM95.1696 27.4911C94.4749 27.4911 93.8789 27.2608 93.3816 26.8001C92.8917 26.3321 92.6467 25.7726 92.6467 25.1218C92.6467 24.4783 92.8917 23.9262 93.3816 23.4654C93.8789 22.9974 94.4749 22.7634 95.1696 22.7634C95.8643 22.7634 96.4566 22.9974 96.9466 23.4654C97.4439 23.9262 97.6925 24.4783 97.6925 25.1218C97.6925 25.7726 97.4439 26.3321 96.9466 26.8001C96.4566 27.2608 95.8643 27.4911 95.1696 27.4911ZM116.946 29.663L111.056 46.5117H105.791L99.9001 29.663H104.836L108.335 41.7182H108.511L111.999 29.663H116.946ZM119.337 46.5117V29.663H124.01V46.5117H119.337ZM121.685 27.4911C120.99 27.4911 120.394 27.2608 119.897 26.8001C119.407 26.3321 119.162 25.7726 119.162 25.1218C119.162 24.4783 119.407 23.9262 119.897 23.4654C120.394 22.9974 120.99 22.7634 121.685 22.7634C122.38 22.7634 122.972 22.9974 123.462 23.4654C123.959 23.9262 124.208 24.4783 124.208 25.1218C124.208 25.7726 123.959 26.3321 123.462 26.8001C122.972 27.2608 122.38 27.4911 121.685 27.4911ZM133.962 46.7859C132.682 46.7859 131.523 46.4569 130.485 45.7987C129.454 45.1333 128.635 44.157 128.028 42.8699C127.428 41.5756 127.128 39.9887 127.128 38.1093C127.128 36.1787 127.439 34.5736 128.061 33.2938C128.682 32.0068 129.509 31.0452 130.54 30.4089C131.578 29.7654 132.715 29.4437 133.951 29.4437C134.895 29.4437 135.681 29.6045 136.31 29.9263C136.946 30.2407 137.458 30.6356 137.845 31.111C138.24 31.579 138.54 32.0397 138.745 32.4931H138.887V24.0468H143.549V46.5117H138.942V43.8133H138.745C138.525 44.2813 138.215 44.7457 137.812 45.2064C137.417 45.6598 136.902 46.0364 136.266 46.3362C135.637 46.636 134.869 46.7859 133.962 46.7859ZM135.443 43.0674C136.196 43.0674 136.832 42.8626 137.352 42.4531C137.878 42.0363 138.28 41.4549 138.558 40.709C138.843 39.9631 138.986 39.0892 138.986 38.0874C138.986 37.0855 138.847 36.2153 138.569 35.4767C138.291 34.7381 137.889 34.1677 137.363 33.7655C136.836 33.3633 136.196 33.1622 135.443 33.1622C134.675 33.1622 134.028 33.3706 133.501 33.7875C132.975 34.2043 132.576 34.782 132.306 35.5206C132.035 36.2592 131.9 37.1148 131.9 38.0874C131.9 39.0673 132.035 39.9339 132.306 40.6871C132.584 41.433 132.982 42.018 133.501 42.4421C134.028 42.859 134.675 43.0674 135.443 43.0674ZM152.196 46.8298C151.121 46.8298 150.163 46.6433 149.322 46.2704C148.481 45.8901 147.815 45.3307 147.325 44.5921C146.843 43.8462 146.601 42.9175 146.601 41.8059C146.601 40.8699 146.773 40.0838 147.117 39.4476C147.461 38.8113 147.929 38.2995 148.521 37.9119C149.113 37.5243 149.786 37.2318 150.539 37.0343C151.3 36.8369 152.097 36.6979 152.931 36.6175C153.911 36.5151 154.7 36.4201 155.3 36.3323C155.9 36.2372 156.335 36.0983 156.605 35.9155C156.876 35.7327 157.011 35.4621 157.011 35.1038V35.0379C157.011 34.3432 156.792 33.8057 156.353 33.4255C155.922 33.0452 155.307 32.8551 154.51 32.8551C153.669 32.8551 153 33.0415 152.503 33.4145C152.006 33.7801 151.676 34.2408 151.516 34.7966L147.194 34.4456C147.413 33.4218 147.845 32.537 148.488 31.7911C149.132 31.0378 149.962 30.4601 150.978 30.0579C152.002 29.6484 153.187 29.4437 154.532 29.4437C155.468 29.4437 156.364 29.5533 157.22 29.7727C158.082 29.9921 158.847 30.3322 159.512 30.7929C160.185 31.2536 160.715 31.8459 161.103 32.5699C161.49 33.2865 161.684 34.1458 161.684 35.1476V46.5117H157.252V44.1753H157.121C156.85 44.7018 156.488 45.1662 156.035 45.5684C155.582 45.9633 155.037 46.2741 154.4 46.5007C153.764 46.7201 153.029 46.8298 152.196 46.8298ZM153.534 43.6049C154.221 43.6049 154.828 43.4696 155.355 43.199C155.881 42.9211 156.295 42.5482 156.594 42.0802C156.894 41.6121 157.044 41.082 157.044 40.4896V38.7017C156.898 38.7967 156.697 38.8845 156.441 38.9649C156.192 39.038 155.911 39.1075 155.596 39.1733C155.282 39.2318 154.967 39.2867 154.653 39.3379C154.338 39.3817 154.053 39.422 153.797 39.4585C153.249 39.539 152.77 39.6669 152.36 39.8424C151.951 40.018 151.633 40.2556 151.406 40.5554C151.179 40.848 151.066 41.2136 151.066 41.6524C151.066 42.2886 151.296 42.7749 151.757 43.1113C152.225 43.4403 152.817 43.6049 153.534 43.6049ZM171.518 46.7859C170.238 46.7859 169.079 46.4569 168.041 45.7987C167.01 45.1333 166.191 44.157 165.584 42.8699C164.984 41.5756 164.684 39.9887 164.684 38.1093C164.684 36.1787 164.995 34.5736 165.616 33.2938C166.238 32.0068 167.064 31.0452 168.096 30.4089C169.134 29.7654 170.271 29.4437 171.507 29.4437C172.45 29.4437 173.236 29.6045 173.865 29.9263C174.502 30.2407 175.013 30.6356 175.401 31.111C175.796 31.579 176.096 32.0397 176.3 32.4931H176.443V24.0468H181.105V46.5117H176.498V43.8133H176.3C176.081 44.2813 175.77 44.7457 175.368 45.2064C174.973 45.6598 174.458 46.0364 173.821 46.3362C173.193 46.636 172.425 46.7859 171.518 46.7859ZM172.999 43.0674C173.752 43.0674 174.388 42.8626 174.907 42.4531C175.434 42.0363 175.836 41.4549 176.114 40.709C176.399 39.9631 176.542 39.0892 176.542 38.0874C176.542 37.0855 176.403 36.2153 176.125 35.4767C175.847 34.7381 175.445 34.1677 174.918 33.7655C174.392 33.3633 173.752 33.1622 172.999 33.1622C172.231 33.1622 171.584 33.3706 171.057 33.7875C170.531 34.2043 170.132 34.782 169.862 35.5206C169.591 36.2592 169.456 37.1148 169.456 38.0874C169.456 39.0673 169.591 39.9339 169.862 40.6871C170.139 41.433 170.538 42.018 171.057 42.4421C171.584 42.859 172.231 43.0674 172.999 43.0674ZM192.625 46.8408C190.892 46.8408 189.4 46.4898 188.15 45.7878C186.907 45.0784 185.949 44.0766 185.276 42.7822C184.603 41.4805 184.267 39.9412 184.267 38.1642C184.267 36.431 184.603 34.91 185.276 33.601C185.949 32.292 186.896 31.2719 188.117 30.5406C189.346 29.8093 190.786 29.4437 192.439 29.4437C193.55 29.4437 194.585 29.6228 195.543 29.9811C196.508 30.3322 197.349 30.8623 198.066 31.5717C198.79 32.281 199.353 33.1732 199.755 34.2482C200.158 35.3158 200.359 36.5663 200.359 37.9996V39.283H186.132V36.3872H195.96C195.96 35.7144 195.814 35.1184 195.521 34.5992C195.229 34.08 194.823 33.6741 194.304 33.3816C193.792 33.0818 193.196 32.9319 192.516 32.9319C191.806 32.9319 191.177 33.0964 190.629 33.4255C190.088 33.7472 189.664 34.1823 189.357 34.7308C189.049 35.272 188.892 35.8753 188.885 36.5407V39.294C188.885 40.1276 189.038 40.848 189.346 41.4549C189.66 42.0619 190.102 42.5299 190.673 42.859C191.243 43.1881 191.92 43.3526 192.702 43.3526C193.221 43.3526 193.697 43.2795 194.128 43.1332C194.56 42.987 194.929 42.7676 195.236 42.4751C195.543 42.1825 195.777 41.8242 195.938 41.4001L200.26 41.6853C200.041 42.7237 199.591 43.6305 198.911 44.4056C198.238 45.1735 197.368 45.7731 196.3 46.2046C195.24 46.6287 194.015 46.8408 192.625 46.8408ZM217.427 34.4675L213.149 34.7308C213.076 34.3652 212.918 34.0361 212.677 33.7436C212.436 33.4438 212.118 33.2061 211.723 33.0306C211.335 32.8478 210.871 32.7564 210.33 32.7564C209.606 32.7564 208.995 32.9099 208.498 33.2171C208.001 33.5169 207.752 33.9191 207.752 34.4237C207.752 34.8259 207.913 35.1659 208.235 35.4438C208.556 35.7217 209.108 35.9447 209.891 36.1129L212.94 36.7272C214.578 37.0636 215.8 37.6047 216.604 38.3506C217.408 39.0965 217.811 40.0765 217.811 41.2904C217.811 42.3946 217.485 43.3636 216.834 44.1972C216.191 45.0309 215.306 45.6817 214.18 46.1497C213.061 46.6104 211.77 46.8408 210.308 46.8408C208.077 46.8408 206.3 46.3764 204.977 45.4477C203.66 44.5117 202.889 43.2392 202.662 41.6304L207.258 41.3891C207.397 42.0692 207.734 42.5884 208.267 42.9467C208.801 43.2977 209.485 43.4733 210.319 43.4733C211.138 43.4733 211.796 43.316 212.293 43.0016C212.798 42.6798 213.054 42.2666 213.061 41.7621C213.054 41.3379 212.875 40.9906 212.523 40.72C212.172 40.4421 211.631 40.23 210.9 40.0838L207.982 39.5024C206.337 39.1733 205.112 38.6029 204.308 37.7912C203.51 36.9795 203.112 35.9447 203.112 34.6869C203.112 33.6046 203.404 32.6723 203.989 31.8898C204.582 31.1073 205.412 30.504 206.479 30.0799C207.554 29.6557 208.812 29.4437 210.253 29.4437C212.381 29.4437 214.056 29.8934 215.277 30.7929C216.505 31.6923 217.222 32.9172 217.427 34.4675ZM227.902 52.83V29.663H232.509V32.4931H232.718C232.923 32.0397 233.219 31.579 233.606 31.111C234.001 30.6356 234.513 30.2407 235.142 29.9263C235.778 29.6045 236.568 29.4437 237.511 29.4437C238.74 29.4437 239.873 29.7654 240.912 30.4089C241.95 31.0452 242.78 32.0068 243.402 33.2938C244.023 34.5736 244.334 36.1787 244.334 38.1093C244.334 39.9887 244.031 41.5756 243.424 42.8699C242.824 44.157 242.005 45.1333 240.967 45.7987C239.936 46.4569 238.78 46.7859 237.5 46.7859C236.594 46.7859 235.822 46.636 235.186 46.3362C234.557 46.0364 234.041 45.6598 233.639 45.2064C233.237 44.7457 232.93 44.2813 232.718 43.8133H232.575V52.83H227.902ZM232.476 38.0874C232.476 39.0892 232.615 39.9631 232.893 40.709C233.171 41.4549 233.573 42.0363 234.1 42.4531C234.626 42.8626 235.266 43.0674 236.02 43.0674C236.78 43.0674 237.424 42.859 237.95 42.4421C238.477 42.018 238.875 41.433 239.146 40.6871C239.424 39.9339 239.563 39.0673 239.563 38.0874C239.563 37.1148 239.427 36.2592 239.157 35.5206C238.886 34.782 238.488 34.2043 237.961 33.7875C237.435 33.3706 236.787 33.1622 236.02 33.1622C235.259 33.1622 234.615 33.3633 234.089 33.7655C233.57 34.1677 233.171 34.7381 232.893 35.4767C232.615 36.2153 232.476 37.0855 232.476 38.0874ZM252.254 46.8298C251.179 46.8298 250.221 46.6433 249.38 46.2704C248.539 45.8901 247.874 45.3307 247.384 44.5921C246.901 43.8462 246.66 42.9175 246.66 41.8059C246.66 40.8699 246.831 40.0838 247.175 39.4476C247.519 38.8113 247.987 38.2995 248.579 37.9119C249.172 37.5243 249.844 37.2318 250.598 37.0343C251.358 36.8369 252.155 36.6979 252.989 36.6175C253.969 36.5151 254.759 36.4201 255.358 36.3323C255.958 36.2372 256.393 36.0983 256.664 35.9155C256.934 35.7327 257.069 35.4621 257.069 35.1038V35.0379C257.069 34.3432 256.85 33.8057 256.411 33.4255C255.98 33.0452 255.366 32.8551 254.568 32.8551C253.727 32.8551 253.058 33.0415 252.561 33.4145C252.064 33.7801 251.735 34.2408 251.574 34.7966L247.252 34.4456C247.471 33.4218 247.903 32.537 248.546 31.7911C249.19 31.0378 250.02 30.4601 251.036 30.0579C252.06 29.6484 253.245 29.4437 254.59 29.4437C255.526 29.4437 256.422 29.5533 257.278 29.7727C258.141 29.9921 258.905 30.3322 259.57 30.7929C260.243 31.2536 260.773 31.8459 261.161 32.5699C261.548 33.2865 261.742 34.1458 261.742 35.1476V46.5117H257.311V44.1753H257.179C256.909 44.7018 256.547 45.1662 256.093 45.5684C255.64 45.9633 255.095 46.2741 254.459 46.5007C253.823 46.7201 253.088 46.8298 252.254 46.8298ZM253.592 43.6049C254.28 43.6049 254.887 43.4696 255.413 43.199C255.94 42.9211 256.353 42.5482 256.653 42.0802C256.952 41.6121 257.102 41.082 257.102 40.4896V38.7017C256.956 38.7967 256.755 38.8845 256.499 38.9649C256.25 39.038 255.969 39.1075 255.654 39.1733C255.34 39.2318 255.025 39.2867 254.711 39.3379C254.397 39.3817 254.111 39.422 253.855 39.4585C253.307 39.539 252.828 39.6669 252.418 39.8424C252.009 40.018 251.691 40.2556 251.464 40.5554C251.237 40.848 251.124 41.2136 251.124 41.6524C251.124 42.2886 251.354 42.7749 251.815 43.1113C252.283 43.4403 252.875 43.6049 253.592 43.6049ZM265.368 46.5117V29.663H269.898V32.6028H270.073C270.381 31.5571 270.896 30.7673 271.62 30.2334C272.344 29.6923 273.178 29.4217 274.121 29.4217C274.355 29.4217 274.607 29.4363 274.878 29.4656C275.148 29.4948 275.386 29.5351 275.591 29.5863V33.7326C275.371 33.6668 275.068 33.6083 274.68 33.5571C274.293 33.5059 273.938 33.4803 273.616 33.4803C272.929 33.4803 272.315 33.6302 271.774 33.9301C271.24 34.2226 270.816 34.6321 270.501 35.1586C270.194 35.6851 270.04 36.2921 270.04 36.9795V46.5117H265.368ZM282.329 46.8298C281.254 46.8298 280.296 46.6433 279.455 46.2704C278.614 45.8901 277.948 45.3307 277.458 44.5921C276.976 43.8462 276.734 42.9175 276.734 41.8059C276.734 40.8699 276.906 40.0838 277.25 39.4476C277.594 38.8113 278.062 38.2995 278.654 37.9119C279.246 37.5243 279.919 37.2318 280.672 37.0343C281.433 36.8369 282.23 36.6979 283.064 36.6175C284.044 36.5151 284.833 36.4201 285.433 36.3323C286.033 36.2372 286.468 36.0983 286.738 35.9155C287.009 35.7327 287.144 35.4621 287.144 35.1038V35.0379C287.144 34.3432 286.925 33.8057 286.486 33.4255C286.055 33.0452 285.44 32.8551 284.643 32.8551C283.802 32.8551 283.133 33.0415 282.636 33.4145C282.139 33.7801 281.809 34.2408 281.649 34.7966L277.327 34.4456C277.546 33.4218 277.978 32.537 278.621 31.7911C279.265 31.0378 280.095 30.4601 281.111 30.0579C282.135 29.6484 283.32 29.4437 284.665 29.4437C285.601 29.4437 286.497 29.5533 287.353 29.7727C288.215 29.9921 288.98 30.3322 289.645 30.7929C290.318 31.2536 290.848 31.8459 291.236 32.5699C291.623 33.2865 291.817 34.1458 291.817 35.1476V46.5117H287.385V44.1753H287.254C286.983 44.7018 286.621 45.1662 286.168 45.5684C285.715 45.9633 285.17 46.2741 284.534 46.5007C283.897 46.7201 283.162 46.8298 282.329 46.8298ZM283.667 43.6049C284.354 43.6049 284.961 43.4696 285.488 43.199C286.014 42.9211 286.428 42.5482 286.727 42.0802C287.027 41.6121 287.177 41.082 287.177 40.4896V38.7017C287.031 38.7967 286.83 38.8845 286.574 38.9649C286.325 39.038 286.044 39.1075 285.729 39.1733C285.415 39.2318 285.1 39.2867 284.786 39.3379C284.471 39.3817 284.186 39.422 283.93 39.4585C283.382 39.539 282.903 39.6669 282.493 39.8424C282.084 40.018 281.766 40.2556 281.539 40.5554C281.312 40.848 281.199 41.2136 281.199 41.6524C281.199 42.2886 281.429 42.7749 281.89 43.1113C282.358 43.4403 282.95 43.6049 283.667 43.6049ZM310.27 46.8408C308.537 46.8408 307.045 46.4898 305.795 45.7878C304.551 45.0784 303.593 44.0766 302.921 42.7822C302.248 41.4805 301.911 39.9412 301.911 38.1642C301.911 36.431 302.248 34.91 302.921 33.601C303.593 32.292 304.54 31.2719 305.762 30.5406C306.99 29.8093 308.431 29.4437 310.083 29.4437C311.195 29.4437 312.23 29.6228 313.188 29.9811C314.153 30.3322 314.994 30.8623 315.711 31.5717C316.435 32.281 316.998 33.1732 317.4 34.2482C317.802 35.3158 318.003 36.5663 318.003 37.9996V39.283H303.776V36.3872H313.605C313.605 35.7144 313.458 35.1184 313.166 34.5992C312.873 34.08 312.467 33.6741 311.948 33.3816C311.436 33.0818 310.84 32.9319 310.16 32.9319C309.451 32.9319 308.822 33.0964 308.274 33.4255C307.732 33.7472 307.308 34.1823 307.001 34.7308C306.694 35.272 306.537 35.8753 306.529 36.5407V39.294C306.529 40.1276 306.683 40.848 306.99 41.4549C307.305 42.0619 307.747 42.5299 308.317 42.859C308.888 43.1881 309.564 43.3526 310.347 43.3526C310.866 43.3526 311.341 43.2795 311.773 43.1332C312.204 42.987 312.574 42.7676 312.881 42.4751C313.188 42.1825 313.422 41.8242 313.583 41.4001L317.905 41.6853C317.685 42.7237 317.235 43.6305 316.555 44.4056C315.883 45.1735 315.012 45.7731 313.945 46.2046C312.884 46.6287 311.659 46.8408 310.27 46.8408ZM325.726 24.0468V46.5117H321.053V24.0468H325.726ZM341.422 46.8298C340.347 46.8298 339.39 46.6433 338.549 46.2704C337.708 45.8901 337.042 45.3307 336.552 44.5921C336.07 43.8462 335.828 42.9175 335.828 41.8059C335.828 40.8699 336 40.0838 336.344 39.4476C336.687 38.8113 337.155 38.2995 337.748 37.9119C338.34 37.5243 339.013 37.2318 339.766 37.0343C340.527 36.8369 341.324 36.6979 342.157 36.6175C343.137 36.5151 343.927 36.4201 344.527 36.3323C345.126 36.2372 345.562 36.0983 345.832 35.9155C346.103 35.7327 346.238 35.4621 346.238 35.1038V35.0379C346.238 34.3432 346.019 33.8057 345.58 33.4255C345.148 33.0452 344.534 32.8551 343.737 32.8551C342.896 32.8551 342.227 33.0415 341.73 33.4145C341.232 33.7801 340.903 34.2408 340.742 34.7966L336.421 34.4456C336.64 33.4218 337.071 32.537 337.715 31.7911C338.358 31.0378 339.188 30.4601 340.205 30.0579C341.229 29.6484 342.413 29.4437 343.759 29.4437C344.695 29.4437 345.591 29.5533 346.446 29.7727C347.309 29.9921 348.073 30.3322 348.739 30.7929C349.412 31.2536 349.942 31.8459 350.329 32.5699C350.717 33.2865 350.911 34.1458 350.911 35.1476V46.5117H346.479V44.1753H346.348C346.077 44.7018 345.715 45.1662 345.262 45.5684C344.808 45.9633 344.263 46.2741 343.627 46.5007C342.991 46.7201 342.256 46.8298 341.422 46.8298ZM342.761 43.6049C343.448 43.6049 344.055 43.4696 344.582 43.199C345.108 42.9211 345.521 42.5482 345.821 42.0802C346.121 41.6121 346.271 41.082 346.271 40.4896V38.7017C346.125 38.7967 345.923 38.8845 345.668 38.9649C345.419 39.038 345.137 39.1075 344.823 39.1733C344.508 39.2318 344.194 39.2867 343.88 39.3379C343.565 39.3817 343.28 39.422 343.024 39.4585C342.476 39.539 341.997 39.6669 341.587 39.8424C341.177 40.018 340.859 40.2556 340.633 40.5554C340.406 40.848 340.293 41.2136 340.293 41.6524C340.293 42.2886 340.523 42.7749 340.984 43.1113C341.452 43.4403 342.044 43.6049 342.761 43.6049ZM365.341 39.3379V29.663H370.014V46.5117H365.527V43.4513H365.352C364.972 44.4385 364.339 45.232 363.454 45.8316C362.577 46.4313 361.505 46.7311 360.24 46.7311C359.114 46.7311 358.123 46.4752 357.267 45.9633C356.412 45.4514 355.743 44.7237 355.26 43.7804C354.785 42.837 354.543 41.7072 354.536 40.3909V29.663H359.209V39.5573C359.216 40.5518 359.483 41.3379 360.01 41.9156C360.536 42.4933 361.242 42.7822 362.127 42.7822C362.69 42.7822 363.216 42.6542 363.706 42.3983C364.196 42.135 364.591 41.7474 364.891 41.2355C365.198 40.7236 365.348 40.0911 365.341 39.3379ZM378.424 24.0468V46.5117H373.751V24.0468H378.424ZM386.972 46.8298C385.897 46.8298 384.939 46.6433 384.098 46.2704C383.257 45.8901 382.592 45.3307 382.102 44.5921C381.619 43.8462 381.378 42.9175 381.378 41.8059C381.378 40.8699 381.55 40.0838 381.893 39.4476C382.237 38.8113 382.705 38.2995 383.297 37.9119C383.89 37.5243 384.562 37.2318 385.316 37.0343C386.076 36.8369 386.873 36.6979 387.707 36.6175C388.687 36.5151 389.477 36.4201 390.076 36.3323C390.676 36.2372 391.111 36.0983 391.382 35.9155C391.652 35.7327 391.788 35.4621 391.788 35.1038V35.0379C391.788 34.3432 391.568 33.8057 391.129 33.4255C390.698 33.0452 390.084 32.8551 389.287 32.8551C388.446 32.8551 387.776 33.0415 387.279 33.4145C386.782 33.7801 386.453 34.2408 386.292 34.7966L381.97 34.4456C382.189 33.4218 382.621 32.537 383.264 31.7911C383.908 31.0378 384.738 30.4601 385.754 30.0579C386.778 29.6484 387.963 29.4437 389.309 29.4437C390.245 29.4437 391.14 29.5533 391.996 29.7727C392.859 29.9921 393.623 30.3322 394.289 30.7929C394.961 31.2536 395.491 31.8459 395.879 32.5699C396.267 33.2865 396.46 34.1458 396.46 35.1476V46.5117H392.029V44.1753H391.897C391.627 44.7018 391.265 45.1662 390.811 45.5684C390.358 45.9633 389.813 46.2741 389.177 46.5007C388.541 46.7201 387.806 46.8298 386.972 46.8298ZM388.31 43.6049C388.998 43.6049 389.605 43.4696 390.131 43.199C390.658 42.9211 391.071 42.5482 391.371 42.0802C391.671 41.6121 391.82 41.082 391.82 40.4896V38.7017C391.674 38.7967 391.473 38.8845 391.217 38.9649C390.969 39.038 390.687 39.1075 390.373 39.1733C390.058 39.2318 389.744 39.2867 389.429 39.3379C389.115 39.3817 388.83 39.422 388.574 39.4585C388.025 39.539 387.546 39.6669 387.137 39.8424C386.727 40.018 386.409 40.2556 386.182 40.5554C385.956 40.848 385.842 41.2136 385.842 41.6524C385.842 42.2886 386.073 42.7749 386.533 43.1113C387.001 43.4403 387.594 43.6049 388.31 43.6049Z" fill="white"/>
<path d="M433 70.0233V75.0233H438V70.0233H433ZM428 0V70.0233H438V0H428ZM433 65.0233H4V75.0233H433V65.0233Z" fill="#DB7F27" mask="url(#path-1-inside-1_260_119509)"/>
</g>
<defs>
<filter id="filter0_d_260_119509" x="0" y="0" width="437" height="78.0234" filterUnits="userSpaceOnUse" color-interpolation-filters="sRGB">
<feFlood flood-opacity="0" result="BackgroundImageFix"/>
<feColorMatrix in="SourceAlpha" type="matrix" values="0 0 0 0 0 0 0 0 0 0 0 0 0 0 0 0 0 0 127 0" result="hardAlpha"/>
<feOffset dy="4"/>
<feGaussianBlur stdDeviation="2"/>
<feComposite in2="hardAlpha" operator="out"/>
<feColorMatrix type="matrix" values="0 0 0 0 0 0 0 0 0 0 0 0 0 0 0 0 0 0 0.25 0"/>
<feBlend mode="normal" in2="BackgroundImageFix" result="effect1_dropShadow_260_119509"/>
<feBlend mode="normal" in="SourceGraphic" in2="effect1_dropShadow_260_119509" result="shape"/>
</filter>
</defs>
</svg>
