<svg width="50" height="50" viewBox="0 0 50 50" fill="none" xmlns="http://www.w3.org/2000/svg">
<g clip-path="url(#clip0_260_101888)">
<path d="M6.66075 1.06712L49.6878 1.12367L50.0459 44.4813L6.83622 44.1435L6.66075 1.06712Z" fill="#9B82BB"/>
<path d="M50.0463 44.4812L6.83666 44.1434L1.16939 48.103L42.8465 48.2362L50.0463 44.4812Z" fill="#512E8D"/>
<path d="M6.66147 1.06692L0.997548 7.06396L1.16967 48.1029L6.83694 44.1432L6.66147 1.06692Z" fill="#6A4C9E"/>
</g>
<path d="M13.2502 27.3416L37.5586 38.0456V31.0535L20.9156 24.3721L21.1401 24.7347V23.8715L20.9156 24.234L37.5586 17.5527V10.5605L13.2502 21.2645V27.3416Z" fill="#050505"/>
<path d="M15.5002 23.5311L39.8086 34.2351V27.2429L23.1656 20.5616L23.3901 20.9241V20.0609L23.1656 20.4235L39.8086 13.7421V6.75L15.5002 17.454V23.5311Z" fill="white"/>
<defs>
<clipPath id="clip0_260_101888">
<rect width="49.5" height="49.5" fill="white" transform="translate(0.5)"/>
</clipPath>
</defs>
</svg>
