<svg width="437" height="79" viewBox="0 0 437 79" fill="none" xmlns="http://www.w3.org/2000/svg">
<g filter="url(#filter0_d_260_119507)">
<mask id="path-1-inside-1_260_119507" fill="white">
<path d="M4 0H433V70.0233H4V0Z"/>
</mask>
<path d="M4 0H433V70.0233H4V0Z" fill="#F180B3" shape-rendering="crispEdges"/>
<path d="M58.2738 31.9117H53.4693C53.3816 31.2901 53.2024 30.738 52.9319 30.2554C52.6613 29.7654 52.3139 29.3486 51.8898 29.0049C51.4656 28.6612 50.9757 28.3979 50.4199 28.2151C49.8714 28.0323 49.2755 27.9409 48.6319 27.9409C47.4692 27.9409 46.4564 28.2297 45.5935 28.8074C44.7306 29.3778 44.0614 30.2115 43.5861 31.3084C43.1108 32.398 42.8731 33.7216 42.8731 35.2793C42.8731 36.8808 43.1108 38.2263 43.5861 39.3159C44.0687 40.4055 44.7415 41.2282 45.6044 41.784C46.4673 42.3398 47.4655 42.6177 48.599 42.6177C49.2352 42.6177 49.8239 42.5336 50.3651 42.3654C50.9135 42.1972 51.3998 41.9522 51.824 41.6304C52.2481 41.3014 52.5991 40.9028 52.877 40.4348C53.1622 39.9668 53.3596 39.4329 53.4693 38.8333L58.2738 38.8552C58.1495 39.8863 57.8387 40.8809 57.3415 41.8388C56.8515 42.7895 56.1897 43.6414 55.356 44.3947C54.5297 45.1406 53.5425 45.7329 52.3944 46.1717C51.2536 46.6031 49.9629 46.8189 48.5222 46.8189C46.5185 46.8189 44.7269 46.3655 43.1473 45.4587C41.5751 44.5519 40.3319 43.2392 39.4178 41.5207C38.511 39.8022 38.0576 37.7217 38.0576 35.2793C38.0576 32.8295 38.5183 30.7453 39.4397 29.0268C40.3612 27.3083 41.6116 25.9993 43.1912 25.0999C44.7708 24.1931 46.5478 23.7397 48.5222 23.7397C49.8239 23.7397 51.0305 23.9225 52.1421 24.2881C53.2609 24.6538 54.2518 25.1876 55.1147 25.8896C55.9776 26.5844 56.6797 27.4363 57.2208 28.4455C57.7693 29.4546 58.1203 30.61 58.2738 31.9117ZM69.2046 46.8408C67.5008 46.8408 66.0272 46.4788 64.7841 45.7548C63.5482 45.0236 62.5939 44.0071 61.9211 42.7054C61.2483 41.3964 60.9119 39.879 60.9119 38.1532C60.9119 36.4127 61.2483 34.8917 61.9211 33.59C62.5939 32.281 63.5482 31.2645 64.7841 30.5406C66.0272 29.8093 67.5008 29.4437 69.2046 29.4437C70.9085 29.4437 72.3784 29.8093 73.6143 30.5406C74.8574 31.2645 75.8154 32.281 76.4882 33.59C77.161 34.8917 77.4974 36.4127 77.4974 38.1532C77.4974 39.879 77.161 41.3964 76.4882 42.7054C75.8154 44.0071 74.8574 45.0236 73.6143 45.7548C72.3784 46.4788 70.9085 46.8408 69.2046 46.8408ZM69.2266 43.221C70.0017 43.221 70.6489 43.0016 71.1681 42.5628C71.6873 42.1167 72.0786 41.5098 72.3418 40.7419C72.6124 39.9741 72.7477 39.1002 72.7477 38.1203C72.7477 37.1404 72.6124 36.2665 72.3418 35.4986C72.0786 34.7308 71.6873 34.1238 71.1681 33.6778C70.6489 33.2317 70.0017 33.0086 69.2266 33.0086C68.4441 33.0086 67.786 33.2317 67.2521 33.6778C66.7256 34.1238 66.3271 34.7308 66.0565 35.4986C65.7932 36.2665 65.6616 37.1404 65.6616 38.1203C65.6616 39.1002 65.7932 39.9741 66.0565 40.7419C66.3271 41.5098 66.7256 42.1167 67.2521 42.5628C67.786 43.0016 68.4441 43.221 69.2266 43.221ZM85.2087 36.7711V46.5117H80.5358V29.663H84.9893V32.6357H85.1868C85.5597 31.6558 86.185 30.8806 87.0625 30.3102C87.94 29.7325 89.004 29.4437 90.2545 29.4437C91.4246 29.4437 92.4447 29.6996 93.3149 30.2115C94.1852 30.7234 94.8616 31.4547 95.3442 32.4053C95.8269 33.3487 96.0682 34.4749 96.0682 35.7838V46.5117H91.3953V36.6175C91.4026 35.5864 91.1394 34.782 90.6055 34.2043C90.0717 33.6193 89.3368 33.3267 88.4007 33.3267C87.7718 33.3267 87.2161 33.462 86.7334 33.7326C86.2581 34.0032 85.8851 34.3981 85.6146 34.9173C85.3513 35.4292 85.216 36.0471 85.2087 36.7711ZM108.713 29.663V33.1732H98.5664V29.663H108.713ZM100.87 25.6264H105.543V41.3343C105.543 41.7657 105.609 42.1021 105.74 42.3434C105.872 42.5774 106.055 42.742 106.289 42.837C106.53 42.9321 106.808 42.9796 107.122 42.9796C107.342 42.9796 107.561 42.9614 107.781 42.9248C108 42.8809 108.168 42.848 108.285 42.8261L109.02 46.3033C108.786 46.3764 108.457 46.4605 108.033 46.5556C107.609 46.658 107.093 46.7201 106.486 46.7421C105.36 46.7859 104.373 46.636 103.525 46.2923C102.684 45.9486 102.029 45.4148 101.561 44.6908C101.093 43.9669 100.863 43.0528 100.87 41.9485V25.6264ZM119.254 46.8408C117.521 46.8408 116.029 46.4898 114.779 45.7878C113.536 45.0784 112.578 44.0766 111.905 42.7822C111.232 41.4805 110.896 39.9412 110.896 38.1642C110.896 36.431 111.232 34.91 111.905 33.601C112.578 32.292 113.525 31.2719 114.746 30.5406C115.975 29.8093 117.415 29.4437 119.068 29.4437C120.179 29.4437 121.214 29.6228 122.172 29.9811C123.137 30.3322 123.978 30.8623 124.695 31.5717C125.419 32.281 125.982 33.1732 126.384 34.2482C126.787 35.3158 126.988 36.5663 126.988 37.9996V39.283H112.761V36.3872H122.589C122.589 35.7144 122.443 35.1184 122.15 34.5992C121.858 34.08 121.452 33.6741 120.933 33.3816C120.421 33.0818 119.825 32.9319 119.145 32.9319C118.435 32.9319 117.806 33.0964 117.258 33.4255C116.717 33.7472 116.293 34.1823 115.986 34.7308C115.678 35.272 115.521 35.8753 115.514 36.5407V39.294C115.514 40.1276 115.667 40.848 115.975 41.4549C116.289 42.0619 116.731 42.5299 117.302 42.859C117.872 43.1881 118.549 43.3526 119.331 43.3526C119.85 43.3526 120.326 43.2795 120.757 43.1332C121.189 42.987 121.558 42.7676 121.865 42.4751C122.172 42.1825 122.406 41.8242 122.567 41.4001L126.889 41.6853C126.67 42.7237 126.22 43.6305 125.54 44.4056C124.867 45.1735 123.997 45.7731 122.929 46.2046C121.869 46.6287 120.644 46.8408 119.254 46.8408ZM133.64 29.663L136.734 35.5535L139.904 29.663H144.697L139.816 38.0874L144.829 46.5117H140.057L136.734 40.6871L133.465 46.5117H128.638L133.64 38.0874L128.814 29.663H133.64ZM156.434 29.663V33.1732H146.288V29.663H156.434ZM148.591 25.6264H153.264V41.3343C153.264 41.7657 153.33 42.1021 153.462 42.3434C153.593 42.5774 153.776 42.742 154.01 42.837C154.252 42.9321 154.529 42.9796 154.844 42.9796C155.063 42.9796 155.283 42.9614 155.502 42.9248C155.721 42.8809 155.89 42.848 156.007 42.8261L156.742 46.3033C156.508 46.3764 156.178 46.4605 155.754 46.5556C155.33 46.658 154.815 46.7201 154.208 46.7421C153.081 46.7859 152.094 46.636 151.246 46.2923C150.405 45.9486 149.751 45.4148 149.282 44.6908C148.814 43.9669 148.584 43.0528 148.591 41.9485V25.6264ZM166.91 46.8408C165.206 46.8408 163.733 46.4788 162.489 45.7548C161.254 45.0236 160.299 44.0071 159.626 42.7054C158.954 41.3964 158.617 39.879 158.617 38.1532C158.617 36.4127 158.954 34.8917 159.626 33.59C160.299 32.281 161.254 31.2645 162.489 30.5406C163.733 29.8093 165.206 29.4437 166.91 29.4437C168.614 29.4437 170.084 29.8093 171.32 30.5406C172.563 31.2645 173.521 32.281 174.194 33.59C174.866 34.8917 175.203 36.4127 175.203 38.1532C175.203 39.879 174.866 41.3964 174.194 42.7054C173.521 44.0071 172.563 45.0236 171.32 45.7548C170.084 46.4788 168.614 46.8408 166.91 46.8408ZM166.932 43.221C167.707 43.221 168.354 43.0016 168.873 42.5628C169.393 42.1167 169.784 41.5098 170.047 40.7419C170.318 39.9741 170.453 39.1002 170.453 38.1203C170.453 37.1404 170.318 36.2665 170.047 35.4986C169.784 34.7308 169.393 34.1238 168.873 33.6778C168.354 33.2317 167.707 33.0086 166.932 33.0086C166.149 33.0086 165.491 33.2317 164.957 33.6778C164.431 34.1238 164.032 34.7308 163.762 35.4986C163.499 36.2665 163.367 37.1404 163.367 38.1203C163.367 39.1002 163.499 39.9741 163.762 40.7419C164.032 41.5098 164.431 42.1167 164.957 42.5628C165.491 43.0016 166.149 43.221 166.932 43.221ZM185.39 52.83V29.663H189.997V32.4931H190.206C190.411 32.0397 190.707 31.579 191.094 31.111C191.489 30.6356 192.001 30.2407 192.63 29.9263C193.266 29.6045 194.056 29.4437 194.999 29.4437C196.228 29.4437 197.361 29.7654 198.4 30.4089C199.438 31.0452 200.268 32.0068 200.89 33.2938C201.511 34.5736 201.822 36.1787 201.822 38.1093C201.822 39.9887 201.519 41.5756 200.912 42.8699C200.312 44.157 199.493 45.1333 198.455 45.7987C197.424 46.4569 196.268 46.7859 194.988 46.7859C194.082 46.7859 193.31 46.636 192.674 46.3362C192.045 46.0364 191.529 45.6598 191.127 45.2064C190.725 44.7457 190.418 44.2813 190.206 43.8133H190.063V52.83H185.39ZM189.964 38.0874C189.964 39.0892 190.103 39.9631 190.381 40.709C190.659 41.4549 191.061 42.0363 191.588 42.4531C192.114 42.8626 192.754 43.0674 193.508 43.0674C194.268 43.0674 194.912 42.859 195.438 42.4421C195.965 42.018 196.363 41.433 196.634 40.6871C196.912 39.9339 197.051 39.0673 197.051 38.0874C197.051 37.1148 196.915 36.2592 196.645 35.5206C196.374 34.782 195.976 34.2043 195.449 33.7875C194.923 33.3706 194.275 33.1622 193.508 33.1622C192.747 33.1622 192.103 33.3633 191.577 33.7655C191.058 34.1677 190.659 34.7381 190.381 35.4767C190.103 36.2153 189.964 37.0855 189.964 38.0874ZM209.742 46.8298C208.667 46.8298 207.709 46.6433 206.868 46.2704C206.027 45.8901 205.362 45.3307 204.872 44.5921C204.389 43.8462 204.148 42.9175 204.148 41.8059C204.148 40.8699 204.32 40.0838 204.663 39.4476C205.007 38.8113 205.475 38.2995 206.067 37.9119C206.66 37.5243 207.332 37.2318 208.086 37.0343C208.846 36.8369 209.643 36.6979 210.477 36.6175C211.457 36.5151 212.247 36.4201 212.846 36.3323C213.446 36.2372 213.881 36.0983 214.152 35.9155C214.422 35.7327 214.557 35.4621 214.557 35.1038V35.0379C214.557 34.3432 214.338 33.8057 213.899 33.4255C213.468 33.0452 212.854 32.8551 212.056 32.8551C211.215 32.8551 210.546 33.0415 210.049 33.4145C209.552 33.7801 209.223 34.2408 209.062 34.7966L204.74 34.4456C204.959 33.4218 205.391 32.537 206.034 31.7911C206.678 31.0378 207.508 30.4601 208.524 30.0579C209.548 29.6484 210.733 29.4437 212.078 29.4437C213.014 29.4437 213.91 29.5533 214.766 29.7727C215.629 29.9921 216.393 30.3322 217.058 30.7929C217.731 31.2536 218.261 31.8459 218.649 32.5699C219.037 33.2865 219.23 34.1458 219.23 35.1476V46.5117H214.799V44.1753H214.667C214.397 44.7018 214.035 45.1662 213.581 45.5684C213.128 45.9633 212.583 46.2741 211.947 46.5007C211.311 46.7201 210.576 46.8298 209.742 46.8298ZM211.08 43.6049C211.768 43.6049 212.375 43.4696 212.901 43.199C213.428 42.9211 213.841 42.5482 214.141 42.0802C214.44 41.6121 214.59 41.082 214.59 40.4896V38.7017C214.444 38.7967 214.243 38.8845 213.987 38.9649C213.738 39.038 213.457 39.1075 213.142 39.1733C212.828 39.2318 212.513 39.2867 212.199 39.3379C211.885 39.3817 211.599 39.422 211.343 39.4585C210.795 39.539 210.316 39.6669 209.906 39.8424C209.497 40.018 209.179 40.2556 208.952 40.5554C208.725 40.848 208.612 41.2136 208.612 41.6524C208.612 42.2886 208.842 42.7749 209.303 43.1113C209.771 43.4403 210.364 43.6049 211.08 43.6049ZM222.856 46.5117V29.663H227.386V32.6028H227.561C227.869 31.5571 228.384 30.7673 229.108 30.2334C229.832 29.6923 230.666 29.4217 231.609 29.4217C231.843 29.4217 232.095 29.4363 232.366 29.4656C232.636 29.4948 232.874 29.5351 233.079 29.5863V33.7326C232.86 33.6668 232.556 33.6083 232.168 33.5571C231.781 33.5059 231.426 33.4803 231.104 33.4803C230.417 33.4803 229.803 33.6302 229.262 33.9301C228.728 34.2226 228.304 34.6321 227.989 35.1586C227.682 35.6851 227.528 36.2921 227.528 36.9795V46.5117H222.856ZM239.817 46.8298C238.742 46.8298 237.784 46.6433 236.943 46.2704C236.102 45.8901 235.436 45.3307 234.946 44.5921C234.464 43.8462 234.222 42.9175 234.222 41.8059C234.222 40.8699 234.394 40.0838 234.738 39.4476C235.082 38.8113 235.55 38.2995 236.142 37.9119C236.734 37.5243 237.407 37.2318 238.16 37.0343C238.921 36.8369 239.718 36.6979 240.552 36.6175C241.532 36.5151 242.321 36.4201 242.921 36.3323C243.521 36.2372 243.956 36.0983 244.226 35.9155C244.497 35.7327 244.632 35.4621 244.632 35.1038V35.0379C244.632 34.3432 244.413 33.8057 243.974 33.4255C243.543 33.0452 242.928 32.8551 242.131 32.8551C241.29 32.8551 240.621 33.0415 240.124 33.4145C239.627 33.7801 239.298 34.2408 239.137 34.7966L234.815 34.4456C235.034 33.4218 235.466 32.537 236.109 31.7911C236.753 31.0378 237.583 30.4601 238.599 30.0579C239.623 29.6484 240.808 29.4437 242.153 29.4437C243.089 29.4437 243.985 29.5533 244.841 29.7727C245.704 29.9921 246.468 30.3322 247.133 30.7929C247.806 31.2536 248.336 31.8459 248.724 32.5699C249.111 33.2865 249.305 34.1458 249.305 35.1476V46.5117H244.874V44.1753H244.742C244.471 44.7018 244.109 45.1662 243.656 45.5684C243.203 45.9633 242.658 46.2741 242.022 46.5007C241.385 46.7201 240.65 46.8298 239.817 46.8298ZM241.155 43.6049C241.842 43.6049 242.449 43.4696 242.976 43.199C243.502 42.9211 243.916 42.5482 244.215 42.0802C244.515 41.6121 244.665 41.082 244.665 40.4896V38.7017C244.519 38.7967 244.318 38.8845 244.062 38.9649C243.813 39.038 243.532 39.1075 243.217 39.1733C242.903 39.2318 242.588 39.2867 242.274 39.3379C241.959 39.3817 241.674 39.422 241.418 39.4585C240.87 39.539 240.391 39.6669 239.981 39.8424C239.572 40.018 239.254 40.2556 239.027 40.5554C238.8 40.848 238.687 41.2136 238.687 41.6524C238.687 42.2886 238.917 42.7749 239.378 43.1113C239.846 43.4403 240.438 43.6049 241.155 43.6049ZM266.288 46.7859C265.008 46.7859 263.849 46.4569 262.811 45.7987C261.78 45.1333 260.961 44.157 260.354 42.8699C259.754 41.5756 259.454 39.9887 259.454 38.1093C259.454 36.1787 259.765 34.5736 260.387 33.2938C261.008 32.0068 261.835 31.0452 262.866 30.4089C263.904 29.7654 265.041 29.4437 266.277 29.4437C267.221 29.4437 268.007 29.6045 268.636 29.9263C269.272 30.2407 269.784 30.6356 270.171 31.111C270.566 31.579 270.866 32.0397 271.071 32.4931H271.213V24.0468H275.875V46.5117H271.268V43.8133H271.071C270.851 44.2813 270.541 44.7457 270.138 45.2064C269.743 45.6598 269.228 46.0364 268.592 46.3362C267.963 46.636 267.195 46.7859 266.288 46.7859ZM267.769 43.0674C268.522 43.0674 269.158 42.8626 269.678 42.4531C270.204 42.0363 270.606 41.4549 270.884 40.709C271.169 39.9631 271.312 39.0892 271.312 38.0874C271.312 37.0855 271.173 36.2153 270.895 35.4767C270.617 34.7381 270.215 34.1677 269.689 33.7655C269.162 33.3633 268.522 33.1622 267.769 33.1622C267.001 33.1622 266.354 33.3706 265.827 33.7875C265.301 34.2043 264.902 34.782 264.632 35.5206C264.361 36.2592 264.226 37.1148 264.226 38.0874C264.226 39.0673 264.361 39.9339 264.632 40.6871C264.91 41.433 265.308 42.018 265.827 42.4421C266.354 42.859 267.001 43.0674 267.769 43.0674ZM287.33 46.8408C285.626 46.8408 284.152 46.4788 282.909 45.7548C281.673 45.0236 280.719 44.0071 280.046 42.7054C279.373 41.3964 279.037 39.879 279.037 38.1532C279.037 36.4127 279.373 34.8917 280.046 33.59C280.719 32.281 281.673 31.2645 282.909 30.5406C284.152 29.8093 285.626 29.4437 287.33 29.4437C289.034 29.4437 290.504 29.8093 291.739 30.5406C292.983 31.2645 293.941 32.281 294.613 33.59C295.286 34.8917 295.622 36.4127 295.622 38.1532C295.622 39.879 295.286 41.3964 294.613 42.7054C293.941 44.0071 292.983 45.0236 291.739 45.7548C290.504 46.4788 289.034 46.8408 287.33 46.8408ZM287.352 43.221C288.127 43.221 288.774 43.0016 289.293 42.5628C289.812 42.1167 290.204 41.5098 290.467 40.7419C290.738 39.9741 290.873 39.1002 290.873 38.1203C290.873 37.1404 290.738 36.2665 290.467 35.4986C290.204 34.7308 289.812 34.1238 289.293 33.6778C288.774 33.2317 288.127 33.0086 287.352 33.0086C286.569 33.0086 285.911 33.2317 285.377 33.6778C284.851 34.1238 284.452 34.7308 284.182 35.4986C283.918 36.2665 283.787 37.1404 283.787 38.1203C283.787 39.1002 283.918 39.9741 284.182 40.7419C284.452 41.5098 284.851 42.1167 285.377 42.5628C285.911 43.0016 286.569 43.221 287.352 43.221ZM306.274 46.8408C304.548 46.8408 303.063 46.4752 301.82 45.7439C300.584 45.0053 299.634 43.9815 298.968 42.6725C298.31 41.3635 297.981 39.8571 297.981 38.1532C297.981 36.4274 298.314 34.9136 298.979 33.6119C299.652 32.303 300.606 31.2828 301.842 30.5515C303.078 29.813 304.548 29.4437 306.252 29.4437C307.722 29.4437 309.009 29.7106 310.113 30.2444C311.217 30.7782 312.091 31.5278 312.734 32.4931C313.378 33.4584 313.733 34.5919 313.798 35.8935H309.389C309.265 35.0526 308.935 34.3761 308.402 33.8642C307.875 33.345 307.184 33.0854 306.328 33.0854C305.604 33.0854 304.972 33.2829 304.431 33.6778C303.897 34.0653 303.48 34.6321 303.18 35.378C302.88 36.1239 302.731 37.027 302.731 38.0874C302.731 39.1624 302.877 40.0765 303.169 40.8297C303.469 41.5829 303.89 42.1569 304.431 42.5518C304.972 42.9467 305.604 43.1442 306.328 43.1442C306.862 43.1442 307.341 43.0345 307.765 42.8151C308.197 42.5957 308.552 42.2776 308.829 41.8608C309.115 41.4366 309.301 40.9284 309.389 40.3361H313.798C313.725 41.6231 313.374 42.7566 312.745 43.7365C312.124 44.7091 311.265 45.4696 310.168 46.0181C309.071 46.5666 307.773 46.8408 306.274 46.8408ZM324.469 46.8408C322.736 46.8408 321.244 46.4898 319.993 45.7878C318.75 45.0784 317.792 44.0766 317.119 42.7822C316.447 41.4805 316.11 39.9412 316.11 38.1642C316.11 36.431 316.447 34.91 317.119 33.601C317.792 32.292 318.739 31.2719 319.96 30.5406C321.189 29.8093 322.63 29.4437 324.282 29.4437C325.394 29.4437 326.429 29.6228 327.387 29.9811C328.352 30.3322 329.193 30.8623 329.909 31.5717C330.633 32.281 331.197 33.1732 331.599 34.2482C332.001 35.3158 332.202 36.5663 332.202 37.9996V39.283H317.975V36.3872H327.803C327.803 35.7144 327.657 35.1184 327.365 34.5992C327.072 34.08 326.666 33.6741 326.147 33.3816C325.635 33.0818 325.039 32.9319 324.359 32.9319C323.65 32.9319 323.021 33.0964 322.472 33.4255C321.931 33.7472 321.507 34.1823 321.2 34.7308C320.893 35.272 320.736 35.8753 320.728 36.5407V39.294C320.728 40.1276 320.882 40.848 321.189 41.4549C321.503 42.0619 321.946 42.5299 322.516 42.859C323.087 43.1881 323.763 43.3526 324.546 43.3526C325.065 43.3526 325.54 43.2795 325.972 43.1332C326.403 42.987 326.772 42.7676 327.079 42.4751C327.387 42.1825 327.621 41.8242 327.781 41.4001L332.103 41.6853C331.884 42.7237 331.434 43.6305 330.754 44.4056C330.081 45.1735 329.211 45.7731 328.143 46.2046C327.083 46.6287 325.858 46.8408 324.469 46.8408ZM339.924 36.7711V46.5117H335.251V29.663H339.705V32.6357H339.902C340.275 31.6558 340.901 30.8806 341.778 30.3102C342.656 29.7325 343.72 29.4437 344.97 29.4437C346.14 29.4437 347.16 29.6996 348.031 30.2115C348.901 30.7234 349.577 31.4547 350.06 32.4053C350.543 33.3487 350.784 34.4749 350.784 35.7838V46.5117H346.111V36.6175C346.118 35.5864 345.855 34.782 345.321 34.2043C344.787 33.6193 344.052 33.3267 343.116 33.3267C342.487 33.3267 341.932 33.462 341.449 33.7326C340.974 34.0032 340.601 34.3981 340.33 34.9173C340.067 35.4292 339.932 36.0471 339.924 36.7711ZM363.429 29.663V33.1732H353.282V29.663H363.429ZM355.586 25.6264H360.258V41.3343C360.258 41.7657 360.324 42.1021 360.456 42.3434C360.588 42.5774 360.77 42.742 361.004 42.837C361.246 42.9321 361.524 42.9796 361.838 42.9796C362.057 42.9796 362.277 42.9614 362.496 42.9248C362.716 42.8809 362.884 42.848 363.001 42.8261L363.736 46.3033C363.502 46.3764 363.173 46.4605 362.748 46.5556C362.324 46.658 361.809 46.7201 361.202 46.7421C360.076 46.7859 359.088 46.636 358.24 46.2923C357.399 45.9486 356.745 45.4148 356.277 44.6908C355.809 43.9669 355.578 43.0528 355.586 41.9485V25.6264ZM373.97 46.8408C372.237 46.8408 370.745 46.4898 369.495 45.7878C368.251 45.0784 367.293 44.0766 366.621 42.7822C365.948 41.4805 365.611 39.9412 365.611 38.1642C365.611 36.431 365.948 34.91 366.621 33.601C367.293 32.292 368.24 31.2719 369.462 30.5406C370.69 29.8093 372.131 29.4437 373.783 29.4437C374.895 29.4437 375.93 29.6228 376.888 29.9811C377.853 30.3322 378.694 30.8623 379.411 31.5717C380.135 32.281 380.698 33.1732 381.1 34.2482C381.502 35.3158 381.703 36.5663 381.703 37.9996V39.283H367.476V36.3872H377.305C377.305 35.7144 377.158 35.1184 376.866 34.5992C376.573 34.08 376.167 33.6741 375.648 33.3816C375.136 33.0818 374.54 32.9319 373.86 32.9319C373.151 32.9319 372.522 33.0964 371.974 33.4255C371.432 33.7472 371.008 34.1823 370.701 34.7308C370.394 35.272 370.237 35.8753 370.229 36.5407V39.294C370.229 40.1276 370.383 40.848 370.69 41.4549C371.005 42.0619 371.447 42.5299 372.017 42.859C372.588 43.1881 373.264 43.3526 374.047 43.3526C374.566 43.3526 375.041 43.2795 375.473 43.1332C375.904 42.987 376.273 42.7676 376.581 42.4751C376.888 42.1825 377.122 41.8242 377.283 41.4001L381.605 41.6853C381.385 42.7237 380.935 43.6305 380.255 44.4056C379.583 45.1735 378.712 45.7731 377.645 46.2046C376.584 46.6287 375.359 46.8408 373.97 46.8408ZM398.771 34.4675L394.493 34.7308C394.42 34.3652 394.263 34.0361 394.022 33.7436C393.78 33.4438 393.462 33.2061 393.067 33.0306C392.68 32.8478 392.215 32.7564 391.674 32.7564C390.95 32.7564 390.34 32.9099 389.842 33.2171C389.345 33.5169 389.096 33.9191 389.096 34.4237C389.096 34.8259 389.257 35.1659 389.579 35.4438C389.901 35.7217 390.453 35.9447 391.235 36.1129L394.285 36.7272C395.923 37.0636 397.144 37.6047 397.949 38.3506C398.753 39.0965 399.155 40.0765 399.155 41.2904C399.155 42.3946 398.83 43.3636 398.179 44.1972C397.535 45.0309 396.651 45.6817 395.524 46.1497C394.406 46.6104 393.115 46.8408 391.652 46.8408C389.422 46.8408 387.645 46.3764 386.321 45.4477C385.005 44.5117 384.233 43.2392 384.007 41.6304L388.603 41.3891C388.742 42.0692 389.078 42.5884 389.612 42.9467C390.146 43.2977 390.83 43.4733 391.663 43.4733C392.482 43.4733 393.14 43.316 393.638 43.0016C394.142 42.6798 394.398 42.2666 394.406 41.7621C394.398 41.3379 394.219 40.9906 393.868 40.72C393.517 40.4421 392.976 40.23 392.245 40.0838L389.327 39.5024C387.681 39.1733 386.457 38.6029 385.652 37.7912C384.855 36.9795 384.457 35.9447 384.457 34.6869C384.457 33.6046 384.749 32.6723 385.334 31.8898C385.926 31.1073 386.756 30.504 387.824 30.0799C388.899 29.6557 390.157 29.4437 391.597 29.4437C393.725 29.4437 395.4 29.8934 396.621 30.7929C397.85 31.6923 398.567 32.9172 398.771 34.4675Z" fill="white"/>
<path d="M433 70.0233V75.0233H438V70.0233H433ZM428 0V70.0233H438V0H428ZM433 65.0233H4V75.0233H433V65.0233Z" fill="#ED4592" mask="url(#path-1-inside-1_260_119507)"/>
</g>
<defs>
<filter id="filter0_d_260_119507" x="0" y="0" width="437" height="78.0234" filterUnits="userSpaceOnUse" color-interpolation-filters="sRGB">
<feFlood flood-opacity="0" result="BackgroundImageFix"/>
<feColorMatrix in="SourceAlpha" type="matrix" values="0 0 0 0 0 0 0 0 0 0 0 0 0 0 0 0 0 0 127 0" result="hardAlpha"/>
<feOffset dy="4"/>
<feGaussianBlur stdDeviation="2"/>
<feComposite in2="hardAlpha" operator="out"/>
<feColorMatrix type="matrix" values="0 0 0 0 0 0 0 0 0 0 0 0 0 0 0 0 0 0 0.25 0"/>
<feBlend mode="normal" in2="BackgroundImageFix" result="effect1_dropShadow_260_119507"/>
<feBlend mode="normal" in="SourceGraphic" in2="effect1_dropShadow_260_119507" result="shape"/>
</filter>
</defs>
</svg>
