<svg width="191" height="96" viewBox="0 0 191 96" fill="none" xmlns="http://www.w3.org/2000/svg">
<path d="M25.481 0.0688477H0.0478516V22.7443H14.1434V11.4066H25.481V0.0688477Z" fill="#219C6E"/>
<path d="M25.4814 34.0821H33.7549V0.0688477H25.4814V34.0821Z" fill="#3B62AD"/>
<path d="M25.481 22.7446H0.0478516V45.1136H14.1434V34.0824H25.481V22.7446Z" fill="#ED326A"/>
<path d="M46.9304 22.7445V11.4067H38.3506V34.0822H58.2682V22.7445H46.9304Z" fill="#FABC11"/>
<path d="M38.3506 0.0688477V11.4066H58.2682V22.7443H72.3637V0.0688477H38.3506Z" fill="#EC3024"/>
<path d="M72.365 45.1136H58.2695V22.7446H72.365V45.1136Z" fill="#17BCE8"/>
<path d="M38.3506 34.0825H46.9304V45.1137H38.3506V34.0825Z" fill="#3B62AD"/>
<path d="M91.0565 45.1133H76.9609V0.0688477H91.0565V45.1133Z" fill="#3B62AD"/>
<path d="M101.474 17.8413L101.167 18.1478L93.5068 29.1791L101.78 45.1132H115.263L101.474 17.8413Z" fill="#FABC11"/>
<path d="M91.0557 32.55L113.425 0.0688477H100.861L91.0557 14.1645V32.55Z" fill="#EC3024"/>
<path d="M129.666 82.4972L152.035 50.0161H139.472L129.666 64.1118V82.4972Z" fill="#ED326A"/>
<path d="M138.245 0.0688477H118.327V34.0821H126.907V11.4066H138.245V0.0688477Z" fill="#17BCE8"/>
<path d="M152.341 45.1133H138.245V0.0688477H152.341V45.1133Z" fill="#EC3024"/>
<path d="M126.907 45.1137H118.327V34.0825H126.907V45.1137Z" fill="#219C6E"/>
<path d="M138.246 34.0824H126.908V22.7446H138.246V34.0824Z" fill="#F26E24"/>
<path d="M52.7525 95.0597H38.3506V61.353H52.7525V95.0597Z" fill="#219C6E"/>
<path d="M58.2682 61.3539H38.3506V50.0161H58.2682V61.3539Z" fill="#3B62AD"/>
<path d="M58.2695 61.3539H72.365V50.0161H58.2695V61.3539Z" fill="#219C6E"/>
<path d="M63.7842 61.353V72.3844H52.7529V83.722H72.3641V61.353H63.7842Z" fill="#ED326A"/>
<path d="M85.5408 95.0604H76.9609V83.7227H85.5408V95.0604Z" fill="#3B62AD"/>
<path d="M96.8785 50.0161H76.9609V83.7228H85.5408V61.3539H96.8785V50.0161Z" fill="#EC3024"/>
<path d="M110.973 95.0606H96.8779V50.0161H110.973V95.0606Z" fill="#17BCE8"/>
<path d="M96.8787 83.7228H85.541V72.3853H96.8787V83.7228Z" fill="#FABC11"/>
<path d="M129.665 95.0606H115.569V50.0161H129.665V95.0606Z" fill="#F26E24"/>
<path d="M140.083 67.4824L139.777 67.789L132.116 78.8202L140.39 95.0606H153.566L140.083 67.4824Z" fill="#3B62AD"/>
<path d="M190.644 95.0606H176.549V72.3853H190.644V95.0606Z" fill="#3B62AD"/>
<path d="M156.938 50.0161V61.3539H176.549V72.3853H190.644V50.0161H156.938Z" fill="#219C6E"/>
<path d="M156.938 95.0604H165.517V83.7227H156.938V95.0604Z" fill="#FABC11"/>
<path d="M165.517 72.3844V61.353H156.938V83.722H176.549V72.3844H165.517Z" fill="#ED326A"/>
</svg>
