<svg xmlns="http://www.w3.org/2000/svg" width="435" height="610" fill="none" viewBox="0 0 435 610">
  <g class="Property 1=abril" clip-path="url(#a)">
    <path fill="#fff" d="M0 0h435v610H0z"/>
    <g class="Fondo" clip-path="url(#b)">
      <path fill="#FDFDFD" d="M0 0h435v610H0z"/>
      <path fill="#F69227" d="M448 587.1H3V-23h445v610.1Z" class="fondo"/>
      <g class="ondas">
        <g class="&lt;Group&gt;">
          <g class="Clip path group">
            <mask id="c" width="448" height="626" x="-7" y="-6" class="c" maskUnits="userSpaceOnUse" style="mask-type:luminance">
              <g class="cp6">
                <path fill="#fff" d="M440.06 619.87H-6.12V-5.2h446.18v625.07Z" class="Vector"/>
              </g>
            </mask>
            <g class="&lt;Clip Group&gt;" mask="url(#c)">
              <path fill="#DB7F27" d="M-196.95 867.57c57.6-56.3 187.8-182.1 245.5-237.9 9.5-9.2 2.7-24.7-10.7-24.7-24.6 0-57.2.1-81.9.2-13.5.1-9.2-26.6.3-35.8l345.1-334.6c.2-.2 107.1-84 .4-51.7l-92.4-48c0 .3-153.2 151.7-153.4 152l-287.6 279.4c-9.4 9.2-2.6 24.7 10.9 24.7 24.7-.1 57.3-.3 81.9-.2 13.4 0 20.2 15.5 10.8 24.6-57.7 55.9-199.1 192.8-256.8 249.1l187.9 2.9Z" class="&lt;Path&gt;"/>
              <path stroke="#FDFDFD" stroke-linecap="round" stroke-width="2" d="m364.15 23.17 64.5-57.3" class="&lt;Path&gt;" opacity=".1"/>
              <path fill="#FAB76B" d="M-121.05 386.87c46.2-42.1 144.9-200.5 191.1-242.2 7.6-6.9 2.2-18.5-8.6-18.5-19.7 0 29.2 2.1 9.4 2.2-10.8 0-16.3-11.6-8.7-18.5l230.5-209c.2-.2.3-.433.3-.7l-150.6-2.1c0 .2-21.6.5-21.8.7l-137.3 77.1-93.3 131.9c-7.6 6.9 19.4 18.5 30.2 18.4 19.9 0 46-.1 65.7-.1 10.8 0 16.2 11.6 8.6 18.5-46.2 41.7-159.6 144.2-205.8 186.3l90.3 56Z" class="&lt;Path&gt;"/>
              <path fill="#DB7F27" d="M32.15 409.17c46.2-42.1 219.9-198.4 266.2-240.2 7.5-6.8 2.1-18.5-8.7-18.5-19.7 0-74.4.1-94.3.2-10.8 0-16.2-11.6-8.7-18.5l230.6-209c.2-.2-17.5-.4-17.5-.7 0 0-189.7-1.6-189.9-1.4l-233.5 209c-7.6 6.9 33.8 18.5 44.6 18.4 19.9 0-21.3-.1-1.6-.1 10.8 0 4.3 11.6-3.2 18.5-46.3 41.7-107.2 144.2-153.5 186.3l169.5 56Z" class="&lt;Path&gt;"/>
              <path fill="#F69227" d="M333.05 615.27c56.7-51.7 212.5-193.7 269.2-245 9.3-8.4 2.6-22.6-10.6-22.6-24.2-.1-115.4 0-139.8.1-13.2.1-19.9-14.2-10.6-22.6l282.8-256.4c.2-.2.4-.6.4-.9l-184.8-2.6c0 .3-.1.6-.4.8l-282.8 256.5c-9.3 8.4-2.6 22.6 10.6 22.6 24.4-.1 14.8-.2 39-.2 13.3 0 19.9 14.3 10.6 22.7-56.7 51.2-212.5 193.3-269.2 245l285.6 2.6Z" class="&lt;Path&gt;"/>
              <path stroke="#FDFDFD" stroke-linecap="round" stroke-width="5.4" d="m241.85 527.47 83.4-74.2" class="&lt;Path&gt;" opacity=".2"/>
              <path fill="#FAB76B" d="M407.35 643.37c28.8-26.2 99.3-89.9 128.1-115.9 4.7-4.3 1.3-11.5-5.4-11.5-12.3 0-52.3 0-64.6.1-6.7 0-10.1-7.2-5.4-11.5l143.4-130.1c.133-.133.233-.267.3-.4l-93.8-1.3c0 .133-.067.267-.2.4l-143.4 130c-4.8 4.3-1.3 11.6 5.4 11.5 12.3 0 28.6-.1 40.8-.1 6.8 0 10.1 7.3 5.4 11.5-28.8 26-99.3 89.8-128.1 116l117.5 1.3Z" class="&lt;Path&gt;"/>
              <path fill="#F69227" d="M-64.55 276.97c34.9-31.8 211.3-200.4 246.3-231.9 5.7-5.2 1.6-14-6.5-14-14.9 0-34.7.1-49.7.1-8.1 0-12.3-8.7-6.5-13.9l144.3-130.5c.2-.133.3-.3.3-.5l-113.9-1.7c0 .2-.067.4-.2.6l-174.2 157.9c-5.8 5.2-1.6 14 6.5 14 15-.1 37.7-.1 52.6-.1 8.2 0 12.3 8.7 6.6 13.9-35 31.6-123.7 109-158.6 140.8l53 65.3Zm739.2-489.5-32.9-88.8c0 .3-149.3 151.7-149.5 152l-359.1 323.4c-10.1 9.2-2.8 24.7 11.6 24.7 26.5-.1 25.8-.2 52.2-.2 14.4 0 21.7 15.5 11.5 24.6-60.1 54.3-244.6 220.4-244.6 220.4-4.7 4.2-1.3 11.5 5.4 11.4 12.3 0 61.2.2 73.5.2 6.7 0 9.6 6.7 5.4 11.5-9.7 11.2-134.1 123.9-134.1 123.9l74.7 26c9.8-8.9 16.1 15.9 35.2-.6l68.2-63.5c61.8-56.3 333.4-314.6 395.3-370.4 10.1-9.2-17.9-24.7-32.4-24.7-26.3 0-88 .1-114.5.2-14.4.1-21.7-15.5-11.6-24.6l369.9-334.6c.2-.2 90.2-43.2-24.2-10.9Z" class="&lt;Path&gt;"/>
              <path fill="#DB7F27" d="M218.15 563.97c45.6-41.6 142.7-142.7 188.4-184 7.5-6.7 2.2-18.2-8.5-18.2-19.5 0-45.3.1-64.9.1-10.6.1-1.2-11.4 6.3-18.2l227.7-212.4c.2-.2.3 5.6.3 5.3l-87.1-57c0 .3-335.7 301.2-335.7 301.2-7.4 6.8-2 18.3 8.6 18.3 19.6-.1 45.4-.2 64.9-.2 10.6 0 16 11.5 8.5 18.2-14.1 12.8-34.6 31.3-57.4 51.9-7.9 7.1-16 14.5-24.3 21.9-45.5 41.2-203.8 193.5-203.8 193.5l142.1.7 134.9-121.1Z" class="&lt;Path&gt;"/>
              <g class="&lt;Group&gt;">
                <g class="&lt;Group&gt;" opacity=".1" style="mix-blend-mode:multiply">
                  <path fill="#FAB76B" d="m407.85 272.07-.1-.1c-1.1-.3-2-.6-2.9-.7.9.2 1.9.4 3 .8Zm-6.2-1.4c-.1 0-.1.1-.1.1.4.3 1.6 1.1 3.3 2-1.8-1-3-1.9-3.2-2v-.1Zm2.5-3.4s.2.4.7 1c-.4-.5-.6-.9-.7-1Z" class="&lt;Path&gt;"/>
                </g>
                <g class="&lt;Group&gt;" opacity=".2">
                  <path fill="#FDFDFD" d="M406.95 269.67h-.1v-.1h.1c.067.067.067.1 0 .1Z" class="&lt;Path&gt;"/>
                </g>
                <g class="&lt;Group&gt;" opacity=".2">
                  <path fill="#FDFDFD" d="m406.25 269.17-.5-.4v-.1h.1l.5.4v.1h-.1Z" class="&lt;Path&gt;"/>
                </g>
              </g>
            </g>
          </g>
        </g>
      </g>
      <g class="decorados">
        <path fill="#FDFDFD" d="M138.75 238.47c0 .9-.8 1.6-1.7 1.6-.9 0-1.7-.7-1.7-1.6 0-1 .8-1.7 1.7-1.7.9 0 1.7.7 1.7 1.7Z" class="&lt;Path&gt;"/>
        <path fill="#FAB76B" d="M222.85 145.87c0 .7-.5 1.3-1.2 1.3s-1.2-.6-1.2-1.3c0-.6.5-1.2 1.2-1.2s1.2.6 1.2 1.2Z" class="&lt;Path&gt;"/>
        <path stroke="#FDFDFD" stroke-linecap="round" stroke-width="5.6" d="m384.05 119.97 64.3-61" class="&lt;Path&gt;" opacity=".2"/>
        <path stroke="#FDFDFD" stroke-linecap="round" stroke-width="4.8" d="m206.95 32.47 92.4-89" class="&lt;Path&gt;" opacity=".2"/>
        <path stroke="#FDFDFD" stroke-linecap="round" stroke-width="8.3" d="m377.95 266.17 112.6-105.2" class="&lt;Path&gt;" opacity=".2"/>
        <path stroke="#FDFDFD" stroke-linecap="round" stroke-width="2.9" d="m369.55 33.07 38.6-35.5" class="&lt;Path&gt;" opacity=".2"/>
        <g class="&lt;Group&gt;">
          <path fill="#FAB76B" d="M414.05 22.07c-.3-.9.3-1.8 1.1-2 .9-.2 1.8.3 2.1 1.2.2.9-.3 1.8-1.2 2-.9.2-1.8-.3-2-1.2Z" class="&lt;Path&gt;"/>
        </g>
        <g class="&lt;Group&gt;">
          <path fill="#FAB76B" d="M381.35 140.77c-.3-.9.2-1.8 1.1-2 .9-.3 1.8.3 2.1 1.2.2.8-.3 1.7-1.2 2-.9.2-1.8-.3-2-1.2Z" class="&lt;Path&gt;"/>
        </g>
        <g class="&lt;Group&gt;">
          <path fill="#F69227" d="M405.75 219.07c-.2-.6.1-1.1.7-1.3.5-.1 1.1.2 1.3.8.1.5-.2 1.1-.8 1.2-.5.2-1.1-.1-1.2-.7Z" class="&lt;Path&gt;"/>
        </g>
        <g class="&lt;Group&gt;">
          <path fill="#F69227" d="M217.85 299.17c-.2-.7.2-1.4 1-1.6.7-.2 1.4.2 1.6.9.2.8-.2 1.5-.9 1.7-.8.2-1.5-.2-1.7-1Z" class="&lt;Path&gt;"/>
        </g>
        <g class="&lt;Group&gt;">
          <path fill="#F69227" d="M359.65 529.67c-.2-.7.2-1.4.9-1.6.8-.2 1.5.2 1.7.9.2.8-.2 1.5-1 1.7-.7.2-1.4-.2-1.6-1Z" class="&lt;Path&gt;"/>
        </g>
        <g class="&lt;Group&gt;">
          <path fill="#DB7F27" d="M368.65 446.37c-.3-1 .3-2 1.3-2.3 1-.3 2.1.3 2.3 1.3.3 1-.3 2.1-1.3 2.4-1 .2-2.1-.4-2.3-1.4Z" class="&lt;Path&gt;"/>
        </g>
        <path stroke="#FDFDFD" stroke-linecap="round" stroke-width="8.3" d="m-40.35 299.37 95.3-88.9m-73.2 377.1 101.6-94.9" class="&lt;Path&gt;" opacity=".2"/>
        <g class="&lt;Group&gt;">
          <g class="&lt;Group&gt;">
            <path fill="#FAB76B" d="M150.15 75.77a2.81 2.81 0 0 1-.1-3.9c1.1-1.1 2.9-1.1 4-.1 1.1 1.1 1.1 2.9 0 4s-2.8 1.1-3.9 0Z" class="&lt;Path&gt;"/>
            <path fill="#FAB76B" d="M150.15 75.77a2.81 2.81 0 0 1-.1-3.9c1.1-1.1 2.9-1.1 4-.1 1.1 1.1 1.1 2.9 0 4s-2.8 1.1-3.9 0Z" class="&lt;Path&gt;"/>
            <g class="&lt;Group&gt;" style="mix-blend-mode:multiply">
              <g class="&lt;Group&gt;">
                <path fill="#FDFDFD" d="M153.45 72.97c.6.7 1.1 1.4 1 2.2.6-1 .5-2.5-.4-3.4-1.1-1-2.9-1-3.9.1-.3.2-.5.6-.7.9 1-.9 2.8-.9 4 .2Z" class="&lt;Path&gt;"/>
              </g>
            </g>
          </g>
        </g>
        <path fill="#FAB76B" d="M138.75 238.47c0 .9-.8 1.6-1.7 1.6-.9 0-1.7-.7-1.7-1.6 0-1 .8-1.7 1.7-1.7.9 0 1.7.7 1.7 1.7Z" class="&lt;Path&gt;"/>
        <path fill="#F69227" d="M140.95 434.87c0 .9-.8 1.7-1.7 1.7-.9 0-1.6-.8-1.6-1.7 0-.9.7-1.7 1.6-1.7.9 0 1.7.8 1.7 1.7Z" class="&lt;Path&gt;"/>
        <path fill="#FAB76B" d="M53.15 283.07c0 .9-.8 1.7-1.7 1.7-.9 0-1.7-.8-1.7-1.7 0-.9.8-1.6 1.7-1.6.9 0 1.7.7 1.7 1.6Zm153.1 286.1c0 .9-.8 1.7-1.7 1.7-.9 0-1.7-.8-1.7-1.7 0-.9.8-1.7 1.7-1.7.9 0 1.7.8 1.7 1.7Zm178.1 18.6c0 .9-.7 1.6-1.6 1.6-1 0-1.7-.7-1.7-1.6 0-1 .7-1.7 1.7-1.7.9 0 1.6.7 1.6 1.7Z" class="&lt;Path&gt;"/>
        <path fill="#F69227" d="M387.15 223.97c0 .8-.7 1.5-1.5 1.5s-1.5-.7-1.5-1.5.7-1.5 1.5-1.5 1.5.7 1.5 1.5Z" class="&lt;Path&gt;"/>
        <path fill="#FAB76B" d="M307.95 227.77c0 .9-.8 1.7-1.7 1.7-.9 0-1.7-.8-1.7-1.7 0-.9.8-1.7 1.7-1.7.9 0 1.7.8 1.7 1.7Z" class="&lt;Path&gt;"/>
        <path fill="#F69227" d="M71.95 102.37c0 1-.8 1.8-1.8 1.8s-1.8-.8-1.8-1.8.8-1.8 1.8-1.8 1.8.8 1.8 1.8Zm-56.8 236c0 1-.8 1.8-1.8 1.8-.9 0-1.7-.8-1.7-1.8s.8-1.8 1.7-1.8c1 0 1.8.8 1.8 1.8Zm157.6 152.2c0 1-.8 1.8-1.8 1.8s-1.8-.8-1.8-1.8.8-1.8 1.8-1.8 1.8.8 1.8 1.8Zm195.3-406.8c0 .7-.5 1.2-1.2 1.2-.6 0-1.2-.5-1.2-1.2s.6-1.2 1.2-1.2c.7 0 1.2.5 1.2 1.2Zm-218.3-63.1c0 .7-.5 1.2-1.2 1.2-.6 0-1.2-.5-1.2-1.2 0-.6.6-1.2 1.2-1.2.7 0 1.2.6 1.2 1.2Zm-96.5 11.5c0 .7-.5 1.2-1.2 1.2s-1.2-.5-1.2-1.2.5-1.2 1.2-1.2 1.2.5 1.2 1.2Zm39.3 139.5c0 .7-.6 1.2-1.3 1.2-.6 0-1.2-.5-1.2-1.2s.6-1.2 1.2-1.2c.7 0 1.3.5 1.3 1.2Z" class="&lt;Path&gt;"/>
        <path fill="#DB7F27" d="M98.95 507.27c0 .6-.5 1.2-1.2 1.2s-1.2-.6-1.2-1.2c0-.7.5-1.3 1.2-1.3s1.2.6 1.2 1.3Z" class="&lt;Path&gt;"/>
        <path stroke="#FDFDFD" stroke-linecap="round" stroke-width="1.1" d="m28.25 21.17 30.3-29.6m-63.4 189.1 28.9-25.8" class="&lt;Path&gt;" opacity=".2"/>
        <path stroke="#FDFDFD" stroke-linecap="round" stroke-width=".9" d="m372.25 15.87 19.8-16.8" class="&lt;Path&gt;" opacity=".2"/>
        <path stroke="#FDFDFD" stroke-linecap="round" stroke-width="1.5" d="m160.35 317.27 50-44.5" class="&lt;Path&gt;" opacity=".2"/>
        <path stroke="#FDFDFD" stroke-linecap="round" stroke-width="1.8" d="m419.05 311.27 49.9-44m-491.1 124.3 43.8-39.2m363.7 176.6 76.7-65.8" class="&lt;Path&gt;" opacity=".2"/>
        <path stroke="#FDFDFD" stroke-linecap="round" stroke-width="1.2" d="m210.35 404.27 33.9-29.1" class="&lt;Path&gt;" opacity=".2"/>
        <path stroke="#FDFDFD" stroke-linecap="round" stroke-width="1.1" d="m41.75 491.07 29.3-28.3" class="&lt;Path&gt;" opacity=".2"/>
        <path stroke="#FDFDFD" stroke-linecap="round" stroke-width="5.7" d="m64.45 51.97 92.4-89" class="&lt;Path&gt;" opacity=".2"/>
        <path stroke="#FDFDFD" stroke-linecap="round" stroke-width="1.1" d="m417.05 210.77 22-18" class="&lt;Path&gt;" opacity=".2"/>
        <path stroke="#FDFDFD" stroke-linecap="round" stroke-width="5.7" d="m399.25 587.77 89.5-89" class="&lt;Path&gt;" opacity=".2"/>
        <path stroke="#FDFDFD" stroke-linecap="round" stroke-width="7" d="m120.75 581.47 94.9-93.4" class="&lt;Path&gt;" opacity=".2"/>
      </g>
    </g>
    <g class="decorado" clip-path="url(#d)">
      <g class="&lt;Group&gt;">
        <path fill="#DD4297" d="M330.451 3.2c-.2-.7.3-1.5 1-1.7.7-.2 1.5.2 1.7 1 .2.7-.3 1.5-1 1.7-.7.1-1.5-.3-1.7-1Z" class="&lt;Path&gt;"/>
      </g>
      <g class="&lt;Group&gt;">
        <g class="&lt;Group&gt;">
          <g class="&lt;Group&gt;">
            <g class="&lt;Group&gt;" opacity=".4">
              <path fill="#050505" d="M25.951 506.1s.7.7 1.4.1c0 0 .1.6.9.8.8.1.9-.4.9-.4s0 .6.4.8c0 0 0 .4-.3 1.5s-.8 1.2-.8 1.2 1 .4 1 1.1l.4-.3 1.4-5-5.1-1.5-.2 1.7Z" class="&lt;Path&gt;" opacity=".2" style="mix-blend-mode:multiply"/>
            </g>
          </g>
        </g>
        <g class="&lt;Group&gt;">
          <g class="&lt;Group&gt;">
            <g class="&lt;Group&gt;" opacity=".4">
              <g class="&lt;Group&gt;" opacity=".2" style="mix-blend-mode:multiply">
                <g class="&lt;Group&gt;">
                  <path fill="#050505" d="M54.951 497.3s.2 1-.7 1.3c0 0 .6.4.3 1.2-.2.8-.8.6-.8.6s.6.3.6.7c0 0 .3.2 1.4.5 1.1.3 1.5-.1 1.5-.1s-.1 1 .4 1.3l-.4.3-5-1.2 1.1-5.2 1.6.6Z" class="&lt;Path&gt;"/>
                </g>
              </g>
            </g>
          </g>
        </g>
      </g>
      <g class="&lt;Group&gt;">
        <path fill="#DD4297" d="M348.151 177.1c-.2-.7.2-1.4 1-1.6.7-.2 1.5.2 1.7.9.2.8-.3 1.5-1 1.7-.7.2-1.5-.2-1.7-1Z" class="&lt;Path&gt;"/>
      </g>
      <g class="&lt;Group&gt;">
        <path fill="#DD4297" d="M130.051 127.8c-.2-.8.2-1.5.9-1.7.8-.2 1.5.2 1.7 1 .2.7-.2 1.4-1 1.6-.7.2-1.4-.2-1.6-.9Z" class="&lt;Path&gt;"/>
      </g>
      <g class="&lt;Group&gt;">
        <path fill="#DD4297" d="m432.251 9.7-13 19.5-8.2-7.6 21.2-11.9Z" class="&lt;Path&gt;"/>
        <path fill="#9F509E" d="m419.251 29.2-2.3-6.4-5.9-1.2 8.2 7.6Z" class="&lt;Path&gt;"/>
        <path fill="#E595BF" d="m432.251 9.7-15.3 13.1-5.9-1.2 21.2-11.9Z" class="&lt;Path&gt;"/>
      </g>
      <g class="&lt;Group&gt;">
        <g class="&lt;Group&gt;">
          <path fill="#74C3AE" d="M146.751 153.5c-1.4-1.3-1.4-3.5-.1-4.8 1.4-1.4 3.6-1.4 4.9-.1 1.4 1.3 1.4 3.5.1 4.9-1.4 1.3-3.5 1.4-4.9 0Z" class="&lt;Path&gt;"/>
          <path fill="#6ECFF5" d="M146.751 153.5c-1.4-1.3-1.4-3.5-.1-4.8 1.4-1.4 3.6-1.4 4.9-.1 1.4 1.3 1.4 3.5.1 4.9-1.4 1.3-3.5 1.4-4.9 0Z" class="&lt;Path&gt;"/>
          <g class="&lt;Group&gt;" style="mix-blend-mode:multiply">
            <g class="&lt;Group&gt;">
              <path fill="#CACAC9" d="M150.751 150.1c.9.8 1.5 1.6 1.4 2.7.7-1.3.6-3.1-.5-4.2-1.4-1.3-3.6-1.3-4.9 0-.3.3-.6.9-.8 1.2 1.2-1.1 3.4-1.1 4.8.3Z" class="&lt;Path&gt;"/>
            </g>
          </g>
        </g>
      </g>
      <g class="&lt;Group&gt;">
        <path fill="#7AC057" d="M54.314 420.362c-2.2-2.1-2.2-5.599-.1-7.699 2.1-2.2 5.6-2.2 7.7-.1 2.2 2.1 2.2 5.599.1 7.699-2.1 2.2-5.6 2.2-7.7.1Z" class="&lt;Path&gt;"/>
        <path fill="#7AC057" d="M54.314 420.362c-2.2-2.1-2.2-5.599-.1-7.699 2.1-2.2 5.6-2.2 7.7-.1 2.2 2.1 2.2 5.599.1 7.699-2.1 2.2-5.6 2.2-7.7.1Z" class="&lt;Path&gt;"/>
        <g class="&lt;Group&gt;" style="mix-blend-mode:multiply">
          <g class="&lt;Group&gt;">
            <path fill="#7AC057" d="M60.714 414.862c1.3 1.3 2.4 2.6 2.2 4.4 1.1-2.1.9-4.999-.9-6.699-2.2-2.1-5.6-2.1-7.7.1-.5.4-1 1.3-1.3 1.8 1.9-1.7 5.5-1.801 7.7.399Z" class="&lt;Path&gt;"/>
          </g>
        </g>
      </g>
      <g class="&lt;Group&gt;">
        <path fill="#7AC057" d="M282.119 369.433c-2.61 1.562-5.983.631-7.449-1.952-1.562-2.609-.631-5.983 1.951-7.449 2.61-1.562 5.984-.631 7.449 1.952 1.563 2.609.632 5.983-1.951 7.449Z" class="&lt;Path&gt;"/>
        <path fill="#7AC057" d="M282.119 369.433c-2.61 1.562-5.983.631-7.449-1.952-1.562-2.609-.631-5.983 1.951-7.449 2.61-1.562 5.984-.631 7.449 1.952 1.563 2.609.632 5.983-1.951 7.449Z" class="&lt;Path&gt;"/>
        <g class="&lt;Group&gt;" style="mix-blend-mode:multiply">
          <g class="&lt;Group&gt;">
            <path fill="#7AC057" d="M278.519 361.801c1.599-.908 3.145-1.622 4.827-.951-1.732-1.619-4.58-2.197-6.698-.914-2.609 1.562-3.514 4.84-1.952 7.449.253.588.987 1.31 1.39 1.732-1.134-2.284-.273-5.781 2.433-7.316Z" class="&lt;Path&gt;"/>
          </g>
        </g>
      </g>
      <g class="&lt;Group&gt;">
        <path fill="#7AC057" d="M372.151 226.1c-1.6-1.6-1.6-4.1-.1-5.7 1.6-1.6 4.1-1.6 5.7-.1 1.6 1.6 1.7 4.2.1 5.7-1.6 1.6-4.1 1.7-5.7.1Z" class="&lt;Path&gt;"/>
        <g class="&lt;Group&gt;" style="mix-blend-mode:multiply">
          <g class="&lt;Group&gt;">
            <path fill="#7AC057" d="M376.851 222c1 1 1.8 2 1.6 3.2.9-1.5.7-3.6-.6-4.9-1.6-1.6-4.2-1.5-5.7.1-.4.3-.8.9-.9 1.4 1.4-1.4 4-1.4 5.6.2Z" class="&lt;Path&gt;"/>
          </g>
        </g>
      </g>
      <g class="&lt;Group&gt;">
        <path fill="#7AC057" d="M11.651 545.3c-1.6-1.6-1.7-4.1-.1-5.7 1.6-1.6 4.1-1.6 5.7-.1 1.6 1.6 1.7 4.2.1 5.8-1.6 1.6-4.1 1.6-5.7 0Z" class="&lt;Path&gt;"/>
        <path fill="#7AC057" d="M11.651 545.3c-1.6-1.6-1.7-4.1-.1-5.7 1.6-1.6 4.1-1.6 5.7-.1 1.6 1.6 1.7 4.2.1 5.8-1.6 1.6-4.1 1.6-5.7 0Z" class="&lt;Path&gt;"/>
        <g class="&lt;Group&gt;" style="mix-blend-mode:multiply">
          <g class="&lt;Group&gt;">
            <path fill="#7AC057" d="M16.351 541.2c1 1 1.8 2 1.6 3.3.8-1.6.7-3.7-.6-5-1.6-1.6-4.2-1.5-5.8.1-.3.3-.7.9-.9 1.4 1.4-1.3 4.1-1.4 5.7.2Z" class="&lt;Path&gt;"/>
          </g>
        </g>
      </g>
      <g class="&lt;Group&gt;">
        <path fill="#7AC057" d="M391.207 443.791c-1.967 1.117-4.404.548-5.521-1.42a4.077 4.077 0 0 1 1.42-5.521c1.968-1.117 4.501-.522 5.618 1.446 1.116 1.968.451 4.378-1.517 5.495Z" class="&lt;Path&gt;"/>
        <path fill="#7AC057" d="M391.207 443.791c-1.967 1.117-4.404.548-5.521-1.42a4.077 4.077 0 0 1 1.42-5.521c1.968-1.117 4.501-.522 5.618 1.446 1.116 1.968.451 4.378-1.517 5.495Z" class="&lt;Path&gt;"/>
        <g class="&lt;Group&gt;" style="mix-blend-mode:multiply">
          <g class="&lt;Group&gt;">
            <path fill="#7AC057" d="M388.506 438.17c1.229-.698 2.406-1.204 3.606-.665-1.33-1.197-3.38-1.659-4.979-.752-1.968 1.117-2.563 3.65-1.447 5.618.21.369.682.914 1.11 1.24-.88-1.695-.258-4.325 1.71-5.441Z" class="&lt;Path&gt;"/>
          </g>
        </g>
      </g>
      <g class="&lt;Group&gt;">
        <path fill="#7AC057" d="M378.151 514.6c-1.6-1.6-1.6-4.2 0-5.8 1.5-1.5 4.1-1.6 5.7 0 1.6 1.6 1.6 4.1.1 5.7-1.6 1.6-4.2 1.6-5.8.1Z" class="&lt;Path&gt;"/>
        <path fill="#7AC057" d="M378.151 514.6c-1.6-1.6-1.6-4.2 0-5.8 1.5-1.5 4.1-1.6 5.7 0 1.6 1.6 1.6 4.1.1 5.7-1.6 1.6-4.2 1.6-5.8.1Z" class="&lt;Path&gt;"/>
        <g class="&lt;Group&gt;" style="mix-blend-mode:multiply">
          <g class="&lt;Group&gt;">
            <path fill="#7AC057" d="M382.951 510.5c1 1 1.7 1.9 1.6 3.2.8-1.5.7-3.6-.7-4.9-1.6-1.6-4.1-1.6-5.7 0-.3.4-.7 1-.9 1.4 1.4-1.3 4-1.3 5.7.3Z" class="&lt;Path&gt;"/>
          </g>
        </g>
      </g>
      <g class="&lt;Group&gt;">
        <path fill="#DD4297" d="M348.151 177.1c-.2-.7.2-1.4 1-1.6.7-.2 1.5.2 1.7.9.2.8-.3 1.5-1 1.7-.7.2-1.5-.2-1.7-1Z" class="&lt;Path&gt;"/>
      </g>
      <g class="&lt;Group&gt;">
        <path fill="#DD4297" d="M130.051 127.8c-.2-.8.2-1.5.9-1.7.8-.2 1.5.2 1.7 1 .2.7-.2 1.4-1 1.6-.7.2-1.4-.2-1.6-.9Z" class="&lt;Path&gt;"/>
      </g>
      <g class="&lt;Group&gt;">
        <path fill="#DD4297" d="M330.451 3.2c-.2-.7.3-1.5 1-1.7.7-.2 1.5.2 1.7 1 .2.7-.3 1.5-1 1.7-.7.1-1.5-.3-1.7-1Z" class="&lt;Path&gt;"/>
      </g>
      <g class="&lt;Group&gt;">
        <g class="&lt;Group&gt;">
          <path fill="#74C3AE" d="M248.051 244.9c-.9-.9-.9-2.4 0-3.4.9-.9 2.4-.9 3.3 0 .9.9 1 2.4 0 3.3-.9 1-2.4 1-3.3.1Z" class="&lt;Path&gt;"/>
          <path fill="#6ECFF5" d="M248.051 244.9c-.9-.9-.9-2.4 0-3.4.9-.9 2.4-.9 3.3 0 .9.9 1 2.4 0 3.3-.9 1-2.4 1-3.3.1Z" class="&lt;Path&gt;"/>
          <g class="&lt;Group&gt;" style="mix-blend-mode:multiply">
            <g class="&lt;Group&gt;">
              <path fill="#CACAC9" d="M250.851 242.5c.6.6 1 1.1.9 1.9.5-.9.4-2.2-.4-2.9-.9-.9-2.4-.9-3.3 0-.2.2-.4.6-.5.8.8-.7 2.3-.8 3.3.2Z" class="&lt;Path&gt;"/>
            </g>
          </g>
        </g>
      </g>
      <g class="&lt;Group&gt;">
        <path fill="#74C3AE" d="M175.714 402.279c-.957 2.51-3.746 3.868-6.348 2.952-2.51-.958-3.818-3.878-2.86-6.389.957-2.511 3.745-3.869 6.256-2.911 2.511.957 3.91 3.837 2.952 6.348Z" class="&lt;Path&gt;"/>
        <path fill="#52B5D6" d="M175.714 402.279c-.957 2.51-3.746 3.868-6.348 2.952-2.51-.958-3.818-3.878-2.86-6.389.957-2.511 3.745-3.869 6.256-2.911 2.511.957 3.91 3.837 2.952 6.348Z" class="&lt;Path&gt;"/>
        <g class="&lt;Group&gt;" style="mix-blend-mode:multiply">
          <g class="&lt;Group&gt;">
            <path fill="#CACAC9" d="M168.78 399.029c.605-1.586 1.332-2.898 2.783-3.328-2.052-.177-4.343 1.068-5.149 3.182-.958 2.511.401 5.299 2.911 6.257.529.201 1.463.331 2.001.309-2.155-.898-3.554-3.778-2.546-6.42Z" class="&lt;Path&gt;"/>
          </g>
        </g>
      </g>
      <g class="&lt;Group&gt;">
        <path fill="#DD4297" d="M127.751 135.2c-.1-.8.3-1.5 1-1.7.7-.2 1.5.2 1.7.9.2.8-.2 1.5-1 1.7-.7.2-1.5-.2-1.7-.9Z" class="&lt;Path&gt;"/>
      </g>
      <g class="&lt;Group&gt;">
        <path fill="#74C3AE" d="M21.651 181.2c-1.9-1.9-2-5-.1-7 1.9-1.9 5-1.9 7 0 1.9 1.9 2 5 .1 6.9-1.9 2-5.1 2-7 .1Z" class="&lt;Path&gt;"/>
        <path fill="#52B5D6" d="M21.651 181.2c-1.9-1.9-2-5-.1-7 1.9-1.9 5-1.9 7 0 1.9 1.9 2 5 .1 6.9-1.9 2-5.1 2-7 .1Z" class="&lt;Path&gt;"/>
        <g class="&lt;Group&gt;" style="mix-blend-mode:multiply">
          <g class="&lt;Group&gt;">
            <path fill="#CACAC9" d="M27.451 176.2c1.2 1.2 2.1 2.4 1.9 3.9 1-1.8.8-4.4-.8-6-1.9-1.9-5-1.8-6.9.1-.4.4-.9 1.2-1.1 1.7 1.7-1.6 4.9-1.7 6.9.3Z" class="&lt;Path&gt;"/>
          </g>
        </g>
      </g>
      <g class="&lt;Group&gt;">
        <path fill="#74C3AE" d="M170.251 574.1c-1-1-1-2.6 0-3.6.9-.9 2.5-1 3.5 0s1 2.6 0 3.6c-.9.9-2.5 1-3.5 0Z" class="&lt;Path&gt;"/>
        <path fill="#52B5D6" d="M170.251 574.1c-1-1-1-2.6 0-3.6.9-.9 2.5-1 3.5 0s1 2.6 0 3.6c-.9.9-2.5 1-3.5 0Z" class="&lt;Path&gt;"/>
        <g class="&lt;Group&gt;" style="mix-blend-mode:multiply">
          <g class="&lt;Group&gt;">
            <path fill="#CACAC9" d="M173.251 571.6c.6.6 1 1.2.9 2 .5-1 .4-2.3-.4-3.1-1-1-2.5-1-3.5 0-.2.3-.5.6-.6.9.9-.8 2.5-.8 3.6.2Z" class="&lt;Path&gt;"/>
          </g>
        </g>
      </g>
      <g class="&lt;Group&gt;">
        <path fill="#74C3AE" d="M13.551 455.4c-1-.9-1-2.5-.1-3.5 1-1 2.6-1 3.6 0 1 .9 1 2.5 0 3.5-.9 1-2.5 1-3.5 0Z" class="&lt;Path&gt;"/>
        <path fill="#ED4A97" d="M13.551 455.4c-1-.9-1-2.5-.1-3.5 1-1 2.6-1 3.6 0 1 .9 1 2.5 0 3.5-.9 1-2.5 1-3.5 0Z" class="&lt;Path&gt;"/>
        <g class="&lt;Group&gt;" style="mix-blend-mode:multiply">
          <g class="&lt;Group&gt;">
            <path fill="#CACAC9" d="M16.451 452.9c.6.6 1.1 1.2 1 2 .5-.9.4-2.3-.4-3-1-1-2.6-1-3.5 0-.2.2-.5.6-.6.8.9-.8 2.5-.8 3.5.2Z" class="&lt;Path&gt;"/>
          </g>
        </g>
      </g>
      <g class="&lt;Group&gt;">
        <path fill="#F9A419" d="m419.051 207.8-9.2-6.9-8 18.7 17.2-11.8Z" class="&lt;Path&gt;"/>
        <path fill="#F26E21" d="m419.051 207.8-2.7 5.4-14.5 6.4 17.2-11.8Z" class="&lt;Path&gt;"/>
      </g>
      <g class="&lt;Group&gt;">
        <path fill="#F9A419" d="m314.851 295.9-9.2-6.9-8 18.7 17.2-11.8Z" class="&lt;Path&gt;"/>
        <path fill="#F26E21" d="m314.851 295.9-2.7 5.4-14.5 6.4 17.2-11.8Z" class="&lt;Path&gt;"/>
      </g>
      <g class="&lt;Group&gt;">
        <path fill="#F9A419" d="m47.651 284.6 7.9 8.3 11.2-16.9-19.1 8.6Z" class="&lt;Path&gt;"/>
        <path fill="#F26E21" d="m47.651 284.6 3.7-4.8 15.4-3.8-19.1 8.6Z" class="&lt;Path&gt;"/>
      </g>
      <g class="&lt;Group&gt;">
        <path fill="#F9A419" d="m80.651 512.6 7.9 8.3 11.2-16.9-19.1 8.6Z" class="&lt;Path&gt;"/>
        <path fill="#F26E21" d="m80.651 512.6 3.7-4.8 15.4-3.8-19.1 8.6Z" class="&lt;Path&gt;"/>
      </g>
      <g class="&lt;Group&gt;">
        <path fill="#FAA72C" d="m191.751 580.1 7.9 8.4 11.2-16.9-19.1 8.5Z" class="&lt;Path&gt;"/>
        <path fill="#F26E21" d="m191.751 580.1 3.7-4.8 15.4-3.7-19.1 8.5Z" class="&lt;Path&gt;"/>
      </g>
      <g class="&lt;Group&gt;">
        <path fill="#F9A419" d="m47 67.5 7.8 8.4L66 59l-19 8.5Z" class="&lt;Path&gt;"/>
        <path fill="#F26E21" d="m47 67.5 3.6-4.8L66 59l-19 8.5Z" class="&lt;Path&gt;"/>
      </g>
      <g class="&lt;Group&gt;">
        <path fill="#E64B93" d="m236.051 133.3 5.1-6.3-1.3-5.2-3.8 11.5Z" class="&lt;Path&gt;"/>
        <path fill="#E77892" d="m246.951 130.1-5.8-3.1-1.3-5.2 5.4 3 1.7 5.3Z" class="&lt;Path&gt;"/>
        <path fill="#C74391" d="m236.051 133.3 10.9-3.2-5.8-3.1-5.1 6.3Z" class="&lt;Path&gt;"/>
      </g>
      <g class="&lt;Group&gt;">
        <path fill="#E64B93" d="m176.651 296.7-5.7 5.7.8 5.3 4.9-11Z" class="&lt;Path&gt;"/>
        <path fill="#E77892" d="m165.451 298.7 5.5 3.7.8 5.3-5.1-3.6-1.2-5.4Z" class="&lt;Path&gt;"/>
        <path fill="#C74391" d="m176.651 296.7-11.2 2 5.5 3.7 5.7-5.7Z" class="&lt;Path&gt;"/>
      </g>
      <g class="&lt;Group&gt;">
        <path fill="#E64B93" d="m415.951 555.7-5.7 5.7.8 5.3 4.9-11Z" class="&lt;Path&gt;"/>
        <path fill="#E77892" d="m404.751 557.7 5.5 3.7.8 5.3-5.2-3.5-1.1-5.5Z" class="&lt;Path&gt;"/>
        <path fill="#C74391" d="m415.951 555.7-11.2 2 5.5 3.7 5.7-5.7Z" class="&lt;Path&gt;"/>
      </g>
      <g class="&lt;Group&gt;">
        <path fill="#E64B93" d="m214.95 446.55 7.836 1.89 4.105-3.446-11.941 1.556Z" class="&lt;Path&gt;"/>
        <path fill="#E77892" d="m222.498 455.063.288-6.622 4.105-3.447-.274 6.262-4.119 3.807Z" class="&lt;Path&gt;"/>
        <path fill="#C74391" d="m214.95 446.55 7.548 8.513.288-6.622-7.836-1.891Z" class="&lt;Path&gt;"/>
      </g>
      <g class="&lt;Group&gt;">
        <g class="&lt;Group&gt;">
          <path fill="#74C3AE" d="M32.391 1.688c.917-.883 2.417-.854 3.4.065a2.354 2.354 0 0 1-.064 3.3c-.917.882-2.418.953-3.3-.064a2.269 2.269 0 0 1-.036-3.301Z" class="&lt;Path&gt;"/>
          <path fill="#6ECFF5" d="M32.391 1.688c.917-.883 2.417-.854 3.4.065a2.354 2.354 0 0 1-.064 3.3c-.917.882-2.418.953-3.3-.064a2.269 2.269 0 0 1-.036-3.301Z" class="&lt;Path&gt;"/>
          <g class="&lt;Group&gt;" style="mix-blend-mode:multiply">
            <g class="&lt;Group&gt;">
              <path fill="#CACAC9" d="M34.737 4.533c-.611.588-1.119.979-1.917.863.89.518 2.192.443 2.907-.344a2.354 2.354 0 0 0 .063-3.3c-.196-.203-.592-.41-.79-.514.685.813.756 2.314-.263 3.295Z" class="&lt;Path&gt;"/>
            </g>
          </g>
        </g>
      </g>
      <g class="&lt;Group&gt;">
        <path fill="#F9FCFE" d="M141.8 234.3c-1.5 2.1.8 6.5 5.2 9.9 4.5 3.3 9.4 4.3 10.9 2.2 1.6-2.1-.7-6.5-5.2-9.8-4.4-3.4-9.3-4.4-10.9-2.3Z" class="&lt;Path&gt;" opacity=".1"/>
        <path fill="#F9FCFE" d="M148.2 241.1c.133-1.333.233-2.667.3-4l.2-2.6c.667.267 1.367.6 2.1 1-.1 2.3-.1 4.5-.2 6.7l-.2 3.8c-.8-.4-1.6-.867-2.4-1.4.1-1.2.2-2.4.2-3.5Z" class="&lt;Path&gt;" opacity=".1"/>
        <g class="&lt;Group&gt;">
          <path fill="#D99E28" d="M139.8 233c2.2-2.9 8.4-1.9 13.9 2.3 5.5 4.1 8.2 9.8 6.1 12.6-.6.8-2.8 3.2-3.3 3.9-2.1 2.8-8.1 1.8-13.5-2.3-5.4-4-8-9.5-5.9-12.3.5-.7 2.2-3.4 2.7-4.2Z" class="&lt;Compound Path&gt;"/>
          <path fill="#AA7F2C" d="M145.6 231.5c-.267.333-.5.667-.7 1-2.267 3.4-4.5 6.833-6.7 10.3-.2.267-.367.567-.5.9-1.5-2.5-1.8-4.9-.6-6.5.5-.7 2.2-3.4 2.7-4.2 1.1-1.5 3.2-1.9 5.8-1.5Zm7.4 14.3a525.553 525.553 0 0 0 5-6.3c2.5 3.2 3.3 6.5 1.8 8.4-.6.8-2.8 3.2-3.3 3.9-1.4 1.9-4.9 2-8.7.5 1.7-2.2 3.5-4.4 5.2-6.5Z" class="&lt;Path&gt;" opacity=".2"/>
          <path fill="#FCB84A" d="M142.1 233.7c-1.6 2.1.8 6.6 5.3 10 4.5 3.3 9.5 4.4 11.1 2.2 1.6-2.1-.8-6.6-5.3-9.9-4.5-3.4-9.5-4.4-11.1-2.3Z" class="&lt;Path&gt;"/>
          <path fill="#F1B142" d="m152.5 243.1 3.9-4.2c2.3 2.7 3.2 5.5 2.1 7-1.3 1.7-4.6 1.4-8.2-.4l2.2-2.4Zm-4.4-9.9c-1.3 2.4-2.7 4.8-4.1 7.2-2.2-2.6-3-5.2-1.9-6.7 1-1.3 3.3-1.4 6-.5Z" class="&lt;Path&gt;" opacity=".3"/>
          <path fill="#757578" d="M141.2 235.4c-1.6 2.1.6 6.6 5 9.9 4.4 3.2 9.3 4.2 10.9 2 1.6-2.2-.6-6.6-5-9.9-4.4-3.3-9.3-4.2-10.9-2Z" class="&lt;Path&gt;" opacity=".2"/>
          <path fill="#BDD4EB" d="M141.6 235.8c-1.6 2 .6 6.2 4.7 9.3 4.2 3.1 8.8 4 10.3 2 1.5-2.1-.6-6.3-4.7-9.4-4.2-3.1-8.8-4-10.3-1.9Z" class="&lt;Path&gt;"/>
          <g class="&lt;Group&gt;">
            <path fill="#8489AB" d="m148.4 237.3.5.2-.1-.9-.5-.2.1.9Zm1.1 9.2.4.2-.1-.9-.4-.2.1.9Zm5.9-2v.3l1.4.7-.1-.3-1.3-.7Zm-13.9-6.9v.3l1.4.6-.1-.2-1.3-.7Z" class="&lt;Path&gt;"/>
          </g>
          <g class="&lt;Group&gt;">
            <g class="&lt;Group&gt;">
              <path fill="#5E68AC" d="m154 242.1-5.1-.3-.2-.4 5.4.6-.1.1Z" class="&lt;Path&gt;"/>
              <path fill="#A191C4" d="m154.1 242-5.1-.3-.2-.5 5.1.4.2.4Z" class="&lt;Path&gt;"/>
            </g>
            <g class="&lt;Group&gt;">
              <path fill="#5E68AC" d="m142.5 236 .1-.1 6.6 5.3-.1.1h-.5l-6.1-5.3Z" class="&lt;Path&gt;"/>
              <path fill="#A191C4" d="m142.6 235.9.3-.1 6.3 5.4h-.5l-6.1-5.3Z" class="&lt;Path&gt;"/>
            </g>
            <g class="&lt;Group&gt;">
              <path fill="#6D6E74" d="M148.7 240.9c.1-.1.5-.1.8.2.3.2.4.5.3.7 0 0-.2.2-.2.3-.2.1-.5.1-.8-.1-.3-.3-.5-.6-.4-.7.1-.1.3-.3.3-.4Z" class="&lt;Path&gt;"/>
              <path fill="#88888C" d="M148.7 240.9c-.1.2 0 .5.4.7.3.2.6.3.7.2.1-.2 0-.5-.3-.7-.3-.3-.7-.3-.8-.2Z" class="&lt;Path&gt;"/>
            </g>
          </g>
          <path fill="#F9FCFE" d="M153.8 247.1a191.996 191.996 0 0 0-.3-6.3 66.15 66.15 0 0 0-.3-3.6c3.9 3.1 5.8 7 4.4 8.9-.7 1-2.1 1.3-3.8 1Zm-8.6-13.5c-.5 2.4-.9 4.9-1.2 7.4-2.1-2.5-2.9-5-1.8-6.4.6-.8 1.6-1.1 3-1Z" class="&lt;Path&gt;" opacity=".1"/>
          <path fill="#F3EB18" fill-rule="evenodd" d="M139.8 233c-2.1 2.8.6 8.5 6.1 12.6 5.6 4.2 11.8 5.2 13.9 2.3 2.1-2.8-.6-8.5-6.1-12.6-5.5-4.2-11.7-5.2-13.9-2.3Zm2.3.7c1.6-2.1 6.6-1.1 11.1 2.3 4.5 3.3 6.9 7.8 5.3 9.9-1.6 2.2-6.6 1.1-11.1-2.2-4.5-3.4-6.9-7.9-5.3-10Z" class="&lt;Compound Path&gt;" clip-rule="evenodd"/>
        </g>
        <g class="&lt;Group&gt;">
          <path fill="#D99E28" d="M139.973 233.187c2.156-2.842 8.232-1.862 13.622 2.254 5.39 4.018 8.036 9.604 5.978 12.348-.588.784-2.744 3.136-3.234 3.822-2.058 2.744-7.938 1.764-13.23-2.254-5.292-3.92-7.84-9.31-5.782-12.054.49-.686 2.156-3.332 2.646-4.116Z" class="&lt;Compound Path&gt;"/>
          <path fill="#AA7F2C" d="M145.657 231.717c-.261.327-.49.653-.686.98a537.478 537.478 0 0 0-6.566 10.094 3.854 3.854 0 0 0-.49.882c-1.47-2.45-1.764-4.802-.588-6.37.49-.686 2.156-3.332 2.646-4.116 1.078-1.47 3.136-1.862 5.684-1.47Zm7.252 14.014a495.286 495.286 0 0 0 4.9-6.174c2.45 3.136 3.234 6.37 1.764 8.232-.588.784-2.744 3.136-3.234 3.822-1.372 1.862-4.802 1.96-8.526.49 1.666-2.156 3.43-4.312 5.096-6.37Z" class="&lt;Path&gt;" opacity=".2"/>
          <path fill="#FCB84A" d="M142.227 233.873c-1.568 2.058.784 6.468 5.194 9.8 4.41 3.234 9.31 4.312 10.878 2.156 1.568-2.058-.784-6.467-5.194-9.701-4.41-3.332-9.31-4.313-10.878-2.255Z" class="&lt;Path&gt;"/>
          <path fill="#F1B142" d="m152.419 243.085 3.822-4.116c2.254 2.646 3.136 5.39 2.058 6.86-1.274 1.666-4.508 1.372-8.036-.392l2.156-2.352Zm-4.312-9.702c-1.274 2.352-2.646 4.704-4.018 7.056-2.156-2.548-2.94-5.096-1.862-6.566.98-1.274 3.234-1.372 5.88-.49Z" class="&lt;Path&gt;" opacity=".3"/>
          <path fill="#757578" d="M141.345 235.539c-1.568 2.058.588 6.468 4.9 9.702 4.312 3.136 9.114 4.116 10.682 1.96 1.568-2.156-.588-6.468-4.9-9.702s-9.114-4.116-10.682-1.96Z" class="&lt;Path&gt;" opacity=".2"/>
          <path fill="#BDD4EB" d="M141.737 235.931c-1.568 1.96.588 6.076 4.606 9.114 4.116 3.038 8.624 3.92 10.094 1.96 1.47-2.058-.588-6.174-4.606-9.212-4.116-3.038-8.624-3.92-10.094-1.862Z" class="&lt;Path&gt;"/>
          <g class="&lt;Group&gt;">
            <path fill="#8489AB" d="m148.401 237.401.49.196-.098-.882-.49-.196.098.882Zm1.078 9.016.392.196-.098-.882-.392-.196.098.882Zm5.782-1.96v.294l1.372.686-.098-.294-1.274-.686Zm-13.622-6.762v.294l1.372.588-.098-.196-1.274-.686Z" class="&lt;Path&gt;"/>
          </g>
          <g class="&lt;Group&gt;">
            <g class="&lt;Group&gt;">
              <path fill="#5E68AC" d="m153.889 242.105-4.998-.294-.196-.393 5.292.589-.098.098Z" class="&lt;Path&gt;"/>
              <path fill="#A191C4" d="m153.987 242.007-4.998-.294-.196-.49 4.998.392.196.392Z" class="&lt;Path&gt;"/>
            </g>
            <g class="&lt;Group&gt;">
              <path fill="#5E68AC" d="m142.619 236.127.098-.098 6.468 5.194-.098.098h-.49l-5.978-5.194Z" class="&lt;Path&gt;"/>
              <path fill="#A191C4" d="m142.717 236.029.294-.098 6.174 5.292h-.49l-5.978-5.194Z" class="&lt;Path&gt;"/>
            </g>
            <g class="&lt;Group&gt;">
              <path fill="#6D6E74" d="M148.695 240.928c.098-.098.49-.097.784.197.294.196.392.49.294.686 0 0-.196.196-.196.294-.196.098-.49.098-.784-.098-.294-.294-.49-.588-.392-.686.098-.098.294-.295.294-.393Z" class="&lt;Path&gt;"/>
              <path fill="#88888C" d="M148.695 240.928c-.098.196 0 .491.392.687.294.196.588.294.686.196.098-.196 0-.49-.294-.686-.294-.294-.686-.295-.784-.197Z" class="&lt;Path&gt;"/>
            </g>
          </g>
          <path fill="#F9FCFE" d="M153.693 247.006a184.582 184.582 0 0 0-.294-6.175 63.53 63.53 0 0 0-.294-3.528c3.822 3.038 5.684 6.86 4.312 8.723-.686.98-2.058 1.274-3.724.98Zm-8.428-13.231a86.053 86.053 0 0 0-1.176 7.252c-2.058-2.45-2.842-4.9-1.764-6.272.588-.784 1.568-1.078 2.94-.98Z" class="&lt;Path&gt;" opacity=".1"/>
          <path fill="#F3EB18" fill-rule="evenodd" d="M139.973 233.187c-2.058 2.744.588 8.33 5.978 12.348 5.488 4.116 11.564 5.096 13.622 2.254 2.058-2.744-.588-8.33-5.978-12.348-5.39-4.116-11.466-5.096-13.622-2.254Zm2.254.686c1.568-2.058 6.468-1.078 10.878 2.254 4.41 3.234 6.762 7.644 5.194 9.702-1.568 2.156-6.468 1.078-10.878-2.156-4.41-3.332-6.762-7.742-5.194-9.8Z" class="&lt;Compound Path&gt;" clip-rule="evenodd"/>
        </g>
      </g>
      <g class="&lt;Group&gt;">
        <path fill="#F9FCFE" d="M369.244 483.955c-1.5 2.1.8 6.5 5.2 9.9 4.5 3.3 9.4 4.3 10.9 2.2 1.6-2.1-.7-6.5-5.2-9.8-4.4-3.4-9.3-4.4-10.9-2.3Z" class="&lt;Path&gt;" opacity=".1"/>
        <path fill="#F9FCFE" d="M375.644 490.755a81.41 81.41 0 0 0 .3-4l.2-2.6c.667.267 1.367.6 2.1 1-.1 2.3-.1 4.5-.2 6.7l-.2 3.8c-.8-.4-1.6-.866-2.4-1.4.1-1.2.2-2.4.2-3.5Z" class="&lt;Path&gt;" opacity=".1"/>
        <g class="&lt;Group&gt;">
          <path fill="#D99E28" d="M367.244 482.655c2.2-2.9 8.4-1.9 13.9 2.3 5.5 4.1 8.2 9.8 6.1 12.6-.6.8-2.8 3.2-3.3 3.9-2.1 2.8-8.1 1.8-13.5-2.3-5.4-4-8-9.5-5.9-12.3.5-.7 2.2-3.4 2.7-4.2Z" class="&lt;Compound Path&gt;"/>
          <path fill="#AA7F2C" d="M373.044 481.155a9.15 9.15 0 0 0-.7 1c-2.267 3.4-4.5 6.834-6.7 10.3-.2.267-.367.567-.5.9-1.5-2.5-1.8-4.9-.6-6.5.5-.7 2.2-3.4 2.7-4.2 1.1-1.5 3.2-1.9 5.8-1.5Zm7.4 14.3a510.096 510.096 0 0 0 5-6.3c2.5 3.2 3.3 6.5 1.8 8.4-.6.8-2.8 3.2-3.3 3.9-1.4 1.9-4.9 2-8.7.5 1.7-2.2 3.5-4.4 5.2-6.5Z" class="&lt;Path&gt;" opacity=".2"/>
          <path fill="#FCB84A" d="M369.544 483.355c-1.6 2.1.8 6.6 5.3 10 4.5 3.3 9.5 4.4 11.1 2.2 1.6-2.1-.8-6.6-5.3-9.9-4.5-3.4-9.5-4.4-11.1-2.3Z" class="&lt;Path&gt;"/>
          <path fill="#F1B142" d="m379.944 492.755 3.9-4.2c2.3 2.7 3.2 5.5 2.1 7-1.3 1.7-4.6 1.4-8.2-.4l2.2-2.4Zm-4.4-9.9c-1.3 2.4-2.7 4.8-4.1 7.2-2.2-2.6-3-5.2-1.9-6.7 1-1.3 3.3-1.4 6-.5Z" class="&lt;Path&gt;" opacity=".3"/>
          <path fill="#757578" d="M368.644 485.055c-1.6 2.1.6 6.6 5 9.9 4.4 3.2 9.3 4.2 10.9 2 1.6-2.2-.6-6.6-5-9.9-4.4-3.3-9.3-4.2-10.9-2Z" class="&lt;Path&gt;" opacity=".2"/>
          <path fill="#BDD4EB" d="M369.044 485.455c-1.6 2 .6 6.2 4.7 9.3 4.2 3.1 8.8 4 10.3 2 1.5-2.1-.6-6.3-4.7-9.4-4.2-3.1-8.8-4-10.3-1.9Z" class="&lt;Path&gt;"/>
          <g class="&lt;Group&gt;">
            <path fill="#8489AB" d="m375.844 486.955.5.2-.1-.9-.5-.2.1.9Zm1.1 9.2.4.2-.1-.9-.4-.2.1.9Zm5.9-2v.3l1.4.7-.1-.3-1.3-.7Zm-13.9-6.9v.3l1.4.6-.1-.2-1.3-.7Z" class="&lt;Path&gt;"/>
          </g>
          <g class="&lt;Group&gt;">
            <g class="&lt;Group&gt;">
              <path fill="#5E68AC" d="m381.444 491.755-5.1-.3-.2-.4 5.4.6-.1.1Z" class="&lt;Path&gt;"/>
              <path fill="#A191C4" d="m381.544 491.655-5.1-.3-.2-.5 5.1.4.2.4Z" class="&lt;Path&gt;"/>
            </g>
            <g class="&lt;Group&gt;">
              <path fill="#5E68AC" d="m369.944 485.655.1-.1 6.6 5.3-.1.1h-.5l-6.1-5.3Z" class="&lt;Path&gt;"/>
              <path fill="#A191C4" d="m370.044 485.555.3-.1 6.3 5.4h-.5l-6.1-5.3Z" class="&lt;Path&gt;"/>
            </g>
            <g class="&lt;Group&gt;">
              <path fill="#6D6E74" d="M376.144 490.555c.1-.1.5-.1.8.2.3.2.4.5.3.7 0 0-.2.2-.2.3-.2.1-.5.1-.8-.1-.3-.3-.5-.6-.4-.7.1-.1.3-.3.3-.4Z" class="&lt;Path&gt;"/>
              <path fill="#88888C" d="M376.144 490.555c-.1.2 0 .5.4.7.3.2.6.3.7.2.1-.2 0-.5-.3-.7-.3-.3-.7-.3-.8-.2Z" class="&lt;Path&gt;"/>
            </g>
          </g>
          <path fill="#F9FCFE" d="M381.244 496.755a191.996 191.996 0 0 0-.3-6.3 66.15 66.15 0 0 0-.3-3.6c3.9 3.1 5.8 7 4.4 8.9-.7 1-2.1 1.3-3.8 1Zm-8.6-13.5c-.5 2.4-.9 4.9-1.2 7.4-2.1-2.5-2.9-5-1.8-6.4.6-.8 1.6-1.1 3-1Z" class="&lt;Path&gt;" opacity=".1"/>
          <path fill="#F3EB18" fill-rule="evenodd" d="M367.244 482.655c-2.1 2.8.6 8.5 6.1 12.6 5.6 4.2 11.8 5.2 13.9 2.3 2.1-2.8-.6-8.5-6.1-12.6-5.5-4.2-11.7-5.2-13.9-2.3Zm2.3.7c1.6-2.1 6.6-1.1 11.1 2.3 4.5 3.3 6.9 7.8 5.3 9.9-1.6 2.2-6.6 1.1-11.1-2.2-4.5-3.4-6.9-7.9-5.3-10Z" class="&lt;Compound Path&gt;" clip-rule="evenodd"/>
        </g>
        <g class="&lt;Group&gt;">
          <path fill="#D99E28" d="M367.417 482.842c2.156-2.842 8.232-1.862 13.622 2.254 5.39 4.018 8.036 9.604 5.978 12.348-.588.784-2.744 3.136-3.234 3.822-2.058 2.744-7.938 1.764-13.23-2.254-5.292-3.92-7.84-9.31-5.782-12.054.49-.686 2.156-3.332 2.646-4.116Z" class="&lt;Compound Path&gt;"/>
          <path fill="#AA7F2C" d="M373.101 481.372a9.06 9.06 0 0 0-.686.98 534.319 534.319 0 0 0-6.566 10.095 3.847 3.847 0 0 0-.49.881c-1.47-2.45-1.764-4.802-.588-6.37.49-.686 2.156-3.332 2.646-4.116 1.078-1.47 3.136-1.862 5.684-1.47Zm7.252 14.014a495.286 495.286 0 0 0 4.9-6.174c2.45 3.136 3.234 6.37 1.764 8.232-.588.784-2.744 3.136-3.234 3.822-1.372 1.862-4.802 1.96-8.526.49 1.666-2.156 3.43-4.312 5.096-6.37Z" class="&lt;Path&gt;" opacity=".2"/>
          <path fill="#FCB84A" d="M369.671 483.529c-1.568 2.058.784 6.468 5.194 9.8 4.41 3.234 9.31 4.312 10.878 2.156 1.568-2.058-.784-6.468-5.194-9.702-4.41-3.332-9.31-4.312-10.878-2.254Z" class="&lt;Path&gt;"/>
          <path fill="#F1B142" d="m379.863 492.74 3.822-4.116c2.254 2.646 3.136 5.39 2.058 6.86-1.274 1.666-4.508 1.372-8.036-.392l2.156-2.352Zm-4.312-9.702c-1.274 2.352-2.646 4.704-4.018 7.056-2.156-2.548-2.94-5.096-1.862-6.566.98-1.274 3.234-1.372 5.88-.49Z" class="&lt;Path&gt;" opacity=".3"/>
          <path fill="#757578" d="M368.789 485.194c-1.568 2.058.588 6.468 4.9 9.702 4.312 3.136 9.114 4.116 10.682 1.96 1.568-2.156-.588-6.468-4.9-9.702s-9.114-4.116-10.682-1.96Z" class="&lt;Path&gt;" opacity=".2"/>
          <path fill="#BDD4EB" d="M369.181 485.586c-1.568 1.96.588 6.076 4.606 9.114 4.116 3.038 8.624 3.92 10.094 1.96 1.47-2.058-.588-6.174-4.606-9.212-4.116-3.038-8.624-3.92-10.094-1.862Z" class="&lt;Path&gt;"/>
          <g class="&lt;Group&gt;">
            <path fill="#8489AB" d="m375.845 487.056.49.196-.098-.881-.49-.197.098.882Zm1.078 9.016.392.196-.098-.882-.392-.196.098.882Zm5.782-1.96v.294l1.372.686-.098-.294-1.274-.686Zm-13.622-6.761v.293l1.372.588-.098-.195-1.274-.686Z" class="&lt;Path&gt;"/>
          </g>
          <g class="&lt;Group&gt;">
            <g class="&lt;Group&gt;">
              <path fill="#5E68AC" d="m381.333 491.76-4.998-.294-.196-.392 5.292.588-.098.098Z" class="&lt;Path&gt;"/>
              <path fill="#A191C4" d="m381.431 491.662-4.998-.294-.196-.49 4.998.392.196.392Z" class="&lt;Path&gt;"/>
            </g>
            <g class="&lt;Group&gt;">
              <path fill="#5E68AC" d="m370.063 485.782.098-.098 6.468 5.194-.098.098h-.49l-5.978-5.194Z" class="&lt;Path&gt;"/>
              <path fill="#A191C4" d="m370.161 485.684.294-.098 6.174 5.292h-.49l-5.978-5.194Z" class="&lt;Path&gt;"/>
            </g>
            <g class="&lt;Group&gt;">
              <path fill="#6D6E74" d="M376.139 490.584c.098-.098.49-.098.784.196.294.196.392.49.294.686 0 0-.196.196-.196.294-.196.098-.49.098-.784-.098-.294-.294-.49-.588-.392-.686.098-.098.294-.294.294-.392Z" class="&lt;Path&gt;"/>
              <path fill="#88888C" d="M376.139 490.584c-.098.196 0 .49.392.686.294.196.588.294.686.196.098-.196 0-.49-.294-.686-.294-.294-.686-.294-.784-.196Z" class="&lt;Path&gt;"/>
            </g>
          </g>
          <path fill="#F9FCFE" d="M381.137 496.661a184.393 184.393 0 0 0-.294-6.174 63.566 63.566 0 0 0-.294-3.529c3.822 3.039 5.684 6.861 4.312 8.723-.686.98-2.058 1.274-3.724.98Zm-8.428-13.23a86.03 86.03 0 0 0-1.176 7.251c-2.058-2.45-2.842-4.899-1.764-6.271.588-.784 1.568-1.078 2.94-.98Z" class="&lt;Path&gt;" opacity=".1"/>
          <path fill="#F3EB18" fill-rule="evenodd" d="M367.417 482.842c-2.058 2.744.588 8.33 5.978 12.348 5.488 4.116 11.564 5.096 13.622 2.254 2.058-2.744-.588-8.33-5.978-12.348-5.39-4.116-11.466-5.096-13.622-2.254Zm2.254.686c1.568-2.058 6.468-1.078 10.878 2.254 4.41 3.234 6.762 7.644 5.194 9.702-1.568 2.156-6.468 1.078-10.878-2.156-4.41-3.332-6.762-7.742-5.194-9.8Z" class="&lt;Compound Path&gt;" clip-rule="evenodd"/>
        </g>
      </g>
      <g class="&lt;Group&gt;">
        <path fill="#F9FCFE" d="M386.56 119.955c1.5 2.1-.8 6.5-5.2 9.9-4.5 3.3-9.4 4.3-10.9 2.2-1.6-2.1.7-6.5 5.2-9.8 4.4-3.4 9.3-4.4 10.9-2.3Z" class="&lt;Path&gt;" opacity=".1"/>
        <path fill="#F9FCFE" d="M380.16 126.755a79.02 79.02 0 0 1-.3-4l-.2-2.6c-.667.267-1.367.6-2.1 1 .1 2.3.1 4.5.2 6.7l.2 3.8c.8-.4 1.6-.866 2.4-1.4-.1-1.2-.2-2.4-.2-3.5Z" class="&lt;Path&gt;" opacity=".1"/>
        <g class="&lt;Group&gt;">
          <path fill="#D99E28" d="M388.56 118.655c-2.2-2.9-8.4-1.9-13.9 2.3-5.5 4.1-8.2 9.8-6.1 12.6.6.8 2.8 3.2 3.3 3.9 2.1 2.8 8.1 1.8 13.5-2.3 5.4-4 8-9.5 5.9-12.3-.5-.7-2.2-3.4-2.7-4.2Z" class="&lt;Compound Path&gt;"/>
          <path fill="#AA7F2C" d="M382.76 117.155c.266.334.5.667.7 1 2.266 3.4 4.5 6.834 6.7 10.3.2.267.366.567.5.9 1.5-2.5 1.8-4.9.6-6.5-.5-.7-2.2-3.4-2.7-4.2-1.1-1.5-3.2-1.9-5.8-1.5Zm-7.4 14.3a500.816 500.816 0 0 1-5-6.3c-2.5 3.2-3.3 6.5-1.8 8.4.6.8 2.8 3.2 3.3 3.9 1.4 1.9 4.9 2 8.7.5-1.7-2.2-3.5-4.4-5.2-6.5Z" class="&lt;Path&gt;" opacity=".2"/>
          <path fill="#FCB84A" d="M386.26 119.355c1.6 2.1-.8 6.6-5.3 10-4.5 3.3-9.5 4.4-11.1 2.2-1.6-2.1.8-6.6 5.3-9.9 4.5-3.4 9.5-4.4 11.1-2.3Z" class="&lt;Path&gt;"/>
          <path fill="#F1B142" d="m375.86 128.755-3.9-4.2c-2.3 2.7-3.2 5.5-2.1 7 1.3 1.7 4.6 1.4 8.2-.4l-2.2-2.4Zm4.4-9.9c1.3 2.4 2.7 4.8 4.1 7.2 2.2-2.6 3-5.2 1.9-6.7-1-1.3-3.3-1.4-6-.5Z" class="&lt;Path&gt;" opacity=".3"/>
          <path fill="#757578" d="M387.16 121.055c1.6 2.1-.6 6.6-5 9.9-4.4 3.2-9.3 4.2-10.9 2-1.6-2.2.6-6.6 5-9.9 4.4-3.3 9.3-4.2 10.9-2Z" class="&lt;Path&gt;" opacity=".2"/>
          <path fill="#BDD4EB" d="M386.76 121.455c1.6 2-.6 6.2-4.7 9.3-4.2 3.1-8.8 4-10.3 2-1.5-2.1.6-6.3 4.7-9.4 4.2-3.1 8.8-4 10.3-1.9Z" class="&lt;Path&gt;"/>
          <g class="&lt;Group&gt;">
            <path fill="#8489AB" d="m379.96 122.955-.5.2.1-.9.5-.2-.1.9Zm-1.1 9.2-.4.2.1-.9.4-.2-.1.9Zm-5.9-2v.3l-1.4.7.1-.3 1.3-.7Zm13.9-6.9v.3l-1.4.6.1-.2 1.3-.7Z" class="&lt;Path&gt;"/>
          </g>
          <g class="&lt;Group&gt;">
            <g class="&lt;Group&gt;">
              <path fill="#5E68AC" d="m374.36 127.755 5.1-.3.2-.4-5.4.6.1.1Z" class="&lt;Path&gt;"/>
              <path fill="#A191C4" d="m374.26 127.655 5.1-.3.2-.5-5.1.4-.2.4Z" class="&lt;Path&gt;"/>
            </g>
            <g class="&lt;Group&gt;">
              <path fill="#5E68AC" d="m385.86 121.655-.1-.1-6.6 5.3.1.1h.5l6.1-5.3Z" class="&lt;Path&gt;"/>
              <path fill="#A191C4" d="m385.76 121.555-.3-.1-6.3 5.4h.5l6.1-5.3Z" class="&lt;Path&gt;"/>
            </g>
            <g class="&lt;Group&gt;">
              <path fill="#6D6E74" d="M379.66 126.555c-.1-.1-.5-.1-.8.2-.3.2-.4.5-.3.7 0 0 .2.2.2.3.2.1.5.1.8-.1.3-.3.5-.6.4-.7-.1-.1-.3-.3-.3-.4Z" class="&lt;Path&gt;"/>
              <path fill="#88888C" d="M379.66 126.555c.1.2 0 .5-.4.7-.3.2-.6.3-.7.2-.1-.2 0-.5.3-.7.3-.3.7-.3.8-.2Z" class="&lt;Path&gt;"/>
            </g>
          </g>
          <path fill="#F9FCFE" d="M374.56 132.755a186.6 186.6 0 0 1 .3-6.3c.066-1.2.166-2.4.3-3.6-3.9 3.1-5.8 7-4.4 8.9.7 1 2.1 1.3 3.8 1Zm8.6-13.5c.5 2.4.9 4.9 1.2 7.4 2.1-2.5 2.9-5 1.8-6.4-.6-.8-1.6-1.1-3-1Z" class="&lt;Path&gt;" opacity=".1"/>
          <path fill="#F3EB18" fill-rule="evenodd" d="M388.56 118.655c2.1 2.8-.6 8.5-6.1 12.6-5.6 4.2-11.8 5.2-13.9 2.3-2.1-2.8.6-8.5 6.1-12.6 5.5-4.2 11.7-5.2 13.9-2.3Zm-2.3.7c-1.6-2.1-6.6-1.1-11.1 2.3-4.5 3.3-6.9 7.8-5.3 9.9 1.6 2.2 6.6 1.1 11.1-2.2 4.5-3.4 6.9-7.9 5.3-10Z" class="&lt;Compound Path&gt;" clip-rule="evenodd"/>
        </g>
        <g class="&lt;Group&gt;">
          <path fill="#D99E28" d="M388.386 118.842c-2.156-2.842-8.232-1.862-13.622 2.254-5.39 4.018-8.036 9.604-5.978 12.348.588.784 2.744 3.136 3.234 3.822 2.058 2.744 7.938 1.764 13.23-2.254 5.292-3.92 7.84-9.31 5.782-12.054-.49-.686-2.156-3.332-2.646-4.116Z" class="&lt;Compound Path&gt;"/>
          <path fill="#AA7F2C" d="M382.702 117.372c.262.327.49.654.686.98a529.414 529.414 0 0 1 6.566 10.095c.196.261.36.555.49.881 1.47-2.45 1.764-4.802.588-6.37-.49-.686-2.156-3.332-2.646-4.116-1.078-1.47-3.136-1.862-5.684-1.47Zm-7.252 14.014a514.564 514.564 0 0 1-4.9-6.174c-2.45 3.136-3.234 6.37-1.764 8.232.588.784 2.744 3.136 3.234 3.822 1.372 1.862 4.802 1.96 8.526.49-1.666-2.156-3.43-4.312-5.096-6.37Z" class="&lt;Path&gt;" opacity=".2"/>
          <path fill="#FCB84A" d="M386.132 119.529c1.568 2.058-.784 6.468-5.194 9.8-4.41 3.234-9.31 4.312-10.878 2.156-1.568-2.058.784-6.468 5.194-9.702 4.41-3.332 9.31-4.312 10.878-2.254Z" class="&lt;Path&gt;"/>
          <path fill="#F1B142" d="m375.94 128.74-3.822-4.116c-2.254 2.646-3.136 5.39-2.058 6.86 1.274 1.666 4.508 1.372 8.036-.392l-2.156-2.352Zm4.312-9.702c1.274 2.352 2.646 4.704 4.018 7.056 2.156-2.548 2.94-5.096 1.862-6.566-.98-1.274-3.234-1.372-5.88-.49Z" class="&lt;Path&gt;" opacity=".3"/>
          <path fill="#757578" d="M387.014 121.194c1.568 2.058-.588 6.468-4.9 9.702-4.312 3.136-9.114 4.116-10.682 1.96-1.568-2.156.588-6.468 4.9-9.702s9.114-4.116 10.682-1.96Z" class="&lt;Path&gt;" opacity=".2"/>
          <path fill="#BDD4EB" d="M386.622 121.587c1.568 1.96-.588 6.076-4.606 9.114-4.116 3.038-8.624 3.92-10.094 1.96-1.47-2.058.588-6.175 4.606-9.213 4.116-3.038 8.624-3.919 10.094-1.861Z" class="&lt;Path&gt;"/>
          <g class="&lt;Group&gt;">
            <path fill="#8489AB" d="m379.958 123.056-.49.196.098-.881.49-.197-.098.882Zm-1.078 9.016-.392.196.098-.881.392-.196-.098.881Zm-5.782-1.96v.294l-1.372.686.098-.294 1.274-.686Zm13.622-6.762v.294l-1.372.588.098-.196 1.274-.686Z" class="&lt;Path&gt;"/>
          </g>
          <g class="&lt;Group&gt;">
            <g class="&lt;Group&gt;">
              <path fill="#5E68AC" d="m374.47 127.76 4.998-.294.196-.392-5.292.588.098.098Z" class="&lt;Path&gt;"/>
              <path fill="#A191C4" d="m374.372 127.662 4.998-.294.196-.49-4.998.392-.196.392Z" class="&lt;Path&gt;"/>
            </g>
            <g class="&lt;Group&gt;">
              <path fill="#5E68AC" d="m385.74 121.782-.098-.098-6.468 5.194.098.098h.49l5.978-5.194Z" class="&lt;Path&gt;"/>
              <path fill="#A191C4" d="m385.642 121.684-.294-.098-6.174 5.292h.49l5.978-5.194Z" class="&lt;Path&gt;"/>
            </g>
            <g class="&lt;Group&gt;">
              <path fill="#6D6E74" d="M379.664 126.584c-.098-.098-.49-.098-.784.196-.294.196-.392.49-.294.686 0 0 .196.196.196.294.196.098.49.098.784-.098.294-.294.49-.588.392-.686-.098-.098-.294-.294-.294-.392Z" class="&lt;Path&gt;"/>
              <path fill="#88888C" d="M379.664 126.584c.098.196 0 .49-.392.686-.294.196-.588.294-.686.196-.098-.196 0-.49.294-.686.294-.294.686-.294.784-.196Z" class="&lt;Path&gt;"/>
            </g>
          </g>
          <path fill="#F9FCFE" d="M374.666 132.661c.066-2.091.164-4.149.294-6.174.066-1.176.164-2.352.294-3.528-3.822 3.038-5.684 6.86-4.312 8.722.686.98 2.058 1.274 3.724.98Zm8.428-13.23a86.03 86.03 0 0 1 1.176 7.251c2.058-2.45 2.842-4.899 1.764-6.271-.588-.784-1.568-1.078-2.94-.98Z" class="&lt;Path&gt;" opacity=".1"/>
          <path fill="#F3EB18" fill-rule="evenodd" d="M388.386 118.842c2.058 2.744-.588 8.33-5.978 12.348-5.488 4.116-11.564 5.096-13.622 2.254-2.058-2.744.588-8.33 5.978-12.348 5.39-4.116 11.466-5.096 13.622-2.254Zm-2.254.686c-1.568-2.058-6.468-1.078-10.878 2.254-4.41 3.234-6.762 7.644-5.194 9.702 1.568 2.156 6.468 1.078 10.878-2.156 4.41-3.332 6.762-7.742 5.194-9.8Z" class="&lt;Compound Path&gt;" clip-rule="evenodd"/>
        </g>
      </g>
    </g>
  </g>
  <defs>
    <clipPath id="a" class="a">
      <path fill="#fff" d="M0 0h435v610H0z"/>
    </clipPath>
    <clipPath id="b" class="b">
      <path fill="#fff" d="M0 0h435v610H0z"/>
    </clipPath>
    <clipPath id="d" class="d">
      <path fill="#fff" d="M0 0h435v663H0z" transform="matrix(-1 0 0 1 435 -21)"/>
    </clipPath>
  </defs>
</svg>
