<svg xmlns="http://www.w3.org/2000/svg" width="435" height="610" fill="none" viewBox="0 0 435 610">
  <g class="Property 1=agosto" clip-path="url(#a)">
    <path fill="#fff" d="M0 0h435v610H0z"/>
    <g class="Fondo" clip-path="url(#b)">
      <path fill="#FDFDFD" d="M0 0h435v610H0z"/>
      <path fill="#4291CD" d="M448 587.1H3V-23h445v610.1Z" class="fondo"/>
      <g class="ondas">
        <g class="&lt;Group&gt;">
          <g class="Clip path group">
            <mask id="c" width="448" height="626" x="-7" y="-6" class="c" maskUnits="userSpaceOnUse" style="mask-type:luminance">
              <g class="cp6">
                <path fill="#fff" d="M440.06 619.87H-6.12V-5.2h446.18v625.07Z" class="Vector"/>
              </g>
            </mask>
            <g class="&lt;Clip Group&gt;" mask="url(#c)">
              <path fill="#1C78BD" d="M-196.95 867.57c57.6-56.3 187.8-182.1 245.5-237.9 9.5-9.2 2.7-24.7-10.7-24.7-24.6 0-57.2.1-81.9.2-13.5.1-9.2-26.6.3-35.8l345.1-334.6c.2-.2 107.1-84 .4-51.7l-92.4-48c0 .3-153.2 151.7-153.4 152l-287.6 279.4c-9.4 9.2-2.6 24.7 10.9 24.7 24.7-.1 57.3-.3 81.9-.2 13.4 0 20.2 15.5 10.8 24.6-57.7 55.9-199.1 192.8-256.8 249.1l187.9 2.9Z" class="&lt;Path&gt;"/>
              <path stroke="#FDFDFD" stroke-linecap="round" stroke-width="2" d="m364.15 23.17 64.5-57.3" class="&lt;Path&gt;" opacity=".1"/>
              <path fill="#61A2CE" d="M-121.05 386.87c46.2-42.1 144.9-200.5 191.1-242.2 7.6-6.9 2.2-18.5-8.6-18.5-19.7 0 29.2 2.1 9.4 2.2-10.8 0-16.3-11.6-8.7-18.5l230.5-209c.2-.2.3-.434.3-.7l-150.6-2.1c0 .2-21.6.5-21.8.7l-137.3 77.1-93.3 131.9c-7.6 6.9 19.4 18.5 30.2 18.4 19.9 0 46-.1 65.7-.1 10.8 0 16.2 11.6 8.6 18.5-46.2 41.7-159.6 144.2-205.8 186.3l90.3 56Z" class="&lt;Path&gt;"/>
              <path fill="#1C78BD" d="M32.15 409.17c46.2-42.1 219.9-198.4 266.2-240.2 7.5-6.8 2.1-18.5-8.7-18.5-19.7 0-74.4.1-94.3.2-10.8 0-16.2-11.6-8.7-18.5l230.6-209c.2-.2-17.5-.4-17.5-.7 0 0-189.7-1.6-189.9-1.4l-233.5 209c-7.6 6.9 33.8 18.5 44.6 18.4 19.9 0-21.3-.1-1.6-.1 10.8 0 4.3 11.6-3.2 18.5-46.3 41.7-107.2 144.2-153.5 186.3l169.5 56Z" class="&lt;Path&gt;"/>
              <path fill="#4291CD" d="M333.05 615.27c56.7-51.7 212.5-193.7 269.2-245 9.3-8.4 2.6-22.6-10.6-22.6-24.2-.1-115.4 0-139.8.1-13.2.1-19.9-14.2-10.6-22.6l282.8-256.4c.2-.2.4-.6.4-.9l-184.8-2.6c0 .3-.1.6-.4.8l-282.8 256.5c-9.3 8.4-2.6 22.6 10.6 22.6 24.4-.1 14.8-.2 39-.2 13.3 0 19.9 14.3 10.6 22.7-56.7 51.2-212.5 193.3-269.2 245l285.6 2.6Z" class="&lt;Path&gt;"/>
              <path stroke="#FDFDFD" stroke-linecap="round" stroke-width="5.4" d="m241.85 527.47 83.4-74.2" class="&lt;Path&gt;" opacity=".2"/>
              <path fill="#61A2CE" d="M407.35 643.37c28.8-26.2 99.3-89.9 128.1-115.9 4.7-4.3 1.3-11.5-5.4-11.5-12.3 0-52.3 0-64.6.1-6.7 0-10.1-7.2-5.4-11.5l143.4-130.1c.133-.133.233-.267.3-.4l-93.8-1.3c0 .133-.067.267-.2.4l-143.4 130c-4.8 4.3-1.3 11.6 5.4 11.5 12.3 0 28.6-.1 40.8-.1 6.8 0 10.1 7.3 5.4 11.5-28.8 26-99.3 89.8-128.1 116l117.5 1.3Z" class="&lt;Path&gt;"/>
              <path fill="#4291CD" d="M-64.55 276.97c34.9-31.8 211.3-200.4 246.3-231.9 5.7-5.2 1.6-14-6.5-14-14.9 0-34.7.1-49.7.1-8.1 0-12.3-8.7-6.5-13.9l144.3-130.5c.2-.134.3-.3.3-.5l-113.9-1.7c0 .2-.067.4-.2.6l-174.2 157.9c-5.8 5.2-1.6 14 6.5 14 15-.1 37.7-.1 52.6-.1 8.2 0 12.3 8.7 6.6 13.9-35 31.6-123.7 109-158.6 140.8l53 65.3Zm739.2-489.5-32.9-88.8c0 .3-149.3 151.7-149.5 152l-359.1 323.4c-10.1 9.2-2.8 24.7 11.6 24.7 26.5-.1 25.8-.2 52.2-.2 14.4 0 21.7 15.5 11.5 24.6-60.1 54.3-244.6 220.4-244.6 220.4-4.7 4.2-1.3 11.5 5.4 11.4 12.3 0 61.2.2 73.5.2 6.7 0 9.6 6.7 5.4 11.5-9.7 11.2-134.1 123.9-134.1 123.9l74.7 26c9.8-8.9 16.1 15.9 35.2-.6l68.2-63.5c61.8-56.3 333.4-314.6 395.3-370.4 10.1-9.2-17.9-24.7-32.4-24.7-26.3 0-88 .1-114.5.2-14.4.1-21.7-15.5-11.6-24.6l369.9-334.6c.2-.2 90.2-43.2-24.2-10.9Z" class="&lt;Path&gt;"/>
              <path fill="#1C78BD" d="M218.15 563.97c45.6-41.6 142.7-142.7 188.4-184 7.5-6.7 2.2-18.2-8.5-18.2-19.5 0-45.3.1-64.9.1-10.6.1-1.2-11.4 6.3-18.2l227.7-212.4c.2-.2.3 5.6.3 5.3l-87.1-57c0 .3-335.7 301.2-335.7 301.2-7.4 6.8-2 18.3 8.6 18.3 19.6-.1 45.4-.2 64.9-.2 10.6 0 16 11.5 8.5 18.2-14.1 12.8-34.6 31.3-57.4 51.9-7.9 7.1-16 14.5-24.3 21.9-45.5 41.2-203.8 193.5-203.8 193.5l142.1.7 134.9-121.1Z" class="&lt;Path&gt;"/>
              <g class="&lt;Group&gt;">
                <g class="&lt;Group&gt;" opacity=".1" style="mix-blend-mode:multiply">
                  <path fill="#61A2CE" d="m407.85 272.07-.1-.1c-1.1-.3-2-.6-2.9-.7.9.2 1.9.4 3 .8Zm-6.2-1.4c-.1 0-.1.1-.1.1.4.3 1.6 1.1 3.3 2-1.8-1-3-1.9-3.2-2v-.1Zm2.5-3.4s.2.4.7 1c-.4-.5-.6-.9-.7-1Z" class="&lt;Path&gt;"/>
                </g>
                <g class="&lt;Group&gt;" opacity=".2">
                  <path fill="#FDFDFD" d="M406.95 269.67h-.1v-.1h.1c.067.066.067.1 0 .1Z" class="&lt;Path&gt;"/>
                </g>
                <g class="&lt;Group&gt;" opacity=".2">
                  <path fill="#FDFDFD" d="m406.25 269.17-.5-.4v-.1h.1l.5.4v.1h-.1Z" class="&lt;Path&gt;"/>
                </g>
              </g>
            </g>
          </g>
        </g>
      </g>
      <g class="decorados">
        <path fill="#FDFDFD" d="M138.75 238.47c0 .9-.8 1.6-1.7 1.6-.9 0-1.7-.7-1.7-1.6 0-1 .8-1.7 1.7-1.7.9 0 1.7.7 1.7 1.7Z" class="&lt;Path&gt;"/>
        <path fill="#61A2CE" d="M222.85 145.87c0 .7-.5 1.3-1.2 1.3s-1.2-.6-1.2-1.3c0-.6.5-1.2 1.2-1.2s1.2.6 1.2 1.2Z" class="&lt;Path&gt;"/>
        <path stroke="#FDFDFD" stroke-linecap="round" stroke-width="5.6" d="m384.05 119.97 64.3-61" class="&lt;Path&gt;" opacity=".2"/>
        <path stroke="#FDFDFD" stroke-linecap="round" stroke-width="4.8" d="m206.95 32.47 92.4-89" class="&lt;Path&gt;" opacity=".2"/>
        <path stroke="#FDFDFD" stroke-linecap="round" stroke-width="8.3" d="m377.95 266.17 112.6-105.2" class="&lt;Path&gt;" opacity=".2"/>
        <path stroke="#FDFDFD" stroke-linecap="round" stroke-width="2.9" d="m369.55 33.07 38.6-35.5" class="&lt;Path&gt;" opacity=".2"/>
        <g class="&lt;Group&gt;">
          <path fill="#61A2CE" d="M414.05 22.07c-.3-.9.3-1.8 1.1-2 .9-.2 1.8.3 2.1 1.2.2.9-.3 1.8-1.2 2-.9.2-1.8-.3-2-1.2Z" class="&lt;Path&gt;"/>
        </g>
        <g class="&lt;Group&gt;">
          <path fill="#61A2CE" d="M381.35 140.77c-.3-.9.2-1.8 1.1-2 .9-.3 1.8.3 2.1 1.2.2.8-.3 1.7-1.2 2-.9.2-1.8-.3-2-1.2Z" class="&lt;Path&gt;"/>
        </g>
        <g class="&lt;Group&gt;">
          <path fill="#4291CD" d="M405.75 219.07c-.2-.6.1-1.1.7-1.3.5-.1 1.1.2 1.3.8.1.5-.2 1.1-.8 1.2-.5.2-1.1-.1-1.2-.7Z" class="&lt;Path&gt;"/>
        </g>
        <g class="&lt;Group&gt;">
          <path fill="#4291CD" d="M217.85 299.17c-.2-.7.2-1.4 1-1.6.7-.2 1.4.2 1.6.9.2.8-.2 1.5-.9 1.7-.8.2-1.5-.2-1.7-1Z" class="&lt;Path&gt;"/>
        </g>
        <g class="&lt;Group&gt;">
          <path fill="#4291CD" d="M359.65 529.67c-.2-.7.2-1.4.9-1.6.8-.2 1.5.2 1.7.9.2.8-.2 1.5-1 1.7-.7.2-1.4-.2-1.6-1Z" class="&lt;Path&gt;"/>
        </g>
        <g class="&lt;Group&gt;">
          <path fill="#1C78BD" d="M368.65 446.37c-.3-1 .3-2 1.3-2.3 1-.3 2.1.3 2.3 1.3.3 1-.3 2.1-1.3 2.4-1 .2-2.1-.4-2.3-1.4Z" class="&lt;Path&gt;"/>
        </g>
        <path stroke="#FDFDFD" stroke-linecap="round" stroke-width="8.3" d="m-40.35 299.37 95.3-88.9m-73.2 377.1 101.6-94.9" class="&lt;Path&gt;" opacity=".2"/>
        <g class="&lt;Group&gt;">
          <g class="&lt;Group&gt;">
            <path fill="#61A2CE" d="M150.15 75.77a2.81 2.81 0 0 1-.1-3.9c1.1-1.1 2.9-1.1 4-.1 1.1 1.1 1.1 2.9 0 4s-2.8 1.1-3.9 0Z" class="&lt;Path&gt;"/>
            <path fill="#61A2CE" d="M150.15 75.77a2.81 2.81 0 0 1-.1-3.9c1.1-1.1 2.9-1.1 4-.1 1.1 1.1 1.1 2.9 0 4s-2.8 1.1-3.9 0Z" class="&lt;Path&gt;"/>
            <g class="&lt;Group&gt;" style="mix-blend-mode:multiply">
              <g class="&lt;Group&gt;">
                <path fill="#FDFDFD" d="M153.45 72.97c.6.7 1.1 1.4 1 2.2.6-1 .5-2.5-.4-3.4-1.1-1-2.9-1-3.9.1-.3.2-.5.6-.7.9 1-.9 2.8-.9 4 .2Z" class="&lt;Path&gt;"/>
              </g>
            </g>
          </g>
        </g>
        <path fill="#61A2CE" d="M138.75 238.47c0 .9-.8 1.6-1.7 1.6-.9 0-1.7-.7-1.7-1.6 0-1 .8-1.7 1.7-1.7.9 0 1.7.7 1.7 1.7Z" class="&lt;Path&gt;"/>
        <path fill="#4291CD" d="M140.95 434.87c0 .9-.8 1.7-1.7 1.7-.9 0-1.6-.8-1.6-1.7 0-.9.7-1.7 1.6-1.7.9 0 1.7.8 1.7 1.7Z" class="&lt;Path&gt;"/>
        <path fill="#61A2CE" d="M53.15 283.07c0 .9-.8 1.7-1.7 1.7-.9 0-1.7-.8-1.7-1.7 0-.9.8-1.6 1.7-1.6.9 0 1.7.7 1.7 1.6Zm153.1 286.1c0 .9-.8 1.7-1.7 1.7-.9 0-1.7-.8-1.7-1.7 0-.9.8-1.7 1.7-1.7.9 0 1.7.8 1.7 1.7Zm178.1 18.6c0 .9-.7 1.6-1.6 1.6-1 0-1.7-.7-1.7-1.6 0-1 .7-1.7 1.7-1.7.9 0 1.6.7 1.6 1.7Z" class="&lt;Path&gt;"/>
        <path fill="#4291CD" d="M387.15 223.97c0 .8-.7 1.5-1.5 1.5s-1.5-.7-1.5-1.5.7-1.5 1.5-1.5 1.5.7 1.5 1.5Z" class="&lt;Path&gt;"/>
        <path fill="#61A2CE" d="M307.95 227.77c0 .9-.8 1.7-1.7 1.7-.9 0-1.7-.8-1.7-1.7 0-.9.8-1.7 1.7-1.7.9 0 1.7.8 1.7 1.7Z" class="&lt;Path&gt;"/>
        <path fill="#4291CD" d="M71.95 102.37c0 1-.8 1.8-1.8 1.8s-1.8-.8-1.8-1.8.8-1.8 1.8-1.8 1.8.8 1.8 1.8Zm-56.8 236c0 1-.8 1.8-1.8 1.8-.9 0-1.7-.8-1.7-1.8s.8-1.8 1.7-1.8c1 0 1.8.8 1.8 1.8Zm157.6 152.2c0 1-.8 1.8-1.8 1.8s-1.8-.8-1.8-1.8.8-1.8 1.8-1.8 1.8.8 1.8 1.8Zm195.3-406.8c0 .7-.5 1.2-1.2 1.2-.6 0-1.2-.5-1.2-1.2s.6-1.2 1.2-1.2c.7 0 1.2.5 1.2 1.2Zm-218.3-63.1c0 .7-.5 1.2-1.2 1.2-.6 0-1.2-.5-1.2-1.2 0-.6.6-1.2 1.2-1.2.7 0 1.2.6 1.2 1.2Zm-96.5 11.5c0 .7-.5 1.2-1.2 1.2s-1.2-.5-1.2-1.2.5-1.2 1.2-1.2 1.2.5 1.2 1.2Zm39.3 139.5c0 .7-.6 1.2-1.3 1.2-.6 0-1.2-.5-1.2-1.2s.6-1.2 1.2-1.2c.7 0 1.3.5 1.3 1.2Z" class="&lt;Path&gt;"/>
        <path fill="#1C78BD" d="M98.95 507.27c0 .6-.5 1.2-1.2 1.2s-1.2-.6-1.2-1.2c0-.7.5-1.3 1.2-1.3s1.2.6 1.2 1.3Z" class="&lt;Path&gt;"/>
        <path stroke="#FDFDFD" stroke-linecap="round" stroke-width="1.1" d="m28.25 21.17 30.3-29.6m-63.4 189.1 28.9-25.8" class="&lt;Path&gt;" opacity=".2"/>
        <path stroke="#FDFDFD" stroke-linecap="round" stroke-width=".9" d="m372.25 15.87 19.8-16.8" class="&lt;Path&gt;" opacity=".2"/>
        <path stroke="#FDFDFD" stroke-linecap="round" stroke-width="1.5" d="m160.35 317.27 50-44.5" class="&lt;Path&gt;" opacity=".2"/>
        <path stroke="#FDFDFD" stroke-linecap="round" stroke-width="1.8" d="m419.05 311.27 49.9-44m-491.1 124.3 43.8-39.2m363.7 176.6 76.7-65.8" class="&lt;Path&gt;" opacity=".2"/>
        <path stroke="#FDFDFD" stroke-linecap="round" stroke-width="1.2" d="m210.35 404.27 33.9-29.1" class="&lt;Path&gt;" opacity=".2"/>
        <path stroke="#FDFDFD" stroke-linecap="round" stroke-width="1.1" d="m41.75 491.07 29.3-28.3" class="&lt;Path&gt;" opacity=".2"/>
        <path stroke="#FDFDFD" stroke-linecap="round" stroke-width="5.7" d="m64.45 51.97 92.4-89" class="&lt;Path&gt;" opacity=".2"/>
        <path stroke="#FDFDFD" stroke-linecap="round" stroke-width="1.1" d="m417.05 210.77 22-18" class="&lt;Path&gt;" opacity=".2"/>
        <path stroke="#FDFDFD" stroke-linecap="round" stroke-width="5.7" d="m399.25 587.77 89.5-89" class="&lt;Path&gt;" opacity=".2"/>
        <path stroke="#FDFDFD" stroke-linecap="round" stroke-width="7" d="m120.75 581.47 94.9-93.4" class="&lt;Path&gt;" opacity=".2"/>
      </g>
    </g>
    <g class="decorado" clip-path="url(#d)">
      <g class="&lt;Group&gt;">
        <path fill="#6A4C9E" d="m72 467 11 16.3 6.9-6.4L72 467Z" class="&lt;Path&gt;"/>
        <path fill="#512E8D" d="m83 483.3 1.9-5.3 5-1.1-6.9 6.4Z" class="&lt;Path&gt;"/>
        <path fill="#9B82BB" d="m72 467 12.9 11 5-1.1L72 467Z" class="&lt;Path&gt;"/>
      </g>
      <g class="&lt;Group&gt;">
        <path fill="#6A4C9E" d="m68.243 373.501-19.644.884 1.862 9.226 17.782-10.11Z" class="&lt;Path&gt;"/>
        <path fill="#512E8D" d="m48.599 374.385 3.53 4.386-1.668 4.839-1.862-9.225Z" class="&lt;Path&gt;"/>
        <path fill="#9B82BB" d="m68.243 373.501-16.113 5.27-1.67 4.84 17.783-10.11Z" class="&lt;Path&gt;"/>
      </g>
      <g class="&lt;Group&gt;">
        <g class="&lt;Group&gt;">
          <g class="&lt;Group&gt;">
            <g class="&lt;Group&gt;" opacity=".4">
              <path fill="#050505" d="M410.974 501.1s-.7.7-1.4.1c0 0-.1.6-.9.8-.8.1-.9-.4-.9-.4s0 .6-.4.8c0 0 0 .4.3 1.5s.8 1.2.8 1.2-1 .4-1 1.1l-.4-.3-1.4-5 5.1-1.5.2 1.7Z" class="&lt;Path&gt;" opacity=".2" style="mix-blend-mode:multiply"/>
            </g>
          </g>
        </g>
        <g class="&lt;Group&gt;">
          <g class="&lt;Group&gt;">
            <g class="&lt;Group&gt;" opacity=".4">
              <g class="&lt;Group&gt;" opacity=".2" style="mix-blend-mode:multiply">
                <g class="&lt;Group&gt;">
                  <path fill="#050505" d="M381.974 492.3s-.2 1 .7 1.3c0 0-.6.4-.3 1.2.2.8.8.6.8.6s-.6.3-.6.7c0 0-.3.2-1.4.5-1.1.3-1.5-.1-1.5-.1s.1 1-.4 1.3l.4.3 5-1.2-1.1-5.2-1.6.6Z" class="&lt;Path&gt;"/>
                </g>
              </g>
            </g>
          </g>
        </g>
      </g>
      <g class="&lt;Group&gt;">
        <path fill="#DD4297" d="M88.774 172.1c.2-.7-.2-1.4-1-1.6-.7-.2-1.5.2-1.7.9-.2.8.3 1.5 1 1.7.7.2 1.5-.2 1.7-1Z" class="&lt;Path&gt;"/>
      </g>
      <g class="&lt;Group&gt;">
        <path fill="#DD4297" d="M306.874 122.8c.2-.8-.2-1.5-.9-1.7-.8-.2-1.5.2-1.7 1-.2.7.2 1.4 1 1.6.7.2 1.4-.2 1.6-.9Z" class="&lt;Path&gt;"/>
      </g>
      <g class="&lt;Group&gt;">
        <path fill="#DD4297" d="m125 565 13 19.5 8.2-7.6L125 565Z" class="&lt;Path&gt;"/>
        <path fill="#9F509E" d="m138 584.5 2.3-6.4 5.9-1.2-8.2 7.6Z" class="&lt;Path&gt;"/>
        <path fill="#E595BF" d="m125 565 15.3 13.1 5.9-1.2L125 565Z" class="&lt;Path&gt;"/>
      </g>
      <g class="&lt;Group&gt;">
        <g class="&lt;Group&gt;">
          <path fill="#74C3AE" d="M290.174 148.5c1.4-1.3 1.4-3.5.1-4.8-1.4-1.4-3.6-1.4-4.9-.1-1.4 1.3-1.4 3.5-.1 4.9 1.4 1.3 3.5 1.4 4.9 0Z" class="&lt;Path&gt;"/>
          <path fill="#6ECFF5" d="M290.174 148.5c1.4-1.3 1.4-3.5.1-4.8-1.4-1.4-3.6-1.4-4.9-.1-1.4 1.3-1.4 3.5-.1 4.9 1.4 1.3 3.5 1.4 4.9 0Z" class="&lt;Path&gt;"/>
          <g class="&lt;Group&gt;" style="mix-blend-mode:multiply">
            <g class="&lt;Group&gt;">
              <path fill="#CACAC9" d="M286.174 145.1c-.9.8-1.5 1.6-1.4 2.7-.7-1.3-.6-3.1.5-4.2 1.4-1.3 3.6-1.3 4.9 0 .3.3.6.9.8 1.2-1.2-1.1-3.4-1.1-4.8.3Z" class="&lt;Path&gt;"/>
            </g>
          </g>
        </g>
      </g>
      <g class="&lt;Group&gt;">
        <path fill="#7AC057" d="M394.277 204.362c2.2-2.1 2.2-5.599.1-7.699-2.1-2.2-5.6-2.2-7.7-.1-2.2 2.1-2.2 5.599-.1 7.699 2.1 2.2 5.6 2.2 7.7.1Z" class="&lt;Path&gt;"/>
        <path fill="#7AC057" d="M394.277 204.362c2.2-2.1 2.2-5.599.1-7.699-2.1-2.2-5.6-2.2-7.7-.1-2.2 2.1-2.2 5.599-.1 7.699 2.1 2.2 5.6 2.2 7.7.1Z" class="&lt;Path&gt;"/>
        <g class="&lt;Group&gt;" style="mix-blend-mode:multiply">
          <g class="&lt;Group&gt;">
            <path fill="#7AC057" d="M387.877 198.862c-1.3 1.3-2.4 2.6-2.2 4.4-1.1-2.1-.9-4.999.9-6.699 2.2-2.1 5.6-2.1 7.7.1.5.4 1 1.3 1.3 1.8-1.9-1.7-5.5-1.801-7.7.399Z" class="&lt;Path&gt;"/>
          </g>
        </g>
      </g>
      <g class="&lt;Group&gt;">
        <path fill="#7AC057" d="M403.974 339.433c2.609 1.562 5.983.631 7.449-1.952 1.562-2.609.631-5.983-1.952-7.449-2.609-1.562-5.983-.631-7.449 1.952-1.562 2.609-.631 5.983 1.952 7.449Z" class="&lt;Path&gt;"/>
        <path fill="#7AC057" d="M403.974 339.433c2.609 1.562 5.983.631 7.449-1.952 1.562-2.609.631-5.983-1.952-7.449-2.609-1.562-5.983-.631-7.449 1.952-1.562 2.609-.631 5.983 1.952 7.449Z" class="&lt;Path&gt;"/>
        <g class="&lt;Group&gt;" style="mix-blend-mode:multiply">
          <g class="&lt;Group&gt;">
            <path fill="#7AC057" d="M407.573 331.801c-1.598-.908-3.144-1.622-4.826-.951 1.732-1.619 4.58-2.197 6.698-.914 2.609 1.562 3.513 4.839 1.951 7.449-.252.588-.987 1.31-1.389 1.732 1.133-2.284.272-5.781-2.434-7.316Z" class="&lt;Path&gt;"/>
          </g>
        </g>
      </g>
      <g class="&lt;Group&gt;">
        <path fill="#7AC057" d="M269.852 9.952c1.6-1.6 1.6-4.1.1-5.7-1.6-1.6-4.1-1.6-5.7-.1-1.6 1.6-1.7 4.2-.1 5.7 1.6 1.6 4.1 1.7 5.7.1Z" class="&lt;Path&gt;"/>
        <g class="&lt;Group&gt;" style="mix-blend-mode:multiply">
          <g class="&lt;Group&gt;">
            <path fill="#7AC057" d="M265.152 5.851c-1 1-1.8 2-1.6 3.2-.9-1.5-.7-3.6.6-4.9 1.6-1.6 4.2-1.5 5.7.1.4.3.8.9.9 1.4-1.4-1.4-4-1.4-5.6.2Z" class="&lt;Path&gt;"/>
          </g>
        </g>
      </g>
      <g class="&lt;Group&gt;">
        <path fill="#7AC057" d="M425.274 540.3c1.6-1.6 1.7-4.1.1-5.7-1.6-1.6-4.1-1.6-5.7-.1-1.6 1.6-1.7 4.2-.1 5.8 1.6 1.6 4.1 1.6 5.7 0Z" class="&lt;Path&gt;"/>
        <path fill="#7AC057" d="M425.274 540.3c1.6-1.6 1.7-4.1.1-5.7-1.6-1.6-4.1-1.6-5.7-.1-1.6 1.6-1.7 4.2-.1 5.8 1.6 1.6 4.1 1.6 5.7 0Z" class="&lt;Path&gt;"/>
        <g class="&lt;Group&gt;" style="mix-blend-mode:multiply">
          <g class="&lt;Group&gt;">
            <path fill="#7AC057" d="M420.574 536.2c-1 1-1.8 2-1.6 3.3-.8-1.6-.7-3.7.6-5 1.6-1.6 4.2-1.5 5.8.1.3.3.7.9.9 1.4-1.4-1.3-4.1-1.4-5.7.2Z" class="&lt;Path&gt;"/>
          </g>
        </g>
      </g>
      <g class="&lt;Group&gt;">
        <path fill="#7AC057" d="M45.718 438.791c1.968 1.117 4.404.548 5.52-1.42a4.076 4.076 0 0 0-1.419-5.521c-1.968-1.117-4.5-.522-5.617 1.446s-.452 4.378 1.516 5.495Z" class="&lt;Path&gt;"/>
        <path fill="#7AC057" d="M45.718 438.791c1.968 1.117 4.404.548 5.52-1.42a4.076 4.076 0 0 0-1.419-5.521c-1.968-1.117-4.5-.522-5.617 1.446s-.452 4.378 1.516 5.495Z" class="&lt;Path&gt;"/>
        <g class="&lt;Group&gt;" style="mix-blend-mode:multiply">
          <g class="&lt;Group&gt;">
            <path fill="#7AC057" d="M48.42 433.17c-1.23-.698-2.407-1.204-3.607-.665 1.33-1.197 3.38-1.659 4.98-.752 1.968 1.117 2.563 3.65 1.446 5.618-.21.369-.681.914-1.11 1.24.88-1.695.259-4.325-1.71-5.441Z" class="&lt;Path&gt;"/>
          </g>
        </g>
      </g>
      <g class="&lt;Group&gt;">
        <path fill="#7AC057" d="M271.913 222.001c1.6-1.6 1.6-4.201 0-5.801-1.5-1.5-4.1-1.6-5.7 0a4.077 4.077 0 0 0-.1 5.701c1.6 1.6 4.2 1.6 5.8.1Z" class="&lt;Path&gt;"/>
        <path fill="#7AC057" d="M271.913 222.001c1.6-1.6 1.6-4.201 0-5.801-1.5-1.5-4.1-1.6-5.7 0a4.077 4.077 0 0 0-.1 5.701c1.6 1.6 4.2 1.6 5.8.1Z" class="&lt;Path&gt;"/>
        <g class="&lt;Group&gt;" style="mix-blend-mode:multiply">
          <g class="&lt;Group&gt;">
            <path fill="#7AC057" d="M267.113 217.9c-1 1-1.7 1.9-1.6 3.2-.8-1.5-.7-3.6.7-4.9 1.6-1.6 4.1-1.6 5.7 0 .3.4.7 1 .9 1.4-1.4-1.3-4-1.3-5.7.3Z" class="&lt;Path&gt;"/>
          </g>
        </g>
      </g>
      <g class="&lt;Group&gt;">
        <path fill="#74C3AE" d="M335.376 481.476c1.9-1.9 2-5 .1-7-1.9-1.9-5.1-1.9-7 0-1.9 1.9-2 5-.1 6.9 1.9 1.9 5.1 2 7 .1Z" class="&lt;Path&gt;"/>
        <path fill="#52B5D6" d="M335.376 481.476c1.9-1.9 2-5 .1-7-1.9-1.9-5.1-1.9-7 0-1.9 1.9-2 5-.1 6.9 1.9 1.9 5.1 2 7 .1Z" class="&lt;Path&gt;"/>
        <g class="&lt;Group&gt;" style="mix-blend-mode:multiply">
          <g class="&lt;Group&gt;">
            <path fill="#CACAC9" d="M329.576 476.476c-1.2 1.2-2.1 2.4-1.9 3.9-1-1.8-.8-4.4.8-6 1.9-1.9 5-1.8 6.9.1.4.4.9 1.2 1.1 1.7-1.7-1.6-4.9-1.7-6.9.3Z" class="&lt;Path&gt;"/>
          </g>
        </g>
      </g>
      <g class="&lt;Group&gt;">
        <path fill="#74C3AE" d="M351.859 588.207c.958 2.51 3.746 3.869 6.348 2.952 2.51-.958 3.818-3.878 2.861-6.389-.958-2.51-3.746-3.869-6.257-2.911-2.51.958-3.91 3.837-2.952 6.348Z" class="&lt;Path&gt;"/>
        <path fill="#52B5D6" d="M351.859 588.207c.958 2.51 3.746 3.869 6.348 2.952 2.51-.958 3.818-3.878 2.861-6.389-.958-2.51-3.746-3.869-6.257-2.911-2.51.958-3.91 3.837-2.952 6.348Z" class="&lt;Path&gt;"/>
        <g class="&lt;Group&gt;" style="mix-blend-mode:multiply">
          <g class="&lt;Group&gt;">
            <path fill="#CACAC9" d="M358.793 584.957c-.605-1.586-1.332-2.898-2.783-3.328 2.052-.177 4.343 1.068 5.149 3.182.958 2.511-.4 5.299-2.911 6.257-.529.201-1.463.331-2.001.309 2.155-.898 3.554-3.778 2.546-6.42Z" class="&lt;Path&gt;"/>
          </g>
        </g>
      </g>
      <g class="&lt;Group&gt;">
        <path fill="#DD4297" d="M88.774 172.1c.2-.7-.2-1.4-1-1.6-.7-.2-1.5.2-1.7.9-.2.8.3 1.5 1 1.7.7.2 1.5-.2 1.7-1Z" class="&lt;Path&gt;"/>
      </g>
      <g class="&lt;Group&gt;">
        <path fill="#DD4297" d="M306.874 122.8c.2-.8-.2-1.5-.9-1.7-.8-.2-1.5.2-1.7 1-.2.7.2 1.4 1 1.6.7.2 1.4-.2 1.6-.9Z" class="&lt;Path&gt;"/>
      </g>
      <g class="&lt;Group&gt;">
        <g class="&lt;Group&gt;">
          <path fill="#74C3AE" d="M407.863 50.875c1.4-1.3 1.4-3.5.1-4.8-1.4-1.4-3.6-1.4-4.9-.1-1.4 1.3-1.4 3.5-.1 4.9 1.4 1.3 3.5 1.4 4.9 0Z" class="&lt;Path&gt;"/>
          <path fill="#6ECFF5" d="M407.863 50.875c1.4-1.3 1.4-3.5.1-4.8-1.4-1.4-3.6-1.4-4.9-.1-1.4 1.3-1.4 3.5-.1 4.9 1.4 1.3 3.5 1.4 4.9 0Z" class="&lt;Path&gt;"/>
          <g class="&lt;Group&gt;" style="mix-blend-mode:multiply">
            <g class="&lt;Group&gt;">
              <path fill="#CACAC9" d="M403.863 47.475c-.9.8-1.5 1.6-1.4 2.7-.7-1.3-.6-3.1.5-4.2 1.4-1.3 3.6-1.3 4.9 0 .3.3.6.9.8 1.2-1.2-1.1-3.4-1.1-4.8.3Z" class="&lt;Path&gt;"/>
            </g>
          </g>
        </g>
      </g>
      <g class="&lt;Group&gt;">
        <g class="&lt;Group&gt;">
          <path fill="#74C3AE" d="M125.453 191.452c-1.903.164-3.257 1.897-3.032 3.722.241 1.965 1.975 3.319 3.8 3.095 1.904-.164 3.258-1.898 3.094-3.801-.303-1.886-1.897-3.258-3.862-3.016Z" class="&lt;Path&gt;"/>
          <path fill="#6ECFF5" d="M125.453 191.452c-1.903.164-3.257 1.897-3.032 3.722.241 1.965 1.975 3.319 3.8 3.095 1.904-.164 3.258-1.898 3.094-3.801-.303-1.886-1.897-3.258-3.862-3.016Z" class="&lt;Path&gt;"/>
          <g class="&lt;Group&gt;" style="mix-blend-mode:multiply">
            <g class="&lt;Group&gt;">
              <path fill="#CACAC9" d="M126.514 196.594c1.201-.077 2.167-.338 2.765-1.266-.249 1.455-1.435 2.812-2.979 3.002-1.903.163-3.638-1.191-3.862-3.015-.052-.421.081-1.079.107-1.438.269 1.605 2.004 2.959 3.969 2.717Z" class="&lt;Path&gt;"/>
            </g>
          </g>
        </g>
      </g>
      <g class="&lt;Group&gt;">
        <g class="&lt;Group&gt;">
          <path fill="#74C3AE" d="M31.974 85c1.4-1.3 1.4-3.5.1-4.9-1.4-1.3-3.5-1.3-4.9 0-1.4 1.3-1.4 3.5-.1 4.9 1.4 1.3 3.6 1.3 4.9 0Z" class="&lt;Path&gt;"/>
          <path fill="#6ECFF5" d="M31.974 85c1.4-1.3 1.4-3.5.1-4.9-1.4-1.3-3.5-1.3-4.9 0-1.4 1.3-1.4 3.5-.1 4.9 1.4 1.3 3.6 1.3 4.9 0Z" class="&lt;Path&gt;"/>
          <g class="&lt;Group&gt;" style="mix-blend-mode:multiply">
            <g class="&lt;Group&gt;">
              <path fill="#CACAC9" d="M27.974 81.5c-.9.9-1.5 1.7-1.4 2.8-.7-1.3-.6-3.1.6-4.2 1.3-1.4 3.5-1.3 4.8 0 .3.3.6.8.8 1.2-1.2-1.1-3.4-1.2-4.8.2Z" class="&lt;Path&gt;"/>
            </g>
          </g>
        </g>
      </g>
      <g class="&lt;Group&gt;">
        <g class="&lt;Group&gt;">
          <path fill="#74C3AE" d="M188.874 239.9c.9-.9.9-2.4 0-3.4-.9-.9-2.4-.9-3.3 0-.9.9-1 2.4 0 3.3.9 1 2.4 1 3.3.1Z" class="&lt;Path&gt;"/>
          <path fill="#6ECFF5" d="M188.874 239.9c.9-.9.9-2.4 0-3.4-.9-.9-2.4-.9-3.3 0-.9.9-1 2.4 0 3.3.9 1 2.4 1 3.3.1Z" class="&lt;Path&gt;"/>
          <g class="&lt;Group&gt;" style="mix-blend-mode:multiply">
            <g class="&lt;Group&gt;">
              <path fill="#CACAC9" d="M186.074 237.5c-.6.6-1 1.1-.9 1.9-.5-.9-.4-2.2.4-2.9.9-.9 2.4-.9 3.3 0 .2.2.4.6.5.8-.8-.7-2.3-.8-3.3.2Z" class="&lt;Path&gt;"/>
            </g>
          </g>
        </g>
      </g>
      <g class="&lt;Group&gt;">
        <path fill="#F3EB18" d="m165.5 167.9-20.5 7.2 11.8-17.1 8.7 9.9Z" class="&lt;Path&gt;"/>
        <path fill="#FDBC0F" d="m164.7 159.6-7.9-1.6 8.7 9.9-.8-8.3Z" class="&lt;Path&gt;"/>
      </g>
      <g class="&lt;Group&gt;">
        <path fill="#74C3AE" d="M128.798 68.476c1.9-1.9 2-5 .1-7-1.9-1.9-5.1-1.9-7 0-1.9 1.9-2 5-.1 6.9 1.9 1.9 5.1 2 7 .1Z" class="&lt;Path&gt;"/>
        <path fill="#52B5D6" d="M128.798 68.476c1.9-1.9 2-5 .1-7-1.9-1.9-5.1-1.9-7 0-1.9 1.9-2 5-.1 6.9 1.9 1.9 5.1 2 7 .1Z" class="&lt;Path&gt;"/>
        <g class="&lt;Group&gt;" style="mix-blend-mode:multiply">
          <g class="&lt;Group&gt;">
            <path fill="#CACAC9" d="M122.998 63.476c-1.2 1.2-2.1 2.4-1.9 3.9-1-1.8-.8-4.4.8-6 1.9-1.9 5-1.8 6.9.1.4.4.9 1.2 1.1 1.7-1.7-1.6-4.9-1.7-6.9.3Z" class="&lt;Path&gt;"/>
          </g>
        </g>
      </g>
      <g class="&lt;Group&gt;">
        <path fill="#74C3AE" d="M261.211 397.279c.958 2.51 3.746 3.868 6.348 2.952 2.51-.958 3.818-3.879 2.861-6.389-.958-2.511-3.746-3.869-6.257-2.911-2.51.957-3.91 3.837-2.952 6.348Z" class="&lt;Path&gt;"/>
        <path fill="#52B5D6" d="M261.211 397.279c.958 2.51 3.746 3.868 6.348 2.952 2.51-.958 3.818-3.879 2.861-6.389-.958-2.511-3.746-3.869-6.257-2.911-2.51.957-3.91 3.837-2.952 6.348Z" class="&lt;Path&gt;"/>
        <g class="&lt;Group&gt;" style="mix-blend-mode:multiply">
          <g class="&lt;Group&gt;">
            <path fill="#CACAC9" d="M268.145 394.029c-.605-1.586-1.332-2.898-2.783-3.328 2.052-.177 4.343 1.068 5.149 3.182.958 2.51-.401 5.299-2.911 6.256-.529.202-1.463.332-2.001.31 2.155-.898 3.554-3.778 2.546-6.42Z" class="&lt;Path&gt;"/>
          </g>
        </g>
      </g>
      <g class="&lt;Group&gt;">
        <path fill="#DD4297" d="M309.174 130.2c.1-.8-.3-1.5-1-1.7-.7-.2-1.5.2-1.7.9-.2.8.2 1.5 1 1.7.7.2 1.5-.2 1.7-.9Z" class="&lt;Path&gt;"/>
      </g>
      <g class="&lt;Group&gt;">
        <path fill="#6A4C9E" d="M54.8 49.4 39 32l-7 8.7 22.8 8.7Z" class="&lt;Path&gt;"/>
        <path fill="#512E8D" d="m39 32-1.3 6.7-5.7 2 7-8.7Z" class="&lt;Path&gt;"/>
        <path fill="#9B82BB" d="M54.8 49.4 37.7 38.7l-5.7 2 22.8 8.7Z" class="&lt;Path&gt;"/>
      </g>
      <g class="&lt;Group&gt;">
        <path fill="#6A4C9E" d="m341.708 130 1.746 23.438 10.871-2.549L341.708 130Z" class="&lt;Path&gt;"/>
        <path fill="#512E8D" d="m343.454 153.438 5.148-4.481 5.723 1.931-10.871 2.55Z" class="&lt;Path&gt;"/>
        <path fill="#9B82BB" d="m341.708 130 6.894 18.957 5.723 1.931L341.708 130Z" class="&lt;Path&gt;"/>
      </g>
      <g class="&lt;Group&gt;">
        <path fill="#6A4C9E" d="m208 174 11.1 16.3 6.9-6.4-18-9.9Z" class="&lt;Path&gt;"/>
        <path fill="#512E8D" d="m219.1 190.3 1.9-5.3 5-1.1-6.9 6.4Z" class="&lt;Path&gt;"/>
        <path fill="#9B82BB" d="m208 174 13 11 5-1.1-18-9.9Z" class="&lt;Path&gt;"/>
      </g>
      <g class="&lt;Group&gt;">
        <path fill="#6A4C9E" d="m394.274 562.1 11 16.3 6.9-6.4-17.9-9.9Z" class="&lt;Path&gt;"/>
        <path fill="#512E8D" d="m405.274 578.4 1.9-5.3 5-1.1-6.9 6.4Z" class="&lt;Path&gt;"/>
        <path fill="#9B82BB" d="m394.274 562.1 12.9 11 5-1.1-17.9-9.9Z" class="&lt;Path&gt;"/>
      </g>
      <g class="&lt;Group&gt;">
        <path fill="#74C3AE" d="M177.774 5.4c1.8-1.7 1.8-4.5.1-6.2-1.7-1.8-4.5-1.8-6.3-.1-1.7 1.7-1.7 4.5 0 6.3 1.7 1.7 4.5 1.8 6.2 0Z" class="&lt;Path&gt;"/>
        <path fill="#52B5D6" d="M177.774 5.4c1.8-1.7 1.8-4.5.1-6.2-1.7-1.8-4.5-1.8-6.3-.1-1.7 1.7-1.7 4.5 0 6.3 1.7 1.7 4.5 1.8 6.2 0Z" class="&lt;Path&gt;"/>
        <g class="&lt;Group&gt;" style="mix-blend-mode:multiply">
          <g class="&lt;Group&gt;">
            <path fill="#CACAC9" d="M172.574 1c-1 1-1.9 2.1-1.7 3.5-.9-1.7-.7-4 .7-5.4 1.7-1.7 4.5-1.7 6.3.1.3.3.7 1 .9 1.5-1.5-1.5-4.3-1.5-6.2.3Z" class="&lt;Path&gt;"/>
          </g>
        </g>
      </g>
      <g class="&lt;Group&gt;">
        <path fill="#74C3AE" d="M265.376 113.476c1.9-1.9 2-5 .1-7-1.9-1.9-5-1.9-7 0-1.9 1.9-2 5-.1 6.9 1.9 2 5.1 2 7 .1Z" class="&lt;Path&gt;"/>
        <path fill="#52B5D6" d="M265.376 113.476c1.9-1.9 2-5 .1-7-1.9-1.9-5-1.9-7 0-1.9 1.9-2 5-.1 6.9 1.9 2 5.1 2 7 .1Z" class="&lt;Path&gt;"/>
        <g class="&lt;Group&gt;" style="mix-blend-mode:multiply">
          <g class="&lt;Group&gt;">
            <path fill="#CACAC9" d="M259.576 108.476c-1.2 1.2-2.1 2.4-1.9 3.9-1-1.8-.8-4.4.8-6 1.9-1.9 5-1.8 6.9.1.4.4.9 1.2 1.1 1.7-1.7-1.6-4.9-1.7-6.9.3Z" class="&lt;Path&gt;"/>
          </g>
        </g>
      </g>
      <g class="&lt;Group&gt;">
        <path fill="#74C3AE" d="M18.774 337c1-1 1-2.5.1-3.5-1-1-2.6-1-3.6-.1-1 1-1 2.6 0 3.6s2.6 1 3.5 0Z" class="&lt;Path&gt;"/>
        <path fill="#52B5D6" d="M18.774 337c1-1 1-2.5.1-3.5-1-1-2.6-1-3.6-.1-1 1-1 2.6 0 3.6s2.6 1 3.5 0Z" class="&lt;Path&gt;"/>
        <g class="&lt;Group&gt;" style="mix-blend-mode:multiply">
          <g class="&lt;Group&gt;">
            <path fill="#CACAC9" d="M15.874 334.5c-.6.6-1.1 1.2-1 2-.5-1-.4-2.3.4-3.1 1-.9 2.6-.9 3.5.1.3.2.5.6.6.8-.9-.8-2.5-.8-3.5.2Z" class="&lt;Path&gt;"/>
          </g>
        </g>
      </g>
      <g class="&lt;Group&gt;">
        <path fill="#74C3AE" d="M266.674 569.1c1-1 1-2.6 0-3.6-.9-.9-2.5-1-3.5 0s-1 2.6 0 3.6c.9.9 2.5 1 3.5 0Z" class="&lt;Path&gt;"/>
        <path fill="#52B5D6" d="M266.674 569.1c1-1 1-2.6 0-3.6-.9-.9-2.5-1-3.5 0s-1 2.6 0 3.6c.9.9 2.5 1 3.5 0Z" class="&lt;Path&gt;"/>
        <g class="&lt;Group&gt;" style="mix-blend-mode:multiply">
          <g class="&lt;Group&gt;">
            <path fill="#CACAC9" d="M263.674 566.6c-.6.6-1 1.2-.9 2-.5-1-.4-2.3.4-3.1 1-1 2.5-1 3.5 0 .2.3.5.6.6.9-.9-.8-2.5-.8-3.6.2Z" class="&lt;Path&gt;"/>
          </g>
        </g>
      </g>
      <g class="&lt;Group&gt;">
        <path fill="#74C3AE" d="M423.374 450.4c1-.9 1-2.5.1-3.5-1-1-2.6-1-3.6 0-1 .9-1 2.5 0 3.5.9 1 2.5 1 3.5 0Z" class="&lt;Path&gt;"/>
        <path fill="#ED4A97" d="M423.374 450.4c1-.9 1-2.5.1-3.5-1-1-2.6-1-3.6 0-1 .9-1 2.5 0 3.5.9 1 2.5 1 3.5 0Z" class="&lt;Path&gt;"/>
        <g class="&lt;Group&gt;" style="mix-blend-mode:multiply">
          <g class="&lt;Group&gt;">
            <path fill="#CACAC9" d="M420.474 447.9c-.6.6-1.1 1.2-1 2-.5-.9-.4-2.3.4-3 1-1 2.6-1 3.5 0 .2.2.5.6.6.8-.9-.8-2.5-.8-3.5.2Z" class="&lt;Path&gt;"/>
          </g>
        </g>
      </g>
      <g class="&lt;Group&gt;">
        <path fill="#6A4C9E" d="m218 417.7 8.9-5.7 6.1 17.6-15-11.9Z" class="&lt;Path&gt;"/>
        <path fill="#512E8D" d="m218 417.7 2.2 5.1 12.8 6.8-15-11.9Z" class="&lt;Path&gt;"/>
      </g>
      <g class="&lt;Group&gt;">
        <path fill="#F9A419" d="m17.874 202.8 9.2-6.9 8 18.7-17.2-11.8Z" class="&lt;Path&gt;"/>
        <path fill="#F26E21" d="m17.874 202.8 2.7 5.4 14.5 6.4-17.2-11.8Z" class="&lt;Path&gt;"/>
      </g>
      <g class="&lt;Group&gt;">
        <path fill="#F9A419" d="m146 1.9 9.2-6.9 8 18.7L146 1.9Z" class="&lt;Path&gt;"/>
        <path fill="#F26E21" d="m146 1.9 2.7 5.4 14.5 6.4L146 1.9Z" class="&lt;Path&gt;"/>
      </g>
      <g class="&lt;Group&gt;">
        <path fill="#F9A419" d="m400.1 279.6-7.9 8.3L381 271l19.1 8.6Z" class="&lt;Path&gt;"/>
        <path fill="#F26E21" d="m400.1 279.6-3.7-4.8L381 271l19.1 8.6Z" class="&lt;Path&gt;"/>
      </g>
      <g class="&lt;Group&gt;">
        <path fill="#F9A419" d="m64.1 545.6-7.9 8.3L45 537l19.1 8.6Z" class="&lt;Path&gt;"/>
        <path fill="#F26E21" d="m64.1 545.6-3.7-4.8L45 537l19.1 8.6Z" class="&lt;Path&gt;"/>
      </g>
      <g class="&lt;Group&gt;">
        <path fill="#FAA72C" d="m276.1 583.5-7.9 8.4L257 575l19.1 8.5Z" class="&lt;Path&gt;"/>
        <path fill="#F26E21" d="m276.1 583.5-3.7-4.8L257 575l19.1 8.5Z" class="&lt;Path&gt;"/>
      </g>
      <g class="&lt;Group&gt;">
        <path fill="#F9A419" d="m79 336.5-7.8 8.4L60 328l19 8.5Z" class="&lt;Path&gt;"/>
        <path fill="#F26E21" d="m79 336.5-3.6-4.8L60 328l19 8.5Z" class="&lt;Path&gt;"/>
      </g>
      <g class="&lt;Group&gt;">
        <path fill="#E64B93" d="m192.9 497.5-5.1-6.3 1.3-5.2 3.8 11.5Z" class="&lt;Path&gt;"/>
        <path fill="#E77892" d="m182 494.3 5.8-3.1 1.3-5.2-5.4 3-1.7 5.3Z" class="&lt;Path&gt;"/>
        <path fill="#C74391" d="m192.9 497.5-10.9-3.2 5.8-3.1 5.1 6.3Z" class="&lt;Path&gt;"/>
      </g>
      <g class="&lt;Group&gt;">
        <path fill="#E64B93" d="m260.274 291.7 5.7 5.7-.8 5.3-4.9-11Z" class="&lt;Path&gt;"/>
        <path fill="#E77892" d="m271.474 293.7-5.5 3.7-.8 5.3 5.1-3.6 1.2-5.4Z" class="&lt;Path&gt;"/>
        <path fill="#C74391" d="m260.274 291.7 11.2 2-5.5 3.7-5.7-5.7Z" class="&lt;Path&gt;"/>
      </g>
      <g class="&lt;Group&gt;">
        <path fill="#E64B93" d="m393 94 5.7 5.7-.8 5.3-4.9-11Z" class="&lt;Path&gt;"/>
        <path fill="#E77892" d="m404.2 96-5.5 3.7-.8 5.3 5.2-3.5 1.1-5.5Z" class="&lt;Path&gt;"/>
        <path fill="#C74391" d="m393 94 11.2 2-5.5 3.7L393 94Z" class="&lt;Path&gt;"/>
      </g>
      <g class="&lt;Group&gt;">
        <path fill="#E64B93" d="m337.227 451.737-7.836 1.89-4.105-3.447 11.941 1.557Z" class="&lt;Path&gt;"/>
        <path fill="#E77892" d="m329.679 460.25-.288-6.622-4.105-3.447.274 6.262 4.119 3.807Z" class="&lt;Path&gt;"/>
        <path fill="#C74391" d="m337.227 451.737-7.548 8.513-.288-6.622 7.836-1.891Z" class="&lt;Path&gt;"/>
      </g>
      <g class="&lt;Group&gt;">
        <path fill="#7055A3" d="M315.574 270.7c0-2.1-1.8-3.9-3.9-3.9-2.2 0-3.9 1.8-3.9 3.9 0 2.1 1.7 3.9 3.9 3.9 2.1 0 3.9-1.8 3.9-3.9Z" class="&lt;Path&gt;"/>
        <g class="&lt;Group&gt;" style="mix-blend-mode:multiply">
          <g class="&lt;Group&gt;">
            <path fill="#CACAC9" d="M309.574 271.2c0 1.3.1 2.5 1.1 3.3-1.6-.5-2.9-2-2.9-3.8 0-2.1 1.7-3.9 3.9-3.9.4 0 1.1.2 1.5.3-1.8.1-3.6 1.9-3.6 4.1Z" class="&lt;Path&gt;"/>
          </g>
        </g>
      </g>
      <g class="&lt;Group&gt;">
        <g class="&lt;Group&gt;">
          <path fill="#74C3AE" d="M404.534-3.313c-.917-.882-2.417-.853-3.399.066a2.354 2.354 0 0 0 .063 3.3c.917.882 2.419.953 3.299-.064a2.269 2.269 0 0 0 .037-3.302Z" class="&lt;Path&gt;"/>
          <path fill="#6ECFF5" d="M404.534-3.313c-.917-.882-2.417-.853-3.399.066a2.354 2.354 0 0 0 .063 3.3c.917.882 2.419.953 3.299-.064a2.269 2.269 0 0 0 .037-3.302Z" class="&lt;Path&gt;"/>
          <g class="&lt;Group&gt;" style="mix-blend-mode:multiply">
            <g class="&lt;Group&gt;">
              <path fill="#CACAC9" d="M402.188-.467c.612.588 1.119.979 1.917.863-.89.517-2.192.442-2.907-.344a2.354 2.354 0 0 1-.063-3.3c.196-.203.592-.41.79-.515-.685.814-.756 2.315.263 3.296Z" class="&lt;Path&gt;"/>
            </g>
          </g>
        </g>
      </g>
      <g class="&lt;Group&gt;">
        <path fill="#6A4C9E" d="m359.986 15.446 16.084-11.41-6.532-6.776-9.552 18.186Z" class="&lt;Path&gt;"/>
        <path fill="#512E8D" d="m376.07 4.036-5.336-1.798-1.196-4.978 6.532 6.776Z" class="&lt;Path&gt;"/>
        <path fill="#9B82BB" d="m359.986 15.446 10.748-13.208-1.196-4.978-9.552 18.186Z" class="&lt;Path&gt;"/>
      </g>
      <g class="&lt;Group&gt;">
        <path fill="#F3EB18" d="m416.5 383.9-20.5 7.2 11.8-17.1 8.7 9.9Z" class="&lt;Path&gt;"/>
        <path fill="#FDBC0F" d="m415.7 375.6-7.9-1.6 8.7 9.9-.8-8.3Z" class="&lt;Path&gt;"/>
      </g>
      <g class="&lt;Group&gt;">
        <g class="&lt;Group&gt;">
          <path fill="#E2EDC3" stroke="#050505" stroke-linecap="round" stroke-linejoin="round" stroke-width=".4" d="M379.632 496.399c.108-.077.209-.109.302-.093.058.081.593.311.674.253l.176.244c-.023.139-.069.418-.231.535-.108.078-.209.109-.302.094 0 0-.617-.172-.675-.253-.093-.016-.132-.07-.117-.163-.035-.22.01-.5.173-.617Z" class="&lt;Path&gt;"/>
          <path fill="#E0EFE1" stroke="#050505" stroke-linecap="round" stroke-linejoin="round" stroke-width=".4" d="M380.134 497.269c.036.221.175.244.419.069.162-.117.208-.396.231-.536-.036-.221-.234-.325-.419-.068a.552.552 0 0 0-.231.535Z" class="&lt;Path&gt;"/>
        </g>
        <g class="&lt;Group&gt;">
          <path fill="#E2EDC3" stroke="#050505" stroke-linecap="round" stroke-linejoin="round" stroke-width=".4" d="M380.791 495.442c.108-.078.209-.109.302-.094 0 0 .617.173.675.254.093.015.132.069.117.162.035.221-.069.419-.173.617-.108.078-.208.109-.301.094-.059-.081-.594-.312-.734-.335l-.117-.162a.553.553 0 0 1 .231-.536Z" class="&lt;Path&gt;"/>
          <path fill="#E0EFE1" stroke="#050505" stroke-linecap="round" stroke-linejoin="round" stroke-width=".4" d="M381.294 496.312c.058.082.256.185.418.069.104-.198.208-.396.173-.617-.036-.221-.176-.244-.338-.127-.162.117-.289.455-.253.675Z" class="&lt;Path&gt;"/>
        </g>
        <g class="&lt;Group&gt;">
          <path fill="#E2EDC3" stroke="#050505" stroke-linecap="round" stroke-linejoin="round" stroke-width=".4" d="M378.531 497.438c.108-.078.181-.09.22-.036.082-.058.617.172.757.195l.116.163c.036.22-.01.499-.253.675-.108.077-.182.089-.221.035-.058-.081-.675-.253-.675-.253-.093-.016-.132-.07-.117-.163-.116-.162.01-.5.173-.616Z" class="&lt;Path&gt;"/>
          <path fill="#E0EFE1" stroke="#050505" stroke-linecap="round" stroke-linejoin="round" stroke-width=".4" d="M379.033 498.308c.036.221.176.243.338.127.243-.176.289-.455.253-.675-.116-.163-.256-.186-.418-.069-.163.117-.208.396-.173.617Z" class="&lt;Path&gt;"/>
        </g>
        <path fill="#6ACBDF" stroke="#050505" stroke-linecap="round" stroke-linejoin="round" stroke-width=".4" d="m386.341 496.993-3.709 3.407-1.788.424-1.909-.598-.178-1.104 7.383-3.093.201.964Z" class="&lt;Path&gt;"/>
        <path fill="#6ACBDF" stroke="#050505" stroke-linecap="round" stroke-linejoin="round" stroke-width=".4" d="m380.844 500.824-7.96 7.943-2.817-1.176 10.599-7.87.178 1.103Z" class="&lt;Path&gt;"/>
        <path fill="#ED499A" stroke="#050505" stroke-linecap="round" stroke-linejoin="round" stroke-width=".4" d="M352.576 515.984c-.424-1.789 2.034-3.68 3.868-4.384 1.916-.762 3.857-.803 4.935-1.702 1.137-.817 1.572-2.609 3.605-3.208a9.318 9.318 0 0 1 4.905-.203c1.012.381 1.827.657 2.723.875.873.357 1.989.54 2.32 2.026.178 1.104.638 3.114.991 4.461.214 1.324-1.202 2.097-2.153 2.658-.87.502-2.065 1.239-1.897 2.842.168 1.604-1.021 4.061-4.482 5.072-3.321 1.034-5.334.634-8.674-.413-3.258-1.105-4.725-1.774-5.15-3.563-.165-.744-.79-3.497-.991-4.461Z" class="&lt;Path&gt;"/>
        <g class="&lt;Group&gt;">
          <path fill="#69BC45" d="M369.209 508.454c1.15-.457 2.276-.775 3.322-1.034-.815-.277-1.63-.553-2.642-.933a9.305 9.305 0 0 0-4.905.202c-2.033.6-2.468 2.392-3.605 3.209-1.078.899-3.019.94-4.935 1.702-1.834.704-4.292 2.595-3.868 4.384.201.964.826 3.717.991 4.461.425 1.788 1.892 2.458 5.15 3.563 1.571.471 2.805.816 4.061 1.021-.531-2.451-1.322-5.948-1.652-7.434-.826-3.718 4.113-7.64 8.083-9.141Z" class="&lt;Path&gt;" style="mix-blend-mode:multiply"/>
          <path fill="#69BC45" d="M366.787 524.609c-.414-2.289-1.312-6.448-1.759-8.097-.768-3.636 3.869-7.464 7.782-9.047-.093-.015-.159-.049-.198-.104l-.081.059c-1.046.259-2.172.577-3.322 1.034-3.971 1.501-8.909 5.423-8.083 9.141.33 1.487 1.121 4.983 1.652 7.434 1.279.066 2.499.05 4.009-.42Zm15.309-21.359c-.496.11-1.019.24-1.568.389a16.491 16.491 0 0 0-2.423 2.112c1.38-.993 2.818-1.905 4.27-2.456-.093-.015-.159-.05-.198-.104a9.336 9.336 0 0 0-.081.059Z" class="&lt;Path&gt;" opacity=".3" style="mix-blend-mode:multiply"/>
        </g>
        <path fill="#ED499A" stroke="#050505" stroke-linecap="round" stroke-linejoin="round" stroke-width=".4" d="M374.932 509.388c.295 1.267-1.202 2.097-2.072 2.6-.952.561-2.065 1.239-1.978 2.901.168 1.603-1.08 3.979-4.482 5.072-3.322 1.034-5.334.633-8.593-.472-3.339-1.047-4.806-1.716-5.231-3.505-.424-1.789 2.034-3.68 3.868-4.384 1.916-.762 3.857-.803 4.935-1.702 1.137-.817 1.572-2.609 3.605-3.208a9.318 9.318 0 0 1 4.905-.203c1.012.381 1.827.657 2.723.875.873.357 1.989.54 2.32 2.026Z" class="&lt;Path&gt;"/>
        <path fill="#69BC45" d="M373.608 516.623c-.366-1.707-.733-3.415-.992-4.461-.789.445-1.601 1.029-1.725 2.227.295 1.266.661 2.973.992 4.46.042-1.139.936-1.781 1.725-2.226Z" class="&lt;Path&gt;" opacity=".3" style="mix-blend-mode:multiply"/>
        <path fill="#3953A4" stroke="#050505" stroke-linecap="round" stroke-linejoin="round" stroke-width=".4" d="M357.768 521.489c.175.243.431.428.652.393.22-.036.266-.315.091-.559-.175-.243-.432-.428-.652-.393-.221.036-.267.315-.091.559Z" class="&lt;Path&gt;"/>
        <path fill="#D28CBC" stroke="#050505" stroke-linecap="round" stroke-linejoin="round" stroke-width=".4" d="m386.14 496.029-3.767 3.326-1.707.366-1.99-.54-.178-1.104 3.767-3.325 3.875 1.277Z" class="&lt;Path&gt;"/>
        <path fill="#69BC45" stroke="#050505" stroke-linecap="round" stroke-linejoin="round" stroke-width=".4" d="m380.666 499.72-8.054 7.641-2.723-.874 8.787-7.306 1.99.539Z" class="&lt;Path&gt;"/>
        <g class="&lt;Group&gt;">
          <path fill="#69BC45" stroke="#050505" stroke-linecap="round" stroke-linejoin="round" stroke-width=".4" d="m377.923 499.846 2.048.62-.754.666-2.048-.621.754-.665Z" class="&lt;Path&gt;"/>
          <path fill="#70BF57" stroke="#050505" stroke-linecap="round" stroke-linejoin="round" stroke-width=".4" d="m377.169 500.511 2.048.621-.753.665-2.129-.563.834-.723Zm-1.646 1.307 2.246.725-.754.665-2.327-.666.835-.724Z" class="&lt;Path&gt;"/>
          <path fill="#69BC45" stroke="#050505" stroke-linecap="round" stroke-linejoin="round" stroke-width=".4" d="m376.335 501.235 2.129.562-.695.746-2.246-.725.812-.583Z" class="&lt;Path&gt;"/>
          <path fill="#70BF57" stroke="#050505" stroke-linecap="round" stroke-linejoin="round" stroke-width=".4" d="m378.676 499.181 1.99.539-.695.747-2.048-.621.753-.665Z" class="&lt;Path&gt;"/>
          <path stroke="#050505" stroke-linecap="round" stroke-linejoin="round" stroke-width=".4" d="m378.676 499.181 1.99.539" class="&lt;Path&gt;"/>
          <path fill="#69BC45" stroke="#050505" stroke-linecap="round" stroke-linejoin="round" stroke-width=".4" d="m371.454 505.238 2.665.793-.754.665-2.665-.793.754-.665Z" class="&lt;Path&gt;"/>
          <path stroke="#050505" stroke-linecap="round" stroke-linejoin="round" stroke-width=".4" d="m371.239 506.994 1.373.367" class="&lt;Path&gt;"/>
          <path fill="#70BF57" stroke="#050505" stroke-linecap="round" stroke-linejoin="round" stroke-width=".4" d="m369.889 506.487.811-.584 2.665.793-.753.665-1.373-.367-1.35-.507Z" class="&lt;Path&gt;"/>
          <path fill="#69BC45" stroke="#050505" stroke-linecap="round" stroke-linejoin="round" stroke-width=".4" d="m374.688 502.542 2.327.666-.753.666-2.327-.667.753-.665Z" class="&lt;Path&gt;"/>
          <path fill="#70BF57" stroke="#050505" stroke-linecap="round" stroke-linejoin="round" stroke-width=".4" d="m372.288 504.514 2.526.771-.695.746-2.665-.793.834-.724Z" class="&lt;Path&gt;"/>
          <path fill="#69BC45" stroke="#050505" stroke-linecap="round" stroke-linejoin="round" stroke-width=".4" d="m373.042 503.849 2.525.771-.753.665-2.526-.77.754-.666Z" class="&lt;Path&gt;"/>
          <path fill="#70BF57" stroke="#050505" stroke-linecap="round" stroke-linejoin="round" stroke-width=".4" d="m373.935 503.207 2.327.667-.695.746-2.525-.771.893-.642Z" class="&lt;Path&gt;"/>
        </g>
        <g class="&lt;Group&gt;">
          <path fill="#70BF57" stroke="#050505" stroke-linecap="round" stroke-linejoin="round" stroke-width=".4" d="m369.194 507.234 2.804.816-.835.723-2.723-.874.754-.665Z" class="&lt;Path&gt;"/>
          <path fill="#69BC45" stroke="#050505" stroke-linecap="round" stroke-linejoin="round" stroke-width=".4" d="m369.889 506.487 2.723.875-.614.688-2.804-.816.695-.747Zm-1.449 1.412 2.723.874-.695.747-2.781-.956.753-.665Zm-2.283 2.134.754-.665 2.804.817-.695.746-2.863-.898Z" class="&lt;Path&gt;"/>
          <path fill="#69BC45" stroke="#050505" stroke-linecap="round" stroke-linejoin="round" stroke-width=".4" d="m368.695 511.164-2.966-.699.428-.432 2.863.898-.325.233Z" class="&lt;Path&gt;"/>
          <path fill="#70BF57" stroke="#050505" stroke-linecap="round" stroke-linejoin="round" stroke-width=".4" d="m367.687 508.564 2.781.956-.753.665-2.804-.816.776-.805Z" class="&lt;Path&gt;"/>
        </g>
        <g class="&lt;Path&gt;">
          <path fill="#6ACBDF" d="m372.949 507.488-4.254 3.676 4.67-4.468"/>
          <path stroke="#050505" stroke-linecap="round" stroke-linejoin="round" stroke-width=".4" d="m372.949 507.488-4.254 3.676 4.67-4.468"/>
        </g>
        <path fill="#56B846" stroke="#050505" stroke-linecap="round" stroke-linejoin="round" stroke-width=".4" d="m382.373 499.354-1.707.366.178 1.104 1.788-.424-.259-1.046Z" class="&lt;Path&gt;"/>
        <path fill="#6ACBDF" stroke="#050505" stroke-linecap="round" stroke-linejoin="round" stroke-width=".4" d="m379.764 497.782 2.364-2.193c.244-.175.546-.269.802-.084.279.046.396.208.234.325l-2.446 2.251a.868.868 0 0 1-.802.085c-.198-.104-.314-.267-.152-.384Zm1.652.413 2.446-2.252c.162-.116.522-.129.72-.025.279.045.396.208.292.405l-2.504 2.171c-.104.198-.464.211-.743.165-.256-.185-.373-.347-.211-.464Z" class="&lt;Path&gt;"/>
        <g class="&lt;Group&gt;">
          <path fill="#E2EDC3" stroke="#050505" stroke-linecap="round" stroke-linejoin="round" stroke-width=".4" d="M384.263 497.872c.109-.078.209-.109.302-.094 0 0 .617.172.675.253.093.016.132.07.117.163.036.221-.068.418-.172.616-.109.078-.209.11-.302.095-.059-.082-.594-.312-.734-.335l-.117-.163c.023-.139.069-.418.231-.535Z" class="&lt;Path&gt;"/>
          <path fill="#E0EFE1" stroke="#050505" stroke-linecap="round" stroke-linejoin="round" stroke-width=".4" d="M384.766 498.742c.117.162.256.185.418.068.104-.198.208-.396.173-.616-.036-.221-.175-.244-.338-.127-.162.117-.289.454-.253.675Z" class="&lt;Path&gt;"/>
        </g>
        <g class="&lt;Group&gt;">
          <path fill="#E2EDC3" stroke="#050505" stroke-linecap="round" stroke-linejoin="round" stroke-width=".4" d="M385.445 496.775c.054-.039.128-.051.221-.035l.675.253c.093.015.132.069.117.162.117.163-.01.5-.172.617-.109.078-.182.09-.221.036-.14-.023-.675-.254-.756-.195l-.117-.163c-.036-.221.091-.558.253-.675Z" class="&lt;Path&gt;"/>
          <path fill="#E0EFE1" stroke="#050505" stroke-linecap="round" stroke-linejoin="round" stroke-width=".4" d="M385.948 497.645c.036.221.175.244.337.127.163-.117.29-.454.173-.616.023-.14-.175-.244-.338-.127-.104.198-.208.396-.172.616Z" class="&lt;Path&gt;"/>
        </g>
        <g class="&lt;Group&gt;">
          <path fill="#E2EDC3" stroke="#050505" stroke-linecap="round" stroke-linejoin="round" stroke-width=".4" d="M383.104 498.829c.108-.078.209-.109.302-.094.058.081.594.312.675.254.093.015.151.096.175.243-.023.14-.068.419-.231.536-.108.078-.209.109-.302.094 0 0-.616-.173-.675-.254-.093-.015-.132-.069-.116-.162-.036-.221.068-.419.172-.617Z" class="&lt;Path&gt;"/>
          <path fill="#E0EFE1" stroke="#050505" stroke-linecap="round" stroke-linejoin="round" stroke-width=".4" d="M383.607 499.699c.035.221.256.185.418.068.163-.116.208-.395.231-.535-.036-.221-.234-.325-.338-.127-.243.175-.347.373-.311.594Z" class="&lt;Path&gt;"/>
        </g>
        <path fill="#050505" stroke="#050505" stroke-linecap="round" stroke-linejoin="round" stroke-width=".4" d="M363.027 512.532c.201.964 1.713 1.354 3.34 1.046 1.707-.366 2.808-1.404 2.607-2.368-.201-.964-1.69-1.494-3.339-1.047-1.627.308-2.809 1.405-2.608 2.369Z" class="&lt;Path&gt;"/>
        <path fill="#69BC45" stroke="#050505" stroke-linecap="round" stroke-linejoin="round" stroke-width=".4" d="m363.447 516.541-4.911-1.518.13.522 4.911 1.519-.13-.523Z" class="&lt;Path&gt;"/>
        <path fill="#6ACBDF" stroke="#050505" stroke-linecap="round" stroke-linejoin="round" stroke-width=".4" d="m364.201 515.875-.754.666.13.522.753-.665-.129-.523Z" class="&lt;Path&gt;"/>
        <path fill="#FEFEFE" stroke="#050505" stroke-linecap="round" stroke-linejoin="round" stroke-width=".4" d="m359.348 514.439 4.853 1.437-.754.665-4.911-1.518.812-.584Z" class="&lt;Path&gt;"/>
      </g>
      <g class="&lt;Group&gt;">
        <g class="&lt;Group&gt;">
          <path fill="#E2EDC3" stroke="#050505" stroke-linecap="round" stroke-linejoin="round" stroke-width=".4" d="M296.851 324.399c-.109-.077-.209-.109-.302-.093-.059.081-.594.311-.675.253l-.176.244c.023.139.069.418.231.535.108.078.209.109.302.094 0 0 .617-.172.675-.253.093-.016.132-.07.117-.163.035-.22-.01-.5-.172-.617Z" class="&lt;Path&gt;"/>
          <path fill="#E0EFE1" stroke="#050505" stroke-linecap="round" stroke-linejoin="round" stroke-width=".4" d="M296.348 325.269c-.036.221-.175.244-.419.069-.162-.117-.208-.396-.231-.536.036-.221.234-.325.419-.068a.55.55 0 0 1 .231.535Z" class="&lt;Path&gt;"/>
        </g>
        <g class="&lt;Group&gt;">
          <path fill="#E2EDC3" stroke="#050505" stroke-linecap="round" stroke-linejoin="round" stroke-width=".4" d="M295.691 323.442c-.108-.078-.209-.109-.302-.094 0 0-.616.173-.675.254-.093.015-.132.069-.117.162-.035.221.069.419.173.617.108.078.209.109.302.094.058-.081.593-.312.733-.335l.117-.162a.549.549 0 0 0-.231-.536Z" class="&lt;Path&gt;"/>
          <path fill="#E0EFE1" stroke="#050505" stroke-linecap="round" stroke-linejoin="round" stroke-width=".4" d="M295.188 324.312c-.058.082-.256.185-.418.069-.104-.198-.208-.396-.172-.617.035-.221.175-.244.337-.127.162.117.289.455.253.675Z" class="&lt;Path&gt;"/>
        </g>
        <g class="&lt;Group&gt;">
          <path fill="#E2EDC3" stroke="#050505" stroke-linecap="round" stroke-linejoin="round" stroke-width=".4" d="M297.952 325.438c-.109-.078-.182-.09-.221-.036-.081-.058-.617.172-.757.195l-.116.163c-.036.22.01.499.253.675.108.077.182.089.221.035.058-.081.675-.253.675-.253.093-.016.132-.07.117-.163.117-.162-.01-.5-.172-.616Z" class="&lt;Path&gt;"/>
          <path fill="#E0EFE1" stroke="#050505" stroke-linecap="round" stroke-linejoin="round" stroke-width=".4" d="M297.449 326.308c-.036.221-.175.243-.338.127-.243-.176-.289-.455-.253-.675.116-.163.256-.186.418-.069.163.117.208.396.173.617Z" class="&lt;Path&gt;"/>
        </g>
        <path fill="#6ACBDF" stroke="#050505" stroke-linecap="round" stroke-linejoin="round" stroke-width=".4" d="m290.141 324.993 3.709 3.407 1.788.424 1.909-.598.178-1.104-7.383-3.093-.201.964Z" class="&lt;Path&gt;"/>
        <path fill="#6ACBDF" stroke="#050505" stroke-linecap="round" stroke-linejoin="round" stroke-width=".4" d="m295.638 328.824 7.96 7.943 2.817-1.176-10.599-7.87-.178 1.103Z" class="&lt;Path&gt;"/>
        <path fill="#ED499A" stroke="#050505" stroke-linecap="round" stroke-linejoin="round" stroke-width=".4" d="M323.906 343.984c.424-1.789-2.034-3.68-3.868-4.384-1.916-.762-3.857-.803-4.935-1.702-1.137-.817-1.572-2.609-3.605-3.208a9.318 9.318 0 0 0-4.905-.203c-1.012.381-1.827.657-2.723.875-.873.357-1.989.54-2.32 2.026-.178 1.104-.638 3.114-.991 4.461-.214 1.324 1.202 2.097 2.153 2.658.87.502 2.065 1.239 1.897 2.842-.168 1.604 1.021 4.061 4.482 5.072 3.321 1.034 5.334.634 8.674-.413 3.258-1.105 4.725-1.774 5.15-3.563.165-.744.79-3.497.991-4.461Z" class="&lt;Path&gt;"/>
        <g class="&lt;Group&gt;">
          <path fill="#69BC45" d="M307.273 336.454c-1.15-.457-2.276-.775-3.322-1.034.815-.277 1.63-.553 2.642-.933a9.305 9.305 0 0 1 4.905.202c2.033.6 2.469 2.392 3.605 3.209 1.078.899 3.019.94 4.935 1.702 1.834.704 4.292 2.595 3.868 4.384-.201.964-.826 3.717-.991 4.461-.425 1.788-1.891 2.458-5.15 3.563-1.571.471-2.805.816-4.061 1.021.531-2.451 1.322-5.948 1.652-7.434.826-3.718-4.112-7.64-8.083-9.141Z" class="&lt;Path&gt;" style="mix-blend-mode:multiply"/>
          <path fill="#69BC45" d="M309.695 352.609c.415-2.289 1.312-6.448 1.759-8.097.768-3.636-3.869-7.464-7.782-9.047.094-.015.159-.049.198-.104l.082.059c1.045.259 2.172.577 3.321 1.034 3.971 1.501 8.91 5.423 8.083 9.141-.33 1.487-1.12 4.983-1.652 7.434-1.279.066-2.499.05-4.009-.42Zm-15.308-21.359c.495.11 1.018.24 1.568.389a16.482 16.482 0 0 1 2.422 2.112c-1.38-.993-2.818-1.905-4.27-2.456.094-.015.159-.05.198-.104l.082.059Z" class="&lt;Path&gt;" opacity=".3" style="mix-blend-mode:multiply"/>
        </g>
        <path fill="#ED499A" stroke="#050505" stroke-linecap="round" stroke-linejoin="round" stroke-width=".4" d="M301.55 337.388c-.295 1.267 1.202 2.097 2.072 2.6.952.561 2.065 1.239 1.978 2.901-.168 1.603 1.08 3.979 4.482 5.072 3.322 1.034 5.334.633 8.593-.472 3.34-1.047 4.806-1.716 5.231-3.505.424-1.789-2.034-3.68-3.868-4.384-1.916-.762-3.857-.803-4.935-1.702-1.137-.817-1.572-2.609-3.605-3.208a9.318 9.318 0 0 0-4.905-.203c-1.012.381-1.827.657-2.723.875-.873.357-1.989.54-2.32 2.026Z" class="&lt;Path&gt;"/>
        <path fill="#69BC45" d="M302.875 344.623c.366-1.707.732-3.415.991-4.461.789.445 1.601 1.029 1.725 2.227-.295 1.266-.661 2.973-.992 4.46-.042-1.139-.935-1.781-1.724-2.226Z" class="&lt;Path&gt;" opacity=".3" style="mix-blend-mode:multiply"/>
        <path fill="#3953A4" stroke="#050505" stroke-linecap="round" stroke-linejoin="round" stroke-width=".4" d="M318.715 349.489c-.176.243-.432.428-.653.393-.22-.036-.266-.315-.091-.559.175-.243.432-.428.653-.393.22.036.266.315.091.559Z" class="&lt;Path&gt;"/>
        <path fill="#D28CBC" stroke="#050505" stroke-linecap="round" stroke-linejoin="round" stroke-width=".4" d="m290.342 324.029 3.767 3.326 1.707.366 1.99-.54.178-1.104-3.767-3.325-3.875 1.277Z" class="&lt;Path&gt;"/>
        <path fill="#69BC45" stroke="#050505" stroke-linecap="round" stroke-linejoin="round" stroke-width=".4" d="m295.816 327.72 8.054 7.641 2.724-.874-8.788-7.306-1.99.539Z" class="&lt;Path&gt;"/>
        <g class="&lt;Group&gt;">
          <path fill="#69BC45" stroke="#050505" stroke-linecap="round" stroke-linejoin="round" stroke-width=".4" d="m298.56 327.846-2.048.62.753.666 2.048-.621-.753-.665Z" class="&lt;Path&gt;"/>
          <path fill="#70BF57" stroke="#050505" stroke-linecap="round" stroke-linejoin="round" stroke-width=".4" d="m299.313 328.511-2.048.621.753.665 2.13-.563-.835-.723Zm1.646 1.307-2.246.725.754.665 2.327-.666-.835-.724Z" class="&lt;Path&gt;"/>
          <path fill="#69BC45" stroke="#050505" stroke-linecap="round" stroke-linejoin="round" stroke-width=".4" d="m300.148 329.235-2.13.562.695.746 2.246-.725-.811-.583Z" class="&lt;Path&gt;"/>
          <path fill="#70BF57" stroke="#050505" stroke-linecap="round" stroke-linejoin="round" stroke-width=".4" d="m297.806 327.181-1.99.539.696.747 2.048-.621-.754-.665Z" class="&lt;Path&gt;"/>
          <path stroke="#050505" stroke-linecap="round" stroke-linejoin="round" stroke-width=".4" d="m297.806 327.181-1.99.539" class="&lt;Path&gt;"/>
          <path fill="#69BC45" stroke="#050505" stroke-linecap="round" stroke-linejoin="round" stroke-width=".4" d="m305.028 333.238-2.665.793.754.665 2.665-.793-.754-.665Z" class="&lt;Path&gt;"/>
          <path stroke="#050505" stroke-linecap="round" stroke-linejoin="round" stroke-width=".4" d="m305.243 334.994-1.373.367" class="&lt;Path&gt;"/>
          <path fill="#70BF57" stroke="#050505" stroke-linecap="round" stroke-linejoin="round" stroke-width=".4" d="m306.594 334.487-.812-.584-2.665.793.753.665 1.373-.367 1.351-.507Z" class="&lt;Path&gt;"/>
          <path fill="#69BC45" stroke="#050505" stroke-linecap="round" stroke-linejoin="round" stroke-width=".4" d="m301.794 330.542-2.327.666.753.666 2.327-.667-.753-.665Z" class="&lt;Path&gt;"/>
          <path fill="#70BF57" stroke="#050505" stroke-linecap="round" stroke-linejoin="round" stroke-width=".4" d="m304.194 332.514-2.526.771.695.746 2.665-.793-.834-.724Z" class="&lt;Path&gt;"/>
          <path fill="#69BC45" stroke="#050505" stroke-linecap="round" stroke-linejoin="round" stroke-width=".4" d="m303.44 331.849-2.525.771.753.665 2.526-.77-.754-.666Z" class="&lt;Path&gt;"/>
          <path fill="#70BF57" stroke="#050505" stroke-linecap="round" stroke-linejoin="round" stroke-width=".4" d="m302.547 331.207-2.327.667.695.746 2.525-.771-.893-.642Z" class="&lt;Path&gt;"/>
        </g>
        <g class="&lt;Group&gt;">
          <path fill="#70BF57" stroke="#050505" stroke-linecap="round" stroke-linejoin="round" stroke-width=".4" d="m307.289 335.234-2.805.816.835.723 2.723-.874-.753-.665Z" class="&lt;Path&gt;"/>
          <path fill="#69BC45" stroke="#050505" stroke-linecap="round" stroke-linejoin="round" stroke-width=".4" d="m306.594 334.487-2.724.875.614.688 2.805-.816-.695-.747Zm1.448 1.412-2.723.874.695.747 2.781-.956-.753-.665Zm2.283 2.134-.754-.665-2.804.817.695.746 2.863-.898Z" class="&lt;Path&gt;"/>
          <path fill="#69BC45" stroke="#050505" stroke-linecap="round" stroke-linejoin="round" stroke-width=".4" d="m307.787 339.164 2.967-.699-.429-.432-2.863.898.325.233Z" class="&lt;Path&gt;"/>
          <path fill="#70BF57" stroke="#050505" stroke-linecap="round" stroke-linejoin="round" stroke-width=".4" d="m308.795 336.564-2.781.956.753.665 2.804-.816-.776-.805Z" class="&lt;Path&gt;"/>
        </g>
        <g class="&lt;Path&gt;">
          <path fill="#6ACBDF" d="m303.533 335.488 4.254 3.676-4.67-4.468"/>
          <path stroke="#050505" stroke-linecap="round" stroke-linejoin="round" stroke-width=".4" d="m303.533 335.488 4.254 3.676-4.67-4.468"/>
        </g>
        <path fill="#56B846" stroke="#050505" stroke-linecap="round" stroke-linejoin="round" stroke-width=".4" d="m294.109 327.354 1.707.366-.178 1.104-1.788-.424.259-1.046Z" class="&lt;Path&gt;"/>
        <path fill="#6ACBDF" stroke="#050505" stroke-linecap="round" stroke-linejoin="round" stroke-width=".4" d="m296.718 325.782-2.364-2.193c-.244-.175-.546-.269-.802-.084-.279.046-.396.208-.234.325l2.446 2.251a.868.868 0 0 0 .802.085c.198-.104.314-.267.152-.384Zm-1.652.413-2.445-2.252c-.163-.116-.523-.129-.721-.025-.279.045-.396.208-.292.405l2.504 2.171c.104.198.464.211.743.165.256-.185.373-.347.211-.464Z" class="&lt;Path&gt;"/>
        <g class="&lt;Group&gt;">
          <path fill="#E2EDC3" stroke="#050505" stroke-linecap="round" stroke-linejoin="round" stroke-width=".4" d="M292.219 325.872c-.108-.078-.209-.109-.302-.094 0 0-.617.172-.675.253-.093.016-.132.07-.117.163-.035.221.069.418.173.616.108.078.208.11.301.095.059-.082.594-.312.734-.335l.117-.163c-.023-.139-.069-.418-.231-.535Z" class="&lt;Path&gt;"/>
          <path fill="#E0EFE1" stroke="#050505" stroke-linecap="round" stroke-linejoin="round" stroke-width=".4" d="M291.716 326.742c-.117.162-.256.185-.418.068-.104-.198-.208-.396-.173-.616.036-.221.175-.244.338-.127.162.117.289.454.253.675Z" class="&lt;Path&gt;"/>
        </g>
        <g class="&lt;Group&gt;">
          <path fill="#E2EDC3" stroke="#050505" stroke-linecap="round" stroke-linejoin="round" stroke-width=".4" d="M291.037 324.775c-.054-.039-.128-.051-.221-.035l-.675.253c-.093.015-.132.069-.117.162-.117.163.01.5.173.617.108.078.181.09.22.036.14-.023.675-.254.756-.195l.117-.163c.036-.221-.091-.558-.253-.675Z" class="&lt;Path&gt;"/>
          <path fill="#E0EFE1" stroke="#050505" stroke-linecap="round" stroke-linejoin="round" stroke-width=".4" d="M290.534 325.645c-.035.221-.175.244-.337.127-.163-.117-.29-.454-.173-.616-.023-.14.175-.244.338-.127.104.198.208.396.172.616Z" class="&lt;Path&gt;"/>
        </g>
        <g class="&lt;Group&gt;">
          <path fill="#E2EDC3" stroke="#050505" stroke-linecap="round" stroke-linejoin="round" stroke-width=".4" d="M293.378 326.829c-.108-.078-.209-.109-.302-.094-.058.081-.594.312-.675.254-.093.015-.151.096-.175.243.023.14.068.419.231.536.108.078.209.109.302.094 0 0 .616-.173.675-.254.093-.015.132-.069.116-.162.036-.221-.068-.419-.172-.617Z" class="&lt;Path&gt;"/>
          <path fill="#E0EFE1" stroke="#050505" stroke-linecap="round" stroke-linejoin="round" stroke-width=".4" d="M292.876 327.699c-.036.221-.257.185-.419.068-.163-.116-.208-.395-.231-.535.036-.221.234-.325.338-.127.243.175.347.373.312.594Z" class="&lt;Path&gt;"/>
        </g>
        <path fill="#050505" stroke="#050505" stroke-linecap="round" stroke-linejoin="round" stroke-width=".4" d="M313.455 340.532c-.201.964-1.713 1.354-3.339 1.046-1.708-.366-2.809-1.404-2.608-2.368.201-.964 1.69-1.494 3.34-1.047 1.626.308 2.808 1.405 2.607 2.369Z" class="&lt;Path&gt;"/>
        <path fill="#69BC45" stroke="#050505" stroke-linecap="round" stroke-linejoin="round" stroke-width=".4" d="m313.035 344.541 4.911-1.518-.13.522-4.911 1.519.13-.523Z" class="&lt;Path&gt;"/>
        <path fill="#6ACBDF" stroke="#050505" stroke-linecap="round" stroke-linejoin="round" stroke-width=".4" d="m312.282 343.875.753.666-.13.522-.753-.665.13-.523Z" class="&lt;Path&gt;"/>
        <path fill="#FEFEFE" stroke="#050505" stroke-linecap="round" stroke-linejoin="round" stroke-width=".4" d="m317.134 342.439-4.852 1.437.753.665 4.911-1.518-.812-.584Z" class="&lt;Path&gt;"/>
      </g>
      <g class="&lt;Group&gt;">
        <g class="&lt;Group&gt;">
          <path fill="#E2EDC3" stroke="#050505" stroke-linecap="round" stroke-linejoin="round" stroke-width=".4" d="M26.85 110.399c-.108-.077-.208-.109-.302-.093-.058.081-.593.311-.674.253l-.176.244c.023.139.069.418.231.535.108.078.209.109.302.094 0 0 .617-.172.675-.253.093-.016.132-.07.117-.163.035-.22-.01-.5-.172-.617Z" class="&lt;Path&gt;"/>
          <path fill="#E0EFE1" stroke="#050505" stroke-linecap="round" stroke-linejoin="round" stroke-width=".4" d="M26.348 111.269c-.036.221-.175.244-.419.069-.162-.117-.208-.396-.23-.536.035-.221.233-.325.418-.068a.55.55 0 0 1 .23.535Z" class="&lt;Path&gt;"/>
        </g>
        <g class="&lt;Group&gt;">
          <path fill="#E2EDC3" stroke="#050505" stroke-linecap="round" stroke-linejoin="round" stroke-width=".4" d="M25.691 109.442c-.108-.078-.209-.109-.302-.094 0 0-.616.173-.675.254-.093.015-.132.069-.117.162-.035.221.069.419.173.617.108.078.209.109.302.094.058-.081.594-.312.733-.335l.117-.162a.55.55 0 0 0-.23-.536Z" class="&lt;Path&gt;"/>
          <path fill="#E0EFE1" stroke="#050505" stroke-linecap="round" stroke-linejoin="round" stroke-width=".4" d="M25.188 110.312c-.058.082-.256.185-.418.069-.104-.198-.208-.396-.172-.617.035-.221.175-.244.337-.127.162.117.289.455.253.675Z" class="&lt;Path&gt;"/>
        </g>
        <g class="&lt;Group&gt;">
          <path fill="#E2EDC3" stroke="#050505" stroke-linecap="round" stroke-linejoin="round" stroke-width=".4" d="M27.951 111.438c-.108-.078-.181-.09-.22-.036-.082-.058-.617.172-.757.195l-.116.163c-.036.22.01.499.253.675.108.077.182.089.22.035.06-.081.676-.253.676-.253.093-.016.132-.07.117-.163.117-.162-.01-.5-.172-.616Z" class="&lt;Path&gt;"/>
          <path fill="#E0EFE1" stroke="#050505" stroke-linecap="round" stroke-linejoin="round" stroke-width=".4" d="M27.449 112.308c-.036.221-.176.243-.338.127-.243-.176-.289-.455-.253-.675.116-.163.256-.186.418-.069.163.117.208.396.173.617Z" class="&lt;Path&gt;"/>
        </g>
        <path fill="#6ACBDF" stroke="#050505" stroke-linecap="round" stroke-linejoin="round" stroke-width=".4" d="m20.141 110.993 3.709 3.407 1.788.424 1.909-.598.178-1.104-7.383-3.093-.201.964Z" class="&lt;Path&gt;"/>
        <path fill="#6ACBDF" stroke="#050505" stroke-linecap="round" stroke-linejoin="round" stroke-width=".4" d="m25.638 114.824 7.96 7.943 2.818-1.176-10.6-7.87-.178 1.103Z" class="&lt;Path&gt;"/>
        <path fill="#ED499A" stroke="#050505" stroke-linecap="round" stroke-linejoin="round" stroke-width=".4" d="M53.906 129.984c.424-1.789-2.034-3.68-3.868-4.384-1.916-.762-3.857-.803-4.935-1.702-1.136-.817-1.572-2.609-3.605-3.208a9.318 9.318 0 0 0-4.905-.203c-1.012.381-1.827.657-2.723.875-.873.357-1.99.54-2.32 2.026-.178 1.104-.638 3.114-.991 4.461-.214 1.324 1.202 2.097 2.153 2.658.87.502 2.065 1.239 1.897 2.842-.168 1.604 1.021 4.061 4.482 5.072 3.322 1.034 5.334.634 8.674-.413 3.258-1.105 4.725-1.774 5.15-3.563.165-.744.79-3.497.99-4.461Z" class="&lt;Path&gt;"/>
        <g class="&lt;Group&gt;">
          <path fill="#69BC45" d="M37.273 122.454c-1.15-.457-2.276-.775-3.322-1.034.815-.277 1.63-.553 2.642-.933a9.305 9.305 0 0 1 4.905.202c2.033.6 2.469 2.392 3.605 3.209 1.078.899 3.02.94 4.935 1.702 1.834.704 4.292 2.595 3.868 4.384-.2.964-.826 3.717-.991 4.461-.425 1.788-1.892 2.458-5.15 3.563-1.571.471-2.805.816-4.06 1.021.53-2.451 1.32-5.948 1.651-7.434.826-3.718-4.113-7.64-8.083-9.141Z" class="&lt;Path&gt;" style="mix-blend-mode:multiply"/>
          <path fill="#69BC45" d="M39.695 138.609c.414-2.289 1.312-6.448 1.76-8.097.767-3.636-3.87-7.464-7.783-9.047.094-.015.16-.049.198-.104l.082.059c1.045.259 2.172.577 3.32 1.034 3.972 1.501 8.91 5.423 8.084 9.141-.33 1.487-1.12 4.983-1.652 7.434-1.279.066-2.5.05-4.009-.42ZM24.387 117.25c.495.11 1.018.24 1.567.389a16.488 16.488 0 0 1 2.423 2.112c-1.38-.993-2.818-1.905-4.27-2.456.094-.015.16-.05.198-.104l.082.059Z" class="&lt;Path&gt;" opacity=".3" style="mix-blend-mode:multiply"/>
        </g>
        <path fill="#ED499A" stroke="#050505" stroke-linecap="round" stroke-linejoin="round" stroke-width=".4" d="M31.55 123.388c-.295 1.267 1.202 2.097 2.072 2.6.952.561 2.065 1.239 1.978 2.901-.168 1.603 1.08 3.979 4.482 5.072 3.322 1.034 5.334.633 8.593-.472 3.34-1.047 4.806-1.716 5.23-3.505.425-1.789-2.033-3.68-3.867-4.384-1.916-.762-3.857-.803-4.935-1.702-1.136-.817-1.572-2.609-3.605-3.208a9.318 9.318 0 0 0-4.905-.203c-1.012.381-1.827.657-2.723.875-.873.357-1.99.54-2.32 2.026Z" class="&lt;Path&gt;"/>
        <path fill="#69BC45" d="M32.874 130.623c.367-1.707.733-3.415.992-4.461.789.445 1.6 1.029 1.725 2.227-.295 1.266-.661 2.973-.992 4.46-.042-1.139-.935-1.781-1.724-2.226Z" class="&lt;Path&gt;" opacity=".3" style="mix-blend-mode:multiply"/>
        <path fill="#3953A4" stroke="#050505" stroke-linecap="round" stroke-linejoin="round" stroke-width=".4" d="M48.715 135.489c-.176.243-.432.428-.653.393-.22-.036-.266-.315-.09-.559.174-.243.43-.428.652-.393.22.036.266.315.09.559Z" class="&lt;Path&gt;"/>
        <path fill="#D28CBC" stroke="#050505" stroke-linecap="round" stroke-linejoin="round" stroke-width=".4" d="m20.342 110.029 3.767 3.326 1.707.366 1.99-.54.178-1.104-3.767-3.325-3.875 1.277Z" class="&lt;Path&gt;"/>
        <path fill="#69BC45" stroke="#050505" stroke-linecap="round" stroke-linejoin="round" stroke-width=".4" d="m25.817 113.72 8.053 7.641 2.724-.874-8.788-7.306-1.99.539Z" class="&lt;Path&gt;"/>
        <g class="&lt;Group&gt;">
          <path fill="#69BC45" stroke="#050505" stroke-linecap="round" stroke-linejoin="round" stroke-width=".4" d="m28.56 113.846-2.048.62.753.666 2.048-.621-.753-.665Z" class="&lt;Path&gt;"/>
          <path fill="#70BF57" stroke="#050505" stroke-linecap="round" stroke-linejoin="round" stroke-width=".4" d="m29.313 114.511-2.048.621.753.665 2.13-.563-.835-.723Zm1.647 1.307-2.247.725.754.665 2.327-.666-.835-.724Z" class="&lt;Path&gt;"/>
          <path fill="#69BC45" stroke="#050505" stroke-linecap="round" stroke-linejoin="round" stroke-width=".4" d="m30.148 115.235-2.13.562.695.746 2.246-.725-.811-.583Z" class="&lt;Path&gt;"/>
          <path fill="#70BF57" stroke="#050505" stroke-linecap="round" stroke-linejoin="round" stroke-width=".4" d="m27.806 113.181-1.99.539.696.747 2.047-.621-.753-.665Z" class="&lt;Path&gt;"/>
          <path stroke="#050505" stroke-linecap="round" stroke-linejoin="round" stroke-width=".4" d="m27.806 113.181-1.99.539" class="&lt;Path&gt;"/>
          <path fill="#69BC45" stroke="#050505" stroke-linecap="round" stroke-linejoin="round" stroke-width=".4" d="m35.028 119.238-2.664.793.753.665 2.665-.793-.754-.665Z" class="&lt;Path&gt;"/>
          <path stroke="#050505" stroke-linecap="round" stroke-linejoin="round" stroke-width=".4" d="m35.243 120.994-1.373.367" class="&lt;Path&gt;"/>
          <path fill="#70BF57" stroke="#050505" stroke-linecap="round" stroke-linejoin="round" stroke-width=".4" d="m36.593 120.487-.811-.584-2.665.793.753.665 1.373-.367 1.35-.507Z" class="&lt;Path&gt;"/>
          <path fill="#69BC45" stroke="#050505" stroke-linecap="round" stroke-linejoin="round" stroke-width=".4" d="m31.794 116.542-2.327.666.753.666 2.327-.667-.753-.665Z" class="&lt;Path&gt;"/>
          <path fill="#70BF57" stroke="#050505" stroke-linecap="round" stroke-linejoin="round" stroke-width=".4" d="m34.194 118.514-2.526.771.696.746 2.664-.793-.834-.724Z" class="&lt;Path&gt;"/>
          <path fill="#69BC45" stroke="#050505" stroke-linecap="round" stroke-linejoin="round" stroke-width=".4" d="m33.44 117.849-2.525.771.753.665 2.526-.77-.754-.666Z" class="&lt;Path&gt;"/>
          <path fill="#70BF57" stroke="#050505" stroke-linecap="round" stroke-linejoin="round" stroke-width=".4" d="m32.547 117.207-2.327.667.695.746 2.525-.771-.893-.642Z" class="&lt;Path&gt;"/>
        </g>
        <g class="&lt;Group&gt;">
          <path fill="#70BF57" stroke="#050505" stroke-linecap="round" stroke-linejoin="round" stroke-width=".4" d="m37.288 121.234-2.804.816.835.723 2.723-.874-.754-.665Z" class="&lt;Path&gt;"/>
          <path fill="#69BC45" stroke="#050505" stroke-linecap="round" stroke-linejoin="round" stroke-width=".4" d="m36.593 120.487-2.723.875.614.688 2.804-.816-.694-.747Zm1.449 1.412-2.723.874.695.747 2.781-.956-.753-.665Zm2.283 2.134-.754-.665-2.804.817.695.746 2.863-.898Z" class="&lt;Path&gt;"/>
          <path fill="#69BC45" stroke="#050505" stroke-linecap="round" stroke-linejoin="round" stroke-width=".4" d="m37.787 125.164 2.967-.699-.43-.432-2.862.898.325.233Z" class="&lt;Path&gt;"/>
          <path fill="#70BF57" stroke="#050505" stroke-linecap="round" stroke-linejoin="round" stroke-width=".4" d="m38.795 122.564-2.781.956.753.665 2.804-.816-.776-.805Z" class="&lt;Path&gt;"/>
        </g>
        <g class="&lt;Path&gt;">
          <path fill="#6ACBDF" d="m33.533 121.488 4.254 3.676-4.67-4.468"/>
          <path stroke="#050505" stroke-linecap="round" stroke-linejoin="round" stroke-width=".4" d="m33.533 121.488 4.254 3.676-4.67-4.468"/>
        </g>
        <path fill="#56B846" stroke="#050505" stroke-linecap="round" stroke-linejoin="round" stroke-width=".4" d="m24.109 113.354 1.707.366-.178 1.104-1.788-.424.259-1.046Z" class="&lt;Path&gt;"/>
        <path fill="#6ACBDF" stroke="#050505" stroke-linecap="round" stroke-linejoin="round" stroke-width=".4" d="m26.718 111.782-2.364-2.193c-.244-.175-.546-.269-.802-.084-.279.046-.396.208-.234.325l2.446 2.251a.868.868 0 0 0 .802.085c.198-.104.314-.267.152-.384Zm-1.652.413-2.445-2.252c-.163-.116-.523-.129-.721-.025-.28.045-.396.208-.292.405l2.504 2.171c.104.198.464.211.743.165.256-.185.373-.347.21-.464Z" class="&lt;Path&gt;"/>
        <g class="&lt;Group&gt;">
          <path fill="#E2EDC3" stroke="#050505" stroke-linecap="round" stroke-linejoin="round" stroke-width=".4" d="M22.219 111.872c-.108-.078-.209-.109-.302-.094 0 0-.617.172-.675.253-.093.016-.132.07-.117.163-.035.221.069.418.172.616.109.078.21.11.302.095.059-.082.594-.312.734-.335l.117-.163c-.023-.139-.069-.418-.231-.535Z" class="&lt;Path&gt;"/>
          <path fill="#E0EFE1" stroke="#050505" stroke-linecap="round" stroke-linejoin="round" stroke-width=".4" d="M21.716 112.742c-.117.162-.256.185-.418.068-.104-.198-.208-.396-.173-.616.036-.221.175-.244.338-.127.162.117.289.454.253.675Z" class="&lt;Path&gt;"/>
        </g>
        <g class="&lt;Group&gt;">
          <path fill="#E2EDC3" stroke="#050505" stroke-linecap="round" stroke-linejoin="round" stroke-width=".4" d="M21.037 110.775c-.054-.039-.128-.051-.22-.035l-.676.253c-.093.015-.132.069-.117.162-.117.163.01.5.173.617.108.078.181.09.22.036.14-.023.675-.254.756-.195l.117-.163c.036-.221-.09-.558-.253-.675Z" class="&lt;Path&gt;"/>
          <path fill="#E0EFE1" stroke="#050505" stroke-linecap="round" stroke-linejoin="round" stroke-width=".4" d="M20.534 111.645c-.035.221-.175.244-.337.127-.163-.117-.29-.454-.173-.616-.023-.14.175-.244.338-.127.104.198.208.396.172.616Z" class="&lt;Path&gt;"/>
        </g>
        <g class="&lt;Group&gt;">
          <path fill="#E2EDC3" stroke="#050505" stroke-linecap="round" stroke-linejoin="round" stroke-width=".4" d="M23.378 112.829c-.108-.078-.209-.109-.302-.094-.058.081-.594.312-.675.254-.093.015-.151.096-.175.243.023.14.068.419.23.536.109.078.21.109.303.094 0 0 .616-.173.675-.254.093-.015.132-.069.116-.162.036-.221-.068-.419-.172-.617Z" class="&lt;Path&gt;"/>
          <path fill="#E0EFE1" stroke="#050505" stroke-linecap="round" stroke-linejoin="round" stroke-width=".4" d="M22.875 113.699c-.035.221-.256.185-.418.068-.163-.116-.208-.395-.23-.535.035-.221.233-.325.337-.127.243.175.347.373.311.594Z" class="&lt;Path&gt;"/>
        </g>
        <path fill="#050505" stroke="#050505" stroke-linecap="round" stroke-linejoin="round" stroke-width=".4" d="M43.455 126.532c-.2.964-1.713 1.354-3.34 1.046-1.707-.366-2.808-1.404-2.607-2.368.2-.964 1.69-1.494 3.34-1.047 1.626.308 2.808 1.405 2.607 2.369Z" class="&lt;Path&gt;"/>
        <path fill="#69BC45" stroke="#050505" stroke-linecap="round" stroke-linejoin="round" stroke-width=".4" d="m43.035 130.541 4.91-1.518-.129.522-4.91 1.519.129-.523Z" class="&lt;Path&gt;"/>
        <path fill="#6ACBDF" stroke="#050505" stroke-linecap="round" stroke-linejoin="round" stroke-width=".4" d="m42.282 129.875.753.666-.13.522-.753-.665.13-.523Z" class="&lt;Path&gt;"/>
        <path fill="#FEFEFE" stroke="#050505" stroke-linecap="round" stroke-linejoin="round" stroke-width=".4" d="m47.134 128.439-4.852 1.437.753.665 4.91-1.518-.811-.584Z" class="&lt;Path&gt;"/>
      </g>
      <g class="&lt;Group&gt;">
        <g class="&lt;Group&gt;">
          <g class="&lt;Group&gt;">
            <path fill="#DDEDF9" stroke="#2CABE2" stroke-linecap="round" stroke-linejoin="round" stroke-width=".4" d="m379.042 50.57-9.1-3.3c-3.4 1.6-4.9 5.7-3.3 9.1 1.6 3.4 5.7 4.9 9.1 3.3 3.4-1.6 4.9-5.6 3.3-9.1Z" class="&lt;Path&gt;"/>
            <path fill="#C2DFF4" d="M379.442 51.67a4.47 4.47 0 0 0-.4-1.1l-9.1-3.3a1.14 1.14 0 0 0-.3.2l-.1.1c-.3.8 1.8 2.2 4.6 3.3 2.4.8 4.5 1.1 5.3.8Z" class="&lt;Path&gt;"/>
            <path fill="#C2DFF4" d="m379.042 50.57-.6-.2c.9 3.1-.6 6.5-3.6 7.8-3.2 1.6-7 .2-8.6-3 .066.4.2.8.4 1.2 1.6 3.4 5.7 4.9 9.1 3.3 3.4-1.6 4.9-5.6 3.3-9.1Z" class="&lt;Path&gt;" style="mix-blend-mode:multiply"/>
            <g class="&lt;Group&gt;">
              <g class="&lt;Group&gt;">
                <path fill="#7EC1EA" stroke="#2CABE2" stroke-linecap="round" stroke-linejoin="round" stroke-width=".4" d="m379.142 49.07-8.2-3c-.6.1-1.2 1-1.3 1.4-.3.7 1.7 2.1 4.3 3 2.7 1 5.1 1.2 5.3.5.1-.3.3-1.4-.1-1.9Z" class="&lt;Path&gt;"/>
              </g>
              <g class="&lt;Group&gt;">
                <path fill="#93CAED" d="M372.042 46.67c.066 0 .133-.034.2-.1l-1.3-.5c-.6.1-1.2 1-1.3 1.4-.2.3.3.9 1.1 1.5.4-.8.833-1.567 1.3-2.3Z" class="&lt;Path&gt;"/>
                <path fill="#82C2EA" d="m379.142 49.07-2.2-.8v.1c-.134.8-.3 1.566-.5 2.3-.067.133-.1.3-.1.5 1.6.3 2.7.3 2.9-.2.1-.3.3-1.4-.1-1.9Z" class="&lt;Path&gt;" style="mix-blend-mode:multiply"/>
              </g>
              <path fill="#C4E0F5" stroke="#2CABE2" stroke-linecap="round" stroke-linejoin="round" stroke-width=".4" d="M379.142 49.37c-.2.7-2.3.5-4.6-.4-2.4-.8-4.1-2-3.9-2.7.3-.6 2.4-.4 4.7.5 2.3.8 4.1 2 3.8 2.6Z" class="&lt;Path&gt;"/>
              <path fill="#7EC1EA" stroke="#2CABE2" stroke-linecap="round" stroke-linejoin="round" stroke-width=".4" d="M377.842 48.67c-.2.4-1.5.2-3.1-.4-1.5-.5-2.7-1.3-2.6-1.6.2-.4 1.5-.2 3.1.4 1.5.5 2.7 1.3 2.6 1.6Z" class="&lt;Path&gt;"/>
              <path fill="#82C2EA" d="M376.542 47.67a9.37 9.37 0 0 1-.3 1.1c.9.2 1.5.2 1.6-.1.1-.2-.4-.6-1.3-1Zm-2.8-1.1c-.9-.2-1.5-.2-1.6.1-.1.2.4.6 1.1 1 .133-.4.3-.767.5-1.1Z" class="&lt;Path&gt;" style="mix-blend-mode:multiply"/>
            </g>
            <g class="Clip path group">
              <mask id="e" width="12" height="5" x="374" y="44" class="e" maskUnits="userSpaceOnUse" style="mask-type:luminance">
                <g class="cp442">
                  <path fill="#fff" d="M377.822 48.71c-.13.35-1.5.17-3.06-.4l5.57-4.31 5 .18-.07.98-7.44 3.55Z" class="Vector"/>
                </g>
              </mask>
              <g class="&lt;Clip Group&gt;" mask="url(#e)">
                <g class="&lt;Group&gt;">
                  <g class="&lt;Group&gt;">
                    <path fill="#C4E0F5" stroke="#2CABE2" stroke-linecap="round" stroke-linejoin="round" stroke-width=".4" d="m373.842 50.47-.4-.7c0-.1 0-.2.1-.3l7.2-4.6c.2-.133.433-.2.7-.2l3.2-.2c.1 0 .2.1.2.2.1.1 0 .2-.1.3l-3 .8c-.2 0-.367.066-.5.2l-7.1 4.5c-.1.1-.2.1-.3 0Z" class="&lt;Path&gt;"/>
                  </g>
                  <path fill="#CDE5F6" d="M381.842 45.37a.885.885 0 0 0-.4.1l-7.4 4.2c-.1.1-.2 0-.3-.1l-.1-.2-.1.1c-.1.1-.1.2-.1.3l.4.7c.1.1.2.1.3 0l7.1-4.5c.133-.134.3-.2.5-.2l3-.8c.1-.1.2-.2.1-.3l-3 .7Z" class="&lt;Path&gt;" style="mix-blend-mode:multiply"/>
                  <g class="&lt;Group&gt;">
                    <path fill="#DDEDF9" stroke="#2CABE2" stroke-linecap="round" stroke-linejoin="round" stroke-width=".4" d="M380.042 44.67c-.1.2-.2.4-.1.6l.699 1.1c.1.2.401.2.601.1.2-.1.2-.3.1-.5l-.701-1.1a.48.48 0 0 0-.599-.2Z" class="&lt;Path&gt;"/>
                  </g>
                </g>
              </g>
            </g>
            <path stroke="#2CABE2" stroke-linecap="round" stroke-linejoin="round" stroke-width=".4" d="M377.842 48.67c-.2.4-1.5.2-3.1-.4" class="&lt;Path&gt;"/>
          </g>
        </g>
      </g>
      <g class="&lt;Group&gt;">
        <g class="&lt;Group&gt;">
          <g class="&lt;Group&gt;">
            <path fill="#DDEDF9" stroke="#2CABE2" stroke-linecap="round" stroke-linejoin="round" stroke-width=".4" d="m34.54 279.456-7.666 5.911c-.473 3.728 2.183 7.193 5.91 7.666 3.729.473 7.194-2.183 7.667-5.911.473-3.728-2.099-7.139-5.911-7.666Z" class="&lt;Path&gt;"/>
            <path fill="#C2DFF4" d="M35.683 279.709a4.442 4.442 0 0 0-1.143-.253l-7.666 5.911c-.015.148-.013.268.008.36l.03.138c.515.683 2.823-.339 5.253-2.112 1.962-1.597 3.342-3.208 3.518-4.044Z" class="&lt;Path&gt;"/>
            <path fill="#C2DFF4" d="m34.54 279.456-.49.399c3.098.903 5.164 3.993 4.652 7.222-.366 3.559-3.586 6.015-7.145 5.65.374.158.783.26 1.228.306 3.727.473 7.193-2.183 7.666-5.911.473-3.728-2.1-7.139-5.911-7.666Z" class="&lt;Path&gt;" style="mix-blend-mode:multiply"/>
            <g class="&lt;Group&gt;">
              <g class="&lt;Group&gt;">
                <path fill="#7EC1EA" stroke="#2CABE2" stroke-linecap="round" stroke-linejoin="round" stroke-width=".4" d="m33.327 278.567-6.93 5.312c-.237.56.2 1.549.485 1.848.43.629 2.684-.309 4.838-2.02 2.292-1.743 3.748-3.661 3.265-4.205-.2-.246-1.021-1.004-1.658-.935Z" class="&lt;Path&gt;"/>
              </g>
              <g class="&lt;Group&gt;">
                <path fill="#93CAED" d="M27.494 283.273c.036-.057.043-.131.023-.223l-1.12.829c-.237.56.2 1.549.485 1.848.146.33.92.23 1.856-.124a25.556 25.556 0 0 1-1.244-2.33Z" class="&lt;Path&gt;"/>
                <path fill="#82C2EA" d="m33.327 278.567-1.855 1.428.085.053a23.41 23.41 0 0 1 1.673 1.656c.077.128.2.245.368.352 1.112-1.189 1.701-2.118 1.387-2.555-.2-.245-1.021-1.003-1.658-.934Z" class="&lt;Path&gt;" style="mix-blend-mode:multiply"/>
              </g>
              <path fill="#C4E0F5" stroke="#2CABE2" stroke-linecap="round" stroke-linejoin="round" stroke-width=".4" d="M33.58 278.728c.484.545-.811 2.209-2.804 3.668-1.962 1.597-3.887 2.388-4.37 1.844-.346-.575.949-2.241 2.942-3.699 1.909-1.512 3.887-2.388 4.233-1.813Z" class="&lt;Path&gt;"/>
              <path fill="#7EC1EA" stroke="#2CABE2" stroke-linecap="round" stroke-linejoin="round" stroke-width=".4" d="M32.293 279.45c.23.383-.636 1.373-2 2.402-1.227.998-2.546 1.582-2.746 1.336-.23-.383.636-1.373 2-2.402 1.227-.998 2.546-1.581 2.746-1.336Z" class="&lt;Path&gt;"/>
              <path fill="#82C2EA" d="M30.751 280.011c.246.235.502.516.768.843.651-.652.973-1.159.774-1.404-.115-.192-.721.016-1.542.561Zm-2.43 1.773c-.651.652-.973 1.159-.774 1.404.116.192.721-.016 1.434-.392a5.541 5.541 0 0 1-.66-1.012Z" class="&lt;Path&gt;" style="mix-blend-mode:multiply"/>
            </g>
            <g class="Clip path group">
              <mask id="f" width="5" height="12" x="29" y="270" class="f" maskUnits="userSpaceOnUse" style="mask-type:luminance">
                <g class="cp442">
                  <path fill="#fff" d="M32.316 279.488c.225.298-.661 1.358-1.98 2.368l-.65-7.012 2.834-4.124.79.585-.995 8.183Z" class="Vector"/>
                </g>
              </mask>
              <g class="&lt;Clip Group&gt;" mask="url(#f)">
                <g class="&lt;Group&gt;">
                  <g class="&lt;Group&gt;">
                    <path fill="#C4E0F5" stroke="#2CABE2" stroke-linecap="round" stroke-linejoin="round" stroke-width=".4" d="m31.666 283.791-.805-.037c-.084-.054-.169-.108-.2-.246l-.02-8.544c-.006-.24.063-.473.206-.698l1.547-2.808a.216.216 0 0 1 .277-.061c.138-.031.168.107.2.245l-.935 2.961a.678.678 0 0 0-.099.529l-.01 8.406c.031.138-.023.223-.16.253Z" class="&lt;Path&gt;"/>
                  </g>
                  <path fill="#CDE5F6" d="M31.653 274.304a.89.89 0 0 0-.13.391l-.424 8.499c.03.138-.108.168-.246.199l-.222-.023.03.138c.031.138.116.192.2.246l.805.037c.139-.03.192-.115.161-.253l.01-8.406a.678.678 0 0 1 .1-.529l.933-2.961c-.03-.138-.061-.276-.2-.245l-1.017 2.907Z" class="&lt;Path&gt;" style="mix-blend-mode:multiply"/>
                  <g class="&lt;Group&gt;">
                    <path fill="#DDEDF9" stroke="#2CABE2" stroke-linecap="round" stroke-linejoin="round" stroke-width=".4" d="M30.096 275.448c.116.192.23.383.453.406l1.304-.001c.222.023.383-.23.406-.453.023-.222-.146-.329-.368-.352l-1.304.001a.48.48 0 0 0-.49.399Z" class="&lt;Path&gt;"/>
                  </g>
                </g>
              </g>
            </g>
            <path stroke="#2CABE2" stroke-linecap="round" stroke-linejoin="round" stroke-width=".4" d="M32.293 279.45c.23.383-.636 1.373-2 2.402" class="&lt;Path&gt;"/>
          </g>
        </g>
      </g>
      <g class="&lt;Group&gt;">
        <g class="&lt;Group&gt;">
          <g class="&lt;Group&gt;">
            <path fill="#DDEDF9" stroke="#2CABE2" stroke-linecap="round" stroke-linejoin="round" stroke-width=".4" d="m260.715 537.751-8.117-5.273c-3.674.789-6.063 4.443-5.274 8.117.789 3.674 4.443 6.063 8.117 5.274 3.674-.789 6.04-4.346 5.274-8.118Z" class="&lt;Path&gt;"/>
            <path fill="#C2DFF4" d="M260.855 538.914a4.44 4.44 0 0 0-.14-1.162l-8.117-5.274a1.169 1.169 0 0 0-.338.127l-.12.075c-.473.711 1.256 2.55 3.734 4.255 2.157 1.322 4.134 2.09 4.981 1.979Z" class="&lt;Path&gt;"/>
            <path fill="#C2DFF4" d="m260.715 537.752-.539-.331c.175 3.223-2.056 6.196-5.272 6.783-3.479.834-6.864-1.389-7.698-4.868-.026.404.014.824.118 1.259.789 3.674 4.443 6.063 8.117 5.274 3.674-.789 6.04-4.346 5.274-8.117Z" class="&lt;Path&gt;" style="mix-blend-mode:multiply"/>
            <g class="&lt;Group&gt;">
              <g class="&lt;Group&gt;">
                <path fill="#7EC1EA" stroke="#2CABE2" stroke-linecap="round" stroke-linejoin="round" stroke-width=".4" d="m261.152 536.313-7.309-4.778c-.607-.039-1.395.702-1.583 1.069-.45.614 1.181 2.43 3.51 3.896 2.403 1.585 4.696 2.323 5.049 1.686.165-.27.609-1.296.333-1.873Z" class="&lt;Path&gt;"/>
              </g>
              <g class="&lt;Group&gt;">
                <path fill="#93CAED" d="M254.779 532.368c.065.015.137-.002.217-.052l-1.153-.781c-.607-.039-1.395.702-1.583 1.069-.263.247.089.945.732 1.71a25.81 25.81 0 0 1 1.787-1.946Z" class="&lt;Path&gt;"/>
                <path fill="#82C2EA" d="m261.152 536.313-1.962-1.277-.023.097a23.52 23.52 0 0 1-1.007 2.127c-.095.115-.165.27-.211.465 1.491.654 2.562.903 2.87.461.166-.269.609-1.296.333-1.873Z" class="&lt;Path&gt;" style="mix-blend-mode:multiply"/>
              </g>
              <path fill="#C4E0F5" stroke="#2CABE2" stroke-linecap="round" stroke-linejoin="round" stroke-width=".4" d="M261.084 536.605c-.353.637-2.353-.033-4.39-1.431-2.157-1.322-3.541-2.876-3.188-3.512.428-.517 2.428.153 4.465 1.551 2.059 1.299 3.541 2.876 3.113 3.392Z" class="&lt;Path&gt;"/>
              <path fill="#7EC1EA" stroke="#2CABE2" stroke-linecap="round" stroke-linejoin="round" stroke-width=".4" d="M259.976 535.629c-.285.345-1.506-.145-2.929-1.091-1.348-.827-2.336-1.877-2.171-2.147.286-.344 1.507.145 2.93 1.091 1.347.827 2.335 1.878 2.17 2.147Z" class="&lt;Path&gt;"/>
              <path fill="#82C2EA" d="M258.936 534.361c-.14.309-.321.644-.541 1.003.831.399 1.416.535 1.581.265.143-.172-.254-.675-1.04-1.268Zm-2.478-1.705c-.832-.399-1.416-.535-1.582-.265-.142.172.254.675.846 1.223.22-.36.465-.679.736-.958Z" class="&lt;Path&gt;" style="mix-blend-mode:multiply"/>
            </g>
            <g class="Clip path group">
              <mask id="g" width="12" height="5" x="257" y="531" class="g" maskUnits="userSpaceOnUse" style="mask-type:luminance">
                <g class="cp442">
                  <path fill="#fff" d="M259.948 535.664c-.206.311-1.5-.174-2.891-1.082l6.401-2.938 4.83 1.307-.29.939-8.05 1.774Z" class="Vector"/>
                </g>
              </mask>
              <g class="&lt;Clip Group&gt;" mask="url(#g)">
                <g class="&lt;Group&gt;">
                  <g class="&lt;Group&gt;">
                    <path fill="#C4E0F5" stroke="#2CABE2" stroke-linecap="round" stroke-linejoin="round" stroke-width=".4" d="m255.673 536.477-.232-.772c.023-.097.046-.195.166-.27l8.054-2.851a1.24 1.24 0 0 1 .727-.036l3.162.529c.097.023.172.143.15.241.075.12-.046.194-.166.269l-3.103.1a.677.677 0 0 0-.532.082l-7.934 2.776c-.12.075-.218.052-.292-.068Z" class="&lt;Path&gt;"/>
                  </g>
                  <path fill="#CDE5F6" d="M264.619 533.32a.886.886 0 0 0-.412.007l-8.159 2.416c-.12.075-.194-.045-.269-.165l-.053-.217-.119.074c-.12.075-.143.172-.166.27l.232.772c.074.12.172.143.292.068l7.934-2.776c.16-.1.337-.127.532-.082l3.103-.1c.12-.075.241-.15.166-.27l-3.081.003Z" class="&lt;Path&gt;" style="mix-blend-mode:multiply"/>
                  <g class="&lt;Group&gt;">
                    <path fill="#DDEDF9" stroke="#2CABE2" stroke-linecap="round" stroke-linejoin="round" stroke-width=".4" d="M263.024 532.231c-.143.172-.285.344-.233.562l.433 1.229c.052.218.344.286.562.234.217-.053.262-.247.21-.465l-.433-1.23c-.052-.217-.321-.382-.539-.33Z" class="&lt;Path&gt;"/>
                  </g>
                </g>
              </g>
            </g>
            <path stroke="#2CABE2" stroke-linecap="round" stroke-linejoin="round" stroke-width=".4" d="M259.976 535.629c-.285.345-1.506-.144-2.929-1.091" class="&lt;Path&gt;"/>
          </g>
        </g>
      </g>
    </g>
  </g>
  <defs>
    <clipPath id="a" class="a">
      <path fill="#fff" d="M0 0h435v610H0z"/>
    </clipPath>
    <clipPath id="b" class="b">
      <path fill="#fff" d="M0 0h435v610H0z"/>
    </clipPath>
    <clipPath id="d" class="d">
      <path fill="#fff" d="M0 0h435v663H0z" transform="translate(0 -26)"/>
    </clipPath>
  </defs>
</svg>
