<svg width="648" height="242" viewBox="0 0 648 242" fill="none" xmlns="http://www.w3.org/2000/svg">
<path d="M21.76 108.48H15.872V102.336C15.872 101.568 15.744 101.077 15.488 100.864C15.2747 100.608 14.784 100.48 14.016 100.48H10.752C9.984 100.48 9.472 100.608 9.216 100.864C8.96 101.077 8.832 101.568 8.832 102.336V129.664C8.832 130.432 8.96 130.944 9.216 131.2C9.472 131.413 9.984 131.52 10.752 131.52H14.016C14.784 131.52 15.2747 131.413 15.488 131.2C15.744 130.944 15.872 130.432 15.872 129.664V123.584H21.76V130.368C21.76 134.165 19.7547 136.064 15.744 136.064H8.96C4.992 136.064 3.008 134.165 3.008 130.368V101.568C3.008 97.8133 4.992 95.936 8.96 95.936H15.744C19.7547 95.936 21.76 97.8133 21.76 101.568V108.48ZM45.629 95.936H52.733C56.701 95.936 58.685 97.8133 58.685 101.568V130.368C58.685 134.123 56.701 136 52.733 136H45.629C41.6183 136 39.613 134.123 39.613 130.368V101.568C39.613 97.8133 41.6183 95.936 45.629 95.936ZM52.925 129.472V102.464C52.925 101.696 52.797 101.205 52.541 100.992C52.285 100.736 51.773 100.608 51.005 100.608H47.293C46.525 100.608 46.013 100.736 45.757 100.992C45.5437 101.205 45.437 101.696 45.437 102.464V129.472C45.437 130.24 45.5437 130.752 45.757 131.008C46.013 131.221 46.525 131.328 47.293 131.328H51.005C51.773 131.328 52.285 131.221 52.541 131.008C52.797 130.752 52.925 130.24 52.925 129.472ZM91.81 95.936H97.122V136H91.298L82.85 107.072V136H77.538V95.936H83.618L91.81 124.032V95.936ZM132.46 95.936V100.608H125.74V136H119.98V100.608H113.26V95.936H132.46ZM154.256 95.936H161.36C165.328 95.936 167.312 97.8133 167.312 101.568V130.368C167.312 134.123 165.328 136 161.36 136H154.256C150.246 136 148.24 134.123 148.24 130.368V101.568C148.24 97.8133 150.246 95.936 154.256 95.936ZM161.552 129.472V102.464C161.552 101.696 161.424 101.205 161.168 100.992C160.912 100.736 160.4 100.608 159.632 100.608H155.92C155.152 100.608 154.64 100.736 154.384 100.992C154.171 101.205 154.064 101.696 154.064 102.464V129.472C154.064 130.24 154.171 130.752 154.384 131.008C154.64 131.221 155.152 131.328 155.92 131.328H159.632C160.4 131.328 160.912 131.221 161.168 131.008C161.424 130.752 161.552 130.24 161.552 129.472ZM191.925 119.808V136H186.165V95.936H199.285C203.253 95.936 205.237 97.8133 205.237 101.568V114.112C205.237 117.355 203.808 119.211 200.949 119.68L207.285 136H201.077L195.061 119.808H191.925ZM191.925 100.608V115.2H197.557C198.325 115.2 198.837 115.093 199.093 114.88C199.349 114.624 199.477 114.112 199.477 113.344V102.464C199.477 101.696 199.349 101.205 199.093 100.992C198.837 100.736 198.325 100.608 197.557 100.608H191.925ZM238.293 95.936H243.605V136H237.781L229.333 107.072V136H224.021V95.936H230.101L238.293 124.032V95.936ZM268.446 95.936H275.55C279.518 95.936 281.502 97.8133 281.502 101.568V130.368C281.502 134.123 279.518 136 275.55 136H268.446C264.436 136 262.43 134.123 262.43 130.368V101.568C262.43 97.8133 264.436 95.936 268.446 95.936ZM275.742 129.472V102.464C275.742 101.696 275.614 101.205 275.358 100.992C275.102 100.736 274.59 100.608 273.822 100.608H270.11C269.342 100.608 268.83 100.736 268.574 100.992C268.361 101.205 268.254 101.696 268.254 102.464V129.472C268.254 130.24 268.361 130.752 268.574 131.008C268.83 131.221 269.342 131.328 270.11 131.328H273.822C274.59 131.328 275.102 131.221 275.358 131.008C275.614 130.752 275.742 130.24 275.742 129.472ZM311.875 129.472V119.68C311.875 118.912 311.747 118.421 311.491 118.208C311.278 117.952 310.787 117.824 310.019 117.824H305.283C301.401 117.824 299.459 115.925 299.459 112.128V101.568C299.459 97.8133 301.443 95.936 305.411 95.936H311.683C315.651 95.936 317.635 97.8133 317.635 101.568V107.456H311.811V102.464C311.811 101.696 311.683 101.205 311.427 100.992C311.171 100.736 310.659 100.608 309.891 100.608H307.203C306.435 100.608 305.923 100.736 305.667 100.992C305.411 101.205 305.283 101.696 305.283 102.464V111.36C305.283 112.128 305.411 112.64 305.667 112.896C305.923 113.109 306.435 113.216 307.203 113.216H311.875C315.801 113.216 317.763 115.093 317.763 118.848V130.368C317.763 134.123 315.758 136 311.747 136H305.539C301.571 136 299.587 134.123 299.587 130.368V124.48H305.411V129.472C305.411 130.24 305.539 130.752 305.795 131.008C306.051 131.221 306.563 131.328 307.331 131.328H310.019C310.787 131.328 311.278 131.221 311.491 131.008C311.747 130.752 311.875 130.24 311.875 129.472ZM358.202 95.936H363.962V136H358.202V95.936ZM389.368 131.328H399.288V136H383.608V95.936H389.368V131.328ZM428.458 95.936H434.282V130.368C434.282 134.123 432.277 136 428.266 136H421.162C417.151 136 415.146 134.123 415.146 130.368V95.936H420.97V129.472C420.97 130.24 421.098 130.752 421.354 131.008C421.61 131.221 422.122 131.328 422.89 131.328H426.538C427.349 131.328 427.861 131.221 428.074 131.008C428.33 130.752 428.458 130.24 428.458 129.472V95.936ZM464.775 129.472V119.68C464.775 118.912 464.647 118.421 464.391 118.208C464.178 117.952 463.687 117.824 462.919 117.824H458.183C454.301 117.824 452.359 115.925 452.359 112.128V101.568C452.359 97.8133 454.343 95.936 458.311 95.936H464.583C468.551 95.936 470.535 97.8133 470.535 101.568V107.456H464.711V102.464C464.711 101.696 464.583 101.205 464.327 100.992C464.071 100.736 463.559 100.608 462.791 100.608H460.103C459.335 100.608 458.823 100.736 458.567 100.992C458.311 101.205 458.183 101.696 458.183 102.464V111.36C458.183 112.128 458.311 112.64 458.567 112.896C458.823 113.109 459.335 113.216 460.103 113.216H464.775C468.701 113.216 470.663 115.093 470.663 118.848V130.368C470.663 134.123 468.658 136 464.647 136H458.439C454.471 136 452.487 134.123 452.487 130.368V124.48H458.311V129.472C458.311 130.24 458.439 130.752 458.695 131.008C458.951 131.221 459.463 131.328 460.231 131.328H462.919C463.687 131.328 464.178 131.221 464.391 131.008C464.647 130.752 464.775 130.24 464.775 129.472ZM494.557 95.936H501.661C505.629 95.936 507.613 97.8133 507.613 101.568V130.368C507.613 134.123 505.629 136 501.661 136H494.557C490.546 136 488.541 134.123 488.541 130.368V101.568C488.541 97.8133 490.546 95.936 494.557 95.936ZM501.853 129.472V102.464C501.853 101.696 501.725 101.205 501.469 100.992C501.213 100.736 500.701 100.608 499.933 100.608H496.221C495.453 100.608 494.941 100.736 494.685 100.992C494.471 101.205 494.365 101.696 494.365 102.464V129.472C494.365 130.24 494.471 130.752 494.685 131.008C494.941 131.221 495.453 131.328 496.221 131.328H499.933C500.701 131.328 501.213 131.221 501.469 131.008C501.725 130.752 501.853 130.24 501.853 129.472ZM532.226 119.808V136H526.466V95.936H539.586C543.554 95.936 545.538 97.8133 545.538 101.568V114.112C545.538 117.355 544.108 119.211 541.25 119.68L547.586 136H541.378L535.362 119.808H532.226ZM532.226 100.608V115.2H537.858C538.626 115.2 539.138 115.093 539.394 114.88C539.65 114.624 539.778 114.112 539.778 113.344V102.464C539.778 101.696 539.65 101.205 539.394 100.992C539.138 100.736 538.626 100.608 537.858 100.608H532.226ZM564.832 95.936H570.592V136H564.832V95.936ZM595.934 95.936H603.038C607.006 95.936 608.99 97.8133 608.99 101.568V130.368C608.99 134.123 607.006 136 603.038 136H595.934C591.923 136 589.918 134.123 589.918 130.368V101.568C589.918 97.8133 591.923 95.936 595.934 95.936ZM603.23 129.472V102.464C603.23 101.696 603.102 101.205 602.846 100.992C602.59 100.736 602.078 100.608 601.31 100.608H597.598C596.83 100.608 596.318 100.736 596.062 100.992C595.849 101.205 595.742 101.696 595.742 102.464V129.472C595.742 130.24 595.849 130.752 596.062 131.008C596.318 131.221 596.83 131.328 597.598 131.328H601.31C602.078 131.328 602.59 131.221 602.846 131.008C603.102 130.752 603.23 130.24 603.23 129.472ZM639.363 129.472V119.68C639.363 118.912 639.235 118.421 638.979 118.208C638.766 117.952 638.275 117.824 637.507 117.824H632.771C628.888 117.824 626.947 115.925 626.947 112.128V101.568C626.947 97.8133 628.931 95.936 632.899 95.936H639.171C643.139 95.936 645.123 97.8133 645.123 101.568V107.456H639.299V102.464C639.299 101.696 639.171 101.205 638.915 100.992C638.659 100.736 638.147 100.608 637.379 100.608H634.691C633.923 100.608 633.411 100.736 633.155 100.992C632.899 101.205 632.771 101.696 632.771 102.464V111.36C632.771 112.128 632.899 112.64 633.155 112.896C633.411 113.109 633.923 113.216 634.691 113.216H639.363C643.288 113.216 645.251 115.093 645.251 118.848V130.368C645.251 134.123 643.246 136 639.235 136H633.027C629.059 136 627.075 134.123 627.075 130.368V124.48H632.899V129.472C632.899 130.24 633.027 130.752 633.283 131.008C633.539 131.221 634.051 131.328 634.819 131.328H637.507C638.275 131.328 638.766 131.221 638.979 131.008C639.235 130.752 639.363 130.24 639.363 129.472Z" fill="white"/>
<path d="M21.76 108.48V109.48H22.76V108.48H21.76ZM15.872 108.48H14.872V109.48H15.872V108.48ZM15.488 100.864L14.7198 101.504L14.778 101.574L14.8478 101.632L15.488 100.864ZM9.216 100.864L9.85618 101.632L9.89103 101.603L9.92311 101.571L9.216 100.864ZM9.216 131.2L8.50889 131.907L8.54097 131.939L8.57582 131.968L9.216 131.2ZM15.488 131.2L14.7809 130.493H14.7809L15.488 131.2ZM15.872 123.584V122.584H14.872V123.584H15.872ZM21.76 123.584H22.76V122.584H21.76V123.584ZM21.76 107.48H15.872V109.48H21.76V107.48ZM16.872 108.48V102.336H14.872V108.48H16.872ZM16.872 102.336C16.872 101.906 16.8371 101.498 16.7436 101.14C16.6528 100.791 16.4803 100.389 16.1282 100.096L14.8478 101.632C14.7517 101.552 14.7712 101.502 14.8084 101.644C14.8429 101.777 14.872 101.998 14.872 102.336H16.872ZM16.2562 100.224C15.9628 99.8717 15.5606 99.6992 15.2124 99.6084C14.854 99.5149 14.4463 99.48 14.016 99.48V101.48C14.3537 101.48 14.5753 101.509 14.7076 101.544C14.85 101.581 14.7999 101.6 14.7198 101.504L16.2562 100.224ZM14.016 99.48H10.752V101.48H14.016V99.48ZM10.752 99.48C10.3197 99.48 9.91177 99.5153 9.54947 99.6059C9.19322 99.6949 8.81076 99.855 8.50889 100.157L9.92311 101.571C9.87724 101.617 9.87878 101.585 10.0345 101.546C10.1842 101.509 10.4163 101.48 10.752 101.48V99.48ZM8.57582 100.096C8.22366 100.389 8.05122 100.791 7.96038 101.14C7.86689 101.498 7.832 101.906 7.832 102.336H9.832C9.832 101.998 9.86111 101.777 9.89562 101.644C9.93278 101.502 9.95234 101.552 9.85618 101.632L8.57582 100.096ZM7.832 102.336V129.664H9.832V102.336H7.832ZM7.832 129.664C7.832 130.096 7.86728 130.504 7.95786 130.867C8.04692 131.223 8.20702 131.605 8.50889 131.907L9.92311 130.493C9.96898 130.539 9.93708 130.537 9.89814 130.381C9.86072 130.232 9.832 130 9.832 129.664H7.832ZM8.57582 131.968C8.88162 132.223 9.25412 132.349 9.58805 132.419C9.93436 132.491 10.3282 132.52 10.752 132.52V130.52C10.4078 130.52 10.1616 130.496 9.99595 130.461C9.81788 130.424 9.80638 130.39 9.85618 130.432L8.57582 131.968ZM10.752 132.52H14.016V130.52H10.752V132.52ZM14.016 132.52C14.4381 132.52 14.8309 132.491 15.1724 132.417C15.4936 132.347 15.89 132.212 16.1951 131.907L14.7809 130.493C14.8726 130.401 14.9171 130.426 14.7476 130.463C14.5984 130.495 14.3619 130.52 14.016 130.52V132.52ZM16.1951 131.907C16.497 131.605 16.6571 131.223 16.7461 130.867C16.8367 130.504 16.872 130.096 16.872 129.664H14.872C14.872 130 14.8433 130.232 14.8059 130.381C14.7669 130.537 14.735 130.539 14.7809 130.493L16.1951 131.907ZM16.872 129.664V123.584H14.872V129.664H16.872ZM15.872 124.584H21.76V122.584H15.872V124.584ZM20.76 123.584V130.368H22.76V123.584H20.76ZM20.76 130.368C20.76 132.098 20.3058 133.216 19.5685 133.914C18.8209 134.622 17.6084 135.064 15.744 135.064V137.064C17.8903 137.064 19.6858 136.557 20.9435 135.366C22.2115 134.166 22.76 132.435 22.76 130.368H20.76ZM15.744 135.064H8.96V137.064H15.744V135.064ZM8.96 135.064C7.11942 135.064 5.92453 134.623 5.1874 133.918C4.45848 133.22 4.008 132.101 4.008 130.368H2.008C2.008 132.432 2.54952 134.161 3.8046 135.362C5.05147 136.556 6.83258 137.064 8.96 137.064V135.064ZM4.008 130.368V101.568H2.008V130.368H4.008ZM4.008 101.568C4.008 99.8594 4.45673 98.7579 5.18331 98.0704C5.92025 97.373 7.11679 96.936 8.96 96.936V94.936C6.83521 94.936 5.05575 95.4376 3.80869 96.6176C2.55127 97.8075 2.008 99.522 2.008 101.568H4.008ZM8.96 96.936H15.744V94.936H8.96V96.936ZM15.744 96.936C17.611 96.936 18.8251 97.3743 19.5726 98.074C20.3076 98.7622 20.76 99.8623 20.76 101.568H22.76C22.76 99.519 22.2097 97.8032 20.9394 96.614C19.6816 95.4364 17.8877 94.936 15.744 94.936V96.936ZM20.76 101.568V108.48H22.76V101.568H20.76ZM52.541 100.992L51.8339 101.699L51.866 101.731L51.9008 101.76L52.541 100.992ZM45.757 100.992L45.0499 100.285L45.757 100.992ZM45.757 131.008L44.9888 131.648L45.047 131.718L45.1168 131.776L45.757 131.008ZM52.541 131.008L53.1812 131.776L53.216 131.747L53.2481 131.715L52.541 131.008ZM45.629 96.936H52.733V94.936H45.629V96.936ZM52.733 96.936C54.5762 96.936 55.7727 97.373 56.5097 98.0704C57.2363 98.7579 57.685 99.8594 57.685 101.568H59.685C59.685 99.522 59.1417 97.8075 57.8843 96.6176C56.6373 95.4376 54.8578 94.936 52.733 94.936V96.936ZM57.685 101.568V130.368H59.685V101.568H57.685ZM57.685 130.368C57.685 132.077 57.2363 133.178 56.5097 133.866C55.7727 134.563 54.5762 135 52.733 135V137C54.8578 137 56.6373 136.498 57.8843 135.318C59.1417 134.129 59.685 132.414 59.685 130.368H57.685ZM52.733 135H45.629V137H52.733V135ZM45.629 135C43.762 135 42.5479 134.562 41.8004 133.862C41.0654 133.174 40.613 132.074 40.613 130.368H38.613C38.613 132.417 39.1633 134.133 40.4336 135.322C41.6914 136.5 43.4853 137 45.629 137V135ZM40.613 130.368V101.568H38.613V130.368H40.613ZM40.613 101.568C40.613 99.8623 41.0654 98.7622 41.8004 98.074C42.5479 97.3743 43.762 96.936 45.629 96.936V94.936C43.4853 94.936 41.6914 95.4364 40.4336 96.614C39.1633 97.8032 38.613 99.519 38.613 101.568H40.613ZM53.925 129.472V102.464H51.925V129.472H53.925ZM53.925 102.464C53.925 102.034 53.8901 101.626 53.7966 101.268C53.7058 100.919 53.5333 100.517 53.1812 100.224L51.9008 101.76C51.8047 101.68 51.8242 101.63 51.8614 101.772C51.8959 101.905 51.925 102.126 51.925 102.464H53.925ZM53.2481 100.285C52.9462 99.983 52.5638 99.8229 52.2075 99.7339C51.8452 99.6433 51.4373 99.608 51.005 99.608V101.608C51.3407 101.608 51.5728 101.637 51.7225 101.674C51.8782 101.713 51.8798 101.745 51.8339 101.699L53.2481 100.285ZM51.005 99.608H47.293V101.608H51.005V99.608ZM47.293 99.608C46.8607 99.608 46.4528 99.6433 46.0905 99.7339C45.7342 99.8229 45.3518 99.983 45.0499 100.285L46.4641 101.699C46.4182 101.745 46.4198 101.713 46.5755 101.674C46.7252 101.637 46.9573 101.608 47.293 101.608V99.608ZM45.0499 100.285C44.7448 100.59 44.6096 100.986 44.5398 101.308C44.4656 101.649 44.437 102.042 44.437 102.464H46.437C46.437 102.118 46.4618 101.882 46.4942 101.732C46.531 101.563 46.5559 101.607 46.4641 101.699L45.0499 100.285ZM44.437 102.464V129.472H46.437V102.464H44.437ZM44.437 129.472C44.437 129.896 44.4659 130.29 44.538 130.636C44.6076 130.97 44.7339 131.342 44.9888 131.648L46.5252 130.368C46.5667 130.418 46.5331 130.406 46.496 130.228C46.4615 130.062 46.437 129.816 46.437 129.472H44.437ZM45.1168 131.776C45.4226 132.031 45.7951 132.157 46.129 132.227C46.4754 132.299 46.8692 132.328 47.293 132.328V130.328C46.9488 130.328 46.7026 130.304 46.537 130.269C46.3589 130.232 46.3474 130.198 46.3972 130.24L45.1168 131.776ZM47.293 132.328H51.005V130.328H47.293V132.328ZM51.005 132.328C51.4288 132.328 51.8226 132.299 52.169 132.227C52.5029 132.157 52.8754 132.031 53.1812 131.776L51.9008 130.24C51.9506 130.198 51.9391 130.232 51.761 130.269C51.5954 130.304 51.3492 130.328 51.005 130.328V132.328ZM53.2481 131.715C53.55 131.413 53.7101 131.031 53.7991 130.675C53.8897 130.312 53.925 129.904 53.925 129.472H51.925C51.925 129.808 51.8963 130.04 51.8589 130.189C51.8199 130.345 51.788 130.347 51.8339 130.301L53.2481 131.715ZM91.81 95.936V94.936H90.81V95.936H91.81ZM97.122 95.936H98.122V94.936H97.122V95.936ZM97.122 136V137H98.122V136H97.122ZM91.298 136L90.3381 136.28L90.5483 137H91.298V136ZM82.85 107.072L83.8099 106.792L81.85 107.072H82.85ZM82.85 136V137H83.85V136H82.85ZM77.538 136H76.538V137H77.538V136ZM77.538 95.936V94.936H76.538V95.936H77.538ZM83.618 95.936L84.578 95.6561L84.3681 94.936H83.618V95.936ZM91.81 124.032L90.85 124.312L92.81 124.032H91.81ZM91.81 96.936H97.122V94.936H91.81V96.936ZM96.122 95.936V136H98.122V95.936H96.122ZM97.122 135H91.298V137H97.122V135ZM92.2579 135.72L83.8099 106.792L81.8901 107.352L90.3381 136.28L92.2579 135.72ZM81.85 107.072V136H83.85V107.072H81.85ZM82.85 135H77.538V137H82.85V135ZM78.538 136V95.936H76.538V136H78.538ZM77.538 96.936H83.618V94.936H77.538V96.936ZM82.658 96.2159L90.85 124.312L92.77 123.752L84.578 95.6561L82.658 96.2159ZM92.81 124.032V95.936H90.81V124.032H92.81ZM132.46 95.936H133.46V94.936H132.46V95.936ZM132.46 100.608V101.608H133.46V100.608H132.46ZM125.74 100.608V99.608H124.74V100.608H125.74ZM125.74 136V137H126.74V136H125.74ZM119.98 136H118.98V137H119.98V136ZM119.98 100.608H120.98V99.608H119.98V100.608ZM113.26 100.608H112.26V101.608H113.26V100.608ZM113.26 95.936V94.936H112.26V95.936H113.26ZM131.46 95.936V100.608H133.46V95.936H131.46ZM132.46 99.608H125.74V101.608H132.46V99.608ZM124.74 100.608V136H126.74V100.608H124.74ZM125.74 135H119.98V137H125.74V135ZM120.98 136V100.608H118.98V136H120.98ZM119.98 99.608H113.26V101.608H119.98V99.608ZM114.26 100.608V95.936H112.26V100.608H114.26ZM113.26 96.936H132.46V94.936H113.26V96.936ZM161.169 100.992L160.461 101.699L160.493 101.731L160.528 101.76L161.169 100.992ZM154.384 100.992L153.677 100.285L154.384 100.992ZM154.384 131.008L153.616 131.648L153.674 131.718L153.744 131.776L154.384 131.008ZM161.169 131.008L161.809 131.776L161.844 131.747L161.876 131.715L161.169 131.008ZM154.257 96.936H161.361V94.936H154.257V96.936ZM161.361 96.936C163.204 96.936 164.4 97.373 165.137 98.0704C165.864 98.7579 166.312 99.8594 166.312 101.568H168.312C168.312 99.522 167.769 97.8075 166.512 96.6176C165.265 95.4376 163.485 94.936 161.361 94.936V96.936ZM166.312 101.568V130.368H168.312V101.568H166.312ZM166.312 130.368C166.312 132.077 165.864 133.178 165.137 133.866C164.4 134.563 163.204 135 161.361 135V137C163.485 137 165.265 136.498 166.512 135.318C167.769 134.129 168.312 132.414 168.312 130.368H166.312ZM161.361 135H154.257V137H161.361V135ZM154.257 135C152.389 135 151.175 134.562 150.428 133.862C149.693 133.174 149.24 132.074 149.24 130.368H147.24C147.24 132.417 147.791 134.133 149.061 135.322C150.319 136.5 152.113 137 154.257 137V135ZM149.24 130.368V101.568H147.24V130.368H149.24ZM149.24 101.568C149.24 99.8623 149.693 98.7622 150.428 98.074C151.175 97.3743 152.389 96.936 154.257 96.936V94.936C152.113 94.936 150.319 95.4364 149.061 96.614C147.791 97.8032 147.24 99.519 147.24 101.568H149.24ZM162.553 129.472V102.464H160.553V129.472H162.553ZM162.553 102.464C162.553 102.034 162.518 101.626 162.424 101.268C162.333 100.919 162.161 100.517 161.809 100.224L160.528 101.76C160.432 101.68 160.452 101.63 160.489 101.772C160.523 101.905 160.553 102.126 160.553 102.464H162.553ZM161.876 100.285C161.574 99.983 161.191 99.8229 160.835 99.7339C160.473 99.6433 160.065 99.608 159.632 99.608V101.608C159.968 101.608 160.2 101.637 160.35 101.674C160.506 101.713 160.507 101.745 160.461 101.699L161.876 100.285ZM159.632 99.608H155.921V101.608H159.632V99.608ZM155.921 99.608C155.488 99.608 155.08 99.6433 154.718 99.7339C154.362 99.8229 153.979 99.983 153.677 100.285L155.092 101.699C155.046 101.745 155.047 101.713 155.203 101.674C155.353 101.637 155.585 101.608 155.921 101.608V99.608ZM153.677 100.285C153.372 100.59 153.237 100.986 153.167 101.308C153.093 101.649 153.064 102.042 153.064 102.464H155.064C155.064 102.118 155.089 101.882 155.122 101.732C155.159 101.563 155.183 101.607 155.092 101.699L153.677 100.285ZM153.064 102.464V129.472H155.064V102.464H153.064ZM153.064 129.472C153.064 129.896 153.093 130.29 153.166 130.636C153.235 130.97 153.361 131.342 153.616 131.648L155.153 130.368C155.194 130.418 155.161 130.406 155.123 130.228C155.089 130.062 155.064 129.816 155.064 129.472H153.064ZM153.744 131.776C154.05 132.031 154.423 132.157 154.757 132.227C155.103 132.299 155.497 132.328 155.921 132.328V130.328C155.576 130.328 155.33 130.304 155.164 130.269C154.986 130.232 154.975 130.198 155.025 130.24L153.744 131.776ZM155.921 132.328H159.632V130.328H155.921V132.328ZM159.632 132.328C160.056 132.328 160.45 132.299 160.796 132.227C161.13 132.157 161.503 132.031 161.809 131.776L160.528 130.24C160.578 130.198 160.567 130.232 160.389 130.269C160.223 130.304 159.977 130.328 159.632 130.328V132.328ZM161.876 131.715C162.177 131.413 162.338 131.031 162.427 130.675C162.517 130.312 162.553 129.904 162.553 129.472H160.553C160.553 129.808 160.524 130.04 160.486 130.189C160.447 130.345 160.416 130.347 160.461 130.301L161.876 131.715ZM191.925 119.808V118.808H190.925V119.808H191.925ZM191.925 136V137H192.925V136H191.925ZM186.165 136H185.165V137H186.165V136ZM186.165 95.936V94.936H185.165V95.936H186.165ZM200.949 119.68L200.787 118.693L199.571 118.893L200.017 120.042L200.949 119.68ZM207.285 136V137H208.746L208.218 135.638L207.285 136ZM201.077 136L200.14 136.348L200.382 137H201.077V136ZM195.061 119.808L195.999 119.46L195.757 118.808H195.061V119.808ZM191.925 100.608V99.608H190.925V100.608H191.925ZM191.925 115.2H190.925V116.2H191.925V115.2ZM199.093 114.88L199.734 115.648L199.769 115.619L199.801 115.587L199.093 114.88ZM199.093 100.992L198.386 101.699L198.418 101.731L198.453 101.76L199.093 100.992ZM190.925 119.808V136H192.925V119.808H190.925ZM191.925 135H186.165V137H191.925V135ZM187.165 136V95.936H185.165V136H187.165ZM186.165 96.936H199.285V94.936H186.165V96.936ZM199.285 96.936C201.129 96.936 202.325 97.373 203.062 98.0704C203.789 98.7579 204.237 99.8594 204.237 101.568H206.237C206.237 99.522 205.694 97.8075 204.437 96.6176C203.19 95.4376 201.41 94.936 199.285 94.936V96.936ZM204.237 101.568V114.112H206.237V101.568H204.237ZM204.237 114.112C204.237 115.596 203.91 116.629 203.373 117.326C202.848 118.008 202.029 118.489 200.787 118.693L201.112 120.667C202.729 120.401 204.054 119.72 204.958 118.546C205.85 117.387 206.237 115.871 206.237 114.112H204.237ZM200.017 120.042L206.353 136.362L208.218 135.638L201.882 119.318L200.017 120.042ZM207.285 135H201.077V137H207.285V135ZM202.015 135.652L195.999 119.46L194.124 120.156L200.14 136.348L202.015 135.652ZM195.061 118.808H191.925V120.808H195.061V118.808ZM190.925 100.608V115.2H192.925V100.608H190.925ZM191.925 116.2H197.557V114.2H191.925V116.2ZM197.557 116.2C197.981 116.2 198.375 116.171 198.721 116.099C199.055 116.029 199.428 115.903 199.734 115.648L198.453 114.112C198.503 114.07 198.492 114.104 198.314 114.141C198.148 114.176 197.902 114.2 197.557 114.2V116.2ZM199.801 115.587C200.102 115.285 200.263 114.903 200.352 114.547C200.442 114.184 200.477 113.776 200.477 113.344H198.477C198.477 113.68 198.449 113.912 198.411 114.061C198.372 114.217 198.341 114.219 198.386 114.173L199.801 115.587ZM200.477 113.344V102.464H198.477V113.344H200.477ZM200.477 102.464C200.477 102.034 200.443 101.626 200.349 101.268C200.258 100.919 200.086 100.517 199.734 100.224L198.453 101.76C198.357 101.68 198.377 101.63 198.414 101.772C198.448 101.905 198.477 102.126 198.477 102.464H200.477ZM199.801 100.285C199.499 99.983 199.116 99.8229 198.76 99.7339C198.398 99.6433 197.99 99.608 197.557 99.608V101.608C197.893 101.608 198.125 101.637 198.275 101.674C198.431 101.713 198.432 101.745 198.386 101.699L199.801 100.285ZM197.557 99.608H191.925V101.608H197.557V99.608ZM238.293 95.936V94.936H237.293V95.936H238.293ZM243.605 95.936H244.605V94.936H243.605V95.936ZM243.605 136V137H244.605V136H243.605ZM237.781 136L236.821 136.28L237.031 137H237.781V136ZM229.333 107.072L230.292 106.792L228.333 107.072H229.333ZM229.333 136V137H230.333V136H229.333ZM224.021 136H223.021V137H224.021V136ZM224.021 95.936V94.936H223.021V95.936H224.021ZM230.101 95.936L231.061 95.6561L230.851 94.936H230.101V95.936ZM238.293 124.032L237.332 124.312L239.293 124.032H238.293ZM238.293 96.936H243.605V94.936H238.293V96.936ZM242.605 95.936V136H244.605V95.936H242.605ZM243.605 135H237.781V137H243.605V135ZM238.74 135.72L230.292 106.792L228.373 107.352L236.821 136.28L238.74 135.72ZM228.333 107.072V136H230.333V107.072H228.333ZM229.333 135H224.021V137H229.333V135ZM225.021 136V95.936H223.021V136H225.021ZM224.021 96.936H230.101V94.936H224.021V96.936ZM229.14 96.2159L237.332 124.312L239.253 123.752L231.061 95.6561L229.14 96.2159ZM239.293 124.032V95.936H237.293V124.032H239.293ZM275.358 100.992L274.651 101.699L274.683 101.731L274.718 101.76L275.358 100.992ZM268.574 100.992L267.867 100.285L268.574 100.992ZM268.574 131.008L267.806 131.648L267.864 131.718L267.934 131.776L268.574 131.008ZM275.358 131.008L275.999 131.776L276.034 131.747L276.066 131.715L275.358 131.008ZM268.446 96.936H275.55V94.936H268.446V96.936ZM275.55 96.936C277.394 96.936 278.59 97.373 279.327 98.0704C280.054 98.7579 280.503 99.8594 280.503 101.568H282.503C282.503 99.522 281.959 97.8075 280.702 96.6176C279.455 95.4376 277.675 94.936 275.55 94.936V96.936ZM280.503 101.568V130.368H282.503V101.568H280.503ZM280.503 130.368C280.503 132.077 280.054 133.178 279.327 133.866C278.59 134.563 277.394 135 275.55 135V137C277.675 137 279.455 136.498 280.702 135.318C281.959 134.129 282.503 132.414 282.503 130.368H280.503ZM275.55 135H268.446V137H275.55V135ZM268.446 135C266.579 135 265.365 134.562 264.618 133.862C263.883 133.174 263.43 132.074 263.43 130.368H261.43C261.43 132.417 261.981 134.133 263.251 135.322C264.509 136.5 266.303 137 268.446 137V135ZM263.43 130.368V101.568H261.43V130.368H263.43ZM263.43 101.568C263.43 99.8623 263.883 98.7622 264.618 98.074C265.365 97.3743 266.579 96.936 268.446 96.936V94.936C266.303 94.936 264.509 95.4364 263.251 96.614C261.981 97.8032 261.43 99.519 261.43 101.568H263.43ZM276.742 129.472V102.464H274.742V129.472H276.742ZM276.742 102.464C276.742 102.034 276.708 101.626 276.614 101.268C276.523 100.919 276.351 100.517 275.999 100.224L274.718 101.76C274.622 101.68 274.642 101.63 274.679 101.772C274.713 101.905 274.742 102.126 274.742 102.464H276.742ZM276.066 100.285C275.764 99.983 275.381 99.8229 275.025 99.7339C274.663 99.6433 274.255 99.608 273.822 99.608V101.608C274.158 101.608 274.39 101.637 274.54 101.674C274.696 101.713 274.697 101.745 274.651 101.699L276.066 100.285ZM273.822 99.608H270.11V101.608H273.822V99.608ZM270.11 99.608C269.678 99.608 269.27 99.6433 268.908 99.7339C268.552 99.8229 268.169 99.983 267.867 100.285L269.282 101.699C269.236 101.745 269.237 101.713 269.393 101.674C269.543 101.637 269.775 101.608 270.11 101.608V99.608ZM267.867 100.285C267.562 100.59 267.427 100.986 267.357 101.308C267.283 101.649 267.254 102.042 267.254 102.464H269.254C269.254 102.118 269.279 101.882 269.312 101.732C269.349 101.563 269.373 101.607 269.282 101.699L267.867 100.285ZM267.254 102.464V129.472H269.254V102.464H267.254ZM267.254 129.472C267.254 129.896 267.283 130.29 267.355 130.636C267.425 130.97 267.551 131.342 267.806 131.648L269.343 130.368C269.384 130.418 269.351 130.406 269.313 130.228C269.279 130.062 269.254 129.816 269.254 129.472H267.254ZM267.934 131.776C268.24 132.031 268.613 132.157 268.947 132.227C269.293 132.299 269.687 132.328 270.11 132.328V130.328C269.766 130.328 269.52 130.304 269.354 130.269C269.176 130.232 269.165 130.198 269.215 130.24L267.934 131.776ZM270.11 132.328H273.822V130.328H270.11V132.328ZM273.822 132.328C274.246 132.328 274.64 132.299 274.986 132.227C275.32 132.157 275.693 132.031 275.999 131.776L274.718 130.24C274.768 130.198 274.757 130.232 274.579 130.269C274.413 130.304 274.167 130.328 273.822 130.328V132.328ZM276.066 131.715C276.367 131.413 276.528 131.031 276.617 130.675C276.707 130.312 276.742 129.904 276.742 129.472H274.742C274.742 129.808 274.714 130.04 274.676 130.189C274.637 130.345 274.605 130.347 274.651 130.301L276.066 131.715ZM311.491 118.208L310.723 118.848L310.781 118.918L310.851 118.976L311.491 118.208ZM317.635 107.456V108.456H318.635V107.456H317.635ZM311.811 107.456H310.811V108.456H311.811V107.456ZM311.427 100.992L310.72 101.699L310.752 101.731L310.787 101.76L311.427 100.992ZM305.668 100.992L306.308 101.76L306.343 101.731L306.375 101.699L305.668 100.992ZM305.668 112.896L304.96 113.603L304.992 113.635L305.027 113.664L305.668 112.896ZM299.587 124.48V123.48H298.587V124.48H299.587ZM305.411 124.48H306.411V123.48H305.411V124.48ZM305.796 131.008L305.088 131.715L305.12 131.747L305.155 131.776L305.796 131.008ZM311.491 131.008L312.199 131.715L311.491 131.008ZM312.875 129.472V119.68H310.875V129.472H312.875ZM312.875 119.68C312.875 119.25 312.841 118.842 312.747 118.484C312.656 118.135 312.484 117.733 312.132 117.44L310.851 118.976C310.755 118.896 310.775 118.846 310.812 118.988C310.846 119.121 310.875 119.342 310.875 119.68H312.875ZM312.26 117.568C311.966 117.216 311.564 117.043 311.216 116.952C310.858 116.859 310.45 116.824 310.02 116.824V118.824C310.357 118.824 310.579 118.853 310.711 118.888C310.854 118.925 310.803 118.944 310.723 118.848L312.26 117.568ZM310.02 116.824H305.284V118.824H310.02V116.824ZM305.284 116.824C303.491 116.824 302.331 116.386 301.615 115.685C300.903 114.989 300.46 113.867 300.46 112.128H298.46C298.46 114.187 298.987 115.913 300.216 117.115C301.441 118.313 303.194 118.824 305.284 118.824V116.824ZM300.46 112.128V101.568H298.46V112.128H300.46ZM300.46 101.568C300.46 99.8594 300.908 98.7579 301.635 98.0704C302.372 97.373 303.568 96.936 305.411 96.936V94.936C303.287 94.936 301.507 95.4376 300.26 96.6176C299.003 97.8075 298.46 99.522 298.46 101.568H300.46ZM305.411 96.936H311.684V94.936H305.411V96.936ZM311.684 96.936C313.527 96.936 314.723 97.373 315.46 98.0704C316.187 98.7579 316.635 99.8594 316.635 101.568H318.635C318.635 99.522 318.092 97.8075 316.835 96.6176C315.588 95.4376 313.808 94.936 311.684 94.936V96.936ZM316.635 101.568V107.456H318.635V101.568H316.635ZM317.635 106.456H311.811V108.456H317.635V106.456ZM312.811 107.456V102.464H310.811V107.456H312.811ZM312.811 102.464C312.811 102.034 312.777 101.626 312.683 101.268C312.592 100.919 312.42 100.517 312.068 100.224L310.787 101.76C310.691 101.68 310.711 101.63 310.748 101.772C310.782 101.905 310.811 102.126 310.811 102.464H312.811ZM312.135 100.285C311.833 99.983 311.45 99.8229 311.094 99.7339C310.732 99.6433 310.324 99.608 309.892 99.608V101.608C310.227 101.608 310.459 101.637 310.609 101.674C310.765 101.713 310.766 101.745 310.72 101.699L312.135 100.285ZM309.892 99.608H307.203V101.608H309.892V99.608ZM307.203 99.608C306.771 99.608 306.363 99.6433 306.001 99.7339C305.645 99.8229 305.262 99.983 304.96 100.285L306.375 101.699C306.329 101.745 306.33 101.713 306.486 101.674C306.636 101.637 306.868 101.608 307.203 101.608V99.608ZM305.027 100.224C304.675 100.517 304.503 100.919 304.412 101.268C304.318 101.626 304.284 102.034 304.284 102.464H306.284C306.284 102.126 306.313 101.905 306.347 101.772C306.384 101.63 306.404 101.68 306.308 101.76L305.027 100.224ZM304.284 102.464V111.36H306.284V102.464H304.284ZM304.284 111.36C304.284 111.792 304.319 112.2 304.409 112.563C304.498 112.919 304.659 113.301 304.96 113.603L306.375 112.189C306.42 112.235 306.389 112.233 306.35 112.077C306.312 111.928 306.284 111.696 306.284 111.36H304.284ZM305.027 113.664C305.333 113.919 305.706 114.045 306.04 114.115C306.386 114.187 306.78 114.216 307.203 114.216V112.216C306.859 112.216 306.613 112.192 306.447 112.157C306.269 112.12 306.258 112.086 306.308 112.128L305.027 113.664ZM307.203 114.216H311.875V112.216H307.203V114.216ZM311.875 114.216C313.695 114.216 314.874 114.652 315.6 115.347C316.318 116.034 316.763 117.136 316.763 118.848H318.763C318.763 116.805 318.227 115.092 316.983 113.901C315.747 112.719 313.981 112.216 311.875 112.216V114.216ZM316.763 118.848V130.368H318.763V118.848H316.763ZM316.763 130.368C316.763 132.074 316.311 133.174 315.576 133.862C314.829 134.562 313.615 135 311.747 135V137C313.891 137 315.685 136.5 316.943 135.322C318.213 134.133 318.763 132.417 318.763 130.368H316.763ZM311.747 135H305.539V137H311.747V135ZM305.539 135C303.696 135 302.5 134.563 301.763 133.866C301.036 133.178 300.587 132.077 300.587 130.368H298.587C298.587 132.414 299.131 134.129 300.388 135.318C301.635 136.498 303.415 137 305.539 137V135ZM300.587 130.368V124.48H298.587V130.368H300.587ZM299.587 125.48H305.411V123.48H299.587V125.48ZM304.411 124.48V129.472H306.411V124.48H304.411ZM304.411 129.472C304.411 129.904 304.447 130.312 304.537 130.675C304.626 131.031 304.787 131.413 305.088 131.715L306.503 130.301C306.548 130.347 306.517 130.345 306.478 130.189C306.44 130.04 306.411 129.808 306.411 129.472H304.411ZM305.155 131.776C305.461 132.031 305.834 132.157 306.168 132.227C306.514 132.299 306.908 132.328 307.331 132.328V130.328C306.987 130.328 306.741 130.304 306.575 130.269C306.397 130.232 306.386 130.198 306.436 130.24L305.155 131.776ZM307.331 132.328H310.02V130.328H307.331V132.328ZM310.02 132.328C310.442 132.328 310.834 132.299 311.176 132.225C311.497 132.155 311.894 132.02 312.199 131.715L310.784 130.301C310.876 130.209 310.921 130.234 310.751 130.271C310.602 130.303 310.365 130.328 310.02 130.328V132.328ZM312.199 131.715C312.5 131.413 312.661 131.031 312.75 130.675C312.84 130.312 312.875 129.904 312.875 129.472H310.875C310.875 129.808 310.847 130.04 310.809 130.189C310.77 130.345 310.739 130.347 310.784 130.301L312.199 131.715ZM358.202 95.936V94.936H357.202V95.936H358.202ZM363.962 95.936H364.962V94.936H363.962V95.936ZM363.962 136V137H364.962V136H363.962ZM358.202 136H357.202V137H358.202V136ZM358.202 96.936H363.962V94.936H358.202V96.936ZM362.962 95.936V136H364.962V95.936H362.962ZM363.962 135H358.202V137H363.962V135ZM359.202 136V95.936H357.202V136H359.202ZM389.368 131.328H388.368V132.328H389.368V131.328ZM399.288 131.328H400.288V130.328H399.288V131.328ZM399.288 136V137H400.288V136H399.288ZM383.608 136H382.608V137H383.608V136ZM383.608 95.936V94.936H382.608V95.936H383.608ZM389.368 95.936H390.368V94.936H389.368V95.936ZM389.368 132.328H399.288V130.328H389.368V132.328ZM398.288 131.328V136H400.288V131.328H398.288ZM399.288 135H383.608V137H399.288V135ZM384.608 136V95.936H382.608V136H384.608ZM383.608 96.936H389.368V94.936H383.608V96.936ZM388.368 95.936V131.328H390.368V95.936H388.368ZM428.458 95.936V94.936H427.458V95.936H428.458ZM434.282 95.936H435.282V94.936H434.282V95.936ZM415.146 95.936V94.936H414.146V95.936H415.146ZM420.97 95.936H421.97V94.936H420.97V95.936ZM421.354 131.008L420.647 131.715L420.679 131.747L420.714 131.776L421.354 131.008ZM428.074 131.008L428.781 131.715L428.074 131.008ZM428.458 96.936H434.282V94.936H428.458V96.936ZM433.282 95.936V130.368H435.282V95.936H433.282ZM433.282 130.368C433.282 132.074 432.83 133.174 432.095 133.862C431.347 134.562 430.133 135 428.266 135V137C430.41 137 432.204 136.5 433.461 135.322C434.732 134.133 435.282 132.417 435.282 130.368H433.282ZM428.266 135H421.162V137H428.266V135ZM421.162 135C419.295 135 418.081 134.562 417.333 133.862C416.598 133.174 416.146 132.074 416.146 130.368H414.146C414.146 132.417 414.696 134.133 415.967 135.322C417.224 136.5 419.018 137 421.162 137V135ZM416.146 130.368V95.936H414.146V130.368H416.146ZM415.146 96.936H420.97V94.936H415.146V96.936ZM419.97 95.936V129.472H421.97V95.936H419.97ZM419.97 129.472C419.97 129.904 420.005 130.312 420.096 130.675C420.185 131.031 420.345 131.413 420.647 131.715L422.061 130.301C422.107 130.347 422.075 130.345 422.036 130.189C421.999 130.04 421.97 129.808 421.97 129.472H419.97ZM420.714 131.776C421.02 132.031 421.392 132.157 421.726 132.227C422.072 132.299 422.466 132.328 422.89 132.328V130.328C422.546 130.328 422.3 130.304 422.134 130.269C421.956 130.232 421.944 130.198 421.994 130.24L420.714 131.776ZM422.89 132.328H426.538V130.328H422.89V132.328ZM426.538 132.328C426.979 132.328 427.385 132.3 427.734 132.227C428.057 132.16 428.469 132.027 428.781 131.715L427.367 130.301C427.424 130.244 427.466 130.228 427.454 130.233C427.444 130.237 427.406 130.252 427.326 130.269C427.163 130.303 426.908 130.328 426.538 130.328V132.328ZM428.781 131.715C429.083 131.413 429.243 131.031 429.332 130.675C429.423 130.312 429.458 129.904 429.458 129.472H427.458C427.458 129.808 427.429 130.04 427.392 130.189C427.353 130.345 427.321 130.347 427.367 130.301L428.781 131.715ZM429.458 129.472V95.936H427.458V129.472H429.458ZM464.391 118.208L463.623 118.848L463.681 118.918L463.751 118.976L464.391 118.208ZM470.535 107.456V108.456H471.535V107.456H470.535ZM464.711 107.456H463.711V108.456H464.711V107.456ZM464.327 100.992L463.62 101.699L463.652 101.731L463.687 101.76L464.327 100.992ZM458.568 100.992L459.208 101.76L459.243 101.731L459.275 101.699L458.568 100.992ZM458.568 112.896L457.86 113.603L457.892 113.635L457.927 113.664L458.568 112.896ZM452.487 124.48V123.48H451.487V124.48H452.487ZM458.311 124.48H459.311V123.48H458.311V124.48ZM458.695 131.008L457.988 131.715L458.02 131.747L458.055 131.776L458.695 131.008ZM464.391 131.008L465.099 131.715L464.391 131.008ZM465.775 129.472V119.68H463.775V129.472H465.775ZM465.775 119.68C465.775 119.25 465.741 118.842 465.647 118.484C465.556 118.135 465.384 117.733 465.032 117.44L463.751 118.976C463.655 118.896 463.675 118.846 463.712 118.988C463.746 119.121 463.775 119.342 463.775 119.68H465.775ZM465.16 117.568C464.866 117.216 464.464 117.043 464.116 116.952C463.758 116.859 463.35 116.824 462.919 116.824V118.824C463.257 118.824 463.479 118.853 463.611 118.888C463.754 118.925 463.703 118.944 463.623 118.848L465.16 117.568ZM462.919 116.824H458.184V118.824H462.919V116.824ZM458.184 116.824C456.391 116.824 455.231 116.386 454.515 115.685C453.803 114.989 453.359 113.867 453.359 112.128H451.359C451.359 114.187 451.887 115.913 453.116 117.115C454.341 118.313 456.094 118.824 458.184 118.824V116.824ZM453.359 112.128V101.568H451.359V112.128H453.359ZM453.359 101.568C453.359 99.8594 453.808 98.7579 454.535 98.0704C455.272 97.373 456.468 96.936 458.311 96.936V94.936C456.187 94.936 454.407 95.4376 453.16 96.6176C451.903 97.8075 451.359 99.522 451.359 101.568H453.359ZM458.311 96.936H464.583V94.936H458.311V96.936ZM464.583 96.936C466.427 96.936 467.623 97.373 468.36 98.0704C469.087 98.7579 469.535 99.8594 469.535 101.568H471.535C471.535 99.522 470.992 97.8075 469.735 96.6176C468.488 95.4376 466.708 94.936 464.583 94.936V96.936ZM469.535 101.568V107.456H471.535V101.568H469.535ZM470.535 106.456H464.711V108.456H470.535V106.456ZM465.711 107.456V102.464H463.711V107.456H465.711ZM465.711 102.464C465.711 102.034 465.677 101.626 465.583 101.268C465.492 100.919 465.32 100.517 464.968 100.224L463.687 101.76C463.591 101.68 463.611 101.63 463.648 101.772C463.682 101.905 463.711 102.126 463.711 102.464H465.711ZM465.035 100.285C464.733 99.983 464.35 99.8229 463.994 99.7339C463.632 99.6433 463.224 99.608 462.792 99.608V101.608C463.127 101.608 463.359 101.637 463.509 101.674C463.665 101.713 463.666 101.745 463.62 101.699L465.035 100.285ZM462.792 99.608H460.103V101.608H462.792V99.608ZM460.103 99.608C459.671 99.608 459.263 99.6433 458.901 99.7339C458.545 99.8229 458.162 99.983 457.86 100.285L459.275 101.699C459.229 101.745 459.23 101.713 459.386 101.674C459.536 101.637 459.768 101.608 460.103 101.608V99.608ZM457.927 100.224C457.575 100.517 457.403 100.919 457.312 101.268C457.218 101.626 457.184 102.034 457.184 102.464H459.184C459.184 102.126 459.213 101.905 459.247 101.772C459.284 101.63 459.304 101.68 459.208 101.76L457.927 100.224ZM457.184 102.464V111.36H459.184V102.464H457.184ZM457.184 111.36C457.184 111.792 457.219 112.2 457.309 112.563C457.398 112.919 457.559 113.301 457.86 113.603L459.275 112.189C459.32 112.235 459.289 112.233 459.25 112.077C459.212 111.928 459.184 111.696 459.184 111.36H457.184ZM457.927 113.664C458.233 113.919 458.606 114.045 458.94 114.115C459.286 114.187 459.68 114.216 460.103 114.216V112.216C459.759 112.216 459.513 112.192 459.347 112.157C459.169 112.12 459.158 112.086 459.208 112.128L457.927 113.664ZM460.103 114.216H464.775V112.216H460.103V114.216ZM464.775 114.216C466.595 114.216 467.774 114.652 468.5 115.347C469.218 116.034 469.663 117.136 469.663 118.848H471.663C471.663 116.805 471.127 115.092 469.883 113.901C468.647 112.719 466.881 112.216 464.775 112.216V114.216ZM469.663 118.848V130.368H471.663V118.848H469.663ZM469.663 130.368C469.663 132.074 469.211 133.174 468.476 133.862C467.729 134.562 466.514 135 464.647 135V137C466.791 137 468.585 136.5 469.843 135.322C471.113 134.133 471.663 132.417 471.663 130.368H469.663ZM464.647 135H458.439V137H464.647V135ZM458.439 135C456.596 135 455.4 134.563 454.663 133.866C453.936 133.178 453.487 132.077 453.487 130.368H451.487C451.487 132.414 452.031 134.129 453.288 135.318C454.535 136.498 456.315 137 458.439 137V135ZM453.487 130.368V124.48H451.487V130.368H453.487ZM452.487 125.48H458.311V123.48H452.487V125.48ZM457.311 124.48V129.472H459.311V124.48H457.311ZM457.311 129.472C457.311 129.904 457.347 130.312 457.437 130.675C457.526 131.031 457.687 131.413 457.988 131.715L459.403 130.301C459.448 130.347 459.417 130.345 459.378 130.189C459.34 130.04 459.311 129.808 459.311 129.472H457.311ZM458.055 131.776C458.361 132.031 458.734 132.157 459.068 132.227C459.414 132.299 459.808 132.328 460.232 132.328V130.328C459.887 130.328 459.641 130.304 459.475 130.269C459.297 130.232 459.286 130.198 459.336 130.24L458.055 131.776ZM460.232 132.328H462.919V130.328H460.232V132.328ZM462.919 132.328C463.342 132.328 463.734 132.299 464.076 132.225C464.397 132.155 464.794 132.02 465.099 131.715L463.684 130.301C463.776 130.209 463.821 130.234 463.651 130.271C463.502 130.303 463.265 130.328 462.919 130.328V132.328ZM465.099 131.715C465.4 131.413 465.561 131.031 465.65 130.675C465.74 130.312 465.775 129.904 465.775 129.472H463.775C463.775 129.808 463.747 130.04 463.709 130.189C463.67 130.345 463.639 130.347 463.684 130.301L465.099 131.715ZM501.469 100.992L500.761 101.699L500.793 101.731L500.828 101.76L501.469 100.992ZM494.685 100.992L493.977 100.285L494.685 100.992ZM494.685 131.008L493.916 131.648L493.974 131.718L494.044 131.776L494.685 131.008ZM501.469 131.008L502.109 131.776L502.144 131.747L502.176 131.715L501.469 131.008ZM494.556 96.936H501.66V94.936H494.556V96.936ZM501.66 96.936C503.504 96.936 504.7 97.373 505.437 98.0704C506.164 98.7579 506.612 99.8594 506.612 101.568H508.612C508.612 99.522 508.069 97.8075 506.812 96.6176C505.565 95.4376 503.785 94.936 501.66 94.936V96.936ZM506.612 101.568V130.368H508.612V101.568H506.612ZM506.612 130.368C506.612 132.077 506.164 133.178 505.437 133.866C504.7 134.563 503.504 135 501.66 135V137C503.785 137 505.565 136.498 506.812 135.318C508.069 134.129 508.612 132.414 508.612 130.368H506.612ZM501.66 135H494.556V137H501.66V135ZM494.556 135C492.69 135 491.475 134.562 490.728 133.862C489.993 133.174 489.54 132.074 489.54 130.368H487.54C487.54 132.417 488.091 134.133 489.361 135.322C490.619 136.5 492.413 137 494.556 137V135ZM489.54 130.368V101.568H487.54V130.368H489.54ZM489.54 101.568C489.54 99.8623 489.993 98.7622 490.728 98.074C491.475 97.3743 492.69 96.936 494.556 96.936V94.936C492.413 94.936 490.619 95.4364 489.361 96.614C488.091 97.8032 487.54 99.519 487.54 101.568H489.54ZM502.853 129.472V102.464H500.853V129.472H502.853ZM502.853 102.464C502.853 102.034 502.818 101.626 502.724 101.268C502.633 100.919 502.461 100.517 502.109 100.224L500.828 101.76C500.732 101.68 500.752 101.63 500.789 101.772C500.823 101.905 500.853 102.126 500.853 102.464H502.853ZM502.176 100.285C501.874 99.983 501.491 99.8229 501.135 99.7339C500.773 99.6433 500.365 99.608 499.932 99.608V101.608C500.268 101.608 500.5 101.637 500.65 101.674C500.806 101.713 500.807 101.745 500.761 101.699L502.176 100.285ZM499.932 99.608H496.22V101.608H499.932V99.608ZM496.22 99.608C495.788 99.608 495.38 99.6433 495.018 99.7339C494.662 99.8229 494.279 99.983 493.977 100.285L495.392 101.699C495.346 101.745 495.347 101.713 495.503 101.674C495.653 101.637 495.885 101.608 496.22 101.608V99.608ZM493.977 100.285C493.672 100.59 493.537 100.986 493.467 101.308C493.393 101.649 493.365 102.042 493.365 102.464H495.365C495.365 102.118 495.389 101.882 495.422 101.732C495.459 101.563 495.483 101.607 495.392 101.699L493.977 100.285ZM493.365 102.464V129.472H495.365V102.464H493.365ZM493.365 129.472C493.365 129.896 493.393 130.29 493.466 130.636C493.535 130.97 493.661 131.342 493.916 131.648L495.453 130.368C495.494 130.418 495.461 130.406 495.423 130.228C495.389 130.062 495.365 129.816 495.365 129.472H493.365ZM494.044 131.776C494.35 132.031 494.723 132.157 495.057 132.227C495.403 132.299 495.797 132.328 496.22 132.328V130.328C495.876 130.328 495.63 130.304 495.464 130.269C495.286 130.232 495.275 130.198 495.325 130.24L494.044 131.776ZM496.22 132.328H499.932V130.328H496.22V132.328ZM499.932 132.328C500.356 132.328 500.75 132.299 501.096 132.227C501.43 132.157 501.803 132.031 502.109 131.776L500.828 130.24C500.878 130.198 500.867 130.232 500.689 130.269C500.523 130.304 500.277 130.328 499.932 130.328V132.328ZM502.176 131.715C502.477 131.413 502.638 131.031 502.727 130.675C502.817 130.312 502.853 129.904 502.853 129.472H500.853C500.853 129.808 500.824 130.04 500.786 130.189C500.747 130.345 500.716 130.347 500.761 130.301L502.176 131.715ZM532.226 119.808V118.808H531.226V119.808H532.226ZM532.226 136V137H533.226V136H532.226ZM526.466 136H525.466V137H526.466V136ZM526.466 95.936V94.936H525.466V95.936H526.466ZM541.25 119.68L541.088 118.693L539.871 118.893L540.317 120.042L541.25 119.68ZM547.586 136V137H549.046L548.518 135.638L547.586 136ZM541.378 136L540.44 136.348L540.682 137H541.378V136ZM535.362 119.808L536.299 119.46L536.057 118.808H535.362V119.808ZM532.226 100.608V99.608H531.226V100.608H532.226ZM532.226 115.2H531.226V116.2H532.226V115.2ZM539.393 114.88L540.034 115.648L540.069 115.619L540.101 115.587L539.393 114.88ZM539.393 100.992L538.686 101.699L538.719 101.731L538.753 101.76L539.393 100.992ZM531.226 119.808V136H533.226V119.808H531.226ZM532.226 135H526.466V137H532.226V135ZM527.466 136V95.936H525.466V136H527.466ZM526.466 96.936H539.586V94.936H526.466V96.936ZM539.586 96.936C541.429 96.936 542.625 97.373 543.362 98.0704C544.089 98.7579 544.538 99.8594 544.538 101.568H546.538C546.538 99.522 545.994 97.8075 544.737 96.6176C543.49 95.4376 541.71 94.936 539.586 94.936V96.936ZM544.538 101.568V114.112H546.538V101.568H544.538ZM544.538 114.112C544.538 115.596 544.21 116.629 543.673 117.326C543.148 118.008 542.329 118.489 541.088 118.693L541.411 120.667C543.029 120.401 544.354 119.72 545.258 118.546C546.15 117.387 546.538 115.871 546.538 114.112H544.538ZM540.317 120.042L546.653 136.362L548.518 135.638L542.182 119.318L540.317 120.042ZM547.586 135H541.378V137H547.586V135ZM542.315 135.652L536.299 119.46L534.424 120.156L540.44 136.348L542.315 135.652ZM535.362 118.808H532.226V120.808H535.362V118.808ZM531.226 100.608V115.2H533.226V100.608H531.226ZM532.226 116.2H537.857V114.2H532.226V116.2ZM537.857 116.2C538.281 116.2 538.675 116.171 539.021 116.099C539.355 116.029 539.728 115.903 540.034 115.648L538.753 114.112C538.803 114.07 538.792 114.104 538.614 114.141C538.448 114.176 538.202 114.2 537.857 114.2V116.2ZM540.101 115.587C540.402 115.285 540.563 114.903 540.652 114.547C540.742 114.184 540.778 113.776 540.778 113.344H538.778C538.778 113.68 538.749 113.912 538.711 114.061C538.672 114.217 538.641 114.219 538.686 114.173L540.101 115.587ZM540.778 113.344V102.464H538.778V113.344H540.778ZM540.778 102.464C540.778 102.034 540.743 101.626 540.649 101.268C540.558 100.919 540.386 100.517 540.034 100.224L538.753 101.76C538.657 101.68 538.677 101.63 538.714 101.772C538.748 101.905 538.778 102.126 538.778 102.464H540.778ZM540.101 100.285C539.799 99.983 539.416 99.8229 539.06 99.7339C538.698 99.6433 538.29 99.608 537.857 99.608V101.608C538.193 101.608 538.425 101.637 538.575 101.674C538.731 101.713 538.732 101.745 538.686 101.699L540.101 100.285ZM537.857 99.608H532.226V101.608H537.857V99.608ZM564.833 95.936V94.936H563.833V95.936H564.833ZM570.592 95.936H571.592V94.936H570.592V95.936ZM570.592 136V137H571.592V136H570.592ZM564.833 136H563.833V137H564.833V136ZM564.833 96.936H570.592V94.936H564.833V96.936ZM569.592 95.936V136H571.592V95.936H569.592ZM570.592 135H564.833V137H570.592V135ZM565.833 136V95.936H563.833V136H565.833ZM602.846 100.992L602.139 101.699L602.171 101.731L602.206 101.76L602.846 100.992ZM596.062 100.992L595.355 100.285L596.062 100.992ZM596.062 131.008L595.294 131.648L595.352 131.718L595.422 131.776L596.062 131.008ZM602.846 131.008L603.486 131.776L603.521 131.747L603.553 131.715L602.846 131.008ZM595.934 96.936H603.038V94.936H595.934V96.936ZM603.038 96.936C604.881 96.936 606.078 97.373 606.815 98.0704C607.541 98.7579 607.99 99.8594 607.99 101.568H609.99C609.99 99.522 609.447 97.8075 608.189 96.6176C606.942 95.4376 605.163 94.936 603.038 94.936V96.936ZM607.99 101.568V130.368H609.99V101.568H607.99ZM607.99 130.368C607.99 132.077 607.541 133.178 606.815 133.866C606.078 134.563 604.881 135 603.038 135V137C605.163 137 606.942 136.498 608.189 135.318C609.447 134.129 609.99 132.414 609.99 130.368H607.99ZM603.038 135H595.934V137H603.038V135ZM595.934 135C594.067 135 592.853 134.562 592.105 133.862C591.37 133.174 590.918 132.074 590.918 130.368H588.918C588.918 132.417 589.468 134.133 590.739 135.322C591.996 136.5 593.79 137 595.934 137V135ZM590.918 130.368V101.568H588.918V130.368H590.918ZM590.918 101.568C590.918 99.8623 591.37 98.7622 592.105 98.074C592.853 97.3743 594.067 96.936 595.934 96.936V94.936C593.79 94.936 591.996 95.4364 590.739 96.614C589.468 97.8032 588.918 99.519 588.918 101.568H590.918ZM604.23 129.472V102.464H602.23V129.472H604.23ZM604.23 102.464C604.23 102.034 604.195 101.626 604.102 101.268C604.011 100.919 603.838 100.517 603.486 100.224L602.206 101.76C602.11 101.68 602.129 101.63 602.166 101.772C602.201 101.905 602.23 102.126 602.23 102.464H604.23ZM603.553 100.285C603.251 99.983 602.869 99.8229 602.513 99.7339C602.15 99.6433 601.742 99.608 601.31 99.608V101.608C601.646 101.608 601.878 101.637 602.027 101.674C602.183 101.713 602.185 101.745 602.139 101.699L603.553 100.285ZM601.31 99.608H597.598V101.608H601.31V99.608ZM597.598 99.608C597.166 99.608 596.758 99.6433 596.395 99.7339C596.039 99.8229 595.657 99.983 595.355 100.285L596.769 101.699C596.723 101.745 596.725 101.713 596.88 101.674C597.03 101.637 597.262 101.608 597.598 101.608V99.608ZM595.355 100.285C595.05 100.59 594.915 100.986 594.845 101.308C594.771 101.649 594.742 102.042 594.742 102.464H596.742C596.742 102.118 596.767 101.882 596.799 101.732C596.836 101.563 596.861 101.607 596.769 101.699L595.355 100.285ZM594.742 102.464V129.472H596.742V102.464H594.742ZM594.742 129.472C594.742 129.896 594.771 130.29 594.843 130.636C594.913 130.97 595.039 131.342 595.294 131.648L596.83 130.368C596.872 130.418 596.838 130.406 596.801 130.228C596.766 130.062 596.742 129.816 596.742 129.472H594.742ZM595.422 131.776C595.728 132.031 596.1 132.157 596.434 132.227C596.78 132.299 597.174 132.328 597.598 132.328V130.328C597.254 130.328 597.008 130.304 596.842 130.269C596.664 130.232 596.652 130.198 596.702 130.24L595.422 131.776ZM597.598 132.328H601.31V130.328H597.598V132.328ZM601.31 132.328C601.734 132.328 602.128 132.299 602.474 132.227C602.808 132.157 603.18 132.031 603.486 131.776L602.206 130.24C602.256 130.198 602.244 130.232 602.066 130.269C601.9 130.304 601.654 130.328 601.31 130.328V132.328ZM603.553 131.715C603.855 131.413 604.015 131.031 604.104 130.675C604.195 130.312 604.23 129.904 604.23 129.472H602.23C602.23 129.808 602.201 130.04 602.164 130.189C602.125 130.345 602.093 130.347 602.139 130.301L603.553 131.715ZM638.979 118.208L638.211 118.848L638.269 118.918L638.339 118.976L638.979 118.208ZM645.123 107.456V108.456H646.123V107.456H645.123ZM639.299 107.456H638.299V108.456H639.299V107.456ZM638.915 100.992L638.208 101.699L638.24 101.731L638.275 101.76L638.915 100.992ZM633.155 100.992L633.795 101.76L633.83 101.731L633.862 101.699L633.155 100.992ZM633.155 112.896L632.448 113.603L632.48 113.635L632.515 113.664L633.155 112.896ZM627.075 124.48V123.48H626.075V124.48H627.075ZM632.899 124.48H633.899V123.48H632.899V124.48ZM633.283 131.008L632.576 131.715L632.608 131.747L632.643 131.776L633.283 131.008ZM638.979 131.008L639.686 131.715L638.979 131.008ZM640.363 129.472V119.68H638.363V129.472H640.363ZM640.363 119.68C640.363 119.25 640.328 118.842 640.235 118.484C640.144 118.135 639.971 117.733 639.619 117.44L638.339 118.976C638.243 118.896 638.262 118.846 638.299 118.988C638.334 119.121 638.363 119.342 638.363 119.68H640.363ZM639.747 117.568C639.454 117.216 639.052 117.043 638.703 116.952C638.345 116.859 637.937 116.824 637.507 116.824V118.824C637.845 118.824 638.066 118.853 638.199 118.888C638.341 118.925 638.291 118.944 638.211 118.848L639.747 117.568ZM637.507 116.824H632.771V118.824H637.507V116.824ZM632.771 116.824C630.978 116.824 629.819 116.386 629.102 115.685C628.39 114.989 627.947 113.867 627.947 112.128H625.947C625.947 114.187 626.475 115.913 627.704 117.115C628.929 118.313 630.681 118.824 632.771 118.824V116.824ZM627.947 112.128V101.568H625.947V112.128H627.947ZM627.947 101.568C627.947 99.8594 628.396 98.7579 629.122 98.0704C629.859 97.373 631.056 96.936 632.899 96.936V94.936C630.774 94.936 628.995 95.4376 627.748 96.6176C626.49 97.8075 625.947 99.522 625.947 101.568H627.947ZM632.899 96.936H639.171V94.936H632.899V96.936ZM639.171 96.936C641.014 96.936 642.211 97.373 642.948 98.0704C643.674 98.7579 644.123 99.8594 644.123 101.568H646.123C646.123 99.522 645.58 97.8075 644.322 96.6176C643.075 95.4376 641.296 94.936 639.171 94.936V96.936ZM644.123 101.568V107.456H646.123V101.568H644.123ZM645.123 106.456H639.299V108.456H645.123V106.456ZM640.299 107.456V102.464H638.299V107.456H640.299ZM640.299 102.464C640.299 102.034 640.264 101.626 640.171 101.268C640.08 100.919 639.907 100.517 639.555 100.224L638.275 101.76C638.179 101.68 638.198 101.63 638.235 101.772C638.27 101.905 638.299 102.126 638.299 102.464H640.299ZM639.622 100.285C639.32 99.983 638.938 99.8229 638.582 99.7339C638.219 99.6433 637.811 99.608 637.379 99.608V101.608C637.715 101.608 637.947 101.637 638.096 101.674C638.252 101.713 638.254 101.745 638.208 101.699L639.622 100.285ZM637.379 99.608H634.691V101.608H637.379V99.608ZM634.691 99.608C634.259 99.608 633.851 99.6433 633.488 99.7339C633.132 99.8229 632.75 99.983 632.448 100.285L633.862 101.699C633.816 101.745 633.818 101.713 633.974 101.674C634.123 101.637 634.355 101.608 634.691 101.608V99.608ZM632.515 100.224C632.163 100.517 631.99 100.919 631.899 101.268C631.806 101.626 631.771 102.034 631.771 102.464H633.771C633.771 102.126 633.8 101.905 633.835 101.772C633.872 101.63 633.891 101.68 633.795 101.76L632.515 100.224ZM631.771 102.464V111.36H633.771V102.464H631.771ZM631.771 111.36C631.771 111.792 631.806 112.2 631.897 112.563C631.986 112.919 632.146 113.301 632.448 113.603L633.862 112.189C633.908 112.235 633.876 112.233 633.837 112.077C633.8 111.928 633.771 111.696 633.771 111.36H631.771ZM632.515 113.664C632.821 113.919 633.193 114.045 633.527 114.115C633.873 114.187 634.267 114.216 634.691 114.216V112.216C634.347 112.216 634.101 112.192 633.935 112.157C633.757 112.12 633.745 112.086 633.795 112.128L632.515 113.664ZM634.691 114.216H639.363V112.216H634.691V114.216ZM639.363 114.216C641.182 114.216 642.361 114.652 643.088 115.347C643.806 116.034 644.251 117.136 644.251 118.848H646.251C646.251 116.805 645.715 115.092 644.47 113.901C643.234 112.719 641.469 112.216 639.363 112.216V114.216ZM644.251 118.848V130.368H646.251V118.848H644.251ZM644.251 130.368C644.251 132.074 643.799 133.174 643.064 133.862C642.316 134.562 641.102 135 639.235 135V137C641.379 137 643.173 136.5 644.43 135.322C645.701 134.133 646.251 132.417 646.251 130.368H644.251ZM639.235 135H633.027V137H639.235V135ZM633.027 135C631.184 135 629.987 134.563 629.25 133.866C628.524 133.178 628.075 132.077 628.075 130.368H626.075C626.075 132.414 626.618 134.129 627.876 135.318C629.123 136.498 630.902 137 633.027 137V135ZM628.075 130.368V124.48H626.075V130.368H628.075ZM627.075 125.48H632.899V123.48H627.075V125.48ZM631.899 124.48V129.472H633.899V124.48H631.899ZM631.899 129.472C631.899 129.904 631.934 130.312 632.025 130.675C632.114 131.031 632.274 131.413 632.576 131.715L633.99 130.301C634.036 130.347 634.004 130.345 633.965 130.189C633.928 130.04 633.899 129.808 633.899 129.472H631.899ZM632.643 131.776C632.949 132.031 633.321 132.157 633.655 132.227C634.001 132.299 634.395 132.328 634.819 132.328V130.328C634.475 130.328 634.229 130.304 634.063 130.269C633.885 130.232 633.873 130.198 633.923 130.24L632.643 131.776ZM634.819 132.328H637.507V130.328H634.819V132.328ZM637.507 132.328C637.929 132.328 638.322 132.299 638.663 132.225C638.985 132.155 639.381 132.02 639.686 131.715L638.272 130.301C638.364 130.209 638.408 130.234 638.239 130.271C638.089 130.303 637.853 130.328 637.507 130.328V132.328ZM639.686 131.715C639.988 131.413 640.148 131.031 640.237 130.675C640.328 130.312 640.363 129.904 640.363 129.472H638.363C638.363 129.808 638.334 130.04 638.297 130.189C638.258 130.345 638.226 130.347 638.272 130.301L639.686 131.715Z" fill="white" fill-opacity="0.3"/>
</svg>
