<svg xmlns="http://www.w3.org/2000/svg" width="39" height="38" fill="none" viewBox="0 0 39 38">
  <g class="dibujo13">
    <g class="&lt;Group&gt;">
      <g class="&lt;Group&gt;">
        <path fill="#D75C27" d="M3.6 9.125 30.225 34.4l.975-.075L9.075 4.4l-1.05.075L3.6 9.125Z" class="&lt;Path&gt;"/>
        <path fill="#050505" fill-rule="evenodd" d="M3.525 9.125V9.2L30.15 34.475h1.05c.05 0 .1-.025.15-.075 0-.05-.025-.1-.075-.15L9.15 4.4c0-.05-.025-.075-.075-.075h-1.05L7.95 4.4 3.525 9.05v.075Zm26.7 25.125L3.75 9.125 8.1 4.55H9l21.975 29.7h-.75Z" class="&lt;Compound Path&gt;" clip-rule="evenodd"/>
      </g>
      <g class="&lt;Group&gt;">
        <path fill="#B85026" d="m9.075 4.4-1.05.075L3.6 9.125h1.05L9.075 4.4Z" class="&lt;Path&gt;"/>
        <path fill="#050505" fill-rule="evenodd" d="M3.525 9.125V9.2h1.2L9.15 4.475c.05 0 .05-.025 0-.075 0-.05-.025-.075-.075-.075h-1.05L7.95 4.4 3.525 9.05v.075Zm1.05-.15H3.9L8.1 4.55h.75L4.575 8.975Z" class="&lt;Compound Path&gt;" clip-rule="evenodd"/>
      </g>
      <g class="&lt;Group&gt;">
        <path fill="#F7931D" d="m4.65 9.125 26.55 25.2 4.425-4.65L9.075 4.4 4.65 9.125Z" class="&lt;Path&gt;"/>
        <path fill="#050505" fill-rule="evenodd" d="M4.575 9.125V9.2l26.55 25.2c.075.075.15.075.15 0l4.425-4.65c.075-.075.075-.15 0-.15L9.15 4.325H9L4.575 9.05v.075ZM31.2 34.175 4.8 9.125l4.275-4.5 26.4 25.05-4.275 4.5Z" class="&lt;Compound Path&gt;" clip-rule="evenodd"/>
      </g>
      <g class="&lt;Group&gt;" opacity=".9">
        <path fill="#FEFEFE" d="M7.875 6.8 33.3 31.025l1.8-1.875L9.6 4.925 7.875 6.8Z" class="&lt;Path&gt;"/>
        <path fill="#050505" fill-rule="evenodd" d="M7.725 6.8c0 .05.025.075.075.075L33.225 31.1c.075.075.15.075.15 0l1.8-1.875c.075 0 .075-.075 0-.15L9.675 4.85h-.15L7.8 6.725l-.075.075ZM33.3 30.875 8.025 6.8 9.6 5.075 34.95 29.15l-1.65 1.725Z" class="&lt;Compound Path&gt;" clip-rule="evenodd"/>
      </g>
      <g class="&lt;Group&gt;" opacity=".9">
        <path fill="#EC2324" d="M33.3 31.025 7.875 6.8l.3-.3 25.5 24.225-.375.3Z" class="&lt;Path&gt;"/>
        <path fill="#050505" fill-rule="evenodd" d="M7.725 6.8c0 .05.025.075.075.075L33.225 31.1l.075.075c.05 0 .075-.025.075-.075l.375-.3v-.225L8.25 6.425c-.075-.075-.15-.075-.15 0l-.3.3-.075.075ZM33.3 30.875 8.025 6.8l.15-.15 25.35 24.075-.225.15Z" class="&lt;Compound Path&gt;" clip-rule="evenodd"/>
      </g>
      <g class="&lt;Group&gt;" opacity=".7">
        <g class="&lt;Group&gt;">
          <g class="&lt;Group&gt;">
            <path fill="#050505" d="m33.825 29 .225.15.525-.525-.225-.15-.525.525Z" class="&lt;Path&gt;"/>
          </g>
          <g class="&lt;Group&gt;">
            <path fill="#050505" d="m33.375 28.55.15.15.525-.525-.15-.15-.525.525Z" class="&lt;Path&gt;"/>
          </g>
          <g class="&lt;Group&gt;">
            <path fill="#050505" d="m32.85 28.1.225.15.525-.525-.225-.225-.525.6Z" class="&lt;Path&gt;"/>
          </g>
          <g class="&lt;Group&gt;">
            <path fill="#050505" d="m32.4 27.65.15.15.525-.525-.15-.225-.525.6Z" class="&lt;Path&gt;"/>
          </g>
          <g class="&lt;Group&gt;">
            <path fill="#050505" d="m31.95 27.2.15.15.525-.6-.225-.15-.45.6Z" class="&lt;Path&gt;"/>
          </g>
          <g class="&lt;Group&gt;">
            <path fill="#050505" d="m31.425 26.675.15.225.525-.6-.15-.15-.525.525Z" class="&lt;Path&gt;"/>
          </g>
          <g class="&lt;Group&gt;">
            <path fill="#050505" d="m30.975 26.225.15.15.525-.525-.15-.15-.525.525Z" class="&lt;Path&gt;"/>
          </g>
          <g class="&lt;Group&gt;">
            <path fill="#050505" d="m30.45 25.775.225.15.45-.525-.15-.15-.525.525Z" class="&lt;Path&gt;"/>
          </g>
          <g class="&lt;Group&gt;">
            <path fill="#050505" d="m30 25.325.15.15.525-.525-.15-.15-.525.525Z" class="&lt;Path&gt;"/>
          </g>
          <g class="&lt;Group&gt;">
            <path fill="#050505" d="m29.475 24.875.225.15.525-.525-.225-.15-.525.525Z" class="&lt;Path&gt;"/>
          </g>
          <g class="&lt;Group&gt;">
            <path fill="#050505" d="m29.025 24.425.15.15.525-.525-.15-.15-.525.525Z" class="&lt;Path&gt;"/>
          </g>
          <g class="&lt;Group&gt;">
            <path fill="#050505" d="m28.5 23.975.225.15.525-.525-.225-.225-.525.6Z" class="&lt;Path&gt;"/>
          </g>
          <g class="&lt;Group&gt;">
            <path fill="#050505" d="m28.05 23.525.15.15.525-.6-.15-.15-.525.6Z" class="&lt;Path&gt;"/>
          </g>
          <g class="&lt;Group&gt;">
            <path fill="#050505" d="m27.6 23 .15.225.525-.6-.225-.15-.45.525Z" class="&lt;Path&gt;"/>
          </g>
          <g class="&lt;Group&gt;">
            <path fill="#050505" d="m27.075 22.55.15.15.525-.525-.15-.15-.525.525Z" class="&lt;Path&gt;"/>
          </g>
          <g class="&lt;Group&gt;">
            <path fill="#050505" d="m26.625 22.1.15.15.525-.525-.15-.15-.525.525Z" class="&lt;Path&gt;"/>
          </g>
          <g class="&lt;Group&gt;">
            <path fill="#050505" d="m26.1 21.65.225.15.45-.525-.15-.15-.525.525Z" class="&lt;Path&gt;"/>
          </g>
          <g class="&lt;Group&gt;">
            <path fill="#050505" d="m25.65 21.2.15.15.525-.525-.15-.15-.525.525Z" class="&lt;Path&gt;"/>
          </g>
          <g class="&lt;Group&gt;">
            <path fill="#050505" d="m25.125 20.75.225.15.525-.525-.225-.15-.525.525Z" class="&lt;Path&gt;"/>
          </g>
          <g class="&lt;Group&gt;">
            <path fill="#050505" d="m24.675 20.3.15.15.525-.525-.15-.225-.525.6Z" class="&lt;Path&gt;"/>
          </g>
          <g class="&lt;Group&gt;">
            <path fill="#050505" d="m24.15 19.85.225.15.525-.6-.225-.15-.525.6Z" class="&lt;Path&gt;"/>
          </g>
          <g class="&lt;Group&gt;">
            <path fill="#050505" d="m23.7 19.325.15.225.525-.6-.15-.15-.525.525Z" class="&lt;Path&gt;"/>
          </g>
          <g class="&lt;Group&gt;">
            <path fill="#050505" d="m23.25 18.875.15.15.525-.525-.225-.15-.45.525Z" class="&lt;Path&gt;"/>
          </g>
          <g class="&lt;Group&gt;">
            <path fill="#050505" d="m22.725 18.425.15.15.525-.525-.15-.15-.525.525Z" class="&lt;Path&gt;"/>
          </g>
          <g class="&lt;Group&gt;">
            <path fill="#050505" d="m22.275 17.975.15.15.525-.525-.15-.15-.525.525Z" class="&lt;Path&gt;"/>
          </g>
          <g class="&lt;Group&gt;">
            <path fill="#050505" d="m21.75 17.525.225.15.45-.525-.15-.15-.525.525Z" class="&lt;Path&gt;"/>
          </g>
          <g class="&lt;Group&gt;">
            <path fill="#050505" d="m21.3 17.075.15.15.525-.525-.15-.15-.525.525Z" class="&lt;Path&gt;"/>
          </g>
          <g class="&lt;Group&gt;">
            <path fill="#050505" d="m20.775 16.625.225.15.525-.525-.225-.225-.525.6Z" class="&lt;Path&gt;"/>
          </g>
          <g class="&lt;Group&gt;">
            <path fill="#050505" d="m20.325 16.175.15.15L21 15.8l-.15-.225-.525.6Z" class="&lt;Path&gt;"/>
          </g>
          <g class="&lt;Group&gt;">
            <path fill="#050505" d="m19.8 15.65.225.225.525-.6-.225-.15-.525.525Z" class="&lt;Path&gt;"/>
          </g>
          <g class="&lt;Group&gt;">
            <path fill="#050505" d="m19.35 15.2.15.225.525-.6-.15-.15-.525.525Z" class="&lt;Path&gt;"/>
          </g>
          <g class="&lt;Group&gt;">
            <path fill="#050505" d="m18.9 14.75.15.15.525-.525-.225-.15-.45.525Z" class="&lt;Path&gt;"/>
          </g>
          <g class="&lt;Group&gt;">
            <path fill="#050505" d="m18.375 14.3.15.15.525-.525-.15-.15-.525.525Z" class="&lt;Path&gt;"/>
          </g>
          <g class="&lt;Group&gt;">
            <path fill="#050505" d="m17.925 13.85.15.15.525-.525-.15-.15-.525.525Z" class="&lt;Path&gt;"/>
          </g>
          <g class="&lt;Group&gt;">
            <path fill="#050505" d="m17.4 13.4.225.15.45-.525-.15-.15-.525.525Z" class="&lt;Path&gt;"/>
          </g>
          <g class="&lt;Group&gt;">
            <path fill="#050505" d="m16.95 12.95.15.15.525-.525-.15-.225-.525.6Z" class="&lt;Path&gt;"/>
          </g>
          <g class="&lt;Group&gt;">
            <path fill="#050505" d="m16.425 12.5.225.15.525-.525-.225-.225-.525.6Z" class="&lt;Path&gt;"/>
          </g>
          <g class="&lt;Group&gt;">
            <path fill="#050505" d="m15.975 12.05.15.15.525-.6-.15-.15-.525.6Z" class="&lt;Path&gt;"/>
          </g>
          <g class="&lt;Group&gt;">
            <path fill="#050505" d="m15.45 11.525.225.225.525-.6-.225-.15-.525.525Z" class="&lt;Path&gt;"/>
          </g>
          <g class="&lt;Group&gt;">
            <path fill="#050505" d="m15 11.075.15.15.525-.525-.15-.15-.525.525Z" class="&lt;Path&gt;"/>
          </g>
          <g class="&lt;Group&gt;">
            <path fill="#050505" d="m14.55 10.625.15.15.525-.525L15 10.1l-.45.525Z" class="&lt;Path&gt;"/>
          </g>
          <g class="&lt;Group&gt;">
            <path fill="#050505" d="m14.025 10.175.15.15.525-.525-.15-.15-.525.525Z" class="&lt;Path&gt;"/>
          </g>
          <g class="&lt;Group&gt;">
            <path fill="#050505" d="m13.575 9.725.15.15.525-.525-.15-.15-.525.525Z" class="&lt;Path&gt;"/>
          </g>
          <g class="&lt;Group&gt;">
            <path fill="#050505" d="m13.05 9.275.225.15.45-.525-.15-.15-.525.525Z" class="&lt;Path&gt;"/>
          </g>
          <g class="&lt;Group&gt;">
            <path fill="#050505" d="m12.6 8.825.15.15.525-.525-.15-.225-.525.6Z" class="&lt;Path&gt;"/>
          </g>
          <g class="&lt;Group&gt;">
            <path fill="#050505" d="m12.075 8.375.225.15.525-.6-.225-.15-.525.6Z" class="&lt;Path&gt;"/>
          </g>
          <g class="&lt;Group&gt;">
            <path fill="#050505" d="m11.625 7.85.15.225.525-.6-.15-.15-.525.525Z" class="&lt;Path&gt;"/>
          </g>
          <g class="&lt;Group&gt;">
            <path fill="#050505" d="m11.1 7.4.225.15.525-.525-.225-.15-.525.525Z" class="&lt;Path&gt;"/>
          </g>
          <g class="&lt;Group&gt;">
            <path fill="#050505" d="m10.65 6.95.15.15.525-.525-.15-.15-.525.525Z" class="&lt;Path&gt;"/>
          </g>
          <g class="&lt;Group&gt;">
            <path fill="#050505" d="m10.2 6.5.15.15.525-.525-.225-.15-.45.525Z" class="&lt;Path&gt;"/>
          </g>
          <g class="&lt;Group&gt;">
            <path fill="#050505" d="m9.675 6.05.15.15.525-.525-.15-.15-.525.525Z" class="&lt;Path&gt;"/>
          </g>
        </g>
        <g class="&lt;Group&gt;">
          <g class="&lt;Group&gt;">
            <path fill="#050505" d="m33.45 29.45.15.15.975-.975-.225-.15-.9.975Z" class="&lt;Path&gt;"/>
          </g>
          <g class="&lt;Group&gt;">
            <path fill="#050505" d="m31.05 27.125.15.15.9-.975-.15-.15-.9.975Z" class="&lt;Path&gt;"/>
          </g>
          <g class="&lt;Group&gt;">
            <path fill="#050505" d="m28.575 24.8.225.225.9-.975-.15-.15-.975.9Z" class="&lt;Path&gt;"/>
          </g>
          <g class="&lt;Group&gt;">
            <path fill="#050505" d="m26.175 22.55.225.15.9-.975-.15-.15-.975.975Z" class="&lt;Path&gt;"/>
          </g>
          <g class="&lt;Group&gt;">
            <path fill="#050505" d="m23.775 20.225.15.15.975-.975-.225-.15-.9.975Z" class="&lt;Path&gt;"/>
          </g>
          <g class="&lt;Group&gt;">
            <path fill="#050505" d="m21.375 17.975.15.15.9-.975-.15-.15-.9.975Z" class="&lt;Path&gt;"/>
          </g>
          <g class="&lt;Group&gt;">
            <path fill="#050505" d="m18.975 15.65.15.15.9-.975-.15-.15-.9.975Z" class="&lt;Path&gt;"/>
          </g>
          <g class="&lt;Group&gt;">
            <path fill="#050505" d="m16.5 13.325.225.225.9-.975-.15-.225-.975.975Z" class="&lt;Path&gt;"/>
          </g>
          <g class="&lt;Group&gt;">
            <path fill="#050505" d="m14.1 11.075.15.15.975-.975L15 10.1l-.9.975Z" class="&lt;Path&gt;"/>
          </g>
          <g class="&lt;Group&gt;">
            <path fill="#050505" d="m11.7 8.75.15.15.975-.975-.225-.15-.9.975Z" class="&lt;Path&gt;"/>
          </g>
          <g class="&lt;Group&gt;">
            <path fill="#050505" d="m9.3 6.5.15.15.9-.975-.15-.15-.9.975Z" class="&lt;Path&gt;"/>
          </g>
        </g>
      </g>
    </g>
  </g>
</svg>
