<svg xmlns="http://www.w3.org/2000/svg" width="38" height="38" fill="none" viewBox="0 0 38 38">
  <g class="dibujo6">
    <g class="&lt;Group&gt;">
      <path fill="#74C3AE" d="M21.928 22.022c1.725-1.725 1.8-4.65 0-6.375-1.725-1.8-4.575-1.875-6.375-.075-1.8 1.725-1.8 4.575-.075 6.375 1.8 1.8 4.65 1.8 6.45.075Z" class="&lt;Path&gt;"/>
      <path fill="#F26E21" d="M21.928 22.022c1.725-1.725 1.8-4.65 0-6.375-1.725-1.8-4.575-1.875-6.375-.075-1.8 1.725-1.8 4.575-.075 6.375 1.8 1.8 4.65 1.8 6.45.075Z" class="&lt;Path&gt;"/>
      <g class="&lt;Group&gt;" style="mix-blend-mode:multiply">
        <g class="&lt;Group&gt;">
          <path fill="#CACAC9" d="M16.528 17.447c-1.05 1.125-1.875 2.175-1.725 3.6-.9-1.725-.75-4.05.675-5.475 1.8-1.8 4.65-1.725 6.45 0 .375.45.75 1.125.975 1.575-1.575-1.425-4.5-1.5-6.375.3Z" class="&lt;Path&gt;"/>
        </g>
      </g>
    </g>
  </g>
</svg>
