<svg xmlns="http://www.w3.org/2000/svg" width="38" height="38" fill="none" viewBox="0 0 38 38">
  <g class="dibujo1">
    <g class="&lt;Group&gt;">
      <g class="&lt;Group&gt;">
        <path fill="#E2EDC3" stroke="#050505" stroke-linecap="round" stroke-linejoin="round" stroke-width=".3" d="M8.84 6.556c-.1-.1-.174-.125-.224-.075-.075 0-.6.3-.675.3-.05 0-.075.05-.075.15-.075.225.075.45.225.6.1.05.175.05.225 0 .075 0 .6-.225.675-.3.05 0 .075-.05.075-.15.075-.15-.075-.45-.225-.525Z" class="&lt;Path&gt;"/>
        <path fill="#E0EFE1" stroke="#050505" stroke-linecap="round" stroke-linejoin="round" stroke-width=".3" d="M8.466 7.381c-.075.15-.225.225-.375.15-.15-.15-.3-.375-.225-.6 0-.15.15-.225.3-.075.225.075.3.375.3.525Z" class="&lt;Path&gt;"/>
      </g>
      <g class="&lt;Group&gt;">
        <path fill="#E2EDC3" stroke="#050505" stroke-linecap="round" stroke-linejoin="round" stroke-width=".3" d="M7.716 5.656a.576.576 0 0 0-.225-.075c-.075 0-.6.3-.675.3-.05 0-.075.05-.075.15-.075.225.075.45.225.6.1.05.175.05.225 0 .075 0 .6-.225.675-.3.05 0 .075-.05.075-.15.075-.15-.075-.45-.225-.525Z" class="&lt;Path&gt;"/>
        <path fill="#E0EFE1" stroke="#050505" stroke-linecap="round" stroke-linejoin="round" stroke-width=".3" d="M7.266 6.481c0 .225-.15.225-.3.15-.15-.15-.3-.375-.225-.6 0-.15.15-.225.3-.075.15.075.3.375.225.525Z" class="&lt;Path&gt;"/>
      </g>
      <g class="&lt;Group&gt;">
        <path fill="#E2EDC3" stroke="#050505" stroke-linecap="round" stroke-linejoin="round" stroke-width=".3" d="M9.966 7.456c-.05-.1-.125-.125-.225-.075 0 0-.525.225-.6.3-.1 0-.15.05-.15.15 0 .225.075.45.225.525.1.1.2.125.3.075 0 0 .6-.225.6-.3.05 0 .1-.05.15-.15 0-.15-.075-.45-.3-.525Z" class="&lt;Path&gt;"/>
        <path fill="#E0EFE1" stroke="#050505" stroke-linecap="round" stroke-linejoin="round" stroke-width=".3" d="M9.59 8.281c0 .15-.224.225-.374.075-.15-.075-.225-.3-.225-.525 0-.15.15-.225.375-.15.15.15.225.375.225.6Z" class="&lt;Path&gt;"/>
      </g>
      <path fill="#6ACBDF" stroke="#050505" stroke-linecap="round" stroke-linejoin="round" stroke-width=".3" d="m2.54 7.531 3.826 2.925 1.65.225 1.725-.6.15-1.05-7.2-2.475-.15.975Z" class="&lt;Path&gt;"/>
      <path fill="#6ACBDF" stroke="#050505" stroke-linecap="round" stroke-linejoin="round" stroke-width=".3" d="m8.016 10.681 8.025 7.05 2.55-1.275L8.166 9.781l-.15.9Z" class="&lt;Path&gt;"/>
      <path fill="#ED499A" stroke="#050505" stroke-linecap="round" stroke-linejoin="round" stroke-width=".3" d="M35.616 23.281c.225-1.725-2.1-3.375-3.975-3.9-1.8-.6-3.675-.6-4.725-1.275-1.125-.675-1.65-2.4-3.6-2.85-1.95-.45-3.6-.15-4.575.225-.975.3-1.725.6-2.55.975-.75.3-1.875.6-2.025 1.95-.15 1.125-.45 3-.675 4.35-.15 1.2 1.275 1.875 2.175 2.325.825.45 2.025 1.05 1.95 2.55 0 1.575 1.275 3.75 4.575 4.575 3.225.75 5.1.225 8.1-.975 3.075-1.275 4.425-2.025 4.65-3.675.15-.75.525-3.375.675-4.275Z" class="&lt;Path&gt;"/>
      <g class="&lt;Group&gt;">
        <path fill="#69BC45" d="M19.491 17.206c-1.125-.375-2.175-.6-3.225-.825.75-.3 1.5-.6 2.475-.9.975-.375 2.625-.675 4.575-.225 1.95.45 2.475 2.175 3.6 2.85 1.05.675 2.925.675 4.725 1.275 1.875.525 4.2 2.175 3.975 3.9-.15.9-.525 3.525-.675 4.275-.225 1.65-1.575 2.4-4.65 3.675-1.35.525-2.55.975-3.675 1.2.3-2.325.825-5.7 1.05-7.125.525-3.525-4.35-6.9-8.175-8.1Z" class="&lt;Path&gt;" style="mix-blend-mode:multiply"/>
        <path fill="#69BC45" d="M22.716 32.281c.375-2.175.9-6.15 1.2-7.725.45-3.45-4.125-6.75-7.875-8.025.05-.05.1-.075.15-.075.05 0 .075-.025.075-.075 1.05.225 2.1.45 3.225.825 3.825 1.2 8.7 4.575 8.175 8.1-.225 1.425-.75 4.8-1.05 7.125-1.2.15-2.4.15-3.9-.15Z" class="&lt;Path&gt;" opacity=".3" style="mix-blend-mode:multiply"/>
      </g>
      <path fill="#ED499A" stroke="#050505" stroke-linecap="round" stroke-linejoin="round" stroke-width=".3" d="M14.166 18.406c-.225 1.275 1.2 1.95 2.1 2.4.9.375 2.025 1.05 2.025 2.55-.075 1.5 1.275 3.75 4.5 4.5 3.225.825 5.1.3 8.175-.975 3-1.2 4.35-1.95 4.65-3.6.225-1.725-2.1-3.375-3.975-3.9-1.8-.6-3.675-.6-4.725-1.275-1.125-.675-1.65-2.4-3.6-2.85-1.95-.45-3.6-.15-4.575.225-.975.3-1.725.6-2.55.975-.75.3-1.875.6-2.025 1.95Z" class="&lt;Path&gt;"/>
      <path fill="#69BC45" d="M15.891 25.156c.225-1.575.45-3.225.6-4.275.75.375 1.575.975 1.725 2.025-.15 1.2-.375 2.775-.6 4.35-.15-1.125-.975-1.725-1.725-2.1Z" class="&lt;Path&gt;" opacity=".3" style="mix-blend-mode:multiply"/>
      <path fill="#3953A4" stroke="#050505" stroke-linecap="round" stroke-linejoin="round" stroke-width=".3" d="M31.04 28.831c-.074.225-.374.375-.524.375-.225-.075-.3-.3-.15-.525.15-.225.375-.45.6-.375.15 0 .225.225.075.525Z" class="&lt;Path&gt;"/>
      <path fill="#D28CBC" stroke="#050505" stroke-linecap="round" stroke-linejoin="round" stroke-width=".3" d="m2.691 6.556 3.825 2.925 1.65.3 1.725-.675.15-1.05-3.75-2.925-3.6 1.425Z" class="&lt;Path&gt;"/>
      <path fill="#69BC45" stroke="#050505" stroke-linecap="round" stroke-linejoin="round" stroke-width=".3" d="m8.166 9.781 8.025 6.675 2.55-.975-8.85-6.375-1.725.675Z" class="&lt;Path&gt;"/>
      <g class="&lt;Group&gt;">
        <path fill="#69BC45" stroke="#050505" stroke-linecap="round" stroke-linejoin="round" stroke-width=".3" d="m10.716 9.631-1.875.75.75.6 1.95-.75-.825-.6Z" class="&lt;Path&gt;"/>
        <path fill="#70BF57" stroke="#050505" stroke-linecap="round" stroke-linejoin="round" stroke-width=".3" d="m11.54 10.231-1.95.75.75.6 1.95-.75-.75-.6Zm1.576 1.2-2.025.75.75.6 2.1-.825-.825-.525Z" class="&lt;Path&gt;"/>
        <path fill="#69BC45" stroke="#050505" stroke-linecap="round" stroke-linejoin="round" stroke-width=".3" d="m12.29 10.831-1.95.75.75.6 2.026-.75-.825-.6Z" class="&lt;Path&gt;"/>
        <path fill="#70BF57" stroke="#050505" stroke-linecap="round" stroke-linejoin="round" stroke-width=".3" d="m9.891 9.106-1.725.675.675.6 1.875-.75-.825-.525Z" class="&lt;Path&gt;"/>
        <path stroke="#050505" stroke-linecap="round" stroke-linejoin="round" stroke-width=".3" d="m9.891 9.106-1.725.675" class="&lt;Path&gt;"/>
        <path fill="#69BC45" stroke="#050505" stroke-linecap="round" stroke-linejoin="round" stroke-width=".3" d="m17.09 14.281-2.324.975.675.6 2.475-.975-.825-.6Z" class="&lt;Path&gt;"/>
        <path stroke="#050505" stroke-linecap="round" stroke-linejoin="round" stroke-width=".3" d="m17.466 15.931-1.275.525" class="&lt;Path&gt;"/>
        <path fill="#70BF57" stroke="#050505" stroke-linecap="round" stroke-linejoin="round" stroke-width=".3" d="m18.741 15.481-.825-.6-2.475.975.75.6 1.275-.525 1.275-.45Z" class="&lt;Path&gt;"/>
        <path fill="#69BC45" stroke="#050505" stroke-linecap="round" stroke-linejoin="round" stroke-width=".3" d="m13.941 11.956-2.1.825.675.6 2.175-.825-.75-.6Z" class="&lt;Path&gt;"/>
        <path fill="#70BF57" stroke="#050505" stroke-linecap="round" stroke-linejoin="round" stroke-width=".3" d="m16.34 13.756-2.324.825.75.675 2.325-.975-.75-.525Z" class="&lt;Path&gt;"/>
        <path fill="#69BC45" stroke="#050505" stroke-linecap="round" stroke-linejoin="round" stroke-width=".3" d="m15.516 13.156-2.25.825.75.6 2.325-.825-.825-.6Z" class="&lt;Path&gt;"/>
        <path fill="#70BF57" stroke="#050505" stroke-linecap="round" stroke-linejoin="round" stroke-width=".3" d="m14.691 12.556-2.175.825.75.6 2.25-.825-.825-.6Z" class="&lt;Path&gt;"/>
      </g>
      <g class="&lt;Group&gt;">
        <path fill="#70BF57" stroke="#050505" stroke-linecap="round" stroke-linejoin="round" stroke-width=".3" d="m19.416 16.006-2.55.975.75.675 2.55-.975-.75-.675Z" class="&lt;Path&gt;"/>
        <path fill="#69BC45" stroke="#050505" stroke-linecap="round" stroke-linejoin="round" stroke-width=".3" d="m18.741 15.481-2.55.975.675.525 2.55-.975-.675-.525Zm1.425 1.2-2.55.975.75.6 2.55-.975-.75-.6Zm2.25 1.8-.75-.6-2.625.975.75.675 2.625-1.05Z" class="&lt;Path&gt;"/>
        <path fill="#69BC45" stroke="#050505" stroke-linecap="round" stroke-linejoin="round" stroke-width=".3" d="m20.09 19.756 2.776-.9-.45-.375-2.625 1.05.3.225Z" class="&lt;Path&gt;"/>
        <path fill="#70BF57" stroke="#050505" stroke-linecap="round" stroke-linejoin="round" stroke-width=".3" d="m20.916 17.281-2.55.975.675.6 2.625-.975-.75-.6Z" class="&lt;Path&gt;"/>
      </g>
      <g class="&lt;Path&gt;">
        <path fill="#6ACBDF" d="m15.891 16.531 4.2 3.225-4.575-3.9"/>
        <path stroke="#050505" stroke-linecap="round" stroke-linejoin="round" stroke-width=".3" d="m15.891 16.531 4.2 3.225-4.575-3.9"/>
      </g>
      <path fill="#56B846" stroke="#050505" stroke-linecap="round" stroke-linejoin="round" stroke-width=".3" d="m6.516 9.481 1.65.3-.15.9-1.65-.225.15-.975Z" class="&lt;Path&gt;"/>
      <path fill="#6ACBDF" stroke="#050505" stroke-linecap="round" stroke-linejoin="round" stroke-width=".3" d="M8.84 7.756 6.442 5.881c-.15-.15-.45-.15-.75-.075-.225.15-.3.3-.15.45l2.4 1.875c.15.15.525.15.75.075.225-.075.3-.3.15-.45Zm-1.5.525L4.867 6.406c-.15-.15-.45-.15-.675-.075-.3.15-.375.3-.225.45l2.4 1.875c.225.15.525.15.75.075.3-.075.375-.3.225-.45Z" class="&lt;Path&gt;"/>
      <g class="&lt;Group&gt;">
        <path fill="#E2EDC3" stroke="#050505" stroke-linecap="round" stroke-linejoin="round" stroke-width=".3" d="M4.566 8.131c-.05-.05-.125-.05-.225 0l-.6.225c-.1.05-.15.125-.15.225 0 .15.075.45.225.525.1.1.2.125.3.075 0-.075.525-.3.6-.3l.15-.15c0-.225-.075-.45-.3-.6Z" class="&lt;Path&gt;"/>
        <path fill="#E0EFE1" stroke="#050505" stroke-linecap="round" stroke-linejoin="round" stroke-width=".3" d="M4.191 9.031c-.075.15-.225.225-.375.075-.15-.075-.225-.375-.225-.525 0-.225.15-.225.375-.15.15.15.225.375.225.6Z" class="&lt;Path&gt;"/>
      </g>
      <g class="&lt;Group&gt;">
        <path fill="#E2EDC3" stroke="#050505" stroke-linecap="round" stroke-linejoin="round" stroke-width=".3" d="M3.441 7.231c-.1-.05-.175-.05-.225 0-.075 0-.6.225-.675.225-.05.05-.075.125-.075.225-.075.15.075.45.225.525.1.1.175.125.225.075.075-.075.6-.3.675-.3.05 0 .075-.05.075-.15.075-.225-.075-.45-.225-.6Z" class="&lt;Path&gt;"/>
        <path fill="#E0EFE1" stroke="#050505" stroke-linecap="round" stroke-linejoin="round" stroke-width=".3" d="M3.066 8.131c-.075.15-.225.225-.375.075-.15-.075-.3-.375-.225-.525 0-.225.15-.225.3-.15.15.15.3.375.3.6Z" class="&lt;Path&gt;"/>
      </g>
      <g class="&lt;Group&gt;">
        <path fill="#E2EDC3" stroke="#050505" stroke-linecap="round" stroke-linejoin="round" stroke-width=".3" d="M5.766 9.031a.32.32 0 0 0-.3 0s-.525.225-.6.225c-.1.05-.15.125-.15.225 0 .15.075.375.225.525.1.05.2.075.3.075 0-.075.6-.3.6-.3.1-.05.15-.1.15-.15a.852.852 0 0 0-.225-.6Z" class="&lt;Path&gt;"/>
        <path fill="#E0EFE1" stroke="#050505" stroke-linecap="round" stroke-linejoin="round" stroke-width=".3" d="M5.316 9.856c0 .225-.15.3-.375.15a.81.81 0 0 1-.225-.525c.075-.225.225-.3.375-.15a.81.81 0 0 1 .225.525Z" class="&lt;Path&gt;"/>
      </g>
      <path fill="#050505" stroke="#050505" stroke-linecap="round" stroke-linejoin="round" stroke-width=".3" d="M25.566 20.656c-.15.9-1.575 1.425-3.15 1.2-1.575-.225-2.7-1.125-2.55-2.1.075-.9 1.5-1.425 3.075-1.2 1.575.225 2.775 1.125 2.625 2.1Z" class="&lt;Path&gt;"/>
      <path fill="#69BC45" stroke="#050505" stroke-linecap="round" stroke-linejoin="round" stroke-width=".3" d="m25.416 24.481 4.5-1.725-.075.45-4.5 1.8.075-.525Z" class="&lt;Path&gt;"/>
      <path fill="#6ACBDF" stroke="#050505" stroke-linecap="round" stroke-linejoin="round" stroke-width=".3" d="m24.666 23.956.75.525-.075.525-.75-.6.075-.45Z" class="&lt;Path&gt;"/>
      <path fill="#FEFEFE" stroke="#050505" stroke-linecap="round" stroke-linejoin="round" stroke-width=".3" d="m29.166 22.231-4.5 1.725.75.525 4.5-1.725-.75-.525Z" class="&lt;Path&gt;"/>
    </g>
  </g>
</svg>
