<svg xmlns="http://www.w3.org/2000/svg" width="38" height="38" fill="none" viewBox="0 0 38 38">
  <g class="dibujo2">
    <g class="&lt;Group&gt;">
      <path fill="#F9FCFE" d="M13.65 12.6c-1.275 1.65.6 5.1 4.125 7.8 3.525 2.625 7.35 3.375 8.625 1.725 1.2-1.65-.6-5.1-4.125-7.725s-7.425-3.45-8.625-1.8Z" class="&lt;Path&gt;" opacity=".1"/>
      <path fill="#F9FCFE" d="M18.75 17.925c.05-1.05.125-2.1.225-3.15l.15-2.1c.5.25 1.025.55 1.575.9 0 1.725-.075 3.45-.15 5.25l-.15 3c-.6-.3-1.225-.675-1.875-1.125.075-.9.15-1.875.225-2.775Z" class="&lt;Path&gt;" opacity=".1"/>
      <g class="&lt;Group&gt;">
        <path fill="#D99E28" d="M12.075 11.55c1.65-2.25 6.6-1.5 10.95 1.8 4.35 3.225 6.525 7.725 4.8 9.975-.45.675-2.175 2.55-2.55 3.075-1.65 2.175-6.45 1.425-10.725-1.8-4.2-3.15-6.3-7.5-4.65-9.75.375-.525 1.725-2.7 2.175-3.3Z" class="&lt;Compound Path&gt;"/>
        <path fill="#AA7F2C" d="M16.65 10.35c-.2.3-.4.575-.6.825-1.8 2.7-3.55 5.4-5.25 8.1l-.45.75C9.225 18 8.925 16.125 9.9 14.85c.375-.525 1.725-2.7 2.175-3.3.825-1.2 2.55-1.5 4.575-1.2Zm5.85 11.325a344.6 344.6 0 0 1 3.975-4.95c1.875 2.475 2.55 5.1 1.35 6.6-.45.675-2.175 2.55-2.55 3.075-1.2 1.575-3.9 1.65-6.9.375 1.35-1.725 2.7-3.45 4.125-5.1Z" class="&lt;Path&gt;" opacity=".2"/>
        <path fill="#FCB84A" d="M13.875 12.075c-1.275 1.725.6 5.25 4.2 7.875 3.6 2.7 7.5 3.525 8.775 1.8 1.2-1.65-.675-5.175-4.2-7.875-3.6-2.7-7.5-3.45-8.775-1.8Z" class="&lt;Path&gt;"/>
        <path fill="#F1B142" d="M22.05 19.5c1.05-1.125 2.1-2.175 3.075-3.3 1.875 2.175 2.625 4.35 1.725 5.55-1.05 1.35-3.675 1.125-6.525-.3.6-.65 1.175-1.3 1.725-1.95Zm-3.45-7.8c-1.05 1.95-2.1 3.825-3.225 5.7-1.725-2.025-2.4-4.125-1.5-5.325.825-1.05 2.625-1.125 4.725-.375Z" class="&lt;Path&gt;" opacity=".3"/>
        <path fill="#757578" d="M13.125 13.425c-1.275 1.725.525 5.175 3.975 7.8 3.525 2.625 7.35 3.375 8.625 1.65 1.275-1.725-.45-5.25-3.975-7.8-3.45-2.625-7.35-3.375-8.625-1.65Z" class="&lt;Path&gt;" opacity=".2"/>
        <path fill="#BDD4EB" d="M13.425 13.725c-1.2 1.65.45 4.95 3.75 7.425 3.3 2.475 6.975 3.15 8.175 1.5 1.2-1.575-.45-4.875-3.75-7.35-3.3-2.475-6.975-3.15-8.175-1.575Z" class="&lt;Path&gt;"/>
        <g class="&lt;Group&gt;">
          <path fill="#8489AB" d="m18.9 14.925.3.15-.075-.675-.375-.225.15.75Zm.75 7.275.375.15-.075-.675-.375-.225.075.75Zm4.725-1.575v.225l1.05.525v-.225l-1.05-.525ZM13.35 15.15v.225l1.125.525-.075-.225-1.05-.525Z" class="&lt;Path&gt;"/>
        </g>
        <g class="&lt;Group&gt;">
          <g class="&lt;Group&gt;">
            <path fill="#5E68AC" d="m23.25 18.75-4.05-.3-.15-.3 4.275.45-.075.15Z" class="&lt;Path&gt;"/>
            <path fill="#A191C4" d="m23.325 18.6-4.05-.225-.15-.375 4.05.375.15.225Z" class="&lt;Path&gt;"/>
          </g>
          <g class="&lt;Group&gt;">
            <path fill="#5E68AC" d="m14.175 13.95.075-.15L19.5 18l-.075.15h-.45l-4.8-4.2Z" class="&lt;Path&gt;"/>
            <path fill="#A191C4" d="m14.25 13.8.225-.075L19.5 18h-.45l-4.8-4.2Z" class="&lt;Path&gt;"/>
          </g>
          <g class="&lt;Group&gt;">
            <path fill="#6D6E74" d="M19.05 17.775c.15-.075.375 0 .6.15.3.15.375.45.3.525 0 .075-.15.225-.225.3-.075.075-.3.075-.6-.15-.225-.15-.375-.375-.225-.525 0-.075.15-.225.15-.3Z" class="&lt;Path&gt;"/>
            <path fill="#88888C" d="M19.05 17.775c-.075.15.075.375.3.6.225.15.525.225.6.075.075-.075 0-.375-.3-.525-.225-.15-.45-.225-.6-.15Z" class="&lt;Path&gt;"/>
          </g>
        </g>
        <path fill="#F9FCFE" d="M23.1 22.65c-.05-1.65-.125-3.3-.225-4.95-.05-.95-.125-1.9-.225-2.85 3.075 2.475 4.575 5.55 3.45 7.05-.525.75-1.65.975-3 .75ZM16.275 12c-.3 1.95-.675 3.9-.975 5.85-1.575-1.95-2.25-3.9-1.35-5.025.45-.675 1.275-.9 2.325-.825Z" class="&lt;Path&gt;" opacity=".1"/>
        <path fill="#F3EB18" fill-rule="evenodd" d="M12.075 11.55c-1.725 2.25.45 6.75 4.8 9.975 4.35 3.3 9.3 4.125 10.95 1.8 1.725-2.25-.45-6.75-4.8-9.975-4.35-3.3-9.3-4.05-10.95-1.8Zm1.8.525c1.275-1.65 5.175-.9 8.775 1.8 3.525 2.7 5.4 6.225 4.2 7.875-1.275 1.725-5.175.9-8.775-1.8-3.6-2.625-5.475-6.15-4.2-7.875Z" class="&lt;Compound Path&gt;" clip-rule="evenodd"/>
      </g>
    </g>
  </g>
</svg>
