<svg width="50" height="50" viewBox="0 0 50 50" fill="none" xmlns="http://www.w3.org/2000/svg">
<g clip-path="url(#clip0_260_101887)">
<path d="M6.16075 1.06712L49.1878 1.12367L49.5459 44.4813L6.33622 44.1435L6.16075 1.06712Z" fill="#9B82BB"/>
<path d="M49.5463 44.4812L6.33666 44.1434L0.66939 48.103L42.3465 48.2362L49.5463 44.4812Z" fill="#512E8D"/>
<path d="M6.16147 1.06692L0.497548 7.06396L0.669672 48.1029L6.33694 44.1432L6.16147 1.06692Z" fill="#6A4C9E"/>
</g>
<path d="M39.3084 27.3416L15 38.0456V31.0535L31.643 24.3721L31.4185 24.7347V23.8715L31.643 24.234L15 17.5527V10.5605L39.3084 21.2645V27.3416Z" fill="#050505"/>
<path d="M41.6941 23.5311L17.3857 34.2351V27.2429L34.0287 20.5616L33.8043 20.9241V20.0609L34.0287 20.4235L17.3857 13.7421V6.75L41.6941 17.454V23.5311Z" fill="white"/>
<defs>
<clipPath id="clip0_260_101887">
<rect width="49.5" height="49.5" fill="white"/>
</clipPath>
</defs>
</svg>
