<svg xmlns="http://www.w3.org/2000/svg" width="54" height="36" fill="none" viewBox="0 0 54 36">
  <g class="1-23-texto">
    <g class="Group 110">
      <g class="&lt;Group&gt;">
        <path fill="#FEFEFE" fill-rule="evenodd" d="M4.4 5.4c1.1-.1 2.3-.2 2.3 3.4 0 3.4-1.1 3.7-2.8 3.9l-.6.1V5.6l1.1-.2Zm-.1.8v5.6c1.5-.2 1.5-1.6 1.5-2.9 0-1.1.1-3-1.5-2.7Z" class="&lt;Compound Path&gt;" clip-rule="evenodd"/>
        <path fill="#FEFEFE" d="m7.9 4.6-.5-.2.8-1.6.6.4-.9 1.4Zm.5 7.4-1 .2.1-7.3.9-.1V12Z" class="&lt;Compound Path&gt;"/>
        <path fill="#FEFEFE" fill-rule="evenodd" d="m11.1 4.4 1.4 7-.9.2-.3-1.4-1.4.2-.3 1.5-.9.1 1.6-7.5.8-.1Zm0 4.1-.4-2.6-.6 3.8 1.2-.2-.2-1Z" class="&lt;Compound Path&gt;" clip-rule="evenodd"/>
        <path fill="#FEFEFE" d="m15.4 5.9.2 2.4-.1 2.7-.9.1V3.9l.9-.1L17.2 9 17 6.1V3.5l.9-.1v7.2l-.9.2-1.6-5.4v.5Z" class="&lt;Compound Path&gt;"/>
        <path fill="#FEFEFE" fill-rule="evenodd" d="m20.6 3 1.4 7-.9.1-.3-1.3-1.4.2-.2 1.4-1 .2 1.6-7.5.8-.1Zm0 4-.3-2.5h-.1l-.6 3.7 1.2-.1-.2-1.1Z" class="&lt;Compound Path&gt;" clip-rule="evenodd"/>
        <path fill="#FEFEFE" d="M25.2 3.3c-.2-.1-.4-.1-.6-.1-1.3.2-1.3 2.2-1.3 3.1 0 .9 0 2.7 1.3 2.5.2 0 .4-.067.6-.2v.8c-.267.2-.533.3-.8.3-1.9.3-2.1-1.7-2.1-3.2 0-1.5.2-3.9 2.1-4.2.3 0 .5 0 .8.1v.9Zm1.4 6-.9.2V2.2l.9-.1v7.2Z" class="&lt;Compound Path&gt;"/>
        <path fill="#FEFEFE" fill-rule="evenodd" d="M31 5c0 1.3 0 3.8-1.8 4-1.9.3-1.9-2.1-1.8-3.4 0-1.3 0-3.7 1.8-4C31 1.3 31 3.7 31 5Zm-2.7.4c0 1.6.1 2.8.9 2.7.7-.1.8-1.4.8-2.9s-.1-2.8-.8-2.7c-.7.1-.8 1.4-.9 2.9Z" class="&lt;Compound Path&gt;" clip-rule="evenodd"/>
        <path fill="#FEFEFE" d="m32.6 3.3.1 2.5v2.6l-1 .2.1-7.3.9-.1 1.6 5.2-.2-2.9V1l1-.2-.1 7.3-.9.1-1.6-5.3.1.4Z" class="&lt;Compound Path&gt;"/>
        <path fill="#FEFEFE" fill-rule="evenodd" d="m37.7.4 1.5 7-1 .2-.2-1.4-1.4.2-.3 1.5-.9.1L37 .5l.7-.1Zm-.1 4.1-.3-2.6-.6 3.8 1.1-.2-.2-1Z" class="&lt;Compound Path&gt;" clip-rule="evenodd"/>
        <path fill="#FEFEFE" d="M40.5 0v6.4l1.6-.2V7l-2.5.4V.1l.9-.1Z" class="&lt;Compound Path&gt;"/>
      </g>
      <g class="&lt;Group&gt;">
        <path fill="#FEFEFE" fill-rule="evenodd" d="M22.1 13c1.1-.1 2.4-.2 2.3 3.4 0 3.4-1.1 3.7-2.8 3.9l-.6.1v-7.2l1.1-.2Zm-.1.8v5.6c1.5-.2 1.5-1.6 1.5-2.9 0-1.1.1-3-1.5-2.7Z" class="&lt;Compound Path&gt;" clip-rule="evenodd"/>
        <path fill="#FEFEFE" d="M27.7 12.2v.8l-1.6.3v2.2l1.4-.2v.9l-1.4.2v2.4l1.6-.2-.1.8-2.5.4.1-7.2 2.5-.4Zm1.4-.2v6.4l1.6-.3v.9l-2.6.4.1-7.3.9-.1Z" class="&lt;Compound Path&gt;"/>
      </g>
      <g class="&lt;Group&gt;">
        <g class="&lt;Group&gt;">
          <g class="&lt;Group&gt;">
            <path fill="#ED2930" d="M53.4 26.8.2 34 0 28.3l52.9-7 .5 5.5Z" class="&lt;Path&gt;"/>
          </g>
        </g>
        <g class="&lt;Group&gt;">
          <g class="&lt;Group&gt;">
            <path fill="#FEFEFE" d="m7 33.8-.7.1-1.7-2.4.1 3.7-2.6.3-.1-8.8 2.5-.4 2.1 3.1 2.2-3.7 2.4-.4v8.9l-2.6.4v-3.7L7 33.8Zm9.2-.1h-.7c-.5 0-1-.1-1.5-.4-.6-.3-1-.7-1.3-1.4-.133-.4-.2-.867-.2-1.4v-5.4l2.6-.3v5.4s0 .1.1.4c0 .067.067.167.2.3.1.2.4.3.8.3.267-.067.5-.2.7-.4.2-.2.3-.4.3-.6l.1-.3-.1-5.4 2.6-.4.1 5.4c0 1-.3 1.8-.8 2.4-.2.267-.433.533-.7.8-.8.6-1.6.8-2 .9l-.2.1Zm-1.4-9.6 1.1-2.6 3-.4-1.5 2.6-2.6.4Zm7.7 5.2c.666.6 1.366.833 2.1.7.533-.067.8-.233.8-.5 0-.133-.167-.267-.5-.4-.267-.067-.6-.133-1-.2-.4-.133-.833-.267-1.3-.4a2.112 2.112 0 0 1-1-.7c-.267-.4-.4-.833-.4-1.3 0-.6.1-1.2.6-1.8.4-.7 1.4-1.3 2.6-1.4.9-.2 1.8 0 2.3.3.5.3 1 .6 1.1.9l.2.1-1.8 1.7c-.334-.333-.6-.533-.8-.6a2.043 2.043 0 0 0-.9 0c-.4 0-.7.3-.7.4 0 .3.5.5 1.1.6.333 0 .667.067 1 .2l1 .4c.333.133.6.367.8.7.2.333.3.733.3 1.2 0 .5-.2 1.2-.7 1.8-.5.7-1.5 1.3-2.8 1.4-1 .2-1.8.1-2.4-.3-.667-.333-1.1-.733-1.3-1.2l1.7-1.6Zm6.6 2.3v-8.9l2.5-.3.1 8.8-2.6.4ZM42 26a5.84 5.84 0 0 1-1.5 3c-.867.867-1.867 1.4-3 1.6-1.267.133-2.367-.167-3.3-.9-.867-.733-1.3-1.767-1.3-3.1 0-1.267.433-2.4 1.3-3.4.866-1 1.933-1.6 3.2-1.8 1.133-.2 2.133 0 3 .6a4.142 4.142 0 0 1 1.6 2.6l-2.8.4a1.6 1.6 0 0 0-.7-.9c-.334-.2-.667-.267-1-.2-.533.067-1 .333-1.4.8a2.53 2.53 0 0 0-.5 1.5c0 .6.2 1.067.6 1.4.333.4.767.567 1.3.5a1.58 1.58 0 0 0 1-.6c.333-.267.566-.633.7-1.1L42 26Z" class="&lt;Compound Path&gt;"/>
            <path fill="#FEFEFE" fill-rule="evenodd" d="M47.4 19.9c1.267-.133 2.333.167 3.2.9.933.733 1.4 1.767 1.4 3.1 0 1.267-.434 2.4-1.3 3.4-.867 1-1.967 1.6-3.3 1.8-1.267.2-2.334-.067-3.2-.8-.934-.8-1.4-1.833-1.4-3.1 0-1.267.433-2.433 1.3-3.5.867-1 1.967-1.6 3.3-1.8Zm0 6.7c.533-.067.967-.333 1.3-.8.4-.467.6-.967.6-1.5 0-.6-.2-1.1-.6-1.5-.334-.333-.767-.467-1.3-.4s-.967.333-1.3.8c-.4.467-.6 1-.6 1.6 0 .6.2 1.067.6 1.4.333.333.767.467 1.3.4Z" class="&lt;Compound Path&gt;" clip-rule="evenodd"/>
          </g>
        </g>
      </g>
    </g>
  </g>
</svg>
