<svg xmlns="http://www.w3.org/2000/svg" width="132" height="121" fill="none" viewBox="0 0 132 121">
  <g class="1-26-ilus">
    <g class="Group 111">
      <path fill="#050505" d="M86.942 5.013 107.96 9.8l7.609 37.789-32.225-21.343 3.598-21.233Z" class="&lt;Path&gt;" opacity=".1"/>
      <g class="&lt;Group&gt;">
        <g class="&lt;Group&gt;">
          <path fill="#050505" d="M49.808 100.694c0 .066-.033.133-.1.2a64.83 64.83 0 0 1-2.1 2.2c-.467.4-.933.833-1.4 1.3l-.2.2c-.067.066-.067.133 0 .2a.648.648 0 0 1 .3.3l2.2 2c.267.2.533.366.8.5.267.133.533.166.8.1.2 0 .4-.034.6-.1l.8-.4c.6-.467 1.1-.967 1.5-1.5.133-.2.233-.434.3-.7a1.73 1.73 0 0 0 .1-1 3.082 3.082 0 0 0-.2-.6l-.6-.6c-.067-.067-.1-.067-.1 0-.267.2-.534.3-.8.3h-.8c-.1 0-.1-.2-.1-.3 0-.1.1-.3.2-.3h.2c.2 0 .4-.034.6-.1.267-.067.433-.2.5-.4a.5.5 0 0 0 0-.6c-.133-.267-.367-.434-.7-.5-.267-.067-.5-.1-.7-.1-.333 0-.7-.034-1.1-.1Z" class="&lt;Path&gt;"/>
          <path fill="#050505" d="M50.208 99.294c.067.133.1.233.1.3-.067.066-.067.133 0 .2.066 0 .133.033.2.1.133 0 .267.033.4.1h.4c.533 0 .933.2 1.2.6.133.2.233.433.3.7v.2a.885.885 0 0 0-.1.4v.1c.067 0 .1.033.1.1.133.133.3.266.5.4.3.3.4.7.5 1.1.066.466.033.9-.1 1.3a3.86 3.86 0 0 0-.2.5 1.143 1.143 0 0 0-.2.3c-.4.6-.9 1.1-1.5 1.5-.267.266-.6.466-1 .6-.267.133-.567.2-.9.2-.533.066-1.033-.067-1.5-.4a.966.966 0 0 1-.5-.4 16.72 16.72 0 0 1-1.1-1c-.4-.4-.833-.8-1.3-1.2 0-.067-.033-.1-.1-.1-.067-.067-.133-.1-.2-.1-.133 0-.233-.034-.3-.1a37.712 37.712 0 0 0-.2-.2c-.1 0 1.5-1.3 1.5-1.3.067-.067.1-.134.1-.2a18.23 18.23 0 0 0 1.6-1.6 33.277 33.277 0 0 0 1.5-1.6l.2-.2v-.1l.6-.2Z" class="&lt;Path&gt;"/>
          <path fill="#C39170" d="M49.708 100.394c.333.066.666.1 1 .1.267 0 .5.033.7.1.333.066.566.233.7.5a.5.5 0 0 1 0 .6c-.067.2-.233.333-.5.4-.2.066-.4.1-.6.1h-.2c-.1 0-.2.2-.2.3 0 .2 0 .3.2.3h.7c.267 0 .533-.1.8-.3h.1l.6.6c.067.133.133.333.2.6a1.73 1.73 0 0 1-.1 1 2.23 2.23 0 0 1-.3.7c-.4.533-.9 1.033-1.5 1.5-.2.133-.467.266-.8.4-.2.066-.4.1-.6.1a1.134 1.134 0 0 1-.8-.1 5.308 5.308 0 0 1-.8-.5 62.01 62.01 0 0 1-2.1-2 1.536 1.536 0 0 0-.4-.3c-.067-.067-.067-.134 0-.2.066-.067.166-.134.3-.2l1.3-1.3a64.933 64.933 0 0 0 2.1-2.2l.2-.2Z" class="&lt;Path&gt;"/>
          <path fill="#050505" d="m48.908 103.494-1 1c-.2.2-.2.4 0 .6.3.3.9.8 1.3 1.2.133.133.267.233.4.3.267.133.533.166.8.1.2 0 .367-.034.5-.1.267-.067.5-.167.7-.3a6.41 6.41 0 0 0 1.1-1.2c.2-.267.333-.534.4-.8v-.6a149.07 149.07 0 0 0-.2-.4 1.78 1.78 0 0 0-.5-.5c0-.067-.034-.067-.1 0-.1.2-.5.3-.9.3-.3 0-.7 0-.8-.1-.133 0-.3-.1-.5-.3-.1-.1-.3-.1-.4 0l-.8.8Z" class="&lt;Path&gt;" opacity=".2" style="mix-blend-mode:multiply"/>
          <g class="&lt;Group&gt;">
            <path fill="#475395" stroke="#050505" stroke-linecap="round" stroke-linejoin="round" stroke-width=".5" d="M42.808 103.294c.5.3 1 .2 1 .2s1.5-1.2 2.8-2.5c1.2-1.2 2.5-2.5 2.5-2.6 0-.7-1-1.1-1.7-2.3-1-1.4-2.1-3.7-3-5.2-.9-1.7-3-2.5-5.4-1.1-2.6 1.4-2 4.5-1.3 5.9.9 1.8 2.2 4 2.8 4.8.7.8 1.9 2.6 2.3 2.8Z" class="&lt;Path&gt;"/>
            <path fill="#475395" stroke="#050505" stroke-linecap="round" stroke-linejoin="round" stroke-width=".5" d="M49.008 98.394c.1.1 1.2 1.4 1.2 1.4s-1 1.2-2.2 2.3c-1.2 1.1-2.9 2.7-2.9 2.7l-1.2-1.3s1-.8 2.7-2.4c1.3-1.3 2.4-2.7 2.4-2.7Z" class="&lt;Path&gt;"/>
            <path fill="#050505" d="M38.708 89.894s-2.3 1.5-1.4 4.5c.2.5 1.3 3.5 2.9 5.7 2 2.6 4.7 4.6 4.7 4.6l1.4-1.1s-7.1-9-7.6-11.2c-.2-1.2 0-2.5 0-2.5Z" class="&lt;Path&gt;" opacity=".4"/>
          </g>
        </g>
        <g class="&lt;Group&gt;">
          <g class="&lt;Group&gt;">
            <path fill="#C39170" stroke="#050505" stroke-linecap="round" stroke-linejoin="round" stroke-width=".5" d="m34.008 109.194 2.2 3.2c.067.2.133.366.2.5.1.3.6 1 .7 1.5.2.8.6 1.9 2.7 1.8 2.1-.2 3-1.9 2.7-3.1 0 0-.5-1.8-1-3-.4-1.1-2.3-3.8-2.3-3.8l-5.2 2.9Z" class="&lt;Path&gt;"/>
            <path fill="#050505" d="m38.608 112.294-3.3-1.2.9 1.3c.067.2.133.366.2.5.1.3.6 1 .7 1.5.2.8.6 1.9 2.7 1.8 0 0-.8-2.1-1.2-3-.4-.8 0-.9 0-.9Z" class="&lt;Path&gt;" opacity=".4"/>
            <path fill="#475395" stroke="#050505" stroke-linecap="round" stroke-linejoin="round" stroke-width=".5" d="m38.608 105.394 3.8 3.5s-1.2 1.6-3.3 3.1c-2 1.5-3.6 1.1-3.6 1.1s-1.5-3-5.5-3.7c-1-.2 5-6.4 8.6-4Z" class="&lt;Path&gt;"/>
            <path fill="#050505" d="M35.608 109.594c0-.4.1-1.3 0-1.3 0-.1-2.9-.4-4.6-.6-.9.9-1.3 1.6-1 1.7 4 .7 5.5 3.7 5.5 3.7s1.3.3 3.1-.8c-.4-1.1-2.8-2.6-3-2.7Z" class="&lt;Path&gt;" opacity=".4"/>
          </g>
          <g class="&lt;Group&gt;">
            <g class="&lt;Group&gt;">
              <path fill="#BABAC6" stroke="#050505" stroke-linecap="round" stroke-linejoin="round" stroke-width=".5" d="M36.608 117.794c0 .1.1.2.2.2h9.8c.1 0 .2-.1.2-.2v-.5c0-.1-.1-.2-.2-.2h-9.8c-.1 0-.2.1-.2.2v.5Z" class="&lt;Path&gt;"/>
              <path fill="#86657B" stroke="#050505" stroke-linecap="round" stroke-linejoin="round" stroke-width=".5" d="M41.308 113.494s0-.5.8-.5h1.8c.6 0 .2.4.1.8s-.2.6.1 1l.9 1.2-1.8 1-1.7-2.2-.2-1.3Z" class="&lt;Path&gt;"/>
              <g class="&lt;Path&gt;">
                <path fill="#86657B" d="M44.208 117.094h-7.4v-2c0-.5.3-.8.8-.8s1 .5 2.2 0c.9-.4 1.1-.4 1.5-.6.5-.3.6 0 .7.5l.2.7"/>
                <path stroke="#050505" stroke-linecap="round" stroke-linejoin="round" stroke-width=".5" d="M44.208 117.094h-7.4v-2c0-.5.3-.8.8-.8s1 .5 2.2 0c.9-.4 1.1-.4 1.5-.6.5-.3.6 0 .7.5l.2.7"/>
              </g>
              <path fill="#BABAC6" stroke="#050505" stroke-linecap="round" stroke-linejoin="round" stroke-width=".4" d="M46.608 117.094c0-.3-1.1-1.1-1.6-1.1-1.1 0-1.8 1.1-1.8 1.1h3.4Z" class="&lt;Path&gt;"/>
            </g>
            <path fill="#BABAC6" stroke="#43323E" stroke-linecap="round" stroke-linejoin="round" stroke-width=".4" d="M39.308 115.894c0 .3-.3.6-.7.6-.4 0-.7-.3-.7-.6 0-.4.3-.7.7-.7.4 0 .7.3.7.7Z" class="&lt;Path&gt;"/>
            <path fill="#FAF49E" stroke="#413F28" stroke-linecap="round" stroke-linejoin="round" stroke-width=".4" d="M43.808 114.094s-1 .2-1.6.5c-.8.3-1.4.7-1.4.7l.4.7s.6-.4 1.4-.6c.7-.3 1.7-.4 1.7-.4l-.5-.9Z" class="&lt;Path&gt;"/>
          </g>
        </g>
        <g class="&lt;Group&gt;">
          <g class="&lt;Group&gt;">
            <path fill="#AF94AF" d="M43.308 90.094c-.4.9-1.9 2.1-2.9 2.3-2.3.4-12.6-.4-13.8-.9-.9-.4-1.4-2.6-2-2.6-.6 0-1.5 1.6-2.5 1.8-1 .2-2.1-3.5-2.5-3.5-.4 0-.3 1.6-.2 3.1 0 .9-3.1-3.7-3.4-6.1-.3-2.3.1-4.9-.2-4.9-.4 0-1.3 2.3-2.2 2.2-.8-.1-.5-6.6.1-8.3.5-1.7 4.1-6.9 5.1-9.9.4-1.4 18-9.6 22.2-9.4 1.7.1 9.7 5.4 9.8 12.3.1 18.8-7.4 23.6-7.5 23.9Z" class="&lt;Path&gt;"/>
            <path stroke="#814E57" stroke-linecap="round" stroke-linejoin="round" stroke-width=".5" d="M43.408 89.894c-.1 1.1-2.1 2.3-3.1 2.5-2.3.4-12.5-.4-13.7-.9-.9-.4-1.4-2.6-2-2.6-.6 0-1.5 1.6-2.5 1.8-1 .2-2.1-3.5-2.5-3.5-.4 0-.4 2.2-.3 3.1.1.9-3-3.7-3.3-6.1-.3-2.3.1-4.9-.2-4.9-.4 0-1.3 2.3-2.2 2.2-.8-.1-.5-6.6.1-8.3.5-1.7 4.1-6.9 5.1-9.9" class="&lt;Path&gt;"/>
          </g>
          <g class="&lt;Group&gt;">
            <path fill="#AF94AF" d="M47.108 69.294c1.9 6.6.7 17.2.6 18.3-.2 1.8-4.1 6.2-4.3 5.3-.1-1.1 0-1.8-.5-3.1-.8-1.9-1-2.5-1.1-3.9-.2-3.3-.9-14.7-.5-15.7" class="&lt;Path&gt;"/>
            <path stroke="#814E57" stroke-linecap="round" stroke-linejoin="round" stroke-width=".5" d="M42.508 89.094c.2.3.4.6.5.8.5 1.2.4 2 .4 3 0 .9 4.1-3.5 4.3-5.3.1-1.1 1.3-11.7-.6-18.3" class="&lt;Path&gt;"/>
          </g>
          <g class="&lt;Group&gt;">
            <path fill="#C6A9C7" d="M51.408 65.294c1 3 2.7 6.6 3.3 11 .5 3.5-.5 10.4-.8 9.4-.4-.9-1.2-3.5-1.5-4.1-.7-1.8-3.2-11.9-3.3-15" class="&lt;Path&gt;"/>
            <path stroke="#814E57" stroke-linecap="round" stroke-linejoin="round" stroke-width=".5" d="M51.408 65.294c1 3 2.7 6.6 3.3 11 .5 3.5-.8 10.5-1 9.3-.4-2.2-1-3.4-1.3-4" class="&lt;Path&gt;"/>
          </g>
          <g class="&lt;Group&gt;">
            <path fill="#AF94AF" d="M50.308 63.794c1.8 3.2 2.3 15.9 2.1 17.8-.2 2-.2 3.4-.9 5.6-1.1 4.1-3.9 6-3.8 5 .1-1.2.1-2.9.1-3.7-.2-1.5-1.5-7.7-1.6-10.6 0-2 1.1-8.1 1.4-9.4" class="&lt;Path&gt;"/>
            <path stroke="#814E57" stroke-linecap="round" stroke-linejoin="round" stroke-width=".5" d="M52.408 78.794c0 1.2.1 2.3 0 2.8-.2 2-.2 3.4-.9 5.6-1.2 4.4-4 5.7-3.8 4.9.3-1.3.3-2.2.1-3.2 0-.4-.2-1.4-.4-2.5" class="&lt;Path&gt;"/>
          </g>
        </g>
        <g class="&lt;Group&gt;">
          <path fill="#C39170" stroke="#050505" stroke-linecap="round" stroke-linejoin="round" stroke-width=".5" d="M27.508 86.094c1.3 0 1.7.2 2.4-.2.8-.5-.4-1.6.7-2 1.1-.4 7.7 1 8.2 1.4.4.5 0 1.6.5 1.9.5.2 1.1.1 1.5 1 .3.9.8 2.8-.3 3.9-1.1 1.2-5 1.1-6.2.7-1.2-.5-6.8-6.7-6.8-6.7Z" class="&lt;Path&gt;"/>
          <path fill="#FAF49E" stroke="#413F28" stroke-linecap="round" stroke-linejoin="round" stroke-width=".4" d="M32.908 91.294c1.3.7 2.8 1.2 4.4 1.3 1.7.1 3.5-1 3.5-1l-3.6 8.9-4.3-9.2Z" class="&lt;Path&gt;"/>
          <path fill="#475395" d="M27.308 86.094c.9 0 6.6 6.1 7.5 7.3.9 1.2 2.5 3.2 2.5 3.2s1.9-3.2 2.5-4.1c.6-.9 1.9-3.3.9-4.5-1-1.1.7 0 1.3.9.6.9.8 5.9.9 7.9 0 1.9.6 7.2-1.8 10.2-2.3 3-4.6 2.9-6 2.9-1.4.1-4.4-.1-5.8-.3-1.3-.2-6.7-2-7.8-2.7-1.1-.8-2.6-2.1-2-4.3.5-2.1 1.5-2.8 1.8-3.7.2-.9 1.1-10.6 2.2-12.2.7-1.1 2.7-.7 3.8-.6Z" class="&lt;Path&gt;"/>
          <path fill="#BABAC6" stroke="#050505" stroke-linecap="round" stroke-linejoin="round" stroke-width=".5" d="M34.108 109.894c-.1-.1-.7 0-.8-.1-.1-.1.7-.6 1-.7.3-.2.5-.3.8-.7.4-.467.767-1.234 1.1-2.3.4-1.3.8-8.2.8-9.3 0-.2.1-.4.3-.4.2 0 .4.2.4.4 0 .6-.2 3.8-.3 5.6-.2 1.2-.2 3.1-.5 3.9-.4 1.2-.8 2-1.2 2.5-.4.5-.8.7-1.1.9-.133.066-.233.1-.3.1-.067.066-.133.1-.2.1Z" class="&lt;Path&gt;"/>
          <path stroke="#1A171B" stroke-linecap="round" stroke-linejoin="round" stroke-width=".4" d="M37.308 96.794c.1 1.1-.5 6.9-.9 8.3-.9 2.8-1.7 2.9-2.4 3.3" class="&lt;Path&gt;"/>
          <path fill="#BABAC6" stroke="#050505" stroke-linecap="round" stroke-linejoin="round" stroke-width=".5" d="M41.908 105.794s-1.8-1.7-1.8-1.8c0-.1.7-1 .8-1.1.1-.1.7.9 1 1.1l.5.5-.5 1.3Z" class="&lt;Path&gt;"/>
          <path stroke="#050505" stroke-linecap="round" stroke-linejoin="round" stroke-width=".5" d="M22.208 107.294c-1.2-.9-3.2-2.4-2.7-4.6.6-2.1 1.5-2.9 1.8-3.8.2-.9 1.1-10.6 2.2-12.2.7-1.1 2.7-.7 3.8-.6.9 0 6.6 6.1 7.5 7.3.9 1.2 2.5 3.2 2.5 3.2s1.9-3.2 2.5-4.1c.6-.9 1.9-3.3.9-4.5-1-1.1.7 0 1.3.9.6.9.8 5.9.9 7.9 0 1.9.6 7.2-1.8 10.2-2.3 3-4.6 2.9-6 2.9-1.1.1-3.4 0-5-.2" class="&lt;Path&gt;"/>
          <path fill="#BABAC6" stroke="#050505" stroke-linecap="round" stroke-linejoin="round" stroke-width=".5" d="M27.208 85.894c0 .4.1 2.2.4 3.3.2 1.1.7 2.9.9 3 .2 0 1.2-1.8 1.7-1.8.6-.1 2.2 1.3 2.4 2.2.2.8-.3.7.1 1.3.3.5.8 1.1 1.9 1.6 1.1.4 2.7 1.3 2.7 1.3s-1.5-3-4.6-6.2c-3.2-3.2-5.5-4.7-5.5-4.7Zm10.1 10.9s1.4-2.9 1.9-3.9 1.3-2.1 1.4-2.7c.1-.6 0-2.6 0-2.6s1.2.6 1.6 1.4c.6 1.1.9 3.8.3 4.1-.3.2-1.3-.8-1.4-.8-.2 0-.5 0-.6.4 0 .4.4 1.2 0 1.7-.4.8-.7.7-1.4 1.2-.7.4-1.8 1.2-1.8 1.2Z" class="&lt;Path&gt;"/>
          <path fill="#050505" d="M25.908 86.194c2.1 2.4 7.4 4.5 10.4 4.9 3.1.3 6-.4 6.4-.8.3-.2 0-1.9-3-3.1-.5-.2-.5-1.9-1.2-2.1-.6-.2-2-.6-3.5-.9-1.8-.4-3-.2-4.6-.1-.4 0 .5 2-.9 1.9-2.2-.1-3.6.2-3.6.2Z" class="&lt;Path&gt;" opacity=".4"/>
          <path fill="#050505" d="M24.208 86.194c-.8.3-1.1 1.1-1.5 3.2-.4 2-1.1 8-1.2 8.8-.3 1.8-.8 1.4-1.2 2.1-.3.8-.9 2.2-.8 3.4.1 2.4 2.2 3.6 3.1 3.8-.3-.5-1.4-2-1.5-2.4-.1-.6-.2-1.2.1-1.7.1-.3.4-.6.6-.8 1.4-1.5 2.5-4.9 3-6.9.4-2.2 1-4.3 1.4-6.5.1-.3.8-3.1.3-3.2-.8-.3-2.3.2-2.3.2Z" class="&lt;Path&gt;" opacity=".4"/>
          <path fill="#FAF49E" stroke="#050505" stroke-linecap="round" stroke-linejoin="round" stroke-width=".4" d="M37.908 98.794c0 .2-1.2.1-1.3-.1-.1-.1.5-1.7.5-1.8 0-.1-.3-.6.3-.6s.3.6.2.7c0 .1.4 1.6.3 1.8Z" class="&lt;Path&gt;"/>
        </g>
        <path fill="#C39170" stroke="#050505" stroke-linecap="round" stroke-linejoin="round" stroke-width=".5" d="M51.408 68.094c-.4.8-1.8 4.4-1.9 6.1-.1 1.7.4 4.1-.2 6-2 5.7-9.5 9.7-13 9.6-2.5-.1-10.8-1.7-16.7-7.9-5-5.2-7.6-35.8 14.6-34.1 22.2 1.7 18 18.6 17.2 20.3Z" class="&lt;Path&gt;"/>
        <g class="&lt;Group&gt;">
          <path fill="#050505" d="M37.408 79.194c.2 0 1.5.7 2.3.7.7 0 1.6-.5 1.6-.5s-.2 1.2-2.1 1.2c-1.8 0-2.8-1.5-1.8-1.4Z" class="&lt;Path&gt;" opacity=".2" style="mix-blend-mode:multiply"/>
          <g class="&lt;Path&gt;">
            <path fill="#C39170" d="M40.708 76.694c.1.4.9 2.2.4 2.7-.8.9-2.9.3-3.8-.3"/>
            <path stroke="#050505" stroke-linecap="round" stroke-linejoin="round" stroke-width=".5" d="M40.708 76.694c.1.4.9 2.2.4 2.7-.8.9-2.9.3-3.8-.3"/>
          </g>
        </g>
        <g class="&lt;Group&gt;">
          <path fill="#9D5C37" d="M40.108 73.894c0 .1-.1.2-.3.2-.2 0-.3-.1-.3-.3 0-.1.1-.2.3-.2.2 0 .3.1.3.3Z" class="&lt;Path&gt;"/>
        </g>
        <g class="&lt;Group&gt;">
          <path fill="#9D5C37" d="M38.308 75.594c0 .2-.1.3-.3.3-.2 0-.3-.2-.3-.3 0-.2.2-.3.3-.3.2 0 .4.2.3.3Z" class="&lt;Path&gt;"/>
        </g>
        <g class="&lt;Group&gt;">
          <path fill="#9D5C37" d="M41.608 75.794c0 .2-.2.3-.3.3-.2-.1-.4-.2-.4-.3.1-.2.2-.3.4-.3s.3.1.3.3Z" class="&lt;Path&gt;"/>
        </g>
        <g class="&lt;Group&gt;">
          <g class="&lt;Group&gt;">
            <path fill="#9D5C37" d="M30.508 77.294c0 .1-.1.2-.3.2-.2 0-.3-.1-.3-.3 0-.1.1-.3.3-.2.2 0 .3.1.3.3Z" class="&lt;Path&gt;"/>
          </g>
          <g class="&lt;Group&gt;">
            <path fill="#9D5C37" d="M28.108 78.094c0 .2-.2.3-.4.3-.1 0-.3-.2-.3-.3 0-.2.2-.3.4-.3.1 0 .3.2.3.3Z" class="&lt;Path&gt;"/>
          </g>
          <g class="&lt;Group&gt;">
            <path fill="#9D5C37" d="M26.408 76.094c0 .1-.1.2-.3.2-.2 0-.3-.1-.3-.3 0-.1.1-.2.3-.2.2 0 .3.1.3.3Z" class="&lt;Path&gt;"/>
          </g>
          <g class="&lt;Group&gt;">
            <path fill="#9D5C37" d="M27.608 80.594c0 .1-.2.2-.4.2-.1 0-.3-.1-.3-.3 0-.1.2-.2.4-.2.1 0 .3.1.3.3Z" class="&lt;Path&gt;"/>
          </g>
        </g>
        <g class="&lt;Group&gt;">
          <g class="&lt;Group&gt;">
            <path fill="#9D5C37" d="M45.708 78.094c0 .2-.1.3-.3.3-.2 0-.3-.2-.3-.3 0-.2.1-.3.3-.3.2 0 .3.2.3.3Z" class="&lt;Path&gt;"/>
          </g>
          <g class="&lt;Group&gt;">
            <path fill="#9D5C37" d="M49.208 77.394c0 .2-.2.3-.4.3-.1 0-.3-.1-.3-.3.1-.1.2-.3.4-.2.2 0 .3.1.3.2Z" class="&lt;Path&gt;"/>
          </g>
          <g class="&lt;Group&gt;">
            <path fill="#9D5C37" d="M48.108 79.294c0 .1-.2.2-.4.2s-.3-.1-.3-.3c0-.1.2-.2.4-.2.1 0 .3.1.3.3Z" class="&lt;Path&gt;"/>
          </g>
          <g class="&lt;Group&gt;">
            <path fill="#9D5C37" d="M47.908 81.794c0 .2-.1.3-.3.3-.2 0-.3-.2-.3-.3 0-.2.2-.3.3-.3.2 0 .4.2.3.3Z" class="&lt;Path&gt;"/>
          </g>
        </g>
        <path fill="#FEFEFE" d="M42.708 74.494s.2-3.7 2.4-4.1c1.9-.4 4.1 2.8 4.1 2.8s-1.3 1.4-3.2 1.6c-2 .3-3.3-.3-3.3-.3Zm-7.2-.3s-3.2.1-5.3-.4c-2.2-.6-3.5-1.8-3.5-1.8s2.8-2.1 4.9-2.3c2.1-.2 3.3 1.1 3.5 1.6.5 1.2.4 2.9.4 2.9Z" class="&lt;Path&gt;"/>
        <g class="Clip path group">
          <mask id="a" width="8" height="5" x="42" y="70" class="a" maskUnits="userSpaceOnUse" style="mask-type:luminance">
            <g class="cp55">
              <path fill="#fff" d="M42.678 74.464s.23-3.67 2.38-4.07c1.9-.35 4.18 2.81 4.18 2.81s-1.32 1.37-3.25 1.64c-1.94.26-3.31-.38-3.31-.38Z" class="Vector"/>
            </g>
          </mask>
          <g class="&lt;Clip Group&gt;" mask="url(#a)">
            <g class="&lt;Group&gt;">
              <path fill="#613914" d="M42.608 71.994c-.2 1.3.7 2.4 1.9 2.5 1.3.2 2.5-.7 2.6-1.9.2-1.2-.7-2.4-1.9-2.5-1.3-.2-2.5.7-2.6 1.9Z" class="&lt;Path&gt;"/>
              <path fill="#050505" d="M44.108 72.294c0 .4.3.7.7.7.4 0 .7-.3.7-.7 0-.4-.3-.7-.7-.7-.4 0-.7.3-.7.7Z" class="&lt;Path&gt;"/>
              <path fill="#FEFEFE" d="M45.508 71.494c0 .3.1.5.4.5.2 0 .4-.2.4-.4 0-.3-.2-.5-.4-.5s-.4.2-.4.4Z" class="&lt;Path&gt;"/>
            </g>
          </g>
        </g>
        <g class="Clip path group">
          <mask id="b" width="10" height="6" x="26" y="69" class="b" maskUnits="userSpaceOnUse" style="mask-type:luminance">
            <g class="cp56">
              <path fill="#fff" d="M35.498 74.154s-3.17.19-5.31-.37c-2.14-.56-3.47-1.79-3.47-1.79s2.81-2.09 4.91-2.3c2.11-.21 3.33 1.09 3.53 1.62.44 1.18.34 2.84.34 2.84Z" class="Vector"/>
            </g>
          </mask>
          <g class="&lt;Clip Group&gt;" mask="url(#b)">
            <g class="&lt;Group&gt;">
              <path fill="#613914" d="M28.708 71.194c-.2 1.3.7 2.4 2 2.5 1.3.2 2.4-.7 2.6-1.9.2-1.2-.7-2.3-2-2.5-1.2-.2-2.4.7-2.6 1.9Z" class="&lt;Path&gt;"/>
              <path fill="#050505" d="M30.308 71.494c-.1.4.3.7.6.7.4 0 .8-.3.8-.7 0-.4-.3-.7-.7-.7-.4 0-.7.3-.7.7Z" class="&lt;Path&gt;"/>
              <path fill="#FEFEFE" d="M31.608 70.694c0 .3.2.5.4.5.3 0 .5-.2.5-.4 0-.3-.2-.5-.4-.5s-.4.2-.5.4Z" class="&lt;Path&gt;"/>
            </g>
          </g>
        </g>
        <path stroke="#050505" stroke-linecap="round" stroke-linejoin="round" stroke-width=".5" d="M26.708 71.994s2.8-2.1 4.9-2.3c2.1-.2 3.3.9 3.5 1.6.5 1.2.4 2.7.4 2.7m7.2.4s.2-3.6 2.4-4c1.9-.4 4.1 2.8 4.1 2.8" class="&lt;Path&gt;"/>
        <g class="&lt;Group&gt;">
          <g class="&lt;Group&gt;">
            <path fill="#050505" d="M44.408 68.994c1-.6 2.1-1.2 3.2-1.6a.889.889 0 0 1 .4-.1c.067-.067.166-.1.3-.1h.1c-.067 0-.067 0 0 0l.1-.1h.1c-.1 0-.1 0-.1.1h.2c.5.3.9.8 1.1 1.3.2.3 1.2 0 1-.3-.5-.9-1.3-1.8-2.4-1.6-1.1.2-2.3.8-3.3 1.3-.4.266-.833.533-1.3.8-.2.1-.3.2-.1.4.1.1.5 0 .7-.1Z" class="&lt;Path&gt;"/>
          </g>
        </g>
        <g class="&lt;Group&gt;">
          <g class="&lt;Group&gt;">
            <path fill="#050505" d="M26.108 69.294c.4-.4.833-.733 1.3-1 .5-.4 1.1-.8 1.7-.9.7-.1 1.4.1 2.1.2 1.067.133 2.133.3 3.2.5.6.1 1.3.2 2 .4.2.1 0-.2 0-.3-.1-.2-.3-.4-.5-.5-.7-.2-1.4-.3-2-.4a66.34 66.34 0 0 0-3.3-.5c-.7-.1-1.5-.3-2.2-.2-1.2.3-2.2 1.2-3 1.9-.2.2.5.9.7.8Z" class="&lt;Path&gt;"/>
          </g>
        </g>
        <path fill="#050505" stroke="#050505" stroke-linecap="round" stroke-linejoin="round" stroke-width=".5" d="M32.108 80.794c.2.1 3.1 1.4 5.3 1.5 2.2.2 4.1.1 4.1.1s-1.6 2.5-3.6 2.4c-3.7-.3-5.8-4-5.8-4Z" class="&lt;Path&gt;"/>
        <path fill="#FEFEFE" stroke="#050505" stroke-linecap="round" stroke-linejoin="round" stroke-width=".5" d="M33.508 82.594c.1 0 1.8.6 3.6.8 2 .3 3.5.1 3.5.1l.9-1.1s-3.2.1-5.4-.3c-2.1-.4-4-1.3-4-1.3s.6 1 1.4 1.8Z" class="&lt;Path&gt;"/>
        <g class="&lt;Group&gt;">
          <g class="&lt;Group&gt;">
            <path fill="#C6A9C7" d="M23.708 70.494c2-3.6 19.3-15.4 19.6-16.7.2-1.4-6.6-6.8-6.6-6.8-3.2-1.8-9.8-.9-14.8 1.4-5.1 2.4-7.3 5.9-7.9 8-1.1 3.1-1.1 10.6 1.6 13.6s7.6 1.4 8.1.5Z" class="&lt;Path&gt;"/>
            <path stroke="#814E57" stroke-linecap="round" stroke-linejoin="round" stroke-width=".5" d="M23.708 70.494c2-3.6 19.3-15.4 19.6-16.7.2-1.4-6.6-6.8-6.6-6.8-3.2-1.8-9.8-.9-14.8 1.4-5.1 2.4-7.3 5.9-7.9 8" class="&lt;Path&gt;"/>
          </g>
          <g class="&lt;Group&gt;">
            <path fill="#AF94AF" d="M7.908 78.494c-2.1.7-8.6-.2-6.6-1.1 3.3-1.7 3.7-2.3 5.7-4.1 2.9-2.6 4.6-7.7 5.4-10.8.4-1.4 1.1-4.4 1.6-6.1.6-2.1 2.8-5.6 7.9-8 5-2.3 11.5-3.2 14.7-1.4l-.8-.3c-1.9-.1-10.2.2-13.1 6.2-2.8 6.1-6.3 16.9-8.8 20.5-1.6 2.1-2.9 4.1-6 5.1Z" class="&lt;Path&gt;"/>
            <path stroke="#814E57" stroke-linecap="round" stroke-linejoin="round" stroke-width=".5" d="M36.708 46.994c-3.2-1.8-9.8-.9-14.8 1.4-5.1 2.4-7.1 6-7.9 8-.6 1.3-1.5 5.6-1.6 6.1-.8 3-2.6 8.3-5.5 10.9-2 1.8-2.3 2.3-5.4 3.8-2.4 1.1 3.9 2.3 7.2 1 2.1-.8 4.6-3.7 5.9-5.9" class="&lt;Path&gt;"/>
          </g>
          <g class="&lt;Group&gt;">
            <path fill="#C6A9C7" d="M23.708 70.494c-1.9 3.6-3.1 10.6-3.3 13.1 0 0-1.1 2.9-3.2 4.9-2.2 2.1-7.4 2.8-8.2 2-.5-.4 1.9-1.8 2.5-2.4 1.1-1.2 2.1-3.6 2.1-3.6 2-3.9 2.7-13.3 4.5-14.2" class="&lt;Path&gt;"/>
            <path fill="#AF94AF" d="M13.508 84.894c.3-.7-1.3 2-.1 2.9 1.3.9 3.8-.4 5.5-1.7l.9-1c-.4 1-2.2 3.1-3 4-2.2 2-7.2 1.8-7.7 1.6-.6-.2 1.2-1.4 1.8-2 .7-.9 2.5-3.2 2.6-3.8Z" class="&lt;Path&gt;"/>
            <path stroke="#814E57" stroke-linecap="round" stroke-linejoin="round" stroke-width=".5" d="M23.708 70.494c-1.9 3.6-3 10.6-3.2 13 0 0-1.1 3.3-3.4 5.2-3.9 3.4-8.8 2.1-8.3 1.7.6-.5 1.6-1.2 2.6-2.2 1.1-1.3 1.9-2.6 2.2-3.7.9-2.7 1.4-5.1 1.4-5.1" class="&lt;Path&gt;"/>
          </g>
          <g class="&lt;Group&gt;">
            <path fill="#AF94AF" d="M18.708 86.094c-1.7 1.3-4.1 2.3-5.4 1.4-1.2-.9.3-3.5.3-4.3 0-.7-1 0-1.5-.9-.6-.9 0-1.7 2.6-5.3 2.5-3.6 5.2-18 8-24.1 2.9-6 11.2-6.3 13.1-6.2l.8.3c-3.2-1.8-9.7-.9-14.7 1.4-5.1 2.4-7.3 5.9-7.9 8-.5 1.7-1.2 4.7-1.6 6.1-.8 3.1-3.1 7.9-6 10.5-2 1.8-4.5 2.2-4.3 4.2.2 2.1 5.5.9 6.3 1.2.7.2.6.8-.5 1.6-.9.8-3.5 1.9-4.3 3.2-.7 1.3-.6 3.4 2 3.6 1.6.1 4.6-.8 5.2-.7.5.2.4.5 0 1.3-.3.8-1.7 3 .1 4.1 1.3.8 4.2-.8 6.3-2.8.9-.9 1.5-2 1.8-3l-.3.4Z" class="&lt;Path&gt;"/>
            <g class="&lt;Group&gt;">
              <path fill="#F38BA1" d="M31.308 47.594c-.4-.5-6 .1-9.5 3.6-3.4 3.6-6.8 12.9-8.4 19.6-1.1 4.6-2.9 7.1-3.6 8.2-.3.4-.9 1.5-1.5 2-.9.7-2.7 2.9-4.6 3.6-2.7 1-2.8 2.1 1.4 2.2 1.5 0 4.2-.3 5.1-.5 1-.3 2.1-.9 2.1-.9s3.3-2.7 4.8-4.9 5.2-17.3 7.5-24c2.2-6.7 7-8.5 6.7-8.9Z" class="&lt;Path&gt;"/>
            </g>
            <path fill="#050505" d="M13.208 84.494c.1-.5 0-1-.4-1.4-.4-.4-1-.3-1.5-.5-.8-.3-1.3-1-1.5-1.8-.2-.8.2-1.4.3-2.2-.3.2-1.9 2.6-2.9 3.7-1.2 1.3-3.2 2.4-5 3.1-2.1 1 3.6 1.4 3.6 1.4s3.3-.2 4.8-.9c1.8-.8 2.6-1.4 2.6-1.4Z" class="&lt;Path&gt;" opacity=".1"/>
            <path stroke="#814E57" stroke-linecap="round" stroke-linejoin="round" stroke-width=".5" d="M14.508 83.494c-.9.9-2.7 2.1-4 2.5-3.2 1.1-7.1.8-8.3.3-1.5-.7 1.2-1.2 2.7-2.2 2.9-2 5.2-5.2 6-6.7.8-1.5 1.2-2.8 1.2-2.8" class="&lt;Path&gt;"/>
          </g>
        </g>
        <g class="&lt;Path&gt;">
          <path fill="#C6A9C7" d="M36.708 46.194c1.1-.5 1.8-.6 3.9-.1 2.3.5 8.8 3.3 11.8 10.2 4.4 10.1-.4 17.2-.4 16.1-.2-1.7-.2-4.5-1-7-1.2-3.8-3-4.5-3-4.5-1-1-5.1-5.6-6.2-6.5"/>
          <path stroke="#814E57" stroke-linecap="round" stroke-linejoin="round" stroke-width=".5" d="M36.708 46.194c1.1-.5 1.8-.6 3.9-.1 2.3.5 8.8 3.3 11.8 10.2 4.4 10.1-.4 17.2-.4 16.1-.2-1.7-.2-4.5-1-7-1.2-3.8-3-4.5-3-4.5-1-1-5.1-5.6-6.2-6.5"/>
        </g>
        <g class="&lt;Path&gt;">
          <path fill="#C6A9C7" d="M23.208 70.194c-.3 1-.7 2-.6 4.3.1 2.3.3 9.6-.6 10-1.1.3-3.6-3.9-3.7-7.9"/>
          <path stroke="#814E57" stroke-linecap="round" stroke-linejoin="round" stroke-width=".5" d="M23.208 70.194c-.3 1-.7 2-.6 4.3.1 2.3.3 9.6-.6 10-1.1.3-3.6-3.9-3.7-7.9"/>
        </g>
        <g class="&lt;Path&gt;">
          <path fill="#C6A9C7" d="M48.408 59.394c-.3 1.2-.7 2.2-2.1 3.3-1.4 1.1-3.3 1.4-3 .8.6-1.5 1-2.6.9-4.6 0-2.1-1.5-4.1-3-5.5-.7-.7-.3-1.6-.3-1.6"/>
          <path stroke="#814E57" stroke-linecap="round" stroke-linejoin="round" stroke-width=".5" d="M48.408 59.394c-.3 1.2-.7 2.2-2.1 3.3-1.4 1.1-3.3 1.4-3 .8.6-1.5 1-2.6.9-4.6 0-2.1-1.5-4.1-3-5.5-.7-.7-.3-1.6-.3-1.6"/>
        </g>
        <g class="&lt;Group&gt;">
          <g class="&lt;Group&gt;">
            <path fill="#C6A9C7" d="M41.608 53.794c-.5 5-3.9 9.7-9.6 13.2-8.9 5.5-20.7 4.1-18.5 2.9 2.9-1.7 4.7-1.7 8.6-5.3 2.1-2 4.8-8 3.7-11.2-.2-.5 2.8-2.9 6.5-3.9 3.2-.7 7.7-1.1 8.6.9.9 1.9.7 3.4.7 3.4Z" class="&lt;Path&gt;"/>
          </g>
          <path stroke="#814E57" stroke-linecap="round" stroke-linejoin="round" stroke-width=".5" d="M41.208 50.994c.4.9.6 1.7.4 2.8-.5 5-3.9 9.7-9.6 13.2-8.9 5.5-20.8 3.7-18.5 2.9 3.5-1.3 4.7-1.7 8.6-5.3 2.1-2 5.4-8.3 3.7-11.2" class="&lt;Path&gt;"/>
        </g>
        <g class="&lt;Group&gt;">
          <path fill="#AF94AF" d="M15.508 56.794c.1 1.1-.5 2.2-1.1 2.3-.6 0-.9-1-1-2-.2-1.1.2-2 .8-2.1.6-.1 1.2.7 1.3 1.8Z" class="&lt;Path&gt;"/>
          <g class="&lt;Path&gt;">
            <path fill="#AF94AF" d="M14.508 58.994c-2.5 4.3-7.1 4.9-6 4.1 1.7-1.2 3-3.3 5.6-8.1"/>
            <path stroke="#814E57" stroke-linecap="round" stroke-linejoin="round" stroke-width=".5" d="M14.508 58.994c-2.5 4.3-7.1 4.9-6 4.1 1.7-1.2 3-3.3 5.6-8.1"/>
          </g>
        </g>
        <g class="&lt;Group&gt;">
          <g class="&lt;Group&gt;">
            <path fill="#FAF49E" stroke="#413F28" stroke-linecap="round" stroke-linejoin="round" stroke-width=".4" d="M25.908 42.694c-.4.1-2 1.4 1.7 1.5 3.8.1 4.6-.5 4.8-.9.3-.5-.8-.9-1.7-.8-.9 0-4.8.2-4.8.2Z" class="&lt;Path&gt;"/>
            <g class="&lt;Path&gt;">
              <path fill="#FAF49E" d="M25.908 43.094c.5-1.4.6-2.6.8-4.4.1-1.4 0-3.2.7-3.2s3 2.3 3.6 4.4c.7 2.2.6 2.5 1 3"/>
              <path stroke="#413F28" stroke-linecap="round" stroke-linejoin="round" stroke-width=".5" d="M25.908 43.094c.5-1.4.6-2.6.8-4.4.1-1.4 0-3.2.7-3.2s3 2.3 3.6 4.4c.7 2.2.6 2.5 1 3"/>
            </g>
            <path stroke="#FAF49E" stroke-dasharray="3.65 3.65" stroke-linecap="round" stroke-linejoin="round" stroke-width=".5" d="M28.008 36.494c.9.8 2.1 2.6 2.7 5.1" class="&lt;Path&gt;"/>
          </g>
          <g class="&lt;Group&gt;">
            <path fill="#FAF49E" stroke="#413F28" stroke-linecap="round" stroke-linejoin="round" stroke-width=".4" d="M18.908 46.694c-.4.2-1.4 2 2.1.8s4.1-2 4.1-2.5c.1-.6-1-.5-1.9-.2-.8.4-4.3 1.9-4.3 1.9Z" class="&lt;Path&gt;"/>
            <g class="&lt;Path&gt;">
              <path fill="#FAF49E" d="M19.008 46.994c-.1-1.4-.4-2.6-.9-4.4-.3-1.3-1-3-.3-3.2.6-.2 3.5 1.2 4.9 2.9 1.4 1.8 1.4 2.2 1.9 2.5"/>
              <path stroke="#413F28" stroke-linecap="round" stroke-linejoin="round" stroke-width=".5" d="M19.008 46.994c-.1-1.4-.4-2.6-.9-4.4-.3-1.3-1-3-.3-3.2.6-.2 3.5 1.2 4.9 2.9 1.4 1.8 1.4 2.2 1.9 2.5"/>
            </g>
            <path stroke="#FAF49E" stroke-dasharray="3.65 3.65" stroke-linecap="round" stroke-linejoin="round" stroke-width=".5" d="M18.708 40.194c1.1.4 2.8 1.6 4.3 3.8" class="&lt;Path&gt;"/>
          </g>
          <path fill="#050505" d="M26.108 68.794c-3.7 1.5-4.7 3.5-8.5 2.1-.6-.3-2.7-2-3.6-2.5-1.3-.7-2.5-.5-3.9-.7-.3-3.5.3-3.5 3.1-5.6 2.8-2.1 6.3-3 9.8-3.6 7.9-1.4 16-1 24.1-.3 2.6.2 5.7.8 6.8 3.2.4.9.8 2.9.3 3.8-.6 1.2-1.2.9-2.6.8-2.9-.1-5.8-.2-8.7-.2-5.6.1-11.5.8-16.8 3Z" class="&lt;Path&gt;" opacity=".1"/>
          <path fill="#12616B" stroke="#1B3430" stroke-linecap="round" stroke-linejoin="round" stroke-width=".4" d="M55.308 64.494c-.1.9-4-.6-7.6-.8-4.7-.1-13.5.5-16 1-2.6.5 1.9-2.3 9.8-2.5 7.8-.2 13.8 2.3 13.8 2.3Z" class="&lt;Path&gt;"/>
          <path fill="#76C9BA" stroke="#1B3430" stroke-linecap="round" stroke-linejoin="round" stroke-width=".5" d="M8.608 67.894c-.8-.2-2-7.5-.4-12.3 1.6-4.7 3.6-6.8 8.9-9.9 5.3-3.2 13.5-4.3 23.8-1.7 10.2 2.5 11.7 8.3 12.6 10.1 1 2.1 2.4 10.6 1.8 10.4-6.3-2.3-17.4-1.2-20.1-.8-2.8.5-8.6 2.4-11.4 4.5-2.7 2-3.5 1.9-4.6 1.7-1.2-.1-4-3.1-5.8-3-1.8.1-3.4 1.3-4.8 1Z" class="&lt;Path&gt;"/>
          <g class="&lt;Group&gt;">
            <g class="&lt;Group&gt;">
              <path fill="#1F7C6C" stroke="#1B3430" stroke-linecap="round" stroke-linejoin="round" stroke-width=".4" d="M48.808 54.594c.2-.1.5.4.7.5.333.466.633.966.9 1.5.3.6 1 2.5.4 3.1-.6.6-1.7-.5-2.2-1-.5-.4-.3-1.6-.3-2.2.1-.5.1-1.8.5-1.9Z" class="&lt;Path&gt;"/>
              <path fill="#103D36" stroke="#1B3430" stroke-linecap="round" stroke-linejoin="round" stroke-width=".4" d="M48.708 55.194c-.1.1-.2.3-.3.5-.133.733-.2 1.433-.2 2.1-.1.5-.2 1.3.1 1.7.6.5 1.8.7 2.4.2.1-.9-.4-2.2-.8-3-.2-.3-.8-1.5-1.2-1.5Z" class="&lt;Path&gt;"/>
            </g>
          </g>
          <g class="&lt;Group&gt;">
            <g class="&lt;Group&gt;">
              <path fill="#1F7C6C" stroke="#1B3430" stroke-linecap="round" stroke-linejoin="round" stroke-width=".4" d="M40.308 54.894c.2-.1.6.4.8.6.4.4.767.867 1.1 1.4.4.6 1.2 2.2.5 2.7-.8.7-1.9 0-2.7-.5-.6-.4-.4-1.6-.4-2.3.1-.5.3-1.8.7-1.9Z" class="&lt;Path&gt;"/>
              <path fill="#103D36" stroke="#1B3430" stroke-linecap="round" stroke-linejoin="round" stroke-width=".4" d="M40.108 55.594c-.1 0-.2.2-.3.4a24.915 24.915 0 0 0-.3 2.2c-.1.4-.2 1.3.2 1.6.8.6 2.1.4 2.9-.1 0-.9-.5-1.9-1-2.6-.2-.4-1-1.6-1.5-1.5Z" class="&lt;Path&gt;"/>
            </g>
          </g>
          <path fill="#A4D9D5" d="M21.308 69.894c-1.7-1.3-4.7-5.5-7.1-5.9-2.4-.4-3-5.7-2.9-6.8.1-1.1.6-3.3.2-2.9-.3.4-.8 3-1.4 2.6-.6-.3-.3-3.3-.2-4.6.1-.5.3-1.6 1.3-1.9 1.1-.3 5.9-2.4 8.1-2 2.2.5 6.2 2.5 6.9 3.3.7.8-3.4.2-3.4.2s3.2.9 5.8 2.2c7.4 3.9 8.1 9.3 8.1 9.3s-2.6.5-7 2c-5.6 1.9-8.4 4.5-8.4 4.5Z" class="&lt;Path&gt;"/>
          <path fill="#050505" d="M16.308 46.394c-1.3.3-7.3 4.2-8.1 9.2-.9 5.1-1 11.9 0 12.1.9.3 3.9-.8 5.2-.8 1.2 0 4.9 2.9 5.8 2.9 0 0-.5-2.6-2.8-6.4-2.3-3.7-1.5-10.6.2-12.2 1.7-1.6 1.5-5.3-.3-4.8Z" class="&lt;Path&gt;" opacity=".1"/>
          <path stroke="#1B3430" stroke-linecap="round" stroke-linejoin="round" stroke-width=".5" d="M8.608 67.894c-.8-.2-2-7.5-.4-12.3 1.6-4.7 3.6-6.8 8.9-9.9 5.3-3.2 13.5-4.3 23.8-1.7 10.2 2.5 11.8 8.3 12.6 10.1.9 2.1 2.4 10.6 1.8 10.4-6.3-2.3-17.4-1.2-20.1-.8-2.8.5-8.6 2.4-11.4 4.5-2.7 2-3.3 1.9-4.5 1.7-1.2-.1-4.1-3.1-5.9-3-1.8.1-3.4 1.3-4.8 1Z" class="&lt;Path&gt;"/>
          <g class="&lt;Group&gt;">
            <g class="&lt;Group&gt;">
              <path stroke="#D7EEEE" stroke-linecap="round" stroke-linejoin="round" stroke-width="1.1" d="M48.508 49.894c.5.5 1.3 1.3 2.1 2.6" class="&lt;Path&gt;"/>
              <path stroke="#D7EEEE" stroke-dasharray="1.12 1.12" stroke-linecap="round" stroke-linejoin="round" stroke-width="1.1" d="M50.808 52.894c.5.9 1 2.1 1.5 3.6" class="&lt;Path&gt;"/>
              <path stroke="#D7EEEE" stroke-linecap="round" stroke-linejoin="round" stroke-width="1.1" d="M52.508 57.194c.267.933.5 2 .7 3.2" class="&lt;Path&gt;"/>
            </g>
          </g>
          <g class="&lt;Group&gt;">
            <path fill="#FAF49E" stroke="#413F28" stroke-linecap="round" stroke-linejoin="round" stroke-width=".5" d="M35.108 42.794c-.5.1-2.2 1.1 1.4 1.9 3.6.8 4.6.4 4.9 0 .3-.5-.7-1-1.6-1.1-.9-.2-4.7-.8-4.7-.8Z" class="&lt;Path&gt;"/>
            <g class="&lt;Path&gt;">
              <path fill="#FAF49E" d="M35.008 43.194c.8-1.3 1.1-2.4 1.6-4.2.4-1.3.7-3.1 1.4-2.9.6.1 2.4 2.8 2.7 5 .2 2.2 0 2.6.3 3.1"/>
              <path stroke="#413F28" stroke-linecap="round" stroke-linejoin="round" stroke-width=".5" d="M35.008 43.194c.8-1.3 1.1-2.4 1.6-4.2.4-1.3.7-3.1 1.4-2.9.6.1 2.4 2.8 2.7 5 .2 2.2 0 2.6.3 3.1"/>
            </g>
            <path stroke="#FAF49E" stroke-dasharray="3.65 3.65" stroke-linecap="round" stroke-linejoin="round" stroke-width=".5" d="M38.408 37.194c.7 1 1.5 2.9 1.6 5.6" class="&lt;Path&gt;"/>
          </g>
        </g>
        <g class="&lt;Group&gt;">
          <g class="&lt;Group&gt;">
            <g class="&lt;Group&gt;">
              <path fill="#C39170" stroke="#050505" stroke-linecap="round" stroke-linejoin="round" stroke-width=".5" d="M27.508 115.494s1-4.1 1.5-5.9c.7-2.2-.9-1.6-2.5-2-1.5-.5-2.5-2-3.2.4-.7 2.5-1.7 5.9-1.7 5.9-1.1 3.6 5.1 5.4 5.9 1.6Z" class="&lt;Path&gt;"/>
              <path fill="#050505" d="M23.208 114.094c-.3 2 2.5 3.9.8 3.3-1.6-.4-2.9-1.8-2.4-3.5 0 0 1-3.4 1.7-5.9.7-2.4 1.2-.1 2.7.4 1.5.4 3.7-1 3 1.2-.5 1.8-4.1 0-4.6 1.6-.2.7-1 1.5-1.2 2.9Z" class="&lt;Path&gt;" opacity=".4"/>
            </g>
            <g class="&lt;Group&gt;">
              <g class="&lt;Path&gt;">
                <path fill="#475395" d="M30.308 106.694c.7.7.8 1.4.8 2 .1 1.1-1.3 4.2-1.3 4.2s-3.6-.9-5.5-1.7c-1.8-.8-3.5-1.8-3.5-1.8l1.7-3.1"/>
                <path stroke="#050505" stroke-linecap="round" stroke-linejoin="round" stroke-width=".5" d="M30.308 106.694c.7.7.8 1.4.8 2 .1 1.1-1.3 4.2-1.3 4.2s-3.6-.9-5.5-1.7c-1.8-.8-3.5-1.8-3.5-1.8l1.7-3.1"/>
              </g>
            </g>
            <path fill="#050505" d="m23.208 110.694-2.4-1.3 2.2-4s1.5-2 3.3-1.4c.7.2-3.1 6.7-3.1 6.7Z" class="&lt;Path&gt;" opacity=".4"/>
          </g>
          <g class="&lt;Group&gt;">
            <g class="&lt;Group&gt;">
              <g class="&lt;Group&gt;">
                <path fill="#BABAC6" stroke="#050505" stroke-linecap="round" stroke-linejoin="round" stroke-width=".5" d="M20.408 117.794c0 .1.1.2.2.2l9.9.4c.1 0 .2-.1.2-.2v-.5c0-.1-.1-.2-.2-.2l-9.9-.4c-.1 0-.2.1-.2.2v.5Z" class="&lt;Path&gt;"/>
                <path fill="#86657B" stroke="#050505" stroke-linecap="round" stroke-linejoin="round" stroke-width=".5" d="M25.408 113.694s-.1-.5.7-.5c.4 0 1.5.1 1.8.1.6 0 .3.4.1.8-.2.4-.3.6 0 1l.9 1.2-1.9 1-1.6-2.3v-1.3Z" class="&lt;Path&gt;"/>
                <g class="&lt;Path&gt;">
                  <path fill="#86657B" d="m28.008 117.394-7.4-.3s.1-1.5.1-2 .3-.8.9-.7c.5 0 1 .5 2.2 0 .9-.4 1.1-.4 1.5-.5.5-.2.6.1.7.5l.2.8"/>
                  <path stroke="#050505" stroke-linecap="round" stroke-linejoin="round" stroke-width=".5" d="m28.008 117.394-7.4-.3s.1-1.5.1-2 .3-.8.9-.7c.5 0 1 .5 2.2 0 .9-.4 1.1-.4 1.5-.5.5-.2.6.1.7.5l.2.8"/>
                </g>
                <path fill="#BABAC6" stroke="#050505" stroke-linecap="round" stroke-linejoin="round" stroke-width=".4" d="M30.508 117.494c0-.3-1.1-1.2-1.6-1.2-1.1 0-1.9 1.1-1.9 1.1l3.5.1Z" class="&lt;Path&gt;"/>
              </g>
              <path fill="#BABAC6" stroke="#43323E" stroke-linecap="round" stroke-linejoin="round" stroke-width=".4" d="M23.208 115.994c0 .3-.3.6-.7.6-.4 0-.7-.3-.7-.7 0-.4.4-.7.7-.6.4 0 .7.3.7.7Z" class="&lt;Path&gt;"/>
              <path fill="#FAF49E" stroke="#413F28" stroke-linecap="round" stroke-linejoin="round" stroke-width=".4" d="M27.808 114.394s-1.1.1-1.6.4c-.8.3-1.5.7-1.5.7l.4.7s.6-.4 1.4-.6c.8-.2 1.7-.3 1.7-.3l-.4-.9Z" class="&lt;Path&gt;"/>
            </g>
          </g>
        </g>
        <g class="&lt;Group&gt;">
          <g class="&lt;Group&gt;">
            <g class="&lt;Group&gt;">
              <path fill="#475395" stroke="#050505" stroke-linecap="round" stroke-linejoin="round" stroke-width=".5" d="M13.108 96.194c-.1.6 0 .8 0 .8s.1.9 3.2 2c1.6.6 3.2.6 3.4.6.6.1 1.4-1.9 2.2-2.9 1-1.4 2.4-2.1 3.6-3.4 1.3-1.5 1.2-3.7-.9-5.5-2.2-1.9-4.9-.3-6 .8-1.4 1.5-3.6 4-4.1 4.9-.6.8-1.4 2.2-1.4 2.7Z" class="&lt;Path&gt;"/>
              <path fill="#050505" d="M24.408 87.594s-2.2-1.7-4.7.2c-.4.3-3.5 2.9-5 5.3-1.8 2.7-1.9 4.2-1.9 4.2l1.5.8s5.8-8.4 7.8-9.7c1-.6 2.3-.8 2.3-.8Z" class="&lt;Path&gt;" opacity=".4"/>
            </g>
          </g>
          <path fill="#050505" d="M17.708 102.094c-.067-.067-.133-.1-.2-.1-1-.334-1.967-.7-2.9-1.1a39.96 39.96 0 0 0-1.7-.8c-.067 0-.167-.034-.3-.1-.067 0-.1.033-.1.1l-.2.4-1 2.8a1.98 1.98 0 0 0-.2.9c0 .266.066.533.2.8.133.2.267.366.4.5.2.2.433.4.7.6a6.55 6.55 0 0 0 1.9.7c.267.066.533.1.8.1.333 0 .667-.1 1-.3.133-.134.267-.3.4-.5s.233-.434.3-.7c.067-.067.067-.1 0-.1a1.314 1.314 0 0 1-.6-.6c-.067-.067-.1-.134-.1-.2-.067-.067-.1-.167-.1-.3-.067-.067-.1-.134-.1-.2 0-.1.1-.2.2-.3.1 0 .3 0 .4.1v.2c.133.2.267.366.4.5.133.2.333.3.6.3.2.066.367 0 .5-.2.2-.267.267-.567.2-.9l-.2-.6a5.732 5.732 0 0 1-.3-1Z" class="&lt;Path&gt;"/>
          <g class="&lt;Group&gt;">
            <path fill="#050505" d="M18.408 102.094s0 .2.1.6c0 .133.033.266.1.4a.88.88 0 0 1 .1.4c.2.4.167.833-.1 1.3-.133.2-.3.366-.5.5-.067 0-.133.033-.2.1h-.4v.1l-.1.1c-.067.2-.167.4-.3.6-.1.4-.4.7-.8.9-.333.266-.733.4-1.2.4h-.5a.896.896 0 0 1-.4-.1 8 8 0 0 1-2-.7 3.39 3.39 0 0 1-.9-.8 2.68 2.68 0 0 1-.5-.7 1.96 1.96 0 0 1-.2-1.5c0-.2.033-.434.1-.7l.6-1.4c.2-.5.6-1.2.8-1.7v-.2c.067-.067.067-.134 0-.2-.067-.067-.067-.167 0-.3 0-.067.033-.134.1-.2 0-.1 1.8.8 1.8.8.067 0 .133.033.2.1.7.3 1.2.7 1.9 1 .667.266 1.367.5 2.1.7.067.066.133.1.2.1h.1s-.1.3-.1.4Z" class="&lt;Path&gt;"/>
            <path fill="#C39170" d="M17.708 102.094c.067.333.167.666.3 1l.2.6c.067.333 0 .633-.2.9-.133.2-.3.266-.5.2-.267 0-.467-.1-.6-.3a3.31 3.31 0 0 1-.4-.5v-.2c-.1-.1-.3-.1-.4-.1-.1.1-.2.2-.2.3 0 .066.033.133.1.2 0 .133.033.233.1.3 0 .066.033.133.1.2.133.266.333.466.6.6.067 0 .067.033 0 .1-.067.266-.167.5-.3.7a3.31 3.31 0 0 1-.4.5c-.333.2-.667.3-1 .3a3.32 3.32 0 0 1-.8-.1 6.553 6.553 0 0 1-1.9-.7c-.267-.2-.5-.4-.7-.6a3.31 3.31 0 0 1-.4-.5 1.777 1.777 0 0 1-.2-.8c0-.334.066-.634.2-.9.4-1.2.9-2 1.2-2.9.067-.134.133-.3.2-.5h.1c.133.066.233.1.3.1.6.3 1 .6 1.5.9.933.4 1.9.766 2.9 1.1.067 0 .133.033.2.1Z" class="&lt;Path&gt;"/>
          </g>
          <g class="&lt;Group&gt;">
            <path fill="#EBEDEF" stroke="#050505" stroke-linecap="round" stroke-linejoin="round" stroke-width=".5" d="M18.508 102.094c-.2 0-2-.4-3.3-.8-1.1-.4-2.7-1.4-3.1-1.7-.3-.3.9-2.3 1.1-2.4.2 0 1.7 1 2.9 1.4 1.2.4 3.4.9 3.6 1.1.1.1-.7 2.4-1.2 2.4Z" class="&lt;Path&gt;"/>
            <path fill="#C5C5C7" d="m19.408 100.494-1.2-.2c-.6-.2-1.7-.5-1.8-.6-.3-.1-1.1-1.3-1.1-1.3l-2.1-1.2s-.8.9-.9 1.3c-.2.4-.3 1-.3 1l2.6 1.4s1.2-.5 1.5-.4l1.2.4c.7.1 1.9.3 1.9.3l.2-.7Z" class="&lt;Path&gt;"/>
            <path stroke="#3E3D4D" stroke-linecap="round" stroke-linejoin="round" stroke-width=".5" d="M18.508 102.094c-.2 0-2-.4-3.3-.8-1.1-.4-2.7-1.4-3.1-1.7-.3-.3.9-2.3 1.1-2.4.2 0 1.7 1 2.9 1.4 1.2.4 3.4.9 3.6 1.1.1.1-.7 2.4-1.2 2.4Z" class="&lt;Path&gt;"/>
            <path fill="#29BFD2" d="M14.708 99.494c-.1.2 0 .4.3.6.3.1.6.1.7-.1.1-.2 0-.5-.3-.6-.3-.2-.6-.1-.7.1Z" class="&lt;Path&gt;"/>
            <g class="&lt;Group&gt;">
              <path stroke="#A3A3AE" stroke-linecap="round" stroke-linejoin="round" stroke-width=".4" d="M14.308 99.494c.1 0 .2 0 .2-.1 0 0 0-.1-.1-.2 0 0-.1 0-.2.1 0 .1 0 .2.1.2Zm-.1-.5c-.134 0-.234.033-.3.1v.3m.2-.8c-.2.1-.3.2-.4.4-.134.2-.167.366-.1.5m.4-1.1c-.2 0-.5.2-.6.4a1.13 1.13 0 0 0-.1.8" class="&lt;Path&gt;"/>
            </g>
          </g>
        </g>
        <path fill="#BABAC6" stroke="#050505" stroke-linecap="round" stroke-linejoin="round" stroke-width=".5" d="M27.508 101.494c.2.1.7 1.1.7 1.4-.1.2-1.7 1-2.6 1.4-.9.4-2.5 1-2.6 1-.2 0-.6-1.1-.5-1.3 0-.1 1.5-.6 2.3-1 .9-.4 2.5-1.5 2.7-1.5Z" class="&lt;Path&gt;"/>
        <g class="&lt;Clip Group&gt;">
          <g class="&lt;Group&gt;">
            <path fill="#2E544D" d="M51.368 101.305c3.534-8 7.506-12.08 13.5-18.259 3.666-3.685 8.21-8.333 13.732-15.11a55.07 55.07 0 0 0 8.325-13.647 59.754 59.754 0 0 0 3.788-12.42c1.34-7.303.877-12.461.877-12.461-.053-.193-.175-.264-.394-.308-.097.026-.264.175-.212.368 0 0 .463 5.158-.902 12.365-1.207 6.645-4.34 16.506-11.902 25.7-5.549 6.68-10.093 11.327-13.731 15.109-6.091 6.206-10.064 10.284-13.642 18.504-4.089 9.393.561.159.561.159Z" class="&lt;Path&gt;"/>
            <path fill="#F79A1C" d="m84.156 6.141 29.312 42.107-8.219-37.66L84.156 6.14Z" class="&lt;Path&gt;"/>
            <path fill="#EC5D23" d="m80.902 27.43 32.566 20.818L84.156 6.141 80.902 27.43Z" class="&lt;Path&gt;"/>
            <path fill="#C04B27" d="M111.133 45.358c.081.047.178.02.289-.078.097-.026.141-.246.089-.439L86.816 9.462c-.149-.167-.272-.237-.439-.088-.193.052-.237.271-.088.438l24.721 35.476c.017.064.058.087.123.07Z" class="&lt;Path&gt;"/>
            <path fill="#C04B27" d="M82.966 26.25c.082.047.178.02.29-.078l20.35-14c.07-.123.115-.342.088-.438-.148-.167-.367-.212-.438-.089L82.809 25.671c-.07.123-.114.342.008.412.018.064.067.12.149.167Z" class="&lt;Path&gt;"/>
            <path fill="#5D9440" d="M80.902 27.43s1.692 4.722 2.846 6.689c0 0-1.915 1.347-4.123.079 0 0 .018-4.148 1.277-6.768Z" class="&lt;Path&gt;"/>
            <path fill="#7358A4" d="M80.902 27.43s-2.41 3.345-3.8 5.482c0 0-1.122-.318-2.268-1.873 0 0 3.206-2.317 6.068-3.61Z" class="&lt;Path&gt;"/>
            <path fill="#5D9440" d="M80.902 27.43s-3.905 1.264-6.606.854c0 0-.741-1.974.5-4.279 0 0 3.257 2.849 6.106 3.425Zm24.277-16.72s-.314-4.99-.818-7.237c0 0 2.071-.767 3.9 1.017 0 0-1.087 4.023-3.082 6.22Z" class="&lt;Path&gt;"/>
            <path fill="#7358A4" d="M105.179 10.71s3.25-2.536 5.157-4.295c0 0 1.007.66 1.696 2.442 0 0-3.686 1.308-6.853 1.854Z" class="&lt;Path&gt;"/>
            <path fill="#5D9440" d="M105.179 10.71s4.193-.201 6.69.988c0 0 .136 2.035-1.648 3.864 0 0-2.422-3.592-5.042-4.851Zm8.193 37.565s4.852-1.21 6.994-2.1c0 0 1.154 1.967-.359 4.034 0 0-4.034-.36-6.635-1.934Z" class="&lt;Path&gt;"/>
            <path fill="#7358A4" d="M113.372 48.274s3.108 2.682 5.201 4.291c0 0-.441 1.052-2.145 2.03 0 0-1.957-3.407-3.056-6.32Z" class="&lt;Path&gt;"/>
            <path fill="#5D9440" d="M113.372 48.275s.974 3.983.249 6.666c0 0-2.027.548-4.19-.939 0 0 3.12-3.02 3.941-5.727Z" class="&lt;Path&gt;"/>
          </g>
        </g>
        <g class="Clip path group">
          <mask id="c" width="14" height="14" x="40" y="97" class="c" maskUnits="userSpaceOnUse" style="mask-type:luminance">
            <g class="cp58">
              <path fill="#fff" d="M52.424 97.757s.031.228.693.548c.124.06-3.221 12.29-3.221 12.29l-1.545-2.246-.35.864c-.03.076-.112.116-.185.078l-.265-.144c-.073-.043-.1-.11-.082-.202l.26-1.022-6.828-4.289 11.523-5.877Z" class="Vector"/>
            </g>
          </mask>
          <g class="&lt;Clip Group&gt;" mask="url(#c)">
            <path fill="#2E544D" d="M41.392 142.877c-.038.055-.032.1.018.134.018.134.168.237.356.123.132-.031.17-.247.151-.381 0 0-.764-2.099-1.018-5.425-.218-3.058-.056-7.795 2.248-13.247 1.058-2.67 2.06-5.741 3.025-9.079 3.085-10.129 6.53-21.588 16.24-24.997 7.965-2.787 13.275-2.665 21.307-2.497 4.841.165 10.903.316 19.105-.247a52.44 52.44 0 0 0 14.908-3.122c3.945-1.419 7.759-3.291 11.387-5.534 6.184-3.885 9.74-7.63 9.74-7.63.113-.166.095-.3.002-.485a.305.305 0 0 0-.395.094s-3.556 3.746-9.684 7.548c-5.62 3.545-14.732 7.848-25.9 8.562-8.146.481-14.208.33-19.105.248-8.107-.22-13.418-.342-21.57 2.56-4.47 1.543-8.025 4.805-10.948 10.197-2.413 4.649-4.06 9.946-5.65 15.16-.908 3.256-1.91 6.327-2.968 8.996-2.36 5.535-2.56 10.489-2.324 13.68.199 2.924.87 4.838 1.075 5.342Z" class="&lt;Path&gt;"/>
          </g>
        </g>
      </g>
      <g class="&lt;Group&gt;">
        <path fill="#050505" d="M16.93 118.2c0 1.6 7.6 2.8 17.1 2.8 9.5 0 17.1-1.2 17.1-2.8 0-1.6-7.6-2.9-17.1-2.9-9.5 0-17.1 1.3-17.1 2.9Z" class="&lt;Path&gt;" opacity=".3"/>
      </g>
    </g>
  </g>
</svg>
