<svg xmlns="http://www.w3.org/2000/svg" width="77" height="44" fill="none" viewBox="0 0 77 44">
  <path fill="#7358A4" d="m60.056 14.4-54.2 7-.7-4.6 54.2-6.9.7 4.5Z"/>
  <path fill="#FEFEFE" fill-rule="evenodd" d="m14.856 22-2.8.4-1.6-1.8h-.2l-.1 2-2.3.3.1-8 3.2-.4h.6c.5 0 .8.1 1.3.3.5.3.8.6 1 1.2.133.333.2.7.2 1.1 0 1.133-.434 2-1.3 2.6l1.9 2.3Zm-4.7-5.1v1.5l.9-.1c.467-.067.7-.333.7-.8 0-.5-.3-.8-.7-.7l-.9.1Z" clip-rule="evenodd"/>
  <path fill="#FEFEFE" d="M17.956 15.9v.7l3.1-.4v2.1l-3.1.4v.7l3.3-.5v2.3l-5.7.7.1-8 5.7-.7v2.2l-3.4.5Zm5.7 2c.6.533 1.233.767 1.9.7.4-.067.6-.234.6-.5 0-.134-.1-.234-.3-.3-.267-.067-.6-.134-1-.2a19.41 19.41 0 0 0-1.1-.4c-.334-.134-.634-.367-.9-.7a1.72 1.72 0 0 1-.4-1.1c0-.533.2-1.067.6-1.6.4-.6 1.2-1.1 2.4-1.3.8-.1 1.6.1 2 .3.5.3.9.6 1 .8l.2.2-1.6 1.5c-.334-.334-.6-.534-.8-.6-.2-.067-.467-.067-.8 0-.4 0-.6.2-.6.4s.4.4 1 .5c.266 0 .566.066.9.2.333.133.633.266.9.4.266.133.5.333.7.6.133.333.2.7.2 1.1 0 .5-.2 1-.6 1.6-.5.7-1.4 1.1-2.5 1.3-.933.133-1.667.033-2.2-.3-.6-.334-1-.733-1.2-1.2l1.6-1.4Z"/>
  <path fill="#FEFEFE" fill-rule="evenodd" d="m29.656 12.1 3.2-.4c.1 0 .2-.1.6 0 .4 0 .8.1 1.3.3.5.2.8.6 1 1.2.133.334.2.7.2 1.1 0 .8-.3 1.5-.6 1.9-.2.267-.434.5-.7.7-.6.5-1.3.7-1.7.7l-.2.1-.8.1-.1 2-2.3.3.1-8Zm3.2 1.8-.9.1v1.5l.9-.1c.466-.066.666-.333.6-.8.1-.5-.2-.7-.6-.7Z" clip-rule="evenodd"/>
  <path fill="#FEFEFE" d="M39.056 13.1v.8l3-.4v2l-3.1.4v.7l3.4-.4v2.2l-5.7.8v-8l5.7-.8v2.3l-3.3.4Zm6.2-.8-2.1.3v-2.3l6.7-.8v2.2l-2.2.3-.1 5.7-2.3.4v-5.8Z"/>
  <path fill="#FEFEFE" fill-rule="evenodd" d="M54.256 8.8c1.133-.2 2.1.067 2.9.8.8.667 1.2 1.6 1.2 2.8-.067 1.134-.5 2.167-1.3 3.1-.8.867-1.767 1.367-2.9 1.5-1.2.2-2.167-.067-2.9-.8-.8-.667-1.2-1.6-1.2-2.8 0-1.133.4-2.167 1.2-3.1.8-.867 1.8-1.367 3-1.5Zm-.1 6c.466-.067.867-.3 1.2-.7.333-.4.5-.867.5-1.4 0-.533-.167-.966-.5-1.3a1.344 1.344 0 0 0-1.2-.4c-.467.067-.867.3-1.2.7-.334.4-.5.867-.5 1.4 0 .534.166.967.5 1.3a1.34 1.34 0 0 0 1.2.4Z" clip-rule="evenodd"/>
  <path fill="#7358A4" d="m68.656 35.3-60.2 8.3-.7-4.6 60.2-8.3.7 4.6Z"/>
  <path fill="#FEFEFE" d="M18.656 39.8a4.762 4.762 0 0 1-1.5 2.7 4.277 4.277 0 0 1-2.7 1.4c-1.133.133-2.1-.167-2.9-.9-.8-.667-1.2-1.567-1.2-2.7 0-1.2.4-2.233 1.2-3.1.8-.933 1.8-1.467 3-1.6 1-.133 1.9.067 2.7.6a3.96 3.96 0 0 1 1.4 2.3l-2.5.4a1.6 1.6 0 0 0-.7-.9 1.984 1.984 0 0 0-.9-.2c-.467.067-.867.3-1.2.7-.333.467-.5.934-.5 1.4 0 .534.133.967.4 1.3.333.333.733.467 1.2.4.4-.067.733-.233 1-.5s.466-.6.6-1l2.6-.3Zm4 3h-.6c-.5 0-.9-.1-1.4-.4-.5-.2-.8-.6-1.1-1.3-.134-.334-.2-.733-.2-1.2l.1-4.8 2.3-.3v4.9s0 .1.1.3c0 .133.033.233.1.3.2.1.4.3.8.2.266 0 .466-.1.6-.3.2-.2.3-.367.3-.5v-.3l.1-4.9 2.3-.3v4.9c0 .9-.3 1.7-.7 2.2l-.6.6c-.8.6-1.5.8-1.9.9h-.2Zm7-9.1-.1 5.8 3.3-.4v2.2l-5.7.8.1-8.1 2.4-.3Zm4.5 1.7-2.1.3v-2.3l6.7-.8v2.2l-2.2.3-.1 5.7-2.3.3v-5.7Zm8.7 4.8h-.7c-.4 0-.8-.1-1.3-.4-.6-.2-.9-.6-1.1-1.3-.134-.333-.2-.733-.2-1.2v-4.9l2.4-.3-.1 4.9c0 .1 0 .2.1.4 0 .067.066.167.2.3.1.1.3.3.7.2.267 0 .466-.1.6-.3.2-.2.3-.4.3-.6l.1-.2v-4.9l2.4-.3-.1 4.8c0 .9-.3 1.7-.7 2.2-.2.267-.4.5-.6.7-.7.6-1.5.8-1.9.8l-.1.1Z"/>
  <path fill="#FEFEFE" fill-rule="evenodd" d="m54.356 38.5-2.8.4-1.7-1.8h-.2v2l-2.3.3v-8l3.3-.4h.6c.4 0 .8.1 1.3.3.4.3.8.6 1 1.2.133.333.2.7.2 1.1 0 1.133-.467 2-1.4 2.6l2 2.3Zm-4.6-5.1v1.5l.9-.1c.4-.067.6-.333.6-.8 0-.5-.2-.8-.6-.7l-.9.1Zm10.3-3.6 2.8 7.6-2.6.3-.2-.8-2.6.4-.2.8-2.6.4 3-8.4 2.4-.3Zm-1.8 5.1 1.1-.1-.5-1.6-.6 1.7Z" clip-rule="evenodd"/>
  <path fill="#FEFEFE" d="m66.056 29-.1 5.7 3.3-.4v2.3l-5.7.7.1-8 2.4-.3Z"/>
  <path fill="#7358A4" d="m76.156 25-75.2 7.9-.7-4.6 75.2-7.9.7 4.6Z"/>
  <path fill="#FEFEFE" fill-rule="evenodd" d="m2.856 34.2.1-8 3.1-.4c1.2-.133 2.133.133 2.8.8.733.667 1.1 1.567 1.1 2.7a4.508 4.508 0 0 1-1.1 3c-.733.867-1.7 1.367-2.9 1.5l-3.1.4Zm2.4-6.1v3.5l.8-.1c.466-.067.833-.267 1.1-.6.266-.4.4-.833.4-1.3 0-.467-.134-.867-.4-1.2-.267-.333-.6-.467-1-.4l-.9.1Z" clip-rule="evenodd"/>
  <path fill="#FEFEFE" d="M10.956 33.2v-8l2.4-.4-.1 8-2.3.4Zm8.3-1.1-2.4.3-2.8-7.6 2.5-.4 1.5 4.6 1.6-5 2.6-.3-3 8.4Zm6-6.6-.1.8 3.1-.4V28l-3.1.4v.6l3.4-.4v2.3l-5.7.7v-8l5.7-.7v2.2l-3.3.4Z"/>
  <path fill="#FEFEFE" fill-rule="evenodd" d="m36.656 29.8-2.9.4-1.6-1.8h-.2v2l-2.4.3.1-8 3.3-.4h.6c.4 0 .8.1 1.2.3.5.3.9.6 1.1 1.2.133.334.2.7.2 1.1-.067 1.134-.534 2-1.4 2.6l2 2.3Zm-4.6-5.1v1.5l.9-.1c.4-.066.6-.333.6-.8 0-.5-.2-.8-.6-.7l-.9.1Z" clip-rule="evenodd"/>
  <path fill="#FEFEFE" d="M38.356 26.6c.6.533 1.2.767 1.8.7.466-.067.7-.233.7-.5 0-.133-.134-.233-.4-.3-.2-.067-.5-.133-.9-.2-.4-.133-.767-.267-1.1-.4-.4-.133-.7-.367-.9-.7-.267-.267-.4-.633-.4-1.1 0-.533.2-1.067.6-1.6.4-.6 1.2-1.1 2.3-1.3.9-.1 1.7.1 2.1.3.5.3.9.6 1 .8l.1.2-1.5 1.5c-.334-.333-.6-.533-.8-.6-.2-.066-.467-.066-.8 0-.4.1-.6.2-.6.4s.4.4 1 .5c.267.067.567.133.9.2.266.133.566.267.9.4.267.134.466.333.6.6.2.333.3.7.3 1.1 0 .5-.2 1.1-.7 1.7-.4.6-1.3 1.1-2.4 1.2-.934.133-1.7.033-2.3-.3-.534-.333-.9-.733-1.1-1.2l1.6-1.4Zm5.9 2.2.1-8 2.3-.3-.1 8-2.3.3Z"/>
  <path fill="#FEFEFE" fill-rule="evenodd" d="M47.856 28.3v-8l3.2-.4c1.133-.133 2.067.133 2.8.8.733.666 1.1 1.567 1.1 2.7 0 1.2-.367 2.2-1.1 3-.8.867-1.767 1.367-2.9 1.5l-3.1.4Zm2.4-6v3.5l.8-.1c.467-.067.833-.3 1.1-.7.266-.333.4-.767.4-1.3 0-.467-.134-.867-.4-1.2-.267-.267-.633-.367-1.1-.3l-.8.1Zm10-3.6 2.8 7.6-2.5.4-.3-.8-2.5.3-.3.9-2.6.3 3-8.4 2.4-.3Zm-1.8 5.2 1.1-.1-.5-1.7-.6 1.8Zm5.4 2.4v-8.1l3.2-.4c1.133-.133 2.067.133 2.8.8.733.667 1.1 1.567 1.1 2.7 0 1.2-.4 2.2-1.2 3a4.183 4.183 0 0 1-2.8 1.5l-3.1.5Zm2.4-6-.1 3.5.9-.1c.4-.067.733-.3 1-.7.267-.334.433-.767.5-1.3 0-.467-.134-.867-.4-1.2-.267-.267-.634-.367-1.1-.3l-.8.1Zm-28.4-18.2c.9-.1 2-.2 1.9 2.8-.1 2.8-1 3.1-2.4 3.3l-.5.1.1-6.1.9-.1Zm-.1.7-.1 4.7c1.3-.1 1.3-1.4 1.3-2.4s.1-2.6-1.2-2.3Z" clip-rule="evenodd"/>
  <path fill="#FEFEFE" d="m41.056 7.7-.8.1.2-6.1.8-.1-.2 6.1Zm-.4-6.3-.4-.1.7-1.3.5.2-.8 1.2Z"/>
  <path fill="#FEFEFE" fill-rule="evenodd" d="m43.456 1.3 1.1 5.9-.8.1-.2-1.1-1.1.1-.3 1.2-.8.1 1.5-6.2.6-.1Zm-.1 3.4-.3-2.2-.5 3.2.9-.2-.1-.8Zm4-3.9c.9-.2 2-.2 1.9 2.8 0 2.8-1 3.1-2.4 3.3l-.5.1.1-6.1.9-.1Zm-.1.7-.1 4.7c1.3-.1 1.3-1.4 1.3-2.4s.1-2.6-1.2-2.3Z" clip-rule="evenodd"/>
  <path fill="#FEFEFE" d="M52.056.1v.7l-1.3.2-.1 1.9 1.2-.2v.7l-1.2.2v2.1l1.3-.2v.7l-2.1.3.1-6.1 2.1-.3Zm1.2-.1-.1 5.3 1.3-.2v.7l-2.1.3.1-6 .8-.1Z"/>
  <path fill="#FEFEFE" fill-rule="evenodd" d="m63.156 8.9 1.1 5.9-.8.1-.2-1.1-1.1.2-.3 1.2-.8.1 1.4-6.3.7-.1Zm0 3.4-.3-2.2v.1l-.5 3.1.9-.1-.1-.9Z" clip-rule="evenodd"/>
  <path fill="#FEFEFE" d="m66.956 8.4-.1 5.4 1.3-.2v.7l-2.1.3.1-6.1.8-.1Z"/>
  <path fill="#FEFEFE" fill-rule="evenodd" d="m70.056 8 1.1 5.9-.8.1-.2-1.2-1.1.2-.3 1.2-.8.1 1.4-6.2.7-.1Zm0 3.4-.3-2.2-.5 3.1.9-.1-.1-.8Z" clip-rule="evenodd"/>
</svg>
