<svg xmlns="http://www.w3.org/2000/svg" width="108" height="77" fill="none" viewBox="0 0 108 77">
  <path fill="#1C1C1A" d="M45.075 70.622c-.084 1.81-6.666 3.095-14.625 2.846-8.043-.364-14.467-1.99-14.367-3.898.084-1.809 6.552-3.011 14.61-2.746 7.959.249 14.368 1.973 14.382 3.798Z" opacity=".2"/>
  <path fill="#2B2011" stroke="#050505" stroke-linecap="round" stroke-linejoin="round" stroke-width=".4" d="M38.708 43.086s3.528 3.293 7.592 5.76c4.526 2.742 5.378 4.396 4.213 4.717-1.903.508-4.783.153-4.783.153s1.22 2.523 1.818 3.225c.597.702-.75.893-2.215.56-1.466-.334-2.324-.672-2.324-.672s.96 2.886.404 3.202c-.572.416-3.084.93-6.213.23-3.145-.6 1.508-17.175 1.508-17.175Z"/>
  <path fill="#B76B29" stroke="#050505" stroke-linecap="round" stroke-linejoin="round" stroke-width=".4" d="m30.46 64.457.964 5.418 6.805-.136.139-5.345c.042-.904.054-3.535-4.251-3.204-3.68.226-3.63 2.462-3.657 3.267Z"/>
  <path fill="#0B0C0E" d="M38.18 63.657c.26 1.56-.148 6.05-.148 6.05l-1.627.047.03-8.5c.182.13 1.284.203 1.746 2.403Z" opacity=".3"/>
  <path fill="#BC7C54" stroke="#050505" stroke-linecap="round" stroke-linejoin="round" stroke-width=".4" d="M37.751 69.562s-1.997 1.101-.448 1.55l-5.542-.17.043-.905c.114-.083.608-.005 3.155-.107 2.844-.056 2.808-.466 2.792-.368Z"/>
  <path fill="#BC7C54" d="M34.574 71.084s3.732.085 4.226.163c.41-.036.837-.17.702-.597-.051-.312-.337-1.066-2.032-1.233-.395-.063-1.512-.038-2.048.789"/>
  <path stroke="#050505" stroke-linecap="round" stroke-linejoin="round" stroke-width=".4" d="M34.574 71.084s3.732.085 4.226.163c.41-.036.837-.17.702-.597-.051-.312-.337-1.066-2.032-1.233-.395-.063-1.512-.038-2.048.789"/>
  <path fill="#B76B29" stroke="#050505" stroke-linecap="round" stroke-linejoin="round" stroke-width=".4" d="m30.855 64.52-1.24 5.272-6.795-.571.238-5.329c.042-.904.152-3.52 4.415-2.945 3.67.48 3.523 2.685 3.382 3.574Z"/>
  <path fill="#0B0C0E" d="M23.282 63.118c-.35 1.565-.248 6.036-.248 6.036l1.595.151.624-8.406c-.213.068-1.43.077-1.971 2.219Z" opacity=".3"/>
  <path fill="#BC7C54" stroke="#050505" stroke-linecap="round" stroke-linejoin="round" stroke-width=".4" d="M23.346 69.101s1.933 1.218.357 1.576l5.443.154.043-.905c-.1-.015-.593-.094-3.192-.303-2.797-.241-2.735-.636-2.651-.522Z"/>
  <path fill="#BC7C54" d="M26.417 70.803s-3.717-.184-4.227-.163c-.395-.063-.774-.225-.711-.62.145-.28.468-1.04 2.194-1.07.41-.035 1.513.038 1.98.922"/>
  <path stroke="#050505" stroke-linecap="round" stroke-linejoin="round" stroke-width=".4" d="M26.417 70.803s-3.717-.184-4.227-.163c-.395-.063-.774-.225-.711-.62.145-.28.468-1.04 2.194-1.07.41-.035 1.513.038 1.98.922"/>
  <path fill="#BC7C54" stroke="#050505" stroke-linecap="round" stroke-width=".4" d="M45.983 56.592c.655-.302 1.981-1.003 3.135-.617 1.17.286 1.819 1.3 1.829 2.517.077 1.43-1.006 3.79-1.796 3.664-.28-.146-.691-.11-1.217.01-.41.036-1.247.207-1.46.274-.723.088-2.205-.146-2.235-1.872-.05-2.236 1.744-3.976 1.744-3.976Z"/>
  <path fill="#BC7C54" d="m46.758 56.815.764-.992c.36-.349.885-.468 1.134-.125.265.245.202.64.155.936-.161.38-.39.546-.39.546"/>
  <path stroke="#050505" stroke-linecap="round" stroke-width=".4" d="m46.758 56.815.764-.992c.36-.349.885-.468 1.134-.125.265.245.202.64.155.936-.161.38-.39.546-.39.546"/>
  <path fill="#050505" d="M48.473 57.492s.41-.036.842.438c.545.39.492 2.002.529 2.412-.063.395-.433 1.45-.63 1.42-.182-.131-1.347.19-1.544.16-.297-.048.162-2.304.105-3.224.043-.904.698-1.206.698-1.206Zm-1.263-1.618s-1.165 2.245-.673 4.247c.493 2.002.857 2.262.857 2.262s-1.57.966-2.5-.194c-.832-1.144-1.002-3.904.044-4.751a69.041 69.041 0 0 1 2.273-1.564Z" opacity=".2" style="mix-blend-mode:multiply"/>
  <path fill="#F3F4F5" stroke="#050505" stroke-linecap="round" stroke-linejoin="round" stroke-width=".4" d="M47.659 62.628c-1.445.176-.099-.016-1.659.243-2.807.466-4.85-.06-4.85-.06-1.778-.282-2.973-1.686-2.707-3.365l.079-.494c.12-1.398 1.244-2.739 3.432-2.493 0 0 1.154.385 3.041-.025 1.347-.191 1.643-.144 1.643-.144l1.02 6.338Z"/>
  <path fill="#0B0C0E" d="M47.659 62.627c-1.446.176-.099-.015-1.659.244-2.807.466-4.85-.06-4.85-.06-1.778-.282-2.973-1.686-2.707-3.365l.079-.494c-.045-.142-.02-.307.078-.494.166.229.282.349.348.359 0 0 .659 2.23 4.012 2.155 2.22.048 2.646-.087 4.336-.528l.363 2.183Z" opacity=".3"/>
  <path fill="#F3F4F5" stroke="#050505" stroke-linecap="round" stroke-linejoin="round" stroke-width=".4" d="M31.88 54.863c4.361.59 5.796 1.121 6.85 1.49 1.352.417 2.844 1.869 2.624 3.252-.219 1.382-.042.904.279 3.993.336 2.989.762 2.854.668 3.447-.744 1.501-6.66 1.779-8.584 1.778-5.375.059-7.72-1.122-11.452-1.208-2.813-.142-3.275-.418-3.524-.761-.831-1.144 3.76-10.946 3.76-10.946s.374-.447 1.44-.785c1.82-.622 6.161-.542 7.939-.26Z"/>
  <path stroke="#050505" stroke-linecap="round" stroke-linejoin="round" stroke-width=".4" d="M27.69 63.412c-.313 1.976-1.67 2.874-3.168 2.738-1.513-.037-2.573-1.015-2.374-2.907l.329-2.075 5.542.17-.33 2.074Z"/>
  <path fill="#E52B2D" d="m27.945 62.44-5.64-.185Z"/>
  <path stroke="#050505" stroke-width=".4" d="m27.945 62.44-5.64-.185"/>
  <path fill="#050505" d="M32.878 64.537c-.047.297.218.541.514.588.296.047.54-.218.588-.514.062-.395-.104-.624-.515-.588-.296-.047-.54.218-.587.514Zm.117 2.45c-.062.395.203.64.515.588.296.046.64-.203.588-.515.047-.296-.12-.525-.416-.572-.296-.047-.64.202-.687.499Z"/>
  <path fill="#FEFEFE" d="M34.486 62.06s-.235 1.48.215 4.387c.336 2.99.186 2.662.186 2.662"/>
  <path stroke="#050505" stroke-linecap="round" stroke-linejoin="round" stroke-width=".4" d="M34.486 62.06s-.235 1.48.215 4.387c.336 2.99.186 2.662.186 2.662"/>
  <path fill="#F29137" stroke="#050505" stroke-linecap="round" stroke-linejoin="round" stroke-width=".4" d="m34.261 62.834.427-.135 1.182-4.268s.668-2.931-3.84-3.24c-3.997-.33-1.998 3.024-.424 4.59 1.06.977 2.655 3.053 2.655 3.053Z"/>
  <mask id="a" width="7" height="9" x="36" y="59" maskUnits="userSpaceOnUse" style="mask-type:luminance">
    <path fill="#fff" d="m41.183 59.344 1.113 7.476-4.371.37-1.069-6.608 4.327-1.238Z"/>
  </mask>
  <g mask="url(#a)">
    <path stroke="#050505" stroke-linecap="round" stroke-linejoin="round" stroke-width=".4" d="M45.507 62.793c.113 1.84-1.078 2.968-2.54 3.243-1.56.259-2.864-.454-2.977-2.295l-.18-2.053 5.516-.949.18 2.054Z"/>
    <path fill="#E52B2D" d="m45.58 61.69-5.73 1.016Z"/>
    <path stroke="#050505" stroke-width=".4" d="m45.58 61.69-5.73 1.016"/>
  </g>
  <path fill="#DCDEDD" d="M21.873 61.781s-.463 1.648-.568 2.947l-.438 2.766s-1.856.212-1.95-1.12c-.092-1.33 1.075-5.499 1.075-5.499s1.258 1.01 1.881.906Zm12.403 2.877c.005.608-.28-.146-.53-.489-.25-.343-.285-.754-.285-.754s-2.64-1.228-3.514-1.468l.39-.546s-1.845-.495-2.141-.541c-.38-.162.881-4.923 1.22-5.78 0 0 .15 2.25 1.063 3.509.915 1.259 3.066 3.017 3.383 3.574.4.67.389 1.378.414 2.495Z" style="mix-blend-mode:multiply"/>
  <path fill="#F3F4F5" d="M29.254 55.459c-.152 1.596-.206 5.131-.206 5.131l3.358.532-.733.795 2.723 1.343.094-.592s-1.464-2.258-2.093-2.762c-.629-.505-2.603-2.741-2.389-4.732"/>
  <path stroke="#050505" stroke-linecap="round" stroke-linejoin="round" stroke-width=".4" d="M29.254 55.459c-.152 1.596-.206 5.131-.206 5.131l3.358.532-.733.795 2.723 1.343.094-.592s-1.464-2.258-2.093-2.762c-.629-.505-2.603-2.741-2.389-4.732"/>
  <path fill="#DCDEDD" d="M36.2 56.357s2.223 2.58 2.653 4.977l-1.544.16s.66.307.628.505c-.114.083-2.095 1.085-2.439 1.334-.343.25-.203 1.284-.5 1.237-.197-.031.189-1.185-.108-1.232-.296-.047.417-1.352.417-1.352s1.576-2.28 1.14-3.362c-.42-1.18-.248-2.267-.248-2.267Z" style="mix-blend-mode:multiply"/>
  <path fill="#F3F4F5" d="M35.981 55.816c1.164 1.602 2.144 4.997 2.144 4.997l-1.84.114.514.587-2.32 1.86.043-.904s.905-1.882 1.197-2.443c.208-.676.24-2.797-.46-4.123"/>
  <path stroke="#050505" stroke-linecap="round" stroke-linejoin="round" stroke-width=".4" d="M35.981 55.816c1.164 1.602 2.144 4.997 2.144 4.997l-1.84.114.514.587-2.32 1.86.043-.904s.905-1.882 1.197-2.443c.208-.676.24-2.797-.46-4.123"/>
  <path fill="#DCDEDD" d="M34.573 62.782s.228 1.757.467 2.808c.238 1.05.34 3.597.34 3.597l-.462-.276s-.202-.64-.331-2.38c-.114-1.841-.014-3.75-.014-3.75Zm7.162 3.362s-2.022-.017-2.369-2.299c-.248-2.267.246-2.188.246-2.188s.051.312.191 1.346c.14 1.035.082 2.038 1.932 3.141Zm-13.633-4.692-.141.89-4.471.1s3.192.304 3.587.367c.28.145.077 1.43-.246 2.188 0 0-1.14 1.44-2.439 1.335-1.315-.006-2.442-1.198-2.442-1.198s.472 1.493 2.364 1.692c1.876.297 3.593-.95 4.005-2.91 0 0-.276.463-.505.63-.244.264.75-2.818.288-3.094Z" style="mix-blend-mode:multiply"/>
  <path fill="#BC7C54" stroke="#050505" stroke-linecap="round" stroke-linejoin="round" stroke-width=".4" d="M18.613 63.188c-.276.462-1.072 1.652-.652 2.833.223 1.149 1.216 1.914 2.401 2.102 1.497.135 2.86-.155 3.364-.783.406-.645-.01-1.217.053-1.612-.02-.51.188-1.185.22-1.383.109-.691-.94-2.376-2.718-2.658-2.173-.344-2.668 1.501-2.668 1.501Z"/>
  <path fill="#BC7C54" d="m22.797 64.256 1.944.51c.38.162.63.505.468.884-.162.38-.588.515-.785.484-.411.036-1.004-.058-1.004-.058"/>
  <path stroke="#050505" stroke-linecap="round" stroke-linejoin="round" stroke-width=".4" d="m22.797 64.256 1.944.51c.38.162.63.505.468.884-.162.38-.588.515-.785.484-.411.036-1.004-.058-1.004-.058"/>
  <path fill="#050505" d="M17.848 64.18s1.95-.804 3.863-.096c1.913.708 2.245 1.166 2.245 1.166s.843-1.486-.316-2.48c-1.158-.994-3.43-1.354-4.18-.46a49.783 49.783 0 0 0-1.612 1.87Z" opacity=".2" style="mix-blend-mode:multiply"/>
  <path fill="#F3F4F5" stroke="#050505" stroke-linecap="round" stroke-linejoin="round" stroke-width=".4" d="M18.17 63.422c.319-1.367 0 0 .366-1.664.537-2.75 1.723-4.485 1.723-4.485.859-1.585 2.679-2.208 4.067-1.38l.478.176c1.205.698 2.073 2.253 1.053 4.217 0 0-.65.91-1.063 2.87-.203 1.283-.349 1.564-.349 1.564l-6.274-1.298Z"/>
  <path fill="#0B0C0E" d="M18.17 63.422c.319-1.367 0 0 .366-1.664.537-2.75 1.723-4.485 1.723-4.485.859-1.585 2.679-2.208 4.067-1.38l.478.176.363.26-.442.234s-2.22-.048-3.412 3.003c-.74 2.11-.818 2.604-.985 4.299l-2.157-.443Z" opacity=".3"/>
  <path fill="#2B2011" stroke="#050505" stroke-linecap="round" stroke-linejoin="round" stroke-width=".4" d="M14.295 41.241s-6.422 2.83-7.485 7.623c-.105 1.3 2.75.537 2.75.537s-1.297 4.35-.317 7.746c.353.967 2.63.011 2.63.011s.758 2.247 2.957 3.71c2.296 1.477 6.041-1.068 6.041-1.068l2.269-20.7-8.845 2.141Z"/>
  <path fill="#A27448" d="M14.09 46.372c-.343 8.552 2.491 15.582 14.749 16.816 7.766.826 13.843-6.21 14.139-14.465.394-8.24-6.713-15.137-14.574-15.37-7.943-.348-14.034 4.862-14.314 13.019Z"/>
  <path fill="#C68C56" d="M15.976 47.886c-.25 7.96 1.79 14.256 13.269 14.658 7.45.27 13.796-5.913 14.029-13.773.233-7.86-4.975-9.496-12.425-9.766-7.548-.285-14.64 1.02-14.873 8.881Z"/>
  <path fill="#BC7C54" stroke="#050505" stroke-width=".4" d="M13.67 45.192c-.313 8.354.348 16.964 15.086 17.882 20.082 1.057 14.202-6.558 14.498-14.813.296-8.256-7.384-14.738-15.245-14.971-7.959-.25-14.044 3.646-14.34 11.902Z"/>
  <path fill="#DCDEDD" d="M30.447 42.181c.468.885-3.744 2.546-3.744 2.546s-2.711 4.329-2.656 7.173c0 0-2.496.414-2.424 3.159.133 2.35-.03 6.576 5.34 7.832-13.033-1.458-13.543-9.74-13.294-17.699.022-1.414.23-2.73.626-3.95 10.918.11 15.685.055 16.152.94Z" style="mix-blend-mode:multiply"/>
  <path fill="#2B2011" d="M12.942 44.671c5.173-.699 12.305.938 12.305.938s-2.535 3.85-3.17 6.585c0 0-.842-.437-1.341-1.124-.597-.702-1.13 2.656-1.178 4.876-.131 2.105-1.44.784-1.44.784s-1.591.457-1.676 2.266c0 0-.24.873-2.624-1.327-2.4-2.102-2.119-3.88-2.119-3.88"/>
  <path stroke="#050505" stroke-linecap="round" stroke-linejoin="round" stroke-width=".4" d="M12.942 44.671c5.173-.699 12.305.938 12.305.938s-2.535 3.85-3.17 6.585c0 0-.842-.437-1.341-1.124-.597-.702-1.13 2.656-1.178 4.876-.131 2.105-1.44.784-1.44.784s-1.591.457-1.676 2.266c0 0-.24.873-2.624-1.327-2.4-2.102-2.119-3.88-2.119-3.88"/>
  <path fill="#DCDEDD" d="M22.522 46.19s-1.514 1.886-1.837 2.645c-.224.774-1.381-2.143-1.787-1.498-.406.644-2.379 4.786-3.071 6.6-.709 1.913-2.402-.178-2.775-1.655-.473-1.492.646-3.44-.009-3.14-.77.385-2.241 1.366-2.241 1.366s1.582-3.596 3.787-5.373c2.206-1.777 7.933 1.055 7.933 1.055Z" style="mix-blend-mode:multiply"/>
  <path fill="#FCC917" stroke="#050505" stroke-linecap="round" stroke-linejoin="round" stroke-width=".4" d="M43.717 46.613s.617-5.167-.21-5.703c0 0-6.493.085-10.834.004-7.777-.119-16.329-.462-18.372-.988-.577-.193-.717.696-.766 2.916-.048 2.22.305 3.187.305 3.187s11.188.963 20.098.958c4.95.076 9.78-.374 9.78-.374Z"/>
  <path fill="#A51E22" d="M41.645 42.438c.39-.546 1.014-.65 1.347-.192.415.572.7 1.326.638 1.721-.062.395-.37 1.055-.645 1.518-.375.447-.952.254-1.367-.318l-.084-.114c-.4-.671-.44-1.69-.05-2.236l.161-.38Zm-9.846.16c.406-.644 1.113-.633 1.528-.061l.333.457c.415.572.357 1.576-.033 2.122l-.26.363c-.39.546-1.097.535-1.513-.037l-.348-.36c-.416-.571-.358-1.574.033-2.12l.26-.364Z"/>
  <path fill="#0B0C0E" d="M13.84 46.03s-.353-.968-.305-3.188c.048-2.22.19-3.108.766-2.916.775.224 2.47.392 4.674.538-.039 3.437 1.172 4.742 4.561 5.077 3.374.434 15.44.321 18.201.151 1.232-.108 1.82-.623 2.111-1.184-.073 1.102-.13 2.106-.13 2.106s-4.83.449-9.78.373c-8.91.005-20.098-.958-20.098-.958Z" opacity=".3"/>
  <path stroke="#2D1114" stroke-dasharray=".4 .4" stroke-linecap="round" stroke-linejoin="bevel" stroke-width=".4" d="m41.674 46.088-3.028-4.53-2.165 4.719-3.163-4.956M31.516 46.3l-3.096-4.744-2.165 4.72-2.966-4.926-2.924 4.397-2.883-4.81-3.106 4.266"/>
  <path fill="#FFE4AE" d="M36.754 41.358c.707.011 1.04.469.831 1.145l-.599 1.22c-.29.562-.816.681-1.232.11l-.898-1.358c-.4-.67-.124-1.133.583-1.123l1.315.006ZM24.15 46.145c.706.01.982-.452.567-1.024l-.634-1.113c-.416-.573-1.024-.568-1.43.077l-.52.727c-.307.66-.09 1.201.618 1.212l1.398.12Z"/>
  <path fill="#2B2011" d="M12.191 47.49c1.057-1.555 5.967-6.345 5.967-6.345s-1.338 3.331-.683 3.03c.64-.202 10.935-3.835 9.614-2.526-1.238 1.424-1.302 3.743-1.302 3.743 2.237-1.975 5.58-3.267 7.4-3.89.968-.353 3.893 1.63 3.893 1.63 1.15-.223.132-2.106 1.15-2.147 7.33-.255 11.556 1.832 11.14 1.26-1.336-6.895-9.45-10.003-9.45-10.003l1.807-4.371c-6.233-.28-14.891 2.6-14.891 2.6s1.411-4.433.392-4.392c-.41.036-3.561.752-6.885 4.477-1.531-4.393-5.043.517-7.89 6.343-5.3 1.49-8.15 4.783-7.579 6.291.353.968 5.41 2.276 5.41 2.276"/>
  <path stroke="#050505" stroke-linecap="round" stroke-linejoin="round" stroke-width=".4" d="M12.191 47.49c1.057-1.555 5.967-6.345 5.967-6.345s-1.338 3.331-.683 3.03c.64-.202 10.935-3.835 9.614-2.526-1.238 1.424-1.302 3.743-1.302 3.743 2.237-1.975 5.58-3.267 7.4-3.89.968-.353 3.893 1.63 3.893 1.63 1.15-.223.132-2.106 1.15-2.147 7.33-.255 11.556 1.832 11.14 1.26-1.336-6.895-9.45-10.003-9.45-10.003l1.807-4.371c-6.233-.28-14.891 2.6-14.891 2.6s1.411-4.433.392-4.392c-.41.036-3.561.752-6.885 4.477-1.531-4.393-5.043.517-7.89 6.343-5.3 1.49-8.15 4.783-7.579 6.291.353.968 5.41 2.276 5.41 2.276"/>
  <path stroke="#050505" stroke-linecap="round" stroke-linejoin="bevel" stroke-width=".4" d="M37.707 55.785c.323-.758-.81-.634-.81-.634l-2.283.346s-.821.073-.972-.255"/>
  <path fill="#DCDEDD" d="M36.942 56.779s.276-.463-.447-.375c-.821.072-2.838.663-2.838.663s2.12.033 3.285-.288Z" style="mix-blend-mode:multiply"/>
  <path fill="#fff" d="M40.017 52.71c-1.003-.058-1.7-.776-1.59-1.468.125-.79 1.108-1.241 2.096-1.085 1.086.173 1.783.89 1.673 1.582-.208.675-1.092 1.143-2.179.97Z"/>
  <mask id="b" width="5" height="3" x="38" y="50" maskUnits="userSpaceOnUse" style="mask-type:luminance">
    <path fill="#fff" d="M40.05 52.755c-1.03-.143-1.762-.826-1.628-1.543.133-.708 1.078-1.176 2.11-1.043 1.03.143 1.762.826 1.628 1.544-.133.708-1.078 1.175-2.11 1.042Z"/>
  </mask>
  <g mask="url(#b)">
    <path fill="#050505" d="M39.036 51.238c-.027.806.472 1.492 1.179 1.503.707.01 1.212-.618 1.238-1.424.125-.79-.488-1.393-1.096-1.389-.691-.11-1.295.504-1.321 1.31Z"/>
    <path fill="#fff" d="M39.493 50.905c-.015.099.052.312.15.328.198.031.23-.166.261-.364.016-.099-.052-.312-.15-.327-.1-.016-.23.166-.26.363Z"/>
  </g>
  <path fill="#fff" d="M27.722 52.988c1.034-.14 1.851-.82 1.763-1.543-.072-.821-1.111-1.29-2.23-1.264-1.034.14-1.85.82-1.778 1.642.088.722 1.111 1.29 2.245 1.165Z"/>
  <mask id="c" width="5" height="3" x="25" y="50" maskUnits="userSpaceOnUse" style="mask-type:luminance">
    <path fill="#fff" d="M27.692 52.983c1.111-.107 1.903-.822 1.79-1.579-.113-.757-1.102-1.289-2.203-1.18-1.1.11-1.902.823-1.789 1.58.113.757 1.102 1.288 2.203 1.18Z"/>
  </mask>
  <g mask="url(#c)">
    <path fill="#050505" d="M29.106 51.284c-.042.904-.661 1.616-1.368 1.605-.707-.01-1.305-.713-1.278-1.519-.057-.92.562-1.631 1.27-1.62.706.01 1.304.712 1.376 1.534Z"/>
    <path fill="#fff" d="M27.032 50.956c-.016.098.052.311.15.327.198.032.23-.166.26-.364.032-.197-.051-.311-.15-.327-.099-.016-.229.166-.26.364Z"/>
  </g>
  <path fill="#A35E3F" d="M34.355 53.938s1.399.12 2.022.017c.707.01 1.462-.275 1.54-.769 0 0-1.05.239-2.267.249-1.3-.105-1.892-.199-1.913-.709 0 0-.468 1.04.618 1.212Z"/>
  <path stroke="#050505" stroke-linecap="round" stroke-linejoin="bevel" stroke-width=".4" d="M37.844 52.365s.218.54-.11.691c-.426.135-2.38.331-3.451.06-.494-.078-.385-.77-.385-.77"/>
  <path stroke="#050505" stroke-linecap="round" stroke-width=".4" d="M39.427 48.768s.624-.103 1.216-.01c.89.142.92-.056.92-.056m-13.006-.34s-.988-.157-1.71-.069c-.952.254-1.446.176-1.446.176"/>
  <path fill="#050505" d="M32.295 55.434c-.01.707 1.31 1.321 3.02 1.39 1.612.053 3.02-.534 3.032-1.241.01-.707-1.31-1.321-2.921-1.374-1.726.03-3.12.518-3.13 1.225Z"/>
  <path fill="#1C1C1A" d="M97.07 69.907c.026 1.811-8.233 3.458-18.39 3.632-10.258.186-18.496-1.194-18.523-3.005-.126-1.798 8.133-3.445 18.39-3.631 10.158-.174 18.495 1.193 18.522 3.004Z" opacity=".2"/>
  <path fill="#050505" d="M77.956 39.864s2.43-.71 3.63-3.18c.21-.732 1.178-1.056 1.972-.35 1.143 1.066.824 4.13-1.358 5.211-2.492 1.02-5.099-1.27-4.244-1.681Z"/>
  <path fill="#050505" d="M83.168 42.028s1.86-1.243 1.944-2.967c0 0 .835 2.616-1.944 2.967Z" opacity=".2" style="mix-blend-mode:multiply"/>
  <path fill="#803531" stroke="#050505" stroke-linecap="round" stroke-linejoin="round" stroke-width=".4" d="M62.658 46.431c3.797 1.335 7.42 1.28 10.978.73 3.572-.45 2.847-5.398-.712-4.848-3.46.537-5.073.54-8.522-.436-.844-.297-2.307.09-2.801 1.764-.507 1.576.325 2.58 1.057 2.79Z"/>
  <path fill="#050505" d="M62.658 46.431c3.797 1.335 7.42 1.281 10.978.731 3.572-.45 2.847-5.399-.712-4.849-1.39.175-1.038 3.76-2.526 3.947-2.07.363-5.346-.03-7.443-.673-.831-.197-1.427-.928-1.354-1.946-.507 1.576.325 2.58 1.057 2.79Z" opacity=".4"/>
  <path fill="#050505" d="M67.194 43.238s-.284.943.56 1.24c0 0-.558.372-.358 1.153.199.782.782.607.782.607s-.558.373-.62.683c0 0-.272.236-1.364.374-1.078.237-1.426-.122-1.426-.122s.125.992-.445 1.265l.434.248 4.824-.911-.837-5.035-1.55.498Z" opacity=".2" style="mix-blend-mode:multiply"/>
  <path fill="#803531" d="M64.402 41.877c-.732-.21-1.576-.507-2.52-1.597-.969-1.289-2.186-2.143-2.644-1.783-.83.609.883 2.207.55 3.56-.234 1.339-.356 2.766.96 3.607a6.488 6.488 0 0 0 1.712.792"/>
  <path stroke="#050505" stroke-linecap="round" stroke-linejoin="round" stroke-width=".4" d="M64.402 41.877c-.732-.21-1.576-.507-2.52-1.597-.969-1.289-2.186-2.143-2.644-1.783-.83.609.883 2.207.55 3.56-.234 1.339-.356 2.766.96 3.607a6.488 6.488 0 0 0 1.712.792"/>
  <path fill="#803531" d="M64.938 44.53c-.358 1.155-1.374 1.888-2.416 1.616-.943-.284-1.391-1.437-1.132-2.578.358-1.154 1.374-1.887 2.417-1.616.943.284 1.49 1.425 1.131 2.579Zm-4.998.33-.372-.558-1.255-1.152c-.248-.372-.31-.868.048-1.216.372-.248.782-.199.993-.125l1.514.817"/>
  <path stroke="#050505" stroke-linecap="round" stroke-linejoin="round" stroke-width=".4" d="m59.94 44.86-.372-.558-1.255-1.152c-.248-.372-.31-.868.048-1.216.372-.248.782-.199.993-.125l1.514.817"/>
  <path fill="#803531" stroke="#050505" stroke-linecap="round" stroke-linejoin="round" stroke-width=".4" d="M70.236 66.54s1.706-4.851 2.139-6.216c.494-1.675 1.858-2.05 3.024-1.592 1.154.358 1.775 1.288 1.195 3.075-.581 1.787-2.04 6.204-2.04 6.204-.877 2.63-5.493 1.198-4.318-1.47Z"/>
  <path fill="#050505" d="M73.475 67.442c-.73 1.402-3.162 1.306-1.896 1.751 1.154.358 2.53.084 2.975-1.182 0 0 1.459-4.417 2.04-6.204.58-1.787-.04-2.716-1.195-3.075-1.166-.457-2.53-.083-3.024 1.592-.668 1.898 2.545 1.795 2.186 2.95-.235.533-.604 3.2-1.086 4.168Z" opacity=".4"/>
  <path fill="#EE4763" stroke="#050505" stroke-linecap="round" stroke-linejoin="round" stroke-width=".4" d="M75.041 70.268c.013.1-.074.211-.173.224l-7.356.021c-.099.013-.198.025-.21-.074l.049-.41c-.013-.099.086-.111.086-.111l7.442-.133c.1-.013.112.087.124.186l.038.297ZM71.378 66.8s-.001-.807-.61-.83c-.31-.062-1.103.038-1.413-.024-.397.05-.024.608.013.906.137.285.2.78.039 1.103l-.768 1.105.956.384 1.722-1.528.06-1.117Z"/>
  <path fill="#F69226" stroke="#050505" stroke-linecap="round" stroke-linejoin="round" stroke-width=".4" d="M74.88 69.785s.035-1.315-.015-1.712c.049-.41-.274-.57-.584-.632-.496.063-.756.398-1.712.015-.744-.31-.77-.508-1.191-.656-.323-.161-.397.05-.446.46l-.21.731-1.45 1.292.075.595 5.532-.093Z"/>
  <path fill="#FEFEFE" stroke="#050505" stroke-linecap="round" stroke-linejoin="round" stroke-width=".4" d="M67.437 69.918c.062-.31.892-.919 1.202-.857.906-.013 1.415.83 1.415.83l-2.617.027Z"/>
  <path stroke="#050505" stroke-linecap="round" stroke-linejoin="round" stroke-width=".4" d="M71.144 68.14c-.36-.458-1.477-.519-1.861-.37m1.316.842c-.36-.459-1.279-.545-1.564-.408m1.005.78c-.36-.458-1.066-.47-1.352-.333"/>
  <path fill="#EE4763" stroke="#050505" stroke-linecap="round" stroke-linejoin="round" stroke-width=".4" d="M72.682 68.349c-.608-.024-.905.013-1.265.361l-1.363 1.18 1.005-.026.818-.708c.115-.149.372-.249.768-.299.211.075 2.22.022 2.22.022l.025-.607s-2.01.052-2.208.077Z"/>
  <path fill="#803531" stroke="#050505" stroke-linecap="round" stroke-linejoin="round" stroke-width=".4" d="M86.026 66.26s-1.916-4.797-2.39-6.149c-.61-1.636-1.961-1.97-3.114-1.521-1.054.435-1.735 1.428-1.014 3.151l2.178 6.075c1.045 2.69 5.57 1.01 4.34-1.555Z"/>
  <path fill="#050505" d="M82.827 67.27c.77 1.313 3.176 1.211 1.924 1.671-1.153.448-2.493.214-3.065-1.125l-2.178-6.075c-.721-1.723-.04-2.716 1.014-3.151 1.153-.448 2.505-.115 3.115 1.521.746 1.922-2.491 1.827-2.043 2.98.174.582.71 3.236 1.233 4.178Z" opacity=".4"/>
  <path fill="#EE4763" stroke="#050505" stroke-linecap="round" stroke-linejoin="round" stroke-width=".4" d="M81.379 70.174c-.087.111.025.198.124.185l7.43-.232s.099-.012.086-.111l.05-.41c-.013-.1-.112-.087-.212-.074l-7.442.133-.086.112.05.397Zm3.468-3.664s0-.806.595-.881c.297-.038 1.104-.039 1.315.035.496-.062.161.484.1.794-.161.323-.198.831.05 1.203l.734 1.016-.856.41-1.787-1.386-.15-1.19Z"/>
  <path fill="#F69226" stroke="#050505" stroke-linecap="round" stroke-linejoin="round" stroke-width=".4" d="M81.415 69.664s.036-1.314-.014-1.711c-.05-.397.222-.633.632-.584.397-.05.744.31 1.6-.101.756-.398.83-.609 1.214-.758.385-.15.41.049.46.446l.2.781 1.563 1.214-.024.608-5.63.105Z"/>
  <path fill="#FEFEFE" stroke="#050505" stroke-linecap="round" stroke-linejoin="round" stroke-width=".4" d="M88.857 69.532c.062-.31-.82-.904-1.216-.854-.806 0-1.4.882-1.4.882l2.616-.028Z"/>
  <path stroke="#050505" stroke-linecap="round" stroke-linejoin="round" stroke-width=".4" d="M85.221 67.874c.347-.447 1.326-.671 1.748-.523m-1.289.969c.335-.546 1.24-.56 1.55-.498m-1.003.832c.346-.447 1.04-.535 1.364-.374"/>
  <path fill="#EE4763" stroke="#050505" stroke-linecap="round" stroke-linejoin="round" stroke-width=".4" d="M83.634 68.074c.607.025.918.086 1.253.346l1.353 1.14-.905.013-.795-.706c-.149-.115-.46-.177-.93-.185-.199.025-2.208.077-2.208.077l.024-.608s2.01-.051 2.208-.077ZM70.348 56.246l-1.595 4.132c2.197 1.436 5.98 1.866 9.728 2.804l.604-3.2c.667-1.9-.886-3.82-3.12-4.748-2.134-.94-4.85-.9-5.617 1.012Z"/>
  <path stroke="#A0C7E9" stroke-dasharray=".8 .8" stroke-linecap="round" stroke-linejoin="round" stroke-width=".4" d="M69.484 59.781s1.936.965 8.5 2.657"/>
  <path fill="#050505" d="M70.348 56.246c-.742 2.11 2.71 5.503 3.666 5.887 1.266.445 3.015.728 4.467 1.049l.604-3.201c.667-1.898-.886-3.82-3.12-4.747-2.134-.94-4.85-.9-5.617 1.012Z" opacity=".4"/>
  <path fill="#EE4763" stroke="#050505" stroke-linecap="round" stroke-linejoin="round" stroke-width=".4" d="M86.661 58.521 87 61.2c-2.616.834-6.287 1.298-10.144 1.079l-.164-2.096c-.065-2.109 2.129-3.897 4.522-4.099 2.282-.288 5.198.453 5.448 2.437Z"/>
  <path stroke="#A0C7E9" stroke-dasharray=".8 .8" stroke-linecap="round" stroke-linejoin="round" stroke-width=".4" d="M86.403 60.468s-2.243 1.392-9.04 1.04"/>
  <path fill="#050505" d="M86.661 58.522 87 61.2c-.867.311-1.909.846-2.9.971.145-2.84-.132-5.83-2.886-6.087 2.282-.288 5.198.453 5.448 2.438Z" opacity=".4"/>
  <path fill="#F69226" stroke="#050505" stroke-linecap="round" stroke-linejoin="round" stroke-width=".4" d="M78.34 59.672c-6.797-.352-7.52-2.881-7.87-4.853-.14-3.51.647-9.254 1.302-11.251.988-3.35 3.666-4.495 7.51-4.375 3.76.23 7.656 1.553 7.685 4.977-.034 2.927-.425 7.814-.284 11.325-.32 3.064-1.459 4.417-8.343 4.177Z"/>
  <path fill="#050505" d="M78.34 59.672c-5.582-.304-1.427-10.504 2.244-10.968 0 0 1.257 3.571 1.606 4.736.51 1.65 2.346 1.821 1.997-.15-.55-3.56-2.438-5.74-.842-9.067 1.522-3.115-7.907-5.15-4.062-5.03 3.758.23 7.655 1.553 7.696 5.076.053 2.815-.784 8.162-.197 11.213-.22 3.051-1.558 4.43-8.442 4.19Z" opacity=".4"/>
  <path fill="#803531" stroke="#050505" stroke-width=".4" d="M74.56 41.704c-1.002 2.445-.428 4.59 1.705 4.724 2.121.035 4.6-1.89 5.589-4.435.89-2.531-.028-2.617-2.162-2.75-2.232-.122-4.242-.07-5.132 2.461Z"/>
  <path fill="#EE4763" stroke="#050505" stroke-linecap="round" stroke-linejoin="round" stroke-width=".4" d="M71.443 48.951c.282-2.555.589-5.719 2.532-8.685l1.23.953c-1.77 2.743-2.016 5.597-2.224 7.941l-1.538-.209Z"/>
  <path fill="#EE4763" d="M70.024 55.279c.382-2.568 1.692-6.564 1.692-6.564s1.787.581 3.71.64c1.823.073 4.7-.29 4.7-.29l2.042 6.596s3.349.182 4.564-.576c.063 1.302-.022 2.22-.07 3.436-.917 1.527-6.287 2.103-9.326 1.983-3.957-.206-8.075-.896-7.312-5.225Z"/>
  <path fill="#050505" d="M83.681 55.671s2.096-.164 3.05-.587c.064 1.303-.021 2.22-.07 3.436-.334.547-1.288.97-2.454 1.318.458-1.166-.041-3.523-.526-4.167Z" opacity=".4"/>
  <path stroke="#050505" stroke-linecap="round" stroke-linejoin="round" stroke-width=".4" d="M86.661 58.52c.061-1.116.196-2.443.07-3.435-1.214.758-4.563.576-4.563.576l-2.042-6.596s-2.877.363-4.7.29c-1.923-.059-3.71-.64-3.71-.64s-1.31 3.996-1.692 6.564c-.763 4.33 3.355 5.019 7.312 5.225"/>
  <path fill="#EE4763" stroke="#050505" stroke-linecap="round" stroke-linejoin="round" stroke-width=".4" d="M79.022 49.104c.046-2.828 2.09-5.808 4.504-9.036l1.478 1.326c-2.168 2.793-3.963 5.338-4.121 8.08l-1.861-.37Z"/>
  <path fill="#6ECFF5" stroke="#050505" stroke-linecap="round" stroke-linejoin="round" stroke-width=".4" d="M81.28 49.423c-.024.608-.656 1.191-1.264 1.167-.707-.011-1.29-.643-1.167-1.263.011-.707.544-1.279 1.263-1.168.707.012 1.18.557 1.168 1.264Z"/>
  <path fill="#050505" d="M80.884 50.28c-.545.471-1.265.36-1.724-.086 0 0 .819.099 1.364-.373.446-.46.445-1.266.445-1.266.46.446.36 1.265-.085 1.724Z" opacity=".4"/>
  <path fill="#6ECFF5" stroke="#050505" stroke-linecap="round" stroke-linejoin="round" stroke-width=".4" d="M72.882 49.173c-.11.72-.656 1.191-1.177 1.055-.521-.136-.807-.805-.585-1.438.124-.62.669-1.092 1.19-.956.509.036.795.706.572 1.339Z"/>
  <path fill="#050505" d="M72.486 50.029c-.458.36-1.079.237-1.352-.334 0 0 .633.223 1.091-.137.459-.36.644-1.291.644-1.291.174.583.063 1.302-.383 1.762Z" opacity=".4"/>
  <path stroke="#A0C7E9" stroke-linecap="round" stroke-linejoin="round" stroke-width=".4" d="m80.494 55.973.285-.137-.137-.285"/>
  <path stroke="#A0C7E9" stroke-dasharray=".8 .8" stroke-linecap="round" stroke-linejoin="round" stroke-width=".4" d="m80.443 54.77-.86-2.815"/>
  <path stroke="#A0C7E9" stroke-linecap="round" stroke-linejoin="round" stroke-width=".4" d="m79.533 51.558-.136-.285-.31-.062"/>
  <path stroke="#A0C7E9" stroke-dasharray=".8 .8" stroke-linecap="round" stroke-linejoin="round" stroke-width=".4" d="m78.28 51.212-2.642-.17-3.138-.108"/>
  <path stroke="#A0C7E9" stroke-linecap="round" stroke-linejoin="round" stroke-width=".4" d="m72.09 50.885-.297.038-.062.31"/>
  <path stroke="#A0C7E9" stroke-dasharray=".8 .8" stroke-linecap="round" stroke-linejoin="round" stroke-width=".4" d="m71.521 51.965-.766 2.717"/>
  <path stroke="#A0C7E9" stroke-linecap="round" stroke-linejoin="round" stroke-width=".4" d="m70.706 55.092-.16.322.322.161"/>
  <path stroke="#A0C7E9" stroke-dasharray=".8 .8" stroke-linecap="round" stroke-linejoin="round" stroke-width=".4" d="m71.501 55.797 3.946 1.72 4.65-1.494"/>
  <path fill="#050505" d="M85.96 41.777c-5.066 6.99-15.241 3.032-13.57.302 2.686-4.27 15.043-2.202 13.57-.302Z" opacity=".4"/>
  <path fill="#050505" d="M75.4 37.97s2.418-.004 4.177-2.04c.42-.658 1.425-.684 1.935.159.77 1.314-.293 4.069-2.662 4.468-2.467.413-4.344-2.475-3.45-2.588Z"/>
  <path fill="#050505" d="M79.757 41.35s2.02-.76 2.527-2.335c0 0 .028 2.617-2.527 2.334Z" opacity=".2" style="mix-blend-mode:multiply"/>
  <path fill="#803531" stroke="#050505" stroke-width=".4" d="M93.276 30.27c-.474 8.224-6.57 14.235-15.873 13.998-12.155-.482-13.987-7.004-13.997-15.872-.023-8.162 7.66-14.373 15.897-13.8 8.224.474 14.459 7.549 13.973 15.674Z"/>
  <path fill="#050505" d="M79.303 14.597c-8.237-.574-15.92 5.637-15.897 13.799 0 .537.03 1.037.089 1.5.682.62 4.538-.774 3.84-3.105 1.355 1.946 4.529.739 5.842-.838 1.292 2.256 3.785 2.042 4.59 1.235-.68.993 1.593 3.83 4.01 3.021-2.093 2.583 1.558 5.952 2.488 5.33 1.404 2.343.427 4.986-.712 6.34-1.338 1.378-4.463 2.176-5.951 2.364a.887.887 0 0 1 .41.049c8.967-.023 14.765-5.996 15.264-14.022.486-8.125-5.749-15.2-13.973-15.673Z" opacity=".2" style="mix-blend-mode:multiply"/>
  <path fill="#FEFEFE" d="M67.568 34.22s-.737-4.24-3.154-2.625c0 0-.058 2.729 1.828 3.297.843.296 1.326-.672 1.326-.672Zm4.8-.303s.664-4.317 6.148-3.195c0 0 .327 3.386-2.637 3.86-2.753.55-3.511-.665-3.511-.665Z"/>
  <path fill="#050505" d="M68.017 36.18s.286.669 1.39.63c1.116.061 1.934-.647 1.934-.647s-.06 1.117-.916 1.527c-.967.324-1.849-.27-2.408-1.51Z" opacity=".2" style="mix-blend-mode:multiply"/>
  <path fill="#050505" d="M71.614 35.927s-.235 1.34-2.157 1.28c-1.116-.06-1.465-1.226-1.465-1.226s.571.533 1.365.432c1.004-.025 2.257-.486 2.257-.486Zm18.718 1.367 5.934-6.494-.024-8.968-9.303-11.425s-11.474-.668-11.673-.643c-.198.025-10.131 1.985-10.205 2.196.025.198-4.309 6.59-4.309 6.59l.07 6.14 3.176 1.212 5.303-5.104 17.622 7.855 3.41 8.641Z"/>
  <path fill="#050505" d="M88.186 37.06c.2 1.588 1.554 2.727 3.054 2.639 1.6-.101 2.84-1.467 2.639-3.055-.101-1.6-1.455-2.739-3.055-2.638-1.6.101-2.727 1.554-2.638 3.054Z"/>
  <path fill="#050505" d="M87.016 33.378c.175 1.389 1.317 2.454 2.706 2.28 1.402-.077 2.455-1.319 2.379-2.72-.077-1.402-1.318-2.454-2.707-2.28-1.402.077-2.454 1.319-2.378 2.72Zm-7.384-23.359c.214 2.493 2.375 4.437 4.98 4.31 2.591-.226 4.524-2.486 4.297-5.078-.226-2.592-2.387-4.537-4.979-4.31-2.592.226-4.524 2.486-4.298 5.078ZM61.344 25.632c.076 1.402 1.317 2.455 2.719 2.379 1.401-.076 2.454-1.318 2.378-2.72-.175-1.389-1.318-2.454-2.72-2.378-1.388.175-2.453 1.318-2.377 2.72Zm17.302-.269c.089 1.501 1.442 2.64 2.943 2.552 1.488-.188 2.64-1.442 2.539-3.042-.089-1.5-1.442-2.64-2.943-2.551-1.6.1-2.74 1.454-2.539 3.041Z"/>
  <path fill="#050505" d="M72.999 22.145c.15 1.997 1.951 3.484 3.948 3.332 1.997-.15 3.595-1.864 3.431-3.96-.151-1.997-1.951-3.484-3.948-3.332-2.096.163-3.595 1.864-3.431 3.96Zm-9.557 5.742c-1.6.101-2.74 1.455-2.638 3.055.101 1.6 1.455 2.739 3.055 2.638 0 0-.4-2.369-.417-5.693ZM60.98 12.373c.227 2.592 2.387 4.537 4.98 4.31 2.492-.213 4.424-2.473 4.21-4.966-.226-2.592-2.374-4.437-4.966-4.211-2.505.115-4.438 2.374-4.224 4.867Zm29.534 21.572c.189 2.294 2.213 3.954 4.408 3.777 2.294-.188 3.966-2.113 3.877-4.42-.189-2.294-2.213-3.954-4.507-3.765-2.195.176-3.967 2.113-3.778 4.408Zm-7.672-5.684c.176 2.195 2.113 3.966 4.408 3.778 2.294-.19 3.954-2.213 3.778-4.408-.19-2.294-2.114-3.967-4.42-3.877-2.295.189-3.955 2.213-3.766 4.507Zm3.703-15.384c.188 2.294 2.113 3.966 4.407 3.777 2.295-.189 3.967-2.113 3.778-4.408-.189-2.294-2.113-3.966-4.408-3.777-2.294.188-3.966 2.113-3.777 4.408Z"/>
  <path fill="#050505" d="M56.927 24.98c.176 2.195 2.213 3.954 4.507 3.765 2.195-.176 3.954-2.212 3.778-4.407-.189-2.295-2.213-3.954-4.42-3.877-2.295.189-4.054 2.225-3.865 4.52Zm35.216 1.905c.251 2.79 2.734 4.896 5.525 4.645 2.803-.152 4.909-2.636 4.657-5.426-.152-2.803-2.635-4.909-5.438-4.756-2.79.251-4.896 2.734-4.744 5.537Z"/>
  <path fill="#050505" d="M63.98 20.965c.264 2.89 2.735 4.896 5.538 4.744 2.79-.252 4.896-2.735 4.644-5.525-.152-2.803-2.635-4.91-5.426-4.658-2.803.152-4.908 2.636-4.756 5.439Z"/>
  <path fill="#050505" d="M57.254 17.984c.251 2.79 2.734 4.896 5.525 4.645 2.803-.152 4.908-2.636 4.756-5.439-.251-2.79-2.735-4.896-5.538-4.743-2.79.251-4.896 2.734-4.743 5.537Zm9.058-7.292c.29 3.895 4.163 6.631 8.553 6.278 4.39-.352 7.698-3.693 7.42-7.488-.376-3.782-4.162-6.63-8.553-6.278-4.39.353-7.698 3.693-7.42 7.488Zm24.258 7.724c.226 2.592 2.499 4.623 5.19 4.384 2.691-.238 4.623-2.498 4.484-5.202-.239-2.691-2.598-4.611-5.19-4.385-2.704.14-4.723 2.512-4.484 5.203Z"/>
  <path stroke="#38170E" stroke-linecap="round" stroke-linejoin="round" stroke-width=".4" d="M92.224 32.318c-.83.61-1.96.45-2.556-.282-.708-.818-.548-1.947.27-2.655.731-.596 1.947-.548 2.555.283m-.671-11.709c.184-1.736 1.733-3.04 3.47-2.857 1.736.184 3.04 1.733 2.857 3.47M74.718 18.2c.655-1.998 2.824-3.18 4.822-2.524 2.097.642 3.178 2.824 2.536 4.92m3.505-4.172c.06-1.116 1.065-1.948 2.181-1.887 1.116.06 1.949 1.064 1.888 2.18M58.678 26.875a3.375 3.375 0 0 1 1.744-4.554M90.324 10.08c1.427.123 2.594 1.387 2.472 2.813m-24.368 4.185c.146-2.84 2.599-4.964 5.34-4.806"/>
  <path stroke="#38170E" stroke-linecap="round" stroke-linejoin="round" stroke-width=".5" d="M86.876 30.674c-1.414-.023-2.582-1.287-2.57-2.8"/>
  <path stroke="#38170E" stroke-linecap="round" stroke-linejoin="round" stroke-width=".4" d="M64.818 26.806c-.632.584-1.65.51-2.233-.121-.584-.632-.597-1.537.022-2.22m25.777 2.189c-1.935-.16-3.363-1.894-3.204-3.83.258-1.947 1.893-3.363 3.828-3.204 1.936.16 3.265 1.906 3.106 3.842m.686 13.42c.212.88-.283 1.749-1.176 1.862-.88.212-1.75-.284-1.961-1.164"/>
  <path stroke="#38170E" stroke-linecap="round" stroke-linejoin="round" stroke-width=".5" d="M95.658 30.775c1.501.718 2.124 2.454 1.406 3.955-.718 1.502-2.552 2.137-4.054 1.42M63.101 12.407c-.56-1.24.047-2.827 1.299-3.288a2.748 2.748 0 0 1 2.009-.052m17.781 5.114c-1.985.25-3.785-1.236-3.924-3.133-.25-1.985 1.236-3.785 3.22-4.035 1.997-.152 3.785 1.235 3.936 3.232m-7.607-2.769c-1.154-1.164-2.78-2.068-4.716-2.227-3.77-.33-6.683 2.154-6.976 5.417M81.55 26.812a1.916 1.916 0 0 1-1.788-2.194c.06-1.116 1.064-1.948 2.18-1.888 1.13.16 1.961 1.164 1.802 2.293M62.58 32.23c-.894-.694-1.045-1.885-.364-2.878m-.269-7.727c-2.246-.22-3.898-2.129-3.69-4.473.122-2.233 2.129-3.898 4.374-3.677 2.245.22 3.91 2.228 3.69 4.473m5.953.055c1.33 1.748.948 4.316-.8 5.645-1.833 1.441-4.401 1.06-5.73-.688m28.9.586c1.673-1.119 3.944-.7 5.062.974 1.119 1.673.7 3.943-.974 5.061"/>
  <path fill="#855226" d="M65.334 33.293c.212.88.883 1.4 1.366 1.239.484-.162.681-.993.37-1.861-.311-.868-.994-1.487-1.465-1.226-.484.162-.582.98-.27 1.848Z"/>
  <path fill="#050505" d="M66.004 33.007c-.062.31.174.582.484.644.199-.025.372-.248.335-.546.061-.31-.175-.583-.373-.558-.31-.061-.484.162-.446.46Z"/>
  <path fill="#FEFEFE" d="M65.52 32.363c.012.099.136.285.235.272.1-.012.087-.112.062-.31-.025-.198-.05-.397-.15-.384-.099.012-.173.223-.148.422Z"/>
  <path fill="#855226" d="M77.687 32.137c.112.893-.47 1.873-1.462 1.999-.892.112-1.786-.581-1.911-1.573-.126-.992.469-1.874 1.46-1.999.894-.113 1.788.58 1.913 1.573Z"/>
  <path fill="#050505" d="M76.496 32.287c.038.298-.123.62-.42.658-.311-.062-.534-.235-.572-.533-.05-.397.222-.633.52-.67.198-.025.534.235.472.545Z"/>
  <path fill="#FEFEFE" d="M75.516 31.706c.025.198-.149.422-.26.335-.199.025-.31-.061-.336-.26-.025-.198.062-.31.26-.335.199-.025.31.061.336.26Z"/>
  <path stroke="#050505" stroke-linecap="round" stroke-linejoin="round" stroke-width=".4" d="m63.668 29.673.833 1.81s2.368-1.206 3.067 2.737"/>
  <path stroke="#050505" stroke-linecap="round" stroke-linejoin="bevel" stroke-width=".4" d="m64.623 30.056.362 1.265"/>
  <path stroke="#050505" stroke-linecap="round" stroke-linejoin="round" stroke-width=".6" d="m79.829 29.145-1.325 1.477s-5.236-.75-6.136 3.294"/>
  <path stroke="#050505" stroke-linecap="round" stroke-linejoin="bevel" stroke-width=".6" d="m78.316 29.134-.73 1.402"/>
  <path stroke="#050505" stroke-linecap="round" stroke-width=".5" d="M66.544 28.504s-1.59-1.412-2.27.387"/>
  <path stroke="#050505" stroke-linecap="round" stroke-width=".7" d="M72.634 28.037s1.957-2.06 4.328-.042"/>
  <path stroke="#050505" stroke-linecap="round" stroke-linejoin="bevel" stroke-width=".4" d="M72.028 40.007s2.58.481 5.146-.75"/>
  <path fill="#803531" stroke="#050505" stroke-linecap="round" stroke-linejoin="round" stroke-width=".4" d="M93.483 37.5c-1.1 4.07-3.142 7.05-5.62 9.781-2.378 2.72-6.24-.724-3.75-3.356 2.379-2.72 3.332-3.949 4.494-7.522.197-.832 1.275-1.875 3.062-1.294 1.576.507 1.925 1.672 1.814 2.392Z"/>
  <path fill="#050505" d="M93.483 37.5c-1.1 4.07-3.142 7.05-5.62 9.781-2.378 2.72-6.24-.724-3.75-3.357.979-1.03 3.772 1.137 4.85.094 1.412-1.59 2.947-4.606 3.59-6.703.197-.83-.015-1.711-.884-2.206 1.576.506 1.925 1.672 1.814 2.392Z" opacity=".4"/>
  <path fill="#050505" d="M88.201 39.578s.956.384.66 1.227c0 0 .669-.286 1.153.359.571.532.125.992.125.992s.558-.373.893-.113c0 0 .372-.248 1.19-.956.805-.808.643-1.291.643-1.291s.782.607 1.34.234l-.024.608-3.58 3.576-3.775-3.555 1.375-1.08Z" opacity=".2" style="mix-blend-mode:multiply"/>
  <path fill="#803531" stroke="#050505" stroke-linecap="round" stroke-width=".4" d="M93.503 33.668c.969 1.288.897 3.112-.293 4.068-1.19.957-2.939.674-4.007-.603-.969-1.289-.897-3.112.293-4.068 1.19-.957 2.939-.674 4.007.603Z"/>
  <path fill="#803531" stroke="#050505" stroke-linecap="round" stroke-width=".4" d="M89.386 34.59c.509.037.856.396.82.905-.05.41-.409.757-.917.72l-.906.014c-.508-.036-.757-.408-.807-.805.037-.509.396-.856.905-.82l.905-.013Z"/>
  <path fill="#050505" d="M93.666 34.957s.063 1.302-.965 1.936c-1.128.646-2.283-.518-2.283-.518s.52-.67-.039-1.104c0 0-.06 1.117-1.19.957l-.11.72s1.702 2.304 3.76 1.037c2.057-1.268 1.05-2.854.827-3.028Z" opacity=".2" style="mix-blend-mode:multiply"/>
</svg>
