<svg xmlns="http://www.w3.org/2000/svg" width="68" height="31" fill="none" viewBox="0 0 68 31">
  <path fill="#20B04B" d="M56.2 15.745 0 20.345l.1-4.7 55.6-4.6.5 4.7Zm11.6 9.4-62.4 4.9-.4-4.8 62.4-4.8.4 4.7Z"/>
  <path fill="#FEFEFE" fill-rule="evenodd" d="M14.9 4.345c.9-.1 2-.1 1.8 3.1-.2 2.8-1.2 3.1-2.6 3.2h-.6l.5-6.2.9-.1Zm-.2.7-.3 4.8c1.3 0 1.3-1.3 1.4-2.4.1-1 .3-2.6-1.1-2.4Z" clip-rule="evenodd"/>
  <path fill="#FEFEFE" d="M17.9 10.345h-.8l.5-6.2.8-.1-.5 6.3Zm0-6.5-.4-.2.8-1.3.5.3-.9 1.2Z"/>
  <path fill="#FEFEFE" fill-rule="evenodd" d="m20.7 3.845.9 6.2h-.9l-.1-1.2-1.2.1-.3 1.3h-.8l1.8-6.3.6-.1Zm-.3 3.4-.2-2.2-.7 3.2 1-.1-.1-.9Z" clip-rule="evenodd"/>
  <path fill="#FEFEFE" d="M24.4 5.445v2l-.2 2.3-.8.1.4-6.2.8-.1 1.1 4.6v-2.5l.2-2.2.8-.1-.5 6.3h-.7l-1.1-4.7v.5Z"/>
  <path fill="#FEFEFE" fill-rule="evenodd" d="m29 3.146.9 6.2H29l-.1-1.2-1.2.1-.3 1.3h-.8l1.8-6.3.6-.1Zm-.3 3.5-.2-2.3-.7 3.2h1l-.1-.9Z" clip-rule="evenodd"/>
  <path fill="#FEFEFE" d="M33 3.645c-.2 0-.3-.1-.5-.1-1.2.1-1.3 1.8-1.3 2.6-.1.8-.2 2.4 1 2.3.133 0 .3-.067.5-.2l-.1.7c-.2.2-.433.3-.7.3-1.6.1-1.7-1.7-1.6-3 .1-1.2.4-3.3 2.1-3.4.2-.1.4 0 .7.1l-.1.7Zm.8 5.3-.8.1.5-6.2.8-.1-.5 6.2Z"/>
  <path fill="#FEFEFE" fill-rule="evenodd" d="M37.9 5.545c-.1 1.1-.2 3.2-1.8 3.3-1.6.2-1.5-1.9-1.4-3 .1-1.2.3-3.2 1.9-3.4 1.5-.1 1.4 2 1.3 3.1Zm-2.3.2c-.1 1.3-.1 2.4.5 2.4.7-.1.8-1.2 1-2.5 0-1.4 0-2.5-.6-2.4-.7.1-.8 1.2-.9 2.5Z" clip-rule="evenodd"/>
  <path fill="#FEFEFE" d="M39.3 4.146v2.1l-.2 2.3-.8.1.5-6.3h.8l1.1 4.6v-2.5l.1-2.2.8-.1-.4 6.2-.8.1-1.1-4.7v.4Z"/>
  <path fill="#FEFEFE" fill-rule="evenodd" d="m44 1.945.8 6.1-.8.1-.1-1.2-1.3.1-.3 1.2-.8.1 1.8-6.4h.7Zm-.3 3.5-.1-2.2-.7 3.2.9-.1-.1-.9Z" clip-rule="evenodd"/>
  <path fill="#FEFEFE" d="m46.4 1.745-.4 5.5 1.4-.1-.1.7-2.1.2.4-6.2.8-.1Z"/>
  <path fill="#FEFEFE" fill-rule="evenodd" d="M50.5 1.445c1-.1 2.1-.2 1.8 3-.2 2.9-1.1 3.1-2.6 3.2l-.6.1.5-6.3h.9Zm-.2.7-.3 4.9c1.3-.1 1.4-1.4 1.5-2.4 0-1 .2-2.7-1.2-2.5Z" clip-rule="evenodd"/>
  <path fill="#FEFEFE" d="M55.4.945v.8l-1.4.1-.2 1.9 1.3-.1-.1.8-1.2.1-.2 2.1 1.4-.1-.1.7-2.2.2.5-6.3 2.2-.2Zm1.3-.1-.5 5.6 1.4-.1v.7l-2.2.2.4-6.3.9-.1Z"/>
  <path fill="#FEFEFE" fill-rule="evenodd" d="m60.4 10.445.8 5.7-.8.1-.1-1.1-1.2.1-.3 1.1-.7.1 1.7-6h.6Zm-.3 3.3-.1-2.1-.7 3 .9-.1-.1-.8Z" clip-rule="evenodd"/>
  <path fill="#FEFEFE" d="m64.1 10.045-.4 5.2 1.3-.1v.7l-2.1.2.4-5.9.8-.1Z"/>
  <path fill="#FEFEFE" fill-rule="evenodd" d="m67.1 9.845.8 5.8h-.7l-.2-1.1-1.1.1-.3 1.2h-.8l1.7-6h.6Zm-.2 3.3-.2-2.1-.7 3h1l-.1-.9Zm-65.2 8.4.4-7.7 3-.2c1.133-.133 2.033.133 2.7.8.667.667.967 1.567.9 2.7a4.444 4.444 0 0 1-1.2 2.8c-.733.8-1.667 1.233-2.8 1.3l-3 .3Zm2.5-5.7-.2 3.4.8-.1c.467 0 .833-.166 1.1-.5.267-.333.433-.767.5-1.3 0-.467-.1-.833-.3-1.1-.267-.333-.633-.467-1.1-.4h-.8Z" clip-rule="evenodd"/>
  <path fill="#FEFEFE" d="m12 15.145-.1.8 3-.3-.1 2-3 .3v.6l3.2-.3-.1 2.2-5.5.4.5-7.6 5.4-.5-.1 2.2-3.2.2Z"/>
  <path fill="#FEFEFE" fill-rule="evenodd" d="m22.8 19.745-2.8.3-1.5-1.8h-.2l-.1 1.9-2.2.2.4-7.7 3.1-.2h.6c.4.1.8.1 1.2.4.4.2.8.6.9 1.2.133.267.2.6.2 1-.067 1.067-.533 1.9-1.4 2.5l1.8 2.2Zm-4.2-5.2-.1 1.5.9-.1c.4-.066.6-.3.6-.7 0-.5-.2-.8-.6-.7h-.8Z" clip-rule="evenodd"/>
  <path fill="#FEFEFE" d="m26 14.045-.1.7 3-.2-.1 1.9-3 .3v.6l3.2-.2-.1 2.1-5.5.5.4-7.7 5.5-.4-.1 2.1-3.2.3Zm12 1.3a4.79 4.79 0 0 1-1.6 2.5c-.733.733-1.6 1.134-2.6 1.2-1.133.067-2.067-.233-2.8-.9-.733-.733-1.067-1.666-1-2.8.067-1.067.5-2.033 1.3-2.9.867-.8 1.833-1.267 2.9-1.4 1-.066 1.867.2 2.6.8.667.534 1.067 1.3 1.2 2.3l-2.4.2c-.133-.4-.333-.7-.6-.9a1.984 1.984 0 0 0-.9-.2c-.467 0-.867.2-1.2.6-.333.4-.5.834-.5 1.3-.066.534.067.967.4 1.3.267.334.634.467 1.1.4.334 0 .667-.133 1-.4.267-.266.467-.566.6-.9l2.5-.2Zm4.7 2.8.2-2.4-1.9.1-.1 2.4-2.3.2.4-7.6 2.3-.2-.2 3 1.9-.1.2-3.1 2.2-.2-.4 7.7-2.3.2Z"/>
  <path fill="#FEFEFE" fill-rule="evenodd" d="M50.5 9.745c1.133-.133 2.067.167 2.8.9.667.734.967 1.633.9 2.7 0 1.133-.433 2.1-1.3 2.9-.8.867-1.767 1.334-2.9 1.4-1.133.134-2.033-.167-2.7-.9-.733-.667-1.067-1.567-1-2.7a4.33 4.33 0 0 1 1.3-2.9c.8-.866 1.767-1.333 2.9-1.4Zm-.3 5.8c.4-.066.767-.3 1.1-.7.333-.333.534-.767.6-1.3 0-.466-.133-.867-.4-1.2-.333-.333-.7-.5-1.1-.5-.466.067-.867.3-1.2.7-.333.334-.533.767-.6 1.3 0 .467.133.867.4 1.2.333.334.733.5 1.2.5Z" clip-rule="evenodd"/>
  <path fill="#FEFEFE" d="m7.2 30.946.5-7.6 2.2-.2-.4 7.6-2.3.2Z"/>
  <path fill="#FEFEFE" fill-rule="evenodd" d="m10.7 30.745.4-7.7 3.1-.2c1.067-.133 1.933.133 2.6.8.667.733.967 1.633.9 2.7-.067 1.133-.467 2.067-1.2 2.8-.733.8-1.667 1.233-2.8 1.3l-3 .3Zm2.6-5.7-.2 3.4.7-.1c.467 0 .833-.167 1.1-.5a2.43 2.43 0 0 0 .5-1.2c0-.533-.1-.933-.3-1.2-.267-.333-.6-.467-1-.4h-.8Z" clip-rule="evenodd"/>
  <path fill="#FEFEFE" d="M21 24.445v.7l3-.2-.2 1.9-3 .3v.6l3.2-.2-.1 2.1-5.5.5.5-7.7 5.5-.4-.1 2.1-3.3.3Zm11.2-3-.5 7.6-2.1.2-2.2-3.2-.2 3.4-2.2.1.4-7.6 2.1-.2 2.2 3.2.2-3.4 2.3-.1Zm2.8 1.9-2.1.2.2-2.2 6.4-.5-.1 2.2-2.1.1-.4 5.5-2.2.2.3-5.5Zm4.9 5.101.5-7.7 2.3-.1-.5 7.6-2.3.2Z"/>
  <path fill="#FEFEFE" fill-rule="evenodd" d="m43.4 28.146.5-7.6 3-.3c1.133-.067 2.033.233 2.7.9.6.666.867 1.566.8 2.7a4.444 4.444 0 0 1-1.2 2.8c-.733.8-1.667 1.233-2.8 1.3l-3 .2Zm2.6-5.7-.2 3.4.8-.1a1.58 1.58 0 0 0 1-.6c.333-.334.5-.734.5-1.2.067-.467-.033-.834-.3-1.1-.2-.334-.533-.467-1-.4H46Zm9.8-2.901 2.3 7.5-2.5.2-.2-.8-2.4.2-.3.8-2.5.2 3.3-7.9 2.3-.2Zm-2 4.9 1-.1-.4-1.6-.6 1.7Zm5 2.5.5-7.6 3-.3c1.133-.066 2.033.234 2.7.9.6.667.9 1.567.9 2.7-.067 1.067-.5 2-1.3 2.8-.733.8-1.667 1.233-2.8 1.3l-3 .2Zm2.6-5.7-.2 3.4.8-.1c.4 0 .767-.2 1.1-.6.267-.333.4-.733.4-1.2.067-.466-.033-.833-.3-1.1-.2-.333-.533-.466-1-.4h-.8Z" clip-rule="evenodd"/>
</svg>
