<svg xmlns="http://www.w3.org/2000/svg" width="67" height="21" fill="none" viewBox="0 0 67 21">
  <path fill="#28C5EF" d="M66.8 12.6.6 19.5 0 14.8l66.5-6.9.3 4.7Z"/>
  <path fill="#FEFEFE" fill-rule="evenodd" d="M21.2 2.2c.9-.1 2-.1 1.9 3-.2 2.8-1.1 3.1-2.6 3.2l-.5.1.3-6.2.9-.1Zm-.1.7-.3 4.8c1.4-.1 1.4-1.4 1.4-2.4.1-1 .2-2.6-1.1-2.4Z" clip-rule="evenodd"/>
  <path fill="#FEFEFE" d="m24.3 8-.8.1.3-6.2.8-.1-.3 6.2Zm-.1-6.3-.4-.2.7-1.3.5.3-.8 1.2Z"/>
  <path fill="#FEFEFE" fill-rule="evenodd" d="m26.9 1.6 1 6-.8.1-.2-1.2-1.2.2-.2 1.2-.8.1 1.6-6.3.6-.1ZM26.7 5l-.2-2.2-.6 3.2.9-.1-.1-.9Zm4.2-3.8c1-.1 2-.2 1.9 2.9-.2 2.9-1.1 3.1-2.5 3.3h-.6l.3-6.1.9-.1Zm-.1.7-.3 4.8c1.4-.1 1.4-1.4 1.4-2.5.1-.9.2-2.6-1.1-2.3Z" clip-rule="evenodd"/>
  <path fill="#FEFEFE" d="M35.7.7v.7l-1.4.1-.1 2 1.2-.2V4l-1.2.2-.1 2.1 1.4-.2-.1.7-2.1.3.3-6.2 2.1-.2Zm2.7-.3-.3 5.4 1.4-.1-.1.7-2.1.2.3-6.1.8-.1Z"/>
  <path fill="#FEFEFE" fill-rule="evenodd" d="m41.6 0 1 6.1h-.9L41.6 5l-1.2.1-.3 1.2-.8.1L40.9.1l.7-.1Zm-.2 3.4-.2-2.2-.6 3.2 1-.1-.2-.9Z" clip-rule="evenodd"/>
  <path fill="#FEFEFE" d="m4 14.8-2.1.3.1-2.2 6.4-.7-.1 2.2-2.1.2-.1 5.4-2.3.3.2-5.5Z"/>
  <path fill="#FEFEFE" fill-rule="evenodd" d="m15.7 19-2.7.3-1.5-1.7h-.2l-.1 1.9-2.2.2.2-7.6 3.1-.3h.6c.4.1.7.1 1.2.4.4.2.7.5.9 1.1.133.333.2.666.2 1-.067 1.066-.5 1.9-1.3 2.5l1.8 2.2Zm-4.3-5-.1 1.5.9-.1c.4-.067.6-.334.6-.8 0-.5-.2-.7-.6-.6h-.8Zm9.8-3.1 2.5 7.2-2.4.3-.2-.8-2.4.3-.3.8-2.4.3 3-7.9 2.2-.2Zm-1.8 4.8 1-.1-.5-1.5-.5 1.6Zm5 2.3.3-7.5 2.9-.3c1.133-.133 2.033.1 2.7.7.666.667.967 1.534.9 2.6 0 1.134-.367 2.1-1.1 2.9-.734.8-1.633 1.234-2.7 1.3l-3 .3Zm2.4-5.6-.1 3.3.7-.1c.467-.066.833-.266 1.1-.6.267-.333.4-.733.4-1.2 0-.466-.1-.866-.3-1.2-.267-.266-.6-.366-1-.3l-.8.1Z" clip-rule="evenodd"/>
  <path fill="#FEFEFE" d="m32 17.2.3-7.5 2.2-.3-.2 7.6-2.3.2Zm11.3-4.4a5.69 5.69 0 0 1-1.5 2.6 4.697 4.697 0 0 1-2.6 1.2c-1.067.133-1.967-.134-2.7-.8-.733-.734-1.1-1.634-1.1-2.7a4.33 4.33 0 0 1 1.3-2.9c.733-.867 1.667-1.334 2.8-1.4.933-.134 1.767.067 2.5.6.733.533 1.166 1.266 1.3 2.2l-2.4.3a1.82 1.82 0 0 0-.6-.8 1.082 1.082 0 0 0-.9-.2c-.4.066-.767.267-1.1.6-.333.4-.5.833-.5 1.3-.067.533.067.966.4 1.3.267.267.633.4 1.1.4.333-.067.633-.233.9-.5.333-.2.567-.5.7-.9l2.4-.3Zm.7 3.1.2-7.5 2.2-.3-.2 7.6-2.2.2Z"/>
  <path fill="#FEFEFE" fill-rule="evenodd" d="M51.4 7.5c1.133-.133 2.067.133 2.8.8.733.667 1.067 1.567 1 2.7 0 1.067-.4 2.034-1.2 2.9-.8.8-1.733 1.267-2.8 1.4-1.133.133-2.067-.133-2.8-.8-.733-.666-1.067-1.567-1-2.7 0-1.067.4-2.033 1.2-2.9.8-.867 1.733-1.333 2.8-1.4Zm-.2 5.7c.467-.066.867-.3 1.2-.7.333-.333.5-.767.5-1.3 0-.466-.133-.866-.4-1.2-.333-.333-.7-.467-1.1-.4a2.068 2.068 0 0 0-1.2.6c-.333.4-.5.867-.5 1.4 0 .467.133.867.4 1.2.333.333.7.467 1.1.4Zm1.3-6.4-2.2.3 1.1-2.2 2.5-.2-1.4 2.1Z" clip-rule="evenodd"/>
  <path fill="#FEFEFE" d="m63 6.3-.2 7.6-2 .2-2.3-3-.1 3.3-2.2.2.2-7.5 2-.3 2.3 3.1.1-3.3 2.2-.3Z"/>
</svg>
