<svg xmlns="http://www.w3.org/2000/svg" width="41" height="53" fill="none" viewBox="0 0 41 53">
  <path fill="#FEFEFE" fill-rule="evenodd" d="M41 26.444c-.1.2.1.5-.3.5.3.2.1.4 0 .7-.3.5-.8 1-1.2 1.4 0 .1-.1.1-.1.1-.2.2-.3.4-.5.6-.7.8-1.6 1.4-2.6 1.9 0 .1-.2.1-.3.1-.1 0-.1.1-.2.1-.6 0-1.2.3-1.7.6-.7.4-1.4 1-2.2 1.3h-.3c-.2.267-.433.534-.7.8-.3.2-.6.5-.8.8-.1.1-.1.3-.1.5-.067.4-.166.8-.3 1.2-.066.334-.133.634-.2.9.1.1.4.2.1.5 0 0 .1.1.1.2h.2l-.2.2c0 .2-.1.3-.2.5 0-.1 0-.2-.1-.2-.1.1-.1.1.2.3l-.2.4c0 .1-.1 0-.2 0l-.2.2c.1 0 .2.1.3.1-.1.2-.1.4-.3.5 0 .1-.2 0-.3 0-.1.2-.1.3.2.3.2 0 .3.2.1.4-.333.4-.767.7-1.3.9l-.1-.1c-.3.4-.7.2-1 .1-.4.3-.9.4-1.3.5-.067 0-.133-.033-.2-.1v.2c-.1 0-.2.3-.4 0h-.1c-.1.3-.4.3-.5.4-.1.1 0 .4-.1.5 0 .4.1.7 0 1-.2.4-.4.7-.7 1.1-.2.3-.5.3-.8.3-.4-.1-.7 0-1.1.1-.1.1-.2.1-.1.3.1.1 0 .2-.1.4H21l-.1.1.1.1c-.1.2-.2.4-.4.5-.1.2-.4.2-.6.3-.4.1-.6.4-1 .6-.4.3-.9.6-1.4.7-.4.2-.8.4-1.2.3a6.99 6.99 0 0 1-1.7-.2 7.428 7.428 0 0 1-1.3-.3h-1.2c-.2 0-.4-.1-.5-.4a11.893 11.893 0 0 0-.4-.9c-.067-.2-.033-.367.1-.5.2-.1.2-.3.2-.5l-.3-1.5c0-.3 0-.6-.2-.9-.3-.6-.3-1.2-.2-1.8.1-.7.2-1.3.3-2 .067-.133.067-.3 0-.5-.2-.733-.366-1.433-.5-2.1-.2-.5-.3-1 0-1.5.2-.333.434-.7.7-1.1.2-.3.4-.6.6-1 .2-.2.4-.3.7-.4.2-.1.4-.2.4-.5v-1.3c0-.133.034-.267.1-.4.3-.8.2-1.6 0-2.3-.1-.7-.5-1.3-.7-2-.2-.5-.4-1-.2-1.5s.5-.8.8-1.2c.2-.333.367-.667.5-1 .1-.1.1-.3 0-.4-.133-.333-.3-.6-.5-.8-.1-.1-.3-.1-.4-.1-.3-.1-.3 0-.3-.4-.1.1-.1.2-.2.3h-.3c-.4-.1-.6-.3-.6-.8 0-.3 0-.6-.2-.9-.1-.1-.3-.2-.4-.3l-.2-.2c-.1.1-.2.2-.3-.1-.2.3-.4.3-.6.2-.2-.1-.5-.1-.7-.1H7.8c-.133.2-.333.233-.6.1-.1-.1-.5.1-.5-.2-.3-.1-.6-.3-.8-.4-.4-.1-.9-.3-1.3-.4-.3-.1-.5 0-.7.1-.5.1-1-.1-1.1-.6a4.899 4.899 0 0 0-.3-.5c.067 0 .167-.033.3-.1-.5 0-.6-.4-.8-.6a5.249 5.249 0 0 1-.5-.8c-.1-.1-.1-.2-.1-.3-.3 0-.6-.6-.4-.9.3-.4.1-.7 0-1.1l-.4-1v-.1c-.2-.1-.2-.2-.1-.4-.2 0-.5-.5-.5-.8 0-.333.1-.6.3-.8.2-.1.2-.2.1-.4-.067-.2 0-.366.2-.5.4-.5.9-.9 1.3-1.5.2-.2.2-.5.3-.8.134-.2.233-.4.3-.6 0-.1.1-.3 0-.4 0-.5.1-.8.5-1l2.7-1.8c.5-.4 1.1-.7 1.8-.8.7 0 1.3-.3 1.9-.5.1-.1.2-.2.2-.3.2-.4.4-.6.8-.8.2-.066.4-.166.6-.3.2-.1.4-.1.7-.1.5.1.8-.2 1.1-.5l.4-.2c.3-.3.4-.2.7.1l-.2.2c.134.067.233.134.3.2.4.134.767.3 1.1.5.1 0 .3.1.3 0 .5-.2 1 0 1.5 0 .534 0 1.034.034 1.5.1l.6.3c.7.2 1.4.5 2.2.7.5.1.9.4 1.3.7h.1l-.4.4h-.3l.1.1c.1.1.2.2.3.2-.2.1-.2.1-.3.2 0 0 .1.1.1.3-.133-.066-.233-.1-.3-.1h-.1c-.066.067-.1.167-.1.3-.067 0-.133.034-.2.1.3.5.7 1 1.3 1.3.3.1.6.4.9.6.1 0 .1.1.1.1h-.2l-.1-.1c-.066.067-.1.167-.1.3.1-.1.2-.1.3-.1 0 .2-.033.367-.1.5l.1.1c0-.1 0-.1.1-.2.334.2.7.434 1.1.7v.1c0 .3.3.2.5.4.1.1.4 0 .4-.2.2-.6.8-1 1.5-.8.3.1.6.2.8.5.2.3.5.5.7.7.3.4.7.5 1.1.7.3.1.6.2.8.4.3.2.7.2 1 .2.4 0 .6.1.9.2.4.2.8.4 1.2.5 0 .067.033.1.1.1.067.067.133.167.2.3-.067 0-.166-.033-.3-.1l-.1.1c.1.1.1.2.5.2 0 .134-.033.234-.1.3 0 .2.2.4-.2.5-.067-.066-.133-.1-.2-.1.1.2.6.3 0 .5v-.2l-.2.2.4.2c-.1.2-.2.4-.5.4-.2 0-.2.1-.2.3 0 .2-.1.4.1.6 0 0-.1.1-.1.2.2.467.4.9.6 1.3l-.2.6c-.1 0 0 .2 0 .2.3 0 .3.2.4.4.1.1.2.3.2.5 0 .1 0 .2-.1.3 0 .1-.1.2.1.2v.3c-.133.467-.1.933.1 1.4v.1c.6.6.5 1.3.5 2 0 .2.1.3.2.4.4.3.6.8.8 1.2.2.3.4.5.5.8.133.2.233.4.3.6 0 .1-.1.2-.2.3-.2.067-.267.167-.2.3.133.134.233.2.3.2a1.161 1.161 0 0 1-.2.3c0 .067.033.1.1.1 0-.067.034-.133.1-.2 0 .067.033.1.1.1.1.2.3.3.5.3.9.1 1.8.2 2.7.2.2 0 .5 0 .7-.1.2-.1.4-.1.6.1Zm-27.5 19.3c.1-.2.3-.3.2-.6-.4.1-.3.3-.2.6a1.163 1.163 0 0 0-.3-.2h-.1c-.1.2-.1.4-.1.6.1-.2.1-.2.2-.3.067-.066.167-.1.3-.1Zm-1.8-28.5c.2-.2.2-.4.2-.6-.1.1-.1.2-.2.3-.1.1-.2 0-.3.1.067.067.167.133.3.2a3.26 3.26 0 0 0-.4.5c-.067-.067-.133-.1-.2-.1v.1l.1.1h.2l.3-.3c0-.1.1-.3 0-.3Zm17.5 10.4c0 .067.033.134.1.2h-.4c-.066.067-.1.167-.1.3.1 0 .2-.1.3 0 .267.067.534.167.8.3.3.1.4.1.5-.2-.066.067-.167.1-.3.1 0-.3.1-.5.3-.6.3-.2.5-.3.5-.6h-.3v-.2c-.067.067-.133.1-.2.1-.1-.1-.2-.2-.4-.3h.2c.2 0 .3.1.4.1l.2-.2-.1-.1-.2.2c0-.133-.033-.2-.1-.2-.133-.067-.3-.1-.5-.1a.88.88 0 0 0 .1.4c-.133-.067-.233-.1-.3-.1-.066 0-.133.034-.2.1.1.1.2.2.4.2-.2.1-.3.1-.4.2v.2c.2 0 .4.034.6.1.1 0 .1.1.1.1 0 .1-.1.1-.1.2-.067-.067-.1-.133-.1-.2a1.163 1.163 0 0 0-.3.2.654.654 0 0 1 .3.3.888.888 0 0 0-.4-.1c.067-.133.1-.3.1-.5-.2.1-.4-.1-.5.2l.2-.8h-.1l-.3.6c-.1-.2-.1-.2-.1-.4-.2.3-.3.4-.4.6v.1c0 .067.033.1.1.1.2-.4.2-.4.6-.3Zm-17.7-23.4c-.2-.1-.3-.1-.5-.2 0 .067-.033.133-.1.2.133.067.267.1.4.1.2.1.2.2 0 .3 0-.066-.033-.133-.1-.2-.1 0-.3.1-.5.1.2.1.3.2.4.3l-.2.2c-.133-.067-.233-.1-.3-.1v.1c.133.067.267.1.4.1h.1l.2.2c0-.066.034-.167.1-.3.1-.2.1-.5.3-.5.067-.267.134-.466.2-.6 0-.1.1-.3.1-.4-.1-.3.2-.5.4-.7-.066-.066-.1-.167-.1-.3a1.165 1.165 0 0 0-.3.2c.1.3.1.3-.2.4v.3h-.1a3.876 3.876 0 0 1-.5-.2c.067-.2.134-.367.2-.5l-.1-.1c-.1.1-.2.2-.2.3-.1.3-.1.3-.3.1-.067.067-.1.133-.1.2.1.1.2.1.4.1-.1.1-.2.1-.3.2v.2s0 .1.1.1c0-.1.1-.1.1-.2.1-.1.1-.2.1-.3.2.1.3.1.2.4 0 0 0 .2.1.2.1.1.1.1.2.1-.067.067-.1.133-.1.2Zm-3.4 9.2H8v-.3l-.3.3c.334.134.633.267.9.4-.1.1-.3.1-.5.2.1 0 .2.1.2.1.067.067.133.1.2.1l-.2.2c-.1 0-.1-.1-.3-.2v.5c.067-.067.167-.1.3-.1a376.794 376.794 0 0 0 .3-.3h.1c0 .067-.033.133-.1.2l-.1.1c.1.2 0 .4-.2.4 0-.067-.033-.133-.1-.2l-.1.1s0 .2.1.2c.1.1.3.1.4-.1a.654.654 0 0 1 .3-.3c-.3-.4.3-.7.2-1a3.912 3.912 0 0 1-.8-.3c0-.066.033-.133.1-.2.2.133.433.233.7.3.1-.2.3-.4.2-.7-.067.067-.1.167-.1.3-.1 0-.1.1-.1.2-.3-.1-.5-.2-.7-.2.1-.3.1-.7.5-.7l-.3-.3c-.067.2-.167.4-.3.6 0 0 .1.2 0 .2-.1.1-.2 0-.2-.1H8c-.067 0-.166-.033-.3-.1l-.1.2c.133.067.267.1.4.1.1.1.2.1.2.2s-.1.1-.1.2Zm15.7 14.9c.3.1.4.1.5-.2.067-.2.133-.433.2-.7-.133.067-.233.1-.3.1.1.2-.1.6-.3.7.067-.333.167-.633.3-.9-.2 0-.3.1-.3.1 0 .3-.1.6-.3.8v.1c0 .067-.033.133-.1.2-.067-.067-.1-.133-.1-.2-.066.067-.167.1-.3.1v-.2c-.067.067-.133.1-.2.1 0-.067-.033-.133-.1-.2-.1.1-.2.1-.3.3.4 0 .7.1 1 .3-.2.4-.5-.2-.8.1.134.067.267.1.4.1.067.067.167.134.3.2-.3.3-.5-.3-.8 0 .133.067.233.134.3.2.1.2.4.1.5-.1.134-.333.267-.633.4-.9Zm-11.1-12.9c-.1.1-.2.1-.3.2v.5c.2.1.4.2.6.1.1 0 .2-.3.3-.6-.1.1-.2.1-.3.1v-.1c.067-.066.2-.133.4-.2-.2-.1-.4-.2-.6-.2h-.1s0 .1.1.1c.2.1.2.2 0 .3-.067 0-.1-.066-.1-.2Zm8.9 13.8.3.3c-.2.3-.2.1-.3-.1-.1.2-.1.3-.1.3 0 .1.2.1.2.1.1-.1.3-.2.4-.3h.2c.133-.333.267-.633.4-.9h-.1c-.067 0-.133.033-.2.1.2.2.1.3-.1.3h-.1a3.9 3.9 0 0 1 .2-.5h-.5v.1h.2c.1.1.1.3-.1.3 0-.066-.033-.133-.1-.2a1.16 1.16 0 0 1-.2.3c.3 0 .5.1.7.2-.1.1-.2.1-.3.2v-.2h-.5Zm-11.2-23.5c0-.067-.033-.1-.1-.1 0 .1 0 .2.1.2.2.2.4 0 .4-.1.2-.067.367-.133.5-.2l-.1-.1H11c-.067-.066-.1-.133-.1-.2h-.1c-.4 0-.4 0-.3-.4.133-.2.233-.366.3-.5-.067-.066-.133-.1-.2-.1-.067.2-.167.434-.3.7-.1.1-.1.2-.2.4l.1.2c.3-.3.4-.1.6.2h-.4Zm8.8-3.2-.6-.3c0 .067-.033.167-.1.3l-.1.1c-.2.1-.4 0-.5-.2 0 .1-.1.1-.2.2.134.067.267.1.4.1l-.2.4.1.1c0-.067.033-.1.1-.1 0-.3.2-.3.4-.2h.3l.4-.4Zm-6.5-1.1c0 .1-.1.1-.2.2s-.1.3-.2.5c-.1.3-.3-.2-.4-.1h-.1c.067.133.1.234.1.3 0 .134-.066.2-.2.2-.1-.1-.2 0-.2 0 .2.3.3.3.5 0 0-.1.1-.1.2-.1.1-.1.4-.3.5-.4v-.6Zm2 10.2-.2.2c.067.067.167.1.3.1h.2c.1.1.2.1.2.2s-.1.1-.2.3c-.067-.133-.1-.233-.1-.3-.066 0-.167.033-.3.1h-.2v.1c.2 0 .3 0 .5.1s.3.1.3-.1c.067-.066.1-.133.1-.2.2-.1.2-.2.1-.3-.2.1-.4 0-.7-.2Zm-6.5 6.4c0-.1 0-.2-.1-.2h-.2c-.1 0-.1 0-.2.1l.1.1c.2.2.5.1.6-.1 0 0 .1-.1.2-.1.067 0 .133-.033.2-.1-.3.1-.2-.1-.2-.2a9.559 9.559 0 0 1-.7-.2v.1l.3.3c.3 0 .1.1 0 .3Zm.9-8.9c.1-.1.2-.3.3-.3.2-.1.3 0 .5.1.067-.2.167-.4.3-.6H10a.887.887 0 0 0-.1.4c-.2-.1-.3-.2-.4-.3.1 0 .2-.1.4-.1-.2-.1-.3-.1-.5-.2.2.3 0 .4-.1.4-.1.2-.1.4-.2.6Zm23 9.4c-.067.067-.133.1-.2.1 0 .134.033.234.1.3-.067 0-.1.034-.1.1a1.165 1.165 0 0 0-.3-.2c0 .067-.033.133-.1.2.2.1.3.1.5.1.1-.5.3-.9.5-1.5-.1.1-.2.2-.3.2.2.3-.1.3-.2.5 0 .067.033.133.1.2Zm.6 8.9-.2-.2c-.1 0-.2 0-.2.1s-.1.2-.1.3c0-.066-.067-.133-.2-.2a1.25 1.25 0 0 1-.3.5c-.066-.066-.133-.1-.2-.1-.067.067-.1.133-.1.2h.2c.2-.067.367-.133.5-.2v-.1c.067 0 .133.034.2.1v-.1a1.57 1.57 0 0 1 .4-.3Zm-.4-11.1c-.2.1-.5.8-.4 1h.2c0-.133-.033-.233-.1-.3.5-.1.7-.4.5-.7-.2.4-.2.4-.4.2.067 0 .1-.033.1-.1l.1-.1Zm-19.1 18.6c.1.1.4.2.5.1.1-.2.2-.3.4-.2 0 0 .1-.1.1-.2l.2-.4c-.133 0-.2.067-.2.2-.066.067-.1.134-.1.2a1.166 1.166 0 0 0-.3-.2c0 .134-.033.233-.1.3 0 .1-.1.2-.2.3v-.3a1.163 1.163 0 0 0-.3.2Zm.2-20.8c.2.1.2.2.3.2l.2-.2c.133-.2.233-.4.3-.6v-.2h-.4c.067.133.133.234.2.3 0 .067-.033.1-.1.1-.066 0-.167-.033-.3-.1l-.1.1c.133.067.233.134.3.2v.1c-.1 0-.2.1-.4.1Zm22.8 12.6c0-.3-.2-.2-.2-.1 0 .2-.2.2-.2.4v.1c.067 0 .1-.033.1-.1.3-.2.5-.6 1-.6v-.1c-.1 0-.3 0-.4-.1a4.9 4.9 0 0 1-.3.5Zm-28.5-10.7h.1l.1-.1c0-.1.1-.1.2-.1s.2.1.2-.1c.1-.1.3-.2.1-.4l-.2.2.1.1h-.1c-.1 0-.1-.1-.1-.2 0 0 .1-.1.1-.2h-.1a1.163 1.163 0 0 1-.2.3h-.3v.1c.133.067.233.133.3.2l-.2.2Zm4.8.9.1-.1c-.133 0-.233.034-.3.1v.1c.1.1.5 0 .5-.1.1-.2.1-.3.2-.2.1.1.2 0 .3 0 0-.067-.033-.1-.1-.1-.066 0-.133.033-.2.1v-.2h-.6c.2.1.4.2.1.4Zm16.7 9.7c0-.066-.033-.1-.1-.1v.1c-.1.1-.1.4-.4.1l-.2.1c.1.2-.1.3-.1.4 0 .2-.1.3-.2.4v.2s.1 0 .1-.1l.2-.2c.1-.3.1-.5.4-.5.1-.1.2-.3.3-.4Zm-13.9-14.9c.2-.133.333-.267.4-.4.067-.2.1-.367.1-.5h-.2l-.2.4v.3l-.2-.2-.2.2c.133.067.233.133.3.2Zm-1.7 3.4.1.1c.134-.2.233-.4.3-.6-.3-.1-.6-.2-1-.3.1.3.2.3.3.3.5.1.6.2.3.5Zm16.3 10.9v.1c.2.067.367.134.5.2.1.1.4.1.4.1.1-.2.3-.4.2-.7-.1.1-.2.2-.1.3 0 .3-.1.3-.3.3v-.2c-.267-.066-.5-.1-.7-.1Zm1.1-6.8c.2.1.4.1.2.4v.2c.1 0 .1.1.2.1h.3c0-.1 0-.2-.1-.2-.4-.1-.2-.3-.1-.5-.133 0-.233-.033-.3-.1l-.2.1Zm-17.4-4.3-.6-.2v-.1a1.565 1.565 0 0 1-.3.4h.5l.2.2c.067-.133.133-.233.2-.3Zm2.9-12.9v.1c.1.1.2.1.4.2l-.4.2c.133.067.233.133.3.2 0 0 .1-.1.2-.1 0-.2.033-.366.1-.5-.2-.066-.4-.1-.6-.1Zm12.5 9.6v.1c0 .1 0 .1.1.2.1 0 .3.1.4.1.2 0 .4.2.5-.1-.3-.1-.6-.2-1-.3Zm3.9 4c-.066 0-.1-.033-.1-.1-.067.067-.1.133-.1.2 0 .2-.1.4-.2.3l-.6-.2c0-.1-.1-.1-.1 0-.1 0-.1.1-.1.1h.1c.1 0 .3.1.4.1.2.2.4.3.5 0 .1-.1.1-.3.2-.4Zm-2.5 8.8c.134-.466.3-.933.5-1.4-.3.2-.7 1.2-.5 1.4Zm-13.7 22.3c0 .2-.1.4-.1.5 0 0 .1-.1.2-.1.3 0 .4-.2.4-.4v-.2h-.1c-.1 0-.1.1-.1.2 0 .067-.033.134-.1.2l-.2-.2Zm-.5-39h-.1c.067.067.1.134.1.2a.887.887 0 0 0 .4-.1c.067-.066.167-.133.3-.2.067 0 .133-.033.2-.1-.067 0-.1-.033-.1-.1-.4.1-.4.2-.6.4-.066-.066-.133-.1-.2-.1Zm-.9 2.4c-.1.1-.2.2 0 .3.4.2.4-.5.7-.3l.1-.1v-.1h-.2c-.1 0-.2-.1-.2-.1 0 .067-.033.133-.1.2 0 .067-.033.167-.1.3l-.2-.2Zm-1.9-7.5c-.2-.066-.467-.166-.8-.3v.2c.2.1.4.1.5.2-.1.2-.1.2-.2.3l.1.1c.133-.133.267-.3.4-.5Zm2.8 7.2c.1 0 .2-.1.4-.1-.1 0-.2-.1-.2-.1-.066-.066-.1-.133-.1-.2-.3.2-.5.1-.7-.2-.067.133-.1.233-.1.3h.2c.134.067.3.167.5.3Zm2.2-5.6c.134-.4.234-.766.3-1.1-.1.1-.3 0-.2.3 0 0 0 .1-.1.1 0 .067-.033.133-.1.2 0 .067-.033.167-.1.3 0 .067.067.133.2.2Zm3 24.3-.2.1c-.1.2-.1.3-.2.5.133.067.3.134.5.2v-.3c-.1 0-.1.1-.3.1.1-.2.1-.4.2-.6Zm9.6-1-.2.2.1.1c.3.1.6-.2.6-.5h-.2c0 .2-.1.2-.1.3-.1 0-.1 0-.2-.1Zm-22.9-10.5c.1.3.3.3.5.3.1 0 .3-.5.2-.6-.067 0-.133.034-.2.1.1.3.1.3-.2.3v-.1h-.3Zm21.8 11.7-.8-.4c-.067 0-.133.034-.2.1.134.067.234.134.3.2l.4.2c.1 0 .3 0 .3-.1Zm1.7-3c.067-.067.133-.1.2-.1.1-.1.1-.2.2-.2.133.067.233 0 .3-.2.067-.133.133-.233.2-.3l-.1-.1c-.1.1-.1.2-.2.3 0 .1 0 .2-.2.1-.1 0-.2 0-.2.1-.1.1-.1.2-.2.4Zm-11 4.1c-.067-.2-.167-.2-.3 0 .1 0 .3.1.5.2.067-.267.167-.5.3-.7-.133 0-.233.034-.3.1.133.2.067.334-.2.4Zm8.6-18.9c.134.067.267.167.4.3-.1.1-.2.1-.3.2.067.067.133.1.2.1.067-.2.167-.433.3-.7-.133 0-.233.034-.3.1 0-.066-.033-.133-.1-.2l-.2.2Zm-21.8 3.3v.1c.2-.1.4.2.5-.1l.2-.4c0-.066-.033-.1-.1-.1 0 .1-.1.2-.1.2.1.2 0 .3-.2.2-.1 0-.2.1-.3.1Zm30.4 13.4c-.067-.066-.1-.133-.1-.2-.2.2-.3.2-.3-.1l-.1.1c0 .067-.033.134-.1.2.067 0 .133.033.2.1.133 0 .267.034.4.1.067 0 .133-.033.2-.1v-.2c-.067.067-.133.1-.2.1ZM8 18.244h-.5s0 .1.1.2c.1 0 .2 0 .3.1.2.1.3.1.4-.1 0-.066-.033-.1-.1-.1-.066 0-.133.034-.2.1v-.2Zm25.2 9v.1c.2 0 .4.1.5.1.2-.2.2-.4.3-.6-.2 0-.3 0-.2.2 0 .1-.1.2-.1.3-.067 0-.1-.033-.1-.1s-.033-.133-.1-.2a1.163 1.163 0 0 1-.3.2Zm.6-1.9c-.3-.1-.3-.1-.4.3.3-.1.5-.5.9-.4-.1-.1-.2-.2-.3-.2-.1 0-.2 0-.2.1v.2ZM8.1 8.544c-.2.4-.367.8-.5 1.2.2 0 .4-.5.5-1.2Zm8.9-.1c-.2 0-.367-.033-.5-.1-.1 0-.2-.1-.2-.1 0 .1 0 .2-.1.2.8.1.8.1.8 0Zm-3.5 36.7c.1-.1.3-.2.4-.3.1-.1.1-.3.2-.4-.067 0-.1-.033-.1-.1a1.165 1.165 0 0 0-.2.3c0 .1 0 .2-.2.1h-.2c0 .1 0 .2.1.4Zm15.3-5c-.067 0-.1-.033-.1-.1-.133.2-.233.433-.3.7l.1.1h.1c-.1-.4.3-.3.5-.6-.2 0-.3.1-.4.1.067-.066.1-.133.1-.2Zm10.3-13.4c-.2-.1-.3-.2-.4-.2-.1 0-.2.1-.2.1-.1.1 0 .3-.1.5l.3-.3c.1 0 .2-.1.4-.1ZM28 41.344h-.1v.2c.1 0 .3.1.3 0l.3-.6h-.1l-.2.2c.2.2 0 .3-.2.4v-.2Zm-12.9-28.7c-.2.067-.4.1-.6.1.133.133.267.233.4.3.1 0 .2-.1.2-.1v-.3Zm22.8 14.1h-.1c-.067-.067-.133-.1-.2-.1 0 .1-.1.1 0 .2l.1.1c.1 0 .2 0 .2-.1.1-.2.3-.2.5-.3-.2 0-.5-.3-.5.2Zm-12.2 13.7h-.1c-.1.1-.1.2-.1.3 0 .1-.1.2-.3.2v-.2l-.2.2.4.2c.134-.266.234-.5.3-.7Zm-.3-22c-.066-.066-.133-.1-.2-.1-.133.2-.233.433-.3.7l.1.1c.133-.266.267-.5.4-.7Zm-10.3-3.5c-.1.1-.1.2-.1.2 0 .1.1.1.1.1.3.1.5-.2.5-.5-.1.1-.2.3-.4.5 0-.1-.1-.2-.1-.3Zm11.2 13.3v.3c.6-.3.6-.3.5-.6l-.2.4c-.067 0-.167-.033-.3-.1Zm6.7-17.2-.2.2c-.1-.2-.1-.3-.2-.3-.3.1-.1.3-.2.5.2-.133.4-.233.6-.3v-.1Zm-16.4 28.6c0 .067.034.167.1.3-.1 0-.1.1-.2.2h.2l.3-.6c-.2.1-.3.1-.4.1Zm.5-32.9v.1c.3 0 .4.3.7.1 0-.3-.3-.2-.5-.3 0 0-.1.1-.2.1Zm6.1 24v-.1l-.2-.2c-.1 0-.2.1-.3.1 0 .1 0 .3-.1.5.133-.133.233-.266.3-.4.134.067.234.1.3.1Zm-6.1-23.1c.1.2.2.3.4.2.2-.1.3-.3.2-.5-.1 0-.1.1-.1.2 0 .067-.033.1-.1.1 0 .1-.1 0-.2 0h-.2Zm14.7 16.3v-.1a1.568 1.568 0 0 0-.3.4v.1c.1.2-.1.2-.2.3.2.1.3-.1.5-.7Zm-7.7 4.9c0 .067.034.1.1.1l.1-.1c0-.3.2-.3.4-.3a1.166 1.166 0 0 0-.3-.2s-.1 0-.2.1c.067.067.1.134.1.2l-.2.2ZM8.3 8.644c.4.4.6.4.7.2-.1 0-.2-.1-.3-.1a.888.888 0 0 0-.4-.1Zm24.5 9.8c0-.1-.1-.1-.2-.1-.1-.1-.2 0-.2 0-.1.1-.1.2 0 .2.1.2.4 0 .4-.1Zm-6.9-1c0-.066.033-.1.1-.1-.6-.1 0-.4-.2-.7-.1.3-.2.5-.3.7.133 0 .267.034.4.1Zm-7.8 13.7c0 .067.034.1.1.1.1 0 .3.1.4 0 .2-.1.2-.3.3-.4l-.1-.1c-.067.067-.1.134-.1.2-.1.2-.2.3-.3.2-.1-.1-.2 0-.3 0Zm18.8-4.5h-.1c-.4 0-.3.4-.3.6l.4-.6Zm-26.4-20.5h-.3c.5.4.6.4.7.2-.1-.1-.2-.1-.4-.2Zm15.2 10.4c.3 0 .4-.1.5-.6a1.168 1.168 0 0 0-.3.2c0 .067.033.134.1.2-.1.1-.2.1-.3.2Zm5 5.9c-.2.1-.4.2-.2.4h.3c.1 0 .2-.1.2-.1-.1-.1-.4.1-.3-.3Zm-.7 7.1-.1-.1c-.066.067-.1.134-.1.2-.067.067-.1.134-.1.2l-.2-.2c-.1.1-.1.2-.1.2.1.1.2.2.3.2.134-.133.233-.3.3-.5Zm-8.2 4.5c.4-.3.4-.4.4-.9-.2.3-.3.6-.4.9Zm-2.1-17.9c-.2.067-.366.167-.5.3-.066 0-.1.034-.1.1 0 0 0 .1.1.1l.1-.1c.1 0 .2-.1.3-.1.2-.1.2-.2.1-.3Zm-8.5-13.6h.1c.1-.2.4-.4.3-.7l-.2.2c-.1.1-.1.3-.2.5Zm21.4 15.4.2.2c.067 0 .1.033.1.1.067-.067.133-.166.2-.3h-.5Zm-.6 8.1s-.4-.1-.4 0c-.067 0-.133.034-.2.1l.1.1c.3.1.4.1.5-.2Zm1.7-8.4h-.1c-.3.1-.3.1-.3.6l.4-.6Zm-8.2 1.9-.1.1c.1.1.1.1.2.1.2.067.333-.133.4-.6l-.2.2c.1.4-.1.3-.3.2Zm4.9 6.1v-.1l-.2.2c.1.1.2.2.3.2.1 0 .2-.1.3-.2a.886.886 0 0 0-.4-.1Zm-23.7-11.8c.1.2.2.3.3.4.067-.133.1-.233.1-.3l-.4-.2v.1Zm13.6 15.6c.467-.066.633-.267.5-.6-.1.2-.1.6-.6.3.1.1.1.2.1.3Zm-3.1-21.5c-.2.2-.3.1-.3-.1-.1.1-.2.1-.3.2.2.1.3.1.5.2 0-.1 0-.1.1-.3Zm8.6 32.3c0-.067.034-.133.1-.2h-.4v-.1l-.2.2c.2 0 .367.033.5.1Zm6.5-13.6c-.067.2-.167.434-.3.7.2 0 .4-.3.3-.7Zm-19.3 8.2c.2-.2.4-.3.6-.4v-.1l-.2.2c-.1-.1-.1-.2-.1-.3l-.3.6Zm18.3-6.8c-.5 0-.3.5-.5.6l.1.1c.134-.2.267-.433.4-.7Zm-11.5 1.4c-.3-.1-.5-.2-.8-.3.3.4.4.4.8.3Zm12.2-17.1h.2c.1-.2.2-.4.2-.7-.1.1-.3.2-.2.2.1.2-.1.3-.2.5Zm-16.4 11.7c0 .1-.1.2 0 .2h.1c.3.1.5-.2.4-.6-.1.2-.1.2-.1.3-.1.1-.1.2-.1.2-.1 0-.2 0-.3-.1Zm-8.2-6.9h-.1c0 .067-.033.134-.1.2 0 .2 0 .3-.2.2 0 0-.1.1-.2.1.2.1.3.1.4.1l.2-.6Zm22.1 7.9c.2.2.5.2.6-.1-.2.1-.3.1-.3-.1-.067 0-.133.034-.2.1l-.1.1Zm3.1 1.5c.2.3.3.3.5.1a1.163 1.163 0 0 1-.3-.2c-.067 0-.133.034-.2.1Zm-25-13.8v-.1c-.067 0-.133.033-.2.1-.067-.067-.1-.133-.1-.2-.4.1-.1.3-.2.5.1-.1.1-.2.1-.2a.887.887 0 0 1 .4-.1Zm-.2 5.4v-.1c-.133.2-.233.4-.3.6v.1c.3-.1.2-.4.3-.6Zm20.8 10.3c0-.066-.033-.1-.1-.1-.2.1-.4.4-.3.6.133-.2.267-.366.4-.5Zm-13.3-15.3h-.6v.1c.133.067.3.1.5.1 0 0 .1-.1.1-.2Zm-6.2-2c.067-.2.133-.366.2-.5a1.166 1.166 0 0 0-.3-.2v.2c.5.1-.1.4.1.5Zm15.1 18.2c-.067 0-.1-.033-.1-.1a1.163 1.163 0 0 1-.2.3c0 .067-.033.133-.1.2 0 .067-.033.1-.1.1l.1.1c.1 0 .2 0 .2-.1.067-.133.133-.3.2-.5Zm3.1 8.9c-.133-.067-.233-.1-.3-.1h-.2c.2.2 0 .3-.1.6l.2-.2c0-.2.1-.266.3-.2l.1-.1Zm1.7-26.3c0 .067-.033.134-.1.2.133.067.267.1.4.1.1 0 .1-.1.1-.1-.1-.1-.2-.1-.4-.2Zm3.2 16.3c-.1 0-.2.1-.2.1-.067.2-.1.367-.1.5.1.1.3-.3.3-.6Zm5.5-1.5a1.16 1.16 0 0 1-.2.3l.4.2c0-.067.033-.1.1-.1-.1-.1-.2-.2-.3-.4Zm-19.5-2.4v.2c.1 0 .3.1.3 0 .2-.1.2-.3.3-.5h-.2v.2c-.1.2-.2.3-.4.1Zm-13.2-8.5.4-.6c-.067-.067-.133-.1-.2-.1a9.6 9.6 0 0 0-.2.7Zm22 12.8h-.1a3.86 3.86 0 0 1-.2.5v.1c.2-.133.3-.333.3-.6Zm2.6-16.5-.1.2.1.1c.1 0 .3 0 .4-.1-.2-.1-.3-.1-.4-.2Zm-21.7 1.2a1.25 1.25 0 0 1-.3.5s.1 0 .1.1c.133-.133.233-.267.3-.4l-.1-.2Zm.8-3.3c.2.067.367.133.5.2 0-.067.033-.1.1-.1a1.566 1.566 0 0 1-.4-.3c0 .067-.067.133-.2.2Zm22.1 14.9.1-.1a1.567 1.567 0 0 0-.3-.4c-.1.1-.2.2-.2.3 0 .2.3 0 .4.2Zm-18.6 19.1-.4.6c.3.1.4-.2.4-.6Zm11-2.5c.2-.1.4-.5.3-.7l-.2.2c.3.2-.2.3-.1.5Zm13-13.8c-.1-.2-.1-.3-.1-.4-.1 0-.3-.2-.4 0 .1.1.3.2.5.4Zm-2.6-.8c.4-.1.4-.1.5-.2h-.2c-.1 0-.2-.1-.3-.1v.3Zm-9.8 1.1-.1-.1c-.067 0-.133.034-.2.1v.1c.067 0 .1-.033.1-.1h.1c.3.1.4-.1.3-.4-.1.1-.1.2-.2.4ZM9.8 7.944v.1c.2 0 .3.2.5 0v-.1c-.067 0-.133.033-.2.1-.067-.133-.1-.233-.1-.3-.133.067-.2.134-.2.2Zm11.2 22.5c.133-.133.3-.267.5-.4-.2 0-.2-.1-.3-.1 0 0-.1.1-.2.1v.4Zm3.4 8.8c.2.1.4-.2.3-.5l-.2.2c0 .134-.033.233-.1.3Zm2.8-12.3c.2-.1.4-.4.4-.6-.4 0-.3.4-.4.6Zm-23-15c.1-.1.3-.2.5-.3-.2 0-.3 0-.5-.1v.4Zm11.4 17.8c0 .2-.033.367-.1.5.2-.133.367-.267.5-.4a.887.887 0 0 1-.4-.1Zm-4.5-10.8c-.4.1-.4.1-.2.4l.2-.4Zm-.9-11.5c-.2-.1-.4-.1-.5-.1v.2h.3c.1 0 .1-.1.2-.1Zm-.6 2.4c-.2.134-.367.3-.5.5l.1.2c.2-.3.3-.5.4-.7Zm4.8 7.9c.2-.1.3-.3.3-.6-.066.067-.133.1-.2.1.3.2-.1.3-.1.5Zm19 9.7c-.3.2-.3.1-.4-.1l-.2.2c.4.2.5.2.6-.1Zm-.4-9.8c.2 0 .4-.3.3-.6-.067.2-.167.4-.3.6Zm-15.2 12.3h-.3v-.2c-.1.1-.2.1-.4.3h.5c.1 0 .1-.1.2-.1Zm-11-17.6c-.5 0-.2.4-.4.5 0 .067.033.1.1.1.067-.2.167-.4.3-.6Zm25.3 10.7h-.6c.2.3.5.3.6 0Zm-12.3 7.3c-.1 0-.2-.3-.3 0-.1.1-.1.2-.1.4l.4-.4Zm-5.4-16.4c-.066-.066-.167-.1-.3-.1v.6c.1-.2.2-.3.3-.5Zm1.8-4.7c0-.1-.1-.2-.1-.2-.067.067-.133.1-.2.1v.1c.1.1.3.1.4.1.1 0 .1-.1.2-.2h-.1c-.066 0-.133.033-.2.1Zm11.1 3.4c.3-.1.2-.4.4-.6-.5 0-.2.5-.4.6Zm12.1 14.1c-.1 0-.2.1-.3.1v.5c.133-.2.233-.4.3-.6Zm-31.3-15.9h.2c.067-.2.1-.367.1-.5 0-.066-.033-.1-.1-.1 0 .2-.1.4-.2.6Zm14.6 17.1c.1.1.2.1.2.1.067-.2.167-.367.3-.5l-.1-.1a3.31 3.31 0 0 0-.4.5Zm3.7 11.3-.2.2a.887.887 0 0 1-.1.4c.1.1.3-.2.3-.6Zm6.8-24.4h-.1c-.067.2-.167.4-.3.6.3-.1.3-.2.4-.6Zm-16.9-5.9c.2.1.3.1.3.1.1 0 .2 0 .3-.1-.2-.1-.3-.1-.4-.2l-.2.2ZM4 17.444v.1c.133-.2.233-.4.3-.6l-.1-.1-.2.2h.1a.889.889 0 0 0-.1.4Zm6.1-11v.2c.1.1.2.1.2.1.1 0 .1-.1.2-.2-.2 0-.3 0-.4-.1Zm2.5 10.8c-.067 0-.167.034-.3.1l.2.2c-.067.067-.133.1-.2.1.2.067.3-.067.3-.4Zm-11.5-6.2c.2-.1.3-.3.2-.6-.1.2-.2.4-.2.6Zm8.7-2c-.133.2-.233.4-.3.6.2 0 .4-.3.3-.6Zm21.9 17.4c-.1.1-.2.1-.2.2v.4c.2 0 .3-.2.2-.6Zm-15-23c0-.1-.1-.2-.1-.2-.067 0-.167.034-.3.1.1.1.1.2.1.2.134 0 .234-.033.3-.1Zm-5.6 6.6c0-.067-.033-.1-.1-.1-.1.2-.2.3-.3.5.3 0 .4-.2.4-.4Zm9.1 36.9h-.1c-.133.2-.233.4-.3.6l.4-.6Zm-7.6-1.9c.2.1.4-.1.3-.5-.066.134-.167.3-.3.5Zm-5.8-32.1a1.567 1.567 0 0 0-.3.4c.133 0 .267-.066.4-.2 0 0-.1-.1-.1-.2Zm4-9c-.1.1-.3-.3-.4 0 .2.267.333.267.4 0Zm1.8 4.8h-.1c-.067 0-.166.034-.3.1 0-.1 0-.2-.1-.3-.067.133-.1.234-.1.3.1 0 .2.1.4.1l.2-.2Zm16.3 2.4v.2h.3c.1 0 .1 0 .1-.1-.1 0-.3-.1-.4-.1Zm1.9 15.8.1.1.3-.6c0-.066-.033-.1-.1-.1-.067.2-.167.4-.3.6Zm3 .6c-.3.1-.3.1-.3.6l.3-.6Zm-3-6.9c.4.2.4.2.5.1l-.3-.3-.2.2Zm-15.4-14.4c.1 0 .1 0 .1-.1.133-.133.2-.267.2-.4v-.1c-.066 0-.133.033-.2.1-.067.133-.1.233-.1.3v.2Zm-.8 39.9.1.1c.067-.2.167-.367.3-.5-.067-.067-.133-.1-.2-.1a3.86 3.86 0 0 1-.2.5Zm5.2-39.5c-.067 0-.133-.033-.2-.1a3.88 3.88 0 0 1-.2.5l.1.1c.133-.2.233-.366.3-.5Zm11.8 18.1h.1a4.01 4.01 0 0 0-.2.5c.4-.1.2-.4.4-.6l-.1-.1-.2.2Zm-22.9-12.8s.1 0 .1-.1a1.164 1.164 0 0 1-.3-.2l-.2.2c.1 0 .2.1.4.1Zm-6 2.8c.1-.2.2-.3.3-.4v-.2h-.1l-.1.1c0 .2 0 .3-.1.5Zm7.5-7.5c0-.1.1-.2.1-.3-.1 0-.3.1-.5.1.2.1.3.2.4.2Zm15.9 8.4c-.133-.066-.2-.133-.2-.2-.066.067-.1.134-.1.2.1 0 .3.1.4.1 0 0 .1-.1.1-.2-.067 0-.133.034-.2.1Zm-3.8 16.9c0 .134.034.234.1.3.2-.066.233-.2.1-.4-.067 0-.133.033-.2.1Zm9.7-4.5v.5l.3-.6h-.1c-.1 0-.1.1-.2.1Zm-19.9-11.2c0 .067.034.1.1.1l.2-.6c-.066 0-.167.034-.3.1l.1.1c0 .133-.033.233-.1.3Zm-5.7-3.7c-.133.134-.233.3-.3.5-.1 0 0 .1 0 .2.133-.266.233-.5.3-.7Zm25.2 9.3c0 .067-.067.134-.2.2.2.1.4.2.6 0-.1 0-.2-.1-.4-.2Zm-14.6 11c.2 0 .3-.2.2-.5-.1.2-.2.4-.2.5Zm4.3 1a3.86 3.86 0 0 1-.2.5c0-.1.4-.2.2-.5Zm5.5 4.1h-.1c-.066.134-.166.3-.3.5.3-.1.3-.3.4-.5Zm-11.1-7.8h.1l.2-.6h-.1l-.2.6Zm-6.2-21.7-.3.3v.2c.1 0 .2 0 .2-.1a.888.888 0 0 0 .1-.4Zm7.9-.9v-.1l-.2.6c.2-.1.2-.3.2-.5Zm-.6 31.2c.2 0 .4-.2.4-.6l-.4.6Zm-.1 1c-.4.2-.4.2-.2.5.1-.2.1-.3.2-.5Zm-12.2-28.2v-.1c-.3.1-.2.4-.3.5v.1c.134-.2.233-.366.3-.5Zm18.2 6.1v.5c.134-.2.233-.4.3-.6h-.1c-.066.067-.133.1-.2.1Zm8.4 5.1c.2.2.4.2.6.1-.133-.066-.233-.1-.3-.1h-.3Zm2.8 2.9c-.066 0-.1-.033-.1-.1-.1.1-.3.2-.1.5l.2-.4Zm-21.1-18.4h.1c.067-.133.133-.3.2-.5-.2.1-.2.1-.3.5Zm4-4.1-.2.2c.133.067.267.1.4.1v-.1l-.2-.2Zm7 22.1c-.5.1-.2.5-.4.6 0 .067.033.1.1.1.067-.2.167-.433.3-.7Zm0 14.7v.1h.5l-.3-.3-.2.2Zm-7.7-30.2c-.067 0-.1-.033-.1-.1l-.3.3.2.2.2-.4Zm12.8 2.2-.1-.1-.2.2c-.067-.066-.1-.133-.1-.2-.1 0-.1.1-.1.2.1 0 .2.1.3 0 0 0 .1-.1.2-.1Zm-16.2-8.7h.1c0-.1.2-.2.2-.4l-.1-.1c-.066.2-.133.367-.2.5Zm8.4 13.2H21a1.25 1.25 0 0 1-.3.5l.1.1c.133-.2.233-.4.3-.6Zm6.6-6.4c0 .134-.033.234-.1.3h.4l-.3-.3Zm-2.8 15.8c-.4 0 0 .3-.3.4h.1l.2-.4Zm-14.3-16.7h-.1a3.86 3.86 0 0 1-.2.5v.1c.133-.2.233-.4.3-.6Zm5.7 24.6c.1-.1.2-.2.2-.4-.2.1-.3.1-.4.1.067.134.133.234.2.3Zm21.8-7-.3-.3c0 .1-.1.2-.1.4.1-.1.2-.1.4-.1Zm-7-7.7v-.1a.886.886 0 0 1-.4-.1v.2h.4Zm-16.9-2.4h.1c.067-.133.167-.3.3-.5-.067 0-.1-.033-.1-.1l-.2.2a.886.886 0 0 1-.1.4Zm1.4-4.8-.1-.1a1.163 1.163 0 0 1-.2.3c.1 0 .1.1.2.1 0-.133.033-.233.1-.3Zm12.1 17.9c-.3.1-.1.3-.2.5.1-.2.4-.2.2-.5Zm-.4-17.5h-.1c-.066.2-.133.367-.2.5.2 0 .3-.3.3-.5Zm-20.6 3.6h-.1v.2H7v-.1c-.067 0-.133.034-.2.1-.067-.066-.1-.133-.1-.2Zm24.2 8.1c.067-.067.1-.133.1-.2-.3.2-.2 0-.4-.1l-.1.1.2.2h.2ZM20 10.044a4.9 4.9 0 0 0-.3.5c.2 0 .4-.3.3-.5Zm-12.5 6.4c0 .1.1.2.1.3.1-.2.1-.3.2-.5-.1.1-.2.1-.3.2Zm13.3 3.2-.1-.1-.2.6h.1c.067-.133.133-.3.2-.5Zm8.6-9.1c.1 0 .3-.3.3-.6l-.3.6Zm-17.2 35.2-.1-.1-.2.4v.1h.1l.2-.4Zm-2.9-38.8c-.1.1-.1.2-.2.3.2 0 .3.3.5 0h-.3v-.3Zm3.7-4.9c0 .067-.033.1-.1.1.1.1.2.1.3.1h.2v-.1a.888.888 0 0 1-.4-.1Zm12.5 16.9h-.1a1.165 1.165 0 0 0-.2.3h.4c-.067-.133-.1-.233-.1-.3Zm-15.3.3-.1.1c.133.067.267.1.4.1 0 0 .1-.1.1-.2h-.4Zm17.1 8c0-.067-.033-.1-.1-.1a1.165 1.165 0 0 0-.2.3s.1.1.1 0l.2-.2Zm-9.4-12c.2 0 .4-.3.3-.6-.066.2-.166.4-.3.6Zm0-11.1c0 .1-.1.1-.2.3h.4c0-.1-.1-.2-.2-.3Zm-10.3 6.9c-.2-.2-.3-.2-.4-.3l-.2.2c.2 0 .4 0 .6.1Zm1.1-1.5c-.066 0-.167-.033-.3-.1l-.1.1c.1 0 .3.4.4 0Zm19.1 20v.6l.3-.6h-.3Zm.6 4.5h.5l-.3-.3a1.165 1.165 0 0 0-.2.3Zm-10.3-4.7c.2.3-.1.3-.1.5.3-.1.2-.3.3-.5h-.2Zm4.3-15h-.1a3.86 3.86 0 0 0-.2.5c.2 0 .3-.2.3-.5Zm-7.2-7c-.066 0-.1-.033-.1-.1-.3.1-.3.2-.2.4l.3-.3Zm19.4 33.9c.1.5.3.9.2 1.3-.1 0 0 .1-.1.1-.2.1 0 .4-.2.6.1.2 0 .3-.1.3s-.1.1-.1.2h.1c-.066.467-.3.6-.7.4-.1.7-.6 1.2-1.1 1.7l-.4.4c-.1.1-.3 0-.4.1 0 .1 0 .3-.1.4a11.02 11.02 0 0 0-.8.9h-.1c-.1.1-.2.1-.2.1 0 .4-.3.5-.5.7l-.4.4c-.2.2-.5.2-.7 0-.1 0-.2.1-.2.1-.3-.2-.8-.2-1-.6 0-.2-.1-.4-.1-.6.1-.4.1-.7.2-1.1.1-.4.4-.8.8-1.1.2-.133.4-.3.6-.5.2-.1.3-.2.3-.4-.1-.4-.1-.8.3-1.1.1-.2.3-.3.4-.5.1-.3.3-.3.5-.3h1.3c.5 0 .8-.2 1-.6.2-.2.3-.3.6-.1l.2-.1c.2-.4.3-.5.7-.7Zm-.4 1.3h-.1c-.067 0-.133.034-.2.1.3.2 0 .3 0 .4h.1c.067-.133.133-.3.2-.5Z" clip-rule="evenodd"/>
  <path fill="#A54293" fill-rule="evenodd" d="M25.7 47.044h-.1v-.2h.2c0-.066.034-.1.1-.1v-.3h.1v-.1c0-.066.033-.133.1-.2v-.2c0-.066.034-.133.1-.2v-.1c0-.066.033-.1.1-.1v-.4l.1-.1v-.3h.1v-.5c.067-.066.1-.133.1-.2v-.2c0-.066.034-.133.1-.2h-.2l-.1-.1c0-.066.033-.1.1-.1h.1c.067 0 .133-.033.2-.1h.4c0-.066.033-.066.1 0l.1.1-.1.1c-.067-.066-.1-.066-.1 0h-.1c-.067 0-.1.034-.1.1v.4c.067 0 .067.034 0 .1v.1h.1v.4c0 .067.034.1.1.1v.1l.1-.1v-.2h.1c0-.066.033-.1.1-.1v-.2h.1v-.1l.1-.1s0-.1.1-.1c-.1 0-.1 0 0-.1 0-.066.034-.1.1-.1-.066 0-.066-.033 0-.1 0-.1 0-.1.1-.1v-.1s.1-.1 0-.1v-.1h.1v-.1h.4c.067-.066.134-.1.2-.1h.1l.1.1v.1h-.1c-.067.067-.133.1-.2.1-.067-.066-.1-.066-.1 0h-.1v.4c-.066.067-.066.1 0 .1h-.1v.4h-.1v.1c.067 0 .067 0 0 0v.3h-.1c.067 0 .1.034.1.1-.066 0-.1.034-.1.1v.3H28h.1c-.067.067-.067.1 0 .1v.1H28v.1c-.1.1 0 .1 0 .2h-.1v.5c-.066 0-.1.034-.1.1h.1v.1h-.1.1c0 .067-.033.1-.1.1l.1.1h-.1s.1 0 .1.1h.2s0-.1.1 0v.1c.067.067.067.1 0 .1 0 .067-.033.067-.1 0 0 .067-.033.067-.1 0h-.1c0 .067 0 .067 0 0h-.1v.1h.1v.2l-.1.1v-.1h-.1v.1h-.1v-.1l-.1-.1c.067-.066.067-.1 0-.1l-.1.1c-.066 0-.1-.033-.1-.1l-.1-.1h.1v-.1h.1l.1-.1c0-.066.033-.133.1-.2v-.8h.1v-.299c0-.133.033-.233.1-.3v-.2l.1-.1v-.4c0-.066.033-.1.1-.1v-.1c-.067 0-.1.034-.1.1l-.1.1c0 .067-.033.134-.1.2v.1c-.066.067-.1.134-.1.2-.067 0-.1.034-.1.1l-.1.1v.1l-.1.1v.2c0 .067-.033.1-.1.1H27v-.1c-.067-.066-.1-.133-.1-.2v-.3l-.1-.1v-.2c0 .067-.033.1-.1.1v.299c-.066.134-.1.234-.1.3 0 .067-.033.167-.1.3 0 .067-.033.134-.1.2v.1l-.1.1v.2a1.167 1.167 0 0 0-.2.3v.2h.1c.067-.066.134-.066.2 0l.1.1-.1.1h-.3l-.1.1c-.067.067-.1.134-.1.2h-.2v-.2Zm2.1-.9c.067 0 .1-.033.1-.1h-.1v.1Zm0 .3v.1-.1Zm.4-2.3c.067 0 .067 0 0 0Zm-2.9-1v.1h-.4c0 .067 0 .067 0 0l-.1.1h-.1c-.066 0-.1.034-.1.1-.1-.1-.1 0-.2 0l-.1.1H24v.1h-.3c0 .067-.033.1-.1.1h-.2v.4l-.1.1v.4c.067 0 .1.034.1.1.067 0 .1.034.1.1.067 0 .1.034.1.1h.1c0 .067.033.1.1.1v.1h.1v.1h.1v.1c.067 0 .1.034.1.1.1 0 .1.1.2.1 0 .067.034.1.1.1v.1h.1c0-.066.033-.1.1-.1l.1-.1h.2c0 .067-.033.1-.1.1 0 .067-.033.134-.1.2-.066 0-.1.034-.1.1h-.1c0 .067-.033.1-.1.1v.1l-.1.1-.1.1c0-.066-.033-.1-.1-.1 0-.066.034-.1.1-.1v-.1c.067 0 .1-.033.1-.1-.067 0-.1-.033-.1-.1v-.1c-.066 0-.133-.033-.2-.1 0-.066-.033-.1-.1-.1v-.1h-.1v-.1h-.1c0-.1-.1-.1-.1-.2h-.1c-.067-.066-.1-.133-.1-.2h-.1v-.1h-.1v.2h-.1v.1c0 .067-.033.167-.1.3v.2l-.1.1v.1c0 .067.033.1.1.1h.2v.1h.1v.1h-.4c0 .067-.033.067-.1 0 0 .067-.033.1-.1.1h-.3v-.2h.2v-.1c0-.066.034-.133.1-.2v-.3l.1-.1v-.2l.1-.1v-.2c0-.066.033-.133.1-.2v-.1h-.1v-.1h-.1l-.2-.2v-.1h-.1v-.1c-.067 0-.067-.033 0-.1h.1c0-.066.034-.1.1-.1.067 0 .1-.033.1-.1 0 .067.034.067.1 0 .067 0 .1-.033.1-.1h.1c.067 0 .1-.033.1-.1v-.2l.1-.1v-.4c.1 0 0 0 .1-.1v-.4l.1-.1v-.1c0-.066.033-.1.1-.1v-.1c0-.1 0-.2.1-.2v-.4h.1v-.1h.1c.067 0 .1.034.1.1v.1c-.067 0-.067.033 0 .1 0 .067.033.134.1.2l.2.2v.1c.067 0 .1.034.1.1h.1v.1c.067 0 .1.034.1.1l.1.1c.1.1.2.1.2.2l.1.1.1.1v.1h.1v.1s.1 0 .1.1Zm-1.4-1.4-.1.1v.2c0 .067-.033.134-.1.2v.3h-.1v.5h-.1v.5h.1c0-.1.1-.1.2-.1h.1l.1-.1h.1c.067 0 .1-.033.1-.1h.3l.1-.1h.3c.067-.066.067-.1 0-.1-.066-.066-.1-.133-.1-.2h-.1v-.1c0-.066-.033-.1-.1-.1 0-.066-.033-.1-.1-.1l-.1-.1v-.1h-.1v-.1c-.067 0-.1-.033-.1-.1-.066 0-.1-.033-.1-.1a1.164 1.164 0 0 1-.2-.3Zm-.9 2.6c0-.066.033-.1.1-.1v-.3H23v.1h-.2v.1l.2.2Zm5.2-4.8v.1h-.1c.067 0 .1.034.1.1h-.1v.1c0 .067-.033.134-.1.2v.1h.1c-.067 0-.1.034-.1.1v.1c-.067 0-.067.034 0 .1v.1l-.1.1v.4c.067 0 .067 0 0 0v.1c-.066 0-.066.034 0 .1l-.1.1.1.1-.1.1v.5l-.1.1c.067.067.067.1 0 .1v.1c.067 0 .067 0 0 0v.2h.2c.067 0 .067.034 0 .1v.1l-.1.1h-.6v-.2c.067 0 .067 0 0 0l.1-.1h.2v-.2c.067-.066.1-.166.1-.3v-.6c.067 0 .1-.033.1-.1v-.7c.067-.066.1-.133.1-.2v-.1a.9.9 0 0 1 .1-.4c0-.133.033-.266.1-.4v-.4.1l-.1.1h-.1v.1h-.1c0 .1 0 .2-.1.2v.1h-.1v.1h-.1.1l-.1.1h-.1v.1c0 .1-.1.1-.1.2-.066 0-.1.034-.1.1v.1c0 .067-.033.1-.1.1v.1h-.1l-.1-.1v-.1a.888.888 0 0 0 .1-.4c0-.2.033-.4.1-.6 0-.066-.033-.1-.1-.1v.2h-.1v.2c-.1 0-.1.1-.1.1 0 .1 0 .1-.1.1 0 .067-.033.134-.1.2h-.1v.1c0 .067-.033.1-.1.1v.1h-.1v.2h-.1c0 .1-.1.1-.1.1v.1c-.067 0-.1.034-.1.1l-.1.1h.1s.1 0 0 .1l.1-.1c0 .067.034.1.1.1v.1c-.067 0-.067.034 0 .1H26c-.067 0-.133-.033-.2-.1h-.1c-.066 0-.133-.033-.2-.1-.1 0-.1-.1 0-.1v-.1c.067.067.134.1.2.1.067-.133.1-.233.1-.3a1.16 1.16 0 0 0 .2-.3l.2-.2c.067-.066.134-.166.2-.3.067-.066.134-.166.2-.3 0-.066.034-.166.1-.3l.2-.2v-.1l.1-.1c-.067 0-.1-.033-.1-.1v-.1h.2c0-.066.034-.066.1 0h.3v.3h-.2v.1l-.1.1v.6c-.066 0-.1.034-.1.1h.1v-.1l.2-.2.1-.1v-.1h.1c.067-.066.1-.133.1-.2.067 0 .1-.033.1-.1l.1-.1c.067-.066.1-.133.1-.2v-.1c.067-.066.067-.1 0-.1h.1v-.1c.067.067.133.1.2.1h.4v.1c0 .067-.033.1-.1.1v.1h-.3v.1c0 .067-.033.1-.1.1v.4Zm-1.2-.7-.1-.1c0 .067.033.1.1.1Zm1 .2h.1-.1Zm5.6 7.7v-.2h-.1v-.1c0-.066.033-.133.1-.2h.1v-.1c.067 0 .067-.033 0-.1h.1l.1-.1c.067 0 .1-.033.1-.1l.1-.1.1-.1.1-.1c.067 0 .1-.033.1-.1 0-.066.033-.1.1-.1l.1-.1.1-.1.1-.1v-.1c.067-.066.067-.1 0-.1v-.1c0-.066.034-.1.1-.1.067.067.1.134.1.2v.1h.1c0-.066.033-.1.1-.1h-.1.1l.1-.1v.1c.067.067.067.1 0 .1 0 .067-.033.1-.1.1-.067.067-.1.134-.1.2v.4c.067.067.1.134.1.2 0 .134.033.234.1.3v.1h.2l.1.1c0 .067-.033.1-.1.1h-.2v.1h.1v.2h-.1v.1h-.1v.1c-.1 0-.1 0-.1.1H35v.1h-.1v.1c-.066 0-.1.034-.1.1l-.1.1v.1h-.1v.1c-.1 0-.1 0-.1.1-.067 0-.1.034-.1.1h-.1v.1h-.1v.1c-.067 0-.1.034-.1.1 0 .067-.033.067-.1 0-.1 0-.1-.1-.1-.1v-.1c-.066-.133-.1-.233-.1-.3v-.2l-.1-.1v-.2c0-.066-.033-.133-.1-.2v-.2Zm.5.9.1-.1c.067-.066.1-.133.1-.2l.1-.1.1-.1.1-.1.1-.1.1-.1.1-.1v-.4h-.3c0-.1-.1 0-.1-.1h-.2c-.067-.066-.133-.1-.2-.1H34c0 .067-.033.1-.1.1v.1h-.1v.1h-.1v.1h.1v.2c.067 0 .1.034.1.1v.3l.1.1v.3c0 .067.033.1.1.1Zm.7-2.1h-.2v.1h-.1v.1c-.067 0-.1.034-.1.1-.066 0-.133.034-.2.1v.1h.3c0 .067.033.1.1.1h.3c-.1-.2-.1-.4-.1-.6Zm-3.6-6.6v-.1h-.1v-.1c-.067-.066-.067-.1 0-.1v-.1h.1l.1-.1v.2c.067.067.1.134.1.2v.1h.1c-.067.067-.067.1 0 .1v.1h.1v.1h.1c-.066.067-.066.134 0 .2l.1.1v.1l.1.1v.1-.1.2h.1c-.1 0 0 0 0 .1.067 0 .067.034 0 .1h.1v.1h.1v.1h-.1.1c0 .067 0 .067 0 0 0 .067.033.1.1.1v.1h.1v.1h-.1l.1.1h.3c0 .067-.033.1-.1.1v.1h-.1.1v.1h-.1c0 .067-.033.1-.1.1 0-.066 0-.066 0 0l-.1-.1h-.1v.1H32v.1h-.1c-.066 0-.1.034-.1.1h-.1c-.066.067-.1.067-.1 0 0 .067-.033.1-.1.1s-.133.033-.2.1v.1c.067 0 .067.034 0 .1l.1.1v.2h.1v.1h.1v.1h.1c-.066 0-.066 0 0 0v.2h.1c-.067 0-.067 0 0 0 .067-.066.1-.133.1-.2v-.1h.2v.1c-.1 0 0 .1 0 .1H32v.3c0 .1-.1.1-.1.2h-.1v.1-.1h-.1c0-.066-.033-.133-.1-.2 0-.066-.033-.133-.1-.2 0 0-.1-.1-.1-.2h-.1c0-.066-.033-.133-.1-.2v-.1c-.066 0-.1-.033-.1-.1v.3l-.1.1v.4h-.1v.2h.3v.2h-.5c-.066 0-.133-.033-.2-.1v-.1h.1l.1-.1v-.2l.1-.1v-.4c0-.066.034-.1.1-.1v-.3c.067-.066.1-.133.1-.2v-.2c0-.1 0-.1.1-.1v-.4h.1v-.3c0-.066.033-.133.1-.2v-.1h-.1c.067 0 .1-.033.1-.1v-.1c0-.066.034-.1.1-.1v-.6c0 .067-.033.1-.1.1v-.3h-.1c0-.1.1-.1.1-.1h-.1Zm.4.9c0-.066-.033-.1-.1-.1v.3c-.067 0-.067 0 0 0 0 .067-.033.1-.1.1.067.067.067.134 0 .2v.3l-.1.1v.4l-.1.1v.2l.1-.1c.067 0 .1-.033.1-.1h.2c0-.066.034-.1.1-.1.067-.066.134-.1.2-.1h.1v-.1h.1c.067 0 .1-.033.1-.1 0-.066-.033-.1-.1-.1 0-.1-.1-.1-.1-.2s-.1-.1 0-.1c-.067 0-.1-.033-.1-.1-.066 0-.1-.033-.1-.1v-.1c-.067 0-.1-.033-.1-.1-.066-.066-.066-.1 0-.1h-.1v-.1Zm0-.1v.1-.1Zm.5.7H32c0 .067 0 .067 0 0h.1Zm-.4-.6c-.066 0-.066 0 0 0Zm.4.8v-.1H32c.067 0 .1.034.1.1Zm-.8-1.9v.1-.1Zm-.1 0v.1-.1Zm.5.9-.1-.1c0 .067.034.1.1.1Zm.4.7c0 .067 0 .067 0 0Zm-.4-.6.1.1c0-.066-.033-.1-.1-.1Zm.1.2h-.1.1Zm.1.3v-.1.1Zm0 1h.1v-.1c-.067 0-.1.034-.1.1Zm.2-.5v-.1.1Zm-.6-1.6h-.1.1Zm.4 1.2h.1v-.1c-.067 0-.1.034-.1.1Zm2.9 0h.1v-.1c0 .067 0 .067 0 0h.4c.067 0 .067 0 0 0v.1h.1l-.1.1h-.1c-.067 0-.1.033-.1.1v.3c-.067 0-.1.034-.1.1v.3s-.1 0 0 .1c-.067 0-.1.034-.1.1v.5h-.1v.1h.1c0 .1 0 .1.1.1v-.1c.067.067.1.067.1 0h.1v.1c.067 0 .1-.033.1-.1h.2v.1h.3c-.067 0-.067 0 0 0v.1h-.1c0 .1.1.1 0 .1h-.9v.7c.067.067.1.134.1.2v.3h.2v.2H35v.1c0-.1-.1 0-.1 0h-.4c0 .067-.033.1-.1.1l-.1-.1h-.1l.1-.1h.1v-.1h.2l.1-.1c0-.066-.033-.1-.1-.1v-1l-.1-.1-.1.1h-.3c-.067 0-.1.033-.1.1v.1l-.1-.1v.1c0 .067-.033.1-.1.1v.2c-.067 0-.1.033-.1.1v.1h-.1v.2h-.1v.3h.1v.2c-.067-.066-.1-.066-.1 0h-.4v-.2c0-.066.033-.066.1 0v-.1h.1c0-.066.034-.1.1-.1v-.2c.067-.066.1-.133.1-.2l.1-.1v-.1l.1-.1v-.1l.1-.1v-.1h-.5c-.067 0-.1-.033-.1-.1v-.1c.067-.066.133-.066.2 0 0-.066.033-.066.1 0h.2v-.1l.1.1c.067 0 .1-.033.1-.1h.1v-.1c0-.066.033-.1.1-.1v-.1l.1-.1v-.1c.067 0 .1-.033.1-.1l.1-.1v-.1h.1v-.1c0-.066.033-.1.1-.1v-.1l.1-.1v-.1h.1v-.2l.1-.1h-.1.1c-.066 0-.1-.033-.1-.1v-.1Zm-.1.9-.1.1v.2c-.067 0-.1.034-.1.1-.067.067-.1.067-.1 0v.1s0 .1-.1.1c.067 0 .067.034 0 .1l-.1.1v.1h.4v-.3c.067 0 .1-.033.1-.1v-.2c.067-.066.067-.1 0-.1l.1-.1v-.3c.067-.066.1-.133.1-.2-.1.1-.1 0-.1.1 0 0 0 .1-.1.1 0 .1.1 0 .1 0v.1h-.1v.1Zm0-.3c.067 0 .067-.033 0-.1v.1Zm.1-.6v.1-.1Z" clip-rule="evenodd"/>
  <path fill="#A54293" fill-rule="evenodd" d="M29.6 41.345h-.7c-.066 0-.1.033-.1.1v.1c-.067 0-.1.033-.1.1v.1c0 .066-.033.133-.1.2h.1c0 .066.033.1.1.1 0 .066-.033.1-.1.1h-.4c-.067 0-.133-.034-.2-.1l.1-.1h.2c.067 0 .1-.034.1-.1v-.1c0-.067.033-.1.1-.1v-.2l.1-.1h-.4.4c0-.067.033-.1.1-.1v-.2c.067 0 .1-.034.1-.1.067-.067.1-.134.1-.2l.1-.1v-.2h.1v-.1c.067 0 .1-.067.1-.2 0 0 0-.1.1-.1v-.2h.1c0-.067.033-.134.1-.2v-.3c.067 0 .1-.034.1-.1v-.2l.1-.1v-.4c-.067 0-.1-.034-.1-.1h-.1c.1 0 .1-.1.2 0 .1-.1.1-.1.2-.1h.4v.2h-.3c-.067 0-.1.033-.1.1h.1c-.067 0-.1.033-.1.1v.3c-.067 0-.067 0 0 0v.1h-.1c.067.066.067.1 0 .1v.3l-.1.1v.1h.1l-.1.1v.8c-.067 0-.067 0 0 0 0 .066-.033.1-.1.1 0 0 .1 0 .1.1v.1h-.1.1v.1h-.1v.2c.067.066.1.066.1 0 .067.066.133.066.2 0 .067 0 .1.033.1.1h.1c0-.067.033-.067.1 0h.4l.1.1H30c-.067 0-.133-.034-.2-.1l-.1.1v.6h-.1c.1.1.1.1.1.2v.1c.1 0 .1.1.2.1 0 .066.033.1.1.1h-.2c-.067.066-.1.066-.1 0l-.1.1s-.1-.1-.1 0c0-.1-.1-.1-.1-.1h-.2v-.1h.2c0-.067.033-.1.1-.1v-.8l.1-.1v-.1Zm-.6-.4v.2l-.1.1.1.1c.067-.067.167-.1.3-.1v.1c.067 0 .133-.034.2-.1h.1v-.7c.067-.067.1-.167.1-.3v-.4h-.1c.067 0 .067.033 0 .1v.1c-.067 0-.1.033-.1.1 0 .1-.1.1-.1.1v.2c-.1 0-.1 0-.1.1l-.1.1v.1l-.1.1c0 .066-.033.1-.1.1Zm-.3 3.399h.1v-.1h-.1c.1 0 .1-.1.1-.1h.1v-.1h.2l.4-.2h.3c0-.066.033-.1.1-.1v.1h.1v.1c0 .1 0 .1-.1.1v.1h-.2l-.1.1h-.2l-.1.1h-.2v.1c.067 0 .1.033.1.1v.1l.1.1c0 .067.033.1.1.1h.6l.1.1h.1v.1h-.3c-.067 0-.133-.033-.2-.1h-.2v.1c0 .067-.033.1-.1.1h-.1c0 .067-.033.1-.1.1h-.1c-.1 0-.1.1-.1.1h-.2l-.1.1h-.1v.2h.1v.2c.067 0 .1.034.1.1v.1h.1v.1c.1 0 0 .1.1.1v.1l.1.1v.1s0 .1-.1.1h-.2c0-.066-.033-.133-.1-.2v-.1l-.1-.1v-.1c-.1 0-.1-.1-.1-.1 0-.066-.033-.1-.1-.1v-.2c-.067 0-.1-.033-.1-.1v-.1h-.1v-.1c-.066 0-.066-.033 0-.1l.1-.1c0-.1.1-.1.1-.1h.3c.067 0 .1-.033.1-.1h.3l-.1-.1h.1c-.067-.066-.133-.1-.2-.1h-.2l-.1-.1h-.1v-.1h.1c.067.067.133.1.2.1h.1v-.1h-.1v-.3h-.1Zm.1 0c0 .067 0 .067 0 0Z" clip-rule="evenodd"/>
  <path fill="#A54293" d="M26 45.445v.1h-.1v-.1.1h-.1c0-.067-.033-.1-.1-.1l-.1-.1c-.067 0-.1-.034-.1-.1h-.1l-.1-.1h-.2v-.1H25l-.1-.1h-.1c0-.067-.033-.1-.1-.1-.066 0-.1-.034-.1-.1h-.1c-.067 0-.1-.034-.1-.1h-.1l-.1-.1c-.066-.067-.066-.1 0-.1v-.1h.1c.067.066.133.066.2 0h.6c.067.066.1.066.1 0h.1c.067 0 .133.033.2.1.067 0 .1-.034.1-.1h.1c0 .066 0 .066 0 0h-.1l-.1-.1c-.067 0-.1-.034-.1-.1h-.2c-.066 0-.1-.034-.1-.1h-.3v-.1c-.067 0-.1-.034-.1-.1h-.1v-.1h.1c.067-.067.133-.1.2-.1l.1-.1h.1l.1-.1c.067 0 .1-.034.1-.1h.2l.2-.2h.1a1.15 1.15 0 0 1 .3-.2l.1-.1c.067 0 .1.033.1.1h.1v.1l-.1.1h-.1l-.1.1-.1.1h-.2v.1c-.1 0-.1 0-.2.1h-.1c-.1 0-.1.1-.2.1v.1h-.2v.1c-.067 0-.1.033-.1.1.067 0 .134.033.2.1.067 0 .167.033.3.1.067.066.167.1.3.1l.1.1c.067.066.133.1.2.1s.1.033.1.1h-.9c-.067-.067-.1-.067-.1 0-.066-.067-.133-.067-.2 0h-.3c0-.067 0-.067 0 0h-.1c.067.066.167.133.3.2l.1.1c.067 0 .134.033.2.1.067.066.133.1.2.1.133.066.234.133.3.2h.1l.1.1c.067 0 .1.033.1.1Zm7 .499v.1c-.067 0-.1.034-.1.1 0 .067-.033.1-.1.1h.1v.1h-.1v.1l-.1.1h.1l-.1.1v.2c-.067 0-.1.034-.1.1v.3h-.1v.3c-.067 0-.1.034-.1.1v.1h.4c.067.067.133.1.2.1v-.1c.1 0 .1.1.1.1v.2h-.3c0-.066-.033-.1-.1-.1h-.8l-.1-.1c-.067-.066-.067-.1 0-.1h.4c0-.066.033-.1.1-.1v-.2c0-.066.034-.133.1-.2v-.3c.067 0 .1-.033.1-.1 0-.066.033-.166.1-.3v-.2c.067-.066.1-.133.1-.2.067-.066.1-.166.1-.3.067-.066.1-.166.1-.3 0-.066-.033-.066-.1 0l-.1-.1h-.1l.1-.1v-.1c.067 0 .133.034.2.1.1 0 .1 0 .1-.1.067.067.1.067.1 0 .067 0 .133.034.2.1h.2v.2h-.4v.1c-.067.067-.067.1 0 .1H33v.2Zm3.2-1.299H36c0-.067-.033-.1-.1-.1h.1c.067-.067.1-.067.1 0h.2v-.1c-.067-.067-.1-.134-.1-.2h.1c0 .066.034.1.1.1v-.1l.1-.1v-.3h.1v.3c0 .066-.033.133-.1.2h.1c0-.067.033-.1.1-.1l.1.1v.1s0 .1-.1.1c-.067 0-.1.033-.1.1h.1c.067 0 .133.033.2.1h.1l.1.1v.1c-.1-.1-.2-.1-.3-.1h-.1l.1.1c0 .066.034.1.1.1-.066.066-.1.066-.1 0-.067 0-.1-.034-.1-.1-.067 0-.1-.034-.1-.1-.067 0-.1-.034-.1-.1v.1l-.1.1v.5c-.066 0-.1-.034-.1-.1v-.4h-.1c0 .066-.033.1-.1.1H36v-.1c-.067 0-.067 0 0 0 0-.067.033-.1.1-.1 0-.067.033-.1.1-.1v-.1Zm-3-3.301-.1-.1c-.067 0-.1-.033-.1-.1h.6v.1c0 .1-.1.1-.1.1h-.2l-.1.1v.4h-.1v.2c0 .067-.033.134-.1.2v.5c0 .067-.033.1-.1.1h.1-.1v.2h.1l.1.1v.1H33v.1c-.067-.066-.133-.066-.2 0-.067 0-.1-.033-.1-.1h-.2v-.1c0-.066.033-.1.1-.1h.1v-.1c.067 0 .1-.033.1-.1v-.3c.067-.066.1-.133.1-.2v-.3l.1-.1c.067-.2.1-.366.1-.5l.1-.1Zm-7 .901v-.1l.1-.1c0-.067.034-.134.1-.2v-.1l-.1-.1h.2c0 .066.033.066.1 0l.1-.1v-.1h.1l.1-.1h.1c0 .066.033.1.1.1v.1l-.1.1-.1.1c0 .1 0 .1-.1.1v.1c-.067 0-.067 0 0 0v.1c.067 0 .1.033.1.1v.1l-.1-.1c0-.067-.033-.1-.1-.1-.066 0-.1.033-.1.1h-.1v.1c0 .066-.033.1-.1.1v-.1h-.2Zm-.3-3.201c0-.066-.033-.1-.1-.1v-.1h-.1v-.1c0-.066-.033-.133-.1-.2v-.1c-.067-.066-.1-.133-.1-.2h.1l.1-.1c0 .067.033.1.1.1v.1l.1.1v.1c.067.134.1.234.1.3.067.067.1.134.1.2.1 0 .1.1.2.2v.1h-.1c0 .067-.033.067-.1 0v.1c-.1-.1-.1 0-.1-.1v-.1c-.067 0-.067 0 0 0h-.1v-.2c-.066 0-.066 0 0 0Z"/>
  <path fill="#A54293" fill-rule="evenodd" d="M36.9 47.744v-.1h-.1c-.067-.066-.133-.1-.2-.1-.067-.066-.167-.1-.3-.1-.067 0-.133-.033-.2-.1h-.2l-.1-.1h-.1c0 .1 0 .1-.1 0v-.1l.1-.1v-.1h.1l.1-.1.1-.1h.1v-.1h.1c0-.066.033-.1.1-.1 0-.066.034-.1.1-.1.1 0 .1-.1.1-.1h.1c0-.066.033-.1.1-.1l.1-.1.1-.1c.067 0 .133-.033.2-.1h.1v-.1c.067 0 .1-.033.1-.1h.1v-.1h.1l.1-.1c.067 0 .1-.033.1-.1v.3h-.1c0 .067-.033.1-.1.1v.1h-.1c0 .1-.1.1-.1.1-.067 0-.1.034-.1.1l-.1.1c-.067 0-.1.034-.1.1-.067 0-.133.034-.2.1h-.1c0 .067-.033.1-.1.1l-.1.1-.1.1h-.1v.1l-.1.1c-.067 0-.133.033-.2.1s-.067.1 0 .1h.1c.067 0 .1.034.1.1h.2c.067 0 .133.034.2.1h.2v.1h.1c.067 0 .1.033.1.1h.2v.1c.067 0 .1.034.1.1-.1 0-.1.1-.1.1h-.1v.1h-.2c0 .067-.033.1-.1.1h-.1l-.1.1c-.067 0-.1.034-.1.1h-.2v.1h.1v.2h-.1l-.1-.1-.1-.1c-.067 0-.1.034-.1.1-.067 0-.067 0 0 0 0 .067.033.1.1.1s.133.034.2.1v.1h-.1c0-.066-.033-.1-.1-.1h-.2v-.1h-.3v.1c-.1-.1-.1 0-.1 0h-.1c-.066.067-.133.1-.2.1s-.133.034-.2.1h-.2c0 .067-.033.1-.1.1h-.2c-.067 0-.1-.033-.1-.1v-.1h.1c0-.066.033-.066.1 0v-.1h.2v-.1c0 .067.034.1.1.1 0-.066.033-.1.1-.1h.1v-.1h.2c0-.066.034-.1.1-.1h.1c0-.066-.033-.133-.1-.2v-.1h-.1c.067 0 .067 0 0 0v-.1c.067.067.133.1.2.1s.1.034.1.1c0 .067.033.1.1.1.1 0 .2-.1.2-.1h.1v-.1c.067-.066.1-.066.1 0h.2v-.1h.2l.1-.1h.2l.1-.1Zm-1.1.5h-.1v.1c0-.066.033-.1.1-.1Z" clip-rule="evenodd"/>
  <path fill="#A54293" d="M37.4 46.844h.1v.1h-.1v.1c0-.066-.033-.1-.1-.1l-.1-.1h-.1c0 .067-.033.1-.1.1v.1h-.2c-.1 0 0-.1-.1-.1.067 0 .1-.033.1-.1.067-.066.133-.1.2-.1v-.2h.1c.067.067.1.067.1 0 .067-.066.133-.1.2-.1h.1c0-.066 0-.066 0 0h.1v.2h-.2v.2Z"/>
  <path fill="#A54293" fill-rule="evenodd" d="M33.5 44.445v.1l-.1.1v.1h-.1v.1s-.1 0-.2.1h-.2v-.3c0-.067.033-.1.1-.1 0-.067.033-.1.1-.1s.1-.034.1-.1h.2v.1h.1Zm-.2.2c0-.1-.1-.1-.1-.1h-.1v.1c-.067 0-.1.033-.1.1h.2l.1-.1Z" clip-rule="evenodd"/>
  <path fill="#A54293" d="M24.8 40.644h-.6v-.1c0-.066.033-.1.1-.1h1v.1l-.1.1h-.4Zm9.1-.499c.067 0 .1.033.1.1 0 .066-.033.1-.1.1.067.066.067.1 0 .1 0 .066-.033.1-.1.1v.1h-.1c0 .1 0 .1-.1.1v.1h-.2c-.067-.067-.067-.1 0-.1v-.1h.1v-.1c.1-.1.1-.1.1-.2h.1c.1-.1.1-.2.2-.2Zm-8.7-.801h-.1v-.1h.1l.1-.1.1.1c.067 0 .1.034.1.1.067 0 .1.034.1.1h.1l.1.1h.1v.1h-.3c0-.066-.033-.1-.1-.1h-.1v-.1h-.1c0-.066-.033-.1-.1-.1Zm.4.701-.1.1c0-.067-.033-.067-.1 0h-.1c0-.067-.033-.1-.1-.1H25c-.067 0-.1-.034-.1-.1v-.1h.4c.067.066.133.1.2.1s.1.033.1.1Zm5.6-1.1h-.1v-.1c.1 0 .1.1.1.1Zm5.4 5.299v-.1h.1l-.1.1Zm-5.4-5.2h.1v.1l-.1-.1Z"/>
  <path fill="#A54293" fill-rule="evenodd" d="M29.9 47.444v-.1h-.1c.067-.066.133-.1.2-.1v-.1c.067 0 .1-.033.1-.1h.1c.1 0 .1-.1.1-.1v-.4c.067-.066.1-.133.1-.2v-.2a.887.887 0 0 0 .1-.4c0-.133.033-.266.1-.4v-.5c.067-.066.1-.133.1-.2v-.2c.067 0 .067-.033 0-.1v-.1h-.1c-.1-.1-.1-.1-.1-.2h-.1.1c.067 0 .1-.033.1-.1l.1.1v.1h.1c0 .067.034.1.1.1l.1-.1v.2c0 .067.033.1.1.1l.1.1c0 .067.033.1.1.1v.1h.1v.1c.067 0 .1.034.1.1.067 0 .1.033.1.1h.1v.1l.1.1c0 .067.034.1.1.1v.1c.067 0 .1.033.1.1.067 0 .1.034.1.1l.1.1v.1h.2v-.1l.1.1v-.1s0 .1.1.1v.1h-.1v.1c-.067-.066-.1-.066-.1 0h-.1c0 .067-.033.1-.1.1l-.2.2h-.1c-.066 0-.1.034-.1.1-.067 0-.167.033-.3.1v.1h-.1c-.066 0-.1.034-.1.1h-.1c-.066.067-.133.1-.2.1l-.1.1c-.1 0-.1 0-.2.1h-.1c-.067.067-.133.1-.2.1v.1c-.066 0-.133.034-.2.1-.066 0-.133.034-.2.1h-.1Zm1.2-.9.1-.1h.1c0-.066.034-.1.1-.1h.1c0-.066.033-.1.1-.1s.1-.033.1-.1h.1l.1-.1h.1v-.2l-.1-.1-.1-.1-.2-.2c0-.066-.033-.1-.1-.1v-.1l-.1-.1v-.1c-.066 0-.1-.033-.1-.1h-.1v-.1h-.1c0-.066-.033-.1-.1-.1v-.1h-.1v.3c-.066.067-.066.1 0 .1 0 .1 0 .1-.1.2v.7c0 .067-.033.134-.1.2v.5h-.1c0 .067.034.1.1.1.067-.066.134-.1.2-.1h.1v-.1h.1Zm-.4-.7v-.1.1Z" clip-rule="evenodd"/>
  <path fill="#A54293" d="M31.3 46.044v.1h-.1v-.2h-.1c-.067 0-.1-.033-.1-.1.067 0 .1-.034.1-.1a.425.425 0 0 0 0-.4c.067-.067.1-.067.1 0h.2v.1c0 .067-.033.133-.1.2h.2c.067-.067.1-.067.1 0v.1s-.1-.1-.1 0c-.067.066-.133.1-.2.1v.1c.067 0 .067.033 0 .1Z"/>
  <path fill="#A54293" fill-rule="evenodd" d="M29.2 51.345v.4h.1c0 .066-.033.1-.1.1h-.1c0-.067-.033-.1-.1-.1v-.3c0-.067-.033-.1-.1-.1v-.2c.067-.067.067-.1 0-.1h.1-.1l-.1-.1h-.2c-.067 0-.1-.034-.1-.1h-.2c-.067 0-.1.033-.1.1l-.1.1c0 .066-.033.133-.1.2 0 .066-.033.133-.1.2h-.1l-.1-.1c.067 0 .1-.034.1-.1v-.1h.1v-.2c.067 0 .1-.034.1-.1v-.1h-.3l-.1-.1c0-.067-.033-.1-.1-.1.067-.067.1-.067.1 0h.2c.067 0 .133.033.2.1h.1v-.1h.1v-.1l.1-.1c0-.067.034-.1.1-.1v-.1c.067 0 .067-.034 0-.1h.1v-.1c.067 0 .1-.034.1-.1v-.1h.1v-.2h.1v-.1h.1v-.2h.1v-.1c0-.067.033-.1.1-.1 0-.067.034-.1.1-.1v-.1c.067 0 .1-.034.1-.1.067 0 .1-.034.1-.1v-.1s.1 0 0-.1c.1 0 .1 0 .1-.1h.1v-.2h.1c0-.067 0-.067 0 0h.2l-.1.1v.2h-.1v.2l-.1.1v.1c0 .066-.033.1-.1.1v.1l-.1.1v.2l-.1.1c.067 0 .067.033 0 .1v.2c0 .066-.033.1-.1.1.067.066.067.1 0 .1v.6c0 .066-.033.1-.1.1l.1.1c-.1 0 0 .1-.1.1h.1c0 .066.033.1.1.1h.2c.067 0 .1.033.1.1h.3c.067 0 .1.033.1.1h.1c0 .066.034.1.1.1v.1h-.1c0-.067-.033-.1-.1-.1h-.2c-.067 0-.1-.034-.1-.1h-.3c-.066-.067-.1-.067-.1 0v-.1h-.1v.2c-.066 0-.066.033 0 .1Zm-.3-1.4h-.1v.1l-.1.1c0 .066-.033.1-.1.1 0 .066-.033.133-.1.2v.1c-.067.066-.1.133-.1.2h.2c.067 0 .1.033.1.1h.2v-.7c.067 0 .067-.034 0-.1l.1-.1v-.2c-.067 0-.1.033-.1.1v.1Z" clip-rule="evenodd"/>
  <path fill="#A54293" d="M26.5 49.944v.8l.1-.1v-.1l.1-.1c.067-.066.1-.133.1-.2h.1v-.2c.067 0 .1-.033.1-.1.067 0 .1-.033.1-.1l.1-.1v-.1c.1 0 .1-.1.1-.1l.1-.1v-.1l.1-.1c0-.066.033-.1.1-.1v-.1c.067 0 .1-.033.1-.1 0-.066.033-.1.1-.1v-.1c0-.1.1-.1.1-.1 0-.1.1-.1 0-.1h.1v-.1c0-.1-.1 0-.1-.1v-.1h.1c0-.066.033-.1.1-.1v-.1l.1.1h.3c0 .067.033.1.1.1h.1l-.1.1h-.1c0 .1-.1 0-.1 0 0 .067-.033.1-.1.1l-.1.1c0 .067-.033.1-.1.1h.1c-.1 0-.1.1-.1.1l-.1.1v.1h-.1v.1h-.1v.1l.1.1h-.1v.1h-.1v.2h-.2c0 .067.033.1.1.1h-.1v.1c0 .067-.033.1-.1.1h-.1v.1c0 .067-.033.1-.1.1v.1h-.1v.2H27v.1c-.067 0-.1.033-.1.1v.1c-.066 0-.1.034-.1.1v.1h-.1v.3h.4v.1H27v.1h-.3c0 .067-.033.1-.1.1h-.2v.1h-.3v-.2h.2v-1.7s.1-.1 0-.1h.1v-.1h-.1v-.3c0-.066.034-.1.1-.1v-.1c-.066 0-.066 0 0 0v-.7h-.1v-.2h.4l.1-.1h.4c0 .067-.033.1-.1.1 0 .067-.033.1-.1.1-.067.067-.1.067-.1 0-.066 0-.1.034-.1.1h-.2v.3l-.1.1h.1c0 .067-.033.1-.1.1v.1h.1v.1c-.067 0-.067 0 0 0v.1c-.067 0-.067 0 0 0v.1l-.1.1c.067 0 .067 0 0 0v.7Zm6 1.8c0-.1-.1-.1-.1-.1h-.1v-.1h-.1v-.1c-.1 0-.1 0-.1-.1h-.2v-.2c0-.066.033-.1.1-.1-.067 0-.067-.033 0-.1h.1c0-.1 0-.1.1-.1h.4l.1-.1h.2l-.1-.1-.2-.2h-.1c-.067 0-.1-.033-.1-.1l-.1-.1h-.1c.067 0 .1-.033.1-.1v-.2h.2c0-.066.033-.1.1-.1 0-.066.033-.1.1-.1h.2v-.1h.2v-.1h.1s0-.1.1-.1h.1l.1-.1h.1v-.1l.1.1c0 .067.033.133.1.2h-.2c-.1 0-.1.1-.1.1h-.1v.1h-.1c-.067 0-.1.034-.1.1h-.1c-.067 0-.133.034-.2.1h-.1l-.1.1-.1.1h-.1v.1h.1l.1.1.1.1.1.1c.067 0 .1.034.1.1.067.067.133.1.2.1v.1h.1c0 .067.034.1.1.1l-.1.1H33v.1c-.067-.066-.133-.1-.2-.1h-.1v.1h-.3l-.1.1h-.1.1l.2.2c0 .067.033.1.1.1l.1.1c.067.067.167.134.3.2v.1h.1c0 .1.1.1.1.2l.1.1v.1h-.2v-.1H33c0-.066-.033-.1-.1-.1v-.1h-.1v-.1h-.1v-.1h-.1v-.1h-.1Z"/>
  <path fill="#A54293" fill-rule="evenodd" d="M22.4 47.945v-.1h.1c.067 0 .1-.034.1-.1h.5l.1-.1h.6c.067 0 .1.033.1.1v.1h-.8l-.1.1h-.2v.1h.1c0 .066.033.1.1.1l.1.1h.1v.1h.1l.1.1h.1v.1h.1l-.1.1v.1c-.067-.067-.1-.067-.1 0l-.1-.1c-.067-.067-.1-.067-.1 0h-.1c-.067.066-.1.066-.1 0h-.1l-.1.1h-.1c0 .066-.033.066-.1 0v.1h.1v.1c.1 0 .1 0 .2.1h.1c0 .066.033.1.1.1h.1l.1.1h.1l.1.1h.1l.1.1.1.1h-.1l.1.1h-.2v-.1h-.1c-.067 0-.1-.034-.1-.1h-.1c-.067 0-.1-.034-.1-.1H23c0-.067-.033-.1-.1-.1-.066 0-.133-.034-.2-.1-.066 0-.1-.034-.1-.1h-.1l-.1-.1h-.1v-.4h.3l.1-.1c0 .066.033.1.1.1v-.1h.3c-.067-.067-.133-.1-.2-.1-.066-.067-.133-.1-.2-.1-.066 0-.1-.034-.1-.1h-.1c-.067 0-.1-.034-.1-.1-.066 0-.066-.034 0-.1Zm-.6 1.399h-.1v-.2c-.066-.066-.1-.133-.1-.2v-.2c-.067.067-.133.1-.2.1 0 .067-.033.1-.1.1 0 .067-.033.1-.1.1h-.4c-.067-.066-.067-.1 0-.1l-.1-.1v-.1h.1v-.2c0-.066.034-.1.1-.1v-.1h.1v-.1s.1 0 .1-.1h.1c.067-.066.1-.066.1 0h.3c.067.067.1.067.1 0v-.1c0-.1.1-.1.1-.1v-.1l.1-.1v-.1l.1-.1v-.3l.1-.1v-.1c.067 0 .133.034.2.1 0 .067.034.1.1.1h-.1v.3l-.1.1v.2c0 .067-.033.1-.1.1v.1l-.1.1v.1h-.1v.3c-.066 0-.1.034-.1.1v.2c0 .1 0 .1.1.2v.2c0 .067.033.1.1.1h-.1c0 .067-.033.067-.1 0Zm-.4-.7c.067 0 .1-.033.1-.1h.1v-.2h-.1c-.1 0-.1-.1-.2 0-.067-.066-.1-.066-.1 0-.066 0-.133.034-.2.1v.1l-.1.1v.3h.2v-.1h.1v-.1h.1l.1-.1Zm.7-.9v-.1.1Zm9.3 2.9v.1l-.1.1v.1l-.1.1v.1c-.1 0-.1 0-.1.1v.1l-.1.1c.067 0 .1-.033.1-.1v.1H31v.2h-.1v.2c0 .067-.033.133-.1.2h.1v.1h.6c.067.067.134.1.2.1h.1c.1.1.1.1.2.1-.067 0-.1.034-.1.1l-.1-.1h-.3c-.067 0-.133-.033-.2-.1h-.5v-.1l-.1.1h-.1v-.4h.1v-.2c.067-.066.067-.1 0-.1h.1v-.1h.1v-.3h.1v-.2h.1v-.1h.1l-.1-.1h.1v-.1c.067 0 .1-.033.1-.1v-.1c.067 0 .1-.033.1-.1v-.2h.1v-.2c.067 0 .1-.033.1-.1v-.2h.1v-.2h.1v-.1c0-.066.034-.1.1-.1h.1v.1c-.067 0-.1.034-.1.1v.2c0 .067-.033.1-.1.1 0 .067-.033.134-.1.2v.2h-.1v.2h-.1c.067 0 .1.034.1.1h-.1v.1c0 .067-.033.1-.1.1Zm.3-.9h.1-.1Z" clip-rule="evenodd"/>
  <path fill="#A54293" d="M24.8 47.744v-.1.2l-.1.1v.2h-.1c.067.067.067.1 0 .1v.2c0 .067-.033.1-.1.1 0 .067.033.067.1 0l-.1.1v.1l-.1.1c.067.067.067.134 0 .2v.2c-.1 0 0 .1-.1.1v.4h-.1v.2h-.1v.1c0 .067.034.1.1.1l.1-.1h.3c.067 0 .1.034.1.1h.1v.1h-.1c0 .067-.033.067-.1 0h-.3c-.067 0-.133.034-.2.1h-.2v-.3c0-.066.033-.166.1-.3v-.1h.1c-.067 0-.067-.033 0-.1v-.2h.1-.1s0-.1.1-.1c-.1-.1 0-.1 0-.2v-.2c.067 0 .1-.033.1-.1v-.2c0-.066.034-.1.1-.1v-.2h.1v-.3c.067 0 .1-.033.1-.1v-.2h.2-.1l.1.1Zm10.4 3.701h-.1l-.1.1h-.1c0 .066-.033.1-.1.1h-.1c0 .066.033.1.1.1l.1.1c.067.066.1.133.1.2 0 .066-.033.1-.1.1v-.1h-.1c0-.067-.033-.1-.1-.1v-.1h-.2v.4c-.067.066-.1.133-.1.2-.066-.067-.066-.134 0-.2v-.4h.1c0-.067-.033-.1-.1-.1h-.1v.1c0-.067-.033-.1-.1-.1v.1H34v-.1l.1-.1h.2v-.1h-.1v-.1c-.067-.067-.067-.1 0-.1h.1l.1.1c.067 0 .1.033.1.1v-.1c.067-.067.1-.167.1-.3 0-.067.033-.1.1-.1v-.301c.067-.067.1-.167.1-.3.067-.067.1-.134.1-.2 0-.067.033-.134.1-.2v-.1h.1v-.1c.067-.067.1-.134.1-.2v.1c0 .1-.1.2-.1.2v.1l-.1.1v.1c0 .066-.033.1-.1.1v.4l-.1.1v.2c0 .066-.033.133-.1.2 0 .066-.033.133-.1.2h.2c.1 0 .2-.1.2-.1h.1c.067-.067.1-.067.1 0v.1Zm-5.2-1h.3c0 .066.034.1.1.1h.4v.1h-.7c-.067-.067-.1-.067-.1 0 0-.067-.033-.1-.1-.1-.066 0-.1-.034-.1-.1v-.2h.1v-.4h.1v-.1h-.1.1v-.1l.1-.1H30c.067 0 .1-.034.1-.1.067 0 .1-.034.1-.1 0-.067.033-.134.1-.2v-.2c.1 0 .1 0 .1-.1 0-.067.033-.1.1-.1v-.1l.1-.1v.2l-.1.1v.1c0 .066-.033.1-.1.1v.2c0 .066-.033.1-.1.1v.2c-.1 0 0 .1-.1.1v.299h-.1v.2c0 .066-.033.133-.1.2v.1Z"/>
  <path fill="#A54293" fill-rule="evenodd" d="M25.6 48.945c0 .066.034.066.1 0v-.2c.067 0 .067 0 0 0 .067-.067.067-.1 0-.1h.1v.299c0 .066-.033.133-.1.2v.1h.4-.1c-.067 0-.133.033-.2.1h-.1c0 .066-.033.133-.1.2.1 0 0 .1 0 .1v.1h-.1l-.1-.1c.067-.067.1-.134.1-.2v-.2h-.1v.1-.1h-.2v-.1h.3c.067 0 .1-.034.1-.1v-.1Zm0 .2v-.1.1Z" clip-rule="evenodd"/>
  <path fill="#A54293" d="m19.7 49.544.1-.1c.067 0 .1-.033.1-.1.067-.067.133-.1.2-.1h.1c0-.067.033-.133.1-.2h.1v.1h.1l-.1.1-.1.1h-.1l-.1.1H20c0 .1-.1.1-.1.1h-.2Zm1-1.5h-.4v-.1h-.1c-.066 0-.1-.033-.1-.1l.1-.1h.1c0 .1.1.1.2.1 0 .067.033.1.1.1l.1.1Zm.3-.4h-.1l-.2-.2v-.2h.1c.067.067.1.134.1.2h.1v.2Zm.4-4.799.1-.1h.1c.067 0 .1-.034.1-.1h.1v-.1l-.1-.1h-.1v-.3c0 .066.034.1.1.1.067 0 .1.033.1.1.067 0 .1.033.1.1.067 0 .1-.034.1-.1v-.1c.067 0 .067 0 0 0l.1-.1v-.1c0-.067.034-.134.1-.2v.4c-.066.066-.1.133-.1.2v.1c0-.067.034-.067.1 0v-.1h.2v-.1h.1c0 .066.033.1.1.1v.1h-.1c-.1 0-.1.1-.2.1v.1l.1.1v.1h-.2v-.1c-.066-.067-.133-.1-.2-.1a.888.888 0 0 1-.1.4v.1c0 .066-.033.1-.1.1v.1a.886.886 0 0 1-.1.4v.1c-.066.133-.1.233-.1.3-.067 0-.1.033-.1.1 0 .066-.033.1-.1.1v.2h-.1c0-.067.034-.1.1-.1v-.1s0-.1.1-.2v-.1c0-.067.033-.1.1-.1v-.2l.1-.1v-.4c.067-.067.1-.134.1-.2v-.1c.067 0 .1-.034.1-.1v-.1c0-.067-.033-.067-.1 0h-.1c-.1 0-.1.1-.2.1h-.1c-.066-.067-.066-.1 0-.1Z"/>
  <g style="mix-blend-mode:multiply">
    <path fill="#BA539F" fill-rule="evenodd" d="M30 29.944c-.1 0-.2-.1-.3-.1v.6c-.1.2-.2.4-.2.6v.1c-.067.267-.166.5-.3.7-.4.9-.8 1.7-1.4 2.5-.3.5-.7.9-1 1.4a5.751 5.751 0 0 0-.9.9c-.533.4-1.1.8-1.7 1.2a3.26 3.26 0 0 1-.5.4c-.267.133-.5.233-.7.3-.5.3-1.1.5-1.6.6a5.34 5.34 0 0 1-1.1.3H20v-.4c-.3.1-.6.1-.8.3a1.168 1.168 0 0 0-.3.2c-.133.067-.3.1-.5.1-.3 0-.6-.1-1 0-.666-.067-1.3-.133-1.9-.2h-1.1c-.066 0-.167-.033-.3-.1h.4c.067 0 .1-.033.1-.1-.2 0-.367-.033-.5-.1h-.2c-.3-.1-.3-.1-.4.2l-.8-.4v-.1c-.2-.2-.5-.3-.7-.4-.333-.2-.7-.4-1.1-.6-.3-.1-.5-.4-.9-.6l-.4-.4a1.567 1.567 0 0 0-.3-.4s0-.1-.1-.3l-.1-.1c-.1 0-.2-.1-.2-.2 0-.2-.1-.3-.2-.4a1.165 1.165 0 0 0-.2-.3c-.3-.2-.3-.5-.4-.7l-.2-.2c-.1-.2-.2-.3-.3-.5-.2-.4-.4-.8-.4-1.2a10.488 10.488 0 0 1-.3-1.4v-.2c-.2-.1-.2-.3-.1-.5 0-.2.1-.5-.1-.7-.1-.1-.1-.3-.1-.4 0-.4.034-.833.1-1.3v-1.5a87.42 87.42 0 0 1 .2-1.5c.067-.4.133-.767.2-1.1.1-.3.2-.7.3-1.1.1-.8.4-1.5.6-2.3l.4-1.2.4-.8 1 .3a1.164 1.164 0 0 0-.2.3c-.067.067-.1.133-.1.2 0 .1 0 .3-.1.4-.1.2-.2.3-.2.5-.2.3-.2.6-.3.9-.1.1-.2.2-.1.4l-.1.2c-.2.2-.233.4-.1.6-.2 0-.3.2-.3.4 0 .133-.033.233-.1.3 0 .2-.2.3 0 .5 0 0 0 .1-.1.2-.067.067-.1.167-.1.3.1.1.1.2 0 .3-.2.3-.2.5 0 .7-.2.2-.3.4-.2.6v.2c-.2.3-.1.8-.2 1.1v.1c.1.1 0 .2 0 .3-.1.1-.1.3 0 .5v.1c-.2.2-.1.3-.1.5 0 .1.1.2.1.2-.1.2-.1.4 0 .6 0 .2.1.3 0 .4 0 .1-.1.2 0 .3.1.2.1.3 0 .6v.1c.133.267.2.533.2.8v.2c.067.133.1.267.1.4 0 .1 0 .3.1.4.067.133.1.267.1.4 0 .2.1.4.3.6.1 0 .1.2.1.2 0 .267.1.5.3.7.1.1.2.1.2.2 0 .4.3.7.6 1 .1 0 .1.1.2.2 0 .1.1.2.2.3.1.3.4.4.6.5.3.2.6.4.8.6.067.133.133.2.2.2.6.3 1.1.6 1.7.7.2 0 .4.1.6.2.2.1.4.2.7.2.3.1.7.2 1.1.3.534.067 1.067.1 1.6.1h.6c.3-.1.5 0 .7-.1.1-.1.2-.1.2-.1.4.2.8.1 1.1-.1.1-.1.3-.1.4-.1.3 0 .5-.1.7-.2.133-.133.267-.2.4-.2.1 0 .2 0 .2-.1.1-.1.3-.2.5-.2.2-.067.367-.133.5-.2.2 0 .3 0 .4-.1.133-.133.267-.2.4-.2.1 0 .2-.1.3-.2.1-.1.3-.3.5-.4.067 0 .1-.033.1-.1.067-.2.2-.333.4-.4.134-.067.2-.133.2-.2.1-.3.2-.3.5-.3h.3c-.3-.2-.2-.3-.2-.5.1-.1.3-.2.4-.1h.1c.3 0 .5-.1.6-.3 0-.2.1-.3.2-.3.133-.067.2-.167.2-.3-.3 0-.5.1-.5.4 0 .1-.2.1-.3.2H26v-.1c.3-.2.5-.5.7-.8h.1l.2-.2c.067-.267.2-.433.4-.5.1.1.2.1.2.1.1 0 .2-.1.2-.3h-.3c.1-.1.1-.2.2-.2.2-.2.2-.3.3-.5v-.2c.1-.3.1-.6.4-.8h.1c.1-.2.2-.4-.1-.6.2 0 .4-.1.4-.2v-.5c.1 0 .2-.2.2-.4s.1-.3.1-.5c.067-.067.067-.133 0-.2v-.2c.2-.1.3-.2.2-.5v-.3c.1-.2.2-.4 0-.6v-.1c.267-.067.367-.2.3-.4l-.1-.1c-.1-.1 0-.1 0-.2.133-.133.2-.267.2-.4-.1-.2-.1-.2 0-.4.2-.1.2-.2 0-.4-.133-.2-.133-.367 0-.5l1 .3v.2c-.066.2-.1.4-.1.6v.1c.1.2.1.4-.1.5v.2c.067.2.067.367 0 .5 0 .1-.1.2 0 .3v.3l-.2.6c-.067.4-.167.8-.3 1.2v.4Zm-22.9-5.6c.067 0 .1-.033.1-.1l-.1.1Zm0 .7v-.2H7v.2h.1Zm18.3 10.9h-.2c.1.1.1.1.2 0Zm.7-.7c-.2 0-.2 0-.3.1 0 .133.067.2.2.2.067-.067.1-.167.1-.3Zm1.4-1.8c-.2.1-.3.2-.4.3v.1h.1c.2 0 .2-.1.3-.4Zm.6-1.1c0 .067-.067.1-.2.1.2.1.2 0 .3 0l-.1-.1Z" clip-rule="evenodd"/>
    <path fill="#BA539F" d="M26.6 6.645c.3 0 .6.2.9.3-.3-.1-.6 0-.9-.3Zm-1-.401c.267.133.534.234.8.3-.3.1-.6-.1-.8-.3Zm1.7 9.2c0 .067-.033.134-.1.2a1.165 1.165 0 0 1-.3-.2c.1-.2.2-.2.4 0Zm-21.8-2-.1-.1h.1l.1.1h-.1Zm-.6-.3h-.1v-.1h.1v.1Zm14.2-1.6v-.2c.1-.2 0-.4 0-.6v-.7c-.1-.2 0-.3.1-.3 0 .2 0 .3.1.5a.425.425 0 0 1 0 .4v.2c.067.2.033.4-.1.6 0 .067-.033.1-.1.1Zm4.1-.399c-.4.1-.6-.1-.4-.5.2.1.3.3.4.5Zm5-.401c.1-.1.1-.2.2-.3.1 0 .3.1.4.2 0 .1 0 .2-.1.2-.2 0-.3 0-.5-.1Zm.2 1.5c-.133-.067-.2-.166-.2-.3.1-.1.3-.1.4 0 .067.067.067.133 0 .2-.067.133-.133.167-.2.1Zm-5.5-2.799c.2-.1.2-.1.4.1-.1.2-.3.2-.4-.1Zm4.6 23.999c-.1.3-.1.4-.3.4h-.1v-.1c.1-.1.2-.2.4-.3Zm-7-23.2c-.1-.1 0-.2 0-.3h.2c.067.067.134.1.2.1l-.4.2Zm-.9 4.9c-.3.1-.5.1-.6-.2.1-.1.2.1.3.1.067.067.167.1.3.1Zm1.5-.5a.68.68 0 0 1-.5.2c0-.067.034-.133.1-.2 0 0 .3-.1.4 0Zm-10.3 2.6c-.1.2-.3.2-.4.2.1-.2.1-.3.4-.2Zm15 18.1c.1-.1.1-.1.3-.1 0 .133-.033.233-.1.3-.133 0-.2-.066-.2-.2Zm-.3-24.6c.067.133.1.267.1.4-.1.1-.1.1-.2.1 0-.2.033-.367.1-.5Zm-8.7 5c-.2 0-.2 0-.3-.1 0-.1.1-.2.2-.1 0 0 .1.1.1.2Zm10.1-1.3c0 .1 0 .2-.1.2s-.2-.1-.2-.1c.1-.2.2-.1.3-.1Zm-5.1-6.299c-.1.4-.1.4-.4.2.2 0 .3-.1.4-.2Zm-2.5 1.099c0-.2 0-.3.1-.4.2.2.2.3-.1.4Zm.3 2.9c-.2 0-.3-.1-.2-.2 0 0 .1-.1.2-.1v.3Zm-1.4 3.4c.1-.1.1-.1.3-.1 0 .1-.1.1-.3.1Zm4.2-6.9c0-.066.033-.133.1-.2.1.1.1.1-.1.2Zm4.7 10.4c0 .1.1.2.1.3-.2-.1-.2-.1-.1-.3Zm-.7-10c.067.067.067.133 0 .2-.1-.1-.1-.2 0-.2Zm-6.7-.7c.1.1.1.2-.1.2.067-.066.1-.133.1-.2Zm2.2 5.5v-.3h.1v.2l-.1.1Zm3.3 22.1h.2c-.1.1-.1.1-.2 0Zm2.7-3.5c.134 0 .2-.033.2-.1l.1.1c-.1 0-.1.1-.3 0ZM7 25.044v-.2h.1v.2H7Zm15.2-18H22c.067-.066.134-.1.2-.1v.1Zm-4.2 7.6c-.1.1-.1.1-.2 0v-.1c.067 0 .133.033.2.1Zm9-3.1v.1h-.1c0-.067.033-.1.1-.1Zm1.3-1.7h-.1c0-.066.033-.1.1-.1v.1Zm-21.2 14.5.1-.1c0 .067-.033.1-.1.1Zm16.7-9.3h-.1l.1-.1v.1Zm-.8-6.2c-.067 0-.1-.033-.1-.1h.1v.1Zm5.8 5-.1.1v-.1h.1Z"/>
    <path fill="#BA539F" fill-rule="evenodd" d="M16.9 32.044c.267-.066.5-.133.7-.2.4-.1.8 0 1.2.1.3.1.6.2.8.4a30.27 30.27 0 0 1 1.5 1c.2.134.367.267.5.4.1 0 .2.2.4.2l.1.1c0 .1-.1.4-.2.5-.133.267-.3.5-.5.7-.466.4-.966.7-1.5.9-.7.3-1.3.3-2 .4-.4 0-.7-.1-1.1-.1-.8 0-1.5-.2-2.2-.5a3.861 3.861 0 0 1-.5-.2c-.7-.2-1.2-.6-1.7-1.1l-.9-.9c-.067-.066-.1-.133-.1-.2-.1-.4-.3-.8-.3-1.2 0-.1-.1-.2-.1-.3a6.7 6.7 0 0 0-.1-1.1v-.4c0-.267.033-.533.1-.8 0-.2.2-.3.4-.3a48.48 48.48 0 0 1 1.5.4c.5.1 1 .3 1.6.4a4.942 4.942 0 0 1 1.6.5c.133.067.267.167.4.3.067.133.134.234.2.3.067.267.134.5.2.7Zm4.4 2c-.4-.3-.8-.5-1.2-.8-.6-.4-1.3-.7-2-.9-.2-.066-.433-.066-.7 0-.2.1-.3.3-.3.5-.067.2-.167.334-.3.4-.1 0-.3 0-.3-.1-.1-.1-.2-.3-.1-.5.134-.333.067-.633-.2-.9-.3-.3-.7-.6-1.1-.7l-.6-.2c-.8-.3-1.6-.6-2.5-.8h-.1v.1c.3.4.5.8.9 1.1.067 0 .1.034.1.1.4.5.9.9 1.5 1.2.8.534 1.633.967 2.5 1.3.7.2 1.4.4 2.1.3h1.2c.4 0 .7 0 1.1-.1Zm-.5.8h-.2c-.6.067-1.233.033-1.9-.1-.3 0-.7-.1-1.1-.1-.6-.1-1.1-.2-1.7-.5a4.613 4.613 0 0 1-1.3-.6c-.4-.2-.8-.466-1.2-.8-.3-.2-.6-.5-.9-.7-.3-.3-.6-.6-.8-.9 0-.066-.033-.1-.1-.1v.1c0 .8.2 1.5.6 2.1.067.133.134.233.2.3.1.1.2.3.3.4.3.3.6.6 1 .8.134.067.233.134.3.2.733.334 1.5.6 2.3.8h.5c.333-.066.7-.066 1.1 0 .334.067.633.067.9 0a.89.89 0 0 1 .4-.1c.267-.066.5-.133.7-.2.1-.1.3-.2.5-.3.1 0 .2-.1.4-.3Zm-6.8-12.5c.3.2.7.4 1 .7.2.133.3.3.3.5l.2.2c0 .2.1.3.2.5l.2 1.2v.1c0 .334-.133.5-.4.5-.6 0-1.3 0-1.9-.1-.5-.2-1.1-.3-1.6-.6-.467-.333-.9-.7-1.3-1.1-.3-.2-.5-.5-.7-.8a6.54 6.54 0 0 1-.4-.7c-.1-.4 0-.7.4-.8.267-.066.567-.1.9-.1h1.2c.4 0 .8.034 1.2.1.2.1.4.2.7.4Zm-3.4.5v.1a4.395 4.395 0 0 0 1.2 1.7c0 .067.033.134.1.2 1 .5 2 .7 3 .7.1 0 .3 0 .4-.1-.2-.4-.5-.9-.9-1.2-.1.1-.2.3-.3.4-.2.2-.6.3-.9.3-.5 0-1.1-.5-1.2-1.1v-.7c-.5-.2-.9-.3-1.4-.3Zm4.4 1.4c0-.2-.2-.3-.3-.5-.1-.3-.4-.5-.8-.6l-.1-.1c-.4-.2-.8-.3-1.2-.4h-.1c.067.067.133.1.2.1l1.2.6c.5.2.9.4 1.1.9Zm-1.5-.3c-.1-.1-.2-.1-.3 0 0 .1 0 .2.1.2.1.1.3.1.3 0s-.1-.2-.1-.2Zm12.3 3.1 1.2.8c.133.067.267.167.4.3.2.4.6.7.7 1.2h.1c.1.3.1.4-.1.5a5.698 5.698 0 0 1-1 .3l-.6.2c-.2 0-.3.1-.5.1-.4-.066-.8-.066-1.2 0-.733 0-1.367-.2-1.9-.6-.4-.4-.8-.7-1.1-1.2l-.5-.5a1.166 1.166 0 0 1-.2-.3.887.887 0 0 0-.1-.4c0-.1.1-.2.1-.2s.2-.1.2 0h.3c.067-.067.167-.133.3-.2.134-.067.3-.133.5-.2.267-.133.5-.233.7-.3.2-.067.4-.1.6-.1.733 0 1.433.2 2.1.6Zm-4.2 1 .1.1 1.1 1.1c.4.3.9.5 1.4.6.6.2 1.2.2 1.7.1.134 0 .234-.033.3-.1a.887.887 0 0 0 .4-.1h.6c.067-.067.134-.1.2-.1a1.165 1.165 0 0 1-.3-.2c-.2-.3-.6-.5-.9-.7-.133-.067-.233-.033-.3.1l-.1.1c-.2.4-.6.6-1.1.6-.333 0-.6-.1-.8-.3-.3-.3-.4-.6-.4-.9v-.5c-.7 0-1.3-.1-1.9.2Zm5.2.5c-.2-.2-.4-.5-.7-.7-.8-.6-1.7-1-2.8-.8-.2.1-.5.1-.7.3.067 0 .133.034.2.1.2 0 .433.034.7.1h.5c.3 0 .6.1.8.1.6.134 1.167.4 1.7.8.067.067.167.1.3.1Zm-1.7-.1c-.067 0-.133.034-.2.1 0 .1 0 .2.1.3.1 0 .2 0 .3-.1 0-.1-.1-.2-.2-.3Z" clip-rule="evenodd"/>
    <path fill="#BA539F" d="M19.7 30.344a6.34 6.34 0 0 1-.7.4c-.067.067-.133.1-.2.1-.3 0-.7.1-1 0a2.068 2.068 0 0 1-1.2-.6 1.564 1.564 0 0 1-.3-.4l-.2-.6-.6-.2c-.4-.1-.6-.3-.7-.7-.1-.4.1-.8.4-1.1.2-.2.3-.1.5.1s.2.2 0 .4c-.1.2-.2.4 0 .6 0 0 .1.1.2.1.2 0 .4.1.6-.2 0 0 .1-.1.2 0 0 0 .1.1.1.2.067.267.1.5.1.7 0 .3.2.5.4.7.067 0 .133.034.2.1.534.267 1 .2 1.4-.2.134-.133.3-.266.5-.4.2-.2.3-.1.4.1v.2c.067 0 .1.034.1.1.2.2.2.2.5 0-.066-.066-.1-.166-.1-.3 0-.2.2-.4.5-.2.3.1.4.5.2.8-.2.334-.466.5-.8.5-.2 0-.4 0-.5-.2Zm-3.3-5.6a5.307 5.307 0 0 1-.3-1.1l-.4-.6c-.7-1.3-1.8-2.1-3.1-2.5-.3 0-.6-.1-.9-.1-.2 0-.3-.067-.3-.2 0-.1.1-.2.3-.2.6 0 1.3.1 1.8.4.533.333 1.067.7 1.6 1.1.2.1.3.3.4.4.133.2.267.367.4.5.2.2.3.4.4.7.1.2.2.3.3.5v.1c-.1.2.1.4.1.6.067 0 .1.033.1.1 0 .3-.1.4-.4.3Zm4.9 2.3c0-.133-.033-.233-.1-.3.334-.2.633-.4.9-.6.5-.4 1-.5 1.6-.7.8-.2 1.6-.2 2.3.1.467.133.933.3 1.4.5.3.1.6.4.8.6.134.133.134.234 0 .3-.066.067-.166.033-.3-.1-.2-.3-.6-.5-1-.6-.466-.133-.933-.3-1.4-.5-.5-.1-1.1-.2-1.6.1h-.2c-.5.1-1 .3-1.4.5a1.165 1.165 0 0 0-.3.2c-.2.2-.4.4-.7.5Zm-10.3 1c-.1-.1-.1-.2-.2-.2-.1-.1-.2-.2-.1-.3-.133-.066-.233-.1-.3-.1 0 .067-.033.134-.1.2-.2 0-.2.4-.6.3.2-.2.2-.6.4-.8.067.067.167.134.3.2h.2c.3 0 .4.2.5.5-.067.067-.1.134-.1.2Zm-2 .8c.2.2.4.2.6.2a1.163 1.163 0 0 1-.2.3 2.224 2.224 0 0 0-.7-.3c-.2 0-.2 0-.3-.1.2-.2.4 0 .6-.1Zm2.2-.1c.067-.067.1-.2.1-.4.1.1.1.2.3.1-.1.3-.1.6-.4.9 0-.3 0-.3.2-.6h-.2Zm0 0c0 .134-.033.233-.1.3-.2.1-.2.1-.3 0a.655.655 0 0 1 .3-.3h.1Zm17.6 0c-.1 0-.2.1-.3.1-.1-.1-.1-.2 0-.3 0-.1.1-.1.2 0 0 0 .1.1.1.2Zm-17.6-.9c.2-.1.3.1.5.1-.133.067-.233.1-.3.1l-.2-.2Zm-2.3-.2c0-.066.033-.133.1-.2h.1l.1.1c-.066.067-.167.1-.3.1Zm2.1.4c.067 0 .133.033.2.1v.1H11v-.2Zm-.4 1.7c-.2.1-.2.1-.2-.1.067.067.133.1.2.1Zm-1.7-2.099c.2.1.2.1.1.4a.887.887 0 0 0-.1-.4Zm.3.599a1.163 1.163 0 0 1-.2.3v-.1s0-.2.1-.2h.1Zm.5-1.1c.067 0 .167-.033.3-.1-.1.1-.1.1-.3.1Zm0 .001v.3c-.1-.2-.1-.2 0-.3Zm.6-.5c-.067.066-.1.066-.1 0h.1Zm-2.1 2.299v-.2h.1v.1l-.1.1Zm16.1 6.4c0-.066-.033-.1-.1-.1h.1v.1Zm-13.6-5.8.1.1h-.1v-.1Zm-.6.1v-.1h.1l-.1.1Zm-1.1-2.8h-.1v-.1l.1.1Zm.6 1.1c-.067 0-.1.034-.1.1v-.1h.1Z"/>
    <path fill="#BA539F" d="M11.2 27.844h-.1c0-.066.034-.1.1-.1v.1Zm2.3-3.9s.1.1.1.2-.2.1-.3 0c-.1 0-.1-.1-.1-.2.1-.1.2-.1.3 0Zm11.6 4.5c.1.1.2.2.2.3-.1.1-.2.1-.3.1-.1-.1-.1-.2-.1-.3.067-.067.133-.1.2-.1Z"/>
    <path fill="#BA539F" d="M11.7 26.244c-1.2-.5-2.2-.5-2.9.7-.5 1-.7 2.3.2 3 2 1.5 3.9-2.2 2.4-3.7-1.6-1.6-4 2.3-2 3.1.9.4 2.1-.4 2.1-1.3.1-1-.9-1.7-1.8-1.4-1 .2-1.4 1.6-.5 2.2.9.5 2.3-.4 2.2-1.4 0-.1 0-.2-.1-.2-.5-.2-1-.1-1.4.2-.4.4-.5.9-.1 1.2.133.133.233.167.3.1.5-.2.9-.5 1.1-.9.2-.3-.3-.6-.5-.3-.066.2-.2.366-.4.5 0-.334.133-.367.4-.1 0 .1-.6.5-.7.5-.8-.333-.933-.733-.4-1.2.2-.067.367-.1.5-.1.6 0 1 .6.7 1.2-.1.3-.7.7-1.1.5-.7-.1-.5-1-.2-1.5.3-.7 1.2-1.3 1.7-.3.4.6.2 1.3-.1 1.8-.5.8-1.7 1.3-2.1.1-.2-.6.1-1.4.5-1.9.5-.8 1.3-.6 2.1-.3.3.1.4-.4.1-.5Zm14.2 6c-.6-.8-1.4-1.2-2.3-.6-.8.4-1.5 1.2-1.1 2.1.7 1.9 3.6.1 3.2-1.5-.5-1.9-3.8-.1-2.7 1.3.4.6 1.6.5 2-.1.4-.6.1-1.5-.6-1.7-.8-.3-1.7.5-1.3 1.4.3.7 1.7.7 2.1-.1v-.2c-.3-.4-.7-.5-1.1-.4-.4 0-.7.4-.6.8l.2.2c.4 0 .8 0 1.2-.2.3-.2 0-.6-.2-.4-.2.067-.4.1-.6.1.2-.2.333-.166.4.1-.1.1-.6.1-.7.1-.467-.6-.4-.933.2-1 .133 0 .267.034.4.1.4.3.4.9 0 1.1-.2.2-.8.2-1 0-.4-.4.1-1 .4-1.2.6-.4 1.5-.4 1.4.5 0 .6-.4 1-.8 1.2-.7.4-1.8.2-1.5-.8.1-.5.6-.9 1.1-1.1.7-.3 1.1.1 1.6.7.2.2.5-.1.3-.4Z"/>
    <path fill="#BA539F" fill-rule="evenodd" d="M40.8 20.044c-.1 0-.2.1-.3.1 0 .1.2.1.1.3-.1 0-.1-.1-.1-.2-.1.1-.1.1-.1.2h.1c-.1.1-.2 0-.2 0v.1l-.1.1c0 .1 0 .2.1.3v.2h-.4c0 .067.033.134.1.2h-.1c-.133.067-.2.134-.2.2a.654.654 0 0 1-.3.3h-.2a1.565 1.565 0 0 1-.4.3c0 .1-.1.1-.2.1a1.566 1.566 0 0 1-.4.3c-.1.1-.2.2-.3.2-.066.067-.133.1-.2.1v.7a.888.888 0 0 1-.1.4.887.887 0 0 1-.1.4l-.2.4c0 .134-.033.234-.1.3l-.1.1-.2.2c-.066.067-.1.134-.1.2a1.565 1.565 0 0 1-.4.3 1.16 1.16 0 0 1-.3.2c-.1.1-.2.1-.3.2 0 .067-.033.1-.1.1-.067.067-.167.1-.3.1v.2h.1l.2.6-.1.1v.1c.067.067.067.134 0 .2a.887.887 0 0 1-.1.4.6.6 0 0 1-.4.4c-.1.2-.2.3-.3.4 0 .067-.033.1-.1.1-.067.067-.1.134-.1.2 0 .1-.1.1-.2.2h-.2v.1c-.133.067-.3.1-.5.1a.888.888 0 0 1-.4.1c-.2 0-.4-.033-.6-.1l-.6-.2-.2-.2c-.066 0-.133-.033-.2-.1-.066-.066-.1-.133-.1-.2l-.1-.1c-.4-.4-.7-1-.7-1 0-.1 0-.3.1-.4.1-.1.1-.2.1-.3 0-.133-.067-.233-.2-.3 0-.066-.033-.133-.1-.2h-.1a.92.92 0 0 1-.6 0c-.3 0-.5 0-.8-.2-.1-.1-.2-.2-.4-.3a1.165 1.165 0 0 1-.2-.3c-.1-.1-.2-.3-.2-.5v-.1c-.1-.3-.1-.5 0-.8 0-.133.033-.266.1-.4 0-.066.033-.133.1-.2-.133 0-.233.034-.3.1-.1 0-.3-.1-.5-.1-.067 0-.133-.033-.2-.1-.067 0-.133-.033-.2-.1-.066 0-.167-.033-.3-.1-.2-.2-.5-.4-.6-.6-.1-.1-.2-.1-.2-.2 0-.066-.033-.133-.1-.2v-.1c-.1-.1-.1-.2-.1-.2 0-.2-.1-.2-.1-.3l-.1-.1-.1.1c0-.1-.1-.1-.1-.1h-.1a1.165 1.165 0 0 1-.3-.2h-2.4c-.3-.1-.5-.1-.7-.3a1.57 1.57 0 0 1-.4-.3 4.908 4.908 0 0 1-.3-.5c-.1 0-.1 0-.1-.1a.964.964 0 0 1-.4-.5 1.567 1.567 0 0 1-.3-.4l-.2-.4c0-.133-.033-.233-.1-.3h-.1c-.2.1-.5.1-.7.2h-.1c-.4 0-.7-.1-1-.2a4.65 4.65 0 0 1-.9-.7l-.1-.1c-.1-.1-.1-.1-.2 0l-.4.4c-.2.2-.5.5-.8.6-.067 0-.133.034-.2.1l-.1.1h-.1c-.066.067-.133.1-.2.1h-.2c-.067 0-.1.034-.1.1h-.3l-.9-.3a1.568 1.568 0 0 0-.4-.3c-.067 0-.1-.033-.1-.1-.067.067-.133.1-.2.1-.1 0-.2.1-.3.2a1.567 1.567 0 0 1-.4.3c-.1.1-.2.1-.2.2-.2.1-.3.1-.5.3-.1.1-.2.1-.4.2-.067 0-.133.034-.2.1-.2.134-.433.2-.7.2-.1.1-.2 0-.3 0H10a.887.887 0 0 0-.4-.1 6.536 6.536 0 0 1-.7-.4v-.1l-.1.1-.2.2-.2.2c-.2.267-.367.534-.5.8-.133.2-.233.4-.3.6-.067.067-.067.167 0 .3 0 .3 0 .6-.2.9 0 .067-.033.167-.1.3a1.57 1.57 0 0 0-.3.4c-.067 0-.1.034-.1.1-.067 0-.133.034-.2.1-.2.2-.4.2-.7.2h-.1a3.88 3.88 0 0 1-.5-.2c-.067-.066-.167-.1-.3-.1-.3.1-.4 0-.6-.2-.133-.066-.233-.1-.3-.1v-.1c-.3-.1-.5-.3-.7-.5-.1-.2-.2-.4-.2-.7v-.2c.067-.2.133-.366.2-.5.067-.133.134-.233.2-.3.067-.066.167-.133.3-.2.1-.1.3-.2.4-.4l.1-.1v-.1c-.2-.1-.3-.3-.4-.5l-.3-.3c-.3-.2-.5-.3-.7-.6l-.2-.2c-.2-.3-.4-.7-.4-1.1v-.4c0-.2.033-.366.1-.5l.2-.4a1.6 1.6 0 0 1 .3-.4 1.6 1.6 0 0 1 .3-.4c.1-.1.1-.1.1-.2-.2-.2-.367-.4-.5-.6l-.4-.8a19.544 19.544 0 0 1-.2-.9c0-.266.033-.533.1-.8a3.57 3.57 0 0 1 .3-.9c.067-.066.1-.133.1-.2l.2-.2c.1-.1.2-.1.2-.2v-.1c.133-.133.233-.266.3-.4.2-.133.367-.233.5-.3l.6-.4c.067 0 .133-.033.2-.1h.2c.067-.066.133-.1.2-.1s.1-.033.1-.1h.8c.3 0 .3 0 .3-.3-.1-.2-.1-.4-.1-.6v-.6c0-.266-.033-.5-.1-.7v-.7c0-.133.033-.3.1-.5 0-.066.033-.166.1-.3 0-.2.033-.4.1-.6.133-.2.233-.433.3-.7l.2-.2.1-.1c.134-.266.267-.466.4-.6.133-.2.3-.4.5-.6.133-.133.3-.266.5-.4a1.6 1.6 0 0 1 .3-.4H9c.1-.1.2-.1.3-.2.067-.066.133-.1.2-.1.1-.1.2-.2.4-.3.1-.2.3-.2.5-.3.067-.066.167-.1.3-.1 0-.066.033-.066.1 0 .1 0 .2 0 .2-.2.067 0 .1-.033.1-.1.1.1.1.1.2.1v-.1c.067-.066.167-.1.3-.1.067-.066.133-.066.2 0 0-.133.067-.2.2-.2h.4c.067-.066.133-.1.2-.1h.2c.1.1.3 0 .4 0 .2 0 .3-.1.4 0 .2-.1.4 0 .6.1h.4c.2.1.4.2.5.2l.9.3c.2.134.367.234.5.3l.4.4c.134.067.234.134.3.2.1.1.3.3.4.5.1.1.2.1.3 0 .2-.2.5-.3.8-.5.2 0 .4-.1.5-.2.2-.1.4-.1.5-.2.1.1.2 0 .3 0 .067-.066.134-.1.2-.1h.2c.134 0 .234-.033.3-.1h.6c.3-.1.5 0 .7 0 .133 0 .233.034.3.1h.2c.133 0 .267.034.4.1h.1c.2.2.4.2.6.4l.2.2c.067.067.167.134.3.2v.1c.1 0 .1.1.1.1.067.067.134.1.2.1a.654.654 0 0 0 .3-.3c.067 0 .134-.033.2-.1.2-.1.3-.3.5-.3l.1-.1c.1 0 .1 0 .2-.1.067-.066.134-.1.2-.1.1-.1.2-.2.4-.3.1 0 .2 0 .3-.1.2.1.3 0 .4-.1h.1v.2h.1c-.066-.066-.066-.133 0-.2v-.1h.2c0 .1 0 .1.1.1l.1-.1c.067-.066.133-.066.2 0 0 .067-.033.1-.1.1h-.1v.1c.2 0 .3-.1.4-.1.067 0 .1.034.1.1 0-.066.034-.133.1-.2 0-.066.033-.066.1 0 .1 0 .3-.1.4 0v.1c.1-.1.2 0 .3 0 .133.067.233.1.3.1.067 0 .133.034.2.1.067.067.134.1.2.1h.6c.133-.066.167-.033.1.1v.1h.1v-.1c.1 0 .1 0 .1.1s.1.1.2.1c0 .1-.1 0-.1.1.067.067.134.067.2 0 .1-.1.1-.1.2-.1s.1 0 .1.1.1.1.1.1c.067 0 .1-.033.1-.1.067.067.1.134.1.2.067.067.134.1.2.1.1.1.1.2.1.2 0 .1.1.1.1.1l.1.1c0 .067.067.134.2.2 0 .2.1.3 0 .4.067.067.1.134.1.2.2 0 .2.1.2.2v.2c-.067 0-.1.034-.1.1-.1.1-.1.1-.2 0-.1 0-.1.1 0 .1h.1c.1 0 .1 0 .1.1-.133.134-.133.234 0 .3.1.1.1.2 0 .4-.066.067-.1.134-.1.2v.3c0 .067-.033.1-.1.1l.1.1c-.067 0-.133.034-.2.1 0 .067.033.1.1.1l-.1.1v.1c.1.1 0 .1-.1.2v.1l-.1.1c-.066 0-.1.034-.1.1v.3h.3c.067 0 .1.034.1.1.1 0 .1-.1.2-.1h.2c.067.067.133.1.2.1h.3c.2.067.4.167.6.3h.1c.067.067.133.1.2.1l.1.1c.067.067.133.1.2.1l.2.2.2.2h.1c0 .2.1.3.2.4.1 0 .1.1 0 .2.133.134.233.3.3.5 0 .067.034.134.1.2v.1c.1 0 .1.1.1.2l.2.2v.3c-.067 0-.067.034 0 .1v.2c0 .067.033.1.1.1v.2h-.2l.1.1c.067.067.067.134 0 .2 0 .1.1.3.3.3h.5c.133 0 .267.034.4.1h.2c.133.067.233.1.3.1a1.166 1.166 0 0 1 .4.3v.2h.1c0-.1 0-.1.1-.1 0 0 .1 0 .2.1 0 .1.1.1.1.1.1.2 0 .2-.1.3a1.165 1.165 0 0 1-.3-.2c-.2-.066-.4-.1-.6-.1-.133-.066-.3-.1-.5-.1h-.1v.1c.2 0 .367.034.5.1.067 0 .133.034.2.1.133 0 .233.034.3.1.133.067.233.134.3.2.067.067.167.134.3.2 0 .067 0 .067 0 0h.1c-.066-.066-.1-.133-.1-.2-.067-.066-.067-.1 0-.1.1.1.2 0 .3.1v-.1c.067.067.1.134.1.2-.067.067-.067.1 0 .1.1.1.1.1 0 .2v.1h.2c.067 0 .1.034.1.1 0 .2.033.434.1.7.067.134.1.267.1.4.1.2.1.4.1.5v.2c0 .1.1.2.1.3 0 .067-.033.167-.1.3.1 0 .1.1.1.2v.3c0 .1 0 .3-.1.4 0 .067-.033.1-.1.1 0 .1.1.1 0 .2 0 .3-.1.4-.2.6-.067 0-.1.034-.1.1v.1l.4.2c.2.1.3.2.4.4l.3.3h.1c.067.067.1.167.1.3l.2.2.1.1c0 .067-.033.1-.1.1l-.1.1h.1c.067 0 .133.034.2.1.067.067.067.1 0 .1-.1.2 0 .3.1.4.067.067.067.1 0 .1 0 .1.1.2 0 .3h.1c0 .1-.1.1-.1.1 0 .067.033.1.1.1v.2Zm-36.6-5.5c-.066-.2-.1-.366-.1-.5v-.7c0-.266.034-.533.1-.8.1-.5.3-.9.5-1.4 0-.1.1-.1.2-.2.1-.3.2-.5.4-.7l.2-.2v-.1c-.2.1-.4.1-.5.2-.133.134-.3.234-.5.3a.654.654 0 0 0-.3.3 1.164 1.164 0 0 0-.2.3l-.2.2c-.2.3-.3.5-.4.8-.1.2-.2.4-.2.6v.4c0 .3.1.6.2.8l.1.1c0 .067.033.134.1.2 0 .067.034.134.1.2a.653.653 0 0 0 .3.3c0 .067.033.134.1.2.2-.1.2-.1.1-.3Zm-.6 3a.9.9 0 0 1 .1-.4v-.2c-.1.1-.2.5-.2.6 0 .1-.1.2 0 .2s.1-.1.1-.2Zm5.7-14.9h-.1a.654.654 0 0 0-.3.3l-.2.2-.2.2-.5.5c-.2.3-.4.5-.5.8l-.2.6c-.067.067-.1.134-.1.2v.2l.2-.2c0-.066.033-.1.1-.1.067-.2.167-.366.3-.5 0-.1.1-.2.1-.3H8c0-.066.033-.133.1-.2v-.1c.2-.2.3-.4.4-.6.1-.1.2-.3.3-.4.1-.1.1-.2.2-.3.1-.1.1-.2.2-.2.067 0 .1-.033.1-.1Zm4.1 10.3a3.31 3.31 0 0 0-.4.5c-.133.134-.233.334-.3.6v.1h.1c.133.134.267.234.4.3l.1-.1.2-.4c.2-.2.4-.5.6-.7.067-.066.167-.133.3-.2v-.1c-.066.067-.133.1-.2.1-.2 0-.3-.1-.5-.2-.1 0-.2 0-.3.1Zm-2.4 3.6h.2a3.91 3.91 0 0 1 .8-.3 1.15 1.15 0 0 0 .3-.2 1.165 1.165 0 0 1-.2-.3c-.067 0-.133.034-.2.1h-.2c-.133 0-.233.034-.3.1-.2.2-.3.4-.4.6Zm.8-2.1c-.067 0-.133.034-.2.1.2 0 .2 0 .2-.1Zm1.1.7c.067 0 .1-.033.1-.1a.654.654 0 0 1-.3-.3h-.1c.1.1.2.2.3.4Zm3.2-13.5c.067.134.1.267.1.4.067.134.167.2.3.2l.4.2c.067.067.1.134.1.2.067 0 .1-.033.1-.1.1 0 .1 0 0 0a1.255 1.255 0 0 0-.3-.5c-.133-.133-.333-.266-.6-.4h-.1ZM12 .245c.067.067.133.067.2 0H12Zm-1 2.2h.2c0-.1 0-.1-.1-.2-.067 0-.1.067-.1.2Zm-.2.1h.1-.1Zm.6-2.1v.1c0-.066.033-.1.1-.1h-.1Zm-2.3 5.1v.1c0-.066.034-.1.1-.1h-.1Zm-.1.6c.1-.1 0-.2.1-.3-.133.067-.167.167-.1.3Zm-1 2.9c0-.4-.3-.7-.4-1.1l-.1.1c0 .2-.033.367-.1.5 0 .067.033.134.1.2 0 .2.1.2.2.4h.1c.067 0 .133-.033.2-.1Zm.6-1.4c0 .134.034.267.1.4 0 .134.033.234.1.3.067-.066.067-.166 0-.3v-.1c.067-.2.1-.366.1-.5-.1-.3-.1-.5 0-.7v-.6c-.067.067-.1.134-.1.2-.067.134-.1.3-.1.5-.066.134-.1.3-.1.5v.3ZM5 17.845c.133-.066.233-.1.3-.1.1 0 .1-.1.1-.1a.654.654 0 0 1-.3-.3c0 .2-.1.3-.1.5Zm.2 1.3v-.6c.1-.2-.1-.3-.2-.4 0 .3 0 .6.1.9.067 0 .1.034.1.1Zm2.8-6.4c-.2-.2-.367-.4-.5-.6h-.1l-.1.1c-.1.2-.3.3-.4.5 0 .067-.033.167-.1.3-.1.1-.2.1-.1.3l-.1.1v.2c.1.2.3.1.4.1.2-.133.333-.233.4-.3.133-.2.267-.366.4-.5.1 0 .2-.1.2-.2Zm-2.2 9.5v-.1h-.2v.1c.067 0 .1.034.1.1 0-.066.033-.1.1-.1Zm1.4-3.2c-.133-.066-.167-.166-.1-.3 0-.066-.033-.1-.1-.1 0-.066-.033-.133-.1-.2 0-.066-.033-.1-.1-.1 0 .067-.033.167-.1.3v.1c0 .134-.033.234-.1.3 0 .067.034.1.1.1h.2c.1-.1.2-.1.3-.1Zm1.7-5.5c0 .067-.033.167-.1.3 0 .067.033.1.1.1.067.067.133.067.2 0l.2-.4c0-.066.033-.133.1-.2l.2-.2c0-.2 0-.3-.1-.4-.2-.1-.2 0-.3.1-.066.267-.167.5-.3.7Zm1.9-4.4-.1.1c.067.067.134.1.2.1.067-.066.167-.133.3-.2.067 0 .134-.033.2-.1v-.1a.654.654 0 0 1-.3-.3c-.067-.066-.133-.1-.2-.1-.066.2-.1.4-.1.6Zm-3.5 11.4c-.3 0-.5 0-.7.1.133.134.3.267.5.4.067-.133.133-.3.2-.5Zm5.2-13.2a.887.887 0 0 0 .1-.4v-.3c.2-.3.1-.5.2-.7l-.1-.1-.2.2c-.1.1-.2.3-.3.4-.2.1-.3.3-.4.5-.2.3-.2.6-.2.9v.2c.1 0 .2 0 .2-.1.067 0 .133-.033.2-.1a1.15 1.15 0 0 0 .3-.2c.133-.066.2-.166.2-.3Zm2.5-5.5c.2 0 .3.1.5.1h.1v-.1l-.2-.4c-.133-.133-.267-.2-.4-.2-.3-.1-.7-.1-1-.1-.2 0-.4 0-.6.1h-.2c-.266.067-.5.134-.7.2-.133.067-.233.1-.3.1-.133.134-.3.234-.5.3a1.57 1.57 0 0 0-.4.3l-.1.1h.1c.067 0 .133.034.2.1.067 0 .1-.033.1-.1.1-.1.2-.1.3-.1.267 0 .534-.033.8-.1.2-.1.4-.1.6-.1h.2c.2-.066.4-.1.6-.1h.6c.1 0 .2.1.3 0Zm-1.1 3.3c.133 0 .267.067.4.2l.1.1c.067-.066.1-.166.1-.3-.1-.1-.2-.2-.4-.3-.133 0-.233.034-.3.1v.1s0 .1.1.1Zm-2.2 8.5c.067.067.134.1.2.1.067-.133.1-.233.1-.3.067-.133.1-.233.1-.3l-.9-.3c-.133.067-.233.1-.3.1v.2c0 .2-.033.367-.1.5-.067.067-.067.134 0 .2l.1-.1a1.13 1.13 0 0 1 .8-.1Zm-1 5.1c-.2-.1-.3-.2-.5-.3-.1-.2-.2-.3-.4-.5 0 .067-.033.134-.1.2-.1.2-.1.3 0 .5.067.067.133.1.2.1.2.1.5.1.8 0Zm2.1-1.4c0-.2-.1-.4 0-.6h-.2l-.1.1c-.1 0-.2.1-.3.1-.066 0-.1.034-.1.1-.1 0-.2.1-.3.1l-.6.2a.888.888 0 0 0-.4.1c-.2 0-.2 0-.1.1v.1c0 .2 0 .2.2.3h.8c.2 0 .4 0 .6-.1h.1l.3-.3c.067-.066.1-.133.1-.2Zm5.9-7.9c-.1.3-.2.5-.2.6.067 0 .134-.033.2-.1.1-.1.2-.2.1-.3v-.1c-.067 0-.1-.033-.1-.1Zm.6-6.4c.2 0 .367-.033.5-.1l.2-.2h.1c.1 0 .2 0 .3-.1.1 0 .2-.1.3 0h.2c.134-.133.234-.166.3-.1.067 0 .134-.033.2-.1 0-.066-.033-.1-.1-.1h-.2c-.067.067-.167.1-.3.1h-.3c0 .1-.1.1-.1.1-.2 0-.3 0-.4.1-.1 0-.2 0-.3.1 0 .134-.067.167-.2.1-.067 0-.133.067-.2.2Zm-4.2 12.8c.067-.133.167-.3.3-.5 0-.066.033-.1.1-.1 0-.1.1-.2.2-.4-.2.134-.333.3-.4.5-.1.1-.3.2-.3.4-.1.2-.2.3-.2.5.133.067.2.034.2-.1.067-.066.1-.166.1-.3Zm1.3-2.6c.134 0 .234-.033.3-.1h.1c-.2-.2-.8 0-1 .3.1.1.1.1.2 0h.1a1.15 1.15 0 0 0 .3-.2Zm2.3-9.4c.1.1 0 .2.1.3v.1h.1c0-.133.033-.266.1-.4 0-.066-.033-.1-.1-.1h-.1c-.067 0-.1.034-.1.1Zm-2.2 5c-.2.1-.5.6-.5.7l.1-.1.1-.1.3-.3v-.2Zm.5-.6c.1-.2.3-.3.2-.5-.2.1-.3.3-.2.5Zm-.5 3.8c.067 0 .067-.033 0-.1-.2-.1-.4-.1-.5 0l-.2.2a1.565 1.565 0 0 1-.4.3c-.066 0-.1.034-.1.1.1 0 .2-.1.3-.1.3-.1.5-.3.9-.4Zm-.9 6.1v-.1h-.3c-.2.1-.4.1-.6.1-.2-.1-.4-.1-.6-.2l-.1.1v.1c.2.1.3.3.6.3a.887.887 0 0 0 .4-.1l.6-.2Zm.2-.2c-.067 0-.133.034-.2.1.067 0 .133-.033.2-.1Zm1.3-3.2c-.4.2-.6.5-.6.8l.1-.1c.133-.133.267-.3.4-.5 0 0 .1-.1.1-.2Zm5.1-13.1h.1c.133.067.233.1.3.1.267.134.5.234.7.3h.2l-.1-.1c-.2-.2-.4-.2-.6-.3h-.2c-.1-.1-.2-.1-.3-.1-.067 0-.1.034-.1.1Zm-2 5.3c-.066.067-.066.134 0 .2.067-.066.067-.133 0-.2Zm-.5 1.9s-.1 0-.2.1c.133 0 .2-.033.2-.1Zm1.6-3.9a1.15 1.15 0 0 0 .3-.2c.067 0 .1-.033.1-.1 0 0 0-.1-.1-.1 0 .067-.033.1-.1.1l-.4.2a1.569 1.569 0 0 0-.3.4c.067 0 .133-.033.2-.1.067 0 .1-.033.1-.1.067 0 .133-.033.2-.1Zm-1.4 6.3v-.2h-.3c-.1.1-.2.1-.3.1h-.1c-.2.1-.2.2-.3.3a.888.888 0 0 0-.1.4c-.067 0-.1.034-.1.1.1 0 .1 0 .2-.1l.1-.1.1-.1c.067-.066.133-.1.2-.1l.2-.2h.1c.133-.066.233-.1.3-.1Zm2.3-4.5v-.8l-.1-.1-.4.6-.2.2c0 .1.1.2.2.2h.1c.1.1.2 0 .3 0h.1v-.1Zm-2.1 7.1c0-.066-.033-.1-.1-.1h-.1c0 .067-.033.167-.1.3l.2-.2h.1Zm1.9-4.2c-.067-.066-.133-.066-.2 0a1.165 1.165 0 0 0-.3.2c-.067.067-.1.134-.1.2l.6-.4Zm10.4 5.5v-.2c-.066 0-.066.067 0 .2Zm-2 4.8c-.066-.066-.133-.066-.2 0-.066 0-.166.034-.3.1v.1c.067 0 .167.034.3.1h.2c.067 0 .1-.033.1-.1-.067-.066-.1-.133-.1-.2Zm2-7.8v.3l.4-.6c.133-.133.233-.3.3-.5a1.14 1.14 0 0 0 .2-.3l.1-.1a.887.887 0 0 0 .1-.4c.133-.2.233-.433.3-.7v-.2s.1-.1 0-.1h-.1l-.1.1v.1a3.31 3.31 0 0 0-.4.5c0 .067-.033.134-.1.2a1.163 1.163 0 0 0-.2.3c-.1.2-.2.3-.2.5v.1c-.067.067-.1.134-.1.2 0 .1 0 .2-.1.3 0 .134-.033.234-.1.3Zm-1.3-4.8v.2c-.1 0-.1.1 0 .1s.1-.2.2-.2c0 .067.034.1.1.1l.1-.1c0-.066.033-.133.1-.2.1 0 .2 0 .2-.1.1.1 0 .1.1.2s.2 0 .3 0c.067 0 .133.034.2.1l.4.2h.6c.2 0 .4.034.6.1.133.134.3.234.5.3.067.067.133.1.2.1h.1c0-.066-.033-.133-.1-.2v-.1l-.4-.4v-.1h-.1v.1c-.067-.066-.133-.1-.2-.1-.067-.066-.166-.1-.3-.1 0-.066-.033-.1-.1-.1s-.133-.033-.2-.1c-.2 0-.433-.033-.7-.1-.3 0-.7 0-1.1.2h-.1c-.2 0-.3.1-.4.2Zm-.6 6.8c-.067.067-.067.134 0 .2v-.2Zm-2.2 3.3.1.1c.1.1.2.1.3.1.134-.133.267-.3.4-.5 0 0 .1-.1 0-.1v-.1c-.1.1-.2.1-.3.2l-.2.2c-.067 0-.167.034-.3.1Zm1.8-16.3c0 .067.034.1.1.1l-.1-.1Zm-2.1.8c0 .1.1.1.2.1h.2c.2.067.367.167.5.3.1 0 .3.1.4.3l.1.1c.2.134.367.267.5.4h.1c0 .1.2.2.3.2v.1l.1-.1c-.1-.4-.2-.8-.4-1.2-.2-.2-.3-.4-.5-.5-.1 0-.2-.1-.3-.1h-.1c-.067 0-.167.034-.3.1-.2 0-.3 0-.5.1h-.1s-.2.1-.2.2Zm1.4 2.5c.134.134.267.234.4.3.067.067.1.134.1.2 0 .067-.033.1-.1.1.3 0 .3 0 .3-.2a.887.887 0 0 0-.1-.4c0-.1-.1-.3-.2-.4-.067 0-.1-.033-.1-.1h-.1c-.2-.133-.433-.166-.7-.1 0 0-.1 0-.1.1l.1.1.2.2c.1 0 .3.1.3.2Zm-.5.9-.2-.4v.1l.2.4v-.1Zm-1.5-3.2v.1l.1-.1h-.1Zm-4.8 8.5c.067 0 .133.034.2.1.133 0 .233-.033.3-.1.133 0 .2-.066.2-.2 0-.066-.033-.133-.1-.2 0-.066-.033-.066-.1 0-.067 0-.133.034-.2.1l-.3.3Zm0-1.8h.1v-.1l-.1.1Zm2.5-6.9c-.067 0-.133.034-.2.1.1 0 .1 0 .2-.1Zm-3 9.9c.067 0 .133-.033.2-.1 0-.066-.033-.133-.1-.2h-.6c-.1 0-.1 0-.2.1l.6.2c.067.067.1.067.1 0Zm-1 3.5c0-.1-.1-.1-.1-.1h-.2v.2c.133-.066.233-.1.3-.1Zm0 1h-.5c0 .1 0 .3.1.4.2 0 .3-.2.4-.4Zm1.8-2.2c0-.1.1-.1 0-.2a1.568 1.568 0 0 1-.4.3l-.3.3c0 .067.033.134.1.2.067 0 .133-.033.2-.1l.3-.3c.067-.066.1-.133.1-.2Zm4.5-11.3c.1-.1.2 0 .2-.2h.2c.067.067.1.067.1 0-.066-.066-.133-.1-.2-.1h-.5c-.2 0-.4 0-.6.1-.133.067-.3.134-.5.2l-.2.2h.2c.067 0 .133-.033.2-.1h.2c.1 0 .2-.1.2 0 .067 0 .1-.033.1-.1.067-.066.133-.1.2-.1h.3c.1 0 .1 0 .1.1Zm-4.9 16.4c0-.066-.033-.1-.1-.1-.066.067-.1.134-.1.2h.2v-.1Zm3.2-7.4c-.1 0-.1 0-.1.2.133-.066.167-.133.1-.2Zm2.3-5.8c.1 0 .1-.1.1-.2v-.1c-.067-.066-.1-.133-.1-.2 0-.066-.033-.1-.1-.1 0-.2-.1-.3-.2-.5h-.1c-.067 0-.167.034-.3.1-.2.1-.4.3-.6.5v.1a.655.655 0 0 0-.3.3c0 .1-.1.2-.1.3.067.067.133.067.2 0 .067 0 .134-.033.2-.1l.1.1h-.1l-.2.2c.1.1.1 0 .2 0l.6-.2c.1-.1.3-.1.4-.2.067 0 .134-.033.2-.1 0-.066.033-.1.1-.1v.2Zm-.5 2.3h.1c.133-.2.3-.366.5-.5.1-.1.1-.2.1-.4-.066-.066-.133-.1-.2-.1s-.133.034-.2.1c-.2 0-.3.1-.4.3l-.2.4c-.066.067-.1.134-.1.2 0 .1.1.1.2.2 0-.2 0-.2.2-.2Zm-3.6 10.5a1.163 1.163 0 0 0-.2-.3l-.1.1c-.067.067-.067.134 0 .2h.3Zm2.2-4.9a.888.888 0 0 0-.4.1v.1c.1 0 .3 0 .4-.2Zm-.9 4.8a1.569 1.569 0 0 1-.3-.4v-.1h-.5c.067.2.133.367.2.5h.1c.2.134.367.134.5 0Zm3.3-8.3c-.067 0-.166.034-.3.1 0 .067-.033.134-.1.2 0 .067-.033.1-.1.1s-.133-.033-.2-.1h-.2c-.2.067-.4.167-.6.3-.133 0-.233.034-.3.1-.1.2-.1.2 0 .3 0 .2 0 .2.2.1h.2c.1 0 .2 0 .2-.1h.2c.067 0 .134-.033.2-.1l.2-.2c.067-.066.167-.133.3-.2.067-.133.134-.233.2-.3 0-.066.033-.133.1-.2Zm-.3.5-.2.2c.2 0 .2 0 .2-.2Zm2.8-6.8c.1.3.1.6.1.9v1.199a1.6 1.6 0 0 1 .3-.4c0-.066.033-.133.1-.2v-.1c0-.066.033-.133.1-.2.067-.133.133-.3.2-.5 0-.1.1-.2.1-.4v-.3c0-.133.033-.266.1-.4.1-.1 0-.2 0-.4.067-.066.067-.133 0-.2v-.2c.067 0 .1-.033.1-.1-.1 0-.2 0-.2-.1 0-.2-.1-.3-.2-.4 0-.2-.2-.3-.3-.4-.066 0-.133-.066-.2-.2-.066-.066-.1-.133-.1-.2-.1 0-.1-.1-.2 0 0 .067.033.134.1.2-.133 0-.2-.033-.2-.1-.067-.066-.133-.1-.2-.1h-.2c-.1 0-.1 0-.2.2l.2.2c0 .1 0 .2.1.3v.1c.067.067.1.134.1.2.1.1.1.2.2.3v.3c.1.1.1.2.1.3 0 .134.033.234.1.3v.4Zm-4.2 13.1v-.1.1Zm1.8-1.7c-.1-.2-.2-.3-.3-.4-.1-.1-.1-.2-.1-.3 0-.066-.033-.133-.1-.2l-.1.1-.3.3-.2.2c-.133.2-.3.367-.5.5-.067.067-.067.134 0 .2.2.1.4.3.5.5.067.067.134.1.2.1l.1-.1c.2-.1.2-.1.4-.3l.1-.1c0-.1.1-.1.2-.2.133-.066.167-.166.1-.3Zm.6-.4v-.1c.067-.066.067-.133 0-.2-.066 0-.1-.033-.1-.1-.1-.1-.3-.2-.5-.2v.1l.2.6s.1.1.2 0c.067 0 .134-.033.2-.1Zm-2.1 7.4c0-.2-.2-.3-.2-.5 0-.1-.1-.3-.1-.5-.067 0-.1.034-.1.1-.1.3.1.8.4.9Zm1.3 0c-.2-.1-.5-.3-.6-.6-.067-.2-.067-.366 0-.5.067-.2.133-.366.2-.5-.2 0-.367.034-.5.1v.6c0 .2 0 .5.1.7l.1.1c.2.134.434.2.7.2v-.1Zm1.6-.5c.067 0 .134-.033.2-.1l.3-.3c.067-.066.134-.166.2-.3 0-.066-.033-.133-.1-.2a3.894 3.894 0 0 0-.5-.2c-.067-.066-.167-.1-.3-.1h-.3c-.267 0-.466.1-.6.3l-.2.2c-.1.1-.2.2-.2.3-.067.067-.067.134 0 .2.133.067.233.1.3.1.3 0 .5 0 .7.1h.1c.1 0 .2 0 .3.1.067 0 .1-.033.1-.1Zm-.6 3.6c-.066-.066-.1-.133-.1-.2v-.1c0-.2-.1-.4 0-.6v-.2c.067-.2.133-.366.2-.5v-.2c-.067 0-.1.034-.1.1a1.165 1.165 0 0 0-.2.3c-.1.2-.2.5-.2.8 0 .2 0 .4.2.5 0 .1.1.1.2.1Zm2.1-5.2c.067-.2.1-.366.1-.5h-.1v.5Zm-.1 1.8h.3c.134 0 .267.034.4.1l.2.2c.067 0 .133.034.2.1.067-.066.067-.133 0-.2a1.985 1.985 0 0 1-.6-.7l-.1-.1h-.3l-.2.4c0 .134.034.2.1.2Zm.2 1.3c.133.067.267.1.4.1.067.067.133.1.2.1.2.1.2 0 .3-.1v-.1c0-.066-.033-.133-.1-.2-.2-.1-.3-.2-.5-.3h-.1c-.133-.066-.3-.066-.5 0-.1 0-.2.1-.3.2-.2 0-.3.2-.4.3-.133.2-.233.4-.3.6-.2.334-.3.734-.3 1.2-.067.067-.067.1 0 .1 0 .134.067.2.2.2.1 0 .1 0 .1-.2v-.2c0-.333.067-.666.2-1 0-.1.1-.1.2-.3.067-.066.167-.133.3-.2.2-.2.3-.2.6-.2Zm.5 1.1c0-.066-.033-.1-.1-.1-.133-.066-.233-.1-.3-.1-.133 0-.233.034-.3.1-.3.2-.3.5-.4.7v.1h.1c.1-.1.2-.1.3-.2.067 0 .133-.033.2-.1.133-.066.267-.166.4-.3.067 0 .1-.033.1-.1Zm4.1-10.6H36l-.4.2a1.165 1.165 0 0 0-.3.2c0 .067-.033.1-.1.1l-.2.2-.2.2c0 .1-.1.2-.1.3-.1 0-.1 0 0 0 0 .067 0 .067 0 0h.3c.1.1.1.1.2.1.133-.066.2-.133.2-.2.067-.066.133-.1.2-.1 0-.066.033-.1.1-.1a1.14 1.14 0 0 0 .2-.3c.1-.1.2-.3.3-.4.1-.1 0-.2 0-.2Zm-2.3 10v.299c.067-.066.1-.133.1-.2v-.1c.067-.066.067-.1 0-.1s-.1.034-.1.1Zm0 .4h-.1s-.1 0 0 .1c0-.066.034-.1.1-.1Zm3.1-11.9.2.2c.067 0 .133.034.2.1v-.1c0-.1-.2-.3-.3-.3H37v.1Zm-5.3 15.2c0-.2 0-.3-.1-.5-.067.2-.033.367.1.5Zm.8-1.5v-.1c0-.066-.033-.133-.1-.2 0-.1-.1-.1-.2-.1a1.163 1.163 0 0 1-.2.3 4.9 4.9 0 0 0-.3.5c.1.1.2.1.3 0 .067-.066.167-.133.3-.2l.2-.2Zm0 2.4c-.1 0-.1-.1-.1-.1-.1-.1-.3-.2-.4-.3l-.2-.2c0 .2.4.6.7.6Zm1.3-3.4v-.5h-.1v.299c-.1.1 0 .2 0 .3h.1v-.1Zm2.2-4.3c-.1-.2 0-.4 0-.5-.2.1-.2.2-.2.3v.2h.2Zm.3 2.6c-.3.1-.4.4-.6.5 0 .1-.1.2-.1.3.1 0 .2-.2.3-.2.1-.2.3-.4.4-.6Zm1.5-2c-.1-.1-.2-.1-.4-.1h-.1c0 .067.034.134.1.2.067.067.133.067.2 0 .067 0 .133-.033.2-.1Zm1.2-2.8c0-.133-.033-.3-.1-.5l-.1-.1c-.2-.066-.4-.033-.6.1-.067 0-.067.034 0 .1h.1c.133.067.267.167.4.3l.2.2c.1 0 .1 0 .1-.1Zm1.4 1.1c-.066 0-.1-.033-.1-.1.1-.2 0-.4 0-.6v-.2a1.49 1.49 0 0 0-.4-.7.654.654 0 0 1-.3-.3c-.067-.066-.133-.066-.2 0-.1 0-.1.1 0 .2.067.067.067.134 0 .2v.1h.2v.3c.1 0 .1.1.1.2s-.1.1-.1.1c.067.067.1.167.1.3v.1c.067.134.1.234.1.3v.1c.067.2.1.4.1.6v.1c.1.1.1.1.2.1 0-.1-.1-.2 0-.2.067-.133.1-.233.1-.3.1-.2.1-.2.3-.1v.1c.067-.133.033-.233-.1-.3Zm-.1.6v-.1c0 .067-.033.1-.1.1h.1Z" clip-rule="evenodd"/>
  </g>
  <path fill="#fff" d="M21.1 24.744c.6-.3 1.2-.2 1.8-.2.067.2.1.367.1.5 0 .3.1.6.4.9.2.2.467.3.8.3.5 0 .9-.2 1.1-.7l.1-.1c.067-.133.133-.133.2 0 .4.2.8.4 1 .7.067 0 .133.067.2.2h-.2c-.133 0-.3.034-.5.1a.888.888 0 0 0-.4.1c-.133 0-.233.034-.3.1-.6.1-1.2.1-1.7-.1s-1-.3-1.4-.7c-.4-.3-.7-.7-1.1-1l-.1-.1Z"/>
</svg>
