<svg xmlns="http://www.w3.org/2000/svg" width="70" height="43" fill="none" viewBox="0 0 70 43">
  <path fill="#ED2930" d="M67.6 23.6 4.5 30.5v-4.9L67 18.7l.6 4.9Z"/>
  <path fill="#FEFEFE" fill-rule="evenodd" d="m6.6 23.5 3.1-.4h.6c.4.1.8.1 1.2.4.5.2.8.6 1 1.2.133.333.167.7.1 1.1 0 .8-.3 1.5-.6 1.9l-.6.6c-.7.5-1.3.7-1.7.7l-.1.1-.9.1v1.9l-2.3.3.2-7.9Zm3.1 1.9-.9.1-.1 1.5.9-.1c.4-.067.6-.334.6-.8.1-.5-.2-.8-.5-.7Z" clip-rule="evenodd"/>
  <path fill="#FEFEFE" d="M15.6 24.7v.8l2.9-.4v2.1l-3 .3v.7l3.2-.4-.1 2.3-5.4.5.2-7.9 5.5-.6-.1 2.3-3.2.3Z"/>
  <path fill="#FEFEFE" fill-rule="evenodd" d="m26.4 29.2-2.7.3-1.5-1.8H22l-.1 2-2.2.2.2-7.9 3.1-.3c.1 0 .2-.1.6 0 .4 0 .8.1 1.2.3.4.3.8.6 1 1.2.067.333.1.7.1 1.1 0 1.133-.433 2-1.3 2.6l1.8 2.3ZM22 24v1.5l.9-.1c.4-.067.6-.334.6-.8 0-.5-.2-.7-.6-.7l-.9.1Z" clip-rule="evenodd"/>
  <path fill="#FEFEFE" d="M28.1 26.1c.533.533 1.133.766 1.8.7.4-.067.6-.234.6-.5 0-.067-.1-.134-.3-.2a3.565 3.565 0 0 0-.9-.3c-.4-.134-.767-.267-1.1-.4-.333-.134-.633-.367-.9-.7-.2-.334-.3-.734-.3-1.2 0-.467.2-1 .6-1.6.4-.5 1.2-1 2.3-1.1.8-.1 1.5.1 2 .3.4.3.8.6.9.9l.1.1-1.5 1.4c-.267-.267-.533-.434-.8-.5-.2-.067-.433-.1-.7-.1-.4.1-.6.3-.6.4 0 .2.4.4.9.5.267.066.567.166.9.3.267.066.533.2.8.4.267.133.5.333.7.6.133.333.2.7.2 1.1 0 .5-.2 1-.7 1.6-.4.6-1.3 1.1-2.4 1.2-.867.066-1.567-.067-2.1-.4-.533-.334-.9-.7-1.1-1.1l1.6-1.4Z"/>
  <path fill="#FEFEFE" fill-rule="evenodd" d="M37.7 19.9c1.133-.133 2.067.167 2.8.9.733.733 1.1 1.666 1.1 2.8a4.981 4.981 0 0 1-1.2 3c-.8.933-1.767 1.433-2.9 1.5-1.133.133-2.067-.167-2.8-.9-.733-.667-1.067-1.567-1-2.7 0-1.2.4-2.233 1.2-3.1.8-.867 1.733-1.367 2.8-1.5Zm-.1 6c.4-.067.767-.3 1.1-.7.333-.4.533-.867.6-1.4 0-.467-.167-.867-.5-1.2-.267-.334-.633-.5-1.1-.5-.467.066-.867.3-1.2.7-.333.4-.5.866-.5 1.4 0 .533.133.967.4 1.3.333.333.733.467 1.2.4Z" clip-rule="evenodd"/>
  <path fill="#FEFEFE" d="m49.5 18.8-.3 7.9-2 .2-2.3-3.2-.1 3.5-2.3.2.3-7.9 2-.2 2.3 3.2.1-3.5 2.3-.2Z"/>
  <path fill="#FEFEFE" fill-rule="evenodd" d="m55.2 18.1 2.6 7.7-2.5.2-.2-.8-2.4.3-.3.9-2.5.2 3.1-8.2 2.2-.3Zm-1.8 5.1 1-.2-.5-1.6-.5 1.8Z" clip-rule="evenodd"/>
  <path fill="#FEFEFE" d="M59.8 22.6c.533.533 1.1.767 1.7.7.467 0 .7-.133.7-.4 0-.133-.133-.234-.4-.3l-.9-.3a3.142 3.142 0 0 1-1-.4c-.333-.133-.633-.367-.9-.7a2.1 2.1 0 0 1-.3-1.1c0-.534.2-1.067.6-1.6.4-.6 1.2-1.1 2.3-1.2.8-.1 1.5.1 2 .4.4.3.7.6.9.8l.1.2-1.5 1.4c-.333-.334-.6-.533-.8-.6-.2-.067-.467-.067-.8 0-.3 0-.5.2-.5.4s.4.3.9.5c.267 0 .567.066.9.2l.8.4c.267.134.5.366.7.7.133.267.2.6.2 1 0 .5-.2 1.1-.7 1.6-.4.6-1.3 1.1-2.4 1.2-.867.134-1.567 0-2.1-.4-.533-.334-.9-.7-1.1-1.1l1.6-1.4Z"/>
  <path fill="#ED2930" d="M69.6 33.8 0 40.9V36l69-7.1.6 4.9Z"/>
  <path fill="#FEFEFE" d="M6.7 41.1h-.6l-1.3-2.2-.1 3.3-2.3.3.2-8 2.1-.2 1.8 2.8 2-3.2 2.1-.3-.2 8-2.3.2.1-3.3-1.5 2.6Zm4.8.3.2-7.9 2.3-.2-.2 7.9-2.3.2Zm9.3-5.9c-.267-.333-.533-.567-.8-.7a2.524 2.524 0 0 0-1 0c-.467.067-.867.3-1.2.7-.333.4-.5.833-.5 1.3 0 .533.133.966.4 1.3.333.333.733.467 1.2.4.267 0 .533-.067.8-.2l.4-.4.1-.2-1.5.1.1-1.8 3.9-.5-.1 1.7c-.1.8-.4 1.6-.9 2.1-.2.2-.433.4-.7.6-.267.2-.5.367-.7.5a9.56 9.56 0 0 1-.7.2c-.267.066-.433.1-.5.1-.133.066-.233.1-.3.1-1.133.133-2.067-.167-2.8-.9-.733-.733-1.1-1.667-1.1-2.8.067-1.134.5-2.134 1.3-3 .8-.934 1.733-1.467 2.8-1.6 1.467-.133 2.633.4 3.5 1.6l-1.7 1.4Z"/>
  <path fill="#FEFEFE" fill-rule="evenodd" d="m30.3 39.3-2.7.3-1.5-1.8h-.2l-.1 2-2.2.3.2-8 3.1-.3h.6c.4 0 .7.1 1.2.4.4.2.7.5.9 1.2.133.267.2.633.2 1.1-.067 1.067-.5 1.9-1.3 2.5l1.8 2.3Zm-4.4-5.2v1.5l.9-.1c.4-.067.6-.334.6-.8 0-.5-.2-.7-.6-.7l-.9.1Zm10-3.3 2.5 7.6-2.4.3-.2-.8-2.5.3-.3.8-2.4.3 3-8.3 2.3-.2Zm-1.8 5.1 1-.1-.4-1.6-.6 1.7Z" clip-rule="evenodd"/>
  <path fill="#FEFEFE" d="m46 29.6-.2 8-2 .2-2.3-3.2-.1 3.5-2.3.2.2-7.9 2.1-.2 2.3 3.2.1-3.5 2.2-.3Zm2.9 1.9-2 .3v-2.3l6.4-.7V31l-2.1.3L51 37l-2.2.2.1-5.7Zm7.5-.8v.8l2.9-.4v2.1l-3 .3v.7l3.2-.4-.1 2.2-5.4.6.2-7.9 5.5-.6-.1 2.2-3.2.4Zm5.4 2.1c.533.6 1.1.834 1.7.7.467 0 .7-.134.7-.4 0-.134-.133-.233-.4-.3l-.9-.3a5.693 5.693 0 0 1-1-.3 3.38 3.38 0 0 1-.9-.8c-.267-.267-.367-.633-.3-1.1 0-.467.2-1 .6-1.6.3-.6 1.2-1.1 2.2-1.2.8-.1 1.6.1 2 .4.5.3.8.6 1 .8l.1.2-1.6 1.4c-.267-.333-.5-.534-.7-.6-.2-.067-.467-.067-.8 0-.3 0-.5.2-.5.4s.3.4.9.5l.8.2c.333.133.633.267.9.4s.467.367.6.7c.2.267.3.6.3 1 0 .5-.3 1.1-.7 1.7-.4.5-1.3 1-2.4 1.1-.867.133-1.567.033-2.1-.3-.533-.4-.9-.8-1.1-1.2l1.6-1.4Z"/>
  <path fill="#FEFEFE" fill-rule="evenodd" d="M29.7 11.7c.9-.1 1.9-.1 1.8 2.9-.1 2.8-1 3-2.4 3.1l-.5.1.2-6 .9-.1Zm-.1.7-.2 4.6c1.3-.1 1.3-1.3 1.3-2.3.1-.9.2-2.5-1.1-2.3Z" clip-rule="evenodd"/>
  <path fill="#FEFEFE" d="M34.2 11.2v.7l-1.3.1-.1 1.9 1.1-.1v.7l-1.1.1-.1 2 1.3-.1-.1.7-2 .2.3-6 2-.2Zm2.5-.3-.2 5.3 1.2-.1v.7l-2 .2.2-6 .8-.1Z"/>
  <path fill="#FEFEFE" fill-rule="evenodd" d="m39.6 10.6 1 5.8-.8.1-.1-1.1-1.1.1-.3 1.2-.7.1 1.4-6.1.6-.1Zm-.1 3.3-.2-2.1-.6 3 .9-.1-.1-.8Z" clip-rule="evenodd"/>
  <path fill="#FEFEFE" d="M42.9 11.1c-.2-.1-.4-.2-.7-.1-.4 0-.7.4-.7.8 0 .3.1.4.2.6l.6.6c.5.5.7.9.7 1.7 0 .8-.6 1.6-1.4 1.7-.3 0-.6 0-.8-.2v-.8c.2.2.5.3.8.2.4 0 .6-.4.6-.9.1-1.2-1.5-1.2-1.4-2.8 0-.8.5-1.6 1.3-1.7.267 0 .533.033.8.1v.8Z"/>
  <path fill="#FEFEFE" fill-rule="evenodd" d="M15.3 4.6c.9-.1 1.9-.1 1.8 2.9-.2 2.7-1 3-2.4 3.1l-.5.1.2-6 .9-.1Zm-.1.7L15 9.9c1.3-.1 1.3-1.3 1.3-2.3.1-1 .2-2.5-1.1-2.3Z" clip-rule="evenodd"/>
  <path fill="#FEFEFE" d="m18.3 10.2-.8.1.3-6 .7-.1-.2 6ZM18.1 4l-.4-.1.7-1.3.5.3-.8 1.1Z"/>
  <path fill="#FEFEFE" fill-rule="evenodd" d="m20.6 4 1 5.9h-.7l-.2-1.1-1.1.1-.3 1.2-.7.1L20 4.1l.6-.1Zm-.1 3.3-.2-2.1-.6 3.1.9-.1-.1-.9Z" clip-rule="evenodd"/>
  <path fill="#FEFEFE" d="m24 9.6-.7.1.2-6 .8-.1-.3 6Zm1.6-4.4v2l-.1 2.2-.7.1.2-6 .7-.1 1.2 4.4-.1-2.4.1-2.1.7-.1-.2 6-.7.1-1.2-4.5.1.4Zm4.7-2.3v.7l-.8.1-.2 5.3-.8.1.2-5.3-.9.1.1-.7 2.4-.3Zm2.3-.2v.7l-1.3.1-.1 1.9 1.2-.1-.1.6-1.1.2-.1 2 1.3-.1v.7l-2.1.2.3-6 2-.2Z"/>
  <path fill="#FEFEFE" fill-rule="evenodd" d="m33 2.6.9-.1c.6 0 1.4-.1 1.4 1.4-.1.6-.3 1.4-.9 1.6l.9 2.8-.7.1-1-2.8-.1 2.9-.7.1.2-6Zm1.4 1.5c0-.5 0-1-.6-.9h-.1l-.1 2c.6 0 .8-.4.8-1.1Z" clip-rule="evenodd"/>
  <path fill="#FEFEFE" d="M36.5 4v4.2l-.8.1.2-6 .8-.1 1.1 4.4-.1-2.4.1-2.1.8-.1-.3 6-.7.1-1.1-4.5V4Z"/>
  <path fill="#FEFEFE" fill-rule="evenodd" d="m40.7 1.8 1 5.8-.8.1-.1-1.1-1.2.1-.2 1.2-.8.1 1.5-6.2h.6Zm-.1 3.4L40.4 3h-.1l-.5 3.1.9-.1-.1-.8Z" clip-rule="evenodd"/>
  <path fill="#FEFEFE" d="M44.4 2.2c-.2-.1-.3-.2-.5-.1-1 .1-1.1 1.7-1.1 2.4-.1.8-.1 2.3 1 2.2.133 0 .267-.067.4-.2v.7c-.2.2-.4.3-.6.3-1.6.2-1.7-1.6-1.6-2.8 0-1.2.2-3.2 1.8-3.4.2 0 .4 0 .6.1v.8Zm.9 5-.7.1.2-6 .8-.1-.3 6Z"/>
  <path fill="#FEFEFE" fill-rule="evenodd" d="M49 3.8c-.1 1.1-.2 3.1-1.6 3.3-1.5.1-1.4-1.9-1.4-3 .1-1 .2-3 1.6-3.2C49.1.7 49 2.7 49 3.8Zm-2.2.3c0 1.2 0 2.3.6 2.2.6-.1.7-1.1.8-2.4 0-1.3 0-2.3-.6-2.2-.6 0-.7 1.1-.8 2.4Z" clip-rule="evenodd"/>
  <path fill="#FEFEFE" d="m50.2 2.5.1 2-.1 2.2h-.8l.3-5.9.7-.1 1.1 4.4h.1l-.1-2.4.1-2.2h.7l-.2 6h-.7l-1.2-4.4v.4Z"/>
  <path fill="#FEFEFE" fill-rule="evenodd" d="m54.4.2 1 5.9-.7.1-.2-1.2-1.1.1-.3 1.2-.7.1L53.8.3l.6-.1Zm-.1 3.3-.2-2.1-.6 3.1.9-.1-.1-.9Z" clip-rule="evenodd"/>
  <path fill="#FEFEFE" d="m56.7 0-.2 5.3 1.3-.2-.1.7-2 .2.3-5.9.7-.1Z"/>
</svg>
