<svg xmlns="http://www.w3.org/2000/svg" width="90" height="53" fill="none" viewBox="0 0 90 53">
  <path fill="#FEFEFE" fill-rule="evenodd" d="M35.2 33c1 .1 2 .2 1.3 3.3-.6 2.7-1.6 2.8-3 2.7l-.6-.1 1.4-6 .9.1Zm-.2.7-1.1 4.7c1.3.1 1.5-1.2 1.8-2.2.2-.9.7-2.5-.7-2.5Z" clip-rule="evenodd"/>
  <path fill="#FEFEFE" d="m40 33.4-.1.7-1.4-.1-.4 1.8 1.2.1-.2.7-1.2-.1-.5 2.1 1.4.1-.2.7-2.1-.2 1.4-6 2.1.2Zm2.7.2-1.2 5.3 1.3.1-.1.7-2.2-.2 1.4-6 .8.1Z"/>
  <path fill="#FEFEFE" fill-rule="evenodd" d="m45.9 33.8-.1 6.1-.9-.1.1-1.2h-1.2l-.5 1.1-.8-.1 2.7-5.8h.7Zm-.8 3.3.2-2.2-1.2 3 1 .1v-.9Z" clip-rule="evenodd"/>
  <path fill="#ED4A97" d="M76.9 50.9 0 45.1l.6-4.6 76.8 5.8-.5 4.6Z"/>
  <path fill="#FEFEFE" fill-rule="evenodd" d="m1.6 46.6 1.6-7.4 2.9.3c1.133.067 1.967.467 2.5 1.2.533.733.7 1.634.5 2.7-.267 1.067-.8 1.933-1.6 2.6-.867.6-1.867.867-3 .8l-2.9-.2ZM5 41.5l-.7 3.2.8.1c.4 0 .767-.133 1.1-.4.333-.266.533-.633.6-1.1.133-.466.1-.867-.1-1.2-.2-.333-.5-.5-.9-.5l-.8-.1Z" clip-rule="evenodd"/>
  <path fill="#FEFEFE" d="m12.6 42-.2.7 2.9.3-.4 1.9-2.9-.3-.1.7 3.1.2-.4 2.1-5.4-.4 1.6-7.4 5.4.4-.5 2.1-3.1-.3Zm7.4 5.1h-.6l-.9-2.3-.6 3-2.3-.2 1.6-7.3 2.1.1 1.2 3 2.5-2.7 2.1.2-1.6 7.3-2.3-.1.7-3.1-1.9 2.1Z"/>
  <path fill="#FEFEFE" fill-rule="evenodd" d="M30.1 41.1c1.067.067 1.9.5 2.5 1.3.6.8.8 1.733.6 2.8-.267 1.067-.867 1.933-1.8 2.6-.867.733-1.867 1.033-3 .9-1.133-.067-1.967-.5-2.5-1.3-.6-.8-.8-1.733-.6-2.8A4.596 4.596 0 0 1 27 42a4.712 4.712 0 0 1 3.1-.9Zm-1.2 5.6c.4 0 .8-.167 1.2-.5.4-.267.633-.667.7-1.2.133-.467.067-.867-.2-1.2-.2-.4-.533-.6-1-.6a1.344 1.344 0 0 0-1.2.4c-.4.333-.667.733-.8 1.2-.067.467 0 .9.2 1.3.267.333.633.533 1.1.6Z" clip-rule="evenodd"/>
  <path fill="#FEFEFE" d="M41.8 46.5c-.4.867-1.033 1.6-1.9 2.2-.867.533-1.767.767-2.7.7-1.133-.066-2-.5-2.6-1.3-.6-.8-.767-1.733-.5-2.8.2-1.066.767-1.933 1.7-2.6.933-.733 1.933-1.033 3-.9 1 .067 1.8.434 2.4 1.1.6.667.867 1.467.8 2.4l-2.4-.2c0-.333-.133-.633-.4-.9-.2-.2-.467-.333-.8-.4-.467 0-.9.167-1.3.5-.333.267-.567.667-.7 1.2-.133.467-.066.867.2 1.2.267.4.6.6 1 .6.334.067.667 0 1-.2.334-.2.6-.466.8-.8l2.4.2Z"/>
  <path fill="#FEFEFE" fill-rule="evenodd" d="m48.6 50.1-2.7-.2-1.2-1.9-.2-.1-.4 1.9-2.2-.2 1.6-7.4 3.1.3c.1 0 .2 0 .5.1.4.1.8.2 1.2.5.3.4.6.7.7 1.3.067.334.033.7-.1 1.1-.2 1-.767 1.7-1.7 2.1l1.4 2.5Zm-3.3-5.6-.3 1.4.9.1c.4 0 .633-.233.7-.7.1-.4-.1-.7-.4-.7l-.9-.1Zm10.2-1.4 1.1 7.6-2.4-.2-.1-.8-2.4-.1-.4.7-2.4-.2 4.3-7.1 2.3.1Zm-2.6 4.4 1 .1-.2-1.6-.8 1.5Z" clip-rule="evenodd"/>
  <path fill="#FEFEFE" d="M65.3 48.2a4.698 4.698 0 0 1-1.9 2.2c-.8.6-1.7.867-2.7.8-1.133-.133-1.967-.6-2.5-1.4-.6-.733-.8-1.633-.6-2.7.267-1.067.834-1.967 1.7-2.7a4.713 4.713 0 0 1 3.1-.9c.934.066 1.7.433 2.3 1.1.6.667.9 1.5.9 2.5l-2.4-.2c-.067-.4-.233-.7-.5-.9a.95.95 0 0 0-.8-.4c-.466 0-.867.133-1.2.4-.4.333-.667.733-.8 1.2-.066.467 0 .9.2 1.3.267.333.633.533 1.1.6.267 0 .567-.1.9-.3.334-.2.6-.467.8-.8l2.4.2Zm.2 3.2L67 44l2.3.2-1.6 7.3-2.2-.1Z"/>
  <path fill="#FEFEFE" fill-rule="evenodd" d="m75 44.6 1.1 7.6-2.4-.2-.1-.8-2.4-.2-.4.8-2.4-.2 4.3-7.2 2.3.2ZM72.4 49l1 .1-.2-1.6-.8 1.5Z" clip-rule="evenodd"/>
  <path fill="#ED4A97" d="m88.6 33.3-87.8-7 .6-4.6 87.8 7-.6 4.6Z"/>
  <path fill="#FEFEFE" fill-rule="evenodd" d="m9.1 28.5-2.7-.2-1.2-2H5l-.4 1.8-2.2-.1L4 20.6l3.1.2s.1 0 .5.1c.4.2.7.3 1.1.6.4.3.7.7.8 1.3 0 .334-.033.667-.1 1-.2 1.067-.767 1.8-1.7 2.2l1.4 2.5Zm-3.3-5.6-.3 1.3.8.1c.467.067.733-.133.8-.6.1-.5-.1-.7-.5-.8h-.8Z" clip-rule="evenodd"/>
  <path fill="#FEFEFE" d="m13.1 23.4-.2.7 3 .2-.5 1.9-2.9-.2-.1.6 3.1.2-.4 2.1-5.4-.4 1.6-7.3 5.4.4-.4 2-3.2-.2Zm4.8 3c.466.6 1 .9 1.6.9.4.067.633-.033.7-.3.067-.067-.034-.166-.3-.3a4.439 4.439 0 0 0-.8-.4 2.663 2.663 0 0 1-.9-.6c-.334-.2-.6-.466-.8-.8a2.02 2.02 0 0 1-.1-1.1c.066-.466.333-.933.8-1.4.5-.5 1.4-.8 2.5-.7.8.1 1.5.4 1.8.7.4.3.7.7.8.9l.1.2-1.8 1.1c-.2-.333-.4-.566-.6-.7a9.595 9.595 0 0 0-.7-.2c-.4 0-.6.1-.6.3-.1.2.3.4.8.6.2.133.466.267.8.4.267.133.5.3.7.5.267.2.433.467.5.8.133.267.167.6.1 1-.1.4-.4.9-1 1.4-.5.5-1.4.7-2.5.7-.867-.066-1.534-.333-2-.8-.467-.4-.767-.8-.9-1.2l1.8-1Zm7.9-2.1-2.1-.1.5-2.1 6.3.5-.4 2.1-2.1-.2-1.2 5.3-2.2-.2 1.2-5.3Z"/>
  <path fill="#FEFEFE" fill-rule="evenodd" d="m34.6 22.9 1.1 7.6-2.4-.2-.1-.8-2.4-.2-.4.8-2.4-.2 4.3-7.2 2.3.2ZM32 27.3l1 .1-.1-1.6-.9 1.5Z" clip-rule="evenodd"/>
  <path fill="#FEFEFE" d="M39.2 30.9c-.1 0-.2 0-.6-.2-.4-.1-.7-.2-1.2-.5-.4-.4-.6-.8-.7-1.5a3.043 3.043 0 0 1 0-1.1l1-4.5 2.2.2-1 4.5s0 .1.1.3v.3c.1.2.3.4.7.4.267 0 .467-.067.6-.2.2-.133.333-.267.4-.4l.1-.3 1-4.5 2.2.2-1 4.5c-.1.8-.6 1.5-1 1.9-.267.2-.5.367-.7.5-.8.3-1.6.4-1.9.4h-.2Z"/>
  <path fill="#FEFEFE" fill-rule="evenodd" d="m50.2 31.5-2.7-.2-1.2-1.9h-.2l-.4 1.8-2.2-.2 1.6-7.3 3.1.2c.1 0 .1 0 .5.1s.8.3 1.2.6c.3.3.6.6.7 1.3 0 .267-.033.6-.1 1-.2 1-.767 1.733-1.7 2.2l1.4 2.4Zm-3.3-5.7-.3 1.4.9.1c.4 0 .633-.2.7-.6.1-.5-.1-.8-.4-.8l-.9-.1Zm10.2-1.2 1.1 7.5-2.4-.1-.1-.8-2.4-.2-.4.7-2.4-.1 4.3-7.2 2.3.2ZM54.5 29l1 .1-.2-1.6-.8 1.5Z" clip-rule="evenodd"/>
  <path fill="#FEFEFE" d="M66.9 29.6c-.4.933-1.033 1.7-1.9 2.3-.867.534-1.767.767-2.7.7-1.133-.067-2-.5-2.6-1.3-.533-.8-.7-1.733-.5-2.8a4.594 4.594 0 0 1 1.7-2.6c.933-.733 1.933-1.033 3-.9 1 .067 1.8.433 2.4 1.1.6.667.867 1.467.8 2.4l-2.3-.2a1.742 1.742 0 0 0-.5-.9c-.2-.2-.467-.333-.8-.4-.467 0-.9.167-1.3.5-.333.267-.567.667-.7 1.2-.067.467 0 .867.2 1.2.267.4.6.6 1 .6.333.067.667 0 1-.2.333-.2.6-.467.8-.8l2.4.1Zm.1 3.2 1.6-7.4 2.3.2-1.6 7.4-2.3-.2Z"/>
  <path fill="#FEFEFE" fill-rule="evenodd" d="M75.9 25.8c1.067.134 1.9.6 2.5 1.4.6.8.767 1.733.5 2.8-.2 1.067-.767 1.933-1.7 2.6-.867.667-1.867.967-3 .9-1.133-.067-1.967-.5-2.5-1.3-.6-.8-.8-1.733-.6-2.8.267-1.066.833-1.966 1.7-2.7a4.712 4.712 0 0 1 3.1-.9Zm-1.2 5.6c.4.067.8-.067 1.2-.4.4-.333.633-.733.7-1.2.133-.466.067-.9-.2-1.3-.2-.333-.533-.533-1-.6-.467 0-.867.134-1.2.4-.4.334-.667.733-.8 1.2-.067.533 0 .967.2 1.3.267.4.633.6 1.1.6Zm2.4-6-2.3-.2 1.5-1.8 2.5.1-1.7 1.9Z" clip-rule="evenodd"/>
  <path fill="#FEFEFE" d="m87.4 26.8-1.6 7.4-2-.1-1.7-3.4-.7 3.2-2.2-.2 1.6-7.4 2 .2 1.7 3.4.7-3.2 2.2.1Z"/>
  <path fill="#ED4A97" d="M51.7 19 9.2 15.1l.6-4.6 42.5 3.9-.6 4.6Z"/>
  <path fill="#FEFEFE" d="M55.2 14.4v2.8l.3-.7 1.1-2 .8.1-2 3.3-.6 2.5H54l.6-2.6-.3-3.5.9.1Z"/>
  <path fill="#FEFEFE" fill-rule="evenodd" d="M60.1 14.8c.9.1 2 .3 1.2 3.3-.7 2.8-1.7 2.8-3.1 2.7l-.6-.1 1.6-6 .9.1Zm-.3.7-1.2 4.6c1.3.2 1.6-1 1.9-2.1.2-.9.7-2.4-.7-2.5Z" clip-rule="evenodd"/>
  <path fill="#FEFEFE" d="m62 21.1-.8-.1 1.5-5.9h.8l-1.5 6Zm1.1-6.2-.3-.3.9-1.1.5.4-1.1 1Z"/>
  <path fill="#FEFEFE" fill-rule="evenodd" d="m65.8 15.4-.2 6h-.8v-1.2l-1.2-.1-.5 1.1-.8-.1 2.8-5.8.7.1Zm-.8 3.3.2-2.2-1.2 3 .9.1.1-.9Zm4.7-3c1 .1 2.1.3 1.3 3.3-.7 2.7-1.7 2.8-3.1 2.7l-.6-.1 1.5-6 .9.1Zm-.2.7L68.3 21c1.3.2 1.6-1.1 1.8-2.1.3-.9.8-2.5-.6-2.5Z" clip-rule="evenodd"/>
  <path fill="#FEFEFE" d="m74.5 16.2-.1.6-1.4-.1-.5 1.9 1.2.1-.1.7-1.2-.1-.5 2 1.3.1-.2.7-2.1-.2 1.5-5.9 2.1.2Zm2.7.2-1.3 5.3 1.3.1-.1.7-2.2-.2 1.5-6 .8.1Z"/>
  <path fill="#FEFEFE" fill-rule="evenodd" d="m80.4 16.7-.3 6.1-.8-.1.1-1.2-1.2-.1-.5 1.1h-.8l2.8-5.9.7.1Zm-.8 3.4.2-2.2-1.2 2.9.9.1.1-.8ZM21 0c1 .1 2 .3 1.3 3.3-.7 2.8-1.7 2.8-3.1 2.7l-.6-.1L20.1 0h.9Zm-.2.6-1.2 4.6c1.3.2 1.5-1 1.8-2 .2-1 .7-2.5-.6-2.6Z" clip-rule="evenodd"/>
  <path fill="#FEFEFE" d="m25.8.5-.2.7-1.3-.1-.5 1.8L25 3l-.2.7-1.2-.1-.5 2 1.4.2-.2.7-2.2-.2 1.6-6 2.1.2Zm2.6 1.1c-.2-.1-.3-.2-.5-.2-1.1-.1-1.5 1.5-1.7 2.2-.2.8-.5 2.3.6 2.4.133 0 .3-.033.5-.1l-.2.7c-.267.133-.5.167-.7.1-1.6-.1-1.4-1.9-1.1-3.1.3-1.2 1-3.2 2.6-3 .3 0 .5.1.7.2l-.2.8Zm1.4-.7-1.3 5.2 1.3.2-.2.6-2.1-.2L29 .8l.8.1Z"/>
  <path fill="#FEFEFE" fill-rule="evenodd" d="m32.9 1.1-.2 6.1h-.8L32 6l-1.2-.1-.5 1.1-.8-.1 2.8-5.8h.6Zm-.8 3.3.2-2.2-1.3 3 1 .1.1-.9Zm2.5-3.1.9.1c.6 0 1.5.2 1.2 1.6-.2.6-.6 1.4-1.3 1.5l.4 3-.8-.1-.4-3-.7 2.9h-.8l1.5-6Zm1.1 1.8c.2-.6.2-1-.4-1.1h-.1l-.5 2c.6.1.9-.3 1-.9Z" clip-rule="evenodd"/>
  <path fill="#FEFEFE" fill-rule="evenodd" d="M39.2 1.7 39 7.8l-.8-.1.1-1.2-1.3-.1-.5 1.2-.8-.1 2.9-5.8h.6ZM38.3 5l.3-2.2h-.1l-1.2 3 1 .1V5Z" clip-rule="evenodd"/>
  <path fill="#FEFEFE" d="M43 2.9c-.2-.1-.3-.2-.5-.2-1.1-.1-1.5 1.5-1.7 2.3-.2.7-.5 2.2.6 2.3.133.067.3.067.5 0l-.2.7c-.267.067-.5.1-.7.1-1.6-.2-1.4-1.9-1.1-3.2.3-1.2 1-3.1 2.6-3 .3.1.5.1.7.3l-.2.7Zm-.1 5.3-.8-.1 1.5-6 .8.1-1.5 6Z"/>
  <path fill="#FEFEFE" fill-rule="evenodd" d="M47.4 5.5c-.3 1.1-.8 3.1-2.3 2.9-1.6-.1-1.1-2.1-.8-3.2.2-1 .8-3 2.3-2.9 1.6.2 1.1 2.1.8 3.2Zm-2.3-.2c-.3 1.3-.5 2.3.2 2.4.6.1.9-1 1.3-2.3.3-1.2.5-2.3-.2-2.3-.6-.1-1 .9-1.3 2.2Zm1.6-3.2-.4-.2 1-1.1.4.3-1 1Z" clip-rule="evenodd"/>
  <path fill="#FEFEFE" d="m49 4.4-.4 2-.5 2.2h-.8l1.5-6 .8.1.2 4.6h.1l.4-2.4.5-2.1.8.1-1.5 5.9-.8-.1-.2-4.7-.1.4Z"/>
  <path fill="#FEFEFE" fill-rule="evenodd" d="M54.7 3.1c1 .1 2 .3 1.3 3.3-.7 2.8-1.7 2.8-3.1 2.7l-.6-.1 1.5-5.9h.9Zm-.2.6-1.2 4.6c1.3.2 1.6-1 1.8-2 .3-1 .7-2.5-.6-2.6Z" clip-rule="evenodd"/>
  <path fill="#FEFEFE" d="m59.5 3.6-.1.7-1.4-.2-.5 1.9 1.2.1-.1.7-1.3-.1-.5 2 1.4.2-.2.6-2.1-.2 1.5-5.9 2.1.2Zm2.7.2-1.3 5.3 1.3.1-.2.7-2.1-.2 1.5-5.9h.8Z"/>
  <path fill="#FEFEFE" fill-rule="evenodd" d="M66.1 7.2c-.3 1.1-.8 3.1-2.4 3-1.5-.2-1-2.2-.8-3.3.3-1 .8-3 2.4-2.9 1.5.2 1.1 2.2.8 3.2ZM63.8 7c-.3 1.3-.5 2.3.1 2.4.7.1 1-1 1.3-2.2.4-1.3.5-2.4-.1-2.4-.6-.1-1 1-1.3 2.2Z" clip-rule="evenodd"/>
  <path fill="#FEFEFE" d="M69.1 5.4c-.2-.2-.3-.3-.6-.3-.5-.1-.8.3-.9.7-.1.2-.1.4 0 .7l.5.7c.4.6.6 1 .4 1.8-.2.8-.9 1.5-1.8 1.4-.3 0-.6-.1-.8-.3l.2-.8c.2.2.4.3.7.3.5.1.8-.3.9-.7.3-1.2-1.3-1.6-.9-3.2.2-.8.8-1.5 1.7-1.4.334.067.6.167.8.3l-.2.8Z"/>
  <path fill="#FEFEFE" fill-rule="evenodd" d="m11.1 16.8 1.8-7.4 2.9.3c1.133.067 1.967.5 2.5 1.3.533.733.667 1.633.4 2.7-.267 1.067-.833 1.9-1.7 2.5-.8.667-1.767.933-2.9.8l-3-.2Zm3.5-5-.8 3.2h.8c.4.067.767-.033 1.1-.3.333-.266.533-.633.6-1.1.133-.467.1-.866-.1-1.2-.133-.333-.433-.533-.9-.6h-.7Zm4.2 5.7 1.7-7.4 2.9.3c1.133.067 1.967.5 2.5 1.3.533.734.667 1.634.4 2.7-.267 1.067-.8 1.9-1.6 2.5-.867.667-1.867.934-3 .8l-2.9-.2Zm3.5-5-.8 3.2h.8c.4.067.767-.033 1.1-.3.333-.266.567-.633.7-1.1.067-.466.033-.867-.1-1.2-.2-.333-.533-.533-1-.6h-.7Z" clip-rule="evenodd"/>
  <path fill="#FEFEFE" d="M26.8 16.2c.267-.2.6-.3 1-.3.333.067.6.2.8.4.133.267.167.6.1 1-.067.334-.233.6-.5.8-.333.2-.667.3-1 .3a1.28 1.28 0 0 1-.8-.5c-.2-.2-.267-.5-.2-.9.133-.333.333-.6.6-.8ZM36 19l.6-2.3-1.9-.2-.5 2.4-2.2-.2 1.7-7.4 2.2.2-.7 3 1.8.1.7-2.9 2.3.2-1.8 7.4L36 19Zm7.5.7.5-2.3-1.8-.2-.6 2.4-2.2-.2 1.7-7.4 2.3.2-.7 3 1.8.1.7-2.9 2.2.2-1.7 7.3-2.2-.2Zm4.2-1.6c.267-.2.567-.3.9-.3.4.067.667.234.8.5.2.267.267.567.2.9-.067.334-.267.6-.6.8-.267.2-.566.3-.9.3-.4 0-.666-.133-.8-.4a1.083 1.083 0 0 1-.2-.9c.067-.4.267-.7.6-.9Z"/>
</svg>
