<svg xmlns="http://www.w3.org/2000/svg" width="79" height="63" fill="none" viewBox="0 0 79 63">
  <path fill="#EFD21D" d="m51.221 46.043.553 1.422.099.018 1.475.27c.099.019.08.117.08.117l-1.2 1-.017.1.141 1.448c.08.117-.018.099-.018.099l-1.385-.762-1.44.65s-.1-.017-.081-.116l.368-1.457.018-.099-1.117-1.119s.018-.098.117-.08l1.449-.142.098.018.762-1.385.098.018Zm-34.037-3.992 1.512.073.098.018.922-1.153c.018-.098.117-.08.099.019l.338 1.485.099.018 1.421.564-.018.099-1.36.768-.018.098-.074 1.512s-.018.098-.116.08l-1.135-1.021c.012-.066-.02-.072-.098-.018l-1.387.356c-.098-.018-.098-.018-.08-.116l.565-1.422-.786-1.262c-.08-.116-.08-.116.018-.098Zm-15.961 3.89 1.592.19.018-.098 1.02-1.135c.019-.099.019-.099.1.018L4.29 46.4l1.422.565c.08.117.08.117-.018.099l-1.28.883-.172 1.494-.018.098-1.233-1.038-1.485.338c-.116.08-.098-.018-.098-.018l.565-1.422c.077-.053.083-.086.018-.098l-.786-1.262.018-.099Zm26.327 3.903 1.19.726.098.018L30.064 50l.098.018-.35 1.36.098.017.92 1.084-.018.098-1.431.043-.018.099-.726 1.188-.098-.018-.473-1.306-.098-.018-1.279-.234c-.098-.018-.098-.018-.08-.116l1.083-.92-.16-1.351.018-.099Zm32.527 3.919 1.539-.633.018-.099.288-1.574s.116-.08.098.018l1.099 1.218 1.664-.204.098.018-.878 1.466.75 1.459c-.019.098-.019.098-.117.08l-1.574-.288-1.218 1.1c-.017.098-.098-.019-.098-.019l-.204-1.664-1.385-.762c-.098-.018-.08-.116-.08-.116Z"/>
  <path fill="#FEF3DD" d="M47.902 55.297c.044.313-.305.554-.618.598-.394-.072-.653-.323-.58-.716-.045-.314.304-.554.617-.599.394.072.653.323.58.717Zm-8.8-9.134c.044.313-.323.653-.716.581-.314.044-.653-.323-.581-.716-.044-.313.323-.652.716-.58.412-.027.653.322.58.715Zm27.959.542c.026.411-.34.75-.734.679-.412.026-.653-.323-.68-.734.073-.394.324-.653.735-.68.393.073.733.44.68.735ZM8.215 40.511c.044.314-.305.555-.618.6-.394-.073-.653-.324-.58-.717-.045-.313.304-.554.617-.598.394.072.653.322.58.715Zm5.65 9.676a.752.752 0 0 1-.617.599c-.394-.072-.653-.323-.581-.717-.044-.313.305-.554.618-.598.295.054.652.322.58.716Z"/>
  <path fill="#EFD21D" d="m27.906 23.51-.434 1.464-.096.026-1.449.39c-.096.026-.07.123-.07.123l1.278.899.026.096-.022 1.456c-.07.123.026.097.026.097l1.318-.874 1.49.53s.096-.025.07-.122l-.487-1.422-.026-.097 1.021-1.207s-.026-.097-.123-.07l-1.455-.022-.097.026-.873-1.318-.097.026ZM61.5 16.732l-1.5.197-.097.026-1.014-1.072c-.026-.097-.123-.071-.097.026l-.215 1.507s-.032.01-.096.026l-1.37.68.026.097 1.418.653s.01.032.026.097l.198 1.5s.026.097.122.07l1.047-1.11c-.017-.065.015-.073.097-.026l1.411.24c.097-.025.097-.026.07-.122l-.68-1.37.68-1.323c.07-.122.07-.122-.026-.096Zm16.227 2.564-1.571.32-.026-.096-1.111-1.047c-.026-.097-.026-.097-.097.026l-.214 1.507-1.37.68c-.071.123-.071.123.026.098l1.348.775.294 1.474.026.097 1.143-1.137 1.508.215c.123.07.097-.026.097-.026l-.68-1.37c-.082-.047-.09-.08-.026-.097l.679-1.322-.026-.097ZM51.81 25.352l-1.125.82-.097.027-1.27-.486-.097.026.461 1.326-.096.026-.828 1.155.026.097 1.43-.075.026.096.82 1.125.097-.026.364-1.34.096-.027 1.256-.338c.096-.026.096-.026.07-.123l-1.155-.828.048-1.359-.026-.096Zm-32.094 6.581-1.586-.504-.026-.097-.416-1.545s-.123-.07-.097.026l-.995 1.304-1.675-.066-.096.026.996 1.389-.627 1.515c.025.097.026.097.122.07l1.545-.416 1.304.995c.026.097.097-.026.097-.026l.066-1.675 1.318-.873c.096-.026.07-.123.07-.123Z"/>
  <path fill="#FEF3DD" d="M31.976 32.46c-.018.316.35.527.665.545.386-.104.624-.375.52-.761.018-.316-.35-.527-.665-.546-.386.104-.624.376-.52.762Zm8.019-9.826c-.019.315.375.623.761.52.316.018.624-.376.52-.762.018-.316-.376-.624-.762-.52-.412.008-.624.375-.52.762Zm-27.82 2.839c.007.412.401.72.787.617.413-.008.624-.376.617-.788-.105-.386-.376-.624-.788-.616-.386.104-.694.497-.616.787ZM70.312 14.46c-.018.315.35.527.665.545.386-.104.624-.375.52-.761.018-.316-.35-.527-.665-.546-.386.104-.624.375-.52.761Zm-4.836 10.107c.079.29.35.527.665.546.387-.104.624-.376.52-.762.019-.316-.35-.527-.665-.545-.29.078-.624.375-.52.76Z"/>
  <path fill="#1C1C1A" d="M36.443 59.979c.2 1.9 6 2.9 13 2.3 7.1-.6 12.6-2.6 12.5-4.4-.2-1.9-6-2.9-13-2.3-7 .6-12.6 2.6-12.5 4.4Z" opacity=".2"/>
  <path fill="#AB795A" stroke="#050505" stroke-linecap="round" stroke-linejoin="round" stroke-width=".4" d="M59.243 31.98c.3-.6 1.5-2.8 2.1-3.5.8-.8 1.8-.5 2.8.1 1.2.8 1.7 1.799 1.2 3.199-.2.5-1.1 1.7-1.6 2.4-.4.8-1.8 2.4-3.6 1.3-1.9-1.1-1.3-2.8-.9-3.5Z"/>
  <path fill="#050505" d="M63.743 34.179c-.4.8-1.8 2.4-3.6 1.3-1.9-1.1-1.2-3.1-.8-3.7 1.4.2 2.8 1.2 4.4 2.4Z" opacity=".2" style="mix-blend-mode:multiply"/>
  <path fill="#AB795A" d="m59.743 31.479-.1-1.2c-.1-.5.3-1 .7-1 .5-.1.7.2.8.4.2.4.3.7.3.7"/>
  <path stroke="#050505" stroke-linecap="round" stroke-linejoin="round" stroke-width=".4" d="m59.743 31.479-.1-1.2c-.1-.5.3-1 .7-1 .5-.1.7.2.8.4.2.4.3.7.3.7"/>
  <path fill="#050505" d="M61.343 29.58s.4.299.5.699c.1.5.1.8.3 1 .2.1 1.3.9 1.6.7.4-.1 1.6-1.4.9-2.2-.6-.7-2.2-1.8-3-1.1-.7.7-.3.9-.3.9Z" opacity=".2" style="mix-blend-mode:multiply"/>
  <path fill="#F5F6F7" stroke="#050505" stroke-linecap="round" stroke-linejoin="round" stroke-width=".4" d="M63.743 34.679c-.9 1.2-1.6 2.2-2.6 3.6-1.8 2.5-3.7 3.6-3.7 3.6-1.6 1.1-3.5.9-4.6-.4l-.3-.5c-1-1.2-1.1-3.1.8-4.5 0 0 1.7-1.4 2.9-3.1.9-1.2 1.9-2.7 1.9-2.7l5.6 4Z"/>
  <path fill="#0A0C0F" d="M63.743 34.679c-.9 1.2-1.6 2.2-2.6 3.6-1.8 2.5-3.7 3.6-3.7 3.6-1.6 1.1-3.5.9-4.6-.4l-.3-.5a1.568 1.568 0 0 1-.3-.4h.5s2.2 1.1 4.7-1.4c1.7-1.7 3.4-4.3 4.4-5.9l1.9 1.4Z" opacity=".3"/>
  <path fill="#C02F2D" stroke="#050505" stroke-linecap="round" stroke-linejoin="round" stroke-width=".4" d="M44.543 40.98c.5 4.4-2.8 8.299-7.2 8.799-4.4.4-8.3-2.8-8.8-7.2-.4-4.4 2.8-8.3 7.2-8.8 4.4-.4 8.4 2.8 8.8 7.2Z"/>
  <path fill="#050505" stroke="#050505" stroke-linecap="round" stroke-linejoin="round" stroke-width=".4" d="M56.043 56.079s.2 1.6 2.2 1.9l-9.6 1-.3-2.1c0-1.1-.2-3.2 3.7-3.6 3.6-.3 3.5.9 4 2.8Z"/>
  <path fill="#2B6EB6" stroke="#050505" stroke-linecap="round" stroke-linejoin="round" stroke-width=".4" d="m46.343 48.679 1.6 8.5 8.8-.8-.2-8.5c0-1.1-.1-4.5-5.7-3.8-4.9.6-4.6 3.4-4.5 4.6Z"/>
  <path fill="#0A0C0F" d="M56.243 46.979c.5 2 .3 9.4.3 9.4l-2.1.2-.7-12.5c.3.1 1.8.1 2.5 2.9Z" opacity=".3"/>
  <path fill="#050505" stroke="#050505" stroke-linecap="round" stroke-linejoin="round" stroke-width=".4" d="M47.743 56.98s.2 1.499 2.3 1.799l-9.7 1-.2-2.1c-.1-1-.3-3.2 3.6-3.6 3.6-.3 3.5 1 4 2.9Z"/>
  <path fill="#2B6EB6" stroke="#050505" stroke-linecap="round" stroke-linejoin="round" stroke-width=".4" d="m38.143 49.579 1.6 8.4 8.8-.7-.2-8.5c0-1.2-.1-4.5-5.7-3.8-4.9.6-4.7 3.4-4.5 4.6Z"/>
  <path fill="#0A0C0F" d="M48.043 47.879c.5 2 .3 9.4.3 9.4l-2.1.2-.7-12.5c.3.1 1.8.1 2.5 2.9Z" opacity=".3"/>
  <path fill="#F5F6F7" stroke="#050505" stroke-linecap="round" stroke-linejoin="round" stroke-width=".4" d="M45.743 34.379c4.7-.1 6.4.4 7.6.6 1.5.3 3.3 1.6 3.3 3.1s.2 2.5 1.1 5.9c.8 3.1 2.1 5.1 2.1 5.7-.5 1.8-7.3 3.9-9.4 4.3-5.8.8-8.7-.5-12.7-.2-3.2.3-3.6-.1-3.9-.4-1-1.1 1.8-16.5 1.8-16.5s.4-.6 1.5-1.1c1.9-1 6.6-1.4 8.6-1.4Z"/>
  <path stroke="#050505" stroke-linecap="round" stroke-linejoin="round" stroke-width=".4" d="M43.243 48.08c0 2.1-1.4 3.199-3 3.399-1.7.2-3-.7-3-2.8v-2.3l6-.6v2.3Z"/>
  <path fill="#EE3D3B" d="m43.343 46.879-6.2.6Z"/>
  <path stroke="#050505" stroke-linejoin="round" stroke-width=".4" d="m43.343 46.879-6.2.6"/>
  <path fill="#050505" d="M48.243 45.679c0 .3.3.6.6.5.4 0 .7-.3.7-.6 0-.4-.3-.6-.7-.6-.3 0-.6.3-.6.7Zm.5 2.7c0 .3.3.5.7.5.3 0 .6-.3.6-.7 0-.3-.3-.6-.6-.5-.4 0-.7.3-.7.7Zm.8 2.6c0 .3.2.6.6.6.3-.1.6-.4.6-.7 0-.4-.3-.6-.6-.6-.4.1-.6.4-.6.7Z"/>
  <path fill="#FEFEFE" d="M49.743 43.279s0 1.6.9 4.8c.8 3.1 1 5.3 1 5.3"/>
  <path stroke="#050505" stroke-linecap="round" stroke-linejoin="round" stroke-width=".4" d="M49.743 43.279s0 1.6.9 4.8c.8 3.1 1 5.3 1 5.3"/>
  <path fill="#9FC8EA" d="m49.443 42.879.5-.2.7-4.8s.3-3.1-4.6-2.9c-4.4.3-1.8 3.7.1 5 1.4 1 3.3 2.9 3.3 2.9Z"/>
  <mask id="a" width="8" height="10" x="52" y="41" maskUnits="userSpaceOnUse" style="mask-type:luminance">
    <path fill="#fff" d="m56.943 41.679 2.69 7.81-4.8 1.1-2.12-6.98 4.23-1.93Z"/>
  </mask>
  <g mask="url(#a)">
    <path stroke="#050505" stroke-linecap="round" stroke-linejoin="round" stroke-width=".4" d="M62.343 44.679c.5 2-.6 3.4-2.3 3.9-1.6.5-3.1 0-3.5-2l-.5-2.2 5.9-1.9.4 2.2Z"/>
    <path fill="#EE3D3B" d="m62.243 43.58-6 1.899Z"/>
    <path stroke="#050505" stroke-linejoin="round" stroke-width=".4" d="m62.243 43.58-6 1.899"/>
  </g>
  <path fill="#DFDFDF" d="M36.343 47.179s-.3 1.9-.3 3.3v3.3s-2.2.4-2.4-1c-.3-1.4.5-6.3.5-6.3s1.5.9 2.2.7Zm13.4-2.3c.1.7-.3-.1-.6-.4-.3-.3-.4-.7-.4-.7s-3-1-4-1.2l.3-.6s-2-.2-2.4-.3c-.4-.1.2-5.4.5-6.4 0 0 .4 2.4 1.7 3.6 1.2 1.2 3.7 2.8 4.1 3.4.5.7.7 1.5.8 2.6Z" style="mix-blend-mode:multiply"/>
  <path fill="#F5F6F7" d="M42.943 35.679c.1 1.7.6 5.6.6 5.6h3.7l-.7 1 3.2 1.1-.1-.7s-1.8-2.2-2.6-2.6c-.7-.5-3.2-2.6-3.3-4.8"/>
  <path stroke="#050505" stroke-linecap="round" stroke-linejoin="round" stroke-width=".4" d="M42.943 35.679c.1 1.7.6 5.6.6 5.6h3.7l-.7 1 3.2 1.1-.1-.7s-1.8-2.2-2.6-2.6c-.7-.5-3.2-2.6-3.3-4.8"/>
  <path fill="#DFDFDF" d="M50.643 35.679s2.8 2.5 3.6 5l-1.7.4s.8.2.8.4c-.1.1-2.1 1.5-2.5 1.9-.3.3.1 1.4-.2 1.3-.4 0-.1-1.3-.4-1.3-.4 0 .3-1.5.3-1.5s1.3-2.7.7-3.8c-.6-1.2-.6-2.4-.6-2.4Z" style="mix-blend-mode:multiply"/>
  <path fill="#F5F6F7" d="M50.343 35.179c1.5 1.5 3.1 5 3.1 5l-2 .5.6.4-2.2 2.4-.1-1s.7-2.1.9-2.8c.1-.7-.2-3-1-4.3"/>
  <path stroke="#050505" stroke-linecap="round" stroke-linejoin="round" stroke-width=".4" d="M50.343 35.179c1.5 1.5 3.1 5 3.1 5l-2 .5.6.4-2.2 2.4-.1-1s.7-2.1.9-2.8c.1-.7-.2-3-1-4.3"/>
  <path fill="#DFDFDF" d="M49.943 44.08s.5 1.799.9 2.899c.5 1.2.6 2.4.8 3.8.3 1.3.5 2.7.5 2.7l-.5-.3s-.7-3.2-1.1-5.1c-.4-1.9-.6-4-.6-4Zm8.9 4.799s-2.2.3-2.9-2.1c-.6-2.4-.1-2.4-.1-2.4s.1.3.4 1.4c.3 1.1.4 2.1 2.6 3.1Zm-15.4-3.1-.1 1-4.8.8s3.5-.1 3.9-.1c.3 0 .4 1.5.1 2.4 0 0-1.1 1.7-2.5 1.8-1.4.1-2.8-1-2.8-1s.8 1.5 2.8 1.6c2.1 0 3.8-1.6 4-3.9 0 0-.3.6-.5.9-.2.3.3-3.2-.1-3.5Z" style="mix-blend-mode:multiply"/>
  <path fill="#ED2D2F" stroke="#050505" stroke-linecap="round" stroke-linejoin="round" stroke-width=".4" d="M39.043 37.779c4 3.4.2 9.4-3.3 8.8-6.9-1.2-3.2-7.9-3.2-7.9s1.7-3.7 6.5-.9Zm17.6.3c0 1.2.1 2.1.6 4.1 0 0 .7 2.5 0 .1-.7-2.3-5.9-7.5-5.9-7.5.2-.1.8.3 1.2 0l.8.2c1.5.3 3.3 1.6 3.3 3.1Z"/>
  <path fill="#DFDFDF" d="M36.343 36.979s2.5 0 3.5 2.3c0 0-1.2-.6-1.9.9-.8 1.5-.2 3.2-1.4 4.3-1.1 1.1-.7 2.2-.2 2.2 0 0-.3.6-1.3.2-1-.5-1.4-.6-1.4-.6l-1.5-1.4-.8-2 1.5-5.2 3.1-.8.4.1Zm15.3-1.8s3.9 6.4 4.6 7.2c.6.8.5 1.7.5 1.7l.8-.4-.3-1.8-5.6-6.7Z" style="mix-blend-mode:multiply"/>
  <path fill="#AB795A" stroke="#050505" stroke-width=".4" d="M25.843 21.179c1 10 6.5 20.2 20.2 19.1 16-1.2 17-9.6 16-19.6-1-9.9-10-17.2-20-16.2-10.1 1-17.2 6.8-16.2 16.7Z"/>
  <path fill="#DFDFDF" d="M39.043 31.679c.1 0 .1-.1 0 0Z" style="mix-blend-mode:multiply"/>
  <path fill="#DFDFDF" d="M25.843 21.179c-1-9.9 6.1-15.7 16.2-16.7 4.8-.5 9.3.9 12.8 3.6.1.4.1.6.1.6s-6.8 10.4-8 12.2c-1.1 1.8-2.8 4.6-4.8 6.4-2 1.7-3.1 2.2-3.1 4.4 0 0 .8 7.6 9.8 7.8l-.6.6c-.733.133-1.467.2-2.2.2-13.7 1.1-19.2-9.1-20.2-19.1Zm27 7.901s1 1.499 2.3 1.399c1.3-.1 1.4-1.8 1.4-1.8s-.6.9-1.3.9c-.6.1-2.4-.5-2.4-.5Z" style="mix-blend-mode:multiply"/>
  <path stroke="#050505" stroke-linecap="round" stroke-linejoin="round" stroke-width=".4" d="m56.543 28.779-.7.7c-.3.1-.8.2-1.2.1l-1.8-.4"/>
  <path stroke="#050505" stroke-linecap="round" stroke-width=".5" d="M46.343 23.779s-.9-.3-1.6 0c-.7.5-1.2 1.4-1.2 1.4m15.5-2.699s.8-.501 1.5-.201c.9.3 1.5 1 1.5 1"/>
  <path fill="#050505" d="M60.843 25.279c.1.8-.3 1.4-.8 1.5-.5 0-1-.6-1-1.3-.1-.8.2-1.5.7-1.5.6-.1 1 .5 1.1 1.3Z"/>
  <path fill="#FEFEFE" d="M59.443 24.58c0 .2.1.299.2.299.1-.1.2-.2.2-.3 0-.2-.1-.3-.2-.3-.1.1-.2.2-.2.3Z"/>
  <path fill="#FEFEFE" d="M59.443 24.58c0 .2.1.299.2.299.1-.1.2-.2.2-.3 0-.2-.1-.3-.2-.3-.1.1-.2.2-.2.3Z"/>
  <path fill="#050505" d="M44.843 26.779c.1.9.7 1.6 1.2 1.5.6 0 1-.8.9-1.7-.1-.8-.6-1.5-1.2-1.4-.6 0-1 .8-.9 1.6Z"/>
  <path fill="#FEFEFE" d="M45.243 25.879c0 .2.1.3.2.3s.2-.2.2-.3c0-.2-.1-.3-.2-.3-.2 0-.2.1-.2.3Z"/>
  <path fill="#050505" d="M33.043 5.08s2.8-3.501 5.8-4.401c3-1 3.2-.6 3.2-.6s-4.2.7-6.7 5"/>
  <path fill="#050505" d="M28.643 7.58s2.2-1.501.1-3.201c0 0 1.8-.2 2.1.8.3-1.2 1.2-3.3 4.7-4.4 0 0-1.9 2.3.1 2.6"/>
  <path fill="#221E1F" d="M25.743 23.179s-3-1.4-1.1 4c1 2.8 4.3 6 4.3 6l-3.2-10Z"/>
  <path fill="#050505" d="M58.743 9.479s5.6 3.6 7.2 10.4c.1.3-1.3-2.3-3.9-4.5m-29.6-10.6s-10.8 4.4-9.3 16.6c0 0 1.8-7.7 9.3-16.6Z"/>
  <path fill="#050505" d="M35.843 14.08c.4-.1-1.3 10.999-6.4 11.799-1.4-3.9.8-7.9.8-7.9-2 3.4-2.1 6.9-1.7 8-.9.3-3.3.5-4.8.2 0 0-3.8-21.6 19.8-23.3 0 0 14-2.1 21.4 16.8 0 0-.2.7-1.7 2-1.2 1-3-7.9-4.4-7.3"/>
  <path fill="#050505" d="M46.043 2.779c2.3.1 11.2.4 18.7 11.3 0 0-20.9-11.3-18.7-11.3Z"/>
  <path fill="#050505" d="M58.343 7.279s-14.7-13-28.6-.8c-13.8 12.2 28.6.8 28.6.8Zm-34.8 17.7s.2 3.9 2.3 6.8c2.2 2.9 2.7 3 2.7 3s-1.2-1.6-1.6-6.5m3.8 7.9s.9.6 1.9.3c.4-.1-1-1.4-1-1.4l-.9 1.1Z"/>
  <path fill="#050505" d="M48.943 4.479s10-1.6 15.5 15.6c0 0 .2.1-.8 1.2-.8.9-.9.9-1.8 1.4-.1-2.2-.9-3.2-4.3-6.4 0 0 3.6 3.5 3 6.9-9.5 3.9-14.9-2.2-14.9-2.2.3-.1-.3 5.3-5.5 4.7-1-3.6-.2-7.8-.2-7.8-1.3 3.1-1.4 5.3-1 7.8-.7.2-2.4-.2-3.5-.5 0 0-3.1-19.6 13.5-20.7Z"/>
  <path fill="#050505" d="M35.443 25.179s-5.3.7-3.2 10.7l-7-6.4s-4.5-10.2 1.9-18.3c6.4-8.1 6.9-2.5 6.9-2.5l3.9 1.8-2.5 14.7Z"/>
  <path fill="#050505" d="M38.943 25.679s-5.6 2.7-6.6 9.7c-.1 1-1.6.8-1.6.8s-3.6-2.8-4.2-6c-.7-3.1 6.7-8 6.7-8l5.7 3.5Z"/>
  <path fill="#AB795A" d="m35.343 32.38-1.3-1.101c-.2-.4-.3-.9 0-1.2.3-.2.6-.2.8-.1.4.1.7.4.7.4"/>
  <path stroke="#050505" stroke-linecap="round" stroke-linejoin="round" stroke-width=".4" d="m35.343 32.38-1.3-1.101c-.2-.4-.3-.9 0-1.2.3-.2.6-.2.8-.1.4.1.7.4.7.4"/>
  <path fill="#AB795A" stroke="#050505" stroke-linecap="round" stroke-linejoin="round" stroke-width=".4" d="M34.843 32.479c0-.7-.2-2.1.5-3.1.6-1 1.7-1.5 2.7-1.3 1.3.3 2.3 1.5 1.9 2.2-.2.4-.3.7-.4 1.2-.2.5-.2 1.2-.3 1.4-.1.7-.8 2.1-2.3 1.9-1.9-.4-2.1-2.3-2.1-2.3Z"/>
  <path fill="#DFDFDF" d="M34.843 31.08s.6 1.399 2.4 1.299c1.8 0 2.2-.4 2.2-.4s.2 1.7-1 2.4c-1.3.6-3 .4-3.3-.8-.3-1.1-.3-2.5-.3-2.5Z" style="mix-blend-mode:multiply"/>
  <path fill="#F5F6F7" stroke="#050505" stroke-linecap="round" stroke-linejoin="round" stroke-width=".4" d="M33.343 31.979c-.3 1.5-.5 2.7-.8 4.5-.5 3.1 0 5.3 0 5.3.4 1.9 1.9 3.2 3.7 3l.5-.1c1.6-.2 3-1.5 2.7-3.8 0 0-.2-2.3.2-4.4.2-1.5.6-3.3.6-3.3l-6.9-1.2Z"/>
  <path fill="#0A0C0F" d="M33.343 31.979c-.3 1.5-.5 2.7-.8 4.5-.5 3.1 0 5.3 0 5.3.4 1.9 1.9 3.2 3.7 3l.5-.1c.2 0 .4-.033.6-.1-.3-.2-.4-.4-.4-.4s-2.4-.8-2.4-4.4c0-2.4.7-5.6 1.1-7.4l-2.3-.4Z" opacity=".3"/>
  <path fill="#050505" d="M48.843 32.579s2.3.6 3.4.4c1.2-.2 1.4 1.4 0 2.7-1.1.9-3.8 2.7-7.7 1.5-4-1.3-4.3-5.4-2.3-6.6 2-1.2 4.1 1.1 6.6 2Z"/>
</svg>
