<svg xmlns="http://www.w3.org/2000/svg" width="95" height="88" fill="none" viewBox="0 0 95 88">
  <path fill="#FEF3DD" d="m85.481 61.546-13.11 10.205-.596-.744 13.11-10.28.596.819Zm1.49 1.862L73.786 73.614l-.596-.745 13.185-10.28.596.82Zm1.415 1.863-13.11 10.206-.596-.745 13.11-10.28.596.82Zm1.49 1.862L76.691 77.339l-.596-.745 13.185-10.28.596.819Zm1.416 1.862-13.11 10.206-.597-.745 13.11-10.28.597.82Zm1.489 1.863-13.185 10.28-.596-.82 13.186-10.28.595.82Zm1.49 1.862L81.086 83l-.596-.82L93.6 71.976l.671.745Z"/>
  <path fill="#31469C" d="m79 62.068 10.802 18.995 1.564-11.844-10.056-9.833L79 62.068Z" opacity=".4"/>
  <path fill="#ED4997" d="m87.344 78.53-14.005-8.939c-.223-.148-.223-.521 0-.67l9.163-7.151c.223-.15.596-.075.67.223l5.214 15.718c.224.67-.447 1.192-1.042.82Z"/>
  <path fill="#7358A4" d="m68.274 51.937-.745-.373v-.074l.67-1.49h.075l.745.373c.05 0 .074.024.074.074l-.745 1.415c0 .05-.025.075-.074.075Z"/>
  <path fill="#ED4997" d="m68.944 60.354.075.596c0 .075-.075.224-.224.224l-1.34.074c-.075 0-.224-.074-.224-.149v-.595c0-.15.074-.224.223-.224l1.341-.074a.16.16 0 0 1 .15.148Z"/>
  <path fill="#F5B4D0" d="M69.242 57.002h-.894v-.074l-.074-1.564c0-.05.025-.075.074-.075h.894v1.713Z"/>
  <path fill="#7358A4" d="m75.574 56.779-.224.596c0 .149-.074.149-.223.149l-1.192-.373c-.074-.074-.149-.149-.149-.223l.224-.596c0-.15.074-.149.223-.149l1.192.373c.074.074.149.148.149.223Z"/>
  <path fill="#ED4997" d="m77.138 61.77-.596.596h-.074l-1.118-1.117c-.05-.05-.05-.075 0-.075l.596-.596c0-.05.025-.05.075 0l1.117 1.118v.074Zm-4.32-1.192-.82.298-.67-1.49v-.074l.82-.298c.049-.05.074-.05.074 0l.596 1.49v.074Zm-.745-10.206.298.82v.074l-1.564.521h-.075l-.298-.819c0-.05.025-.074.075-.074l1.49-.522h.074Z"/>
  <path fill="#7358A4" d="m73.935 65.792-.745.298c-.05.05-.074.05-.074 0l-.596-1.49c-.05-.05-.05-.074 0-.074l.745-.298h.074l.67 1.49c0 .05-.024.074-.074.074Z"/>
  <path fill="#6ECFF5" d="m78.553 60.727-1.564-6.555c-.074-.447.224-.894.745-.969.447-.074.82.298.894.745l.149 6.705c.074.148-.224.223-.224.074Z"/>
  <path fill="#FFD90F" d="m80.267 61.174.298-2.98c.074-.521.596-.82 1.117-.67.522.223.745.82.447 1.266l-1.639 2.458c-.074.15-.298.075-.223-.074Z"/>
  <path fill="#6ECFF5" d="m70.955 65.27-6.48-4.692c-.447-.298-1.043-.15-1.341.298a.927.927 0 0 0 .447 1.34l7.225 3.353c.15.074.298-.224.15-.298Z"/>
  <path fill="#FFD90F" d="m71.253 67.952-2.905-1.564c-.521-.223-1.192.075-1.34.596-.15.596.297 1.117.893 1.192l3.278.074c.149 0 .223-.223.074-.298Z"/>
  <path fill="#FEF3DD" d="M8.79 61.546 21.9 71.751l.597-.744-13.11-10.28-.597.819ZM7.3 63.408l13.185 10.206.596-.745-13.185-10.28-.596.82Zm-1.415 1.863 13.11 10.206.596-.745-13.11-10.28-.596.82Zm-1.49 1.862L17.58 77.339l.596-.745-13.185-10.28-.596.819ZM2.98 68.995l13.11 10.206.596-.745-13.11-10.28-.596.82Zm-1.49 1.863 13.185 10.28.596-.82-13.185-10.28-.596.82ZM0 72.72 13.185 83l.596-.82L.671 71.976 0 72.72Z"/>
  <path fill="#31469C" d="M15.27 62.068 4.47 81.063 2.905 69.22l10.057-9.833 2.309 2.682Z" opacity=".4"/>
  <path fill="#ED4997" d="m6.928 78.53 14.004-8.939c.224-.148.224-.521 0-.67L11.77 61.77c-.224-.15-.596-.075-.67.223L5.884 77.711c-.224.67.447 1.192 1.043.82Z"/>
  <path fill="#7358A4" d="m25.997 51.937.745-.373v-.074l-.67-1.49h-.075l-.744.373c-.05 0-.075.024-.075.074l.745 1.415c0 .05.025.075.075.075Z"/>
  <path fill="#ED4997" d="m25.327 60.354-.074.596c0 .075.074.224.223.224l1.341.074c.075 0 .224-.074.224-.149v-.595c0-.15-.075-.224-.224-.224l-1.34-.074c-.075 0-.15.074-.15.148Z"/>
  <path fill="#F5B4D0" d="M25.03 57.002h.893v-.074l.075-1.564c0-.05-.025-.075-.075-.075h-.893v1.713Z"/>
  <path fill="#7358A4" d="m18.697 56.779.224.596c0 .149.074.149.223.149l1.192-.373c.075-.074.15-.149.15-.223l-.224-.596c0-.15-.075-.149-.224-.149l-1.192.373c-.074.074-.149.148-.149.223Z"/>
  <path fill="#ED4997" d="m17.133 61.77.596.596h.075l1.117-1.117c.05-.05.05-.075 0-.075l-.596-.596c0-.05-.025-.05-.075 0l-1.117 1.118v.074Zm4.321-1.192.82.298.67-1.49v-.074l-.82-.298c-.05-.05-.074-.05-.074 0l-.596 1.49v.074Zm.744-10.206-.297.82v.074l1.564.521h.074l.298-.819c0-.05-.025-.074-.074-.074l-1.49-.522h-.075Z"/>
  <path fill="#7358A4" d="m20.336 65.792.745.298c.05.05.075.05.075 0l.596-1.49c.05-.05.05-.074 0-.074l-.745-.298h-.075l-.67 1.49c0 .05.025.074.074.074Z"/>
  <path fill="#6ECFF5" d="m15.718 60.727 1.564-6.555c.075-.447-.223-.894-.745-.969-.447-.074-.82.298-.893.745l-.15 6.705c-.074.148.224.223.224.074Z"/>
  <path fill="#FFD90F" d="m14.005 61.174-.298-2.98c-.075-.521-.596-.82-1.118-.67-.521.223-.745.82-.447 1.266l1.64 2.458c.074.15.297.075.223-.074Z"/>
  <path fill="#6ECFF5" d="m23.316 65.27 6.48-4.692c.448-.298 1.044-.15 1.342.298a.927.927 0 0 1-.447 1.34l-7.226 3.353c-.149.074-.298-.224-.149-.298Z"/>
  <path fill="#FFD90F" d="m23.018 67.952 2.905-1.564c.522-.223 1.192.075 1.341.596.15.596-.298 1.117-.894 1.192l-3.277.074c-.15 0-.224-.223-.075-.298Z"/>
  <path fill="#1C1C1A" d="M62.694 78.688c.1 2.254-6.75 4.165-15.318 4.341-8.47.195-15.385-1.463-15.387-3.7-.1-2.253 6.75-4.164 15.318-4.34 8.47-.195 15.386 1.463 15.387 3.7Z" opacity=".3"/>
  <path fill="#050505" d="M64.787 44.108a3.196 3.196 0 0 1-3.217 3.178c-1.709-.106-3.087-1.474-3.08-3.2a3.196 3.196 0 0 1 3.218-3.178c1.708.106 3.185 1.492 3.08 3.2Zm-28.049.004c.01 1.628-1.34 2.908-2.967 2.918-1.628.01-3.006-1.357-2.918-2.967-.01-1.628 1.357-3.007 2.967-2.919 1.628-.01 2.908 1.34 2.918 2.968Z"/>
  <path fill="#050505" d="M71.44 41.044c-.133 2.415-2 4.312-4.416 4.18-2.334-.016-4.214-1.982-4.1-4.299.017-2.334 1.983-4.214 4.317-4.198 2.335.016 4.215 1.982 4.198 4.317Zm-39.098-2.402c.888 2.396-.184 4.946-2.348 5.672-2.083.843-4.58-.524-5.369-2.902-.887-2.397.184-4.947 2.268-5.79 2.164-.725 4.66.641 5.45 3.02Z"/>
  <path fill="#050505" d="M71.305 29.435c-.215 10.733-10.727 19.4-23.482 19.123-12.853-.294-23.02-9.248-22.805-19.982.135-10.85 10.745-19.498 23.5-19.222 12.754.277 23.02 9.249 22.787 20.08Z"/>
  <path stroke="#3F1D13" stroke-width=".6" d="M32.023 42.65c-.688.992-.526 2.343.37 3.013.975.786 2.325.624 3.013-.369m-8.253-8.303c-1.69.914-2.26 2.945-1.347 4.635.932 1.59 3.06 2.18 4.652 1.248M66.16 37.65c-1.69.913-2.243 2.845-1.41 4.419.931 1.591 2.98 2.063 4.67 1.15m-8.558 2.923c1.262.33 2.424-.476 2.754-1.738"/>
  <path fill="#803531" stroke="#050505" stroke-linecap="round" stroke-linejoin="round" stroke-width=".4" d="M57.79 75.463s-2.061-5.454-2.384-7.037c-.565-1.932-1.988-2.494-3.374-2.135-1.287.376-2.074 1.352-1.545 3.48.53 2.129 2.269 7.118 2.269 7.118.763 3.086 6.19 1.73 5.034-1.426Z"/>
  <path fill="#050505" d="M53.98 76.298c.736 1.555 3.544 1.76 2.06 2.1-1.386.36-2.943-.024-3.284-1.509 0 0-1.74-4.99-2.269-7.118-.529-2.128.258-3.104 1.545-3.48 1.386-.36 2.809.203 3.374 2.135.323 1.583-3.067 1.782-2.708 3.168.09.626.772 3.595 1.283 4.704Z" opacity=".4"/>
  <path fill="#803531" d="M57.935 76.912c.304.564.582 1.833 2.461 2.681l-7.79-.19.15-2.514"/>
  <path stroke="#050505" stroke-linecap="round" stroke-linejoin="round" stroke-width=".4" d="M57.935 76.912c.304.564.582 1.833 2.461 2.681l-7.79-.19.15-2.514"/>
  <path fill="#050505" d="M54.089 76.825c.117 1.038.072 1.843 1.853 2.674l-3.336-.096.15-2.514" opacity=".4"/>
  <path fill="#EE4963" stroke="#050505" stroke-linecap="round" stroke-linejoin="round" stroke-width=".4" d="M52.015 79.296c-.017.098.08.116.18.134l8.497.217s.116-.08.134-.179l-.028-.412a.215.215 0 0 0-.16-.232l-8.417-.1a.215.215 0 0 0-.233.16l.027.412Zm4.183-4.019s.062-.904.786-.976c.296.053 1.217.017 1.512.07.51-.009.09.627.019 1.02-.152.278-.259.868-.017 1.216l.788 1.261-.993.43-2.031-1.688-.064-1.333Z"/>
  <path fill="#F69226" stroke="#050505" stroke-linecap="round" stroke-linejoin="round" stroke-width=".4" d="M52.22 78.723s-.027-1.529.044-1.923c-.01-.51.24-.77.733-.68.411-.027.85.357 1.842-.073.877-.35.912-.546 1.36-.77.428-.126.491.089.518.5l.234.957 1.575 1.403-.026.707-6.28-.12Z"/>
  <path fill="#FEFEFE" stroke="#050505" stroke-linecap="round" stroke-linejoin="round" stroke-width=".4" d="M60.637 78.824c.036-.197-.94-.983-1.351-.956-.921.036-1.592.931-1.592.931l2.943.025Z"/>
  <path stroke="#050505" stroke-linecap="round" stroke-linejoin="round" stroke-width=".4" d="M56.521 76.86c.402-.537 1.637-.619 2.03-.547m-1.412 1.065c.402-.537 1.422-.556 1.815-.484m-1.278.886c.384-.438 1.207-.493 1.583-.323"/>
  <path fill="#EE4963" stroke="#050505" stroke-linecap="round" stroke-linejoin="round" stroke-width=".4" d="M54.76 77.049c.608.008 1.001.08 1.44.464l1.494 1.287-1.02.018-.957-.884c-.173-.167-.495-.26-.966-.277-.313.045-2.531-.051-2.531-.051l.008-.609s2.236-.001 2.531.052Z"/>
  <path fill="#803531" stroke="#050505" stroke-linecap="round" stroke-linejoin="round" stroke-width=".4" d="M37.013 75.158s2.214-5.494 2.695-7.033c.553-1.932 2.056-2.371 3.416-2.023 1.243.428 2.067 1.491 1.496 3.522-.687 2.111-2.597 7.05-2.597 7.05-.866 3.095-6.27 1.508-5.01-1.516Z"/>
  <path fill="#050505" d="M40.797 76.148c-.777 1.485-3.64 1.577-2.181 1.942 1.458.366 2.943.025 3.407-1.416 0 0 1.91-4.938 2.597-7.05.57-2.03-.253-3.094-1.497-3.522-1.36-.348-2.862.09-3.415 2.023-.481 1.54 3.016 1.868 2.552 3.308-.107.59-.936 3.489-1.463 4.715Z" opacity=".4"/>
  <path fill="#803531" d="M36.763 76.535c-.205.573-.633 1.816-2.484 2.498l7.692.172.052-2.53"/>
  <path stroke="#050505" stroke-linecap="round" stroke-linejoin="round" stroke-width=".4" d="M36.763 76.535c-.205.573-.633 1.816-2.484 2.498l7.692.172.052-2.53"/>
  <path fill="#050505" d="M40.627 76.523c-.097 1.1-.043 1.923-1.894 2.604l3.238.078.052-2.531" opacity=".4"/>
  <path fill="#EE4963" stroke="#050505" stroke-linecap="round" stroke-linejoin="round" stroke-width=".4" d="M42.597 79.116c.08.116-.036.196-.134.178l-8.497-.216s-.099-.018-.081-.117l-.027-.41c.018-.1.036-.198.134-.18l8.515.119a.215.215 0 0 1 .161.232l-.071.394Zm-3.921-4.166s-.036-.92-.743-.947c-.394-.071-1.315-.035-1.512-.07-.608-.009-.223.67-.08 1.001.144.331.234.957-.034 1.315l-.92 1.155 1.028.49 2.128-1.647.133-1.296Z"/>
  <path fill="#F69226" stroke="#050505" stroke-linecap="round" stroke-linejoin="round" stroke-width=".4" d="M42.507 78.49s.07-1.512.043-1.924c-.027-.411-.287-.661-.698-.634-.492-.09-.876.349-1.905-.142-.85-.357-.913-.571-1.271-.84-.474-.187-.528.108-.599.501l-.259.869-1.68 1.423-.026.707 6.395.04Z"/>
  <path fill="#FEFEFE" stroke="#050505" stroke-linecap="round" stroke-linejoin="round" stroke-width=".4" d="M33.992 78.37c.053-.294 1.081-.921 1.394-.966 1.002.08 1.647 1.009 1.647 1.009l-3.041-.042Z"/>
  <path stroke="#050505" stroke-linecap="round" stroke-linejoin="round" stroke-width=".4" d="M38.194 76.49c-.304-.564-1.503-.679-2.03-.571m1.432 1.071c-.305-.563-1.405-.66-1.736-.517m1.154.921c-.42-.483-1.225-.527-1.556-.384"/>
  <path fill="#EE4963" stroke="#050505" stroke-linecap="round" stroke-linejoin="round" stroke-width=".4" d="M39.983 76.712c-.608-.009-1.037.116-1.404.457l-1.546 1.244 1.002.08.965-.842c.167-.173.486-.25.957-.233.313-.045 2.531.052 2.531.052l.026-.707s-2.236.002-2.53-.051Z"/>
  <path fill="#803531" stroke="#050505" stroke-linecap="round" stroke-linejoin="round" stroke-width=".4" d="M67.955 45.698c-2.716 3.777-6.167 5.998-9.743 7.79-3.693 1.871-6.22-3.26-2.643-5.052 3.675-1.774 5.168-2.724 7.777-5.91.635-.698 2.19-1.432 3.783-.128 1.414 1.17 1.344 2.683.826 3.3Z"/>
  <path fill="#050505" d="M67.955 45.698c-2.716 3.777-6.167 5.997-9.743 7.789-3.693 1.872-6.22-3.26-2.643-5.052 1.44-.654 3.446 2.86 5.002 2.125 2.2-.923 4.997-3.465 6.587-5.514.635-.699.715-1.7-.029-2.648 1.414 1.17 1.344 2.682.826 3.3Z" opacity=".4"/>
  <path fill="#803531" d="M64.538 45.486c1.172.822 2.603.776 3.273-.12.67-.894.428-2.36-.745-3.183-1.073-.804-2.505-.758-3.175.137-.768.877-.427 2.362.647 3.166Z"/>
  <path fill="#803531" d="M63.23 42.606c.75-.778 2.144-2.864 2.877-3.544 1.046-.725 2.093-.332 3.05.552 1.253.939 1.827 2.262.773 3.595l-.805 1.074-1.072 1.432"/>
  <path stroke="#050505" stroke-linecap="round" stroke-linejoin="round" stroke-width=".4" d="M63.23 42.606c.75-.778 2.144-2.864 2.877-3.544 1.046-.725 2.093-.332 3.05.552 1.253.939 1.827 2.262.773 3.595l-.805 1.074-1.072 1.432"/>
  <path fill="#803531" d="m64.025 42.14-.063-1.332a1.037 1.037 0 0 1 1-1.038c.51-.01.752.339.815.554.224.447.17.742.17.742"/>
  <path stroke="#050505" stroke-linecap="round" stroke-linejoin="round" stroke-width=".4" d="m64.025 42.14-.063-1.332a1.037 1.037 0 0 1 1-1.038c.51-.01.752.339.815.554.224.447.17.742.17.742"/>
  <path fill="#050505" d="M65.876 40.341s.554.304.564.814c.027.411-.062.904.215 1.055.18.134 1.217 1.136 1.647 1.01.411-.027 1.877-1.388 1.313-2.202-.546-.912-2.22-2.332-3.15-1.687-.93.644-.59 1.01-.59 1.01Z" opacity=".2" style="mix-blend-mode:multiply"/>
  <path fill="#803531" stroke="#050505" stroke-linecap="round" stroke-linejoin="round" stroke-width=".4" d="M27.633 45.005c2.66 3.835 5.998 6.166 9.604 8.14 3.508 1.956 6.259-3.135 2.733-4.993-3.624-1.875-5.073-2.85-7.607-6.255-.484-.697-2.085-1.394-3.73-.167-1.511 1.048-1.483 2.577-1 3.275Z"/>
  <path fill="#050505" d="M27.633 45.005c2.66 3.835 5.998 6.166 9.604 8.14 3.508 1.956 6.258-3.135 2.733-4.993-1.387-.759-3.54 2.713-5.025 1.936-2.255-1.018-4.931-3.636-6.48-5.746-.484-.697-.6-1.735.168-2.612-1.511 1.048-1.483 2.578-1 3.275Z" opacity=".4"/>
  <path fill="#803531" d="M31.104 44.922c-1.145.707-2.558.654-3.3-.293-.645-.93-.28-2.388.864-3.095 1.162-.806 2.576-.754 3.22.176.744.948.28 2.388-.784 3.212Z"/>
  <path fill="#803531" d="M32.524 42.13c-.645-.93-1.997-3.004-2.678-3.737-1.073-.804-2.066-.373-3.112.352-1.296.985-1.939 2.29-.954 3.587l.806 1.162 1.047 1.511"/>
  <path stroke="#050505" stroke-linecap="round" stroke-linejoin="round" stroke-width=".4" d="M32.524 42.13c-.645-.93-1.997-3.004-2.678-3.737-1.073-.804-2.066-.373-3.112.352-1.296.985-1.939 2.29-.954 3.587l.806 1.162 1.047 1.511"/>
  <path fill="#050505" d="M29.928 39.627s-.465.323-.554.815c.01.51.037.921-.196 1.082-.232.161-1.314 1.083-1.707 1.012-.376-.17-1.871-1.456-1.3-2.369.67-.895 2.333-2.22 3.228-1.55.895.67.529 1.01.529 1.01Z" opacity=".2" style="mix-blend-mode:multiply"/>
  <path fill="#F69226" stroke="#050505" stroke-linecap="round" stroke-linejoin="round" stroke-width=".4" d="M47.56 67.413c-8.908-.19-9.294-1.988-9.654-5.61-.289-2.897.904-10.608 1.626-12.917 1.008-3.882 4.12-5.351 8.475-5.274 4.356.077 7.327 1.631 8.242 5.557.593 2.343 1.52 10.133 1.12 12.906-.48 3.774-.882 5.43-9.808 5.338Z"/>
  <path fill="#EE4963" stroke="#050505" stroke-linecap="round" stroke-linejoin="round" stroke-width=".4" d="M42.105 55.45c-.897-2.907-1.902-6.341-1.055-10.456l2.245.508c-.757 3.623.202 6.744.956 9.32l-2.146.627Z"/>
  <path fill="#EE4763" stroke="#050505" stroke-linecap="round" stroke-linejoin="round" stroke-width=".4" d="m47.543 67.511-1.464 3.597c-6.817-1.64-9.081-3.168-9.081-3.168s.194-3.319.612-6.19c.475.187 2.443.544 2.443.544l2.454-7.382s3.095.866 5.233.846c2.218.097 5.303-.666 5.303-.666l2.197 7.512s1.994-.35 2.54-.557c.172 2.979.336 6.565.336 6.565s-2.37 1.299-9.256 2.288l-1.317-3.389Z"/>
  <path fill="#050505" d="m47.543 67.51-1.464 3.597a9.887 9.887 0 0 0-1.36-.347s1.732-3.955 2.832-3.857c1.118-.001 2.561 3.817 2.561 3.817l-1.252.18-1.317-3.39Zm10.237-5.463c.172 2.979.336 6.565.336 6.565s-.68.385-2.28.807c.688-.993 1.34-2.908.674-7.093l1.27-.279Z" opacity=".4"/>
  <path stroke="#6ECFF5" stroke-dasharray=".8 .8" stroke-linecap="round" stroke-linejoin="round" stroke-width=".4" d="M57.552 67.798s-2.432 1.085-8.844 2.261"/>
  <path fill="#050505" d="M37.61 61.75c-.418 2.87-.612 6.19-.612 6.19s.635.42 2.237 1.116c-.61-1.127-1.21-2.861-.444-7.093l-1.18-.214Z" opacity=".4"/>
  <path stroke="#6ECFF5" stroke-dasharray=".8 .8" stroke-linecap="round" stroke-linejoin="round" stroke-width=".4" d="M37.633 67.241s2.317 1.233 8.606 2.981"/>
  <path fill="#803531" stroke="#050505" stroke-linecap="round" stroke-linejoin="round" stroke-width=".4" d="M42.59 46.594c-.025 2.943 2.275 5.392 5.218 5.417 3.041.042 5.392-2.277 5.515-5.202.024-2.942-2.375-5.409-5.3-5.532-2.942-.024-5.409 2.375-5.434 5.317Z"/>
  <path fill="#EE4963" stroke="#050505" stroke-linecap="round" stroke-linejoin="round" stroke-width=".4" d="M53.446 55.673c1.026-2.863 2.061-6.334 1.477-10.403l-2.21.413c.558 3.658-.504 6.718-1.378 9.303l2.111.687Z"/>
  <path fill="#6ECFF5" stroke="#050505" stroke-linecap="round" stroke-linejoin="round" stroke-width=".4" d="M53.812 55.333c.055.823-.66 1.404-1.367 1.378-.823.055-1.405-.66-1.477-1.385.044-.805.66-1.405 1.484-1.459.805.044 1.404.661 1.36 1.466Zm-12.048-.25c-.044.805.556 1.422 1.361 1.466.805.044 1.422-.556 1.466-1.36-.055-.823-.654-1.44-1.46-1.484-.706-.027-1.439.654-1.367 1.378Z"/>
  <path fill="#050505" d="M42.078 56.156c.618.518 1.423.562 2.04-.037 0 0-1.038.117-1.557-.384-.6-.617-.422-1.6-.422-1.6-.599.5-.562 1.422-.06 2.02Zm11.342.224c-.6.5-1.503.44-2.022-.061 0 0 1.002.08 1.6-.422.6-.502.483-1.539.483-1.539.519.5.555 1.422-.061 2.021Z" opacity=".4"/>
  <path stroke="#6ECFF5" stroke-linecap="round" stroke-linejoin="round" stroke-width=".4" d="m53.657 62.927.331-.144-.126-.429"/>
  <path stroke="#6ECFF5" stroke-dasharray=".8 .8" stroke-linecap="round" stroke-linejoin="round" stroke-width=".4" d="m53.611 61.496-.959-3.121"/>
  <path stroke="#6ECFF5" stroke-linecap="round" stroke-linejoin="round" stroke-width=".4" d="m52.544 57.847-.143-.33-.295-.054"/>
  <path stroke="#6ECFF5" stroke-dasharray=".8 .8" stroke-linecap="round" stroke-linejoin="round" stroke-width=".4" d="m51.283 57.517-3.533-.131-3.963-.006"/>
  <path stroke="#6ECFF5" stroke-linecap="round" stroke-linejoin="round" stroke-width=".4" d="m43.394 57.309-.412.027-.07.394"/>
  <path stroke="#6ECFF5" stroke-dasharray=".8 .8" stroke-linecap="round" stroke-linejoin="round" stroke-width=".4" d="m42.653 58.597-1.08 3.159"/>
  <path stroke="#6ECFF5" stroke-linecap="round" stroke-linejoin="round" stroke-width=".4" d="m41.403 62.131-.071.394.376.17"/>
  <path stroke="#6ECFF5" stroke-dasharray=".8 .8" stroke-linecap="round" stroke-linejoin="round" stroke-width=".4" d="m42.477 62.936 5.153 1.847 5.598-1.73"/>
  <path fill="#050505" d="M47.852 51.206c-2.531-.052-3.855-.597-5.537-1.41-1.208-.625-2.022-.06-2.342 1.71-.473 2.05-1.728 9.546-.646 9.742.573.205 2.09-4.805 2.751-5.092l-2.025 6.138-2.147-.49c-.289-2.898.904-10.61 1.626-12.918 1.008-3.882 4.12-5.351 8.475-5.274 4.356.077 7.327 1.631 8.242 5.557.593 2.343 1.52 10.133 1.12 12.906l-2.129.529-1.82-6.224c.67.223 1.98 5.338 2.606 5.248 1.056-.215.093-7.808-.258-9.803-.287-1.78-1.084-2.431-2.309-1.84-1.672.815-3.076 1.272-5.607 1.22Z" opacity=".4"/>
  <path fill="#803531" stroke="#050505" stroke-linecap="round" stroke-linejoin="round" stroke-width=".4" d="M31.667 32.829c-.145 9.221 4.574 16.275 16.122 17.044 11.35.733 16.559-7.267 16.704-16.488.145-9.222-7.017-16.82-16.14-16.946-9.007-.208-16.443 7.186-16.686 16.39Z"/>
  <path fill="#050505" d="m34.645 32.656.493 1.208s-2.422 14.5 13.554 16.07c.197.036-.143-.33-.805-.043l-.098-.018c-11.548-.77-16.267-7.822-16.122-17.044a16.782 16.782 0 0 1 1.658-6.916c.735 1.556 1.32 6.743 1.32 6.743Z" opacity=".4"/>
  <path fill="#FEFEFE" d="M50.937 38.654s1.133-4.571 7.028-2.894c0 0-.05 3.65-3.261 3.983-3.095.252-3.767-1.089-3.767-1.089Zm-6.448.256s-.675-4.696-6.675-3.546c0 0-.347 3.596 2.784 4.264 3.05.552 3.89-.718 3.89-.718Z"/>
  <path fill="#050505" d="M45.519 40.519s.77 1.358 2.2 1.313c1.414.052 2.406-1.496 2.406-1.496s-1.654.717-2.379.789c-.608-.009-2.227-.606-2.227-.606ZM62.195 11.83c-.016 2.334-2.098 4.295-4.63 4.243-2.53-.052-4.51-2.036-4.493-4.37.132-2.415 2.197-4.277 4.63-4.243 2.531.051 4.625 1.955 4.493 4.37ZM41.4 11.623c-.044 1.923-1.626 3.364-3.549 3.32a3.501 3.501 0 0 1-3.42-3.565 3.501 3.501 0 0 1 3.567-3.42c1.923.043 3.445 1.742 3.402 3.665Z"/>
  <path fill="#050505" d="M69.086 16.431c-.025 2.943-2.474 5.243-5.3 5.138-2.943-.024-5.243-2.473-5.237-5.318.025-2.942 2.474-5.243 5.416-5.219 2.845.007 5.244 2.474 5.12 5.4ZM32.042 21.21c-.042 3.04-2.491 5.341-5.434 5.317-2.942-.025-5.341-2.491-5.299-5.533.024-2.942 2.473-5.243 5.515-5.2 2.942.024 5.243 2.473 5.218 5.415Zm22.8-10.304c-.05 3.649-3.626 6.559-7.883 6.5-4.357-.078-7.767-3.134-7.716-6.783.051-3.65 3.627-6.56 7.884-6.5 4.356.077 7.864 3.151 7.715 6.783Z"/>
  <path fill="#050505" d="M37.556 14.89c-.025 2.943-2.375 5.262-5.3 5.139a5.241 5.241 0 0 1-5.236-5.318c.122-2.925 2.473-5.243 5.398-5.12 2.943.024 5.26 2.375 5.138 5.3Zm-6.088 15.666c-.06 3.14-2.464 5.754-5.505 5.711-2.925-.123-5.405-2.706-5.326-5.944.078-3.237 2.562-5.735 5.603-5.692 2.943.024 5.306 2.688 5.228 5.925Zm44.285 1.818c.002 3.354-2.518 6.048-5.443 5.925-3.04-.042-5.386-2.804-5.407-6.06.096-3.336 2.598-5.932 5.541-5.907 3.041.042 5.387 2.804 5.309 6.042Z"/>
  <path fill="#050505" d="M73.706 22.349c.01 2.746-2.304 4.867-5.05 4.878-2.728-.087-4.868-2.304-4.78-5.032-.011-2.746 2.321-4.965 5.05-4.878 2.745-.011 4.867 2.304 4.78 5.032Zm-22.503 1.923c.02 2.138-1.83 3.937-4.048 3.84-2.138.02-3.937-1.83-3.84-4.049-.02-2.137 1.83-3.937 4.048-3.84 2.138-.02 3.937 1.83 3.84 4.049Z"/>
  <path fill="#050505" d="M58.726 24.82c.002 2.236-1.848 4.035-4.067 3.939-2.334-.016-4.035-1.848-4.037-4.084.016-2.335 1.849-4.036 4.183-4.02 2.236-.002 4.035 1.848 3.92 4.165Z"/>
  <path fill="#050505" d="M64.766 27.946c.001 2.236-1.849 4.036-4.067 3.939-2.236.002-4.035-1.848-4.037-4.084.097-2.218 1.947-4.018 4.183-4.02 2.218.097 4.017 1.947 3.92 4.165Z"/>
  <path fill="#050505" d="M67.355 33.293c-.008 1.726-1.474 3.087-3.2 3.08-1.726-.008-3.087-1.474-3.08-3.2.008-1.727 1.492-3.186 3.218-3.178 1.709.106 3.087 1.473 3.062 3.298Zm-32.03-1.022c-.008 1.726-1.492 3.186-3.2 3.08-1.726-.008-3.185-1.492-3.08-3.2.008-1.726 1.375-3.105 3.2-3.08 1.726.008 3.087 1.474 3.08 3.2Z"/>
  <path fill="#050505" d="M38.846 28.54a2.666 2.666 0 0 1-2.601 2.577c-1.413-.053-2.514-1.268-2.48-2.583-.046-1.431 1.17-2.532 2.601-2.578 1.413.053 2.514 1.268 2.48 2.583Z"/>
  <path fill="#050505" d="M44.469 24.984c-.061 2.021-1.777 3.641-3.799 3.58-2.021-.06-3.56-1.66-3.598-3.7.06-2.021 1.777-3.642 3.798-3.58 2.04-.038 3.66 1.678 3.599 3.7Z"/>
  <path fill="#050505" d="m31.91 34.295 6.853-8.108 7.27-1.428 7.488.745 5.065 3.457 3.57 2.171 2.078 3.12L68.14 31.2l1.22-8.417-10.026-9.742-10.636-1.315-11.582.545-8.598 8.2-2.927 9.43 6.318 4.395Z"/>
  <path stroke="#3F1D13" stroke-width=".6" d="M34.66 29.203c-1.198-.115-2.022-1.179-1.907-2.377.098-1.1 1.161-1.924 2.36-1.809 1.1.098 1.924 1.162 1.809 2.36m27.465 7.716c1.1.097 2.083-.843 2.18-1.943 0-1.118-.824-2.182-1.942-2.181-1.199-.115-2.182.825-2.28 1.925M41.567 9.01c.563-1.422 1.912-2.702 3.728-3.186 2.36-.69 4.865.068 6.074 1.811.334.4.558.846.672 1.341"/>
  <path stroke="#3F1D13" stroke-width=".4" d="M50.193 13.012c-.18-1.252-1.335-2.173-2.685-2.01-.626.09-1.109.51-1.493.948"/>
  <path stroke="#3F1D13" stroke-width=".6" d="M31.74 11.094a3.733 3.733 0 0 0-2.985 4.135c.252 1.976 2.14 3.334 4.018 3.064m5.697-1.713a3.649 3.649 0 0 0 3.763-3.384c.043-1.923-1.479-3.621-3.402-3.664-2.004-.16-3.604 1.38-3.763 3.384"/>
  <path stroke="#3F1D13" stroke-width=".4" d="M62.418 21.83c-.923-2.2-3.357-3.352-5.655-2.447-2.28.807-3.352 3.357-2.545 5.637"/>
  <path stroke="#3F1D13" stroke-width=".6" d="M70.022 24.731c1.503-.44 2.315-2.122 1.876-3.624-.538-1.52-2.22-2.332-3.722-1.893"/>
  <path stroke="#3F1D13" stroke-width=".4" d="M51.439 16.794c-2.827-1.223-6.216.094-7.457 3.02"/>
  <path stroke="#3F1D13" stroke-width=".6" d="M72.929 35.623c1.671-1.934 1.499-4.912-.434-6.583"/>
  <path stroke="#3F1D13" stroke-width=".4" d="M31.417 34.206c1.646-.109 2.817-1.523 2.726-3.267"/>
  <path stroke="#3F1D13" stroke-width=".6" d="M58.55 29.159c.332.974 1.263 1.447 2.22 1.214.974-.332 1.448-1.262 1.214-2.219M38.952 26.83c1.834.535 3.756-.54 4.291-2.373.517-1.736-.557-3.658-2.391-4.194a3.36 3.36 0 0 0-4.175 2.293"/>
  <path stroke="#3F1D13" stroke-width=".4" d="M68.134 23.373c-1.682-.813-3.73-.167-4.56 1.613-.813 1.683-.069 3.748 1.613 4.56 1.683.813 3.748.07 4.56-1.613m-42.879-1.156a2.837 2.837 0 0 0-.712 3.936c.984 1.296 2.756 1.617 4.034.73s1.599-2.658.632-4.052"/>
  <path stroke="#3F1D13" stroke-width=".6" d="M63.973 21.095a4.508 4.508 0 0 0 3.77-5.11 4.387 4.387 0 0 0-5.029-3.654c-2.388.279-4.13 2.606-3.752 5.011m-6.561 5.926c-.84 1.271-.534 2.953.835 3.81 1.27.84 2.952.535 3.792-.736m-32.503 1.027c-1.95.663-2.95 2.82-2.286 4.769.663 1.95 2.82 2.95 4.769 2.286m-4.071-13.44c-.061 2.021 1.479 3.621 3.5 3.682 1.923.043 3.64-1.577 3.682-3.5-.037-2.04-1.577-3.64-3.598-3.7-1.923-.043-3.523 1.496-3.584 3.518Z"/>
  <path stroke="#3F1D13" stroke-width=".4" d="M33.66 19.571c1.11.608 2.514.15 3.12-.96.51-1.126.053-2.53-1.057-3.138-1.127-.509-2.514-.15-3.04 1.076m12.34 7.62a2.256 2.256 0 0 0 2.22 2.333m2.431-2.203c-.064-1.333-1.004-2.316-2.319-2.35"/>
  <path stroke="#3F1D13" stroke-width=".6" d="M53.95 12.472c-.044 1.923 1.478 3.621 3.5 3.682 1.94-.055 3.54-1.595 3.583-3.518.061-2.021-1.479-3.621-3.5-3.682-1.923-.044-3.523 1.496-3.584 3.518Z"/>
  <path fill="#855226" d="M55.918 37.523c.117 1.037-.669 2.013-1.688 2.032-1.02.018-1.897-.75-1.916-1.77-.1-1.135.67-2.013 1.707-2.13 1.02-.019 1.897.75 1.897 1.868Z"/>
  <path fill="#050505" d="M54.684 37.605c.027.411-.223.67-.518.617-.412.027-.555-.304-.6-.617a.545.545 0 0 1 .617-.6c.313-.044.554.305.501.6Z"/>
  <path fill="#FEFEFE" d="M53.69 36.917c-.035.197-.169.375-.366.34-.197-.036-.375-.17-.34-.366.036-.197.17-.377.367-.341.196.036.277.152.34.367Z"/>
  <path fill="#855226" d="M39.595 37.312c-.178.984.547 2.03 1.531 2.208a1.973 1.973 0 0 0 2.128-1.647 1.899 1.899 0 0 0-1.532-2.208c-.984-.178-1.931.565-2.127 1.647Z"/>
  <path fill="#050505" d="M40.874 37.544c-.053.295.188.644.502.599.295.053.545-.207.598-.502-.027-.411-.188-.644-.483-.697-.394-.072-.644.188-.617.6Z"/>
  <path fill="#FEFEFE" d="M41.902 36.917c.063.215.144.33.34.366.197.036.331-.143.367-.34.035-.197-.144-.331-.34-.367-.099-.017-.331.144-.367.34Z"/>
  <path stroke="#050505" stroke-linecap="round" stroke-linejoin="round" stroke-width=".6" d="m36.408 33.585 1.423 1.68s5.733-.79 6.658 3.645"/>
  <path fill="#BB8653" d="m38.116 33.691.753 1.457Z"/>
  <path stroke="#050505" stroke-linecap="round" stroke-linejoin="round" stroke-width=".6" d="m38.116 33.691.753 1.457m20.598-.946-1.582 1.441s-5.654-1.328-6.948 3.01"/>
  <path fill="#BB8653" d="m57.776 33.998-.875 1.467Z"/>
  <path stroke="#050505" stroke-linecap="round" stroke-linejoin="round" stroke-width=".6" d="m57.776 33.998-.875 1.467"/>
  <path stroke="#050505" stroke-linecap="round" stroke-linejoin="round" stroke-width=".8" d="M52.096 33.376s2.78-1.326 4.867 1.186M43.84 33.508s-2.756-1.617-4.91.737"/>
  <path fill="#050505" d="M43.527 44.223c.41-1.145 2.343-.592 3.425-.396.295.053.689.125 1.002.08.295.053.823-.054 1.136-.1 1.136-.099 3.05-.565 3.444.624.394 1.19-.543 3.56-4.13 3.724a1.65 1.65 0 0 0-.51.01l-.393-.072c-3.614-.248-4.501-2.644-3.974-3.87Z"/>
  <path fill="#803531" d="m31.252 40.172-1.243-.428a1.037 1.037 0 0 0-1.324.573c-.089.492.055.823.332.974.34.367.635.42.635.42"/>
  <path stroke="#050505" stroke-linecap="round" stroke-linejoin="round" stroke-width=".4" d="m31.252 40.172-1.243-.428a1.037 1.037 0 0 0-1.324.573c-.089.492.055.823.332.974.34.367.635.42.635.42"/>
</svg>
