<svg xmlns="http://www.w3.org/2000/svg" width="84" height="36" fill="none" viewBox="0 0 84 36">
  <g class="2-2-texto">
    <g class="&lt;Group&gt;">
      <g class="&lt;Group&gt;">
        <path fill="#FEFEFE" d="M4.156 5.585c-.21-.188-.316-.282-.616-.265-.505-.071-.781.345-.858.75-.083.306.029.5.14.693l.44.676c.533.57.756.958.602 1.769-.148.91-.813 1.549-1.711 1.6-.3.018-.605-.065-.816-.253l.148-.91c.211.188.422.376.722.36.5-.03.781-.346.852-.851.23-1.215-1.483-1.417-1.176-3.038.148-.91.713-1.543 1.611-1.595.333-.019.605.066.816.254l-.154.81Zm3.149-.983-.16.71-1.303-.024-.39 1.925 1.303.025-.159.71-1.204-.03-.378 2.125 1.403.02-.16.71-2.107-.08.953-6.064 2.202-.027Z" class="&lt;Compound Path&gt;"/>
        <path fill="#FEFEFE" fill-rule="evenodd" d="M10.112 4.641c.904.048 2.008.085 1.487 3.22-.444 2.73-1.436 2.887-2.84 2.868l-.599.034 1.048-6.17.904.048Zm-.26.716-.728 4.75c1.304.025 1.434-1.184 1.67-2.3.149-.91.456-2.53-.942-2.45Z" class="&lt;Compound Path&gt;" clip-rule="evenodd"/>
        <path fill="#FEFEFE" d="m14.921 4.665-.06.705-1.403-.02-.29 1.92 1.204.03-.16.711-1.204-.03-.278 2.119 1.298-.075-.06.705-2.202.026.953-6.065 2.202-.026Zm2.654.849a.764.764 0 0 0-.511-.171c-1.104-.037-1.406 1.684-1.465 2.388-.154.81-.367 2.325.737 2.362.2-.012.364-.055.493-.129l-.06.705c-.258.148-.487.228-.687.24-1.703-.003-1.607-1.811-1.382-3.126.23-1.215.715-3.247 2.324-3.139.3-.017.499-.029.71.16l-.16.71Zm1.357-.779-.894 5.36 1.404.02-.06.704-2.208-.073.953-6.065.805.054Z" class="&lt;Compound Path&gt;"/>
        <path fill="#FEFEFE" fill-rule="evenodd" d="m22.132 4.65.356 6.19-.804-.053-.069-1.198-1.198.068-.436 1.127-.799.046 2.351-6.145.6-.034Zm-.603 3.441.073-2.208-1.026 3.064 1.005.043-.052-.899Zm2.311-3.338.9-.052c.599-.035 1.503.014 1.295 1.628-.07.505-.419 1.427-1.112 1.567l.672 2.966-.904-.048-.572-2.972-.532 2.935-.799.046 1.053-6.07Zm1.303 1.728c.165-.61.142-1.01-.463-1.075l-.1.005-.384 2.026c.605.065.881-.352.947-.956Z" class="&lt;Compound Path&gt;" clip-rule="evenodd"/>
        <path fill="#FEFEFE" fill-rule="evenodd" d="m28.445 4.688.356 6.19-.804-.054-.07-1.198-1.203-.03-.43 1.226-.8.046 2.352-6.145.599-.035Zm-.604 3.44.074-2.207-1.026 3.064 1.004.042-.052-.899Z" class="&lt;Compound Path&gt;" clip-rule="evenodd"/>
      </g>
      <g class="&lt;Group&gt;">
        <path fill="#FEFEFE" d="m3.582 23.447.258 4.493-.017-.3.518-1.432.943-2.758.705.06-.348 6.13-.805-.055.173-2.213.131-1.21.154-.81-.348.922-1.108 3.369-.605-.066-.041-4.204-.1.006-.857 4.256-.805-.054 1.453-6.093.699-.04Z" class="&lt;Compound Path&gt;"/>
        <path fill="#FEFEFE" fill-rule="evenodd" d="m8.59 23.46.357 6.19-.805-.054-.069-1.198-1.203-.031-.43 1.226-.8.046 2.251-6.14.7-.04Zm-.503 3.434.068-2.307-1.02 3.163.998-.057-.046-.799Zm3.011-3.378c.998-.058 2.108.079 1.581 3.114-.438 2.83-1.43 2.987-2.834 2.968l-.6.034.948-6.164.905.048Zm-.16.71-.728 4.75c1.303.025 1.434-1.185 1.57-2.294.149-.91.556-2.536-.842-2.456Zm2.862-.766 1.003.043c.6-.035 1.503.013 1.29 1.528-.165.61-.413 1.526-1.112 1.567l.672 2.966-.899.052-.571-2.972-.1.005-.433 2.93-.798.046.947-6.165Zm1.3 1.729c.166-.611.137-1.11-.462-1.076l-.2.012-.284 2.02c.605.065.881-.352.947-.956Z" class="&lt;Compound Path&gt;" clip-rule="evenodd"/>
        <path fill="#FEFEFE" d="m19.108 23.456-.06.704-1.398.08-.29 1.92 1.198-.069-.06.705-1.198.069-.384 2.025 1.404.02-.16.71-2.202.027 1.047-6.17 2.103-.021Zm2.259.971c-.211-.188-.416-.276-.716-.259-.4.023-.782.345-.853.85.012.2.023.4.135.594l.54.67c.433.576.656.964.602 1.768-.148.91-.807 1.65-1.711 1.601-.3.017-.605-.065-.816-.254l.054-.804c.211.188.416.276.822.353.499-.028.775-.445.852-.85.125-1.31-1.49-1.517-1.282-3.131.154-.81.713-1.544 1.617-1.496.333-.019.602.032.81.154l-.054.804Z" class="&lt;Compound Path&gt;"/>
      </g>
      <g class="&lt;Group&gt;">
        <path fill="#FEFEFE" fill-rule="evenodd" d="m73.531 4.898.35 6.09-.798.046-.069-1.198-1.203-.03-.43 1.226-.705-.06 2.25-6.14.605.066Zm-.503 3.435-.027-2.202-.925 3.058.904.048.048-.904Z" class="&lt;Compound Path&gt;" clip-rule="evenodd"/>
      </g>
      <g class="&lt;Group&gt;">
        <path fill="#FEFEFE" fill-rule="evenodd" d="M65.557 14.272c1.004.042 2.108.079 1.587 3.214-.438 2.83-1.43 2.987-2.834 2.968l-.605-.066.953-6.064.899-.052Zm-.16.71-.728 4.75c1.303.025 1.428-1.284 1.57-2.294.149-.91.556-2.536-.842-2.456Z" class="&lt;Compound Path&gt;" clip-rule="evenodd"/>
        <path fill="#FEFEFE" d="m70.466 14.29-.16.71-1.303-.025-.39 1.926 1.303.025-.16.71-1.203-.03-.378 2.124 1.403.02-.06.704-2.202.027.948-6.165 2.202-.026Z" class="&lt;Compound Path&gt;"/>
      </g>
      <g class="&lt;Group&gt;">
        <g class="&lt;Group&gt;">
          <path fill="#7358A4" d="m68.933 10.271-38.48-.29.628-4.744 38.374.196-.522 4.838Z" class="&lt;Path&gt;"/>
        </g>
        <g class="&lt;Group&gt;">
          <g class="&lt;Group&gt;">
            <path fill="#FEFEFE" d="m34.9 3.716-.794 5.354 3.206.016-.279 2.12-5.508.016 1.067-7.574 2.308.068Zm2.832 7.449 1.073-7.474 2.307.068-1.172 7.48-2.208-.074Z" class="&lt;Compound Path&gt;"/>
            <path fill="#FEFEFE" fill-rule="evenodd" d="m41.144 11.27 1.067-7.574 3.306.01c.07.062.172.09.305.082a2.74 2.74 0 0 1 .605.066c.273.117.514.237.721.359a.97.97 0 0 1 .434.576c.153.325.205.656.157.992a2.696 2.696 0 0 1-.812 1.55c.556.368.786.89.691 1.563-.24 1.616-1.397 2.417-3.468 2.403l-3.006-.028Zm2.48-2.147 1.005.043c.333-.02.525-.164.576-.434-.015-.266-.156-.392-.422-.377l-1.004-.042-.154.81Zm.362-2.424.899-.052c.205.088.399-.023.482-.328-.018-.3-.223-.388-.323-.383l-.904-.048-.154.81Zm10.881 4.582-2.7.055-1.314-1.927-.2.011-.19 1.914-2.307-.067 1.072-7.474 3.106.021c.1-.006.2-.011.605.066.405.076.71.159 1.127.436.417.276.739.658.873 1.251.086.33.074.697-.036 1.104-.142 1.01-.666 1.775-1.571 2.294l1.535 2.316Zm-3.721-5.495-.12 1.409.805.054c.4-.023.652-.271.758-.745.077-.405-.14-.693-.54-.67l-.903-.048Z" class="&lt;Compound Path&gt;" clip-rule="evenodd"/>
            <path fill="#FEFEFE" d="m58.568 5.96-.06.704 2.907.033-.29 1.92-2.907-.033-.066.605 3.107.021-.279 2.12-5.408.01 1.072-7.473 5.508-.017-.378 2.126-3.206-.016Zm5.058 2.613c.5.573 1.052.875 1.655.907.466-.027.726-.142.781-.346-.007-.133-.115-.26-.322-.382a3.403 3.403 0 0 1-.921-.347 3.913 3.913 0 0 1-.928-.448 2.298 2.298 0 0 1-.844-.753c-.22-.32-.275-.718-.17-1.192.044-.403.284-.884.72-1.444.475-.428 1.357-.779 2.355-.836.804.054 1.52.313 1.937.59.416.276.739.658.85.852l.112.194-1.634 1.196c-.286-.318-.532-.537-.74-.659a2.216 2.216 0 0 0-.704-.06c-.405-.076-.593.135-.587.235-.089.205.328.482.832.553.208.121.482.24.822.353.278.184.52.337.728.46.278.183.493.438.645.763.082.263.1.595.057.999-.077.405-.347.921-.818 1.449-.47.528-1.451.885-2.455.842-.87-.016-1.548-.211-2.037-.584-.556-.368-.88-.784-.974-1.246l1.64-1.096Z" class="&lt;Compound Path&gt;"/>
          </g>
        </g>
      </g>
      <g class="&lt;Group&gt;">
        <g class="&lt;Group&gt;">
          <path fill="#7358A4" d="m61.369 19.822-58.223-.456.529-4.739 58.023.468-.33 4.727Z" class="&lt;Path&gt;"/>
        </g>
        <g class="&lt;Group&gt;">
          <g class="&lt;Group&gt;">
            <path fill="#FEFEFE" d="m9.14 20.824.262-2.42-1.803.004-.362 2.425-2.202.027 1.067-7.574 2.202-.027-.426 3.03 1.902-.01.427-3.029 2.308.068-1.167 7.579-2.208-.073Zm3.406.004 1.172-7.48 2.202-.026-1.066 7.574-2.308-.068Zm3.108-1.681 1.851-.908c.293.45.573.668.84.653.402.043.628-.103.675-.44l.81-5.055 2.203-.026-.694 5.348c-.165.61-.534 1.166-1.106 1.667-.576.434-1.298.642-2.168.625-.599.035-1.314-.224-1.637-.607-.322-.382-.645-.764-.762-1.058l-.012-.2Z" class="&lt;Compound Path&gt;"/>
            <path fill="#FEFEFE" fill-rule="evenodd" d="M27.037 13.283c1.135.002 2.025.385 2.67 1.149.711.76.965 1.68.76 2.76-.139 1.077-.653 2.008-1.542 2.794a4.712 4.712 0 0 1-3.044 1.076c-1.068-.005-1.925-.39-2.57-1.154-.712-.76-.965-1.68-.76-2.76.138-1.077.652-2.008 1.542-2.794.894-.72 1.875-1.076 2.944-1.07Zm-.777 5.654c.47.04.861-.116 1.175-.468.38-.356.623-.77.73-1.244.036-.536-.056-.965-.275-1.287-.289-.383-.666-.562-1.132-.535-.47-.04-.895.118-1.275.474-.314.352-.522.798-.624 1.338-.04.47.05.865.268 1.186.29.384.667.563 1.133.536Z" class="&lt;Compound Path&gt;" clip-rule="evenodd"/>
            <path fill="#FEFEFE" d="M32.527 18.176c.5.572 1.085.872 1.754.9.4-.022.627-.136.682-.34-.008-.132-.115-.26-.323-.381a3.406 3.406 0 0 1-.921-.348 3.912 3.912 0 0 1-.927-.447 2.298 2.298 0 0 1-.845-.753c-.219-.321-.275-.719-.169-1.192.04-.47.28-.951.718-1.444.471-.528 1.352-.88 2.456-.842.799-.046 1.515.213 1.937.59.417.276.74.658.85.852l.012.2-1.64 1.096a2.545 2.545 0 0 0-.633-.565 6.928 6.928 0 0 0-.81-.154c-.4.023-.593.134-.582.334-.088.206.322.382.833.553l.822.354c.274.117.55.269.827.453.211.188.393.445.545.77.149.258.201.59.158.992-.072.505-.342 1.022-.918 1.456-.47.527-1.452.884-2.456.842-.865.05-1.544-.145-2.037-.584-.555-.369-.913-.782-1.073-1.24l1.74-1.102Zm5.027 3.817 6.2-8.87 2.403-.038-6.201 8.87-2.402.038Z" class="&lt;Compound Path&gt;"/>
            <path fill="#FEFEFE" fill-rule="evenodd" d="m50.39 13.542 1.74 7.613-2.507-.056-.146-.793-2.408-.062-.453.827-2.402.038 3.868-7.635 2.308.068Zm-2.331 4.742.998-.058-.192-1.591-.806 1.649Z" class="&lt;Compound Path&gt;" clip-rule="evenodd"/>
            <path fill="#FEFEFE" d="M54.47 18.315c.435.576.986.879 1.656.907.399-.023.626-.136.681-.34-.007-.133-.115-.26-.322-.382l-.822-.353a7.006 7.006 0 0 1-1.027-.442 2.298 2.298 0 0 1-.845-.753 2.462 2.462 0 0 1-.168-1.192c.04-.47.279-.951.718-1.444.47-.528 1.352-.879 2.456-.842.798-.046 1.514.213 1.937.59.416.276.739.658.85.852l.011.2-1.64 1.096c-.218-.322-.43-.51-.633-.565a6.912 6.912 0 0 0-.81-.154c-.3.018-.593.135-.582.334-.088.206.323.383.834.554l.821.353c.274.118.55.269.828.453.21.188.39.412.539.67.152.325.207.69.163 1.093-.077.405-.348.921-.918 1.455-.47.528-1.352.879-2.456.842-.869-.017-1.548-.211-2.036-.584-.49-.372-.814-.788-.974-1.246l1.74-1.102Z" class="&lt;Compound Path&gt;"/>
          </g>
        </g>
      </g>
      <g class="&lt;Group&gt;">
        <g class="&lt;Group&gt;">
          <path fill="#7358A4" d="m83.266 29.58-60.014-.253.528-4.738 59.732.57-.246 4.42Z" class="&lt;Path&gt;"/>
        </g>
        <g class="&lt;Group&gt;">
          <g class="&lt;Group&gt;">
            <path fill="#FEFEFE" d="m28.025 25.246-.16.71 3.007.028-.29 1.92-3.006-.028-.066.605 3.212.116-.284 2.02-5.508.016 1.172-7.48 5.408-.01-.279 2.119-3.206-.016Zm5.059 2.614c.433.576.985.878 1.654.906.4-.023.627-.136.682-.34-.008-.133-.115-.26-.322-.382-.204-.055-.478-.172-.822-.353a6.996 6.996 0 0 1-1.027-.442 1.624 1.624 0 0 1-.745-.758c-.219-.321-.308-.717-.268-1.187.043-.403.318-.853.823-1.35.37-.521 1.252-.873 2.35-.936.805.054 1.52.313 1.938.59.422.376.639.664.85.852l.011.2-1.634 1.196c-.219-.321-.432-.543-.639-.664-.203-.055-.472-.073-.804-.054-.3.017-.594.134-.588.234.011.2.328.482.839.653.27.051.542.136.816.253.278.185.553.336.827.454.212.188.393.444.546.77.148.258.2.589.157.992-.072.505-.342 1.021-.918 1.455-.47.528-1.352.88-2.456.843-.865.05-1.544-.145-2.037-.584-.489-.373-.811-.755-.967-1.147l1.734-1.201Zm13.406-.27c-.279.95-.834 1.75-1.665 2.399a4.634 4.634 0 0 1-2.755.86c-1.068-.006-1.925-.39-2.57-1.155-.645-.764-.898-1.684-.76-2.76.138-1.077.654-1.975 1.548-2.694.89-.786 1.869-1.176 2.937-1.17 1.002.008 1.822.328 2.46.96.637.63.982 1.412 1.036 2.344l-2.402.038a1.743 1.743 0 0 0-.55-.87c-.212-.188-.486-.306-.822-.353-.466.027-.89.218-1.27.574-.317.285-.527.698-.63 1.238-.04.47.052.898.275 1.286.285.318.661.463 1.127.436a1.08 1.08 0 0 0 .887-.251c.321-.219.572-.5.753-.845l2.401-.038Zm3.758-4.324-.794 5.355 3.207.015-.28 2.12-5.507.016 1.072-7.473 2.302-.033Z" class="&lt;Compound Path&gt;"/>
            <path fill="#FEFEFE" fill-rule="evenodd" d="m58.968 23.365 1.734 7.513-2.507-.056-.145-.793-2.402.038-.36.722-2.401.038 3.873-7.535 2.208.073Zm-2.337 4.642 1.004.043-.291-1.586-.713 1.543Z" class="&lt;Compound Path&gt;" clip-rule="evenodd"/>
            <path fill="#FEFEFE" d="m64.708 30.848-2.302.032-1.635-7.518 2.402-.038.857 4.458 2.15-4.43 2.407.06-3.88 7.436Z" class="&lt;Compound Path&gt;"/>
            <path fill="#FEFEFE" fill-rule="evenodd" d="m72.692 23.377 1.634 7.518-2.402.039-.145-.793-2.508-.056-.353.821-2.408-.062 3.88-7.435 2.302-.032Zm-2.338 4.642.999-.057-.292-1.586-.707 1.643Z" class="&lt;Compound Path&gt;" clip-rule="evenodd"/>
            <path fill="#FEFEFE" d="M76.673 28.156c.433.576.985.878 1.654.907.4-.023.627-.137.682-.34-.008-.133-.115-.26-.322-.382a4.437 4.437 0 0 0-.822-.354 7.006 7.006 0 0 1-1.027-.441 2.3 2.3 0 0 1-.845-.753c-.152-.325-.208-.723-.168-1.192.04-.47.312-.953.817-1.45.371-.522 1.252-.873 2.356-.836.805.053 1.515.213 1.937.59.417.276.64.664.75.857l.112.194-1.64 1.096a2.549 2.549 0 0 0-.633-.564 6.936 6.936 0 0 0-.81-.154c-.3.018-.588.234-.582.334-.088.206.322.382.833.553l.822.354a5.1 5.1 0 0 1 .827.453c.212.188.391.411.54.67.152.325.206.69.163 1.092-.077.405-.348.922-.918 1.456-.47.527-1.352.879-2.456.842-.869-.017-1.548-.211-2.037-.584-.489-.372-.813-.788-.973-1.246l1.74-1.102Z" class="&lt;Compound Path&gt;"/>
          </g>
        </g>
      </g>
    </g>
  </g>
</svg>
