<svg xmlns="http://www.w3.org/2000/svg" width="105" height="90" fill="none" viewBox="0 0 105 90">
  <g class="2-21-ilus">
    <g class="&lt;Group&gt;">
      <g class="Group 11">
        <g class="&lt;Group&gt;">
          <path fill="#050505" d="M39.782 87.801c0 1 7.3 1.8 16.3 1.8s16.2-.9 16.2-1.9c0-.9-7.2-1.7-16.2-1.7s-16.3.8-16.3 1.8Z" class="&lt;Path&gt;" opacity=".2"/>
          <path fill="#B48054" d="M44.182 54.401s-2.8-.9-3.4-1.6c-1.1-.9-1.1-2.6-.1-3.7s2.6-1.1 3.7-.2c.9.8 1 2.1.5 3.2.133 0 .233.034.3.1.3.3.4.7.1 1l-1.1 1.2Z" class="&lt;Path&gt;"/>
          <path stroke="#050505" stroke-linecap="round" stroke-linejoin="round" stroke-width=".4" d="M44.182 54.401s-2.8-.9-3.4-1.6c-1.1-.9-1.1-2.6-.1-3.7s2.6-1.1 3.7-.2c.9.8 1 2.1.5 3.2.133 0 .233.034.3.1.3.3.4.7.1 1l-1.1 1.2Z" class="&lt;Path&gt;"/>
          <path fill="#EAECED" d="M52.681 64.201c.4-1.9-.9-3.8-2.8-4.2-1.2-.2-2.1-.5-2.7-.9-.7-.3-1-.6-1.2-1-.3-.3-.4-.7-.5-1.5-.1-.7-.1-1.6.2-2.9l-7-1.3c-.3 1.8-.4 3.4-.3 5.1.2 1.6.8 3.2 1.7 4.6.9 1.4 2.2 2.5 3.7 3.2 1.4.8 3 1.4 4.8 1.7 1.9.4 3.8-.9 4.1-2.8Z" class="&lt;Path&gt;"/>
          <path stroke="#050505" stroke-linecap="round" stroke-linejoin="round" stroke-width=".4" d="M52.681 64.201c.4-1.9-.9-3.8-2.8-4.2-1.2-.2-2.1-.5-2.7-.9-.7-.3-1-.6-1.2-1-.3-.3-.4-.7-.5-1.5-.1-.7-.1-1.6.2-2.9l-7-1.3c-.3 1.8-.4 3.4-.3 5.1.2 1.6.8 3.2 1.7 4.6.9 1.4 2.2 2.5 3.7 3.2 1.4.8 3 1.4 4.8 1.7 1.9.4 3.8-.9 4.1-2.8Z" class="&lt;Path&gt;"/>
          <g class="&lt;Group&gt;" style="mix-blend-mode:multiply">
            <g class="Clip path group">
              <mask id="a" width="14" height="16" x="38" y="52" class="a" maskUnits="userSpaceOnUse" style="mask-type:luminance">
                <g class="cp86">
                  <path fill="#fff" d="m51.432 67.061-13.09.01-.01-14.67 13.09-.01.01 14.67Z" class="Vector"/>
                </g>
              </mask>
              <g class="&lt;Clip Group&gt;" mask="url(#a)">
                <path fill="#D7D7D5" d="M50.581 66.201c-1.7-.3-3.3-.8-4.8-1.6-1.4-.8-2.7-1.9-3.6-3.3-1-1.3-1.5-2.9-1.7-4.6-.133-1.267-.1-2.566.1-3.9l-1.9-.4c-.3 1.8-.4 3.4-.3 5.1.2 1.6.8 3.2 1.7 4.6.9 1.4 2.2 2.5 3.7 3.2 1.4.8 3 1.4 4.8 1.7 1 .2 2.1-.1 2.9-.7-.333 0-.633-.033-.9-.1Z" class="&lt;Path&gt;"/>
              </g>
            </g>
          </g>
          <path fill="#050505" d="M50.682 84.701s.6 1-1.9 2.1l10.1.4-.2-2.1-8-.4Z" class="&lt;Path&gt;"/>
          <path stroke="#050505" stroke-linecap="round" stroke-linejoin="round" stroke-width=".4" d="M50.682 84.701s.6 1-1.9 2.1l10.1.4-.2-2.1-8-.4Z" class="&lt;Path&gt;"/>
          <path fill="#28377C" d="m49.382 76.801.7 7.8 9.2 1 .7-7.8" class="&lt;Path&gt;"/>
          <path stroke="#050505" stroke-linecap="round" stroke-linejoin="round" stroke-width=".4" d="m49.382 76.801.7 7.8 9.2 1 .7-7.8" class="&lt;Path&gt;"/>
          <g class="&lt;Group&gt;" opacity=".3">
            <g class="Clip path group">
              <mask id="b" width="4" height="9" x="55" y="77" class="b" maskUnits="userSpaceOnUse" style="mask-type:luminance">
                <g class="cp87">
                  <path fill="#fff" d="M58.261 85.481h-3.16v-7.85h3.15l.01 7.85Z" class="Vector"/>
                </g>
              </mask>
              <g class="&lt;Clip Group&gt;" mask="url(#b)">
                <path fill="#0C0E10" d="m55.081 77.601 1 7.6 2.2.3-.7-7.4-2.5-.5Z" class="&lt;Path&gt;"/>
              </g>
            </g>
          </g>
          <path fill="#050505" d="M58.382 85.501s.7 1.3-1.5 2.1l10 .9-.2-2.2-8.3-.8Z" class="&lt;Path&gt;"/>
          <path stroke="#050505" stroke-linecap="round" stroke-linejoin="round" stroke-width=".4" d="M58.382 85.501s.7 1.3-1.5 2.1l10 .9-.2-2.2-8.3-.8Z" class="&lt;Path&gt;"/>
          <path fill="#28377C" d="m57.081 77.301 1 8.1 9.5 1.6.4-8" class="&lt;Path&gt;"/>
          <path stroke="#050505" stroke-linecap="round" stroke-linejoin="round" stroke-width=".4" d="m57.081 77.301 1 8.1 9.5 1.6.4-8" class="&lt;Path&gt;"/>
          <g class="&lt;Group&gt;" opacity=".3">
            <g class="Clip path group">
              <mask id="c" width="3" height="8" x="65" y="80" class="c" maskUnits="userSpaceOnUse" style="mask-type:luminance">
                <g class="cp88">
                  <path fill="#fff" d="M67.902 87.021h-2.6l-.01-6.66h2.61v6.66Z" class="Vector"/>
                </g>
              </mask>
              <g class="&lt;Clip Group&gt;" mask="url(#c)">
                <path fill="#0C0E10" d="m67.882 81.601-.1-1-2.5-.2.7 6.4 1.6.2.3-5.4Z" class="&lt;Path&gt;"/>
              </g>
            </g>
          </g>
          <path fill="#EAECED" d="m58.581 67.501-3.9-3.5-3.1-3s-2 6.2-3.7 9.5c-1.5 3-3.4 4.9-3.5 5.5.2 1.8 6.7 4.9 8.8 5.5 5.8 1.6 9.1.6 13.2 1.5 3.2.7 3.8.3 4.2 0 1.3-1 1.8-17 1.8-17h-7.8l-6 1.5Z" class="&lt;Path&gt;"/>
          <path stroke="#050505" stroke-linecap="round" stroke-linejoin="round" stroke-width=".4" d="m58.581 67.501-3.9-3.5-3.1-3s-2 6.2-3.7 9.5c-1.5 3-3.4 4.9-3.5 5.5.2 1.8 6.7 4.9 8.8 5.5 5.8 1.6 9.1.6 13.2 1.5 3.2.7 3.8.3 4.2 0 1.3-1 1.8-17 1.8-17h-7.8l-6 1.5Z" class="&lt;Path&gt;"/>
          <path stroke="#050505" stroke-linecap="round" stroke-linejoin="round" stroke-width=".4" d="M61.981 76.401c-.4 2.2.7 3.5 2.4 3.9 1.6.3 3.2-.4 3.7-2.5l.5-2.3-6.1-1.4-.5 2.3Z" class="&lt;Path&gt;"/>
          <path fill="#E3272C" d="m62.182 75.301 6.2 1.4Z" class="&lt;Path&gt;"/>
          <path stroke="#050505" stroke-width=".4" d="m62.182 75.301 6.2 1.4" class="&lt;Path&gt;"/>
          <path fill="#050505" d="M57.282 73.401c0 .3-.4.5-.7.5-.4-.1-.6-.5-.5-.8.1-.4.4-.6.7-.5.4.1.6.4.5.8Zm-1.1 2.6c-.1.4-.4.6-.8.5-.3-.1-.5-.4-.5-.8.1-.3.5-.5.8-.5.4.1.6.5.5.8Zm-1.4 2.6c0 .4-.4.6-.7.5-.4-.1-.6-.4-.5-.8.1-.3.4-.5.8-.5.3.1.5.5.4.8Z" class="&lt;Path&gt;"/>
          <g class="&lt;Group&gt;" style="mix-blend-mode:multiply">
            <g class="Clip path group">
              <mask id="d" width="5" height="18" x="68" y="66" class="d" maskUnits="userSpaceOnUse" style="mask-type:luminance">
                <g class="cp89">
                  <path fill="#fff" d="M72.392 83.371h-4.13l-.01-17.33h4.13l.01 17.33Z" class="Vector"/>
                </g>
              </mask>
              <g class="&lt;Clip Group&gt;" mask="url(#d)">
                <path fill="#D7D7D5" d="M70.582 83.001c1.2-.9 1.7-14.3 1.8-16.6v-.4l-2.2.4-1.9 16.9c1.5.2 2-.1 2.3-.3Z" class="&lt;Path&gt;"/>
              </g>
            </g>
          </g>
          <path fill="#AB795A" d="M76.481 79.501c.4.6 1.4 1.9 1.3 3.3 0 1.3-.8 2.4-1.9 2.8-1.4.4-3.1-.2-3.1-1.2 0-.4-.1-.8-.3-1.3-.1-.5-.5-1.3-.5-1.5-.3-.8-.4-2.6 1.2-3.2 2-.7 3.3 1.1 3.3 1.1Z" class="&lt;Path&gt;"/>
          <path stroke="#050505" stroke-linecap="round" stroke-linejoin="round" stroke-width=".5" d="M76.481 79.501c.4.6 1.4 1.9 1.3 3.3 0 1.3-.8 2.4-1.9 2.8-1.4.4-3.1-.2-3.1-1.2 0-.4-.1-.8-.3-1.3-.1-.5-.5-1.3-.5-1.5-.3-.8-.4-2.6 1.2-3.2 2-.7 3.3 1.1 3.3 1.1Z" class="&lt;Path&gt;"/>
          <path fill="#AB795A" d="m72.481 81.101-1.2 1.6c-.3.4-.2 1 .2 1.2.3.3.7.2.9.1.4-.3.7-.7.7-.7" class="&lt;Path&gt;"/>
          <path stroke="#050505" stroke-linecap="round" stroke-linejoin="round" stroke-width=".5" d="m72.481 81.101-1.2 1.6c-.3.4-.2 1 .2 1.2.3.3.7.2.9.1.4-.3.7-.7.7-.7" class="&lt;Path&gt;"/>
          <g class="&lt;Group&gt;" style="mix-blend-mode:multiply">
            <g class="Clip path group">
              <mask id="e" width="7" height="5" x="71" y="78" class="e" maskUnits="userSpaceOnUse" style="mask-type:luminance">
                <g class="cp90">
                  <path fill="#fff" d="m77.492 82.531-5.99.01v-4.43h5.98l.01 4.42Z" class="Vector"/>
                </g>
              </mask>
              <g class="&lt;Clip Group&gt;" mask="url(#e)">
                <path fill="#DFDFDF" d="M77.481 80.601s-1.7-.8-3.4.3-1.9 1.6-1.9 1.6-1.2-1.5-.4-2.8c.9-1.3 2.7-2.1 3.7-1.2.9.9 2 2.1 2 2.1Z" class="&lt;Path&gt;"/>
              </g>
            </g>
          </g>
          <path fill="#F5F6F7" d="M78.082 80.401c-.5-1.7-.9-3-1.4-4.9-1-3.4-2.6-5.4-2.6-5.4-1.3-1.8-3.5-2.4-5.2-1.3l-.5.4c-1.5.9-2.4 2.9-.9 5.2 0 0 1.3 2.2 2 4.5.4 1.6 1 3.7 1 3.7l7.6-2.2Z" class="&lt;Path&gt;"/>
          <path stroke="#050505" stroke-linecap="round" stroke-linejoin="round" stroke-width=".5" d="M78.082 80.401c-.5-1.7-.9-3-1.4-4.9-1-3.4-2.6-5.4-2.6-5.4-1.3-1.8-3.5-2.4-5.2-1.3l-.5.4c-1.5.9-2.4 2.9-.9 5.2 0 0 1.3 2.2 2 4.5.4 1.6 1 3.7 1 3.7l7.6-2.2Z" class="&lt;Path&gt;"/>
          <g class="&lt;Group&gt;" opacity=".3">
            <g class="Clip path group">
              <mask id="f" width="12" height="14" x="67" y="68" class="f" maskUnits="userSpaceOnUse" style="mask-type:luminance">
                <g class="cp91">
                  <path fill="#fff" d="m78.041 81.131-10.17.01-.01-12.86 10.17-.01.01 12.86Z" class="Vector"/>
                </g>
              </mask>
              <g class="&lt;Clip Group&gt;" mask="url(#f)">
                <path fill="#0A0C0F" d="M78.082 80.401c-.5-1.7-.9-3-1.4-4.9-1-3.4-2.6-5.4-2.6-5.4-1.3-1.8-3.5-2.4-5.2-1.3l-.5.4a1.26 1.26 0 0 0-.5.3l.6.2s2.7-.3 4.5 3.4c1.2 2.5 2 6 2.5 8l2.6-.7Z" class="&lt;Path&gt;"/>
              </g>
            </g>
          </g>
          <path fill="#FEFEFE" d="M56.282 70.801s-.3 1.6-1.9 4.7c-1.6 3.1-2.3 5.3-2.3 5.3" class="&lt;Path&gt;"/>
          <path stroke="#050505" stroke-linecap="round" stroke-linejoin="round" stroke-width=".4" d="M56.282 70.801s-.3 1.6-1.9 4.7c-1.6 3.1-2.3 5.3-2.3 5.3" class="&lt;Path&gt;"/>
          <path fill="#96BFE2" d="m56.682 70.401-.5-.2.4-4.9 3.6 2.2-3.5 2.9Z" class="&lt;Path&gt;"/>
          <g class="&lt;Group&gt;" opacity=".4">
            <g class="Clip path group">
              <mask id="g" width="8" height="4" x="56" y="68" class="g" maskUnits="userSpaceOnUse" style="mask-type:luminance">
                <g class="cp92">
                  <path fill="#fff" d="m63.352 71.631-7.14.01v-3.05h7.13l.01 3.04Z" class="Vector"/>
                </g>
              </mask>
              <g class="&lt;Clip Group&gt;" mask="url(#g)">
                <path fill="#ACACAD" d="M63.081 69.801v.5l-3.6-.7.5.6-.1.5-3.5.7.3-1 2.2-1.6 4.2 1Z" class="&lt;Path&gt;"/>
                <path stroke="#ACACAD" stroke-linejoin="round" stroke-width=".4" d="M63.081 69.801v.5l-3.6-.7.5.6-.1.5-3.5.7.3-1 2.2-1.6 4.2 1Z" class="&lt;Path&gt;"/>
              </g>
            </g>
          </g>
          <g class="&lt;Group&gt;" opacity=".4">
            <g class="Clip path group">
              <mask id="h" width="5" height="4" x="52" y="67" class="h" maskUnits="userSpaceOnUse" style="mask-type:luminance">
                <g class="cp93">
                  <path fill="#fff" d="M56.172 70.751h-3.2l-.01-3.6 3.21-.01v3.61Z" class="Vector"/>
                </g>
              </mask>
              <g class="&lt;Clip Group&gt;" mask="url(#h)">
                <path fill="#ACACAD" d="M55.182 67.901v.6l1 2.2-1.6-2.5-1.6-.6v-.5l2.2.8Z" class="&lt;Path&gt;"/>
              </g>
            </g>
          </g>
          <path fill="#EAECED" d="m56.282 65.001-3.1 2.2 2 .7-.7.4 1.7 2.6.4-.9.2-4.6-.5-.4Z" class="&lt;Path&gt;"/>
          <path stroke="#050505" stroke-linecap="round" stroke-linejoin="round" stroke-width=".4" d="m56.282 65.001-3.1 2.2 2 .7-.7.4 1.7 2.6.4-.9.2-4.6-.5-.4Z" class="&lt;Path&gt;"/>
          <path fill="#EAECED" d="m61.382 66.801 1.6 3-3.6-.7.4 1.1-3.4.7.1-.7 2.6-3.1 2.3-.3Z" class="&lt;Path&gt;"/>
          <path stroke="#050505" stroke-linecap="round" stroke-linejoin="round" stroke-width=".4" d="m61.382 66.801 1.6 3-3.6-.7.4 1.1-3.4.7.1-.7 2.6-3.1 2.3-.3Z" class="&lt;Path&gt;"/>
          <g class="Clip path group">
            <mask id="i" width="10" height="10" x="44" y="68" class="i" maskUnits="userSpaceOnUse" style="mask-type:luminance">
              <g class="cp94">
                <path fill="#fff" d="m53.172 70.741-3.8 6.79-4.99-1.78 4.57-7.56 4.22 2.55Z" class="Vector"/>
              </g>
            </mask>
            <g class="&lt;Clip Group&gt;" mask="url(#i)">
              <path stroke="#050505" stroke-linecap="round" stroke-linejoin="round" stroke-width=".4" d="M42.882 70.601c-.9 2-.1 3.5 1.5 4.3 1.6.7 3.3.3 4.2-1.6l1-2.2-5.7-2.6-1 2.1Z" class="&lt;Path&gt;"/>
              <path fill="#E3272C" d="m43.282 69.501 5.8 2.7Z" class="&lt;Path&gt;"/>
              <path stroke="#050505" stroke-width=".4" d="m43.282 69.501 5.8 2.7" class="&lt;Path&gt;"/>
            </g>
          </g>
          <g class="&lt;Group&gt;" opacity=".5">
            <g class="Clip path group">
              <mask id="j" width="3" height="4" x="56" y="66" class="j" maskUnits="userSpaceOnUse" style="mask-type:luminance">
                <g class="cp95">
                  <path fill="#fff" d="M58.782 69.551h-2.01v-2.93h2l.01 2.93Z" class="Vector"/>
                </g>
              </mask>
              <g class="&lt;Clip Group&gt;" mask="url(#j)">
                <path fill="#6983A5" d="m58.182 66.601.6.5-2 2.5.1-1.2 1.3-1.8Z" class="&lt;Path&gt;"/>
              </g>
            </g>
          </g>
          <path stroke="#050505" stroke-linecap="round" stroke-linejoin="round" stroke-width=".4" d="m59.081 67.101-4.3-3.3" class="&lt;Path&gt;"/>
          <path fill="#9A7448" d="M83.481 58.601c-5.4 8.9-16.9 12.2-26.5 7.1-9.3-4.9-11.4-16.9-5.9-25.8 5.4-8.9 16.7-11.9 25.6-6.4 8.9 5.4 12.3 16.2 6.8 25.1Z" class="&lt;Path&gt;"/>
          <path fill="#BC8357" d="M80.082 57.901c-5.2 8.5-14.8 12-23.2 6.8-8.4-5.1-11-16.2-5.8-24.8 5.2-8.5 10.5-7.4 18.9-2.2 8.4 5.2 15.4 11.7 10.1 20.2Z" class="&lt;Path&gt;"/>
          <path fill="#B48054" d="M84.581 56.701c-5.4 8.9-15.2 16-27.4 8.9-14.4-8.4-11.5-16.7-6-25.6 5.4-8.9 17.1-11.7 26-6.3 8.9 5.5 12.9 14.1 7.4 23Z" class="&lt;Path&gt;"/>
          <path stroke="#050505" stroke-width=".4" d="M84.581 56.701c-5.4 8.9-15.2 16-27.4 8.9-14.4-8.4-11.5-16.7-6-25.6 5.4-8.9 17.1-11.7 26-6.3 8.9 5.5 12.9 14.1 7.4 23Z" class="&lt;Path&gt;"/>
          <path fill="#050505" d="M49.981 44.601c-.5.8-.5 1.7 0 2 .5.3 1.3-.1 1.8-.9s.5-1.6 0-2c-.5-.3-1.3.1-1.8.9Zm14.401 8.8c-.5.8-1.3 1.2-1.8.9-.6-.4-.6-1.2-.1-2s1.3-1.2 1.8-.9c.5.3.5 1.2.1 2Z" class="&lt;Path&gt;"/>
          <path fill="#FEFEFE" d="M64.481 52.401c-.1.1-.3.2-.4.1-.1 0-.1-.2 0-.3.1-.2.2-.3.3-.2.1.1.2.2.1.4Z" class="&lt;Path&gt;"/>
          <path fill="#050505" d="M49.981 44.601c-.5.8-.5 1.7 0 2 .5.3 1.3-.1 1.8-.9s.5-1.6 0-2c-.5-.3-1.3.1-1.8.9Z" class="&lt;Path&gt;"/>
          <path fill="#FEFEFE" d="M51.782 44.601c-.1.1-.3.2-.4.1-.1 0-.1-.2 0-.3.1-.2.2-.2.4-.2.1.1.1.3 0 .4Z" class="&lt;Path&gt;"/>
          <path fill="#B48054" d="M64.382 53.401c-.5.8-1.3 1.2-1.8.9-.6-.4-.6-1.2-.1-2s1.3-1.2 1.8-.9c.5.3.5 1.2.1 2Z" class="&lt;Path&gt;"/>
          <path stroke="#B48054" stroke-width=".4" d="M64.382 53.401c-.5.8-1.3 1.2-1.8.9-.6-.4-.6-1.2-.1-2s1.3-1.2 1.8-.9c.5.3.5 1.2.1 2Z" class="&lt;Path&gt;"/>
          <path fill="#B48054" d="M64.481 52.401c-.1.1-.3.2-.4.1-.1 0-.1-.2 0-.3.1-.2.2-.3.3-.2.1.1.2.2.1.4Z" class="&lt;Path&gt;"/>
          <path stroke="#B48054" stroke-width=".4" d="M64.481 52.401c-.1.1-.3.2-.4.1-.1 0-.1-.2 0-.3.1-.2.2-.3.3-.2.1.1.2.2.1.4Z" class="&lt;Path&gt;"/>
          <path fill="#B48054" d="M49.981 44.601c-.5.8-.5 1.7 0 2 .5.3 1.3-.1 1.8-.9s.5-1.6 0-2c-.5-.3-1.3.1-1.8.9Z" class="&lt;Path&gt;"/>
          <path stroke="#B48054" stroke-width=".4" d="M49.981 44.601c-.5.8-.5 1.7 0 2 .5.3 1.3-.1 1.8-.9s.5-1.6 0-2c-.5-.3-1.3.1-1.8.9Z" class="&lt;Path&gt;"/>
          <path fill="#B48054" d="M51.782 44.601c-.1.1-.3.2-.4.1-.1 0-.1-.2 0-.3.1-.2.2-.2.4-.2.1.1.1.3 0 .4Z" class="&lt;Path&gt;"/>
          <path stroke="#B48054" stroke-width=".4" d="M51.782 44.601c-.1.1-.3.2-.4.1-.1 0-.1-.2 0-.3.1-.2.2-.2.4-.2.1.1.1.3 0 .4Z" class="&lt;Path&gt;"/>
          <path fill="#B48054" d="M62.081 52.101c.6-1.1 1.7-1.3 2.4-.9.6.4.8 1.4.1 2.4" class="&lt;Path&gt;"/>
          <path stroke="#050505" stroke-linecap="round" stroke-linejoin="round" stroke-width=".4" d="M62.081 52.101c.6-1.1 1.7-1.3 2.4-.9.6.4.8 1.4.1 2.4" class="&lt;Path&gt;"/>
          <path fill="#B48054" d="M51.882 45.801c.5-.8.4-1.7-.1-2.1-.5-.3-1.3.1-1.8.9" class="&lt;Path&gt;"/>
          <path stroke="#050505" stroke-linecap="round" stroke-linejoin="round" stroke-width=".4" d="M51.882 45.801c.5-.8.4-1.7-.1-2.1-.5-.3-1.3.1-1.8.9" class="&lt;Path&gt;"/>
          <g class="&lt;Group&gt;" style="mix-blend-mode:multiply">
            <g class="Clip path group">
              <mask id="k" width="34" height="38" x="54" y="31" class="k" maskUnits="userSpaceOnUse" style="mask-type:luminance">
                <g class="cp97">
                  <path fill="#fff" d="m87.092 68.491-33.04.03-.03-37.19 33.04-.02.03 37.18Z" class="Vector"/>
                </g>
              </mask>
              <g class="&lt;Clip Group&gt;" mask="url(#k)">
                <path fill="#D7D7D5" d="M67.481 60.601c.067 0 .067-.033 0-.1.3-.6.5-1.1.5-1.6-.133-.333-.3-.7-.5-1.1-.4-.9-.7-1.9-.9-2.9-1-2.5-1.3-5.9-1.5-8-.3-2.3-1.9-15.1-1.9-15.1s5.3-1.3 10.6.3c.067.067.134.1.2.1l.6.2c.067.067.134.1.2.1 6.4 2.8 10.8 9.6 12.3 15.8v.1c0 2.7-.7 5.5-2.5 8.3-5.4 8.9-15.2 16-27.4 8.9-1.066-.6-2.033-1.2-2.9-1.8l-.2-.3c8.5 3.9 13.4-2.9 13.4-2.9Z" class="&lt;Path&gt;"/>
              </g>
            </g>
          </g>
          <path fill="#201E1E" d="M83.781 58.601s3.4 0-.8 4.3c-2.2 2.1-6.7 3.7-6.7 3.7l7.5-8Z" class="&lt;Path&gt;"/>
          <path fill="#050505" d="M59.282 31.001s-6.9.8-11.4 6.4c-.2.2 2.3-1.6 5.7-2.5m32.399 3.5s8 8.9 1.1 19.7c0 0 1.8-8.1-1.1-19.7Z" class="&lt;Path&gt;"/>
          <path fill="#050505" d="M78.582 45.501c-.4-.2-3.8 10.9.6 14 3-3.1 2.8-7.8 2.8-7.8.4 4.1-1.1 7.4-2 8.3.7.6 2.8 2 4.4 2.3 0 0 13.3-18.5-7.9-30.8 0 0-12.1-8.3-27.6 6.1 0 0-.1.8.7 2.7.6 1.5 6.4-6 7.3-4.9" class="&lt;Path&gt;"/>
          <path fill="#050505" d="M74.082 30.401c-2.1-.9-10.5-4.7-22.4 2.1 0 0 24.6-1.2 22.4-2.1Z" class="&lt;Path&gt;"/>
          <path fill="#050505" d="M60.682 29.101s19.6-5.6 27 12.1c7.3 17.6-27-12.1-27-12.1Zm24.299 32.1s-1.9 3.6-5.2 5.4c-3.3 1.7-3.9 1.6-3.9 1.6s1.9-.9 4.5-5.4m-7.1 5.8s-1.2.1-2-.6c-.3-.3 1.6-.9 1.6-.9l.4 1.5Z" class="&lt;Path&gt;"/>
          <path fill="#050505" d="M70.682 30.601s-8.5-6-21.5 7.7c0 0-.2-.1.2 1.5.4 1.2.4 1.2 1 2.1 1.1-2 2.4-2.6 6.9-4.1 0 0-4.9 1.7-5.9 5.2 7.1 7.9 14.9 4.5 14.9 4.5-.2-.2-2.2 5.2 2.9 7 2.6-2.9 3.8-7.2 3.8-7.2-.2 3.4-1.1 5.6-2.6 7.8.5.4 2.3.8 3.5 1 0 0 11.8-17-3.2-25.5Z" class="&lt;Path&gt;"/>
          <path fill="#050505" d="M73.882 56.101s4.6 3.1-1.9 11.5l9.4-2.8s8.8-7.6 6.5-18.1c-2.2-10.5-5.2-5.4-5.2-5.4l-4.5-.1-4.3 14.9Z" class="&lt;Path&gt;"/>
          <path fill="#050505" d="M70.382 55.101s4 4.9 1.7 12c-.3 1 1.2 1.5 1.2 1.5s4.6-1.1 6.6-3.7c2.1-2.7-2.6-10.6-2.6-10.6l-6.9.8Zm13.599-18.9s-1.6-4.3-4.2-6.3-3-1.6-3-1.6 3.9 2.1 4.9 7.1" class="&lt;Path&gt;"/>
          <path fill="#050505" d="M87.382 40.101s-1.6-2.1 1-3.1c0 0-1.7-.8-2.4 0 .2-1.2 0-3.6-3-5.9 0 0 1.1 3-1 2.6" class="&lt;Path&gt;"/>
          <path fill="#9A7448" d="M55.781 52.101s-1.5.8-2.7.1c-1.1-.7-.7-2.5-.7-2.5s.8 1.5 1.3 1.9c.6.3 2.1.5 2.1.5Z" class="&lt;Path&gt;"/>
          <path stroke="#050505" stroke-linecap="round" stroke-linejoin="bevel" stroke-width=".4" d="m52.581 50.001.3.9c.2.3.7.6 1.1.7l1.8.4m.801 9.7c-1.5-1.5-1.8-3.8-.7-5.8.9-1.5 2.5-2.4 4.2-2.4" class="&lt;Path&gt;"/>
          <path fill="#B48054" d="M46.782 54.401c-1.3-1.7-1.4-4-.2-5.6 1.1-1.4 2.7-1.9 4.4-1.7" class="&lt;Path&gt;"/>
          <path stroke="#050505" stroke-linecap="round" stroke-linejoin="round" stroke-width=".4" d="M46.782 54.401c-1.3-1.7-1.4-4-.2-5.6 1.1-1.4 2.7-1.9 4.4-1.7" class="&lt;Path&gt;"/>
          <path stroke="#050505" stroke-width=".4" d="m72.481 34.601-5.5-6.4" class="&lt;Path&gt;"/>
          <path fill="#050505" d="m89.082 41.701-1.8-1-.6 2.1.7.4 1.7-1.5Z" class="&lt;Path&gt;"/>
          <path fill="#FAA918" d="M41.681 48.201c-13-5.7-23.1-17.3-23.9-17.7-1.5-.7-3.8 1.7-5.9 6.3-2.2 4.6-3.2 7.7-1.1 8.6 1 .5 20.6 2.8 32.3 6.9 6.8 2.4 6.6 4 7.2 3.8.2-.1.9-.5 1.3-1.3.3-.7.2-1.4.1-1.7-.2-.6-.9-.1-7.5-3.2" class="&lt;Path&gt;"/>
          <g class="&lt;Group&gt;" opacity=".2" style="mix-blend-mode:multiply">
            <g class="Clip path group">
              <mask id="l" width="43" height="15" x="9" y="42" class="l" maskUnits="userSpaceOnUse" style="mask-type:luminance">
                <g class="cp100">
                  <path fill="#fff" d="m51.081 56.131-41.47-6.38-.01-7.74 41.48 6.38v7.74Z" class="Vector"/>
                </g>
              </mask>
              <g class="&lt;Clip Group&gt;" mask="url(#l)">
                <path fill="#180E20" d="M50.282 56.101c.1 0 .5-.4.8-.8l-.2-.4c-.6.1-.8-.5-7.4-3.6-8.1-3.8-30-8.8-31.1-9.3l-2.6.2c-.4 1.6-.1 2.7 1 3.2 1 .5 22.3 3.2 32.3 6.9 6.8 2.6 6.6 4 7.2 3.8Z" class="&lt;Path&gt;"/>
              </g>
            </g>
          </g>
          <path fill="#FEC908" d="M17.481 30.092c-.2 0-.6-.2-.8-.3-1.5-.7-4.4 2.4-6.5 6.8-2.1 4.5-2.5 8.7-1 9.4.1.1.5.3.7.3 1.9.9 5.1-2 7.2-6.4 2.1-4.5 2.3-8.9.4-9.8Z" class="&lt;Path&gt;"/>
          <path fill="#FCB613" d="M16.682 39.101c-2.1 4.5-5 7.5-6.5 6.8-1.5-.7-1.1-4.9 1-9.4 2.1-4.4 5-7.5 6.5-6.8 1.5.7 1.1 4.9-1 9.4Z" class="&lt;Path&gt;"/>
          <g class="&lt;Group&gt;" opacity=".9">
            <g class="Clip path group">
              <mask id="m" width="7" height="12" x="10" y="32" class="m" maskUnits="userSpaceOnUse" style="mask-type:luminance">
                <g class="cp101">
                  <path fill="#fff" d="M16.711 43.381h-6.03l-.01-11.37 6.03-.01.01 11.38Z" class="Vector"/>
                </g>
              </mask>
              <g class="&lt;Clip Group&gt;" mask="url(#m)">
                <path fill="#600B3C" d="M15.082 38.401c-1.4 3.1-3.2 5.3-4 4.9-.8-.3-.3-3.2 1.2-6.3 1.4-3.1 3.3-5.3 4.1-5 .7.4.2 3.2-1.3 6.4Z" class="&lt;Path&gt;"/>
              </g>
            </g>
          </g>
          <g class="&lt;Group&gt;" opacity=".7">
            <g class="Clip path group">
              <mask id="n" width="5" height="11" x="11" y="33" class="n" maskUnits="userSpaceOnUse" style="mask-type:luminance">
                <g class="cp102">
                  <path fill="#fff" d="m15.702 42.992-4.57.01-.01-9.78h4.58v9.77Z" class="Vector"/>
                </g>
              </mask>
              <g class="&lt;Clip Group&gt;" mask="url(#n)">
                <path fill="#4E0E26" d="M14.082 38.492c1-2.1 1.6-4.1 1.6-5.3-.9.8-2 2.5-3 4.6-1 2.1-1.5 4-1.6 5.2.9-.8 2.1-2.5 3-4.5Z" class="&lt;Path&gt;"/>
              </g>
            </g>
          </g>
          <path fill="#B48054" d="M45.382 50.701c-.4.7-1.6.9-2.8.3-1.3-.6-2-1.6-1.6-2.4.3-.7 1.6-.9 2.8-.3 1.2.5 1.9 1.6 1.6 2.4Z" class="&lt;Path&gt;"/>
          <path stroke="#050505" stroke-width=".4" d="M45.382 50.701c-.4.7-1.6.9-2.8.3-1.3-.6-2-1.6-1.6-2.4.3-.7 1.6-.9 2.8-.3 1.2.5 1.9 1.6 1.6 2.4Z" class="&lt;Path&gt;"/>
          <path fill="#B48054" d="M45.981 52.601c-.4.8-.7 1.4-1.6 1-1-.4-.6-1-.2-1.9.4-.8 1-1.1 1.5-.9.5.2.7.9.3 1.8Z" class="&lt;Path&gt;"/>
          <path stroke="#050505" stroke-linecap="round" stroke-linejoin="round" stroke-width=".4" d="M45.981 52.601c-.4.8-.7 1.4-1.6 1-1-.4-.6-1-.2-1.9.4-.8 1-1.1 1.5-.9.5.2.7.9.3 1.8Z" class="&lt;Path&gt;"/>
          <path stroke="#050505" stroke-width=".5" d="M49.981 56.301c.2 0 1-.5 1.5-1.5.4-.9.3-1.7.2-2" class="&lt;Path&gt;"/>
        </g>
        <g class="&lt;Group&gt;">
          <g class="&lt;Group&gt;">
            <g class="&lt;Group&gt;">
              <path fill="#71B24E" d="M70.382 10.801s9.6 4.6 6.7 16.9c2.6-3.1 14.2-16.1 14.2-16.1s-6.3 16.3-7.9 19.9c9.6-8.1 18.099-1.6 18.099-1.6-12.5.1-15.1 10.6-15.1 10.6-4.9-.7-10.4-4-10.4-4s-5.5-3.4-8.2-7.5c0 0 8.2-7 2.6-18.2Z" class="&lt;Path&gt;"/>
              <path fill="#94C845" d="M70.382 10.801s6.1 8.5 3 17.3c.7 2.4 6.6 8.8 13.3 11.5l-.3.9c-4.9-.7-10.4-4-10.4-4s-5.5-3.4-8.2-7.5c0 0 8.2-7 2.6-18.2Z" class="&lt;Path&gt;" opacity=".8" style="mix-blend-mode:multiply"/>
              <path fill="#94C845" d="M77.082 27.701c2.6-3.1 14.2-16.1 14.2-16.1l-12.7 20.7s-1.9-2.2-1.5-4.6Zm8.1 6.5c-.8-1-1.8-2.7-1.8-2.7 9.6-8.1 18.099-1.6 18.099-1.6s-8.9-2.7-16.3 4.3Z" class="&lt;Path&gt;" opacity=".5" style="mix-blend-mode:multiply"/>
            </g>
            <g class="&lt;Group&gt;">
              <path fill="#7358A4" d="M103.281 31.001c-.6 1-1.899 1.3-2.899.7-1-.6-1.3-1.9-.7-2.9.6-1 1.9-1.3 2.9-.7 1 .6 1.299 1.9.699 2.9Zm-13.8-20.5c-.6 1-.3 2.3.7 2.9 1 .6 2.3.3 2.9-.7.7-1 .3-2.3-.6-2.9-1-.6-2.3-.3-3 .7Zm-20.899-.8c-.6 1-.3 2.3.7 2.9 1 .6 2.3.3 2.9-.7.6-1 .3-2.3-.7-2.9-1-.6-2.3-.3-2.9.7Z" class="&lt;Path&gt;"/>
            </g>
          </g>
          <path fill="#FAA918" d="M77.382 34.201s5 3 9.8 4.2c-.6 1.3-.8 2.1-.8 2.1-4.9-.7-10.4-4-10.4-4s-5.5-3.4-8.2-7.5c0 0 .6-.6 1.4-1.6 3.3 3.7 8.2 6.8 8.2 6.8Z" class="&lt;Path&gt;"/>
        </g>
      </g>
      <path fill="#FCE003" d="M92.994 67.918c-1.552.807-3.279 1.203-3.893 3.07-.124.393 1.624 1.3 1.5 1.693.614-1.866 2.348-2.362 3.993-3.063 1.346-.72 2.623-1.945 2.02-3.584-.162-.611-1.242-.978-1.5-1.694.597 1.739-.68 2.964-2.12 3.578Zm-68.04 5.5c1.925.253 3.798.864 5.568-.503.342-.23-.824-2.223-.482-2.453-1.77 1.367-3.575.682-5.567.502-1.71-.194-3.672.192-4.067 2.124-.172.788.653 1.665.482 2.453.394-1.932 2.357-2.318 4.066-2.123ZM6.33 60.699c.022 1.77-.239 3.553 1.173 4.825.297.267 1.858-1.018 2.156-.75-1.486-1.339-1.15-3.055-1.313-4.817-.007-1.487-.593-3.226-2.37-3.346-.706.037-1.442.854-2.156.75 1.777.12 2.43 1.785 2.51 3.338Z" class="&lt;Path&gt;"/>
      <path fill="#DD4297" d="M43.943 40.6c-1.441-1.836-1.5-4.312-.109-6.154-.267.297-2.014-.603-2.207-.239-1.391 1.843-1.474 4.325-.033 6.162.304.409 2.044-.177 2.349.232Zm-19.74 48.36c-1.441-1.837-1.425-4.245-.034-6.088-.268.297-2.014-.603-2.282-.306a5.098 5.098 0 0 0 .041 6.23c.371.334 1.97-.245 2.274.164Z" class="&lt;Path&gt;"/>
      <path fill="#7358A4" fill-rule="evenodd" d="M47.74 22.034c-.343.23-.047 1.844-.456 2.148-2.267 1.322-5.477-.493-8.116-.852l.149.134c.4.9.362 2.884-.285 4.05-.454.803-.997 1.256-1.851 1.16-2.631-.218-1.901-3.867-1.068-5.539a6.84 6.84 0 0 0-1.374-.565c-2.222-.522-4.393-.055-6.237 1.245.476-.38.12-1.777.596-2.155 2.32-1.679 6.059-1.944 8.414-.226 2.825-1.492 7.35 2.45 10.227.6Zm-10.75 1.622c-.416.163-.753.488-1.011.973.289 1.472 1.834 2.595 2.987 1.615-.267-1.049-1.025-2-1.976-2.588Z" class="&lt;Compound Path&gt;" clip-rule="evenodd"/>
    </g>
  </g>
</svg>
