<svg xmlns="http://www.w3.org/2000/svg" width="48" height="71" fill="none" viewBox="0 0 48 71">
  <g class="3-1-ilus">
    <g class="&lt;Group&gt;">
      <g class="&lt;Group&gt;" opacity=".2">
        <g class="&lt;Group&gt;">
          <g class="&lt;Group&gt;">
            <path fill="#1C1C1A" d="M29.47 68.703c-.3 1.9-6.7 2.5-14.2 1.2-7.4-1.3-13.2-3.9-12.9-5.8.3-2 6.7-2.5 14.1-1.3 7.5 1.3 13.3 3.9 13 5.9Z" class="&lt;Path&gt;"/>
          </g>
        </g>
      </g>
      <g class="&lt;Group&gt;">
        <g class="&lt;Group&gt;">
          <g class="&lt;Group&gt;">
            <g class="&lt;Group&gt;">
              <path fill="#AB795A" stroke="#050505" stroke-linecap="round" stroke-linejoin="round" stroke-width=".5" d="M7.722 37.758c-.4-.7-1.4-3.2-2-4-.8-.9-1.9-.7-3-.1-1.4.7-2 1.7-1.6 3.3.2.6 1 2 1.4 2.8.5.8 1.7 2.6 3.9 1.6 2.1-1 1.6-2.9 1.3-3.6Z" class="&lt;Path&gt;"/>
              <path fill="#050505" d="M2.522 39.758c.5.8 1.7 2.6 3.9 1.6 2.1-1 1.5-3.2 1.1-3.9-1.6.1-3.1 1.1-5 2.3Z" class="&lt;Path&gt;" opacity=".2" style="mix-blend-mode:multiply"/>
            </g>
          </g>
          <g class="&lt;Group&gt;">
            <g class="&lt;Path&gt;">
              <path fill="#AB795A" d="m7.122 37.158.3-1.3c0-.5-.3-1.1-.7-1.1-.5-.1-.8.1-1 .3-.2.4-.3.7-.3.7"/>
              <path stroke="#050505" stroke-linecap="round" stroke-linejoin="round" stroke-width=".5" d="m7.122 37.158.3-1.3c0-.5-.3-1.1-.7-1.1-.5-.1-.8.1-1 .3-.2.4-.3.7-.3.7"/>
            </g>
          </g>
          <path fill="#050505" d="M5.622 35.058s-.5.2-.6.6c-.1.5-.2.9-.4 1-.3.1-1.5.9-1.8.7-.4-.2-1.6-1.7-.8-2.4.7-.8 2.6-1.8 3.3-1 .7.8.3 1.1.3 1.1Z" class="&lt;Path&gt;" opacity=".2" style="mix-blend-mode:multiply"/>
        </g>
      </g>
      <g class="&lt;Group&gt;">
        <path fill="#F5F6F7" stroke="#050505" stroke-linecap="round" stroke-linejoin="round" stroke-width=".5" d="M2.622 40.158c.8 1.4 1.4 2.5 2.4 4.1 1.7 2.9 3.6 4.3 3.6 4.3 1.6 1.3 3.7 1.3 5-.1l.4-.4c1.1-1.3 1.4-3.3-.4-5 0 0-1.8-1.7-2.9-3.6-.8-1.3-1.8-3-1.8-3l-6.3 3.7Z" class="&lt;Path&gt;"/>
        <path fill="#0A0C0F" d="M2.622 40.158c.8 1.4 1.4 2.5 2.4 4.1 1.7 2.9 3.6 4.3 3.6 4.3 1.6 1.3 3.7 1.3 5-.1l.4-.4c.133-.2.266-.367.4-.5h-.6s-2.4 1-4.9-2c-1.7-1.9-3.3-4.9-4.2-6.6l-2.1 1.2Z" class="&lt;Path&gt;" opacity=".3"/>
      </g>
      <g class="&lt;Group&gt;">
        <path fill="#C02F2D" stroke="#050505" stroke-linecap="round" stroke-linejoin="round" stroke-width=".5" d="M22.522 48.658c-.8 4.7 2.3 9.2 6.9 10.1 4.7.9 9.2-2.2 10.1-6.9.9-4.7-2.2-9.2-6.9-10.1-4.7-.9-9.2 2.2-10.1 6.9Z" class="&lt;Path&gt;"/>
        <g class="&lt;Group&gt;">
          <path fill="#050505" stroke="#050505" stroke-linecap="round" stroke-linejoin="round" stroke-width=".5" d="M8.922 63.858s-.3 1.6-2.6 1.8l10.3 1.9.4-2.2c.2-1.1.5-3.4-3.5-4.1-3.9-.7-3.9.6-4.6 2.6Z" class="&lt;Path&gt;"/>
        </g>
        <g class="&lt;Group&gt;">
          <g class="&lt;Group&gt;">
            <path fill="#2B6EB6" stroke="#050505" stroke-linecap="round" stroke-linejoin="round" stroke-width=".5" d="m19.922 56.758-2.4 8.9-9.5-1.5 1-9.1c.2-1.3.6-4.8 6.5-3.6 5.2 1.1 4.7 4.1 4.4 5.3Z" class="&lt;Path&gt;"/>
          </g>
          <path fill="#0A0C0F" d="M9.522 54.058c-.8 2.2-1.2 10.1-1.2 10.1l2.3.4 1.8-13.4c-.3.1-2 0-2.9 2.9Z" class="&lt;Path&gt;" opacity=".3"/>
        </g>
        <g class="&lt;Group&gt;">
          <path fill="#050505" stroke="#050505" stroke-linecap="round" stroke-linejoin="round" stroke-width=".5" d="M17.722 65.558s-.3 1.6-2.6 1.7l10.3 1.9.4-2.2c.2-1.1.5-3.3-3.6-4.1-3.8-.7-3.8.7-4.5 2.7Z" class="&lt;Path&gt;"/>
        </g>
        <g class="&lt;Group&gt;">
          <g class="&lt;Group&gt;">
            <path fill="#2B6EB6" stroke="#050505" stroke-linecap="round" stroke-linejoin="round" stroke-width=".5" d="m28.722 58.458-2.5 8.9-9.4-1.6.9-9c.2-1.3.6-4.9 6.5-3.6 5.2 1 4.7 4.1 4.5 5.3Z" class="&lt;Path&gt;"/>
          </g>
          <path fill="#0A0C0F" d="M18.222 55.758c-.7 2.1-1.2 10.1-1.2 10.1l2.3.3 1.8-13.3c-.3.1-1.9 0-2.9 2.9Z" class="&lt;Path&gt;" opacity=".3"/>
        </g>
        <g class="&lt;Group&gt;">
          <path fill="#F5F6F7" stroke="#050505" stroke-linecap="round" stroke-linejoin="round" stroke-width=".5" d="M21.922 41.458c-5.1-.5-6.9-.1-8.2 0-1.7.2-3.7 1.4-3.9 3.1-.1 1.6-.4 2.6-1.6 6.1-1.2 3.3-2.8 5.4-2.8 6 .4 1.9 7.5 4.9 9.7 5.4 6.1 1.4 9.4.2 13.6 1 3.3.6 3.9.2 4.3-.1 1.1-1.1-.6-17.9-.6-17.9s-.3-.6-1.5-1.3c-1.9-1.2-6.9-2.1-9-2.3Z" class="&lt;Path&gt;"/>
          <g class="&lt;Group&gt;">
            <path stroke="#050505" stroke-linecap="round" stroke-linejoin="round" stroke-width=".5" d="M23.422 56.358c-.2 2.3 1.1 3.6 2.9 4 1.7.3 3.2-.5 3.4-2.8l.2-2.4-6.4-1.2-.1 2.4Z" class="&lt;Path&gt;"/>
            <g class="&lt;Path&gt;">
              <path fill="#EE3D3B" d="m23.322 55.158 6.6 1.2Z"/>
              <path stroke="#050505" stroke-linejoin="round" stroke-width=".5" d="m23.322 55.158 6.6 1.2"/>
            </g>
          </g>
          <g class="&lt;Group&gt;">
            <path fill="#050505" d="M18.122 53.358c0 .4-.3.6-.7.6-.3-.1-.6-.5-.6-.8.1-.4.4-.6.7-.6.4.1.7.4.6.8Z" class="&lt;Path&gt;"/>
          </g>
          <g class="&lt;Group&gt;">
            <path fill="#050505" d="M17.422 56.158c-.1.4-.4.6-.8.6-.3-.1-.6-.4-.6-.8.1-.4.4-.6.8-.6.3.1.6.5.6.8Z" class="&lt;Path&gt;"/>
          </g>
          <g class="&lt;Group&gt;">
            <path fill="#050505" d="M16.322 58.958c0 .4-.3.6-.7.6-.3-.1-.6-.5-.6-.8.1-.4.4-.6.7-.6.4.1.7.4.6.8Z" class="&lt;Path&gt;"/>
          </g>
          <g class="&lt;Path&gt;">
            <path fill="#FEFEFE" d="M16.822 50.658s-.2 1.8-1.4 5.1-1.5 5.6-1.5 5.6"/>
            <path stroke="#050505" stroke-linecap="round" stroke-linejoin="round" stroke-width=".5" d="M16.822 50.658s-.2 1.8-1.4 5.1-1.5 5.6-1.5 5.6"/>
          </g>
          <path fill="#9FC8EA" d="m17.122 50.258-.5-.2-.3-5.2s0-3.4 5.2-2.7c4.7.6 1.6 4-.6 5.4-1.5.9-3.8 2.7-3.8 2.7Z" class="&lt;Path&gt;"/>
          <g class="Clip path group">
            <mask id="a" width="9" height="11" x="5" y="48" class="a" maskUnits="userSpaceOnUse" style="mask-type:luminance">
              <g class="cp169">
                <path fill="#fff" d="m9.212 48.328-3.58 8.13 5.05 1.61 2.9-7.3-4.37-2.44Z" class="Vector"/>
              </g>
            </mask>
            <g class="&lt;Clip Group&gt;" mask="url(#a)">
              <g class="&lt;Group&gt;">
                <path stroke="#050505" stroke-linecap="round" stroke-linejoin="round" stroke-width=".5" d="M3.122 51.058c-.6 2.1.4 3.7 2.1 4.4 1.7.7 3.4.2 4-1.9l.7-2.3-6.1-2.5-.7 2.3Z" class="&lt;Path&gt;"/>
                <g class="&lt;Path&gt;">
                  <path fill="#EE3D3B" d="m3.322 49.858 6.3 2.6Z"/>
                  <path stroke="#050505" stroke-linejoin="round" stroke-width=".5" d="m3.322 49.858 6.3 2.6"/>
                </g>
              </g>
            </g>
          </g>
          <path fill="#DFDFDF" d="M30.822 56.058s.1 2.1 0 3.6c-.2 1.5-.3 3.6-.3 3.6s2.3.5 2.7-1c.4-1.4 0-6.8 0-6.8s-1.7.9-2.4.6Zm-14.2-3.7c-.1.8.4 0 .7-.3.4-.4.5-.8.5-.8s3.3-.7 4.4-.8l-.3-.7s2.2-.1 2.7-.1c.4-.1.2-5.8 0-6.9 0 0-.7 2.5-2.1 3.7-1.4 1.2-4.3 2.6-4.8 3.3-.6.6-.8 1.4-1.1 2.6Z" class="&lt;Path&gt;" style="mix-blend-mode:multiply"/>
          <g class="&lt;Path&gt;">
            <path fill="#F5F6F7" d="M24.722 43.158c-.3 1.8-1.1 5.9-1.1 5.9l-4-.2.6 1.1-3.4.8.1-.7s2.2-2.2 3-2.6c.9-.4 3.7-2.5 4-4.8"/>
            <path stroke="#050505" stroke-linecap="round" stroke-linejoin="round" stroke-width=".5" d="M24.722 43.158c-.3 1.8-1.1 5.9-1.1 5.9l-4-.2.6 1.1-3.4.8.1-.7s2.2-2.2 3-2.6c.9-.4 3.7-2.5 4-4.8"/>
          </g>
          <path fill="#DFDFDF" d="M16.522 42.458s-3.2 2.4-4.4 5l1.8.6s-.8.2-.8.3c0 .2 2.1 1.9 2.4 2.3.4.4-.1 1.5.2 1.5.4 0 .2-1.5.6-1.4.3.1-.2-1.6-.2-1.6s-1.2-3-.5-4.2c.8-1.2.9-2.5.9-2.5Z" class="&lt;Path&gt;" style="mix-blend-mode:multiply"/>
          <g class="&lt;Path&gt;">
            <path fill="#F5F6F7" d="M16.922 41.958c-1.8 1.5-3.8 5.1-3.8 5.1l2.1.6-.7.5 2.2 2.7.2-1s-.6-2.3-.7-3.1c-.1-.8.4-3.2 1.4-4.6"/>
            <path stroke="#050505" stroke-linecap="round" stroke-linejoin="round" stroke-width=".5" d="M16.922 41.958c-1.8 1.5-3.8 5.1-3.8 5.1l2.1.6-.7.5 2.2 2.7.2-1s-.6-2.3-.7-3.1c-.1-.8.4-3.2 1.4-4.6"/>
          </g>
          <path fill="#DFDFDF" d="M16.522 51.558s-.7 1.9-1.3 3c-.5 1.2-.8 2.5-1.2 4-.4 1.4-.7 2.8-.7 2.8l.6-.2s1-3.4 1.6-5.4c.6-2 1-4.2 1-4.2Zm-10 4.4s2.4.4 3.3-2.1c.9-2.5.4-2.6.4-2.6s-.2.4-.6 1.6c-.4 1.1-.6 2.2-3.1 3.1Zm16.9-2v1.1l5 1.2s-3.8-.4-4.2-.4c-.3 0-.5 1.5-.3 2.5 0 0 1 2 2.5 2.2 1.5.2 3.1-.8 3.1-.8s-.9 1.6-3.2 1.4c-2.2-.2-3.9-2.1-3.8-4.4 0 0 .2.6.4.9.2.4-.1-3.5.5-3.7Z" class="&lt;Path&gt;" style="mix-blend-mode:multiply"/>
        </g>
        <path fill="#ED2D2F" stroke="#050505" stroke-linecap="round" stroke-linejoin="round" stroke-width=".5" d="M28.822 45.758c-4.7 3.3-1.1 10 2.7 9.7 7.5-.7 4.2-8.1 4.2-8.1s-1.6-4.2-6.9-1.6Zm-19-1.2c-.1 1.2-.3 2.2-1 4.3 0 0-.9 2.6 0 .1.9-2.4 7-7.5 7-7.5-.2-.2-.9.2-1.2-.1a4.62 4.62 0 0 1-.9.1c-1.7.2-3.7 1.4-3.9 3.1Z" class="&lt;Path&gt;"/>
        <path fill="#DFDFDF" d="M31.722 45.158s-2.7-.3-4 2.1c0 0 1.4-.5 2 1.2.7 1.7 0 3.4 1.1 4.7 1.1 1.3.6 2.4 0 2.4 0 0 .3.6 1.4.3 1.1-.4 1.6-.5 1.6-.5l1.7-1.3 1-2.2-1.1-5.7-3.2-1h-.5Zm-16.2-3.3s-4.8 6.5-5.6 7.3c-.7.8-.7 1.7-.7 1.7l-.9-.4.6-1.9 6.6-6.7Z" class="&lt;Path&gt;" style="mix-blend-mode:multiply"/>
        <g class="&lt;Group&gt;">
          <path fill="#AB795A" stroke="#050505" stroke-width=".5" d="M44.422 29.158c-2 10.6-8.8 21.1-23.3 18.7-17.1-2.8-17.4-11.9-15.5-22.5 2-10.6 12.3-17.5 22.9-15.6 10.7 2 17.8 8.8 15.9 19.4Z" class="&lt;Path&gt;"/>
          <g class="&lt;Group&gt;">
            <path fill="#DFDFDF" d="M44.422 29.158c1.9-10.6-5.2-17.4-15.9-19.4-5-.9-10 .2-14.1 2.7 0 .4-.1.6-.1.6s6.3 11.8 7.4 13.8c1.1 2.1 2.7 5.3 4.6 7.3 2 2 3.2 2.7 2.9 5 .066 0 .066 0 0 0 0 0-1.4 8.2-11.1 7.5 0 0 .2.3.6.8.733.133 1.533.267 2.4.4 14.5 2.4 21.3-8.1 23.3-18.7Z" class="&lt;Path&gt;" style="mix-blend-mode:multiply"/>
          </g>
        </g>
        <g class="&lt;Group&gt;">
          <path fill="#DFDFDF" d="M14.722 35.158s-1.2 1.6-2.6 1.3c-1.3-.2-1.3-2-1.3-2s.6 1 1.3 1.1c.6.1 2.6-.4 2.6-.4Z" class="&lt;Path&gt;" style="mix-blend-mode:multiply"/>
          <path stroke="#050505" stroke-linecap="round" stroke-linejoin="round" stroke-width=".5" d="m10.722 34.558.8.7c.3.3.8.4 1.2.3l2-.3" class="&lt;Path&gt;"/>
        </g>
        <path stroke="#050505" stroke-linecap="round" stroke-width=".5" d="M22.222 30.058s1-.3 1.6.2c.8.6 1.2 1.5 1.2 1.5m-16.3-4.2s-.9-.6-1.7-.4c-.9.2-1.6 1-1.6 1" class="&lt;Path&gt;"/>
        <path fill="#050505" d="M6.522 30.358c-.2.8.1 1.6.7 1.7.5.1 1.1-.5 1.2-1.3.2-.8-.1-1.6-.7-1.7-.5-.1-1.1.5-1.2 1.3Z" class="&lt;Path&gt;"/>
        <path fill="#FEFEFE" d="M8.022 29.758c0 .2-.1.3-.2.3-.1-.1-.2-.2-.2-.3.1-.2.2-.3.3-.3.1 0 .2.2.1.3Z" class="&lt;Path&gt;"/>
        <path fill="#FEFEFE" d="M8.022 29.758c0 .2-.1.3-.2.3-.1-.1-.2-.2-.2-.3.1-.2.2-.3.3-.3.1 0 .2.2.1.3Z" class="&lt;Path&gt;"/>
        <path fill="#050505" d="M23.522 33.458c-.2 1-.8 1.6-1.4 1.5-.7-.1-1-1-.8-1.9.1-.9.8-1.6 1.4-1.5.6.1.9 1 .8 1.9Z" class="&lt;Path&gt;"/>
        <path fill="#FEFEFE" d="M23.222 32.458c0 .2-.2.3-.3.2-.1 0-.2-.1-.2-.3.1-.2.2-.3.3-.3.2.1.2.2.2.4Z" class="&lt;Path&gt;"/>
        <g class="&lt;Group&gt;">
          <path fill="#050505" d="M38.122 11.158s-2.7-3.9-5.8-5.2c-3.1-1.3-3.4-.9-3.4-.9s4.5 1.1 6.8 5.9" class="&lt;Path&gt;"/>
          <path fill="#050505" d="M42.622 14.258s-2.2-1.8.2-3.4c0 0-1.9-.3-2.4.7-.1-1.4-.9-3.7-4.6-5.2 0 0 1.9 2.7-.3 2.8" class="&lt;Path&gt;"/>
        </g>
        <g class="&lt;Group&gt;">
          <path fill="#221E1F" d="M44.322 31.358s3.3-1.3.8 4.4c-1.3 2.8-5.1 6-5.1 6l4.3-10.4Z" class="&lt;Path&gt;"/>
          <path fill="#050505" d="M10.222 13.658s-6.4 3.4-8.7 10.5c-.1.3 1.6-2.4 4.6-4.5m32.7-8.7s11.1 5.7 8.5 18.6c0 0-1.3-8.4-8.5-18.6Z" class="&lt;Path&gt;"/>
          <path fill="#050505" d="M34.322 20.658c-.4-.1.4 11.9 5.8 13.2 1.8-4.1-.2-8.5-.2-8.5 1.9 3.7 1.7 7.5 1.2 8.7.9.3 3.5.8 5.1.6 0 0 6-22.8-19.1-26.8 0 0-14.9-3.5-24.5 16.1 0 0 .2.8 1.7 2.4 1.1 1.2 3.9-8.2 5.3-7.5" class="&lt;Path&gt;"/>
          <path fill="#050505" d="M24.322 7.658c-2.4-.1-11.9-.7-21 10.3 0 0 23.5-10.2 21-10.3Z" class="&lt;Path&gt;"/>
          <path fill="#050505" d="M10.822 11.358s16.9-12.6 30.7 1.7c13.7 14.3-30.7-1.7-30.7-1.7Zm35.7 22s-.5 4.2-3.1 7.1c-2.6 2.9-3.2 3-3.2 3s1.5-1.5 2.4-6.8m-4.8 8.2s-1 .5-2.1.1c-.4-.1 1.2-1.4 1.2-1.4l.9 1.3Z" class="&lt;Path&gt;"/>
          <path fill="#050505" d="M21.122 9.158s-10.5-2.6-18 15.3c0 0-.2.1.8 1.4.8 1 .8 1.1 1.7 1.7.4-2.3 1.3-3.4 5.2-6.5 0 0-4.1 3.5-3.8 7.1 9.8 5 16.2-1.1 16.2-1.1-.3-.1-.2 5.8 5.4 5.7 1.4-3.8 1-8.4 1-8.4 1.1 3.4 1 5.8.4 8.5.6.3 2.6 0 3.7-.3 0 0 5.1-20.7-12.6-23.4Z" class="&lt;Path&gt;"/>
          <path fill="#050505" d="M33.722 32.558s5.6 1.3 2.5 11.8l8-6.2s5.8-10.6-.4-19.9c-6.1-9.2-7.1-3.2-7.1-3.2l-4.3 1.6 1.3 15.9Z" class="&lt;Path&gt;"/>
          <path fill="#050505" d="M30.022 32.858s5.7 3.3 6.1 10.9c0 1.1 1.7 1.1 1.7 1.1s4.1-2.8 5.1-6.1-6.6-9.2-6.6-9.2l-6.3 3.3Z" class="&lt;Path&gt;"/>
        </g>
      </g>
      <g class="&lt;Group&gt;">
        <g class="&lt;Group&gt;">
          <g class="&lt;Path&gt;">
            <path fill="#AB795A" d="m33.122 40.358 1.6-1.2c.3-.3.4-.8.1-1.2-.3-.3-.6-.3-.8-.2-.4.1-.9.4-.9.4"/>
            <path stroke="#050505" stroke-linecap="round" stroke-linejoin="round" stroke-width=".5" d="m33.122 40.358 1.6-1.2c.3-.3.4-.8.1-1.2-.3-.3-.6-.3-.8-.2-.4.1-.9.4-.9.4"/>
          </g>
        </g>
        <g class="&lt;Group&gt;">
          <g class="&lt;Group&gt;">
            <path fill="#AB795A" stroke="#050505" stroke-linecap="round" stroke-linejoin="round" stroke-width=".5" d="M33.722 40.458c.1-.7.4-2.2-.3-3.4-.5-1.1-1.6-1.7-2.8-1.6-1.3.1-2.5 1.4-2.1 2.2.1.4.2.8.3 1.3.1.5.1 1.3.1 1.5.1.8.7 2.4 2.4 2.2 2-.2 2.4-2.2 2.4-2.2Z" class="&lt;Path&gt;"/>
          </g>
        </g>
        <path fill="#DFDFDF" d="M33.822 38.958s-.7 1.4-2.6 1.2c-1.9-.2-2.4-.6-2.4-.6s-.4 1.8.9 2.6 3.2.7 3.6-.5c.5-1.2.5-2.7.5-2.7Z" class="&lt;Path&gt;" style="mix-blend-mode:multiply"/>
      </g>
      <g class="&lt;Group&gt;">
        <path fill="#F5F6F7" stroke="#050505" stroke-linecap="round" stroke-linejoin="round" stroke-width=".5" d="M35.422 40.058c.1 1.7.2 2.9.4 4.9.3 3.3-.5 5.6-.5 5.6-.5 2.1-2.3 3.3-4.2 2.9l-.5-.1c-1.7-.4-3.1-1.8-2.6-4.3 0 0 .4-2.5.2-4.8-.1-1.6-.3-3.6-.3-3.6l7.5-.6Z" class="&lt;Path&gt;"/>
        <path fill="#0A0C0F" d="M35.422 40.058c.1 1.7.2 2.9.4 4.9.3 3.3-.5 5.6-.5 5.6-.5 2.1-2.3 3.3-4.2 2.9l-.5-.1-.6-.2c.3-.2.5-.3.5-.3s2.5-.7 2.9-4.6c.2-2.6-.2-6-.5-8l2.5-.2Z" class="&lt;Path&gt;" opacity=".3"/>
      </g>
      <path fill="#050505" d="M18.722 39.358s-2.5.4-3.7.1c-1.3-.3-1.6 1.3-.2 2.8 1.1 1.1 3.8 3.3 8.1 2.3 4.4-1 5.1-5.3 3.1-6.8-2.1-1.5-4.5.8-7.3 1.6Z" class="&lt;Path&gt;"/>
    </g>
  </g>
</svg>
