<svg xmlns="http://www.w3.org/2000/svg" width="106" height="90" fill="none" viewBox="0 0 106 90">
  <g class="3-21-ilus">
    <g class="Group 113">
      <g class="&lt;Group&gt;" opacity=".2">
        <g class="&lt;Group&gt;">
          <g class="&lt;Group&gt;">
            <path fill="#1C1C1A" d="M75.87 84.103c-.104 3.226-7.783 5.47-17.144 4.768-9.362-.56-16.83-3.646-16.725-7.012.105-3.226 7.784-5.33 17.145-4.768 9.362.56 16.83 3.786 16.725 7.012Z" class="&lt;Path&gt;"/>
          </g>
        </g>
      </g>
      <g class="&lt;Group&gt;">
        <g class="&lt;Group&gt;">
          <g class="&lt;Group&gt;">
            <g class="&lt;Group&gt;">
              <g class="&lt;Group&gt;">
                <g class="&lt;Group&gt;">
                  <g class="&lt;Group&gt;">
                    <path fill="#7A4733" d="M65.8 69.073c.2 1 1 1.8 1.9 1.7.8-.1 1.3-1 1.1-2-.1-1.1-1-1.8-1.8-1.8-.8.1-1.3 1-1.2 2.1Z" class="&lt;Path&gt;"/>
                    <path fill="#8A8069" d="M66.5 67.173c-.2.4-.3.9-.2 1.4.2 1 1 1.8 1.8 1.7.2 0 .367-.066.5-.2-.2.4-.5.7-.9.7-.9.1-1.7-.7-1.9-1.7-.1-.8.2-1.6.7-1.9Z" class="&lt;Path&gt;" opacity=".3"/>
                  </g>
                  <g class="&lt;Group&gt;">
                    <path fill="#7A4733" d="M68.8 83.273c.2 1 1 1.8 1.8 1.7.9-.1 1.4-1 1.2-2-.2-1.1-1-1.8-1.8-1.8-.8.1-1.3 1-1.2 2.1Z" class="&lt;Path&gt;"/>
                    <path fill="#8A8069" d="M69.5 81.373c-.2.4-.3.9-.2 1.4.2 1 1 1.8 1.8 1.7.2 0 .367-.033.5-.1-.2.3-.5.6-1 .6-.8.1-1.6-.7-1.8-1.7-.1-.8.2-1.6.7-1.9Z" class="&lt;Path&gt;" opacity=".3"/>
                  </g>
                  <path fill="#7A4733" d="m69.4 83.373 1.9-.2c.7-.1 1.2-.6 1.1-1.1l-2.7-12.4c-.1-.6-.7-1-1.4-.9l-2 .2c-.7.1-1.1.6-1 1.1l2.6 12.4c.1.6.8 1 1.5.9Z" class="&lt;Path&gt;"/>
                  <path fill="#8A8069" d="M65.8 69.073c-.067.2-.1.367-.1.5l2.7 12.4c.1.6.7 1 1.4.9l2-.2c.2 0 .4-.033.6-.1-.2.3-.6.6-1.1.6l-1.9.2c-.7.1-1.4-.3-1.5-.9l-2.6-12.4c-.1-.4.1-.7.5-1Z" class="&lt;Path&gt;" opacity=".3"/>
                </g>
                <path fill="#9E5D41" d="M67.8 77.373c0 .5.4.9.9.9.5.1.9-.3.9-.8.1-.5-.3-1-.8-1s-1 .4-1 .9Z" class="&lt;Path&gt;"/>
                <path fill="#7A4733" d="M68.7 77.773c.4 0 .8-.2.9-.6v.3c0 .5-.4.9-.9.8-.5 0-.9-.4-.9-.9 0-.067.033-.166.1-.3.1.4.4.7.8.7Z" class="&lt;Path&gt;" opacity=".5"/>
                <g class="&lt;Group&gt;">
                  <g class="&lt;Group&gt;">
                    <path fill="#7A4733" d="M49.3 81.073c.2-.9 1-1.5 1.7-1.4.7.1 1.1 1 .9 1.8-.2.9-1 1.6-1.7 1.4-.7-.1-1.1-.9-.9-1.8Z" class="&lt;Path&gt;"/>
                    <path fill="#8A8069" d="M49.8 82.773c-.2-.4-.2-.8-.1-1.2.2-.9 1-1.6 1.7-1.4.133 0 .267.033.4.1-.2-.3-.4-.5-.8-.6-.7-.1-1.5.5-1.7 1.4-.2.7.1 1.4.5 1.7Z" class="&lt;Path&gt;" opacity=".3"/>
                  </g>
                  <g class="&lt;Group&gt;">
                    <path fill="#7A4733" d="M52.8 69.273c.2-.9 1-1.5 1.7-1.4.7.1 1.1.9.9 1.8-.2.9-1 1.6-1.7 1.4-.7-.1-1.1-.9-.9-1.8Z" class="&lt;Path&gt;"/>
                    <path fill="#8A8069" d="M53.3 70.973c-.2-.4-.2-.8-.1-1.2.2-.9 1-1.6 1.7-1.4.133 0 .267.033.4.1-.2-.3-.4-.5-.8-.6-.7-.1-1.5.5-1.7 1.4-.2.7 0 1.4.5 1.7Z" class="&lt;Path&gt;" opacity=".3"/>
                  </g>
                  <path fill="#7A4733" d="m53.3 69.173 1.7.3c.6.1 1 .6.9 1.1l-3.2 10.2c-.1.5-.6.8-1.2.7l-1.8-.3c-.6-.1-.9-.6-.8-1l3.1-10.3c.1-.5.7-.8 1.3-.7Z" class="&lt;Path&gt;"/>
                  <path fill="#8A8069" d="M49.3 80.973a.425.425 0 0 1 0-.4l3.1-10.2c.1-.5.7-.8 1.3-.7l1.7.3c.133 0 .267.067.4.2-.1-.4-.4-.6-.8-.7l-1.7-.3c-.6-.1-1.2.2-1.3.7l-3.1 10.3c-.1.3.1.6.4.8Z" class="&lt;Path&gt;" opacity=".3"/>
                </g>
                <path fill="#8A8069" d="M50.7 76.773c0 .5.4.9.9.9s.9-.4.9-.9-.4-.9-.9-.9-.9.4-.9.9Z" class="&lt;Path&gt;" opacity=".3"/>
                <path fill="#050505" d="M51.6 77.173c.4 0 .8-.3.9-.6v.2c0 .5-.4.9-.9.9s-.9-.4-.9-.9v-.3c.1.4.5.7.9.7Z" class="&lt;Path&gt;" opacity=".1"/>
                <g class="&lt;Group&gt;">
                  <path fill="#7A4733" d="m54.1 76.473 11 .4c.5 0 .9-.3.9-.8s-.4-.9-.8-1l-11-.4c-.5 0-.9.4-.9.9s.3.9.8.9Z" class="&lt;Path&gt;"/>
                  <path fill="#8A8069" d="m53.9 75.773 11.5.4c.267 0 .467-.067.6-.2v.1c0 .5-.4.8-.9.8l-11-.4c-.5 0-.8-.4-.8-.9.133.134.333.2.6.2Z" class="&lt;Path&gt;" opacity=".3"/>
                </g>
                <path fill="#050505" d="M65.2 69.973v-.1c.067 0 .1-.033.1-.1v-.1c0-.067.033-.1.1-.1 0-.133.033-.233.1-.3.133-.067.233-.133.3-.2v-.6c0-.133.033-.233.1-.3v-.3c.067-.133.167-.267.3-.4.2-.267.467-.433.8-.5.8 0 1.7.7 1.8 1.8.5.1.9.5.9.9l.2.8c.1.5-.3 1-.8 1.2-.733.133-1.567.267-2.5.4-.5.1-1-.3-1.1-.8l-.2-1.2-.1-.1Zm-12.6-.7h.1l.2-.2c.067-.2.167-.367.3-.5.3-.5.8-.8 1.3-.7h.2c0 .067.033.1.1.1h.1c0 .067.033.1.1.1.4.3.5.9.4 1.6.067 0 .1.033.1.1h.1l.1.1.1.1v.2c.067.133.1.267.1.4l-.5 1.4c-.1.1-.2.2-.4.2-1.2-.1-2.1-.3-3.1-.5-.2 0-.3-.2-.3-.4l.4-1.4c.1-.3.3-.5.6-.6Z" class="&lt;Path&gt;" opacity=".2"/>
                <g class="&lt;Group&gt;">
                  <g class="&lt;Group&gt;">
                    <path fill="#9E5D41" d="M63.3 70.873c.1 1.2 1.1 2.1 2 2 .9-.1 1.5-1.1 1.3-2.3-.2-1.2-1.1-2-2-1.9-1 .1-1.5 1.1-1.3 2.2Z" class="&lt;Path&gt;"/>
                    <path fill="#7A4733" d="M64 68.773c-.2.5-.3 1-.2 1.6.2 1.1 1.1 2 2 1.9.2 0 .4-.066.6-.2-.3.4-.7.7-1.1.8-.9.1-1.9-.8-2-2-.2-.9.1-1.7.7-2.1Z" class="&lt;Path&gt;" opacity=".5"/>
                  </g>
                  <g class="&lt;Group&gt;">
                    <path fill="#9E5D41" d="M66.6 87.073c.2 1.2 1.1 2.1 2 2 .9-.1 1.5-1.1 1.3-2.3-.2-1.1-1.1-2-2-1.9-.9.1-1.5 1.1-1.3 2.2Z" class="&lt;Path&gt;"/>
                    <path fill="#7A4733" d="M67.3 85.073c-.2.4-.3.9-.2 1.5.2 1.1 1.1 2 2 1.9.2 0 .4-.067.6-.2-.3.5-.6.7-1.1.8-.9.1-1.8-.8-2-2-.2-.9.1-1.7.7-2Z" class="&lt;Path&gt;" opacity=".5"/>
                  </g>
                  <path fill="#9E5D41" d="m67.2 87.273 2.2-.2c.8-.1 1.3-.7 1.2-1.3l-3-14.2c-.1-.6-.8-1.1-1.6-1l-2.2.2c-.8.1-1.3.7-1.2 1.3l3 14.2c.1.6.8 1.1 1.6 1Z" class="&lt;Path&gt;"/>
                  <path fill="#FDFCEB" d="M67 76.473c.2-.1.4-.2.4-.4l-.5-2.6c0-.1-.2-.3-.4-.3-.3.1-.4.2-.4.4l.4 2.6c.1.1.3.3.5.3Z" class="&lt;Path&gt;" opacity=".3"/>
                  <path fill="#7A4733" d="M63.2 70.973c-.067.2-.1.367-.1.5l3 14.2c.1.7.8 1.1 1.6 1l2.2-.2c.267 0 .467-.067.6-.2-.1.4-.6.7-1.1.8l-2.2.2c-.8.1-1.5-.4-1.6-1l-3-14.2c-.1-.4.2-.9.6-1.1Z" class="&lt;Path&gt;" opacity=".5"/>
                  <path fill="#050505" d="M62.6 71.873v-.3h.1v-.1c.067-.133.133-.233.2-.3a1.16 1.16 0 0 1 .3-.2h.1v-.1c-.067-.067-.1-.133-.1-.2v-.6l.1-.1v-.2c0-.067.033-.1.1-.1v-.1c0-.066.033-.167.1-.3h.1v-.1c.3-.3.6-.5 1-.5.9-.1 1.8.7 2 1.9v.1c.5.1.9.4 1 .9l.1.8c.1.5-.2 1-.7 1-1 .2-2.1.333-3.3.4-.5 0-.9-.3-.9-.8l-.2-.9v-.2Z" class="&lt;Path&gt;" opacity=".1"/>
                </g>
                <g class="&lt;Group&gt;">
                  <path fill="#9E5D41" d="m51.1 80.373 13.8.5c.6 0 1.2-.5 1.2-1.1 0-.6-.5-1.1-1.1-1.1l-13.8-.6c-.6 0-1.2.5-1.2 1.1 0 .6.5 1.2 1.1 1.2Z" class="&lt;Path&gt;"/>
                  <path fill="#FDFCEB" d="m58.3 79.273 3.3.1c.1 0 .2-.1.2-.2 0-.2-.1-.3-.2-.3l-3.3-.1c-.1 0-.2.1-.2.2 0 .2.1.3.2.3Z" class="&lt;Path&gt;" opacity=".3"/>
                  <path fill="#7A4733" d="m50.7 79.473 14.6.5c.333 0 .6-.067.8-.2 0 .6-.6 1.1-1.2 1.1l-13.8-.5c-.6 0-1.1-.6-1.1-1.2.2.2.433.3.7.3Z" class="&lt;Path&gt;" opacity=".5"/>
                </g>
                <g class="&lt;Group&gt;">
                  <g class="&lt;Group&gt;">
                    <path fill="#9E5D41" d="M45.5 85.373c.3-1.1 1.2-1.8 2.1-1.7.8.2 1.3 1.2 1 2.2-.2 1.1-1.1 1.9-2 1.7-.9-.1-1.4-1.1-1.1-2.2Z" class="&lt;Path&gt;"/>
                    <path fill="#7A4733" d="M46.1 87.373c-.2-.4-.3-.9-.1-1.4.2-1.1 1.2-1.9 2-1.7.2 0 .367.067.5.2-.2-.4-.5-.7-.9-.8-.9-.1-1.8.6-2.1 1.7-.2.9.1 1.6.6 2Z" class="&lt;Path&gt;" opacity=".5"/>
                  </g>
                  <g class="&lt;Group&gt;">
                    <path fill="#9E5D41" d="M49.8 70.473c.2-1.1 1.1-1.8 2-1.7.9.2 1.3 1.2 1.1 2.3-.3 1-1.2 1.8-2.1 1.7-.8-.2-1.3-1.2-1-2.3Z" class="&lt;Path&gt;"/>
                    <path fill="#7A4733" d="M50.3 72.473c-.2-.4-.2-.9-.1-1.4.3-1.1 1.2-1.9 2.1-1.7.133 0 .3.067.5.2-.2-.4-.6-.7-1-.8-.9-.1-1.8.6-2 1.7-.3.9 0 1.7.5 2Z" class="&lt;Path&gt;" opacity=".5"/>
                  </g>
                  <path fill="#9E5D41" d="m50.3 70.373 2.1.4c.7.1 1.2.7 1 1.3l-3.7 13c-.2.6-.9.9-1.6.8l-2.1-.4c-.7-.1-1.2-.7-1-1.2l3.8-13c.1-.6.8-1 1.5-.9Z" class="&lt;Path&gt;"/>
                  <path fill="#FDFCEB" d="M51.4 72.373c.2.1.4.3.3.5l-.6 2.6c-.1.2-.3.4-.5.3-.3 0-.5-.2-.4-.4l.7-2.7c0-.2.2-.3.5-.3Z" class="&lt;Path&gt;" opacity=".3"/>
                  <path fill="#7A4733" d="M45.5 85.273c-.067-.133-.1-.3-.1-.5l3.8-13c.2-.6.9-.9 1.6-.8l2.1.4c.2 0 .367.067.5.2-.1-.4-.5-.7-1-.8l-2.1-.4c-.7-.1-1.4.3-1.5.9l-3.8 13c-.1.4.1.8.5 1Z" class="&lt;Path&gt;" opacity=".5"/>
                  <path fill="#050505" d="M48.8 72.373c-.2-.1-.2-.3-.2-.4l.2-.7c0-.133.033-.233.1-.3.2-.3.4-.5.8-.5 0-.067.033-.1.1-.1v-.1c.067-.133.133-.233.2-.3 0-.067.033-.133.1-.2.2-.333.433-.6.7-.8.2-.133.433-.2.7-.2h.3c.067 0 .133.033.2.1h.1l.1.1h.1c0 .067.033.1.1.1.4.4.7 1.1.5 1.9.067 0 .1.034.1.1h.1l.2.2c.133.2.167.467.1.8l-.2.9c0 .2-.2.3-.4.3-1.5-.3-2.9-.6-4-.9Z" class="&lt;Path&gt;" opacity=".1"/>
                </g>
                <g class="&lt;Group&gt;">
                  <path fill="#BB6C4D" d="M46.5 65.073c.1-1.8 6.1-3 13.4-2.8 7.3.3 13.2 2 13.2 3.8-.1.4-.1 1.9-.1 2.3-.1 1.8-6.1 3-13.4 2.8-7.4-.3-13.3-2-13.2-3.8 0-.4.1-1.9.1-2.3Z" class="&lt;Path&gt;"/>
                  <path fill="#7A4733" d="m52.2 62.573-.3 7.7c-3.3-.7-5.5-1.8-5.5-2.9l.1-2.3c0-1.1 2.3-2 5.7-2.5Z" class="&lt;Path&gt;" opacity=".5"/>
                  <path fill="#FDFCEB" d="M71.7 68.473v.6c0 .2-.2.4-.4.4-.4.1-.7-.1-.7-.4v-.7c.1-.2.3-.4.6-.4.3.1.5.2.5.5Z" class="&lt;Path&gt;" opacity=".3"/>
                  <path fill="#D1A488" d="M46.5 65.073c-.1 1.8 5.8 3.5 13.2 3.8 7.3.2 13.3-1 13.4-2.8 0-1.8-5.9-3.5-13.2-3.8-7.3-.2-13.3 1-13.4 2.8Z" class="&lt;Path&gt;"/>
                  <path fill="#C9865A" d="M46.8 64.873c0 1.7 5.7 3.2 12.9 3.5 7.1.2 13-.9 13-2.5.1-1.7-5.7-3.2-12.8-3.5-7.2-.2-13 .9-13.1 2.5Z" class="&lt;Path&gt;"/>
                </g>
              </g>
            </g>
            <path fill="#050505" d="M46.9 65.273c0 1.3 5.6 2.5 12.6 2.6 7 .1 12.7-.8 12.7-2.1.1-1.3-5.6-2.4-12.6-2.6-7-.1-12.7.8-12.7 2.1Z" class="&lt;Path&gt;" opacity=".3"/>
            <g class="&lt;Group&gt;">
              <g class="&lt;Group&gt;">
                <g class="&lt;Group&gt;">
                  <path fill="#C02F2D" d="M46 51.773c-.1 3.4 2.5 6.2 5.9 6.3l15.5.6c3.3.1 6.1-2.5 6.3-5.9l.3-9c.1-3.4-2.5-6.2-5.9-6.3l-15.4-.6c-3.4-.1-6.2 2.5-6.4 5.9l-.3 9Z" class="&lt;Path&gt;"/>
                  <path fill="#050505" fill-rule="evenodd" d="m45.8 51.773.3-9c.2-3.5 3.1-6.2 6.6-6.1l15.4.6c3.5.1 6.3 3 6.1 6.5l-.3 9c-.1 3.5-3.1 6.2-6.6 6.1l-15.4-.6c-3.5-.1-6.2-3-6.1-6.5Zm6.9-14.7c-3.3-.1-6 2.5-6.1 5.7l-.4 9c-.1 3.3 2.5 6 5.7 6.1l15.5.6c3.2.1 5.9-2.4 6-5.7l.4-9c.1-3.2-2.4-6-5.7-6.1l-15.4-.6Z" class="&lt;Compound Path&gt;" clip-rule="evenodd"/>
                </g>
                <g class="&lt;Group&gt;">
                  <g class="&lt;Group&gt;">
                    <g class="&lt;Group&gt;">
                      <g class="&lt;Group&gt;">
                        <path fill="#AB795A" d="M41.5 45.573c-.6-.2-2-.6-2.7-1.7-.7-.9-.7-2.1-.1-3 .7-1.1 2.3-1.6 2.8-.9.2.3.5.5.9.8.4.3 1.1.7 1.3.8.6.4 1.7 1.6.8 3-1.1 1.6-3 1-3 1Z" class="&lt;Path&gt;"/>
                        <path fill="#050505" fill-rule="evenodd" d="M40.7 39.473c.4-.1.8.1 1 .4.2.2.4.4.8.7l.1.1c.2.1.6.4.9.5.133.133.233.2.3.2.8.6 1.8 1.9.9 3.3-1.2 1.7-3.2 1.1-3.2 1.1-.7-.2-2.1-.6-2.9-1.8-.7-1-.8-2.3-.1-3.3 0-.067.033-.133.1-.2.5-.6 1.3-1 2.1-1Zm3.6 4.9c.8-1.2-.3-2.3-.8-2.6 0-.067-.067-.133-.2-.2-.3-.1-.7-.4-1-.6h-.1l-.9-.9c-.1-.2-.4-.2-.6-.2-.6 0-1.4.4-1.9 1.1-.5.8-.5 1.9.2 2.8.6 1 2 1.4 2.6 1.6.1 0 1.5.5 2.5-.7.067-.133.133-.233.2-.3Z" class="&lt;Compound Path&gt;" clip-rule="evenodd"/>
                      </g>
                    </g>
                  </g>
                  <g class="&lt;Group&gt;">
                    <g class="&lt;Group&gt;">
                      <path fill="#AB795A" d="M43.5 42.173v-1.8c0-.4-.4-.8-.8-.8s-.6.3-.7.5c-.1.4-.1.9-.1.9" class="&lt;Path&gt;"/>
                      <path fill="#050505" d="m42 39.773-.2.2c-.1.4-.1.9-.1 1 0 .1.1.2.2.2s.2-.1.2-.2c0 0 0-.5.2-.8 0-.1.1-.3.5-.4.2 0 .5.3.5.6v1.8c0 .1.1.2.2.2.2 0 .3-.1.3-.2v-1.8c-.1-.6-.6-1-1.1-1-.3 0-.6.2-.7.4Z" class="&lt;Path&gt;"/>
                    </g>
                  </g>
                  <path fill="#050505" d="M40.2 45.373s1.6-.4 2.3-2.1c.6-1.8.5-2.3.5-2.3s1.7.4 1.8 1.9c.1 1.4-.8 3-2 2.8-1.2-.1-2.6-.3-2.6-.3Z" class="&lt;Path&gt;" opacity=".2" style="mix-blend-mode:multiply"/>
                </g>
                <g class="&lt;Group&gt;">
                  <g class="&lt;Group&gt;">
                    <g class="&lt;Group&gt;">
                      <path fill="#F5F6F7" d="M52 49.373c-2 3.1-4.6 1.3-4.6 1.3l-7.1-4.3 4.2-6.4 7 4.7s2.7 1.3.5 4.7Z" class="&lt;Path&gt;"/>
                      <path fill="#050505" fill-rule="evenodd" d="M40.1 46.373v-.1l4.2-6.4c.1-.1.2-.1.3-.1l7 4.7c.2 0 1.1.6 1.4 1.7.267 1 0 2.1-.8 3.3-.667 1.067-1.5 1.7-2.5 1.9-1.2.3-2.3-.4-2.4-.5l-7.1-4.3c-.067-.066-.1-.133-.1-.2Zm4.5-6.1-4 6 7 4.3s.9.6 2.1.4c.8-.2 1.5-.767 2.1-1.7.733-1.133 1-2.133.8-3-.3-1-1.2-1.4-1.2-1.4v-.1l-6.8-4.5Z" class="&lt;Compound Path&gt;" clip-rule="evenodd"/>
                    </g>
                  </g>
                </g>
                <g class="&lt;Group&gt;">
                  <g class="&lt;Group&gt;">
                    <path fill="#050505" d="M69.1 63.773s-.1 1.5 1.9 2.1l-9.8-.3.1-2.1c.1-1.1.2-3.2 4.1-3.1 3.7.1 3.4 1.4 3.7 3.4Z" class="&lt;Path&gt;"/>
                    <path fill="#050505" fill-rule="evenodd" d="m60.8 65.473.1-2v-.1c.1-1.1.2-3.6 4.5-3.4 1.7 0 2.7.3 3.3.9.6.6.6 1.4.7 2.2.067.2.1.4.1.6v.1c0 .1 0 1.2 1.7 1.7.2.1.3.3.3.5-.1.2-.3.4-.5.4l-9.8-.4c-.2 0-.4-.2-.4-.5Zm7.8-1.7c0-.2-.033-.4-.1-.6 0-.7-.1-1.3-.5-1.7-.4-.4-1.2-.6-2.6-.6-1.533-.067-2.567.233-3.1.9-.4.5-.5 1.2-.5 1.7l-.1 1.6 7.6.3c-.6-.7-.7-1.4-.7-1.6Z" class="&lt;Compound Path&gt;" clip-rule="evenodd"/>
                  </g>
                </g>
                <g class="&lt;Group&gt;">
                  <g class="&lt;Group&gt;">
                    <g class="&lt;Group&gt;">
                      <g class="&lt;Group&gt;">
                        <path fill="#2B6EB6" d="m59.7 55.573 1 8.5 9-.2.3-8.5c0-1.2.1-4.6-5.5-4.2-5 .3-4.9 3.2-4.8 4.4Z" class="&lt;Path&gt;"/>
                        <path fill="#050505" fill-rule="evenodd" d="m60.5 64.173-1.1-8.6c0-1.1-.2-4.3 5.1-4.6 2.133-.133 3.7.233 4.7 1.1 1.1 1.1 1 2.6 1 3.3l-.3 8.5c0 .1-.1.2-.2.2l-9 .3c-.1 0-.2-.1-.2-.2Zm9.3-8.8c0-.7 0-2-.9-2.9-.867-.867-2.333-1.233-4.4-1.1-4.8.3-4.7 3.1-4.6 4.1l1 8.4 8.6-.2.3-8.3Z" class="&lt;Compound Path&gt;" clip-rule="evenodd"/>
                      </g>
                    </g>
                  </g>
                  <path fill="#0A0C0F" d="M67.4 51.373c2.7.8 2.6 3.1 2.6 4l-.3 8.5-2.4.1.1-12.6Z" class="&lt;Path&gt;" opacity=".3"/>
                </g>
                <g class="&lt;Group&gt;">
                  <g class="&lt;Group&gt;">
                    <path fill="#050505" d="M50.4 63.073s0 1.5-2.1 2l9.8.3.1-2c0-1.1 0-3.3-3.9-3.4-3.7-.1-3.5 1.1-3.9 3.1Z" class="&lt;Path&gt;"/>
                    <path fill="#050505" fill-rule="evenodd" d="M47.9 65.073c-.1-.2.1-.4.3-.5 1.7-.3 1.8-1.4 1.8-1.5v-.1c.067-.2.1-.4.1-.6.2-.8.3-1.6.9-2.1.6-.6 1.7-.8 3.3-.7 4.3.1 4.3 2.6 4.3 3.7v.1l-.1 2.1c0 .2-.2.4-.4.4l-9.8-.4c-.2 0-.4-.2-.4-.4Zm9.8-1.7v-.1c0-.5 0-1.2-.4-1.7-.467-.733-1.467-1.133-3-1.2-1.4 0-2.3.2-2.7.5-.4.4-.5.9-.6 1.7-.067.2-.1.4-.1.6 0 .1-.2.9-.8 1.5l7.6.3v-1.6Z" class="&lt;Compound Path&gt;" clip-rule="evenodd"/>
                  </g>
                </g>
                <g class="&lt;Group&gt;">
                  <g class="&lt;Group&gt;">
                    <g class="&lt;Group&gt;">
                      <path fill="#2B6EB6" d="m60.4 55.573-1.7 8.5-8.9-.9.3-8.5c.1-1.2.2-4.6 5.8-3.8 4.9.7 4.7 3.5 4.5 4.7Z" class="&lt;Path&gt;"/>
                      <path fill="#050505" fill-rule="evenodd" d="m58.7 64.273-8.9-.9c-.2 0-.2-.1-.2-.2l.3-8.5v-.1c0-.7.1-2.1 1.3-3.1 1-.867 2.567-1.133 4.7-.8 5.3.7 4.9 3.9 4.7 4.9l-1.7 8.5c0 .1-.1.2-.2.2Zm-2.8-13.2c-2.067-.267-3.533-.033-4.4.7-1.1.9-1.1 2.2-1.2 2.9l-.3 8.3 8.5.8 1.7-8.2c.1-1.1.5-3.8-4.3-4.5Z" class="&lt;Compound Path&gt;" clip-rule="evenodd"/>
                    </g>
                    <path fill="#0A0C0F" d="m53 50.873-.8 12.5h-.1l-2.3-.2.3-8.5c0-1 .2-3.2 2.9-3.8Z" class="&lt;Path&gt;" opacity=".3"/>
                  </g>
                </g>
                <g class="&lt;Group&gt;">
                  <g class="&lt;Group&gt;">
                    <g class="&lt;Group&gt;">
                      <g class="&lt;Group&gt;">
                        <g class="&lt;Group&gt;">
                          <path fill="#AB795A" d="M78 54.773c.2.6.7 2 .2 3.2-.4 1.1-1.3 1.8-2.4 1.8-1.4.1-2.6-1-2.4-1.8.2-.4.2-.8.2-1.2 0-.5-.1-1.3-.1-1.5 0-.8.4-2.3 2-2.4 1.9 0 2.5 1.9 2.5 1.9Z" class="&lt;Path&gt;"/>
                          <path fill="#050505" fill-rule="evenodd" d="M75.5 60.073c-.8-.1-1.6-.5-2-1.1-.3-.4-.4-.7-.3-1.1.1-.3.1-.6.2-1.1 0-.4-.1-.8-.1-1.1v-.4c0-1 .5-2.5 2.2-2.6 2.1 0 2.7 1.9 2.7 2 .2.6.7 2.1.2 3.4-.4 1.1-1.4 1.9-2.6 2h-.3Zm.3-6.9h-.3c-1.5 0-1.8 1.5-1.8 2.1 0 .067.033.167.1.3v1.3c0 .4 0 .8-.1 1.2-.1.2 0 .5.1.6.4.5 1.1.9 2 .9 1 0 1.9-.7 2.2-1.7.4-1.1 0-2.5-.2-3.1 0 0-.5-1.5-2-1.6Z" class="&lt;Compound Path&gt;" clip-rule="evenodd"/>
                        </g>
                      </g>
                    </g>
                    <g class="&lt;Group&gt;">
                      <g class="&lt;Group&gt;">
                        <path fill="#AB795A" d="m74.1 55.073-1.5 1c-.3.3-.4.8-.2 1.1.3.3.6.3.8.3.4-.1.8-.4.8-.4" class="&lt;Path&gt;"/>
                        <path fill="#050505" d="M73 57.673c-.3 0-.6-.1-.8-.4-.3-.4-.2-1 .3-1.4l1.5-1c.1-.1.2-.1.3 0 0 .1 0 .3-.1.4l-1.5 1c-.2.2-.3.6-.1.8.2.3.5.2.5.2.4-.1.8-.4.8-.4.1 0 .2 0 .3.1.1.1 0 .3-.1.3 0 0-.4.3-.8.4H73Z" class="&lt;Path&gt;"/>
                      </g>
                    </g>
                  </g>
                  <path fill="#050505" d="M78.3 55.773c-.1-.4-.2-.8-.3-1 0 0-.6-1.9-2.5-1.9-1.6.1-2 1.6-2 2.4v.2l-.3.2c.1.3.2.5.2.5s.4-.4 2.2-.9c1.3-.3 2.3.2 2.7.5Z" class="&lt;Path&gt;" opacity=".2" style="mix-blend-mode:multiply"/>
                </g>
                <g class="&lt;Group&gt;">
                  <g class="&lt;Group&gt;">
                    <g class="&lt;Group&gt;">
                      <path fill="#F5F6F7" d="M70.6 44.373c-3.5 1.3-2.3 4.2-2.3 4.2l2.8 7.9 7.1-2.8-3.1-7.9s-.7-2.8-4.5-1.4Z" class="&lt;Path&gt;"/>
                      <path fill="#050505" fill-rule="evenodd" d="M71.1 56.673H71c-.067-.067-.1-.133-.1-.2l-2.8-7.8c0-.2-.5-1.3 0-2.5.4-.933 1.2-1.633 2.4-2.1 1.4-.467 2.533-.467 3.4 0 1.1.5 1.4 1.5 1.4 1.6l3.1 7.9c.1.1 0 .2-.1.3l-7.1 2.8h-.1Zm-.4-12.1c-1.067.4-1.767.967-2.1 1.7-.5 1.1-.1 2.2-.1 2.2l2.7 7.7 6.7-2.7-3-7.6s-.3-1-1.2-1.4c-.8-.4-1.8-.367-3 .1Z" class="&lt;Compound Path&gt;" clip-rule="evenodd"/>
                    </g>
                    <path fill="#DFDFDF" d="m76.2 54.473 2-.8-3.1-7.9s-.5-1.8-2.6-1.8l3.7 10.5Z" class="&lt;Path&gt;" style="mix-blend-mode:multiply"/>
                  </g>
                </g>
                <g class="&lt;Group&gt;">
                  <g class="&lt;Group&gt;">
                    <path fill="#F5F6F7" d="M49.1 43.173s-2.6 14.6-2.8 15.7c-.1.3 3 0 5.5.5 3.2.7 6.4 1.4 9.5 1.4 1.7 0 4-.4 6.7-.6 2.6-.3 4.6.7 5.3-.1-.1-1.5-1.7-10.4-1.5-16.4.1-.6-1.5-3.8-11-4.1-9.6-.4-11.3 3.1-11.7 3.6Z" class="&lt;Path&gt;"/>
                    <path fill="#050505" fill-rule="evenodd" d="m52.4 59.773-.6-.2c-1.5-.3-3.1-.3-4.2-.3s-1.4-.1-1.5-.2c-.067-.067-.1-.133-.1-.2.3-1.1 2.9-15.6 2.9-15.7v-.1l.1-.1c.2-.3.8-1.3 2.5-2.2 2.2-1.1 5.3-1.6 9.3-1.4 4.1.1 7.2.8 9.2 1.9 1.7 1 2.1 2 2.1 2.4-.2 4.8.8 11.6 1.2 14.8.133.8.233 1.333.3 1.6 0 .067-.033.133-.1.2-.5.5-1.4.4-2.4.2-.9-.1-1.9-.2-3.1-.1-.8.067-1.567.167-2.3.3-1.7.2-3.2.3-4.4.3h-.8c-2.7-.1-5.5-.7-8.1-1.2Zm18.7.3c1 .1 1.6.2 2-.1-.067-.267-.133-.733-.2-1.4-.5-3.3-1.4-10.1-1.3-14.9 0-.2-.3-1.1-1.8-2-1.4-.7-4-1.7-9-1.9-5.9-.2-10 1-11.5 3.5-.1 1-2.4 13.6-2.8 15.5h1.1c1.1.1 2.8.1 4.3.4.2.067.4.1.6.1 2.9.7 6 1.3 8.8 1.3 1.2 0 2.7-.2 4.3-.4a39.218 39.218 0 0 0 2.4-.3h1.3c.7 0 1.3.1 1.8.2Z" class="&lt;Compound Path&gt;" clip-rule="evenodd"/>
                  </g>
                  <g class="&lt;Group&gt;">
                    <path fill="#050505" d="M58.7 57.673c0 .3.3.6.6.6.3.1.6-.2.6-.6.1-.3-.2-.6-.6-.6-.3 0-.6.3-.6.6Z" class="&lt;Path&gt;"/>
                  </g>
                  <g class="&lt;Group&gt;">
                    <path fill="#050505" d="M58.7 54.773c-.1.4.2.7.6.7.3 0 .6-.3.6-.6 0-.4-.3-.7-.6-.7s-.6.3-.6.6Z" class="&lt;Path&gt;"/>
                  </g>
                  <g class="&lt;Group&gt;">
                    <path fill="#050505" d="M58.9 51.973c-.1.3.2.6.5.6.4 0 .7-.2.7-.6 0-.3-.3-.6-.6-.6s-.6.2-.6.6Z" class="&lt;Path&gt;"/>
                  </g>
                  <path fill="#DFDFDF" d="M46.3 58.873c.2-1.1 2.8-15.7 2.8-15.7.3-.4 1.3-2.3 5.5-3.2l.3 1.4s-1.7.5-2.6.8c-.8.2-1.5.7-1.7 1.3-.2.4-1.9 11.1-2.6 15.6-1-.1-1.8-.1-1.7-.2Z" class="&lt;Path&gt;" style="mix-blend-mode:multiply"/>
                  <g class="&lt;Group&gt;">
                    <path fill="#FEFEFE" d="M60.4 60.773s.2-8.5.3-10.8Z" class="&lt;Path&gt;"/>
                    <path fill="#050505" d="M60.4 60.973c.1 0 .2-.1.2-.2s.2-8.5.3-10.8c0-.1-.1-.2-.2-.2s-.2.1-.2.2c-.1 2.3-.3 10.7-.3 10.8 0 .1.1.2.2.2Z" class="&lt;Path&gt;"/>
                  </g>
                  <g class="Clip path group">
                    <mask id="a" width="8" height="12" x="66" y="48" class="a" maskUnits="userSpaceOnUse" style="mask-type:luminance">
                      <g class="cp162">
                        <path fill="#fff" d="M71.9 48.023s.55 5.68.66 6.56c.11.89.7 5.07.7 5.07l-6.1-1.26s-.86-9.01-.63-8.94c.22.06 5.37-1.43 5.37-1.43Z" class="Vector"/>
                      </g>
                    </mask>
                    <g class="&lt;Clip Group&gt;" mask="url(#a)">
                      <g class="&lt;Group&gt;">
                        <g class="&lt;Group&gt;">
                          <path fill="#050505" fill-rule="evenodd" d="m68.2 54.573.1-2.3c0-.1.1-.2.2-.2l6.1.3h.1c.067.067.1.134.1.2l-.2 2.3c0 2-1.3 3.2-3.3 3.1-1.9 0-3.2-1.4-3.1-3.4Zm.5-2-.1 2c0 2.2 1.4 3 2.7 3 1.4.1 2.8-.6 2.9-2.8l.1-2-5.6-.2Z" class="&lt;Compound Path&gt;" clip-rule="evenodd"/>
                        </g>
                        <g class="&lt;Group&gt;">
                          <path fill="#EC272B" d="m74.6 53.673-6.2-.2Z" class="&lt;Path&gt;"/>
                          <path fill="#050505" d="m68.4 53.673 6.2.2v-.4l-6.2-.2v.4Z" class="&lt;Path&gt;"/>
                        </g>
                      </g>
                    </g>
                  </g>
                  <g class="Clip path group">
                    <mask id="b" width="8" height="12" x="46" y="47" class="b" maskUnits="userSpaceOnUse" style="mask-type:luminance">
                      <g class="cp163">
                        <path fill="#fff" d="M48.42 47.193s-.99 5.53-1.14 6.41c-.15.88-.94 5.19-.94 5.19l5.99-.94s1.51-8.92 1.28-8.88c-.22.05-5.19-1.78-5.19-1.78Z" class="Vector"/>
                      </g>
                    </mask>
                    <g class="&lt;Clip Group&gt;" mask="url(#b)">
                      <g class="&lt;Group&gt;">
                        <g class="&lt;Group&gt;">
                          <path fill="#050505" fill-rule="evenodd" d="m45.1 53.773.1-2.3v-.1c.067-.067.133-.1.2-.1l6 .2c.1 0 .2.1.2.2v2.3c-.1 2-1.4 3.3-3.4 3.2-1.9-.1-3.1-1.4-3.1-3.4Zm.5-2.1v2.1c-.1 2.1 1.3 2.9 2.6 3 1.4 0 2.9-.7 2.9-2.8l.1-2.1-5.6-.2Z" class="&lt;Compound Path&gt;" clip-rule="evenodd"/>
                        </g>
                        <g class="&lt;Group&gt;">
                          <path fill="#EC272B" d="m45.3 52.573 6.1.3Z" class="&lt;Path&gt;"/>
                          <path fill="#050505" d="m45.2 52.773 6.2.3v-.5l-6.1-.2-.1.4Z" class="&lt;Path&gt;"/>
                        </g>
                      </g>
                    </g>
                  </g>
                  <path fill="#DFDFDF" d="m60.7 49.973-.2 1.8s-.1-.9-.9-1.4c-.9-.5-3.9-1.2-3.9-1.2l1.2-.8-2.6-.2s-.1-5.7-.2-6.5c-.1-.9 1-1.1 1-1.1l1 4.6 4.6 4.8Z" class="&lt;Path&gt;" style="mix-blend-mode:multiply"/>
                  <path fill="#DFDFDF" d="m60.7 51.673-.1-2 6.3-8.5.7.9s-.9 5.6-.9 5.8c0 .1-1.2 0-1.2 0s.3.6.1.8c-.3.1-4.1 2-4.9 3Z" class="&lt;Path&gt;" style="mix-blend-mode:multiply"/>
                  <g class="&lt;Group&gt;">
                    <path fill="#9FC8EA" d="m60.5 49.773.5-.1 2.3-4.4 2.9-4.5s-1.5-.5-5.1-.7c-3.6-.1-5.4.2-5.4.2l2.2 4.7 2.6 4.8Z" class="&lt;Path&gt;"/>
                  </g>
                  <path fill="#DFDFDF" d="M60.9 51.773s.3 2.8.5 3.7c.3.8-.4-.1-.4.6.1.7-.1 4.6-.1 4.6l-.5.1.3-9h.2Zm12 7s-.1-.9-1.5-.6c-1.4.3-2.7 0-3.2-1.1s.2-4.1.2-4.1-.1 3.3 1 4.2c1.2.9 3.3.3 3.3.3l.2 1.3Zm-21.5-7.1s.3 2.9-.6 4.2c-1 1.2-2.4 1.2-2.4 1.2s1.6.8 2.9-.5c.7-.8.6-2.7.6-2.7s0-1.8-.5-2.2Z" class="&lt;Path&gt;" style="mix-blend-mode:multiply"/>
                  <g class="&lt;Group&gt;">
                    <path fill="#F5F6F7" d="m60.7 50.473.1-1 2-3.2 3.7-6c.6.133 1.167.3 1.7.5l-2.1 6.6-2.4.5.6.5-3.6 2.1Z" class="&lt;Path&gt;"/>
                    <path fill="#050505" fill-rule="evenodd" d="M60.6 50.673c-.067-.067-.1-.133-.1-.2v-1c0-.067.033-.1.1-.1l2-3.2 3.7-6c.067-.067.167-.1.3-.1.6.133 1.133.3 1.6.5.1 0 .2.1.2.2l-2.1 6.6-.2.2-2 .4.3.3c.067.067.1.133.1.2l-.1.1-3.6 2.1h-.2Zm2.9-2.7v-.2c0-.067.033-.1.1-.1l2.3-.5 2-6.3c-.4-.133-.833-.267-1.3-.4l-3.7 5.9-1.9 3.1v.6l2.9-1.7-.4-.4Z" class="&lt;Compound Path&gt;" clip-rule="evenodd"/>
                  </g>
                  <g class="&lt;Group&gt;">
                    <path fill="#F5F6F7" d="M53.9 40.173c.467-.133 1-.267 1.6-.4l3.3 6.3 1.8 3.4-.1 1-3.3-2.3.6-.5-2.4-.7-1.5-6.8Z" class="&lt;Path&gt;"/>
                    <path fill="#050505" fill-rule="evenodd" d="m60.4 50.673-3.4-2.3v-.4l.3-.2-1.9-.6c-.133-.067-.2-.133-.2-.2l-1.5-6.8c-.1-.1 0-.2.1-.2l1.6-.4c.133 0 .233.033.3.1l5.1 9.7v.1l-.1 1c0 .067-.033.133-.1.2h-.2Zm-5-10.6c-.467.067-.9.133-1.3.2l1.5 6.5 2.2.7c.133 0 .2.034.2.1 0 .133-.033.2-.1.2l-.4.4 2.8 1.9.1-.6-5-9.4Z" class="&lt;Compound Path&gt;" clip-rule="evenodd"/>
                  </g>
                </g>
                <g class="&lt;Group&gt;">
                  <g class="&lt;Group&gt;">
                    <path fill="#ED2D2F" d="M47.8 50.273c6.1-1 5-9.4 4.3-9.5-2.4-.5-3 1.7-3 1.7l-1.3 7.8Z" class="&lt;Path&gt;"/>
                    <path fill="#050505" fill-rule="evenodd" d="M47.7 50.473c-.067-.067-.1-.133-.1-.2l1.3-7.9s.6-2.4 3.2-1.8c.6.1.8 1.7.8 2.8 0 .9-.1 2.7-1 4.3-.867 1.6-2.2 2.533-4 2.8h-.2Zm1.7-8-1.3 7.5c2.6-.6 3.6-2.6 4-4.2.4-1.3.4-2.5.3-3.2-.1-.9-.3-1.5-.4-1.6-2.1-.4-2.6 1.4-2.6 1.5Z" class="&lt;Compound Path&gt;" clip-rule="evenodd"/>
                  </g>
                  <path fill="#DFDFDF" d="M52.4 42.973s.2 2.4-.9 3.5-1.9.3-2-.5c-.1-.9.2-3 .9-3.2.7-.1 1.8-.3 1.8-1-.1-.7-.5-1-.5-1s-2.3.1-2.7 1.3c-.3 1.1-1.2 8-1.2 8s1.4.3 2.8-1.1c1.4-1.4 2.6-3.5 1.8-6Z" class="&lt;Path&gt;" style="mix-blend-mode:multiply"/>
                </g>
                <g class="&lt;Group&gt;">
                  <g class="&lt;Group&gt;">
                    <path fill="#ED2D2F" d="M72.1 51.173c-5.9-1.5-4.3-9.7-3.5-9.8 2.4-.4 3.2 1.9 3.2 1.9l.3 7.9Z" class="&lt;Path&gt;"/>
                    <path fill="#050505" fill-rule="evenodd" d="M72.1 51.373c-1.8-.467-3.067-1.5-3.8-3.1-.8-1.6-.8-3.4-.7-4.3.1-1.1.4-2.7.9-2.8 1.4-.2 2.3.4 2.7.9.6.5.8 1.1.8 1.1v.1l.4 7.9c0 .067-.033.133-.1.2h-.2Zm-1.2-9c-.6-.667-1.367-.933-2.3-.8-.1.1-.3.7-.5 1.6-.1.6-.2 1.9.1 3.2.3 1.7 1.2 3.7 3.7 4.5l-.4-7.6c0-.1-.2-.5-.6-.9Z" class="&lt;Compound Path&gt;" clip-rule="evenodd"/>
                  </g>
                  <path fill="#DFDFDF" d="M68.1 43.473s-.3 2.5.7 3.7c.9 1.1 1.8.4 2-.4.2-.9 0-3-.7-3.2-.7-.3-1.8-.6-1.7-1.2.1-.7.6-1 .6-1s2.3.3 2.5 1.5c.3 1.2.6 8.1.6 8.1s-1.3.2-2.6-1.3-2.4-3.7-1.4-6.2Z" class="&lt;Path&gt;" style="mix-blend-mode:multiply"/>
                </g>
                <path fill="#050505" d="M43.4 27.973s-2.2-5.2-2.3.1c-.2 6.7 3.3 9.4 3.3 9.4l-1-9.5Zm34.6 1.3s2.6-5 2.3.2c-.3 6.7-4 9.2-4 9.2l1.7-9.4Z" class="&lt;Path&gt;"/>
                <g class="&lt;Group&gt;">
                  <path fill="#050505" d="M61.2 12.973h.6c9.2.6 16.8 6.7 16.4 18.8-.2 3-2.1 6.4-2.1 6.4s-7.6-3.3-15.3-3.7c-7.8-.1-16.1 2.5-16.1 2.5s-1.2-3.5-1.2-6.5c.5-12 8.5-17.6 17.7-17.5Z" class="&lt;Path&gt;"/>
                  <path fill="#050505" fill-rule="evenodd" d="M75.9 38.573c-.1-.1-7.5-3.3-15.1-3.7-7.7-.1-15.9 2.5-16 2.5l-.3.1-.2-.3c0-.2-1.2-3.6-1.2-6.7.1-2.9.7-5.6 1.7-8 1-2.2 2.3-4.1 4-5.6 1.6-1.467 3.5-2.567 5.7-3.3 1.933-.667 4.033-1 6.3-1v-.1l.4.1h1c2.267.2 4.367.7 6.3 1.5a15.93 15.93 0 0 1 5.4 3.7c1.6 1.7 2.8 3.6 3.6 5.9.8 2.4 1.2 5.2 1.1 8.1-.2 3.1-2.1 6.5-2.2 6.6l-.2.3-.3-.1Zm-14.1-25.1-.2-.1h-.4c-8-.1-16.8 4.4-17.2 17.2-.1 2.3.7 5 1 6 1.7-.6 9-2.6 15.8-2.5 6.8.4 13.5 3 15.1 3.6.5-.9 1.7-3.5 1.9-5.9.4-12.8-8-17.8-16-18.3Z" class="&lt;Compound Path&gt;" clip-rule="evenodd"/>
                </g>
                <g class="&lt;Group&gt;">
                  <g class="&lt;Group&gt;">
                    <path fill="#AB795A" d="M61.2 12.973h.6c9.2.6 16.8 6.7 16.4 18.8-.5 7.2-4.6 15.6-17.9 14.8-13.4-.2-16.9-8.9-16.8-16.1.5-12 8.5-17.6 17.7-17.5Z" class="&lt;Path&gt;"/>
                    <path fill="#050505" fill-rule="evenodd" d="M46.7 41.273c-1.267-1.467-2.167-3.2-2.7-5.2-.533-1.733-.767-3.6-.7-5.6.1-2.9.7-5.6 1.7-7.9.9-2.2 2.2-4.1 3.9-5.6 1.6-1.4 3.467-2.467 5.6-3.2a21.04 21.04 0 0 1 6.5-1v-.1h.2v.1h.8c2.333.133 4.467.633 6.4 1.5 2.067.867 3.833 2.067 5.3 3.6 1.6 1.7 2.8 3.6 3.6 5.9.8 2.4 1.2 5.1 1.1 8-.133 2-.5 3.833-1.1 5.5-.733 2-1.767 3.667-3.1 5-3.1 3.4-7.8 4.9-13.9 4.5h-.7c-5.8-.2-10.1-2.1-12.9-5.5Zm13.6 5.1c5.9.3 10.5-1.1 13.6-4.4 3-3.2 3.9-7.3 4-10.2.5-12.9-8-18.1-16.1-18.6h-.6c-8.1-.1-17 4.4-17.5 17.4 0 2.9.5 7 3.3 10.4 2.7 3.4 7 5.1 12.6 5.4h.7Z" class="&lt;Compound Path&gt;" clip-rule="evenodd"/>
                  </g>
                  <path fill="#DFDFDF" d="M58.5 13.073c2.5.1 7.5.5 9.8 1.4 2.3.9 6 4.3 7.4 6.3 2.2 3 2.3 9.5 2.3 9.5s-15.1 2.8-24.5-2.7c0 0-4 3.1-7.9 2.3-5.6-1.2 3.2-12.5 3.2-12.5s6-4.4 9.7-4.3Z" class="&lt;Path&gt;" style="mix-blend-mode:multiply"/>
                  <path fill="#DFDFDF" d="m50.2 22.173-3.7 7.3s-1.6 15.1 14.4 17.1h-.6c-13.4-.2-16.9-8.9-16.8-16.1.2-4.4 1.3-7.9 3.2-10.6 2 .7 3.5 2.3 3.5 2.3Z" class="&lt;Path&gt;" style="mix-blend-mode:multiply"/>
                  <g class="&lt;Group&gt;">
                    <path fill="#050505" fill-rule="evenodd" d="M46.7 41.273c-1.267-1.467-2.167-3.2-2.7-5.2-.533-1.733-.767-3.6-.7-5.6.1-2.9.7-5.6 1.7-7.9.9-2.2 2.2-4.1 3.9-5.6 1.6-1.4 3.467-2.467 5.6-3.2a21.04 21.04 0 0 1 6.5-1v-.1h.2v.1h.8c2.333.133 4.467.633 6.4 1.5 2.067.867 3.833 2.067 5.3 3.6 1.6 1.7 2.8 3.6 3.6 5.9.8 2.4 1.2 5.1 1.1 8-.133 2-.5 3.833-1.1 5.5-.733 2-1.767 3.667-3.1 5-3.1 3.4-7.8 4.9-13.9 4.5h-.7c-5.8-.2-10.1-2.1-12.9-5.5Zm13.6 5.1c5.9.3 10.5-1.1 13.6-4.4 3-3.2 3.9-7.3 4-10.2.5-12.9-8-18.1-16.1-18.6h-.6c-8.1-.1-17 4.4-17.5 17.4 0 2.9.5 7 3.3 10.4 2.7 3.4 7 5.1 12.6 5.4h.7Z" class="&lt;Compound Path&gt;" clip-rule="evenodd"/>
                  </g>
                </g>
                <path fill="#050505" d="M76.5 15.673s4.8 4.1 5.4 11.3c.1.3-.4-2.1-2.7-4.8" class="&lt;Path&gt;"/>
                <path fill="#050505" d="M63.2 7.573s14.4-.5 18.2 20.6c0 0-.3.7-1.2 1.2-1.4.8-2.3 1.4-3.7 1.8.4-1.6.6-4.4-3.4-8.7 0 0 3.9 5.1 2.4 8.9-13.9 2.9-21.5-5.3-21.5-5.3.5 0-2.7 3.3-7.8 3.5-.8-4.3 1.9-8.1 1.9-8.1-2.5 3.2-3 6.8-2.8 8.1-.9.1-3.3 0-4.7-.5 0 0-.8-22.9 22.6-21.5Z" class="&lt;Path&gt;"/>
                <path fill="#050505" d="M54.1 9.473s-10.8.1-13.3 12.6c0 0 3.2-6.2 13.3-12.6Zm9.1-1.9s12.5-.7 18.8 14.5c0 0-9.2-8.5-18.8-14.5Z" class="&lt;Path&gt;"/>
                <path fill="#050505" d="M52.2 9.373s3.6-3.4 7-4c3.4-.7 3.5-.2 3.5-.2s-4.7.2-8 4.5" class="&lt;Path&gt;"/>
                <path fill="#050505" d="M47 12.473s2.5-1.5.3-3.4c0 0 2-.1 2.3.9.3-1.3 1.5-3.5 5.4-4.5 0 0-2.3 2.5-.1 2.9" class="&lt;Path&gt;"/>
                <g class="&lt;Group&gt;">
                  <path fill="#DFDFDF" d="M58.4 36.273s.8 1.6 2.4 1.7c1.6 0 2.8-1.7 2.8-1.7s-1.9.8-2.7.8c-.8-.1-2.5-.8-2.5-.8Z" class="&lt;Path&gt;" style="mix-blend-mode:multiply"/>
                  <g class="&lt;Group&gt;">
                    <path fill="#050505" d="M60.9 37.273c.4 0 .7 0 .9-.1l1.6-.6c.1 0 .2-.2.2-.3-.1-.1-.2-.2-.3-.1l-1.6.6c-.4.1-1 .1-1.4-.1l-1.6-.7c-.1 0-.3 0-.3.1-.1.1 0 .3.1.3l1.6.7c.2.1.5.2.8.2Z" class="&lt;Path&gt;"/>
                  </g>
                </g>
                <g class="&lt;Group&gt;">
                  <path fill="#050505" d="M48.9 31.273c.067 0 .133-.033.2-.1.5-1.1 1.7-1.7 2.8-1.2.333.133.633.334.9.6.1.1.2.1.3.1.1-.1.1-.3 0-.4a2.112 2.112 0 0 0-1-.7c-1.3-.6-2.9 0-3.4 1.4-.1.1 0 .2.1.3h.1Z" class="&lt;Path&gt;"/>
                </g>
                <g class="&lt;Group&gt;">
                  <path fill="#050505" d="M73.4 32.173c.2 0 .2-.2.2-.3-.5-1.4-2-2.1-3.3-1.7-.467.2-.833.433-1.1.7-.1.1-.1.3 0 .4.1 0 .2 0 .3-.1.267-.2.567-.366.9-.5 1.1-.4 2.4.2 2.7 1.3.067.133.167.2.3.2Z" class="&lt;Path&gt;"/>
                </g>
                <path fill="#050505" d="M72.5 34.573c0 .9-.5 1.6-1.1 1.6-.5 0-1-.8-.9-1.6 0-.9.5-1.6 1.1-1.6.5 0 1 .8.9 1.6Z" class="&lt;Path&gt;"/>
                <path fill="#FEFEFE" d="M70.9 33.973c0 .2.1.3.2.3s.2-.1.2-.2c0-.2-.1-.3-.2-.3s-.2.1-.2.2Z" class="&lt;Path&gt;"/>
                <path fill="#050505" d="M49.7 33.773c0 .9.4 1.6 1 1.6.6.1 1.1-.6 1.1-1.5.1-.9-.4-1.6-1-1.6-.5-.1-1 .6-1.1 1.5Z" class="&lt;Path&gt;"/>
                <path fill="#FEFEFE" d="M50.3 33.273c0 .1 0 .3.2.3.1 0 .2-.1.2-.3 0-.2-.1-.3-.2-.3s-.2.1-.2.3Z" class="&lt;Path&gt;"/>
                <g class="&lt;Group&gt;">
                  <g class="&lt;Group&gt;">
                    <path fill="#050505" d="M58.3 40.973c.8 0 1.667-.1 2.6-.3.1-.1.1-.2.1-.3 0-.1-.1-.2-.3-.2-2.067.533-3.9.334-5.5-.6-1.2-.8-1.8-1.7-1.9-1.7 0-.1-.2-.1-.3 0-.1 0-.1.2 0 .3 0 0 .6 1 1.9 1.7.8.5 2 1 3.4 1.1Z" class="&lt;Path&gt;"/>
                  </g>
                  <path fill="#DFDFDF" d="M58 41.573s-3.9-2-4.8-1.3l.2.7s3.6 1 4.3 1.1c.7.2 1.2-.1.3-.5Z" class="&lt;Path&gt;" style="mix-blend-mode:multiply"/>
                </g>
              </g>
              <g class="&lt;Group&gt;">
                <g class="&lt;Group&gt;">
                  <g class="&lt;Group&gt;">
                    <g class="&lt;Group&gt;">
                      <path fill="#050505" d="M53.5 42.073c1.1.7 2.4 1.5 5.5 1.3 3.6-.2 4.3-3 3.3-3.9-.6-.7-3.2.3-5.5-.8-1.4-.8-3.3-2.5-4.8-1.2-1.8 1.4.5 4 1.5 4.6Z" class="&lt;Path&gt;"/>
                    </g>
                  </g>
                  <g class="&lt;Group&gt;">
                    <g class="&lt;Group&gt;">
                      <path fill="#050505" fill-rule="evenodd" d="m56.4 43.473-1-.2c-.8-.3-1.4-.6-2-1-.8-.5-2.2-2-2.3-3.4 0-.6.233-1.133.7-1.6.6-.467 1.3-.6 2.1-.4.7.2 1.4.6 2 1l1 .6c1.3.6 2.6.6 3.7.5.9 0 1.5 0 1.9.3.4.5.5 1.3.2 2-.2.6-.6 1.1-1.2 1.5-.667.467-1.5.733-2.5.8-1 .067-1.867.033-2.6-.1Zm-2.8-1.6c1 .7 2.2 1.5 5.3 1.3 1.8-.1 3-.9 3.5-2 .2-.6.1-1.2-.2-1.6-.2-.2-.9-.2-1.6-.2-1 .1-2.5.1-3.8-.6-.333-.133-.7-.3-1.1-.5-1.2-.8-2.5-1.6-3.6-.6-.4.334-.6.733-.6 1.2.1 1.2 1.4 2.6 2.1 3Z" class="&lt;Compound Path&gt;" clip-rule="evenodd"/>
                    </g>
                  </g>
                </g>
                <g class="&lt;Group&gt;">
                  <g class="&lt;Group&gt;">
                    <g class="&lt;Group&gt;">
                      <path fill="#EA2A2F" d="M53.4 41.873s2.5 2.2 6.8 1.2c0 0-.8-1.2-2.9-1.5-2.5-.3-3.9.3-3.9.3Z" class="&lt;Path&gt;"/>
                    </g>
                  </g>
                  <g class="&lt;Group&gt;">
                    <g class="&lt;Group&gt;">
                      <path fill="#050505" fill-rule="evenodd" d="M56.6 43.373a5.528 5.528 0 0 1-1.5-.4c-1.1-.4-1.8-1-1.8-1l-.2-.2.3-.1s1.4-.6 3.9-.3c2.2.3 3.1 1.5 3.1 1.6l.2.2-.3.1c-1 .2-2 .267-3 .2-.2 0-.433-.033-.7-.1Zm-2.7-1.5c.2.2.7.5 1.4.8 1 .3 2.5.7 4.6.3a3.287 3.287 0 0 0-.5-.4c-.4-.3-1.1-.7-2.2-.8-1.6-.2-2.8 0-3.3.1Z" class="&lt;Compound Path&gt;" clip-rule="evenodd"/>
                    </g>
                  </g>
                </g>
              </g>
            </g>
          </g>
        </g>
        <g class="&lt;Group&gt;">
          <g class="&lt;Group&gt;">
            <g class="&lt;Group&gt;">
              <g class="&lt;Group&gt;">
                <g class="&lt;Group&gt;">
                  <g class="&lt;Group&gt;">
                    <g class="&lt;Group&gt;">
                      <path fill="#958F72" d="M25.8 43.773c-.3-.1-.8-.6-.3-1.9.5-1.2 1.1-1.7 1.5-1.3.4.4 4.1 2.5 4.1 2.5s-3.8 1.3-5.3.7Z" class="&lt;Path&gt;"/>
                      <path fill="#958F72" fill-rule="evenodd" d="M25.7 43.873c-.1 0-.4-.2-.5-.5-.133-.4-.067-.933.2-1.6.3-.8.7-1.4 1.1-1.5.2 0 .4.067.6.2.3.3 3 1.9 4 2.5.067 0 .1.034.1.1 0 .067-.033.1-.1.1 0 0-1 .4-2.1.6-1.533.333-2.633.367-3.3.1Zm1.1-3.3h-.2c-.2.1-.6.4-1 1.3-.5 1.4.1 1.7.2 1.8 1.2.5 4-.3 4.9-.6-.8-.5-3.5-2.1-3.8-2.4l-.1-.1Z" class="&lt;Compound Path&gt;" clip-rule="evenodd"/>
                    </g>
                    <g class="&lt;Group&gt;" opacity=".2">
                      <path fill="#050505" d="M25.8 43.773c1.5.6 5.3-.7 5.3-.7s-2.7-1.5-3.7-2.2c-.4.1-.7.6-1 1.4l-.2.4-.8-.3c-.3 1 .1 1.3.4 1.4Z" class="&lt;Path&gt;"/>
                    </g>
                    <g class="&lt;Group&gt;">
                      <path fill="#C6C4AD" d="M27.8 42.673s-.8-.4-1.2-.5c0 0 .3-.3.4-.7.2-.6 0-.9 0-.9s.9.5 1.4.7l-.6 1.4Z" class="&lt;Path&gt;"/>
                      <path fill="#958F72" fill-rule="evenodd" d="M26.6 42.273c-.067 0-.1-.033-.1-.1v-.1s.3-.2.4-.6c.1-.6 0-.8 0-.8-.067-.067-.067-.133 0-.2s.133-.067.2 0c0 0 .9.5 1.4.7 0 0 .1.1 0 .2l-.5 1.3c0 .067-.033.1-.1.1h-.1l-1.2-.5Zm.6-1.4c.067.133.033.333-.1.6 0 .3-.2.5-.2.6l.9.4.4-1.1c-.3-.2-.7-.4-1-.5Z" class="&lt;Compound Path&gt;" clip-rule="evenodd"/>
                    </g>
                    <g class="&lt;Group&gt;" opacity=".2">
                      <path fill="#050505" d="m27.8 42.673.6-1.4c-.2-.1-.6-.3-.9-.4.1.1.1.4 0 .8s-.3.6-.4.7c.4.1.7.3.7.3Z" class="&lt;Path&gt;"/>
                    </g>
                  </g>
                  <g class="&lt;Group&gt;">
                    <g class="&lt;Group&gt;">
                      <path fill="#958F72" d="m39.1 46.573-10.7-4.6c-.4-.1-.8 0-1 .4-.7 1.3-1.3 1.5-1.7 1.4 0 0 11 4.7 11.5 4.9.4.2 1.1-.3 1.9-2.1Z" class="&lt;Path&gt;"/>
                      <path fill="#958F72" fill-rule="evenodd" d="M25.7 43.873c-.1 0-.1-.1-.1-.2 0 0 .1-.1.2 0 .2.1.9-.2 1.5-1.4.2-.4.7-.6 1.1-.4l10.7 4.5.1.1v.1c-.4.867-.767 1.5-1.1 1.9-.4.4-.7.4-.9.3l-11.5-4.9Zm13.2 2.7-10.6-4.5c-.3-.1-.6.1-.8.4-.4.8-.9 1.2-1.2 1.4l11 4.7c.133.067.333-.033.6-.3.3-.4.7-.9 1-1.7Z" class="&lt;Compound Path&gt;" clip-rule="evenodd"/>
                    </g>
                  </g>
                  <g class="&lt;Group&gt;" opacity=".5">
                    <g class="&lt;Group&gt;">
                      <path fill="#FEFEFE" d="M30.2 45.073c0-.1-.1-.1 0-.2 0-.1.1-.1.2-.1l6.8 2.9c0 .1.1.1 0 .2 0 .1-.1.1-.1.1l-6.9-2.9Z" class="&lt;Path&gt;"/>
                    </g>
                    <g class="&lt;Group&gt;">
                      <path fill="#FEFEFE" d="M27.9 44.073c-.1 0-.1-.1-.1-.2.1-.1.2-.1.2-.1l1.7.7c.1.1.1.2.1.2-.1.1-.1.1-.2.1l-1.7-.7Z" class="&lt;Path&gt;"/>
                    </g>
                  </g>
                </g>
              </g>
            </g>
            <g class="&lt;Clip Group&gt;">
              <g class="&lt;Group&gt;">
                <path fill="#DDDBC1" d="m38.6 49.473-12.5-5.5 6.4-14.6 12.5 5.4-6.4 14.7Z" class="&lt;Path&gt;"/>
                <path fill="#958F72" fill-rule="evenodd" d="M26 44.173v-.1c-.067-.066-.067-.1 0-.1l6.4-14.7s.1-.1.1 0l12.5 5.4c.067 0 .1.033.1.1v.1l-6.4 14.6c0 .1-.1.1-.2.1l-12.5-5.4Zm6.6-14.6-6.3 14.4 12.2 5.3 6.3-14.4-12.2-5.3Z" class="&lt;Compound Path&gt;" clip-rule="evenodd"/>
              </g>
              <g class="&lt;Clip Group&gt;" opacity=".2">
                <g class="&lt;Group&gt;">
                  <path fill="#958F72" d="m38.6 49.473-12.5-5.5 6.4-14.6 12.5 5.4-6.4 14.7Z" class="&lt;Path&gt;"/>
                  <path fill="#958F72" fill-rule="evenodd" d="M26 44.173v-.1c-.067-.066-.067-.1 0-.1l6.4-14.7s.1-.1.1 0l12.5 5.4c.067 0 .1.033.1.1v.1l-6.4 14.6c0 .1-.1.1-.2.1l-12.5-5.4Zm6.6-14.6-6.3 14.4 12.2 5.3 6.3-14.4-12.2-5.3Z" class="&lt;Compound Path&gt;" clip-rule="evenodd"/>
                </g>
                <g class="&lt;Group&gt;" opacity=".5">
                  <path fill="#958F72" d="m44.4 35.973-5.8 13.5 6.4-14.7-12.5-5.4-.5 1.2 12.4 5.4Z" class="&lt;Path&gt;"/>
                  <path fill="#958F72" fill-rule="evenodd" d="m38.5 49.573-.1-.1v-.1l5.9-13.3-12.4-5.4h-.1v-.1l.6-1.3s.1-.1.1 0l12.5 5.4c.067 0 .1.033.1.1v.1l-6.4 14.6c0 .1-.1.1-.2.1Zm-5.9-20-.5.9 12.3 5.3.4-.9-12.2-5.3Z" class="&lt;Compound Path&gt;" clip-rule="evenodd"/>
                </g>
                <g class="&lt;Group&gt;" opacity=".1" style="mix-blend-mode:multiply">
                  <path fill="#958F72" d="m40.8 43.773-12.4-5.3 3-6.8 12.4 5.3-3 6.8Z" class="&lt;Path&gt;"/>
                  <path fill="#958F72" fill-rule="evenodd" d="M28.4 38.573c-.067 0-.1-.033-.1-.1v-.1l3-6.8c0-.1.1-.1.2-.1l12.4 5.4v.1c.067 0 .067.034 0 .1l-2.9 6.8c-.1.1-.2.1-.2.1l-12.4-5.4Zm3.1-6.8-2.9 6.6 12.2 5.3 2.8-6.6-12.1-5.3Z" class="&lt;Compound Path&gt;" clip-rule="evenodd"/>
                </g>
                <g class="&lt;Group&gt;" opacity=".1" style="mix-blend-mode:multiply">
                  <path fill="#958F72" d="M38.4 47.873c-.5.3-1.2.4-1.9.1l-8.2-3.5c-.6-.3-1.1-.9-1.2-1.5l-.4-.1-2.6 5.9 11.9 5.9 2.9-6.6-.5-.2Z" class="&lt;Path&gt;"/>
                  <path fill="#958F72" fill-rule="evenodd" d="m36 54.773-11.9-5.9c-.067-.067-.1-.133-.1-.2l2.6-5.9c0-.1.1-.1.2-.1l.4.2.1.1c0 .5.5 1.1 1.1 1.3l8.2 3.6c.6.2 1.2.2 1.7-.1h.1l.5.2c.067 0 .1.034.1.1v.1l-2.8 6.5-.1.1H36Zm-11.7-6.1 11.7 5.8 2.7-6.3-.3-.1c-.5.3-1.3.3-2 0l-8.1-3.5c-.7-.3-1.2-.9-1.3-1.5l-.2-.1-2.5 5.7Z" class="&lt;Compound Path&gt;" clip-rule="evenodd"/>
                </g>
                <g class="Clip path group">
                  <mask id="c" width="20" height="20" x="26" y="29" class="c" maskUnits="userSpaceOnUse" style="mask-type:luminance">
                    <g class="cp164">
                      <path fill="#fff" d="M27.22 44.553a1.16 1.16 0 0 1-.67-.72.743.743 0 0 1 .09-.66c.59-.89 1.78-2.97 2.37-4.32.82-1.87 1.22-3.28 1.57-4.53.26-.92.49-1.72.83-2.5.36-.82.78-1.46 1.21-1.84.38-.34.75-.46 1.03-.34.47.2 11.33 4.99 11.44 5.04.07.03.1.11.07.18-.03.07-.11.1-.18.07-.14-.06-.39-.02-.72.26-.28.24-.7.73-1.13 1.72-.33.77-.56 1.55-.82 2.46-.35 1.26-.76 2.68-1.58 4.57-.67 1.52-1.98 3.74-2.52 4.55-.25.37-.81.48-1.31.26l-9.67-4.19-.01-.01Zm17.27-9.83c-2.12-.94-10.54-4.65-10.95-4.83-.13-.06-.39-.01-.73.29-.29.25-.71.75-1.15 1.75-.33.77-.55 1.55-.81 2.46-.36 1.26-.76 2.68-1.59 4.57-.62 1.42-1.81 3.48-2.4 4.36-.1.16-.08.33-.05.43.07.23.26.44.52.55l.01.01 9.67 4.19c.38.17.8.1.97-.17.54-.8 1.84-2.99 2.5-4.5.82-1.87 1.22-3.29 1.57-4.53.26-.92.49-1.72.83-2.5.36-.82.77-1.45 1.2-1.81.14-.12.277-.21.41-.27Z" class="Vector"/>
                    </g>
                  </mask>
                  <g class="&lt;Group&gt;" mask="url(#c)">
                    <path fill="#958F72" d="M45 34.773c-.4-.1-1.2.3-2 2.1s-1 3.7-2.4 7c-.6 1.5-1.9 3.7-2.5 4.5-.2.4-.7.5-1.1.3l-9.7-4.2c-.6-.3-.8-.8-.6-1.2.6-.9 1.8-3 2.4-4.4 1.5-3.2 1.6-5.2 2.4-7 .8-1.8 1.7-2.3 2.1-2.1.5.2 11.4 5 11.4 5Z" class="&lt;Path&gt;"/>
                  </g>
                </g>
              </g>
              <g class="&lt;Group&gt;" opacity=".3">
                <path fill="#958F72" d="m44.4 35.973-5.8 13.5 6.4-14.7-12.5-5.4-.5 1.2 12.4 5.4Z" class="&lt;Path&gt;"/>
              </g>
              <g class="&lt;Group&gt;" opacity=".1" style="mix-blend-mode:multiply">
                <g class="Clip path group">
                  <mask id="d" width="16" height="13" x="28" y="31" class="d" maskUnits="userSpaceOnUse" style="mask-type:luminance">
                    <g class="cp165">
                      <path fill="#fff" d="m40.83 43.813-12.39-5.38 2.97-6.81 12.39 5.39-2.97 6.8Z" class="Vector"/>
                    </g>
                  </mask>
                  <g class="&lt;Clip Group&gt;" mask="url(#d)">
                    <path fill="#958F72" d="m31.4 31.573 12.4 5.4-.2.5-1.3 3-12.4-5.5 1.5-3.4Z" class="&lt;Path&gt;"/>
                  </g>
                </g>
              </g>
              <g class="&lt;Group&gt;" opacity=".1" style="mix-blend-mode:multiply">
                <path fill="#958F72" d="M38.4 47.873c-.5.3-1.2.4-1.9.1l-8.2-3.5c-.6-.3-1.1-.9-1.2-1.5l-.4-.1-2.6 5.9 11.9 5.9 2.9-6.6-.5-.2Z" class="&lt;Path&gt;"/>
              </g>
              <g class="Clip path group">
                <mask id="e" width="20" height="20" x="26" y="29" class="e" maskUnits="userSpaceOnUse" style="mask-type:luminance">
                  <g class="cp166">
                    <path fill="#fff" d="M27.22 44.553a1.16 1.16 0 0 1-.67-.72.743.743 0 0 1 .09-.66c.59-.89 2.29-4.12 2.89-5.48.81-1.87 1.05-2.91 1.25-3.82.16-.68.29-1.26.63-2.05.36-.82.78-1.46 1.21-1.84.38-.34.75-.46 1.03-.34.47.2 11.33 4.99 11.44 5.04.07.03.1.11.07.18-.03.07-.11.1-.18.07-.14-.06-.39-.02-.72.26-.28.24-.7.73-1.13 1.72-.33.76-.46 1.34-.61 2-.21.92-.45 1.97-1.28 3.87-.64 1.47-2.46 4.86-3.03 5.71-.25.37-.81.48-1.31.26l-9.67-4.19-.01-.01Zm17.27-9.83c-2.12-.94-10.54-4.65-10.95-4.83-.13-.06-.39-.01-.73.29-.29.25-.71.75-1.15 1.75-.33.76-.46 1.34-.61 2-.21.93-.45 1.97-1.27 3.87-.6 1.37-2.32 4.62-2.92 5.52-.1.16-.08.33-.05.43.07.23.26.44.52.55l.01.01 9.67 4.19c.38.17.8.1.97-.17.57-.84 2.37-4.2 3.01-5.66.82-1.88 1.05-2.91 1.26-3.82.15-.68.29-1.26.63-2.05.36-.82.77-1.45 1.2-1.81.14-.12.277-.21.41-.27Z" class="Vector"/>
                  </g>
                </mask>
                <g class="&lt;Group&gt;" mask="url(#e)">
                  <path fill="#DDDBC1" d="M45 34.773c-.4-.1-1.2.3-2 2.1s-.4 2.6-1.9 5.9c-.6 1.4-2.4 4.8-3 5.6-.2.4-.7.5-1.1.3l-9.7-4.2c-.6-.3-.8-.8-.6-1.2.6-.9 2.3-4.1 3-5.5 1.4-3.3 1-4.1 1.8-5.9.8-1.8 1.7-2.3 2.1-2.1.5.2 11.4 5 11.4 5Z" class="&lt;Path&gt;"/>
                </g>
              </g>
            </g>
            <g class="&lt;Group&gt;">
              <path fill="#B6B178" d="M33.7 29.773c.5.3.6 1.1.2 2-.4.9-1.1 1.4-1.6 1.2a.964.964 0 0 1-.4-.5c-.1-.3.2-.6.4-.5l4.7 2.1" class="&lt;Path&gt;"/>
              <path fill="#958F72" fill-rule="evenodd" d="M32.2 33.073c-.2-.066-.333-.267-.4-.6-.1-.2 0-.4.1-.5.133-.133.3-.167.5-.1l1 .5.4-.6c.3-.8.2-1.7-.2-1.8 0-.1-.1-.2 0-.2 0-.1.1-.1.1-.1.6.3.7 1.2.3 2.2-.067.2-.2.4-.4.6l3.4 1.5c.1 0 .1.1.1.2 0 0-.1.1-.2 0l-3.4-1.5c-.4.4-.9.6-1.3.4Zm0-.9c0-.1-.1 0-.1 0s-.1.1-.1.2c.1.2.2.4.3.5.3.1.6-.1.9-.3l-1-.4Z" class="&lt;Compound Path&gt;" clip-rule="evenodd"/>
            </g>
            <g class="&lt;Group&gt;">
              <path fill="#DDDBC1" d="m44.9 34.773-11.2-5c.5.3.6 1.1.2 2-.4.9-1.1 1.4-1.6 1.2l11.2 5c.5.2 1.2-.3 1.6-1.2.4-.9.3-1.8-.2-2Z" class="&lt;Path&gt;"/>
              <path fill="#958F72" fill-rule="evenodd" d="m43.5 38.073-11.3-5s-.1-.1 0-.2c0 0 .1-.1.1 0 .5.1 1.1-.4 1.5-1.1.3-.8.2-1.7-.2-1.8 0-.1-.1-.2 0-.2 0-.1.1-.1.1-.1l11.3 5c.3.1.5.4.5.8s0 .9-.2 1.3c-.5 1-1.2 1.5-1.8 1.3Zm-10.6-5 10.7 4.7c.4.2 1.1-.3 1.4-1.1.2-.4.3-.8.2-1.1 0-.333-.1-.567-.3-.7l-10.7-4.7c.1.4.1 1-.2 1.7-.3.6-.7 1-1.1 1.2Z" class="&lt;Compound Path&gt;" clip-rule="evenodd"/>
            </g>
            <g class="&lt;Group&gt;" opacity=".3">
              <g class="&lt;Group&gt;">
                <path fill="#958F72" d="m44.1 36.773-10.4-4.6c-.4.6-1 1-1.4.8l11.2 5c.5.2 1.2-.3 1.6-1.2.133-.2.2-.4.2-.6-.4.5-.9.7-1.2.6Z" class="&lt;Path&gt;"/>
              </g>
            </g>
            <g class="&lt;Group&gt;" opacity=".5">
              <g class="&lt;Group&gt;">
                <path fill="#FEFEFE" d="M35.1 31.373c-.1-.1-.1-.1-.1-.2.1-.1.1-.1.2-.1l6.8 3c.1 0 .1.1.1.1-.1.1-.2.1-.2.1l-6.8-2.9Z" class="&lt;Path&gt;"/>
              </g>
              <g class="&lt;Group&gt;">
                <path fill="#FEFEFE" d="M42.5 34.573s-.1-.1 0-.2c0-.1.1-.1.1-.1l1.7.8c.1 0 .1.1.1.2-.1 0-.1.1-.2 0l-1.7-.7Z" class="&lt;Path&gt;"/>
              </g>
            </g>
          </g>
        </g>
      </g>
      <g class="&lt;Group&gt;">
        <g class="&lt;Group&gt;">
          <path fill="#AB795A" d="m43.1 36.573.8-1v-.7c0-.4-.3-.9-.8-.9-.4 0-.6.3-.7.5-.2.4-.2.9-.2.9" class="&lt;Path&gt;"/>
          <path fill="#050505" d="M42.3 34.073c-.067.133-.1.233-.1.3-.2.4-.3 1-.3 1 0 .1.1.2.2.2.2 0 .3-.1.3-.2 0 0 0-.5.2-.8 0 0 .2-.3.5-.3s.6.3.6.6v1c0 .1.1.2.2.2s.2-.1.2-.2l.1-1c-.1-.6-.5-1.1-1.1-1.1-.3 0-.6.1-.8.3Z" class="&lt;Path&gt;"/>
        </g>
      </g>
      <g class="&lt;Group&gt;">
        <g class="&lt;Group&gt;">
          <path fill="#18213B" d="M38.4 38.673c-.1.1-.1.2-.2.1-.1 0-.2-.1-.1-.2 0-.1.1-.1.2-.1 0 0 .1.1.1.2Zm-8.2-2c-.1.1-.2.2-.3.1-.1 0-.2-.1-.1-.2 0-.1.1-.2.2-.1.2 0 .2.1.2.2Zm7.3 3.3c-.1.1-.2.1-.4.1-.1-.1-.2-.2-.1-.3 0-.2.2-.2.3-.2.1.1.2.2.2.4Zm2.9-5.1c.1.2 0 .3-.1.3s-.3 0-.3-.2c-.1-.1 0-.3.1-.3s.3.1.3.2Zm-9 1.9c-.1.1-.2.2-.4.1-.1 0-.2-.2-.1-.3 0-.2.2-.2.3-.2.2.1.3.2.2.4Zm4.1-4.6c0 .1-.1.1-.3.1-.1-.1-.2-.2-.1-.3 0-.1.1-.2.3-.1.1 0 .2.1.1.3Zm1.1 5.9c0 .1-.1.2-.2.2 0-.1-.1-.2 0-.3 0-.1.1-.2.2-.1 0 0 .1.1 0 .2Zm3.8-4.2c0 .067-.033.1-.1.1-.067-.067-.1-.133-.1-.2.067-.067.1-.067.1 0 .067 0 .1.033.1.1Zm-9.9 4.6c.067.067.1.133.1.2-.1 0-.1 0-.2-.1-.067-.066-.067-.133 0-.2 0 0 .1 0 .1.1Zm3.1-5.7c-.2.1-.4.1-.5 0-.1-.1 0-.3.1-.4.1-.1.3-.1.4.1.1.1.1.2 0 .3Z" class="&lt;Path&gt;"/>
        </g>
        <path fill="#18213B" d="M36 37.173c0-.1-.1-.2-.1-.3 0-.1 0-.1.1-.1 0 .1.1.2.1.2v.1c.067 0 .1-.033.1-.1 0 0-.1-.1-.1-.2s.2 0 .2.1c.1 0 0 0 0 .1l.1.1c.1-.1.1-.2.1-.2s.1 0 .2.1l-.1.1c0 .1.2 0 .3 0 0 0 .1 0 .1.1-.1 0-.1 0-.2.1 0 .1.1.2.2.2.1-.1.1-.1.2-.1.1.1.2.1.1.2 0 .1-.1 0-.2.1 0 0 0 .2.1.2s.2-.1.3 0c.1.1.1.2 0 .2h-.3v.3c0 .067-.033.1-.1.1 0 0-.1 0-.1.1-.067.067-.067.167 0 .3.1.1.2.2.2.3-.1.2-.3.2-.4 0v-.4c-.1 0-.1 0-.1.1s-.1.2-.3.1c-.1 0 0-.2 0-.3-.1-.1-.1 0-.2 0h-.3c-.1-.1 0-.2-.1-.3 0-.1-.4-.1-.1-.3 0 0 .1 0 .1-.1s-.2-.2-.3-.2c-.1 0-.2-.1-.2-.2.1-.1.2-.1.3 0 .1 0 .2 0 .2-.1s-.1-.2-.2-.2c-.067-.067-.1-.133-.1-.2 0-.1 0-.2.1-.2.2 0 .2.2.3.3.067.067.1.067.1 0Z" class="&lt;Path&gt;"/>
      </g>
      <g class="&lt;Group&gt;">
        <g class="&lt;Group&gt;">
          <g class="&lt;Group&gt;">
            <path fill="#18213B" d="M19.571 85.205c.086.112-.237.272-.534.233-.41.048-.707.01-.78-.202.012-.1.223-.173.633-.22.297.038.694.09.681.189Z" class="&lt;Path&gt;"/>
          </g>
          <g class="&lt;Group&gt;">
            <path fill="#18213B" d="M39.89 84.814c.285.137.272.237.06.31-.21.073-.72.108-1.004-.03-.185-.124-.172-.224.039-.297.21-.073.707-.01.905.017Z" class="&lt;Path&gt;"/>
          </g>
          <g class="&lt;Group&gt;">
            <path fill="#18213B" d="M20.969 86.092c.086.112-.125.185-.324.16-.21.073-.396-.052-.383-.151-.087-.112.025-.198.323-.16.211-.073.396.052.384.15Z" class="&lt;Path&gt;"/>
          </g>
          <g class="&lt;Group&gt;">
            <path fill="#18213B" d="M38.037 85.884c-.008.066-.083.124-.224.173-.1-.013-.198-.026-.186-.125-.057-.075-.02-.103.112-.086l.298.038Z" class="&lt;Path&gt;"/>
          </g>
          <g class="&lt;Group&gt;">
            <path fill="#18213B" d="M20.442 84.713c.198.025.396.05.284.137 0 0-.31.06-.508.035-.199-.026-.298-.038-.285-.138.1.013.31-.06.509-.034Z" class="&lt;Path&gt;"/>
          </g>
          <g class="&lt;Group&gt;">
            <path fill="#18213B" d="M35.51 85.153c-.112.087-.634.22-.931.182-.397-.051-.47-.262-.259-.336.224-.173.634-.22.931-.182.397.052.483.164.259.336Z" class="&lt;Path&gt;"/>
          </g>
          <g class="&lt;Group&gt;">
            <g class="&lt;Group&gt;" opacity=".2">
              <path fill="#280C43" d="m22.236 85.651 3.605.972c.384.15.892.115 1.302.067l4.767-.995c.932-.182.91-.79-.07-1.017l-3.147-.61c-.285-.138-.694-.09-1.005-.03l-5.125.647c-1.13.156-1.306.738-.327.966Z" class="&lt;Path&gt;"/>
            </g>
            <g class="&lt;Group&gt;">
              <g class="&lt;Group&gt;">
                <path fill="#69499D" d="m27.426 79.064-3.29.48 2.566.434 3.203-.593-2.48-.322Z" class="&lt;Path&gt;"/>
                <path fill="#381B59" fill-rule="evenodd" d="m26.69 80.077-2.566-.433c-.066-.009-.095-.046-.086-.112.008-.066.05-.128.124-.186l3.277-.382 2.479.322c.066.008.128.05.185.125-.008.066-.046.094-.112.086l-3.302.58Zm.723-.914-2.47.385 1.772.33 2.483-.484-1.785-.231Z" class="&lt;Compound Path&gt;" clip-rule="evenodd"/>
              </g>
              <g class="&lt;Group&gt;">
                <path fill="#422973" d="M30.276 79.635c-.173-.225-.57-.276-.793-.103l-2.47.386c-.225.172-.423.146-.608.021l-1.686-.218a.778.778 0 0 0-.82.095l-.822.902c-.336.259-.487.643-.551 1.139l-.037 2.617a.43.43 0 0 0 .345.448l3.494 1.058c.19.091.359.08.508-.035l4.147-.874c.224-.173.349-.358.375-.557l.05-2.716a1.742 1.742 0 0 0-.38-.957l-.752-1.206Z" class="&lt;Path&gt;"/>
                <path fill="#381B59" fill-rule="evenodd" d="m26.315 86.079-3.506-.959-.1-.013c-.185-.124-.357-.349-.319-.646l.037-2.617c-.035-.509.128-.992.464-1.25l.922-.89c.237-.271.647-.32.931-.181l1.686.218c.186.125.285.138.496.064l2.483-.484c.323-.16.806.003.979.227l.764 1.108c.288.373.406.758.354 1.155l.05 2.729c-.039.297-.176.582-.487.643l-4.16.973c-.074.057-.177.078-.31.06-.132-.017-.227-.062-.284-.137Zm4.844-1.59.05-2.717c-.023-.339-.121-.62-.294-.844l-.764-1.108c-.173-.224-.37-.25-.582-.176l-.1-.013-2.482.485c-.211.073-.41.047-.707.009l-1.574-.305-.1-.013c-.198-.025-.396-.051-.52.134l-.923.89c-.237.271-.486.642-.439 1.051l-.036 2.617c-.018.133.036.24.16.324l3.505.958.1.013c.123.084.255.1.396.052l4.06-.987c.212-.073.225-.172.25-.37Z" class="&lt;Compound Path&gt;" clip-rule="evenodd"/>
              </g>
              <g class="&lt;Group&gt;">
                <path fill="#69499D" d="m22.835 84.922 2.837.67c.47.263.905.017.97-.48l-.002-2.319c.026-.198-.147-.422-.333-.547l-2.85-.571c-.37-.25-.905-.017-.87.492l-.098 2.307a.43.43 0 0 0 .346.448Z" class="&lt;Path&gt;"/>
                <path fill="#381B59" fill-rule="evenodd" d="m25.646 85.79-2.837-.67-.1-.013a1.024 1.024 0 0 1-.418-.659l.097-2.307c-.06-.31.065-.495.388-.655.224-.173.521-.134.707-.01l2.837.67.1.014c.185.125.357.349.418.66l-.097 2.306c.06.31-.064.496-.289.668-.14.05-.31.06-.508.035-.075.058-.174.045-.298-.038Zm-2.202-4.016-.099-.013c-.123-.083-.26-.067-.41.048-.14.05-.22.14-.236.272l-.011 2.418c-.017.133.036.24.16.324l2.837.67.099.013a.889.889 0 0 0 .41-.048c.149-.115.232-.239.25-.37l-.003-2.32c.018-.133-.036-.24-.16-.323l-2.837-.67Z" class="&lt;Compound Path&gt;" clip-rule="evenodd"/>
              </g>
              <g class="&lt;Group&gt;">
                <path fill="#69499D" d="m23.9 79.817-.81.802c-.237.272-.19.681.182.931l2.466.42c.371.25.918-.082.87-.491l.043-1.104c.026-.198-.16-.323-.246-.435l-1.686-.219a.778.778 0 0 0-.82.096Z" class="&lt;Path&gt;"/>
                <path fill="#381B59" fill-rule="evenodd" d="m25.712 82.17-2.453-.52-.1-.014c-.19-.091-.333-.278-.431-.56.026-.198.118-.388.275-.569l.81-.803c.237-.271.647-.319.931-.181l1.686.218c.285.138.346.448.42.66l-.043 1.103c-.026.199-.164.483-.375.557-.15.115-.29.164-.422.147l-.298-.039Zm-1.006-2.35-.1-.013c-.198-.025-.396-.051-.52.134l-.91.79a.425.425 0 0 0-.051.397c-.009.066.049.14.172.224l2.467.42.086.112a.89.89 0 0 0 .41-.047c.149-.115.232-.24.25-.371l-.07-1.018c.017-.132-.037-.24-.16-.323l-1.574-.305Z" class="&lt;Compound Path&gt;" clip-rule="evenodd"/>
              </g>
              <g class="&lt;Group&gt;">
                <path fill="#422973" d="m26.638 80.474-.01 4.738c-.05.397.42.66.842.512l3.513-.653c.224-.173.349-.358.375-.557l.05-2.716a.752.752 0 0 0-.63-.586l-4.14-.738Z" class="&lt;Path&gt;"/>
                <path fill="#381B59" fill-rule="evenodd" d="M26.75 85.833c-.186-.125-.345-.448-.32-.647l.01-4.738c.008-.066.045-.095.111-.086.01-.066.046-.095.113-.086l4.126.837c.41-.048.768.301.716.698l.05 2.729c-.039.297-.176.582-.487.643l-3.526.753-.297-.039c-.207.04-.372.02-.496-.064Zm4.41-1.344.036-2.618c.039-.297-.147-.422-.444-.46l-3.941-.713-.083 4.527c.049.14.135.253.259.336.123.083.256.1.397.051l.012-.099 3.514-.654c.21-.073.224-.172.25-.37Z" class="&lt;Compound Path&gt;" clip-rule="evenodd"/>
              </g>
              <g class="&lt;Group&gt;">
                <path fill="#422973" d="m30.996 84.972-3.526.752c-.336.26-.893-.115-.841-.512l-.002-2.32c.026-.198.15-.383.375-.556l3.513-.654c.336-.259.905.017.84.513l.003 2.32a.55.55 0 0 1-.362.457Z" class="&lt;Path&gt;"/>
                <path fill="#381B59" fill-rule="evenodd" d="M26.75 85.833c-.186-.125-.358-.35-.32-.647l-.002-2.32c.04-.297.164-.482.487-.642l3.526-.753c.211-.073.522-.134.794.103.185.125.358.349.332.547l.002 2.32c-.039.297-.177.582-.5.742l-3.526.753c-.074.057-.178.077-.31.06a1.645 1.645 0 0 1-.483-.163Zm4.41-1.344-.003-2.32c.018-.132-.036-.24-.16-.323a.425.425 0 0 0-.396-.052l-.1-.013-3.525.753c-.141.05-.191.177-.15.384l-.098 2.307c.049.14.135.253.259.336.123.083.256.1.397.051.066.009.103-.02.111-.086l3.514-.654c.15-.115.2-.243.15-.383Z" class="&lt;Compound Path&gt;" clip-rule="evenodd"/>
              </g>
              <g class="&lt;Group&gt;">
                <path fill="#422973" d="m29.483 79.532-2.47.385c-.212.074-.35.358-.375.557l-.042 1.104c.047.41.517.672.94.525l3.203-.593c.323-.16.473-.544.202-.78l-.665-1.095c-.173-.225-.57-.276-.793-.103Z" class="&lt;Path&gt;"/>
                <path fill="#381B59" fill-rule="evenodd" d="M26.829 82.112c-.186-.125-.358-.349-.333-.547l-.056-1.117c.038-.297.176-.582.486-.642l2.483-.485c.323-.16.806.003.979.227l.777 1.009c.106.215.114.418.022.607-.034.265-.16.45-.375.557l-.099-.013-3.19.494c-.075.058-.178.078-.31.06-.141.05-.27 0-.384-.15Zm4.06-.986c.018-.132-.003-.236-.06-.31l-.678-.996c-.173-.224-.37-.25-.582-.176l-.1-.013-2.383.498c-.14.049-.22.14-.237.271l-.042 1.104c-.017.132.036.24.16.323.18.158.346.18.495.065l3.19-.494c.141-.05.22-.14.237-.272Z" class="&lt;Compound Path&gt;" clip-rule="evenodd"/>
              </g>
              <g class="&lt;Group&gt;">
                <g class="&lt;Group&gt;">
                  <path fill="#69499D" d="M30.21 77.811c.038-.298-1.423-.689-3.247-.623-1.91-.046-3.363.27-3.401.568-.013.099.005 1.513-.02 1.712.06.31 1.522.701 3.346.635 1.81.033 3.362-.27 3.302-.58.013-.1.093-1.5.02-1.712Z" class="&lt;Path&gt;"/>
                  <path fill="#381B59" fill-rule="evenodd" d="M23.516 79.666c-.058-.075-.082-.145-.074-.211.013-.1.052-.397.004-.806.051-.397.004-.807.017-.906.064-.496 2.112-.734 3.414-.667 1.414-.018 3.496.252 3.432.748-.013.1.048.41-.004.806.048.41-.003.806-.016.906.057.074.049.14-.026.198-.336.259-1.776.476-3.388.468-1.613-.007-3.001-.187-3.36-.536Zm6.582-1.769c.026-.198-1.027-.637-3.148-.61-2.108-.07-3.263.283-3.289.482-.013.099.035.508-.017.905.061.31.01.707.01.707-.009.066.02.104.086.112.173.224 1.449.49 3.16.51 1.712.021 2.954-.221 3.19-.493.013-.1.065-.496.017-.906a3.486 3.486 0 0 0-.01-.707Z" class="&lt;Compound Path&gt;" clip-rule="evenodd"/>
                </g>
                <g class="&lt;Group&gt;" opacity=".2">
                  <path fill="#fff" d="M24.92 78.94c.133.017.203-.007.212-.073a.215.215 0 0 0-.173-.224l-.88-.215a.215.215 0 0 0-.223.173c-.013.099.086.112.172.224l.893.115Z" class="&lt;Path&gt;"/>
                </g>
                <g class="&lt;Group&gt;">
                  <path fill="#422973" d="m27.968 77.218-.063 2.815c1.328-.13 2.259-.312 2.298-.61l-.006-1.513c.039-.297-.927-.624-2.23-.692Z" class="&lt;Path&gt;"/>
                </g>
                <g class="&lt;Group&gt;">
                  <path fill="#8361A9" d="M30.21 77.811c.048.41-1.504.712-3.315.68-1.81-.034-3.285-.326-3.333-.735.038-.298 1.491-.614 3.401-.568 1.824-.066 3.285.325 3.247.623Z" class="&lt;Path&gt;"/>
                  <path fill="#381B59" fill-rule="evenodd" d="M23.536 77.954c-.066-.008-.09-.079-.073-.21.064-.497 2.112-.736 3.414-.668 1.414-.018 3.496.252 3.432.748.058.075.049.14-.026.198-.349.358-1.788.575-3.4.568-1.613-.008-2.989-.287-3.347-.636Zm6.562-.057c.026-.198-1.027-.637-3.148-.61-2.108-.07-3.263.283-3.289.482-.009.066.02.103.086.112.173.224 1.45.49 3.16.51 1.712.02 2.954-.222 3.19-.494Z" class="&lt;Compound Path&gt;" clip-rule="evenodd"/>
                </g>
                <g class="&lt;Group&gt;" opacity=".9">
                  <path fill="#18213B" d="M28.895 77.842c-.026.199-.858.393-1.961.351-1.117.057-1.997-.158-1.97-.356-.074-.211.857-.393 1.973-.45 1.104.042 1.984.257 1.958.455Z" class="&lt;Path&gt;"/>
                </g>
              </g>
            </g>
          </g>
        </g>
        <g class="&lt;Group&gt;">
          <g class="&lt;Group&gt;">
            <path fill="#F1692D" d="M10.782 59.663c-9.376-3.131-8.553 1.412-5.209 5.173l2.82-.743-2.302 1.415c.272.237 2.114 1.585 2.783 1.874 4.627 2.415 6.264-.096 6.264-.096l-.641 1.833 2.826-2.356-.938 1.794c4.279-2.672 7.935 3.348 7.935 3.348-.4-4.69-3.78-8.96-13.538-12.242Z" class="&lt;Path&gt;"/>
            <path fill="#B84F5B" fill-rule="evenodd" d="M24.096 72.078s-.492-.87-1.294-1.68c-.704-.798-1.877-1.858-3.24-2.236-1.05-.203-2.08-.034-3.09.507-.076.058-.142.049-.2-.026-.123-.083-.147-.153-.073-.21l.388-.657-1.917 1.567c-.1-.013-.212.073-.298-.038-.1-.013-.086-.113-.073-.212l.34-1.065c-.225.173-.51.304-.858.393-.564.196-1.242.242-2.035.14-.926-.12-1.925-.452-2.997-.994-.669-.288-2.51-1.636-2.783-1.873-.057-.075-.082-.145-.073-.211.009-.066.05-.128.125-.186L7 64.72l-1.353.329c-.14.049-.24.036-.298-.04-.876-1.02-1.64-2.128-2.02-3.084-.367-1.056-.45-1.975.037-2.617.416-.619 1.195-.921 2.336-.908 1.348-.026 3.05.328 5.105 1.066 2.387.78 4.458 1.653 6.215 2.62 1.69.959 3.109 1.95 4.253 2.972 1.004 1.071 1.801 2.183 2.392 3.335.466 1.069.75 2.248.852 3.539.086.112-.026.198-.125.185-.009.066-.046.095-.112.086-.066-.008-.128-.05-.186-.124ZM5.75 58.808c-1.01.005-1.68.254-2.013.748-.487.643-.206 1.587.015 2.22.393.858.971 1.84 1.847 2.862l2.72-.757c.112-.086.198.026.285.138-.013.1-.026.198-.138.285L6.488 65.56c.656.387 1.941 1.36 2.411 1.623 1.894.952 3.468 1.256 4.735.816.944-.281 1.318-.838 1.318-.838.125-.185.224-.172.324-.16.086.112.172.225.16.324l-.44 1.052 2.142-1.74c.112-.085.211-.073.297.04.1.012.087.111.074.21l-.551 1.14c.862-.427 1.747-.514 2.655-.261 1.561.404 2.735 1.463 3.538 2.273.353.382.645.722.875 1.021-.883-4.854-5.257-8.446-13.27-11.199-2.13-.68-3.8-1.03-5.006-1.052Z" class="&lt;Compound Path&gt;" clip-rule="evenodd"/>
          </g>
          <g class="&lt;Group&gt;" opacity=".2" style="mix-blend-mode:multiply">
            <g class="&lt;Group&gt;">
              <path fill="#422973" d="m8.319 63.881-1.798-.132c-1.493-1.706-2.55-3.658-2.185-4.922-2.026.847-.972 3.605 1.237 6.01l1.565-.403 1.181-.553Z" class="&lt;Path&gt;"/>
            </g>
            <g class="&lt;Group&gt;">
              <path fill="#422973" d="M17.432 67.483c.15-.384-.307-.746-.643-.487l-1.245 1.049.189-.682c.138-.284-.22-.633-.445-.46-.97.479-2.72.756-5.467-.609-.47-.262-1.768-1.136-2.411-1.623l-1.319.837c.272.237 2.114 1.585 2.783 1.874 4.627 2.415 6.264-.096 6.264-.096l-.641 1.833 2.826-2.356-.938 1.794c4.279-2.672 7.935 3.348 7.935 3.348-.057-1.117-4.475-5.925-6.888-4.422Z" class="&lt;Path&gt;"/>
            </g>
          </g>
          <g class="&lt;Group&gt;">
            <path fill="#B84E5A" d="M9.024 61.553c.1.012.211-.074.224-.173a.215.215 0 0 0-.172-.224l-.1-.013c-.198-.026-.31.06-.323.16-.013.099.074.211.272.237l.1.013Z" class="&lt;Path&gt;"/>
          </g>
          <g class="&lt;Group&gt;">
            <path fill="#B84F5B" d="M24.282 72.202c.066.009.103-.02.112-.086.099.013.21-.073.138-.285 0 0-.45-1.974-2.375-4.24-1.168-1.361-2.63-2.526-4.387-3.493-2.066-1.175-4.568-2.105-7.418-2.676-.086-.112-.198-.025-.224.173-.013.099.073.211.173.224 6.282 1.319 9.669 3.976 11.42 6.018 1.925 2.266 2.388 4.141 2.388 4.141.05.141.107.216.173.224Z" class="&lt;Path&gt;"/>
          </g>
          <g class="&lt;Group&gt;" opacity=".2">
            <path fill="#fff" d="M13.972 64.614c.198.026.31-.06.336-.259.026-.198-.06-.31-.26-.336l-2.056-.468c-.186-.125-.31.06-.336.259-.125.185.06.31.259.336l2.057.468Z" class="&lt;Path&gt;"/>
          </g>
          <g class="&lt;Group&gt;">
            <path fill="#B84E5A" d="m24.139 70.974 2.993 7.245s-.63-.586-.806-.004l-2.632-7.702.445.46Z" class="&lt;Path&gt;"/>
          </g>
          <g class="&lt;Group&gt;">
            <path fill="#18213B" d="m28.052 75.01.22.634s-.63-.586-.707.01l-.268-1.044" class="&lt;Path&gt;"/>
          </g>
        </g>
      </g>
      <g class="Group 112">
        <path fill="#393938" d="m98.43 82.507-19.702 1.922c-.203.02-.25.294-.065.38l6.797 3.172a.2.2 0 0 0 .084.019h1.873a.2.2 0 0 1 .142.059l1.377 1.377a.2.2 0 0 0 .155.058l14.469-.965a.2.2 0 0 0 .128-.34l-.847-.848a.2.2 0 0 1 .142-.341h1.836a.2.2 0 0 0 .108-.368l-6.369-4.094a.2.2 0 0 0-.127-.031Z" class="Vector 14"/>
        <g class="&lt;Group&gt;">
          <g class="&lt;Group&gt;">
            <g class="&lt;Group&gt;" opacity=".2">
              <path fill="#27114B" d="m102.7 84.6-2.9-1.1c0-.067-.033-.1-.1-.1l-12 .8v-.1l-10.6.7c-.1 0-.1.1-.1.1l2.9 1.1h.1l3.9-.2 18.7-1.2h.1Z" class="&lt;Path&gt;"/>
            </g>
            <g class="&lt;Group&gt;">
              <g class="&lt;Group&gt;">
                <path fill="#056948" d="M99.4 84.5 80 85.7l-.1-.1-1.7-.5c-.3-.1-.3-.8.1-.8l19.1-1.1 2.1.5c.3.1.3.7-.1.8Z" class="&lt;Path&gt;"/>
              </g>
              <g class="&lt;Group&gt;">
                <path fill="#BDAA97" d="m99.3 84.1-18.9 1.2h-.1l-1.7-.6c-.3-.1-.3-.7.1-.7l18.6-1.2c.067 0 .1.033.1.1l2 .5c.3.1.3.7-.1.7Z" class="&lt;Path&gt;"/>
              </g>
              <g class="&lt;Group&gt;">
                <path fill="#CEC4A3" d="m99.4 83.5-19 1.2h-.1l-1.6-.6c-.3-.1-.3-.7.1-.7l18.6-1.1h.1l1.9.5c.4.1.4.7 0 .7Z" class="&lt;Path&gt;"/>
              </g>
              <g class="&lt;Group&gt;">
                <path fill="#BDAA97" d="m99.5 83-19 1.1h-.1l-1.6-.5c-.4-.2-.3-.8 0-.8l18.7-1.1h.1l1.9.5c.4.1.3.7 0 .8Z" class="&lt;Path&gt;"/>
              </g>
              <g class="&lt;Group&gt;">
                <path fill="#CEC4A3" d="m99.5 82.4-18.9 1.1h-.1l-1.6-.5c-.4-.2-.4-.8 0-.8l18.6-1.1h.1l2 .5c.4.1.3.8-.1.8Z" class="&lt;Path&gt;"/>
              </g>
              <g class="&lt;Group&gt;">
                <path fill="#BDAA97" d="M99.5 81.8 80.6 83h-.2l-1.6-.6c-.3-.1-.3-.7.1-.8l18.6-1.1h.1l1.9.5c.4.1.4.8 0 .8Z" class="&lt;Path&gt;"/>
              </g>
              <g class="&lt;Group&gt;">
                <path fill="#CEC4A3" d="m99.5 81.2-19 1.2h-.1l-1.6-.6c-.4-.1-.3-.7 0-.8l18.7-1.1h.1l1.9.6c.4.1.3.7 0 .7Z" class="&lt;Path&gt;"/>
              </g>
              <g class="&lt;Group&gt;">
                <path fill="#BDAA97" d="m99.3 80.7-18.9 1.1h-.1l-1.7-.6c-.3-.1-.3-.7.1-.7l18.6-1.1h.1l2 .5c.3.1.3.7-.1.8Z" class="&lt;Path&gt;"/>
              </g>
              <g class="&lt;Group&gt;">
                <path fill="#CEC4A3" d="m99.2 80.1-19 1.1h-.1l-1.6-.5c-.4-.2-.3-.8.1-.8l18.6-1.1h.1l1.9.5c.4.1.4.8 0 .8Z" class="&lt;Path&gt;"/>
              </g>
              <g class="&lt;Group&gt;">
                <path fill="#BDAA97" d="m99 79.5-18.9 1.2H80l-1.6-.6c-.4-.1-.3-.7 0-.8L97 78.2h.1l2 .5c.4.1.3.8-.1.8Z" class="&lt;Path&gt;"/>
              </g>
              <g class="&lt;Group&gt;">
                <path fill="#199A71" d="M80.2 80.2c-.2 0-.3.3-.2.5.1.4.3 1.1.4 1.8 0 1-.1 2-.3 2.6 0 .2.2.6.4.5l21.2-1.2c.2 0 .3-.2.3-.3.1-.4.3-1.3.2-2.5 0-1.3-.3-2.1-.4-2.5-.1-.1-.2-.2-.3-.2l-21.3 1.3Z" class="&lt;Path&gt;"/>
              </g>
              <g class="&lt;Group&gt;" opacity=".3">
                <g class="&lt;Group&gt;" opacity=".5">
                  <path fill="#050505" d="M102.2 80.8c-.1.8-.2 1.4-.3 1.7 0 .1-.1.3-.3.3l-21.2 1.3h-.1c-.067.4-.133.733-.2 1 0 .2.2.6.4.5l21.2-1.2c.2 0 .3-.2.3-.3.1-.4.3-1.3.2-2.5v-.8Z" class="&lt;Path&gt;"/>
                </g>
              </g>
              <g class="&lt;Group&gt;">
                <path fill="#8CC641" d="M100.7 79c-.3 0-.4.3-.3.6.1.4.3 1 .4 1.8 0 .9-.1 1.9-.2 2.5-.1.3.1.5.3.5h.1c.2 0 .3-.1.3-.2.1-.4.3-1.3.2-2.5 0-1.3-.3-2.1-.4-2.5-.1-.1-.2-.2-.3-.2h-.1Z" class="&lt;Path&gt;"/>
              </g>
              <g class="&lt;Group&gt;">
                <path fill="#8CC641" d="M81.1 80.2c-.2 0-.4.3-.3.5.2.5.4 1.1.4 1.9.1.9-.1 1.9-.2 2.5 0 .3.1.5.4.5h.1c.1 0 .2-.1.3-.3.1-.4.3-1.2.2-2.5-.1-1.2-.3-2-.5-2.4 0-.1-.2-.2-.3-.2h-.1Z" class="&lt;Path&gt;"/>
              </g>
            </g>
            <g class="&lt;Group&gt;">
              <path fill="#46BB89" d="m101.5 78.9-21.7 1.4c-.067 0-.1-.033-.1-.1l-1.7-.5c-.4-.1-.3-.8.1-.8l19-1.1h.1l4.3 1.1Z" class="&lt;Path&gt;"/>
            </g>
            <g class="&lt;Group&gt;">
              <g class="&lt;Group&gt;">
                <path fill="#70B558" d="M88.6 84c-.9 0-1.7-.3-2.1-.8-.4-.5-.4-1.1.2-1.7.3-.3.8-.5 1.2-.4.4 0 .7.1 1 .4.3.4.2.7.1.8-.2.3-.7.5-1 .4-.2-.1-.3-.2-.4-.5 0-.1.1-.2.3-.2.1 0 .2.1.2.2.1 0 .3 0 .4-.1.1 0 .2-.1 0-.3-.2-.2-.4-.2-.6-.3-.3 0-.7.2-.9.4-.333.333-.367.667-.1 1 .4.6 1.8.9 2.8.2.4-.2.7-.5.9-.8.2-.133.4-.3.6-.5.4-.4 1.5-1.2 2.4-1.3 1.4-.2 2.5.4 2.6 1.3.1.4 0 .8-.4 1.1-.3.4-.9.6-1.6.4-.533-.067-.833-.3-.9-.7 0-.3.2-.7.5-.8.4-.2.8-.1 1 .2.1.1.1.2 0 .3-.1.1-.3.1-.4 0-.1-.2-.3-.1-.4-.1-.1.1-.2.2-.2.3 0 .1.1.3.5.3.5.2.9.1 1.2-.2.2-.2.3-.5.3-.8-.2-.7-1.2-.9-2.2-.8-.7.1-1.7.7-2.1 1.1l-.5.5c-.3.3-.6.6-1 .9-.4.3-.9.4-1.4.5Z" class="&lt;Path&gt;"/>
              </g>
              <g class="&lt;Group&gt;">
                <path fill="#70B558" d="M91.8 83.4c-.1 0-.2-.1-.3-.2 0-.9.4-1.5.8-2.1l.1-.1c.1-.2.2-.2.3-.1.2.1.2.2.1.3l-.1.2c-.4.6-.7 1-.7 1.7 0 .1-.1.3-.2.3Z" class="&lt;Path&gt;"/>
              </g>
              <g class="&lt;Group&gt;">
                <path fill="#70B558" d="M90.6 81.7c-.2 0-.367-.033-.5-.1 0 0-.1-.1-.1-.2.1-.1.2-.1.2-.1.4.2.9 0 1.3-.2.067 0 .133-.033.2-.1l1.2-.3c.2-.067.367-.1.5-.1.1 0 .1 0 .2.1 0 .1-.1.1-.1.2-.2 0-.367.033-.5.1-.4.1-.8.1-1.2.3-.067 0-.133.033-.2.1-.3.1-.6.3-1 .3Z" class="&lt;Path&gt;"/>
              </g>
              <g class="&lt;Group&gt;">
                <g class="&lt;Group&gt;">
                  <path fill="#07744F" d="M89 80.8c.1.3 0 .5.4.7.4.3 1.4.1 1.4-.4 0-.9-2.2-1.1-2.3-1 0 .1.4.4.5.7Z" class="&lt;Path&gt;"/>
                </g>
              </g>
              <g class="&lt;Group&gt;">
                <g class="&lt;Group&gt;">
                  <path fill="#07744F" d="M92.8 83.8c0-.3.1-.5-.1-.8-.4-.4-1.4-.5-1.6 0-.2.8 1.9 1.7 2 1.6 0-.1-.3-.5-.3-.8Z" class="&lt;Path&gt;"/>
                </g>
              </g>
              <g class="&lt;Group&gt;">
                <path fill="#70B558" d="M87.2 84.7c-.7 0-1.3-.1-1.8-.2 0 0-.1-.1 0-.2 0-.1.1-.1.1-.1.5.2 1.4.2 2.2.1 1-.1 1.6-.4 1.8-.8 0-.1.1-.1.2-.1s.1.1.1.2c-.4.7-1.5 1-2.6 1.1Z" class="&lt;Path&gt;"/>
              </g>
              <g class="&lt;Group&gt;">
                <path fill="#70B558" d="M93.1 81c-.1 0-.2 0-.2-.1s.1-.2.1-.2c.2 0 .367-.033.5-.1.133-.066.3-.133.5-.2.5-.1 1.3-.1 1.8 0 .1 0 .1.1.1.2s-.1.1-.2.1c-.4-.2-1.2-.1-1.7 0-.133 0-.233.033-.3.1-.2.1-.4.2-.6.2Z" class="&lt;Path&gt;"/>
              </g>
            </g>
          </g>
          <g class="&lt;Group&gt;">
            <g class="&lt;Group&gt;" opacity=".2">
              <path fill="#27114B" d="m100.5 78.8-2.9-1.1-.1-.1-3.9.3-15 .9c-.1 0-.1.1-.1.1l2.9 1.1h.2l3.8-.2 15-.9c.1 0 .1-.1.1-.1Z" class="&lt;Path&gt;"/>
            </g>
            <g class="&lt;Group&gt;">
              <g class="&lt;Group&gt;">
                <path fill="#EE4763" d="m97.2 78.7-15.6.9h-.1l-1.7-.5c-.4-.1-.3-.8 0-.8l15.3-.9h.1l2.1.5c.3.1.3.7-.1.8Z" class="&lt;Path&gt;"/>
              </g>
              <g class="&lt;Group&gt;">
                <path fill="#BDAA97" d="m97.1 78.3-15.2 1h-.1l-1.6-.6c-.4-.1-.3-.7 0-.8l14.9-.9c.067 0 .1.033.1.1l2 .5c.3.1.3.7-.1.7Z" class="&lt;Path&gt;"/>
              </g>
              <g class="&lt;Group&gt;">
                <path fill="#CEC4A3" d="m97.2 77.8-15.2.9h-.1l-1.7-.6c-.3-.1-.3-.7.1-.7l14.9-.9h.1l1.9.5c.4.1.4.7 0 .8Z" class="&lt;Path&gt;"/>
              </g>
              <g class="&lt;Group&gt;">
                <path fill="#BDAA97" d="m97.3 77.2-15.3.9h-.1l-1.6-.6c-.4-.1-.3-.7.1-.7l14.9-.9 2 .5c.4.1.3.7 0 .8Z" class="&lt;Path&gt;"/>
              </g>
              <g class="&lt;Group&gt;">
                <path fill="#CEC4A3" d="m97.3 76.6-15.2.9H82l-1.6-.6c-.4-.1-.3-.7 0-.7l14.9-.9h.1l2 .5c.3.1.3.8-.1.8Z" class="&lt;Path&gt;"/>
              </g>
              <g class="&lt;Group&gt;">
                <path fill="#BDAA97" d="m97.3 76-15.2.9c-.067.067-.1.067-.1 0l-1.7-.5c-.3-.2-.3-.8.1-.8l14.9-.9h.1l1.9.5c.4.1.4.8 0 .8Z" class="&lt;Path&gt;"/>
              </g>
              <g class="&lt;Group&gt;">
                <path fill="#CEC4A3" d="m97.3 75.4-15.3 1h-.1l-1.6-.6c-.3-.1-.3-.7.1-.8l14.9-.9 2 .6c.4.1.3.7 0 .7Z" class="&lt;Path&gt;"/>
              </g>
              <g class="&lt;Group&gt;">
                <path fill="#BDAA97" d="m97.1 74.9-15.2.9h-.1l-1.6-.6c-.4-.1-.3-.7 0-.7l14.9-.9h.1l2 .5c.3.1.3.7-.1.8Z" class="&lt;Path&gt;"/>
              </g>
              <g class="&lt;Group&gt;">
                <path fill="#CEC4A3" d="m97 74.3-15.2.9h-.1l-1.7-.6c-.3-.1-.3-.7.1-.7L95 73h.1l1.9.5c.4.1.4.8 0 .8Z" class="&lt;Path&gt;"/>
              </g>
              <g class="&lt;Group&gt;">
                <path fill="#BDAA97" d="m96.8 73.7-15.2 1-.1-.1-1.6-.5c-.4-.1-.3-.8 0-.8l14.9-.9h.1l2 .5c.3.1.3.8-.1.8Z" class="&lt;Path&gt;"/>
              </g>
              <g class="&lt;Group&gt;">
                <path fill="#E63E5E" d="M81.7 74.1c-.2 0-.3.3-.2.6.1.4.3 1 .4 1.8 0 .9-.1 2-.2 2.6-.1.2.1.5.3.5l17.5-1c.2 0 .3-.2.3-.3.1-.4.3-1.3.2-2.5 0-1.3-.3-2.1-.4-2.5-.1-.1-.2-.2-.4-.2l-17.5 1Z" class="&lt;Path&gt;"/>
              </g>
              <g class="&lt;Group&gt;" opacity=".3">
                <g class="&lt;Group&gt;" opacity=".5">
                  <path fill="#050505" d="M100 75c-.1.8-.2 1.4-.3 1.7 0 .1-.1.3-.3.3l-17.5 1.1h-.1c0 .4-.033.733-.1 1-.1.2.1.5.3.5l17.5-1c.2 0 .3-.2.3-.3.1-.4.3-1.3.2-2.5V75Z" class="&lt;Path&gt;"/>
                </g>
              </g>
              <g class="&lt;Group&gt;">
                <path fill="#F69226" d="M98.5 73.2c-.3 0-.4.3-.3.6.1.4.3 1 .4 1.8 0 .9-.1 1.9-.2 2.5-.1.3.1.5.3.5h.1c.1 0 .3-.1.3-.2.1-.4.3-1.3.2-2.5 0-1.3-.3-2.1-.4-2.5-.1-.1-.2-.2-.4-.2Z" class="&lt;Path&gt;"/>
              </g>
              <g class="&lt;Group&gt;">
                <path fill="#F69226" d="M97 73.3c-.3 0-.4.3-.3.6.1.4.3 1 .4 1.8 0 .9-.1 1.9-.2 2.5-.1.3.1.5.3.5h.1c.1 0 .3-.1.3-.2.1-.4.3-1.3.2-2.5 0-1.3-.3-2.1-.5-2.5 0-.1-.1-.2-.3-.2Z" class="&lt;Path&gt;"/>
              </g>
              <g class="&lt;Group&gt;">
                <path fill="#F69226" d="M84.4 74.1c-.2 0-.4.3-.3.5.2.4.4 1.1.5 1.8 0 1-.2 2-.3 2.6 0 .2.2.5.4.5h.1c.1 0 .2-.1.3-.3.1-.4.3-1.3.2-2.5-.1-1.2-.3-2-.5-2.4 0-.1-.2-.2-.3-.2h-.1Z" class="&lt;Path&gt;"/>
              </g>
              <g class="&lt;Group&gt;">
                <path fill="#F69226" d="M82.9 74.2c-.2 0-.4.2-.3.5.2.4.4 1 .5 1.8 0 .9-.2 2-.3 2.6 0 .2.1.5.4.5l.1-.1c.1 0 .2-.1.3-.2.1-.4.3-1.3.2-2.5-.1-1.2-.3-2-.5-2.4 0-.2-.2-.2-.3-.2h-.1Z" class="&lt;Path&gt;"/>
              </g>
            </g>
            <g class="&lt;Group&gt;">
              <path fill="#F69226" d="m85.8 76.5 4.8-1.8 5.2 1.3-5.2 1.8-4.8-1.3Z" class="&lt;Path&gt;"/>
            </g>
            <g class="&lt;Group&gt;">
              <path fill="#EE4763" d="m99.2 73.1-17.9 1.1h-.1l-1.7-.5c-.3-.2-.3-.8.1-.8l15.3-.9h.1l4.2 1.1c.1 0 .1 0 0 0Z" class="&lt;Path&gt;"/>
            </g>
          </g>
        </g>
      </g>
    </g>
  </g>
</svg>
