<svg xmlns="http://www.w3.org/2000/svg" width="153" height="62" fill="none" viewBox="0 0 153 62">
  <g class="3-24-texto">
    <g class="&lt;Group&gt;">
      <g class="&lt;Group&gt;">
        <path fill="#ED4592" d="M131.996 26.317 65.34 24.359l-.011-4.937 66.643 1.859.024 5.036Z" class="&lt;Path&gt;"/>
      </g>
      <g class="&lt;Group&gt;">
        <path fill="#ED4592" d="M75.472 37.706 21.187 36.39l-.123-5.023L75.46 32.77l.012 4.936Z" class="&lt;Path&gt;"/>
      </g>
      <g class="&lt;Group&gt;">
        <path fill="#ED4592" d="M152.011 41.224 92.885 38.9l-.239-4.92 59.193 2.215.172 5.03Z" class="&lt;Path&gt;"/>
      </g>
      <g class="&lt;Group&gt;">
        <g class="&lt;Group&gt;">
          <path fill="#FEFEFE" fill-rule="evenodd" d="M14.338 17.826c1.018.075 2.134.137 1.526 3.337-.534 2.99-1.527 3.113-3.04 3.1l-.607-.025 1.216-6.4.905-.012Zm-.31.744-.894 4.95c1.415.024 1.65-1.315 1.824-2.345.174-1.03.571-2.691-.93-2.605Z" class="&lt;Compound Path&gt;" clip-rule="evenodd"/>
          <path fill="#FEFEFE" d="m16.868 24.363-.819-.1 1.118-6.387h.806l-1.105 6.487Zm.782-6.648-.434-.248.943-1.327.459.447-.968 1.128Z" class="&lt;Compound Path&gt;"/>
          <path fill="#FEFEFE" fill-rule="evenodd" d="m20.404 17.976.297 6.413-.906.012-.062-1.302-1.203.049-.459 1.166-.905.012 2.63-6.375.608.025Zm-.658 3.61v-2.42l-1.104 3.262 1.116.063-.012-.906Z" class="&lt;Compound Path&gt;" clip-rule="evenodd"/>
          <path fill="#FEFEFE" d="m24.075 19.936-.236 2.146-.41 2.369-.905.012 1.216-6.4h.807l.607 4.863.285-2.555.422-2.27h.807L25.55 24.49h-.806l-.62-4.962-.049.41Z" class="&lt;Compound Path&gt;"/>
          <path fill="#FEFEFE" fill-rule="evenodd" d="m29.086 18.101.21 6.525-.819-.1-.049-1.203-1.215-.05-.447 1.265-.906.013 2.52-6.462.706.012Zm-.558 3.597.012-2.32-1.104 3.263 1.005-.025.087-.918Z" class="&lt;Compound Path&gt;" clip-rule="evenodd"/>
          <path fill="#FEFEFE" d="M33.142 19.107a.764.764 0 0 0-.52-.137c-1.117-.062-1.502 1.7-1.601 2.518-.199.83-.41 2.369.805 2.419l.497-.062-.112.72c-.256.098-.484.16-.682.185-1.824-.075-1.65-1.91-1.414-3.25s.782-3.423 2.506-3.336c.298-.037.509.037.72.112l-.199.83Zm.297 5.606-.819-.1 1.117-6.387.906-.012-1.204 6.5Z" class="&lt;Compound Path&gt;"/>
          <path fill="#FEFEFE" fill-rule="evenodd" d="M38.078 21.514c-.248 1.24-.596 3.3-2.308 3.311-1.624-.1-1.277-2.158-1.028-3.398.161-1.13.608-3.2 2.22-3.2 1.712-.012 1.277 2.158 1.116 3.287Zm-2.419 0c-.235 1.34-.397 2.468.31 2.48.608.025.968-1.128 1.204-2.468.235-1.34.397-2.468-.31-2.48-.707-.013-.968 1.128-1.204 2.468Z" class="&lt;Compound Path&gt;" clip-rule="evenodd"/>
          <path fill="#FEFEFE" d="m39.74 20.299-.335 2.158-.41 2.369-.818-.1 1.117-6.387h.806l.62 4.961.1-.012.173-2.642.422-2.27.906-.012-1.204 6.5-.707-.013-.632-5.061-.087.111.05.398Z" class="&lt;Compound Path&gt;"/>
          <path fill="#FEFEFE" fill-rule="evenodd" d="m44.752 18.464.197 6.425-.905.012.037-1.315-1.302.062-.46 1.166h-.806l2.532-6.363.707.013Zm-.658 3.609.1-2.431-1.105 3.262 1.017.075-.012-.906Z" class="&lt;Compound Path&gt;" clip-rule="evenodd"/>
          <path fill="#FEFEFE" d="m47.282 18.55-1.006 5.67 1.414.024-.111.72-2.32-.013 1.204-6.5.819.1Z" class="&lt;Compound Path&gt;"/>
          <path fill="#FEFEFE" fill-rule="evenodd" d="M51.524 18.626c1.005-.025 2.233.124 1.624 3.324-.533 2.99-1.526 3.113-3.138 3.113l-.509-.037 1.105-6.487.918.087Zm-.21.732-.882 5.048c1.414.025 1.55-1.302 1.712-2.431.186-.93.583-2.592-.83-2.617Z" class="&lt;Compound Path&gt;" clip-rule="evenodd"/>
          <path fill="#FEFEFE" d="m56.672 18.689-.112.72-1.414-.026-.447 2.071 1.315.038-.112.72-1.315-.038-.335 2.158 1.414.025-.112.72-2.32-.013 1.118-6.388 2.32.013Zm2.828.05-1.006 5.668 1.414.025-.1.819-2.331-.112 1.216-6.4h.806Z" class="&lt;Compound Path&gt;"/>
          <path fill="#FEFEFE" fill-rule="evenodd" d="m62.836 18.826.297 6.413-.906.012-.05-1.203-1.215-.05-.447 1.265-.917-.087 2.63-6.375.608.025Zm-.658 3.61.013-2.32-1.105 3.262 1.104-.037-.012-.905Z" class="&lt;Compound Path&gt;" clip-rule="evenodd"/>
        </g>
        <g class="&lt;Group&gt;">
          <path fill="#FEFEFE" fill-rule="evenodd" d="m2.28 36.665 1.117-6.387 1.004-.025c.707.012 1.724.087 1.426 1.736-.235 1.34-.868 1.923-2.183 1.885l-.559 2.791H2.28Zm1.91-5.68-.434 2.17c.707.013 1.067-.335 1.178-1.054.124-.62-.037-1.104-.644-1.129l-.1.013Zm4.961 2.605c-.26 1.141-.695 3.312-2.32 3.212-1.612 0-1.277-2.158-1.116-3.287.261-1.14.696-3.312 2.308-3.311 1.625.1 1.29 2.257 1.128 3.386Zm-2.53-.087c-.236 1.34-.286 2.555.322 2.58.707.012.968-1.129 1.29-2.58.236-1.34.298-2.456-.31-2.48-.706-.013-1.066 1.14-1.302 2.48Zm3.746-3.088 1.005-.025c.608.025 1.625.1 1.315 1.65-.124.62-.51 1.575-1.204 1.662l.595 3.15h-.806l-.595-3.15-.1.012-.52 3.089-.906.012 1.216-6.4Zm1.439 1.836c.124-.62.161-1.129-.546-1.141l-.099.012-.434 2.17c.707.013.955-.42 1.079-1.041Z" class="&lt;Compound Path&gt;" clip-rule="evenodd"/>
          <path fill="#FEFEFE" d="m16.123 30.503-1.105 5.68 1.513.013-.211.732-2.22-.025 1.117-6.388.906-.012Z" class="&lt;Compound Path&gt;"/>
          <path fill="#FEFEFE" fill-rule="evenodd" d="m19.46 30.59.197 6.425-.906.012.037-1.314-1.314-.038-.447 1.265h-.806l2.531-6.362.707.012Zm-.671 3.51.112-2.332-1.105 3.262 1.017.075-.024-1.005Z" class="&lt;Compound Path&gt;" clip-rule="evenodd"/>
        </g>
        <g class="&lt;Group&gt;">
          <path fill="#FEFEFE" d="m80.447 32.349.173 3.002.099-.013.199-.83.943-2.134.905-.012-1.861 3.658-.46 2.779h-.806l.46-2.779-.657-3.647 1.005-.024Zm5.048.075-1.006 5.668 1.427.125-.112.719-2.332-.112 1.217-6.4h.806Z" class="&lt;Compound Path&gt;"/>
          <path fill="#FEFEFE" fill-rule="evenodd" d="m88.831 32.511.297 6.413-.906.012-.049-1.203-1.215-.05-.447 1.266-.918-.088 2.63-6.374.608.024Zm-.658 3.61.013-2.32-1.104 3.262 1.104-.037-.013-.905Z" class="&lt;Compound Path&gt;" clip-rule="evenodd"/>
        </g>
        <g class="&lt;Group&gt;">
          <g class="&lt;Group&gt;">
            <path fill="#FEFEFE" d="m73.173 25.95-.707-.012-1.24-2.667-.546 3.696-2.729-.062 1.502-8.955 2.431.1 1.736 3.41 2.804-3.373 2.431.1-1.403 8.943-2.729-.063.646-3.708-2.196 2.592Zm9.427-5.207-.198.83 3.535.063-.41 2.37-3.436-.076-.21.732 3.832.025-.385 2.568-6.462-.1 1.403-8.943 6.561.088-.484 2.58-3.746-.137Zm9.265 5.595h-.806l-1.24-2.667-.546 3.696-2.73-.062 1.503-8.955h2.419l1.748 3.51 2.804-3.373h2.419l-1.404 8.943-2.728-.062.645-3.709-2.084 2.68Z" class="&lt;Compound Path&gt;"/>
            <path fill="#FEFEFE" fill-rule="evenodd" d="M103.488 18.538c1.34-.033 2.369.41 3.089 1.328.793.976 1.066 2.084.818 3.324-.174 1.298-.778 2.381-1.812 3.25-1.091.942-2.278 1.392-3.56 1.351-1.348-.033-2.414-.505-3.2-1.415-.719-.918-.992-2.026-.818-3.324.24-1.306.877-2.394 1.91-3.262a5.183 5.183 0 0 1 3.573-1.252Zm-1.08 6.686c.538 0 1.017-.195 1.439-.583.422-.389.695-.893.819-1.513.066-.546-.029-1.038-.285-1.476a1.534 1.534 0 0 0-1.29-.646c-.537 0-1.05.199-1.538.596-.422.388-.662.888-.72 1.5-.132.554-.037 1.046.285 1.476.323.43.753.645 1.29.646Zm13.631 2.631h-3.225l-1.5-2.332-.298.037-.335 2.158-2.717.037 1.503-8.955 3.634.05c.099-.013.198-.025.719.112.422.148.831.198 1.377.533.446.348.806.806.905 1.6.108.323.124.724.05 1.204-.183 1.232-.844 2.12-1.985 2.666l1.872 2.89Zm-4.241-6.525-.298 1.65 1.017.075c.472.008.773-.265.906-.819.037-.509-.211-.88-.608-.831l-1.017-.075Z" class="&lt;Compound Path&gt;" clip-rule="evenodd"/>
            <path fill="#FEFEFE" d="m116.746 27.868 1.502-8.955 2.63.075-1.403 8.942-2.729-.062Z" class="&lt;Compound Path&gt;"/>
            <path fill="#FEFEFE" fill-rule="evenodd" d="m127.749 19.137 1.934 9.03-2.927-.037-.223-.98-2.828-.05-.484.967-2.94-.137 4.74-8.855 2.728.063Zm-2.841 5.495 1.216.05-.236-1.886-.98 1.836Z" class="&lt;Compound Path&gt;" clip-rule="evenodd"/>
          </g>
        </g>
        <g class="&lt;Group&gt;">
          <g class="&lt;Group&gt;">
            <path fill="#FEFEFE" d="m26.515 38.678-2.729-.062-1.821-8.943 2.927.037.867 5.334 2.569-5.259 2.927.038-4.74 8.855Zm7.791-6.213-.1.82 3.535.062-.422 2.27-3.535-.063-.1.819 3.834.025-.385 2.567-6.475-.2 1.403-8.942 6.475.2-.398 2.468-3.832-.026Z" class="&lt;Compound Path&gt;"/>
            <path fill="#FEFEFE" fill-rule="evenodd" d="m46.423 39.116-3.337-.088-1.488-2.233-.198.025-.335 2.158-2.73-.062 1.416-8.843 3.734.037c.099-.012.198-.024.72.112.408.05.83.199 1.376.534.446.347.806.806.893 1.5.115.39.136.823.061 1.303-.248 1.24-.91 2.13-1.985 2.666l1.873 2.89Zm-4.34-6.513-.199 1.637 1.017.075c.471.008.74-.26.806-.806.137-.521-.111-.893-.508-.844l-1.116-.062Zm5.047 6.525 1.502-8.955 3.535.063c1.348.033 2.344.48 2.989 1.34.72.918.988 1.993.806 3.225-.24 1.306-.844 2.39-1.812 3.25-.976.793-2.104 1.169-3.386 1.127l-3.634-.05Zm3.647-6.3-.62 3.907.905-.012c.538 0 .984-.19 1.34-.57.364-.315.612-.749.744-1.303.066-.546-.029-1.038-.285-1.476-.248-.372-.608-.562-1.079-.57l-1.005.024Zm11.908-2.293 1.822 8.943-2.828-.05-.21-.88-2.94-.137-.385.955-2.927-.038 4.74-8.855 2.728.062Zm-2.854 5.395 1.216.05-.335-1.873-.88 1.823Zm5.581 3.536 1.416-8.843 3.535.062c1.348.033 2.377.476 3.088 1.328.645.86.88 1.939.707 3.237-.183 1.232-.758 2.278-1.725 3.138-.976.794-2.134 1.207-3.473 1.24l-3.548-.162Zm3.636-6.4-.621 3.907 1.004-.024a1.81 1.81 0 0 0 1.253-.459c.356-.38.6-.847.732-1.401.067-.546-.024-1.005-.272-1.377-.257-.439-.62-.662-1.092-.67l-1.004.024Z" class="&lt;Compound Path&gt;" clip-rule="evenodd"/>
          </g>
        </g>
        <g class="&lt;Group&gt;">
          <g class="&lt;Group&gt;">
            <path fill="#FEFEFE" d="m91.348 38.95 2.27-1.191c.273.57.612.864 1.017.88.472.009.72-.156.745-.495l1.055-6.078 2.63.075-1.031 6.276c-.108.752-.53 1.41-1.266 1.972a3.918 3.918 0 0 1-2.518.818c-.818-.1-1.562-.41-2.021-.856-.36-.459-.72-.918-.856-1.203l-.025-.199Zm11.287 2.42c-.099.012-.211-.075-.719-.112a5.02 5.02 0 0 1-1.489-.62c-.446-.348-.818-.906-1.016-1.687-.05-.397-.042-.869.025-1.414l.844-5.346 2.729.062-.931 5.458.049.397c.017.132.062.227.136.285.124.186.36.459.757.41.339.024.6-.042.781-.2.24-.23.385-.417.435-.557l.062-.31.931-5.458 2.729.063-.944 5.358c-.174 1.03-.571 1.885-1.117 2.357a3.873 3.873 0 0 1-.831.607c-.942.521-1.836.633-2.232.682l-.199.025Zm7.133-3.41c.562.736 1.211 1.092 1.947 1.067.537 0 .823-.136.856-.41.049-.14-.066-.26-.348-.359a9.816 9.816 0 0 1-1.066-.471 27.518 27.518 0 0 1-1.178-.559 2.952 2.952 0 0 1-.918-.893 1.712 1.712 0 0 1-.174-1.39c.038-.508.36-1.153.894-1.723.533-.57 1.588-1.005 2.902-.967.906-.012 1.749.285 2.208.732.546.335.905.794 1.042 1.08l.124.185-2.047 1.364c-.314-.364-.579-.6-.794-.707-.215-.107-.525-.17-.93-.186-.409-.05-.682.186-.67.285-.062.31.372.558 1.005.782.281.1.599.227.955.385.355.157.682.351.98.583.223.173.425.45.607.83.182.381.232.778.149 1.191-.137.521-.459 1.166-1.092 1.75-.633.582-1.687 1.016-3.002.979-1.009-.009-1.811-.245-2.406-.708-.595-.463-.959-.955-1.091-1.476l2.047-1.364Zm9.216-2.864-2.431-.1.397-2.468 7.678.15-.397 2.469-2.518.012-1.019 6.375-2.728-.063 1.018-6.375Zm5.246 6.5 1.403-8.942 2.629.075-1.403 8.942-2.629-.075Zm13.88-3.446c-.397 1.125-1.088 2.051-2.072 2.779-.984.727-2.051 1.062-3.2 1.004-1.348-.034-2.415-.505-3.2-1.415-.72-.918-.992-2.026-.818-3.324.248-1.24.885-2.328 1.91-3.262a5.185 5.185 0 0 1 3.573-1.252c1.149.058 2.104.443 2.865 1.154.769.777 1.157 1.737 1.165 2.878l-2.828-.05c-.124-.455-.302-.803-.533-1.042a1.791 1.791 0 0 0-1.054-.373c-.538 0-1.017.195-1.439.583-.488.397-.765.868-.831 1.414-.125.62-.025 1.145.297 1.575.322.43.752.645 1.29.645.405.017.794-.099 1.166-.347.372-.248.666-.587.881-1.017l2.828.05Zm.371 3.784 1.502-8.955 2.63.075-1.403 8.942-2.729-.062Z" class="&lt;Compound Path&gt;"/>
            <path fill="#FEFEFE" fill-rule="evenodd" d="m149.484 33.203 1.921 8.931-2.927-.038-.211-.88-2.84-.15-.484.968-2.927-.038 4.74-8.855 2.728.062Zm-2.853 5.395 1.215.05-.235-1.885-.98 1.835Z" class="&lt;Compound Path&gt;" clip-rule="evenodd"/>
          </g>
        </g>
      </g>
    </g>
  </g>
</svg>
