<svg xmlns="http://www.w3.org/2000/svg" width="130" height="48" fill="none" viewBox="0 0 130 48">
  <g class="4-2-texto">
    <g class="&lt;Group&gt;">
      <g class="&lt;Group&gt;">
        <path fill="#ED4592" d="M119.387 14.462 54.043 12.4l.102-4.709 65.344 2.061-.102 4.709Z" class="&lt;Path&gt;"/>
      </g>
      <g class="&lt;Group&gt;">
        <path fill="#ED4592" d="m85.383 26.999-49.42-1.817.332-4.017 49.194 1.226-.106 4.608Z" class="&lt;Path&gt;"/>
      </g>
      <g class="&lt;Group&gt;">
        <path fill="#ED4592" d="M53.718 38.037 1.32 36.834l.007-4.605 52.392 1.104-.002 4.704Z" class="&lt;Path&gt;"/>
      </g>
      <g class="&lt;Group&gt;">
        <path fill="#ED4592" d="M129.303 40.869 62.956 38.75l.106-4.608 66.344 2.018-.103 4.709Z" class="&lt;Path&gt;"/>
      </g>
      <g class="&lt;Group&gt;">
        <g class="&lt;Group&gt;">
          <path fill="#FEFEFE" fill-rule="evenodd" d="M9.155 6.486c.904.062 2.007.116 1.437 3.243-.486 2.722-1.48 2.864-2.884 2.823l-.6.025 1.148-6.053.9-.038Zm-.175.608-.901 4.742c1.303.045 1.452-1.162 1.706-2.274.162-.907.494-2.523-.805-2.468Z" class="&lt;Compound Path&gt;" clip-rule="evenodd"/>
          <path fill="#FEFEFE" d="m11.514 12.593-.8.033 1.047-6.05.804.067-1.051 5.95Zm.734-6.337-.412-.283.953-1.14.417.382-.958 1.041Z" class="&lt;Compound Path&gt;"/>
          <path fill="#FEFEFE" fill-rule="evenodd" d="m14.867 6.647.256 6.094-.904-.062.05-1.203-1.199.05-.454 1.12-.799.034 2.45-6.008.6-.025Zm-.66 3.33.106-2.206-1.072 3.048 1.003.057-.038-.899Z" class="&lt;Compound Path&gt;" clip-rule="evenodd"/>
          <path fill="#FEFEFE" d="m18.348 8.502-.312 2.115-.407 2.22-.804-.067 1.147-6.053.804.066.493 4.583.1-.004.199-2.41.407-2.22.803.067-1.147 6.053-.703-.07-.597-4.68.017.4Z" class="&lt;Compound Path&gt;"/>
          <path fill="#FEFEFE" fill-rule="evenodd" d="m23.08 6.802.157 6.1-.8.033-.05-1.2-1.203-.049-.45 1.22-.703-.07 2.35-6.004.7-.03Zm-.56 3.327.007-2.202-.969 3.143.9-.038.062-.903Z" class="&lt;Compound Path&gt;" clip-rule="evenodd"/>
          <path fill="#FEFEFE" d="M26.923 7.742c-.204-.092-.303-.087-.507-.179-1.1.046-1.432 1.662-1.602 2.37-.167.807-.404 2.318.7 2.372.2-.008.398-.05.595-.125l-.17.708c-.195.141-.427.184-.696.13-1.603-.034-1.474-1.74-1.329-3.048.25-1.211.77-3.135 2.472-3.106.2-.009.404.083.608.174l-.07.704Zm.223 5.295-.804-.066 1.147-6.054.804.067-1.147 6.053Z" class="&lt;Compound Path&gt;"/>
          <path fill="#FEFEFE" fill-rule="evenodd" d="M31.524 10.051c-.253 1.112-.669 3.13-2.172 3.094-1.602-.033-1.187-2.052-1.033-3.16.154-1.107.573-3.026 2.176-2.994 1.503.037 1.187 2.052 1.03 3.06Zm-2.302-.004c-.245 1.312-.403 2.32.2 2.394.7-.03.958-1.04 1.203-2.352.245-1.312.3-2.415-.3-2.39-.6.025-.957 1.041-1.103 2.348Z" class="&lt;Compound Path&gt;" clip-rule="evenodd"/>
          <path fill="#FEFEFE" d="m32.977 8.889-.216 2.01-.407 2.22-.8.033L32.701 7.1l.7-.03.597 4.68.299-2.415.407-2.219.803.066-1.147 6.054-.703-.07-.597-4.68-.083.404Z" class="&lt;Compound Path&gt;"/>
          <path fill="#FEFEFE" fill-rule="evenodd" d="m37.71 7.189.256 6.095-.804-.067-.046-1.099-1.203-.05-.454 1.12-.799.034 2.45-6.008.6-.025Zm-.66 3.33.107-2.206-1.073 3.048 1.003.058-.038-.9Z" class="&lt;Compound Path&gt;" clip-rule="evenodd"/>
          <path fill="#FEFEFE" d="m40.216 7.284-.977 5.346 1.303.045-.07.704-2.207-.108 1.148-6.053.803.066Z" class="&lt;Compound Path&gt;"/>
          <path fill="#FEFEFE" fill-rule="evenodd" d="M44.22 7.316c.904.062 2.007.116 1.438 3.243-.486 2.722-1.481 2.864-2.884 2.823l-.6.025 1.148-6.053.899-.038Zm-.27.712-.806 4.638c1.303.045 1.453-1.162 1.61-2.17.159-1.007.595-2.527-.803-2.468Z" class="&lt;Compound Path&gt;" clip-rule="evenodd"/>
          <path fill="#FEFEFE" d="m49.033 7.514-.17.708-1.303-.045-.42 1.919 1.199-.05-.07.703-1.204-.05-.411 2.12 1.403.04-.17.709-2.207-.108 1.147-6.053 2.206.107Zm1.203.05-.98 5.246 1.303.045-.07.704-2.203-.008 1.147-6.054.803.067Z" class="&lt;Compound Path&gt;"/>
        </g>
        <g class="&lt;Group&gt;">
          <path fill="#FEFEFE" d="m15.9 19.315.316 2.789.267-.812.82-1.936.898-.038-1.76 3.377-.49 2.623-.8.033.491-2.622-.546-3.48.803.066Z" class="&lt;Compound Path&gt;"/>
          <path fill="#FEFEFE" fill-rule="evenodd" d="M20.807 19.409c1.004.058 2.007.116 1.534 3.138-.582 2.827-1.482 2.865-2.98 2.928l-.504-.08 1.047-6.048.903.062Zm-.17.708-.906 4.642c1.407.14 1.552-1.166 1.71-2.174.162-.908.595-2.527-.804-2.468Z" class="&lt;Compound Path&gt;" clip-rule="evenodd"/>
          <path fill="#FEFEFE" d="m25.616 19.507-.07.704-1.404-.041-.32 1.915 1.204.05-.17.707-1.204-.05-.316 2.015 1.303.046-.07.703-2.207-.107 1.152-5.954 2.102.012Zm2.706.087-.977 5.345 1.403.042-.17.707-2.207-.107 1.147-6.053.804.066Z" class="&lt;Compound Path&gt;"/>
          <path fill="#FEFEFE" fill-rule="evenodd" d="M32.457 22.723c-.254 1.112-.57 3.127-2.172 3.094-1.603-.033-1.188-2.052-1.034-3.16.254-1.111.57-3.126 2.172-3.093 1.603.032 1.187 2.052 1.034 3.16Zm-2.307-.103c-.245 1.311-.398 2.419.3 2.39.6-.026.858-1.038 1.103-2.349.25-1.212.403-2.319-.296-2.29-.604-.074-.857 1.037-1.107 2.249Z" class="&lt;Compound Path&gt;" clip-rule="evenodd"/>
          <path fill="#FEFEFE" d="M35.275 20.703c-.109-.195-.313-.287-.612-.274a.96.96 0 0 0-.87.737c.012.3.02.5.129.695l.529.678c.425.583.641.974.475 1.782-.166.808-.836 1.536-1.74 1.474-.3.013-.603-.075-.812-.266l.167-.808c.208.192.412.283.716.37.5-.02.782-.433.865-.836.25-1.212-1.366-1.544-1.129-3.056.162-.907.737-1.532 1.636-1.57.333-.014.604.075.812.266l-.166.808Z" class="&lt;Compound Path&gt;"/>
        </g>
        <g class="&lt;Group&gt;">
          <path fill="#FEFEFE" d="m90.764 21.676-.17.708-1.303-.045-.32 1.915 1.203.05-.17.707-1.204-.05-.415 2.02 1.402.04-.17.709-2.107-.112 1.052-5.95 2.202.008Zm.779 1.869-.216 2.011-.407 2.22-.803-.067 1.047-6.05.803.067.593 4.58.2-2.411.41-2.12.8-.033-1.047 6.05-.8.033-.5-4.783-.096.104.016.4Zm5.533-1.733-.977 5.345 1.303.046-.17.708-2.103-.012 1.047-6.05.9-.037Z" class="&lt;Compound Path&gt;"/>
          <path fill="#FEFEFE" fill-rule="evenodd" d="m100.181 21.881.156 6.1-.803-.067.053-1.103-1.203-.05-.453 1.12-.8.034 2.45-6.008.6-.026Zm-.66 3.331.107-2.206-1.073 3.047 1.003.058-.038-.899Z" class="&lt;Compound Path&gt;" clip-rule="evenodd"/>
        </g>
        <g class="&lt;Group&gt;">
          <g class="&lt;Group&gt;">
            <path fill="#FEFEFE" d="m58.253 14.934-2.507-.095-1.759-8.534 2.706.087.813 5.07L60 6.453l2.805.083-4.551 8.398Zm7.358-5.914-.166.808 3.405.057-.407 2.22-3.31-.162-.07.704 3.51.152-.304 2.315-6.111-.144 1.35-8.364 6.111.144-.403 2.32-3.605-.05Zm6.711.119-2.302-.004.399-2.419 7.215.198-.4 2.419-2.306-.103-1.047 6.049-2.506-.095.947-6.045Zm8.418.247-.167.808 3.306.061-.308 2.215-3.31-.162-.17.708 3.61.149-.403 2.319-6.112-.144 1.35-8.364 6.212.14-.403 2.319-3.605-.05Z" class="&lt;Compound Path&gt;"/>
            <path fill="#FEFEFE" fill-rule="evenodd" d="m92.015 15.719-3.005-.074-1.391-2.144-.3.013-.312 2.115-2.506-.095 1.35-8.364 3.506.053c.1-.005.2-.009.603.074.504.08.812.266 1.324.545.417.383.733.77.863 1.465.08.33.097.73.05 1.2-.219 1.143-.852 1.97-1.898 2.481l1.716 2.73Zm-3.96-6.14-.333 1.616.999-.042c.469.047.726-.198.77-.733.179-.508-.133-.795-.533-.778l-.904-.063Zm11.322-2.077 1.756 8.434-2.706-.086-.138-.895-2.802.017-.366.816-2.806-.082 4.556-8.299 2.506.095ZM96.69 12.62l1.104.053-.275-1.79-.829 1.737Z" class="&lt;Compound Path&gt;" clip-rule="evenodd"/>
            <path fill="#FEFEFE" d="m110.797 7.724-1.347 8.464-2.306-.104-2.058-3.717-.648 3.63-2.502.006 1.346-8.464 2.307.103 2.157 3.713.549-3.626 2.502-.005Z" class="&lt;Compound Path&gt;"/>
            <path fill="#FEFEFE" fill-rule="evenodd" d="M116.504 7.784c1.268.014 2.254.44 2.956 1.277.703.838.947 1.896.734 3.172-.216 1.21-.808 2.203-1.777 2.978-.965.84-2.082 1.255-3.351 1.241-1.268-.013-2.255-.472-2.96-1.377-.702-.838-.946-1.862-.73-3.072.15-1.207.741-2.233 1.773-3.077.966-.841 2.084-1.222 3.355-1.142Zm-1.039 6.25c.469.046.93-.106 1.382-.459.383-.416.63-.894.741-1.432.111-.539.024-1.002-.259-1.39-.352-.453-.762-.67-1.228-.65-.536-.044-.995.142-1.378.559-.452.352-.7.796-.745 1.332-.108.605-.02 1.102.263 1.49.283.389.691.572 1.224.55Z" class="&lt;Compound Path&gt;" clip-rule="evenodd"/>
          </g>
        </g>
        <g class="&lt;Group&gt;">
          <g class="&lt;Group&gt;">
            <path fill="#FEFEFE" d="M45.708 23.668c-.358 1.016-1.022 1.878-1.993 2.586a4.297 4.297 0 0 1-3.064.93c-1.202-.017-2.187-.443-2.956-1.278-.705-.904-.95-1.962-.734-3.172.216-1.21.809-2.202 1.777-2.977 1.032-.844 2.15-1.258 3.35-1.242 1.136.02 2.052.381 2.749 1.086.697.705 1.069 1.623 1.116 2.756l-2.706-.087a1.791 1.791 0 0 0-.541-.978 1.357 1.357 0 0 0-1.016-.358c-.47-.047-.93.106-1.382.458a2.96 2.96 0 0 0-.74 1.433c-.111.538.008 1 .358 1.386.286.455.662.673 1.128.653a2.1 2.1 0 0 0 1.087-.346c.39-.216.678-.529.861-.937l2.706.087Z" class="&lt;Compound Path&gt;"/>
            <path fill="#FEFEFE" fill-rule="evenodd" d="m52.313 18.887 1.66 8.537-2.706-.086-.138-.895-2.706-.087-.462.92-2.706-.086 4.456-8.294 2.602-.01Zm-2.688 5.117 1.1-.046-.272-1.69-.828 1.736Z" class="&lt;Compound Path&gt;" clip-rule="evenodd"/>
            <path fill="#FEFEFE" d="m54.772 27.391 1.35-8.364 2.607.09-1.45 8.369-2.507-.095Zm4.023-9.077-2.506-.095 1.51-2.165 2.906.078-1.91 2.182Z" class="&lt;Compound Path&gt;"/>
            <path fill="#FEFEFE" fill-rule="evenodd" d="m58.681 27.527 1.347-8.464 3.41.157c1.2.017 2.12.445 2.755 1.286.7.771.942 1.762.726 2.972-.216 1.21-.775 2.201-1.677 2.973-.902.772-1.987 1.151-3.255 1.137l-3.306-.06Zm3.554-5.954-.648 3.63.903.062c.466-.02.859-.202 1.178-.55.385-.35.602-.759.649-1.228.11-.538.058-1.003-.159-1.394-.214-.325-.588-.51-1.124-.554l-.8.034Zm10.715-2.252c1.268.014 2.254.44 2.956 1.277.705.905.983 1.961.834 3.168-.216 1.21-.842 2.204-1.877 2.982-.966.841-2.083 1.255-3.35 1.241-1.27-.013-2.256-.472-2.961-1.377-.703-.838-.946-1.862-.73-3.072.216-1.21.807-2.236 1.773-3.077.965-.841 2.084-1.222 3.355-1.142Zm-1.039 6.25a1.76 1.76 0 0 0 1.382-.459c.45-.42.697-.897.74-1.432.112-.539.025-1.002-.258-1.39-.283-.389-.693-.605-1.228-.65-.466.02-.926.206-1.378.559-.386.35-.632.827-.74 1.432-.111.538.008 1 .358 1.386.283.389.658.573 1.124.553Z" class="&lt;Compound Path&gt;" clip-rule="evenodd"/>
            <path fill="#FEFEFE" d="M78.988 24.873c.494.646 1.109.988 1.844 1.023.467-.02.728-.163.783-.433.064-.069-.04-.165-.312-.287l-1.02-.457a3.982 3.982 0 0 1-1.025-.558 1.963 1.963 0 0 1-.937-.861c-.216-.392-.268-.823-.154-1.295.044-.536.321-1.081.832-1.636.578-.525 1.565-.867 2.764-.917.803.066 1.615.332 2.132.711.416.383.733.77.845 1.066l.104.095-1.848 1.279c-.28-.322-.523-.545-.729-.67-.269-.055-.571-.11-.907-.162-.4.017-.595.125-.687.329.008.2.42.483.929.662.338.119.644.24.916.361.341.186.65.373.924.562.275.189.486.447.633.774.15.394.2.793.15 1.195-.179.508-.453 1.12-1.032 1.645-.578.524-1.56.966-2.764.916-1.002-.024-1.779-.259-2.331-.702-.553-.444-.907-.93-1.062-1.457l1.952-1.183Z" class="&lt;Compound Path&gt;"/>
          </g>
        </g>
        <g class="&lt;Group&gt;">
          <g class="&lt;Group&gt;">
            <path fill="#FEFEFE" d="M9.497 33.696c-.22-.458-.499-.747-.837-.866-.272-.122-.642-.173-1.108-.154-.469-.047-.928.14-1.378.559a2.4 2.4 0 0 0-.744 1.332c-.108.605.012 1.1.362 1.486.284.389.658.573 1.124.554.403.05.735.002.995-.142.261-.145.424-.252.487-.321l.092-.204-1.603-.033.316-2.015 4.409.115-.329 1.716c-.262.911-.728 1.732-1.31 2.156-.258.211-.551.39-.879.538-.327.147-.623.26-.886.337l-.791.234c-.267.01-.466.02-.6.025l-.3.012c-1.201-.016-2.155-.476-2.86-1.38-.769-.836-1.045-1.859-.83-3.069.217-1.21.808-2.236 1.773-3.077 1.032-.844 2.15-1.258 3.351-1.241 1.67.063 2.87.813 3.598 2.25l-2.052 1.188Zm5.838 5.56c-.1.004-.204-.092-.708-.17-.404-.084-.807-.167-1.324-.546-.516-.378-.833-.765-.966-1.56-.083-.397-.068-.832.045-1.304l.786-5.137 2.606.09-.885 5.143.016.399c.003.067.04.165.113.296.108.195.416.383.716.37.333-.014.597-.092.79-.234a.964.964 0 0 0 .38-.516l.087-.304.885-5.141 2.506.095-.885 5.141c-.162.908-.528 1.724-1.01 2.144-.256.278-.547.49-.875.638-.782.433-1.677.57-2.077.587l-.2.009Zm8.353-6.056-.066.804 3.305.06-.407 2.22-3.31-.161-.07.703 3.61.149-.404 2.319-6.111-.144 1.35-8.364 6.112.144-.403 2.319-3.606-.049Z" class="&lt;Compound Path&gt;"/>
            <path fill="#FEFEFE" fill-rule="evenodd" d="m35.064 39.528-3.106-.07-1.391-2.143-.2.009-.311 2.114-2.607-.09 1.45-8.369 3.406.058c.1-.005.2-.009.704.07.404.083.812.266 1.324.545.416.383.733.77.862 1.465.08.33.064.732-.05 1.203-.152 1.141-.751 1.967-1.797 2.478l1.716 2.73Zm-4.061-6.135-.233 1.611 1-.041c.468.047.725-.198.77-.733.078-.504-.134-.795-.534-.779l-1.003-.058Zm12.379 6.387-3.106-.07-1.391-2.144-.204-.091-.412 2.119-2.502.005 1.447-8.468 3.405.057c.104.096.204.091.708.17.404.084.807.167 1.224.55.512.278.828.665.958 1.36.017.4 0 .801-.05 1.204-.216 1.21-.814 2.069-1.793 2.577l1.716 2.73Zm-4.061-6.135-.237 1.51.903.063c.467-.02.757-.265.87-.737.075-.604-.137-.895-.537-.878l-1 .042Zm11.419-2.181 1.759 8.534-2.806-.083-.138-.895-2.706-.086-.461.92-2.706-.087 4.451-8.394 2.606.09Zm-2.684 5.217 1.099-.046-.275-1.79-.824 1.836Z" class="&lt;Compound Path&gt;" clip-rule="evenodd"/>
          </g>
        </g>
        <g class="&lt;Group&gt;">
          <path fill="#FEFEFE" fill-rule="evenodd" d="M57.218 33.194c.999-.042 2.006.115 1.533 3.138-.586 2.727-1.481 2.865-2.984 2.828l-.5.02 1.047-6.048.904.062Zm-.17.707-.907 4.643c1.403.04 1.553-1.167 1.71-2.174.158-1.008.595-2.527-.804-2.469Z" class="&lt;Compound Path&gt;" clip-rule="evenodd"/>
          <path fill="#FEFEFE" d="m62.026 33.292-.07.704-1.403-.041-.32 1.915 1.199-.05-.17.707-1.204-.05-.312 2.115 1.303.046-.07.703-2.207-.107 1.148-6.054 2.106.112Z" class="&lt;Compound Path&gt;"/>
        </g>
        <g class="&lt;Group&gt;">
          <g class="&lt;Group&gt;">
            <path fill="#FEFEFE" d="m68.406 39.83-.704-.07-1.208-2.552-.552 3.526-2.506-.095 1.35-8.364h2.402l1.541 3.338 2.668-3.215 2.306.103-1.35 8.364-2.606-.09.656-3.43-1.997 2.485Z" class="&lt;Compound Path&gt;"/>
            <path fill="#FEFEFE" fill-rule="evenodd" d="m80.114 32.633 1.755 8.433-2.701.014-.138-.895-2.806-.083-.366.817-2.802.017 4.552-8.398 2.506.095Zm-2.683 5.217 1.099-.046-.276-1.79-.823 1.836Z" class="&lt;Compound Path&gt;" clip-rule="evenodd"/>
            <path fill="#FEFEFE" d="m86.625 32.76-1.047 6.049 3.61.149-.404 2.319-6.11-.144 1.35-8.364 2.601-.01Zm6.868 8.62-2.502.004-1.76-8.534 2.707.087.813 5.07L95.243 33l2.806.082-4.556 8.298Zm3.909.135 1.346-8.464 2.506.095-1.35 8.364-2.502.005Zm12.67-8.138-1.35 8.364-2.303-.004-2.057-3.717-.649 3.63-2.506-.094 1.351-8.364 2.302.003 2.162 3.813.544-3.726 2.506.095Z" class="&lt;Compound Path&gt;"/>
            <path fill="#FEFEFE" fill-rule="evenodd" d="m116.583 33.504 1.76 8.533-2.806-.082-.138-.895-2.706-.087-.462.92-2.706-.086 4.456-8.294 2.602-.01Zm-2.688 5.117 1.199-.05-.275-1.79-.924 1.84Z" class="&lt;Compound Path&gt;" clip-rule="evenodd"/>
            <path fill="#FEFEFE" d="M120.914 38.927c.561.644 1.176.985 1.845 1.023.536.044.831-.068.887-.337-.006-.133-.145-.261-.417-.383a13.498 13.498 0 0 1-.92-.462 3.54 3.54 0 0 1-1.124-.553c-.342-.186-.621-.475-.837-.866a2.156 2.156 0 0 1-.255-1.29c.114-.472.426-.986.937-1.54.474-.621 1.461-.963 2.664-.913.899-.038 1.711.228 2.127.61.416.384.833.767.946 1.062l.108.196-1.952 1.183c-.214-.325-.457-.548-.729-.67a6.936 6.936 0 0 0-.808-.167c-.399.017-.691.23-.687.33-.087.303.321.486.929.661.272.122.579.276.92.462.339.12.612.274.821.466.274.189.487.48.637.874.147.327.196.692.146 1.095-.079.504-.454 1.12-1.032 1.645-.579.524-1.561.966-2.764.916-1.002-.024-1.746-.26-2.232-.707-.552-.444-.938-.895-1.157-1.352l1.947-1.283Z" class="&lt;Compound Path&gt;"/>
          </g>
        </g>
      </g>
    </g>
  </g>
</svg>
