<svg xmlns="http://www.w3.org/2000/svg" width="68" height="51" fill="none" viewBox="0 0 68 51">
  <g class="4-27-ilus">
    <g class="ilustracion">
      <g class="cuerpo">
        <g class="&lt;Group&gt;">
          <g class="&lt;Group&gt;">
            <g class="&lt;Group&gt;">
              <g class="&lt;Group&gt;">
                <g class="&lt;Group&gt;">
                  <g class="&lt;Group&gt;">
                    <g class="&lt;Group&gt;">
                      <g class="&lt;Group&gt;">
                        <g class="&lt;Group&gt;">
                          <path fill="#D29F6D" d="M36.47 37.936c.4.2 1.3.8 1.6 1.7.4.7.2 1.6-.4 2.1-.7.7-1.9.7-2.2.2-.1-.3-.3-.5-.5-.8-.2-.3-.6-.6-.7-.8-.4-.4-.9-1.4-.1-2.2 1.1-.9 2.3-.2 2.3-.2Z" class="&lt;Path&gt;"/>
                        </g>
                      </g>
                    </g>
                    <g class="&lt;Group&gt;">
                      <g class="&lt;Group&gt;">
                        <g class="&lt;Group&gt;">
                          <path fill="#050505" fill-rule="evenodd" d="M36.47 42.436h-.5c-.334-.067-.534-.233-.6-.5-.1-.2-.3-.4-.5-.6v-.1c-.1-.2-.4-.4-.6-.6l-.1-.1c-.2-.3-.5-.7-.6-1.1-.067-.533.1-1 .5-1.4.6-.5 1.2-.6 1.7-.5.4 0 .8.2.8.2.4.3 1.3.9 1.7 1.8.133.4.166.833.1 1.3-.067.4-.267.767-.6 1.1-.4.3-.8.5-1.3.5Zm-1.2-4.6c-.334 0-.667.133-1 .4-.7.8-.2 1.7.1 2l.2.2.6.6c.2.3.4.5.5.8.1.2.3.2.4.3.4.1 1-.1 1.5-.5.5-.5.7-1.3.4-2-.3-.8-1.2-1.3-1.6-1.6 0 0-.3-.1-.7-.2h-.4Z" class="&lt;Compound Path&gt;" clip-rule="evenodd"/>
                        </g>
                      </g>
                    </g>
                  </g>
                </g>
              </g>
              <g class="&lt;Group&gt;" opacity=".2" style="mix-blend-mode:multiply">
                <g class="&lt;Group&gt;">
                  <g class="&lt;Group&gt;">
                    <g class="&lt;Group&gt;">
                      <path fill="#050505" d="M37.07 39.836s.2.2.2.7c0 .5-.4.8-.6 1-.2.1-.9.4-1 .2 0-.1-.6-.7-.7-.9-.1-.2.8-.6 1.2-.9.5-.4.9-.1.9-.1Z" class="&lt;Path&gt;"/>
                    </g>
                  </g>
                </g>
              </g>
            </g>
            <g class="&lt;Group&gt;" opacity=".2" style="mix-blend-mode:multiply">
              <g class="&lt;Group&gt;">
                <g class="&lt;Group&gt;">
                  <g class="&lt;Group&gt;">
                    <path fill="#050505" d="M35.37 39.436c.6-.8 1.3-1 1.7-1.1-.2-.2-.5-.3-.6-.4 0 0-1.2-.7-2.3.2-.8.8-.3 1.8.1 2.2 0 .1.2.3.4.4 0-.2.2-.6.7-1.3Z" class="&lt;Path&gt;"/>
                  </g>
                </g>
              </g>
            </g>
          </g>
          <g class="&lt;Group&gt;">
            <g class="&lt;Group&gt;">
              <g class="&lt;Group&gt;">
                <g class="&lt;Group&gt;">
                  <g class="&lt;Group&gt;">
                    <path fill="#1A1A1A" d="M34.47 46.636s-.3.8 1.4 1.4l-7.2.5-.1-1.5 5.9-.4Z" class="&lt;Path&gt;"/>
                  </g>
                </g>
              </g>
              <g class="&lt;Group&gt;">
                <g class="&lt;Group&gt;">
                  <g class="&lt;Group&gt;">
                    <path fill="#050505" fill-rule="evenodd" d="m35.87 48.236-7.2.5c-.1 0-.1-.1-.1-.2l-.2-1.5c0-.067.033-.1.1-.1 0-.067.033-.1.1-.1l5.9-.4c.066 0 .133.033.2.1v.1c0 .1-.2.7 1.3 1.2.066.067.1.133.1.2s-.067.133-.2.2Zm-7 .2 6.3-.5c-.334-.2-.6-.433-.8-.7-.067-.2-.1-.333-.1-.4l-5.5.4.1 1.2Z" class="&lt;Compound Path&gt;" clip-rule="evenodd"/>
                  </g>
                </g>
              </g>
            </g>
            <g class="&lt;Group&gt;" opacity=".2">
              <g class="&lt;Group&gt;">
                <g class="&lt;Group&gt;">
                  <g class="&lt;Group&gt;">
                    <path fill="#050505" d="m31.67 46.836-3.1.2.1 1.5 4.4-.3c-1.7-.6-1.4-1.4-1.4-1.4Z" class="&lt;Path&gt;"/>
                  </g>
                </g>
              </g>
            </g>
          </g>
          <g class="&lt;Group&gt;">
            <g class="&lt;Group&gt;">
              <g class="&lt;Group&gt;">
                <g class="&lt;Group&gt;">
                  <g class="&lt;Group&gt;">
                    <g class="&lt;Group&gt;">
                      <g class="&lt;Group&gt;">
                        <path fill="#0D7D75" d="m33.77 41.036.9 5.5-6.8.9-.4-5.5" class="&lt;Path&gt;"/>
                      </g>
                    </g>
                  </g>
                  <g class="&lt;Group&gt;">
                    <g class="&lt;Group&gt;">
                      <g class="&lt;Group&gt;">
                        <path fill="#050505" d="M27.97 47.636c-.067 0-.134-.033-.2-.1v-.1l-.5-5.5c0-.1.1-.2.2-.2s.2.1.2.1l.4 5.4 6.4-.9-.8-5.3c-.1-.1 0-.2.1-.2s.2.1.2.1l.9 5.6-.1.1-.1.1-6.7.9Z" class="&lt;Path&gt;"/>
                      </g>
                    </g>
                  </g>
                </g>
              </g>
            </g>
            <g class="&lt;Group&gt;" opacity=".3">
              <g class="&lt;Group&gt;">
                <g class="&lt;Group&gt;">
                  <g class="&lt;Group&gt;">
                    <path fill="#0A0C0F" d="m32.37 41.236.6 5.5 1.7-.2-.9-5.5-1.4.2Z" class="&lt;Path&gt;"/>
                  </g>
                </g>
              </g>
            </g>
          </g>
          <g class="&lt;Group&gt;">
            <g class="&lt;Group&gt;">
              <g class="&lt;Group&gt;">
                <g class="&lt;Group&gt;">
                  <g class="&lt;Group&gt;">
                    <path fill="#F5F6F7" d="M33.47 41.436c-.8-.9-1.3-1.6-2.1-2.7-1.5-1.8-2-3.4-2-3.4-.4-1.4.1-2.8 1.3-3.3l.4-.1c1.1-.5 2.5-.2 3.2 1.5 0 0 .6 1.5 1.7 2.8.6.8 1.5 1.9 1.5 1.9l-4 3.3Z" class="&lt;Path&gt;"/>
                  </g>
                </g>
              </g>
              <g class="&lt;Group&gt;">
                <g class="&lt;Group&gt;">
                  <g class="&lt;Group&gt;">
                    <path fill="#050505" fill-rule="evenodd" d="M33.47 41.536h-.2l-2.1-2.7c-1.4-1.8-1.9-3.3-1.9-3.4-.3-.8-.3-1.5 0-2.1.3-.7.7-1.2 1.4-1.4l.3-.2c.7-.2 1.3-.2 1.9 0 .7.2 1.2.8 1.5 1.6 0 .1.7 1.6 1.7 2.8l1.5 1.9.1.1c0 .067-.034.1-.1.1l-4 3.3h-.1Zm-1.6-9.6c-.267 0-.5.033-.7.1l-.4.2c-1.1.4-1.7 1.7-1.2 3.1 0 0 .5 1.6 1.9 3.3l2 2.5 3.8-3-1.5-1.8c-1-1.3-1.7-2.8-1.7-2.9-.3-.7-.7-1.2-1.3-1.4a1.363 1.363 0 0 0-.9-.1Z" class="&lt;Compound Path&gt;" clip-rule="evenodd"/>
                  </g>
                </g>
              </g>
            </g>
            <g class="&lt;Group&gt;" opacity=".3">
              <g class="&lt;Group&gt;">
                <g class="&lt;Group&gt;">
                  <g class="&lt;Group&gt;">
                    <path fill="#0A0C0F" d="M33.47 41.436c-.8-.9-1.3-1.6-2.1-2.7-1.5-1.8-2-3.4-2-3.4-.4-1.4.1-2.8 1.3-3.3l.4-.1a.889.889 0 0 1 .4-.1l-.1.3s-1.3 1.4.1 3.7c.8 1.6 2.4 3.4 3.3 4.5l-1.3 1.1Z" class="&lt;Path&gt;"/>
                  </g>
                </g>
              </g>
            </g>
          </g>
          <g class="&lt;Group&gt;">
            <g class="&lt;Group&gt;">
              <g class="&lt;Group&gt;">
                <g class="&lt;Group&gt;">
                  <g class="&lt;Group&gt;">
                    <path fill="#1A1A1A" d="M19.57 47.736s.4.8-1.2 1.6l7.2-.5-.1-1.6-5.9.5Z" class="&lt;Path&gt;"/>
                  </g>
                </g>
              </g>
              <g class="&lt;Group&gt;">
                <g class="&lt;Group&gt;">
                  <g class="&lt;Group&gt;">
                    <path fill="#050505" fill-rule="evenodd" d="M18.37 49.536c-.067 0-.1-.067-.1-.2-.067-.067-.034-.133.1-.2.7-.3 1-.7 1.1-1v-.3c-.067-.067-.067-.133 0-.2 0-.067.033-.1.1-.1l5.9-.4h.1l.1.1.1 1.5c0 .1-.1.2-.1.2l-7.3.6Zm1.3-1.6v.4a1.63 1.63 0 0 1-.7.8l6.4-.4-.1-1.2-5.6.4Z" class="&lt;Compound Path&gt;" clip-rule="evenodd"/>
                  </g>
                </g>
              </g>
            </g>
            <g class="&lt;Group&gt;" opacity=".2">
              <g class="&lt;Group&gt;">
                <g class="&lt;Group&gt;">
                  <g class="&lt;Group&gt;">
                    <path fill="#050505" d="m22.47 47.536 3-.3.1 1.6-4.3.3c1.6-.8 1.2-1.6 1.2-1.6Z" class="&lt;Path&gt;"/>
                  </g>
                </g>
              </g>
            </g>
          </g>
          <g class="&lt;Group&gt;">
            <g class="&lt;Group&gt;">
              <g class="&lt;Group&gt;">
                <g class="&lt;Group&gt;">
                  <g class="&lt;Group&gt;">
                    <g class="&lt;Group&gt;">
                      <g class="&lt;Group&gt;">
                        <path fill="#0D7D75" d="m19.87 42.136-.5 5.6 6.7-.2.2-5.4" class="&lt;Path&gt;"/>
                      </g>
                    </g>
                  </g>
                  <g class="&lt;Group&gt;">
                    <g class="&lt;Group&gt;">
                      <g class="&lt;Group&gt;">
                        <path fill="#050505" d="m26.07 47.736-6.7.2c-.067 0-.134-.033-.2-.1v-.1l.5-5.6c0-.1.1-.2.2-.2s.2.1.2.2l-.6 5.4 6.4-.1.2-5.3c0-.1.1-.1.2-.1s.1 0 .1.1l-.1 5.4c0 .1-.1.2-.2.2Z" class="&lt;Path&gt;"/>
                      </g>
                    </g>
                  </g>
                </g>
              </g>
            </g>
          </g>
          <g class="&lt;Group&gt;" opacity=".3">
            <g class="&lt;Group&gt;">
              <g class="&lt;Group&gt;">
                <g class="&lt;Group&gt;">
                  <path fill="#0A0C0F" d="M21.77 42.136h-1.9l-.5 5.6 2-.1.4-5.5Z" class="&lt;Path&gt;"/>
                </g>
              </g>
            </g>
          </g>
          <g class="&lt;Group&gt;">
            <g class="&lt;Group&gt;">
              <g class="&lt;Group&gt;">
                <g class="&lt;Group&gt;">
                  <g class="&lt;Group&gt;">
                    <path fill="#F5F6F7" d="M25.07 30.136c2.4-.2 4.4.2 4.9.2.9.2 3 1.1 3.1 2.2 0 1.1.4 3.7 1.2 6.2.8 2.3 1.9 3.8 1.9 4.3-.3 1.2-5.2 2.7-6.8 2.9-4.2.5-6.5-.5-9.5-.3-2.3.1-2.6-.2-2.9-.4-.7-.8-1.3-9 0-12.1.2-.5 1.1-2 3.2-2.4 1-.2 2.8-.4 4.9-.6Z" class="&lt;Path&gt;"/>
                  </g>
                </g>
              </g>
              <g class="&lt;Group&gt;">
                <g class="&lt;Group&gt;">
                  <g class="&lt;Group&gt;">
                    <path fill="#050505" fill-rule="evenodd" d="M28.47 46.136c-2 .2-3.5 0-4.9-.2-1.3-.1-2.4-.2-3.6-.2-1.067.133-1.834.133-2.3 0-.5-.1-.7-.3-.8-.4-.5-.5-.7-3.1-.8-5.3 0-1.4 0-5 .8-6.9.1-.2.9-2.1 3.2-2.6 1-.2 2.8-.4 5-.5 2.3-.2 4.2.1 4.8.2h.1c.5.1 1.2.3 1.9.7.6.4 1.3.9 1.3 1.6.1 1.1.5 3.7 1.3 6.1.4 1.4 1 2.4 1.4 3.2.3.6.5.9.5 1.2-.067.333-.434.7-1.1 1.1-.467.267-1.1.567-1.9.9-1.6.5-3.2 1-4 1.1h-.9Zm-3.4-15.8c-2.2.1-3.9.4-4.9.6-2.2.4-2.9 2.1-3 2.3-.6 1.3-.8 3.8-.8 6.8.1 1.2.2 2.4.3 3.4.1 1 .3 1.5.4 1.7.2.2.5.5 2.8.3 1.3-.1 2.5.1 3.7.2 1.4.2 2.9.4 4.8.2a5.07 5.07 0 0 0 1-.1c.7-.1 2.3-.5 3.8-1 1.7-.6 2.7-1.3 2.9-1.8 0-.1-.3-.5-.5-1-.4-.7-1-1.8-1.4-3.1-.9-2.5-1.2-5.1-1.3-6.3 0-.4-.4-.9-1.1-1.3-.7-.4-1.4-.6-1.9-.7-.7-.1-2.5-.4-4.8-.2Z" class="&lt;Compound Path&gt;" clip-rule="evenodd"/>
                  </g>
                </g>
              </g>
            </g>
            <g class="&lt;Group&gt;">
              <g class="&lt;Group&gt;">
                <g class="&lt;Group&gt;">
                  <g class="&lt;Group&gt;">
                    <path fill="#17B473" d="M25.07 30.136c-.9.1-2.3.2-3.6.4l4.1 2.4 2.5 4.9.4-.2-.1-4.9 1.3-2.4c-.8-.1-2.6-.3-4.6-.2Z" class="&lt;Path&gt;"/>
                  </g>
                </g>
              </g>
              <g class="&lt;Group&gt;">
                <g class="&lt;Group&gt;">
                  <g class="&lt;Group&gt;">
                    <path fill="#050505" fill-rule="evenodd" d="M28.07 37.936h-.1l-2.6-4.9-4-2.4c-.067 0-.1-.033-.1-.1 0-.133.066-.2.2-.2 1.5-.2 3-.3 3.6-.3 1.466-.133 3-.1 4.6.1l.1.1c.066.067.066.133 0 .2l-1.3 2.3.1 4.9c0 .133-.034.2-.1.2l-.3.1h-.1Zm-6.1-7.3 3.6 2.2h.1l2.5 4.8.1-.1-.1-4.8v-.1l1.2-2.2a18.67 18.67 0 0 0-4.3-.1c-.5 0-1.8.1-3.1.3Z" class="&lt;Compound Path&gt;" clip-rule="evenodd"/>
                  </g>
                </g>
              </g>
            </g>
            <g class="&lt;Group&gt;" opacity=".2">
              <g class="&lt;Group&gt;">
                <g class="&lt;Group&gt;">
                  <g class="&lt;Group&gt;">
                    <path fill="#050505" d="M16.67 34.736c-.6 3.5-.4 9.8.3 10.5.2.2.5.4 1.9.4-.7-5.6-.4-6.9-.4-9.5 0-1.3-1.2-2.3-1.8-1.4Z" class="&lt;Path&gt;"/>
                  </g>
                </g>
              </g>
            </g>
            <g class="&lt;Group&gt;">
              <g class="&lt;Group&gt;">
                <g class="&lt;Group&gt;">
                  <g class="&lt;Group&gt;">
                    <g class="&lt;Group&gt;">
                      <path fill="#050505" d="M27.37 39.836c0 .2.2.4.5.4.2 0 .4-.2.4-.5 0-.2-.3-.4-.5-.4-.3 0-.4.2-.4.5Z" class="&lt;Path&gt;"/>
                    </g>
                  </g>
                </g>
              </g>
            </g>
            <g class="&lt;Group&gt;">
              <g class="&lt;Group&gt;">
                <g class="&lt;Group&gt;">
                  <g class="&lt;Group&gt;">
                    <g class="&lt;Group&gt;">
                      <path fill="#050505" d="M27.87 41.836c0 .2.2.4.5.4.2 0 .4-.3.4-.5 0-.3-.2-.5-.5-.4-.2 0-.4.2-.4.5Z" class="&lt;Path&gt;"/>
                    </g>
                  </g>
                </g>
              </g>
            </g>
            <g class="&lt;Group&gt;">
              <g class="&lt;Group&gt;">
                <g class="&lt;Group&gt;">
                  <g class="&lt;Group&gt;">
                    <g class="&lt;Group&gt;">
                      <path fill="#050505" d="M28.57 43.736c0 .3.2.5.5.4.2 0 .4-.2.4-.5 0-.2-.2-.4-.5-.4-.2 0-.4.3-.4.5Z" class="&lt;Path&gt;"/>
                    </g>
                  </g>
                </g>
              </g>
            </g>
            <g class="&lt;Group&gt;" opacity=".4">
              <g class="&lt;Group&gt;">
                <g class="&lt;Group&gt;">
                  <g class="&lt;Group&gt;">
                    <path fill="#B5B5B5" d="M23.47 34.836v.3l2.6-.1-.4.4.1 2.2 2.4.9-.1-.7-1.5-3.3-3.1.3Z" class="&lt;Path&gt;"/>
                  </g>
                </g>
              </g>
              <g class="&lt;Group&gt;">
                <g class="&lt;Group&gt;">
                  <g class="&lt;Group&gt;">
                    <path fill="#B5B5B5" fill-rule="evenodd" d="m28.17 38.636-2.4-.9v-.1l-.2-2.2v-.1l.3-.2-2.4.1c-.067 0-.1-.033-.1-.1v-.3c0-.067.033-.1.1-.1l3.1-.3c.066 0 .1.033.1.1l1.5 3.2v.1l.1.7v.1h-.1Zm-2.3-1 2.2.8-.1-.6-1.4-3.2-3 .2v.2h2.6c0 .067-.034.1-.1.1l-.3.3.1 2.2Z" class="&lt;Compound Path&gt;" clip-rule="evenodd"/>
                  </g>
                </g>
              </g>
            </g>
            <g class="&lt;Group&gt;">
              <g class="&lt;Group&gt;">
                <g class="&lt;Group&gt;">
                  <g class="&lt;Group&gt;">
                    <path fill="#FEFEFE" d="M28.27 38.136s.1 1.2.9 3.5c.9 2.3 1.1 3.9 1.1 3.9" class="&lt;Path&gt;"/>
                  </g>
                </g>
              </g>
              <g class="&lt;Group&gt;">
                <g class="&lt;Group&gt;">
                  <g class="&lt;Group&gt;">
                    <path fill="#050505" d="M30.27 45.736c-.1 0-.2-.1-.2-.1 0-.1-.2-1.7-1-4s-.9-3.5-.9-3.5c0-.1 0-.2.1-.2s.2.1.2.2c0 0 .1 1.2.9 3.4.8 2.3 1 4 1 4 .1.1 0 .2-.1.2Z" class="&lt;Path&gt;"/>
                  </g>
                </g>
              </g>
            </g>
            <g class="&lt;Group&gt;" opacity=".4">
              <g class="&lt;Group&gt;">
                <g class="&lt;Group&gt;">
                  <g class="&lt;Group&gt;">
                    <path fill="#B5B5B5" d="m29.27 34.336-.1.4-.7 3.4 1.2-3.6 1.2-.2v-.3l-1.6.3Z" class="&lt;Path&gt;"/>
                  </g>
                </g>
              </g>
            </g>
            <g class="&lt;Group&gt;">
              <g class="&lt;Group&gt;">
                <g class="&lt;Group&gt;">
                  <g class="&lt;Group&gt;">
                    <g class="&lt;Group&gt;">
                      <path fill="#050505" d="M35.77 42.436c-.534.067-1-.033-1.4-.3-.467-.333-.8-.833-1-1.5l-.4-1.6c-.1 0 0-.1.1-.2l1.2-.3s.1 0 .1.1c.1.1 0 .2-.1.2l-1 .3.4 1.5c.4 1.1 1.2 1.7 2.2 1.5.1 0 .2 0 .2.1s0 .2-.1.2h-.2Z" class="&lt;Path&gt;"/>
                    </g>
                  </g>
                </g>
              </g>
              <g class="&lt;Group&gt;">
                <g class="&lt;Group&gt;">
                  <g class="&lt;Group&gt;">
                    <g class="&lt;Group&gt;">
                      <path fill="#EC272B" d="m34.57 39.436-1.3.4Z" class="&lt;Path&gt;"/>
                    </g>
                  </g>
                </g>
                <g class="&lt;Group&gt;">
                  <g class="&lt;Group&gt;">
                    <g class="&lt;Group&gt;">
                      <path fill="#050505" d="m33.37 39.936-.1-.2 1.2-.4.1.3-1.2.3Z" class="&lt;Path&gt;"/>
                    </g>
                  </g>
                </g>
              </g>
            </g>
            <g class="&lt;Group&gt;" opacity=".2">
              <g class="&lt;Group&gt;">
                <g class="&lt;Group&gt;">
                  <g class="&lt;Group&gt;">
                    <path fill="#050505" d="M26.67 33.336h-.1l1.7 4.6-.2-2.5-1.4-2.1Z" class="&lt;Path&gt;"/>
                  </g>
                </g>
              </g>
            </g>
            <g class="&lt;Group&gt;">
              <g class="&lt;Group&gt;">
                <g class="&lt;Group&gt;">
                  <g class="&lt;Group&gt;">
                    <path fill="#F5F6F7" d="m25.17 31.936-1.6 2.9 2.6-.1-.4.7 2.5 2.7v-.4l-1.7-4.4-1.4-1.4Z" class="&lt;Path&gt;"/>
                  </g>
                </g>
              </g>
              <g class="&lt;Group&gt;">
                <g class="&lt;Group&gt;">
                  <g class="&lt;Group&gt;">
                    <path fill="#050505" fill-rule="evenodd" d="m28.27 38.336-.1-.1-2.5-2.7c-.068-.067-.068-.133 0-.2l.2-.5-2.3.1c-.067 0-.134-.033-.2-.1v-.1l1.6-2.9c.066-.067.133-.1.2-.1l.1.1 1.4 1.4h.1l1.6 4.4.1.5c0 .067-.034.133-.1.2h-.1Zm-2.3-2.9 2.1 2.2-1.6-4.2-1.3-1.3-1.4 2.5 2.4-.1c.066 0 .133.033.2.1v.2l-.4.6Z" class="&lt;Compound Path&gt;" clip-rule="evenodd"/>
                  </g>
                </g>
              </g>
            </g>
            <g class="&lt;Group&gt;">
              <g class="&lt;Group&gt;">
                <g class="&lt;Group&gt;">
                  <g class="&lt;Group&gt;">
                    <path fill="#F5F6F7" d="m28.17 31.436 2.6 2.6-1.5.3.5.3-1.4 3.6-.1-.7-.2-5.1.1-1Z" class="&lt;Path&gt;"/>
                  </g>
                </g>
              </g>
              <g class="&lt;Group&gt;">
                <g class="&lt;Group&gt;">
                  <g class="&lt;Group&gt;">
                    <path fill="#050505" fill-rule="evenodd" d="M28.37 38.336c-.067 0-.1-.033-.1-.1l-.2-.7-.1-5.1.1-1c0-.067.032-.133.1-.2.066 0 .1.033.1.1l2.6 2.6v.1c0 .067-.034.1-.1.1l-1.1.2.2.2c.066.067.066.133 0 .2l-1.3 3.5c-.067.067-.134.1-.2.1Zm0-.8.1.1 1.1-2.9-.4-.3c-.068-.067-.068-.133 0-.2 0-.067.033-.1.1-.1l1.1-.2-2-2.2-.1.7.1 5.1Z" class="&lt;Compound Path&gt;" clip-rule="evenodd"/>
                  </g>
                </g>
              </g>
            </g>
          </g>
          <g class="&lt;Group&gt;">
            <g class="&lt;Group&gt;">
              <g class="&lt;Group&gt;">
                <g class="&lt;Group&gt;">
                  <g class="&lt;Group&gt;">
                    <g class="&lt;Group&gt;">
                      <g class="&lt;Group&gt;">
                        <path fill="#D29F6D" d="M14.37 41.236c-.2.4-.6 1.4-.4 2.3.2.8.8 1.4 1.6 1.5.9.2 1.9-.5 1.8-1.1v-.9c0-.4.2-.9.2-1.1.1-.5-.1-1.7-1.2-1.8-1.4-.2-2 1.1-2 1.1Z" class="&lt;Path&gt;"/>
                      </g>
                    </g>
                  </g>
                  <g class="&lt;Group&gt;">
                    <g class="&lt;Group&gt;">
                      <g class="&lt;Group&gt;">
                        <path fill="#050505" fill-rule="evenodd" d="M15.97 45.236h-.4a2.067 2.067 0 0 1-1.2-.6c-.268-.267-.467-.633-.6-1.1-.2-1 .2-2 .4-2.4.1 0 .2-.4.6-.7.3-.3.8-.6 1.6-.5.6.067 1 .367 1.2.9.2.4.2.9.2 1.2l-.1.2c0 .3-.1.6-.1.8v.1c-.1.3-.1.5 0 .8 0 .2-.1.433-.3.7-.3.3-.8.6-1.3.6Zm0-5c-1 .1-1.5 1-1.5 1-.1.4-.6 1.4-.3 2.2.1.8.7 1.4 1.4 1.5.6 0 1.2-.2 1.5-.5.1-.1.2-.3.2-.5-.1-.3-.1-.5-.1-.9h.1c0-.3 0-.6.1-.8v-.3c.1-.4 0-1.5-1-1.7h-.4Z" class="&lt;Compound Path&gt;" clip-rule="evenodd"/>
                      </g>
                    </g>
                  </g>
                </g>
              </g>
            </g>
            <g class="&lt;Group&gt;">
              <g class="&lt;Group&gt;">
                <g class="&lt;Group&gt;">
                  <g class="&lt;Group&gt;">
                    <g class="&lt;Group&gt;">
                      <path fill="#D29F6D" d="m17.17 41.736 1 .9c.2.2.2.6 0 .8-.2.2-.4.2-.6.2-.2-.1-.5-.4-.5-.4" class="&lt;Path&gt;"/>
                    </g>
                  </g>
                </g>
                <g class="&lt;Group&gt;">
                  <g class="&lt;Group&gt;">
                    <g class="&lt;Group&gt;">
                      <path fill="#050505" d="M17.87 43.736c-.134.067-.234.067-.3 0-.3-.1-.6-.3-.6-.4-.1 0-.1-.1 0-.2 0-.1.1-.1.2 0 0 0 .3.2.5.3 0 0 .2.1.4-.1.1-.1.1-.4 0-.6l-1-.9c-.1 0-.1-.1 0-.2 0-.1.1-.1.2 0l1 .9c.3.3.3.8 0 1-.134.133-.267.2-.4.2Z" class="&lt;Path&gt;"/>
                    </g>
                  </g>
                </g>
              </g>
            </g>
            <g class="&lt;Group&gt;" opacity=".2" style="mix-blend-mode:multiply">
              <g class="&lt;Group&gt;">
                <g class="&lt;Group&gt;">
                  <g class="&lt;Group&gt;">
                    <path fill="#050505" d="M14.07 42.036s.8-.7 2-.2c1.3.5 1.5.8 1.5.8s.3-1.4-.4-2.2c-.7-.7-2-.4-2.5.3s-.6 1.3-.6 1.3Z" class="&lt;Path&gt;"/>
                  </g>
                </g>
              </g>
            </g>
          </g>
          <g class="&lt;Group&gt;">
            <g class="&lt;Group&gt;">
              <g class="&lt;Group&gt;">
                <g class="&lt;Group&gt;">
                  <g class="&lt;Group&gt;">
                    <path fill="#F5F6F7" d="M13.47 42.036c.1-1.2.2-2.1.3-3.4.2-2.3 1-4.1 1-4.1.6-1.4 2-2 3.2-1.5l.4.1c1.1.5 1.9 1.6 1.2 3.3 0 0-.6 1.9-.7 3.5-.1 1.1-.2 2.5-.2 2.5l-5.2-.4Z" class="&lt;Path&gt;"/>
                  </g>
                </g>
              </g>
              <g class="&lt;Group&gt;">
                <g class="&lt;Group&gt;">
                  <g class="&lt;Group&gt;">
                    <path fill="#050505" fill-rule="evenodd" d="m18.67 42.636-5.2-.5h-.1c-.067-.067-.067-.1 0-.1l.2-3.4c.2-2.3 1-4.1 1.1-4.2.3-.7.8-1.2 1.4-1.5.6-.3 1.3-.3 2-.1l.3.2c.6.2 1.1.7 1.4 1.2.3.7.3 1.4 0 2.2-.1.1-.6 2-.8 3.5l-.2 2.5v.1l-.1.1Zm-5-.8 4.8.4.2-2.3c.2-1.6.7-3.5.8-3.6.3-.7.3-1.4 0-1.9-.2-.5-.6-.9-1.2-1.1l-.4-.2c-1.1-.4-2.4.2-2.9 1.4-.1.1-.9 1.9-1 4.1l-.3 3.2Z" class="&lt;Compound Path&gt;" clip-rule="evenodd"/>
                  </g>
                </g>
              </g>
            </g>
            <g class="&lt;Group&gt;" opacity=".3">
              <g class="&lt;Group&gt;">
                <g class="&lt;Group&gt;">
                  <g class="&lt;Group&gt;">
                    <path fill="#0A0C0F" d="M13.47 42.036c.1-1.2.2-2.1.3-3.4.2-2.3 1-4.1 1-4.1.6-1.4 2-2 3.2-1.5l.4.1c.133.067.232.133.3.2l-.3.2s-1.9.1-2.5 2.8c-.4 1.7-.6 4.4-.6 5.8l-1.8-.1Z" class="&lt;Path&gt;"/>
                  </g>
                </g>
              </g>
            </g>
          </g>
          <g class="&lt;Group&gt;">
            <g class="&lt;Group&gt;">
              <g class="&lt;Group&gt;">
                <g class="&lt;Group&gt;">
                  <g class="&lt;Group&gt;">
                    <g class="&lt;Group&gt;">
                      <path fill="#F06062" d="M24.67 12.436c1.1 2.3 3.3 4 5 3.8 1.6-.1 1.9-2.1.8-4.3-1.1-2.2-3.3-3.9-4.9-3.8-1.6.2-2 2.1-.9 4.3Z" class="&lt;Path&gt;"/>
                    </g>
                  </g>
                </g>
                <g class="&lt;Group&gt;">
                  <g class="&lt;Group&gt;">
                    <g class="&lt;Group&gt;">
                      <path fill="#050505" fill-rule="evenodd" d="M29.57 16.436c-.8 0-1.7-.3-2.7-1-1-.8-1.8-1.8-2.3-2.9-.8-1.4-.9-2.8-.4-3.7.266-.533.732-.833 1.4-.9.8 0 1.8.3 2.7 1.1 1 .7 1.8 1.7 2.4 2.8.7 1.5.8 2.8.3 3.7-.267.533-.7.833-1.3.9h-.1Zm-4.7-4c.5 1 1.3 2 2.2 2.7.9.7 1.8 1 2.5 1 .532-.067.933-.3 1.2-.7.2-.4.266-.9.2-1.5-.1-.6-.3-1.3-.6-1.9-.6-1.1-1.4-2.1-2.3-2.8-.9-.7-1.8-1-2.5-.9-.534.067-.9.3-1.1.7-.2.333-.3.8-.3 1.4.1.6.3 1.3.7 2Z" class="&lt;Compound Path&gt;" clip-rule="evenodd"/>
                    </g>
                  </g>
                </g>
              </g>
              <g class="&lt;Group&gt;">
                <g class="&lt;Group&gt;">
                  <g class="&lt;Group&gt;">
                    <g class="&lt;Group&gt;">
                      <g class="&lt;Group&gt;">
                        <path fill="#80593D" d="M31.97 7.236s2.6 3 2.6 5.4c-.1 2.4-1.3 2.8-3.7 2.6-3.1-.3-4.7-2.9-5.1-4.5-.4-1.6-.5-4.5.6-5.2 1.1-.6 3.4-.8 5.6 1.7Z" class="&lt;Path&gt;"/>
                      </g>
                    </g>
                  </g>
                  <g class="&lt;Group&gt;">
                    <g class="&lt;Group&gt;">
                      <g class="&lt;Group&gt;">
                        <path fill="#050505" fill-rule="evenodd" d="M32.37 15.436c-.4 0-.9-.033-1.5-.1-3.2-.3-4.9-2.9-5.3-4.6-.1-.7-.3-1.8-.2-2.9.1-.9.3-2 .9-2.4.7-.4 1.6-.5 2.5-.4a5.575 5.575 0 0 1 1.6.7c.6.333 1.166.8 1.7 1.4 0 0 .7.8 1.3 1.8.866 1.467 1.3 2.7 1.3 3.7 0 1.067-.234 1.8-.7 2.2-.4.3-.9.5-1.6.6Zm-4.6-10.1c-.5 0-1 .2-1.3.4-.4.2-.7 1-.8 2.1 0 1.1.1 2.2.3 2.9.3 1.6 2 4 5 4.3 1.4.2 2.2 0 2.8-.4.4-.4.6-1.067.6-2 0-2.2-2.5-5.2-2.5-5.3-1.5-1.7-3-2.1-4.1-2Z" class="&lt;Compound Path&gt;" clip-rule="evenodd"/>
                      </g>
                    </g>
                  </g>
                </g>
                <g class="&lt;Group&gt;" opacity=".3">
                  <g class="&lt;Group&gt;">
                    <g class="&lt;Group&gt;">
                      <g class="&lt;Group&gt;">
                        <path fill="#0A0C0F" d="M25.77 6.536c.1.9.2 2.5.6 2.5.7 0 1.3-1.2 1.7-1 .5.1-1.1 1.9-.5 2.6.6.6 1.8-.7 2.1-.2.4.5-1 .7-.9 1.8.1 1 3.5 2.1 5.2 1 .266-.2.466-.467.6-.8v.2c-.1 2.4-1.3 2.8-3.7 2.6-3.1-.3-4.7-2.9-5.1-4.5-.3-1.2-.4-3 0-4.2Z" class="&lt;Path&gt;"/>
                      </g>
                    </g>
                  </g>
                </g>
              </g>
            </g>
            <g class="&lt;Group&gt;">
              <g class="&lt;Group&gt;">
                <g class="&lt;Group&gt;">
                  <g class="&lt;Group&gt;">
                    <g class="&lt;Group&gt;">
                      <path fill="#D29F6D" d="M10.57 19.136c.5 7.4 4.4 14.6 14.5 14.5 12.1 0 12.7-6.7 12.2-14.1-.5-7.4-8.3-12.9-14.5-12.4-7.4.5-12.8 4.7-12.2 12Z" class="&lt;Path&gt;"/>
                    </g>
                  </g>
                </g>
                <g class="&lt;Group&gt;">
                  <g class="&lt;Group&gt;">
                    <g class="&lt;Group&gt;">
                      <path fill="#050505" fill-rule="evenodd" d="M27.07 33.736c-.6.067-1.268.1-2 .1-2.468 0-4.634-.4-6.5-1.2-1.8-.8-3.3-1.9-4.5-3.3-2.1-2.5-3.4-6-3.7-10.1-.134-1.867.1-3.533.7-5a9.7 9.7 0 0 1 2.5-3.8c2.2-2 5.4-3.2 9.2-3.5 1.6-.1 3.2.2 4.9.7 1.6.6 3.2 1.5 4.6 2.6 1.466 1.2 2.633 2.567 3.5 4.1 1 1.6 1.566 3.333 1.7 5.2.1 1.9.2 4.1-.1 6.1-.3 2.1-1.1 3.7-2.2 5-1.7 1.8-4.3 2.9-8.1 3.1Zm-2-.2c.732 0 1.4-.033 2-.1 3.6-.3 6.2-1.3 7.8-3 2.3-2.5 2.6-6.2 2.2-10.9-.2-3.4-2-6.6-5-9-2.8-2.3-6.3-3.5-9.2-3.2h-.1c-7.9.5-12.6 5.1-12.1 11.8.4 4.4 2.4 14.4 14.4 14.4Z" class="&lt;Compound Path&gt;" clip-rule="evenodd"/>
                    </g>
                  </g>
                </g>
              </g>
              <g class="&lt;Group&gt;" opacity=".1">
                <g class="&lt;Group&gt;">
                  <g class="&lt;Group&gt;">
                    <g class="&lt;Group&gt;">
                      <path fill="#050505" d="M25.47 13.036c1.6-1.3 3.1-4.7.6-5.6a10.89 10.89 0 0 0-3.3-.3c-7.4.5-12.8 4.7-12.2 12 .5 7.4 4.4 14.6 14.5 14.5h.3c1-.2 1.7-.5 1.7-.5-6.7-.3-7.8-4.2-8.6-7.8-.5-2.5-.2-5.9 1.3-8.2 1.3-2 3.9-2.6 5.7-4.1Z" class="&lt;Path&gt;"/>
                    </g>
                  </g>
                </g>
              </g>
              <g class="&lt;Group&gt;">
                <g class="&lt;Group&gt;">
                  <g class="&lt;Group&gt;">
                    <g class="&lt;Group&gt;">
                      <path fill="#80593D" d="M32.37 10.536c-2.6-2.8-6.9-3.9-10.1-3.9-8.8 0-13.7 4.4-13.3 13.5.2 4.7 3.2 8.8 7.5 11.1-.1 0-3.3-5.3-3.1-7.3.2-1.9 1.3-1.9 2.1.4 0 0 .7.2.6-.5-.1-1 .6-3.8 1.4-5.9 1.4-3.4 4.9-6.6 9.9-7.3 2.2-.3 3.8-.3 5-.1Z" class="&lt;Path&gt;"/>
                    </g>
                  </g>
                </g>
                <g class="&lt;Group&gt;">
                  <g class="&lt;Group&gt;">
                    <g class="&lt;Group&gt;">
                      <path fill="#050505" fill-rule="evenodd" d="M16.37 31.436c-2.2-1.2-4-2.8-5.3-4.8a12.399 12.399 0 0 1-1.6-3.1c-.4-1.133-.6-2.267-.6-3.4-.2-4.4.8-7.8 3-10.1 2.3-2.4 5.8-3.6 10.4-3.5 3.3 0 7.6 1 10.2 3.9l.3.3-.5-.1c-1.4-.2-3-.167-4.8.1-5.4.8-8.6 4.3-9.9 7.3-.8 2-1.4 4.8-1.3 5.8 0 .267-.067.467-.2.6-.2.2-.6.1-.6.1l-.1-.1h-.1c-.4-1.3-.8-1.8-1.1-1.7-.3 0-.6.5-.6 1.2-.1.8.4 2.3 1.3 4.2.8 1.6 1.6 2.9 1.7 3 0 0 0-.1-.1-.1v.1l.1.3h-.2Zm4-24.5c-3.6.267-6.368 1.367-8.3 3.3-2.1 2.2-3.1 5.6-3 9.8.2 4.3 2.8 8.4 6.9 10.8-.4-.6-1-1.6-1.5-2.6-.6-1.4-1.4-3.3-1.3-4.3.066-.467.166-.833.3-1.1.2-.4.4-.5.6-.5.5 0 1.1.6 1.5 1.8.1.1.2.1.2 0 .1-.1.1-.2.1-.3-.1-1.1.5-3.9 1.4-5.9.333-.933.8-1.8 1.4-2.6.666-.8 1.4-1.533 2.2-2.2.933-.667 1.9-1.233 2.9-1.7 1.133-.467 2.333-.8 3.6-1 1.666-.267 3.166-.3 4.5-.1-2.6-2.6-6.6-3.5-9.6-3.5-.667 0-1.3.033-1.9.1Z" class="&lt;Compound Path&gt;" clip-rule="evenodd"/>
                    </g>
                  </g>
                </g>
              </g>
              <g class="&lt;Group&gt;" opacity=".3">
                <g class="&lt;Group&gt;">
                  <g class="&lt;Group&gt;">
                    <g class="&lt;Group&gt;">
                      <path fill="#0A0C0F" d="M13.37 23.936c.2-1.9 1.3-1.9 2 .3 0-5 2.2-8 1.3-8.2-1-.2-6.3-2.3-5.7-4.6-1.4 2.2-2.1 5-2 8.7.2 4.7 3.2 8.8 7.5 11.1-.1 0-3.3-5.3-3.1-7.3Z" class="&lt;Path&gt;"/>
                    </g>
                  </g>
                </g>
              </g>
              <g class="&lt;Group&gt;">
                <g class="&lt;Group&gt;">
                  <g class="&lt;Group&gt;">
                    <g class="&lt;Group&gt;">
                      <g class="&lt;Group&gt;">
                        <path fill="#D29F6D" d="M14.37 22.536c-2.5-1-4 2.8-.7 4.7 1.3.8 1.9-.6 1.9-.6" class="&lt;Path&gt;"/>
                      </g>
                    </g>
                  </g>
                  <g class="&lt;Group&gt;">
                    <g class="&lt;Group&gt;">
                      <g class="&lt;Group&gt;">
                        <path fill="#050505" d="M14.57 27.636c-.334 0-.668-.1-1-.3-.9-.5-1.5-1.2-1.8-2-.2-.7-.2-1.4.1-2 .2-.4.6-.8 1-1 .466-.2 1-.167 1.6.1.1 0 .1.1.1.2-.1 0-.2.1-.2.1-1-.4-1.8-.1-2.2.8-.3.5-.3 1.1-.1 1.7.3.7.8 1.4 1.7 1.8.333.267.633.333.9.2.5-.1.7-.7.8-.7 0 0 .1-.1.2 0 .1 0 .1.1.1.2-.1 0-.3.6-1 .8-.067.067-.134.1-.2.1Z" class="&lt;Path&gt;"/>
                      </g>
                    </g>
                  </g>
                </g>
                <g class="&lt;Group&gt;" opacity=".1">
                  <g class="&lt;Group&gt;">
                    <g class="&lt;Group&gt;">
                      <g class="&lt;Group&gt;">
                        <path fill="#050505" d="m15.37 26.136-.7-2.7c-1.7-.5-2.7 1.7-.5 2.8.7.4 1.1.1 1.2-.1Z" class="&lt;Path&gt;"/>
                      </g>
                    </g>
                  </g>
                </g>
              </g>
            </g>
            <g class="&lt;Group&gt;">
              <g class="&lt;Group&gt;">
                <g class="&lt;Group&gt;">
                  <g class="&lt;Group&gt;">
                    <g class="&lt;Group&gt;">
                      <path fill="#F06062" d="M14.87 13.836c-.8 2.3-2.7 4.3-4.3 4.4-1.6.1-2.3-1.7-1.5-4.1.8-2.4 2.7-4.4 4.3-4.5 1.6-.1 2.3 1.8 1.5 4.2Z" class="&lt;Path&gt;"/>
                    </g>
                  </g>
                </g>
                <g class="&lt;Group&gt;">
                  <g class="&lt;Group&gt;">
                    <g class="&lt;Group&gt;">
                      <path fill="#050505" fill-rule="evenodd" d="M10.57 18.436c-.6 0-1.1-.233-1.5-.7-.6-.8-.7-2.1-.2-3.7.4-1.1 1.1-2.3 1.9-3.1.9-.9 1.8-1.4 2.6-1.5.666 0 1.166.233 1.5.7.6.8.7 2.2.2 3.7-.4 1.2-1.1 2.3-1.9 3.2-.8.8-1.7 1.3-2.6 1.4Zm2.8-8.6c-.7 0-1.6.5-2.3 1.3-.8.8-1.5 1.9-1.8 3-.3.8-.4 1.5-.4 2.1.066.533.233.967.5 1.3.266.4.666.6 1.2.6.7-.1 1.6-.5 2.4-1.4.8-.8 1.4-1.9 1.8-3 .2-.7.3-1.4.3-2-.068-.6-.234-1.067-.5-1.4-.268-.4-.667-.567-1.2-.5Z" class="&lt;Compound Path&gt;" clip-rule="evenodd"/>
                    </g>
                  </g>
                </g>
              </g>
              <g class="&lt;Group&gt;">
                <g class="&lt;Group&gt;">
                  <g class="&lt;Group&gt;">
                    <g class="&lt;Group&gt;">
                      <g class="&lt;Group&gt;">
                        <path fill="#80593D" d="M6.87 9.636s-2.1 3.5-1.7 5.8c.4 2.3 1.7 2.6 4 2 3-.8 4.3-3.6 4.4-5.2.1-1.6-.2-4.5-1.4-5s-3.4-.3-5.3 2.4Z" class="&lt;Path&gt;"/>
                      </g>
                    </g>
                  </g>
                  <g class="&lt;Group&gt;">
                    <g class="&lt;Group&gt;">
                      <g class="&lt;Group&gt;">
                        <path fill="#050505" fill-rule="evenodd" d="M7.77 17.836c-.7.1-1.3 0-1.7-.3-.534-.333-.867-1.033-1-2.1-.2-1 .033-2.267.7-3.8.5-1.2 1-2 1-2.1.466-.667.966-1.2 1.5-1.6a3.66 3.66 0 0 1 1.5-.8c.8-.3 1.7-.4 2.5-.1.7.3 1.1 1.4 1.2 2.2.3 1.1.3 2.3.3 3-.2 1.7-1.5 4.6-4.6 5.4-.534.133-1 .2-1.4.2Zm-.7-8.1c0 .1-.6.9-1 2-.6 1.5-.9 2.7-.7 3.7.133.933.433 1.533.9 1.8.4.2.8.3 1.4.3.4-.067.866-.167 1.4-.3 3-.7 4.2-3.4 4.3-5 .1-.7 0-1.8-.2-2.9-.2-1.1-.6-1.8-1.1-1.9-1-.5-3.2-.4-5 2.3Z" class="&lt;Compound Path&gt;" clip-rule="evenodd"/>
                      </g>
                    </g>
                  </g>
                </g>
                <g class="&lt;Group&gt;" opacity=".3">
                  <g class="&lt;Group&gt;">
                    <g class="&lt;Group&gt;">
                      <g class="&lt;Group&gt;">
                        <path fill="#0A0C0F" d="M12.97 8.136c-.1.8.2 2.4-.3 2.5-.6.1-1.4-1-1.8-.7-.5.2 1.3 1.7.9 2.4-.5.8-1.9-.4-2.2.2-.2.5 1.2.6 1.2 1.6 0 1.1-3.1 2.7-4.9 1.8a1.208 1.208 0 0 1-.7-.7v.2c.4 2.3 1.7 2.6 4 2 3-.8 4.3-3.6 4.4-5.2.1-1.2-.1-3-.6-4.1Z" class="&lt;Path&gt;"/>
                      </g>
                    </g>
                  </g>
                </g>
              </g>
            </g>
          </g>
          <g class="&lt;Group&gt;">
            <g class="&lt;Group&gt;">
              <g class="&lt;Group&gt;">
                <g class="&lt;Group&gt;">
                  <g class="&lt;Group&gt;">
                    <path fill="#FEFEFE" d="M22.97 23.436c0 .3 1.3 1.4 2.7 1.3 1.5-.1 2.6-.9 2.6-1.7-.1-.8-1.3-1.4-2.8-1.3-1.4.1-2.6.9-2.5 1.7Z" class="&lt;Path&gt;"/>
                  </g>
                </g>
              </g>
              <g class="&lt;Group&gt;">
                <g class="&lt;Group&gt;">
                  <g class="&lt;Group&gt;">
                    <path fill="#1A171B" fill-rule="evenodd" d="M25.67 24.836c-.468.067-.934 0-1.4-.2-.4-.1-.8-.4-1.1-.6-.1-.1-.4-.4-.4-.6 0-.5.3-.9.8-1.3.5-.3 1.2-.5 1.9-.6 1 0 2 .2 2.5.7.266.2.4.467.4.8.1.4-.2.9-.7 1.2-.5.4-1.2.6-2 .6Zm-2.6-1.4s.1.1.3.4c.5.4 1.4.8 2.3.7.7 0 1.3-.2 1.8-.5.4-.3.6-.6.6-1 0-.2-.1-.4-.3-.6-.5-.4-1.4-.6-2.3-.6-.7.1-1.3.3-1.7.6-.5.3-.7.6-.7 1Z" class="&lt;Compound Path&gt;" clip-rule="evenodd"/>
                  </g>
                </g>
              </g>
            </g>
            <g class="&lt;Group&gt;">
              <g class="&lt;Group&gt;">
                <g class="&lt;Group&gt;">
                  <g class="&lt;Group&gt;">
                    <path fill="#FEFEFE" d="M36.47 22.136c.1.4-.6 1.6-1.7 1.7-1.1.2-2-.4-2.1-1.2-.1-.8.7-1.4 1.8-1.6 1-.1 1.9.3 2 1.1Z" class="&lt;Path&gt;"/>
                  </g>
                </g>
              </g>
              <g class="&lt;Group&gt;">
                <g class="&lt;Group&gt;">
                  <g class="&lt;Group&gt;">
                    <path fill="#1A171B" fill-rule="evenodd" d="M34.67 24.036c-.6.1-1.2-.1-1.6-.4-.3-.3-.5-.6-.5-1-.1-.4.1-.9.5-1.2.3-.3.8-.5 1.3-.5.7-.1 1.4 0 1.8.4.266.2.432.467.5.8 0 .5-.7 1.8-1.9 1.9h-.1Zm-.1-2.8h-.1c-1 .1-1.7.7-1.6 1.4 0 .267.133.5.4.7.4.3.9.5 1.5.4.5-.1 1-.5 1.1-.7.3-.4.5-.7.5-.9-.067-.2-.2-.4-.4-.6-.3-.3-.8-.4-1.4-.3Z" class="&lt;Compound Path&gt;" clip-rule="evenodd"/>
                  </g>
                </g>
              </g>
            </g>
          </g>
          <g class="&lt;Group&gt;">
            <g class="&lt;Group&gt;">
              <g class="&lt;Group&gt;">
                <g class="&lt;Group&gt;">
                  <path fill="#050505" d="M36.47 22.236c-.067 0-.1-.033-.1-.1-.1 0-.1-.1 0-.2l1-.5c.1-.1.2 0 .2 0 0 .1 0 .2-.1.3l-.9.5h-.1Z" class="&lt;Path&gt;"/>
                </g>
              </g>
            </g>
          </g>
          <g class="&lt;Group&gt;">
            <g class="&lt;Group&gt;">
              <g class="&lt;Group&gt;">
                <g class="&lt;Group&gt;">
                  <path fill="#050505" d="M36.17 21.736c-.067 0-.1-.033-.1-.1-.1-.1-.1-.2 0-.2l.5-.5h.3c0 .1 0 .2-.1.3l-.5.4c0 .067-.034.1-.1.1Z" class="&lt;Path&gt;"/>
                </g>
              </g>
            </g>
          </g>
          <g class="&lt;Group&gt;">
            <g class="&lt;Group&gt;">
              <g class="&lt;Group&gt;">
                <g class="&lt;Group&gt;">
                  <path fill="#050505" d="M22.87 23.336h-.1l-1-.4c-.1 0-.1-.1-.1-.2s.1-.1.2-.1l1 .4c.1 0 .1.1.1.2 0 .067-.034.1-.1.1Z" class="&lt;Path&gt;"/>
                </g>
              </g>
            </g>
          </g>
          <g class="&lt;Group&gt;">
            <g class="&lt;Group&gt;">
              <g class="&lt;Group&gt;">
                <g class="&lt;Group&gt;">
                  <path fill="#050505" d="M23.17 22.836c-.068 0-.1-.033-.1-.1l-.6-.3c-.1-.1-.1-.2-.1-.3.1 0 .2-.1.3 0l.5.4c.1 0 .1.1.1.2-.067 0-.1.033-.1.1Z" class="&lt;Path&gt;"/>
                </g>
              </g>
            </g>
          </g>
          <g class="&lt;Group&gt;">
            <g class="&lt;Group&gt;">
              <g class="&lt;Group&gt;">
                <g class="&lt;Group&gt;">
                  <g class="&lt;Group&gt;">
                    <path fill="#4F1E11" d="M27.17 22.836c-.1-.6-.6-1-1.2-1-.6.1-1 .6-1 1.1.1.6.6 1 1.2 1 .6-.1 1-.6 1-1.1Z" class="&lt;Path&gt;"/>
                  </g>
                </g>
              </g>
              <g class="&lt;Group&gt;">
                <g class="&lt;Group&gt;">
                  <g class="&lt;Group&gt;">
                    <path fill="#050505" fill-rule="evenodd" d="M26.17 24.036c-.7 0-1.3-.4-1.3-1.1-.1-.6.4-1.2 1.1-1.2.7-.1 1.3.4 1.3 1.1.1.6-.4 1.1-1.1 1.2Zm-.2-2c-.5 0-.9.4-.8.9 0 .5.5.8 1 .8s.9-.5.8-.9c0-.5-.4-.9-1-.8Z" class="&lt;Compound Path&gt;" clip-rule="evenodd"/>
                  </g>
                </g>
              </g>
            </g>
            <g class="&lt;Group&gt;">
              <g class="&lt;Group&gt;">
                <g class="&lt;Group&gt;">
                  <g class="&lt;Group&gt;">
                    <path fill="#050505" d="M26.57 22.836c-.1-.2-.3-.4-.5-.4-.3 0-.5.2-.4.5 0 .2.2.4.4.4.3-.1.5-.3.5-.5Z" class="&lt;Path&gt;"/>
                  </g>
                </g>
              </g>
            </g>
            <g class="&lt;Group&gt;">
              <g class="&lt;Group&gt;">
                <g class="&lt;Group&gt;">
                  <g class="&lt;Group&gt;">
                    <path fill="#FEFEFE" d="M26.77 22.936c0-.2-.2-.3-.3-.3-.2 0-.3.2-.3.3 0 .1.2.2.3.2.2 0 .3-.1.3-.2Z" class="&lt;Path&gt;"/>
                  </g>
                </g>
              </g>
            </g>
            <g class="&lt;Group&gt;">
              <g class="&lt;Group&gt;">
                <g class="&lt;Group&gt;">
                  <g class="&lt;Group&gt;">
                    <path fill="#050505" fill-rule="evenodd" d="M26.17 24.036c-.7 0-1.3-.4-1.3-1.1-.1-.6.4-1.2 1.1-1.2.7-.1 1.3.4 1.3 1.1.1.6-.4 1.1-1.1 1.2Zm-.2-2c-.5 0-.9.4-.8.9 0 .5.5.8 1 .8s.9-.5.8-.9c0-.5-.4-.9-1-.8Z" class="&lt;Compound Path&gt;" clip-rule="evenodd"/>
                  </g>
                </g>
              </g>
            </g>
          </g>
          <g class="&lt;Group&gt;">
            <g class="&lt;Group&gt;">
              <g class="&lt;Group&gt;">
                <g class="&lt;Group&gt;">
                  <g class="&lt;Group&gt;">
                    <path fill="#4F1E11" d="M35.77 22.136c0-.6-.6-1-1.2-1-.6.1-1 .6-1 1.1.1.6.6 1 1.2.9.6 0 1-.5 1-1Z" class="&lt;Path&gt;"/>
                  </g>
                </g>
              </g>
              <g class="&lt;Group&gt;">
                <g class="&lt;Group&gt;">
                  <g class="&lt;Group&gt;">
                    <path fill="#050505" fill-rule="evenodd" d="M34.77 23.336c-.7 0-1.3-.4-1.3-1.1-.1-.6.5-1.2 1.1-1.2.7-.1 1.3.4 1.3 1 .1.7-.4 1.2-1.1 1.3Zm-.1-2c-.6 0-1 .4-.9.9 0 .5.5.8 1 .8s.9-.5.9-.9c-.1-.5-.5-.9-1-.8Z" class="&lt;Compound Path&gt;" clip-rule="evenodd"/>
                  </g>
                </g>
              </g>
            </g>
            <g class="&lt;Group&gt;">
              <g class="&lt;Group&gt;">
                <g class="&lt;Group&gt;">
                  <g class="&lt;Group&gt;">
                    <path fill="#050505" d="M35.17 22.136c0-.2-.3-.4-.5-.4-.3 0-.5.2-.4.5 0 .2.2.4.5.4.2-.1.4-.3.4-.5Z" class="&lt;Path&gt;"/>
                  </g>
                </g>
              </g>
            </g>
            <g class="&lt;Group&gt;">
              <g class="&lt;Group&gt;">
                <g class="&lt;Group&gt;">
                  <g class="&lt;Group&gt;">
                    <path fill="#FEFEFE" d="M35.37 22.236c0-.2-.1-.3-.3-.3-.1 0-.3.2-.2.3 0 .1.1.2.2.2.2 0 .3-.1.3-.2Z" class="&lt;Path&gt;"/>
                  </g>
                </g>
              </g>
            </g>
            <g class="&lt;Group&gt;">
              <g class="&lt;Group&gt;">
                <g class="&lt;Group&gt;">
                  <g class="&lt;Group&gt;">
                    <path fill="#050505" fill-rule="evenodd" d="M34.77 23.336c-.7 0-1.3-.4-1.3-1.1-.1-.6.5-1.2 1.1-1.2.7-.1 1.3.4 1.3 1 .1.7-.4 1.2-1.1 1.3Zm-.1-2c-.6 0-1 .4-.9.9 0 .5.5.8 1 .8s.9-.5.9-.9c-.1-.5-.5-.9-1-.8Z" class="&lt;Compound Path&gt;" clip-rule="evenodd"/>
                  </g>
                </g>
              </g>
            </g>
          </g>
          <g class="&lt;Group&gt;">
            <g class="&lt;Group&gt;">
              <g class="&lt;Group&gt;">
                <g class="&lt;Group&gt;">
                  <path fill="#B88A5F" d="M25.47 21.736c-1.2.1-2.2.6-2.4 1.2.4-.3 1.2-.7 2.4-.8 1.3-.1 2.2.2 2.6.4-.4-.5-1.4-.9-2.6-.8Z" class="&lt;Path&gt;"/>
                </g>
              </g>
            </g>
            <g class="&lt;Group&gt;">
              <g class="&lt;Group&gt;">
                <g class="&lt;Group&gt;">
                  <path fill="#050505" fill-rule="evenodd" d="M23.07 23.136h-.2v-.2c.3-.7 1.4-1.3 2.6-1.4 1.2-.1 2.3.3 2.7.9.066.133.066.2 0 .2-.068.067-.134.1-.2.1-.4-.3-1.2-.6-2.4-.4-1.3.1-2 .5-2.5.8Zm2.4-1.2c-.6 0-1.1.2-1.5.4.4-.2.9-.333 1.5-.4h1.1a3.042 3.042 0 0 0-1.1 0Z" class="&lt;Compound Path&gt;" clip-rule="evenodd"/>
                </g>
              </g>
            </g>
          </g>
          <g class="&lt;Group&gt;">
            <g class="&lt;Group&gt;">
              <g class="&lt;Group&gt;">
                <g class="&lt;Group&gt;">
                  <path fill="#B88A5F" d="M34.47 21.036c-.9.1-1.5.5-1.7 1.1.4-.3 1.1-.6 2-.7.6 0 1 0 1.4.1-.3-.4-1-.6-1.7-.5Z" class="&lt;Path&gt;"/>
                </g>
              </g>
            </g>
            <g class="&lt;Group&gt;">
              <g class="&lt;Group&gt;">
                <g class="&lt;Group&gt;">
                  <path fill="#050505" fill-rule="evenodd" d="M32.77 22.236h-.1c-.068-.067-.1-.133-.1-.2.2-.6.9-1 1.8-1.1.8-.1 1.6.1 1.9.5.066.067.1.133.1.2-.067.067-.134.1-.2.1-.4-.133-.867-.167-1.4-.1-.734.067-1.367.267-1.9.6h-.1Zm1.7-1c-.5 0-.9.2-1.2.4.4-.133.9-.233 1.5-.3.2-.067.433-.1.7-.1a2.527 2.527 0 0 0-1 0Z" class="&lt;Compound Path&gt;" clip-rule="evenodd"/>
                </g>
              </g>
            </g>
          </g>
          <g class="&lt;Group&gt;">
            <g class="&lt;Group&gt;">
              <g class="&lt;Group&gt;">
                <g class="&lt;Group&gt;">
                  <path fill="#050505" d="M30.57 29.436c-1 .1-1.7-.1-1.7-.2-.1 0-.2-.1-.1-.2 0 0 .1-.1.2-.1 0 0 .8.3 2 .2 1.1-.2 1.6-.6 1.6-.6.1 0 .2 0 .3.1 0 0 0 .1-.1.2 0 0-.5.4-1.8.6h-.4Z" class="&lt;Path&gt;"/>
                </g>
              </g>
            </g>
          </g>
          <g class="&lt;Group&gt;">
            <g class="&lt;Group&gt;">
              <g class="&lt;Group&gt;">
                <g class="&lt;Group&gt;">
                  <path fill="#2E2012" d="M35.97 19.336c-.067 0-.134-.033-.2-.1-.9-1.2-2.5-.3-2.5-.3-.1.1-.3.1-.3 0-.1-.1-.1-.3.1-.3 0-.1.4-.3 1-.4.9-.2 1.6.1 2.1.7 0 .1 0 .2-.1.3 0 .067-.034.1-.1.1Z" class="&lt;Path&gt;"/>
                </g>
              </g>
            </g>
          </g>
          <g class="&lt;Group&gt;">
            <g class="&lt;Group&gt;">
              <g class="&lt;Group&gt;">
                <g class="&lt;Group&gt;">
                  <path fill="#2E2012" d="M23.07 20.236h-.1c-.1-.1-.1-.3-.1-.3.6-.7 1.4-1.1 2.5-1.1.8 0 1.4.2 1.4.2.2 0 .2.2.2.3 0 .1-.2.2-.3.1 0 0-.6-.1-1.3-.1-.934 0-1.634.267-2.1.8-.067.067-.134.1-.2.1Z" class="&lt;Path&gt;"/>
                </g>
              </g>
            </g>
          </g>
          <g class="&lt;Group&gt;">
            <g class="&lt;Group&gt;" opacity=".3">
              <g class="&lt;Group&gt;">
                <g class="&lt;Group&gt;">
                  <g class="&lt;Group&gt;">
                    <path fill="#050505" d="M30.87 26.836c.9-.1 1.1-.2 1.4-.8 0 0-1.5.6-3 .4 0 0 0 .7 1.6.4Z" class="&lt;Path&gt;"/>
                  </g>
                </g>
              </g>
            </g>
            <g class="&lt;Group&gt;">
              <g class="&lt;Group&gt;">
                <g class="&lt;Group&gt;">
                  <g class="&lt;Group&gt;">
                    <path fill="#050505" d="M30.97 26.536c-.9.1-1.8-.1-1.8-.1-.1 0-.2-.1-.1-.2l.1-.1c.4.1.9.1 1.4.1.733 0 1.2-.1 1.4-.3.133-.133.166-.3.1-.5 0-.1.1-.2.2-.2s.1 0 .2.1c0 .333-.067.6-.2.8-.3.3-.8.4-1.3.4Z" class="&lt;Path&gt;"/>
                  </g>
                </g>
              </g>
            </g>
          </g>
          <g class="&lt;Group&gt;">
            <g class="&lt;Group&gt;">
              <g class="&lt;Group&gt;">
                <g class="&lt;Group&gt;">
                  <path fill="#80593D" d="M38.57 15.636c-.1-.6-1.3-5.3-5.5-6.9-4.1-1.7-8.1-.8-8.1-.8-10.8 1.9-10.4 9.3-10.5 9.6 0 .3 4.6.5 9.1.6.2-1.2.6-2.9.8-3.3.2-.4.5 1.6.7 3.3 1.7 0 3.2-.1 4.4-.2 1.3-.1 2.6-.3 3.8-.6-.3-1.3-.7-3-1.1-3.9-.5-1.3 1.5 1.7 2.5 3.6 2.3-.5 4-1.1 3.9-1.4Z" class="&lt;Path&gt;"/>
                </g>
              </g>
            </g>
            <g class="&lt;Group&gt;">
              <g class="&lt;Group&gt;">
                <g class="&lt;Group&gt;">
                  <path fill="#050505" fill-rule="evenodd" d="M28.77 18.136c-1 .067-2.234.1-3.7.1h-.1l-.1-.1a46.257 46.257 0 0 0-.2-2.1c-.1-.4-.2-.7-.2-.9-.2.5-.5 1.5-.8 3v.1h-.1c-2.1 0-4.3 0-6.1-.2-.9 0-1.6-.1-2.1-.1-.9-.1-.9-.2-1-.3v-.2c0-2 .7-3.5 1.4-4.5.733-1.2 1.766-2.2 3.1-3 1.666-1 3.7-1.733 6.1-2.2 0 0 1-.2 2.5-.2a17.8 17.8 0 0 1 2.7.2c1.066.133 2.066.4 3 .8 1 .4 1.866.967 2.6 1.7.666.667 1.233 1.4 1.7 2.2.8 1.5 1.2 2.8 1.3 3.1 0 .2-.2.4-.3.5-.2.133-.5.267-.9.4-.7.2-1.7.5-2.8.8h-.2v-.1c-.4-.7-1-1.7-1.5-2.5-.2-.333-.367-.6-.5-.8.3 1 .6 2.4.9 3.5v.1l-.1.1c-1.3.2-2.7.4-3.9.6h-.7Zm-3.6-.2c1.8 0 3.233-.067 4.3-.2 1.1-.1 2.4-.3 3.6-.5-.3-1.3-.7-2.9-1-3.8-.068-.067-.1-.133-.1-.2-.1-.2 0-.3.1-.3s.2.1.3.1c.066.067.133.167.2.3.2.267.433.6.7 1 .5.8 1.1 1.8 1.5 2.5 1-.2 1.9-.5 2.6-.7.8-.3 1-.5 1.1-.5-.1-.4-.5-1.7-1.3-3-1.068-1.867-2.434-3.133-4.1-3.8-2.1-.8-4.2-1-5.6-1-1.5 0-2.5.3-2.5.3-4.3.7-7.3 2.4-9 5-.6.9-1.3 2.4-1.3 4.3.2.1.8.2 2.9.3 1.8.1 3.9.2 5.8.2.4-1.8.7-2.867.9-3.2.1-.1.2-.1.2-.1.2 0 .2.2.3.4.066.2.133.5.2.9.066.467.133 1.133.2 2Z" class="&lt;Compound Path&gt;" clip-rule="evenodd"/>
                </g>
              </g>
            </g>
          </g>
          <g class="&lt;Group&gt;" opacity=".3">
            <g class="&lt;Group&gt;">
              <g class="&lt;Group&gt;">
                <g class="&lt;Group&gt;">
                  <g class="&lt;Group&gt;">
                    <path fill="#0A0C0F" d="M23.57 18.136c0-.2.032-.4.1-.6-1.5 0-6.4-.2-6.9-.3-.6 0 .2-4.8 2-7-4.5 2.9-4.3 7-4.3 7.3 0 .3 4.6.5 9.1.6Z" class="&lt;Path&gt;"/>
                  </g>
                </g>
              </g>
            </g>
            <g class="&lt;Group&gt;">
              <g class="&lt;Group&gt;">
                <g class="&lt;Group&gt;">
                  <g class="&lt;Group&gt;">
                    <path fill="#0A0C0F" d="M33.27 17.336c0-.2-.034-.433-.1-.7-1.1.2-3.7.6-7.2.6 0 0-1-2.6-1.5-2.4.2.2.4 1.9.6 3.3 1.7 0 3.2-.1 4.4-.2 1.3-.1 2.6-.3 3.8-.6Z" class="&lt;Path&gt;"/>
                  </g>
                </g>
              </g>
            </g>
            <g class="&lt;Group&gt;">
              <g class="&lt;Group&gt;">
                <g class="&lt;Group&gt;">
                  <g class="&lt;Group&gt;">
                    <path fill="#0A0C0F" d="M38.57 15.636c0-.067-.034-.2-.1-.4-.7.3-2.1.9-3 1.1 0 0-2.2-2.9-3.3-3.2.2.1 1.7 2.3 2.5 3.9 2.3-.5 4-1.1 3.9-1.4Z" class="&lt;Path&gt;"/>
                  </g>
                </g>
              </g>
            </g>
          </g>
        </g>
        <g class="&lt;Group&gt;" opacity=".3">
          <g class="&lt;Group&gt;">
            <g class="&lt;Group&gt;">
              <path fill="#1C1C1A" d="M40.77 47.536c0 .6-6.2 1.5-14 2.1-7.8.6-14.1.6-14.2 0 0-.6 6.3-1.5 14-2.1 7.8-.6 14.1-.6 14.2 0Z" class="&lt;Path&gt;"/>
            </g>
          </g>
        </g>
        <g class="&lt;Group&gt;">
          <g class="&lt;Group&gt;">
            <g class="&lt;Group&gt;">
              <g class="&lt;Group&gt;">
                <g class="&lt;Group&gt;">
                  <path fill="#D29F6D" d="m37.27 38.636.8.3c.3.1.4.5.3.8-.2.2-.4.3-.5.3-.3 0-.7-.2-.7-.2" class="&lt;Path&gt;"/>
                </g>
              </g>
            </g>
            <g class="&lt;Group&gt;">
              <g class="&lt;Group&gt;">
                <g class="&lt;Group&gt;">
                  <path fill="#050505" d="M37.47 40.136c-.1 0-.4-.2-.4-.2l.1-.3.3.1s.1.1.4.1c0 0 .2 0 .3-.2.1-.2 0-.4-.2-.6l-.7-.3c-.1 0-.1-.1-.1-.2s.1-.1.2-.1l.8.3c.3.3.5.7.3 1-.1.4-.4.5-.7.4h-.3Z" class="&lt;Path&gt;"/>
                </g>
              </g>
            </g>
          </g>
        </g>
      </g>
      <g class="computadora">
        <g class="&lt;Group&gt;">
          <path fill="url(#a)" stroke="#000" stroke-width=".1" d="M57.91 24.514v.001l.01-.004 1.699-.627.133.447-.029.053-6.66 8.741v.002a1.076 1.076 0 0 1-.477.357 1.337 1.337 0 0 1-.65.096L38.23 32.093l-.024-.013-.006-.004h-.002v-.001h-.001l-.003-.002-.003-.002h-.002v-.001h-.002v-.001h-.002v-.001h-.002v-.001l-.135-.452 1.146-.401.008-.003.006-.006 5.809-4.671.003-.003a.936.936 0 0 1 .358-.189.252.252 0 0 1 .1-.01l.007.002.008-.001 12.417-1.82Z" class="&lt;Path&gt;"/>
          <g class="&lt;Group&gt;">
            <path fill="url(#b)" stroke="#000" stroke-width=".1" d="m51.782 33.063-13.714-1.489a.055.055 0 0 1-.019-.006l-.002-.002c0-.001-.003-.012.01-.04a.82.82 0 0 1 .181-.22l6.625-5.29.003-.002a.934.934 0 0 1 .358-.19.252.252 0 0 1 .1-.009l.007.001h.008l13.848-2.058c.18-.022.311-.016.378.01.034.013.038.026.04.03 0 .006 0 .026-.032.063l-.002.002-6.661 8.745-.002.001a1.075 1.075 0 0 1-.476.358 1.337 1.337 0 0 1-.65.096Z" class="&lt;Path&gt;"/>
            <path fill="#C9B4D7" stroke="#000" stroke-width=".1" d="m58.145 25.298-4.9 6.255-14.113-.814 4.78-3.87 14.233-1.571Z" class="&lt;Path&gt;"/>
            <g class="&lt;Compound Path&gt;">
              <mask id="d" fill="#fff" class="d">
                <path fill-rule="evenodd" d="m56.728 25.565 1.03-.118-.675.89-1.103.077.748-.849Zm-1.885.186 1.58-.158-.69.832-1.639.175.749-.849Zm-1.753.209 1.448-.18-.766.79-1.39.164.708-.774Zm-1.581.158 1.276-.13-.766.792-1.293.072.783-.734Zm-1.449.18 1.202-.17-.766.792-1.161.095.725-.716Zm-1.333.147 1.086-.136-.783.735-1.046.06.743-.659Zm-1.219.113.972-.102-.726.717-.988.044.742-.66Zm-1.144.152.914-.084-.743.66-.913.084.742-.66Zm-1.029.119.84-.125-.743.66-.799.05.702-.585Zm-1.465.123 1.276-.13-.743.66-1.293.072.76-.602Zm11.42-.332 1.712-.135-.731.907-1.77.151.788-.923Zm-1.903.128 1.598-.1-.806.866-1.54.083.748-.849Zm-1.713.134 1.35-.089-.748.85-1.408.105.806-.866Zm-1.54.083 1.236-.055-.767.792-1.293.072.824-.809Zm-1.409.107 1.161-.096-.765.792-1.162.095.766-.791Zm-1.293.072 1.046-.061-.783.734-1.046.06.783-.733Zm-1.16.095.913-.084-.783.734-.931.026.8-.676Zm-1.104.078.913-.084-.783.734-.873.01.743-.66Zm-1.03.119.8-.05-.76.601-.8.05.76-.601Zm-1.086.135.914-.084-.76.602-.914.084.76-.602Zm-.858.694.667-.073-.8.676-.684.016.817-.62Zm11.697-.665 2.11-.065-.83.998-2.11.065.83-.998Zm-1.903.128 1.54-.083-.846.94-1.5.009.806-.866Zm-1.712.134 1.35-.089-.806.866-1.35.09.806-.867Zm-1.54.083 1.218-.112-.864.883-1.178.038.823-.809Zm-1.409.106 1.104-.078-.824.809-1.12.02.84-.75Zm-1.236.055.989-.044-.824.809-1.005-.014.84-.75Zm-1.16.095.913-.084-.84.751-.874.01.8-.677Zm-1.047.062.816.007-.8.677-.857.067.841-.751Zm-.931.026.741-.033-.8.677-.799.05.858-.694Zm8.907.479 3.172-.068-.87 1.073-3.19.01.888-1.015Zm-1.805.036 1.5-.008-.962.975-1.442-.009.904-.958Zm-1.557.026 1.31-.015-.904.958-1.328-.043.922-.9Zm-1.426.048 1.178-.037-.92.9-1.196-.02.938-.843Zm-1.293.073 1.046-.062-.864.884-1.063.003.881-.825Zm-1.195-.02 1.005.013-.898.768-.988.044.88-.825Zm-1.063.003.873-.01-.898.769-.816-.008.84-.75Zm-1.006-.013.816.007-.898.768-.816-.007.898-.768Zm-1.31.014 1.12-.02-.858.693-1.063.004.8-.677Zm9.514 1.049 3.15.064-.951 1.222-3.184-.18.985-1.106Zm-1.821-.021 1.442.008-.985 1.108-1.42-.141.963-.975Zm-1.633-.015 1.328.043-1.002 1.05-1.287-.118.962-.975Zm-5.902-.059 5.655.07-.962.975-5.608-.334.915-.71Zm-1.31.015 1.063-.004-.898.769-1.023-.071.858-.694Z" clip-rule="evenodd"/>
              </mask>
              <path fill="url(#c)" fill-rule="evenodd" stroke="#000" stroke-width=".2" d="m56.728 25.565 1.03-.118-.675.89-1.103.077.748-.849Zm-1.885.186 1.58-.158-.69.832-1.639.175.749-.849Zm-1.753.209 1.448-.18-.766.79-1.39.164.708-.774Zm-1.581.158 1.276-.13-.766.792-1.293.072.783-.734Zm-1.449.18 1.202-.17-.766.792-1.161.095.725-.716Zm-1.333.147 1.086-.136-.783.735-1.046.06.743-.659Zm-1.219.113.972-.102-.726.717-.988.044.742-.66Zm-1.144.152.914-.084-.743.66-.913.084.742-.66Zm-1.029.119.84-.125-.743.66-.799.05.702-.585Zm-1.465.123 1.276-.13-.743.66-1.293.072.76-.602Zm11.42-.332 1.712-.135-.731.907-1.77.151.788-.923Zm-1.903.128 1.598-.1-.806.866-1.54.083.748-.849Zm-1.713.134 1.35-.089-.748.85-1.408.105.806-.866Zm-1.54.083 1.236-.055-.767.792-1.293.072.824-.809Zm-1.409.107 1.161-.096-.765.792-1.162.095.766-.791Zm-1.293.072 1.046-.061-.783.734-1.046.06.783-.733Zm-1.16.095.913-.084-.783.734-.931.026.8-.676Zm-1.104.078.913-.084-.783.734-.873.01.743-.66Zm-1.03.119.8-.05-.76.601-.8.05.76-.601Zm-1.086.135.914-.084-.76.602-.914.084.76-.602Zm-.858.694.667-.073-.8.676-.684.016.817-.62Zm11.697-.665 2.11-.065-.83.998-2.11.065.83-.998Zm-1.903.128 1.54-.083-.846.94-1.5.009.806-.866Zm-1.712.134 1.35-.089-.806.866-1.35.09.806-.867Zm-1.54.083 1.218-.112-.864.883-1.178.038.823-.809Zm-1.409.106 1.104-.078-.824.809-1.12.02.84-.75Zm-1.236.055.989-.044-.824.809-1.005-.014.84-.75Zm-1.16.095.913-.084-.84.751-.874.01.8-.677Zm-1.047.062.816.007-.8.677-.857.067.841-.751Zm-.931.026.741-.033-.8.677-.799.05.858-.694Zm8.907.479 3.172-.068-.87 1.073-3.19.01.888-1.015Zm-1.805.036 1.5-.008-.962.975-1.442-.009.904-.958Zm-1.557.026 1.31-.015-.904.958-1.328-.043.922-.9Zm-1.426.048 1.178-.037-.92.9-1.196-.02.938-.843Zm-1.293.073 1.046-.062-.864.884-1.063.003.881-.825Zm-1.195-.02 1.005.013-.898.768-.988.044.88-.825Zm-1.063.003.873-.01-.898.769-.816-.008.84-.75Zm-1.006-.013.816.007-.898.768-.816-.007.898-.768Zm-1.31.014 1.12-.02-.858.693-1.063.004.8-.677Zm9.514 1.049 3.15.064-.951 1.222-3.184-.18.985-1.106Zm-1.821-.021 1.442.008-.985 1.108-1.42-.141.963-.975Zm-1.633-.015 1.328.043-1.002 1.05-1.287-.118.962-.975Zm-5.902-.059 5.655.07-.962.975-5.608-.334.915-.71Zm-1.31.015 1.063-.004-.898.769-1.023-.071.858-.694Z" clip-rule="evenodd" mask="url(#d)"/>
            </g>
          </g>
        </g>
        <g class="&lt;Group&gt;">
          <g class="&lt;Group&gt;">
            <g class="&lt;Group&gt;">
              <path fill="url(#e)" stroke="#000" stroke-width=".1" d="m45.727 25.596-.007.002c-.062.018-.134-.005-.203-.07a.623.623 0 0 1-.16-.27l-2.647-9.104a.612.612 0 0 1-.021-.333c.023-.08.07-.13.138-.15l.006-.003 12.753-5.737.003-.002a.482.482 0 0 1 .42.012.57.57 0 0 1 .313.345l3.691 12.61v.001c.047.154.013.32-.131.463-.147.146-.41.272-.824.333l-13.33 1.903Z" class="&lt;Path&gt;"/>
              <g class="&lt;Path&gt;">
                <mask id="g" fill="#fff" class="g">
                  <path d="m43.396 19.894 1.569 5.48c.068.23.31.409.482.357l13.849-2.057c.362-.045.523-.344.42-.689l-3.634-12.628c-.103-.345-.401-.506-.73-.346l-12.844 5.64c-.155.109-.219.315-.15.545l.832 3.008"/>
                </mask>
                <path fill="url(#f)" d="m43.396 19.894 1.569 5.48c.068.23.31.409.482.357l13.849-2.057c.362-.045.523-.344.42-.689l-3.634-12.628c-.103-.345-.401-.506-.73-.346l-12.844 5.64c-.155.109-.219.315-.15.545l.832 3.008"/>
                <path fill="#000" d="m44.965 25.374-.096.027v.002l.096-.029Zm.482.357-.015-.099-.007.002-.007.002.029.095Zm13.849-2.057-.013-.1-.002.001.015.1Zm.42-.689-.096.028.097-.028Zm-3.634-12.628.096-.027v-.001l-.096.028Zm-.73-.346.041.092.004-.002-.044-.09Zm-12.844 5.64-.04-.092-.01.004-.007.006.057.082Zm-.15.545.096-.026v-.002l-.096.028Zm.942 3.725 1.569 5.48.192-.055-1.57-5.48-.191.055Zm1.569 5.482a.665.665 0 0 0 .238.335c.104.077.24.127.368.09l-.057-.192c-.044.013-.114 0-.192-.058a.465.465 0 0 1-.165-.232l-.192.056Zm.593.427 13.848-2.057-.03-.198-13.848 2.057.03.198Zm13.846-2.057a.597.597 0 0 0 .459-.28.669.669 0 0 0 .045-.536l-.191.057a.47.47 0 0 1-.027.377c-.055.094-.156.165-.31.184l.024.198Zm.505-.815L56.178 10.33l-.192.055 3.635 12.628.192-.055Zm-3.635-12.63a.67.67 0 0 0-.332-.423.598.598 0 0 0-.537.016l.088.18c.14-.069.264-.065.36-.017.1.05.184.15.23.302l.19-.057Zm-.865-.408-12.845 5.64.08.182 12.845-5.64-.08-.182ZM42.45 15.569c-.198.139-.267.394-.19.656l.192-.057c-.059-.198 0-.356.113-.435l-.115-.164Zm-.19.654.833 3.008.193-.054-.833-3.007-.193.053Z" mask="url(#g)"/>
              </g>
            </g>
            <g class="&lt;Group&gt;">
              <g class="&lt;Group&gt;">
                <path fill="#BBBDBF" stroke="#000" stroke-width=".1" d="M45.918 24.976h-.002l-.547.105-2.497-8.803 4.135-1.727 5.447-2.31.886-.39 2.065-.858 3.398 11.83-9.356 1.603-2.213.346-1.316.204Z" class="&lt;Path&gt;"/>
                <g class="&lt;Group&gt;">
                  <path fill="#E6E7E8" stroke="#000" stroke-width=".1" d="m47.026 14.543 5.302-2.249-6.436 12.687-.523.1-1.073-3.809 2.73-6.729Zm6.331-2.699 2.048-.851.645 2.167-7.257 11.456-1.469.147 6.033-12.919Z" class="&lt;Path&gt;" opacity=".3"/>
                </g>
              </g>
              <path fill="#E7DAEB" stroke="#000" stroke-width=".1" d="M58.895 22.927a.028.028 0 0 1-.006.002l-3.445-12.017v.004h.001v.003h.001v.003l3.487 11.92v.001a.042.042 0 0 1 .002.01.043.043 0 0 1-.008.002l-.048.015.014.048a.041.041 0 0 1 .002.009ZM45.383 25.06l.012.043.044-.007 13.36-2.225.056-.01-.015-.053-3.395-11.823-.016-.054-.052.022-12.51 5.29-.041.017.012.042 2.545 8.758Z" class="&lt;Compound Path&gt;"/>
            </g>
          </g>
        </g>
      </g>
    </g>
  </g>
  <defs>
    <linearGradient id="a" x1="48.607" x2="53.81" y1="23.1" y2="30.691" class="a" gradientUnits="userSpaceOnUse">
      <stop stop-color="#7650A0"/>
      <stop offset="1" stop-color="#593594"/>
    </linearGradient>
    <linearGradient id="b" x1="46.397" x2="54.256" y1="19.251" y2="31.56" class="b" gradientUnits="userSpaceOnUse">
      <stop stop-color="#7F58A4"/>
      <stop offset="1" stop-color="#6F4C9E"/>
    </linearGradient>
    <linearGradient id="c" x1="44.721" x2="56.811" y1="21.19" y2="32.991" class="c" gradientUnits="userSpaceOnUse">
      <stop stop-color="#7F58A4"/>
      <stop offset="1" stop-color="#6F4C9E"/>
    </linearGradient>
    <linearGradient id="e" x1="41.96" x2="56.198" y1="13.811" y2="9.697" class="e" gradientUnits="userSpaceOnUse">
      <stop stop-color="#7650A0"/>
      <stop offset="1" stop-color="#593594"/>
    </linearGradient>
    <linearGradient id="f" x1="40.712" x2="55.928" y1="14.245" y2="9.84" class="f" gradientUnits="userSpaceOnUse">
      <stop stop-color="#7F58A4"/>
      <stop offset="1" stop-color="#6F4C9E"/>
    </linearGradient>
  </defs>
</svg>
