<svg xmlns="http://www.w3.org/2000/svg" width="112" height="102" fill="none" viewBox="0 0 112 102">
  <g class="4-7-ilus">
    <g class="ilustracion">
      <g class="nene">
        <path fill="#050505" fill-rule="evenodd" d="m101.449 49.7 4.6 8.5c-1.6-1.2-2.8-1-3.2-.9-.5.8-2 2-2 2v-.2c-.5.4-1.2.8-2 1.1-.067.133-.1.233-.1.3 0 0-1.3.3-3.3.2-1.1 0-2-.2-2.9-.5-.667-.2-1.367-.467-2.1-.8a10.2 10.2 0 0 1-1.5-.8c-.467.2-1 .333-1.6.4-1.3.3-2.5.4-3.7.4-.3 1-.6 1.7-.7 2-.3 1.7-1.1 4-1.5 5.2v1.3l-10.7 1.4c2.2-1.4 1.3-2.3 1.3-2.3h.3c0-.3 0-1.4.1-1.8h.1v-2h-.4c0-1 .1-2 .4-2.9h-.1l-.1-.9c-.067 0-.1.033-.1.1 0 0-1.8-3.4-2.6-8.6a3.9 3.9 0 0 1-.5-.2c-1.7 1.4-3.5 2.2-5 2.6h-.2c-.8.2-1.567.3-2.3.3-.1 0-2 .1-3.6-1.1-.6-.4-1.2-.9-1.8-1.7-1.1-1.7-.6-3.2.1-4.4.2-.6.4-1.1.7-1.3.3-.3.9-.6 1.5-.6 1.3-.4 3.2-.4 4.8 1.3a6.49 6.49 0 0 0 1.6-1c.067 0 .1-.033.1-.1-.6-.3-1.1-.5-1.1-.5l.6-.1c-2.4-1.6-4.1-3.9-5.4-6.8-.2-.333-.4-.7-.6-1.1-.5-.2-.9-1.2-.9-1.2-.667-2.133-1.167-4.067-1.5-5.8v.1s-1.3-7.1-1-9.8c.2-1.6.5-2.3.6-2.1.2.2.4 1.5.8 1.1 0-1.3 0-1.3.1-2.4.2-1.3 1.5-2.4 1.5-2-.1.8-.2 1.8.3 1.6h.1c2.8-3.8 8.7-8.6 20.6-7.8 1.7.1 3.7.9 3.7 1.6 0 .3-1.2.3-2.3.7 5.5.9 9.9 3.2 9.4 4.5-.4.9-1.7 0-3.6-.2 5 2.5 6.2 5.3 5.5 6-.6.7-2.1-1.4-5.4-2.1v.1c1 .3 2.5 1.1 3.5 2.3 1.5 1.8 1.7 2.7 1.3 3.1-.6.4-.8-.4-1.9-1 .067.133.133.3.2.5.5.7 1.5 2.1 1.7 3.8.2 2 0 2.8-.5 2.9-.133 0-.233-.034-.3-.1.2.267.433.533.7.8.6-.7 2.4-1 3.8-.7 2 .5 3.6 2.3 3.2 4.4l.1-.1c.6 1.9.6 3.7.2 5.2.9-.3 1.6-.3 2.2.2 1.6 1.5 1 7.3 4.1 8.5 0 0-1.7 1.2-5.1 1.1-.3.6-.7 1.1-1.2 1.4.4.133.833.233 1.3.3.067-.067.1-.133.1-.2v-.1l.1-.1.1-.1v.1l1.4-1Zm-11.2-19.9a9.57 9.57 0 0 1-.2-.7v.5l.2.2Z" class="&lt;Compound Path&gt;" clip-rule="evenodd" opacity=".1"/>
        <g class="&lt;Group&gt;">
          <g class="&lt;Group&gt;">
            <g class="&lt;Group&gt;">
              <path fill="#E8E8E8" stroke="#050505" stroke-linecap="round" stroke-linejoin="round" stroke-width=".4" d="M70.549 46s5.2-5.3 2.8-7.3c-3.3-2.8-6.8 1.6-9 3.2-3.1 2.3-7.3 2.2-6.5 7.1.4 2.4 6.9 3.2 12.7-3Z" class="&lt;Path&gt;"/>
              <g class="&lt;Path&gt;">
                <path fill="#E8E8E8" d="M60.249 50.7s-2.8-.1-4.5-2.7c-1.7-2.5 0-4.6.9-5.6s5.9-2.8 8.3 4.2"/>
                <path stroke="#050505" stroke-linecap="round" stroke-linejoin="round" stroke-width=".4" d="M60.249 50.7s-2.8-.1-4.5-2.7c-1.7-2.5 0-4.6.9-5.6s5.9-2.8 8.3 4.2"/>
              </g>
              <path fill="#050505" d="M70.549 46s2.4-2.5 3.2-4.8c0-.4-.2-.7-.6-.7-1.4.2-5 4.5-5.9 5.1-.9.6-.2 1.5-.8 1.7-.5.2-1.1.5-3.2-.8-.5-.3-.9 4.5-5.9 3.1 1.8 1.3 3.8 1.2 3.8 1.2v-.1c2.5.1 6-1.1 9.4-4.7Z" class="&lt;Path&gt;" opacity=".2" style="mix-blend-mode:multiply"/>
              <path fill="#050505" d="M57.849 42.1s-2.4.9-2.2 3.5c.2 2.4 1.9 3.2 3.5 3.3 1.6 0 3.1-1.4 2.6-3.6-.7-2.9-2.1-3.6-3.9-3.2Z" class="&lt;Path&gt;"/>
            </g>
            <g class="&lt;Group&gt;">
              <path fill="#C0292D" stroke="#050505" stroke-linecap="round" stroke-width=".4" d="M59.749 47.4c-.9.3-3.8-.1-4.2-1-.4-.9.2-3.5.9-4.2.7-.6 2.5-1.1 3.8.9 1.2 1.8.9 3.8-.5 4.3Z" class="&lt;Path&gt;"/>
              <path fill="#C0292D" stroke="#050505" stroke-linecap="round" stroke-width=".4" d="M58.949 44.3c-.1.4 0 .8.4 1 .5.1.9-.1 1.1-.5l.6-1.5c.1-.4-.1-.8-.5-1-.4-.1-.8.1-1 .5l-.6 1.5Z" class="&lt;Path&gt;"/>
              <g class="&lt;Path&gt;">
                <path fill="#C0292D" d="M59.549 45.3s-.5 1.8-1.8 1.7Z"/>
                <path stroke="#050505" stroke-linecap="round" stroke-width=".4" d="M59.549 45.3s-.5 1.8-1.8 1.7"/>
              </g>
            </g>
          </g>
          <path fill="#CBD230" stroke="#050505" stroke-linecap="round" stroke-width=".4" d="M73.449 32.3s-8.3 6.6-7.6 12c.7 5.5 9.4 4.4 10.7 4.2 1.4-.1 1.9-2.9 1.4-7.2-.5-4.2-1.9-11.1-4.5-9Z" class="&lt;Path&gt;"/>
          <g class="&lt;Group&gt;">
            <path fill="#1571B2" stroke="#050505" stroke-linecap="round" stroke-linejoin="round" stroke-width=".4" d="M83.949 37.7s1 1.7 6.2 1.3c5.3-.5 8.3-3.5 9.9-2 1.6 1.5 1 7.3 4.1 8.5 0 0-4.8 3.3-15.5-2.1-10.8-5.5-4.7-5.7-4.7-5.7Z" class="&lt;Path&gt;"/>
            <g class="&lt;Group&gt;">
              <path fill="#104978" stroke="#050505" stroke-linecap="round" stroke-linejoin="round" stroke-width=".4" d="M99.949 50.2c-.4-.5-1.5.3-1.9.8-.4.6-1.5 3.9-2.9 3.9s-10.3-5.7-10.1-13.4c.1-4.5 1.9-.5 1.9-.5s5.1 6.5 7.7 7.4c2.6.9 5.3 1.8 5.3 1.8Z" class="&lt;Path&gt;"/>
              <path fill="#1571B2" stroke="#050505" stroke-linecap="round" stroke-linejoin="round" stroke-width=".4" d="M84.949 34s5.2 13.9 15 14.3c0 0 1.1 1.8.8 2.8 0 0-4.9-.1-8.5-2.8-3-2.2-5.6-3.9-7.3-14.3Z" class="&lt;Path&gt;"/>
            </g>
          </g>
          <g class="&lt;Group&gt;">
            <g class="&lt;Path&gt;">
              <path fill="#CBD230" d="M83.849 29.4s4-3.9 5.1-3.1c1.2.7 4.5 6.1 6.1 6.4 1.6.4-1.2.8-1.2.8s1 4.4 2 6.2c1 1.8 2.4 6.9-2.1 8.1-4.4 1.1-5.5-7.2-5.5-7.2l-4.4-11.5"/>
              <path stroke="#050505" stroke-linecap="round" stroke-width=".4" d="M83.849 29.4s4-3.9 5.1-3.1c1.2.7 4.5 6.1 6.1 6.4 1.6.4-1.2.8-1.2.8s1 4.4 2 6.2c1 1.8 2.4 6.9-2.1 8.1-4.4 1.1-5.5-7.2-5.5-7.2l-4.4-11.5"/>
            </g>
            <path fill="#050505" d="m89.149 33.8 2-1.2s1.3.7 2.2.8c.9 0-.1 2.1.2 2.7.3.6-1.2-.3-.9.7.4 1.1 1.1 4.7 1.9 5.1.7.5.4 4.5-.7 5s-4.7-13.1-4.7-13.1Z" class="&lt;Path&gt;" opacity=".1"/>
            <path stroke="#050505" stroke-linecap="round" stroke-linejoin="round" stroke-width=".4" d="M90.849 32.4s1 1.1 3.5.7" class="&lt;Path&gt;"/>
          </g>
          <g class="&lt;Group&gt;">
            <g class="&lt;Path&gt;">
              <path fill="#D8A986" d="M92.449 47.7s3.9 1.4 5 1.3c1.1 0 2-.9 2-1.3l2.5 6.9s-1.9 2.7-5.2 3.1c-2.5.4-4.1-.1-5.8-.7-3-1.2-4.2-2.2-4.2-2.2"/>
              <path stroke="#050505" stroke-width=".4" d="M92.449 47.7s3.9 1.4 5 1.3c1.1 0 2-.9 2-1.3l2.5 6.9s-1.9 2.7-5.2 3.1c-2.5.4-4.1-.1-5.8-.7-3-1.2-4.2-2.2-4.2-2.2"/>
            </g>
            <path fill="#1B783C" stroke="#050505" stroke-linecap="round" stroke-linejoin="round" stroke-width=".4" d="M98.049 49.1s1.2 5.1.1 8.5c0 0-5.7 1.5-10.9-2.8l6.7-5 .9-2.1s1.1 1.5 3.2 1.4Z" class="&lt;Path&gt;"/>
            <path fill="#060505" d="M89.049 51.9c2.1 2.1 5.7 4.1 8.6 3.5 2.2-.4 3.4-1.5 3.9-2 .2.7.4 1.2.4 1.2s-1.9 2.7-5.2 3.1c-2.5.4-4.1-.1-5.8-.7-3-1.2-4.2-2.2-4.2-2.2l2.3-2.9Z" class="&lt;Path&gt;" opacity=".2"/>
            <path fill="#E75E27" stroke="#050505" stroke-linecap="round" stroke-linejoin="round" stroke-width=".4" d="m98.949 48.2 1.3 8.2s2.1-1.6 2.3-2.4c.2-.8-2.1-4.9-2.1-4.9l-1.5-.9Z" class="&lt;Path&gt;"/>
            <path fill="#050505" stroke="#060505" stroke-linecap="round" stroke-linejoin="round" stroke-width=".4" d="M102.149 54.5s1.4-.6 3.3.8l-4.6-8.5-1.6 1.2 2.9 6.5Z" class="&lt;Path&gt;"/>
          </g>
          <g class="&lt;Group&gt;">
            <g class="&lt;Path&gt;">
              <path fill="#D8A986" d="M79.149 47.4s4.4 3.8 3.4 10.2c-.5 2.6-2.3 6.7-2.3 6.7l-8.3-1.8s-.1-4.2.1-5.6c.2-1.8 1.2-3.6 1.2-3.6"/>
              <path stroke="#050505" stroke-width=".5" d="M79.149 47.4s4.4 3.8 3.4 10.2c-.5 2.6-2.3 6.7-2.3 6.7l-8.3-1.8s-.1-4.2.1-5.6c.2-1.8 1.2-3.6 1.2-3.6"/>
            </g>
            <path fill="#E75E27" stroke="#050505" stroke-linecap="round" stroke-linejoin="round" stroke-width=".5" d="m80.549 63.8-8.8.4s-.1-1.4.2-1.8c.2-.5 9.2.1 9.2.1l-.6 1.3Z" class="&lt;Path&gt;"/>
            <path fill="#2DA149" stroke="#050505" stroke-linecap="round" stroke-linejoin="round" stroke-width=".5" d="M71.549 60.3s8.8-.9 10.8-1.7c0 0 1.7-4.7 3.3-11.8l-10.2 4.8s-4.1 3.9-3.9 8.7Z" class="&lt;Path&gt;"/>
            <path fill="#060505" d="m80.549 64.7-.9-.3c.4-1.3 1.2-4.6.5-7.6-.2-1.1-.8-2.1-1.5-2.8-.9-1-6.1 3.7-6.8 3.4l-.4-2.5 8.2-7.1s3.9 4.1 2.9 10c-.4 2.5-2 6.9-2 6.9Z" class="&lt;Path&gt;" opacity=".2"/>
            <path fill="#050505" stroke="#060505" stroke-linecap="round" stroke-linejoin="round" stroke-width=".5" d="M71.449 64.2s.9.8-1.3 2.2l10.7-1.3v-1.8l-9.4.9Z" class="&lt;Path&gt;"/>
          </g>
          <g class="&lt;Group&gt;">
            <path fill="#F5F6F6" stroke="#050505" stroke-linecap="round" stroke-linejoin="round" stroke-width=".4" d="M96.249 50.1s-2.9 4.8-9.4 6.1c-6.6 1.3-11-1.7-15.2.4 0 0-4.7-8.7-2.3-19.7.4-1.7 11.4-9.9 16.5-3 5.1 7 8.2 12 9.3 13.3 1.1 1.2 1.7 2.1 1.1 2.9Z" class="&lt;Path&gt;"/>
            <path stroke="#050505" stroke-linecap="round" stroke-linejoin="round" stroke-width=".4" d="M73.549 55.2s-4.6-8.6-2.3-17.1" class="&lt;Path&gt;"/>
            <path fill="#050505" d="m82.349 37.1 3.6-3c5 6.8 8.1 11.8 9.2 13.1 1.1 1.2 1.7 2.1 1.1 2.9 0 0-1 1.6-3.2 3.3.7-.9 1-1.9.6-2.2-.7-.4-1.5 1.7-2.4 1.2-.8-.5 2.1-3.1 1.1-4.3-.9-1.2-2.2-3.6-2.2-3.6s-4.3 1.2-6.8-1.8c-2.6-3-1-5.6-1-5.6Z" class="&lt;Path&gt;" opacity=".1"/>
            <path fill="#F5F6F6" stroke="#050505" stroke-linecap="round" stroke-linejoin="round" stroke-width=".4" d="m70.449 44.4 7.5-3.2-2.5-.3s7.6-4 9.1-6l-15.5 2.4-1.2.9 1.5 2.3-1.4.1s.5 2.1 2.5 3.8Z" class="&lt;Path&gt;"/>
            <path fill="#0E0C0D" d="M70.549 43.9s-.8-3.8-.5-7.1l6 .5s-5.1 4.3-5.5 6.6Z" class="&lt;Path&gt;"/>
            <path stroke="#050505" stroke-linecap="round" stroke-linejoin="round" stroke-width=".4" d="M87.149 46.6s-4.7 1.7-6.5 2.5c0 0 .5 4.7 3.7 4.9 3.1.1 4.7-1.8 4.3-3.6-.4-2-1.5-3.8-1.5-3.8Zm.7 1.5-6.8 2.6" class="&lt;Path&gt;"/>
            <path fill="#050505" d="M73.649 53.5c.1.4.4.6.6.5.3 0 .5-.4.4-.7 0-.4-.3-.6-.6-.6-.3.1-.5.4-.4.8Zm-1.2-3.1c.1.3.4.6.7.5.3 0 .4-.4.4-.7-.1-.4-.4-.7-.7-.6-.3.1-.4.4-.4.8Zm-.7-3c.1.4.3.6.6.5.3 0 .5-.4.4-.7-.1-.4-.3-.7-.6-.6-.3.1-.5.4-.4.8Z" class="&lt;Path&gt;"/>
            <path fill="#050505" d="M84.549 54.3s-1.6.2-3.7-.6c-2.1-.7-4.3-.8-5.1-.7 0 0 2-.6 3.7-.3 1.7.3 2.9 1.6 5.1 1.6Zm-11 1.1s-3.2-6.9-3.1-11c0 0-1.5-1.2-2-2.7l.1 1.8s.7 1 1.3 1.6c0 0 1.3 6.4 3.2 10.2l.5.1Zm4.5-16.1-2.6 1.6 2.5.3-6.7 3s-.3.7-.3 1c0 0 .4-.6.9-.8.5-.2 7.2-3.1 7.4-3.2.2-.2-1.9-.6-1.9-.6l2.2-1.7-1.5.4Z" class="&lt;Path&gt;" opacity=".1"/>
            <path fill="#060505" d="M88.149 30.7s-2.5 7.5-9.6 10.5c-7 3.1-12.5.1-10.3-4.1l19.9-6.4Z" class="&lt;Path&gt;" opacity=".2"/>
            <path fill="#050505" d="M82.749 48.5c.133.533.267 1.033.4 1.5l4.1-1.7c.2.3.1.4-.2.6-.2.1-2 .9-2.8 1.2-.7.3-.8.7-.8 1.1 1 2.7 2.3 2.4 2.3 2.4.6 0 .1.4.1.4s-2.7.4-3.8-1.1c-1.2-1.6-1.4-3.8-1.4-3.8l2.1-.6Z" class="&lt;Path&gt;" opacity=".1"/>
            <path fill="#050505" d="M83.949 47.2s-1.5.5-1.6.9c0 0-1.5.5-1.9.7-.3.1-.2 1.5.9 2.9l.2.6s-.6-.7-1.4-2.1c-.8-1.5.5-3.6.8-3.9.4-.3-.1 1.3.3 1.3.4.1 2-.5 2.7-.4Z" class="&lt;Path&gt;" opacity=".1"/>
            <g class="&lt;Group&gt;">
              <path fill="#0D4978" stroke="#0D2235" stroke-linecap="round" stroke-linejoin="round" stroke-width=".4" d="M78.549 44c.3.9 1.1 1.4 1.8 1.3.7-.1 1-.9.7-1.8-.3-.8-1.1-1.4-1.8-1.2-.7.1-1 .9-.7 1.7Z" class="&lt;Path&gt;"/>
              <path fill="#F3F6F7" d="m79.449 42.7-.1.7-.5.2.6.4.1.7.4-.4.6.2-.3-.7.2-.5h-.6l-.4-.6Z" class="&lt;Path&gt;"/>
            </g>
            <g class="&lt;Group&gt;">
              <path fill="#050505" d="M71.549 40s-1.9 1.7-1.4 3.4.9 1.5.9 1.5-.6 1.9 1.3 4.2c1.9 2.3 5.4 3.5 8.1 2.5l.9-2.1-2-1.6s-1.9 1.5-4.2-.8c-2.4-2.4-2.5-4.7-2.5-4.7l-1.1-2.4Z" class="&lt;Path&gt;" opacity=".1"/>
              <g class="&lt;Group&gt;">
                <path fill="#1472B3" stroke="#050505" stroke-linecap="round" stroke-linejoin="round" stroke-width=".4" d="M71.149 42.8s-.4 4.3 2.8 6c3.2 1.8 5 1.1 5 1.1s1.5-1.7 2.1-1.9l-2.2-2.2s-2.2 1-4.1-.4c-1.9-1.4-1.8-2.4-1.8-2.4l-1.8-.2Z" class="&lt;Path&gt;"/>
                <path fill="#1472B3" stroke="#050505" stroke-linecap="round" stroke-linejoin="round" stroke-width=".4" d="M74.349 39.3s-2.2.7-4.1-.1c0 0-.1 4 .8 4.3 0 0 1.2 0 2.2-.1 0 0 1-2.3 1.1-4.1Z" class="&lt;Path&gt;"/>
                <path fill="#050505" d="M70.649 42.9s2.1-.1 2.2-.6c.1-.5.2-1.3-.4-1.4-.6-.2-2.3-.7-2.3-.7l.1-1s3.3.6 4.1.1c.9-.5-1.1 4.1-1.2 4.3 0 .1-2.1-.1-2.1-.1l-.4-.6Zm7.6 3.6s-1.8 2-4 1.6c-2.1-.3-2.1-2.9-2.1-2.9s.9 1.4 1.7 1.5c.7.1 1.5-.7 1.2-1l1.4.5s.2 1 1.8.3Z" class="&lt;Path&gt;" opacity=".1"/>
              </g>
            </g>
          </g>
          <path fill="#7BCAE1" d="m88.149 29.4-.2.3Z" class="&lt;Path&gt;"/>
          <g class="&lt;Group&gt;">
            <path fill="#050505" d="M63.349 41.3s4.7 2 4.8 4.4c.2 2.3 10.1-3.2 12.1-2.9 2 .3 6.1-4.1 5.8-8.4-.2-4.3-12.7 5-12.7 5l-10 1.9Z" class="&lt;Path&gt;" opacity=".1"/>
            <path fill="#A27448" d="M86.849 22.6c2.1 8.4-2 15.8-10.7 18.6-8.4 2.7-16.5-1.6-18.6-10.1-2.2-8.4 2.6-15.4 11.1-17.6 8.6-2.1 16 .6 18.2 9.1Z" class="&lt;Path&gt;"/>
            <path fill="#C48A58" d="M85.149 24.3c2.1 8.1-1.6 14.4-9.7 16.4-8 2-16.1-1.3-18.2-9.4-2-8.1 1.8-10.6 9.8-12.7 8.1-2 16.1-2.4 18.1 5.7Z" class="&lt;Path&gt;"/>
            <path fill="#DBAB88" stroke="#050505" stroke-width=".4" d="M86.749 19.6c2.1 8.6-.6 20.9-12.5 23.2-9.8 1.9-15.1-4.2-17.2-12.8-2.2-8.6 3.2-16 11.7-18.1 8.5-2.2 15.8-.9 18 7.7Z" class="&lt;Path&gt;"/>
            <path fill="#DFDFDE" d="M86.449 32.7s4-8.8-3.1-19.5c-9.4-5-12.9-2.2-18.4.5-4.2 2.3-6.7.1-6.7.1s18.4.4 19.9 1.6c1.5 1.1-4.5-.1-2.9 1.5 4.8 4.9 6.4 11.7 6.4 13.8 0 3.5-1 9-8.3 11.8 0 0 3.8-.1 7.5-2.4.4-.3 1.7-1.6 1.9-2l1.4-1.2 2.3-4.2Z" class="&lt;Path&gt;" style="mix-blend-mode:multiply"/>
            <path stroke="#050505" stroke-linecap="round" stroke-linejoin="round" stroke-width=".4" d="m67.649 30.5-.7 2.9 2.3-.6" class="&lt;Path&gt;"/>
            <path fill="#DFDFDE" d="m66.949 33.6 1 1.3 1.6-1.8" class="&lt;Path&gt;" style="mix-blend-mode:multiply"/>
            <g class="&lt;Group&gt;">
              <path fill="#050505" d="M79.049 19.2c2.9 2.2 2.3 5.1 3.5 5.1 1.2-.1 1.9.1 2.4 2.1.2.5.6 1.5.6 2.5.8-.1 2.9-1.3 2.9-5.1 0 0-1.3-18.6-20.1-15.8-8.5 1.3-17.4 6.2-11.2 24.1 0 0 .4 1.4 1 1.2.5-.1-2.5-5.2-1.1-9.8 0 0 .4-4.3 3.9-4.7 2.4-.2 4.3 1.2 4.7 1.3.5 0 6.4-6.7 13.4-.9Z" class="&lt;Path&gt;"/>
              <path fill="#050505" d="M86.949 19c-1.2 1.9-7.6-2.7-15.1-3-6.9-.4-15.1 3.6-15.1 3.6s3.2-13.9 21.3-8.4c7.3 2.2 9.5 6.8 8.9 7.8Z" class="&lt;Path&gt;"/>
              <path fill="#050505" d="M55.549 17.5s3.5-13.8 23-12.4c1.7.1 3.7.9 3.7 1.5 0 .5-3 .3-3.6 1.7" class="&lt;Path&gt;"/>
              <path fill="#050505" d="M71.749 7s-.5-.8 7.2.2c5.9.7 11 3.2 10.4 4.6-.5 1.4-3.3-1.3-6.6.2" class="&lt;Path&gt;"/>
              <path fill="#050505" d="M76.049 8.9s-1.6-1.8 7 1.5c7.3 2.8 9.1 6.4 8.3 7.3-.8.8-3-2.6-8.1-2.3" class="&lt;Path&gt;"/>
              <path fill="#050505" d="M85.349 16.1s3.7 1.8 4.1 6.9c.5 4.8-1 7.1-1.8 6.9-.8-.2.3-1.8-2.6-4.9" class="&lt;Path&gt;"/>
              <path fill="#050505" d="M84.949 15.3s2.8.7 4.4 2.7c1.5 1.7 1.7 2.6 1.3 3-.7.6-.9-.7-2.8-1.4m.8.6s1.8 1.9 2 4.1c.2 2.1 0 2.8-.5 2.9-.8.1-.3-1-1.4-2.4" class="&lt;Path&gt;"/>
              <path fill="#050505" d="M89.349 25s.5 2.6-.5 4.6c-.8 1.9-1.4 2.4-1.9 2.2-.7-.4.3-1 0-2.8" class="&lt;Path&gt;"/>
              <path fill="#050505" d="M85.049 26.7c1.1 2.7-.1 6.2 1.1 6 1.6-.2 4.3-3 3-9.8" class="&lt;Path&gt;"/>
              <g class="&lt;Group&gt;">
                <path fill="#050505" d="M55.549 26.5s-1.3-7.1-1-9.9c.3-1.5.5-2.3.7-2 .1.2.4 1.8.9.7.4-.9-.6 11.2-.6 11.2Z" class="&lt;Path&gt;"/>
                <path fill="#050505" d="M55.949 16.2c0-1.8 0-1.7.1-2.9.2-1.3 1.5-2.4 1.5-2-.1.7-.2 1.8.3 1.6.9-.3-1.9 3.3-1.9 3.3Z" class="&lt;Path&gt;"/>
              </g>
            </g>
            <g class="&lt;Group&gt;">
              <path fill="#050505" d="M57.549 29.5c.3 1.9 2.7 3 4.9 2.6 2.2-.3 3.8-2.1 3.5-4-.3-1.9-2.4-3.1-4.6-2.7-2.2.3-4.1 2.2-3.8 4.1Z" class="&lt;Path&gt;"/>
              <path fill="#050505" d="M69.749 25.2s-1.3 1.6-2.8 1.7c-.9.1-1.9-.8-2.5-1-.7-.3-.1 2.2-.1 2.2l1.5 1.4s.2-1.2 1.2-1.3c1.7-.2 2.2.1 2.9 1m5.8-5.4s2.4.8 3.9.5c1.5-.2 6.1-1.7 6.1-1.7l.5 1.3s-6.9 1-8.3 3.7" class="&lt;Path&gt;"/>
              <path fill="#050505" d="M69.149 27.6c.3 1.8 2.5 3 4.9 2.6 2.4-.4 4.4-2.4 4.1-4.2-.3-1.9-2.9-2.9-5.2-2.5-2.4.3-4.1 2.2-3.8 4.1Zm-11.4.3s-.1.9-.4 1.1c-.4.3-.9.3-.9.3l.2.8s.7-.2 1.3.5" class="&lt;Path&gt;"/>
              <g class="&lt;Group&gt;">
                <g class="&lt;Group&gt;">
                  <path fill="#FEFEFE" stroke="#050505" stroke-width=".4" d="M74.849 26.5c.2.7-.3 1.5-1.1 1.6-.8.2-1.5-.3-1.7-1-.1-.8.4-1.5 1.2-1.6.7-.2 1.5.3 1.6 1Z" class="&lt;Path&gt;"/>
                </g>
                <g class="&lt;Group&gt;">
                  <path fill="#050505" d="M74.049 27c.1.5-.2.9-.7 1-.5.1-1-.2-1.1-.6-.1-.5.2-1 .7-1.1.5-.1 1 .2 1.1.7Z" class="&lt;Path&gt;"/>
                </g>
                <g class="&lt;Group&gt;">
                  <path fill="#FEFEFE" d="M73.949 26.4c0 .2-.1.4-.3.4-.2.1-.3 0-.4-.2 0-.2.1-.4.3-.4.2 0 .4.1.4.2Z" class="&lt;Path&gt;"/>
                </g>
              </g>
              <g class="&lt;Group&gt;">
                <g class="&lt;Group&gt;">
                  <path fill="#FEFEFE" stroke="#050505" stroke-width=".4" d="M62.849 28.4c.1.7-.4 1.4-1.2 1.6-.8.1-1.5-.3-1.6-1.1-.2-.7.3-1.4 1.1-1.6.8-.1 1.5.4 1.7 1.1Z" class="&lt;Path&gt;"/>
                </g>
                <g class="&lt;Group&gt;">
                  <path fill="#050505" d="M61.949 28.9c.1.4-.2.9-.7 1-.5.1-1-.2-1.1-.7-.1-.4.3-.9.8-1 .5-.1.9.2 1 .7Z" class="&lt;Path&gt;"/>
                </g>
                <g class="&lt;Group&gt;">
                  <path fill="#FEFEFE" d="M61.849 28.3c.1.2-.1.3-.2.4-.2 0-.4-.1-.4-.3-.1-.1.1-.3.2-.3.2-.1.4 0 .4.2Z" class="&lt;Path&gt;"/>
                </g>
              </g>
            </g>
            <g class="&lt;Group&gt;">
              <path stroke="#050505" stroke-linecap="round" stroke-linejoin="round" stroke-width=".4" d="M58.549 25.3c1.1-2.3 3.4-1.8 4.7-1.1m11.7-2.2c-2-1.7-4-.9-5.2.9" class="&lt;Path&gt;"/>
            </g>
            <path stroke="#050505" stroke-linecap="round" stroke-linejoin="round" stroke-width=".4" d="M69.949 36.7s3.3.4 5.1-3.4" class="&lt;Path&gt;"/>
            <path fill="#050505" d="M73.749 37.3s1.9-.8 2.3-2.9c0 0 .7 2.4-2.3 2.9Z" class="&lt;Path&gt;" opacity=".1"/>
          </g>
          <g class="&lt;Group&gt;">
            <path fill="#AD86A9" stroke="#050505" stroke-linecap="round" stroke-width=".4" d="M99.349 44.2c.2 2-.8 3.8-2.3 4-1.6.3-3.1-1.1-3.4-3.1-.3-2 .8-3.8 2.3-4 1.6-.2 3.1 1.2 3.4 3.1Z" class="&lt;Path&gt;"/>
            <path fill="#AD86A9" stroke="#050505" stroke-linecap="round" stroke-width=".4" d="M98.149 44.4c.1 1.2-.5 2.2-1.4 2.3-.8.1-1.7-.7-1.9-1.8-.1-1.1.4-2.2 1.3-2.3.9-.1 1.8.7 2 1.8Z" class="&lt;Path&gt;"/>
            <path fill="#AD86A9" stroke="#050505" stroke-linecap="round" stroke-width=".4" d="M97.249 44.6c0 .5-.2.9-.6 1-.4 0-.8-.3-.9-.8-.1-.5.2-1 .6-1.1.4 0 .8.3.9.9Z" class="&lt;Path&gt;"/>
          </g>
          <g class="&lt;Group&gt;">
            <path fill="#CBD230" stroke="#050505" stroke-linecap="round" stroke-width=".4" d="M93.849 30.9s-9.2.8-10.1 4.8c-.9 4.1 7.1 7.3 8.3 7.8 1.3.5 2.5-1.1 3.2-4.3.7-3.2 1.4-8.6-1.4-8.3Z" class="&lt;Path&gt;"/>
            <g class="&lt;Group&gt;">
              <path fill="#C0292D" stroke="#050505" stroke-linecap="round" stroke-width=".4" d="M92.749 34c2.1.5 4.2-.1 4.8-2.3.5-2.1-1.1-4-3.2-4.5s-5 .5-3.7 2.2c.1.1.8 1 .5 1.5-1.2 1.9-.5 2.5 1.6 3.1Z" class="&lt;Path&gt;"/>
              <g class="&lt;Path&gt;">
                <path fill="#F5F6F6" d="M90.649 34.4s-3.3-2.1-4.4-.7c-1.2 1.3-.2 5.5 4.1 7.7 4.4 2.1 9.2-2.9 7.4-9.9 0 0-3.2 2.2-7.3 1.5 0 0 .9 2.8-.7 2.8"/>
                <path stroke="#050505" stroke-linecap="round" stroke-linejoin="round" stroke-width=".4" d="M90.649 34.4s-3.3-2.1-4.4-.7c-1.2 1.3-.2 5.5 4.1 7.7 4.4 2.1 9.2-2.9 7.4-9.9 0 0-3.2 2.2-7.3 1.5 0 0 .9 2.8-.7 2.8"/>
              </g>
              <g class="&lt;Path&gt;">
                <path fill="#C0292D" d="M91.149 30.5c.3.5-.4.9-1.3 1-1 .1-1.3.4-1.3.9 0 .7 1.1 1 3.1.7"/>
                <path stroke="#050505" stroke-linecap="round" stroke-width=".4" d="M91.149 30.5c.3.5-.4.9-1.3 1-1 .1-1.3.4-1.3.9 0 .7 1.1 1 3.1.7"/>
              </g>
              <path fill="#050505" d="M87.649 36.7s-.3-.9.2-.9c.6 0 3 1.2 2.9 1.7 0 .6-.4 1.3-1.5.6-1.1-.7-1.6-1.4-1.6-1.4Zm10.3-2.3c.1-1.1-.1-2.1-.6-1.8-.6.4-1.6.8-2.1.9-.6.2-.3 2.1-.6 3.8-.4 1.7-.3 2.8-1.4 3.2-1 .5-.6.7-.6.7s-.9-.2-1.5-.1-.4.7.3.8c.7.2 3.7-.1 4.9-2.2 1.2-2 1.6-5.3 1.6-5.3Z" class="&lt;Path&gt;" opacity=".1"/>
            </g>
            <path fill="#050505" d="M79.949 42.9s.4 1.2 1.9.9c1.6-.3 3-2.5 3-2.5s.4-.8.8-.6c0 0-.4 1.6-.9 2.2-.5.7-1.5 2.1-1.9 2.2-.3.1-2.4-.7-2.9-2.2Z" class="&lt;Path&gt;" opacity=".1"/>
          </g>
        </g>
      </g>
      <g class="reloj 3">
        <path fill="#F9FCFE" d="M74.6 85c1 1.2-.2 3.9-2.6 6-2.5 2.2-5.4 3-6.4 1.8-1-1.1.2-3.8 2.7-6s5.3-3 6.3-1.8Z" class="&lt;Path&gt;" opacity=".1"/>
        <path fill="#F9FCFE" d="M71.1 89.3c-.133-.8-.233-1.6-.3-2.4a86.672 86.672 0 0 0-.2-1.5c-.4.2-.8.433-1.2.7.133 1.267.267 2.567.4 3.9l.2 2.2c.467-.2.933-.5 1.4-.9a20.685 20.685 0 0 0-.3-2Z" class="&lt;Path&gt;" opacity=".1"/>
        <g class="&lt;Group&gt;">
          <path fill="#D99E28" d="M75.7 84.1c-1.3-1.6-5-.7-8.1 2-3 2.6-4.4 6.1-3 7.7l2.1 2.1c1.3 1.6 4.9.8 7.9-1.9 3-2.6 4.3-6 3-7.5-.4-.4-1.5-2-1.9-2.4Z" class="&lt;Compound Path&gt;"/>
          <path fill="#AA7F2C" d="m72.3 83.5.4.6c1.533 1.867 3 3.767 4.4 5.7l.4.6c.7-1.6.8-3.1.1-3.9-.4-.4-1.5-2-1.9-2.4-.7-.8-1.9-1-3.4-.6Zm-3.8 8.7-3.2-3.4c-1.3 2-1.7 3.9-.7 5l2.1 2.1c.9 1.2 3 1 5.2 0a186.773 186.773 0 0 0-3.4-3.7Z" class="&lt;Path&gt;" opacity=".2"/>
          <path fill="#FCB84A" d="M74.4 84.6c1.1 1.2-.2 4-2.7 6.1-2.5 2.2-5.4 3.1-6.4 1.9-1.1-1.2.1-4 2.7-6.2 2.5-2.2 5.4-3 6.4-1.8Z" class="&lt;Path&gt;"/>
          <path fill="#F1B142" d="M68.7 90.6c-.8-.7-1.7-1.5-2.5-2.3-1.3 1.7-1.7 3.4-.9 4.3.8.9 2.7.6 4.8-.6l-1.4-1.4Zm2.1-6c.9 1.4 1.9 2.7 2.8 4.1 1.2-1.6 1.5-3.2.8-4.1-.6-.7-2-.7-3.6 0Z" class="&lt;Path&gt;" opacity=".3"/>
          <path fill="#757578" d="M75 85.6c1.1 1.2 0 3.9-2.5 6-2.5 2.2-5.3 2.9-6.4 1.7-1-1.2.1-3.9 2.6-6 2.4-2.2 5.3-2.9 6.3-1.7Z" class="&lt;Path&gt;" opacity=".2"/>
          <path fill="#BDD4EB" d="M74.8 85.8c1 1.2 0 3.8-2.4 5.8-2.3 2-5 2.7-6 1.6-1-1.2.1-3.7 2.4-5.8 2.4-2 5-2.7 6-1.6Z" class="&lt;Path&gt;"/>
          <g class="&lt;Group&gt;">
            <path fill="#8489AB" d="m70.8 87-.2.2v-.6l.3-.1-.1.5Zm-.2 5.5-.2.1v-.5l.3-.1-.1.5Zm-3.5-.9-.1.2-.7.4V92l.8-.4Zm7.9-4.7v.2l-.8.4v-.1l.8-.5Z" class="&lt;Path&gt;"/>
          </g>
          <g class="&lt;Group&gt;">
            <g class="&lt;Group&gt;">
              <path fill="#5E68AC" d="m67.8 90.1 3-.4.1-.2-3.2.5.1.1Z" class="&lt;Path&gt;"/>
              <path fill="#A191C4" d="m67.7 90 3-.4.1-.2-3 .4-.1.2Z" class="&lt;Path&gt;"/>
            </g>
            <g class="&lt;Group&gt;">
              <path fill="#5E68AC" d="m74.3 86-.1-.1-3.7 3.5h.4l3.4-3.4Z" class="&lt;Path&gt;"/>
              <path fill="#A191C4" d="M74.2 85.9h-.1l-3.6 3.5h.4l3.3-3.5Z" class="&lt;Path&gt;"/>
            </g>
            <g class="&lt;Group&gt;">
              <path fill="#6D6E74" d="M70.8 89.2c0-.1-.2 0-.4.1-.2.2-.3.3-.2.4 0 .1.2.2.2.2.1.1.3.1.4-.1.2-.1.3-.3.2-.4 0-.1-.1-.2-.2-.2Z" class="&lt;Path&gt;"/>
              <path fill="#88888C" d="M70.8 89.2c.1.1 0 .3-.1.4-.2.2-.4.2-.5.1-.1-.1 0-.2.2-.4.2-.1.4-.2.4-.1Z" class="&lt;Path&gt;"/>
            </g>
          </g>
          <path fill="#F9FCFE" d="M68.1 93a66.69 66.69 0 0 1-.1-3.7v-2.1c-2.1 2-3.1 4.4-2.2 5.5.5.5 1.3.6 2.3.3Zm4.5-8.3c.4 1.4.8 2.9 1 4.3 1.2-1.5 1.5-3.1.8-3.8-.4-.5-1-.6-1.8-.5Z" class="&lt;Path&gt;" opacity=".1"/>
          <path fill="#F3EB18" fill-rule="evenodd" d="M75.7 84.1c1.4 1.6.1 5.1-3 7.8-3.1 2.6-6.7 3.5-8.1 1.9-1.4-1.6 0-5.1 3-7.7 3.1-2.7 6.8-3.6 8.1-2Zm-1.3.5c-1-1.2-3.9-.4-6.4 1.8-2.6 2.2-3.8 5-2.7 6.2 1 1.2 3.9.3 6.4-1.9 2.5-2.1 3.8-4.9 2.7-6.1Z" class="&lt;Compound Path&gt;" clip-rule="evenodd"/>
        </g>
      </g>
      <g class="reloj 2">
        <path fill="#F9FCFE" d="M43.8 26.8c.6.7-.1 2.4-1.6 3.7-1.6 1.3-3.3 1.8-3.9 1.1-.7-.7.1-2.4 1.6-3.7 1.5-1.3 3.3-1.8 3.9-1.1Z" class="&lt;Path&gt;" opacity=".1"/>
        <path fill="#F9FCFE" d="m41.6 29.4-.2-1.4c0-.333-.033-.667-.1-1-.267.133-.5.3-.7.5l.2 2.4c.067.467.133.9.2 1.3.267-.133.533-.3.8-.5-.067-.467-.133-.9-.2-1.3Z" class="&lt;Path&gt;" opacity=".1"/>
        <g class="&lt;Group&gt;">
          <path fill="#D99E28" d="M44.5 26.2c-.9-.9-3.1-.4-5 1.2-1.9 1.7-2.7 3.8-1.9 4.8l1.3 1.3c.8 1 3 .5 4.9-1.2 1.8-1.6 2.6-3.6 1.8-4.6-.2-.2-.9-1.2-1.1-1.5Z" class="&lt;Compound Path&gt;"/>
          <path fill="#AA7F2C" d="M42.4 25.9c.067.067.133.167.2.3.933 1.2 1.833 2.4 2.7 3.6l.3.3c.4-1 .5-1.9 0-2.4-.2-.2-.9-1.2-1.1-1.5-.4-.5-1.2-.6-2.1-.3ZM40 31.2a60.937 60.937 0 0 1-2-2.1c-.8 1.2-1 2.4-.4 3.1l1.3 1.3c.6.7 1.9.6 3.2 0-.667-.733-1.367-1.5-2.1-2.3Z" class="&lt;Path&gt;" opacity=".2"/>
          <path fill="#FCB84A" d="M43.7 26.6c.6.7-.1 2.4-1.7 3.7-1.5 1.4-3.3 1.9-3.9 1.1-.7-.7.1-2.4 1.6-3.7 1.6-1.4 3.3-1.9 4-1.1Z" class="&lt;Path&gt;"/>
          <path fill="#F1B142" d="M40.2 30.2c-.533-.4-1.067-.867-1.6-1.4-.7 1.1-1 2.1-.5 2.6.5.6 1.7.4 2.9-.3a10.922 10.922 0 0 1-.8-.9Zm1.3-3.7c.533.867 1.1 1.733 1.7 2.6.7-1 .9-2 .5-2.5s-1.3-.5-2.2-.1Z" class="&lt;Path&gt;" opacity=".3"/>
          <path fill="#757578" d="M44.1 27.2c.6.7-.1 2.4-1.6 3.7-1.5 1.3-3.3 1.8-3.9 1-.7-.7 0-2.4 1.5-3.7 1.6-1.3 3.3-1.8 4-1Z" class="&lt;Path&gt;" opacity=".2"/>
          <path fill="#BDD4EB" d="M43.9 27.3c.6.7 0 2.3-1.4 3.5-1.5 1.3-3.1 1.7-3.7 1-.7-.7 0-2.3 1.4-3.5 1.5-1.3 3.1-1.7 3.7-1Z" class="&lt;Path&gt;"/>
          <g class="&lt;Group&gt;">
            <path fill="#8489AB" d="m41.5 28-.2.1v-.3l.2-.1v.3Zm-.2 3.4-.1.1v-.3l.2-.1-.1.3Zm-2.1-.6-.1.1-.4.3v-.1l.5-.3ZM44 28v.1l-.5.3v-.2l.5-.2Z" class="&lt;Path&gt;"/>
          </g>
          <g class="&lt;Group&gt;">
            <g class="&lt;Group&gt;">
              <path fill="#5E68AC" d="m39.6 29.9 1.8-.2.1-.2-2 .4h.1Z" class="&lt;Path&gt;"/>
              <path fill="#A191C4" d="m39.5 29.9 1.9-.3v-.1l-1.8.3-.1.1Z" class="&lt;Path&gt;"/>
            </g>
            <g class="&lt;Group&gt;">
              <path fill="#5E68AC" d="m43.6 27.4-2.3 2.1h.2l2.1-2.1Z" class="&lt;Path&gt;"/>
              <path fill="#A191C4" d="m43.6 27.4-.1-.1-2.2 2.2h.2l2.1-2.1Z" class="&lt;Path&gt;"/>
            </g>
            <g class="&lt;Group&gt;">
              <path fill="#6D6E74" d="M41.5 29.4c-.1-.1-.2-.1-.3 0-.1.1-.2.2-.1.3l.1.1c0 .1.2 0 .3-.1.1 0 .1-.2.1-.2l-.1-.1Z" class="&lt;Path&gt;"/>
              <path fill="#88888C" d="M41.5 29.4s0 .1-.1.2-.3.2-.3.1c-.1-.1 0-.2.1-.3.1-.1.2-.1.3 0Z" class="&lt;Path&gt;"/>
            </g>
          </g>
          <path fill="#F9FCFE" d="M39.8 31.7c-.067-.733-.1-1.5-.1-2.3v-1.3c-1.3 1.3-1.9 2.7-1.3 3.4.3.3.8.4 1.4.2Zm2.8-5.1c.2.867.4 1.767.6 2.7.7-1 .9-1.9.5-2.4-.3-.3-.7-.4-1.1-.3Z" class="&lt;Path&gt;" opacity=".1"/>
          <path fill="#F3EB18" fill-rule="evenodd" d="M44.5 26.2c.8 1 0 3.2-1.9 4.8-1.9 1.7-4.1 2.2-5 1.2-.8-1 0-3.1 1.9-4.8 1.9-1.6 4.1-2.1 5-1.2Zm-.8.4c-.7-.8-2.4-.3-4 1.1-1.5 1.3-2.3 3-1.6 3.7.6.8 2.4.3 3.9-1.1 1.6-1.3 2.3-3 1.7-3.7Z" class="&lt;Compound Path&gt;" clip-rule="evenodd"/>
        </g>
      </g>
      <g class="reloj 1">
        <path fill="#F9FCFE" d="M45.8 86.7c.5.6-.1 1.9-1.3 2.9s-2.5 1.4-3 .9c-.5-.6.1-1.9 1.3-2.9 1.1-1.1 2.5-1.4 3-.9Z" class="&lt;Path&gt;" opacity=".1"/>
        <path fill="#F9FCFE" d="m44.1 88.8-.2-1.2c0-.2-.033-.433-.1-.7a4.89 4.89 0 0 0-.5.3c.067.667.133 1.3.2 1.9 0 .4.033.767.1 1.1.2-.133.433-.3.7-.5a19.538 19.538 0 0 0-.2-.9Z" class="&lt;Path&gt;" opacity=".1"/>
        <g class="&lt;Group&gt;">
          <path fill="#D99E28" d="M46.3 86.3c-.6-.8-2.4-.4-3.8.9-1.5 1.3-2.2 3-1.5 3.7.2.2.8.9 1 1.1.6.7 2.3.3 3.8-1 1.4-1.2 2-2.8 1.4-3.6-.2-.2-.7-.9-.9-1.1Z" class="&lt;Compound Path&gt;"/>
          <path fill="#AA7F2C" d="M44.7 86c.067.067.133.167.2.3A41.682 41.682 0 0 1 47 89c.067.133.133.233.2.3.3-.8.4-1.5 0-1.9-.2-.2-.7-.9-.9-1.1-.3-.4-.9-.5-1.6-.3Zm-1.8 4.2a39.8 39.8 0 0 1-1.6-1.7c-.6 1-.8 1.9-.3 2.4.2.2.8.9 1 1.1.4.5 1.4.4 2.5-.1a39.802 39.802 0 0 0-1.6-1.7Z" class="&lt;Path&gt;" opacity=".2"/>
          <path fill="#FCB84A" d="M45.7 86.5c.5.6-.1 1.9-1.3 3-1.2 1-2.6 1.4-3.1.8-.5-.5.1-1.8 1.3-2.9 1.2-1 2.6-1.4 3.1-.9Z" class="&lt;Path&gt;"/>
          <path fill="#F1B142" d="m42.9 89.4-1.1-1.1c-.6.8-.8 1.6-.5 2 .4.5 1.3.3 2.3-.3-.2-.2-.433-.4-.7-.6Zm1.1-2.9c.4.667.833 1.333 1.3 2 .6-.8.7-1.6.4-2-.3-.3-1-.3-1.7 0Z" class="&lt;Path&gt;" opacity=".3"/>
          <path fill="#757578" d="M46 87c.5.6-.1 1.9-1.2 2.9-1.2 1-2.6 1.4-3.1.8-.5-.6.1-1.9 1.2-2.9 1.2-1 2.6-1.4 3.1-.8Z" class="&lt;Path&gt;" opacity=".2"/>
          <path fill="#BDD4EB" d="M45.9 87.1c.5.6 0 1.8-1.2 2.8-1.1.9-2.4 1.3-2.8.7-.5-.5 0-1.8 1.1-2.7 1.1-1 2.4-1.3 2.9-.8Z" class="&lt;Path&gt;"/>
          <g class="&lt;Group&gt;">
            <path fill="#8489AB" d="M44 87.7h-.1v-.2l.1-.1v.3Zm-.1 2.6-.1.1v-.3l.1-.1v.3Zm-1.7-.4-.4.3v-.1l.4-.2Zm3.8-2.3v.1l-.4.2v-.1l.4-.2Z" class="&lt;Path&gt;"/>
          </g>
          <g class="&lt;Group&gt;">
            <g class="&lt;Group&gt;">
              <path fill="#5E68AC" d="m42.5 89.2 1.4-.2.1-.1-1.5.2v.1Z" class="&lt;Path&gt;"/>
              <path fill="#A191C4" d="m42.5 89.1 1.4-.2.1-.1-1.5.2v.1Z" class="&lt;Path&gt;"/>
            </g>
            <g class="&lt;Group&gt;">
              <path fill="#5E68AC" d="m45.6 87.2-1.8 1.6h.2l1.6-1.6Z" class="&lt;Path&gt;"/>
              <path fill="#A191C4" d="m45.6 87.2-.1-.1-1.7 1.7h.2l1.6-1.6Z" class="&lt;Path&gt;"/>
            </g>
            <g class="&lt;Group&gt;">
              <path fill="#6D6E74" d="M44 88.7c-.1 0-.2 0-.2.1-.1 0-.2.1-.1.2 0 0 0 .1.1.1 0 0 .1 0 .2-.1s.1-.2.1-.2c-.1 0-.1-.1-.1-.1Z" class="&lt;Path&gt;"/>
              <path fill="#88888C" d="M44 88.7c0 .1 0 .1-.1.2s-.2.1-.2.1c-.1-.1 0-.2.1-.2 0-.1.1-.1.2-.1Z" class="&lt;Path&gt;"/>
            </g>
          </g>
          <path fill="#F9FCFE" d="M42.7 90.6c-.067-.6-.1-1.2-.1-1.8v-1c-1 .9-1.5 2.1-1 2.6.2.2.6.3 1.1.2Zm2.1-4c.2.667.367 1.333.5 2 .6-.7.7-1.4.4-1.8-.2-.2-.5-.267-.9-.2Z" class="&lt;Path&gt;" opacity=".1"/>
          <path fill="#F3EB18" fill-rule="evenodd" d="M46.3 86.3c.7.8 0 2.4-1.4 3.7-1.5 1.3-3.3 1.7-3.9.9-.7-.7 0-2.4 1.5-3.7 1.4-1.3 3.2-1.7 3.8-.9Zm-.6.2c-.5-.5-1.9-.1-3.1.9-1.2 1.1-1.8 2.4-1.3 2.9.5.6 1.9.2 3.1-.8 1.2-1.1 1.8-2.4 1.3-3Z" class="&lt;Compound Path&gt;" clip-rule="evenodd"/>
        </g>
      </g>
      <g class="doctor">
        <path fill="#050505" d="M42.1 98.2c0 .9-6.5 2.1-14.7 2.7-8.2.6-14.8.3-14.9-.6-.1-.9 6.5-2.1 14.7-2.7 8.1-.6 14.8-.3 14.9.6Z" class="&lt;Path&gt;" opacity=".3" style="mix-blend-mode:multiply"/>
        <g class="&lt;Group&gt;">
          <path fill="#050505" d="M44.8 77.8s-.2-1.4-1.5-3.7l-.1-.2a14.003 14.003 0 0 0-.9-1.3.888.888 0 0 1-.1-.4l.7-.3s-.3-.5-.8-1.4c0-.6-.1-1-.1-1l-.4.1c-.7-1.4-1.7-3.3-2.8-5.4-.3-2.4-.8-4.6-1.5-6.9-1.3-3.8-3.9-7.4-5.6-9.6 1.3-1.5 2.2-3.4 2.4-5.6.5-4.8-.6-6.4-1.1-10.5l-.2-1c.5.2.6.2.6-.1 0 0-.1-.6-.8-.9-.2-.733-.4-1.4-.6-2 .2.4.333.8.4 1.2 0 0 .1-2.1 0-2.8 0 0-1.3-.3-1.5-1.4-.3-1.1.4-1.6.4-1.6-.2-.2-.4-.367-.6-.5-.6-.4-1.6-1-2.8-1.5-.467-.2-.967-.4-1.5-.6-2.8-.9-6.4-1.1-9.4 1.9h-.2c-.8-.1-5-.7-7.6 1.4-.3.3-.9 1.7-1.2 4-.067.733-.1 1.567-.1 2.5.1 4.5.6 6 2 9.5l.2-.2c.067.4.233.767.5 1.1v.4c.067.333.167.7.3 1.1l-.5.5h-.1l-.4.4-.1.1c-.067.067-.1.133-.1.2l-.1-.1c-.3-.3-.5 0-.5.3 0 .067.033.167.1.3-.667.8-1.167 1.633-1.5 2.5-.4.733-.7 1.533-.9 2.4v.1h-.1c-.067 0-.1.033-.1.1h-.1c0 .067-.033.1-.1.1v.1c-.067 0-.133.033-.2.1s-.1.133-.1.2l-.2.2c0 .067-.033.133-.1.2l-.1.1v.1c-.067.067-.1.133-.1.2-.067.067-.1.133-.1.2v.1l-.1.1v.3c-.067.067-.1.133-.1.2v.8c.1 3 .5 13.4.7 19.4h-.5v1c-.3 0-.5.2-.5.5s.3.6.6.6v.2l.5-.1c.1 1.3.1 2.1.1 2.1h.2c0 .6.1 1.233.3 1.9.5 2.1 1.2 2.6 1.2 2.6.133.2.3.3.5.3v.1h.1c.067 0 .167-.033.3-.1.133.2.233.333.3.4.7 3.8 1.3 6.8 1.8 7.8.067.133.133.233.2.3h.2v.1c.2 0 .467.033.8.1.4.067.933.1 1.6.1l1.1 5.8h.1c.1 1.8.2 3.9.4 4.8.1.4 1.4.5 3.1.5h.7c.133-.067.233-.1.3-.1h1.1c0-.067.033-.1.1-.1h.9c.067-.067.133-.1.2-.1h.8c0-.067.033-.1.1-.1h.6c.067 0 .1-.033.1-.1h.6c.067 0 .133-.033.2-.1h.7c.067-.067.133-.1.2-.1h.5l.1-.1h.7c.133 0 .233-.033.3-.1h.9c0-.067.033-.1.1-.1h.6c.067 0 .133-.033.2-.1h.7c.067 0 .133-.033.2-.1h.7c.067-.067.133-.1.2-.1h.3c.067 0 .167-.033.3-.1h.6l.1-.1h.6c.067-.067.133-.1.2-.1h.5c0-.067.033-.1.1-.1h.5l.1-.1h.5c.067 0 .1-.033.1-.1h.2c1.6-.3 1.5-2 .6-2.9l-.1-.1h-.1v-.1h-.1l-.1-.1h-.1v-.1h-.2c-.067 0-.1-.033-.1-.1H33v.1h-.2c-.4.1-.8.2-1.1.3h-.1c-.2 0-.8-.3-1-.7v-1l.4-.1v-6.4c.333-.067.6-.133.8-.2 0 0 4.2-.7 6.8-3.2.1-.5.3-2.4.4-4.6.2.067.367.067.5 0a.654.654 0 0 0 .3-.3.889.889 0 0 0 .4-.1c.067.067.1.133.1.2.2.4.5.5.9.4.4-.1.6-.5.5-.9 0-.067-.033-.133-.1-.2.067-.067.1-.133.1-.2.1.4.1.6.2.8.2.4.6.5 1 .4.3-.2.5-.5.4-1 .067.067.1.167.1.3.1.3.6.5.9.3.4-.1.6-.6.5-1.1Z" class="&lt;Path&gt;" opacity=".1"/>
          <g class="&lt;Group&gt;">
            <g class="&lt;Group&gt;">
              <path fill="#BF9469" stroke="#050505" stroke-linecap="round" stroke-linejoin="round" stroke-width=".4" d="M39.9 76.3c-.3 0-1.5-.1-1.9-2-.5-1.8-.3-2.3.2-3 .5-.6 3-.8 3-.8s2 .1 3.9 3.3c0 0 .8 1.6.3 1.6-.5.1-4.2 1-4.6 1.2-.4.1-.5-.4-.9-.3Z" class="&lt;Path&gt;"/>
              <g class="&lt;Path&gt;">
                <path fill="#BF9469" d="M41.3 76c.6 1.6.6 2.1.6 2.1.1.5-.1.8-.5 1-.4.1-.8-.1-.9-.4-.3-.8-.7-2.1-1-2.8"/>
                <path stroke="#050505" stroke-linecap="round" stroke-linejoin="round" stroke-width=".4" d="M41.3 76c.6 1.6.6 2.1.6 2.1.1.5-.1.8-.5 1-.4.1-.8-.1-.9-.4-.3-.8-.7-2.1-1-2.8"/>
              </g>
              <g class="&lt;Path&gt;">
                <path fill="#BF9469" d="M42.7 75.4c.6 1.4.9 2.9.9 2.9.1.5-.1.8-.5 1-.3.1-.7-.1-.9-.4l-.3-1.2s-.2-.8-.6-1.6"/>
                <path stroke="#050505" stroke-linecap="round" stroke-linejoin="round" stroke-width=".4" d="M42.7 75.4c.6 1.4.9 2.9.9 2.9.1.5-.1.8-.5 1-.3.1-.7-.1-.9-.4l-.3-1.2s-.2-.8-.6-1.6"/>
              </g>
              <g class="&lt;Path&gt;">
                <path fill="#BF9469" d="M43.2 76.8c.4 1.1.5 1.5.7 2 .1.3.5.5.9.4.4-.2.5-.6.4-1 0 0-.2-1.3-.8-2.8"/>
                <path stroke="#050505" stroke-linecap="round" stroke-linejoin="round" stroke-width=".4" d="M43.2 76.8c.4 1.1.5 1.5.7 2 .1.3.5.5.9.4.4-.2.5-.6.4-1 0 0-.2-1.3-.8-2.8"/>
              </g>
              <g class="&lt;Path&gt;">
                <path fill="#BF9469" d="M43.8 72c2.6 3.3 2.9 5.7 2.9 5.7.1.4-.1.9-.4 1.1-.4.1-.8 0-1-.4-.4-1.3-1-3.1-1.3-3.2"/>
                <path stroke="#050505" stroke-linecap="round" stroke-linejoin="round" stroke-width=".4" d="M43.8 72c2.6 3.3 2.9 5.7 2.9 5.7.1.4-.1.9-.4 1.1-.4.1-.8 0-1-.4-.4-1.3-1-3.1-1.3-3.2"/>
              </g>
              <path fill="#050505" d="M39.6 75.6c-.2 0-1-.6-.1-1.1.7-.4 1.8-1 2.7-1.1 1.3-.1 2.2 0 2.2-.5-.1-.5-1.3-1.7-2-2.1-.7-.3-2.6-.1-3.2 0-.6.2-1.5.9-1.5 1.9-.1 1.1.4 2.6 1 2.9.7.2.9 0 .9 0Zm4.5-1.1s.7.6 1 1.3c.3.7 1.2 2.4.5 2.5l-.4-.1s-.2.5-.7.5c-.4.1-.8-.8-.8-.8s-.3.8-.8.6c-.6-.1-.6-.5-.6-.5s-.3.5-.8.5c-.5-.1-1-.6-1.2-1.2-.2-.5-.5-1.5-.5-1.5s.5.2 1.2.1c.8-.2 1.6-.5 1.6-.5l1.5-.9Z" class="&lt;Path&gt;" opacity=".2"/>
              <g class="&lt;Path&gt;">
                <path fill="#BF9469" d="M42.4 75.2s0 .1.5 1c.4.6.4.8.8 1.1.4.3.8.2 1.1-.1.3-.3.2-.8-.1-1.2-.3-.5-.5-.8-.6-1.4 0 0-.1-.7.2-.8"/>
                <path stroke="#050505" stroke-linecap="round" stroke-linejoin="round" stroke-width=".4" d="M42.4 75.2s0 .1.5 1c.4.6.4.8.8 1.1.4.3.8.2 1.1-.1.3-.3.2-.8-.1-1.2-.3-.5-.5-.8-.6-1.4 0 0-.1-.7.2-.8"/>
              </g>
            </g>
            <g class="&lt;Group&gt;">
              <path fill="#F8F9F9" stroke="#050505" stroke-linecap="round" stroke-linejoin="round" stroke-width=".4" d="m37.6 75.5 7.2-3.7s-9-17.2-11-21.1c-2.4-4.5-9.5-.7-7.1 3.8 1.9 3.7 10.9 21 10.9 21Z" class="&lt;Path&gt;"/>
              <path fill="#050505" d="M30.2 48.7c-.3.5-1.3 2.1-.8 3.1l11.3 22.1-3 1.6-2.8-5.3L26.5 54c-1.1-2.7 1.3-5.1 3.7-5.3Z" class="&lt;Path&gt;" opacity=".2"/>
              <g class="&lt;Path&gt;">
                <path fill="#F8F9F9" d="m41.4 71.4-5.2 2.5-1-2 5.2-2.6"/>
                <path stroke="#050505" stroke-linecap="round" stroke-linejoin="round" stroke-width=".4" d="m41.4 71.4-5.2 2.5-1-2 5.2-2.6"/>
              </g>
            </g>
            <g class="&lt;Group&gt;">
              <g class="Zapato 00000176036875947319245440000007063364598530269090">
                <path fill="#643412" stroke="#050505" stroke-linejoin="round" stroke-width=".4" d="M32.5 90.3v3.9c.1 2.6 2.6-.5 4.3 1.2.9.9 1 2.6-.5 2.9 0 0-12.9 2.2-13.3.7-.4-1.7-.6-8.2-.6-8.2l10.1-.5Z" class="&lt;Path&gt;"/>
                <path stroke="#C1B29A" stroke-linecap="round" stroke-linejoin="round" stroke-width=".4" d="m31 95.4 1.4-.3m-1.6-.6 1.5-.3" class="&lt;Path&gt;"/>
              </g>
              <g class="Pierna 00000045613765825268612930000002905290683024588473">
                <g class="&lt;Path&gt;">
                  <path fill="#3D261A" d="m19 76.3 3.5 17.8s2.9.4 5.2.2c2.2-.1 5.3-.8 5.3-.8l-.2-20.8"/>
                  <path stroke="#050505" stroke-linecap="round" stroke-linejoin="round" stroke-width=".4" d="m19 76.3 3.5 17.8s2.9.4 5.2.2c2.2-.1 5.3-.8 5.3-.8l-.2-20.8"/>
                </g>
              </g>
              <path fill="#050505" d="M36.8 95.4c-1-1.1-2.4-.3-3.3-.1.1 0-1.2-.4-1-1.1v-.6l.5-.1-.2-20.8-2.9.7.2 20.3c-.067 0-.233.033-.5.1v.6c0 2.8 4.2 1.1 4.8 2.1.6.9-.5 1.1-1.5 1.4-.9.3-3.3 1.2-6.8 1.6 3.9-.2 10.2-1.2 10.2-1.2 1.5-.3 1.4-2 .5-2.9Z" class="&lt;Path&gt;" opacity=".2"/>
            </g>
            <g class="&lt;Group&gt;">
              <g class="Zapato 00000042715287144209674280000014845563475313591442">
                <path fill="#643412" stroke="#050505" stroke-linejoin="round" stroke-width=".4" d="M26.7 91v3.9c.2 2.6 2.7-.6 4.4 1.2.8.9.9 2.6-.6 2.8 0 0-12.9 2.2-13.2.7-.4-1.6-.6-8.2-.6-8.2l10-.4Z" class="&lt;Path&gt;"/>
                <path stroke="#C1B29A" stroke-linecap="round" stroke-linejoin="round" stroke-width=".4" d="m25.2 96.1 1.5-.3m-1.6-.6 1.4-.3" class="&lt;Path&gt;"/>
              </g>
              <g class="Pierna 00000028285119185935385950000002182723951866988940">
                <g class="&lt;Path&gt;">
                  <path fill="#3D261A" d="m13.3 76.9 3.4 17.9s3 .3 5.2.2c2.2-.1 5.3-.8 5.3-.8L27 73.4"/>
                  <path stroke="#050505" stroke-linecap="round" stroke-linejoin="round" stroke-width=".4" d="m13.3 76.9 3.4 17.9s3 .3 5.2.2c2.2-.1 5.3-.8 5.3-.8L27 73.4"/>
                </g>
              </g>
              <path fill="#050505" d="M31.1 96.1c-1.1-1.1-2.5-.3-3.4-.1.1 0-1.1-.4-1-1.1.1-.1 0-.4 0-.6l.5-.1-.2-20.8-2.9.7.2 20.3-.5.1v.6c0 2.7 4.3 1.1 4.8 2.1.6.9-.5 1.1-1.4 1.4-.9.3-3.3 1.2-6.8 1.5 3.9-.1 10.1-1.2 10.1-1.2 1.5-.2 1.4-1.9.6-2.8Z" class="&lt;Path&gt;" opacity=".2"/>
            </g>
            <g class="&lt;Group&gt;">
              <path fill="#D3D4D4" stroke="#050505" stroke-linecap="round" stroke-linejoin="round" stroke-width=".4" d="M11.8 42.9c3.1-3.2 14.9-6.1 20 2 5.1 8-1.2 14.7-1.2 14.7S8.7 46.1 11.8 42.9Z" class="&lt;Path&gt;"/>
              <g class="&lt;Path&gt;">
                <path fill="#BF9469" d="M30.3 43.2s-2.6-3.9-4-4.7c-1.4-.8-3.1-1.6-6.1-1-2.4.5-7.3 1.4-4.7 10.4 2.7 9 8.3 5.1 12.9 4 4.6-1.2 2.1-8.7 2.1-8.7"/>
                <path stroke="#050505" stroke-linecap="round" stroke-linejoin="round" stroke-width=".4" d="M30.3 43.2s-2.6-3.9-4-4.7c-1.4-.8-3.1-1.6-6.1-1-2.4.5-7.3 1.4-4.7 10.4 2.7 9 8.3 5.1 12.9 4 4.6-1.2 2.1-8.7 2.1-8.7"/>
              </g>
              <g class="&lt;Group&gt;">
                <g class="&lt;Path&gt;">
                  <path fill="#050505" d="M14.3 85.8c2.5.5 10.7.8 16.5-2.9 5.8-3.8 5.8-8.1 5.8-8.1s-20.5-1.3-22 1.5"/>
                  <path stroke="#050505" stroke-width=".4" d="M14.3 85.8c2.5.5 10.7.8 16.5-2.9 5.8-3.8 5.8-8.1 5.8-8.1s-20.5-1.3-22 1.5"/>
                </g>
                <g class="&lt;Path&gt;">
                  <path fill="#3D261A" d="M22.9 80.6s10.1.7 14.1-2.4c4.1-3.1 3.5-13.1 2.8-16.6l-27.5 2"/>
                  <path stroke="#050505" stroke-linecap="round" stroke-linejoin="round" stroke-width=".4" d="M22.9 80.6s10.1.7 14.1-2.4c4.1-3.1 3.5-13.1 2.8-16.6l-27.5 2"/>
                </g>
                <g class="&lt;Group&gt;">
                  <path fill="#404041" stroke="#050505" stroke-linecap="round" stroke-linejoin="round" stroke-width=".4" d="M28 53.3s-.3 1.5 0 2.7c.2 1.2 2.2 3.4 2.2 3.4l1.8-3.2s-1-2.7-1.9-3.6c-.9-.9-2.1.7-2.1.7Z" class="&lt;Path&gt;"/>
                  <path fill="#050505" d="M29 55.9c-.3-1.2 0-2.7 0-2.7s.4-.5.9-.8c-.9-.5-1.9.9-1.9.9s-.3 1.5 0 2.7c.2 1.2 2.2 3.4 2.2 3.4l.5-.8c-.6-.7-1.5-2-1.7-2.7Z" class="&lt;Path&gt;" opacity=".2" style="mix-blend-mode:multiply"/>
                  <path fill="#404041" stroke="#050505" stroke-linecap="round" stroke-linejoin="round" stroke-width=".4" d="M27.8 52.9c.1.4.4.6.8.5l1-.4c.4-.1.6-.5.5-.8l-.3-2.1c-.1-.4-.5-.6-.8-.5l-1.7.5c-.4.1-.6.5-.5.9l1 1.9Z" class="&lt;Path&gt;"/>
                  <path fill="#050505" d="M29.5 50.1s-.4.1-1.1.4c-.7.2-.9 0-.6 1.3.4 1.3 1 1 1.3 1 .3.1-.1.4-.1.4s-.8.3-1 .1c-.1-.2-1.3-2.6-1.3-2.7 0-.1.3-.3.4-.3 0-.1 1.3-.6 1.4-.6h1v.4Z" class="&lt;Path&gt;" opacity=".2" style="mix-blend-mode:multiply"/>
                  <path fill="#F8F9F9" stroke="#050505" stroke-linecap="round" stroke-linejoin="round" stroke-width=".4" d="m28.8 49.1 2.4 2.8s1.6-2.1 1.5-4.1c-.1-2-2.5-5-2.5-5s2.4 3.6-1.4 6.3Zm-2.6 4c.4-.5 1.4-3.5 1.4-3.5s-15.4-3.3-12.9-7.7c.4-.7-4.7.2 1.2 6.3 5.8 6.1 10.3 4.9 10.3 4.9Z" class="&lt;Path&gt;"/>
                </g>
                <path fill="#F8F9F9" stroke="#050505" stroke-linecap="round" stroke-linejoin="round" stroke-width=".4" d="M31.8 45.3s5.3 5.8 7.4 11.9c1.7 5 2 9.5 1.9 17.2 0 3.4-.3 8.4-.6 9.3-2.6 2.5-6.8 3.1-6.8 3.1s-.1-13.7-1.2-20.7c-1.2-7-1.6-8.3-1.6-8.3s1.3-7.7.9-12.5Z" class="&lt;Path&gt;"/>
                <g class="&lt;Path&gt;">
                  <path fill="#F8F9F9" d="M15.3 40.5c-7.9 3.9-7.2 10.9-6.7 19.6.5 8.6 3.3 26.6 4.4 28.6 2 1.1 18.6-1.1 20.7-1.9.4-2.6-.7-13.8-.9-20-.2-6.1-1.4-7.5-1.9-9l-8.7-7.5s-11.1-6.3-7.1-9.6"/>
                  <path stroke="#050505" stroke-linecap="round" stroke-linejoin="round" stroke-width=".4" d="M15.3 40.5c-7.9 3.9-7.2 10.9-6.7 19.6.5 8.6 3.3 26.6 4.4 28.6 2 1.1 18.6-1.1 20.7-1.9.4-2.6-.7-13.8-.9-20-.2-6.1-1.4-7.5-1.9-9l-8.7-7.5s-11.1-6.3-7.1-9.6"/>
                </g>
                <path fill="#050505" d="M8.6 60.1c-.5-8.7-.8-13 3-16.7l2.7 3.4c-2.2 3-2.9 4.9-2.5 11.9.4 7.3 4.4 27.8 5.8 30.3-2.3.2-3.8 0-4.4-.2-1.4-.3-4.1-20.1-4.6-28.7Z" class="&lt;Path&gt;" opacity=".2"/>
                <path fill="#050505" d="M11.6 43.1c.2 1.6 4.3 10.1 5 11.6.2.6.8 1.9 1.4 2.1.8.1 3.4-1.3 3.4-1.3s-.5 2.7-.2 3.3c.4.8 8.6-.3 10.3.5" class="&lt;Path&gt;" opacity=".2"/>
                <g class="&lt;Path&gt;">
                  <path fill="#F8F9F9" d="M12.3 42.5c.2 1.6 3.8 9.2 4.4 10.7.3.6.8 1.9 1.5 2.1.8.1 3.4-1.3 3.4-1.3s-.6 2.7-.2 3.3c.4.8 8.3.5 10 1.3"/>
                  <path stroke="#050505" stroke-linecap="round" stroke-linejoin="round" stroke-width=".4" d="M12.3 42.5c.2 1.6 3.8 9.2 4.4 10.7.3.6.8 1.9 1.5 2.1.8.1 3.4-1.3 3.4-1.3s-.6 2.7-.2 3.3c.4.8 8.3.5 10 1.3"/>
                </g>
                <path fill="#050505" d="M15.4 47.9c.3.8 3.4 5.9 9.4 6.7 6.1.8 8.4-5.3 8.7-6.6 0 0-2.1-8.2-10.7-8.2s-11.3 3.4-11.3 3.4m23.9 8c.5.9 1.4 2.7 1.3 3-.2.3-1.8.9-2.2 1.5.6.2 2.2.6 2.1.8-1.3 1.1-2.5.9-5.1 2.5" class="&lt;Path&gt;" opacity=".2"/>
                <g class="&lt;Path&gt;">
                  <path fill="#F8F9F9" d="M34.5 48.7c.5.8 1.7 4.4 1.6 4.7-.1.3-1.7.9-2.2 1.4.6.3 1.7.4 2.1.9-1.3 1.1-2 1.3-4.6 2.9"/>
                  <path stroke="#050505" stroke-linecap="round" stroke-linejoin="round" stroke-width=".4" d="M34.5 48.7c.5.8 1.7 4.4 1.6 4.7-.1.3-1.7.9-2.2 1.4.6.3 1.7.4 2.1.9-1.3 1.1-2 1.3-4.6 2.9"/>
                </g>
                <g class="&lt;Group&gt;">
                  <path fill="#F8F9F9" stroke="#050505" stroke-linecap="round" stroke-linejoin="round" stroke-width=".4" d="m17.8 71.9 4.1-.2 4.1-.4s.3 4.5.4 5.6c.1 1.2-.8 3.1-4 3.3-3.3.3-4.1-1.7-4.2-2.8-.1-1-.4-5.5-.4-5.5Z" class="&lt;Path&gt;"/>
                  <g class="&lt;Path&gt;">
                    <path fill="#F8F9F9" d="m18 74.1 3.9-.2 4.3-.4"/>
                    <path stroke="#050505" stroke-linecap="round" stroke-linejoin="round" stroke-width=".4" d="m18 74.1 3.9-.2 4.3-.4"/>
                  </g>
                </g>
                <g class="Clip path group">
                  <mask id="a" width="11" height="42" x="30" y="45" class="a" maskUnits="userSpaceOnUse" style="mask-type:luminance">
                    <g class="cp188">
                      <path fill="#fff" d="M31.81 45.34s4.77 5.74 6.82 11.85c2.43 7.24 2.37 12.03 2.3 17.16-.05 3.57-.45 8.44-.74 9.35-2.6 2.47-6.45 3.13-6.45 3.13s-.17-13.72-1.28-20.71-1.52-8.33-1.52-8.33 1.27-7.69.87-12.45Z" class="Vector"/>
                    </g>
                  </mask>
                  <g class="&lt;Clip Group&gt;" mask="url(#a)">
                    <g class="&lt;Group&gt;">
                      <path fill="#F8F9F9" stroke="#050505" stroke-linecap="round" stroke-linejoin="round" stroke-width=".4" d="m35.8 70.6 4.1-.2 4.1-1.1s.3 5.2.4 6.3c.1 1.2-.2 3.1-3.4 3.3-3.3.2-4.7-1.7-4.8-2.7-.1-1.1-.4-5.6-.4-5.6Z" class="&lt;Path&gt;"/>
                      <g class="&lt;Path&gt;">
                        <path fill="#F8F9F9" d="m36 72.8 3.9-.2 4.2-1.1"/>
                        <path stroke="#050505" stroke-linecap="round" stroke-linejoin="round" stroke-width=".4" d="m36 72.8 3.9-.2 4.2-1.1"/>
                      </g>
                    </g>
                  </g>
                </g>
                <g class="&lt;Group&gt;">
                  <path fill="#F8F9F9" stroke="#050505" stroke-linecap="round" stroke-linejoin="round" stroke-width=".4" d="M38.1 58.7s-1.8.4-3.2.4c-.333 0-.633-.033-.9-.1 0 0 .2 2.5.2 3.3.1.7.4 2.4 2.6 2.2 0 0 1.7-.2 1.6-1.9-.2-1.6-.3-3.9-.3-3.9Z" class="&lt;Path&gt;"/>
                  <g class="&lt;Path&gt;">
                    <path fill="#FBC432" d="m35.1 58.8.2 2.3h.4l-.2-2.7c-.1-.9-.2-1.7-.7-1.7-.5 0-.5.8-.4 1.8v.4"/>
                    <path stroke="#050505" stroke-linecap="round" stroke-linejoin="round" stroke-width=".4" d="m35.1 58.8.2 2.3h.4l-.2-2.7c-.1-.9-.2-1.7-.7-1.7-.5 0-.5.8-.4 1.8v.4"/>
                  </g>
                  <g class="&lt;Path&gt;">
                    <path fill="#C7C8D0" d="m37.5 58.8-.2 2.4h.5l.1-2.7c.1-1 0-1.8-.5-1.8-.4 0-.6.8-.6 1.7v.4"/>
                    <path stroke="#050505" stroke-linecap="round" stroke-linejoin="round" stroke-width=".4" d="m37.5 58.8-.2 2.4h.5l.1-2.7c.1-1 0-1.8-.5-1.8-.4 0-.6.8-.6 1.7v.4"/>
                  </g>
                  <g class="&lt;Path&gt;">
                    <path fill="#CBB46F" d="m36.3 58.8-.1 2.3h.4l.2-2.6c0-1 0-1.8-.5-1.8-.5-.1-.6.7-.7 1.7v.4"/>
                    <path stroke="#050505" stroke-linecap="round" stroke-linejoin="round" stroke-width=".4" d="m36.3 58.8-.1 2.3h.4l.2-2.6c0-1 0-1.8-.5-1.8-.5-.1-.6.7-.7 1.7v.4"/>
                  </g>
                </g>
                <g class="&lt;Group&gt;">
                  <path fill="#C7C8D0" stroke="#050505" stroke-linecap="round" stroke-linejoin="round" stroke-width=".4" d="M26.4 55.4s3.6.6 6-1.3l-.2.7s-.9.5-2.2.9c-1.4.3-2.4.2-2.4.2l-1.2-.5Z" class="&lt;Path&gt;"/>
                  <g class="&lt;Group&gt;">
                    <path fill="#404041" stroke="#050505" stroke-linecap="round" stroke-width=".4" d="m32.6 71.8-.9.1s-.5-1.9-.5-3.3c-.1-1.3 1.1-4.6 1-6-.1-1.2-1.7-3.2-1.7-3.2h.9s1.6 1.9 1.7 3.2c.1 1.5-1 4.6-1 5.9 0 1.3.5 3.3.5 3.3Z" class="&lt;Path&gt;"/>
                  </g>
                  <path fill="url(#b)" stroke="#050505" stroke-linecap="round" stroke-width=".4" d="M34.2 72.5c.1 1.2-.7 2.2-1.9 2.3-1.2.1-2.2-.8-2.3-2 0-1.1.8-2.1 2-2.2 1.1-.1 2.2.8 2.2 1.9Z" class="&lt;Path&gt;"/>
                  <path fill="#EE3D3A" stroke="#050505" stroke-linecap="round" stroke-linejoin="round" stroke-width=".4" d="M32.3 45.2s2.1 2.8 2 5.4c0 1.3-2.5 7.4-3 7.8-.3.2-.1.6-.1.6l-.6.4-.5-.3s0-.3-.3-.6c-.3-.2-1.3-.9-2.9-1.7-1.4-.8-5.7-3-7.9-4.5-1.9-1.3-7.7-6.8-8-9 0-.3.3-.5.6-.2l.3.7s2.8 4.4 7.6 7.8c2.3 1.6 6.1 3.4 7.3 4.2 1.6 1 2.7 1.8 3.6 2.5h.3s3.1-6.3 3-8.1c-.2-1.8-.9-3-1.3-3.7l-.1-1.3Z" class="&lt;Path&gt;"/>
                  <path fill="#C7C8D0" stroke="#050505" stroke-linecap="round" stroke-linejoin="round" stroke-width=".4" d="M31.2 58.8c-.1.1-.3.2-.6.2s-.5 0-.6-.1c-.1.1-.3.1-.3.3 0 .2.5.5.9.4.1 0 .9-.1.9-.6 0-.1-.1-.2-.3-.2Z" class="&lt;Path&gt;"/>
                </g>
              </g>
            </g>
            <g class="&lt;Group&gt;">
              <g class="&lt;Group&gt;">
                <path fill="#BF9469" stroke="#050505" stroke-linecap="round" stroke-linejoin="round" stroke-width=".4" d="M9.1 78.6c-.7-1.5-.9-2.8-.6-4.4.2-1 1.1-1.7 2.1-2 .4-.2 2.9-1.1 3.7 1.1.2.6.3 1.3.7 1.8.3.4.5.5.6 1.3.1.3-.8 1.1-1.1 1.3-.1-.4-.2-.5-.4-.4-.4.1-.4.6 0 1.5.2.5-.2 1-.2 1l-2-.3s-2.5 0-2.8-.9Z" class="&lt;Path&gt;"/>
                <g class="&lt;Path&gt;">
                  <path fill="#BF9469" d="M15.4 75.6s.3 1 .6 1.9c.2.8.2 1.2.1 1.5-.2.4-.6.6-.9.6-.3 0-.5-.3-.5-.8 0-.6 0-.8-.3-1.4"/>
                  <path stroke="#050505" stroke-linecap="round" stroke-linejoin="round" stroke-width=".4" d="M15.4 75.6s.3 1 .6 1.9c.2.8.2 1.2.1 1.5-.2.4-.6.6-.9.6-.3 0-.5-.3-.5-.8 0-.6 0-.8-.3-1.4"/>
                </g>
                <g class="&lt;Group&gt;">
                  <g class="&lt;Path&gt;">
                    <path fill="#BF9469" d="M11.3 79.9c.1.4-.3.2-.6.3-.3.2-.6.1-.9-.2 0 0-.9-.7-1.4-3.7"/>
                    <path stroke="#050505" stroke-linecap="round" stroke-linejoin="round" stroke-width=".4" d="M11.3 79.9c.1.4-.3.2-.6.3-.3.2-.6.1-.9-.2 0 0-.9-.7-1.4-3.7"/>
                  </g>
                  <g class="&lt;Path&gt;">
                    <path fill="#BF9469" d="M11.9 79.3c.3.6.4.6.5.9.1.3 0 .7-.4.9-.3.1-.5 0-.8-.3 0 0-.5-.3-1.3-2.2"/>
                    <path stroke="#050505" stroke-linecap="round" stroke-linejoin="round" stroke-width=".4" d="M11.9 79.3c.3.6.4.6.5.9.1.3 0 .7-.4.9-.3.1-.5 0-.8-.3 0 0-.5-.3-1.3-2.2"/>
                  </g>
                  <g class="&lt;Path&gt;">
                    <path fill="#BF9469" d="M12.8 79c.5.9.7 1.2.9 1.7.1.3-.1.7-.4.8-.3.2-.6 0-.8-.3 0 0-.5-.3-1.2-2.2"/>
                    <path stroke="#050505" stroke-linecap="round" stroke-linejoin="round" stroke-width=".4" d="M12.8 79c.5.9.7 1.2.9 1.7.1.3-.1.7-.4.8-.3.2-.6 0-.8-.3 0 0-.5-.3-1.2-2.2"/>
                  </g>
                  <g class="&lt;Path&gt;">
                    <path fill="#BF9469" d="M12.6 78.9c.6 1.9 1.1 2.4 1.1 2.4.3.3.5.4.8.3.4-.2.5-.6.4-.9-.5-1.1-1.1-2.4-1.1-2.7"/>
                    <path stroke="#050505" stroke-linecap="round" stroke-linejoin="round" stroke-width=".4" d="M12.6 78.9c.6 1.9 1.1 2.4 1.1 2.4.3.3.5.4.8.3.4-.2.5-.6.4-.9-.5-1.1-1.1-2.4-1.1-2.7"/>
                  </g>
                </g>
                <path fill="#050505" d="M15.2 78.7s.1.1.1-.5c-.1-.6-.5-1.6-.7-1.1-.1.1-.1 0-.2 0l-.1.2c.5.7.4 1 .4 1.5 0 .467.133.733.4.8v-.1c-.4-.8.1-.8.1-.8Z" class="&lt;Path&gt;" opacity=".1"/>
                <path fill="#050505" d="M12.5 79.4s0 1 .9 2.1l.2-.3-1.1-1.8Zm-1.4-.3s0 1 .9 2.1l.2-.3-1.1-1.8Zm-1.4-.3s-.2.5.6 1.5l.5-.2-1.1-1.3Zm-1.2-2s1.1.7 3 .5c2.1-.3 3.1-1.4 3.7-1.3.7.1 0-.9 0-.9l-.9-1.4s-.3-2-2.5-1.9c-2.2.1-3 1.6-3 1.6s-.4 1.6-.3 3.4Z" class="&lt;Path&gt;" opacity=".3"/>
              </g>
              <g class="&lt;Group&gt;">
                <g class="&lt;Group&gt;">
                  <path fill="#F8F9F9" stroke="#050505" stroke-linecap="round" stroke-linejoin="round" stroke-width=".4" d="m8.1 75.5 8.1-.3s-.8-19.4-.9-23.8c-.2-5.1-8.3-4.6-8.1.3.2 4.3.9 23.8.9 23.8Z" class="&lt;Path&gt;"/>
                  <path fill="#050505" d="M12.9 48.1c-.5.2-2.1 1.3-2.1 2.4l.7 24.8-3.3.2-.3-6-.7-18.2c.2-2.9 3.4-4.1 5.7-3.2Z" class="&lt;Path&gt;" opacity=".2"/>
                  <g class="&lt;Path&gt;">
                    <path fill="#F8F9F9" d="m13.3 73.3-5.8.1v-2.2l5.7-.1"/>
                    <path stroke="#050505" stroke-linecap="round" stroke-linejoin="round" stroke-width=".4" d="m13.3 73.3-5.8.1v-2.2l5.7-.1"/>
                  </g>
                </g>
                <path fill="#F8F9F9" stroke="#050505" stroke-linecap="round" stroke-linejoin="round" stroke-width=".4" d="M7 72.7c0 .3.2.5.5.5s.6-.2.5-.5c0-.4-.2-.6-.5-.6s-.6.3-.5.6Z" class="&lt;Path&gt;"/>
              </g>
            </g>
            <g class="&lt;Group&gt;">
              <path fill="#BF9469" stroke="#050505" stroke-linecap="round" stroke-width=".4" d="M11.7 33.1c-.1-7.9 1.7-11.2 11.7-11.3 6.5 0 10.6 2.3 11.5 9.7.5 4 1.6 5.6 1.1 10.5-.5 5.4-5.1 9-10.8 9-7.7 0-12.1-7.2-12.6-10.1-.6-2.9-.9-7.8-.9-7.8Z" class="&lt;Path&gt;"/>
              <path fill="#050505" d="M18.1 40.9c-.3-3 2.7-10.7 2.7-10.7-2.8-4.8-2.8-6.5 5.2-8.3-.8-.067-1.667-.1-2.6-.1-10 .1-11.8 3.4-11.7 11.3 0 0 .3 4.9.9 7.8.5 2.9 4.9 10.1 12.6 10.1 1.8 0 3.4-.3 4.9-1-6.5-.8-11.2-3.1-12-9.1Z" class="&lt;Path&gt;" opacity=".2"/>
              <path fill="#3D261A" stroke="#050505" stroke-linecap="round" stroke-linejoin="round" stroke-width=".4" d="m17.1 37.3 1.2-.9s-1.7-3.6 1.5-6c0 0-5.1-3.2-4.2-5.3 1-2 3.5-2.4 3.5-2.4 3-.6 5-.4 7 .7.4.3.9.4.9.4s1.2-.8 1.6-.8c.6 0 5.1 2.4 5.7 5.7 0 0 .1-2.2 0-2.8 0 0-1.2-.4-1.5-1.5-.2-1 .5-1.5.5-1.5s-8.5-6.8-14.4-.7c0 0-4.8-1-7.8 1.3-.4.5-1.3 2.7-1.3 6.5.1 4.5.6 6.1 2 9.6 0 0 2.5-3.4 3.2-3.7.7-.2 2.1 1.4 2.1 1.4Z" class="&lt;Path&gt;"/>
              <g class="&lt;Group&gt;" style="mix-blend-mode:multiply">
                <path stroke="#3D261A" stroke-linecap="round" stroke-linejoin="round" stroke-width=".4" d="M17.8 34.5c-.8.4-1.9.9-2.1 1.6m2.6-4c-3 .9-5.3 2.5-7.4 4.9m8.7-6.6c-3.7.3-6.6 1.7-9.2 4.7m7.3-6.2c-2.3.2-5.9 1.8-7.7 4.3m6.3-5.7c-1.2-.1-5.3.3-6.5 2.5m5.6-4.1c-1.6-.5-4.4.1-5.4 1.6m1.6-3.8c1.4 0 3.2.3 4.1 1.3m-1-2.7c.7.5 1.4.8 1.8 1.6m0-1.8c.6.2 1.1.5 1.3 1m2.2-.7c1.3-1.5 3.9-2.7 6-2.6m-3.3 2.6c.9-1.2 3.8-2.3 5.6-2.1m-3.5 2.6c1.4-1 3.3-1.9 5.1-2.1" class="&lt;Path&gt;"/>
              </g>
              <path stroke="#050505" stroke-linecap="round" stroke-linejoin="round" stroke-width=".4" d="M28.3 23.1c.9-.7 3.1-1.7 5-.2" class="&lt;Path&gt;"/>
              <g class="&lt;Path&gt;">
                <path fill="#BF9469" d="M15.6 36.6c-.5-.9-1.8-1.5-2.9-1-1.1.5-1.6 3 .1 5.3 1.5 2.1 2.2 2.4 2.8 2.3.6-.2.9-1.2.9-1.2"/>
                <path stroke="#050505" stroke-linecap="round" stroke-width=".4" d="M15.6 36.6c-.5-.9-1.8-1.5-2.9-1-1.1.5-1.6 3 .1 5.3 1.5 2.1 2.2 2.4 2.8 2.3.6-.2.9-1.2.9-1.2"/>
              </g>
              <path stroke="#050505" stroke-linecap="round" stroke-linejoin="round" stroke-width=".4" d="M28.6 46.9s.6-1.1 1.6-1c1.1.2 1.6 1 1.6 1.6.1.8-.1 2.2-3.7 3.2" class="&lt;Path&gt;"/>
              <path fill="#DEDFDD" d="M30.1 45.4c.1.1.6-.1.9-.2.3-.1.7-.7.8-.9-.2.2-.6.4-.9.6-.2.1-.5.1-.7.2-.2 0-.2.1-.1.3Z" class="&lt;Path&gt;" style="mix-blend-mode:multiply"/>
              <path fill="#050505" d="M13.1 39.5c-.6-.8-.9-1.9-.4-2.5.4-.7.9-.6 1.2-.3-.7.4-1.1 1.2-.8 2.8Z" class="&lt;Path&gt;" opacity=".2"/>
              <path fill="#050505" d="M15.6 36.6c-.5-.9-1.8-1.5-2.9-1-1.1.5-1.6 3 .1 5.3 1.5 2.1 2.2 2.4 2.8 2.3.6-.2.9-1.2.9-1.2m15.2 5.1c.4.6.9.8 1.6.9l-.6.3c-.2.1-.3.3-.5.4a3.26 3.26 0 0 1-.5.4c-.2.1-.4.3-.6.4.1-.2.3-.4.5-.6l.2-.6c.1-.3.2-.5.2-.8m-3.7-24.4c.133-.067.233-.1.3-.1.6 0 5.1 2.4 5.7 5.7 0 0 .1-2.2 0-2.8 0 0-1.2-.4-1.5-1.5-.2-1 .5-1.5.5-1.5-1.5-1.5-4.1-.5-5 .2Z" class="&lt;Path&gt;" opacity=".2"/>
            </g>
            <path stroke="#050505" stroke-linecap="round" stroke-width=".4" d="M26.9 36.3c.1 0 .2 1.4-2.1 2.3" class="&lt;Path&gt;"/>
            <g class="&lt;Group&gt;">
              <path fill="#FEFEFE" stroke="#050505" stroke-linecap="round" stroke-linejoin="round" stroke-width=".4" d="M34.8 33.9c-.1-.3-.3-1.2-1.8-1.1-1.4.1-1.7 1-1.6 1.5.1.5.6 1 1.8 1 1.2-.1 1.6-1 1.6-1.4Z" class="&lt;Path&gt;"/>
              <g class="&lt;Group&gt;">
                <path fill="#FEFEFE" stroke="#050505" stroke-linecap="round" stroke-linejoin="round" stroke-width=".4" d="M26.2 34.2c0-.4-.3-1.2-1.7-1.1-1.5.1-1.7 1-1.7 1.5.1.4.6 1 1.8.9 1.2 0 1.6-.9 1.6-1.3Z" class="&lt;Path&gt;"/>
              </g>
            </g>
            <g class="&lt;Group&gt;">
              <path fill="#4B2910" stroke="#050505" stroke-width=".4" d="M31.9 34.1c0-.5.4-1 .9-1 .5-.1 1 .3 1 .8.1.6-.3 1-.8 1.1-.6 0-1-.4-1.1-.9Z" class="&lt;Path&gt;"/>
              <g class="&lt;Group&gt;">
                <path fill="#050505" stroke="#050505" stroke-width=".4" d="M31.9 34.1c0-.5.4-1 .9-1 .5-.1 1 .3 1 .8-1.1-.7-1.9.4-1.9.2Z" class="&lt;Path&gt;" opacity=".3"/>
                <path fill="#050505" d="M32.4 34.1c0-.3.2-.5.5-.5.2-.1.4.1.4.4.1.2-.1.5-.4.5-.2 0-.4-.2-.5-.4Z" class="&lt;Path&gt;"/>
                <path fill="#FEFEFE" d="M32.9 33.9c0-.2.1-.3.3-.4.1 0 .3.2.3.3 0 .2-.1.4-.3.4-.2 0-.3-.1-.3-.3Z" class="&lt;Path&gt;"/>
              </g>
            </g>
            <g class="&lt;Group&gt;">
              <path fill="#4B2910" stroke="#050505" stroke-width=".4" d="M23.3 34.4c-.1-.5.3-1 .9-1.1.6 0 1.1.4 1.1 1 0 .5-.4 1-1 1.1-.5 0-1-.4-1-1Z" class="&lt;Path&gt;"/>
              <g class="&lt;Group&gt;">
                <path fill="#050505" stroke="#050505" stroke-width=".4" d="M23.3 34.4c-.1-.5.3-1 .9-1.1.6 0 1.1.4 1.1 1-1.3-.8-2 .3-2 .1Z" class="&lt;Path&gt;" opacity=".3"/>
                <path fill="#050505" d="M23.8 34.4c0-.3.2-.5.4-.5.3-.1.5.1.6.4 0 .3-.2.5-.5.5s-.5-.2-.5-.4Z" class="&lt;Path&gt;"/>
                <path fill="#FEFEFE" d="M24.3 34.2c0-.2.1-.4.3-.4.2 0 .3.2.3.3 0 .2-.1.4-.3.4-.2 0-.3-.1-.3-.3Z" class="&lt;Path&gt;"/>
              </g>
            </g>
            <path fill="#8F6F4F" stroke="#050505" stroke-linecap="round" stroke-linejoin="round" stroke-width=".4" d="M33 32.8c-1.1.1-1.5.6-1.6 1.1.1-.1.7-.2 1.7-.3 1-.2 1.6.2 1.6.3 0-.4-.3-1.2-1.7-1.1Z" class="&lt;Path&gt;"/>
            <g class="&lt;Group&gt;">
              <path fill="#DBD2D2" d="M25.9 34s-.1.3.1.5c0 .1.2-.3.2-.3l-.3-.2Z" class="&lt;Path&gt;" style="mix-blend-mode:multiply"/>
              <path fill="#8F6F4F" stroke="#050505" stroke-linecap="round" stroke-linejoin="round" stroke-width=".4" d="M24.5 33.1c-1.2.1-1.6.6-1.7 1.1.1-.1.7-.1 1.7-.3 1.1-.1 1.7.2 1.7.3 0-.4-.3-1.2-1.7-1.1Z" class="&lt;Path&gt;"/>
            </g>
            <path fill="#3D261A" stroke="#050505" stroke-linecap="round" stroke-linejoin="round" stroke-width=".4" d="M35.3 30.4s-.2-1-1.4-1.2c-1.7-.3-2.2 0-2.4.2-.2.5-.2 1.1 0 1.1.4.1 1.3-.8 3.3 0 .5.2.5.2.5-.1Zm-13.8-.2s1.3-1.1 2.8-1.3c1.7-.2 2.8.1 3.2.4.1.4.1 1.1-.1 1.1-.4 0-3.4-.7-5.4 0-.5.1-.9 0-.5-.2Z" class="&lt;Path&gt;"/>
            <path stroke="#050505" stroke-linecap="round" stroke-width=".4" d="M31.6 43.4c-.3.3-1.5.7-2.4.7-2.5 0-4.3-.8-4.6-1.5-.3-.6.2-.8.2-.8" class="&lt;Path&gt;"/>
            <g class="&lt;Path&gt;">
              <path fill="#BF9469" d="M28.1 39s-.9.5-.8 1.2c0 .7.8.8.9.8.4 0 .9-.3 1.2-.2.5.1.7.6 1.4.6.6.1 1.7-.7 1.7-1.6 0-.8-.3-1.2-1.1-2.5-.5-.6-.9-2.3-.9-4"/>
              <path stroke="#050505" stroke-linecap="round" stroke-width=".4" d="M28.1 39s-.9.5-.8 1.2c0 .7.8.8.9.8.4 0 .9-.3 1.2-.2.5.1.7.6 1.4.6.6.1 1.7-.7 1.7-1.6 0-.8-.3-1.2-1.1-2.5-.5-.6-.9-2.3-.9-4"/>
            </g>
          </g>
        </g>
      </g>
    </g>
  </g>
  <defs>
    <radialGradient id="b" cx="0" cy="0" r="1" class="b" gradientTransform="matrix(2.09998 0 0 2.10004 32.1 72.7)" gradientUnits="userSpaceOnUse">
      <stop stop-color="#B3B3B3"/>
      <stop offset="1" stop-color="#919191"/>
    </radialGradient>
  </defs>
</svg>
