<svg xmlns="http://www.w3.org/2000/svg" width="43" height="37" fill="none" viewBox="0 0 43 37">
  <g class="5-1-ilus">
    <g class="&lt;Group&gt;">
      <g class="&lt;Group&gt;">
        <path fill="#427EC0" d="M10.994 30.122c7.834-4.03 16.453 2.772 24.287-1.259.938-.59 1.54-1.867 1.462-2.95a2923.07 2923.07 0 0 1-2.09-15.896c-.11-1.028-1.156-1.145-1.893-.658-7.833 4.03-16.453-2.772-24.287 1.258-.95.547-1.54 1.867-1.419 2.938l2.048 15.909c.036 1.095 1.26 1.023 1.892.658Z" class="&lt;Path&gt;"/>
        <path fill="#FEFEFE" d="M8.563 25.149c4.182-3.266 8.91-2.679 13.778-1.763 4.898.86 9.626 1.447 13.808-1.818a719.93 719.93 0 0 1-.915-7.248c-4.182 3.265-8.91 2.678-13.82 1.775-4.898-.86-9.626-1.448-13.809 1.818.315 2.398.635 4.81.958 7.236Z" class="&lt;Path&gt;" opacity=".2"/>
        <path fill="#FEFEFE" d="M8.484 24.71c4.182-3.265 8.922-2.635 13.82-1.775 4.899.861 9.627 1.448 13.821-1.775a474.086 474.086 0 0 1-.854-6.39c-4.195 3.223-8.923 2.636-13.778 1.763-4.898-.86-9.626-1.447-13.82 1.776l.811 6.402Z" class="&lt;Path&gt;"/>
        <path fill="#652672" d="M35.281 28.863c.938-.59 1.54-1.867 1.462-2.95a2942.978 2942.978 0 0 1-2.09-15.896c-.11-1.028-1.156-1.145-1.893-.658" class="&lt;Path&gt;" opacity=".2"/>
      </g>
    </g>
  </g>
</svg>
