<svg xmlns="http://www.w3.org/2000/svg" width="61" height="29" fill="none" viewBox="0 0 61 29">
  <g class="5-11-texto">
    <g class="texto">
      <path fill="#1C78BD" d="M45.2 13.4 5.1 17l-.6-4.7 40.4-3.6.3 4.7Z" class="&lt;Path&gt;"/>
      <g class="&lt;Group&gt;">
        <path fill="#FEFEFE" fill-rule="evenodd" d="M4.4 1.9c.8-.1 1.9-.1 1.7 2.8-.2 2.7-1.1 2.9-2.4 3h-.6L3.5 2l.9-.1Zm-.1.6L4 7c1.2-.1 1.3-1.3 1.3-2.2.1-.9.3-2.5-1-2.3Z" class="&lt;Compound Path&gt;" clip-rule="evenodd"/>
        <path fill="#FEFEFE" d="M7.2 7.4h-.7l.3-5.7.8-.1-.4 5.8Zm-.1-6-.3-.2.7-1.2.4.3-.8 1.1Z" class="&lt;Compound Path&gt;"/>
        <path fill="#FEFEFE" fill-rule="evenodd" d="m9.7 1.4.9 5.7h-.8L9.7 6l-1.2.1-.2 1.2h-.8l1.6-5.8.6-.1Zm-.2 3.2-.1-2.1h-.1l-.6 3 .9-.1-.1-.8Zm3.9-3.5c.9-.1 1.9-.2 1.8 2.8-.2 2.6-1.1 2.8-2.4 3h-.6l.4-5.8h.8Zm-.1.7L13 6.3c1.2-.1 1.3-1.3 1.3-2.3.1-.9.3-2.4-1-2.2Z" class="&lt;Compound Path&gt;" clip-rule="evenodd"/>
        <path fill="#FEFEFE" d="m18 .6-.1.7-1.3.1-.1 1.8 1.2-.1-.1.7-1.1.1-.1 2 1.2-.2v.7l-2 .2.3-5.8L18 .6Zm1.1-.1-.3 5.1 1.3-.1-.1.7-2 .2.4-5.8.7-.1Z" class="&lt;Compound Path&gt;"/>
      </g>
      <g class="&lt;Group&gt;">
        <g class="&lt;Group&gt;">
          <path fill="#FEFEFE" d="m10.7 17.7.1-2.4-1.8.2-.1 2.4-2.2.2.3-7.6 2.3-.2-.2 3 1.8-.1.2-3.1 2.2-.2-.3 7.6-2.3.2Zm3.4-.3.4-7.6 2.2-.2-.3 7.6-2.3.2Zm7.7-1.6-.6.1-1.3-2.2-.1 3.2-2.2.2.3-7.6 2.1-.2 1.7 2.8 2-3.1 2.1-.2-.4 7.5-2.2.3.1-3.2-1.5 2.4ZM33.6 8l-.3 7.6-2.1.2-2.2-3.1-.2 3.3-2.2.2.4-7.5 2-.2 2.2 3.1.2-3.3 2.2-.3Z" class="&lt;Compound Path&gt;"/>
          <path fill="#FEFEFE" fill-rule="evenodd" d="M38.6 7.5c1.133-.133 2.033.134 2.7.8.733.734 1.1 1.633 1.1 2.7a4.33 4.33 0 0 1-1.3 2.9c-.8.8-1.767 1.267-2.9 1.4-1.067.133-1.967-.167-2.7-.9-.733-.667-1.067-1.567-1-2.7.067-1.067.5-2 1.3-2.8.733-.867 1.667-1.333 2.8-1.4Zm-.3 5.7c.467-.067.867-.3 1.2-.7.333-.333.5-.767.5-1.3a1.344 1.344 0 0 0-.4-1.2c-.267-.333-.633-.467-1.1-.4a2.068 2.068 0 0 0-1.2.6c-.333.4-.5.834-.5 1.3 0 .534.133.933.4 1.2.333.333.7.5 1.1.5Z" class="&lt;Compound Path&gt;" clip-rule="evenodd"/>
        </g>
      </g>
      <path fill="#1C78BD" d="M60.8 22 .6 27.2 0 22.5l60.6-5.2.2 4.7Z" class="&lt;Path&gt;"/>
      <g class="&lt;Group&gt;">
        <g class="&lt;Group&gt;">
          <path fill="#FEFEFE" d="m9.5 20.3-.4 7.5-2 .2-2.3-3.1-.1 3.3-2.2.2.3-7.5 2-.2 2.3 3.1.1-3.3 2.3-.2Z" class="&lt;Compound Path&gt;"/>
          <path fill="#FEFEFE" fill-rule="evenodd" d="m15.2 19.7 2.4 7.3-2.4.3-.3-.8-2.4.2-.3.8-2.4.3 3.1-7.9 2.3-.2Zm-1.8 4.8h1l-.5-1.6-.5 1.6Z" class="&lt;Compound Path&gt;" clip-rule="evenodd"/>
          <path fill="#FEFEFE" d="M25.8 23.1c-.267 1-.767 1.833-1.5 2.5-.733.733-1.6 1.133-2.6 1.2-1.133.067-2.033-.233-2.7-.9-.733-.667-1.1-1.567-1.1-2.7.067-1.067.5-2.033 1.3-2.9a4.33 4.33 0 0 1 2.9-1.3c.933-.133 1.767.067 2.5.6.667.6 1.067 1.367 1.2 2.3l-2.4.2a1.28 1.28 0 0 0-.5-.8c-.333-.2-.633-.267-.9-.2-.467 0-.867.2-1.2.6-.333.4-.5.833-.5 1.3-.067.533.067.933.4 1.2.267.333.633.5 1.1.5.333-.067.633-.233.9-.5.267-.2.5-.5.7-.9l2.4-.2Zm.6 3.1.4-7.6 2.2-.2-.3 7.6-2.3.2Z" class="&lt;Compound Path&gt;"/>
          <path fill="#FEFEFE" fill-rule="evenodd" d="M34 17.8c1.133-.067 2.033.233 2.7.9.733.667 1.067 1.567 1 2.7 0 1.067-.4 2.033-1.2 2.9-.8.8-1.767 1.267-2.9 1.4-1.067.067-1.967-.233-2.7-.9-.733-.667-1.067-1.567-1-2.7.067-1.067.5-2.033 1.3-2.9.733-.8 1.667-1.267 2.8-1.4Zm-.3 5.8c.467-.067.867-.3 1.2-.7.333-.333.5-.767.5-1.3a1.343 1.343 0 0 0-.4-1.2c-.267-.333-.633-.467-1.1-.4-.467 0-.867.2-1.2.6-.333.4-.5.833-.5 1.3 0 .533.133.933.4 1.2.334.333.7.5 1.1.5Z" class="&lt;Compound Path&gt;" clip-rule="evenodd"/>
          <path fill="#FEFEFE" d="m45.6 16.9-.3 7.6-2.1.1-2.2-3-.1 3.3-2.3.2.4-7.6 2-.2 2.2 3.1.2-3.3 2.2-.2Z" class="&lt;Compound Path&gt;"/>
          <path fill="#FEFEFE" fill-rule="evenodd" d="m51.4 16.4 2.4 7.3-2.5.2-.2-.8-2.4.3-.3.8-2.4.2 3.1-7.8 2.3-.2Zm-1.9 4.8 1-.1-.4-1.6-.6 1.7Z" class="&lt;Compound Path&gt;" clip-rule="evenodd"/>
          <path fill="#FEFEFE" d="m57 15.8-.2 5.5L60 21l-.1 2.1-5.4.5.3-7.6 2.2-.2Z" class="&lt;Compound Path&gt;"/>
        </g>
      </g>
    </g>
  </g>
</svg>
