<svg xmlns="http://www.w3.org/2000/svg" width="71" height="22" fill="none" viewBox="0 0 71 22">
  <g class="5-18-texto">
    <g class="texto">
      <g class="&lt;Group&gt;">
        <path fill="#FEFEFE" fill-rule="evenodd" d="M5.9 3.7c.9-.2 2-.3 2.1 2.9.1 3-.9 3.3-2.4 3.5l-.5.1-.2-6.3 1-.2Zm0 .7L6 9.3c1.3-.2 1.2-1.5 1.2-2.6 0-.9.1-2.6-1.3-2.3Z" class="&lt;Compound Path&gt;" clip-rule="evenodd"/>
        <path fill="#FEFEFE" d="m8.9 2.9-.4-.2.6-1.4.6.3-.8 1.3Zm.6 6.6-.8.1-.1-6.4.8-.1.1 6.4Z" class="&lt;Compound Path&gt;"/>
        <path fill="#FEFEFE" fill-rule="evenodd" d="m11.7 2.6 1.5 6.2-.8.1-.3-1.2-1.2.3-.2 1.2-.8.2 1.2-6.6.6-.2Zm0 3.5-.3-2.2-.5 3.3 1-.2-.2-.9Zm4.1-4.2c1-.2 2.1-.3 2.1 2.9.1 3-.8 3.3-2.3 3.6l-.6.1-.1-6.4.9-.2Zm-.1.7.1 5c1.4-.2 1.3-1.6 1.3-2.6-.1-1 0-2.7-1.4-2.4Z" class="&lt;Compound Path&gt;" clip-rule="evenodd"/>
        <path fill="#FEFEFE" d="M20.7 1v.8l-1.4.2.1 2 1.2-.2v.7l-1.2.3v2.1l1.4-.2.1.7-2.3.4-.1-6.4 2.2-.4Zm2.8-.5.1 5.7 1.4-.3v.8l-2.2.4-.2-6.4.9-.2Z" class="&lt;Compound Path&gt;"/>
        <path fill="#FEFEFE" fill-rule="evenodd" d="m26.7 0 1.5 6.1-.9.2-.2-1.3-1.3.3-.2 1.3-.8.1L26 .1l.7-.1Zm.1 3.5-.4-2.2-.4 3.3 1-.2-.2-.9Z" class="&lt;Compound Path&gt;" clip-rule="evenodd"/>
      </g>
      <g class="&lt;Group&gt;">
        <g class="&lt;Group&gt;">
          <path fill="#28C5EF" d="M70.2 7.7.3 20.1 0 15.5 69.6 3.3l.6 4.4Z" class="&lt;Path&gt;"/>
        </g>
        <g class="&lt;Group&gt;">
          <g class="&lt;Group&gt;">
            <path fill="#FEFEFE" d="M3.7 15.7v.7l2.8-.5v1.8l-2.7.5v.6l3-.5.1 2-5.2.9-.2-7.2 5.1-.9.1 2.1-3 .5Zm5.2 1.6c.533.467 1.1.634 1.7.5.4-.066.6-.2.6-.4 0-.133-.133-.233-.4-.3a4.3 4.3 0 0 1-.8-.1 5.307 5.307 0 0 1-1.1-.3 1.82 1.82 0 0 1-.8-.6c-.267-.266-.4-.633-.4-1.1-.066-.4.1-.866.5-1.4.3-.6 1.1-1.1 2-1.2.8-.2 1.5 0 1.9.2.5.2.8.5 1 .7l.1.1-1.4 1.4c-.267-.266-.5-.433-.7-.5h-.8c-.3.1-.5.3-.5.4 0 .2.4.4.9.4.267.067.567.134.9.2.267.067.534.167.8.3.267.134.467.334.6.6.2.2.3.5.3.9s-.2 1-.5 1.5c-.4.6-1.2 1.1-2.2 1.2-.8.134-1.467.067-2-.2-.533-.266-.933-.6-1.2-1l1.5-1.3Zm12.5-2.5c-.133.933-.533 1.767-1.2 2.5a4.723 4.723 0 0 1-2.4 1.3c-1 .133-1.867-.1-2.6-.7-.733-.6-1.133-1.4-1.2-2.4 0-1.067.333-2.033 1-2.9.667-.8 1.533-1.3 2.6-1.5.933-.133 1.733.033 2.4.5.733.467 1.2 1.133 1.4 2l-2.3.4c-.133-.333-.333-.567-.6-.7-.267-.2-.533-.267-.8-.2-.466.067-.833.3-1.1.7-.267.4-.4.833-.4 1.3 0 .467.167.833.5 1.1.267.267.633.367 1.1.3.267 0 .533-.133.8-.4s.467-.567.6-.9l2.2-.4Z" class="&lt;Compound Path&gt;"/>
            <path fill="#FEFEFE" fill-rule="evenodd" d="m26.1 9.7 2.8 6.8-2.3.4-.2-.7-2.3.4-.2.8-2.3.4 2.4-7.7 2.1-.4Zm-1.4 4.7.9-.1-.5-1.5-.4 1.6Zm11.2.9-2.6.4-1.5-1.5h-.2l.1 1.8-2.1.4-.3-7.2 2.9-.5c.1 0 .2-.1.6-.1.4 0 .7.1 1.2.3.4.2.7.5.9 1 .133.267.2.6.2 1 .067 1-.3 1.8-1.1 2.4l1.9 2Zm-4.4-4.4.1 1.3.8-.1c.4-.067.6-.333.6-.8-.1-.4-.3-.6-.6-.6l-.9.2Zm9.2-3.7 2.8 6.8-2.3.4-.3-.7-2.2.4-.3.7-2.2.4 2.3-7.6 2.2-.4Zm-1.4 4.7 1-.2-.6-1.4-.4 1.6Zm4.6-5.3 2.9-.5h.6c.3 0 .7.1 1.1.3.4.2.8.4 1 1 .133.267.2.6.2 1 0 .7-.2 1.3-.5 1.8-.133.2-.3.367-.5.5-.6.5-1.3.7-1.6.8H47l-.8.2.1 1.8-2.2.3-.2-7.2Zm3 1.6-.8.1.1 1.4.8-.2c.333-.067.5-.3.5-.7 0-.5-.2-.7-.6-.6Z" class="&lt;Compound Path&gt;" clip-rule="evenodd"/>
            <path fill="#FEFEFE" d="M52.4 7.2v.7l2.8-.5.1 1.9-2.8.4v.6l3-.5.1 2.1-5.1.8-.3-7.2 5.1-.9.1 2.1-3 .5Zm6-3.1.2 5.2 3-.5.1 2-5.1.9-.3-7.2 2.1-.4Z" class="&lt;Compound Path&gt;"/>
            <path fill="#FEFEFE" fill-rule="evenodd" d="m66.6 2.7 2.9 6.7-2.3.4-.3-.7-2.3.4-.2.8-2.3.4L64.5 3l2.1-.3Zm-1.4 4.8.9-.2-.5-1.4-.4 1.6Z" class="&lt;Compound Path&gt;" clip-rule="evenodd"/>
          </g>
        </g>
      </g>
    </g>
  </g>
</svg>
