<svg xmlns="http://www.w3.org/2000/svg" width="72" height="86" fill="none" viewBox="0 0 72 86">
  <g class="5-25-ilus">
    <g class="ilustracion">
      <g class="cuerpo">
        <g class="&lt;Group&gt;">
          <g class="&lt;Group&gt;">
            <g class="&lt;Group&gt;">
              <g class="&lt;Group&gt;">
                <path fill="#AB795A" stroke="#050505" stroke-linecap="round" stroke-linejoin="round" stroke-width=".5" d="M14.94 52.388c-.4-.6-1.8-2.9-2.5-3.6-.9-.7-1.9-.4-3 .4-1.2.9-1.6 1.9-1 3.4.3.6 1.3 1.8 1.8 2.5.6.7 2.1 2.3 4 1 1.9-1.3 1.2-3.1.7-3.7Z" class="&lt;Path&gt;"/>
                <path fill="#050505" d="M10.24 55.088c.6.7 2.1 2.3 4 1 1.9-1.3 1-3.3.5-4-1.5.4-2.8 1.6-4.5 3Z" class="&lt;Path&gt;" opacity=".2" style="mix-blend-mode:multiply"/>
              </g>
            </g>
            <g class="&lt;Group&gt;">
              <g class="&lt;Path&gt;">
                <path fill="#AB795A" d="m14.34 51.888.1-1.3c-.1-.5-.4-1-.9-1s-.7.3-.8.5c-.2.4-.2.7-.2.7"/>
                <path stroke="#050505" stroke-linecap="round" stroke-linejoin="round" stroke-width=".5" d="m14.34 51.888.1-1.3c-.1-.5-.4-1-.9-1s-.7.3-.8.5c-.2.4-.2.7-.2.7"/>
              </g>
            </g>
            <path fill="#050505" d="M12.54 50.088s-.5.2-.5.7c0 .5 0 .8-.2 1-.3.2-1.3 1.1-1.7.9-.4-.1-1.7-1.4-1.1-2.2.6-.8 2.2-2.1 3.1-1.4.8.6.4 1 .4 1Z" class="&lt;Path&gt;" opacity=".2" style="mix-blend-mode:multiply"/>
          </g>
        </g>
        <g class="&lt;Group&gt;">
          <path fill="#F5F6F7" stroke="#050505" stroke-linecap="round" stroke-linejoin="round" stroke-width=".5" d="M9.34 56.788c1 1.3 1.7 2.3 2.9 3.8 2 2.6 4 3.8 4 3.8 1.8 1.2 3.9.9 5-.6l.3-.5c1-1.3 1.1-3.3-.9-4.8 0 0-1.9-1.5-3.3-3.4l-2.1-2.8-5.9 4.5Z" class="&lt;Path&gt;"/>
          <path fill="#0A0C0F" d="M9.34 56.788c1 1.3 1.7 2.3 2.9 3.8 2 2.6 4 3.8 4 3.8 1.8 1.2 3.9.9 5-.6l.3-.5c.133-.134.266-.3.4-.5-.4.1-.6.1-.6.1s-2.3 1.2-5.1-1.4c-1.9-1.8-3.8-4.6-4.9-6.2l-2 1.5Z" class="&lt;Path&gt;" opacity=".3"/>
        </g>
        <g class="&lt;Group&gt;">
          <path fill="#4E69B1" stroke="#050505" stroke-linecap="round" stroke-linejoin="round" stroke-width=".5" d="m16.44 67.088-7.9 3.5s-.6 5 2.5 8.3c9.2-2.8 16.8-4.9 16.8-4.9s1.1-1.6-3.2-4.2c-3.7-2.4-8.2-2.7-8.2-2.7Z" class="&lt;Path&gt;"/>
          <path fill="#DFDFDF" d="M24.74 69.788c-4.1 1.5-13.5 4.8-15.7 5.6.4 1.2 1 2.4 2 3.5 9.2-2.8 16.8-4.9 16.8-4.9s1.1-1.6-3.1-4.2Z" class="&lt;Path&gt;" style="mix-blend-mode:multiply"/>
          <g class="&lt;Group&gt;">
            <path fill="#050505" stroke="#050505" stroke-linecap="round" stroke-linejoin="round" stroke-width=".4" d="M8.94 70.588s-1.9.7-3.9-1.7l3.7 10.7s2.2-.6 2.6-.8c.1 0 .5-1.9-1.1-5.8-.8-1.9-1.3-2.4-1.3-2.4Z" class="&lt;Path&gt;"/>
            <path fill="#766155" stroke="#050505" stroke-linecap="round" stroke-linejoin="round" stroke-width=".4" d="M5.04 68.888s1.1 1.6 1.8 3.3c.6 1.7 1.9 5.5 2 6.3.2.8.1 1-.1 1.1-.2.1-.7-.3-1.3-1.5-.8-1.6-1.8-4.4-2.1-5.7-.5-2.2-.3-3.5-.3-3.5Z" class="&lt;Path&gt;"/>
          </g>
        </g>
        <g class="&lt;Group&gt;">
          <path fill="#4E69B1" stroke="#050505" stroke-linecap="round" stroke-linejoin="round" stroke-width=".5" d="m22.34 72.688-7.9 3.6s-.5 5 2.6 8.3c9.2-2.8 16.7-4.9 16.7-4.9s1.2-1.6-3.1-4.2c-3.7-2.4-8.3-2.8-8.3-2.8Z" class="&lt;Path&gt;"/>
          <path fill="#DFDFDF" d="M30.74 75.488c-4.1 1.5-13.6 4.8-15.7 5.6.3 1.2 1 2.4 2 3.5 9.2-2.8 16.7-4.9 16.7-4.9s1.1-1.6-3-4.2Z" class="&lt;Path&gt;" style="mix-blend-mode:multiply"/>
          <g class="&lt;Group&gt;">
            <path fill="#050505" stroke="#050505" stroke-linecap="round" stroke-linejoin="round" stroke-width=".4" d="M14.84 76.288s-1.8.7-3.9-1.7l3.8 10.7s2.1-.6 2.5-.8c.2-.1.5-2-1-5.8-.8-1.9-1.4-2.4-1.4-2.4Z" class="&lt;Path&gt;"/>
            <path fill="#766155" stroke="#050505" stroke-linecap="round" stroke-linejoin="round" stroke-width=".4" d="M10.94 74.588s1.2 1.6 1.8 3.2c.7 1.7 2 5.6 2.1 6.4.1.8.1 1-.1 1.1-.2.1-.7-.3-1.4-1.5-.8-1.6-1.8-4.4-2.1-5.7-.5-2.2-.3-3.5-.3-3.5Z" class="&lt;Path&gt;"/>
          </g>
        </g>
        <g class="&lt;Group&gt;">
          <path fill="#C02F2D" stroke="#050505" stroke-linecap="round" stroke-linejoin="round" stroke-width=".5" d="M30.34 65.388c-1.6 4.4.7 9.3 5.1 10.8 4.5 1.6 9.3-.7 10.9-5.1 1.6-4.4-.7-9.3-5.2-10.9-4.4-1.5-9.2.8-10.8 5.2Z" class="&lt;Path&gt;"/>
          <g class="&lt;Group&gt;">
            <path fill="#F5F6F7" stroke="#050505" stroke-linecap="round" stroke-linejoin="round" stroke-width=".5" d="M30.84 58.287c-4.9-1.3-6.7-1.2-8-1.3-1.6-.1-3.8.8-4.2 2.4-.4 1.5-.8 2.5-2.6 5.7-1.6 3-3.5 4.7-3.6 5.3.1 2 6.5 5.9 8.6 6.8 5.7 2.3 9 1.7 13.1 3.1 3.1 1.1 3.7.8 4.1.5 1.3-.8 2.3-17.4 2.3-17.4s-.3-.6-1.3-1.5c-1.7-1.4-6.4-3.1-8.4-3.6Z" class="&lt;Path&gt;"/>
            <g class="&lt;Group&gt;">
              <path stroke="#050505" stroke-linecap="round" stroke-linejoin="round" stroke-width=".4" d="M29.94 72.988c-.5 2.1.5 3.7 2.2 4.3 1.6.6 3.2 0 3.8-2.2l.5-2.3-6-2.2-.5 2.4Z" class="&lt;Path&gt;"/>
              <g class="&lt;Path&gt;">
                <path fill="#EE3D3B" d="m30.04 71.788 6.2 2.2Z"/>
                <path stroke="#050505" stroke-linejoin="round" stroke-width=".4" d="m30.04 71.788 6.2 2.2"/>
              </g>
            </g>
            <g class="&lt;Group&gt;">
              <path fill="#050505" d="M25.34 69.188c-.1.4-.4.6-.8.5-.3-.2-.5-.5-.4-.9 0-.4.4-.5.7-.4.4.1.6.5.5.8Z" class="&lt;Path&gt;"/>
            </g>
            <g class="&lt;Group&gt;">
              <path fill="#050505" d="M24.14 71.888c-.1.3-.4.5-.8.4-.3-.1-.5-.5-.4-.9 0-.3.4-.5.7-.4.4.1.6.5.5.9Z" class="&lt;Path&gt;"/>
            </g>
            <g class="&lt;Group&gt;">
              <path fill="#050505" d="M22.74 74.388c-.1.4-.5.5-.8.4-.3-.1-.5-.5-.5-.8.1-.4.5-.6.8-.5.4.2.6.5.5.9Z" class="&lt;Path&gt;"/>
            </g>
            <g class="&lt;Path&gt;">
              <path fill="#FEFEFE" d="M24.44 66.388s-.4 1.7-2.1 4.7c-1.7 3-2.4 5.3-2.4 5.3"/>
              <path stroke="#050505" stroke-linecap="round" stroke-linejoin="round" stroke-width=".4" d="M24.44 66.388s-.4 1.7-2.1 4.7c-1.7 3-2.4 5.3-2.4 5.3"/>
            </g>
            <path fill="#9FC8EA" d="m24.84 66.088-.5-.3.5-5.1s.5-3.3 5.5-1.8c4.5 1.3.9 4.1-1.4 5.1-1.6.6-4.1 2.1-4.1 2.1Z" class="&lt;Path&gt;"/>
            <g class="Clip path group">
              <mask id="a" width="10" height="11" x="12" y="62" class="a" maskUnits="userSpaceOnUse" style="mask-type:luminance">
                <g class="cp259">
                  <path fill="#fff" d="m17.43 62.938-4.75 7.34 4.66 2.34 3.95-6.62-3.86-3.06Z" class="Vector"/>
                </g>
              </mask>
              <g class="&lt;Clip Group&gt;" mask="url(#a)">
                <g class="&lt;Group&gt;">
                  <path stroke="#050505" stroke-linecap="round" stroke-linejoin="round" stroke-width=".4" d="M11.14 64.688c-1 1.9-.2 3.6 1.3 4.6 1.5.9 3.2.7 4.2-1.2l1-2.1-5.5-3.5-1 2.2Z" class="&lt;Path&gt;"/>
                  <g class="&lt;Path&gt;">
                    <path fill="#EE3D3B" d="m11.54 63.487 5.7 3.5Z"/>
                    <path stroke="#050505" stroke-linejoin="round" stroke-width=".4" d="m11.54 63.487 5.7 3.5"/>
                  </g>
                </g>
              </g>
            </g>
            <path fill="#DFDFDF" d="M37.14 73.787s-.2 2.1-.5 3.5c-.4 1.5-.8 3.4-.8 3.4s2.1 1 2.7-.4c.6-1.4 1.1-6.6 1.1-6.6s-1.8.5-2.5.1Zm-13.1-5.699c-.3.7.3 0 .7-.3.4-.3.6-.7.6-.7s3.3-.1 4.4-.1l-.2-.7s2.2.3 2.6.3c.4 0 1.2-5.6 1.1-6.7 0 0-1.1 2.4-2.6 3.3-1.6.9-4.5 1.9-5.2 2.4-.6.6-1 1.3-1.4 2.5Z" class="&lt;Path&gt;" style="mix-blend-mode:multiply"/>
            <g class="&lt;Path&gt;">
              <path fill="#F5F6F7" d="M33.34 60.388c-.6 1.7-2 5.5-2 5.5l-3.9-.9.5 1.2-3.5.3.2-.6s2.5-1.8 3.4-2.1c.9-.3 3.9-1.8 4.6-4.1"/>
              <path stroke="#050505" stroke-linecap="round" stroke-linejoin="round" stroke-width=".4" d="M33.34 60.388c-.6 1.7-2 5.5-2 5.5l-3.9-.9.5 1.2-3.5.3.2-.6s2.5-1.8 3.4-2.1c.9-.3 3.9-1.8 4.6-4.1"/>
            </g>
            <path fill="#DFDFDF" d="M25.44 58.388s-3.5 1.8-5 4.2l1.6.8s-.8.1-.8.2c0 .2 1.7 2.2 2 2.6.3.4-.4 1.4-.1 1.5.4.1.4-1.4.8-1.3.3.1.1-1.6.1-1.6s-.8-3.1.1-4.1c1-1.1 1.3-2.3 1.3-2.3Z" class="&lt;Path&gt;" style="mix-blend-mode:multiply"/>
            <g class="&lt;Path&gt;">
              <path fill="#F5F6F7" d="M25.84 57.888c-1.9 1.2-4.4 4.4-4.4 4.4l1.9 1-.7.3 1.7 3 .3-.9s-.2-2.4-.2-3.2c0-.8.9-3.1 2.1-4.2"/>
              <path stroke="#050505" stroke-linecap="round" stroke-linejoin="round" stroke-width=".4" d="M25.84 57.888c-1.9 1.2-4.4 4.4-4.4 4.4l1.9 1-.7.3 1.7 3 .3-.9s-.2-2.4-.2-3.2c0-.8.9-3.1 2.1-4.2"/>
            </g>
            <path fill="#DFDFDF" d="M24.04 67.188s-1 1.7-1.7 2.8c-.8 1-1.2 2.2-1.8 3.6-.6 1.4-1.2 2.7-1.2 2.7l.6-.1s1.5-3.2 2.5-5c.9-1.9 1.6-4 1.6-4Zm-10.4 2.7s2.2.8 3.5-1.5c1.3-2.3.8-2.4.8-2.4s-.3.3-.8 1.4c-.6 1-1 2-3.5 2.5Zm16.7.7-.2 1.1 4.7 2s-3.6-1.1-4-1.1c-.3-.1-.7 1.4-.7 2.4 0 0 .7 2.1 2.1 2.5 1.4.5 3.2-.3 3.2-.3s-1.2 1.4-3.4.9c-2.1-.5-3.4-2.6-3-4.9 0 0 .1.6.2.9.2.4.5-3.4 1.1-3.5Z" class="&lt;Path&gt;" style="mix-blend-mode:multiply"/>
          </g>
          <path fill="#EE3D3B" stroke="#050505" stroke-linecap="round" stroke-linejoin="round" stroke-width=".5" d="M36.84 63.488c-5 2.5-2.6 9.6 1.2 9.8 7.3.5 5.2-7.2 5.2-7.2s-.8-4.3-6.4-2.6Zm-18.2-4.1c-.3 1.2-.7 2.1-1.7 4 0 0-1.2 2.3 0 .1 1.3-2.2 8-6.2 8-6.2-.2-.2-.9.1-1.2-.3h-.9c-1.6-.1-3.8.8-4.2 2.4Z" class="&lt;Path&gt;"/>
          <path fill="#DFDFDF" d="M39.84 63.388s-2.6-.7-4.3 1.4c0 0 1.4-.3 1.8 1.4.4 1.8-.6 3.4.3 4.8.9 1.4.2 2.5-.3 2.3 0 0 .1.7 1.3.5 1.1-.2 1.6-.2 1.6-.2l1.8-1 1.4-2-.2-5.7-3-1.5h-.4Zm-15.3-5.8s-5.7 5.6-6.5 6.3c-.9.6-1 1.6-1 1.6l-.8-.6.9-1.8 7.4-5.5Z" class="&lt;Path&gt;" style="mix-blend-mode:multiply"/>
          <g class="&lt;Group&gt;">
            <path fill="#AB795A" stroke="#050505" stroke-width=".5" d="M54.54 49.788c-3.5 10-11.7 19.1-25.5 14.5-16.2-5.3-15-14.2-11.5-24.2 3.6-9.9 14.6-15.1 24.7-11.6 10 3.6 15.9 11.4 12.3 21.3Z" class="&lt;Path&gt;"/>
            <g class="&lt;Group&gt;">
              <path fill="#DFDFDF" d="M54.54 49.788c3.6-9.9-2.3-17.7-12.3-21.3-4.8-1.7-9.8-1.4-14.1.5-.2.3-.2.5-.2.5s4.3 12.4 5 14.6c.7 2.1 1.7 5.5 3.4 7.8 1.6 2.3 2.6 3 2 5.3 0 0-2.7 7.7-12 5.5 0 0 .1.3.5.8.666.333 1.4.6 2.2.8 13.8 4.6 22-4.5 25.5-14.5Z" class="&lt;Path&gt;" style="mix-blend-mode:multiply"/>
            </g>
          </g>
          <g class="&lt;Group&gt;">
            <path fill="#DFDFDF" d="M24.84 51.088s-1.4 1.3-2.7.8c-1.3-.4-1-2.2-1-2.2s.4 1.1 1.1 1.3c.6.2 2.6.1 2.6.1Z" class="&lt;Path&gt;" style="mix-blend-mode:multiply"/>
            <path stroke="#050505" stroke-linecap="round" stroke-linejoin="round" stroke-width=".5" d="m21.04 49.788.6.8c.3.3.8.5 1.2.5h2" class="&lt;Path&gt;"/>
          </g>
          <g class="&lt;Group&gt;">
            <path stroke="#050505" stroke-linecap="round" stroke-linejoin="round" stroke-width=".5" d="M33.14 56.388s-2.7.9-4.6.6" class="&lt;Path&gt;"/>
            <path stroke="#050505" stroke-linecap="round" stroke-linejoin="round" stroke-width=".7" d="M31.24 58.088c-.5.1-1.1.2-1.8.2" class="&lt;Path&gt;" opacity=".2"/>
          </g>
          <path stroke="#050505" stroke-linecap="round" stroke-width=".5" d="M32.84 47.188s1.1-.1 1.6.5c.7.7.9 1.7.9 1.7m-15.2-6.7s-.7-.7-1.5-.6c-1 0-1.7.7-1.7.7" class="&lt;Path&gt;"/>
          <path fill="#050505" d="M17.64 45.088c-.3.8-.1 1.5.4 1.7.5.2 1.1-.3 1.4-1 .3-.8.1-1.6-.4-1.8-.5-.2-1.2.3-1.4 1.1Z" class="&lt;Path&gt;"/>
          <path fill="#FEFEFE" d="M19.14 44.788c0 .1-.1.2-.2.2-.1-.1-.2-.2-.1-.4 0-.1.1-.2.2-.2.2.1.2.2.1.4Z" class="&lt;Path&gt;"/>
          <path fill="#FEFEFE" d="M19.14 44.788c0 .1-.1.2-.2.2-.1-.1-.2-.2-.1-.4 0-.1.1-.2.2-.2.2.1.2.2.1.4Z" class="&lt;Path&gt;"/>
          <path fill="#050505" d="M33.64 50.788c-.3.8-1.1 1.4-1.6 1.2-.6-.2-.8-1.1-.5-2 .3-.9 1-1.4 1.6-1.2.6.2.8 1.1.5 2Z" class="&lt;Path&gt;"/>
          <path fill="#FEFEFE" d="M33.54 49.688c-.1.2-.2.3-.4.2-.1 0-.1-.2-.1-.3.1-.2.2-.3.4-.3.1.1.1.3.1.4Z" class="&lt;Path&gt;"/>
          <g class="&lt;Group&gt;">
            <path fill="#050505" d="M51.34 31.388s-2-4.2-4.9-6c-2.8-1.8-3.1-1.4-3.1-1.4s4.2 1.8 5.6 6.8" class="&lt;Path&gt;"/>
            <path fill="#050505" d="M55.14 35.088s-1.8-2.1.7-3.3c0 0-1.8-.6-2.3.3 0-1.3-.4-3.7-3.7-5.8 0 0 1.4 2.9-.8 2.7" class="&lt;Path&gt;"/>
          </g>
          <g class="&lt;Group&gt;">
            <path fill="#221E1F" d="M54.14 51.888s3.4-.7.1 4.4c-1.7 2.6-5.9 5.1-5.9 5.1l5.8-9.5Z" class="&lt;Path&gt;"/>
            <path fill="#050505" d="M23.84 29.488s-6.8 2.2-10.1 8.7c-.1.3 1.9-2 5.1-3.6m33.2-3.3s9.9 7.3 5.3 19.4c0 0 .1-8.4-5.3-19.4Z" class="&lt;Path&gt;"/>
            <path fill="#050505" d="M46.14 39.988c-.4-.2-1.5 11.6 3.6 13.7 2.4-3.7 1.1-8.3 1.1-8.3 1.3 4 .5 7.6-.2 8.7.9.4 3.3 1.3 4.9 1.3 0 0 9.3-21.1-14.4-28.9 0 0-14-5.8-26.3 11.8 0 0 0 .8 1.2 2.5 1 1.4 5.1-7.3 6.3-6.4" class="&lt;Path&gt;"/>
            <path fill="#050505" d="M38.44 25.788c-2.3-.5-11.5-2.5-22 6.8 0 0 24.4-6.3 22-6.8Z" class="&lt;Path&gt;"/>
            <path fill="#050505" d="M24.74 27.288s18.4-9.6 29.6 6.4c11.1 16.1-29.6-6.4-29.6-6.4Zm31.2 26.9s-1.1 4-4.1 6.5c-2.9 2.4-3.5 2.4-3.5 2.4s1.6-1.3 3.3-6.3m-5.9 7.2s-1.1.4-2-.2c-.4-.2 1.3-1.2 1.3-1.2l.7 1.4Z" class="&lt;Path&gt;"/>
            <path fill="#050505" d="M35.04 26.788s-9.7-4.2-19.8 12.1c0 0-.2 0 .5 1.4.6 1.1.6 1.2 1.5 1.9.7-2.2 1.8-3.1 6-5.5 0 0-4.5 2.7-4.8 6.4 8.7 6.3 15.9 1.4 15.9 1.4-.3-.1-1.1 5.6 4.4 6.3 2-3.4 2.2-7.9 2.2-7.9.5 3.4.1 5.7-.9 8.2.6.4 2.5.4 3.7.3 0 0 8.1-19.3-8.7-24.6Z" class="&lt;Path&gt;"/>
            <path fill="#050505" d="M43.74 51.388s5.2 2.2.6 11.9l8.7-4.8s7.2-9.4 2.7-19.3-6.4-4.3-6.4-4.3l-4.4.9-1.2 15.6Z" class="&lt;Path&gt;"/>
            <path fill="#050505" d="M40.04 51.088s5 4.2 4.2 11.6c-.1 1.1 1.5 1.3 1.5 1.3s4.4-2 5.9-5.1c1.5-3.1-4.9-9.9-4.9-9.9l-6.7 2.1Z" class="&lt;Path&gt;"/>
          </g>
        </g>
        <g class="&lt;Group&gt;">
          <g class="&lt;Group&gt;">
            <g class="&lt;Group&gt;">
              <g class="&lt;Group&gt;">
                <path fill="#AB795A" stroke="#050505" stroke-linecap="round" stroke-linejoin="round" stroke-width=".5" d="M48.34 64.388c.8-.2 3.3-1.1 4.2-1.2 1.2 0 1.8.9 2.1 2.1.4 1.5 0 2.6-1.3 3.3-.6.3-2.2.6-3 .8-.9.2-3.1.5-3.8-1.7-.6-2.3 1.1-3.1 1.8-3.3Z" class="&lt;Path&gt;"/>
                <path fill="#050505" d="M50.34 69.388c-.9.2-3.1.5-3.8-1.7-.6-2.3 1.4-3.2 2.2-3.4.9 1.2 1.2 2.9 1.6 5.1Z" class="&lt;Path&gt;" opacity=".2" style="mix-blend-mode:multiply"/>
              </g>
            </g>
            <g class="&lt;Group&gt;">
              <g class="&lt;Path&gt;">
                <path fill="#AB795A" d="m49.24 64.388.7-1.1c.3-.4.9-.5 1.3-.2s.4.7.4.9c-.2.4-.4.7-.4.7"/>
                <path stroke="#050505" stroke-linecap="round" stroke-linejoin="round" stroke-width=".5" d="m49.24 64.388.7-1.1c.3-.4.9-.5 1.3-.2s.4.7.4.9c-.2.4-.4.7-.4.7"/>
              </g>
            </g>
            <path fill="#050505" d="M51.74 63.988s.2.6-.1.9c-.2.4-.5.7-.4 1 0 .3.3 1.6.7 1.8.3.1 2.2-.1 2.3-1.1 0-1-.5-3-1.5-3-1.1-.1-1 .4-1 .4Z" class="&lt;Path&gt;" opacity=".2" style="mix-blend-mode:multiply"/>
          </g>
        </g>
        <g class="&lt;Group&gt;">
          <path fill="#F5F6F7" stroke="#050505" stroke-linecap="round" stroke-linejoin="round" stroke-width=".5" d="M49.94 70.988c-1.6.4-2.8.7-4.7 1.1-3.2.8-5.5.4-5.5.4-2.1-.2-3.6-1.7-3.5-3.6v-.6c.1-1.7 1.3-3.3 3.9-3.1 0 0 2.4 0 4.6-.5 1.5-.4 3.4-.9 3.4-.9l1.8 7.2Z" class="&lt;Path&gt;"/>
          <path fill="#0A0C0F" d="M49.94 70.987c-1.6.4-2.8.7-4.7 1.1-3.2.8-5.5.4-5.5.4-2.1-.2-3.6-1.7-3.5-3.6v-.6c.066-.2.1-.4.1-.6l.4.4s1 2.5 4.9 2.2c2.5-.2 5.8-1.1 7.7-1.7l.6 2.4Z" class="&lt;Path&gt;" opacity=".3"/>
        </g>
      </g>
      <g class="sombrero">
        <g class="&lt;Group&gt;">
          <path fill="#070505" fill-rule="evenodd" d="M50.24 41.688h.1c.4.1.6.5.5.9 0 .2-.034.367-.1.5v.2a.887.887 0 0 1-.1.4v.3c-.3 2.3-1.3 4.4-2.2 6.3a36.6 36.6 0 0 1-3.4 5.8l-.2.2c-.3.4-.7 1-.9 1.4-.2.3-.6.5-.9.5l-.6-.1c-.3-.1-.5-.3-.6-.5-.1-.2 0-.5.1-.7 2.3-2.8 4.2-5.7 5.4-8.8.266-.533.7-1.633 1.3-3.3l.1-.3v-.3c.066-.134.1-.3.1-.5.066-.467.133-.9.2-1.3.1-.5.4-.8.9-.8h.2l.1.1Zm-.2.4h-.1c-.3 0-.4 0-.4.3a22.26 22.26 0 0 0-.3 1.9c0 .1-.1.3-.2.6-.3.9-.9 2.6-1.2 3.4-1.4 3.2-3.2 6.2-5.5 8.9-.1.2 0 .4.1.4l.7.1c.1 0 .3-.1.3-.2.4-.6.9-1.3 1.2-1.7 1.266-1.8 2.4-3.7 3.4-5.7.9-2 1.8-4 2.1-6.2.066-.267.1-.5.1-.7.066-.2.133-.433.2-.7 0-.2-.1-.3-.2-.4h-.2Z" class="&lt;Compound Path&gt;" clip-rule="evenodd"/>
          <path fill="#E0CC2E" d="M50.44 42.488c0-.2-.1-.3-.2-.4h-.3c-.3 0-.4 0-.4.3a22.26 22.26 0 0 0-.3 1.9c0 .1-.1.3-.2.6-.3.9-.9 2.6-1.2 3.4-1.4 3.2-3.2 6.2-5.5 8.9-.1.2 0 .4.1.4l.7.1c.1 0 .3-.1.3-.2.4-.6.9-1.3 1.2-1.7 1.266-1.8 2.4-3.7 3.4-5.7.9-2 1.8-4 2.1-6.2.066-.267.1-.5.1-.7.066-.2.133-.433.2-.7Z" class="&lt;Path&gt;"/>
          <path fill="#A19535" d="M54.04 13.388c-.2.1-.4.2-.6.4-.467.333-.834.233-1.1-.3.6.1 1.2-.1 1.7-.5.6-.6 1.3-1.1 1.9-1.6.9-.7 1.7-1.4 2.3-2.3.7-.9.6-1.7-.2-2.5-.5-.4-1-.3-1.8.4a1.568 1.568 0 0 0-.4.3c-1.5 1.4-2.5 3.2-3.5 5-.2.4-.1.8 0 1.1-.7-.1-.9-.5-.7-1.1.1-.7.3-1.3.7-1.9l1.8-3.2a1.52 1.52 0 0 1 .3-.4c1.3-1.9 3.5-1.7 4.5.4.3.6.2 1.2-.2 1.8-.3.7-.9 1.2-1.4 1.6-.734.666-1.467 1.3-2.2 1.9-.2.2-.6.4-.5.8l-.2.2c-.1-.3-.1-.3-.4-.1Z" class="&lt;Path&gt;"/>
          <g class="&lt;Group&gt;">
            <path fill="#070505" d="M49.54 42.188h.1l-1.6-1.3c.2.6.8 1.1 1.5 1.3Z" class="&lt;Path&gt;"/>
          </g>
          <g class="&lt;Group&gt;">
            <path fill="#070505" fill-rule="evenodd" d="M51.34 13.488c.9.2 1.5 1.1 1.3 2.1-.3 1.3-1.6 2.2-2.7 2-1-.2-1.5-1.1-1.3-2.1.3-1.3 1.6-2.2 2.7-2Zm-7.2.9c1-1.8 2.3-2.1 4.3-1.2.3.1.7.2.9.4-.8.9-1.3 1.8-1 3 0 .1.1.3 0 .4-.1.1-.2 0-.2-.1l-1.2-.8c-.3-.1-1.9-1-2.6-1.1-.4-.1-.5-.2-.2-.6Zm-3.3 5.8c.9-1.3 1.7-2.7 2.5-4 .6-.9.8-.9 1.8-.4.2.1 3.1 1.7 4.3 2.6 3 2.1 5.6 4.7 7.9 7.6.333.333.666.7 1 1.1 1.2 1.4 1.2 1.4-.6 1.8-.3 0-2.4.4-3.2.5a13.53 13.53 0 0 1-4.9-.5c-.5-.1-1.8-.7-1.9-.7-.1-.1-.3-.1-.4-.2-.2-.1-.6-.1-.6-.4 0-.3.3-.4.6-.4l.2-.2.1-.1c-.3-.8.3-1.1.6-1.6.3-.3.9-.7-.1-.9-.3 0-.2-.2-.1-.4l.5-.5c.4-.7.4-.7-.3-.9-.4-.1-.3-.2-.2-.5.1-.4.3-.9.4-1.3.1-.4 0-.6-.4-.5-.6.2-1 .6-1.5.9-.2 0-.2-.1-.2-.3 0-.6-.3-.4-.6-.2-.4.4-.6.9-1.3.5-.3-.1-.6.5-.8.8-.2.2-.3.5-.7.5-.3-.1-.5.3-.6.6-.4.7-.5.8-1.1.1a.654.654 0 0 0-.3-.3c-.8-.9-.9-1.7-.1-2.7Zm-1.9 1.7.1-.1c.2-.3.5-.1.7.1l.8 1.2a60.759 60.759 0 0 0 2.1 2 .654.654 0 0 0 .3-.3l-.2-.2c-.1-.6-.1-.6 0-1.2.3 0 .2.4.5.4.3-.6.4-1.3 1-1.8 0 .066.033.1.1.1 0 .3-.3.7 0 .8.4.1.5-.4.6-.6.3-.3.5-.7.9-.9.1.5-.1.9-.3 1.3 0 .1-.2.3 0 .4.2.1.2-.1.3-.2.5-.6.9-1.3 1.6-1.7.1-.1.3-.3.5-.2-.1.9-.7 1.4-1.2 1.9l-.4.4c-.1.1-.2.2-.1.4.1.1.2 0 .4-.1.4-.3.9-.5 1.5-.5-.2.7-.7.9-1.1 1.3-.1.1-.5.2-.4.5.1.2.4.1.6.1.3 0 .5-.1.8-.1-.4.7-.9.9-1.4 1.2-.2.1-.5-.1-.5.3 0 .2.3.1.5.2.133.066.233.1.3.1-.1.4-.4.3-.6.4-.2.133-.367.133-.5 0l-.1-.1c-.267 0-.467-.1-.6-.3v-.1c-.2 0-.4.1-.4.2 3.2 2.4 6.7 3.4 10.6 3 1.3-.3 2.7-.4 3.9-.9.1 0 .3-.1.3.1.1.2-.2.3-.4.4-4.6 2.4-9.1 1.9-13.5-.6-2.7-1.5-4.9-3.7-6.7-6.3-.1-.2-.3-.4 0-.6Zm20.7 8.8c-2.2 1.3-4.5 2.4-7 3.2-1.9.6-3.8 1-5.8.7-1.8-.3-3.3-1.3-4.8-2.3-2.3-1.5-4.3-3.4-5.9-5.7-.3-.3-.3-.7.2-.9.4-.1.5.2.6.5.4.2.6.6.9 1l1.4 1.4.2.2.4.4c0-.2.033-.367.1-.5-.134 0-.234-.067-.3-.2l-.1-.1-.2-.2c-.067 0-.134-.067-.2-.2-.2-.2-.1-.4.1-.6a2.14 2.14 0 0 1 1.4-1c.6-.1 1.1-.1 1.5.4.2.2.5.4.7.6 1.4 1.1 1.4 2.2.2 3.4-.3.3-.7-.1-.9.2 1.7 1.3 3.5 2.5 5.7 2.7 1.6.1 3.1-.3 4.7-.8 2.3-.7 4.5-1.9 6.7-3.1.2-.1.5-.4.7 0 .2.4.2.7-.3.9Zm-21.7-6.2h.1c.8-1.3.9-1.3 1.8 0l.1.1c.2.5 1 .7.8 1.1-.1.4-.8.5-1.2.7l-.1.1c-.067 0-.134.033-.2.1l-.1.1-.1.1c-.2.7-.5.6-.8.1-.067 0-.1-.034-.1-.1-1-1.1-1-1.1-.2-2.3Zm6.4 4.5c0-.5.3-.2.5-.1.866.533 1.766 1 2.7 1.4 2 .9 3.9 1.1 6 1.1.2 0 .6-.2.6.2.1.3-.3.3-.5.4-.534.2-1.034.366-1.5.5-.2.2-.467.3-.8.3-.6.133-1.234.266-1.9.4-2.2.3-4.1-.5-5.8-1.6-.3-.2-.3-.4-.1-.7.4-.5.8-1.1.8-1.9Zm20.9 3.6c-1.3 1-1.3 1-2.2-.2-.5-.7-1.2-1.2-1.1-2.2 0-.1 0-.3.1-.5.3-.3.4-.7.1-1.1-.3-.5-.8-.8-1.2-.6-1.2.4-1.6-.4-2.1-1.2-1.2-1.267-2.4-2.567-3.6-3.9-1-1.2-2.2-2.2-3.3-3.2a376.84 376.84 0 0 0-.2-.2.654.654 0 0 1-.3-.3c-.067 0-.134-.034-.2-.1-.4-.3-.8-.6-1.3-1 1.5-.1 2.4-.7 2.9-2 .2-.5.5-.1.7 0 1.6 1.2 3.066 2.566 4.4 4.1 1.2 1.3 2.3 2.6 3.3 4.1 1.6 2.4 3 4.8 4.2 7.4.2.4.1.6-.2.9Zm.8-1.2c-.2.1-.3-.1-.4-.3-.4-.6-.6-1.4-1-2.1-1-1.7-2-3.4-3.1-5-1.1-1.4-2-2.9-3.3-4.1-1.4-1.6-2.9-3.1-4.7-4.3-.3-.2-.4-.4-.5-.8v-.1c0-.1.1-.2.2-.1h.2c.6.466 1.166.933 1.7 1.4.6.5 1.8 1.5 2.1 1.8.9.9 3.2 3.7 3.6 4.2 0 0 2 2.7 2.3 3.2a58.706 58.706 0 0 1 2.9 5.3l.2.4c.1.2 0 .4-.2.5Zm-4.9-.7c-.2.1-.4 0-.5-.2a14.81 14.81 0 0 0-.5-1.6c0-.2.1-.3.1-.3.4.1 1.3 1.6 1.2 1.8 0 .2-.2.2-.3.3Zm.5-1.3c-.3-.1-.4-.3-.4-.6-.1-.2.1-.2.3-.2.2.066.333.233.4.5 0 .2-.1.3-.3.3Z" class="&lt;Compound Path&gt;" clip-rule="evenodd"/>
            <path fill="#070505" fill-rule="evenodd" d="M66.54 31.588a1.165 1.165 0 0 0-.3.2c-.3.3.1.5-.4.9 0 0-.1.1-.2.1-.4.4-.7.5-1.2.9 0 0-.4.2-.5.3-.2.1-.6-.1-.7-.4-.4-.8-.9-1.5-1.5-2.1-.2-.3-1.5-.4-1.8-.3l-4.2 2.1a28.622 28.622 0 0 1-5.1 1.7c-.267 0-.534.033-.8.1h-.3c-.4 0-1.3.3-2.3.1-.3-.1-.6-.3-.7 0-.1.3.3.3.5.5l1.6 1.4c.066.066.166.133.3.2l.3.3c.333.133.666.2 1 .2.8 0 1.9.8 1.9 1.4.1.9.6 1.2 1.2 1.5.2.1.5.1.5.4 0 .066-.034.1-.1.1 0 .066-.034.1-.1.1l-.2.2c-.067 0-.1.033-.1.1-.067 0-.134.033-.2.1-.5.3-1 .9-1.9.5l-.6.2-1-.2c1 .1 2-.6 2.2-1.7.2-1-.6-2-1.7-2.2-.7-.1-1.4.2-1.8.7 0 .1-.4 0-.7-.1-.1-.1-1-.4-1.1-.5-.6-.2-.5-.4-1.4-.9-.7-.4-1.4-.8-2.1-1.1 1 .533 2.066 1 3.2 1.4.2.1 1.4.5 1.5.5.1.2.4.4.5.1.1-.2-.1-.3-.2-.3s-1.3-.5-1.7-.7c-4.8-2-9-4.9-12.7-8.6-.4-.4-.767-.834-1.1-1.3-.5-.7-.4-.9.4-1 .9-.1 1.7 0 2.5.1.1-.2 0-.3 0-.5.2-.6.5-.9 1.2-.9.4.1.5-.2.7-.5.3-.3 1.3-1.6 1.3-1.7.1-.2-.2-.4-.2-.6-.2-.4-.1-.6.2-.8.133-.134.3-.234.5-.3.2-.1.3 0 .4 0 0-.1.2-.3.3-.4.1-.2.7-1.1.8-1.4.4-.6 1.8-2.9 2-3a1.15 1.15 0 0 1 .2-.3c.2-.3.2-.5.5-.9.4-.5-.2-.3.2-.9 0 0 1.1-1.8 2.2-2.5 0-.067.033-.1.1-.1 0 0 .2-.1.6-.2l.3-.1c.4 0 .9.1 1.3.1.9.1 2.1.6 2.4.7.133.066.3.133.5.2l.2.2v-.3c0-.2.033-.467.1-.8.1-.3.5-1.2.6-1.4.7-1.4 1.5-2.7 2.4-3.9 1.2-1.7 3.1-1.7 4.5-.1 1 1.3.9 2.7-.4 3.9-.8.8-1.8 1.6-2.6 2.4-.3.2-1.7 1.3-1.8 1.4 0 0-.2.1-.3.2v.1a34.707 34.707 0 0 1 4.8 4c.1.1 1.6 1.9 1.6 1.9 1 1.2 2.8 3.5 3.3 4.2.9 1.4 1.8 2.9 2.5 4.5.1.1.7 1.4.7 1.4 0 .1.4.9.4 1 .1.1-.1.2-.4.4Zm-25.5 3.6s.9.5 2 1.2l-2-1.2Zm9.4-22.6s-1.1-.4-1.5-.5c-.6-.2-1.3-.3-1.7-.3-.4 0-1 0-1.4.5 1.6 0 2.8.5 3.9 1h.3c.2 0 .6-.2.8-.2.3-.2-.1-.4-.4-.5Z" class="&lt;Compound Path&gt;" clip-rule="evenodd"/>
            <path fill="#070505" fill-rule="evenodd" d="M52.24 40.588c-.1.6-.4 1.2-1 1.6-.5.3-1.1.5-1.7.4h-.1c-1.2-.2-2.1-1.4-1.9-2.7.1-.7.4-1.2.9-1.6.6-.4 1.2-.5 1.8-.4 1.4.2 2.2 1.4 2 2.7Zm-2.1-2.3c-1-.2-2 .6-2.2 1.7-.1 1 .6 2 1.6 2.2 1.1.1 2.1-.6 2.3-1.7.2-1-.6-2-1.6-2.2h-.1Zm-.5 3.2c-.7-.2-1.1-.8-1-1.5.1-.7.8-1.1 1.5-1 .7.1 1.1.8 1 1.4-.1.7-.7 1.2-1.4 1.1h-.1Zm1.1-1.1c.1-.5-.2-.9-.7-1-.5-.1-.9.2-1 .7 0 .2.066.4.2.6.133.2.3.3.5.3.5.1.9-.2 1-.6Z" class="&lt;Compound Path&gt;" clip-rule="evenodd"/>
          </g>
          <path fill="#070505" fill-rule="evenodd" d="M35.84 25.888v.1c.1.2.2.5 0 .8l-.2.3h-.2l-.3-.1c-.7 0-1.4-.1-2.1 0h-.3l.2.2c.266.4.633.833 1.1 1.3 4 4 8.3 6.9 13 8.7.3.1 1.1.5 1.2.5.1 0 .4.1.5.3 0 .1.1.3 0 .6-.2.2-.4.4-.7.4-.3-.1-2.4-.9-2.5-.9-1.6-.733-3.2-1.567-4.8-2.5l-1.6-1c-.2-.1-1.6-1.1-2-1.5 0 0-.4-.3-.7-.6-.5-.4-1-.8-1.2-.9l-2.4-2.4c-.4-.3-.7-.7-.9-.8-.3-.3-.5-.7-.5-.8-.3-.6-.2-1 .1-1.5.2-.267.633-.433 1.3-.5.3-.1 2 0 2.6 0h.3l.1.3Zm-2.9.1c-.4.1-.8.2-1 .4-.3.3-.3.6-.1 1 0 0 .2.4.5.6.5.6 3.1 3.2 3.2 3.3.3.2 1.8 1.4 1.9 1.5.4.3 1.9 1.4 1.9 1.4l1.7 1a28.329 28.329 0 0 0 4.7 2.4c.4.2 2.1.9 2.3.9h.1c.066 0 .1-.033.1-.1.1-.2 0-.2-.1-.3-.1 0-1-.3-1.3-.4-5-2-9.3-5.1-13.2-8.9-.4-.4-.767-.833-1.1-1.3-.5-.7-.4-.9.5-1 .8-.1 1.6 0 2.4.1.1-.2 0-.3 0-.5-.7-.1-2.3-.1-2.5-.1Z" class="&lt;Compound Path&gt;" clip-rule="evenodd"/>
          <path fill="#E0CC2E" d="M65.44 31.688c-1.2-2.6-2.6-5-4.2-7.4a64.188 64.188 0 0 0-1.9-2.6c-.5-.5-2.8-3.1-3.6-3.8a26.094 26.094 0 0 0-2.2-1.8c-.2-.1-.5-.5-.7 0-.5 1.3-1.4 1.9-2.9 2 .5.4 2.3 1.9 2.5 2 .9.9 1.9 1.8 2.8 2.8 1.2 1.333 2.4 2.633 3.6 3.9.7.8.9 1.6 2.1 1.2.4-.2.9.1 1.2.6.3.4.2.8-.1 1.1-.1.2-.1.4-.1.5-.1 1 .6 1.5 1.1 2.2.9 1.2.9 1.2 2.2.2.3-.3.4-.5.2-.9Z" class="&lt;Path&gt;"/>
          <path fill="#FCBC60" d="M42.54 24.388c0-.2 0-1 .2-1.1.3 0 .2.3.5.3.4-.1.4-.5.5-.9 0-.3.1-.5.2-.6.066-.067.166-.1.3-.1.1 0 .1.1.1.1 0 .3-.1.6.1.7h.1c.066.066.133.066.2 0 .3-.1.9-1.8 1.2-1.7.3.2-.2 1.2-.4 1.6 0 .1-.2.3 0 .4.2.1.2-.1.3-.2.5-.6.9-1.3 1.5-1.8.2-.1.5-.4.7-.2.2.1-.1.5-.2.6-.3.6-.7 1-1.1 1.4l-.4.4c-.1.1-.2.2-.1.4.1.1.2 0 .4-.1.3-.2.8-.5 1.3-.6.1 0 .4-.1.4 0 .1 0 0 .1 0 .2l-.7.7c-.2.2-.4.366-.6.5-.1.1-.5.2-.4.5.1.2.4.2.6.1.3-.1.4-.2.6-.2.2 0 .3-.1.3 0v.2c-.1.1-.4.5-.6.6-.3.2-.5.4-.9.5-.3.1-.5-.1-.5.3 0 .1.1.1.2.2h.3c.2 0 .3 0 .3.1 0 .2-.1.3-.2.4-.4.2-.6.1-.9 0l-.1-.1c-.2-.1-.6-.4-.6-.4-.3-.2-1.4-1.1-1.5-1.2l-.7-.6c-.1-.1-.4-.3-.4-.4Z" class="&lt;Path&gt;"/>
          <path fill="#9DCDED" d="M52.64 15.588c-.3 1.3-1.6 2.2-2.7 2-1-.2-1.5-1.1-1.3-2.1.3-1.3 1.6-2.2 2.7-2 .9.2 1.5 1.1 1.3 2.1Z" class="&lt;Path&gt;"/>
          <path fill="#FEFEFE" d="M52.04 15.588c-.2.9-1.1 1.5-1.9 1.4-.7-.1-1-.8-.9-1.5.2-.9 1.1-1.5 1.9-1.4.6.2 1 .8.9 1.5Z" class="&lt;Path&gt;"/>
          <path fill="#9DCDED" d="M51.34 15.588c-.1.4-.6.8-1 .7-.3-.1-.5-.4-.4-.8.1-.4.6-.8 1-.7.3.1.5.4.4.8Z" class="&lt;Path&gt;"/>
          <path fill="#A19535" fill-rule="evenodd" d="M51.84 40.488c-.2 1.1-1.2 1.9-2.3 1.7-1-.2-1.7-1.2-1.6-2.2.2-1.1 1.2-1.9 2.2-1.7 1.1.2 1.9 1.2 1.7 2.2Zm-2.2 1c.7.1 1.4-.4 1.5-1.1.1-.6-.3-1.3-1-1.4-.7-.1-1.4.3-1.5 1-.1.7.3 1.3 1 1.5Z" class="&lt;Compound Path&gt;" clip-rule="evenodd"/>
          <path fill="#264485" d="M60.94 21.788c-.4-.5-.8-.9-1.1-1.3-.9-1.1-2-2.3-2.8-3.2-.4-.3-1.4-1.2-1.6-1.3-.8-.7-1.6-1.3-2-1.5-.2-.1-.4-.1-.4.2 0 0 0 .3.1.4.066.2.2.366.4.5 1.1.8 2 1.5 2.9 2.4.6.6 2.8 3 3.3 3.6.6.8 2.6 3.5 2.9 4.1.7 1.1 1.3 2.2 2 3.3.4.7.6 1.5 1 2.1.1.2.2.4.4.3.2-.1.5-.2.4-.4l-.2-.4c-.6-1.4-1.4-3-2.2-4.4-.1-.2-.7-1.1-1.3-2.1-.3-.4-1.1-1.4-1.8-2.3Z" class="&lt;Path&gt;"/>
          <path fill="#A19535" d="M60.24 28.588c.4.1 1.3 1.6 1.2 1.8 0 .2-.2.2-.3.3-.2.1-.4 0-.5-.2a14.73 14.73 0 0 0-.5-1.6c0-.2.1-.3.1-.3Zm1.1-.2c.2.1.6.4.6.7 0 .2-.1.3-.3.3-.3-.1-.5-.5-.6-.8 0-.2.1-.2.3-.2Z" class="&lt;Path&gt;"/>
          <path fill="#E0CC2E" d="M59.94 29.788c-.2-.4-.5-.1-.7 0-2.2 1.2-4.4 2.4-6.7 3.1-1.6.5-3.1.9-4.7.8-1.8-.1-3.2-.9-4.6-1.9-.4-.2-1.3-.9-1.4-.9-.6-.4-2.3-2-2.4-2.1l-.2-.2-1.4-1.4c-.2-.2-.9-.9-.9-1-.1-.2-.2-.4-.3-.5-.067-.067-.167-.067-.3 0-.067 0-.134.033-.2.1-.3.2-.2.5 0 .8 1.6 2.3 3.6 4.2 5.9 5.7 1.5 1 3 2 4.8 2.3 2 .3 3.9-.1 5.8-.7 2.5-.8 4.8-1.9 7-3.2.5-.2.5-.5.3-.9Z" class="&lt;Path&gt;"/>
          <path fill="#A19535" d="M59.74 30.088c-2.2 1.3-4.5 2.4-7 3.2-1.9.6-3.8 1.1-5.8.7-1.8-.3-3.3-1.3-4.8-2.3-2.3-1.5-4.3-3.4-5.9-5.7l-.2-.2c-.2.2-.1.5.1.8 1.6 2.3 3.6 4.2 5.9 5.7 1.5 1 3 2 4.8 2.3 2 .3 3.9-.1 5.8-.7 2.5-.8 4.8-1.9 7-3.2.4-.2.5-.4.4-.7-.067.066-.167.1-.3.1Z" class="&lt;Path&gt;"/>
          <path fill="#264485" d="M39.24 23.688c-.2-.2-.4-.2-.6 0-.2.133-.4.4-.6.8 0 0-.5.6-.6.8-.1.2-.1.4 0 .6.1.3.9 1.2 1 1.3.2.2.3.2.5 0 0-.1.6-.9 1-1 .5-.2.7-.1.8-.5.1-.2-.1-.4-.3-.6-.2-.1-1-1.2-1.2-1.4Zm17.3 7.2c0-.2-.4 0-.7.1-.3.1-.7.2-1 .3-.2 0-1.4.1-1.8.1-2.2.1-3.9-.4-5.5-1.1a20.67 20.67 0 0 1-2.7-1.4c-.2-.1-.5-.4-.5.1 0 .8-.4 1.4-.8 1.9-.2.3-.2.5.1.7 1.7 1.1 3.6 1.9 5.8 1.6.466-.134.9-.233 1.3-.3 2.3-.4 4.7-1.5 5-1.6.4-.1.8-.3.8-.4Z" class="&lt;Path&gt;"/>
          <path fill="#E0CC2E" d="M59.54 28.988c0-.2-.2-.1-.3-.1-1.2.5-2.6.6-3.9.9-3.9.4-7.4-.6-10.6-3-.067 0-.1-.034-.1-.1-.6-.3-2.4-1.9-2.6-2.1-.5-.4-1-.9-1.5-1.5-.3-.4-.6-.8-.8-1.2-.2-.2-.3-.3-.5-.2-.1 0-.4.2-.4.2-.2.2 0 .4.1.6 1.8 2.6 4 4.8 6.7 6.3 4.4 2.5 8.9 3 13.5.6.2-.1.5-.2.4-.4Z" class="&lt;Path&gt;"/>
          <g class="&lt;Group&gt;">
            <path fill="#A19535" d="M46.04 28.388c-2.8-1.5-4.9-3.7-6.7-6.3-.1-.1-.2-.2-.2-.4-.1.1-.3.2-.3.2-.2.2 0 .4.1.6 1.8 2.6 4 4.8 6.7 6.3 4.4 2.5 8.9 3 13.5.6.2-.1.5-.2.4-.4-4.6 2.4-9.1 1.9-13.5-.6Z" class="&lt;Path&gt;"/>
          </g>
          <path fill="#E0CC2E" d="M49.34 13.588c.1-.2-1.7-.8-3-1-.3 0-.6-.1-.8 0-.5.3-1 1.1-1.4 1.8-.3.4-.2.5.2.6 1 .2 3.1 1.5 3.8 1.9.1.1.2.1.2.1.1-.1 0-.2 0-.4-.2-1 .1-1.9.8-2.7.1-.1.2-.2.2-.3Z" class="&lt;Path&gt;"/>
          <path fill="#264485" d="M49.44 28.888c1.8.5 3.7.7 5.5.4.7 0 2.5-.4 2.8-.4 1.8-.4 1.8-.4.6-1.8-.334-.4-.667-.767-1-1.1-2.3-2.9-4.9-5.5-7.9-7.6-1.2-.9-4.1-2.5-4.3-2.6-1-.5-1.2-.5-1.8.4-.9 1.3-1.5 2.2-2.4 3.6-.2.3-.7 1.2-.8 1.4-.1.3-.2.3-.1.5.2.4.5.7.8 1.1.1.2.3.4.4.5.5.4.8.9 1 .6.1-.2.2-.2.2-.5.1-.4.1-.6.4-.5.2 0 .3.3.4.3.2 0 .1-.6.2-.9.2-.4.5-.8.8-.7.4.1.3.5.5.5.1 0 .4-.7.5-.9l.5-.5c.3-.3.6-.4.6.2 0 .1 0 .5-.1.8 0 .1.1.1.1.1s.1-.1.2-.3l.5-.5c.3-.3.6-.6 1-.7.4-.1.5.1.4.5a9.24 9.24 0 0 1-.3 1.1c-.1 0-.3.4-.6.7-.1.1-.3.2-.3.2 0 .2.1.1.2 0 .2 0 .4-.1.5-.1.3-.1.5 0 .6 0 .3.1.2.3.1.6-.1.1-.3.4-.6.7-.1.2-.4.4-.7.5-.1.1-.2.2-.1.3.3-.2.6-.4.8-.3.2 0 .3.1.4.1.2.2 0 .5-.2.7-.067.133-.2.3-.4.5-.1.1-.4.3-.6.4-.2 0-.4 0-.4.1.1.2.4.1.5.2v.5c-.1.1-.6.4-.6.6 0 .1.1.2.2.3.1 0 .5.2.8.4.3.1 1.3.4 1.7.6Z" class="&lt;Compound Path&gt;"/>
          <path fill="#264485" d="M49.44 28.888c1.8.5 3.7.7 5.5.4.7 0 2.5-.4 2.8-.4 1.8-.4 1.8-.4.6-1.8-.334-.4-.667-.767-1-1.1-2.3-2.9-4.9-5.5-7.9-7.6-1.2-.9-4.1-2.5-4.3-2.6-1-.5-1.2-.5-1.8.4-.9 1.3-1.5 2.2-2.4 3.6-.2.3-.7 1.2-.8 1.4-.1.3-.2.3-.1.5.2.4.5.7.8 1.1.1.2.3.4.4.5.5.4.8.9 1 .6.1-.2.2-.2.2-.5.1-.4.1-.6.4-.5.2 0 .3.3.4.3.2 0 .1-.6.2-.9.2-.4.5-.8.8-.7.4.1.3.5.5.5.1 0 .4-.7.5-.9l.5-.5c.3-.3.6-.4.6.2 0 .1 0 .5-.1.8 0 .1.1.1.1.1s.1-.1.2-.3l.5-.5c.3-.3.6-.6 1-.7.4-.1.5.1.4.5a9.24 9.24 0 0 1-.3 1.1c-.1 0-.3.4-.6.7-.1.1-.3.2-.3.2 0 .2.1.1.2 0 .2 0 .4-.1.5-.1.3-.1.5 0 .6 0 .3.1.2.3.1.6-.1.1-.3.4-.6.7-.1.2-.4.4-.7.5-.1.1-.2.2-.1.3.3-.2.6-.4.8-.3.2 0 .3.1.4.1.2.2 0 .5-.2.7-.067.133-.2.3-.4.5-.1.1-.4.3-.6.4-.2 0-.4 0-.4.1.1.2.4.1.5.2v.5c-.1.1-.6.4-.6.6 0 .1.1.2.2.3.1 0 .5.2.8.4.3.1 1.3.4 1.7.6Z" class="&lt;Compound Path&gt;"/>
          <path fill="#232F64" d="M45.14 15.788c-1-.5-1.2-.5-1.8.4-.9 1.3-1.5 2.2-2.4 3.6-.2.3-.7 1.2-.8 1.4-.1.3-.2.3-.1.5.2.3.4.6.7 1l5-6.6-.6-.3Z" class="&lt;Path&gt;"/>
          <path fill="#A19535" d="M45.54 12.588c-.5.3-1 1.1-1.4 1.8-.3.4-.2.5.2.6.4.1 1.1.4 1.7.7l2-2.7c-.5-.2-1.2-.3-1.7-.4-.3 0-.6-.1-.8 0Zm16.6 16c.3.4.2.8-.1 1.1-.1.2-.1.4-.1.5-.1 1 .6 1.5 1.1 2.2.9 1.2.9 1.2 2.2.2.3-.3.4-.5.2-.9-1.2-2.4-2.4-4.8-4-7l-2.5 2.3c.6.8.9 1.4 2 1 .4-.2.9.1 1.2.6Z" class="&lt;Path&gt;"/>
          <path fill="#FCBC60" d="M42.84 27.388c-.2-.2-.9-.9-1-.9-.5-.3-.5-.4-1.1-.2-.6.1-1.2.6-1.5 1.1-.2.2-.3.4-.1.6l.4.4s1.3 1.2 1.4 1.2c0 .1.3.3.4.3 0 .1.8.7 1.1.8.2.1.4.2.6.1.5-.5.6-.8.9-1.3.1-.4.3-.7 0-1.2-.2-.2-.8-.7-1.1-.9Z" class="&lt;Path&gt;"/>
          <path fill="#CE9A46" d="M42.84 30.588c-.4-.2-1.2-.8-1.3-.9-.1-.1-.4-.3-.4-.3-.1-.1-1.5-1.3-1.6-1.4 0 0-.2-.2-.3-.4-.067 0-.1-.034-.1-.1-.1.2-.1.3 0 .5l.4.4s1.3 1.2 1.4 1.2c0 .1.3.3.4.3 0 .1.8.7 1.1.8.2.1.4.2.6.1.066 0 .1-.034.1-.1-.134 0-.234-.034-.3-.1Z" class="&lt;Path&gt;"/>
          <g class="&lt;Group&gt;">
            <path fill="#E0CC2E" d="M56.04 11.687c.4-.333.833-.7 1.3-1.1.5-.4 1.1-.9 1.4-1.6.4-.6.5-1.2.2-1.8-1-2.1-3.2-2.3-4.5-.4a1.563 1.563 0 0 0-.3.4l-1.8 3.2c-.4.6-.6 1.2-.7 1.9-.2.6 0 .9.7 1.1v.1c.4.3.6.6 1.1.3.2-.2 2.3-1.8 2.6-2.1Z" class="&lt;Path&gt;"/>
            <g class="&lt;Group&gt;">
              <path fill="#A19535" d="M58.24 6.188c-1.1-1.2-2.8-1.1-3.9.5-.134.133-.234.3-.3.5-.6 1-1.234 2.033-1.9 3.1-.3.7-.5 1.2-.6 1.9-.2.6.1 1 .8 1.2-.3-.2-.3-.8-.1-1.1 1-1.9 2-3.6 3.5-5.1a1.52 1.52 0 0 1 .4-.3c.8-.7 1.9-.8 2.4-.4l-.3-.3Z" class="&lt;Path&gt;"/>
            </g>
          </g>
          <path fill="#070505" fill-rule="evenodd" d="M49.64 41.488c-.7-.2-1.1-.8-1-1.5.1-.7.8-1.1 1.5-1 .7.1 1.1.8 1 1.4-.1.7-.8 1.2-1.5 1.1Zm-.6-1.4c-.1.5.2.8.7 1 .5 0 .9-.2 1-.7.1-.6-.2-.9-.8-1-.5-.1-.8.2-.9.7Z" class="&lt;Compound Path&gt;" clip-rule="evenodd"/>
          <path fill="#264485" d="M63.24 33.588c-.4-.8-.9-1.5-1.5-2.1-.2-.3-1.5-.4-1.8-.3l-4.2 2.1a28.622 28.622 0 0 1-5.1 1.7c-.267 0-.534.033-.8.1h-.3c-.4 0-1.9.1-2.5-.1-.2 0-.8-.1-1.5-.3.7.4 1.2.9 1.4 1 0 0 1.9 1.6 2 1.7.4.2.6.4 1.1.4.7.1 1.9.5 2.1 1.6.2.9.6 1 1.2 1.3.2.1.5.1.5.4 0 .1-.1.1-.1.1.1 0 .4-.1.4-.2l.2-.1s8.3-6.4 9.6-6.9c-.2 0-.6 0-.7-.4Z" class="&lt;Compound Path&gt;"/>
          <path fill="#232F64" d="M63.94 33.988c-.2 0-.6 0-.7-.4-.4-.8-.9-1.5-1.5-2.1-.2-.3-1.5-.4-1.8-.3l-4.2 2.1a22.168 22.168 0 0 1-4.9 1.6l-2.2 2.2c.2.1.3.2.3.3.4.2.6.4 1.1.4.7.1 1.9.5 2.1 1.6.2.9.6 1 1.2 1.3.2.1.5.1.5.4 0 .1-.1.1-.1.1.1 0 .4-.1.4-.2l.2-.1s8.3-6.4 9.6-6.9Z" class="&lt;Path&gt;"/>
          <g class="&lt;Group&gt;">
            <path fill="#070505" d="m53.64 41.288-.3-.6c.1 0 .2.1.3 0h.2l.1-.2c.1 0 6.6-4.9 9.2-6.6.1-.1.1-.2 0-.4.2-.2.8-.1.9-.1l.2.4c-1.2.6-9.1 6.5-10 7.1l-.6.4Z" class="&lt;Path&gt;"/>
          </g>
          <path fill="#E0CC2E" d="M46.84 37.688c-5-2-9.3-5.1-13.2-8.9a10.3 10.3 0 0 1-1.1-1.3c-.5-.7-.4-.9.4-1 .9-.1 1.7 0 2.5.1.1-.2 0-.3 0-.5-.7-.1-2.3-.1-2.5-.1-.4.1-.9.2-1 .4-.3.3-.3.6-.1 1 0 0 .2.4.4.6l3.3 3.3c.2.2 1.8 1.4 1.9 1.5.4.3 1.9 1.4 1.9 1.4l1.7 1a28.325 28.325 0 0 0 4.7 2.4c.4.2 2.2.9 2.3.9.133 0 .2-.033.2-.1.1-.2 0-.2-.1-.3-.1 0-1-.3-1.3-.4Z" class="&lt;Path&gt;"/>
          <path fill="#A19535" d="M48.04 38.488c.133 0 .2-.033.2-.1.1-.2 0-.2-.1-.3 0 0-.2-.1-.5-.1l-.3.3c.4.1.7.2.7.2Zm-8.3-16.6c-.2-.2-.3-.3-.5-.2-.1 0-.4.2-.4.2-.2.2 0 .4.1.6.333.466.633.9.9 1.3l.6-.8c-.2-.4-.5-.8-.7-1.1Z" class="&lt;Path&gt;"/>
          <path fill="#232F64" d="M39.24 23.688c-.2-.2-.4-.2-.6 0-.2.133-.4.4-.6.8 0 0-.5.6-.6.8-.1.2-.1.4 0 .6 0 .1.2.3.4.6l1.8-2.4-.4-.4Z" class="&lt;Path&gt;"/>
          <path fill="#A19535" d="M37.54 26.888c-.3-.3-.6-.6-.6-.7-.1-.2-.2-.4-.3-.5-.067-.067-.167-.067-.3 0-.067 0-.134.033-.2.1-.3.2-.2.5 0 .8.266.333.533.7.8 1.1l.6-.8Z" class="&lt;Path&gt;"/>
          <path fill="#232F64" d="M64.64 28.988c.4.7.6 1.5 1 2.1.1.2.2.4.4.3.2-.1.5-.2.4-.4l-.2-.4c-.6-1.4-1.4-3-2.2-4.4-.1-.2-.7-1.1-1.3-2.1a2.979 2.979 0 0 1-.3-.4l-.7.6c.4.6.8 1.1.9 1.4.7 1.1 1.3 2.2 2 3.3Z" class="&lt;Path&gt;"/>
          <path fill="#A19535" d="M59.14 29.388c.2-.1.5-.2.4-.4 0-.2-.2-.1-.3-.1-.9.4-1.9.6-2.9.7l-1.3 1.2c1.4-.2 2.766-.667 4.1-1.4Z" class="&lt;Path&gt;"/>
          <path fill="#232F64" d="M55.74 31.288c.4-.1.8-.3.8-.4 0-.2-.4 0-.7.1-.3.1-.7.2-1 .3h-.3l-.8.8c1-.4 1.8-.7 2-.8Z" class="&lt;Path&gt;"/>
          <path fill="#A19535" d="M52.64 33.888c2.5-.8 4.8-1.9 7-3.2.5-.2.5-.5.3-.9s-.5-.1-.7 0c-2 1.1-4 2.2-6.2 2.9l-1.5 1.5a9.24 9.24 0 0 0 1.1-.3Zm-2.4 8.2h-.3c-.3 0-.4 0-.4.3a22.22 22.22 0 0 0-.3 1.9c0 .1-.1.3-.2.6 0 .067-.034.166-.1.3l1-.2c.066-.333.133-.7.2-1.1.066-.267.1-.5.1-.7.066-.2.133-.433.2-.7 0-.2-.1-.3-.2-.4Z" class="&lt;Path&gt;"/>
        </g>
        <path fill="#264485" d="M50.84 13.088c-.2 0-.6.2-.8.2h-.3c-1-.5-2.1-.9-3.5-1h-.4c0-.1.1-.2.2-.2.4-.3.9-.3 1.2-.3.4 0 1.1.1 1.7.3.4.1 1.5.5 1.5.5.3.1.7.3.4.5Z" class="&lt;Path&gt;"/>
        <path fill="#212F61" d="M47.24 11.788c-.3 0-.8 0-1.2.3-.1 0-.2.1-.2.2h.4c.8 0 1.4.2 2 .4l.5-.6c-.5-.2-1.1-.3-1.5-.3Z" class="&lt;Path&gt;"/>
        <path fill="#FDDDB4" d="M41.84 27.088c-.1.4-.4.6-.8.6-.3-.1-.6-.4-.5-.8 0-.3.4-.6.7-.5.4 0 .6.4.6.7Z" class="&lt;Path&gt;"/>
      </g>
      <g class="escarapela">
        <g class="&lt;Group&gt;">
          <g class="&lt;Group&gt;">
            <path fill="#58BDEA" d="m25.54 76.688-.3-1.3-1.2-.4 4-3.7 1.5 1.7-4 3.7Z" class="&lt;Path&gt;"/>
            <path fill="#FEFEFE" d="m24.74 75.188.5.2.1.5 3.7-3.4-.6-.6-3.7 3.3Z" class="&lt;Path&gt;"/>
          </g>
          <g class="&lt;Group&gt;">
            <path fill="#58BDEA" d="m28.04 77.888 1.2-.5 1.1.7.4-5.4-2.2-.2-.5 5.4Z" class="&lt;Path&gt;"/>
            <path fill="#FEFEFE" d="m29.64 77.588-.4-.2-.5.2.5-5 .8.1-.4 4.9Z" class="&lt;Path&gt;"/>
          </g>
        </g>
        <path fill="#050505" d="m30.74 72.788-.7-.1h-.9v-.1h-.1l-.6-.7-.5-.5-1.2 1.1c.3.7.9 1.3 1.6 1.7.7.3 1.5.4 2.3.3l.1-1.7Z" class="&lt;Path&gt;" opacity=".2"/>
        <g class="&lt;Group&gt;">
          <path fill="#58BDEA" d="M33.24 72.288c-.9 1.8-3 2.5-4.8 1.6-1.7-.9-2.4-3-1.6-4.8.9-1.7 3-2.5 4.8-1.6 1.8.9 2.5 3 1.6 4.8Z" class="&lt;Path&gt;"/>
          <path fill="#FEFEFE" d="M32.14 71.688c-.6 1.1-2 1.6-3.1 1-1.1-.5-1.6-1.9-1-3 .5-1.1 1.9-1.6 3-1 1.2.5 1.6 1.9 1.1 3Z" class="&lt;Path&gt;"/>
          <path fill="#58BDEA" d="M31.14 71.188c-.3.6-1 .9-1.6.6-.6-.3-.9-1-.6-1.6.3-.6 1.1-.9 1.7-.6.6.3.8 1 .5 1.6Z" class="&lt;Path&gt;"/>
        </g>
        <g class="&lt;Group&gt;">
          <path fill="#58BDEA" d="M33.14 72.188c-.9 1.7-2.9 2.4-4.6 1.6-1.7-.9-2.4-2.9-1.5-4.6.8-1.7 2.8-2.4 4.5-1.6 1.7.9 2.4 2.9 1.6 4.6Z" class="&lt;Path&gt;"/>
          <path fill="#FEFEFE" d="M32.04 71.688c-.6 1.1-1.9 1.5-3 1-1-.6-1.5-1.9-.9-3 .5-1.1 1.8-1.5 2.9-1 1.1.6 1.5 1.9 1 3Z" class="&lt;Path&gt;"/>
          <path fill="#58BDEA" d="M31.14 71.188c-.3.6-1 .8-1.6.5-.6-.2-.8-.9-.5-1.5.3-.6 1-.8 1.5-.5.6.2.8.9.6 1.5Z" class="&lt;Path&gt;"/>
        </g>
      </g>
    </g>
  </g>
</svg>
