<svg xmlns="http://www.w3.org/2000/svg" width="45" height="20" fill="none" viewBox="0 0 45 20">
  <g class="6-15-texto">
    <g class="&lt;Group&gt;">
      <g class="&lt;Group&gt;">
        <path fill="#FEFEFE" fill-rule="evenodd" d="M1.4 3.7c.9-.1 2-.1 1.8 3.1C3 9.7 2.1 9.9.6 10l-.6.1.5-6.3.9-.1Zm-.2.7L.9 9.3c1.3-.1 1.4-1.4 1.4-2.5.1-.9.3-2.6-1.1-2.4Z" class="&lt;Compound Path&gt;" clip-rule="evenodd"/>
        <path fill="#FEFEFE" d="M4.5 9.7h-.9l.5-6.2.8-.1-.4 6.3Zm-.1-6.5L4 3l.8-1.3.5.3-.9 1.2Z" class="&lt;Compound Path&gt;"/>
        <path fill="#FEFEFE" fill-rule="evenodd" d="m7.2 3.2.9 6.1-.8.1-.2-1.2-1.2.1-.3 1.3h-.8l1.7-6.3.7-.1ZM7 6.6l-.2-2.2-.7 3.2 1-.1-.1-.9Z" class="&lt;Compound Path&gt;" clip-rule="evenodd"/>
        <path fill="#FEFEFE" d="M10.9 4.7v2.1l-.2 2.3-.8.1.4-6.3h.8l1.1 4.6V5l.2-2.3h.8l-.4 6.2-.8.1-1.1-4.7v.4Z" class="&lt;Compound Path&gt;"/>
        <path fill="#FEFEFE" fill-rule="evenodd" d="m15.5 2.5.9 6.1-.8.1-.2-1.2-1.2.1-.3 1.2-.8.1 1.8-6.4h.6ZM15.2 6 15 3.8 14.3 7l1-.1-.1-.9Z" class="&lt;Compound Path&gt;" clip-rule="evenodd"/>
        <path fill="#FEFEFE" d="M19.5 3c-.2-.1-.3-.2-.5-.2-1.2.1-1.3 1.8-1.3 2.6-.1.8-.1 2.4 1 2.3.133 0 .3-.067.5-.2l-.1.8c-.2.133-.4.2-.6.2-1.7.1-1.8-1.6-1.7-2.9.1-1.3.4-3.4 2-3.5.3 0 .5 0 .7.1V3Zm.9 5.2-.9.1.5-6.2.8-.1-.4 6.2Z" class="&lt;Compound Path&gt;"/>
        <path fill="#FEFEFE" fill-rule="evenodd" d="M24.4 4.8c-.1 1.1-.2 3.2-1.8 3.3-1.6.2-1.5-1.9-1.4-3 .1-1.2.2-3.2 1.8-3.4 1.6-.1 1.5 1.9 1.4 3.1Zm-2.3.2c-.1 1.3-.1 2.4.5 2.3.7 0 .9-1.1 1-2.4 0-1.4 0-2.5-.6-2.4-.7 0-.8 1.2-.9 2.5Z" class="&lt;Compound Path&gt;" clip-rule="evenodd"/>
        <path fill="#FEFEFE" d="M25.8 3.4v2.1l-.1 2.3h-.9l.5-6.2.7-.1 1.2 4.6V3.6l.1-2.2.8-.1-.4 6.3-.8.1L25.8 3v.4Z" class="&lt;Compound Path&gt;"/>
        <path fill="#FEFEFE" fill-rule="evenodd" d="m30.4 1.1.9 6.2h-.8l-.1-1.2-1.3.1-.3 1.3-.8.1 1.8-6.4.6-.1Zm-.3 3.5L30 2.3l-.7 3.2h.9l-.1-.9Z" class="&lt;Compound Path&gt;" clip-rule="evenodd"/>
        <path fill="#FEFEFE" d="m32.9.9-.4 5.5 1.4-.1V7l-2.2.2.4-6.2.8-.1Z" class="&lt;Compound Path&gt;"/>
        <path fill="#FEFEFE" fill-rule="evenodd" d="M37 .5c.9 0 2-.1 1.8 3.1-.2 2.9-1.1 3.1-2.6 3.2l-.6.1.5-6.3.9-.1Zm-.2.7-.3 4.9c1.3-.1 1.4-1.4 1.4-2.4.1-1 .3-2.7-1.1-2.5Z" class="&lt;Compound Path&gt;" clip-rule="evenodd"/>
        <path fill="#FEFEFE" d="m41.9.1-.1.7-1.4.2-.1 1.9 1.2-.1v.7l-1.2.1-.2 2.2 1.4-.2-.1.8-2.1.2.4-6.3 2.2-.2Zm1.2-.1-.4 5.5 1.4-.1v.7l-2.2.2.4-6.2.8-.1Z" class="&lt;Compound Path&gt;"/>
      </g>
      <g class="&lt;Group&gt;">
        <g class="&lt;Group&gt;">
          <path fill="#F9A419" d="M39.1 15 2.6 17.9l.2-5 36.1-2.8.2 4.9Z" class="&lt;Path&gt;"/>
        </g>
        <g class="&lt;Group&gt;">
          <g class="&lt;Group&gt;">
            <path fill="#FEFEFE" d="m7.6 11.5-.3 5.6 3.3-.3-.1 2.2-5.6.5.4-7.8 2.3-.2Zm3.7 7.5.4-7.9 2.3-.2-.4 7.9-2.3.2Z" class="&lt;Compound Path&gt;"/>
            <path fill="#FEFEFE" fill-rule="evenodd" d="m14.8 18.7.4-7.9 3.4-.2c.067-.067.167-.1.3-.1.067 0 .267.033.6.1.267.067.533.167.8.3.2.133.367.333.5.6.2.267.3.6.3 1a2.9 2.9 0 0 1-.7 1.6c.533.333.8.867.8 1.6-.133 1.6-1.267 2.5-3.4 2.7l-3 .3Zm2.5-2.4 1-.1c.333 0 .5-.133.5-.4 0-.3-.2-.4-.5-.4l-1 .1v.8Zm.2-2.6.9-.1c.2 0 .3-.1.4-.4 0-.3-.2-.4-.3-.4l-1 .1v.8Zm11.4 3.8-2.8.2-1.5-1.8h-.2l-.1 2-2.3.2.4-7.9 3.2-.2c.1 0 .2-.1.6 0 .4 0 .8.1 1.2.4.5.2.8.6 1 1.2.067.333.1.7.1 1.1-.066 1.067-.533 1.9-1.4 2.5l1.8 2.3Zm-4.3-5.3-.1 1.5.9-.1c.4 0 .634-.233.7-.7 0-.5-.2-.8-.6-.7h-.9Zm8.9-3c1.134-.133 2.067.167 2.8.9.734.733 1.067 1.667 1 2.8-.066 1.133-.5 2.133-1.3 3-.8.8-1.8 1.267-3 1.4-1.133.067-2.066-.267-2.8-1-.733-.667-1.066-1.567-1-2.7.067-1.133.5-2.133 1.3-3 .867-.867 1.867-1.333 3-1.4Zm-.3 5.9c.467-.067.867-.3 1.2-.7.334-.333.5-.767.5-1.3.067-.533-.066-.967-.4-1.3-.266-.333-.633-.466-1.1-.4-.466 0-.866.2-1.2.6-.4.4-.6.867-.6 1.4 0 .467.134.867.4 1.2.334.333.734.5 1.2.5Z" class="&lt;Compound Path&gt;" clip-rule="evenodd"/>
          </g>
        </g>
      </g>
    </g>
  </g>
</svg>
