<svg xmlns="http://www.w3.org/2000/svg" width="94" height="48" fill="none" viewBox="0 0 94 48">
  <g class="6-17-texto">
    <g class="texto b">
      <g class="&lt;Group&gt;">
        <g class="&lt;Group&gt;">
          <g class="&lt;Group&gt;">
            <path fill="#FEFEFE" d="m3.1 29.9-.1.5H2l-.3 1.4.9.1-.1.5h-.9L1.3 34h1l-.1.5H.5l1-4.7 1.6.1Zm.6 1.4-.2 1.6-.3 1.7h-.7l1-4.7h.6l.4 3.6.2-1.9L5 30h.7l-1 4.6h-.6L3.8 31l-.1.3ZM8 30.1l-.4 1.8h1l.3-1.8h.7l-1 4.7H8l.5-2.3-1-.1-.4 2.3h-.6l.9-4.6H8Z" class="&lt;Compound Path&gt;"/>
            <path fill="#FEFEFE" fill-rule="evenodd" d="M12 32.6c-.1.8-.5 2.4-1.7 2.3-1.2 0-.9-1.6-.7-2.4.2-.8.5-2.4 1.7-2.3 1.2 0 .9 1.6.7 2.4Zm-1.7-.1c-.2 1-.3 1.8.1 1.9.5 0 .8-.8 1-1.8.2-1 .3-1.8-.2-1.9-.5 0-.7.8-.9 1.8Z" class="&lt;Compound Path&gt;" clip-rule="evenodd"/>
            <path fill="#FEFEFE" d="m13.2 31.7-.2 1.6-.3 1.7h-.6l.9-4.7h.6l.4 3.6.2-1.9.3-1.6h.7l-1 4.6h-.5l-.4-3.6-.1.3Z" class="&lt;Compound Path&gt;"/>
            <path fill="#FEFEFE" fill-rule="evenodd" d="M17.6 32.8c-.1.9-.5 2.4-1.7 2.4-1.2-.1-.9-1.6-.7-2.5.2-.8.5-2.4 1.7-2.3 1.2 0 .9 1.6.7 2.4Zm-1.7 0c-.3 1-.3 1.8.1 1.8.5 0 .8-.8 1-1.8.2-1 .3-1.8-.2-1.8s-.8.8-.9 1.8Zm2.7-2.3.7.1c.5 0 1.2 0 1 1.2-.1.4-.4 1.1-.9 1.2l.4 2.3-.7-.1-.4-2.3-.4 2.3h-.7l1-4.7Zm1 1.4c.1-.5.1-.8-.3-.9h-.1l-.3 1.6c.4 0 .6-.3.7-.7Zm3.7-1.2.1 4.7h-.7l.1-.9-1-.1-.3.9h-.6l1.9-4.6h.5Zm-.5 2.6.1-1.7-.9 2.3.8.1v-.7Z" class="&lt;Compound Path&gt;" clip-rule="evenodd"/>
            <path fill="#FEFEFE" d="m25.2 30.8-.8 4.1 1 .1-.1.5-1.7-.1 1-4.6h.6Z" class="&lt;Compound Path&gt;"/>
          </g>
        </g>
      </g>
      <g class="&lt;Group&gt;">
        <g class="&lt;Group&gt;">
          <path fill="#7055A3" d="M87.6 46.8 0 42.9.5 39l87.6 4-.5 3.8Z" class="&lt;Path&gt;"/>
        </g>
        <g class="&lt;Group&gt;">
          <g class="&lt;Group&gt;">
            <path fill="#FEFEFE" d="M5.1 43.1h-.4l-.8-1.8-.5 2.5-1.8-.1 1.1-6 1.7.1 1.1 2.3 1.9-2.2 1.7.1-1.2 6-1.8-.1.5-2.5-1.5 1.7Zm3.8.9 1.1-6 1.8.1-1.1 6-1.8-.1Zm8-3.4c-.2-.267-.4-.467-.6-.6-.2-.067-.433-.1-.7-.1-.4 0-.733.1-1 .3a1.58 1.58 0 0 0-.6 1c-.067.4 0 .767.2 1.1.2.267.467.4.8.4.267 0 .5-.034.7-.1.2-.067.333-.133.4-.2v-.2H15l.3-1.4 3.1.1-.2 1.2c-.2.7-.6 1.2-1 1.5-.2.2-.433.333-.7.4-.2.133-.4.233-.6.3-.2 0-.4.033-.6.1h-.6c-.867-.067-1.567-.4-2.1-1-.467-.667-.633-1.433-.5-2.3.2-.867.633-1.567 1.3-2.1.733-.6 1.567-.867 2.5-.8 1.133.067 1.967.6 2.5 1.6l-1.5.8Zm4.1 4.1c-.1 0-.2 0-.5-.1s-.6-.2-1-.4c-.3-.3-.5-.6-.6-1.2a2.043 2.043 0 0 1 0-.9l.7-3.6 1.8.1-.7 3.6v.3c0 .067.033.133.1.2.1.1.3.3.5.3s.4-.067.6-.2c.133-.067.2-.167.2-.3l.1-.2.7-3.7 1.8.1-.7 3.6c-.1.7-.4 1.3-.8 1.6l-.6.4c-.6.3-1.2.4-1.5.4H21Zm6.1-4.2-.1.6 2.3.1-.3 1.5-2.3-.1-.1.5 2.5.2-.3 1.6-4.3-.2 1.1-5.9 4.4.2-.4 1.6-2.5-.1Zm5.5-1.4-.8 4.3 2.6.1-.4 1.7-4.3-.2 1.1-6 1.8.1Z" class="&lt;Compound Path&gt;"/>
            <path fill="#FEFEFE" fill-rule="evenodd" d="m36.5 45.3 1.2-6 2.4.1c.867.067 1.533.4 2 1 .4.6.533 1.333.4 2.2-.133.867-.533 1.567-1.2 2.1-.667.533-1.467.767-2.4.7l-2.4-.1Zm2.6-4.2-.5 2.6h.7c.333.067.633-.033.9-.3.2-.2.333-.5.4-.9s.033-.733-.1-1c-.133-.2-.367-.334-.7-.4h-.7Z" class="&lt;Compound Path&gt;" clip-rule="evenodd"/>
            <path fill="#FEFEFE" d="m45.3 41.4-.1.5 2.4.2-.3 1.5-2.4-.1-.1.5 2.6.1-.3 1.7-4.4-.2 1.1-6 4.4.2-.3 1.7-2.6-.1Zm9.7 1a1.51 1.51 0 0 0-.5-.6c-.2-.067-.467-.1-.8-.1-.333-.067-.667.033-1 .3a1.58 1.58 0 0 0-.6 1c-.067.4 0 .733.2 1 .2.333.5.5.9.5.2 0 .4-.033.6-.1.2-.067.334-.167.4-.3l.1-.1h-1.2l.3-1.5 3.1.2-.2 1.2c-.2.7-.6 1.2-1 1.5-.2.2-.4.333-.6.4-.267.133-.5.233-.7.3-.133 0-.3.033-.5.1h-.7c-.866-.067-1.533-.4-2-1-.533-.667-.733-1.433-.6-2.3.2-.867.667-1.567 1.4-2.1.733-.6 1.533-.867 2.4-.8 1.2.067 2.033.6 2.5 1.6l-1.5.8Zm4.1 4.1s-.1 0-.5-.1c-.3-.1-.6-.2-.9-.4-.4-.3-.6-.6-.7-1.2 0-.267.033-.567.1-.9l.6-3.6h1.8l-.6 3.7c-.1 0-.1.1 0 .3v.2c.1.1.3.3.6.3a.68.68 0 0 0 .5-.2.654.654 0 0 0 .3-.3l.1-.2.6-3.7 1.8.1-.6 3.6c-.2.7-.5 1.3-.8 1.6l-.6.4c-.6.3-1.2.4-1.5.4h-.2Zm-.2-8.5c.2-.133.433-.2.7-.2.267 0 .5.1.7.3.133.2.167.433.1.7 0 .333-.133.567-.4.7-.2.2-.433.3-.7.3-.333 0-.567-.1-.7-.3-.133-.2-.2-.467-.2-.8.067-.267.233-.5.5-.7Zm2.1.1c.267-.133.533-.2.8-.2s.5.1.7.3c.133.2.167.433.1.7-.067.333-.2.567-.4.7-.2.2-.467.3-.8.3-.267 0-.467-.1-.6-.3-.2-.2-.267-.467-.2-.8.067-.267.2-.5.4-.7Zm4.2 4.2-.1.6 2.4.1-.3 1.5-2.4-.1-.1.5 2.6.1-.3 1.7-4.4-.2 1.1-6 4.4.2-.3 1.7-2.6-.1Zm6.2 3.9h-.5l-.8-1.8-.5 2.5-1.8-.1 1.1-6 1.7.1 1.1 2.3 1.9-2.2 1.7.1-1.1 6-1.8-.1.4-2.5-1.4 1.7Zm6.3-3.3-.1.6 2.4.1-.3 1.5-2.4-.1-.1.5 2.6.1-.3 1.7-4.4-.2 1.1-6 4.4.2-.3 1.7-2.6-.1Zm4 2.3c.4.467.833.7 1.3.7.333.067.533 0 .6-.2 0-.067-.1-.167-.3-.3l-.6-.3-.8-.4a1.985 1.985 0 0 1-.6-.7 1.083 1.083 0 0 1-.2-.9c.067-.333.3-.7.7-1.1.4-.4 1.1-.7 1.9-.6.7 0 1.3.2 1.6.5.3.3.5.5.6.7l.1.2-1.4.8-.5-.5c-.2-.067-.4-.1-.6-.1-.3 0-.5.1-.5.2-.1.2.2.4.6.5.2.067.433.167.7.3l.6.4a.97.97 0 0 1 .4.6c.133.267.167.533.1.8-.067.4-.3.8-.7 1.2-.4.4-1.2.6-2 .6-.733-.067-1.3-.267-1.7-.6a2.112 2.112 0 0 1-.7-1l1.4-.8Z" class="&lt;Compound Path&gt;"/>
          </g>
        </g>
      </g>
      <g class="&lt;Group&gt;">
        <g class="&lt;Group&gt;">
          <path fill="#7055A3" d="m93.2 38-65.5-2.7.6-3.8 65.3 2.7-.4 3.8Z" class="&lt;Path&gt;"/>
        </g>
        <g class="&lt;Group&gt;">
          <g class="&lt;Group&gt;">
            <path fill="#FEFEFE" d="M33.8 32.9a1.51 1.51 0 0 0-.5-.6c-.2-.067-.467-.1-.8-.1-.334 0-.667.1-1 .3a1.58 1.58 0 0 0-.6 1c-.067.4 0 .767.2 1.1.2.267.5.4.9.4.267 0 .467-.033.6-.1.2-.067.333-.133.4-.2l.1-.2H32l.2-1.4 3.1.1-.2 1.2c-.2.7-.6 1.2-1 1.5a.97.97 0 0 1-.6.4l-.6.3c-.2 0-.4.033-.6.1h-.6c-.933-.067-1.633-.4-2.1-1-.533-.6-.7-1.367-.5-2.3.133-.867.566-1.567 1.3-2.1.733-.6 1.533-.867 2.4-.8 1.2.067 2.033.6 2.5 1.6l-1.5.8Z" class="&lt;Compound Path&gt;"/>
            <path fill="#FEFEFE" fill-rule="evenodd" d="m40.9 37-2.2-.1-1-1.5h-.1l-.3 1.5-1.8-.1 1.1-6 2.5.1c.1 0 .1 0 .5.1.3.1.6.1.9.4.3.2.5.5.6 1 .067.267.067.567 0 .9-.2.8-.667 1.4-1.4 1.8l1.2 1.9Zm-2.8-4.5-.2 1.1h.7c.333.066.533-.1.6-.5.1-.4-.1-.6-.4-.6h-.7Zm8.2-1.3 1.1 6.1-1.9-.1-.1-.6-2-.1-.3.6-2-.1 3.4-5.9 1.8.1Zm-2 3.7h.8l-.2-1.3-.6 1.3Z" class="&lt;Compound Path&gt;" clip-rule="evenodd"/>
            <path fill="#FEFEFE" d="m50.9 31.4-.8 4.3 2.5.2-.3 1.7-4.3-.2 1.1-6h1.8Zm2.6 4.6c.267-.2.533-.3.8-.3s.467.133.6.4c.2.2.267.433.2.7-.067.267-.2.5-.4.7-.267.2-.533.267-.8.2-.267 0-.467-.1-.6-.3a.694.694 0 0 1-.2-.7c.067-.267.2-.5.4-.7Zm7.8 1.3h-.5l-.8-1.9-.4 2.5-1.8-.1 1.1-6 1.7.1 1.1 2.4 1.9-2.3 1.7.1-1.2 6-1.8-.1.5-2.5-1.5 1.8Z" class="&lt;Compound Path&gt;"/>
            <path fill="#FEFEFE" fill-rule="evenodd" d="m69.9 32.3 1.1 6.1-2-.1-.1-.6-1.9-.1-.4.6-1.9-.1 3.3-5.8h1.9Zm-2 3.6h.8l-.1-1.3-.7 1.3Zm9 2.8-2.1-.1-1-1.5-.2-.1-.3 1.5h-1.8l1.2-6 2.4.1c.1 0 .2 0 .5.1.3 0 .6.1.9.4.3.2.6.5.6 1 .067.267.067.567 0 .9-.133.8-.567 1.367-1.3 1.7l1.1 2Zm-2.8-4.4-.2 1.1h.7c.333 0 .5-.167.5-.5.1-.4 0-.6-.3-.6h-.7Z" class="&lt;Compound Path&gt;" clip-rule="evenodd"/>
            <path fill="#FEFEFE" d="m79.5 34.5-1.7-.1.3-1.7 5.2.3-.4 1.7-1.6-.1-.8 4.3-1.8-.1.8-4.3Zm3.3 4.5 1.2-6 1.8.1-1.2 6-1.8-.1Zm3.1-6.5h-1.8l1.1-1.6 2 .1-1.3 1.5Zm6.2.9-1.1 6-1.7-.1-1.4-2.7-.5 2.6-1.8-.1 1.1-6 1.6.1 1.5 2.7.5-2.6 1.8.1Z" class="&lt;Compound Path&gt;"/>
          </g>
        </g>
      </g>
    </g>
    <g class="texto a">
      <g class="&lt;Group&gt;">
        <g class="&lt;Group&gt;">
          <path fill="#FEFEFE" fill-rule="evenodd" d="M24.6 1.4c.9 0 1.9.1 1.3 3-.5 2.6-1.4 2.7-2.8 2.6h-.5l1.2-5.7.8.1Zm-.3.7-.8 4.4c1.2.1 1.4-1.1 1.6-2.1.2-.8.5-2.3-.8-2.3Z" class="&lt;Compound Path&gt;" clip-rule="evenodd"/>
          <path fill="#FEFEFE" d="M26.7 7.2H26l1.1-5.7h.8l-1.2 5.7Zm.7-5.9-.3-.2.8-1.1.5.3-1 1Z" class="&lt;Compound Path&gt;"/>
          <path fill="#FEFEFE" fill-rule="evenodd" d="m30 1.6.1 5.7h-.8V6.2l-1.1-.1-.4 1.1H27l2.4-5.6h.6Zm-.6 3.1.1-2-1.1 2.8.9.1.1-.9Zm4.3-2.9c.9 0 1.9.1 1.4 3-.6 2.6-1.5 2.7-2.8 2.6h-.5l1.1-5.7.8.1Zm-.2.7-.9 4.3c1.2.1 1.4-1 1.6-2 .2-.9.6-2.4-.7-2.3Z" class="&lt;Compound Path&gt;" clip-rule="evenodd"/>
          <path fill="#FEFEFE" d="m38.3 2-.2.6h-1.2l-.4 1.7 1.1.1-.1.6h-1.1L36 6.9l1.3.1-.2.6-2-.1 1.1-5.6 2.1.1Zm2.5.1-1 5H41l-.1.7-2-.1L40 2l.8.1Z" class="&lt;Compound Path&gt;"/>
          <path fill="#FEFEFE" fill-rule="evenodd" d="m43.7 2.2.1 5.7h-.7V6.7h-1.2l-.4 1.1h-.7l2.3-5.6h.6Zm-.6 3.1.1-2.1-1 2.9h.9v-.8Z" class="&lt;Compound Path&gt;" clip-rule="evenodd"/>
          <path fill="#FEFEFE" d="m47.4 2.3-1 5 1.3.1-.2.6h-2l1.1-5.7h.8Zm1.2 5.8h-.8L49 2.4h.7l-1.1 5.7Z" class="&lt;Compound Path&gt;"/>
          <path fill="#FEFEFE" fill-rule="evenodd" d="m49.3 8.1 1.1-5.6h1c1 0 1.2.6 1 1.6-.1.5-.3 1.1-1 1.2.6.2.7.7.6 1.4-.2 1-.7 1.5-1.8 1.5l-.9-.1Zm.9-.6c.6 0 .8-.3 1-.9.1-.7 0-1.1-.7-1.1l-.3 2Zm1.1-4.4h-.2L50.8 5c.7 0 .8-.4 1-1 .1-.4 0-.8-.5-.9Z" class="&lt;Compound Path&gt;" clip-rule="evenodd"/>
          <path fill="#FEFEFE" d="m55.4 2.7-.1.6H54L53.7 5l1.1.1-.1.6h-1.2l-.3 1.9 1.2.1-.1.6-2-.1 1.1-5.6 2 .1Z" class="&lt;Compound Path&gt;"/>
          <path fill="#FEFEFE" fill-rule="evenodd" d="M55.8 2.7h1c.5 0 1.4.1 1.1 1.5-.1.6-.4 1.4-1.1 1.5l.5 2.8-.8-.1-.5-2.8-.5 2.8-.8-.1 1.1-5.6ZM57 4.4c.1-.5.1-1-.4-1h-.2l-.3 1.9c.5 0 .8-.3.9-.9Z" class="&lt;Compound Path&gt;" clip-rule="evenodd"/>
          <path fill="#FEFEFE" d="m60.7 2.9-.1.6h-.9l-1 5h-.8l1-5-.8-.1.1-.6 2.5.1Z" class="&lt;Compound Path&gt;"/>
          <path fill="#FEFEFE" fill-rule="evenodd" d="m62 2.9.1 5.8-.7-.1V7.5h-1.2l-.4 1.1-.7-.1 2.4-5.6h.5Zm-.7 3.2.1-2.1-1 2.9h.9v-.8ZM64.4 3c.9.1 1.9.2 1.4 3.1-.6 2.6-1.5 2.6-2.8 2.6h-.6L63.6 3h.8Zm-.2.6L63.3 8c1.2.1 1.4-1.1 1.6-2 .2-.9.6-2.4-.7-2.4Z" class="&lt;Compound Path&gt;" clip-rule="evenodd"/>
        </g>
      </g>
      <g class="&lt;Group&gt;">
        <path fill="#7055A3" d="m69.4 17.5-46.4-2 1.1-4.4 45.9 2-.6 4.4Z" class="&lt;Path&gt;"/>
      </g>
      <g class="&lt;Group&gt;">
        <g class="&lt;Group&gt;">
          <path fill="#FEFEFE" d="m29.8 9.7-.9 5 3 .1-.4 2-5.1-.2 1.3-7 2.1.1Z" class="&lt;Compound Path&gt;"/>
          <path fill="#FEFEFE" fill-rule="evenodd" d="m38 10.1 1.3 7.1-2.3-.1-.1-.8-2.3-.1-.3.7-2.3-.1 3.9-6.8 2.1.1Zm-2.4 4.2h1l-.2-1.4-.8 1.4Z" class="&lt;Compound Path&gt;" clip-rule="evenodd"/>
          <path fill="#FEFEFE" d="m41.3 12.2-1.9-.1.3-1.9 6 .2-.4 2-1.9-.1-.9 5-2.1-.1.9-5Zm3.9 5.2 1.3-6.9 2.1.1-1.3 6.9-2.1-.1ZM56 10.9l-1.4 7-1.9-.1-1.6-3.1-.6 3-2.1-.1 1.3-7 1.9.1 1.7 3.2.6-3.1 2.1.1Z" class="&lt;Compound Path&gt;"/>
          <path fill="#FEFEFE" fill-rule="evenodd" d="M60.7 11c1 .067 1.8.467 2.4 1.2.6.733.8 1.6.6 2.6-.2 1-.733 1.833-1.6 2.5-.8.667-1.733.967-2.8.9-1.067 0-1.867-.367-2.4-1.1-.6-.734-.8-1.6-.6-2.6.2-1.067.7-1.9 1.5-2.5.867-.667 1.833-1 2.9-1Zm-1 5.3c.4 0 .767-.167 1.1-.5.4-.267.633-.633.7-1.1.066-.467 0-.867-.2-1.2-.267-.333-.6-.5-1-.5s-.8.133-1.2.4a2.067 2.067 0 0 0-.6 1.2c-.133.4-.067.767.2 1.1.2.4.533.6 1 .6Z" class="&lt;Compound Path&gt;" clip-rule="evenodd"/>
          <path fill="#FEFEFE" d="m64.3 16.8.4-2 3.9.2-.4 1.9-3.9-.1Z" class="&lt;Compound Path&gt;"/>
        </g>
      </g>
      <g class="&lt;Group&gt;">
        <path fill="#7055A3" d="M77.3 26.1 12 23.6l1.1-4.4 64.8 2.5-.6 4.4Z" class="&lt;Path&gt;"/>
      </g>
      <g class="&lt;Group&gt;">
        <g class="&lt;Group&gt;">
          <path fill="#FEFEFE" fill-rule="evenodd" d="m20 17.9 1.3 7.1-2.3-.1-.1-.8-2.3-.1-.4.7-2.2-.1 3.9-6.8 2.1.1Zm-2.4 4.2h1l-.2-1.4-.8 1.4Z" class="&lt;Compound Path&gt;" clip-rule="evenodd"/>
          <path fill="#FEFEFE" d="m26 24.4-.5-.1-1-2.1-.5 2.9-2.1-.1 1.3-7 2 .1 1.2 2.8 2.3-2.6 1.9.1-1.3 6.9-2.1-.1.5-2.9-1.7 2.1Zm7.4-3.9-.1.6 2.8.2-.4 1.8-2.7-.2-.1.6 2.9.2-.3 1.9-5.1-.2 1.3-7 5.1.3-.4 1.9-3-.1Z" class="&lt;Compound Path&gt;"/>
          <path fill="#FEFEFE" fill-rule="evenodd" d="m42.7 26-2.5-.2-1.1-1.8h-.2l-.4 1.8-2.1-.1 1.4-7 2.8.1c.1.1.2 0 .6.1.4.1.7.2 1 .5.4.3.7.6.8 1.2 0 .333-.033.666-.1 1-.133 1-.633 1.7-1.5 2.1l1.3 2.3Zm-3.3-5.2-.2 1.3h.8c.4 0 .633-.2.7-.6.1-.4-.1-.7-.5-.7h-.8Z" class="&lt;Compound Path&gt;" clip-rule="evenodd"/>
          <path fill="#FEFEFE" d="m43.3 26 1.3-7 2.1.1-1.3 7-2.1-.1Zm11-2.4a4.359 4.359 0 0 1-1.7 2.1c-.8.533-1.633.767-2.5.7-1.067 0-1.9-.367-2.5-1.1-.533-.733-.7-1.6-.5-2.6.2-1 .7-1.833 1.5-2.5.867-.667 1.8-1 2.8-1 .933.067 1.7.4 2.3 1 .533.6.8 1.367.8 2.3l-2.2-.1a2.2 2.2 0 0 0-.4-.9c-.267-.2-.533-.3-.8-.3-.467 0-.867.133-1.2.4a2.726 2.726 0 0 0-.7 1.2c-.067.467.033.867.3 1.2.2.333.5.5.9.5.333 0 .633-.1.9-.3.333-.2.6-.433.8-.7l2.2.1Z" class="&lt;Compound Path&gt;"/>
          <path fill="#FEFEFE" fill-rule="evenodd" d="m59.9 19.7 1.2 7.1-2.2-.1-.1-.7-2.3-.1-.4.7-2.3-.1 3.9-6.9 2.2.1ZM57.6 24h.9l-.2-1.5-.7 1.5Z" class="&lt;Compound Path&gt;" clip-rule="evenodd"/>
          <path fill="#FEFEFE" d="m69.3 20.2-1.3 7-1.9-.1-1.7-3.2-.5 3.1-2.1-.1 1.3-7 1.9.1 1.7 3.1.5-3 2.1.1Z" class="&lt;Compound Path&gt;"/>
          <path fill="#FEFEFE" fill-rule="evenodd" d="m74.7 20.4 1.3 7.1-2.3-.1-.1-.7-2.3-.1-.3.7-2.3-.1 3.9-6.9 2.1.1Zm-2.4 4.3h1l-.2-1.5-.8 1.5Z" class="&lt;Compound Path&gt;" clip-rule="evenodd"/>
        </g>
      </g>
    </g>
  </g>
</svg>
