<svg xmlns="http://www.w3.org/2000/svg" width="86" height="85" fill="none" viewBox="0 0 86 85">
  <g class="6-20-ilus">
    <g class="brazo derecho">
      <g class="mano">
        <path fill="#B3805F" d="M53.826 62.306s2.5.4 3.8-.9c1.4-1.3.2-5.1-2.1-4.5-2 .5-2.8 1.5-2.7 2.1 0 .6 1 3.3 1 3.3Z" class="&lt;Path&gt;"/>
        <path fill="#050505" fill-rule="evenodd" d="M53.626 62.506v-.1c-.1-.1-1-2.8-1-3.4-.1-.7.9-1.8 2.9-2.3 1.2-.206 1.9.2 2.4 1.2.6 1.2.8 2.8-.1 3.7-1.5 1.4-4 1-4.1.9h-.1Zm3.6-4.8c-.3-.4-.8-.8-1.6-.6-1.9.5-2.7 1.4-2.6 1.9 0 .4.6 2.3.9 3.1.5.1 2.5.2 3.6-.8.7-.7.6-2.2.1-3.2l-.4-.4Z" class="&lt;Compound Path&gt;" clip-rule="evenodd"/>
        <path fill="#B3805F" d="M54.826 57.106c.3-.2.7-.2 1 .1l.6.9c.3.3.2.7-.1.9-.3.3-.7.2-.9-.1l-.5-.5" class="&lt;Path&gt;"/>
        <g class="&lt;Group&gt;" opacity=".1" style="mix-blend-mode:multiply">
          <g class="Clip path group">
            <mask id="a" width="4" height="4" x="54" y="57" class="a" maskUnits="userSpaceOnUse" style="mask-type:luminance">
              <g class="cp288">
                <path fill="#fff" d="m55.726 60.356-1.19-1.38 1.39-1.2 1.19 1.38-1.39 1.2Z" class="Vector"/>
              </g>
            </mask>
            <g class="&lt;Clip Group&gt;" mask="url(#a)">
              <path fill="#050505" d="M55.026 58.506s.8 1.1 1.3.6c.5-.6.6-.2.6-.2s-.1.8-.9 1c-.7.3-1.6-.8-1-1.4Z" class="&lt;Path&gt;"/>
            </g>
          </g>
        </g>
        <g class="&lt;Group&gt;" opacity=".1" style="mix-blend-mode:multiply">
          <g class="Clip path group">
            <mask id="b" width="6" height="6" x="52" y="58" class="b" maskUnits="userSpaceOnUse" style="mask-type:luminance">
              <g class="cp289">
                <path fill="#fff" d="m54.876 63.346-2.43-2.82 2.41-2.08 2.43 2.81-2.41 2.09Z" class="Vector"/>
              </g>
            </mask>
            <g class="&lt;Clip Group&gt;" mask="url(#b)">
              <path fill="#050505" d="M54.826 58.407s-.6.4-.4 1.5c.2 1.1.3 1.6.1 1.7-.3.1-.8.1-.8.4.1.3.8.7 1.5.5.7-.2 1.2-.5 1.2-.5s-1.3-.9-1.5-1.6c-.2-.7-.1-2-.1-2Z" class="&lt;Path&gt;"/>
            </g>
          </g>
        </g>
      </g>
      <path fill="#F1F1F1" d="M37.526 63.506c-.6-3.1 2.1-3.4 2.1-3.4l13.8-2.9 1.7 6.1-14.7 2.9s-2.4.7-2.9-2.7Z" class="&lt;Path&gt;"/>
      <path fill="#050505" fill-rule="evenodd" d="M38.126 65.706c-.4-.533-.667-1.233-.8-2.1-.2-1.133-.067-2.033.4-2.7.7-.8 1.7-1 1.9-1l13.8-2.9c.1 0 .2.1.2.2l1.7 6v.2c-.067.067-.133.1-.2.1l-14.6 2.9c-.1.1-1 .3-1.9-.3a3.28 3.28 0 0 0-.5-.4Zm15.2-8.2-13.7 2.8s-.9.1-1.5.9c-.467.6-.6 1.367-.4 2.3.133 1.134.533 1.9 1.2 2.3.7.4 1.5.2 1.5.2l14.4-2.9-1.5-5.6Z" class="&lt;Compound Path&gt;" clip-rule="evenodd"/>
      <g class="brazo" opacity=".1" style="mix-blend-mode:multiply">
        <g class="Clip path group">
          <mask id="c" width="20" height="19" x="35" y="52" class="c" maskUnits="userSpaceOnUse" style="mask-type:luminance">
            <g class="cp290">
              <path fill="#fff" d="m42.246 70.096-6.34-7.34 12.35-10.66 6.34 7.33-12.35 10.67Z" class="Vector"/>
            </g>
          </mask>
          <g class="&lt;Clip Group&gt;" mask="url(#c)">
            <path fill="#050505" d="M46.326 62.806c2.7.7 7.1-1.5 6.9-2.7-.1-.7-.3-2-.4-2.7l-13.2 2.7s-2.7.3-2.1 3.4c.5 3.4 2.9 2.7 2.9 2.7l5.6-1.1c-1-1.4-2.2-2.9.3-2.3Z" class="&lt;Path&gt;"/>
          </g>
        </g>
      </g>
      <g class="manoConBandera">
        <g class="bandera">
          <g class="&lt;Group&gt;">
            <g class="&lt;Group&gt;">
              <g class="&lt;Group&gt;">
                <path fill="#427EC0" d="M83.526 23.806c-10.2-2.6-18.3 7.7-28.5 5.2-1.3-.4-2.3-1.7-2.5-3l-2-19c-.1-1.2 1.1-1.7 2.1-1.3 10.1 2.5 18.2-7.7 28.4-5.2 1.3.4 2.3 1.7 2.5 3l2 19c.3 1.3-1.2 1.5-2 1.3Z" class="&lt;Path&gt;"/>
                <path fill="#FEFEFE" d="M85.026 17.306c-5.8-2.6-11.1-.6-16.5 1.8-5.5 2.3-10.8 4.3-16.5 1.7a348.313 348.313 0 0 1-.9-8.7c5.7 2.6 11 .7 16.5-1.7 5.4-2.4 10.7-4.3 16.5-1.7a379.1 379.1 0 0 0 .9 8.6Z" class="&lt;Path&gt;" opacity=".2"/>
                <path fill="#FEFEFE" d="M84.926 16.806c-5.7-2.6-11.1-.6-16.5 1.8-5.4 2.3-10.7 4.3-16.5 1.7l-.8-7.6c5.8 2.6 11.1.6 16.5-1.8 5.4-2.3 10.8-4.3 16.5-1.7l.8 7.6Z" class="&lt;Path&gt;"/>
                <path fill="#652672" d="M55.026 29.006c-1.3-.4-2.3-1.7-2.5-3l-2-19c-.1-1.2 1.1-1.7 2.1-1.3" class="&lt;Path&gt;" opacity=".2"/>
              </g>
            </g>
            <g class="&lt;Group&gt;">
              <path fill="#D68B3E" d="M50.226 3.606c-.6.1-1 .6-.9 1.1l6.5 62.3c.1.6.6 1 1.1.9.6 0 1-.5.9-1.1l-6.5-62.3c-.1-.5-.6-.9-1.1-.9Z" class="&lt;Path&gt;"/>
              <path fill="#652672" d="m51.426 5.506-.1-1c-.1-.5-.6-.9-1.1-.9-.6.1-1 .6-.9 1.1l.1 1.8c.733-.266 1.4-.6 2-1Z" class="&lt;Path&gt;" opacity=".2"/>
              <path fill="#652672" d="M57.626 67.106c-.6.1-1.1-.3-1.1-.9l-6.6-62.3v-.2c-.4.1-.7.6-.6 1l6.5 62.3c.1.6.6 1 1.1.9.5 0 .9-.4.9-.8h-.2Z" class="&lt;Path&gt;" opacity=".2"/>
              <path fill="#FEC30B" d="M52.826 2.506c.2 1.5-.9 2.8-2.4 3-1.5.1-2.9-1-3-2.5-.2-1.5.9-2.8 2.4-3 1.5-.1 2.8 1 3 2.5Z" class="&lt;Path&gt;"/>
              <path fill="#FEFEFE" d="M51.526 1.006c.3.2.4.6.3.8-.2.1-.5.1-.8-.2-.4-.3-.5-.6-.4-.8.2-.1.5-.1.9.2Z" class="&lt;Path&gt;" opacity=".2"/>
              <path fill="#CA4F36" d="M51.026 4.706c-1.5.1-2.8-1-3-2.5 0-.5.1-1.1.3-1.5-.6.5-1 1.4-.9 2.3.1 1.5 1.5 2.6 3 2.5.9-.1 1.7-.7 2.1-1.5-.4.4-.9.6-1.5.7Z" class="&lt;Path&gt;" opacity=".3"/>
            </g>
          </g>
        </g>
        <g class="mano">
          <path fill="#B3805F" d="m54.426 57.506.7-.3.5-.1.7.8.3.7.6-.7.3 3.4-.8.7-.8-.4-.7-1-.3-1.4v-.8l-.5-.9Z" class="color mano"/>
          <g class="sombra" opacity=".1" style="mix-blend-mode:multiply">
            <g class="Clip path group">
              <mask id="d" width="4" height="4" x="54" y="57" class="d" maskUnits="userSpaceOnUse" style="mask-type:luminance">
                <g class="cp299">
                  <path fill="#fff" d="m55.726 60.356-1.19-1.38 1.39-1.2 1.19 1.38-1.39 1.2Z" class="Vector"/>
                </g>
              </mask>
              <g class="&lt;Clip Group&gt;" mask="url(#d)">
                <path fill="#050505" d="M55.026 58.506s.8 1.1 1.3.6c.5-.6.6-.2.6-.2s-.1.8-.9 1c-.7.3-1.6-.8-1-1.4Z" class="&lt;Path&gt;"/>
              </g>
            </g>
          </g>
          <g class="sombra" opacity=".1" style="mix-blend-mode:multiply">
            <g class="Clip path group">
              <mask id="e" width="4" height="6" x="54" y="58" class="e" maskUnits="userSpaceOnUse" style="mask-type:luminance">
                <g class="cp300">
                  <path fill="#fff" d="m54.986 63.016-.92-3.78.79-.79 2.43 2.81-2.3 1.76Z" class="Vector"/>
                </g>
              </mask>
              <g class="&lt;Clip Group&gt;" mask="url(#e)">
                <path fill="#050505" d="M54.826 58.407s-.6.4-.4 1.5c.2 1.1.3 1.6.1 1.7-.3.1-.8.1-.8.4.1.3.8.7 1.5.5.7-.2 1.2-.5 1.2-.5s-1.3-.9-1.5-1.6c-.2-.7-.1-2-.1-2Z" class="&lt;Path&gt;"/>
              </g>
            </g>
          </g>
          <path stroke="#000" stroke-width=".4" d="m53.726 57.5 1.192-.298c.484-.121.993.076 1.27.491l.247.37a.64.64 0 1 1-1.106.642l-.097-.192a.059.059 0 0 1-.006-.027c0-.07-.1-.083-.118-.015l-.354 1.418a.24.24 0 0 0 .04.202l.872 1.162a1.295 1.295 0 0 0 2.265-.368l.111-.333c.12-.36.135-.748.043-1.117l-.115-.46a3.628 3.628 0 0 0-.955-1.686L56.726 57" class="Vector 13"/>
        </g>
      </g>
    </g>
    <g class="cuerpoEstatico">
      <path fill="#050505" d="M22.526 79.906c-.1 1.7 6.1 3.5 13.9 4 7.8.5 14.3-.5 14.4-2.2.1-1.8-6.2-3.6-14-4.1-7.8-.4-14.2.6-14.3 2.3Z" class="sombra piso" opacity=".3"/>
      <g class="piernas">
        <path fill="#050505" d="M33.426 79.206s-.5 1 1.3 2l-9.1-.4.4-1.9 7.4.3Z" class="&lt;Path&gt;"/>
        <path fill="#050505" fill-rule="evenodd" d="M25.626 81.006h-.1c-.067-.066-.1-.133-.1-.2l.4-1.9c0-.1.1-.2.2-.2l7.4.3c.067 0 .133.034.2.1.067.067.067.134 0 .2 0 0-.1.2 0 .6.133.4.533.767 1.2 1.1 0 0 .1.1.1.2-.1.1-.2.2-.3.2l-9-.4Zm8.3-.1c-.333-.266-.567-.566-.7-.9a.925.925 0 0 1 0-.6l-7-.2-.3 1.4 8 .3Z" class="&lt;Compound Path&gt;" clip-rule="evenodd"/>
        <path fill="#2B6EB6" d="m26.726 72.506-1.1 7 8 .5 2.2-6.6" class="&lt;Path&gt;"/>
        <path fill="#050505" d="m25.626 79.706 8 .5c.133 0 .2-.066.2-.2l2.2-6.5c0-.1 0-.2-.1-.3-.1 0-.3 0-.3.2l-2.1 6.3-7.7-.4 1.1-6.8c0-.1-.1-.2-.2-.2-.1-.1-.2 0-.2.1l-1.1 7v.2c.067.067.133.1.2.1Z" class="&lt;Path&gt;"/>
        <g class="&lt;Group&gt;" opacity=".2" style="mix-blend-mode:multiply">
          <g class="Clip path group">
            <mask id="f" width="10" height="6" x="25" y="74" class="f" maskUnits="userSpaceOnUse" style="mask-type:luminance">
              <g class="cp286">
                <path fill="#fff" d="m34.566 79.397-8.81-.68.32-4.2 8.81.68-.32 4.2Z" class="Vector"/>
              </g>
            </mask>
            <g class="&lt;Clip Group&gt;" mask="url(#f)">
              <path fill="#050505" d="M25.726 78.706s.6-1.9 2.2-1.9c1.5 0 5.9 1.2 6.5 1.3l.4-1.9-8.5-1.7s-.2 2.8-.6 4.2Z" class="&lt;Path&gt;"/>
            </g>
          </g>
        </g>
        <path fill="#050505" d="M45.926 79.606s-.3.9 2.3 2l-9-.4-.4-1.9 7.1.3Z" class="&lt;Path&gt;"/>
        <path fill="#050505" fill-rule="evenodd" d="M39.226 81.506c-.133-.066-.2-.133-.2-.2l-.4-1.9v-.2c.067-.066.133-.1.2-.1l7.1.3c.067 0 .133.034.2.1v.1c0 .1 0 .8 2.2 1.8.1 0 .1.1.1.2s-.1.2-.2.2l-9-.3Zm8-.2c-1.2-.6-1.5-1.2-1.5-1.5l-6.7-.3.4 1.5 7.8.3Z" class="&lt;Compound Path&gt;" clip-rule="evenodd"/>
        <path fill="#2B6EB6" d="m44.826 73.006 1.4 6.7-7.7.2-2.6-6.7" class="&lt;Path&gt;"/>
        <path fill="#050505" d="m38.526 80.106 7.7-.2c.067 0 .1-.033.1-.1.067 0 .1-.033.1-.1l-1.4-6.7c-.1-.1-.2-.2-.3-.2-.1.1-.2.2-.1.3l1.3 6.4-7.3.2-2.5-6.6c-.1-.1-.2-.2-.3-.1-.1 0-.2.2-.1.3l2.6 6.7c.067.067.133.1.2.1Z" class="&lt;Path&gt;"/>
        <g class="&lt;Group&gt;" opacity=".2" style="mix-blend-mode:multiply">
          <g class="Clip path group">
            <mask id="g" width="11" height="7" x="36" y="73" class="g" maskUnits="userSpaceOnUse" style="mask-type:luminance">
              <g class="cp287">
                <path fill="#fff" d="m45.726 79.086-9.1-.69.34-4.52 9.1.7-.34 4.51Z" class="Vector"/>
              </g>
            </mask>
            <g class="&lt;Clip Group&gt;" mask="url(#g)">
              <path fill="#050505" d="M38.026 78.506s1.8.2 3.5-.2 4.3-.6 4.3-.6l-.7-3.2-8.3.8 1.2 3.2Z" class="&lt;Path&gt;"/>
            </g>
          </g>
        </g>
      </g>
      <g class="cuerpo">
        <path fill="#F1F1F1" d="M35.626 63.206s2.7-2.6 3.6-2.9c1-.2 1.8-.7 2.5.3 1 1.2 3.3 4.9 4.6 12-.4 1.5-2.4 2.3-6 3-4.8.9-7.9.6-11.3.6-3.3 0-4.2-.3-4.2-.7 1.2-10.8-1.1-14.4-1.1-14.4l6.2.3 5.7 1.8Z" class="&lt;Path&gt;"/>
        <path fill="#050505" fill-rule="evenodd" d="M26.526 76.306c-1.2-.1-1.6-.3-1.8-.4a.888.888 0 0 1-.1-.4c1.2-10.6-1-14.2-1-14.2-.067-.066-.1-.166-.1-.3.067-.066.133-.1.2-.1l6.2.3 5.6 1.8c.5-.5 2.8-2.6 3.7-2.9a.889.889 0 0 0 .4-.1c.8-.2 1.6-.5 2.3.5.9 1.2 3.3 4.9 4.6 12.1v.1c-.4 1.5-2.3 2.4-6.1 3.1-3.8.7-6.6.7-9.2.6h-2.2c-1 0-1.9 0-2.5-.1Zm19.6-3.7c-1.3-7.1-3.6-10.7-4.5-11.9-.6-.7-1.1-.5-1.9-.3a.887.887 0 0 1-.4.1c-.8.2-2.9 2.2-3.6 2.9-.067.067-.133.067-.2 0l-5.7-1.8-5.7-.2c.5 1.1 1.9 5.1.9 14.1v.1c.2.2 1.1.4 4 .4h2.2c2.6 0 5.3.1 9.1-.6 3.6-.7 5.4-1.5 5.8-2.8Z" class="&lt;Compound Path&gt;" clip-rule="evenodd"/>
        <path fill="#050505" fill-rule="evenodd" d="M29.026 74.406c-.7 0-1.3-.3-1.7-.7-.4-.5-.6-1.2-.6-2.1l.2-1.9c0-.1.1-.2.2-.2h5.3v.2l-.2 1.9c-.1 1.7-1.3 2.8-2.9 2.8h-.3Zm-1.7-4.5-.1 1.8c-.1.7.1 1.3.4 1.7.4.4 1 .6 1.7.6 1.1 0 2.4-.6 2.5-2.4l.2-1.7h-4.7Z" class="&lt;Compound Path&gt;" clip-rule="evenodd"/>
        <path fill="#ED3937" d="m32.226 70.606-5.2.1Z" class="&lt;Path&gt;"/>
        <path fill="#050505" d="m27.026 70.906 5.2-.1v-.4l-5.2.1v.4Z" class="&lt;Path&gt;"/>
        <g class="&lt;Group&gt;" opacity=".1" style="mix-blend-mode:multiply">
          <g class="Clip path group">
            <mask id="h" width="7" height="6" x="28" y="70" class="h" maskUnits="userSpaceOnUse" style="mask-type:luminance">
              <g class="cp291">
                <path fill="#fff" d="m33.856 75.076-5.54-.43.3-3.88 5.54.42-.3 3.89Z" class="Vector"/>
              </g>
            </mask>
            <g class="&lt;Clip Group&gt;" mask="url(#h)">
              <path fill="#050505" d="M28.326 74.606s1.4.4 3.5-.9c2.2-1.3 2.3-2.5 2.3-2.5l-1.9.3s-.6 3-3.4 2.8l-.5.3Z" class="&lt;Path&gt;"/>
            </g>
          </g>
        </g>
        <path fill="#8DBEE6" d="M29.526 61.206s5.1 1.7 8.2 4.3c0 0 1.5-3.2.5-6.8l-8.7 2.5Z" class="&lt;Path&gt;"/>
        <path fill="#050505" d="M45.426 71.906c.267.067.567.034.9-.1.1 0 .1-.2.1-.3 0-.1-.2-.1-.3-.1-1 .4-1.4-.2-1.4-.3l-.9-3.1 1.3-.3c.1-.1.2-.2.1-.3 0-.1-.1-.2-.2-.1l-1.5.4c-.1 0-.2.1-.1.2l.9 3.3v.1s.3.6 1.1.6Z" class="&lt;Path&gt;"/>
        <path fill="#050505" d="M43.826 69.006h.1l1.5-.4c.1 0 .2-.1.2-.3-.1-.1-.2-.1-.3-.1l-1.5.4c-.2 0-.2.2-.2.3.067.067.133.1.2.1Z" class="&lt;Path&gt;"/>
        <g class="&lt;Group&gt;" opacity=".1" style="mix-blend-mode:multiply">
          <g class="Clip path group">
            <mask id="i" width="19" height="18" x="24" y="58" class="i" maskUnits="userSpaceOnUse" style="mask-type:luminance">
              <g class="cp292">
                <path fill="#fff" d="m40.986 75.906-16.47-1.26 1.24-16.08 16.46 1.26-1.23 16.08Z" class="Vector"/>
              </g>
            </mask>
            <g class="&lt;Clip Group&gt;" mask="url(#i)">
              <path fill="#050505" d="m30.726 60.306-5.2 1.1 6.2 2.9-2.4 1.3 8.4 1.1s.4 1.7.7 3c.4 1.4-.5 1.4-.1 1.7.5.4.8.9 1 1.7.2.9.2 2.7.2 2.7l.7-.6s-1-5-1.9-8.3l3.7-4-1.6-1 .8-2.2h-3.2l-.1 6.6-7.2-6Z" class="&lt;Path&gt;"/>
            </g>
          </g>
        </g>
        <path fill="#050505" d="M36.726 68.006c0 .3.2.5.5.5s.5-.3.5-.6c0-.2-.2-.5-.5-.4-.3 0-.5.2-.5.5Zm.4 2.3c0 .3.3.5.5.5.3-.1.6-.3.6-.6s-.3-.5-.6-.5c-.2 0-.5.3-.5.6Zm.6 2.201c0 .3.3.5.5.5.3 0 .6-.3.6-.6s-.3-.5-.5-.4c-.3 0-.6.2-.6.5Z" class="&lt;Path&gt;"/>
        <path fill="#FEFEFE" d="M37.926 66.006s1.3 3.4 2.3 9.5Z" class="&lt;Path&gt;"/>
        <path fill="#050505" d="M40.226 75.706h.1c.1 0 .2-.1.1-.2-.9-6.1-2.3-9.6-2.3-9.6-.1-.1-.2-.1-.3-.1-.1 0-.1.2-.1.3 0 0 1.4 3.4 2.3 9.4.067.134.133.2.2.2Z" class="&lt;Path&gt;"/>
        <path fill="#F0F1F1" d="M37.226 59.706s.3 2.9.7 6.3l4.1-4-2.6.6 2.9-3.3-5.1.4Z" class="&lt;Path&gt;"/>
        <path fill="#050505" fill-rule="evenodd" d="M37.926 66.206h-.1c-.067-.066-.1-.133-.1-.2-.4-3.3-.7-6.2-.7-6.2-.067-.066-.067-.133 0-.2l.1-.1 5.2-.4c.067 0 .133.034.2.1.067.067.067.134 0 .2l-2.5 2.9 2-.5c.067-.066.133-.033.2.1.067.067.067.134 0 .2l-4.2 4c0 .067-.033.1-.1.1Zm1.6-3.4c-.133 0-.2-.033-.2-.1-.067-.066-.067-.133 0-.2l2.5-3-4.4.4c.1.7.4 3 .7 5.6l3.2-3.1-1.8.4Z" class="&lt;Compound Path&gt;" clip-rule="evenodd"/>
        <path fill="#F0F1F1" d="M32.826 60.106s1.9 1.8 5.1 5.9l-6.9-1 2.5-.7-5.8-1.5 5.1-2.7Z" class="&lt;Path&gt;"/>
        <path fill="#050505" fill-rule="evenodd" d="m37.926 66.206-6.9-1c-.1 0-.2-.1-.2-.2s.1-.2.2-.2l1.7-.5-5-1.3c-.133-.066-.2-.133-.2-.2 0-.133.033-.2.1-.2l5.1-2.7c.133-.066.233-.066.3 0 0 .1 1.9 1.9 5.1 6v.2c-.067.067-.133.1-.2.1Zm-9.6-3.5 5.3 1.4c.067 0 .1.067.1.2 0 .067-.033.134-.1.2l-1.6.4 5.4.8c-2.6-3.2-4.2-4.9-4.6-5.4l-4.5 2.4Z" class="&lt;Compound Path&gt;" clip-rule="evenodd"/>
      </g>
      <g class="&lt;Group&gt;" opacity=".1" style="mix-blend-mode:multiply">
        <g class="Clip path group">
          <mask id="j" width="10" height="17" x="24" y="60" class="j" maskUnits="userSpaceOnUse" style="mask-type:luminance">
            <g class="cp293">
              <path fill="#fff" d="m31.906 76.556-7.59-.58 1.18-15.4 7.59.59-1.18 15.39Z" class="Vector"/>
            </g>
          </mask>
          <g class="&lt;Clip Group&gt;" mask="url(#j)">
            <path fill="#050505" d="M24.826 75.806s2 .8 3.9-.1 0-.3-1-.9c-1.1-.6-.5-1.5-.5-1.5s-.4-1.4-.1-3.6c0 0 1.9-.6 3.4-1.1 1.6-.6 1.1-1.8.4-1.6-.7.2 2.8-2 1.8-4.5-1-2.5-4.1-1.2-4.1-1.2l-3.6 6-.2 8.5Z" class="&lt;Path&gt;"/>
          </g>
        </g>
      </g>
      <g class="&lt;Group&gt;" opacity=".1" style="mix-blend-mode:multiply">
        <g class="Clip path group">
          <mask id="k" width="8" height="9" x="38" y="59" class="k" maskUnits="userSpaceOnUse" style="mask-type:luminance">
            <g class="cp294">
              <path fill="#fff" d="m44.816 67.346-6.33-.49.59-7.64 6.33.49-.59 7.64Z" class="Vector"/>
            </g>
          </mask>
          <g class="&lt;Clip Group&gt;" mask="url(#k)">
            <path fill="#050505" d="M38.926 61.106s4.5 1.6 5.9 6.2c0 0-.4-3.4-1.3-5-1-1.6-2.2-2.9-2.2-2.9l-2.4 1.7Z" class="&lt;Path&gt;"/>
          </g>
        </g>
      </g>
      <g class="cara">
        <path fill="#B3805F" d="M17.826 52.606c2.8 7.5 8.4 13.3 18.9 10.3 11.9-3.3 11.6-10.5 8.8-18-2.8-7.4-11.1-11.2-18.7-8.4-7.5 2.8-11.8 8.7-9 16.1Z" class="&lt;Path&gt;"/>
        <path fill="#050505" fill-rule="evenodd" d="M30.226 64.006c-2.2-.133-4.2-.8-6-2-2.9-1.8-5.1-4.9-6.7-9.2-1.3-3.6-1.1-7 .7-10 1.7-2.7 4.6-4.9 8.5-6.4 3.7-1.3 7.7-1.2 11.3.4 3.6 1.6 6.3 4.5 7.6 8.2.9 2.4 1.4 4.4 1.6 6.2.2 2.2-.1 4-.9 5.6-1.5 3-4.7 5.1-9.6 6.5-2.333.667-4.5.9-6.5.7Zm2.8-28c-2-.2-4.1.1-6.1.8-3.8 1.4-6.7 3.6-8.3 6.3-1.7 2.8-2 6.1-.7 9.6 2.4 6.4 7.6 13.3 18.7 10.2 4.8-1.4 7.9-3.4 9.3-6.2 1.4-2.9 1.2-6.4-.6-11.5-2-5.4-6.9-8.8-12.3-9.2Z" class="&lt;Compound Path&gt;" clip-rule="evenodd"/>
        <g class="&lt;Group&gt;" opacity=".1" style="mix-blend-mode:multiply">
          <g class="Clip path group">
            <mask id="l" width="27" height="26" x="15" y="39" class="l" maskUnits="userSpaceOnUse" style="mask-type:luminance">
              <g class="cp295">
                <path fill="#fff" d="m39.796 64.686-24.21-1.85 1.78-23.12 24.2 1.86-1.77 23.11Z" class="Vector"/>
              </g>
            </mask>
            <g class="&lt;Clip Group&gt;" mask="url(#l)">
              <path fill="#050505" d="m20.426 40.006 1.9.1s8.5 1.3 5.9 5c-2.6 3.7-2.3 5.1-2.1 6.3.1 1.2 1.9.5 1.9.5-5.7 4.1-2.7 9.2 2.2 10.4 3.6.9 8.1-.1 9.8-.5-.934.4-1.967.8-3.1 1.2-10.3 3.6-16.5-3.1-19.3-10.6-1.9-5-.6-9.3 2.8-12.4Z" class="&lt;Path&gt;"/>
            </g>
          </g>
        </g>
      </g>
      <g class="pelo">
        <path fill="#050505" d="M40.026 37.306s5.1 1.5 7.8 6.3c.1.2-1.5-1.5-4-2.6m-24.9-1.3s-7.2 5.8-3.4 14.7c0 0-.3-6.3 3.4-14.7Z" class="&lt;Path&gt;"/>
        <path fill="#050505" d="M23.526 46.006c.3-.1 1.5 8.7-2.2 10.5-1.9-2.7-1.1-6.2-1.1-6.2-.8 3-.1 5.7.5 6.4-.7.4-2.4 1.2-3.6 1.2 0 0-7.8-15.5 9.8-22.2 0 0 10.2-4.8 20.1 7.9 0 0 0 .7-.9 2-.6 1-4-5.3-4.9-4.6" class="&lt;Path&gt;"/>
        <path fill="#050505" d="M28.826 35.106c1.7-.4 8.6-2.3 16.8 4.3 0 0-18.5-3.9-16.8-4.3Z" class="&lt;Path&gt;"/>
        <path fill="#050505" d="M39.226 35.706s-14.2-6.5-22 5.9c-7.8 12.4 22-5.9 22-5.9Z" class="&lt;Path&gt;"/>
        <path fill="#050505" d="M27.726 35.907s7.7-2.5 18 6.8c0 0 .2 0-.3.9-.4.6-.4.6-1 1.1-.8-1.3-1.8-1.8-5.6-3.2 0 0 4.1 1.6 4.7 3.7-6.9 3.5-13.3.6-13.3.6.2-.1 1.7 3.5-2.8 4-2.1-2-2.8-4.6-2.8-4.6 0 2 .6 3.3 1.8 4.7-.5.3-2.1.3-3.1.2 0 0-9-11 4.4-14.2Z" class="&lt;Path&gt;"/>
        <path fill="#050505" d="m22.426 45.407 3 7.9s-6.5 4.7 1.4 9.8l-7.8-2.9s-5.7-6.8-2.7-14.4c3.1-7.7 4.7-3.5 4.7-3.5l1.4 3.1Zm-3-5.601s1.3-3.3 3.4-4.7c2.1-1.5 2.3-1.2 2.3-1.2s-3.1 1.5-4 5.3" class="&lt;Path&gt;"/>
        <path fill="#050505" d="M16.626 42.706s1.3-1.7-.6-2.5c0 0 1.3-.5 1.8.1-.1-.9.1-2.8 2.5-4.4 0 0-.9 2.2.7 2" class="&lt;Path&gt;"/>
      </g>
      <path fill="#050505" d="M29.926 48.006c.067-.066.1-.133.1-.2.2-.3 1.6-.4 2.8-.4h.1c.1 0 .2-.1.2-.3 0-.1-.1-.2-.2-.2-.7 0-3 0-3.3.8 0 .1 0 .2.1.2.067.067.133.1.2.1Z" class="ceja"/>
      <g class="ojo">
        <path fill="#050505" d="M31.626 50.407c.2.7.7 1.2 1.2 1.2.5-.1.7-.8.5-1.5-.2-.7-.8-1.2-1.2-1.1-.5.1-.8.7-.5 1.4Z" class="&lt;Path&gt;"/>
        <path fill="#FEFEFE" d="M32.226 49.407c0 .2.1.3.2.2.1 0 .2-.1.1-.2 0-.2-.1-.2-.2-.2s-.2.1-.1.2Z" class="&lt;Path&gt;"/>
      </g>
      <g class="ojo">
        <path fill="#050505" d="M42.426 47.606c.1.7.6 1.2 1.1 1.3.5 0 .8-.5.6-1.2-.1-.7-.6-1.3-1.1-1.3-.4 0-.7.5-.6 1.2Z" class="&lt;Path&gt;"/>
        <path fill="#FEFEFE" d="M43.126 46.806c0 .1.1.2.2.2.1.1.1 0 .1-.2 0-.1-.1-.2-.2-.2s-.2.1-.1.2Z" class="&lt;Path&gt;"/>
      </g>
      <g class="nariz">
        <path fill="#9A724F" d="M37.926 51.806s1 1 2 .8c1-.2 1.2-1.7 1.2-1.7s-1 .9-1.5 1c-.5.1-1.7-.1-1.7-.1Z" class="narizSombra"/>
        <path fill="#050505" d="M39.826 52.106c.3 0 .5-.1.7-.2l.6-.7c.1-.1.1-.2 0-.3-.1-.1-.3-.1-.3 0l-.6.6c-.1.1-.5.2-.7.1l-1.5-.2c-.1 0-.3.1-.3.2 0 .2.1.3.2.3l1.5.2h.4Z" class="nariz"/>
      </g>
      <g class="boca">
        <path fill="#050505" d="M36.126 55.907s2.2.5 3.3.3c1.1-.2.9 2-.6 3-.9.6-2.8 2.1-6.6 1.1-3.8-1.1-4.2-4.9-2.4-5.9 1.8-1.1 3.9.8 6.3 1.5Z" class="boca"/>
        <g class="sombra" opacity=".1" style="mix-blend-mode:multiply">
          <g class="Clip path group">
            <mask id="m" width="5" height="3" x="28" y="59" class="m" maskUnits="userSpaceOnUse" style="mask-type:luminance">
              <g class="cp296">
                <path fill="#fff" d="m32.676 61.556-3.93-.3.14-1.8 3.93.3-.14 1.8Z" class="Vector"/>
              </g>
            </mask>
            <g class="&lt;Clip Group&gt;" mask="url(#m)">
              <path fill="#050505" d="M28.926 59.407s1 1.7 3.8 1.9c0 0-2.9 1-3.8-1.9Z" class="&lt;Path&gt;"/>
            </g>
          </g>
        </g>
      </g>
      <g class="brazo izquierdo">
        <path fill="#050505" d="M17.826 57.606s-2.6-.1.6 3.2c1.6 1.7 5 3 5 3l-5.6-6.2Z" class="&lt;Path&gt;"/>
        <path fill="#050505" d="M16.826 59.407s1.4 2.7 3.9 4.1c2.5 1.4 2.9 1.3 2.9 1.3s-1.4-.7-3.3-4.1" class="&lt;Path&gt;"/>
        <path fill="#B3805F" d="M14.726 61.206s-2.3-.9-2.8-2.7c-.6-1.8 2.3-4.5 4-2.9 1.5 1.5 1.7 2.7 1.4 3.2-.4.5-2.6 2.4-2.6 2.4Z" class="&lt;Path&gt;"/>
        <path fill="#050505" fill-rule="evenodd" d="M14.726 61.406c-.1 0-2.5-.9-3.1-2.8-.3-1.2.6-2.6 1.7-3.3 1-.6 2.1-.5 2.8.2 1.5 1.4 1.8 2.8 1.3 3.4-.3.6-2.4 2.4-2.5 2.5h-.2Zm-.1-6.1c-.4.1-.8.3-1.1.4-.9.5-1.7 1.8-1.4 2.7.4 1.5 2.1 2.4 2.6 2.6.6-.6 2.1-1.9 2.4-2.3.3-.4.1-1.6-1.3-2.9-.4-.4-.8-.5-1.2-.5Z" class="&lt;Compound Path&gt;" clip-rule="evenodd"/>
        <path fill="#B3805F" d="M14.026 55.907c1 .5.5 1.8.5 2.3-.1.5-.4 1.6-1.2 1.7-.8 0-1.4-.2-2.2-.6-.7-.4-.2-3 .5-3.6.7-.7 1.9-.1 2.4.2Z" class="&lt;Path&gt;"/>
        <path fill="#050505" fill-rule="evenodd" d="M13.426 60.107h-.1c-.9 0-1.6-.3-2.3-.6-.2-.134-.333-.434-.4-.9-.1-1 .3-2.6.9-3.1.534-.534 1.4-.467 2.6.2 1 .5.7 1.7.6 2.3v.2c-.1.5-.4 1.8-1.3 1.9Zm.5-4.1c-1-.534-1.733-.6-2.2-.2-.4.4-.8 1.9-.7 2.8.067.266.133.433.2.5.7.3 1.3.6 2.1.6.7-.1.9-1.2.9-1.6.067 0 .1-.067.1-.2.1-.7.3-1.5-.4-1.9Z" class="&lt;Compound Path&gt;" clip-rule="evenodd"/>
        <path fill="#B3805F" d="M16.426 56.206c-.1-.4-.5-.5-.8-.4l-1.1.4c-.3.2-.5.5-.3.9.1.3.5.5.8.3l.7-.2" class="&lt;Path&gt;"/>
        <path fill="#050505" d="M14.826 57.706c.134 0 .234-.033.3-.1l.7-.2c.1 0 .1-.1.1-.2s-.1-.2-.3-.2l-.6.2-.1.1c-.2 0-.5-.1-.6-.3v-.3a.652.652 0 0 1 .3-.3l1-.4c.3-.1.5 0 .6.2.1.1.2.2.3.2.1-.1.2-.2.1-.3-.2-.5-.7-.7-1.1-.5l-1.1.4c-.2.134-.333.3-.4.5-.133.2-.133.434 0 .7.1.3.5.5.8.5Z" class="&lt;Path&gt;"/>
        <g class="&lt;Group&gt;" opacity=".1" style="mix-blend-mode:multiply">
          <g class="Clip path group">
            <mask id="n" width="3" height="3" x="13" y="56" class="n" maskUnits="userSpaceOnUse" style="mask-type:luminance">
              <g class="cp297">
                <path fill="#fff" d="m15.646 58.226-1.89.12-.1-1.68 1.89-.12.1 1.68Z" class="Vector"/>
              </g>
            </mask>
            <g class="&lt;Clip Group&gt;" mask="url(#n)">
              <path fill="#050505" d="M15.526 57.306s-1.2.5-1.3-.2c-.2-.7-.4-.4-.4-.4s-.4.7.2 1.3c.5.7 1.8.1 1.5-.7Z" class="&lt;Path&gt;"/>
            </g>
          </g>
        </g>
        <path fill="#F1F1F1" d="M26.226 67.806c1.1-2.7-1.2-5.6-1.2-5.6l-7.4-5.5-4 4.9 8.2 5.9s3.3 3.1 4.4.3Z" class="&lt;Path&gt;"/>
        <path fill="#050505" fill-rule="evenodd" d="M24.826 69.206c-1.4.1-3-1.4-3.2-1.6l-8.1-5.8c-.066 0-.1-.033-.1-.1v-.2l4-4.9c.1-.1.2-.1.3 0l7.4 5.4h.1c.1.2 2.3 3.1 1.2 5.9-.266.667-.7 1.067-1.3 1.2-.066.067-.166.1-.3.1Zm1.2-1.4c1-2.5-.9-5.2-1.1-5.5l-7.3-5.3-3.7 4.6 8 5.7s1.8 1.7 3.1 1.4c.467-.066.8-.366 1-.9Z" class="&lt;Compound Path&gt;" clip-rule="evenodd"/>
        <g class="&lt;Group&gt;" opacity=".1" style="mix-blend-mode:multiply">
          <g class="Clip path group">
            <mask id="o" width="12" height="14" x="15" y="56" class="o" maskUnits="userSpaceOnUse" style="mask-type:luminance">
              <g class="cp298">
                <path fill="#fff" d="m26.516 68.756-9.9.6-.72-11.88 9.91-.59.71 11.87Z" class="Vector"/>
              </g>
            </mask>
            <g class="&lt;Clip Group&gt;" mask="url(#o)">
              <path fill="#050505" d="m16.426 60.106 1.8-2.8 6.6 4.9s2.2 4.3 1.4 5.8c-.8 1.5-2.5.9-4.4-.8-2-1.7 1.4-1.8 0-3.7-1.3-2-3.4-2.8-3.4-2.8s-.9 1.5-1.6 1.1c-.6-.3-1-.9-.4-1.7Z" class="&lt;Path&gt;"/>
            </g>
          </g>
        </g>
      </g>
      <g class="escarapela">
        <g class="&lt;Group&gt;">
          <g class="&lt;Group&gt;">
            <path fill="#58BDEA" d="m29.326 70.506-.5-.5-.7.3.5-2.8 1.2.1-.5 2.9Z" class="&lt;Path&gt;"/>
            <path fill="#FEFEFE" d="m28.526 70.106.3-.1.2.2.4-2.6-.5-.1-.4 2.6Z" class="&lt;Path&gt;"/>
          </g>
          <g class="&lt;Group&gt;">
            <path fill="#58BDEA" d="m30.826 70.206.3-.7h.7l-1.6-2.4-1 .7 1.6 2.4Z" class="&lt;Path&gt;"/>
            <path fill="#FEFEFE" d="M31.326 69.506h-.2l-.1.3-1.5-2.2.4-.3 1.4 2.2Z" class="&lt;Path&gt;"/>
          </g>
        </g>
        <path fill="#050505" d="m30.226 67.106-.3.3-.4.2h-.5l-.4-.1-.1.9c.3.1.7.2 1.1.1.5-.1.8-.3 1.1-.6l-.5-.8Z" class="&lt;Path&gt;" opacity=".2"/>
        <g class="&lt;Group&gt;">
          <path fill="#58BDEA" d="M31.026 66.106c.3 1-.4 2-1.4 2.3-1 .2-2-.5-2.2-1.5-.3-1 .4-2 1.4-2.2 1-.2 2 .4 2.2 1.4Z" class="&lt;Path&gt;"/>
          <path fill="#FEFEFE" d="M30.426 66.306c.1.6-.3 1.2-.9 1.4-.7.1-1.3-.3-1.5-.9-.1-.7.3-1.3.9-1.5.7-.1 1.3.3 1.5 1Z" class="&lt;Path&gt;"/>
          <path fill="#58BDEA" d="M29.826 66.407c.1.3-.1.7-.5.7-.3.1-.6-.1-.7-.4-.1-.4.1-.7.5-.8.3-.1.7.1.7.5Z" class="&lt;Path&gt;"/>
        </g>
        <g class="&lt;Group&gt;">
          <path fill="#58BDEA" d="M31.026 66.106c.2 1-.4 2-1.4 2.2-1 .2-1.9-.4-2.2-1.4-.2-1 .4-1.9 1.4-2.1 1-.3 1.9.3 2.2 1.3Z" class="&lt;Path&gt;"/>
          <path fill="#FEFEFE" d="M30.326 66.306c.2.6-.2 1.2-.8 1.3-.7.2-1.3-.2-1.4-.8-.2-.7.2-1.3.9-1.4.6-.2 1.2.2 1.3.9Z" class="&lt;Path&gt;"/>
          <path fill="#58BDEA" d="M29.826 66.407c.1.3-.1.6-.5.7-.3.1-.6-.1-.7-.5-.1-.3.1-.6.5-.7.3-.1.6.1.7.5Z" class="&lt;Path&gt;"/>
        </g>
      </g>
      <g class="sombraro">
        <g class="&lt;Group&gt;">
          <path fill="#070505" fill-rule="evenodd" d="M17.226 47.106h.1c.6.1.9.5.9 1.1 0 .534-.033 1.067-.1 1.6v.9l.1.4c.267 2.067.467 3.434.6 4.1.9 3.8 2.3 7.7 4.3 11.4.2.3.2.6 0 .8-.2.3-.4.4-.7.4h-.7c-.5 0-.8-.3-1-.7-.2-.6-.5-1.3-.7-1.8a1.163 1.163 0 0 0-.2-.3c-1.1-2.5-2-5-2.7-7.5-.6-2.4-1.2-5-1.1-7.8v-1.6c0-.5.3-.9.8-1h.4Zm-.1.6h-.1c-.2 0-.3.1-.3.4v1.6c-.2 2.6.4 5.2 1 7.7a39.922 39.922 0 0 0 2.7 7.3c.2.5.7 1.5.9 2.2.1.2.2.3.4.3l.8.1c.2 0 .3-.3.2-.4-2-3.7-3.5-7.5-4.3-11.6-.2-.9-.5-3-.7-4.1 0-.4-.1-.7-.1-.8.067-.733.1-1.466.1-2.2.1-.4-.1-.5-.4-.5h-.2Z" class="&lt;Compound Path&gt;" clip-rule="evenodd"/>
          <path fill="#E0CC2E" d="M16.626 48.106c0-.3.1-.4.3-.4h.4c.2 0 .4.1.4.5l-.2 2.2c.1.1.1.4.1.8.2 1.1.5 3.2.7 4.1.9 4.1 2.3 7.9 4.3 11.6.1.1 0 .4-.2.4l-.7-.1c-.2 0-.4-.1-.4-.3-.3-.7-.7-1.7-1-2.2a45.18 45.18 0 0 1-2.6-7.3c-.7-2.5-1.2-5.1-1.1-7.7v-1.6Z" class="&lt;Path&gt;"/>
          <path fill="#A19535" d="M18.926 13.706c.2.2.4.3.6.5.5.5.9.5 1.4-.1-.8 0-1.4-.3-1.9-.9-.6-.8-1.3-1.5-1.9-2.3-.8-1-1.6-2-2.1-3.2-.6-1.1-.3-2.1.8-2.8.6-.4 1.2-.1 2 .8.133.2.267.367.4.5 1.4 2 2.1 4.3 2.8 6.6.2.5.1.9-.1 1.3.8 0 1-.4 1-1.2 0-.8-.1-1.6-.3-2.4l-1.4-4a2.55 2.55 0 0 0-.3-.6c-1.1-2.4-3.6-2.7-5.3-.5-.5.7-.5 1.4-.2 2.2.3.8.8 1.5 1.3 2.1.733.934 1.433 1.834 2.1 2.7.3.3.6.5.4 1l.2.2c.1-.3.2-.3.5.1Z" class="&lt;Path&gt;"/>
          <g class="&lt;Group&gt;">
            <path fill="#070505" d="M17.726 47.907h-.2l2.2-1.2c-.4.7-1.2 1.2-2 1.2Z" class="&lt;Path&gt;"/>
          </g>
          <path fill="#262E59" d="M.526 30.907c.133 0 .167-.067.1-.2 0 .066-.033.133-.1.2Z" class="&lt;Path&gt;"/>
          <g class="&lt;Group&gt;">
            <path fill="#070505" fill-rule="evenodd" d="M24.626 17.306c.1 1.2-.8 2.1-1.9 2.1-1.4 0-2.6-1.3-2.6-2.9-.1-1.2.8-2.1 1.9-2.1 1.3-.1 2.6 1.3 2.6 2.9Zm5.2.3c-.8.1-3 .7-3.3.8-.533.2-1.033.4-1.5.6-.1.1-.3.2-.4 0-.1-.1.1-.2.2-.4.5-1.3.2-2.5-.6-3.6.4-.3.8-.3 1.2-.3 2.5-.7 4 .1 4.8 2.3.1.5 0 .6-.4.6Zm2.1 9.9a1.564 1.564 0 0 1-.4.3c-.9.6-1 .6-1.3-.4 0-.3-.1-.8-.5-.8-.5 0-.5-.4-.7-.7-.2-.4-.4-1.2-.8-1.1-.9.3-1-.4-1.3-.8-.3-.4-.7-.6-.8.1-.1.1-.1.3-.3.3-.5-.5-.9-1.1-1.5-1.4-.5-.2-.7-.1-.6.4 0 .6.1 1.1.2 1.7.1.3.1.5-.3.5-.9 0-1 0-.6.9.1.3.3.5.4.8.2.2.2.4-.2.4-1.2-.1-.5.6-.3 1 .3.6.9 1.2.4 2 0 .067.033.134.1.2.067 0 .133.034.2.1.2.2.6.4.5.7 0 .3-.4.2-.7.3-.2.1-.4.1-.5.1-.1 0-1.8.4-2.3.4-2 .2-4 0-5.8-.5-.9-.3-3.3-1.1-3.6-1.3-2-.9-2-.9-.3-2.2.467-.333.933-.7 1.4-1.1 3.3-2.7 6.9-5.2 10.8-7 1.6-.7 5.3-1.9 5.6-2 1.2-.4 1.4-.3 1.9.9.7 1.7 1.3 3.5 2.1 5.2.6 1.3.3 2.2-.8 3Zm2.4.1c-2.7 2.5-5.7 4.5-9.1 5.7-5.7 2-11 1.5-15.8-2.3-.2-.2-.5-.3-.4-.6.1-.2.3 0 .4 0 1.4.9 2.8 1.3 4.3 1.8 4.4 1.5 8.8 1.1 12.9-.9 0-.3-.1-.4-.3-.4h-.1c-.2.267-.467.367-.8.3 0 .067-.033.1-.1.1-.2.134-.367.1-.5-.1-.2-.1-.6-.1-.7-.6h.4c.2-.1.5.1.6-.2.1-.4-.3-.3-.5-.5-.5-.4-1.1-.8-1.3-1.6.3.1.6.2.8.2.3.1.6.3.8 0 .1-.2-.2-.4-.4-.6-.4-.5-.9-.9-.9-1.7.6.2 1.2.5 1.6.9.1.1.3.3.4.2.2-.2.1-.4 0-.5a3.282 3.282 0 0 1-.4-.5c-.4-.8-1.1-1.5-1-2.5.3 0 .4.2.6.3.7.6.9 1.5 1.4 2.3.1.2.1.5.4.4.2-.2.1-.4 0-.6-.1-.5-.3-1 0-1.5.4.4.6.9.8 1.3.1.3.1.9.5.8.4 0 .1-.6.3-.9l.1-.1c.6.7.6 1.5.8 2.3.3 0 .3-.5.6-.4 0 .7 0 .7-.3 1.4l-.2.2c0 .134.1.267.3.4.933-.6 1.9-1.233 2.9-1.9.333-.333.733-.7 1.2-1.1.2-.2.5-.4.8 0v.1c.3.3.1.5-.1.8Zm-25.9 3.7c.4-.5.6 0 .8.2 2.3 1.8 4.5 3.6 7.1 5.1 1.7.8 3.4 1.6 5.2 1.8 2.7.4 5-.7 7.3-1.7-.3-.4-.9 0-1.1-.5-1.1-1.7-.8-2.9 1-3.9.3-.2.6-.3.9-.6.6-.4 1.2-.4 1.8-.1.733.334 1.233.867 1.5 1.6.1.2.2.4-.1.6-.067.134-.167.2-.3.2l-.2.2c-.067 0-.133.034-.2.1-.067.134-.167.2-.3.2v.5c.2-.066.367-.166.5-.3a1.15 1.15 0 0 0 .3-.2c.667-.4 1.3-.833 1.9-1.3.5-.4.8-.8 1.3-1 .2-.3.4-.6.9-.4.5.4.3.7-.1 1.1-2.3 2.2-5 4-8 5.2-2 .8-3.9 1.7-6.1 1.6-2.4 0-4.5-.9-6.6-2.1-2.6-1.5-5-3.3-7.4-5.2-.4-.4-.4-.7-.1-1.1Zm25.9 1.4c-.067 0-.133.034-.2.1-.4.5-.8.6-.9-.3v-.1c-.067-.066-.1-.133-.1-.2h-.1c0-.066-.033-.133-.1-.2l-.2-.2c-.4-.3-1.1-.5-1.2-.9-.1-.6.8-.7 1.1-1.1.067-.066.133-.1.2-.1 1.3-1.3 1.4-1.3 2.1.3l.1.1c.7 1.5.6 1.6-.7 2.6Zm-7.2 3.5c.2.4.2.6-.2.8-2.3.9-4.6 1.4-7.1.5a30.58 30.58 0 0 1-2.2-.9.95.95 0 0 1-.8-.4 44.576 44.576 0 0 0-1.5-.9c-.3-.2-.7-.4-.6-.7.1-.4.5-.1.8-.1 2.3.5 4.7.7 7.1.1 1.2-.2 2.3-.6 3.5-1 .2-.1.7-.3.6.3-.2.9 0 1.6.4 2.3Zm-25.5-3.9c2-2.7 4.1-5.3 6.6-7.6 1.4-1.5 3-2.8 4.6-4.1a33.843 33.843 0 0 1 6.1-3.7c.2-.1.6-.5.7.1.4 1.6 1.3 2.5 3 3-.7.4-1.2.6-1.8.9-.067 0-.133.034-.2.1l-.4.2a1.167 1.167 0 0 0-.3.2c-1.5.9-3 1.8-4.5 2.9l-5 3.8c-.7.8-1.4 1.6-2.7.8-.5-.3-1.2 0-1.6.5-.4.4-.4.8-.1 1.3.1.2 0 .4 0 .6-.1 1.2-1 1.6-1.7 2.2-1.4 1.3-1.4 1.3-2.6-.1-.4-.4-.4-.7-.1-1.1Zm-.7-1.2c.133-.133.233-.266.3-.4 1.4-1.866 2.9-3.666 4.5-5.4.5-.6 3.4-3.2 3.5-3.3.5-.4 3.8-3.2 5-4 .4-.2 2-1.1 2.8-1.6.8-.4 1.567-.8 2.3-1.2h.2c.2-.1.3 0 .3.2 0 .067-.033.1-.1.1-.1.4-.4.7-.8.8-2.3 1-4.3 2.4-6.3 3.9-1.7 1.2-3.2 2.6-4.8 4-1.6 1.6-3.1 3.4-4.6 5.1-.6.7-1 1.6-1.7 2.2-.1.2-.3.5-.5.2-.2-.1-.2-.4-.1-.6Zm5.6.5c0-.3 1.4-1.8 1.8-1.8.1 0 .2.2.1.3a21.808 21.808 0 0 1-1 1.8c-.1.2-.3.3-.5.1-.2-.1-.4-.2-.4-.4Zm-.2-1.6c.067-.266.267-.433.6-.5.2.1.4.1.3.3-.1.3-.3.6-.7.6-.1 0-.2-.2-.2-.4Z" class="&lt;Compound Path&gt;" clip-rule="evenodd"/>
            <path fill="#070505" fill-rule="evenodd" d="M.026 31.306c0-.1.6-.9.7-1 0-.1 1-1.4 1.1-1.5 1.2-1.6 2.5-3.2 4-4.6.6-.7 3.3-3 4.7-4.1 0 0 2.1-1.8 2.3-1.9 2-1.4 4.1-2.6 6.3-3.5.067-.066.067-.133 0-.2 0 0-.1-.2-.2-.3-.1-.1-1.4-1.7-1.7-2-.9-1.1-1.7-2.2-2.6-3.3-1.2-1.7-1-3.3.5-4.6 2-1.6 4.1-1.1 5.2 1.1.7 1.7 1.4 3.3 1.8 5.1.1.2.3 1.3.4 1.7v1c0 .067-.067.167-.2.3.1 0 .2-.1.4-.2.2-.066.4-.1.6-.1.4-.1 1.8-.3 2.9-.3.5.1 1 .1 1.5.2.1 0 .4.1.4.2.4.1.6.3.6.3l.2.2c1 1 1.9 3.3 1.9 3.3.3.8-.3.5 0 1.1.2.6.3.8.4 1.2l.2.4c.1.1 1.2 3.1 1.6 3.9.1.4.5 1.5.7 1.8 0 .1.2.4.2.5.1 0 .2-.1.5.1.2.134.367.267.5.4.2.3.3.6 0 1.1-.1.2-.5.3-.4.6.1.1.9 1.8 1.2 2.3.1.3.2.7.7.7.7 0 1.1.5 1.2 1.3-.1.1-.2.2-.2.5 1 .1 2 .2 2.9.5.9.3 1 .6.3 1.2-.533.467-1.067.9-1.6 1.3-5.1 3.4-10.5 5.9-16.5 7.1-.6.1-2.1.4-2.1.4-.3 0-.5 0-.4.3.1.4.4.2.7.1.1 0 1.5-.2 1.8-.3 1.333-.266 2.667-.6 4-1l-2.7.9c-1.1.3-1.1.6-1.8.7-.1.1-1.2.3-1.3.3-.5.1-.9.1-.9 0-.4-.7-1.1-1.2-2-1.2-1.3-.1-2.4.9-2.4 2.2 0 1.2.9 2.3 2.1 2.4h-1.1s-.3-.2-.7-.4c-1.1.3-1.5-.4-2.1-1l-.1-.1-.2-.2-.2-.2c0-.066-.033-.133-.1-.2-.067 0-.1-.033-.1-.1.1-.4.5-.3.7-.4.8-.2 1.5-.4 1.7-1.4.2-.7 1.6-1.4 2.5-1.2.467.067.867.034 1.2-.1l.4-.2c.2-.066.367-.133.5-.2 0 0 2.1-1.2 2.1-1.3.3-.1.8-.1.7-.5-.1-.3-.5-.1-.8-.1-1.2.1-2.2-.5-2.6-.6a.888.888 0 0 0-.4-.1 3.913 3.913 0 0 1-.8-.3c-2-.8-3.867-1.833-5.6-3.1-1.5-1-2.9-2.2-4.3-3.3-.4-.2-1.9-.3-2.3-.1-.7.7-1.5 1.3-2.1 2.1-.3.4-.7.5-1 .3 0 0-.4-.4-.5-.4-.4-.5-.7-.8-1.2-1.3 0-.1-.1-.2-.1-.2-.5-.6-.1-.7-.3-1.1a.654.654 0 0 0-.3-.3c-.3-.4-.5-.4-.4-.6Zm29.1 10.4c-.867.334-1.733.634-2.6.9 1.4-.5 2.6-.9 2.6-.9Zm-6.4-27.7c.2.1.6.4.8.5h.4c1.4-.3 2.9-.7 4.7-.3-.3-.7-1.1-.8-1.6-.9h-1.9c-.6.1-1.9.3-1.9.3-.4 0-.8.2-.5.4Z" class="&lt;Compound Path&gt;" clip-rule="evenodd"/>
            <path fill="#070505" fill-rule="evenodd" d="M17.826 42.706c.8.1 1.5.4 2 .9.5.6.7 1.3.7 2.1-.1 1.5-1.3 2.7-2.9 2.7-.7 0-1.4-.4-1.9-.9-.6-.6-.8-1.3-.8-2 0-1.6 1.3-2.8 2.9-2.8Zm-2.4 2.8c0 1.2 1 2.3 2.2 2.4h.1c1.2 0 2.2-1 2.3-2.2.1-1.3-.9-2.4-2.2-2.4-1.3-.1-2.4.9-2.4 2.2Zm.8 0c0-.8.7-1.4 1.5-1.4.9 0 1.5.7 1.5 1.5s-.7 1.4-1.5 1.4c-.9 0-1.5-.6-1.5-1.5Zm1.5 1c.267 0 .5-.1.7-.3.2-.133.3-.333.3-.6 0-.6-.4-1-1-1-.5 0-1 .4-1 .9 0 .6.4 1 1 1Z" class="&lt;Compound Path&gt;" clip-rule="evenodd"/>
          </g>
          <path fill="#070505" fill-rule="evenodd" d="M37.626 31.907c.8.1 2.7.4 3 .5.733.266 1.2.6 1.4 1 .3.6.3 1.1-.2 1.7 0 .1-.3.5-.7.8-.3.1-.7.4-1.2.8-1.4.9-3.3 2.1-3.4 2.2-.2.1-.9.4-1.5.8-.5.2-1 .5-1 .5-.5.3-2.4 1.1-2.6 1.2l-2.1.9c-2.067.733-4.1 1.3-6.1 1.7-.1 0-2.7.6-3 .5h-.1c-.3 0-.6-.3-.7-.6 0-.3.1-.5.2-.6.1-.3.4-.3.5-.3.2 0 1.2-.2 1.6-.3 5.9-1.1 11.4-3.4 17-7.2.6-.4 1.1-.8 1.5-1.2l.2-.2c-.067 0-.167-.034-.3-.1-.8-.2-1.5-.3-2.4-.4h-.3l-.4-.1-.1-.3c-.1-.5.1-.8.2-.9v-.1l.2-.3h.3Zm-.2 1.1c.9.1 1.9.2 2.8.5.9.3 1 .5.3 1.2-.467.466-1 .9-1.6 1.3-5.3 3.5-10.9 6.1-17.2 7.2-.3.1-1.5.3-1.6.3-.1 0-.2 0-.2.2.067.133.133.233.2.3.3 0 2.4-.5 2.9-.6 2.067-.4 4.067-.967 6-1.7l2.2-.8s1.9-.9 2.5-1.2c.1-.1 2.2-1.2 2.5-1.3.1-.1 3.7-2.5 4.5-3 .4-.3.6-.6.6-.6.4-.5.4-.8.2-1.2-.2-.3-.6-.6-1.1-.7-.2-.1-2.1-.4-2.9-.5-.1.2-.2.3-.1.6Z" class="&lt;Compound Path&gt;" clip-rule="evenodd"/>
          <path fill="#E0CC2E" d="M1.626 32.306c2-2.7 4.1-5.3 6.6-7.6.867-.933 1.8-1.8 2.8-2.6.6-.5 3.9-3 5-3.6a24.6 24.6 0 0 1 2.9-1.6c.2-.1.6-.5.7.1.4 1.6 1.3 2.5 3 3-.7.4-3.1 1.6-3.3 1.8-1.3.8-2.6 1.6-3.9 2.5l-5 3.8c-1 .8-1.4 1.6-2.7.8-.5-.3-1.2 0-1.6.5-.4.4-.4.8-.1 1.3.1.2 0 .4 0 .6-.1 1.2-1 1.6-1.7 2.2-1.4 1.3-1.4 1.3-2.6-.1-.4-.4-.4-.7-.1-1.1Z" class="&lt;Path&gt;"/>
          <path fill="#FCBC60" d="M29.726 28.907c0-.2.3-1.1 0-1.2-.3-.2-.3.2-.7.1-.3-.1-.2-.6-.2-1.1 0-.3-.1-.6-.1-.7-.067-.067-.2-.134-.4-.2-.1 0-.1.1-.1.1-.1.3-.1.6-.3.7l-.1.1c-.133 0-.233-.034-.3-.1-.3-.1-.6-2.3-1-2.2-.3.1 0 1.3.1 1.8.1.2.2.4 0 .6-.3.1-.3-.2-.4-.4-.5-.8-.8-1.7-1.3-2.4-.2-.1-.5-.5-.7-.4-.3.2 0 .6 0 .8.2.8.7 1.3 1 1.9.133.2.267.366.4.5.1.1.2.3 0 .5-.1.1-.3-.1-.4-.2-.4-.4-.8-.8-1.4-1-.1-.1-.4-.2-.5-.1-.1 0 0 .1.1.2.1.3.4.7.6 1 .1.3.3.5.5.7.2.2.5.4.4.6-.2.3-.5.2-.8 0-.3-.1-.4-.2-.6-.3-.2-.1-.3-.2-.4 0v.2c.1.1.4.6.6.8.2.3.4.5.9.7.3.2.6.1.5.5 0 .1-.1.2-.3.2-.1 0-.2-.1-.4-.1-.1 0-.3-.1-.3.1 0 .3.1.3.2.5.4.3.7.3 1 .2.067 0 .1-.034.1-.1.4-.1.8-.3.9-.3.4-.2 1.9-1 1.9-1.1l1-.5c.1-.1.4-.2.5-.4Z" class="&lt;Path&gt;"/>
          <path fill="#9DCDED" d="M20.126 16.506c0 1.6 1.2 2.9 2.6 2.9 1.1 0 2-.9 1.9-2.1 0-1.6-1.3-3-2.6-2.9-1.1 0-2 .9-1.9 2.1Z" class="&lt;Path&gt;"/>
          <path fill="#FEFEFE" d="M20.826 16.606c0 1.1.8 2.1 1.8 2.1.8 0 1.4-.7 1.3-1.5 0-1.1-.9-2.1-1.8-2.1-.8.1-1.4.7-1.3 1.5Z" class="&lt;Path&gt;"/>
          <path fill="#9DCDED" d="M21.526 16.706c0 .6.5 1.1 1 1.1.4 0 .7-.3.7-.8-.1-.5-.5-1-1-1-.4 0-.7.3-.7.7Z" class="&lt;Path&gt;"/>
          <path fill="#A19535" fill-rule="evenodd" d="M17.826 43.306c1.3 0 2.3 1.1 2.2 2.4-.1 1.2-1.1 2.2-2.3 2.2-1.3 0-2.3-1.2-2.3-2.4 0-1.3 1.1-2.3 2.4-2.2Zm1.4 2.3c0-.9-.7-1.5-1.5-1.5s-1.5.6-1.5 1.4c0 .9.6 1.5 1.5 1.5.8 0 1.5-.6 1.5-1.4Z" class="&lt;Compound Path&gt;" clip-rule="evenodd"/>
          <path fill="#264485" d="M.626 31.206c.133-.133.233-.266.3-.4 1.1-1.5 2.3-3.1 3.6-4.6.1-.2 1-1.1 2-2.1.7-.7 2.9-2.6 4.1-3.6 1.3-1 2.8-2.2 4-3 .5-.3 1.8-1 2.1-1.2 1.1-.6 2.1-1.1 2.7-1.3.2 0 .4.1.4.4 0 0-.2.3-.2.4-.133.2-.367.367-.7.5-1.3.7-2.6 1.3-3.8 2.1-.9.6-3.9 2.8-4.6 3.4-.9.8-3.8 3.5-4.3 4.1-1 1.1-2 2.3-3 3.4-.6.7-1 1.6-1.7 2.2-.1.2-.3.5-.5.2-.2-.1-.5-.3-.4-.5Z" class="&lt;Path&gt;"/>
          <path fill="#A19535" d="M8.326 29.806c-.4 0-1.8 1.5-1.8 1.8 0 .2.2.3.4.4.2.2.4.1.5-.1a21.69 21.69 0 0 0 1-1.8c.1-.1 0-.3-.1-.3Zm-1.2-.399c-.3 0-.7.3-.8.6 0 .2.1.4.2.4.4 0 .8-.4.9-.7.1-.2-.1-.3-.3-.3Z" class="&lt;Path&gt;"/>
          <path fill="#E0CC2E" d="M8.426 31.306c.4-.5.6 0 .8.2 2.3 1.8 4.5 3.6 7.1 5.1 1.7.8 3.4 1.6 5.2 1.8 2.1.3 4-.3 5.8-1.1.5-.2 1.7-.7 1.8-.7.7-.4 3.1-1.8 3.2-1.9.133-.067.233-.133.3-.2.667-.4 1.3-.833 1.9-1.3.3-.2 1.2-.8 1.3-1 .1-.2.3-.4.4-.5.133 0 .267.034.4.1.067 0 .133.034.2.1.3.3.2.7-.2 1-2.3 2.2-5 4-8 5.2-2 .8-3.9 1.7-6.1 1.6-2.4 0-4.5-.9-6.6-2.1-2.6-1.5-5-3.3-7.4-5.2-.4-.4-.4-.7-.1-1.1Z" class="&lt;Path&gt;"/>
          <path fill="#A19535" d="M8.526 31.706c2.4 1.9 4.8 3.8 7.5 5.3 2 1.1 4.1 2 6.5 2 2.2.1 4.1-.7 6.1-1.5 3-1.3 5.7-3.1 8.1-5.3l.2-.2c.2.3 0 .6-.3.9-2.3 2.2-5 4-8 5.2-2 .8-3.9 1.7-6.1 1.6-2.4 0-4.5-.9-6.6-2.1-2.6-1.5-5-3.3-7.4-5.2-.4-.3-.4-.6-.2-1 .067.134.133.234.2.3Z" class="&lt;Path&gt;"/>
          <path fill="#264485" d="M33.726 28.907c.3-.2.5-.2.7.1.133.2.3.533.5 1 0 0 .4.8.5 1.1 0 .3 0 .5-.1.7-.2.3-1.4 1.2-1.5 1.3-.2.1-.4.1-.5-.2 0-.1-.6-1.1-1-1.4-.5-.3-.7-.2-.8-.6 0-.3.2-.5.5-.7.2-.1 1.5-1.2 1.7-1.3Zm-21.6 4.399c.1-.2.5.1.8.3.4.2.7.3 1.1.5.3.1 1.6.4 2.1.6 2.4.5 4.5.4 6.5-.1 1.2-.2 2.3-.6 3.5-1 .2-.1.7-.3.6.3-.2.9 0 1.6.4 2.3.2.4.2.6-.2.8-2.3.9-4.6 1.4-7.1.5-.467-.2-.967-.4-1.5-.6-2.5-.9-5-2.7-5.4-3-.4-.2-.9-.5-.8-.6Z" class="&lt;Path&gt;"/>
          <path fill="#E0CC2E" d="M9.026 30.406c.1-.2.3 0 .4 0 1.4.9 2.8 1.3 4.3 1.8 4.4 1.5 8.8 1.1 12.9-.9.067-.066.133-.1.2-.1.8-.4 3.2-1.8 3.4-1.9.8-.4 1.4-.8 2.2-1.5.4-.3.7-.8 1.2-1.1.2-.2.4-.3.6-.2l.4.4c.1.2-.1.5-.3.7-2.7 2.5-5.7 4.5-9.1 5.7-5.7 2-11 1.5-15.8-2.3-.2-.2-.5-.3-.4-.6Z" class="&lt;Path&gt;"/>
          <g class="&lt;Group&gt;">
            <path fill="#A19535" d="M24.826 32.806c3.5-1.2 6.5-3.2 9.1-5.8.2-.1.3-.3.4-.4l.3.3c.1.2-.1.5-.3.7-2.7 2.5-5.7 4.5-9.1 5.7-5.7 2-11 1.5-15.8-2.3-.2-.2-.5-.3-.4-.6h.1c4.8 3.9 10.1 4.3 15.7 2.4Z" class="&lt;Path&gt;"/>
          </g>
          <path fill="#E0CC2E" d="M24.226 15.006c0-.3 2.2-.6 3.8-.6.3.1.6.1.8.2.6.4 1 1.5 1.4 2.4.1.5 0 .6-.4.6-1.3.1-4 1.1-4.8 1.4-.3.1-.3.1-.4 0l.2-.4c.5-1.1.3-2.2-.3-3.3-.1-.1-.3-.2-.3-.3Z" class="&lt;Path&gt;"/>
          <path fill="#264485" d="M22.826 32.206c.4-.1.9-.2 1-.2.2-.1.3-.2.3-.3.1-.3-.4-.7-.4-.9-.1-.1-.1-.3 0-.5.2-.1.5.1.6-.1 0-.1-.2-.2-.3-.3-.3-.1-.6-.5-.7-.6a4.518 4.518 0 0 1-.4-.6c-.2-.3-.4-.6 0-.8.1-.1.2-.2.5-.1.2 0 .5.3.8.5.2 0 0-.2-.1-.3-.3-.2-.5-.5-.7-.7-.3-.4-.4-.9-.4-1-.1-.4-.2-.6.1-.7.1 0 .4 0 .8.1.1.1.3.2.5.3.1.1.2.2.2.1s-.1-.3-.2-.4c-.3-.4-.5-.9-.5-.9a5.072 5.072 0 0 1-.2-1.4c-.1-.5.1-.6.6-.4.4.2.7.6 1 .9.1.2.4.7.5.8 0 .2.1.4.2.4v-.2c0-.3 0-.8.1-.8.1-.7.5-.5.8-.1.1.2.2.3.4.6.1.3.2 1.1.4 1.2.2 0 .1-.5.6-.5.4 0 .8.5.8 1 0 .3-.2 1 .1 1.1.1 0 .3-.3.6-.3s.3.3.3.7c-.1.3-.1.4 0 .7.3.3.7-.2 1.3-.6.2-.1.5-.3.6-.4.5-.4.9-.8 1.2-1.1.1-.3.1-.3 0-.7 0-.2-.5-1.3-.6-1.7-.8-1.8-1.2-3-2-4.7-.5-1.2-.7-1.3-1.9-.9-.3.1-4 1.3-5.6 2-3.9 1.8-7.5 4.3-10.8 7-.467.4-.933.767-1.4 1.1-1.7 1.3-1.7 1.3.3 2.2.3.2 2.4.9 3.1 1.1 2.1.7 4.2 1 6.5.7.4 0 1.7-.2 2-.3Z" class="&lt;Compound Path&gt;"/>
          <path fill="#264485" d="M22.826 32.206c.4-.1.9-.2 1-.2.2-.1.3-.2.3-.3.1-.3-.4-.7-.4-.9-.1-.1-.1-.3 0-.5.2-.1.5.1.6-.1 0-.1-.2-.2-.3-.3-.3-.1-.6-.5-.7-.6a4.518 4.518 0 0 1-.4-.6c-.2-.3-.4-.6 0-.8.1-.1.2-.2.5-.1.2 0 .5.3.8.5.2 0 0-.2-.1-.3-.3-.2-.5-.5-.7-.7-.3-.4-.4-.9-.4-1-.1-.4-.2-.6.1-.7.1 0 .4 0 .8.1.1.1.3.2.5.3.1.1.2.2.2.1s-.1-.3-.2-.4c-.3-.4-.5-.9-.5-.9a5.072 5.072 0 0 1-.2-1.4c-.1-.5.1-.6.6-.4.4.2.7.6 1 .9.1.2.4.7.5.8 0 .2.1.4.2.4v-.2c0-.3 0-.8.1-.8.1-.7.5-.5.8-.1.1.2.2.3.4.6.1.3.2 1.1.4 1.2.2 0 .1-.5.6-.5.4 0 .8.5.8 1 0 .3-.2 1 .1 1.1.1 0 .3-.3.6-.3s.3.3.3.7c-.1.3-.1.4 0 .7.3.3.7-.2 1.3-.6.2-.1.5-.3.6-.4.5-.4.9-.8 1.2-1.1.1-.3.1-.3 0-.7 0-.2-.5-1.3-.6-1.7-.8-1.8-1.2-3-2-4.7-.5-1.2-.7-1.3-1.9-.9-.3.1-4 1.3-5.6 2-3.9 1.8-7.5 4.3-10.8 7-.467.4-.933.767-1.4 1.1-1.7 1.3-1.7 1.3.3 2.2.3.2 2.4.9 3.1 1.1 2.1.7 4.2 1 6.5.7.4 0 1.7-.2 2-.3Z" class="&lt;Compound Path&gt;"/>
          <path fill="#232F64" d="M28.726 18.406c1.2-.4 1.4-.3 1.9.9.8 1.7 1.2 2.9 2 4.7.1.4.6 1.5.6 1.7.1.4.1.4 0 .7-.3.3-.6.6-1 .9l-4.3-8.7c.4-.1.7-.2.8-.2Z" class="&lt;Path&gt;"/>
          <path fill="#A19535" d="M28.826 14.606c.6.4 1 1.5 1.4 2.4.1.5 0 .6-.4.6-.6.1-1.4.2-2.2.5l-1.7-3.6c.7 0 1.4-.1 2.1-.1.3.1.6.1.8.2Zm-22.7 14.801c-.4.4-.4.8-.1 1.3.1.2 0 .4 0 .6-.1 1.2-1 1.6-1.7 2.2-1.4 1.3-1.4 1.3-2.6-.1-.4-.4-.4-.7-.1-1.1 1.9-2.6 3.9-5.1 6.2-7.3l2.4 3.3c-.9.7-1.3 1.4-2.5.6-.5-.3-1.2 0-1.6.5Z" class="&lt;Path&gt;"/>
          <path fill="#FCBC60" d="M28.726 32.306c.3-.2 1.2-.8 1.4-.8.6-.3.6-.3 1.2 0 .7.3 1.3.9 1.6 1.7.1.2.2.4-.1.6-.1.1-.4.3-.5.4 0 0-1.8 1.1-1.9 1.1 0 0-.4.2-.5.3-.1 0-1.1.5-1.5.7-.2 0-.5.1-.7-.1-.4-.6-.5-1.1-.7-1.7 0-.5-.2-.9.3-1.4.2-.2 1-.6 1.4-.8Z" class="&lt;Path&gt;"/>
          <path fill="#CE9A46" d="M28.026 36.006c.5-.2 1.6-.7 1.7-.7.1-.1.5-.3.6-.3 0-.1 2-1.2 2-1.2.1-.1.4-.3.6-.4l.1-.1c.1.2.1.4-.2.5-.1.1-.4.3-.5.4 0 0-1.8 1.1-1.9 1.1 0 0-.4.2-.5.3-.1 0-1.1.5-1.5.7-.2 0-.5.1-.7-.1l-.1-.1a.888.888 0 0 1 .4-.1Z" class="&lt;Path&gt;"/>
          <path fill="#A19535" d="M20.226 21.206a1.16 1.16 0 0 1-.3.2c.067-.066.167-.133.3-.2Z" class="&lt;Path&gt;"/>
          <g class="&lt;Group&gt;">
            <path fill="#E0CC2E" d="M17.026 11.306c-.4-.533-.833-1.066-1.3-1.6-.5-.6-1-1.3-1.3-2.1-.3-.8-.3-1.5.2-2.2 1.7-2.2 4.2-1.9 5.3.5.133.2.233.4.3.6l1.4 4c.2.8.3 1.6.3 2.4 0 .8-.2 1-1 1.2-.6.3-.9.6-1.4.1-.2-.2-2.2-2.5-2.5-2.9Z" class="&lt;Path&gt;"/>
            <g class="&lt;Group&gt;">
              <path fill="#A19535" d="M15.626 4.407c1.6-1.2 3.5-.6 4.5 1.4.067.266.133.5.2.7l1.4 4c.2.8.4 1.5.4 2.3 0 .8-.4 1.1-1.2 1.3.3-.3.4-.9.3-1.4-.7-2.3-1.5-4.5-2.9-6.6a1.564 1.564 0 0 0-.3-.4c-.9-1-2.1-1.4-2.7-1 0 0 0-.1.3-.3Z" class="&lt;Path&gt;"/>
            </g>
          </g>
          <path fill="#070505" fill-rule="evenodd" d="M16.226 45.506c0-.8.7-1.4 1.5-1.4s1.5.6 1.5 1.5c0 .8-.7 1.4-1.5 1.4-.9 0-1.5-.6-1.5-1.5Zm2.5.1c0-.5-.3-1-.9-1-.7 0-1 .3-1.1 1 0 .6.4.9 1 .9s1-.3 1-.9Z" class="&lt;Compound Path&gt;" clip-rule="evenodd"/>
          <path fill="#264485" d="M2.826 35.206c1.4 1 9.6 10.1 9.6 10.1l.2.2c.1.1.3.3.4.3 0 0-.1 0-.1-.1.1-.4.5-.3.7-.4.8-.2 1.3-.2 1.7-1.2.5-1.2 1.9-1.5 2.8-1.3.6.1.8-.1 1.3-.3.2-.1 2.7-1.5 2.7-1.5.3-.1 1-.5 1.8-.9-.8.1-1.5.1-1.7.1-.7 0-2.5-.4-2.9-.5a.887.887 0 0 0-.4-.1 3.908 3.908 0 0 1-.8-.3c-2-.8-3.867-1.833-5.6-3.1-1.5-1-2.9-2.2-4.3-3.3-.4-.2-1.9-.3-2.3-.1-.7.7-1.5 1.3-2.1 2.1-.3.4-.7.4-1 .3Z" class="&lt;Compound Path&gt;"/>
          <path fill="#232F64" d="M2.826 35.206c.3.1.7.1 1-.3.6-.8 1.4-1.4 2.1-2.1.4-.2 1.9-.1 2.3.1 1.4 1.1 2.8 2.3 4.3 3.3 1.667 1.2 3.433 2.2 5.3 3l2.1 3c-.3.1-.5.2-.5.3-.5.2-.7.4-1.3.3-.9-.2-2.3.1-2.8 1.3-.4 1-.9 1-1.7 1.2-.2.1-.6 0-.7.4 0 .1.1.1.1.1-.1 0-.3-.2-.4-.3l-.2-.2s-8.2-9.1-9.6-10.1Z" class="&lt;Path&gt;"/>
          <g class="&lt;Group&gt;">
            <path fill="#070505" d="m13.126 46.006.5-.7c-.1.1-.3.1-.4 0l-.1-.1-.2-.2c0-.1-6.4-7.2-9.1-9.7-.1-.1-.1-.3.1-.5-.2-.2-.8-.2-1-.3l-.3.5c1.2.8 9 9.4 9.9 10.4l.6.6Z" class="&lt;Path&gt;"/>
          </g>
          <path fill="#E0CC2E" d="M21.826 43.306c6.2-1.2 11.9-3.8 17.2-7.3.533-.4 1.067-.833 1.6-1.3.7-.6.6-.9-.3-1.2-.9-.3-1.9-.4-2.9-.5-.1-.2.1-.4.2-.6.7.1 2.6.5 2.9.5.4.2.9.4 1.1.7.1.4.1.7-.2 1.2 0 0-.3.4-.7.6-.7.5-4.3 2.9-4.5 3-.3.2-2.4 1.3-2.5 1.3-.5.3-2.5 1.2-2.5 1.2l-2.1.8a44.576 44.576 0 0 1-6 1.8c-.5.1-2.8.5-2.9.5-.133 0-.2-.066-.2-.2-.1-.2 0-.3.2-.3.1 0 1.3-.2 1.6-.2Z" class="&lt;Path&gt;"/>
          <path fill="#A19535" d="M20.226 44.006c-.133 0-.2-.066-.2-.2-.1-.2 0-.3.2-.3 0 0 .3 0 .6-.1l.3.5c-.5 0-.9.1-.9.1Zm13.4-17.3c.2-.2.4-.3.6-.2l.4.4c.1.2-.1.5-.3.7l-1.4 1.2-.5-1c.4-.4.8-.8 1.2-1.1Z" class="&lt;Path&gt;"/>
          <path fill="#232F64" d="M33.726 28.907c.3-.2.5-.2.7.1.133.2.3.533.5 1 0 0 .4.8.5 1.1 0 .3 0 .5-.1.7l-.6.6-1.5-3.1c.2-.2.4-.4.5-.4Z" class="&lt;Path&gt;"/>
          <path fill="#A19535" d="M35.026 32.907c.3-.3.7-.6.8-.7.1-.2.3-.4.4-.5.133 0 .267.033.4.1.067 0 .134.033.2.1.3.3.2.7-.2 1-.333.333-.7.666-1.1 1l-.5-1Z" class="&lt;Path&gt;"/>
          <path fill="#232F64" d="M3.226 29.306c-.6.7-1 1.6-1.7 2.2-.1.2-.3.5-.5.2-.2-.1-.5-.3-.4-.5.133-.133.233-.266.3-.4 1.1-1.5 2.3-3.1 3.6-4.6.1-.2 1-1.1 2-2.1.133-.066.267-.2.4-.4l.6.9-1.3 1.3c-1 1.1-2 2.3-3 3.4Z" class="&lt;Path&gt;"/>
          <path fill="#A19535" d="M9.426 31.006c-.2-.2-.5-.3-.4-.6.1-.2.3 0 .4 0 1 .7 2.1 1.1 3.3 1.5l1.1 1.6c-1.467-.533-2.933-1.366-4.4-2.5Z" class="&lt;Path&gt;"/>
          <path fill="#232F64" d="M12.926 33.907c-.4-.2-.9-.5-.8-.6.1-.2.5.1.8.3.4.2.7.3 1.1.5.067.066.167.1.3.1l.8 1.1c-1.2-.6-2-1.2-2.2-1.4Z" class="&lt;Path&gt;"/>
          <path fill="#A19535" d="M15.926 37.606c-2.6-1.5-5-3.3-7.4-5.2-.4-.4-.4-.7-.1-1.1.4-.5.6 0 .8.2 2.1 1.7 4.2 3.3 6.5 4.7l1.4 2.1c-.4-.2-.8-.433-1.2-.7Zm1 10.1h.4c.2 0 .4.1.4.5l-.2 2.2c.1.1.1.4.1.8.067.067.1.167.1.3l-1.1-.4v-3c0-.3.1-.4.3-.4Z" class="&lt;Path&gt;"/>
        </g>
        <path fill="#264485" d="M22.726 14.006c.2.1.6.4.8.5h.4c1.3-.3 2.6-.6 4.3-.4.1 0 .4.1.4.1 0-.1-.1-.2-.2-.3-.4-.4-1-.5-1.4-.6h-1.9c-.6.1-1.9.3-1.9.3-.4 0-.8.2-.5.4Z" class="&lt;Path&gt;"/>
        <path fill="#212F61" d="M27.026 13.306c.4.1 1 .2 1.4.6.1.1.2.2.2.3 0 0-.3-.1-.4-.1-.9-.1-1.7-.1-2.5 0l-.4-.8h1.7Z" class="&lt;Path&gt;"/>
        <path fill="#FDDDB4" d="M29.926 32.206c0 .5.4.8.8.8s.8-.3.8-.7c0-.5-.3-.8-.8-.8-.4 0-.8.3-.8.7Z" class="&lt;Path&gt;"/>
      </g>
    </g>
  </g>
</svg>
