<svg xmlns="http://www.w3.org/2000/svg" width="87" height="20" fill="none" viewBox="0 0 87 20">
  <g class="6-3-texto">
    <g class="texto">
      <g class="&lt;Clip Group&gt;">
        <path fill="#DD4297" d="M86.52 10.387c-.24-3.28-.48-6.6-.72-9.96 0-.48-.12-.48-.72-.36-.56.16-1.16.32-1.8.48-2.8.56-5.6 1.08-8.4 1.56-3.44.64-6.88 1.16-10.32 1.56-2.64.4-5.28.72-7.92.96-4.08.48-8.16.72-12.12 1.08-3.48.24-6.84.36-10.32.48-2.96.16-5.92.28-8.88.36-4.48.08-8.96.04-13.44-.12-3.84-.12-7.56-.36-11.28-.72-.6-.12-.6-.12-.6.36.24 2.76 0 5.52.24 8.28l.24 3.84c0 .24 0 .36.48.36.84.12 2.04.24 2.88.24 1.12.16 2.24.24 3.36.24 1.44.08 2.84.16 4.2.24h.72c2.76.12 5.64.24 8.4.24.48 0 .96-.12 1.44.12.24-.24.6-.12.84-.12 3-.12 6-.12 9-.12 2.88-.12 5.88-.36 8.88-.48 1.08 0 2.16-.24 3.36-.24h.36c2.4-.16 4.76-.36 7.08-.6.32 0 .68-.04 1.08-.12.96 0 6.12-.48 7.68-.72 2.04-.24 4.2-.48 6.24-.72 1.28-.24 2.56-.44 3.84-.6.24 0 6.96-1.08 7.68-1.2 1.2-.24 2.36-.48 3.48-.72 1.52-.32 3-.64 4.44-.96.72-.24.72-.24.72-.96-.08-.56-.12-1.12-.12-1.68Z" class="&lt;Path&gt;"/>
      </g>
      <path fill="#FEFEFE" fill-rule="evenodd" d="m7.2 12.247.36-1.8 1.56.12.72-1.08 1.8.12-.6 1.08h.72l.6-1.08 1.8.12-.6 1.08h.48l-.36 1.8-1.08-.12-.6.96 1.08.12-.36 1.68h-1.68s-.12.12-.24.48c-.08.16-.2.36-.36.6l-1.92-.12.72-1.08h-.72c-.08.08-.16.24-.24.48-.16.24-.28.44-.36.6L6 16.087l.6-1.08h-.48l.36-1.8h1.2l.48-.84-.96-.12Zm2.88.12-.6.84.72.12.48-.96h-.6Z" class="&lt;Compound Path&gt;" clip-rule="evenodd"/>
      <path fill="#FEFEFE" d="m21.12 9.727-1.08 6.84h-1.8l-1.68-3-.48 2.88h-2.04l1.08-6.84 1.8.12 1.68 3 .48-3h2.04Zm0 6.84.96-6.84h2.04l-.96 6.84h-2.04Zm5.88.12c-.12 0-.12 0-.6-.12-.36 0-.6-.12-1.08-.48-.36-.24-.6-.6-.84-1.2-.08-.32-.08-.68 0-1.08l.48-4.08H27l-.48 4.08v.36c0 .08.04.16.12.24.12.12.36.36.6.36.24-.08.44-.16.6-.24.16-.16.24-.32.24-.48l.12-.24.48-4.2h2.04l-.48 4.2c-.12.72-.36 1.32-.84 1.8-.16.16-.36.32-.6.48-.6.36-1.32.48-1.68.48l-.12.12Zm10.68-7.32-.72 6.84h-1.92l-1.8-2.88-.36 3-2.04.12.72-6.84 1.8-.12 1.92 2.88.36-3h2.04Z" class="&lt;Compound Path&gt;"/>
      <path fill="#FEFEFE" fill-rule="evenodd" d="m42.72 9.007 1.92 6.72-2.16.12-.24-.72-2.16.12-.36.72-2.16.12 3.12-6.96 2.04-.12Zm-1.92 4.32h.96l-.36-1.44-.6 1.44Z" class="&lt;Compound Path&gt;" clip-rule="evenodd"/>
      <path fill="#FEFEFE" d="M49.08 14.647h-.48l-1.2-1.92-.12 2.88-2.04.12.36-6.84 1.92-.12 1.56 2.4 1.8-2.76 1.92-.12-.36 6.84-2.04.24.12-2.88-1.44 2.16Zm6.6-4.68v.6l2.64-.24-.12 1.8-2.64.24v.6l2.88-.36-.12 1.92-4.92.48.36-6.84 4.92-.48-.12 1.92-2.88.36Zm9.72-3.12-.12 6.96-1.8.24-2.16-2.76v3l-2.04.24.12-6.96 1.8-.12 2.16 2.64.12-3 1.92-.24Z" class="&lt;Compound Path&gt;"/>
      <path fill="#FEFEFE" fill-rule="evenodd" d="M69.72 6.127c.96-.08 1.8.16 2.52.72.72.56 1.08 1.36 1.08 2.4 0 .96-.36 1.84-1.08 2.64-.64.8-1.48 1.28-2.52 1.44-.96.16-1.8-.08-2.52-.72-.64-.56-1-1.36-1.08-2.4 0-.96.36-1.84 1.08-2.64.64-.8 1.48-1.28 2.52-1.44Zm0 5.28c.4-.08.76-.32 1.08-.72.24-.32.36-.72.36-1.2 0-.4-.12-.76-.36-1.08-.32-.24-.68-.36-1.08-.36-.4.08-.76.32-1.08.72-.24.32-.36.72-.36 1.2 0 .4.12.76.36 1.08.32.24.68.36 1.08.36Z" class="&lt;Compound Path&gt;" clip-rule="evenodd"/>
      <path fill="#FEFEFE" d="M75.12 9.727c.48.48 1 .68 1.56.6.4-.08.6-.24.6-.48 0-.08-.12-.16-.36-.24-.16-.08-.4-.12-.72-.12-.32-.08-.64-.2-.96-.36-.32-.08-.6-.24-.84-.48-.24-.32-.36-.68-.36-1.08-.08-.4.04-.84.36-1.32.36-.6 1.08-.96 2.04-1.2.72-.12 1.44 0 1.8.24.36.24.72.48.84.6l.12.12-1.32 1.32c-.24-.24-.44-.36-.6-.36a1.11 1.11 0 0 0-.72 0c-.36 0-.48.24-.48.36s.36.36.84.36c.24 0 .48.04.72.12.32.08.6.2.84.36.24.08.44.24.6.48.16.24.24.56.24.96 0 .4-.16.88-.48 1.44-.36.48-1.08.96-2.04 1.08-.8.16-1.44.12-1.92-.12-.56-.32-.92-.64-1.08-.96l1.32-1.32Z" class="&lt;Compound Path&gt;"/>
    </g>
  </g>
</svg>
