<svg xmlns="http://www.w3.org/2000/svg" width="55" height="67" fill="none" viewBox="0 0 55 67">
  <path fill="#7C265A" fill-rule="evenodd" d="M1.237 3.564c.2.266.4.3.6.1.3-.2.1-.4 0-.6l-.2-.2c-1.1-.5-1.1-1.6-1.6-2.5-.1-.2 0-.3.3-.3.9-.2 1.6.1 2.4.5.9.4 1.8.5 2.7.4.1 0 .2.1.3 0 .4-.5 1.1-.5 1.5-.1l.6.6c.2.1.3.2.4.4 0 .3.2.5.4.7.4.3.5.3.8-.1.2-.3.7-.4 1-.2.2.1.5.3.6.7 0 .1.1.2.2.3.3.3.6.6.7 1.1.1.5.6.7 1.1.7.1.1.4 0 .4.2s0 .3-.2.4c0 .1-.1.1-.1.2 0 .8-.4 1.7.2 2.6.2.2.1.4.2.6.3.7.8 1.2 1.5 1.5.3.1.8-.1 1.2-.1.1 0 .2-.1.3-.1.2-.1.5.1.7-.1.2-.3.4-.6.5-1 .1-.5.3-.7.8-.8.334-.067.7-.134 1.1-.2.5-.1.7.1.8.5 0 .2 0 .4-.2.4-.3 0-.3.2-.4.4 0 .5-.1.9-.4 1.3-.2.4-.1.9-.4 1.3 0 .1.2.1.3.1h1.1c.6-.1 1.2 0 1.8.2.334.133.467.366.4.7-.066.666-.133 1.366-.2 2.1v.5c.5.5.8 1.1 1.6 1.3.2 0 .4-.1.6-.2.4-.1.9-.2 1.3-.1.3 0 .5.1.6.4.2.4.3.3.6 0s.5-.6.7-1c.1-.4.5-.4.9-.5.5-.2 1.2-.2 1.5-.8.1-.1.2-.1.3 0 .1.1.2.3 0 .4-.1.1-.3.1-.2.3.2.2.3.1.5.1.3-.1.5-.2.5-.5 0-.1 0-.2.2-.2.067 0 .1.066.1.2.1.2.3.3.5.4.2.1.6.2.8.5 0 .1.3.1.5 0 .3-.1.6 0 .8.1.4.2.6.1 1-.1s.9-.1 1.4-.1c-.4.4-.3.5.2.6.4.1.7.1.6.7-.1.2.1.2.2.2.4-.067.7.066.9.4.4.5 1 .7 1.4 1.2.1.1.3.1.5.1.7 0 1.5 0 2.2.2.8.3 1.4.9 1.5 1.7.1.3.1.6.4.8.1 0 .1.1.1.2-.3.5.1.4.4.5.667.333 1.334.7 2 1.1.2.1.3.2.5.2.4.1.6.3.7.6.1 0 .1.1.2.1.6 0 1.2.4 1.9.3.6-.2 1.2.1 1.7.5.267.2.5.4.7.6.3.3.6.4 1 .4.6-.1.8.1.8.7-.1.4-.1.7.1 1 .1.4 0 .7-.3 1-.2.266-.4.466-.6.6-.5.5-1 1-1.4 1.6-.066.133-.2.266-.4.4-.3.2-.3.6-.3.9 0 .5.2 1 0 1.5-.2.8-.2 1.7-.6 2.4-.2.3-.5.4-.6.8-.2.9-.3.8-1.1 1-.6.1-1.2.2-1.7.5-.1.1-.2.2-.3.1-.5-.2-.7.2-.9.4-.4.4-.9.7-1.1 1.3 0 .2-.1.3 0 .4.2.4 0 .8.1 1.3 0 .1-.1.2-.2.3-.4.1-.4.4-.5.7-.3.9-1.1 1.6-1.6 2.3-.4.4-.7.8-.9 1.2-.2.5-.8.7-1.3.6-.6-.2-1.2-.367-1.8-.5-.1.3.3.3.4.4.2.2.5.2.2.6-.1.1 0 .3.2.3.3 0 .3.2.3.4 0 1-.9 1.9-2 2-.4 0-.8.1-1.3 0-.2-.1-.4 0-.4.3.1.4 0 .7 0 1.1 0 .4-.2.5-.5.5-.4 0-.7-.1-1-.2 0 0-.1-.1-.2-.1-.2.3-.1.6-.1.9 0 .1.1.3.3.3a.887.887 0 0 1 .4-.1c.134 0 .234.066.3.2.1.2 0 .3-.1.4-.2.1-.3.1-.4-.1 0 0-.1-.1-.2 0-.133.066-.133.133 0 .2.2.2 0 .2 0 .3-.4.4-.6.9-.6 1.4 0 .2-.1.3-.2.3-.4.1-.8.2-1 .6-.2.5 0 1.1.6 1.1.2.1.4.1.4.4.1.3.2.6-.1.8-.6.4-1.2.8-1.2 1.6 0 .3-.3.3-.4.4-.5.3-.7.6-.5 1.1.1.3.3.5.3.8.1.4.3.8.2 1.3 0 .1.1.2.2.3.5.8 1.3 1.2 2.2 1.5-.6.2-1.2.2-1.8.3-.1.1-.4 0-.2.3 0 .2-.2.2-.3.1-.3-.3-.9-.2-1.3-.5-.1-.1-.3-.3-.5-.4-.2-.3-.4-.6-.8-.6-.2-.1-.4-.2-.5-.5 0-.1-.1-.2-.2-.2-.6-.1-.4-.6-.5-.9-.2-.8-.1-1.7-.4-2.5-.266-.534-.4-1.134-.4-1.8 0-.3.2-.6.5-.7.4-.2 0-.5 0-.7 0-.2-.2 0-.3 0-.1 0-.2.2-.3 0 0-.1 0-.3.1-.3.3-.2.1-.8.6-.7.1-.6.7-.7 1-1 .2-.2.1-.3-.1-.4-.2-.2-.2-.4-.1-.7.2-.4 0-.9.3-1.3.1-.1 0-.3-.2-.4-.3 0-.2.2-.2.4-.1.3-.2.5-.1.9 0 .1-.2.2-.4.2s-.266-.1-.2-.3l.3-2.4c.2-.8.1-1.5.1-2.1 0-.3-.1-.4.2-.6.2-.2.3-.6.5-.9.5-1 .9-2.1.6-3.2-.2-.8.1-1.5.1-2.2 0-.5.2-1.1.4-1.6.1-.2.2-.4.2-.6-.1-1.3.3-2.5.2-3.8 0-.4 0-.8-.1-1.2-.4-.7-.8-1.3-1.6-1.6-.7-.3-1.4-.7-2-1.2-.1-.2-.3-.4-.3-.7v-.2c-.6-.9-1-1.9-1.4-2.9-.4-.7-.8-1.3-1.5-1.8-.133-.067-.2-.2-.2-.4 0-.1.1-.3 0-.4-.2-.5 0-.8.3-1 .3-.2.1-.4 0-.6-.3-.2-.4-.7-.2-1 .2-.4.5-.7.6-1.1 0-.2.2-.3.3-.3.4 0 .4-.2.5-.5.1-.3.1-.5.5-.6.5-.1.6-.4.5-.9-.1-.4-.3-.9-.1-1.4.1-.1-.1-.3-.2-.4-.2-.3-.4-.6-.3-1 0-.1-.1-.2-.1-.2-.3-.3-1.2-.1-1.4.2 0 .133.034.233.1.3.1.1.3.2 0 .3-.1.1-.3.2-.4.1-.1-.1-.2-.3-.3-.2-.3.2-.3.1-.3-.2 0-.3-.3-.3-.5-.3-.4.1-.6 0-.8-.4-.2-.3-.5-.5-.9-.6-.4 0-.6-.2-.6-.6 0-.4-.2-.6-.4-.8-.3-.3-.6-.5-.7-.9-.1-.2-.2-.1-.3-.1-.2.1-.4.1-.7 0-.4-.2-.8-.4-1.3-.4-.5-.1-.7-.4-1.1-.7-.2-.2-.5-.5-.8-.6-.3-.2-.6-.3-.9-.1-.8.4-1.5 0-2.2-.2-1.1-.3-1.9-1-3-1.3-.6-.2-1.2-.6-1.8-1.2-.1-.1 0-.3 0-.5 0-.5.2-1-.2-1.5a4.22 4.22 0 0 1-.8-1.1c-.1-.1-.2-.2-.4-.3-.5-.3-1.1-.6-1.1-1.3 0-.1 0-.1-.1-.2-.4-.2-.6-.7-1-1l-.6-.6v-.2c-.7-.2-.5-.9-.7-1.3-.2-.4-.6-.8-1-.8-.2 0-.3.1-.2.3a5.7 5.7 0 0 1 .3 1l.1.1c.6.1.8.6.9 1 .4.9 1.2 1.6 1.4 2.6.1.4.3.6.6.7.5.2.5.5.3.8-.2.2-.4.2-.6-.1-.2-.5-.7-.7-1.1-1-.2-.1-.3-.2-.2-.4.2-.4-.1-.9-.6-1.1-.5-.2-.9-.7-1.4-.9-.066-.067-.066-.167 0-.3Zm45.8 34.9v-.1c-.1 0-.1.1 0 .1Zm-17.1-22.8h-.1s.1.1.1 0Zm16.6 23.1.1-.1c-.066 0-.1-.034-.1-.1v.2Zm0-.6c-.1-.2-.2-.3-.5-.3.1.3.4.2.4.5.2 0 .2-.1.1-.2Zm-.2.3c0 .1.1.1.2.1 0-.067-.033-.134-.1-.2 0 0-.1 0-.1.1Zm-14.2-21c.1-.1 0-.2-.1-.2 0 0 0 .1.1.2Zm-.2-.5v.1c0 .1 0 .1.1.1 0 0 0-.1-.1-.2Zm.6 42.9c0-.1-.1-.1-.1 0h.1Zm.3-.2c0-.1-.1-.1-.1-.1-.2 0-.2.1-.2.2.1 0 .3.1.3-.1Zm-3.1-43.2h-.1c-.1.2 0 .6.2.7.1.1.2 0 .3-.1 0 0-.3-.6-.4-.6Zm-2.4 1.4c.467 0 .634-.234.5-.7-.1.2-.3.4-.5.7Zm17.4 19.5c.1-.3-.1-.7.5-.6-.1-.2-.2-.4-.4-.3-.3.2-.1.6-.1.9Zm-14.3 22.5c.2.1.3 0 .5 0 .1-.1.2-.1.1-.3 0 0-.1-.1-.2.1-.1.1-.3.1-.4.2Zm0-42.1c-.2-.1-.4-.2-.6-.4.1.4.3.5.6.4Zm1.8 42.5c0-.1 0-.2-.1-.2s-.2.1-.2.2.1.1.2.1c.134.066.167.033.1-.1Zm12.5-20.8c-.1.1-.2.1-.2.2s.1.1.2.1c.067 0 .1-.067.1-.2 0-.067-.033-.1-.1-.1Zm-12.1-21.7c.1.1.2.2.4.1v-.1c-.066-.067-.2-.067-.4 0Zm1.2-.3c0 .066.034.133.1.2.134 0 .167-.067.1-.2 0-.067-.033-.1-.1-.1-.1 0-.1 0-.1.1Zm9.4 19.1c.2 0 .4.1.5-.1v-.1c-.2-.1-.3.1-.5.2Zm-8.6-19.7c-.2.1-.3.2-.2.4.1-.1.2-.2.2-.4Zm-2.6-.8c0-.067-.033-.1-.1-.1-.1 0-.1.1-.1.1 0 .1 0 .2.1.2s.1-.1.1-.2Zm3.6.4c-.2-.1-.3-.1-.4.1.2 0 .3 0 .4-.1Zm-5.6 45c0 .1 0 .3.2.3 0-.1 0-.2-.2-.3Zm4.2-44.6c0-.134-.033-.2-.1-.2-.066 0-.1.033-.1.1.1.1.1.2.2.1Zm-3.7 45.3c-.133 0-.2.033-.2.1l.1.1c.1 0 .2 0 .2-.1s-.1-.1-.1-.1Zm14.8-25.9c.1 0 .1 0 .1-.1h-.1s-.1 0-.1.1h.1Zm1.3.3c.2-.1.3-.2.2-.4-.1.1-.2.2-.2.4Zm-13-18.7c-.1-.2-.1-.4-.3-.3.1.1.1.2.3.3Zm16 19.6v-.1c-.066 0-.133.033-.2.1 0 .1 0 .1.1.1s.1-.1.1-.1Zm-.8-.3c-.066-.067-.133-.1-.2-.1 0 0 0 .1-.1.1 0 .1.1.1.1.1.067 0 .134-.034.2-.1Zm-11.9-19.6h-.1c-.066 0-.1.033-.1.1h.1l.1-.1Zm-4.9 43.2h-.1c0 .066.034.1.1.1v-.1Zm14.4-24.5c.067 0 .067-.034 0-.1h-.1c0 .066.034.1.1.1Zm-1.5 3.7c0 .066.034.1.1.1l.1-.1h-.2Zm-10.2-23.5h-.2c-.066 0-.066.033 0 .1h.1l.1-.1Zm14 20.2h-.2.2Zm-12.9-19.7c0-.067-.033-.1-.1-.1l-.1.1c0 .066.034.1.1.1.067 0 .1-.034.1-.1Zm9.1 20.8h.1v-.1h-.1v.1Zm-9.2-20.2h.1c.067 0 .067 0 0 0v-.1c-.066 0-.1.033-.1.1Zm12.9 20.5v-.1h-.1c0 .066.034.1.1.1Zm-18.6 21v.1c.1 0 .1-.1.1-.1l-.1-.1v.1Zm-.8.7c0-.067-.033-.1-.1-.1v.1h.1Zm-.8-42.9c.067-.067.067-.134 0-.2-.066.066-.066.133 0 .2Zm6.9 0v-.1h-.1l.1.1Zm1.5 1.1c0-.067-.033-.1-.1-.1v.1h.1Zm8.7 21.9-.1-.1v.1h.1Zm-9.4-22.2c0 .066.034.1.1.1v-.1h-.1Zm-3.7-.5h-.1.1Zm-1.5.4v.1-.1Zm-4 .2h-.1v.1l.1-.1Zm4.4 1.7h-.1.1Zm14 17 .1.1v-.1h-.1Zm.1 1.5h-.1.1Zm-19.3-20.8v.1l.1-.1h-.1Z" clip-rule="evenodd"/>
  <path fill="#7C265A" d="M21.637 8.464c.5-.6 1.1-1.1 2-1 .2 0 .4 0 .6.1.5.1 1 .4 1.5.4s.7.4 1.1.6c.5.2 1 .5 1.5.8.1 0 .2.1.2.2s-.1.1-.2.2c-.7.2-1.3.1-1.9.1-.1-.2.2-.3.2-.5-.5 0-1.1.3-1.4-.3h.2c.1.1.3.2.3 0 .1-.1 0-.3-.2-.3-.5-.1-.9-.3-1.4-.4-.3-.1-.5-.1-.7-.4-.2-.2-.5.1-.7.2-.2.3-.8.5-1.1.3Zm6.7 2.3c.7.3.8-.3 1-.5.3-.2-.3-.2-.3-.4s.2-.1.3-.1c.7-.1 1.5-.1 2.2.1.467.133.867.366 1.2.7.067.066.067.133 0 .2-.2.1-.3.3-.5.2-.4-.2-.8.2-1.2 0-.2-.1-.3.2-.3.3-.1.2-.3.3-.3.1-.1-.4-.4-.4-.7-.3-.2 0-.4 0-.7.1-.2 0-.4 0-.7-.4Zm10.1 52.5c-.2 0-.2-.1-.3-.2 0-.1 0-.2-.1-.2-.1-.1-.2 0-.2.1-.1.1-.1.3-.3.1-.2-.1-.4-.2-.4-.4-.1-.1.1-.2.1-.1.4.1.4-.1.5-.3.1-.3.4-.3.7-.3.2.067.434.1.7.1.2 0 .3.1.4.3.1.1-.2.2-.3.3-.2.133-.4.3-.6.5-.066.067-.133.1-.2.1Zm-11.399-56.9c-.3-.6-.5-1.5-1.6-1.3.2-.2.5-.3.8-.3.4 0 .6.1.5.6-.1.1-.1.2 0 .2.5.1.6.6.9.8.1.1.2.2.1.3-.1.2-.2-.1-.2-.1-.1-.2-.3-.1-.5-.2Zm8.299 4.3c-.6.4-1.1.5-1.7.5-.2 0-.4-.1-.3-.4 0-.2.2-.3.4-.2.5.1 1 .5 1.6.1Zm-8.9 0a.88.88 0 0 1 .4.1c.2.1.4.1.4.3-.1.2-.3.2-.4.2-.2 0-.3 0-.5-.1-.2 0-.4-.1-.3-.3 0-.2.2-.2.4-.2Zm.1-4.5c-.3.1-.3.2-.2.5.1.1.2.3 0 .4-.2.1-.2-.1-.3-.3-.1-.1-.4-.2-.2-.5.2-.4.5-.1.7-.1Zm-8.3 17.3c-.3 0-.5-.1-.6.2 0 .1-.2.1-.2 0 0-.2-.3-.5-.1-.7.1-.2.2-.1.3 0 .1.2.5.1.6.5Zm10.1-16.5c-.3.3-.1.6-.2.9-.1-.5-.5-.5-.8-.7.3.1.6-.3 1-.1v-.1Zm9.5 8.7c-.1.1-.1.3-.1.4.1.2.1.3-.1.3-.1.1-.3.1-.4-.1 0-.1 0-.3.1-.4.134-.067.3-.134.5-.2Zm-8.4-7.5c.2.1.3.4.6.5.1 0 0 .2-.1.2-.4-.1-.4-.5-.7-.6 0-.1.1-.1.2-.1Z"/>
  <path fill="#7C265A" d="M23.637 8.664c-.2.1-.4 0-.6 0-.1.1-.2.1-.2-.1 0-.1.1-.2.2-.2.2.066.4.166.6.3Zm14.2 4.9c0 .066-.033.1-.1.1-.1 0-.2-.1-.2-.1 0-.2-.3-.5-.2-.6.3-.1.2.3.3.4.1 0 .2.1.2.2Zm-8.5-4.9c.1.3 0 .5-.3.5-.2.1-.3 0-.1-.2.134-.134.267-.234.4-.3Zm7.9 3.9c-.1-.1-.3 0-.3-.3 0-.1.1-.1.2-.1.2 0 .3.1.3.3 0 .133-.066.166-.2.1Zm-8.699-4.2c-.1 0-.1-.1-.1-.2 0-.2.066-.267.2-.2.1 0 .2 0 .2.2 0 .1-.1.2-.3.2Zm7.5 2.5c.1.1.2.1.2.2 0 .2-.2.2-.3.2-.067 0-.1-.034-.1-.1 0-.133.066-.234.2-.3Zm-3.6 3.8c0 .066-.034.1-.1.1-.1 0-.2-.2-.3-.3 0 0 0-.1.1-.1.2.066.3.166.3.3Zm-.9-.4c.1 0 .2.1.3.2 0 .1-.1.1-.2.1s-.2 0-.2-.1c0-.134.033-.2.1-.2Zm-4.5-7.9c0 .2 0 .3.2.5-.3 0-.4-.2-.4-.3 0-.2.1-.1.2-.2Zm-8.401 17.4c-.1-.2 0-.3.2-.4v.1c0 .2-.1.2-.2.3Zm6.401-18c.3 0 .4 0 .4.2-.134 0-.267-.067-.4-.2Zm7.899 9c0 .1 0 .1-.1.1-.066 0-.1-.034-.1-.1-.1-.1 0-.1.1-.1.067 0 .1.033.1.1Zm-9-4.6c0 .066-.033.1-.1.1-.1 0-.2 0-.1-.1 0 0 0-.1.1-.1 0 0 0 .1.1.1Zm13.701 3.9c0 .066-.034.1-.1.1 0-.1-.1-.1-.1-.2.066-.067.133-.067.2 0v.1Zm-.701-2.4c.1 0 .1 0 .1.1s-.1.1-.1.1c0-.1-.1-.1-.1-.1 0-.1.1-.1.1-.1Zm-.6 0h-.1l-.1-.1h.1c.067 0 .1.033.1.1Zm-12.099-1.7c0 .066-.034.1-.1.1 0-.1-.1-.1-.1-.1.1-.1.1-.1.2-.1v.1Zm10.9 1.3c-.067 0-.134.033-.2.1l-.1-.1c0-.1.1-.1.1-.1.066 0 .133.033.2.1Zm1.599.8-.1.1c-.1 0-.1 0-.1-.1h.2Zm1.5 2.3c-.066.066-.1.066-.1 0v-.1c.067 0 .1.033.1.1Zm-11.699-6.9c0 .066-.034.1-.1.1l-.1-.1h.2Zm11 7v.1c-.067 0-.1-.034-.1-.1.1-.1.1 0 .1 0Zm-9.201-7.4c-.1-.1-.1-.2-.1-.3h.1c.1.1-.1.2 0 .2v.1Zm8.5 4.2h.1l-.1.1v-.1Zm-3.9-.3h-.1l.1-.1v.1Zm-14.899 11.9-.1-.1h.1v.1Z"/>
</svg>
