<svg xmlns="http://www.w3.org/2000/svg" width="50" height="68" fill="none" viewBox="0 0 50 68">
  <path fill="#C68C57" d="m26.995 58.891 7.2-.3.2 6-7.1.3-.3-6Z"/>
  <path stroke="#050505" stroke-width=".5" d="m26.995 58.891 7.2-.3.2 6-7.1.3-.3-6Z"/>
  <path fill="#050505" d="M34.795 63.991s-.5 1.4 2.1 2.7l-10.2.2v-2.6l8.1-.3Z"/>
  <path stroke="#050505" stroke-linecap="round" stroke-linejoin="round" stroke-width=".8" d="M34.795 63.991s-.5 1.4 2.1 2.7l-10.2.2v-2.6l8.1-.3Z"/>
  <path fill="#C68C57" d="m15.495 59.391 7.2-.3.2 6-7.2.3-.2-6Z"/>
  <path stroke="#050505" stroke-width=".5" d="m15.495 59.391 7.2-.3.2 6-7.2.3-.2-6Z"/>
  <path fill="#050505" d="M15.295 64.791s.6 1.4-1.9 2.8l10.2-.5-.3-2.7-8 .4Z"/>
  <path stroke="#050505" stroke-linecap="round" stroke-linejoin="round" stroke-width=".8" d="M15.295 64.791s.6 1.4-1.9 2.8l10.2-.5-.3-2.7-8 .4Z"/>
  <path fill="#D24798" d="m35.895 53.291 2.8 6.3s-4.9 1.7-13.5 2.1c-8.6.4-13.6-1-13.6-1l2.4-8.6 21.9 1.2Z"/>
  <path stroke="#050505" stroke-linecap="round" stroke-linejoin="round" stroke-width=".5" d="m35.895 53.291 2.8 6.3s-4.9 1.7-13.5 2.1c-8.6.4-13.6-1-13.6-1l2.4-8.6 21.9 1.2Z"/>
  <path fill="#AB795A" stroke="#050505" stroke-linecap="round" stroke-linejoin="round" stroke-width=".6" d="M40.995 32.991c.5-.8 2-3.5 2.7-4.3 1.1-1 2.3-.6 3.6.2 1.5 1.1 2 2.3 1.3 4-.3.7-1.4 2.2-2 3-.6.9-2.3 2.9-4.6 1.4s-1.5-3.6-1-4.3Z"/>
  <path fill="#050505" d="M46.595 35.891c-.6.9-2.3 2.9-4.6 1.4s-1.3-3.9-.8-4.7c1.8.4 3.4 1.7 5.4 3.3Z" opacity=".2" style="mix-blend-mode:multiply"/>
  <path fill="#AB795A" d="m41.695 32.291-.1-1.5c0-.6.4-1.2.9-1.2.6 0 .9.3 1.1.6.2.4.2.8.2.8"/>
  <path stroke="#050505" stroke-linecap="round" stroke-linejoin="round" stroke-width=".6" d="m41.695 32.291-.1-1.5c0-.6.4-1.2.9-1.2.6 0 .9.3 1.1.6.2.4.2.8.2.8"/>
  <path fill="#050505" d="M43.695 30.091s.6.3.6.9c.1.5.1 1 .4 1.1.3.2 1.5 1.2 2 1.1.4-.2 1.9-1.8 1.2-2.7-.7-1-2.7-2.4-3.7-1.6-1 .8-.5 1.2-.5 1.2Z" opacity=".2" style="mix-blend-mode:multiply"/>
  <path fill="#F5F6F7" stroke="#050505" stroke-linecap="round" stroke-linejoin="round" stroke-width=".6" d="M46.495 36.391c-1.1 1.6-2 2.7-3.4 4.4-2.3 3.1-4.7 4.4-4.7 4.4-2 1.3-4.4 1-5.7-.8l-.4-.5c-1.1-1.6-1.2-3.9 1.2-5.6 0 0 2.2-1.7 3.8-3.8 1.1-1.4 2.5-3.2 2.5-3.2l6.7 5.1Z"/>
  <path fill="#0A0C0F" d="M46.495 36.391c-1.1 1.6-2 2.7-3.4 4.4-2.3 3.1-4.7 4.4-4.7 4.4-2 1.3-4.4 1-5.7-.8l-.4-.5a2.55 2.55 0 0 1-.3-.6c.4.1.6.1.6.1s2.7 1.4 5.9-1.6c2.2-2 4.5-5.2 5.7-7.1l2.3 1.7Z" opacity=".3"/>
  <path fill="#768536" d="m11.995 59.29.1 1.901c0 .133 0 .133 0 0l-.1-1.9c0-.133 0-.133 0 0Zm-.9-2.999c.133-.2.333-.3.6-.3l-.1-.3c-.2 0-.367.1-.5.3-.1 0 0 .1 0 .1v.2Zm2.9 1.6c.5-.2.9-.6 1.5-.8 0 0-.1-.3 0-.3-.6.2-1 .6-1.5.8v.3Zm8.1 1.1c-.067-.2-.1-.367-.1-.5v.3c0 .133.033.3.1.5v-.3Zm0-2.5c.2-.6.2-1.4 0-1.9v.3c.2.4.2.8 0 1.2-.1.1 0 .3 0 .4Zm8.3 3.2c-.2-.5-.2-1-.2-1.5 0-.2 0-.2 0 0 0 .6 0 1.2.2 1.8-.1-.1 0-.2 0-.3Zm4.9-.8a4.922 4.922 0 0 0 0-1.4v.3c.1.3 0 .5 0 .7v.4Z"/>
  <path fill="#F38A9A" d="M22.495 44.991c.2 5.9-3.5 10.9-8.3 11.1-4.8.2-8.9-4.4-9.1-10.4-.3-6 3.5-9.6 8.3-9.8 4.8-.2 8.8 3.1 9.1 9.1Z"/>
  <path stroke="#050505" stroke-width=".6" d="M22.495 44.991c.2 5.9-3.5 10.9-8.3 11.1-4.8.2-8.9-4.4-9.1-10.4-.3-6 3.5-9.6 8.3-9.8 4.8-.2 8.8 3.1 9.1 9.1Z"/>
  <path fill="#F3F6F7" stroke="#050505" stroke-width=".5" d="M24.895 34.491c4.2-.2 9.7 1.8 9.7 1.8s.5 9.3 1.6 13.1c1 3.5 2.6 5.8 2.6 6.4-.5 1.9-7.8 3.9-10.1 4.1-6.3.6-9.6-1.1-13.9-1-3.4.2-4-.3-4.3-.7-1.2-1.3 1.5-21.8 1.5-21.8s8.6-1.7 12.9-1.9Z"/>
  <path stroke="#050505" stroke-linecap="round" stroke-linejoin="round" stroke-width=".5" d="M24.895 34.491c4.2-.2 9.7 1.8 9.7 1.8s.5 9.3 1.6 13.1c1 3.5 2.6 5.8 2.6 6.4-.5 1.9-7.8 3.9-10.1 4.1-6.3.6-9.6-1.1-13.9-1-3.4.2-4-.3-4.3-.7-1.2-1.3 1.5-21.8 1.5-21.8s8.6-1.7 12.9-1.9Z"/>
  <g opacity=".4">
    <mask id="a" width="8" height="3" x="20" y="41" maskUnits="userSpaceOnUse" style="mask-type:luminance">
      <path fill="#fff" d="m20.635 43.891 6.71-.27-.1-2.4-6.71.28.1 2.39Z"/>
    </mask>
    <g mask="url(#a)">
      <path fill="#B4B4B4" d="M20.695 41.591v.6h3.8l-.7.5.1.5 3.3.1v.2l-1.9-2.1-4.6.2Z"/>
      <path stroke="#B4B4B4" stroke-linejoin="round" stroke-width=".4" d="M20.695 41.591v.6h3.8l-.7.5.1.5 3.3.1v.2l-1.9-2.1-4.6.2Z"/>
    </g>
  </g>
  <path fill="#F3F6F7" d="m28.395 37.791 2.8 2.9-2.1.3.6.6-2.3 2.4-.2-1 .7-5 .5-.2Z"/>
  <path stroke="#050505" stroke-linecap="round" stroke-linejoin="round" stroke-width=".4" d="m28.395 37.791 2.8 2.9-2.1.3.6.6-2.3 2.4-.2-1 .7-5 .5-.2Z"/>
  <path fill="#F3F6F7" d="m22.895 38.691-2.3 2.8h3.9l-.7 1 3.5 1.4-.1-.7-2.1-3.8-2.2-.7Z"/>
  <path stroke="#050505" stroke-linecap="round" stroke-linejoin="round" stroke-width=".4" d="m22.895 38.691-2.3 2.8h3.9l-.7 1 3.5 1.4-.1-.7-2.1-3.8-2.2-.7Z"/>
  <path fill="#D81E45" d="m27.495 38.791-2.7-.4 2.3 4 .1-1.2.3-2.4Z"/>
  <path stroke="#050505" stroke-linecap="round" stroke-linejoin="round" stroke-width=".4" d="M20.495 52.891c.1 2.4-1.3 3.5-3.1 3.6-1.8.1-3.3-1-3.4-3.3l-.1-2.5 6.6-.3v2.5Z"/>
  <path fill="#EB2A2C" d="m20.595 51.691-6.7.2Z"/>
  <path stroke="#050505" stroke-width=".4" d="m20.595 51.691-6.7.2"/>
  <path fill="#050505" d="M25.395 45.791c.1.4.4.7.7.7.4 0 .7-.4.7-.7 0-.4-.3-.7-.7-.7-.4 0-.7.3-.7.7Zm.5 5.5c0 .4.3.7.7.7.3 0 .6-.3.6-.7 0-.4-.3-.7-.7-.7-.4 0-.6.4-.6.7Zm1.4 5.3c0 .4.3.7.7.7.3-.1.6-.4.6-.8 0-.3-.3-.6-.7-.6-.4 0-.6.3-.6.7Z"/>
  <path fill="#F38A9A" d="M15.595 37.991c4.4 3.9.8 9.7-2.8 8.8-1.4-.4-1.4-1.7-1.4-1.7l.9-8.2s2.7.4 3.3 1.1Z"/>
  <path stroke="#050505" stroke-width=".6" d="M15.595 37.991c4.4 3.9.8 9.7-2.8 8.8-1.4-.4-1.4-1.7-1.4-1.7l.9-8.2s2.7.4 3.3 1.1Z"/>
  <g style="mix-blend-mode:multiply">
    <mask id="b" width="6" height="19" x="9" y="41" maskUnits="userSpaceOnUse" style="mask-type:luminance">
      <path fill="#fff" d="m10.385 59.451 4.37-.18-.74-17.96-4.37.18.74 17.96Z"/>
    </mask>
    <g mask="url(#b)">
      <path fill="#DFDFDE" d="m10.295 58.091 1.5-16.7 2.3.8-1.4 17.2-2.4-1.3Z"/>
    </g>
  </g>
  <path fill="#FEFEFE" d="M27.295 43.291s.2 6.6 1.3 10.1c1.1 3.6 1.4 6 1.4 6"/>
  <path stroke="#050505" stroke-linecap="round" stroke-linejoin="round" stroke-width=".4" d="M27.295 43.291s.2 6.6 1.3 10.1c1.1 3.6 1.4 6 1.4 6"/>
  <mask id="c" width="9" height="11" x="30" y="46" maskUnits="userSpaceOnUse" style="mask-type:luminance">
    <path fill="#fff" d="m35.555 46.781 3.31 8.8-5.49.92-2.66-7.85 4.84-1.87Z"/>
  </mask>
  <g mask="url(#c)">
    <path stroke="#050505" stroke-linecap="round" stroke-linejoin="round" stroke-width=".4" d="M41.295 50.491c.6 2.2-.5 3.7-2.3 4.2-1.7.4-3.4-.3-4-2.5l-.6-2.5 6.4-1.6.5 2.4Z"/>
    <path fill="#EB2A2C" d="m41.195 49.191-6.5 1.8Z"/>
    <path stroke="#050505" stroke-width=".4" d="m41.195 49.191-6.5 1.8"/>
  </g>
  <path fill="#4F3116" d="M32.595 34.991c.1 2.8 2 5 4.2 4.9 2.2-.1 3.9-2.4 3.8-5.2-.1-2.8-2-5-4.2-4.9-2.2.1-3.9 2.5-3.8 5.2Z"/>
  <path fill="#A27448" d="M3.995 21.591c.4 10.3 8.9 18.7 20 19 10.6.2 18.8-9.2 18.4-19.5-.4-10.3-9.3-18.3-19.9-17.9-10.6.4-18.9 8.1-18.5 18.4Z"/>
  <path fill="#C48A58" d="M7.295 22.591c.4 9.9 7.2 17.6 17.2 17.2 10-.4 17.8-8.8 17.4-18.7-.4-9.8-5.6-11.4-15.6-11-10 .4-19.4 2.7-19 12.5Z"/>
  <path fill="#BB8653" d="M3.895 19.491c.4 10.3 5.5 21.1 19.9 20.8 17.8-.3 18.5-8.8 18.1-19.2-.5-10.3-9.4-18.3-20-17.9-10.6.4-18.4 6-18 16.3Z"/>
  <path stroke="#050505" stroke-width=".8" d="M3.895 19.491c.4 10.3 5.5 21.1 19.9 20.8 17.8-.3 18.5-8.8 18.1-19.2-.5-10.3-9.4-18.3-20-17.9-10.6.4-18.4 6-18 16.3Z"/>
  <g style="mix-blend-mode:multiply">
    <mask id="d" width="34" height="40" x="3" y="2" maskUnits="userSpaceOnUse" style="mask-type:luminance">
      <path fill="#fff" d="m5.305 41.281 31.18-1.28-1.53-37.29-31.18 1.28 1.53 37.29Z"/>
    </mask>
    <g mask="url(#d)">
      <path fill="#DFDFDE" d="M9.095 34.391s-7.8-8.9-3.2-23.4c4.6-4.9 12.4-8.7 19.8-7.6 5.5 1.2 9.5 4.9 9.5 4.9s-9.4 9-10.8 10.8c-1.3 1.8 4.4 3.7 2.2 5.4-2.2 1.6-9.3 4.2-9.4 6.5 0-.1-.1 0 0 0 0 0 .2 7.9 9.7 8.6 0 0-3.7 1.8-8.7.5-.667-.2-1.2-.467-1.6-.8l-.4-.1-7.1-4.8Z"/>
    </g>
  </g>
  <path fill="#fff" d="M27.395 25.891c.1.8.5 1.5 1.1 1.4.5 0 .9-.6.9-1.4-.1-.8-.5-1.5-1.1-1.5-.5.1-.9.7-.9 1.5Z"/>
  <path stroke="#050505" stroke-width=".4" d="M27.395 25.891c.1.8.5 1.5 1.1 1.4.5 0 .9-.6.9-1.4-.1-.8-.5-1.5-1.1-1.5-.5.1-.9.7-.9 1.5Z"/>
  <path fill="#050505" d="M27.295 25.791s-.7.3-1.3-.9c0 0 .6.7 1.3.5.7-.2 0 .4 0 .4Z"/>
  <path fill="#050505" d="M27.295 25.391s-.7.3-1.3-.9c0 0 .6.8 1.3.6.7-.2 0 .3 0 .3Zm.5 1c0 .5.4.9.9.8.5 0 .9-.4.9-.9s-.4-.9-.9-.9c-.5.1-.9.5-.9 1Z"/>
  <path fill="#FEFEFE" d="M28.495 26.291c0 .2.2.3.3.3.2 0 .3-.2.3-.3 0-.2-.2-.3-.3-.3-.2 0-.3.2-.3.3Z"/>
  <path fill="#fff" d="M40.195 24.991c0 .7-.3 1.3-.7 1.3-.4 0-.8-.6-.8-1.3-.1-.7.3-1.3.7-1.3.4 0 .8.6.8 1.3Z"/>
  <path stroke="#050505" stroke-width=".4" d="M40.195 24.991c0 .7-.3 1.3-.7 1.3-.4 0-.8-.6-.8-1.3-.1-.7.3-1.3.7-1.3.4 0 .8.6.8 1.3Z"/>
  <path fill="#050505" d="M40.295 24.491s.6.2 1-.9c0 0-.5.7-1 .6-.6-.1 0 .3 0 .3Zm0 .799c0 .5-.3.901-.7.901-.4 0-.8-.4-.8-.8s.3-.8.7-.8c.4-.1.7.3.8.7Z"/>
  <path fill="#FEFEFE" d="M39.895 25.391c0 .1-.1.2-.3.2-.1 0-.2-.1-.2-.2 0-.2.1-.3.2-.3s.2.1.3.3Z"/>
  <path stroke="#050505" stroke-linecap="round" stroke-linejoin="bevel" stroke-width=".5" d="M32.295 33.491s3.2 1.8 6-1.3m-.3-10.9 3.1-.1m-14.1 1.4 3-.1"/>
  <path fill="#3A2417" d="M34.095 16.991s6.7 7.1 8.8 4.7c0 0-1.7 1.6-8.8-4.7Z"/>
  <path fill="#4F3116" d="M4.195 41.391c.2 2.8 2 5 4.3 4.9 2.2-.1 3.9-2.4 3.8-5.2-.1-2.8-2-5-4.2-4.9-2.3.1-4 2.4-3.9 5.2Z"/>
  <path stroke="#050505" stroke-width=".5" d="M4.195 41.391c.2 2.8 2 5 4.3 4.9 2.2-.1 3.9-2.4 3.8-5.2-.1-2.8-2-5-4.2-4.9-2.3.1-4 2.4-3.9 5.2Z"/>
  <path fill="#4F3116" d="M34.095 16.991s-9 13.6-22.6 14.8c0 0 .8 4.5-3.7 3.5-4.6-1-11.7-14-1.8-27.8 6.8-9.4 32.5-9.8 36.9 6.9 0 0 4.1 15.6-8.8 2.6Z"/>
  <path stroke="#050505" stroke-width=".6" d="M34.095 16.991s-9 13.6-22.6 14.8c0 0 .8 4.5-3.7 3.5-4.6-1-11.7-14-1.8-27.8 6.8-9.4 32.5-9.8 36.9 6.9 0 0 4.1 15.6-8.8 2.6Z"/>
  <path fill="#1F140E" d="M9.995 34.291s-3.9 2.8-5.3-2c0 0 1.7 2.7 5.3 2Zm3-12.1s-6.2 1.7-7.6-2.6c0 0 2.1 2.6 7.6 2.6Zm11.6-6.9s-5.6 4.5-9 1.3c0 0 3.4 1.3 9-1.3Zm10.9-1.4s-1.4 5.6-4 5.9c0 0 1.9-.9 4-5.9Z"/>
  <path fill="#C866A7" d="m10.695 34.991.1 2.5s-.6-1-3-.7c-2.4.3-2.8 1.5-2.8 1.5l.8-3.8s1 1 2.4 1c.8 0 2.5-.5 2.5-.5Z"/>
  <path stroke="#050505" stroke-width=".5" d="m10.695 34.991.1 2.5s-.6-1-3-.7c-2.4.3-2.8 1.5-2.8 1.5l.8-3.8s1 1 2.4 1c.8 0 2.5-.5 2.5-.5Z"/>
  <path stroke="#050505" stroke-linecap="round" stroke-linejoin="bevel" stroke-width=".5" d="M37.295 29.591c-.3.3-.5.4-1 .5-.7.1-1.4 0-1.7-.2"/>
  <path fill="#CB6BA9" d="M22.495 32.691c.1 1.3 1.2 2.4 2.6 2.3 1.4 0 2.5-1.2 2.4-2.5 0-1.4-1.2-2.5-2.6-2.4-1.4 0-2.4 1.2-2.4 2.6Z" opacity=".3"/>
  <path fill="#AB795A" d="m11.295 31.191-1.6-1.5c-.3-.4-.4-1.1 0-1.4.4-.4.8-.3 1-.2.4.2.9.6.9.6"/>
  <path stroke="#050505" stroke-linecap="round" stroke-linejoin="round" stroke-width=".6" d="m11.295 31.191-1.6-1.5c-.3-.4-.4-1.1 0-1.4.4-.4.8-.3 1-.2.4.2.9.6.9.6"/>
  <path fill="#AB795A" stroke="#050505" stroke-linecap="round" stroke-linejoin="round" stroke-width=".6" d="M10.595 31.191c0-.8-.1-2.6.8-3.8.8-1.2 2.1-1.8 3.4-1.5 1.6.4 2.8 2 2.2 2.8-.2.4-.4.9-.5 1.5-.2.5-.3 1.5-.4 1.7-.2.9-1.1 2.6-3 2.2-2.3-.5-2.5-2.9-2.5-2.9Z"/>
  <path fill="#DFDFDF" d="M10.695 29.491s.6 1.7 2.9 1.7c2.2 0 2.7-.3 2.7-.3s.3 2.1-1.3 2.8c-1.7.7-3.8.4-4.1-1-.3-1.5-.2-3.2-.2-3.2Z" style="mix-blend-mode:multiply"/>
  <path fill="#F5F6F7" stroke="#050505" stroke-linecap="round" stroke-linejoin="round" stroke-width=".6" d="M8.695 30.591c-.4 1.9-.6 3.3-1.1 5.5-.8 3.8-.2 6.6-.2 6.6.3 2.4 2.2 4.1 4.4 3.8h.7c2-.2 3.8-1.7 3.5-4.6 0 0-.1-2.9.4-5.6.4-1.7.8-4 .8-4l-8.5-1.7Z"/>
  <path fill="#0A0C0F" d="M8.695 30.591c-.4 1.9-.6 3.3-1.1 5.5-.8 3.8-.2 6.6-.2 6.6.3 2.4 2.2 4.1 4.4 3.8h.7c.2 0 .433-.033.7-.1l-.5-.5s-2.9-1.1-2.7-5.6c.1-3 1-6.9 1.6-9.2l-2.9-.5Z" opacity=".3"/>
</svg>
