<svg xmlns="http://www.w3.org/2000/svg" width="86" height="24" fill="none" viewBox="0 0 86 24">
  <path fill="#ED4997" d="M84.9 22.8 0 14.6l.4-4.9 84.9 8.2-.4 4.9Z"/>
  <path fill="#FEFEFE" fill-rule="evenodd" d="M14.2 1.4c1 .1 2 .2 1.2 3.2-.7 2.8-1.6 2.8-3 2.7l-.6-.1 1.5-5.9.9.1ZM14 2l-1.2 4.6c1.3.2 1.5-1 1.8-2 .2-1 .7-2.5-.6-2.6Z" clip-rule="evenodd"/>
  <path fill="#FEFEFE" d="m16.1 7.6-.8-.1 1.5-5.9.8.1-1.5 5.9Zm1.2-6.2-.4-.3 1-1.1.4.4-1 1Z"/>
  <path fill="#FEFEFE" fill-rule="evenodd" d="M19.9 1.9 19.7 8l-.8-.1V6.7l-1.2-.1-.5 1.1-.8-.1 2.9-5.8.6.1ZM19 5.2l.3-2.1h-.1L18 6l.9.1.1-.9Zm4.9-2.9c.9.1 1.9.2 1.2 3.2-.7 2.8-1.7 2.8-3.1 2.7l-.6-.1L23 2.2l.9.1Zm-.3.7-1.2 4.5c1.3.2 1.6-1 1.8-2 .3-.9.8-2.5-.6-2.5Z" clip-rule="evenodd"/>
  <path fill="#FEFEFE" d="m28.6 2.7-.1.7-1.4-.1-.5 1.9 1.2.1-.1.7-1.3-.2-.5 2.1 1.4.1-.2.7-2.1-.2 1.5-6 2.1.2Zm2.7.3-1.4 5.2 1.4.2-.2.6-2.1-.2 1.5-5.9.8.1Z"/>
  <path fill="#FEFEFE" fill-rule="evenodd" d="m34.4 3.3-.2 6h-.8V8.1L32.3 8l-.6 1.1L31 9l2.8-5.8.6.1Zm-.9 3.3.3-2.2-1.3 3 1 .1v-.9Z" clip-rule="evenodd"/>
  <path fill="#FEFEFE" d="m.9 15.6 1.8-7.2 2.1.2-1.7 7.2-2.2-.2Zm11.2-6.3-1.8 7.2-2-.2-1.6-3.4-.7 3.2-2.2-.2 1.7-7.3 2 .2 1.6 3.4.8-3.2 2.2.3Z"/>
  <path fill="#FEFEFE" fill-rule="evenodd" d="m11 16.6 1.7-7.3 3 .3c1.067.133 1.867.567 2.4 1.3.467.733.6 1.633.4 2.7-.267 1.067-.833 1.9-1.7 2.5-.8.6-1.767.867-2.9.8l-2.9-.3Zm3.5-5-.8 3.1.8.1c.4.067.767-.067 1.1-.4.333-.267.533-.633.6-1.1.133-.4.1-.767-.1-1.1-.133-.333-.433-.533-.9-.6h-.7Z" clip-rule="evenodd"/>
  <path fill="#FEFEFE" d="m21.5 12.2-.2.7 2.9.3-.5 1.9-2.8-.3-.2.6 3.1.3-.4 2.1-5.4-.6 1.8-7.2 5.3.5-.5 2-3.1-.3Z"/>
  <path fill="#FEFEFE" fill-rule="evenodd" d="m25.6 10.5 3 .3c.1 0 .2 0 .6.2.4.1.7.2 1.1.5.4.3.6.7.7 1.3 0 .333-.033.667-.1 1-.2.8-.6 1.4-1 1.7-.2.133-.433.267-.7.4-.7.4-1.4.4-1.7.4h-.2l-.8-.1-.4 1.8-2.2-.2 1.7-7.3Zm2.5 2.3h-.8l-.3 1.3.8.1c.4.067.666-.133.8-.6.1-.5-.1-.7-.5-.8Z" clip-rule="evenodd"/>
  <path fill="#FEFEFE" d="m33.4 13.4-.1.7 2.9.2-.5 1.9-2.9-.3-.1.7 3.1.2-.5 2.1-5.3-.5 1.7-7.3 5.4.5-.5 2.1-3.2-.3Zm10.7-1.1-1.7 7.3-2-.2-1.6-3.4-.8 3.2-2.2-.3 1.8-7.2 2 .2 1.6 3.4.7-3.2 2.2.2Z"/>
  <path fill="#FEFEFE" fill-rule="evenodd" d="m43.1 19.6 1.7-7.2 2.9.2c1.133.133 1.933.567 2.4 1.3.533.8.667 1.7.4 2.7-.2 1.067-.733 1.9-1.6 2.5-.867.667-1.833.933-2.9.8l-2.9-.3Zm3.4-5-.7 3.2h.7c.467.067.833-.033 1.1-.3.333-.267.566-.633.7-1.1.133-.466.1-.867-.1-1.2-.2-.333-.5-.5-.9-.5l-.8-.1Z" clip-rule="evenodd"/>
  <path fill="#FEFEFE" d="m53.5 15.3-.1.7 2.9.3-.5 1.8-2.9-.3-.1.7 3.1.3-.5 2-5.3-.5 1.7-7.3 5.4.5-.5 2.1-3.2-.3Zm10.7-1.1-1.7 7.3-2-.2-1.6-3.4-.8 3.2-2.2-.2 1.8-7.3 2 .2 1.6 3.4.7-3.2 2.2.2Zm7.3 5a4.698 4.698 0 0 1-1.9 2.2c-.867.534-1.767.733-2.7.6-1.133-.067-1.967-.5-2.5-1.3-.6-.8-.767-1.733-.5-2.8a4.597 4.597 0 0 1 1.7-2.6 5.043 5.043 0 0 1 3.1-.8c.933.133 1.7.5 2.3 1.1.533.667.8 1.5.8 2.5l-2.4-.3c-.067-.333-.2-.6-.4-.8a.95.95 0 0 0-.8-.4 1.81 1.81 0 0 0-1.3.3 2.726 2.726 0 0 0-.7 1.2c-.133.467-.067.9.2 1.3.2.334.533.533 1 .6.267 0 .566-.067.9-.2.333-.2.6-.467.8-.8l2.4.2Zm-.4 3.1 1.7-7.3 2.2.2-1.7 7.3-2.2-.2Z"/>
  <path fill="#FEFEFE" fill-rule="evenodd" d="m80.1 15.7 1 7.5-2.4-.2-.1-.8-2.3-.2-.5.7-2.4-.2 4.5-7 2.2.2ZM77.4 20l1 .1-.1-1.5-.9 1.4Z" clip-rule="evenodd"/>
</svg>
