<svg xmlns="http://www.w3.org/2000/svg" width="43" height="22" fill="none" viewBox="0 0 43 22">
  <path fill="#6A4C9E" d="M42.1 20.9 0 15.9l1.1-5 41.5 4.9-.5 5.1Z"/>
  <path fill="#FEFEFE" fill-rule="evenodd" d="M15.4 1.4c1 .1 2.1.3 1.1 3.6-.8 3-1.8 3-3.4 2.8l-.5-.1 1.8-6.4 1 .1Zm-.3.7-1.4 5c1.3.2 1.7-1.1 2-2.2.3-1 .9-2.7-.6-2.8Z" clip-rule="evenodd"/>
  <path fill="#FEFEFE" d="m17.1 8.3-.8-.1 1.8-6.5.9.1-1.9 6.5Zm1.4-6.8-.3-.3 1-1.2.5.4-1.2 1.1Z"/>
  <path fill="#FEFEFE" fill-rule="evenodd" d="m21.4 2.1-.5 6.7-.9-.1.2-1.3-1.3-.2-.6 1.3-.8-.1L20.7 2l.7.1Zm-1 3.7.3-2.4-1.5 3.2 1.1.1.1-.9Zm5.1-3.1c1 .1 2.2.3 1.2 3.6-.8 3-1.9 3-3.4 2.8l-.6-.1 1.9-6.5.9.2Zm-.3.8-1.5 5c1.4.2 1.8-1.2 2.1-2.3.3-1 .8-2.7-.6-2.7Z" clip-rule="evenodd"/>
  <path fill="#FEFEFE" d="m30.6 3.3-.2.7-1.4-.1-.6 2 1.2.2-.2.7-1.2-.2-.7 2.2L29 9l-.3.8-2.2-.3L28.3 3l2.3.3Zm1.3.2-1.7 5.7 1.5.2-.3.7-2.2-.3L31 3.3l.9.2Z"/>
  <path fill="#FEFEFE" fill-rule="evenodd" d="m8.5 10.2.9 8.3-2.6-.3-.1-.8-2.5-.3-.5.8-2.5-.3 4.9-7.7 2.4.3Zm-3 4.8 1.1.1-.1-1.7-1 1.6Zm3.1-5.5-2.3-.3 1.6-2 2.6.3-1.9 2Zm8.5 9.9-2.8-.4-1.2-2.1-.2-.1-.5 2-2.3-.2 2-8 3.2.3c.1 0 .2 0 .6.2.4.1.8.2 1.2.6.4.4.6.8.7 1.5 0 .334-.033.7-.1 1.1-.267 1.134-.9 1.9-1.9 2.3l1.3 2.8Zm-3.3-6.3-.4 1.5.9.1c.467.067.767-.133.9-.6.1-.5-.1-.8-.5-.9l-.9-.1Zm4 6.3 2-8 3.4.4h.3a3.1 3.1 0 0 0 .6.2c.267.134.5.267.7.4.2.2.367.467.5.8.067.267.067.634 0 1.1-.133.6-.467 1.1-1 1.5.467.467.6 1.067.4 1.8-.4 1.667-1.666 2.4-3.8 2.2l-3.1-.4Zm2.9-2 1 .1c.334 0 .533-.133.6-.4.1-.3-.1-.4-.4-.5l-1-.1-.2.9Zm.7-2.6.9.1c.2 0 .4-.1.5-.4 0-.3-.1-.5-.3-.5l-.9-.1-.2.9Zm9.5-2.3c1.2.134 2.1.634 2.7 1.5.533.867.667 1.9.4 3.1-.267 1.134-.9 2.067-1.9 2.8-1 .734-2.1 1.034-3.3.9-1.133-.133-2-.633-2.6-1.5-.6-.933-.733-1.966-.4-3.1.267-1.2.9-2.133 1.9-2.8 1-.733 2.067-1.033 3.2-.9Zm-1.5 6c.467.067.9-.066 1.3-.4.467-.333.767-.766.9-1.3.133-.533.067-1-.2-1.4-.2-.4-.533-.633-1-.7-.533 0-1 .134-1.4.4a2.41 2.41 0 0 0-.8 1.3c-.133.534-.1 1 .1 1.4.267.4.633.634 1.1.7Z" clip-rule="evenodd"/>
  <path fill="#FEFEFE" d="M38.5 13.4 37 19.2l3.3.3-.5 2.3-5.7-.6 2-8 2.4.2Z"/>
</svg>
