<svg xmlns="http://www.w3.org/2000/svg" width="29" height="38" fill="none" viewBox="0 0 29 38">
  <path fill="#B16669" d="M6.146 33.703c.2 1.8 1.6 3.5 3.4 4 1.8.5 3.8-.1 5-1.5.8 1.2 2.4 2 3.9 1.6 1.5-.3 2.7-1.6 2.9-3.1.6.9 2 1.3 3.2 1.2 1.3-.2 2.5-1.3 2.5-2.5 0-1-.3-1.6-.6-1.8.8.1 1.7-.4 2.1-1.1.5-1.1.3-2.5 0-2.9-.9-1.4-1.9-1.7-3.5-1.6.3-1.4-.1-3.2-1.3-3.9-1.3-.7-2.8-.6-3.9.3.1-1-.6-2-1.5-2.4-1.4-.6-2.7-.6-3.9 0-.9.4-1.3 1-1.5 1.7-.9-2-4-.9-3.6 1.1-.8-.9-2.1-1.5-3.3-1.5-.9 0-1.8.5-2.4 1.2-.5.6-.9 1.5-.9 2.3 0 .7.2 1.3.6 2-1.2.2-2.2.8-2.8 1.8-.9 1.5-.7 3.3.7 4.4 1.4 1 3.3.8 4.9.7Z"/>
  <path fill="#934649" d="M27.046 33.803c-.6 1.1-1.8 1.3-2.7 1.2-1.6 0-2.6-.9-3.3-2.3 0 .7 0 3.2-2.6 3.8-2 .5-3.7-1.3-3.8-2.6-1 1.4-3.2 1.9-4.7 1.1-1.6-.9-2.7-2.9-2.1-4.5-1.2.4-2 .4-3.2.4-1.2 0-2.4-.4-3.1-1.4-.4-.4-.5-1.1-.4-1.7l-.6.8c-.9 1.5-.7 3.3.7 4.4 1.4 1 3.3.8 4.9.7.2 1.8 1.6 3.5 3.4 4 1.8.5 3.8-.1 5-1.5.8 1.2 2.4 2 3.9 1.6 1.5-.3 2.7-1.6 2.9-3.1.6.9 2 1.3 3.2 1.2 1.1-.2 2.2-1 2.5-2.1Z"/>
  <path fill="#AB6BAC" d="M13.846 16.703c.1-1.1 0-3.1-1.9-4.2-2-1.1-4.6-1.2-4.8-1-.2.2.2 3.1 2 4.6 2 1.7 4.1.6 4.7.6Z"/>
  <path fill="#6FAD48" d="M13.846 16.703c.1-1.1 0-3.1-1.9-4.2-2-1.1-4.6-1.2-4.8-1-.2.2.2 3.1 2 4.6 2 1.7 4.1.6 4.7.6Z"/>
  <path fill="#833E41" d="M16.146 19.003c-.6-.9-2.2-2.7-3-3.4-.7-.6-1.5-1.2-2.4-1.6-.2 0-.1.2 0 .2.7.5 1.4 1.1 2 1.7.7.6 2.2 2.5 2.6 3.3.1.2.4.4.7.3.2-.1.2-.3.1-.5Z"/>
  <path fill="#AB6BAC" d="M17.245 15.103c-1.7-1.8-3.2-5.2-.5-8.9 2.8-3.7 8.7-6.3 9.2-6.2.5.2 1.3 7.1-1.4 11.8-2.5 4.5-6 3-7.3 3.3Z"/>
  <path fill="#7FC356" d="M17.245 15.103c-1.7-1.8-3.2-5.2-.5-8.9 2.8-3.7 8.7-6.3 9.2-6.2.5.2 1.3 7.1-1.4 11.8-2.5 4.5-6 3-7.3 3.3Z"/>
  <path fill="#833E41" d="M14.846 23.402c-.1-2.9.6-5.3 1.8-8.5.4-1.3.9-2.3 1.6-3.6.7-1.3 2.1-3.3 2.8-3.8 0 0 .4-.2.3-.1-.7 1.1-1.6 2.8-2.2 4.1-.7 1.5-1.1 2.5-1.5 3.9-1 3.1-1.4 5.3-1.7 8.1 0 .6-1.1.4-1.1-.1Z"/>
  <path fill="#934649" d="m19.246 22.602-.4-.2c-.2 0-.367-.033-.5-.1-.4-.066-.8-.066-1.2 0-.4.067-.767.2-1.1.4-.3.1-.6.3-.8.6-.534-.2-1.134-.3-1.8-.3a3.33 3.33 0 0 0-1.4.1c-.4.1-.8.2-1.1.4-.1.1 0 .2 0 .2.5 0 .9-.2 1.4-.2.4-.066.8-.066 1.2 0 .8.1 1.6.3 2.3.7.4.2.7-.3.4-.5l-.4-.2c.133-.066.2-.133.2-.2a1.15 1.15 0 0 0 .3-.2c.4-.2.8-.366 1.2-.5.5-.1 1.1-.1 1.7.1v-.1Z"/>
</svg>
