<svg xmlns="http://www.w3.org/2000/svg" width="93" height="32" fill="none" viewBox="0 0 93 32">
  <path fill="#ED4997" d="M92.9 23.6.5 31.2 0 26.1l92.4-7.2.5 4.7ZM82.5 13.2l-68.6 6-.5-4.8 68.9-6 .2 4.8Z"/>
  <path fill="#FEFEFE" fill-rule="evenodd" d="M28.2 2c1-.1 2.1-.1 1.8 3.1-.2 2.9-1.1 3.1-2.6 3.2h-.6l.5-6.3h.9Zm-.2.8-.3 4.8c1.3 0 1.4-1.3 1.5-2.4 0-1 .2-2.6-1.2-2.4Z" clip-rule="evenodd"/>
  <path fill="#FEFEFE" d="M31.3 8h-.9l.5-6.2.8-.1-.4 6.3Zm.1-6.5-.4-.2.7-1.3.6.3-.9 1.2Z"/>
  <path fill="#FEFEFE" fill-rule="evenodd" d="m34.1 1.5.8 6.2h-.8L34 6.5l-1.3.1-.3 1.3h-.8l1.8-6.3.7-.1ZM33.8 5l-.1-2.3-.7 3.2h.9l-.1-.9Zm4.3-3.8c1-.1 2.1-.1 1.9 3.1-.2 2.9-1.2 3.1-2.7 3.2h-.6l.5-6.3h.9ZM38 2l-.4 4.8c1.4 0 1.4-1.3 1.5-2.4.1-1 .3-2.6-1.1-2.4Z" clip-rule="evenodd"/>
  <path fill="#FEFEFE" d="m43.1.8-.1.7-1.4.1-.1 2 1.2-.1v.7l-1.3.1-.1 2.1 1.3-.1v.8l-2.2.1.5-6.2 2.2-.2Zm2.7-.2-.4 5.5 1.4-.1-.1.7-2.2.2.5-6.3h.8Z"/>
  <path fill="#FEFEFE" fill-rule="evenodd" d="m49 .3.9 6.2h-.8l-.2-1.2-1.2.1-.3 1.3h-.8L48.4.3h.6Zm-.3 3.5-.1-2.2h-.1l-.7 3.2 1-.1-.1-.9Z" clip-rule="evenodd"/>
  <path fill="#FEFEFE" d="m18.6 14.5-.1.7 3-.2-.1 2-3 .2v.7l3.2-.3-.1 2.2-5.5.4.4-7.7 5.6-.4-.2 2.1-3.2.3Z"/>
  <path fill="#FEFEFE" fill-rule="evenodd" d="M22.6 19.7 23 12l3.1-.3c1.067-.066 1.933.234 2.6.9.667.667.967 1.567.9 2.7 0 1.134-.4 2.067-1.2 2.8-.733.8-1.667 1.267-2.8 1.4l-3 .2Zm2.6-5.8-.2 3.4.8-.1c.4 0 .767-.166 1.1-.5.267-.333.4-.766.4-1.3.067-.466-.033-.833-.3-1.1-.2-.333-.533-.466-1-.4h-.8Z" clip-rule="evenodd"/>
  <path fill="#FEFEFE" d="M33.5 19c-.1 0-.2 0-.6-.1-.5 0-.8-.1-1.3-.4-.5-.2-.8-.6-1-1.3-.133-.333-.167-.733-.1-1.2l.2-4.6 2.3-.2-.3 4.7s0 .1.1.3c0 .134.034.234.1.3.2.2.4.3.7.3.267 0 .5-.1.7-.3.134-.2.233-.366.3-.5v-.3l.3-4.7 2.3-.2-.3 4.7c0 .9-.3 1.6-.7 2.1-.2.267-.433.467-.7.6-.7.5-1.5.7-1.8.7l-.2.1Zm12.4-4.4c-.2 1-.7 1.834-1.5 2.5-.8.734-1.7 1.133-2.7 1.2-1.133.067-2.033-.233-2.7-.9-.733-.733-1.067-1.666-1-2.8.067-1.133.5-2.1 1.3-2.9.8-.867 1.767-1.333 2.9-1.4 1-.067 1.867.167 2.6.7.667.6 1.067 1.4 1.2 2.4l-2.4.2c-.133-.4-.333-.7-.6-.9-.267-.2-.566-.266-.9-.2-.467 0-.867.2-1.2.6-.333.4-.533.834-.6 1.3 0 .534.134.967.4 1.3.334.333.733.467 1.2.4.334 0 .633-.133.9-.4.333-.267.567-.566.7-.9l2.4-.2Z"/>
  <path fill="#FEFEFE" fill-rule="evenodd" d="m51.4 9.7 2.4 7.5-2.5.2-.2-.8-2.5.2-.3.8-2.5.2 3.3-7.9 2.3-.2Zm-2 4.9 1.1-.1-.4-1.6-.7 1.7Z" clip-rule="evenodd"/>
  <path fill="#FEFEFE" d="M62.2 13.3a4.78 4.78 0 0 1-1.6 2.5c-.733.734-1.6 1.134-2.6 1.2-1.133.067-2.066-.233-2.8-.9-.733-.733-1.066-1.666-1-2.8a4.33 4.33 0 0 1 1.3-2.9c.8-.866 1.767-1.333 2.9-1.4 1-.066 1.867.167 2.6.7.667.6 1.067 1.4 1.2 2.4l-2.4.2c-.133-.4-.333-.7-.6-.9a1.083 1.083 0 0 0-.9-.2c-.467 0-.866.2-1.2.6-.333.4-.5.834-.5 1.3-.067.534.067.967.4 1.3.267.334.633.467 1.1.4.334 0 .633-.133.9-.4.333-.266.567-.566.7-.9l2.5-.2Zm.6 3.2.5-7.8 2.2-.1-.4 7.7-2.3.2Z"/>
  <path fill="#FEFEFE" fill-rule="evenodd" d="M70.6 8c1.134-.066 2.067.234 2.8.9.733.734 1.067 1.667 1 2.8a4.331 4.331 0 0 1-1.3 2.9c-.8.867-1.766 1.334-2.9 1.4-1.133.067-2.067-.233-2.8-.9-.733-.733-1.067-1.666-1-2.8.067-1.066.5-2.033 1.3-2.9.8-.866 1.767-1.333 2.9-1.4Zm-.3 5.8c.467 0 .867-.2 1.2-.6.333-.4.5-.833.5-1.3.067-.533-.067-.966-.4-1.3-.266-.333-.633-.466-1.1-.4-.467 0-.867.2-1.2.6-.333.4-.5.834-.5 1.3-.067.534.067.967.4 1.3.267.334.633.467 1.1.4Zm1.5-6.4-2.3.2 1.2-2.2 2.6-.2-1.5 2.2Z" clip-rule="evenodd"/>
  <path fill="#FEFEFE" d="m82.5 7.2-.4 7.7-2.1.2-2.3-3.2-.2 3.4-2.2.1.4-7.7 2.1-.1 2.2 3.1.2-3.3 2.3-.2Z"/>
  <path fill="#FEFEFE" fill-rule="evenodd" d="m7.7 23.9 2.3 7.5-2.4.2-.2-.8-2.5.2-.3.8-2.5.2 3.3-7.9 2.3-.2Zm-2 4.9 1-.1-.4-1.6-.6 1.7Z" clip-rule="evenodd"/>
  <path fill="#FEFEFE" d="M16.4 26.1c-.266-.333-.533-.566-.8-.7-.266-.066-.6-.066-1 0-.466 0-.867.2-1.2.6-.333.4-.533.834-.6 1.3 0 .534.134.967.4 1.3.334.334.734.467 1.2.4.267 0 .534-.066.8-.2.2-.133.334-.266.4-.4l.1-.2-1.4.1.1-1.8 3.9-.3-.1 1.6c-.1.8-.5 1.6-1 2-.2.267-.433.467-.7.6-.267.2-.533.334-.8.4-.2.134-.433.2-.7.2a4.01 4.01 0 0 0-.5.2h-.3c-1.133.067-2.033-.233-2.7-.9-.733-.733-1.067-1.666-1-2.8a4.33 4.33 0 0 1 1.3-2.9c.8-.866 1.767-1.333 2.9-1.4 1.534-.133 2.667.4 3.4 1.6l-1.7 1.3Z"/>
  <path fill="#FEFEFE" fill-rule="evenodd" d="m25.9 30.1-2.8.2-1.4-1.8h-.2l-.1 2-2.3.1.4-7.7 3.2-.2h.6c.4.1.7.1 1.2.4.4.2.7.6.9 1.2.134.334.167.667.1 1-.067 1.134-.533 1.967-1.4 2.5l1.8 2.3Zm-4.2-5.2-.1 1.5.9-.1c.4 0 .6-.233.6-.7.1-.5-.2-.8-.5-.7h-.9Zm8.7-3c1.134-.066 2.067.234 2.8.9.734.734 1.067 1.667 1 2.8a4.33 4.33 0 0 1-1.3 2.9c-.8.867-1.767 1.334-2.9 1.4-1.133.134-2.066-.166-2.8-.9-.733-.733-1.066-1.666-1-2.8.067-1.066.5-2.033 1.3-2.9.8-.8 1.767-1.266 2.9-1.4Zm-.3 5.8c.467 0 .867-.2 1.2-.6.333-.4.534-.833.6-1.3 0-.533-.133-.966-.4-1.3a1.344 1.344 0 0 0-1.2-.4c-.467 0-.867.2-1.2.6-.333.4-.5.834-.5 1.3-.067.534.067.967.4 1.3.267.334.634.467 1.1.4Zm5.4-6.1 3.2-.2h.6c.4.1.7.1 1.2.4.4.2.7.6.9 1.2.133.334.167.7.1 1.1 0 .7-.3 1.4-.7 1.8l-.6.6c-.7.4-1.4.6-1.7.6l-.2.1h-.8l-.1 2-2.3.2.4-7.8Zm3 1.9h-.9l-.1 1.5.9-.1c.4 0 .633-.233.7-.7 0-.5-.2-.8-.6-.7Z" clip-rule="evenodd"/>
  <path fill="#FEFEFE" d="M44.5 23.1v.7l3-.2-.1 2-3 .2-.1.6 3.3-.2-.1 2.2-5.6.4.5-7.7 5.5-.5-.1 2.2-3.3.3Zm12.1 1.3c-.267 1-.767 1.834-1.5 2.5-.8.734-1.7 1.134-2.7 1.2-1.133.067-2.066-.233-2.8-.9-.733-.733-1.067-1.666-1-2.8.067-1.066.5-2.033 1.3-2.9.867-.866 1.867-1.333 3-1.4 1-.066 1.834.2 2.5.8.733.534 1.167 1.3 1.3 2.3l-2.5.2c-.066-.4-.233-.7-.5-.9-.333-.2-.666-.266-1-.2-.4 0-.8.2-1.2.6-.333.4-.5.834-.5 1.3-.067.534.067.967.4 1.3.267.334.633.467 1.1.4.333 0 .667-.133 1-.4.267-.2.467-.5.6-.9l2.5-.2Zm3.8 3.1c-.1 0-.2 0-.7-.1-.4 0-.8-.1-1.2-.4-.5-.2-.8-.6-1-1.3-.133-.333-.2-.733-.2-1.2l.3-4.6 2.3-.2-.3 4.7s0 .1.1.3c0 .134.033.234.1.3.1.2.4.3.7.3.267 0 .467-.1.6-.3.2-.2.3-.366.3-.5l.1-.3.3-4.7 2.3-.2-.3 4.7c-.1.9-.4 1.6-.8 2.1-.2.267-.4.467-.6.6-.7.5-1.5.7-1.9.7l-.1.1Z"/>
  <path fill="#FEFEFE" fill-rule="evenodd" d="m69.6 18.9 2.3 7.5-2.4.2-.3-.8-2.4.2-.3.8-2.5.2 3.3-7.9 2.3-.2Zm-2 4.9 1-.1-.4-1.6-.6 1.7Zm11.9 2-2.8.2-1.5-1.8H75l-.1 1.9-2.3.2.5-7.7 3.1-.2c.1 0 .2-.1.6 0 .4 0 .8.1 1.2.4.5.2.8.5 1 1.2.067.267.1.6.1 1-.067 1.067-.533 1.9-1.4 2.5l1.8 2.3Zm-4.3-5.2v1.5l.9-.1c.4-.066.6-.333.6-.8 0-.4-.2-.7-.6-.7l-.9.1Z" clip-rule="evenodd"/>
  <path fill="#FEFEFE" d="m80.1 25.7.5-7.7 2.3-.2-.5 7.7-2.3.2Z"/>
  <path fill="#FEFEFE" fill-rule="evenodd" d="m88.7 17.4 2.4 7.4-2.5.2-.2-.7-2.5.2-.3.8-2.5.2 3.3-8 2.3-.1Zm-2 4.9 1.1-.1-.5-1.5-.6 1.6Z" clip-rule="evenodd"/>
</svg>
