<svg xmlns="http://www.w3.org/2000/svg" width="72" height="62" fill="none" viewBox="0 0 72 62">
  <path fill="#15132A" fill-rule="evenodd" d="M47.384 37.044c.015-1.903.03-3.806.15-5.613-.012-2.502.194-4.613.627-6.134-1.983-1.813-6.484-6.217-8.888-8.512-.087.304-.182.409-.178.508l-.1.005-.1.004-.522-.477c-.07-.063-.105-.129-.108-.195l.173-.609a5.975 5.975 0 0 0-.63-.672l-.005-.1c-.005-.1.182-.409.459-.921-.522-.478-.644-.973-.557-1.277a1.569 1.569 0 0 0-.413-.282c-.314-.286-.622-.473-.73-.668-.31-.186-.323-.486-.136-.794a.887.887 0 0 1 .395-.118c-.003-.067-.038-.099-.105-.096-.208-.19-.226-.59-.035-.799.127-.139.257-.212.39-.218-.108-.195-.122-.495.069-.703.06-.136.19-.209.39-.218l-.104-.095c-.009-.2.05-.37.178-.509.19-.209.59-.226.899-.04.104.095.921.46 1.878 1.718l.105.096c.35.384.6.74.748 1.067l.005.1c.066-.003.101.03.104.096.19-.21.386-.318.386-.318l.1-.004c.104.095 1.674 1.626 3.557 3.444.39-.217.77-.701 1.137-1.452l-.01-.2c-.017-.4-.002-.8.047-1.203-.4.018-.634-.005-.704-.069l-.1.005-.004-.1c.058-.203.11-.505.16-.908.492-2.424 1.641-8.081 6.596-9.203 3.96-.978 6.993-.312 8.731.511l.1-.004c1.013.255 1.53.632 1.639.827.136.061.239.123.308.187.3-.013.404.082.413.282a.65.65 0 0 1 .313.286c.4-.018 1.2-.054 2.22.401 2.243.901 1.762 5.828 1.707 6.831.003.067-.028.135-.091.204.026.6-.055 1.004-.051 1.104l-.096.104.014.3c-.224 1.712-.38 2.72-.062 3.106.318.386 1.021.455 2.22.401.067-.003.102.029.105.096l.004.1s-.823 1.738-2.821 1.827c-.4.018-.872-.095-1.417-.337a6.533 6.533 0 0 1-.717-.369c-.185.342-.371.65-.559.926-.376.55-.787 1.07-1.232 1.557l.608.173c.273.121.548.309.826.564.273.12.48.278.622.472.348.318.667.738.957 1.259.336.786 2.109 9.115 2.986 13.08.296-.114.391-.218.391-.218.064-.07.13-.072.2-.009l.004.1.231.69c.003.067-.029.102-.095.105 0 0-.187.308-.477.522a3.747 3.747 0 0 1 .144.994c-.067.003-.165.041-.295.114.075.196.119.428.13.694.259 1.29-.019 1.803-.114 1.907-.121.273-.28.447-.477.522l-.087.304c-.09.205-.177.509-.482.422l-.1.005c-.063.07-.093.137-.09.204-.122.272-.282.413-.482.422l-.1.004c-.067.003-.101-.029-.104-.095-.058.203-.152.34-.282.413-.106 2.107-.153 3.31-.512 4.227.013.3-.082.404-.178.508-.182.409-2.666.82-4.255 1.091l-.198 2.311c.314.287.331.686.331.686l-.554 5.53c3.31.153 5.626.45 5.644.85.026.599-4.855 1.117-10.962 1.09-6.103.072-11.025-.31-11.048-.809.083-.404 1.772-.68 4.365-.895.65-1.13.401-2.22.401-2.22l.026-3.906c-.004-.1-.109-.195-.018-.4.064-.069.13-.105.196-.108l-.094-2.098c-1.212-.246-2.238-.8-2.491-1.99 0 0-.194-2.094-.323-4.991-.064.07-.129.105-.195.108m8.991 15.315c.555-1.026.415-1.92.41-2.02l-.073-3.901a.756.756 0 0 1 .082-.404l.095-.104-.071-1.599-1 .045-.114 1.907c.213.29.226.59.23.69l-.558 5.43 1-.044Z" clip-rule="evenodd" opacity=".2"/>
  <path fill="#AB7C4D" d="m54.877 52.425-4.709-.09-.312-6.994 5.53.554-.509 6.53Z"/>
  <path fill="#050505" fill-rule="evenodd" d="m49.973 52.443-.226-7.297 5.735.645-.5 6.729-5.01-.077Zm-.008-6.907.294 6.594 4.51.1.422-6.226-5.226-.468Z" clip-rule="evenodd"/>
  <path fill="#492817" d="M52.372 50.134c-2.901.029-2.462.91-2.462.91l-.025 3.905s.375 1.685-1.256 3.26l4.204.012.637-1.43.362 1.385.8-.035.6-6.734s.137-1.407-2.86-1.273Z"/>
  <path fill="#090607" fill-rule="evenodd" d="m53.737 58.281-.249-1.09-.455 1.021c-.063.07-.129.106-.195.11l-4.2.086-.105-.095c-.003-.067.028-.135.091-.204 1.436-1.466 1.16-3.155 1.16-3.155l-.073-3.9c-.005-.1-.01-.2.082-.405.248-.411 1.105-.65 2.57-.715 1.269.01 2.147.238 2.634.683.417.382.435.782.335.786l-.6 6.733c.005.134-.025.202-.091.205l-.8.035c-.066.003-.101-.028-.104-.095Zm1.395-6.869s-.013-.3-.326-.586c-.313-.287-.93-.66-2.43-.592-1.897.084-2.283.402-2.379.506l.01.2s0 .033.004.1l-.026 3.905c.113.295.175 1.694-.961 3.146l3.8-.07.542-1.325c-.003-.067.03-.068.1-.005.066-.003.101.03.104.096l.458 1.28.4-.017.704-6.638Z" clip-rule="evenodd"/>
  <path fill="#AB7C4D" d="m61.28 52.34-4.71-.091-.311-6.993 5.53.554-.51 6.53Z"/>
  <path fill="#050505" fill-rule="evenodd" d="m56.475 52.353-.32-7.193 5.83.54-.501 6.73-5.009-.077Zm-.008-6.907.2 6.698h4.504l.422-6.226-5.126-.471Z" clip-rule="evenodd"/>
  <path fill="#552F19" d="M58.875 50.044c-3.002.034-2.562.915-2.562.915l.074 3.9-.1.005s.376 1.685-1.156 3.255l4.205.013.637-1.43.366 1.485.695-.131.7-6.738s.038-1.403-2.86-1.274Z"/>
  <path fill="#090607" fill-rule="evenodd" d="m60.24 58.191-.35-1.085-.454 1.02c.003.068-.03.102-.096.105l-4.2.088c-.067.002-.101-.03-.104-.096-.07-.063-.073-.13-.01-.2 1.437-1.465 1.161-3.155 1.161-3.155l.026-3.904c-.004-.1-.109-.196-.018-.4.249-.412 1.14-.651 2.67-.72 1.27.01 2.148.271 2.638.783.318.386.331.686.336.786l-.7 6.738c.002.067-.03.102-.096.104l-.7.032c-.066.003-.1-.03-.104-.096Zm1.295-6.864s-.014-.3-.227-.59c-.313-.287-1.03-.656-2.429-.593-1.898.084-2.284.402-2.375.606-.1.005-.096.105-.096.105.067-.003.102.029.105.095l-.026 3.905c.013.3.18 1.794-1.06 3.15l3.8-.069.541-1.325.2-.01c.067-.002.102.03.105.096l.357 1.285.5-.022.605-6.633Z" clip-rule="evenodd"/>
  <path fill="#BB8553" d="M37.396 12.864c-.091.204-.26.913.67 1.572 1.03.655 1.326.541 1.821.419.495-.122 1.132-1.552 1.132-1.552s.35-1.117-1.133-2.952c0 0-.735-.768-.921-.46-.091.204-1.405 2.165-1.596 2.374-.186.308.118.395.027.599Z"/>
  <path fill="#050505" fill-rule="evenodd" d="M38.071 14.536c-1.03-.655-.866-1.463-.775-1.667l-.009-.2c-.104-.095-.113-.295-.022-.5.195-.108 1.509-2.069 1.596-2.373.063-.07.128-.106.195-.109.3-.013.821.464.93.66 1.579 1.73 1.133 2.952 1.137 3.052-.095.104-.637 1.43-1.132 1.552a1.888 1.888 0 0 1-.595.126c-.3.014-.708-.168-1.325-.541Zm1.72-4.08c-.213-.292-.522-.478-.622-.474-.19.21-1.405 2.165-1.696 2.378l.01.2c.104.096.108.196.017.4.01.2-.164.808.662 1.372.926.559 1.325.541 1.72.423.296-.113.76-.934.937-1.443.096-.104.346-1.216-1.028-2.857Z" clip-rule="evenodd"/>
  <path fill="#BB8553" d="M37.864 12.143c-.83-.664-1.134-.75-1.134-.75-.21-.191-.509-.178-.6.026-.19.21-.177.509.027.6.318.386 1.039.854 1.452 1.136"/>
  <path fill="#050505" d="m37.618 13.355.095-.104-.009-.2c-.208-.19-.517-.377-.726-.568-.308-.187-.517-.378-.726-.568a.304.304 0 0 1-.018-.4c.128-.139.26-.145.4-.018l.1-.004s.304.086 1.035.755l.2-.01-.01-.2c-.726-.568-1.034-.754-1.134-.75-.309-.186-.608-.172-.8.036-.186.309-.172.608.036.8.21.19.418.381.73.668.205.09.518.377.723.468.002.066.037.098.104.095Z"/>
  <path fill="#BB8553" d="M38.432 11.417c-.63-.673-1.448-1.037-1.448-1.037-.208-.19-.508-.177-.599.027-.19.209-.182.409.027.6.109.195.204.09.617.372 0 0 .413.282.735.768"/>
  <path fill="#050505" d="m37.769 12.247.1-.004c.095-.104.09-.205-.01-.2-.322-.486-.735-.768-.834-.763-.105-.096-.21-.191-.309-.187-.104-.095-.204-.091-.209-.19-.104-.096-.213-.292-.017-.4.127-.14.26-.146.4-.018 0 0 .82.463 1.447 1.036l.2-.009c.095-.104.095-.104-.01-.2-.626-.572-1.347-1.04-1.452-1.136-.308-.186-.603-.073-.794.136-.291.213-.173.608.035.799l.21.19c.099-.004.203.092.412.283a7.7 7.7 0 0 0 .83.663Z"/>
  <path fill="#BB8553" d="M37.806 10.844c-.522-.477-.826-.563-1.035-.754-.208-.191-.222-.49-.026-.6.19-.208.39-.217.6-.026 0 0 .816.363 1.447 1.036"/>
  <path fill="#050505" d="M37.815 11.044c.067-.003.098-.037.095-.104.1-.005-.004-.1-.008-.2a3.807 3.807 0 0 1-.622-.473 2.977 2.977 0 0 1-.413-.281.304.304 0 0 1-.018-.4c.127-.14.294-.147.5-.022 0 0 .717.368 1.347 1.04l.2-.008c.096-.105.091-.205-.009-.2-.63-.673-1.348-1.041-1.452-1.136a.529.529 0 0 0-.795.135c-.19.209-.177.508.036.8.104.095.209.19.413.281.204.091.313.286.622.473.003.066.037.098.104.095Z"/>
  <path fill="#BB8553" d="M40.639 11.518c-1.302-2.244-2.631-2.885-2.631-2.885-.205-.091-.604-.074-.7.03-.19.21-.177.51-.073.605.726.568 1.66 1.327 1.67 1.527"/>
  <path fill="#050505" d="m40.643 11.619.1-.005c.1-.004.096-.104.091-.204-1.397-2.14-2.63-2.886-2.73-2.881-.31-.187-.71-.17-.9.04a.679.679 0 0 0-.178.508c.006.133.077.23.214.29a.647.647 0 0 0 .313.287c.417.382 1.143.95 1.152 1.15.07.064.138.094.205.091.1-.004.095-.104.095-.104-.009-.2-.426-.582-1.261-1.345a1.566 1.566 0 0 1-.413-.282l-.005-.1-.013-.3a.637.637 0 0 1 .6-.027s1.334.742 2.63 2.886l.1-.004Z"/>
  <g opacity=".2">
    <path fill="#050505" d="M39.205 10.781s-.222-.49-.64-.872c-.313-.286-1.148-1.05-1.334-.741l.009.2s-.4.017-.486.322c-.087.304.33.686.33.686s-.504-.078-.586.326c.014.3.218.39.218.39s-.295.114-.382.418c-.086.304.131.695.34.886.313.286.83.663.83.663s-.013-.3.169-.708l.564-.826.968-.744Z"/>
    <path fill="#050505" fill-rule="evenodd" d="M37.41 13.164s-.518-.378-.831-.664c-.309-.186-.431-.681-.35-1.086-.008-.2.187-.308.287-.313a.888.888 0 0 1-.117-.395c-.006-.133.056-.236.186-.308.064-.07.162-.108.295-.114-.209-.19-.322-.486-.23-.69a.55.55 0 0 1 .485-.322l-.004-.1-.005-.1c.064-.07.13-.106.196-.109.4-.017.921.46 1.338.841l.005.1c.413.282.635.773.64.873.002.066-.03.101-.096.104l-.868.74-.563.825c-.187.31-.174.609-.174.609l.005.1-.1.004-.1.005Zm1.06-3.15c-.21-.192-.84-.864-1.035-.755l-.1.004.009.2c.003.066-.029.101-.095.104 0 0-.3.014-.391.218.004.1.218.39.322.486.07.064.07.097.004.1.003.066-.028.101-.095.104-.1.005-.3.014-.395.118l.004.1c.014.3.114.295.114.295.07.064.072.13.008.2.003.066-.028.101-.095.104 0 0-.2.01-.29.213-.092.205.126.595.334.786.21.191.418.382.622.473-.006-.133.053-.303.178-.508l.563-.826.1-.005.773-.635c-.109-.195-.222-.49-.535-.777Z" clip-rule="evenodd"/>
  </g>
  <path fill="#BB8553" d="M38.545 11.713s-.104-.096-.426-.582c-.313-.287-.417-.382-.53-.677-.114-.295.077-.504.272-.613.264-.079.503.044.717.369.213.29.318.386.627.572 0 0 .413.282.503.078"/>
  <path fill="#050505" d="m38.55 11.812.1-.005c.064-.07.06-.136-.01-.2 0 0-.103-.095-.425-.581-.07-.064-.138-.094-.205-.091-.213-.29-.213-.29-.322-.486-.013-.3.082-.404.282-.413.196-.109.404.082.509.178l.104.095c.113.295.222.49.526.577l.005.1c.1-.005.508.177.699-.032.095-.104.091-.204-.009-.2-.004-.1-.104-.095-.2.01 0 0-.2.009-.304-.087-.304-.086-.413-.282-.522-.477l-.104-.095c-.218-.391-.522-.478-.817-.364-.395.117-.482.422-.368.717.013.3.117.395.326.586.07.063.106.129.109.195.422.482.526.577.526.577l.1-.004Z"/>
  <path fill="#F3F6F7" d="M52.647 24.896c-.932 1.543-2.213 2-3.96.978-.921-.46-11.184-10.612-11.184-10.612s.541-1.326 1.505-2.17c.967-.743 2.326-1.705 2.326-1.705s9.628 9.38 10.15 9.857c1.143.95 2 2.213 1.163 3.652Z"/>
  <path fill="#050505" fill-rule="evenodd" d="M48.592 25.978c-.922-.46-10.767-10.23-11.185-10.612-.07-.063-.072-.13-.008-.2 0 0 .541-1.325 1.504-2.169a88.645 88.645 0 0 0 2.327-1.705c.063-.07.13-.073.2-.01.104.096 9.627 9.381 10.149 9.858 1.456 1.236 1.919 2.617 1.168 3.752-.618 1.095-1.395 1.63-2.33 1.605-.533.024-1.142-.149-1.825-.519Zm3.951-1.177c.837-1.439-.12-2.697-1.155-3.452-.422-.482-9.101-8.803-10.045-9.762-.39.218-1.359.962-2.231 1.601-.772.635-1.323 1.76-1.51 2.07 3.558 3.444 10.364 10.148 11.18 10.512 1.544.932 2.829.574 3.761-.97Z" clip-rule="evenodd"/>
  <path fill="#050505" d="M38.74 13.805c-.252 1.113 10.48 10.544 11.505 11.099.754.433 1.397.638 1.93.614-.86.94-2.05 1.192-3.488.356-.921-.46-10.563-10.14-11.184-10.612.286-.313.659-.93 1.236-1.457Z" opacity=".2"/>
  <path fill="#F3F6F7" d="M39.283 14.782s-.963.844-1.05 1.148a2.613 2.613 0 0 0-.268.713l.526.577s.369-.717.65-1.13c.378-.517.773-.635.773-.635"/>
  <path fill="#050505" d="M38.496 17.32c.066-.003.098-.038.095-.105 0 0 .373-.617.655-1.03.381-.417.677-.53.677-.53.095-.105.095-.105.09-.205-.004-.1-.104-.095-.203-.09 0 0-.296.112-.773.634-.186.309-.468.722-.56.926l-.312-.286c-.005-.1.082-.404.173-.609.09-.204.663-.83 1.05-1.148.1-.004.095-.104-.01-.2l-.2.01c-.095.104-.962.843-1.149 1.152l-.164.808.004.1.527.577.1-.005Z"/>
  <path fill="#BB8553" d="M49.244 22.646c.042-1.303.75-1.135 1.84-1.384.495-.122.89-.24 1.072-.648.096-.104.375-2.82.557-3.228.723-1.734 1.953-1.088 3.747-1.268 1.594-.172 3.197-.143 2.786 1.877-.168.708-1.114 1.952-.774 2.838.331.686 1.012.255 1.82.419 3.537.743-1.002 4.449-2.26 5.406-1.65 1.174-5.448 3.546-7.282 2.827-2.034-.71-1.621-4.932-1.506-6.84Z"/>
  <path fill="#050505" fill-rule="evenodd" d="M50.655 29.59c-1.934-.715-1.695-4.329-1.589-6.436l-.022-.5c.046-1.203.646-1.23 1.44-1.365.197-.076.396-.117.595-.127.495-.122.786-.335.977-.543-.004-.1.069-.704.146-1.209.156-1.007.215-1.91.406-2.12.542-1.325 1.345-1.26 2.449-1.21l1.398-.062c.995-.145 2.094-.194 2.62.383.348.318.438.848.271 1.59.014.3-.173.608-.355 1.017-.273.612-.546 1.225-.324 1.716.118.395.418.381.917.36.2-.01.5-.023.804.063.808.165 1.257.512 1.348 1.042.37 1.584-3.214 4.247-3.6 4.564-.777.536-4.271 2.994-6.573 2.996a1.985 1.985 0 0 1-.908-.16Zm8.943-8.207c-.5.022-1 .045-1.226-.546-.226-.59.142-1.308.41-2.02.087-.304.273-.613.36-.917.106-.606.02-1.036-.258-1.29-.422-.482-1.42-.437-2.415-.293-.5.023-1 .045-1.403-.037-1.004-.056-1.703-.024-2.254 1.101-.09.205-.241 1.313-.305 2.116-.165.808-.151 1.108-.247 1.212-.182.409-.677.531-1.172.653a1.887 1.887 0 0 1-.595.127c-.695.13-1.09.249-1.145 1.252l.018.4c-.11 2.007-.354 5.521 1.38 6.245 1.63.628 4.85-1.218 7.18-2.823 1.455-1.066 3.763-3.171 3.51-4.361-.084-.397-.463-.647-1.135-.75a1.887 1.887 0 0 0-.603-.074l-.1.005Z" clip-rule="evenodd"/>
  <path fill="#979ABE" d="M57.36 20.582c.781-.436 2.406.092 3.05 1.065.844.963.32 2.688.174 3.896-.392 2.42-.18 2.71-.14 3.61-.072.603.181 1.793.094 2.098.045.999-5.358 1.04-6.258 1.08-1.702-.025-2.824-.475-4.236-.712-1.611-.229-.788-1.967-.755-3.47.124-1.707-.22-2.693-.383-4.087-.266-1.49.289-2.515 1.47-2.969 1.476-.566 1.092 2.054 2.105 2.309 1.107.15 3.507-2.159 4.879-2.82Z"/>
  <path fill="#050505" fill-rule="evenodd" d="M51.266 32.065a7.429 7.429 0 0 0-1.313-.242c-1.312-.242-1.165-1.45-.92-2.661.053-.336.103-.706.152-1.108.05-1.104-.09-1.998-.234-2.993a5.087 5.087 0 0 1-.144-.994c-.267-1.49.283-2.616 1.56-3.173.263-.078.498-.056.703.069.409.181.631.672.753 1.167.227.59.349 1.086.749 1.068.608.173 1.866-.784 3.03-1.637.581-.426 1.163-.852 1.653-1.075.977-.544 2.607.084 3.25 1.056.74.868.503 2.28.352 3.388a9.08 9.08 0 0 1-.169.709c-.224 1.711-.197 2.31-.17 2.91l.027.6.062 1.398c.082.33.125.562.131.695.014.3-.364.817-2.957 1.033l-3.496.156c-1.199.053-2.111-.206-3.02-.366Zm6.098-11.383c-.39.217-.972.644-1.654 1.075-1.158.952-2.517 1.914-3.225 1.745-.504-.078-.73-.668-.957-1.258-.122-.496-.24-.89-.548-1.077-.137-.06-.303-.053-.5.022-1.081.449-1.636 1.474-1.474 2.869.082.33.13.661.145.994.244.99.384 1.885.338 3.088-.052.336-.102.706-.15 1.108-.243 1.312-.307 2.116.701 2.271.403.049.807.13 1.212.246 1.013.255 1.82.42 3.02.366 4.304.008 6.184-.476 6.167-.876l-.027-.6c-.122-.494-.15-1.094-.167-1.493l-.027-.6c-.026-.6-.053-1.199.266-3.015a1.9 1.9 0 0 1 .073-.603c.151-1.108.393-2.42-.247-3.293-.53-.677-1.552-1.131-2.35-1.096-.2.01-.399.051-.596.127Z" clip-rule="evenodd"/>
  <path fill="#F3F6F7" d="m49.878 30.125.542-8.032-.613-.273c-.917-.36-2.65 3.421-2.573 9.624-.323 6.22.142 14.408.17 15.007.579 1.776 2.695 2.082 5.001 2.18 6.125.427 13.174-.889 13.451-1.401.65-1.13.643-3.533.689-9.24.046-1.204-1.286-4.147-1.227-5.05.071-2.907.641-5.835.53-8.333-.346-5.49-4.71-4.594-4.71-4.594l-11.26 10.112Z"/>
  <path fill="#050505" fill-rule="evenodd" d="M52.314 48.835c-2.41-.193-4.426-.503-5.01-2.38-.005-.099-.58-8.482-.27-15.002-.045-5.503 1.302-8.967 2.27-9.71.195-.11.395-.118.494-.123l.005.1.613.273c.066-.003.101.029.104.095l-.456 7.728 10.97-9.898c.1-.005 1.785-.38 3.232.656 1.038.821 1.598 2.164 1.682 4.029.062 1.399-.07 2.906-.204 4.414-.142 1.307-.284 2.615-.326 3.918.018.4.258 1.29.598 2.175.349 1.086.702 2.272.729 2.87-.041 5.809-.139 8.115-.784 9.345-.182.408-3.162.942-4.656 1.109-1.294.158-3.483.456-5.985.467l-3.006-.066Zm8.829-28.722L49.983 30.22c-.064.07-.131.072-.2.008l-.005-.1.447-7.927-.513-.278c-.1.005-.2.009-.195.109-.777.535-2.233 3.803-2.183 9.407-.319 6.32.251 14.603.269 15.003.475 1.68 2.387 1.895 4.798 2.088 6.125.427 12.97-.98 13.355-1.297.65-1.13.639-3.632.69-9.24-.028-.6-.38-1.785-.725-2.77-.245-.99-.584-1.876-.507-2.38-.058-1.299.089-2.506.23-3.814.229-1.612.366-3.02.304-4.418-.147-1.795-.705-3.072-1.673-3.83-.826-.563-1.734-.723-2.333-.696l-.6.027Z" clip-rule="evenodd"/>
  <mask id="a" width="20" height="30" x="47" y="19" maskUnits="userSpaceOnUse" style="mask-type:luminance">
    <path fill="#fff" d="m51.556 24.885-1.186-2.8-.594-.294c-.834-.293-2.638 3.461-2.583 9.625-.291 6.27.192 14.396.24 15.024.531 1.818 2.664 2.054 4.923 2.213 6.145.427 13.252-.932 13.502-1.393.648-1.16.69-3.595.709-9.231.005-1.222-1.269-4.198-1.25-5.14.021-2.873.672-5.785.52-8.31-.325-5.482-4.748-4.554-4.748-4.554l-9.533 4.86Z"/>
  </mask>
  <g mask="url(#a)">
    <path fill="#F3F6F7" d="M45.162 38.844c-.007 2.103 1.414 2.54 1.414 2.54s1.421.437 1.423-1.766l-.003-2.301-2.928-.57.094 2.097Z"/>
    <path fill="#050505" fill-rule="evenodd" d="M46.48 41.488s-1.42-.437-1.418-2.64l-.094-2.098.095-.104 2.929.57.104.096.007 2.402c-.034.735-.211 1.244-.532 1.525-.291.213-.59.226-.79.235l-.3.014Zm-1.303-4.547.089 1.998c-.015 1.903 1.206 2.349 1.306 2.344 0 0 .504.078.794-.135.322-.281.5-.79.533-1.525l-.098-2.198-2.624-.483Z" clip-rule="evenodd"/>
    <path fill="#F3F6F7" d="m45.022 37.95 2.928.57Z"/>
    <path fill="#050505" d="M47.954 38.62c.067-.003.099-.038.096-.105.064-.07.062-.102-.005-.1l-2.932-.67c-.067.004-.132.04-.196.11.003.066.04.131.11.195l2.927.57Z"/>
  </g>
  <path fill="#F3F6F7" d="M54.8 30.506c-.024 1.703 2.078 1.71 2.078 1.71s2.207.101 2.23-1.602l.02-1.802-4.404-.004.076 1.698Z"/>
  <path fill="#050505" fill-rule="evenodd" d="M56.882 32.315s-2.306-.097-2.182-1.804l-.076-1.699c-.003-.067.029-.101.095-.104l4.4-.096c.067-.003.102.028.105.095l.004.1-.02 1.803c-.023 1.702-2.126 1.696-2.326 1.705Zm-2.054-3.412.072 1.599c-.033 1.503 1.873 1.618 1.973 1.613.1-.004 2.103.006 2.136-1.497l.024-1.702-4.205-.013Z" clip-rule="evenodd"/>
  <path fill="#F3F6F7" d="M54.664 29.711h4.505Z"/>
  <path fill="#050505" d="m59.173 29.81-.009-.2-4.504.001.009.2h4.504Z"/>
  <path fill="#F3F6F7" d="M56.031 40.161c.194 2.093 2.895 2.073 2.895 2.073s2.793-.225 2.6-2.318l-.103-2.298-5.486.445.094 2.098Z"/>
  <path fill="#050505" fill-rule="evenodd" d="m55.931 40.165-.093-2.098c-.003-.066.029-.1.095-.104l5.486-.445.1-.005.004.1.103 2.298c.198 2.194-2.695 2.423-2.695 2.423l-.1.004c-.3.014-2.806-.075-2.9-2.173Zm.11-2.007.19 1.994c.09 1.998 2.587 1.886 2.686 1.882 0 0 2.598-.116 2.509-2.114l-.098-2.198-5.286.436Z" clip-rule="evenodd"/>
  <path fill="#F3F6F7" d="m55.886 39.166 5.69-.354Z"/>
  <path fill="#050505" d="m55.891 39.266 5.69-.354-.009-.2-5.69.355.01.2Z"/>
  <path fill="#050505" fill-rule="evenodd" d="M52.314 48.835c-2.41-.193-4.426-.503-5.01-2.38-.005-.099-.58-8.482-.27-15.002-.045-5.503 1.302-8.967 2.27-9.71.195-.11.395-.118.494-.123l.005.1.613.273c.066-.003.101.029.104.095l-.456 7.728 10.97-9.898c.1-.005 1.785-.38 3.232.656 1.038.821 1.598 2.164 1.682 4.029.062 1.399-.07 2.906-.204 4.414-.142 1.307-.284 2.615-.326 3.918.018.4.258 1.29.598 2.175.349 1.086.702 2.272.729 2.87-.041 5.809-.139 8.115-.784 9.345-.182.408-3.162.942-4.656 1.109-1.294.158-3.483.456-5.985.467l-3.006-.066Zm8.829-28.722L49.983 30.22c-.064.07-.131.072-.2.008l-.005-.1.447-7.927-.513-.278c-.1.005-.2.009-.195.109-.777.535-2.233 3.803-2.183 9.407-.319 6.32.251 14.603.269 15.003.475 1.68 2.387 1.895 4.798 2.088 6.125.427 12.97-.98 13.355-1.297.65-1.13.639-3.632.69-9.24-.028-.6-.38-1.785-.725-2.77-.245-.99-.584-1.876-.507-2.38-.058-1.299.089-2.506.23-3.814.229-1.612.366-3.02.304-4.418-.147-1.795-.705-3.072-1.673-3.83-.826-.563-1.734-.723-2.333-.696l-.6.027Z" clip-rule="evenodd"/>
  <path fill="#050505" d="M49.481 48.161c.1-.004.1-.005.096-.104 0 0 .05-1.104.07-2.906a6.742 6.742 0 0 0-.148-1.095l-.072-1.598.138-1.408c.045-.469.058-.937.037-1.403.049-.402.064-.803.047-1.203a4.245 4.245 0 0 1-.058-1.299 9.87 9.87 0 0 1 .037-1.403 56.3 56.3 0 0 0 .142-1.307l-.045-1-.049-1.098.164-.809.164-.807c.148-2.676.4-4.523.754-5.54 0 0-.004-.1-.108-.195-.1.004-.096.104-.196.109-.288 1.014-.538 2.893-.75 5.639.01.2-.046.436-.168.708-.055.27-.074.57-.06.904a3.05 3.05 0 0 0 .05 1.099 5.13 5.13 0 0 1-.056 1.003c.021.466.007.9-.042 1.303l-.137 1.408.058 1.298.053 1.2-.137 1.407a9.89 9.89 0 0 0-.038 1.403 6.423 6.423 0 0 0 .072 1.598l.049 1.099c-.02 1.803.03 2.901.03 2.901.004.1.004.1.103.096Z"/>
  <path fill="#E6E6E6" d="M50.367 32.105c.013.3.222.491.521.478.3-.014.49-.222.477-.522-.008-.2-.222-.49-.521-.477-.2.009-.49.222-.477.521Z"/>
  <path fill="#050505" fill-rule="evenodd" d="M50.267 32.11c.086-.304.277-.513.577-.526.3-.014.608.173.621.472-.086.305-.273.613-.572.627-.3.013-.613-.273-.626-.573Zm.2-.01a.43.43 0 0 0 .417.383c.2-.01.395-.118.382-.418a.43.43 0 0 0-.418-.381.43.43 0 0 0-.381.417Z" clip-rule="evenodd"/>
  <path fill="#E6E6E6" d="M50.394 37.21c-.086.304.122.495.422.481.3-.013.49-.222.477-.522-.009-.2-.218-.39-.517-.377-.204-.091-.39.218-.382.417Z"/>
  <path fill="#050505" fill-rule="evenodd" d="M50.294 37.214c-.013-.3.178-.509.478-.522.4-.018.608.173.626.573.013.3-.278.513-.578.526-.3.013-.512-.277-.526-.577Zm.1-.005c.01.2.218.391.418.382.2-.009.395-.118.381-.417-.009-.2-.117-.396-.417-.382a.43.43 0 0 0-.382.417Z" clip-rule="evenodd"/>
  <path fill="#E6E6E6" d="M50.127 42.426c.008.2.222.49.521.477.2-.008.391-.217.477-.521-.013-.3-.221-.49-.521-.477-.3.013-.49.222-.477.521Z"/>
  <path fill="#050505" fill-rule="evenodd" d="M50.027 42.43c-.014-.3.273-.612.572-.626.3-.013.513.278.527.578.013.3-.173.608-.478.521-.3.014-.608-.173-.621-.472Zm.2-.008c.009.2.117.395.417.381a.43.43 0 0 0 .382-.417.43.43 0 0 0-.418-.382.43.43 0 0 0-.381.418Z" clip-rule="evenodd"/>
  <g opacity=".2" style="mix-blend-mode:multiply">
    <path fill="#050505" d="M49.691 30.434s-.205-4.595-1.153-5.654c-.317-.386 1.203.046 1.203.046s-1.596-2.13-1.614-2.53c.082-.404 2.275-.602 2.275-.602s.158 1.294.143 3.197c.085 1.898-.572 5.13-.572 5.13"/>
    <path fill="#050505" d="M49.696 30.534c.067-.003.098-.038.095-.104-.008-.2-.2-4.496-1.157-5.755.204.091.708.17 1.112.251.003.067.036.065.1-.004l-.004-.1c-.64-.873-1.606-2.33-1.615-2.53-.009-.2.981-.445 2.08-.494.014.3.167 1.494.138 3.097.085 1.898-.576 5.03-.576 5.03l.009.2c.066-.003.132-.039.195-.109 0 0 .657-3.232.572-5.13.015-1.903-.143-3.197-.143-3.197l-.004-.1-.1.005c-.7.03-2.289.302-2.37.706.013.3.979 1.758 1.505 2.335-1.013-.255-1.104-.05-1.104-.05s-.095.104.01.2c.947 1.058 1.153 5.654 1.153 5.654.003.066.037.098.104.095Z"/>
  </g>
  <path fill="#F3F6F7" d="M49.878 30.125s-.205-4.595-1.158-5.754c-.313-.286 1.208.147 1.208.147s-1.601-2.231-1.614-2.53c.082-.405 2.27-.703 2.27-.703s.158 1.294.148 3.297c-.015 1.902-.577 5.03-.577 5.03"/>
  <path fill="#050505" d="M49.882 30.226c.067-.003.099-.038.096-.105-.01-.2-.2-4.495-1.158-5.754.2-.009.708.169 1.112.25 0 0 .034 0 .1-.004l-.009-.2c-.748-1.067-1.6-2.23-1.61-2.43.091-.204.982-.445 2.08-.494.014.3.167 1.495.139 3.098-.02 1.802-.577 5.03-.577 5.03-.063.07-.062.103.005.1.07.064.136.06.2-.009-.005-.1.656-3.232.572-5.13.01-2.003-.148-3.297-.148-3.297-.003-.067-.037-.098-.104-.095-.895.14-2.289.302-2.37.706.017.4.978 1.758 1.41 2.44-.913-.26-1.009-.156-1.004-.056-.1.005-.096.104.009.2.848 1.063 1.148 5.554 1.153 5.654.003.067.038.099.104.096Z"/>
  <g opacity=".1" style="mix-blend-mode:multiply">
    <path fill="#050505" d="M64.075 20.783s1.77 1.523 1.773 3.825c-.002 2.202-.783 7.142-.53 8.332.25 1.09 1.147 3.252 1.21 4.65.057 1.3.019 9.41-.672 9.64-.686.331-4.26.991-4.26.991s1.769-2.982 1.666-9.784c-.076-1.698-.92-2.661-1.291-4.246-.271-1.59.566-3.029.898-4.545.337-1.416.089-2.507-.373-3.887a143.58 143.58 0 0 0-1.953-5.619l.69-.23s2.003.01 2.842.873Z"/>
    <path fill="#050505" fill-rule="evenodd" d="m61.5 48.325-.004-.1c-.004-.1 1.765-3.081 1.666-9.784-.045-.999-.376-1.685-.711-2.47-.227-.591-.449-1.081-.58-1.776-.153-1.195.202-2.212.457-3.224.179-.475.326-.915.441-1.32.333-1.517.084-2.607-.373-3.888-.575-1.676-1.16-3.552-1.948-5.519-.07-.063-.073-.13-.01-.2l.791-.235c.1-.005 2.003.01 2.847.974.104.096 1.869 1.518 1.872 3.82-.056 1.004-.193 2.412-.326 3.919-.12 1.807-.335 3.718-.208 4.313.118.395.245.99.475 1.68.345.987.698 2.172.738 3.071.027.6.03 2.901-.068 5.208-.108 4.31-.498 4.527-.698 4.536-.686.33-4.06.982-4.26.99l-.1.005Zm-.852-28.09c.788 1.967 1.368 3.743 1.943 5.42.462 1.38.711 2.47.378 3.986-.112.472-.26.913-.441 1.321-.355 1.017-.606 2.13-.462 3.124a7.76 7.76 0 0 0 .58 1.776c.336.786.671 1.571.716 2.57.058 5.803-1.202 8.963-1.57 9.68.794-.136 3.374-.651 4.06-.982.1-.004.382-.418.507-4.327.098-2.307.095-4.609.068-5.208-.04-.9-.389-1.985-.737-3.07-.227-.59-.353-1.186-.471-1.58-.131-.696.088-2.507.199-4.514.137-1.408.27-2.915.33-3.819.002-2.202-1.768-3.725-1.768-3.725-.735-.768-2.542-.887-2.742-.878l-.59.226Z" clip-rule="evenodd"/>
  </g>
  <g opacity=".2" style="mix-blend-mode:multiply">
    <path fill="#050505" d="M61.252 20.308s1.993-.189 2.746.98c-3.084.437-7.74 3.748-7.74 3.748s1.81.22 1.516.333c-2.358 1.006-7.878 5.156-7.878 5.156s1.755-3.282 3.577-5.065c3.15-3.443 7.779-5.152 7.779-5.152Z"/>
    <path fill="#050505" fill-rule="evenodd" d="m49.8 30.63-.004-.1c-.005-.1 1.85-3.387 3.573-5.165 3.25-3.448 7.778-5.152 7.878-5.156.1-.005 1.993-.19 2.846.974.07.063.071.097.005.1l.004.1c-2.788.324-6.677 2.9-7.65 3.544 1.413.238 1.417.338 1.421.437 0 0 .005.1-.095.105C55.42 26.475 50 30.62 50 30.62l-.1.005-.1.004Zm6.362-5.49-.005-.1-.004-.1c.1-.004 4.561-3.206 7.74-3.748-.843-.964-2.437-.792-2.637-.783-.196.108-4.624 1.808-7.783 5.052-1.336 1.46-2.732 3.825-3.291 4.751 1.258-.957 5.33-3.941 7.392-4.834-.304-.087-.808-.165-1.412-.238Z" clip-rule="evenodd"/>
  </g>
  <path fill="#F3F6F7" d="M61.234 19.909s1.989-.29 2.841.874c-3.183.442-7.84 3.753-7.84 3.753s1.816.32 1.52.433c-2.357 1.006-7.877 5.156-7.877 5.156s1.755-3.281 3.573-5.164c3.254-3.349 7.783-5.052 7.783-5.052Z"/>
  <path fill="#050505" fill-rule="evenodd" d="m49.782 30.23-.009-.2s1.856-3.286 3.574-5.165c3.254-3.348 7.782-5.052 7.882-5.056l-.004-.1c.1-.004 1.993-.19 2.95 1.07l.005.1-.1.004c-2.684.42-6.573 2.996-7.545 3.64 1.312.242 1.316.342 1.316.342.005.1.01.2-.09.204-2.358 1.006-7.783 5.052-7.779 5.152l-.1.004-.1.005Zm6.462-5.494-.105-.095-.004-.1c.19-.21 4.562-3.207 7.736-3.85-.84-.863-2.433-.691-2.633-.682-.195.108-4.624 1.808-7.683 5.047-1.336 1.461-2.736 3.726-3.295 4.652 1.258-.957 5.234-3.837 7.296-4.73-.304-.087-.913-.26-1.312-.242Z" clip-rule="evenodd"/>
  <path fill="#E6E6E6" d="M50.575 32.297c.014.3.222.49.422.481.3-.013.49-.222.482-.422-.013-.3-.222-.49-.422-.481-.3.013-.49.222-.482.422Zm-.072 5.108c.013.3.222.49.522.477.2-.009.39-.217.481-.422-.013-.3-.222-.49-.521-.477-.3.014-.491.222-.482.422Z" opacity=".2" style="mix-blend-mode:multiply"/>
  <path fill="#23AAE1" d="M56.886 27.911c-.06.904.67 1.572 1.474 1.636.8-.035 1.572-.67 1.532-1.57.064-.803-.566-1.476-1.47-1.536-.804-.064-1.572.671-1.536 1.47Z"/>
  <path fill="#050505" fill-rule="evenodd" d="M58.36 29.547c-.903-.06-1.534-.732-1.574-1.631.082-.405.264-.813.55-1.126.291-.213.682-.431 1.082-.449.903.06 1.538.832 1.574 1.632-.06.903-.732 1.534-1.532 1.57l-.1.004Zm-1.02-2.657c-.285.313-.372.617-.454 1.021.036.8.666 1.472 1.47 1.536.804.064 1.472-.666 1.536-1.47-.036-.8-.666-1.472-1.466-1.436l-.004-.1c-.4.018-.79.236-1.081.449Z" clip-rule="evenodd"/>
  <path fill="#FEFEFE" d="M57.59 27.98a.789.789 0 0 0 .835.763c.404.082.786-.335.768-.735.077-.504-.34-.886-.74-.868-.5.022-.786.335-.863.84Z"/>
  <path fill="#23AAE1" d="M58.09 27.957c.008.2.212.291.312.287.2-.01.395-.118.387-.318-.01-.2-.214-.29-.314-.286-.2.009-.395.118-.386.317Z"/>
  <path fill="#BB8553" d="M68.91 39.387c.05-1.104-.185-1.894-.725-2.77-.426-.582-1.134-.75-1.734-.724-.3.013-1.998.09-1.926 1.688.013.3.135.794.053 1.198-.086.304-.182.409-.06.904.01.2.722.468.922.46-.01-.2.086-.305.186-.31.3-.013.413.282.34.886.018.4.322.486.322.486l1.177-.553s1.471-.666 1.444-1.265Z"/>
  <path fill="#050505" fill-rule="evenodd" d="M66.297 41.405c-.005-.1-.413-.282-.43-.681-.023-.5-.132-.695-.132-.695-.003-.067-.038-.099-.104-.096l.008.2.01.2-.2.009s-1.017-.355-1.03-.655c-.118-.395-.127-.595-.036-.8l-.005-.099c.087-.304.073-.604.06-.904-.073-.13-.11-.228-.113-.295a1.637 1.637 0 0 1 .446-1.221c.477-.522 1.276-.558 1.676-.575.799-.036 1.412.237 1.838.819.535.776.77 1.567.724 2.77.032.7-1.245 1.257-1.44 1.366l-1.272.657Zm.163-5.313c-.2.01-.999.045-1.476.567-.19.209-.277.513-.26.912l.014.3c.013.3.031.7-.056 1.003l.005.1c.009.2-.087.305.031.7.005.1.413.282.717.368-.006-.133.025-.201.091-.204-.003-.067.062-.103.196-.109.066-.003.168.026.304.086.139.128.186.426.14.895.009.2.118.395.217.39l1.077-.548c.586-.326 1.367-.761 1.35-1.16.05-1.104-.185-1.895-.72-2.672-.322-.486-1.03-.654-1.53-.632l-.1.004Z" clip-rule="evenodd"/>
  <path fill="#BB8553" d="M64.496 39.183s-.073.603.054 1.198c.126.595.235.79.344.986.209.19.508.178.704.069.13-.073.154-.274.073-.604-.114-.295-.218-.39-.24-.89"/>
  <path fill="#050505" d="M65.307 41.65c.133-.007.231-.044.295-.114.26-.145.317-.381.169-.708l-.005-.1c-.113-.295-.217-.39-.135-.795l-.105-.095c-.1.004-.2.009-.195.109.022.5.027.599.14.894l.004.1c.214.29.118.395.018.4-.095.104-.4.018-.504-.078-.104-.095-.213-.29-.34-.886l-.053-1.198c-.005-.1-.109-.196-.109-.196a.215.215 0 0 0-.19.209s.03.7.153 1.194c.022.5.14.895.348 1.086a.764.764 0 0 0 .509.177Z"/>
  <path fill="#BB8553" d="M67.868 40.734c.01.2.2-.009.5-.022.2-.01.327-.148.382-.418 0 0 .473-.621-.012-2.502"/>
  <path fill="#050505" d="m67.978 40.93.2-.01.095-.104c.336.052.563-.092.681-.43-.004-.1.364-.818-.116-2.598-.004-.1-.104-.096-.104-.096-.1.005-.195.11-.091.205.38 1.785.007 2.402.007 2.402-.087.304-.186.308-.286.313l-.3.013c-.07-.063-.138-.094-.204-.091-.1.005-.096.104-.091.204.003.067.039.132.109.196l.1-.005Z"/>
  <path fill="#BB8553" d="M67.456 40.452c-.083.404-.083.404-.074.604.014.3.122.495.422.482.2-.01.295-.113.382-.417 0 0 .186-.31.228-1.612"/>
  <path fill="#050505" d="M67.809 41.638c.3-.014.486-.322.481-.422.096-.105.278-.513.224-1.712 0 0-.004-.1-.104-.095-.1.004-.195.108-.195.108.053 1.2-.129 1.608-.129 1.608-.09.204-.186.309-.286.313-.204-.09-.309-.187-.318-.386l-.009-.2c-.004-.1.091-.204.082-.404-.004-.1-.004-.1-.108-.196a.215.215 0 0 0-.191.21l.018.399c-.1.004-.096.104-.091.204.013.3.326.586.526.577l.1-.004Z"/>
  <path fill="#BB8553" d="M66.852 40.379c.031.699-.155 1.008-.142 1.307.009.2.218.391.417.382.205.091.396-.118.387-.317 0 0 .282-.413.224-1.712"/>
  <path fill="#050505" d="M67.136 42.268c.267-.012.459-.187.577-.526 0 0 .178-.509.124-1.707-.004-.1-.104-.096-.204-.091l-.095.104c.058 1.299-.129 1.607-.129 1.607-.086.304-.186.309-.286.313-.1.005-.304-.086-.313-.286a.888.888 0 0 1 .082-.404c.09-.204.077-.504.164-.808-.004-.1-.109-.196-.209-.191l-.095.104c.018.4-.073.604-.164.808l.022.5c.013.3.227.59.526.577Z"/>
  <path fill="#BB8553" d="M66.952 40.375c.058 1.298-.124 1.707-.124 1.707-.091.204-.182.408-.386.317-.3.014-.509-.177-.418-.381-.031-.7.024-1.703-.085-1.899"/>
  <path fill="#050505" d="M66.45 42.6c.3-.014.391-.218.478-.523.1-.004.177-.508.124-1.707-.005-.1-.105-.095-.105-.095-.1.004-.2.009-.195.109.153 1.194-.029 1.603-.029 1.603-.086.304-.186.308-.286.313-.2.009-.304-.087-.313-.287l-.013-.3c.06-.903.037-1.403-.072-1.598-.004-.1-.104-.095-.104-.095-.1.004-.195.109-.091.204.004.1.04.9-.033 1.503l.013.3c.014.3.327.586.626.572Z"/>
  <path fill="#050505" d="M65.376 40.946s-.1.004-.214-.291c-.117-.395-.049-1.1.164-.808l.105.095c-.078.504.027.6.14.895.148.327.157.527.027.6l-.005-.1c.078-.505-.218-.391-.218-.391Z" opacity=".1"/>
  <path fill="#050505" d="M67.065 40.67s.227.59.067 1.499l-.209-.191.142-1.308Zm.777-.535s.227.59-.033 1.503l-.209-.19.242-1.313Zm.677-.531s.313.287.049 1.1l-.3.012.25-1.112Z" opacity=".3"/>
  <path fill="#F3F6F7" d="M61.787 21.085c1.567-.77 2.884-.428 3.863 1.33.544.976 3.375 15.064 3.375 15.064s-1.163.853-2.457 1.01l-2.798.126s-2.89-13.185-3.021-13.88c-.462-1.38-.43-2.883 1.038-3.65Z"/>
  <path fill="#050505" fill-rule="evenodd" d="M63.57 38.623c-.004-.1-2.79-13.188-3.017-13.779-.484-1.88-.142-3.197 1.13-3.854 1.765-.813 3.12-.34 4.067 1.42.544.977 3.348 14.465 3.475 15.06.003.067-.028.135-.091.204 0 0-1.268.758-2.562.915-1.195.154-2.797.125-2.797.125l-.1.005c-.067.003-.102-.029-.105-.096Zm1.984-16.104c-.875-1.663-2.091-2.009-3.658-1.238-1.472.666-1.4 2.265-1.048 3.45.127.595 2.656 12.394 3.018 13.779a31.64 31.64 0 0 0 2.692-.22c1-.045 2.072-.693 2.367-.807-1.022-4.959-3.035-14.178-3.37-14.964Z" clip-rule="evenodd"/>
  <path fill="#050505" d="M67.15 38.063c.962-.844-2.858-14.687-3.303-15.668-.368-.785-.825-1.298-1.37-1.54 1.286-.358 2.407.092 3.173 1.56.544.976 3.144 14.374 3.375 15.064-.39.218-1.081.449-1.876.584Z" opacity=".2"/>
  <path fill="#F3F6F7" d="M67.3 36.956s1.294-.158 1.585-.372c.19-.208.577-.526.577-.526l-.231-.69s-.582.426-1.176.553c-.496.122-.9.04-.9.04"/>
  <path fill="#050505" d="M67.304 37.055c.1-.005 1.294-.158 1.585-.371.291-.213.677-.531.677-.531l-.004-.1-.131-.695c-.003-.066-.038-.098-.105-.095-.07-.064-.103-.062-.1.004 0 0-.686.331-1.176.553-.495.123-.8.036-.8.036-.1.004-.2.009-.195.109.005.1.005.1.11.195 0 0 .403.082.994-.144.395-.118.785-.336.98-.444l.123.495c-.095.104-.286.313-.482.421-.195.11-.99.245-1.49.267-.1.004-.195.109-.09.204.003.067.038.099.104.096Z"/>
  <path fill="#67361C" d="M52.92 8.568s.368-.717-1.97-1.514c-2.033-.71-3.62 1.864-4.035 3.784-.894 4.645-2.883 4.934-4.375 2.898 0 0 .416 2.584 2.74 3.08 4.953 1.081 6.437-3.79 7.434-6.137"/>
  <path fill="#141112" d="M46.696 17.154c3.601-.06 5.044-3.628 5.945-5.87.057-.203.148-.408.273-.613 0 0-.005-.1-.105-.096-.104-.095-.2.01-.2.01a2.529 2.529 0 0 1-.273.612c-.987 2.546-2.616 6.423-7.06 5.52-1.517-.333-2.179-1.704-2.51-2.39.627.572 1.34.84 1.934.714.79-.235 1.754-1.079 2.315-4.207.246-1.212 1.078-2.75 2.15-3.4.585-.36 1.182-.452 1.79-.28 1.425.538 1.743.924 1.852 1.12l.008.199c-.1.004-.095.104.01.2.1-.005.1-.005.195-.109 0 0 .095-.104-.014-.3-.154-.46-.807-.898-1.96-1.314-.678-.237-1.343-.173-1.994.19-1.267.757-1.995 2.39-2.237 3.703-.497 2.324-1.238 3.659-2.128 3.898-.69.231-1.412-.237-2.047-1.01-.07-.063-.138-.093-.204-.09-.064.07-.094.137-.091.204 0 0 .515 2.58 2.94 3.072.472.112.942.191 1.411.237Z"/>
  <path fill="#BB8553" d="M65.723 10.6c.24 5.394-1.998 11.3-9.486 11.734-9.083.605-9.883-3.863-10.028-9.362-.24-5.395 4.059-9.991 9.553-10.237 5.495-.245 9.716 2.37 9.96 7.864Z"/>
  <path fill="#050505" fill-rule="evenodd" d="M48.355 20.683c-1.878-1.717-2.207-4.606-2.345-7.703-.116-2.597.867-5.243 2.684-7.126 1.814-1.983 4.367-3.098 7.064-3.218 2.797-.125 5.226.467 6.987 1.79 1.965 1.414 2.957 3.471 3.078 6.169.093 2.098-.168 5.212-1.855 7.79-1.587 2.573-4.23 3.893-7.723 4.148l-1.198.054c-3.102.038-5.23-.567-6.692-1.904ZM62.654 4.63c-1.757-1.223-4.185-1.815-6.887-1.795-2.697.12-5.05 1.227-6.864 3.21-1.818 1.882-2.71 4.325-2.594 6.922.134 2.997.359 5.79 2.237 7.508 1.566 1.431 4.094 2.02 7.686 1.759 9.087-.506 9.407-9.028 9.287-11.726-.012-2.502-1.105-4.555-2.865-5.878Z" clip-rule="evenodd"/>
  <path fill="#050505" d="M62.161 7.054s1.787 8.63-2.366 12.018c-4.253 3.393-9.189 2.712-9.189 2.712S58.828 24.32 63.2 19.12c4.46-5.504 1.672-11.886 1.672-11.886l-2.71-.18Z" opacity=".1"/>
  <path fill="#DEDFDD" d="M54.977 14.282s.266 1.49 2.959 1.27c1.194-.154 1.949-1.189 1.518-1.87-.322-.486-4.477.6-4.477.6Zm-4.541-.799s-.537 1.426-2.162.897c-.508-.177-1.139-.85-.966-1.458.082-.404 3.128.561 3.128.561Z" style="mix-blend-mode:multiply"/>
  <path fill="#FEFEFE" d="M50.332 13.389s-.775-1.668-2.924-.47c0 0 .77 1.567 1.86 1.318 1.095-.149 1.064-.848 1.064-.848Zm4.54.798s.715-1.934 4.678-.61c0 0-.62 1.83-2.535 1.515-1.812-.22-2.143-.905-2.143-.905Z"/>
  <path fill="#8B5123" d="M50.032 13.402c-.182.409-.572.626-.976.544-.404-.082-.722-.468-.644-.972.182-.409.572-.626.976-.544.404.082.727.568.644.972Z"/>
  <path fill="#050505" d="M49.524 13.224c-.091.205-.186.309-.39.218-.1.004-.21-.191-.114-.295-.004-.1.19-.209.29-.213.105.095.21.19.214.29Z"/>
  <path fill="#FEFEFE" d="M48.92 13.151a.215.215 0 0 1-.19.209c-.105-.095-.21-.19-.114-.295 0 0 .095-.104.195-.109.1-.004.105.095.11.195Z"/>
  <path fill="#050505" d="m50.337 13.488-.005-.1c.067-.003.099-.038.096-.104-.493-.579-1.008-.89-1.543-.932-.709-.169-1.29.258-1.481.466l-.64-.872-.1.004c-.066.003-.098.038-.095.105l.74.867.1-.004c.1-.004.676-.53 1.48-.466.47.045.917.359 1.343.94l.105.096Z"/>
  <path fill="#050505" d="m47.7 12.704.1-.004-.005-.1-.527-.577c-.003-.067-.036-.065-.1.005l.005.1.526.576Z"/>
  <path fill="#8B5123" d="M56.661 13.907c.127.595.744.968 1.34.84.59-.226.967-.743.84-1.338-.612-.273-1.116-.35-2.015-.31a.778.778 0 0 0-.165.808Z"/>
  <path fill="#050505" d="M57.46 13.871c.01.2.214.29.414.282.1-.005.29-.213.182-.409-.01-.2-.213-.29-.413-.281-.196.108-.287.313-.182.408Z"/>
  <path fill="#FEFEFE" d="M56.761 13.902c.005.1.21.191.309.187.096-.105.19-.21.187-.309-.105-.095-.21-.19-.31-.186-.099.004-.19.208-.186.308Z"/>
  <path fill="#050505" d="M54.877 14.287c.066-.003.098-.038.095-.105 1.314-1.96 4.387-.396 4.387-.396.066-.002.098-.037.095-.104l.86-.94-.005-.1c-.07-.063-.136-.06-.2.01l-.76.934c-.412-.281-3.267-1.455-4.481.5-.064.07-.061.137.009.2Z"/>
  <path fill="#050505" d="m58.846 13.509.095-.105.477-.522c.064-.07.061-.136-.008-.2l-.1.005-.573.626.009.2.1-.004Z"/>
  <path fill="#080606" d="M53.348 18.159s-.633 1.53-1.532 1.57c-.903-.06-1.279-1.745-1.279-1.745.504.077 2.107.106 2.81.175Z"/>
  <path fill="#080606" fill-rule="evenodd" d="M51.82 19.828c-.903-.06-1.378-1.74-1.383-1.84-.07-.064-.07-.097-.004-.1-.003-.066.029-.101.095-.104.205.09.704.069 1.208.146.604.073 1.203.047 1.607.129l.105.095.004.1c-.095.104-.632 1.53-1.531 1.57l-.1.004Zm-.075-1.698c-.4.018-.8.036-1.103-.05.222.49.666 1.471 1.17 1.549.7-.032 1.159-.953 1.34-1.362-.4.018-.903-.06-1.407-.137Z" clip-rule="evenodd"/>
  <path fill="#050505" d="M52.855 16.078s-.178.509-.986.345c-.504-.078-.63-.673-.63-.673s.417.382.617.373c.503.078.998-.045.998-.045Z"/>
  <path fill="#8E4C21" d="M63.726 3.982S59.643-.04 52.113 1.697c-5.645 1.353-6.233 8.387-6.66 10.007 0 0 8.04.743 13.255-1.292 1.28-.458 3.334-1.55 4.107-2.185"/>
  <path fill="#141112" d="M49.466 11.925c2.802-.024 6.394-.285 9.346-1.418 1.181-.453 3.339-1.45 4.107-2.185l-.01-.2c-.103-.095-.203-.09-.199.01-.772.634-2.826 1.727-4.007 2.18-4.824 1.817-11.952 1.334-13.056 1.283a2.94 2.94 0 0 1 .07-.703c.492-2.425 1.55-7.877 6.4-9.095 3.865-.873 6.798-.203 8.632.516 1.834.719 2.882 1.773 2.882 1.773.104.096.204.091.2-.009.1-.004.095-.104-.01-.2 0 0-1.047-1.054-2.986-1.868-1.834-.72-4.766-1.389-8.727-.411-5.055 1.126-6.104 6.778-6.596 9.203a6.371 6.371 0 0 1-.16.908l.005.1.1-.005s1.711.224 4.01.121Z"/>
  <path fill="#8E4C21" d="M63.317 3.8s1.09-.25 2.42.392c1.839.819 1.813 4.724 1.598 6.636-.581 4.93-1.158 5.457 2.043 5.414 0 0-1.187 2.555-4.038 1.481-2.955-1.17-3.014-6.972-2.526-9.497"/>
  <path fill="#141112" d="M66.761 18.16c1.898-.084 2.722-1.823 2.722-1.823.063-.07.062-.103-.005-.1-.003-.066-.038-.098-.104-.095-1.1.049-1.803-.02-2.12-.406-.418-.382-.263-1.39-.039-3.101a18.34 18.34 0 0 1 .224-1.712c.155-1.008.536-5.93-1.606-6.835-1.43-.637-2.52-.388-2.52-.388-.1.004-.095.104-.095.104.004.1.008.2.104.096 0 0 1.094-.15 2.42.392 1.534.732 1.777 3.925 1.393 6.544a12.65 12.65 0 0 1-.22 1.812c-.219 1.812-.379 2.72.148 3.297.317.386 1.021.455 2.12.406-.373.617-1.51 2.069-3.747 1.268-2.851-1.074-3-6.673-2.522-9.397-.004-.1-.009-.2-.108-.195-.1.004-.1.004-.196.109-.146 1.207-.352 3.319.041 5.403.271 1.59.964 3.66 2.594 4.289a7.196 7.196 0 0 0 1.516.332Z"/>
  <path fill="#C9C9C8" d="M62.596 3.331c.535.777-.404-.082.19-.208.696-.131.336.785.336.785s-1.47-1.536-7.186-1.78c-5.117-.273-7.4 2.431-6.922 1.91.477-.522 2.65-3.422 8.593-2.586 5.943.836 4.989 1.88 4.989 1.88Z" style="mix-blend-mode:multiply"/>
  <path fill="#C2C2BE" d="M63.63 4.086s3.737.734 3.319 7.06c-.175 2.81.353 1.185.344.985-.005-.1 1.004-6.652-1.347-7.748-2.45-1.092-2.315-.297-2.315-.297Zm.034 9.708s0 4.505 5.037 2.979c.986-.345-1.24 1.356-2.053 1.092-.808-.164-2.893.23-2.984-4.07Z" style="mix-blend-mode:multiply"/>
  <path fill="#B4B4B3" d="M46.003 10.578s4.848.985 10.416.136c5.568-.85-4.056 1.082-9.368.918-2.203-.001-1.594.172-1.594.172l.546-1.226Z" style="mix-blend-mode:multiply"/>
  <path fill="#B4B4B3" d="M61.61 3.676c-.821-.464-2.038-.81-3.35-1.052-1.216-.346-4.609-.094-5.204.032-.495.123 5.004-.023 8.077 1.542 1.434.737 1.299-.058.477-.522Zm-.852 3.341s-5.27 3.038-9.074 3.008c-2.203-.002-1.807-.12-3.015-.266-1.212-.246-1.153-1.15.255-1.012 2.42.392 6.42.314 11.834-1.73Zm-.153-1.194s-4.62 1.907-7.925 1.855c-2.007-.11-1.608-.129-2.715-.28-1.008-.155-1.04-.854.268-.712 2.116.306 5.621.35 10.372-.863Zm-1.161-1.35s-3.665.864-6.367.885c-1.508-.133-1.308-.142-2.111-.206-.904-.06-.922-.46.086-.304 1.807.12 4.613.194 8.392-.375Zm4.526.498c-.108-.195 3.136 2.964 2.96 5.774-.07 2.906-.578 2.729-.578 2.729s.149 1.094-.054-1.2c-.202-2.292-.314-4.79-2.328-7.303Z" opacity=".3" style="mix-blend-mode:multiply"/>
  <path fill="#15132A" d="m4.123 54.589 36.022-.306c.266-.012.503.044.708.168l2.483 1.792c.308.186.24.89-.06.903l-36.122.31c-.2.01-.436-.047-.708-.168l-2.483-1.79c-.308-.187-.14-.896.16-.909Z" opacity=".2"/>
  <path fill="#9E5D41" d="m41.594 48.613 1.403.037c.1-.004.204.091.209.191l.052 7.906a.215.215 0 0 1-.19.209l-1.404-.038a.215.215 0 0 1-.209-.19l-.052-7.906a.215.215 0 0 1 .19-.209Z"/>
  <path fill="#552C23" d="m41.694 48.608-.1.005a.215.215 0 0 0-.191.209l.052 7.905c.005.1.11.195.21.19l.099-.004c.1-.004.2-.008.195-.108l-.157-8.001c.096-.105-.008-.2-.108-.196Z"/>
  <path fill="#9E5D41" d="m7.574 48.93 1.303.041c.1-.004.205.091.21.191l.151 7.901c.005.1-.09.205-.29.214l-1.299.057c-.1.005-.204-.09-.213-.29l-.148-7.801c-.009-.2.086-.305.286-.314Z"/>
  <path fill="#552C23" d="m7.574 48.93-.1.004a.215.215 0 0 0-.19.209l.156 8c.005.1.01.2.11.196l.199-.009c.1-.004.095-.104.09-.204l-.056-8.006a.215.215 0 0 0-.209-.19Z"/>
  <path fill="#9E5D41" d="m38.326 47.157 1.298-.058c.2-.009.205.09.21.19l.116 7.103a.215.215 0 0 1-.191.208l-1.399.063a.215.215 0 0 1-.208-.191l-.117-7.102c-.009-.2.09-.204.29-.213Z"/>
  <path fill="#552C23" d="m38.326 47.157-.1.004c-.1.005-.2.01-.196.11l.122 7.201c.004.1.108.195.208.19l.1-.004a.215.215 0 0 0 .191-.208l-.117-7.102a.215.215 0 0 0-.208-.191Z"/>
  <path fill="#9E5D41" d="m38.18 37.153 1.398-.062c.1-.004.204.091.213.29l.133 9.705c-.095.104-.19.208-.29.213l-1.3.058c-.2.008-.304-.087-.313-.287l-.032-9.708a.215.215 0 0 1 .19-.209Z"/>
  <path fill="#552C23" d="m38.28 37.149-.1.004a.215.215 0 0 0-.191.21l.037 9.807c.004.1.109.195.209.191l.1-.004a.215.215 0 0 0 .19-.21l-.037-9.807a.215.215 0 0 0-.209-.191Z"/>
  <path fill="#D1966F" d="M5.439 39.215c.328-1.616 3.076-2.84 6.477-2.892 1.3-.058 2.511.189 3.524.444.912.26 11.42.19 12.405-.154.99-.244 2.18-.497 3.483-.455 3.402-.052 6.257 1.122 6.528 2.712l-32.417.345Z"/>
  <path fill="#D1966F" d="M5.421 38.816c.328-1.617 3.077-2.84 6.478-2.892 1.298-.058 2.506.088 3.523.443.912.26 11.42.191 12.405-.153.986-.344 2.18-.498 3.484-.456 3.4-.051 6.256 1.122 6.527 2.712l-32.417.346Z"/>
  <path fill="#D1966F" d="m5.485 38.012 32.517-.35c.1-.004.304.087.313.286l-.06.904c.01.2-.086.304-.286.313l-32.517.35c-.2.009-.308-.186-.317-.386l-.036-.8c-.009-.2.186-.308.386-.317Z"/>
  <path fill="#CE7753" d="M5.548 39.41c.328-1.616 3.076-2.84 6.477-2.891 1.303.042 2.511.188 3.523.443 1.013.255 11.52.187 12.406-.153.99-.244 2.18-.498 3.483-.456 3.401-.052 6.256 1.122 6.527 2.712l-32.416.345Z"/>
  <path fill="#9E5D41" d="M5.63 39.006c.228-1.611 3.076-2.84 6.477-2.891 1.304.042 2.511.188 3.524.443.912.26 11.42.191 12.405-.153.99-.244 2.18-.498 3.483-.456 3.501-.056 6.257 1.123 6.628 2.708l-32.517.35Z"/>
  <path fill="#8F5042" d="M8.469 37.579c.69-.231 1.976-.59 3.679-.565 1.098-.05 2.206.102 3.219.357.136.06.305.12.508.177.1-.004.204.091.213.291.005.1-.19.209-.29.213l-7.207.022c-.2.009-.304-.087-.308-.187-.005-.1.09-.204.186-.308Zm19.312-.162c.197-.075.362-.116.495-.122.986-.344 2.08-.493 3.28-.547 1.702.025 2.918.37 3.627.54.104.095.208.19.213.29.009.2-.187.309-.29.213l-7.203.121c-.2.01-.304-.086-.308-.186-.01-.2.086-.304.186-.309Z"/>
  <path fill="#9E5D41" d="m5.594 38.207 32.317-.341c.2-.009.404.082.413.282l.003 2.302a.43.43 0 0 1-.382.417l-32.317.342c-.204-.091-.309-.187-.318-.387l-.002-2.302c-.01-.2.086-.304.286-.313Z"/>
  <path fill="#D1966F" d="m5.613 43.111 32.417-.345c.2-.01.308.186.313.286l.031.7c.009.2-.186.308-.386.317l-32.317.34c-.2.01-.309-.186-.313-.285l-.031-.7c-.01-.2.086-.304.286-.313Z"/>
  <path fill="#9E5D41" d="m5.626 43.41 32.417-.345c.2-.009.309.187.313.287l.018.4c.009.2-.187.308-.386.317l-32.317.34c-.2.01-.309-.185-.313-.285l-.018-.4c-.01-.2.086-.304.286-.313Z"/>
  <path fill="#9E5D41" d="m4.16 37.47 1.303.042c.2-.009.304.087.309.187l.033 9.708c.008.2-.087.304-.191.209l-1.399.062a.215.215 0 0 1-.209-.19l-.137-9.805c.096-.104.191-.208.291-.213Z"/>
  <path fill="#552C23" d="m4.26 37.466-.2.009c-.1.004-.095.104-.19.208l.136 9.804c.005.1.11.195.21.191l.099-.005a.215.215 0 0 0 .19-.208L4.37 37.66c-.005-.1-.01-.2-.11-.195Z"/>
  <path fill="#9E5D41" d="m4.206 47.478 1.399-.062c.1-.005.204.09.213.29l.117 7.102c.004.1-.091.205-.291.214l-1.303-.042a.215.215 0 0 1-.209-.191l-.117-7.102a.215.215 0 0 1 .191-.209Z"/>
  <path fill="#552C23" d="m4.306 47.474-.1.004a.215.215 0 0 0-.19.209l.116 7.102c.005.1.009.2.109.195l.2-.009c.1-.004.095-.104.09-.204l-.016-7.106a.215.215 0 0 0-.209-.191Z"/>
  <path fill="#15132A" d="m41.4 51.023.003-2.202a.215.215 0 0 1 .19-.208l1.304.041c.2-.009.304.087.308.187l-.006 2.102-1.798.08Zm-34.019.317-.093-2.098c-.01-.2.086-.304.286-.313l1.303.042c.1-.004.205.091.209.19l.094 2.099-1.799.08Zm30.714-.369-.06-3.6c-.005-.1.19-.21.29-.214l1.3-.058c.1-.004.204.091.212.29l.061 3.602-1.803-.02Zm-32.23.037a22.646 22.646 0 0 1-1.838-.819l-.012-2.502c-.004-.1.091-.204.29-.213l1.3-.058c.1-.005.208.19.213.29l.051 3.402-.004-.1Z" opacity=".2"/>
  <path fill="#C68457" d="m40.823 47.045 3.164 1.36c.304.087.417.382.43.682l.019.4a.683.683 0 0 1-.668.73l-36.622.333a1.774 1.774 0 0 1-.808-.164l-3.164-1.36c-.304-.087-.417-.382-.426-.582l-.018-.4a.684.684 0 0 1 .668-.73l36.517-.428c.333-.015.636.038.908.16Z"/>
  <path fill="#CE7753" d="m7.346 50.541 36.521-.328c.3-.014.587-.327.573-.627l-.018-.4c-.013-.299-.226-.59-.626-.572l-36.422.324c-.4.018-.686.331-.672.63l.018.4c.013.3.326.586.626.573Z"/>
  <path fill="#8F5042" d="m5.725 50.113-2.55-1.087c-.305-.087-.418-.382-.427-.582-.027-.6.46-.921.968-.744l2.55 1.087c.305.087.418.382.431.682.023.5-.459.921-.972.644Z"/>
  <path fill="#D1966F" d="m3.997 47.287 36.018-.406c.267-.012.503.044.708.169l2.547.987c.308.187.226.59-.073.604l-36.122.31a2.215 2.215 0 0 1-.704-.068L3.92 47.791c-.309-.186-.227-.59.077-.504Z"/>
  <path fill="#15132A" d="m3.16 48.726 3.16 1.26c.272.122.575.175.908.16l36.522-.329c.4-.017.686-.33.668-.73l.018.4a.684.684 0 0 1-.668.73l-36.622.333a1.775 1.775 0 0 1-.808-.164l-3.164-1.36c-.304-.087-.417-.382-.426-.582l-.018-.4c.013.3.122.495.43.682Z" opacity=".2"/>
  <path fill="#8F5042" d="m7.246 39.335 28.716-.28c.1-.005.295-.114.286-.314l-.017-.4a.215.215 0 0 0-.21-.19l-28.815.284a.215.215 0 0 0-.191.21l.018.399c.009.2.113.295.213.29Zm.058 1.299 28.716-.28c.1-.005.196-.11.187-.31l-.018-.399a.215.215 0 0 0-.209-.19l-28.716.28a.215.215 0 0 0-.19.208l-.083.404c.009.2.113.296.313.287Z"/>
  <path fill="#050505" fill-rule="evenodd" d="M40.935 27.121c-.05 1.104-1.019 1.848-2.022 1.792l-.2.01c.313.285.431.68.449 1.08-.069.704-.646 1.23-1.45 1.166-.215 1.911-1.047 3.45-2.91 4.334.904.06 1.6-.072 2.785-.425.295-.113.69-.23 1.067-.748.477-.522 1.06-.948 1.268-.757.413.282-.355 1.017-.229 1.612l.196-.11c.1-.004.3-.013.404.083.204.09.217.39.027.6l-.578.525-.19.21a1.596 1.596 0 0 1-.282.412 3.55 3.55 0 0 1-.886.34c-1.38.462-2.68.52-3.983.478.136.795.176 1.694.212 2.493.084.397.167.76.248 1.09a3.27 3.27 0 0 1-.064.804l.567 1.476a4.446 4.446 0 0 1-1.372.662c.126.595.466 1.48.688 1.97l.4-.017c.2-.009.013.3.018.4-.096.104-.087.304-.082.404l.1-.005-.096.105.1-.005.005.1c1.607.129 2.62.384 2.628.584.023.5-3.26.946-7.261 1.024-4.005-.021-7.224-.378-7.247-.877-.013-.3 1.476-.567 3.57-.76l.095-.105-.1.005.1-.005.096-.104-.005-.1-.1.004.1-.004c.091-.204-.013-.3-.017-.4-.01-.2-.218-.39-.018-.4l.5-.022c.186-.308.454-1.02.627-1.63a3.695 3.695 0 0 1-1.121-.45l.146-1.207c-.022-.5-.135-.795-.058-1.299l-.004-.1-.005-.1-.004-.1a.887.887 0 0 1 .082-.404l-.13-2.897c-.135-.06-.308-.186-.517-.377-.948-1.059-1.805-2.322-2.371-3.798a2.224 2.224 0 0 1-.331-.686c-.197.075-.364.083-.5.022l-.4.018c-.254 1.012-.523 1.725-1.014 1.947l-.927 1.643.035.8-.037 1.402 1.546 3.235c.003.066-.03.101-.096.104l-.195.109.004.1c.114.295.44.881.172 1.594-.073.604-.555 1.026-1.155 1.052l-.1.005a.887.887 0 0 1-.404-.082c.073.13.11.228.114.295l-.096.104c.005.1-.2.009-.699.031l-.999.045-.02 1.803c.003.066-.029.101-.095.104 1.312.242 2.12.406 2.129.606-.078.504-3.261.946-7.261 1.024-4.001.079-7.225-.378-7.242-.777-.014-.3.976-.545 2.666-.82l-.076-1.699-.5.023c-.495.122-.894.14-1.107-.15-.067.002-.102-.03-.105-.096.06-.137.117-.373.169-.709-.006-.133.02-.3.077-.504l-.008-.2.173-.608a1.93 1.93 0 0 1-.345-.985l-.109-.196-.013-.3-.009-.2-.007-2.401-2.769-1.478c-.066.003-.1-.029-.104-.096l-.004-.1.19-.208c-.066.003-.136-.06-.208-.191-.14-.127-.177-.226-.113-.295l-.01-.2-.1.004a.678.678 0 0 1-.508-.177 1.388 1.388 0 0 1-.249-1.09l-.004-.1c.173-.609.655-1.03 1.254-1.057.295-.114.7-.031.904.06.07.063.137.093.204.09-.53-.677-1.184-1.849-1.277-3.947l-.005-.1c-.413-.281-.422-.48-.422-.48.164-.809.332-1.55.502-2.225-.655 1.03-.824 1.738-.828 1.638a8.562 8.562 0 0 1 1.056-3.25c-.577.526-.963.843-.963.843 3.18-7.248 9.205-6.817 9.205-6.817 1.268.01 2.373.095 3.315.253-1.357-1.24-2.964-1.37-2.964-1.37s-.01-.2 1.707.125c.908.16 1.738.823 2.36 1.296.282-.413-.353-1.186-.353-1.186 1.825.52 2.373 1.596 2.504 2.291.178-.509 1.181-.453 1.181-.453-.481.422-.568.726-.455 1.021.342.185.652.405.93.66.469-.722 1.046-1.249 1.954-1.089l.1-.005-.022-.499c.155-1.008 1.018-1.847 2.126-1.696.2-.01.403.048.608.173.251-1.113 1.214-1.956 2.322-1.806.5-.022 1.013.255 1.33.642.755-1.035 2.031-1.593 3.439-1.455 1.407.137 2.646.983 3.095 2.064.263-.078.53-.09.8-.036 1.202.047 2.05 1.11 2.004 2.313l.005.1c1.012.255 1.76 1.323 1.71 2.426-.074.604-.351 1.117-.733 1.534.617.373.944.96.875 1.663ZM14.4 47.124l-.148-1.094-.3.013-.15 1.108c.199-.01.399-.018.598-.027Zm18.214-.112c-.118-.395-.471-1.58-.702-2.271l-.99.244-.123-.495-.5.023c-.268.712-.714 1.933-.891 2.442.066-.003.101.029.104.095l1-.044c.732-.033 1.433-.03 2.102.006Z" clip-rule="evenodd" opacity=".3"/>
  <path fill="#C02F2D" d="M20.472 41.847c.071 1.599-1.27 2.96-2.873 2.931l-7.505.035c-1.699.076-2.96-1.27-3.031-2.868l.003-4.404c-.071-1.599 1.27-2.96 2.873-2.931l7.501-.135c1.603.029 2.964 1.37 3.035 2.968l-.003 4.404Z"/>
  <path fill="#050505" fill-rule="evenodd" d="m17.604 44.879-7.502.134a3.185 3.185 0 0 1-3.14-3.063l.004-4.405c-.075-1.698 1.265-3.059 2.968-3.035l7.501-.134a3.185 3.185 0 0 1 3.14 3.063l-.004 4.404c.072 1.598-1.264 3.06-2.967 3.035Zm-7.661-10.17c-1.503-.032-2.844 1.329-2.777 2.827l-.004 4.405c.072 1.598 1.329 2.844 2.927 2.772l7.506-.034c1.498-.067 2.844-1.328 2.772-2.927l.008-4.305c-.071-1.598-1.328-2.843-2.93-2.872l-7.502.135Z" clip-rule="evenodd"/>
  <path fill="#050505" d="M9.201 47.255s.036.8-1.054 1.048l4.804-.014-.045-1c-.026-.599-.07-1.597-1.874-1.617-1.798.08-1.671.675-1.83 1.583Z"/>
  <path fill="#050505" fill-rule="evenodd" d="m12.96 48.49-4.804.013a.215.215 0 0 1-.209-.19.215.215 0 0 1 .19-.21c.791-.235.869-.739.864-.839l-.013-.3c.082-.403.164-.807.455-1.02.286-.314.781-.436 1.58-.471 2.003.01 2.056 1.209 2.079 1.708l.004.1.045 1a.215.215 0 0 1-.191.208Zm-3.923-.426 3.7-.066-.035-.799c-.009-.2-.022-.499-.235-.79-.215-.324-.689-.47-1.421-.437-.736-.034-1.199.053-1.39.262a3.386 3.386 0 0 0-.264.813l.013.3c.005.1-.082.404-.368.717Z" clip-rule="evenodd"/>
  <path fill="#2B6EB6" d="m13.836 43.445-.616 4.132-4.314-.208-.083-4.1c-.027-.6.002-2.203 2.713-2.023 2.41.192 2.373 1.596 2.3 2.2Z"/>
  <path fill="#050505" fill-rule="evenodd" d="m13.224 47.677-4.313-.208c-.067.003-.102-.03-.105-.096l-.083-4.1c-.018-.4.051-1.104.528-1.625.515-.424 1.275-.59 2.28-.502 2.615.283 2.482 1.79 2.405 2.295l-.617 4.131c.003.067-.028.102-.095.105Zm-4.223-.412 4.114.216.621-4.031c.078-.504.115-1.907-2.196-2.105-1.005-.088-1.698.076-2.08.494-.482.422-.555 1.026-.537 1.425l.079 4Z" clip-rule="evenodd"/>
  <path fill="#0A0C0F" d="M10.137 41.308c-1.285.358-1.336 1.461-1.314 1.96l.083 4.101 1.103.051.128-6.112Z" opacity=".3"/>
  <path fill="#050505" d="M18.206 47.154s.035.8 1.048 1.054l-4.804.015-.045-1c.078-.503.033-1.502 1.931-1.587 1.803.02 1.73.623 1.87 1.518Z"/>
  <path fill="#050505" fill-rule="evenodd" d="m19.263 48.409-4.805.014a.215.215 0 0 1-.208-.191l-.045-.999c.078-.504.12-1.807 2.122-1.796.8-.036 1.308.142 1.62.428.31.186.327.586.445.981a380.49 380.49 0 0 0 .018.4s.022.5.835.763c.1-.004.204.091.208.19a.215.215 0 0 1-.19.21Zm-4.623-.395 3.701-.065a.934.934 0 0 1-.33-.686c-.007-.133-.044-.231-.114-.295-.018-.4-.031-.699-.235-.79-.21-.19-.648-.305-1.317-.342-.733.033-1.225.222-1.476.567-.191.208-.173.608-.164.808l-.065.803Z" clip-rule="evenodd"/>
  <path fill="#2B6EB6" d="m13.436 43.463.783 4.07 4.29-.292.018-4.105c-.027-.6-.098-2.198-2.787-1.878-2.393.207-2.33 1.606-2.304 2.205Z"/>
  <path fill="#050505" fill-rule="evenodd" d="M14.223 47.632c-.067.002-.101-.03-.104-.096l-.783-4.07c-.022-.499-.193-2.093 2.4-2.308.996-.111 1.736.022 2.22.401.622.473.653 1.172.67 1.572l-.016 4.105c.003.066-.03.101-.096.104l-4.29.291Zm-.687-4.174.778 3.97 4.091-.283-.078-4c-.018-.4.055-1.004-.462-1.382-.417-.381-1.124-.517-2.12-.406-2.393.207-2.231 1.602-2.209 2.101Z" clip-rule="evenodd"/>
  <path fill="#0A0C0F" d="m17.144 41.295.267 5.994 1.099-.05.017-4.104c-.022-.5-.071-1.598-1.383-1.84Z" opacity=".3"/>
  <path fill="#AB795A" d="M5.842 34.793c-.308-.186-.921-.46-1.516-.332-.6.026-1.081.448-1.159.952-.173.608.258 1.29.658 1.272.2-.009.4-.018.604.073.2-.009.603.073.708.169.304.086 1.103.05 1.267-.757.26-.913-.562-1.377-.562-1.377Z"/>
  <path fill="#050505" fill-rule="evenodd" d="m3.072 35.517-.005-.1c.074-.603.655-1.03 1.155-1.052.694-.131 1.312.242 1.616.328 0 0 .926.56.67 1.572-.168.708-.963.844-1.467.766l-.104-.095c-.2.009-.404-.083-.504-.078l-.1.005a1.645 1.645 0 0 0-.504-.078.679.679 0 0 1-.508-.178 1.388 1.388 0 0 1-.25-1.09Zm3.228.557c.164-.808-.553-1.176-.553-1.176-.304-.087-.822-.464-1.417-.338-.5.023-.985.345-1.063.848-.082.405.036.8.245.99.004.1.208.191.308.187l.6-.027.004.1c.2-.009.404.082.504.078.07.064.138.094.204.09.3-.013 1.004.056 1.172-.652l-.004-.1Z" clip-rule="evenodd"/>
  <path fill="#AB795A" d="m5.223 36.623-.572.626a.637.637 0 0 1-.6.027c-.109-.196-.018-.4-.018-.4.091-.204.282-.413.282-.413"/>
  <path fill="#050505" d="m3.934 36.88-.005-.1c.091-.204.286-.313.282-.413.067-.002.101.03.104.096.067-.003.068.03.005.1 0 0-.091.204-.187.308 0 0-.09.205.014.3a.304.304 0 0 0 .4-.018l.676-.53c.064-.07.097-.071.1-.005.067-.003.068.03.005.1l-.573.626c-.29.213-.595.127-.704-.068-.139-.128-.178-.26-.117-.396Z"/>
  <path fill="#050505" d="M5.225 34.42s.431.681.067 1.498c-.364.818-.66.93-.66.93s.722.47 1.304.043c.477-.522.741-1.335.324-1.716a32.135 32.135 0 0 1-1.035-.755Z" opacity=".2" style="mix-blend-mode:multiply"/>
  <path fill="#F5F6F7" d="M9.93 38.915c-.932 1.543-2.167.798-2.167.798l-3.59-1.942 1.96-3.19 3.495 2.045s1.33.642.302 2.29Z"/>
  <path fill="#050505" fill-rule="evenodd" d="m4.073 37.775-.004-.1 1.96-3.19c-.003-.067.03-.069.1-.005l3.494 2.046c.105.096.513.277.74.868.154.46.044.999-.329 1.616-.309.548-.695.865-1.158.953-.595.126-1.108-.15-1.208-.147l-3.49-1.946-.105-.095Zm2.064-3.095L4.37 37.66l3.49 1.947s.413.282 1.008.155c.396-.084.716-.4.959-.944.309-.547.421-1.02.337-1.416a1.403 1.403 0 0 0-.63-.673l-3.396-2.05Z" clip-rule="evenodd"/>
  <path fill="#DFDFDF" d="m5.57 35.406 4.72 2.592a1.258 1.258 0 0 0-.662-1.372L6.133 34.58l-.564.826Z" style="mix-blend-mode:multiply"/>
  <path fill="#AB795A" d="M21.697 42.394c.113.295.34.885.167 1.494-.073.604-.56.925-1.055 1.048-.599.026-1.32-.442-1.238-.846.095-.104.086-.304.073-.604-.01-.2-.127-.595-.131-.695-.014-.3.05-1.103.85-1.139.894-.14 1.334.742 1.334.742Z"/>
  <path fill="#050505" fill-rule="evenodd" d="M20.714 45.04c-.4.018-.808-.164-1.021-.455a.679.679 0 0 1-.222-.49c.06-.137.086-.305.077-.504l-.004-.1c-.005-.1-.114-.296-.122-.495l-.01-.2c-.022-.5.147-1.208.942-1.343.999-.045 1.439.836 1.439.836.113.295.344.986.175 1.694-.077.504-.555 1.026-1.154 1.053l-.1.004Zm-.247-3.292-.1.004c-.7.031-.768.735-.755 1.035l.01.2c.108.195.117.395.122.495l.004.1c.009.2-.015.4-.073.603.004.1.109.196.113.296.209.19.617.372 1.017.355.495-.123.881-.44.959-.944.173-.608-.054-1.199-.167-1.494 0 0-.33-.686-1.13-.65Z" clip-rule="evenodd"/>
  <path fill="#AB795A" d="m19.808 42.679-.677.53c-.191.21-.182.409-.073.604.104.096.304.087.404.082l.39-.217"/>
  <path fill="#050505" d="M19.366 44c-.133.005-.27-.055-.408-.183-.105-.095-.122-.495.073-.603l-.005-.1.677-.531.2-.009c.003.067-.027.135-.09.204l-.578.526c-.195.11-.186.31-.082.404.104.096.304.087.304.087.1-.004.291-.213.291-.213l.2-.009c.003.067-.027.135-.091.204l-.39.218-.1.004Z"/>
  <path fill="#050505" d="M21.82 42.889a1.12 1.12 0 0 0-.123-.495s-.44-.881-1.334-.741c-.8.035-.864.839-.85 1.139l.004.1-.095.104.113.295s.09-.204.977-.544c.59-.226 1.098-.049 1.307.142Z" opacity=".2" style="mix-blend-mode:multiply"/>
  <path fill="#F5F6F7" d="M18.086 37.75c-1.667.775-1.005 2.147-1.005 2.147l1.468 3.739 3.334-1.55-1.668-3.73s-.362-1.386-2.129-.606Z"/>
  <path fill="#050505" fill-rule="evenodd" d="M18.553 43.735c-.066.003-.1-.029-.104-.095l-1.468-3.738c-.1.004-.326-.586-.053-1.2.115-.405.466-.754 1.054-1.047.657-.23 1.223-.255 1.698-.076.509.178.63.672.635.772l1.668 3.73c.07.063.071.097.005.1l-3.335 1.55-.1.004Zm-.462-5.885c-.524.224-.844.538-.96.944-.277.513.045.999.045.999l1.464 3.638 3.143-1.341-1.663-3.63s-.122-.495-.53-.677c-.41-.182-.909-.16-1.5.067Z" clip-rule="evenodd"/>
  <path fill="#DFDFDF" d="m21.002 42.525.881-.44-1.668-3.73s-.24-.89-1.239-.845l2.026 5.015Z" style="mix-blend-mode:multiply"/>
  <path fill="#F5F6F7" d="M19.081 37.606s1.116 7.057 1.242 7.652c.005.1-1.502-.033-2.697.12-1.59.272-3.174.642-4.677.61-.804-.065-1.912-.215-3.224-.457-1.208-.146-2.189.298-2.606-.084.168-.708.976-5.049.946-7.95-.013-.3.824-1.739 5.424-1.844 4.604-.005 5.479 1.658 5.592 1.953Z"/>
  <path fill="#050505" fill-rule="evenodd" d="m13.353 46.07-.4.017c-.604-.073-1.308-.142-2.116-.306a35.088 35.088 0 0 0-1.108-.15c-.603-.074-1.098.048-1.498.066-.5.023-.895.14-1.108-.15-.066.003-.101-.03-.104-.096.06-.136.117-.372.168-.708.229-1.612.785-4.84.778-7.242-.009-.2.273-.613 1.055-1.048.975-.577 2.463-.877 4.464-.9 1.934-.02 3.414.248 4.44.803.822.464 1.144.95 1.253 1.145l.004.1c.004.1 1.116 7.057 1.242 7.652l-.095.105-.7.03c-.499.023-1.303-.041-1.997.09-.13.072-.23.11-.296.113-1.29.258-2.68.52-3.982.478Zm-4.232-.613.6-.026 1.207.146c.808.164 1.512.233 2.016.31 1.403.038 2.893-.229 4.283-.491.13-.072.228-.11.295-.113.795-.136 1.598-.072 2.098-.094l.5-.022c-.14-.895-1.017-7.062-1.139-7.557-.653-1.172-2.582-1.786-5.484-1.757-2.402.007-3.687.364-4.369.795-.785.336-.963.844-.958.944.002 2.302-.554 5.53-.783 7.142-.052.336-.074.57-.068.704.104.095.503.077.903.06l.9-.04Z" clip-rule="evenodd"/>
  <path fill="#050505" d="M14.285 44.526c.004.1-.187.309-.291.213-.2.01-.304-.086-.313-.286-.005-.1.086-.304.29-.213.2-.009.305.087.314.286Zm.037-1.403c.005.1-.086.305-.286.314-.2.008-.309-.187-.313-.287-.01-.2.186-.308.286-.313.2-.009.304.086.313.286Zm-.062-1.398c.009.2-.086.304-.286.313-.2.009-.309-.187-.313-.287-.01-.2.186-.308.286-.313.2-.009.304.087.313.287Z"/>
  <path fill="#DFDFDF" d="M20.323 45.258c-.126-.595-1.242-7.652-1.242-7.652-.109-.195-.553-1.177-2.573-1.587l-.173.608s.812.264 1.22.446c.405.082.718.369.831.664.109.195.74 5.372 1.038 7.561l.9-.04Z" style="mix-blend-mode:multiply"/>
  <path fill="#FEFEFE" d="M13.348 45.97s.117-4.11.068-5.208Z"/>
  <path fill="#050505" d="M13.353 46.07c-.067.003-.102-.029-.105-.096 0 0 .117-4.109.068-5.208-.003-.066.029-.101.096-.104.066-.003.101.029.104.095.049 1.1.032 5.204-.068 5.209.003.066-.029.101-.095.104Z"/>
  <mask id="b" width="4" height="7" x="7" y="39" maskUnits="userSpaceOnUse" style="mask-type:luminance">
    <path fill="#fff" d="M8.011 39.651s-.338 2.738-.41 3.162c-.06.433-.4 2.45-.4 2.45l2.969-.532s.526-4.348.417-4.324c-.108.035-2.576-.755-2.576-.755Z"/>
  </mask>
  <g mask="url(#b)">
    <path fill="#050505" fill-rule="evenodd" d="M8.177 44.5c-.999.044-1.53-.633-1.574-1.632l-.049-1.1.095-.104 2.902-.029.104.096.05 1.098c.044 1-.629 1.63-1.528 1.67Zm-1.419-2.64.045.999c.049 1.099.666 1.471 1.365 1.44.7-.03 1.386-.362 1.337-1.46l-.045-1-2.702.02Z" clip-rule="evenodd"/>
    <path fill="#EC272B" d="m6.58 42.368 3.002-.034Z"/>
    <path fill="#050505" d="m9.587 42.434-3.002.034.091-.204 2.902-.03.009.2Z"/>
  </g>
  <mask id="c" width="5" height="7" x="16" y="39" maskUnits="userSpaceOnUse" style="mask-type:luminance">
    <path fill="#fff" d="M19.378 39.544s.41 2.695.48 3.122c.059.428.382 2.525.382 2.525l-2.886-.531s-.614-4.337-.503-4.312c.101.025 2.527-.804 2.527-.804Z"/>
  </mask>
  <g mask="url(#c)">
    <path fill="#050505" fill-rule="evenodd" d="M19.384 44.398c-1.003-.055-1.63-.627-1.574-1.63l-.05-1.1c-.002-.066.03-.101.096-.104l2.902-.03c.067-.002.101.03.104.096l.05 1.099c-.056 1.003-.629 1.63-1.528 1.67Zm-1.419-2.639.045 1c-.051 1.103.662 1.371 1.365 1.44.6-.027 1.281-.458 1.337-1.461l-.045-1-2.702.021Z" clip-rule="evenodd"/>
    <path fill="#EC272B" d="m20.889 42.23-3.002.034Z"/>
    <path fill="#050505" d="m20.893 42.33-3.001.033-.009-.2 3.002-.033.008.2Z"/>
  </g>
  <path fill="#DFDFDF" d="m13.416 40.762.04.899s.078-.504.469-.722c.39-.217 1.88-.484 1.88-.484l-.522-.477 1.199-.054s.18-2.71.261-3.115c-.018-.4-.526-.576-.526-.576l-.501 2.224-2.3 2.305Zm-.064.803.055-1.004-2.889-4.175-.382.417.425 2.784c-.095.105.504.078.504.078s-.087.304.018.4c.1-.005 1.947 1.014 2.269 1.5Z" style="mix-blend-mode:multiply"/>
  <path fill="#9FC8EA" d="m13.511 40.657-.204-.091-1.097-2.153-1.301-2.244s.69-.232 2.393-.207c1.798-.08 2.71.179 2.71.179l-1.2 2.256-1.3 2.26Z"/>
  <path fill="#DFDFDF" d="M13.256 41.67s-.141 1.307-.323 1.715c-.082.404.3-.013.213.291.013.3.002 2.302.002 2.302l.3-.013-.096-4.4-.096.104Zm-5.864 3.164s.082-.404.69-.23c.708.168 1.303.041 1.58-.472.278-.512-.093-2.097-.093-2.097s.076 1.698-.506 2.124c-.486.322-1.498.067-1.498.067l-.173.608Zm10.468-3.169s-.136 1.407.294 2.089c.427.581 1.126.55 1.126.55s-.786.335-1.412-.237c-.318-.387-.258-1.29-.258-1.29s.06-.904.25-1.112Z" style="mix-blend-mode:multiply"/>
  <path fill="#F5F6F7" d="m13.425 40.96-.023-.499-.97-1.558-1.732-2.925-.79.235.941 3.161 1.117.35-.29.214 1.747 1.023Z"/>
  <path fill="#050505" fill-rule="evenodd" d="m13.43 41.06-.1.005-1.648-1.027c-.067.002-.101-.03-.104-.096l.095-.104.095-.105-.912-.26c-.067.004-.101-.028-.104-.095l-.942-3.16c-.003-.067.029-.102.095-.105l.79-.236.1-.004 1.737 3.026.97 1.558.023.5c.003.066-.03.1-.096.104Zm-1.553-1.131 1.439.836-.013-.3-.966-1.458-1.633-2.93a2.937 2.937 0 0 1-.694.131l.937 3.061 1.017.356.1-.005.004.1-.19.209Z" clip-rule="evenodd"/>
  <path fill="#F5F6F7" d="M16.812 36.106a2.222 2.222 0 0 0-.713-.269l-1.764 3.082-.832 1.538.022.5 1.654-1.075-.309-.186 1.086-.349.856-3.241Z"/>
  <path fill="#050505" fill-rule="evenodd" d="m13.53 41.057-.1.005-.005-.1-.022-.5 2.596-4.62c-.003-.067.03-.102.096-.105.27.055.54.143.812.264l.005.1-.856 3.242.004.1-.99.244.104.096.105.095c.003.066-.03.101-.096.104l-1.653 1.075Zm.077-.504.009.2 1.363-.862-.209-.19-.004-.1.1-.005 1.085-.349.761-3.137a1.888 1.888 0 0 0-.604-.073l-2.5 4.516Z" clip-rule="evenodd"/>
  <path fill="#ED2D2F" d="M19.637 41.085c-2.929-.57-2.308-4.602-1.913-4.72 1.095-.149 1.339.841 1.339.841l.574 3.879Z"/>
  <path fill="#050505" fill-rule="evenodd" d="M19.641 41.184c-.878-.227-1.533-.698-1.965-1.413-.335-.786-.375-1.685-.393-2.085-.027-.599.141-1.307.337-1.416 1.29-.258 1.543.932 1.543.932l.573 3.878-.095.105Zm-1.912-4.719c-.096.104-.187.309-.264.813.013.3-.06.903.17 1.594.132.695.576 1.676 1.893 2.017l-.565-3.678s-.24-.89-1.234-.746Z" clip-rule="evenodd"/>
  <path fill="#DFDFDF" d="M17.474 37.478s-.051 1.103.475 1.68c.426.582.908.16.99-.244-.018-.4-.162-1.395-.466-1.481-.304-.087-.913-.26-.826-.564-.014-.3.277-.512.277-.512s1.108.15 1.235.745c.122.495.473 3.883.473 3.883s-.695.131-1.33-.641c-.63-.673-1.179-1.75-.828-2.866Z" style="mix-blend-mode:multiply"/>
  <path fill="#ED2D2F" d="M7.83 41.211c2.97-.733 2.193-4.702 1.893-4.689-1.212-.246-1.562.87-1.562.87l-.33 3.819Z"/>
  <path fill="#050505" fill-rule="evenodd" d="m7.835 41.31-.104-.095-.005-.1.33-3.818s.087-.304.377-.517c.191-.21.678-.531 1.286-.358.3-.014.435.781.457 1.28a4.82 4.82 0 0 1-.406 2.12c-.366.751-1.012 1.247-1.935 1.489Zm.425-3.922-.339 3.619c1.286-.358 1.745-1.28 1.91-2.088.168-.708.141-1.307.028-1.602-.018-.4-.131-.695-.131-.695-.472-.113-.869-.028-1.19.253-.191.209-.282.413-.278.513Z" clip-rule="evenodd"/>
  <path fill="#DFDFDF" d="M9.868 37.517s.153 1.194-.324 1.716c-.473.621-.89.24-1.008-.155-.018-.4.033-1.504.428-1.621.3-.014.795-.136.777-.535-.013-.3-.217-.391-.217-.391s-1.1.049-1.272.657c-.078.504-.426 3.923-.426 3.923s.704.069 1.272-.657c.668-.73 1.223-1.756.77-2.937Z" style="mix-blend-mode:multiply"/>
  <path fill="#050505" d="M22.061 30.366s1.087-2.551 1.103.05c.043 3.202-1.702 4.48-1.702 4.48l.6-4.53Zm-16.81.149s-1.11-2.453-1.099.05c.047 3.3 1.804 4.524 1.804 4.524l-.705-4.574Z"/>
  <path fill="#050505" d="m13.617 22.834-.1.005-.2.009c-4.4.096-8.176 2.967-8.113 8.87.063 1.399.938 3.061.938 3.061s3.638-1.463 7.439-1.533c3.805.03 7.773 1.455 7.773 1.455s.623-1.73.66-3.132c-.063-5.903-3.893-8.735-8.397-8.735Z"/>
  <path fill="#050505" fill-rule="evenodd" d="m6.055 35.084-.108-.196s-.875-1.662-.942-3.16c.001-1.469.21-2.78.625-3.933.419-1.086 1.011-2.013 1.778-2.782a7.318 7.318 0 0 1 2.726-1.723 8.855 8.855 0 0 1 2.974-.633l.2-.01s.034 0 .1-.004a75.07 75.07 0 0 0 .2-.009l.2-.009a8.979 8.979 0 0 1 3.028.566c1.086.419 2.012.978 2.778 1.678.768.766 1.377 1.707 1.827 2.821.45 1.115.708 2.404.774 3.87-.038 1.403-.662 3.132-.761 3.137l.008.2-.204-.091c-.1.004-3.963-1.325-7.668-1.36-3.7.065-7.34 1.529-7.44 1.533l-.095.105Zm-.55-3.38c-.047 1.204.61 2.476.728 2.871.79-.235 4.142-1.386 7.439-1.533 3.306.053 6.756 1.1 7.568 1.364.182-.409.624-1.73.575-2.828-.077-6.203-4.184-8.522-8.09-8.548l-.1.004-.1.005-.099.004c-3.896.174-7.998 2.46-7.922 8.662Z" clip-rule="evenodd"/>
  <path fill="#AB795A" d="m13.617 22.835-.1.004-.2.01c-4.4.095-8.176 2.967-8.112 8.87.056 3.5 1.941 7.62 8.435 7.33 6.511.11 8.326-4.075 8.375-7.48-.064-5.903-3.894-8.735-8.398-8.734Z"/>
  <path fill="#050505" fill-rule="evenodd" d="m13.949 39.236-.3.013c-2.902.03-5.24-.767-6.714-2.403a6.893 6.893 0 0 1-1.41-2.44 11.97 11.97 0 0 1-.42-2.683c.001-1.468.21-2.779.625-3.932a9.444 9.444 0 0 1 1.778-2.782 8.257 8.257 0 0 1 2.63-1.619 9.74 9.74 0 0 1 3.075-.638l.1-.004a75.07 75.07 0 0 0 .3-.013l.1-.005c1.135.016 2.177.203 3.128.561a7.025 7.025 0 0 1 2.677 1.683c.832.697 1.44 1.604 1.823 2.721.45 1.114.708 2.404.774 3.87a8.242 8.242 0 0 1-.484 2.623c-.288 1.014-.717 1.868-1.287 2.56-1.463 1.6-3.595 2.43-6.395 2.488Zm-.313-.286c.133-.006.234.023.304.086 2.8-.058 4.865-.884 6.195-2.478 1.432-1.566 1.742-3.582 1.68-4.98.019-6.308-4.289-8.618-8.194-8.644l-.1.005-.1.004-.1.005c-3.9.074-8.097 2.463-8.016 8.766.062 1.399.351 3.388 1.825 5.023 1.47 1.536 3.608 2.342 6.506 2.213Z" clip-rule="evenodd"/>
  <path fill="#DFDFDF" d="M14.92 22.877c-1.199.053-3.596.16-4.777.613-1.086.349-2.917 1.932-3.672 2.967-1.036 1.447-1.198 4.558-1.198 4.558s7.274 1.477 11.966-1.035c0 0 1.87 1.518 3.759 1.234 2.68-.52-1.475-6.14-1.475-6.14s-2.8-2.178-4.603-2.198Z" style="mix-blend-mode:multiply"/>
  <path fill="#DFDFDF" d="m18.826 27.407 1.663 3.63s.626 7.279-7.149 8.026l.3-.013c6.511.11 8.326-4.076 8.375-7.481-.098-2.198-.574-3.878-1.435-5.241-.986.344-1.754 1.079-1.754 1.079Z" style="mix-blend-mode:multiply"/>
  <path fill="#050505" fill-rule="evenodd" d="m13.949 39.236-.3.013c-2.902.03-5.24-.767-6.714-2.403a6.893 6.893 0 0 1-1.41-2.44 11.97 11.97 0 0 1-.42-2.683c.001-1.468.21-2.779.625-3.932a9.444 9.444 0 0 1 1.778-2.782 8.257 8.257 0 0 1 2.63-1.619 9.74 9.74 0 0 1 3.075-.638l.1-.004a75.07 75.07 0 0 0 .3-.013l.1-.005c1.135.016 2.177.203 3.128.561a7.025 7.025 0 0 1 2.677 1.683c.832.697 1.44 1.604 1.823 2.721.45 1.114.708 2.404.774 3.87a8.242 8.242 0 0 1-.484 2.623c-.288 1.014-.717 1.868-1.287 2.56-1.463 1.6-3.595 2.43-6.395 2.488Zm-.313-.286c.133-.006.234.023.304.086 2.8-.058 4.865-.884 6.195-2.478 1.432-1.566 1.742-3.582 1.68-4.98.019-6.308-4.289-8.618-8.194-8.644l-.1.005-.1.004-.1.005c-3.9.074-8.097 2.463-8.016 8.766.062 1.399.351 3.388 1.825 5.023 1.47 1.536 3.608 2.342 6.506 2.213Z" clip-rule="evenodd"/>
  <path fill="#050505" d="M6.16 23.968s-2.317 1.905-2.765 5.329c.009.2.255-1.013 1.4-2.265"/>
  <path fill="#050505" d="M12.697 20.173s-6.924-.392-9.071 9.814c0 0 .113.295.626.573.617.373 1.03.654 1.743.923-.236-.79-.198-2.193 1.815-4.185 0 0-1.995 2.391-1.311 4.263 6.678 1.603 10.41-2.267 10.41-2.267-.205-.09 1.274 1.645 3.78 1.733.41-2.02-.873-3.865-.873-3.865 1.17 1.55 1.45 3.34 1.273 3.848.504.077 1.607.128 2.298-.103 0 0 .703-11.143-10.69-10.734Z"/>
  <path fill="#050505" d="M17.146 21.175s5.213.168 6.189 6.33c0 0-1.437-3.038-6.189-6.33Zm-4.449-1.002s-6.025-.432-9.205 6.817c0 0 4.526-4.006 9.206-6.817Z"/>
  <path fill="#050505" d="M18.046 21.135s-1.675-1.627-3.29-1.955c-1.717-.324-1.708-.124-1.708-.124s2.207.101 3.803 2.232"/>
  <path fill="#050505" d="M20.519 22.727s-1.234-.746-.171-1.594c0 0-.908-.16-1.081.449-.131-.695-.68-1.772-2.505-2.291 0 0 1.052 1.154-.038 1.403"/>
  <path fill="#DFDFDF" d="M14.725 34.197s-.468.721-1.168.752c-.803-.064-1.343-.94-1.343-.94s.821.463 1.221.445c.4-.017 1.29-.257 1.29-.257Z" style="mix-blend-mode:multiply"/>
  <path fill="#050505" d="M13.44 34.554a.887.887 0 0 1-.405-.082l-.812-.264c-.067.003-.068-.03-.005-.1-.003-.066.03-.101.096-.104l.812.264c.205.091.504.078.604.073l.786-.335c.066-.003.135.027.204.09.003.067-.029.102-.095.105l-.786.336-.4.017Zm5.886-2.665c-.003-.067-.037-.099-.104-.096-.127-.595-.74-.868-1.33-.641-.13.072-.259.178-.386.317-.064.07-.13.073-.2.01l-.009-.2c.127-.14.29-.247.486-.323.69-.23 1.403.038 1.734.724.003.067-.029.101-.095.104.003.067-.03.102-.096.105Zm-11.81.027-.1.004-.005-.1c.269-.712.955-1.043 1.667-.775.137.061.276.188.418.382.07.064.071.097.004.1-.063.07-.097.071-.1.004a1.57 1.57 0 0 0-.413-.281c-.608-.174-1.198.053-1.371.661l-.1.005Zm.353 1.184c.022.5.235.791.535.778.3-.014.486-.322.468-.722-.018-.4-.235-.79-.535-.777-.3.014-.486.322-.468.722Z"/>
  <path fill="#FEFEFE" d="M8.66 32.865c.002.067-.028.135-.092.205-.07-.064-.105-.13-.108-.196-.003-.066.028-.101.095-.104.067-.003.101.029.104.095Z"/>
  <path fill="#050505" d="M18.876 33.01c.022.5-.164.809-.464.822-.3.013-.517-.377-.535-.777-.018-.4.264-.813.564-.826.204.091.517.377.435.782Z"/>
  <path fill="#FEFEFE" d="M18.667 32.82c.003.066-.029.1-.095.103-.067.003-.102-.028-.105-.095-.005-.133.025-.201.091-.204.067-.003.103.062.11.195Z"/>
  <path fill="#050505" d="M14.623 36.403c-.333.015-.736-.034-1.208-.146-.07-.064-.072-.13-.009-.2-.003-.067.03-.068.1-.005 1.014.289 1.91.182 2.689-.32.586-.326.967-.744.967-.744-.003-.066.03-.068.1-.004.067-.003.068.03.005.1 0 0-.278.513-.964.843-.39.218-.88.44-1.68.476Z"/>
  <path fill="#DFDFDF" d="M14.836 36.694s1.863-.884 2.276-.602l-.082.404s-1.685.375-2.08.493c-.3.014-.604-.073-.114-.295Z" style="mix-blend-mode:multiply"/>
  <path fill="#050505" d="M30.83 33.979s-1.112-.25-1.665-1.427c-.113-.295-.522-.477-.908-.16-.477.522-.415 1.92.706 2.371 1.122.45 2.276-.602 1.867-.784Z"/>
  <path fill="#050505" d="M28.473 34.985s-.826-.564-.862-1.363c0 0-.346 1.217.862 1.363Z" opacity=".2" style="mix-blend-mode:multiply"/>
  <path fill="#803531" stroke="#050505" stroke-linecap="round" stroke-linejoin="round" stroke-width=".4" d="M37.88 37.167c-1.676.576-3.379.552-4.995.223-1.612-.228-1.31-2.444.302-2.215 1.611.228 2.315.297 3.995-.179.296-.113 1.004.056 1.24.846.23.69-.147 1.208-.542 1.325Z"/>
  <path fill="#050505" d="M37.88 37.167c-1.676.576-3.379.552-4.995.223-1.612-.228-1.31-2.444.302-2.215.603.073.48 1.78 1.183 1.849.908.16 2.402-.007 3.392-.252.395-.117.682-.43.66-.93.23.69-.147 1.208-.542 1.325Z" opacity=".4"/>
  <path fill="#050505" d="M35.81 35.658s.118.395-.277.513c0 0 .309.187.227.59-.087.305-.391.218-.391.218s.309.187.318.386c0 0 .1-.004.608.173.504.078.595-.126.595-.126s.022.5.226.59l-.195.11-2.22-.402.397-2.32.713.268Z" opacity=".2" style="mix-blend-mode:multiply"/>
  <path fill="#803531" d="M37.182 34.997c.296-.113.69-.23 1.068-.748.477-.522.959-.944 1.268-.758.313.287-.455 1.022-.329 1.617.127.595.158 1.294-.428 1.62-.194.143-.456.254-.786.336"/>
  <path stroke="#050505" stroke-linecap="round" stroke-linejoin="round" stroke-width=".4" d="M37.182 34.997c.296-.113.69-.23 1.068-.748.477-.522.959-.944 1.268-.758.313.287-.455 1.022-.329 1.617.127.595.158 1.294-.428 1.62-.194.143-.456.254-.786.336"/>
  <path fill="#803531" d="M36.836 36.214c.227.59.64.872 1.135.75.395-.118.673-.63.546-1.225-.222-.49-.635-.773-1.13-.65-.395.117-.673.63-.55 1.125Zm2.311.197.187-.308.577-.527c.095-.104.082-.404-.022-.5-.21-.19-.404-.081-.504-.077l-.586.327"/>
  <path stroke="#050505" stroke-linecap="round" stroke-linejoin="round" stroke-width=".4" d="m39.147 36.411.187-.308.577-.527c.095-.104.082-.404-.022-.5-.21-.19-.404-.081-.504-.077l-.586.327"/>
  <path fill="#803531" stroke="#050505" stroke-linecap="round" stroke-linejoin="round" stroke-width=".4" d="M34.38 46.233s-.801-2.266-1.028-2.857c-.235-.79-.843-.963-1.334-.741-.495.122-.877.54-.537 1.425.235.79.924 2.762.924 2.762.358 1.285 2.529.588 1.976-.589Z"/>
  <path fill="#050505" d="M32.895 46.6c.327.586 1.43.637.84.863-.495.123-1.203-.046-1.33-.641 0 0-.689-1.971-.924-2.762-.34-.885.042-1.303.537-1.425.49-.222 1.099-.05 1.334.741.34.886-1.167.753-.94 1.344.008.2.266 1.49.483 1.88Z" opacity=".4"/>
  <path fill="#EE4763" stroke="#050505" stroke-linecap="round" stroke-linejoin="round" stroke-width=".4" d="m32.154 47.934.005.1 3.405.048c.067-.003.099-.038.096-.104l-.01-.2-3.405-.048-.1.004.01.2Zm1.632-1.574s.082-.404.282-.413l.699-.031c.2-.009.013.3-.082.404.004.1-.082.404.022.5l.322.486-.39.217-.831-.664-.022-.499Z"/>
  <path fill="#F69226" stroke="#050505" stroke-linecap="round" stroke-linejoin="round" stroke-width=".4" d="m32.245 47.73-.035-.8c-.01-.199.086-.303.286-.312.2-.01.408.182.8-.036.294-.113.39-.218.49-.222.195-.109.2-.009.208.19l.114.296.626.573.013.3-2.502.011Z"/>
  <path fill="#FEFEFE" stroke="#050505" stroke-linecap="round" stroke-linejoin="round" stroke-width=".4" d="M35.65 47.778c-.008-.2-.421-.482-.62-.473-.4.018-.583.426-.583.426l1.204.047Z"/>
  <path stroke="#050505" stroke-linecap="round" stroke-linejoin="round" stroke-width=".4" d="M33.913 46.955c.19-.209.69-.231.89-.24m-.582.426c.091-.204.49-.222.69-.23m-.481.421c.19-.21.49-.223.595-.127"/>
  <path fill="#EE4763" stroke="#050505" stroke-linecap="round" stroke-linejoin="round" stroke-width=".4" d="M33.213 46.986c.3-.013.404.082.608.173l.627.573-.5.022-.318-.386c-.069-.064-.204-.091-.404-.082a33.89 33.89 0 0 1-1.003-.056l-.009-.2 1-.044Z"/>
  <path fill="#803531" stroke="#050505" stroke-linecap="round" stroke-linejoin="round" stroke-width=".4" d="M27.166 46.054s.8-2.237 1.078-2.75c.264-.813.859-.94 1.367-.762.509.178.83.664.467 1.48-.264.813-.979 2.747-.979 2.747-.446 1.221-2.584.416-1.933-.715Z"/>
  <path fill="#050505" d="M28.586 46.491c-.372.618-1.476.567-.868.74.513.277 1.108.15 1.381-.462 0 0 .715-1.934.979-2.746.364-.818.042-1.304-.467-1.481-.508-.178-1.103-.051-1.367.761-.364.818 1.134.75.961 1.36-.09.203-.337 1.415-.619 1.828Z" opacity=".4"/>
  <path fill="#EE4763" stroke="#050505" stroke-linecap="round" stroke-linejoin="round" stroke-width=".4" d="m29.248 47.864.005.1-3.41-.148c-.067.003-.102-.03-.105-.096l-.004-.1c-.003-.066.028-.101.095-.104l3.41.148.01.2Zm-1.574-1.632s-.018-.4-.322-.486l-.6.027c-.2.009.01.2.018.4.005.1.018.399-.077.503l-.278.513.409.182.772-.635.078-.504Z"/>
  <path fill="#F69226" stroke="#050505" stroke-linecap="round" stroke-linejoin="round" stroke-width=".4" d="m29.24 47.664-.037-.8c-.008-.2-.08-.296-.213-.29-.2.009-.395.117-.803-.065-.309-.186-.313-.286-.513-.277-.204-.09-.2.009-.196.109l-.082.404-.677.53-.086.305 2.606.084Z"/>
  <path fill="#FEFEFE" stroke="#050505" stroke-linecap="round" stroke-linejoin="round" stroke-width=".4" d="M25.83 47.516c-.005-.1.381-.418.585-.327.4-.018.617.373.617.373l-1.203-.046Z"/>
  <path stroke="#050505" stroke-linecap="round" stroke-linejoin="round" stroke-width=".4" d="M27.496 46.74c-.108-.195-.612-.273-.808-.164m.617.374c-.208-.192-.608-.174-.708-.17m.418.382c-.11-.195-.513-.277-.609-.173"/>
  <path fill="#EE4763" stroke="#050505" stroke-linecap="round" stroke-linejoin="round" stroke-width=".4" d="M28.205 46.91c-.2.008-.4.017-.595.126l-.577.526.4-.018.385-.317c.064-.07.197-.075.4-.018l.999-.044-.009-.2s-.903-.06-1.003-.056Zm6.166-5.382.684 1.872c-1.072.648-2.766.824-4.446 1.3l-.267-1.49c-.34-.886.424-1.721 1.405-2.165.981-.444 2.184-.398 2.624.483Z"/>
  <path stroke="#A0C7E9" stroke-dasharray=".4 .4" stroke-linecap="round" stroke-linejoin="round" stroke-width=".4" d="M34.642 43.118s-.781.435-3.851 1.173"/>
  <path fill="#050505" d="M34.371 41.528c.24.89-1.292 2.46-1.782 2.682-.59.227-1.39.262-1.98.49l-.267-1.49c-.34-.886.424-1.721 1.405-2.165.981-.444 2.184-.398 2.624.483Z" opacity=".4"/>
  <path fill="#EE4763" stroke="#050505" stroke-linecap="round" stroke-linejoin="round" stroke-width=".4" d="m26.91 42.562-.247 1.213c1.217.346 2.928.57 4.627.494l.055-1.004c.06-.903-.88-1.762-1.987-1.913-1.104-.05-2.389.307-2.449 1.21Z"/>
  <path stroke="#A0C7E9" stroke-dasharray=".4 .4" stroke-linecap="round" stroke-linejoin="round" stroke-width=".4" d="M26.95 43.461s1.025.555 4.122.417"/>
  <path fill="#050505" d="m26.91 42.562-.247 1.213c.404.082.917.36 1.321.441-.058-1.299.08-2.706 1.374-2.864-1.104-.05-2.389.307-2.449 1.21Z" opacity=".4"/>
  <path fill="#F69226" stroke="#050505" stroke-linecap="round" stroke-linejoin="round" stroke-width=".4" d="M30.637 43.097c3.097-.138 3.443-1.355 3.603-2.263.128-1.607-.288-4.191-.532-5.181-.466-1.481-1.692-2.027-3.49-1.947-1.698.076-3.474.656-3.503 2.259.058 1.298.16 3.596.132 5.199.162 1.394.688 1.971 3.79 1.933Z"/>
  <path fill="#050505" d="M30.637 43.097c2.597-.116.685-4.836-1.027-5.06 0 0-.528 1.626-.705 2.134-.264.813-1.064.848-.904-.06.229-1.611 1.083-2.65.417-4.122-.666-1.472 3.598-2.363 1.8-2.283-1.698.076-3.474.656-3.503 2.259-.042 1.303.37 3.787.032 5.203.158 1.294.788 1.967 3.89 1.929Z" opacity=".4"/>
  <path fill="#803531" stroke="#050505" stroke-width=".4" d="M32.47 34.807c.352 1.185.093 2.098-.906 2.142-.9.04-2.038-.81-2.491-1.99-.454-1.182.046-1.204 1.045-1.249.9-.04 1.898-.084 2.351 1.097Z"/>
  <path fill="#EE4763" stroke="#050505" stroke-linecap="round" stroke-linejoin="round" stroke-width=".4" d="M33.82 38.15c-.154-1.194-.216-2.593-1.178-3.952l-.481.422c.757 1.268.815 2.566.964 3.66l.695-.13Z"/>
  <path fill="#EE4763" d="M34.448 41.025c-.153-1.194-.733-2.97-.733-2.97s-.79.235-1.69.275c-.898.04-2.206-.101-2.206-.101l-.87 2.941s-1.594.172-2.11-.206a4.301 4.301 0 0 0 .07 1.599c.331.685 2.842.874 4.14.816 1.899-.085 3.688-.365 3.4-2.354Z"/>
  <path fill="#050505" d="M28.15 41.206s-.903-.06-1.312-.242a4.306 4.306 0 0 0 .071 1.598c.11.196.518.378 1.126.55-.222-.49-.071-1.598.115-1.906Z" opacity=".4"/>
  <path stroke="#050505" stroke-linecap="round" stroke-linejoin="round" stroke-width=".4" d="M26.91 42.562c-.023-.5-.15-1.094-.072-1.598.517.378 2.111.206 2.111.206l.87-2.942s1.308.142 2.207.102c.899-.04 1.69-.275 1.69-.275s.579 1.776.732 2.97c.29 1.989-1.5 2.269-3.398 2.354"/>
  <path fill="#EE4763" stroke="#050505" stroke-linecap="round" stroke-linejoin="round" stroke-width=".4" d="M30.319 38.206c-.058-1.298-.92-2.661-2.086-4.11l-.672.63c1.057 1.254 1.91 2.417 1.963 3.616l.795-.136Z"/>
  <path fill="#6ECFF5" stroke="#050505" stroke-linecap="round" stroke-linejoin="round" stroke-width=".4" d="M29.324 38.35c.013.3.227.59.626.573.3-.013.486-.322.473-.622-.013-.3-.226-.59-.526-.577-.3.014-.586.327-.573.627Z"/>
  <path fill="#050505" d="M29.542 38.74c.208.192.508.178.799-.035 0 0-.395.118-.708-.168-.209-.191-.127-.595-.127-.595a.468.468 0 0 0 .036.799Z" opacity=".4"/>
  <path fill="#6ECFF5" stroke="#050505" stroke-linecap="round" stroke-linejoin="round" stroke-width=".4" d="M33.125 38.28c.113.296.322.487.521.478.296-.114.387-.318.369-.717-.114-.296-.322-.486-.617-.373-.2.009-.287.313-.273.613Z"/>
  <path fill="#050505" d="M33.342 38.672c.21.191.504.078.595-.127 0 0-.295.114-.504-.077-.208-.19-.226-.59-.226-.59-.191.208-.073.603.135.794Z" opacity=".4"/>
  <path stroke="#A0C7E9" stroke-linecap="round" stroke-linejoin="round" stroke-width=".4" d="m29.658 41.338-.1.005-.01-.2"/>
  <path stroke="#A0C7E9" stroke-dasharray=".4 .4" stroke-linecap="round" stroke-linejoin="round" stroke-width=".4" d="m29.735 40.835.342-1.317"/>
  <path stroke="#A0C7E9" stroke-linecap="round" stroke-linejoin="round" stroke-width=".4" d="m30.168 39.314-.005-.1.2-.009"/>
  <path stroke="#A0C7E9" stroke-dasharray=".4 .4" stroke-linecap="round" stroke-linejoin="round" stroke-width=".4" d="m30.663 39.191 1.199-.053 1.498-.067"/>
  <path stroke="#A0C7E9" stroke-linecap="round" stroke-linejoin="round" stroke-width=".4" d="m33.46 39.067.2-.009.005.1"/>
  <path stroke="#A0C7E9" stroke-dasharray=".4 .4" stroke-linecap="round" stroke-linejoin="round" stroke-width=".4" d="m33.782 39.553.358 1.285"/>
  <path stroke="#A0C7E9" stroke-linecap="round" stroke-linejoin="round" stroke-width=".4" d="m34.144 40.938.01.2-.1.004"/>
  <path stroke="#A0C7E9" stroke-dasharray=".4 .4" stroke-linecap="round" stroke-linejoin="round" stroke-width=".4" d="m33.758 41.255-1.767.78-2.13-.606"/>
  <path fill="#050505" d="M27.166 34.843c2.345 3.199 6.969 1.39 6.216.223-1.193-2.049-6.856-1.095-6.216-.223Z" opacity=".4"/>
  <path fill="#050505" d="M31.994 33.126s-1.099.049-1.843-.919c-.213-.29-.712-.268-.899.04-.373.618.085 1.898 1.193 2.05 1.112.25 1.953-1.089 1.549-1.171Z"/>
  <path fill="#050505" d="M30.058 34.614s-.912-.26-1.143-.95c0 0-.051 1.103 1.143.95Z" opacity=".2" style="mix-blend-mode:multiply"/>
  <path fill="#803531" stroke="#050505" stroke-width=".4" d="M23.828 29.587c.27 3.791 2.996 6.573 7.292 6.38 5.499-.144 6.368-3.086 6.385-7.19.035-3.706-3.495-6.552-7.192-6.387-3.791.27-6.65 3.5-6.485 7.197Z"/>
  <path fill="#050505" d="M30.314 22.39c3.696-.165 7.226 2.68 7.191 6.386l.032.7c-.387.317-2.12-.406-1.766-1.423-.663.83-2.089.293-2.72-.38-.554 1.026-1.762.88-2.075.594.318.386-.723 1.734-1.845 1.283.958 1.259-.778 2.738-1.191 2.456-.655 1.03-.197 2.31.329 2.888.63.672 2.047 1.01 2.75 1.078l-.2.01c-4.104-.018-6.726-2.703-6.991-6.395-.165-3.697 2.694-6.927 6.486-7.197Z" opacity=".2" style="mix-blend-mode:multiply"/>
  <path fill="#FEFEFE" d="M35.623 31.462s.31-2.016 1.445-1.265c0 0-.042 1.303-.832 1.538-.395.118-.613-.273-.613-.273Zm-2.211-.202s-.285-1.889-2.864-1.373c0 0-.033 1.503 1.279 1.744 1.212.247 1.585-.37 1.585-.37Z"/>
  <path fill="#050505" d="M35.364 32.375s-.091.205-.59.227c-.5.022-.913-.26-.913-.26s.022.5.43.682c.409.182.895-.14 1.073-.649Z" opacity=".2" style="mix-blend-mode:multiply"/>
  <path fill="#050505" d="M33.756 32.247s.127.595.926.559c.6-.027.777-.535.777-.535s-.29.213-.695.131c-.5.022-1.008-.155-1.008-.155Zm-8.582.583-2.736-2.981.117-4.11 4.173-5.19s5.29-.337 5.39-.341c.1-.005 4.649.994 4.653 1.094.005.1 1.937 3.016 1.937 3.016l.025 2.802-1.476.566-2.41-2.395-8.149 3.567-1.524 3.972Z"/>
  <path fill="#050505" d="M26.168 32.685c-.064.804-.741 1.335-1.445 1.266-.703-.069-1.234-.746-1.166-1.45.07-.703.646-1.23 1.45-1.165.704.069 1.23.646 1.161 1.35Z"/>
  <path fill="#050505" d="M26.697 31.06c-.074.604-.655 1.03-1.255 1.057-.604-.073-1.13-.65-1.057-1.254.07-.703.65-1.13 1.255-1.057.599-.027 1.125.55 1.056 1.254Zm3.423-10.763c-.046 1.203-1.11 2.051-2.313 2.005-1.203-.046-2.051-1.11-1.905-2.317.046-1.203 1.11-2.052 2.317-1.905 1.104.05 2.052 1.11 1.901 2.217Zm8.33 7.235c-.072.604-.65 1.13-1.253 1.057-.604-.073-1.126-.55-1.057-1.254.073-.603.65-1.13 1.254-1.056.604.073 1.13.65 1.057 1.253Zm-7.914-.147c-.068.704-.645 1.23-1.35 1.162-.703-.07-1.23-.646-1.16-1.35.068-.704.645-1.23 1.349-1.161.7-.032 1.23.645 1.161 1.35Z"/>
  <path fill="#050505" d="M33.171 25.866c-.155 1.008-.927 1.643-1.831 1.583-.904-.06-1.643-.927-1.583-1.83.06-.904.927-1.644 1.835-1.484.904.06 1.639.828 1.58 1.731Zm4.325 2.71c.704.069 1.23.646 1.162 1.35.031.699-.646 1.23-1.345 1.26 0 0 .15-1.107.183-2.61Zm1.187-7.06c-.15 1.108-1.114 1.952-2.318 1.905-1.207-.146-2.051-1.11-1.905-2.317.051-1.103 1.114-1.951 2.218-1.9 1.208.146 2.051 1.109 2.005 2.312Zm-13.581 9.715c-.05 1.103-1.018 1.847-2.022 1.792-1.008-.155-1.847-1.018-1.692-2.026.051-1.104.919-1.843 2.022-1.793 1.008.156 1.748 1.024 1.692 2.027Zm3.59-2.561c-.155 1.007-1.019 1.846-2.027 1.691-1.103-.05-1.842-.919-1.791-2.022.055-1.003 1.023-1.747 2.026-1.692 1.004.055 1.847 1.019 1.792 2.022Zm-1.715-7.032c-.151 1.108-1.019 1.847-2.023 1.792-1.107-.151-1.847-1.019-1.791-2.022.15-1.108 1.018-1.848 2.022-1.792 1.108.15 1.847 1.018 1.792 2.022Z"/>
  <path fill="#050505" d="M40.44 27.244c-.055 1.003-.923 1.742-2.027 1.692-1.003-.056-1.747-1.024-1.692-2.027.056-1.003 1.019-1.847 2.027-1.692 1.003.055 1.843.919 1.692 2.027Zm-16.08.818c-.141 1.307-1.2 2.255-2.508 2.113-1.307-.141-2.256-1.2-2.114-2.508.042-1.303 1.2-2.256 2.509-2.114 1.303.042 2.255 1.2 2.113 2.509Z"/>
  <path fill="#050505" d="M37.254 25.384c-.142 1.307-1.2 2.256-2.508 2.114-1.303-.042-2.256-1.2-2.114-2.508.046-1.204 1.2-2.256 2.508-2.114 1.208.146 2.256 1.2 2.114 2.508Z"/>
  <path fill="#050505" d="M40.297 24.047c-.042 1.303-1.2 2.256-2.508 2.114-1.308-.142-2.256-1.2-2.114-2.509.042-1.303 1.2-2.255 2.508-2.113 1.303.041 2.256 1.2 2.114 2.508Zm-4.152-3.318c-.124 1.707-1.869 2.986-3.876 2.875-2.01-.21-3.48-1.746-3.357-3.453.12-1.807 1.864-3.087 3.876-2.876 2.007.11 3.577 1.642 3.357 3.454Zm-11.059 3.396c-.047 1.203-1.105 2.151-2.309 2.105-1.307-.142-2.156-1.205-2.11-2.409.147-1.207 1.206-2.155 2.414-2.009 1.203.046 2.151 1.105 2.005 2.313Z"/>
  <path stroke="#38170E" stroke-linecap="round" stroke-linejoin="round" stroke-width=".4" d="M24.372 30.563c.313.286.808.164 1.194-.153.282-.413.16-.908-.153-1.195-.413-.282-.913-.26-1.194.154m.358-5.421a1.617 1.617 0 0 0-1.66-1.327c-.795.135-1.363.861-1.228 1.656m10.703-.177c-.34-.886-1.366-1.441-2.252-1.101-.89.24-1.445 1.266-1.205 2.156m-1.587-1.932a.896.896 0 0 0-.94-.859c-.495.122-.876.54-.854 1.04m14.122 4.674c.364-.816.025-1.702-.793-2.066m-13.667-5.696c-.695.13-1.172.652-1.141 1.352m11.096 1.907c-.058-1.299-1.101-2.253-2.4-2.195m-6.033 8.377c.7-.031 1.277-.558 1.245-1.257m8.887-.496a.77.77 0 0 0 1.004.055c.286-.313.264-.812.05-1.103m-11.865 1.029c.894-.14 1.562-.87 1.522-1.769-.14-.895-.87-1.563-1.765-1.423-.899.04-1.467.766-1.427 1.665m-.327 6.122c-.082.404.135.794.54.876.408.182.794-.135.876-.54m-2.74-3.081c-.686.331-.95 1.144-.62 1.83.332.686 1.144.95 1.83.619M37.68 21.461a1.068 1.068 0 0 0-.667-1.472c-.209-.19-.608-.173-.803-.064m-8.203 2.368c.903.06 1.776-.58 1.836-1.483.06-.904-.576-1.676-1.484-1.836-.903-.06-1.676.575-1.835 1.483m3.546-1.259a3.172 3.172 0 0 1 2.159-.997c1.693-.175 3.046.965 3.113 2.464m-6.078 7.378c.5-.022.882-.44.755-1.035a.896.896 0 0 0-.94-.859c-.494.122-.876.54-.854 1.04m9.66 3.371c.387-.317.46-.92.142-1.307m.14-3.609c1.099-.05 1.858-.984 1.713-1.978-.044-1-.98-1.759-1.978-1.714a1.973 1.973 0 0 0-1.71 2.078m-2.702.02c-.668.73-.514 1.925.316 2.588.826.564 2.02.41 2.684-.42m-13.2.289c-.822-.464-1.816-.32-2.384.407-.464.821-.32 1.816.406 2.384"/>
  <path fill="#855226" d="M36.604 31.018c-.082.404-.373.617-.577.526-.204-.09-.317-.386-.135-.794.082-.404.368-.718.572-.627.205.091.322.487.14.895Z"/>
  <path fill="#050505" d="M36.3 30.932a.215.215 0 0 1-.19.209c-.1.004-.205-.091-.21-.191-.008-.2.087-.305.187-.309.2-.009.204.091.213.29Z"/>
  <path fill="#FEFEFE" d="m36.482 30.523.009.2c-.067.003-.103-.062-.109-.195-.003-.067.029-.102.096-.105.066-.003.068.03.004.1Z"/>
  <path fill="#855226" d="M30.974 30.469c-.082.404.24.89.64.872.404.082.79-.235.872-.64.078-.503-.24-.89-.644-.971-.4.017-.79.235-.868.739Z"/>
  <path fill="#050505" d="M31.478 30.546c.005.1.113.295.213.29.2-.008.296-.112.291-.212-.009-.2-.113-.296-.213-.291-.1.004-.295.113-.29.213Z"/>
  <path fill="#FEFEFE" d="M31.969 30.324c.004.1.004.1.104.096.1-.005.2-.01.196-.11-.005-.099-.11-.194-.11-.194a.215.215 0 0 0-.19.208Z"/>
  <path stroke="#050505" stroke-linecap="round" stroke-linejoin="round" stroke-width=".4" d="m37.332 29.384-.264.813s-1.125-.55-1.445 1.265"/>
  <path stroke="#050505" stroke-linecap="round" stroke-linejoin="bevel" stroke-width=".4" d="m36.937 29.502-.173.608"/>
  <path stroke="#050505" stroke-linecap="round" stroke-linejoin="round" stroke-width=".4" d="m30.013 29.11.53.677s2.489-.311 2.869 1.474"/>
  <path stroke="#050505" stroke-linecap="round" stroke-linejoin="bevel" stroke-width=".4" d="m30.712 29.08.33.685"/>
  <path stroke="#050505" stroke-linecap="round" stroke-width=".4" d="M36.107 28.839s.672-.63 1.008.155m-3.819-.331s-.844-.963-2.007-.11"/>
  <path stroke="#050505" stroke-linecap="round" stroke-linejoin="bevel" stroke-width=".4" d="M33.537 34.058s-1.19.254-2.316-.297"/>
  <path fill="#803531" stroke="#050505" stroke-linecap="round" stroke-linejoin="round" stroke-width=".4" d="M23.775 32.892c.485 1.88 1.446 3.239 2.503 4.493 1.157 1.25 2.888-.33 1.731-1.579-1.052-1.154-1.479-1.735-1.954-3.416-.113-.295-.64-.872-1.43-.637-.79.236-.963.844-.85 1.14Z"/>
  <path fill="#050505" d="M23.775 32.892c.485 1.88 1.446 3.239 2.503 4.493 1.157 1.25 2.888-.329 1.731-1.579-.422-.481-1.676.576-2.198.098-.635-.772-1.296-2.144-1.64-3.13-.114-.295-.032-.699.454-1.02-.79.235-.963.843-.85 1.138Z" opacity=".4"/>
  <path fill="#050505" d="M26.222 33.883s-.495.123-.378.518c0 0-.304-.087-.495.122-.286.313-.077.504-.077.504s-.309-.187-.404-.082c0 0-.105-.096-.518-.377-.417-.382-.326-.586-.326-.586s-.29.213-.595.126l.009.2 1.574 1.631 1.732-1.578-.522-.477Z" opacity=".2" style="mix-blend-mode:multiply"/>
  <path fill="#803531" stroke="#050505" stroke-linecap="round" stroke-width=".4" d="M23.8 31.19c-.478.521-.438 1.42.08 1.798.521.477 1.316.341 1.789-.28.477-.522.437-1.421-.08-1.799-.522-.477-1.317-.341-1.79.28Z"/>
  <path fill="#803531" stroke="#050505" stroke-linecap="round" stroke-width=".4" d="M25.62 31.609c-.2.008-.395.117-.382.417.009.2.213.291.413.282l.4-.018c.2-.009.395-.117.386-.317a.43.43 0 0 0-.418-.382l-.4.018Z"/>
  <path fill="#050505" d="M23.722 31.693s-.073.604.444.982c.513.277.99-.245.99-.245s-.213-.29-.022-.5c0 0 .022.5.617.374l.018.4s-.755 1.034-1.68.474c-.93-.659-.563-1.376-.367-1.485Z" opacity=".2" style="mix-blend-mode:multiply"/>
</svg>
