<svg xmlns="http://www.w3.org/2000/svg" width="63" height="28" fill="none" viewBox="0 0 63 28">
  <path fill="#DD4297" d="M62.9 21.1 9.6 26.3l-.5-4.7 53.2-4.9.6 4.4ZM54 12.8l-52.6 5-.6-4.4 52.9-5 .3 4.4Z"/>
  <path fill="#FEFEFE" fill-rule="evenodd" d="M18.6 1.9c.9-.1 2-.1 1.8 2.8-.2 2.7-1.1 2.9-2.5 3l-.5.1.4-5.9h.8Zm-.1.7-.3 4.5c1.2-.1 1.2-1.3 1.3-2.2.1-.9.3-2.5-1-2.3Z" clip-rule="evenodd"/>
  <path fill="#FEFEFE" d="M21.5 7.4h-.7l.3-5.8h.8l-.4 5.8Zm0-6-.4-.2.7-1.2.5.2-.8 1.2Z"/>
  <path fill="#FEFEFE" fill-rule="evenodd" d="m24.1 1.4.8 5.7h-.8L24 6l-1.1.1-.3 1.2-.8.1 1.7-6h.6Zm-.3 3.3-.1-2.1-.7 3 .9-.1-.1-.8Zm4-3.7c.9 0 1.9-.1 1.7 2.9-.1 2.6-1 2.9-2.4 3h-.5l.4-5.8.8-.1Zm-.2.7-.3 4.5c1.3-.1 1.3-1.3 1.4-2.3 0-.9.2-2.4-1.1-2.2Z" clip-rule="evenodd"/>
  <path fill="#FEFEFE" d="m32.4.6-.1.7-1.3.1-.1 1.8 1.1-.1v.7l-1.1.1-.2 2 1.3-.1v.6l-2.1.2.4-5.8 2.1-.2Zm2.5-.2-.4 5.1 1.3-.1v.7l-2.1.2.4-5.8.8-.1Z"/>
  <path fill="#FEFEFE" fill-rule="evenodd" d="m37.9.1.8 5.7-.8.1-.1-1.1-1.1.1-.3 1.1-.8.1L37.3.2l.6-.1Zm-.3 3.2-.1-2.1-.7 3 .9-.1-.1-.8Z" clip-rule="evenodd"/>
  <path fill="#FEFEFE" d="m.7 21.8.5 2.5.2-.7.6-1.9.7-.1-1.2 3.2-.1 2.4H.7l.1-2.3-.8-3 .7-.1Zm5.5-.5-.1.6-1.2.2-.1 1.7 1.1-.1v.6l-1.1.1-.1 1.8 1.2-.1-.1.7-1.9.1.4-5.4 1.9-.2Zm1.1-.1L7 26l1.1-.1v.6l-1.9.2.4-5.4.7-.1Zm-.2-3.9-.6.1-1.2-2-.1 2.9-2.2.2.4-7.1 2-.2L7 13.8l1.9-2.9 1.9-.2-.3 7.1-2.1.2.1-2.9-1.4 2.2Z"/>
  <path fill="#FEFEFE" fill-rule="evenodd" d="m16.2 10.2 2.3 6.9-2.3.2-.2-.7-2.3.2-.3.8-2.3.2 3-7.4 2.1-.2Zm-1.8 4.6 1-.1-.5-1.5-.5 1.6Z" clip-rule="evenodd"/>
  <path fill="#FEFEFE" d="m21.5 11.8-.1.6 2.8-.2-.1 1.8-2.8.3v.6l3-.3-.1 2-5.1.5.3-7.2 5.2-.4-.1 2-3 .3Zm4.9 2c.533.466 1.1.667 1.7.6.4 0 .6-.133.6-.4 0-.067-.1-.133-.3-.2a7.095 7.095 0 0 1-.9-.3 3.573 3.573 0 0 1-.9-.3 4.65 4.65 0 0 1-.9-.7c-.2-.267-.3-.633-.3-1.1.067-.4.267-.867.6-1.4.4-.5 1.2-.9 2.2-1 .7 0 1.4.1 1.8.4.4.2.8.5.9.7l.1.2-1.5 1.2c-.2-.267-.4-.433-.6-.5-.2-.067-.467-.067-.8 0-.3 0-.5.2-.5.3 0 .2.4.4.8.5.267 0 .533.067.8.2.333.133.6.267.8.4.267.133.467.333.6.6.2.267.267.567.2.9 0 .5-.2 1-.6 1.5-.5.5-1.3.9-2.3 1-.8.067-1.433-.067-1.9-.4-.533-.267-.9-.6-1.1-1l1.5-1.2Zm7-3.1-1.9.1.1-2 6-.5-.1 2-2 .2-.2 5.1-2.1.2.2-5.1Z"/>
  <path fill="#FEFEFE" fill-rule="evenodd" d="m44.4 14.8-2.6.2-1.4-1.7-.2.1v1.8l-2.1.1.3-7.1 2.9-.2c.1-.1.2-.1.5 0 .4 0 .8.1 1.2.3.4.2.7.5.9 1.1.067.267.1.6.1 1-.067 1-.5 1.767-1.3 2.3l1.7 2.1Zm-4-4.8v1.4l.8-.1c.4-.067.6-.3.6-.7 0-.4-.2-.7-.6-.6h-.8Zm9.3-2.8 2.3 6.9-2.3.2-.2-.7-2.3.2-.3.7-2.3.2 3-7.3 2.1-.2Zm-1.8 4.5 1-.1-.4-1.4-.6 1.5Z" clip-rule="evenodd"/>
  <path fill="#FEFEFE" d="M15.3 25.6h-.5l-1.2-2-.2 2.9-2.1.2.4-7.1 1.9-.2 1.6 2.6 1.9-2.9 2-.2-.4 7.2-2.1.2.2-3-1.5 2.3Z"/>
  <path fill="#FEFEFE" fill-rule="evenodd" d="m24.5 18.5 2.2 6.8-2.3.3-.2-.8-2.3.2-.2.8-2.3.2 2.9-7.4 2.2-.1Zm-1.7 4.6.9-.1-.4-1.5-.5 1.6Z" clip-rule="evenodd"/>
  <path fill="#FEFEFE" d="M29.7 20v.7l2.8-.3-.1 1.8-2.8.3v.6l3-.3-.1 2-5.1.5.3-7.1 5.1-.5-.1 2-3 .3Zm5 2c.533.466 1.067.7 1.6.7.4-.067.633-.2.7-.4 0-.134-.133-.234-.4-.3-.2-.067-.467-.167-.8-.3a5.71 5.71 0 0 1-1-.3 1.625 1.625 0 0 1-.8-.7c-.2-.267-.3-.6-.3-1 0-.467.2-.934.6-1.4.4-.5 1.2-1 2.2-1.1.7 0 1.4.1 1.8.4.4.3.7.6.9.8l.1.1-1.5 1.2c-.267-.267-.5-.434-.7-.5h-.7c-.3 0-.5.2-.5.3 0 .2.3.4.8.5l.8.2.8.4c.267.133.467.333.6.6.133.266.2.566.2.9 0 .5-.2 1-.7 1.5-.4.5-1.2.9-2.2 1-.8.066-1.467-.067-2-.4-.467-.267-.8-.6-1-1l1.5-1.2Zm7-3.1-1.9.2.1-2 6-.6-.1 2-2 .2-.2 5.1-2.1.2.2-5.1Z"/>
  <path fill="#FEFEFE" fill-rule="evenodd" d="m52.6 23-2.5.2-1.4-1.6h-.2l-.1 1.8-2.1.2.4-7.2 2.9-.2h.5c.4 0 .7.1 1.1.3.5.3.7.6.9 1.1.133.333.167.666.1 1 0 1-.4 1.766-1.2 2.3l1.6 2.1Zm-4-4.7-.1 1.3.9-.1c.333 0 .533-.234.6-.7 0-.4-.2-.6-.6-.6l-.8.1Zm8.1-2.9c1.067-.067 1.933.2 2.6.8.733.666 1.067 1.533 1 2.6-.067 1-.467 1.9-1.2 2.7-.733.733-1.633 1.166-2.7 1.3-1.067.066-1.933-.2-2.6-.8-.667-.667-.967-1.534-.9-2.6 0-1 .4-1.9 1.2-2.7.733-.8 1.6-1.234 2.6-1.3Zm-.2 5.4c.4-.067.767-.267 1.1-.6.333-.334.5-.734.5-1.2 0-.467-.133-.867-.4-1.2-.267-.267-.6-.4-1-.4-.467.066-.833.266-1.1.6-.333.333-.5.733-.5 1.2-.067.466.033.866.3 1.2.333.266.7.4 1.1.4Z" clip-rule="evenodd"/>
</svg>
