<svg xmlns="http://www.w3.org/2000/svg" width="82" height="72" fill="none" viewBox="0 0 82 72">
  <path fill="#EBAE9B" stroke="#050505" stroke-linecap="round" stroke-linejoin="round" stroke-width=".4" d="M57.866 37.7c-.7.7-1.3.6-1.5.5-.3-.2-.8.3-1 0-.2-.2-2.3-1.8-2.6-2.1-.3-.2.7-.9.7-.9 2.2-1.5 3.7-1 4.5-.2.8.8.6 1.9-.1 2.7Z"/>
  <path fill="#EBAE9B" d="M55.266 37.8c-.9.8-1 1.1-1 1.1-.2.3-.2.5 0 .7.1.2.5.3.7.1.4-.4 1-1.1 1.4-1.5 0 0 .6.1.9-.1"/>
  <path stroke="#050505" stroke-linecap="round" stroke-linejoin="round" stroke-width=".4" d="M55.266 37.8c-.9.8-1 1.1-1 1.1-.2.3-.2.5 0 .7.1.2.5.3.7.1.4-.4 1-1.1 1.4-1.5 0 0 .6.1.9-.1"/>
  <path fill="#EBAE9B" d="M54.466 37c-.8.6-1.4 1.5-1.4 1.5-.2.3-.2.6 0 .7.2.2.5.2.7.1.2-.2.2-.2.5-.7 0 0 .4-.4.9-.8"/>
  <path stroke="#050505" stroke-linecap="round" stroke-linejoin="round" stroke-width=".4" d="M54.466 37c-.8.6-1.4 1.5-1.4 1.5-.2.3-.2.6 0 .7.2.2.5.2.7.1.2-.2.2-.2.5-.7 0 0 .4-.4.9-.8"/>
  <path fill="#EBAE9B" d="M53.466 36.4c-.8.8-1.4 1.5-1.4 1.5-.2.3-.2.6 0 .8.2.2.5.2.7 0 .3-.2.4-.5 1-1.1l.6-.6"/>
  <path stroke="#050505" stroke-linecap="round" stroke-linejoin="round" stroke-width=".4" d="M53.466 36.4c-.8.8-1.4 1.5-1.4 1.5-.2.3-.2.6 0 .8.2.2.5.2.7 0 .3-.2.4-.5 1-1.1l.6-.6"/>
  <path fill="#EBAE9B" d="M54.766 34.5c-2.1.9-3.5 2.7-3.5 2.7-.2.2-.2.6 0 .8.2.2.5.2.7 0 .7-.6 1.6-1.6 1.8-1.6"/>
  <path stroke="#050505" stroke-linecap="round" stroke-linejoin="round" stroke-width=".4" d="M54.766 34.5c-2.1.9-3.5 2.7-3.5 2.7-.2.2-.2.6 0 .8.2.2.5.2.7 0 .7-.6 1.6-1.6 1.8-1.6"/>
  <path fill="#050505" d="M56.366 38c.1 0 .8-.1.5-.7-.4-.4-.9-1.1-1.5-1.5-.7-.4-1.3-.7-1.2-.9.2-.3 2.3-1.3 3.9.2.4.3.6 1 .3 1.6-.3.7-.9 1.5-1.4 1.5-.5 0-.6-.2-.6-.2Zm-2.5-2.1s-.6.2-1 .5c-.4.4-1.4 1.2-1.1 1.5h.3s0 .4.3.6c.3.1.8-.3.8-.3s-.1.6.3.7c.4 0 .5-.2.5-.2s0 .4.4.5c.3.1.8 0 1.1-.3.3-.3.8-.9.8-.9s-.4.1-.8-.3c-.5-.3-.9-.7-.9-.7l-.7-1.1Z" opacity=".1"/>
  <path stroke="#4C4B4B" stroke-linecap="round" stroke-linejoin="round" stroke-width=".4" d="M50.266 33c-.1.1 0 .4.2.6m-.5-.2c-.1.1 0 .3.2.5m-.6-.2c-.1.1 0 .4.2.6m-.5-.2c-.1.1 0 .3.2.5m-.6-.2c-.1.1 0 .4.2.6m-.5-.2c-.1.1 0 .3.1.5m-.5-.2c-.1.1 0 .4.2.6m-.5-.2c-.1.1 0 .3.1.5m-.5-.2c-.1.1 0 .4.2.6m-.5-.2c-.1.1-.1.3.1.5m-.5-.2c-.1.1 0 .4.2.6m-.5-.2c-.1.1-.1.3.1.5m-.5-.2c-.1.1 0 .4.2.6m-.5-.2c-.1.1-.1.3.1.5m-.5-.2c-.1.1 0 .4.2.6m-.5-.2c-.1.1-.1.3.1.5"/>
  <path fill="#FAB76B" stroke="#873F1D" stroke-linecap="round" stroke-linejoin="round" stroke-width=".4" d="m53.266 46.9 5.6-5.6c.2-.2.2-.5 0-.7l-7.4-7.5c-.2-.2-.5-.2-.8 0l-5.5 5.6c-.2.2-.2.6 0 .8l7.4 7.4c.2.2.5.2.7 0Z"/>
  <path fill="#FAFCFC" stroke="#979696" stroke-linecap="round" stroke-linejoin="round" stroke-width=".4" d="m52.866 46.8 5.8-5.8-7.8-7.8-5.8 5.8 7.8 7.8Z"/>
  <path fill="#FAFCFC" stroke="#979696" stroke-linecap="round" stroke-linejoin="round" stroke-width=".4" d="M58.966 40.8s-1.2-.8-7.9-7.6l-5.8 5.8c6.7 6.8 7.9 7.6 7.9 7.6l5.8-5.8Z"/>
  <path fill="#FAFCFC" stroke="#979696" stroke-linecap="round" stroke-linejoin="round" stroke-width=".4" d="M59.366 40.6s-1.4-.6-8.1-7.4l-5.8 5.8c6.7 6.8 8.1 7.4 8.1 7.4l5.8-5.8Z"/>
  <path stroke="#4C4B4B" stroke-linecap="round" stroke-linejoin="round" stroke-width=".4" d="M50.966 33.7c.1-.1.1-.3-.1-.5s-.5-.3-.6-.2m.4 1.1c.1-.1 0-.4-.2-.5-.2-.2-.4-.3-.5-.2m.3 1c.1-.1 0-.3-.1-.5-.2-.2-.5-.3-.6-.2m.4 1.1c.1-.1 0-.4-.2-.5-.2-.2-.4-.3-.5-.2m.3 1c.1-.1 0-.3-.1-.5-.2-.2-.5-.3-.6-.2m.4 1.1c.1-.1 0-.3-.2-.5s-.4-.3-.5-.2m.3 1c.1-.1 0-.3-.2-.5-.1-.2-.4-.3-.5-.2m.4 1.1c.1-.1 0-.3-.2-.5s-.4-.3-.5-.2m.3 1c.1-.1 0-.3-.2-.5-.1-.2-.4-.3-.5-.2m.4 1.1c.1-.1 0-.3-.2-.5s-.4-.3-.5-.2m.3 1c.1-.1 0-.3-.2-.5s-.4-.3-.5-.2m.4 1.1c.1-.1 0-.3-.2-.5s-.4-.3-.5-.2m.3 1c.1-.1 0-.3-.2-.5s-.4-.3-.5-.2m.4 1.1c.1-.1 0-.3-.2-.5s-.4-.3-.5-.2m.3 1.1c.1-.1 0-.4-.2-.6-.2-.2-.4-.3-.5-.2m.4 1.1c.1-.1 0-.3-.2-.5s-.4-.3-.5-.2"/>
  <path fill="#EBAE9B" d="M55.066 36.6s-.1 0-.5.6c-.4.3-.5.5-.8.6-.3.1-.5 0-.7-.3-.1-.2 0-.5.3-.8.3-.3.4-.4.6-.8 0 0 .2-.5 0-.6"/>
  <path stroke="#050505" stroke-linecap="round" stroke-linejoin="round" stroke-width=".4" d="M55.066 36.6s-.1 0-.5.6c-.4.3-.5.5-.8.6-.3.1-.5 0-.7-.3-.1-.2 0-.5.3-.8.3-.3.4-.4.6-.8 0 0 .2-.5 0-.6"/>
  <path fill="#7AC057" stroke="#050505" stroke-linecap="round" stroke-linejoin="round" stroke-width=".4" d="m54.566 34.3 1.2-.9c.733 1.4 1.733 2.5 3 3.3l-.9 1.1c-1.3-.8-2.6-2.3-3.3-3.5Z"/>
  <path fill="#050505" d="M57.666 35.8c.3.3.7.7 1.1.9l-.9 1.1a7.201 7.201 0 0 1-1.1-.9l.9-1.1Z" opacity=".3" style="mix-blend-mode:multiply"/>
  <path stroke="#5B9041" stroke-linecap="round" stroke-linejoin="round" stroke-width=".4" d="m56.066 34-1.1.9m1.6-.3-1.1.9m1.6-.2-1 1m1.6-.5-.9 1.1m1.5-.5-.9 1.1"/>
  <path stroke="#050505" stroke-linecap="round" stroke-linejoin="round" stroke-width=".4" d="m54.566 34.3 1.2-.9c.733 1.4 1.733 2.5 3 3.3l-.9 1.1c-1.3-.8-2.6-2.3-3.3-3.5Z"/>
  <path fill="#7AC056" stroke="#050505" stroke-linecap="round" stroke-linejoin="round" stroke-width=".4" d="M68.166 23.2c1.5 1.2.7 3.2-.1 4.3-.3.4-1.4 1.9-3.8 4.5-2.8 3-4.8 4.9-5.5 4.7-.5-.1-3.1-2.8-3-3.3.1-.9 1.7-1.4 4.6-4.7 1.8-2.2 3-4 3.7-4.9 1-1.3 2.6-1.6 4.1-.6Z"/>
  <path fill="#050505" d="M67.866 23c.066.067.166.133.3.2 1.5 1.2.7 3.2-.1 4.3-.3.4-1.4 1.9-3.8 4.5-2.8 3-4.8 4.9-5.5 4.7-.1 0-.6-.4-1.1-.9 1.2-1 3.7-3.1 5.5-4.9 2.4-2.4 3.7-4 3.9-4.4.7-.9 1.4-2.4.8-3.5Z" opacity=".3" style="mix-blend-mode:multiply"/>
  <path fill="#050505" d="M79.966 59.6c0 .8-3.6 1.5-8.1 1.5s-8.1-.7-8.1-1.5c0-.9 3.6-1.6 8.1-1.6s8.1.7 8.1 1.6Z" opacity=".3"/>
  <path fill="#050505" stroke="#050505" stroke-linecap="round" stroke-linejoin="round" stroke-width=".4" d="M66.566 57.4c-1 .5-2.3 1.4-2.1 2.2h5.1l.8-.8v.8h1.9l-.2-2.2c0-3.2-5.5-3.1-5.5 0Z"/>
  <path fill="#2E6BAF" stroke="#050505" stroke-linecap="round" stroke-linejoin="round" stroke-width=".4" d="M65.266 40.3c0-4.4 7.4-4.5 7 0l-.1 17.1h-5.8s-1.1-10.9-1.1-17.1Z"/>
  <path fill="#050505" d="m69.566 43.3-1.2-6.3c2-.2 4.1.9 3.9 3.3l-.1 17.1h-2c-.2-3.7-.6-9.4-.6-14.1Z" opacity=".3" style="mix-blend-mode:multiply"/>
  <path fill="#050505" stroke="#050505" stroke-linecap="round" stroke-linejoin="round" stroke-width=".4" d="M72.266 57.4c-1 .5-2.3 1.4-2.1 2.2h5l.9-.8v.8h1.8l-.1-2.2c0-3.2-5.5-3.1-5.5 0Z"/>
  <path fill="#2E6BAF" stroke="#050505" stroke-linecap="round" stroke-linejoin="round" stroke-width=".4" d="M70.865 40.3c0-4.4 7.5-4.5 7.1 0l-.1 17.1h-5.8s-1.2-10.9-1.2-17.1Z"/>
  <path fill="#050505" d="m75.165 43.3-1.1-6.3c1.9-.2 4.1.9 3.9 3.3 0 0-.2 16.9-.1 17.1h-2c-.2-3.7-.6-9.4-.7-14.1Z" opacity=".3" style="mix-blend-mode:multiply"/>
  <path fill="#2E6BAF" d="M64.766 39.7c0 1.7 1.1 3.7 6.4 3.7h1c2.2 0 5.9.4 5.9-3.7 0-4.2-3.5-6.7-6.8-6.7s-6.5 2-6.5 6.7Z"/>
  <path fill="#050505" d="M64.766 39.7c0 .7 1 1.4 6.4 1.4 1.2 0 2.9-.1 2.9-.1.8 0 1.1 1.4 1.1 2.3 1.6-.3 2.9-1.1 2.9-3.6 0-4.2-3.5-6.7-6.8-6.7s-6.5 2-6.5 6.7Z" opacity=".3" style="mix-blend-mode:multiply"/>
  <path stroke="#050505" stroke-linecap="round" stroke-linejoin="round" stroke-width=".4" d="M77.266 42.2c.5-.5.8-1.3.8-2.5 0-4.2-3.5-6.7-6.8-6.7s-6.5 2-6.5 6.7c0 1.7 1.1 3.7 6.4 3.7h1.7"/>
  <path fill="#7AC057" stroke="#050505" stroke-linecap="round" stroke-linejoin="round" stroke-width=".4" d="M64.266 38.4c.3.5-.1 1.2 0 1.5.1.3 2.2.9 6.8.9 4.5 0 6.9-.6 7.3-.8.4-.1-.1-1-.1-1.6h-14Z"/>
  <path stroke="#5B9041" stroke-linecap="round" stroke-linejoin="round" stroke-width=".4" d="m65.066 38.6-.1 1.6m.9-1.4-.1 1.6m1-1.5-.1 1.6m11.199-1.9.2 1.5m-.999-1.4.2 1.6m-1-1.4.3 1.5m-1-1.5.2 1.6M74.665 39l.3 1.6M73.766 39l.2 1.7m-1-1.6.1 1.6m-1-1.6v1.6m-4.3-1.7-.1 1.6m1.2-1.6-.1 1.7m1.2-1.6-.1 1.6m1.2-1.6-.1 1.7"/>
  <path stroke="#050505" stroke-linecap="round" stroke-linejoin="round" stroke-width=".4" d="M64.266 38.4c.3.5-.1 1.2 0 1.5.1.3 2.2.9 6.8.9 4.5 0 6.9-.6 7.3-.8.4-.1-.1-1-.1-1.6h-14Z"/>
  <path fill="#7AC057" stroke="#050505" stroke-linecap="round" stroke-linejoin="round" stroke-width=".4" d="M70.666 39.1c-3.7-.1-5.6-.3-6.4-.7-.7-.5-.9-1.1-.5-3.8.3-1.9.1-4.5.2-7.1 0-2.3.4-4.1 1.4-4.8.4-.3 4.5-1.5 7.5-1.6 3.2-.1 3.9.4 5.3.9 1.3.6 1.5 1.7 1.1 4.7-.4 3.1-.5 6.5-.4 7.7.1 1.7 1 3.5-1 4.2-1.1.3-3.4.5-7.2.5Z"/>
  <path fill="#050505" d="M78.165 22c1.3.6 1.5 1.7 1.1 4.7-.4 3.1-.5 6.5-.4 7.7.1 1.5.9 3.2-.6 4 0 .6.5 1.5.1 1.6-.2.1-1 .3-2.3.5l-.2-1.6c1.1-.6.7-6 .5-8-.1-2.2 1.5-5.9.8-7.1-.6-1-2.3-1.2-2.3-1.2-1.5.2-2.7.1-2.7.1l.2-1.5c.2-.066.367-.1.5-.1 3.2-.1 3.9.4 5.3.9Z" opacity=".3" style="mix-blend-mode:multiply"/>
  <path stroke="#5B9041" stroke-linecap="round" stroke-linejoin="round" stroke-width=".4" d="m68.966 28.8-.2 1.3m.5-1.5.6.9m-.001-1.3.6.8m.001-1.3.7.8m.1-1.5.7.8m-.101-1.5.7.8m-.099-1.5.8.8m-.2-1.4.8.7m-.201-1.5.9.7m-.299-1.5.8.7m-.3-1.4.9.5m-.501-1.2.9.4m-.599-.9 1 .2m-7.9 6.8-.5.9m.2-1.6-.8.7m.5-1.5-.9.5m.7-1.3-1 .3m.8-1.1-1 .2m.8-1.2-.9.1m.8-.9-.8.2m.8-.8-.7.1m.799-.7-.7.1"/>
  <path stroke="#050505" stroke-linecap="round" stroke-linejoin="round" stroke-width=".4" d="M68.766 30.1c-.6 0-3.2-4-2-7.9 1.6-.4 4.1-1 6.1-1.1 1.8 0 2.9.1 3.7.3-1.7 4.5-7.2 8.7-7.8 8.7Z"/>
  <path fill="#C8C7C7" stroke="#050505" stroke-linecap="round" stroke-linejoin="round" stroke-width=".4" d="M75.066 20.1c-.2.9-4 2.8-5.2 3.2l-.8 1.1-.3-1.3c-1-.4-1.2-1.4-1.2-1.4 1-2.2 7.6-2.5 7.5-1.6Z"/>
  <path fill="#EBAE9B" stroke="#050505" stroke-linecap="round" stroke-linejoin="round" stroke-width=".4" d="M67.966 25v-8.1c0-4.1 7.1-4.4 7.1 0v4.2c0 1.3-3.5 3.9-7.1 3.9Z"/>
  <g opacity=".3" style="mix-blend-mode:multiply">
    <path fill="#050505" d="M70.466 21.3s-2.4 0-2.4-1.1c0 0-.1-1.9-.1-3.3 0-4.1 7.1-4.4 7.1 0v4.2c0 .6-.8 1.6-2.1 2.4 0-1.4-1-2.2-2.5-2.2Z"/>
    <path stroke="#050505" stroke-linecap="round" stroke-linejoin="round" stroke-width=".4" d="M70.466 21.3s-2.4 0-2.4-1.1c0 0-.1-1.9-.1-3.3 0-4.1 7.1-4.4 7.1 0v4.2c0 .6-.8 1.6-2.1 2.4 0-1.4-1-2.2-2.5-2.2Z"/>
  </g>
  <path fill="#FEFEFE" stroke="#050505" stroke-linecap="round" stroke-linejoin="round" stroke-width=".4" d="M75.566 21.2c-1.7 3.6-6.2 7.7-6.6 7.6-.4 0-2.1-4.1-1.6-6.8l.2-.3s.2 1 1.2 1.4l.3 1.3.8-1.1c1.2-.4 5-2.3 5.2-3.2.1-.5.6.3.5 1.1Z"/>
  <g opacity=".3" style="mix-blend-mode:multiply">
    <path fill="#050505" d="M69.866 23.3c1.2-.4 5-2.3 5.2-3.2.1-.5.6.3.5 1.1-.1.8-2.9 5.8-4.3 6.4 0 0 .5-3.2-.9-4.1"/>
    <path stroke="#050505" stroke-linecap="round" stroke-linejoin="round" stroke-width=".4" d="M69.866 23.3c1.2-.4 5-2.3 5.2-3.2.1-.5.6.3.5 1.1-.1.8-2.9 5.8-4.3 6.4 0 0 .5-3.2-.9-4.1"/>
  </g>
  <path fill="#FEFEFE" d="M69.866 23.3c1.2-.4 5-2.3 5.2-3.2.1-.5.6.3.5 1.1-.1.8-2.4 5-3.7 5.9 0 0-.1-2.7-1.5-3.6"/>
  <path stroke="#050505" stroke-linecap="round" stroke-linejoin="round" stroke-width=".4" d="M69.866 23.3c1.2-.4 5-2.3 5.2-3.2.1-.5.6.3.5 1.1-.1.8-2.4 5-3.7 5.9 0 0-.1-2.7-1.5-3.6"/>
  <g opacity=".3" style="mix-blend-mode:multiply">
    <path fill="#050505" d="M68.766 23.1c-1-.4-1.2-1.4-1.2-1.4s-1 3.3.1 5.5c0 0 .2-2.5.7-3.7"/>
    <path stroke="#050505" stroke-linecap="round" stroke-linejoin="round" stroke-width=".4" d="M68.766 23.1c-1-.4-1.2-1.4-1.2-1.4s-1 3.3.1 5.5c0 0 .2-2.5.7-3.7"/>
  </g>
  <path fill="#FEFEFE" d="M68.766 23.1c-1-.4-1.2-1.4-1.2-1.4s-1.3 2.8-.1 5c0 0-.1-2.3.9-3.2"/>
  <path stroke="#050505" stroke-linecap="round" stroke-linejoin="round" stroke-width=".4" d="M68.766 23.1c-1-.4-1.2-1.4-1.2-1.4s-1.3 2.8-.1 5c0 0-.1-2.3.9-3.2m.7.9s-.5.5-.5.8c0 .3.6.6.6 1.1.1.5-.3.5-.2 1.7"/>
  <path fill="#050505" d="M75.066 20.1c.1-.5.6.3.5 1.1 0 .3-.2.7-.5 1.3l-.2.1c-.1-.4-.9-.9-1.5-1 .9-.6 1.6-1.1 1.7-1.5Z" opacity=".3" style="mix-blend-mode:multiply"/>
  <path stroke="#646464" stroke-linecap="round" stroke-linejoin="round" stroke-width=".4" d="M71.065 1.9c0-.4.5-.9.9-.9m-.1 1c.2-.4.7-.6 1.2-.5m-2.7.4c.1-.2-.1-.5-.3-.6"/>
  <path fill="#646464" stroke="#050505" stroke-linecap="round" stroke-linejoin="round" stroke-width=".4" d="M65.665 4c-.5.8-2.2 1.8-1.8 3.7-.7.6-.6 1.9-.1 2.4-.4.9.2 2 1 1.9 1.1-.1 1.8-2.2 1.8-4.4s-.2-4.4-.9-3.6Z"/>
  <path stroke="#050505" stroke-linecap="round" stroke-linejoin="round" stroke-width=".4" d="M64.965 6.3c-.5 0-.7.4-.9 1.1m.601.6c-.6.1-.6 1-.7 1.8" opacity=".3" style="mix-blend-mode:multiply"/>
  <path fill="#EBAE9B" d="M76.165 14.8c-.4 1.7-2.6 6.9-7.9 6.9-1.1 0-1.8-.2-2.4-1-.7-.7-2.1-2.4-2.1-5.1 0-2.1.5-4.3.6-5.8 0-1.1.2-4.5 1.4-6 1.3-1.4 2.8-1.9 5.1-1.9s3.7.6 4.8 2.3c1 1.7 1.5 5.9 1.2 7.3"/>
  <path stroke="#050505" stroke-linecap="round" stroke-linejoin="round" stroke-width=".4" d="M76.165 14.8c-.4 1.7-2.6 6.9-7.9 6.9-1.1 0-1.8-.2-2.4-1-.7-.7-2.1-2.4-2.1-5.1 0-2.1.5-4.3.6-5.8 0-1.1.2-4.5 1.4-6 1.3-1.4 2.8-1.9 5.1-1.9s3.7.6 4.8 2.3c1 1.7 1.5 5.9 1.2 7.3"/>
  <path fill="#646464" stroke="#050505" stroke-linecap="round" stroke-linejoin="round" stroke-width=".4" d="m76.066 15.3.8-4.3c-1.1.8-.6 1.7-.9 1.7-1.2-.2-1.2-3.1-.8-3.5.8-.8 1.5-3.7.2-5.4 1 .4 1.6.9 1.9 1.7.3.3 1.1 1.3 1 2.3 1.1.5 1.1 2.2.6 3.1.8 1-.2 3-.9 2.9 0 1-1.2 2.1-1.9 1.5Z"/>
  <path stroke="#050505" stroke-linecap="round" stroke-linejoin="round" stroke-width=".4" d="M76.365 7.1c1.2 0 2.1 2.2 2.3 3.5m-2.4-2.1c1.2.5 1.7 3 1.5 4.8m-2.4-3.8c0 .8.1 1.8.9 2.3m1.6-4.3c-.1-.4-.8-1.6-1.5-1.5" opacity=".3" style="mix-blend-mode:multiply"/>
  <g opacity=".3" style="mix-blend-mode:multiply">
    <path fill="#050505" d="M69.966 21.5c3.7-.8 5.5-4.4 6.1-6.2.3.3 1.6.2 1.9-1.5 0 0 .4-5.4-.7-8.3-.6-1.4-1.9-1.7-1.9-1.7-.9-1.2-2.2-1.8-3.7-1.8 4.3 1.9 1.4 5.8 1.4 8.6 0 1.8.9 2.7.7 5.2-.2 2-1.6 5-3.8 5.7Z"/>
    <path stroke="#050505" stroke-linecap="round" stroke-linejoin="round" stroke-width=".4" d="M69.966 21.5c3.7-.8 5.5-4.4 6.1-6.2.3.3 1.6.2 1.9-1.5 0 0 .4-5.4-.7-8.3-.6-1.4-1.9-1.7-1.9-1.7-.9-1.2-2.2-1.8-3.7-1.8 4.3 1.9 1.4 5.8 1.4 8.6 0 1.8.9 2.7.7 5.2-.2 2-1.6 5-3.8 5.7Z"/>
  </g>
  <path stroke="#646464" stroke-linecap="round" stroke-linejoin="round" stroke-width=".4" d="M70.565 2.7c.2.5-.2 1.7.5 1.8m-.9-1.8c0 .4-1.3 1.8-.8 2.3m.3-2.4c.1.4-1.7 1-1.6 1.5"/>
  <path fill="#FEFEFE" stroke="#050505" stroke-linecap="round" stroke-linejoin="round" stroke-width=".4" d="M66.666 10.8c0-1-2.2-1-2.2 0 0 .8 2.2.9 2.2 0Zm3.199 0c0-1 2.7-1 2.7 0 0 .8-2.7.9-2.7 0Z"/>
  <path fill="#3E1F10" stroke="#050505" stroke-width=".4" d="M66.365 10.7c0-.3-.3-.6-.6-.6-.4 0-.6.3-.6.6 0 .4.2.6.6.6.3 0 .6-.2.6-.6Z"/>
  <path fill="#050505" d="M66.365 10.7c0-.3-.3-.6-.6-.6-.4 0-.6.3-.6.6 0 0 .1-.2.6-.2.4 0 .6.2.6.2Z" opacity=".5"/>
  <path fill="#050505" d="M65.966 10.7c0-.1-.1-.2-.2-.2-.2 0-.3.1-.3.2 0 .2.1.3.3.3.1 0 .2-.1.2-.3Z"/>
  <path fill="#FEFEFE" d="M65.666 10.6c0-.1-.1-.2-.2-.2s-.2.1-.2.2.1.2.2.2.2-.1.2-.2Z"/>
  <path fill="#3E1F10" stroke="#050505" stroke-width=".4" d="M72.066 10.7c0-.3-.3-.6-.6-.6s-.6.3-.6.6c0 .4.3.6.6.6s.6-.2.6-.6Z"/>
  <path fill="#050505" d="M72.066 10.7c0-.3-.3-.6-.6-.6s-.6.3-.6.6c0 0 .2-.2.6-.2.4 0 .6.2.6.2Z" opacity=".5"/>
  <path fill="#050505" d="M71.766 10.7c0-.1-.2-.2-.3-.2-.2 0-.3.1-.3.2 0 .2.1.3.3.3.1 0 .3-.1.3-.3Z"/>
  <path fill="#FEFEFE" d="M71.366 10.6c0-.1 0-.2-.2-.2-.1 0-.2.1-.2.2s.1.2.2.2c.2 0 .2-.1.2-.2Z"/>
  <path fill="#EBAE9B" stroke="#050505" stroke-linecap="round" stroke-linejoin="round" stroke-width=".4" d="M66.566 10.4c-.4-.6-1.8-.5-2.1.2.4-.3 1.5-.4 2.1-.2Zm3.4 0c.5-.6 2.2-.5 2.6.2-.5-.3-1.9-.4-2.6-.2Z"/>
  <path stroke="#050505" stroke-linecap="round" stroke-linejoin="round" stroke-width=".4" d="M65.365 16.7c.1.3.4.5.9.6.5.1 3 .1 3.7 0 .8-.2 1.2-.5 1.4-.7"/>
  <path fill="#524C41" stroke="#050505" stroke-linecap="round" stroke-linejoin="round" stroke-width=".4" d="M66.665 9c.1.1.1.5.1.6-.1 0-.5-.3-1.2-.4-.8 0-1.4.2-1.6.3-.1.1.1-.8.4-.9.3-.2 1.6-.3 2.3.4Zm2.7 0c-.1.1-.1.5 0 .6.1 0 .6-.3 1.6-.4 1.1 0 1.9.2 2.2.3.2.1-.1-.8-.4-.9-.5-.2-2.4-.3-3.4.4Z"/>
  <path fill="#050505" d="M65.766 14.4c0 .8.6 1.4 2.1 1.4s1.8-.9 1.9-1.4c0-.4-3.9-.6-4 0Z" opacity=".1"/>
  <path fill="#EBAE9B" d="M67.266 10.7c-.7.5-.9 2.2-1 2.3-.2.1-.5.9-.6 1.1-.1.3-.1.8.1 1 .2.2.7.7 1.2.7.6-.1.8-.3 1.1-.4.4-.2.8-.1 1.1-.1.2 0 .6-.3.6-.7 0-.4-.6-1.1-1.2-.8"/>
  <path stroke="#050505" stroke-linecap="round" stroke-linejoin="round" stroke-width=".4" d="M67.266 10.7c-.7.5-.9 2.2-1 2.3-.2.1-.5.9-.6 1.1-.1.3-.1.8.1 1 .2.2.7.7 1.2.7.6-.1.8-.3 1.1-.4.4-.2.8-.1 1.1-.1.2 0 .6-.3.6-.7 0-.4-.6-1.1-1.2-.8"/>
  <path fill="#63C9E1" stroke="#42110D" stroke-linecap="round" stroke-linejoin="round" stroke-width=".4" d="M69.666 12.6c.2.3.9.6 1.5.6.7 0 1.3 0 1.7-.5.5-.4.6-1.4.6-1.9 0-.9-.9-1-2-1h-.7c-1.2 0-1.8-.1-1.8.8 0 .8.3 1.5.7 2Zm-6.5.1c.3.5.9.5 1.5.5.5 0 1.1-.3 1.3-.6.4-.5.7-1.2.7-2 0-.9-.6-.8-1.7-.8h-.5c-1 0-1.8.1-1.8 1 0 .5.1 1.5.5 1.9Z" opacity=".3"/>
  <path fill="#060507" fill-rule="evenodd" stroke="#050505" stroke-linecap="round" stroke-linejoin="round" stroke-width=".4" d="M64.666 9.4c1.3 0 2.3.1 2.5.9.1-.2.9-.2 1.2 0 .2-.8 1.3-.9 2.8-.9 1.5 0 2.8 0 3.1.3v.7l-.4.4c0 .2 0 1.2-.3 1.7s-.7 1-2.2 1c-1.4 0-2.1-.6-2.4-1.1-.2-.5-.5-1.3-.7-1.5-.2-.3-.8-.4-1.1 0-.2.2-.4 1-.6 1.5-.2.5-.9 1.1-2.1 1.1-1.3 0-1.6-.5-1.9-1-.2-.5-.3-1.5-.3-1.7l-.3-.4v-.7c.3-.3 1.4-.3 2.7-.3Zm5 3.2c.2.3.9.6 1.5.6.7 0 1.3 0 1.7-.5.5-.4.6-1.4.6-1.9 0-.9-.9-1-2-1h-.7c-1.2 0-1.8-.1-1.8.8 0 .8.3 1.5.7 2Zm-6.5.1c.3.5.9.5 1.5.5.5 0 1.1-.3 1.3-.6.4-.5.7-1.2.7-2 0-.9-.6-.8-1.7-.8h-.5c-1 0-1.8.1-1.8 1 0 .5.1 1.5.5 1.9Z" clip-rule="evenodd"/>
  <path fill="#060507" stroke="#050505" stroke-linecap="round" stroke-linejoin="round" stroke-width=".4" d="M78.066 11c.2.1.9 1.2 1.1 1.3.1.1.5-.2.5-.3.1-.2-1-1.2-1.4-1.3-.4-.2-3.8-1-3.8-1v.7s3.4.5 3.6.6Z"/>
  <path fill="#E7B299" d="M76.665 11.3s.9-1 1.3-1.3c.2-.2.7-.2.8.4.3 1.9-.6 4.1-1.2 4.8-.5.7-1.2.7-1.5.1-.4-.6.4-3.7.6-4Z"/>
  <path stroke="#050505" stroke-linecap="round" stroke-linejoin="round" stroke-width=".4" d="M76.665 11.3s.9-1 1.3-1.3c.2-.2.7-.2.8.4.3 1.9-.6 4.1-1.2 4.8-.5.7-1.2.7-1.5.1"/>
  <path stroke="#050505" stroke-linecap="round" stroke-linejoin="round" stroke-width=".4" d="M76.766 13.7c.9-.4 1.1-1.8.2-1.4.7-1.3 1.8-2.9 1.5-.6"/>
  <path fill="#050505" d="M76.665 11.3s.9-1 1.3-1.3c.2-.2.7-.2.8.4.3 1.9-.6 4.1-1.2 4.8-.5.7-1.2.7-1.5.1-.4-.6.4-3.7.6-4Z" opacity=".3" style="mix-blend-mode:multiply"/>
  <path fill="#EBAE9B" stroke="#050505" stroke-linecap="round" stroke-linejoin="round" stroke-width=".4" d="M66.466 29.1c1 .8 1.8 1.2 2.9 1.2.7.1 1.3-.4 1.7-1 .2-.2 1.2-1.7-.1-2.7-.4-.2-.8-.4-1.1-.8-.2-.2-.3-.3-.8-.6-.2-.1-.9.4-1 .5.2.2.2.3.2.4-.2.2-.5.1-1-.3-.4-.3-.7-.1-.7-.1l-.2 1.4s-.4 1.6.1 2Z"/>
  <path fill="#EBAE9B" d="M69.566 25.5s-.6-.4-1.1-.7c-.6-.3-.9-.4-1.1-.4-.2.1-.5.3-.5.5-.067.267.1.434.5.5.3.1.5.1.8.5"/>
  <path stroke="#050505" stroke-linecap="round" stroke-linejoin="round" stroke-width=".4" d="M69.566 25.5s-.6-.4-1.1-.7c-.6-.3-.9-.4-1.1-.4-.2.1-.5.3-.5.5-.067.267.1.434.5.5.3.1.5.1.8.5"/>
  <path fill="#050505" d="M67.466 25.1s0-.1.4 0c.3.2.9.7.5.7v.1h-.1c-.4-.4-.6-.4-.9-.5-.334-.133-.5-.3-.5-.5v.1c.5.4.6.1.6.1Z" opacity=".1"/>
  <path fill="#FBE109" d="m66.866 28.9-1.1-.4 2-5.1s.3-.1.6 0c.4.2.5.4.5.4l-2 5.1Z"/>
  <path stroke="#050505" stroke-linecap="round" stroke-linejoin="round" stroke-width=".4" d="m66.165 28.6 1.9-5.1m-1.499 5.3 1.9-5.1"/>
  <path fill="#D99D56" d="m66.966 28.7-.4.1-.1-.3-.3.1-.3-.4-.1.3.1 1.6 1-1.2.1-.2Z"/>
  <path fill="#181818" d="m65.866 29.3.5.2-.5.6v-.8Z"/>
  <path fill="#050505" d="m65.866 30.1 1-1.2 2-5.1-.3-.3-2.1 5.4-.6 1.2Z" opacity=".2"/>
  <path fill="#C72026" d="M67.766 23.4s.4-.1.6 0c.3.2.5.4.5.4s-.3.1-.7 0c-.3-.2-.4-.4-.4-.4Z"/>
  <path stroke="#050505" stroke-linecap="round" stroke-linejoin="round" stroke-width=".4" d="m65.766 28.5 2-5.1s.3-.1.6 0c.4.2.5.4.5.4l-1.9 4.9-.1.2-1 1.2-.1-1.6Z"/>
  <path fill="#EBAE9B" d="M69.366 25.4c.2.1.3.2.5.4.3.4.7.6 1.1.8 1.3 1 .3 2.5.1 2.7-.4.6-1 1.1-1.7 1-1.1 0-1.9-.4-2.9-1.2-.5-.4-.1-2-.1-2l.2-1.4s.3-.2.7.1c.5.4.8.5 1 .3 0-.1.1-.2.1-.2"/>
  <path stroke="#050505" stroke-linecap="round" stroke-linejoin="round" stroke-width=".4" d="M69.366 25.4c.2.1.3.2.5.4.3.4.7.6 1.1.8 1.3 1 .3 2.5.1 2.7-.4.6-1 1.1-1.7 1-1.1 0-1.9-.4-2.9-1.2-.5-.4-.1-2-.1-2l.2-1.4s.3-.2.7.1c.5.4.8.5 1 .3 0-.1.1-.2.1-.2"/>
  <path fill="#EBAE9B" d="M65.966 27.4c-.2-.1-.1.2-.3.3-.134.2-.1.433.1.7 0 0 .3.7 2.2 1.6"/>
  <path stroke="#050505" stroke-linecap="round" stroke-linejoin="round" stroke-width=".4" d="M65.966 27.4c-.2-.1-.1.2-.3.3-.134.2-.1.433.1.7 0 0 .3.7 2.2 1.6"/>
  <path fill="#EBAE9B" d="M66.566 27.2c-.4-.4-.4-.4-.6-.5-.2-.2-.4-.2-.6 0-.2.2-.1.4 0 .6 0 0 .2.4 1.3 1.3"/>
  <path stroke="#050505" stroke-linecap="round" stroke-linejoin="round" stroke-width=".4" d="M66.566 27.2c-.4-.4-.4-.4-.6-.5-.2-.2-.4-.2-.6 0-.2.2-.1.4 0 .6 0 0 .2.4 1.3 1.3"/>
  <path fill="#EBAE9B" d="M66.866 26.6c-.6-.4-.8-.6-1-.8-.2-.1-.4-.2-.6 0-.2.2-.1.4.1.6 0 0 .2.4 1.4 1.3"/>
  <path stroke="#050505" stroke-linecap="round" stroke-linejoin="round" stroke-width=".4" d="M66.866 26.6c-.6-.4-.8-.6-1-.8-.2-.1-.4-.2-.6 0-.2.2-.1.4.1.6 0 0 .2.4 1.4 1.3"/>
  <path fill="#EBAE9B" d="M66.866 26.8c-1.2-.8-1.4-1.2-1.4-1.2-.1-.3-.2-.4 0-.6.1-.2.4-.3.6-.1.7.5 1.4 1.2 1.7 1.2"/>
  <path stroke="#050505" stroke-linecap="round" stroke-linejoin="round" stroke-width=".4" d="M66.866 26.8c-1.2-.8-1.4-1.2-1.4-1.2-.1-.3-.2-.4 0-.6.1-.2.4-.3.6-.1.7.5 1.4 1.2 1.7 1.2"/>
  <path fill="#050505" d="M66.566 26.7s-.7-.2-1.3-.9l.2-.1 1.1 1Zm0 1s-.7-.2-1.3-1h.2l1.1 1Zm0 .9s-.4.1-1-.6l.2-.3.8.9Zm3.5-2.6c.2.3.6.5.9.6 1.3 1 .3 2.5.1 2.7-.4.6-1 1.1-1.7 1-.7 0-1.3-.2-1.9-.5 0-.7 1.7-3.5 2.6-3.8Z" opacity=".3"/>
  <path fill="#7AC057" stroke="#050505" stroke-linecap="round" stroke-linejoin="round" stroke-width=".4" d="M76.566 33.7c-2.7.2-5.7-1.4-7.3-2.6-.1 0-.3-.2-.3-.4.2-1 1.6-3.3 2.4-3.8.2-.1.5.1.6.1.9.5 2.3 1 3.2 1.2.2-.6.3-1.3.3-2.3-.1-.7 0-3.1 2.4-3.4 2.4-.2 2.9 2.8 3 3.5.3 4.9-1.7 7.4-4.3 7.7Z"/>
  <path fill="#050505" d="M69.566 29.3c1.2.9 4.6 3.1 7 2.9 2.5-.2 3.1-3.9 2.9-6.3-.2-2.5-1.6-3.4-1.6-3.4 2.4-.2 2.9 2.8 3 3.5.3 4.9-1.7 7.4-4.3 7.7-2.7.2-5.7-1.4-7.3-2.6-.1 0-.3-.2-.3-.4l.6-1.4Z" opacity=".3" style="mix-blend-mode:multiply"/>
  <path stroke="#050505" stroke-linecap="round" stroke-linejoin="round" stroke-width=".4" d="m75.165 28.2.4.1"/>
  <path fill="#7AC057" stroke="#050505" stroke-linecap="round" stroke-linejoin="round" stroke-width=".4" d="m70.266 26 1.1.9a10.258 10.258 0 0 0-2.4 3.8l-1.2-.6c.4-1.5 1.5-3.1 2.5-4.1Z"/>
  <path fill="#050505" d="M69.566 29.3c-.2.4-.4.9-.6 1.4l-1.2-.6c.133-.466.3-.933.5-1.4l1.3.6Z" opacity=".3" style="mix-blend-mode:multiply"/>
  <path stroke="#5B9041" stroke-linecap="round" stroke-linejoin="round" stroke-width=".4" d="m70.966 27.4-1.1-.9m.6 1.5-1.1-.9m.6 1.5-1.2-.7m-.5.8 1.3.6m-.4.8-1.2-.6"/>
  <path stroke="#050505" stroke-linecap="round" stroke-linejoin="round" stroke-width=".4" d="m70.266 26 1.1.9a10.258 10.258 0 0 0-2.4 3.8l-1.2-.6c.4-1.5 1.5-3.1 2.5-4.1Z"/>
  <path fill="#489FD7" d="M33.932 68.906c-.097-.023-.269-.166-.222-.36.023-.098.166-.27.263-.247.195.047.27.167.343.287-.046.195-.166.27-.384.32Z"/>
  <path fill="#EC252D" d="M13.333 22.709c-.097-.023-.269-.167-.223-.361.023-.098.167-.27.361-.223.098.023.27.167.246.264-.046.195-.166.269-.384.32Z"/>
  <path fill="#489FD7" d="M33.932 68.906c-.097-.023-.269-.166-.222-.36.023-.098.166-.27.263-.247.195.047.27.167.343.287-.046.195-.166.27-.384.32Z"/>
  <g opacity=".7">
    <path fill="#FEFEFE" d="M29.745 69.66s-.76-.693-.663-.67c.023-.097.653-.153.653-.153.098.022.349.698.349.698l-.338.126Z"/>
    <path stroke="#FEFEFE" stroke-linecap="round" stroke-linejoin="round" stroke-width=".4" d="M29.745 69.66s-.76-.693-.663-.67c.023-.097.653-.153.653-.153.098.022.349.698.349.698l-.338.126Z"/>
    <path fill="#FEFEFE" d="m29.46 66.099.9 2.269s.177.556.733.38c.63-.057 2.177-.513 2.177-.513s-.149-.24-.561-.235a1.388 1.388 0 0 1-.876-.208c-.269-.166-.83-.402-.806-.5-.098-.022-.538-.332-.59-.55-.17-.144-.17-.143-.514-.43-.343-.287-.463-.213-.463-.213Z"/>
    <path stroke="#FEFEFE" stroke-linecap="round" stroke-linejoin="round" stroke-width=".4" d="m29.46 66.099.9 2.269s.177.556.733.38c.63-.057 2.177-.513 2.177-.513s-.149-.24-.561-.235a1.388 1.388 0 0 1-.876-.208c-.269-.166-.83-.402-.806-.5-.098-.022-.538-.332-.59-.55-.17-.144-.17-.143-.514-.43-.343-.287-.463-.213-.463-.213Z"/>
    <path fill="#FEFEFE" d="M28.59 48.524c-.218.051-.287.343-.315.028-.125-.338-.56-.236-.56-.236l-.385.32s-.046.195.125.338c.075.12.32.385.44.31 0 0-.263.246-.281.756-.041.607.038 1.14.135 1.162-.023.098.228.774.228.774l-.092.389c-.046.194.005.412.005.412s-1.18.645-1.25.937c-.092.39-.305.853-.305.853s.033.727.01.824l.103.436s.686.573.76.694l.779.184c.097.023.87-.204.87-.204s.39.092.394.504c.005.412-.018.51-.04.607-.121.074.074.12.074.12.097.023-.088.802-.254 1.07-.167.27-.356.636-.402.83-.023.098-.38.733-.38.733l-.017.51.2.458s.101.435.055.63c-.12.074-.166.268-.263.245-.075-.12-.367-.19-.367-.19l-.24.15.171.143.149.24s-.26.659-.208.876c-.07.292.033.727.033.727l.292.07.371.602-.384.32s.412-.005.607.04c.074.121.538.334.538.334l-.384.32-2.974.836s-.56-.235-.76-.694c-.297-.481-.279-.99-.57-1.06-.293-.07-.436.102-.677.25-.143.172.246.265-.144.172-.268-.166-.908-.934-1.034-1.272-.028-.315.105-1.312.129-1.409.023-.097.263-.245.138-.584-.028-.315-.558-1.982-.563-2.394-.125-.338-.028-.315-.056-.63-.051-.218.046-.195-.08-.533-.027-.315.144-.171-.079-.532-.2-.459-.176-.556-.325-.797-.148-.24-.32-.384-.297-.481-.074-.12.213-.464.26-.658-.075-.12-.515-.43-.515-.43l.092-.39c.023-.097-.028-.315-.005-.412-.075-.12-.292-.07-.487-.116-.194-.046-.24.149-.389-.092-.051-.217-.205-.87-.302-.893.023-.098-.32-.385-.297-.482-.097-.023-.315.028-.686-.574-.492-.527-.766-1.106-.645-1.18.023-.098.235-.561.235-.561s-1.095-2.315-1.17-2.435c-.05-.218.019-.51-.055-.63-.052-.218-.08-.533-.057-.63.023-.098-.256-1.089-.233-1.186.047-.195.213-.463.26-.658.022-.097-.915-1.347-1.314-2.264-.279-.991.036-1.02.082-1.214-.05-.218.11-.899.134-.996-.052-.218-.028-.315-.028-.315s-.571-1.06-.604-1.787c-.034-.728.494-1.22-.22-2.108-.691-.986-.663-.671-.863-1.13-.125-.338-1.085-1.49-1.234-1.73-.171-.144-.274-.58-.25-.677.045-.195.143-.171.064-.704-.08-.533.059-1.117.059-1.117.023-.097-.52-.842-.622-1.277-.126-.338-.044-1.552.002-1.747-.05-.217.254-1.07.203-1.288.023-.097-.061-1.042-.038-1.14 0 0 .481-.296.504-.394.046-.194.218-.05-.102-.435-.32-.384-.612-.453-.612-.453s.361-.223.013-.922c-.25-.676-.325-.797-.473-1.038-.052-.217-.029-.315-.08-.532-.05-.218-.245-.264-.32-.384-.074-.12-.292-.07.213-.464s.98-1.103 1.147-1.372c.07-.292.093-.39.042-.607-.052-.218-.159-1.065-.405-1.33-.246-.263.564-1.51.707-1.681.046-.195.07-.292.167-.27.12-.074.292.07.532-.079.315-.028 1.524-.358 1.621-.335.12-.074.39.093.39.093l.76.694.249-1.483 1.69-.627s.663.671 1.224.907c.584.138 2.34.966 2.34.966l2.72.233 2.238.53.801.088s.269.167.246.264c.097.023-.203 1.288-.249 1.482-.069.292-.29 2.09-.29 2.09s.945-.084 1.163-.136c.218-.05 2.52-.224 2.52-.224s.166-.27.19-.367c.022-.097.652-.153.652-.153s.597-.783.643-.978c.046-.195.333-.538.403-.83.069-.292.036-1.019-.016-1.236.023-.098-.148-.241.31-.44.459-.2.653-.154.779.184.148.24.371.601.496.94.051.217.274.578-.276 1.167a223.6 223.6 0 0 1-1.985 2.304l-2.15 4.732.005.412s.266 1.913.197 2.205c.028.315.084.945.182.968-.024.098.102.436.176.556.074.12-.046.195-.092.39-.046.194-.018.509.033.727-.046.194.13.75.228.773-.023.097.102.435.079.532-.12.075-.24.15-.361.223l1.39.638c.12-.074.704.064.876.208.292.069.515.43.515.43l-.093.39s-.115.486.154.652c.246.264.732.38.83.403a.438.438 0 0 1 .268.166s.228.773-.082 1.214a8.456 8.456 0 0 0-.397 1.242c-.023.097-.213.463-.213.463s-1.17 1.47-2.546 2.069c-1.375.599-2.996.934-2.996.934l-.292-.07s.028.316.177.556c.051.218.223.361.223.361s.268.167.32.384c.171.144.125.339-.018.51-.144.172-.064.704.01.825l.491.527s-.19.367-.287.344c-.023.097-.481.296-.481.296s.269.167-.19.367c-.435.102-2.084.122-2.181.099-.098-.023-.436.102-.436.102s-.12.075.005.413c.028.315.325.796.474 1.037.148.24.228.773.228.773s.148.241.245.264l.51.018.24-.148"/>
    <path stroke="#FEFEFE" stroke-linecap="round" stroke-linejoin="round" stroke-width=".4" d="M28.59 48.524c-.218.051-.287.343-.315.028-.125-.338-.56-.236-.56-.236l-.385.32s-.046.195.125.338c.075.12.32.385.44.31 0 0-.263.246-.281.756-.041.607.038 1.14.135 1.162-.023.098.228.774.228.774l-.092.389c-.046.194.005.412.005.412s-1.18.645-1.25.937c-.092.39-.305.853-.305.853s.033.727.01.824l.103.436s.686.573.76.694l.779.184c.097.023.87-.204.87-.204s.39.092.394.504c.005.412-.018.51-.04.607-.121.074.074.12.074.12.097.023-.088.802-.254 1.07-.167.27-.356.636-.402.83-.023.098-.38.733-.38.733l-.017.51.2.458s.101.435.055.63c-.12.074-.166.268-.263.245-.075-.12-.367-.19-.367-.19l-.24.15.171.143.149.24s-.26.659-.208.876c-.07.292.033.727.033.727l.292.07.371.602-.384.32s.412-.005.607.04c.074.121.538.334.538.334l-.384.32-2.974.836s-.56-.235-.76-.694c-.297-.481-.279-.99-.57-1.06-.293-.07-.436.102-.677.25-.143.172.246.265-.144.172-.268-.166-.908-.934-1.034-1.272-.028-.315.105-1.312.129-1.409.023-.097.263-.245.138-.584-.028-.315-.558-1.982-.563-2.394-.125-.338-.028-.315-.056-.63-.051-.218.046-.195-.08-.533-.027-.315.144-.171-.079-.532-.2-.459-.176-.556-.325-.797-.148-.24-.32-.384-.297-.481-.074-.12.213-.464.26-.658-.075-.12-.515-.43-.515-.43l.092-.39c.023-.097-.028-.315-.005-.412-.075-.12-.292-.07-.487-.116-.194-.046-.24.149-.389-.092-.051-.217-.205-.87-.302-.893.023-.098-.32-.385-.297-.482-.097-.023-.315.028-.686-.574-.492-.527-.766-1.106-.645-1.18.023-.098.235-.561.235-.561s-1.095-2.315-1.17-2.435c-.05-.218.019-.51-.055-.63-.052-.218-.08-.533-.057-.63.023-.098-.256-1.089-.233-1.186.047-.195.213-.463.26-.658.022-.097-.915-1.347-1.314-2.264-.279-.991.036-1.02.082-1.214-.05-.218.11-.899.134-.996-.052-.218-.028-.315-.028-.315s-.571-1.06-.604-1.787c-.034-.728.494-1.22-.22-2.108-.691-.986-.663-.671-.863-1.13-.125-.338-1.085-1.49-1.234-1.73-.171-.144-.274-.58-.25-.677.045-.195.143-.171.064-.704-.08-.533.059-1.117.059-1.117.023-.097-.52-.842-.622-1.277-.126-.338-.044-1.552.002-1.747-.05-.217.254-1.07.203-1.288.023-.097-.061-1.042-.038-1.14 0 0 .481-.296.504-.394.046-.194.218-.05-.102-.435-.32-.384-.612-.453-.612-.453s.361-.223.013-.922c-.25-.676-.325-.797-.473-1.038-.052-.217-.029-.315-.08-.532-.05-.218-.245-.264-.32-.384-.074-.12-.292-.07.213-.464s.98-1.103 1.147-1.372c.07-.292.093-.39.042-.607-.052-.218-.159-1.065-.405-1.33-.246-.263.564-1.51.707-1.681.046-.195.07-.292.167-.27.12-.074.292.07.532-.079.315-.028 1.524-.358 1.621-.335.12-.074.39.093.39.093l.76.694.249-1.483 1.69-.627s.663.671 1.224.907c.584.138 2.34.966 2.34.966l2.72.233 2.238.53.801.088s.269.167.246.264c.097.023-.203 1.288-.249 1.482-.069.292-.29 2.09-.29 2.09s.945-.084 1.163-.136c.218-.05 2.52-.224 2.52-.224s.166-.27.19-.367c.022-.097.652-.153.652-.153s.597-.783.643-.978c.046-.195.333-.538.403-.83.069-.292.036-1.019-.016-1.236.023-.098-.148-.241.31-.44.459-.2.653-.154.779.184.148.24.371.601.496.94.051.217.274.578-.276 1.167a223.6 223.6 0 0 1-1.985 2.304l-2.15 4.732.005.412s.266 1.913.197 2.205c.028.315.084.945.182.968-.024.098.102.436.176.556.074.12-.046.195-.092.39-.046.194-.018.509.033.727-.046.194.13.75.228.773-.023.097.102.435.079.532-.12.075-.24.15-.361.223l1.39.638c.12-.074.704.064.876.208.292.069.515.43.515.43l-.093.39s-.115.486.154.652c.246.264.732.38.83.403a.438.438 0 0 1 .268.166s.228.773-.082 1.214a8.456 8.456 0 0 0-.397 1.242c-.023.097-.213.463-.213.463s-1.17 1.47-2.546 2.069c-1.375.599-2.996.934-2.996.934l-.292-.07s.028.316.177.556c.051.218.223.361.223.361s.268.167.32.384c.171.144.125.339-.018.51-.144.172-.064.704.01.825l.491.527s-.19.367-.287.344c-.023.097-.481.296-.481.296s.269.167-.19.367c-.435.102-2.084.122-2.181.099-.098-.023-.436.102-.436.102s-.12.075.005.413c.028.315.325.796.474 1.037.148.24.228.773.228.773s.148.241.245.264l.51.018.24-.148"/>
    <path fill="#FEFEFE" fill-rule="evenodd" d="M35.073 64.963c-.065-.016-.09-.056-.074-.12.097.022.292.069.315-.029-.098-.023-.172-.143-.075-.12.12-.074.292.07.241-.148-.023.097-.12.074-.12.074.08-.05.128-.107.143-.172 0 0-.097-.023-.074-.12-.023.097-.218.05-.269-.167.195.046.412-.005.459-.2-.098-.023-.292-.069-.316.029-.171-.144.024-.098.047-.195-.098-.023-.241.149-.315.028l.023-.097c.218-.051.486.115.63-.056-.292-.07.264-.246.24-.149.12-.074.241-.148.339-.125 0 0-.098-.023.023-.098 0 0 .12-.074.194.047-.12.074.028.315-.212.463-.047.195-.162.681-.26.658 0 0-.073-.12-.096-.023.05.218-.12.074-.144.172.074.12.028.315-.166.268.049.08.034.146-.047.195-.097-.023-.148-.24-.268-.166.097.023.194.046.074.12-.098-.023-.172-.143-.292-.07Zm.379-.732c.12-.075.074.12.172.143-.075-.12-.052-.218.046-.195l.023-.097-.241.149Z" clip-rule="evenodd"/>
    <path stroke="#FEFEFE" stroke-linecap="round" stroke-linejoin="round" stroke-width=".4" d="M35.073 64.963c-.065-.016-.09-.056-.074-.12.097.022.292.069.315-.029-.098-.023-.172-.143-.075-.12.12-.074.292.07.241-.148-.023.097-.12.074-.12.074.08-.05.128-.107.143-.172 0 0-.097-.023-.074-.12-.023.097-.218.05-.269-.167.195.046.412-.005.459-.2-.098-.023-.292-.069-.316.029-.171-.144.024-.098.047-.195-.098-.023-.241.149-.315.028l.023-.097c.218-.051.486.115.63-.056-.292-.07.264-.246.24-.149.12-.074.241-.148.339-.125 0 0-.098-.023.023-.098 0 0 .12-.074.194.047-.12.074.028.315-.212.463-.047.195-.162.681-.26.658 0 0-.073-.12-.096-.023.05.218-.12.074-.144.172.074.12.028.315-.166.268.049.08.034.146-.047.195-.097-.023-.148-.24-.268-.166.097.023.194.046.074.12-.098-.023-.172-.143-.292-.07Zm.379-.732c.12-.075.074.12.172.143-.075-.12-.052-.218.046-.195l.023-.097-.241.149Z" clip-rule="evenodd"/>
    <path fill="#FEFEFE" fill-rule="evenodd" d="M36.674 62.978c.097.023.315-.028.532-.079.05.08.107.128.172.143.07-.291.481-.296.51.019-.12.074-.195-.047-.339.125.075.12.339-.126.413-.005-.12.074-.023.097-.046.194-.12.075-.241.15-.338.126.074.12-.07.292-.167.269l-.12.074c-.195-.046-.241.149-.413.005.172.144.292.07.487.116-.023.097.051.217-.07.291.024-.097-.074-.12-.074-.12-.097-.023-.023.097-.143.172-.097-.024-.269-.167-.292-.07.12-.074.172.144.172.144s.023-.098.097.023c-.097-.023-.023.097-.023.097-.12.074-.292-.07-.412.005.097.023.171.143.245.264l-.12.074c-.074-.12-.269-.166-.44-.31.217-.051.023-.097.069-.292.12-.074.046-.194.046-.194.218-.052.092-.39.384-.32-.074-.12-.171-.144-.269-.167.047-.194.218-.051.144-.171-.098-.023-.12.074-.195-.047.12-.074.12-.074.264-.245 0 0-.097-.023-.074-.12Zm.83.403c-.035-.146-.084-.226-.15-.241l-.022.097-.075-.12c-.023.097-.074-.12-.194-.046.148.24.292.069.44.31Z" clip-rule="evenodd"/>
    <path stroke="#FEFEFE" stroke-linecap="round" stroke-linejoin="round" stroke-width=".4" d="M36.674 62.978c.097.023.315-.028.532-.079.05.08.107.128.172.143.07-.291.481-.296.51.019-.12.074-.195-.047-.339.125.075.12.339-.126.413-.005-.12.074-.023.097-.046.194-.12.075-.241.15-.338.126.074.12-.07.292-.167.269l-.12.074c-.195-.046-.241.149-.413.005.172.144.292.07.487.116-.023.097.051.217-.07.291.024-.097-.074-.12-.074-.12-.097-.023-.023.097-.143.172-.097-.024-.269-.167-.292-.07.12-.074.172.144.172.144s.023-.098.097.023c-.097-.023-.023.097-.023.097-.12.074-.292-.07-.412.005.097.023.171.143.245.264l-.12.074c-.074-.12-.269-.166-.44-.31.217-.051.023-.097.069-.292.12-.074.046-.194.046-.194.218-.052.092-.39.384-.32-.074-.12-.171-.144-.269-.167.047-.194.218-.051.144-.171-.098-.023-.12.074-.195-.047.12-.074.12-.074.264-.245 0 0-.097-.023-.074-.12Zm.83.403c-.035-.146-.084-.226-.15-.241l-.022.097-.075-.12c-.023.097-.074-.12-.194-.046.148.24.292.069.44.31Z" clip-rule="evenodd"/>
  </g>
  <path fill="#3E89C8" d="M30.645 69.771s-.76-.694-.64-.768l.63-.056c.12-.075.37.601.37.601l-.36.223Zm-.287-3.563.901 2.27s.2.458.733.379c.653-.154 2.2-.61 2.2-.61s-.149-.24-.561-.235a1.388 1.388 0 0 1-.876-.208c-.292-.069-.83-.402-.83-.402-.074-.12-.514-.43-.588-.55-.149-.241-.149-.241-.515-.43-.343-.288-.463-.214-.463-.214Zm3.09-32.976c.12-.074.681.162.876.208.269.166.514.43.514.43l-.092.39s-.115.486.13.75c.172.143.733.379.853.305.195.046.269.166.269.166s.13.75-.105 1.311a6.772 6.772 0 0 0-.374 1.145c-.023.097-.213.463-.213.463s-1.194 1.567-2.569 2.166-2.973.837-2.973.837l-.315.028s.028.315.2.458a.747.747 0 0 0 .222.361s.246.264.32.385c.149.24.005.412-.018.51-.143.17-.064.703.01.824-.023.097.469.625.469.625s-.19.366-.287.343l-.458.2s.245.263-.19.366c-.458.2-2.205.196-2.279.076-.097-.023-.338.125-.338.125s-.143.172-.115.487c.125.338.445.722.593.963.149.24.205.87.205.87l.172.144c.097.023.607.041.607.041l.217-.051s.218-.051.19-.366c.07-.292.264-.246.338-.126.074.12.274.58.274.58s.148.24-.07.291c-.217.051-.286.343-.337.126-.126-.338-.561-.236-.561-.236l-.384.32s-.023.097.148.24c.051.218.32.385.32.385l.098.023s-.264.245-.282.755c-.018.51.06 1.042.135 1.163l.25.676-.091.39c-.07.291-.018.509-.018.509s-1.158.547-1.25.937c-.093.389-.282.755-.282.755s-.064.704.01.825c-.023.097.102.435.102.435s.663.67.76.694c.172.143.585.138.78.184.097.024.847-.107.847-.107s.389.092.417.407c-.092.39-.04.607-.161.681-.023.098.074.12.171.144.098.023-.064.704-.23.973-.167.269-.454.612-.5.806-.046.195-.282.756-.282.756l-.018.51.177.555s.102.436.08.533c-.144.171-.265.246-.265.246-.097-.023-.366-.19-.366-.19l-.264.246.172.143.171.144s-.258.658-.23.973c-.046.194-.041.607-.041.607l.366.19.371.6-.361.224s.412-.005.584.138c.097.023.537.333.537.333l-.384.32-2.973.837s-.538-.333-.737-.792c-.297-.481-.28-.99-.571-1.06-.315.028-.459.2-.7.348-.12.075.15.241-.12.075-.292-.07-.932-.838-1.057-1.176-.102-.435.105-1.311.151-1.506.023-.097.264-.246.139-.584-.051-.217-.581-1.884-.684-2.32-.005-.412.093-.389.042-.607-.052-.217-.029-.315-.08-.532-.028-.315.046-.195-.056-.63-.223-.361-.176-.556-.325-.797-.171-.143-.343-.286-.32-.384-.074-.12.236-.56.162-.681.023-.097-.492-.527-.492-.527s.143-.172.166-.27c.023-.097-.005-.412.018-.509-.097-.023-.389-.092-.51-.018-.194-.046-.24.148-.388-.092-.028-.315-.205-.871-.28-.991.024-.098-.342-.287-.32-.384-.073-.12-.314.028-.685-.574-.469-.625-.743-1.204-.72-1.301.12-.074.333-.538.333-.538s-1.118-2.218-1.17-2.435c-.074-.12.018-.51-.056-.63s-.079-.533-.079-.533c.023-.097-.256-1.088-.21-1.283.046-.194.213-.463.236-.56.046-.195-.914-1.348-1.29-2.362-.302-.894-.084-.945-.015-1.237l.23-.973c-.074-.12-.028-.315-.028-.315s-.594-.963-.627-1.69c-.13-.75.495-1.219-.197-2.205-.69-.986-.663-.67-.885-1.032-.103-.435-1.063-1.588-1.234-1.731-.172-.144-.274-.58-.228-.774.023-.097.143-.171.064-.704-.102-.435.036-1.02.06-1.116.022-.098-.52-.843-.646-1.181-.102-.435-.043-1.552-.094-1.77.046-.194.374-1.144.3-1.264.023-.098-.159-1.066-.038-1.14.023-.097.481-.297.527-.492.023-.097.218-.05-.125-.338-.32-.384-.612-.453-.612-.453s.36-.223.036-1.02c-.25-.675-.348-.698-.497-.939-.028-.315-.028-.315-.079-.533-.028-.315-.246-.263-.32-.384-.051-.218-.39-.092.115-.486.528-.492 1.102-1.178 1.268-1.447.07-.292.092-.39.041-.607-.074-.12-.158-1.065-.404-1.329-.246-.264.564-1.51.61-1.705.143-.172.166-.27.264-.246 0 0 .291.07.51.018.24-.148 1.523-.358 1.643-.432.097.023.366.189.366.189l.784.597.248-1.483 1.668-.53s.566.649 1.15.787c.56.236 2.414 1.086 2.414 1.086l2.72.234 2.237.53.704.064.367.19c.074.12-.203 1.288-.272 1.58-.07.292-.29 2.09-.29 2.09s.945-.085 1.163-.136c.24-.148 2.52-.225 2.52-.225s.069-.292.189-.366c.023-.097.653-.154.653-.154s.62-.88.666-1.075c.046-.194.333-.538.402-.83.07-.291.013-.921-.038-1.139-.051-.218-.148-.24.31-.44.458-.2.556-.177.802.087.125.338.348.699.496.94.028.315.274.579-.3 1.265-.55.589-1.962 2.206-1.962 2.206l-2.27 4.806.103.436s.289 1.816.197 2.205c.028.315.107.848.181.968 0 0 .126.338.177.556.074.12-.023.097-.07.291-.143.172-.04.607-.087.802.075.12.251.676.325.796 0 0 .126.338.005.413-.023.097-.166.268-.286.343l1.413.54Z"/>
  <path fill="#3E89C8" fill-rule="evenodd" d="M35.898 64.952c.097.023.314-.028.24-.148 0 0-.097-.023.023-.097.12-.074.292.069.218-.051 0 0-.12.074-.097-.024.065.016.105-.009.12-.074.023-.097-.074-.12-.051-.218-.12.075-.218.052-.292-.069.218-.05.435-.102.458-.2l-.389-.092c-.074-.12.12-.074.12-.074-.097-.023-.217.051-.291-.069l.023-.097c.194.046.366.19.607.04-.292-.068.286-.342.24-.148.12-.074.241-.148.338-.125 0 0-.171-.144-.05-.218.073.12.194.046.291.07-.12.074-.092.389-.31.44.051.218-.064.704-.184.778l-.075-.12c.051.218-.143.171-.166.269.097.023.051.217-.144.171.035.145.011.243-.069.292-.097-.023-.125-.338-.269-.166l.098.023c-.12.074-.195-.046-.39-.093Zm.453-.611c.12-.075.074.12.194.046-.074-.12-.171-.144.023-.097l.024-.098c-.145.034-.226.084-.241.149Z" clip-rule="evenodd"/>
  <path fill="#3E89C8" fill-rule="evenodd" d="m37.475 63.065.098.023c.097.023.315-.028.555-.176.05.08.107.128.172.143.046-.194.458-.2.486.116-.12.074-.291-.07-.315.028.075.12.339-.126.39.092-.12.074 0 0-.023.097-.12.075-.264.246-.361.223.074.12-.047.195-.167.269l-.097-.023c-.218.051-.338.125-.436.102.172.144.292.07.487.115-.023.098.074.12-.046.195.023-.097-.098-.023-.075-.12-.12.074-.046.194-.143.171-.097-.023-.269-.166-.315.028.144-.171.195.046.172.144 0 0 .023-.098.12-.075-.097-.023-.046.195-.046.195-.097-.023-.292-.07-.412.005.097.023.171.143.245.264l-.097-.023c-.171-.144-.269-.166-.463-.213.217-.05.046-.194-.005-.412.194.046.12-.074.143-.172.195.046.092-.389.361-.222-.051-.218-.171-.144-.246-.264.023-.097.12-.074.144-.172-.097-.023-.12.075-.195-.046.098.023.12-.074.24-.148.024-.098-.096-.023-.17-.144Zm.95.328-.148-.24-.023.097c-.065-.016-.09-.056-.075-.12-.12.074-.097-.024-.217.05.171.144.292.07.463.213Z" clip-rule="evenodd"/>
  <path stroke="#2C4265" stroke-linecap="round" stroke-linejoin="round" stroke-width=".4" d="M21.925 58.865s.202-1.287.174-1.602c-.05-.218-.335-1.621 1.125-1.275 1.556.369.724 1.713.724 1.713s-.592 1.196-.466 1.533"/>
  <path stroke="#22B24E" stroke-linecap="round" stroke-linejoin="round" stroke-width=".4" d="M22.022 58.889s.203-1.288.272-1.58c-.051-.218-.433-1.644 1.124-1.275 1.46.346.627 1.69.627 1.69s-.494 1.219-.466 1.534"/>
  <path stroke="#2B0A41" stroke-linecap="round" stroke-linejoin="round" stroke-width=".4" d="M22.36 58.763s.323-1.362.272-1.58c-.028-.315-.289-1.815 1.17-1.47 1.437.444.605 1.788.605 1.788s-.518 1.316-.513 1.729"/>
  <path fill="#825AA5" d="M18.929 59.8s1.276-2.781 3.44-2.371l1.07.254s2.284.336 2.537 3.17c0 0 .181.968-1.57.553-1.775-.318-4.305-.917-4.305-.917s-1.31-.106-1.172-.69Z"/>
  <path fill="url(#a)" d="M18.929 59.8s1.276-2.781 3.44-2.371l1.07.254s2.284.336 2.537 3.17c0 0 .181.968-1.57.553-1.775-.318-4.305-.917-4.305-.917s-1.31-.106-1.172-.69Z" style="mix-blend-mode:multiply"/>
  <g opacity=".3" style="mix-blend-mode:multiply">
    <path fill="#78469B" d="M19.318 59.892s1.276-2.78 3.342-2.394Z"/>
    <path stroke="#050505" stroke-width=".4" d="M19.318 59.892s1.276-2.78 3.342-2.394"/>
  </g>
  <path fill="#78469B" d="M19.902 60.03s1.201-2.901 3.05-2.463l.876.208s1.992.266 2.148 3.078c0 0 .084.945-1.376.6-1.46-.347-3.72-.78-3.72-.78s-1.094-.157-.978-.643Z"/>
  <path fill="url(#b)" d="M20.217 60.002c-.116.486.903.522.903.522l1.655.392c.115-.486.156-1.093.415-1.751-.292-.07-.705-.064-.9-.11-.291-.07-.509-.018-.629.056-.195-.046-.945.084-1.042.061-.31.44-.402.83-.402.83Zm.402-.83c.097.023.847-.107 1.042-.061.12-.074.338-.125.63-.056.194.046.607.04.899.11a9.8 9.8 0 0 1 .42-1.34c-.195-.045-.39-.091-.584-.138-.607-.04-1.163.136-1.547.456-.384.32-.67.663-.86 1.03Zm2.156 1.744 1.654.393c1.385.225 1.352-.502 1.352-.502-.022-.485-.1-.88-.233-1.186-.223-.36-.607-.04-1.265-.3-.292-.069-.704-.064-.899-.11l-.194-.046c-.259.658-.3 1.265-.415 1.751Zm.415-1.751.194.046c.195.046.607.041.9.11.657.26 1.041-.06 1.264.3a3.274 3.274 0 0 0-.274-.578c-.57-1.06-1.47-1.171-1.47-1.171l-.194-.046a9.88 9.88 0 0 0-.42 1.339Z" style="mix-blend-mode:multiply"/>
  <path fill="#ED2545" d="M25.003 60.622c-.876-.207-1.867.072-2.743-.136-.003-.275.018-.51.064-.704.876.208 1.867-.071 2.743.136-.062.26-.083.494-.064.704Z" opacity=".5"/>
  <path fill="#FEFEFE" d="m22.598 60.361-.097-.023a349.822 349.822 0 0 1 .092-.389l.292.07-.023.097-.195-.047-.023.098c.065.015.138-.002.218-.051l-.023.097c-.08.05-.153.066-.218.051.065.015.09.056.074.12l-.097-.023Z"/>
  <path fill="#FEFEFE" fill-rule="evenodd" d="m23.033 60.259-.023.097a62.294 62.294 0 0 1-.097-.023c-.015.065-.015.065 0 0-.05-.08-.059-.185-.028-.315l.195.046c.08-.05.112-.042.097.023l.097.023-.023.097-.023.098.097.023-.023.097-.097-.023-.097-.023c.015-.065-.01-.105-.075-.12Zm-.074-.12a162.465 162.465 0 0 0 .195.045l.023-.097-.097-.023c-.016.065-.056.09-.12.074Z" clip-rule="evenodd"/>
  <path fill="#FEFEFE" fill-rule="evenodd" d="m23.617 60.398.023-.098c-.065-.015-.137.002-.218.051-.064-.015-.105.01-.12.075l.023-.098c.016-.065.071-.154.167-.269.065.016.105-.009.12-.074.034.145.076.258.126.338-.016.065-.056.09-.12.075Zm-.171-.144.097.023.023-.097-.12.074Z" clip-rule="evenodd"/>
  <path fill="#FEFEFE" d="m23.858 60.249.097.023.023-.098c.065.016.138-.002.218-.051l-.023.097-.023.098-.12.074-.098-.023a62.294 62.294 0 0 1-.097-.023c-.065-.016-.09-.056-.074-.12l.046-.195c.065.015.137-.002.217-.051l.098.023-.023.097-.098-.023c-.065-.015-.105.01-.12.074l-.023.098Z"/>
  <path fill="#FEFEFE" d="m24.15 60.318.069-.292.097.023-.069.292-.097-.023Z"/>
  <path fill="#FEFEFE" d="m24.465 60.29.097.023.074.12-.097-.023-.195-.046-.097-.023c.03-.13.054-.227.07-.292.064.015.104-.01.12-.074l-.023.097c-.016.065.001.137.05.218Z"/>
  <path fill="#FEFEFE" d="m24.706 60.142-.023.097-.024.097.024-.097-.075-.12.023-.098.098.023-.023.098Zm-.047.194.098.023-.023.097-.098-.023.023-.097Z"/>
  <path stroke="#78469B" stroke-linecap="round" stroke-linejoin="round" stroke-width=".4" d="M22.263 58.74s.323-1.363.272-1.58c-.029-.315-.387-1.839 1.17-1.47 1.437.443.604 1.788.604 1.788s-.518 1.316-.512 1.728"/>
  <path fill="#78469B" stroke="#78469B" stroke-width=".4" d="m22.365 59.175-.389-.092.254-1.07.389.092-.254 1.07Z"/>
  <path fill="#33469C" stroke="#78469B" stroke-width=".4" d="m22.411 58.98-.412.006.185-.779.389.092-.162.681Z"/>
  <path fill="#78469B" stroke="#78469B" stroke-width=".4" d="m23.945 59.447-.51-.018.254-1.07.487.115-.23.973Z"/>
  <path fill="#33469C" stroke="#78469B" stroke-width=".4" d="m23.87 59.327-.291-.07.184-.778.292.07-.184.778Z"/>
  <path fill="#33469C" d="m19.37 60.11-.098-.024.046-.194.097.023-.046.194Zm-.098-.024-.167.269.098.023.069-.292Z"/>
  <path fill="#FECF1B" stroke="#F48125" stroke-width=".4" d="M22.616 59.851c-.046.195-.19.366-.384.32a.43.43 0 0 1-.297-.481c.046-.195.264-.246.458-.2.12-.074.269.167.223.361Z"/>
  <path fill="#F37523" stroke="#F48125" stroke-width=".4" d="m22.473 60.023-.51-.018.115-.486.487.115-.092.389Z"/>
  <path stroke="#2C4265" stroke-linecap="round" stroke-linejoin="round" stroke-width=".4" d="M21.925 58.865s.202-1.287.174-1.602c-.05-.218-.335-1.621 1.125-1.275 1.556.369.724 1.713.724 1.713s-.592 1.196-.466 1.533"/>
  <path stroke="#0A7857" stroke-linecap="round" stroke-linejoin="round" stroke-width=".4" d="M22.022 58.889s.203-1.288.272-1.58c-.051-.218-.433-1.644 1.124-1.275 1.46.346.627 1.69.627 1.69s-.494 1.219-.466 1.534"/>
  <path stroke="#32BBA4" stroke-linecap="round" stroke-linejoin="round" stroke-width=".4" d="M22.36 58.763s.323-1.362.272-1.58c-.028-.315-.289-1.815 1.17-1.47 1.437.444.605 1.788.605 1.788s-.518 1.316-.513 1.729"/>
  <path fill="#B2DFDB" d="M18.929 59.8s1.276-2.781 3.44-2.371l1.07.254s2.284.336 2.537 3.17c0 0 .181.968-1.57.553-1.775-.318-4.305-.917-4.305-.917s-1.31-.106-1.172-.69Z"/>
  <path fill="url(#c)" d="M18.929 59.8s1.276-2.781 3.44-2.371l1.07.254s2.284.336 2.537 3.17c0 0 .181.968-1.57.553-1.775-.318-4.305-.917-4.305-.917s-1.31-.106-1.172-.69Z" style="mix-blend-mode:multiply"/>
  <path stroke="#050505" stroke-width=".4" d="M19.318 59.892s1.276-2.78 3.342-2.394" opacity=".3" style="mix-blend-mode:multiply"/>
  <path fill="#80C9A0" d="M19.902 60.03s1.201-2.901 3.05-2.463l.876.208s1.992.266 2.148 3.078c0 0 .084.945-1.376.6-1.46-.347-3.72-.78-3.72-.78s-1.094-.157-.978-.643Z"/>
  <path fill="url(#d)" d="M20.217 60.002c-.116.486.903.522.903.522l1.655.392c.115-.486.156-1.093.415-1.751-.292-.07-.705-.064-.9-.11-.291-.07-.509-.018-.629.056-.195-.046-.945.084-1.042.061-.31.44-.402.83-.402.83Zm.402-.83c.097.023.847-.107 1.042-.061.12-.074.338-.125.63-.056.194.046.607.04.899.11a9.8 9.8 0 0 1 .42-1.34c-.195-.045-.39-.091-.584-.138-.607-.04-1.163.136-1.547.456-.384.32-.67.663-.86 1.03Zm2.156 1.744 1.654.393c1.385.225 1.352-.502 1.352-.502-.022-.485-.1-.88-.233-1.186-.223-.36-.607-.04-1.265-.3-.292-.069-.704-.064-.899-.11l-.194-.046c-.259.658-.3 1.265-.415 1.751Zm.415-1.751.194.046c.195.046.607.041.9.11.657.26 1.041-.06 1.264.3a3.274 3.274 0 0 0-.274-.578c-.57-1.06-1.47-1.171-1.47-1.171l-.194-.046a9.88 9.88 0 0 0-.42 1.339Z" style="mix-blend-mode:multiply"/>
  <path fill="#ED2545" d="M25.003 60.622c-.876-.207-1.867.072-2.743-.136-.003-.275.018-.51.064-.704.876.208 1.867-.071 2.743.136-.062.26-.083.494-.064.704Z" opacity=".5"/>
  <path fill="#FEFEFE" d="m22.598 60.361-.097-.023a349.822 349.822 0 0 1 .092-.389l.292.07-.023.097-.195-.047-.023.098c.065.015.138-.002.218-.051l-.023.097c-.08.05-.153.066-.218.051.065.015.09.056.074.12l-.097-.023Z"/>
  <path fill="#FEFEFE" fill-rule="evenodd" d="m23.033 60.259-.023.097a62.294 62.294 0 0 1-.097-.023c-.015.065-.015.065 0 0-.05-.08-.059-.185-.028-.315l.195.046c.08-.05.112-.042.097.023l.097.023-.023.097-.023.098.097.023-.023.097-.097-.023-.097-.023c.015-.065-.01-.105-.075-.12Zm-.074-.12a162.465 162.465 0 0 0 .195.045l.023-.097-.097-.023c-.016.065-.056.09-.12.074Z" clip-rule="evenodd"/>
  <path fill="#FEFEFE" fill-rule="evenodd" d="m23.617 60.398.023-.098c-.065-.015-.137.002-.218.051-.064-.015-.105.01-.12.075l.023-.098c.016-.065.071-.154.167-.269.065.016.105-.009.12-.074.034.145.076.258.126.338-.016.065-.056.09-.12.075Zm-.171-.144.097.023.023-.097-.12.074Z" clip-rule="evenodd"/>
  <path fill="#FEFEFE" d="m23.858 60.249.097.023.023-.098c.065.016.138-.002.218-.051l-.023.097-.023.098-.12.074-.098-.023a62.294 62.294 0 0 1-.097-.023c-.065-.016-.09-.056-.074-.12l.046-.195c.065.015.137-.002.217-.051l.098.023-.023.097-.098-.023c-.065-.015-.105.01-.12.074l-.023.098Z"/>
  <path fill="#FEFEFE" d="m24.15 60.318.069-.292.097.023-.069.292-.097-.023Z"/>
  <path fill="#FEFEFE" d="m24.465 60.29.097.023.074.12-.097-.023-.195-.046-.097-.023c.03-.13.054-.227.07-.292.064.015.104-.01.12-.074l-.023.097c-.016.065.001.137.05.218Z"/>
  <path fill="#FEFEFE" d="m24.706 60.142-.023.097-.024.097.024-.097-.075-.12.023-.098.098.023-.023.098Zm-.047.194.098.023-.023.097-.098-.023.023-.097Z"/>
  <path stroke="#78C7A4" stroke-linecap="round" stroke-linejoin="round" stroke-width=".4" d="M22.263 58.74s.323-1.363.272-1.58c-.029-.315-.387-1.839 1.17-1.47 1.437.443.604 1.788.604 1.788s-.518 1.316-.512 1.728"/>
  <path fill="#996B74" d="m22.365 59.175-.389-.092.254-1.07.389.092-.254 1.07Z"/>
  <path fill="#29B6A4" stroke="#78469B" stroke-width=".4" d="m22.411 58.98-.412.006.185-.779.389.092-.162.681Z"/>
  <path fill="#996B74" d="m23.945 59.447-.51-.018.254-1.07.487.115-.23.973Z"/>
  <path fill="#29B6A4" stroke="#78469B" stroke-width=".4" d="m23.87 59.327-.291-.07.184-.778.292.07-.184.778Z"/>
  <path fill="#33469C" d="m19.37 60.11-.098-.024.046-.194.097.023-.046.194Zm-.098-.024-.167.269.098.023.069-.292Z"/>
  <path fill="#FECF1B" stroke="#F48125" stroke-width=".4" d="M22.616 59.851c-.046.195-.19.366-.384.32a.43.43 0 0 1-.297-.481c.046-.195.264-.246.458-.2.12-.074.269.167.223.361Z"/>
  <path fill="#F37523" stroke="#F48125" stroke-width=".4" d="m22.473 60.023-.51-.018.115-.486.487.115-.092.389Z"/>
  <path fill="#070709" d="m23.485 19.77.366.19c.05.08.041.113-.023.098l-.098-.023-.291-.07s-.098-.023-.029-.315l.046-.194c.016-.065.048-.057.098.023l-.07.292Zm1.001-3.359c-.08.05-.112.042-.097-.023l.023-.097.07-.292s.022-.097.217-.051l.292.07c.05.08.042.112-.023.096l-.482.297Z"/>
  <path fill="#701511" d="m29.866 17.995-.297-.481s-.074-.12-.171-.143l-4.722-1.325a43.661 43.661 0 0 0-.097-.023l2.199 3.296 3.042-1.129c.08-.05.096-.114.046-.195Z"/>
  <path fill="#57130B" d="m24.458 16.097-.95 3.577c-.098-.023-.023.097-.047.195l.297.481.195.046 2.825-1.077-2.2-3.296-.12.074Z"/>
  <path fill="#811517" d="M28.87 21.767c-.016.065-.056.09-.12.074l-4.82-1.348c-.065-.015-.09-.055-.074-.12l1.048-3.554c.015-.065.055-.09.12-.075l4.82 1.348c.064.016.089.056.074.12l-1.048 3.555Z"/>
  <path fill="#822F19" d="M28.795 21.646c-.015.065-.056.09-.12.075l-4.528-1.279c-.05-.08-.066-.153-.05-.218l.88-3.285c.081-.05.154-.066.218-.051l4.528 1.279c.05.08.066.152.05.217l-.978 3.262Z"/>
  <path fill="#82481D" d="M28.72 21.526c-.014.065-.055.09-.12.074l-4.309-1.33c-.065-.015-.09-.055-.074-.12l.835-3.09c.016-.065.088-.083.218-.052l4.31 1.33c.064.015.089.056.074.12l-.933 3.068Z"/>
  <g opacity=".5">
    <path fill="#E2E44C" d="M27.477 18.97c-.236.561-.838.932-1.398.697-.584-.139-.858-.718-.72-1.302.139-.583.74-.955 1.301-.719.584.139.955.74.817 1.324Z"/>
    <path fill="#050505" d="m26.115 18.647-.292-.069.235-.56.195.045-.138.584Zm.778.185-.195-.046.139-.584.195.046-.139.584Zm-1.311-.106s.474 1.037 1.557.37Z"/>
  </g>
  <path stroke="#070709" stroke-width=".4" d="m23.656 19.915 1.071-3.652 4.796 1.445"/>
  <path stroke="#461114" stroke-width=".4" d="m24.727 16.263 4.796 1.445"/>
  <path fill="#070709" d="M26.868 16.77c-.023.098-.12.075-.315.029s-.27-.167-.27-.167a693.682 693.682 0 0 0 .585.139Zm1.534.467c-.024.097-.218.051-.413.005-.097-.023-.268-.166-.268-.166s.217-.052.291.069l.39.092Z"/>
  <path fill="#070709" d="M26.381 16.655s.116-.486.579-.274l.681.162-.046.194-.56-.235s-.316.028-.385.32l-.269-.167Z"/>
  <path fill="#070709" d="M28.207 17.19s.212-.463-.371-.601l-.681-.162-.047.195.584.138s.292.07.223.361l.292.07Z"/>
  <path fill="#1B0C0F" d="M26.479 16.678s.115-.487.578-.274l.584.139-.046.194-.463-.212s-.315.027-.385.32l-.268-.167Z"/>
  <path fill="#1B0C0F" d="M28.304 17.213s.116-.486-.37-.601l-.682-.162-.046.195.584.138s.194.046.125.338l.39.093Z"/>
  <path fill="#070709" d="M24.834 17.11c-.064-.015-.09-.055-.074-.12l.023-.097.046-.195s.023-.097.315-.028l.195.046c.065.016.057.048-.023.098l-.482.297Zm4.916 1.372c.05.08.083.088.098.023l.023-.097.046-.195s.046-.195-.148-.24l-.292-.07c-.065-.015-.073.017-.023.097l.297.482Z"/>
  <path fill="#070709" d="M24.834 17.11c-.064-.015-.09-.055-.074-.12l.023-.097.046-.195s.023-.097.315-.028l.195.046c.065.016.057.048-.023.098l-.482.297Zm4.916 1.372c.05.08.083.088.098.023l.023-.097.046-.195s.046-.195-.148-.24l-.292-.07c-.065-.015-.073.017-.023.097l.297.482Zm-.811 2.993c.015-.065.047-.057.097.023l-.12.074-.07.292s-.023.098-.217.051l-.195-.046c-.065-.015-.09-.055-.074-.12l.579-.274Zm-4.894-1.469c-.05-.08-.082-.087-.097-.023l-.023.098c-.023.097-.143.171-.166.269 0 0-.024.097.268.166l.195.046.097.023-.274-.579Zm.608-3.864-.167.27c-.08.049-.112.041-.097-.024l.023-.097.07-.292s.022-.097.217-.051l.292.07c.05.08.042.112-.023.096l-.315.028Zm4.99 1.492-.074-.12-.389-.092c-.05-.08-.01-.105.12-.074l.098.023s.292.069.269.166m-3.893-.923c-.015.065-.055.09-.12.075-.097-.024-.195-.047-.269-.167l-.074-.12c-.065-.016-.065-.016 0 0l.097.023.195.046.171.143Z"/>
  <path fill="#1B0C0F" d="M25.774 16.614c.05.08.042.113-.023.098l-.097-.023c-.097-.023-.172-.144-.172-.144l-.171-.143.097.023.292.07.074.12Z"/>
  <path fill="#8A3825" d="m25.677 16.59-.195-.045c-.05-.08-.041-.113.023-.097 0 0 .098.023.172.143Z"/>
  <path fill="#070709" d="M29.231 17.639c.05.08.042.113-.023.097l-.097-.023c-.098-.023-.172-.143-.172-.143l-.074-.12c-.065-.016-.065-.016 0 0l.097.023.195.046.074.12Z"/>
  <path fill="#1B0C0F" d="M29.328 17.662c-.015.065-.055.09-.12.074-.097-.023-.171-.143-.269-.166l-.074-.12c-.065-.016-.065-.016 0 0l.097.023.195.046.171.143Z"/>
  <path fill="#8A3825" d="M29.134 17.616c.065.015.065.015 0 0l-.195-.046.023-.097c.098.023.195.046.172.143Z"/>
  <path fill="#070709" d="M22.1 43.389c.049.08.041.112-.024.097l-.097-.023s-.074-.12-.171-.144l-.075-.12c-.05-.08-.05-.08 0 0l.098.023.194.046.075.12Z"/>
  <path fill="#1B0C0F" d="m22.197 43.412-.098-.023-.291-.07-.075-.12c-.05-.08-.041-.112.023-.097l.098.023c.097.023.171.144.171.144l.172.143Z"/>
  <path fill="#8A3825" d="M22.025 43.268c.05.08.042.113-.023.098 0 0-.097-.023-.171-.144l.194.046Z"/>
  <path fill="#FBE109" d="M13.502 20.693c-.194-.046-.268-.166-.32-.384.024-.097.144-.172.362-.223.097.023.268.167.222.361-.023.098-.143.172-.264.246Z"/>
  <path fill="#FBE109" d="M13.502 20.693c-.194-.046-.268-.166-.32-.384.024-.097.144-.172.362-.223.097.023.268.167.222.361-.023.098-.143.172-.264.246Z"/>
  <path fill="#5D463C" d="M15.132 19.024s.663.671.77 1.519c.182.968.09 1.357.066 1.454-.046.195-.212.464-.212.464l-.653.153c-.218.051-.9-.11-.9-.11s-.112-1.26.027-1.844c.161-.68.346-1.46.49-1.63.12-.075.412-.006.412-.006Z"/>
  <path stroke="#050505" stroke-linecap="round" stroke-linejoin="round" stroke-width=".4" d="M15.132 19.024s.663.671.77 1.519c.182.968.09 1.357.066 1.454-.046.195-.212.464-.212.464l-.653.153c-.218.051-.9-.11-.9-.11s-.112-1.26.027-1.844c.161-.68.346-1.46.49-1.63.12-.075.412-.006.412-.006Z"/>
  <g opacity=".3" style="mix-blend-mode:multiply">
    <mask id="e" width="3" height="4" x="14" y="19" maskUnits="userSpaceOnUse" style="mask-type:luminance">
      <path fill="#fff" d="m14.115 22.575 1.789.127.232-3.45-1.79-.126-.231 3.45Z"/>
    </mask>
    <g mask="url(#e)">
      <path fill="#050505" d="m14.696 19.127-.415 1.751c-.023.097-.175 1.603.02 1.65.097.022.584.138.801.086.218-.05.653-.153.653-.153.098.023.19-.366.213-.464-.143.172-.264.246-.361.223-.097-.023-.171-.143-.269-.166-.194-.047-.143.171-.264.245-.458.2-.612-.453-.542-.745-.028-.315.164-2.427.164-2.427Z"/>
      <path stroke="#050505" stroke-linecap="round" stroke-linejoin="round" stroke-width=".4" d="m14.696 19.127-.415 1.751c-.023.097-.175 1.603.02 1.65.097.022.584.138.801.086.218-.05.653-.153.653-.153.098.023.19-.366.213-.464-.143.172-.264.246-.361.223-.097-.023-.171-.143-.269-.166-.194-.047-.143.171-.264.245-.458.2-.612-.453-.542-.745-.028-.315.164-2.427.164-2.427Z"/>
    </g>
  </g>
  <g opacity=".2" style="mix-blend-mode:multiply">
    <mask id="f" width="2" height="2" x="14" y="19" maskUnits="userSpaceOnUse" style="mask-type:luminance">
      <path fill="#fff" d="m14.564 20.636.901.06.111-1.598-.9-.059-.112 1.597Z"/>
    </mask>
    <g mask="url(#f)">
      <path fill="#B9BBC7" d="M14.697 19.126s.153.653.107.848l.153.653.413-.005s-.177-.556-.205-.871l-.154-.653-.314.028Z"/>
      <path stroke="#050505" stroke-width=".4" d="M14.697 19.126s.153.653.107.848l.153.653.413-.005s-.177-.556-.205-.871l-.154-.653-.314.028Z"/>
      <path fill="#B9BBC7" d="m14.891 19.172.056.63c.052.218.228.773.228.773"/>
      <path stroke="#050505" stroke-width=".4" d="m14.891 19.172.056.63c.052.218.228.773.228.773"/>
    </g>
  </g>
  <path fill="#B9BBC7" d="M14.816 19.052s.057.63.108.847c-.046.195.056.63.056.63l.533-.079s-.274-.578-.228-.773l-.153-.653-.316.028Z"/>
  <path stroke="#050505" stroke-width=".4" d="M14.816 19.052s.057.63.108.847c-.046.195.056.63.056.63l.533-.079s-.274-.578-.228-.773l-.153-.653-.316.028Z"/>
  <path fill="#B9BBC7" d="m14.937 18.977.154.654c.028.315.107.847.107.847"/>
  <path stroke="#050505" stroke-width=".4" d="m14.937 18.977.154.654c.028.315.107.847.107.847"/>
  <path fill="#3D2822" d="M14.307 19.034a.215.215 0 0 1-.149-.24l.07-.293c.046-.194.036-.3-.028-.315l-.584-.138c-.39-.092-.704-.064-.802-.087l-.069.292-.07.291a.215.215 0 0 1-.24.149.215.215 0 0 1-.149-.24l.093-.39c.015-.065.07-.155.166-.269a.215.215 0 0 1 .241-.148c.218-.052.607.04.922.013l.486.115c.195.046.39.092.367.19.074.12.05.217.056.63l-.07.291a.215.215 0 0 1-.24.149Z"/>
  <path stroke="#050505" stroke-linecap="round" stroke-linejoin="round" stroke-width=".4" d="M14.307 19.034a.215.215 0 0 1-.149-.24l.07-.293c.046-.194.036-.3-.028-.315l-.584-.138c-.39-.092-.704-.064-.802-.087l-.069.292-.07.291a.215.215 0 0 1-.24.149.215.215 0 0 1-.149-.24l.093-.39c.015-.065.07-.155.166-.269a.215.215 0 0 1 .241-.148c.218-.052.607.04.922.013l.486.115c.195.046.39.092.367.19.074.12.05.217.056.63l-.07.291a.215.215 0 0 1-.24.149Z"/>
  <path fill="#3D2822" d="M11.245 18.514c.097.023 1.26-.113 2.135.095.899.11 1.752.415 1.752.415s-.413.005-.436.102c-.046.195-.397 1.242-.415 1.752-.07.292-.087.802-.06 1.116-.068.292.08.533.08.533s-.847.107-2.112-.193c-1.191-.179-1.775-.317-1.85-.438-.073-.12-.158-1.065.124-1.82.282-.756.661-1.488.782-1.562Z"/>
  <path stroke="#050505" stroke-linecap="round" stroke-linejoin="round" stroke-width=".4" d="M11.245 18.514c.097.023 1.26-.113 2.135.095.899.11 1.752.415 1.752.415s-.413.005-.436.102c-.046.195-.397 1.242-.415 1.752-.07.292-.087.802-.06 1.116-.068.292.08.533.08.533s-.847.107-2.112-.193c-1.191-.179-1.775-.317-1.85-.438-.073-.12-.158-1.065.124-1.82.282-.756.661-1.488.782-1.562Z"/>
  <g opacity=".3" style="mix-blend-mode:multiply">
    <mask id="g" width="2" height="5" x="10" y="18" maskUnits="userSpaceOnUse" style="mask-type:luminance">
      <path fill="#fff" d="m10.186 22.198 1.498.099.244-3.59-1.497-.099-.245 3.59Z"/>
    </mask>
    <g mask="url(#g)">
      <path fill="#050505" d="M11.101 18.684s-.66 1.488-.73 1.78c-.046.195-.128 1.408-.03 1.431.073.12 1.338.42 1.338.42s-.783-.596-.886-1.032c-.028-.315-.204-.87.078-1.626l.23-.973Z"/>
      <path stroke="#050505" stroke-linecap="round" stroke-linejoin="round" stroke-width=".4" d="M11.101 18.684s-.66 1.488-.73 1.78c-.046.195-.128 1.408-.03 1.431.073.12 1.338.42 1.338.42s-.783-.596-.886-1.032c-.028-.315-.204-.87.078-1.626l.23-.973Z"/>
    </g>
  </g>
  <path fill="#3D2822" d="M14.21 19.01a.215.215 0 0 1-.149-.24l.07-.292c-.035-.145-.044-.25-.029-.315l-.68-.161a2.26 2.26 0 0 1-.705-.064c-.015.065-.07.154-.167.269a.437.437 0 0 0 .029.315.215.215 0 0 1-.241.148c-.097-.023-.195-.046-.149-.24l.07-.293.069-.292c.12-.074.166-.268.36-.222.121-.075.51.018.923.013l.486.115c.195.046.27.166.343.287.098.023.075.12-.018.51.051.217.028.314.028.314a.215.215 0 0 1-.24.149Z"/>
  <path stroke="#050505" stroke-linecap="round" stroke-linejoin="round" stroke-width=".4" d="M14.21 19.01a.215.215 0 0 1-.149-.24l.07-.292c-.035-.145-.044-.25-.029-.315l-.68-.161a2.26 2.26 0 0 1-.705-.064c-.015.065-.07.154-.167.269a.437.437 0 0 0 .029.315.215.215 0 0 1-.241.148c-.097-.023-.195-.046-.149-.24l.07-.293.069-.292c.12-.074.166-.268.36-.222.121-.075.51.018.923.013l.486.115c.195.046.27.166.343.287.098.023.075.12-.018.51.051.217.028.314.028.314a.215.215 0 0 1-.24.149Z"/>
  <path fill="#471F10" d="m26.584 39.21.39.092c.049.08.041.113-.024.098l-.097-.023c-.098-.024-.218.05-.315.027 0 0-.098-.023-.149-.24l.047-.195c-.05-.08-.042-.113.023-.097l.125.338Zm-.406-3.488c-.016.065-.048.057-.098-.023l.024-.097c.023-.097-.052-.218-.052-.218s.047-.195.241-.148l.218-.051c.065.015.09.055.074.12l-.407.417Z"/>
  <path fill="#DB7327" d="m31.945 35.24-.515-.43-.195-.047-5.04.45-.022.097 3.351 2.336 2.398-2.31c.08-.049.088-.081.023-.097Z"/>
  <path fill="#C37429" d="m26.15 35.407.337 3.78.074.12.538.333c-.023.097.097.023.097.023l2.328-2.017-3.351-2.336-.023.097Z"/>
  <path fill="#BB7429" d="M32.356 39.14c.074.12-.023.097-.023.097l-5.063.547c-.064-.016-.122-.063-.171-.144l-.337-3.78c.015-.064.055-.089.12-.074l5.04-.45c.08-.049.112-.041.097.024l.337 3.78Z"/>
  <path stroke="#471F10" stroke-width=".4" d="m26.779 39.255-.337-3.78 5.04-.449"/>
  <path stroke="#B42224" stroke-width=".4" d="m26.442 35.476 5.04-.45"/>
  <path fill="#471F10" d="M28.67 35.182s-.121.075-.339.126c-.194-.046-.315.028-.389-.092 0 0 .218-.052.413-.006.12-.074.314-.028.314-.028Zm1.574-.14s-.217.051-.338.125c-.194-.046-.412.005-.389-.092 0 0 .218-.051.315-.028.218-.051.412-.005.412-.005Z"/>
  <path fill="#471F10" d="M28.137 35.261s-.08-.532.453-.611l.63-.057.051.218-.63.056s-.217.051-.19.366l-.314.029Z"/>
  <path fill="#471F10" d="M30.027 35.093s.018-.51-.515-.43l-.727.033.05.217.534-.079s.314-.028.343.287l.315-.028Z"/>
  <path fill="#CF2427" d="M28.234 35.285s-.176-.556.356-.635l.728-.034-.047.195-.532.08s-.218.05-.19.365l-.315.029Z"/>
  <path fill="#CF2427" d="M30.124 35.116s.041-.607-.589-.55l-.653.153-.023.097.63-.056s.292.07.223.361l.412-.005Z"/>
  <path fill="#471F10" d="M26.79 36.175c-.016.065-.048.058-.098-.023l.023-.097c.023-.097-.05-.218-.05-.218s.022-.097.24-.148l.218-.051c.064.015.09.055.074.12l-.407.417Zm5.257-.5c.05.08.05.08 0 0l.023-.098c.023-.097-.051-.217-.028-.315 0 0 .023-.097-.292-.069l-.218.052c-.064-.016-.072.017-.023.097l.538.333Z"/>
  <path fill="#471F10" d="M26.79 36.175c-.016.065-.048.058-.098-.023l.023-.097c.023-.097-.05-.218-.05-.218s.022-.097.24-.148l.218-.051c.064.015.09.055.074.12l-.407.417Zm5.257-.5c.05.08.05.08 0 0l.023-.098c.023-.097-.051-.217-.028-.315 0 0 .023-.097-.292-.069l-.218.052c-.064-.016-.072.017-.023.097l.538.333Zm.281 3.149c.015-.064.048-.057.097.023l-.023.098s-.046.194.051.218c0 0-.023.097-.24.148l-.218.05c-.065-.014-.09-.054-.074-.12l.407-.417Zm-5.258.501c-.049-.08-.049-.08 0 0l-.022.098c-.023.097-.046.194.028.314 0 0-.023.098.292.07l.217-.051c.065.015.073-.017.023-.098l-.537-.333Zm-.8-3.992-.092.39c-.016.064-.048.056-.098-.024l.024-.097c.023-.097-.052-.218-.052-.218s.047-.195.241-.148l.218-.051c.065.015.09.055.074.12l-.315.028Zm5.332-.381-.172-.143-.412.005c-.065-.015-.057-.048.023-.097l.097.023.097.023s.315-.028.292.07m-4.043.582c.05.08.042.113-.023.097l-.097-.023-.195-.046-.195-.046c-.064-.016-.057-.048.023-.097l.098.023.194.046.195.046Z"/>
  <path fill="#861F19" d="M27.484 35.415c.065.015.057.047-.023.097l-.292-.07-.098-.022c-.064-.016-.057-.048.024-.097l.292.069.097.023Z"/>
  <path fill="#F59828" d="M27.387 35.392c.064.015.057.048-.024.097l-.194-.046c-.065-.015-.057-.047.023-.097l.195.046Z"/>
  <path fill="#471F10" d="M31.166 35.054c.05.08.042.113-.023.098-.097-.023-.218.051-.292-.07l-.097-.022c-.065-.016-.065-.016 0 0l.023-.098.292.07.097.023Z"/>
  <path fill="#861F19" d="M31.263 35.078c.065.015.058.047-.023.097l-.097-.023-.195-.046-.194-.046c-.065-.016-.057-.048.023-.098l.097.023.195.046.194.047Z"/>
  <path fill="#F59828" d="M31.069 35.032c.065.015.057.047-.023.097l-.195-.046.023-.098.195.047Z"/>
  <path fill="#102A47" d="M31.427 36.556c.246.263.13.75-.133.996-.361.222-.75.13-.973-.231a.77.77 0 0 1 .133-.996c.361-.223.848-.108.973.23Z"/>
  <path fill="#DB454A" d="m30.774 36.709.167-.27.125.339.315-.028-.264.246.028.315-.268-.167-.241.148.07-.291-.247-.264.315-.028Z"/>
  <mask id="h" width="4" height="2" x="27" y="36" maskUnits="userSpaceOnUse" style="mask-type:luminance">
    <path fill="#fff" d="m28.015 37.812 2.354-.912-2.592-.553.238 1.465Z"/>
  </mask>
  <g mask="url(#h)">
    <path fill="url(#i)" d="m28.548 39.161-1.507-2.31 2.453-1.68 1.508 2.311-2.454 1.68Z"/>
  </g>
  <g opacity=".3">
    <mask id="j" width="4" height="2" x="27" y="36" maskUnits="userSpaceOnUse" style="mask-type:luminance">
      <path fill="#fff" d="m27.942 37.559 2.012.137.079-1.112-2.023-.14-.068 1.114Z"/>
    </mask>
    <g mask="url(#j)">
      <path fill="#3E6CB4" d="m30.024 36.84-1.97-.365.16 1.066 1.81-.702Z"/>
    </g>
  </g>
  <path fill="#2D3332" d="M20.693 31.544s-.023.098-.143.172l-.195-.046c.023-.097.046-.195.144-.172.12-.074.217-.05.194.046Zm.945-.084c-.023.098-.023.098-.143.172-.023.097-.12.074-.195-.046 0 0 .023-.097.143-.171.098.023.218-.052.195.046Zm5.33-2.539c-.023.098-.046.195-.144.172-.023.097-.12.074-.194-.046 0 0 .023-.098.143-.172l.195.046Z"/>
  <path fill="#874D7D" d="m19.61 28.308-.875-.208c-.015.065.01.105.074.12l1.495 3.232a.31.31 0 0 0 .172.144l.945-.084 4.481-2.432c.023-.097.144-.172.07-.292l-1.393-2.797-4.968 2.317Z"/>
  <path fill="#9B4D7D" d="m24.579 25.991-.148-.24-.487-.116-5.089 2.39-.12.075.876.208 4.968-2.317Z"/>
  <path fill="#2D3332" d="M20.787 27.25s-.2-.458.258-.658l.579-.273.051.217-.458.2s-.241.148-.092.389l-.338.125Z"/>
  <path fill="#2D3332" d="M22.523 26.429s-.2-.459-.681-.162l-.58.274.075.12.458-.2s.338-.124.39.093l.338-.125Z"/>
  <path fill="#2D3332" d="M20.884 27.274s-.297-.482.258-.658l.58-.274.073.12-.578.274s-.12.074.005.412l-.338.126Z"/>
  <path fill="#2D3332" d="M22.62 26.452s-.2-.458-.658-.259l-.676.251.051.218.579-.274s.217-.051.366.19l.338-.126Z"/>
  <path fill="#B24D7D" d="M21.518 31.535c-.098-.023-.195-.046-.172-.143l-2.05-3.055c-.098-.024-.075-.121.046-.195l5.065-2.294c.023-.097.12-.074.195.047l2.291 2.906-.046.195"/>
  <path stroke="#D88F52" stroke-width=".4" d="M21.518 31.535c-.098-.023-.195-.046-.172-.143l-2.05-3.055c-.098-.024-.075-.121.046-.195l5.065-2.294c.023-.097.12-.074.195.047l2.291 2.906-.046.195"/>
  <path fill="#9B4D7D" d="M26.699 28.755c-.023.097-.046.194-.144.171l-4.991 2.414s-.097-.023-.172-.144l-1.902-2.814.047-.195 4.727-2.168c.12-.074.218-.051.195.046l2.24 2.69Z"/>
  <path fill="#99777C" d="M26.407 28.686c.074.12.05.217-.046.194l-4.654 2.289c-.097-.023-.194-.047-.171-.144l-1.851-2.597c.023-.097.023-.097.143-.171l4.413-2.14c.097.023.195.046.172.143l1.994 2.426Z"/>
  <path fill="#2D3332" d="m22.314 31.21-.24.148-.126-.338.241-.149.125.338Zm3.954-1.94-.24.148-.126-.338.241-.149.125.338Z"/>
  <path fill="#6A3433" d="m22.435 31.135-.338.126-.126-.338.241-.149.223.361Zm-2.394-3.342-.24.149-.487-.116.24-.149.487.116Zm3.811-1.769-.218.051-.486-.115.218-.051.486.115Z"/>
  <path fill="#6A3433" d="m20.384 28.08-.338.126-.222-.361.217-.052.343.287Zm3.714-1.792-.241.149-.223-.362.241-.148.223.361Z"/>
  <path stroke="#6A3433" stroke-width=".4" d="m22.092 30.849-1.902-2.815m5.833.971-2.046-2.643"/>
  <path fill="#6A3433" d="m26.366 29.292-.24.149-.224-.361.338-.125.126.337Zm-5.867 2.206-1.495-3.231 2.125 3.175-.63.056Z"/>
  <path fill="#612C0F" d="M24.48 43.747c-.073-.12-1.764.507-2.004.655-.797.325-1.783 1.017-1.852 1.308.57 1.06.8 3.993 2.358 4.362.532-.08 1.426-.381 1.954-.873.12-.074.458-.2.601-.371.338-.126.602-.371.89-.715.24-.148.383-.32.258-.657-.028-.316-.2-.459-.371-.602-.372-.602-1.662-2.964-1.833-3.107Z"/>
  <path stroke="#0C0908" stroke-linecap="round" stroke-linejoin="round" stroke-width=".4" d="M24.48 43.747c-.073-.12-1.764.507-2.004.655-.797.325-1.783 1.017-1.852 1.308.57 1.06.8 3.993 2.358 4.362.532-.08 1.426-.381 1.954-.873.12-.074.458-.2.601-.371.338-.126.602-.371.89-.715.24-.148.383-.32.258-.657-.028-.316-.2-.459-.371-.602-.372-.602-1.662-2.964-1.833-3.107Z"/>
  <g opacity=".2">
    <mask id="k" width="6" height="7" x="21" y="43" maskUnits="userSpaceOnUse" style="mask-type:luminance">
      <path fill="#fff" d="m21.354 49.48 5.26.271.325-6.315-5.26-.27-.325 6.315Z"/>
    </mask>
    <g mask="url(#k)">
      <path fill="#0C0908" d="M26.685 47.456c-.028-.316-.2-.459-.371-.602-.371-.602-1.662-2.963-1.833-3.107-.074-.12.092-.39-.005-.412-.39-.092-1.111.353-1.352.502-.176.163-.392.352-.648.565-.241.149-.602.371-.889.714.095 1.77.713 4.794 2.432 4.482.225-.083.483-.16.773-.227l.023-.098c.241-.148.58-.274.723-.445.337-.126.601-.371.888-.715.241-.148.384-.32.259-.657Z"/>
    </g>
  </g>
  <g opacity=".2">
    <mask id="l" width="6" height="7" x="21" y="43" maskUnits="userSpaceOnUse" style="mask-type:luminance">
      <path fill="#fff" d="m21.885 49.278 4.74.25.314-6.092-4.743-.24-.31 6.082Z"/>
    </mask>
    <g mask="url(#l)">
      <path fill="#0C0908" d="M24.476 43.335c-.39-.093-1.111.353-1.352.501-.287.343-.648.566-.935.91l-.046.194c.08.533.256 1.088.604 1.787-.016.065.002.138.051.218l1.8 2.38c-.016.064.01.104.074.12.264-.246.602-.371.866-.617.338-.126.601-.372.888-.715.241-.148.385-.32.26-.658-.03-.315-.2-.458-.372-.601-.371-.602-1.661-2.964-1.833-3.107-.074-.12.092-.39-.005-.412Z"/>
    </g>
  </g>
  <path fill="#2E130C" d="m27.625 46.96-.459.199s.195.046.149.24a1.663 1.663 0 0 1-.625.469l-.505.394c.218-.05.533-.079.894-.302.24-.148.384-.32.407-.417l.12-.074-.097-.023c.167-.269.116-.487.116-.487Z"/>
  <path stroke="#150D0B" stroke-linejoin="round" stroke-width=".4" d="m27.625 46.96-.459.199s.195.046.149.24a1.663 1.663 0 0 1-.625.469l-.505.394c.218-.05.533-.079.894-.302.24-.148.384-.32.407-.417l.12-.074-.097-.023c.167-.269.116-.487.116-.487Z"/>
  <path fill="#2E130C" d="M24.181 45.012s1.108 1.394 2.225 1.453a.776.776 0 0 1 .858.717l.458-.2s-.102-.435-.445-.722c-.44-.31-.659-.259-1.242-.397-.366-.19-1.275-1.125-1.275-1.125l-.579.274Z"/>
  <path stroke="#150D0B" stroke-linejoin="round" stroke-width=".4" d="M24.181 45.012s1.108 1.394 2.225 1.453a.776.776 0 0 1 .858.717l.458-.2s-.102-.435-.445-.722c-.44-.31-.659-.259-1.242-.397-.366-.19-1.275-1.125-1.275-1.125l-.579.274Z"/>
  <path fill="#2E130C" d="m27.453 46.816.515.43c.269.166.343.287.32.384-.046.195-.338.125-.51-.018-.269-.166-.44-.31-.589-.55.023-.098.264-.246.264-.246Z"/>
  <path stroke="#150D0B" stroke-linejoin="round" stroke-width=".4" d="m27.453 46.816.515.43c.269.166.343.287.32.384-.046.195-.338.125-.51-.018-.269-.166-.44-.31-.589-.55.023-.098.264-.246.264-.246Z"/>
  <path fill="#767777" d="M27.722 46.982s.023-.097-.074-.12c0 0-.074-.12-.097-.023l-.098-.023a1.163 1.163 0 0 1-.263.245l-.024.098.075.12.097.023.074.12-.097-.022-.097-.024-.075-.12-.074-.12.046-.195c.08-.05.193-.091.338-.125l.024-.098c.12-.074.194.046.194.046l.074.12c.05.081.067.154.052.218"/>
  <path stroke="#363637" stroke-linecap="round" stroke-width=".4" d="m27.722 46.982-.074-.12s-.075-.12-.098-.023l-.097-.023a1.166 1.166 0 0 1-.264.245l-.023.098.172.143"/>
  <path stroke="#363637" stroke-width=".4" d="m27.412 47.422-.097-.022c-.097-.024-.097-.024-.172-.144l-.074-.12.046-.195c.08-.05.193-.091.338-.125l.024-.098c.12-.074.194.046.194.046l.074.12c.098.024.075.121.052.218"/>
  <path fill="#767777" d="m27.504 47.033-.148-.24-.098-.023-.023.097.149.24.023-.097.097.023Z"/>
  <path stroke="#363637" stroke-linejoin="round" stroke-width=".4" d="m27.504 47.033-.148-.24-.098-.023-.023.097.149.24.023-.097.097.023Z"/>
  <path fill="#150D0B" d="m27.579 47.154-.023.097c-.065-.015-.058-.048.023-.097Zm.171.143-.023.098-.097-.023.023-.098.097.023Z"/>
  <path fill="#2E130C" d="m26.157 47.947-.532.08s.291.069.245.263c-.287.343-.55.59-.55.59l-.505.393c.195.047.338-.125.82-.422a.55.55 0 0 0 .407-.417l.12-.074-.097-.023c.166-.27.092-.39.092-.39Z"/>
  <path stroke="#150D0B" stroke-linejoin="round" stroke-width=".4" d="m26.157 47.947-.532.08s.291.069.245.263c-.287.343-.55.59-.55.59l-.505.393c.195.047.338-.125.82-.422a.55.55 0 0 0 .407-.417l.12-.074-.097-.023c.166-.27.092-.39.092-.39Z"/>
  <path fill="#2E130C" d="M22.713 46s1.132 1.297 2.248 1.356c.802.087.858.717.858.717l.436-.102s-.08-.533-.423-.82c-.44-.31-.658-.258-1.242-.397-.389-.092-1.298-1.027-1.298-1.027l-.579.274Z"/>
  <path stroke="#150D0B" stroke-linejoin="round" stroke-width=".4" d="M22.713 46s1.132 1.297 2.248 1.356c.802.087.858.717.858.717l.436-.102s-.08-.533-.423-.82c-.44-.31-.658-.258-1.242-.397-.389-.092-1.298-1.027-1.298-1.027l-.579.274Z"/>
  <path fill="#2E130C" d="M26.18 47.85c.004.274.055.492.154.653.148.24.223.36.102.435-.143.171-.412.005-.463-.213a2.993 2.993 0 0 1-.205-.87c.098.023.412-.005.412-.005Z"/>
  <path stroke="#150D0B" stroke-linejoin="round" stroke-width=".4" d="M26.18 47.85c.004.274.055.492.154.653.148.24.223.36.102.435-.143.171-.412.005-.463-.213a2.993 2.993 0 0 1-.205-.87c.098.023.412-.005.412-.005Z"/>
  <path fill="#767777" d="m26.231 48.068.023-.097c.023-.097-.074-.12-.074-.12l-.12.074c-.065-.016-.17-.006-.315.028l-.023.097-.023.097c-.023.098-.023.098.074.12l-.023.098-.097-.023-.075-.12.024-.098s-.075-.12.046-.194l.023-.097.435-.103c.195.046.195.046.172.144l.074.12-.046.194"/>
  <path stroke="#363637" stroke-linecap="round" stroke-width=".4" d="m26.232 48.067.023-.097c.023-.097-.075-.12-.075-.12l-.12.074c-.065-.016-.17-.006-.315.028l-.023.097.051.218"/>
  <path stroke="#363637" stroke-width=".4" d="m25.75 48.365-.097-.023s.023-.097-.051-.218c0 0-.075-.12.046-.194l.023-.097.435-.103c.195.046.195.046.172.144l.074.12-.046.194"/>
  <path fill="#767777" d="m26.037 48.021-.051-.217c.015-.065-.017-.073-.098-.023l.052.217.097.023Z"/>
  <path stroke="#363637" stroke-linejoin="round" stroke-width=".4" d="m26.037 48.021-.051-.217c.015-.065-.017-.073-.098-.023l.052.217.097.023Z"/>
  <path fill="#150D0B" d="m26.088 48.24-.097-.024c.08-.05.112-.042.097.023Zm.074.12c-.015.064-.055.09-.12.074l.023-.098.097.023Z"/>
  <path fill="#612C0F" d="M22.23 48.044c.095-.114.265-.109.509.018.13.03.276.134.44.31.418.407.64.768.474 1.037-.338.126-.676.25-1.265-.3-.32-.384-.28-.99-.159-1.065Z"/>
  <path stroke="#0C0908" stroke-width=".4" d="M22.23 48.044c.095-.114.265-.109.509.018.13.03.276.134.44.31.418.407.64.768.474 1.037-.338.126-.676.25-1.265-.3-.32-.384-.28-.99-.159-1.065Z"/>
  <path stroke="#0C0908" stroke-linejoin="round" stroke-width=".4" d="M22.623 48.548c.172.144.492.528.955.74"/>
  <g opacity=".2">
    <mask id="m" width="2" height="2" x="22" y="48" maskUnits="userSpaceOnUse" style="mask-type:luminance">
      <path fill="#fff" d="m22.331 49.26 1.391.073.068-1.197-1.39-.072-.069 1.196Z"/>
    </mask>
    <g mask="url(#m)">
      <path fill="#0C0908" d="M22.744 48.474a1.569 1.569 0 0 1-.32-.384c.08-.05.177-.027.292.069.13.03.284.101.463.212.418.408.52.843.594.963-.39-.092-.806-.5-1.03-.86Z"/>
    </g>
  </g>
  <path fill="#612C0F" d="M22.892 48.715c-.264.246-.579.274-.796.325-.051-.218-.348-.699.036-1.019.24-.148.315-.028.51.018.148.24.296.481.25.676Z"/>
  <path stroke="#0C0908" stroke-linejoin="round" stroke-width=".4" d="M22.892 48.715c-.264.246-.579.274-.796.325-.051-.218-.348-.699.036-1.019.24-.148.315-.028.51.018.148.24.296.481.25.676Z"/>
  <path fill="#F5F7F7" d="M22.239 48.868c.065.016.137-.001.218-.05l-.075-.121-.097-.023-.046.194Z"/>
  <path stroke="#B1B3B4" stroke-linejoin="round" stroke-width=".4" d="M22.239 48.868c.065.016.137-.001.218-.05l-.075-.121-.097-.023-.046.194Z"/>
  <path fill="#0C0908" d="M22.017 44.602s-1.3.72-1.347.914c-.07.292.102.436.25.676.172.144 1.178 1.102 1.173.69.047-.195-.01-.825-.038-1.14.047-.195-.056-.63.087-.802.07-.291.43-.514.695-.76l-.82.422Z"/>
  <path fill="#2E130C" d="M23.802 45.745c.148.24.312.416.492.527.171.143.343.287.222.361-.046.195-.338.126-.51-.018-.245-.264-.417-.407-.565-.648l.36-.222Z"/>
  <path stroke="#150D0B" stroke-linejoin="round" stroke-width=".4" d="M23.802 45.745c.148.24.312.416.492.527.171.143.343.287.222.361-.046.195-.338.126-.51-.018-.245-.264-.417-.407-.565-.648l.36-.222Z"/>
  <path fill="#0C0908" d="m24.15 46.444-.097-.023c.08-.05.112-.042.097.023Z"/>
  <path fill="#2E130C" d="M25.361 44.367c.149.24.313.417.492.528.172.143.343.286.32.384-.143.171-.435.102-.607-.041-.246-.264-.417-.407-.566-.648l.361-.223Z"/>
  <path stroke="#150D0B" stroke-linejoin="round" stroke-width=".4" d="M25.361 44.367c.149.24.313.417.492.528.172.143.343.286.32.384-.143.171-.435.102-.607-.041-.246-.264-.417-.407-.566-.648l.361-.223Z"/>
  <path fill="#0C0908" d="m25.733 44.97-.023.096-.098-.023.12-.074Z"/>
  <path fill="#612C0F" d="M22 45.112c.578-.274.875.207 1.075.666.034.145.1.297.2.458-.024.097.074.12.17.143.316-.028.58-.273.82-.422.256-.213.473-.402.648-.566.361-.223.602-.37.769-.64.069-.292-.126-.338-.297-.481-.172-.144-.343-.287-.492-.528-.051-.217-.223-.361-.514-.43-.195-.046-.098-.023-1.038.473C22.304 44.26 22 45.112 22 45.112Z"/>
  <path stroke="#0C0908" stroke-width=".4" d="M22 45.112c.578-.274.875.207 1.075.666.034.145.1.297.2.458-.024.097.074.12.17.143.316-.028.58-.273.82-.422.256-.213.473-.402.648-.566.361-.223.602-.37.769-.64.069-.292-.126-.338-.297-.481-.172-.144-.343-.287-.492-.528-.051-.217-.223-.361-.514-.43-.195-.046-.098-.023-1.038.473C22.304 44.26 22 45.112 22 45.112Z"/>
  <g opacity=".2">
    <mask id="n" width="5" height="3" x="21" y="44" maskUnits="userSpaceOnUse" style="mask-type:luminance">
      <path fill="#fff" d="m21.965 46.296 3.636.183.11-2.111-3.636-.184-.11 2.112Z"/>
    </mask>
    <g mask="url(#n)">
      <path fill="#0C0908" d="M24.64 44.813c-.339.125-.797.325-1.284.21-.194-.047-.463-.213-.755-.282-.13-.031-.275.003-.435.102l-.167.269c.579-.274.876.207 1.075.666.034.145.101.298.2.458-.023.098.074.12.172.144.314-.028.578-.274.82-.423.255-.213.471-.402.647-.566.361-.222.602-.37.768-.64.07-.291-.028-.314-.222-.36a6.577 6.577 0 0 1-.82.422Z"/>
    </g>
  </g>
  <defs>
    <linearGradient id="a" x1="19.523" x2="26.575" y1="56.857" y2="58.323" gradientUnits="userSpaceOnUse">
      <stop stop-color="#fff"/>
      <stop offset="1"/>
    </linearGradient>
    <linearGradient id="b" x1="20.24" x2="23.092" y1="59.904" y2="59.142" gradientUnits="userSpaceOnUse">
      <stop stop-color="#78469B"/>
      <stop offset="1" stop-color="#B13293"/>
    </linearGradient>
    <linearGradient id="c" x1="19.523" x2="26.575" y1="56.857" y2="58.323" gradientUnits="userSpaceOnUse">
      <stop stop-color="#fff"/>
      <stop offset="1"/>
    </linearGradient>
    <linearGradient id="d" x1="20.24" x2="25.512" y1="59.904" y2="60.64" gradientUnits="userSpaceOnUse">
      <stop stop-color="#F6F7F8"/>
      <stop offset="1" stop-color="#78469B"/>
    </linearGradient>
    <linearGradient id="i" x1="30.556" x2="29.494" y1="36.76" y2="35.172" gradientUnits="userSpaceOnUse">
      <stop stop-color="#FEFEFE"/>
      <stop offset="1" stop-color="#F5D20C"/>
    </linearGradient>
  </defs>
</svg>
