<svg width="54" height="36" viewBox="0 0 54 36" fill="none" xmlns="http://www.w3.org/2000/svg">
<path fill-rule="evenodd" clip-rule="evenodd" d="M4.40002 5.50001C5.50002 5.40001 6.69995 5.30003 6.69995 8.90003C6.69995 12.3 5.60002 12.6 3.90002 12.8L3.29993 12.9V5.70002L4.40002 5.50001ZM4.29993 6.30003V11.9C5.79993 11.7 5.79993 10.3 5.79993 9.00001C5.79993 7.90001 5.89993 6.00003 4.29993 6.30003Z" fill="#FEFEFE"/>
<path d="M7.90002 4.70001L7.40002 4.5L8.19995 2.90002L8.79993 3.30002L7.90002 4.70001ZM8.40002 12.1L7.40002 12.3L7.5 5L8.40002 4.90002V12.1Z" fill="#FEFEFE"/>
<path fill-rule="evenodd" clip-rule="evenodd" d="M11.1 4.5L12.5 11.5L11.6 11.7L11.2999 10.3L9.90002 10.5L9.59998 12L8.69995 12.1L10.2999 4.60001L11.1 4.5ZM11.1 8.60001L10.7 6L10.1 9.80002L11.2999 9.60001L11.1 8.60001Z" fill="#FEFEFE"/>
<path d="M15.4 6L15.6 8.40002L15.5 11.1L14.6 11.2V4L15.5 3.90002L17.2 9.10001L17 6.20001V3.60001L17.9 3.5V10.7L17 10.9L15.4 5.5V5.60001V6Z" fill="#FEFEFE"/>
<path fill-rule="evenodd" clip-rule="evenodd" d="M20.6 3.10001L22 10.1L21.1 10.2L20.7999 8.90002L19.4 9.10001L19.2 10.5L18.2 10.7L19.7999 3.20001L20.6 3.10001ZM20.6 7.10001L20.2999 4.60001H20.2L19.6 8.30002L20.7999 8.20001L20.6 7.10001Z" fill="#FEFEFE"/>
<path d="M25.2 3.40002C25 3.30002 24.8 3.30002 24.6 3.30002C23.3 3.50002 23.2999 5.50002 23.2999 6.40002C23.2999 7.30002 23.3 9.10002 24.6 8.90002C24.8 8.90002 25 8.83335 25.2 8.70001V9.5C24.9333 9.7 24.6667 9.80002 24.4 9.80002C22.5 10.1 22.2999 8.10001 22.2999 6.60001C22.2999 5.10001 22.5 2.70002 24.4 2.40002C24.7 2.40002 24.9 2.4 25.2 2.5V3.40002Z" fill="#FEFEFE"/>
<path d="M26.6 9.40002L25.7 9.60001V2.30002L26.6 2.20001V9.40002Z" fill="#FEFEFE"/>
<path fill-rule="evenodd" clip-rule="evenodd" d="M31 5.1C31 6.4 31 8.9 29.2 9.1C27.3 9.4 27.3001 7.00001 27.4001 5.70001C27.4001 4.40001 27.4 2.00001 29.2 1.70001C31 1.40001 31 3.8 31 5.1ZM28.3 5.5C28.3 7.1 28.4 8.30001 29.2 8.20001C29.9 8.10001 30 6.80002 30 5.30002C30 3.80002 29.9 2.5 29.2 2.6C28.5 2.7 28.4 4 28.3 5.5Z" fill="#FEFEFE"/>
<path d="M32.6 3.40002L32.7 5.90002V8.5L31.7 8.70001L31.7999 1.40002L32.7 1.30002L34.2999 6.5L34.1 3.60001V1.10001L35.1 0.900024L35 8.20001L34.1 8.30002L32.5 3L32.6 3.40002Z" fill="#FEFEFE"/>
<path fill-rule="evenodd" clip-rule="evenodd" d="M37.7 0.5L39.2 7.5L38.2 7.70001L38 6.30002L36.6 6.5L36.2999 8L35.4 8.10001L37 0.600006L37.7 0.5ZM37.6 4.60001L37.2999 2L36.7 5.80002L37.7999 5.60001L37.6 4.60001Z" fill="#FEFEFE"/>
<path d="M40.5 0.100006V6.5L42.1 6.30002V7.10001L39.6 7.5V0.200012L40.5 0.100006Z" fill="#FEFEFE"/>
<path fill-rule="evenodd" clip-rule="evenodd" d="M21 13.1C22.1 13 23.3999 12.9 23.2999 16.5C23.2999 19.9 22.2 20.2 20.5 20.4L19.9 20.5V13.3L21 13.1ZM20.9 13.9V19.5C22.4 19.3 22.4 17.9 22.4 16.6C22.4 15.5 22.5 13.6 20.9 13.9Z" fill="#FEFEFE"/>
<path d="M26.6 12.3V13.1L25 13.4V15.6L26.4 15.4V16.3L25 16.5V18.9L26.6 18.7L26.5 19.5L24 19.9L24.1 12.7L26.6 12.3Z" fill="#FEFEFE"/>
<path d="M28 12.1V18.5L29.6 18.2V19.1L27 19.5L27.1 12.2L28 12.1Z" fill="#FEFEFE"/>
<path d="M53.4 26.9L0.199951 34.1L0 28.4L52.9 21.4L53.4 26.9Z" fill="#ED2930"/>
<path d="M7 33.9L6.29993 34L4.59998 31.6L4.69995 35.3L2.09998 35.6L2 26.8L4.5 26.4L6.59998 29.5L8.79993 25.8L11.2 25.4V34.3L8.59998 34.7V31L7 33.9Z" fill="#FEFEFE"/>
<path d="M16.2 33.8C16.1 33.8 16 33.8 15.5 33.8C15 33.8 14.5 33.7 14 33.4C13.4 33.1 13 32.7 12.7 32C12.5666 31.6 12.5 31.1333 12.5 30.6V25.2L15.1 24.9V30.3C15.1 30.3 15.1 30.4 15.2 30.7C15.2 30.7667 15.2667 30.8667 15.4 31C15.5 31.2 15.8 31.3 16.2 31.3C16.4666 31.2334 16.7 31.1 16.9 30.9C17.1 30.7 17.2 30.5 17.2 30.3L17.2999 30L17.2 24.6L19.7999 24.2L19.9 29.6C19.9 30.6 19.6 31.4 19.1 32C18.9 32.2667 18.6667 32.5334 18.4 32.8C17.6 33.4 16.8 33.6 16.4 33.7L16.2 33.8ZM14.7999 24.2L15.9 21.6L18.9 21.2L17.4 23.8L14.7999 24.2Z" fill="#FEFEFE"/>
<path d="M22.5 29.4C23.1667 30 23.8666 30.2333 24.6 30.1C25.1333 30.0333 25.4 29.8667 25.4 29.6C25.4 29.4667 25.2334 29.3333 24.9 29.2C24.6334 29.1333 24.3 29.0667 23.9 29C23.5 28.8667 23.0666 28.7333 22.6 28.6C22.2 28.4667 21.8666 28.2334 21.6 27.9C21.3333 27.5 21.2 27.0667 21.2 26.6C21.2 26 21.2999 25.4 21.7999 24.8C22.1999 24.1 23.2 23.5 24.4 23.4C25.3 23.2 26.2 23.4 26.7 23.7C27.2 24 27.6999 24.3 27.7999 24.6L28 24.7L26.2 26.4C25.8666 26.0667 25.6 25.8667 25.4 25.8C25.1334 25.7334 24.8333 25.7334 24.5 25.8C24.1 25.8 23.7999 26.1 23.7999 26.2C23.7999 26.5 24.3 26.7 24.9 26.8C25.2334 26.8 25.5667 26.8667 25.9 27C26.2334 27.1333 26.5667 27.2667 26.9 27.4C27.2334 27.5334 27.5 27.7667 27.7 28.1C27.9 28.4333 28 28.8334 28 29.3C28 29.8 27.7999 30.5 27.2999 31.1C26.7999 31.8 25.8 32.4 24.5 32.5C23.5 32.7 22.7 32.6 22.1 32.2C21.4333 31.8667 20.9999 31.4667 20.7999 31L22.5 29.4Z" fill="#FEFEFE"/>
<path d="M29.1 31.7V22.8L31.6 22.5L31.7 31.3L29.1 31.7Z" fill="#FEFEFE"/>
<path d="M42 26.1C41.8 27.2333 41.3 28.2333 40.5 29.1C39.6333 29.9667 38.6333 30.5 37.5 30.7C36.2333 30.8333 35.1333 30.5333 34.2 29.8C33.3333 29.0667 32.9 28.0333 32.9 26.7C32.9 25.4333 33.3333 24.3 34.2 23.3C35.0666 22.3 36.1334 21.7 37.4 21.5C38.5334 21.3 39.5334 21.5 40.4 22.1C41.2667 22.7667 41.8 23.6333 42 24.7L39.2 25.1C39.0666 24.7 38.8333 24.4 38.5 24.2C38.1667 24 37.8333 23.9333 37.5 24C36.9667 24.0667 36.5 24.3333 36.1 24.8C35.7666 25.2667 35.6 25.7667 35.6 26.3C35.6 26.9 35.8 27.3667 36.2 27.7C36.5333 28.1 36.9667 28.2667 37.5 28.2C37.9 28.1333 38.2333 27.9333 38.5 27.6C38.8333 27.3333 39.0666 26.9667 39.2 26.5L42 26.1Z" fill="#FEFEFE"/>
<path fill-rule="evenodd" clip-rule="evenodd" d="M47.4 20C48.6667 19.8667 49.7333 20.1667 50.6 20.9C51.5333 21.6334 52 22.6667 52 24C52 25.2667 51.5666 26.4 50.7 27.4C49.8333 28.4 48.7334 29 47.4 29.2C46.1334 29.4 45.0666 29.1334 44.2 28.4C43.2666 27.6 42.7999 26.5667 42.7999 25.3C42.7999 24.0334 43.2333 22.8667 44.1 21.8C44.9666 20.8 46.0667 20.2 47.4 20ZM47.4 26.7C47.9334 26.6334 48.3666 26.3667 48.7 25.9C49.1 25.4334 49.2999 24.9334 49.2999 24.4C49.2999 23.8 49.1 23.3 48.7 22.9C48.3666 22.5667 47.9334 22.4333 47.4 22.5C46.8667 22.5667 46.4333 22.8334 46.1 23.3C45.7 23.7667 45.5 24.3 45.5 24.9C45.5 25.5 45.7 25.9667 46.1 26.3C46.4333 26.6334 46.8667 26.7667 47.4 26.7Z" fill="#FEFEFE"/>
</svg>
