<?xml version="1.0" encoding="utf-8"?>
<!-- Generator: Adobe Illustrator 23.0.3, SVG Export Plug-In . SVG Version: 6.00 Build 0)  -->
<svg version="1.1" id="Capa_1" xmlns="http://www.w3.org/2000/svg" xmlns:xlink="http://www.w3.org/1999/xlink" x="0px" y="0px"
	 viewBox="0 0 91 117" style="enable-background:new 0 0 91 117;" xml:space="preserve">
<style type="text/css">
	.st0{fill:url(#SVGID_1_);}
	.st1{fill:#1782B9;}
	.st2{fill:none;stroke:#FEFEFE;stroke-width:0.4;stroke-linecap:round;stroke-linejoin:round;}
	.st3{fill:#FFFFFF;filter:url(#Adobe_OpacityMaskFilter);}
	.st4{mask:url(#mask1_149_64404_1_);}
	.st5{fill:url(#SVGID_2_);}
	.st6{fill:#3A82B6;}
	.st7{fill:#FFFFFF;filter:url(#Adobe_OpacityMaskFilter_1_);}
	.st8{mask:url(#mask2_149_64404_1_);}
	.st9{fill:url(#SVGID_3_);}
	.st10{fill:#FFFFFF;filter:url(#Adobe_OpacityMaskFilter_2_);}
	.st11{mask:url(#mask3_149_64404_1_);}
	.st12{fill:url(#SVGID_4_);}
	.st13{fill:#050505;}
	.st14{fill:#FEFEFE;}
	.st15{opacity:0.3;fill:#050505;enable-background:new    ;}
	.st16{fill:#7B7B7B;stroke:#050505;stroke-width:0.4;stroke-linecap:round;stroke-linejoin:round;}
	.st17{fill:#81C241;stroke:#050505;stroke-width:0.5;stroke-linecap:round;stroke-linejoin:round;}
	.st18{opacity:0.4;fill:#050505;enable-background:new    ;}
	.st19{fill:#81C241;stroke:#050505;stroke-width:0.7;stroke-linecap:round;stroke-linejoin:round;}
	.st20{fill:none;stroke:#050505;stroke-width:0.7;stroke-linecap:round;stroke-linejoin:round;}
	.st21{fill:none;stroke:#050505;stroke-width:0.5;stroke-linecap:round;stroke-linejoin:round;}
	.st22{fill:#E2C825;stroke:#050505;stroke-width:0.5;stroke-linecap:round;stroke-linejoin:round;}
	.st23{fill:none;stroke:#050505;stroke-width:0.4;stroke-linecap:round;stroke-linejoin:round;}
	.st24{fill:#C2B9B4;stroke:#050505;stroke-width:0.7;stroke-linecap:round;stroke-linejoin:round;}
	.st25{fill:#D1202B;stroke:#050505;stroke-width:0.6;stroke-linecap:round;stroke-linejoin:round;}
	.st26{fill:#FEFEFE;stroke:#050505;stroke-width:0.6;stroke-linecap:round;stroke-linejoin:round;}
	.st27{fill:none;stroke:#050505;stroke-width:0.6;stroke-linecap:round;stroke-linejoin:round;}
	.st28{opacity:0.2;fill:#050505;enable-background:new    ;}
	.st29{fill:#6E6B85;stroke:#050505;stroke-width:0.7;stroke-linecap:round;stroke-linejoin:round;}
	.st30{fill:#6E6B85;}
	.st31{fill:#E8B29A;stroke:#050505;stroke-width:0.7;stroke-linecap:round;stroke-linejoin:round;}
	.st32{fill:#E8B29A;}
	.st33{fill:#692B83;stroke:#050505;stroke-width:0.7;stroke-linecap:round;stroke-linejoin:round;}
	
		.st34{opacity:0.2;fill:#050505;stroke:#050505;stroke-width:0.4;stroke-linecap:round;stroke-linejoin:round;enable-background:new    ;}
	.st35{fill:#848484;stroke:#050505;stroke-width:0.4;stroke-linecap:round;stroke-linejoin:round;}
	.st36{fill:#692B83;}
	.st37{fill:#FEFEFE;stroke:#9BCFE6;stroke-width:0.4;stroke-linecap:round;stroke-linejoin:round;}
	.st38{fill:none;stroke:#9BCFE6;stroke-width:0.4;stroke-linecap:round;stroke-linejoin:round;}
	.st39{fill:#BA1E4B;}
	.st40{opacity:0.1;fill:#050505;enable-background:new    ;}
	.st41{fill:#786356;stroke:#050505;stroke-width:0.7;stroke-linecap:round;stroke-linejoin:round;}
	.st42{opacity:0.2;}
	.st43{fill:#786356;}
	.st44{fill:#FEFEFE;stroke:#050505;stroke-width:0.5;stroke-linecap:round;stroke-linejoin:round;}
	.st45{fill:#54321D;stroke:#050505;stroke-width:0.4;}
	.st46{fill:#462A18;}
	.st47{fill:none;stroke:#050505;stroke-width:0.4;}
	.st48{fill-rule:evenodd;clip-rule:evenodd;fill:#050505;}
	.st49{opacity:0.6;fill:#EC1F40;enable-background:new    ;}
	.st50{fill-rule:evenodd;clip-rule:evenodd;fill:#FEFEFE;}
	.st51{fill:#ED2930;}
</style>
<linearGradient id="SVGID_1_" gradientUnits="userSpaceOnUse" x1="41.9101" y1="10.9674" x2="43.8101" y2="25.2674" gradientTransform="matrix(1 0 0 -1 0 117.8898)">
	<stop  offset="0" style="stop-color:#1B55A6"/>
	<stop  offset="0.3" style="stop-color:#4372B8"/>
	<stop  offset="0.8" style="stop-color:#4372B8"/>
	<stop  offset="1" style="stop-color:#6392CC"/>
</linearGradient>
<path class="st0" d="M48.7,92.7h-3.6c-0.3,0-0.6,0.2-0.7,0.4l-2.7,6.9c-0.3-0.2-0.6-0.3-1.1-0.3c-1.4,0-2.9,0.8-3.3,2
	c-0.5,1.1,0.3,2,1.7,2.1c1.4,0,2.9-0.9,3.3-2l2.7-6.7c0.1-0.3,0.3-0.5,0.6-0.5l2.6-0.1c0.3,0,0.5-0.1,0.6-0.3l0.3-1
	C49.2,93,49,92.7,48.7,92.7z"/>
<path class="st1" d="M49,92.8C49,92.8,49,92.8,49,92.8l-0.4,1c0,0.2-0.3,0.4-0.5,0.4l-2.6,0.1c-0.3,0-0.6,0.1-0.7,0.4l-2.6,6.7
	c-0.4,1.1-1.9,2-3.3,2c-0.8,0-1.4-0.4-1.7-0.9c0.1,0.7,0.8,1.2,1.8,1.3c1.4,0,2.9-0.9,3.3-2l2.7-6.7c0.1-0.3,0.3-0.5,0.6-0.5
	l2.6-0.1c0.3,0,0.5-0.1,0.6-0.3l0.3-1C49.2,93.1,49.1,92.9,49,92.8z"/>
<path class="st2" d="M46.7,93.2h-1.4c-0.3,0-0.5,0.1-0.6,0.4"/>
<path class="st2" d="M48.1,93.2h-0.3"/>
<path class="st2" d="M43.9,95.6l-1.3,3.2"/>
<path class="st2" d="M44.2,94.8L44.1,95"/>
<path class="st2" d="M39.1,100.5c-0.6,0.2-1,0.7-1.2,1.2"/>
<path class="st2" d="M39.9,100.2c-0.1,0-0.1,0-0.2,0"/>
<defs>
	<filter id="Adobe_OpacityMaskFilter" filterUnits="userSpaceOnUse" x="70.7" y="73.2" width="22.8" height="27.1">
		<feColorMatrix  type="matrix" values="1 0 0 0 0  0 1 0 0 0  0 0 1 0 0  0 0 0 1 0"/>
	</filter>
</defs>
<mask maskUnits="userSpaceOnUse" x="70.7" y="73.2" width="22.8" height="27.1" id="mask1_149_64404_1_">
	<path class="st3" d="M89.5,77.5l-11,4.2c-0.3,0.1-0.5,0.4-0.5,0.7l0,8c-0.4-0.1-0.8,0-1.2,0.2c-1.4,0.5-2.5,2-2.5,3.3
		c0,1.3,1.2,2,2.6,1.4c1.4-0.5,2.5-2,2.5-3.3l0-7.9c0-0.3,0.2-0.6,0.5-0.7l3.3-1.4c0.4-0.2,0.8,0.1,0.8,0.5l0,5.2
		c-0.3-0.1-0.7,0-1.1,0.1c-1.2,0.4-2.1,1.7-2.1,2.8c0,1.1,1,1.7,2.2,1.2c1.2-0.4,2.1-1.7,2.1-2.8l0-9.1C85,79.6,89.6,77.5,89.5,77.5
		C89.6,77.5,89.6,77.5,89.5,77.5z"/>
</mask>
<g class="st4">
	
		<linearGradient id="SVGID_2_" gradientUnits="userSpaceOnUse" x1="83.1998" y1="26.5839" x2="80.1998" y2="38.6839" gradientTransform="matrix(1 0 0 -1 0 117.8898)">
		<stop  offset="0" style="stop-color:#3156A6"/>
		<stop  offset="0.3" style="stop-color:#4D70B6"/>
		<stop  offset="0.8" style="stop-color:#4D70B6"/>
		<stop  offset="1" style="stop-color:#7592CB"/>
	</linearGradient>
	<path class="st5" d="M75.5,100.3l-4.8-19.6l17.9-7.5l4.9,19.6L75.5,100.3z"/>
</g>
<path class="st2" d="M80.4,81.6L79,82.1c-0.3,0.1-0.5,0.4-0.5,0.7"/>
<path class="st2" d="M81.7,81l-0.2,0.1"/>
<path class="st6" d="M83.7,82.1c-0.1-0.3-0.4-0.4-0.8-0.3l-3.2,1.4c-0.3,0.2-0.5,0.5-0.5,0.8v7.7c0,1.3-1.1,2.8-2.5,3.3
	c-0.9,0.3-1.8,0.2-2.2-0.4c0.3,0.8,1.3,1.2,2.4,0.8c1.4-0.6,2.5-2,2.5-3.3v-7.9c0-0.3,0.2-0.6,0.5-0.7l3.3-1.5
	C83.4,81.9,83.6,82,83.7,82.1z"/>
<path class="st6" d="M84.8,79.5c0,0.1,0,0.2,0,0.3l0.1,9c0,1.1-1,2.3-2.2,2.8c-0.7,0.3-1.4,0.1-1.8-0.3c0.3,0.7,1.1,1,2.1,0.6
	c1.1-0.4,2.1-1.7,2.1-2.8L85,80C85,79.8,84.9,79.6,84.8,79.5z"/>
<path class="st2" d="M78.5,85.1l0.1,3.8"/>
<path class="st2" d="M78.5,84.2v0.2"/>
<path class="st2" d="M84.4,84.1v1.4"/>
<path class="st2" d="M75.7,92c-0.5,0.5-0.8,1.1-0.8,1.7"/>
<path class="st2" d="M76.4,91.4c-0.1,0.1-0.1,0.1-0.2,0.1"/>
<path class="st2" d="M82.3,88.8c-0.5,0.4-0.8,1-0.8,1.5"/>
<path class="st2" d="M82.9,88.3c0,0.1,0,0.1-0.1,0.1"/>
<defs>
	<filter id="Adobe_OpacityMaskFilter_1_" filterUnits="userSpaceOnUse" x="76.8" y="74.3" width="16.8" height="21.3">
		<feColorMatrix  type="matrix" values="1 0 0 0 0  0 1 0 0 0  0 0 1 0 0  0 0 0 1 0"/>
	</filter>
</defs>
<mask maskUnits="userSpaceOnUse" x="76.8" y="74.3" width="16.8" height="21.3" id="mask2_149_64404_1_">
	<path class="st7" d="M89.7,77.4l-11.1,4.3c-0.1,0.1,1-0.3,2.3-0.8c1.5-0.5,3.2-1,3.2-0.8l0,7.3c-0.3-0.1-0.7,0-1.1,0.1
		c-1.3,0.5-2.3,1.8-2.3,3c0,1.2,1.1,1.8,2.3,1.3c1.3-0.5,2.3-1.8,2.3-3l0-7.2c0-0.3,0.2-0.5,0.4-0.7l3-1.3c0.4-0.2,0.7,0.1,0.7,0.4
		l0,4.8c-0.3,0-0.6,0-1,0.1c-1.1,0.4-1.9,1.5-1.9,2.6c0,1,0.9,1.5,2,1.1c1.1-0.4,1.9-1.5,1.9-2.5l0-8.3c0-0.3-0.3-0.6-0.6-0.5
		C89.8,77.4,89.7,77.4,89.7,77.4z"/>
</mask>
<g class="st8">
	
		<linearGradient id="SVGID_3_" gradientUnits="userSpaceOnUse" x1="86.3398" y1="28.3395" x2="83.5398" y2="39.6395" gradientTransform="matrix(1 0 0 -1 0 117.8898)">
		<stop  offset="0" style="stop-color:#3156A6"/>
		<stop  offset="0.3" style="stop-color:#4D70B6"/>
		<stop  offset="0.8" style="stop-color:#4D70B6"/>
		<stop  offset="1" style="stop-color:#7592CB"/>
	</linearGradient>
	<path class="st9" d="M80.8,95.6l-4-16l12.8-5.3l4,16L80.8,95.6z"/>
</g>
<path class="st2" d="M86.1,79.3l-1.2,0.5"/>
<path class="st2" d="M87.4,78.8l-0.3,0.1"/>
<path class="st6" d="M89.1,79.8c-0.1-0.3-0.4-0.4-0.6-0.2l-3,1.3C85.2,81,85,81.2,85,81.5l0.1,7.1c0,1.2-1.1,2.5-2.4,3
	c-0.8,0.3-1.6,0.1-2-0.3c0.4,0.7,1.2,1,2.2,0.6c1.3-0.5,2.4-1.8,2.3-3v-7.2c0-0.3,0.2-0.5,0.4-0.6l3.1-1.3
	C88.8,79.7,89,79.7,89.1,79.8z"/>
<path class="st6" d="M90.1,77.4c0.1,0.1,0.1,0.2,0.1,0.3v8.2c0,1-0.8,2.2-1.9,2.6c-0.7,0.2-1.3,0.1-1.7-0.3c0.3,0.6,1,0.9,1.9,0.6
	c1.1-0.4,1.9-1.6,1.9-2.6v-8.3C90.4,77.7,90.3,77.5,90.1,77.4z"/>
<path class="st2" d="M84.4,82.5l0.1,3.5"/>
<path class="st2" d="M84.4,81.7v0.2"/>
<path class="st2" d="M89.8,81.6V83"/>
<path class="st2" d="M89.8,80.4L89.8,80.4"/>
<path class="st2" d="M81.8,88.8c-0.4,0.5-0.6,1.1-0.6,1.6"/>
<path class="st2" d="M82.5,88.3c-0.1,0.1-0.1,0.1-0.2,0.1"/>
<path class="st2" d="M87.8,85.9c-0.4,0.4-0.6,0.9-0.6,1.4"/>
<path class="st2" d="M88.4,85.5c0,0,0,0-0.1,0.1"/>
<defs>
	<filter id="Adobe_OpacityMaskFilter_2_" filterUnits="userSpaceOnUse" x="30.3" y="31.7" width="23.7" height="28">
		<feColorMatrix  type="matrix" values="1 0 0 0 0  0 1 0 0 0  0 0 1 0 0  0 0 0 1 0"/>
	</filter>
</defs>
<mask maskUnits="userSpaceOnUse" x="30.3" y="31.7" width="23.7" height="28" id="mask3_149_64404_1_">
	<path class="st10" d="M44.6,38.6c-0.1-0.4-0.4-0.5-0.7-0.4c-1.6,0.7-5.6,2.7-5.6,2.7c-0.3,0.1-0.5,0.4-0.4,0.8l0.6,8
		c-0.4,0-0.8,0-1.2,0.2c-1.4,0.6-2.4,2.2-2.3,3.5c0.1,1.3,1.3,1.9,2.7,1.2c1.4-0.6,2.4-2.2,2.3-3.5l-0.6-7.8c0-0.3,0.2-0.6,0.4-0.8
		l3.2-1.7c0.4-0.2,0.8,0,0.9,0.4l0.4,5.2c-0.3,0-0.7,0-1,0.2c-1.2,0.5-2,1.8-1.9,3c0.1,1.1,1.1,1.6,2.2,1c1.2-0.5,2-1.8,1.9-2.9
		L44.6,38.6C44.6,38.7,44.6,38.7,44.6,38.6L44.6,38.6z"/>
</mask>
<g class="st11">
	
		<linearGradient id="SVGID_4_" gradientUnits="userSpaceOnUse" x1="43.6043" y1="67.7841" x2="39.7043" y2="79.5842" gradientTransform="matrix(1 0 0 -1 0 117.8898)">
		<stop  offset="0" style="stop-color:#3156A6"/>
		<stop  offset="0.3" style="stop-color:#4D70B6"/>
		<stop  offset="0.8" style="stop-color:#4D70B6"/>
		<stop  offset="1" style="stop-color:#7592CB"/>
	</linearGradient>
	<path class="st12" d="M36.7,59.7l-6.4-19.2l17.3-8.8L54,50.9L36.7,59.7z"/>
</g>
<path class="st2" d="M40.1,40.6l-1.4,0.7c-0.2,0.1-0.4,0.4-0.4,0.7"/>
<path class="st2" d="M41.4,40l-0.2,0.1"/>
<path class="st6" d="M43.4,40.9c-0.1-0.3-0.4-0.4-0.7-0.2l-3.2,1.7c-0.3,0.1-0.5,0.4-0.4,0.7l0.6,7.7c0.1,1.3-0.9,2.9-2.3,3.5
	c-0.9,0.4-1.7,0.3-2.2-0.2c0.4,0.8,1.4,1,2.5,0.5c1.3-0.6,2.3-2.1,2.2-3.5l-0.6-7.8c0-0.3,0.1-0.6,0.4-0.7l3.2-1.7
	C43.1,40.8,43.3,40.8,43.4,40.9z"/>
<path class="st6" d="M44.3,38.2c0.1,0.1,0.1,0.2,0.1,0.3l0.7,9c0.1,1.1-0.8,2.4-1.9,2.9c-0.7,0.4-1.4,0.3-1.8-0.1
	c0.3,0.7,1.1,0.9,2,0.4c1.2-0.5,2-1.8,1.9-2.9l-0.7-9.1C44.6,38.5,44.5,38.3,44.3,38.2z"/>
<path class="st2" d="M38.5,44.3l0.3,3.8"/>
<path class="st2" d="M38.4,43.4l0.1,0.2"/>
<path class="st2" d="M36.2,51.4c-0.4,0.5-0.7,1.1-0.6,1.7"/>
<path class="st2" d="M36.8,50.8C36.8,50.8,36.8,50.8,36.8,50.8"/>
<path class="st2" d="M42.5,47.7c-0.4,0.5-0.6,1-0.6,1.5"/>
<path class="st2" d="M43.1,47.2c0,0,0,0-0.1,0.1"/>
<path class="st2" d="M44.2,41.3l0.3,3.4"/>
<path class="st2" d="M44.1,40.5l0.1,0.2"/>
<path class="st13" d="M13.3,45.8v-0.7c0-0.3,0-0.5,0-0.7c0-0.2,0-0.5,0.1-0.9c0.1-0.4,0.2-0.8,0.4-1.1c0.2-0.3,0.5-0.5,1-0.8
	c0.5-0.3,1-0.4,1.6-0.5c1.4-0.1,2.5,0.4,3,0.9c0.3,0.2,0.5,0.5,0.7,0.9c0.1,0.4,0.2,0.7,0.3,0.9c0,0.2,0,0.4,0,0.7l0.1,0.1
	c0,0.7-0.2,1.5-0.6,2.4c-0.5,0.9-1,1.6-1.7,2.3l2.7-0.2l0.2,2.8l-7,0.6L13.9,50c1.7-1.7,2.8-3,3.1-3.8c0.2-0.4,0.3-0.7,0.4-0.9
	c0-0.1,0-0.3,0-0.5c0-0.4,0-0.5-0.2-0.7c-0.1-0.1-0.3-0.2-0.4-0.1c-0.5,0-0.5,0.3-0.5,0.9l0.1,0.7L13.3,45.8z"/>
<path class="st13" d="M29.3,47.8c0.1,0.3,0.1,0.5,0.1,0.7c0,0.3-0.1,0.6-0.2,1c-0.1,0.4-0.3,0.7-0.5,1c-0.2,0.3-0.5,0.6-1,0.8
	c-0.5,0.3-1.1,0.4-1.8,0.5c-0.7,0.1-1.2,0-1.7-0.2c-0.5-0.2-0.8-0.4-1.1-0.7c-0.2-0.3-0.4-0.6-0.6-1c-0.1-0.4-0.2-0.7-0.2-0.9
	c-0.1-0.1-0.1-0.3-0.1-0.6v-0.3l3-0.2v0.2c0,0.6,0.2,0.9,0.6,0.9c0.5-0.1,0.5-0.4,0.5-0.9c-0.1-0.5-0.3-0.8-0.8-0.8l-0.7,0.1
	L24.7,45l0.7-0.1c0.4,0,0.6-0.2,0.6-0.7c-0.1-0.6-0.3-0.9-0.7-0.9s-0.4,0.3-0.4,0.9v0.3l-3,0.2v-0.3c-0.1-0.3-0.1-0.5,0-0.7
	c-0.1-0.1,0-0.4,0.1-0.9c0.1-0.4,0.2-0.7,0.4-1c0.2-0.3,0.5-0.6,1-0.9c0.5-0.2,1-0.3,1.6-0.4c1.4-0.1,2.5,0.3,3,0.8
	c0.3,0.3,0.5,0.6,0.6,1c0.2,0.3,0.3,0.6,0.4,0.9c0,0.2,0,0.4,0,0.7c0.1,0.2,0.1,0.5-0.1,1.3c-0.1,0.3-0.3,0.6-0.5,0.7
	c0.3,0.1,0.5,0.3,0.6,0.6c0.1,0.3,0.2,0.6,0.3,0.9V47.8z"/>
<path class="st14" d="M14.7,44.3l-0.1-0.8c0-0.2,0-0.4,0-0.6c0-0.2,0-0.5,0.1-0.9c0.1-0.5,0.3-0.8,0.4-1.1c0.2-0.3,0.5-0.5,1-0.8
	c0.5-0.3,1-0.4,1.7-0.5c1.4-0.1,2.4,0.3,2.9,0.8c0.3,0.3,0.5,0.6,0.7,1c0.1,0.4,0.2,0.7,0.3,0.9c0,0.2,0,0.4,0.1,0.7
	c0.1,0.8-0.1,1.6-0.6,2.5c-0.5,0.9-1,1.6-1.7,2.3l2.7-0.2l0.2,2.8l-7,0.5l-0.2-2.5c1.7-1.6,2.8-3,3.1-3.7c0.2-0.4,0.3-0.7,0.4-0.9
	c0.1-0.2,0.1-0.4,0-0.5c0-0.4,0-0.6-0.2-0.8c-0.1-0.1-0.3-0.1-0.4-0.1c-0.5,0.1-0.5,0.3-0.5,1l0.1,0.6L14.7,44.3z"/>
<path class="st14" d="M30.7,46.2L30.7,46.2c0,0.4,0,0.6,0,0.8s-0.1,0.5-0.2,0.9c-0.1,0.5-0.2,0.8-0.5,1.1c-0.2,0.3-0.5,0.5-1,0.8
	s-1.1,0.4-1.8,0.5c-0.6,0-1.2-0.1-1.7-0.3c-0.5-0.1-0.8-0.3-1.1-0.6c-0.2-0.3-0.4-0.6-0.5-1c-0.2-0.4-0.3-0.7-0.3-0.9
	c-0.1-0.2-0.1-0.4-0.1-0.6v-0.3l3-0.3v0.3c0.1,0.6,0.2,0.8,0.6,0.8c0.5,0,0.6-0.4,0.5-0.9c-0.1-0.5-0.3-0.8-0.7-0.7h-0.7L26,43.5
	l0.7-0.1c0.4,0,0.6-0.3,0.6-0.8c0-0.6-0.2-0.9-0.6-0.8c-0.5,0-0.5,0.3-0.5,0.9v0.2l-3,0.3v-0.3c0-0.3,0-0.5,0-0.7s0-0.5,0.1-0.9
	c0.1-0.4,0.2-0.8,0.4-1.1c0.2-0.3,0.5-0.5,1-0.8c0.5-0.3,1-0.4,1.7-0.5c1.3-0.1,2.4,0.4,2.9,0.9c0.3,0.2,0.5,0.5,0.7,0.9
	c0.1,0.4,0.2,0.7,0.3,0.9c0,0.2,0,0.4,0.1,0.7v0.1c0,0.2,0,0.5-0.2,1.2c-0.1,0.4-0.3,0.7-0.5,0.8c0.3,0.1,0.5,0.3,0.6,0.6
	c0.2,0.3,0.3,0.6,0.3,0.8L30.7,46.2z"/>
<path class="st15" d="M49.6,101.5c-0.1,1,5.6,1.9,12.7,2.1c7.1,0.2,12.8-0.5,12.8-1.5s-5.7-2-12.7-2.1
	C55.3,99.8,49.6,100.5,49.6,101.5z"/>
<path class="st16" d="M83.5,41.2c0,0,0.7-0.1,0.8,0c0.1,0.2,0,2.6-0.1,2.8c-0.1,0.2-0.8,0.1-0.8,0.1L83.5,41.2z"/>
<path class="st17" d="M82.3,38.6c2.1,1.5,1.8,6.6,0.2,8.3l-0.6-0.8c1.1-2,1.8-5.1,0-6.5L82.3,38.6z"/>
<path class="st18" d="M82.3,38.6c2.1,1.5,1.8,6.6,0.2,8.3l-0.6-0.8c1.1-2,1.8-5.1,0-6.5L82.3,38.6z"/>
<path class="st16" d="M86.5,54.7l-1.1,0.5l-0.7-1.7l0.4-0.2L86.5,54.7z"/>
<path class="st19" d="M84.1,68.6c-2.8,1.9-6,2.8-8.8,2c-2.8-0.7-6.7-2.2-12-2.4c-5.2-0.1-7.5-2.5-7.5-6.2c0.1-3.8,3.6-24.5,3.6-26.5
	c0.1-2,0.5-4.6,2.9-4.5c2.3,0,11.7,0.2,13.8,0.6c2.2,0.4,5.6,1.5,6.3,4.6c0.3,1.5,0.8,5.7,0.9,6c-0.3,0.2-0.8,0.1-0.8,0.1
	c-0.2,9.2,3,8.6,3,17.6C85.4,61.7,84.8,67.3,84.1,68.6z"/>
<path class="st20" d="M82.5,42.3c-1.3,0-5.6-1.6-6.5-9.2"/>
<path class="st21" d="M74.2,32.5c0.4,0.7,0.5,2.7,0.5,3.7c0.1,1-0.3,27.6-0.7,29.7c-0.4,2.2-1.1,2.9-2.3,3.5"/>
<path class="st18" d="M62.2,31.7L73,32.1c0.6,0,1.3,0.1,1.5,1.8c0.1,1.6,0,29.4-0.5,32c-0.5,2.7-2,3.7-3.1,3.5
	c-1.1-0.1-5.4-1.3-7.2-1.2c-1.9,0.1-6.6-0.7-7.3-3.1c-0.7-2.4-0.6-3.9-0.4-5.2c0.2-1.3,3.4-24,3.4-24c0.1-1.2,0.5-3.9,1.1-4.1
	C61.2,31.7,62.2,31.7,62.2,31.7z"/>
<path class="st22" d="M81.3,35.3c-0.4-0.1-1.2-0.2-1.7,0L78,34.4l-0.4,0.5l0.9,2.3l-0.3,0.9l1.3,0.9h2.4c-0.1-0.3-0.7-2.5-0.8-2.7
	C81.1,36,81.3,35.3,81.3,35.3z"/>
<path class="st13" d="M78.7,36.1c0-0.2,0.2-0.4,0.4-0.4c0.2,0,0.3,0.2,0.3,0.4c0,0.2-0.1,0.4-0.3,0.4C78.8,36.5,78.7,36.3,78.7,36.1
	z"/>
<path class="st16" d="M81.8,68.7h0.5c0-4.8,0.3-8.9,0.8-11.6c0.5-2.6,1-3.4,1.3-3.5c0,0,0,0,0.1,0.1l0.5-0.4
	c-0.3-0.2-0.5-0.3-0.8-0.2c-0.3,0.1-0.6,0.4-0.9,1.1c-0.3,0.7-0.6,1.6-0.8,2.8C82,59.8,81.8,63.8,81.8,68.7z"/>
<path class="st16" d="M84.6,53.3c0-0.2,0.2-0.3,0.4-0.3s0.3,0.1,0.3,0.3s-0.2,0.4-0.3,0.4C84.8,53.7,84.6,53.5,84.6,53.3z"/>
<path class="st23" d="M85.7,54.3l0.2,0.3l-0.3,0.1l-0.2-0.4H85.7z"/>
<path class="st23" d="M84.2,53.2l0.2,0.4"/>
<path class="st23" d="M83.8,53.3l0.3,0.5"/>
<path class="st23" d="M83.6,53.7l0.3,0.4"/>
<path class="st23" d="M83.3,54.1l0.5,0.3"/>
<path class="st23" d="M83.1,54.6l0.5,0.2"/>
<path class="st23" d="M83,55l0.5,0.3"/>
<path class="st23" d="M82.9,55.5l0.5,0.2"/>
<path class="st23" d="M82.7,56l0.5,0.1"/>
<path class="st23" d="M82.6,56.4l0.5,0.2"/>
<path class="st23" d="M82.6,56.9l0.5,0.2"/>
<path class="st23" d="M82.5,57.4l0.5,0.1"/>
<path class="st23" d="M82.4,57.8l0.5,0.2"/>
<path class="st23" d="M82.3,58.3l0.6,0.1"/>
<path class="st23" d="M82.3,58.8l0.5,0.1"/>
<path class="st23" d="M82.2,59.3l0.6,0.1"/>
<path class="st23" d="M82.2,59.7l0.5,0.1"/>
<path class="st23" d="M82.1,60.2l0.5,0.1"/>
<path class="st23" d="M82.1,60.7l0.5,0.1"/>
<path class="st23" d="M82,61.2l0.6,0.1"/>
<path class="st23" d="M82,61.7l0.6,0.1"/>
<path class="st23" d="M82,62.2l0.5,0.1"/>
<path class="st23" d="M81.9,62.7h0.6"/>
<path class="st23" d="M81.9,63.2h0.5"/>
<path class="st23" d="M82.5,63.7h-0.6"/>
<path class="st23" d="M82.4,64.3h-0.5"/>
<path class="st23" d="M82.4,64.8h-0.5"/>
<path class="st23" d="M82.4,65.3h-0.6"/>
<path class="st23" d="M82.4,65.7l-0.6,0.1"/>
<path class="st23" d="M82.3,66.2h-0.5"/>
<path class="st23" d="M82.4,66.7h-0.6"/>
<path class="st23" d="M82.3,67.1l-0.5,0.1"/>
<path class="st23" d="M82.3,67.6h-0.6"/>
<path class="st23" d="M82.3,68l-0.6,0.1"/>
<path class="st23" d="M82.4,68.4h-0.7"/>
<path class="st24" d="M64,101.4c0-0.5-0.3-3.4-0.4-3.8c-0.2-0.5-3.9-1.3-5.3,0c-0.5,0.4-1.4,0.6-2,0.8c-1.1,0.4-3.5,1.7-3.6,3.1
	c0.2,0.2,1.2,0.4,2.6,0.4c1.3,0,7.7,0.1,8.1,0.2C63.8,102.1,64,101.7,64,101.4z"/>
<path class="st25" d="M58,99.3c-0.1,0.1-0.2,0.1-0.3,0.2c-0.6-0.4-1.3-0.6-2-0.8c0.8-0.4,1.8-0.6,2.5-1.2c0.1-0.1,0.3-0.2,0.7-0.3
	c0.6,0.1,1.2,0.3,1.7,0.7C59.8,98.4,58.9,98.7,58,99.3z"/>
<path class="st26" d="M55.2,98.9c0.1-0.1,0.3-0.1,0.5-0.2c0.7,0.2,1.4,0.4,2,0.8c0.1-0.1,2.1-1.1,2.9-1.6c-0.5-0.4-1.1-0.6-1.7-0.7
	c1.4-0.5,4.3-1.1,4.6,0.2c0.3,1.7,0.4,3.2,0.4,3.2s-0.6,0.6-1.2,0.6c-0.7,0-5.9-0.2-5.9-0.2c-0.4-0.5-1.2-1.2-2.8-1.3
	C54.4,99.4,54.8,99.2,55.2,98.9z"/>
<path class="st27" d="M58.5,98.8c-0.3-0.2-1.4-0.6-1.4-0.6"/>
<path class="st27" d="M57.7,99.5c0.2,0.4,0.5,1,0.5,1.5"/>
<path class="st28" d="M61.8,101.1c0.5,0,0.8-0.6,0.8-0.9c-0.1-0.5-0.4-1.9-0.7-3.2c0.9,0.1,1.6,0.4,1.7,0.6c0.1,0.4,0.4,3.3,0.4,3.8
	c0,0.3-0.2,0.7-0.6,0.7c-0.4-0.1-6.8-0.2-8.1-0.2c-0.6,0-1.1,0-1.5-0.1C57,101.5,61.4,101.2,61.8,101.1z"/>
<path class="st29" d="M63.4,74.2l0.2,23.3c-0.8,0.8-4.5,0.6-5.4,0.2c0,0-2.4-20.8-2.6-23.1c-0.1-2.3,0.8-4.5,3.7-4.5
	C63.2,70.2,63.4,74.2,63.4,74.2z"/>
<path class="st30" d="M63.2,71.9l0.4,25.6c-0.8,0.8-4.5,0.6-5.4,0.2c0,0-2.6-23-2.7-25.3c-0.2-2.4,0.7-4.5,3.7-4.5
	c3.9,0.1,4.2,6.3,4.2,6.3"/>
<path class="st20" d="M63.2,71.9l0.4,25.6c-0.8,0.8-4.5,0.6-5.4,0.2c0,0-2.6-23-2.7-25.3c-0.2-2.4,0.7-4.5,3.7-4.5
	c3.9,0.1,4.2,6.3,4.2,6.3"/>
<path class="st28" d="M61.7,73.7c0,0-0.1-2.3-1.9-3.5c3.4,0.4,3.6,4,3.6,4l0.2,23.3c-0.3,0.2-0.9,0.4-1.6,0.5L61.7,73.7z"/>
<path class="st23" d="M60.7,74L62,97.8"/>
<path class="st24" d="M70.4,101.6c0-0.6-0.4-3.5-0.5-3.9c-0.2-0.4-3.9-1.3-5.3,0c-0.4,0.5-1.3,0.6-1.9,0.8c-1.2,0.5-3.6,1.7-3.6,3.2
	c0.2,0.1,1.1,0.3,2.5,0.4c1.4,0,7.7,0.1,8.1,0.1C70.1,102.2,70.4,101.8,70.4,101.6z"/>
<path class="st25" d="M64.3,99.4c-0.1,0.1-0.1,0.1-0.2,0.2c-0.6-0.4-1.4-0.6-2.1-0.8c0.9-0.3,1.8-0.5,2.5-1.1
	c0.1-0.1,0.4-0.2,0.7-0.4c0.6,0.2,1.3,0.3,1.7,0.7C66.1,98.6,65.2,98.9,64.3,99.4z"/>
<path class="st26" d="M61.5,99.1c0.2-0.1,0.4-0.2,0.5-0.3c0.7,0.2,1.5,0.4,2.1,0.8c0.1,0,2-1,2.8-1.6c-0.4-0.4-1.1-0.5-1.7-0.7
	c1.4-0.5,4.4-1.1,4.6,0.3c0.4,1.7,0.4,3.1,0.4,3.1s-0.6,0.7-1.2,0.6c-0.6,0-5.9-0.1-5.9-0.1c-0.3-0.5-1.2-1.3-2.8-1.3
	C60.7,99.6,61.1,99.3,61.5,99.1z"/>
<path class="st27" d="M64.9,98.9c-0.4-0.2-1.4-0.5-1.4-0.5"/>
<path class="st27" d="M64.1,99.6c0.2,0.4,0.4,1,0.4,1.6"/>
<path class="st28" d="M68.1,101.3c0.6,0,0.8-0.6,0.8-1c0-0.4-0.3-1.9-0.6-3.1c0.9,0.1,1.5,0.3,1.6,0.5c0.1,0.4,0.5,3.3,0.5,3.9
	c0,0.2-0.3,0.6-0.7,0.6c-0.4,0-6.7-0.1-8.1-0.1c-0.6-0.1-1.1-0.1-1.5-0.2C63.4,101.7,67.7,101.3,68.1,101.3z"/>
<path class="st29" d="M69.7,74.3l0.2,23.3c-0.8,0.8-4.5,0.6-5.4,0.3c0,0-2.4-20.9-2.6-23.2c-0.1-2.3,0.8-4.5,3.8-4.4
	C69.6,70.4,69.7,74.3,69.7,74.3z"/>
<path class="st29" d="M69.7,74.3l0.2,23.3c-0.8,0.8-4.5,0.6-5.4,0.3c0,0-2.4-20.9-2.6-23.2c-0.1-2.3,0.8-4.5,3.8-4.4
	C69.6,70.4,69.7,74.3,69.7,74.3z"/>
<path class="st28" d="M68.1,73.9c0,0-0.1-2.4-1.9-3.6c3.4,0.4,3.5,4,3.5,4l0.2,23.3c-0.2,0.3-0.9,0.5-1.6,0.5L68.1,73.9z"/>
<path class="st23" d="M67.1,74.2L68.3,98"/>
<path class="st31" d="M50.8,72.9c0.3,0,1.5-0.4,1.5-2.4c0.1-2-0.3-2.5-1-3c-0.6-0.5-3.2-0.1-3.2-0.1s-2.1,0.5-3.2,4.2
	c0,0-0.5,1.8,0,1.8c0.6,0,4.5,0,5,0.1C50.4,73.5,50.3,73,50.8,72.9z"/>
<path class="st32" d="M49.3,73c-0.2,1.8-0.1,2.3-0.1,2.3c0,0.5,0.3,0.8,0.7,0.9c0.4,0,0.8-0.2,0.8-0.6c0.2-0.9,0.2-2.3,0.3-3.1"/>
<path class="st20" d="M49.3,73c-0.2,1.8-0.1,2.3-0.1,2.3c0,0.5,0.3,0.8,0.7,0.9c0.4,0,0.8-0.2,0.8-0.6c0.2-0.9,0.2-2.3,0.3-3.1"/>
<path class="st32" d="M47.7,72.8c-0.3,1.5-0.2,3.1-0.2,3.1c0,0.5,0.2,0.8,0.7,0.9c0.4,0.1,0.7-0.2,0.8-0.6c0.1-0.4,0-0.4,0-1.3
	c0,0,0.1-0.9,0.3-1.8"/>
<path class="st20" d="M47.7,72.8c-0.3,1.5-0.2,3.1-0.2,3.1c0,0.5,0.2,0.8,0.7,0.9c0.4,0.1,0.7-0.2,0.8-0.6c0.1-0.4,0-0.4,0-1.3
	c0,0,0.1-0.9,0.3-1.8"/>
<path class="st32" d="M47.5,74.2c-0.2,1.3-0.1,1.7-0.2,2.3c-0.1,0.4-0.5,0.6-0.9,0.6c-0.4-0.1-0.7-0.4-0.6-0.9c0,0-0.1-1.4,0.2-3.1"
	/>
<path class="st20" d="M47.5,74.2c-0.2,1.3-0.1,1.7-0.2,2.3c-0.1,0.4-0.5,0.6-0.9,0.6c-0.4-0.1-0.7-0.4-0.6-0.9c0,0-0.1-1.4,0.2-3.1"
	/>
<path class="st32" d="M45.8,69.5c-2,4-1.7,6.5-1.7,6.5c0,0.5,0.3,0.9,0.7,1s0.8-0.2,0.9-0.6c0.2-1.4,0.4-3.4,0.6-3.6"/>
<path class="st20" d="M45.8,69.5c-2,4-1.7,6.5-1.7,6.5c0,0.5,0.3,0.9,0.7,1s0.8-0.2,0.9-0.6c0.2-1.4,0.4-3.4,0.6-3.6"/>
<path class="st28" d="M50.9,72.2c0.2,0,0.9-0.8-0.1-1.2c-0.8-0.2-2.1-0.5-3.1-0.4c-1.3,0.2-2.3,0.5-2.3-0.1c0-0.5,0.9-2,1.6-2.5
	c0.6-0.6,2.6-0.8,3.2-0.8c0.7,0.1,1.7,0.6,2,1.6c0.3,1.1,0.2,2.7-0.4,3.2C51.2,72.4,50.9,72.2,50.9,72.2z"/>
<path class="st28" d="M46,72.1c0,0-0.5,0.8-0.7,1.6c-0.2,0.8-0.6,2.7,0.1,2.7l0.4-0.2c0,0,0.3,0.5,0.8,0.4s0.7-1.1,0.7-1.1
	s0.4,0.8,1,0.5c0.5-0.3,0.4-0.7,0.4-0.7s0.4,0.5,0.9,0.3c0.5-0.2,1-0.8,1-1.4c0.1-0.6,0.2-1.8,0.2-1.8s-0.4,0.4-1.2,0.4
	c-0.9,0-1.8-0.1-1.8-0.1L46,72.1z"/>
<path class="st32" d="M48,72.4c0,0,0,0.2-0.3,1.2c-0.3,0.7-0.3,0.9-0.6,1.3c-0.3,0.4-0.8,0.4-1.1,0.1c-0.4-0.2-0.5-0.7-0.2-1.2
	c0.2-0.6,0.3-0.9,0.3-1.6c0,0-0.1-0.7-0.5-0.8"/>
<path class="st20" d="M48,72.4c0,0,0,0.2-0.3,1.2c-0.3,0.7-0.3,0.9-0.6,1.3c-0.3,0.4-0.8,0.4-1.1,0.1c-0.4-0.2-0.5-0.7-0.2-1.2
	c0.2-0.6,0.3-0.9,0.3-1.6c0,0-0.1-0.7-0.5-0.8"/>
<path class="st33" d="M54.5,41.5c4.9,0.1,4.6,3.7,4.6,3.7c-0.8,7.7-2.7,15.1-4.7,22.5c-0.1,0.1-1.3,3.8-1.3,3.8l-7.9-1.9
	c0,0,2.9-9.5,4-15.1c1-4.6,1.3-7.7,1.7-9.3C51.4,43,52,41.5,54.5,41.5z"/>
<path class="st28" d="M52.1,67.3c2-7.3,4-14.8,4.7-22.4c0,0,0.2-2.5-2.4-3.4c0,0,0,0,0.1,0c4.9,0.1,4.6,3.7,4.6,3.7
	c-0.8,7.7-2.7,15.1-4.7,22.5c-0.1,0.1-1.3,3.8-1.3,3.8s-0.9-0.2-2.2-0.5C51.2,70.2,52.1,67.4,52.1,67.3z"/>
<path class="st34" d="M51.7,68.7c0.1-0.4,0.5-0.6,0.9-0.5c0.4,0.2,0.6,0.5,0.4,0.9c-0.1,0.4-0.5,0.6-0.8,0.5
	C51.8,69.5,51.6,69.1,51.7,68.7z"/>
<path class="st35" d="M51.8,68.4c0.1-0.4,0.5-0.6,0.9-0.5c0.3,0.1,0.5,0.5,0.4,0.9c-0.1,0.4-0.5,0.6-0.8,0.5
	C51.9,69.1,51.7,68.8,51.8,68.4z"/>
<path class="st33" d="M57.7,40.5c-1.3,0.3-4,1.1-4.4,1.4c-1.1,5.7-0.5,18.1-0.8,20.4c-0.5,3.8-2,10.3-2,10.3c2.4,1.2,5.3,0.9,7.9,1
	C60.9,73.8,58.2,42.1,57.7,40.5z"/>
<path class="st13" d="M62.3,40.4c-2.9-0.1-8.7-0.1-8.7,5.9c-0.1,6-0.2,21.5,0.8,24.7s4.3,3.7,7.5,3.7c4.9,0.2,7.5-0.2,7.6-5.5
	c0.2-6.1,1-20.8,1.1-23.4C70.6,43.2,71.2,40.6,62.3,40.4z"/>
<path class="st36" d="M53.6,59.8c0.3-2.4-2.4-6.4-2.4-11.5c0,0,2-0.8,2.4-1.1c0,0-1.4-0.6-1.8-1.2c0.7-2.9,4.5-5.8,6.4-6l-0.1,0.8
	c-1.5,1.1-3.2,4.5-3.3,7c0,2.5-0.7,8.9,0,11.7c-0.1,1.6-3.2,12.4-3.2,12.4"/>
<path class="st20" d="M53.6,59.8c0.3-2.4-2.4-6.4-2.4-11.5c0,0,2-0.8,2.4-1.1c0,0-1.4-0.6-1.8-1.2c0.7-2.9,4.5-5.8,6.4-6l-0.1,0.8
	c-1.5,1.1-3.2,4.5-3.3,7c0,2.5-0.7,8.9,0,11.7c-0.1,1.6-3.2,12.4-3.2,12.4"/>
<path class="st30" d="M54.3,68.7c3.9,0.6,10.7,0.4,15.2,0.3c0,0.1,0,0.1,0,0.2c-0.1,5.3-2.7,5.7-7.6,5.5c-3.2,0-6.3-0.5-7.3-3.7
	C54.5,70.5,54.4,69.7,54.3,68.7z"/>
<path class="st20" d="M61.9,74.7c-3.2,0-6.3-0.5-7.3-3.7c-0.1-0.5-0.2-1.3-0.3-2.3c3.9,0.6,10.7,0.4,15.2,0.3c0,0.1,0,0.1,0,0.2"/>
<path class="st31" d="M68,39.2l0.2-6.9c0,0,0.2-3.8-5.3-3.9c-5.4-0.1-4.9,3.2-4.9,3.2l-0.1,10.1c-0.3,0.3-1.1,2.4,1.8,2.5
	C63.6,44.3,68,42.3,68,39.2z"/>
<path class="st18" d="M53.7,64.8l0.5,3.7c-0.5,0.5,0.3,3.9,1.8,5c-1.7,0.3-4.7-0.6-4.7-0.6L53.7,64.8z"/>
<path class="st33" d="M71.1,63.5c0,0.5,0.5,1.7,0.7,2.2c0.2,0.5,0.8,6.6,0.7,7.9c-1.4,0.8-7.7,1.4-9.9,0.6c-0.1-0.4-0.9-11.3-1-13.3
	c-0.1-2.1,1-5.3,1.6-6.6c0.5-1.4,4.8-14.3,5-15.5c1.2,1.2,2,2.2,2,2.2c0.5,0.3,2.7,0.4,3.7,0.3c1.1-0.1,2.7,2.9,2.1,5.8
	c-0.5,2.8-3,5.7-3.2,7.2C72.5,55.8,71.1,61.7,71.1,63.5z"/>
<path class="st36" d="M62.5,60.7c0.4-1.7,6.4-8.5,6.9-11.7c0,0-1.8-1.1-2.6-1.4c0,0,3-0.7,3.4-1c0,0,0.2-4.3-0.3-5.6
	c0,0-0.7-1.1-1.9-2.2c-0.2,1.2-4.5,14.1-5,15.5c-0.6,1.3-1.7,4.5-1.6,6.6c0.1,2,0.8,12.9,1,13.3c2.2,0.8,8.5,0.2,9.9-0.6
	c0.1-1.3-0.6-7.4-0.8-7.9S71,64,71.1,63.4"/>
<path class="st20" d="M62.5,60.7c0.4-1.7,6.4-8.5,6.9-11.7c0,0-1.8-1.1-2.6-1.4c0,0,3-0.7,3.4-1c0,0,0.2-4.3-0.3-5.6
	c0,0-0.7-1.1-1.9-2.2c-0.2,1.2-4.5,14.1-5,15.5c-0.6,1.3-1.7,4.5-1.6,6.6c0.1,2,0.8,12.9,1,13.3c2.2,0.8,8.5,0.2,9.9-0.6
	c0.1-1.3-0.6-7.4-0.8-7.9S71,64,71.1,63.4"/>
<path class="st34" d="M62.9,64.3c0-0.4,0.4-0.7,0.7-0.7c0.4,0.1,0.7,0.4,0.7,0.8c0,0.3-0.3,0.6-0.7,0.6C63.2,65,62.9,64.7,62.9,64.3
	z"/>
<path class="st35" d="M62.9,64c0-0.4,0.3-0.7,0.7-0.7c0.4,0,0.7,0.4,0.7,0.7c0,0.4-0.3,0.7-0.7,0.7C63.2,64.7,62.9,64.4,62.9,64z"/>
<path class="st34" d="M63.1,68.4c0-0.3,0.3-0.6,0.7-0.6c0.4,0,0.7,0.3,0.7,0.7s-0.4,0.7-0.7,0.7C63.4,69.1,63.1,68.8,63.1,68.4z"/>
<path class="st35" d="M63.1,68.1c0-0.4,0.3-0.7,0.7-0.6c0.4,0,0.7,0.3,0.7,0.7c-0.1,0.3-0.4,0.6-0.8,0.6
	C63.4,68.8,63.1,68.5,63.1,68.1z"/>
<path class="st28" d="M71.6,41.4c1,0.7,1.4,2.2,1,3.1s-2.1,4-1.5,6.8c0.5,2.8-2.8,10-2.7,11.9c0.1,1.9,0.3,11.3,0.3,11.3
	c1.6-0.3,3.6-0.9,3.6-0.9c-0.3-7-1.7-10.1-1.2-11.4c0.4-1.2,1.7-8.3,1.7-8.3c1.2-1.8,3.2-5.7,3.3-7.9c0-2.3-1.3-4.8-2.2-4.7
	C73.1,41.3,71.6,41.4,71.6,41.4z"/>
<path class="st30" d="M54.3,69.7l0.9,0.1L54.3,69.7z"/>
<path class="st23" d="M54.3,69.7l0.9,0.1"/>
<path class="st23" d="M56.7,70.3c-0.2,1.4,0,2.8,0.8,3.7l1.1,0.4c-0.5-0.8-1.2-2.1-0.9-3.8"/>
<path class="st37" d="M60.4,49.1l1.2,2l-3.8,6.1l-1.9-6.3l1.2-1.8H60.4z"/>
<path class="st14" d="M61.5,51l-5.6-0.1L61.5,51z"/>
<path class="st38" d="M61.5,51l-5.6-0.1"/>
<path class="st14" d="M60.5,49.2L60.1,51l-0.8-1.9l-0.8,1.8l-0.4-1.8l-0.9,1.8l-0.1-1.8"/>
<path class="st38" d="M60.5,49.2L60.1,51l-0.8-1.9l-0.8,1.8l-0.4-1.8l-0.9,1.8l-0.1-1.8"/>
<path class="st38" d="M57.2,51l0.7,6.1l2.2-6.1"/>
<path class="st38" d="M58.5,50.9l-0.6,6.2"/>
<path class="st39" d="M58.8,47.5l0.2-0.8c0-0.1-0.1-0.3-0.2-0.3c-0.2,0-0.4,0.1-0.4,0.2c0,0.1,0,0.1,0,0.1l0.1,0.8
	C58.6,47.6,58.6,47.6,58.8,47.5C58.8,47.6,58.8,47.6,58.8,47.5z"/>
<path class="st39" d="M60,47.9l0.6-0.5c0.1-0.1,0.2-0.2,0.1-0.4c-0.1-0.1-0.3-0.1-0.5,0c0,0,0,0,0,0.1l-0.4,0.6
	c-0.1,0.1-0.1,0.2,0,0.2C59.9,48,59.9,48,60,47.9z"/>
<path class="st39" d="M60.8,48.7l0.8-0.2c0.2,0,0.3-0.2,0.2-0.3c0-0.2-0.2-0.3-0.3-0.2c-0.1,0-0.1,0-0.1,0l-0.7,0.5
	C60.6,48.5,60.6,48.6,60.8,48.7C60.7,48.7,60.7,48.7,60.8,48.7z"/>
<path class="st39" d="M56.7,48.6l-0.8-0.2c-0.1,0-0.2-0.2-0.2-0.4c0.1-0.1,0.2-0.2,0.4-0.2c0,0,0,0,0.1,0.1l0.6,0.5
	C56.9,48.4,56.9,48.5,56.7,48.6C56.8,48.6,56.8,48.6,56.7,48.6z"/>
<path class="st39" d="M57.4,47.8l-0.6-0.4c-0.1-0.2-0.1-0.3,0-0.5c0.1-0.1,0.3-0.1,0.4,0c0,0,0,0,0.1,0.1l0.3,0.7
	c0.1,0,0.1,0.1,0,0.2C57.5,47.9,57.5,47.9,57.4,47.8z"/>
<path class="st30" d="M61.9,70.2h-2.1H61.9z"/>
<path class="st23" d="M61.9,70.2h-2.1"/>
<path class="st19" d="M73.5,39.9c-0.6,0.2-3.2-0.1-3.2-0.1C67,43.2,64.9,50.7,72.5,58c0,0,0.7,0.2,0.9,0
	C70.3,52.8,67.4,46.2,73.5,39.9z"/>
<path class="st19" d="M58.3,39.5c0,0-1.4-0.2-1.9-0.1c-0.5,0.1-5.1,2.1-5.2,7.5c-0.2,5.3,1.2,8.9,1.2,8.9s0.2-1.9,0.2-2.4
	C52.1,50.9,51.6,42.4,58.3,39.5z"/>
<path class="st36" d="M62.5,60.7c0.4-1.7,6.4-8.5,6.9-11.7c0,0-1.8-1.1-2.6-1.4c0,0,3-0.7,3.4-1c0,0,0.2-4.3-0.3-5.6
	c0,0-0.7-1.1-1.9-2.2c-0.2,1.2-4.5,14.1-5,15.5c-0.6,1.3-1.7,4.5-1.6,6.6c0.1,2,0.8,12.9,1,13.3"/>
<path class="st20" d="M62.5,60.7c0.4-1.7,6.4-8.5,6.9-11.7c0,0-1.8-1.1-2.6-1.4c0,0,3-0.7,3.4-1c0,0,0.2-4.3-0.3-5.6
	c0,0-0.7-1.1-1.9-2.2c-0.2,1.2-4.5,14.1-5,15.5c-0.6,1.3-1.7,4.5-1.6,6.6c0.1,2,0.8,12.9,1,13.3"/>
<path class="st28" d="M70.1,41.2l0.1,5.4l-3.2,1l2.4,1.4c-0.7,3-7,11.1-7,12.5c0-1.5,6.3-6.5,8.3-12.9l-1.1-0.7l1.8-0.9
	C71.4,47,71.3,42.4,70.1,41.2z"/>
<path class="st36" d="M53.6,59.8c0.3-2.4-2.4-6.4-2.4-11.5c0,0,2-0.8,2.4-1.1c0,0-1.4-0.6-1.8-1.2c0.7-2.9,4.3-5.8,6.2-6.1v0.9
	c-1.5,1.1-3.1,4.5-3.2,7c0,2.5-0.7,8.9,0,11.7c-0.1,1.6-3.4,13.2-3.4,13.2"/>
<path class="st20" d="M53.6,59.8c0.3-2.4-2.4-6.4-2.4-11.5c0,0,2-0.8,2.4-1.1c0,0-1.4-0.6-1.8-1.2c0.7-2.9,4.3-5.8,6.2-6.1v0.9
	c-1.5,1.1-3.1,4.5-3.2,7c0,2.5-0.7,8.9,0,11.7c-0.1,1.6-3.4,13.2-3.4,13.2"/>
<path class="st31" d="M79.9,75.1c0.4-1.8,0.5-3.3-0.1-4.9c-0.4-1.2-1.5-1.7-2.6-2c-0.5-0.1-3.4-0.7-3.9,1.9
	c-0.2,0.6-0.2,1.4-0.5,2.1c-0.3,0.4-0.4,0.6-0.5,1.5c0,0.3,1.1,1,1.4,1.2c0.1-0.5,0.2-0.6,0.5-0.5c0.4,0.1,0.5,0.6,0.2,1.6
	c-0.2,0.7,0.3,1.1,0.3,1.1l2.2-0.6C76.9,76.5,79.6,76.1,79.9,75.1z"/>
<path class="st32" d="M72.5,72.7c0,0-0.3,1.2-0.4,2.2c-0.1,0.9,0,1.4,0.1,1.7c0.3,0.4,0.8,0.6,1.1,0.5c0.4-0.1,0.5-0.4,0.4-1
	c-0.1-0.6-0.1-0.8,0.1-1.6"/>
<path class="st20" d="M72.5,72.7c0,0-0.3,1.2-0.4,2.2c-0.1,0.9,0,1.4,0.1,1.7c0.3,0.4,0.8,0.6,1.1,0.5c0.4-0.1,0.5-0.4,0.4-1
	c-0.1-0.6-0.1-0.8,0.1-1.6"/>
<path class="st32" d="M77.6,76.8c-0.1,0.4,0.3,0.2,0.7,0.3c0.3,0.1,0.6-0.1,0.9-0.5c0,0,1-0.8,1-4.2"/>
<path class="st20" d="M77.6,76.8c-0.1,0.4,0.3,0.2,0.7,0.3c0.3,0.1,0.6-0.1,0.9-0.5c0,0,1-0.8,1-4.2"/>
<path class="st32" d="M76.9,76.2c-0.3,0.7-0.4,0.7-0.4,1.1c-0.1,0.4,0.1,0.7,0.5,0.9c0.3,0.1,0.6-0.1,0.9-0.4c0,0,0.5-0.5,1-2.7"/>
<path class="st20" d="M76.9,76.2c-0.3,0.7-0.4,0.7-0.4,1.1c-0.1,0.4,0.1,0.7,0.5,0.9c0.3,0.1,0.6-0.1,0.9-0.4c0,0,0.5-0.5,1-2.7"/>
<path class="st32" d="M75.8,76.1c-0.3,1.1-0.4,1.4-0.5,1.9c-0.1,0.4,0,0.8,0.3,0.9c0.4,0.1,0.7-0.1,0.9-0.5c0,0,0.5-0.6,1-2.8"/>
<path class="st20" d="M75.8,76.1c-0.3,1.1-0.4,1.4-0.5,1.9c-0.1,0.4,0,0.8,0.3,0.9c0.4,0.1,0.7-0.1,0.9-0.5c0,0,0.5-0.6,1-2.8"/>
<path class="st32" d="M76.1,75.9c-0.5,2.2-0.9,2.7-0.9,2.7c-0.3,0.5-0.5,0.6-0.9,0.5c-0.4-0.1-0.6-0.5-0.5-0.9
	c0.3-1.2,0.8-2.8,0.7-3.1"/>
<path class="st20" d="M76.1,75.9c-0.5,2.2-0.9,2.7-0.9,2.7c-0.3,0.5-0.5,0.6-0.9,0.5c-0.4-0.1-0.6-0.5-0.5-0.9
	c0.3-1.2,0.8-2.8,0.7-3.1"/>
<path class="st40" d="M73.2,76.1c0,0-0.2,0.1-0.2-0.6c-0.1-0.6,0.3-1.7,0.6-1.2l0.1-0.1l0.2,0.3c-0.4,0.8-0.3,1-0.2,1.6
	c0,0.6-0.1,0.9-0.4,1c0-0.1,0-0.1,0.1-0.1C73.7,76.1,73.2,76.1,73.2,76.1z"/>
<path class="st15" d="M76.2,76.4c0,0,0.2,1.2-0.6,2.5l-0.3-0.3L76.2,76.4z"/>
<path class="st15" d="M77.6,75.9c0,0,0.2,1.1-0.5,2.4l-0.3-0.2L77.6,75.9z"/>
<path class="st15" d="M79.1,75.3c0,0,0.4,0.5-0.4,1.8L78.1,77L79.1,75.3z"/>
<path class="st15" d="M80.2,73c0,0-1.1,0.9-3.2,0.9c-2.4,0-3.6-1-4.3-0.7c-0.7,0.2-0.1-1-0.1-1l0.7-1.7c0,0,0.1-2.3,2.5-2.5
	c2.4-0.2,3.5,1.3,3.5,1.3S80,71,80.2,73z"/>
<path class="st33" d="M73.6,42c4.8-1.3,5.5,2.3,5.5,2.3c1.3,7.5,1.5,15.2,1.5,22.9c0,0.1-0.1,4-0.1,4l-8.2,0.3c0,0,0.2-9.9-0.2-15.6
	c-0.3-4.7-0.8-7.8-0.9-9.4C71,44.2,71.2,42.6,73.6,42z"/>
<path class="st28" d="M78.3,67.5c0-7.7-0.1-15.4-1.5-22.9c0,0-0.4-2.4-3.2-2.6c4.8-1.3,5.5,2.3,5.5,2.3c1.3,7.5,1.5,15.2,1.5,22.9
	c0,0.1-0.1,4-0.1,4s-1,0.1-2.3,0.1C78.3,70.5,78.3,67.6,78.3,67.5z"/>
<path class="st34" d="M78.4,68.9c0-0.4,0.3-0.7,0.7-0.7s0.7,0.3,0.7,0.7c-0.1,0.4-0.4,0.7-0.8,0.7C78.7,69.6,78.4,69.3,78.4,68.9z"
	/>
<path class="st35" d="M78.3,68.6c0.1-0.4,0.4-0.7,0.8-0.7c0.3,0,0.6,0.3,0.6,0.7s-0.3,0.7-0.7,0.7S78.3,68.9,78.3,68.6z"/>
<path class="st41" d="M66.7,32.1c0.9,1,1.8,1.5,3,1.5c1.1,0,1.7-0.7,2-2.1C71.1,32,70,32,70,30.9c0.1-1.1,2.5-0.8,2.6-2.5
	c0-0.6-0.5-1.1-0.5-1.1c1,0.2,2.1,0.4,2.9-1.1c0.1,0.6,0,1.4-0.2,1.6c1.5,0,3.1-2.2,2.6-5.2c0.5,0.6,0.9,1.7,0.8,2.2
	c1.4-2.2,0.4-3.6-0.1-4.1c-0.6-0.5-1.4-1.2-1.5-1.4c0.4,0,1.1,0,1.4-0.6c0.2,0.2,0.8,0.6,0.8,1.2c0-1.6,0-2.2-0.8-2.4
	c-0.8-0.3-1.9-0.5-1.9-1.2c0.8,0,1.4-0.4,1.5-1.1c-0.3,0.2-1.2,0.1-1.2-0.7c0.6-0.7,1-1.2,1.1-3.3c0-2-2.2-2.7-2.2-2.7
	c1.1-0.8,0.8-2.1,0.1-2.9C75.5,6.1,75.5,7,74.6,7c-0.8-0.1-0.9-2.1-2.2-2.9c-1.2-0.8-3-0.9-3-0.9c-1.5-1.7-4.9-1.4-5.9-0.4
	c0,0-1.2-0.8-3-0.9c-1.7,0-2.7,1.3-4.5,1.3c-1.2,0-2.1-1.7-1.7-2.2c-0.7,0.7-1.3,2-0.1,3c-1.2-0.6-3.1,0-3.1,1.8c-0.4,0-0.9,0.5-1,1
	c-0.2,0.8,0.7,2.1,0.5,2.9c-0.2,0.8-1.4,0.4-1.8,0.2c0.5,0.5,0.8,1,1.3,1.3c-0.6,0.8-0.7,1.3-0.8,1.5c-0.1,1.4,0.7,1.7,0.4,2.4
	c-0.2,0.8-1.5,0.6-1.9,0.3c0.2,0.4,0.8,1.3,1.4,1.6c-0.5,0.3-1.7,0.5-2.6-0.2c0.3,1.6,0.9,3.4,3.4,4.5c-0.2,0.2-0.9,0.5-1.1,0.5
	c0.6,2.3,4.6,3,4.7,4.1L66.7,32.1z"/>
<g class="st42">
	<path class="st13" d="M51.5,21.4c2-1.6,3.8-3.1,6.3-3.6c2.4-0.5,4.8-0.5,7.2-0.1c2.8,0.5,5.9,1.3,8.1,3.5c0.8,0.8,1.5,2.1,1.3,3.2
		c-0.1,0.7-0.5,1.1-1.1,1.4c-0.4,0.2-1.6,0.5-1.8,0.9c-0.4,0.8,0,1.3-0.7,1.9c-0.5,0.5-1.2,0.9-1.6,1.5c-0.8,1.7,0,2.4,1.4,3.2
		c0,0,0,0,0.1,0c-0.3,0.2-0.6,0.3-1,0.3c-1.2,0-2.1-0.5-3-1.5l-13.1-6.2c-0.1-0.9-3.1-1.6-4.3-3.3C49.5,22.9,50.5,22.2,51.5,21.4z"
		/>
</g>
<path class="st31" d="M69.1,25.7c0,0-1.1,7.7-1.2,8.1c-0.1,0.5-0.2,1-0.5,1.6c-0.3,0.5-2.4,3.3-2.7,3.7c-0.3,0.4-0.7,0.8-1.4,0.8
	s-5-0.1-6.9-0.2c-1.8,0-3.7-1.4-3.6-6.3c0-1.4-0.3-7.7-0.3-8.4c-0.1-0.8-1.4-1.5-1.4-2.6c0-1,0.8-3.8,0.8-3.8s-1.5-1.6-1.4-2
	c0-0.3,0.7-2.1,0.8-2.8c0-0.7,1.2-9.7,7-9.5C65.5,4.5,72,3.4,71.6,19.4c0.6-0.3,1.3-0.3,1.7,0.1c0.4,0.4,0.8,0.5,0.7,2.9
	S70.5,28.5,69.1,25.7z"/>
<path class="st28" d="M64.2,36.3c1-2,0.9-7.8,0.6-8.9c-0.3-1.1-0.9-2.2-0.3-2.5c3.6-1.5,4.1-3.4,3.6-4.2C68,15.5,65.6,8.9,62.8,4.4
	c5.2,0.4,9.1,2.4,8.8,15c0.6-0.3,1.3-0.3,1.7,0.1c0.4,0.4,0.8,0.5,0.7,2.9s-3.5,6.1-4.9,3.3c0,0-1.1,7.7-1.2,8.1
	c-0.1,0.5-0.2,1-0.5,1.6c-0.3,0.5-2.4,3.3-2.7,3.7c-0.3,0.4-0.7,0.8-1.4,0.8c-0.2,0-0.7,0-1.4-0.1C62.3,38.9,63.5,37.9,64.2,36.3z"
	/>
<path class="st43" d="M74.5,17.6c0.4,1,0.4,1.6,0.1,2.4c-0.3,0.7-2.1,1.3-1.8,2.2c-0.3-0.2-0.9-1.4-0.7-2.1
	c-0.3,0.3-0.8,1.4-0.2,2.1c-0.4-0.2-0.9-0.6-0.9-1c-0.2,0.6-0.2,1.8,0.3,2.2c-1.2-0.2-2-1.7-2-2.7s0.7-1.2,0.8-2.7
	c0-0.4-0.5-0.5-0.5-0.5c-0.1,0.3-0.5,1.1-0.4,1.6c-0.6-0.7-0.7-1.7-0.7-2.2c0-0.6,1.3-3,0.5-3.8c-0.4,0.2-1.5,0.2-1.2,2
	c-0.4-0.3-0.8-1.4-0.8-1.9s1.4-1.8,0.8-2.8c-0.5-1-1.1-1.6-1.1-1.6c-0.4,1.1-2.1,1.5-2,2.2c-0.5-0.9,0-1.8,0-2.6s-0.9-1.2-1.4-1.2
	c-0.6,0-0.9,0.6-0.9,1.3c0,0.6,2.1,2.3,0.3,4.9c0.1-2.3-1.9-3.3-2.8-3.5c0.8,0.7,0.8,2.7-0.6,3.5c0.2-0.6,0.2-2-0.9-2.3
	c-1.1-0.4-2.2-1-2.4-1.6c0.2,1.6-0.7,3.6-3,3.6c0.9-1.2,0.9-1.7,0.3-2.6c-0.4-0.6-2,1.1-2.2,0.7c-0.2-0.5,1.3-3,1.5-3.4
	c0.6-2,1.8-4.4,5.6-4.3C62,3.6,67.8,3.3,69.6,5C71.4,6.7,74.7,10.5,74.5,17.6z"/>
<path class="st20" d="M74.5,17.6c0.4,1,0.4,1.6,0.1,2.4c-0.3,0.7-2.1,1.3-1.8,2.2c-0.3-0.2-0.9-1.4-0.7-2.1
	c-0.3,0.3-0.8,1.4-0.2,2.1c-0.4-0.2-0.9-0.6-0.9-1c-0.2,0.6-0.2,1.8,0.3,2.2c-1.2-0.2-2-1.7-2-2.7s0.7-1.2,0.8-2.7
	c0-0.4-0.5-0.5-0.5-0.5c-0.1,0.3-0.5,1.1-0.4,1.6c-0.6-0.7-0.7-1.7-0.7-2.2c0-0.6,1.3-3,0.5-3.8c-0.4,0.2-1.5,0.2-1.2,2
	c-0.4-0.3-0.8-1.4-0.8-1.9s1.4-1.8,0.8-2.8c-0.5-1-1.1-1.6-1.1-1.6c-0.4,1.1-2.1,1.5-2,2.2c-0.5-0.9,0-1.8,0-2.6s-0.9-1.2-1.4-1.2
	c-0.6,0-0.9,0.6-0.9,1.3c0,0.6,2.1,2.3,0.3,4.9c0.1-2.3-1.9-3.3-2.8-3.5c0.8,0.7,0.8,2.7-0.6,3.5c0.2-0.6,0.2-2-0.9-2.3
	c-1.1-0.4-2.2-1-2.4-1.6c0.2,1.6-0.7,3.6-3,3.6c0.9-1.2,0.9-1.7,0.3-2.6c-0.6-0.8-1.1-2-0.7-2.7"/>
<path class="st20" d="M52.8,9.6c-0.1,1.3-1.1,2.5-2.8,1.5"/>
<path class="st20" d="M73,17.7c0.2,0.8-0.3,1.8-0.9,2.4"/>
<path class="st20" d="M71.2,13.1c0.6,1.6-0.9,3.7-1.6,4.4"/>
<path class="st20" d="M66.7,7.6c0.2,0.4,0,1.3-0.1,1.5"/>
<path class="st20" d="M69.5,8.8c1.4,1.6,2,3.6-0.5,4.3"/>
<path class="st20" d="M58.7,7.5c0,0.9,0.5,2,1.2,2.4"/>
<path class="st20" d="M55.8,8.2c-0.2,0.5,0,1.1,0.3,1.5"/>
<path class="st20" d="M76.1,16.3c-0.2,0-0.7-0.3-0.7-0.3"/>
<path class="st20" d="M77.9,18.6c-0.2,0-0.7-0.3-0.8-0.4"/>
<path class="st23" d="M68,20.2c1.6,2.5-2.3,4.3-3.1,4.5c-0.7,0.1-0.6,1.2-0.2,2"/>
<path class="st23" d="M61.7,35.6c-1.5-1.1-6.5-1.4-7.4,0"/>
<g class="st42">
	<path class="st13" d="M75.3,27.5c1.1-1.2,1.1-3.2,0.9-4.2c-0.1-1,1.3-1.1,1.3-0.1C77.5,24.1,76.8,27.2,75.3,27.5z"/>
</g>
<g class="st42">
	<path class="st13" d="M78.4,24c0.1-1.2-0.4-2.9-1.5-3.4c-1-0.6,0.4-0.6,0.4-0.6S79.8,21.7,78.4,24z"/>
</g>
<g class="st42">
	<path class="st13" d="M63.6,2.9c0.9-0.4,2.3-0.4,2.7-0.1c0.4,0.3,0.3,0.4,0,0.3c-0.4,0-2.6,0.4-2.8,0.6C63.2,4,62.3,3,61.4,3
		c-0.9,0-0.6-0.3-0.1-0.3C61.7,2.7,63.1,2.5,63.6,2.9z"/>
</g>
<g class="st42">
	<path class="st13" d="M72.8,4.6c-0.5-0.5-1.2,0-0.8,0.6c0.5,0.5,1.2,1.2,1.4,1.8c0.1,0.6,1.4,0.9,2-0.1c-0.5,0.3-1.4-0.6-1.6-1
		C73.7,5.5,73.2,4.7,72.8,4.6z"/>
</g>
<path class="st32" d="M60.7,25.3c0.5,0.6,2.5,3.5,2.7,3.8L60.7,25.3z"/>
<path class="st23" d="M60.7,25.3c0.5,0.6,2.5,3.5,2.7,3.8"/>
<path class="st32" d="M54.3,26.7c-0.3,0.5-0.6,1.8-0.6,1.8L54.3,26.7z"/>
<path class="st23" d="M54.3,26.7c-0.3,0.5-0.6,1.8-0.6,1.8"/>
<path class="st21" d="M62,29.6c0,1.3-4.3,0.9-4.7,1.6c-0.3-0.7-2.7-0.8-3.1-1.6"/>
<path class="st23" d="M58.6,32.5c-0.5,0.2-1.8,0.3-2.5-0.2"/>
<path class="st44" d="M64.5,19.4c-0.9,0.3-4,0.1-4.5-0.2c0.1-0.7,0.3-1.6,1.7-1.6C63.1,17.7,64.5,18.4,64.5,19.4z"/>
<path class="st44" d="M52.1,19.1c0.7,0.4,3.3,0.3,3.7,0c0-0.7-0.2-1.6-1.3-1.7C53.3,17.4,52.1,18.1,52.1,19.1z"/>
<path class="st45" d="M62.1,18.6c0-0.3-0.3-0.7-0.7-0.7c-0.3,0-0.7,0.3-0.7,0.7s0.3,0.7,0.7,0.7C61.8,19.3,62.1,19,62.1,18.6z"/>
<path class="st46" d="M60.7,18.5c0,0,0.2-0.6,0.7-0.6c0.6,0.1,0.7,0.8,0.7,0.8s-0.3-0.3-0.7-0.3C61.1,18.4,60.7,18.5,60.7,18.5z"/>
<path class="st13" d="M61.8,18.6c0-0.2-0.2-0.3-0.4-0.3c-0.2,0-0.3,0.1-0.3,0.3c0,0.2,0.1,0.4,0.3,0.4C61.6,19,61.8,18.8,61.8,18.6z
	"/>
<path class="st14" d="M61.4,18.5c0-0.1-0.1-0.2-0.2-0.2c-0.2,0-0.3,0.1-0.3,0.2s0.1,0.2,0.3,0.2C61.3,18.8,61.4,18.7,61.4,18.5z"/>
<path class="st47" d="M62.1,18.6c0-0.3-0.3-0.7-0.7-0.7c-0.3,0-0.7,0.3-0.7,0.7s0.3,0.7,0.7,0.7C61.8,19.3,62.1,19,62.1,18.6z"/>
<path class="st45" d="M54.2,18.5c0-0.4-0.3-0.7-0.7-0.7c-0.4-0.1-0.7,0.3-0.7,0.6c0,0.4,0.3,0.7,0.7,0.7
	C53.8,19.1,54.2,18.8,54.2,18.5z"/>
<path class="st46" d="M52.8,18.3c0,0,0.2-0.6,0.7-0.5c0.5,0,0.7,0.7,0.7,0.7s-0.3-0.3-0.7-0.3S52.8,18.3,52.8,18.3z"/>
<path class="st13" d="M53.8,18.5c0-0.2-0.1-0.4-0.3-0.4s-0.4,0.1-0.4,0.3c0,0.2,0.2,0.4,0.4,0.4S53.8,18.6,53.8,18.5z"/>
<path class="st14" d="M53.4,18.4c0-0.2-0.1-0.3-0.2-0.3c-0.1,0-0.2,0.1-0.2,0.3c0,0.1,0.1,0.2,0.2,0.2
	C53.3,18.6,53.4,18.5,53.4,18.4z"/>
<path class="st47" d="M54.2,18.5c0-0.4-0.3-0.7-0.7-0.7c-0.4-0.1-0.7,0.3-0.7,0.6c0,0.4,0.3,0.7,0.7,0.7
	C53.8,19.1,54.2,18.8,54.2,18.5z"/>
<path class="st32" d="M56.9,17.4c0,1.1-0.6,1.7-0.8,2.2c-0.3,0.6-0.7,2.3-0.8,2.7c0,0.4-0.9,0.9-1.1,1.6c-0.2,0.6,0,2.2,1.8,2.7
	s2.5-0.2,2.5-0.2"/>
<path class="st27" d="M56.9,17.4c0,1.1-0.6,1.7-0.8,2.2c-0.3,0.6-0.7,2.3-0.8,2.7c0,0.4-0.9,0.9-1.1,1.6c-0.2,0.6,0,2.2,1.8,2.7
	s2.5-0.2,2.5-0.2"/>
<path class="st32" d="M58.5,23.9c0.8,0,1.3,0.4,1.2,1.2c-0.1,0.8-0.1,1-0.3,1.3c-0.3,0.3-2-0.9-2.7-0.6"/>
<path class="st27" d="M58.5,23.9c0.8,0,1.3,0.4,1.2,1.2c-0.1,0.8-0.1,1-0.3,1.3c-0.3,0.3-2-0.9-2.7-0.6"/>
<path class="st13" d="M66.2,16.8c0-0.4-0.4-0.9-1.1-1.1c-0.7-0.2-4.3-0.8-5.3-0.3c-0.3,0.2-0.7,0.6-0.7,1c0,0.4,0.2,0.5,0.8,0.5
	c0.6-0.1,3.9,0,5.1,0.3C66.1,17.5,66.2,16.8,66.2,16.8z"/>
<path class="st13" d="M56,15.9c-0.1-0.4-0.5-0.7-0.9-0.7c-0.5-0.1-3-0.5-4.1,0.4c-0.2,0.3-0.4,1.1-0.2,1.4c0.7-0.2,3.6-0.6,4.5-0.3
	C55.7,16.8,56.4,16.8,56,15.9z"/>
<path class="st14" d="M69.5,19.8l-2.7-0.4c-0.1,0-0.2-0.1-0.2-0.2v-0.8c0-0.1,0-0.1,0.1-0.2c0.1,0,0.1,0,0.1,0s0,0,0.1,0l3,0.7
	c0,0,0,0,0.1,0.1c0,0.1,0,0.1,0,0.1c-0.1,0.3-0.2,0.6-0.2,0.6C69.7,19.8,69.7,19.8,69.5,19.8C69.6,19.8,69.6,19.8,69.5,19.8z"/>
<path class="st48" d="M66.9,18l3,0.7c0.1,0,0.2,0.1,0.3,0.2c0.1,0.1,0.1,0.2,0,0.3c-0.1,0.2-0.2,0.6-0.3,0.6c0,0.2-0.2,0.2-0.3,0.2
	c-0.1,0-0.1,0-0.1,0l-2.7-0.4c-0.2,0-0.4-0.2-0.4-0.4v-0.8c0-0.1,0.1-0.3,0.2-0.4c0.1-0.1,0.1-0.1,0.2-0.1
	C66.9,17.9,66.9,17.9,66.9,18z M66.8,19.2l2.8,0.4c0,0,0.2-0.3,0.2-0.5l-3-0.7V19.2z"/>
<path class="st49" d="M65.5,18.9c0.1-0.9-1-1.9-3.1-2c-2.1,0-3.2,1.4-3.2,2c0,0.5,0.5,2.1,3.1,2.1C64.6,21.1,65.5,19.5,65.5,18.9z"
	/>
<path class="st49" d="M56.1,18.8c0-0.7-1.1-2-2.9-2.1c-1.2,0-2.7,0.6-2.7,1.8c-0.1,1.1,1.6,2.3,2.8,2.3
	C54.4,20.8,56.1,20.3,56.1,18.8z"/>
<path class="st50" d="M62.4,21.7c-1.9-0.1-2.8-0.7-3.3-1.2c-0.3-0.4-0.5-0.8-0.5-1.3c-0.3-0.1-0.8-0.3-1.2-0.3
	c-0.3,0-0.5,0.1-0.7,0.2c-0.2,0-0.4,0.2-0.6,0.6c-0.1,0.2-0.1,0.4-0.2,0.7c0,0.1,0,0.1-0.1,0.1c-0.4,0.4-1,1-2.3,1l-0.2-0.1
	c-1.4,0-2.3-0.6-2.8-1.1c-0.4-0.5-0.6-1-0.7-1.3l-0.5-0.1c-0.1,0-0.2-0.1-0.2-0.2V18c0-0.1,0-0.1,0.1-0.2c0.1,0,0.1,0,0.1,0H50
	c0.3-0.6,1.2-1.8,3-1.8h0.1c1.9,0,3.3,1.1,3.6,2c0.2-0.1,0.6-0.1,0.9-0.1c0.3,0,0.8,0,1.2,0.2c0.6-0.9,1.5-1.9,3.5-1.9h0.1
	c2.2,0.1,3.5,1.2,3.7,2l0.6-0.1c0.1,0,0.1,0,0.2,0.1c0,0,0,0,0,0.1l0.1,0.9c0,0.1-0.1,0.2-0.2,0.2h-0.6
	C65.8,20.3,64.9,21.7,62.4,21.7L62.4,21.7z M62.4,17.1c-1.9,0-2.9,1.4-2.9,1.8c-0.1,0.5,0.4,1.9,2.9,1.9h0.1c2.1,0,2.9-1.4,2.9-1.9
	C65.4,18.2,64.5,17.2,62.4,17.1L62.4,17.1z M53.1,17c-1,0-2.3,0.5-2.4,1.5c0,1,1.5,2.1,2.6,2.1h0.1c0.9,0,2.5-0.4,2.6-1.8
	c0-0.7-1.1-1.8-2.8-1.8H53.1z"/>
<path class="st48" d="M53.1,15.8c1,0,1.9,0.3,2.7,0.8c0.5,0.4,0.9,0.8,1,1.2c0.3-0.1,0.5-0.1,0.8-0.1c0.3,0,0.7,0,1.1,0.2
	c0.7-0.9,1.6-1.9,3.6-1.9c0,0,0,0,0.1,0c2.2,0.1,3.5,1.1,3.9,2l0.4-0.1c0.1,0,0.2,0,0.3,0.1c0.1,0.1,0.2,0.2,0.2,0.3v0.9
	c0,0.2-0.2,0.4-0.4,0.4h-0.5c-0.4,0.9-1.4,2.3-3.8,2.3c-0.1,0-0.1,0-0.1,0c-1.9-0.1-2.9-0.7-3.4-1.2c-0.4-0.4-0.6-0.9-0.6-1.4
	c-0.3-0.1-0.6-0.2-1-0.2c-0.2,0-0.4,0-0.6,0.1c-0.1,0.1-0.1,0.1-0.1,0.1s-0.2,0.1-0.4,0.5c0,0.1-0.1,0.3-0.2,0.7
	C56,20.6,56,20.6,56,20.6c-0.4,0.5-1.1,1.1-2.5,1.1c-0.1,0-0.1,0-0.2,0c-1.5-0.1-2.4-0.7-2.9-1.3c-0.4-0.4-0.6-0.9-0.7-1.2h-0.4
	c-0.2-0.1-0.4-0.2-0.4-0.5V18c0-0.1,0.1-0.2,0.2-0.3c0.1-0.1,0.1-0.1,0.2-0.2c0.1,0,0.1,0,0.1,0l0.5,0.1
	C50.2,16.9,51.2,15.8,53.1,15.8C53.1,15.8,53.1,15.8,53.1,15.8z M50.1,18h-0.8v0.7l0.7,0.1c0,0.4,0.7,2.4,3.3,2.4c0.1,0,0.1,0,0.2,0
	c1.2,0,1.7-0.4,2.2-0.8c0.1-0.3,0.2-0.6,0.2-0.7c0.2-0.4,0.4-0.8,0.8-0.8c0.2-0.1,0.4-0.2,0.7-0.2c0.5,0,1.1,0.2,1.4,0.4
	c-0.1,1,0.9,2.3,3.6,2.3c0.1,0.1,0.1,0.1,0.1,0.1c2.6,0,3.3-1.8,3.5-2.3h0.8l-0.1-0.9L66,18.4c-0.1-0.6-1.2-1.9-3.6-2
	c-0.1,0-0.1,0-0.1,0c-2,0-2.8,1.1-3.5,2c-0.3-0.2-0.8-0.3-1.2-0.3c-0.5,0-0.9,0.1-1.1,0.2c0.1-0.7-1.4-2.1-3.4-2.1c0,0,0,0-0.1,0
	C51.1,16.2,50.3,17.5,50.1,18z M62.3,21c-2.6,0-3.1-1.6-3.1-2.1s1.1-2,3.1-2c0.1,0,0.1,0,0.1,0c2.1,0.1,3.2,1.1,3.1,2
	c0,0.6-0.9,2.1-3.1,2.1C62.4,21,62.4,21,62.3,21z M53.3,20.8c-1.2,0-2.9-1.2-2.8-2.3c0-1.1,1.5-1.8,2.6-1.8c0,0,0,0,0.1,0
	c1.8,0.1,2.9,1.3,2.9,2.1c0,1.5-1.6,2-2.7,2C53.3,20.8,53.3,20.8,53.3,20.8z M55.7,18.8c0-0.3-0.2-0.7-0.6-1c-0.5-0.4-1.2-0.6-2-0.6
	c-0.9,0-2.2,0.4-2.2,1.3s1.4,1.9,2.4,1.9h0.1C54.2,20.4,55.7,20,55.7,18.8z M65.1,18.9c0-0.4-0.2-0.7-0.6-1c-0.3-0.2-1-0.5-2.1-0.6
	h-0.1c-1.8,0-2.7,1.3-2.7,1.6c0,0.2,0.1,0.6,0.5,1c0.4,0.4,1.2,0.7,2.2,0.7c0.1,0,0.1,0,0.1,0C64.4,20.6,65.1,19.2,65.1,18.9z"/>
<path class="st50" d="M11.4,63.5c1.1-0.1,2.3-0.2,2.3,3.4c0,3.4-1.1,3.7-2.8,3.9l-0.6,0.1v-7.2L11.4,63.5z M11.3,64.3v5.6
	c1.5-0.2,1.5-1.6,1.5-2.9C12.8,65.9,12.9,64,11.3,64.3z"/>
<path class="st14" d="M14.9,62.7l-0.5-0.2l0.8-1.6l0.6,0.4L14.9,62.7z M15.4,70.1l-1,0.2l0.1-7.3l0.9-0.1V70.1z"/>
<path class="st50" d="M18.1,62.5l1.4,7l-0.9,0.2l-0.3-1.4l-1.4,0.2L16.6,70l-0.9,0.1l1.6-7.5L18.1,62.5z M18.1,66.6L17.7,64
	l-0.6,3.8l1.2-0.2L18.1,66.6z"/>
<path class="st14" d="M22.4,64l0.2,2.4l-0.1,2.7l-0.9,0.1V62l0.9-0.1l1.7,5.2L24,64.2v-2.6l0.9-0.1v7.2L24,68.9l-1.6-5.4v0.1V64z"/>
<path class="st50" d="M27.6,61.1l1.4,7l-0.9,0.1l-0.3-1.3l-1.4,0.2l-0.2,1.4l-1,0.2l1.6-7.5L27.6,61.1z M27.6,65.1l-0.3-2.5h-0.1
	l-0.6,3.7l1.2-0.1L27.6,65.1z"/>
<path class="st14" d="M32.2,61.4c-0.2-0.1-0.4-0.1-0.6-0.1c-1.3,0.2-1.3,2.2-1.3,3.1s0,2.7,1.3,2.5c0.2,0,0.4-0.1,0.6-0.2v0.8
	c-0.3,0.2-0.5,0.3-0.8,0.3c-1.9,0.3-2.1-1.7-2.1-3.2s0.2-3.9,2.1-4.2c0.3,0,0.5,0,0.8,0.1V61.4z"/>
<path class="st14" d="M33.6,67.4l-0.9,0.2v-7.3l0.9-0.1V67.4z"/>
<path class="st50" d="M38,63.1c0,1.3,0,3.8-1.8,4c-1.9,0.3-1.9-2.1-1.8-3.4c0-1.3,0-3.7,1.8-4S38,61.8,38,63.1z M35.3,63.5
	c0,1.6,0.1,2.8,0.9,2.7c0.7-0.1,0.8-1.4,0.8-2.9c0-1.5-0.1-2.8-0.8-2.7C35.5,60.7,35.4,62,35.3,63.5z"/>
<path class="st14" d="M39.6,61.4l0.1,2.5v2.6l-1,0.2l0.1-7.3l0.9-0.1l1.6,5.2l-0.2-2.9v-2.5l1-0.2L42,66.2l-0.9,0.1L39.5,61
	L39.6,61.4z"/>
<path class="st50" d="M44.7,58.5l1.5,7l-1,0.2L45,64.3l-1.4,0.2L43.3,66l-0.9,0.1l1.6-7.5L44.7,58.5z M44.6,62.6L44.3,60l-0.6,3.8
	l1.1-0.2L44.6,62.6z"/>
<path class="st14" d="M47.5,58.1v6.4l1.6-0.2v0.8l-2.5,0.4v-7.3L47.5,58.1z"/>
<path class="st50" d="M28,71.1c1.1-0.1,2.4-0.2,2.3,3.4c0,3.4-1.1,3.7-2.8,3.9l-0.6,0.1v-7.2L28,71.1z M27.9,71.9v5.6
	c1.5-0.2,1.5-1.6,1.5-2.9C29.4,73.5,29.5,71.6,27.9,71.9z"/>
<path class="st14" d="M33.6,70.3v0.8L32,71.4v2.2l1.4-0.2v0.9L32,74.5v2.4l1.6-0.2l-0.1,0.8L31,77.9l0.1-7.2L33.6,70.3z"/>
<path class="st14" d="M35,70.1v6.4l1.6-0.3v0.9L34,77.5l0.1-7.3L35,70.1z"/>
<path class="st51" d="M60.4,84.9L7.2,92.1L7,86.4l52.9-7L60.4,84.9z"/>
<path class="st14" d="M14,91.9L13.3,92l-1.7-2.4l0.1,3.7l-2.6,0.3L9,84.8l2.5-0.4l2.1,3.1l2.2-3.7l2.4-0.4v8.9l-2.6,0.4V89L14,91.9z
	"/>
<path class="st14" d="M23.2,91.8c-0.1,0-0.2,0-0.7,0s-1-0.1-1.5-0.4c-0.6-0.3-1-0.7-1.3-1.4c-0.1-0.4-0.2-0.9-0.2-1.4v-5.4l2.6-0.3
	v5.4c0,0,0,0.1,0.1,0.4c0,0.1,0.1,0.2,0.2,0.3c0.1,0.2,0.4,0.3,0.8,0.3c0.3-0.1,0.5-0.2,0.7-0.4c0.2-0.2,0.3-0.4,0.3-0.6l0.1-0.3
	l-0.1-5.4l2.6-0.4l0.1,5.4c0,1-0.3,1.8-0.8,2.4c-0.2,0.3-0.4,0.5-0.7,0.8c-0.8,0.6-1.6,0.8-2,0.9L23.2,91.8z M21.8,82.2l1.1-2.6
	l3-0.4l-1.5,2.6L21.8,82.2z"/>
<path class="st14" d="M29.5,87.4c0.7,0.6,1.4,0.8,2.1,0.7c0.5-0.1,0.8-0.2,0.8-0.5c0-0.1-0.2-0.3-0.5-0.4c-0.3-0.1-0.6-0.1-1-0.2
	c-0.4-0.1-0.8-0.3-1.3-0.4c-0.4-0.1-0.7-0.4-1-0.7c-0.3-0.4-0.4-0.8-0.4-1.3c0-0.6,0.1-1.2,0.6-1.8c0.4-0.7,1.4-1.3,2.6-1.4
	c0.9-0.2,1.8,0,2.3,0.3c0.5,0.3,1,0.6,1.1,0.9l0.2,0.1l-1.8,1.7c-0.3-0.3-0.6-0.5-0.8-0.6c-0.3-0.1-0.6-0.1-0.9,0
	c-0.4,0-0.7,0.3-0.7,0.4c0,0.3,0.5,0.5,1.1,0.6c0.3,0,0.7,0.1,1,0.2c0.3,0.1,0.7,0.3,1,0.4c0.3,0.1,0.6,0.4,0.8,0.7s0.3,0.7,0.3,1.2
	c0,0.5-0.2,1.2-0.7,1.8c-0.5,0.7-1.5,1.3-2.8,1.4c-1,0.2-1.8,0.1-2.4-0.3c-0.7-0.3-1.1-0.7-1.3-1.2L29.5,87.4z"/>
<path class="st14" d="M36.1,89.7v-8.9l2.5-0.3l0.1,8.8L36.1,89.7z"/>
<path class="st14" d="M49,84.1c-0.2,1.1-0.7,2.1-1.5,3c-0.9,0.9-1.9,1.4-3,1.6c-1.3,0.1-2.4-0.2-3.3-0.9c-0.9-0.7-1.3-1.8-1.3-3.1
	c0-1.3,0.4-2.4,1.3-3.4c0.9-1,1.9-1.6,3.2-1.8c1.1-0.2,2.1,0,3,0.6c0.9,0.7,1.4,1.5,1.6,2.6l-2.8,0.4c-0.1-0.4-0.4-0.7-0.7-0.9
	c-0.3-0.2-0.7-0.3-1-0.2c-0.5,0.1-1,0.3-1.4,0.8c-0.3,0.5-0.5,1-0.5,1.5c0,0.6,0.2,1.1,0.6,1.4c0.3,0.4,0.8,0.6,1.3,0.5
	c0.4-0.1,0.7-0.3,1-0.6c0.3-0.3,0.6-0.6,0.7-1.1L49,84.1z"/>
<path class="st50" d="M54.4,78c1.3-0.1,2.3,0.2,3.2,0.9c0.9,0.7,1.4,1.8,1.4,3.1c0,1.3-0.4,2.4-1.3,3.4c-0.9,1-2,1.6-3.3,1.8
	c-1.3,0.2-2.3-0.1-3.2-0.8c-0.9-0.8-1.4-1.8-1.4-3.1c0-1.3,0.4-2.4,1.3-3.5C52,78.8,53.1,78.2,54.4,78z M54.4,84.7
	c0.5-0.1,1-0.3,1.3-0.8c0.4-0.5,0.6-1,0.6-1.5c0-0.6-0.2-1.1-0.6-1.5c-0.3-0.3-0.8-0.5-1.3-0.4c-0.5,0.1-1,0.3-1.3,0.8
	c-0.4,0.5-0.6,1-0.6,1.6s0.2,1.1,0.6,1.4C53.4,84.6,53.9,84.8,54.4,84.7z"/>
</svg>
