<svg width="56" height="104" viewBox="0 0 56 104" fill="none" xmlns="http://www.w3.org/2000/svg">
<path d="M13.6999 92.7H10.1C9.79995 92.7 9.5 92.9 9.4 93.1L6.69993 100C6.43326 99.8 6.06662 99.7 5.59995 99.7C4.19995 99.7 2.6999 100.5 2.2999 101.7C1.7999 102.8 2.59998 103.7 3.99998 103.8C5.39998 103.8 6.8999 102.9 7.2999 101.8L9.99998 95.1C10.1 94.8 10.3 94.6 10.6 94.6L13.1999 94.5C13.4999 94.5 13.6999 94.4 13.7999 94.2L14.1 93.2C14.2 93 13.9999 92.7 13.6999 92.7Z" fill="url(#paint0_linear_340_124851)"/>
<path d="M14 92.8C14 92.8 14 92.8334 14 92.9L13.6 93.8C13.6 94 13.3 94.2 13.1 94.2L10.5 94.3C10.2 94.3 9.89993 94.4 9.79993 94.7L7.19995 101.4C6.79995 102.5 5.30002 103.4 3.90002 103.4C3.10002 103.4 2.49995 103 2.19995 102.5C2.29995 103.2 3 103.7 4 103.8C5.4 103.8 6.89993 102.9 7.29993 101.8L10 95.1C10.1 94.8 10.3 94.6 10.6 94.6L13.2 94.5C13.5 94.5 13.6999 94.4 13.7999 94.2L14.1 93.2C14.2 93.1 14.1 92.9 14 92.8Z" fill="#1782B9"/>
<path d="M11.7 93.2H10.2999C9.99993 93.2 9.79995 93.3 9.69995 93.6" stroke="#FEFEFE" stroke-width="0.4" stroke-linecap="round" stroke-linejoin="round"/>
<path d="M13.1 93.2H12.7999" stroke="#FEFEFE" stroke-width="0.4" stroke-linecap="round" stroke-linejoin="round"/>
<path d="M8.90002 95.6L7.59998 98.8" stroke="#FEFEFE" stroke-width="0.4" stroke-linecap="round" stroke-linejoin="round"/>
<path d="M9.19995 94.8L9.09998 95" stroke="#FEFEFE" stroke-width="0.4" stroke-linecap="round" stroke-linejoin="round"/>
<path d="M4.09998 100.5C3.49998 100.7 3.10002 101.2 2.90002 101.7" stroke="#FEFEFE" stroke-width="0.4" stroke-linecap="round" stroke-linejoin="round"/>
<path d="M4.90002 100.2C4.83336 100.2 4.76662 100.2 4.69995 100.2" stroke="#FEFEFE" stroke-width="0.4" stroke-linecap="round" stroke-linejoin="round"/>
<mask id="mask0_340_124851" style="mask-type:luminance" maskUnits="userSpaceOnUse" x="39" y="77" width="16" height="19">
<path d="M54.5499 77.53L43.5799 81.71C43.2899 81.82 43.0799 82.13 43.0799 82.43L43.1199 90.46C42.7466 90.4 42.3333 90.45 41.8799 90.61C40.4699 91.13 39.3399 92.61 39.3499 93.92C39.3599 95.23 40.5 95.87 41.9 95.36C43.3 94.84 44.4299 93.36 44.4199 92.05L44.3799 84.2C44.3799 83.9 44.5799 83.6 44.8599 83.48L48.15 82.05C48.56 81.87 48.9599 82.12 48.9599 82.55L48.9899 87.78C48.6699 87.7267 48.3165 87.77 47.9299 87.91C46.7499 88.34 45.7999 89.59 45.7999 90.7C45.8099 91.8 46.7699 92.35 47.9499 91.91C49.1399 91.48 50.0899 90.23 50.0799 89.12L50.0399 80C50.0399 79.6 54.6499 77.51 54.5799 77.52C54.5732 77.52 54.5632 77.5233 54.5499 77.53Z" fill="white"/>
</mask>
<g mask="url(#mask0_340_124851)">
<path d="M40.5 100.3L35.7 80.7L53.6 73.2L58.5 92.8L40.5 100.3Z" fill="url(#paint1_linear_340_124851)"/>
</g>
<path d="M45.4 81.6L44 82.1C43.7 82.2 43.5 82.5 43.5 82.8" stroke="#FEFEFE" stroke-width="0.4" stroke-linecap="round" stroke-linejoin="round"/>
<path d="M46.7 81L46.5 81.1" stroke="#FEFEFE" stroke-width="0.4" stroke-linecap="round" stroke-linejoin="round"/>
<path d="M48.7 82.1C48.6 81.8 48.3 81.7 47.9 81.8L44.7 83.2C44.4 83.4 44.2 83.7 44.2 84V91.7C44.2 93 43.1 94.5 41.7 95C40.8 95.3 39.9 95.2 39.5 94.6C39.8 95.4 40.8 95.8 41.9 95.4C43.3 94.8 44.4 93.4 44.4 92.1V84.2C44.4 83.9 44.6 83.6 44.9 83.5L48.2 82C48.4 81.9333 48.5666 81.9667 48.7 82.1Z" fill="#3A82B6"/>
<path d="M49.7999 79.5C49.7999 79.5667 49.7999 79.6667 49.7999 79.8L49.9 88.8C49.9 89.9 48.9 91.1 47.7 91.6C47 91.9 46.3 91.7 45.9 91.3C46.2 92 47 92.3 48 91.9C49.1 91.5 50.1 90.2 50.1 89.1L50 80C50 79.8 49.8999 79.6 49.7999 79.5Z" fill="#3A82B6"/>
<path d="M43.5 85.1L43.6 88.9" stroke="#FEFEFE" stroke-width="0.4" stroke-linecap="round" stroke-linejoin="round"/>
<path d="M43.5 84.2V84.4" stroke="#FEFEFE" stroke-width="0.4" stroke-linecap="round" stroke-linejoin="round"/>
<path d="M49.4 84.1V85.5" stroke="#FEFEFE" stroke-width="0.4" stroke-linecap="round" stroke-linejoin="round"/>
<path d="M40.7 92C40.2 92.5 39.9 93.1 39.9 93.7" stroke="#FEFEFE" stroke-width="0.4" stroke-linecap="round" stroke-linejoin="round"/>
<path d="M41.4 91.4C41.3334 91.4667 41.2666 91.5 41.2 91.5" stroke="#FEFEFE" stroke-width="0.4" stroke-linecap="round" stroke-linejoin="round"/>
<path d="M47.2999 88.8C46.7999 89.2 46.5 89.8 46.5 90.3" stroke="#FEFEFE" stroke-width="0.4" stroke-linecap="round" stroke-linejoin="round"/>
<path d="M47.9 88.3C47.9 88.3667 47.8666 88.4 47.7999 88.4" stroke="#FEFEFE" stroke-width="0.4" stroke-linecap="round" stroke-linejoin="round"/>
<mask id="mask1_340_124851" style="mask-type:luminance" maskUnits="userSpaceOnUse" x="43" y="77" width="13" height="16">
<path d="M54.6601 77.42L43.58 81.71C43.46 81.76 44.6 81.36 45.86 80.95C47.35 80.47 49.0201 79.96 49.0201 80.11L49.06 87.44C48.72 87.38 48.34 87.4267 47.92 87.58C46.64 88.05 45.61 89.4 45.61 90.6C45.62 91.79 46.66 92.38 47.94 91.91C49.22 91.44 50.25 90.09 50.25 88.89L50.21 81.72C50.21 81.45 50.3901 81.18 50.6501 81.06L53.6501 79.76C54.0301 79.6 54.39 79.82 54.39 80.21L54.4101 84.99C54.1234 84.9434 53.8033 84.9834 53.45 85.11C52.38 85.5 51.5 86.65 51.51 87.66C51.51 88.67 52.39 89.16 53.47 88.77C54.55 88.37 55.42 87.23 55.42 86.22L55.38 77.89C55.38 77.55 55.11 77.34 54.8 77.38C54.7533 77.3867 54.7067 77.4 54.6601 77.42Z" fill="white"/>
</mask>
<g mask="url(#mask1_340_124851)">
<path d="M45.7999 95.6L41.7999 79.6L54.6 74.3L58.6 90.3L45.7999 95.6Z" fill="url(#paint2_linear_340_124851)"/>
</g>
<path d="M51.1 79.3L49.9 79.8" stroke="#FEFEFE" stroke-width="0.4" stroke-linecap="round" stroke-linejoin="round"/>
<path d="M52.4 78.8L52.1 78.9" stroke="#FEFEFE" stroke-width="0.4" stroke-linecap="round" stroke-linejoin="round"/>
<path d="M54.1 79.8C54 79.5 53.7 79.4 53.5 79.6L50.5 80.9C50.2 81 50 81.2 50 81.5L50.1 88.6C50.1 89.8 49 91.1 47.7 91.6C46.9 91.9 46.1 91.7 45.7 91.3C46.1 92 46.9 92.3 47.9 91.9C49.2 91.4 50.3 90.1 50.2 88.9V81.7C50.2 81.4 50.4 81.2 50.6 81.1L53.7 79.8C53.8333 79.6667 53.9666 79.6667 54.1 79.8Z" fill="#3A82B6"/>
<path d="M55.1 77.4C55.1666 77.4667 55.2 77.5667 55.2 77.7V85.9C55.2 86.9 54.3999 88.1 53.2999 88.5C52.5999 88.7 52 88.6 51.6 88.2C51.9 88.8 52.6 89.1 53.5 88.8C54.6 88.4 55.4 87.2 55.4 86.2V77.9C55.4 77.7 55.3 77.5 55.1 77.4Z" fill="#3A82B6"/>
<path d="M49.4 82.5L49.5 86" stroke="#FEFEFE" stroke-width="0.4" stroke-linecap="round" stroke-linejoin="round"/>
<path d="M49.4 81.7V81.9" stroke="#FEFEFE" stroke-width="0.4" stroke-linecap="round" stroke-linejoin="round"/>
<path d="M54.7999 81.6V83" stroke="#FEFEFE" stroke-width="0.4" stroke-linecap="round" stroke-linejoin="round"/>
<path d="M54.7999 80.4V80.5" stroke="#FEFEFE" stroke-width="0.4" stroke-linecap="round" stroke-linejoin="round"/>
<path d="M46.7999 88.8C46.3999 89.3 46.2 89.9 46.2 90.4" stroke="#FEFEFE" stroke-width="0.4" stroke-linecap="round" stroke-linejoin="round"/>
<path d="M47.5 88.3C47.4333 88.3667 47.3666 88.4 47.2999 88.4" stroke="#FEFEFE" stroke-width="0.4" stroke-linecap="round" stroke-linejoin="round"/>
<path d="M52.7999 85.9C52.3999 86.3 52.2 86.8 52.2 87.3" stroke="#FEFEFE" stroke-width="0.4" stroke-linecap="round" stroke-linejoin="round"/>
<path d="M53.4 85.5C53.4 85.5 53.3666 85.5333 53.2999 85.6" stroke="#FEFEFE" stroke-width="0.4" stroke-linecap="round" stroke-linejoin="round"/>
<mask id="mask2_340_124851" style="mask-type:luminance" maskUnits="userSpaceOnUse" x="0" y="38" width="11" height="17">
<path d="M9.59821 38.63C9.54821 38.28 9.17811 38.08 8.86811 38.22C7.27811 38.93 3.29816 40.9 3.29816 40.9C3.01816 41.04 2.82822 41.35 2.85822 41.66L3.49812 49.66C3.12478 49.6267 2.7148 49.71 2.26814 49.91C0.918135 50.53 -0.101874 52.09 0.00812562 53.4C0.108126 54.7 1.29815 55.26 2.65815 54.64C4.00815 54.02 5.02816 52.46 4.91816 51.15L4.28816 43.32C4.25815 43.02 4.4382 42.72 4.7082 42.57L7.87812 40.89C8.27812 40.69 8.68822 40.9 8.72822 41.33L9.14814 46.54C8.82814 46.5134 8.48156 46.5833 8.10822 46.75C6.95822 47.28 6.10819 48.59 6.19819 49.7C6.28819 50.8 7.28817 51.27 8.42817 50.74C9.57817 50.22 10.4382 48.9 10.3482 47.8L9.60822 38.72C9.60822 38.7133 9.60822 38.7033 9.60822 38.69L9.59821 38.63Z" fill="white"/>
</mask>
<g mask="url(#mask2_340_124851)">
<path d="M1.69824 59.7L-4.70178 40.5L12.5983 31.7L18.9982 50.9L1.69824 59.7Z" fill="url(#paint3_linear_340_124851)"/>
</g>
<path d="M5.09827 40.6L3.69824 41.3C3.49824 41.4 3.29822 41.7 3.29822 42" stroke="#FEFEFE" stroke-width="0.4" stroke-linecap="round" stroke-linejoin="round"/>
<path d="M6.39819 40L6.19824 40.1" stroke="#FEFEFE" stroke-width="0.4" stroke-linecap="round" stroke-linejoin="round"/>
<path d="M8.39819 40.9C8.29819 40.6 7.99824 40.5 7.69824 40.7L4.49817 42.4C4.19817 42.5 3.99827 42.8 4.09827 43.1L4.69824 50.8C4.79824 52.1 3.79819 53.7 2.39819 54.3C1.49819 54.7 0.698242 54.6 0.198242 54.1C0.598242 54.9 1.59824 55.1 2.69824 54.6C3.99824 54 4.99819 52.5 4.89819 51.1L4.29822 43.3C4.29822 43 4.39824 42.7 4.69824 42.6L7.89819 40.9C8.09819 40.8334 8.26486 40.8334 8.39819 40.9Z" fill="#3A82B6"/>
<path d="M9.29822 38.2C9.36488 38.3333 9.39819 38.4333 9.39819 38.5L10.0983 47.5C10.1983 48.6 9.29824 49.9 8.19824 50.4C7.49824 50.8 6.79819 50.7 6.39819 50.3C6.69819 51 7.49819 51.2 8.39819 50.7C9.59819 50.2 10.3982 48.9 10.2982 47.8L9.59827 38.7C9.59827 38.5 9.49822 38.3 9.29822 38.2Z" fill="#3A82B6"/>
<path d="M3.49817 44.3L3.79822 48.1" stroke="#FEFEFE" stroke-width="0.4" stroke-linecap="round" stroke-linejoin="round"/>
<path d="M3.39819 43.4L3.49817 43.6" stroke="#FEFEFE" stroke-width="0.4" stroke-linecap="round" stroke-linejoin="round"/>
<path d="M1.19822 51.4C0.798216 51.9 0.49824 52.5 0.59824 53.1" stroke="#FEFEFE" stroke-width="0.4" stroke-linecap="round" stroke-linejoin="round"/>
<path d="M1.79822 50.8C1.79822 50.8 1.76491 50.8 1.69824 50.8" stroke="#FEFEFE" stroke-width="0.4" stroke-linecap="round" stroke-linejoin="round"/>
<path d="M7.49817 47.7C7.09817 48.2 6.89819 48.7 6.89819 49.2" stroke="#FEFEFE" stroke-width="0.4" stroke-linecap="round" stroke-linejoin="round"/>
<path d="M8.09827 47.2C8.09827 47.2 8.06484 47.2334 7.99817 47.3" stroke="#FEFEFE" stroke-width="0.4" stroke-linecap="round" stroke-linejoin="round"/>
<path d="M9.19824 41.3L9.49817 44.7" stroke="#FEFEFE" stroke-width="0.4" stroke-linecap="round" stroke-linejoin="round"/>
<path d="M9.09827 40.5L9.19824 40.7" stroke="#FEFEFE" stroke-width="0.4" stroke-linecap="round" stroke-linejoin="round"/>
<path opacity="0.3" d="M14.5999 101.5C14.4999 102.5 20.1999 103.4 27.2999 103.6C34.3999 103.8 40.0999 103.1 40.0999 102.1C40.0999 101.1 34.4 100.1 27.4 100C20.3 99.8 14.5999 100.5 14.5999 101.5Z" fill="#050505"/>
<path d="M48.5 41.2C48.5 41.2 49.1999 41.1 49.2999 41.2C49.3999 41.4 49.3 43.8 49.2 44C49.1 44.2 48.4 44.1 48.4 44.1L48.5 41.2Z" fill="#7B7B7B" stroke="#050505" stroke-width="0.4" stroke-linecap="round" stroke-linejoin="round"/>
<path d="M47.2999 38.6C49.3999 40.1 49.1 45.2 47.5 46.9L46.9 46.1C48 44.1 48.7 41 46.9 39.6L47.2999 38.6Z" fill="#81C241" stroke="#050505" stroke-width="0.5" stroke-linecap="round" stroke-linejoin="round"/>
<path opacity="0.4" d="M47.2999 38.6C49.3999 40.1 49.1 45.2 47.5 46.9L46.9 46.1C48 44.1 48.7 41 46.9 39.6L47.2999 38.6Z" fill="#050505"/>
<path d="M51.5 54.7L50.4 55.2L49.7 53.5L50.1 53.3L51.5 54.7Z" fill="#7B7B7B" stroke="#050505" stroke-width="0.4" stroke-linecap="round" stroke-linejoin="round"/>
<path d="M49.1 68.6C46.3 70.5 43.0999 71.4 40.2999 70.6C37.4999 69.9 33.5999 68.4 28.2999 68.2C23.0999 68.1 20.7999 65.7 20.7999 62C20.8999 58.2 24.4 37.5 24.4 35.5C24.5 33.5 24.8999 30.9 27.2999 31C29.5999 31 39 31.2 41.1 31.6C43.3 32 46.7 33.1 47.4 36.2C47.7 37.7 48.1999 41.9 48.2999 42.2C47.9999 42.4 47.5 42.3 47.5 42.3C47.3 51.5 50.5 50.9 50.5 59.9C50.4 61.7 49.8 67.3 49.1 68.6Z" fill="#81C241" stroke="#050505" stroke-width="0.7" stroke-linecap="round" stroke-linejoin="round"/>
<path d="M47.5 42.3C46.2 42.3 41.9 40.7 41 33.1" stroke="#050505" stroke-width="0.7" stroke-linecap="round" stroke-linejoin="round"/>
<path d="M39.2 32.5C39.6 33.2 39.7 35.2 39.7 36.2C39.8 37.2 39.4 63.8 39 65.9C38.6 68.1 37.9 68.8 36.7 69.4" stroke="#050505" stroke-width="0.5" stroke-linecap="round" stroke-linejoin="round"/>
<path opacity="0.4" d="M27.1999 31.7L38 32.1C38.6 32.1 39.3 32.2 39.5 33.9C39.6 35.5 39.5 63.3 39 65.9C38.5 68.6 37 69.6 35.9 69.4C34.8 69.3 30.4999 68.1 28.6999 68.2C26.7999 68.3 22.1 67.5 21.4 65.1C20.7 62.7 20.8 61.2 21 59.9C21.2 58.6 24.4 35.9 24.4 35.9C24.5 34.7 24.9 32 25.5 31.8C26.2 31.7 27.1999 31.7 27.1999 31.7Z" fill="#050505"/>
<path d="M46.2999 35.3C45.8999 35.2 45.1 35.1 44.6 35.3L43 34.4L42.6 34.9L43.5 37.2L43.2 38.1L44.5 39H46.9C46.8 38.7 46.2 36.5 46.1 36.3C46.1 36 46.2999 35.3 46.2999 35.3Z" fill="#E2C825" stroke="#050505" stroke-width="0.5" stroke-linecap="round" stroke-linejoin="round"/>
<path d="M43.7 36.1C43.7 35.9 43.9 35.7 44.1 35.7C44.3 35.7 44.4 35.9 44.4 36.1C44.4 36.3 44.3 36.5 44.1 36.5C43.8 36.5 43.7 36.3 43.7 36.1Z" fill="#050505"/>
<path d="M46.7999 68.7H47.2999C47.2999 63.9 47.6 59.8 48.1 57.1C48.6 54.5 49.1 53.7 49.4 53.6C49.4 53.6 49.4 53.6 49.5 53.7L50 53.3C49.7 53.1 49.5 53 49.2 53.1C48.8666 53.1667 48.5666 53.5334 48.2999 54.2C47.9666 54.8667 47.7 55.8 47.5 57C47 59.8 46.7999 63.8 46.7999 68.7Z" fill="#7B7B7B" stroke="#050505" stroke-width="0.4" stroke-linecap="round" stroke-linejoin="round"/>
<path d="M49.6 53.3C49.6 53.1 49.8 53 50 53C50.2 53 50.2999 53.1 50.2999 53.3C50.2999 53.5 50.1 53.7 50 53.7C49.8 53.7 49.6 53.5 49.6 53.3Z" fill="#7B7B7B" stroke="#050505" stroke-width="0.4" stroke-linecap="round" stroke-linejoin="round"/>
<path d="M50.7 54.3L50.9 54.6L50.6 54.7L50.4 54.3H50.7Z" stroke="#050505" stroke-width="0.4" stroke-linecap="round" stroke-linejoin="round"/>
<path d="M49.2 53.2L49.4 53.6" stroke="#050505" stroke-width="0.4" stroke-linecap="round" stroke-linejoin="round"/>
<path d="M48.7999 53.3L49.1 53.8" stroke="#050505" stroke-width="0.4" stroke-linecap="round" stroke-linejoin="round"/>
<path d="M48.6 53.7L48.9 54.1" stroke="#050505" stroke-width="0.4" stroke-linecap="round" stroke-linejoin="round"/>
<path d="M48.2999 54.1L48.7999 54.4" stroke="#050505" stroke-width="0.4" stroke-linecap="round" stroke-linejoin="round"/>
<path d="M48.1 54.6L48.6 54.8" stroke="#050505" stroke-width="0.4" stroke-linecap="round" stroke-linejoin="round"/>
<path d="M48 55L48.5 55.3" stroke="#050505" stroke-width="0.4" stroke-linecap="round" stroke-linejoin="round"/>
<path d="M47.9 55.5L48.4 55.7" stroke="#050505" stroke-width="0.4" stroke-linecap="round" stroke-linejoin="round"/>
<path d="M47.7 56L48.2 56.1" stroke="#050505" stroke-width="0.4" stroke-linecap="round" stroke-linejoin="round"/>
<path d="M47.6 56.4L48.1 56.6" stroke="#050505" stroke-width="0.4" stroke-linecap="round" stroke-linejoin="round"/>
<path d="M47.6 56.9L48.1 57.1" stroke="#050505" stroke-width="0.4" stroke-linecap="round" stroke-linejoin="round"/>
<path d="M47.5 57.4L48 57.5" stroke="#050505" stroke-width="0.4" stroke-linecap="round" stroke-linejoin="round"/>
<path d="M47.4 57.8L47.9 58" stroke="#050505" stroke-width="0.4" stroke-linecap="round" stroke-linejoin="round"/>
<path d="M47.2999 58.3L47.9 58.4" stroke="#050505" stroke-width="0.4" stroke-linecap="round" stroke-linejoin="round"/>
<path d="M47.2999 58.8L47.7999 58.9" stroke="#050505" stroke-width="0.4" stroke-linecap="round" stroke-linejoin="round"/>
<path d="M47.2 59.3L47.7999 59.4" stroke="#050505" stroke-width="0.4" stroke-linecap="round" stroke-linejoin="round"/>
<path d="M47.2 59.7L47.7 59.8" stroke="#050505" stroke-width="0.4" stroke-linecap="round" stroke-linejoin="round"/>
<path d="M47.1 60.2L47.6 60.3" stroke="#050505" stroke-width="0.4" stroke-linecap="round" stroke-linejoin="round"/>
<path d="M47.1 60.7L47.6 60.8" stroke="#050505" stroke-width="0.4" stroke-linecap="round" stroke-linejoin="round"/>
<path d="M47 61.2L47.6 61.3" stroke="#050505" stroke-width="0.4" stroke-linecap="round" stroke-linejoin="round"/>
<path d="M47 61.7L47.6 61.8" stroke="#050505" stroke-width="0.4" stroke-linecap="round" stroke-linejoin="round"/>
<path d="M47 62.2L47.5 62.3" stroke="#050505" stroke-width="0.4" stroke-linecap="round" stroke-linejoin="round"/>
<path d="M46.9 62.7H47.5" stroke="#050505" stroke-width="0.4" stroke-linecap="round" stroke-linejoin="round"/>
<path d="M46.9 63.2H47.4" stroke="#050505" stroke-width="0.4" stroke-linecap="round" stroke-linejoin="round"/>
<path d="M47.5 63.7H46.9" stroke="#050505" stroke-width="0.4" stroke-linecap="round" stroke-linejoin="round"/>
<path d="M47.4 64.3H46.9" stroke="#050505" stroke-width="0.4" stroke-linecap="round" stroke-linejoin="round"/>
<path d="M47.4 64.8H46.9" stroke="#050505" stroke-width="0.4" stroke-linecap="round" stroke-linejoin="round"/>
<path d="M47.4 65.3H46.7999" stroke="#050505" stroke-width="0.4" stroke-linecap="round" stroke-linejoin="round"/>
<path d="M47.4 65.7L46.7999 65.8" stroke="#050505" stroke-width="0.4" stroke-linecap="round" stroke-linejoin="round"/>
<path d="M47.2999 66.2H46.7999" stroke="#050505" stroke-width="0.4" stroke-linecap="round" stroke-linejoin="round"/>
<path d="M47.4 66.7H46.7999" stroke="#050505" stroke-width="0.4" stroke-linecap="round" stroke-linejoin="round"/>
<path d="M47.2999 67.1L46.7999 67.2" stroke="#050505" stroke-width="0.4" stroke-linecap="round" stroke-linejoin="round"/>
<path d="M47.2999 67.6H46.7" stroke="#050505" stroke-width="0.4" stroke-linecap="round" stroke-linejoin="round"/>
<path d="M47.2999 68L46.7 68.1" stroke="#050505" stroke-width="0.4" stroke-linecap="round" stroke-linejoin="round"/>
<path d="M47.4 68.4H46.7" stroke="#050505" stroke-width="0.4" stroke-linecap="round" stroke-linejoin="round"/>
<path d="M29 101.4C29 100.9 28.7 98 28.6 97.6C28.4 97.1 24.6999 96.3 23.2999 97.6C22.7999 98 21.8999 98.2 21.2999 98.4C20.1999 98.8 17.8 100.1 17.7 101.5C17.9 101.7 18.8999 101.9 20.2999 101.9C21.5999 101.9 28 102 28.4 102.1C28.8 102.1 29 101.7 29 101.4Z" fill="#C2B9B4" stroke="#050505" stroke-width="0.7" stroke-linecap="round" stroke-linejoin="round"/>
<path d="M23 99.3C22.8667 99.3667 22.7666 99.4333 22.7 99.5C22.1 99.1 21.4 98.9 20.7 98.7C21.5 98.3 22.5 98.1 23.2 97.5C23.3 97.4 23.5 97.3 23.9 97.2C24.5 97.3 25.1 97.5 25.6 97.9C24.8 98.4 23.9 98.7 23 99.3Z" fill="#D1202B" stroke="#050505" stroke-width="0.6" stroke-linecap="round" stroke-linejoin="round"/>
<path d="M20.2 98.9C20.3333 98.8334 20.5 98.7667 20.7 98.7C21.4 98.9 22.1 99.1 22.7 99.5C22.8 99.4 24.8 98.4 25.6 97.9C25.1 97.5 24.5 97.3 23.9 97.2C25.3 96.7 28.2 96.1 28.5 97.4C28.8 99.1 28.9 100.6 28.9 100.6C28.9 100.6 28.3 101.2 27.7 101.2C27 101.2 21.7999 101 21.7999 101C21.3999 100.5 20.6 99.8 19 99.7C19.4 99.4333 19.8 99.1667 20.2 98.9Z" fill="#FEFEFE" stroke="#050505" stroke-width="0.6" stroke-linecap="round" stroke-linejoin="round"/>
<path d="M23.5 98.8C23.2 98.6 22.1 98.2 22.1 98.2" stroke="#050505" stroke-width="0.6" stroke-linecap="round" stroke-linejoin="round"/>
<path d="M22.7 99.5C22.9 99.9 23.2 100.5 23.2 101" stroke="#050505" stroke-width="0.6" stroke-linecap="round" stroke-linejoin="round"/>
<path opacity="0.2" d="M26.7999 101.1C27.2999 101.1 27.6 100.5 27.6 100.2C27.5 99.7 27.2 98.3 26.9 97C27.8 97.1 28.5 97.4 28.6 97.6C28.7 98 29 100.9 29 101.4C29 101.7 28.8 102.1 28.4 102.1C28 102 21.5999 101.9 20.2999 101.9C19.6999 101.9 19.1999 101.867 18.7999 101.8C21.9999 101.5 26.3999 101.2 26.7999 101.1Z" fill="#050505"/>
<path d="M28.4001 74.2L28.6 97.5C27.8 98.3 24.1 98.1 23.2 97.7C23.2 97.7 20.8 76.9 20.6 74.6C20.5 72.3 21.4 70.1 24.3 70.1C28.2 70.2 28.4001 74.2 28.4001 74.2Z" fill="#6E6B85" stroke="#050505" stroke-width="0.7" stroke-linecap="round" stroke-linejoin="round"/>
<path d="M28.1999 71.9L28.5999 97.5C27.7999 98.3 24.0999 98.1 23.1999 97.7C23.1999 97.7 20.6 74.7 20.5 72.4C20.3 70 21.1999 67.9 24.1999 67.9C28.0999 68 28.4 74.2 28.4 74.2" fill="#6E6B85"/>
<path d="M28.1999 71.9L28.5999 97.5C27.7999 98.3 24.0999 98.1 23.1999 97.7C23.1999 97.7 20.6 74.7 20.5 72.4C20.3 70 21.1999 67.9 24.1999 67.9C28.0999 68 28.4 74.2 28.4 74.2" stroke="#050505" stroke-width="0.7" stroke-linecap="round" stroke-linejoin="round"/>
<path opacity="0.2" d="M26.7 73.7C26.7 73.7 26.5999 71.4 24.7999 70.2C28.1999 70.6 28.4 74.2 28.4 74.2L28.6 97.5C28.3 97.7 27.7 97.9 27 98L26.7 73.7Z" fill="#050505"/>
<path d="M25.7 74L27 97.8" stroke="#050505" stroke-width="0.4" stroke-linecap="round" stroke-linejoin="round"/>
<path d="M35.4 101.6C35.4 101 35 98.1 34.9 97.7C34.7 97.3 31 96.4 29.6 97.7C29.2 98.2 28.3 98.3 27.7 98.5C26.5 99 24.1 100.2 24.1 101.7C24.3 101.8 25.2 102 26.6 102.1C28 102.1 34.3 102.2 34.7 102.2C35.1 102.2 35.4 101.8 35.4 101.6Z" fill="#C2B9B4" stroke="#050505" stroke-width="0.7" stroke-linecap="round" stroke-linejoin="round"/>
<path d="M29.2999 99.4C29.2333 99.4667 29.1666 99.5333 29.1 99.6C28.5 99.2 27.7 99 27 98.8C27.9 98.5 28.8 98.3 29.5 97.7C29.6 97.6 29.9 97.5 30.2 97.3C30.8 97.5 31.5 97.6 31.9 98C31.1 98.6 30.1999 98.9 29.2999 99.4Z" fill="#D1202B" stroke="#050505" stroke-width="0.6" stroke-linecap="round" stroke-linejoin="round"/>
<path d="M26.5 99.1C26.7 98.9667 26.8667 98.8667 27 98.8C27.7 99 28.5 99.2 29.1 99.6C29.2 99.6 31.1 98.6 31.9 98C31.5 97.6 30.8 97.5 30.2 97.3C31.6 96.8 34.5999 96.2 34.7999 97.6C35.1999 99.3 35.2 100.7 35.2 100.7C35.2 100.7 34.6 101.4 34 101.3C33.4 101.3 28.1 101.2 28.1 101.2C27.8 100.7 26.8999 99.9 25.2999 99.9C25.6999 99.5667 26.1 99.3 26.5 99.1Z" fill="#FEFEFE" stroke="#050505" stroke-width="0.6" stroke-linecap="round" stroke-linejoin="round"/>
<path d="M29.9 98.9C29.5 98.7 28.5 98.4 28.5 98.4" stroke="#050505" stroke-width="0.6" stroke-linecap="round" stroke-linejoin="round"/>
<path d="M29.1 99.6C29.3 100 29.5 100.6 29.5 101.2" stroke="#050505" stroke-width="0.6" stroke-linecap="round" stroke-linejoin="round"/>
<path opacity="0.2" d="M33.1 101.3C33.7 101.3 33.9 100.7 33.9 100.3C33.9 99.9 33.5999 98.4 33.2999 97.2C34.1999 97.3 34.8 97.5 34.9 97.7C35 98.1 35.4 101 35.4 101.6C35.4 101.8 35.1 102.2 34.7 102.2C34.3 102.2 28 102.1 26.6 102.1C26 102.033 25.5 101.967 25.1 101.9C28.4 101.7 32.7 101.3 33.1 101.3Z" fill="#050505"/>
<path d="M34.7 74.3L34.9001 97.6C34.1001 98.4 30.4 98.2 29.5 97.9C29.5 97.9 27.1001 77 26.9001 74.7C26.8001 72.4 27.7 70.2 30.7 70.3C34.6 70.4 34.7 74.3 34.7 74.3Z" fill="#6E6B85" stroke="#050505" stroke-width="0.7" stroke-linecap="round" stroke-linejoin="round"/>
<path d="M34.7 74.3L34.9001 97.6C34.1001 98.4 30.4 98.2 29.5 97.9C29.5 97.9 27.1001 77 26.9001 74.7C26.8001 72.4 27.7 70.2 30.7 70.3C34.6 70.4 34.7 74.3 34.7 74.3Z" fill="#6E6B85" stroke="#050505" stroke-width="0.7" stroke-linecap="round" stroke-linejoin="round"/>
<path opacity="0.2" d="M33.1 73.9C33.1 73.9 33 71.5 31.2 70.3C34.6 70.7 34.7 74.3 34.7 74.3L34.9 97.6C34.7 97.9 33.9999 98.1 33.2999 98.1L33.1 73.9Z" fill="#050505"/>
<path d="M32.1 74.2L33.2999 98" stroke="#050505" stroke-width="0.4" stroke-linecap="round" stroke-linejoin="round"/>
<path d="M15.8 72.9C16.1 72.9 17.3 72.5 17.3 70.5C17.4 68.5 17 68 16.3 67.5C15.7 67 13.1 67.4 13.1 67.4C13.1 67.4 11.0001 67.9 9.90008 71.6C9.90008 71.6 9.40008 73.4 9.90008 73.4C10.5001 73.4 14.4001 73.4 14.9001 73.5C15.4001 73.5 15.3 73 15.8 72.9Z" fill="#E8B29A" stroke="#050505" stroke-width="0.7" stroke-linecap="round" stroke-linejoin="round"/>
<path d="M14.2999 73C14.0999 74.8 14.1999 75.3 14.1999 75.3C14.1999 75.8 14.5 76.1 14.9 76.2C15.3 76.2 15.6999 76 15.6999 75.6C15.8999 74.7 15.9 73.3 16 72.5" fill="#E8B29A"/>
<path d="M14.2999 73C14.0999 74.8 14.1999 75.3 14.1999 75.3C14.1999 75.8 14.5 76.1 14.9 76.2C15.3 76.2 15.6999 76 15.6999 75.6C15.8999 74.7 15.9 73.3 16 72.5" stroke="#050505" stroke-width="0.7" stroke-linecap="round" stroke-linejoin="round"/>
<path d="M12.7 72.8C12.4 74.3 12.5 75.9 12.5 75.9C12.5 76.4 12.7 76.7 13.2 76.8C13.6 76.9 13.9 76.6 14 76.2C14.1 75.8 14 75.8 14 74.9C14 74.9 14.1 74 14.3 73.1" fill="#E8B29A"/>
<path d="M12.7 72.8C12.4 74.3 12.5 75.9 12.5 75.9C12.5 76.4 12.7 76.7 13.2 76.8C13.6 76.9 13.9 76.6 14 76.2C14.1 75.8 14 75.8 14 74.9C14 74.9 14.1 74 14.3 73.1" stroke="#050505" stroke-width="0.7" stroke-linecap="round" stroke-linejoin="round"/>
<path d="M12.5 74.2C12.3 75.5 12.3999 75.9 12.2999 76.5C12.1999 76.9 11.8 77.1 11.4 77.1C11 77 10.6999 76.7 10.7999 76.2C10.7999 76.2 10.7 74.8 11 73.1" fill="#E8B29A"/>
<path d="M12.5 74.2C12.3 75.5 12.3999 75.9 12.2999 76.5C12.1999 76.9 11.8 77.1 11.4 77.1C11 77 10.6999 76.7 10.7999 76.2C10.7999 76.2 10.7 74.8 11 73.1" stroke="#050505" stroke-width="0.7" stroke-linecap="round" stroke-linejoin="round"/>
<path d="M10.7999 69.5C8.79992 73.5 9.09997 76 9.09997 76C9.09997 76.5 9.39992 76.9 9.79992 77C10.1999 77.1 10.5999 76.8 10.6999 76.4C10.8999 75 11.0999 73 11.2999 72.8" fill="#E8B29A"/>
<path d="M10.7999 69.5C8.79992 73.5 9.09997 76 9.09997 76C9.09997 76.5 9.39992 76.9 9.79992 77C10.1999 77.1 10.5999 76.8 10.6999 76.4C10.8999 75 11.0999 73 11.2999 72.8" stroke="#050505" stroke-width="0.7" stroke-linecap="round" stroke-linejoin="round"/>
<path opacity="0.2" d="M15.9 72.2C16.1 72.2 16.7999 71.4 15.7999 71C14.9999 70.8 13.7 70.5 12.7 70.6C11.4 70.8 10.4 71.1 10.4 70.5C10.4 70 11.3 68.5 12 68C12.6 67.4 14.6 67.2 15.2 67.2C15.9 67.3 16.9 67.8 17.2 68.8C17.5 69.9 17.3999 71.5 16.7999 72C16.1999 72.4 15.9 72.2 15.9 72.2Z" fill="#050505"/>
<path opacity="0.2" d="M11 72.1C11 72.1 10.5 72.9 10.3 73.7C10.1 74.5 9.70005 76.4 10.4001 76.4L10.8 76.2C10.8 76.2 11.1 76.7 11.6 76.6C12.1 76.5 12.3 75.5 12.3 75.5C12.3 75.5 12.7 76.3 13.3 76C13.8 75.7 13.7 75.3 13.7 75.3C13.7 75.3 14.1 75.8 14.6 75.6C15.1 75.4 15.6 74.8 15.6 74.2C15.7 73.6 15.8 72.4 15.8 72.4C15.8 72.4 15.4 72.8 14.6 72.8C13.7 72.8 12.8 72.7 12.8 72.7L11 72.1Z" fill="#050505"/>
<path d="M13 72.4C13 72.4 13 72.6 12.7 73.6C12.4 74.3 12.4 74.5 12.1 74.9C11.8 75.3 11.3 75.3 11 75C10.6 74.8 10.4999 74.3 10.7999 73.8C10.9999 73.2 11.1 72.9 11.1 72.2C11.1 72.2 11 71.5 10.6 71.4" fill="#E8B29A"/>
<path d="M13 72.4C13 72.4 13 72.6 12.7 73.6C12.4 74.3 12.4 74.5 12.1 74.9C11.8 75.3 11.3 75.3 11 75C10.6 74.8 10.4999 74.3 10.7999 73.8C10.9999 73.2 11.1 72.9 11.1 72.2C11.1 72.2 11 71.5 10.6 71.4" stroke="#050505" stroke-width="0.7" stroke-linecap="round" stroke-linejoin="round"/>
<path d="M19.5 41.5C24.4 41.6 24.1 45.2 24.1 45.2C23.3 52.9 21.4 60.3 19.4 67.7C19.3 67.8 18.1 71.5 18.1 71.5L10.2 69.6C10.2 69.6 13.1 60.1 14.2 54.5C15.2 49.9 15.5 46.8 15.9 45.2C16.4 43 17 41.5 19.5 41.5Z" fill="#692B83" stroke="#050505" stroke-width="0.7" stroke-linecap="round" stroke-linejoin="round"/>
<path opacity="0.2" d="M17.1 67.3C19.1 60 21.0999 52.5 21.7999 44.9C21.7999 44.9 22 42.4 19.4 41.5C19.4 41.5 19.4333 41.5 19.5 41.5C24.4 41.6 24.1 45.2 24.1 45.2C23.3 52.9 21.4 60.3 19.4 67.7C19.3 67.8 18.1 71.5 18.1 71.5C18.1 71.5 17.2 71.3 15.9 71C16.2 70.2 17.1 67.4 17.1 67.3Z" fill="#050505"/>
<path opacity="0.2" d="M16.6999 68.7C16.7999 68.3 17.1999 68.1 17.5999 68.2C17.9999 68.4 18.2 68.7 18 69.1C17.9 69.5 17.4999 69.7 17.1999 69.6C16.7999 69.5 16.5999 69.1 16.6999 68.7Z" fill="#050505" stroke="#050505" stroke-width="0.4" stroke-linecap="round" stroke-linejoin="round"/>
<path d="M16.7999 68.4C16.8999 68 17.2999 67.8 17.6999 67.9C17.9999 68 18.1999 68.4 18.0999 68.8C17.9999 69.2 17.5999 69.4 17.2999 69.3C16.8999 69.1 16.6999 68.8 16.7999 68.4Z" fill="#848484" stroke="#050505" stroke-width="0.4" stroke-linecap="round" stroke-linejoin="round"/>
<path d="M22.7 40.5C21.4 40.8 18.6999 41.6 18.2999 41.9C17.1999 47.6 17.8 60 17.5 62.3C17 66.1 15.5 72.6 15.5 72.6C17.9 73.8 20.8 73.5 23.4 73.6C25.9 73.8 23.2 42.1 22.7 40.5Z" fill="#692B83" stroke="#050505" stroke-width="0.7" stroke-linecap="round" stroke-linejoin="round"/>
<path d="M27.2999 40.4C24.3999 40.3 18.6 40.3 18.6 46.3C18.5 52.3 18.4 67.8 19.4 71C20.4 74.2 23.7 74.7 26.9 74.7C31.8 74.9 34.4 74.5 34.5 69.2C34.7 63.1 35.5 48.4 35.6 45.8C35.6 43.2 36.1999 40.6 27.2999 40.4Z" fill="#050505"/>
<path d="M18.6 59.8C18.9 57.4 16.2 53.4 16.2 48.3C16.2 48.3 18.2 47.5 18.6 47.2C18.6 47.2 17.1999 46.6 16.7999 46C17.4999 43.1 21.3 40.2 23.2 40L23.1 40.8C21.6 41.9 19.8999 45.3 19.7999 47.8C19.7999 50.3 19.0999 56.7 19.7999 59.5C19.6999 61.1 16.6 71.9 16.6 71.9" fill="#692B83"/>
<path d="M18.6 59.8C18.9 57.4 16.2 53.4 16.2 48.3C16.2 48.3 18.2 47.5 18.6 47.2C18.6 47.2 17.1999 46.6 16.7999 46C17.4999 43.1 21.3 40.2 23.2 40L23.1 40.8C21.6 41.9 19.8999 45.3 19.7999 47.8C19.7999 50.3 19.0999 56.7 19.7999 59.5C19.6999 61.1 16.6 71.9 16.6 71.9" stroke="#050505" stroke-width="0.7" stroke-linecap="round" stroke-linejoin="round"/>
<path d="M19.2999 68.7C23.1999 69.3 30 69.1 34.5 69C34.5 69.0667 34.5 69.1333 34.5 69.2C34.4 74.5 31.8 74.9 26.9 74.7C23.7 74.7 20.6 74.2 19.6 71C19.5 70.5 19.3999 69.7 19.2999 68.7Z" fill="#6E6B85"/>
<path d="M26.9 74.7C23.7 74.7 20.6 74.2 19.6 71C19.5 70.5 19.3999 69.7 19.2999 68.7C23.1999 69.3 30 69.1 34.5 69C34.5 69.0667 34.5 69.1333 34.5 69.2" stroke="#050505" stroke-width="0.7" stroke-linecap="round" stroke-linejoin="round"/>
<path d="M33.0001 39.2L33.2 32.3C33.2 32.3 33.4001 28.5 27.9001 28.4C22.5001 28.3 23.0001 31.6 23.0001 31.6L22.9001 41.7C22.6001 42 21.8 44.1 24.7 44.2C28.6 44.3 33.0001 42.3 33.0001 39.2Z" fill="#E8B29A" stroke="#050505" stroke-width="0.7" stroke-linecap="round" stroke-linejoin="round"/>
<path opacity="0.4" d="M18.7 64.8L19.2 68.5C18.7 69 19.5 72.4 21 73.5C19.3 73.8 16.2999 72.9 16.2999 72.9L18.7 64.8Z" fill="#050505"/>
<path d="M36.1 63.5C36.1 64 36.6 65.2 36.8 65.7C37 66.2 37.6 72.3 37.5 73.6C36.1 74.4 29.8 75 27.6 74.2C27.5 73.8 26.7 62.9 26.6 60.9C26.5 58.8 27.6 55.6 28.2 54.3C28.7 52.9 33 40 33.2 38.8C34.4 40 35.2 41 35.2 41C35.7 41.3 37.9001 41.4 38.9001 41.3C40.0001 41.2 41.6 44.2 41 47.1C40.5 49.9 38 52.8 37.8 54.3C37.5 55.8 36.1 61.7 36.1 63.5Z" fill="#692B83" stroke="#050505" stroke-width="0.7" stroke-linecap="round" stroke-linejoin="round"/>
<path d="M27.5 60.7C27.9 59 33.9001 52.2 34.4001 49C34.4001 49 32.6 47.9 31.8 47.6C31.8 47.6 34.8 46.9 35.2 46.6C35.2 46.6 35.4001 42.3 34.9001 41C34.9001 41 34.2 39.9 33 38.8C32.8 40 28.5 52.9 28 54.3C27.4 55.6 26.3001 58.8 26.4001 60.9C26.5001 62.9 27.2001 73.8 27.4001 74.2C29.6001 75 35.9 74.4 37.3 73.6C37.4 72.3 36.7 66.2 36.5 65.7C36.3 65.2 36 64 36.1 63.4" fill="#692B83"/>
<path d="M27.5 60.7C27.9 59 33.9001 52.2 34.4001 49C34.4001 49 32.6 47.9 31.8 47.6C31.8 47.6 34.8 46.9 35.2 46.6C35.2 46.6 35.4001 42.3 34.9001 41C34.9001 41 34.2 39.9 33 38.8C32.8 40 28.5 52.9 28 54.3C27.4 55.6 26.3001 58.8 26.4001 60.9C26.5001 62.9 27.2001 73.8 27.4001 74.2C29.6001 75 35.9 74.4 37.3 73.6C37.4 72.3 36.7 66.2 36.5 65.7C36.3 65.2 36 64 36.1 63.4" stroke="#050505" stroke-width="0.7" stroke-linecap="round" stroke-linejoin="round"/>
<path opacity="0.2" d="M27.9 64.3C27.9 63.9 28.3 63.6 28.6 63.6C29 63.7 29.2999 64 29.2999 64.4C29.2999 64.7 29 65 28.6 65C28.2 65 27.9 64.7 27.9 64.3Z" fill="#050505" stroke="#050505" stroke-width="0.4" stroke-linecap="round" stroke-linejoin="round"/>
<path d="M27.9 64C27.9 63.6 28.2 63.3 28.6 63.3C29 63.3 29.2999 63.7 29.2999 64C29.2999 64.4 29 64.7 28.6 64.7C28.2 64.7 27.9 64.4 27.9 64Z" fill="#848484" stroke="#050505" stroke-width="0.4" stroke-linecap="round" stroke-linejoin="round"/>
<path opacity="0.2" d="M28.1 68.4C28.1 68.1 28.3999 67.8 28.7999 67.8C29.1999 67.8 29.5 68.1 29.5 68.5C29.5 68.9 29.0999 69.2 28.7999 69.2C28.3999 69.1 28.1 68.8 28.1 68.4Z" fill="#050505" stroke="#050505" stroke-width="0.4" stroke-linecap="round" stroke-linejoin="round"/>
<path d="M28.1 68.1C28.1 67.7 28.3999 67.4 28.7999 67.5C29.1999 67.5 29.5 67.8 29.5 68.2C29.4 68.5 29.1 68.8 28.7 68.8C28.4 68.8 28.1 68.5 28.1 68.1Z" fill="#848484" stroke="#050505" stroke-width="0.4" stroke-linecap="round" stroke-linejoin="round"/>
<path opacity="0.2" d="M36.6 41.4C37.6 42.1 38 43.6 37.6 44.5C37.2 45.4 35.5 48.5 36.1 51.3C36.6 54.1 33.3001 61.3 33.4001 63.2C33.5001 65.1 33.7 74.5 33.7 74.5C35.3 74.2 37.3 73.6 37.3 73.6C37 66.6 35.6 63.5 36.1 62.2C36.5 61 37.8 53.9 37.8 53.9C39 52.1 41 48.2 41.1 46C41.1 43.7 39.8001 41.2 38.9001 41.3C38.1001 41.3 36.6 41.4 36.6 41.4Z" fill="#050505"/>
<path d="M19.2999 69.7L20.2 69.8L19.2999 69.7Z" fill="#6E6B85"/>
<path d="M19.2999 69.7L20.2 69.8" stroke="#050505" stroke-width="0.4" stroke-linecap="round" stroke-linejoin="round"/>
<path d="M21.6999 70.3C21.4999 71.7 21.7 73.1 22.5 74L23.6 74.4C23.1 73.6 22.3999 72.3 22.6999 70.6" stroke="#050505" stroke-width="0.4" stroke-linecap="round" stroke-linejoin="round"/>
<path d="M25.4 49.1L26.6 51.1L22.7999 57.2L20.9 50.9L22.1 49.1H25.4Z" fill="#FEFEFE" stroke="#9BCFE6" stroke-width="0.4" stroke-linecap="round" stroke-linejoin="round"/>
<path d="M26.5 51L20.9 50.9L26.5 51Z" fill="#FEFEFE"/>
<path d="M26.5 51L20.9 50.9" stroke="#9BCFE6" stroke-width="0.4" stroke-linecap="round" stroke-linejoin="round"/>
<path d="M25.5 49.2L25.1 51L24.2999 49.1L23.5 50.9L23.1 49.1L22.2 50.9L22.1 49.1" fill="#FEFEFE"/>
<path d="M25.5 49.2L25.1 51L24.2999 49.1L23.5 50.9L23.1 49.1L22.2 50.9L22.1 49.1" stroke="#9BCFE6" stroke-width="0.4" stroke-linecap="round" stroke-linejoin="round"/>
<path d="M22.2 51L22.9 57.1L25.1 51" stroke="#9BCFE6" stroke-width="0.4" stroke-linecap="round" stroke-linejoin="round"/>
<path d="M23.5 50.9L22.9 57.1" stroke="#9BCFE6" stroke-width="0.4" stroke-linecap="round" stroke-linejoin="round"/>
<path d="M23.7999 47.5L24 46.7C24 46.6 23.8999 46.4 23.7999 46.4C23.5999 46.4 23.4 46.5 23.4 46.6C23.4 46.6667 23.4 46.7 23.4 46.7L23.5 47.5C23.6 47.6 23.6 47.6 23.7 47.6C23.7666 47.6 23.7999 47.5667 23.7999 47.5Z" fill="#BA1E4B"/>
<path d="M25 47.9L25.6 47.4C25.7 47.3 25.8 47.2 25.7 47C25.6 46.9 25.4 46.9 25.2 47C25.2 47 25.2 47.0333 25.2 47.1L24.8 47.7C24.7 47.8 24.7 47.9 24.8 47.9C24.8666 47.9667 24.9334 47.9667 25 47.9Z" fill="#BA1E4B"/>
<path d="M25.8 48.7L26.6 48.5C26.8 48.5 26.9 48.3 26.8 48.2C26.8 48 26.6 47.9 26.5 48C26.4334 48 26.4001 48 26.4001 48L25.7 48.5C25.6 48.5 25.6 48.6 25.7 48.7C25.7 48.7 25.7333 48.7 25.8 48.7Z" fill="#BA1E4B"/>
<path d="M21.7 48.6L20.9 48.4C20.8 48.4 20.7 48.2 20.7 48C20.8 47.9 20.9 47.8 21.1 47.8C21.1 47.8 21.1333 47.8334 21.2 47.9L21.7999 48.4C21.8999 48.4 21.8999 48.5 21.7999 48.6C21.7999 48.6 21.7666 48.6 21.7 48.6Z" fill="#BA1E4B"/>
<path d="M22.4001 47.8L21.8 47.4C21.7 47.2 21.7 47.1 21.8 46.9C21.9 46.8 22.1 46.8 22.2 46.9C22.2 46.9 22.2333 46.9333 22.3 47L22.6 47.7C22.7 47.7 22.7 47.8 22.6 47.9C22.5334 47.9 22.4667 47.8667 22.4001 47.8Z" fill="#BA1E4B"/>
<path d="M26.9 70.2H24.7999H26.9Z" fill="#6E6B85"/>
<path d="M26.9 70.2H24.7999" stroke="#050505" stroke-width="0.4" stroke-linecap="round" stroke-linejoin="round"/>
<path d="M38.5 39.9C37.9 40.1 35.2999 39.8 35.2999 39.8C31.9999 43.2 29.9 50.7 37.5 58C37.5 58 38.2 58.2 38.4 58C35.3 52.8 32.4 46.2 38.5 39.9Z" fill="#81C241" stroke="#050505" stroke-width="0.7" stroke-linecap="round" stroke-linejoin="round"/>
<path d="M23.3 39.5C23.3 39.5 21.9 39.3 21.4 39.4C20.9 39.5 16.3 41.5 16.2 46.9C16 52.2 17.4 55.8 17.4 55.8C17.4 55.8 17.6 53.9 17.6 53.4C17.1 50.9 16.6 42.4 23.3 39.5Z" fill="#81C241" stroke="#050505" stroke-width="0.7" stroke-linecap="round" stroke-linejoin="round"/>
<path d="M27.5 60.7C27.9 59 33.9001 52.2 34.4001 49C34.4001 49 32.6 47.9 31.8 47.6C31.8 47.6 34.8 46.9 35.2 46.6C35.2 46.6 35.4001 42.3 34.9001 41C34.9001 41 34.2 39.9 33 38.8C32.8 40 28.5 52.9 28 54.3C27.4 55.6 26.3001 58.8 26.4001 60.9C26.5001 62.9 27.2001 73.8 27.4001 74.2" fill="#692B83"/>
<path d="M27.5 60.7C27.9 59 33.9001 52.2 34.4001 49C34.4001 49 32.6 47.9 31.8 47.6C31.8 47.6 34.8 46.9 35.2 46.6C35.2 46.6 35.4001 42.3 34.9001 41C34.9001 41 34.2 39.9 33 38.8C32.8 40 28.5 52.9 28 54.3C27.4 55.6 26.3001 58.8 26.4001 60.9C26.5001 62.9 27.2001 73.8 27.4001 74.2" stroke="#050505" stroke-width="0.7" stroke-linecap="round" stroke-linejoin="round"/>
<path opacity="0.2" d="M35.1 41.2L35.2 46.6L32 47.6L34.4 49C33.7 52 27.4 60.1 27.4 61.5C27.4 60 33.7 55 35.7 48.6L34.6 47.9L36.4 47C36.4 47 36.3 42.4 35.1 41.2Z" fill="#050505"/>
<path d="M18.6 59.8C18.9 57.4 16.2 53.4 16.2 48.3C16.2 48.3 18.2 47.5 18.6 47.2C18.6 47.2 17.1999 46.6 16.7999 46C17.4999 43.1 21.1 40.2 23 39.9V40.8C21.5 41.9 19.8999 45.3 19.7999 47.8C19.7999 50.3 19.0999 56.7 19.7999 59.5C19.6999 61.1 16.4 72.7 16.4 72.7" fill="#692B83"/>
<path d="M18.6 59.8C18.9 57.4 16.2 53.4 16.2 48.3C16.2 48.3 18.2 47.5 18.6 47.2C18.6 47.2 17.1999 46.6 16.7999 46C17.4999 43.1 21.1 40.2 23 39.9V40.8C21.5 41.9 19.8999 45.3 19.7999 47.8C19.7999 50.3 19.0999 56.7 19.7999 59.5C19.6999 61.1 16.4 72.7 16.4 72.7" stroke="#050505" stroke-width="0.7" stroke-linecap="round" stroke-linejoin="round"/>
<path d="M44.9 75.1C45.3 73.3 45.3999 71.8 44.7999 70.2C44.3999 69 43.3 68.5 42.2 68.2C41.7 68.1 38.7999 67.5 38.2999 70.1C38.0999 70.7 38.0999 71.5 37.7999 72.2C37.4999 72.6 37.3999 72.8 37.2999 73.7C37.2999 74 38.4 74.7 38.7 74.9C38.8 74.4 38.9 74.3 39.2 74.4C39.6 74.5 39.7 75 39.4 76C39.2 76.7 39.7 77.1 39.7 77.1L41.9 76.5C41.9 76.5 44.6 76.1 44.9 75.1Z" fill="#E8B29A" stroke="#050505" stroke-width="0.7" stroke-linecap="round" stroke-linejoin="round"/>
<path d="M37.5 72.7C37.5 72.7 37.2 73.9 37.1 74.9C37 75.8 37.1 76.3 37.2 76.6C37.5 77 38 77.2 38.3 77.1C38.7 77 38.8 76.7 38.7 76.1C38.6 75.5 38.6 75.3 38.8 74.5" fill="#E8B29A"/>
<path d="M37.5 72.7C37.5 72.7 37.2 73.9 37.1 74.9C37 75.8 37.1 76.3 37.2 76.6C37.5 77 38 77.2 38.3 77.1C38.7 77 38.8 76.7 38.7 76.1C38.6 75.5 38.6 75.3 38.8 74.5" stroke="#050505" stroke-width="0.7" stroke-linecap="round" stroke-linejoin="round"/>
<path d="M42.6 76.8C42.5 77.2 42.9 77 43.3 77.1C43.6 77.2 43.9 77 44.2 76.6C44.2 76.6 45.2 75.8 45.2 72.4" fill="#E8B29A"/>
<path d="M42.6 76.8C42.5 77.2 42.9 77 43.3 77.1C43.6 77.2 43.9 77 44.2 76.6C44.2 76.6 45.2 75.8 45.2 72.4" stroke="#050505" stroke-width="0.7" stroke-linecap="round" stroke-linejoin="round"/>
<path d="M41.9 76.2C41.6 76.9 41.5 76.9 41.5 77.3C41.4 77.7 41.6 78 42 78.2C42.3 78.3 42.6 78.1 42.9 77.8C42.9 77.8 43.4 77.3 43.9 75.1" fill="#E8B29A"/>
<path d="M41.9 76.2C41.6 76.9 41.5 76.9 41.5 77.3C41.4 77.7 41.6 78 42 78.2C42.3 78.3 42.6 78.1 42.9 77.8C42.9 77.8 43.4 77.3 43.9 75.1" stroke="#050505" stroke-width="0.7" stroke-linecap="round" stroke-linejoin="round"/>
<path d="M40.7999 76.1C40.4999 77.2 40.3999 77.5 40.2999 78C40.1999 78.4 40.3 78.8 40.6 78.9C41 79 41.3 78.8 41.5 78.4C41.5 78.4 42 77.8 42.5 75.6" fill="#E8B29A"/>
<path d="M40.7999 76.1C40.4999 77.2 40.3999 77.5 40.2999 78C40.1999 78.4 40.3 78.8 40.6 78.9C41 79 41.3 78.8 41.5 78.4C41.5 78.4 42 77.8 42.5 75.6" stroke="#050505" stroke-width="0.7" stroke-linecap="round" stroke-linejoin="round"/>
<path d="M41.0999 75.9C40.5999 78.1 40.1999 78.6 40.1999 78.6C39.8999 79.1 39.6999 79.2 39.2999 79.1C38.8999 79 38.6999 78.6 38.7999 78.2C39.0999 77 39.6 75.4 39.5 75.1" fill="#E8B29A"/>
<path d="M41.0999 75.9C40.5999 78.1 40.1999 78.6 40.1999 78.6C39.8999 79.1 39.6999 79.2 39.2999 79.1C38.8999 79 38.6999 78.6 38.7999 78.2C39.0999 77 39.6 75.4 39.5 75.1" stroke="#050505" stroke-width="0.7" stroke-linecap="round" stroke-linejoin="round"/>
<path opacity="0.1" d="M38.2 76.1C38.2 76.1 38 76.2 38 75.5C37.9 74.9 38.3 73.8 38.6 74.3L38.7 74.2L38.9001 74.5C38.5001 75.3 38.6 75.5 38.7 76.1C38.7 76.7 38.6 77 38.3 77.1C38.3 77.0333 38.3334 77 38.4001 77C38.7001 76.1 38.2 76.1 38.2 76.1Z" fill="#050505"/>
<path opacity="0.3" d="M41.2 76.4C41.2 76.4 41.4 77.6 40.6 78.9L40.2999 78.6L41.2 76.4Z" fill="#050505"/>
<path opacity="0.3" d="M42.6 75.9C42.6 75.9 42.8 77 42.1 78.3L41.7999 78.1L42.6 75.9Z" fill="#050505"/>
<path opacity="0.3" d="M44.1 75.3C44.1 75.3 44.5 75.8 43.7 77.1L43.1 77L44.1 75.3Z" fill="#050505"/>
<path opacity="0.3" d="M45.1999 73C45.1999 73 44.1 73.9 42 73.9C39.6 73.9 38.3999 72.9 37.6999 73.2C36.9999 73.4 37.5999 72.2 37.5999 72.2L38.2999 70.5C38.2999 70.5 38.3999 68.2 40.7999 68C43.1999 67.8 44.2999 69.3 44.2999 69.3C44.2999 69.3 44.9999 71 45.1999 73Z" fill="#050505"/>
<path d="M38.6 42C43.4 40.7 44.1 44.3 44.1 44.3C45.4 51.8 45.6 59.5 45.6 67.2C45.6 67.3 45.5 71.2 45.5 71.2L37.3 71.5C37.3 71.5 37.5 61.6 37.1 55.9C36.8 51.2 36.3 48.1 36.2 46.5C36 44.2 36.2 42.6 38.6 42Z" fill="#692B83" stroke="#050505" stroke-width="0.7" stroke-linecap="round" stroke-linejoin="round"/>
<path opacity="0.2" d="M43.2999 67.5C43.2999 59.8 43.1999 52.1 41.7999 44.6C41.7999 44.6 41.4 42.2 38.6 42C43.4 40.7 44.1 44.3 44.1 44.3C45.4 51.8 45.6 59.5 45.6 67.2C45.6 67.3 45.5 71.2 45.5 71.2C45.5 71.2 44.5 71.3 43.2 71.3C43.3 70.5 43.2999 67.6 43.2999 67.5Z" fill="#050505"/>
<path opacity="0.2" d="M43.4 68.9C43.4 68.5 43.7 68.2 44.1 68.2C44.5 68.2 44.7999 68.5 44.7999 68.9C44.6999 69.3 44.4 69.6 44 69.6C43.7 69.6 43.4 69.3 43.4 68.9Z" fill="#050505" stroke="#050505" stroke-width="0.4" stroke-linecap="round" stroke-linejoin="round"/>
<path d="M43.2999 68.6C43.3999 68.2 43.7 67.9 44.1 67.9C44.4 67.9 44.7 68.2 44.7 68.6C44.7 69 44.4 69.3 44 69.3C43.6 69.3 43.2999 68.9 43.2999 68.6Z" fill="#848484" stroke="#050505" stroke-width="0.4" stroke-linecap="round" stroke-linejoin="round"/>
<path d="M31.7 32.1C32.6 33.1 33.5 33.6 34.7 33.6C35.8 33.6 36.4 32.9 36.7 31.5C36.1 32 35 32 35 30.9C35.1 29.8 37.5 30.1 37.6 28.4C37.6 27.8 37.1 27.3 37.1 27.3C38.1 27.5 39.2 27.7 40 26.2C40.1 26.8 39.9999 27.6 39.7999 27.8C41.2999 27.8 42.9 25.6 42.4 22.6C42.9 23.2 43.3 24.3 43.2 24.8C44.6 22.6 43.6 21.2 43.1 20.7C42.5 20.2 41.7 19.5 41.6 19.3C42 19.3 42.7 19.3 43 18.7C43.2 18.9 43.7999 19.3 43.7999 19.9C43.7999 18.3 43.8 17.7 43 17.5C42.2 17.2 41.1 17 41.1 16.3C41.9 16.3 42.5 15.9 42.6 15.2C42.3 15.4 41.4 15.3 41.4 14.5C42 13.8 42.4 13.3 42.5 11.2C42.5 9.20001 40.2999 8.5 40.2999 8.5C41.3999 7.7 41.1 6.40001 40.4 5.60001C40.5 6.10001 40.5 7 39.6 7C38.8 6.9 38.7 4.90001 37.4 4.10001C36.2 3.30001 34.4 3.20001 34.4 3.20001C32.9 1.50001 29.5 1.80002 28.5 2.80002C28.5 2.80002 27.3 2.00002 25.5 1.90002C23.8 1.90002 22.8 3.20001 21 3.20001C19.8 3.20001 18.8999 1.5 19.2999 1C18.5999 1.7 18 3 19.2 4C18 3.4 16.1 4.00002 16.1 5.80002C15.7 5.80002 15.2 6.30002 15.1 6.80002C14.9 7.60002 15.8 8.90001 15.6 9.70001C15.4 10.5 14.1999 10.1 13.7999 9.90002C14.2999 10.4 14.6 10.9 15.1 11.2C14.5 12 14.3999 12.5 14.2999 12.7C14.1999 14.1 15 14.4 14.7 15.1C14.5 15.9 13.1999 15.7 12.7999 15.4C12.9999 15.8 13.6 16.7 14.2 17C13.7 17.3 12.5 17.5 11.6 16.8C11.9 18.4 12.5 20.2 15 21.3C14.8 21.5 14.1 21.8 13.9 21.8C14.5 24.1 18.5 24.8 18.6 25.9L31.7 32.1Z" fill="#786356" stroke="#050505" stroke-width="0.7" stroke-linecap="round" stroke-linejoin="round"/>
<g style="mix-blend-mode:multiply" opacity="0.2">
<path d="M16.5 21.4C18.5 19.8 20.2999 18.3 22.7999 17.8C25.1999 17.3 27.6 17.3 30 17.7C32.8 18.2 35.9 19 38.1 21.2C38.9 22 39.6 23.3 39.4 24.4C39.3 25.1 38.8999 25.5 38.2999 25.8C37.8999 26 36.7 26.3 36.5 26.7C36.1 27.5 36.4999 28 35.7999 28.6C35.2999 29.1 34.6 29.5 34.2 30.1C33.4 31.8 34.2 32.5 35.6 33.3C35.6 33.3 35.6333 33.3 35.7 33.3C35.4333 33.5 35.1 33.6 34.7 33.6C33.5 33.6 32.6 33.1 31.7 32.1L18.6 25.9C18.5 25 15.4999 24.3 14.2999 22.6C14.4999 22.9 15.5 22.2 16.5 21.4Z" fill="#050505"/>
</g>
<path d="M34.1 25.7C34.1 25.7 33.0001 33.4 32.9001 33.8C32.8334 34.2667 32.6667 34.8 32.4001 35.4C32.1001 35.9 30 38.7 29.7 39.1C29.4 39.5 29 39.9 28.3 39.9C27.6 39.9 23.3001 39.8 21.4001 39.7C19.6 39.7 17.7 38.3 17.8 33.4C17.8 32 17.5 25.7 17.5 25C17.4 24.2 16.1 23.5 16.1 22.4C16.1 21.4 16.9001 18.6 16.9001 18.6C16.9001 18.6 15.4 17 15.5 16.6C15.5 16.3 16.2 14.5 16.3 13.8C16.3 13.1 17.5 4.10004 23.3 4.30004C30.5 4.50004 37 3.40004 36.6 19.4C37.2 19.1 37.9 19.1 38.3 19.5C38.7 19.9 39.1 20 39 22.4C38.9 24.8 35.5 28.5 34.1 25.7Z" fill="#E8B29A" stroke="#050505" stroke-width="0.7" stroke-linecap="round" stroke-linejoin="round"/>
<path opacity="0.2" d="M29.2 36.3C30.2 34.3 30.0999 28.5 29.7999 27.4C29.4999 26.3 28.9 25.2 29.5 24.9C33.1 23.4 33.6 21.5 33.1 20.7C33 15.5 30.5999 8.90002 27.7999 4.40002C32.9999 4.80002 36.9 6.80002 36.6 19.4C37.2 19.1 37.8999 19.1 38.2999 19.5C38.6999 19.9 39.1 20 39 22.4C38.9 24.8 35.5 28.5 34.1 25.7C34.1 25.7 33 33.4 32.9 33.8C32.8334 34.2667 32.6667 34.8 32.4 35.4C32.1 35.9 30 38.7 29.7 39.1C29.4 39.5 28.9999 39.9 28.2999 39.9C28.0999 39.9 27.6 39.9 26.9 39.8C27.3 38.9 28.5 37.9 29.2 36.3Z" fill="#050505"/>
<path d="M39.5 17.6C39.9 18.6 39.9 19.2 39.6 20C39.3 20.7 37.4999 21.3 37.7999 22.2C37.4999 22 36.9 20.8 37.1 20.1C36.8 20.4 36.3 21.5 36.9 22.2C36.5 22 36 21.6 36 21.2C35.8 21.8 35.7999 23 36.2999 23.4C35.0999 23.2 34.2999 21.7 34.2999 20.7C34.2999 19.7 35 19.5 35.1 18C35.1 17.6 34.6 17.5 34.6 17.5C34.5 17.8 34.1 18.6 34.2 19.1C33.6 18.4 33.5 17.4 33.5 16.9C33.5 16.3 34.8 13.9 34 13.1C33.6 13.3 32.4999 13.3 32.7999 15.1C32.3999 14.8 32 13.7 32 13.2C32 12.7 33.3999 11.4 32.7999 10.4C32.2999 9.4 31.7 8.79999 31.7 8.79999C31.3 9.89999 29.6 10.3 29.7 11C29.2 10.1 29.7 9.2 29.7 8.4C29.7 7.6 28.7999 7.19998 28.2999 7.19998C27.6999 7.19998 27.4 7.79997 27.4 8.49997C27.4 9.09997 29.5 10.8 27.7 13.4C27.8 11.1 25.8 10.1 24.9 9.9C25.7 10.6 25.6999 12.6 24.2999 13.4C24.4999 12.8 24.5 11.4 23.4 11.1C22.3 10.7 21.2 10.1 21 9.49997C21.2 11.1 20.3 13.1 18 13.1C18.9 11.9 18.8999 11.4 18.2999 10.5C17.8999 9.89997 16.3 11.6 16.1 11.2C15.9 10.7 17.4 8.19999 17.6 7.79999C18.2 5.79999 19.4 3.39997 23.2 3.49997C27 3.59997 32.8 3.29997 34.6 4.99997C36.4 6.69997 39.7 10.5 39.5 17.6Z" fill="#786356"/>
<path d="M39.5 17.6C39.9 18.6 39.8999 19.2 39.5999 20C39.2999 20.7 37.4999 21.3 37.7999 22.2C37.4999 22 36.8999 20.8 37.0999 20.1C36.7999 20.4 36.3 21.5 36.9 22.2C36.5 22 36 21.6 36 21.2C35.8 21.8 35.7999 23 36.2999 23.4C35.0999 23.2 34.2999 21.7 34.2999 20.7C34.2999 19.7 34.9999 19.5 35.0999 18C35.0999 17.6 34.5999 17.5 34.5999 17.5C34.4999 17.8 34.0999 18.6 34.1999 19.1C33.5999 18.4 33.5 17.4 33.5 16.9C33.5 16.3 34.8 13.9 34 13.1C33.6 13.3 32.4999 13.3 32.7999 15.1C32.3999 14.8 32 13.7 32 13.2C32 12.7 33.3999 11.4 32.7999 10.4C32.2999 9.40002 31.6999 8.80002 31.6999 8.80002C31.2999 9.90002 29.5999 10.3 29.6999 11C29.1999 10.1 29.6999 9.20002 29.6999 8.40002C29.6999 7.60002 28.7999 7.20001 28.2999 7.20001C27.6999 7.20001 27.4 7.8 27.4 8.5C27.4 9.1 29.4999 10.8 27.6999 13.4C27.7999 11.1 25.8 10.1 24.9 9.90002C25.7 10.6 25.6999 12.6 24.2999 13.4C24.4999 12.8 24.5 11.4 23.4 11.1C22.3 10.7 21.2 10.1 21 9.5C21.2 11.1 20.3 13.1 18 13.1C18.9 11.9 18.8999 11.4 18.2999 10.5C17.6999 9.7 17.1999 8.50002 17.5999 7.80002" stroke="#050505" stroke-width="0.7" stroke-linecap="round" stroke-linejoin="round"/>
<path d="M17.7999 9.60001C17.6999 10.9 16.7 12.1 15 11.1" stroke="#050505" stroke-width="0.7" stroke-linecap="round" stroke-linejoin="round"/>
<path d="M38 17.7C38.2 18.5 37.7 19.5 37.1 20.1" stroke="#050505" stroke-width="0.7" stroke-linecap="round" stroke-linejoin="round"/>
<path d="M36.2 13.1C36.8 14.7 35.3 16.8 34.6 17.5" stroke="#050505" stroke-width="0.7" stroke-linecap="round" stroke-linejoin="round"/>
<path d="M31.7 7.59998C31.9 7.99998 31.7 8.89998 31.6 9.09998" stroke="#050505" stroke-width="0.7" stroke-linecap="round" stroke-linejoin="round"/>
<path d="M34.5 8.80005C35.9 10.4 36.5 12.4 34 13.1" stroke="#050505" stroke-width="0.7" stroke-linecap="round" stroke-linejoin="round"/>
<path d="M23.7 7.5C23.7 8.4 24.2 9.50002 24.9 9.90002" stroke="#050505" stroke-width="0.7" stroke-linecap="round" stroke-linejoin="round"/>
<path d="M20.8 8.20001C20.6 8.70001 20.8 9.30001 21.1 9.70001" stroke="#050505" stroke-width="0.7" stroke-linecap="round" stroke-linejoin="round"/>
<path d="M41.1 16.3C40.9 16.3 40.4 16 40.4 16" stroke="#050505" stroke-width="0.7" stroke-linecap="round" stroke-linejoin="round"/>
<path d="M42.9 18.6C42.7 18.6 42.2 18.3 42.1 18.2" stroke="#050505" stroke-width="0.7" stroke-linecap="round" stroke-linejoin="round"/>
<path d="M33 20.2C34.6 22.7 30.7 24.5 29.9 24.7C29.2 24.8 29.2999 25.9 29.6999 26.7" stroke="#050505" stroke-width="0.4" stroke-linecap="round" stroke-linejoin="round"/>
<path d="M26.7 35.6C25.2 34.5 20.1999 34.2 19.2999 35.6" stroke="#050505" stroke-width="0.4" stroke-linecap="round" stroke-linejoin="round"/>
<g style="mix-blend-mode:multiply" opacity="0.2">
<path d="M40.2999 27.5C41.3999 26.3 41.4 24.3 41.2 23.3C41.1 22.3 42.5 22.2 42.5 23.2C42.5 24.1 41.7999 27.2 40.2999 27.5Z" fill="#050505"/>
</g>
<g style="mix-blend-mode:multiply" opacity="0.2">
<path d="M43.4 24C43.5 22.8 43 21.1 41.9 20.6C40.9 20 42.2999 20 42.2999 20C42.2999 20 44.8 21.7 43.4 24Z" fill="#050505"/>
</g>
<g style="mix-blend-mode:multiply" opacity="0.2">
<path d="M28.6 2.90003C29.5 2.50003 30.9 2.50002 31.3 2.80002C31.7 3.10002 31.6 3.20001 31.3 3.10001C30.9 3.10001 28.7 3.50002 28.5 3.70002C28.2 4.00002 27.3001 3 26.4001 3C25.5001 3 25.8 2.70002 26.3 2.70002C26.7 2.70002 28.1 2.50003 28.6 2.90003Z" fill="#050505"/>
</g>
<g style="mix-blend-mode:multiply" opacity="0.2">
<path d="M37.7999 4.59999C37.2999 4.09999 36.6 4.6 37 5.2C37.5 5.7 38.2 6.39999 38.4 6.99999C38.5 7.59999 39.8 7.90001 40.4 6.90001C39.9 7.20001 38.9999 6.30001 38.7999 5.90001C38.6999 5.50001 38.1999 4.69999 37.7999 4.59999Z" fill="#050505"/>
</g>
<path d="M25.7 25.3C26.2 25.9 28.2 28.8 28.4 29.1L25.7 25.3Z" fill="#E8B29A"/>
<path d="M25.7 25.3C26.2 25.9 28.2 28.8 28.4 29.1" stroke="#050505" stroke-width="0.4" stroke-linecap="round" stroke-linejoin="round"/>
<path d="M19.2999 26.7C18.9999 27.2 18.7 28.5 18.7 28.5L19.2999 26.7Z" fill="#E8B29A"/>
<path d="M19.2999 26.7C18.9999 27.2 18.7 28.5 18.7 28.5" stroke="#050505" stroke-width="0.4" stroke-linecap="round" stroke-linejoin="round"/>
<path d="M27 29.6C27 30.9 22.6999 30.5 22.2999 31.2C21.9999 30.5 19.6 30.4 19.2 29.6" stroke="#050505" stroke-width="0.5" stroke-linecap="round" stroke-linejoin="round"/>
<path d="M23.6 32.5C23.1 32.7 21.8 32.8 21.1 32.3" stroke="#050505" stroke-width="0.4" stroke-linecap="round" stroke-linejoin="round"/>
<path d="M29.5 19.4C28.6 19.7 25.5 19.5 25 19.2C25.1 18.5 25.3 17.6 26.7 17.6C28.1 17.7 29.5 18.4 29.5 19.4Z" fill="#FEFEFE" stroke="#050505" stroke-width="0.5" stroke-linecap="round" stroke-linejoin="round"/>
<path d="M17.1 19.1C17.8 19.5 20.3999 19.4 20.7999 19.1C20.7999 18.4 20.6 17.5 19.5 17.4C18.3 17.4 17.1 18.1 17.1 19.1Z" fill="#FEFEFE" stroke="#050505" stroke-width="0.5" stroke-linecap="round" stroke-linejoin="round"/>
<path d="M27.1 18.6C27.1 18.3 26.8 17.9 26.4 17.9C26.1 17.9 25.7 18.2 25.7 18.6C25.7 19 26 19.3 26.4 19.3C26.8 19.3 27.1 19 27.1 18.6Z" fill="#54321D" stroke="#050505" stroke-width="0.4"/>
<path d="M25.7 18.5C25.7 18.5 25.9 17.9 26.4 17.9C27 18 27.1 18.7 27.1 18.7C27.1 18.7 26.8 18.4 26.4 18.4C26.1 18.4 25.7 18.5 25.7 18.5Z" fill="#462A18"/>
<path d="M26.7999 18.6C26.7999 18.4 26.6 18.3 26.4 18.3C26.2 18.3 26.1 18.4 26.1 18.6C26.1 18.8 26.2 19 26.4 19C26.6 19 26.7999 18.8 26.7999 18.6Z" fill="#050505"/>
<path d="M26.4 18.5C26.4 18.4 26.3 18.3 26.2 18.3C26 18.3 25.9 18.4 25.9 18.5C25.9 18.6 26 18.7 26.2 18.7C26.3 18.8 26.4 18.7 26.4 18.5Z" fill="#FEFEFE"/>
<path d="M27.1 18.6C27.1 18.3 26.8 17.9 26.4 17.9C26.1 17.9 25.7 18.2 25.7 18.6C25.7 19 26 19.3 26.4 19.3C26.8 19.3 27.1 19 27.1 18.6Z" stroke="#050505" stroke-width="0.4"/>
<path d="M19.2 18.5C19.2 18.1 18.9 17.8 18.5 17.8C18.1 17.7 17.7999 18.1 17.7999 18.4C17.7999 18.8 18.1 19.1 18.5 19.1C18.8 19.1 19.2 18.8 19.2 18.5Z" fill="#54321D" stroke="#050505" stroke-width="0.4"/>
<path d="M17.7999 18.3C17.7999 18.3 18 17.7 18.5 17.8C19 17.8 19.2 18.5 19.2 18.5C19.2 18.5 18.9 18.2 18.5 18.2C18.1 18.2 17.7999 18.3 17.7999 18.3Z" fill="#462A18"/>
<path d="M18.7999 18.5C18.7999 18.3 18.7 18.1 18.5 18.1C18.3 18.1 18.1 18.2 18.1 18.4C18.1 18.6 18.3 18.8 18.5 18.8C18.7 18.8 18.7999 18.6 18.7999 18.5Z" fill="#050505"/>
<path d="M18.4 18.4C18.4 18.2 18.3 18.1 18.2 18.1C18.1 18.1 18 18.2 18 18.4C18 18.5 18.1 18.6 18.2 18.6C18.3 18.6 18.4 18.5 18.4 18.4Z" fill="#FEFEFE"/>
<path d="M19.2 18.5C19.2 18.1 18.9 17.8 18.5 17.8C18.1 17.7 17.7999 18.1 17.7999 18.4C17.7999 18.8 18.1 19.1 18.5 19.1C18.8 19.1 19.2 18.8 19.2 18.5Z" stroke="#050505" stroke-width="0.4"/>
<path d="M21.9 17.4C21.9 18.5 21.2999 19.1 21.0999 19.6C20.7999 20.2 20.3999 21.9 20.2999 22.3C20.2999 22.7 19.3999 23.2 19.1999 23.9C18.9999 24.5 19.2 26.1 21 26.6C22.8 27.1 23.5 26.4 23.5 26.4" fill="#E8B29A"/>
<path d="M21.9 17.4C21.9 18.5 21.2999 19.1 21.0999 19.6C20.7999 20.2 20.3999 21.9 20.2999 22.3C20.2999 22.7 19.3999 23.2 19.1999 23.9C18.9999 24.5 19.2 26.1 21 26.6C22.8 27.1 23.5 26.4 23.5 26.4" stroke="#050505" stroke-width="0.6" stroke-linecap="round" stroke-linejoin="round"/>
<path d="M23.5 23.9C24.3 23.9 24.8 24.3 24.7 25.1C24.6 25.9 24.6 26.1 24.4 26.4C24.1 26.7 22.4 25.5 21.7 25.8" fill="#E8B29A"/>
<path d="M23.5 23.9C24.3 23.9 24.8 24.3 24.7 25.1C24.6 25.9 24.6 26.1 24.4 26.4C24.1 26.7 22.4 25.5 21.7 25.8" stroke="#050505" stroke-width="0.6" stroke-linecap="round" stroke-linejoin="round"/>
<path d="M31.2 16.8C31.2 16.4 30.8 15.9 30.1 15.7C29.4 15.5 25.7999 14.9 24.7999 15.4C24.4999 15.6 24.1 16 24.1 16.4C24.1 16.8 24.3 16.9 24.9 16.9C25.5 16.8 28.8 16.9 30 17.2C31.1 17.5 31.2 16.8 31.2 16.8Z" fill="#050505"/>
<path d="M20.9999 15.9C20.8999 15.5 20.4999 15.2 20.0999 15.2C19.5999 15.1 17.0999 14.7 15.9999 15.6C15.7999 15.9 15.5999 16.7 15.7999 17C16.4999 16.8 19.3999 16.4 20.2999 16.7C20.6999 16.8 21.3999 16.8 20.9999 15.9Z" fill="#050505"/>
<path d="M34.5 19.8L31.7999 19.4C31.6999 19.4 31.6 19.3 31.6 19.2V18.4C31.6 18.3334 31.6333 18.2667 31.7 18.2C31.7666 18.2 31.7999 18.2 31.7999 18.2C31.7999 18.2 31.8334 18.2 31.9 18.2L34.9 18.9C34.9 18.9 34.9333 18.9333 35 19C35 19.0667 35 19.1 35 19.1C34.9 19.4 34.7999 19.7 34.7999 19.7C34.7333 19.7667 34.6666 19.8 34.6 19.8C34.6 19.8 34.5667 19.8 34.5 19.8Z" fill="#FEFEFE"/>
<path fill-rule="evenodd" clip-rule="evenodd" d="M31.9 18L34.9 18.7C35.0334 18.7 35.1333 18.7667 35.2 18.9C35.2666 18.9667 35.2666 19.0667 35.2 19.2C35.1 19.4 35 19.8 34.9 19.8C34.9 20 34.7 20 34.6 20C34.5333 20 34.5 20 34.5 20L31.7999 19.6C31.5999 19.6 31.4 19.4 31.4 19.2V18.4C31.4 18.2667 31.4666 18.1333 31.6 18C31.6666 17.9333 31.7333 17.9 31.7999 17.9C31.8666 17.9 31.9 17.9333 31.9 18ZM31.7999 19.2L34.6 19.6C34.6 19.6 34.7999 19.3 34.7999 19.1L31.7999 18.4V19.2Z" fill="#050505"/>
<path opacity="0.6" d="M30.5 18.9C30.6 18 29.5 17 27.4 16.9C25.3 16.9 24.2 18.3 24.2 18.9C24.2 19.4 24.6999 21 27.2999 21C29.5999 21.1 30.5 19.5 30.5 18.9Z" fill="#EC1F40"/>
<path opacity="0.6" d="M21.0999 18.8C21.0999 18.1 19.9999 16.8 18.1999 16.7C16.9999 16.7 15.4999 17.3 15.4999 18.5C15.3999 19.6 17.0999 20.8 18.2999 20.8C19.3999 20.8 21.0999 20.3 21.0999 18.8Z" fill="#EC1F40"/>
<path fill-rule="evenodd" clip-rule="evenodd" d="M27.4 21.7C25.5 21.6 24.6 21 24.1 20.5C23.8 20.1 23.6 19.7 23.6 19.2C23.3 19.1 22.8 18.9 22.4 18.9C22.1334 18.9 21.9 18.9667 21.7 19.1C21.5 19.1 21.3 19.3 21.1 19.7C21.0333 19.9 20.9667 20.1334 20.9 20.4C20.9 20.4667 20.8666 20.5 20.7999 20.5C20.3999 20.9 19.8 21.5 18.5 21.5L18.2999 21.4C16.8999 21.4 16 20.8 15.5 20.3C15.1 19.8 14.8999 19.3 14.7999 19L14.2999 18.9C14.1999 18.9 14.1 18.8 14.1 18.7V18C14.1 17.9333 14.1333 17.8667 14.2 17.8C14.2666 17.8 14.2999 17.8 14.2999 17.8H15C15.3 17.2 16.2 16 18 16H18.1C20 16 21.4 17.1 21.7 18C21.9 17.9 22.3 17.9 22.6 17.9C22.9 17.9 23.3999 17.9 23.7999 18.1C24.3999 17.2 25.2999 16.2 27.2999 16.2H27.4C29.6 16.3 30.9 17.4 31.1 18.2L31.7 18.1C31.7666 18.1 31.8334 18.1333 31.9 18.2C31.9 18.2 31.9 18.2334 31.9 18.3L32 19.2C32 19.3 31.8999 19.4 31.7999 19.4H31.2C30.8 20.3 29.9 21.7 27.5 21.7H27.4ZM27.4 17.1C25.5 17.1 24.5 18.5 24.5 18.9C24.4 19.4 24.9 20.8 27.4 20.8H27.5C29.6 20.8 30.4 19.4 30.4 18.9C30.4 18.2 29.5 17.2 27.5 17.1H27.4ZM18.1 17C17.1 17 15.8 17.5 15.7 18.5C15.7 19.5 17.1999 20.6 18.2999 20.6H18.4C19.3 20.6 20.9 20.2 21 18.8C21 18.1 19.9 17 18.2 17H18.1Z" fill="#FEFEFE"/>
<path fill-rule="evenodd" clip-rule="evenodd" d="M18.1 15.8C19.1 15.8 19.9999 16.1 20.7999 16.6C21.2999 17 21.6999 17.4 21.7999 17.8C22.0666 17.7334 22.3333 17.7 22.6 17.7C22.9 17.7 23.3 17.7 23.7 17.9C24.4 17 25.2999 16 27.2999 16C27.2999 16 27.3334 16 27.4 16C29.6 16.1 30.8999 17.1 31.2999 18L31.7 17.9C31.8333 17.9 31.9333 17.9333 32 18C32.1333 18.1333 32.2 18.2334 32.2 18.3V19.2C32.2 19.4 31.9999 19.6 31.7999 19.6H31.2999C30.8999 20.5 29.9 21.9 27.5 21.9C27.4333 21.9 27.4 21.9 27.4 21.9C25.5 21.8 24.5 21.2 24 20.7C23.6 20.3 23.4 19.8 23.4 19.3C23.1 19.2 22.8 19.1 22.4 19.1C22.2 19.1 21.9999 19.1333 21.7999 19.2C21.7333 19.2667 21.7 19.3 21.7 19.3C21.7 19.3 21.4999 19.4 21.2999 19.8C21.2999 19.9 21.2 20.1 21.1 20.5C21.0333 20.5667 21 20.6 21 20.6C20.6 21.1 19.9 21.7 18.5 21.7C18.4333 21.7 18.3666 21.7 18.2999 21.7C16.7999 21.6 15.9 21 15.4 20.4C15 20 14.8 19.5 14.7 19.2H14.2999C14.0999 19.1 13.9 19 13.9 18.7V18C13.9 17.8667 13.9666 17.7667 14.1 17.7C14.1666 17.6333 14.2333 17.5667 14.2999 17.5C14.3666 17.5 14.4 17.5 14.4 17.5L14.9 17.6C15.2 16.9 16.2 15.8 18 15.8C18.0667 15.8 18.1 15.8 18.1 15.8ZM15.1 18H14.2999V18.7L15 18.8C15 19.2 15.6999 21.2 18.2999 21.2C18.3666 21.2 18.4333 21.2 18.5 21.2C19.7 21.2 20.2 20.8 20.7 20.4C20.8 20.1 20.9 19.8 20.9 19.7C21.1 19.3 21.3 18.9 21.7 18.9C21.9 18.7667 22.1334 18.7 22.4 18.7C22.9 18.7 23.4999 18.9 23.7999 19.1C23.6999 20.1 24.7 21.4 27.4 21.4C27.4667 21.4667 27.5 21.5 27.5 21.5C30.1 21.5 30.8 19.7 31 19.2H31.7999L31.7 18.3L31 18.4C30.9 17.8 29.8 16.5 27.4 16.4C27.3334 16.4 27.2999 16.4 27.2999 16.4C25.2999 16.4 24.4999 17.5 23.7999 18.4C23.4999 18.2 23 18.1 22.6 18.1C22.1 18.1 21.7 18.2 21.5 18.3C21.6 17.6 20.1 16.2 18.1 16.2C18.1 16.2 18.0667 16.2 18 16.2C16.1 16.2 15.3 17.5 15.1 18ZM27.2999 21C24.6999 21 24.2 19.4 24.2 18.9C24.2 18.4 25.2999 16.9 27.2999 16.9C27.3666 16.9 27.4 16.9 27.4 16.9C29.5 17 30.6 18 30.5 18.9C30.5 19.5 29.6 21 27.4 21C27.4 21 27.3666 21 27.2999 21ZM18.2999 20.8C17.0999 20.8 15.4 19.6 15.5 18.5C15.5 17.4 17 16.7 18.1 16.7C18.1 16.7 18.1333 16.7 18.2 16.7C20 16.8 21.1 18 21.1 18.8C21.1 20.3 19.5 20.8 18.4 20.8C18.3334 20.8 18.2999 20.8 18.2999 20.8ZM20.7 18.8C20.7 18.5 20.5 18.1 20.1 17.8C19.6 17.4 18.9 17.2 18.1 17.2C17.2 17.2 15.9 17.6 15.9 18.5C15.9 19.4 17.2999 20.4 18.2999 20.4H18.4C19.2 20.4 20.7 20 20.7 18.8ZM30.1 18.9C30.1 18.5 29.9 18.2 29.5 17.9C29.2 17.7 28.5 17.4 27.4 17.3H27.2999C25.4999 17.3 24.6 18.6 24.6 18.9C24.6 19.1 24.7 19.5 25.1 19.9C25.5 20.3 26.2999 20.6 27.2999 20.6C27.3666 20.6 27.4 20.6 27.4 20.6C29.4 20.6 30.1 19.2 30.1 18.9Z" fill="#050505"/>
<defs>
<linearGradient id="paint0_linear_340_124851" x1="-5.30011" y1="105.3" x2="-3.40012" y2="91" gradientUnits="userSpaceOnUse">
<stop stop-color="#1B55A6"/>
<stop offset="0.3" stop-color="#4372B8"/>
<stop offset="0.8" stop-color="#4372B8"/>
<stop offset="1" stop-color="#6392CC"/>
</linearGradient>
<linearGradient id="paint1_linear_340_124851" x1="57.5" y1="89" x2="54.5" y2="76.9" gradientUnits="userSpaceOnUse">
<stop stop-color="#3156A6"/>
<stop offset="0.3" stop-color="#4D70B6"/>
<stop offset="0.8" stop-color="#4D70B6"/>
<stop offset="1" stop-color="#7592CB"/>
</linearGradient>
<linearGradient id="paint2_linear_340_124851" x1="58" y1="87.9" x2="55.2" y2="76.6" gradientUnits="userSpaceOnUse">
<stop stop-color="#3156A6"/>
<stop offset="0.3" stop-color="#4D70B6"/>
<stop offset="0.8" stop-color="#4D70B6"/>
<stop offset="1" stop-color="#7592CB"/>
</linearGradient>
<linearGradient id="paint3_linear_340_124851" x1="17.6982" y1="47.1" x2="13.7982" y2="35.3" gradientUnits="userSpaceOnUse">
<stop stop-color="#3156A6"/>
<stop offset="0.3" stop-color="#4D70B6"/>
<stop offset="0.8" stop-color="#4D70B6"/>
<stop offset="1" stop-color="#7592CB"/>
</linearGradient>
</defs>
</svg>
