<?xml version="1.0" encoding="utf-8"?>
<!-- Generator: Adobe Illustrator 23.0.3, SVG Export Plug-In . SVG Version: 6.00 Build 0)  -->
<svg version="1.1" id="Capa_1" xmlns="http://www.w3.org/2000/svg" xmlns:xlink="http://www.w3.org/1999/xlink" x="0px" y="0px"
	 viewBox="0 0 12.4 92.8" style="enable-background:new 0 0 12.4 92.8;" xml:space="preserve">
<style type="text/css">
	.st0{fill:#7359A2;}
	.st1{fill:#332F56;}
	.st2{fill:#6A4D9B;}
	.st3{fill:#FFFFFF;filter:url(#Adobe_OpacityMaskFilter);}
	.st4{mask:url(#mask0_149_64092_2_);}
	.st5{fill:none;stroke:#9A82BB;stroke-width:0.4;}
</style>
<path class="st0" d="M-55.5,19.4l66.8,1.2l1.2,71.9l-67.4,0.4L-55.5,19.4z"/>
<path class="st1" d="M-67.5,3.3L9.9,19.6l-65.3-0.2l0.6,73.5l-13.3-17.2L-67.5,3.3z"/>
<path class="st2" d="M-0.1,5.6l11.5,15l-66.8-1.2L-67.5,3.3L-0.1,5.6z"/>
<defs>
	<filter id="Adobe_OpacityMaskFilter" filterUnits="userSpaceOnUse" x="-120.5" y="-99.2" width="135.8" height="171.1">
		<feColorMatrix  type="matrix" values="1 0 0 0 0  0 1 0 0 0  0 0 1 0 0  0 0 0 1 0"/>
	</filter>
</defs>
<mask maskUnits="userSpaceOnUse" x="-120.5" y="-99.2" width="135.8" height="171.1" id="mask0_149_64092_2_">
	<path class="st3" d="M-67.5,3.3L0,5.6l11.5,15l-66.9-1.2L-67.5,3.3z"/>
</mask>
<g class="st4">
	<path class="st5" d="M14.4,71.8L-86.9-69"/>
	<path class="st5" d="M15.1,67.3L-86.2-73.6"/>
	<path class="st5" d="M14.8,61L-78-68.4"/>
	<path class="st5" d="M14.1,54.6L-78.8-74.7"/>
	<path class="st5" d="M13.3,48.4l-84-117.1"/>
	<path class="st5" d="M12.9,42L-71.4-75.1"/>
	<path class="st5" d="M12,35.6L-71.9-81.5"/>
	<path class="st5" d="M11.2,29.3l-84-116.6"/>
	<path class="st5" d="M10.8,22.9L-74.5-94.3"/>
	<path class="st5" d="M9.9,16.5L-70.8-99.1"/>
	<path class="st5" d="M-25.4,37.8l-76.9-107"/>
	<path class="st5" d="M-26.2,31.3l-68.8-94.5"/>
	<path class="st5" d="M-27,25l-68.1-93.8"/>
	<path class="st5" d="M-23.6,24.2l-62.2-86"/>
	<path class="st5" d="M-38.7,39.1l-78.6-107"/>
	<path class="st5" d="M-43.5,39.4l-76.8-107"/>
	<path class="st5" d="M-39.9,32.6l-68.8-94.5"/>
	<path class="st5" d="M-40.8,26.3l-67.5-93.8"/>
	<path class="st5" d="M-37.7,25.5l-62.1-86"/>
</g>
</svg>
