<svg width="60" height="90" viewBox="0 0 60 90" fill="none" xmlns="http://www.w3.org/2000/svg">
<path opacity="0.3" d="M50.9 86.8475C50.9 85.4475 41.7001 84.2475 30.3 84.2475C18.9 84.2475 9.59998 85.4475 9.59998 86.8475C9.59998 88.2475 18.9 89.3475 30.3 89.3475C41.7001 89.3475 50.9 88.2475 50.9 86.8475Z" fill="#050505"/>
<path d="M31.6 47.4476C31.6 47.4476 28.5 46.4475 27 43.2475C26.7 42.2475 25.4 41.7475 24.4 42.7475C22.9 44.0475 23.2 48.0476 26.2 49.4476C29.3 50.8476 32.7 47.9476 31.6 47.4476Z" fill="#050505"/>
<g style="mix-blend-mode:multiply" opacity="0.2">
<path d="M24.8001 50.0475C24.8001 50.0475 22.4001 48.4475 22.4001 46.2475C22.4001 46.2475 21.3001 49.5475 24.8001 50.0475Z" fill="#050505"/>
</g>
<path d="M51.3 56.2475C46.3 57.8475 41.5999 57.7475 37.0999 56.9475C32.4999 56.2475 33.4999 49.8475 38.0999 50.6475C42.5999 51.4475 44.5999 51.5475 49.1999 50.2475C50.1999 49.9475 52.0999 50.4475 52.6999 52.6475C53.2999 54.7475 52.2 55.9475 51.3 56.2475Z" fill="#803531" stroke="#050505" stroke-width="0.5" stroke-linecap="round" stroke-linejoin="round"/>
<path opacity="0.4" d="M51.3 56.2475C46.3 57.8475 41.5999 57.7475 37.0999 56.9475C32.4999 56.2475 33.4999 49.8475 38.0999 50.6475C39.7999 50.9475 39.3999 55.5475 41.1999 55.8475C43.8999 56.4475 48.2 55.9475 50.9 55.1475C51.9 54.8475 52.7999 53.9475 52.6999 52.6475C53.2999 54.7475 52.2 55.9475 51.3 56.2475Z" fill="#050505"/>
<g style="mix-blend-mode:multiply" opacity="0.2">
<path d="M45.5 52.0475C45.5 52.0475 45.8 53.2475 44.7 53.6475C44.7 53.6475 45.4 54.1475 45.1 55.0475C44.8 56.0475 44.1 55.9475 44.1 55.9475C44.1 55.9475 44.8 56.2475 44.8 56.7475C44.8 56.7475 45.2 57.0475 46.6 57.3475C48 57.6475 48.5 57.1475 48.5 57.1475C48.5 57.1475 48.4 58.4475 49.1 58.8475L48.5 59.1475L42.2 57.8475L43.5 51.3475L45.5 52.0475Z" fill="#050505"/>
</g>
<path d="M49.2 50.2475C50.1 50.0475 51.2 49.6475 52.4 48.2475C53.7 46.6475 55.2 45.5475 55.9 46.0475C56.9 46.8475 54.7 48.9475 55 50.6475C55.4 52.3475 55.4 54.2475 53.8 55.3475C53.1 55.7475 52.3 56.0475 51.5 56.2475" fill="#803531"/>
<path d="M49.2 50.2475C50.1 50.0475 51.2 49.6475 52.4 48.2475C53.7 46.6475 55.2 45.5475 55.9 46.0475C56.9 46.8475 54.7 48.9475 55 50.6475C55.4 52.3475 55.4 54.2475 53.8 55.3475C53.1 55.7475 52.3 56.0475 51.5 56.2475" stroke="#050505" stroke-width="0.5" stroke-linecap="round" stroke-linejoin="round"/>
<path d="M48.4 53.7475C48.8 55.2475 50.1 56.2475 51.4 55.8475C52.6 55.5475 53.3 54.0475 52.9 52.5475C52.5 51.0475 51.2 50.0475 49.9 50.3475C48.7 50.7475 48 52.2475 48.4 53.7475Z" fill="#803531"/>
<path d="M54.8 54.2475L55.3 53.5475L56.9 52.1475C57.3 51.6475 57.4 50.9475 56.9 50.5475C56.4 50.1475 55.9 50.2475 55.6 50.3475L53.7 51.3475" fill="#803531"/>
<path d="M54.8 54.2475L55.3 53.5475L56.9 52.1475C57.3 51.6475 57.4 50.9475 56.9 50.5475C56.4 50.1475 55.9 50.2475 55.6 50.3475L53.7 51.3475" stroke="#050505" stroke-width="0.5" stroke-linecap="round" stroke-linejoin="round"/>
<path d="M41.0999 82.0475C41.0999 82.0475 39 75.7475 38.4 74.0475C37.8 71.8475 35.9999 71.3475 34.4999 71.8475C33.0999 72.2475 32.2 73.4475 32.9 75.8475C33.6 78.1475 35.4 83.8475 35.4 83.8475C36.5 87.3475 42.4999 85.5475 41.0999 82.0475Z" fill="#803531" stroke="#050505" stroke-width="0.5" stroke-linecap="round" stroke-linejoin="round"/>
<path opacity="0.4" d="M36.8 83.2475C37.7 84.9475 40.8999 84.9475 39.1999 85.4475C37.6999 85.9475 35.9 85.5475 35.4 83.8475C35.4 83.8475 33.6 78.1475 32.9 75.8475C32.2 73.4475 33.0999 72.2475 34.4999 71.8475C35.9999 71.3475 37.8 71.8475 38.4 74.0475C39.2 76.4475 34.9999 76.2475 35.4999 77.7475C35.6999 78.4475 36.2 81.9475 36.8 83.2475Z" fill="#050505"/>
<path d="M34.7 86.8475C34.7 86.9475 34.8 87.0475 34.9 87.0475L44.5 87.3475C44.6 87.3475 44.7 87.2475 44.7 87.1475V86.6475C44.7 86.5475 44.6 86.4475 44.5 86.4475L34.9 86.1475C34.8 86.1475 34.7 86.2475 34.7 86.3475V86.8475Z" fill="#EE4763" stroke="#050505" stroke-width="0.5" stroke-linecap="round" stroke-linejoin="round"/>
<path d="M39.5 82.3475C39.5 82.3475 39.6 81.3475 40.3 81.2475C40.8 81.2475 41.8 81.3475 42.1 81.3475C42.7 81.3475 42.2 82.0475 42.1 82.4475C41.9 82.8475 41.8 83.5475 42.1 83.9475L43 85.3475L41.8 85.8475L39.5 83.8475V82.3475Z" fill="#EE4763" stroke="#050505" stroke-width="0.5" stroke-linecap="round" stroke-linejoin="round"/>
<path d="M34.9 86.1475C34.9 86.1475 34.9 84.4475 35 83.9475C35 83.4475 35.3 83.2475 35.8 83.2475C36.3 83.2475 36.8 83.6475 37.9 83.2475C38.9 82.8475 39 82.5475 39.5 82.3475C40 82.2475 40 82.4475 40.1 82.9475L40.3 83.9475L42.1 85.6475V86.4475L34.9 86.1475Z" fill="#F69226" stroke="#050505" stroke-width="0.5" stroke-linecap="round" stroke-linejoin="round"/>
<path d="M44.5 86.4475C44.5 86.1475 43.4 85.3475 43 85.3475C41.9 85.3475 41.1 86.3475 41.1 86.3475L44.5 86.4475Z" fill="#FEFEFE" stroke="#050505" stroke-width="0.5" stroke-linecap="round" stroke-linejoin="round"/>
<path d="M39.8 84.1475C40.3 83.5475 41.7 83.4475 42.2 83.6475" stroke="#050505" stroke-width="0.4" stroke-linecap="round" stroke-linejoin="round"/>
<path d="M40.5 84.6475C41 84.1475 42.1 84.0475 42.5 84.2475" stroke="#050505" stroke-width="0.4" stroke-linecap="round" stroke-linejoin="round"/>
<path d="M41.1 85.2475C41.6 84.6475 42.5 84.6475 42.9 84.8475" stroke="#050505" stroke-width="0.4" stroke-linecap="round" stroke-linejoin="round"/>
<path d="M37.8 84.3475C38.6 84.3475 39 84.4475 39.4 84.8475L41.1 86.3475H39.9L38.9 85.3475C38.7 85.1475 38.3334 85.0475 37.8 85.0475C37.5 85.0475 34.9 84.9475 34.9 84.9475L35 84.2475C35 84.2475 37.5 84.2475 37.8 84.3475Z" fill="#EE4763" stroke="#050505" stroke-width="0.4" stroke-linecap="round" stroke-linejoin="round"/>
<path d="M20.6 81.3475C20.6 81.3475 23.1001 75.1475 23.8001 73.4475C24.6001 71.3475 26.4001 70.9475 27.9001 71.5475C29.3001 72.1475 30 73.4475 29.1 75.6475C28.3 77.9475 26.1 83.5475 26.1 83.5475C24.8 86.9475 18.9 84.6475 20.6 81.3475Z" fill="#803531" stroke="#050505" stroke-width="0.5" stroke-linecap="round" stroke-linejoin="round"/>
<path opacity="0.4" d="M24.7 82.7475C23.7 84.4475 20.5 84.2475 22.1 84.8475C23.6 85.4475 25.4 85.1475 26.1 83.5475C26.1 83.5475 28.3 77.9475 29.1 75.6475C30 73.4475 29.3001 72.1475 27.9001 71.5475C26.4001 70.9475 24.6001 71.3475 23.8001 73.4475C22.9001 75.8475 27.0001 75.9475 26.4001 77.4475C26.1001 78.1475 25.4 81.5475 24.7 82.7475Z" fill="#050505"/>
<path d="M26.6 86.5475C26.5 86.6475 26.5 86.7475 26.4 86.7475L16.8 86.3475C16.7 86.2475 16.6 86.2475 16.6 86.1475V85.6475C16.6 85.5475 16.7 85.4475 16.8 85.4475L26.4 85.8475C26.5 85.8475 26.6 85.9475 26.6 86.0475V86.5475Z" fill="#EE4763" stroke="#050505" stroke-width="0.5" stroke-linecap="round" stroke-linejoin="round"/>
<path d="M22.1 81.7475C22.1 81.7475 22.1 80.6475 21.3 80.5475C20.9 80.5475 19.9 80.5475 19.6 80.5475C19 80.4475 19.4 81.2475 19.5 81.6475C19.7 81.9475 19.7 82.6475 19.4 83.0475L18.4 84.4475L19.6 84.9475L21.9 83.2475L22.1 81.7475Z" fill="#EE4763" stroke="#050505" stroke-width="0.5" stroke-linecap="round" stroke-linejoin="round"/>
<path d="M26.4 85.8475C26.4 85.8475 26.5 84.1475 26.5 83.6475C26.5 83.1475 26.2 82.8475 25.7 82.8475C25.2 82.8475 24.7 83.2475 23.6 82.6475C22.7 82.2475 22.6 81.9475 22.1 81.7475C21.6 81.5475 21.6 81.8475 21.4 82.2475L21.2 83.2475L19.2 84.7475V85.5475L26.4 85.8475Z" fill="#F69226" stroke="#050505" stroke-width="0.5" stroke-linecap="round" stroke-linejoin="round"/>
<path d="M16.8 85.4475C16.8 85.1475 18 84.4475 18.4 84.4475C19.5 84.4475 20.2 85.6475 20.2 85.6475L16.8 85.4475Z" fill="#FEFEFE" stroke="#050505" stroke-width="0.5" stroke-linecap="round" stroke-linejoin="round"/>
<path d="M21.6 83.4475C21.2 82.8475 19.9 82.6475 19.3 82.7475" stroke="#050505" stroke-width="0.4" stroke-linecap="round" stroke-linejoin="round"/>
<path d="M20.9 83.9475C20.5 83.3475 19.3 83.2475 18.9 83.3475" stroke="#050505" stroke-width="0.4" stroke-linecap="round" stroke-linejoin="round"/>
<path d="M20.2 84.4476C19.8 83.8476 18.9 83.7476 18.5 83.9476" stroke="#050505" stroke-width="0.4" stroke-linecap="round" stroke-linejoin="round"/>
<path d="M23.6 83.7475C22.9 83.7475 22.5 83.8475 22 84.2475L20.2 85.6475H21.4L22.5 84.7475C22.7 84.6142 23.0666 84.5475 23.6 84.5475C23.9 84.5475 26.5 84.6475 26.5 84.6475V83.9475C26.5 83.9475 23.9 83.7475 23.6 83.7475Z" fill="#EE4763" stroke="#050505" stroke-width="0.4" stroke-linecap="round" stroke-linejoin="round"/>
<path d="M41.1 68.7475L43.1 74.1475C40.2 75.9475 35.3 76.4475 30.5 77.5475L29.7 73.3475C28.8 70.8475 31.0001 68.4475 33.8001 67.2475C36.7001 66.1475 40.2 66.2475 41.1 68.7475Z" fill="#EE4763" stroke="#050505" stroke-width="0.5" stroke-linecap="round" stroke-linejoin="round"/>
<path d="M42.1 73.3475C42.1 73.3475 39.6 74.6475 31 76.5475" stroke="#A0C7E9" stroke-width="0.4" stroke-linecap="round" stroke-linejoin="round" stroke-dasharray="0.8 0.8"/>
<path opacity="0.4" d="M41.1 68.7475C42 71.4475 37.5 75.7475 36.2 76.2475C34.5 76.8475 32.3 77.1475 30.4 77.6475L29.7 73.3475C28.8 70.8475 31.0001 68.4475 33.8001 67.2475C36.7001 66.1475 40.2 66.2475 41.1 68.7475Z" fill="#050505"/>
<path d="M20 71.3475L19.5 74.8475C22.7 75.9475 27.5 76.5475 32.5 76.4475L32.7 73.6475C32.9 70.9475 30.1 68.6475 27.1 68.2475C24 67.8475 20.3 68.7475 20 71.3475Z" fill="#EE4763" stroke="#050505" stroke-width="0.5" stroke-linecap="round" stroke-linejoin="round"/>
<path d="M20.2 73.8475C20.2 73.8475 23.1 75.6475 31.9 75.4475" stroke="#A0C7E9" stroke-width="0.4" stroke-linecap="round" stroke-linejoin="round" stroke-dasharray="0.8 0.8"/>
<path opacity="0.4" d="M20 71.3475L19.5 74.8475C20.5 75.1475 21.9 75.9475 23.1 76.1475C23 72.4475 23.4 68.6475 27.1 68.2475C24 67.8475 20.3 68.7475 20 71.3475Z" fill="#050505"/>
<path d="M30.6 72.9475C39.5 72.7475 40.4 69.4475 40.9 66.8475C41.3 62.3475 40.3 54.9475 39.5 52.3475C38.3 47.9475 34.9 46.4475 29.9 46.5475C25 46.6475 20 48.3475 19.9 52.8475C19.8 56.5475 20.2 62.9475 20 67.3475C20.3 71.4475 21.8 73.2475 30.6 72.9475Z" fill="#F69226" stroke="#050505" stroke-width="0.5" stroke-linecap="round" stroke-linejoin="round"/>
<path opacity="0.4" d="M30.5999 72.9475C37.8999 72.8475 32.7999 59.4475 27.9999 58.8475C27.9999 58.8475 26.3 63.3475 25.8 64.8475C25.1 66.9475 22.7999 67.1475 23.1999 64.6475C23.9999 60.0475 26.5999 57.1475 24.5999 52.9475C22.6999 48.8475 34.9 46.4475 29.9 46.5475C25 46.6475 19.9 48.3475 19.8 52.8475C19.7 56.5475 20.6 63.4475 19.8 67.3475C20 71.3475 21.7999 73.2475 30.5999 72.9475Z" fill="#050505"/>
<path d="M36 49.7475C37.2 53.0475 36.4 55.8475 33.6 55.8475C30.9 55.9475 27.7 53.3475 26.6 50.0475C25.5 46.7475 26.7 46.6475 29.4 46.5475C32.2 46.4475 34.9 46.4475 36 49.7475Z" fill="#803531" stroke="#050505" stroke-width="0.5"/>
<path d="M39.8 59.3475C39.6 55.9475 39.3 51.8475 36.8 47.9475L35.2 49.2475C37.4 52.7475 37.6 56.5475 37.8 59.4475L39.8 59.3475Z" fill="#EE4763" stroke="#050505" stroke-width="0.5" stroke-linecap="round" stroke-linejoin="round"/>
<path d="M41.6 67.5475C41 64.1475 39.5 59.0475 39.5 59.0475C39.5 59.0475 37.2 59.6475 34.7 59.7475C32.3 59.7475 28.5 59.3475 28.5 59.3475L25.8001 67.6475C25.8001 67.6475 21.5001 67.8475 19.9001 66.8475C19.8001 68.5475 19.9 69.7475 20 71.3475C21.1 73.3475 28.0001 74.1475 31.9001 74.0475C37.1001 73.9475 42.4 73.1475 41.6 67.5475Z" fill="#EE4763"/>
<path opacity="0.4" d="M23.8001 67.6475C23.8001 67.6475 21.1001 67.4475 19.9001 66.8475C19.8001 68.5475 19.9 69.7475 20 71.3475C20.4 72.1475 21.6 72.6475 23.1 73.1475C22.6 71.6475 23.2001 68.5475 23.8001 67.6475Z" fill="#050505"/>
<path d="M20 71.3475C19.9 69.9475 19.8001 68.2475 19.9001 66.8475C21.5001 67.8475 25.8001 67.6475 25.8001 67.6475L28.5 59.3475C28.5 59.3475 32.3 59.7475 34.7 59.7475C37.2 59.6475 39.5 59.0475 39.5 59.0475C39.5 59.0475 41 64.1475 41.6 67.5475C42.4 73.1475 37.1001 73.9475 31.9001 74.0475" stroke="#050505" stroke-width="0.5" stroke-linecap="round" stroke-linejoin="round"/>
<path d="M30.1 59.3475C30 55.6475 27.5 51.7475 24.3 47.5475L22.4 49.1475C25.2 52.8475 27.5 56.2475 27.6 59.7475L30.1 59.3475Z" fill="#EE4763" stroke="#050505" stroke-width="0.5" stroke-linecap="round" stroke-linejoin="round"/>
<path d="M27.1 59.6475C27.1 60.5475 27.9 61.2475 28.7 61.2475C29.6 61.1475 30.3 60.4475 30.3 59.5475C30.3 58.6475 29.5 57.9475 28.7 58.0475C27.8 58.0475 27.1 58.7475 27.1 59.6475Z" fill="#6ECFF5" stroke="#050505" stroke-width="0.5" stroke-linecap="round" stroke-linejoin="round"/>
<path opacity="0.4" d="M27.6 60.7475C28.2 61.3475 29.3001 61.3475 29.9001 60.7475C29.9001 60.7475 28.7 60.8475 28.1 60.2475C27.4 59.6475 27.5 58.5475 27.5 58.5475C26.9 59.1475 27 60.1475 27.6 60.7475Z" fill="#050505"/>
<path d="M37.9 59.6475C38.1 60.4475 38.8 61.0475 39.4 60.9475C40.1 60.7475 40.5 59.9475 40.3 59.0475C40.1 58.2475 39.4 57.6475 38.8 57.7475C38.1 57.9475 37.7 58.7475 37.9 59.6475Z" fill="#6ECFF5" stroke="#050505" stroke-width="0.5" stroke-linecap="round" stroke-linejoin="round"/>
<path opacity="0.4" d="M38.5 60.6475C39.1 61.1475 39.8 60.9475 40.2 60.2475C40.2 60.2475 39.4001 60.5475 38.8001 60.0475C38.2001 59.5475 38 58.4475 38 58.4475C37.7 59.1475 37.9 60.1475 38.5 60.6475Z" fill="#050505"/>
<path d="M28 68.1475L27.6 68.0475L27.7 67.5475" stroke="#A0C7E9" stroke-width="0.4" stroke-linecap="round" stroke-linejoin="round"/>
<path d="M28.1 66.5475L29.2 63.0475" stroke="#A0C7E9" stroke-width="0.4" stroke-linecap="round" stroke-linejoin="round" stroke-dasharray="1.2 1.2"/>
<path d="M29.3 62.4475L29.5 62.0475H29.9" stroke="#A0C7E9" stroke-width="0.4" stroke-linecap="round" stroke-linejoin="round"/>
<path d="M30.9 62.0475L34.3 61.9475L38.4 61.8475" stroke="#A0C7E9" stroke-width="0.4" stroke-linecap="round" stroke-linejoin="round" stroke-dasharray="0.8 0.8"/>
<path d="M38.9 61.8475H39.4L39.5 62.2475" stroke="#A0C7E9" stroke-width="0.4" stroke-linecap="round" stroke-linejoin="round"/>
<path d="M39.7 63.2475L40.6 66.7475" stroke="#A0C7E9" stroke-width="0.4" stroke-linecap="round" stroke-linejoin="round" stroke-dasharray="1.2 1.2"/>
<path d="M40.7 67.2475L40.8 67.6475L40.4 67.8475" stroke="#A0C7E9" stroke-width="0.4" stroke-linecap="round" stroke-linejoin="round"/>
<path d="M39.6 68.1475L34.5 70.2475L28.4 68.2475" stroke="#A0C7E9" stroke-width="0.4" stroke-linecap="round" stroke-linejoin="round" stroke-dasharray="0.8 0.8"/>
<path opacity="0.4" d="M21.1999 49.6475C27.6999 58.8475 40.8 53.8475 38.8 50.4475C35.4 44.7475 19.3999 47.1475 21.1999 49.6475Z" fill="#050505"/>
<path d="M34.9001 45.0475C34.9001 45.0475 31.8 44.9475 29.6 42.2475C29.1 41.4475 27.8 41.3476 27.1 42.4476C26 44.1476 27.3001 47.7475 30.4001 48.2475C33.7001 48.8475 36.1001 45.1475 34.9001 45.0475Z" fill="#050505"/>
<g style="mix-blend-mode:multiply" opacity="0.2">
<path d="M29.3001 49.2475C29.3001 49.2475 26.7 48.3475 26.1 46.2475C26.1 46.2475 25.9001 49.6475 29.3001 49.2475Z" fill="#050505"/>
</g>
<path d="M12 34.6476C12.5 45.2476 20.1999 53.2476 32.1999 53.0476C47.9999 52.8475 50.3999 44.3476 50.6999 32.9476C50.8999 22.3476 41.2 14.1476 30.5 14.6476C19.8 15.0476 11.5 24.0476 12 34.6476Z" fill="#803531" stroke="#050505" stroke-width="0.5"/>
<g style="mix-blend-mode:multiply" opacity="0.2">
<path d="M30.5 14.6476C41.2 14.1476 50.8999 22.3476 50.6999 32.9476C50.6999 33.5476 50.6666 34.1476 50.5999 34.7476C49.5999 35.6476 44.5999 33.6476 45.6999 30.7476C43.7999 33.1476 39.7999 31.6476 38.1999 29.5476C36.3999 32.4476 33.1999 32.0476 32.1999 31.0476C32.9999 32.2476 30 35.9476 26.9 34.7476C29.5 38.2476 24.6999 42.4476 23.5999 41.7476C21.6999 44.6476 22.8 48.1476 24.3 49.8476C26 51.6476 30.1 52.8475 31.9 53.0476C31.7667 53.0476 31.6 53.0476 31.4 53.0476C19.9 52.8475 12.5 45.0476 12 34.6476C11.5 24.0476 19.8 15.0476 30.5 14.6476Z" fill="#050505"/>
</g>
<path d="M45.1 40.3475C45.1 40.3475 46.2 34.8476 49.4 36.9476C49.4 36.9476 49.3 40.5475 46.9 41.2475C45.8 41.5475 45.1 40.3475 45.1 40.3475Z" fill="#FEFEFE"/>
<path d="M38.9 39.8475C38.9 39.8475 38.2 34.2475 31 35.5475C31 35.5475 30.7 39.8475 34.4 40.6475C38 41.3475 38.9 39.8475 38.9 39.8475Z" fill="#FEFEFE"/>
<g style="mix-blend-mode:multiply" opacity="0.2">
<path d="M44.6 42.8475C44.6 42.8475 44.2 43.6475 42.7 43.6475C41.3 43.6475 40.2 42.7475 40.2 42.7475C40.2 42.7475 40.3 44.2475 41.5 44.7475C42.6 45.1475 43.9 44.4475 44.6 42.8475Z" fill="#050505"/>
</g>
<path d="M39.9 42.4475C39.9 42.4475 40.2 44.1475 42.6 44.1475C44.2 44.1475 44.6 42.6475 44.6 42.6475C44.6 42.6475 43.8 43.2475 42.8 43.1475C41.5 43.0475 39.9 42.4475 39.9 42.4475Z" fill="#050505"/>
<path d="M15.7 43.7475L8.09998 35.2475L8.40002 23.6475L20.6 9.04749C20.6 9.04749 35.5 8.44751 35.8 8.44751C36.1 8.54751 48.9 11.2475 48.9 11.5475C48.8 11.8475 54.3 20.2475 54.3 20.2475L54.1 28.1475L50 29.7475L43.3 22.9475L20.2 32.6475L15.7 43.7475Z" fill="#050505"/>
<path d="M18.4 43.5475C18.2 45.5475 16.4 47.0475 14.4 46.8475C12.3 46.7475 10.9 44.9475 11 42.8475C11.2 40.8475 13 39.3475 15.1 39.5475C17.1 39.7475 18.6 41.5475 18.4 43.5475Z" fill="#050505"/>
<path d="M20 38.7475C19.8 40.5475 18.2001 41.8475 16.4001 41.7475C14.6001 41.5475 13.3 39.9475 13.5 38.1475C13.6 36.3475 15.2 35.0475 17 35.1475C18.9 35.3475 20.2 36.9475 20 38.7475Z" fill="#050505"/>
<path d="M30.2 8.6475C29.8 12.0475 26.9 14.4475 23.6 14.1475C20.2 13.8475 17.8 10.8475 18.1 7.54749C18.4 4.24749 21.4 1.7475 24.7 2.0475C28 2.4475 30.5 5.3475 30.2 8.6475Z" fill="#050505"/>
<path d="M53.4001 29.4476C53.2001 31.2476 51.6001 32.5476 49.8001 32.3476C48.0001 32.1476 46.7001 30.5476 46.9001 28.7476C47.0001 26.9476 48.6001 25.6476 50.4001 25.8476C52.3001 26.0476 53.6001 27.6476 53.4001 29.4476Z" fill="#050505"/>
<path d="M31.0999 28.5476C30.8999 30.5476 29.1999 31.9476 27.1999 31.7476C25.1999 31.6476 23.8 29.8476 24 27.8476C24.2 25.9476 25.9 24.4476 27.9 24.6476C29.9 24.8476 31.2999 26.5476 31.0999 28.5476Z" fill="#050505"/>
<path d="M38.4001 24.5476C38.2001 27.1476 35.9 29.0476 33.2 28.8476C30.6 28.5476 28.7001 26.2476 28.9001 23.6476C29.2001 21.0476 31.5 19.1476 34.1 19.3476C36.8 19.6476 38.7001 21.9476 38.4001 24.5476Z" fill="#050505"/>
<path d="M50.7 32.2475C52.7 32.4475 54.2 34.2475 54 36.2475C53.8 38.2475 52 39.7475 50 39.5475C50 39.5475 50.6 36.4475 50.7 32.2475Z" fill="#050505"/>
<path d="M54.2 12.2475C53.9 15.5475 51 17.9475 47.7 17.6475C44.4 17.3475 42.0001 14.4475 42.3001 11.1475C42.6001 7.84748 45.5001 5.44749 48.8001 5.74749C52.1001 6.04749 54.5 8.94749 54.2 12.2475Z" fill="#050505"/>
<path d="M15.5001 39.4475C15.2001 42.3475 12.6 44.5475 9.70001 44.2475C6.70001 43.9475 4.60009 41.3475 4.90009 38.4475C5.10009 35.4475 7.70001 33.3475 10.7 33.6475C13.6 33.9475 15.7001 36.5475 15.5001 39.4475Z" fill="#050505"/>
<path d="M25.6 32.2476C25.3 35.1476 22.7001 37.2475 19.8001 37.0475C16.9001 36.7475 14.7001 34.1476 15.0001 31.2476C15.3001 28.2476 17.9001 26.1476 20.8001 26.4476C23.7001 26.6476 25.9 29.2476 25.6 32.2476Z" fill="#050505"/>
<path d="M21.1 12.2475C20.8 15.2475 18.2001 17.3475 15.3001 17.0475C12.4001 16.8475 10.2001 14.2475 10.5001 11.2475C10.8001 8.34748 13.4001 6.2475 16.3001 6.4475C19.2001 6.7475 21.4 9.34748 21.1 12.2475Z" fill="#050505"/>
<path d="M59.1 28.5475C58.8 31.4475 56.2001 33.6475 53.3001 33.3475C50.4001 33.0475 48.2001 30.4475 48.5001 27.5475C48.8001 24.6475 51.4001 22.4475 54.3001 22.7475C57.2001 23.0475 59.4 25.6475 59.1 28.5475Z" fill="#050505"/>
<path d="M13.5 30.2475C13.2 33.8475 9.90006 36.5475 6.30006 36.1475C2.70006 35.8475 3.91901e-05 32.6475 0.400039 28.9475C0.700039 25.3475 3.89999 22.6475 7.59999 23.0475C11.2 23.3475 13.9 26.6475 13.5 30.2475Z" fill="#050505"/>
<path d="M50.0999 23.3476C49.6999 26.9476 46.5 29.6476 42.9 29.2476C39.3 28.9476 36.6 25.6475 36.9 22.0475C37.3 18.4475 40.4999 15.7475 44.0999 16.0475C47.7999 16.4475 50.3999 19.6476 50.0999 23.3476Z" fill="#050505"/>
<path d="M58.8001 19.5475C58.5001 23.1475 55.3 25.8475 51.6 25.5475C48 25.1475 45.3 21.9475 45.7 18.2475C46 14.6475 49.2 11.9475 52.9 12.3475C56.5 12.6475 59.2001 15.9475 58.8001 19.5475Z" fill="#050505"/>
<path d="M47.3 9.94753C46.8 14.8475 41.8999 18.4475 36.1999 17.8475C30.4999 17.3475 26.2999 12.9475 26.6999 8.0475C27.1999 3.0475 32.2 -0.452496 37.9 0.047504C43.6 0.647504 47.8 5.04753 47.3 9.94753Z" fill="#050505"/>
<path d="M15.8 19.2475C15.5 22.7475 12.4 25.2475 8.99998 24.9475C5.49998 24.6475 3.00003 21.5475 3.30003 18.1475C3.60003 14.6475 6.69995 12.1475 10.1 12.4475C13.6 12.7475 16.1 15.8475 15.8 19.2475Z" fill="#050505"/>
<path d="M13.3 37.2475C14.3 38.1475 15.8 37.9475 16.7 36.9475C17.6 35.9475 17.4 34.4475 16.4 33.6475C15.4 32.7475 13.9 32.8475 13 33.8475" stroke="#38170E" stroke-width="0.5" stroke-linecap="round" stroke-linejoin="round"/>
<path d="M14.1999 18.7476C13.9999 16.5476 12 14.7476 9.80004 14.9476C7.50004 15.1476 5.79999 17.0476 5.99999 19.3476" stroke="#38170E" stroke-width="0.5" stroke-linecap="round" stroke-linejoin="round"/>
<path d="M36.3001 19.4475C35.5001 16.8475 32.7 15.3475 30.1 16.1475C27.4 16.8475 25.9 19.6475 26.7 22.3475" stroke="#38170E" stroke-width="0.5" stroke-linecap="round" stroke-linejoin="round"/>
<path d="M22.3 16.8475C22.2 15.3475 20.9 14.2475 19.5 14.3475C18 14.4475 16.9 15.7475 17 17.2475" stroke="#38170E" stroke-width="0.5" stroke-linecap="round" stroke-linejoin="round"/>
<path d="M56.9 30.9475C57.9 28.7475 56.9 26.0475 54.7 25.0475" stroke="#38170E" stroke-width="0.5" stroke-linecap="round" stroke-linejoin="round"/>
<path d="M16.3 8.54749C14.4 8.64749 12.9 10.3475 13.1 12.2475" stroke="#38170E" stroke-width="0.5" stroke-linecap="round" stroke-linejoin="round"/>
<path d="M44.4 18.0475C44.3 14.4475 41.2 11.6475 37.6 11.7475" stroke="#38170E" stroke-width="0.5" stroke-linecap="round" stroke-linejoin="round"/>
<path d="M20.2 35.2475C22.1 35.2475 23.7 33.7475 23.7 31.7475" stroke="#38170E" stroke-width="0.7" stroke-linecap="round" stroke-linejoin="round"/>
<path d="M49 30.7475C49.8 31.5475 51 31.5475 51.8 30.7475C52.6 29.9475 52.6 28.6475 51.8 27.8475" stroke="#38170E" stroke-width="0.5" stroke-linecap="round" stroke-linejoin="round"/>
<path d="M18.4001 30.0475C20.9001 29.8475 22.8 27.6475 22.6 25.1475C22.4 22.7475 20.3001 20.8475 17.8001 20.9475C15.3001 21.1475 13.4 23.3475 13.6 25.8475" stroke="#38170E" stroke-width="0.5" stroke-linecap="round" stroke-linejoin="round"/>
<path d="M12.5 43.1475C12.2 44.2475 12.8 45.4475 14 45.6475C15.1 45.9475 16.2 45.2475 16.5 44.1475" stroke="#38170E" stroke-width="0.5" stroke-linecap="round" stroke-linejoin="round"/>
<path d="M8.90005 35.1475C6.90005 36.0475 6.10002 38.4475 7.00002 40.3475C7.90002 42.2475 10.2 43.1475 12.2 42.2475" stroke="#38170E" stroke-width="0.7" stroke-linecap="round" stroke-linejoin="round"/>
<path d="M51.5 12.2476C52.2 10.5476 51.5 8.64756 49.8 7.84756C49 7.54756 48.1 7.54756 47.3 7.84756" stroke="#38170E" stroke-width="0.7" stroke-linecap="round" stroke-linejoin="round"/>
<path d="M24.1 14.0475C26.7 14.3475 29 12.5475 29.3 10.0475C29.6 7.44752 27.8 5.14754 25.2 4.84754C22.6 4.44754 20.3 6.34754 20 8.84754" stroke="#38170E" stroke-width="0.7" stroke-linecap="round" stroke-linejoin="round"/>
<path d="M29.9 5.44753C31.4 3.94753 33.6 2.84752 36.1 2.74752C40.9 2.34752 44.6 5.54753 44.9 9.84753" stroke="#38170E" stroke-width="0.7" stroke-linecap="round" stroke-linejoin="round"/>
<path d="M27.1999 30.4476C28.6999 30.3476 29.7999 29.1475 29.6999 27.6475C29.5999 26.1475 28.3 25.0475 26.9 25.1475C25.4 25.3475 24.3 26.5475 24.4 28.0475" stroke="#38170E" stroke-width="0.7" stroke-linecap="round" stroke-linejoin="round"/>
<path d="M51.7 37.9475C52.9 37.0475 53.1 35.3475 52.3 34.2475" stroke="#38170E" stroke-width="0.7" stroke-linecap="round" stroke-linejoin="round"/>
<path d="M52.8 24.1475C55.7 23.9475 57.8999 21.4475 57.6999 18.5475C57.3999 15.6475 54.9 13.4475 52 13.6475C49.1 13.8475 46.9999 16.3475 47.1999 19.2475" stroke="#38170E" stroke-width="0.7" stroke-linecap="round" stroke-linejoin="round"/>
<path d="M39.4001 19.2476C37.7001 21.5476 38.1001 24.8476 40.4001 26.6476C42.7001 28.4476 46.0001 28.0476 47.8001 25.7476" stroke="#38170E" stroke-width="0.7" stroke-linecap="round" stroke-linejoin="round"/>
<path d="M10.4001 25.8475C8.30007 24.3475 5.3001 24.8475 3.8001 27.0475C2.3001 29.1475 2.80007 32.1475 4.90007 33.6475" stroke="#38170E" stroke-width="0.7" stroke-linecap="round" stroke-linejoin="round"/>
<path d="M48.0999 39.1475C47.6999 40.2475 46.9 40.9475 46.3 40.7475C45.7 40.5475 45.5 39.4475 45.9 38.3475C46.3 37.1475 47.0999 36.4475 47.6999 36.7475C48.3999 36.9475 48.4999 38.0475 48.0999 39.1475Z" fill="#855226"/>
<path d="M47.3 38.8475C47.2 39.2475 47 39.5475 46.7 39.5475C46.3 39.5475 46.1 39.2475 46.1 38.9475C46.1 38.5475 46.4 38.1475 46.7 38.1475C47 38.1475 47.3 38.4475 47.3 38.8475Z" fill="#050505"/>
<path d="M47.8001 37.9475C47.8001 38.1475 47.7 38.3475 47.6 38.3475C47.5 38.3475 47.4 38.1475 47.5 37.8475C47.5 37.6475 47.6 37.4475 47.7 37.4475C47.8 37.4475 47.9001 37.6475 47.8001 37.9475Z" fill="#FEFEFE"/>
<path d="M32.1999 37.3475C31.9999 38.6475 32.7 39.7475 33.9 39.9475C35.1 40.1475 36.3 39.3475 36.5 38.0475C36.7 36.8475 35.8999 35.6475 34.6999 35.4475C33.4999 35.2475 32.3999 36.0475 32.1999 37.3475Z" fill="#855226"/>
<path d="M33.6 37.6475C33.6 38.0475 33.9 38.3475 34.2 38.4475C34.6 38.4475 34.9 38.1475 35 37.7475C35 37.3475 34.7 36.9475 34.3 36.9475C34 36.9475 33.6 37.2475 33.6 37.6475Z" fill="#050505"/>
<path d="M34.9 36.9475C34.9 37.1475 35.1 37.3475 35.3 37.3475C35.5 37.4475 35.7 37.2475 35.7 36.9475C35.8 36.7475 35.6 36.5475 35.4 36.5475C35.2 36.5475 35 36.6475 34.9 36.9475Z" fill="#FEFEFE"/>
<path d="M50.3 34.5475L49.3 36.8475C49.3 36.8475 46.2 35.2475 45.1 40.3475" stroke="#050505" stroke-width="0.5" stroke-linecap="round" stroke-linejoin="round"/>
<path d="M49 35.0475L48.5 36.6475" stroke="#050505" stroke-width="0.5" stroke-linecap="round" stroke-linejoin="bevel"/>
<path d="M29.4 33.5475L31.1 35.4475C31.1 35.4475 37.9 34.6475 38.9 39.8475" stroke="#050505" stroke-width="0.8" stroke-linecap="round" stroke-linejoin="round"/>
<path d="M31.4 33.5475L32.3 35.3475" stroke="#050505" stroke-width="0.8" stroke-linecap="round" stroke-linejoin="bevel"/>
<path d="M46.6 32.9475C46.6 32.9475 48.7 31.1475 49.5 33.4475" stroke="#050505" stroke-width="0.6" stroke-linecap="round"/>
<path d="M38.8 32.2475C38.8 32.2475 36.3 29.5475 33.2 32.0475" stroke="#050505" stroke-width="0.9" stroke-linecap="round"/>
<path d="M39.3 47.6475C39.3 47.6475 35.9 48.2475 32.7 46.6475" stroke="#050505" stroke-width="0.5" stroke-linecap="round" stroke-linejoin="bevel"/>
<path d="M11.6 44.0475C12.9 49.2475 15.5 53.1475 18.6 56.7475C21.7 60.3475 26.7 55.9475 23.6 52.4475C20.5 48.9475 19.3 47.2475 18 42.6475C17.7 41.6475 16.2 40.2475 14 40.8475C11.9 41.4475 11.4 43.0475 11.6 44.0475Z" fill="#803531" stroke="#050505" stroke-width="0.6" stroke-linecap="round" stroke-linejoin="round"/>
<path opacity="0.4" d="M11.6 44.0475C12.9 49.2475 15.5 53.1475 18.6 56.7475C21.7 60.3475 26.7 55.9475 23.6 52.4475C22.4 51.1475 18.6001 53.9475 17.3001 52.5475C15.4001 50.4475 13.6001 46.5475 12.8001 43.7475C12.5001 42.7475 12.8 41.5475 14 40.8475C11.9 41.4475 11.4 43.0475 11.6 44.0475Z" fill="#050505"/>
<g style="mix-blend-mode:multiply" opacity="0.2">
<path d="M18.4 46.8475C18.4 46.8475 17.2 47.2475 17.4 48.3475C17.4 48.3475 16.6 47.9475 15.9 48.7475C15.3 49.5475 15.8 50.0475 15.8 50.0475C15.8 50.0475 15.1 49.6475 14.6 49.8475C14.6 49.8475 14.2 49.6475 13.2 48.6475C12.2 47.5475 12.4 46.9475 12.4 46.9475C12.4 46.9475 11.3 47.7475 10.6 47.3475L10.7 47.9475L15.1 52.7475L20.1 48.1475L18.4 46.8475Z" fill="#050505"/>
</g>
<path d="M11.7 39.0475C10.3 40.6475 10.4 43.0475 11.9 44.3475C13.4 45.5475 15.7 45.2475 17.1 43.6475C18.5 41.9475 18.4 39.5475 16.9 38.3475C15.4 37.0475 13.1 37.3475 11.7 39.0475Z" fill="#803531" stroke="#050505" stroke-width="0.6" stroke-linecap="round"/>
<path d="M16.9 40.3475C16.3 40.3475 15.9 40.8475 15.9 41.4475C15.9 42.0475 16.4 42.4475 17 42.4475H18.2C18.8 42.4475 19.3 41.9475 19.2 41.3475C19.2 40.7475 18.7 40.3475 18.1 40.3475H16.9Z" fill="#803531" stroke="#050505" stroke-width="0.6" stroke-linecap="round"/>
<g style="mix-blend-mode:multiply" opacity="0.2">
<path d="M11.4 40.6475C11.4 40.6475 11.2 42.3475 12.6 43.2475C14.1 44.1475 15.5 42.5475 15.5 42.5475C15.5 42.5475 14.9 41.7475 15.6 41.1475C15.6 41.1475 15.7 42.6475 17.1 42.4475L17.3 43.4475C17.3 43.4475 15 46.2475 12.4 44.6475C9.80002 42.9475 11.1 40.9475 11.4 40.6475Z" fill="#050505"/>
</g>
</svg>
