<svg width="119" height="45" viewBox="0 0 119 45" fill="none" xmlns="http://www.w3.org/2000/svg">
<path fill-rule="evenodd" clip-rule="evenodd" d="M25.7 4.04753C26.7 4.04753 27.8 3.94753 27.6 7.14753C27.4 10.0475 26.4 10.2475 24.9 10.3475L24.4 10.4476L24.8 4.14753L25.7 4.04753ZM25.6 4.74754L25.2 9.64753C26.6 9.54753 26.6 8.24753 26.7 7.14753C26.7 6.24753 26.9 4.54754 25.6 4.74754Z" fill="#FEFEFE"/>
<path d="M28.8 10.0475H28L28.4 3.84753L29.2 3.74753L28.8 10.0475ZM28.8 3.54752L28.4 3.34753L29.1 2.04752L29.7 2.44754L28.8 3.54752Z" fill="#FEFEFE"/>
<path fill-rule="evenodd" clip-rule="evenodd" d="M31.5 3.54752L32.4 9.64752L31.6 9.74753L31.5 8.54752L30.2 8.64752L29.9 9.94754H29.1L30.9 3.64752L31.5 3.54752ZM31.2 7.04752L31.1 4.74753L30.4 7.94754L31.3 7.84753L31.2 7.04752Z" fill="#FEFEFE"/>
<path d="M35.6 3.24753L36.1 7.64752H36.2V7.34753L36.5 5.84753L37.3 3.04752L38 2.94754L38.1 9.14752L37.3 9.24753V6.94754L37.4 5.74753V4.94754L37.2 5.84753L36.3 9.34753H35.8L35.3 5.14752H35.2L34.7 9.44754L33.9 9.54752L34.9 3.24753H35.6Z" fill="#FEFEFE"/>
<path d="M39.9 2.84753L39.6 7.34753C39.5 8.14753 39.7 8.34753 40.1 8.34753C40.6 8.24753 40.7 7.84753 40.7 7.34753L41 2.74753L41.9 2.64752L41.6 7.04752C41.5 7.84752 41.4 8.94752 40 9.04752C38.7 9.24752 38.7001 8.34752 38.8001 7.14752L39 2.84753H39.9Z" fill="#FEFEFE"/>
<path d="M43.2 4.34753V6.44754L43.1 8.74753L42.2 8.84753L42.7 2.54752L43.4 2.44754L44.6 7.14752V7.04752L44.5 4.64752L44.7 2.34753H45.5L45.1 8.54752L44.3 8.64752L43.2 3.94754V4.34753Z" fill="#FEFEFE"/>
<path fill-rule="evenodd" clip-rule="evenodd" d="M47.2 2.14752C48.2 2.04752 49.3 2.04752 49.1 5.14752C48.9 8.04752 47.9 8.24754 46.5 8.44754H45.9L46.3 2.24752L47.2 2.14752ZM47.1 2.84753L46.7 7.64752C48.1 7.64752 48.1 6.34752 48.2 5.24752C48.2 4.24752 48.5 2.64753 47.1 2.84753Z" fill="#FEFEFE"/>
<path d="M50.3 8.04752L49.5 8.14752L49.9 1.94754L50.7 1.84753L50.3 8.04752Z" fill="#FEFEFE"/>
<path fill-rule="evenodd" clip-rule="evenodd" d="M53 1.64752L53.9 7.74753L53.1 7.84753L53 6.64752L51.7 6.74753L51.4 7.94754L50.6 8.04752L52.4 1.64752H53ZM52.7 5.14752L52.6 2.94754L51.9 6.14752L52.9 6.04752L52.7 5.14752Z" fill="#FEFEFE"/>
<path d="M55.5 1.34753L55.1 6.94754L56.5 6.84753V7.54752L54.3 7.74753L54.7 1.44754L55.5 1.34753Z" fill="#FEFEFE"/>
<path fill-rule="evenodd" clip-rule="evenodd" d="M59.6 1.04751C60.5 0.947512 61.6 0.947512 61.4 4.04751C61.2 6.94751 60.3 7.14753 58.8 7.34753H58.3L58.7 1.14752L59.6 1.04751ZM59.4 1.74752L59.1 6.54751C60.4 6.44751 60.5 5.14752 60.6 4.14752C60.6 3.14752 60.8 1.54752 59.4 1.74752Z" fill="#FEFEFE"/>
<path d="M64.5 0.547516L64.4 1.34753L63 1.44754L62.9 3.44754L64.1 3.24753V4.04752L62.9 4.14752L62.7 6.24753L64.1 6.14752V6.84753L61.9 7.04752L62.3 0.747528L64.5 0.547516Z" fill="#FEFEFE"/>
<path d="M67.2 0.347534L66.8 5.84753L68.2 5.74753L68.1 6.44754L66 6.64752L66.4 0.44754L67.2 0.347534Z" fill="#FEFEFE"/>
<path fill-rule="evenodd" clip-rule="evenodd" d="M70.4 0.0475159L71.3 6.14752L70.5 6.24753L70.3 5.04752L69.1 5.14752L68.8 6.44754H68L69.7 0.147522L70.4 0.0475159ZM70.2 3.44754L70 1.24753L69.3 4.44754L70.3 4.34753L70.2 3.44754Z" fill="#FEFEFE"/>
<path d="M118.3 33.1476L0.699951 43.5475L0.800049 38.7475L117.8 28.4475L118.3 33.1476Z" fill="#EC5D23"/>
<path fill-rule="evenodd" clip-rule="evenodd" d="M7.5 36.7475L10 44.1476L7.5 44.3475L7.30005 43.5475L4.80005 43.8475L4.5 44.6476L2.09998 44.8475L5.19995 36.9475L7.5 36.7475ZM5.69995 41.6476L6.69995 41.5475L6.19995 39.9475L5.69995 41.6476Z" fill="#FEFEFE"/>
<path d="M12.9 43.8475L10.7 44.0475L11 36.4475L16.5 35.9475L16.4 38.0475L13.2 38.3475V39.4475L16.1 39.1476L16 41.1476L13.1 41.4475L12.9 43.8475Z" fill="#FEFEFE"/>
<path fill-rule="evenodd" clip-rule="evenodd" d="M23.9 42.8475L21.1 43.1476L19.7 41.3475H19.4V43.2475L17.1 43.5475L17.5 35.8475L20.6 35.5475C20.7 35.5475 20.8 35.5475 21.2 35.5475C21.6 35.6475 21.9 35.6475 22.4 35.9475C22.8 36.1475 23.1 36.5476 23.3 37.1476C23.4334 37.4142 23.5 37.7476 23.5 38.1476C23.4333 39.2142 22.9666 40.0476 22.1 40.6476L23.9 42.8475ZM19.6 37.7475V39.1476L20.4 39.0475C20.8 39.0475 21.0333 38.8142 21.1 38.3475C21.1 37.8475 20.9 37.6476 20.5 37.6476L19.6 37.7475Z" fill="#FEFEFE"/>
<path fill-rule="evenodd" clip-rule="evenodd" d="M28.3 34.7475C29.4334 34.6142 30.3666 34.9142 31.1 35.6476C31.8333 36.3142 32.1666 37.2142 32.1 38.3475C32.0333 39.4808 31.6 40.4475 30.8 41.2475C30 42.1142 29.0334 42.5809 27.9 42.6476C26.7667 42.7809 25.8333 42.4809 25.1 41.7475C24.4333 41.0809 24.1 40.1809 24.1 39.0475C24.1666 37.9142 24.6 36.9476 25.4 36.1476C26.2 35.2809 27.1667 34.8142 28.3 34.7475ZM28 40.5475C28.4667 40.4809 28.8666 40.2475 29.2 39.8475C29.5333 39.5142 29.7334 39.0809 29.8 38.5475C29.8 38.0142 29.6334 37.6142 29.3 37.3475C29.0334 37.0142 28.6666 36.8475 28.2 36.8475C27.7333 36.9142 27.3333 37.1475 27 37.5475C26.6667 37.8809 26.5 38.3142 26.5 38.8475C26.4333 39.3808 26.5667 39.7809 26.9 40.0475C27.2334 40.3809 27.6 40.5475 28 40.5475Z" fill="#FEFEFE"/>
<path fill-rule="evenodd" clip-rule="evenodd" d="M33 42.0475L33.4 34.4475L36.4 34.1476C37.5334 34.0142 38.4333 34.2809 39.1 34.9475C39.7666 35.6142 40.0667 36.5142 40 37.6476C39.9333 38.7142 39.5334 39.6475 38.8 40.4475C38.0667 41.2475 37.1333 41.6809 36 41.7475L33 42.0475ZM35.5 36.3475L35.4 39.7475L36.1 39.6476C36.5666 39.6476 36.9333 39.4475 37.2 39.0475C37.4666 38.7142 37.6333 38.3142 37.7 37.8475C37.7 37.3808 37.5667 37.0142 37.3 36.7475C37.1 36.4142 36.7667 36.2808 36.3 36.3475H35.5Z" fill="#FEFEFE"/>
<path d="M43.3 35.6476L43.2 36.3475L46.2 36.1476L46.1 38.0475L43.1 38.3475V39.0475L46.3 38.7475L46.2 40.8475L40.7 41.3475L41.1 33.7475L46.6 33.2475L46.5 35.3475L43.3 35.6476Z" fill="#FEFEFE"/>
<path d="M48.6 37.8475C49.1333 38.3808 49.7334 38.6142 50.4 38.5475C50.8 38.4809 51.0333 38.3476 51.1 38.1476C51.1 38.0142 50.9666 37.9142 50.7 37.8475C50.4333 37.7808 50.1334 37.6809 49.8 37.5475C49.4667 37.4809 49.1334 37.3476 48.8 37.1476C48.4 37.0142 48.1 36.7809 47.9 36.4476C47.6334 36.1809 47.5333 35.8142 47.6 35.3475C47.6 34.8808 47.8 34.3808 48.2 33.8475C48.6 33.2475 49.5 32.8475 50.5 32.7475C51.3 32.6475 52.1 32.8476 52.5 33.1476C52.9 33.3476 53.3 33.7476 53.4 33.9476L53.5 34.0475L52 35.4476C51.7333 35.1142 51.4666 34.9142 51.2 34.8475C51 34.7808 50.7667 34.7808 50.5 34.8475C50.1 34.8475 49.9 35.0476 49.9 35.1476C49.9 35.3476 50.3 35.5476 50.8 35.6476C51.0667 35.7142 51.3666 35.8142 51.7 35.9476C51.9666 36.0809 52.2333 36.2142 52.5 36.3475C52.7667 36.4808 52.9666 36.6809 53.1 36.9476C53.3 37.2809 53.3667 37.6142 53.3 37.9476C53.3 38.4476 53.1 39.0475 52.6 39.5475C52.2 40.1475 51.3 40.5476 50.2 40.6476C49.3333 40.7142 48.6333 40.5809 48.1 40.2475C47.5666 39.9142 47.2 39.5476 47 39.1476L48.6 37.8475Z" fill="#FEFEFE"/>
<path d="M62.2 36.2475C61.9333 37.2475 61.4333 38.0808 60.7 38.7475C59.9 39.4808 59 39.8809 58 39.9475C56.8667 40.0809 55.9667 39.7808 55.3 39.0475C54.5667 38.3808 54.2 37.4808 54.2 36.3475C54.2666 35.2142 54.7 34.2475 55.5 33.4475C56.3 32.5809 57.2667 32.1142 58.4 32.0475C59.4 31.9142 60.2667 32.1475 61 32.7475C61.6667 33.2808 62.0666 34.0475 62.2 35.0475L59.8 35.2475C59.6667 34.9142 59.4666 34.6475 59.2 34.4475C58.9333 34.2475 58.6334 34.1475 58.3 34.1475C57.8334 34.2142 57.4333 34.4142 57.1 34.7475C56.7666 35.1475 56.6 35.6142 56.6 36.1475C56.6 36.6142 56.7333 37.0142 57 37.3475C57.3333 37.6808 57.7 37.8142 58.1 37.7475C58.4333 37.7475 58.7666 37.6142 59.1 37.3475C59.3666 37.1475 59.5666 36.8475 59.7 36.4475L62.2 36.2475Z" fill="#FEFEFE"/>
<path d="M65.4 33.6476L65.3 34.3475L68.3 34.1476L68.2 36.0475L65.2 36.3475V37.0475L68.4 36.7475L68.3 38.8475L62.8 39.3475L63.2 31.7475L68.7 31.2475L68.6 33.3475L65.4 33.6476Z" fill="#FEFEFE"/>
<path d="M76.5 30.5475L76.1 38.1476L74.1 38.3475L71.8 35.2475L71.6 38.5475L69.4 38.7475L69.8 31.1475L71.8 30.9475L74.1 34.0475L74.2 30.7475L76.5 30.5475Z" fill="#FEFEFE"/>
<path fill-rule="evenodd" clip-rule="evenodd" d="M77.3 38.0475L77.7 30.3475L80.7 30.1475C81.8333 30.0142 82.7334 30.2809 83.4 30.9475C84.0667 31.6142 84.3667 32.5142 84.3 33.6476C84.2334 34.7142 83.8333 35.6475 83.1 36.4475C82.3666 37.2475 81.4334 37.6809 80.3 37.7475L77.3 38.0475ZM79.9 32.3475L79.7 35.7475L80.5 35.6476C80.9 35.5809 81.2333 35.3809 81.5 35.0475C81.7667 34.7142 81.9333 34.3142 82 33.8475C82 33.3808 81.9 33.0142 81.7 32.7475C81.4333 32.4142 81.1 32.2809 80.7 32.3475H79.9Z" fill="#FEFEFE"/>
<path d="M85.1 37.3475L85.5 29.6475L87.7 29.4475L87.3 37.1476L85.1 37.3475Z" fill="#FEFEFE"/>
<path d="M91.1 31.3475L91 32.0475L94 31.8475L93.9 33.7475L90.9 34.0475V34.6476L94.1 34.3475L94 36.5475L88.5 37.0475L88.9 29.3475L94.4 28.8475L94.3 31.0475L91.1 31.3475Z" fill="#FEFEFE"/>
<path d="M102.2 28.1475L101.8 35.8475L99.8 36.0475L97.5 32.9475L97.3 36.2475L95.1 36.4475L95.5 28.7475L97.5 28.6475L99.8 31.7475L99.9 28.3475L102.2 28.1475Z" fill="#FEFEFE"/>
<path d="M105.1 30.0475L103 30.2475L103.1 28.1475L109.5 27.5475L109.4 29.6475L107.3 29.8475L107.1 35.3475L104.8 35.5475L105.1 30.0475Z" fill="#FEFEFE"/>
<path d="M112.6 29.4475L112.5 30.1475L115.5 29.8475L115.4 31.8475L112.4 32.1475V32.7475L115.6 32.4475L115.5 34.6476L110 35.1476L110.4 27.4475L115.9 26.9475L115.8 29.1475L112.6 29.4475Z" fill="#FEFEFE"/>
<path d="M74.8 15.0475L20.6 19.3475L20.1 14.6475L74.3 10.3475L74.8 15.0475Z" fill="#EC5D23"/>
<path d="M30.3001 17.3475C30.0334 18.3475 29.5334 19.1809 28.8001 19.8475C28.0001 20.5809 27.1 20.9808 26.1 21.0475C25.0333 21.1142 24.1334 20.8142 23.4001 20.1475C22.6667 19.4142 22.3334 18.5142 22.4001 17.4475C22.4667 16.3142 22.9 15.3142 23.7 14.4475C24.5 13.6475 25.4667 13.2142 26.6 13.1475C27.6 13.0142 28.4333 13.2475 29.1 13.8475C29.8333 14.3809 30.2667 15.1475 30.4001 16.1475L27.9001 16.3475C27.8334 16.0142 27.6667 15.7475 27.4001 15.5475C27.1334 15.3475 26.8334 15.2475 26.5 15.2475C26.0334 15.3142 25.6334 15.5142 25.3001 15.8475C24.9667 16.2475 24.7667 16.7142 24.7 17.2475C24.7 17.7142 24.8333 18.1142 25.1 18.4475C25.4333 18.7809 25.8334 18.9142 26.3001 18.8475C26.6334 18.8475 26.9333 18.7142 27.2 18.4475C27.4667 18.2475 27.7001 17.9475 27.9001 17.5475L30.3001 17.3475Z" fill="#FEFEFE"/>
<path d="M34.1 20.3475C34 20.3475 33.9 20.3475 33.4 20.3475C33 20.3475 32.6 20.2475 32.2 19.9475C31.7 19.6475 31.4 19.3475 31.2 18.6475C31.0666 18.3142 31 17.9142 31 17.4475L31.3 12.8475L33.6 12.6475L33.3 17.3475C33.3 17.3475 33.3 17.4475 33.4 17.6475C33.4 17.7809 33.4333 17.8809 33.5 17.9475C33.6 18.0475 33.9 18.2475 34.2 18.2475C34.4666 18.1809 34.6667 18.0809 34.8 17.9475C35 17.7475 35.1 17.5809 35.1 17.4475L35.2 17.1475L35.4 12.4475L37.7 12.2475L37.5 16.9475C37.4 17.7475 37.1 18.5475 36.7 19.0475C36.5 19.2475 36.3 19.4475 36.1 19.6475C35.3 20.1475 34.6 20.2475 34.2 20.3475H34.1Z" fill="#FEFEFE"/>
<path d="M41.1 12.0475L40.8 17.5475L44 17.2475L43.9 19.3475L38.4 19.8475L38.8 12.1475L41.1 12.0475Z" fill="#FEFEFE"/>
<path d="M45.4 13.7475L43.3 13.9475L43.4 11.8475L49.9 11.2475L49.8 13.4475L47.7 13.5475L47.4 19.0475L45.1 19.2475L45.4 13.7475Z" fill="#FEFEFE"/>
<path d="M53.5 18.7475C53.4 18.7475 53.3 18.7475 52.8 18.7475C52.4 18.6475 52 18.5475 51.6 18.3475C51.1 18.0475 50.8 17.6475 50.6 16.9475C50.4666 16.6142 50.4 16.2475 50.4 15.8475L50.7 11.1475L52.9 10.9475L52.7 15.6475C52.7 15.7475 52.7 15.7475 52.7 16.0475C52.7666 16.1142 52.8334 16.1809 52.9 16.2475C53 16.4475 53.2 16.5475 53.6 16.5475C53.8666 16.5475 54.0666 16.4475 54.2 16.2475C54.4 16.1142 54.5 15.9475 54.5 15.7475L54.6 15.5475L54.8 10.8475L57.1 10.6475L56.8 15.2475C56.8 16.1475 56.5 16.9475 56.1 17.3475C55.9 17.6142 55.6667 17.8142 55.4 17.9475C54.7 18.4475 54 18.6475 53.6 18.6475L53.5 18.7475Z" fill="#FEFEFE"/>
<path fill-rule="evenodd" clip-rule="evenodd" d="M64.6 17.6475L61.8 17.8475L60.4 16.0475H60.2L60.1 18.0475L57.8 18.2475L58.2 10.5475L61.3 10.2475C61.4 10.2475 61.5 10.2475 61.9 10.3475C62.3 10.3475 62.7 10.4475 63.1 10.6475C63.6 10.9475 63.9 11.2475 64.1 11.8475C64.1666 12.1809 64.2 12.5475 64.2 12.9475C64.1333 14.0142 63.6667 14.8142 62.8 15.3475L64.6 17.6475ZM60.4 12.5475L60.3 13.9475H61.2C61.6 13.8809 61.8 13.6142 61.8 13.1475C61.8 12.6475 61.6 12.4475 61.3 12.4475L60.4 12.5475Z" fill="#FEFEFE"/>
<path fill-rule="evenodd" clip-rule="evenodd" d="M70.4 9.54752L72.8 16.9475L70.3 17.1475L70.1 16.3475L67.6 16.5475L67.3 17.3475L64.9 17.6475L68.1 9.74753L70.4 9.54752ZM68.5 14.3475L69.5 14.2475L69.1 12.7475L68.5 14.3475Z" fill="#FEFEFE"/>
<path d="M78.9 19.9475L79.5 22.7475L79.7 21.9475L80.4 19.8475L81.2 19.7475L79.9 23.3475L79.7 26.0475L78.9 26.1475L79 23.4475L78.1 20.0475L78.9 19.9475Z" fill="#FEFEFE"/>
<path d="M75.2 25.5475L14.9 30.4475L14.4 25.7475L74.7 20.7475L75.2 25.5475Z" fill="#EC5D23"/>
<path fill-rule="evenodd" clip-rule="evenodd" d="M21.6 24.3475L24 31.7475L21.5 31.9475L21.3 31.1475L18.9 31.3475L18.6 32.1475L16.1 32.3475L19.3 24.4475L21.6 24.3475ZM19.7 29.2475L20.7 29.1475L20.3 27.6475L19.7 29.2475Z" fill="#FEFEFE"/>
<path d="M27 31.4475L24.7 31.6475L25.1 24.0475L30.6 23.5475L30.5 25.6475L27.3 25.9475L27.2 27.0475L30.2 26.7475L30.1 28.7475L27.1 29.0475L27 31.4475Z" fill="#FEFEFE"/>
<path fill-rule="evenodd" clip-rule="evenodd" d="M37.9 30.5475L35.2 30.7475L33.7 28.9475L33.5 29.0475L33.4 30.9475L31.1 31.1475L31.6 23.4475L34.7 23.1475C34.8 23.1475 34.8 23.1475 35.3 23.2475C35.7 23.2475 36 23.3475 36.5 23.5475C36.9 23.8475 37.2 24.1475 37.4 24.7475C37.5334 25.0809 37.5667 25.4475 37.5 25.8475C37.4333 26.9142 36.9666 27.7142 36.1 28.2475L37.9 30.5475ZM33.7 25.4475L33.6 26.8475H34.5C34.9 26.7809 35.1333 26.5142 35.2 26.0475C35.2 25.5475 35 25.3475 34.6 25.3475L33.7 25.4475Z" fill="#FEFEFE"/>
<path d="M38.6 30.4475L39 22.8475L41.3 22.6475L40.9 30.2475L38.6 30.4475Z" fill="#FEFEFE"/>
<path d="M50 26.3475C49.8 27.2809 49.3 28.1142 48.5 28.8475C47.7667 29.5142 46.9001 29.9142 45.9001 30.0475C44.7667 30.1142 43.8333 29.7809 43.1 29.0475C42.3667 28.3809 42.0333 27.4809 42.1 26.3475C42.1667 25.2809 42.6001 24.3142 43.4001 23.4475C44.2001 22.6475 45.1667 22.1809 46.3001 22.0475C47.3001 21.9809 48.1667 22.2142 48.9001 22.7475C49.5667 23.3475 49.9667 24.1142 50.1 25.0475L47.7 25.3475C47.5667 24.9475 47.3667 24.6475 47.1 24.4475C46.8333 24.2475 46.5333 24.1809 46.2 24.2475C45.7333 24.2475 45.3334 24.4475 45 24.8475C44.6667 25.2475 44.5 25.6809 44.5 26.1475C44.4334 26.6809 44.5667 27.1142 44.9001 27.4475C45.1667 27.7809 45.5334 27.9142 46 27.8475C46.3334 27.8475 46.6334 27.7142 46.9001 27.4475C47.2334 27.1809 47.4667 26.8809 47.6 26.5475L50 26.3475Z" fill="#FEFEFE"/>
<path fill-rule="evenodd" clip-rule="evenodd" d="M55.5 21.4475L57.8 28.8475L55.4 29.0475L55.2 28.2475L52.7 28.4475L52.4 29.3475L49.9 29.5475L53.2 21.6475L55.5 21.4475ZM53.5 26.2475L54.6 26.1475L54.1 24.6475L53.5 26.2475Z" fill="#FEFEFE"/>
<path d="M65.7 20.5475L65.3 28.2475L63.2 28.3475L61 25.2475L60.8 28.5475L58.5 28.7475L59 21.1475L61 20.9475L63.3 24.0475L63.5 20.7475L65.7 20.5475Z" fill="#FEFEFE"/>
<path fill-rule="evenodd" clip-rule="evenodd" d="M71.5 20.0475L73.9 27.4475L71.4 27.6475L71.2 26.9475L68.8 27.1475L68.5 27.9475L66 28.1475L69.2 20.2475L71.5 20.0475ZM69.6 24.9475L70.6 24.8475L70.2 23.2475L69.6 24.9475Z" fill="#FEFEFE"/>
</svg>
