<svg width="206" height="205" viewBox="0 0 206 205" fill="none" xmlns="http://www.w3.org/2000/svg">
<path d="M2.49996 176.794C7.39996 196.594 28.2999 208.694 49.0999 203.794C69.8999 198.894 82.6999 178.894 77.6999 159.094C72.7999 139.294 51.8999 127.194 31.0999 132.094C10.2999 136.994 -2.50004 156.994 2.49996 176.794Z" fill="#116432"/>
<path d="M2.49996 176.794C7.39996 196.594 28.2999 208.694 49.0999 203.794C69.8999 198.894 82.6999 178.894 77.6999 159.094C72.7999 139.294 51.8999 127.194 31.0999 132.094C10.2999 136.994 -2.50004 156.994 2.49996 176.794Z" fill="#116432"/>
<mask id="mask0_149_63763" style="mask-type:luminance" maskUnits="userSpaceOnUse" x="1" y="131" width="78" height="74">
<path d="M2.4599 176.814C7.4299 196.604 28.2999 208.684 49.0899 203.784C69.8799 198.894 82.7099 178.884 77.7399 159.094C72.7799 139.304 51.8999 127.224 31.1099 132.114C10.3299 137.014 -2.5001 157.024 2.4599 176.814Z" fill="white"/>
</mask>
<g mask="url(#mask0_149_63763)">
<path d="M14.4 199.294C14.0667 199.027 13.7334 198.794 13.4 198.594L54.2999 137.394C54.6999 137.594 55.0667 137.76 55.4 137.894L14.4 199.294Z" fill="#56B846" stroke="#116432" stroke-width="0.5"/>
<path d="M4.90002 188.594C4.63336 188.194 4.39995 187.794 4.19995 187.394L39.7999 134.294C40.2666 134.294 40.7333 134.294 41.2 134.294L4.90002 188.594Z" fill="#56B846" stroke="#116432" stroke-width="0.5"/>
<path d="M10.7999 196.294C10.5333 195.96 10.2667 195.66 10 195.394L49.7999 135.794C50.1999 135.927 50.6 136.06 51 136.194L10.7999 196.294Z" fill="#56B846" stroke="#116432" stroke-width="0.5"/>
<path d="M7.69995 192.694C7.43328 192.36 7.16669 192.027 6.90002 191.694L45 134.694C45.4 134.76 45.8333 134.86 46.2999 134.994L7.69995 192.694Z" fill="#56B846" stroke="#116432" stroke-width="0.5"/>
<path d="M2.5 183.794C2.36667 183.327 2.2 182.86 2 182.394L34 134.494C34.5333 134.427 35.0666 134.394 35.6 134.394L2.5 183.794Z" fill="#56B846" stroke="#116432" stroke-width="0.5"/>
<path d="M17.7 201.594C17.5666 201.46 17.4 201.327 17.2 201.194L58.5 139.494C58.6333 139.627 58.8 139.727 59 139.794C59.1333 139.927 59.3 140.06 59.5 140.194L18.2 201.894C18.0666 201.76 17.9 201.66 17.7 201.594Z" fill="#56B846" stroke="#116432" stroke-width="0.5"/>
<path d="M0.799927 177.994C0.73326 177.46 0.633333 176.894 0.5 176.294L27.6 135.794C28.2 135.594 28.8 135.427 29.4 135.294L0.799927 177.994Z" fill="#56B846" stroke="#116432" stroke-width="0.5"/>
<path d="M22.2 137.794L0.0999756 170.794C0.0999756 169.994 0.133285 169.227 0.199951 168.494L20 138.794C20.7333 138.46 21.4666 138.127 22.2 137.794Z" fill="#56B846" stroke="#116432" stroke-width="0.5"/>
<path d="M49 205.594C48.4667 205.794 47.8999 205.96 47.2999 206.094L75.7999 163.394C75.9333 163.927 76.0666 164.494 76.2 165.094L49 205.594Z" fill="#56B846" stroke="#116432" stroke-width="0.5"/>
<path d="M42.6 206.894C42.1333 206.96 41.6333 206.994 41.1 206.994L74.1 157.594C74.3 158.06 74.4666 158.527 74.6 158.994L42.6 206.894Z" fill="#56B846" stroke="#116432" stroke-width="0.5"/>
<path d="M2 159.594C3 156.694 4.39995 153.894 6.19995 151.294C7.89995 148.594 9.99993 146.194 12.2999 144.194L2 159.594Z" fill="#56B846" stroke="#116432" stroke-width="0.5"/>
<path d="M56.6 202.594C55.9333 202.927 55.2333 203.26 54.5 203.594L76.6 170.594C76.6 171.394 76.5667 172.16 76.5 172.894L56.6 202.594Z" fill="#56B846" stroke="#116432" stroke-width="0.5"/>
<path d="M26.7999 205.594C26.4666 205.46 26.1 205.327 25.7 205.194L65.7999 145.094C66.1333 145.427 66.4333 145.727 66.7 145.994L26.7999 205.594Z" fill="#56B846" stroke="#116432" stroke-width="0.5"/>
<path d="M22.4 203.994C22 203.794 21.6333 203.627 21.2999 203.494L62.2999 142.094C62.6333 142.36 62.9333 142.594 63.2 142.794L22.4 203.994Z" fill="#56B846" stroke="#116432" stroke-width="0.5"/>
<path d="M36.9 207.194C36.4334 207.127 35.9667 207.094 35.5 207.094L71.7999 152.794C71.9999 153.194 72.2333 153.594 72.5 153.994L36.9 207.194Z" fill="#56B846" stroke="#116432" stroke-width="0.5"/>
<path d="M31.7 206.694C31.2333 206.627 30.8 206.527 30.4 206.394L69 148.694C69.2667 149.027 69.5333 149.36 69.7999 149.694L31.7 206.694Z" fill="#56B846" stroke="#116432" stroke-width="0.5"/>
<path d="M59.7999 204.994C59.1333 205.394 58.4333 205.727 57.7 205.994L79.7999 173.094C79.7999 173.827 79.7666 174.56 79.7 175.294L59.7999 204.994Z" fill="#56B846" stroke="#116432" stroke-width="0.5"/>
</g>
<path d="M5.39998 172.994C10.3 192.794 31.2 204.894 52 199.994C72.8 195.094 85.5999 175.094 80.5999 155.294C75.6999 135.494 54.8 123.494 34 128.294C13.2 133.194 0.399981 153.294 5.39998 172.994Z" fill="#7AC057"/>
<path d="M65.9 184.894L63.1 184.594L64 173.694L66.7999 173.894L65.9 184.894Z" fill="#503413"/>
<path style="mix-blend-mode:multiply" opacity="0.2" d="M65.9 184.894L64.5 184.694L65.4 173.794L66.7999 173.894L65.9 184.894Z" fill="url(#paint0_linear_149_63763)"/>
<path d="M76.1 170.394C75.6 176.094 70.6 180.294 64.9 179.794C59.2 179.294 55 174.294 55.5 168.694C56 162.994 61 158.794 66.6 159.194C72.3 159.694 76.5 164.694 76.1 170.394Z" fill="#588E3F"/>
<path opacity="0.1" d="M69.1 185.094C69.1 185.494 67 185.594 64.4 185.394C61.9 185.194 59.8 184.694 59.9 184.294C59.9 183.994 62 183.894 64.5 184.094C67.1 184.294 69.1 184.794 69.1 185.094Z" fill="#050505"/>
<path d="M72.8 151.194C72.5 154.194 69.9001 156.394 66.9001 156.094C63.9001 155.894 61.7 153.194 62 150.294C62.2 147.294 64.8 145.094 67.8 145.294C70.8 145.594 73 148.194 72.8 151.194Z" fill="#588E3F"/>
<path d="M74.2999 158.894C73.8999 163.094 70.2999 166.194 66.0999 165.794C61.8999 165.494 58.7999 161.794 59.1999 157.594C59.4999 153.494 63.2 150.394 67.4 150.694C71.5 151.094 74.5999 154.694 74.2999 158.894Z" fill="#588E3F"/>
<path style="mix-blend-mode:multiply" opacity="0.2" d="M73.1 162.294C73.8 161.294 74.1999 160.194 74.2999 158.894C74.4999 156.694 73.7 154.594 72.2 153.094C72.5333 152.494 72.7333 151.86 72.7999 151.194C72.9999 148.194 70.7999 145.594 67.7999 145.294C67.1999 145.227 66.6333 145.26 66.1 145.394C68.2 146.294 69.6 148.494 69.4 150.894C69.3334 151.56 69.1333 152.194 68.7999 152.794C70.2999 154.294 71.1 156.394 70.9 158.594C70.8 159.894 70.4 160.994 69.7 161.994C71.8 164.094 72.9 166.994 72.7 170.094C72.2 175.194 68.2 179.094 63.2 179.494C63.7333 179.694 64.3 179.794 64.9 179.794C70.6 180.294 75.6 176.094 76.1 170.394C76.3 167.294 75.2 164.394 73.1 162.294Z" fill="url(#paint1_linear_149_63763)"/>
<g opacity="0.3">
<path d="M58.1 164.894C59 163.194 60.6 161.894 62.5 161.494" stroke="#FEFEFE" stroke-width="0.4" stroke-linecap="round" stroke-linejoin="round"/>
<path d="M63.7999 147.794C64.0666 147.46 64.3666 147.194 64.7 146.994" stroke="#FEFEFE" stroke-width="0.4" stroke-linecap="round" stroke-linejoin="round"/>
<path d="M61.5 154.794C62 153.994 62.8 153.394 63.7 152.994" stroke="#FEFEFE" stroke-width="0.4" stroke-linecap="round" stroke-linejoin="round"/>
</g>
<path d="M45.2 194.094L43.2 193.994L43.7999 186.094L45.7999 186.294L45.2 194.094Z" fill="#503413"/>
<path style="mix-blend-mode:multiply" opacity="0.2" d="M45.2 194.094L44.2 193.994L44.7999 186.194L45.7999 186.294L45.2 194.094Z" fill="url(#paint2_linear_149_63763)"/>
<path d="M52.4001 183.794C52.1001 187.894 48.5 190.894 44.5 190.494C40.4 190.194 37.4 186.594 37.7 182.594C38.1 178.494 41.7 175.494 45.7 175.794C49.8 176.194 52.8001 179.694 52.4001 183.794Z" fill="#588E3F"/>
<path opacity="0.1" d="M47.5 194.294C47.5 194.594 45.9999 194.694 44.0999 194.494C42.2999 194.294 40.8 193.994 40.9 193.794C40.9 193.494 42.3999 193.394 44.1999 193.594C45.9999 193.694 47.5 194.094 47.5 194.294Z" fill="#050505"/>
<path d="M50.1 170.094C49.9 172.194 48.0001 173.794 45.9001 173.594C43.8001 173.394 42.2001 171.494 42.4001 169.394C42.6001 167.294 44.4 165.694 46.6 165.894C48.7 165.994 50.3 167.894 50.1 170.094Z" fill="#588E3F"/>
<path d="M51.2 175.594C50.9 178.594 48.3 180.794 45.3 180.494C42.3 180.294 40.1001 177.594 40.4001 174.694C40.6001 171.694 43.3 169.494 46.2 169.694C49.2 169.994 51.4 172.594 51.2 175.594Z" fill="#588E3F"/>
<path style="mix-blend-mode:multiply" opacity="0.2" d="M50.4 177.994C50.8 177.294 51.1 176.494 51.2 175.594C51.3 173.994 50.7 172.494 49.7 171.394C49.9 170.994 50.0333 170.56 50.1 170.094C50.3 167.894 48.7 165.994 46.6 165.894C46.1333 165.827 45.6999 165.86 45.2999 165.994C46.7999 166.594 47.8 168.094 47.7 169.794C47.6333 170.327 47.4999 170.794 47.2999 171.194C48.2999 172.294 48.9 173.794 48.7 175.394C48.7 176.294 48.4 177.094 47.9 177.794C49.4 179.294 50.2 181.394 50 183.594C49.7 187.194 46.7999 189.994 43.2999 190.294C43.6333 190.427 44.0333 190.494 44.5 190.494C48.5 190.894 52.1 187.894 52.4 183.794C52.6 181.594 51.8 179.494 50.4 177.994Z" fill="url(#paint3_linear_149_63763)"/>
<g opacity="0.3">
<path d="M39.6 179.894C40.3 178.594 41.3999 177.694 42.7999 177.394" stroke="#FEFEFE" stroke-width="0.4" stroke-linecap="round" stroke-linejoin="round"/>
<path d="M43.7 167.694C43.8333 167.427 44.0667 167.227 44.4 167.094" stroke="#FEFEFE" stroke-width="0.4" stroke-linecap="round" stroke-linejoin="round"/>
<path d="M42.1 172.694C42.4 172.094 43 171.594 43.6 171.294" stroke="#FEFEFE" stroke-width="0.4" stroke-linecap="round" stroke-linejoin="round"/>
</g>
<path d="M69.7 168.294L0 162.594L0.299927 157.894L70.5 163.594L69.7 168.294Z" fill="#6A4C9E"/>
<path fill-rule="evenodd" clip-rule="evenodd" d="M34 149.294C35 149.394 36.1 149.494 35.4 152.594C34.7 155.394 33.6999 155.494 32.2999 155.394L31.7 155.294L33.1 149.194L34 149.294ZM33.7 149.994L32.6 154.694C34 154.894 34.2 153.594 34.5 152.594C34.7 151.594 35.2 149.994 33.7 149.994Z" fill="#FEFEFE"/>
<path d="M36.1 155.594H35.2999L36.7 149.494H37.5L36.1 155.594ZM37.1 149.194L36.7999 148.994L37.7 147.794L38.2 148.194L37.1 149.194Z" fill="#FEFEFE"/>
<path fill-rule="evenodd" clip-rule="evenodd" d="M39.7999 149.694V155.894L38.9 155.794L39 154.594L37.7999 154.494L37.2 155.694H36.4L39.2 149.694H39.7999ZM39 152.994L39.2 150.794L38 153.894H39V152.994Z" fill="#FEFEFE"/>
<path fill-rule="evenodd" clip-rule="evenodd" d="M43.9 149.994C44.9 150.094 45.9 150.194 45.2 153.294C44.6 156.094 43.6 156.194 42.1 156.094L41.6 155.994L43 149.894L43.9 149.994ZM43.6 150.694L42.5 155.394C43.9 155.594 44.1 154.294 44.4 153.294C44.6 152.294 45 150.694 43.6 150.694Z" fill="#FEFEFE"/>
<path d="M48.7999 150.294L48.6 150.994L47.2999 150.894L46.7999 152.894H48L47.9 153.594H46.6L46.2 155.594L47.5 155.694L47.4 156.394L45.2 156.294L46.6 150.194L48.7999 150.294Z" fill="#FEFEFE"/>
<path d="M51.5 150.494L50.2999 155.894L51.6 155.994L51.5 156.694L49.2999 156.594L50.7 150.494H51.5Z" fill="#FEFEFE"/>
<path fill-rule="evenodd" clip-rule="evenodd" d="M54.7 150.794L54.6 156.894H53.7999L53.9 155.694L52.6 155.594L52.1 156.794L51.2999 156.694L54.1 150.694L54.7 150.794ZM53.9 154.194L54.1 151.994L52.9 154.994L53.7999 155.094L53.9 154.194Z" fill="#FEFEFE"/>
<path d="M67 179.294L1.79993 174.494L2.59998 169.794L67.2999 174.494L67 179.294Z" fill="#6A4C9E"/>
<path fill-rule="evenodd" clip-rule="evenodd" d="M9.5 168.794L10.7 176.494L8.19995 176.294V175.494L5.69995 175.294L5.29993 176.094L2.79993 175.894L7.19995 168.594L9.5 168.794ZM6.90002 173.294L7.90002 173.394L7.69995 171.794L6.90002 173.294Z" fill="#FEFEFE"/>
<path d="M15.9 175.994L15.2999 175.894L14.2999 173.594L13.7 176.694L11.4 176.494L13 168.994L15.1 169.194L16.4 172.194L18.9 169.494L21 169.594L19.4 177.094L17.1 176.994L17.7999 173.794L15.9 175.994Z" fill="#FEFEFE"/>
<path fill-rule="evenodd" clip-rule="evenodd" d="M20.6 177.194L22.2 169.694L25.5 169.894C25.5667 169.894 25.6666 169.927 25.7999 169.994C25.9333 169.994 26.1334 170.027 26.4 170.094C26.6667 170.227 26.9 170.36 27.1 170.494C27.3 170.627 27.4666 170.827 27.6 171.094C27.6666 171.427 27.6666 171.794 27.6 172.194C27.4666 172.727 27.1666 173.194 26.7 173.594C27.2333 174.06 27.4 174.627 27.2 175.294C26.8666 176.827 25.6666 177.527 23.6 177.394L20.6 177.194ZM23.2999 175.294H24.2999C24.6333 175.36 24.8334 175.227 24.9 174.894C24.9 174.694 24.8 174.594 24.5 174.494H23.5L23.2999 175.294ZM23.7999 172.794L24.7 172.894C24.9 172.894 25.1 172.794 25.2 172.494C25.2 172.194 25 172.094 24.9 172.094L24 171.994L23.7999 172.794Z" fill="#FEFEFE"/>
<path d="M27.7 177.694L29.2999 170.194L31.5 170.394L30 177.894L27.7 177.694Z" fill="#FEFEFE"/>
<path d="M34.6 172.694L34.4 173.394L37.4 173.594L37 175.594L34 175.394L33.9 175.994L37.1 176.194L36.6 178.294L31.1 177.894L32.7 170.394L38.2 170.794L37.7999 172.894L34.6 172.694Z" fill="#FEFEFE"/>
<path d="M46 171.394L44.5 178.894L42.4 178.694L40.7 175.294L40 178.594L37.7 178.394L39.2999 170.894L41.4 170.994L43.1 174.494L43.7999 171.194L46 171.394Z" fill="#FEFEFE"/>
<path d="M48.6 173.694L46.5 173.594L46.9 171.394L53.4 171.894L52.9 173.994L50.7999 173.894L49.7 179.294L47.4 179.094L48.6 173.694Z" fill="#FEFEFE"/>
<path fill-rule="evenodd" clip-rule="evenodd" d="M57.6 172.194L58.7999 179.894L56.2999 179.694L56.2 178.894L53.7 178.794L53.2999 179.494L50.9 179.294L55.2999 171.994L57.6 172.194ZM54.9 176.694L55.9 176.794L55.7999 175.194L54.9 176.694Z" fill="#FEFEFE"/>
<path d="M63.2999 172.594L62.2 177.994L65.4 178.194L65 180.294L59.5 179.994L61.1 172.394L63.2999 172.594Z" fill="#FEFEFE"/>
<path d="M4.79993 159.494L4.59998 160.194L7.59998 160.394L7.19995 162.294L4.19995 162.094L4.09998 162.694L7.29993 162.994L6.90002 165.094L1.40002 164.694L3 157.194L8.5 157.594L8 159.694L4.79993 159.494Z" fill="#FEFEFE"/>
<path fill-rule="evenodd" clip-rule="evenodd" d="M7.90002 165.194L9.59998 157.694L12.6 157.894C13.6666 157.96 14.5 158.394 15.1 159.194C15.6333 159.927 15.7667 160.86 15.5 161.994C15.3 163.06 14.7667 163.927 13.9 164.594C13.0334 165.194 12.0334 165.46 10.9 165.394L7.90002 165.194ZM11.4 159.994L10.6 163.294H11.4C11.8667 163.36 12.2666 163.227 12.6 162.894C12.9333 162.627 13.1333 162.26 13.2 161.794C13.3333 161.327 13.3 160.927 13.1 160.594C12.9 160.26 12.6 160.094 12.2 160.094L11.4 159.994Z" fill="#FEFEFE"/>
<path d="M18.7999 166.194C18.6999 166.094 18.5999 166.094 18.0999 165.994C17.6999 165.894 17.4 165.794 17 165.394C16.5 165.094 16.2999 164.694 16.1999 163.994C16.1332 163.594 16.1332 163.194 16.1999 162.794L17.1999 158.294L19.5 158.394L18.5 162.994C18.5 163.094 18.5 163.094 18.5 163.394C18.5 163.46 18.5333 163.56 18.5999 163.694C18.6999 163.794 18.8999 163.994 19.1999 163.994C19.4666 164.06 19.7 164.027 19.9 163.894C20.1 163.694 20.2332 163.527 20.2999 163.394L20.4 163.194L21.4 158.594L23.5999 158.794L22.6999 163.294C22.4999 164.094 22.0999 164.794 21.5999 165.194C21.3333 165.394 21.0665 165.56 20.7999 165.694C20.0999 166.094 19.3 166.094 18.9 166.094L18.7999 166.194Z" fill="#FEFEFE"/>
<path d="M31.7 163.794C31.3 164.727 30.6333 165.46 29.7 165.994C28.8333 166.594 27.9334 166.86 27 166.794C25.8667 166.66 25.0001 166.194 24.4001 165.394C23.8001 164.594 23.6 163.66 23.8 162.594C24.0666 161.527 24.6667 160.627 25.6 159.894C26.5333 159.227 27.5667 158.927 28.7 158.994C29.6333 159.06 30.4 159.427 31 160.094C31.6 160.76 31.9001 161.594 31.9001 162.594L29.5 162.394C29.4334 162.06 29.2667 161.76 29 161.494C28.8 161.294 28.5333 161.16 28.2 161.094C27.7333 161.094 27.3001 161.227 26.9001 161.494C26.5001 161.827 26.2667 162.26 26.2 162.794C26.0667 163.26 26.1334 163.694 26.4001 164.094C26.6001 164.427 26.9334 164.627 27.4001 164.694C27.7334 164.694 28.0667 164.594 28.4001 164.394C28.7334 164.194 29 163.927 29.2 163.594L31.7 163.794Z" fill="#FEFEFE"/>
<path fill-rule="evenodd" clip-rule="evenodd" d="M37.7999 159.794L38.9 167.494L36.5 167.394L36.4 166.594L33.9 166.394L33.5 167.094L31 166.894L35.5 159.694L37.7999 159.794ZM35.1 164.194L36.1 164.294L36 162.694L35.1 164.194Z" fill="#FEFEFE"/>
<path d="M47.8 164.994C47.4 165.927 46.7667 166.694 45.9001 167.294C45.0334 167.827 44.1 168.06 43.1 167.994C41.9667 167.927 41.1001 167.494 40.5001 166.694C39.9001 165.827 39.7001 164.86 39.9001 163.794C40.1667 162.727 40.7667 161.827 41.7 161.094C42.6333 160.427 43.6666 160.127 44.8 160.194C45.7333 160.26 46.5333 160.66 47.2 161.394C47.8 162.06 48.0667 162.86 48.0001 163.794L45.6 163.594C45.5334 163.26 45.4 162.96 45.2 162.694C44.9333 162.494 44.6333 162.36 44.3 162.294C43.8333 162.294 43.4001 162.46 43.0001 162.794C42.6667 163.127 42.4333 163.527 42.3 163.994C42.1666 164.46 42.2334 164.894 42.5001 165.294C42.7667 165.627 43.1001 165.827 43.5001 165.894C43.8334 165.894 44.1667 165.794 44.5001 165.594C44.8334 165.394 45.1 165.127 45.3 164.794L47.8 164.994Z" fill="#FEFEFE"/>
<path d="M47.9 168.194L49.6 160.694L51.7999 160.894L50.2 168.394L47.9 168.194Z" fill="#FEFEFE"/>
<path fill-rule="evenodd" clip-rule="evenodd" d="M56.9001 161.194C58.0334 161.26 58.9 161.694 59.5 162.494C60.1 163.294 60.2667 164.227 60 165.294C59.8 166.427 59.2333 167.327 58.3 167.994C57.3666 168.727 56.3333 169.027 55.2 168.894C54.0666 168.827 53.2 168.394 52.6 167.594C52 166.794 51.8333 165.827 52.1 164.694C52.3 163.627 52.8666 162.76 53.8 162.094C54.7333 161.36 55.7667 161.06 56.9001 161.194ZM55.7 166.794C56.1666 166.86 56.5667 166.727 56.9001 166.394C57.3001 166.06 57.5666 165.66 57.7 165.194C57.8333 164.66 57.7667 164.227 57.5 163.894C57.2334 163.494 56.8667 163.294 56.4001 163.294C56.0001 163.227 55.6 163.36 55.2 163.694C54.8 164.027 54.5334 164.427 54.4001 164.894C54.3334 165.427 54.4 165.86 54.6 166.194C54.8667 166.594 55.2333 166.794 55.7 166.794ZM58.1 160.694L55.9001 160.494L57.3 158.594L59.9001 158.794L58.1 160.694Z" fill="#FEFEFE"/>
<path d="M68.7 162.194L67.1 169.694L65 169.494L63.2999 166.094L62.6 169.294L60.2999 169.194L61.9 161.694L64 161.794L65.7 165.294L66.4 161.994L68.7 162.194Z" fill="#FEFEFE"/>
<path d="M11 138.394V137.594C11.0667 137.327 11.1 137.094 11.1 136.894C11.1666 136.694 11.2667 136.394 11.4 135.994C11.6 135.527 11.8 135.16 12 134.894C12.2667 134.627 12.6666 134.394 13.2 134.194C13.7333 133.994 14.3333 133.927 15 133.994C16.5 134.094 17.5 134.794 18 135.394C18.2 135.66 18.3667 136.027 18.5 136.494C18.5667 136.894 18.6 137.227 18.6 137.494C18.6 137.694 18.6 137.927 18.6 138.194V138.294C18.5333 139.094 18.2 139.894 17.6 140.694C16.9333 141.56 16.2333 142.294 15.5 142.894L18.2999 143.094L18.1 146.094L10.6 145.494L10.7999 142.794C12.8999 141.294 14.2 140.094 14.7 139.394C14.9666 138.994 15.1666 138.727 15.2999 138.594C15.3666 138.394 15.4 138.194 15.4 137.994C15.4 137.594 15.3999 137.394 15.2999 137.194C15.1666 137.06 14.9999 136.994 14.7999 136.994C14.3999 136.994 14.3 137.294 14.2 137.894V138.594L11 138.394Z" fill="#050505"/>
<path fill-rule="evenodd" clip-rule="evenodd" d="M27.9 135.294L25.5 138.594C27.3 138.994 28.1 140.46 27.9 142.994C27.7667 144.194 27.3 145.127 26.5 145.794C25.7 146.527 24.7 146.86 23.5 146.794C22.3 146.66 21.3333 146.194 20.6 145.394C19.9333 144.527 19.6666 143.494 19.7999 142.294C19.8666 141.427 20.1999 140.56 20.7999 139.694L24.4 134.994L27.9 135.294ZM23.9 141.394C23.3667 141.394 23.0667 141.76 23 142.494C22.9333 143.294 23.1666 143.694 23.7 143.694C24.2333 143.76 24.5333 143.394 24.6 142.594C24.6666 141.86 24.4334 141.46 23.9 141.394Z" fill="#050505"/>
<path d="M12.4 137.094V136.294C12.4667 136.027 12.5 135.794 12.5 135.594C12.5667 135.394 12.6666 135.094 12.7999 134.694C12.9999 134.294 13.2333 133.96 13.5 133.694C13.7 133.427 14.0666 133.194 14.6 132.994C15.1333 132.794 15.7334 132.727 16.4 132.794C17.9 132.894 18.9 133.494 19.4 134.094C19.6 134.427 19.7667 134.794 19.9 135.194C19.9667 135.66 20 135.994 20 136.194C20.0667 136.46 20.0667 136.727 20 136.994C19.9333 137.86 19.6 138.694 19 139.494C18.3333 140.294 17.6334 140.994 16.9 141.594L19.7 141.894L19.5 144.894L12 144.194L12.2 141.594C14.3 140.094 15.6 138.894 16.2 138.194C16.4 137.794 16.5666 137.494 16.7 137.294C16.7666 137.16 16.7999 136.994 16.7999 136.794C16.7999 136.394 16.9 136.194 16.7 135.994C16.5666 135.86 16.4333 135.794 16.2999 135.794C15.7999 135.694 15.7 135.994 15.6 136.694V137.394L12.4 137.094Z" fill="#FEFEFE"/>
<path fill-rule="evenodd" clip-rule="evenodd" d="M29.2999 134.094L26.9 137.394C28.7 137.727 29.4999 139.194 29.2999 141.794C29.1666 142.927 28.7 143.86 27.9 144.594C27.1 145.327 26.1 145.627 24.9 145.494C23.7 145.427 22.7333 144.96 22 144.094C21.3333 143.227 21.0666 142.227 21.2 141.094C21.2666 140.227 21.6333 139.36 22.2999 138.494L25.7999 133.794L29.2999 134.094ZM25.2999 140.194C24.7666 140.127 24.4667 140.494 24.4 141.294C24.3334 142.027 24.5666 142.427 25.1 142.494C25.6333 142.56 25.9333 142.194 26 141.394C26.0667 140.66 25.8333 140.26 25.2999 140.194Z" fill="#FEFEFE"/>
<path opacity="0.1" d="M126.3 33.4938L145.5 43.2938L143.6 81.7938L117.6 53.1938L126.3 33.4938Z" fill="#050505"/>
<path opacity="0.3" d="M32.4 140.994C32.4 142.594 40 143.794 49.5 143.794C59 143.794 66.6 142.594 66.6 140.994C66.6 139.394 59 138.094 49.5 138.094C40 138.094 32.4 139.394 32.4 140.994Z" fill="#050505"/>
<path d="M65.2999 124.394C65.2999 124.46 65.2666 124.527 65.1999 124.594C64.5332 125.327 63.8333 126.06 63.0999 126.794C62.6333 127.194 62.1666 127.627 61.6999 128.094C61.6332 128.16 61.5666 128.227 61.5 128.294C61.4333 128.36 61.4333 128.427 61.5 128.494C61.6333 128.56 61.7332 128.66 61.7999 128.794C62.5332 129.46 63.2666 130.127 64 130.794C64.2666 130.994 64.5332 131.16 64.7999 131.294C65.0665 131.427 65.3333 131.46 65.5999 131.394C65.7999 131.394 65.9999 131.36 66.1999 131.294C66.4666 131.16 66.7333 131.027 67 130.894C67.6 130.427 68.1 129.927 68.5 129.394C68.6333 129.194 68.7332 128.96 68.7999 128.694C68.9332 128.36 68.9666 128.027 68.9 127.694C68.8333 127.427 68.7666 127.227 68.6999 127.094C68.4999 126.894 68.2999 126.694 68.0999 126.494C68.0333 126.427 68 126.427 68 126.494C67.7333 126.694 67.4666 126.794 67.1999 126.794C67.1332 126.794 67.0666 126.794 67 126.794C66.8666 126.794 66.7333 126.794 66.5999 126.794C66.5333 126.794 66.4666 126.794 66.4 126.794C66.3 126.794 66.2999 126.594 66.2999 126.494C66.2999 126.394 66.4 126.194 66.5 126.194C66.5666 126.194 66.6332 126.194 66.6999 126.194C66.8999 126.194 67.0999 126.16 67.2999 126.094C67.5665 126.027 67.7332 125.894 67.7999 125.694C67.9332 125.494 67.9332 125.294 67.7999 125.094C67.6665 124.827 67.4333 124.66 67.0999 124.594C66.8333 124.527 66.6 124.494 66.4 124.494C66.0666 124.494 65.6999 124.46 65.2999 124.394Z" fill="#050505"/>
<path d="M65.6999 122.994C65.7666 123.127 65.7999 123.227 65.7999 123.294C65.7332 123.36 65.7332 123.427 65.7999 123.494C65.8666 123.494 65.9333 123.527 66 123.594C66.1333 123.594 66.2667 123.627 66.4 123.694C66.5333 123.694 66.6666 123.694 66.7999 123.694C67.3332 123.694 67.7333 123.894 68 124.294C68.1333 124.494 68.2332 124.727 68.2999 124.994C68.2999 125.06 68.2999 125.127 68.2999 125.194C68.2332 125.327 68.1999 125.46 68.1999 125.594C68.1999 125.594 68.1999 125.627 68.1999 125.694C68.2666 125.694 68.2999 125.727 68.2999 125.794C68.4332 125.927 68.5999 126.06 68.7999 126.194C69.0999 126.494 69.1999 126.894 69.2999 127.294C69.3666 127.76 69.3333 128.194 69.1999 128.594C69.1333 128.727 69.0666 128.894 69 129.094C68.9333 129.16 68.8666 129.26 68.7999 129.394C68.3999 129.994 67.8999 130.494 67.2999 130.894C67.0332 131.16 66.6999 131.36 66.2999 131.494C66.0332 131.627 65.7333 131.694 65.4 131.694C64.8667 131.76 64.3667 131.627 63.9 131.294C63.7 131.227 63.5333 131.094 63.4 130.894C63 130.56 62.6332 130.227 62.2999 129.894C61.8999 129.494 61.4666 129.094 61 128.694C61 128.627 60.9667 128.594 60.9 128.594C60.8333 128.527 60.7666 128.494 60.6999 128.494C60.5666 128.494 60.4667 128.46 60.4 128.394C60.3333 128.327 60.2666 128.26 60.1999 128.194C60.0999 128.194 61.6999 126.894 61.6999 126.894C61.7666 126.827 61.7999 126.76 61.7999 126.694C62.3999 126.16 62.9333 125.627 63.4 125.094C63.9333 124.56 64.4333 124.027 64.9 123.494C64.9667 123.427 65.0333 123.36 65.1 123.294C65.1 123.294 65.1 123.26 65.1 123.194L65.6999 122.994Z" fill="#050505"/>
<path d="M65.1999 124.094C65.5332 124.16 65.8666 124.194 66.1999 124.194C66.4666 124.194 66.7 124.227 66.9 124.294C67.2333 124.36 67.4666 124.527 67.5999 124.794C67.7333 124.994 67.7333 125.194 67.5999 125.394C67.5333 125.594 67.3666 125.727 67.0999 125.794C66.8999 125.86 66.7 125.894 66.5 125.894C66.4333 125.894 66.3665 125.894 66.2999 125.894C66.1999 125.894 66.0999 126.094 66.0999 126.194C66.0999 126.394 66.0999 126.494 66.2999 126.494C66.2999 126.494 66.3666 126.494 66.5 126.494C66.5666 126.494 66.6665 126.494 66.7999 126.494C66.8665 126.494 66.9333 126.494 67 126.494C67.2666 126.494 67.5332 126.394 67.7999 126.194C67.7999 126.194 67.8333 126.194 67.9 126.194C68.1 126.394 68.3 126.594 68.5 126.794C68.5666 126.927 68.6332 127.127 68.6999 127.394C68.7666 127.727 68.7333 128.06 68.5999 128.394C68.5333 128.66 68.4332 128.894 68.2999 129.094C67.8999 129.627 67.3999 130.127 66.7999 130.594C66.5999 130.727 66.3333 130.86 66 130.994C65.8 131.06 65.6 131.094 65.4 131.094C65.1333 131.16 64.8666 131.127 64.5999 130.994C64.3333 130.86 64.0665 130.694 63.7999 130.494C63.0665 129.827 62.3666 129.16 61.6999 128.494C61.5666 128.36 61.4332 128.26 61.2999 128.194C61.2332 128.127 61.2332 128.06 61.2999 127.994C61.3665 127.927 61.4666 127.86 61.5999 127.794C61.9999 127.394 62.4333 126.96 62.9 126.494C63.6333 125.76 64.3333 125.027 65 124.294C65.0666 124.227 65.1332 124.16 65.1999 124.094Z" fill="#C39170"/>
<g style="mix-blend-mode:multiply" opacity="0.2">
<path d="M64.4 127.194C64.2 127.394 63.7 127.894 63.4 128.194C63.2 128.394 63.2 128.594 63.4 128.794C63.7 129.094 64.2999 129.594 64.6999 129.994C64.8333 130.127 64.9666 130.227 65.1 130.294C65.3666 130.427 65.6333 130.46 65.9 130.394C66.1 130.394 66.2667 130.36 66.4 130.294C66.6667 130.227 66.9 130.127 67.1 129.994C67.5 129.66 67.8666 129.26 68.1999 128.794C68.3999 128.527 68.5333 128.26 68.6 127.994C68.6 127.794 68.6 127.594 68.6 127.394C68.5333 127.26 68.4667 127.127 68.4 126.994C68.2667 126.794 68.1 126.627 67.9 126.494C67.9 126.427 67.8666 126.427 67.7999 126.494C67.6999 126.694 67.3 126.794 66.9 126.794C66.6 126.794 66.2 126.794 66.1 126.694C65.9666 126.694 65.8 126.594 65.6 126.394C65.5 126.294 65.2999 126.294 65.1999 126.394L64.4 127.194Z" fill="#050505"/>
</g>
<path d="M58.2999 126.994C58.7999 127.294 59.2999 127.194 59.2999 127.194C59.2999 127.194 60.7999 125.994 62.0999 124.694C63.2999 123.494 64.5999 122.194 64.5999 122.094C64.5999 121.394 63.6 120.994 62.9 119.794C61.9 118.394 60.8 116.094 59.9 114.594C59 112.894 56.9 112.094 54.5 113.494C51.9 114.894 52.4999 117.994 53.1999 119.394C54.0999 121.194 55.4 123.394 56 124.194C56.7 124.994 57.8999 126.794 58.2999 126.994Z" fill="#475395" stroke="#050505" stroke-width="0.5" stroke-linecap="round" stroke-linejoin="round"/>
<path d="M64.5 122.094C64.6 122.194 65.7 123.494 65.7 123.494C65.7 123.494 64.7 124.694 63.5 125.794C62.3 126.894 60.6 128.494 60.6 128.494L59.4 127.194C59.4 127.194 60.4 126.394 62.1 124.794C63.4 123.494 64.5 122.094 64.5 122.094Z" fill="#475395" stroke="#050505" stroke-width="0.5" stroke-linecap="round" stroke-linejoin="round"/>
<path opacity="0.4" d="M54.1999 113.594C54.1999 113.594 51.8999 115.094 52.7999 118.094C52.9999 118.594 54.0999 121.594 55.6999 123.794C57.6999 126.394 60.4 128.394 60.4 128.394L61.7999 127.294C61.7999 127.294 54.6999 118.294 54.1999 116.094C53.9999 114.894 54.1999 113.594 54.1999 113.594Z" fill="#050505"/>
<path d="M49.5 132.894L51.7 136.094C51.7666 136.294 51.8334 136.46 51.9 136.594C52 136.894 52.5 137.594 52.6 138.094C52.8 138.894 53.1999 139.994 55.2999 139.894C57.3999 139.694 58.3 137.994 58 136.794C58 136.794 57.5 134.994 57 133.794C56.6 132.694 54.7 129.994 54.7 129.994L49.5 132.894Z" fill="#C39170" stroke="#050505" stroke-width="0.5" stroke-linecap="round" stroke-linejoin="round"/>
<path opacity="0.4" d="M54.1 135.994L50.7999 134.794L51.7 136.094C51.7666 136.294 51.8334 136.46 51.9 136.594C52 136.894 52.5 137.594 52.6 138.094C52.8 138.894 53.1999 139.994 55.2999 139.894C55.2999 139.894 54.5 137.794 54.1 136.894C53.7 136.094 54.1 135.994 54.1 135.994Z" fill="#050505"/>
<path d="M54.1 129.094L57.9 132.594C57.9 132.594 56.7 134.194 54.6 135.694C52.6 137.194 51 136.794 51 136.794C51 136.794 49.5 133.794 45.5 133.094C44.5 132.894 50.5 126.694 54.1 129.094Z" fill="#475395" stroke="#050505" stroke-width="0.5" stroke-linecap="round" stroke-linejoin="round"/>
<path opacity="0.4" d="M51.1 133.294C51.1 132.894 51.2 131.994 51.1 131.994C51.1 131.894 48.2 131.594 46.5 131.394C45.6 132.294 45.2 132.994 45.5 133.094C49.5 133.794 51 136.794 51 136.794C51 136.794 52.3 137.094 54.1 135.994C53.7 134.894 51.3 133.394 51.1 133.294Z" fill="#050505"/>
<path d="M52.1 141.494C52.1 141.594 52.1999 141.694 52.2999 141.694H62.1C62.2 141.694 62.2999 141.594 62.2999 141.494V140.994C62.2999 140.894 62.2 140.794 62.1 140.794H52.2999C52.1999 140.794 52.1 140.894 52.1 140.994V141.494Z" fill="#BABAC6" stroke="#050505" stroke-width="0.5" stroke-linecap="round" stroke-linejoin="round"/>
<path d="M56.7999 137.194C56.7999 137.194 56.8 136.694 57.6 136.694C58 136.694 59.1 136.694 59.4 136.694C60 136.694 59.6 137.094 59.5 137.494C59.4 137.894 59.3 138.094 59.6 138.494L60.5 139.694L58.7 140.694L57 138.494L56.7999 137.194Z" fill="#86657B" stroke="#050505" stroke-width="0.5" stroke-linecap="round" stroke-linejoin="round"/>
<path d="M59.7 140.794H52.2999C52.2999 140.794 52.2999 139.294 52.2999 138.794C52.2999 138.294 52.6 137.994 53.1 137.994C53.6 137.994 54.0999 138.494 55.2999 137.994C56.1999 137.594 56.3999 137.594 56.7999 137.394C57.2999 137.094 57.4 137.394 57.5 137.894L57.7 138.594" fill="#86657B"/>
<path d="M59.7 140.794H52.2999C52.2999 140.794 52.2999 139.294 52.2999 138.794C52.2999 138.294 52.6 137.994 53.1 137.994C53.6 137.994 54.0999 138.494 55.2999 137.994C56.1999 137.594 56.3999 137.594 56.7999 137.394C57.2999 137.094 57.4 137.394 57.5 137.894L57.7 138.594" stroke="#050505" stroke-width="0.5" stroke-linecap="round" stroke-linejoin="round"/>
<path d="M62.1 140.794C62.1 140.494 61 139.694 60.5 139.694C59.4 139.694 58.7 140.794 58.7 140.794H62.1Z" fill="#BABAC6" stroke="#050505" stroke-width="0.4" stroke-linecap="round" stroke-linejoin="round"/>
<path d="M54.7999 139.594C54.7999 139.894 54.5 140.194 54.1 140.194C53.7 140.194 53.4 139.894 53.4 139.594C53.4 139.194 53.7 138.894 54.1 138.894C54.5 138.894 54.7999 139.194 54.7999 139.594Z" fill="#BABAC6" stroke="#43323E" stroke-width="0.4" stroke-linecap="round" stroke-linejoin="round"/>
<path d="M59.2999 137.794C59.2999 137.794 58.3 137.994 57.7 138.294C56.9 138.594 56.2999 138.994 56.2999 138.994L56.7 139.694C56.7 139.694 57.3 139.294 58.1 139.094C58.8 138.794 59.7999 138.694 59.7999 138.694L59.2999 137.794Z" fill="#FAF49E" stroke="#413F28" stroke-width="0.4" stroke-linecap="round" stroke-linejoin="round"/>
<path d="M58.7999 113.794C58.3999 114.694 56.9 115.894 55.9 116.094C53.6 116.494 43.3 115.694 42.1 115.194C41.2 114.794 40.7 112.594 40.1 112.594C39.5 112.594 38.6 114.194 37.6 114.394C36.6 114.594 35.5 110.894 35.1 110.894C34.7 110.894 34.8 112.494 34.9 113.994C34.9 114.894 31.8 110.294 31.5 107.894C31.2 105.594 31.5999 102.994 31.2999 102.994C30.8999 102.994 30 105.294 29.1 105.194C28.3 105.094 28.5999 98.5938 29.1999 96.8938C29.6999 95.1938 33.2999 89.9938 34.2999 86.9938C34.6999 85.5938 52.3 77.3938 56.5 77.5938C58.2 77.6938 66.1999 82.9938 66.2999 89.8938C66.3999 108.694 58.8999 113.494 58.7999 113.794Z" fill="#AF94AF"/>
<path d="M58.9 113.594C58.8 114.694 56.7999 115.894 55.7999 116.094C53.4999 116.494 43.3 115.694 42.1 115.194C41.2 114.794 40.7 112.594 40.1 112.594C39.5 112.594 38.6 114.194 37.6 114.394C36.6 114.594 35.5 110.894 35.1 110.894C34.7 110.894 34.6999 113.094 34.7999 113.994C34.8999 114.894 31.8 110.294 31.5 107.894C31.2 105.594 31.5999 102.994 31.2999 102.994C30.8999 102.994 30 105.294 29.1 105.194C28.3 105.094 28.5999 98.5938 29.1999 96.8938C29.6999 95.1938 33.2999 89.9938 34.2999 86.9938" stroke="#814E57" stroke-width="0.5" stroke-linecap="round" stroke-linejoin="round"/>
<path d="M62.6 92.9938C64.5 99.5938 63.3 110.194 63.2 111.294C63 113.094 59.1 117.494 58.9 116.594C58.8 115.494 58.9 114.794 58.4 113.494C57.6 111.594 57.3999 110.994 57.2999 109.594C57.0999 106.294 56.3999 94.8938 56.7999 93.8938" fill="#AF94AF"/>
<path d="M58 112.794C58.2 113.094 58.4 113.394 58.5 113.594C59 114.794 58.9 115.594 58.9 116.594C58.9 117.494 63 113.094 63.2 111.294C63.3 110.194 64.5 99.5938 62.6 92.9938" stroke="#814E57" stroke-width="0.5" stroke-linecap="round" stroke-linejoin="round"/>
<path d="M66.9 88.9938C67.9 91.9938 69.6 95.5938 70.2 99.9938C70.7 103.494 69.7 110.394 69.4 109.394C69 108.494 68.2 105.894 67.9 105.294C67.2 103.494 64.7 93.3938 64.6 90.2938" fill="#C6A9C7"/>
<path d="M66.9 88.9938C67.9 91.9938 69.6 95.5938 70.2 99.9938C70.7 103.494 69.4 110.494 69.2 109.294C68.8 107.094 68.2 105.894 67.9 105.294" stroke="#814E57" stroke-width="0.5" stroke-linecap="round" stroke-linejoin="round"/>
<path d="M65.7999 87.4938C67.5999 90.6938 68.1 103.394 67.9 105.294C67.7 107.294 67.7 108.694 67 110.894C65.9 114.994 63.1 116.894 63.2 115.894C63.3 114.694 63.2999 112.994 63.2999 112.194C63.0999 110.694 61.8 104.494 61.7 101.594C61.7 99.5938 62.8 93.4938 63.1 92.1938" fill="#AF94AF"/>
<path d="M67.9 102.494C67.9 103.694 68 104.794 67.9 105.294C67.7 107.294 67.7 108.694 67 110.894C65.8 115.294 63 116.594 63.2 115.794C63.5 114.494 63.4999 113.594 63.2999 112.594C63.2999 112.194 63.1 111.194 62.9 110.094" stroke="#814E57" stroke-width="0.5" stroke-linecap="round" stroke-linejoin="round"/>
<path d="M43 109.794C44.3 109.794 44.7 109.994 45.4 109.594C46.2 109.094 45 107.994 46.1 107.594C47.2 107.194 53.7999 108.594 54.2999 108.994C54.6999 109.494 54.2999 110.594 54.7999 110.894C55.2999 111.094 55.8999 110.994 56.2999 111.894C56.5999 112.794 57.1 114.694 56 115.794C54.9 116.994 50.9999 116.894 49.7999 116.494C48.5999 115.994 43 109.794 43 109.794Z" fill="#C39170" stroke="#050505" stroke-width="0.5" stroke-linecap="round" stroke-linejoin="round"/>
<path d="M48.4 114.994C49.7 115.694 51.1999 116.194 52.7999 116.294C54.4999 116.394 56.2999 115.294 56.2999 115.294L52.7 124.194L48.4 114.994Z" fill="#FAF49E" stroke="#413F28" stroke-width="0.4" stroke-linecap="round" stroke-linejoin="round"/>
<path d="M42.8 109.794C43.7 109.794 49.4 115.894 50.3 117.094C51.2 118.294 52.8 120.294 52.8 120.294C52.8 120.294 54.7 117.094 55.3 116.194C55.9 115.294 57.2 112.894 56.2 111.694C55.2 110.594 56.9 111.694 57.5 112.594C58.1 113.494 58.3 118.494 58.4 120.494C58.4 122.394 59 127.694 56.6 130.694C54.3 133.694 52 133.594 50.6 133.594C49.2 133.694 46.2 133.494 44.8 133.294C43.5 133.094 38.1 131.294 37 130.594C35.9 129.794 34.4 128.494 35 126.294C35.5 124.194 36.5 123.494 36.8 122.594C37 121.694 37.9 111.994 39 110.394C39.7 109.294 41.7 109.694 42.8 109.794Z" fill="#475395"/>
<path d="M49.6 133.594C49.5 133.494 48.9 133.594 48.8 133.494C48.7 133.394 49.5 132.894 49.8 132.794C50.1 132.594 50.3 132.494 50.6 132.094C51 131.627 51.3667 130.86 51.7 129.794C52.1 128.494 52.5 121.594 52.5 120.494C52.5 120.294 52.6 120.094 52.8 120.094C53 120.094 53.2 120.294 53.2 120.494C53.2 121.094 53.0001 124.294 52.9001 126.094C52.7001 127.294 52.7001 129.194 52.4001 129.994C52.0001 131.194 51.6 131.994 51.2 132.494C50.8 132.994 50.4 133.194 50.1 133.394C49.9667 133.46 49.8666 133.494 49.8 133.494C49.7333 133.56 49.6667 133.594 49.6 133.594Z" fill="#BABAC6" stroke="#050505" stroke-width="0.5" stroke-linecap="round" stroke-linejoin="round"/>
<path d="M52.7999 120.494C52.8999 121.594 52.3 127.394 51.9 128.794C51 131.594 50.2 131.694 49.5 132.094" stroke="#1A171B" stroke-width="0.4" stroke-linecap="round" stroke-linejoin="round"/>
<path d="M57.4 129.494C57.4 129.494 55.6 127.794 55.6 127.694C55.6 127.594 56.3 126.694 56.4 126.594C56.5 126.494 57.1 127.494 57.4 127.694C57.6 127.894 57.9 128.194 57.9 128.194L57.4 129.494Z" fill="#BABAC6" stroke="#050505" stroke-width="0.5" stroke-linecap="round" stroke-linejoin="round"/>
<path d="M37.6999 130.994C36.4999 130.094 34.4999 128.594 34.9999 126.394C35.5999 124.294 36.4999 123.494 36.7999 122.594C36.9999 121.694 37.8999 111.994 38.9999 110.394C39.6999 109.294 41.6999 109.694 42.7999 109.794C43.6999 109.794 49.3999 115.894 50.2999 117.094C51.1999 118.294 52.7999 120.294 52.7999 120.294C52.7999 120.294 54.6999 117.094 55.2999 116.194C55.8999 115.294 57.1999 112.894 56.1999 111.694C55.1999 110.594 56.8999 111.694 57.4999 112.594C58.0999 113.494 58.3 118.494 58.4 120.494C58.4 122.394 58.9999 127.694 56.5999 130.694C54.2999 133.694 51.9999 133.594 50.5999 133.594C49.4999 133.694 47.1999 133.594 45.5999 133.394" stroke="#050505" stroke-width="0.5" stroke-linecap="round" stroke-linejoin="round"/>
<path d="M42.7 109.594C42.7 109.994 42.8 111.794 43.1 112.894C43.3 113.994 43.8 115.794 44 115.894C44.2 115.894 45.2 114.094 45.7 114.094C46.3 113.994 47.9 115.394 48.1 116.294C48.3 117.094 47.8 116.994 48.2 117.594C48.5 118.094 49 118.694 50.1 119.194C51.2 119.594 52.7999 120.494 52.7999 120.494C52.7999 120.494 51.3 117.494 48.2 114.294C45 111.094 42.7 109.594 42.7 109.594Z" fill="#BABAC6" stroke="#050505" stroke-width="0.5" stroke-linecap="round" stroke-linejoin="round"/>
<path d="M52.7999 120.494C52.7999 120.494 54.2 117.594 54.7 116.594C55.2 115.594 56 114.494 56.1 113.894C56.2 113.294 56.1 111.294 56.1 111.294C56.1 111.294 57.3 111.894 57.7 112.694C58.3 113.794 58.6 116.494 58 116.794C57.7 116.994 56.7 115.994 56.6 115.994C56.4 115.994 56.1 115.994 56 116.394C56 116.794 56.4 117.594 56 118.094C55.6 118.894 55.3 118.794 54.6 119.294C53.9 119.694 52.7999 120.494 52.7999 120.494Z" fill="#BABAC6" stroke="#050505" stroke-width="0.5" stroke-linecap="round" stroke-linejoin="round"/>
<path opacity="0.4" d="M41.4 109.894C43.5 112.294 48.7999 114.394 51.7999 114.794C54.8999 115.094 57.8 114.394 58.2 113.994C58.5 113.794 58.2 112.094 55.2 110.894C54.7 110.694 54.7 108.994 54 108.794C53.4 108.594 52 108.194 50.5 107.894C48.7 107.494 47.5 107.694 45.9 107.794C45.5 107.794 46.4 109.794 45 109.694C42.8 109.594 41.4 109.894 41.4 109.894Z" fill="#050505"/>
<path opacity="0.4" d="M39.7 109.894C38.9 110.194 38.6 110.994 38.2 113.094C37.8 115.094 37.1 121.094 37 121.894C36.7 123.694 36.1999 123.294 35.7999 123.994C35.4999 124.794 34.9 126.194 35 127.394C35.1 129.794 37.2 130.994 38.1 131.194C37.8 130.694 36.7 129.194 36.6 128.794C36.5 128.194 36.4 127.594 36.7 127.094C36.8 126.794 37.0999 126.494 37.2999 126.294C38.6999 124.794 39.7999 121.394 40.2999 119.394C40.6999 117.194 41.3 115.094 41.7 112.894C41.8 112.594 42.5 109.794 42 109.694C41.2 109.394 39.7 109.894 39.7 109.894Z" fill="#050505"/>
<path d="M53.4 122.494C53.4 122.694 52.2 122.594 52.1 122.394C52 122.294 52.6 120.694 52.6 120.594C52.6 120.494 52.3 119.994 52.9 119.994C53.5 119.994 53.2 120.594 53.1 120.694C53.1 120.794 53.5 122.294 53.4 122.494Z" fill="#FAF49E" stroke="#050505" stroke-width="0.4" stroke-linecap="round" stroke-linejoin="round"/>
<path d="M66.9001 91.7938C66.5001 92.5938 65.1 96.1938 65 97.8938C64.9 99.5938 65.4 101.994 64.8 103.894C62.8 109.594 55.3 113.594 51.8 113.494C49.3 113.394 41 111.794 35.1 105.594C30.1 100.394 27.5 69.7938 49.7 71.4938C71.9 73.1938 67.7001 90.0938 66.9001 91.7938Z" fill="#C39170" stroke="#050505" stroke-width="0.5" stroke-linecap="round" stroke-linejoin="round"/>
<g style="mix-blend-mode:multiply" opacity="0.2">
<path d="M52.9 102.894C53.1 102.894 54.4 103.594 55.2 103.594C55.9 103.594 56.7999 103.094 56.7999 103.094C56.7999 103.094 56.6 104.294 54.7 104.294C52.9 104.294 51.9 102.794 52.9 102.894Z" fill="#050505"/>
</g>
<path d="M56.2 100.394C56.3 100.794 57.1 102.594 56.6 103.094C55.8 103.994 53.6999 103.394 52.7999 102.794" fill="#C39170"/>
<path d="M56.2 100.394C56.3 100.794 57.1 102.594 56.6 103.094C55.8 103.994 53.6999 103.394 52.7999 102.794" stroke="#050505" stroke-width="0.5" stroke-linecap="round" stroke-linejoin="round"/>
<path d="M55.6 97.5938C55.6 97.6938 55.4999 97.7938 55.2999 97.7938C55.0999 97.7938 55 97.6938 55 97.4938C55 97.3938 55.0999 97.2938 55.2999 97.2938C55.4999 97.2938 55.6 97.3938 55.6 97.5938Z" fill="#9D5C37"/>
<path d="M53.7999 99.2938C53.7999 99.4938 53.7 99.5938 53.5 99.5938C53.3 99.5938 53.2 99.3938 53.2 99.2938C53.2 99.0938 53.4 98.9938 53.5 98.9938C53.7 98.9938 53.8999 99.1938 53.7999 99.2938Z" fill="#9D5C37"/>
<path d="M57.1 99.4938C57.1 99.6938 56.8999 99.7938 56.7999 99.7938C56.5999 99.6938 56.4 99.5938 56.4 99.4938C56.5 99.2938 56.5999 99.1938 56.7999 99.1938C56.9999 99.1938 57.1 99.2938 57.1 99.4938Z" fill="#9D5C37"/>
<path d="M46 100.994C46 101.094 45.9 101.194 45.7 101.194C45.5 101.194 45.4 101.094 45.4 100.894C45.4 100.794 45.5 100.594 45.7 100.694C45.9 100.694 46 100.794 46 100.994Z" fill="#9D5C37"/>
<path d="M43.6 101.794C43.6 101.994 43.4 102.094 43.2 102.094C43.1 102.094 42.9 101.894 42.9 101.794C42.9 101.594 43.0999 101.494 43.2999 101.494C43.3999 101.494 43.6 101.694 43.6 101.794Z" fill="#9D5C37"/>
<path d="M41.9 99.7938C41.9 99.8938 41.8 99.9938 41.6 99.9938C41.4 99.9938 41.2999 99.8938 41.2999 99.6938C41.2999 99.5938 41.4 99.4938 41.6 99.4938C41.8 99.4938 41.9 99.5938 41.9 99.7938Z" fill="#9D5C37"/>
<path d="M43.1 104.294C43.1 104.394 42.9 104.494 42.7 104.494C42.6 104.494 42.4 104.394 42.4 104.194C42.4 104.094 42.5999 103.994 42.7999 103.994C42.8999 103.994 43.1 104.094 43.1 104.294Z" fill="#9D5C37"/>
<path d="M61.2 101.794C61.2 101.994 61.1 102.094 60.9 102.094C60.7 102.094 60.6 101.894 60.6 101.794C60.6 101.594 60.7 101.494 60.9 101.494C61.1 101.494 61.2 101.694 61.2 101.794Z" fill="#9D5C37"/>
<path d="M64.7 101.094C64.7 101.294 64.4999 101.394 64.2999 101.394C64.1999 101.394 64 101.294 64 101.094C64.1 100.994 64.2 100.794 64.4 100.894C64.6 100.894 64.7 100.994 64.7 101.094Z" fill="#9D5C37"/>
<path d="M63.6 102.994C63.6 103.094 63.4 103.194 63.2 103.194C63 103.194 62.9 103.094 62.9 102.894C62.9 102.794 63.0999 102.694 63.2999 102.694C63.3999 102.694 63.6 102.794 63.6 102.994Z" fill="#9D5C37"/>
<path d="M63.4 105.494C63.4 105.694 63.3 105.794 63.1 105.794C62.9 105.794 62.7999 105.594 62.7999 105.494C62.7999 105.294 63 105.194 63.1 105.194C63.3 105.194 63.5 105.394 63.4 105.494Z" fill="#9D5C37"/>
<path d="M58.2 98.1938C58.2 98.1938 58.4 94.4938 60.6 94.0938C62.5 93.6938 64.7 96.8938 64.7 96.8938C64.7 96.8938 63.4 98.2938 61.5 98.4938C59.5 98.7938 58.2 98.1938 58.2 98.1938Z" fill="#FEFEFE"/>
<path d="M51 97.8938C51 97.8938 47.8 97.9938 45.7 97.4938C43.5 96.8938 42.2 95.6937 42.2 95.6937C42.2 95.6937 45 93.5938 47.1 93.3938C49.2 93.1938 50.4 94.4938 50.6 94.9938C51.1 96.1938 51 97.8938 51 97.8938Z" fill="#FEFEFE"/>
<mask id="mask1_149_63763" style="mask-type:luminance" maskUnits="userSpaceOnUse" x="58" y="94" width="7" height="5">
<path d="M58.1699 98.1638C58.1699 98.1638 58.3999 94.4938 60.5499 94.0938C62.4499 93.7438 64.73 96.9038 64.73 96.9038C64.73 96.9038 63.41 98.2738 61.48 98.5438C59.54 98.8038 58.1699 98.1638 58.1699 98.1638Z" fill="white"/>
</mask>
<g mask="url(#mask1_149_63763)">
<path d="M58.0999 95.6938C57.8999 96.9938 58.8 98.0938 60 98.1938C61.3 98.3938 62.4999 97.4938 62.5999 96.2938C62.7999 95.0938 61.8999 93.8938 60.6999 93.7938C59.3999 93.5938 58.1999 94.4938 58.0999 95.6938Z" fill="#613914"/>
<path d="M59.6 95.9938C59.6 96.3938 59.8999 96.6938 60.2999 96.6938C60.6999 96.6938 61 96.3938 61 95.9938C61 95.5938 60.6999 95.2938 60.2999 95.2938C59.8999 95.2938 59.6 95.5938 59.6 95.9938Z" fill="#050505"/>
<path d="M61 95.1938C61 95.4938 61.1 95.6938 61.4 95.6938C61.6 95.6938 61.7999 95.4938 61.7999 95.2938C61.7999 94.9938 61.6 94.7938 61.4 94.7938C61.2 94.7938 61 94.9938 61 95.1938Z" fill="#FEFEFE"/>
</g>
<mask id="mask2_149_63763" style="mask-type:luminance" maskUnits="userSpaceOnUse" x="42" y="93" width="9" height="5">
<path d="M50.99 97.8538C50.99 97.8538 47.8199 98.0438 45.6799 97.4838C43.5399 96.9238 42.21 95.6938 42.21 95.6938C42.21 95.6938 45.02 93.6038 47.12 93.3938C49.23 93.1838 50.45 94.4838 50.65 95.0138C51.09 96.1938 50.99 97.8538 50.99 97.8538Z" fill="white"/>
</mask>
<g mask="url(#mask2_149_63763)">
<path d="M44.1999 94.8938C43.9999 96.1938 44.8999 97.2938 46.1999 97.3938C47.4999 97.5938 48.5999 96.6938 48.7999 95.4938C48.9999 94.2938 48.0999 93.1938 46.7999 92.9938C45.5999 92.7938 44.3999 93.6938 44.1999 94.8938Z" fill="#613914"/>
<path d="M45.8 95.1938C45.7 95.5938 46.1001 95.8938 46.4001 95.8938C46.8001 95.8938 47.2 95.5938 47.2 95.1938C47.2 94.7938 46.9 94.4938 46.5 94.4938C46.1 94.4938 45.8 94.7938 45.8 95.1938Z" fill="#050505"/>
<path d="M47.1 94.3938C47.1 94.6938 47.3 94.8938 47.5 94.8938C47.8 94.8938 48 94.6938 48 94.4938C48 94.1938 47.8 93.9938 47.6 93.9938C47.4 93.9938 47.2 94.1938 47.1 94.3938Z" fill="#FEFEFE"/>
</g>
<path d="M42.2 95.6937C42.2 95.6937 45 93.5938 47.1 93.3938C49.2 93.1938 50.4 94.2938 50.6 94.9938C51.1 96.1938 51 97.6937 51 97.6937" stroke="#050505" stroke-width="0.5" stroke-linecap="round" stroke-linejoin="round"/>
<path d="M58.2 98.0938C58.2 98.0938 58.4 94.4938 60.6 94.0938C62.5 93.6938 64.7 96.8938 64.7 96.8938" stroke="#050505" stroke-width="0.5" stroke-linecap="round" stroke-linejoin="round"/>
<path d="M59.9 92.6937C60.9 92.0937 62 91.4938 63.1 91.0938C63.2333 91.0271 63.3667 90.9938 63.5 90.9938C63.5667 90.9271 63.6666 90.8938 63.7999 90.8938C63.7999 90.8938 63.8334 90.8938 63.9 90.8938C63.8334 90.8938 63.8334 90.8938 63.9 90.8938C63.9 90.8938 63.9333 90.8604 64 90.7938C64.1 90.7938 63.9 90.7938 64.1 90.7938C64 90.7938 64 90.7938 64 90.8938C64.0667 90.8938 64.1333 90.8938 64.2 90.8938C64.7 91.1938 65.0999 91.6937 65.2999 92.1937C65.4999 92.4937 66.4999 92.1938 66.2999 91.8938C65.7999 90.9938 65 90.0938 63.9 90.2938C62.8 90.4938 61.6 91.0938 60.6 91.5938C60.2 91.8604 59.7666 92.1271 59.2999 92.3938C59.0999 92.4938 59 92.5938 59.2 92.7938C59.3 92.8938 59.7 92.7937 59.9 92.6937Z" fill="#050505"/>
<path d="M41.6 92.9938C42 92.5938 42.4334 92.2604 42.9001 91.9938C43.4001 91.5938 44 91.1938 44.6 91.0938C45.3 90.9938 46 91.1938 46.7 91.2938C47.7667 91.4271 48.8334 91.5938 49.9001 91.7938C50.5001 91.8938 51.2001 91.9938 51.9001 92.1938C52.1001 92.2938 51.9001 91.9938 51.9001 91.8938C51.8001 91.6938 51.6001 91.4938 51.4001 91.3938C50.7001 91.1938 50.0001 91.0938 49.4001 90.9938C48.2667 90.7938 47.1667 90.6271 46.1 90.4938C45.4 90.3938 44.6001 90.1938 43.9001 90.2938C42.7001 90.5938 41.7001 91.4938 40.9001 92.1938C40.7001 92.3938 41.4 93.0938 41.6 92.9938Z" fill="#050505"/>
<path d="M47.6 104.494C47.8 104.594 50.7 105.894 52.9 105.994C55.1 106.194 57 106.094 57 106.094C57 106.094 55.4 108.594 53.4 108.494C49.7 108.194 47.6 104.494 47.6 104.494Z" fill="#050505" stroke="#050505" stroke-width="0.5" stroke-linecap="round" stroke-linejoin="round"/>
<path d="M49 106.294C49.1 106.294 50.8 106.894 52.6 107.094C54.6 107.394 56.1 107.194 56.1 107.194L57 106.094C57 106.094 53.8 106.194 51.6 105.794C49.5 105.394 47.6 104.494 47.6 104.494C47.6 104.494 48.2 105.494 49 106.294Z" fill="#FEFEFE" stroke="#050505" stroke-width="0.5" stroke-linecap="round" stroke-linejoin="round"/>
<path d="M39.1999 94.1938C41.1999 90.5938 58.4999 78.7938 58.7999 77.4938C58.9999 76.0938 52.1999 70.6938 52.1999 70.6938C48.9999 68.8938 42.4 69.7938 37.4 72.0938C32.3 74.4938 30.1 77.9938 29.5 80.0938C28.4 83.1938 28.4 90.6938 31.1 93.6938C33.8 96.6938 38.6999 95.0938 39.1999 94.1938Z" fill="#C6A9C7"/>
<path d="M39.2 94.1938C41.2 90.5938 58.4999 78.7938 58.7999 77.4938C58.9999 76.0938 52.2 70.6938 52.2 70.6938C49 68.8938 42.4 69.7938 37.4 72.0938C32.3 74.4938 30.1 77.9938 29.5 80.0938" stroke="#814E57" stroke-width="0.5" stroke-linecap="round" stroke-linejoin="round"/>
<path d="M23.4 102.194C21.3 102.894 14.7999 101.994 16.7999 101.094C20.0999 99.3938 20.5 98.7938 22.5 96.9938C25.4 94.3938 27.1 89.2938 27.9 86.1938C28.3 84.7938 29 81.7938 29.5 80.0938C30.1 77.9938 32.3 74.4938 37.4 72.0938C42.4 69.7938 48.8999 68.8938 52.0999 70.6938L51.2999 70.3938C49.3999 70.2938 41.0999 70.5938 38.1999 76.5938C35.3999 82.6938 31.9 93.4938 29.4 97.0938C27.8 99.1938 26.5 101.194 23.4 102.194Z" fill="#AF94AF"/>
<path d="M52.1999 70.6938C48.9999 68.8938 42.4 69.7938 37.4 72.0938C32.3 74.4938 30.3 78.0938 29.5 80.0938C28.9 81.3938 28 85.6938 27.9 86.1938C27.1 89.1938 25.3 94.4938 22.4 97.0938C20.4 98.8938 20.1 99.3938 17 100.894C14.6 101.994 20.8999 103.194 24.1999 101.894C26.2999 101.094 28.7999 98.1938 30.0999 95.9938" stroke="#814E57" stroke-width="0.5" stroke-linecap="round" stroke-linejoin="round"/>
<path d="M39.2 94.1938C37.3 97.7938 36.1001 104.794 35.9001 107.294C35.9001 107.294 34.8 110.194 32.7 112.194C30.5 114.294 25.3 114.994 24.5 114.194C24 113.794 26.4 112.394 27 111.794C28.1 110.594 29.1 108.194 29.1 108.194C31.1 104.294 31.8 94.8938 33.6 93.9938" fill="#C6A9C7"/>
<path d="M29 108.594C29.3 107.894 27.7001 110.594 28.9001 111.494C30.2001 112.394 32.7001 111.094 34.4001 109.794L35.3 108.794C34.9 109.794 33.1 111.894 32.3 112.794C30.1 114.794 25.1 114.594 24.6 114.394C24 114.194 25.8001 112.994 26.4001 112.394C27.1001 111.494 28.9 109.194 29 108.594Z" fill="#AF94AF"/>
<path d="M39.1999 94.1938C37.2999 97.7938 36.2 104.794 36 107.194C36 107.194 34.9 110.494 32.6 112.394C28.7 115.794 23.7999 114.494 24.2999 114.094C24.8999 113.594 25.9 112.894 26.9 111.894C28 110.594 28.8 109.294 29.1 108.194C30 105.494 30.5 103.094 30.5 103.094" stroke="#814E57" stroke-width="0.5" stroke-linecap="round" stroke-linejoin="round"/>
<path d="M34.2 109.794C32.5 111.094 30.1 112.094 28.8 111.194C27.6 110.294 29.1 107.694 29.1 106.894C29.1 106.194 28.1 106.894 27.6 105.994C27 105.094 27.6 104.294 30.2 100.694C32.7 97.0938 35.4 82.6938 38.2 76.5938C41.1 70.5938 49.4 70.2938 51.3 70.3938L52.1 70.6938C48.9 68.8938 42.4001 69.7938 37.4001 72.0938C32.3001 74.4938 30.1 77.9938 29.5 80.0938C29 81.7938 28.3001 84.7938 27.9001 86.1938C27.1001 89.2938 24.8001 94.0938 21.9001 96.6938C19.9001 98.4938 17.4 98.8938 17.6 100.894C17.8 102.994 23.1001 101.794 23.9001 102.094C24.6001 102.294 24.5001 102.894 23.4001 103.694C22.5001 104.494 19.9 105.594 19.1 106.894C18.4 108.194 18.5 110.294 21.1 110.494C22.7 110.594 25.7 109.694 26.3 109.794C26.8 109.994 26.7 110.294 26.3 111.094C26 111.894 24.6001 114.094 26.4001 115.194C27.7001 115.994 30.6 114.394 32.7 112.394C33.6 111.494 34.2 110.394 34.5 109.394L34.2 109.794Z" fill="#AF94AF"/>
<path d="M46.7999 71.2937C46.3999 70.7937 40.7999 71.3938 37.2999 74.8938C33.8999 78.4938 30.5 87.7938 28.9 94.4938C27.8 99.0938 25.9999 101.594 25.2999 102.694C24.9999 103.094 24.3999 104.194 23.7999 104.694C22.8999 105.394 21.0999 107.594 19.1999 108.294C16.4999 109.294 16.4 110.394 20.6 110.494C22.1 110.494 24.7999 110.194 25.6999 109.994C26.6999 109.694 27.7999 109.094 27.7999 109.094C27.7999 109.094 31.1 106.394 32.6 104.194C34.1 101.994 37.8 86.8937 40.1 80.1937C42.3 73.4937 47.0999 71.6937 46.7999 71.2937Z" fill="#F38BA1"/>
<path opacity="0.1" d="M28.6999 108.194C28.7999 107.694 28.6999 107.194 28.2999 106.794C27.8999 106.394 27.2999 106.494 26.7999 106.294C25.9999 105.994 25.4999 105.294 25.2999 104.494C25.0999 103.694 25.5 103.094 25.6 102.294C25.3 102.494 23.6999 104.894 22.6999 105.994C21.4999 107.294 19.4999 108.394 17.6999 109.094C15.5999 110.094 21.2999 110.494 21.2999 110.494C21.2999 110.494 24.6 110.294 26.1 109.594C27.9 108.794 28.6999 108.194 28.6999 108.194Z" fill="#050505"/>
<path d="M30.0001 107.194C29.1001 108.094 27.3001 109.294 26.0001 109.694C22.8001 110.794 18.9 110.494 17.7 109.994C16.2 109.294 18.9001 108.794 20.4001 107.794C23.3001 105.794 25.6001 102.594 26.4001 101.094C27.2001 99.5938 27.6 98.2938 27.6 98.2938" stroke="#814E57" stroke-width="0.5" stroke-linecap="round" stroke-linejoin="round"/>
<path d="M52.2 69.8938C53.3 69.3938 54 69.2937 56.1 69.7937C58.4 70.2937 64.9 73.0938 67.9 79.9938C72.3 90.0938 67.5 97.1938 67.5 96.0938C67.3 94.3938 67.3 91.5938 66.5 89.0938C65.3 85.2938 63.5 84.5938 63.5 84.5938C62.5 83.5938 58.3999 78.9938 57.2999 78.0938" fill="#C6A9C7"/>
<path d="M52.2 69.8938C53.3 69.3938 54 69.2937 56.1 69.7937C58.4 70.2937 64.9 73.0938 67.9 79.9938C72.3 90.0938 67.5 97.1938 67.5 96.0938C67.3 94.3938 67.3 91.5938 66.5 89.0938C65.3 85.2938 63.5 84.5938 63.5 84.5938C62.5 83.5938 58.3999 78.9938 57.2999 78.0938" stroke="#814E57" stroke-width="0.5" stroke-linecap="round" stroke-linejoin="round"/>
<path d="M38.7 93.8938C38.4 94.8938 38 95.8938 38.1 98.1938C38.2 100.494 38.4 107.794 37.5 108.194C36.4 108.494 33.8999 104.294 33.7999 100.294" fill="#C6A9C7"/>
<path d="M38.7 93.8938C38.4 94.8938 38 95.8938 38.1 98.1938C38.2 100.494 38.4 107.794 37.5 108.194C36.4 108.494 33.8999 104.294 33.7999 100.294" stroke="#814E57" stroke-width="0.5" stroke-linecap="round" stroke-linejoin="round"/>
<path d="M63.9001 83.0938C63.6001 84.2938 63.2 85.2938 61.8 86.3938C60.4 87.4938 58.5 87.7938 58.8 87.1938C59.4 85.6938 59.8 84.5938 59.7 82.5938C59.7 80.4938 58.2 78.4938 56.7 77.0938C56 76.3938 56.4001 75.4938 56.4001 75.4938" fill="#C6A9C7"/>
<path d="M63.9001 83.0938C63.6001 84.2938 63.2 85.2938 61.8 86.3938C60.4 87.4938 58.5 87.7938 58.8 87.1938C59.4 85.6938 59.8 84.5938 59.7 82.5938C59.7 80.4938 58.2 78.4938 56.7 77.0938C56 76.3938 56.4001 75.4938 56.4001 75.4938" stroke="#814E57" stroke-width="0.5" stroke-linecap="round" stroke-linejoin="round"/>
<path d="M57.0999 77.4938C56.5999 82.4938 53.1999 87.1938 47.4999 90.6938C38.5999 96.1938 26.7999 94.7938 28.9999 93.5938C31.8999 91.8938 33.6999 91.8938 37.5999 88.2938C39.6999 86.2938 42.3999 80.2938 41.2999 77.0938C41.0999 76.5938 44.0999 74.1938 47.7999 73.1938C50.9999 72.4938 55.5 72.0938 56.4 74.0938C57.3 75.9938 57.0999 77.4938 57.0999 77.4938Z" fill="#C6A9C7"/>
<path d="M56.6999 74.6938C57.0999 75.5938 57.3 76.3938 57.1 77.4938C56.6 82.4938 53.2 87.1938 47.5 90.6938C38.6 96.1938 26.7 94.3938 29 93.5938C32.5 92.2938 33.7 91.8938 37.6 88.2938C39.7 86.2938 42.9999 79.9938 41.2999 77.0938" stroke="#814E57" stroke-width="0.5" stroke-linecap="round" stroke-linejoin="round"/>
<path d="M31 80.4938C31.1 81.5938 30.5001 82.6937 29.9001 82.7937C29.3001 82.7937 29.0001 81.7937 28.9001 80.7937C28.7001 79.6937 29.1 78.7937 29.7 78.6937C30.3 78.5937 30.9 79.3938 31 80.4938Z" fill="#AF94AF"/>
<path d="M30 82.6938C27.5 86.9938 22.9 87.5938 24 86.7938C25.7 85.5938 27 83.4938 29.6 78.6938" fill="#AF94AF"/>
<path d="M30 82.6938C27.5 86.9938 22.9 87.5938 24 86.7938C25.7 85.5938 27 83.4938 29.6 78.6938" stroke="#814E57" stroke-width="0.5" stroke-linecap="round" stroke-linejoin="round"/>
<path d="M41.4 66.3938C41 66.4938 39.4 67.7938 43.1 67.8938C46.9 67.9938 47.7 67.3938 47.9 66.9938C48.2 66.4938 47.1 66.0938 46.2 66.1938C45.3 66.1938 41.4 66.3938 41.4 66.3938Z" fill="#FAF49E" stroke="#413F28" stroke-width="0.4" stroke-linecap="round" stroke-linejoin="round"/>
<path d="M41.4 66.7938C41.9 65.3938 42 64.1938 42.2 62.3938C42.3 60.9938 42.2 59.1938 42.9 59.1938C43.6 59.1938 45.9 61.4938 46.5 63.5938C47.2 65.7938 47.1 66.0938 47.5 66.5938" fill="#FAF49E"/>
<path d="M41.4 66.7938C41.9 65.3938 42 64.1938 42.2 62.3938C42.3 60.9938 42.2 59.1938 42.9 59.1938C43.6 59.1938 45.9 61.4938 46.5 63.5938C47.2 65.7938 47.1 66.0938 47.5 66.5938" stroke="#413F28" stroke-width="0.5" stroke-linecap="round" stroke-linejoin="round"/>
<path d="M43.5 60.1938C44.4 60.9938 45.6 62.7938 46.2 65.2938" stroke="#FAF49E" stroke-width="0.5" stroke-linecap="round" stroke-linejoin="round" stroke-dasharray="3.65 3.65"/>
<path d="M34.4 70.3938C34 70.5938 33 72.3938 36.5 71.1938C40 69.9938 40.5999 69.1938 40.5999 68.6938C40.6999 68.0938 39.5999 68.1938 38.6999 68.4938C37.8999 68.8938 34.4 70.3938 34.4 70.3938Z" fill="#FAF49E" stroke="#413F28" stroke-width="0.4" stroke-linecap="round" stroke-linejoin="round"/>
<path d="M34.5 70.6938C34.4 69.2938 34.1 68.0938 33.6 66.2938C33.3 64.9938 32.5999 63.2938 33.2999 63.0938C33.8999 62.8938 36.7999 64.2938 38.1999 65.9938C39.5999 67.7938 39.6 68.1938 40.1 68.4938" fill="#FAF49E"/>
<path d="M34.5 70.6938C34.4 69.2938 34.1 68.0938 33.6 66.2938C33.3 64.9938 32.5999 63.2938 33.2999 63.0938C33.8999 62.8938 36.7999 64.2938 38.1999 65.9938C39.5999 67.7938 39.6 68.1938 40.1 68.4938" stroke="#413F28" stroke-width="0.5" stroke-linecap="round" stroke-linejoin="round"/>
<path d="M34.2 63.8938C35.3 64.2938 37 65.4938 38.5 67.6938" stroke="#FAF49E" stroke-width="0.5" stroke-linecap="round" stroke-linejoin="round" stroke-dasharray="3.65 3.65"/>
<path opacity="0.1" d="M41.6 92.4938C37.9 93.9938 36.9 95.9938 33.1 94.5938C32.5 94.2938 30.4 92.5938 29.5 92.0938C28.2 91.3938 27 91.5938 25.6 91.3938C25.3 87.8938 25.9 87.8938 28.7 85.7938C31.5 83.6938 35 82.7938 38.5 82.1938C46.4 80.7938 54.5 81.1938 62.6 81.8938C65.2 82.0938 68.3001 82.6938 69.4001 85.0938C69.8001 85.9938 70.2 87.9938 69.7 88.8938C69.1 90.0938 68.5 89.7938 67.1 89.6938C64.2 89.5938 61.3001 89.4938 58.4001 89.4938C52.8001 89.5938 46.9 90.2938 41.6 92.4938Z" fill="#050505"/>
<path d="M70.7999 88.1938C70.6999 89.0938 66.7999 87.5938 63.1999 87.3938C58.4999 87.2938 49.6999 87.8938 47.1999 88.3938C44.5999 88.8938 49.0999 86.0938 56.9999 85.8938C64.7999 85.6938 70.7999 88.1938 70.7999 88.1938Z" fill="#12616B" stroke="#1B3430" stroke-width="0.4" stroke-linecap="round" stroke-linejoin="round"/>
<path d="M24.0999 91.5938C23.2999 91.3938 22.0999 84.0938 23.6999 79.2938C25.2999 74.5938 27.2999 72.4938 32.5999 69.3938C37.8999 66.1938 46.1 65.0938 56.4 67.6938C66.6 70.1938 68.1 75.9938 69 77.7938C70 79.8938 71.3999 88.3938 70.7999 88.1938C64.4999 85.8938 53.3999 86.9938 50.6999 87.3938C47.8999 87.8938 42.0999 89.7938 39.2999 91.8938C36.5999 93.8938 35.7999 93.7938 34.6999 93.5938C33.4999 93.4938 30.7 90.4938 28.9 90.5938C27.1 90.6938 25.4999 91.8938 24.0999 91.5938Z" fill="#76C9BA" stroke="#1B3430" stroke-width="0.5" stroke-linecap="round" stroke-linejoin="round"/>
<path d="M64.3 78.2938C64.5 78.1938 64.8001 78.6938 65.0001 78.7938C65.3334 79.2604 65.6334 79.7604 65.9001 80.2938C66.2001 80.8938 66.9 82.7938 66.3 83.3938C65.7 83.9938 64.6 82.8938 64.1 82.3938C63.6 81.9938 63.8 80.7938 63.8 80.1938C63.9 79.6938 63.9 78.3938 64.3 78.2938Z" fill="#1F7C6C" stroke="#1B3430" stroke-width="0.4" stroke-linecap="round" stroke-linejoin="round"/>
<path d="M64.2 78.8938C64.1 78.9938 64.0001 79.1938 63.9001 79.3938C63.7667 80.1271 63.7 80.8271 63.7 81.4938C63.6 81.9938 63.5 82.7938 63.8 83.1938C64.4 83.6938 65.6 83.8938 66.2 83.3938C66.3 82.4938 65.8001 81.1938 65.4001 80.3938C65.2001 80.0938 64.6 78.8938 64.2 78.8938Z" fill="#103D36" stroke="#1B3430" stroke-width="0.4" stroke-linecap="round" stroke-linejoin="round"/>
<path d="M55.7999 78.5938C55.9999 78.4938 56.4 78.9937 56.6 79.1937C57 79.5937 57.3666 80.0604 57.7 80.5938C58.1 81.1938 58.9 82.7937 58.2 83.2937C57.4 83.9937 56.3 83.2937 55.5 82.7937C54.9 82.3937 55.1 81.1938 55.1 80.4938C55.2 79.9938 55.3999 78.6938 55.7999 78.5938Z" fill="#1F7C6C" stroke="#1B3430" stroke-width="0.4" stroke-linecap="round" stroke-linejoin="round"/>
<path d="M55.6 79.2938C55.5 79.2938 55.3999 79.4938 55.2999 79.6938C55.1666 80.4271 55.0667 81.1604 55 81.8938C54.9 82.2938 54.7999 83.1938 55.1999 83.4938C55.9999 84.0938 57.3 83.8938 58.1 83.3938C58.1 82.4938 57.6 81.4938 57.1 80.7938C56.9 80.3938 56.1 79.1938 55.6 79.2938Z" fill="#103D36" stroke="#1B3430" stroke-width="0.4" stroke-linecap="round" stroke-linejoin="round"/>
<path d="M36.7999 93.5938C35.0999 92.2938 32.1 88.0937 29.7 87.6937C27.3 87.2937 26.6999 81.9938 26.7999 80.8938C26.8999 79.7938 27.4 77.5938 27 77.9938C26.7 78.3938 26.2 80.9938 25.6 80.5938C25 80.2938 25.3 77.2938 25.4 75.9938C25.5 75.4938 25.7 74.3938 26.7 74.0938C27.8 73.7938 32.5999 71.6938 34.7999 72.0938C36.9999 72.5938 41 74.5938 41.7 75.3938C42.4 76.1938 38.2999 75.5938 38.2999 75.5938C38.2999 75.5938 41.5 76.4938 44.1 77.7938C51.5 81.6938 52.2 87.0938 52.2 87.0938C52.2 87.0938 49.6 87.5938 45.2 89.0938C39.6 90.9938 36.7999 93.5938 36.7999 93.5938Z" fill="#A4D9D5"/>
<path opacity="0.1" d="M31.7999 70.0938C30.4999 70.3938 24.4999 74.2937 23.6999 79.2937C22.7999 84.3937 22.6999 91.1938 23.6999 91.3938C24.5999 91.6938 27.6 90.5938 28.9 90.5938C30.1 90.5938 33.7999 93.4938 34.6999 93.4938C34.6999 93.4938 34.2 90.8938 31.9 87.0938C29.6 83.3938 30.4 76.4938 32.1 74.8938C33.8 73.2938 33.5999 69.5938 31.7999 70.0938Z" fill="#050505"/>
<path d="M24.0999 91.5938C23.2999 91.3938 22.0999 84.0938 23.6999 79.2938C25.2999 74.5938 27.2999 72.4938 32.5999 69.3938C37.8999 66.1938 46.1 65.0938 56.4 67.6938C66.6 70.1938 68.2 75.9938 69 77.7938C69.9 79.8938 71.3999 88.3938 70.7999 88.1938C64.4999 85.8938 53.3999 86.9938 50.6999 87.3938C47.8999 87.8938 42.0999 89.7938 39.2999 91.8938C36.5999 93.8938 35.9999 93.7938 34.7999 93.5938C33.5999 93.4938 30.7 90.4938 28.9 90.5938C27.1 90.6938 25.4999 91.8938 24.0999 91.5938Z" stroke="#1B3430" stroke-width="0.5" stroke-linecap="round" stroke-linejoin="round"/>
<path d="M64 73.5938C64.5 74.0938 65.3 74.8938 66.1 76.1938" stroke="#D7EEEE" stroke-width="1.1" stroke-linecap="round" stroke-linejoin="round"/>
<path d="M66.2999 76.5938C66.7999 77.4938 67.2999 78.6938 67.7999 80.1938" stroke="#D7EEEE" stroke-width="1.1" stroke-linecap="round" stroke-linejoin="round" stroke-dasharray="1.12 1.12"/>
<path d="M68 80.8938C68.2667 81.8271 68.5 82.8938 68.7 84.0938" stroke="#D7EEEE" stroke-width="1.1" stroke-linecap="round" stroke-linejoin="round"/>
<path d="M50.6 66.4938C50.1 66.5938 48.4 67.5938 52 68.3938C55.6 69.1938 56.6001 68.7938 56.9001 68.3938C57.2001 67.8938 56.2 67.3938 55.3 67.2938C54.4 67.0938 50.6 66.4938 50.6 66.4938Z" fill="#FAF49E" stroke="#413F28" stroke-width="0.5" stroke-linecap="round" stroke-linejoin="round"/>
<path d="M50.5 66.8938C51.3 65.5938 51.6 64.4938 52.1 62.6938C52.5 61.3938 52.8 59.5938 53.5 59.7938C54.1 59.8938 55.9 62.5938 56.2 64.7938C56.4 66.9938 56.2 67.3938 56.5 67.8938" fill="#FAF49E"/>
<path d="M50.5 66.8938C51.3 65.5938 51.6 64.4938 52.1 62.6938C52.5 61.3938 52.8 59.5938 53.5 59.7938C54.1 59.8938 55.9 62.5938 56.2 64.7938C56.4 66.9938 56.2 67.3938 56.5 67.8938" stroke="#413F28" stroke-width="0.5" stroke-linecap="round" stroke-linejoin="round"/>
<path d="M53.9 60.8938C54.6 61.8938 55.4 63.7938 55.5 66.4938" stroke="#FAF49E" stroke-width="0.5" stroke-linecap="round" stroke-linejoin="round" stroke-dasharray="3.65 3.65"/>
<path d="M43 139.194C43 139.194 44 135.094 44.5 133.294C45.2 131.094 43.6 131.694 42 131.294C40.5 130.794 39.4999 129.294 38.7999 131.694C38.0999 134.194 37.1 137.594 37.1 137.594C36 141.194 42.2 142.994 43 139.194Z" fill="#C39170" stroke="#050505" stroke-width="0.5" stroke-linecap="round" stroke-linejoin="round"/>
<path opacity="0.4" d="M38.7 137.794C38.4 139.794 41.2001 141.694 39.5001 141.094C37.9001 140.694 36.6 139.294 37.1 137.594C37.1 137.594 38.1 134.194 38.8 131.694C39.5 129.294 40.0001 131.594 41.5001 132.094C43.0001 132.494 45.2001 131.094 44.5001 133.294C44.0001 135.094 40.4001 133.294 39.9001 134.894C39.7001 135.594 38.9 136.394 38.7 137.794Z" fill="#050505"/>
<path d="M45.7999 130.394C46.4999 131.094 46.6 131.794 46.6 132.394C46.7 133.494 45.2999 136.594 45.2999 136.594C45.2999 136.594 41.6999 135.694 39.7999 134.894C37.9999 134.094 36.2999 133.094 36.2999 133.094L38 129.994" fill="#475395"/>
<path d="M45.7999 130.394C46.4999 131.094 46.6 131.794 46.6 132.394C46.7 133.494 45.2999 136.594 45.2999 136.594C45.2999 136.594 41.6999 135.694 39.7999 134.894C37.9999 134.094 36.2999 133.094 36.2999 133.094L38 129.994" stroke="#050505" stroke-width="0.5" stroke-linecap="round" stroke-linejoin="round"/>
<path opacity="0.4" d="M38.7 134.394L36.2999 133.094L38.5 129.094C38.5 129.094 39.9999 127.094 41.7999 127.694C42.4999 127.894 38.7 134.394 38.7 134.394Z" fill="#050505"/>
<path d="M35.9 141.494C35.9 141.594 36 141.694 36.1 141.694L46 142.094C46.1 142.094 46.2 141.994 46.2 141.894V141.394C46.2 141.294 46.1 141.194 46 141.194L36.1 140.794C36 140.794 35.9 140.894 35.9 140.994V141.494Z" fill="#BABAC6" stroke="#050505" stroke-width="0.5" stroke-linecap="round" stroke-linejoin="round"/>
<path d="M40.9 137.394C40.9 137.394 40.8 136.894 41.6 136.894C42 136.894 43.1 136.994 43.4 136.994C44 136.994 43.7 137.394 43.5 137.794C43.3 138.194 43.2 138.394 43.5 138.794L44.4 139.994L42.5 140.994L40.9 138.694V137.394Z" fill="#86657B" stroke="#050505" stroke-width="0.5" stroke-linecap="round" stroke-linejoin="round"/>
<path d="M43.5 141.094L36.1 140.794C36.1 140.794 36.2 139.294 36.2 138.794C36.2 138.294 36.5 137.994 37.1 138.094C37.6 138.094 38.0999 138.594 39.2999 138.094C40.1999 137.694 40.3999 137.694 40.7999 137.594C41.2999 137.394 41.4 137.694 41.5 138.094L41.7 138.894" fill="#86657B"/>
<path d="M43.5 141.094L36.1 140.794C36.1 140.794 36.2 139.294 36.2 138.794C36.2 138.294 36.5 137.994 37.1 138.094C37.6 138.094 38.0999 138.594 39.2999 138.094C40.1999 137.694 40.3999 137.694 40.7999 137.594C41.2999 137.394 41.4 137.694 41.5 138.094L41.7 138.894" stroke="#050505" stroke-width="0.5" stroke-linecap="round" stroke-linejoin="round"/>
<path d="M46 141.194C46 140.894 44.9 139.994 44.4 139.994C43.3 139.994 42.5 141.094 42.5 141.094L46 141.194Z" fill="#BABAC6" stroke="#050505" stroke-width="0.4" stroke-linecap="round" stroke-linejoin="round"/>
<path d="M38.7 139.694C38.7 139.994 38.4 140.294 38 140.294C37.6 140.294 37.2999 139.994 37.2999 139.594C37.2999 139.194 37.7 138.894 38 138.994C38.4 138.994 38.7 139.294 38.7 139.694Z" fill="#BABAC6" stroke="#43323E" stroke-width="0.4" stroke-linecap="round" stroke-linejoin="round"/>
<path d="M43.2999 138.094C43.2999 138.094 42.2 138.194 41.7 138.494C40.9 138.794 40.2 139.194 40.2 139.194L40.6 139.894C40.6 139.894 41.2 139.494 42 139.294C42.8 139.094 43.7 138.994 43.7 138.994L43.2999 138.094Z" fill="#FAF49E" stroke="#413F28" stroke-width="0.4" stroke-linecap="round" stroke-linejoin="round"/>
<path d="M28.6 119.894C28.5 120.494 28.6 120.694 28.6 120.694C28.6 120.694 28.6999 121.594 31.7999 122.694C33.3999 123.294 35 123.294 35.2 123.294C35.8 123.394 36.6 121.394 37.4 120.394C38.4 118.994 39.8 118.294 41 116.994C42.3 115.494 42.2 113.294 40.1 111.494C37.9 109.594 35.2 111.194 34.1 112.294C32.7 113.794 30.5 116.294 30 117.194C29.4 117.994 28.6 119.394 28.6 119.894Z" fill="#475395" stroke="#050505" stroke-width="0.5" stroke-linecap="round" stroke-linejoin="round"/>
<path opacity="0.4" d="M39.9 111.294C39.9 111.294 37.7 109.594 35.2 111.494C34.8 111.794 31.7 114.394 30.2 116.794C28.4 119.494 28.2999 120.994 28.2999 120.994L29.7999 121.794C29.7999 121.794 35.6 113.394 37.6 112.094C38.6 111.494 39.9 111.294 39.9 111.294Z" fill="#050505"/>
<path d="M33.2 125.794C33.1333 125.727 33.0667 125.694 33 125.694C32 125.36 31.0333 124.994 30.1 124.594C29.5666 124.327 29 124.06 28.4 123.794C28.3334 123.794 28.2333 123.76 28.1 123.694C28.0333 123.694 28 123.727 28 123.794C27.9333 123.927 27.8666 124.06 27.7999 124.194C27.4666 125.127 27.1333 126.06 26.7999 126.994C26.6666 127.26 26.6 127.56 26.6 127.894C26.6 128.16 26.6666 128.427 26.7999 128.694C26.9333 128.894 27.0666 129.06 27.2 129.194C27.4 129.394 27.6334 129.594 27.9 129.794C28.5 130.127 29.1333 130.36 29.7999 130.494C30.0666 130.56 30.3333 130.594 30.6 130.594C30.9333 130.594 31.2666 130.494 31.6 130.294C31.7333 130.16 31.8667 129.994 32 129.794C32.1333 129.594 32.2333 129.36 32.2999 129.094C32.3666 129.027 32.3666 128.994 32.2999 128.994C32.0333 128.86 31.8333 128.66 31.7 128.394C31.6333 128.327 31.6 128.26 31.6 128.194C31.5333 128.127 31.5 128.027 31.5 127.894C31.4333 127.827 31.4 127.76 31.4 127.694C31.4 127.594 31.5 127.494 31.6 127.394C31.7 127.394 31.9 127.394 32 127.494C32 127.56 32 127.627 32 127.694C32.1333 127.894 32.2667 128.06 32.4 128.194C32.5334 128.394 32.7333 128.494 33 128.494C33.2 128.56 33.3667 128.494 33.5 128.294C33.7 128.027 33.7666 127.727 33.7 127.394C33.6333 127.194 33.5667 126.994 33.5 126.794C33.3667 126.46 33.2666 126.127 33.2 125.794Z" fill="#050505"/>
<path d="M33.9001 125.794C33.9001 125.794 33.9 125.994 34 126.394C34 126.527 34.0333 126.66 34.1 126.794C34.1667 126.927 34.2 127.06 34.2 127.194C34.4 127.594 34.3667 128.027 34.1 128.494C33.9667 128.694 33.8 128.86 33.6 128.994C33.5333 128.994 33.4667 129.027 33.4001 129.094C33.2667 129.094 33.1334 129.094 33 129.094C33 129.094 33 129.127 33 129.194C32.9334 129.26 32.9001 129.294 32.9001 129.294C32.8334 129.494 32.7333 129.694 32.6 129.894C32.5 130.294 32.2 130.594 31.8 130.794C31.4666 131.06 31.0667 131.194 30.6 131.194C30.4 131.194 30.2333 131.194 30.1 131.194C29.9667 131.194 29.8333 131.16 29.7 131.094C29.0333 130.96 28.3666 130.727 27.7 130.394C27.3666 130.194 27.0666 129.927 26.8 129.594C26.6 129.394 26.4333 129.16 26.3 128.894C26.0333 128.427 25.9667 127.927 26.1 127.394C26.1 127.194 26.1333 126.96 26.2 126.694C26.4 126.227 26.6 125.76 26.8 125.294C27 124.794 27.4 124.094 27.6 123.594C27.6 123.527 27.6 123.46 27.6 123.394C27.6667 123.327 27.6667 123.26 27.6 123.194C27.5333 123.127 27.5333 123.027 27.6 122.894C27.6 122.827 27.6333 122.76 27.7 122.694C27.7 122.594 29.5 123.494 29.5 123.494C29.5667 123.494 29.6333 123.527 29.7 123.594C30.4 123.894 30.9 124.294 31.6 124.594C32.2667 124.86 32.9666 125.094 33.7 125.294C33.7666 125.36 33.8334 125.394 33.9001 125.394C33.9667 125.394 34 125.394 34 125.394C34 125.394 33.9001 125.694 33.9001 125.794Z" fill="#050505"/>
<path d="M33.2 125.794C33.2666 126.127 33.3667 126.46 33.5 126.794C33.5667 126.994 33.6333 127.194 33.7 127.394C33.7666 127.727 33.7 128.027 33.5 128.294C33.3667 128.494 33.2 128.56 33 128.494C32.7333 128.494 32.5334 128.394 32.4 128.194C32.2667 128.06 32.1333 127.894 32 127.694C32 127.627 32 127.56 32 127.494C31.9 127.394 31.7 127.394 31.6 127.394C31.5 127.494 31.4 127.594 31.4 127.694C31.4 127.76 31.4333 127.827 31.5 127.894C31.5 128.027 31.5333 128.127 31.6 128.194C31.6 128.26 31.6333 128.327 31.7 128.394C31.8333 128.66 32.0333 128.86 32.2999 128.994C32.3666 128.994 32.3666 129.027 32.2999 129.094C32.2333 129.36 32.1333 129.594 32 129.794C31.8667 129.994 31.7333 130.16 31.6 130.294C31.2666 130.494 30.9333 130.594 30.6 130.594C30.3333 130.594 30.0666 130.56 29.7999 130.494C29.1333 130.36 28.5 130.127 27.9 129.794C27.6334 129.594 27.4 129.394 27.2 129.194C27.0666 129.06 26.9333 128.894 26.7999 128.694C26.6666 128.427 26.6 128.16 26.6 127.894C26.6 127.56 26.6666 127.26 26.7999 126.994C27.1999 125.794 27.7 124.994 28 124.094C28.0667 123.96 28.1333 123.794 28.2 123.594C28.2 123.594 28.2333 123.594 28.2999 123.594C28.4333 123.66 28.5333 123.694 28.6 123.694C29.2 123.994 29.6 124.294 30.1 124.594C31.0333 124.994 32 125.36 33 125.694C33.0667 125.694 33.1333 125.727 33.2 125.794Z" fill="#C39170"/>
<path d="M34 125.794C33.8 125.794 32 125.394 30.7 124.994C29.6 124.594 28 123.594 27.6 123.294C27.3 122.994 28.5 120.994 28.7 120.894C28.9 120.894 30.4 121.894 31.6 122.294C32.8 122.694 35 123.194 35.2 123.394C35.3 123.494 34.5 125.794 34 125.794Z" fill="#EBEDEF" stroke="#050505" stroke-width="0.5" stroke-linecap="round" stroke-linejoin="round"/>
<path d="M34.9 124.194C34.9 124.194 34.3 124.094 33.7 123.994C33.1 123.794 32 123.494 31.9 123.394C31.6 123.294 30.7999 122.094 30.7999 122.094L28.7 120.894C28.7 120.894 27.8999 121.794 27.7999 122.194C27.5999 122.594 27.5 123.194 27.5 123.194L30.1 124.594C30.1 124.594 31.3 124.094 31.6 124.194C31.6 124.194 32.1999 124.394 32.7999 124.594C33.4999 124.694 34.7 124.894 34.7 124.894L34.9 124.194Z" fill="#C5C5C7"/>
<path d="M34 125.794C33.8 125.794 32 125.394 30.7 124.994C29.6 124.594 28 123.594 27.6 123.294C27.3 122.994 28.5 120.994 28.7 120.894C28.9 120.894 30.4 121.894 31.6 122.294C32.8 122.694 35 123.194 35.2 123.394C35.3 123.494 34.5 125.794 34 125.794Z" stroke="#3E3D4D" stroke-width="0.5" stroke-linecap="round" stroke-linejoin="round"/>
<path d="M30.2 123.194C30.1 123.394 30.2 123.594 30.5 123.794C30.8 123.894 31.1 123.894 31.2 123.694C31.3 123.494 31.2 123.194 30.9 123.094C30.6 122.894 30.3 122.994 30.2 123.194Z" fill="#29BFD2"/>
<path d="M29.7999 123.194C29.8999 123.194 30 123.194 30 123.094C30 123.094 30 122.994 29.9 122.894C29.9 122.894 29.8 122.894 29.7 122.994C29.7 123.094 29.6999 123.194 29.7999 123.194Z" stroke="#A3A3AE" stroke-width="0.4" stroke-linecap="round" stroke-linejoin="round"/>
<path d="M29.7 122.694C29.5666 122.694 29.4667 122.727 29.4 122.794C29.4 122.927 29.4 123.027 29.4 123.094" stroke="#A3A3AE" stroke-width="0.4" stroke-linecap="round" stroke-linejoin="round"/>
<path d="M29.6 122.294C29.4 122.394 29.3 122.494 29.2 122.694C29.0666 122.894 29.0333 123.06 29.1 123.194" stroke="#A3A3AE" stroke-width="0.4" stroke-linecap="round" stroke-linejoin="round"/>
<path d="M29.5 122.094C29.3 122.094 29 122.294 28.9 122.494C28.7667 122.76 28.7332 123.027 28.7999 123.294" stroke="#A3A3AE" stroke-width="0.4" stroke-linecap="round" stroke-linejoin="round"/>
<path d="M43 125.194C43.2 125.294 43.7 126.294 43.7 126.594C43.6 126.794 42 127.594 41.1 127.994C40.2 128.394 38.6 128.994 38.5 128.994C38.3 128.994 37.9 127.894 38 127.694C38 127.594 39.5 127.094 40.3 126.694C41.2 126.294 42.8 125.194 43 125.194Z" fill="#BABAC6" stroke="#050505" stroke-width="0.5" stroke-linecap="round" stroke-linejoin="round"/>
<mask id="mask3_149_63763" style="mask-type:luminance" maskUnits="userSpaceOnUse" x="64" y="0" width="142" height="134">
<path d="M92.59 125.374C85.58 124.214 74.89 128.734 68.21 126.284C67.92 126.174 67.31 123.594 66.84 123.684C66.59 123.684 66.39 123.644 66.21 123.634C63.92 121.194 64.5 116.824 65.02 113.674C65.44 111.104 67.86 109.464 69.86 107.794C75.41 103.124 78.71 96.3538 81.52 89.6738C86.62 77.5238 90.63 64.9338 93.49 52.0738C93.22 53.2038 91.71 53.8138 90.73 53.1838C97.75 44.2438 102.31 33.6538 108.27 23.9738C114.23 14.2938 122.22 5.08378 133.03 1.56378C141.59 -1.23622 151.12 -0.0862448 159.38 3.50376C167.63 7.10375 174.72 12.9938 180.82 19.6038C192.95 32.7238 201.66 49.1438 204.81 66.7338C207.13 79.6438 205.88 94.4138 196.52 103.614C187.79 112.194 174.46 113.674 162.22 113.944C149.98 114.214 137 113.924 126.46 120.144C123.39 121.954 120.67 124.264 118.17 126.784C116.41 128.544 113.84 133.194 111.19 133.014C108.93 132.864 105.34 129.124 103.06 128.174C99.72 126.794 96.15 125.964 92.59 125.374Z" fill="white"/>
</mask>
<g mask="url(#mask3_149_63763)">
<path d="M84.2 169.894C84.2 169.96 84.2333 169.994 84.3 169.994C84.4 170.094 84.6 170.094 84.7 169.894C84.8 169.794 84.7 169.594 84.6 169.494C84.6 169.494 82.6 168.194 80.3 165.594C78.2 163.194 75.4 159.194 74.1 153.394C73.4 150.594 72.4 147.494 71.2 144.194C67.7 134.094 63.7001 122.694 70.4001 114.394C75.9001 107.594 80.8 104.694 88.2 100.294C92.7 97.6937 98.3001 94.3937 105.4 89.2937C109.8 86.1937 113.7 82.4937 117 78.2937C119.7 74.8937 122 71.1937 123.9 67.2937C127.1 60.5937 128 55.4937 128 55.4937C128 55.2937 127.9 55.1938 127.7 55.0938C127.6 55.0938 127.4 55.1937 127.4 55.3937C127.4 55.3937 126.5 60.4938 123.3 67.0938C120.4 73.1938 114.8 81.8937 105.1 88.7937C98 93.7937 92.4001 97.0937 87.9001 99.7937C80.4001 104.194 75.5001 107.094 69.9001 114.094C66.8001 117.894 65.6 122.594 66.3 128.694C67 133.894 68.8 139.194 70.6 144.394C71.8 147.594 72.8001 150.694 73.5001 153.494C74.8001 159.394 77.7001 163.594 79.9001 166.094C81.9001 168.394 83.7 169.594 84.2 169.894Z" fill="#2E544D"/>
<path d="M126.9 31.0938L144.2 79.3937L146.1 40.8937L126.9 31.0938Z" fill="#F79A1C"/>
<path d="M118.2 50.7937L144.2 79.3937L126.9 31.0938L118.2 50.7937Z" fill="#EC5D23"/>
<path d="M142.7 75.9938C142.767 76.0604 142.867 76.0604 143 75.9938C143.1 75.9938 143.2 75.7938 143.2 75.5938L128.6 34.9938C128.5 34.7938 128.4 34.6937 128.2 34.7937C128 34.7937 127.9 34.9937 128 35.1937L142.6 75.8937C142.6 75.9604 142.633 75.9938 142.7 75.9938Z" fill="#C04B27"/>
<path d="M120.5 50.1937C120.567 50.2604 120.667 50.2604 120.8 50.1937L144.1 41.9937C144.2 41.8937 144.3 41.6937 144.3 41.5937C144.2 41.3937 144 41.2937 143.9 41.3937L120.5 49.5937C120.4 49.6937 120.3 49.8937 120.4 49.9937C120.4 50.0604 120.433 50.127 120.5 50.1937Z" fill="#C04B27"/>
<path d="M118.2 50.7937C118.2 50.7937 118.6 55.7937 119.2 57.9937C119.2 57.9937 117 58.7937 115.2 56.9937C115.2 56.9937 116.3 52.9937 118.2 50.7937Z" fill="#5D9440"/>
<path d="M118.2 50.7937C118.2 50.7937 115 53.3937 113.1 55.0937C113.1 55.0937 112.1 54.4937 111.4 52.6937C111.4 52.6937 115.1 51.2937 118.2 50.7937Z" fill="#7358A4"/>
<path d="M118.2 50.7937C118.2 50.7937 114.1 50.9937 111.6 49.8937C111.6 49.8937 111.4 47.7937 113.2 45.8937C113.2 45.8937 115.6 49.4937 118.2 50.7937Z" fill="#5D9440"/>
<path d="M146 40.9937C146 40.9937 147 36.0937 147.1 33.7937C147.1 33.7937 149.3 33.5937 150.6 35.7937C150.6 35.7937 148.5 39.3937 146 40.9937Z" fill="#5D9440"/>
<path d="M146 40.9937C146 40.9937 149.8 39.3937 152.1 38.1937C152.1 38.1937 152.9 39.0937 153.1 40.9937C153.1 40.9937 149.2 41.2937 146 40.9937Z" fill="#7358A4"/>
<path d="M146 40.9938C146 40.9938 150.1 41.8938 152.2 43.6938C152.2 43.6938 151.8 45.6938 149.6 46.9938C149.6 46.9938 148.2 42.8938 146 40.9938Z" fill="#5D9440"/>
<path d="M144.1 79.3937C144.1 79.3937 149.1 79.4937 151.4 79.1937C151.4 79.1937 152 81.3937 150 82.9937C150 82.9937 146.2 81.5937 144.1 79.3937Z" fill="#5D9440"/>
<path d="M144.1 79.3937C144.1 79.3937 146.4 82.7937 148 84.8937C148 84.8937 147.3 85.7937 145.4 86.2937C145.4 86.2937 144.4 82.4937 144.1 79.3937Z" fill="#7358A4"/>
<path d="M144.1 79.3937C144.1 79.3937 144 83.4937 142.6 85.8937C142.6 85.8937 140.5 85.8937 138.8 83.8937C138.8 83.8937 142.6 81.7937 144.1 79.3937Z" fill="#5D9440"/>
</g>
<mask id="mask4_149_63763" style="mask-type:luminance" maskUnits="userSpaceOnUse" x="59" y="126" width="13" height="13">
<path d="M66.15 126.434C66.15 126.434 66.32 126.604 67.12 126.494C67.27 126.474 71.84 138.454 71.84 138.454L69.0399 137.474L69.26 138.384C69.28 138.464 69.23 138.544 69.14 138.554L68.8099 138.584C68.7166 138.59 68.65 138.55 68.61 138.464L68.21 137.474L59.34 137.794L66.15 126.434Z" fill="white"/>
</mask>
<g mask="url(#mask4_149_63763)">
<path d="M84.2 169.894C84.2 169.96 84.2333 169.994 84.3 169.994C84.4 170.094 84.6 170.094 84.7 169.894C84.8 169.794 84.7 169.594 84.6 169.494C84.6 169.494 82.6 168.194 80.3 165.594C78.2 163.194 75.4 159.194 74.1 153.394C73.4 150.594 72.4 147.494 71.2 144.194C67.7 134.094 63.7001 122.694 70.4001 114.394C75.9001 107.594 80.8 104.694 88.2 100.294C92.7 97.6938 98.3001 94.3938 105.4 89.2938C109.8 86.1938 113.7 82.4938 117 78.2938C119.7 74.8938 122 71.1938 123.9 67.2938C127.1 60.5938 128 55.4938 128 55.4938C128 55.2938 127.9 55.1938 127.7 55.0938C127.6 55.0938 127.4 55.1938 127.4 55.3938C127.4 55.3938 126.5 60.4938 123.3 67.0938C120.4 73.1938 114.8 81.8938 105.1 88.7938C98 93.7938 92.4001 97.0938 87.9001 99.7938C80.4001 104.194 75.5001 107.094 69.9001 114.094C66.8001 117.894 65.6 122.594 66.3 128.694C67 133.894 68.8 139.194 70.6 144.394C71.8 147.594 72.8001 150.694 73.5001 153.494C74.8001 159.394 77.7001 163.594 79.9001 166.094C81.9001 168.394 83.7 169.594 84.2 169.894Z" fill="#2E544D"/>
</g>
<defs>
<linearGradient id="paint0_linear_149_63763" x1="65.4" y1="173.794" x2="66.7999" y2="173.894" gradientUnits="userSpaceOnUse">
<stop stop-color="white"/>
<stop offset="0.996" stop-color="#24134F"/>
</linearGradient>
<linearGradient id="paint1_linear_149_63763" x1="66.1" y1="145.194" x2="78.1" y2="146.194" gradientUnits="userSpaceOnUse">
<stop stop-color="white"/>
<stop offset="1" stop-color="#22474F"/>
</linearGradient>
<linearGradient id="paint2_linear_149_63763" x1="44.7999" y1="186.194" x2="45.7999" y2="186.294" gradientUnits="userSpaceOnUse">
<stop stop-color="white"/>
<stop offset="0.996" stop-color="#24134F"/>
</linearGradient>
<linearGradient id="paint3_linear_149_63763" x1="45.2999" y1="165.794" x2="53.9" y2="166.494" gradientUnits="userSpaceOnUse">
<stop stop-color="white"/>
<stop offset="1" stop-color="#22474F"/>
</linearGradient>
</defs>
</svg>
