<svg xmlns="http://www.w3.org/2000/svg" width="101" height="113" fill="none" viewBox="0 0 101 113">
  <path fill="#3F3461" d="m48.3 17.7-34.7-.9L4 13.6.4 17.4l2.3 65 94.2-7.3 3.9-3.6-34.2-25.9-18.3-27.9Z"/>
  <mask id="a" width="99" height="12" x="2" y="71" maskUnits="userSpaceOnUse" style="mask-type:luminance">
    <path fill="#fff" d="m100.8 71.47-3.92 3.62-93.91 7.19 4.24-3.93 93.59-6.88Z"/>
  </mask>
  <g mask="url(#a)">
    <path stroke="#7055A3" stroke-width=".4" d="M91.5 158.6-52.2 33M93.4 156.599l-143.8-125.7M95.2 154.5-48.6 28.8M97 152.4-46.7 26.7M98.8 150.3-44.9 24.6m145.6 123.6L-43.1 22.5m145.6 123.6L-41.3 20.5M80 170.4-63.7 44.7M81.9 168.3-61.9 42.7M83.7 166.3-60.1 40.6M85.5 164.2-58.2 38.5M87.3 162.099l-143.7-125.7M89.2 160-54.6 34.3m158.9 109.799-143.7-125.7M106.1 142-37.6 16.3m145.5 123.6L-35.8 14.2m145.6 123.6L-34 12.1m145.6 123.6L-32.2 10m145.6 123.599L-30.3 7.899M115.2 131.5-28.5 5.9m145.6 123.6L-26.7 3.8m145.6 123.6L-24.9 1.7m145.6 123.6L-23-.4m145.5 123.6L-21.2-2.5m145.5 123.599L-19.4-4.601M126.2 119-17.6-6.6M128 116.9-15.8-8.7m145.6 123.6L-13.9-10.8m145.5 123.6L-12.1-12.9m145.6 123.6L-10.3-15m145.6 123.599L-8.5-17.101M137.1 106.5-6.6-19.2m145.5 123.6L-4.8-21.2m145.6 123.6L-3-23.3m145.6 123.6L-1.2-25.4"/>
  </g>
  <path fill="#211846" d="m6.9 78.4-4.2 4L0 10.6 3.9 7l3 71.4Z"/>
  <path fill="#7358A4" d="M96.4 0 3.9 6.9l3 71.5 93.9-6.9L96.4 0Z"/>
  <path fill="#49200C" stroke="#050505" stroke-linejoin="round" stroke-width=".6" d="M88.7 94.4s-1.7-.8-4-.8c-1.5 0-2.6 1.1-4.5 1.5-1.1.2-1.7 0-1.7 0s.4 5.3.1 6.5c-.2 1.2-.7 3.8-.7 3.8l9 .8s-.3-1.6-.6-3.1c-.3-1.4 1.4-7 2.4-8.7Z"/>
  <path fill="#050505" d="m80.5 105.7-2.6-.3s.5-2.6.7-3.8c.2-.9.1-4.1 0-5.7 2.6-.9 5.9-.9 5.9-.9-1 .8-1.7 4.1-2.1 5.7-.3 1.7 2.8 1.7 1.5 1.7-1.4-.1-4.7 0-5.4 1.5-.4.9.8 1.5 2 1.8Z" opacity=".2" style="mix-blend-mode:multiply"/>
  <path fill="#49200C" stroke="#050505" stroke-linejoin="round" stroke-width=".6" d="M73.1 92.4c-4.4-1.6-4.4-1.3-4.4-1.3s.1 8.4.1 9.7c-.1 2.1-4.5 3.001-3.2 3.201l11.1 1 .7-11.2s-2.2-.7-4.3-1.4Z"/>
  <path fill="#050505" d="M77.6 94.8c-2-.8-3.9-1.2-4.6-1.3-1-.1-.3.7.4 1.8s1 3.9 1.2 4.701c.1.9-2.7.499-2.8.799 0 .4.9.3 1.5.8.5.5-3.6 1.601-5.8 1.901-1 .1-1.4 0-1.5 0-.6.3-.9.4-.4.5l11.1 1 .9-10.2Z" opacity=".2" style="mix-blend-mode:multiply"/>
  <path fill="#BE7469" stroke="#050505" stroke-linecap="round" stroke-linejoin="round" stroke-width=".6" d="M66.9 75.1s-3.2 17.2-3.5 19.6c0 0 2.1.6 4 1.1 1.9.5 8.6 1.6 12.5 1.4 0 0 .6.6 3.8.3 3.2-.2 7.2-.8 7.2-.8s.3-14.9.5-18.1l-14.2-4.3-10.3.8Z"/>
  <path fill="#BE7469" d="M71 79.5s-1.8 16.1-1.8 16.8c-.1.7 3.3 1.4 7.2.9l.2-11.2"/>
  <path stroke="#050505" stroke-linecap="round" stroke-linejoin="round" stroke-width=".6" d="M71 79.5s-1.8 16.1-1.8 16.8c-.1.7 3.3 1.4 7.2.9l.2-11.2"/>
  <path fill="#231926" d="m81 82.3-.9 14.9.9-14.9Z"/>
  <path stroke="#050505" stroke-linecap="round" stroke-linejoin="round" stroke-width=".6" d="m81 82.3-.9 14.9"/>
  <path fill="#050505" d="M70.3 87.2 69.1 96s-2-.4-2.8-.5c-.9-.1 1.3-6.1 2.4-7.1.6-.6 1.6-1.2 1.6-1.2Zm6.5 6.2-.2 3.6h3.7v-2.6s-1.1.5-1.6 0c-.4-.5-1.7-3.4-1.9-1Z" opacity=".1" style="mix-blend-mode:multiply"/>
  <path fill="#050505" d="M66.2 81.4s-1.9 10.1-2.1 10.9c-.2.8 0 1.9.7-.3.7-2.2 2.7-6.4 3.9-7.1 1.3-.7 1.6.5 1.6.5s.4-2.4 2.6-2c2.2.4 2.9 1.8 3.2 3.4.2 1.5.8 1.5.9-.2.2-1.7-.8-3.1 1.1-1.8 1.9 1.3 2.5 4.5 2.5 4.5s.3-2.5.3-3c.1-.6 3.5.5 5.1 1.1 1.7.6 4.9 1.5 5 0v-7.5l-15.4-4.4L67 77l-.8 4.4Z" opacity=".1" style="mix-blend-mode:multiply"/>
  <path fill="#EAC39E" d="M65.4 77.7c0 1.8.3 2.2.3 2.2.1.4.3.5.6.5s.5-.2.5-.5 0-.3-.1-.9c0 0 0-.6.1-1"/>
  <path stroke="#050505" stroke-linecap="round" stroke-linejoin="round" stroke-width=".5" d="M65.4 77.7c0 1.8.3 2.2.3 2.2.1.4.3.5.6.5s.5-.2.5-.5 0-.3-.1-.9c0 0 0-.6.1-1"/>
  <path fill="#EAC39E" d="M64.5 78.4c0 1.8.3 2.2.3 2.2.1.4.3.6.6.5.3 0 .5-.2.5-.5s0-.3-.1-.9c0 0-.1-1.3.2-1.9"/>
  <path stroke="#050505" stroke-linecap="round" stroke-linejoin="round" stroke-width=".5" d="M64.5 78.4c0 1.8.3 2.2.3 2.2.1.4.3.6.6.5.3 0 .5-.2.5-.5s0-.3-.1-.9c0 0-.1-1.3.2-1.9"/>
  <path fill="#EAC39E" d="M64.8 79.4c0 .9.1 1.2.1 1.6 0 .3-.2.5-.5.5s-.5-.2-.6-.5c0 0-.3-.5-.2-2.2"/>
  <path stroke="#050505" stroke-linecap="round" stroke-linejoin="round" stroke-width=".5" d="M64.8 79.4c0 .9.1 1.2.1 1.6 0 .3-.2.5-.5.5s-.5-.2-.6-.5c0 0-.3-.5-.2-2.2"/>
  <path fill="#EAC39E" d="M66.7 77.7c.2-.1 1.3-.1 1.1-1.5-.2-1.4-.5-1.8-1-2.1-.6-.3-2.3.3-2.3.3s-1.5.9-1.8 3.7l-.1.8"/>
  <path fill="#EAC39E" d="M63 76.2c-.8 3.1-.4 4.8-.4 4.8.1.4.4.6.7.7.3 0 .5-.3.5-.6 0-1-.1-2.4.1-2.6"/>
  <path stroke="#050505" stroke-linecap="round" stroke-linejoin="round" stroke-width=".5" d="M63 76.2c-.8 3.1-.4 4.8-.4 4.8.1.4.4.6.7.7.3 0 .5-.3.5-.6 0-1-.1-2.4.1-2.6"/>
  <path fill="#050505" d="M64.2 79.5s-.4-1.2-.8-1.2c-.3.1-.3.9-.2 1.4 0 .6-.4.8-.1 1.1.2.3.7.4.7.4s.4.3.6.3c.3 0 .5-.4.5-.4s.1.2.5 0c.4-.1.6-.7.6-.7s.1.1.5 0c.3-.2.3-.9.3-.9l-.2-1.7h-2l-.4 1.7Z" opacity=".3"/>
  <path fill="#EAC39E" d="M64.9 77.6v1.7c-.1.8-.3 1.1-.4 1.3-.1.3-.6.3-.8.2-.3-.1-.4-.4-.2-.8.1-.4.1-1.3 0-2.1"/>
  <path stroke="#050505" stroke-linecap="round" stroke-linejoin="round" stroke-width=".5" d="M64.9 77.6v1.7c-.1.8-.3 1.1-.4 1.3-.1.3-.6.3-.8.2-.3-.1-.4-.4-.2-.8.1-.4.2-.7.1-1.5"/>
  <path stroke="#050505" stroke-linecap="round" stroke-linejoin="round" stroke-width=".5" d="M63.6 79s.1-.9-.4-.7"/>
  <path fill="#D5DAA0" stroke="#050505" stroke-linecap="round" stroke-linejoin="round" stroke-width=".6" d="M70.1 49.7s-1.7-.1-3.4 6.4c-1.7 6.4-1.3 10.8-1.9 13.1-.6 2.3-1.6 6.8-1.6 6.8s.3.9 3.3 1.7c3 .8 3.5-7.4 3.5-7.4l.1-20.6Z"/>
  <path fill="#D5DAA0" stroke="#050505" stroke-linecap="round" stroke-linejoin="round" stroke-width=".6" d="M62.9 75.8s1.3 1.7 3.5 2.2l.5-3.2-3.1-1.5s-.7 1-.9 2.5Z"/>
  <path fill="#050505" d="M65.3 64.9s1.2-3.7 1.6-2.1c.5 1.6 0 5.3-.2 5.8-.2.6-1.8.4-1.5 1.4.3.9 1.1 1.5.9 2.5-.1 1-1 1.7-1 1.7l-.8-.3s.7 1.3.4 2.2c-.3.8-.1 1.2-.1 1.2s2.1 1.1 3.3-.1c1.1-1.3 1.7-6.7 2-10.9.4-4.3-2.4-8.3-2.4-8.3l-1.4 1.4-.8 5.5Z" opacity=".1" style="mix-blend-mode:multiply"/>
  <path fill="#D5DAA0" stroke="#050505" stroke-linecap="round" stroke-linejoin="round" stroke-width=".6" d="M65.8 79.3s1 .1 1.2-.8c.1-1 .5-5.6.5-5.6l-1.2-.3s-.4 5.5-.5 6.7Z"/>
  <path fill="#D5DAA0" stroke="#050505" stroke-linecap="round" stroke-linejoin="round" stroke-width=".6" d="m67.7 72.5-1.5-.4-.2 3 1.4.2s.2-2.2.3-2.8Z"/>
  <path fill="#D5DAA0" stroke="#050505" stroke-linecap="round" stroke-linejoin="round" stroke-width=".6" d="M77.1 42.3s5.3 0 10 2.3c4.6 2.3 6.8 3.6 7.1 9.4.3 5.8-2.2 10.9-2.5 18.2-.1.9-.4 11.2-.5 14.1-3.9-.3-9-.8-11.5-1.2-.7-.1-.7-2-.7-2s-.4 1.7-2 1.7c-1.5 0-11.9-1.5-11.9-1.5s2.4-11.7 2.9-15.2c.5-3.8-.7-8.9-.6-11.4.1-2.6.9-15 9.7-14.4Z"/>
  <path fill="#050505" d="M93.5 50.5s-1.5-1-2.6 1.3c-1.1 2.2-1.8 5.7-1.7 6.9.1 1.2 2.3 2.7 2.9 3.7.6.9.6 3-.1 3.2-.6.2-3.3-1.6-3.9-1.3-.6.4 1.9 1.7 2.2 2.6.2.9-2.2 1.4-3.3.8-1.1-.6-3.9-2.8-4.2-2.3-.2.5 2.1 2.4 3.9 3.4 1.8 1 1.7 3.2 1.3 3.6-.3.5.6.9.6 1.5.1.6-1.5 1.9-3.1 1.7 0 0 2.8 1.4 7-1 0 0-.2-2.9.2-5.7.4-2.9 2.6-15.1.8-18.4Z" opacity=".1" style="mix-blend-mode:multiply"/>
  <path fill="#D5DAA0" d="M81.9 65.9c.7.1 3.1.8 5.7-.5 2.8-1.4 2.6-4 2-5.9"/>
  <path stroke="#050505" stroke-linecap="round" stroke-linejoin="round" stroke-width=".6" d="M81.9 65.9c.7.1 3.1.8 5.7-.5 2.8-1.4 2.6-4 2-5.9"/>
  <path fill="#D5DAA0" stroke="#050505" stroke-linecap="round" stroke-linejoin="round" stroke-width=".6" d="M84.6 74.3s4.8.6 7.5.3l-.3 2.7s-.6 2.1-.7 3.1c0 1 0 2.7-2.2 2.5-2.1-.2-4.5-.1-4.3-1.8.1-1.7.2-3.7.2-3.7l-.5-.1.3-3Z"/>
  <path fill="#D5DAA0" d="M84.3 77.3s3.4.6 7.3.5l-7.3-.5Z"/>
  <path stroke="#050505" stroke-linecap="round" stroke-linejoin="round" stroke-width=".6" d="M84.3 77.3s3.4.6 7.3.5"/>
  <path fill="#F3D2BC" d="M89.6 79.5c-.7.3-1 .5-1.1.9l-.1 1.4c0 .4.3.6.6.6h.1c.3 0 .6-.3.6-.6v-1l.3-.3"/>
  <path stroke="#050505" stroke-linecap="round" stroke-linejoin="round" stroke-width=".4" d="M89.6 79.5c-.7.3-1 .5-1.1.9l-.1 1.4c0 .4.3.6.6.6h.1c.3 0 .6-.3.6-.6v-1l.3-.3"/>
  <path fill="#D4B094" stroke="#050505" stroke-linecap="round" stroke-linejoin="round" stroke-width=".4" d="M91.7 78.1c-1 .7-1.4.8-2.3 2.1-.7 1.3-.5.8-.7 1.4-.2.5-.6 1.4 0 1.7.7.3 1-.4 1-.4-.1.3.1.7.4.8.4.2.7 0 .9-.3 0 .3.2.5.4.6.4.2.7.1.8-.2 0 .3.2.5.5.6.3.1.6-.2.8-.3.1-.2.4-1 .6-1.4.1-.3 1.4-2.8 1.4-3.3 0-1.1-.4-1.2-1.1-1.6-.8-.4-1.4-.7-2.7.3Z"/>
  <path fill="#050505" d="m94.5 82.3.8-1.5s.1-1.4-1.4-2.4c-1.4-.9-3.8.8-3.8.8s-.9.5-.8 1.3c.1 1 5.2 1.8 5.2 1.8Z" opacity=".2" style="mix-blend-mode:multiply"/>
  <path fill="#D5DAA0" d="M89.9 52.2s1.5-4.1 2.7-3c1.2 1.1 5.8 4.1 5.4 13.2-.4 7.6-2.6 18.7-2.6 18.7s-3.8-.5-6.4-1.8c0 0 1.1-8.8 1.6-11.2.5-2.4-.2-7.2-.4-8.4-.3-1.1-.7-2.2-.9-3.3"/>
  <path stroke="#050505" stroke-linecap="round" stroke-linejoin="round" stroke-width=".6" d="M89.9 52.2s1.5-4.1 2.7-3c1.2 1.1 5.8 4.1 5.4 13.2-.4 7.6-2.6 18.7-2.6 18.7s-3.8-.5-6.4-1.8c0 0 1.1-8.8 1.6-11.2.5-2.4-.2-7.2-.4-8.4-.3-1.1-.7-2.2-.9-3.3"/>
  <path fill="#D5DAA0" stroke="#050505" stroke-linecap="round" stroke-linejoin="round" stroke-width=".6" d="m88.9 79.3.6-2.5s4.2.6 6.7 1.4c0 0-.4 2.4-.7 3 0 0-3.9-.5-6.6-1.9Z"/>
  <path fill="#2F2F2E" stroke="#050505" stroke-linecap="round" stroke-linejoin="round" stroke-width=".4" d="M95.4 79.5c0 .3-.3.6-.6.6s-.5-.3-.5-.6c0-.4.2-.7.5-.7.4 0 .6.3.6.7Z"/>
  <path fill="#050505" d="M93.9 52c.3.3 1.5.2 1.4 1.2-.1.9-1 2.4-.8 3 .3.5 1.8 3.9 1.6 7.3-.2 3.5-2.6 1.7-2.2 2.4.4.6 2.3 1.6 2.3 1.6l-1.9 10.3 2 .5s1.6-10.5 1.7-15.9c0-3.1-1-8-2.2-10-.9-1.5-2-.6-1.9-.4Z" opacity=".1" style="mix-blend-mode:multiply"/>
  <path fill="#E1CCE3" stroke="#050505" stroke-linecap="round" stroke-linejoin="round" stroke-width=".7" d="m72.5 44.9-1 8.3 2.1 2.6 5.4 2.5L88.3 47l-15.8-2.1Z"/>
  <path fill="#D5DAA0" d="M69.9 51.9s-4.1 6-4.5 7.3c-.3 1.4.4 3.9 3.8 4.9"/>
  <path stroke="#050505" stroke-linecap="round" stroke-linejoin="round" stroke-width=".6" d="M69.9 51.9s-4.1 6-4.5 7.3c-.3 1.4.4 3.9 3.8 4.9M79 84s.9-10.7 1.1-13.2c.1-2.7.3-4.6.3-4.6s-2.1-1.6-1.1-3"/>
  <path fill="#050505" d="M77.7 59.1s4.7-6.1 7.6-8.2c2.9-2.1 6.6-2.1 6.6-2.1s2.5 2.3 2.6 2.4c.1.1-3.2 1.2-4.6 2.8-1.5 1.7-1.7 1.8-1.7 1.8l-1.3-1.1s-.2 1.5-.7 1.9c-.6.4-5.9 3.5-6.6 4.2-.8.8-1.9-1.7-1.9-1.7Zm-6-2.4S70.2 54 69 53.2c-1.2-.8-.1-1.2.6-2.3.7-1.1.8-1.5.1-2.1-.7-.6-.5-1.3-.1-1.8.5-.6 2.1-1.2 2.4-.6.2.7.1 4.8.1 5 0 .2-.4 5.3-.4 5.3Z" opacity=".1" style="mix-blend-mode:multiply"/>
  <path fill="#2F2F2E" stroke="#050505" stroke-linecap="round" stroke-linejoin="round" stroke-width=".5" d="M76.5 68c-.1.5.3 1 .8 1.1.5 0 .9-.4 1-.9.1-.6-.3-1.1-.8-1.1-.5-.1-.9.3-1 .9Zm-.6 5.6c0 .5.3 1 .8 1.1.5.1.9-.3 1-.9.1-.5-.3-1-.8-1.1-.5 0-.9.4-1 .9Zm-.4 5.7c-.1.6.2 1.1.7 1.1.5.1 1-.3 1-.8.1-.6-.2-1.1-.7-1.1-.5-.1-1 .3-1 .8Zm-3.8-11.9c-.1.5.2 1 .7 1.1.5.1 1-.3 1.1-.9 0-.5-.3-1-.8-1.1-.5 0-1 .4-1 .9Zm-.6 5.7c-.1.5.3 1 .7 1.1.5 0 1-.4 1.1-.9 0-.6-.3-1.1-.8-1.1-.5-.1-.9.3-1 .9Zm-.5 5.7c-.1.5.3 1 .8 1.1.5.1.9-.3 1-.9.1-.5-.3-1-.8-1.1-.5 0-.9.3-1 .9Z"/>
  <path fill="#D5DAA0" stroke="#050505" stroke-linecap="round" stroke-linejoin="round" stroke-width=".6" d="M76.1 58s.8 1.2 1.8 2.2c3.4-2.3 6.2-3.5 8.2-5l-1-3s1.5 0 3.4.8l5.2-4.6s-2.1-1.2-3.6-2.8c-1.2-1.4-1.7-1.5-1.7-1.5l-4.7 4.2s-4.4 5.1-7.6 9.7Z"/>
  <path fill="#050505" d="M79.2 64.7s1.7 1.4 3.8 1.4c0 0-.8.1-1 1.6-.2 1.5 0 3-1 3.5 0 0 0 .7.2 1.1.3.3-.3 1-.4 2-.1 1.1-.8 10.8-.8 10.8s-1.3-.7-1-3.3c.3-2.6 1.4-15.6 1.4-15.6s-.9-.7-1.2-1.5Zm-13.1-6.8c.4-.6-1 2.3 1.4 3.8 2.4 1.4 4.8 1.2 4.8 1.2s-1.1 1.3-3.4 1.1c0 0 .6 1.7.6 2.5-.1.8-1.4 5.6-1.6 7-.2 1.4-.9 1.5-1 2.2l1.4-8.3-.1-3.8s-4.4-2.3-2.1-5.7Zm22.3-.5s1.4 2.1 1.4 3.7c.1 1.6-.4 3.5-2.4 4.3-2 .8-5.4.2-5.4.2s4.5.2 5.8-3.1c1.2-3.3.6-5.1.6-5.1Z" opacity=".1" style="mix-blend-mode:multiply"/>
  <path fill="#050505" d="M73.9 63.8s4.2 2.1 5.5 2.6c0 0-.1 2.1 0 3.5s-2.8-3-4-3.7c-1.3-.7-.8-1.8-1.5-2.4Zm-3.4-12.6-2.7 1.2-.8 3.7s1.2-1.7 3.6.6C73 59 75 61.5 75 61.5s1.7 1.3 4.2 1.5l-2.6-4.5-6.1-7.3Z" opacity=".1" style="mix-blend-mode:multiply"/>
  <path fill="#D5DAA0" stroke="#050505" stroke-linecap="round" stroke-linejoin="round" stroke-width=".6" d="M75.1 48s3.6 11.7 4.2 15.2c0 0-9.8-8.3-12.2-11.3l2.6-2.1-2.5-1.9s2.5-.8 4.3-3.2c1.6-2.2 3.6 3.3 3.6 3.3Z"/>
  <path fill="#D4D1C4" d="M69.7 27.2s-2.8 3.8-.9 13.1c2 9.4 3.5 11.3 7.2 12.8 3.7 1.6 1.6-8.7 1.6-8.7L70 27.1"/>
  <path stroke="#050505" stroke-linecap="round" stroke-linejoin="round" stroke-width=".6" d="M69.7 27.2s-2.8 3.8-.9 13.1c2 9.4 3.5 11.3 7.2 12.8 3.7 1.6 1.6-8.7 1.6-8.7L70 27.1"/>
  <path fill="#050505" d="M70.9 49.9c.6 3.9 4.1 6.9 10.6 4.3 5.9-2.3 10.9-5.1 10.4-8.9-.5-3.9-6.4-5.9-12.6-4.6-6.2 1.3-9.3 2.8-8.4 9.2Z" opacity=".1"/>
  <path fill="#FEFBF5" stroke="#050505" stroke-linecap="round" stroke-linejoin="round" stroke-width=".6" d="M75.3 52c-.1-.9-2.6-2.2-3.4.4-.6 1.7-2.3 2.4-2.8 2.1 0 0 1.6 1.6 3.4.8 1.9-.9 2.9-2.1 2.8-3.3Z"/>
  <path fill="#221E1F" d="M70.7 54.2s.7-.4 1.2-1.3c.5-1 .6-.6.8-.3.3.2.3 1.6 1.6 1.6l.6-.9s0-2.1-1.3-2.3c-1.2-.2-1.3.3-1.5.9-.3.6-.9 2.1-1.4 2.3Z" opacity=".1"/>
  <path fill="#FEFBF5" stroke="#050505" stroke-linecap="round" stroke-linejoin="round" stroke-width=".6" d="M77.5 52.4c-.1.8-1 1.2-2.1 1.1-1-.1-1.8-.9-1.6-1.6.1-.8.8-.8 1.9-.6 1 .1 1.9.4 1.8 1.1Z"/>
  <path fill="#FEFBF5" stroke="#050505" stroke-linecap="round" stroke-linejoin="round" stroke-width=".6" d="M77.5 56c1.9 2 5.7 1.6 5.7 1.6s-2-1.2-2.6-3.1c-.6-2-2.5-3-3.6-2.5-1.4.6-.9 2.6.5 4Z"/>
  <path fill="#221E1F" d="M74.5 53.2s-.5-.4-.5-1c.1-.6.7-.3 1.3-.2.6.1.9.8.9.8s.6-1 1.3-1c0 0-1.3-.5-2.1-.6-.9-.1-1.7.2-1.7.7-.1.5.3 1.1.8 1.3Zm6.1 1.6s-.1-1.2-.7-1.8c-.6-.6-1.8-.4-2 .7-.2 1.1 2 2.4 2.7 2.7.8.4-.1-.8-.6-1.2-.4-.4-.1-.9.6-.4Z" opacity=".1"/>
  <path fill="#FEFEFE" stroke="#050505" stroke-linecap="round" stroke-linejoin="round" stroke-width=".5" d="M83.1 48.8s-.1-.5-1.2-.6c-1-.1-1.2 1-1.2 1l1.4 1 1-1.4Z"/>
  <path fill="#DEC5B6" stroke="#050505" stroke-linecap="round" stroke-linejoin="round" stroke-width=".5" d="M70 38.3c-.3-3.6.2-5.6 1.3-8.4 1.1-3.1 2.1-7.4 10.1-6.3 7.9 1.1 10.1 6.9 9.4 11.7-.3 2.3-1.2 9-4.3 12.4-3.1 3.6-7.7 4.1-11.5 3.6-2-.3-3.8-2.5-4.3-4.8-1.1-4.4-.4-4.6-.7-8.2Z"/>
  <path fill="#8B694B" stroke="#050505" stroke-linejoin="round" stroke-width=".7" d="M70.1 33.5c.6-3.7 3.8-5.6 9.5-4.2 4.5 1.2 6.4 4.6 6.2 7.6-.1 3.1-.3 7.7 1.5 8.1 1.9.3 2.9-2.4 2.9-2.4s2.8-9.9.1-14.1c-3.2-5-10-6.2-16.3-4.2-6 1.9-3.7 6.5-3.9 9.2Z"/>
  <path fill="#221E1F" d="M90.3 28.5c-2.1-3.3-6-5.3-10.2-5.5 3.4.6 6.4 2.5 8.1 5.2 2.5 3.9.3 12.6-.1 14 .133 0 .267.033.4.1 1.4.2 1.6.3 1.7.3 0-.2 2.8-9.9.1-14.1Z" opacity=".2"/>
  <path fill="#DEC5B6" d="M86.7 41.3c.5-1.8 3.1-2.2 3.8-1.1.5 1-.8 4.7-2.3 5.1-1.5.4-1.7-.5-1.7-.9"/>
  <path stroke="#050505" stroke-linecap="round" stroke-linejoin="round" stroke-width=".4" d="M86.7 41.3c.5-1.8 3.1-2.2 3.8-1.1.5 1-.8 4.7-2.3 5.1-1.5.4-1.7-.5-1.7-.9"/>
  <path fill="#221E1F" d="M88.2 43.3c-.2.6-.7 1.2-.2 1 .9-.3 1.7-2.6 1.4-3.3-.4-.7-1.5-.4-1.9.8 0 0-.2.4.5.5.3.1.4.6.2 1Z" opacity=".2"/>
  <path fill="#FEFBF5" d="M69.6 26.9c.5-.9 1.7-1.9 2.7-2.5 2.7-1.7 12.6-2.9 18.1 1.1 5.8 4.2 10.3 13.1 9.7 15.1-.7 2-6.8 4.8-8.6 6.3-4.4 4-9.2 5.8-12.4 5.3-2.3-.4-.7-.9-.7-.9s5-2.2 8.6-10.6c.8-10.2-1.7-12.5-10.8-13.5-3.4-.3-5.5.4-6.5 2.6"/>
  <path stroke="#050505" stroke-linecap="round" stroke-linejoin="round" stroke-width=".6" d="M69.6 26.9c.5-.9 1.7-1.9 2.7-2.5 2.7-1.7 12.6-2.9 18.1 1.1 5.8 4.2 10.3 13.1 9.7 15.1-.7 2-6.8 4.8-8.6 6.3-4.4 4-9.2 5.8-12.4 5.3-2.3-.4-.7-.9-.7-.9s5-2.2 8.6-10.6c.8-10.2-1.7-12.5-10.8-13.5-3.4-.3-5.5.4-6.5 2.6"/>
  <path fill="#050505" d="M70.8 38s.3 1.3 1.4 1.6c1.2.2 1.9-.1 1.9-1.1l-3.3-.5Zm6.6.5s.3 1.9 2.3 1.9c2 0 2-1.1 2-1.1l-4.3-.8Z" opacity=".1" style="mix-blend-mode:multiply"/>
  <path fill="#8A5323" d="M81.1 38.9c-.3.6-1.1.8-1.7.5-.6-.4-.8-1.1-.5-1.7.4-.6 1.2-.8 1.8-.5.6.4.8 1.1.4 1.7Z"/>
  <path fill="#050505" d="M80.5 38.9c-.2.3-.6.4-.9.2-.3-.1-.4-.5-.2-.8.2-.3.5-.4.8-.2.3.2.4.5.3.8Z"/>
  <path fill="#FEFEFE" stroke="#050505" stroke-linecap="round" stroke-linejoin="round" stroke-width=".4" d="M77.5 38.4s1.1-1.5 4.1.6c0 0-.9 1.3-2.5.9-1.7-.4-1.6-1.5-1.6-1.5Z"/>
  <path fill="#FEFEFE" d="M80.7 39c0 .1-.2.1-.3.1-.1-.1-.1-.2 0-.3 0-.1.2-.2.3-.1.1.1.1.2 0 .3Z"/>
  <path fill="#DEC5B6" stroke="#050505" stroke-linecap="round" stroke-linejoin="round" stroke-width=".4" d="M81.5 39s-2.1-2.8-4.1-.4c0 0 1.1-.5 2.2-.3.9.1 1.9.7 1.9.7Z"/>
  <path stroke="#050505" stroke-linecap="round" stroke-linejoin="round" stroke-width=".4" d="m82.7 38.5-1.2.5s-2.1-2.7-4.1-.4"/>
  <path stroke="#050505" stroke-linecap="round" stroke-linejoin="bevel" stroke-width=".4" d="m81.9 38.2-.8.5"/>
  <path fill="#8A5323" d="M71.8 37.8c.1.7.6 1.1 1.3 1 .6 0 1.1-.7 1-1.3-.1-.7-.7-1.2-1.3-1.1-.7.1-1.1.7-1 1.4Z"/>
  <path fill="#050505" d="M72.2 38c.1.3.3.5.6.5.4-.1.6-.4.5-.7 0-.3-.3-.5-.6-.5s-.5.3-.5.7Z"/>
  <path fill="#FEFEFE" stroke="#050505" stroke-linecap="round" stroke-linejoin="round" stroke-width=".4" d="M74.1 38.4s-.3-1.7-3.4-.8c0 0 .3 1.5 1.6 1.6 1.5.2 1.8-.8 1.8-.8Z"/>
  <path fill="#FEFEFE" d="M73.6 38.3c0 .1-.1.2-.2.1-.1 0-.2-.1-.1-.2 0-.1.1-.1.2-.1s.1.1.1.2Z"/>
  <path fill="#DEC5B6" stroke="#050505" stroke-linecap="round" stroke-linejoin="round" stroke-width=".4" d="M70.7 37.7s2.5-1.5 3.4.7c0 0-.4-.4-1.3-.7-.8-.3-2.1 0-2.1 0Z"/>
  <path stroke="#050505" stroke-linecap="round" stroke-linejoin="round" stroke-width=".4" d="m70.2 36.8.5.9s2.4-1.6 3.4.7"/>
  <path stroke="#050505" stroke-linecap="round" stroke-linejoin="bevel" stroke-width=".4" d="m70.9 36.9.3.6"/>
  <path fill="#8B694B" stroke="#050505" stroke-linejoin="round" stroke-width=".4" d="M79.8 36.3c-.6-.1-1.2 0-1.5.2-.3.1-.7 0-.8-.3-.2-.3-.1-.3.1-.4.8-.4 1.8-.4 2.7-.1.6.2 2.1 1.3 1.8 1.4-.1.1-1.9-.7-2.3-.8Zm-8.1-.6c.5-.1 1.3.1 1.5.3.2.2.5.2.7-.1.1-.3.1-.3-.1-.4-.5-.5-1.5-.6-2.2-.4-.4.1-1.5 1-1.3 1.2.1.1 1.1-.6 1.4-.6Z"/>
  <path fill="#221E1F" d="M75.4 47.1c-.6.1-1.2 0-1.6-.2 0 0-.3.7.8.8 1.1 0 .8-.6.8-.6Z" opacity=".1"/>
  <path stroke="#050505" stroke-linecap="round" stroke-linejoin="round" stroke-width=".4" d="M75.4 47.1c-.6 0-1.2-.1-1.6-.2m2.3-.8c-.8.2-1.8.2-2.7-.2"/>
  <path fill="#050505" d="M70.3 46s-.8-4.4.7-6.5c0 0-.5-.5-.6-1.5 0-1.1-.4-1.8.5-3 0 0 .1-3.6.5-4.7 0 0-1.4 2.4-1.5 4.8-.1 3.2.1 4.7.1 4.7s-.3 4.7.3 6.2Z" opacity=".1" style="mix-blend-mode:multiply"/>
  <path fill="#E3C4B2" d="M74.2 37.9c0 1.5-.4 2.3-.8 3.2-.3.6-.8 1.3-.5 1.7.3.4.8.9 1.9.5"/>
  <path stroke="#050505" stroke-linecap="round" stroke-linejoin="round" stroke-width=".4" d="M74.2 37.9c0 1.5-.4 2.3-.8 3.2-.3.6-.8 1.3-.5 1.7.3.4.8.9 1.9.5"/>
  <path fill="#050505" d="M74.1 37.8c.1 1.2-.2 2.5-.7 3.3-.4.6-.6 1.5-.5 1.6.3.4.7.7 1.2.7.3-.1.3.1.9 0 0 0-1.3.5-2.1.1-.7-.4-.7-1.2-.5-1.6.3-.4 1.4-1.6 1.7-4.1Z" opacity=".2"/>
  <path fill="#050505" d="M70.3 32.6s2.3 2.1 5.2.4c0 0 1.7 0 3.3-.7 1.6-.6 4.8-2 5.4-.2 0 0-.3-2.5-5.8-3s-7.1.9-8.1 3.5Z" opacity=".1" style="mix-blend-mode:multiply"/>
  <path stroke="#050505" stroke-linecap="round" stroke-linejoin="round" stroke-width=".5" d="M92.2 29.7s3.2 11-11.4 19.9"/>
  <path stroke="#050505" stroke-linecap="round" stroke-linejoin="round" stroke-width=".5" d="M86.1 26.4s8.1 4.4 3.7 14.9m4.7 2.6s-1.6 1.8-3.2 3.1m-12.9 4.3s7.1-1.2 10.5-5.5"/>
  <path fill="#FEFBF5" d="M68.9 29.5s-.5-3.5 3.5-4.6l-3.5 4.6Z"/>
  <path stroke="#050505" stroke-linecap="round" stroke-linejoin="round" stroke-width=".6" d="M68.9 29.5s-.5-3.5 3.5-4.6"/>
  <path fill="#050505" d="M83.2 40.2s.6-2.1.2-3.6c-.4-1.5-1.3-2.4-1-2.8.4-.4-.5-1-.1-1.5.4-.6.3-1.9 1.4-1 1.1.9 2.6 3.4 2.3 6.3 0 0-.2 2.1.5 3.1 0 0-.4.6-.4 1 0 .3 1.6 2.3-1.3 5.1-2.7 2.5-5 3.4-5 3.4s1.5-.6 3-2.6c1.7-2.2 1.4-5.6.9-6.3-.6-.8-.8-.6-.5-1.1Z" opacity=".1" style="mix-blend-mode:multiply"/>
  <path fill="#8B694B" d="M85.4 34c-.4-.9-1-2.6-3.1-2.9-2.1-.2-4.5.8-7.9.9-3.1.1-4.7-1.4-4.3-3.3.3-1.9 2.3-2.6 3.2-2.7l-.1.6s1.7-.5 2.6-.5c.9 0 .3.7.3.7s1.6-.6 2.8-.6l-.2.7s1.1 0 2 .5c.8.6 1 .7 1 .7s.8-.7.9-1c0-.3.7 1.1.7 1.6 0 0 1.1.3 1.4-.3 0 0 .7 1.2 1 2.8"/>
  <path stroke="#050505" stroke-linecap="round" stroke-linejoin="round" stroke-width=".5" d="M85.4 34c-.4-.9-1-2.6-3.1-2.9-2.1-.2-4.5.8-7.9.9-3.1.1-4.7-1.4-4.3-3.3.3-1.9 2.3-2.6 3.2-2.7l-.1.6s1.7-.5 2.6-.5c.9 0 .3.7.3.7s1.6-.6 2.8-.6l-.2.7s1.1 0 2 .5c.8.6 1 .7 1 .7s.8-.7.9-1c0-.3.7 1.1.7 1.6 0 0 1.1.3 1.4-.3 0 0 .7 1.2 1 2.8"/>
  <path fill="#050505" d="M93.3 45.5s2.4-3.5 3.4-6c0 0 .1 2 .1 2.3 0 .4 1.3.2 1.3.6-.1.4-2.3 1.7-4.8 3.1Zm-4.4-17.1s3.7 4 1.6 10.9c0 0 2.2-3.5 2.1-8.5 0 0-.7 1.3-1.1.8-.3-.5-.8-1.8-2.6-3.2Z" opacity=".1" style="mix-blend-mode:multiply"/>
  <path fill="#050505" d="M88.7 32.1s2.9 5.5.1 10.5l-2.7 2.9s2.2-1.9 2.4-6.4c.1-4.6-.6-5.4-.6-5.4s1.4 2.6 1.3 4.6c0 0 .4-3.3-.5-6.2Zm-10-5.6s-2.9 1.4-2.3 2.7c0 0 .8-1.4 1.7-1.3 0 0 .2-.9.6-1.4Zm-2.1.4c.9-.1-2 .6-2.4.8-.3.3.9-1.1 1.9-1.4 0 0 .1.6.5.6Zm-2.9-.3s-.6.3-.6 1.3c0 0-.6-.6-.7-.6-.1-.1.1-.6.8-1 .7-.3.1.5.5.3Zm6.6 2.7s1.3-.2 1.9-1.3l-1.1-.1-.5-.2s-1.6.7-1.9 2.3c0 0 .4-.9 1.5-1.4 1.2-.6.8.2.1.7Zm2.6-.9s.5.8.3 1.6c0 0 .5-.1.7-.4 0 0 .3.3.3.8 0 0 .3-1.1.2-1.8 0 0-.3.2-.6.2-.4.1-.9-.4-.9-.4Z" opacity=".1" style="mix-blend-mode:multiply"/>
  <path fill="#FEFBF5" d="M74 25s-1.8.6-2.5 1c-.6.5-1.2.8-1.1 1.7 0 0 1-1.1 4.6-.6 3.7.6 9.3 1.9 10.9 4.8 1.7 2.8 1.5 3.5 1.5 4.6 0 0 .6-.6.5-1.6-.2-1-.7-7.1-2.8-7.9-2.2-.9-9.8-2.5-9.8-2.5L74 25Z"/>
  <path fill="#8B694B" d="M75.9 31.6s-5.2 2-7.6-1.5c0 0 2.4.7 3.6-.3"/>
  <path stroke="#050505" stroke-linecap="round" stroke-linejoin="round" stroke-width=".5" d="M75.9 31.6s-5.2 2-7.6-1.5c0 0 2.4.7 3.6-.3"/>
  <path stroke="#050505" stroke-linecap="round" stroke-linejoin="round" stroke-width=".6" d="M70.1 28.1s.4-1.2 4.3-.8c3.8.3 11.5 1.2 12.5 7.2"/>
  <path fill="#8B694B" d="M70.7 30s-2.5-.9-1.6-2.9c0 0 1.2 1 2.7.7"/>
  <path stroke="#050505" stroke-linecap="round" stroke-linejoin="round" stroke-width=".5" d="M70.7 30s-2.5-.9-1.6-2.9c0 0 1.2 1 2.7.7"/>
  <path fill="#050505" d="M70 29.5s-.4-.2-.4-1.1c0 0 1.2 1.3 2.9.5l-.7.6s-.1.6-.4.6c-.3.1-.7.1-.7.1s-.2-.5-.7-.7Zm12.7 19.1s-.6.7.1.7c.8.1 4.3-2 4.7-2.7 0 0-3.4 2.8-4.7 3.3-1.4.4-1.9 1.1-1.6 1.4.3.4-1.9.8-3 .4v-.4s2.7-1.4 4.5-2.7Z" opacity=".1" style="mix-blend-mode:multiply"/>
  <path stroke="#050505" stroke-linecap="round" stroke-linejoin="round" stroke-width=".4" d="M79.5 53.6s-.7-1-1.2-.4.1 1.8 1.5 2.6"/>
  <path fill="#050505" d="M75 41.7s.2.4.2.5c0 .2.3-.3.3-.4 0-.2-.3-.9-.3-.9s-.1.7-.2.8Zm.9 4.2s-.7.1-1.3 0c-.7-.1-1.1-.2-1.1-.1 0 .2.5.3 1 .3.6.1 2.1-.1 1.4-.2Z" opacity=".1" style="mix-blend-mode:multiply"/>
  <path fill="#050505" d="M91.7 110.4c-.2 1.7-7.6 2.3-16.4 1.2-8.8-1-15.9-3.3-15.6-5 .2-1.7 7.5-2.2 16.3-1.2 8.9 1 15.9 3.3 15.7 5Z" opacity=".2"/>
  <path fill="#D4E49C" stroke="#050505" stroke-linecap="round" stroke-linejoin="round" stroke-width=".7" d="M53.7 45.8s1.9 4.7-.8 9.4c-2.6 4.7-9.1 5.9-12 5.6-3.6-.3-5-3.4-4.6-5 .5-1.5 2.5-3.9 5.2-3.9 2.6.1 4.5-.4 5.1-2.1.5-1.4.1-2.8-.1-3.3-.3-1 5-3.2 7.2-.7Z"/>
  <path fill="#050505" fill-rule="evenodd" d="M40.9 61.1a5.895 5.895 0 0 1-2.4-.7c-.667-.4-1.2-.866-1.6-1.4-.8-1-1.1-2.3-.8-3.2.2-.8.7-1.6 1.4-2.4.6-.5 1.6-1.3 2.9-1.6.333-.066.7-.1 1.1-.1 1 0 1.867-.066 2.6-.2 1.2-.3 1.9-.9 2.3-1.8.4-1.4 0-2.7-.1-3.2-.1-.1-.1-.2.1-.5.3-.5 1.5-1.1 2.8-1.4.9-.2 1.7-.3 2.5-.2.933.2 1.666.6 2.2 1.2h.1v.1s.5 1.2.6 3c.067 1.067 0 2.1-.2 3.1a10.37 10.37 0 0 1-1.2 3.5c-.8 1.467-2 2.667-3.6 3.6-1.3.8-2.9 1.4-4.5 1.8-1.5.3-3 .5-4.2.4ZM49.3 45c-1.3.3-2.2.9-2.5 1.3v.1c.1.5.6 1.9.1 3.4-.2.6-.567 1.067-1.1 1.4-.4.334-.933.567-1.6.7-.733.2-1.633.3-2.7.3-.333 0-.667.034-1 .1-2.1.5-3.6 2.4-3.9 3.6-.2.6 0 1.8.7 2.8.9 1.1 2.1 1.8 3.7 1.9 1.1.1 2.5-.1 4-.4 2-.5 5.8-1.8 7.7-5.1 1.3-2.3 1.5-4.7 1.4-6.3-.2-1.6-.5-2.7-.6-2.9-1.2-1.4-3.4-1.1-4.2-.9Z" clip-rule="evenodd"/>
  <path fill="#D4E49C" stroke="#050505" stroke-linecap="round" stroke-linejoin="round" stroke-width=".7" d="M53.9 46.3s0 1.1-2.6 1.6c-2.7.5-4.5-.4-5-1.5 0 0 .5 1.6.4 2.4 0 0 .3 2.1 4.3 1.5 1.3-.3 3.1-.899 3.4-1.799 0 0-.1-1.8-.5-2.2Z"/>
  <path fill="#050505" fill-rule="evenodd" d="M51.1 50.5c-1 .134-1.833.134-2.5 0-.6-.066-1.067-.233-1.4-.5-.7-.5-.8-1.1-.8-1.2.1-.8-.3-2.3-.3-2.3-.1-.2 0-.3.1-.3.2-.1.3 0 .4.1.3.7 1.1 1.2 2.2 1.4-1.1-.2-1.8-.7-1.8-1.2 0-.8 1.7-1.4 3.7-1.4 1.5 0 2.8.4 3.3.9.067.067.133.1.2.1.3.5.5 2.2.5 2.4v.1c-.133.4-.6.8-1.4 1.2-.8.3-1.6.6-2 .7h-.2Zm2.8-3.6c0 .067-.033.1-.1.1-.467.467-1.2.834-2.2 1.1h-.3c-1.3.3-2.4.2-3.4-.1a3.539 3.539 0 0 1-1.1-.6c.1.5.2 1 .1 1.4.1.1.2.4.6.8.7.5 1.9.7 3.5.4h.1c.8-.2 1.4-.4 2-.7.6-.266.967-.533 1.1-.8-.1-.5-.2-1.1-.3-1.6Z" clip-rule="evenodd"/>
  <path fill="#050505" d="M51 46.7s1.6-.4 1.7.6c0 0 .7-.1.8.3.1.5.2 1.9-1.2 2.2 0 0 .6 0 .5.7-.2.7.4 2.2-1.2 4.4-1.7 2.2-3.8 3.1-5 2.4-1.3-.8-.5-1.7-.7-2.7-.2-.9-1.4-1.7-2-1.8-.6 0 1-.6 1.6-.6.6-.1.6-1.1.3-1.3 0 0-.4.6-2 .9-1.6.3-2.8-.4-4.5.7-1.7 1.1-4.2 3.2-2.5 5.8 1.7 2.5 4.6 3.6 9.7 1.7 5.1-1.9 7.9-4.9 8-10.9l.1-.6s-.4-2-.6-2.3l-.2.1s.1-.5-.2-.7c-.4-.3-1.9-.5-2.1-.5-.2 0-.5 1.6-.5 1.6Z" opacity=".2" style="mix-blend-mode:multiply"/>
  <path fill="#E7CBAF" stroke="#050505" stroke-linecap="round" stroke-linejoin="round" stroke-width=".5" d="M52.6 46.4s.3-2.8-.5-3.3c-.8-.6-3.3-.5-4.1 0-.9.4-1.7 1.9-.2 3.5s4.5.1 4.8-.2Z"/>
  <path fill="#050505" fill-rule="evenodd" d="M47.6 46.8c-.9-1-.9-1.8-.8-2.4.1-.8.6-1.3 1-1.5.2-.133.433-.233.7-.3.6-.1 1.3-.2 2-.1.5 0 1.3.1 1.8.4.333.267.533.934.6 2v1.5l-.1.1c-.2.2-1.1.7-2.1.9-1.3.4-2.4.1-3.1-.6Zm4.8-1.9c-.1-1.2-.4-1.6-.5-1.6-.2-.2-.8-.3-1.4-.4-.7 0-1.4.1-1.9.2a3.9 3.9 0 0 0-.5.2c-.3.1-.7.6-.8 1.2-.1.4-.1 1.1.7 2 .7.7 1.8.7 2.6.5.4-.133.767-.266 1.1-.4.3-.1.5-.2.7-.3v-1.4Z" clip-rule="evenodd"/>
  <path fill="#E7CBAF" d="M47.9 43.2s.2-1-.9-2.9c-.4-.6-.5-1 0-1.2.4-.2.8-.2 1.3.5.4.6.9 2 1.1 3.3"/>
  <path stroke="#050505" stroke-linecap="round" stroke-linejoin="round" stroke-width=".5" d="M47.9 43.2s.2-1-.9-2.9c-.4-.6-.5-1 0-1.2.4-.2.8-.2 1.3.5.4.6.9 2 1.1 3.3"/>
  <path fill="#050505" d="M48.2 43.2s.1-1.1-1-3c-.3-.5-.3-.7-.3-.8.067-.066.133-.1.2-.1.2-.1.5-.3 1 .5.4.5.9 1.8 1 3.1l.5-.1c-.1-1.2-.6-2.7-1.1-3.3-.267-.4-.533-.633-.8-.7-.267-.133-.567-.1-.9.1-.133.067-.233.2-.3.4-.133.267-.067.634.2 1.1.6 1 .8 1.7.9 2.1.1.5.1.7.1.7h.5Z"/>
  <path fill="#E7CBAF" d="M49.2 43.1c0-.4-.2-1.4-1-2.8-.3-.6-.4-1.1 0-1.3.4-.2.8-.1 1.3.6.5.6.9 2 1.1 3.2"/>
  <path stroke="#050505" stroke-linecap="round" stroke-linejoin="round" stroke-width=".5" d="M49.2 43.1c0-.4-.2-1.4-1-2.8-.3-.6-.4-1.1 0-1.3.4-.2.8-.1 1.3.6.5.6.9 2 1.1 3.2"/>
  <path fill="#050505" d="M50.9 42.8c-.2-1.3-.7-2.7-1.1-3.3-.333-.4-.633-.666-.9-.8a1.128 1.128 0 0 0-.8.1c-.2.134-.333.3-.4.5-.133.267-.033.634.3 1.1.8 1.5.9 2.4.9 2.7l.5-.1c0-.3-.1-1.3-1-2.8-.3-.5-.3-.7-.2-.8 0-.066.033-.133.1-.2.2-.1.5-.2 1 .5.4.5.9 1.9 1.1 3.2l.5-.1Z"/>
  <path fill="#E7CBAF" d="M50.2 43.1c-.1-.4-.2-1.4-.8-2.5-.2-.6-.2-1 .2-1.2.4-.2.7-.1 1.1.6.4.6.8 2 .9 3.2"/>
  <path stroke="#050505" stroke-linecap="round" stroke-linejoin="round" stroke-width=".5" d="M50.2 43.1c-.1-.4-.2-1.4-.8-2.5-.2-.6-.2-1 .2-1.2.4-.2.7-.1 1.1.6.4.6.8 2 .9 3.2"/>
  <path fill="#050505" d="M51.8 43.1c-.1-1.1-.5-2.5-.9-3.2-.2-.4-.4-.6-.7-.7-.3-.2-.5-.1-.7 0a.6.6 0 0 0-.4.4c-.133.267-.1.634.1 1.1.4.9.6 1.7.7 2.2v.3l.5-.1v-.3c-.1-.5-.3-1.4-.7-2.3-.2-.3-.2-.6-.2-.7l.2-.2c.2-.1.3-.1.8.6.3.5.7 1.8.8 3l.5-.1Z"/>
  <path fill="#E7CBAF" d="M51.1 43.3c0-.5 0-.8-.4-1.8-.2-.6-.2-1 .2-1.2.3-.1.6.1 1 .7.3.6.5 1.6.6 2.8"/>
  <path stroke="#050505" stroke-linecap="round" stroke-linejoin="round" stroke-width=".5" d="M51.1 43.3c0-.5 0-.8-.4-1.8-.2-.6-.2-1 .2-1.2.3-.1.6.1 1 .7.3.6.5 1.6.6 2.8"/>
  <path fill="#050505" d="M52.7 43.8c0-1.3-.2-2.3-.6-2.9-.2-.333-.4-.566-.6-.7-.2-.133-.433-.166-.7-.1-.2.067-.333.167-.4.3-.133.267-.1.667.1 1.2.3.8.3 1.2.4 1.6v.1h.5v-.2c-.1-.4-.1-.8-.5-1.7-.1-.5-.1-.7-.1-.8.067 0 .133-.032.2-.1 0 0 .1 0 .2.1.133.067.3.234.5.5.3.5.5 1.5.5 2.7h.5Z"/>
  <path fill="#050505" d="M47.5 43.6s.7-.1.7-.4c.1-.2 0-1.2-.4-2-.4-.7 0-.9.4-.7.3.3 1 1.7 1 2.4 0 0 .4.1.6.1.2.1-.2-1.4-.4-1.8-.3-.5-.5-1.4-.2-1.6 0 0 .1.8.4 1.3.3.6.7 2.2.7 2.2h.5s0-.5-.2-1.1c-.2-.7-.5-1.6.2-1.7 0 0-.4.3-.2.9.2.6.6 2 .6 2s.5.2.7.3c.1.1.2-.9 0-1.5s-.7-1.2-.5-1.3c.2-.2.5.1.6.3 0 .2.5 1.4.4 2.7 0 0 .2.3.2 1.1 0 0-.2-.9-.6-.7-.4.2-.5.4-.7.4-.2.1-2.2-.3-2.7-.5-.5-.1-1.1-.4-1.1-.4Z" opacity=".2" style="mix-blend-mode:multiply"/>
  <path fill="#E7CBAF" d="M47.7 43.5c-.3-.5-.4-.9-.4-1.1-.1-.3-.4-.6-.9-.4-.6.1-.7.7-.4 1.8.3 1.1 1.1 1.9 1.5 2.4"/>
  <path stroke="#050505" stroke-linecap="round" stroke-linejoin="round" stroke-width=".5" d="M47.7 43.5c-.3-.5-.4-.9-.4-1.1-.1-.3-.4-.6-.9-.4-.6.1-.7.7-.4 1.8.3 1.1 1.1 1.9 1.5 2.4"/>
  <path fill="#050505" d="M47.6 46.4h.1c.1-.1.1-.3 0-.4l-.3-.3c-.4-.5-.9-1.1-1.2-2-.3-1.3.1-1.5.2-1.5.2-.066.367-.066.5 0 .1 0 .1.1.1.2l.1.1c0 .3.1.7.4 1.2.1.1.3.1.4 0 .1-.1.1-.2 0-.3-.2-.4-.3-.7-.3-1l-.1-.1c0-.2-.2-.4-.4-.5-.2-.1-.4-.2-.8-.1-.4.134-.633.4-.7.8-.067.334-.034.767.1 1.3.3 1 .9 1.7 1.3 2.2l.3.3c.067.067.167.1.3.1Z"/>
  <path fill="#742F23" stroke="#050505" stroke-linejoin="round" stroke-width=".7" d="M43.4 93.8c1.7-1.3 2.6-1 2.6-1s.1 9.301.3 10.601c.4 2.3 4.4 2.799 3.3 3.199l-9.9 2.301-2.3-12.1s2.3.6 3.7-.2c.4-.2 1.4-2.1 2.3-2.8Z"/>
  <path fill="#050505" d="M37.6 98c1.7-1.1 3.4-1.8 4-1.9.9-.2.3.7-.1 1.9-.5 1.3-.5 4.401-.5 5.301 0 .9 2.5.2 2.6.6 0 .4-.8.3-1.2.9-.5.6 3.4 1.4 5.4 1.4.9 0 1.2 0 1.4-.1.5.2.8.4.4.5l-9.9 2.3-2.1-10.9Z" opacity=".2" style="mix-blend-mode:multiply"/>
  <path fill="#742F23" stroke="#050505" stroke-linejoin="round" stroke-width=".7" d="M42.1 95.1s-1.7-.399-3.9.401c-1.3.5-1.9 2-3.5 2.9-.9.6-1.6.5-1.6.5s2 5.4 2.2 6.7c.1 1.3.6 4.2.6 4.2l8.3-1.9s-.7-1.6-1.5-3c-.7-1.4-.9-7.7-.6-9.8Z"/>
  <path fill="#050505" d="m38.3 109.201-2.4.6s-.5-2.9-.6-4.2c-.1-1-1.3-4.3-1.8-5.9 2.1-1.8 5-2.7 5-2.7-.6 1.1-.3 4.8 0 6.6.2 1.8 3 .9 1.8 1.2-1.2.4-4.3 1.5-4.4 3.2-.1 1.1 1.2 1.3 2.4 1.2Z" opacity=".2" style="mix-blend-mode:multiply"/>
  <path fill="#BE4628" stroke="#050505" stroke-linecap="round" stroke-linejoin="round" stroke-width=".7" d="M46.7 77.9S51 88.7 52 91.2c0 0-1.7 2.4-2.7 3.4-1 1-1.7 1.1-1.7 1.1s-6.2 3-6.9 3.4c-.7.4-3.2 1-3.2 1s-3.2 1.3-3.9 1.4c-.8.1-6.4 1.1-6.4 1.1l-1.5-16.4 21-8.3Z"/>
  <path fill="#BE4628" d="m44.4 83.2 4 13.3s.3 2.1-5.8 3.4c-1 .2-1.7 0-1.7 0l-1.6-10.3"/>
  <path stroke="#050505" stroke-linecap="round" stroke-linejoin="round" stroke-width=".7" d="m44.4 83.2 4 13.3s.3 2.1-5.8 3.4c-1 .2-1.7 0-1.7 0l-1.6-10.3"/>
  <path fill="#BE4628" d="m35.6 90.6 2.2 10.901s-6.4 1.9-9.5.7l-.3-4.7"/>
  <path stroke="#050505" stroke-linecap="round" stroke-linejoin="round" stroke-width=".7" d="m35.6 90.6 2.2 10.901s-6.4 1.9-9.5.7l-.3-4.7"/>
  <path fill="#D4E49C" d="M42.5 56.2c1.8 5.1.8 8.7 1.1 11.4.3 2.6 5.3 13.8 5.3 13.8s-4.3 2.6-11.4 6c-7 3.4-12 4.5-12 4.5S23.1 76.3 23 75.8c-.1-.5-4.2-11.4-4.7-14.9s.4-6.2 5.6-9.1c5.2-2.8 11.6-3.9 11.6-3.9"/>
  <path stroke="#050505" stroke-linecap="round" stroke-linejoin="round" stroke-width=".7" d="M42.5 56.2c1.8 5.1.8 8.7 1.1 11.4.3 2.6 5.3 13.8 5.3 13.8s-4.3 2.6-11.4 6c-7 3.4-12 4.5-12 4.5S23.1 76.3 23 75.8c-.1-.5-4.2-11.4-4.7-14.9s.4-6.2 5.6-9.1c5.2-2.8 11.6-3.9 11.6-3.9"/>
  <path fill="#D4E49C" d="M32.2 70.6s-2.9 2-6.3.7c-3.3-1.3-2.9-4.9-2.5-6.4"/>
  <path stroke="#050505" stroke-linecap="round" stroke-linejoin="round" stroke-width=".7" d="M32.2 70.6s-2.9 2-6.3.7c-3.3-1.3-2.9-4.9-2.5-6.4"/>
  <path fill="#D4E49C" d="M41.2 53.4s1.7 3.8 3.1 5.3c1.5 1.6 2.3 4.2-1.3 7.4"/>
  <path stroke="#050505" stroke-linecap="round" stroke-linejoin="round" stroke-width=".7" d="M41.2 53.4s1.7 3.8 3.1 5.3c1.5 1.6 2.3 4.2-1.3 7.4"/>
  <path fill="#D4E49C" d="M36.2 48.5s3.3 1 7 4.3l-2.3 4.5 2.4-1.3s.5 3.4 0 5.1c-.3 1.3-1.1 2.7-2 3.9-.8 1.1-.6 3.1-.6 3.1"/>
  <path stroke="#050505" stroke-linecap="round" stroke-linejoin="round" stroke-width=".7" d="M36.2 48.5s3.3 1 7 4.3l-2.3 4.5 2.4-1.3s.5 3.4 0 5.1c-.3 1.3-1.1 2.7-2 3.9-.8 1.1-.6 3.1-.6 3.1"/>
  <path fill="#FBBE12" d="m43.2 52.8-2.3 4.5 2.4-1.3s.5 3.4 0 5.1c-.3 1.3-1.1 2.7-2 3.9-.5.7-.6 1.9-.6 2.6-.9-2 .1-4.3.8-5.6 1-1.9.5-4.1.5-4.1l-1.6 1.3-.8-.8c.7-1.3 1.9-5.4 1.9-5.4-1.1-1-3.6-1.9-4.8-2.4l-.5-2.1s3.3 1 7 4.3Z" style="mix-blend-mode:multiply"/>
  <path fill="#BE4628" d="M44.7 85.1s-4.6-14.2-5.3-17.4c.5-3.7-.8-4.4-.8-4.4s.6-2.6-.4-7.9c-1.1-5.3-5.2-3.7-5.2-3.7l-7.7.4c8 4.6 6.6 10.6 6.6 10.6s.5 1.2 1.8 3.1c1.2 1.8 0 5.3 0 5.3.9 4.7 1.9 18 1.9 18"/>
  <path stroke="#050505" stroke-linecap="round" stroke-linejoin="round" stroke-width=".7" d="M33 51.7s4.1-1.6 5.2 3.7c1 5.3.4 7.9.4 7.9s1.3.7.8 4.4c.7 3.2 4.9 16.1 4.9 16.1m-8.8 4.7s-.9-12.7-1.8-17.4c0 0 1.2-3.5 0-5.3-1.3-1.9-1.8-3.1-1.8-3.1s1.4-6-6.6-10.6"/>
  <path fill="#222" d="M34.6 74.7s2.2 3 1 4.2c-1.3 1.2-3.8.9-3.8.9s.8 2-.2 2.4c-1.1.4-6.1.1-6.6-.1-.4-.2.7 1.4-.1 1.6-.7.3-1-.2-1-.2l-1.1-5.7 11.8-3.1Zm-7-1.4s-2.5-.3-2.2-1c.4-.7 3.5-.2 4.1-.6 0 0-4.7-.6-5-3.5-.3-3 1.2-3.8 1.2-3.8h-1.2l-.7-1.4s-1.3 2.6-1.3 3.3c-.1.6-.8 6.1-.1 6.9.7.7 5.2.1 5.2.1Z" opacity=".2" style="mix-blend-mode:multiply"/>
  <path fill="#E7CBAF" d="M29 71.5c.6-.5.8-.9 1.3-.9l1.5.4c.3 0 .5.4.4.7v.1c-.1.3-.4.5-.8.4l-1-.3-.4.3"/>
  <path stroke="#050505" stroke-linecap="round" stroke-linejoin="round" stroke-width=".5" d="M29 71.5c.6-.5.8-.9 1.3-.9l1.5.4c.3 0 .5.4.4.7v.1c-.1.3-.4.5-.8.4l-1-.3-.4.3"/>
  <path fill="#E7CBAF" stroke="#050505" stroke-linecap="round" stroke-linejoin="round" stroke-width=".5" d="M25.9 75.8c.2.9.3 1.3 1.4 1.6.5.2 3.4-.5 3.8-.6.5-.1 1.4-.2 1.6-.3.2-.1.5-.3.5-.7 0-.3-.2-.5-.4-.6.3-.1.5-.3.4-.7 0-.3-.2-.6-.5-.6.4-.1.6-.4.6-.8-.1-.3-.4-.7-.8-.6 0 0 .8-.1.7-.9-.1-.6-1.2-.5-1.7-.4-.7 0-.1 0-1.7.3-1.6.6-1.8.9-2.8 1.8-1.4 1-1.3 1.7-1.1 2.5Z"/>
  <g opacity=".3">
    <path fill="#050505" d="m30.5 77.1-1.7.4s-1.5-.3-2.1-1.9c-.6-1.7 1.9-3.6 1.9-3.6s.7-.9 1.6-.5c1 .4.3 5.6.3 5.6Z" opacity=".2" style="mix-blend-mode:multiply"/>
  </g>
  <path fill="#D4E49C" d="M20.7 53.9s-2.7 1.8-4.6 7.5c-2 5.6-1.7 12.5.4 15.1 1.8 2.4 13.6 1.9 13.9.5.4-1.9-.7-5.4-1.5-6 0 0-5.8.6-6.4 0-.7-.5-.7-3.3-.1-6.5 1.1-2.4 1.1-3.3 1.1-3.3"/>
  <path stroke="#050505" stroke-linecap="round" stroke-linejoin="round" stroke-width=".7" d="M20.7 53.9s-2.7 1.8-4.6 7.5c-2 5.6-1.7 12.5.4 15.1 1.8 2.4 13.6 1.9 13.9.5.4-1.9-.7-5.4-1.5-6 0 0-5.8.6-6.4 0-.7-.5-.7-3.3-.1-6.5 1.1-2.4 1.1-3.3 1.1-3.3"/>
  <path fill="#050505" d="M28.4 77.9c.067-1.8-.233-3.466-.9-5-.3-.8-.7-1.4-.9-1.7.8 0 1.6-.1 2-.1l.5 1c.4.867.7 1.834.9 2.9.133.734.167 1.5.1 2.3-.3.2-.9.4-1.7.6Z"/>
  <path fill="#222" d="M23.9 71.3c-1.1.2-2.9.4-4.6-.5-2.9-1.3 1.6-.6 1.6-.6s-.7-.9-.4-2c.2-1.2 1.1-1.4 1.1-1.4s-1-1.9-.6-2.3c.3-.3 1-.4 1.8-.8l-.4.8c-.6 3.2-.6 6 .1 6.5.1.2.7.3 1.4.3Zm-9 .7c-.4-3.1-.1-7.1 1.2-10.6.333-1.066.7-1.966 1.1-2.7.3-.1.7 0 .6.8-.2 1.2-2.2 7-2.3 8.3-.2 1.4 1 1.1.4 2.2-.3.6-.6 1.5-1 2Zm4.4-16.5s1.3-.9 2.8.7c1.5 1.7.9 4.3.9 4.3l3 .5-1.7.8s.2 1.1 1 1.5c.8.5 5 3.1 6.4 4.5l-5.3-5.5 2.1-.9-3.6-2s.9-4.3-2-6.5l-1.4.2-2.2 2.4Z" opacity=".2" style="mix-blend-mode:multiply"/>
  <path fill="#D4E49C" d="M21.8 53.5s3 .6 2.3 6.3l4.2 1.5-3.1.8s4.6 3.4 6.1 5.1c1.5 1.7 1.5 2.2 1.5 2.2"/>
  <path stroke="#050505" stroke-linecap="round" stroke-linejoin="round" stroke-width=".7" d="M21.8 53.5s3 .6 2.3 6.3l4.2 1.5-3.1.8s4.6 3.4 6.1 5.1c1.5 1.7 1.5 2.2 1.5 2.2"/>
  <path fill="#FBBE12" d="M21.5 49.3c.2 0 1.1.4 2.3 1.9.6.867 1.033 1.9 1.3 3.1.3 1.3.4 3.2.3 4.8l5 1.8-.5 1.4-1.9.5c1 .7 2.6 2.1 3.8 3.1.7.9 2.2 2.3 1.4 3.9a1.163 1.163 0 0 1-.3-.2c0-.066-.033-.133-.1-.2 0 0 0-.5-1.5-2.2-1.2-1.4-4.5-3.9-5.7-4.8l.1-.5 2.6-.6-4.2-1.5c.3-2.8-.2-4.3-.8-5.2-.2-.9-.5-1.5-.8-1.9-.5-.7-1.1-1-1.3-1v-.2l.3-2.2Z" style="mix-blend-mode:multiply"/>
  <path fill="#222" d="M43.2 66.9s-.4 4.1-.5 5.7c0 1.6 1.1 2.2 1.2 1.1 0-1.1 1-.5 1.2-.3.1.2-1.9-6.5-1.9-6.5Z" opacity=".2" style="mix-blend-mode:multiply"/>
  <path fill="#BE4628" d="m39.3 91.3 1.4 7.8-3.2 1-1.1-6.5s2.7 3.3 2.9-2.3Zm12.5-1.8s-3.8 1.4-6.5-2.3l2.9 8.3 3.8-4.3-.2-1.7Z" opacity=".7" style="mix-blend-mode:multiply"/>
  <path fill="#EAEBE8" d="M32.2 36.6s-1.3-.7-3 .3-2.9 6.5-3.4 9.5.2 6.2-2.7 7.2c-2.1.8-5.3-.9-5.7-2.8 0 0-5.5-.7-6.8-4.5-1.6-4.8 2.1-7.7 2.9-8.7 0 0-.3-2.3 1.3-4.3 2-2.7 5-4.1 9.6-3.6 0 0 3.5-3.9 8.2-2.4 4.2 1.3 4.3 3.4 4.3 3.4s6.4 1.6 7.6 6.9c.9 3.7-1.6 5.1-2.9 5.5 0 0 .7 3.3-2.2 5.1-2.6 1.7-4.7-1.1-4.7-1.1"/>
  <path stroke="#050505" stroke-linecap="round" stroke-linejoin="round" stroke-width=".5" d="M32.2 36.6s-1.3-.7-3 .3-2.9 6.5-3.4 9.5.2 6.2-2.7 7.2c-2.1.8-5.3-.9-5.7-2.8 0 0-5.5-.7-6.8-4.5-1.6-4.8 2.1-7.7 2.9-8.7 0 0-.3-2.3 1.3-4.3 2-2.7 5-4.1 9.6-3.6 0 0 3.5-3.9 8.2-2.4 4.2 1.3 4.3 3.4 4.3 3.4s6.4 1.6 7.6 6.9c.9 3.7-1.6 5.1-2.9 5.5 0 0 .7 3.3-2.2 5.1-2.6 1.7-4.7-1.1-4.7-1.1"/>
  <path fill="#E7CBAF" stroke="#050505" stroke-linecap="round" stroke-linejoin="round" stroke-width=".6" d="M29 30.1s6.5 1 8.8 7c2.4 6 2.4 14.5.7 16.6-1.7 2.2-5.9 1-10.6-.6-4.7-1.7-7.5-3.5-9.2-7.3-1.7-3.7-1.7-8.5.4-11.5 2.2-3.1 6.1-4.6 9.9-4.2Z"/>
  <path stroke="#050505" stroke-linecap="round" stroke-linejoin="round" stroke-width=".4" d="M33.6 51.1s.9.5 2.3 0"/>
  <path fill="#050505" d="M33.7 51.1s1.1.4 2 0c0 0-.9.8-1.5.6-.7-.1-.5-.6-.5-.6Zm3.1.1s.5-.1.8.4c.2.6 0-.6 0-.6s-.1-.3-.8.2Zm-3.7-1.4s-.6-.5-.4-.4c.2 0 1.5.2 2.4.1 1-.1 1.9-.4 1.9-.1 0 .3-2 .8-2.5.7-.6-.1-1.4-.3-1.4-.3Z" opacity=".1" style="mix-blend-mode:multiply"/>
  <path fill="#050505" d="M36.7 49.4s-.9.3-2.3.3c-1.2 0-1.6-.4-1.8-.3-.1.1.6.9 1.6 1.1 1.1.1 2.2-.5 2.7-.8.2-.2.2-.5-.2-.3Z"/>
  <g opacity=".2" style="mix-blend-mode:multiply">
    <mask id="b" width="6" height="5" x="35" y="43" maskUnits="userSpaceOnUse" style="mask-type:luminance">
      <path fill="#fff" d="M35.96 45.79c.26.75 1.8 2.03 2.97 1.62 1.18-.4 1.54-2.34 1.28-3.09s-1.6-1.44-2.77-1.04c-1.17.41-1.74 1.76-1.48 2.51Z"/>
    </mask>
    <g mask="url(#b)">
      <path fill="#FEFEFE" d="m39.6 42.501-4.3 1.5 1.5 4.2 4.2-1.5-1.4-4.2Z"/>
      <path fill="#FEFEFE" d="M36.9 45.8c.3.9 1.1 1.401 1.8 1.201.8-.3 1.1-1.2.8-2.1-.3-.9-1.1-1.4-1.9-1.2-.7.3-1.1 1.2-.7 2.1Z"/>
      <path fill="#FEFEFE" d="M36.9 45.8c.3.9 1.1 1.401 1.8 1.201.8-.3 1.1-1.2.8-2.1-.3-.9-1.1-1.4-1.9-1.2-.7.3-1 1.2-.7 2.1Z"/>
      <path fill="#FEFBFC" d="M36.9 45.8c.3.9 1.1 1.401 1.8 1.201.8-.3 1.1-1.2.8-2.1-.3-.9-1.1-1.4-1.9-1.2-.7.3-1 1.2-.7 2.1Z"/>
      <path fill="#FEFAFA" d="M36.9 45.801c.3.9 1.1 1.4 1.8 1.1.8-.2 1.1-1.1.8-2-.3-.9-1.1-1.4-1.9-1.1-.7.2-1 1.1-.7 2Z"/>
      <path fill="#FEFAF9" d="M36.9 45.801c.3.9 1.1 1.4 1.8 1.1.8-.2 1.1-1.1.8-2-.3-.9-1.1-1.4-1.9-1.1-.7.2-1 1.1-.7 2Z"/>
      <path fill="#FEFAF8" d="M36.9 45.801c.3.9 1.1 1.4 1.8 1.1.7-.2 1.1-1.1.8-2-.3-.9-1.1-1.4-1.9-1.1-.7.2-1 1.1-.7 2Z"/>
      <path fill="#FDF8F7" d="M36.9 45.801c.3.9 1.1 1.4 1.8 1.1.7-.2 1.1-1.1.8-2-.3-.9-1.1-1.4-1.9-1.1-.7.2-1 1.1-.7 2Z"/>
      <path fill="#FDF7F5" d="M36.9 45.801c.3.9 1.1 1.4 1.8 1.1.7-.2 1.1-1.1.8-2-.3-.9-1.1-1.4-1.9-1.1-.7.2-1 1.1-.7 2Z"/>
      <path fill="#FDF6F5" d="M36.9 45.8c.3.8 1.1 1.3 1.8 1.1.7-.2 1.1-1.1.8-2-.3-.9-1.1-1.3-1.9-1.1-.7.2-1 1.1-.7 2Z"/>
      <path fill="#FDF5F4" d="M36.9 45.8c.3.8 1.1 1.301 1.8 1.101.7-.3 1-1.1.8-2-.3-.8-1.1-1.3-1.8-1.1-.7.2-1.1 1.1-.8 2Z"/>
      <path fill="#FDF4F2" d="M36.9 45.8c.3.8 1.1 1.301 1.8 1.101.7-.3 1-1.1.7-2-.2-.8-1-1.3-1.7-1.1-.7.3-1.1 1.1-.8 2Z"/>
      <path fill="#FDF4F1" d="M36.9 45.8c.3.8 1.1 1.301 1.8 1.101.7-.3 1-1.1.7-2-.3-.8-1.1-1.3-1.7-1.1-.7.3-1.1 1.1-.8 2Z"/>
      <path fill="#FDF2F0" d="M36.9 45.8c.3.8 1.1 1.301 1.8 1.101.7-.3 1-1.1.7-2-.3-.8-1.1-1.3-1.7-1.1-.7.3-1.1 1.1-.8 2Z"/>
      <path fill="#FDF2EF" d="M36.9 45.8c.3.8 1.1 1.301 1.8 1.101.7-.3 1-1.1.7-2-.3-.8-1.1-1.3-1.7-1.1-.7.3-1 1.1-.8 2Z"/>
      <path fill="#FDF1EE" d="M37 45.8c.2.8 1 1.3 1.7 1 .7-.2 1-1.099.7-1.899-.3-.8-1.1-1.3-1.7-1.1-.7.3-1 1.1-.7 2Z"/>
      <path fill="#FCEFED" d="M37 45.8c.2.8 1 1.3 1.7 1 .7-.2 1-1.099.7-1.899-.3-.8-1.1-1.3-1.7-1-.7.2-1 1-.7 1.9Z"/>
      <path fill="#FCF0EC" d="M37 45.8c.3.8 1 1.3 1.7 1 .7-.2 1-1.099.7-1.899-.3-.8-1.1-1.3-1.7-1-.7.2-1 1-.7 1.9Z"/>
      <path fill="#FCEEEA" d="M37 45.8c.3.8 1 1.3 1.7 1 .7-.2 1-1.099.7-1.899-.3-.8-1.1-1.3-1.7-1-.7.2-1 1.1-.7 1.9Z"/>
      <path fill="#FCEDE9" d="M37 45.8c.3.8 1 1.2 1.7 1 .7-.2 1-1.099.7-1.899-.3-.8-1.1-1.3-1.7-1-.7.2-1 1.1-.7 1.9Z"/>
      <path fill="#FAECE8" d="M37 45.8c.3.8 1 1.2 1.7 1 .7-.2 1-1.1.7-1.9-.3-.8-1.1-1.2-1.7-1-.7.2-1 1.1-.7 1.9Z"/>
      <path fill="#FAEAE6" d="M37 45.8c.3.8 1 1.2 1.7 1 .6-.2 1-1.1.7-1.9-.3-.8-1.1-1.2-1.7-1-.7.2-1 1.1-.7 1.9Z"/>
      <path fill="#F8E9E4" d="M37 45.8c.3.8 1 1.2 1.7 1 .6-.2.9-1.1.7-1.9-.3-.8-1.1-1.2-1.7-1-.7.2-1 1.1-.7 1.9Z"/>
      <path fill="#F8E8E4" d="M37 45.8c.3.7 1 1.2 1.7 1 .6-.2.9-1.1.7-1.9-.3-.8-1.1-1.2-1.7-1-.7.2-1 1.1-.7 1.9Z"/>
      <path fill="#F8E7E2" d="M37 45.8c.3.7 1 1.2 1.7 1 .6-.3.9-1.1.7-1.9-.3-.7-1.1-1.2-1.7-1-.7.2-1 1.1-.7 1.9Z"/>
      <path fill="#F8E5E1" d="M37 45.8c.3.7 1 1.2 1.7 1 .6-.3.9-1.1.6-1.9-.2-.7-1-1.2-1.6-1-.6.3-.9 1.1-.7 1.9Z"/>
      <path fill="#F9E5E0" d="M37 45.7c.3.8 1 1.3 1.7 1.1.6-.3.9-1.1.6-1.9-.2-.7-1-1.2-1.6-1-.6.3-.9 1.1-.7 1.8Z"/>
      <path fill="#F9E5DF" d="M37 45.7c.3.8 1 1.3 1.7 1 .6-.2.9-1 .6-1.8-.2-.7-1-1.2-1.6-1-.6.3-.9 1.1-.7 1.8Z"/>
      <path fill="#F9E4DE" d="M37 45.701c.3.8 1 1.3 1.7 1 .6-.2.9-1 .6-1.7-.2-.8-1-1.3-1.6-1-.6.2-.9 1-.7 1.7Z"/>
      <path fill="#F9E3DD" d="M37.1 45.701c.2.8.9 1.2 1.6 1 .6-.2.9-1 .6-1.7-.2-.8-1-1.3-1.6-1-.6.2-.9 1-.6 1.7Z"/>
      <path fill="#F9E1DB" d="M37.1 45.701c.2.8.9 1.2 1.6 1 .6-.2.9-1 .6-1.7-.2-.8-1-1.2-1.6-1-.6.2-.9 1-.6 1.7Z"/>
      <path fill="#F9E1DB" d="M37.1 45.701c.2.8.9 1.2 1.6 1 .6-.2.9-1 .6-1.7-.3-.8-1-1.2-1.6-1-.6.2-.9 1-.6 1.7Z"/>
      <path fill="#F6E0DA" d="M37.1 45.701c.2.8.9 1.2 1.6 1 .6-.2.9-1 .6-1.7-.3-.8-1-1.2-1.6-1-.6.2-.9 1-.6 1.7Z"/>
      <path fill="#F7E0D8" d="M37.1 45.701c.2.8.9 1.2 1.6 1 .6-.2.9-1 .6-1.7-.3-.8-1-1.2-1.6-1-.6.2-.9 1-.6 1.7Z"/>
      <path fill="#F6DFD8" d="M37.1 45.701c.2.8.9 1.2 1.6 1 .6-.2.8-1 .6-1.7-.3-.8-1-1.2-1.6-1-.6.2-.9 1-.6 1.7Z"/>
      <path fill="#F6DDD7" d="M37.1 45.701c.2.8.9 1.2 1.5 1 .7-.2.9-1 .7-1.7-.3-.8-1-1.2-1.6-1-.6.2-.9 1-.6 1.7Z"/>
      <path fill="#F6DCD7" d="M37.1 45.701c.3.8.9 1.2 1.5 1 .6-.2.9-1 .7-1.7-.3-.8-1-1.2-1.6-1-.6.2-.9 1-.6 1.7Z"/>
      <path fill="#F6DCD5" d="M37.1 45.701c.3.7.9 1.2 1.5 1 .6-.2.9-1 .7-1.7-.3-.8-1-1.2-1.6-1-.6.2-.8 1-.6 1.7Z"/>
      <path fill="#F6DCD4" d="M37.1 45.7c.3.7.9 1.2 1.5 1 .6-.3.9-.999.7-1.699-.3-.7-1-1.2-1.6-1-.6.2-.8 1-.6 1.7Z"/>
      <path fill="#F6DAD4" d="M37.1 45.7c.3.7.9 1.1 1.5.9.6-.2.9-.899.7-1.599-.3-.7-1-1.2-1.6-1-.6.3-.8 1-.6 1.7Z"/>
      <path fill="#F7DAD3" d="M37.1 45.7c.3.7.9 1.1 1.5.9.6-.2.9-.9.6-1.6-.2-.7-.9-1.1-1.5-.9-.5.2-.8.9-.6 1.6Z"/>
      <path fill="#F7D9D2" d="M37.1 45.7c.3.7.9 1.1 1.5.9.6-.2.9-.9.6-1.6-.2-.7-.9-1.1-1.5-.9-.5.2-.8.9-.6 1.6Z"/>
      <path fill="#F6D8D0" d="M37.1 45.7c.3.7 1 1.1 1.5.9.6-.2.9-.9.6-1.6-.2-.7-.9-1.1-1.5-.9-.5.2-.8.9-.6 1.6Z"/>
      <path fill="#F6D7D0" d="M37.1 45.7c.3.7 1 1.1 1.5.9.6-.2.9-.9.6-1.6-.2-.7-.9-1.1-1.5-.9-.5.2-.8.9-.6 1.6Z"/>
      <path fill="#F6D5CF" d="M37.2 45.7c.2.7.9 1.1 1.4.9.6-.2.9-.9.6-1.6-.2-.7-.9-1.1-1.4-.9-.6.2-.9.9-.6 1.6Z"/>
      <path fill="#F6D6CE" d="M37.2 45.7c.2.7.9 1.1 1.4.9.6-.2.8-.9.6-1.6-.2-.7-.9-1.1-1.4-.9-.6.2-.9.9-.6 1.6Z"/>
      <path fill="#F6D5CE" d="M37.2 45.7c.2.7.9 1.1 1.4.9.6-.2.8-.9.6-1.6-.2-.7-.9-1.1-1.4-.9-.6.2-.9.9-.6 1.6Z"/>
      <path fill="#F6D4CC" d="M37.2 45.7c.2.7.9 1.1 1.4.9.6-.2.8-.9.6-1.6-.2-.7-.9-1.1-1.4-.9-.6.2-.9.9-.6 1.6Z"/>
      <path fill="#F6D3CB" d="M37.2 45.7c.2.7.9 1.1 1.4.9.6-.2.8-.9.6-1.6-.2-.7-.9-1.1-1.4-.9-.6.2-.8.9-.6 1.6Z"/>
      <path fill="#F6D2CA" d="M37.2 45.7c.2.7.9 1.1 1.4.9.6-.2.8-.9.6-1.6-.3-.7-.9-1.1-1.4-.9-.6.2-.8.9-.6 1.6Z"/>
      <path fill="#F6D2CA" d="M37.2 45.7c.2.7.9 1 1.4.9.5-.2.8-.9.6-1.6-.3-.7-.9-1-1.4-.9-.6.2-.8.9-.6 1.6Z"/>
      <path fill="#F6D1C9" d="M37.2 45.701c.2.6.9 1 1.4.8.5-.1.8-.8.6-1.5-.3-.7-.9-1-1.4-.8-.6.1-.8.8-.6 1.5Z"/>
      <path fill="#F5D0C8" d="M37.2 45.7c.2.6.9 1.001 1.4.801.5-.2.8-.8.6-1.5-.3-.6-.9-1-1.4-.8-.6.1-.8.8-.6 1.5Z"/>
      <path fill="#F5CFC7" d="M37.2 45.7c.2.6.9 1.001 1.4.801.5-.2.8-.8.6-1.5-.3-.6-.9-1-1.4-.8-.6.2-.8.8-.6 1.5Z"/>
      <path fill="#F5CEC6" d="M37.2 45.7c.2.6.9 1.001 1.4.801.5-.2.8-.8.5-1.5-.2-.6-.8-1-1.3-.8-.5.2-.8.8-.6 1.5Z"/>
      <path fill="#F5CDC5" d="M37.2 45.7c.3.6.9 1.001 1.4.801.5-.2.8-.8.5-1.5-.2-.6-.8-1-1.3-.8-.5.2-.8.8-.6 1.5Z"/>
      <path fill="#F5CDC4" d="M37.2 45.7c.3.6.9 1.001 1.4.801.5-.2.8-.8.5-1.5-.2-.6-.8-1-1.3-.8-.5.2-.8.8-.6 1.5Z"/>
      <path fill="#F4CCC4" d="M37.2 45.7c.3.6.9 1.001 1.4.801.5-.2.7-.8.5-1.5-.2-.6-.8-1-1.3-.8-.5.2-.8.8-.6 1.5Z"/>
      <path fill="#F4CBC3" d="M37.3 45.7c.2.6.8 1.001 1.3.801.5-.2.7-.8.5-1.5-.2-.6-.8-1-1.3-.8-.5.2-.8.8-.5 1.5Z"/>
      <path fill="#F4CAC2" d="M37.3 45.7c.2.6.8 1.001 1.3.801.5-.2.7-.9.5-1.5-.2-.6-.8-1-1.3-.8-.5.2-.8.8-.5 1.5Z"/>
      <path fill="#F4C8C1" d="M37.3 45.7c.2.6.8.9 1.3.8.5-.2.7-.9.5-1.5-.2-.6-.8-.9-1.3-.8-.5.2-.7.8-.5 1.5Z"/>
      <path fill="#F3C9C0" d="M37.3 45.7c.2.6.8.9 1.3.8.5-.2.7-.9.5-1.5-.2-.6-.8-.9-1.3-.8-.5.2-.7.8-.5 1.5Z"/>
      <path fill="#F2C8BF" d="M37.3 45.7c.2.6.8.9 1.3.8.5-.2.7-.9.5-1.5-.2-.6-.8-.9-1.3-.8-.5.2-.7.9-.5 1.5Z"/>
      <path fill="#F2C7BF" d="M37.3 45.701c.2.6.8.9 1.3.7.5-.1.7-.8.5-1.4-.2-.6-.8-.9-1.3-.7-.5.1-.7.8-.5 1.4Z"/>
      <path fill="#F2C5BD" d="M37.3 45.701c.2.6.8.9 1.3.7.5-.1.7-.8.5-1.4-.2-.6-.8-.9-1.3-.7-.5.1-.7.8-.5 1.4Z"/>
      <path fill="#F3C5BE" d="M37.3 45.701c.2.5.8.9 1.3.7.4-.1.7-.8.5-1.4-.2-.6-.8-.9-1.3-.7-.5.1-.7.8-.5 1.4Z"/>
      <path fill="#F3C4BD" d="M37.3 45.7c.2.5.8.9 1.3.7.4-.2.7-.8.5-1.4-.2-.5-.8-.9-1.3-.7-.5.1-.7.8-.5 1.4Z"/>
      <path fill="#F3C4BC" d="M37.3 45.6c.2.6.8 1 1.3.8.4-.2.7-.8.5-1.4-.2-.5-.8-.9-1.3-.7-.5.2-.7.8-.5 1.3Z"/>
      <path fill="#F3C3BC" d="M37.3 45.6c.2.6.8 1 1.3.8.4-.2.7-.8.4-1.4-.2-.5-.7-.9-1.2-.7-.5.2-.7.8-.5 1.3Z"/>
      <path fill="#F3C2BA" d="M37.3 45.601c.2.6.8 1 1.2.8.5-.2.7-.8.5-1.3-.2-.6-.7-1-1.2-.8-.4.2-.7.8-.5 1.3Z"/>
      <path fill="#F2C0B8" d="M37.3 45.601c.2.6.8.9 1.2.8.5-.2.7-.8.5-1.3-.2-.6-.7-1-1.2-.8-.4.2-.7.8-.5 1.3Z"/>
      <path fill="#F2C0B7" d="M37.3 45.6c.2.6.8.9 1.2.8.5-.2.7-.8.5-1.3-.2-.6-.7-.9-1.2-.8-.4.2-.7.8-.5 1.3Z"/>
      <path fill="#F1BEB7" d="M37.4 45.6c.1.6.7.9 1.1.8.5-.2.7-.8.5-1.3-.2-.6-.7-.9-1.2-.8-.4.2-.6.8-.4 1.3Z"/>
      <path fill="#F0BDB5" d="M37.4 45.6c.2.6.7.9 1.1.8.5-.2.7-.8.5-1.3-.2-.6-.7-.9-1.2-.8-.4.2-.6.8-.4 1.3Z"/>
      <path fill="#F1BDB5" d="M37.4 45.6c.2.6.7.9 1.1.7.5-.1.7-.7.5-1.2-.2-.6-.7-.9-1.2-.8-.4.2-.6.8-.4 1.3Z"/>
      <path fill="#F0BCB4" d="M37.4 45.6c.2.6.7.9 1.1.7.5-.1.7-.7.5-1.2-.2-.6-.7-.9-1.2-.7-.4.1-.6.7-.4 1.2Z"/>
      <path fill="#F0BBB4" d="M37.4 45.6c.2.6.7.9 1.1.7.5-.1.7-.7.5-1.2-.2-.6-.7-.9-1.2-.7-.4.1-.6.7-.4 1.2Z"/>
      <path fill="#F0BBB3" d="M37.4 45.6c.2.6.7.9 1.1.7.5-.1.7-.7.5-1.2-.2-.6-.7-.9-1.2-.7-.4.1-.6.7-.4 1.2Z"/>
      <path fill="#EFBAB2" d="M37.4 45.6c.2.6.7.9 1.1.7.5-.1.7-.7.5-1.2-.2-.6-.7-.9-1.1-.7-.5.1-.7.7-.5 1.2Z"/>
      <path fill="#EFB9B1" d="M37.4 45.6c.2.5.7.9 1.1.7.5-.1.7-.7.5-1.2-.2-.6-.7-.9-1.1-.7-.5.1-.7.7-.5 1.2Z"/>
      <path fill="#EFB8B0" d="M37.4 45.601c.2.5.7.8 1.1.7.4-.2.6-.7.5-1.2-.2-.5-.7-.9-1.1-.7-.5.1-.7.7-.5 1.2Z"/>
      <path fill="#F0B7AF" d="M37.4 45.6c.2.5.7.8 1.1.7.4-.2.6-.7.5-1.2-.2-.5-.7-.799-1.1-.699-.5.2-.7.7-.5 1.2Z"/>
      <path fill="#EFB6AF" d="M37.4 45.6c.2.5.7.8 1.1.7.4-.2.6-.7.5-1.2-.2-.5-.7-.799-1.1-.699-.5.2-.7.7-.5 1.2Z"/>
      <path fill="#EFB6AF" d="M37.4 45.6c.2.5.7.8 1.1.7.4-.2.6-.7.4-1.2-.1-.5-.6-.799-1-.699-.5.2-.6.7-.5 1.2Z"/>
      <path fill="#EFB5AE" d="M37.4 45.6c.2.5.7.8 1.1.7.4-.2.6-.7.4-1.2-.1-.5-.6-.799-1-.699-.4.2-.6.7-.5 1.2Z"/>
      <path fill="#EFB4AD" d="M37.4 45.6c.2.5.7.8 1.1.7.4-.2.6-.7.4-1.2-.1-.5-.6-.799-1-.699-.4.2-.6.7-.5 1.2Z"/>
      <path fill="#F0B3AB" d="M37.4 45.6c.2.5.7.801 1.1.601.4-.1.6-.6.4-1.1-.1-.5-.6-.8-1-.7-.4.2-.6.7-.5 1.2Z"/>
      <path fill="#EFB2AC" d="M37.5 45.601c.1.5.6.8 1 .6.4-.1.6-.6.4-1.1-.2-.5-.6-.8-1-.6-.4.1-.6.6-.4 1.1Z"/>
      <path fill="#F0B2AA" d="M37.5 45.601c.1.5.6.8 1 .6.4-.1.6-.6.4-1.1-.2-.5-.6-.8-1-.6-.4.1-.6.6-.4 1.1Z"/>
      <path fill="#EFB2AA" d="M37.5 45.601c.1.5.6.8 1 .6.4-.1.6-.6.4-1.1-.2-.5-.6-.8-1-.6-.4.1-.6.6-.4 1.1Z"/>
      <path fill="#EFB0A9" d="M37.5 45.601c.1.5.6.7 1 .6.4-.1.6-.6.4-1.1-.2-.5-.6-.8-1-.6-.4.1-.6.6-.4 1.1Z"/>
      <path fill="#EFAFA8" d="M37.5 45.6c.1.5.6.701 1 .601.4-.1.6-.6.4-1.1-.2-.5-.6-.7-1-.6-.4.1-.6.6-.4 1.1Z"/>
      <path fill="#EFAFA8" d="M37.5 45.6c.2.5.6.701 1 .601.4-.1.5-.6.4-1.1-.2-.5-.6-.7-1-.6-.4.1-.6.6-.4 1.1Z"/>
      <path fill="#EEAEA7" d="M37.5 45.6c.2.4.6.701 1 .601.4-.1.5-.6.4-1.1-.2-.5-.6-.7-1-.6-.4.1-.6.6-.4 1.1Z"/>
      <path fill="#EEAEA6" d="M37.5 45.6c.2.4.6.7 1 .6.4-.2.5-.6.4-1.1-.2-.4-.6-.7-1-.6-.4.1-.6.6-.4 1.1Z"/>
      <path fill="#EDADA5" d="M37.5 45.6c.2.4.6.7 1 .6.3-.2.5-.6.4-1.1-.2-.4-.6-.7-1-.6-.4.2-.5.6-.4 1.1Z"/>
      <path fill="#EDACA4" d="M37.5 45.6c.2.4.6.7 1 .6.3-.2.5-.6.4-1.1-.2-.4-.6-.7-1-.6-.4.2-.5.6-.4 1.1Z"/>
      <path fill="#EDABA3" d="M37.5 45.6c.2.4.6.7 1 .6.3-.2.5-.6.3-1.1-.1-.4-.5-.7-.9-.6-.4.2-.5.6-.4 1.1Z"/>
      <path fill="#EDABA3" d="M37.5 45.6c.2.4.6.7 1 .5.3-.1.5-.5.3-1-.1-.4-.5-.7-.9-.6-.4.2-.5.6-.4 1.1Z"/>
      <path fill="#EDAAA2" d="M37.5 45.6c.2.4.6.7 1 .5.3-.1.5-.5.3-1-.1-.4-.5-.7-.9-.5-.3.1-.5.5-.4 1Z"/>
      <path fill="#EEA9A1" d="M37.5 45.6c.2.4.6.7 1 .5.3-.1.5-.5.3-1-.1-.4-.5-.7-.9-.5-.3.1-.5.5-.4 1Z"/>
      <path fill="#EEA89F" d="M37.6 45.6c.1.4.5.6.9.5.3-.1.5-.5.3-1-.1-.4-.5-.6-.9-.5-.3.1-.5.5-.3 1Z"/>
      <path fill="#EEA89F" d="M37.6 45.6c.1.4.5.6.9.5.3-.1.5-.5.3-1-.1-.4-.5-.6-.9-.5-.3.1-.5.5-.3 1Z"/>
      <path fill="#EDA79F" d="M37.6 45.6c.1.4.5.6.8.5.4-.1.6-.6.4-1-.1-.4-.5-.6-.9-.5-.3.1-.5.5-.3 1Z"/>
      <path fill="#EDA69E" d="M37.6 45.6c.1.4.5.6.8.5.4-.1.5-.6.4-1-.1-.4-.5-.6-.9-.5-.3.1-.5.5-.3 1Z"/>
      <path fill="#EDA59D" d="M37.6 45.6c.1.4.5.6.8.5.4-.1.5-.6.4-1-.1-.4-.5-.6-.9-.5-.3.1-.5.5-.3 1Z"/>
      <path fill="#EDA49D" d="M37.6 45.6c.1.4.5.6.8.5.4-.1.5-.6.4-1-.2-.4-.5-.6-.9-.5-.3.1-.5.6-.3 1Z"/>
      <path fill="#EDA49B" d="M37.6 45.6c.1.4.5.6.8.5.4-.1.5-.6.4-1-.2-.4-.5-.6-.9-.5-.3.1-.4.6-.3 1Z"/>
      <path fill="#EDA39B" d="M37.6 45.5c.1.4.5.7.8.6.4-.2.5-.6.4-1-.2-.3-.5-.6-.9-.5-.3.1-.4.6-.3.9Z"/>
      <path fill="#EDA29A" d="M37.6 45.5c.1.4.5.7.8.6.3-.2.5-.6.4-1-.2-.3-.5-.6-.9-.5-.3.2-.4.6-.3.9Z"/>
      <path fill="#EDA19A" d="M37.6 45.501c.1.4.5.7.8.5.3-.1.5-.5.4-.9-.2-.3-.5-.6-.9-.4-.3.1-.4.5-.3.8Z"/>
      <path fill="#EDA199" d="M37.6 45.501c.2.4.5.6.8.5.3-.1.5-.5.4-.8-.2-.4-.5-.6-.9-.5-.3.1-.4.5-.3.8Z"/>
      <path fill="#EDA098" d="M37.6 45.501c.2.4.5.6.8.5.3-.1.5-.5.3-.8-.1-.4-.4-.6-.7-.5-.4.1-.5.5-.4.8Z"/>
      <path fill="#EB9F97" d="M37.6 45.501c.2.4.5.6.8.5.3-.1.5-.5.3-.8-.1-.4-.4-.6-.7-.5-.3.1-.5.5-.4.8Z"/>
      <path fill="#EB9E96" d="M37.6 45.501c.2.4.5.6.8.5.3-.1.5-.5.3-.8-.1-.4-.4-.6-.7-.5-.3.1-.5.5-.4.8Z"/>
      <path fill="#EB9D96" d="M37.7 45.501c.1.4.4.6.7.5.3-.1.4-.5.3-.8-.1-.4-.4-.6-.7-.5-.3.1-.5.5-.3.8Z"/>
      <path fill="#EB9D95" d="M37.7 45.501c.1.4.4.6.7.5.3-.1.4-.5.3-.8-.1-.4-.4-.6-.7-.5-.3.1-.5.5-.3.8Z"/>
      <path fill="#EB9C94" d="M37.7 45.501c.1.4.4.6.7.5.3-.1.4-.5.3-.8-.1-.4-.4-.6-.7-.5-.3.1-.5.5-.3.8Z"/>
      <path fill="#EC9B92" d="M37.7 45.501c.1.4.4.6.7.5.3-.1.4-.5.3-.8-.1-.4-.4-.6-.7-.5-.3.1-.4.5-.3.8Z"/>
      <path fill="#EC9B92" d="M37.7 45.501c.1.4.4.6.7.5.3-.1.4-.5.3-.8-.1-.4-.4-.6-.7-.5-.3.1-.4.5-.3.8Z"/>
      <path fill="#EA9A92" d="M37.7 45.501c.1.4.4.6.7.5.3-.1.4-.5.3-.8-.1-.4-.4-.6-.7-.5-.3.1-.4.5-.3.8Z"/>
      <path fill="#EB9991" d="M37.7 45.501c.1.4.4.5.7.4.3 0 .4-.4.3-.7-.1-.4-.4-.5-.7-.5-.3.1-.4.5-.3.8Z"/>
      <path fill="#EB9891" d="M37.7 45.501c.1.3.4.5.7.4.3-.1.4-.4.3-.7-.1-.3-.5-.5-.7-.4-.3 0-.4.4-.3.7Z"/>
      <path fill="#EA9790" d="M37.7 45.501c.1.3.4.5.7.4.3-.1.4-.4.3-.7-.1-.3-.5-.5-.7-.4-.3.1-.4.4-.3.7Z"/>
      <path fill="#EA978F" d="M37.7 45.501c.1.3.4.5.7.4.2-.1.4-.4.3-.7-.2-.3-.5-.5-.7-.4-.3.1-.4.4-.3.7Z"/>
      <path fill="#EA968E" d="M37.7 45.501c.1.3.4.5.7.4.2-.1.4-.4.3-.7-.2-.3-.5-.5-.7-.4-.3.1-.4.4-.3.7Z"/>
      <path fill="#EA968E" d="M37.7 45.501c.1.3.4.5.7.4.2-.1.4-.4.2-.7-.1-.3-.4-.5-.6-.4-.3.1-.4.4-.3.7Z"/>
      <path fill="#EA948D" d="M37.7 45.501c.1.3.4.5.7.4.2-.1.3-.4.2-.7-.1-.3-.4-.5-.6-.4-.3.1-.4.4-.3.7Z"/>
      <path fill="#EA948C" d="M37.7 45.501c.1.3.4.5.7.4.2-.1.3-.4.2-.7-.1-.3-.4-.5-.6-.4-.2.1-.4.4-.3.7Z"/>
      <path fill="#EA938C" d="M37.7 45.501c.1.3.4.5.7.4.2-.1.3-.4.2-.7-.1-.3-.4-.5-.6-.4-.2.1-.4.4-.3.7Z"/>
      <path fill="#EA938B" d="M37.8 45.501c.1.3.3.5.6.4.2-.1.3-.4.2-.7-.1-.3-.4-.5-.6-.4-.2.1-.3.4-.2.7Z"/>
      <path fill="#EA938A" d="M37.8 45.501c.1.3.3.4.6.4.2-.1.3-.4.2-.7-.1-.3-.4-.5-.6-.4-.2.1-.3.4-.2.7Z"/>
      <path fill="#EA928A" d="M37.8 45.501c.1.3.3.4.6.4.2-.1.3-.4.2-.7-.1-.3-.4-.4-.6-.4-.2.1-.3.4-.2.7Z"/>
      <path fill="#E99089" d="M37.8 45.501c.1.3.3.4.6.3.2 0 .3-.3.2-.6-.1-.3-.4-.4-.6-.4-.2.1-.3.4-.2.7Z"/>
      <path fill="#E99088" d="M37.8 45.5c.1.3.3.4.6.3.2 0 .3-.3.2-.6-.1-.3-.4-.4-.6-.3-.2 0-.3.3-.2.6Z"/>
      <path fill="#E99088" d="M37.8 45.5c.1.3.3.4.6.3.2 0 .3-.3.2-.6-.1-.3-.4-.4-.6-.3-.2 0-.3.3-.2.6Z"/>
      <path fill="#E98F87" d="M37.8 45.5c.1.2.3.4.6.3.2-.1.3-.3.2-.6-.1-.3-.4-.4-.6-.3-.2 0-.3.3-.2.6Z"/>
      <path fill="#E88D86" d="M37.8 45.5c.1.2.3.4.5.3.3-.1.4-.3.3-.6-.1-.2-.4-.4-.6-.3-.2.1-.3.3-.2.6Z"/>
      <path fill="#E88C85" d="M37.8 45.5c.1.2.3.4.5.3.3-.1.3-.3.3-.6-.1-.2-.4-.4-.6-.3-.2.1-.3.3-.2.6Z"/>
      <path fill="#E88C85" d="M37.8 45.5c.1.2.3.4.5.3.2-.1.3-.3.3-.6-.1-.2-.4-.4-.6-.3-.2.1-.3.3-.2.6Z"/>
      <path fill="#E88B84" d="M37.8 45.5c.1.2.3.4.5.3.2-.1.3-.3.2-.6 0-.2-.3-.4-.5-.3-.2.1-.3.3-.2.6Z"/>
      <path fill="#E88982" d="M37.8 45.5c.1.2.3.3.5.3.2-.1.3-.3.2-.6 0-.2-.3-.4-.5-.3-.2.1-.3.3-.2.6Z"/>
      <path fill="#E88981" d="M37.8 45.501c.1.2.3.3.5.3.2-.1.3-.3.2-.6 0-.2-.3-.3-.5-.3-.2.1-.2.3-.2.6Z"/>
      <path fill="#E78881" d="M37.8 45.501c.1.2.3.3.5.3.2-.1.3-.3.2-.6-.1-.2-.3-.3-.5-.3-.1.1-.2.3-.2.6Z"/>
      <path fill="#E78880" d="M37.9 45.501c0 .2.2.3.4.3.2-.1.3-.3.2-.6-.1-.2-.3-.3-.5-.3-.1.1-.2.3-.1.6Z"/>
      <path fill="#E7867F" d="M37.9 45.501c0 .2.2.3.4.2.2 0 .3-.2.2-.5-.1-.2-.3-.3-.5-.3-.1.1-.2.3-.1.6Z"/>
      <path fill="#E78580" d="M37.9 45.501c0 .2.2.3.4.2.2 0 .3-.2.2-.5-.1-.2-.3-.3-.4-.2-.2 0-.3.2-.2.5Z"/>
      <path fill="#E78580" d="M37.9 45.501c0 .2.2.3.4.2.2 0 .3-.3.2-.5-.1-.2-.3-.3-.4-.2-.2 0-.3.2-.2.5Z"/>
      <path fill="#E6847F" d="M37.9 45.501c.1.2.2.3.4.2.2 0 .3-.3.2-.5-.1-.2-.3-.3-.4-.2-.2 0-.3.2-.2.5Z"/>
      <path fill="#E6837F" d="M37.9 45.501c.1.2.2.3.4.2.2 0 .3-.3.2-.5-.1-.2-.3-.3-.4-.2-.2 0-.3.2-.2.5Z"/>
      <path fill="#E6827E" d="M37.9 45.401c.1.2.2.4.4.3.2-.1.2-.3.2-.5-.1-.2-.3-.3-.4-.2-.2 0-.3.3-.2.4Z"/>
      <path fill="#E6817C" d="M37.9 45.4c.1.2.2.3.4.3.2-.1.2-.3.2-.5-.1-.1-.3-.3-.4-.2-.2.1-.3.3-.2.4Z"/>
      <path fill="#E6817C" d="M37.9 45.4c.1.2.2.3.4.3.2-.1.2-.3.2-.4-.1-.2-.3-.299-.4-.299-.2.1-.3.3-.2.4Z"/>
      <path fill="#E5807C" d="M37.9 45.4c.1.2.3.3.4.3.2-.1.2-.3.2-.4-.1-.2-.3-.299-.4-.299-.2.1-.2.3-.2.4Z"/>
      <path fill="#E57F7C" d="M37.9 45.4c.1.2.3.3.4.3.1-.1.2-.3.2-.4-.1-.2-.3-.299-.4-.299-.2.1-.2.3-.2.4Z"/>
      <path fill="#E57F7A" d="M37.9 45.4c.1.2.3.3.4.3.1-.1.2-.3.1-.4 0-.2-.2-.299-.3-.299-.2.1-.2.3-.2.4Z"/>
      <path fill="#E57F79" d="M37.9 45.4c.1.2.3.3.4.3.1-.1.2-.3.1-.4 0-.2-.2-.299-.3-.299-.2.1-.2.3-.2.4Z"/>
      <path fill="#E57E79" d="M37.9 45.4c.1.2.3.3.4.2.1 0 .2-.2.1-.3 0-.2-.2-.3-.3-.2-.2 0-.2.2-.2.3Z"/>
      <path fill="#E57E79" d="M37.9 45.4c.1.2.3.3.4.2.1 0 .2-.2.1-.3 0-.2-.2-.3-.3-.2-.1 0-.2.2-.2.3Z"/>
      <path fill="#E57C77" d="M38 45.4c0 .2.2.3.3.2.1 0 .2-.2.1-.3 0-.2-.2-.3-.3-.2-.1 0-.2.2-.1.3Z"/>
      <path fill="#E57C77" d="M38 45.4c0 .2.2.3.3.2.1 0 .2-.2.1-.3 0-.2-.2-.3-.3-.2-.1 0-.2.2-.1.3Z"/>
      <path fill="#E57C77" d="M38 45.4c0 .2.2.3.3.2.1 0 .2-.2.1-.3 0-.2-.2-.3-.3-.2-.1 0-.2.2-.1.3Z"/>
      <path fill="#E57A76" d="M38 45.4c0 .2.2.2.3.2.1 0 .1-.2.1-.3-.1-.2-.2-.2-.3-.2-.1 0-.2.2-.1.3Z"/>
      <path fill="#E47A76" d="M38 45.4c0 .2.2.2.3.2.1 0 .1-.2.1-.3-.1-.2-.2-.2-.3-.2-.1 0-.2.2-.1.3Z"/>
      <path fill="#E47A75" d="M38 45.4c0 .1.2.2.3.2.1-.1.1-.2.1-.3-.1-.2-.2-.2-.3-.2-.1 0-.2.2-.1.3Z"/>
      <path fill="#E57974" d="M38 45.4c0 .1.2.2.3.2.1-.1.1-.2.1-.3-.1-.1-.2-.2-.3-.2-.1.1-.1.2-.1.3Z"/>
      <path fill="#E47874" d="M38 45.4c0 .1.2.2.3.2.1-.1.1-.2.1-.3-.1-.1-.2-.2-.3-.2-.1.1-.1.2-.1.3Z"/>
      <path fill="#E57873" d="M38 45.4c.1.1.2.2.3.2.1-.1.1-.2.1-.3-.1-.1-.2-.2-.3-.2-.1.1-.1.2-.1.3Z"/>
      <path fill="#E47673" d="M38 45.4c.1.1.2.2.3.2 0-.1.1-.2.1-.3-.1-.1-.2-.2-.3-.2-.1.1-.1.2-.1.3Z"/>
      <path fill="#E47671" d="M38 45.4c.1.1.2.2.3.1 0 0 .1-.1 0-.2 0-.1-.1-.2-.2-.1-.1 0-.1.1-.1.2Z"/>
      <path fill="#E47471" d="M38 45.4c.1.1.2.2.3.1 0 0 .1-.1 0-.2 0-.1-.1-.2-.2-.1-.1 0-.1.1-.1.2Z"/>
      <path fill="#E47470" d="M38 45.4c.1.1.2.2.2.1.1 0 .2-.1.1-.2 0-.1-.1-.2-.2-.1-.1 0-.1.1-.1.2Z"/>
      <path fill="#E47470" d="M38 45.401c.1.1.2.1.2.1.1 0 .2-.1.1-.2 0-.1-.1-.1-.2-.1 0 0-.1.1-.1.2Z"/>
      <path fill="#E37370" d="M38.1 45.401c0 .1.1.1.1.1.1 0 .1-.1.1-.2s-.1-.1-.2-.1c0 0-.1.1 0 .2Z"/>
      <path fill="#E3726F" d="M38.1 45.401c0 .1.1.1.1.1.1 0 .1-.1.1-.2s-.1-.1-.2-.1c0 0-.1.1 0 .2Z"/>
      <path fill="#E3706D" d="M38.1 45.401c0 .1.1.1.1.1.1 0 .1-.1.1-.2s-.1-.1-.2-.1c0 0-.1.1 0 .2Z"/>
      <path fill="#E3706D" d="M38.1 45.401c0 .067.033.1.1.1.1 0 .1-.1.1-.2s-.1-.1-.2-.1c0 0-.1.1 0 .2Z"/>
      <path fill="#E36F6E" d="M38.1 45.401c0 .067.033.1.1.1.067-.066.1-.133.1-.2-.067-.067-.133-.1-.2-.1v.2Z"/>
      <path fill="#E46E6C" d="M38.1 45.401c0 .067.033.1.1.1.067-.066.1-.133.1-.2-.067-.067-.133-.1-.2-.1v.2Z"/>
      <path fill="#E46D6C" d="M38.1 45.401c0 .067.033.1.1.1.067-.066.1-.133.1-.2-.067-.067-.133-.1-.2-.1v.2Z"/>
      <path fill="#E46D6C" d="M38.1 45.401c0 .067.033.067.1 0 .067 0 .1-.033.1-.1l-.1-.1c-.067.067-.1.133-.1.2Z"/>
      <path fill="#E36C6B" d="M38.1 45.401c0 .067.033.067.1 0 .067 0 .1-.033.1-.1-.067-.067-.1-.067-.1 0-.067 0-.1.033-.1.1Z"/>
      <path fill="#E36B6A" d="M38.1 45.401h.1c.067 0 .1-.033.1-.1-.067-.067-.1-.067-.1 0-.067 0-.1.033-.1.1Z"/>
      <path fill="#E36B6A" d="M38.1 45.4h.1c.067 0 .067-.033 0-.1-.067 0-.1.034-.1.1Z"/>
      <path fill="#E2696A" d="M38.1 45.4h.1c.067 0 .067-.033 0-.1-.067 0-.1.034-.1.1Z"/>
      <path fill="#E26969" d="M38.1 45.4h.1v-.1c-.067 0-.1.034-.1.1Z"/>
      <path fill="#E16867" d="M38.1 45.4h.1v-.1c-.067 0-.1.034-.1.1Z"/>
      <path fill="#E16768" d="M38.2 45.4v-.1c-.067 0-.067.034 0 .1Z"/>
    </g>
  </g>
  <g opacity=".2" style="mix-blend-mode:multiply">
    <mask id="c" width="7" height="6" x="26" y="45" maskUnits="userSpaceOnUse" style="mask-type:luminance">
      <path fill="#fff" d="M26.44 49.1c.26.75 2.27 1.86 4.01 1.26 1.73-.6 2.54-2.69 2.28-3.44-.26-.75-2.06-1.28-3.8-.68-1.74.6-2.75 2.11-2.49 2.86Z"/>
    </mask>
    <g mask="url(#c)">
      <path fill="#FEFEFE" d="m32.1 45.1-6.3 2.2 1.5 4.2 6.3-2.2-1.5-4.2Z"/>
      <path fill="#FEFEFE" d="M27.7 49.001c.3.9 1.5 1.3 2.5.9 1.1-.4 1.8-1.4 1.5-2.3-.4-.9-1.5-1.3-2.6-.9s-1.7 1.4-1.4 2.3Z"/>
      <path fill="#FEFEFE" d="M27.7 49.001c.3.9 1.5 1.3 2.5.9 1.1-.4 1.8-1.4 1.4-2.3-.3-.9-1.4-1.3-2.5-.9s-1.7 1.4-1.4 2.3Z"/>
      <path fill="#FEFBFC" d="M27.7 49.001c.3.9 1.5 1.3 2.5.9 1.1-.4 1.7-1.4 1.4-2.3-.3-.9-1.4-1.3-2.5-.9-1 .4-1.7 1.4-1.4 2.3Z"/>
      <path fill="#FEFAFA" d="M27.8 49.001c.3.9 1.4 1.3 2.4.9 1.1-.4 1.7-1.4 1.4-2.3-.3-.9-1.4-1.3-2.5-.9-1 .4-1.7 1.4-1.3 2.3Z"/>
      <path fill="#FEFAF9" d="M27.8 49c.3.8 1.4 1.3 2.4.9 1.1-.4 1.7-1.4 1.4-2.3-.3-.8-1.4-1.3-2.5-.9-1 .4-1.6 1.4-1.3 2.3Z"/>
      <path fill="#FEFAF8" d="M27.8 49c.3.8 1.4 1.2 2.4.9 1.1-.4 1.7-1.4 1.4-2.3-.3-.8-1.4-1.2-2.5-.9-1 .4-1.6 1.4-1.3 2.3Z"/>
      <path fill="#FDF8F7" d="M27.8 49c.3.8 1.4 1.2 2.4.9 1.1-.4 1.7-1.4 1.4-2.3-.3-.8-1.4-1.2-2.5-.9-1 .4-1.6 1.4-1.3 2.3Z"/>
      <path fill="#FDF7F5" d="M27.8 49c.3.8 1.4 1.2 2.4.9 1.1-.4 1.7-1.4 1.4-2.3-.3-.8-1.4-1.2-2.5-.9-1 .4-1.6 1.4-1.3 2.3Z"/>
      <path fill="#FDF6F5" d="M27.8 49c.3.8 1.4 1.2 2.4.9 1.1-.4 1.7-1.4 1.4-2.3-.3-.8-1.4-1.2-2.4-.9-1.1.4-1.7 1.4-1.4 2.3Z"/>
      <path fill="#FDF5F4" d="M27.8 49c.3.8 1.4 1.2 2.4.8 1.1-.3 1.7-1.3 1.4-2.1-.3-.9-1.4-1.3-2.4-.9-1.1.3-1.7 1.3-1.4 2.2Z"/>
      <path fill="#FDF4F2" d="M27.8 48.9c.3.9 1.4 1.3 2.4.9 1.1-.3 1.6-1.3 1.4-2.1-.3-.9-1.4-1.3-2.4-.9-1.1.3-1.7 1.3-1.4 2.1Z"/>
      <path fill="#FDF4F1" d="M27.8 48.9c.3.9 1.4 1.3 2.4.9 1-.3 1.6-1.3 1.3-2.1-.2-.9-1.3-1.3-2.3-.9-1.1.3-1.7 1.3-1.4 2.1Z"/>
      <path fill="#FDF2F0" d="M27.8 48.9c.3.9 1.4 1.3 2.4.9 1-.3 1.6-1.3 1.3-2.1-.3-.9-1.3-1.3-2.3-.9-1.1.3-1.6 1.3-1.4 2.1Z"/>
      <path fill="#FDF2EF" d="M27.9 48.9c.2.9 1.3 1.3 2.3.9 1-.3 1.6-1.3 1.3-2.1-.3-.9-1.3-1.3-2.3-.9-1 .3-1.6 1.3-1.3 2.1Z"/>
      <path fill="#FDF1EE" d="M27.9 48.9c.3.9 1.3 1.3 2.3.9 1-.3 1.6-1.3 1.3-2.1-.3-.9-1.3-1.2-2.3-.9-1 .3-1.6 1.3-1.3 2.1Z"/>
      <path fill="#FCEFED" d="M27.9 48.9c.3.9 1.3 1.2 2.3.9 1-.4 1.6-1.3 1.3-2.1-.3-.9-1.3-1.2-2.3-.9-1 .4-1.6 1.3-1.3 2.1Z"/>
      <path fill="#FCF0EC" d="M27.9 48.9c.3.8 1.3 1.2 2.3.9 1-.4 1.6-1.3 1.3-2.1-.3-.8-1.3-1.2-2.3-.9-1 .4-1.6 1.3-1.3 2.1Z"/>
      <path fill="#FCEEEA" d="M27.9 48.9c.3.8 1.3 1.2 2.3.9 1-.4 1.6-1.3 1.3-2.1-.3-.8-1.3-1.2-2.3-.9-1 .4-1.6 1.3-1.3 2.1Z"/>
      <path fill="#FCEDE9" d="M27.9 48.9c.3.8 1.3 1.2 2.3.9 1-.4 1.6-1.3 1.3-2.1-.3-.8-1.3-1.2-2.3-.9-1 .4-1.6 1.3-1.3 2.1Z"/>
      <path fill="#FAECE8" d="M27.9 48.9c.3.8 1.3 1.2 2.3.9 1-.4 1.5-1.3 1.3-2.1-.3-.8-1.3-1.2-2.3-.9-1 .4-1.6 1.3-1.3 2.1Z"/>
      <path fill="#FAEAE6" d="M27.9 48.9c.3.8 1.3 1.2 2.3.9 1-.4 1.5-1.3 1.3-2.1-.3-.8-1.3-1.2-2.3-.8-1 .3-1.6 1.2-1.3 2Z"/>
      <path fill="#F8E9E4" d="M27.9 48.9c.3.8 1.3 1.2 2.3.8 1-.3 1.5-1.2 1.2-2-.2-.8-1.2-1.2-2.2-.8-1 .3-1.5 1.2-1.3 2Z"/>
      <path fill="#F8E8E4" d="M27.9 48.9c.3.8 1.3 1.2 2.3.8.9-.3 1.5-1.2 1.2-2-.2-.8-1.2-1.2-2.2-.8-1 .3-1.5 1.2-1.3 2Z"/>
      <path fill="#F8E7E2" d="M28 48.9c.2.8 1.2 1.2 2.2.8.9-.3 1.5-1.2 1.2-2-.3-.8-1.2-1.2-2.2-.8-1 .3-1.5 1.2-1.2 2Z"/>
      <path fill="#F8E5E1" d="M28 48.9c.2.8 1.2 1.1 2.2.8.9-.3 1.5-1.2 1.2-2-.3-.8-1.3-1.1-2.2-.8-1 .3-1.5 1.2-1.2 2Z"/>
      <path fill="#F9E5E0" d="M28 48.9c.2.8 1.2 1.1 2.2.8.9-.3 1.5-1.2 1.2-2-.3-.8-1.3-1.1-2.2-.8-.9.3-1.5 1.2-1.2 2Z"/>
      <path fill="#F9E5DF" d="M28 48.9c.3.8 1.2 1.1 2.2.8.9-.3 1.5-1.2 1.2-2-.3-.8-1.3-1.1-2.2-.8-.9.3-1.5 1.2-1.2 2Z"/>
      <path fill="#F9E4DE" d="M28 48.9c.3.8 1.2 1.1 2.2.8.9-.3 1.4-1.2 1.2-2-.3-.8-1.3-1.1-2.2-.8-.9.3-1.5 1.2-1.2 2Z"/>
      <path fill="#F9E3DD" d="M28 48.9c.3.7 1.2 1.1 2.2.8.9-.3 1.4-1.2 1.2-2-.3-.7-1.3-1.1-2.2-.8-.9.3-1.5 1.2-1.2 2Z"/>
      <path fill="#F9E1DB" d="M28 48.9c.3.7 1.2 1.1 2.2.8.9-.3 1.4-1.2 1.2-2-.3-.7-1.3-1.1-2.2-.8-.9.3-1.4 1.2-1.2 2Z"/>
      <path fill="#F9E1DB" d="M28 48.9c.3.7 1.2 1.1 2.2.8.9-.3 1.4-1.2 1.1-2-.2-.7-1.2-1.1-2.1-.8-.9.4-1.4 1.2-1.2 2Z"/>
      <path fill="#F6E0DA" d="M28 48.9c.3.7 1.2 1.1 2.2.8.9-.4 1.4-1.2 1.1-2-.2-.7-1.2-1.1-2.1-.8-.9.4-1.4 1.2-1.2 2Z"/>
      <path fill="#F7E0D8" d="M28 48.9c.3.7 1.3 1.1 2.2.8.9-.4 1.4-1.2 1.1-2-.2-.7-1.2-1.1-2.1-.7-.9.3-1.4 1.1-1.2 1.9Z"/>
      <path fill="#F6DFD8" d="M28.1 48.9c.2.7 1.2 1.1 2.1.7.9-.3 1.4-1.1 1.1-1.9-.2-.7-1.2-1-2.1-.7-.9.3-1.4 1.1-1.1 1.9Z"/>
      <path fill="#F6DDD7" d="M28.1 48.9c.2.7 1.2 1 2 .7.9-.3 1.5-1.1 1.2-1.9-.2-.7-1.2-1-2.1-.7-.9.3-1.4 1.1-1.1 1.9Z"/>
      <path fill="#F6DCD7" d="M28.1 48.9c.2.7 1.2 1 2 .7.9-.3 1.4-1.1 1.2-1.9-.3-.7-1.2-1-2.1-.7-.9.3-1.4 1.1-1.1 1.9Z"/>
      <path fill="#F6DCD5" d="M28.1 48.9c.2.7 1.2 1 2 .7.9-.3 1.4-1.1 1.2-1.9-.3-.7-1.2-1-2.1-.7-.8.3-1.4 1.1-1.1 1.9Z"/>
      <path fill="#F6DCD4" d="M28.1 48.9c.3.7 1.2 1 2 .7.9-.3 1.4-1.1 1.2-1.8-.3-.8-1.2-1.1-2.1-.8-.8.3-1.3 1.1-1.1 1.9Z"/>
      <path fill="#F6DAD4" d="M28.1 48.8c.3.8 1.2 1.1 2 .8.9-.3 1.4-1.1 1.2-1.8-.3-.8-1.2-1.1-2.1-.8-.8.3-1.3 1.1-1.1 1.8Z"/>
      <path fill="#F7DAD3" d="M28.1 48.8c.3.8 1.2 1.1 2 .8.9-.3 1.4-1.1 1.2-1.8-.3-.8-1.2-1.1-2.1-.8-.8.3-1.3 1.1-1.1 1.8Z"/>
      <path fill="#F7D9D2" d="M28.1 48.8c.3.7 1.2 1.1 2 .8.9-.3 1.4-1.1 1.1-1.8-.2-.7-1.1-1.1-2-.8-.8.3-1.3 1.1-1.1 1.8Z"/>
      <path fill="#F6D8D0" d="M28.1 48.8c.3.7 1.2 1.1 2 .8.9-.3 1.4-1.1 1.1-1.8-.2-.7-1.1-1.1-2-.8-.8.3-1.3 1.1-1.1 1.8Z"/>
      <path fill="#F6D7D0" d="M28.2 48.8c.2.7 1.1 1.1 1.9.8.9-.3 1.4-1.1 1.1-1.8-.2-.7-1.1-1.1-1.9-.8-.9.3-1.4 1.1-1.1 1.8Z"/>
      <path fill="#F6D5CF" d="M28.2 48.8c.2.7 1.1 1.1 1.9.8.9-.3 1.4-1.1 1.1-1.8-.2-.7-1.1-1-1.9-.8-.9.3-1.4 1.1-1.1 1.8Z"/>
      <path fill="#F6D6CE" d="M28.2 48.8c.2.7 1.1 1 1.9.7.9-.2 1.3-1 1.1-1.7-.2-.7-1.1-1-1.9-.7-.9.2-1.4 1-1.1 1.7Z"/>
      <path fill="#F6D5CE" d="M28.2 48.8c.2.7 1.1 1 1.9.7.8-.2 1.3-1 1.1-1.7-.2-.7-1.1-1-1.9-.7-.9.3-1.4 1-1.1 1.7Z"/>
      <path fill="#F6D4CC" d="M28.2 48.8c.2.7 1.1 1 1.9.7.8-.3 1.3-1 1.1-1.7-.3-.7-1.1-1-1.9-.7-.9.3-1.3 1-1.1 1.7Z"/>
      <path fill="#F6D3CB" d="M28.2 48.8c.2.7 1.1 1 1.9.7.8-.3 1.3-1 1.1-1.7-.3-.7-1.1-1-1.9-.7-.9.3-1.3 1-1.1 1.7Z"/>
      <path fill="#F6D2CA" d="M28.2 48.8c.2.7 1.1 1 1.9.7.8-.3 1.3-1 1.1-1.7-.3-.7-1.1-1-1.9-.7-.8.3-1.3 1-1.1 1.7Z"/>
      <path fill="#F6D2CA" d="M28.2 48.8c.3.7 1.1 1 1.9.7.8-.3 1.3-1 1.1-1.7-.3-.7-1.1-1-1.9-.7-.8.3-1.3 1-1.1 1.7Z"/>
      <path fill="#F6D1C9" d="M28.2 48.8c.3.7 1.1 1 1.9.7.8-.3 1.3-1 1-1.7-.2-.7-1-1-1.8-.7-.8.3-1.3 1-1.1 1.7Z"/>
      <path fill="#F5D0C8" d="M28.2 48.8c.3.7 1.1 1 1.9.7.8-.3 1.3-1 1-1.7-.2-.7-1-1-1.8-.7-.8.3-1.3 1-1.1 1.7Z"/>
      <path fill="#F5CFC7" d="M28.3 48.8c.2.7 1 1 1.8.7.8-.3 1.2-1 1-1.7-.2-.6-1-1-1.8-.7-.8.3-1.3 1-1 1.7Z"/>
      <path fill="#F5CEC6" d="M28.3 48.8c.2.6 1 .9 1.8.7.8-.3 1.2-1 1-1.7-.2-.6-1-.9-1.8-.7-.8.3-1.3 1-1 1.7Z"/>
      <path fill="#F5CDC5" d="M28.3 48.8c.2.6 1 .9 1.8.7.8-.3 1.2-1 1-1.7-.2-.6-1-.9-1.8-.7-.8.3-1.2 1-1 1.7Z"/>
      <path fill="#F5CDC4" d="M28.3 48.8c.2.6 1 .9 1.8.7.8-.3 1.2-1 1-1.7-.2-.6-1-.9-1.8-.7-.8.3-1.2 1.1-1 1.7Z"/>
      <path fill="#F4CCC4" d="M28.3 48.8c.2.6 1 .9 1.8.6.8-.2 1.2-.9 1-1.6-.2-.6-1-.9-1.8-.6-.8.2-1.2 1-1 1.6Z"/>
      <path fill="#F4CBC3" d="M28.3 48.8c.2.6 1 .9 1.8.6.7-.2 1.2-.9 1-1.6-.2-.6-1-.9-1.8-.6-.8.2-1.2 1-1 1.6Z"/>
      <path fill="#F4CAC2" d="M28.3 48.8c.2.6 1 .9 1.8.6.7-.2 1.2-.9 1-1.6-.3-.6-1-.9-1.8-.6-.8.2-1.2 1-1 1.6Z"/>
      <path fill="#F4C8C1" d="M28.3 48.8c.2.6 1 .9 1.8.6.7-.2 1.2-1 .9-1.6-.2-.6-.9-.9-1.7-.6-.8.2-1.2 1-1 1.6Z"/>
      <path fill="#F3C9C0" d="M28.3 48.8c.3.6 1 .9 1.8.6.7-.2 1.2-1 .9-1.6-.2-.6-1-.9-1.7-.6-.7.2-1.2 1-1 1.6Z"/>
      <path fill="#F2C8BF" d="M28.3 48.8c.3.6 1 .9 1.8.6.7-.3 1.1-1 .9-1.6-.2-.6-1-.9-1.7-.6-.7.3-1.2 1-1 1.6Z"/>
      <path fill="#F2C7BF" d="M28.4 48.8c.2.6.9.901 1.7.601.7-.3 1.1-1 .9-1.6-.2-.6-1-.8-1.7-.6-.7.3-1.2 1-.9 1.6Z"/>
      <path fill="#F2C5BD" d="M28.4 48.8c.2.6.9.801 1.7.601.7-.3 1.1-1 .9-1.6-.2-.6-1-.8-1.7-.6-.7.3-1.1 1-.9 1.6Z"/>
      <path fill="#F3C5BE" d="M28.4 48.8c.2.6.9.8 1.7.6.7-.3 1.1-1 .9-1.6-.2-.5-1-.8-1.7-.6-.7.3-1.1 1-.9 1.6Z"/>
      <path fill="#F3C4BD" d="M28.4 48.8c.2.5.9.8 1.7.6.7-.3 1.1-1 .9-1.5-.2-.6-1-.9-1.7-.7-.7.3-1.1 1-.9 1.6Z"/>
      <path fill="#F3C4BC" d="M28.4 48.7c.2.6.9.9 1.7.7.7-.3 1.1-1 .9-1.5-.2-.6-1-.9-1.7-.7-.7.3-1.1 1-.9 1.5Z"/>
      <path fill="#F3C3BC" d="M28.4 48.7c.2.6.9.9 1.7.7.7-.3 1.1-1 .9-1.5-.2-.6-1-.9-1.7-.6-.7.2-1.1.9-.9 1.4Z"/>
      <path fill="#F3C2BA" d="M28.4 48.7c.2.6.9.9 1.6.6.7-.2 1.2-.9 1-1.4-.2-.6-1-.9-1.7-.6-.7.2-1.1.9-.9 1.4Z"/>
      <path fill="#F2C0B8" d="M28.4 48.7c.2.6 1 .9 1.6.6.7-.2 1.1-.9.9-1.4-.2-.6-.9-.9-1.6-.6-.7.2-1.1.9-.9 1.4Z"/>
      <path fill="#F2C0B7" d="M28.4 48.7c.2.6 1 .9 1.6.6.7-.2 1.1-.9.9-1.4-.2-.6-.9-.9-1.6-.6-.7.2-1.1.9-.9 1.4Z"/>
      <path fill="#F1BEB7" d="M28.5 48.7c.1.6.9.9 1.5.6.7-.2 1.1-.9.9-1.4-.2-.6-.9-.9-1.6-.6-.6.2-1 .9-.8 1.4Z"/>
      <path fill="#F0BDB5" d="M28.5 48.7c.2.6.9.8 1.5.6.7-.2 1.1-.9.9-1.4-.2-.6-.9-.8-1.6-.6-.6.2-1 .9-.8 1.4Z"/>
      <path fill="#F1BDB5" d="M28.5 48.7c.2.6.9.8 1.5.6.7-.2 1.1-.9.9-1.4-.2-.6-.9-.8-1.6-.6-.6.2-1 .9-.8 1.4Z"/>
      <path fill="#F0BCB4" d="M28.5 48.7c.2.6.9.8 1.5.6.7-.2 1.1-.9.9-1.4-.2-.6-.9-.8-1.6-.6-.6.2-1 .9-.8 1.4Z"/>
      <path fill="#F0BBB4" d="M28.5 48.7c.2.6.9.8 1.5.6.7-.2 1.1-.9.9-1.4-.2-.6-.9-.8-1.6-.6-.6.2-1 .9-.8 1.4Z"/>
      <path fill="#F0BBB3" d="M28.5 48.7c.2.6.9.8 1.5.6.7-.2 1.1-.9.9-1.4-.2-.5-.9-.8-1.5-.6-.7.3-1.1.9-.9 1.4Z"/>
      <path fill="#EFBAB2" d="M28.5 48.7c.2.5.9.8 1.5.6.7-.3 1-.9.9-1.4-.2-.5-.9-.8-1.5-.6-.7.3-1.1.9-.9 1.4Z"/>
      <path fill="#EFB9B1" d="M28.5 48.7c.2.5.9.8 1.5.6.7-.3 1-.9.9-1.4-.2-.5-.9-.8-1.5-.6-.7.3-1.1.9-.9 1.4Z"/>
      <path fill="#EFB8B0" d="M28.5 48.701c.2.5.9.8 1.5.6.7-.3 1-.9.8-1.4-.1-.5-.8-.8-1.4-.5-.7.2-1 .8-.9 1.3Z"/>
      <path fill="#F0B7AF" d="M28.5 48.701c.2.5.9.8 1.5.5.6-.2 1-.8.8-1.3-.1-.5-.8-.8-1.4-.5-.7.2-1 .8-.9 1.3Z"/>
      <path fill="#EFB6AF" d="M28.6 48.7c.1.5.8.8 1.4.5.6-.2 1-.8.8-1.3-.2-.5-.8-.7-1.4-.5-.7.2-1 .8-.8 1.3Z"/>
      <path fill="#EFB6AF" d="M28.6 48.7c.1.5.8.7 1.4.5.6-.2 1-.8.8-1.3-.2-.5-.8-.7-1.4-.5-.7.2-1 .8-.8 1.3Z"/>
      <path fill="#EFB5AE" d="M28.6 48.7c.2.5.8.7 1.4.5.6-.2 1-.8.8-1.3-.2-.5-.8-.7-1.4-.5-.6.2-1 .8-.8 1.3Z"/>
      <path fill="#EFB4AD" d="M28.6 48.7c.2.5.8.7 1.4.5.6-.2 1-.8.8-1.3-.2-.5-.8-.7-1.4-.5-.6.2-1 .8-.8 1.3Z"/>
      <path fill="#F0B3AB" d="M28.6 48.7c.2.5.8.7 1.4.5.6-.2 1-.8.8-1.3-.2-.5-.8-.7-1.4-.5-.6.2-1 .8-.8 1.3Z"/>
      <path fill="#EFB2AC" d="M28.6 48.7c.2.5.8.7 1.4.5.6-.2.9-.8.8-1.3-.2-.5-.8-.7-1.4-.5-.6.2-1 .8-.8 1.3Z"/>
      <path fill="#F0B2AA" d="M28.6 48.7c.2.5.8.7 1.4.5.6-.2.9-.8.8-1.3-.2-.5-.8-.7-1.4-.5-.6.2-1 .8-.8 1.3Z"/>
      <path fill="#EFB2AA" d="M28.6 48.7c.2.5.8.7 1.4.5.6-.2.9-.8.8-1.3-.2-.4-.8-.7-1.4-.5-.6.2-.9.8-.8 1.3Z"/>
      <path fill="#EFB0A9" d="M28.6 48.7c.2.4.8.7 1.4.5.6-.2.9-.8.7-1.3-.1-.4-.7-.7-1.3-.5-.6.2-.9.8-.8 1.3Z"/>
      <path fill="#EFAFA8" d="M28.6 48.7c.2.4.8.7 1.4.5.6-.2.9-.8.7-1.3-.1-.4-.7-.7-1.3-.5-.6.2-.9.8-.8 1.3Z"/>
      <path fill="#EFAFA8" d="M28.7 48.7c.1.4.7.6 1.3.5.6-.2.9-.8.7-1.3-.1-.4-.7-.6-1.3-.4-.6.2-.9.7-.7 1.2Z"/>
      <path fill="#EEAEA7" d="M28.7 48.7c.1.4.7.6 1.3.4.5-.2.9-.7.7-1.2-.2-.4-.7-.6-1.3-.4-.6.2-.9.7-.7 1.2Z"/>
      <path fill="#EEAEA6" d="M28.7 48.7c.1.4.7.6 1.3.4.5-.2.9-.7.7-1.1-.2-.5-.7-.7-1.3-.5-.6.2-.9.7-.7 1.2Z"/>
      <path fill="#EDADA5" d="M28.7 48.6c.1.5.7.7 1.3.5.5-.2.8-.7.7-1.1-.2-.5-.7-.7-1.3-.5-.5.2-.9.7-.7 1.1Z"/>
      <path fill="#EDACA4" d="M28.7 48.6c.2.5.7.7 1.3.5.5-.2.8-.7.7-1.1-.2-.5-.7-.7-1.3-.5-.5.2-.9.7-.7 1.1Z"/>
      <path fill="#EDABA3" d="M28.7 48.6c.2.5.7.7 1.3.5.5-.2.8-.7.7-1.1-.2-.5-.8-.7-1.3-.5-.5.2-.8.7-.7 1.1Z"/>
      <path fill="#EDABA3" d="M28.7 48.6c.2.5.7.7 1.3.5.5-.2.8-.7.7-1.1-.2-.5-.8-.7-1.3-.5-.5.2-.8.7-.7 1.1Z"/>
      <path fill="#EDAAA2" d="M28.7 48.6c.2.5.7.7 1.3.5.5-.2.8-.7.6-1.1-.1-.5-.7-.7-1.2-.5-.5.2-.8.7-.7 1.1Z"/>
      <path fill="#EEA9A1" d="M28.7 48.6c.2.5.7.7 1.3.5.5-.2.8-.7.6-1.1-.1-.5-.7-.7-1.2-.5-.5.2-.8.7-.7 1.1Z"/>
      <path fill="#EEA89F" d="M28.8 48.6c.1.5.6.7 1.2.5.5-.2.8-.699.6-1.099-.1-.4-.7-.6-1.2-.5-.5.2-.8.7-.6 1.1Z"/>
      <path fill="#EEA89F" d="M28.8 48.6c.1.4.6.6 1.2.5.5-.2.8-.699.6-1.099-.1-.4-.7-.6-1.2-.5-.5.2-.8.7-.6 1.1Z"/>
      <path fill="#EDA79F" d="M28.8 48.6c.1.4.6.6 1.1.5.6-.2.9-.699.7-1.099-.1-.4-.7-.6-1.2-.5-.5.2-.8.7-.6 1.1Z"/>
      <path fill="#EDA69E" d="M28.8 48.6c.1.4.6.601 1.1.401.5-.1.8-.6.7-1-.1-.4-.7-.6-1.2-.4-.5.1-.8.6-.6 1Z"/>
      <path fill="#EDA59D" d="M28.8 48.6c.1.4.6.601 1.1.401.5-.1.8-.6.7-1-.2-.4-.7-.6-1.2-.4-.5.1-.8.6-.6 1Z"/>
      <path fill="#EDA49D" d="M28.8 48.6c.1.4.7.601 1.1.401.5-.1.8-.6.7-1-.2-.4-.7-.6-1.2-.4-.5.1-.7.6-.6 1Z"/>
      <path fill="#EDA49B" d="M28.8 48.6c.1.4.7.601 1.1.401.5-.1.8-.6.7-1-.2-.4-.7-.6-1.2-.4-.4.1-.7.6-.6 1Z"/>
      <path fill="#EDA39B" d="M28.8 48.6c.2.4.7.601 1.1.401.5-.2.8-.6.7-1-.2-.4-.7-.6-1.2-.4-.4.2-.7.6-.6 1Z"/>
      <path fill="#EDA29A" d="M28.8 48.6c.2.4.7.601 1.1.401.5-.2.8-.6.6-1-.1-.4-.6-.6-1.1-.4-.4.2-.7.6-.6 1Z"/>
      <path fill="#EDA19A" d="M28.8 48.6c.2.4.7.601 1.1.401.5-.2.8-.6.6-1-.1-.4-.6-.6-1.1-.4-.4.2-.7.6-.6 1Z"/>
      <path fill="#EDA199" d="M28.9 48.6c.1.4.6.6 1 .4.5-.2.8-.6.6-1-.1-.4-.6-.5-1-.4-.5.2-.8.6-.6 1Z"/>
      <path fill="#EDA098" d="M28.9 48.6c.1.4.6.5 1 .4.5-.2.7-.6.6-1-.1-.4-.6-.5-1-.4-.5.2-.8.6-.6 1Z"/>
      <path fill="#EB9F97" d="M28.9 48.6c.1.4.6.5 1 .4.5-.2.7-.6.6-1-.1-.3-.6-.5-1-.4-.5.2-.8.6-.6 1Z"/>
      <path fill="#EB9E96" d="M28.9 48.6c.1.3.6.5 1 .4.5-.2.7-.6.6-1-.1-.3-.6-.5-1-.4-.5.2-.7.6-.6 1Z"/>
      <path fill="#EB9D96" d="M28.9 48.6c.1.3.6.5 1 .4.5-.2.7-.6.6-1-.1-.3-.6-.5-1-.4-.5.2-.7.6-.6 1Z"/>
      <path fill="#EB9D95" d="M28.9 48.6c.1.3.6.5 1 .3.4-.1.7-.5.6-.9-.2-.3-.6-.5-1-.3-.5.1-.7.5-.6.9Z"/>
      <path fill="#EB9C94" d="M28.9 48.6c.1.3.6.5 1 .3.4-.1.7-.5.6-.9-.2-.3-.6-.5-1-.3-.5.1-.7.5-.6.9Z"/>
      <path fill="#EC9B92" d="M28.9 48.6c.1.3.6.5 1 .3.4-.1.7-.5.6-.9-.2-.3-.6-.5-1-.3-.5.1-.7.5-.6.9Z"/>
      <path fill="#EC9B92" d="M28.9 48.6c.2.3.6.5 1 .3.4-.1.7-.5.5-.9-.1-.3-.5-.5-.9-.3-.4.1-.7.5-.6.9Z"/>
      <path fill="#EA9A92" d="M28.9 48.6c.2.3.6.5 1 .3.4-.1.6-.5.5-.9-.1-.3-.5-.5-.9-.3-.4.1-.7.5-.6.9Z"/>
      <path fill="#EB9991" d="M29 48.6c.1.3.5.4.9.3.4-.1.6-.5.5-.9-.1-.3-.5-.4-.9-.3-.4.1-.7.5-.5.9Z"/>
      <path fill="#EB9891" d="M29 48.6c.1.3.5.4.9.3.4-.1.6-.5.5-.8-.1-.4-.5-.5-.9-.4-.4.1-.6.5-.5.9Z"/>
      <path fill="#EA9790" d="M29 48.5c.1.4.5.5.9.4.4-.1.6-.5.5-.8-.1-.4-.5-.5-.9-.4-.4.2-.6.5-.5.8Z"/>
      <path fill="#EA978F" d="M29 48.5c.1.4.5.5.9.4.4-.2.6-.5.5-.8-.1-.4-.5-.5-.9-.4-.4.2-.6.5-.5.8Z"/>
      <path fill="#EA968E" d="M29 48.5c.1.4.5.5.9.4.4-.2.6-.5.5-.8-.1-.4-.5-.5-.9-.4-.4.2-.6.5-.5.8Z"/>
      <path fill="#EA968E" d="M29 48.5c.1.3.5.5.9.4.4-.2.6-.5.5-.8-.1-.3-.5-.5-.9-.4-.4.2-.6.5-.5.8Z"/>
      <path fill="#EA948D" d="M29 48.5c.1.3.5.5.9.4.3-.2.6-.5.5-.8-.1-.3-.5-.5-.9-.3-.4.1-.6.4-.5.7Z"/>
      <path fill="#EA948C" d="M29 48.5c.1.3.5.5.9.3.3-.1.6-.4.4-.7-.1-.3-.4-.5-.8-.3-.4.1-.6.4-.5.7Z"/>
      <path fill="#EA938C" d="M29 48.5c.1.3.5.5.9.3.3-.1.5-.4.4-.7-.1-.3-.4-.5-.8-.3-.4.1-.6.4-.5.7Z"/>
      <path fill="#EA938B" d="M29 48.5c.1.3.5.5.9.3.3-.1.5-.4.4-.7-.1-.3-.4-.4-.8-.3-.3.1-.6.4-.5.7Z"/>
      <path fill="#EA938A" d="M29.1 48.5c.1.3.4.4.8.3.3-.1.5-.4.4-.7-.1-.3-.4-.4-.8-.3-.3.1-.5.4-.4.7Z"/>
      <path fill="#EA928A" d="M29.1 48.5c.1.3.4.4.8.3.3-.1.5-.4.4-.7-.1-.3-.4-.4-.8-.3-.3.1-.5.4-.4.7Z"/>
      <path fill="#E99089" d="M29.1 48.5c.1.3.4.4.8.3.3-.1.5-.4.4-.7-.1-.3-.4-.4-.8-.3-.3.1-.5.4-.4.7Z"/>
      <path fill="#E99088" d="M29.1 48.5c.1.3.4.4.8.3.3-.1.5-.4.4-.7-.1-.3-.5-.4-.8-.3-.3.1-.5.4-.4.7Z"/>
      <path fill="#E99088" d="M29.1 48.5c.1.3.4.4.8.3.3-.1.5-.4.4-.7-.1-.3-.5-.4-.8-.3-.3.1-.5.4-.4.7Z"/>
      <path fill="#E98F87" d="M29.1 48.5c.1.3.4.4.8.3.3-.1.5-.4.4-.7-.1-.3-.5-.4-.8-.3-.3.1-.5.4-.4.7Z"/>
      <path fill="#E88D86" d="M29.1 48.5c.1.3.4.4.7.3.4-.1.5-.4.5-.7-.1-.3-.5-.4-.8-.3-.3.1-.5.4-.4.7Z"/>
      <path fill="#E88C85" d="M29.1 48.5c.1.2.4.4.7.3.4-.1.5-.4.4-.7 0-.2-.4-.4-.7-.3-.3.2-.5.4-.4.7Z"/>
      <path fill="#E88C85" d="M29.1 48.5c.1.2.4.4.7.3.3-.2.5-.4.4-.7-.1-.2-.4-.4-.7-.2-.3.1-.4.3-.4.6Z"/>
      <path fill="#E88B84" d="M29.2 48.5c0 .2.3.3.6.2.3-.1.5-.3.4-.6-.1-.2-.4-.3-.7-.2-.3.1-.4.3-.3.6Z"/>
      <path fill="#E88982" d="M29.2 48.5c0 .2.3.3.6.2.3-.1.5-.3.4-.6-.1-.2-.4-.3-.7-.2-.3.1-.4.3-.3.6Z"/>
      <path fill="#E88981" d="M29.2 48.5c.1.2.4.3.6.2.3-.1.5-.3.4-.6-.1-.2-.4-.3-.7-.2-.2.1-.4.3-.3.6Z"/>
      <path fill="#E78881" d="M29.2 48.5c.1.2.4.3.6.2.3-.1.5-.3.4-.6-.1-.2-.4-.3-.7-.2-.2.1-.4.3-.3.6Z"/>
      <path fill="#E78880" d="M29.2 48.5c.1.2.4.3.6.2.3-.1.5-.3.4-.6-.1-.2-.4-.3-.7-.2-.2.1-.4.3-.3.6Z"/>
      <path fill="#E7867F" d="M29.2 48.5c.1.2.4.3.6.2.3-.1.4-.3.4-.6-.1-.2-.4-.3-.6-.2-.3.1-.5.4-.4.6Z"/>
      <path fill="#E78580" d="M29.2 48.5c.1.2.4.3.6.2.3-.1.4-.3.4-.6-.1-.2-.4-.3-.6-.2-.3.1-.5.4-.4.6Z"/>
      <path fill="#E78580" d="M29.2 48.5c.1.2.4.3.6.2.3-.1.4-.3.4-.6-.1-.2-.4-.3-.6-.2-.3.1-.4.4-.4.6Z"/>
      <path fill="#E6847F" d="M29.2 48.5c.1.2.4.3.6.2.3-.1.4-.3.3-.6 0-.2-.3-.3-.5-.2-.3.1-.4.4-.4.6Z"/>
      <path fill="#E6837F" d="M29.2 48.5c.1.2.4.3.6.2.3-.1.4-.3.3-.6 0-.2-.3-.2-.5-.2-.3.1-.4.4-.4.6Z"/>
      <path fill="#E6827E" d="M29.3 48.5c0 .1.3.2.5.2.3-.1.4-.4.3-.5 0-.2-.3-.3-.5-.3-.3.1-.4.4-.3.6Z"/>
      <path fill="#E6817C" d="M29.3 48.4c0 .2.3.3.5.3.2-.1.4-.4.3-.5-.1-.2-.3-.3-.5-.2-.3 0-.4.3-.3.4Z"/>
      <path fill="#E6817C" d="M29.3 48.4c0 .2.3.3.5.2.2 0 .4-.3.3-.4-.1-.2-.3-.3-.5-.2-.3 0-.4.3-.3.4Z"/>
      <path fill="#E5807C" d="M29.3 48.4c0 .2.3.3.5.2.2 0 .4-.3.3-.4-.1-.2-.3-.3-.5-.2-.2 0-.4.3-.3.4Z"/>
      <path fill="#E57F7C" d="M29.3 48.4c.1.2.3.3.5.2.2 0 .3-.3.3-.4-.1-.2-.3-.3-.5-.2-.2.1-.4.3-.3.4Z"/>
      <path fill="#E57F7A" d="M29.3 48.4c.1.2.3.3.5.2.2-.1.3-.3.3-.4-.1-.2-.3-.3-.5-.2-.2.1-.4.3-.3.4Z"/>
      <path fill="#E57F79" d="M29.3 48.4c.1.2.3.3.5.2.2-.1.3-.3.3-.4-.1-.2-.3-.3-.5-.2-.2.1-.3.3-.3.4Z"/>
      <path fill="#E57E79" d="M29.3 48.4c.1.2.3.3.5.2.2-.1.3-.3.2-.4 0-.2-.2-.3-.4-.2-.2.1-.3.3-.3.4Z"/>
      <path fill="#E57E79" d="M29.3 48.4c.1.2.3.3.5.2.2-.1.3-.3.2-.4 0-.2-.2-.3-.4-.2-.2.1-.3.3-.3.4Z"/>
      <path fill="#E57C77" d="M29.3 48.4c.1.2.3.2.5.2.2-.1.3-.3.2-.4 0-.2-.2-.199-.4-.199-.2.1-.3.3-.3.4Z"/>
      <path fill="#E57C77" d="M29.4 48.4c0 .2.2.2.4.2.2-.1.3-.3.2-.4 0-.2-.2-.199-.4-.199-.2.1-.3.3-.2.4Z"/>
      <path fill="#E57C77" d="M29.4 48.4c0 .2.2.2.4.2.2-.1.3-.3.2-.4 0-.2-.2-.199-.4-.199-.2.1-.3.3-.2.4Z"/>
      <path fill="#E57A76" d="M29.4 48.4c0 .2.2.2.4.2.1-.1.2-.3.2-.4-.1-.1-.2-.199-.4-.199-.2.1-.3.3-.2.4Z"/>
      <path fill="#E47A76" d="M29.4 48.4c0 .1.2.2.4.1.1 0 .2-.2.2-.3-.1-.1-.2-.2-.4-.1-.2 0-.3.2-.2.3Z"/>
      <path fill="#E47A75" d="M29.4 48.4c0 .1.2.2.4.1.1 0 .2-.2.2-.3-.1-.1-.2-.2-.4-.1-.2 0-.2.2-.2.3Z"/>
      <path fill="#E57974" d="M29.4 48.4c.1.1.2.2.4.1.1 0 .2-.2.2-.3-.1-.1-.2-.2-.4-.1-.1 0-.2.2-.2.3Z"/>
      <path fill="#E47874" d="M29.4 48.4c.1.1.2.2.4.1.1 0 .2-.2.2-.3-.1-.1-.2-.2-.4-.1-.1 0-.2.2-.2.3Z"/>
      <path fill="#E57873" d="M29.4 48.4c.1.1.2.2.4.1.1 0 .2-.2.1-.3 0-.1-.1-.2-.3-.1-.1 0-.2.2-.2.3Z"/>
      <path fill="#E47673" d="M29.4 48.4c.1.1.2.2.4.1.1 0 .2-.2.1-.3 0-.1-.1-.1-.3-.1-.1 0-.2.2-.2.3Z"/>
      <path fill="#E47671" d="M29.5 48.4c0 .1.1.1.3.1.1 0 .2-.2.1-.3 0-.1-.1-.1-.3-.1-.1.1-.2.2-.1.3Z"/>
      <path fill="#E47471" d="M29.5 48.4c0 .1.1.1.3.1.1-.1.2-.2.1-.3 0-.1-.2-.1-.3-.1-.1.1-.2.2-.1.3Z"/>
      <path fill="#E47470" d="M29.5 48.4c0 .1.1.1.2.1.2-.1.2-.2.2-.3 0-.1-.2-.1-.3-.1-.1.1-.2.2-.1.3Z"/>
      <path fill="#E47470" d="M29.5 48.4c0 .1.1.1.2.1.2-.1.2-.2.2-.3 0-.1-.2-.1-.3-.1-.1.1-.2.2-.1.3Z"/>
      <path fill="#E37370" d="M29.5 48.4c0 .1.1.1.2.1.2-.1.2-.2.2-.3 0-.1-.2-.1-.3-.1-.1.1-.1.2-.1.3Z"/>
      <path fill="#E3726F" d="M29.5 48.4c0 .1.1.1.2.1.1-.1.2-.2.2-.3-.1 0-.2-.1-.3 0-.1 0-.1.1-.1.2Z"/>
      <path fill="#E3706D" d="M29.5 48.4s.1.1.2 0c.1 0 .2-.1.2-.2-.1 0-.2-.1-.3 0-.1 0-.1.1-.1.2Z"/>
      <path fill="#E3706D" d="M29.5 48.4s.1.1.2 0c.1 0 .2-.1.2-.2-.1 0-.2-.1-.3 0-.1 0-.1.1-.1.2Z"/>
      <path fill="#E36F6E" d="M29.5 48.4c.1 0 .1.1.2 0 .1 0 .2-.1.1-.2 0 0-.1-.1-.2 0 0 0-.1.1-.1.2Z"/>
      <path fill="#E46E6C" d="M29.5 48.4h.2c.1 0 .2-.1.1-.1 0-.1-.1-.1-.2-.1 0 0-.1.1-.1.2Z"/>
      <path fill="#E46D6C" d="M29.6 48.3c0 .067.033.1.1.1.1 0 .1-.1.1-.1 0-.066-.067-.1-.2-.1 0 0-.1.1 0 .1Z"/>
      <path fill="#E46D6C" d="M29.6 48.3c0 .067.033.1.1.1s.1-.033.1-.1c0-.066-.033-.1-.1-.1-.133 0-.167.034-.1.1Z"/>
      <path fill="#E36C6B" d="M29.6 48.3c0 .067.033.1.1.1s.1-.033.1-.1c0-.066-.033-.1-.1-.1l-.1.1Z"/>
      <path fill="#E36B6A" d="M29.6 48.3c0 .067.033.1.1.1l.1-.1c0-.066-.033-.1-.1-.1l-.1.1Z"/>
      <path fill="#E36B6A" d="M29.6 48.3c0 .067.033.1.1.1l.1-.1-.1-.1-.1.1Z"/>
      <path fill="#E2696A" d="M29.6 48.3c0 .067.033.1.1.1l.1-.1-.1-.1-.1.1Z"/>
      <path fill="#E26969" d="M29.6 48.3c0 .067.033.1.1.1l.1-.1-.1-.1-.1.1Z"/>
      <path fill="#E16867" d="M29.6 48.3c0 .067.033.1.1.1l.1-.1c-.067-.066-.1-.066-.1 0h-.1Z"/>
      <path fill="#E16768" d="M29.6 48.3c.067.067.1.067.1 0 0-.066 0-.066 0 0h-.1Z"/>
    </g>
  </g>
  <path fill="#050505" d="M35.4 45.8s-.1.4 0 .5c0 .2-.5-.2-.5-.4 0-.1.1-.899.1-.899l.4.8Zm2.9-4.7s.1 1.4-1 1.9c-1 .6-1.7.5-2.1-.6l3.1-1.3ZM32 43.201s.3 2.1-1.6 2.6c-1.9.4-2.3-.8-2.3-.8l3.9-1.8Z" opacity=".1" style="mix-blend-mode:multiply"/>
  <path fill="#8A5323" d="M28.5 44.5c.5.6 1.3.6 1.8.1.4-.5.4-1.4-.1-1.9-.5-.6-1.3-.6-1.8-.1s-.4 1.4.1 1.9Z"/>
  <path fill="#050505" d="M29.1 44.3c.3.3.6.301.9.101.2-.3.2-.7 0-1-.3-.2-.7-.2-.9 0-.2.3-.2.7 0 .9Z"/>
  <path fill="#FEFEFE" stroke="#050505" stroke-linecap="round" stroke-linejoin="round" stroke-width=".4" d="M31.9 43.001s-1.4-1.3-3.8 1.7c0 0 1.3 1.1 2.7.3 1.5-.8 1.1-2 1.1-2Z"/>
  <path fill="#FEFEFE" d="M30.1 43.6c.1 0 .3.1.4 0 0-.1 0-.299-.1-.399 0-.1-.2-.1-.3 0v.4Z"/>
  <path fill="#DEC5B6" d="M28.2 44.7s1.3-3.4 3.9-1.4c0 0-1.2-.3-2.2.2-.8.3-1.7 1.2-1.7 1.2Z"/>
  <path fill="#050505" fill-rule="evenodd" d="M28.2 44.8c-.067 0-.1-.033-.1-.1.1-.1.6-1.6 1.8-2 .733-.266 1.467-.1 2.2.5.067.067.1.134.1.2h-.1c-.1 0-1-.2-2 .1-.067.067-.133.1-.2.1-.7.3-1.6 1.2-1.6 1.2-.067.067-.1.067-.1 0Zm3.4-1.7c-.533-.333-1.067-.4-1.6-.2-.7.2-1.1.9-1.4 1.3.3-.2.8-.6 1.3-.8 0-.066.033-.1.1-.1.6-.2 1.2-.2 1.6-.2Z" clip-rule="evenodd"/>
  <path fill="#050505" d="M28.3 44.9c.067 0 .1-.033.1-.1 0 0 .6-1.5 1.8-1.9.533-.133 1.133.068 1.8.6.1 0 .2 0 .3-.1 0-.1 0-.2-.1-.3-.733-.6-1.433-.8-2.1-.6-1.2.3-1.8 1.6-2 2l-1.1-.2c-.1-.1-.2 0-.2.1s.1.2.2.3l1.2.2c.067.067.1.067.1 0Z"/>
  <path fill="#050505" d="M28.6 44.401c.067 0 .1-.033.1-.1.1-.1 0-.2-.1-.3l-.9-.3c-.1 0-.2.1-.3.2 0 .1.1.2.2.2l.9.3c0 .067.033.067.1 0Z"/>
  <path fill="#8A5323" d="M37.1 41.1c.1.7-.3 1.4-.9 1.4-.7.1-1.3-.5-1.4-1.2-.1-.7.4-1.4 1-1.4.6-.1 1.2.5 1.3 1.2Z"/>
  <path fill="#050505" d="M36.7 41.4c.1.3-.2.7-.5.7s-.6-.299-.6-.599c-.1-.4.2-.7.5-.7s.6.2.6.6Z"/>
  <path fill="#FEFEFE" stroke="#050505" stroke-linecap="round" stroke-linejoin="round" stroke-width=".4" d="M35.2 42.3s-.2-1.9 3.1-1.7c0 0 .1 1.6-1.2 2.1-1.3.6-1.9-.4-1.9-.4Z"/>
  <path fill="#FEFEFE" d="M36.7 41.2c.1.1.2.1.3.1 0-.1.1-.2 0-.3 0-.1-.1-.1-.2-.1-.1.1-.1.2-.1.3Z"/>
  <path fill="#DEC5B6" d="M38.3 40.7s-2.8-1-3.1 1.6c0 0 .3-.6 1.1-1.1.7-.5 2-.5 2-.5Z"/>
  <path fill="#050505" fill-rule="evenodd" d="M35.1 42.301v-.1c.133-.867.533-1.433 1.2-1.7.9-.3 1.9.1 2 .1l.1.1c0 .067-.033.1-.1.1 0 0-.8 0-1.5.3a3.86 3.86 0 0 0-.5.2c-.7.5-1 1-1 1v.1c-.067 0-.133-.033-.2-.1Zm2.5-1.6c-.4-.1-.8-.1-1.2 0-.533.2-.867.567-1 1.1.2-.2.467-.433.8-.7.133-.067.3-.133.5-.2.333-.133.633-.2.9-.2Z" clip-rule="evenodd"/>
  <path fill="#050505" d="M35.3 42.4c.067 0 .1-.033.1-.1.067-.666.333-1.133.8-1.4.8-.5 2 0 2 0h.2l.1-.1.2-1.1c0-.1 0-.199-.1-.199s-.2 0-.2.1l-.2.9c-.5-.2-1.5-.4-2.2.1-.533.267-.833.8-.9 1.6-.1.1 0 .2.1.2h.1Z"/>
  <path fill="#050505" d="M37.8 40.8c.067 0 .133-.032.2-.1l.1-.7c0-.1 0-.2-.1-.2-.1-.1-.2 0-.2.1l-.2.7c0 .1 0 .2.1.2h.1Z"/>
  <path fill="#E7CBAF" d="M34.8 42.001s.3 1.3 1.2 2.3c1 1.1 1.8 1.5 1.2 2.3-.5.7-1.1.8-1.7.7"/>
  <path stroke="#050505" stroke-linecap="round" stroke-linejoin="round" stroke-width=".5" d="M34.8 42.001s.3 1.3 1.2 2.3c1 1.1 1.8 1.5 1.2 2.3-.5.7-1.1.8-1.7.7"/>
  <path fill="#050505" d="M38.3 38.9c-.5-.3-1.3-.6-2-.2-.7.4-1.7.7-1.8.7-.2 0-.2-.1-.1-.2 0 0 1.2-.5 1.9-1 .6-.4 1.6-.2 2.1.3m-6.7 1.901s-1.3-.3-2-.7c-.7-.3-1.6.1-2.1.6-.2.3-.3.8-.3 1 0 .1.1.1.1.1s.3-.5.4-.7c.5-.3 1.1-.8 1.9-.5.8.3 1.8.4 1.9.4.2 0 .2-.1.1-.2Z"/>
  <path fill="#222" d="M39.4 44.9s-.3-2-1.1-3.3c0 0 .1-2.3-1.8-3.1 0 0-2-2.8-3.6-2l-.4.6s-3.8-.2-5.7 3.2c-1.8 3.5-.6 7.2-1.8 8.9-1.1 1.6-3.8 1.4-3.8 1.4s1.5 0 2.4-2.2c.8-2.3 2.8-11.6 5.5-12.1 2.8-.5 3.2-.2 3.2-.2s.5-1.7 2.2-.5c1.7 1.2 4.2 3.2 4.2 3.2s1 4 .7 6.1Z" opacity=".2" style="mix-blend-mode:multiply"/>
  <path fill="#E7CBAF" d="M24.6 48.2c-1-1.6-3.5-1.3-3.8-.1-.2 1 1.8 4.1 3.3 4.1 1.5 0 1.5-.8 1.3-1.2"/>
  <path stroke="#050505" stroke-linecap="round" stroke-linejoin="round" stroke-width=".6" d="M24.6 48.2c-1-1.6-3.5-1.3-3.8-.1-.2 1 1.8 4.1 3.3 4.1 1.5 0 1.5-.8 1.3-1.2"/>
  <path fill="#050505" d="M25 52.3c.2-.133.367-.267.5-.4.2-.3.2-.7.1-.9 0-.1-.1-.2-.2-.2-.1.1-.2.2-.1.3 0 0 .1.3-.1.6-.133.2-.5.3-1.1.3-.6 0-1.4-.6-2.1-1.5-.7-.9-1.1-1.9-1-2.3.1-.5.6-.8 1.2-.9.7-.1 1.7.2 2.2 1 .1.1.2.1.3 0 .1 0 .1-.1 0-.2-.267-.467-.667-.8-1.2-1-.4-.2-.9-.2-1.4-.1-.7.1-1.3.5-1.5 1.1-.1.6.4 1.7 1.1 2.6.333.467.7.867 1.1 1.2.467.334.9.5 1.3.5.333 0 .633-.033.9-.1Z"/>
  <path fill="#221E1F" d="M23.6 50.4c.4.5 1 .9.5.9-1-.1-2.3-2.1-2.1-2.7.2-.8 1.3-.8 1.9.2 0 0 .3.4-.3.6-.3.2-.2.6 0 1Z" opacity=".2"/>
  <path fill="#EAEBE8" d="M35.6 32.6s-5-4.5-11.2-2.4c-6.3 2.1-9.3 8.2-6.7 14.6 2.5 6.5 3.7 5.6 3.7 5.6S24 41.9 26 38.8c2.1-3.1 4.2-4.1 5.9-2.8 0 0 1.1-1.8 3.2-1.5 2.1.3 3.9.7 3.9.7l-2-2.6h-1.4Z"/>
  <path stroke="#050505" stroke-linecap="round" stroke-linejoin="round" stroke-width=".4" d="M21.5 34.4s-2.3.4-3 2.8c-.7 2.4-1.3 4.9-3 5.3-1.7.5-2.6-1.4-1.7-3"/>
  <path stroke="#050505" stroke-linecap="round" stroke-linejoin="round" stroke-width=".4" d="M27.4 31.2s-3.4-1.7-6.3.2c0 0-2.1-.7-4 .9s-1.2 4.1-.4 4.7m18.6-7.1s-.4-1.1-2.3-1.9c-1.1-.5-3.5-.7-5.2 1.1 0 0-1.4-.4-2.2.9m-2.5 21.8s-1.1.9-2.3.6c0 0-1.1.7-1.9-.3"/>
  <path stroke="#050505" stroke-linecap="round" stroke-linejoin="round" stroke-width=".4" d="M23.9 52.4s-1.1 1.4-2.8.1m-3.1-10s.4 3.7-1.8 5.1c-2.2 1.4-4.9-.3-4.8-2.4"/>
  <path stroke="#050505" stroke-linecap="round" stroke-linejoin="round" stroke-width=".4" d="M12.9 45.7s-.8-1.3.6-2c1.4-.6 2.2 1.2 1.5 1.9-.7.7-1.6 0-1.3-.8"/>
  <path fill="#EAEBE8" d="M40.6 36.7s-.5 2.2-2.1 2.3c-1.6.1-3.9-4.4-6.1-2.7 0 0-.3-2.4-1.9-3.1"/>
  <path stroke="#050505" stroke-linecap="round" stroke-linejoin="round" stroke-width=".4" d="M40.6 36.7s-.5 2.2-2.1 2.3c-1.6.1-3.9-4.4-6.1-2.7 0 0-.3-2.4-1.9-3.1"/>
  <path fill="#EAEBE8" d="M28.9 34.9c2.8-.1 3.6 2.6 3.6 2.6-.1-1.9 1.2-2.9 2.7-2.6 1.4.4 2.3 2.6 4.1 2.9 1.3.2 2.2-.7 2.4-1.4.4-.9.1-2.5-1.4-3.3"/>
  <path stroke="#050505" stroke-linecap="round" stroke-linejoin="round" stroke-width=".5" d="M28.9 34.9c2.8-.1 3.6 2.6 3.6 2.6-.1-1.9 1.2-2.9 2.7-2.6 1.4.4 2.3 2.6 4.1 2.9 1.3.2 2.2-.7 2.4-1.4.4-.9.1-2.5-1.4-3.3"/>
  <path fill="#EAEBE8" d="M19.5 51.7c3.7.2 4.7-2.5 5.2-5.6.5-3 2.8-8.2 4.5-9.2 1.7-1 3-.3 3-.3s-.6-2.7-3.3-3c-2.8-.2-4.1 1.8-4.4 3.4-.2 1.6-2.5.7-3.8 2.2-1.2 1.6-.9 3.9.8 4.4"/>
  <path stroke="#050505" stroke-linecap="round" stroke-linejoin="round" stroke-width=".5" d="M19.5 51.7c3.7.2 4.7-2.5 5.2-5.6.5-3 2.8-8.2 4.5-9.2 1.7-1 3-.3 3-.3s-.6-2.7-3.3-3c-2.8-.2-4.1 1.8-4.4 3.4-.2 1.6-2.5.7-3.8 2.2-1.2 1.6-.9 3.9.8 4.4"/>
  <path stroke="#050505" stroke-linecap="round" stroke-linejoin="round" stroke-width=".4" d="M29.9 32.1s1.5-1.8 3.8-1.1c2.3.8 3.3 2.5 3.8 2.1m-14.7 6.8s-2.3 2.5-.7 5.6M37.7 34c.2.3 1.3.6 1.6-.5.3-1.1-1-1.5-1.4-1m.9 7s1.9 1.6 3.8.2c1.8-1.5.6-3.7.6-3.7m-3.9 6.3c2.8 1.8 4.6-.9 4.6-.9"/>
  <path fill="#222" d="m41.5 42.9.1 1.7s-.4-1-.9-.1c-.4.9.3 1.9.3 1.9l-1.3 1.4-.4-5.5s1 1 2.2.6Zm-17 9.7-1-.6-1.1-.8-2.6.6s1.4.7.4.9c0 0 .6.3.4.8 0 0 1.8 1.5 3.9-.9Zm-5.3-3.5s-2.4.2-2.8-1.6c0 0-2.7 1.7-4.7-.9 0 0 .1.9-.7.6 0 0 1.6 2.4 6.2 3.6l1.9-.5-.8-.4.9-.8Zm1.7-5.8.4 2.1s-.7-.9-1.6 0c-.9.8 0 2.1 0 2.1s-1-.1-1.3 0c-.4.2-.7-1.5-.7-1.5l.4-2.3s1.2 1.2 1.6.1c.4-1-.9-2.9.4-4 0 0-.8 2.2.8 3.5Zm12.5-13.5s-1.1-1.5-2.4-.9c-1.3.7-1.5 2.1-1.5 2.1s-.1-1-1.3-1.1c-1.3-.1-1.6.8-1.6.8s1.3.4 2 1.2c0 0 .8-.7 1.6-.2 0 0 .8-.8 1.7-.9 0 0 .3-1.3 1.5-1Zm5.7 12-.4-2.1s2.9 1.6 4.3-.5c0 0-.4 1.5-1.4 2.1-1.1.5-2.5 0-2.5.5Zm-18.4-8.7s-1.3-.8-2.2.1c-.8 1-.2 2.9-.2 2.9s-1.5-.1-1.9 1.9c-.3 2.1-1.3 1.2-1.5.6 0 0 .2 1.9 1.6 1.8 1.5 0 1.8-2.6 1.8-2.6s.5-2 1.8-2.6c0 0-.2-2 .6-2.1Zm6.6-.3s-2.2-1.1-3.3 1.7c-1.1 2.7-.4 3.4-.4 3.4s.7.6 1.2-1.4c.6-2 2-2.6 2.5-2.6.4 0-.6-.9 0-1.1Z" opacity=".2" style="mix-blend-mode:multiply"/>
  <path fill="#BE4628" d="m37 70.5 2.1 8.3-2.1-8.3Z"/>
  <path stroke="#050505" stroke-linecap="round" stroke-linejoin="round" stroke-width=".7" d="m37 70.5 2.1 8.3"/>
  <path fill="#20B04B" d="M62.9 19.8 6.7 24.4l.1-4.7 55.6-4.6.5 4.7Zm11.6 9.4-62.4 4.9-.4-4.8 62.4-4.8.4 4.7Z"/>
  <path fill="#FEFEFE" fill-rule="evenodd" d="M21.6 8.4c.9-.1 2-.1 1.8 3.1-.2 2.8-1.2 3.1-2.6 3.2h-.6l.5-6.2.9-.1Zm-.2.7-.3 4.8c1.3 0 1.3-1.3 1.4-2.4.1-1 .3-2.6-1.1-2.4Z" clip-rule="evenodd"/>
  <path fill="#FEFEFE" d="M24.6 14.4h-.8l.5-6.2.8-.1-.5 6.3Zm0-6.5-.4-.2.8-1.3.5.3-.9 1.2Z"/>
  <path fill="#FEFEFE" fill-rule="evenodd" d="m27.4 7.9.9 6.2h-.9l-.1-1.2-1.2.1-.3 1.3H25L26.8 8l.6-.1Zm-.3 3.4-.2-2.2-.7 3.2 1-.1-.1-.9Z" clip-rule="evenodd"/>
  <path fill="#FEFEFE" d="M31.1 9.5v2l-.2 2.3-.8.1.4-6.2.8-.1 1.1 4.6V9.7l.2-2.2.8-.1-.5 6.3h-.7L31.1 9v.5Z"/>
  <path fill="#FEFEFE" fill-rule="evenodd" d="m35.7 7.2.9 6.2h-.9l-.1-1.2-1.2.1-.3 1.3h-.8l1.8-6.3.6-.1Zm-.3 3.5-.2-2.3-.7 3.2h1l-.1-.9Z" clip-rule="evenodd"/>
  <path fill="#FEFEFE" d="M39.7 7.7c-.2 0-.3-.1-.5-.1-1.2.1-1.3 1.8-1.3 2.6-.1.8-.2 2.4 1 2.3.133 0 .3-.067.5-.2l-.1.7c-.2.2-.433.3-.7.3-1.6.1-1.7-1.7-1.6-3 .1-1.2.4-3.3 2.1-3.4.2-.1.4 0 .7.1l-.1.7Zm.8 5.3-.8.1.5-6.2.8-.1-.5 6.2Z"/>
  <path fill="#FEFEFE" fill-rule="evenodd" d="M44.6 9.6c-.1 1.1-.2 3.2-1.8 3.3-1.6.2-1.5-1.9-1.4-3 .1-1.2.3-3.2 1.9-3.4 1.5-.1 1.4 2 1.3 3.1Zm-2.3.2c-.1 1.3-.1 2.4.5 2.4.7-.1.8-1.2 1-2.5 0-1.4 0-2.5-.6-2.4-.7.1-.8 1.2-.9 2.5Z" clip-rule="evenodd"/>
  <path fill="#FEFEFE" d="M46 8.2v2.1l-.2 2.3-.8.1.5-6.3h.8l1.1 4.6V8.5l.1-2.2.8-.1-.4 6.2-.8.1L46 7.8v.4Z"/>
  <path fill="#FEFEFE" fill-rule="evenodd" d="m50.7 6 .8 6.1-.8.1-.1-1.2-1.3.1-.3 1.2-.8.1L50 6h.7Zm-.3 3.5-.1-2.2-.7 3.2.9-.1-.1-.9Z" clip-rule="evenodd"/>
  <path fill="#FEFEFE" d="m53.1 5.8-.4 5.5 1.4-.1-.1.7-2.1.2.4-6.2.8-.1Z"/>
  <path fill="#FEFEFE" fill-rule="evenodd" d="M57.2 5.5c1-.1 2.1-.2 1.8 3-.2 2.9-1.1 3.1-2.6 3.2l-.6.1.5-6.3h.9Zm-.2.7-.3 4.9c1.3-.1 1.4-1.4 1.5-2.4 0-1 .2-2.7-1.2-2.5Z" clip-rule="evenodd"/>
  <path fill="#FEFEFE" d="M62.1 5v.8l-1.4.1-.2 1.9 1.3-.1-.1.8-1.2.1-.2 2.1 1.4-.1-.1.7-2.2.2.5-6.3 2.2-.2Zm1.3-.1-.5 5.6 1.4-.1v.7l-2.2.2.4-6.3.9-.1Z"/>
  <path fill="#FEFEFE" fill-rule="evenodd" d="m67.1 14.5.8 5.7-.8.1-.1-1.1-1.2.1-.3 1.1-.7.1 1.7-6h.6Zm-.3 3.3-.1-2.1-.7 3 .9-.1-.1-.8Z" clip-rule="evenodd"/>
  <path fill="#FEFEFE" d="m70.8 14.1-.4 5.2 1.3-.1v.7l-2.1.2.4-5.9.8-.1Z"/>
  <path fill="#FEFEFE" fill-rule="evenodd" d="m73.8 13.9.8 5.8h-.7l-.2-1.1-1.1.1-.3 1.2h-.8l1.7-6h.6Zm-.2 3.3-.2-2.1-.7 3h1l-.1-.9ZM8.4 25.6l.4-7.7 3-.2c1.133-.133 2.033.133 2.7.8.667.666.967 1.567.9 2.7a4.444 4.444 0 0 1-1.2 2.8c-.733.8-1.667 1.233-2.8 1.3l-3 .3Zm2.5-5.7-.2 3.4.8-.1c.467 0 .833-.167 1.1-.5.267-.334.433-.767.5-1.3 0-.467-.1-.834-.3-1.1-.267-.334-.633-.467-1.1-.4h-.8Z" clip-rule="evenodd"/>
  <path fill="#FEFEFE" d="m18.7 19.2-.1.8 3-.3-.1 2-3 .3v.6l3.2-.3-.1 2.2-5.5.4.5-7.6 5.4-.5-.1 2.2-3.2.2Z"/>
  <path fill="#FEFEFE" fill-rule="evenodd" d="m29.5 23.8-2.8.3-1.5-1.8H25l-.1 1.9-2.2.2.4-7.7 3.1-.2h.6c.4.1.8.1 1.2.4.4.2.8.6.9 1.2.133.266.2.6.2 1-.067 1.066-.533 1.9-1.4 2.5l1.8 2.2Zm-4.2-5.2-.1 1.5.9-.1c.4-.067.6-.3.6-.7 0-.5-.2-.8-.6-.7h-.8Z" clip-rule="evenodd"/>
  <path fill="#FEFEFE" d="m32.7 18.1-.1.7 3-.2-.1 1.9-3 .3v.6l3.2-.2-.1 2.1-5.5.5.4-7.7 5.5-.4-.1 2.1-3.2.3Zm12 1.3a4.79 4.79 0 0 1-1.6 2.5c-.733.733-1.6 1.133-2.6 1.2-1.133.066-2.067-.233-2.8-.9-.733-.733-1.067-1.667-1-2.8.067-1.067.5-2.033 1.3-2.9.867-.8 1.833-1.267 2.9-1.4 1-.067 1.867.2 2.6.8.667.533 1.067 1.3 1.2 2.3l-2.4.2c-.133-.4-.333-.7-.6-.9a1.985 1.985 0 0 0-.9-.2c-.467 0-.866.2-1.2.6-.333.4-.5.833-.5 1.3-.067.533.067.967.4 1.3.267.333.633.467 1.1.4.334 0 .667-.133 1-.4a2.66 2.66 0 0 0 .6-.9l2.5-.2Zm4.7 2.8.2-2.4-1.9.1-.1 2.4-2.3.2.4-7.6 2.3-.2-.2 3 1.9-.1.2-3.1 2.2-.2-.4 7.7-2.3.2Z"/>
  <path fill="#FEFEFE" fill-rule="evenodd" d="M57.2 13.8c1.133-.134 2.067.167 2.8.9.667.733.967 1.633.9 2.7 0 1.133-.433 2.1-1.3 2.9-.8.866-1.767 1.333-2.9 1.4-1.133.133-2.033-.167-2.7-.9-.733-.667-1.067-1.567-1-2.7a4.33 4.33 0 0 1 1.3-2.9c.8-.867 1.767-1.333 2.9-1.4Zm-.3 5.8c.4-.067.767-.3 1.1-.7.333-.333.533-.767.6-1.3 0-.467-.133-.867-.4-1.2-.333-.333-.7-.5-1.1-.5-.467.067-.867.3-1.2.7-.333.333-.533.767-.6 1.3 0 .467.133.867.4 1.2.333.333.733.5 1.2.5Z" clip-rule="evenodd"/>
  <path fill="#FEFEFE" d="m13.9 35 .5-7.6 2.2-.2-.4 7.6-2.3.2Z"/>
  <path fill="#FEFEFE" fill-rule="evenodd" d="m17.4 34.8.4-7.7 3.1-.2c1.067-.134 1.933.133 2.6.8.667.733.967 1.633.9 2.7-.067 1.133-.467 2.066-1.2 2.8-.733.8-1.667 1.233-2.8 1.3l-3 .3Zm2.6-5.7-.2 3.4.7-.1c.467 0 .833-.167 1.1-.5a2.43 2.43 0 0 0 .5-1.2c0-.534-.1-.934-.3-1.2-.267-.334-.6-.467-1-.4H20Z" clip-rule="evenodd"/>
  <path fill="#FEFEFE" d="M27.7 28.5v.7l3-.2-.2 1.9-3 .3v.6l3.2-.2-.1 2.1-5.5.5.5-7.7 5.5-.4-.1 2.1-3.3.3Zm11.2-3-.5 7.6-2.1.2-2.2-3.2-.2 3.4-2.2.1.4-7.6 2.1-.2 2.2 3.2.2-3.4 2.3-.1Zm2.8 1.9-2.1.2.2-2.2 6.4-.5-.1 2.2-2.1.1-.4 5.5-2.2.2.3-5.5Zm4.9 5.1.5-7.7 2.3-.1-.5 7.6-2.3.2Z"/>
  <path fill="#FEFEFE" fill-rule="evenodd" d="m50.1 32.2.5-7.6 3-.3c1.133-.067 2.033.234 2.7.9.6.667.867 1.567.8 2.7a4.444 4.444 0 0 1-1.2 2.8c-.733.8-1.667 1.234-2.8 1.3l-3 .2Zm2.6-5.7-.2 3.4.8-.1a1.58 1.58 0 0 0 1-.6c.333-.333.5-.733.5-1.2.067-.466-.033-.833-.3-1.1-.2-.333-.533-.466-1-.4h-.8Zm9.8-2.9 2.3 7.5-2.5.2-.2-.8-2.4.2-.3.8-2.5.2 3.3-7.9 2.3-.2Zm-2 4.9 1-.1-.4-1.6-.6 1.7Zm5 2.5.5-7.6 3-.3c1.133-.067 2.033.233 2.7.9.6.667.9 1.567.9 2.7-.067 1.067-.5 2-1.3 2.8-.733.8-1.667 1.233-2.8 1.3l-3 .2Zm2.6-5.7-.2 3.4.8-.1c.4 0 .767-.2 1.1-.6.267-.333.4-.733.4-1.2.067-.467-.033-.833-.3-1.1-.2-.333-.533-.467-1-.4h-.8Z" clip-rule="evenodd"/>
  <path fill="#050505" d="m76.7 10.2-.1-.8v-.7c0-.2.067-.534.2-1 .067-.4.2-.767.4-1.1.2-.267.533-.534 1-.8.467-.267 1.033-.434 1.7-.5 1.5-.1 2.6.3 3.1.9.267.2.5.5.7.9.133.466.233.8.3 1 .067.2.1.433.1.7v.1c.067.8-.133 1.633-.6 2.5-.533.933-1.133 1.733-1.8 2.4l2.9-.2.2 2.9-7.3.6-.2-2.6c1.7-1.8 2.8-3.1 3.2-3.9.2-.4.333-.7.4-.9v-.6c0-.4 0-.6-.2-.7a.678.678 0 0 0-.5-.2c-.4.1-.5.4-.4 1v.7l-3.1.3Zm9.1-.7v-.8c-.067-.267-.1-.5-.1-.7 0-.2.067-.5.2-.9.067-.467.2-.833.4-1.1.2-.333.533-.634 1-.9a5.133 5.133 0 0 1 1.8-.5c1.4-.1 2.5.4 3 .9.267.267.5.6.7 1 .2.4.3.7.3.9.067.2.1.433.1.7v.1c.067.8-.133 1.633-.6 2.5a9.14 9.14 0 0 1-1.7 2.4l2.8-.2.2 3-7.3.5-.2-2.6c1.7-1.7 2.9-3.1 3.2-3.9.2-.4.333-.7.4-.9a.92.92 0 0 0 0-.6c0-.3 0-.5-.2-.7-.133-.133-.267-.167-.4-.1-.5 0-.5.3-.5.9l.1.7-3.2.3Z"/>
  <path fill="#FEFEFE" d="M77.7 8.6v-.8c-.067-.267-.1-.5-.1-.7 0-.2.067-.5.2-.9.067-.467.2-.834.4-1.1.2-.334.567-.633 1.1-.9.467-.267 1.033-.433 1.7-.5 1.4-.1 2.5.4 3.1.9.267.266.467.6.6 1 .2.4.3.7.3.9.067.267.1.5.1.7v.1c.067.8-.133 1.667-.6 2.6a12.044 12.044 0 0 1-1.7 2.4l2.8-.3.2 3-7.3.5-.2-2.6c1.8-1.7 2.9-3.1 3.3-3.9l.3-.9c.067-.2.1-.4.1-.6-.1-.3-.1-.5-.3-.7-.067-.134-.2-.167-.4-.1-.5 0-.5.3-.5.9l.1.8-3.2.2Zm9.2-.7-.1-.8v-.7c0-.2.033-.5.1-.9.133-.4.3-.767.5-1.1.2-.333.533-.633 1-.9.467-.267 1.033-.4 1.7-.4 1.4-.2 2.5.3 3.1.8.267.267.467.6.6 1 .2.4.333.7.4.9v.8c.067.8-.133 1.667-.6 2.6a12.044 12.044 0 0 1-1.7 2.4l2.8-.2.2 2.9-7.3.5-.2-2.6c1.8-1.7 2.9-3.1 3.3-3.9.2-.4.3-.7.3-.9.067-.133.1-.3.1-.5 0-.4 0-.6-.3-.8-.067-.067-.2-.1-.4-.1-.4 0-.5.3-.5 1l.1.7-3.1.2Z"/>
</svg>
