<svg xmlns="http://www.w3.org/2000/svg" width="92" height="168" fill="none" viewBox="0 0 92 168">
  <path fill="#7358A4" d="M74.3 97 11 91.8l-5.5 69.6 63.3 6.3L74.3 97Z"/>
  <path fill="#332F56" d="M91 80.2 12.4 91.1l62 4.8-5.6 71.8 15.9-15.9L91 80.2Z"/>
  <path fill="#6A4C9E" d="M27.8 75.5 11 91.8 74.2 97 91 80.2l-63.2-4.7Z"/>
  <mask id="a" width="81" height="22" x="11" y="75" maskUnits="userSpaceOnUse" style="mask-type:luminance">
    <path fill="#fff" d="m91.01 80.16-63.19-4.63-16.77 16.3L74.34 97l16.67-16.84Z"/>
  </mask>
  <g mask="url(#a)">
    <path stroke="#9B82BB" stroke-width=".4" d="m14.7 121 98.1-97.9M.8 130.6 112.6 19.5M1 125.8 105.4 22.7m-103 97.8L105.6 18.3m-101.3 96L108 11.8m-103.2 98L107.3 8.6M6.2 104.5 110.3 2.1M9 97.6l97.8-95.9M12.5 88.5l87.9-91.8M15.2 79.5 89.4 4.6M15.8 76.9l74.3-75M43.6 109.2l83.8-84.7m-82.9 79.3 75.3-75.4M45.7 98.5l74.9-75.1M42.2 97.6l68.7-68.4m-53.5 82.1 84.1-84.7m-80.4 85.3 83.3-84.8m-85.8 78.8 74.2-74.8m-73 69.5L133 26.3M56.9 99.7l67.3-68.1"/>
  </g>
  <path fill="#050505" d="M77 91.2c0 .7-5.6 1.2-12.6 1.2s-12.7-.5-12.7-1.2c0-.6 5.7-1.1 12.7-1.1 7 0 12.6.5 12.6 1.1Zm-32.8-.4c0 .7-5.7 1.2-12.7 1.2-7 0-12.7-.5-12.7-1.2 0-.6 5.7-1.1 12.7-1.1 7 0 12.7.5 12.7 1.1Z" opacity=".3"/>
  <path fill="#831618" d="M70 71.8s9.6 2.8 8.9 6.4c-.7 3.5-3 9.8-9.8 5.7-6.8-4.2.9-12.1.9-12.1Z"/>
  <path fill="#050505" fill-rule="evenodd" d="M73.2 85.4c-1.267 0-2.667-.467-4.2-1.4-1.667-1-2.6-2.333-2.8-4-.3-2.1.7-4.2 1.6-5.6 1-1.6 2-2.7 2-2.7.067-.067.133-.067.2 0 .4.1 9.8 2.8 9.1 6.5-.3 1.6-1.3 5.6-4.1 6.8-.6.267-1.2.4-1.8.4ZM70 72c-.5.6-3.9 4.5-3.5 7.9.2 1.533 1.1 2.8 2.7 3.8 2.2 1.333 4.1 1.667 5.7 1 2.6-1.2 3.5-5 3.8-6.6.6-3.2-7.7-5.8-8.7-6.1Z" clip-rule="evenodd"/>
  <path fill="#050505" d="M66.9 89.8s.4.8-1.1 1.5l7.5.3-.2-1.6-6.2-.2Z"/>
  <path fill="#050505" fill-rule="evenodd" d="m73.3 91.8-7.5-.3c-.067 0-.133-.067-.2-.2 0-.067.033-.134.1-.2.6-.2.967-.467 1.1-.8.1-.3 0-.5 0-.5-.067-.067-.067-.1 0-.1l.1-.1 6.2.2c.133 0 .2.067.2.2l.2 1.6v.1c-.067.066-.133.1-.2.1Zm-6.9-.7 6.7.3-.1-1.2-5.8-.3c0 .133-.033.3-.1.5-.133.267-.367.5-.7.7Z" clip-rule="evenodd"/>
  <path fill="#4E69B1" d="m73 84.5.5 5.9-6.8-.1-1.4-5.5"/>
  <path fill="#050505" d="m73.5 90.6-6.8-.1c-.067 0-.1-.033-.1-.1l-1.4-5.6c-.1-.1 0-.2.1-.2s.2 0 .2.1l1.4 5.5 6.4.1-.5-5.7c0-.1.1-.2.2-.2s.2 0 .2.1l.4 5.9v.2h-.1Z"/>
  <path fill="#050505" d="M73.4 89.8s-.3-1.6-1.7-1.7c-1.3-.1-5 .6-5.5.6l-.2-1.6 7.2-.8s0 2.4.2 3.5Z" opacity=".2" style="mix-blend-mode:multiply"/>
  <path fill="#050505" d="M56.5 89.3s.2.7-2 1.5l7.5.3.5-1.6-6-.2Z"/>
  <path fill="#050505" fill-rule="evenodd" d="m62 91.2-7.5-.3c-.067 0-.133-.034-.2-.1 0-.067.033-.134.1-.2 1.9-.6 2-1.2 2-1.3-.067-.067-.067-.1 0-.1l.1-.1 6 .2c.067 0 .1.033.1.1.067.067.067.1 0 .1l-.4 1.6c-.067.066-.133.1-.2.1Zm-6.7-.6 6.6.3.3-1.2-5.5-.3c-.1.3-.3.8-1.4 1.2Z" clip-rule="evenodd"/>
  <path fill="#4E69B1" d="m57.9 83.9-1.6 5.4 6.4.7 2.6-5.4"/>
  <path fill="#050505" d="m62.7 90.2-6.4-.7c-.067 0-.133-.033-.2-.1v-.1l1.6-5.5c.1-.1.2-.1.2-.1.1 0 .2.1.2.2l-1.6 5.3 6.1.6 2.5-5.3c.1-.1.2-.1.3-.1.1 0 .1.2.1.2l-2.7 5.5c0 .066-.033.1-.1.1Z"/>
  <path fill="#050505" d="M63.2 88.9s-1.6 0-2.9-.5c-1.4-.4-3.6-.7-3.6-.7l.8-2.6 6.9 1.2-1.2 2.6Z" opacity=".2" style="mix-blend-mode:multiply"/>
  <path fill="#B3805F" d="M54.6 66.6s-1.7-1.4-1.6-2.9c.1-1.6 3.2-2.9 4-1.2.8 1.6.6 2.6.2 2.9-.4.3-2.6 1.2-2.6 1.2Z"/>
  <path fill="#050505" fill-rule="evenodd" d="M54.6 66.8c-.067 0-.1-.034-.1-.1-.1 0-1.7-1.4-1.6-3 0-1.1 1.1-1.9 2.2-2.1.9-.2 1.7.1 2.1.8.8 1.6.6 2.8.1 3.2-.4.2-2.6 1.1-2.7 1.2Zm1-4.9h-.4c-.9.2-1.9.9-2 1.8-.1 1.3 1.1 2.4 1.4 2.7.7-.3 2.2-.9 2.5-1.1.4-.3.5-1.3-.2-2.7-.3-.6-.9-.7-1.3-.7Z" clip-rule="evenodd"/>
  <path fill="#050505" fill-rule="evenodd" d="M54.1 65c-.5 0-.9-.1-1-.3 0-.1 0-.2.1-.3.1 0 .2 0 .2.1.1.1.4.3 1.1.1.5 0 1.9-.3 1.7-1.3 0-.1.1-.2.2-.2s.1 0 .2.1c.2 1.4-1.5 1.7-2 1.8h-.5Z" clip-rule="evenodd"/>
  <path fill="#B3805F" d="M57.3 63.1c0-.3-.3-.6-.6-.5h-.9c-.3 0-.6.3-.6.6.1.3.3.5.6.5h.6"/>
  <path fill="#050505" d="M56.4 63.9h-.6a.679.679 0 0 1-.5-.2.678.678 0 0 1-.2-.5c0-.2.067-.367.2-.5.133-.2.3-.3.5-.3h.9c.4 0 .7.3.8.7 0 .1-.1.1-.2.2-.1 0-.2-.1-.2-.2 0-.2-.2-.4-.4-.4l-.9.1c-.133 0-.233.033-.3.1-.067.067-.1.166-.1.3 0 .066.033.133.1.2.133.067.233.1.3.1l.6.1c.1 0 .2 0 .2.1s-.1.2-.2.2Z"/>
  <path fill="#050505" d="M56.3 63.7s-1.1.1-1-.5c0-.6-.3-.4-.3-.4s-.4.4-.2 1.1c.3.6 1.5.5 1.5-.2Z" opacity=".1" style="mix-blend-mode:multiply"/>
  <path fill="#050505" d="M56.4 63.8s.2.6-.6 1.1c-.9.5-1.2.7-1.1.9 0 .2.3.5.1.6-.2.2-.9-.1-1.1-.6-.2-.5-.4-1.1-.4-1.1s1.3.4 1.9.1c.6-.3 1.2-1 1.2-1Z" opacity=".1" style="mix-blend-mode:multiply"/>
  <path fill="#F1F1F1" d="M62.7 77.6c2.3-1.4 1-3.3 1-3.3L58 64l-4.8 2.3 6.2 10.9s.9 1.9 3.3.4Z"/>
  <path fill="#050505" fill-rule="evenodd" d="M61 78.3c-.2 0-.4-.034-.6-.1-.8-.2-1.1-.9-1.2-1l-6.1-10.8v-.2l.1-.1 4.7-2.2c.1-.1.2 0 .2 0l5.8 10.3c0 .1.5.9.3 1.8-.133.667-.6 1.233-1.4 1.7-.667.4-1.267.6-1.8.6Zm-7.5-11.9 6 10.7s.3.6 1 .8c.6.2 1.3.033 2.1-.5.733-.4 1.167-.9 1.3-1.5.1-.8-.3-1.5-.3-1.5l-5.7-10.1-4.4 2.1Z" clip-rule="evenodd"/>
  <path fill="#050505" d="M58.4 71.6c-1.9-1.4-3-5.3-2.1-5.9.5-.3 1.4-.8 1.9-1.2l5.5 9.8s1.3 1.9-1 3.3c-2.4 1.5-3.3-.4-3.3-.4L57 73c1.5-.1 3.1-.2 1.4-1.4Z" opacity=".1" style="mix-blend-mode:multiply"/>
  <path fill="#F1F1F1" d="M66.2 76.3s-2.1-2.4-2.9-2.7c-.8-.2-1.4-.7-2.1.1-.8.9-3.1 3.9-4.6 9.7.3 1.3 1.9 2.1 4.8 2.9 4 1 6.6 1 9.4 1.2 2.8.2 3.6.1 3.5-.3-.2-9.1 1.9-11.9 1.9-11.9l-5.2-.2-4.8 1.2Z"/>
  <path fill="#050505" fill-rule="evenodd" d="M72.9 87.8c-.5 0-1.2 0-2.1-.1-.667-.067-1.3-.1-1.9-.1-2.1-.2-4.4-.3-7.5-1.1-3.2-.9-4.7-1.8-5-3v-.1c1.6-5.9 3.8-8.8 4.7-9.8.7-.7 1.3-.5 1.9-.3l.4.2c.7.2 2.4 2.1 2.8 2.6L71 75l5.2.1c.067 0 .1.033.1.1.067.066.067.133 0 .2 0 0-2.1 2.9-1.8 11.8 0 .133-.033.233-.1.3-.2.1-.5.3-1.5.3Zm-16.1-4.4c.3 1.1 1.7 1.9 4.7 2.7 3.1.8 5.3 1 7.5 1.1.6.066 1.2.1 1.8.1 2.5.2 3.2.1 3.4 0v-.1c-.3-7.6 1.2-10.8 1.7-11.7l-4.8-.2-4.9 1.2c-.067 0-.1-.033-.1-.1-.6-.7-2.2-2.4-2.8-2.6a.887.887 0 0 0-.4-.1c-.6-.3-1-.4-1.5.1-.9 1-3.1 3.8-4.6 9.6Z" clip-rule="evenodd"/>
  <path fill="#050505" fill-rule="evenodd" d="M71 86h-.3c-1.4-.1-2.3-1.1-2.3-2.5v-1.8h.2l4.2.4c.1 0 .2 0 .2.1v1.6c0 .8-.2 1.4-.6 1.7-.4.4-.9.5-1.4.5Zm-2.3-3.9.1 1.4c0 1.5 1 2.1 1.9 2.2.6.066 1.067-.067 1.4-.4.333-.334.5-.834.5-1.5v-1.4l-3.9-.3Z" clip-rule="evenodd"/>
  <path fill="#ED3937" d="m68.5 82.7 4.3.3-4.3-.3Z"/>
  <path fill="#050505" d="m72.8 83.2-4.3-.4v-.3l4.4.4-.1.3Z"/>
  <path fill="#050505" d="M71.5 86.2s-1.2.3-2.9-.9C66.9 84 66.9 83 66.9 83l1.6.4s.3 2.6 2.6 2.5l.4.3Z" opacity=".1" style="mix-blend-mode:multiply"/>
  <path fill="#8DBEE6" d="M71.4 75s-4.4 1.1-7.1 3.1c0 0-1.1-2.8 0-5.7l7.1 2.6Z"/>
  <path fill="#050505" d="M57.4 82.9c-.2 0-.433-.067-.7-.2-.1 0-.1-.1-.1-.2.1-.1.2-.1.2-.1.9.4 1.2-.1 1.3-.1l.9-2.5-1-.4c-.1-.1-.2-.2-.1-.3 0 0 .1-.1.2-.1l1.2.5c.1 0 .1.1.1.2l-1 2.7s-.3.5-1 .5Z"/>
  <path fill="#050505" d="M59 80.6h-.1l-1.3-.5c-.1 0-.1-.1-.1-.2s.1-.1.2-.1l1.3.5c.1 0 .1.1.1.2 0 .067-.033.1-.1.1Z"/>
  <path fill="#050505" d="m70.5 74.2 4.2 1.2-5.4 2 1.9 1.3-7 .4s-.5 1.3-.8 2.4c-.4 1.1.4 1.2 0 1.4-.5.3-.7.7-.9 1.4-.3.7-.4 2.2-.4 2.2l-.5-.5s1.1-4.2 2.1-6.8l-2.8-3.6 1.3-.7-.5-1.9 2.7.2-.4 5.5 6.5-4.5Z" opacity=".1" style="mix-blend-mode:multiply"/>
  <path fill="#050505" d="M64.9 80.2c0 .3-.2.4-.4.4-.3-.1-.5-.3-.4-.5 0-.3.2-.4.4-.4.3.1.4.3.4.5Zm-.5 1.9c0 .2-.2.4-.4.3-.3 0-.5-.2-.4-.5 0-.2.2-.4.4-.3.3 0 .4.2.4.5Zm-.6 1.8c0 .2-.2.4-.5.4-.2-.1-.4-.3-.4-.5 0-.3.2-.4.5-.4.2 0 .4.3.4.5Z"/>
  <path fill="#FEFEFE" d="M64.1 78.4s-1.4 2.8-2.6 7.8l2.6-7.8Z"/>
  <path fill="#050505" d="M61.5 86.4c-.1 0-.2-.1-.2-.2 1.2-5 2.6-7.8 2.6-7.8 0-.1.1-.2.2-.1.1 0 .2.1.1.2 0 0-1.3 2.8-2.5 7.8-.067.066-.134.1-.2.1Z"/>
  <path fill="#F0F1F1" d="M65.1 73.3s-.5 2.3-1 5.1l-3.2-3.6 2.1.7-2.2-2.9 4.3.7Z"/>
  <path fill="#050505" fill-rule="evenodd" d="M64.1 78.6h-.2l-3.1-3.7c-.067-.067-.1-.134-.1-.2.067-.067.133-.067.2 0l1.6.5-1.8-2.5c-.067-.067-.067-.133 0-.2 0-.067.033-.1.1-.1l4.3.7c.067 0 .1.033.1.1.067 0 .067.033 0 .1 0 0-.4 2.4-1 5.2 0 .067-.033.1-.1.1Zm-2.7-3.4 2.6 2.9c.4-2.2.8-4.1.9-4.7l-3.7-.6 1.9 2.6c.067.067.067.133 0 .2 0 .066-.067.1-.2.1l-1.5-.5Z" clip-rule="evenodd"/>
  <path fill="#F0F1F1" d="M68.7 73.8s-1.7 1.4-4.6 4.6l5.8-.3-2.1-.8 4.9-.9-4-2.6Z"/>
  <path fill="#050505" fill-rule="evenodd" d="M64.1 78.6c-.067 0-.133-.033-.2-.1v-.2c3-3.2 4.6-4.6 4.7-4.6 0-.067.067-.067.2 0l4 2.5c.067.067.1.133.1.2s-.033.133-.1.2l-4.3.7 1.4.6c.067.067.1.133.1.2s-.033.1-.1.1l-5.8.4Zm4.6-4.5c-.4.3-1.9 1.6-4.2 4.1l4.6-.3-1.3-.5c-.133 0-.2-.033-.2-.1.067-.133.133-.2.2-.2l4.5-.8-3.6-2.2Z" clip-rule="evenodd"/>
  <path fill="#050505" d="M74.3 87.4s-1.7.6-3.2-.3c-1.5-.9 0-.2.9-.7 1-.4.5-1.2.5-1.2s.5-1.1.3-3c0 0-1.5-.6-2.8-1.2-1.2-.5-.7-1.5-.2-1.3.6.2-2.2-1.8-1.2-3.8 1-2.1 3.5-.8 3.5-.8l2.7 5.3-.5 7ZM63.5 74.3s-3.8 1-5.3 4.8c0 0 .5-2.8 1.5-4.1.9-1.3 2-2.3 2-2.3l1.8 1.6Z" opacity=".1" style="mix-blend-mode:multiply"/>
  <path fill="#ED3937" d="M78.6 77.6s-.4 2.8-2.5 4.2c0 0-1.9 1.3-3.5 0-1.5-1.2-2.3-5.8 2.5-8.1s5.1 2 3.5 3.9Z"/>
  <path fill="#050505" fill-rule="evenodd" d="M74.2 82.5c-.5 0-1.1-.1-1.7-.6-.9-.7-1.4-2.2-1.2-3.7.1-1.1.8-3.3 3.7-4.7 2.6-1.2 3.7-.5 4.2.1.8 1.1.5 3-.4 4.1-.1.4-.6 2.9-2.6 4.2 0 .1-.9.6-2 .6Zm3.3-9.3c-.666 0-1.433.2-2.3.6-2.8 1.4-3.4 3.4-3.5 4.5-.2 1.5.4 2.8 1 3.4.5.4 1 .5 1.5.5 1 0 1.8-.5 1.8-.5 2-1.4 2.4-4.1 2.4-4.1.067 0 .1-.033.1-.1.8-.9 1.1-2.7.4-3.7-.333-.4-.8-.6-1.4-.6Z" clip-rule="evenodd"/>
  <path fill="#ED3937" d="M61.6 70s-3.6 1.4-2.9 7.8c0 0 1.5-3.5 5.1-4.7L61.6 70Z"/>
  <path fill="#050505" fill-rule="evenodd" d="M58.7 78h-.1c-.067 0-.1-.067-.1-.2-.3-3.3.5-5.3 1.3-6.4.8-1.1 1.7-1.5 1.8-1.5.067-.067.133-.067.2 0l2.1 3.1c.067 0 .067.033 0 .1 0 .067-.033.1-.1.1-3.4 1.3-5 4.7-5 4.7 0 .067-.033.1-.1.1Zm2.9-7.7c-.3.1-.9.5-1.6 1.3-.6 1-1.4 2.7-1.2 5.6.6-1 2-3.2 4.7-4.2l-1.9-2.7Z" clip-rule="evenodd"/>
  <path fill="#050505" d="M77.8 72.6s1 1 .9 3.8c0 0-1.5-.2-3.2 1.4-1.6 1.5-3.2 3.1-3.7 2-.5-1.2-.4-1.3-.4-1.3s-4 .3-7.2-1c-3.3-1.3-5.6-2.4-5.4-3.7.3-1.3 1.3-3.2 1.3-3.2l17.7 2Z" opacity=".2" style="mix-blend-mode:multiply"/>
  <path fill="#B3805F" d="M81.7 68.7c-2.8 6.1-7.9 10.5-16.4 7.4-9.7-3.6-9-9.5-6.2-15.6 2.8-6 10-8.6 16.1-5.8 6.1 2.8 9.3 8 6.5 14Z"/>
  <path fill="#050505" fill-rule="evenodd" d="M70.6 77.3c-1.667 0-3.467-.333-5.4-1-4-1.5-6.5-3.5-7.5-6-.6-1.4-.7-3-.4-4.8.2-1.5.8-3.1 1.6-5 1.4-3 3.9-5.3 6.9-6.4 3.1-1.1 6.5-1 9.4.4 3.2 1.5 5.5 3.5 6.7 5.9 1.3 2.6 1.3 5.5-.1 8.4-1.5 3.4-3.6 5.8-6.1 7.2-1.533.867-3.233 1.3-5.1 1.3Zm-.5-23.6c-4.5 0-8.8 2.6-10.8 6.9-1.9 4.1-2.3 7.1-1.3 9.5 1 2.5 3.4 4.4 7.4 5.8 9 3.4 13.7-2.1 16.1-7.3 1.3-2.8 1.4-5.6.1-8-1.2-2.4-3.4-4.3-6.5-5.8-1.6-.7-3.3-1.1-5-1.1Z" clip-rule="evenodd"/>
  <path fill="#050505" d="m80.3 57.9-1.6-.1s-7.2.6-5.2 3.8c1.9 3.3 1.6 4.5 1.3 5.4-.2 1-1.6.3-1.6.3 4.5 3.8 1.7 7.9-2.5 8.6-3 .5-6.7-.6-8.1-1.1.733.4 1.567.8 2.5 1.2 8.3 3.7 14-1.6 16.8-7.6 1.8-4 1-7.7-1.6-10.5Z" opacity=".1" style="mix-blend-mode:multiply"/>
  <path fill="#050505" d="M81.3 70.7s2.2-.1-.2 2.8C79.8 75 77 76.2 77 76.2l4.3-5.5ZM64.2 54.4s-4.4.9-7 4.7c-.1.2 1.4-1.1 3.5-1.9m20.9.5s5.6 5.3 1.8 12.5c0 0 .7-5.2-1.8-12.5Z"/>
  <path fill="#050505" d="M77.3 62.7c-.2-.1-1.8 7.1 1.2 8.9 1.7-2.2 1.3-5.1 1.3-5.1.5 2.5-.3 4.7-.8 5.3.5.4 1.9 1.1 2.9 1.3 0 0 7.5-12.5-6.7-19.2 0 0-8.2-4.7-17.3 5.3 0 0 0 .5.6 1.7.5.9 3.7-4.2 4.4-3.5"/>
  <path fill="#050505" d="M73.6 53.3c-1.4-.5-7-2.5-14.2 2.5 0 0 15.6-2 14.2-2.5Z"/>
  <path fill="#050505" d="M64.9 53.1s12.3-4.5 17.9 6.3c5.7 10.9-17.9-6.3-17.9-6.3Zm17.4 19.1s-1 2.4-3 3.7c-2 1.2-2.4 1.2-2.4 1.2s1.1-.7 2.6-3.7"/>
  <path fill="#050505" d="M74.4 54s-6.2-2.6-15.4 4.5c0 0-.1 0 .2.8.3.5.3.5.8.9.8-1 1.6-1.3 4.9-2.2 0 0-3.5 1-4.1 2.7 5.4 3.4 11 1.4 11 1.4-.2-.1-1.7 2.8 2 3.5 1.9-1.5 2.6-3.7 2.6-3.7 0 1.7-.6 2.8-1.7 3.9.4.2 1.7.3 2.5.3 0 0 8.3-8.6-2.8-12.1Z"/>
  <path fill="#050505" d="m78.3 62.3-3 6.4s5.1 4.3-1.8 8.1l6.7-2s5.2-5.3 3.1-11.8c-2-6.6-3.6-3.2-3.6-3.2l-1.4 2.5Zm2.9-4.5s-1-2.8-2.6-4.2c-1.6-1.3-1.8-1.1-1.8-1.1s2.4 1.4 2.9 4.7"/>
  <path fill="#050505" d="M83.3 60.4s-1-1.5.7-2c0 0-1.1-.6-1.5-.1.1-.8.1-2.3-1.9-3.8 0 0 .7 1.9-.7 1.6m-8 7.8c-.067 0-.1-.033-.1-.1-.1-.3-1.3-.5-2.3-.6h-.1c-.1 0-.1-.1-.1-.2s.1-.1.2-.1c.5 0 2.4.2 2.6.8.1.1 0 .2-.1.2h-.1Zm-1.6 2c-.2.5-.7.9-1.1.8-.4-.1-.5-.6-.3-1.2s.7-1 1.1-.9c.4.1.6.7.3 1.3Z"/>
  <path fill="#FEFEFE" d="m69.9 65-.2.2c-.1-.1-.2-.2-.1-.3 0-.1.1-.1.2-.1s.1.1.1.2Z"/>
  <path fill="#050505" d="M61.5 62.8c-.2.6-.6 1-1 1s-.6-.5-.5-1c.2-.6.6-1 1-1s.6.5.5 1Z"/>
  <path fill="#FEFEFE" d="M61 62.1c0 .1-.1.2-.2.2s-.1-.1-.1-.2.1-.2.2-.2.1.1.1.2Z"/>
  <path fill="#9A724F" d="M65 66.6s-.9.8-1.7.5c-.9-.2-1-1.4-1-1.4s.8.8 1.2.9c.4.1 1.5 0 1.5 0Z"/>
  <path fill="#050505" d="M63.4 66.8c-.2-.1-.5-.2-.6-.3l-.5-.6c0-.1 0-.2.1-.2.1-.1.2-.1.2 0l.5.5c.1.1.4.2.6.2l1.2-.1c.1 0 .2.1.2.2s0 .2-.2.2l-1.2.1h-.3Zm2.8 3.4s-1.9.2-2.8 0c-.9-.2-.8 1.6.3 2.5.8.6 2.3 1.9 5.5 1.3 3.2-.6 3.8-3.8 2.4-4.7-1.5-1.1-3.4.4-5.4.9Z"/>
  <path fill="#050505" d="M72 73.6s-1 1.3-3.3 1.2c0 0 2.3 1.1 3.3-1.2Z" opacity=".1" style="mix-blend-mode:multiply"/>
  <path fill="#B3805F" d="M84.1 73.6s2-.8 2.3-2.4c.3-1.5-2.2-3.6-3.5-2.2-1.2 1.3-1.3 2.4-1 2.8.3.3 2.2 1.8 2.2 1.8Z"/>
  <path fill="#050505" fill-rule="evenodd" d="M84.1 73.8H84c-.1-.1-1.9-1.5-2.2-1.9-.4-.5-.2-1.7.9-3 .6-.6 1.4-.7 2.3-.3.9.5 1.8 1.6 1.6 2.7-.4 1.6-2.3 2.4-2.4 2.5h-.1Zm-.2-5.1c-.3 0-.6.1-.9.4-1.1 1.2-1.2 2.2-1 2.5.3.3 1.6 1.4 2.2 1.8.3-.2 1.7-1 2-2.2.2-.9-.5-1.8-1.4-2.2-.1-.1-.5-.3-.9-.3Z" clip-rule="evenodd"/>
  <path fill="#050505" d="M83.3 70.4s1 .4 1.1-.2c.1-.6.3-.4.3-.4s.3.5-.1 1.1c-.4.6-1.5.1-1.3-.5Z" opacity=".1" style="mix-blend-mode:multiply"/>
  <path fill="#F1F1F1" d="M74.9 79.7c-1-2.2.7-4.8.7-4.8l6-4.9 3.5 3.9-6.5 5.3s-2.6 2.8-3.7.5Z"/>
  <path fill="#050505" fill-rule="evenodd" d="M76.1 80.8h-.2c-.467-.133-.833-.467-1.1-1-1.1-2.3.6-4.9.7-5l5.9-4.9c.1-.1.2 0 .3 0l3.5 3.9.1.1c0 .067-.033.133-.1.2l-6.5 5.2c-.1.2-1.4 1.5-2.6 1.5Zm-1-1.2c.2.466.467.733.8.8 1.1.2 2.5-1.3 2.6-1.3l6.3-5.2-3.3-3.6-5.8 4.7c-.1.3-1.6 2.6-.6 4.6Z" clip-rule="evenodd"/>
  <path fill="#050505" d="M82.7 72.8 81 70.6l-5.2 4.3s-1.6 3.8-.9 5c.7 1.2 2.1.5 3.7-.9 1.5-1.5-1.3-1.5-.3-3.1 1-1.7 2.8-2.6 2.8-2.6s.8 1.3 1.3.9c.6-.3.9-.8.3-1.4Z" opacity=".1" style="mix-blend-mode:multiply"/>
  <path fill="#050505" d="M19 67c0 1.2 1 2.2 2.2 2.2 1.2 0 2.1-1 2.1-2.2 0-1.2-.9-2.1-2.1-2.1-1.2 0-2.2.9-2.2 2.1Zm19.2.4c0 1.1.9 2 2 2s2-.9 2-2-.9-2-2-2-2 .9-2 2Z"/>
  <path fill="#050505" d="M14.6 64.9c0 1.6 1.3 2.9 2.9 2.9 1.6 0 2.9-1.3 2.9-2.9 0-1.6-1.3-2.9-2.9-2.9-1.6 0-2.9 1.2-2.9 2.9Zm26.6-1.2c-.6 1.6.1 3.4 1.5 3.9 1.5.6 3.2-.3 3.8-1.9.6-1.7-.1-3.4-1.6-4-1.4-.5-3.1.4-3.7 2Z"/>
  <path fill="#050505" d="M14.8 56.9c0 7.4 7.1 13.3 15.8 13.3 8.7 0 15.7-5.9 15.7-13.3.1-7.4-7-13.4-15.7-13.4s-15.8 6-15.8 13.4Z"/>
  <path fill="#3F1D13" d="M40.2 69c-.5 0-1-.2-1.3-.7l.3-.2c.2.3.6.5 1 .5.267 0 .533-.1.8-.3.2-.2.4-.5.5-.8 0-.3-.1-.7-.3-.9l.3-.3c.3.4.4.8.3 1.2 0 .5-.2.9-.6 1.2-.333.2-.667.3-1 .3Zm3.4-1.9c-.467 0-.9-.1-1.3-.3l.2-.4c.5.3 1.1.4 1.7.3.5-.2 1-.5 1.3-1 .5-1 .2-2.3-.8-2.9l.2-.4c1.2.8 1.6 2.3.9 3.5-.3.6-.9 1-1.5 1.1-.267.067-.5.1-.7.1Zm-26.4-.2c-.467 0-.933-.133-1.4-.4l.2-.4c.4.266.8.4 1.2.4.7 0 1.3-.4 1.7-1 .3-.4.3-.9.2-1.5-.1-.5-.5-1-1-1.3l.2-.3c.6.3 1 .9 1.2 1.6.2.6.1 1.2-.3 1.7-.4.7-1.2 1.2-2 1.2Zm4.2 1.8c-.8 0-1.6-.6-1.7-1.4l.3-.1c.2.7.9 1.2 1.7 1.1v.3c-.066.066-.166.1-.3.1Z"/>
  <path fill="#803531" d="M25.9 88.4s-1.1-1.7-.8-3.4c.2-1.6 1.2-2.7 1.5-3.1.9-1.1 2-.9 2.7-.3.7.6 1 1.3 0 2.4-1 1.6-1.4 1.8-.4 3.3.8 1.3-2 3.2-3 1.1Z"/>
  <path fill="#050505" fill-rule="evenodd" d="M27.2 89.5c-.6 0-1.1-.4-1.4-1 0 0-.3-.5-.5-1.1-.3-.6-.5-1.5-.4-2.4.3-1.6 1.2-2.8 1.6-3.2.5-.5 1-.8 1.5-.8.5-.1 1 .1 1.4.5.4.333.633.7.7 1.1.067.466-.133.966-.6 1.5a1.164 1.164 0 0 1-.2.3c-.5.6-.8 1-.8 1.4-.1.4.1.7.5 1.4.2.4.2.8 0 1.2-.3.7-1.1 1.1-1.8 1.1Zm.9-8.2H28c-.467 0-.9.233-1.3.7-.3.4-1.3 1.5-1.5 3-.1.8.1 1.7.3 2.3.3.6.5 1.1.5 1.1.4.6.9.8 1.2.8.6 0 1.3-.4 1.6-.9.1-.2.2-.6 0-.9-.5-.8-.7-1.2-.6-1.6.1-.5.4-.9.8-1.6l.2-.2v-.1c.467-.467.667-.9.6-1.3 0-.267-.2-.567-.6-.9-.3-.3-.7-.4-1.1-.4Z" clip-rule="evenodd"/>
  <path fill="#050505" d="M28.1 87.7s-.9-1.4-.5-2.3c.4-1.1-2.6-.7-2.2-1.5.3-.9 1-1.8 1.2-2 .9-1.1 2-.9 2.7-.3.7.6 1 1.3 0 2.4-1 1.6-1.4 1.8-.4 3.3.2.4-.1 1.7-.8.4Z" opacity=".4"/>
  <path fill="#EE4763" d="M29.9 88.7v.2l-5.5 1.8c-.067 0-.133-.034-.2-.1v-.2c-.067-.067-.067-.134 0-.2l5.5-1.8c.067 0 .1.033.1.1l.1.2Z"/>
  <path fill="#050505" fill-rule="evenodd" d="m24.3 90.9-.1-.1c-.067 0-.1-.033-.1-.1l-.1-.3v-.2c.067-.067.133-.1.2-.1l5.5-1.8c.067-.067.1-.067.1 0 .067 0 .133.033.2.1l.1.3c0 .067-.033.133-.1.2 0 .067-.033.1-.1.1l-5.5 1.8c0 .067-.033.1-.1.1Zm0-.5.1.2 5.4-1.9-.1-.2-5.4 1.9Z" clip-rule="evenodd"/>
  <path fill="#EE4763" d="M26.4 87s-.2-.6-.7-.5c-.2.1-.8.3-1 .4-.3.1.1.4.2.6.2.2.4.5.3.8l-.3 1 .8.1.9-1.5-.2-.9Z"/>
  <path fill="#050505" fill-rule="evenodd" d="M25.7 89.5h-.1l-.7-.1h-.1c-.067-.067-.067-.1 0-.1l.2-1c.1-.2-.1-.6-.2-.7 0-.067-.033-.1-.1-.1-.1-.2-.3-.4-.2-.6 0 0 0-.1.2-.2.067 0 .133-.034.2-.1.3-.1.6-.2.8-.2.4-.2.7.3.8.6l.3.8c0 .067-.033.1-.1.1l-.9 1.5-.1.1Zm-.6-.3h.5l.9-1.4-.2-.8c-.1 0-.2-.4-.5-.3-.2 0-.5.1-.8.2-.067.067-.133.1-.2.1h-.1c0 .1.2.2.2.3.067 0 .1.033.1.1.2.2.4.6.3 1l-.2.8Z" clip-rule="evenodd"/>
  <path fill="#F69226" d="M29.7 88.4s-.3-1-.4-1.3c-.1-.3-.3-.4-.6-.3-.3.1-.5.5-1.3.4-.6 0-.7-.2-1-.2-.3 0-.3.1-.3.4l.1.6-.8 1.3.2.5 4.1-1.4Z"/>
  <path fill="#050505" fill-rule="evenodd" d="M25.6 89.9c-.067 0-.1-.034-.1-.1l-.2-.4v-.2L26 88v-.6c0-.2 0-.3.1-.5.1-.1.2-.1.3 0h.4c.1.1.3.1.7.2.4 0 .6-.1.8-.2.133-.067.233-.134.3-.2.4-.1.7 0 .8.4l.4 1.2c.067.066.067.133 0 .2h-.1l-4.1 1.4Zm0-.6.1.3 3.8-1.3-.4-1.1c-.067-.2-.2-.267-.4-.2-.067 0-.133.033-.2.1-.2.1-.5.3-1.1.3-.3-.1-.5-.1-.7-.2-.133 0-.233-.034-.3-.1-.067 0-.1.033-.1.1v.9l-.7 1.2Z" clip-rule="evenodd"/>
  <path fill="#FEFEFE" d="M24.2 90.2c0-.2.5-.8.7-.9.6-.2 1.3.3 1.3.3l-2 .6Z"/>
  <path fill="#050505" fill-rule="evenodd" d="m24.2 90.4-.1-.1c-.1-.2.1-.5.2-.7.1-.1.3-.4.6-.4.7-.3 1.3.2 1.3.3.067 0 .1.033.1.1 0 .066-.033.1-.1.1l-1.9.7h-.1Zm1-1h-.3c0 .1-.2.2-.3.4l-.2.2 1.4-.5c-.1 0-.3-.1-.6-.1Z" clip-rule="evenodd"/>
  <path fill="#050505" d="M25.1 88.3c-.067 0-.1-.034-.1-.1-.067 0-.067-.034 0-.1.3-.3 1.2-.4 1.6-.1v.1c-.067.066-.133.066-.2 0-.3-.2-1 0-1.3.2Z"/>
  <path fill="#050505" d="M25 88.7h-.1c-.067-.067-.067-.133 0-.2.2-.2 1-.4 1.4-.1.067.067.067.133 0 .2h-.1c-.4-.2-1-.1-1.2.1Z"/>
  <path fill="#050505" d="M24.8 89.1h-.1c0-.067.033-.133.1-.2.2-.2.8-.3 1.2-.1.067.067.067.133 0 .2 0 .067-.033.067-.1 0-.3-.2-.8 0-1 .1h-.1Z"/>
  <path fill="#EE4763" d="M27.7 87.8c-.4.2-.7.3-.9.6l-.6 1.2.6-.2.5-.8c.067-.134.233-.267.5-.4.2 0 1.7-.5 1.7-.5l-.2-.4s-1.4.5-1.6.5Z"/>
  <path fill="#050505" fill-rule="evenodd" d="M26.2 89.7h-.1c-.067-.067-.067-.133 0-.2l.7-1.1c.2-.4.4-.5.9-.7l1.6-.5c0-.067.033-.067.1 0l.2.5c0 .067-.033.1-.1.1l-1.6.6c-.333.067-.5.167-.5.3l-.5.7v.1l-.7.2Zm1.5-1.8c-.4.2-.6.3-.8.6l-.5.9.4-.1.4-.7c.067-.2.267-.367.6-.5l1.5-.5-.1-.2-1.5.5Z" clip-rule="evenodd"/>
  <path fill="#803531" d="M36.7 89.3s-.4-4-.4-5.1c0-1.3-.9-1.9-1.9-1.9-.9 0-1.6.5-1.6 2s.3 5 .3 5c0 2.2 3.8 2.2 3.6 0Z"/>
  <path fill="#050505" fill-rule="evenodd" d="M35 91.1c-.4 0-.767-.067-1.1-.2-.6-.4-.9-.9-.9-1.6 0-.1-.3-3.6-.3-5 0-.733.167-1.3.5-1.7.267-.334.667-.5 1.2-.5.6 0 1.1.2 1.4.5.4.4.6 1 .6 1.6 0 1.1.4 5.1.4 5.1.1.6-.1 1.2-.6 1.5-.4.2-.8.3-1.2.3Zm-.6-8.7c-.4 0-.733.133-1 .4-.267.333-.4.833-.4 1.5 0 1.4.3 5 .3 5 0 .6.2 1 .7 1.3.6.3 1.5.3 2 0 .3-.2.6-.6.6-1.3-.1-.2-.5-4-.5-5.1 0-1.3-.9-1.8-1.7-1.8Z" clip-rule="evenodd"/>
  <path fill="#050505" d="M34.1 89.2c.2 1.2 2 1.8 1 1.7-1 0-2-.5-2-1.6 0 0-.3-3.5-.3-5s.7-2 1.6-2c1 0 1.9.6 1.9 1.9 0 1.1-2.3.7-2.3 1.7 0 .4-.1 2.5.1 3.3Z" opacity=".4"/>
  <path fill="#803531" d="M36.7 89.3c.2.4.4 1.3 1.7 1.8h-5.3v-1.8"/>
  <path fill="#050505" d="M38.4 91.2H33v-1.9c0-.1 0-.1.1-.1s.2.1.2.1v1.6h4.5c-.8-.5-1.1-1.1-1.2-1.5-.1-.1 0-.2 0-.2.1-.1.2 0 .2.1h.1c.1.4.4 1.2 1.5 1.6.067.066.1.133.1.2 0 .066-.033.1-.1.1Z"/>
  <path fill="#050505" d="M34.1 89.3c0 .7 0 1.3 1.2 1.8h-2.2v-1.8" opacity=".4"/>
  <path fill="#EE4963" d="M32.7 91c0 .067.033.1.1.1h5.8c.067 0 .1-.033.1-.1v-.3c0-.067-.033-.1-.1-.1h-5.8c-.067 0-.1.033-.1.1v.3Z"/>
  <path fill="#050505" fill-rule="evenodd" d="M38.6 91.3h-5.8c-.1 0-.3-.1-.3-.3v-.3c0-.1.2-.2.3-.2h5.8c.1 0 .2.1.2.2v.3c0 .2-.1.3-.2.3Zm-5.8-.3h5.7v-.2h-5.7v.2Z" clip-rule="evenodd"/>
  <path fill="#EE4963" d="M35.5 88.3s0-.7.5-.7h1c.4 0 .1.4 0 .6-.1.3-.1.7.1.9l.5.9-.7.3-1.4-1.2v-.8Z"/>
  <path fill="#050505" fill-rule="evenodd" d="M36.9 90.4h-.1l-1.3-1.2c-.067 0-.1-.034-.1-.1l-.1-.8v-.1c0-.2.2-.8.7-.8h1c.2 0 .3.1.3.2.1.1 0 .4-.1.6v.1c-.1.2-.2.5 0 .7l.5.9c.067 0 .1.033.1.1l-.1.1-.7.3h-.1Zm-1.2-1.3 1.2 1 .5-.2-.5-.7c-.2-.3-.1-.8 0-1 0-.067.033-.133.1-.2 0 0 .1-.2.1-.3H36c-.3 0-.4.5-.4.6l.1.8Z" clip-rule="evenodd"/>
  <path fill="#F69226" d="M32.8 90.6v-1.3c0-.3.2-.5.5-.5s.6.3 1.3 0c.5-.3.6-.4.9-.5.3-.2.3 0 .4.3l.1.6 1.1.9v.5h-4.3Z"/>
  <path fill="#050505" fill-rule="evenodd" d="M37.1 90.8h-4.3c-.1 0-.2-.1-.2-.2v-1.3c0-.4.3-.6.7-.6h.3c.2.1.5.1.9-.1.3-.1.5-.2.6-.3a1.15 1.15 0 0 1 .3-.2c.1 0 .2-.1.4 0 .1.1.1.2.2.4l.1.6 1.1.9.1.1v.5c0 .1-.1.2-.2.2Zm-4.2-.3H37v-.3l-1.1-.9v-.1l-.2-.6c0-.1 0-.2-.1-.2 0-.067-.033-.067-.1 0-.067 0-.133.033-.2.1-.2.1-.3.3-.7.4-.5.2-.8.2-1.1.1h-.2c-.267 0-.4.1-.4.3v1.2Z" clip-rule="evenodd"/>
  <path fill="#EE4963" d="M34.5 89.4c.5 0 .7.1 1 .3l1 .9h-.7l-.6-.5c-.133-.134-.367-.2-.7-.2h-1.7v-.5h1.7Z"/>
  <path fill="#050505" fill-rule="evenodd" d="M36.5 90.8h-.7l-.1-.1-.6-.5c-.1-.1-.2-.2-.6-.2h-1.7c-.1 0-.2 0-.2-.1v-.5c0-.1.1-.1.2-.1h1.7c.5 0 .8.1 1.1.3l1 .9c.067.067.1.133.1.2-.067.066-.133.1-.2.1Zm-.6-.3h.2l-.7-.7c-.2-.2-.5-.2-.9-.2h-1.6v.1h1.6c.4 0 .667.067.8.2l.6.6Z" clip-rule="evenodd"/>
  <path fill="#FEFEFE" d="M38.6 90.6c0-.2-.7-.6-1-.6-.6 0-1.1.6-1.1.6h2.1Z"/>
  <path fill="#050505" fill-rule="evenodd" d="M38.6 90.8h-2.1c-.067 0-.1-.034-.1-.1v-.2s.5-.7 1.2-.7c.3 0 .6.2.7.3.2.1.4.3.4.5 0 .1-.1.2-.1.2Zm-1.8-.3h1.5l-.2-.2c-.2-.1-.4-.2-.5-.2-.3 0-.6.2-.8.4Z" clip-rule="evenodd"/>
  <path fill="#050505" d="M35.7 89.4c-.067-.067-.1-.134-.1-.2.3-.4 1.2-.5 1.6-.4v.2c0 .067-.033.067-.1 0-.3 0-1 0-1.3.3 0 .066-.033.1-.1.1Z"/>
  <path fill="#050505" d="M36.1 89.7c-.067-.067-.1-.133-.1-.2.3-.4 1.1-.4 1.4-.3.067 0 .1.033.1.1-.067.066-.133.1-.2.1-.2-.1-.9 0-1.1.3h-.1Z"/>
  <path fill="#050505" d="M36.5 90.1V90c-.067 0-.1-.034-.1-.1.3-.4.9-.5 1.2-.4.067.067.1.133.1.2 0 .066-.033.1-.1.1-.2-.1-.7-.1-1 .2 0 .067-.033.1-.1.1Z"/>
  <path fill="#803531" d="M19 75.2c2.2 1.1 3.9 1.6 5.4 1 1.3-.6 2.1-1.7 2.7-3.5.9-2.6-2.8-3.8-3.6-1.2-.6 1.2-1 1.3-2.4.4-.6-.4-1.8-.4-2.5.8-.6 1.1-.1 2.2.4 2.5Z"/>
  <path fill="#050505" fill-rule="evenodd" d="M23.1 76.6c-.4 0-.8-.033-1.2-.1-.8-.2-1.7-.6-2.9-1.2-.3-.2-.6-.5-.7-1-.2-.5-.1-1.1.2-1.7.4-.7 1-.9 1.4-1 .4-.1.9-.1 1.2.2.8.4 1.2.6 1.5.5.3 0 .5-.3.7-.8.2-.466.433-.833.7-1.1.267-.2.567-.367.9-.5.7-.1 1.5.1 2 .7.267.266.433.567.5.9.067.4.033.833-.1 1.3-.8 1.9-1.6 3-2.9 3.5-.4.2-.833.3-1.3.3Zm-2.8-4.8a.887.887 0 0 0-.4.1c-.3.1-.8.3-1.1.9-.3.4-.4 1-.2 1.4.1.5.3.7.5.8 1.7.9 2.9 1.3 3.9 1.3a4.1 4.1 0 0 0 1.3-.2c1.2-.5 2-1.6 2.7-3.4.2-.8.1-1.4-.3-1.9s-1.1-.7-1.7-.6c-.7.2-1.2.6-1.4 1.4-.3.5-.5.9-.9 1-.5.1-1-.1-1.7-.6-.2-.1-.4-.2-.7-.2Z" clip-rule="evenodd"/>
  <path fill="#050505" d="M19 75.2c2.2 1.1 3.9 1.6 5.4 1 1.3-.6 2.1-1.7 2.7-3.5.9-2.6-2.8-3.8-3.6-1.2.5-1.3 3.3-.9 2.6 1-.2.6-1.2 2.5-2.1 2.8-.8.3-2.3.1-3.5-.4-.6-.2-1.6.2-1.5.3Z" opacity=".4"/>
  <path fill="#803531" d="M43 67.2c0 2.5-.4 4.3-1.6 5.2-1.1.9-2.5 1.1-4.4.8-2.7-.5-2-4.3.7-3.8 1.3.1 1.6-.3 1.4-1.9 0-.7.6-1.7 1.9-1.8 1.3 0 2 1 2 1.5Z"/>
  <path fill="#050505" fill-rule="evenodd" d="M38.4 73.5c-.4 0-.867-.033-1.4-.1-.7-.2-1.2-.5-1.5-1-.3-.4-.4-.9-.3-1.5.1-.5.3-1 .8-1.3.4-.3 1-.4 1.7-.3.6 0 .9-.1 1.1-.3.2-.2.3-.6.2-1.5 0-.4.1-.9.5-1.2.2-.3.7-.7 1.5-.7.6 0 1.2.2 1.6.6.3.3.5.7.5 1 0 1.4-.1 2.4-.3 3.2-.267.933-.7 1.633-1.3 2.1-.8.7-1.8 1-3.1 1Zm-1.4-.4c.533.066 1 .1 1.4.1 1.3 0 2.2-.3 2.9-.9 1.1-.8 1.5-2.3 1.6-5.1 0-.2-.2-.5-.5-.8-.3-.4-.8-.6-1.4-.5-.7 0-1.1.3-1.3.6-.3.3-.4.7-.4.9.1.9 0 1.5-.3 1.8-.3.3-.7.4-1.3.4-1.3-.3-2.1.5-2.3 1.4-.1.8.3 1.8 1.6 2.1Z" clip-rule="evenodd"/>
  <path fill="#050505" d="M43 67.2c0 2.5-.4 4.3-1.6 5.2-1.1.9-2.5 1.1-4.4.8-2.7-.5-2-4.3.7-3.8-.5.8-1.2 2.5.8 2.7.6.1 1.6.2 2.3-.5.6-.5 1.2-1.9 1.3-3.2.1-.6.9-1.4.9-1.2Z" opacity=".4"/>
  <path fill="#F69226" d="M31.6 83c6.1-.5 6.2-1.7 6.4-4.2 0-2-1.1-7.1-1.7-8.7-.9-2.6-3-3.4-6-3.2-2.9.2-4.9 1.4-5.4 4.1-.3 1.6-.6 6.9-.2 8.9.2.7 1.2 3.6 6.9 3.1Z"/>
  <path fill="#050505" fill-rule="evenodd" d="M30.5 83.2c-.867 0-1.667-.067-2.4-.2-.8-.2-1.5-.533-2.1-1-1.1-.8-1.4-1.8-1.4-2.1-.4-2-.1-7.4.2-8.9.4-2.6 2.2-4 5.5-4.2 3.3-.3 5.3.8 6.2 3.2.5 1.5 1.7 6.8 1.6 8.8 0 .7-.1 1.2-.2 1.7s-.4.9-.8 1.3c-.9.7-2.5 1.1-5.5 1.4h-1.1Zm1.1-.3c1.5-.1 2.7-.3 3.5-.5.8-.2 1.4-.467 1.8-.8.8-.7.8-1.5.9-2.8 0-.9-.2-2.5-.6-4.5-.3-1.6-.7-3.4-1-4.2-.8-2.3-2.7-3.3-5.9-3.1-3.1.3-4.8 1.6-5.2 4-.2.9-.3 2.6-.4 4.3-.1 2.1 0 3.7.2 4.5 0 .3.3 1.2 1.3 2 1.2.933 3 1.3 5.4 1.1Z" clip-rule="evenodd"/>
  <path fill="#EE4963" d="M34.9 74.7c.4-2 .9-4.4.2-7.1l-1.5.4c.7 2.4.2 4.6-.2 6.3l1.5.4Z"/>
  <path fill="#050505" fill-rule="evenodd" d="M34.9 74.8h-.1l-1.4-.3c-.1 0-.2-.1-.2-.2h.1c.3-1.8.8-3.9.2-6.3 0-.1 0-.2.1-.2l1.5-.4h.1v.1c.4 1.3.5 2.5.4 3.9-.1 1.2-.3 2.2-.6 3.3 0 .066-.033.1-.1.1Zm-1.3-.6 1.2.3c.4-1.8.9-4.2.2-6.8l-1.2.4c.6 2.3.1 4.4-.2 6.1Z" clip-rule="evenodd"/>
  <path fill="#EE4763" d="m31.6 83.1.8 1.8c4.8-.5 6.4-1.3 6.4-1.3s-.3-2.9-.6-4.9c-.3.2-1.7.5-1.7.5l-2-4.9s-2 .7-3.5.8c-1.5.2-3.6-.2-3.6-.2l-1.2 5.2s-1.4-.1-1.7-.3c0 2-.2 3.9-.2 3.9s1.6.9 6.3 1.6l1-2.2Z"/>
  <path fill="#050505" fill-rule="evenodd" d="M30.6 85.4c-2.5-.3-4.1-.7-5-1-1-.3-1.4-.5-1.4-.6-.067 0-.1-.034-.1-.1 0 0 .2-1.9.2-3.9l.1-.1h.1c.3.1 1.2.2 1.6.2l1.1-5c.067-.067.133-.1.2-.1 0 0 2.1.3 3.6.2 1.4-.1 3.5-.8 3.5-.8.067 0 .133.033.2.1l1.9 4.8c.4-.1 1.3-.4 1.5-.5h.1c.067 0 .1.033.1.1.4 2 .6 4.8.6 4.8v.2c-.1 0-.5.2-1.5.5-.9.2-2.5.6-5 .9-.067 0-.1-.033-.1-.1l-.7-1.5-.9 1.8c0 .067-.033.1-.1.1Zm-6.2-1.8c.2.1.6.3 1.3.5.9.3 2.4.7 4.8 1l1-2 .1-.1c.067 0 .133.033.2.1l.7 1.7c2.4-.3 3.9-.6 4.8-.9.8-.2 1.2-.4 1.3-.4 0-.5-.2-2.8-.5-4.6-.5.2-1.5.5-1.6.5-.067 0-.1-.034-.1-.1l-1.9-4.8c-.5.2-2.2.7-3.5.8-1.3.1-3-.1-3.5-.2l-1.1 5c-.067.066-.133.1-.2.1-.1 0-1.1-.1-1.6-.2 0 1.7-.1 3.2-.2 3.6Z" clip-rule="evenodd"/>
  <path fill="#050505" d="m31.6 83.1.8 1.8c.334 0 .633-.034.9-.1 0 0-1-2.2-1.7-2.1-.7 0-1.9 2.4-1.9 2.4.267.066.567.133.9.2l1-2.2Zm-7.1-3.3c0 2-.2 3.9-.2 3.9s.4.3 1.5.6c-.5-.7-.7-1.5-.5-4.4l-.8-.1Z" opacity=".4"/>
  <path fill="#6ECFF5" d="M30.5 84.8h-.1c-.133-.067-.3-.1-.5-.1-.067-.067-.1-.133-.1-.2s.067-.1.2-.1c.133.067.3.1.5.1.067.067.1.133.1.2l-.1.1Zm-1.1-.3c-.2 0-.4-.033-.6-.1-.067 0-.1-.033-.1-.1.067-.067.133-.1.2-.1.133.067.3.1.5.1.067.067.1.133.1.2h-.1Zm-1.1-.2c-.2 0-.367-.033-.5-.1-.067 0-.1-.034-.1-.1 0-.067.033-.1.1-.1.2 0 .367.033.5.1.067 0 .1.033.1.1s-.033.1-.1.1Zm-1-.2h-.1a3.887 3.887 0 0 0-.5-.2c-.067 0-.1-.033-.1-.1.067-.067.133-.1.2-.1.133.067.3.133.5.2.067 0 .1.033.1.1l-.1.1Zm-1.1-.3-.6-.2c-.067 0-.067-.033 0-.1 0-.067.033-.1.1-.1.2.067.367.133.5.2.067 0 .1.033.1.1s-.033.1-.1.1Zm-1-.3h-.1l-.5-.2c-.067-.067-.1-.133-.1-.2.067-.067.133-.067.2 0l.5.2c.067 0 .1.033.1.1l-.1.1Z"/>
  <path fill="#050505" d="M38.2 78.7c.3 2 .6 4.9.6 4.9s-.5.2-1.6.5c.5-.7.9-2.3.2-5.1l.8-.3Z" opacity=".4"/>
  <path fill="#6ECFF5" d="M32.6 84.4c-.067 0-.133-.034-.2-.1 0-.067.034-.1.1-.1.2-.067.4-.1.6-.1.067 0 .1.033.1.1 0 .066-.033.1-.1.1-.2.067-.367.1-.5.1Zm1-.2c-.067 0-.1-.034-.1-.1 0-.067.033-.1.1-.1.2 0 .4-.033.6-.1.067 0 .1.033.1.1s-.033.1-.1.1c-.2.066-.367.1-.5.1h-.1Zm1.1-.2h-.1c0-.067.033-.133.1-.2.2 0 .367-.034.5-.1.067 0 .133.033.2.1 0 .067-.033.1-.1.1-.2.067-.4.1-.6.1Zm1.1-.2c-.066 0-.1-.034-.1-.1 0-.067.033-.1.1-.1.134-.067.3-.1.5-.1.067 0 .1.033.1.1 0 .066-.033.1-.1.1-.133.066-.3.1-.5.1Zm1.1-.2c-.066 0-.133-.033-.2-.1 0-.067.033-.1.1-.1.2-.067.367-.134.5-.2.134 0 .2.033.2.1s-.033.1-.1.1a3.86 3.86 0 0 1-.5.2Zm1-.3c-.066 0-.1-.034-.1-.1 0-.067.034-.1.1-.1l.5-.2c.067 0 .1.033.1.1.067.067.067.1 0 .1l-.6.2Z"/>
  <path fill="#803531" d="M34.1 68.7c.2 2-1.3 3.7-3.3 3.9-2 .2-3.8-1.3-3.9-3.3-.2-2.1 1.3-3.8 3.3-4 2-.1 3.8 1.4 3.9 3.4Z"/>
  <path fill="#050505" fill-rule="evenodd" d="M30.5 72.8c-.9 0-1.8-.4-2.5-1s-1.2-1.5-1.3-2.5c-.1-1 .3-2 .9-2.8.7-.8 1.6-1.2 2.6-1.3 1-.1 2 .2 2.8.9.7.6 1.2 1.5 1.3 2.6.1 1-.3 1.9-.9 2.7-.7.8-1.6 1.3-2.6 1.3-.133.067-.233.1-.3.1Zm0-7.3h-.3c-1.9.1-3.3 1.8-3.2 3.7.2 2 1.9 3.4 3.8 3.2 1.9-.1 3.3-1.8 3.2-3.7-.2-1.8-1.7-3.2-3.5-3.2Z" clip-rule="evenodd"/>
  <path fill="#EE4963" d="M27.1 75.3c-.8-1.9-1.7-4.2-1.4-7l1.5.2c-.2 2.5.6 4.6 1.3 6.2l-1.4.6Z"/>
  <path fill="#050505" fill-rule="evenodd" d="m27.1 75.5-.1-.1c-.5-1.1-.8-2.1-1.1-3.2-.3-1.4-.4-2.6-.3-3.9 0-.1.1-.1.1-.1l1.6.1s.1.1.1.2c-.3 2.4.6 4.5 1.2 6.1v.1c.1.1 0 .1 0 .2l-1.4.5-.1.1Zm-1.2-7c-.3 2.7.6 4.9 1.3 6.6l1.1-.4c-.6-1.7-1.4-3.7-1.2-6.1l-1.2-.1Z" clip-rule="evenodd"/>
  <path fill="#6ECFF5" d="M26.8 75.1c.1.5.5.9 1.1.9.5-.1.9-.5.9-1.1-.1-.5-.5-.9-1.1-.8-.5 0-.9.5-.9 1Z"/>
  <path fill="#050505" fill-rule="evenodd" d="M27.8 76.1c-.267 0-.5-.067-.7-.2a.951.951 0 0 1-.4-.8c0-.267.1-.533.3-.8.2-.2.433-.333.7-.4.6 0 1.2.4 1.2 1 .1.6-.4 1.2-1 1.2h-.1Zm0-1.9h-.1c-.2 0-.366.1-.5.3-.133.133-.2.333-.2.6 0 .4.4.8.9.7.4 0 .8-.4.7-.8 0-.5-.4-.8-.8-.8Z" clip-rule="evenodd"/>
  <path fill="#6ECFF5" d="M35.1 74.4c0 .6-.4 1-.9 1.1-.5 0-1-.4-1-.9-.1-.5.3-1 .8-1.1.6 0 1 .4 1.1.9Z"/>
  <path fill="#050505" fill-rule="evenodd" d="M34.1 75.6c-.5 0-1-.4-1.1-1 0-.6.4-1.1 1-1.2.333 0 .6.1.8.3.267.2.4.433.4.7.1.6-.4 1.2-1 1.2h-.1Zm0-1.9c-.5 0-.8.4-.8.9 0 .4.4.8.9.7.4 0 .8-.4.7-.9a.68.68 0 0 0-.2-.5c-.2-.133-.4-.2-.6-.2Z" clip-rule="evenodd"/>
  <path fill="#050505" d="M34.9 75.1c-.4.4-1 .5-1.4.1 0 0 .7.1 1-.3.4-.4.3-1.1.3-1.1.4.3.4.9.1 1.3Zm-7.7.7c.4.3 1 .3 1.3-.2 0 0-.6.2-1.1-.2-.4-.3-.3-1-.3-1-.4.4-.3 1 .1 1.4Z" opacity=".4"/>
  <path fill="#6ECFF5" d="M27.3 80.4v-.1H27c-.067-.067-.1-.134-.1-.2l.1-.2c0-.067.034-.1.1-.1.067 0 .1.033.1.1v.2h.1c.067.066.1.133.1.2l-.1.1Zm0-1h-.1c-.067 0-.1-.034-.1-.1l.2-.7c0-.067.033-.1.1-.1.067.067.1.133.1.2l-.1.6-.1.1Zm.2-1.3c-.067 0-.1-.033-.1-.1l.2-.6c0-.067.033-.1.1-.1s.1.033.1.1l-.1.7h-.2Zm.3-1.2c-.067 0-.1-.034-.1-.1l.1-.3c0-.067.034-.1.1-.1h.3c.067 0 .1.033.1.1s-.033.1-.1.1H28l-.1.2c0 .067-.033.1-.1.1Zm.9-.3c-.067 0-.1-.033-.1-.1s.033-.133.1-.2h.5c.067 0 .1.033.1.1s-.033.1-.1.1l-.5.1Zm1.1-.1c-.067 0-.133-.033-.2-.1 0-.067.033-.134.1-.2h.6c.067 0 .1.033.1.1s-.033.1-.1.1l-.5.1Zm1-.1c-.067 0-.1-.034-.1-.1 0-.067.033-.1.1-.1l.5-.1c.067 0 .133.033.2.1 0 .066-.033.1-.1.1l-.6.1Zm1.1-.1c-.067 0-.1-.034-.1-.1 0-.067.033-.1.1-.1l.5-.1c.067 0 .1.033.1.1 0 .066-.033.133-.1.2h-.5Zm1-.1c-.067 0-.1-.034-.1-.1 0-.067.033-.1.1-.1l.6-.1c.067 0 .1.066.1.2 0 .066-.033.1-.1.1h-.6Zm1.5.2c-.066 0-.1-.034-.1-.1l-.1-.2H34c-.066 0-.1-.033-.1-.1s.034-.1.1-.1h.3c.067 0 .1.033.1.1l.1.2c0 .066-.033.133-.1.2Zm.9 2.3h-.1l-.2-.6c0-.067.034-.133.1-.2.067 0 .1.033.1.1l.3.6c0 .066-.033.1-.1.1h-.1Zm-.4-1.1c-.066 0-.1-.033-.1-.1l-.3-.6c0-.067.034-.134.1-.2.067 0 .1.033.1.1l.3.6c0 .067-.033.1-.1.1v.1Zm.5 2.1-.1-.1c0-.067.033-.1.1-.1l.1-.1v-.3c.067 0 .133.033.2.1l.1.2c0 .067-.033.133-.1.2l-.2.1h-.1Zm-3.9 1.7-.3-.1c-.066 0-.1-.034-.1-.1 0-.067.034-.1.1-.1h.5c.067-.067.134-.067.2 0 0 .066-.033.133-.1.2l-.3.1Zm-.8-.2h-.1l-.5-.2c-.066 0-.1-.033-.1-.1s.034-.1.1-.1l.6.2c.067 0 .1.033.1.1l-.1.1Zm1.6-.2h-.1c-.066-.067-.066-.133 0-.2l.6-.2c.067 0 .1.033.1.1v.1l-.6.2Zm-2.8-.1-.5-.1c-.066-.067-.1-.134-.1-.2 0-.067.034-.1.1-.1l.6.2c.067 0 .1.033.1.1-.066.067-.133.1-.2.1Zm-1.1-.3-.6-.1c-.066 0-.066-.067 0-.2 0-.067.034-.067.1 0l.6.1c.067 0 .067.033 0 .1 0 .067-.033.1-.1.1Zm4.9 0-.1-.1c0-.067.034-.1.1-.1l.5-.2c.067-.067.134-.067.2 0 0 .066-.033.133-.1.2l-.5.2h-.1Zm1.1-.5h-.1c-.066-.067-.066-.133 0-.2l.6-.2c.067 0 .1.033.1.1.067.067.067.1 0 .1l-.6.2Z"/>
  <path fill="#050505" d="M30.7 72c1.8-.1 2.7-.5 3.7-1.2.9-.5 1.4-.1 1.7 1.1.4 1.4 1.6 6.4.9 6.6-.4.1-1.6-3.2-2.1-3.4l1.6 4.1 1.5-.4c0-2-1.1-7.1-1.7-8.7-.9-2.6-3-3.4-6-3.2-2.9.2-4.9 1.4-5.4 4.1-.3 1.6-.6 6.9-.2 8.9l1.5.2 1-4.3c-.5.2-1.2 3.7-1.6 3.6-.7 0-.3-5.2-.2-6.6.1-1.2.6-1.7 1.5-1.3 1.2.4 2.1.7 3.8.5Z" opacity=".4"/>
  <path fill="#803531" d="M41.7 59.7c0 6.3-3.2 11.1-11.1 11.4-7.8.4-11.2-5.1-11.2-11.4 0-6.3 5-11.4 11.2-11.4 6.1 0 11.1 5.1 11.1 11.4Z"/>
  <path fill="#050505" fill-rule="evenodd" d="M29.9 71.3c-1.467 0-2.767-.2-3.9-.6-1.333-.467-2.467-1.134-3.4-2-1.133-1.067-1.967-2.4-2.5-4-.533-1.534-.8-3.2-.8-5 0-1.534.3-3.034.9-4.5.533-1.334 1.333-2.534 2.4-3.6 1-1.067 2.2-1.9 3.6-2.5 1.4-.6 2.867-.9 4.4-.9 1.533 0 3 .3 4.4.9a12.06 12.06 0 0 1 3.6 2.5c1 1.066 1.8 2.266 2.4 3.6.6 1.466.9 2.966.9 4.5 0 1.666-.233 3.166-.7 4.5a9.601 9.601 0 0 1-2 3.6c-.933 1-2.1 1.8-3.5 2.4-1.467.666-3.167 1.033-5.1 1.1h-.7Zm.7-22.8c-3 0-5.7 1.2-7.8 3.3-2.1 2.1-3.2 4.9-3.2 7.9 0 3.7 1.1 6.8 3.2 8.7 1.9 1.9 4.5 2.7 7.8 2.6 7.1-.3 11-4.3 11-11.3 0-6.2-5-11.2-11-11.2Z" clip-rule="evenodd"/>
  <path fill="#050505" d="m39.7 59.6-.3.8s1.5 9.9-9.5 10.8c-.1 0 .1-.2.6-.1h.1c7.9-.3 11.1-5.1 11.1-11.4 0-1.7-.3-3.3-1-4.7-.5 1.1-1 4.6-1 4.6Z" opacity=".4"/>
  <path fill="#FEFEFE" d="M28.6 63.4s-.7-3.1-4.8-2c0 0 0 2.5 2.2 2.7 2.1.3 2.6-.7 2.6-.7Zm4.3.3s.5-3.2 4.6-2.3c0 0 .2 2.5-1.9 2.8-2.1.4-2.7-.5-2.7-.5Z"/>
  <path fill="#050505" d="M32.2 64.8s-.5.9-1.5.9c-.9 0-1.6-1.1-1.6-1.1s1.1.6 1.6.6c.4 0 1.5-.4 1.5-.4Zm-11-19.7c0 1.6 1.4 2.9 3.1 2.9 1.7 0 3.1-1.3 3.1-2.9 0-1.7-1.4-3-3.1-3-1.7 0-3.1 1.3-3.1 3Zm14.2 0c0 1.4 1.1 2.4 2.4 2.4 1.3 0 2.4-1.1 2.4-2.4-.1-1.3-1.1-2.4-2.4-2.4-1.4.1-2.4 1.1-2.4 2.4Z"/>
  <path fill="#050505" d="M16.5 48.1c0 2 1.6 3.6 3.6 3.6s3.6-1.6 3.6-3.6-1.6-3.6-3.6-3.6-3.6 1.6-3.6 3.6Zm25.1 3.7c0 2.1 1.7 3.7 3.7 3.7s3.7-1.6 3.7-3.7c0-2-1.7-3.6-3.7-3.6s-3.7 1.6-3.7 3.6Zm-15.4-7.3c0 2.5 2.4 4.5 5.4 4.5 2.9 0 5.3-2 5.3-4.5S34.5 40 31.6 40c-3 0-5.4 2-5.4 4.5Z"/>
  <path fill="#050505" d="M38 47.5c0 1.9 1.6 3.5 3.5 3.5 2 0 3.6-1.6 3.6-3.5 0-2-1.6-3.6-3.6-3.6-1.9 0-3.5 1.6-3.5 3.6Zm3.9 10.7c0 2.2 1.6 3.9 3.7 3.9 2 0 3.7-1.7 3.7-3.9s-1.7-4-3.7-4c-2.1 0-3.7 1.8-3.7 4Zm-30.2.7c0 2.3 1.7 4.1 3.7 4.1s3.7-1.8 3.7-4.1-1.7-4.1-3.7-4.1-3.7 1.8-3.7 4.1Z"/>
  <path fill="#050505" d="M13.2 52c0 1.9 1.5 3.4 3.4 3.4s3.4-1.5 3.4-3.3c0-1.9-1.5-3.4-3.4-3.4s-3.4 1.5-3.4 3.3Zm15.3 1.6c0 1.5 1.3 2.7 2.7 2.7 1.5 0 2.7-1.2 2.7-2.7 0-1.5-1.2-2.7-2.7-2.7-1.4 0-2.7 1.2-2.7 2.7Z"/>
  <path fill="#050505" d="M23.4 53.9c0 1.5 1.3 2.8 2.8 2.8 1.5 0 2.7-1.3 2.7-2.8 0-1.5-1.2-2.8-2.7-2.8-1.5 0-2.8 1.3-2.8 2.8Z"/>
  <path fill="#050505" d="M19.3 56c0 1.5 1.2 2.7 2.7 2.7 1.5 0 2.8-1.2 2.8-2.7 0-1.5-1.3-2.8-2.8-2.8-1.5 0-2.7 1.3-2.7 2.8Z"/>
  <path fill="#050505" d="M17.4 59.6c0 1.2 1 2.1 2.2 2.1 1.2 0 2.1-.9 2.1-2.1 0-1.2-.9-2.2-2.1-2.2-1.2 0-2.2 1-2.2 2.2Zm21.9-.3c0 1.2.9 2.2 2.1 2.2 1.2 0 2.2-1 2.2-2.2 0-1.2-1-2.1-2.2-2.1-1.2 0-2.1.9-2.1 2.1Z"/>
  <path fill="#050505" d="M36.9 56.8c0 .9.8 1.7 1.8 1.7.9 0 1.7-.8 1.7-1.7 0-1-.8-1.8-1.7-1.8-1 0-1.8.8-1.8 1.8Z"/>
  <path fill="#050505" d="M33.2 54.2c0 1.4 1.1 2.5 2.5 2.5 1.3 0 2.4-1.1 2.4-2.5.1-1.4-1.1-2.5-2.4-2.5-1.4 0-2.5 1.1-2.5 2.5Z"/>
  <path fill="#050505" d="M41.6 60.7 37 55.1 32.1 54l-5.1.5-3.6 2.2-2.4 1.5-1.4 2.1-2.7-2.2-.7-5.7 7-6.5 7.2-.8 7.9.6 5.8 5.7 1.8 6.4-4.3 2.9Z"/>
  <path fill="#3F1D13" d="M39.8 57.4V57a.95.95 0 0 0 .8-.4c.2-.267.3-.567.3-.9a1.28 1.28 0 0 0-.5-.8c-.2-.267-.5-.367-.9-.3a.95.95 0 0 0-.8.4c-.2.267-.3.567-.3.9H38c0-.4.1-.8.4-1.1.3-.4.7-.6 1.1-.6.4 0 .9.1 1.2.4.3.2.5.6.6 1.1 0 .4-.1.8-.4 1.1-.3.4-.7.6-1.1.6Zm-20.4 3.7c-.4 0-.8-.2-1.1-.5-.3-.3-.5-.7-.5-1.1 0-.4.1-.8.4-1.1.3-.4.7-.5 1.2-.6.4 0 .8.2 1.1.5.3.3.5.7.5 1.1h-.4c0-.333-.1-.6-.3-.8-.267-.267-.567-.4-.9-.4-.333.066-.633.2-.9.4-.2.266-.3.567-.3.9 0 .333.133.6.4.8.267.267.567.4.9.4v.4h-.1Zm15.7-17.6c-.3-1-1.2-1.8-2.3-2.1-1.5-.5-3.1-.1-4 1.1-.2.2-.333.467-.4.8l-.4-.1c.133-.4.3-.733.5-1 .4-.6 1.1-1 1.9-1.3.8-.2 1.7-.2 2.5.1.6.2 1.2.5 1.6.9.5.4.8.9 1 1.4l-.4.2ZM29.5 46h-.3c.1-.5.4-.9.8-1.1.3-.3.8-.4 1.2-.3.5 0 .9.3 1.2.7l-.3.1c-.2-.3-.5-.5-.9-.6-.4 0-.8.1-1.1.3-.3.2-.5.6-.6.9Zm12.1 4h-.5l.1-.4h.4c.467 0 .9-.134 1.3-.4.5-.3.8-.9.9-1.4.2-1.3-.6-2.4-1.9-2.6l.1-.4c1.4.2 2.4 1.6 2.2 3-.2.7-.5 1.3-1.1 1.7-.5.4-1 .5-1.5.5Zm-4.3-1.2c-.7 0-1.4-.3-1.8-.7-.6-.5-.8-1.2-.9-1.9 0-1.4 1.2-2.6 2.6-2.6.7-.1 1.4.2 1.9.7.5.5.8 1.1.8 1.8h-.4c0-.6-.3-1.1-.7-1.5-.4-.4-1-.7-1.6-.6-1.2 0-2.2 1-2.2 2.2.1.6.3 1.2.7 1.6.5.4 1 .6 1.6.6v.4Zm-10.7 5.4-.2-.1c.2-.7.2-1.5-.1-2.2-.3-.7-.8-1.2-1.5-1.5-1.5-.6-3.1.1-3.7 1.5l-.3-.1c.3-.7.9-1.3 1.7-1.7.8-.3 1.6-.3 2.4 0 .8.3 1.4.9 1.7 1.7.3.8.3 1.6 0 2.4Zm-10.9-.3c-.5-.1-1-.5-1.2-1.1-.3-.5-.3-1.1-.1-1.6.1-.6.5-1 1.1-1.3.5-.2 1.1-.3 1.6-.1l-.1.4c-.5-.2-.9-.1-1.4.1-.4.2-.7.6-.9 1-.1.5-.1.9.1 1.4.2.4.6.7 1 .9l-.1.3Zm17.7-3.2c-.4-.9-1.1-1.6-2-2-.9-.4-1.9-.4-2.9 0l-.1-.3c1-.4 2.1-.4 3.1.1 1 .4 1.8 1.1 2.2 2.1l-.3.1ZM13.5 61.2c-.6-.7-.9-1.5-.8-2.4.1-.9.5-1.7 1.2-2.3l.2.3c-.6.5-.9 1.2-1 2-.1.8.2 1.6.7 2.2l-.3.2Zm28.4-.3c-1.2-.2-2.1-1.3-1.9-2.5l.2.1c-.1 1 .7 2 1.7 2.1v.3Zm-19.6-3h-.4c-.4-.1-.6-.4-.8-.7-.2-.4-.2-.7-.1-1.1l.4.1a.85.85 0 0 0 0 .8.895.895 0 0 0 .6.5c.267.067.533.033.8-.1a.895.895 0 0 0 .5-.6l.4.2c-.1.3-.4.6-.7.8-.2.067-.433.1-.7.1Zm14-2.1c-1.2 0-2.2-.7-2.5-1.8-.3-1.4.4-2.8 1.8-3.1 1.3-.4 2.7.4 3.1 1.7l-.4.2c-.3-1.2-1.5-1.9-2.6-1.6-1.1.3-1.8 1.5-1.5 2.7.3 1.1 1.5 1.8 2.6 1.5l.1.3c-.2.066-.4.1-.6.1ZM18 57.4c-.9 0-1.8-.5-2.2-1.4l.2-.1c.5 1 1.8 1.5 2.9 1 1.1-.5 1.6-1.8 1.1-2.9-.5-1.1-1.8-1.5-2.9-1l-.1-.3c1.2-.6 2.7 0 3.2 1.2.6 1.2.1 2.7-1.2 3.3-.333.133-.667.2-1 .2Zm25.9 1.9c-.4 0-.8-.1-1.2-.4-.9-.7-1.1-2-.4-2.9l.2.2c-.6.8-.4 1.9.4 2.5.8.6 1.9.4 2.5-.4.6-.8.4-1.9-.4-2.5l.2-.3c.9.7 1.1 2 .4 3-.4.5-1 .8-1.7.8Zm-24-7.8c-.9-.1-1.6-.6-2.1-1.3-.5-.7-.7-1.5-.6-2.4.2-.8.6-1.6 1.3-2.1.7-.5 1.6-.7 2.4-.5.9.1 1.6.6 2.1 1.3.5.7.7 1.5.5 2.4l-.3-.1c.2-1.5-.8-3-2.3-3.3-1.6-.2-3 .8-3.3 2.4-.2 1.5.8 3 2.3 3.2v.4Z"/>
  <path fill="#3F1D13" d="M26.1 56.1c-.6 0-1.3-.4-1.7-1l.3-.2c.5.8 1.6 1 2.4.5.8-.5 1-1.6.5-2.4l.3-.2c.7 1 .4 2.3-.6 2.9-.4.266-.8.4-1.2.4Zm19.7 5.2c-.333 0-.633-.067-.9-.2l.1-.4c.267.133.533.2.8.2 1 0 1.9-.6 2.2-1.6.4-1.2-.2-2.6-1.4-3l.1-.4c1.5.5 2.2 2.1 1.7 3.5-.4 1.2-1.5 1.9-2.6 1.9Z"/>
  <path fill="#3F1D13" fill-rule="evenodd" d="M45.4 54.4c-1.4 0-2.6-1.1-2.6-2.6s1.2-2.7 2.6-2.7c1.5 0 2.7 1.2 2.7 2.7 0 1.5-1.2 2.6-2.7 2.6Zm0-4.9c-1.2 0-2.2 1-2.2 2.3 0 1.2 1 2.3 2.2 2.3 1.3 0 2.3-1.1 2.3-2.3 0-1.3-1-2.3-2.3-2.3Z" clip-rule="evenodd"/>
  <path fill="#3F1D13" d="M39.9 51c-.6 0-1.3-.4-1.6-1-.1-.4-.2-.8 0-1.3.1-.4.4-.8.8-.9.4-.2.9-.3 1.3-.1.5.1.8.4 1 .9l-.2.1c-.2-.4-.5-.6-.9-.7-.3-.2-.7-.2-1 0-.4.2-.6.5-.8.8-.1.4-.1.8.1 1.1.4.7 1.2 1 1.9.7l.1.2c-.2.133-.433.2-.7.2Zm-8.7 4.4v-.3c.8 0 1.4-.6 1.4-1.4h.3c0 .9-.7 1.7-1.7 1.7Zm-1.4-1.7h-.3c0-.9.8-1.7 1.7-1.7v.3c-.8 0-1.4.6-1.4 1.4Z"/>
  <path fill="#3F1D13" fill-rule="evenodd" d="M24.4 48.2c-.7 0-1.3-.3-1.8-.8s-.8-1.1-.8-1.8.3-1.4.8-1.9 1.1-.8 1.8-.8c1.5 0 2.7 1.2 2.7 2.7 0 1.4-1.2 2.6-2.7 2.6Zm0-4.9c-.6 0-1.1.3-1.5.7-.5.4-.7 1-.7 1.6 0 .6.2 1.1.7 1.6.4.4.9.6 1.5.6 1.3 0 2.3-1 2.3-2.2 0-1.3-1-2.3-2.3-2.3Z" clip-rule="evenodd"/>
  <path fill="#855226" d="M25.2 62.6c-.1.7.4 1.4 1.1 1.4.7.1 1.3-.5 1.4-1.2 0-.7-.5-1.4-1.2-1.4-.7-.1-1.3.5-1.3 1.2Z"/>
  <path fill="#050505" d="M26 62.7c0 .2.2.4.4.4s.4-.2.4-.4-.2-.4-.4-.4-.4.2-.4.4Z"/>
  <path fill="#FEFEFE" d="M26.7 62.2c0 .2.1.3.3.3.1 0 .2-.1.2-.3 0-.1-.1-.2-.2-.2-.2 0-.3.1-.3.2Z"/>
  <path fill="#855226" d="M36.3 62.7c.1.7-.4 1.4-1.1 1.5-.6 0-1.3-.5-1.4-1.2-.1-.7.4-1.4 1.1-1.5.7-.1 1.3.4 1.4 1.2Z"/>
  <path fill="#050505" d="M35.5 62.8c0 .2-.2.4-.4.5-.2 0-.4-.2-.4-.5 0-.2.1-.4.3-.4.3 0 .4.2.5.4Z"/>
  <path fill="#FEFEFE" d="M34.7 62.4c0 .1-.1.2-.2.2s-.2-.1-.3-.2c0-.1.1-.2.3-.3.1 0 .2.1.2.3Z"/>
  <path fill="#050505" d="M33 63.9h-.1c-.1 0-.2-.1-.1-.2.3-1.3 1.2-2.2 2.7-2.5.8-.2 1.7-.1 2-.1l.8-1c.1-.1.2-.1.3 0 .1 0 .1.2 0 .2l-.9 1.1c-.067.066-.133.1-.2.1 0 0-1-.1-2 .1-1.333.266-2.133.966-2.4 2.1 0 .133-.033.2-.1.2Z"/>
  <path fill="#BB8653" d="m37.4 60.2-.6 1 .6-1Z"/>
  <path fill="#050505" d="M36.8 61.4h-.1c-.1-.1-.1-.2 0-.3l.5-1c.1-.1.2-.1.3-.1.1.1.1.2 0 .3l-.5 1c-.067.067-.133.1-.2.1Zm-8.2 2.2c-.133 0-.2-.034-.2-.1-.333-1.133-1.167-1.8-2.5-2-1.1-.2-2 0-2 0h-.2l-1-1.1c-.1 0-.1-.2 0-.2.1-.1.2-.1.3 0l.9.9c.3 0 1.1-.1 2 0 1.5.2 2.5 1 2.8 2.3.1.1 0 .2-.1.2Z"/>
  <path fill="#BB8653" d="m23.9 60.2.7 1-.7-1Z"/>
  <path fill="#050505" d="M24.6 61.4c-.134 0-.2-.034-.2-.1l-.6-1c-.1-.1-.1-.2 0-.2.1-.1.2-.1.3 0l.6 1c.1.1 0 .2 0 .3h-.1Z"/>
  <path fill="#050505" d="M24.5 60.9c-.067 0-.1-.033-.1-.1-.1-.1-.2-.2-.1-.3.8-1 1.8-1.2 2.4-1.2.7.1 1.3.3 1.3.3.1.1.2.3.1.4-.1.1-.2.2-.3.1-.1 0-.5-.2-1.1-.2-.8-.067-1.467.233-2 .9-.067.067-.133.1-.2.1Zm12.3 0c-.067 0-.133-.033-.2-.1-.533-.6-1.2-.867-2-.8-.6 0-1 .3-1 .3-.2 0-.3 0-.4-.1 0-.2 0-.3.1-.4 0 0 .5-.3 1.2-.4.7 0 1.7.1 2.5 1 .1.1.1.3 0 .4-.067.067-.133.1-.2.1Zm-3.3 6.5c-.2-.8-1.5-.5-2.3-.4-.2 0-.5.1-.7.1-.2 0-.5-.1-.8-.1-.7-.1-2-.4-2.3.4-.3.8.3 2.4 2.8 2.6h.6c2.4-.2 3-1.8 2.7-2.6Z"/>
  <path fill="#050505" d="M30.4 68.7h-.6c-.7-.1-1.2-.2-1.2-.2-.1-.1-.2-.1-.1-.2 0-.1.1-.1.1-.1s.5.1 1.2.2c.7 0 1.7 0 2.7-.3.1-.1.2 0 .2 0 0 .1 0 .2-.1.2-.8.3-1.6.4-2.2.4Z"/>
  <path fill="#CD895A" d="M21.9 82.2c.1.8-.1 1.5-.4 1.5-.4 0-.7-.5-.8-1.3l-8-80.1c-.1-.8.1-1.4.4-1.5.4 0 .7.6.8 1.3l8 80.1Z"/>
  <path fill="#B76A4E" d="m12.7 2.2 8 80.1c.1.5.2.9.5 1.1L13 .8c-.2.2-.4.7-.3 1.4Z"/>
  <path fill="#CD895A" d="M84.2 81.9c-.1.7-.4 1.3-.7 1.3-.3 0-.6-.6-.5-1.4l4.2-80.4c0-.7.3-1.3.7-1.3.3 0 .5.6.5 1.4l-4.2 80.4Z"/>
  <path fill="#B76A4E" d="M87.2 1.3 83 81.7c-.1.6 0 1 .2 1.2L87.8 0c-.3.1-.6.7-.6 1.3Z"/>
  <path fill="#DDEEF9" d="M12.7 4.3c2.8.6 21.6 1.5 33.6 1.3C61 5.4 88.4 2.9 88.4 2.9l-1.6 26s-27.4 2-33.1 2.2C36.2 31.9 18 30 15.2 28c-1.5-16.8-2.5-23.7-2.5-23.7Z"/>
  <path fill="#B8C7DA" d="M14.6 5.6 17 27.8s.5.3 1.2.3c-1.4-6.9-3.6-22.5-3.6-22.5Zm72.2-1.3c-.1 1.3-1 24-1.5 24.1-.5.1-.9.1-.9.1l2.4-24.2Z" style="mix-blend-mode:multiply"/>
  <path fill="#562E90" fill-rule="evenodd" stroke="#562E90" stroke-width=".4" d="M22.2 26.7a.888.888 0 0 0-.4-.1l-.2-.1c.133-.667.333-1.7.6-3.1.2-1 .4-2.1.6-3.3.2-.8.333-1.467.4-2 .067-.067.133-.1.2-.1 0-.067.033-.1.1-.1l.1.1c.067 0 .133.033.2.1v.3c.2-.133.4-.234.6-.3h.4l.4.2c.133.133.267.333.4.6.133.333.2.8.2 1.4 0 .666-.067 1.367-.2 2.1a9.01 9.01 0 0 1-.6 1.9c-.2.6-.5 1.133-.9 1.6a2.12 2.12 0 0 1-1 .7c-.333.133-.633.166-.9.1Zm.1-.6h.4c.133 0 .3-.033.5-.1l.5-.5c.333-.4.6-.9.8-1.5.2-.533.367-1.134.5-1.8l.1-.5c.067-.334.1-.767.1-1.3s-.067-.967-.2-1.3c-.133-.267-.267-.4-.4-.4h-.1c-.2 0-.4.133-.6.4a5.5 5.5 0 0 0-.5 1.1l-.1.7c-.4 1.867-.733 3.6-1 5.2Z" clip-rule="evenodd"/>
  <path fill="#562E90" stroke="#562E90" stroke-width=".4" d="m27.9 27.5-1.8-.2c-.067 0-.1-.034-.1-.1-.067-.067-.1-.133-.1-.2.067-.6.167-1.334.3-2.2 0-.2.067-.633.2-1.3.067-.667.167-1.5.3-2.5.134-1 .267-1.7.4-2.1v-.1c0-.067.034-.1.1-.1 0-.067.034-.1.1-.1l1.9.3c.067 0 .134.033.2.1v.2c0 .066-.033.133-.1.2s-.133.1-.2.1l-1.5-.2c-.067.466-.167 1.133-.3 2l.8.1c.133 0 .2.033.2.1.067.067.1.133.1.2 0 .066-.033.133-.1.2s-.133.067-.2 0l-.9-.1a126.48 126.48 0 0 1-.4 3.1 35.311 35.311 0 0 0-.3 1.9l1.5.2c.067 0 .134.033.2.1.067.066.067.133 0 .2 0 .066-.033.133-.1.2s-.133.067-.2 0Z"/>
  <path fill="#562E90" fill-rule="evenodd" stroke="#562E90" stroke-width=".4" d="M29.6 27.7c-.067 0-.133-.034-.2-.1v-.2c0-.6.034-1.267.1-2 .267-2.267.433-3.6.5-4a45.35 45.35 0 0 1 .2-2.2c0-.067.034-.1.1-.1.067-.067.133-.1.2-.1.134 0 .2.033.2.1.067.066.1.133.1.2v.2c.267-.333.534-.467.8-.4.267 0 .5.133.7.4.267.467.367 1.133.3 2-.067.667-.267 1.4-.6 2.2-.4.866-.9 1.433-1.5 1.7.2.6.6 1.267 1.2 2 .067.067.1.133.1.2 0 .066-.033.133-.1.2-.066.066-.133.1-.2.1s-.133-.034-.2-.1c-.533-.6-.933-1.2-1.2-1.8-.067.533-.1 1-.1 1.4l-.1.2c-.066.066-.166.1-.3.1Zm.6-2.8c.467-.133.867-.6 1.2-1.4a5.733 5.733 0 0 0 .6-2c.067-.733 0-1.3-.2-1.7-.067-.134-.133-.2-.2-.2-.133 0-.3.1-.5.3-.267.4-.466.9-.6 1.5a67.696 67.696 0 0 1-.3 3.5Z" clip-rule="evenodd"/>
  <path fill="#562E90" stroke="#562E90" stroke-width=".4" d="m35.2 28.2-1.8-.1c-.066 0-.133-.033-.2-.1v-.2c0-.667.033-1.4.1-2.2 0-.267.034-.734.1-1.4.067-.667.134-1.5.2-2.5.067-1 .133-1.7.2-2.1v-.1c0-.067.034-.1.1-.1.067-.067.134-.1.2-.1l1.8.2c.133 0 .2.033.2.1.067 0 .1.066.1.2 0 .066-.033.133-.1.2h-.2l-1.5-.1a33.096 33.096 0 0 0-.2 2l.8.1c.133 0 .2.033.2.1.067.066.1.133.1.2 0 .066-.033.133-.1.2s-.133.1-.2.1l-.9-.1a247.22 247.22 0 0 1-.2 3.1c-.066.733-.1 1.367-.1 1.9l1.4.1c.067 0 .133.033.2.1.067.066.1.133.1.2s-.033.133-.1.2c-.066.066-.133.1-.2.1Zm2.3.2c-.333 0-.667-.234-1-.7-.2-.4-.333-.934-.4-1.6v-1.6c0-.2.033-.533.1-1 .067-.533.167-1.134.3-1.8.2-.667.467-1.2.8-1.6.267-.334.567-.5.9-.5h.2c.533.2.767.766.7 1.7v.2c0 .133-.033.2-.1.2-.067.066-.133.1-.2.1-.133 0-.233-.034-.3-.1v-.8c0-.2-.033-.367-.1-.5 0-.133-.033-.2-.1-.2h-.2l-.1.1c-.067 0-.167.067-.3.2-.267.333-.467.8-.6 1.4-.2.867-.333 1.766-.4 2.7-.067 1.266.033 2.2.3 2.8.133.2.267.333.4.4h.2c.133 0 .3-.133.5-.4.133-.333.233-.7.3-1.1l.1-.2c.067-.067.133-.1.2-.1.133 0 .2.033.2.1.067.066.1.133.1.2v.1a7.098 7.098 0 0 1-.3.9c-.067.267-.2.5-.4.7-.2.2-.4.333-.6.4h-.2Zm2.8.1c-.067 0-.133-.033-.2-.1 0-.067-.033-.134-.1-.2 0-1 .033-2.1.1-3.3V23c.067-.933.133-1.967.2-3.1l.2-.2c0-.067.033-.1.1-.1.133.066.233.133.3.2v.2c-.067.667-.133 1.433-.2 2.3h1.8l.1-2.3c0-.067.033-.134.1-.2.067-.067.133-.1.2-.1s.133.033.2.1c.067.066.1.133.1.2l-.3 8.3v.2c-.067.067-.167.1-.3.1-.067-.067-.133-.1-.2-.1v-.3l.1-5.3h-1.8c0 .667-.033 1.333-.1 2v3.3c0 .066-.033.133-.1.2 0 .067-.067.1-.2.1Z"/>
  <path fill="#562E90" fill-rule="evenodd" stroke="#562E90" stroke-width=".4" d="M45.2 28.6c-.133 0-.267-.067-.4-.2-.133-.067-.233-.2-.3-.4-.267-.467-.433-1.2-.5-2.2-.066-.267-.1-.6-.1-1 0-.334.034-.7.1-1.1.067-1.667.334-2.867.8-3.6.2-.267.434-.4.7-.4.2 0 .367.1.5.3.2.2.367.533.5 1 .2.8.3 1.833.3 3.1v.6c0 .4-.066.866-.2 1.4a7.33 7.33 0 0 1-.3 1.4c-.267.667-.6 1.033-1 1.1h-.1Zm0-.6c.2 0 .4-.233.6-.7a9.846 9.846 0 0 0 .3-1.7c.067-.534.1-1.034.1-1.5v-1c0-.467-.067-.967-.2-1.5-.133-.6-.3-1-.5-1.2v-.1h-.1c0 .066-.033.133-.1.2-.4.6-.633 1.666-.7 3.2a6.7 6.7 0 0 0-.1 1.1c0 .4.033.8.1 1.2 0 .467.067.833.2 1.1.067.333.134.566.2.7l.2.2Z" clip-rule="evenodd"/>
  <path fill="#562E90" stroke="#562E90" stroke-width=".4" d="M49 28.6c-.2 0-.4-.067-.6-.2-.133-.067-.267-.233-.4-.5l-.2-.6V27c0-.267.033-.567.1-.9 0-.067.033-.133.1-.2h.3c.067 0 .133.033.2.1v.2a4.63 4.63 0 0 0-.1.9c0 .2.033.4.1.6.133.2.3.3.5.3.267 0 .433-.167.5-.5.067-.2.1-.4.1-.6v-.3c0-.134-.033-.3-.1-.5-.067-.267-.167-.467-.3-.6a5.53 5.53 0 0 0-.5-1.1 6.993 6.993 0 0 1-.5-1 7.747 7.747 0 0 1-.4-1c-.133-.333-.2-.7-.2-1.1V21l.2-.6c.067-.2.2-.367.4-.5.133-.133.333-.2.6-.2h.3c.2.066.367.2.5.4s.233.467.3.8v.4c0 .2-.033.466-.1.8 0 .066-.033.133-.1.2h-.2c-.133 0-.2-.034-.2-.1-.067-.067-.1-.133-.1-.2h.1v-1a.68.68 0 0 0-.2-.5c-.067-.133-.167-.2-.3-.2-.2 0-.367.133-.5.4-.067.133-.1.333-.1.6v.3c0 .133.067.333.2.6.067.4.2.733.4 1l.4 1 .6 1c.067.2.133.433.2.7.133.333.2.667.2 1 0 .267-.033.533-.1.8a.971.971 0 0 1-.4.6c-.2.2-.433.3-.7.3Zm4.8-.2c-.067.067-.133.067-.2 0s-.1-.134-.1-.2c-.133-1-.233-2.1-.3-3.3 0-.333-.033-.967-.1-1.9v-3.1c0-.067.033-.134.1-.2.067-.067.133-.1.2-.1s.133.033.2.1c.067.066.1.133.1.2v2.3l1.8-.1-.2-2.3c0-.067.033-.134.1-.2.067-.067.133-.1.2-.1s.133.033.2.1c.067 0 .1.066.1.2l.5 8.2c0 .067-.033.133-.1.2-.067.066-.133.1-.2.1s-.133-.034-.2-.1c-.067 0-.1-.067-.1-.2l-.3-5.3-1.8.1c0 .666.033 1.333.1 2 .067 1.133.133 2.233.2 3.3v.2c-.067.066-.133.1-.2.1Zm5.1-.1c-.333 0-.633-.067-.9-.2-.267-.2-.433-.5-.5-.9-.2-.6-.367-1.867-.5-3.8-.066-1.4-.1-2.634-.1-3.7 0-.067.034-.133.1-.2 0-.067.067-.1.2-.1.067 0 .1.033.1.1.067.067.1.133.1.2 0 1 .067 2.233.2 3.7.067 1.867.2 3.1.4 3.7.067.2.167.366.3.5.134.066.3.1.5.1.334 0 .534-.133.6-.4.2-.4.267-1.167.2-2.3 0-.6-.067-1.633-.2-3.1l-.1-2.3c0-.067.034-.133.1-.2 0-.067.067-.1.2-.1.067 0 .1.033.1.1.067 0 .1.066.1.2.067.666.134 1.433.2 2.3.067 1.533.1 2.567.1 3.1.067.6.067 1.1 0 1.5 0 .467-.067.833-.2 1.1-.2.466-.533.7-1 .7Zm6.2-.6h-.2c-.067-.067-.1-.133-.1-.2-.067-1.133-.167-2.5-.3-4.1-.067-.667-.1-1.333-.1-2l-.6 3.9a1.163 1.163 0 0 1-.2.3c-.067.066-.133.1-.2.1a.887.887 0 0 1-.4-.1c-.067-.067-.1-.133-.1-.2-.2-.6-.567-1.9-1.1-3.9.067.4.1.8.1 1.2.133 1.866.267 3.5.4 4.9 0 .133-.033.2-.1.2-.067.066-.133.1-.2.1-.067.067-.133.067-.2 0s-.1-.134-.1-.2a237.36 237.36 0 0 1-.4-5.1 79.847 79.847 0 0 0-.2-3.3c0-.067.033-.134.1-.2.067-.067.133-.1.2-.1h.3c.067.067.1.133.1.2.067.266.2.733.4 1.4.133.666.333 1.366.6 2.1l.5 2 .8-5.5c.067-.134.133-.2.2-.2 0-.067.067-.1.2-.1s.233.033.3.1c0 .067.033.133.1.2 0 .933.067 2.3.2 4.1.067 1.6.167 2.967.3 4.1 0 .067-.033.133-.1.2 0 .066-.067.1-.2.1Z"/>
  <path fill="#562E90" fill-rule="evenodd" stroke="#562E90" stroke-width=".4" d="M69 27.4c-.067 0-.133-.034-.2-.1l-.1-.1c-.067-.8-.2-1.834-.4-3.1l-1.4.1c.067 1 .1 2 .1 3v.2c-.067.067-.133.1-.2.1-.133 0-.2-.033-.2-.1-.067-.067-.1-.134-.1-.2-.067-.4-.1-.934-.1-1.6-.067-.667-.1-1.367-.1-2.1 0-.733.033-1.433.1-2.1 0-.667.033-1.234.1-1.7.067-.467.2-.8.4-1 .067-.067.167-.1.3-.1.067 0 .133.033.2.1.2.066.367.333.5.8.267.6.533 1.6.8 3l.4 2.6c.067.8.133 1.466.2 2v.2c-.067.066-.167.1-.3.1Zm-.8-3.9c-.133-1-.3-1.867-.5-2.6-.2-.8-.367-1.333-.5-1.6-.133.2-.2.7-.2 1.5-.067.8-.1 1.733-.1 2.8l1.3-.1Z" clip-rule="evenodd"/>
  <path fill="#562E90" stroke="#562E90" stroke-width=".4" d="M73.3 27.1c-.133 0-.233-.067-.3-.2l-2.4-6.5c.067 1.733.167 3.367.3 4.9.067.6.1 1.133.1 1.6v.3c-.067 0-.133.033-.2.1-.133 0-.2-.034-.2-.1l-.2-.2c0-.533-.033-1.134-.1-1.8-.067-.8-.133-1.9-.2-3.3-.067-1.333-.1-2.4-.1-3.2v-.2c.067-.133.133-.2.2-.2s.133.033.2.1c.067 0 .133.033.2.1l2.3 6.5-.4-6.4c0-.067.033-.133.1-.2s.133-.1.2-.1.133.033.2.1.1.133.1.2l.5 7.9v.3c0 .066-.033.133-.1.2s-.133.1-.2.1Z"/>
  <path fill="#562E90" fill-rule="evenodd" stroke="#562E90" stroke-width=".4" d="M76 27c-.133 0-.3-.067-.5-.2l-.3-.3c-.267-.467-.466-1.2-.6-2.2-.066-.267-.133-.6-.2-1v-1.1c0-1.667.2-2.867.6-3.6a.895.895 0 0 1 .6-.5c.2 0 .367.066.5.2.2.267.4.6.6 1 .267.8.433 1.833.5 3.1 0 .067.034.267.1.6 0 .4-.033.867-.1 1.4 0 .533-.067 1-.2 1.4-.2.733-.5 1.133-.9 1.2H76Zm0-.6c.133 0 .267-.234.4-.7.133-.467.233-1.067.3-1.8 0-.467-.033-.967-.1-1.5 0-.2-.033-.533-.1-1 0-.4-.1-.9-.3-1.5-.133-.533-.3-.9-.5-1.1l-.1-.1c-.066.066-.1.133-.1.2-.4.667-.567 1.766-.5 3.3v1.1l.2 1.2c.067.4.133.766.2 1.1.133.266.267.466.4.6.067.133.133.2.2.2Z" clip-rule="evenodd"/>
  <path fill="#562E90" stroke="#562E90" stroke-width=".4" d="M79.7 26.8c-.2 0-.4-.067-.6-.2-.2-.067-.366-.234-.5-.5a3.091 3.091 0 0 1-.2-.6v-.2c0-.334.033-.667.1-1 0-.067.034-.134.1-.2h.2c.067 0 .133.033.2.1v1.1c0 .2.034.4.1.6.2.2.4.3.6.3.2-.067.334-.234.4-.5.067-.267.1-.5.1-.7l-.1-.2c0-.2-.033-.4-.1-.6-.067-.2-.166-.4-.3-.6a7.003 7.003 0 0 1-.5-1l-.6-1c-.2-.267-.366-.6-.5-1a2.674 2.674 0 0 1-.2-1v-.4c0-.134.033-.334.1-.6.067-.2.167-.367.3-.5.2-.134.4-.234.6-.3.133 0 .233.033.3.1.2.067.4.2.6.4.133.133.234.367.3.7 0 .133.034.267.1.4 0 .2-.033.466-.1.8 0 .066-.033.133-.1.2h-.2c-.066 0-.133-.034-.2-.1l-.1-.1v-.1c.067-.267.1-.5.1-.7 0-.067-.033-.167-.1-.3a.887.887 0 0 0-.1-.4c-.133-.2-.267-.3-.4-.3-.2 0-.367.167-.5.5-.067.133-.067.333 0 .6v.3c0 .133.067.333.2.6l.4 1c.2.267.4.567.6.9.133.333.3.666.5 1 .133.2.233.433.3.7.133.333.234.667.3 1 0 .267-.033.533-.1.8s-.166.467-.3.6c-.2.2-.433.333-.7.4Z"/>
  <path fill="#56B846" fill-rule="evenodd" stroke="#56B846" stroke-width=".4" d="M32.6 8.7h.1c1.9.2 2.1 2.5 2.1 4-.067.2-.1.366-.1.5-.1 2-.7 3.7-2.6 3.6a.887.887 0 0 1-.4-.1s0-1.2.1-1.7c0-1.3.1-2.6.2-4 .1-.2.1-1.8.1-2l.1-.1c0-.1.3-.2.4-.2Zm-.3 7.6h.1c1.4.1 1.7-2.2 1.7-3.1.1-1 .2-3.7-1.4-3.9l-.4 7Z" clip-rule="evenodd"/>
  <path fill="#56B846" stroke="#56B846" stroke-width=".4" d="m35.8 15.9.1-2.1c0-1.6-.1-2.6-.1-4.1v-.6c1.7-.1 1.9.1 1.9.3 0 .1 0 .2-.1.3l-1.2-.1-.1.1c0 1.2.1 2 .1 3.2h1.3c.4 0 .6.7.1.7l-1.4-.1V16c.2.1 1.6-.1 1.6.3 0 .2-.1.3-.2.3h-.1c-.4 0-1.9.1-1.9-.2v-.5Zm3.4-3.9c0-1.8.2-3 .5-3 .1.1.3.1.4.4.1.8.4 2.2 1 3.1.1 0 .5-.8.8-1.1v-.1c.4-.7.7-1.3 1-1.9.067-.133.167-.2.3-.2.1 0 .2 0 .3.1-.1 2.4-.1 4.8-.1 7.2l-.1.5c0 .2-.1.3-.3.3-.1 0-.2-.1-.3-.2l.1-.6c0-2 0-3.9.1-5.9l-.8 1.4c-.1.2-.5 1.1-.6 1.3-.1.1-.4.5-.6.1l-1-2.5c-.3 2-.4 4-.4 5.9 0 .2-.1.2-.2.2s-.3 0-.3-.1l.2-4.9Z"/>
  <path fill="#56B846" fill-rule="evenodd" stroke="#56B846" stroke-width=".4" d="M46.2 9.1c2.4 0 2.7 7.7.4 7.9h-.2c-.9 0-1.4-.5-1.6-1.5-.2-.7-1.3-6.3 1.4-6.4Zm-.9 5.9c.1.3.4 1.4 1 1.4h.1c.7-.1.9-1.3 1-1.8.2-.9.3-4.9-1.2-4.9h-.1c-1.6.2-1 4.5-.8 5.3Z" clip-rule="evenodd"/>
  <path fill="#56B846" stroke="#56B846" stroke-width=".4" d="M50.9 9.2c.5 0 1 .2 1 .7 0 .1 0 .3-.2.3-.3 0-.4-.5-.8-.5h-.1c-1.4 0-2.2 6.8.2 6.8h.1c.8 0 .4-1 1-1h.1c.1 0 .2.1.2.2 0 .2 0 .2-.1.5-.2.5-.6.8-1.2.8H51c-2.1 0-2.2-2.9-2.1-4.3 0-1.1.4-3.5 2-3.5Z"/>
  <path fill="#56B846" fill-rule="evenodd" stroke="#56B846" stroke-width=".4" d="M53.2 12.7c0-.4-.2-2.3-.2-2.8 0-.1-.1-1.1-.2-1.2 0-.3.3-.4.5-.4 1.5 0 2.1 1 2.1 2.2.1 1-.3 1.6-.9 2.2 1.2.5 1.6 2.2 1.7 3.4 0 .2-.1.3-.3.3-.2 0-.2 0-.3-.2-.1-.8-.4-3-1.6-3h-.1c-.1 1.2.1 2.5 0 3.7-.1.2-.4.2-.5 0-.1-.6-.2-3.6-.2-4.2Zm.6-.3c.7-.2 1.1-1.1 1.1-1.7-.1-.6-.4-1.8-1.1-1.7-.1 0-.4 0-.4.1l.4 3.3Zm3.5-3.3c0-1 .7-.7.9 0 .3 1 .6 2 2.1 7.6 0 .3-.3.5-.6.1l-.5-1.9-1.4.3c0 .5-.1 1.5-.1 1.9 0 .3-.4.3-.4.1V9.1Zm.4 5s0 .5.1.5l1.3-.2-1.3-4.7c0 .6-.1 3.7-.1 4.4Z" clip-rule="evenodd"/>
  <path fill="#56B846" stroke="#56B846" stroke-width=".4" d="M62.3 8.6h.1c.4 0 .9.2 1 .7 0 .1 0 .2-.2.3-.3 0-.4-.5-.8-.5h-.1c-1.5.1-2.1 6.9.4 6.9h.1c.7-.1.4-1.1 1-1.1.2 0 .3.1.3.2 0 .2 0 .2-.1.4-.2.6-.6.9-1.2.9h-.1c-2.1 0-2.3-2.8-2.3-4.2 0-1.1.3-3.5 1.9-3.6Zm3 0 .9 6.5c0 .2.1.4.1.6 0 .2-.2.3-.4.3s-.3-.2-.3-.4l-.6-4.7c-.1-.8-.3-1.5-.3-2.3 0-.3.5-.2.6 0Z"/>
  <path fill="#56B846" fill-rule="evenodd" stroke="#56B846" stroke-width=".4" d="M67.2 8.5c0-1 .7-.8.9-.1.4 1.1.6 2.1 2.2 7.7 0 .2-.3.4-.5.1l-.5-1.9-1.4.3c-.1.5-.1 1.5-.1 1.9 0 .3-.5.2-.5 0l-.1-8Zm.6 5v.6l1.3-.3-1.3-4.7v4.4Z" clip-rule="evenodd"/>
  <path fill="#803531" d="M17 73c.1 1.2 1.2 2.2 2.3 2 1.2-.1 2-1.2 1.8-2.5-.1-1.2-1.2-2.1-2.3-2-1.2.1-2 1.2-1.8 2.5Z"/>
  <path fill="#050505" fill-rule="evenodd" d="M19.1 75.2c-1.1 0-2.1-.9-2.3-2.2-.1-.7.1-1.4.5-1.9.4-.4.9-.7 1.5-.8 1.2-.1 2.3.9 2.5 2.2.1.7-.1 1.4-.5 1.9-.4.4-.9.7-1.4.8h-.3Zm-2-2.2c.2 1.1 1.2 2 2.2 1.9.5-.1.9-.3 1.3-.7.3-.4.5-1 .4-1.6-.1-1.2-1.1-2.1-2.2-2-.5.1-.9.3-1.2.7-.4.5-.6 1.1-.5 1.7Z" clip-rule="evenodd"/>
  <path fill="#803531" d="M19.7 71.3c-.3.2-.2.6 0 .9.3.2.7.2.9-.1l.5-.5c.2-.3.2-.7-.1-.9-.2-.2-.6-.2-.9 0l-.4.6Z"/>
  <path fill="#050505" fill-rule="evenodd" d="M20.1 72.5c-.133 0-.3-.067-.5-.2-.133-.134-.2-.334-.2-.6-.067-.2-.033-.367.1-.5l.5-.5c.3-.4.8-.4 1.1-.1.2.133.3.3.3.5s-.067.4-.2.6l-.5.5c-.133.2-.333.3-.6.3Zm-.3-1.1c-.133.066-.2.166-.2.3l.2.4c.2.1.5.1.7-.1l.5-.5a.888.888 0 0 0 .1-.4c0-.134-.067-.234-.2-.3-.2-.2-.5-.2-.6 0l-.5.6Z" clip-rule="evenodd"/>
  <path fill="#050505" d="M17.6 73.8s.6.7 1.6.5c.9-.3.9-1.5.9-1.5s-.6-.1-.6-.6c0 0 .7.5 1.1-.2l.6.4s.3 2.1-1.5 2.5c-1.8.5-2.2-.9-2.1-1.1Z" opacity=".2" style="mix-blend-mode:multiply"/>
  <path fill="#B3805F" d="M84.5 69.1c-.8.5-.4 1.6-.3 2 .1.4.4 1.3 1 1.3.7 0 1.2-.2 1.8-.6.6-.3.1-2.5-.5-3-.7-.5-1.6.1-2 .3Z"/>
  <path fill="#050505" fill-rule="evenodd" d="M85.2 72.6c-.8 0-1.1-1.1-1.2-1.5V71c-.1-.5-.4-1.5.4-2 .933-.6 1.667-.7 2.2-.3.5.4.9 1.7.9 2.6-.067.333-.2.567-.4.7-.5.3-1.1.6-1.9.6Zm-.9-1.7.1.1c.1.3.3 1.3.8 1.3.7-.1 1.2-.3 1.7-.6.133-.067.2-.234.2-.5.1-.7-.4-1.9-.8-2.2-.333-.333-.9-.233-1.7.3-.6.3-.4 1-.3 1.6Z" clip-rule="evenodd"/>
  <path fill="#050505" d="m44.3 85.1 2.6.4-1.7 10.7-3-.5 1.2-7.6c-.733.066-1.367.1-1.9.1l.5-2.8 2.3-.3Z"/>
  <path fill="#050505" fill-rule="evenodd" d="M52.8 86.3c1.533.2 2.567.867 3.1 2 .533 1.133.667 2.533.4 4.2-.267 1.667-.8 2.933-1.6 3.8-.867.933-2.067 1.267-3.6 1-1.467-.2-2.467-.867-3-2-.533-1.133-.667-2.534-.4-4.2.267-1.667.8-2.933 1.6-3.8.867-.933 2.033-1.267 3.5-1Zm-.4 2.7c-.267 0-.5.033-.7.1-.2.133-.367.367-.5.7a3.907 3.907 0 0 0-.3.8c-.067.266-.133.6-.2 1s-.1.733-.1 1v.9c.067.267.167.5.3.7.133.2.367.3.7.3.267.067.5.033.7-.1.2-.133.367-.334.5-.6.133-.267.233-.533.3-.8.067-.267.133-.6.2-1s.1-.733.1-1v-.9c-.067-.334-.167-.567-.3-.7-.133-.2-.367-.333-.7-.4Z" clip-rule="evenodd"/>
  <path fill="#FEFEFE" d="m45.5 84.5 2.5.4-1.6 10.6-3-.4 1.2-7.7a57.76 57.76 0 0 0-1.9.2l.4-2.8 2.4-.3Z"/>
  <path fill="#FEFEFE" fill-rule="evenodd" d="M54 85.6c1.533.267 2.566.967 3.1 2.1.533 1.067.666 2.433.4 4.1-.267 1.667-.834 2.967-1.7 3.9-.867.867-2.033 1.2-3.5 1-1.467-.267-2.467-.933-3-2-.6-1.133-.767-2.533-.5-4.2.267-1.666.833-2.933 1.7-3.8.867-.933 2.033-1.3 3.5-1.1Zm-.4 2.8c-.334-.067-.6-.033-.8.1a.97.97 0 0 0-.4.6 3.908 3.908 0 0 0-.3.8 11.45 11.45 0 0 0-.2 1.1c-.067.4-.1.734-.1 1a2.045 2.045 0 0 0 0 .9c0 .267.1.5.3.7.133.133.333.233.6.3.333.067.6.033.8-.1.2-.133.367-.333.5-.6l.2-.8c.066-.267.133-.6.2-1 .067-.467.133-.833.2-1.1a3.32 3.32 0 0 0-.1-.8c0-.333-.067-.6-.2-.8a2.224 2.224 0 0 0-.7-.3Zm-18.4 41.7c1 .1 2 .2 1.3 3.3-.6 2.7-1.6 2.8-3 2.7l-.6-.1 1.4-6 .9.1Zm-.2.7-1.1 4.7c1.3.1 1.5-1.2 1.8-2.2.2-.9.7-2.5-.7-2.5Z" clip-rule="evenodd"/>
  <path fill="#FEFEFE" d="m40 130.5-.1.7-1.4-.1-.4 1.8 1.2.1-.2.7-1.2-.1-.5 2.1 1.4.1-.2.7-2.1-.2 1.4-6 2.1.2Zm2.7.2-1.2 5.3 1.3.1-.1.7-2.2-.2 1.4-6 .8.1Z"/>
  <path fill="#FEFEFE" fill-rule="evenodd" d="m45.9 130.9-.1 6.1-.9-.1.1-1.2h-1.2l-.5 1.1-.8-.1 2.7-5.8h.7Zm-.8 3.3.2-2.2-1.2 3 1 .1v-.9Z" clip-rule="evenodd"/>
  <path fill="#ED4A97" d="M76.9 148 0 142.2l.6-4.6 76.8 5.8-.5 4.6Z"/>
  <path fill="#FEFEFE" fill-rule="evenodd" d="m1.6 143.7 1.6-7.4 2.9.3c1.133.066 1.967.466 2.5 1.2.533.733.7 1.633.5 2.7-.267 1.067-.8 1.933-1.6 2.6-.867.6-1.867.867-3 .8l-2.9-.2Zm3.4-5.1-.7 3.2.8.1c.4 0 .767-.133 1.1-.4.333-.267.533-.633.6-1.1.133-.467.1-.867-.1-1.2-.2-.334-.5-.5-.9-.5l-.8-.1Z" clip-rule="evenodd"/>
  <path fill="#FEFEFE" d="m12.6 139.1-.2.7 2.9.3-.4 1.9-2.9-.3-.1.7 3.1.2-.4 2.1-5.4-.4 1.6-7.4 5.4.4-.5 2.1-3.1-.3Zm7.4 5.1h-.6l-.9-2.3-.6 3-2.3-.2 1.6-7.3 2.1.1 1.2 3 2.5-2.7 2.1.2-1.6 7.3-2.3-.1.7-3.1-1.9 2.1Z"/>
  <path fill="#FEFEFE" fill-rule="evenodd" d="M30.1 138.2c1.067.066 1.9.5 2.5 1.3.6.8.8 1.733.6 2.8-.267 1.066-.867 1.933-1.8 2.6-.867.733-1.867 1.033-3 .9-1.133-.067-1.967-.5-2.5-1.3-.6-.8-.8-1.734-.6-2.8a4.598 4.598 0 0 1 1.7-2.601 4.714 4.714 0 0 1 3.1-.899Zm-1.2 5.6c.4 0 .8-.167 1.2-.5.4-.267.633-.667.7-1.201.133-.466.067-.866-.2-1.199-.2-.4-.533-.6-1-.6a1.341 1.341 0 0 0-1.2.4c-.4.333-.667.733-.8 1.2-.067.466 0 .9.2 1.3.267.333.633.533 1.1.6Z" clip-rule="evenodd"/>
  <path fill="#FEFEFE" d="M41.8 143.6c-.4.866-1.033 1.6-1.9 2.2-.867.533-1.767.767-2.7.7-1.133-.067-2-.5-2.6-1.3-.6-.8-.767-1.733-.5-2.8.2-1.067.767-1.934 1.7-2.6.933-.734 1.933-1.033 3-.9 1 .067 1.8.433 2.4 1.1.6.667.867 1.467.8 2.4l-2.4-.2c0-.334-.133-.634-.4-.9-.2-.2-.467-.333-.8-.4-.467 0-.9.167-1.3.5-.333.267-.567.666-.7 1.2-.133.466-.066.866.2 1.2.267.4.6.6 1 .6.334.067.667 0 1-.2.334-.2.6-.467.8-.8l2.4.2Z"/>
  <path fill="#FEFEFE" fill-rule="evenodd" d="m48.6 147.2-2.7-.2-1.2-1.9-.2-.1-.4 1.9-2.2-.2 1.6-7.4 3.1.3c.1 0 .2 0 .5.1.4.1.8.2 1.2.5.3.4.6.7.7 1.3.067.333.033.7-.1 1.1-.2 1-.767 1.7-1.7 2.1l1.4 2.5Zm-3.3-5.6L45 143l.9.1c.4 0 .633-.233.7-.7.1-.4-.1-.7-.4-.7l-.9-.1Zm10.2-1.4 1.1 7.6-2.4-.2-.1-.8-2.4-.1-.4.7-2.4-.2 4.3-7.1 2.3.1Zm-2.6 4.4 1 .1-.2-1.6-.8 1.5Z" clip-rule="evenodd"/>
  <path fill="#FEFEFE" d="M65.3 145.3a4.703 4.703 0 0 1-1.9 2.2c-.8.6-1.7.866-2.7.8-1.133-.134-1.967-.6-2.5-1.4-.6-.734-.8-1.634-.6-2.7.267-1.067.834-1.967 1.7-2.7a4.715 4.715 0 0 1 3.1-.901c.934.067 1.7.434 2.3 1.101.6.666.9 1.5.9 2.5l-2.4-.2c-.067-.4-.233-.701-.5-.901a.951.951 0 0 0-.8-.399c-.466 0-.867.133-1.2.399a2.4 2.4 0 0 0-.8 1.201c-.066.466 0 .899.2 1.299.267.334.633.534 1.1.601.267 0 .567-.1.9-.3.334-.2.6-.467.8-.801l2.4.201Zm.2 3.2 1.5-7.4 2.3.2-1.6 7.3-2.2-.1Z"/>
  <path fill="#FEFEFE" fill-rule="evenodd" d="m75 141.7 1.1 7.6-2.4-.2-.1-.8-2.4-.2-.4.8-2.4-.2 4.3-7.2 2.3.2Zm-2.6 4.4 1 .1-.2-1.6-.8 1.5Z" clip-rule="evenodd"/>
  <path fill="#ED4A97" d="m88.6 130.4-87.8-7 .6-4.6 87.8 7-.6 4.6Z"/>
  <path fill="#FEFEFE" fill-rule="evenodd" d="m9.1 125.6-2.7-.2-1.2-2H5l-.4 1.8-2.2-.1 1.6-7.4 3.1.2s.1 0 .5.1c.4.2.7.3 1.1.6.4.3.7.7.8 1.3 0 .333-.033.667-.1 1-.2 1.067-.767 1.8-1.7 2.2l1.4 2.5ZM5.8 120l-.3 1.3.8.1c.467.067.733-.134.8-.6.1-.5-.1-.7-.5-.8h-.8Z" clip-rule="evenodd"/>
  <path fill="#FEFEFE" d="m13.1 120.5-.2.7 3 .2-.5 1.9-2.9-.2-.1.6 3.1.2-.4 2.1-5.4-.4 1.6-7.3 5.4.4-.4 2-3.2-.2Zm4.8 3c.466.6 1 .9 1.6.9.4.067.633-.034.7-.3.067-.067-.034-.167-.3-.3a4.439 4.439 0 0 0-.8-.4 2.654 2.654 0 0 1-.9-.6c-.334-.2-.6-.467-.8-.8a2.019 2.019 0 0 1-.1-1.1c.066-.467.333-.933.8-1.4.5-.5 1.4-.8 2.5-.7.8.1 1.5.4 1.8.7.4.3.7.7.8.9l.1.2-1.8 1.1c-.2-.334-.4-.567-.6-.7a9.603 9.603 0 0 0-.7-.2c-.4 0-.6.1-.6.3-.1.2.3.4.8.6.2.133.466.266.8.4.267.133.5.3.7.5.267.2.433.467.5.8.133.267.167.6.1 1-.1.4-.4.9-1 1.4-.5.5-1.4.7-2.5.7-.867-.067-1.534-.334-2-.8-.467-.4-.767-.8-.9-1.2l1.8-1Zm7.9-2.1-2.1-.1.5-2.1 6.3.5-.4 2.1-2.1-.2-1.2 5.3-2.2-.2 1.2-5.3Z"/>
  <path fill="#FEFEFE" fill-rule="evenodd" d="m34.6 120 1.1 7.6-2.4-.2-.1-.8-2.4-.2-.4.8-2.4-.2 4.3-7.2 2.3.2Zm-2.6 4.4 1 .1-.1-1.6-.9 1.5Z" clip-rule="evenodd"/>
  <path fill="#FEFEFE" d="M39.2 128c-.1 0-.2 0-.6-.2-.4-.1-.7-.2-1.2-.5-.4-.4-.6-.8-.7-1.5a3.042 3.042 0 0 1 0-1.1l1-4.5 2.2.2-1 4.5s0 .1.1.3v.3c.1.2.3.4.7.4.267 0 .467-.067.6-.2.2-.134.333-.267.4-.4l.1-.3 1-4.5 2.2.2-1 4.5c-.1.8-.6 1.5-1 1.9-.267.2-.5.366-.7.5-.8.3-1.6.4-1.9.4h-.2Z"/>
  <path fill="#FEFEFE" fill-rule="evenodd" d="m50.2 128.6-2.7-.2-1.2-1.9h-.2l-.4 1.8-2.2-.2 1.6-7.3 3.1.2c.1 0 .1 0 .5.1s.8.3 1.2.6c.3.3.6.6.7 1.3 0 .267-.033.6-.1 1-.2 1-.767 1.733-1.7 2.2l1.4 2.4Zm-3.3-5.7-.3 1.4.9.1c.4 0 .633-.2.7-.6.1-.5-.1-.8-.4-.8l-.9-.1Zm10.2-1.2 1.1 7.5-2.4-.1-.1-.8-2.4-.2-.4.7-2.4-.1 4.3-7.2 2.3.2Zm-2.6 4.4 1 .1-.2-1.6-.8 1.5Z" clip-rule="evenodd"/>
  <path fill="#FEFEFE" d="M66.9 126.7c-.4.933-1.033 1.7-1.9 2.3-.867.533-1.767.766-2.7.7-1.133-.067-2-.5-2.6-1.3-.533-.8-.7-1.734-.5-2.8a4.596 4.596 0 0 1 1.7-2.6c.933-.733 1.933-1.034 3-.9 1 .066 1.8.433 2.4 1.1.6.666.867 1.466.8 2.4l-2.3-.2a1.745 1.745 0 0 0-.5-.9c-.2-.2-.467-.334-.8-.4-.467 0-.9.166-1.3.5-.333.266-.567.666-.7 1.2-.067.466 0 .867.2 1.2.267.4.6.6 1 .6.333.066.667 0 1-.2.333-.2.6-.467.8-.8l2.4.1Zm.1 3.2 1.6-7.4 2.3.2-1.6 7.4-2.3-.2Z"/>
  <path fill="#FEFEFE" fill-rule="evenodd" d="M75.9 122.9c1.067.133 1.9.6 2.5 1.4.6.8.767 1.733.5 2.8-.2 1.066-.767 1.933-1.7 2.6-.867.666-1.867.966-3 .9-1.133-.067-1.967-.5-2.5-1.3-.6-.8-.8-1.733-.6-2.8.267-1.067.833-1.967 1.7-2.7a4.709 4.709 0 0 1 3.1-.9Zm-1.2 5.6c.4.067.8-.067 1.2-.4.4-.334.633-.733.7-1.2.133-.467.067-.9-.2-1.3-.2-.334-.533-.533-1-.6-.467 0-.867.133-1.2.4-.4.333-.667.733-.8 1.2-.067.533 0 .967.2 1.3.267.4.633.6 1.1.6Zm2.4-6-2.3-.2 1.5-1.8 2.5.1-1.7 1.9Z" clip-rule="evenodd"/>
  <path fill="#FEFEFE" d="m87.4 123.9-1.6 7.4-2-.1-1.7-3.4-.7 3.2-2.2-.2 1.6-7.4 2 .2 1.7 3.4.7-3.2 2.2.1Z"/>
  <path fill="#ED4A97" d="m51.7 116.1-42.5-3.9.6-4.6 42.5 3.9-.6 4.6Z"/>
  <path fill="#FEFEFE" d="M55.2 111.5v2.8l.3-.7 1.1-2 .8.1-2 3.3-.6 2.5H54l.6-2.6-.3-3.5.9.1Z"/>
  <path fill="#FEFEFE" fill-rule="evenodd" d="M60.1 111.9c.9.1 2 .3 1.2 3.3-.7 2.8-1.7 2.8-3.1 2.7l-.6-.1 1.6-6 .9.1Zm-.3.7-1.2 4.6c1.3.2 1.6-1 1.9-2.1.2-.9.7-2.4-.7-2.5Z" clip-rule="evenodd"/>
  <path fill="#FEFEFE" d="m62 118.2-.8-.1 1.5-5.9h.8l-1.5 6Zm1.1-6.2-.3-.3.9-1.1.5.4-1.1 1Z"/>
  <path fill="#FEFEFE" fill-rule="evenodd" d="m65.8 112.5-.2 6h-.8v-1.2l-1.2-.1-.5 1.1-.8-.1 2.8-5.8.7.1Zm-.8 3.3.2-2.2-1.2 3 .9.1.1-.9Zm4.7-3c1 .1 2.1.3 1.3 3.3-.7 2.7-1.7 2.8-3.1 2.7l-.6-.1 1.5-6 .9.1Zm-.2.7-1.2 4.6c1.3.2 1.6-1.1 1.8-2.1.3-.9.8-2.5-.6-2.5Z" clip-rule="evenodd"/>
  <path fill="#FEFEFE" d="m74.5 113.3-.1.6-1.4-.1-.5 1.9 1.2.1-.1.7-1.2-.1-.5 2 1.3.1-.2.7-2.1-.2 1.5-5.9 2.1.2Zm2.7.2-1.3 5.3 1.3.1-.1.7-2.2-.2 1.5-6 .8.1Z"/>
  <path fill="#FEFEFE" fill-rule="evenodd" d="m80.4 113.8-.3 6.1-.8-.1.1-1.2-1.2-.1-.5 1.1h-.8l2.8-5.9.7.1Zm-.8 3.4.2-2.2-1.2 2.9.9.1.1-.8ZM21 97.1c1 .1 2 .3 1.3 3.3-.7 2.8-1.7 2.8-3.1 2.7l-.6-.1 1.5-5.9h.9Zm-.2.6-1.2 4.6c1.3.2 1.5-1 1.8-2 .2-1 .7-2.5-.6-2.6Z" clip-rule="evenodd"/>
  <path fill="#FEFEFE" d="m25.8 97.6-.2.7-1.3-.1-.5 1.8 1.2.1-.2.7-1.2-.1-.5 2 1.4.2-.2.7-2.2-.2 1.6-6 2.1.2Zm2.6 1.1c-.2-.1-.3-.2-.5-.2-1.1-.1-1.5 1.5-1.7 2.199-.2.8-.5 2.3.6 2.4.133 0 .3-.033.5-.099l-.2.699c-.267.134-.5.167-.7.101-1.6-.1-1.4-1.901-1.1-3.101.3-1.2 1-3.2 2.6-3 .3 0 .5.1.7.2l-.2.8Zm1.4-.7-1.3 5.2 1.3.2-.2.6-2.1-.2 1.5-5.9.8.1Z"/>
  <path fill="#FEFEFE" fill-rule="evenodd" d="m32.9 98.2-.2 6.1h-.8l.1-1.2-1.2-.1-.5 1.1-.8-.1 2.8-5.8h.6Zm-.8 3.3.2-2.2-1.3 3 1 .1.1-.9Zm2.5-3.1.9.1c.6 0 1.5.2 1.2 1.6-.2.6-.6 1.4-1.3 1.5l.4 3-.8-.1-.4-3-.7 2.9h-.8l1.5-6Zm1.1 1.8c.2-.6.2-1-.4-1.1h-.1l-.5 2c.6.1.9-.3 1-.9Z" clip-rule="evenodd"/>
  <path fill="#FEFEFE" fill-rule="evenodd" d="m39.2 98.8-.2 6.1-.8-.1.1-1.2-1.3-.1-.5 1.2-.8-.1 2.9-5.8h.6Zm-.9 3.3.3-2.2h-.1l-1.2 3 1 .1v-.9Z" clip-rule="evenodd"/>
  <path fill="#FEFEFE" d="M43 100c-.2-.1-.3-.2-.5-.2-1.1-.1-1.5 1.499-1.7 2.299-.2.7-.5 2.201.6 2.301.133.066.3.066.5 0l-.2.699a2.93 2.93 0 0 1-.7.101c-1.6-.2-1.4-1.9-1.1-3.2.3-1.2 1-3.1 2.6-3 .3.1.5.1.7.3l-.2.7Zm-.1 5.3-.8-.1 1.5-6 .8.1-1.5 6Z"/>
  <path fill="#FEFEFE" fill-rule="evenodd" d="M47.4 102.6c-.3 1.1-.8 3.1-2.3 2.9-1.6-.1-1.1-2.1-.8-3.2.2-1 .8-3 2.3-2.9 1.6.2 1.1 2.1.8 3.2Zm-2.3-.2c-.3 1.3-.5 2.3.2 2.4.6.1.9-1 1.3-2.3.3-1.2.5-2.3-.2-2.3-.6-.1-1 .9-1.3 2.2Zm1.6-3.2-.4-.2 1-1.1.4.3-1 1Z" clip-rule="evenodd"/>
  <path fill="#FEFEFE" d="m49 101.5-.4 2-.5 2.2h-.8l1.5-6 .8.1.2 4.6h.1l.4-2.4.5-2.1.8.1-1.5 5.9-.8-.1-.2-4.7-.1.4Z"/>
  <path fill="#FEFEFE" fill-rule="evenodd" d="M54.7 100.2c1 .1 2 .3 1.3 3.3-.7 2.8-1.7 2.8-3.1 2.7l-.6-.1 1.5-5.9h.9Zm-.2.6-1.2 4.6c1.3.2 1.6-1 1.8-2 .3-1 .7-2.5-.6-2.6Z" clip-rule="evenodd"/>
  <path fill="#FEFEFE" d="m59.5 100.7-.1.7-1.4-.2-.5 1.9 1.2.1-.1.7-1.3-.1-.5 2 1.4.2-.2.6-2.1-.2 1.5-5.9 2.1.2Zm2.7.2-1.3 5.3 1.3.1-.2.7-2.1-.2 1.5-5.9h.8Z"/>
  <path fill="#FEFEFE" fill-rule="evenodd" d="M66.1 104.3c-.3 1.1-.8 3.1-2.4 3-1.5-.2-1-2.2-.8-3.3.3-1 .8-3 2.4-2.9 1.5.2 1.1 2.2.8 3.2Zm-2.3-.2c-.3 1.3-.5 2.3.1 2.4.7.1 1-1 1.3-2.2.4-1.3.5-2.4-.1-2.4-.6-.1-1 1-1.3 2.2Z" clip-rule="evenodd"/>
  <path fill="#FEFEFE" d="M69.1 102.5c-.2-.2-.3-.301-.6-.301-.5-.1-.8.301-.9.701-.1.2-.1.399 0 .699l.5.701c.4.6.6.999.4 1.799-.2.8-.9 1.501-1.8 1.401-.3 0-.6-.101-.8-.301l.2-.799c.2.2.4.299.7.299.5.1.8-.299.9-.699.3-1.2-1.3-1.6-.9-3.2.2-.8.8-1.5 1.7-1.4.334.066.6.166.8.299l-.2.801Z"/>
  <path fill="#FEFEFE" fill-rule="evenodd" d="m11.1 113.9 1.8-7.4 2.9.3c1.133.066 1.967.5 2.5 1.3.533.733.667 1.633.4 2.7-.267 1.066-.833 1.9-1.7 2.5-.8.666-1.767.933-2.9.8l-3-.2Zm3.5-5-.8 3.2h.8c.4.066.767-.034 1.1-.3.333-.267.533-.634.6-1.1.133-.467.1-.867-.1-1.2-.133-.333-.433-.533-.9-.6h-.7Zm4.2 5.7 1.7-7.4 2.9.3c1.133.067 1.967.5 2.5 1.3.533.733.667 1.633.4 2.7-.267 1.067-.8 1.9-1.6 2.5-.867.667-1.867.933-3 .8l-2.9-.2Zm3.5-5-.8 3.2h.8c.4.066.767-.033 1.1-.3.333-.267.567-.633.7-1.1.067-.467.033-.867-.1-1.2-.2-.334-.533-.534-1-.6h-.7Z" clip-rule="evenodd"/>
  <path fill="#FEFEFE" d="M26.8 113.3c.267-.2.6-.3 1-.3.333.067.6.2.8.4.133.267.167.6.1 1a1.28 1.28 0 0 1-.5.8c-.333.2-.667.3-1 .3a1.28 1.28 0 0 1-.8-.5c-.2-.2-.267-.5-.2-.9.133-.334.333-.6.6-.8Zm9.2 2.8.6-2.3-1.9-.2-.5 2.4-2.2-.2 1.7-7.4 2.2.2-.7 3 1.8.1.7-2.9 2.3.2-1.8 7.4-2.2-.3Zm7.5.7.5-2.3-1.8-.2-.6 2.4-2.2-.2 1.7-7.4 2.3.2-.7 3 1.8.1.7-2.9 2.2.2-1.7 7.3-2.2-.2Zm4.2-1.6c.267-.2.567-.3.9-.3.4.067.667.233.8.5.2.267.267.566.2.9-.067.333-.267.6-.6.8-.267.2-.566.3-.9.3-.4 0-.666-.133-.8-.4a1.083 1.083 0 0 1-.2-.9c.067-.4.267-.7.6-.9Z"/>
</svg>
