<svg xmlns="http://www.w3.org/2000/svg" width="87" height="101" fill="none" viewBox="0 0 87 101">
  <path fill="#ED2930" d="m78.2 96.679-73.9 4.1-4.3-68.3 74.2-3.8 4 68Z"/>
  <path fill="#9B181B" d="m0 32.479 74.2-3.8 8.6-6.7-71.8 4-11 6.5Z"/>
  <path fill="#66141B" d="m78.2 96.679 8.5-9.9-3.9-64.8-8.6 6.7 4 68Z"/>
  <mask id="a" width="13" height="75" x="74" y="22" maskUnits="userSpaceOnUse" style="mask-type:luminance">
    <path fill="#fff" d="m78.24 96.659 8.47-9.91-3.89-64.73-8.61 6.65 4.03 67.99Z"/>
  </mask>
  <g mask="url(#a)">
    <path stroke="#ED2930" stroke-width=".4" d="m86.4 150.479 21.1-115.4m-23.4 111.2 21.1-115.4m-23.3 111.2 21.1-115.4m-23.4 111.2 21.1-115.4m-23.3 111.2 21.1-115.4m-23.4 111.2 21.1-115.4m-23.3 111.2L94 9.879m-23.4 111.2 21.1-115.4m-23.3 111.2 21.1-115.4m-23.4 111.2 21.1-115.4m-23.3 111.2L85-6.921m-23.4 111.2 21.1-115.4m-23.3 111.2 21.1-115.4m-23.4 111.2 21.1-115.4m-23.3 111.2L76-23.721M48.1 79.08l47.3 88.199M49.1 73.58l47.3 88.199M50.1 68.08l47.3 88.199M51.1 62.58l47.3 88.199M52.2 57.08l47.2 88.199M53.2 51.58l47.2 88.199M54.2 46.08l47.2 88.199M55.2 40.58l47.2 88.199m-46.2-93.6 47.2 88.1m-46.2-93.6 47.2 88.2m-46.2-93.7 47.2 88.2m-46.2-93.7 47.2 88.2m-46.2-93.7 47.2 88.2m-46.2-93.7 47.2 88.2m-46.2-93.7 47.2 88.2m-46.2-93.7 47.2 88.2m-46.2-93.7 47.2 88.2m-46.2-93.7 47.2 88.2m-46.2-93.7 47.2 88.2m-46.2-93.7 47.2 88.2m-46.2-93.7 47.2 88.2m-46.2-93.7 47.3 88.2"/>
  </g>
  <path fill="#EFD21D" d="m57.2 83.879.8 1.3h1.6c.1 0 .1.1.1.1l-1 1.2v.1l.4 1.4c.1.1 0 .1 0 .1l-1.5-.5-1.3.9s-.1 0-.1-.1l.1-1.5v-.1l-1.3-.9s0-.1.1-.1l1.4-.4h.1l.5-1.5h.1Zm-34.2 2.2 1.5-.2h.1l.7-1.3c0-.1.1-.1.1 0l.6 1.4h.1l1.5.3v.1l-1.2 1v.1l.2 1.5s0 .1-.1.1l-1.3-.8c0-.067-.033-.067-.1 0l-1.3.6c-.1 0-.1 0-.1-.1l.3-1.5-1-1.1c-.1-.1-.1-.1 0-.1Zm-15 6.7 1.6-.1v-.1l.8-1.3c0-.1 0-.1.1 0l.6 1.4 1.5.3c.1.1.1.1 0 .1l-1.1 1.1.1 1.5v.1l-1.4-.8-1.4.6c-.1.1-.1 0-.1 0l.3-1.5c.067-.067.067-.1 0-.1l-1-1.1v-.1Zm26.6-.9 1.3.5h.1l1.1-.8h.1l-.1 1.4h.1l1.1.9v.1l-1.4.3v.1l-.5 1.3h-.1l-.7-1.2h-1.4c-.1 0-.1 0-.1-.1l.9-1.1-.4-1.3v-.1Zm32.7-2 1.4-.9v-1.7s.1-.1.1 0l1.3 1 1.6-.5h.1l-.6 1.6 1 1.3c0 .1 0 .1-.1.1h-1.6l-1 1.3c0 .1-.1 0-.1 0l-.5-1.6-1.5-.5c-.1 0-.1-.1-.1-.1Z"/>
  <path fill="#FEF3DD" d="M55.6 93.58c.1.3-.2.599-.5.699-.4 0-.7-.2-.7-.6-.1-.3.2-.6.5-.7.4 0 .7.2.7.6Zm-10.3-7.401c.1.3-.2.7-.6.7-.3.1-.7-.2-.7-.6-.1-.3.2-.7.6-.7.4-.1.7.2.7.6Zm27.6-4.5c.1.4-.2.8-.6.8-.4.1-.7-.2-.8-.6 0-.4.2-.7.6-.8.4 0 .8.3.8.6Zm-59 4.5c.1.3-.2.6-.5.7-.4 0-.7-.2-.7-.6-.1-.3.2-.6.5-.7.4 0 .7.2.7.6Zm7.3 8.5c0 .3-.2.6-.5.7-.4 0-.7-.2-.7-.6-.1-.3.2-.6.5-.7.3 0 .7.2.7.6Z"/>
  <path fill="#EFD21D" d="m10.2 51.279 1.2.9h.1l1.4-.6c.1 0 .1.1.1.1l-.5 1.5h.1l.9 1.2v.1l-1.6.1-.9 1.3h-.1l-.5-1.5-1.5-.4v-.1l1.2-1v-1.5c0-.1 0-.1.1-.1Zm40.7 1.5 1.4.6h.1l1.3-.9v1.6l1.2.9c.1.1.1.1 0 .1l-1.5.4v.1l-.5 1.4c0 .1-.1.1-.1 0l-.9-1.2v-.1h-1.5c-.1 0-.1 0-.1-.1l1-1.2-.5-1.5c0-.1.1-.1.1-.1Zm9.7-.3 1-.8-.1-1.3h.1l1 .7h.1l1.1-.5h.1l-.3 1.3.8.9c0 .1 0 .1-.1.1l-1.2.1-.7 1.1h-.1l-.4-1.2-1.3-.3v-.1Z"/>
  <path fill="#FEF3DD" d="M16.5 59.279c-.1.3-.4.6-.8.6-.4-.1-.6-.4-.6-.8.1-.4.4-.7.8-.6.4 0 .6.4.6.8Zm32.2-11.5c0 .3-.2.5-.5.6-.3 0-.5-.2-.5-.5-.1-.2.1-.5.4-.5.3-.1.5.1.6.4Zm23.5 2.6c0 .2-.2.5-.4.5-.3.1-.6-.1-.6-.4 0-.3.2-.5.4-.6.3 0 .6.2.6.5Z"/>
  <path fill="#1C1C1A" d="M22.5 59.979c.2 1.9 6 2.9 13 2.3 7.1-.6 12.6-2.6 12.5-4.4-.2-1.9-6-2.9-13-2.3-7 .6-12.6 2.6-12.5 4.4Z" opacity=".2"/>
  <path fill="#AB795A" stroke="#050505" stroke-linecap="round" stroke-linejoin="round" stroke-width=".4" d="M45.3 31.98c.3-.6 1.5-2.8 2.1-3.5.8-.8 1.8-.5 2.8.1 1.2.8 1.7 1.799 1.2 3.199-.2.5-1.1 1.7-1.6 2.4-.4.8-1.8 2.4-3.6 1.3-1.9-1.1-1.3-2.8-.9-3.5Z"/>
  <path fill="#050505" d="M49.8 34.179c-.4.8-1.8 2.4-3.6 1.3-1.9-1.1-1.2-3.1-.8-3.7 1.4.2 2.8 1.2 4.4 2.4Z" opacity=".2" style="mix-blend-mode:multiply"/>
  <path fill="#AB795A" d="m45.8 31.479-.1-1.2c-.1-.5.3-1 .7-1 .5-.1.7.2.8.4.2.4.3.7.3.7"/>
  <path stroke="#050505" stroke-linecap="round" stroke-linejoin="round" stroke-width=".4" d="m45.8 31.479-.1-1.2c-.1-.5.3-1 .7-1 .5-.1.7.2.8.4.2.4.3.7.3.7"/>
  <path fill="#050505" d="M47.4 29.58s.4.299.5.699c.1.5.1.8.3 1 .2.1 1.3.9 1.6.7.4-.1 1.6-1.4.9-2.2-.6-.7-2.2-1.8-3-1.1-.7.7-.3.9-.3.9Z" opacity=".2" style="mix-blend-mode:multiply"/>
  <path fill="#F5F6F7" stroke="#050505" stroke-linecap="round" stroke-linejoin="round" stroke-width=".4" d="M49.8 34.679c-.9 1.2-1.6 2.2-2.6 3.6-1.8 2.5-3.7 3.6-3.7 3.6-1.6 1.1-3.5.9-4.6-.4l-.3-.5c-1-1.2-1.1-3.1.8-4.5 0 0 1.7-1.4 2.9-3.1.9-1.2 1.9-2.7 1.9-2.7l5.6 4Z"/>
  <path fill="#0A0C0F" d="M49.8 34.679c-.9 1.2-1.6 2.2-2.6 3.6-1.8 2.5-3.7 3.6-3.7 3.6-1.6 1.1-3.5.9-4.6-.4l-.3-.5a1.568 1.568 0 0 1-.3-.4h.5s2.2 1.1 4.7-1.4c1.7-1.7 3.4-4.3 4.4-5.9l1.9 1.4Z" opacity=".3"/>
  <path fill="#C02F2D" stroke="#050505" stroke-linecap="round" stroke-linejoin="round" stroke-width=".4" d="M30.6 40.98c.5 4.4-2.8 8.299-7.2 8.799-4.4.4-8.3-2.8-8.8-7.2-.4-4.4 2.8-8.3 7.2-8.8 4.4-.4 8.4 2.8 8.8 7.2Z"/>
  <path fill="#050505" stroke="#050505" stroke-linecap="round" stroke-linejoin="round" stroke-width=".4" d="M42.1 56.079s.2 1.6 2.2 1.9l-9.6 1-.3-2.1c0-1.1-.2-3.2 3.7-3.6 3.6-.3 3.5.9 4 2.8Z"/>
  <path fill="#2B6EB6" stroke="#050505" stroke-linecap="round" stroke-linejoin="round" stroke-width=".4" d="m32.4 48.679 1.6 8.5 8.8-.8-.2-8.5c0-1.1-.1-4.5-5.7-3.8-4.9.6-4.6 3.4-4.5 4.6Z"/>
  <path fill="#0A0C0F" d="M42.3 46.979c.5 2 .3 9.4.3 9.4l-2.1.2-.7-12.5c.3.1 1.8.1 2.5 2.9Z" opacity=".3"/>
  <path fill="#050505" stroke="#050505" stroke-linecap="round" stroke-linejoin="round" stroke-width=".4" d="M33.8 56.98s.2 1.499 2.3 1.799l-9.7 1-.2-2.1c-.1-1-.3-3.2 3.6-3.6 3.6-.3 3.5 1 4 2.9Z"/>
  <path fill="#2B6EB6" stroke="#050505" stroke-linecap="round" stroke-linejoin="round" stroke-width=".4" d="m24.2 49.579 1.6 8.4 8.8-.7-.2-8.5c0-1.2-.1-4.5-5.7-3.8-4.9.6-4.7 3.4-4.5 4.6Z"/>
  <path fill="#0A0C0F" d="M34.1 47.879c.5 2 .3 9.4.3 9.4l-2.1.2-.7-12.5c.3.1 1.8.1 2.5 2.9Z" opacity=".3"/>
  <path fill="#F5F6F7" stroke="#050505" stroke-linecap="round" stroke-linejoin="round" stroke-width=".4" d="M31.8 34.379c4.7-.1 6.4.4 7.6.6 1.5.3 3.3 1.6 3.3 3.1s.2 2.5 1.1 5.9c.8 3.1 2.1 5.1 2.1 5.7-.5 1.8-7.3 3.9-9.4 4.3-5.8.8-8.7-.5-12.7-.2-3.2.3-3.6-.1-3.9-.4-1-1.1 1.8-16.5 1.8-16.5s.4-.6 1.5-1.1c1.9-1 6.6-1.4 8.6-1.4Z"/>
  <path stroke="#050505" stroke-linecap="round" stroke-linejoin="round" stroke-width=".4" d="M29.3 48.08c0 2.1-1.4 3.199-3 3.399-1.7.2-3-.7-3-2.8v-2.3l6-.6v2.3Z"/>
  <path fill="#EE3D3B" d="m29.4 46.879-6.2.6 6.2-.6Z"/>
  <path stroke="#050505" stroke-linejoin="round" stroke-width=".4" d="m29.4 46.879-6.2.6"/>
  <path fill="#050505" d="M34.3 45.679c0 .3.3.6.6.5.4 0 .7-.3.7-.6 0-.4-.3-.6-.7-.6-.3 0-.6.3-.6.7Zm.5 2.7c0 .3.3.5.7.5.3 0 .6-.3.6-.7 0-.3-.3-.6-.6-.5-.4 0-.7.3-.7.7Zm.8 2.6c0 .3.2.6.6.6.3-.1.6-.4.6-.7 0-.4-.3-.6-.6-.6-.4.1-.6.4-.6.7Z"/>
  <path fill="#FEFEFE" d="M35.8 43.279s0 1.6.9 4.8c.8 3.1 1 5.3 1 5.3"/>
  <path stroke="#050505" stroke-linecap="round" stroke-linejoin="round" stroke-width=".4" d="M35.8 43.279s0 1.6.9 4.8c.8 3.1 1 5.3 1 5.3"/>
  <path fill="#9FC8EA" d="m35.5 42.879.5-.2.7-4.8s.3-3.1-4.6-2.9c-4.4.3-1.8 3.7.1 5 1.4 1 3.3 2.9 3.3 2.9Z"/>
  <mask id="b" width="8" height="10" x="38" y="41" maskUnits="userSpaceOnUse" style="mask-type:luminance">
    <path fill="#fff" d="m43 41.679 2.69 7.81-4.8 1.1-2.12-6.98 4.23-1.93Z"/>
  </mask>
  <g mask="url(#b)">
    <path stroke="#050505" stroke-linecap="round" stroke-linejoin="round" stroke-width=".4" d="M48.4 44.679c.5 2-.6 3.4-2.3 3.9-1.6.5-3.1 0-3.5-2l-.5-2.2 5.9-1.9.4 2.2Z"/>
    <path fill="#EE3D3B" d="m48.3 43.58-6 1.899 6-1.9Z"/>
    <path stroke="#050505" stroke-linejoin="round" stroke-width=".4" d="m48.3 43.58-6 1.899"/>
  </g>
  <path fill="#DFDFDF" d="M22.4 47.179s-.3 1.9-.3 3.3v3.3s-2.2.4-2.4-1c-.3-1.4.5-6.3.5-6.3s1.5.9 2.2.7Zm13.4-2.3c.1.7-.3-.1-.6-.4-.3-.3-.4-.7-.4-.7s-3-1-4-1.2l.3-.6s-2-.2-2.4-.3c-.4-.1.2-5.4.5-6.4 0 0 .4 2.4 1.7 3.6 1.2 1.2 3.7 2.8 4.1 3.4.5.7.7 1.5.8 2.6Z" style="mix-blend-mode:multiply"/>
  <path fill="#F5F6F7" d="M29 35.679c.1 1.7.6 5.6.6 5.6h3.7l-.7 1 3.2 1.1-.1-.7s-1.8-2.2-2.6-2.6c-.7-.5-3.2-2.6-3.3-4.8"/>
  <path stroke="#050505" stroke-linecap="round" stroke-linejoin="round" stroke-width=".4" d="M29 35.679c.1 1.7.6 5.6.6 5.6h3.7l-.7 1 3.2 1.1-.1-.7s-1.8-2.2-2.6-2.6c-.7-.5-3.2-2.6-3.3-4.8"/>
  <path fill="#DFDFDF" d="M36.7 35.679s2.8 2.5 3.6 5l-1.7.4s.8.2.8.4c-.1.1-2.1 1.5-2.5 1.9-.3.3.1 1.4-.2 1.3-.4 0-.1-1.3-.4-1.3-.4 0 .3-1.5.3-1.5s1.3-2.7.7-3.8c-.6-1.2-.6-2.4-.6-2.4Z" style="mix-blend-mode:multiply"/>
  <path fill="#F5F6F7" d="M36.4 35.179c1.5 1.5 3.1 5 3.1 5l-2 .5.6.4-2.2 2.4-.1-1s.7-2.1.9-2.8c.1-.7-.2-3-1-4.3"/>
  <path stroke="#050505" stroke-linecap="round" stroke-linejoin="round" stroke-width=".4" d="M36.4 35.179c1.5 1.5 3.1 5 3.1 5l-2 .5.6.4-2.2 2.4-.1-1s.7-2.1.9-2.8c.1-.7-.2-3-1-4.3"/>
  <path fill="#DFDFDF" d="M36 44.08s.5 1.799.9 2.899c.5 1.2.6 2.4.8 3.8.3 1.3.5 2.7.5 2.7l-.5-.3s-.7-3.2-1.1-5.1c-.4-1.9-.6-4-.6-4Zm8.9 4.799s-2.2.3-2.9-2.1c-.6-2.4-.1-2.4-.1-2.4s.1.3.4 1.4c.3 1.1.4 2.1 2.6 3.1Zm-15.4-3.1-.1 1-4.8.8s3.5-.1 3.9-.1c.3 0 .4 1.5.1 2.4 0 0-1.1 1.7-2.5 1.8-1.4.1-2.8-1-2.8-1s.8 1.5 2.8 1.6c2.1 0 3.8-1.6 4-3.9 0 0-.3.6-.5.9-.2.3.3-3.2-.1-3.5Z" style="mix-blend-mode:multiply"/>
  <path fill="#ED2D2F" stroke="#050505" stroke-linecap="round" stroke-linejoin="round" stroke-width=".4" d="M25.1 37.779c4 3.4.2 9.4-3.3 8.8-6.9-1.2-3.2-7.9-3.2-7.9s1.7-3.7 6.5-.9Zm17.6.3c0 1.2.1 2.1.6 4.1 0 0 .7 2.5 0 .1-.7-2.3-5.9-7.5-5.9-7.5.2-.1.8.3 1.2 0l.8.2c1.5.3 3.3 1.6 3.3 3.1Z"/>
  <path fill="#DFDFDF" d="M22.4 36.979s2.5 0 3.5 2.3c0 0-1.2-.6-1.9.9-.8 1.5-.2 3.2-1.4 4.3-1.1 1.1-.7 2.2-.2 2.2 0 0-.3.6-1.3.2-1-.5-1.4-.6-1.4-.6l-1.5-1.4-.8-2 1.5-5.2 3.1-.8.4.1Zm15.3-1.8s3.9 6.4 4.6 7.2c.6.8.5 1.7.5 1.7l.8-.4-.3-1.8-5.6-6.7Z" style="mix-blend-mode:multiply"/>
  <path fill="#AB795A" stroke="#050505" stroke-width=".4" d="M11.9 21.179c1 10 6.5 20.2 20.2 19.1 16-1.2 17-9.6 16-19.6-1-9.9-10-17.2-20-16.2-10.1 1-17.2 6.8-16.2 16.7Z"/>
  <path fill="#DFDFDF" d="M25.1 31.679c.1-.1.1 0 0 0Z" style="mix-blend-mode:multiply"/>
  <path fill="#DFDFDF" d="M11.9 21.179c-1-9.9 6.1-15.7 16.2-16.7 4.8-.5 9.3.9 12.8 3.6.1.4.1.6.1.6s-6.8 10.4-8 12.2c-1.1 1.8-2.8 4.6-4.8 6.4-2 1.7-3.1 2.2-3.1 4.4 0 0 .8 7.6 9.8 7.8l-.6.6c-.733.133-1.467.2-2.2.2-13.7 1.1-19.2-9.1-20.2-19.1Zm27 7.901s1 1.499 2.3 1.399c1.3-.1 1.4-1.8 1.4-1.8s-.6.9-1.3.9c-.6.1-2.4-.5-2.4-.5Z" style="mix-blend-mode:multiply"/>
  <path stroke="#050505" stroke-linecap="round" stroke-linejoin="round" stroke-width=".4" d="m42.6 28.779-.7.7c-.3.1-.8.2-1.2.1l-1.8-.4"/>
  <path stroke="#050505" stroke-linecap="round" stroke-width=".5" d="M32.4 23.779s-.9-.3-1.6 0c-.7.5-1.2 1.4-1.2 1.4m15.5-2.699s.8-.501 1.5-.201c.9.3 1.5 1 1.5 1"/>
  <path fill="#050505" d="M46.9 25.279c.1.8-.3 1.4-.8 1.5-.5 0-1-.6-1-1.3-.1-.8.2-1.5.7-1.5.6-.1 1 .5 1.1 1.3Z"/>
  <path fill="#FEFEFE" d="M45.5 24.58c0 .2.1.299.2.299.1-.1.2-.2.2-.3 0-.2-.1-.3-.2-.3-.1.1-.2.2-.2.3Z"/>
  <path fill="#FEFEFE" d="M45.5 24.58c0 .2.1.299.2.299.1-.1.2-.2.2-.3 0-.2-.1-.3-.2-.3-.1.1-.2.2-.2.3Z"/>
  <path fill="#050505" d="M30.9 26.779c.1.9.7 1.6 1.2 1.5.6 0 1-.8.9-1.7-.1-.8-.6-1.5-1.2-1.4-.6 0-1 .8-.9 1.6Z"/>
  <path fill="#FEFEFE" d="M31.3 25.879c0 .2.1.3.2.3s.2-.2.2-.3c0-.2-.1-.3-.2-.3-.2 0-.2.1-.2.3Z"/>
  <path fill="#050505" d="M19.1 5.08s2.8-3.501 5.8-4.401c3-1 3.2-.6 3.2-.6s-4.2.7-6.7 5"/>
  <path fill="#050505" d="M14.7 7.58s2.2-1.501.1-3.201c0 0 1.8-.2 2.1.8.3-1.2 1.2-3.3 4.7-4.4 0 0-1.9 2.3.1 2.6"/>
  <path fill="#221E1F" d="M11.8 23.179s-3-1.4-1.1 4c1 2.8 4.3 6 4.3 6l-3.2-10Z"/>
  <path fill="#050505" d="M44.8 9.479s5.6 3.6 7.2 10.4c.1.3-1.3-2.3-3.9-4.5m-29.6-10.6s-10.8 4.4-9.3 16.6c0 0 1.8-7.7 9.3-16.6Z"/>
  <path fill="#050505" d="M21.9 14.08c.4-.1-1.3 10.999-6.4 11.799-1.4-3.9.8-7.9.8-7.9-2 3.4-2.1 6.9-1.7 8-.9.3-3.3.5-4.8.2 0 0-3.8-21.6 19.8-23.3 0 0 14-2.1 21.4 16.8 0 0-.2.7-1.7 2-1.2 1-3-7.9-4.4-7.3"/>
  <path fill="#050505" d="M32.1 2.779c2.3.1 11.2.4 18.7 11.3 0 0-20.9-11.3-18.7-11.3Z"/>
  <path fill="#050505" d="M44.4 7.279s-14.7-13-28.6-.8c-13.8 12.2 28.6.8 28.6.8Zm-34.8 17.7s.2 3.9 2.3 6.8c2.2 2.9 2.7 3 2.7 3s-1.2-1.6-1.6-6.5m3.8 7.9s.9.6 1.9.3c.4-.1-1-1.4-1-1.4l-.9 1.1Z"/>
  <path fill="#050505" d="M35 4.479s10-1.6 15.5 15.6c0 0 .2.1-.8 1.2-.8.9-.9.9-1.8 1.4-.1-2.2-.9-3.2-4.3-6.4 0 0 3.6 3.5 3 6.9-9.5 3.9-14.9-2.2-14.9-2.2.3-.1-.3 5.3-5.5 4.7-1-3.6-.2-7.8-.2-7.8-1.3 3.1-1.4 5.3-1 7.8-.7.2-2.4-.2-3.5-.5 0 0-3.1-19.6 13.5-20.7Z"/>
  <path fill="#050505" d="M21.5 25.179s-5.3.7-3.2 10.7l-7-6.4s-4.5-10.2 1.9-18.3c6.4-8.1 6.9-2.5 6.9-2.5l3.9 1.8-2.5 14.7Z"/>
  <path fill="#050505" d="M25 25.679s-5.6 2.7-6.6 9.7c-.1 1-1.6.8-1.6.8s-3.6-2.8-4.2-6c-.7-3.1 6.7-8 6.7-8l5.7 3.5Z"/>
  <path fill="#AB795A" d="m21.4 32.38-1.3-1.101c-.2-.4-.3-.9 0-1.2.3-.2.6-.2.8-.1.4.1.7.4.7.4"/>
  <path stroke="#050505" stroke-linecap="round" stroke-linejoin="round" stroke-width=".4" d="m21.4 32.38-1.3-1.101c-.2-.4-.3-.9 0-1.2.3-.2.6-.2.8-.1.4.1.7.4.7.4"/>
  <path fill="#AB795A" stroke="#050505" stroke-linecap="round" stroke-linejoin="round" stroke-width=".4" d="M20.9 32.479c0-.7-.2-2.1.5-3.1.6-1 1.7-1.5 2.7-1.3 1.3.3 2.3 1.5 1.9 2.2-.2.4-.3.7-.4 1.2-.2.5-.2 1.2-.3 1.4-.1.7-.8 2.1-2.3 1.9-1.9-.4-2.1-2.3-2.1-2.3Z"/>
  <path fill="#DFDFDF" d="M20.9 31.08s.6 1.399 2.4 1.299c1.8 0 2.2-.4 2.2-.4s.2 1.7-1 2.4c-1.3.6-3 .4-3.3-.8-.3-1.1-.3-2.5-.3-2.5Z" style="mix-blend-mode:multiply"/>
  <path fill="#F5F6F7" stroke="#050505" stroke-linecap="round" stroke-linejoin="round" stroke-width=".4" d="M19.4 31.979c-.3 1.5-.5 2.7-.8 4.5-.5 3.1 0 5.3 0 5.3.4 1.9 1.9 3.2 3.7 3l.5-.1c1.6-.2 3-1.5 2.7-3.8 0 0-.2-2.3.2-4.4.2-1.5.6-3.3.6-3.3l-6.9-1.2Z"/>
  <path fill="#0A0C0F" d="M19.4 31.979c-.3 1.5-.5 2.7-.8 4.5-.5 3.1 0 5.3 0 5.3.4 1.9 1.9 3.2 3.7 3l.5-.1c.2 0 .4-.033.6-.1-.3-.2-.4-.4-.4-.4s-2.4-.8-2.4-4.4c0-2.4.7-5.6 1.1-7.4l-2.3-.4Z" opacity=".3"/>
  <path fill="#050505" d="M34.9 32.579s2.3.6 3.4.4c1.2-.2 1.4 1.4 0 2.7-1.1.9-3.8 2.7-7.7 1.5-4-1.3-4.3-5.4-2.3-6.6 2-1.2 4.1 1.1 6.6 2Zm17.1 7.1-.1-.8v-.7c0-.2.067-.5.2-.9.133-.467.3-.834.5-1.1.2-.334.533-.633 1-.9.533-.267 1.133-.4 1.8-.4 1.4-.1 2.5.4 3.1 1 .267.267.467.6.6 1 .2.4.3.7.3.9.067.267.1.533.1.8 0 .867-.233 1.733-.7 2.6a16.101 16.101 0 0 1-1.8 2.4l2.8-.2.2 3-7.5.4-.1-2.7c1.8-1.7 3-3.1 3.4-3.9l.4-.8c.067-.2.1-.4.1-.6 0-.4 0-.6-.2-.8-.133-.067-.3-.1-.5-.1-.5 0-.5.3-.5 1v.7l-3.1.1Z"/>
  <path fill="#050505" fill-rule="evenodd" d="m68.3 34.479-2 3.6c1.867.133 2.867 1.467 3 4 0 1.133-.333 2.133-1 3-.733.8-1.7 1.233-2.9 1.3-1.2.067-2.2-.267-3-1-.733-.8-1.133-1.767-1.2-2.9-.067-.933.167-1.834.7-2.7l2.9-5.1 3.5-.2Zm-3.2 6.5c-.533.067-.767.466-.7 1.2 0 .8.267 1.166.8 1.1.6 0 .867-.4.8-1.2 0-.733-.3-1.1-.9-1.1Z" clip-rule="evenodd"/>
  <path fill="#FEFEFE" d="M53.1 38.379v-1.4c0-.2.033-.533.1-1 .133-.4.3-.767.5-1.1.2-.267.567-.533 1.1-.8.467-.267 1.033-.433 1.7-.5 1.5 0 2.6.4 3.1 1 .267.267.5.6.7 1 .133.4.233.733.3 1v.801c.067.8-.167 1.633-.7 2.5a8.106 8.106 0 0 1-1.8 2.4l2.9-.1.1 3-7.4.3-.1-2.6c1.8-1.8 3-3.1 3.4-3.9.2-.4.333-.7.4-.9v-.6c0-.4 0-.6-.2-.8a.887.887 0 0 0-.4-.1c-.5 0-.6.3-.5 1v.7l-3.2.1Z"/>
  <path fill="#FEFEFE" fill-rule="evenodd" d="m69.4 33.179-1.9 3.6c1.8.133 2.767 1.466 2.9 4 .067 1.2-.267 2.2-1 3-.667.8-1.6 1.233-2.8 1.3-1.267.067-2.267-.267-3-1-.8-.733-1.233-1.7-1.3-2.9 0-.867.233-1.767.7-2.7l2.9-5.1 3.5-.2Zm-3.1 6.6c-.533 0-.8.367-.8 1.1.067.8.367 1.2.9 1.2.533-.067.8-.5.8-1.3-.067-.734-.367-1.067-.9-1Z" clip-rule="evenodd"/>
  <path fill="#7358A4" d="m82.4 63.979-81.7 9v-5l81.2-8.9.5 4.9Z"/>
  <path fill="#FEFEFE" d="m4.7 73.879-2.3.3.3-8 5.5-.5-.1 2.2-3.2.3-.1 1.2 3-.4-.1 2.1-2.9.3-.1 2.5Zm4.1-.4.3-7.9 2.2-.3-.2 8-2.3.2Zm10.4-9-.2 8-2.1.2-2.3-3.2-.1 3.4-2.2.3.2-8 2.1-.2 2.3 3.2.1-3.4 2.2-.3Z"/>
  <path fill="#FEFEFE" fill-rule="evenodd" d="m25 63.879 2.5 7.7-2.4.2-.3-.8-2.4.3-.3.8-2.4.3 3-8.2 2.3-.3Zm-1.8 5 1-.1-.4-1.6-.6 1.7Z" clip-rule="evenodd"/>
  <path fill="#FEFEFE" d="m30.8 63.279-.2 5.7 3.1-.3v2.2l-5.5.6.3-7.9 2.3-.3Zm3.6 7.5.3-7.9 2.2-.2-.2 7.9-2.3.2Zm6.3-2.8 2.9-.3-.1 2.2-6 .6.1-1.9 2.8-4.1-2.6.3.1-2.2 5.7-.6v1.9l-2.9 4.1Z"/>
  <path fill="#FEFEFE" fill-rule="evenodd" d="m49.3 61.379 2.5 7.6-2.4.3-.2-.8-2.5.2-.3.9-2.4.2 3-8.2 2.3-.2Zm-1.8 5.1 1-.1-.4-1.6-.6 1.7Z" clip-rule="evenodd"/>
  <path fill="#FEFEFE" d="M60.1 64.779c-.267 1.066-.767 1.967-1.5 2.7-.733.733-1.6 1.133-2.6 1.2-1.133.133-2.067-.167-2.8-.9-.733-.667-1.067-1.6-1-2.8 0-1.133.4-2.133 1.2-3 .8-.867 1.767-1.367 2.9-1.5.933-.067 1.767.166 2.5.7.733.6 1.167 1.4 1.3 2.4l-2.4.2a1.82 1.82 0 0 0-.6-.8 1.083 1.083 0 0 0-.9-.2c-.467 0-.867.2-1.2.6-.334.4-.5.866-.5 1.4 0 .533.133.967.4 1.3.333.333.733.467 1.2.4.333 0 .633-.133.9-.4s.467-.6.6-1l2.5-.3Zm.7 3.301.2-7.901 2.3-.3-.3 8-2.2.2Z"/>
  <path fill="#FEFEFE" fill-rule="evenodd" d="M68.3 59.279c1.133-.134 2.067.166 2.8.9.733.666 1.067 1.6 1 2.8 0 1.133-.4 2.133-1.2 3-.8.867-1.767 1.367-2.9 1.5s-2.067-.167-2.8-.9c-.667-.733-1-1.667-1-2.8.067-1.134.467-2.167 1.2-3.1.8-.867 1.767-1.334 2.9-1.4Zm-.2 6c.467-.067.867-.3 1.2-.7.333-.4.5-.867.5-1.4 0-.534-.133-.967-.4-1.3a1.344 1.344 0 0 0-1.2-.4c-.4.067-.767.3-1.1.7a2.58 2.58 0 0 0-.6 1.3c0 .533.167.966.5 1.3.267.333.633.5 1.1.5Zm1.3-6.7-2.2.2 1.1-2.2 2.5-.3-1.4 2.3Z" clip-rule="evenodd"/>
  <path fill="#FEFEFE" d="m80 58.179-.2 7.9-2.1.2-2.3-3.2-.1 3.5-2.2.2.2-7.9 2.1-.2 2.3 3.2.1-3.5 2.2-.2Z"/>
  <path fill="#7358A4" d="m70.6 76.679-47.4 5.1v-4.9l46.8-5.1.6 4.9Z"/>
  <path fill="#FEFEFE" d="M33.4 78.479c-.2 1.067-.667 1.966-1.4 2.7-.8.733-1.667 1.133-2.6 1.2-1.133.133-2.067-.167-2.8-.9-.733-.667-1.1-1.567-1.1-2.7.067-1.2.5-2.234 1.3-3.1.733-.867 1.667-1.367 2.8-1.5 1-.067 1.867.166 2.6.7.667.6 1.1 1.4 1.3 2.4l-2.5.2a1.28 1.28 0 0 0-.5-.8c-.333-.2-.633-.267-.9-.2-.467 0-.867.2-1.2.6-.333.4-.5.867-.5 1.4-.067.533.067.966.4 1.3.333.333.7.466 1.1.4.333 0 .667-.134 1-.4.267-.267.467-.6.6-1l2.4-.3Zm3.2-4.899-.1 5.699 3.2-.3-.1 2.2-5.5.6.3-8 2.2-.2Z"/>
  <path fill="#FEFEFE" fill-rule="evenodd" d="m45.4 72.679 2.6 7.6-2.5.3-.2-.8-2.5.2-.3.9-2.4.2 3-8.2 2.3-.2Zm-1.8 5.1 1-.1-.4-1.7-.6 1.8Z" clip-rule="evenodd"/>
  <path fill="#FEFEFE" d="M49.9 77.08c.6.6 1.2.866 1.8.799.467-.067.7-.233.7-.5 0-.133-.133-.233-.4-.3a7.115 7.115 0 0 1-.9-.3 5.708 5.708 0 0 1-1-.3c-.4-.2-.7-.467-.9-.8-.267-.267-.4-.633-.4-1.1.067-.467.3-1 .7-1.6.4-.6 1.2-1 2.2-1.2.8 0 1.6.1 2 .4.5.3.8.6 1 .8l.1.2-1.6 1.4c-.267-.333-.5-.533-.7-.6h-.8c-.3 0-.5.2-.5.4-.1.2.3.4.9.5l.8.2c.333.133.633.267.9.4.267.2.467.433.6.7.2.266.3.6.3 1-.1.5-.3 1.1-.7 1.7-.5.6-1.3 1-2.4 1.2-.867.067-1.567-.067-2.1-.4-.533-.4-.9-.8-1.1-1.2l1.5-1.4Zm8-3.601v.8l3-.3-.1 2-2.9.3-.1.7 3.2-.3v2.2l-5.5.6.3-8 5.4-.5v2.2l-3.3.3Zm5.4 2.2c.533.533 1.133.767 1.8.7.4 0 .6-.133.6-.4.067-.133-.033-.233-.3-.3a7.091 7.091 0 0 1-.9-.3 4.45 4.45 0 0 1-1.1-.4 1.625 1.625 0 0 1-.8-.7c-.267-.333-.4-.733-.4-1.2 0-.466.2-.966.6-1.5.4-.6 1.3-1.1 2.3-1.2.8-.1 1.6.1 2 .4.4.2.8.6.9.8l.1.2-1.5 1.4c-.267-.334-.5-.533-.7-.6-.2-.066-.467-.066-.8 0-.4 0-.6.2-.6.3 0 .3.4.4.9.5.267.067.567.166.9.3.333.133.633.267.9.4.2.134.4.367.6.7.133.267.2.6.2 1 0 .5-.2 1.1-.7 1.6-.4.6-1.3 1.1-2.3 1.2-.933.067-1.667-.067-2.2-.4-.533-.334-.9-.7-1.1-1.1l1.6-1.4Z"/>
  <path fill="#FEFEFE" fill-rule="evenodd" d="M16.2 76.98c.9-.1 1.9-.2 1.8 2.9-.2 2.7-1 2.9-2.4 3.1h-.5l.3-6h.8Zm-.1.699-.3 4.7c1.3-.1 1.3-1.4 1.3-2.4.1-.9.2-2.5-1-2.3Z" clip-rule="evenodd"/>
  <path fill="#FEFEFE" d="M20.7 76.479v.7l-1.3.1-.1 1.9 1.2-.1-.1.7-1.1.1-.1 2 1.3-.1-.1.7-2 .2.3-6 2-.2Z"/>
</svg>
