<svg xmlns="http://www.w3.org/2000/svg" width="76" height="82" fill="none" viewBox="0 0 76 82">
  <path fill="#6ECFF5" d="m8.3 10.4 63.2-3.2 4.4 66.1-63.5 1.5-4.1-64.4Z"/>
  <path fill="#3F86AA" d="m75.9 73.3-63.5 1.5L4 81.2l61.1-1.7 10.8-6.2Z"/>
  <path fill="#16B2DB" d="M8.3 10.4 0 19.8l4 61.4 8.4-6.4-4.1-64.4Z"/>
  <mask id="a" width="13" height="72" x="0" y="10" maskUnits="userSpaceOnUse" style="mask-type:luminance">
    <path fill="#fff" d="M8.31 10.43.04 19.84l3.97 61.29 8.41-6.32-4.11-64.38Z"/>
  </mask>
  <g mask="url(#a)">
    <path stroke="#3F86AA" stroke-width=".4" d="M.2-40.5-20.1 68.8M2.4-36.6-17.9 72.8M4.7-32.6-15.7 76.8M6.9-28.6-13.5 80.7M9.1-24.6-11.3 84.7M11.3-20.7-9.1 88.7M13.5-16.7-6.9 92.7M15.7-12.7-4.7 96.6M17.9-8.8-2.4 100.6M20.1-4.8-.2 104.6M22.3-.8 2 108.5M24.5 3.2 4.2 112.5M26.8 7.1 6.4 116.5M29 11.1 8.6 120.5M31.2 15.1 10.8 124.4m27-97.4L-8.6-56.4m45.4 88.6L-9.6-51.2m45.5 88.6L-10.5-46m45.4 88.6-46.4-83.4m45.4 88.6-46.4-83.4M33 53l-46.5-83.4M32 58.2l-46.4-83.4M31 63.4-15.4-20M30 68.6l-46.4-83.4m45.5 88.7L-17.3-9.6m45.4 88.7L-18.3-4.3m45.4 88.6L-19.3.9m45.5 88.6L-20.2 6.1m45.4 88.6-46.4-83.4m45.4 88.6-46.4-83.4m45.5 88.6-46.4-83.4m45.4 88.6-46.4-83.4m45.4 88.6-46.4-83.4m45.4 88.6-46.4-83.4m45.5 88.6L-27 42.5m45.4 88.6L-28 47.7m45.4 88.7L-29 52.9"/>
  </g>
  <path fill="#EC5F42" d="M67.7 12.2c-.1-.2-.6-.1-.6-.1l-3.8.7c-.067 0-.167.033-.3.1-.2 0-.433.033-.7.1l-7.5 1.2c-.267 0-.567.033-.9.1 0 0-3 .2-3 0h-.1c-.133.066-.233.066-.3 0a2.253 2.253 0 0 1-.4-.8c-.067-.2-.1-.4-.1-.6v-.1c.133-.534.233-1.034.3-1.5 0-.134.033-.233.1-.3v-.2c0-.067.033-.1.1-.1v-.5c.067-.2.1-.366.1-.5l.2-1c.1-.3 1-6.2 1-6.2s.3-1.8-.7-1.9c-.8-.1-1.6 1.7-1.6 1.7s-2.7 6.2-2.7 6.3a1.162 1.162 0 0 0-.2.3 1.26 1.26 0 0 1-.3.5c-.067.2-.167.4-.3.6l-.2.4a1.26 1.26 0 0 1-.3.5 2.3 2.3 0 0 1-.8.8c-.067 0-.167.033-.3.1h-.8c-.5-.1-.7-.3-.8-.5a.654.654 0 0 1-.3-.3 1.163 1.163 0 0 1-.2-.3l-.6-.6c-.2-.2-.4-.433-.6-.7-.2-.3-3.9-5.9-5.7-8.2C34.8.5 34.2 0 33.8 0c-1.2.4 1.5 6.3 1.6 6.5.067.267.167.533.3.8.133.266.233.5.3.7.133.2.233.4.3.6l.2.4c.067.2.167.434.3.7 0 .067.033.1.1.1.067.266.133.5.2.7v.1l.1.1c.133.334.3.667.5 1l.4 1c.133.2.233.433.3.7.1.1.2.3.1.4 0 .2.1.3.1.5v.5c0 .066-.033.167-.1.3v.1c-.067.067-.133.067-.2 0v.1c0 .1 0 .1-.1.2-.133.2-.3.333-.5.4-.2.1-.4.2-.7.2h-1.7l-5.4.1-1.4.1h-3.4l-2.3.1s-.9-.1-.9.2c-.1.3.8.5.8.5l2.3.7 7.7 1.7 5.3.5c.067 0 .1-.033.1-.1.267 0 .5-.034.7-.1a.887.887 0 0 0 .4-.1h.1c0-.066-.033-.1-.1-.1a3.573 3.573 0 0 0-.9-.3 1.255 1.255 0 0 1-.5-.3c-.067 0-.067-.033 0-.1.2-.2.5-.4.9-.4h.7c.333-.067.7-.1 1.1-.1h.4c.067-.067.1-.067.1 0h.1v-.1h.1c0-.1.1-.3 0-.4-.067-.067-.1-.167-.1-.3a1.57 1.57 0 0 1-.4-.3c-.2-.134-.4-.3-.6-.5-.067-.067-.133-.1-.2-.1l.1-.1c0 .067.033.1.1.1.133 0 .267.033.4.1.067 0 .1.033.1.1h.1a6.511 6.511 0 0 1-.4-.7c-.267-.333-.533-.7-.8-1.1V15a1.163 1.163 0 0 0-.2-.3l-.2-.4v-.2c.1-.1.2 0 .2 0l.4.2c.2.133.367.3.5.5.133.066.233.133.3.2l.1.1.6.4.1.1v-.2l-.2-.6a1.11 1.11 0 0 1-.1-.5c-.067-.067-.1-.133-.1-.2s.067-.1.2-.1c.4.1.7.4.9.9.1.3.5.5.8.7.1 0 .1 0 .1.1h.1c.067.134.133.233.2.3a.654.654 0 0 1 .3.3c.067.066.133.066.2 0 .067-.267.1-.533.1-.8v-.1c.2-.2.3-.5.1-.8-.1-.2-.1-.4-.1-.6h.1c0 .133.033.267.1.4.067.333.167.633.3.9v.2c0 .067.033.067.1 0 .067-.2.133-.434.2-.7l.4-1.4a3.91 3.91 0 0 1 .3-.8c.067-.2.167-.367.3-.5 0-.1.1-.1.1-.1.1 0 .1.1.1.2.067.2.1.4.1.6v1.6s.1 0 .1-.1l.2-.2.4-.6c.1-.1.2-.1.2 0 .067.2.133.367.2.5v.3c-.067.2-.1.366-.1.5-.067.466-.133.9-.2 1.3 0 .2-.033.433-.1.7h.1a1.56 1.56 0 0 1 .4-.3c.333-.267.633-.5.9-.7.067-.067.167-.133.3-.2 0 .1-.1.2-.1.2l-.4.6-.2.2a1.163 1.163 0 0 1-.2.3 1.17 1.17 0 0 1-.2.3c.2 0 .4-.033.6-.1.1 0 .2 0 .3-.1h.2l.3-.1c0-.067.033-.1.1-.1.267-.134.5-.233.7-.3h.1v-.1h.2l.1-.1 1-.4h.6c0 .1 0 .2-.1.2-.133.2-.3.4-.5.6a1.567 1.567 0 0 0-.4.3 3.26 3.26 0 0 1-.5.4c-.067 0-.1.033-.1.1 0 .1.1.1.1.1a.887.887 0 0 0 .4-.1h.4c.067.067.1.134.1.2h.5l.1-.1h1.5c.067 0 .133.034.2.1l-.1.1c-.2.133-.433.233-.7.3-.133 0-.233.034-.3.1-.133.067-.233.1-.3.1-.267.066-.5.133-.7.2-.067 0-.133-.033-.2-.1-.267.067-.533.1-.8.1-.067.067-.167.1-.3.1l-.1.1a1.165 1.165 0 0 0-.3.2c-.333.2-.633.367-.9.5h-.1v.1c-.067 0-.1.033-.1.1.133 0 .267.034.4.1l.8.2c.2 0 .367.033.5.1-.067.067-.133.1-.2.1h-1.4v.1c.2 0 .4 0 .7.1.267.066.5.2.7.4 0 .067.033.1.1.1l.5 1.8h-.6c-.067 0-.133.034-.2.1.133.067.233.133.3.2l.3.3c.1.1 0 .3-.2.3h-.4c-.2 0-.4-.1-.6-.2l-.4-.2-.6-.2a3.881 3.881 0 0 0-.5-.2c-.2-.1-.2-.1-.4.1h-.1v.1c.133.2.233.4.3.6.067.2.167.4.3.6a.655.655 0 0 1-.3-.3 26.3 26.3 0 0 0-.1-.1c-.067 0-.1-.033-.1-.1h-.1v-.1a.654.654 0 0 1-.3-.3.887.887 0 0 0-.1.4v.7c.1.1.1.2.1.3v.4c.067 0 .1.033.1.1v.2a.89.89 0 0 1 .1.4v.3c0 .133.033.233.1.3 0 .267.033.5.1.7a.887.887 0 0 1-.1.4c0 .067-.033.1-.1.1-.2-.1-.3-.3-.4-.5l-.4-.8a3.916 3.916 0 0 0-.5-.9c0-.067-.033-.1-.1-.1v.1c-.067.2-.1.366-.1.5 0 .133-.033.3-.1.5-.067.133-.167.133-.3 0l-.2-.2c-.067-.067-.1-.167-.1-.3a3.878 3.878 0 0 0-.2-.5 9.642 9.642 0 0 0-.2-.7c0-.067-.033-.167-.1-.3-.067-.2-.1-.4-.1-.6-.1-.2-.1-.2-.3-.2-.067.067-.167.1-.3.1-.067.067-.133.1-.2.1l-.4.8h-.1l.1-.5-.1-.1c-.2.267-.433.534-.7.8l-.8.8a10.92 10.92 0 0 0-.8.9c-.067 0-.133.033-.2.1H40v-.2c0-.4.2-.7.4-1.1.133-.133.233-.3.3-.5.067-.2.133-.366.2-.5.067-.133.133-.233.2-.3v-.2l-.1.1-.4.2-.4.2-.4.2c-.133.067-.2.033-.2-.1 0-.3.1-.6.3-.8.067-.067.133-.166.2-.3.067 0 .1-.033.1-.1h-.5c-.5-.1-1-.2-1.3-.6l-.1-.1-.6-.2h-.1v.1c0 .1-1.9 3.2-2 3.4-.067 0-.1.033-.1.1 0 .3-2.8 4.1-4.1 7.2-.1.2.2.4.4.2l5.7-3.9c.067 0 .1-.033.1-.1.067-.066.133-.1.2-.1V29a1.15 1.15 0 0 1 .3-.2 4.9 4.9 0 0 1 .5-.3c.1-.1.3-.3.5-.4.4-.4.9-.7 1.4-1l.2-.2c.2-.067.367-.1.5-.1.3-.1.5-.1.8 0 .1 0 .1 0 .1.1.2-.1.1-.1.3 0a.655.655 0 0 1 .3.3.97.97 0 0 1 .4.6c.067.133.1.267.1.4.067.134.1.267.1.4v.1c0 .067.033.1.1.1v.3l.2.6v.2L46 41.1c.1.4.7.4.8 0 0 0 1.2-13.1 1.2-13.5 0-.3.1-.7.3-.9.067-.133.133-.233.2-.3h.1v.1h.1c0-.2 0-.2.2-.3.3-.2.7-.2 1-.2.1 0 1.1.4 1.1.4l1 .4c.133.066.3.133.5.2l7.7 3.8 3.6 1.8s.4.2.6.1c.1-.1-.2-.4-.2-.4l-3.1-2.8-7.3-6.7s-1.3-.4-1.3-1c0-.7.1-1.4.1-1.4l.2-.4c.067-.133.167-.267.3-.4 0-.2 1.6-1.1 1.6-1.1l7.5-3.6c.267-.133.5-.233.7-.3.333-.2.633-.367.9-.5l.4-.2a.887.887 0 0 0 .4-.1l.2-.2c.133-.067.3-.133.5-.2l.1-.1 1.8-.7s.5-.1.5-.4Z"/>
  <path fill="#EC5F42" d="M58.9 30.2c.067-.333.1-.7.1-1.1l.2-1.2v-.1c.1 0 .2.2.2.2.2.2.4.367.6.5l.3.3c.2.133.4.3.6.5l.4.4.2.2c.133.133.267.234.4.3.1.2.3.3.4.4 0 .1.2.2.3.3.067.067.167.133.3.2.133.2.3.367.5.5l.3.3-1.6-.2c-.067-.066-.167-.1-.3-.1a6.535 6.535 0 0 1-.7-.4l-.8-.4c-.4-.134-.767-.3-1.1-.5-.067-.067-.167-.1-.3-.1Z"/>
  <path fill="#B3C579" d="m52 30.7 6.7.7.2-1.9.6-4.1v-.5l-.8.2-3.5-.4-1.5-.5-.2-.1-.2.6-1 3.9-.4 1.8.1.3Z"/>
  <path fill="#F8DDD7" d="M41.6 15.9c0-.2-.033-.367-.1-.5 0-.067-.033-.133-.1-.2a19.717 19.717 0 0 0-.2-.9c-.067-.133-.033-.166.1-.1l.2.2c.133.067.233.134.3.2a8221.206 8221.206 0 0 0 1.1 1.1h.1v.1l.4.4c0 .067.033.1.1.1l.2.2h.1c.067 0 .133-.033.2-.1v-.1c.2-.1.3-.3.3-.5.1 0 .1-.1.1-.2l.4-1.4c.133-.466.3-.933.5-1.4 0-.067.033-.067.1 0s.1.133.1.2c.067.133.1.267.1.4v1.3c0 .1 0 .1.1.2.067 0 .133-.033.2-.1.133-.2.3-.4.5-.6.067-.133.167-.267.3-.4.1-.1.1 0 .1 0 .067.133.1.267.1.4 0 .067-.033.167-.1.3-.067.6-.133 1.167-.2 1.7v.7l-.1.1c.1.1.1.2.1.2.2.1.3.2.5.1.4.1.8-.1 1.1-.3h.2c.067-.067.133-.1.2-.1 0-.067.033-.1.1-.1.067-.067.167-.1.3-.1.133-.066.3-.133.5-.2v-.1h.2l.1-.1.6-.2c.1 0 .2 0 .3.1a1.163 1.163 0 0 1-.2.3c-.2.2-.4.367-.6.5a1.164 1.164 0 0 1-.3.2 1.163 1.163 0 0 1-.2.3c-.133 0-.167.034-.1.1 0 .1.1.1.1.2.3.1.5 0 .8 0 0 0 .1-.1.2 0l-.1.1a5.34 5.34 0 0 0-1.1.3v.2c0 .1 0 .1.1.1.067 0 .133.034.2.1l-.1.1c-.267.2-.533.367-.8.5a1.165 1.165 0 0 0-.3.2v.1c-.1 0-.2 0-.2.1H48v.2c0 .133.033.234.1.3-.067.067-.133.1-.2.1l.1.1c-.133.133-.333.167-.6.1h-.3c-.2 0-.3.2-.2.4 0 .2.067.334.2.4h.2v.1c0 .067-.033.1-.1.1-.3 0-.5.2-.5.5a.655.655 0 0 0 .3.3c.133 0 .267.033.4.1h.1l.4.4v.1a3.881 3.881 0 0 0-.5-.2l-.6-.2h-.1c-.1 0-.1.1-.1.1.1.2 0 .4-.1.5h-.1v.6c.067.334.1.633.1.9l.1.1v.4c.067 0 .1.034.1.1v.4c.067.2.1.367.1.5 0 .134.033.233.1.3-.067 0-.1.033-.1.1v.2c0 .067-.033.1-.1.1h-.1c-.2-.2-.333-.433-.4-.7-.2-.333-.367-.633-.5-.9-.067-.066-.1-.167-.1-.3h-.1c-.1 0-.2 0-.2.1-.1.4-.1.8-.3 1.2v.1c-.067 0-.1-.033-.1-.1-.1-.1-.2-.2-.3-.4-.1-.4-.2-.9-.3-1.3a5.5 5.5 0 0 0-.5-1.1c0-.1 0-.1-.1-.1s-.2 0-.3.1a1.164 1.164 0 0 0-.3.2c-.1.1-.1.2-.2.1-.067.067-.1.133-.1.2-.067 0-.1.033-.1.1a1.568 1.568 0 0 0-.4.3c-.333.4-.7.8-1.1 1.2-.1.2-.3.3-.5.5-.1 0-.1.1-.2 0v-.1c0-.267.067-.5.2-.7.067-.133.167-.3.3-.5a5.5 5.5 0 0 1 .3-.7c0-.067.033-.166.1-.3 0-.1-.1-.2-.1-.1a4.01 4.01 0 0 0-.5.2c-.3.1-.6.4-1 .5-.067.067-.1.034-.1-.1 0-.066.033-.167.1-.3.1-.2.2-.3.3-.4 0-.067.033-.166.1-.3l.6-.2c.2-.1.4-.2.5-.3h.2c.2 0 .367-.033.5-.1.2 0 .4-.1.4-.4 0-.2-.1-.4-.3-.4-.2-.1-.2-.1-.2-.2h.2c.133 0 .233-.1.3-.3 0-.066-.033-.167-.1-.3 0-.133-.1-.2-.3-.2h-.5c-.067.067-.133.067-.2 0-.4-.2-.867-.3-1.4-.3-.333 0-.667.1-1 .3h-.1a3.876 3.876 0 0 1-.5-.2c-.067 0-.1-.033-.1-.1-.067-.067-.1-.133-.1-.2.1-.1.2 0 .2-.1.2 0 .4-.033.6-.1l.8-.2s.1 0 .1-.1l-.1-.1-.1-.1a20.01 20.01 0 0 1-1.1-.4 3.876 3.876 0 0 1-.5-.2c.133-.2.267-.3.4-.3.4 0 .767-.033 1.1-.1.4 0 .8-.033 1.2-.1h.4v-.1h.2c.133 0 .167-.033.1-.1v-.1c.067-.066.1-.133.1-.2l-.2-.2c0-.066-.033-.1-.1-.1a1.167 1.167 0 0 1-.2-.3 1.163 1.163 0 0 0-.2-.3v-.1h-.1a6.511 6.511 0 0 1-.4-.7c-.267-.333-.533-.7-.8-1.1v-.2c-.067-.067-.1-.133-.1-.2l.1-.1.4.2c.1.1.3.2.4.3.067 0 .133.034.2.1l1.1.7Z"/>
  <path fill="#EC5F42" d="M41.3 11.9h.1c-.133.333-.367.6-.7.8-.4.4-1.1.4-1.6.1-.6-.5-.9-1.3-.5-2 .067-.067.133-.167.2-.3.067-.066.167-.066.3 0 .067 0 .1.034.1.1.133.067.133.167 0 .3a3.86 3.86 0 0 0-.2.5c0 .3.1.7.4.9.4.2.8.2 1.1-.1l.3-.3c0-.1 0-.1.1-.1.133.067.267.1.4.1Z"/>
  <path fill="#261A0E" fill-rule="evenodd" d="M62.1 15.6c.2.333.233.667.1 1 0 .133-.033.233-.1.3-.2.333-.4.633-.6.9a1.167 1.167 0 0 1-.2.3l-.4 1.6c-.066.067-.066.133 0 .2.5.3.7.7.6 1.2-.2.933-.367 1.833-.5 2.7v.3c-.1.3-.3.6-.6.7-.2.133-.433.233-.7.3-.133 0-.2.034-.2.1v.5c0 .2-.033.367-.1.5v.1c0 .2-.033.433-.1.7 0 .267-.033.533-.1.8-.067.4-.133.833-.2 1.3 0 .333-.033.667-.1 1-.066.4-.133.833-.2 1.3-.067-.067-.133-.1-.2-.1l.2-1c.2-1.667.4-3.367.6-5.1v-.1h-.1c-.9.1-1.8.1-2.8-.1-.8-.133-1.6-.367-2.4-.7-.066 0-.166-.033-.3-.1-.067-.066-.1-.066-.1 0a46.771 46.771 0 0 1-.4 1.5 64.052 64.052 0 0 0-.9 3.4 9.961 9.961 0 0 0-.3 1.5v.1h-.3v-.1c.267-1.067.533-2.167.8-3.3.1-.2.1-.1-.1-.2l-.1-.1c-.4-.2-.833-.4-1.3-.6-.066-.067-.1-.067-.1 0v.3c0 .2-.1.367-.3.5-.2.1-.3.1-.5 0v-.1H50v-.2c-.1-.3 0-.6 0-.8.2-.3.3-.5.5-.7.334-.267.7-.4 1.1-.4.334.067.633.2.9.4.2.2.2.5 0 .7-.2.2-.5.2-.6 0-.2-.2-.7-.2-.9.1 0 .067.034.1.1.1.267.133.567.3.9.5.133.066.3.133.5.2.1 0 .1 0 .1-.1.2-.667.4-1.367.6-2.1l.2-.6c0-.133-.033-.2-.1-.2-.2-.2-.4-.3-.6-.6a.678.678 0 0 1-.2-.5c0-.133-.033-.167-.1-.1-.267.133-.566.2-.9.2a3.143 3.143 0 0 1-1-.4h-.9c-.066.067-.133.1-.2.1-.267.134-.533.2-.8.2a9.628 9.628 0 0 1-.7-.2v-.1a1.57 1.57 0 0 1-.4-.3c0-.067-.033-.1-.1-.1a.887.887 0 0 1-.4-.1.655.655 0 0 1-.3-.3c0-.2.2-.5.5-.5.067 0 .1-.033.1-.1v-.1h-.1c-.2-.067-.3-.2-.3-.4s.1-.3.2-.4h.4c.2.133.367.1.5-.1h.1c.067 0 .133-.033.2-.1.2 0 .4 0 .7.1.267.067.5.2.7.4 0 .067.033.1.1.1h.7c.533-.4 1.1-.566 1.7-.5.133.067.267.1.4.1.134.066.233.133.3.2l.2-1c0-.2.1-.4.4-.6.2-.133.434-.167.7-.1.1 0 .1 0 .1-.2 0-.7.2-1.4.3-2.1.067-.267.133-.567.2-.9v-.1c-.2-.3-.1-.6-.1-.8.067-.2.133-.366.2-.5 0-.2.034-.366.1-.5 0-.133.034-.3.1-.5.067-.333.267-.533.6-.6.4-.133.733-.067 1 .2.067.133.133.233.2.3.1-.3.2-.6.5-.7h.1v-.1h.5c.133.066.267.1.4.1v.1h.1c0 .067.034.1.1.1.134.133.233.267.3.4l.2-.4h.1v-.1c.067 0 .133-.033.2-.1h.4c.2 0 .4.1.5.2h.1c.133.133.233.267.3.4.3-.2.3-.2.6-.3.334-.066.634.033.9.3.067.067.1.166.1.3.1.2.1.4.1.6-.133.333-.2.667-.2 1l-.2.4v.1l.1.1v.1Zm-.1 1.1c.2-.3.1-1-.2-1.2-.8-.533-1.566-1.1-2.3-1.7-.066-.067-.166-.1-.3-.1-.4-.1-.8.1-.9.5-.2.4-.1.8.2 1l1.4 1.2c.1 0 .1 0 .1.1-.1.1-.1.1-.2.1-.4-.133-.8-.167-1.2-.1-.6 0-1.166.1-1.7.3 0 .1-.1.1-.1 0-.1-.1 0-.1.1-.1a4.1 4.1 0 0 1 1.6-.5h.4a.895.895 0 0 1-.5-.6c-.2.5-.4.6-.9.7-.533 0-.9-.233-1.1-.7-.5.4-.8.5-1.4.1v.1a10.51 10.51 0 0 0-.3 1.4 10.72 10.72 0 0 0-.2 2.1c.067.267.2.467.4.6.6.5 1.2.7 1.9.9.467.066.934.1 1.4.1a3.32 3.32 0 0 0 1.6-.2c.3-.1.6-.2.7-.6.267-.667.467-1.367.6-2.1.067-.067.133-.166.2-.3.2-.333.434-.666.7-1Zm.2-2.9c.1-.5-.2-.9-.6-.9-.4 0-.7.1-.8.5a20.84 20.84 0 0 0-.2.9s0 .1.1.1l1 .8c.1.1.1.1.2 0 .067-.466.167-.933.3-1.4Zm-1.3 7.7a.95.95 0 0 0 .4-.8c-.1-.3-.2-.5-.4-.6a1.568 1.568 0 0 0-.3.4c-.2.3-.6.4-.9.5-.5.2-1.1.2-1.6.2a9.96 9.96 0 0 1-1.5-.3c-.4-.067-.8-.2-1.2-.4-.066-.067-.133-.067-.2 0a1.163 1.163 0 0 1-.2.3 1.167 1.167 0 0 0-.2.3h.1c.4.133.834.267 1.3.4.333.067.7.134 1.1.2.9.1 1.7.2 2.6.1.3-.1.7-.1 1-.3Zm.2.6c0-.133.033-.3.1-.5h-.1l-.6.3c-.6.2-1.2.2-1.9.2-1.3-.1-2.6-.3-3.8-.8h-.1c-.067.2-.1.4-.1.6-.066.067-.033.1.1.1l.4.2c.067.067.1.133.1.2-.067.067-.133.067-.2 0a3.881 3.881 0 0 0-.5-.2 3.32 3.32 0 0 0-.1.8v.1c.2.067.367.133.5.2.1.1.2.1.1.2-.066.067-.133.067-.2 0a.887.887 0 0 0-.4-.1c-.066-.067-.1-.067-.1 0 0 .2-.033.4-.1.6 0 .133.033.2.1.2.733.267 1.5.466 2.3.6.9.2 1.9.2 2.9.1.3-.1.6-.1.9-.3a.96.96 0 0 0 .4-.5 20.9 20.9 0 0 1 .3-2Zm-.6-8.6c.067-.4-.066-.666-.4-.8-.4-.2-.9-.1-1 .3-.066.133-.1.3-.1.5h.3c.2.133.367.233.5.3.2.133.367.267.5.4.067-.266.134-.5.2-.7Zm-1.9 2c0 .3.3.5.6.5-.2-.133-.4-.3-.6-.5Zm0-1.9c.1-.2.1-.5 0-.7-.2-.2-.5-.4-.8-.4-.4.067-.633.233-.7.5a25.98 25.98 0 0 1-.5 2.2c-.066.267.033.5.3.7l.4.2c.4 0 .7-.1.8-.4a.889.889 0 0 0 .1-.4v-.1a1.167 1.167 0 0 0-.2-.3c-.1-.5.1-1 .5-1.3h.1Zm-2 .2a.887.887 0 0 0 .1-.4c0-.3-.2-.6-.6-.7-.4 0-.7.2-.8.6l-.4 1.6c-.1.4.2.8.7.8.4.1.7-.2.7-.5.134-.466.234-.933.3-1.4ZM55 20.4c.067 0 .1-.034.1-.1a1.165 1.165 0 0 1-.3-.2c-.4-.3-.6-.6-.6-1.1h-.1c-.2 0-.4.067-.6.2-.2.2-.4.7 0 1.1.2.267.467.467.8.6.3.1.2.1.4-.1a1.6 1.6 0 0 0 .3-.4Zm-.6.9c.067-.067.034-.133-.1-.2-.4-.2-.8-.4-1.1-.8-.067.066-.1.167-.1.3a26.537 26.537 0 0 0-.3 2.1c-.066.267-.033.5.1.7.3.3.6.5 1 .6.067.067.1.067.1 0 .067-.267.1-.5.1-.7 0-.067-.033-.1-.1-.1-.066-.066-.166-.1-.3-.1l-.1-.1-.1-.1.1-.1h.1l.4.2h.1c0-.267.033-.533.1-.8 0-.1 0-.1-.1-.1l-.4-.2c-.1 0-.1-.1-.1-.2h.2c.067.067.167.1.3.1.1.1.1.1.2 0v-.5Zm-1.9 4.5c0-.2-.1-.3-.3-.3-.1 0-.3.1-.3.2 0 .2.1.4.3.4.2 0 .3-.1.3-.3Zm.3-4.9c.067-.067.034-.133-.1-.2-.333-.267-.7-.367-1.1-.3-.5.1-.9.3-1.2.7a.68.68 0 0 0-.2.5c0 .1 0 .1.1.1h.4c0-.1 0-.1.1-.2 0-.1 0-.2.1-.3.3-.4.8-.5 1.2-.3.2 0 .334.067.4.2.2.4.2.8-.2 1-.267.2-.6.266-1 .2h-.1a4.01 4.01 0 0 1-.5.2c.067 0 .1.033.1.1.6.267 1.167.233 1.7-.1.067 0 .1-.033.1-.1a86.63 86.63 0 0 1 .2-1.5Zm-.5 1c.134-.133.167-.3.1-.5-.1-.3-.6-.5-.9-.3.334.333.334.667 0 1h.1c.267.067.5 0 .7-.2Zm-.3 3.4c-.133-.067-.233-.1-.3-.1-.6-.1-1.1.2-1.4.8a1.78 1.78 0 0 0-.2.8c.067.2.2.267.4.2.133 0 .2-.1.2-.3 0-.5.4-1 1-.9v-.1a1.57 1.57 0 0 1 .3-.4Zm-.6-3.4c.2-.2.2-.5-.1-.7h-.1c-.1.1-.2.2-.2.4 0 .133-.1.233-.3.3-.4.067-.8.067-1.2 0-.2-.1-.3-.2-.3-.4 0-.067-.033-.166-.1-.3 0-.066-.033-.066-.1 0-.3.2-.3.6 0 .8.2.2.5.3.8.3v.1c.267 0 .534-.034.8-.1.3 0 .6-.2.8-.4Zm-1.1-1h-.4c0 .133.034.267.1.4a1.6 1.6 0 0 0 .3-.4Zm-.5.7v-.3c-.2-.7-.9-1.1-1.6-.9-.4.133-.633.4-.7.8-.066.134-.033.2.1.2h.2c.067 0 .1-.034.1-.1.067-.2.167-.367.3-.5.5-.2 1.1.1 1.2.7 0 .067.034.134.1.2h.2c.1 0 .1 0 .1-.1Zm-.5.9-.4-.2c0-.067 0-.067 0 0-.267.066-.5.034-.7-.1 0-.066-.033-.1-.1-.1-.066.067-.166.1-.3.1.2.5 1 .7 1.5.3Zm-.6-1.2c.067-.067.133-.167.2-.3a.887.887 0 0 1-.4-.1l.2.4Zm-.3.7c.1.1.2.1.4.1l-.2-.4a1.16 1.16 0 0 1-.2.3Zm-.2-.1c.3-.2.4-.5.2-.8-.066-.067-.133-.067-.2 0s-.1.133-.1.2c-.1.2-.1.3-.3.3h-.4c-.066-.067-.133-.1-.2-.1-.133 0-.233.067-.3.2 0 .134.067.2.2.2.067.067.167.1.3.1.3 0 .5 0 .8-.1Zm-.8-1c.067-.133.134-.233.2-.3-.133-.067-.233-.1-.3-.1-.1 0-.3.1-.2.2 0 .1 0 .2.1.2h.2Z" clip-rule="evenodd"/>
  <path fill="#B3C579" d="M61.8 15.5c.3.2.4.9.2 1.2a9.15 9.15 0 0 0-.7 1 1.163 1.163 0 0 1-.2.3 10.876 10.876 0 0 1-.6 2.1c-.1.4-.4.5-.7.6-.533.2-1.067.267-1.6.2-.467 0-.933-.033-1.4-.1-.7-.2-1.3-.4-1.9-.9a.971.971 0 0 1-.4-.6c0-.733.067-1.433.2-2.1.067-.466.167-.933.3-1.4v-.1c.6.4.9.3 1.4-.1.2.467.567.7 1.1.7.5-.1.7-.2.9-.7a.895.895 0 0 0 .5.6h-.4a4.1 4.1 0 0 0-1.6.5c-.1 0-.2 0-.1.1 0 .1.1.1.1 0a4.8 4.8 0 0 1 1.7-.3c.4-.067.8-.033 1.2.1.1 0 .1 0 .2-.1 0-.1 0-.1-.1-.1l-1.4-1.2c-.3-.2-.4-.6-.2-1 .1-.4.5-.6.9-.5.133 0 .233.033.3.1.733.6 1.5 1.167 2.3 1.7Zm-.2-2.6c.4 0 .7.4.6.9-.133.466-.233.933-.3 1.4-.1.1-.1.1-.2 0l-1-.8c-.1 0-.1-.1-.1-.1.067-.334.133-.633.2-.9.1-.4.4-.5.8-.5Z"/>
  <path fill="#EC5F42" d="M61.3 20.7a.95.95 0 0 1-.4.8c-.3.2-.7.2-1 .3-.9.1-1.7 0-2.6-.1-.4-.066-.767-.133-1.1-.2-.467-.133-.9-.267-1.3-.4h-.1c.067-.133.133-.234.2-.3.067-.067.133-.167.2-.3.067-.067.133-.067.2 0 .4.2.8.333 1.2.4.467.133.967.234 1.5.3.5 0 1.1 0 1.6-.2.3-.1.7-.2.9-.5.067-.133.167-.267.3-.4.2.1.3.3.4.6Z"/>
  <path fill="#EC5F42" d="M61.2 21.6c-.067.2-.1.367-.1.5a20.712 20.712 0 0 0-.3 2 .96.96 0 0 1-.4.5c-.3.2-.6.2-.9.3-1 .1-2 .1-2.9-.1a12.96 12.96 0 0 1-2.3-.6c-.066 0-.1-.067-.1-.2.067-.2.1-.4.1-.6 0-.067.034-.067.1 0 .133 0 .267.033.4.1.067.067.134.067.2 0 .1-.1 0-.1-.1-.2a3.881 3.881 0 0 0-.5-.2V23c0-.267.034-.533.1-.8.2.067.367.133.5.2.067.067.133.067.2 0 0-.067-.033-.133-.1-.2l-.4-.2c-.133 0-.166-.033-.1-.1 0-.2.033-.4.1-.6h.1c1.2.5 2.5.7 3.8.8.7 0 1.3 0 1.9-.2l.6-.3h.1Z"/>
  <path fill="#B3C579" d="M60.1 12.7c.333.134.467.4.4.8-.067.2-.133.434-.2.7a3.276 3.276 0 0 0-.5-.4 4.9 4.9 0 0 1-.5-.3H59c0-.2.033-.367.1-.5.1-.4.6-.5 1-.3Zm-1.5.2c.1.2.1.5 0 .7h-.1c-.4.3-.6.8-.5 1.3.067.067.133.167.2.3v.1a.89.89 0 0 1-.1.4c-.1.3-.4.4-.8.4l-.4-.2c-.267-.2-.367-.433-.3-.7.2-.733.367-1.467.5-2.2.067-.267.3-.433.7-.5.3 0 .6.2.8.4Zm-1.9.5a.887.887 0 0 1-.1.4c-.067.466-.167.933-.3 1.4 0 .3-.3.6-.7.5-.5 0-.8-.4-.7-.8l.4-1.6c.1-.4.4-.6.8-.6.4.1.6.4.6.7Z"/>
  <path fill="#EC5F42" d="M55.1 20.3c0 .066-.033.1-.1.1a1.568 1.568 0 0 1-.3.4c-.2.2-.1.2-.4.1a1.82 1.82 0 0 1-.8-.6c-.4-.4-.2-.9 0-1.1.2-.133.4-.2.6-.2h.1c0 .5.2.8.6 1.1.067.067.167.133.3.2Zm-.8.8c.134.067.167.133.1.2v.5c-.1.1-.1.1-.2 0-.067 0-.167-.033-.3-.1h-.2c0 .1 0 .2.1.2l.4.2c.1 0 .1 0 .1.1a3.32 3.32 0 0 0-.1.8h-.1l-.4-.2h-.1l-.1.1a41.363 41.363 0 0 0 .2.2c.133 0 .233.034.3.1.067 0 .1.033.1.1 0 .2-.033.433-.1.7 0 .067-.033.067-.1 0-.4-.1-.7-.3-1-.6-.133-.2-.166-.433-.1-.7a26.49 26.49 0 0 1 .3-2.1c0-.133.033-.234.1-.3.3.4.7.6 1.1.8Z"/>
  <path fill="#261A0E" fill-rule="evenodd" d="M53.7 14.3c0 .3-.2.4-.4.6-.466.333-.966.434-1.5.3-.3 0-.6-.2-.8-.4-.066-.2-.1-.4-.1-.6.067-.133.2-.233.4-.3h.1l.2.2c.067 0 .1.034.1.1.2.2.7.2 1 0l.1-.1c.2-.3.4-.4.7-.2.133.067.2.2.2.4Zm-.5.3c.2 0 .3-.1.3-.3.1-.2-.1-.3-.2-.3-.2 0-.3.1-.4.3 0 .1.2.3.3.3Zm0 .2-.1-.1a1.163 1.163 0 0 1-.3-.2c0-.1-.1-.1-.1-.1-.4.2-.8.2-1.1-.1-.067-.067-.133-.1-.2-.1-.066-.066-.133-.066-.2 0-.133.067-.167.133-.1.2 0 .2.2.4.3.5.6.3 1.2.3 1.8-.1Z" clip-rule="evenodd"/>
  <path fill="#EC5F42" d="M52.2 25.5c.2 0 .3.1.3.3 0 .2-.1.3-.3.3-.2 0-.3-.2-.3-.4 0-.1.2-.2.3-.2Zm1.3-11.2c0 .2-.1.3-.3.3-.1 0-.3-.2-.3-.3.1-.2.2-.3.4-.3.1 0 .3.1.2.3Zm-.8 6.4c.133.067.167.133.1.2a86.37 86.37 0 0 0-.2 1.5c0 .067-.033.1-.1.1-.533.333-1.1.367-1.7.1 0-.067-.033-.1-.1-.1.2-.067.367-.134.5-.2h.1c.4.066.733 0 1-.2.4-.2.4-.6.2-1-.066-.133-.2-.2-.4-.2-.4-.2-.9-.1-1.2.3-.1.1-.1.2-.1.3-.1.1-.1.1-.1.2h-.4c-.1 0-.1 0-.1-.1 0-.2.067-.367.2-.5.3-.4.7-.6 1.2-.7.4-.067.767.034 1.1.3Zm.4-6 .1.1c-.6.4-1.2.4-1.8.1-.1-.1-.3-.3-.3-.5-.066-.067-.033-.133.1-.2.067-.066.134-.066.2 0 .067 0 .134.033.2.1.3.3.7.3 1.1.1 0 0 .1 0 .1.1.067.067.167.134.3.2ZM52 25.3a1.57 1.57 0 0 0-.3.4v.1c-.6-.1-1 .4-1 .9 0 .2-.067.3-.2.3-.2.067-.333 0-.4-.2 0-.267.067-.533.2-.8.3-.6.8-.9 1.4-.8.067 0 .167.033.3.1Z"/>
  <path fill="#EC5F42" d="M51.3 21.2c.3.2.3.5.1.7-.2.2-.5.4-.8.4-.267.067-.533.1-.8.1v-.1c-.3 0-.6-.1-.8-.3-.3-.2-.3-.6 0-.8.067-.066.1-.066.1 0 .067.134.1.233.1.3 0 .2.1.3.3.4.4.067.8.067 1.2 0 .2-.067.3-.166.3-.3 0-.2.1-.3.2-.4h.1Z"/>
  <path fill="#EC5F42" d="M49.9 20.9h.4a1.565 1.565 0 0 1-.3.4.887.887 0 0 1-.1-.4Zm-.1.4v.3c0 .1 0 .1-.1.1h-.2c-.066-.066-.1-.133-.1-.2-.1-.6-.7-.9-1.2-.7a1.26 1.26 0 0 0-.3.5c0 .067-.033.1-.1.1h-.2c-.133 0-.166-.066-.1-.2.067-.4.3-.666.7-.8.7-.2 1.4.2 1.6.9Zm-.9 1 .4.2c-.5.4-1.3.2-1.5-.3.133 0 .233-.033.3-.1.067 0 .1.034.1.1.2.134.433.166.7.1 0-.067 0-.067 0 0Z"/>
  <path fill="#EC5F42" d="M48.4 21.1c.2.3.1.6-.2.8-.3.1-.5.1-.8.1-.133 0-.233-.033-.3-.1-.133 0-.2-.066-.2-.2.067-.133.167-.2.3-.2.067 0 .133.034.2.1h.4c.2 0 .2-.1.3-.3 0-.067.033-.133.1-.2.067-.066.133-.066.2 0Zm-.8-.5a1.163 1.163 0 0 0-.2.3h-.2c-.1 0-.1-.1-.1-.2-.1-.1.1-.2.2-.2.067 0 .167.033.3.1ZM42.2 22c0 .1-.1.2-.2.2-.2.067-.433.1-.7.1 0 0-.6-.1-.8-.2l-.2-.2c-.133-.067-.167-.167-.1-.3l.3-.3h.1c.133.066.2.167.2.3 0 .1.1.2.2.2h1c.133.066.2.133.2.2Zm0-.9c0 .067-.033.1-.1.1-.2 0-.2 0-.3-.1 0-.067-.033-.1-.1-.1 0-.067-.033-.1-.1-.1a.887.887 0 0 1 .4-.1c.1 0 .2.1.2.3Z"/>
  <path fill="#EC5F42" d="M41.7 21.5c0 .067-.033.1-.1.1h-.4c-.1 0-.1 0-.1-.1a.6.6 0 0 0-.4-.4c-.3-.2-.6-.2-1-.1-.267 0-.5.1-.7.3 0 .066-.033.133-.1.2 0 .067-.033.1-.1.1h-.3c-.133 0-.167-.067-.1-.2.067-.2.2-.367.4-.5.5-.3 1-.4 1.5-.3.3 0 .7.1 1 .3.267.133.4.333.4.6Zm-1.1.9c.134 0 .3.033.5.1-.333.2-.666.3-1 .3-.5.1-1-.1-1.4-.4h.1a.887.887 0 0 0 .4-.1h.2a1.73 1.73 0 0 0 1 .1h.2Z"/>
  <path fill="#261A0E" fill-rule="evenodd" d="M41.3 11c.2.1.4.3.3.5 0 .6-.3 1.1-.8 1.4-.333.2-.7.3-1.1.3-1.2-.2-1.8-1.5-1.2-2.5.067-.133.133-.233.2-.3.133-.133.267-.167.4-.1.3.1.4.4.3.6 0 .067-.033.167-.1.3-.3.4 0 1 .6 1 .4.1.7-.3.8-.7 0-.1 0-.3.1-.4.1-.1.4-.2.5-.1Zm-.2.7c.2 0 .3-.1.4-.2 0-.2-.1-.3-.3-.4-.2 0-.3.1-.3.3 0 .2.1.3.2.3Zm.3.2h-.1a.888.888 0 0 1-.4-.1c-.1 0-.1 0-.1.1l-.3.3c-.3.3-.7.3-1.1.1-.3-.2-.4-.6-.4-.9.067-.2.133-.367.2-.5.133-.133.133-.233 0-.3 0-.066-.033-.1-.1-.1-.133-.067-.233-.067-.3 0a1.16 1.16 0 0 1-.2.3c-.4.7-.1 1.5.5 2 .5.3 1.2.3 1.6-.1.333-.2.567-.467.7-.8Z" clip-rule="evenodd"/>
  <path fill="#EC5F42" d="M41.5 11.5c-.1.1-.2.2-.4.2-.1 0-.2-.1-.2-.3 0-.2.1-.3.3-.3.2.1.3.2.3.4Zm-2 9.8c.3.1.3.4.1.6-.3.2-.6.3-1 .3h-.1c-.6-.1-1.1-.4-1.4-.9-.067-.134-.1-.233-.1-.3 0-.3.2-.5.4-.5l.1.1v.4c-.067.133-.067.233 0 .3.2.2.5.3.7.4.2.067.433.1.7.1.1 0 .2-.1.2-.2.1-.2.2-.3.3-.3h.1Z"/>
  <path fill="#EC5F42" d="M37.1 19.4c.7.3 1.1 1.1 1 1.8 0 .2-.1.2-.3.1-.1-.1-.2-.2-.1-.4.1-.4-.2-.9-.7-1.1-.2-.067-.4-.033-.6.1h-.1v-.5s0-.1.1-.1c.267-.067.5-.033.7.1Zm-.1 2.1c.067.133.167.267.3.4-.333 0-.6-.066-.8-.2l-.2-.2c-.066 0-.1-.033-.1-.1s.033-.167.1-.3h.1c.133.2.3.333.5.4h.1Zm-.9-.6a.95.95 0 0 1-.4.8c-.3.2-.5.3-.8.4h-.3v-.7c0-.067.033-.133.1-.2.2 0 .367-.033.5-.1.1 0 .1 0 .1-.1 0-.067-.067-.1-.2-.1a.887.887 0 0 1-.4.1c-.067.067-.1.033-.1-.1v-.7c0-.1.1-.1.2-.1a.888.888 0 0 0 .4-.1c.1 0 .1 0 .1-.1s-.1-.1-.2-.1a.887.887 0 0 1-.4.1v-.6c0-.1 0-.1.1-.1a2.2 2.2 0 0 0 .9-.4c.133-.067.267-.167.4-.3v2.4Zm0-3.3c.1.4 0 .7-.4 1a3.15 3.15 0 0 1-1 .4s-.1 0-.1-.1l-.4-.6.6-.4c.2-.2.5-.4.5-.8h.1c.3 0 .6.2.7.5Z"/>
  <path fill="#B3C579" d="M35.1 15.5c0 .667-.1 1.333-.3 2 0 .2-.1.2-.2.3-.4.2-.7.4-1.1.5a9.852 9.852 0 0 1-2.8 0 3.11 3.11 0 0 1-1.3-.5c-.267-.133-.433-.367-.5-.7a19.89 19.89 0 0 1-.3-2.1c0-.067-.033-.133-.1-.2a6.993 6.993 0 0 1-.5-1c-.3-.5-.1-1.1.4-1.4.733-.4 1.5-.8 2.3-1.2.333-.2.633-.2.9 0 .267.267.367.567.3.9 0 .2-.1.367-.3.5l-1.6 1-.1.1c0 .1.1.1.1.1h.7c.7 0 1.4.2 2 .6.067 0 .133.033.2.1.067 0 .133-.033.2-.1l-.1-.1a2.55 2.55 0 0 0-.6-.3 5.535 5.535 0 0 0-1.4-.4h-.1c.333-.066.567-.267.7-.6.1.5.4.8.9.8.4.1.7-.1 1.1-.5.3.4.8.6 1.2.4.1-.1.1-.1.2 0 0 .6.033 1.2.1 1.8Z"/>
  <path fill="#EC5F42" d="M34.4 22.1c0 .067-.033.1-.1.1-.333.067-.633.133-.9.2h-2.2c-.6-.067-1.167-.167-1.7-.3-.4-.1-.9-.2-1.2-.5-.267-.2-.367-.433-.3-.7v-2.5.1c.3.3.7.4 1 .5.6.2 1.233.333 1.9.4.6.067 1.2.1 1.8.1.533-.067 1.1-.134 1.7-.2v.3c0 .1.1.3 0 .4h-.3c-.067.067-.167.1-.3.1 0 0-.1.1-.1.2.067.066.133.066.2 0h.2c.133-.067.233-.1.3-.1v.8c0 .067-.033.1-.1.1-.133.067-.3.1-.5.1 0 .1-.1.1-.1.2s.1.1.2.1c.2-.067.367-.134.5-.2v.8Z"/>
  <path fill="#B3C579" d="m29.1 22.1-.1 6.4 6.5.7.2-1-.6-6.1-2 .4h-2.6l-1.4-.4Zm6-9.3c.1.4-.3.7-.6.7h-.1c-.4 0-.7-.2-.7-.6-.067-.533-.1-1.1-.1-1.7-.1-.4.3-.7.8-.7.334.067.534.3.6.7.067.534.1 1.067.1 1.6Z"/>
  <path fill="#EC5F42" d="M34.3 19c.067 0 .067.033 0 .1a3.32 3.32 0 0 0-.8.1c-.467 0-.933.033-1.4.1-.4 0-.8-.1-1.1-.1-.6-.1-1.2-.1-1.8-.3-.4-.1-.7-.3-1-.5-.4-.4-.2-1 .1-1.2.067-.066.133-.1.2-.1l.1.1c.133.334.333.567.6.7.333.267.7.433 1.1.5.6.133 1.233.2 1.9.2.6 0 1.167-.067 1.7-.2.067-.067.1-.067.1 0 .133.2.233.4.3.6Z"/>
  <path fill="#B3C579" d="M33.4 12.9c0 .4-.3.7-.6.7-.267.067-.5.033-.7-.1-.133-.067-.2-.2-.2-.4-.067-.133-.1-.233-.1-.3 0-.067.033-.1.1-.1.4-.4.4-1.1-.1-1.5-.133-.133-.2-.267-.2-.4 0-.2.067-.333.2-.4.2-.267.433-.367.7-.3.3 0 .6.1.7.4v.3c.067.666.133 1.367.2 2.1Zm-2.1-2.1h-.1c-.3 0-.6.1-.8.3a4.89 4.89 0 0 0-.5.3 4.631 4.631 0 0 1-.1-.9c0-.3.3-.6.6-.6.4-.1.7.1.8.4.1.2.1.3.1.5Zm-1.7.6c0 .067-.033.133-.1.2-.4.2-.767.4-1.1.6-.1 0-.2 0-.2-.1 0-.467-.033-.933-.1-1.4-.1-.5.4-.8.8-.8.3.1.6.3.6.7.067.267.1.533.1.8Z"/>
  <path fill="#261A0E" fill-rule="evenodd" d="m36.3 21.9-.2-.2a1.165 1.165 0 0 1-.3.2l-.1.1h-.1a1.16 1.16 0 0 0-.3.2h-.1v.3l.2 2c.067.333.1.633.1.9 0 0 .1 1.1.1 1.5.067.467.1.967.1 1.5v.8h-.2c0-.666-.033-1.3-.1-1.9a75.295 75.295 0 0 0-.3-3.7c0-.4-.033-.8-.1-1.2 0-.133-.033-.167-.1-.1-.7.2-1.4.3-2.2.3-.8.067-1.6.033-2.4-.1a19.483 19.483 0 0 1-.9-.2h-.1c-.067-.067-.1-.033-.1.1a20.29 20.29 0 0 0-.1 2c-.067 1.133-.1 2.3-.1 3.5v.6h-.3v-.4c.067-1.133.134-2.3.2-3.5v-1.7c0-.067.034-.1.1-.1-.067-.067-.1-.133-.1-.2.067-.133.1-.233.1-.3 0-.1-.1-.2-.2-.2-.4-.1-.7-.3-.9-.6-.066-.067-.1-.133-.1-.2v-.1c-.067-.066-.1-.133-.1-.2 0-.333.034-.667.1-1v-.9l-.1-.1v-.2c.067-.133.1-.233.1-.3v-.7c0-.2.067-.4.2-.6.134-.2.3-.333.5-.4.067 0 .1-.033.1-.1-.067-.2-.1-.366-.1-.5V16a5.085 5.085 0 0 1-.1-1l-.1-.1a7.003 7.003 0 0 0-.5-1c-.3-.5-.2-1.1.2-1.4.067-.067.067-.133 0-.2 0-.533-.033-1.066-.1-1.6-.1-.5.3-.9.8-1 .4 0 .7.167.9.5h.1c.2-.4.5-.6.9-.5.467 0 .767.233.9.7.267-.467.633-.633 1.1-.5.533.067.8.367.8.9.2-.267.434-.433.7-.5h.1c.2 0 .4 0 .6.1.1.1.3.2.3.3.1.1.1.3.1.5v.1c.067.4.1.833.1 1.3.1.3.1.6-.1.8l-.1.1c.067.267.1.533.1.8.1.5.1 1.1.1 1.6v.1a3.32 3.32 0 0 0-.1.8h.1c.2.1.4.1.5.2.3.2.5.4.5.8V19c0 .1 0 .1.1.1.7-.1 1.1.2 1.5.7l.1.1c.067.067.1.167.1.3l.1.1c0 .067.033.1.1.1.134.067.3.134.5.2h.1c.334-.133.667-.2 1-.2a2.84 2.84 0 0 1 1.5.2c0 .067.034.1.1.1.2-.066.367-.1.5-.1.2 0 .334.1.4.3v.2c-.066.2-.166.3-.3.3h-.2c0 .2 0 .2.2.2.2.1.3.2.3.5 0 .2-.2.3-.4.4h-.5c-.066 0-.133.034-.2.1-.1.1-.3.2-.5.2-.2.133-.4.2-.6.2h-.5c-.5 0-1-.2-1.3-.6h-.1c-.2-.067-.4-.166-.6-.3h-.2c-.133.067-.3.067-.5 0 0 0-.2 0-.4-.1l-.3-.1Zm5.7.3c.1 0 .2-.1.2-.2 0-.067-.067-.133-.2-.2h-1c-.1 0-.2-.1-.2-.2 0-.133-.066-.233-.2-.3h-.1l-.3.3c-.067.133-.033.233.1.3l.2.2c.2.1.8.2.8.2.267 0 .5-.033.7-.1Zm.1-1c.067 0 .1-.033.1-.1 0-.2-.1-.3-.2-.3a.887.887 0 0 0-.4.1c.067 0 .1.033.1.1.067 0 .1.034.1.1.1.1.1.1.3.1Zm-.5.4c.067 0 .1-.033.1-.1 0-.267-.133-.467-.4-.6-.3-.2-.7-.3-1-.3-.5-.1-1 0-1.5.3-.2.133-.333.3-.4.5-.066.133-.033.2.1.2h.3c.067 0 .1-.033.1-.1.067-.067.1-.133.1-.2.2-.2.434-.3.7-.3.4-.1.7-.1 1 .1.2.067.333.2.4.4 0 .1 0 .1.1.1h.4Zm-.5.9c-.2-.067-.367-.1-.5-.1h-.2a1.729 1.729 0 0 1-1-.1h-.2a.888.888 0 0 1-.4.1h-.1c.4.3.9.5 1.4.4.334 0 .667-.1 1-.3Zm-.8-1.3c-.1-.1-.4-.1-.5 0 .067.134.134.233.2.3l.3-.3Zm-.1 1-.3-.3-.3.3c.1.1.5.1.6 0Zm-.6-.3c.2-.2.2-.5-.1-.6h-.1c-.1 0-.2.1-.3.3 0 .1-.1.2-.2.2-.267 0-.5-.033-.7-.1-.2-.1-.5-.2-.7-.4-.066-.067-.066-.167 0-.3v-.4l-.1-.1c-.2 0-.4.2-.4.5 0 .067.033.167.1.3.3.5.8.8 1.4.9h.1c.4 0 .7-.1 1-.3Zm-1-1.1a1.165 1.165 0 0 0-.3-.2v.5l.3-.3Zm-.5.4c.1-.7-.3-1.5-1-1.8-.2-.133-.433-.167-.7-.1-.1 0-.1.1-.1.1v.5h.1c.2-.133.4-.167.6-.1.5.2.8.7.7 1.1-.1.2 0 .3.1.4.2.1.3.1.3-.1Zm-.8-.9c0-.1-.1-.2-.1-.2-.2-.133-.4-.167-.6-.1a.653.653 0 0 0-.3.3c0 .2.034.367.1.5.1.2.3.4.4.4v-.3c0-.1 0-.1.1-.2.067-.2.2-.333.4-.4Zm0 1.6a1.563 1.563 0 0 1-.3-.4h-.1a.964.964 0 0 1-.5-.4h-.1c-.066.133-.1.233-.1.3 0 .067.033.1.1.1l.2.2c.2.134.467.2.8.2Zm-1.6-.2a.95.95 0 0 0 .4-.8v-2.4a1.57 1.57 0 0 1-.4.3 2.2 2.2 0 0 1-.9.4c-.1 0-.1 0-.1.1v.6a.888.888 0 0 0 .4-.1c.1 0 .2 0 .2.1s0 .1-.1.1a.888.888 0 0 1-.4.1c-.1 0-.2 0-.2.1v.7c0 .133.033.167.1.1a.888.888 0 0 0 .4-.1c.133 0 .2.033.2.1 0 .1 0 .1-.1.1-.133.067-.3.1-.5.1-.067.067-.1.133-.1.2v.7h.3c.3-.1.5-.2.8-.4Zm0-3.1c.4-.3.5-.6.4-1-.1-.3-.4-.5-.7-.5h-.1c0 .4-.3.6-.5.8l-.6.4.4.6c0 .1.1.1.1.1a3.15 3.15 0 0 0 1-.4Zm-.9-1.1c.2-.667.3-1.333.3-2-.067-.6-.1-1.2-.1-1.8-.1-.1-.1-.1-.2 0-.4.2-.9 0-1.2-.4-.4.4-.7.6-1.1.5-.5 0-.8-.3-.9-.8-.133.333-.367.534-.7.6h.1c.467.067.933.2 1.4.4.2.067.4.167.6.3l.1.1c-.067.067-.133.1-.2.1-.066-.067-.133-.1-.2-.1-.6-.4-1.3-.6-2-.6H30s-.1 0-.1-.1l.1-.1 1.6-1c.2-.133.3-.3.3-.5.067-.333-.033-.633-.3-.9-.267-.2-.567-.2-.9 0-.8.4-1.566.8-2.3 1.2-.5.3-.7.9-.4 1.4.134.333.3.667.5 1 .067.067.1.133.1.2.067.733.167 1.433.3 2.1.067.333.234.567.5.7.4.267.834.433 1.3.5a9.852 9.852 0 0 0 2.8 0c.4-.1.7-.3 1.1-.5.1-.1.2-.1.2-.3Zm-.5 4.7c.067 0 .1-.033.1-.1v-.8a3.86 3.86 0 0 1-.5.2c-.1 0-.2 0-.2-.1s.1-.1.1-.2c.2 0 .367-.033.5-.1.067 0 .1-.033.1-.1v-.8c-.066 0-.166.033-.3.1h-.2c-.066.067-.133.067-.2 0 0-.1.1-.2.1-.2.134 0 .233-.033.3-.1h.3c.1-.1 0-.3 0-.4v-.3c-.6.067-1.166.133-1.7.2-.6 0-1.2-.033-1.8-.1-.666-.067-1.3-.2-1.9-.4-.3-.1-.7-.2-1-.5v-.1 2.5c-.067.267.034.5.3.7.3.3.8.4 1.2.5.534.133 1.1.233 1.7.3h2.2c.267-.067.567-.133.9-.2Zm.2-8.7c.3 0 .7-.3.6-.7 0-.533-.033-1.066-.1-1.6-.066-.4-.267-.633-.6-.7-.5 0-.9.3-.8.7 0 .6.033 1.167.1 1.7 0 .4.3.6.7.6h.1Zm-.2 5.6c.067-.067.067-.1 0-.1-.066-.2-.166-.4-.3-.6 0-.067-.033-.067-.1 0-.533.133-1.1.2-1.7.2a8.74 8.74 0 0 1-1.9-.2 2.36 2.36 0 0 1-1.1-.5c-.267-.133-.466-.366-.6-.7l-.1-.1c-.067 0-.133.034-.2.1-.3.2-.5.8-.1 1.2.3.2.6.4 1 .5.6.2 1.2.2 1.8.3.3 0 .7.1 1.1.1a9.88 9.88 0 0 1 1.4-.1c.267-.066.533-.1.8-.1Zm-1.5-5.5c.3 0 .6-.3.6-.7-.066-.733-.133-1.433-.2-2.1v-.3c-.1-.3-.4-.4-.7-.4-.267-.066-.5.033-.7.3-.133.067-.2.2-.2.4 0 .133.067.267.2.4.5.4.5 1.1.1 1.5-.066 0-.1.033-.1.1s.034.167.1.3c0 .2.067.333.2.4.2.133.433.167.7.1Zm-1.6-2.8h.1c0-.2 0-.3-.1-.5-.1-.3-.4-.5-.8-.4-.3 0-.6.3-.6.6 0 .267.034.567.1.9.2-.133.367-.233.5-.3.2-.2.5-.3.8-.3Zm-.4 2.5c.2.1.6-.1.6-.3-.2.133-.4.233-.6.3Zm-1.3-1.7c.067-.066.1-.133.1-.2a3.29 3.29 0 0 0-.1-.8c0-.4-.3-.6-.6-.7-.4 0-.9.3-.8.8.067.467.1.934.1 1.4 0 .1.1.1.2.1.334-.2.7-.4 1.1-.6Z" clip-rule="evenodd"/>
  <path fill="#050505" d="m13.2 19.2-.1-.8v-.7c0-.2.067-.5.2-.9s.3-.766.5-1.1c.2-.333.533-.633 1-.9.533-.267 1.133-.4 1.8-.4 1.4-.1 2.5.4 3.1.9.267.267.467.633.6 1.1.2.4.3.7.3.9.067.267.1.534.1.8.067.8-.167 1.667-.7 2.6a16.114 16.114 0 0 1-1.8 2.4l2.9-.2.1 3-7.4.4-.2-2.7c1.9-1.7 3-3.1 3.4-3.9l.4-.8c.067-.2.1-.4.1-.6 0-.4 0-.6-.2-.8-.133-.067-.3-.1-.5-.1-.4 0-.5.3-.5 1l.1.7-3.2.1Z"/>
  <path fill="#FEFEFE" d="M14.3 18v-1.5c0-.2.033-.533.1-1 .133-.4.3-.767.5-1.1.2-.267.567-.533 1.1-.8.467-.267 1.033-.433 1.7-.5 1.5 0 2.6.4 3.1 1 .267.267.5.6.7 1l.3.9v.9c.067.8-.167 1.633-.7 2.5a12.047 12.047 0 0 1-1.7 2.4l2.8-.1.2 2.9-7.5.4-.1-2.6c1.8-1.8 3-3.1 3.4-3.9.2-.4.333-.7.4-.9V17c0-.4 0-.6-.2-.8a.888.888 0 0 0-.4-.1c-.5 0-.6.3-.5 1v.7l-3.2.2Z"/>
  <path fill="#6A4C9E" d="m71.4 46.8-65.6 5 .1-4.9L71 41.8l.4 5Z"/>
  <path fill="#FEFEFE" fill-rule="evenodd" d="M35.4 52.9c.9-.1 1.9-.1 1.7 2.9-.2 2.8-1.1 3-2.5 3.1h-.5l.4-6h.9Zm-.1.7-.3 4.7c1.2-.1 1.2-1.3 1.3-2.4.1-.9.3-2.5-1-2.3Z" clip-rule="evenodd"/>
  <path fill="#FEFEFE" d="m39.9 52.5-.1.7-1.2.1-.2 1.9 1.2-.1-.1.7-1.1.1-.2 2 1.3-.1v.7l-2.1.1.5-5.9 2-.2Zm2.5-.2-.4 5.3 1.3-.1-.1.7-2 .1.4-5.9.8-.1Z"/>
  <path fill="#FEFEFE" fill-rule="evenodd" d="m45.3 52.1.8 5.8-.7.1-.2-1.2-1.1.1-.3 1.2-.7.1 1.7-6.1h.5Zm-.3 3.3-.1-2.1-.7 3.1.9-.1-.1-.9ZM12.7 45l2.3 7.7-2.5.2-.2-.8-2.4.2-.3.8-2.5.2 3.3-8.1 2.3-.2Zm-2 5 1-.1-.4-1.6-.6 1.7Zm5 2.7.5-8 3.3-.2h.8c.267.067.534.166.8.3.2.133.367.333.5.6.2.267.3.633.3 1.1-.066.6-.3 1.133-.7 1.6.534.333.767.867.7 1.6-.066 1.667-1.133 2.567-3.2 2.7l-3 .3Zm2.3-2.4 1-.1c.334 0 .5-.134.5-.4 0-.3-.1-.4-.4-.4l-1 .1-.1.8Zm.2-2.6.9-.1c.1 0 .3-.1.3-.4.1-.4-.1-.5-.2-.4h-1v.9Zm8.6-3.9c1.133-.133 2.067.167 2.8.9.733.733 1.067 1.7 1 2.9-.067 1.133-.5 2.133-1.3 3-.867.8-1.833 1.267-2.9 1.4-1.133.067-2.066-.267-2.8-1-.733-.733-1.067-1.666-1-2.8.067-1.133.534-2.133 1.4-3 .8-.867 1.733-1.334 2.8-1.4Zm-.3 5.9c.467 0 .867-.2 1.2-.6.333-.4.5-.867.5-1.4.067-.467-.067-.9-.4-1.3-.267-.333-.633-.467-1.1-.4-.467 0-.866.2-1.2.6-.333.4-.5.867-.5 1.4-.067.533.067.967.4 1.3.267.333.634.467 1.1.4Z" clip-rule="evenodd"/>
  <path fill="#FEFEFE" d="m34.2 43.3-.4 5.7 3.2-.2-.1 2.2-5.5.4.5-7.9 2.3-.2Zm3.4 7.6.5-7.9 2.2-.2-.4 8-2.3.1Zm11.5-4.2c-.267 1.067-.8 1.933-1.6 2.6-.733.733-1.6 1.134-2.6 1.2-1.133.134-2.033-.2-2.7-1-.733-.733-1.067-1.666-1-2.8.067-1.133.5-2.133 1.3-3 .8-.866 1.767-1.333 2.9-1.4 1-.067 1.833.2 2.5.8.733.6 1.133 1.4 1.2 2.4l-2.4.2c-.067-.4-.233-.7-.5-.9-.267-.2-.567-.3-.9-.3-.467.067-.867.3-1.2.7a2.58 2.58 0 0 0-.6 1.3c0 .534.133.967.4 1.3.333.333.7.5 1.1.5.333 0 .667-.133 1-.4.267-.267.467-.6.6-1l2.5-.2Zm.6 3.3.5-7.9 2.2-.2-.4 7.9-2.3.2Z"/>
  <path fill="#FEFEFE" fill-rule="evenodd" d="M57.5 41.4c1.067-.133 1.967.166 2.7.9.733.733 1.067 1.7 1 2.9-.067 1.133-.5 2.133-1.3 3-.8.8-1.767 1.267-2.9 1.4-1.133.067-2.066-.267-2.8-1-.667-.733-1-1.667-1-2.8.133-1.133.6-2.133 1.4-3 .8-.867 1.767-1.333 2.9-1.4Zm-.4 5.9c.467 0 .867-.2 1.2-.6.334-.4.534-.867.6-1.4 0-.467-.133-.9-.4-1.3a1.344 1.344 0 0 0-1.2-.4c-.4 0-.8.2-1.2.6-.333.4-.5.867-.5 1.4-.066.533.067.967.4 1.3.267.333.634.467 1.1.4Zm1.5-6.6-2.2.2 1.1-2.2 2.6-.2-1.5 2.2Z" clip-rule="evenodd"/>
  <path fill="#FEFEFE" d="m69.2 40.6-.4 7.9-2.1.2-2.2-3.3-.2 3.5-2.3.1.5-7.9 2-.2 2.3 3.3.2-3.4 2.2-.2Z"/>
  <path fill="#6A4C9E" d="M74.8 64.3 3.2 69.4l.1-4.9 71-5.1.5 4.9Z"/>
  <path fill="#FEFEFE" d="M7.9 65v.7l3-.2-.2 2-2.9.3-.1.6 3.2-.2-.1 2.2-5.4.5.4-8 5.5-.4-.1 2.2-3.3.3Zm5.4 2.3c.466.533 1.033.8 1.7.8.4-.067.633-.233.7-.5 0-.067-.133-.167-.4-.3l-.9-.3a3.144 3.144 0 0 1-1-.4c-.334-.133-.633-.367-.9-.7-.2-.333-.3-.733-.3-1.2 0-.466.233-1 .7-1.6.4-.5 1.2-1 2.3-1.1.8 0 1.5.2 2 .5.4.2.7.6.9.8l.1.2-1.6 1.3c-.267-.267-.5-.433-.7-.5-.2-.067-.467-.1-.8-.1-.4 0-.6.2-.6.4s.4.4.9.5c.266.067.566.167.9.3.267.067.533.2.8.4.266.133.466.367.6.7.2.267.3.6.3 1-.1.5-.3 1.1-.8 1.6-.4.6-1.3 1-2.4 1.1-.867.067-1.567-.067-2.1-.4-.534-.334-.9-.733-1.1-1.2l1.7-1.3Zm13.4-1.5c-.2 1-.7 1.867-1.5 2.6-.733.733-1.6 1.134-2.6 1.2-1.133.067-2.067-.266-2.8-1-.667-.733-.967-1.667-.9-2.8.067-1.133.5-2.133 1.3-3s1.767-1.333 2.9-1.4c.933-.066 1.767.2 2.5.8.667.534 1.067 1.3 1.2 2.3l-2.4.2a1.822 1.822 0 0 0-.6-.8c-.267-.2-.567-.3-.9-.3-.4.067-.8.3-1.2.7-.333.333-.5.767-.5 1.3 0 .534.133.967.4 1.3.267.334.633.5 1.1.5.333-.067.667-.233 1-.5.267-.2.467-.5.6-.9l2.4-.2Zm3.4-4.9-.3 5.7 3.2-.2-.1 2.2-5.5.5.4-8 2.3-.2Z"/>
  <path fill="#FEFEFE" fill-rule="evenodd" d="m38.9 60.2 2.3 7.7-2.4.2-.2-.8-2.5.2-.3.9-2.4.2 3.2-8.2 2.3-.2Zm-1.9 5h1l-.4-1.7-.6 1.7Z" clip-rule="evenodd"/>
  <path fill="#FEFEFE" d="m45.3 67.6-2.3.2-2.3-7.7 2.4-.2 1.2 4.6 1.8-4.9 2.4-.2-3.2 8.2Zm3.4-.3.5-7.9 2.2-.2-.4 7.9-2.3.2Zm5.6-6.1-2.1.2.1-2.3 6.4-.5-.1 2.2-2.1.2-.3 5.7-2.3.2.4-5.7Zm8 5.2c-.1 0-.2 0-.7-.1-.4 0-.8-.1-1.2-.4-.5-.3-.8-.6-1-1.4-.133-.333-.2-.733-.2-1.2l.3-4.8 2.3-.1-.3 4.8c0 .1 0 .1.1.3 0 .133.033.233.1.3.1.2.4.4.7.3.267 0 .467-.1.6-.3.2-.133.3-.3.3-.5l.1-.2.3-4.9 2.2-.2-.3 4.8c0 .9-.3 1.7-.7 2.2-.2.2-.433.4-.7.6-.7.5-1.4.7-1.8.7l-.1.1Z"/>
  <path fill="#FEFEFE" fill-rule="evenodd" d="m66.6 65.9.4-8 3-.2c1.133-.133 2.033.167 2.7.9.666.667.966 1.566.9 2.7-.067 1.2-.467 2.2-1.2 3-.734.8-1.667 1.233-2.8 1.3l-3 .3Zm2.5-5.9-.2 3.5.8-.1c.466 0 .833-.167 1.1-.5.267-.4.433-.833.5-1.3 0-.467-.133-.867-.4-1.2-.2-.333-.534-.467-1-.4h-.8ZM7.2 35.8c.9-.1 1.9-.1 1.7 2.9-.2 2.8-1.1 3-2.4 3.1H6l.4-6h.8Zm-.2.7-.3 4.6c1.3 0 1.3-1.2 1.4-2.3 0-.9.2-2.5-1.1-2.3Z" clip-rule="evenodd"/>
  <path fill="#FEFEFE" d="M10 41.5h-.7l.4-5.9.8-.1-.5 6Zm0-6.2-.4-.2.7-1.2.5.3-.8 1.1Z"/>
  <path fill="#FEFEFE" fill-rule="evenodd" d="m12.6 35.3.8 5.9-.8.1-.1-1.2-1.1.1-.3 1.2-.8.1 1.7-6.1.6-.1Zm-.2 3.3-.2-2.1-.7 3h.9v-.9Z" clip-rule="evenodd"/>
  <path fill="#FEFEFE" d="m15.8 41-.7.1.4-6 .7-.1-.4 6Zm1.7-4.3v2l-.2 2.2-.8.1.5-6 .7-.1 1 4.5V37l.1-2.2h.8l-.4 5.9-.7.1-1-4.5v.4Zm4.8-2.1v.6l-.9.1-.3 5.3-.8.1.4-5.3h-.9v-.6l2.5-.2Zm2.3-.2v.7l-1.3.1-.1 1.8 1.1-.1-.1.7-1.1.1-.1 2.1 1.2-.1v.6l-2 .2.4-6 2-.1Z"/>
  <path fill="#FEFEFE" fill-rule="evenodd" d="M25 34.3h.9c.6-.1 1.4-.1 1.3 1.4 0 .5-.2 1.4-.9 1.6l.9 2.8-.8.1-.8-2.9h-.1l-.2 3h-.7l.4-6Zm1.4 1.6c0-.6 0-1-.6-1h-.1l-.1 2c.5 0 .7-.4.8-1Z" clip-rule="evenodd"/>
  <path fill="#FEFEFE" d="m28.5 35.8-.1 2-.1 2.2-.8.1.5-6 .7-.1 1 4.5v-2.4l.1-2.2h.8l-.4 6h-.7l-1-4.5v.4Z"/>
  <path fill="#FEFEFE" fill-rule="evenodd" d="m32.7 33.7.8 5.9-.7.1-.2-1.2-1.1.1-.3 1.2h-.7l1.6-6 .6-.1Zm-.2 3.3-.2-2.2-.6 3.1.9-.1-.1-.8Z" clip-rule="evenodd"/>
  <path fill="#FEFEFE" d="M36.4 34.2c-.133-.067-.3-.1-.5-.1-1 .1-1.1 1.7-1.2 2.5-.1.8-.1 2.2.9 2.2.2-.067.367-.133.5-.2l-.1.7c-.2.133-.4.2-.6.2-1.5.1-1.6-1.6-1.5-2.8.1-1.2.4-3.2 1.9-3.3.3 0 .4 0 .7.1l-.1.7Zm.8 5.1-.8.1.4-6 .8-.1-.4 6Z"/>
  <path fill="#FEFEFE" fill-rule="evenodd" d="M40.9 36c0 1.1-.2 3.1-1.7 3.2-1.4.1-1.3-1.9-1.2-2.9.1-1.1.2-3.1 1.7-3.2 1.4-.1 1.3 1.8 1.2 2.9Zm-2.1.2c-.1 1.3-.1 2.3.5 2.3.6-.1.7-1.1.8-2.4.1-1.3.1-2.3-.5-2.3-.6.1-.7 1.1-.8 2.4Z" clip-rule="evenodd"/>
  <path fill="#FEFEFE" d="M42.2 34.7v2l-.1 2.2-.8.1.4-6 .8-.1 1 4.5V35l.1-2.2h.8l-.5 6h-.7l-1-4.5v.4Z"/>
  <path fill="#FEFEFE" fill-rule="evenodd" d="m46.5 32.6.8 5.9h-.8l-.1-1.1-1.1.1-.3 1.2h-.8l1.7-6 .6-.1Zm-.2 3.3-.2-2.2-.7 3.1.9-.1v-.8Z" clip-rule="evenodd"/>
  <path fill="#FEFEFE" d="m48.8 32.4-.4 5.3 1.3-.1-.1.7-2 .2.4-6 .8-.1Z"/>
  <path fill="#FEFEFE" fill-rule="evenodd" d="m51.3 38.2.4-6 .9-.1c.6 0 1.5 0 1.4 1.5-.1 1.2-.6 1.8-1.8 1.9l-.2 2.6-.7.1Zm1.2-5.4-.2 2c.7 0 .9-.4.9-1 .1-.6-.1-1-.6-1h-.1Zm3.1-.9.8 5.9h-.8l-.1-1.1-1.1.1-.3 1.1-.8.1 1.7-6.1h.6Zm-.2 3.4-.2-2.2-.7 3.1.9-.1v-.8Zm1.7-3.6h.9c.6-.1 1.4-.1 1.3 1.4 0 .6-.2 1.4-.9 1.6l.9 2.8-.8.1-.8-2.9-.2 3h-.8l.4-6Zm1.4 1.6c0-.6 0-1-.6-1h-.1l-.1 2c.5 0 .8-.4.8-1Z" clip-rule="evenodd"/>
  <path fill="#FEFEFE" fill-rule="evenodd" d="m61.5 31.4.8 5.9h-.8l-.1-1.1-1.1.1-.3 1.2h-.8l1.7-6.1h.6Zm-.3 3.4-.1-2.2-.7 3.1.9-.1-.1-.8Z" clip-rule="evenodd"/>
  <path fill="#FEFEFE" d="m65.1 31.1-.4 5.3 1.3-.1v.7l-2.1.1.5-5.9.7-.1Z"/>
  <path fill="#FEFEFE" fill-rule="evenodd" d="m68.1 30.9.8 5.8-.8.1-.1-1.1-1.2.1-.2 1.1-.8.1 1.7-6.1h.6Zm-.3 3.3-.1-2.1-.7 3.1.9-.1-.1-.9Z" clip-rule="evenodd"/>
</svg>
