<svg width="101" height="115" viewBox="0 0 101 115" fill="none" xmlns="http://www.w3.org/2000/svg">
<path d="M12 44.4L78.9001 42L82.8 106.3L15 108.7L12 44.4Z" fill="#7AC057"/>
<path d="M82.8 106.3L15 108.7L6.5 114.9L71.9001 112.3L82.8 106.3Z" fill="#107C3F"/>
<path d="M12 44.4L3 53.7L6.5 114.9L15 108.7L12 44.4Z" fill="#105B30"/>
<mask id="mask0_150_7768" style="mask-type:luminance" maskUnits="userSpaceOnUse" x="3" y="44" width="12" height="71">
<path d="M11.73 44.38L3.04004 53.7L6.48999 114.87L15 108.63L11.73 44.38Z" fill="white"/>
</mask>
<g mask="url(#mask0_150_7768)">
<path d="M3.80005 -6.5L-17.7 102.4" stroke="#7AC057" stroke-width="0.4"/>
<path d="M6 -2.5L-15.5 106.4" stroke="#7AC057" stroke-width="0.4"/>
<path d="M8.1001 1.39999L-13.3 110.4" stroke="#7AC057" stroke-width="0.4"/>
<path d="M10.3 5.39999L-11.0999 114.3" stroke="#7AC057" stroke-width="0.4"/>
<path d="M12.5 9.39999L-8.8999 118.3" stroke="#7AC057" stroke-width="0.4"/>
<path d="M14.7 13.4L-6.69995 122.3" stroke="#7AC057" stroke-width="0.4"/>
<path d="M16.9001 17.4L-4.5 126.3" stroke="#7AC057" stroke-width="0.4"/>
<path d="M19.1001 21.3L-2.3999 130.3" stroke="#7AC057" stroke-width="0.4"/>
<path d="M21.3 25.3L-0.199951 134.2" stroke="#7AC057" stroke-width="0.4"/>
<path d="M23.5 29.3L2 138.2" stroke="#7AC057" stroke-width="0.4"/>
<path d="M25.6001 33.3L4.19995 142.2" stroke="#7AC057" stroke-width="0.4"/>
<path d="M27.8 37.2L6.40015 146.2" stroke="#7AC057" stroke-width="0.4"/>
<path d="M30 41.2L8.6001 150.2" stroke="#7AC057" stroke-width="0.4"/>
<path d="M32.2 45.2L10.8 154.1" stroke="#7AC057" stroke-width="0.4"/>
<path d="M34.4001 49.2L13 158.1" stroke="#7AC057" stroke-width="0.4"/>
<path d="M41 61.1L-5 -22.4" stroke="#7AC057" stroke-width="0.4"/>
<path d="M39.9001 66.3L-6 -17.3" stroke="#7AC057" stroke-width="0.4"/>
<path d="M38.9001 71.5L-7 -12.1" stroke="#7AC057" stroke-width="0.4"/>
<path d="M37.9001 76.7L-8.09985 -6.90002" stroke="#7AC057" stroke-width="0.4"/>
<path d="M36.9001 81.9L-9.09985 -1.70001" stroke="#7AC057" stroke-width="0.4"/>
<path d="M35.8 87.1L-10.0999 3.5" stroke="#7AC057" stroke-width="0.4"/>
<path d="M34.8 92.2L-11.0999 8.69998" stroke="#7AC057" stroke-width="0.4"/>
<path d="M33.8 97.4L-12.0999 13.9" stroke="#7AC057" stroke-width="0.4"/>
<path d="M32.8 102.6L-13.2 19.1" stroke="#7AC057" stroke-width="0.4"/>
<path d="M31.8 107.8L-14.2 24.2" stroke="#7AC057" stroke-width="0.4"/>
<path d="M30.7 113L-15.2 29.4" stroke="#7AC057" stroke-width="0.4"/>
<path d="M29.7 118.2L-16.2 34.6" stroke="#7AC057" stroke-width="0.4"/>
<path d="M28.7 123.4L-17.2 39.8" stroke="#7AC057" stroke-width="0.4"/>
<path d="M27.7 128.6L-18.3 45" stroke="#7AC057" stroke-width="0.4"/>
<path d="M26.7 133.7L-19.3 50.2" stroke="#7AC057" stroke-width="0.4"/>
<path d="M25.6001 138.9L-20.3 55.4" stroke="#7AC057" stroke-width="0.4"/>
<path d="M24.6001 144.1L-21.3 60.6" stroke="#7AC057" stroke-width="0.4"/>
<path d="M23.6001 149.3L-22.3 65.7" stroke="#7AC057" stroke-width="0.4"/>
<path d="M22.6001 154.5L-23.3999 70.9" stroke="#7AC057" stroke-width="0.4"/>
<path d="M21.6001 159.7L-24.3999 76.1" stroke="#7AC057" stroke-width="0.4"/>
<path d="M20.5 164.9L-25.3999 81.3" stroke="#7AC057" stroke-width="0.4"/>
<path d="M19.5 170.1L-26.3999 86.5" stroke="#7AC057" stroke-width="0.4"/>
</g>
<path d="M69.7183 94.7345C68.1858 93.6802 66.9982 92.3999 65.1053 92.742C64.6947 92.7793 64.7535 94.7709 64.3758 94.9026C66.3631 94.5275 67.5509 95.8079 68.989 96.8951C70.2338 97.7319 72.0122 98.2768 73.1324 96.9332C73.5673 96.358 73.3939 95.2535 73.8617 94.7727C72.6472 96.1493 70.9632 95.5714 69.7183 94.7345Z" fill="#FCE003"/>
<path d="M40.6281 83.5895C41.7439 81.9297 43.2131 80.6761 42.7722 78.5C42.735 78.0894 40.5216 78.1197 40.3899 77.742C40.7979 79.8237 39.3616 81.1716 38.2458 82.8315C37.1586 84.2695 36.6138 86.048 38.0561 87.4514C38.6314 87.8863 39.9247 87.6472 40.4384 88.2094C39.029 86.9004 39.5409 85.0275 40.6281 83.5895Z" fill="#FCE003"/>
<path d="M52.8049 55.94C52.3639 53.7638 53.5983 51.5332 55.6099 50.6201C55.3266 50.7189 54.1345 49.1223 53.7568 49.254C51.6509 50.1999 50.5108 52.3977 50.8902 54.7012C50.9604 55.2063 52.6403 55.4678 52.8049 55.94Z" fill="#DD4297"/>
<path d="M32.1774 101.574C32.6851 99.3846 34.6551 97.7446 36.9629 97.6814C36.5523 97.7187 36.0827 95.7644 35.6721 95.8016C33.3642 95.8648 31.4557 97.3774 30.8866 99.6939C30.8294 100.137 32.329 101.097 32.1774 101.574Z" fill="#DD4297"/>
<path d="M26.9033 88.2683C24.6943 88.6148 22.4637 87.3803 21.5506 85.3687C21.6494 85.652 20.0527 86.8441 20.1844 87.2218C21.1303 89.3277 23.3281 90.4678 25.6316 90.0884C26.1366 90.0182 26.3983 88.3384 26.9033 88.2683Z" fill="#DD4297"/>
<path d="M66.844 83.4519C66.1198 81.3745 66.8163 79.1195 68.6346 77.9561C68.3843 78.1493 66.9747 76.8403 66.6299 77.0664C64.8116 78.2298 64.1151 80.4848 64.8393 82.5622C65.0039 83.0343 66.6794 82.9797 66.844 83.4519Z" fill="#DD4297"/>
<path fill-rule="evenodd" clip-rule="evenodd" d="M70.3091 82.4557C70.4278 81.8848 68.9612 81.0193 69.1128 80.5429C69.7721 77.8773 73.4589 76.9097 75.6507 75.2984C75.5877 75.3203 75.5138 75.3108 75.4289 75.2698C74.476 74.9666 73.1281 73.5303 72.7287 72.0809C72.5598 71.2926 72.5797 70.4384 73.2692 69.9862C75.4281 68.2805 77.4959 71.478 78.1214 73.2721C78.625 73.0966 79.0861 72.9005 79.5048 72.6839C81.4505 71.582 82.7837 69.6346 83.1641 67.384C83.0454 67.9549 84.3848 68.7587 84.2661 69.3296C83.8 72.2456 81.182 75.0645 78.1846 75.5799C77.2135 78.566 71.1157 78.9974 70.3091 82.4557ZM77.0497 73.5398C77.1917 73.1373 77.1955 72.6418 77.0609 72.0533C75.7831 71.122 73.8903 71.4642 73.7231 73.111C74.6474 73.636 75.8507 73.746 77.0497 73.5398Z" fill="#7358A4"/>
<path fill-rule="evenodd" clip-rule="evenodd" d="M23.4925 79.1704C23.5326 78.672 22.1087 77.9153 22.1488 77.4169C22.5499 74.6803 26.1058 73.3817 28.0374 71.5709C28.0374 71.5709 27.9914 71.5606 27.8994 71.5398C26.9338 71.3216 25.4122 70.0352 24.9186 68.6912C24.5227 67.8768 24.572 67.0179 25.1951 66.5063C27.1579 64.5576 29.5246 67.5574 30.3697 69.2709C30.7999 69.0781 31.2405 68.8394 31.6915 68.5547C33.5296 67.1578 34.6337 65.16 34.7187 62.8594C34.732 63.4423 36.1023 64.1147 36.031 64.751C35.8746 67.6879 33.5778 70.7934 30.6451 71.5804C30.0125 74.6997 23.9961 75.6595 23.4925 79.1704ZM29.3329 69.6888C29.4368 69.229 29.4028 68.7381 29.2308 68.2159C27.807 67.4591 25.9645 67.9127 26.0353 69.5236C26.9386 70.0177 28.1892 69.9378 29.3329 69.6888Z" fill="#7358A4"/>
<path d="M69.5002 41.8593C68.9666 42.1512 67.8447 41.0597 67.3725 41.2243C65.2995 42.2647 66.3115 44.5595 66.366 46.2349C66.5895 48.6987 64.6352 49.1681 63.5852 51.0168C63.6467 50.8895 65.6512 51.7792 65.7127 51.6519C66.7626 49.8032 68.7172 49.3336 68.4937 46.8699C68.4391 45.1945 67.4272 42.8997 69.5002 41.8593Z" fill="#30A2BB"/>
<path d="M46.8845 92.4223C46.8186 92.2335 48.8017 91.5421 48.7358 91.3533C48.2949 89.1771 46.9755 87.519 45.1268 86.4691C44.8392 86.2516 43.5631 87.7556 43.2754 87.5381C45.1241 88.5881 46.4764 90.3406 46.8845 92.4223Z" fill="#30A2BB"/>
<path d="M57.6613 71.0854C57.8216 71.2414 56.6114 72.9341 56.8045 73.1845C58.4358 74.522 60.4691 75.1899 62.5837 74.8763C62.9944 74.8391 63.0957 73.0034 63.4734 72.8717C61.3588 73.1853 59.3255 72.5174 57.6613 71.0854Z" fill="#30A2BB"/>
<g opacity="0.3">
<path d="M35.7 72.7C35.7 73.4 43.6 74 53.3 74C63 74 70.9001 73.4 70.9001 72.7C70.9001 71.9 63 71.3 53.3 71.3C43.6 71.3 35.7 71.9 35.7 72.7Z" fill="#1C1C1A"/>
</g>
<path d="M66.6001 44.3C66.6001 45.7 65.5001 46.9 64.1001 46.8C62.6001 46.8 61.5001 45.6 61.6001 44.2C61.6001 42.8 62.7001 41.7 64.1001 41.7C65.6001 41.8 66.7001 42.9 66.6001 44.3Z" fill="#050505"/>
<path d="M44 44.3C44 45.6 42.9001 46.7 41.6001 46.7C40.3001 46.6 39.2 45.5 39.2 44.2C39.3 42.9 40.3 41.9 41.7 41.9C43 41.9 44 43 44 44.3Z" fill="#050505"/>
<path d="M72 41.9C71.9 43.7 70.4 45.3 68.5 45.2C66.6 45.2 65.1001 43.6 65.1001 41.7C65.1001 39.8 66.7001 38.3 68.6001 38.4C70.5001 38.4 72 40 72 41.9Z" fill="#050505"/>
<path d="M40.5 39.9C41.2 41.8 40.3001 43.9 38.6001 44.5C36.8001 45.1 34.9 44 34.2 42.1C33.5 40.2 34.3001 38.1 36.1001 37.5C37.8001 36.9 39.8 37.9 40.5 39.9Z" fill="#050505"/>
<path d="M71.9001 32.4C71.7001 41.1 63.2001 48.1 52.9001 47.9C42.6001 47.7 34.3999 40.5 34.4999 31.7C34.6999 23 43.1999 16.1 53.4999 16.3C63.7999 16.4 72.1001 23.7 71.9001 32.4Z" fill="#050505"/>
<path d="M40.1999 43.1C39.5999 43.9 39.7 45 40.5 45.6C41.3 46.2 42.3001 46 42.9001 45.3" stroke="#3F1D13" stroke-width="0.5"/>
<path d="M36.2 38.5C34.9 39.3 34.4 41 35.2 42.3C35.9 43.6 37.6002 44.1 38.9002 43.3" stroke="#3F1D13" stroke-width="0.5"/>
<path d="M67.7001 39.1C66.4001 39.8 65.9002 41.4 66.6002 42.7C67.4002 43.9 69.0002 44.3 70.3002 43.6" stroke="#3F1D13" stroke-width="0.5"/>
<path d="M63.5 45.9C64.5 46.2 65.4 45.6 65.7 44.6" stroke="#3F1D13" stroke-width="0.5"/>
<path d="M61 69.6C61 69.6 59.4 65.2 59 63.9C58.6 62.4 57.4001 61.9 56.3001 62.2C55.3001 62.5 54.6001 63.3 55.1001 65C55.5001 66.7 56.9002 70.7 56.9002 70.7C57.5002 73.2 61.9 72.1 61 69.6Z" fill="#803531" stroke="#050505" stroke-width="0.4" stroke-linecap="round" stroke-linejoin="round"/>
<path opacity="0.4" d="M57.9002 70.3C58.5002 71.6 60.8001 71.7 59.6001 72C58.5001 72.3 57.2002 71.9 56.9002 70.7C56.9002 70.7 55.5001 66.7 55.1001 65C54.6001 63.3 55.3001 62.5 56.3001 62.2C57.4001 61.9 58.6 62.4 59 63.9C59.4 65.2 56.6002 65.3 56.9002 66.5C57.0002 67 57.5002 69.4 57.9002 70.3Z" fill="#050505"/>
<path d="M61.1001 70.7C61.3001 71.2 61.6001 72.2 63.1001 72.9L56.8 72.7L56.9001 70.7" fill="#803531"/>
<path d="M61.1001 70.7C61.3001 71.2 61.6001 72.2 63.1001 72.9L56.8 72.7L56.9001 70.7" stroke="#050505" stroke-width="0.4" stroke-linecap="round" stroke-linejoin="round"/>
<path opacity="0.4" d="M58 70.7C58.1 71.5 58 72.2 59.5 72.8L56.8 72.7L56.9001 70.7" fill="#050505"/>
<path d="M56.3 72.7C56.3 72.7666 56.3667 72.8 56.5 72.8L63.3 72.9C63.3667 72.9 63.4001 72.8667 63.4001 72.8V72.5C63.4001 72.3667 63.3667 72.3 63.3 72.3L56.5 72.2C56.4333 72.2 56.3667 72.2333 56.3 72.3V72.7Z" fill="#EE4963" stroke="#050505" stroke-width="0.4" stroke-linecap="round" stroke-linejoin="round"/>
<path d="M59.7 69.5C59.7 69.5 59.7 68.7 60.3 68.7C60.6 68.7 61.3 68.7 61.5 68.7C62 68.7 61.6 69.2 61.5 69.5C61.4 69.7 61.4001 70.2 61.6001 70.5L62.2 71.5L61.4001 71.9L59.8 70.5L59.7 69.5Z" fill="#EE4963" stroke="#050505" stroke-width="0.4" stroke-linecap="round" stroke-linejoin="round"/>
<path d="M56.5 72.2C56.5 72.2 56.5 71 56.5 70.6C56.5 70.3 56.7001 70.1 57.1001 70.1C57.5001 70.1 57.8001 70.4 58.6001 70.1C59.3001 69.8 59.4 69.6 59.7 69.5C60 69.3 60.1 69.5 60.2 69.9L60.3 70.6L61.6001 71.7V72.3L56.5 72.2Z" fill="#F69226" stroke="#050505" stroke-width="0.4" stroke-linecap="round" stroke-linejoin="round"/>
<path d="M63.3 72.3C63.3 72.1 62.5 71.5 62.2 71.5C61.4 71.5 60.9001 72.3 60.9001 72.3H63.3Z" fill="#FEFEFE" stroke="#050505" stroke-width="0.4" stroke-linecap="round" stroke-linejoin="round"/>
<path d="M60 70.7C60.3 70.3 61.3001 70.2 61.6001 70.3" stroke="#050505" stroke-width="0.4" stroke-linecap="round" stroke-linejoin="round"/>
<path d="M60.4001 71.1C60.8001 70.7 61.6001 70.6 61.9001 70.7" stroke="#050505" stroke-width="0.4" stroke-linecap="round" stroke-linejoin="round"/>
<path d="M60.9001 71.5C61.2001 71.1 61.9 71.1 62.2 71.2" stroke="#050505" stroke-width="0.4" stroke-linecap="round" stroke-linejoin="round"/>
<path d="M58.5 70.8C59.1 70.8 59.4 70.9 59.7 71.2L60.9001 72.3H60L59.3 71.6C59.1667 71.4667 58.9 71.4 58.5 71.4C58.3 71.4 56.5 71.3 56.5 71.3V70.8C56.5 70.8 58.3 70.8 58.5 70.8Z" fill="#EE4963" stroke="#050505" stroke-width="0.4" stroke-linecap="round" stroke-linejoin="round"/>
<path d="M44.2 69.3C44.2 69.3 46.0002 64.9 46.4002 63.7C46.8002 62.1 48.1 61.7 49.2 62.1C50.2 62.4 50.8001 63.2 50.3001 64.9C49.8001 66.6 48.3001 70.5 48.3001 70.5C47.5001 73 43.2 71.8 44.2 69.3Z" fill="#803531" stroke="#050505" stroke-width="0.4" stroke-linecap="round" stroke-linejoin="round"/>
<path opacity="0.4" d="M47.3001 70.1C46.7001 71.3 44.4001 71.4 45.5001 71.7C46.7001 72 47.9001 71.8 48.3001 70.5C48.3001 70.5 49.8001 66.6 50.3001 64.9C50.8001 63.2 50.2 62.4 49.2 62.1C48.1 61.7 46.8002 62.1 46.4002 63.7C46.0002 64.9 48.8001 65.2 48.5001 66.3C48.3001 66.8 47.7001 69.2 47.3001 70.1Z" fill="#050505"/>
<path d="M44.1001 70.4C43.9001 70.9 43.5 71.9 42 72.5L48.3 72.6V70.5" fill="#803531"/>
<path d="M44.1001 70.4C43.9001 70.9 43.5 71.9 42 72.5L48.3 72.6V70.5" stroke="#050505" stroke-width="0.4" stroke-linecap="round" stroke-linejoin="round"/>
<path opacity="0.4" d="M47.2 70.5C47.1 71.3 47.1001 72 45.6001 72.6H48.3V70.5" fill="#050505"/>
<path d="M48.8 72.5C48.8 72.6333 48.7334 72.7 48.6001 72.7L41.8 72.5C41.7334 72.5 41.7 72.4667 41.7 72.4V72.1C41.7 71.9667 41.7334 71.9 41.8 71.9L48.7 72.1C48.7666 72.1 48.8 72.1333 48.8 72.2V72.5Z" fill="#EE4963" stroke="#050505" stroke-width="0.4" stroke-linecap="round" stroke-linejoin="round"/>
<path d="M45.5 69.2C45.5 69.2 45.5 68.4 45 68.4C44.6 68.4 43.9 68.4 43.7 68.4C43.3 68.4 43.6 68.9 43.7 69.2C43.8 69.4 43.8001 69.9 43.6001 70.2L42.9001 71.2L43.8 71.5L45.4001 70.2L45.5 69.2Z" fill="#EE4963" stroke="#050505" stroke-width="0.4" stroke-linecap="round" stroke-linejoin="round"/>
<path d="M48.7 72.1C48.7 72.1 48.7 70.8 48.7 70.5C48.7 70.1 48.5001 69.9 48.1001 69.9C47.7001 69.9 47.4001 70.2 46.6001 69.8C45.9001 69.5 45.8 69.4 45.5 69.2C45.2 69.1 45.2001 69.3 45.1001 69.6L44.9001 70.3L43.5 71.4V72L48.7 72.1Z" fill="#F69226" stroke="#050505" stroke-width="0.4" stroke-linecap="round" stroke-linejoin="round"/>
<path d="M41.8 71.9C41.8 71.7 42.6001 71.2 42.9001 71.2C43.7001 71.2 44.2 72 44.2 72L41.8 71.9Z" fill="#FEFEFE" stroke="#050505" stroke-width="0.4" stroke-linecap="round" stroke-linejoin="round"/>
<path d="M45.2 70.4C44.9 70 43.9001 69.9 43.6001 70" stroke="#050505" stroke-width="0.4" stroke-linecap="round" stroke-linejoin="round"/>
<path d="M44.7 70.8C44.4 70.4 43.6 70.3 43.3 70.4" stroke="#050505" stroke-width="0.4" stroke-linecap="round" stroke-linejoin="round"/>
<path d="M44.2 71.2C43.9 70.8 43.3 70.7 43 70.8" stroke="#050505" stroke-width="0.4" stroke-linecap="round" stroke-linejoin="round"/>
<path d="M46.6001 70.6C46.1001 70.6 45.8 70.7 45.5 71L44.2 72H45.1001L45.8 71.3C45.9334 71.1667 46.2001 71.1333 46.6001 71.2C46.8001 71.2 48.7 71.2 48.7 71.2V70.7C48.7 70.7 46.8001 70.6 46.6001 70.6Z" fill="#EE4963" stroke="#050505" stroke-width="0.4" stroke-linecap="round" stroke-linejoin="round"/>
<path d="M69.1999 45.6C66.9999 48.6 64.2 50.4 61.3 51.9C58.3 53.4 56.2999 49.2 59.1999 47.8C62.1999 46.4 63.3999 45.6 65.4999 43C65.8999 42.4 67.2999 41.9 68.4999 42.9C69.6999 43.9 69.5999 45 69.1999 45.6Z" fill="#803531" stroke="#050505" stroke-width="0.4" stroke-linecap="round" stroke-linejoin="round"/>
<path opacity="0.4" d="M69.1999 45.6C66.9999 48.6 64.2 50.4 61.3 51.9C58.3 53.4 56.2999 49.2 59.1999 47.8C60.3999 47.3 61.9999 50.1 63.1999 49.5C64.9999 48.7 67.2999 46.7 68.4999 45.1C68.9999 44.5 69.0999 43.6 68.4999 42.9C69.6999 43.9 69.5999 45 69.1999 45.6Z" fill="#050505"/>
<path d="M66.4999 45.4C67.2999 46.1 68.5 46 69.1 45.3C69.6 44.6 69.3999 43.4 68.4999 42.8C67.5999 42.1 66.4001 42.1 65.9001 42.9C65.3001 43.6 65.5999 44.7 66.4999 45.4Z" fill="#803531"/>
<path d="M65.4001 43.1C65.9001 42.4 67.1 40.8 67.7 40.2C68.5 39.6 69.3 40 70.2 40.6C71.2 41.5 71.6 42.5 70.8 43.5L70.1001 44.4L69.2 45.6" fill="#803531"/>
<path d="M65.4001 43.1C65.9001 42.4 67.1 40.8 67.7 40.2C68.5 39.6 69.3 40 70.2 40.6C71.2 41.5 71.6 42.5 70.8 43.5L70.1001 44.4L69.2 45.6" stroke="#050505" stroke-width="0.4" stroke-linecap="round" stroke-linejoin="round"/>
<path d="M66 42.7V41.6C66 41.2 66.3 40.8 66.7 40.8C67.1 40.8 67.4001 41.1 67.4001 41.3C67.6001 41.6 67.5 41.9 67.5 41.9" fill="#803531"/>
<path d="M66 42.7V41.6C66 41.2 66.3 40.8 66.7 40.8C67.1 40.8 67.4001 41.1 67.4001 41.3C67.6001 41.6 67.5 41.9 67.5 41.9" stroke="#050505" stroke-width="0.4" stroke-linecap="round" stroke-linejoin="round"/>
<g style="mix-blend-mode:multiply" opacity="0.2">
<path d="M67.4999 41.2C67.4999 41.2 67.9001 41.5 67.9001 41.9C68.0001 42.3 67.9 42.6 68.1 42.7C68.3 42.9 69.0999 43.7 69.4999 43.6C69.7999 43.5 70.9999 42.5 70.4999 41.8C70.0999 41.1 68.6999 39.9 67.9999 40.4C67.1999 40.9 67.4999 41.2 67.4999 41.2Z" fill="#050505"/>
</g>
<path d="M36.6999 45C38.7999 48.1 41.5001 50 44.4001 51.6C47.2001 53.2 49.5001 49.1 46.6001 47.6C43.7001 46 42.5 45.2 40.5 42.5C40.1 41.9 38.8 41.4 37.5 42.3C36.3 43.3 36.2999 44.4 36.6999 45Z" fill="#803531" stroke="#050505" stroke-width="0.4" stroke-linecap="round" stroke-linejoin="round"/>
<path opacity="0.4" d="M36.6999 45C38.7999 48.1 41.5001 50 44.4001 51.6C47.2001 53.2 49.5001 49.1 46.6001 47.6C45.5001 47 43.7 49.8 42.5 49.2C40.7 48.3 38.6001 46.2 37.4001 44.5C36.9001 43.9 36.8 43.1 37.5 42.3C36.3 43.3 36.2999 44.4 36.6999 45Z" fill="#050505"/>
<path d="M39.4001 44.9C38.5001 45.6 37.4 45.5 36.8 44.7C36.3 44 36.5999 42.8 37.4999 42.2C38.3999 41.5 39.6 41.6 40.1 42.4C40.6 43.1 40.3001 44.3 39.4001 44.9Z" fill="#803531"/>
<path d="M40.6 42.7C40.1 41.9 39 40.3 38.4 39.7C37.6 39 36.7 39.4 35.9 40C34.9 40.8 34.4 41.8 35.1 42.9L35.7999 43.8L36.6998 45" fill="#803531"/>
<path d="M40.6 42.7C40.1 41.9 39 40.3 38.4 39.7C37.6 39 36.7 39.4 35.9 40C34.9 40.8 34.4 41.8 35.1 42.9L35.7999 43.8L36.6998 45" stroke="#050505" stroke-width="0.4" stroke-linecap="round" stroke-linejoin="round"/>
<g style="mix-blend-mode:multiply" opacity="0.2">
<path d="M38.5 40.7C38.5 40.7 38.1001 40.9 38.1001 41.3C38.1001 41.7 38.1002 42.1 37.9002 42.2C37.7002 42.3 36.8 43.1 36.5 43C36.2 42.9 35 41.8 35.5 41.1C36 40.4 37.4001 39.3 38.1001 39.9C38.8001 40.4 38.5 40.7 38.5 40.7Z" fill="#050505"/>
</g>
<path d="M52.6999 63.1C45.4999 62.9 45.3001 61.5 44.9001 58.5C44.7001 56.2 45.6999 50 46.1999 48.1C47.0999 45 49.6001 43.9 53.1001 43.9C56.6001 44 59 45.2 59.8 48.4C60.2 50.3 60.9999 56.5 60.6999 58.8C60.1999 61.8 59.8999 63.2 52.6999 63.1Z" fill="#F69226" stroke="#050505" stroke-width="0.4" stroke-linecap="round" stroke-linejoin="round"/>
<path d="M48.3 53.4C47.6 51.1 46.8 48.3 47.5 45L49.3 45.4C48.7 48.3 49.4 50.9 50 52.9L48.3 53.4Z" fill="#EE4963" stroke="#050505" stroke-width="0.4" stroke-linecap="round" stroke-linejoin="round"/>
<path d="M52.7 63.2L51.5 66C46 64.8 44.2 63.5 44.2 63.5C44.2 63.5 44.4 60.8 44.7 58.5C45.1 58.7 46.7 59 46.7 59L48.7 53C48.7 53 51.1001 53.7 52.9001 53.7C54.7001 53.7 57.2 53.2 57.2 53.2L58.9001 59.2C58.9001 59.2 60.5001 59 60.9001 58.8C61.1001 61.1 61.2 64 61.2 64C61.2 64 59.3 65.1 53.8 65.9L52.7 63.2Z" fill="#EE4763" stroke="#050505" stroke-width="0.4" stroke-linecap="round" stroke-linejoin="round"/>
<path opacity="0.4" d="M52.7 63.2L51.5 66C51.1667 65.9333 50.8333 65.8667 50.5 65.8C50.5 65.8 51.8 62.6 52.7 62.7C53.6 62.7 54.8 65.7 54.8 65.7C54.4667 65.7667 54.1334 65.8333 53.8 65.9L52.7 63.2Z" fill="#050505"/>
<path opacity="0.4" d="M60.9001 58.8C61.1001 61.1 61.2 64 61.2 64C61.2 64 60.7001 64.3 59.4001 64.7C60.0001 63.9 60.5 62.4 60 59L60.9001 58.8Z" fill="#050505"/>
<path d="M60.8 63.4C60.8 63.4 58.8001 64.3 53.6001 65.2" stroke="#6ECFF5" stroke-width="0.4" stroke-linecap="round" stroke-linejoin="round" stroke-dasharray="0.8 0.8"/>
<path opacity="0.4" d="M44.7 58.5C44.4 60.8 44.2 63.5 44.2 63.5C44.2 63.5 44.7 63.9 46 64.4C45.5 63.5 45.0001 62.1 45.6001 58.7L44.7 58.5Z" fill="#050505"/>
<path d="M44.7 62.9C44.7 62.9 46.6 64 51.7 65.4" stroke="#6ECFF5" stroke-width="0.4" stroke-linecap="round" stroke-linejoin="round" stroke-dasharray="0.8 0.8"/>
<path d="M48.7 46.3C48.7 48.7 50.6 50.6 53 50.7C55.3 50.7 57.3001 48.8 57.4001 46.4C57.4001 44.1 55.5001 42.1 53.1001 42.1C50.7001 42 48.8 43.9 48.7 46.3Z" fill="#803531" stroke="#050505" stroke-width="0.4" stroke-linecap="round" stroke-linejoin="round"/>
<path d="M57.5 53.6C58.3 51.3 59.2001 48.5 58.6001 45.3L56.8 45.5C57.3 48.5 56.5 51 55.8 53.1L57.5 53.6Z" fill="#EE4963" stroke="#050505" stroke-width="0.4" stroke-linecap="round" stroke-linejoin="round"/>
<path d="M57.8 53.4C57.8 54 57.3001 54.5 56.6001 54.5C56.0001 54.5 55.5 53.9 55.5 53.3C55.5 52.7 56.1 52.2 56.7 52.2C57.3 52.2 57.8 52.7 57.8 53.4Z" fill="#6ECFF5" stroke="#050505" stroke-width="0.4" stroke-linecap="round" stroke-linejoin="round"/>
<path d="M48 53.2C48 53.8 48.5001 54.3 49.1001 54.3C49.8001 54.4 50.3 53.9 50.3 53.2C50.3 52.6 49.8 52.1 49.2 52.1C48.5 52 48 52.5 48 53.2Z" fill="#6ECFF5" stroke="#050505" stroke-width="0.4" stroke-linecap="round" stroke-linejoin="round"/>
<path opacity="0.4" d="M48.3 54C48.8 54.4 49.4999 54.5 49.9999 54C49.9999 54 49.0999 54.1 48.6999 53.7C48.1999 53.2 48.4001 52.4 48.4001 52.4C47.9001 52.8 47.9 53.5 48.3 54Z" fill="#050505"/>
<path opacity="0.4" d="M57.5 54.2C57 54.6 56.3 54.6 55.8 54.1C55.8 54.1 56.7001 54.2 57.1001 53.8C57.6001 53.4 57.5 52.5 57.5 52.5C57.9 53 57.9 53.7 57.5 54.2Z" fill="#050505"/>
<path d="M57.6001 59.5L57.9001 59.4L57.8 59.1" stroke="#6ECFF5" stroke-width="0.4" stroke-linecap="round" stroke-linejoin="round"/>
<path d="M57.6001 58.3L56.9001 55.8" stroke="#6ECFF5" stroke-width="0.4" stroke-linecap="round" stroke-linejoin="round" stroke-dasharray="0.8 0.8"/>
<path d="M56.8 55.4L56.7 55.1H56.4001" stroke="#6ECFF5" stroke-width="0.4" stroke-linecap="round" stroke-linejoin="round"/>
<path d="M55.7 55.1L52.9001 55H49.7" stroke="#6ECFF5" stroke-width="0.4" stroke-linecap="round" stroke-linejoin="round" stroke-dasharray="0.8 0.8"/>
<path d="M49.4001 55H49.1001L49 55.3" stroke="#6ECFF5" stroke-width="0.4" stroke-linecap="round" stroke-linejoin="round"/>
<path d="M48.7 56L47.9001 58.5" stroke="#6ECFF5" stroke-width="0.4" stroke-linecap="round" stroke-linejoin="round" stroke-dasharray="0.8 0.8"/>
<path d="M47.8 58.9L47.7 59.2L48 59.3" stroke="#6ECFF5" stroke-width="0.4" stroke-linecap="round" stroke-linejoin="round"/>
<path d="M48.6001 59.5L52.8 61L57.3 59.6" stroke="#6ECFF5" stroke-width="0.4" stroke-linecap="round" stroke-linejoin="round" stroke-dasharray="0.8 0.8"/>
<path opacity="0.4" d="M53 50C50.9 50 49.8 49.6 48.5 48.9C47.5 48.3 46.8001 48.9 46.6001 50.3C46.3001 51.9 45.2001 58 46.1001 58.2C46.5001 58.3 47.8 54.2 48.3 54L46.6999 59L44.9001 58.5C44.7001 56.2 45.6999 50 46.1999 48.1C47.0999 45 49.6001 43.9 53.1001 43.9C56.6001 44 59 45.2 59.8 48.4C60.2 50.3 60.9999 56.5 60.6999 58.8L58.9001 59.2L57.5 54.2C58 54.4 59.1001 58.5 59.6001 58.4C60.4001 58.3 59.6 52.2 59.3 50.5C59.1 49.1 58.5001 48.5 57.4001 49.1C56.1001 49.7 55 50.1 53 50Z" fill="#050505"/>
<path d="M39.9001 35.2C39.8001 42.6 43.6001 48.4 52.9001 48.9C62.1001 49.5 66.2001 43.1 66.4001 35.7C66.5001 28.2 60.7001 22.1 53.4001 21.9C46.1001 21.8 40.1001 27.7 39.9001 35.2Z" fill="#803531" stroke="#050505" stroke-width="0.4" stroke-linecap="round" stroke-linejoin="round"/>
<path opacity="0.4" d="M42.3 35.1L42.6999 36.1C42.6999 36.1 40.6999 47.7 53.6999 49C53.7999 49 53.5 48.7 53 49C52.9333 49 52.9001 48.9667 52.9001 48.9C43.6001 48.4 39.8001 42.6 39.9001 35.2C40.0001 33.2 40.3999 31.3 41.1999 29.6C41.7999 30.9 42.3 35.1 42.3 35.1Z" fill="#050505"/>
<path d="M55.4001 39.9C55.4001 39.9 56.3001 36.2 61.1001 37.6C61.1001 37.6 61 40.5 58.5 40.8C56 41 55.4001 39.9 55.4001 39.9Z" fill="#FEFEFE"/>
<path d="M50.2 40.1C50.2 40.1 49.7002 36.3 44.9002 37.2C44.9002 37.2 44.6001 40.2 47.1001 40.7C49.6001 41.1 50.2 40.1 50.2 40.1Z" fill="#FEFEFE"/>
<path d="M51.1001 41.4C51.1001 41.4 51.7 42.5 52.8 42.5C54 42.5 54.8 41.3 54.8 41.3C54.8 41.3 53.5001 41.9 52.9001 41.9C52.4001 41.9 51.1001 41.4 51.1001 41.4Z" fill="#050505"/>
<path d="M64.6001 18.3C64.5001 20.2 62.8 21.7 60.8 21.7C58.8 21.6 57.2 20 57.2 18.1C57.2 16.2 58.9001 14.7 60.9001 14.7C63.0001 14.7 64.6001 16.3 64.6001 18.3Z" fill="#050505"/>
<path d="M47.7 18.1C47.7 19.6 46.4001 20.8 44.9001 20.8C43.3001 20.7 42.1001 19.4 42.1001 17.9C42.2001 16.3 43.5 15.1 45 15.2C46.6 15.2 47.8 16.5 47.7 18.1Z" fill="#050505"/>
<path d="M70.1002 21.9C70.1002 24.3 68.1002 26.2 65.8002 26.1C63.4002 26.1 61.5002 24.1 61.6002 21.8C61.6002 19.4 63.6003 17.6 65.9003 17.6C68.3003 17.6 70.2002 19.6 70.1002 21.9Z" fill="#050505"/>
<path d="M40.2001 25.8C40.2001 28.2 38.2002 30.1 35.8002 30.1C33.4002 30.1 31.5002 28.1 31.6002 25.7C31.6002 23.3 33.6001 21.4 36.0001 21.4C38.4001 21.5 40.3001 23.5 40.2001 25.8Z" fill="#050505"/>
<path d="M58.6 17.5C58.6 20.4 55.6999 22.8 52.1999 22.7C48.6999 22.7 45.8999 20.2 45.9999 17.3C45.9999 14.3 48.9001 12 52.4001 12C55.9001 12.1 58.7 14.5 58.6 17.5Z" fill="#050505"/>
<path d="M44.7001 20.7C44.6001 23.1 42.7003 24.9 40.4003 24.9C38.0003 24.9 36.1001 22.9 36.2001 20.6C36.2001 18.2 38.2001 16.4 40.5001 16.4C42.9001 16.5 44.7001 18.4 44.7001 20.7Z" fill="#050505"/>
<path d="M39.8 33.3C39.7 35.9 37.7 38 35.3 37.9C32.9 37.9 31 35.8 31 33.2C31.1 30.6 33.1 28.5 35.5 28.6C37.9 28.6 39.8 30.7 39.8 33.3Z" fill="#050505"/>
<path d="M75.5001 34.9C75.5001 37.5 73.5001 39.7 71.0001 39.6C68.6001 39.6 66.7002 37.4 66.8002 34.7C66.8002 32 68.8001 29.9 71.2001 29.9C73.6001 30 75.5001 32.2 75.5001 34.9Z" fill="#050505"/>
<path d="M73.9002 26.7C73.8002 28.9 72.0001 30.7 69.8001 30.6C67.6001 30.6 65.8002 28.8 65.9002 26.6C65.9002 24.4 67.7002 22.6 69.9002 22.6C72.1002 22.7 73.9002 24.5 73.9002 26.7Z" fill="#050505"/>
<path d="M55.7 28.3C55.7 30 54.2001 31.4 52.4001 31.4C50.7001 31.4 49.3 29.9 49.3 28.1C49.3 26.4 50.8 25 52.5 25C54.3 25 55.7 26.5 55.7 28.3Z" fill="#050505"/>
<path d="M61.8 28.7C61.7 30.5 60.2001 31.9 58.4001 31.9C56.6001 31.9 55.2 30.4 55.2 28.6C55.2 26.8 56.7 25.3 58.5 25.4C60.3 25.4 61.8 26.9 61.8 28.7Z" fill="#050505"/>
<path d="M66.6001 31.2C66.6001 33 65.1 34.5 63.3 34.5C61.5 34.4 60.1001 32.9 60.1001 31.1C60.1001 29.3 61.6001 27.9 63.4001 27.9C65.2001 27.9 66.7001 29.4 66.6001 31.2Z" fill="#050505"/>
<path d="M68.7 35.5C68.7 36.9 67.5001 38.1 66.1001 38C64.7001 38 63.6001 36.9 63.6001 35.4C63.6001 34 64.8 32.9 66.2 32.9C67.6 33 68.7 34.1 68.7 35.5Z" fill="#050505"/>
<path d="M42.9001 34.8C42.8001 36.2 41.7 37.3 40.3 37.3C38.8 37.2 37.7 36.1 37.8 34.7C37.8 33.2 38.9 32.1 40.3 32.2C41.8 32.2 42.9001 33.3 42.9001 34.8Z" fill="#050505"/>
<path d="M45.7 31.8C45.7 32.9 44.7002 33.8 43.6002 33.8C42.5002 33.8 41.5002 32.8 41.6002 31.7C41.6002 30.6 42.5 29.7 43.7 29.7C44.8 29.7 45.7 30.6 45.7 31.8Z" fill="#050505"/>
<path d="M50.2 28.9C50.2 30.5 48.8 31.8 47.2 31.8C45.6 31.7 44.3 30.4 44.3 28.7C44.3 27.1 45.7 25.8 47.3 25.8C48.9 25.9 50.2 27.2 50.2 28.9Z" fill="#050505"/>
<path d="M40.1001 36.4L45.7 29.8L51.5 28.7L57.5 29.3L61.7 32L64.5 33.8L66.1001 36.4L69.3 33.9L70.3 27.1L62.2 19.2L53.6001 18.1L44.3 18.6L37.4001 25.3L35 32.8L40.1001 36.4Z" fill="#050505"/>
<path d="M42.3001 32.2C41.4001 32.1 40.7001 31.3 40.8001 30.4C40.9001 29.5 41.7 28.8 42.7 28.9C43.6 29 44.3 29.8 44.2 30.8" stroke="#3F1D13" stroke-width="0.5"/>
<path d="M66.3 37C67.2 37.1 68.0001 36.4 68.1001 35.4C68.1001 34.5 67.4 33.7 66.5 33.7C65.5 33.6 64.7 34.3 64.7 35.3" stroke="#3F1D13" stroke-width="0.5"/>
<path d="M47.9001 16C48.4001 14.8 49.4001 13.8 50.9001 13.4C52.8001 12.8 54.8 13.5 55.8 14.9C56.0667 15.1667 56.2668 15.5 56.4001 15.9" stroke="#3F1D13" stroke-width="0.5"/>
<path d="M54.9001 19.2C54.7001 18.2 53.7 17.5 52.7 17.6C52.2 17.7 51.8 18 51.5 18.4" stroke="#3F1D13" stroke-width="0.4"/>
<path d="M40 17.7C38.4 17.9 37.3 19.4 37.5 21C37.8 22.6 39.3001 23.7 40.8001 23.4" stroke="#3F1D13" stroke-width="0.5"/>
<path d="M45.4001 22.1C47.0001 22.1 48.3001 20.9 48.4001 19.3C48.5001 17.8 47.2 16.4 45.7 16.4C44.1 16.3 42.7 17.5 42.7 19.1" stroke="#3F1D13" stroke-width="0.5"/>
<path d="M64.7 26.4C64 24.5 62.0001 23.6 60.1001 24.3C58.3001 25 57.4001 27.1 58.1001 28.9" stroke="#3F1D13" stroke-width="0.4"/>
<path d="M70.8 28.7C72 28.3 72.7 27 72.3 25.7C71.9 24.5 70.6001 23.8 69.4001 24.2" stroke="#3F1D13" stroke-width="0.5"/>
<path d="M55.9001 22.3C53.5001 21.3 50.8 22.3 49.8 24.7" stroke="#3F1D13" stroke-width="0.4"/>
<path d="M73.2 37.4C74.6 35.9 74.4 33.5 72.8 32.2" stroke="#3F1D13" stroke-width="0.5"/>
<path d="M39.7 36.3C41 36.2 42.0001 35 41.9001 33.7" stroke="#3F1D13" stroke-width="0.4"/>
<path d="M61.6001 32.2C61.8001 33 62.6001 33.4 63.4001 33.2C64.1001 33 64.6001 32.2 64.4001 31.4" stroke="#3F1D13" stroke-width="0.5"/>
<path d="M45.8 30.4C47.3 30.8 48.8 29.9 49.2 28.5C49.6 27 48.8 25.5 47.3 25C45.9 24.6 44.4001 25.5 43.9001 26.9" stroke="#3F1D13" stroke-width="0.5"/>
<path d="M69.3 27.6C68 26.9 66.2999 27.5 65.6999 28.8C64.9999 30.2 65.6001 31.9 66.9001 32.5C68.3001 33.2 69.9001 32.6 70.6001 31.2" stroke="#3F1D13" stroke-width="0.4"/>
<path d="M36.0001 30.3C35.0001 31 34.8001 32.5 35.5001 33.5C36.2001 34.5 37.7001 34.8 38.7001 34.1C39.7001 33.3 40.0001 31.9 39.2001 30.9" stroke="#3F1D13" stroke-width="0.4"/>
<path d="M66 25.7C67.9 25.4 69.3 23.6 69 21.6C68.7 19.7 66.9002 18.3 64.9002 18.6C63.0002 18.9 61.6002 20.7 61.9002 22.7" stroke="#3F1D13" stroke-width="0.5"/>
<path d="M56.6002 27.5C55.9002 28.5 56.2002 29.9 57.3002 30.6C58.3002 31.3 59.7003 31 60.4003 30" stroke="#3F1D13" stroke-width="0.5"/>
<path d="M34.2 30.8C32.6 31.3 31.8001 33 32.3001 34.6C32.8001 36.2 34.5002 37 36.1002 36.5" stroke="#3F1D13" stroke-width="0.5"/>
<path d="M32.8 25.6C32.8 27.3 34.1 28.6 35.7 28.6C37.3 28.6 38.6001 27.4 38.6001 25.8C38.6001 24.1 37.4 22.8 35.8 22.8C34.2 22.8 32.9 24 32.8 25.6Z" stroke="#3F1D13" stroke-width="0.5"/>
<path d="M41.5 24.5C42.4 25 43.5 24.6 44 23.7C44.5 22.8 44.1 21.7 43.2 21.2C42.3 20.8 41.2 21.1 40.7 22" stroke="#3F1D13" stroke-width="0.4"/>
<path d="M50.7 28.2C50.7 29.3 51.5 30.1 52.5 30.1" stroke="#3F1D13" stroke-width="0.4"/>
<path d="M54.4001 28.3C54.4001 27.3 53.6001 26.4 52.6001 26.4" stroke="#3F1D13" stroke-width="0.4"/>
<path d="M57.9002 18.8C57.8002 20.4 59.1 21.7 60.7 21.7C62.3 21.7 63.6001 20.5 63.6001 18.9C63.6001 17.3 62.4001 16 60.8001 15.9C59.2001 15.9 57.9002 17.2 57.9002 18.8Z" stroke="#3F1D13" stroke-width="0.5"/>
<path d="M59.5 39C59.5 39.8 58.9001 40.6 58.1001 40.6C57.3001 40.7 56.6 40 56.5 39.1C56.5 38.3 57.1001 37.5 57.9001 37.5C58.7001 37.4 59.4 38.1 59.5 39Z" fill="#855226"/>
<path d="M58.5 39.1C58.5 39.3 58.3 39.6 58 39.5C57.8 39.5 57.6001 39.3 57.6001 39C57.6001 38.8 57.8 38.5 58 38.5C58.3 38.6 58.5 38.8 58.5 39.1Z" fill="#050505"/>
<path d="M57.6001 38.5C57.6001 38.6 57.5001 38.8 57.4001 38.8C57.2001 38.8 57.1001 38.6 57.1001 38.5C57.1001 38.3 57.2001 38.2 57.4001 38.2C57.5001 38.2 57.6001 38.3 57.6001 38.5Z" fill="#FEFEFE"/>
<path d="M46.3 38.8C46.2 39.6 46.7 40.4 47.5 40.6C48.3 40.7 49.0999 40.1 49.1999 39.2C49.3999 38.4 48.8 37.6 48 37.5C47.2 37.3 46.5 37.9 46.3 38.8Z" fill="#855226"/>
<path d="M47.3 39C47.3 39.2 47.5 39.5 47.7 39.5C48 39.5 48.2 39.3 48.2 39C48.2 38.8 48 38.5 47.8 38.5C47.5 38.5 47.3 38.7 47.3 39Z" fill="#050505"/>
<path d="M48.2 38.5C48.2 38.6 48.3001 38.8 48.4001 38.8C48.6001 38.8 48.7 38.7 48.7 38.5C48.8 38.4 48.6 38.2 48.5 38.2C48.3 38.2 48.2 38.3 48.2 38.5Z" fill="#FEFEFE"/>
<path d="M43.8 35.8L44.9001 37.1C44.9001 37.1 49.5 36.6 50.2 40.1" stroke="#050505" stroke-width="0.5" stroke-linecap="round" stroke-linejoin="round"/>
<path d="M45.1001 35.9L45.7 37.1L45.1001 35.9Z" fill="#BB8653"/>
<path d="M45.1001 35.9L45.7 37.1" stroke="#050505" stroke-width="0.5" stroke-linecap="round" stroke-linejoin="round"/>
<path d="M62.3 36.3L61.1001 37.5C61.1001 37.5 56.5 36.4 55.5 39.9" stroke="#050505" stroke-width="0.5" stroke-linecap="round" stroke-linejoin="round"/>
<path d="M61 36.2L60.2 37.3L61 36.2Z" fill="#BB8653"/>
<path d="M61 36.2L60.2 37.3" stroke="#050505" stroke-width="0.5" stroke-linecap="round" stroke-linejoin="round"/>
<path d="M56.4001 35.7C56.4001 35.7 58.7 34.5 60.3 36.6" stroke="#050505" stroke-width="0.6" stroke-linecap="round" stroke-linejoin="round"/>
<path d="M49.7 35.7C49.7 35.7 47.5 34.4 45.7 36.3" stroke="#050505" stroke-width="0.6" stroke-linecap="round" stroke-linejoin="round"/>
<path d="M49.5 44.4C49.8 43.5 51.3999 43.9 52.1999 44C52.3999 44.1 52.8001 44.1 53.1001 44.1C53.3001 44.2 53.7 44.1 54 44.1C54.9 44 56.3999 43.6 56.6999 44.6C57.0999 45.5 56.3001 47.5 53.4001 47.6C53.2668 47.6 53.1333 47.6 53 47.6C52.9333 47.6 52.8333 47.5667 52.6999 47.5C49.7999 47.3 49.1 45.4 49.5 44.4Z" fill="#050505"/>
<path d="M39.6 41.1L38.4999 40.8C38.0999 40.7 37.5999 40.8 37.4999 41.2C37.3999 41.6 37.5999 41.9 37.6999 42C37.9999 42.3 38.3 42.3 38.3 42.3" fill="#803531"/>
<path d="M39.6 41.1L38.4999 40.8C38.0999 40.7 37.5999 40.8 37.4999 41.2C37.3999 41.6 37.5999 41.9 37.6999 42C37.9999 42.3 38.3 42.3 38.3 42.3" stroke="#050505" stroke-width="0.4" stroke-linecap="round" stroke-linejoin="round"/>
<path d="M72.7328 21.7C67.5328 20.8 63.2328 18.6 63.2328 18.6C63.2328 18.6 56.833 15.7 52.633 12.5C48.433 9.3 48.2328 15.8 59.7328 20.9C71.3328 25.9 77.9328 22.6 72.7328 21.7Z" fill="#8A52A0"/>
<g style="mix-blend-mode:multiply" opacity="0.5">
<path d="M72.733 21.7C67.533 20.8 63.233 18.6 63.233 18.6C63.233 18.6 58.1332 16.2 54.6332 13.9C53.9332 14.2 53.133 14.9 54.233 16C55.833 17.8 64.2331 23.2 69.3331 22.7C70.8331 22.8 71.9331 22.5 73.0331 23.4C75.0331 23 75.133 22.1 72.733 21.7Z" fill="#8A52A0"/>
</g>
<path d="M67.2329 3.79999C62.7329 1.79999 59.533 0 59.533 0L55.1331 16C57.4331 18 65.4329 21.9 68.4329 22.2L77.1331 8.10001C77.1331 8.10001 71.8329 5.69999 67.2329 3.79999Z" fill="#8A52A0"/>
<path d="M55.9329 13.1L55.1331 16C57.4331 18 65.4329 21.9 68.4329 22.2L70.033 19.6C66.633 19.1 58.6329 15.2 55.9329 13.1Z" fill="#FAA918"/>
<g style="mix-blend-mode:multiply" opacity="0.5">
<path d="M55.333 15.4L55.1331 16C57.4331 18 65.4329 21.9 68.4329 22.2L77.1331 8.10001C77.1331 8.10001 76.4329 7.9 75.2329 7.5C73.2329 11.3 64.433 21 55.333 15.4Z" fill="#8A52A0"/>
</g>
<path d="M16.2998 53.7V53C16.2998 52.7333 16.3332 52.5 16.3999 52.3C16.3999 52.1 16.5 51.8 16.7 51.4C16.8333 51 17.0331 50.6334 17.2998 50.3C17.4998 50.0334 17.8666 49.8 18.3999 49.6C18.9332 49.4 19.5333 49.3334 20.2 49.4C21.6 49.5 22.6999 50.1 23.0999 50.7C23.2999 50.9667 23.4665 51.3334 23.5999 51.8C23.7332 52.2 23.7998 52.5334 23.7998 52.8C23.7998 53 23.7998 53.2333 23.7998 53.5V53.6C23.7331 54.4 23.3998 55.2 22.7998 56C22.1998 56.8 21.5 57.5 20.7 58.1L23.5999 58.3L23.2998 61.3L16 60.7L16.2 58.1C18.2 56.6 19.5 55.5 20 54.7C20.2667 54.3667 20.4333 54.1 20.5 53.9C20.5667 53.7 20.5999 53.5 20.5999 53.3C20.5999 53 20.7 52.8 20.5 52.5C20.3667 52.4333 20.2332 52.4 20.0999 52.4C19.5999 52.3 19.5 52.6 19.5 53.3L19.3999 54L16.2998 53.7Z" fill="#050505"/>
<path fill-rule="evenodd" clip-rule="evenodd" d="M30.1998 50.1C31.7998 50.2333 32.9331 50.8667 33.5997 52C34.2664 53.1333 34.5331 54.5667 34.3998 56.3C34.2665 58.1 33.7999 59.5 32.9999 60.5C32.1332 61.5667 30.8997 62.0334 29.2997 61.9C27.6997 61.7667 26.5665 61.1333 25.8998 60C25.2331 58.9333 24.9664 57.5 25.0997 55.7C25.2331 53.9 25.6999 52.5 26.4999 51.5C27.3665 50.4333 28.5998 49.9667 30.1998 50.1ZM29.9999 53.1C29.6665 53.0333 29.3998 53.0667 29.1998 53.2C28.9998 53.4 28.8332 53.6334 28.6998 53.9C28.6332 54.2334 28.5665 54.5334 28.4999 54.8C28.4332 55.0667 28.3998 55.4334 28.3998 55.9C28.3331 56.3667 28.2997 56.7333 28.2997 57C28.2997 57.2667 28.3331 57.5667 28.3998 57.9C28.4665 58.2334 28.5997 58.5 28.7997 58.7C28.9997 58.8334 29.2332 58.9333 29.4999 59C29.8332 59 30.0997 58.9334 30.2997 58.8C30.4997 58.6667 30.6664 58.4333 30.7997 58.1C30.8664 57.7667 30.9332 57.4667 30.9999 57.2C31.0665 56.9334 31.0997 56.5667 31.0997 56.1C31.1664 55.6333 31.1998 55.2667 31.1998 55C31.1332 54.7333 31.0997 54.4333 31.0997 54.1C31.0331 53.7667 30.8998 53.5 30.6998 53.3C30.4998 53.1667 30.2665 53.1 29.9999 53.1Z" fill="#050505"/>
<path d="M17.8999 52.4V51.6C17.8999 51.3333 17.9333 51.1 18 50.9C18 50.7 18.0998 50.4 18.2998 50C18.4331 49.6 18.6332 49.2667 18.8999 49C19.0999 48.7333 19.4667 48.4667 20 48.2C20.5333 48.0667 21.1331 48 21.7998 48C23.1998 48.1 24.2 48.7 24.7 49.3C24.9 49.6334 25.0666 50 25.2 50.4C25.3333 50.8 25.3999 51.1334 25.3999 51.4C25.3999 51.6 25.3999 51.8333 25.3999 52.1V52.2C25.3332 53 24.9999 53.8 24.3999 54.6C23.7999 55.4 23.0998 56.1 22.2998 56.7L25.0999 56.9L24.8999 59.9L17.5999 59.4L17.7998 56.7C19.7998 55.3 21.0999 54.1 21.5999 53.3C21.8665 52.9667 22.0332 52.7 22.0999 52.5C22.1665 52.3 22.2 52.1 22.2 51.9C22.2 51.6 22.1999 51.4 22.0999 51.2C21.9665 51.0667 21.8333 51 21.7 51C21.2 50.9 21.0999 51.2 21.0999 51.9L21 52.6L17.8999 52.4Z" fill="#FEFEFE"/>
<path fill-rule="evenodd" clip-rule="evenodd" d="M31.7997 48.7C33.3997 48.8333 34.5332 49.4667 35.1998 50.6C35.8665 51.7333 36.1332 53.2 35.9999 55C35.8665 56.7333 35.3997 58.1333 34.5997 59.2C33.7331 60.2 32.4998 60.6333 30.8998 60.5C29.2998 60.4333 28.1665 59.8333 27.4999 58.7C26.8332 57.5667 26.5665 56.1 26.6998 54.3C26.8332 52.5667 27.2997 51.1667 28.0997 50.1C28.9664 49.1 30.1997 48.6333 31.7997 48.7ZM31.4999 51.7C31.2332 51.6333 30.9997 51.7 30.7997 51.9C30.5997 52.0334 30.433 52.2333 30.2997 52.5C30.233 52.8333 30.1664 53.1334 30.0997 53.4C30.0331 53.7334 29.9999 54.1 29.9999 54.5C29.9332 54.9667 29.8998 55.3333 29.8998 55.6C29.8998 55.9333 29.9332 56.2333 29.9999 56.5C30.0665 56.8333 30.1998 57.1 30.3998 57.3C30.5998 57.4333 30.8331 57.5333 31.0997 57.6C31.4331 57.6 31.6998 57.5334 31.8998 57.4C32.0998 57.2667 32.2665 57.0333 32.3998 56.7C32.4665 56.3667 32.5331 56.0667 32.5997 55.8C32.6664 55.5333 32.6998 55.1667 32.6998 54.7C32.7665 54.2333 32.7997 53.8667 32.7997 53.6C32.733 53.3333 32.6998 53.0333 32.6998 52.7C32.6332 52.3667 32.4997 52.1333 32.2997 52C32.0997 51.8 31.8332 51.7 31.4999 51.7Z" fill="#FEFEFE"/>
<path d="M99.8559 79.6579L1.80865 93.0837L0.733406 86.565L98.8579 73.0206L99.8559 79.6579Z" fill="#ED4592"/>
<path d="M15.451 88.9649C15.1821 90.5893 14.4596 92.0032 13.2836 93.2066C12.0938 94.3448 10.742 95.0402 9.2282 95.293C7.43968 95.5359 5.95746 95.1345 4.78172 94.089C3.54077 93.0572 2.9036 91.659 2.87021 89.8942C2.90204 88.1156 3.51788 86.5199 4.71761 85.107C5.91735 83.6941 7.41162 82.8662 9.20014 82.6234C10.714 82.3706 12.0704 82.6623 13.2699 83.4984C14.4042 84.3483 15.1304 85.5232 15.4484 87.0232L11.5916 87.6364C11.4019 87.0633 11.0769 86.6551 10.6165 86.412C10.1423 86.1037 9.67681 85.9979 9.22029 86.0947C8.48907 86.1815 7.85283 86.555 7.31127 87.2149C6.82109 87.7959 6.59365 88.4915 6.62912 89.3018C6.59938 90.1259 6.84243 90.7899 7.35817 91.2939C7.86008 91.7327 8.47659 91.9086 9.20781 91.8218C9.74337 91.7764 10.2376 91.5353 10.6902 91.0986C11.0776 90.6758 11.3789 90.1689 11.5944 89.578L15.451 88.9649Z" fill="#FEFEFE"/>
<path fill-rule="evenodd" clip-rule="evenodd" d="M23.6338 80.7902L28.0225 92.3309L24.1452 92.8462L23.7984 91.6931L19.9211 92.2084L19.4849 93.5275L15.6284 94.1407L19.9518 81.2641L23.6338 80.7902ZM21.0181 88.7047L22.7021 88.4499L21.8693 85.9687L21.0181 88.7047Z" fill="#FEFEFE"/>
<path fill-rule="evenodd" clip-rule="evenodd" d="M39.9275 90.6248L35.5611 91.2438L33.0386 88.5075L32.7451 88.5697L32.7804 91.6289L29.2171 92.1799L29.0764 79.943L34.0299 79.1995C34.1485 79.2766 34.344 79.2351 34.9517 79.2085C35.678 79.259 36.2087 79.351 36.8993 79.7157C37.6878 80.0596 38.2035 80.5636 38.5087 81.5211C38.7497 82.0152 38.8673 82.5696 38.8612 83.1842C38.8808 84.8838 38.2097 86.2186 36.8479 87.1888L39.9275 90.6248ZM32.7578 82.8426L32.7457 85.1962L34.1359 85.0037C34.788 84.8655 35.1033 84.4238 35.0816 83.6788C35.1321 82.9525 34.7557 82.6235 34.148 82.6501L32.7578 82.8426Z" fill="#FEFEFE"/>
<path d="M51.496 76.7234L51.637 88.9602L48.3464 89.3512L44.4874 84.6492L44.4898 89.9643L40.9058 90.4175L40.8835 78.2577L44.1533 77.769L47.9352 82.5894L47.9329 77.2743L51.496 76.7234Z" fill="#FEFEFE"/>
<path fill-rule="evenodd" clip-rule="evenodd" d="M60.7182 75.3816L65.2256 86.9994L61.2504 87.5355L60.8829 86.2845L57.0263 86.8977L56.5904 88.2167L52.7128 88.7321L57.0573 75.9533L60.7182 75.3816ZM58.1028 83.2961L59.7865 83.0414L58.9538 80.5601L58.1028 83.2961Z" fill="#FEFEFE"/>
<path d="M71.6673 86.0427L67.9856 86.5166L63.4989 74.9966L67.3762 74.4813L69.75 81.338L72.1341 73.7793L75.9907 73.1661L71.6673 86.0427Z" fill="#FEFEFE"/>
<path fill-rule="evenodd" clip-rule="evenodd" d="M82.4531 72.3072L86.9398 83.8272L83.0624 84.3425L82.618 83.2101L78.7404 83.7255L78.3045 85.0445L74.4479 85.6577L78.7714 72.7811L82.4531 72.3072ZM79.9356 80.2009L81.5214 79.967L80.6889 77.4857L79.9356 80.2009Z" fill="#FEFEFE"/>
<path d="M91.5777 70.9862L91.5796 79.6747L96.6516 79.0083L96.6512 82.3817L88.0367 83.6969L87.9937 71.4393L91.5777 70.9862Z" fill="#FEFEFE"/>
</svg>
