<svg width="99" height="112" viewBox="0 0 99 112" fill="none" xmlns="http://www.w3.org/2000/svg">
<path d="M9 41.4L75.9001 39L79.8 103.3L12 105.7L9 41.4Z" fill="#7AC057"/>
<path d="M79.8 103.3L12 105.7L3.5 111.9L68.9001 109.3L79.8 103.3Z" fill="#107C3F"/>
<path d="M9 41.4L0 50.7L3.5 111.9L12 105.7L9 41.4Z" fill="#105B30"/>
<mask id="mask0_150_7767" style="mask-type:luminance" maskUnits="userSpaceOnUse" x="0" y="41" width="12" height="71">
<path d="M8.72998 41.38L0.0400391 50.7L3.48999 111.87L12 105.63L8.72998 41.38Z" fill="white"/>
</mask>
<g mask="url(#mask0_150_7767)">
<path d="M0.800049 -9.5L-20.7 99.4" stroke="#7AC057" stroke-width="0.4"/>
<path d="M3 -5.5L-18.5 103.4" stroke="#7AC057" stroke-width="0.4"/>
<path d="M5.1001 -1.60001L-16.3 107.4" stroke="#7AC057" stroke-width="0.4"/>
<path d="M7.30005 2.39999L-14.0999 111.3" stroke="#7AC057" stroke-width="0.4"/>
<path d="M9.5 6.39999L-11.8999 115.3" stroke="#7AC057" stroke-width="0.4"/>
<path d="M11.7 10.4L-9.69995 119.3" stroke="#7AC057" stroke-width="0.4"/>
<path d="M13.9001 14.4L-7.5 123.3" stroke="#7AC057" stroke-width="0.4"/>
<path d="M16.1001 18.3L-5.3999 127.3" stroke="#7AC057" stroke-width="0.4"/>
<path d="M18.3 22.3L-3.19995 131.2" stroke="#7AC057" stroke-width="0.4"/>
<path d="M20.5 26.3L-1 135.2" stroke="#7AC057" stroke-width="0.4"/>
<path d="M22.6001 30.3L1.19995 139.2" stroke="#7AC057" stroke-width="0.4"/>
<path d="M24.8 34.2L3.40015 143.2" stroke="#7AC057" stroke-width="0.4"/>
<path d="M27 38.2L5.6001 147.2" stroke="#7AC057" stroke-width="0.4"/>
<path d="M29.2 42.2L7.80005 151.1" stroke="#7AC057" stroke-width="0.4"/>
<path d="M31.4001 46.2L10 155.1" stroke="#7AC057" stroke-width="0.4"/>
<path d="M38 58.1L-8 -25.4" stroke="#7AC057" stroke-width="0.4"/>
<path d="M36.9001 63.3L-9 -20.3" stroke="#7AC057" stroke-width="0.4"/>
<path d="M35.9001 68.5L-10 -15.1" stroke="#7AC057" stroke-width="0.4"/>
<path d="M34.9001 73.7L-11.0999 -9.90002" stroke="#7AC057" stroke-width="0.4"/>
<path d="M33.9001 78.9L-12.0999 -4.70001" stroke="#7AC057" stroke-width="0.4"/>
<path d="M32.8 84.1L-13.0999 0.5" stroke="#7AC057" stroke-width="0.4"/>
<path d="M31.8 89.2L-14.0999 5.69998" stroke="#7AC057" stroke-width="0.4"/>
<path d="M30.8 94.4L-15.0999 10.9" stroke="#7AC057" stroke-width="0.4"/>
<path d="M29.8 99.6L-16.2 16.1" stroke="#7AC057" stroke-width="0.4"/>
<path d="M28.8 104.8L-17.2 21.2" stroke="#7AC057" stroke-width="0.4"/>
<path d="M27.7 110L-18.2 26.4" stroke="#7AC057" stroke-width="0.4"/>
<path d="M26.7 115.2L-19.2 31.6" stroke="#7AC057" stroke-width="0.4"/>
<path d="M25.7 120.4L-20.2 36.8" stroke="#7AC057" stroke-width="0.4"/>
<path d="M24.7 125.6L-21.3 42" stroke="#7AC057" stroke-width="0.4"/>
<path d="M23.7 130.7L-22.3 47.2" stroke="#7AC057" stroke-width="0.4"/>
<path d="M22.6001 135.9L-23.3 52.4" stroke="#7AC057" stroke-width="0.4"/>
<path d="M21.6001 141.1L-24.3 57.6" stroke="#7AC057" stroke-width="0.4"/>
<path d="M20.6001 146.3L-25.3 62.7" stroke="#7AC057" stroke-width="0.4"/>
<path d="M19.6001 151.5L-26.3999 67.9" stroke="#7AC057" stroke-width="0.4"/>
<path d="M18.6001 156.7L-27.3999 73.1" stroke="#7AC057" stroke-width="0.4"/>
<path d="M17.5 161.9L-28.3999 78.3" stroke="#7AC057" stroke-width="0.4"/>
<path d="M16.5 167.1L-29.3999 83.5" stroke="#7AC057" stroke-width="0.4"/>
</g>
<path opacity="0.2" d="M34.5007 79.1079C34.5007 80.1079 41.8008 80.9079 50.8008 80.9079C59.8008 80.9079 67.0007 80.0078 67.0007 79.0078C67.0007 78.1078 59.8008 77.3079 50.8008 77.3079C41.8008 77.3079 34.5007 78.1079 34.5007 79.1079Z" fill="#050505"/>
<path d="M38.9009 45.7079C38.9009 45.7079 36.1007 44.8079 35.5007 44.1079C34.4007 43.2079 34.4009 41.5079 35.4009 40.4079C36.4009 39.3079 38.0008 39.3079 39.1008 40.2079C40.0008 41.0079 40.1008 42.3079 39.6008 43.4079C39.7341 43.4079 39.8342 43.4412 39.9009 43.5079C40.2009 43.8079 40.3007 44.2079 40.0007 44.5079L38.9009 45.7079Z" fill="#B48054"/>
<path d="M38.9009 45.7079C38.9009 45.7079 36.1007 44.8079 35.5007 44.1079C34.4007 43.2079 34.4009 41.5079 35.4009 40.4079C36.4009 39.3079 38.0008 39.3079 39.1008 40.2079C40.0008 41.0079 40.1008 42.3079 39.6008 43.4079C39.7341 43.4079 39.8342 43.4412 39.9009 43.5079C40.2009 43.8079 40.3007 44.2079 40.0007 44.5079L38.9009 45.7079Z" stroke="#050505" stroke-width="0.4" stroke-linecap="round" stroke-linejoin="round"/>
<path d="M47.4008 55.5078C47.8008 53.6078 46.5007 51.7079 44.6007 51.3079C43.4007 51.1079 42.5008 50.8079 41.9008 50.4079C41.2008 50.1079 40.9006 49.8079 40.7006 49.4079C40.4006 49.1079 40.3006 48.7079 40.2006 47.9079C40.1006 47.2079 40.1008 46.3078 40.4008 45.0078L33.4008 43.7079C33.1008 45.5079 33.0007 47.1079 33.1007 48.8079C33.3007 50.4079 33.9007 52.0079 34.8007 53.4079C35.7007 54.8079 37.0006 55.9079 38.5006 56.6079C39.9006 57.4079 41.5007 58.0079 43.3007 58.3079C45.2007 58.7079 47.1008 57.4078 47.4008 55.5078Z" fill="#EAECED"/>
<path d="M47.4008 55.5078C47.8008 53.6078 46.5007 51.7079 44.6007 51.3079C43.4007 51.1079 42.5008 50.8079 41.9008 50.4079C41.2008 50.1079 40.9006 49.8079 40.7006 49.4079C40.4006 49.1079 40.3006 48.7079 40.2006 47.9079C40.1006 47.2079 40.1008 46.3078 40.4008 45.0078L33.4008 43.7079C33.1008 45.5079 33.0007 47.1079 33.1007 48.8079C33.3007 50.4079 33.9007 52.0079 34.8007 53.4079C35.7007 54.8079 37.0006 55.9079 38.5006 56.6079C39.9006 57.4079 41.5007 58.0079 43.3007 58.3079C45.2007 58.7079 47.1008 57.4078 47.4008 55.5078Z" stroke="#050505" stroke-width="0.4" stroke-linecap="round" stroke-linejoin="round"/>
<g style="mix-blend-mode:multiply">
<mask id="mask1_150_7767" style="mask-type:luminance" maskUnits="userSpaceOnUse" x="33" y="43" width="14" height="16">
<path d="M46.1509 58.3679L33.0608 58.3778L33.0508 43.7079L46.1409 43.6978L46.1509 58.3679Z" fill="white"/>
</mask>
<g mask="url(#mask1_150_7767)">
<path d="M45.3007 57.5078C43.6007 57.2078 42.0006 56.7079 40.5006 55.9079C39.1006 55.1079 37.8008 54.0079 36.9008 52.6079C35.9008 51.3079 35.4006 49.7078 35.2006 48.0078C35.0672 46.7412 35.1007 45.4412 35.3007 44.1079L33.4008 43.7079C33.1008 45.5079 33.0007 47.1079 33.1007 48.8079C33.3007 50.4079 33.9007 52.0079 34.8007 53.4079C35.7007 54.8079 37.0006 55.9079 38.5006 56.6079C39.9006 57.4079 41.5007 58.0079 43.3007 58.3079C44.3007 58.5079 45.4006 58.2079 46.2006 57.6079C45.8672 57.6079 45.5673 57.5745 45.3007 57.5078Z" fill="#D7D7D5"/>
</g>
</g>
<path d="M45.4009 76.0078C45.4009 76.0078 46.0007 77.0079 43.5007 78.1079L53.6008 78.5078L53.4009 76.4079L45.4009 76.0078Z" fill="#050505"/>
<path d="M45.4009 76.0078C45.4009 76.0078 46.0007 77.0079 43.5007 78.1079L53.6008 78.5078L53.4009 76.4079L45.4009 76.0078Z" stroke="#050505" stroke-width="0.4" stroke-linecap="round" stroke-linejoin="round"/>
<path d="M44.1008 68.1079L44.8008 75.9079L54.0007 76.9079L54.7007 69.1079" fill="#28377C"/>
<path d="M44.1008 68.1079L44.8008 75.9079L54.0007 76.9079L54.7007 69.1079" stroke="#050505" stroke-width="0.4" stroke-linecap="round" stroke-linejoin="round"/>
<g opacity="0.3">
<mask id="mask2_150_7767" style="mask-type:luminance" maskUnits="userSpaceOnUse" x="49" y="68" width="4" height="9">
<path d="M52.9807 76.7879H49.8208V68.9379H52.9707L52.9807 76.7879Z" fill="white"/>
</mask>
<g mask="url(#mask2_150_7767)">
<path d="M49.8008 68.9079L50.8008 76.5078L53.0007 76.8079L52.3008 69.4079L49.8008 68.9079Z" fill="#0C0E10"/>
</g>
</g>
<path d="M53.1008 76.8079C53.1008 76.8079 53.8008 78.1079 51.6008 78.9079L61.6008 79.8079L61.4009 77.6079L53.1008 76.8079Z" fill="#050505"/>
<path d="M53.1008 76.8079C53.1008 76.8079 53.8008 78.1079 51.6008 78.9079L61.6008 79.8079L61.4009 77.6079L53.1008 76.8079Z" stroke="#050505" stroke-width="0.4" stroke-linecap="round" stroke-linejoin="round"/>
<path d="M51.8008 68.6079L52.8008 76.7079L62.3008 78.3079L62.7007 70.3079" fill="#28377C"/>
<path d="M51.8008 68.6079L52.8008 76.7079L62.3008 78.3079L62.7007 70.3079" stroke="#050505" stroke-width="0.4" stroke-linecap="round" stroke-linejoin="round"/>
<g opacity="0.3">
<mask id="mask3_150_7767" style="mask-type:luminance" maskUnits="userSpaceOnUse" x="60" y="71" width="3" height="8">
<path d="M62.6208 78.3279H60.0208L60.0107 71.6679H62.6208V78.3279Z" fill="white"/>
</mask>
<g mask="url(#mask3_150_7767)">
<path d="M62.6008 72.9079L62.5007 71.9079L60.0007 71.7079L60.7007 78.1079L62.3008 78.3079L62.6008 72.9079Z" fill="#0C0E10"/>
</g>
</g>
<path d="M53.3008 58.8079L49.4009 55.3079L46.3008 52.3079C46.3008 52.3079 44.3008 58.5079 42.6008 61.8079C41.1008 64.8079 39.2008 66.7079 39.1008 67.3079C39.3008 69.1079 45.8009 72.2079 47.9009 72.8079C53.7009 74.4079 57.0008 73.4079 61.1008 74.3079C64.3008 75.0079 64.9008 74.6079 65.3008 74.3079C66.6008 73.3079 67.1008 57.3079 67.1008 57.3079H59.3008L53.3008 58.8079Z" fill="#EAECED"/>
<path d="M53.3008 58.8079L49.4009 55.3079L46.3008 52.3079C46.3008 52.3079 44.3008 58.5079 42.6008 61.8079C41.1008 64.8079 39.2008 66.7079 39.1008 67.3079C39.3008 69.1079 45.8009 72.2079 47.9009 72.8079C53.7009 74.4079 57.0008 73.4079 61.1008 74.3079C64.3008 75.0079 64.9008 74.6079 65.3008 74.3079C66.6008 73.3079 67.1008 57.3079 67.1008 57.3079H59.3008L53.3008 58.8079Z" stroke="#050505" stroke-width="0.4" stroke-linecap="round" stroke-linejoin="round"/>
<path d="M56.7007 67.7079C56.3007 69.9079 57.4008 71.2079 59.1008 71.6079C60.7008 71.9079 62.3008 71.2079 62.8008 69.1079L63.3008 66.8079L57.2007 65.4079L56.7007 67.7079Z" stroke="#050505" stroke-width="0.4" stroke-linecap="round" stroke-linejoin="round"/>
<path d="M56.9009 66.6079L63.1008 68.0078L56.9009 66.6079Z" fill="#E3272C"/>
<path d="M56.9009 66.6079L63.1008 68.0078" stroke="#050505" stroke-width="0.4"/>
<path d="M52.0008 64.7078C52.0008 65.0078 51.6009 65.2078 51.3009 65.2078C50.9009 65.1078 50.7009 64.7078 50.8009 64.4078C50.9009 64.0078 51.2008 63.8078 51.5008 63.9078C51.9008 64.0078 52.1008 64.3078 52.0008 64.7078Z" fill="#050505"/>
<path d="M50.9009 67.3079C50.8009 67.7079 50.5008 67.9079 50.1008 67.8079C49.8008 67.7079 49.6008 67.4078 49.6008 67.0078C49.7008 66.7078 50.1009 66.5078 50.4009 66.5078C50.8009 66.6078 51.0009 67.0079 50.9009 67.3079Z" fill="#050505"/>
<path d="M49.5008 69.9079C49.5008 70.3079 49.1009 70.5079 48.8009 70.4079C48.4009 70.3079 48.2009 70.0079 48.3009 69.6079C48.4009 69.3079 48.7009 69.1079 49.1009 69.1079C49.4009 69.2079 49.6008 69.6079 49.5008 69.9079Z" fill="#050505"/>
<g style="mix-blend-mode:multiply">
<mask id="mask4_150_7767" style="mask-type:luminance" maskUnits="userSpaceOnUse" x="62" y="57" width="6" height="18">
<path d="M67.1108 74.6779H62.9807L62.9707 57.3479H67.1008L67.1108 74.6779Z" fill="white"/>
</mask>
<g mask="url(#mask4_150_7767)">
<path d="M65.3008 74.3079C66.5008 73.4079 67.0008 60.0079 67.1008 57.7079V57.3079L64.9009 57.7079L63.0007 74.6079C64.5007 74.8079 65.0008 74.5079 65.3008 74.3079Z" fill="#D7D7D5"/>
</g>
</g>
<path d="M71.2007 70.8079C71.6007 71.4079 72.6007 72.7078 72.5007 74.1079C72.5007 75.4079 71.7008 76.5078 70.6008 76.9078C69.2008 77.3078 67.5007 76.7078 67.5007 75.7078C67.5007 75.3078 67.4007 74.9078 67.2007 74.4078C67.1007 73.9078 66.7007 73.1078 66.7007 72.9078C66.4007 72.1078 66.3009 70.3078 67.9009 69.7078C69.9009 69.0078 71.2007 70.8079 71.2007 70.8079Z" fill="#AB795A"/>
<path d="M71.2007 70.8079C71.6007 71.4079 72.6007 72.7079 72.5007 74.1079C72.5007 75.4079 71.7008 76.5078 70.6008 76.9078C69.2008 77.3078 67.5007 76.7078 67.5007 75.7078C67.5007 75.3078 67.4007 74.9078 67.2007 74.4078C67.1007 73.9078 66.7007 73.1078 66.7007 72.9078C66.4007 72.1078 66.3009 70.3078 67.9009 69.7078C69.9009 69.0078 71.2007 70.8079 71.2007 70.8079Z" stroke="#050505" stroke-width="0.5" stroke-linecap="round" stroke-linejoin="round"/>
<path d="M67.2006 72.4079L66.0006 74.0078C65.7006 74.4078 65.8006 75.0079 66.2006 75.2079C66.5006 75.5079 66.9007 75.4079 67.1007 75.3079C67.5007 75.0079 67.8007 74.6079 67.8007 74.6079" fill="#AB795A"/>
<path d="M67.2006 72.4079L66.0006 74.0078C65.7006 74.4078 65.8006 75.0079 66.2006 75.2079C66.5006 75.5079 66.9007 75.4079 67.1007 75.3079C67.5007 75.0079 67.8007 74.6079 67.8007 74.6079" stroke="#050505" stroke-width="0.5" stroke-linecap="round" stroke-linejoin="round"/>
<g style="mix-blend-mode:multiply">
<mask id="mask5_150_7767" style="mask-type:luminance" maskUnits="userSpaceOnUse" x="66" y="69" width="7" height="5">
<path d="M72.2107 73.8379L66.2207 73.8479V69.4179H72.2007L72.2107 73.8379Z" fill="white"/>
</mask>
<g mask="url(#mask5_150_7767)">
<path d="M72.2008 71.9079C72.2008 71.9079 70.5009 71.1079 68.8009 72.2079C67.1009 73.3079 66.901 73.8079 66.901 73.8079C66.901 73.8079 65.7008 72.3078 66.5008 71.0078C67.4008 69.7078 69.2008 68.9079 70.2008 69.8079C71.1008 70.7079 72.2008 71.9079 72.2008 71.9079Z" fill="#DFDFDF"/>
</g>
</g>
<path d="M72.8009 71.7078C72.3009 70.0078 71.901 68.7079 71.401 66.8079C70.401 63.4079 68.8009 61.4078 68.8009 61.4078C67.5009 59.6078 65.3009 59.0079 63.6009 60.1079L63.1009 60.5078C61.6009 61.4078 60.7008 63.4078 62.2008 65.7078C62.2008 65.7078 63.5008 67.9078 64.2008 70.2078C64.6008 71.8078 65.2008 73.9078 65.2008 73.9078L72.8009 71.7078Z" fill="#F5F6F7"/>
<path d="M72.8009 71.7078C72.3009 70.0078 71.901 68.7079 71.401 66.8079C70.401 63.4079 68.8009 61.4078 68.8009 61.4078C67.5009 59.6078 65.3009 59.0079 63.6009 60.1079L63.1009 60.5078C61.6009 61.4078 60.7008 63.4078 62.2008 65.7078C62.2008 65.7078 63.5008 67.9078 64.2008 70.2078C64.6008 71.8078 65.2008 73.9078 65.2008 73.9078L72.8009 71.7078Z" stroke="#050505" stroke-width="0.5" stroke-linecap="round" stroke-linejoin="round"/>
<g opacity="0.3">
<mask id="mask6_150_7767" style="mask-type:luminance" maskUnits="userSpaceOnUse" x="62" y="59" width="11" height="14">
<path d="M72.7607 72.4379L62.5908 72.4478L62.5808 59.5879L72.7507 59.5779L72.7607 72.4379Z" fill="white"/>
</mask>
<g mask="url(#mask6_150_7767)">
<path d="M72.8008 71.7078C72.3008 70.0078 71.9009 68.7079 71.4009 66.8079C70.4009 63.4079 68.8008 61.4078 68.8008 61.4078C67.5008 59.6078 65.3008 59.0079 63.6008 60.1079L63.1008 60.5078C62.9008 60.5745 62.7342 60.6745 62.6008 60.8079C62.9008 60.9079 63.2007 61.0078 63.2007 61.0078C63.2007 61.0078 65.9007 60.7078 67.7007 64.4078C68.9007 66.9078 69.7007 70.4078 70.2007 72.4078L72.8008 71.7078Z" fill="#0A0C0F"/>
</g>
</g>
<path d="M51.0007 62.1079C51.0007 62.1079 50.7008 63.7079 49.1008 66.8079C47.5008 69.9079 46.8008 72.1079 46.8008 72.1079" fill="#FEFEFE"/>
<path d="M51.0007 62.1079C51.0007 62.1079 50.7008 63.7079 49.1008 66.8079C47.5008 69.9079 46.8008 72.1079 46.8008 72.1079" stroke="#050505" stroke-width="0.4" stroke-linecap="round" stroke-linejoin="round"/>
<path d="M51.4009 61.7079L50.9009 61.5078L51.3008 56.6079L54.9009 58.8079L51.4009 61.7079Z" fill="#96BFE2"/>
<g opacity="0.4">
<mask id="mask7_150_7767" style="mask-type:luminance" maskUnits="userSpaceOnUse" x="50" y="59" width="9" height="4">
<path d="M58.0708 62.9379L50.9307 62.9478V59.8979H58.0608L58.0708 62.9379Z" fill="white"/>
</mask>
<g mask="url(#mask7_150_7767)">
<path d="M57.8008 61.1079V61.6079L54.2007 60.9079L54.7007 61.5078L54.6008 62.0078L51.1008 62.7079L51.4009 61.7079L53.6008 60.1079L57.8008 61.1079Z" fill="#ACACAD"/>
<path d="M57.8008 61.1079V61.6079L54.2007 60.9079L54.7007 61.5078L54.6008 62.0078L51.1008 62.7079L51.4009 61.7079L53.6008 60.1079L57.8008 61.1079Z" stroke="#ACACAD" stroke-width="0.4" stroke-linejoin="round"/>
</g>
</g>
<g opacity="0.4">
<mask id="mask8_150_7767" style="mask-type:luminance" maskUnits="userSpaceOnUse" x="47" y="58" width="4" height="5">
<path d="M50.8909 62.0579H47.6907L47.6807 58.4579L50.8909 58.4478V62.0579Z" fill="white"/>
</mask>
<g mask="url(#mask8_150_7767)">
<path d="M49.9009 59.2079V59.8079L50.9009 62.0078L49.3008 59.5078L47.7007 58.9079V58.4079L49.9009 59.2079Z" fill="#ACACAD"/>
</g>
</g>
<path d="M51.0007 56.3079L47.9009 58.5078L49.9009 59.2079L49.2007 59.6079L50.9009 62.2079L51.3008 61.3079L51.5007 56.7079L51.0007 56.3079Z" fill="#EAECED"/>
<path d="M51.0007 56.3079L47.9009 58.5078L49.9009 59.2079L49.2007 59.6079L50.9009 62.2079L51.3008 61.3079L51.5007 56.7079L51.0007 56.3079Z" stroke="#050505" stroke-width="0.4" stroke-linecap="round" stroke-linejoin="round"/>
<path d="M56.1008 58.1079L57.7007 61.1079L54.1008 60.4079L54.5007 61.5078L51.1008 62.2079L51.2007 61.5078L53.8008 58.4079L56.1008 58.1079Z" fill="#EAECED"/>
<path d="M56.1008 58.1079L57.7007 61.1079L54.1008 60.4079L54.5007 61.5078L51.1008 62.2079L51.2007 61.5078L53.8008 58.4079L56.1008 58.1079Z" stroke="#050505" stroke-width="0.4" stroke-linecap="round" stroke-linejoin="round"/>
<mask id="mask9_150_7767" style="mask-type:luminance" maskUnits="userSpaceOnUse" x="39" y="59" width="9" height="10">
<path d="M47.8909 62.0479L44.0908 68.8379L39.1008 67.0579L43.6709 59.4979L47.8909 62.0479Z" fill="white"/>
</mask>
<g mask="url(#mask9_150_7767)">
<path d="M37.6009 61.9079C36.7009 63.9079 37.5009 65.4079 39.1009 66.2079C40.7009 66.9079 42.4009 66.5079 43.3009 64.6079L44.3009 62.4079L38.6009 59.8079L37.6009 61.9079Z" stroke="#050505" stroke-width="0.4" stroke-linecap="round" stroke-linejoin="round"/>
<path d="M38.0007 60.8079L43.8008 63.5078L38.0007 60.8079Z" fill="#E3272C"/>
<path d="M38.0007 60.8079L43.8008 63.5078" stroke="#050505" stroke-width="0.4"/>
</g>
<g opacity="0.5">
<mask id="mask10_150_7767" style="mask-type:luminance" maskUnits="userSpaceOnUse" x="51" y="57" width="3" height="4">
<path d="M53.5007 60.8579H51.4907V57.9279H53.4907L53.5007 60.8579Z" fill="white"/>
</mask>
<g mask="url(#mask10_150_7767)">
<path d="M52.9009 57.9079L53.5007 58.4079L51.5007 60.9079L51.6008 59.7079L52.9009 57.9079Z" fill="#6983A5"/>
</g>
</g>
<path d="M53.8008 58.4079L49.5007 55.1079" stroke="#050505" stroke-width="0.4" stroke-linecap="round" stroke-linejoin="round"/>
<path d="M78.2007 49.9078C72.8007 58.8078 61.3007 62.1078 51.7007 57.0078C42.4007 52.1078 40.3008 40.1078 45.8008 31.2078C51.2008 22.3078 62.5009 19.3079 71.4009 24.8079C80.3009 30.2079 83.7007 41.0078 78.2007 49.9078Z" fill="#9A7448"/>
<path d="M74.8008 49.2078C69.6008 57.7078 60.0009 61.2078 51.6009 56.0078C43.2009 50.9078 40.6008 39.8078 45.8008 31.2078C51.0008 22.7078 56.3007 23.8078 64.7007 29.0078C73.1007 34.2078 80.1008 40.7078 74.8008 49.2078Z" fill="#BC8357"/>
<path d="M79.3007 48.0079C73.9007 56.9079 64.1008 64.0079 51.9008 56.9079C37.5008 48.5079 40.4008 40.2079 45.9008 31.3079C51.3008 22.4079 63.0008 19.6079 71.9008 25.0079C80.8008 30.5079 84.8007 39.1079 79.3007 48.0079Z" fill="#B48054"/>
<path d="M79.3007 48.0079C73.9007 56.9079 64.1008 64.0079 51.9008 56.9079C37.5008 48.5079 40.4008 40.2079 45.9008 31.3079C51.3008 22.4079 63.0008 19.6079 71.9008 25.0079C80.8008 30.5079 84.8007 39.1079 79.3007 48.0079Z" stroke="#050505" stroke-width="0.4"/>
<path d="M44.7007 35.9079C44.2007 36.7079 44.2007 37.6079 44.7007 37.9079C45.2007 38.2079 46.0007 37.8078 46.5007 37.0078C47.0007 36.2078 47.0007 35.4078 46.5007 35.0078C46.0007 34.7078 45.2007 35.1079 44.7007 35.9079Z" fill="#050505"/>
<path d="M59.1009 44.7078C58.6009 45.5078 57.8008 45.9079 57.3008 45.6079C56.7008 45.2079 56.7007 44.4079 57.2007 43.6079C57.7007 42.8079 58.5008 42.4078 59.0008 42.7078C59.5008 43.0078 59.5009 43.9078 59.1009 44.7078Z" fill="#050505"/>
<path d="M59.2007 43.7078C59.1007 43.8078 58.9008 43.9079 58.8008 43.8079C58.7008 43.8079 58.7008 43.6078 58.8008 43.5078C58.9008 43.3078 59.0009 43.2079 59.1009 43.3079C59.2009 43.4079 59.3007 43.5078 59.2007 43.7078Z" fill="#FEFEFE"/>
<path d="M44.7007 35.9079C44.2007 36.7079 44.2007 37.6079 44.7007 37.9079C45.2007 38.2079 46.0007 37.8078 46.5007 37.0078C47.0007 36.2078 47.0007 35.4078 46.5007 35.0078C46.0007 34.7078 45.2007 35.1079 44.7007 35.9079Z" fill="#050505"/>
<path d="M46.5008 35.9079C46.4008 36.0079 46.2009 36.1078 46.1009 36.0078C46.0009 36.0078 46.0009 35.8079 46.1009 35.7079C46.2009 35.5079 46.3008 35.5078 46.5008 35.5078C46.6008 35.6078 46.6008 35.8079 46.5008 35.9079Z" fill="#FEFEFE"/>
<path d="M59.1009 44.7078C58.6009 45.5078 57.8008 45.9079 57.3008 45.6079C56.7008 45.2079 56.7007 44.4079 57.2007 43.6079C57.7007 42.8079 58.5008 42.4078 59.0008 42.7078C59.5008 43.0078 59.5009 43.9078 59.1009 44.7078Z" fill="#B48054"/>
<path d="M59.1009 44.7078C58.6009 45.5078 57.8008 45.9079 57.3008 45.6079C56.7008 45.2079 56.7007 44.4079 57.2007 43.6079C57.7007 42.8079 58.5008 42.4078 59.0008 42.7078C59.5008 43.0078 59.5009 43.9078 59.1009 44.7078Z" stroke="#B48054" stroke-width="0.4"/>
<path d="M59.2007 43.7078C59.1007 43.8078 58.9008 43.9079 58.8008 43.8079C58.7008 43.8079 58.7008 43.6078 58.8008 43.5078C58.9008 43.3078 59.0009 43.2079 59.1009 43.3079C59.2009 43.4079 59.3007 43.5078 59.2007 43.7078Z" fill="#B48054"/>
<path d="M59.2007 43.7078C59.1007 43.8078 58.9008 43.9079 58.8008 43.8079C58.7008 43.8079 58.7008 43.6078 58.8008 43.5078C58.9008 43.3078 59.0009 43.2079 59.1009 43.3079C59.2009 43.4079 59.3007 43.5078 59.2007 43.7078Z" stroke="#B48054" stroke-width="0.4"/>
<path d="M44.7007 35.9079C44.2007 36.7079 44.2007 37.6079 44.7007 37.9079C45.2007 38.2079 46.0007 37.8078 46.5007 37.0078C47.0007 36.2078 47.0007 35.4078 46.5007 35.0078C46.0007 34.7078 45.2007 35.1079 44.7007 35.9079Z" fill="#B48054"/>
<path d="M44.7007 35.9079C44.2007 36.7079 44.2007 37.6079 44.7007 37.9079C45.2007 38.2079 46.0007 37.8078 46.5007 37.0078C47.0007 36.2078 47.0007 35.4078 46.5007 35.0078C46.0007 34.7078 45.2007 35.1079 44.7007 35.9079Z" stroke="#B48054" stroke-width="0.4"/>
<path d="M46.5008 35.9079C46.4008 36.0079 46.2009 36.1078 46.1009 36.0078C46.0009 36.0078 46.0009 35.8079 46.1009 35.7079C46.2009 35.5079 46.3008 35.5078 46.5008 35.5078C46.6008 35.6078 46.6008 35.8079 46.5008 35.9079Z" fill="#B48054"/>
<path d="M46.5008 35.9079C46.4008 36.0079 46.2009 36.1078 46.1009 36.0078C46.0009 36.0078 46.0009 35.8079 46.1009 35.7079C46.2009 35.5079 46.3008 35.5078 46.5008 35.5078C46.6008 35.6078 46.6008 35.8079 46.5008 35.9079Z" stroke="#B48054" stroke-width="0.4"/>
<path d="M56.8008 43.4079C57.4008 42.3079 58.5007 42.1079 59.2007 42.5079C59.8007 42.9079 60.0008 43.9079 59.3008 44.9079" fill="#B48054"/>
<path d="M56.8008 43.4079C57.4008 42.3079 58.5007 42.1079 59.2007 42.5079C59.8007 42.9079 60.0008 43.9079 59.3008 44.9079" stroke="#050505" stroke-width="0.4" stroke-linecap="round" stroke-linejoin="round"/>
<path d="M46.6008 37.1079C47.1008 36.3079 47.0007 35.4078 46.5007 35.0078C46.0007 34.7078 45.2007 35.1079 44.7007 35.9079" fill="#B48054"/>
<path d="M46.6008 37.1079C47.1008 36.3079 47.0007 35.4078 46.5007 35.0078C46.0007 34.7078 45.2007 35.1079 44.7007 35.9079" stroke="#050505" stroke-width="0.4" stroke-linecap="round" stroke-linejoin="round"/>
<g style="mix-blend-mode:multiply">
<mask id="mask11_150_7767" style="mask-type:luminance" maskUnits="userSpaceOnUse" x="48" y="22" width="34" height="38">
<path d="M81.8108 59.7979L48.7708 59.8279L48.7407 22.6378L81.7808 22.6179L81.8108 59.7979Z" fill="white"/>
</mask>
<g mask="url(#mask11_150_7767)">
<path d="M62.2007 51.9079C62.2674 51.9079 62.2674 51.8746 62.2007 51.8079C62.5007 51.2079 62.7007 50.7079 62.7007 50.2079C62.5674 49.8745 62.4007 49.5079 62.2007 49.1079C61.8007 48.2079 61.5008 47.2079 61.3008 46.2079C60.3008 43.7079 60.0008 40.3079 59.8008 38.2079C59.5008 35.9079 57.9009 23.1079 57.9009 23.1079C57.9009 23.1079 63.2007 21.8079 68.5007 23.4079C68.5674 23.4746 68.634 23.5079 68.7007 23.5079C68.9007 23.5745 69.1008 23.6412 69.3008 23.7079C69.3674 23.7745 69.4341 23.8079 69.5007 23.8079C75.9007 26.6079 80.3008 33.4079 81.8008 39.6079C81.8008 39.6079 81.8008 39.6412 81.8008 39.7079C81.8008 42.4079 81.1008 45.2079 79.3008 48.0079C73.9008 56.9079 64.1009 64.0079 51.9009 56.9079C50.8342 56.3079 49.8674 55.7079 49.0007 55.1079C48.8674 54.9079 48.8008 54.8079 48.8008 54.8079C57.3008 58.7079 62.2007 51.9079 62.2007 51.9079Z" fill="#D7D7D5"/>
</g>
</g>
<path d="M78.5007 49.9079C78.5007 49.9079 81.9007 49.9079 77.7007 54.2079C75.5007 56.3079 71.0007 57.9079 71.0007 57.9079L78.5007 49.9079Z" fill="#201E1E"/>
<path d="M54.0007 22.3079C54.0007 22.3079 47.1008 23.1079 42.6008 28.7079C42.4008 28.9079 44.9008 27.1079 48.3008 26.2079" fill="#050505"/>
<path d="M80.7007 29.7079C80.7007 29.7079 88.7008 38.6079 81.8008 49.4079C81.8008 49.4079 83.6007 41.3079 80.7007 29.7079Z" fill="#050505"/>
<path d="M73.3009 36.8079C72.9009 36.6079 69.501 47.7079 73.901 50.8079C76.901 47.7079 76.7008 43.0078 76.7008 43.0078C77.1008 47.1078 75.6008 50.4079 74.7008 51.3079C75.4008 51.9079 77.5009 53.3079 79.1009 53.6079C79.1009 53.6079 92.4008 35.1079 71.2008 22.8079C71.2008 22.8079 59.1009 14.5079 43.6009 28.9079C43.6009 28.9079 43.5009 29.7079 44.3009 31.6079C44.9009 33.1079 50.7009 25.6079 51.6009 26.7079" fill="#050505"/>
<path d="M68.8008 21.7079C66.7008 20.8079 58.3009 17.0079 46.4009 23.8079C46.4009 23.8079 71.0008 22.6079 68.8008 21.7079Z" fill="#050505"/>
<path d="M55.4009 20.4079C55.4009 20.4079 75.0009 14.8078 82.4009 32.5078C89.7009 50.1078 55.4009 20.4079 55.4009 20.4079Z" fill="#050505"/>
<path d="M79.7007 52.5078C79.7007 52.5078 77.8007 56.1079 74.5007 57.9079C71.2007 59.6079 70.6008 59.5078 70.6008 59.5078C70.6008 59.5078 72.5008 58.6079 75.1008 54.1079" fill="#050505"/>
<path d="M68.0006 59.9079C68.0006 59.9079 66.8006 60.0079 66.0006 59.3079C65.7006 59.0079 67.6007 58.4079 67.6007 58.4079L68.0006 59.9079Z" fill="#050505"/>
<path d="M65.4009 21.9079C65.4009 21.9079 56.9009 15.9079 43.9009 29.6079C43.9009 29.6079 43.7008 29.5079 44.1008 31.1079C44.5008 32.3079 44.5008 32.3079 45.1008 33.2079C46.2008 31.2079 47.5007 30.6079 52.0007 29.1079C52.0007 29.1079 47.1008 30.8079 46.1008 34.3079C53.2008 42.2079 61.0007 38.8079 61.0007 38.8079C60.8007 38.6079 58.8009 44.0079 63.9009 45.8079C66.5009 42.9079 67.7007 38.6079 67.7007 38.6079C67.5007 42.0079 66.6008 44.2079 65.1008 46.4079C65.6008 46.8079 67.4008 47.2079 68.6008 47.4079C68.6008 47.4079 80.4009 30.4079 65.4009 21.9079Z" fill="#050505"/>
<path d="M68.6008 47.4079C68.6008 47.4079 73.2007 50.5079 66.7007 58.9079L76.1008 56.1079C76.1008 56.1079 84.9008 48.5078 82.6008 38.0078C80.4008 27.5078 77.4009 32.6079 77.4009 32.6079L72.9009 32.5078L68.6008 47.4079Z" fill="#050505"/>
<path d="M65.1008 46.4079C65.1008 46.4079 69.1008 51.3079 66.8008 58.4079C66.5008 59.4079 68.0007 59.9079 68.0007 59.9079C68.0007 59.9079 72.6008 58.8079 74.6008 56.2079C76.7008 53.5079 72.0007 45.6079 72.0007 45.6079L65.1008 46.4079Z" fill="#050505"/>
<path d="M78.7007 27.5078C78.7007 27.5078 77.1007 23.2079 74.5007 21.2079C71.9007 19.2079 71.5007 19.6079 71.5007 19.6079C71.5007 19.6079 75.4009 21.7079 76.4009 26.7079" fill="#050505"/>
<path d="M82.1008 31.4079C82.1008 31.4079 80.5008 29.3079 83.1008 28.3079C83.1008 28.3079 81.4007 27.5079 80.7007 28.3079C80.9007 27.1079 80.7007 24.7079 77.7007 22.4079C77.7007 22.4079 78.8007 25.4078 76.7007 25.0078" fill="#050505"/>
<path d="M50.5006 43.4079C50.5006 43.4079 49.0007 44.2078 47.8007 43.5078C46.7007 42.8078 47.1007 41.0078 47.1007 41.0078C47.1007 41.0078 47.9008 42.5079 48.4008 42.9079C49.0008 43.2079 50.5006 43.4079 50.5006 43.4079Z" fill="#9A7448"/>
<path d="M47.3008 41.3079L47.6008 42.2079C47.8008 42.5079 48.3007 42.8079 48.7007 42.9079L50.5007 43.3079" stroke="#050505" stroke-width="0.4" stroke-linecap="round" stroke-linejoin="bevel"/>
<path d="M51.3008 53.0078C49.8008 51.5078 49.5008 49.2079 50.6008 47.2079C51.5008 45.7079 53.1008 44.8079 54.8008 44.8079" stroke="#050505" stroke-width="0.4" stroke-linecap="round" stroke-linejoin="bevel"/>
<path d="M41.5008 45.7078C40.2008 44.0078 40.1009 41.7079 41.3009 40.1079C42.4009 38.7079 44.0008 38.2079 45.7008 38.4079" fill="#B48054"/>
<path d="M41.5008 45.7078C40.2008 44.0078 40.1009 41.7079 41.3009 40.1079C42.4009 38.7079 44.0008 38.2079 45.7008 38.4079" stroke="#050505" stroke-width="0.4" stroke-linecap="round" stroke-linejoin="round"/>
<path d="M67.2007 25.9079L61.7007 19.5079" stroke="#050505" stroke-width="0.4"/>
<path d="M83.8008 33.0078L82.0007 32.0078L81.4009 34.1079L82.1008 34.5078L83.8008 33.0078Z" fill="#050505"/>
<path d="M36.4008 39.5078C23.4008 33.8078 13.3006 22.2079 12.5006 21.8079C11.0006 21.1079 8.70072 23.5079 6.60072 28.1079C4.40072 32.7079 3.40063 35.8079 5.50063 36.7079C6.50063 37.2079 26.1007 39.5079 37.8007 43.6079C44.6007 46.0079 44.4006 47.6079 45.0006 47.4079C45.2006 47.3079 45.9007 46.9079 46.3007 46.1079C46.6007 45.4079 46.5008 44.7079 46.4008 44.4079C46.2008 43.8079 45.5008 44.3079 38.9008 41.2079" fill="#FAA918"/>
<g style="mix-blend-mode:multiply" opacity="0.2">
<mask id="mask12_150_7767" style="mask-type:luminance" maskUnits="userSpaceOnUse" x="4" y="33" width="42" height="15">
<path d="M45.8008 47.4379L4.33081 41.0579L4.3208 33.3178L45.8008 39.6978V47.4379Z" fill="white"/>
</mask>
<g mask="url(#mask12_150_7767)">
<path d="M45.0007 47.4079C45.1007 47.4079 45.5008 47.0079 45.8008 46.6079L45.6008 46.2079C45.0008 46.3079 44.8007 45.7079 38.2007 42.6079C30.1007 38.8079 8.20081 33.8079 7.10081 33.3079L4.50071 33.5078C4.10071 35.1078 4.40071 36.2079 5.50071 36.7079C6.50071 37.2079 27.8008 39.9079 37.8008 43.6079C44.6008 46.2079 44.4007 47.6079 45.0007 47.4079Z" fill="#180E20"/>
</g>
</g>
<path d="M12.2007 21.3987C12.0007 21.3987 11.6009 21.1988 11.4009 21.0988C9.90086 20.3988 7.00086 23.4988 4.90086 27.8988C2.80086 32.3988 2.40086 36.5987 3.90086 37.2987C4.00086 37.3987 4.40081 37.5987 4.60081 37.5987C6.50081 38.4987 9.70076 35.5988 11.8008 31.1988C13.9008 26.6988 14.1007 22.2987 12.2007 21.3987Z" fill="#FEC908"/>
<path d="M11.4009 30.4079C9.30086 34.9079 6.40086 37.9079 4.90086 37.2079C3.40086 36.5079 3.80086 32.3079 5.90086 27.8079C8.00086 23.4079 10.9009 20.3079 12.4009 21.0079C13.9009 21.7079 13.5009 25.9079 11.4009 30.4079Z" fill="#FCB613"/>
<g opacity="0.9">
<mask id="mask13_150_7767" style="mask-type:luminance" maskUnits="userSpaceOnUse" x="5" y="23" width="7" height="12">
<path d="M11.4307 34.6879H5.40088L5.39087 23.3178L11.4209 23.3079L11.4307 34.6879Z" fill="white"/>
</mask>
<g mask="url(#mask13_150_7767)">
<path d="M9.80085 29.7079C8.40085 32.8079 6.60085 35.0079 5.80085 34.6079C5.00085 34.3079 5.5008 31.4079 7.0008 28.3079C8.4008 25.2079 10.3009 23.0079 11.1009 23.3079C11.8009 23.7079 11.3008 26.5079 9.80085 29.7079Z" fill="#600B3C"/>
</g>
</g>
<g opacity="0.7">
<mask id="mask14_150_7767" style="mask-type:luminance" maskUnits="userSpaceOnUse" x="5" y="24" width="6" height="11">
<path d="M10.4209 34.2987L5.85083 34.3087L5.84082 24.5288H10.4209V34.2987Z" fill="white"/>
</mask>
<g mask="url(#mask14_150_7767)">
<path d="M8.80078 29.7987C9.80078 27.6987 10.4009 25.6987 10.4009 24.4987C9.50088 25.2987 8.40088 26.9987 7.40088 29.0987C6.40088 31.1987 5.90078 33.0987 5.80078 34.2987C6.70078 33.4987 7.90078 31.7987 8.80078 29.7987Z" fill="#4E0E26"/>
</g>
</g>
<path d="M40.1008 42.0078C39.7008 42.7078 38.5008 42.9079 37.3008 42.3079C36.0008 41.7079 35.3007 40.7079 35.7007 39.9079C36.0007 39.2079 37.3007 39.0079 38.5007 39.6079C39.7007 40.1079 40.4008 41.2078 40.1008 42.0078Z" fill="#B48054"/>
<path d="M40.1008 42.0078C39.7008 42.7078 38.5008 42.9079 37.3008 42.3079C36.0008 41.7079 35.3007 40.7079 35.7007 39.9079C36.0007 39.2079 37.3007 39.0079 38.5007 39.6079C39.7007 40.1079 40.4008 41.2078 40.1008 42.0078Z" stroke="#050505" stroke-width="0.4"/>
<path d="M40.7006 43.9079C40.3006 44.7079 40.0007 45.3079 39.1007 44.9079C38.1007 44.5079 38.5008 43.9078 38.9008 43.0078C39.3008 42.2078 39.9008 41.9079 40.4008 42.1079C40.9008 42.3079 41.1006 43.0079 40.7006 43.9079Z" fill="#B48054"/>
<path d="M40.7006 43.9079C40.3006 44.7079 40.0007 45.3079 39.1007 44.9079C38.1007 44.5079 38.5008 43.9078 38.9008 43.0078C39.3008 42.2078 39.9008 41.9079 40.4008 42.1079C40.9008 42.3079 41.1006 43.0079 40.7006 43.9079Z" stroke="#050505" stroke-width="0.4" stroke-linecap="round" stroke-linejoin="round"/>
<path d="M44.7007 47.6079C44.9007 47.6079 45.7007 47.1079 46.2007 46.1079C46.6007 45.2079 46.5009 44.4079 46.4009 44.1079" stroke="#050505" stroke-width="0.5"/>
<path d="M65.1008 2.10788C65.1008 2.10788 74.7008 6.70787 71.8008 19.0079C74.4008 15.9079 86.0007 2.90787 86.0007 2.90787C86.0007 2.90787 79.7008 19.2079 78.1008 22.8079C87.7008 14.7079 96.2007 21.2079 96.2007 21.2079C83.7007 21.3079 81.1008 31.8079 81.1008 31.8079C76.2008 31.1079 70.7007 27.8079 70.7007 27.8079C70.7007 27.8079 65.2007 24.4079 62.5007 20.3079C62.5007 20.3079 70.7008 13.3079 65.1008 2.10788Z" fill="#71B24E"/>
<g style="mix-blend-mode:multiply" opacity="0.8">
<path d="M65.1008 2.10788C65.1008 2.10788 71.2008 10.6079 68.1008 19.4079C68.8008 21.8079 74.7009 28.2079 81.4009 30.9079C81.2009 31.5079 81.1008 31.8079 81.1008 31.8079C76.2008 31.1079 70.7007 27.8079 70.7007 27.8079C70.7007 27.8079 65.2007 24.4079 62.5007 20.3079C62.5007 20.3079 70.7008 13.3079 65.1008 2.10788Z" fill="#94C845"/>
</g>
<g style="mix-blend-mode:multiply" opacity="0.5">
<path d="M71.8007 19.0079C74.4007 15.9079 86.0006 2.90787 86.0006 2.90787L73.3007 23.6079C73.3007 23.6079 71.4007 21.4079 71.8007 19.0079Z" fill="#94C845"/>
</g>
<g style="mix-blend-mode:multiply" opacity="0.5">
<path d="M79.9009 25.5078C79.1009 24.5078 78.1008 22.8079 78.1008 22.8079C87.7008 14.7079 96.2007 21.2079 96.2007 21.2079C96.2007 21.2079 87.3009 18.5078 79.9009 25.5078Z" fill="#94C845"/>
</g>
<path d="M98.0007 22.3079C97.4007 23.3079 96.1008 23.6078 95.1008 23.0078C94.1008 22.4078 93.8009 21.1079 94.4009 20.1079C95.0009 19.1079 96.3008 18.8079 97.3008 19.4079C98.3008 20.0079 98.6007 21.3079 98.0007 22.3079Z" fill="#7358A4"/>
<path d="M84.2006 1.80786C83.6006 2.80786 83.9008 4.10785 84.9008 4.70785C85.9008 5.30785 87.2007 5.00787 87.8007 4.00787C88.5007 3.00787 88.1006 1.70788 87.2006 1.10788C86.2006 0.507876 84.9006 0.807857 84.2006 1.80786Z" fill="#7358A4"/>
<path d="M63.3008 1.00786C62.7008 2.00786 63.0007 3.30786 64.0007 3.90786C65.0007 4.50785 66.3009 4.20784 66.9009 3.20784C67.5009 2.20784 67.2007 0.907849 66.2007 0.307849C65.2007 -0.292151 63.9008 0.00786114 63.3008 1.00786Z" fill="#7358A4"/>
<path d="M72.1008 25.5078C72.1008 25.5078 77.1009 28.5079 81.9009 29.7079C81.3009 31.0079 81.1008 31.8079 81.1008 31.8079C76.2008 31.1079 70.7007 27.8079 70.7007 27.8079C70.7007 27.8079 65.2007 24.4079 62.5007 20.3079C62.5007 20.3079 63.1009 19.7079 63.9009 18.7079C67.2009 22.4079 72.1008 25.5078 72.1008 25.5078Z" fill="#FAA918"/>
<path d="M43.0023 87.6074C41.4029 86.8989 40.0155 85.7967 38.174 86.4815C37.7894 86.63 38.1714 88.5625 37.7868 88.7109C39.6282 88.0261 41.0974 89.0709 42.6726 89.9187C44.0751 90.5212 45.8288 90.754 46.7342 89.2606C47.1097 88.7517 46.7219 87.6796 47.1216 87.0313C46.1344 88.5823 44.3806 88.3493 43.0023 87.6074Z" fill="#FCE003"/>
<path d="M28.4772 97.8358C29.4803 99.4983 30.1721 101.343 32.3445 101.872C32.7379 101.996 33.5672 99.8414 33.9605 99.965C31.7881 99.4351 31.1962 97.5967 30.0932 95.9284C29.178 94.4715 27.652 93.1788 25.8957 94.0762C25.1732 94.434 25.0022 95.6259 24.2797 95.9837C26.036 95.0863 27.562 96.379 28.4772 97.8358Z" fill="#FCE003"/>
<path d="M32.1036 72.259C30.7347 73.3798 29.178 74.2889 29.0653 76.1855C29.0415 76.5848 31.0202 77.003 30.9965 77.4023C31.1151 75.4059 32.6659 74.5965 33.9409 73.37C35.0983 72.437 36.0916 70.8932 35.0766 69.4304C34.6072 68.9016 33.5091 68.8363 33.1454 68.2136C34.1604 69.6764 33.2669 71.2262 32.1036 72.259Z" fill="#FCE003"/>
<path d="M57.0111 96.4264C57.5468 94.1542 59.4446 92.5638 61.7524 92.5006C61.3531 92.4769 60.9667 90.5508 60.5615 90.6268C58.2536 90.69 56.2621 92.1743 55.7263 94.4466C55.5968 94.9397 57.1406 95.9332 57.0111 96.4264Z" fill="#DD4297"/>
<path d="M20.3976 86.0725C20.9334 83.8003 22.8251 82.3098 25.1329 82.2466C24.7336 82.2229 24.3473 80.2967 23.948 80.2729C21.6402 80.3361 19.6426 81.9203 19.1069 84.1926C19.0772 84.6917 20.5271 85.5793 20.3976 86.0725Z" fill="#DD4297"/>
<path fill-rule="evenodd" clip-rule="evenodd" d="M77.8013 92.1525C77.4079 92.029 76.3326 93.2672 75.8394 93.1377C73.3912 92.1908 72.8062 88.5498 71.4394 86.2647C71.4355 86.3313 71.4315 86.3978 71.4275 86.4643C70.9749 87.339 69.4004 88.5477 68.0848 88.7701C67.1746 88.9163 66.4817 88.7749 66.0241 88.0464C64.5516 85.8552 67.8586 84.1484 69.6851 83.7561C69.5837 83.2158 69.445 82.7401 69.2691 82.329C68.2897 80.2672 66.57 78.8627 64.4035 78.233C64.9965 78.3685 65.8663 77.218 66.4593 77.3535C69.2188 78.1185 71.7598 80.8742 71.8872 83.7869C74.8166 85.063 74.5605 91.0583 77.8013 92.1525ZM69.8255 84.7662C69.438 84.5428 68.9742 84.482 68.4339 84.5834C67.4642 85.7279 67.5512 87.6362 69.0367 87.9249C69.689 87.0621 69.9598 85.8761 69.8255 84.7662Z" fill="#7358A4"/>
<path d="M14.2 52.8L14.2998 52C14.2998 51.7333 14.3332 51.5 14.3999 51.3C14.3999 51.1 14.5 50.8 14.7 50.4C14.8333 50 15.0331 49.6667 15.2998 49.4C15.4998 49.1334 15.8666 48.9 16.3999 48.7C16.9332 48.5 17.5333 48.4 18.2 48.4C19.6 48.5 20.5999 49.1 21.0999 49.7C21.2999 50.0333 21.4665 50.4 21.5999 50.8C21.7332 51.2 21.7998 51.5334 21.7998 51.8C21.7998 52 21.7998 52.2333 21.7998 52.5V52.6C21.7331 53.4 21.3998 54.2 20.7998 55C20.1998 55.8 19.5 56.5 18.7 57.1L21.5 57.3L21.2998 60.3L14 59.8L14.2 57.2C16.2 55.7 17.5 54.5 18 53.7C18.2667 53.3667 18.4333 53.1 18.5 52.9C18.5667 52.7 18.5999 52.5 18.5999 52.3C18.5999 52 18.6 51.8 18.5 51.6C18.3667 51.4667 18.2 51.4 18 51.4C17.6 51.4 17.5 51.6 17.5 52.3L17.3999 53L14.2 52.8Z" fill="#050505"/>
<path d="M25.2 49.1L27.8999 49.3L27.0999 60.7L23.8999 60.5L24.5 52.3C23.7 52.4334 23.0333 52.5333 22.5 52.6L22.7 49.6L25.2 49.1Z" fill="#050505"/>
<path d="M15.7998 51.4L15.8999 50.6C15.8999 50.3333 15.9333 50.1 16 49.9C16 49.7 16.0998 49.4 16.2998 49C16.4331 48.6 16.6332 48.2667 16.8999 48C17.0999 47.7333 17.4667 47.5 18 47.3C18.5333 47.1 19.1331 47 19.7998 47C21.1998 47.1 22.2 47.7 22.7 48.3C22.9 48.6334 23.0666 49 23.2 49.4C23.3333 49.8667 23.3999 50.2 23.3999 50.4C23.3999 50.6 23.3999 50.8333 23.3999 51.1V51.2C23.3332 52 22.9999 52.8 22.3999 53.6C21.7999 54.4 21.0998 55.1334 20.2998 55.8L23.0999 56L22.8999 58.9L15.5999 58.4L15.7998 55.8C17.7998 54.3 19.0999 53.1 19.5999 52.3C19.7999 51.9667 19.9665 51.7 20.0999 51.5C20.1665 51.3667 20.2 51.2 20.2 51C20.2 50.6 20.1999 50.4 20.0999 50.2C19.9665 50.0667 19.7999 50 19.5999 50C19.1999 50 19.1 50.2 19 50.9V51.6L15.7998 51.4Z" fill="#FEFEFE"/>
<path d="M26.7 47.7L29.5 47.9L28.7 59.3L25.5 59.1L26.0999 50.9C25.2999 51.0334 24.6332 51.1333 24.0999 51.2L24.2998 48.2L26.7 47.7Z" fill="#FEFEFE"/>
</svg>
