<svg width="90" height="146" viewBox="0 0 90 146" fill="none" xmlns="http://www.w3.org/2000/svg">
<path d="M63.2 133.639L5.40002 125.639L14.4 60.4392L72.2 68.4392L63.2 133.639Z" fill="#7358A4"/>
<g opacity="0.3">
<path d="M66.8 86.9393C66.4 88.9393 59.6 89.2393 51.6 87.3393C43.7 85.5393 37.7 82.4393 38.2 80.3393C38.6 78.3393 45.4 78.0393 53.4 79.9393C61.3 81.7393 67.3 84.8393 66.8 86.9393Z" fill="#1C1C1A"/>
</g>
<path d="M16.8 72.5392L16.9 71.7393C16.9667 71.4726 17 71.2392 17 71.0392C17.0667 70.8392 17.2 70.5392 17.4 70.1392C17.6 69.7392 17.8 69.4058 18 69.1392C18.2667 68.8725 18.6667 68.6725 19.2 68.5392C19.7334 68.4059 20.3334 68.3726 21 68.4392C22.4 68.6392 23.4 69.2392 23.8 69.9392C24.0667 70.2059 24.2334 70.5725 24.3 71.0392C24.3667 71.4392 24.4 71.7725 24.4 72.0392C24.4 72.2392 24.3667 72.4726 24.3 72.7393V72.8392C24.2334 73.6392 23.8667 74.4058 23.2 75.1392C22.5334 75.9392 21.8 76.6058 21 77.1392L23.8 77.5392L23.4 80.4392L16.1 79.4392L16.5 76.8392C18.5 75.5392 19.9 74.4393 20.5 73.7393C20.7667 73.3393 20.9334 73.0726 21 72.9392C21.0667 72.7392 21.1334 72.5392 21.2 72.3392C21.2 72.0392 21.3 71.8392 21.1 71.5392C21.0334 71.4725 20.9 71.4059 20.7 71.3392C20.2 71.3392 20.1 71.5393 20 72.2393L19.9 72.9392L16.8 72.5392Z" fill="#050505"/>
<path fill-rule="evenodd" clip-rule="evenodd" d="M33.6001 76.8392L33.2 79.8392L32 79.6392L31.8 81.6392L28.6001 81.1392L28.9 79.2393L24.8 78.6392L25.1001 75.9392L29.9 69.8392L33.3 70.3392L32.4 76.7393L33.6001 76.8392ZM28.4 76.1392L29.6001 76.2393L29.9 74.1392L28.4 76.1392Z" fill="#050505"/>
<path d="M18.5 71.2392L18.6001 70.4392C18.6667 70.1725 18.7 69.9392 18.7 69.7392C18.7667 69.5392 18.9001 69.2392 19.1001 68.8392C19.2334 68.5059 19.4334 68.2059 19.7 67.9392C19.9667 67.6725 20.3667 67.4392 20.9 67.2392C21.4334 67.1059 22.0334 67.0725 22.7 67.1391C24.1 67.3391 25.1 68.0391 25.5 68.6391C25.7 68.9725 25.8667 69.3392 26 69.7392C26.0667 70.2059 26.1001 70.5392 26.1001 70.7392C26.1001 70.9392 26.0667 71.1725 26 71.4392V71.5392C25.9334 72.3392 25.5667 73.1392 24.9 73.9392C24.2334 74.6725 23.5 75.3059 22.7 75.8392L25.5 76.2392L25.1001 79.2392L17.8 78.2392L18.1001 75.6391C20.2001 74.2391 21.6 73.1392 22.2 72.4392C22.4667 72.1059 22.6334 71.8391 22.7 71.6391C22.7667 71.4391 22.8334 71.2725 22.9 71.1391C22.9 70.7391 22.9 70.5392 22.8 70.3392C22.7334 70.2059 22.6 70.1391 22.4 70.1391C21.9 70.0391 21.8 70.3392 21.7 70.9392L21.6001 71.6391L18.5 71.2392Z" fill="#FEFEFE"/>
<path fill-rule="evenodd" clip-rule="evenodd" d="M35.3 75.6392L34.9 78.5392L33.7 78.3392L33.5 80.3392L30.3 79.9392L30.6 77.9392L26.5 77.3392L26.8 74.6392L31.6 68.5392L35 69.0392L34.1 75.4392L35.3 75.6392ZM30.1 74.9392L31.3 75.0392L31.6 72.9392L30.1 74.9392Z" fill="#FEFEFE"/>
<path d="M76.4001 56.4392C76.0001 58.0392 74.4001 58.9392 72.8001 58.5392C71.3001 58.1392 70.4001 56.5392 70.8001 54.9392C71.2001 53.3392 72.8001 52.4392 74.4001 52.8392C75.9001 53.3392 76.8001 54.9392 76.4001 56.4392Z" fill="#050505"/>
<path d="M51.3 50.1392C50.9 51.6392 49.4 52.4392 47.9 52.0392C46.5 51.6392 45.6 50.1393 46 48.7393C46.4 47.2393 47.9 46.4393 49.3 46.8393C50.8 47.2393 51.6 48.7392 51.3 50.1392Z" fill="#050505"/>
<path d="M83.0001 55.1391C82.4001 57.2391 80.3001 58.5392 78.2001 57.9392C76.1001 57.3392 74.8001 55.2391 75.4001 53.1391C76.0001 51.0391 78.1001 49.8392 80.2001 50.3392C82.3001 50.9392 83.6001 53.0391 83.0001 55.1391Z" fill="#050505"/>
<path d="M48.6001 44.2393C48.8001 46.5393 47.3001 48.6393 45.2001 48.8393C43.1001 49.0393 41.2001 47.3393 41.0001 44.9393C40.8001 42.6393 42.3 40.5393 44.4 40.3393C46.5 40.1393 48.4001 41.9393 48.6001 44.2393Z" fill="#050505"/>
<path d="M85.5 44.6392C82.9 54.3392 71.6 59.6392 60.2 56.6392C48.8 53.5392 41.6 43.2392 44.2 33.5392C46.9 23.9392 58.2 18.5392 69.6 21.6392C81 24.7392 88.1 35.0392 85.5 44.6392Z" fill="#050505"/>
<path d="M47.4 47.8392C46.5 48.4392 46.4 49.7392 47 50.6392C47.7 51.4392 49 51.6392 49.8 50.9392" stroke="#3F1D13" stroke-width="0.5"/>
<path d="M44.2001 41.5392C42.6001 42.0392 41.6001 43.7392 42.1001 45.4392C42.5001 47.1392 44.3001 48.0392 45.9001 47.6392" stroke="#3F1D13" stroke-width="0.5"/>
<path d="M79.1001 50.9392C77.4001 51.3392 76.4001 53.0392 76.9001 54.6392C77.3001 56.1392 79.0001 57.0392 80.7001 56.6392" stroke="#3F1D13" stroke-width="0.5"/>
<path d="M72.4 57.3392C73.5 57.9392 74.7 57.5392 75.3 56.4392" stroke="#3F1D13" stroke-width="0.5"/>
<path d="M63.1001 82.9392C63.1001 82.9392 62.5001 77.5392 62.5001 76.0392C62.5001 74.2392 61.3001 73.4392 60.0001 73.4392C58.8001 73.4392 57.8 74.2392 57.8 76.1392C57.8 78.1392 58.3 83.0392 58.3 83.0392C58.3 86.0392 63.4001 85.9392 63.1001 82.9392Z" fill="#803531" stroke="#050505" stroke-width="0.4" stroke-linecap="round" stroke-linejoin="round"/>
<path opacity="0.4" d="M59.5001 82.8392C59.8001 84.4392 62.3001 85.2393 60.9001 85.2393C59.6001 85.1393 58.3 84.4392 58.3 83.0392C58.3 83.0392 57.8 78.1392 57.8 76.1392C57.8 74.2392 58.8001 73.4392 60.0001 73.4392C61.3001 73.4392 62.5001 74.2392 62.5001 76.0392C62.5001 77.5392 59.4001 76.9392 59.4001 78.3392C59.4001 78.9392 59.3001 81.7392 59.5001 82.8392Z" fill="#050505"/>
<path d="M63.0001 84.2393C63.0001 84.8393 63.1001 86.0392 64.5001 87.1392L57.6001 85.2393L58.3001 83.0392" fill="#803531"/>
<path d="M63.0001 84.2393C63.0001 84.8393 63.1001 86.0392 64.5001 87.1392L57.6001 85.2393L58.3001 83.0392" stroke="#050505" stroke-width="0.4" stroke-linecap="round" stroke-linejoin="round"/>
<path opacity="0.4" d="M59.5001 83.3392C59.4001 84.2392 59.1001 84.9392 60.6001 86.0392L57.6001 85.2393L58.3001 83.0392" fill="#050505"/>
<path d="M57.1001 85.0392C57.1001 85.1392 57.1001 85.2393 57.2001 85.2393L64.8001 87.2393C64.8001 87.3393 64.9001 87.2392 64.9001 87.1392L65.0001 86.8392C65.1001 86.7392 65.0001 86.6392 64.9001 86.6392L57.4001 84.5392C57.3001 84.5392 57.2001 84.6393 57.2001 84.7393L57.1001 85.0392Z" fill="#EE4963" stroke="#050505" stroke-width="0.4" stroke-linecap="round" stroke-linejoin="round"/>
<path d="M61.7001 82.4392C61.7001 82.4392 62.0001 81.5392 62.6001 81.7392C63.0001 81.8392 63.8001 82.0391 64.0001 82.1391C64.5001 82.2391 63.9001 82.7392 63.8001 82.9392C63.6001 83.2392 63.3001 83.7391 63.5001 84.1391L63.9001 85.4392L62.9001 85.5391L61.5001 83.6391L61.7001 82.4392Z" fill="#EE4963" stroke="#050505" stroke-width="0.4" stroke-linecap="round" stroke-linejoin="round"/>
<path d="M57.4001 84.5392C57.4001 84.5392 57.7001 83.2393 57.8001 82.8393C58.0001 82.4393 58.2002 82.3393 58.6002 82.4393C59.1002 82.5393 59.3001 82.9393 60.3001 82.8393C61.2001 82.6393 61.3002 82.5393 61.7002 82.4393C62.1002 82.3393 62.1002 82.6392 62.1002 83.0392V83.8393L63.2002 85.5392L63.0002 86.1392L57.4001 84.5392Z" fill="#F69226" stroke="#050505" stroke-width="0.4" stroke-linecap="round" stroke-linejoin="round"/>
<path d="M64.9001 86.6392C65.0001 86.3392 64.3001 85.5393 63.9001 85.4393C63.1001 85.1393 62.3 85.9393 62.3 85.9393L64.9001 86.6392Z" fill="#FEFEFE" stroke="#050505" stroke-width="0.4" stroke-linecap="round" stroke-linejoin="round"/>
<path d="M61.7001 83.8392C62.2001 83.5392 63.3001 83.6392 63.6001 83.9392" stroke="#050505" stroke-width="0.4" stroke-linecap="round" stroke-linejoin="round"/>
<path d="M62.1001 84.4392C62.6001 84.0392 63.5001 84.2392 63.8001 84.4392" stroke="#050505" stroke-width="0.4" stroke-linecap="round" stroke-linejoin="round"/>
<path d="M62.5001 85.0392C63.0001 84.6392 63.7001 84.8392 64.0001 85.0392" stroke="#050505" stroke-width="0.4" stroke-linecap="round" stroke-linejoin="round"/>
<path d="M60.0001 83.6392C60.6001 83.8392 60.9001 83.9392 61.2001 84.4392L62.3001 85.9392L61.3001 85.6392L60.7001 84.7393C60.5668 84.5393 60.3001 84.3726 59.9001 84.2393C59.7001 84.1393 57.6001 83.6392 57.6001 83.6392L57.8001 83.0392C57.8001 83.0392 59.8001 83.5392 60.0001 83.6392Z" fill="#EE4963" stroke="#050505" stroke-width="0.4" stroke-linecap="round" stroke-linejoin="round"/>
<path d="M44.6001 77.9392C44.6001 77.9392 47.8001 73.6392 48.6001 72.3392C49.5001 70.7392 51.0001 70.6392 52.1001 71.3392C53.1001 71.9392 53.6001 73.0393 52.6001 74.7393C51.6001 76.4393 48.7001 80.4392 48.7001 80.4392C47.2001 83.0392 42.8001 80.4392 44.6001 77.9392Z" fill="#803531" stroke="#050505" stroke-width="0.4" stroke-linecap="round" stroke-linejoin="round"/>
<path opacity="0.4" d="M47.7001 79.7393C46.7001 80.9393 44.2001 80.3392 45.4001 81.0392C46.5001 81.6392 48.0001 81.7392 48.7001 80.4392C48.7001 80.4392 51.6001 76.4393 52.6001 74.7393C53.6001 73.0393 53.1001 71.9392 52.1001 71.3392C51.0001 70.6392 49.5001 70.7392 48.6001 72.3392C47.8001 73.6392 50.8001 74.6392 50.1001 75.8392C49.8001 76.3392 48.5001 78.7393 47.7001 79.7393Z" fill="#050505"/>
<path d="M44.1001 79.1392C43.7001 79.6392 43.1 80.6392 41.3 80.8392L48.2001 82.7393L48.7001 80.4392" fill="#803531"/>
<path d="M44.1001 79.1392C43.7001 79.6392 43.1 80.6392 41.3 80.8392L48.2001 82.7393L48.7001 80.4392" stroke="#050505" stroke-width="0.4" stroke-linecap="round" stroke-linejoin="round"/>
<path opacity="0.4" d="M47.5001 80.0392C47.2001 81.0392 47.0001 81.7392 45.2001 81.9392L48.2001 82.7393L48.7001 80.4392" fill="#050505"/>
<path d="M48.7 82.8392L48.6 82.9392L41 80.8392C40.9 80.8392 40.9 80.7393 40.9 80.7393L41 80.3392C41 80.2392 41.1 80.2393 41.2 80.2393L48.7 82.2393C48.8 82.2393 48.9 82.3392 48.8 82.4392L48.7 82.8392Z" fill="#EE4963" stroke="#050505" stroke-width="0.4" stroke-linecap="round" stroke-linejoin="round"/>
<path d="M46.1001 78.2392C46.1001 78.2392 46.3001 77.3391 45.6001 77.1391C45.3001 77.0391 44.5001 76.8392 44.3001 76.8392C43.8001 76.6392 44.0001 77.3391 44.0001 77.6391C44.1001 77.9391 44.0001 78.5392 43.7001 78.8392L42.6001 79.6391L43.4001 80.3392L45.7001 79.3392L46.1001 78.2392Z" fill="#EE4963" stroke="#050505" stroke-width="0.4" stroke-linecap="round" stroke-linejoin="round"/>
<path d="M48.7001 82.2393C48.7001 82.2393 49.1001 80.8392 49.2001 80.5392C49.3001 80.1392 49.1001 79.8393 48.7001 79.7393C48.3001 79.6393 47.9001 79.8393 47.1001 79.2393C46.4001 78.7393 46.4001 78.4393 46.1001 78.2393C45.7001 77.9393 45.6001 78.1392 45.4001 78.5392L45.0001 79.2393L43.2001 80.1392L43.1001 80.7393L48.7001 82.2393Z" fill="#F69226" stroke="#050505" stroke-width="0.4" stroke-linecap="round" stroke-linejoin="round"/>
<path d="M41.2001 80.2393C41.2001 79.9393 42.3001 79.6392 42.6001 79.6392C43.5001 79.9392 43.8001 80.9392 43.8001 80.9392L41.2001 80.2393Z" fill="#FEFEFE" stroke="#050505" stroke-width="0.4" stroke-linecap="round" stroke-linejoin="round"/>
<path d="M45.4001 79.4392C45.1001 78.9392 44.1001 78.5392 43.7001 78.5392" stroke="#050505" stroke-width="0.4" stroke-linecap="round" stroke-linejoin="round"/>
<path d="M44.7001 79.7393C44.5001 79.2393 43.6001 78.9392 43.2001 78.9392" stroke="#050505" stroke-width="0.4" stroke-linecap="round" stroke-linejoin="round"/>
<path d="M44.1001 80.0392C43.8001 79.5392 43.1 79.2392 42.8 79.3392" stroke="#050505" stroke-width="0.4" stroke-linecap="round" stroke-linejoin="round"/>
<path d="M46.9001 80.1391C46.3001 79.9391 46.0001 79.9391 45.5001 80.1391L43.8 80.9392L44.8 81.2392L45.8 80.6391C46 80.5725 46.3001 80.6059 46.7001 80.7392C47.0001 80.7392 49.0001 81.3392 49.0001 81.3392L49.2001 80.7392C49.2001 80.7392 47.1001 80.1391 46.9001 80.1391Z" fill="#EE4963" stroke="#050505" stroke-width="0.4" stroke-linecap="round" stroke-linejoin="round"/>
<path d="M78.9001 58.5391C75.6001 61.2391 72.0001 62.5392 68.4001 63.3392C64.7001 64.2392 63.5001 59.0392 67.2001 58.2392C70.9001 57.5392 72.4001 56.9391 75.5001 54.6391C76.2001 54.1391 77.8001 53.9392 78.9001 55.4392C79.9001 56.7392 79.5001 58.0391 78.9001 58.5391Z" fill="#803531" stroke="#050505" stroke-width="0.4" stroke-linecap="round" stroke-linejoin="round"/>
<path opacity="0.4" d="M78.9001 58.5392C75.6001 61.2392 72.0001 62.5392 68.4001 63.3392C64.7001 64.2392 63.5001 59.0393 67.2001 58.2393C68.6001 57.9393 69.7001 61.5393 71.2001 61.2393C73.4001 60.8393 76.4001 59.2392 78.3001 57.8392C79.0001 57.3392 79.4001 56.4392 78.9001 55.4392C79.9001 56.7392 79.5001 58.0392 78.9001 58.5392Z" fill="#050505"/>
<g style="mix-blend-mode:multiply" opacity="0.2">
<path d="M73.2001 57.1392C73.2001 57.1392 73.8001 57.9392 73.1001 58.5392C73.1001 58.5392 73.8001 58.7392 73.9001 59.5392C74.0001 60.3392 73.4001 60.4392 73.4001 60.4392C73.4001 60.4392 74.0001 60.5392 74.2001 60.8392C74.2001 60.8392 74.6001 60.9393 75.7001 60.7393C76.9001 60.5393 77.0001 60.0392 77.0001 60.0392C77.0001 60.0392 77.3001 61.0392 78.0001 61.1392L77.6001 61.5392L72.5001 62.4392L71.5001 57.1392H73.2001Z" fill="#050505"/>
</g>
<path d="M75.9001 57.6392C76.7001 58.6392 78.0001 58.8393 78.8001 58.2393C79.7001 57.5393 79.7001 56.2393 78.9001 55.2393C78.1001 54.2393 76.8001 53.9392 76.0001 54.6392C75.1001 55.2392 75.1001 56.6392 75.9001 57.6392Z" fill="#803531"/>
<path d="M75.4 54.7393C76.2 54.1393 77.9 52.6392 78.7 52.1392C79.8 51.7392 80.6 52.3393 81.4 53.3393C82.2 54.5393 82.5 55.8393 81.3 56.7393L80.2 57.5392L78.9 58.5392" fill="#803531"/>
<path d="M75.4 54.7393C76.2 54.1393 77.9 52.6392 78.7 52.1392C79.8 51.7392 80.6 52.3393 81.4 53.3393C82.2 54.5393 82.5 55.8393 81.3 56.7393L80.2 57.5392L78.9 58.5392" stroke="#050505" stroke-width="0.4" stroke-linecap="round" stroke-linejoin="round"/>
<path d="M76.1001 54.4392L76.4001 53.2392C76.6001 52.7392 77.1001 52.4392 77.5001 52.5392C77.9001 52.6392 78.1001 53.0392 78.1001 53.2392C78.2001 53.7392 78.1001 53.9392 78.1001 53.9392" fill="#803531"/>
<path d="M76.1001 54.4392L76.4001 53.2392C76.6001 52.7392 77.1001 52.4392 77.5001 52.5392C77.9001 52.6392 78.1001 53.0392 78.1001 53.2392C78.2001 53.7392 78.1001 53.9392 78.1001 53.9392" stroke="#050505" stroke-width="0.4" stroke-linecap="round" stroke-linejoin="round"/>
<g style="mix-blend-mode:multiply" opacity="0.2">
<path d="M78.3 53.2393C78.3 53.2393 78.6 53.6392 78.5 54.1392C78.4 54.5392 78.3 54.8392 78.5 55.1392C78.6 55.3392 79.4 56.4392 79.7 56.4392C80.1 56.4392 81.8 55.6393 81.4 54.7393C81.1 53.7393 79.9 52.1392 79 52.4392C78 52.8392 78.3 53.2393 78.3 53.2393Z" fill="#050505"/>
</g>
<path d="M42.9 48.8392C44.4 52.8392 46.9 55.7392 49.7 58.3392C52.4 60.8392 56 56.9392 53.2 54.4392C50.4 51.9392 49.3 50.7392 47.9 47.2392C47.6 46.4392 46.3 45.4391 44.6 46.1391C43 46.8391 42.7 48.1392 42.9 48.8392Z" fill="#803531" stroke="#050505" stroke-width="0.4" stroke-linecap="round" stroke-linejoin="round"/>
<path opacity="0.4" d="M42.9 48.8392C44.4 52.8392 46.9 55.7392 49.7 58.3392C52.4 60.8392 56 56.9392 53.2 54.4392C52.1 53.5392 49.4 56.1392 48.3 55.1392C46.6 53.6392 44.7 50.7392 43.8 48.5392C43.5 47.7392 43.6 46.7392 44.6 46.1392C43 46.8392 42.7 48.1392 42.9 48.8392Z" fill="#050505"/>
<g style="mix-blend-mode:multiply" opacity="0.2">
<path d="M48.6 50.4392C48.6 50.4392 47.7 50.9393 48 51.7393C48 51.7393 47.3 51.5393 46.8 52.2393C46.3 52.9393 46.8 53.3392 46.8 53.3392C46.8 53.3392 46.2 53.0393 45.9 53.2393C45.9 53.2393 45.5 53.1392 44.6 52.3392C43.7 51.6392 43.8 51.1392 43.8 51.1392C43.8 51.1392 43 51.8392 42.4 51.5392L42.5 52.1392L46.5 55.4392L50.1 51.3392L48.6 50.4392Z" fill="#050505"/>
</g>
<path d="M46 49.5391C44.9 50.0391 43.6 49.6391 43.2 48.6391C42.8 47.6391 43.5 46.4392 44.6 45.9392C45.8 45.5392 47.1 45.9392 47.5 46.9392C47.9 47.9392 47.2 49.1391 46 49.5391Z" fill="#803531"/>
<path d="M47.9 47.3392C47.6 46.4392 46.8 44.2392 46.4 43.4392C45.6 42.5392 44.6 42.6392 43.5 43.1392C42.1 43.7392 41.3 44.7392 41.8 46.1392L42.3 47.3392L42.9 48.8392" fill="#803531"/>
<path d="M47.9 47.3392C47.6 46.4392 46.8 44.2392 46.4 43.4392C45.6 42.5392 44.6 42.6392 43.5 43.1392C42.1 43.7392 41.3 44.7392 41.8 46.1392L42.3 47.3392L42.9 48.8392" stroke="#050505" stroke-width="0.4" stroke-linecap="round" stroke-linejoin="round"/>
<g style="mix-blend-mode:multiply" opacity="0.2">
<path d="M46.2001 44.6391C46.2001 44.6391 45.7 44.7392 45.5 45.2392C45.4 45.6392 45.3 46.0391 45.1 46.1391C44.8 46.2391 43.6 46.8391 43.3 46.6391C43 46.4391 42.0001 44.9392 42.7001 44.2392C43.5001 43.6392 45.3 42.8391 46 43.5391C46.6 44.3391 46.2001 44.6391 46.2001 44.6391Z" fill="#050505"/>
</g>
<path d="M55.8 73.4392C47.8 71.2392 47.9 69.6393 48.4 66.2393C48.7 63.5393 51.6 56.9392 52.7 55.0392C54.5 51.7392 57.6 51.1393 61.5 52.2393C65.4 53.2393 67.7 55.3392 67.7 59.0392C67.6 61.2392 66.8 68.4393 65.8 70.8393C64.5 74.0393 63.7 75.5392 55.8 73.4392Z" fill="#F69226" stroke="#050505" stroke-width="0.4" stroke-linecap="round" stroke-linejoin="round"/>
<path d="M53.5 61.4392C53.4 58.7392 53.3 55.3392 54.9 51.9392L56.8 52.8392C55.3 55.9392 55.5001 58.9392 55.6001 61.4392H53.5Z" fill="#EE4963" stroke="#050505" stroke-width="0.4" stroke-linecap="round" stroke-linejoin="round"/>
<path d="M55.7001 73.5392L53.6001 76.3392C47.8001 73.4392 46.2001 71.5392 46.2001 71.5392C46.2001 71.5392 47.1001 68.6392 48.1001 66.0392C48.5001 66.4392 50.2001 67.1392 50.2001 67.1392L54.0001 61.1392C54.0001 61.1392 56.6001 62.5392 58.5001 63.0392C60.5001 63.5392 63.4001 63.6392 63.4001 63.6392L63.7001 70.8392C63.7001 70.8392 65.6001 71.0392 66.1001 70.9392C65.6001 73.6392 64.9001 76.8392 64.9001 76.8392C64.9001 76.8392 62.5001 77.5392 56.1001 76.8392L55.7001 73.5392Z" fill="#EE4763" stroke="#050505" stroke-width="0.4" stroke-linecap="round" stroke-linejoin="round"/>
<path opacity="0.4" d="M55.7 73.5391L53.6 76.3392C53.2 76.1392 52.8333 75.9725 52.5 75.8392C52.5 75.8392 54.9 72.6392 55.9 72.9392C56.9 73.2392 57.3 76.9392 57.3 76.9392C56.9667 76.9392 56.5667 76.9059 56.1 76.8392L55.7 73.5391Z" fill="#050505"/>
<path opacity="0.4" d="M66.1001 70.9392C65.6001 73.6392 64.9001 76.8392 64.9001 76.8392C64.9001 76.8392 64.3001 77.0392 62.7001 77.1392C63.5001 76.3392 64.5001 74.7392 64.9001 70.8392L66.1001 70.9392Z" fill="#050505"/>
<path d="M64.6001 76.0392C64.6001 76.0392 62.2001 76.4392 56.2001 76.0392" stroke="#6ECFF5" stroke-width="0.4" stroke-linecap="round" stroke-linejoin="round" stroke-dasharray="0.8 0.8"/>
<path opacity="0.4" d="M48.1001 66.0392C47.1001 68.6392 46.2001 71.5392 46.2001 71.5392C46.2001 71.5392 46.6001 72.0392 47.9001 73.0392C47.6001 71.9392 47.5001 70.1392 49.1001 66.5392L48.1001 66.0392Z" fill="#050505"/>
<path d="M46.9 71.0392C46.9 71.0392 48.7 72.7392 54 75.6392" stroke="#6ECFF5" stroke-width="0.4" stroke-linecap="round" stroke-linejoin="round" stroke-dasharray="0.8 0.8"/>
<path d="M56.0001 53.6392C55.3001 56.2392 56.8001 59.0393 59.4001 59.7393C62.1001 60.4393 64.8001 58.8393 65.5001 56.2393C66.2001 53.6393 64.7001 50.8392 62.0001 50.1392C59.4001 49.4392 56.7001 51.0392 56.0001 53.6392Z" fill="#803531" stroke="#050505" stroke-width="0.4" stroke-linecap="round" stroke-linejoin="round"/>
<path d="M63.7 64.2393C65.2 61.9393 66.9 59.0393 67.2 55.2393L65.2 55.1392C64.9 58.5392 63.3 61.0392 62 63.1392L63.7 64.2393Z" fill="#EE4963" stroke="#050505" stroke-width="0.4" stroke-linecap="round" stroke-linejoin="round"/>
<path d="M64.1001 64.0392C63.9001 64.7392 63.2001 65.1392 62.5001 64.9392C61.8001 64.7392 61.4001 64.0392 61.6001 63.3392C61.7001 62.6392 62.5001 62.2392 63.2001 62.4392C63.9001 62.6392 64.3001 63.3392 64.1001 64.0392Z" fill="#6ECFF5" stroke="#050505" stroke-width="0.4" stroke-linecap="round" stroke-linejoin="round"/>
<path d="M53.3 61.1391C53.1 61.8391 53.5 62.5392 54.2 62.7392C54.9 62.9392 55.6 62.4392 55.8 61.7392C56 61.0392 55.6 60.3391 54.9 60.1391C54.2 60.0391 53.5 60.4391 53.3 61.1391Z" fill="#6ECFF5" stroke="#050505" stroke-width="0.4" stroke-linecap="round" stroke-linejoin="round"/>
<path opacity="0.4" d="M53.4 62.1392C53.8 62.7392 54.6001 62.9392 55.2001 62.5392C55.2001 62.5392 54.2 62.4392 53.9 61.8392C53.5 61.2392 53.9 60.3392 53.9 60.3392C53.2 60.6392 53 61.4392 53.4 62.1392Z" fill="#050505"/>
<path opacity="0.4" d="M63.5001 64.8392C62.9001 65.1392 62.1001 64.9392 61.7001 64.3392C61.7001 64.3392 62.6001 64.7392 63.2001 64.3392C63.8001 63.9392 64.0001 63.0392 64.0001 63.0392C64.3001 63.6392 64.1001 64.4392 63.5001 64.8392Z" fill="#050505"/>
<path d="M62.2001 70.7393H62.6001L62.5001 70.3392" stroke="#6ECFF5" stroke-width="0.4" stroke-linecap="round" stroke-linejoin="round"/>
<path d="M62.5 69.5392L62.4 66.4392" stroke="#6ECFF5" stroke-width="0.4" stroke-linecap="round" stroke-linejoin="round" stroke-dasharray="0.8 0.8"/>
<path d="M62.4 66.0392L62.3 65.6392L62 65.5392" stroke="#6ECFF5" stroke-width="0.4" stroke-linecap="round" stroke-linejoin="round"/>
<path d="M61.3 65.3392L58.2001 64.5392L54.7001 63.5392" stroke="#6ECFF5" stroke-width="0.4" stroke-linecap="round" stroke-linejoin="round" stroke-dasharray="0.8 0.8"/>
<path d="M54.3 63.4392L54.0001 63.3392L53.8 63.7393" stroke="#6ECFF5" stroke-width="0.4" stroke-linecap="round" stroke-linejoin="round"/>
<path d="M53.3001 64.4392L51.6001 67.0392" stroke="#6ECFF5" stroke-width="0.4" stroke-linecap="round" stroke-linejoin="round" stroke-dasharray="0.8 0.8"/>
<path d="M51.4001 67.3392L51.2001 67.6392L51.5001 67.8392" stroke="#6ECFF5" stroke-width="0.4" stroke-linecap="round" stroke-linejoin="round"/>
<path d="M52.2001 68.3392L56.4001 71.1392L61.8 70.7393" stroke="#6ECFF5" stroke-width="0.4" stroke-linecap="round" stroke-linejoin="round" stroke-dasharray="0.8 0.8"/>
<path opacity="0.4" d="M59.6 58.9392C57.4 58.3392 56.3 57.5392 55 56.4392C54 55.6392 53.2 56.0392 52.5 57.4392C51.7 59.2392 48.9 65.6392 49.7 66.1392C50.2 66.3392 52.7 62.1392 53.4 62.1392L50.2 67.1392L48.4 66.2393C48.7 63.5393 51.6 56.9392 52.7 55.0392C54.5 51.7392 57.6 51.1393 61.5 52.2393C65.4 53.2393 67.7 55.3392 67.7 59.0392C67.6 61.2392 66.8 68.4393 65.8 70.8393H63.7L63.5 64.8393C64 65.2393 64.1 70.0392 64.6 70.1392C65.6 70.1392 66.4 63.1393 66.6 61.2393C66.7 59.6393 66.2 58.8392 64.9 59.1392C63.3 59.4392 61.9 59.5392 59.6 58.9392Z" fill="#050505"/>
<path d="M49.3 38.8392C47.1 47.1392 49.7 54.5392 59.9 57.7392C69.9 60.9392 76.3 54.9392 78.5 46.7392C80.7 38.5392 76 30.1392 67.9 27.9392C59.8 25.7392 51.5 30.6392 49.3 38.8392Z" fill="#803531" stroke="#050505" stroke-width="0.4" stroke-linecap="round" stroke-linejoin="round"/>
<path opacity="0.4" d="M52 39.4392L52.1 40.6392C52.1 40.6392 46.7 53.0392 60.7 58.0392C60.8 58.0392 60.6 57.7392 59.9 57.8392C59.9 57.7726 59.9 57.7393 59.9 57.7393C49.7 54.5393 47.1 47.1392 49.3 38.8392C49.9 36.6392 50.9 34.7392 52.3 33.0392C52.5 34.6392 52 39.4392 52 39.4392Z" fill="#050505"/>
<path d="M65.2001 48.4392C65.2001 48.4392 67.2001 44.5392 72.1001 47.4392C72.1001 47.4392 71.2 50.6392 68.3 50.2392C65.5 49.8392 65.2001 48.4392 65.2001 48.4392Z" fill="#FEFEFE"/>
<path d="M59.4 47.2393C59.4 47.2393 59.9 42.8392 54.2 42.5392C54.2 42.5392 53.1 45.7392 55.8 46.9392C58.4 48.1392 59.4 47.2393 59.4 47.2393Z" fill="#FEFEFE"/>
<path d="M60 48.8392C60 48.8392 60.3 50.2392 61.6 50.5392C62.9 50.9392 64.1 49.7393 64.1 49.7393C64.1 49.7393 62.5 50.0392 61.8 49.9392C61.2 49.7392 60 48.8392 60 48.8392Z" fill="#050505"/>
<path d="M81.3 26.9392C80.8 29.0392 78.5 30.2391 76.2 29.6391C74 29.0391 72.6 26.8392 73.2 24.7392C73.8 22.6392 76.1 21.3391 78.3 22.0391C80.5 22.6391 81.9 24.8392 81.3 26.9392Z" fill="#050505"/>
<path d="M62.7 22.0392C62.2 23.7392 60.5 24.7393 58.8 24.2393C57 23.7393 56 22.0393 56.5 20.3393C57 18.5393 58.8 17.5392 60.5 18.0392C62.2 18.5392 63.2 20.3392 62.7 22.0392Z" fill="#050505"/>
<path d="M86.5 32.5392C85.8 35.1392 83.1 36.7392 80.5 36.0392C77.9 35.3392 76.3 32.6392 77 30.0392C77.7 27.4392 80.4 25.8392 83 26.5392C85.6 27.2392 87.2 29.9392 86.5 32.5392Z" fill="#050505"/>
<path d="M52.2 28.6392C51.5 31.2392 48.8 32.8392 46.1 32.1392C43.5 31.3392 41.9 28.6392 42.6 26.0392C43.3 23.3392 46.1 21.8392 48.7 22.5392C51.3 23.2392 52.9 25.9392 52.2 28.6392Z" fill="#050505"/>
<path d="M75 24.4393C74.1 27.7393 70.2 29.5393 66.4 28.4393C62.5 27.4393 60.1 23.9392 61 20.6392C61.9 17.4392 65.7 15.6392 69.6 16.6392C73.4 17.7392 75.8 21.1393 75 24.4393Z" fill="#050505"/>
<path d="M58.6001 24.1392C57.9001 26.7392 55.2001 28.3392 52.6001 27.6392C50.0001 26.9392 48.5001 24.2392 49.2001 21.6392C49.9001 19.0392 52.6001 17.5393 55.1001 18.2393C57.7001 18.9393 59.3001 21.5392 58.6001 24.1392Z" fill="#050505"/>
<path d="M49.6 36.8392C48.9 39.6392 46.1 41.4391 43.4 40.6391C40.7 39.9391 39.2 37.0391 40 34.1391C40.7 31.3391 43.5 29.5392 46.2 30.3392C48.9 31.0392 50.4 33.9392 49.6 36.8392Z" fill="#050505"/>
<path d="M88.9 48.4392C88.1 51.3392 85.3 53.1392 82.6 52.4392C79.9 51.7392 78.4 48.7393 79.2 45.8393C80 42.8393 82.8 41.0393 85.5 41.7393C88.1 42.4393 89.7 45.4392 88.9 48.4392Z" fill="#050505"/>
<path d="M89.3 38.9392C88.6 41.3392 86.1 42.8392 83.7 42.1392C81.2 41.4392 79.8 38.9392 80.5 36.5392C81.1 34.0392 83.6 32.6392 86.1 33.3392C88.5 33.9392 90 36.4392 89.3 38.9392Z" fill="#050505"/>
<path d="M68.7 35.5392C68.2 37.5392 66.2 38.6392 64.2 38.1392C62.3 37.6392 61.1 35.6392 61.6 33.6392C62.2 31.7392 64.2 30.5392 66.1 31.1392C68.1 31.6392 69.2 33.6392 68.7 35.5392Z" fill="#050505"/>
<path d="M75.3 37.7393C74.8 39.7393 72.7001 40.9393 70.7001 40.3393C68.7001 39.8393 67.5001 37.8393 68.1001 35.8393C68.6001 33.8393 70.7001 32.6392 72.7001 33.1392C74.7001 33.6392 75.9 35.7393 75.3 37.7393Z" fill="#050505"/>
<path d="M79.9999 41.9392C79.4999 43.9392 77.3999 45.1391 75.3999 44.5391C73.3999 44.0391 72.2999 41.9392 72.7999 39.9392C73.2999 37.9392 75.3999 36.7392 77.3999 37.3392C79.3999 37.8392 80.5999 39.9392 79.9999 41.9392Z" fill="#050505"/>
<path d="M81.1 47.2393C80.7 48.8393 79.1 49.7393 77.6 49.3393C76 48.9393 75.1 47.3393 75.5 45.7393C75.9 44.2393 77.5 43.2393 79.1 43.7393C80.6 44.1393 81.6 45.7393 81.1 47.2393Z" fill="#050505"/>
<path d="M52.7 39.2393C52.2 40.7393 50.6 41.7393 49.1 41.2393C47.5 40.8393 46.6 39.2393 47 37.7393C47.4 36.1393 49 35.2392 50.6 35.6392C52.2 36.0392 53.1 37.6393 52.7 39.2393Z" fill="#050505"/>
<path d="M56.6 36.6392C56.3 37.9392 55 38.6393 53.7 38.3393C52.5 38.0393 51.7 36.7393 52.1 35.4393C52.4 34.2393 53.7 33.4393 55 33.8393C56.2 34.1393 57 35.4392 56.6 36.6392Z" fill="#050505"/>
<path d="M62.4999 34.7393C61.9999 36.5393 60.0999 37.5392 58.2999 37.1392C56.4999 36.6392 55.3999 34.7392 55.8999 32.9392C56.3999 31.1392 58.2999 30.0392 60.0999 30.5392C61.8999 31.0392 62.8999 32.9393 62.4999 34.7393Z" fill="#050505"/>
<path d="M49.2 40.2393L57.2 34.5392L63.9 34.8392L70.5 37.2393L74.3 41.4392L77 44.2393L78.1 47.4392L82.3 45.5392L85.3 38.3392L78.4 27.3392L69.2 23.7393L58.8 21.7393L49.2 27.1392L44.5 34.9392L49.2 40.2393Z" fill="#050505"/>
<path d="M52.7 36.2393C51.7 35.9393 51.2 34.8393 51.6 33.8393C51.9 32.8393 53.1 32.3392 54.1 32.6392C55.1 33.0392 55.6 34.1392 55.2 35.1392" stroke="#3F1D13" stroke-width="0.5"/>
<path d="M78.0001 48.2392C79.0001 48.5392 80.1001 48.0392 80.4001 46.9392C80.8001 45.9392 80.2001 44.9392 79.2001 44.5392C78.1001 44.2392 77.0001 44.8392 76.7001 45.8392" stroke="#3F1D13" stroke-width="0.5"/>
<path d="M63.5 19.8393C64.3 18.6393 65.8 17.8393 67.5 17.7393C69.8 17.6393 71.8 18.9393 72.6 20.7393C72.7333 21.1393 72.8333 21.5725 72.9 22.0392" stroke="#3F1D13" stroke-width="0.5"/>
<path d="M70.3 25.3392C70.4 24.1392 69.5 23.0392 68.3 22.9392C67.8 22.8392 67.2 23.0392 66.8 23.4392" stroke="#3F1D13" stroke-width="0.4"/>
<path d="M54.2 19.4392C52.4 19.3392 50.8 20.6392 50.6 22.4392C50.4 24.3392 51.7 25.9392 53.5 26.1392" stroke="#3F1D13" stroke-width="0.5"/>
<path d="M59.0001 25.8393C60.7001 26.3393 62.6001 25.3392 63.1001 23.6392C63.6001 21.9392 62.6001 20.1392 60.9001 19.6392C59.1001 19.0392 57.3 20.0393 56.8 21.7393" stroke="#3F1D13" stroke-width="0.5"/>
<path d="M79.2 35.9392C79 33.7392 77 32.2392 74.7 32.4392C72.5 32.7392 70.9 34.7392 71.2 36.9392" stroke="#3F1D13" stroke-width="0.4"/>
<path d="M85.4 40.2392C86.8 40.1392 88 38.8392 87.9 37.4392C87.8 35.9392 86.5 34.7392 85 34.8392" stroke="#3F1D13" stroke-width="0.5"/>
<path d="M70.6001 28.9392C68.3001 27.2392 65.0001 27.6392 63.2001 29.9392" stroke="#3F1D13" stroke-width="0.4"/>
<path d="M85.6001 50.6392C87.5001 49.2392 88.0001 46.5392 86.6001 44.6392" stroke="#3F1D13" stroke-width="0.5"/>
<path d="M48.7001 40.1392C50.2001 40.3392 51.6001 39.3392 51.9001 37.8392" stroke="#3F1D13" stroke-width="0.4"/>
<path d="M74.2001 41.6392C74.2001 42.5392 75.0001 43.2393 75.9001 43.2393C76.8001 43.1393 77.5001 42.4392 77.4001 41.5392" stroke="#3F1D13" stroke-width="0.5"/>
<path d="M57.1 35.1392C58.6 36.0392 60.6 35.5392 61.4 34.0392C62.3 32.5392 61.8 30.5392 60.3 29.6392C58.8 28.8392 56.9 29.3393 56 30.8393" stroke="#3F1D13" stroke-width="0.5"/>
<path d="M84.1 38.5392C82.7 37.4392 80.7 37.6392 79.6 38.9392C78.5 40.3392 78.7 42.3392 80 43.4392C81.3 44.5392 83.3 44.3392 84.4 43.0392" stroke="#3F1D13" stroke-width="0.4"/>
<path d="M46.3001 32.3392C45.0001 32.8392 44.3001 34.4393 44.8001 35.7393C45.3001 37.1393 46.9001 37.8392 48.2001 37.3392C49.6001 36.7392 50.2001 35.2392 49.7001 33.8392" stroke="#3F1D13" stroke-width="0.4"/>
<path d="M80.9001 35.6392C83.1001 35.8392 85.1 34.1392 85.3 31.9392C85.5 29.6392 83.9001 27.6392 81.6001 27.4392C79.4001 27.2392 77.4001 28.8392 77.2001 31.1392" stroke="#3F1D13" stroke-width="0.5"/>
<path d="M70.0001 34.9392C68.9001 35.9392 68.9001 37.5392 69.8001 38.5392C70.8001 39.6392 72.4001 39.7393 73.5001 38.7393" stroke="#3F1D13" stroke-width="0.5"/>
<path d="M44.1 32.4392C42.2 32.5392 40.8 34.2392 41 36.1392C41.1 38.0392 42.8 39.4392 44.7 39.3392" stroke="#3F1D13" stroke-width="0.5"/>
<path d="M44.1 26.3393C43.6 28.1393 44.6 29.9392 46.4 30.4392C48.1 30.8392 50 29.8392 50.4 28.0392C50.9 26.2392 49.9 24.4392 48.1 23.9392C46.4 23.5392 44.5 24.5393 44.1 26.3393Z" stroke="#3F1D13" stroke-width="0.5"/>
<path d="M54.0001 27.5392C54.9001 28.2392 56.2001 28.1393 57.0001 27.2393C57.8001 26.3393 57.7 25.0393 56.8 24.2393C55.9 23.5393 54.6 23.6392 53.8 24.5392" stroke="#3F1D13" stroke-width="0.4"/>
<path d="M63.1001 34.1392C62.8001 35.2392 63.5001 36.4393 64.6001 36.7393" stroke="#3F1D13" stroke-width="0.4"/>
<path d="M67.3 35.2393C67.6 34.1393 66.9001 32.9392 65.7001 32.6392" stroke="#3F1D13" stroke-width="0.4"/>
<path d="M73.8001 25.6392C73.3001 27.4392 74.3001 29.2392 76.1001 29.6392C77.8001 30.1392 79.6001 29.1393 80.1001 27.3393C80.6001 25.5393 79.5001 23.7393 77.8001 23.3393C76.0001 22.8393 74.2001 23.8392 73.8001 25.6392Z" stroke="#3F1D13" stroke-width="0.5"/>
<path d="M69.9001 48.5392C69.8001 49.5392 68.9001 50.1392 68.0001 49.9392C67.0001 49.8392 66.4001 48.8392 66.6001 47.9392C66.8001 46.9392 67.7001 46.2392 68.6001 46.4392C69.5001 46.6392 70.1001 47.5392 69.9001 48.5392Z" fill="#855226"/>
<path d="M68.8001 48.3392C68.7001 48.6392 68.4001 48.8393 68.2001 48.7393C67.9001 48.6393 67.7001 48.3392 67.8001 48.0392C67.9001 47.7392 68.2001 47.5392 68.5001 47.6392C68.7001 47.7392 68.9001 48.0392 68.8001 48.3392Z" fill="#050505"/>
<path d="M68.0002 47.4392C68.0002 47.6392 67.8002 47.7393 67.6002 47.7393C67.5002 47.6393 67.4001 47.4392 67.4001 47.3392C67.5001 47.1392 67.7001 47.0392 67.8001 47.0392C68.0001 47.1392 68.1002 47.2392 68.0002 47.4392Z" fill="#FEFEFE"/>
<path d="M55.4001 44.6391C55.0001 45.5391 55.4001 46.6392 56.2001 46.9392C57.1001 47.3392 58.1001 46.9392 58.5001 45.9392C58.9001 45.0392 58.5001 44.0391 57.6001 43.6391C56.8001 43.3391 55.8001 43.7391 55.4001 44.6391Z" fill="#855226"/>
<path d="M56.4001 45.1392C56.3001 45.4392 56.5002 45.7393 56.7002 45.8393C57.0002 45.9393 57.3001 45.7392 57.4001 45.4392C57.5001 45.1392 57.4001 44.8393 57.1001 44.7393C56.8001 44.6393 56.5001 44.8392 56.4001 45.1392Z" fill="#050505"/>
<path d="M57.6001 44.8393C57.5001 45.0393 57.6001 45.2393 57.7001 45.2393C57.9001 45.3393 58.1001 45.2392 58.1001 45.0392C58.2001 44.8392 58.1001 44.6392 58.0001 44.6392C57.8001 44.5392 57.6001 44.6393 57.6001 44.8393Z" fill="#FEFEFE"/>
<path d="M53.4 40.6392L54.2 42.4392C54.2 42.4392 59.6 43.0393 59.4 47.2393" stroke="#050505" stroke-width="0.5" stroke-linecap="round" stroke-linejoin="round"/>
<path d="M54.8 41.0392L55.2001 42.5392L54.8 41.0392Z" fill="#BB8653"/>
<path d="M54.8 41.0392L55.2001 42.5392" stroke="#050505" stroke-width="0.5" stroke-linecap="round" stroke-linejoin="round"/>
<path d="M73.8 46.3392L72.1001 47.3392C72.1001 47.3392 67.3001 44.8392 65.2001 48.4392" stroke="#050505" stroke-width="0.5" stroke-linecap="round" stroke-linejoin="round"/>
<path d="M72.4001 45.8392L71.3 46.8392L72.4001 45.8392Z" fill="#BB8653"/>
<path d="M72.4001 45.8392L71.3 46.8392" stroke="#050505" stroke-width="0.5" stroke-linecap="round" stroke-linejoin="round"/>
<path d="M67.4 43.9393C67.4 43.9393 70.3 43.3392 71.5 46.1392" stroke="#050505" stroke-width="0.7" stroke-linecap="round" stroke-linejoin="round"/>
<path d="M60 42.2393C60 42.2393 57.9 40.1393 55.4 41.7393" stroke="#050505" stroke-width="0.7" stroke-linecap="round" stroke-linejoin="round"/>
<path d="M57.2999 51.7393C57.9999 50.8393 59.6 51.7392 60.5 52.1392C60.7 52.2392 61.1 52.4392 61.4 52.5392C61.6 52.5392 62.1 52.6392 62.4 52.6392C63.4 52.7392 65.1999 52.8392 65.2999 53.9392C65.4 55.1392 64.0999 57.0393 60.7999 56.3393C60.6666 56.3393 60.5333 56.3059 60.4 56.2393C60.2666 56.2393 60.1333 56.2058 60 56.1392C56.8 55.1392 56.5999 52.7393 57.2999 51.7393Z" fill="#050505"/>
<path d="M60.5001 2.13916L58.8001 1.63916L41.6001 52.7393L43.2001 53.1392L60.5001 2.13916Z" fill="#AB4B39"/>
<path d="M50.3001 32.4392L48.6001 31.8392L58.0001 4.23926L59.6001 4.83923L50.3001 32.4392Z" fill="#88391D"/>
<path d="M59.4001 5.53918L57.7001 4.93921L58.4001 2.93921L60.1001 3.53918L59.4001 5.53918Z" fill="#88391D"/>
<path fill-rule="evenodd" clip-rule="evenodd" d="M38.1001 27.1392L47.4001 0.239291C47.5001 0.0392908 47.7001 -0.0607825 47.8001 0.0392175L70.4001 7.73929C70.6001 7.83929 70.7001 8.03919 70.6001 8.13919L61.4001 35.0392C61.3001 35.2392 61.1001 35.3393 60.9001 35.2393L38.3001 27.6392C38.2001 27.5392 38.1001 27.3392 38.1001 27.1392ZM47.8001 0.939242L38.9001 26.8393C38.8001 27.0393 38.9001 27.2393 39.1001 27.3393L60.6001 34.5392C60.7001 34.6392 60.9001 34.5393 61.0001 34.3393L69.9001 8.53922C70.0001 8.33922 69.9001 8.13922 69.7001 8.03922L48.2001 0.739291C48.0001 0.639291 47.8001 0.739242 47.8001 0.939242Z" fill="#050505"/>
<path d="M38.8 27.2393L60.9 34.7393L70 8.13916L47.9 0.63916L38.8 27.2393Z" fill="#FEFEFE"/>
<path d="M62.2001 27.8392L68.8 8.73926L59.6001 5.63916L62.9001 15.6392L59.2001 14.0392L62.2001 27.8392Z" fill="#3D92CD"/>
<path d="M46.6001 7.43921L40.0001 26.5392L49.2001 29.6392L45.9001 19.6392L49.5001 21.2393L46.6001 7.43921Z" fill="#3D92CD"/>
<path d="M47.2002 45.4392L46.2002 44.6392C45.8002 44.4392 45.2001 44.5392 44.9001 44.9392C44.7001 45.3392 44.8001 45.7392 44.9001 45.8392C45.2001 46.2392 45.5001 46.3392 45.5001 46.3392" fill="#803531"/>
<path d="M47.2002 45.4392L46.2002 44.6392C45.8002 44.4392 45.2001 44.5392 44.9001 44.9392C44.7001 45.3392 44.8001 45.7392 44.9001 45.8392C45.2001 46.2392 45.5001 46.3392 45.5001 46.3392" stroke="#050505" stroke-width="0.4" stroke-linecap="round" stroke-linejoin="round"/>
<path d="M54.2001 6.03918L54.4001 6.93921L52.8 7.93921L54.7001 8.33923L54.9001 9.13916L51.7001 10.4392L51.5001 9.53918L53.4001 8.83923L51.3 8.43921L51.2001 8.13916L52.9001 6.93921L51.0001 7.03918L50.8 6.23926L54.2001 6.03918Z" fill="#3D92CD"/>
<path d="M54.6001 11.1392L54.0001 11.2393L54.2001 12.2393L53.5001 12.3392L53.3 11.4392L52.7001 11.5392L52.9001 12.5392L52.2001 12.7393L51.8 10.8392L55.1001 10.1392L55.5001 12.0392L54.8 12.1392L54.6001 11.1392Z" fill="#3D92CD"/>
<path d="M55.7001 12.9392L55.9001 13.8392L54.3 14.8392L56.2001 15.2393L56.4001 16.0392L53.2001 17.3392L53.0001 16.4392L54.9001 15.7393L52.8 15.3392L52.7001 15.0392L54.4001 13.8392L52.4001 13.9392L52.3 13.1392L55.7001 12.9392Z" fill="#3D92CD"/>
<path fill-rule="evenodd" clip-rule="evenodd" d="M55.8 20.8393C54.7 21.1393 53.7 20.4392 53.5 19.4392C53.3 18.3392 53.9 17.4392 55 17.1392C56 16.9392 56.9 17.6392 57.1 18.6392C57.3 19.6392 56.8 20.6393 55.8 20.8393ZM55.1 18.0392C54.6 18.2392 54.2 18.7393 54.4 19.2393C54.5 19.7393 55 20.0392 55.6 19.9392C56 19.8392 56.3 19.3393 56.2 18.8393C56.1 18.3393 55.6 17.9392 55.1 18.0392Z" fill="#3D92CD"/>
<path fill-rule="evenodd" clip-rule="evenodd" d="M54.7001 24.4392L54.5001 23.3392L55.6001 22.2393L54.3001 22.5392L54.1001 21.6392L57.5001 20.9392L57.7001 22.2393C57.9001 22.9393 57.7001 23.4392 57.0001 23.6392C56.5001 23.7392 56.1001 23.5392 55.9001 23.1392L54.7001 24.4392ZM56.1001 22.1392V22.2393C56.2001 22.4393 56.3001 22.7393 56.7001 22.7393C57.0001 22.6393 57.0001 22.3392 56.9001 22.0392V21.9392L56.1001 22.1392Z" fill="#3D92CD"/>
<path d="M55.0001 25.6392L54.8 24.7393L58.1001 24.0392L58.3 24.8392L55.0001 25.6392Z" fill="#3D92CD"/>
<path fill-rule="evenodd" clip-rule="evenodd" d="M55.9 26.9392L55.2 26.8392L55 25.9392L58.7 26.4392L58.9 27.4392L55.8 29.4392L55.6 28.4392L56.1 28.1392L55.9 26.9392ZM57.8 27.1392L56.6 27.0392L56.8 27.7393L57.8 27.1392Z" fill="#3D92CD"/>
<path d="M69.0001 145.939L8.8 129.739L7 126.339L63.2 133.639L72.2 68.4392L77.5001 80.9393L69.0001 145.939Z" fill="#332F56"/>
<path d="M14.0001 137.439L5.40002 125.639L63.2 133.639L69.0001 145.939L14.0001 137.439Z" fill="#3F3461"/>
<path d="M72.6 108.439L6.70001 98.2393L7.30002 93.3392L73.2 103.439L72.6 108.439Z" fill="#ED4592"/>
<path d="M75.1 118.739L1.59998 107.539L2.19997 102.639L75.7 113.839L75.1 118.739Z" fill="#ED4592"/>
<path d="M70.3 128.439L0 117.339L0.600006 112.439L71 123.439L70.3 128.439Z" fill="#ED4592"/>
<path fill-rule="evenodd" clip-rule="evenodd" d="M16.9 83.4392C17.9 83.6392 19 83.8392 18 86.9392C17.1 89.8392 16.1 89.8392 14.6 89.6392L14 89.5392L16 83.3392L16.9 83.4392ZM16.5 84.1392L15 88.9392C16.4 89.1392 16.8 87.8392 17.1 86.8392C17.4 85.8392 18 84.2392 16.5 84.1392Z" fill="#FEFEFE"/>
<path d="M18.6 90.2393L17.8 90.0392L19.7 83.8392L20.5 83.9392L18.6 90.2393ZM20.2 83.7393L19.8 83.4392L20.9 82.2393L21.3 82.7393L20.2 83.7393Z" fill="#FEFEFE"/>
<path fill-rule="evenodd" clip-rule="evenodd" d="M22.9 84.3392L22.4 90.7393L21.5 90.6392L21.6 89.3392L20.4 89.2393L19.8 90.3392L18.9 90.2393L22.3 84.2393L22.9 84.3392ZM21.8 87.8392L22.1 85.4392L20.6 88.5392L21.7 88.7393L21.8 87.8392Z" fill="#FEFEFE"/>
<path d="M26.3 86.7393L25.8 88.8392L25.1 91.1392L24.2 91.0392L26.2 84.8392L27 84.9392V89.8392L27.6 87.3392L28.3 85.1392L29.1 85.2393L27.2 91.4392L26.3999 91.3392V86.3392L26.3 86.7393Z" fill="#FEFEFE"/>
<path fill-rule="evenodd" clip-rule="evenodd" d="M31.5 85.5392L30.9 92.0392L30.1 91.8392L30.2 90.6392L29 90.4392L28.4 91.6392L27.5 91.5392L30.8 85.4392L31.5 85.5392ZM30.5 89.0392L30.8 86.7393L29.3 89.8392L30.3 89.9392L30.5 89.0392Z" fill="#FEFEFE"/>
<path d="M35.4 87.0391C35.3 86.9391 35.1 86.8392 34.9 86.8392C33.8 86.6392 33.2 88.3391 33 89.1391C32.7 89.9391 32.3 91.4391 33.5 91.6391C33.6334 91.6391 33.8 91.6391 34 91.6391L33.8 92.3392C33.5334 92.4059 33.3 92.4392 33.1 92.4392C31.3 92.1392 31.7 90.3391 32.1 89.0391C32.5 87.7391 33.3 85.7391 35 86.0391C35.3 86.0391 35.5 86.1392 35.7 86.2392L35.4 87.0391Z" fill="#FEFEFE"/>
<path d="M35 92.6392L34.2 92.4392L36.1 86.2393L37 86.3392L35 92.6392Z" fill="#FEFEFE"/>
<path fill-rule="evenodd" clip-rule="evenodd" d="M40 90.0392C39.6 91.2392 39 93.2392 37.3 93.0392C35.7 92.7392 36.3 90.7392 36.7 89.5392C37 88.4392 37.7 86.4392 39.3 86.6392C41 86.8392 40.3 88.9392 40 90.0392ZM37.6 89.7393C37.2 91.0393 36.9 92.1393 37.6 92.2393C38.2 92.3393 38.7 91.2392 39.1 89.9392C39.5 88.6392 39.8 87.5392 39.1 87.4392C38.4 87.3392 38 88.4393 37.6 89.7393Z" fill="#FEFEFE"/>
<path d="M41.8 89.0392L41.2 91.1392L40.5 93.4392L39.7 93.2393L41.6 87.0392L42.3999 87.1392V92.1392H42.5L43 89.5392L43.7 87.3392L44.6 87.4392L42.6 93.7393L41.8999 93.6392V88.5392L41.8 88.6392V89.0392Z" fill="#FEFEFE"/>
<path fill-rule="evenodd" clip-rule="evenodd" d="M47 87.8392L46.4 94.2393L45.5 94.1392L45.7 92.8392L44.4 92.7393L43.8 93.8392L43 93.7393L46.3 87.7393L47 87.8392ZM45.9 91.3392L46.3 88.9392L44.8 92.0392L45.8 92.2393L45.9 91.3392Z" fill="#FEFEFE"/>
<path d="M49.4999 88.2393L47.7999 93.7393L49.2 93.9392L48.9999 94.6392L46.7 94.3392L48.7 88.0392L49.4999 88.2393Z" fill="#FEFEFE"/>
<path fill-rule="evenodd" clip-rule="evenodd" d="M53.7 88.8392C54.7 88.9392 55.9 89.2392 54.9 92.3392C54 95.2392 53 95.2392 51.4 95.0392L50.9 94.9392L52.8 88.6392L53.7 88.8392ZM53.4 89.5392L51.9 94.4392C53.3 94.6392 53.6 93.3393 53.9 92.2393C54.2 91.3393 54.8 89.7392 53.4 89.5392Z" fill="#FEFEFE"/>
<path d="M58.8 89.5392L58.6 90.2393L57.2 90.0392L56.5 92.0392L57.8 92.2393L57.6 92.9392L56.3 92.7393L55.7 94.8392L57.1 95.0392L56.9 95.7393L54.6 95.4392L56.5 89.2393L58.8 89.5392Z" fill="#FEFEFE"/>
<path d="M61.6001 89.9392L59.9001 95.4392L61.3 95.6392L61.1001 96.4392L58.8 96.0392L60.8 89.8392L61.6001 89.9392Z" fill="#FEFEFE"/>
<path fill-rule="evenodd" clip-rule="evenodd" d="M64.9 90.4392L64.4 96.8392L63.5 96.7393L63.6 95.5392L62.4 95.3392L61.8 96.5392L60.9 96.3392L64.3 90.3392L64.9 90.4392ZM63.8 93.9392L64.1 91.6392L62.6 94.7393L63.7 94.8392L63.8 93.9392Z" fill="#FEFEFE"/>
<path fill-rule="evenodd" clip-rule="evenodd" d="M2.59998 108.639L4.49997 102.439L5.49997 102.539C6.19997 102.639 7.19997 102.839 6.69997 104.439C6.29997 105.739 5.59997 106.239 4.29997 106.039L3.39996 108.739L2.59998 108.639ZM5.19997 103.239L4.49997 105.339C5.19997 105.439 5.59997 105.139 5.79997 104.439C5.99997 103.839 5.89997 103.339 5.29997 103.239H5.19997Z" fill="#FEFEFE"/>
<path fill-rule="evenodd" clip-rule="evenodd" d="M9.79999 106.439C9.39999 107.539 8.69999 109.639 7.09999 109.339C5.49999 109.139 6.09998 107.039 6.39998 105.939C6.79998 104.839 7.49999 102.739 9.09999 102.939C10.7 103.239 10.1 105.339 9.79999 106.439ZM7.29999 106.039C6.89999 107.339 6.69999 108.539 7.29999 108.639C7.99999 108.739 8.39998 107.639 8.89998 106.239C9.29998 104.939 9.49998 103.839 8.89998 103.739C8.19998 103.639 7.69999 104.739 7.29999 106.039Z" fill="#FEFEFE"/>
<path fill-rule="evenodd" clip-rule="evenodd" d="M11.4 103.439L12.4 103.539C13 103.639 14 103.839 13.5 105.339C13.3 105.939 12.8 106.839 12.1 106.839L12.3 110.039L11.5 109.939L11.3 106.739H11.2L10.3 109.739L9.39996 109.639L11.4 103.439ZM12.6 105.439C12.8 104.839 12.9 104.339 12.2 104.239H12.1L11.4 106.339C12.1 106.439 12.4 106.039 12.6 105.439Z" fill="#FEFEFE"/>
<path d="M17.1 104.239L15.3 109.739L16.8 109.939L16.5 110.639L14.3 110.339L16.2 104.139L17.1 104.239Z" fill="#FEFEFE"/>
<path fill-rule="evenodd" clip-rule="evenodd" d="M20.4 104.739L19.8 111.139L18.9 111.039L19.1 109.739L17.8 109.539L17.2 110.739L16.4 110.639L19.7 104.639L20.4 104.739ZM19.3 108.139L19.7 105.839L18.2 108.939L19.2 109.139L19.3 108.139Z" fill="#FEFEFE"/>
<path d="M2.69997 112.039L2.49997 115.039H2.59998L2.89996 114.239L4.09998 112.239L4.99997 112.339L2.69997 115.739L1.89996 118.439L1.09998 118.339L1.89996 115.639L1.69997 111.939L2.69997 112.039Z" fill="#FEFEFE"/>
<path d="M7.69997 112.739L5.99997 118.239L7.39996 118.539L7.19997 119.239L4.89996 118.839L6.89996 112.639L7.69997 112.739Z" fill="#FEFEFE"/>
<path fill-rule="evenodd" clip-rule="evenodd" d="M11 113.239L10.5 119.639L9.60001 119.539L9.7 118.339L8.5 118.139L7.89999 119.339L7 119.139L10.4 113.139L11 113.239ZM9.89999 116.739L10.2 114.439L8.7 117.539L9.8 117.639L9.89999 116.739Z" fill="#FEFEFE"/>
<path d="M13.8 99.8392L13.1 99.7393L12.2 96.9392L11.2 100.539L8.5 100.139L11.1 91.4392L13.5 91.8392L14.8 95.4392L18 92.4392L20.4 92.8392L17.9 101.539L15.2 101.139L16.3 97.5392L13.8 99.8392Z" fill="#FEFEFE"/>
<path d="M23.8 95.8392L23.5 96.6392L27 97.1392L26.3 99.4392L22.9 98.9392L22.6 99.6392L26.4 100.139L25.7 102.639L19.3 101.739L21.8 93.0392L28.3 93.9392L27.5 96.4392L23.8 95.8392Z" fill="#FEFEFE"/>
<path d="M32.3 102.539L31.5 102.439L30.6 99.6392L29.6 103.239L26.9 102.839L29.5 94.1392L31.9 94.4392L33.2 98.1392L36.4 95.1392L38.8 95.4392L36.3 104.139L33.6 103.739L34.7 100.139L32.3 102.539Z" fill="#FEFEFE"/>
<path fill-rule="evenodd" clip-rule="evenodd" d="M44.8 96.2392C46.1334 96.3726 47.1 96.9392 47.7 97.9392C48.3667 99.0058 48.5 100.139 48.1 101.339C47.7667 102.606 47.0334 103.606 45.9 104.339C44.7 105.139 43.4667 105.439 42.2 105.239C40.8667 105.039 39.8667 104.439 39.2 103.439C38.6 102.439 38.4667 101.306 38.8 100.039C39.2 98.7725 39.9667 97.7725 41.1 97.0391C42.2334 96.3058 43.4667 96.0392 44.8 96.2392ZM42.9 102.739C43.4334 102.806 43.9334 102.673 44.4 102.339C44.8667 102.006 45.2 101.539 45.4 100.939C45.5334 100.406 45.5 99.9058 45.3 99.4392C45.0334 98.9725 44.6334 98.7058 44.1 98.6391C43.5667 98.5725 43.0334 98.7058 42.5 99.0391C42.0334 99.3725 41.7334 99.8392 41.6 100.439C41.4 100.973 41.4334 101.473 41.7 101.939C41.9667 102.406 42.3667 102.673 42.9 102.739Z" fill="#FEFEFE"/>
<path fill-rule="evenodd" clip-rule="evenodd" d="M56.1 107.039L52.9 106.639L51.7 104.139H51.4L50.8 106.239L48.1 105.939L50.7 97.2393L54.3 97.7393C54.4 97.7393 54.5 97.7392 55 97.9392C55.4 98.1392 55.8 98.2392 56.3 98.6392C56.7 99.0392 57 99.5392 57 100.339C57.0666 100.673 57.0333 101.073 56.9 101.539C56.5666 102.739 55.8 103.539 54.6 103.939L56.1 107.039ZM52.7 100.039L52.2 101.639L53.2 101.839C53.6666 101.906 54 101.672 54.2 101.139C54.3 100.639 54.1 100.239 53.7 100.239L52.7 100.039Z" fill="#FEFEFE"/>
<path d="M56.8 107.139L59.4001 98.4392L62.0001 98.8392L59.5001 107.539L56.8 107.139Z" fill="#FEFEFE"/>
<path fill-rule="evenodd" clip-rule="evenodd" d="M68.8 99.8392L69.6001 109.039L66.7001 108.639L66.6001 107.639L63.8 107.239L63.2001 108.139L60.3 107.639L66.1001 99.4392L68.8 99.8392ZM65.3 104.939L66.5001 105.139V103.239L65.3 104.939Z" fill="#FEFEFE"/>
<path d="M26.4 113.639L23.7 113.239L23 104.139L25.9 104.539L26.1 109.939L29.3 105.039L32.2 105.439L26.4 113.639Z" fill="#FEFEFE"/>
<path d="M34.9 108.439L34.7 109.239L38.2 109.739L37.5 111.939L34 111.439L33.8 112.239L37.6 112.739L36.9 115.239L30.5 114.239L33 105.539L39.4 106.539L38.7 108.939L34.9 108.439Z" fill="#FEFEFE"/>
<path fill-rule="evenodd" clip-rule="evenodd" d="M46.1 116.539L42.8 116.039L41.6 113.639H41.4L40.8 115.739L38.1 115.339L40.6 106.739L44.3 107.239C44.4 107.239 44.5 107.239 45 107.439C45.4 107.539 45.8 107.739 46.3 108.139C46.7 108.539 47 109.039 47 109.739C47.0666 110.139 47.0333 110.573 46.9 111.039C46.5 112.239 45.7333 113.039 44.6 113.439L46.1 116.539ZM42.6 109.539L42.2 111.139L43.2 111.339C43.6666 111.406 43.9666 111.172 44.1 110.639C44.3 110.139 44.1 109.739 43.7 109.739L42.6 109.539Z" fill="#FEFEFE"/>
<path fill-rule="evenodd" clip-rule="evenodd" d="M46.8 116.639L49.4001 107.939L52.9001 108.439C54.2334 108.639 55.1667 109.206 55.7001 110.139C56.3001 111.139 56.4334 112.239 56.1001 113.439C55.7001 114.706 54.9667 115.706 53.9001 116.439C52.8334 117.106 51.6667 117.339 50.4001 117.139L46.8 116.639ZM51.2001 110.839L50.1001 114.639L51.0001 114.739C51.5334 114.806 52.0001 114.673 52.4001 114.339C52.8001 114.073 53.1 113.672 53.3 113.139C53.4334 112.606 53.4001 112.106 53.2001 111.639C53.0001 111.239 52.6667 111.006 52.2001 110.939L51.2001 110.839Z" fill="#FEFEFE"/>
<path fill-rule="evenodd" clip-rule="evenodd" d="M63.3 110.039L64.0001 119.139L61.2001 118.739L61.1001 117.839L58.2001 117.339L57.7001 118.239L54.8 117.839L60.6001 109.639L63.3 110.039ZM59.8 115.039L61.0001 115.239L60.9001 113.339L59.8 115.039Z" fill="#FEFEFE"/>
<path fill-rule="evenodd" clip-rule="evenodd" d="M64.9 119.239L67.4 110.639L70.9 111.139C72.2334 111.339 73.2 111.906 73.8 112.839C74.3334 113.773 74.4334 114.872 74.1 116.139C73.7667 117.339 73.0667 118.306 72 119.039C70.9334 119.706 69.7334 119.973 68.4 119.839L64.9 119.239ZM69.3 113.339L68.2 117.139L69.2 117.239C69.6667 117.306 70.1 117.206 70.5 116.939C70.9 116.606 71.2 116.172 71.4 115.639C71.5334 115.106 71.5 114.639 71.3 114.239C71.1 113.773 70.7667 113.506 70.3 113.439L69.3 113.339Z" fill="#FEFEFE"/>
<path d="M9.69995 119.939L12.1 119.039C12.3 119.639 12.6 119.973 13 120.039C13.4666 120.106 13.7333 119.972 13.8 119.639L15.6 113.739L18.2 114.139L16.3999 120.239C16.1999 120.973 15.6999 121.573 14.8999 122.039C14.0999 122.506 13.2333 122.673 12.3 122.539C11.5 122.339 10.7999 121.939 10.3999 121.439C10.0999 120.939 9.79995 120.439 9.69995 120.139V119.939Z" fill="#FEFEFE"/>
<path d="M20.6 123.739C20.5 123.739 20.3999 123.639 19.8999 123.539C19.3999 123.339 19 123.139 18.5 122.739C18.1 122.339 17.8 121.739 17.7 120.939C17.7 120.539 17.7666 120.073 17.8999 119.539L19.3999 114.339L22.1 114.739L20.5 120.039C20.5 120.039 20.5 120.139 20.5 120.439C20.5 120.573 20.5333 120.673 20.6 120.739C20.7 120.939 20.9 121.239 21.3 121.239C21.6333 121.306 21.9 121.272 22.1 121.139C22.3666 120.939 22.5333 120.772 22.6 120.639L22.7 120.339L24.3 115.039L27 115.439L25.3999 120.639C25.0999 121.639 24.6 122.439 24 122.839C23.7333 123.039 23.4333 123.206 23.1 123.339C22.1 123.739 21.2 123.739 20.8 123.739H20.6Z" fill="#FEFEFE"/>
<path d="M28.0999 121.239C28.5666 122.039 29.1666 122.473 29.8999 122.539C30.4332 122.606 30.7332 122.506 30.7999 122.239C30.8666 122.106 30.7666 121.973 30.4999 121.839C30.2332 121.706 29.8999 121.506 29.4999 121.239C29.1666 121.039 28.7999 120.806 28.3999 120.539C28.0666 120.273 27.7999 119.939 27.5999 119.539C27.3999 119.073 27.3999 118.606 27.5999 118.139C27.6999 117.639 28.0999 117.039 28.6999 116.539C29.2999 116.039 30.3999 115.739 31.6999 115.939C32.5999 116.039 33.3999 116.439 33.7999 116.939C34.2999 117.339 34.5999 117.839 34.6999 118.139L34.7999 118.339L32.5999 119.439C32.3332 119.039 32.0999 118.773 31.8999 118.639C31.6999 118.506 31.3999 118.406 30.9999 118.339C30.5999 118.239 30.2999 118.439 30.2999 118.539C30.1999 118.839 30.5999 119.139 31.1999 119.439C31.4666 119.573 31.7666 119.739 32.0999 119.939C32.4332 120.139 32.7332 120.373 32.9999 120.639C33.1999 120.839 33.3666 121.139 33.4999 121.539C33.6332 121.939 33.6332 122.339 33.4999 122.739C33.2999 123.239 32.8999 123.839 32.1999 124.339C31.4999 124.839 30.3999 125.139 29.0999 124.939C28.0999 124.806 27.3332 124.473 26.7999 123.939C26.2666 123.406 25.9666 122.873 25.8999 122.339L28.0999 121.239Z" fill="#FEFEFE"/>
<path d="M37.6 119.539L35.2 119.139L35.8999 116.739L43.5 117.839L42.7999 120.239L40.3 119.939L38.5 126.139L35.8 125.739L37.6 119.539Z" fill="#FEFEFE"/>
<path d="M42 126.639L44.5 117.939L47.1 118.339L44.6 127.039L42 126.639Z" fill="#FEFEFE"/>
<path d="M56.2 124.939C55.6666 126.006 54.8666 126.839 53.7999 127.439C52.7333 128.039 51.6333 128.239 50.5 128.039C49.1666 127.839 48.1666 127.239 47.5 126.239C46.9 125.239 46.7666 124.106 47.1 122.839C47.5 121.639 48.2666 120.639 49.3999 119.839C50.5333 119.106 51.7666 118.839 53.1 119.039C54.2333 119.239 55.1333 119.739 55.7999 120.539C56.4666 121.406 56.7333 122.406 56.6 123.539L53.7999 123.139C53.7333 122.672 53.5999 122.306 53.3999 122.039C53.1333 121.772 52.7999 121.606 52.3999 121.539C51.8666 121.472 51.3666 121.606 50.8999 121.939C50.3666 122.272 50.0333 122.706 49.8999 123.239C49.6999 123.839 49.7333 124.373 50 124.839C50.2666 125.306 50.6666 125.572 51.2 125.639C51.6 125.706 51.9999 125.639 52.3999 125.439C52.7999 125.239 53.1333 124.939 53.3999 124.539L56.2 124.939Z" fill="#FEFEFE"/>
<path d="M56.1 128.739L58.7 120.039L61.3 120.439L58.8 129.139L56.1 128.739Z" fill="#FEFEFE"/>
<path fill-rule="evenodd" clip-rule="evenodd" d="M68.1 121.439L68.9 130.539L66 130.139L65.9 129.239L63.1 128.739L62.5 129.639L59.6 129.239L65.4 121.039L68.1 121.439ZM64.6 126.439L65.8 126.639V124.739L64.6 126.439Z" fill="#FEFEFE"/>
</svg>
