<svg xmlns="http://www.w3.org/2000/svg" width="86" height="118" fill="none" viewBox="0 0 86 118">
  <g class="19 abril" clip-path="url(#a)">
    <g class="cubo">
      <path fill="#7C265A" d="m51.5 48.6 26.3 6.1-59.2 2.6 2.9 60.9-19-16.6-2-53h51Z" class="lado izquierdo"/>
      <path fill="#AB3878" d="M51.5 48.1 0 49.1l18.5 7.1 59.3-1.5-26.3-6.6Z" class="lado superior"/>
      <g class="lineas">
        <mask id="b" width="78" height="9" x="0" y="48" class="b" maskUnits="userSpaceOnUse" style="mask-type:alpha">
          <path fill="#AB3878" d="M51.5 48.1 0 49.1l18.5 7.1 59.3-1.5-26.3-6.6Z" class="&lt;Path&gt;"/>
        </mask>
        <g class="Clip path group" mask="url(#b)">
          <mask id="c" width="142" height="46" x="-64" y="11" class="c" maskUnits="userSpaceOnUse" style="mask-type:luminance">
            <g class="cp190">
              <path fill="#fff" d="m-60.53 21.72-3.29-10.12L77.79 54.66 18.3 56.34l-78.83-34.62Z" class="Vector"/>
            </g>
          </mask>
          <g class="&lt;Clip Group&gt;" mask="url(#c)">
            <g class="&lt;Group&gt;">
              <g class="&lt;Group&gt;">
                <path stroke="#ED4592" stroke-width=".4" d="M108.5 98.3-36.3 32.4m142.7 63.2-174-78.5m171.9 75.8L-66.4 15.5m168.7 74.7L-63.1 15m163.3 72.4L-60.2 14.2M98 84.2-62 11.6M96.1 82-48.7 15.5M94 79.3-50.8 12.9M91.9 76.6-51.9 10.5M89.9 73.6-54.9 7.8M87.8 70.9-56.9 5.1M85.8 68.2-59 2.4M83.7 65.5-61.1-.3M81.7 62.5-63.1-3.3M79.6 59.8-65.2-6M78.1 57.6-67.3-8.2M75.4 54.9-69.4-10.9M73.3 52.2-71.4-13.6M71.3 49.5-73.5-16.3" class="&lt;Path&gt;"/>
              </g>
            </g>
          </g>
        </g>
      </g>
      <path fill="#ED4592" d="m80.6 115.1-59.1 3.1-3.1-61.9 59.4-1.6 2.8 60.4Z" class="fondo"/>
    </g>
    <g class="ilustracion">
      <path fill="#1C1C1A" d="M20.9 52.1c0 1 6.6 2.1 14.7 2.4 8.2.4 14.8-.2 14.9-1.2 0-1.1-6.6-2.2-14.7-2.5-8.2-.3-14.8.2-14.9 1.3Z" class="sombra" opacity=".2"/>
      <g class="cuerpo">
        <g class="piernas">
          <g class="&lt;Group&gt;">
            <g class="&lt;Group&gt;">
              <g class="&lt;Group&gt;">
                <path fill="#B76B29" stroke="#050505" stroke-linecap="round" stroke-linejoin="round" stroke-width=".4" d="m35.3 45.2 1 6.4 8-.2.3-6.2c0-1.1.1-4.1-4.9-3.8-4.5.2-4.4 2.8-4.4 3.8Z" class="&lt;Path&gt;"/>
              </g>
              <path fill="#0B0C0E" d="M44.3 44.3c.4 1.9-.2 7.1-.2 7.1h-1.9l.1-9.9c.2.2 1.6.2 2 2.8Z" class="&lt;Path&gt;" opacity=".3"/>
            </g>
            <g class="&lt;Group&gt;">
              <g class="&lt;Group&gt;">
                <path fill="#BC7C54" stroke="#050505" stroke-linecap="round" stroke-linejoin="round" stroke-width=".4" d="M43.7 51.3s-2.3 1.3-.5 1.8l-6.5-.3.1-1.1h3.7c3.3-.1 3.4-.5 3.2-.4Z" class="&lt;Path&gt;"/>
              </g>
              <g class="&lt;Group&gt;">
                <g class="&lt;Group&gt;">
                  <g class="&lt;Path&gt;">
                    <path fill="#BC7C54" d="M40 53s4.5.2 5 .2 1-.1.9-.6c-.1-.4-.5-1.3-2.5-1.5-.5-.1-1.7-.1-2.4.9"/>
                    <path stroke="#050505" stroke-linecap="round" stroke-linejoin="round" stroke-width=".4" d="M40 53s4.5.2 5 .2 1-.1.9-.6c-.1-.4-.5-1.3-2.5-1.5-.5-.1-1.7-.1-2.4.9"/>
                  </g>
                </g>
              </g>
            </g>
          </g>
          <g class="&lt;Group&gt;">
            <g class="&lt;Group&gt;">
              <g class="&lt;Group&gt;">
                <path fill="#B76B29" stroke="#050505" stroke-linecap="round" stroke-linejoin="round" stroke-width=".4" d="m35.8 45.3-1.6 6.2-7.9-.9.2-6.2c.1-1.1.3-4.1 5.3-3.4 4.3.6 4.1 3.2 4 4.3Z" class="&lt;Path&gt;"/>
              </g>
              <path fill="#0B0C0E" d="M26.9 43.5c-.5 1.9-.4 7.1-.4 7.1l1.9.2.8-9.9c-.3.2-1.7.1-2.3 2.6Z" class="&lt;Path&gt;" opacity=".3"/>
            </g>
            <g class="&lt;Group&gt;">
              <g class="&lt;Group&gt;">
                <path fill="#BC7C54" stroke="#050505" stroke-linecap="round" stroke-linejoin="round" stroke-width=".4" d="M26.8 50.6s2.3 1.4.4 1.8l6.5.3v-1.1c-.1-.1-.7-.1-3.7-.4-3.3-.3-3.3-.8-3.2-.6Z" class="&lt;Path&gt;"/>
              </g>
              <g class="&lt;Group&gt;">
                <g class="&lt;Group&gt;">
                  <g class="&lt;Path&gt;">
                    <path fill="#BC7C54" d="M30.5 52.6s-4.5-.2-5-.3c-.5 0-1-.2-.8-.7.1-.3.5-1.2 2.5-1.3.5 0 1.8.2 2.4 1.2"/>
                    <path stroke="#050505" stroke-linecap="round" stroke-linejoin="round" stroke-width=".4" d="M30.5 52.6s-4.5-.2-5-.3c-.5 0-1-.2-.8-.7.1-.3.5-1.2 2.5-1.3.5 0 1.8.2 2.4 1.2"/>
                  </g>
                </g>
              </g>
            </g>
          </g>
        </g>
        <g class="brazo der">
          <g class="&lt;Group&gt;">
            <g class="&lt;Group&gt;">
              <g class="&lt;Group&gt;">
                <path fill="#BC7C54" stroke="#050505" stroke-linecap="round" stroke-width=".4" d="M53.6 36.1c.8-.3 2.4-1.1 3.7-.7 1.3.3 2.2 1.5 2.2 3 0 1.7-1.3 4.5-2.2 4.2-.4-.1-.9 0-1.4 0-.6.1-1.5.3-1.7.3-.9.2-2.7-.1-2.7-2.2-.1-2.6 2.1-4.6 2.1-4.6Z" class="&lt;Path&gt;"/>
              </g>
            </g>
            <g class="&lt;Group&gt;">
              <g class="&lt;Path&gt;">
                <path fill="#BC7C54" d="m54.5 36.3.9-1.1c.4-.4 1-.5 1.3-.2.3.4.3.9.2 1.1-.2.5-.4.8-.4.8"/>
                <path stroke="#050505" stroke-linecap="round" stroke-width=".4" d="m54.5 36.3.9-1.1c.4-.4 1-.5 1.3-.2.3.4.3.9.2 1.1-.2.5-.4.8-.4.8"/>
              </g>
            </g>
            <path fill="#050505" d="M56.5 37.2s.5-.1 1.1.5c.5.5.5 2.3.5 2.8-.1.5-.5 1.8-.8 1.7-.2-.1-1.5.2-1.8.1-.3 0 .2-2.7.2-3.7s.8-1.4.8-1.4Zm-1.4-2s-1.4 2.7-.9 5c.5 2.3 1 2.7 1 2.7s-1.9 1.1-2.9-.3c-1-1.4-1.2-4.6.1-5.5 1.2-.9 2.7-1.9 2.7-1.9Z" class="&lt;Path&gt;" opacity=".2" style="mix-blend-mode:multiply"/>
          </g>
          <g class="&lt;Group&gt;">
            <path fill="#F3F4F5" stroke="#050505" stroke-linecap="round" stroke-linejoin="round" stroke-width=".4" d="M55.5 43.2c-1.7.2-.1 0-2 .3-3.3.5-5.7-.1-5.7-.1-2.1-.4-3.4-2.1-3.1-4v-.6c.3-1.7 1.7-3.2 4.2-2.9 0 0 1.3.4 3.6.1 1.5-.3 1.8-.3 1.8-.3l1.2 7.5Z" class="&lt;Path&gt;"/>
            <path fill="#0B0C0E" d="M55.5 43.2c-1.7.2-.1 0-2 .3-3.3.5-5.7-.1-5.7-.1-2.1-.4-3.4-2.1-3.1-4v-.6l.2-.6c.2.3.3.5.3.5s.9 2.5 4.8 2.5c2.6.1 3.1-.1 5.1-.5l.4 2.5Z" class="&lt;Path&gt;" opacity=".3"/>
          </g>
        </g>
        <g class="torso">
          <path fill="#F3F4F5" stroke="#050505" stroke-linecap="round" stroke-linejoin="round" stroke-width=".4" d="M37 33.9c5.1.7 6.8 1.4 8 1.8 1.6.6 3.3 2.3 3.1 3.9-.2 1.6-.1 1 .3 4.7.4 3.5.9 3.4.7 4-.8 1.8-7.8 2.1-10.1 2.1-6.2 0-9-1.4-13.4-1.6-3.3-.2-3.9-.5-4.2-1C20.5 46.5 26 35 26 35s.4-.5 1.7-.9c2.1-.7 7.2-.5 9.3-.2Z" class="&lt;Path&gt;"/>
          <g class="&lt;Group&gt;">
            <path stroke="#050505" stroke-linecap="round" stroke-linejoin="round" stroke-width=".4" d="M32 44c-.3 2.2-1.9 3.2-3.7 3.1-1.8 0-3.1-1.2-2.8-3.4l.4-2.5 6.5.3L32 44Z" class="&lt;Path&gt;"/>
            <g class="&lt;Path&gt;">
              <path fill="#E52B2D" d="m32.3 42.7-6.6-.2Z"/>
              <path stroke="#050505" stroke-width=".4" d="m32.3 42.7-6.6-.2"/>
            </g>
          </g>
          <g class="&lt;Group&gt;">
            <path fill="#09090A" d="M38.1 45.3c0 .4.2.7.6.7.3 0 .7-.3.7-.7.1-.3-.2-.6-.5-.6-.4-.1-.7.2-.8.6Z" class="&lt;Path&gt;"/>
          </g>
          <g class="&lt;Group&gt;">
            <path fill="#09090A" d="M38.2 48.2c0 .4.2.7.6.7.4 0 .7-.2.8-.6 0-.4-.2-.7-.6-.7-.4 0-.7.3-.8.6Z" class="&lt;Path&gt;"/>
          </g>
          <g class="&lt;Path&gt;">
            <path fill="#FEFEFE" d="M40 42.4s-.2 1.7.2 5.2.2 3 .2 3"/>
            <path stroke="#050505" stroke-linecap="round" stroke-linejoin="round" stroke-width=".4" d="M40 42.4s-.2 1.7.2 5.2.2 3 .2 3"/>
          </g>
          <path fill="#F29137" stroke="#050505" stroke-linecap="round" stroke-linejoin="round" stroke-width=".4" d="m39.7 43.2.6-.1 1.5-5s.7-3.3-4.5-3.8c-4.7-.5-2.5 3.6-.6 5.4 1.2 1.2 3 3.5 3 3.5Z" class="&lt;Path&gt;"/>
          <g class="Clip path group">
            <mask id="d" width="8" height="10" x="42" y="39" class="d" maskUnits="userSpaceOnUse" style="mask-type:luminance">
              <g class="cp191">
                <path fill="#fff" d="m47.93 39.28 1.23 8.79-5.14.4-1.19-7.79 5.1-1.4Z" class="Vector"/>
              </g>
            </mask>
            <g class="&lt;Clip Group&gt;" mask="url(#d)">
              <g class="&lt;Group&gt;">
                <path stroke="#050505" stroke-linecap="round" stroke-linejoin="round" stroke-width=".4" d="M53 43.3c.1 2.2-1.3 3.6-3.1 3.9-1.8.3-3.3-.6-3.5-2.8l-.1-2.4 6.5-1.1.2 2.4Z" class="&lt;Path&gt;"/>
                <g class="&lt;Path&gt;">
                  <path fill="#E52B2D" d="m53 42.1-6.7 1.1Z"/>
                  <path stroke="#050505" stroke-width=".4" d="m53 42.1-6.7 1.1"/>
                </g>
              </g>
            </g>
          </g>
          <path fill="#DCDEDD" d="M25.3 41.9s-.6 2-.8 3.5c-.3 1.5-.5 3.2-.5 3.2s-2.3.3-2.3-1.3c-.1-1.5 1.3-6.5 1.3-6.5s1.5 1.2 2.3 1.1Zm14.4 3.5c0 .8-.3-.1-.6-.5-.2-.4-.2-.9-.2-.9s-3.1-1.4-4.2-1.8l.5-.6s-2.2-.6-2.6-.7c-.4-.2 1.1-5.7 1.5-6.8 0 0 .2 2.7 1.3 4.2 1.1 1.4 3.5 3.5 3.9 4.2.4.8.5 1.7.4 2.9Z" class="&lt;Path&gt;" style="mix-blend-mode:multiply"/>
          <g class="&lt;Path&gt;">
            <path fill="#F3F4F5" d="M33.9 34.5c-.1 1.9-.2 6.1-.2 6.1l3.9.6-.8 1 3.1 1.6.1-.7s-1.7-2.7-2.4-3.3c-.7-.6-3-3.2-2.8-5.6"/>
            <path stroke="#050505" stroke-linecap="round" stroke-linejoin="round" stroke-width=".4" d="M33.9 34.5c-.1 1.9-.2 6.1-.2 6.1l3.9.6-.8 1 3.1 1.6.1-.7s-1.7-2.7-2.4-3.3c-.7-.6-3-3.2-2.8-5.6"/>
          </g>
          <path fill="#DCDEDD" d="M42.1 35.7s2.6 3.1 3.1 5.9l-1.9.1s.8.4.8.6c-.1.2-2.5 1.4-2.9 1.6-.4.3-.2 1.5-.5 1.5-.4-.1.1-1.5-.2-1.5-.4 0 .5-1.5.5-1.5s1.9-2.7 1.4-4c-.5-1.4-.3-2.7-.3-2.7Z" class="&lt;Path&gt;" style="mix-blend-mode:multiply"/>
          <g class="&lt;Path&gt;">
            <path fill="#F3F4F5" d="M41.9 35.1c1.4 1.9 2.5 5.9 2.5 5.9l-2.2.1.5.6-2.7 2.2v-1s1.2-2.2 1.5-2.9c.2-.8.3-3.3-.4-4.8"/>
            <path stroke="#050505" stroke-linecap="round" stroke-linejoin="round" stroke-width=".4" d="M41.9 35.1c1.4 1.9 2.5 5.9 2.5 5.9l-2.2.1.5.6-2.7 2.2v-1s1.2-2.2 1.5-2.9c.2-.8.3-3.3-.4-4.8"/>
          </g>
          <path fill="#DCDEDD" d="M40.1 43.3s.3 2 .5 3.2c.3 1.3.4 4.3.4 4.3l-.5-.4s-.2-.6-.4-2.8c-.1-2.1 0-4.3 0-4.3Zm8.5 4s-2.5-.1-2.8-2.7c-.3-2.7.2-2.6.2-2.6s.1.4.3 1.6c.1 1.2 0 2.3 2.3 3.7Zm-16-5.7-.3 1.1h-5.2s3.8.4 4.2.5c.3.1.1 1.7-.3 2.6 0 0-1.4 1.7-2.9 1.5-1.5-.1-2.9-1.4-2.9-1.4s.6 1.7 2.8 2c2.3.4 4.3-1.1 4.8-3.4 0 0-.3.5-.6.8-.3.3.8-3.4.4-3.7Z" class="&lt;Path&gt;" style="mix-blend-mode:multiply"/>
        </g>
        <g class="brazo izq">
          <g class="&lt;Group&gt;">
            <g class="&lt;Group&gt;">
              <g class="&lt;Group&gt;">
                <path fill="#BC7C54" stroke="#050505" stroke-linecap="round" stroke-linejoin="round" stroke-width=".4" d="M21.4 43.5c-.4.6-1.3 2-.9 3.4.3 1.3 1.4 2.2 2.9 2.4 1.7.3 3.3-.1 3.9-.8.5-.8.1-1.4.1-1.9 0-.6.2-1.4.3-1.6.1-.8-1.1-2.8-3.1-3.1-2.6-.5-3.2 1.6-3.2 1.6Z" class="&lt;Path&gt;"/>
              </g>
            </g>
            <g class="&lt;Group&gt;">
              <g class="&lt;Path&gt;">
                <path fill="#BC7C54" d="m26.3 44.8 2.2.6c.5.2.8.7.6 1.1-.2.5-.7.6-.9.6-.6 0-1.2-.1-1.2-.1"/>
                <path stroke="#050505" stroke-linecap="round" stroke-linejoin="round" stroke-width=".4" d="m26.3 44.8 2.2.6c.5.2.8.7.6 1.1-.2.5-.7.6-.9.6-.6 0-1.2-.1-1.2-.1"/>
              </g>
            </g>
            <path fill="#050505" d="M20.4 44.7s2.3-.9 4.6-.1c2.3.9 2.7 1.4 2.7 1.4s1-1.7-.4-2.9-4-1.6-4.9-.6c-.9 1-2 2.2-2 2.2Z" class="&lt;Path&gt;" opacity=".2" style="mix-blend-mode:multiply"/>
          </g>
          <path fill="#F3F4F5" stroke="#050505" stroke-linecap="round" stroke-linejoin="round" stroke-width=".4" d="M20.9 43.9c.3-1.7 0-.1.4-2 .6-3.3 2-5.3 2-5.3 1.1-1.8 3.2-2.5 4.8-1.6l.6.3c1.5.8 2.4 2.6 1.2 4.9 0 0-.8 1-1.3 3.3-.3 1.6-.4 1.9-.4 1.9l-7.3-1.5Z" class="&lt;Path&gt;"/>
          <path fill="#0B0C0E" d="M20.9 43.9c.3-1.7 0-.1.4-2 .6-3.3 2-5.3 2-5.3 1.1-1.8 3.2-2.5 4.8-1.6l.6.3c.133.067.3.167.5.3-.4.1-.6.2-.6.2s-2.6-.1-4 3.6c-1 2.4-1 3-1.3 5l-2.4-.5Z" class="&lt;Path&gt;" opacity=".3"/>
        </g>
        <g class="cabeza">
          <path fill="#2B2011" stroke="#050505" stroke-linecap="round" stroke-linejoin="round" stroke-width=".4" d="M45.1 20.1s4.2 4 9 6.9c5.3 3.2 6.2 5.2 4.9 5.6-2.3.6-5.7.1-5.7.1s1.4 3 2.1 3.8c.7.9-.8 1.1-2.6.6-1.7-.4-2.6-.7-2.6-.7s1 3.3.3 3.7c-.6.5-3.6 1.1-7.2.3-3.7-.8 1.8-20.3 1.8-20.3Zm-28.6-2.3S8.9 21 7.7 26.6c-.3 1.5 3.1.7 3.1.7s-1.5 5-.4 9.1c.4 1.1 3.1 0 3.1 0s.8 2.6 3.5 4.3c2.6 1.8 7-1.1 7-1.1l2.9-24.4-10.4 2.6Z" class="&lt;Path&gt;"/>
          <g class="&lt;Group&gt;">
            <path fill="#A27448" d="M16.2 23.8c-.5 10 2.8 18.3 17.1 19.9 9.2 1 16.5-7.2 16.9-16.8.4-9.7-7.8-18-17.1-18.4-9.2-.4-16.5 5.6-16.9 15.3Z" class="&lt;Path&gt;"/>
            <path fill="#C68C56" d="M18.4 25.6c-.4 9.2 2 16.7 15.5 17.4 8.7.3 16.2-6.9 16.6-16.1.4-9.3-5.8-11.3-14.5-11.7-8.8-.3-17.2 1.1-17.6 10.4Z" class="&lt;Path&gt;"/>
            <path fill="#BC7C54" stroke="#050505" stroke-width=".4" d="M15.7 22.3c-.4 9.8.3 20 17.5 21.2C56.9 45 50 36 50.5 26.3c.4-9.7-8.6-17.4-17.8-17.8-9.3-.4-16.5 4.1-17 13.8Z" class="&lt;Path&gt;"/>
            <path fill="#DCDEDD" d="M35.5 19c.6 1.1-4.5 2.9-4.5 2.9s-3.2 5.1-3.1 8.4c0 0-2.9.5-2.9 3.7.1 2.8-.1 7.7 6.1 9.3-15.2-1.9-15.8-11.6-15.4-21 .067-1.667.333-3.167.8-4.5 12.8.2 18.5.2 19 1.2Z" class="&lt;Path&gt;" style="mix-blend-mode:multiply"/>
          </g>
          <g class="&lt;Path&gt;">
            <path fill="#2B2011" d="M14.9 21.7c6.1-.8 14.4 1.2 14.4 1.2s-2.9 4.6-3.7 7.8c0 0-1.1-.5-1.7-1.4-.6-.8-1.3 3.1-1.4 5.7-.1 2.5-1.7.9-1.7.9s-1.8.6-2 2.7c0 0-.2 1-3-1.5-2.8-2.6-2.5-4.7-2.5-4.7"/>
            <path stroke="#050505" stroke-linecap="round" stroke-linejoin="round" stroke-width=".4" d="M14.9 21.7c6.1-.8 14.4 1.2 14.4 1.2s-2.9 4.6-3.7 7.8c0 0-1.1-.5-1.7-1.4-.6-.8-1.3 3.1-1.4 5.7-.1 2.5-1.7.9-1.7.9s-1.8.6-2 2.7c0 0-.2 1-3-1.5-2.8-2.6-2.5-4.7-2.5-4.7"/>
          </g>
          <path fill="#DCDEDD" d="M26.1 23.6s-1.8 2.2-2.1 3.1c-.4 1-1.6-2.5-2.1-1.7-.5.7-2.9 5.5-3.7 7.7-.9 2.1-2.8-.3-3.3-2-.5-1.8.8-4.1 0-3.7-.8.4-2.6 1.5-2.6 1.5s2-4.2 4.5-6.2c2.6-2.1 9.3 1.3 9.3 1.3Z" class="&lt;Path&gt;" style="mix-blend-mode:multiply"/>
          <g class="&lt;Group&gt;">
            <path fill="#FCC917" stroke="#050505" stroke-linecap="round" stroke-linejoin="round" stroke-width=".4" d="M51 24.3s.8-6-.1-6.7c0 0-7.7.1-12.7 0-9.2-.3-19.3-.8-21.7-1.4-.6-.2-.8.8-.9 3.4 0 2.6.3 3.8.3 3.8s13.2 1.2 23.6 1.3c5.9.1 11.5-.4 11.5-.4Z" class="&lt;Path&gt;"/>
            <g class="&lt;Group&gt;">
              <path fill="#A51E22" d="M49.4 18.4c0-.2.2-.2.3 0l1.2 1.7c.1.2.1.4.1.6l-.1 1.1c0 .1-.1.4-.2.5l-1.1 1.4c-.1.1-.3.1-.4-.1l-1.4-2.2c-.1-.2-.1-.4 0-.5l1.6-2.5Z" class="&lt;Path&gt;"/>
            </g>
            <g class="&lt;Group&gt;">
              <path fill="#A51E22" d="M37.8 18.4c.1-.1.3-.1.4 0L40 21c.1.1.1.3 0 .5l-1.8 2.4c-.1.1-.3.1-.4-.1L36 21.4c-.1-.2-.1-.4 0-.5l1.8-2.5Z" class="&lt;Path&gt;"/>
            </g>
            <path fill="#0B0C0E" d="M15.9 23.4s-.3-1.2-.3-3.8c.1-2.6.3-3.6.9-3.4.9.2 2.9.4 5.6.6-.1 4 1.2 5.7 5.2 6.1 4 .5 18.2.5 21.4.3 1.4 0 2.2-.6 2.6-1.3-.1 1.3-.3 2.4-.3 2.4s-5.6.5-11.5.4c-10.4-.1-23.6-1.3-23.6-1.3Z" class="&lt;Path&gt;" opacity=".3"/>
            <path stroke="#2D1114" stroke-dasharray=".4 .4" stroke-linecap="round" stroke-linejoin="bevel" stroke-width=".4" d="m48.7 23.7-3.5-5.3-2.7 5.5-3.6-5.9m-2.1 5.9-3.7-5.7-2.6 5.5-3.4-5.8-3.6 5.2-3.2-5.7-3.8 5" class="&lt;Path&gt;"/>
            <g class="&lt;Group&gt;">
              <path fill="#FFE4AE" d="M44.2 18.1c.1 0 .2.1.2.2l-1.7 3.6c-.1.2-.2.2-.3.1L40 18.3c-.1-.1-.1-.3.1-.3l4.1.1Z" class="&lt;Path&gt;"/>
            </g>
            <g class="&lt;Group&gt;">
              <path fill="#FFE4AE" d="M29.3 23.6c.1 0 .2-.1.1-.2l-2.1-3.3c-.1-.2-.2-.2-.3 0l-1.9 3c-.1.1 0 .2.1.2l4.1.3Z" class="&lt;Path&gt;"/>
            </g>
          </g>
          <g class="&lt;Path&gt;">
            <path fill="#2B2011" d="M13.9 25c1.4-1.8 7.2-7.4 7.2-7.4s-1.6 4-.9 3.6c.7-.3 12.9-4.4 11.4-2.8-1.5 1.5-1.6 4.3-1.6 4.3 2.7-2.2 6.5-3.7 8.8-4.5 1.1-.4 4.5 1.9 4.5 1.9 1.4-.1.2-2.4 1.4-2.5 8.6-.1 13.5 2.4 13 1.6-1.4-8.1-11-11.8-11-11.8l2.2-5.1c-7.3-.5-17.5 2.9-17.5 2.9s1.7-5.2.4-5.2c-.4 0-4.1.8-8 5.2-1.8-5.2-5.9.5-9.4 7.4-6.3 1.6-9.6 5.5-9 7.3.4 1.1 6.3 2.7 6.3 2.7"/>
            <path stroke="#050505" stroke-linecap="round" stroke-linejoin="round" stroke-width=".4" d="M13.9 25c1.4-1.8 7.2-7.4 7.2-7.4s-1.6 4-.9 3.6c.7-.3 12.9-4.4 11.4-2.8-1.5 1.5-1.6 4.3-1.6 4.3 2.7-2.2 6.5-3.7 8.8-4.5 1.1-.4 4.5 1.9 4.5 1.9 1.4-.1.2-2.4 1.4-2.5 8.6-.1 13.5 2.4 13 1.6-1.4-8.1-11-11.8-11-11.8l2.2-5.1c-7.3-.5-17.5 2.9-17.5 2.9s1.7-5.2.4-5.2c-.4 0-4.1.8-8 5.2-1.8-5.2-5.9.5-9.4 7.4-6.3 1.6-9.6 5.5-9 7.3.4 1.1 6.3 2.7 6.3 2.7"/>
          </g>
          <path stroke="#050505" stroke-linecap="round" stroke-linejoin="bevel" stroke-width=".4" d="M43.9 35.1c.4-1-1-.8-1-.8l-2.6.4s-1.1 0-1.2-.3" class="&lt;Path&gt;"/>
          <path fill="#DCDEDD" d="M42.9 36.2s.5-.5-.5-.4c-1 .1-3.3.7-3.3.7s2.5 0 3.8-.3Z" class="&lt;Path&gt;" style="mix-blend-mode:multiply"/>
          <path fill="#fff" d="M46.7 31.5c-1.2-.2-2.1-1-1.9-1.8.1-.9 1.3-1.4 2.5-1.2 1.2.2 2 1 1.9 1.8-.2.9-1.3 1.4-2.5 1.2Z" class="&lt;Path&gt;"/>
          <g class="Clip path group">
            <mask id="e" width="6" height="4" x="44" y="28" class="e" maskUnits="userSpaceOnUse" style="mask-type:luminance">
              <g class="cp192">
                <path fill="#fff" d="M46.67 31.52c-1.21-.18-2.06-1-1.9-1.83.16-.84 1.28-1.38 2.5-1.2 1.21.17 2.06.99 1.9 1.82-.17.84-1.28 1.38-2.5 1.21Z" class="Vector"/>
              </g>
            </mask>
            <g class="&lt;Clip Group&gt;" mask="url(#e)">
              <path fill="#09090A" d="M45.5 29.7c0 1 .6 1.7 1.4 1.8.8 0 1.4-.7 1.5-1.6 0-1-.6-1.7-1.4-1.8-.7 0-1.4.7-1.5 1.6Z" class="&lt;Path&gt;"/>
              <path fill="#fff" d="M46 29.3c0 .2.1.4.3.4.1 0 .2-.1.3-.4 0-.2-.1-.4-.3-.4-.1 0-.2.2-.3.4Z" class="&lt;Path&gt;"/>
            </g>
          </g>
          <path fill="#fff" d="M32.1 31.6c1.3-.1 2.3-.9 2.2-1.8-.2-.9-1.3-1.5-2.6-1.4-1.3.1-2.3.9-2.1 1.8.1.9 1.3 1.6 2.5 1.4Z" class="&lt;Path&gt;"/>
          <g class="Clip path group">
            <mask id="f" width="6" height="4" x="29" y="28" class="f" maskUnits="userSpaceOnUse" style="mask-type:luminance">
              <g class="cp193">
                <path fill="#fff" d="M32.15 31.65c1.29-.12 2.24-.94 2.11-1.84-.13-.89-1.28-1.52-2.58-1.41-1.3.12-2.24.94-2.11 1.84.12.89 1.28 1.52 2.58 1.41Z" class="Vector"/>
              </g>
            </mask>
            <g class="&lt;Clip Group&gt;" mask="url(#f)">
              <path fill="#09090A" d="M33.8 29.7c0 1-.7 1.8-1.6 1.8-.8 0-1.5-.8-1.5-1.8s.7-1.8 1.5-1.8c.9 0 1.6.8 1.6 1.8Z" class="&lt;Path&gt;"/>
              <path fill="#fff" d="M31.4 29.2c0 .2.1.4.2.4.2 0 .3-.1.3-.4 0-.2-.1-.4-.2-.4-.2 0-.3.2-.3.4Z" class="&lt;Path&gt;"/>
            </g>
          </g>
          <g class="&lt;Group&gt;">
            <path fill="#A35E3F" d="M40 32.8s1.6.2 2.4.1c.8 0 1.7-.3 1.7-.9 0 0-1.1.3-2.6.2-1.5-.1-2.2-.2-2.3-.8 0 0-.5 1.2.8 1.4Z" class="&lt;Path&gt;"/>
            <g class="&lt;Group&gt;">
              <path stroke="#050505" stroke-linecap="round" stroke-linejoin="bevel" stroke-width=".4" d="M44.1 31s.2.6-.2.9c-.4.2-2.8.3-4 0-.6-.1-.5-.9-.5-.9" class="&lt;Path&gt;"/>
            </g>
          </g>
          <path stroke="#050505" stroke-linecap="round" stroke-width=".6" d="M46 26.9s.7-.2 1.5-.1c.9.2 1.1 0 1.1 0m-15.4-.6s-1.1-.2-2 0c-1.2.2-1.7.2-1.7.2" class="&lt;Path&gt;"/>
          <path fill="#050505" d="M37.5 34.6c0 .8 1.5 1.5 3.5 1.6 2 .1 3.6-.5 3.7-1.3 0-.8-1.6-1.6-3.5-1.7-2-.1-3.7.5-3.7 1.4Z" class="&lt;Path&gt;"/>
        </g>
      </g>
    </g>
    <g class="numero">
      <g class="&lt;Group&gt;">
        <path fill="#050505" d="m24.8 62 2.8-.1.3 10.8-3.2.1-.2-7.8-2 .5-.1-2.8 2.4-.7Z" class="&lt;Compound Path&gt;"/>
        <path fill="#050505" fill-rule="evenodd" d="m30.1 72.7 2.1-3.3c-1.867-.2-2.833-1.5-2.9-3.9 0-1.067.367-1.967 1.1-2.7.733-.8 1.7-1.2 2.9-1.2 1.2-.067 2.2.267 3 1 .733.733 1.1 1.633 1.1 2.7.067.867-.167 1.7-.7 2.5l-3 4.8-3.6.1Zm3.3-6.1c.533 0 .767-.367.7-1.1 0-.733-.267-1.1-.8-1.1s-.8.367-.8 1.1c0 .733.3 1.1.9 1.1Z" class="&lt;Compound Path&gt;" clip-rule="evenodd"/>
      </g>
      <g class="&lt;Group&gt;">
        <path fill="#FEFEFE" d="m26.1 60.8 2.7-.1.4 10.8-3.3.1-.2-7.8c-.733.2-1.4.367-2 .5l-.1-2.8 2.5-.7Z" class="&lt;Compound Path&gt;"/>
        <path fill="#FEFEFE" fill-rule="evenodd" d="m31.4 71.4 2-3.3c-1.867-.133-2.833-1.4-2.9-3.8 0-1.067.366-2 1.1-2.8.733-.733 1.7-1.1 2.9-1.1 1.2-.067 2.2.267 3 1 .733.733 1.133 1.633 1.2 2.7 0 .8-.267 1.633-.8 2.5l-3 4.7-3.5.1Zm3.3-6c.533-.067.8-.433.8-1.1 0-.733-.3-1.1-.9-1.1-.534 0-.8.367-.8 1.1.067.733.367 1.1.9 1.1Z" class="&lt;Compound Path&gt;" clip-rule="evenodd"/>
      </g>
    </g>
    <g class="texto">
      <path fill="#6A4C9E" d="m85.4 97.3-72.6 5.1-.4-4.9L85 92.4l.4 4.9ZM82 87.8l-63.1 4.1-.4-4.9 63.1-4.1.4 4.9Z" class="&lt;Path&gt;"/>
      <g class="&lt;Group&gt;">
        <g class="&lt;Group&gt;">
          <path fill="#FEFEFE" fill-rule="evenodd" d="m25.6 84.9 2.3 7.7-2.5.1-.2-.8-2.6.2-.3.8-2.5.2 3.5-8.1 2.3-.1Zm-2.1 5 1-.1-.4-1.6-.6 1.7Zm5.1 2.6.6-7.9 3.4-.2h.3c.133 0 .333.033.6.1.333.067.6.167.8.3.2.133.4.333.6.6.133.267.2.6.2 1a2.9 2.9 0 0 1-.7 1.6c.533.4.767.967.7 1.7-.133 1.6-1.267 2.467-3.4 2.6l-3.1.2Zm2.5-2.3 1-.1c.333 0 .5-.167.5-.5.1-.2-.1-.3-.4-.3h-1l-.1.9Zm.2-2.5.9-.1c.2 0 .4-.1.4-.4 0-.4-.2-.5-.3-.4h-1v.9Zm9-3.9c1.133-.067 2.067.267 2.8 1 .733.733 1.066 1.7 1 2.9a4.778 4.778 0 0 1-1.4 2.9c-.867.867-1.867 1.333-3 1.4-1.2.067-2.167-.267-2.9-1-.733-.733-1.033-1.667-.9-2.8.067-1.2.533-2.2 1.4-3 .8-.867 1.8-1.333 3-1.4Zm-.5 6c.467-.067.9-.3 1.3-.7.333-.333.533-.767.6-1.3 0-.533-.133-.967-.4-1.3a1.637 1.637 0 0 0-1.2-.5c-.467.067-.867.3-1.2.7-.333.333-.533.767-.6 1.3-.067.533.067.967.4 1.3.267.333.633.5 1.1.5Zm12.1 1.3-2.9.1-1.4-1.8h-.3l-.1 2-2.3.1.6-7.9 3.2-.2c.1 0 .2 0 .6.1.4 0 .8.1 1.2.4.5.3.8.6 1 1.2.066.333.1.7.1 1.1-.133 1.133-.633 1.967-1.5 2.5l1.8 2.4Zm-4.2-5.3-.2 1.4h.9c.467-.067.7-.333.7-.8.1-.5-.2-.7-.5-.7l-.9.1Z" class="&lt;Compound Path&gt;" clip-rule="evenodd"/>
          <path fill="#FEFEFE" d="m52.5 91 .6-7.8 2.4-.2-.6 7.9-2.4.1Zm9.8-5.4c-.2-.4-.467-.633-.8-.7a4.21 4.21 0 0 0-1-.1c-.467 0-.867.2-1.2.6-.4.4-.6.833-.6 1.3-.067.533.066.967.4 1.3.267.4.633.567 1.1.5.333 0 .633-.067.9-.2.2-.133.333-.267.4-.4l.1-.2-1.5.1.2-1.8 4-.3-.1 1.6c-.2.9-.6 1.6-1.1 2.1-.2.2-.433.4-.7.6a4.44 4.44 0 0 0-.8.4 9.56 9.56 0 0 0-.7.2 2.72 2.72 0 0 1-.6.1h-.2c-1.2.067-2.167-.267-2.9-1-.733-.733-1.033-1.667-.9-2.8.067-1.133.533-2.133 1.4-3 .866-.8 1.866-1.233 3-1.3 1.533-.133 2.666.433 3.4 1.7l-1.8 1.3Zm5.5-1.1-.1.7 3.1-.2-.2 2.1-3.1.1v.7l3.3-.2-.2 2.2-5.6.4.6-7.9 5.7-.3-.2 2.2-3.3.2Zm11.5-2.9-.6 7.8-2.2.1-2.2-3.2-.2 3.4-2.4.1.6-7.8 2.1-.1 2.3 3.2.2-3.4 2.4-.1Z" class="&lt;Compound Path&gt;"/>
        </g>
      </g>
      <g class="&lt;Group&gt;">
        <g class="&lt;Group&gt;">
          <path fill="#FEFEFE" fill-rule="evenodd" d="m19.5 95.6 2.2 7.7-2.5.1-.2-.8-2.5.2-.4.8-2.5.2 3.5-8.1 2.4-.1Zm-2.1 5 1.1-.1-.4-1.6-.7 1.7Z" class="&lt;Compound Path&gt;" clip-rule="evenodd"/>
          <path fill="#FEFEFE" d="m26.9 102-.6.1-1.3-2.3-.2 3.3-2.3.1.6-7.8 2.1-.2 1.7 2.9 2.2-3.1 2.2-.2-.6 7.9-2.4.2.3-3.3-1.7 2.4Zm7.8-5.2-.1.8 3.1-.2-.2 2-3 .2-.1.7 3.3-.2-.1 2.2-5.7.3.6-7.8 5.7-.4-.2 2.2-3.3.2Z" class="&lt;Compound Path&gt;"/>
          <path fill="#FEFEFE" fill-rule="evenodd" d="m45.6 101.8-2.8.2-1.5-1.9h-.2l-.1 2-2.4.1.6-7.8 3.3-.2s.1-.1.6 0c.4.1.7.1 1.2.4.4.3.8.6.9 1.3.133.267.167.6.1 1-.067 1.133-.567 1.967-1.5 2.5l1.8 2.4Zm-4.2-5.3-.1 1.4h.9c.4-.067.633-.333.7-.8 0-.5-.2-.7-.6-.7l-.9.1Z" class="&lt;Compound Path&gt;" clip-rule="evenodd"/>
          <path fill="#FEFEFE" d="m46.3 101.7.6-7.8 2.3-.2-.6 7.9-2.3.1Zm11.9-4c-.267 1-.833 1.867-1.7 2.6-.8.667-1.7 1.033-2.7 1.1-1.133.067-2.067-.267-2.8-1-.733-.733-1.067-1.667-1-2.8.133-1.133.6-2.133 1.4-3 .867-.8 1.867-1.233 3-1.3 1.067-.067 1.933.2 2.6.8.733.6 1.167 1.4 1.3 2.4l-2.6.1a1.28 1.28 0 0 0-.5-.8c-.267-.2-.567-.3-.9-.3-.467 0-.9.2-1.3.6a2.66 2.66 0 0 0-.6 1.4c0 .467.133.867.4 1.2.333.4.733.567 1.2.5.333 0 .633-.133.9-.4.333-.267.6-.567.8-.9l2.5-.2Z" class="&lt;Compound Path&gt;"/>
          <path fill="#FEFEFE" fill-rule="evenodd" d="m63.8 92.8 2.3 7.7-2.5.2-.2-.8-2.6.1-.3.9-2.5.1 3.5-8 2.3-.2Zm-2.1 4.9h1l-.4-1.7-.6 1.7Z" class="&lt;Compound Path&gt;" clip-rule="evenodd"/>
          <path fill="#FEFEFE" d="m74.4 92.2-.6 7.8-2.2.2-2.2-3.3-.2 3.4-2.4.2.6-7.9 2.1-.1 2.3 3.3.3-3.5 2.3-.1Z" class="&lt;Compound Path&gt;"/>
          <path fill="#FEFEFE" fill-rule="evenodd" d="M79.6 91.7c1.133-.067 2.067.267 2.8 1 .733.733 1.067 1.667 1 2.8-.067 1.2-.533 2.2-1.4 3-.867.867-1.867 1.333-3 1.4-1.2.067-2.167-.267-2.9-1-.733-.733-1.033-1.667-.9-2.8.066-1.2.533-2.2 1.4-3 .867-.867 1.867-1.333 3-1.4Zm-.5 6c.467-.067.9-.3 1.3-.7.333-.333.533-.767.6-1.3 0-.533-.133-.967-.4-1.3a1.636 1.636 0 0 0-1.2-.5c-.467.067-.867.3-1.2.7-.334.333-.534.767-.6 1.3-.067.533.067.967.4 1.3.267.333.633.5 1.1.5Z" class="&lt;Compound Path&gt;" clip-rule="evenodd"/>
        </g>
      </g>
      <g class="&lt;Group&gt;">
        <g class="&lt;Group&gt;">
          <path fill="#FEFEFE" fill-rule="evenodd" d="M45.4 74c1-.1 2.1-.1 1.8 3.2-.3 2.9-1.3 3.1-2.8 3.2l-.5.1.6-6.4.9-.1Zm-.2.7-.5 4.9c1.4 0 1.5-1.3 1.6-2.4.1-1 .3-2.7-1.1-2.5Z" class="&lt;Compound Path&gt;" clip-rule="evenodd"/>
          <path fill="#FEFEFE" d="M48.4 80.2h-.8l.6-6.4h.8l-.6 6.4Zm.2-6.7-.4-.2.8-1.3.5.3-.9 1.2Z" class="&lt;Compound Path&gt;"/>
          <path fill="#FEFEFE" fill-rule="evenodd" d="m51.4 73.6.8 6.3-.9.1-.1-1.2h-1.3l-.3 1.3-.9.1 2-6.5.7-.1Zm-.3 3.5-.1-2.3-.8 3.3h1l-.1-1Zm4.5-3.7c1-.1 2.1-.1 1.8 3.2-.3 2.9-1.3 3.1-2.8 3.2H54l.6-6.4h1Zm-.1.8-.5 4.9c1.4 0 1.4-1.3 1.5-2.4.1-1 .4-2.7-1-2.5Z" class="&lt;Compound Path&gt;" clip-rule="evenodd"/>
          <path fill="#FEFEFE" d="m60.6 73.1-.1.7-1.4.1-.2 2 1.3-.1-.1.8h-1.3l-.2 2.2 1.5-.1-.1.8-2.3.1.6-6.4 2.3-.1Zm1.3-.1-.6 5.6h1.5l-.1.7-2.3.1.6-6.4h.9Z" class="&lt;Compound Path&gt;"/>
        </g>
      </g>
    </g>
  </g>
  <defs>
    <clipPath id="a" class="a">
      <path fill="#fff" d="M0 0h86v118H0z"/>
    </clipPath>
  </defs>
</svg>
