<svg width="83" height="106" viewBox="0 0 83 106" fill="none" xmlns="http://www.w3.org/2000/svg">
<g clip-path="url(#clip0_281_123549)">
<path d="M71.3999 92.1999L1 85.6999L6.5 21.1999L73.7 25.3L71.3999 92.1999Z" fill="#20B04B"/>
<path d="M80.2001 106.5L2.5 86.3L71.3999 92.1999L73.7 25.3L82.2001 46.5L80.2001 106.5Z" fill="#116432"/>
<path d="M12.2001 100L1 85.6999L71.2001 92L80.2001 106.5L12.2001 100Z" fill="#56B846"/>
<mask id="mask0_281_123549" style="mask-type:alpha" maskUnits="userSpaceOnUse" x="1" y="85" width="80" height="22">
<path d="M12.2001 100L1 85.6999L71.2001 92L80.2001 106.5L12.2001 100Z" fill="#56B846"/>
</mask>
<g mask="url(#mask0_281_123549)">
<mask id="mask1_281_123549" style="mask-type:luminance" maskUnits="userSpaceOnUse" x="0" y="85" width="123" height="114">
<path d="M122.65 179.42L72.74 198.55L0.959961 85.6899L71.4099 92.15L122.65 179.42Z" fill="white"/>
</mask>
<g mask="url(#mask1_281_123549)">
<path d="M0.0999756 31.6999L89.5 180.5" stroke="#A3D187" stroke-width="0.4"/>
<path d="M0.299927 38.0999L89.7 186.9" stroke="#A3D187" stroke-width="0.4"/>
<path d="M0.599976 44.4999L82.5 181.1" stroke="#A3D187" stroke-width="0.4"/>
<path d="M0.899902 50.9L82.7999 187.4" stroke="#A3D187" stroke-width="0.4"/>
<path d="M1.09998 57.3L75.2 180.8" stroke="#A3D187" stroke-width="0.4"/>
<path d="M1.3999 63.6999L75.3999 187.2" stroke="#A3D187" stroke-width="0.4"/>
<path d="M1.59998 69.9999L75.7 193.6" stroke="#A3D187" stroke-width="0.4"/>
<path d="M1.8999 76.4L75.2999 199.3" stroke="#A3D187" stroke-width="0.4"/>
<path d="M2.19995 82.8L74.2999 206.3" stroke="#A3D187" stroke-width="0.4"/>
<path d="M2.09998 89.1999L73.1 211.1" stroke="#A3D187" stroke-width="0.4"/>
<path d="M2.8999 100.1L63.5 200.1" stroke="#7A61A9" stroke-width="0.4"/>
<path d="M3 103.3L63.6 203.3" stroke="#7A61A9" stroke-width="0.4"/>
<path d="M38.2999 70.9L106.2 183.8" stroke="#A3D187" stroke-width="0.4"/>
<path d="M37.8999 77.3L100.4 180" stroke="#A3D187" stroke-width="0.4"/>
<path d="M38.2 83.6999L98.3999 182.7" stroke="#A3D187" stroke-width="0.4"/>
<path d="M35 84.1999L93.7 181.3" stroke="#A3D187" stroke-width="0.4"/>
<path d="M53.6 70.9L121.5 183.8" stroke="#A3D187" stroke-width="0.4"/>
<path d="M57.2999 70.9L125.2 183.8" stroke="#A3D187" stroke-width="0.4"/>
<path d="M53.2 77.3L115.3 179.3" stroke="#A3D187" stroke-width="0.4"/>
<path d="M53.6 83.6999L113.8 182.7" stroke="#A3D187" stroke-width="0.4"/>
<path d="M50.3999 84.1999L108.2 180" stroke="#A3D187" stroke-width="0.4"/>
</g>
</g>
<path d="M63.7007 36.7173L63.8007 36.8173C63.8007 36.9173 62.8007 37.8173 62.5007 38.0173C62.0007 37.3173 61.7007 36.5173 61.3007 35.8173C61.7007 35.6173 62.2006 35.2173 62.4006 35.2173C62.7006 35.4173 63.3007 36.3173 63.7007 36.7173Z" fill="#DCAF73"/>
<path d="M66.0007 33.6173C65.8007 33.4173 65.5007 33.1172 65.3007 32.9172C65.6007 32.6172 65.8007 32.5172 66.1007 32.4172C66.3007 32.2172 66.6006 32.2172 66.4006 32.9172C66.334 33.1172 66.2007 33.3506 66.0007 33.6173Z" fill="#DCAF73"/>
<path d="M65.2007 34.8173C65.0007 34.4173 64.5007 33.9173 64.3007 33.8173C64.5007 33.6173 64.7006 33.4173 64.9006 33.3173C65.2006 33.2173 65.6007 33.6173 65.8007 33.9173C65.6007 34.1839 65.4007 34.484 65.2007 34.8173Z" fill="#DCAF73"/>
<path d="M64.0007 36.6173C63.7007 36.1173 62.9007 35.2172 62.8007 34.9172C63.0007 34.7172 63.6007 34.3173 64.0007 34.0173C64.4007 34.1173 64.9007 34.7173 65.1007 35.0173C64.6007 35.6173 64.2007 36.3173 64.0007 36.6173Z" fill="#DCAF73"/>
<path d="M62.1007 38.3173C62.1007 38.3839 62.0674 38.4173 62.0007 38.4173C61.4007 38.8173 60.8007 39.1173 60.3007 39.4173C60.1673 39.0173 60.034 38.6173 59.9006 38.2173C59.9006 38.2173 59.9006 38.184 59.9006 38.1173C59.9006 38.0507 59.9006 37.9839 59.9006 37.9173C59.834 37.9173 59.8007 37.9173 59.8007 37.9173C59.8007 37.8506 59.8007 37.784 59.8007 37.7173C59.734 37.584 59.7007 37.4506 59.7007 37.3173C59.7007 37.2506 59.6674 37.2173 59.6007 37.2173C59.6007 37.1506 59.6007 37.1173 59.6007 37.1173C59.6007 37.0507 59.634 36.9839 59.7007 36.9173C59.9007 36.7839 60.134 36.6173 60.4006 36.4173C60.4673 36.4173 60.534 36.3839 60.6007 36.3173C60.6674 36.2506 60.734 36.2173 60.8007 36.2173C60.9007 36.1173 61.0007 36.1173 61.1007 36.3173C61.1007 36.3173 61.134 36.3506 61.2007 36.4173C61.2007 36.4839 61.234 36.5507 61.3007 36.6173C61.3007 36.684 61.334 36.7506 61.4006 36.8173C61.4006 36.8839 61.4341 36.9507 61.5007 37.0174C61.6341 37.284 61.7673 37.5506 61.9006 37.8173C61.9006 37.8839 61.9341 37.984 62.0007 38.1173C62.0674 38.184 62.1007 38.2506 62.1007 38.3173Z" fill="#DCAF73"/>
<path d="M57.1007 38.8173C57.034 38.8173 57.0007 38.8173 57.0007 38.8173C56.9341 38.8173 56.9006 38.8506 56.9006 38.9172C56.834 38.9172 56.7674 38.9507 56.7007 39.0173C56.5674 39.084 56.4673 39.1506 56.4006 39.2173C56.2673 39.2173 56.1674 39.2506 56.1007 39.3173C55.1674 39.7839 54.1674 40.1173 53.1007 40.3173C53.0007 40.4173 52.8007 40.4172 52.5007 40.4172C54.0007 37.8172 54.3006 35.0173 53.9006 32.1173C54.3006 32.184 54.6674 32.184 55.0007 32.1173C55.0674 32.1173 55.1007 32.1173 55.1007 32.1173C55.1007 32.1173 55.134 32.1173 55.2007 32.1173C55.2674 32.0506 55.3007 32.0173 55.3007 32.0173C55.3673 32.0173 55.4006 32.0173 55.4006 32.0173C55.4673 32.0173 55.5007 32.0173 55.5007 32.0173C55.5674 32.0173 55.6007 31.9839 55.6007 31.9172C55.6674 31.9172 55.7007 31.9172 55.7007 31.9172C55.7674 31.9172 55.8007 31.9172 55.8007 31.9172C55.8673 31.9172 55.9006 31.8839 55.9006 31.8173C55.9673 31.8173 56.034 31.784 56.1007 31.7173C56.1007 31.7173 56.134 31.7173 56.2007 31.7173C56.2007 31.7173 56.234 31.684 56.3007 31.6173C56.3007 31.6173 56.334 31.6173 56.4006 31.6173C56.4006 31.5506 56.4341 31.5173 56.5007 31.5173C56.5007 31.5173 56.534 31.4839 56.6007 31.4172C56.6007 31.4172 56.634 31.4172 56.7007 31.4172C56.7007 31.3506 56.734 31.3173 56.8007 31.3173C56.8007 31.3173 56.8007 31.284 56.8007 31.2173C56.8673 31.1506 56.9341 31.084 57.0007 31.0173C57.0007 31.0173 57.034 31.0173 57.1007 31.0173C57.1674 30.884 57.234 30.784 57.3007 30.7173C57.3673 30.6506 57.4006 30.584 57.4006 30.5173C57.4673 30.4507 57.534 30.3839 57.6007 30.3173C57.6007 30.2506 57.634 30.184 57.7007 30.1173C57.7007 30.1173 57.7007 30.084 57.7007 30.0173C57.8007 29.8173 58.2006 29.8173 58.4006 29.6173C58.8006 29.4173 59.3006 29.2173 59.9006 28.8173C60.2006 29.5173 60.5007 30.2173 60.6007 30.8173C61.1007 33.9173 60.3007 36.4173 57.7007 38.3173C57.5007 38.4506 57.3007 38.6173 57.1007 38.8173Z" fill="#D84E48"/>
<path d="M59.7007 39.7173C59.1007 39.9173 58.4007 40.1172 57.6007 40.4172C57.6007 39.8172 57.6007 39.3172 57.6007 38.9172C57.7007 38.9172 58.8006 38.1173 59.4006 37.6173C59.4006 37.684 59.4006 37.7173 59.4006 37.7173C59.4673 37.7173 59.5007 37.7506 59.5007 37.8173C59.5007 37.8839 59.5007 37.9172 59.5007 37.9172C59.5674 37.9172 59.6007 37.9507 59.6007 38.0173C59.6007 38.084 59.634 38.1506 59.7007 38.2173C59.7007 38.2173 59.7007 38.2506 59.7007 38.3173C59.7674 38.7173 59.7674 39.184 59.7007 39.7173Z" fill="#DCAF73"/>
<path fill-rule="evenodd" clip-rule="evenodd" d="M33.7007 10.4172C34.1007 9.81724 34.9007 9.71729 35.7007 10.2173C36.0007 10.3173 36.2006 10.6172 36.4006 10.9172C36.6006 11.1172 36.8007 10.7173 35.2007 9.61731C35.6007 9.31731 36.0006 9.21724 36.4006 9.41724C37.2006 9.81724 38.0006 10.7173 36.4006 9.21729C36.9006 9.11729 37.3007 9.01733 37.6007 9.01733C39.5007 8.71733 41.0006 7.91731 41.9006 6.11731C42.1006 5.61731 42.6007 5.31733 43.1007 5.01733C43.834 4.61733 44.5673 4.35062 45.3007 4.21729C46.5007 3.95062 47.7006 4.01724 48.9006 4.41724C49.3006 4.51724 49.6006 4.81733 49.9006 5.01733C50.4006 5.61733 50.9006 6.21729 51.4006 6.71729C52.2006 6.51729 52.4006 6.41726 52.4006 5.81726C54.2006 4.81726 55.9007 3.71731 58.1007 3.61731C59.8007 3.61731 61.1007 4.61726 61.3007 6.31726C61.3673 6.91726 61.1674 7.38395 60.7007 7.71729C60.1007 8.21729 59.3007 8.41724 58.5007 8.41724C57.4007 8.31724 56.3007 8.11731 55.3007 8.11731C54.6007 8.01731 54.0006 8.31724 53.4006 8.41724C53.4006 8.4839 53.4006 8.55064 53.4006 8.61731C52.9006 10.5173 52.8007 12.2173 53.2007 14.0173C53.4007 15.2173 53.2007 15.5172 52.1007 15.9172C50.3007 16.6172 48.4007 16.7173 46.5007 16.7173C44.9007 16.7173 43.2007 16.6173 41.6007 16.0173C41.2007 15.9173 40.7007 15.8173 40.6007 15.1173C41.5007 15.1173 42.3007 15.2173 43.1007 15.3173C43.5007 15.3173 44.1007 15.3173 44.5007 15.2173C45.0007 15.1173 45.2007 14.7173 45.0007 14.2173C44.7007 15.1173 44.0007 15.1173 43.2007 15.0173C41.1007 14.8173 38.9007 14.5173 36.7007 14.7173C36.3007 14.784 35.934 14.8506 35.6007 14.9172C34.9007 15.0172 34.4007 14.8173 34.1007 14.2173C33.434 13.284 33.2006 12.2173 33.4006 11.0173C33.4673 10.8173 33.5674 10.6172 33.7007 10.4172ZM45.9006 13.7173C46.2006 13.8173 46.5007 13.8172 46.8007 13.9172C46.8007 13.8506 46.834 13.784 46.9006 13.7173C45.5006 13.3173 44.4006 12.6173 43.9006 11.2173C44.1006 11.3506 44.2673 11.5173 44.4006 11.7173C45.7006 13.1173 47.8007 13.4173 49.3007 12.3173C51.2007 11.0173 51.5007 8.81726 50.6007 7.31726C49.6007 5.51726 46.9007 5.01726 45.1007 6.31726C44.634 6.65059 44.3007 7.05067 44.1007 7.51733C43.9674 7.71733 43.8673 7.95062 43.8007 8.21729C43.8007 8.28395 43.7674 8.35057 43.7007 8.41724C43.634 8.6839 43.5674 8.95062 43.5007 9.21729C43.1007 11.2173 44.0006 13.1173 45.9006 13.7173ZM35.5007 12.7173C35.5674 12.5173 35.634 12.3173 35.7007 12.1173C35.5674 12.1173 35.4673 12.1173 35.4006 12.1173C35.334 12.3173 35.3007 12.5173 35.3007 12.7173C35.3673 12.7173 35.4341 12.7173 35.5007 12.7173ZM34.3007 12.4172C34.3007 12.2172 34.2674 11.984 34.2007 11.7173C34.134 11.7173 34.0674 11.7173 34.0007 11.7173C34.0007 11.984 34.0007 12.2172 34.0007 12.4172C34.1341 12.4172 34.234 12.4172 34.3007 12.4172Z" fill="#DDB073"/>
<path d="M58.5007 8.41723C61.0007 7.81723 61.1007 7.01733 60.7007 6.51733C60.5007 6.11733 60.0007 6.01733 60.0007 6.01733C56.0007 5.71733 54.4007 7.61726 54.0007 8.31726C54.4007 8.21726 54.8007 8.11731 55.3007 8.11731C56.3007 8.11731 57.4007 8.31723 58.5007 8.41723Z" fill="#B9905E"/>
<path d="M51.1007 8.81726C51.1007 10.0173 50.6007 11.4173 49.3007 12.3173C47.8007 13.4173 45.7006 13.1173 44.4006 11.7173C44.3006 11.6173 44.0007 11.2173 43.8007 10.6173C43.8007 11.8173 44.4007 12.2172 44.6007 12.4172C45.8007 13.8172 47.9006 14.1173 49.4006 13.0173C51.0006 11.9173 51.4007 10.2173 51.1007 8.81726Z" fill="#B9905E"/>
<path d="M57.3007 39.2173C57.2007 39.6173 57.2007 40.0172 57.1007 40.4172C56.5007 40.5172 55.9007 40.6173 55.2007 40.6173C55.3007 40.2173 55.7007 39.8173 56.3007 39.6173C56.3673 39.5506 56.4341 39.5173 56.5007 39.5173C56.5674 39.4507 56.634 39.4172 56.7007 39.4172C56.7674 39.3506 56.8674 39.3173 57.0007 39.3173C57.0007 39.3173 57.034 39.3173 57.1007 39.3173C57.1674 39.2506 57.234 39.2173 57.3007 39.2173Z" fill="#B98F62"/>
<path d="M57.4006 18.7173C57.534 18.7173 57.634 18.7506 57.7007 18.8173C57.7674 18.8173 57.8007 18.8173 57.8007 18.8173C57.8673 18.8173 57.9341 18.8173 58.0007 18.8173C58.0007 18.8173 58.034 18.8506 58.1007 18.9172C58.1007 18.9172 58.134 18.9172 58.2007 18.9172C58.2674 18.9172 58.3674 18.9507 58.5007 19.0173C58.5007 19.0173 58.5007 19.0506 58.5007 19.1173C58.7674 19.184 58.9674 19.3173 59.1007 19.5173C59.1674 19.5173 59.2007 19.5173 59.2007 19.5173C59.2007 19.584 59.234 19.6173 59.3007 19.6173C59.434 19.7506 59.534 19.884 59.6007 20.0173C59.6674 20.0173 59.7007 20.0173 59.7007 20.0173C59.7007 20.084 59.734 20.1173 59.8007 20.1173C59.8673 20.2506 59.9341 20.384 60.0007 20.5173C60.0007 20.5173 60.034 20.5173 60.1007 20.5173C60.1674 20.7173 60.2673 20.9173 60.4006 21.1173C60.4673 21.2506 60.5007 21.3506 60.5007 21.4172C60.5674 21.4172 60.6007 21.4507 60.6007 21.5173C60.6007 21.584 60.6007 21.6173 60.6007 21.6173C60.6674 21.684 60.7007 21.7506 60.7007 21.8173C60.7674 22.0173 60.834 22.2507 60.9006 22.5173C60.9006 22.584 60.9006 22.6173 60.9006 22.6173C60.9006 22.684 60.9341 22.7173 61.0007 22.7173C61.0007 22.784 61.0007 22.8173 61.0007 22.8173C61.0007 22.8839 61.0007 22.9507 61.0007 23.0173C61.0007 23.084 61.0007 23.1173 61.0007 23.1173C61.0674 23.4506 61.1007 23.7507 61.1007 24.0173C61.1007 26.6173 59.7007 29.1173 58.0007 29.2173C58.1007 26.7173 57.9007 24.4173 57.2007 22.1173C57.0007 21.3173 56.7674 20.5506 56.5007 19.8173C56.8341 19.4173 57.134 19.0506 57.4006 18.7173Z" fill="#D84F48"/>
<path d="M53.5007 12.5173C53.5674 12.5173 53.634 12.5173 53.7007 12.5173C53.7674 12.5173 53.834 12.5173 53.9006 12.5173C53.9006 12.584 53.9341 12.6173 54.0007 12.6173C54.0007 12.6173 54.034 12.6173 54.1007 12.6173C54.1674 12.6173 54.2007 12.6173 54.2007 12.6173C54.2674 12.6173 54.3007 12.6506 54.3007 12.7173C54.3673 12.7173 54.4341 12.7173 54.5007 12.7173C54.5007 12.7173 54.534 12.7506 54.6007 12.8173C54.6007 12.8173 54.634 12.8173 54.7007 12.8173C54.7674 12.8173 54.834 12.8506 54.9006 12.9172C54.9673 12.9172 55.0007 12.9172 55.0007 12.9172C55.0674 12.9839 55.134 13.0173 55.2007 13.0173C56.3007 13.6173 57.3007 14.7173 57.6007 15.7173C58.0007 16.9173 57.4007 18.6173 56.3007 19.2173C56.2007 19.1173 56.1007 19.0172 56.0007 18.9172C55.4007 18.2172 54.7006 17.8172 53.9006 17.9172C53.834 17.9172 53.734 17.9172 53.6007 17.9172C52.9007 17.8172 52.5006 17.3173 51.9006 16.8173C52.4006 16.7173 52.7007 16.6173 53.0007 16.5173C53.4007 16.2173 54.0006 16.0173 54.4006 15.6173C55.0006 15.1173 54.9007 14.5173 54.2007 14.1173C53.4007 13.7173 53.3007 13.3173 53.5007 12.5173Z" fill="#D84F48"/>
<path d="M61.1007 24.0173C61.1007 23.7507 61.0674 23.4506 61.0007 23.1173C61.0007 23.1173 61.0007 23.084 61.0007 23.0173C61.0007 22.9507 61.0007 22.9172 61.0007 22.9172C60.4007 24.4172 59.1007 25.7173 58.0007 26.3173C58.0674 27.2506 58.0674 28.2173 58.0007 29.2173C59.7007 29.1173 61.1007 26.6173 61.1007 24.0173Z" fill="#B24139"/>
<path d="M57.6007 15.7173C57.3007 14.7173 56.3007 13.6173 55.2007 13.0173C55.134 13.0173 55.0674 12.9839 55.0007 12.9172C55.0007 12.9172 54.9673 12.9172 54.9006 12.9172C54.834 12.8506 54.7674 12.8173 54.7007 12.8173C54.634 12.8173 54.6007 12.8173 54.6007 12.8173C54.534 12.7506 54.5007 12.7173 54.5007 12.7173C54.4341 12.7173 54.3673 12.7173 54.3007 12.7173C54.3007 12.6506 54.2674 12.6173 54.2007 12.6173C54.2007 12.6173 54.1674 12.6173 54.1007 12.6173C54.034 12.6173 54.0007 12.6173 54.0007 12.6173C53.9341 12.6173 53.9006 12.584 53.9006 12.5173C53.834 12.5173 53.7674 12.5173 53.7007 12.5173C53.634 12.5173 53.5674 12.5173 53.5007 12.5173C53.4341 12.7173 53.4006 12.9173 53.4006 13.1173C53.4673 13.1173 53.5007 13.1506 53.5007 13.2173C54.7007 13.8173 55.7007 14.8172 56.0007 15.9172C56.2007 16.7172 56.0007 17.7173 55.5007 18.5173C55.7007 18.6507 55.8674 18.7839 56.0007 18.9172C56.1007 19.0172 56.2007 19.1173 56.3007 19.2173C57.4007 18.6173 58.0007 16.9173 57.6007 15.7173Z" fill="#B24139"/>
<path d="M54.4006 40.5173C54.5006 40.4173 54.6007 40.4173 54.7007 40.3173C54.7007 40.4173 54.7007 40.5173 54.6007 40.5173C54.6007 40.5173 54.5006 40.5173 54.4006 40.5173Z" fill="#B98F62"/>
<path d="M52.1007 42.8172C52.6007 42.5172 53.3007 42.7173 53.8007 43.5173C53.134 43.8506 52.5006 44.1505 51.9006 44.4172C51.6006 44.0172 51.6007 43.5172 51.7007 43.2172C51.834 43.0839 51.9674 42.9505 52.1007 42.8172Z" fill="#7B5326"/>
<path d="M51.9006 36.0173C52.1673 35.9507 52.434 35.9172 52.7007 35.9172C53.1007 36.8172 53.0007 37.6172 52.7007 38.4172C52.5007 38.9172 52.2007 39.3173 52.0007 39.7173C51.6007 40.384 51.0007 40.8173 50.2007 41.0173C49.934 41.084 49.634 41.1506 49.3007 41.2173C47.3007 41.5173 45.3007 41.6172 43.3007 41.4172C41.834 41.2839 40.3673 40.9506 38.9006 40.4172C36.1006 39.3172 34.1006 37.4173 33.4006 34.5173C33.4006 34.4507 33.3673 34.3839 33.3007 34.3173C33.3007 34.2506 33.3007 34.2173 33.3007 34.2173C33.2007 33.9173 33.2007 33.6172 33.2007 33.4172C34.5007 34.0172 35.7007 34.7173 37.1007 35.1173C41.9007 37.0173 46.9006 37.1173 51.9006 36.0173Z" fill="#EB5A3A"/>
<path d="M51.3007 39.5173C48.8007 39.8173 46.2007 39.9173 43.7007 39.6173C41.834 39.4173 39.9674 39.0172 38.1007 38.4172C36.5674 37.9506 35.234 37.3173 34.1007 36.5173C35.1007 38.3173 36.8006 39.6172 38.9006 40.4172C40.3673 40.9506 41.834 41.2839 43.3007 41.4172C45.3007 41.6172 47.3007 41.5173 49.3007 41.2173C49.634 41.1506 49.934 41.084 50.2007 41.0173C51.0007 40.8173 51.6007 40.384 52.0007 39.7173C52.0674 39.584 52.134 39.4839 52.2007 39.4172C51.8673 39.4172 51.5673 39.4507 51.3007 39.5173Z" fill="#C44B2F"/>
<path d="M33.2006 29.5173C33.2006 29.3173 33.3006 29.1173 33.4006 28.8173C36.5006 30.2173 39.7007 31.0172 43.1007 31.4172C46.4007 31.9172 49.7007 31.8173 53.1007 31.5173C53.5007 32.8173 53.4006 34.0173 52.9006 35.2173C52.8006 35.3173 52.5006 35.4173 52.4006 35.5173C46.0006 36.9173 39.9007 36.5173 34.1007 33.3173C33.3007 32.9173 32.9007 32.4173 33.0007 31.5173C33.1007 30.9173 33.1006 30.2173 33.2006 29.5173Z" fill="#EB703B"/>
<path d="M51.3006 34.1173C45.4006 35.3173 39.7006 34.7173 34.2006 31.7173C34.0006 31.6173 33.1007 30.9173 33.1007 31.0173C33.1007 31.1507 33.0674 31.3173 33.0007 31.5173C32.9007 32.4173 33.3007 32.9172 34.1007 33.3172C39.9007 36.5172 46.0006 36.9173 52.4006 35.5173C52.5006 35.4173 52.8006 35.3173 52.9006 35.2173C53.1006 34.6839 53.234 34.1506 53.3006 33.6173C53.0006 33.7173 52.4006 33.9173 51.3006 34.1173Z" fill="#C35E2F"/>
<path d="M33.3007 28.3173C33.7007 26.6173 34.2007 25.0173 34.7007 23.3173C39.7007 26.4173 45.1007 26.5172 50.6007 26.4172C51.0007 27.3172 51.2007 28.2173 51.1007 29.2173C51.1007 29.284 51.1007 29.3173 51.1007 29.3173C51.1007 29.3839 51.1007 29.4172 51.1007 29.4172C51.1007 29.4839 51.1007 29.5173 51.1007 29.5173C51.1007 29.5173 51.1007 29.5506 51.1007 29.6173C51.1007 29.6173 51.1007 29.6506 51.1007 29.7173C51.1007 29.784 51.1007 29.8506 51.1007 29.9172C51.1674 29.9839 51.2007 30.0173 51.2007 30.0173C51.2007 30.084 51.2007 30.1173 51.2007 30.1173C51.2007 30.1173 51.2007 30.1506 51.2007 30.2173C51.2007 30.2173 51.234 30.2173 51.3007 30.2173C51.3007 30.284 51.3007 30.3173 51.3007 30.3173C51.3007 30.3173 51.334 30.3173 51.4006 30.3173C51.4006 30.3173 51.4006 30.3506 51.4006 30.4172C51.4673 30.4172 51.5007 30.4172 51.5007 30.4172C51.5007 30.4172 51.534 30.4172 51.6007 30.4172C51.6007 30.4172 51.6007 30.4507 51.6007 30.5173C51.8007 30.5173 52.034 30.5506 52.3007 30.6173C52.3673 30.684 52.4674 30.8173 52.6007 31.0173C52.5007 31.0173 52.5006 31.1173 52.4006 31.1173C45.9006 31.9173 39.5007 31.0173 33.3007 28.3173Z" fill="#F19439"/>
<path d="M51.6007 30.5173C51.6007 30.4507 51.6007 30.4172 51.6007 30.4172C51.534 30.4172 51.5007 30.4172 51.5007 30.4172C51.5007 30.4172 51.4673 30.4172 51.4006 30.4172C51.4006 30.3506 51.4006 30.3173 51.4006 30.3173C51.334 30.3173 51.3007 30.3173 51.3007 30.3173C51.3007 30.3173 51.3007 30.284 51.3007 30.2173C51.234 30.2173 51.2007 30.2173 51.2007 30.2173C51.2007 30.1506 51.2007 30.1173 51.2007 30.1173C51.2007 30.1173 51.2007 30.084 51.2007 30.0173C51.2007 30.0173 51.1674 29.9839 51.1007 29.9172C51.1007 29.8506 51.1007 29.784 51.1007 29.7173C51.1007 29.6506 51.1007 29.6173 51.1007 29.6173C51.1007 29.5506 51.1007 29.5173 51.1007 29.5173C45.2007 30.0173 39.4007 29.1173 33.7007 26.7173C33.5674 27.2506 33.434 27.7839 33.3007 28.3173C39.5007 31.0173 45.9006 31.9173 52.4006 31.1173C52.5006 31.1173 52.5007 31.0173 52.6007 31.0173C52.4674 30.8173 52.3673 30.684 52.3007 30.6173C52.034 30.5506 51.8007 30.5173 51.6007 30.5173Z" fill="#C67A31"/>
<path d="M51.6007 30.2173C51.3007 29.9173 51.4006 29.6173 51.4006 29.3173C51.5006 28.3173 51.3007 27.3173 51.0007 26.3173C50.6007 25.2173 50.2006 24.2173 49.8006 23.1173C49.6006 22.5173 49.4673 21.9173 49.4006 21.3173C49.3339 20.8506 49.4007 20.3839 49.6007 19.9172C49.8673 19.3839 50.334 18.9506 51.0007 18.6173C51.8007 18.3173 52.7007 18.1173 53.6007 18.1173C53.8007 18.184 54.034 18.2506 54.3006 18.3173C54.8006 18.4173 55.4006 18.8173 55.7006 19.3173C56.1006 19.8173 56.4007 20.4173 56.6007 21.1173C56.734 21.4506 56.8339 21.8173 56.9006 22.2173C57.4006 24.1173 57.7006 26.2173 57.7006 28.2173C57.7006 29.4173 57.3006 30.5173 56.3006 31.2173C55.9006 31.5506 55.5007 31.7506 55.1007 31.8173C55.034 31.8173 55.0007 31.8173 55.0007 31.8173C54.8007 31.8173 54.634 31.8173 54.5007 31.8173C54.5007 31.8173 54.4673 31.8173 54.4006 31.8173C54.3339 31.8173 54.3006 31.784 54.3006 31.7173C54.234 31.7173 54.2006 31.7173 54.2006 31.7173C54.2006 31.7173 54.1673 31.7173 54.1007 31.7173C54.1007 31.7173 54.0674 31.7173 54.0007 31.7173C54.0007 31.7173 54.0007 31.684 54.0007 31.6173C53.8674 31.6173 53.7673 31.584 53.7006 31.5173C53.634 31.5173 53.6007 31.5173 53.6007 31.5173C53.534 31.4507 53.434 31.3839 53.3006 31.3173C53.3006 31.2506 53.3006 31.2173 53.3006 31.2173C53.1006 31.084 52.934 30.884 52.8006 30.6173C52.6673 30.484 52.5674 30.3173 52.5007 30.1173C52.2007 30.3173 51.9007 30.3173 51.6007 30.2173Z" fill="#DDB073"/>
<path d="M52.8007 18.3173C53.3007 18.5173 53.9007 18.9173 54.2007 19.3173C54.6007 19.8173 54.9007 20.5173 55.1007 21.1173C55.234 21.5173 55.334 21.884 55.4006 22.2173C55.9006 24.1173 56.3007 29.0173 56.3007 31.2173C57.3007 30.4173 57.7007 29.4173 57.7007 28.2173C57.7007 26.2173 57.4006 24.1173 56.9006 22.2173C56.834 21.8173 56.734 21.4506 56.6007 21.1173C56.4007 20.4173 56.1007 19.8173 55.7007 19.3173C55.4007 18.8173 54.8007 18.4173 54.3007 18.3173C54.034 18.2506 53.8007 18.184 53.6007 18.1173C53.134 18.1173 52.7007 18.1506 52.3007 18.2173C52.434 18.2173 52.6007 18.2506 52.8007 18.3173Z" fill="#B9905E"/>
<path d="M49.3007 42.8173C49.3674 42.8173 49.4341 42.8173 49.5008 42.8173C49.5008 42.8173 49.5341 42.8173 49.6007 42.8173C49.7341 42.8173 49.9007 42.884 50.1007 43.0173C50.6007 43.2173 50.8007 43.8173 50.7007 44.6173C49.9674 44.6173 49.2341 44.6506 48.5008 44.7173C48.1008 44.0173 48.3007 43.5173 48.7007 43.1173C48.834 42.984 49.034 42.8839 49.3007 42.8173Z" fill="#96652F"/>
<path d="M44.5007 17.2173C46.6007 17.4173 48.7007 17.2172 50.8007 16.9172C51.0007 16.8506 51.2341 16.8173 51.5007 16.8173C51.7007 17.2173 51.9007 17.5172 52.1007 17.9172C50.8007 18.2172 49.8006 18.8173 49.4006 19.8173C49.134 20.4173 49.034 21.1172 49.1007 21.9172C44.7007 22.0172 40.6007 21.6173 36.7007 19.2173C37.3007 18.2173 37.8007 17.4173 38.5007 16.6173C38.7674 16.284 39.1007 15.9506 39.5007 15.6173C41.0007 16.8173 42.8007 17.0173 44.5007 17.2173Z" fill="#F6DA73"/>
<path d="M49.2007 20.6173C45.0007 20.7173 41.0007 20.3173 37.3007 18.2173C37.1007 18.5506 36.9007 18.884 36.7007 19.2173C40.6007 21.6173 44.7007 22.0172 49.1007 21.9172C49.1007 21.4506 49.134 21.0173 49.2007 20.6173Z" fill="#CBB25C"/>
<path d="M48.2007 43.3173C48.2007 43.3173 48.1007 43.4172 48.0007 43.4172C47.7007 42.8172 47.4007 42.1173 46.6007 42.0173C47.534 41.8173 48.4673 41.6507 49.4006 41.5173C50.934 41.184 52.434 40.884 53.9006 40.6173C54.3006 41.6173 54.3007 42.5173 54.0007 43.0173C53.4007 42.6173 52.8007 42.1173 52.0007 42.5173C51.7341 42.7173 51.5674 42.9173 51.5007 43.1173C51.3007 43.5173 51.3007 44.0172 51.2007 44.4172C51.134 44.2839 51.0674 44.1507 51.0007 44.0173C50.9007 43.3173 50.6006 42.8173 49.9006 42.6173C49.7673 42.6173 49.6674 42.6173 49.6007 42.6173C49.534 42.6173 49.5007 42.6173 49.5007 42.6173C49.5007 42.6173 49.4673 42.6173 49.4006 42.6173C49.4006 42.6173 49.3673 42.6173 49.3007 42.6173C49.3007 42.6173 49.2674 42.6173 49.2007 42.6173C48.8007 42.684 48.4674 42.9173 48.2007 43.3173Z" fill="#DDB073"/>
<path d="M36.5007 19.5173C40.5007 22.0173 44.8007 22.3173 49.2007 22.3173C49.7007 23.5173 50.1007 24.7173 50.5007 26.0173C47.0007 26.2173 43.5007 26.1173 40.2007 25.2173C38.3007 24.8173 36.5006 24.2172 34.9006 22.9172C35.4006 21.7172 36.0007 20.6173 36.5007 19.5173Z" fill="#F4C071"/>
<path d="M40.3007 23.8173C38.6007 23.4173 36.9006 22.8173 35.4006 21.7173C35.2673 22.1173 35.1006 22.5172 34.9006 22.9172C36.5006 24.2172 38.3007 24.8173 40.2007 25.2173C43.5007 26.1173 47.0007 26.2173 50.5007 26.0173C50.3674 25.5507 50.2007 25.084 50.0007 24.6173C46.7007 24.8173 43.5007 24.6173 40.3007 23.8173Z" fill="#C99E5D"/>
<path d="M47.8007 44.3173C47.0007 44.4173 46.4007 43.4173 46.7007 42.5173C47.4007 42.6173 47.9007 43.4173 47.8007 44.3173Z" fill="#96652F"/>
<path fill-rule="evenodd" clip-rule="evenodd" d="M44.1007 8.21726C44.6007 6.71726 45.3006 6.41729 46.7006 7.11729C48.2006 7.81729 49.2006 8.91721 49.9006 10.4172C50.1006 10.7172 50.1006 11.0172 49.8006 11.3172C48.9006 12.4172 47.4007 12.9172 46.0007 12.4172C44.6007 11.8172 43.8006 10.4172 43.9006 8.81724C44.0006 8.71724 44.0007 8.51726 44.1007 8.21726ZM45.0007 8.81724C45.3007 8.81724 45.6007 8.61724 45.6007 8.31724C45.7007 8.01724 45.5006 7.71726 45.2006 7.71726C44.9006 7.71726 44.6007 7.91726 44.6007 8.21726C44.5007 8.51726 44.7007 8.81724 45.0007 8.81724Z" fill="#FEFEFE"/>
<path d="M46.2007 6.31721C47.5007 5.71721 48.8007 5.91721 49.7007 6.81721C50.7007 7.71721 50.9007 9.01719 50.3007 10.4172C49.4007 8.51719 48.0007 7.21719 46.0007 6.41719C46.0674 6.41719 46.134 6.38388 46.2007 6.31721Z" fill="#DDB073"/>
<path d="M43.9006 2.51738C44.7006 1.11738 46.1007 0.117283 47.5007 0.417283C48.1007 0.517283 48.6007 0.717357 49.1007 1.11736C49.6007 1.51736 49.6007 2.11738 49.1007 2.51738C48.3007 3.01738 47.4007 3.41733 46.5007 3.71733C46.1007 3.85067 45.7007 3.98402 45.3007 4.11736C44.834 4.18402 44.334 4.25064 43.8007 4.31731C43.734 4.31731 43.6006 4.35062 43.4006 4.41728C43.4006 3.71728 43.6006 3.01738 43.9006 2.51738Z" fill="#DDB073"/>
<path d="M46.2007 6.31726C46.134 6.38393 46.0674 6.41724 46.0007 6.41724C46.0674 6.35057 46.134 6.31726 46.2007 6.31726Z" fill="#9F896B"/>
<path d="M40.5007 41.4172C40.3007 41.6172 40.2007 41.9173 40.0007 42.2173C39.8674 41.9506 39.734 41.7173 39.6007 41.5173C39.534 41.5173 39.5007 41.4839 39.5007 41.4172C39.3674 41.2839 39.2674 41.1172 39.2007 40.9172C39.7007 41.1172 40.0007 41.2172 40.5007 41.4172Z" fill="#B98F62"/>
<path d="M39.0007 4.71725C40.0007 3.71725 42.0007 3.7173 43.0007 4.5173C42.5341 4.9173 42.0674 5.28394 41.6007 5.61727C40.8007 5.41727 39.9007 5.01725 39.0007 4.71725Z" fill="#DDB073"/>
<path d="M38.3007 41.0173C38.6007 41.0173 38.9007 41.2173 39.2007 41.5173C39.2674 41.584 39.3007 41.6173 39.3007 41.6173C39.3007 41.684 39.3007 41.7173 39.3007 41.7173C39.3673 41.784 39.4006 41.8173 39.4006 41.8173C39.4006 41.8839 39.4006 41.9172 39.4006 41.9172C39.4006 41.9172 39.4006 41.9507 39.4006 42.0173C39.4006 42.0173 39.4341 42.0506 39.5007 42.1173C39.5007 42.1173 39.5007 42.1506 39.5007 42.2173C39.5007 42.2173 39.5007 42.2506 39.5007 42.3173C38.7007 42.6173 38.0007 42.6173 37.2007 42.3173C37.2674 41.9173 37.4007 41.6172 37.6007 41.4172C37.8007 41.1506 38.034 41.0173 38.3007 41.0173Z" fill="#7B5326"/>
<path fill-rule="evenodd" clip-rule="evenodd" d="M38.9006 5.01733C39.7006 5.31733 40.6007 5.61724 41.5007 5.91724C41.1007 7.31724 39.7007 8.41731 38.1007 8.61731C37.5007 7.41731 37.8006 6.11733 38.9006 5.01733ZM38.2007 6.71729C38.2007 7.01729 38.4007 7.31726 38.7007 7.31726C39.0007 7.31726 39.2007 7.11724 39.3007 6.91724C39.3007 6.91724 39.3007 6.88393 39.3007 6.81726C39.3007 6.61726 39.1007 6.31726 38.8007 6.31726C38.5007 6.21726 38.3007 6.51729 38.2007 6.71729Z" fill="#FEFEFE"/>
<path d="M33.8007 36.5173C34.9007 38.5173 36.5006 39.7173 38.4006 40.7173C37.9006 40.7173 37.6007 40.9173 37.3007 41.2173C37.1007 41.5173 36.9007 41.9173 36.7007 42.3173C36.7007 41.4173 36.9007 40.6173 36.2007 40.0173C35.5007 39.4173 34.8007 39.5173 34.0007 40.0173C33.9007 39.2173 34.0007 38.4173 33.1007 38.0173C33.3007 37.5173 33.5007 37.1173 33.8007 36.5173Z" fill="#DDB073"/>
<path d="M36.1008 42.2173C35.4008 41.9173 34.6008 41.6172 34.0008 41.3172C33.9008 40.6172 34.3007 40.1172 34.8007 39.9172C35.3007 39.7172 35.9007 39.9172 36.2007 40.3172C36.6007 40.8172 36.6008 41.5173 36.1008 42.2173Z" fill="#96652F"/>
<path d="M33.2007 38.4172C33.8007 38.9172 33.9006 40.0173 33.4006 40.7173C32.6006 40.4173 32.5007 39.2172 33.2007 38.4172Z" fill="#96652F"/>
<path d="M33.4007 26.3173C32.6007 26.6173 30.9007 25.9173 30.3007 24.8173C29.5007 23.3173 30.2007 22.3173 31.4007 21.3173C31.3007 21.1173 31.2007 20.9173 31.2007 20.6173C31.4007 20.2173 31.5007 20.2173 31.7007 20.2173C33.4007 20.2173 34.8007 19.3173 36.2007 18.5173C36.4007 18.4507 36.6007 18.3839 36.8007 18.3173C35.8674 19.9173 35.1008 21.5506 34.5008 23.2173C34.1008 24.284 33.734 25.3173 33.4007 26.3173Z" fill="#DDB073"/>
<path d="M30.1007 24.4172C30.1674 24.5506 30.234 24.6839 30.3007 24.8173C30.9007 25.9173 32.6006 26.6173 33.4006 26.3173C33.534 25.9173 33.6673 25.5173 33.8007 25.1173C32.8007 25.2173 31.3007 24.9172 30.1007 24.4172Z" fill="#B9905E"/>
<path d="M45.6007 8.31726C45.7007 8.01726 45.5007 7.71729 45.2007 7.71729C44.9007 7.71729 44.6007 7.91729 44.6007 8.21729C44.5007 8.51729 44.7007 8.81726 45.0007 8.81726C45.3007 8.81726 45.6007 8.61726 45.6007 8.31726Z" fill="#050505"/>
<path fill-rule="evenodd" clip-rule="evenodd" d="M43.5008 9.21723C43.5675 8.95057 43.6341 8.68385 43.7007 8.41718C43.7674 8.35052 43.8007 8.2839 43.8007 8.21723C43.8674 7.95057 43.9674 7.71728 44.1008 7.51728C44.3008 7.05062 44.6341 6.65054 45.1008 6.31721C46.9008 5.01721 49.6008 5.51721 50.6008 7.31721C51.5008 8.81721 51.2007 11.0172 49.3007 12.3172C47.8007 13.4172 45.7007 13.1172 44.4007 11.7172C44.2674 11.5172 44.1007 11.3506 43.9007 11.2172C44.4007 12.6172 45.5007 13.3172 46.9007 13.7172C46.834 13.7839 46.8007 13.8505 46.8007 13.9172C46.5007 13.8172 46.2007 13.8172 45.9007 13.7172C44.0007 13.1172 43.1008 11.2172 43.5008 9.21723ZM46.0008 6.41718C48.0008 7.21718 49.4007 8.51718 50.3007 10.4172C50.9007 9.01718 50.7007 7.71721 49.7007 6.81721C48.8007 5.91721 47.5007 5.71721 46.2007 6.31721C46.1341 6.31721 46.0675 6.35052 46.0008 6.41718ZM43.9007 8.81721C43.8007 10.4172 44.6008 11.8172 46.0008 12.4172C47.4008 12.9172 48.9007 12.4172 49.8007 11.3172C50.1007 11.0172 50.1007 10.7172 49.9007 10.4172C49.2007 8.91718 48.2007 7.81726 46.7007 7.11726C45.3007 6.41726 44.6008 6.71723 44.1008 8.21723C44.0008 8.51723 44.0007 8.71721 43.9007 8.81721Z" fill="#050505"/>
<path d="M38.7007 7.31722C39.0007 7.31722 39.2007 7.1172 39.3007 6.9172C39.3007 6.9172 39.3007 6.88389 39.3007 6.81723C39.3007 6.61723 39.1007 6.31723 38.8007 6.31723C38.5007 6.21723 38.3007 6.51725 38.2007 6.71725C38.2007 7.01725 38.4007 7.31722 38.7007 7.31722Z" fill="#050505"/>
<path d="M35.3007 12.7173C35.3673 12.7173 35.4341 12.7173 35.5007 12.7173C35.5674 12.5173 35.634 12.3173 35.7007 12.1173C35.5674 12.1173 35.4673 12.1173 35.4006 12.1173C35.334 12.3173 35.3007 12.5173 35.3007 12.7173Z" fill="#050505"/>
<path fill-rule="evenodd" clip-rule="evenodd" d="M66.4006 33.2173C66.3006 33.4173 65.3007 35.4173 64.2007 36.8173C64.2007 36.8173 63.0007 38.2173 62.0007 38.8173C60.7007 39.7173 59.2007 40.3173 57.7007 40.6173C57.5007 40.684 57.334 40.7173 57.2007 40.7173C56.4673 40.8506 55.7006 40.9507 54.9006 41.0173C54.8006 41.0173 54.7007 41.0173 54.6007 41.0173C54.534 41.3507 54.534 41.6506 54.6007 41.9172C54.6674 42.6506 54.4674 43.2506 54.0007 43.7173C53.8007 43.9173 53.5673 44.084 53.3006 44.2173C51.7673 45.0173 50.1674 45.284 48.5007 45.0173C48.1674 44.9507 47.8341 44.8839 47.5007 44.8173C46.5007 44.5173 46.2007 44.0173 46.1007 43.0173C46.1007 42.684 46.1007 42.3507 46.1007 42.0173C45.1674 41.9507 44.234 41.8506 43.3006 41.7173C42.5006 41.6506 41.7006 41.584 40.9006 41.5173C40.7006 41.9173 40.4673 42.2172 40.2007 42.4172C39.5007 43.0172 38.5007 43.0172 37.5007 42.9172C36.0007 42.7172 34.5006 42.2173 33.3006 41.3173C32.1006 40.4173 32.0007 39.7172 32.5007 38.4172C32.7007 38.0172 32.9007 37.6506 33.1007 37.3173C33.1674 37.0506 33.2673 36.7506 33.4006 36.4172C33.4673 36.3506 33.534 36.2507 33.6007 36.1173C33.334 35.584 33.1674 35.0507 33.1007 34.5173C33.034 34.5173 33.0007 34.4839 33.0007 34.4172C32.6007 32.8172 32.7006 31.2173 32.9006 29.5173C32.9673 29.1173 33.034 28.7173 33.1007 28.3173C33.1674 27.7839 33.234 27.2839 33.3006 26.8173C31.9006 26.6173 30.6007 26.1173 30.0007 24.8173C29.3007 23.3173 29.9007 22.2173 31.0007 21.3173C30.9341 20.9839 30.9006 20.7173 30.9006 20.5173C31.0006 20.1173 31.3007 20.0172 32.0007 19.9172C33.2007 19.8172 34.1007 19.3173 35.1007 18.8173C35.7674 18.4839 36.434 18.1173 37.1007 17.7173C37.2007 17.7173 37.3006 17.6173 37.3006 17.5173C37.634 17.184 37.9673 16.8172 38.3006 16.4172C38.7006 15.9506 39.1007 15.484 39.5007 15.0173C38.6007 15.0173 37.8007 14.9173 37.0007 15.0173C36.5341 15.0173 36.0674 15.084 35.6007 15.2173C34.8674 15.3506 34.3006 15.1507 33.9006 14.6173C33.1006 13.4173 32.9007 12.2172 33.2007 10.9172C33.2007 10.7172 33.2673 10.5173 33.4006 10.3173C33.534 10.1839 33.6673 10.0506 33.8006 9.91724C34.6006 9.21724 35.6007 9.01727 36.6007 8.81727C36.9007 8.71727 37.3007 8.71732 37.7007 8.61732C36.9007 7.31732 37.8006 5.11724 38.8006 4.41724C38.9006 4.01724 38.9007 3.61729 39.0007 3.21729C40.1341 2.88396 41.3007 2.58393 42.5007 2.31727C42.8007 2.61727 42.8006 2.91732 42.4006 3.11732C42.2006 3.21732 41.9007 3.31734 41.5007 3.51734C42.1007 3.71734 42.5007 3.81734 43.0007 4.01734C43.2007 3.71734 43.3007 3.31734 43.5007 3.01734C43.5674 2.81734 43.6673 2.61724 43.8006 2.41724C44.0006 2.01724 44.2007 1.61729 44.5007 1.21729C45.6007 -0.0827079 47.5006 -0.382659 48.9006 0.517341C50.0006 1.21734 50.0007 2.21734 49.1007 3.01734C48.7007 3.21734 48.3006 3.41729 47.8006 3.71729C48.2006 3.91729 48.5006 3.91734 48.8006 4.01734C49.3006 3.41734 49.6007 3.61734 50.1007 4.01734C50.7007 4.51734 51.3007 5.01732 52.0007 5.61732C52.5341 5.28398 53.0674 4.98396 53.6007 4.71729C55.1007 3.91729 56.6006 3.41724 58.3006 3.41724C60.1006 3.31724 61.5007 4.61734 61.6007 6.51734C61.6007 7.21734 61.2007 7.81732 60.7007 8.11732C59.7007 8.71732 58.7007 8.81732 57.7007 8.61732C56.8007 8.51732 56.0007 8.41724 55.2007 8.41724C54.7007 8.41724 54.2007 8.61729 53.6007 8.71729C53.5007 9.81729 53.4006 10.9172 53.3006 11.9172C53.8006 12.1172 54.2007 12.3172 54.6007 12.4172C54.6674 12.4172 54.7007 12.4507 54.7007 12.5173C54.7673 12.5173 54.8006 12.5173 54.8006 12.5173C55.0006 12.584 55.1673 12.6506 55.3006 12.7173C56.0006 13.1173 56.6007 13.5173 57.1007 14.1173C58.0007 15.1173 58.4006 16.3173 57.9006 17.7173C57.8006 17.9173 57.8007 18.0173 57.7007 18.3173C59.8007 19.1173 60.9006 20.7173 61.3006 22.8173C61.3006 22.8839 61.3006 22.9507 61.3006 23.0173C61.3006 23.0173 61.3006 23.0506 61.3006 23.1173C61.6006 25.0173 61.3007 26.8173 60.0007 28.5173C60.0674 28.584 60.134 28.6506 60.2007 28.7173C60.9007 29.9173 61.1007 31.2173 61.1007 32.5173C61.1007 33.7173 60.8006 34.8172 60.3006 35.9172C60.3673 35.9839 60.4006 36.0173 60.4006 36.0173C60.534 35.9507 60.6673 35.8839 60.8006 35.8173C61.8673 35.0839 62.9341 34.3173 64.0007 33.5173C64.5007 33.2173 65.0007 32.7172 65.5007 32.4172C65.7007 32.2172 66.1007 32.0173 66.5007 32.1173C66.9007 32.3173 66.6006 32.9173 66.4006 33.2173ZM57.4006 18.7173C57.134 19.0506 56.8341 19.4173 56.5007 19.8173C56.7674 20.5506 57.0007 21.3173 57.2007 22.1173C57.9007 24.4173 58.1007 26.7173 58.0007 29.2173C59.7007 29.1173 61.1007 26.6173 61.1007 24.0173C61.1007 23.7507 61.0674 23.4507 61.0007 23.1173C61.0007 23.1173 61.0007 23.084 61.0007 23.0173C61.0007 22.9507 61.0007 22.8839 61.0007 22.8173C61.0007 22.8173 61.0007 22.784 61.0007 22.7173C60.9341 22.7173 60.9006 22.684 60.9006 22.6173C60.9006 22.6173 60.9006 22.584 60.9006 22.5173C60.834 22.2507 60.7673 22.0173 60.7007 21.8173C60.7007 21.7506 60.6674 21.684 60.6007 21.6173C60.6007 21.6173 60.6007 21.584 60.6007 21.5173C60.6007 21.4507 60.5674 21.4172 60.5007 21.4172C60.5007 21.3506 60.4673 21.2507 60.4006 21.1173C60.2673 20.9173 60.1674 20.7173 60.1007 20.5173C60.034 20.5173 60.0007 20.5173 60.0007 20.5173C59.9341 20.384 59.8673 20.2507 59.8006 20.1173C59.734 20.1173 59.7007 20.084 59.7007 20.0173C59.7007 20.0173 59.6674 20.0173 59.6007 20.0173C59.534 19.884 59.434 19.7507 59.3006 19.6173C59.234 19.6173 59.2007 19.584 59.2007 19.5173C59.2007 19.5173 59.1674 19.5173 59.1007 19.5173C58.9674 19.3173 58.7674 19.184 58.5007 19.1173C58.5007 19.0506 58.5007 19.0173 58.5007 19.0173C58.3674 18.9507 58.2673 18.9172 58.2007 18.9172C58.134 18.9172 58.1007 18.9172 58.1007 18.9172C58.034 18.8506 58.0007 18.8173 58.0007 18.8173C57.9341 18.8173 57.8673 18.8173 57.8006 18.8173C57.8006 18.8173 57.7673 18.8173 57.7007 18.8173C57.634 18.7506 57.534 18.7173 57.4006 18.7173ZM53.3006 31.3173C53.434 31.3839 53.534 31.4507 53.6007 31.5173C53.6007 31.5173 53.634 31.5173 53.7007 31.5173C53.7673 31.584 53.8674 31.6173 54.0007 31.6173C54.0007 31.684 54.0007 31.7173 54.0007 31.7173C54.0674 31.7173 54.1007 31.7173 54.1007 31.7173C54.1674 31.7173 54.2007 31.7173 54.2007 31.7173C54.2007 31.7173 54.234 31.7173 54.3006 31.7173C54.3006 31.784 54.334 31.8173 54.4006 31.8173C54.4673 31.8173 54.5007 31.8173 54.5007 31.8173C54.6341 31.8173 54.8007 31.8173 55.0007 31.8173C55.0007 31.8173 55.034 31.8173 55.1007 31.8173C55.5007 31.7506 55.9006 31.5506 56.3006 31.2173C57.3006 30.5173 57.7007 29.4173 57.7007 28.2173C57.7007 26.2173 57.4006 24.1173 56.9006 22.2173C56.834 21.8173 56.734 21.4507 56.6007 21.1173C56.4007 20.4173 56.1007 19.8173 55.7007 19.3173C55.4007 18.8173 54.8006 18.4173 54.3006 18.3173C54.034 18.2506 53.8007 18.184 53.6007 18.1173C52.7007 18.1173 51.8007 18.3173 51.0007 18.6173C50.3341 18.9507 49.8674 19.3839 49.6007 19.9172C49.4007 20.3839 49.334 20.8506 49.4006 21.3173C49.4673 21.9173 49.6006 22.5173 49.8006 23.1173C50.2006 24.2173 50.6007 25.2173 51.0007 26.3173C51.3007 27.3173 51.5006 28.3173 51.4006 29.3173C51.4006 29.6173 51.3007 29.9173 51.6007 30.2173C52.0007 30.3173 52.2007 30.3173 52.5007 30.1173C52.5674 30.3173 52.6673 30.484 52.8006 30.6173C52.934 30.884 53.1006 31.084 53.3006 31.2173C53.3006 31.2173 53.3006 31.2506 53.3006 31.3173ZM49.2007 22.3173C44.8007 22.3173 40.5007 22.0173 36.5007 19.5173C36.0007 20.6173 35.4006 21.7172 34.9006 22.9172C36.5006 24.2172 38.3007 24.8173 40.2007 25.2173C43.5007 26.1173 47.0007 26.2173 50.5007 26.0173C50.1007 24.7173 49.7007 23.5173 49.2007 22.3173ZM54.2007 14.1173C54.9007 14.5173 55.0006 15.1173 54.4006 15.6173C54.0006 16.0173 53.4007 16.2173 53.0007 16.5173C52.7007 16.6173 52.4006 16.7173 51.9006 16.8173C52.5006 17.3173 52.9007 17.8172 53.6007 17.9172C53.734 17.9172 53.834 17.9172 53.9006 17.9172C54.7006 17.8172 55.4007 18.2172 56.0007 18.9172C56.1007 19.0172 56.2006 19.1173 56.3006 19.2173C57.4006 18.6173 58.0007 16.9173 57.6007 15.7173C57.3007 14.7173 56.3007 13.6173 55.2007 13.0173C55.134 13.0173 55.0674 12.9839 55.0007 12.9172C55.0007 12.9172 54.9673 12.9172 54.9006 12.9172C54.834 12.8506 54.7673 12.8173 54.7007 12.8173C54.634 12.8173 54.6007 12.8173 54.6007 12.8173C54.534 12.7506 54.5007 12.7173 54.5007 12.7173C54.4341 12.7173 54.3673 12.7173 54.3006 12.7173C54.3006 12.6506 54.2673 12.6173 54.2007 12.6173C54.2007 12.6173 54.1674 12.6173 54.1007 12.6173C54.034 12.6173 54.0007 12.6173 54.0007 12.6173C53.9341 12.6173 53.9006 12.584 53.9006 12.5173C53.834 12.5173 53.7673 12.5173 53.7007 12.5173C53.634 12.5173 53.5674 12.5173 53.5007 12.5173C53.3007 13.3173 53.4007 13.7173 54.2007 14.1173ZM43.4006 4.41724C43.7006 4.31724 44.5007 4.01724 45.0007 3.91724C45.4007 3.81724 46.1007 3.81729 46.5007 3.71729C47.4007 3.41729 48.3007 3.01734 49.1007 2.51734C49.6007 2.11734 49.6007 1.51732 49.1007 1.11732C48.6007 0.717317 48.1007 0.517243 47.5007 0.417243C46.1007 0.117243 44.9007 1.01724 44.2007 2.41724C43.9007 3.01724 43.4006 3.71724 43.4006 4.41724ZM43.2007 15.0173C44.0007 15.1173 44.7007 15.1173 45.0007 14.2173C45.2007 14.7173 45.0007 15.1173 44.5007 15.2173C44.1007 15.3173 43.5007 15.3173 43.1007 15.3173C42.3007 15.2173 41.5007 15.1173 40.6007 15.1173C40.7007 15.8173 41.2007 15.9173 41.6007 16.0173C43.2007 16.6173 44.9007 16.7173 46.5007 16.7173C48.4007 16.7173 50.3007 16.6172 52.1007 15.9172C53.2007 15.5172 53.4007 15.2173 53.2007 14.0173C52.8007 12.2173 52.9006 10.5173 53.4006 8.61732C53.4006 8.55065 53.4006 8.48391 53.4006 8.41724C54.0006 8.31724 54.6006 8.01732 55.3006 8.11732C56.3006 8.11732 57.4007 8.31724 58.5007 8.41724C59.3007 8.41724 60.1007 8.21729 60.7007 7.71729C61.2007 7.41729 61.4006 6.91727 61.3006 6.31727C61.1006 4.61727 59.8007 3.61732 58.1007 3.61732C55.9007 3.71732 54.2006 4.81727 52.4006 5.81727C52.4006 6.41727 52.2006 6.51729 51.4006 6.71729C50.9006 6.21729 50.4006 5.61734 49.9006 5.01734C49.6006 4.81734 49.3006 4.51724 48.9006 4.41724C47.7006 4.01724 46.5006 3.95063 45.3006 4.21729C44.5673 4.35063 43.834 4.61734 43.1007 5.01734C42.6007 5.31734 42.1006 5.61732 41.9006 6.11732C41.0006 7.91732 39.5007 8.71734 37.6007 9.01734C37.3007 9.01734 36.9006 9.11729 36.4006 9.21729C37.1006 9.31729 38.1007 10.6172 38.0007 11.4172C38.0007 11.5172 37.8006 11.5172 37.8006 11.4172C37.3006 10.4172 37.1006 9.81724 36.3006 9.41724C36.0006 9.21724 35.5007 9.41732 35.2007 9.61732C36.3007 10.1173 37.0006 10.8172 36.9006 11.4172C36.9006 11.5172 36.8007 11.5172 36.7007 11.4172C36.634 11.2172 36.534 11.0506 36.4006 10.9172C36.2006 10.6172 36.0007 10.3173 35.7007 10.2173C34.9007 9.71729 34.1007 9.81724 33.7007 10.4172C33.5673 10.6172 33.4673 10.8173 33.4006 11.0173C33.2006 12.2173 33.434 13.284 34.1007 14.2173C34.4007 14.8173 34.9007 15.0172 35.6007 14.9172C35.934 14.8506 36.3007 14.784 36.7007 14.7173C38.9007 14.5173 41.1007 14.8173 43.2007 15.0173ZM38.1007 8.61732C39.7007 8.41732 41.1007 7.31724 41.5007 5.91724C40.6007 5.61724 39.6006 5.21724 38.8006 4.91724C37.8006 5.91724 37.5007 7.41732 38.1007 8.61732ZM39.0007 4.71729C39.9007 5.01729 40.8007 5.41732 41.6007 5.61732C42.0674 5.28398 42.5341 4.91734 43.0007 4.51734C42.0007 3.71734 40.0007 3.71729 39.0007 4.71729ZM36.7007 19.2173C40.6007 21.6173 44.7007 22.0172 49.1007 21.9172C49.034 21.1172 49.134 20.4173 49.4006 19.8173C49.8006 18.8173 50.8007 18.2172 52.1007 17.9172C51.9007 17.5172 51.7007 17.2173 51.5007 16.8173C51.2341 16.8173 51.0006 16.8506 50.8006 16.9172C48.7006 17.2172 46.6007 17.4173 44.5007 17.2173C42.8007 17.0173 41.0007 16.8173 39.5007 15.6173C39.1007 15.9506 38.7674 16.284 38.5007 16.6173C37.8007 17.4173 37.3007 18.2173 36.7007 19.2173ZM33.4006 26.3173C33.734 25.3173 34.1007 24.284 34.5007 23.2173C35.1007 21.5506 35.8673 19.9173 36.8006 18.3173C36.6006 18.3839 36.4007 18.4507 36.2007 18.5173C34.8007 19.3173 33.4007 20.2173 31.7007 20.2173C31.5007 20.2173 31.4007 20.3173 31.2007 20.6173C31.2007 20.9173 31.3006 21.1173 31.4006 21.3173C30.2006 22.3173 29.5006 23.3173 30.3006 24.8173C30.9006 25.9173 32.6006 26.6173 33.4006 26.3173ZM33.3006 28.3173C39.5006 31.0173 45.9006 31.9173 52.4006 31.1173C52.5006 31.1173 52.5007 31.0173 52.6007 31.0173C52.4674 30.8173 52.3673 30.684 52.3006 30.6173C52.034 30.5506 51.8007 30.5173 51.6007 30.5173C51.6007 30.4507 51.6007 30.4172 51.6007 30.4172C51.534 30.4172 51.5007 30.4172 51.5007 30.4172C51.5007 30.4172 51.4673 30.4172 51.4006 30.4172C51.4006 30.3506 51.4006 30.3173 51.4006 30.3173C51.334 30.3173 51.3006 30.3173 51.3006 30.3173C51.3006 30.3173 51.3006 30.284 51.3006 30.2173C51.234 30.2173 51.2007 30.2173 51.2007 30.2173C51.2007 30.1506 51.2007 30.1173 51.2007 30.1173C51.2007 30.1173 51.2007 30.084 51.2007 30.0173C51.2007 30.0173 51.1674 29.9839 51.1007 29.9172C51.1007 29.8506 51.1007 29.784 51.1007 29.7173C51.1007 29.6506 51.1007 29.6173 51.1007 29.6173C51.1007 29.5506 51.1007 29.5173 51.1007 29.5173C51.1007 29.5173 51.1007 29.4839 51.1007 29.4172C51.1007 29.4172 51.1007 29.3839 51.1007 29.3173C51.1007 29.3173 51.1007 29.284 51.1007 29.2173C51.2007 28.2173 51.0007 27.3172 50.6007 26.4172C45.1007 26.5172 39.7007 26.4173 34.7007 23.3173C34.2007 25.0173 33.7006 26.6173 33.3006 28.3173ZM34.1007 33.3173C39.9007 36.5173 46.0006 36.9173 52.4006 35.5173C52.5006 35.4173 52.8006 35.3173 52.9006 35.2173C53.4006 34.0173 53.5007 32.8173 53.1007 31.5173C49.7007 31.8173 46.4007 31.9172 43.1007 31.4172C39.7007 31.0172 36.5006 30.2173 33.4006 28.8173C33.3006 29.1173 33.2007 29.3173 33.2007 29.5173C33.1007 30.2173 33.1007 30.9173 33.0007 31.5173C32.9007 32.4173 33.3007 32.9173 34.1007 33.3173ZM33.2007 38.4172C32.5007 39.2172 32.6006 40.4173 33.4006 40.7173C33.9006 40.0173 33.8007 38.9172 33.2007 38.4172ZM37.3006 41.2173C37.6006 40.9173 37.9006 40.7173 38.4006 40.7173C36.5006 39.7173 34.9006 38.5173 33.8006 36.5173C33.5006 37.1173 33.3007 37.5173 33.1007 38.0173C34.0007 38.4173 33.9007 39.2173 34.0007 40.0173C34.8007 39.5173 35.5007 39.4173 36.2007 40.0173C36.9007 40.6173 36.7007 41.4173 36.7007 42.3173C36.9007 41.9173 37.1006 41.5173 37.3006 41.2173ZM36.2007 40.3173C35.9007 39.9173 35.3006 39.7172 34.8006 39.9172C34.3006 40.1172 33.9007 40.6173 34.0007 41.3173C34.6007 41.6173 35.4007 41.9173 36.1007 42.2173C36.6007 41.5173 36.6007 40.8173 36.2007 40.3173ZM39.5007 42.3173C39.5007 42.2506 39.5007 42.2173 39.5007 42.2173C39.5007 42.1506 39.5007 42.1173 39.5007 42.1173C39.4341 42.0507 39.4006 42.0173 39.4006 42.0173C39.4006 41.9507 39.4006 41.9172 39.4006 41.9172C39.4006 41.9172 39.4006 41.8839 39.4006 41.8173C39.4006 41.8173 39.3673 41.784 39.3006 41.7173C39.3006 41.7173 39.3006 41.684 39.3006 41.6173C39.3006 41.6173 39.2673 41.584 39.2007 41.5173C38.9007 41.2173 38.6006 41.0173 38.3006 41.0173C38.034 41.0173 37.8007 41.1506 37.6007 41.4172C37.4007 41.6172 37.2673 41.9173 37.2007 42.3173C38.0007 42.6173 38.7007 42.6173 39.5007 42.3173ZM40.5007 41.4172C40.0007 41.2172 39.7007 41.1172 39.2007 40.9172C39.2673 41.1172 39.3674 41.2839 39.5007 41.4172C39.5007 41.4839 39.534 41.5173 39.6007 41.5173C39.734 41.7173 39.8674 41.9506 40.0007 42.2173C40.2007 41.9173 40.3007 41.6172 40.5007 41.4172ZM49.3006 41.2173C49.634 41.1506 49.934 41.084 50.2007 41.0173C51.0007 40.8173 51.6007 40.384 52.0007 39.7173C52.2007 39.3173 52.5007 38.9172 52.7007 38.4172C53.0007 37.6172 53.1007 36.8172 52.7007 35.9172C52.434 35.9172 52.1673 35.9507 51.9006 36.0173C46.9006 37.1173 41.9007 37.0173 37.1007 35.1173C35.7007 34.7173 34.5007 34.0172 33.2007 33.4172C33.2007 33.6172 33.2006 33.9173 33.3006 34.2173C33.3006 34.2173 33.3006 34.2506 33.3006 34.3173C33.3673 34.3839 33.4006 34.4507 33.4006 34.5173C34.1006 37.4173 36.1006 39.3172 38.9006 40.4172C40.3673 40.9506 41.834 41.2839 43.3006 41.4172C45.3006 41.6172 47.3006 41.5173 49.3006 41.2173ZM46.7007 42.5173C46.4007 43.4173 47.0006 44.4173 47.8006 44.3173C47.9006 43.4173 47.4007 42.6173 46.7007 42.5173ZM50.1007 43.0173C49.9007 42.884 49.734 42.8173 49.6007 42.8173C49.534 42.8173 49.5007 42.8173 49.5007 42.8173C49.4341 42.8173 49.4006 42.8173 49.4006 42.8173C49.4006 42.8173 49.3673 42.8173 49.3006 42.8173C49.034 42.8839 48.834 42.984 48.7007 43.1173C48.3007 43.5173 48.1007 44.0173 48.5007 44.7173C49.2341 44.6506 49.9673 44.6173 50.7007 44.6173C50.8007 43.8173 50.6007 43.2173 50.1007 43.0173ZM53.9006 40.6173C52.434 40.884 50.934 41.184 49.4006 41.5173C48.4673 41.6507 47.534 41.8173 46.6007 42.0173C47.4007 42.1173 47.7007 42.8172 48.0007 43.4172C48.1007 43.4172 48.2007 43.3173 48.2007 43.3173C48.4673 42.9173 48.8007 42.684 49.2007 42.6173C49.2673 42.6173 49.3006 42.6173 49.3006 42.6173C49.3673 42.6173 49.4006 42.6173 49.4006 42.6173C49.4673 42.6173 49.5007 42.6173 49.5007 42.6173C49.5007 42.6173 49.534 42.6173 49.6007 42.6173C49.6674 42.6173 49.7673 42.6173 49.9006 42.6173C50.6006 42.8173 50.9007 43.3173 51.0007 44.0173C51.0674 44.1507 51.134 44.2839 51.2007 44.4172C51.3007 44.0172 51.3007 43.5173 51.5007 43.1173C51.5674 42.9173 51.7341 42.7173 52.0007 42.5173C52.8007 42.1173 53.4007 42.6173 54.0007 43.0173C54.3007 42.5173 54.3006 41.6173 53.9006 40.6173ZM53.8006 43.5173C53.3006 42.7173 52.6007 42.5173 52.1007 42.8173C51.9674 42.9506 51.834 43.084 51.7007 43.2173C51.6007 43.5173 51.6006 44.0172 51.9006 44.4172C52.5006 44.1506 53.134 43.8507 53.8006 43.5173ZM54.7007 40.3173C54.6007 40.4173 54.5006 40.4173 54.4006 40.5173C54.5006 40.5173 54.6007 40.5173 54.6007 40.5173C54.7007 40.5173 54.7007 40.4173 54.7007 40.3173ZM57.3006 39.2173C57.234 39.2173 57.1674 39.2506 57.1007 39.3173C57.034 39.3173 57.0007 39.3173 57.0007 39.3173C56.8674 39.3173 56.7673 39.3506 56.7007 39.4172C56.634 39.4172 56.5674 39.4507 56.5007 39.5173C56.4341 39.5173 56.3673 39.5507 56.3006 39.6173C55.7006 39.8173 55.3007 40.2173 55.2007 40.6173C55.9007 40.6173 56.5007 40.5172 57.1007 40.4172C57.2007 40.0172 57.2006 39.6173 57.3006 39.2173ZM57.7007 38.3173C60.3007 36.4173 61.1007 33.9173 60.6007 30.8173C60.5007 30.2173 60.2006 29.5173 59.9006 28.8173C59.3006 29.2173 58.8006 29.4173 58.4006 29.6173C58.2006 29.8173 57.8007 29.8173 57.7007 30.0173C57.7007 30.084 57.7007 30.1173 57.7007 30.1173C57.634 30.184 57.6007 30.2506 57.6007 30.3173C57.534 30.3839 57.4673 30.4507 57.4006 30.5173C57.4006 30.584 57.3673 30.6506 57.3006 30.7173C57.234 30.784 57.1674 30.884 57.1007 31.0173C57.034 31.0173 57.0007 31.0173 57.0007 31.0173C56.9341 31.084 56.8673 31.1506 56.8006 31.2173C56.8006 31.284 56.8006 31.3173 56.8006 31.3173C56.734 31.3173 56.7007 31.3506 56.7007 31.4172C56.634 31.4172 56.6007 31.4172 56.6007 31.4172C56.534 31.4839 56.5007 31.5173 56.5007 31.5173C56.4341 31.5173 56.4006 31.5506 56.4006 31.6173C56.334 31.6173 56.3006 31.6173 56.3006 31.6173C56.234 31.684 56.2007 31.7173 56.2007 31.7173C56.134 31.7173 56.1007 31.7173 56.1007 31.7173C56.034 31.784 55.9673 31.8173 55.9006 31.8173C55.9006 31.8839 55.8673 31.9172 55.8006 31.9172C55.8006 31.9172 55.7673 31.9172 55.7007 31.9172C55.7007 31.9172 55.6674 31.9172 55.6007 31.9172C55.6007 31.9839 55.5674 32.0173 55.5007 32.0173C55.5007 32.0173 55.4673 32.0173 55.4006 32.0173C55.4006 32.0173 55.3673 32.0173 55.3006 32.0173C55.3006 32.0173 55.2673 32.0507 55.2007 32.1173C55.134 32.1173 55.1007 32.1173 55.1007 32.1173C55.1007 32.1173 55.0674 32.1173 55.0007 32.1173C54.6674 32.184 54.3006 32.184 53.9006 32.1173C54.3006 35.0173 54.0007 37.8172 52.5007 40.4172C52.8007 40.4172 53.0007 40.4173 53.1007 40.3173C54.1674 40.1173 55.1674 39.7839 56.1007 39.3173C56.1674 39.2506 56.2673 39.2173 56.4006 39.2173C56.4673 39.1506 56.5673 39.084 56.7007 39.0173C56.7673 38.9507 56.834 38.9172 56.9006 38.9172C56.9006 38.8506 56.9341 38.8173 57.0007 38.8173C57.0007 38.8173 57.034 38.8173 57.1007 38.8173C57.3007 38.6173 57.5007 38.4506 57.7007 38.3173ZM59.7007 38.3173C59.7007 38.2506 59.7007 38.2173 59.7007 38.2173C59.634 38.1506 59.6007 38.084 59.6007 38.0173C59.6007 37.9507 59.5674 37.9172 59.5007 37.9172C59.5007 37.9172 59.5007 37.8839 59.5007 37.8173C59.5007 37.7506 59.4673 37.7173 59.4006 37.7173C59.4006 37.7173 59.4006 37.684 59.4006 37.6173C58.8006 38.1173 57.7007 38.9172 57.6007 38.9172C57.6007 39.3172 57.6007 39.8172 57.6007 40.4172C58.4007 40.1172 59.1007 39.9173 59.7007 39.7173C59.7673 39.184 59.7673 38.7173 59.7007 38.3173ZM62.1007 38.3173C62.1007 38.2506 62.0674 38.184 62.0007 38.1173C61.9341 37.984 61.9006 37.8839 61.9006 37.8173C61.7673 37.5506 61.6341 37.284 61.5007 37.0173C61.4341 36.9507 61.4006 36.8839 61.4006 36.8173C61.334 36.7506 61.3006 36.684 61.3006 36.6173C61.234 36.5507 61.2007 36.4839 61.2007 36.4172C61.134 36.3506 61.1007 36.3173 61.1007 36.3173C61.0007 36.1173 60.9006 36.1173 60.8006 36.2173C60.734 36.2173 60.6674 36.2506 60.6007 36.3173C60.534 36.3839 60.4673 36.4172 60.4006 36.4172C60.134 36.6172 59.9007 36.7839 59.7007 36.9172C59.634 36.9839 59.6007 37.0507 59.6007 37.1173C59.6007 37.1173 59.6007 37.1506 59.6007 37.2173C59.6674 37.2173 59.7007 37.2506 59.7007 37.3173C59.7007 37.4506 59.734 37.584 59.8006 37.7173C59.8006 37.784 59.8006 37.8506 59.8006 37.9172C59.8006 37.9172 59.834 37.9172 59.9006 37.9172C59.9006 37.9839 59.9006 38.0507 59.9006 38.1173C59.9006 38.184 59.9006 38.2173 59.9006 38.2173C60.034 38.6173 60.1673 39.0172 60.3006 39.4172C60.8006 39.1172 61.4007 38.8172 62.0007 38.4172C62.0674 38.4172 62.1007 38.3839 62.1007 38.3173ZM63.8006 36.8173L63.7007 36.7173C63.3007 36.3173 62.7006 35.4173 62.4006 35.2173C62.2006 35.2173 61.7006 35.6173 61.3006 35.8173C61.7006 36.5173 62.0007 37.3173 62.5007 38.0173C62.8007 37.8173 63.8006 36.9173 63.8006 36.8173ZM65.1007 35.0173C64.9007 34.7173 64.4007 34.1173 64.0007 34.0173C63.6007 34.3173 63.0006 34.7172 62.8006 34.9172C62.9006 35.2172 63.7007 36.1173 64.0007 36.6173C64.2007 36.3173 64.6007 35.6173 65.1007 35.0173ZM65.8006 33.9172C65.6006 33.6172 65.2006 33.2173 64.9006 33.3173C64.7006 33.4173 64.5006 33.6173 64.3006 33.8173C64.5006 33.9173 65.0007 34.4173 65.2007 34.8173C65.4007 34.4839 65.6006 34.1839 65.8006 33.9172ZM66.1007 32.4172C65.8007 32.5172 65.6006 32.6172 65.3006 32.9172C65.5006 33.1172 65.8007 33.4173 66.0007 33.6173C66.2007 33.3507 66.334 33.1172 66.4006 32.9172C66.6006 32.2172 66.3007 32.2172 66.1007 32.4172Z" fill="#050505"/>
<path d="M34.0007 11.7173C34.0007 11.984 34.0007 12.2172 34.0007 12.4172C34.1341 12.4172 34.234 12.4172 34.3007 12.4172C34.3007 12.2172 34.2674 11.984 34.2007 11.7173C34.134 11.7173 34.0674 11.7173 34.0007 11.7173Z" fill="#050505"/>
<path d="M41.7007 15.2173C41.634 15.2173 41.534 15.184 41.4006 15.1173C41.134 15.1173 40.8674 15.1173 40.6007 15.1173C40.7007 15.8173 41.2007 15.9173 41.6007 16.0173C43.2007 16.6173 44.9007 16.7173 46.5007 16.7173C48.0007 16.7173 49.6007 16.6173 51.0007 16.2173C46.9007 16.3173 43.3007 15.7173 41.7007 15.2173Z" fill="#B9905E"/>
<path d="M60.6007 31.0173C60.2007 32.2173 59.3007 33.4173 58.0007 34.3173C57.8007 34.5173 57.5673 34.6839 57.3007 34.8173C57.3007 34.8173 57.2674 34.8173 57.2007 34.8173C57.2007 34.8173 57.2007 34.8506 57.2007 34.9172C57.134 34.9172 57.0674 34.9507 57.0007 35.0173C56.8674 35.084 56.734 35.1506 56.6007 35.2173C56.534 35.2173 56.4673 35.2506 56.4006 35.3173C55.6006 35.7173 54.7673 36.0173 53.9006 36.2173C53.7006 37.7173 53.3007 39.1172 52.5007 40.4172C52.8007 40.4172 53.0007 40.4173 53.1007 40.3173C54.1674 40.1173 55.1674 39.7839 56.1007 39.3173C56.1674 39.2506 56.2673 39.2173 56.4006 39.2173C56.4673 39.1506 56.5674 39.084 56.7007 39.0173C56.7674 38.9507 56.834 38.9172 56.9006 38.9172C56.9006 38.8506 56.9341 38.8173 57.0007 38.8173C57.0007 38.8173 57.034 38.8173 57.1007 38.8173C57.3007 38.6173 57.5007 38.4506 57.7007 38.3173C60.3007 36.5173 61.1007 33.9173 60.6007 31.0173Z" fill="#B24139"/>
<path d="M49.8007 10.1173C49.6007 10.3173 49.5006 10.5173 49.4006 10.6173C48.5006 11.8173 46.9007 12.2173 45.6007 11.7173C45.0674 11.5173 44.634 11.2173 44.3007 10.8173C44.7007 11.5173 45.3007 12.1172 46.0007 12.4172C47.4007 12.9172 48.9007 12.4173 49.8007 11.3173C50.1007 11.0173 50.1006 10.7172 49.9006 10.4172C49.9006 10.2839 49.8673 10.184 49.8007 10.1173Z" fill="#D2D1CF"/>
<path d="M38.0007 40.5173C37.6007 41.0173 37.2007 41.4173 36.7007 41.6173C36.7007 41.8173 36.7007 42.0506 36.7007 42.3173C36.9007 41.9173 37.1007 41.5173 37.3007 41.2173C37.6007 40.9173 37.9006 40.7173 38.4006 40.7173C38.2673 40.6506 38.1341 40.584 38.0007 40.5173Z" fill="#B98F62"/>
<path d="M35.6007 42.0173C35.8007 42.084 35.9674 42.1506 36.1007 42.2173C36.1674 42.084 36.234 41.9506 36.3007 41.8173C36.034 41.8839 35.8007 41.9507 35.6007 42.0173Z" fill="#7D5225"/>
<path d="M50.1007 44.6173C50.3007 44.6173 50.5007 44.6173 50.7007 44.6173C50.7007 44.484 50.7007 44.3839 50.7007 44.3173C50.4007 44.5173 50.2007 44.6173 50.1007 44.6173Z" fill="#7B5326"/>
<path d="M51.0007 43.9172C51.0007 43.9172 51.0007 43.9507 51.0007 44.0173C51.0674 44.1507 51.134 44.2839 51.2007 44.4172C51.3007 44.0172 51.3007 43.5173 51.5007 43.1173C51.5674 42.9173 51.7341 42.7173 52.0007 42.5173C52.8007 42.1173 53.4007 42.6173 54.0007 43.0173C54.3007 42.5173 54.3006 41.6173 53.9006 40.6173C53.1673 40.7506 52.4007 40.9173 51.6007 41.1173C51.6007 42.5173 51.3007 43.4172 51.0007 43.9172Z" fill="#B98F62"/>
<path d="M61.8007 36.8173C62.0007 37.2173 62.2341 37.6173 62.5007 38.0173C62.8007 37.8173 63.8007 36.9173 63.8007 36.8173L63.7007 36.7173C63.5007 36.5173 63.2007 36.2172 63.0007 35.9172C62.6007 36.2506 62.2007 36.5506 61.8007 36.8173Z" fill="#B98F62"/>
<path d="M66.0007 33.6173C66.2007 33.3506 66.334 33.1172 66.4006 32.9172C66.4673 32.7839 66.5007 32.6507 66.5007 32.5173C66.2341 32.784 66.0007 33.0506 65.8007 33.3173C65.8673 33.4506 65.9341 33.5506 66.0007 33.6173Z" fill="#B98F62"/>
<path d="M65.2007 34.8173C65.4007 34.4839 65.6007 34.1839 65.8007 33.9172C65.734 33.7839 65.6341 33.684 65.5007 33.6173C65.3007 33.8173 65.0673 34.0173 64.8007 34.2173C65.0007 34.4173 65.1007 34.6173 65.2007 34.8173Z" fill="#B98F62"/>
<path d="M64.0007 36.6173C64.2007 36.3173 64.6007 35.6173 65.1007 35.0173C65.0007 34.9173 64.8007 34.6172 64.6007 34.4172C64.134 34.8839 63.7007 35.284 63.3007 35.6173C63.5007 36.0173 63.8007 36.3173 64.0007 36.6173Z" fill="#B98F62"/>
<path d="M59.9006 38.1173C59.9006 38.184 59.9006 38.2173 59.9006 38.2173C60.034 38.6173 60.1673 39.0172 60.3007 39.4172C60.8007 39.1172 61.4007 38.8172 62.0007 38.4172C62.0674 38.4172 62.1007 38.3839 62.1007 38.3173C62.1007 38.2506 62.0674 38.184 62.0007 38.1173C61.9341 37.984 61.9006 37.8839 61.9006 37.8173C61.7673 37.5506 61.6341 37.284 61.5007 37.0173C60.9007 37.4173 60.3673 37.7507 59.9006 38.0173C59.9006 38.084 59.9006 38.1173 59.9006 38.1173Z" fill="#B98F62"/>
<path d="M57.6007 40.4172C58.4007 40.1172 59.1007 39.9173 59.7007 39.7173C59.7674 39.184 59.7674 38.7173 59.7007 38.3173C59.7007 38.2506 59.7007 38.2173 59.7007 38.2173C59.7007 38.2173 59.6674 38.2173 59.6007 38.2173C58.8007 38.6173 58.134 38.884 57.6007 39.0173C57.6007 39.4173 57.6007 39.8172 57.6007 40.4172Z" fill="#B98F62"/>
<path d="M63.0673 62.4901L5.42593 66.3843L5.54041 62.2422L62.6852 58.4067L63.0673 62.4901Z" fill="#6A4C9E"/>
<path d="M55.2557 71.3685L13.8602 73.8457L13.9865 69.8029L54.8736 67.2852L55.2557 71.3685Z" fill="#6A4C9E"/>
<path fill-rule="evenodd" clip-rule="evenodd" d="M12.0952 52.1025C12.8897 52.0086 13.7953 52.0022 13.604 54.6429C13.3775 56.9857 12.5948 57.1789 11.3913 57.2205L10.9941 57.2675L11.4001 52.1847L12.0952 52.1025ZM11.9554 52.6225L11.6305 56.6888C12.7229 56.5596 12.8041 55.543 12.7977 54.6375C12.9024 53.8196 13.0478 52.4934 11.9554 52.6225Z" fill="#FEFEFE"/>
<path d="M14.5926 57.0434L13.8975 57.1256L14.3911 51.9317L14.9869 51.8613L14.5926 57.0434ZM14.6656 51.6979L14.3441 51.5345L15.0212 50.4475L15.4536 50.6985L14.6656 51.6979Z" fill="#FEFEFE"/>
<path fill-rule="evenodd" clip-rule="evenodd" d="M16.9848 51.7258L17.5836 56.7906L16.8885 56.8728L16.7711 55.8797L15.7662 55.8977L15.4864 56.9377L14.8905 57.0082L16.389 51.7962L16.9848 51.7258ZM16.7177 54.5769L16.6057 52.7776L16.0054 55.3659L16.7999 55.272L16.7177 54.5769Z" fill="#FEFEFE"/>
<path d="M19.7802 56.6316L19.085 56.7138L19.4793 51.5317L20.1745 51.4495L19.7802 56.6316Z" fill="#FEFEFE"/>
<path d="M21.256 52.9327L21.2571 54.6444L21.0829 56.5783L20.376 56.5612L20.8814 51.4666L21.4772 51.3962L22.3323 55.2222L22.3955 53.2008L22.5696 51.267L23.1772 51.2958L22.7712 56.3787L22.1752 56.4491L21.3202 52.623L21.256 52.9327Z" fill="#FEFEFE"/>
<path d="M25.6717 51.1016L25.6427 51.7092L24.8366 51.7039L24.4711 56.2784L23.776 56.3606L24.1414 51.786L23.347 51.88L23.4751 51.2607L25.6717 51.1016Z" fill="#FEFEFE"/>
<path d="M27.6696 50.9661L27.6407 51.5738L26.5365 51.6035L26.3271 53.2395L27.4196 53.1104L27.2914 53.7297L26.2983 53.8471L26.2 55.5705L27.2924 55.4414L27.2635 56.0489L25.4759 56.2603L25.8703 51.0782L27.6696 50.9661Z" fill="#FEFEFE"/>
<path fill-rule="evenodd" clip-rule="evenodd" d="M28.0668 50.9192L28.8613 50.8252C29.3578 50.7665 30.164 50.7719 30.0187 52.0982C29.9664 52.5071 29.7624 53.3369 29.1665 53.4073L29.9566 55.8314L29.2615 55.9135L28.4714 53.4895L28.2684 56.0309L27.6607 56.002L28.0668 50.9192ZM29.2477 52.3908C29.2883 51.8825 29.2414 51.4852 28.7449 51.5439L28.6337 51.4564L28.5355 53.1798C29.0438 53.2204 29.2071 52.8991 29.2477 52.3908Z" fill="#FEFEFE"/>
<path d="M31.1346 52.1677L31.1356 53.8794L30.9614 55.8132L30.2663 55.8954L30.6606 50.7133L31.3557 50.6311L32.2109 54.4571L32.1746 52.4475L32.3606 50.613L33.0557 50.5308L32.6613 55.713L31.9545 55.6958L31.0994 51.8698L31.1346 52.1677Z" fill="#FEFEFE"/>
<path fill-rule="evenodd" clip-rule="evenodd" d="M34.9543 50.407L35.6523 55.46L34.9572 55.5422L34.8398 54.5491L33.835 54.5672L33.5551 55.6073L32.86 55.6895L34.4577 50.4657L34.9543 50.407ZM34.6872 53.2582L34.5634 51.3595L33.9749 54.0472L34.7694 53.9533L34.6872 53.2582Z" fill="#FEFEFE"/>
<path d="M38.2262 50.8259C38.0859 50.7753 37.9496 50.7578 37.8172 50.7734C36.9117 50.7798 36.7781 52.2053 36.6499 52.8247C36.6328 53.5316 36.5867 54.8461 37.4805 54.7404C37.6129 54.7247 37.7745 54.6721 37.9653 54.5824L37.8372 55.2017C37.7204 55.3498 37.5588 55.4024 37.3524 55.3597C35.9621 55.5241 35.8853 54.0227 35.9665 53.0061C36.036 51.8903 36.3447 50.2427 37.735 50.0783C37.9336 50.0548 38.144 50.1306 38.255 50.2182L38.2262 50.8259Z" fill="#FEFEFE"/>
<path d="M38.842 55.1836L38.2462 55.254L38.6405 50.0719L39.3473 50.089L38.842 55.1836Z" fill="#FEFEFE"/>
<path fill-rule="evenodd" clip-rule="evenodd" d="M42.2345 52.3659C42.2526 53.3707 42.0433 55.0066 40.7523 55.1592C39.4496 55.2125 39.5478 53.489 39.6408 52.5717C39.7337 51.6545 39.8321 49.931 41.1349 49.8777C42.5252 49.7133 42.3275 51.4486 42.2345 52.3659ZM40.3477 52.589C40.2664 53.6055 40.2729 54.511 40.7811 54.5516C41.2777 54.4929 41.47 53.5639 41.5394 52.4481C41.6089 51.3322 41.6025 50.4267 41.1059 50.4854C40.6094 50.5441 40.4171 51.4731 40.3477 52.589Z" fill="#FEFEFE"/>
<path d="M43.42 51.3195L43.4209 53.0312L43.2351 54.8657L42.5399 54.9479L43.0335 49.7541L43.6412 49.7829L44.4962 53.609L44.5838 53.4978L44.5476 51.4882L44.7335 49.6538L45.3293 49.5833L44.935 54.7654L44.3392 54.8359L43.4723 50.9105L43.42 51.3195Z" fill="#FEFEFE"/>
<path fill-rule="evenodd" clip-rule="evenodd" d="M47.3273 49.4478L47.926 54.5125L47.2309 54.5947L47.1135 53.6016L46.1204 53.719L45.8288 54.6598L45.233 54.7302L46.7314 49.5182L47.3273 49.4478ZM47.0602 52.2989L46.9481 50.4996L46.3478 53.088L47.1541 53.0933L47.0602 52.2989Z" fill="#FEFEFE"/>
<path d="M49.3252 49.3123L48.9597 53.8868L50.052 53.7577L50.0232 54.3652L48.224 54.4773L48.63 49.3944L49.3252 49.3123Z" fill="#FEFEFE"/>
<path fill-rule="evenodd" clip-rule="evenodd" d="M52.7251 49.1118C53.5196 49.0179 54.4251 49.0115 54.1227 51.5647C54.0073 53.995 53.2246 54.1883 51.9218 54.2416L51.5245 54.2886L51.9189 49.1063L52.7251 49.1118ZM52.5969 49.7311L52.2604 53.6981C53.3645 53.6682 53.434 52.5523 53.5387 51.7344C53.544 50.9282 53.7886 49.5902 52.5969 49.7311Z" fill="#FEFEFE"/>
<path d="M56.7092 48.7415L56.6804 49.349L55.4886 49.4899L55.3786 51.114L56.3717 50.9966L56.3427 51.6042L55.3379 51.6223L55.2514 53.4452L56.3437 53.316L56.3149 53.9236L54.5156 54.0356L54.9099 48.8535L56.7092 48.7415Z" fill="#FEFEFE"/>
<path d="M9.66342 59.6401L9.29257 65.0209L12.4821 64.7445L12.3314 66.8769L6.94538 67.3123L7.46682 59.7991L9.66342 59.6401Z" fill="#FEFEFE"/>
<path fill-rule="evenodd" clip-rule="evenodd" d="M18.2509 59.0277L20.5217 66.3114L18.1266 66.4939L17.9334 65.7111L15.5382 65.8936L15.2231 66.6358L12.828 66.8182L16.0544 59.1867L18.2509 59.0277ZM16.2965 63.7901L17.2896 63.6727L16.9032 62.1072L16.2965 63.7901Z" fill="#FEFEFE"/>
<path d="M27.7007 64.8586L27.1049 64.929L25.8418 62.7623L25.7092 65.8997L23.5127 66.0585L23.9466 58.6565L26.0439 58.5092L27.6754 61.2365L29.7301 58.1741L31.728 58.0386L31.2939 65.4408L28.9982 65.6115L29.2418 62.5618L27.7007 64.8586Z" fill="#FEFEFE"/>
<path fill-rule="evenodd" clip-rule="evenodd" d="M37.412 57.5681L39.5836 64.8636L37.1884 65.0461L36.9952 64.2633L34.6 64.4458L34.2967 65.2871L31.9016 65.4696L35.1162 57.7388L37.412 57.5681ZM35.557 62.3187L36.5501 62.2013L36.076 60.7469L35.557 62.3187Z" fill="#FEFEFE"/>
<path fill-rule="evenodd" clip-rule="evenodd" d="M40.2787 64.7814L40.812 57.3675L43.7037 57.1263C44.7708 57.0673 45.6453 57.3667 46.3273 58.0245C46.943 58.6902 47.2103 59.5313 47.1291 60.5478C47.0557 61.6306 46.6609 62.55 45.9447 63.3059C45.2285 64.0619 44.3368 64.4694 43.2697 64.5285L40.2787 64.7814ZM42.7586 59.3527L42.5383 62.601L43.3328 62.5071C43.7301 62.4601 44.0785 62.2846 44.3782 61.9807C44.6118 61.6845 44.7673 61.297 44.8449 60.8179C44.8563 60.3466 44.7432 59.9572 44.5055 59.6497C44.2677 59.3421 43.9502 59.2119 43.553 59.2588L42.7586 59.3527Z" fill="#FEFEFE"/>
<path fill-rule="evenodd" clip-rule="evenodd" d="M54.451 63.7101L51.7578 63.9278L50.3431 62.1818L50.1446 62.2053L50.0579 64.0281L47.8614 64.187L48.2953 56.7849L51.3856 56.5203C51.3973 56.6196 51.4849 56.5085 51.8939 56.5608C52.3029 56.6132 52.6244 56.7766 53.0451 56.9282C53.4775 57.1792 53.8224 57.5413 53.9921 58.1254C54.0974 58.4486 54.1366 58.7796 54.1095 59.1185C54.0361 60.2012 53.5595 60.996 52.6796 61.5028L54.451 63.7101ZM50.4405 58.7466L50.3946 60.0611L51.2007 60.0665C51.5979 60.0195 51.8023 59.7605 51.8137 59.2892C51.8661 58.8802 51.6322 58.6057 51.3343 58.6409L50.4405 58.7466Z" fill="#FEFEFE"/>
<path d="M57.6259 58.1993L57.6088 58.9061L60.5005 58.6649L60.3263 60.5988L57.4346 60.8399L57.4057 61.4475L60.496 61.1828L60.4447 63.3036L55.0585 63.7389L55.5801 56.2257L60.8786 55.9015L60.7163 57.9346L57.6259 58.1993Z" fill="#FEFEFE"/>
<path d="M18.0356 70.8347L16.0377 70.9701L16.2001 68.937L22.3924 68.507L22.3292 70.5284L20.2321 70.6757L19.8612 76.0564L17.6647 76.2154L18.0356 70.8347Z" fill="#FEFEFE"/>
<path d="M22.7529 75.8153L23.2862 68.4014L25.4827 68.2424L25.0488 75.6446L22.7529 75.8153Z" fill="#FEFEFE"/>
<path d="M28.7202 70.075L28.7031 70.7819L31.5948 70.5407L31.4206 72.4745L28.5289 72.7157L28.5001 73.3233L31.5904 73.0586L31.5391 75.1793L26.1529 75.6147L26.6745 68.1015L31.973 67.7772L31.8105 69.8104L28.7202 70.075Z" fill="#FEFEFE"/>
<path fill-rule="evenodd" clip-rule="evenodd" d="M39.1217 74.585L36.4286 74.8027L35.0138 73.0567L34.8153 73.0802L34.7286 74.903L32.5321 75.0619L32.966 67.6598L36.0563 67.3952C36.1556 67.3834 36.1556 67.3834 36.5646 67.4357C36.9736 67.4881 37.3826 67.5404 37.8151 67.7914C38.1482 68.0541 38.4931 68.4162 38.6628 69.0003C38.7682 69.3235 38.8073 69.6545 38.7802 69.9934C38.7068 71.0761 38.2633 71.867 37.4496 72.3659L39.1217 74.585ZM35.0119 69.6332L34.9659 70.9478L35.7721 70.9531C36.1694 70.9062 36.3736 70.6471 36.3851 70.1758C36.4374 69.7669 36.2037 69.4923 35.9057 69.5276L35.0119 69.6332Z" fill="#FEFEFE"/>
<path fill-rule="evenodd" clip-rule="evenodd" d="M46.3071 74.0377L43.7133 74.2435L42.2986 72.4976L42.0999 72.5211L41.9257 74.4548L39.7293 74.6138L40.2508 67.1006L43.2536 66.9471C43.3529 66.9354 43.4522 66.9236 43.8494 66.8767C44.2584 66.929 44.5797 67.0924 45.0122 67.3433C45.4446 67.5943 45.7778 67.857 45.9476 68.4411C45.9867 68.7721 45.9928 69.107 45.9657 69.4459C45.9585 70.5208 45.5149 71.3118 44.635 71.8186L46.3071 74.0377ZM42.2966 69.0742L42.1631 70.4997L43.0569 70.394C43.4541 70.3471 43.6584 70.0879 43.6698 69.6166C43.7222 69.2077 43.4883 68.9333 43.0911 68.9802L42.2966 69.0742Z" fill="#FEFEFE"/>
<path fill-rule="evenodd" clip-rule="evenodd" d="M52.0279 66.2118L54.2987 73.4956L51.9036 73.6781L51.7104 72.8954L49.3152 73.0778L49.012 73.9193L46.6168 74.1017L49.8314 66.3708L52.0279 66.2118ZM50.1729 70.9625L51.0665 70.8568L50.6919 69.3907L50.1729 70.9625Z" fill="#FEFEFE"/>
<path d="M60.1862 82.796L58.7407 85.4664L55.7634 83.883C55.7634 83.883 55.1747 83.0038 55.4964 82.2876C55.6698 81.6278 57.1525 81.0644 57.1525 81.0644L60.1862 82.796Z" fill="#FEFEFE"/>
<path fill-rule="evenodd" clip-rule="evenodd" d="M55.4314 84.3486C55.3632 84.318 55.3102 84.2532 55.2727 84.1544C55.1704 84.1084 54.5713 82.9787 54.8826 82.0119C55.2503 81.1935 56.6307 80.584 56.9272 80.4713C57.1249 80.3962 57.2919 80.3893 57.4284 80.4506L60.5184 82.3304C60.8253 82.4683 60.938 82.7648 60.6978 83.0258L59.2064 85.7986C58.9662 86.0595 58.6697 86.1722 58.3628 86.0344L55.4314 84.3486ZM57.1274 81.6679C56.6366 81.9392 56.0999 82.3129 56.008 82.5175C55.8701 82.8244 55.9829 83.1209 56.1979 83.4634L58.459 84.7252L59.4909 82.9755L57.1274 81.6679Z" fill="#FEFEFE"/>
<path d="M54.9494 82.4108C55.0101 81.4544 54.9419 78.5957 54.9419 78.5957C54.9419 78.5957 55.2072 77.7313 55.8003 77.5059C56.291 77.2346 56.9302 76.9069 56.9302 76.9069L56.5712 75.5161L59.513 77.4524L59.4538 80.8686L58.8088 79.8411C58.8088 79.8411 55.2399 80.9429 54.9494 82.4108Z" fill="#FEFEFE"/>
<path fill-rule="evenodd" clip-rule="evenodd" d="M54.6174 82.8764C54.5151 82.8304 54.3564 82.6361 54.346 82.3856C54.4068 81.4292 54.3385 78.5707 54.3385 78.5707C54.3692 78.5025 54.3998 78.4342 54.4305 78.366C54.4764 78.2637 54.6854 77.2509 55.575 76.9129C55.8255 76.9025 56.0198 76.7438 56.3163 76.6311L56.0242 75.6393C55.8655 75.445 55.9575 75.2404 56.1517 75.0818C56.3459 74.9231 56.5965 74.9127 56.8011 75.0046L59.7429 76.9409C59.9475 77.0328 60.1061 77.2271 60.0142 77.4317L59.955 80.8477C59.9654 81.0983 59.8275 81.4054 59.5769 81.4157C59.2804 81.5284 58.9735 81.3906 58.9631 81.14L58.5331 80.455C57.1987 80.9621 55.6241 81.7301 55.507 82.5382C55.5174 82.7888 55.1749 83.0039 54.9243 83.0143C54.8561 82.9837 54.7538 82.9377 54.6174 82.8764ZM55.5455 78.621C55.5099 78.9739 55.495 79.8278 55.5826 80.7278C56.5537 79.9345 58.1387 79.4171 58.5835 79.2481C58.6823 79.2105 58.7658 79.207 58.834 79.2377L58.9199 77.6778L57.4772 76.7839C57.4876 77.0344 57.3957 77.239 57.2015 77.3977C57.2015 77.3977 56.5625 77.7254 56.0717 77.9968C55.7752 78.1095 55.5914 78.5187 55.5455 78.621Z" fill="#FEFEFE"/>
<path d="M64.1687 80.7734L67.2572 80.1936L67.8933 83.4303C67.8933 83.4303 67.536 84.4994 66.8406 84.6788C66.1453 84.8583 64.8154 84.2607 64.8154 84.2607L64.1687 80.7734Z" fill="#FEFEFE"/>
<path fill-rule="evenodd" clip-rule="evenodd" d="M64.4833 84.7263C64.3469 84.665 64.2411 84.5356 64.1659 84.3379L63.5652 80.7483C63.5548 80.4978 63.6928 80.1908 64.0917 80.1241L67.1341 79.6465C67.4306 79.5338 67.6917 79.774 67.8043 80.0705L68.4405 83.3072C68.4781 83.4061 68.4662 83.5237 68.4049 83.6601C68.3589 83.7624 68.058 84.9797 67.0661 85.2718C66.2225 85.5076 64.7902 84.8642 64.4833 84.7263ZM64.839 81.1975L65.2497 83.8411C65.7613 84.0709 66.4211 84.2444 66.7176 84.1317C66.9682 84.1213 67.152 83.712 67.2899 83.4051L66.7308 80.8178L64.839 81.1975Z" fill="#FEFEFE"/>
<path d="M67.3062 85.0109C66.5293 85.6455 64.3469 87.493 64.3469 87.493C64.3469 87.493 63.5596 87.8771 62.8895 87.4531C62.4802 87.2692 61.7181 87.0498 61.7181 87.0498L60.9619 88.1856L60.52 84.7902L63.2392 82.5691L62.8359 83.7404C62.8359 83.7404 65.9822 85.7686 67.3062 85.0109Z" fill="#FEFEFE"/>
<path fill-rule="evenodd" clip-rule="evenodd" d="M60.7321 88.6972C60.5275 88.6053 60.4219 88.4757 60.4149 88.3087L59.9165 84.7651C59.9625 84.6628 59.9521 84.4122 60.1463 84.2535L62.8196 82.1346C63.1161 82.0219 63.3666 82.0116 63.5712 82.1035C63.7299 82.2977 63.8886 82.492 63.7507 82.7989L63.5313 83.5609C64.713 84.2148 66.3959 84.8478 66.9326 84.4741C67.2291 84.3614 67.5821 84.3971 67.6948 84.6936C67.8534 84.8878 67.8178 85.2407 67.6236 85.3993L64.6643 87.8815C64.6336 87.9497 64.6183 87.9839 64.6183 87.9839C64.47 88.0402 63.5345 88.4805 62.6137 88.0669C62.4551 87.8727 62.2505 87.7808 61.9999 87.7912L61.4275 88.5177C61.3356 88.7223 61.0391 88.8351 60.8345 88.7432C60.7663 88.7125 60.7321 88.6972 60.7321 88.6972ZM61.1798 84.9637L61.2985 86.6155C61.4927 86.4568 61.7433 86.4464 61.9479 86.5383C61.9479 86.5383 62.71 86.7577 63.2215 86.9875C63.4825 87.2277 63.8251 87.0127 64.0757 87.0023L65.6753 85.6307C64.3098 85.3861 62.8671 84.4921 62.5038 84.206C62.4356 84.1754 62.3828 84.1107 62.3452 84.0118L61.1798 84.9637Z" fill="#FEFEFE"/>
<path d="M60.7762 77.6511L59.1586 74.9571L62.0008 73.2831C62.0008 73.2831 63.0491 73.1391 63.5251 73.7218C64.001 74.3045 63.8128 75.8183 63.8128 75.8183L60.7762 77.6511Z" fill="#FEFEFE"/>
<path fill-rule="evenodd" clip-rule="evenodd" d="M60.5464 78.1627C60.41 78.1014 60.3078 78.0555 60.2396 78.0249L58.6218 75.3307C58.5092 75.0342 58.647 74.7273 58.8413 74.5687L61.7294 72.7923C61.7601 72.7241 61.859 72.6866 62.026 72.6797C62.1743 72.6233 63.4272 72.5713 64.0159 73.4505C64.5942 74.0791 64.4059 75.593 64.3703 75.9459C64.3772 76.1129 64.3159 76.2494 64.1865 76.3551L61.0476 78.1419C60.9182 78.2476 60.7853 78.27 60.6488 78.2087C60.5806 78.1781 60.5464 78.1627 60.5464 78.1627ZM59.9207 75.1765L60.9957 76.889L63.3013 75.5886C63.3265 74.9851 63.2494 74.3357 63.1367 74.0392C62.978 73.845 62.5228 73.7634 62.124 73.8301L59.9207 75.1765Z" fill="#FEFEFE"/>
<path d="M63.7089 73.3125C64.5274 73.6802 67.0955 75.0799 67.0955 75.0799C67.0955 75.0799 67.6738 75.7085 67.6026 76.4143C67.4751 76.9718 67.5062 77.7235 67.5062 77.7235L68.9742 78.014L65.8813 79.6984L62.8936 77.8644L64.1005 77.9149C64.1005 77.9149 64.901 74.2169 63.7089 73.3125Z" fill="#FEFEFE"/>
<path fill-rule="evenodd" clip-rule="evenodd" d="M65.5492 80.164L62.5615 78.33C62.3569 78.2381 62.2441 77.9417 62.336 77.737C62.3256 77.4865 62.6222 77.3738 62.8728 77.3634L63.6245 77.3322C63.8691 75.9666 63.9447 74.1562 63.2745 73.7322C63.1158 73.5379 63.049 73.1391 63.2433 72.9804C63.3811 72.6735 63.6777 72.5608 63.9387 72.801C64.7571 73.1687 67.3252 74.5683 67.3252 74.5683C67.3934 74.5989 67.4463 74.6636 67.4838 74.7625C67.5861 74.8084 68.2668 75.483 68.1601 76.5417C68.0682 76.7463 68.0785 76.997 68.0889 77.2475L69.1016 77.4565C69.3062 77.5484 69.5108 77.6404 69.5212 77.891C69.5316 78.1415 69.4397 78.3461 69.2455 78.5048L66.1526 80.1893C66.0043 80.2456 65.7538 80.2559 65.5492 80.164ZM64.566 78.247L65.8501 78.9468L67.2763 78.235C67.0717 78.1431 67.0155 77.9948 67.0051 77.7442C67.0051 77.7442 66.9739 76.9925 66.9991 76.3891C67.0347 76.0362 66.8197 75.6937 66.7633 75.5454C66.4564 75.4076 65.6379 75.0399 64.8654 74.5699C65.122 75.9147 64.7395 77.5871 64.658 78.0423C64.6273 78.1105 64.5967 78.1788 64.566 78.247Z" fill="#FEFEFE"/>
<path d="M61.8689 74.9451L57.9237 79.0746L55.9355 80.7635L59.4407 84.1824L62.2594 85.5716L66.7785 83.1754L65.8086 77.9444L64.8655 74.57L61.8689 74.9451Z" fill="#FEFEFE"/>
<path d="M60.1863 82.796L58.7408 85.4665L55.7635 83.883C55.7635 83.883 55.1747 83.0038 55.4965 82.2877C55.6699 81.6278 57.1526 81.0644 57.1526 81.0644L60.1863 82.796Z" fill="#48B648"/>
<path d="M54.9494 82.4108C55.0101 81.4545 54.9419 78.5958 54.9419 78.5958C54.9419 78.5958 55.2072 77.7314 55.8003 77.506C56.291 77.2346 56.9302 76.9069 56.9302 76.9069L56.5712 75.5161L59.513 77.4524L59.4538 80.8686L58.8088 79.8412C58.8088 79.8412 55.2399 80.9429 54.9494 82.4108Z" fill="#48B648"/>
<path d="M64.1688 80.7735L67.2572 80.1937L67.8934 83.4304C67.8934 83.4304 67.5361 84.4994 66.8407 84.6789C66.1453 84.8583 64.8154 84.2607 64.8154 84.2607L64.1688 80.7735Z" fill="#48B648"/>
<path d="M67.3063 85.0109C66.5294 85.6455 64.347 87.4931 64.347 87.4931C64.347 87.4931 63.5597 87.8771 62.8895 87.4531C62.4803 87.2693 61.7182 87.0498 61.7182 87.0498L60.962 88.1857L60.5201 84.7902L63.2392 82.5691L62.836 83.7404C62.836 83.7404 65.9823 85.7686 67.3063 85.0109Z" fill="#48B648"/>
<path d="M60.7761 77.6511L59.1585 74.957L62.0007 73.283C62.0007 73.283 63.049 73.1391 63.525 73.7218C64.001 74.3045 63.8127 75.8183 63.8127 75.8183L60.7761 77.6511Z" fill="#48B648"/>
<path d="M63.7089 73.3125C64.5273 73.6802 67.0954 75.0798 67.0954 75.0798C67.0954 75.0798 67.6737 75.7085 67.6026 76.4143C67.4751 76.9718 67.5061 77.7234 67.5061 77.7234L68.9741 78.014L65.8812 79.6984L62.8936 77.8644L64.1004 77.9149C64.1004 77.9149 64.901 74.2169 63.7089 73.3125Z" fill="#48B648"/>
<path d="M60.1863 82.796L58.7408 85.4665L55.7635 83.883C55.7635 83.883 55.1747 83.0038 55.4965 82.2877C55.6699 81.6278 57.1526 81.0644 57.1526 81.0644L60.1863 82.796Z" stroke="#0B793E" stroke-width="0.4"/>
<path d="M54.9494 82.4108C55.0101 81.4545 54.9419 78.5958 54.9419 78.5958C54.9419 78.5958 55.2072 77.7314 55.8003 77.506C56.291 77.2346 56.9302 76.9069 56.9302 76.9069L56.5712 75.5161L59.513 77.4524L59.4538 80.8686L58.8088 79.8412C58.8088 79.8412 55.2399 80.9429 54.9494 82.4108Z" stroke="#0B793E" stroke-width="0.4"/>
<path d="M64.1688 80.7735L67.2572 80.1937L67.8934 83.4304C67.8934 83.4304 67.5361 84.4994 66.8407 84.6789C66.1453 84.8583 64.8154 84.2607 64.8154 84.2607L64.1688 80.7735Z" stroke="#0B793E" stroke-width="0.4"/>
<path d="M67.3063 85.0109C66.5294 85.6455 64.347 87.4931 64.347 87.4931C64.347 87.4931 63.5597 87.8771 62.8895 87.4531C62.4803 87.2693 61.7182 87.0498 61.7182 87.0498L60.962 88.1857L60.5201 84.7902L63.2392 82.5691L62.836 83.7404C62.836 83.7404 65.9823 85.7686 67.3063 85.0109Z" stroke="#0B793E" stroke-width="0.4"/>
<path d="M60.7761 77.6511L59.1585 74.957L62.0007 73.283C62.0007 73.283 63.049 73.1391 63.525 73.7218C64.001 74.3045 63.8127 75.8183 63.8127 75.8183L60.7761 77.6511Z" stroke="#0B793E" stroke-width="0.4"/>
<path d="M63.7089 73.3125C64.5273 73.6802 67.0954 75.0798 67.0954 75.0798C67.0954 75.0798 67.6737 75.7085 67.6026 76.4143C67.4751 76.9718 67.5061 77.7234 67.5061 77.7234L68.9741 78.014L65.8812 79.6984L62.8936 77.8644L64.1004 77.9149C64.1004 77.9149 64.901 74.2169 63.7089 73.3125Z" stroke="#0B793E" stroke-width="0.4"/>
<path d="M10.6 30.1999L10.7 29.4999C10.7 29.2333 10.7333 29 10.7999 28.8C10.7999 28.6667 10.8667 28.3999 11 27.9999C11.2 27.5999 11.4 27.2666 11.6 26.9999C11.8666 26.7333 12.2333 26.5 12.7 26.3C13.1666 26.1667 13.6999 26.0999 14.2999 26.0999C15.6999 26.1999 16.7 26.8 17.1 27.4C17.3 27.6666 17.4666 28 17.6 28.4C17.6666 28.8 17.7333 29.1 17.7999 29.3C17.7999 29.5 17.7666 29.7333 17.7 29.9999V30.0999C17.6333 30.8332 17.3333 31.5667 16.7999 32.3C16.1999 33.1 15.5666 33.7667 14.8999 34.3L17.5 34.4999L17.2999 37.3L10.3999 36.8L10.6 34.3C12.5 32.9 13.7 31.7999 14.2 31.0999C14.4 30.7666 14.5333 30.5333 14.6 30.4C14.6666 30.2 14.7 30 14.7 29.8C14.8 29.5 14.8 29.2999 14.6 29.0999C14.5333 28.9666 14.4 28.9 14.2 28.9C13.8 28.9 13.7 29.1 13.7 29.8L13.6 30.4L10.6 30.1999Z" fill="#050505"/>
<path d="M19.2999 30.8V30.0999C19.2999 29.8999 19.3332 29.6999 19.3999 29.4999C19.3999 29.2999 19.4666 28.9999 19.6 28.5999C19.8 28.1999 20 27.8666 20.2 27.5999C20.4666 27.3999 20.8333 27.1999 21.2999 26.9999C21.7666 26.7999 22.2999 26.7333 22.8999 26.8C24.2999 26.9 25.3 27.3999 25.7 27.9999C25.9 28.2666 26.0666 28.5999 26.2 28.9999C26.2666 29.3999 26.3332 29.6999 26.3999 29.8999C26.3999 30.1666 26.3666 30.3999 26.2999 30.5999V30.6999C26.2333 31.4332 25.9332 32.1999 25.3999 32.9999C24.7999 33.7333 24.1667 34.3999 23.5 34.9999L26.1 35.1999L25.8999 37.8999L19 37.3999L19.2 34.9999C21.1 33.5999 22.2999 32.5 22.7999 31.8C22.9999 31.4 23.1333 31.1333 23.2 30.9999C23.2666 30.7999 23.2999 30.6333 23.2999 30.4999C23.3999 30.0999 23.4 29.8999 23.2 29.6999C23.1333 29.6332 22.9999 29.5999 22.7999 29.5999C22.3999 29.4999 22.2999 29.7999 22.2999 30.3999L22.2 31.0999L19.2999 30.8Z" fill="#050505"/>
<path d="M12.2 28.9V28.1999C12.2 27.9332 12.2333 27.6999 12.2999 27.4999C12.2999 27.3666 12.3667 27.0999 12.5 26.6999C12.7 26.2999 12.9 25.9666 13.1 25.6999C13.3666 25.4332 13.7333 25.1999 14.2 24.9999C14.6666 24.8666 15.1999 24.8 15.7999 24.8C17.1999 24.9 18.2 25.4999 18.6 26.0999C18.8 26.3666 18.9666 26.6999 19.1 27.0999C19.1666 27.4999 19.2333 27.7999 19.2999 27.9999C19.2999 28.1999 19.2666 28.4332 19.2 28.6999V28.8C19.1333 29.5333 18.8333 30.2666 18.2999 30.9999C17.6999 31.7999 17.0666 32.4666 16.3999 32.9999L19 33.1999L18.7999 35.9999L11.8999 35.4999L12.1 32.9999C14 31.5999 15.2 30.5 15.7 29.8C15.9 29.4667 16.0333 29.2332 16.1 29.0999C16.1666 28.8999 16.2 28.6999 16.2 28.4999C16.3 28.1999 16.3 28 16.1 27.8C16.0333 27.6667 15.9 27.5999 15.7 27.5999C15.3 27.5999 15.2 27.7999 15.2 28.4999L15.1 29.0999L12.2 28.9Z" fill="#FEFEFE"/>
<path d="M20.7999 29.5999V28.8C20.7999 28.6 20.8332 28.3999 20.8999 28.1999C20.8999 27.9999 20.9666 27.7 21.1 27.3C21.3 26.9 21.5 26.5666 21.7 26.3C21.9666 26.1 22.3333 25.8999 22.7999 25.6999C23.2666 25.4999 23.7999 25.4333 24.3999 25.4999C25.7999 25.5999 26.8 26.0999 27.2 26.6999C27.4 26.9665 27.5666 27.2999 27.7 27.6999C27.7666 28.0999 27.8332 28.3999 27.8999 28.5999C27.8999 28.8666 27.8666 29.1 27.7999 29.3V29.3999C27.7333 30.1333 27.4332 30.8999 26.8999 31.6999C26.2999 32.4332 25.6667 33.0999 25 33.6999L27.6 33.8999L27.3999 36.5999L20.5 36.0999L20.7 33.6999C22.6 32.2999 23.7999 31.1999 24.2999 30.4999C24.4999 30.0999 24.6333 29.8332 24.7 29.6999C24.7666 29.4999 24.7999 29.3332 24.7999 29.1999C24.8999 28.7999 24.9 28.5999 24.7 28.3999C24.6333 28.3333 24.4999 28.3 24.2999 28.3C23.8999 28.2 23.7999 28.4999 23.7999 29.0999L23.7 29.8L20.7999 29.5999Z" fill="#FEFEFE"/>
</g>
<defs>
<clipPath id="clip0_281_123549">
<rect width="83" height="106" fill="white"/>
</clipPath>
</defs>
</svg>
