<svg width="85" height="85" viewBox="0 0 85 85" fill="none" xmlns="http://www.w3.org/2000/svg">
<g clip-path="url(#clip0_239_67089)">
<path d="M11.7 85.2235L75.0999 82.0236L72 20.7235L8.69995 23.9236L11.7 85.2235Z" fill="#ED4592"/>
<path d="M72.2 21.0236L8.69995 23.9236L0 19.0236L61.3999 16.2235L72.2 21.0236Z" fill="#AB3878"/>
<path d="M11.7 85.2235L2.8999 77.0236L0 19.0236L8.69995 23.9236L11.7 85.2235Z" fill="#7C265A"/>
<mask id="mask0_239_67089" style="mask-type:luminance" maskUnits="userSpaceOnUse" x="0" y="19" width="12" height="67">
<path d="M11.72 85.2036L2.92993 77.0536L0.039917 19.0536L8.66992 23.9336L11.72 85.2036Z" fill="white"/>
</mask>
<g mask="url(#mask0_239_67089)">
<path d="M2.8999 151.024L-27.9 48.4236" stroke="#ED4592" stroke-width="0.4"/>
<path d="M4.59998 147.024L-26.3 44.3236" stroke="#ED4592" stroke-width="0.4"/>
<path d="M6.19995 143.024L-24.6001 40.3236" stroke="#ED4592" stroke-width="0.4"/>
<path d="M7.8999 138.924L-23 36.3236" stroke="#ED4592" stroke-width="0.4"/>
<path d="M9.5 134.924L-21.3 32.2235" stroke="#ED4592" stroke-width="0.4"/>
<path d="M11.2 130.824L-19.6001 28.2235" stroke="#ED4592" stroke-width="0.4"/>
<path d="M12.8999 126.824L-18 24.1235" stroke="#ED4592" stroke-width="0.4"/>
<path d="M14.5 122.824L-16.3 20.1235" stroke="#ED4592" stroke-width="0.4"/>
<path d="M16.2 118.724L-14.7001 16.1235" stroke="#ED4592" stroke-width="0.4"/>
<path d="M17.7999 114.724L-13 12.0236" stroke="#ED4592" stroke-width="0.4"/>
<path d="M19.5 110.624L-11.3 8.02356" stroke="#ED4592" stroke-width="0.4"/>
<path d="M21.2 106.624L-9.70007 3.92358" stroke="#ED4592" stroke-width="0.4"/>
<path d="M22.7999 102.624L-8 -0.076416" stroke="#ED4592" stroke-width="0.4"/>
<path d="M24.5 98.5236L-6.40002 -4.17639" stroke="#ED4592" stroke-width="0.4"/>
<path d="M26.1 94.5236L-4.70007 -8.17639" stroke="#ED4592" stroke-width="0.4"/>
<path d="M27.7999 90.4236L-3 -12.1764" stroke="#ED4592" stroke-width="0.4"/>
<path d="M29.5 86.4236L-1.40002 -16.2765" stroke="#ED4592" stroke-width="0.4"/>
<path d="M31.1 82.4236L0.299927 -20.2765" stroke="#ED4592" stroke-width="0.4"/>
<path d="M32.7999 78.3236L1.8999 -24.3765" stroke="#ED4592" stroke-width="0.4"/>
<path d="M36.1 70.2235L5.29993 -32.3765" stroke="#ED4592" stroke-width="0.4"/>
<path d="M37.7999 66.2235L2.8999 151.024" stroke="#ED4592" stroke-width="0.4"/>
<path d="M36.2999 61.3236L1.3999 146.124" stroke="#ED4592" stroke-width="0.4"/>
<path d="M34.7999 56.4236L0 141.324" stroke="#ED4592" stroke-width="0.4"/>
<path d="M33.3999 51.5236L-1.5 136.424" stroke="#ED4592" stroke-width="0.4"/>
<path d="M31.8999 46.6235L-3 131.524" stroke="#ED4592" stroke-width="0.4"/>
<path d="M30.3999 41.7235L-4.40002 126.624" stroke="#ED4592" stroke-width="0.4"/>
<path d="M28.8999 36.9236L-5.90002 121.724" stroke="#ED4592" stroke-width="0.4"/>
<path d="M27.5 32.0236L-7.40002 116.824" stroke="#ED4592" stroke-width="0.4"/>
<path d="M26 27.1235L-8.80005 111.924" stroke="#ED4592" stroke-width="0.4"/>
<path d="M24.5 22.2235L-10.3 107.024" stroke="#ED4592" stroke-width="0.4"/>
<path d="M23.1 17.3236L-11.8 102.124" stroke="#ED4592" stroke-width="0.4"/>
<path d="M21.6 12.4236L-13.2001 97.3236" stroke="#ED4592" stroke-width="0.4"/>
<path d="M20.1 7.52356L-14.7001 92.4236" stroke="#ED4592" stroke-width="0.4"/>
<path d="M18.7 2.62354L-16.2001 87.5236" stroke="#ED4592" stroke-width="0.4"/>
<path d="M17.2 -2.27649L-17.7001 82.6235" stroke="#ED4592" stroke-width="0.4"/>
<path d="M15.7 -7.07642L-19.1001 77.7235" stroke="#ED4592" stroke-width="0.4"/>
<path d="M14.2999 -11.9764L-20.6001 72.8236" stroke="#ED4592" stroke-width="0.4"/>
<path d="M12.7999 -16.8765L-22.1001 67.9236" stroke="#ED4592" stroke-width="0.4"/>
<path d="M11.2999 -21.7765L-23.5 63.0236" stroke="#ED4592" stroke-width="0.4"/>
<path d="M9.8999 -26.6764L-25 58.2235" stroke="#ED4592" stroke-width="0.4"/>
<path d="M8.3999 -31.5764L-26.5 53.3236" stroke="#ED4592" stroke-width="0.4"/>
<path d="M6.8999 -36.4764L-27.9 48.4236" stroke="#ED4592" stroke-width="0.4"/>
</g>
<path opacity="0.3" d="M72.1999 72.2235C72.0999 73.6235 63.9999 74.0235 54.0999 73.1235C44.1999 72.3235 36.2999 70.4236 36.3999 69.0236C36.5999 67.5236 44.6999 67.1236 54.5999 68.0236C64.3999 68.9236 72.2999 70.7235 72.1999 72.2235Z" fill="#1C1C1A"/>
<path d="M74 39.1235C73.9 40.8235 72.4 42.0235 70.8 41.9235C69.1 41.8235 67.9 40.3235 68 38.7235C68.1 37.0235 69.5999 35.8235 71.1999 35.9235C72.8999 36.0235 74.1 37.5235 74 39.1235Z" fill="#050505"/>
<path d="M47.1999 37.6235C47.0999 39.1235 45.7999 40.3235 44.1999 40.2235C42.6999 40.0235 41.4999 38.7235 41.5999 37.1235C41.6999 35.6235 43.0999 34.4235 44.5999 34.6235C46.1999 34.7235 47.2999 36.0235 47.1999 37.6235Z" fill="#050505"/>
<path d="M80.3999 36.5236C80.2999 38.8236 78.2999 40.5236 76.0999 40.3236C73.7999 40.1236 72.2001 38.2236 72.3001 35.9236C72.5001 33.7236 74.5 32.0235 76.7 32.2235C78.9 32.4235 80.5999 34.3236 80.3999 36.5236Z" fill="#050505"/>
<path d="M43.3999 32.1236C44.0999 34.4236 42.8999 36.8236 40.7999 37.4236C38.6999 38.0236 36.4999 36.6236 35.7999 34.3236C35.0999 32.0236 36.2999 29.6236 38.2999 29.0236C40.3999 28.3236 42.6999 29.7236 43.3999 32.1236Z" fill="#050505"/>
<path d="M81 25.4236C80.2 35.7236 69.7 43.3236 57.5 42.4236C45.4 41.5236 36.0999 32.4235 36.8999 22.1235C37.6999 11.7235 48.1999 4.12354 60.3999 5.12354C72.4999 6.02354 81.8 15.1236 81 25.4236Z" fill="#050505"/>
<path d="M42.8999 35.9236C42.0999 36.8236 42.2 38.1236 43 38.8236C43.9 39.6236 45.1999 39.5235 45.8999 38.7235" stroke="#3F1D13" stroke-width="0.6"/>
<path d="M38.3999 30.2235C36.7999 31.0235 36.2 33.0235 37 34.6235C37.8 36.2235 39.7 36.8236 41.3 36.0236" stroke="#3F1D13" stroke-width="0.6"/>
<path d="M75.5997 33.0236C73.9997 33.7236 73.2997 35.6235 74.0997 37.1235C74.8997 38.7235 76.7998 39.2236 78.3998 38.5236" stroke="#3F1D13" stroke-width="0.6"/>
<path d="M70.0999 40.8236C71.2999 41.2236 72.5 40.5236 72.8 39.3236" stroke="#3F1D13" stroke-width="0.6"/>
<path d="M62 68.1235C62 68.0235 63.9 66.0235 63.7 64.1235C63.4 62.2235 61.7 59.8235 61.6 59.7235C60.4 58.2235 58.8999 58.4235 57.7999 59.2235C56.8999 60.0235 56.4 61.0235 57.7 62.6235C59 64.5235 59.4999 64.0236 57.8999 66.3236C56.5999 68.0236 60.4 70.9235 62 68.1235Z" fill="#803531" stroke="#050505" stroke-width="0.4" stroke-linecap="round" stroke-linejoin="round"/>
<path opacity="0.4" d="M58.8999 66.9236C58.8999 66.9236 60.9999 66.7236 60.3999 64.3236C60.1999 63.1236 63.6 63.8235 63.2 62.6235C62.7 61.3235 61.9 60.1235 61.6 59.7235C60.4 58.2235 58.8999 58.4235 57.7999 59.2235C56.8999 60.0235 56.4 61.0235 57.7 62.6235C59 64.5235 59.4999 64.0236 57.8999 66.3236C57.4999 66.9236 57.7999 68.7236 58.8999 66.9236Z" fill="#050505"/>
<path d="M56.4 67.6235C56.3 67.7235 56.3 67.8236 56.4 67.8236L63.6 71.5236C63.7 71.5236 63.8 71.5236 63.8 71.4236L64 71.1235C64.1 71.0235 64 70.9236 64 70.9236L56.7 67.2235C56.7 67.2235 56.6 67.2236 56.5 67.3236L56.4 67.6235Z" fill="#EE4763" stroke="#050505" stroke-width="0.4" stroke-linecap="round" stroke-linejoin="round"/>
<path d="M61.6 65.9236C61.6 65.9236 62.1 65.1236 62.7 65.4236C63 65.6236 63.7 66.0236 64 66.1236C64.4 66.3236 63.8 66.7236 63.5 66.9236C63.3 67.1236 63 67.6236 63 68.0236L63.2 69.4236H62.1L61.1 67.1236L61.6 65.9236Z" fill="#EE4763" stroke="#050505" stroke-width="0.4" stroke-linecap="round" stroke-linejoin="round"/>
<path d="M56.7 67.2235C56.7 67.2235 57.4 65.9235 57.6 65.5235C57.8 65.2235 58.1 65.1235 58.5 65.3235C58.9 65.5235 59.1 66.0235 60.1 66.0235C61 66.1235 61.2 65.9235 61.6 65.9235C62 66.0235 61.9999 66.2235 61.8999 66.6235L61.7 67.4235L62.5 69.4235L62.1 69.9235L56.7 67.2235Z" fill="#F69226" stroke="#050505" stroke-width="0.4" stroke-linecap="round" stroke-linejoin="round"/>
<path d="M64 70.9236C64.1 70.6236 63.5 69.6236 63.2 69.4236C62.4 69.0236 61.3999 69.6236 61.3999 69.6236L64 70.9236Z" fill="#FEFEFE" stroke="#050505" stroke-width="0.4" stroke-linecap="round" stroke-linejoin="round"/>
<path d="M61.2999 67.4236C61.7999 67.1236 62.9 67.5237 63.2 67.8237" stroke="#050505" stroke-width="0.4" stroke-linecap="round" stroke-linejoin="round"/>
<path d="M61.5 68.1235C62.1 67.8235 62.9999 68.2235 63.2999 68.4235" stroke="#050505" stroke-width="0.4" stroke-linecap="round" stroke-linejoin="round"/>
<path d="M61.7999 68.7235C62.3999 68.5235 63.0999 68.8236 63.3999 69.0236" stroke="#050505" stroke-width="0.4" stroke-linecap="round" stroke-linejoin="round"/>
<path d="M59.6 66.8236C60.2 67.1236 60.5 67.3236 60.7 67.8236L61.3999 69.6235L60.5 69.1235L60.1 68.0236C60.0333 67.8236 59.7999 67.6236 59.3999 67.4236C59.0999 67.3236 57.2 66.3236 57.2 66.3236L57.5 65.7235C57.5 65.7235 59.4 66.7236 59.6 66.8236Z" fill="#EE4763" stroke="#050505" stroke-width="0.4" stroke-linecap="round" stroke-linejoin="round"/>
<path d="M46.6999 67.8236C46.6999 67.8236 47.5999 62.3235 47.7999 60.7235C47.8999 58.8235 49.1999 58.1235 50.5999 58.2235C51.7999 58.3235 52.7999 59.1235 52.5999 61.2235C52.3999 63.2235 51.5999 68.2235 51.5999 68.2235C51.3999 71.3235 46.0999 70.9236 46.6999 67.8236Z" fill="#803531" stroke="#050505" stroke-width="0.4" stroke-linecap="round" stroke-linejoin="round"/>
<path opacity="0.4" d="M50.2999 68.0236C49.9999 69.5236 47.2999 70.2236 48.7999 70.3236C50.0999 70.3236 51.4999 69.7235 51.5999 68.2235C51.5999 68.2235 52.3999 63.2235 52.5999 61.2235C52.7999 59.1235 51.7999 58.3235 50.5999 58.2235C49.1999 58.1235 47.8999 58.8235 47.7999 60.7235C47.5999 62.3235 50.8999 61.9236 50.7999 63.3236C50.7999 63.9236 50.5999 66.8236 50.2999 68.0236Z" fill="#050505"/>
<path d="M46.7 67.8236C46.4 68.4236 45.9 69.5235 44.1 70.1235L51.5 70.6235L51.6 68.2235" fill="#803531"/>
<path d="M46.7 67.8236C46.4 68.4236 45.9 69.5235 44.1 70.1235L51.5 70.6235L51.6 68.2235" stroke="#050505" stroke-width="0.4" stroke-linecap="round" stroke-linejoin="round"/>
<path opacity="0.4" d="M50.2999 68.1235C50.0999 69.1235 50.0999 69.8236 48.3999 70.4236L51.5 70.6235L51.6 68.2235" fill="#050505"/>
<path d="M52.1 70.6235C52.1 70.7235 51.9999 70.7235 51.8999 70.7235L43.7999 70.1235C43.7999 70.1235 43.7 70.1236 43.7 70.0236V69.6235C43.7 69.5235 43.7999 69.4236 43.8999 69.4236L52 70.0236C52.1 70.0236 52.1 70.1235 52.1 70.2235V70.6235Z" fill="#EE4963" stroke="#050505" stroke-width="0.4" stroke-linecap="round" stroke-linejoin="round"/>
<path d="M48.5 66.4236C48.5 66.4236 48.4999 65.5236 47.8999 65.4236C47.4999 65.4236 46.5999 65.4236 46.3999 65.3236C45.8999 65.3236 46.1999 65.9236 46.2999 66.3236C46.3999 66.6236 46.4 67.2236 46.2 67.5236L45.2999 68.6235L46.2 69.1235L48.2999 67.7235L48.5 66.4236Z" fill="#EE4963" stroke="#050505" stroke-width="0.4" stroke-linecap="round" stroke-linejoin="round"/>
<path d="M52 70.0235C52 70.0235 52.1 68.6235 52.1 68.2234C52.1 67.8234 51.9 67.5235 51.5 67.5235C51 67.4235 50.6 67.8235 49.7 67.3235C48.9 66.9235 48.8 66.6235 48.5 66.4235C48.1 66.2235 47.9999 66.5235 47.8999 66.9235L47.6 67.7234L46 68.9235L45.8999 69.6235L52 70.0235Z" fill="#F69226" stroke="#050505" stroke-width="0.4" stroke-linecap="round" stroke-linejoin="round"/>
<path d="M49.7 68.2235C49.1 68.1235 48.6999 68.2236 48.2999 68.5236L46.7999 69.6236L47.7999 69.7235L48.7 69.0236C48.9 68.8902 49.2333 68.8236 49.7 68.8236C49.9 68.9236 52.1 69.0236 52.1 69.0236V68.4236C52.1 68.4236 49.9 68.2235 49.7 68.2235Z" fill="#EE4963" stroke="#050505" stroke-width="0.4" stroke-linecap="round" stroke-linejoin="round"/>
<path d="M43.8999 69.4236C43.8999 69.1236 44.8999 68.6235 45.2999 68.6235C46.1999 68.7235 46.7999 69.6235 46.7999 69.6235L43.8999 69.4236Z" fill="#FEFEFE" stroke="#050505" stroke-width="0.4" stroke-linecap="round" stroke-linejoin="round"/>
<path d="M48 67.9236C47.7 67.3236 46.6 67.1235 46.1 67.2235" stroke="#050505" stroke-width="0.4" stroke-linecap="round" stroke-linejoin="round"/>
<path d="M47.3999 68.3236C47.0999 67.8236 46.1 67.6235 45.7 67.7235" stroke="#050505" stroke-width="0.4" stroke-linecap="round" stroke-linejoin="round"/>
<path d="M46.7999 68.7236C46.4999 68.2236 45.6999 68.1236 45.3999 68.2236" stroke="#050505" stroke-width="0.4" stroke-linecap="round" stroke-linejoin="round"/>
<path d="M73.3001 50.5235C70.2001 51.9235 67.6 52.5235 65.7 51.5235C64 50.5235 62.9 48.9236 62.2 46.3236C61.2 42.5236 66.4999 41.2235 67.3999 45.0235C68.0999 46.7235 68.7001 46.8235 70.8001 45.7235C71.5001 45.3235 73.1999 45.4235 74.0999 47.1235C74.8999 48.7235 74.0001 50.2235 73.3001 50.5235Z" fill="#803531" stroke="#050505" stroke-width="0.4" stroke-linecap="round" stroke-linejoin="round"/>
<path opacity="0.4" d="M73.3001 50.5235C70.2001 51.9235 67.6 52.5235 65.7 51.5235C64 50.5235 62.9 48.9236 62.2 46.3236C61.2 42.5236 66.4999 41.2235 67.3999 45.0235C66.7999 43.0235 62.9 43.4235 63.7 46.1235C63.9 46.9235 65.0999 49.7235 66.3999 50.2235C67.4999 50.7235 69.6001 50.7235 71.3001 50.0235C72.1001 49.8235 73.5001 50.4235 73.3001 50.5235Z" fill="#050505"/>
<path d="M76.3999 47.7235C75.9999 49.4235 74.3999 50.6236 72.8999 50.3236C71.2999 50.0236 70.1999 48.4236 70.5999 46.6236C70.8999 44.9236 72.4999 43.7236 74.0999 44.0236C75.6999 44.3236 76.6999 45.9235 76.3999 47.7235Z" fill="#803531" stroke="#050505" stroke-width="0.4" stroke-linecap="round" stroke-linejoin="round"/>
<path d="M72.7999 45.0236C73.0999 45.4236 72.9997 46.0236 72.5997 46.3236C72.1997 46.6236 71.6998 46.5235 71.3998 46.1235L70.6998 45.3236C70.3998 44.9236 70.4998 44.4235 70.8998 44.1235C71.2998 43.8235 71.8998 43.9235 72.1998 44.2235L72.7999 45.0236Z" fill="#803531" stroke="#050505" stroke-width="0.4" stroke-linecap="round" stroke-linejoin="round"/>
<g style="mix-blend-mode:multiply" opacity="0.2">
<path d="M75.3999 48.7235C75.3999 48.7235 74.5 49.7236 73.2 49.3236C71.9 48.8236 72.0999 47.1235 72.0999 47.1235C72.0999 47.1235 72.8999 47.1236 72.8999 46.3236C72.8999 46.3236 72.0001 47.0236 71.3001 46.0236L70.5999 46.4236C70.5999 46.4236 69.9999 49.4235 72.3999 50.2235C74.7999 51.0235 75.4999 49.1235 75.3999 48.7235Z" fill="#050505"/>
</g>
<path d="M40.2722 43.6241C42.6481 46.0644 44.6965 47.5288 46.883 47.3587C48.8609 47.269 50.3636 46.0682 52.1104 44.007C54.4449 40.8573 50.1201 37.5852 47.7857 40.7349C46.4306 42.0705 45.8592 41.9549 44.4305 40.1085C43.9072 39.4952 42.2536 38.9332 40.8247 40.2014C39.5307 41.3218 39.7489 43.0108 40.2722 43.6241Z" fill="#803531" stroke="#050505" stroke-width="0.4" stroke-linecap="round" stroke-linejoin="round"/>
<path opacity="0.4" d="M40.2723 43.624C42.6481 46.0644 44.6965 47.5287 46.8831 47.3587C48.8609 47.2689 50.3637 46.0682 52.1105 44.0069C54.4449 40.8573 50.1202 37.5852 47.7857 40.7348C48.9352 41.1074 51.4556 42.0548 49.5739 44.2637C49.1083 44.9219 48.1643 45.9556 46.7515 46.0198C45.5475 46.0036 43.5986 45.1719 42.2694 43.9582C41.6787 43.4187 40.0508 43.4217 40.2723 43.624Z" fill="#050505"/>
<path d="M38.4712 39.8126C38.1244 41.5272 39.1228 43.2515 40.6961 43.6048C42.3368 43.8843 43.9134 42.751 44.2603 41.0364C44.6072 39.3219 43.6087 37.5975 42.0354 37.2442C40.4622 36.8909 38.8855 38.0242 38.4712 39.8126Z" fill="#803531" stroke="#050505" stroke-width="0.4" stroke-linecap="round" stroke-linejoin="round"/>
<path d="M42.8123 38.7663C42.3949 38.9268 42.2793 39.4984 42.5137 39.9832C42.7416 40.3268 43.3131 40.4424 43.7305 40.2819L44.6263 39.7457C44.9699 39.5178 45.1595 39.0136 44.9251 38.5288C44.6972 38.1852 44.193 37.9958 43.7082 38.2302L42.8123 38.7663Z" fill="#803531" stroke="#050505" stroke-width="0.4" stroke-linecap="round" stroke-linejoin="round"/>
<g style="mix-blend-mode:multiply" opacity="0.2">
<path d="M38.9529 41.0649C38.9529 41.0649 39.4408 42.4585 40.86 42.5357C42.2053 42.5454 42.7673 40.8918 42.7673 40.8918C42.7673 40.8918 41.9742 40.5739 42.2247 39.8547C42.2247 39.8547 42.8348 40.818 43.7981 40.208L44.3213 40.8213C44.3213 40.8213 43.7496 43.8202 41.2613 43.5792C38.7055 43.4121 38.757 41.4278 38.9529 41.0649Z" fill="#050505"/>
</g>
<path d="M54.7 60.1236C46.3 58.8236 46.1999 57.1236 46.2999 53.6236C46.3999 50.8236 48.6 43.7236 49.5 41.5236C51 38.0236 54.1 37.1236 58.2 37.7236C62.3 38.4236 64.9999 40.2236 65.3999 44.0236C65.5999 46.4236 65.5 53.8236 64.7 56.4236C64.4 57.5236 62.7 61.4236 54.7 60.1236Z" fill="#F69226" stroke="#050505" stroke-width="0.4" stroke-linecap="round" stroke-linejoin="round"/>
<path d="M51.1 48.1235C50.6 45.3235 50.2 41.9235 51.5 38.2235L53.5 38.9236C52.3 42.2236 52.8 45.3236 53.2 47.8236L51.1 48.1235Z" fill="#EE4963" stroke="#050505" stroke-width="0.4" stroke-linecap="round" stroke-linejoin="round"/>
<path d="M54.7 60.3236L53.3999 62.7235C46.7999 61.5235 44.6 60.1235 44.6 60.1235C44.6 60.1235 45.3 56.2236 46 53.5236C46.4 53.7236 48.2999 54.3236 48.2999 54.3236L51.6 47.7235C51.6 47.7235 54.3999 48.9235 56.3999 49.2235C58.4999 49.5235 61.5 49.3236 61.5 49.3236L62.6 56.6235C62.6 56.6235 64.5 56.6236 65 56.5236C64.9 59.2236 64.8999 61.9236 64.8999 61.9236C64.8999 61.9236 62.5999 63.0236 55.8999 63.4236L54.7 60.3236Z" fill="#EE4763" stroke="#050505" stroke-width="0.4" stroke-linecap="round" stroke-linejoin="round"/>
<path opacity="0.4" d="M54.7 60.3236L53.3999 62.7235C52.9332 62.6568 52.5 62.5902 52.1 62.5236C52.1 62.5236 53.6999 59.5235 54.7999 59.6235C55.7999 59.8235 57.2 63.3236 57.2 63.3236C56.8 63.3236 56.3666 63.3569 55.8999 63.4236L54.7 60.3236Z" fill="#050505"/>
<path opacity="0.4" d="M65 56.5236C64.9 59.2236 64.8999 61.9236 64.8999 61.9236C64.8999 61.9236 64.3 62.2236 62.7 62.5236C63.4 61.6236 63.8999 60.6236 63.8999 56.5236H65Z" fill="#050505"/>
<path d="M64.5 61.1235C64.5 61.1235 62.0999 61.9235 55.8999 62.6235" stroke="#6ECFF5" stroke-width="0.4" stroke-linecap="round" stroke-linejoin="round" stroke-dasharray="0.8 0.8"/>
<path opacity="0.4" d="M46 53.5236C45.3 56.2236 44.6 60.1235 44.6 60.1235C44.6 60.1235 45.1999 60.5236 46.7999 61.0236C46.1999 60.1236 45.8 57.7236 47.1 53.9236L46 53.5236Z" fill="#050505"/>
<path d="M45.2 59.4236C45.2 59.4236 47.5 60.5236 53.6 61.9236" stroke="#6ECFF5" stroke-width="0.4" stroke-linecap="round" stroke-linejoin="round" stroke-dasharray="0.8 0.8"/>
<path d="M52.7 39.8236C52.3 42.6236 54.2 45.2235 57 45.6235C59.8 46.1235 62.4 44.2235 62.8 41.4235C63.3 38.6235 61.4 36.0235 58.6 35.6235C55.8 35.1235 53.2 37.0236 52.7 39.8236Z" fill="#803531" stroke="#050505" stroke-width="0.4" stroke-linecap="round" stroke-linejoin="round"/>
<path d="M61.8999 49.8236C63.0999 47.3236 64.6 44.1235 64.5 40.2235L62.3999 40.3236C62.4999 43.8236 61.0999 46.6236 59.8999 48.9236L61.8999 49.8236Z" fill="#EE4963" stroke="#050505" stroke-width="0.4" stroke-linecap="round" stroke-linejoin="round"/>
<path d="M62.2 49.6235C62.1 50.3235 61.4 50.8235 60.7 50.7235C59.9 50.6235 59.4 49.9235 59.6 49.2235C59.7 48.4235 60.4 47.9235 61.1 48.0235C61.8 48.1235 62.4 48.8235 62.2 49.6235Z" fill="#6ECFF5" stroke="#050505" stroke-width="0.4" stroke-linecap="round" stroke-linejoin="round"/>
<path d="M50.8 47.8236C50.7 48.5236 51.1999 49.2236 51.8999 49.3236C52.5999 49.4236 53.3 48.9235 53.5 48.2235C53.6 47.5235 53.1 46.8235 52.3 46.6235C51.6 46.5235 50.9 47.0236 50.8 47.8236Z" fill="#6ECFF5" stroke="#050505" stroke-width="0.4" stroke-linecap="round" stroke-linejoin="round"/>
<path opacity="0.4" d="M51 48.8236C51.5 49.4236 52.2999 49.5235 52.8999 49.1235C52.8999 49.1235 51.9 49.0236 51.5 48.4236C51.1 47.8236 51.3 46.9236 51.3 46.9236C50.7 47.3236 50.6 48.2236 51 48.8236Z" fill="#050505"/>
<path opacity="0.4" d="M61.7 50.5236C61.1 50.9236 60.1999 50.8235 59.7999 50.2235C59.7999 50.2235 60.6999 50.4236 61.3999 50.0236C61.9999 49.5236 62 48.6235 62 48.6235C62.4 49.2235 62.3 50.0236 61.7 50.5236Z" fill="#050505"/>
<path d="M61 56.7235L61.3999 56.6235L61.2999 56.3236" stroke="#6ECFF5" stroke-width="0.4" stroke-linecap="round" stroke-linejoin="round"/>
<path d="M61.2 55.4236L60.7 52.3236" stroke="#6ECFF5" stroke-width="0.4" stroke-linecap="round" stroke-linejoin="round" stroke-dasharray="0.8 0.8"/>
<path d="M60.7 51.8236L60.6 51.4236H60.2" stroke="#6ECFF5" stroke-width="0.4" stroke-linecap="round" stroke-linejoin="round"/>
<path d="M59.5 51.3236L56.2 50.7235L52.5 50.2235" stroke="#6ECFF5" stroke-width="0.4" stroke-linecap="round" stroke-linejoin="round" stroke-dasharray="0.8 0.8"/>
<path d="M52.1 50.1235L51.7 50.0236L51.6 50.4236" stroke="#6ECFF5" stroke-width="0.4" stroke-linecap="round" stroke-linejoin="round"/>
<path d="M51.2 51.2235L49.7999 54.0236" stroke="#6ECFF5" stroke-width="0.4" stroke-linecap="round" stroke-linejoin="round" stroke-dasharray="0.8 0.8"/>
<path d="M49.6 54.4236L49.3999 54.7235L49.7 54.9236" stroke="#6ECFF5" stroke-width="0.4" stroke-linecap="round" stroke-linejoin="round"/>
<path d="M50.5 55.3236L55.1 57.7235L60.6 56.8236" stroke="#6ECFF5" stroke-width="0.4" stroke-linecap="round" stroke-linejoin="round" stroke-dasharray="0.8 0.8"/>
<path opacity="0.4" d="M57.1 44.9236C54.7 44.5236 53.5 43.8237 52.1 42.8237C51 42.0237 50.1 42.5236 49.6 44.1236C48.9 46.0236 46.7 53.0237 47.7 53.3237C48.2 53.5237 50.3 48.9237 51 48.8237L48.2999 54.3237L46.2999 53.6236C46.3999 50.8236 48.6 43.7236 49.5 41.5236C51 38.0236 54.1 37.1236 58.2 37.7236C62.3 38.4236 64.9999 40.2236 65.3999 44.0236C65.5999 46.4236 65.5 53.8236 64.7 56.4236L62.6 56.6236L61.7 50.5236C62.3 50.8236 62.9 55.8237 63.5 55.8237C64.5 55.7237 64.5 48.5236 64.5 46.5236C64.5 44.8236 63.8 44.0236 62.5 44.5236C60.9 45.0236 59.5 45.2236 57.1 44.9236Z" fill="#050505"/>
<path d="M43.1 26.5236C42.4 35.3236 46.4999 42.3236 57.3999 43.6236C68.2999 44.9235 73.6 37.6236 74.2 28.9236C74.9 20.1236 68.4999 12.4236 59.8999 11.8236C51.1999 11.1236 43.7 17.7236 43.1 26.5236Z" fill="#803531" stroke="#050505" stroke-width="0.4" stroke-linecap="round" stroke-linejoin="round"/>
<path opacity="0.4" d="M45.8999 26.6235L46.2 27.7235C46.2 27.7235 43.0999 41.4235 58.2999 43.7235C58.4999 43.8235 58.2 43.4235 57.5 43.7235C57.5 43.6568 57.4666 43.6235 57.3999 43.6235C46.4999 42.3235 42.4 35.3236 43.1 26.5236C43.2 24.1236 43.9 21.9236 45 20.0236C45.5 21.6236 45.8999 26.6235 45.8999 26.6235Z" fill="#050505"/>
<path d="M61.1 33.1236C61.1 33.1236 62.3999 28.8237 67.8999 30.8237C67.8999 30.8237 67.6 34.2237 64.6 34.3237C61.6 34.5237 61.1 33.1236 61.1 33.1236Z" fill="#FEFEFE"/>
<path d="M54.8999 33.0235C54.8999 33.0235 54.6 28.5236 48.7 29.3236C48.7 29.3236 48.2 32.7235 51.2 33.5235C54.1 34.2235 54.8999 33.0235 54.8999 33.0235Z" fill="#FEFEFE"/>
<path d="M55.7999 34.6235C55.7999 34.6235 56.3999 35.9236 57.7999 36.0236C59.1999 36.1236 60.2 34.7235 60.2 34.7235C60.2 34.7235 58.5999 35.3236 57.8999 35.3236C57.2999 35.2236 55.7999 34.6235 55.7999 34.6235Z" fill="#050505"/>
<path d="M73.3001 8.22355C73.1001 10.4236 71 12.1236 68.6 11.9236C66.2 11.8236 64.4 9.8236 64.6 7.5236C64.8 5.2236 66.9 3.62355 69.3 3.72355C71.7 3.92355 73.5001 5.92355 73.3001 8.22355Z" fill="#050505"/>
<path d="M53.3999 6.82362C53.2999 8.62362 51.7 10.0236 49.8 9.82362C48 9.72362 46.7 8.02352 46.8 6.22352C47 4.42352 48.5999 3.02352 50.3999 3.22352C52.1999 3.32352 53.5999 5.02362 53.3999 6.82362Z" fill="#050505"/>
<path d="M79.5998 12.9236C79.3998 15.7236 76.9999 17.8235 74.1999 17.6235C71.3999 17.3235 69.3 14.9235 69.5 12.1235C69.7 9.42354 72.2 7.32356 75 7.52356C77.7 7.72356 79.7998 10.1236 79.5998 12.9236Z" fill="#050505"/>
<path d="M44 15.5236C43.8 18.3236 41.3 20.4235 38.5 20.2235C35.7 20.0235 33.5999 17.5235 33.7999 14.7235C33.9999 11.9235 36.4999 9.82355 39.2999 10.0236C42.0999 10.2236 44.2 12.7236 44 15.5236Z" fill="#050505"/>
<path d="M66.2999 6.9236C66.0999 10.3236 62.4999 12.9236 58.3999 12.6236C54.2999 12.3236 51.1999 9.22353 51.3999 5.72353C51.6999 2.32353 55.1999 -0.276425 59.3999 0.0235753C63.4999 0.323575 66.5999 3.4236 66.2999 6.9236Z" fill="#050505"/>
<path d="M49.6 9.82359C49.4 12.5236 47 14.6236 44.2 14.4236C41.5 14.2236 39.4 11.8235 39.6 9.02354C39.8 6.22354 42.2 4.22356 45 4.42356C47.8 4.62356 49.8 7.02359 49.6 9.82359Z" fill="#050505"/>
<path d="M43 24.3236C42.8 27.4236 40.2999 29.7236 37.3999 29.5236C34.5999 29.2236 32.3999 26.6236 32.6999 23.5236C32.8999 20.5236 35.3999 18.2236 38.1999 18.4236C41.0999 18.6236 43.2 21.3236 43 24.3236Z" fill="#050505"/>
<path d="M85.0999 28.5236C84.8999 31.7236 82.4001 34.1237 79.5001 33.8237C76.7001 33.6237 74.5001 30.9236 74.8001 27.7236C75.0001 24.6236 77.5 22.2236 80.4 22.4236C83.2 22.6236 85.2999 25.4236 85.0999 28.5236Z" fill="#050505"/>
<path d="M83.7 18.8236C83.5 21.4236 81.1999 23.4235 78.5999 23.2235C75.9999 23.0235 74.1001 20.7235 74.3001 18.1235C74.5001 15.5235 76.7001 13.5235 79.3001 13.7235C81.9001 13.9235 83.9 16.2236 83.7 18.8236Z" fill="#050505"/>
<path d="M62.1 19.4235C62 21.5235 60.2 23.0235 58.1 22.9235C56 22.7235 54.4 20.9236 54.6 18.8236C54.7 16.7236 56.6 15.2236 58.6 15.3236C60.7 15.5236 62.3 17.3235 62.1 19.4235Z" fill="#050505"/>
<path d="M69.3 20.3237C69.1 22.4237 67.2 24.0236 65.1 23.9236C63 23.7236 61.4 21.9236 61.5 19.7236C61.7 17.6236 63.6 16.0236 65.7 16.2236C67.8 16.3236 69.4 18.2237 69.3 20.3237Z" fill="#050505"/>
<path d="M74.9 23.6236C74.7 25.8236 72.8 27.4235 70.7 27.2235C68.6 27.1235 67 25.2236 67.1 23.1236C67.3 20.9236 69.2001 19.3236 71.3001 19.5236C73.4001 19.6236 75 21.5236 74.9 23.6236Z" fill="#050505"/>
<path d="M77 28.9235C76.9 30.5235 75.5 31.8235 73.8 31.7235C72.1 31.5235 70.9 30.1235 71 28.4235C71.1 26.7235 72.6 25.5235 74.3 25.6235C75.9 25.8235 77.2 27.2235 77 28.9235Z" fill="#050505"/>
<path d="M46.5 26.2235C46.4 27.9235 44.9999 29.1236 43.2999 29.0236C41.5999 28.8236 40.4 27.4235 40.5 25.7235C40.6 24.1235 42.0999 22.8236 43.6999 22.9236C45.3999 23.1236 46.7 24.5235 46.5 26.2235Z" fill="#050505"/>
<path d="M50.1 22.9236C50 24.2236 48.8 25.2236 47.5 25.1236C46.1 25.0236 45.1 23.8236 45.2 22.5236C45.3 21.1236 46.5 20.1236 47.8 20.2236C49.2 20.3236 50.2 21.5236 50.1 22.9236Z" fill="#050505"/>
<path d="M55.6 19.7235C55.5 21.6235 53.7999 23.1236 51.8999 22.9236C49.8999 22.8236 48.5 21.1235 48.6 19.2235C48.8 17.3235 50.4999 15.8235 52.3999 16.0235C54.2999 16.1235 55.8 17.8235 55.6 19.7235Z" fill="#050505"/>
<path d="M43.2 27.9236L50.2 20.5236L57.1 19.6235L64.2999 20.7235L68.8999 24.3236L72.2 26.6235L73.8999 29.7235L77.8999 26.9236L79.5 19.0236L70.3999 9.22351L60.3999 7.32361H49.3999L40.7 14.6235L37.3999 23.4236L43.2 27.9236Z" fill="#050505"/>
<path d="M46 23.2235C44.9 23.0235 44.1999 22.0236 44.3999 20.9236C44.5999 19.8236 45.5999 19.1236 46.6999 19.3236C47.7999 19.5236 48.4999 20.5235 48.2999 21.6235" stroke="#3F1D13" stroke-width="0.6"/>
<path d="M74.0999 30.5236C75.1999 30.6236 76.1 29.8235 76.3 28.7235C76.4 27.6235 75.6 26.6236 74.5 26.5236C73.4 26.4236 72.4 27.2236 72.3 28.3236" stroke="#3F1D13" stroke-width="0.6"/>
<path d="M53.7999 4.42357C54.3999 3.02357 55.6999 1.92355 57.3999 1.52355C59.7999 1.02355 62.1 1.92352 63.2 3.62352C63.4666 4.02352 63.6666 4.4569 63.7999 4.92357" stroke="#3F1D13" stroke-width="0.6"/>
<path d="M61.7999 8.72352C61.5999 7.42352 60.5999 6.52354 59.2999 6.62354C58.6999 6.72354 58.1999 7.02359 57.7999 7.42359" stroke="#3F1D13" stroke-width="0.4"/>
<path d="M44.2999 5.82361C42.3999 6.02361 40.9999 7.72354 41.1999 9.62354C41.3999 11.5235 42.9999 12.9235 44.8999 12.7235" stroke="#3F1D13" stroke-width="0.6"/>
<path d="M50.3999 11.4236C52.2999 11.6236 53.9 10.2236 54.1 8.4236C54.3 6.5236 52.9 4.92352 51.1 4.72352C49.2 4.52352 47.5999 5.82352 47.3999 7.72352" stroke="#3F1D13" stroke-width="0.6"/>
<path d="M72.9 17.7235C72.2 15.6235 69.9 14.4235 67.7 15.1235C65.5 15.8235 64.2 18.1236 64.9 20.3236" stroke="#3F1D13" stroke-width="0.4"/>
<path d="M80 20.9236C81.5 20.5236 82.3 19.0236 82 17.5236C81.6 16.0236 80.0999 15.1236 78.5999 15.5236" stroke="#3F1D13" stroke-width="0.6"/>
<path d="M62.7999 12.3236C60.0999 11.0236 56.8 12.0235 55.5 14.7235" stroke="#3F1D13" stroke-width="0.4"/>
<path d="M82.2 31.4236C83.9 29.6236 83.8999 26.8235 82.0999 25.2235" stroke="#3F1D13" stroke-width="0.6"/>
<path d="M42.7 27.9236C44.3 27.8236 45.5 26.5236 45.5 24.9236" stroke="#3F1D13" stroke-width="0.4"/>
<path d="M68.8999 24.5236C69.0999 25.4236 69.9999 26.0235 70.8999 25.7235C71.7999 25.5235 72.4 24.6235 72.2 23.7235" stroke="#3F1D13" stroke-width="0.6"/>
<path d="M50.2999 21.2235C51.9999 21.8235 53.9 20.9235 54.5 19.2235C55.1 17.5235 54.2 15.6236 52.5 15.0236C50.8 14.4236 48.8999 15.3236 48.2999 17.0236" stroke="#3F1D13" stroke-width="0.6"/>
<path d="M78.3001 19.5236C76.8001 18.6236 74.7999 19.2235 73.8999 20.7235C72.9999 22.3235 73.5999 24.3235 75.0999 25.2235C76.6999 26.1235 78.6999 25.5236 79.5999 23.9236" stroke="#3F1D13" stroke-width="0.4"/>
<path d="M38.7999 20.5236C37.4999 21.2236 37.0999 22.9235 37.8999 24.2235C38.6999 25.5235 40.3999 25.9235 41.6999 25.1235C42.8999 24.3235 43.3 22.6236 42.5 21.3236" stroke="#3F1D13" stroke-width="0.4"/>
<path d="M74.5001 17.1235C76.8001 16.9235 78.5002 14.8235 78.3002 12.5235C78.1002 10.1235 76.0001 8.42351 73.7001 8.62351C71.4001 8.82351 69.7 10.9235 69.9 13.2235" stroke="#3F1D13" stroke-width="0.6"/>
<path d="M63.2999 18.5236C62.3999 19.7236 62.6999 21.3235 63.7999 22.2235C64.9999 23.1235 66.6999 22.9235 67.5999 21.7235" stroke="#3F1D13" stroke-width="0.6"/>
<path d="M36.5 20.9236C34.6 21.4236 33.4999 23.4236 34.0999 25.3236C34.5999 27.2236 36.6 28.3236 38.5 27.8236" stroke="#3F1D13" stroke-width="0.6"/>
<path d="M35.3 14.8236C35.2 16.7236 36.6 18.3235 38.5 18.5235C40.3 18.6235 42 17.2236 42.1 15.3236C42.3 13.4236 40.9 11.7235 39 11.6235C37.1 11.4235 35.4 12.9236 35.3 14.8236Z" stroke="#3F1D13" stroke-width="0.6"/>
<path d="M45.6 14.0236C46.7 14.6236 48 14.3235 48.6 13.2235C49.2 12.2235 48.8999 10.8235 47.7999 10.2235C46.7999 9.62355 45.4999 10.0236 44.8999 11.0236" stroke="#3F1D13" stroke-width="0.4"/>
<path d="M56.2 19.0236C56.1 20.2236 57 21.3236 58.2 21.4236" stroke="#3F1D13" stroke-width="0.4"/>
<path d="M60.6 19.4236C60.7 18.1236 59.8 17.1236 58.6 17.0236" stroke="#3F1D13" stroke-width="0.4"/>
<path d="M65.3 8.32359C65.2 10.2236 66.6 11.8235 68.5 12.0235C70.4 12.1235 71.9999 10.7236 72.0999 8.82359C72.2999 6.92359 70.9 5.32349 69 5.22349C67.1 5.02349 65.5 6.42359 65.3 8.32359Z" stroke="#3F1D13" stroke-width="0.6"/>
<path d="M65.8999 32.3236C65.8999 33.3236 65.1 34.2235 64.2 34.2235C63.2 34.2235 62.3999 33.3236 62.3999 32.3236C62.3999 31.3236 63.2 30.4236 64.1 30.4236C65.1 30.4236 65.8999 31.3236 65.8999 32.3236Z" fill="#855226"/>
<path d="M64.7 32.3236C64.7 32.7236 64.4 32.9236 64.1 32.9236C63.8 32.9236 63.6 32.6235 63.6 32.2235C63.7 31.9235 63.9 31.7235 64.2 31.7235C64.5 31.7235 64.7 32.0236 64.7 32.3236Z" fill="#050505"/>
<path d="M63.7999 31.6235C63.6999 31.8235 63.5999 31.9236 63.3999 31.9236C63.1999 31.9236 63.1 31.7236 63.1 31.5236C63.1 31.4236 63.3 31.2235 63.5 31.2235C63.6 31.2235 63.7999 31.4235 63.7999 31.6235Z" fill="#FEFEFE"/>
<path d="M50.2999 31.2235C50.0999 32.2235 50.6999 33.2236 51.6999 33.4236C52.5999 33.6236 53.5999 32.9236 53.7999 31.9236C53.9999 30.9236 53.4 30.0235 52.5 29.7235C51.5 29.5235 50.5999 30.2235 50.2999 31.2235Z" fill="#855226"/>
<path d="M51.5 31.5235C51.5 31.8235 51.7 32.1235 52 32.1235C52.3 32.2235 52.5 31.9235 52.6 31.6235C52.6 31.3235 52.4 31.0235 52.1 31.0235C51.8 30.9235 51.5 31.2235 51.5 31.5235Z" fill="#050505"/>
<path d="M52.6 31.0235C52.6 31.2235 52.6999 31.3236 52.8999 31.3236C52.9999 31.4236 53.2 31.2235 53.2 31.0235C53.3 30.9235 53.1 30.7235 53 30.7235C52.8 30.6235 52.6 30.8235 52.6 31.0235Z" fill="#FEFEFE"/>
<path d="M47.5 27.5236L48.7999 29.1235C48.7999 29.1235 54.2999 28.8236 54.8999 33.0236" stroke="#050505" stroke-width="0.5" stroke-linecap="round" stroke-linejoin="round"/>
<path d="M49.1 27.6235L49.7999 29.1235L49.1 27.6235Z" fill="#BB8653"/>
<path d="M49.1 27.6235L49.7999 29.1235" stroke="#050505" stroke-width="0.5" stroke-linecap="round" stroke-linejoin="round"/>
<path d="M69.3999 29.3236L67.8999 30.6235C67.8999 30.6235 62.5 29.1235 61.1 33.1235" stroke="#050505" stroke-width="0.5" stroke-linecap="round" stroke-linejoin="round"/>
<path d="M67.8999 29.1235L66.8999 30.4236L67.8999 29.1235Z" fill="#BB8653"/>
<path d="M67.8999 29.1235L66.8999 30.4236" stroke="#050505" stroke-width="0.5" stroke-linecap="round" stroke-linejoin="round"/>
<path d="M62.3999 28.2235C62.3999 28.2235 65.2 27.0235 67 29.6235" stroke="#050505" stroke-width="0.7" stroke-linecap="round" stroke-linejoin="round"/>
<path d="M54.6 27.8236C54.6 27.8236 52.0999 26.1236 49.7999 28.3236" stroke="#050505" stroke-width="0.7" stroke-linecap="round" stroke-linejoin="round"/>
<path d="M53.7 38.1236C54.2 37.0236 56 37.6237 57 37.8237C57.2 37.9237 57.7 38.0236 58 38.0236C58.2 38.0236 58.7 38.0236 59.1 38.0236C60.1 37.9236 61.9 37.6236 62.3 38.7236C62.6 39.9236 61.6 42.1236 58.1 42.0236C57.9667 42.0236 57.8333 42.0236 57.7 42.0236C57.5666 42.0236 57.4333 42.0236 57.3 42.0236C53.9 41.5236 53.2 39.2236 53.7 38.1236Z" fill="#050505"/>
<path d="M14.3999 33.6236L14.2999 32.8237C14.2999 32.6237 14.2999 32.4236 14.2999 32.2236C14.2999 32.0236 14.3667 31.6902 14.5 31.2236C14.6333 30.8236 14.8 30.4902 15 30.2236C15.2 29.8902 15.5333 29.5903 16 29.3237C16.4667 29.1237 17.0333 28.9903 17.7 28.9236C19.1 28.8236 20.2 29.3237 20.7 29.8237C20.9666 30.0903 21.1999 30.4237 21.3999 30.8237C21.5332 31.2903 21.6333 31.6237 21.7 31.8237C21.7 32.0237 21.7 32.2569 21.7 32.5236V32.6236C21.7666 33.4236 21.5333 34.2569 21 35.1236C20.5333 35.9903 19.9666 36.757 19.2999 37.4236L22.1 37.3237L22.2 40.2236L14.8999 40.5236L14.7999 37.9236C16.5999 36.2236 17.7 34.9236 18.1 34.1236C18.3 33.7236 18.4333 33.457 18.5 33.3237C18.5667 33.1237 18.6 32.9236 18.6 32.7236C18.6 32.3236 18.5999 32.2236 18.3999 32.0236C18.2666 31.8903 18.0999 31.8237 17.8999 31.8237C17.4999 31.8237 17.4 32.1237 17.5 32.8237V33.5236L14.3999 33.6236Z" fill="#050505"/>
<path fill-rule="evenodd" clip-rule="evenodd" d="M23.8999 40.1236L25.8 36.6236C24 36.4902 23.0333 35.1902 22.8999 32.7235C22.8333 31.5902 23.1666 30.6236 23.8999 29.8236C24.5666 29.0236 25.5 28.5903 26.7 28.5236C27.8333 28.4569 28.8 28.7903 29.6 29.5236C30.3333 30.2569 30.7333 31.1903 30.8 32.3236C30.8666 33.1903 30.6333 34.0903 30.1 35.0236L27.3 39.9236L23.8999 40.1236ZM27 33.7235C27.4667 33.7235 27.7 33.3569 27.7 32.6236C27.6333 31.8236 27.3333 31.4569 26.8 31.5236C26.2666 31.5236 26.0333 31.9235 26.1 32.7235C26.1667 33.4569 26.4667 33.7902 27 33.7235Z" fill="#050505"/>
<path d="M15.6 32.3237L15.5 31.5236C15.5 31.3236 15.5 31.1236 15.5 30.9236C15.5 30.7236 15.5666 30.3903 15.7 29.9236C15.8333 29.5236 16 29.157 16.2 28.8237C16.4 28.557 16.7333 28.2903 17.2 28.0236C17.6666 27.7569 18.2332 27.6236 18.8999 27.6236C20.2999 27.5236 21.3999 28.0236 21.8999 28.5236C22.1666 28.7903 22.4 29.1236 22.6 29.5236C22.7333 29.9236 22.8332 30.2569 22.8999 30.5236C22.8999 30.7236 22.8999 30.9569 22.8999 31.2236V31.3237C22.9666 32.057 22.7333 32.8569 22.2 33.7236C21.7333 34.5902 21.1667 35.3903 20.5 36.1236L23.2999 35.9236L23.3999 38.9236L16.1 39.2236L16 36.6236C17.8 34.9236 18.8999 33.6237 19.2999 32.8237C19.4999 32.4237 19.6333 32.1569 19.7 32.0236C19.7666 31.8236 19.7999 31.6236 19.7999 31.4236C19.7999 31.0236 19.8 30.8236 19.6 30.6236C19.4666 30.5569 19.3 30.5236 19.1 30.5236C18.7 30.5236 18.6 30.8236 18.7 31.5236V32.2236L15.6 32.3237Z" fill="#FEFEFE"/>
<path fill-rule="evenodd" clip-rule="evenodd" d="M25.1 38.8236L27 35.3236C25.2 35.1903 24.2333 33.8903 24.1 31.4236C24.0333 30.2903 24.3667 29.2903 25.1 28.4236C25.7667 27.6236 26.6999 27.2235 27.8999 27.2235C29.0333 27.1569 30 27.4902 30.8 28.2235C31.5333 28.9569 31.9334 29.8903 32 31.0236C32.0667 31.8903 31.8333 32.7569 31.3 33.6236L28.5 38.6236L25.1 38.8236ZM28.2 32.4236C28.7333 32.4236 28.9666 32.057 28.8999 31.3236C28.8333 30.5236 28.5334 30.1236 28 30.1236C27.4667 30.1902 27.2333 30.5903 27.3 31.3236C27.3666 32.057 27.6667 32.4236 28.2 32.4236Z" fill="#FEFEFE"/>
<path d="M71.8 66.9236L14.7 70.3236L14.2999 65.7235L71.3999 62.3236L71.8 66.9236Z" fill="#4F9BCF"/>
<path fill-rule="evenodd" clip-rule="evenodd" d="M20.2 55.7235C21.1 55.7235 21.9999 55.7236 21.7999 58.4236C21.4999 60.9236 20.6999 61.1235 19.3999 61.2235H18.8999L19.3999 55.8236L20.2 55.7235ZM20.1 56.3236L19.7 60.5236C20.9 60.5236 20.9 59.3236 21 58.4236C21.1 57.6236 21.3 56.2236 20.1 56.3236Z" fill="#FEFEFE"/>
<path d="M22.7999 61.0236H22.1L22.6 55.6235L23.2999 55.5236L22.7999 61.0236ZM22.8999 55.4236L22.6 55.2235L23.2999 54.1235L23.7 54.4236L22.8999 55.4236Z" fill="#FEFEFE"/>
<path fill-rule="evenodd" clip-rule="evenodd" d="M25.2999 55.4236L25.8999 60.8236H25.2L25.1 59.8236H24.1L23.7999 60.9236H23.1L24.7 55.5236L25.2999 55.4236ZM25 58.4236V56.4236H24.8999L24.2999 59.2235L25.1 59.1235L25 58.4236Z" fill="#FEFEFE"/>
<path d="M28.2 60.6235L27.5 60.7235L28 55.2235H28.7L28.2 60.6235Z" fill="#FEFEFE"/>
<path d="M29.8999 56.7235L29.7999 58.5236L29.6 60.5236L28.8999 60.6235L29.3999 55.2235L30.1 55.1235L31 59.2235V59.1235V57.0236L31.2 55.0236H31.8999L31.3999 60.4236L30.7999 60.5236L29.8999 56.4236V56.7235Z" fill="#FEFEFE"/>
<path d="M34.5 54.8236V55.5236H33.6L33.2 60.3236L32.5 60.4236L32.8999 55.6235H32.1L32.2 55.0236L34.5 54.8236Z" fill="#FEFEFE"/>
<path d="M36.6 54.7235V55.3236L35.3999 55.4236L35.2 57.1235L36.2999 57.0236L36.2 57.7235H35.2L35 59.6235L36.2 59.5236L36.1 60.1235L34.2 60.2235L34.7 54.8236L36.6 54.7235Z" fill="#FEFEFE"/>
<path fill-rule="evenodd" clip-rule="evenodd" d="M37 54.7235L37.8999 54.6235C38.3999 54.6235 39.2 54.6236 39.1 55.9236C39 56.4236 38.8 57.2236 38.2 57.4236L38.8999 59.9236L38.2 60.0236L37.5 57.4236L37.2 60.1235H36.5L37 54.7235ZM38.2999 56.2235C38.2999 55.6235 38.2999 55.2236 37.7999 55.3236H37.7L37.5 57.1235C38 57.1235 38.1999 56.7235 38.2999 56.2235Z" fill="#FEFEFE"/>
<path d="M40.2999 56.1235L40.2 57.9236L40 59.9236H39.2999L39.7999 54.5236H40.5L41.3999 58.5236V56.3236L41.6 54.4236H42.2999L41.7999 59.8236H41.1L40.2999 55.7235V56.1235Z" fill="#FEFEFE"/>
<path fill-rule="evenodd" clip-rule="evenodd" d="M44.2999 54.2235L44.8999 59.6235H44.2L44.1 58.6235H43.1L42.7999 59.7235L42.1 59.8236L43.7 54.3236L44.2999 54.2235ZM44 57.2235V55.2235H43.8999L43.2999 58.0236H44.1L44 57.2235Z" fill="#FEFEFE"/>
<path d="M47.7999 54.7235C47.6666 54.6568 47.4999 54.6235 47.2999 54.6235C46.2999 54.7235 46.1999 56.2236 46.0999 56.8236C45.9999 57.6236 45.9999 58.9236 46.8999 58.8236C47.0999 58.8236 47.2665 58.7902 47.3999 58.7235L47.2999 59.3236C47.0999 59.4569 46.8999 59.5236 46.6999 59.5236C45.2999 59.6236 45.1999 58.1236 45.3999 56.9236C45.4999 55.9236 45.7999 54.1236 47.1999 54.0236C47.4999 54.0236 47.5999 54.0235 47.7999 54.1235V54.7235Z" fill="#FEFEFE"/>
<path d="M48.3999 59.4236H47.7L48.2 54.0236L48.8999 53.9236L48.3999 59.4236Z" fill="#FEFEFE"/>
<path fill-rule="evenodd" clip-rule="evenodd" d="M52 56.4236C51.9 57.4236 51.6999 59.2236 50.2999 59.3236C48.9999 59.4236 49.0999 57.6235 49.1999 56.6235C49.2999 55.6235 49.4999 53.8235 50.8999 53.7235C52.1999 53.7235 52.1 55.5236 52 56.4236ZM50 56.6235C49.9 57.7235 49.7999 58.7235 50.3999 58.6235C50.9999 58.6235 51.0999 57.6236 51.1999 56.5236C51.3999 55.3236 51.3999 54.4236 50.7999 54.4236C50.1999 54.5236 50.1 55.4235 50 56.6235Z" fill="#FEFEFE"/>
<path d="M53.2999 55.3236L53.2 57.1235L53 59.1235H52.2999L52.7999 53.7235H53.5L54.3999 57.7235V55.5236L54.6 53.6235L55.2999 53.5236L54.7999 59.0236H54.1L53.2999 54.9236V55.3236Z" fill="#FEFEFE"/>
<path fill-rule="evenodd" clip-rule="evenodd" d="M57.2999 53.4236L58 58.8236H57.2L57.1 57.8236H56.1L55.7999 58.9236H55.1L56.7999 53.5236L57.2999 53.4236ZM57 56.4236L56.8999 54.4236L56.2 57.2235L57 57.1235V56.4236Z" fill="#FEFEFE"/>
<path d="M59.5 53.3236L59 58.1235L60.2 58.0236V58.6235L58.2 58.7235L58.7999 53.3236H59.5Z" fill="#FEFEFE"/>
<path fill-rule="evenodd" clip-rule="evenodd" d="M63 53.1235C63.8 53.0235 64.8 53.0235 64.5 55.7235C64.3 58.2235 63.5 58.4236 62.2 58.5236H61.7L62.2 53.1235H63ZM62.8999 53.7235L62.5 57.9236C63.6 57.9236 63.6999 56.8236 63.7999 55.8236C63.8999 55.0236 64.0999 53.6235 62.8999 53.7235Z" fill="#FEFEFE"/>
<path d="M67.2999 52.8236L67.2 53.4236L66 53.5236L65.7999 55.2235L66.8999 55.1235V55.8236H65.7999L65.6 57.7235L66.7999 57.6235V58.2235L64.7999 58.3236L65.3999 52.9236L67.2999 52.8236Z" fill="#FEFEFE"/>
<path d="M19.2999 63.6235L18.8999 68.9236L22 68.7235L21.8999 70.8236L16.5 71.1235L17.1 63.7235L19.2999 63.6235Z" fill="#FEFEFE"/>
<path fill-rule="evenodd" clip-rule="evenodd" d="M27.8999 63.0236L30 70.3236L27.6 70.4236L27.3999 69.7235L25 69.8236L24.7 70.6235L22.2999 70.8236L25.6 63.2235L27.8999 63.0236ZM26 67.6235H27L26.6 66.1235L26 67.6235Z" fill="#FEFEFE"/>
<path fill-rule="evenodd" clip-rule="evenodd" d="M33 70.1236L33.5 62.7236L36.5 62.5236C37.5667 62.457 38.4 62.757 39 63.4236C39.6667 64.0903 39.9333 64.957 39.7999 66.0236C39.7333 67.0903 39.3333 67.9902 38.6 68.7236C37.8666 69.4569 36.9666 69.857 35.8999 69.9236L33 70.1236ZM35.6 64.7236L35.2999 67.9236L36.1 67.8237C36.5 67.8237 36.8333 67.657 37.1 67.3237C37.3666 66.9903 37.5333 66.5903 37.6 66.1236C37.6666 65.7236 37.5666 65.357 37.2999 65.0236C37.0999 64.757 36.7999 64.6236 36.3999 64.6236L35.6 64.7236Z" fill="#FEFEFE"/>
<path fill-rule="evenodd" clip-rule="evenodd" d="M45.1 62.0236L47.2 69.2235L44.7999 69.3236L44.6 68.6235L42.2 68.7235L41.8999 69.5236L39.6 69.7235L42.7999 62.1235L45.1 62.0236ZM43.2 66.7235L44.2 66.6235L43.7999 65.1235L43.2 66.7235Z" fill="#FEFEFE"/>
<path d="M55 61.3236L54.3999 68.7235L52.3999 68.9236L50.2999 65.8236L50.1 69.0236L47.8999 69.2235L48.3999 61.8236L50.3999 61.6235L52.5 64.7235L52.7999 61.5236L55 61.3236Z" fill="#FEFEFE"/>
<path d="M58.3999 66.4236L61.2 66.2235L61.1 68.3236L55.2999 68.7235L55.3999 66.9236L58.2999 63.2235L55.7999 63.4236L55.8999 61.3236L61.5 60.9236L61.3999 62.7235L58.3999 66.4236Z" fill="#FEFEFE"/>
<path fill-rule="evenodd" clip-rule="evenodd" d="M67.1 60.6235L69.2 67.8236L66.7999 68.0236L66.6 67.2235L64.2 67.4236L63.8999 68.2235L61.6 68.3236L64.7999 60.7235L67.1 60.6235ZM65.2 65.3236L66.2 65.2235L65.7999 63.7235L65.2 65.3236Z" fill="#FEFEFE"/>
<path fill-rule="evenodd" clip-rule="evenodd" d="M31 79.3236C30.6667 79.6569 30.2333 79.8236 29.7 79.8236L28.7999 79.9236L29.1 76.2235H30C30.5333 76.2235 30.9666 76.3569 31.2999 76.6235C31.5666 76.9569 31.6666 77.3903 31.6 77.9236C31.5333 78.4569 31.3333 78.9236 31 79.3236ZM29.5 76.7235L29.2999 79.4236H29.7999C30.1333 79.3569 30.4333 79.1903 30.7 78.9236C30.9 78.7236 31.0333 78.4236 31.1 78.0236C31.1666 77.6236 31.0999 77.2902 30.8999 77.0236C30.6999 76.7569 30.4 76.6568 30 76.7235H29.5Z" fill="#FEFEFE"/>
<path d="M32.7999 77.0236L32.6 79.7235H32.1L32.2999 77.1235L32.7999 77.0236ZM32.7999 76.6235H32.3999L32.7999 75.9236H33.2999L32.7999 76.6235Z" fill="#FEFEFE"/>
<path fill-rule="evenodd" clip-rule="evenodd" d="M35.1 79.6235V79.3236C35.0333 79.4569 34.9333 79.5236 34.7999 79.5236C34.6666 79.5902 34.5667 79.6568 34.5 79.7235C34.4333 79.7235 34.3666 79.7235 34.2999 79.7235C33.8999 79.7235 33.6333 79.5903 33.5 79.3236C33.3667 79.0569 33.2999 78.7236 33.2999 78.3236C33.3666 77.9236 33.5 77.5903 33.7 77.3236C33.9 77.0569 34.1667 76.9236 34.5 76.9236C34.6333 76.9236 34.7333 76.9236 34.7999 76.9236C34.8666 76.9236 34.9333 76.9569 35 77.0236C35.1333 77.0902 35.2333 77.1568 35.2999 77.2235V76.9236H35.7999L35.6 79.6235H35.1ZM35.2 78.2235C35.2666 77.6235 35.0666 77.3236 34.6 77.3236C34.1333 77.3903 33.8666 77.7236 33.7999 78.3236C33.7333 78.9236 33.9332 79.2235 34.3999 79.2235C34.8666 79.2235 35.1333 78.8902 35.2 78.2235Z" fill="#FEFEFE"/>
<path fill-rule="evenodd" clip-rule="evenodd" d="M39.1 79.4236V79.1235C39.0333 79.2569 38.9333 79.3569 38.7999 79.4236C38.6666 79.4903 38.5667 79.5236 38.5 79.5236C38.4333 79.5236 38.3666 79.5236 38.2999 79.5236C37.9666 79.5236 37.7 79.3902 37.5 79.1235C37.3667 78.9235 37.2999 78.6235 37.2999 78.2235C37.3666 77.7568 37.5 77.3902 37.7 77.1235C37.9 76.8569 38.1667 76.7235 38.5 76.7235C38.6333 76.7235 38.7333 76.7235 38.7999 76.7235C38.8666 76.7235 38.9333 76.7569 39 76.8236C39.1333 76.8903 39.2333 76.9902 39.2999 77.1235L39.3999 75.7235L39.8999 75.6235L39.6 79.4236H39.1ZM39.2 78.1235C39.2666 77.4569 39.0666 77.1568 38.6 77.2235C38.1333 77.2235 37.8666 77.5235 37.7999 78.1235C37.7333 78.7235 37.9332 79.0236 38.3999 79.0236C38.8666 79.0236 39.1333 78.7235 39.2 78.1235Z" fill="#FEFEFE"/>
<path fill-rule="evenodd" clip-rule="evenodd" d="M42.6 78.1235L40.7999 78.2235C40.7999 78.6902 40.9999 78.9236 41.3999 78.9236C41.5999 78.9236 41.7666 78.8568 41.8999 78.7235L42.2 79.1235C42 79.2569 41.7332 79.3569 41.3999 79.4236C40.9999 79.4236 40.7 79.2902 40.5 79.0236C40.3667 78.8236 40.2999 78.4902 40.2999 78.0236C40.3666 77.6236 40.5 77.2902 40.7 77.0236C40.9 76.7569 41.2 76.6235 41.6 76.6235C42 76.6235 42.2666 76.7236 42.3999 76.9236C42.5999 77.1903 42.6666 77.5236 42.6 77.9236V78.1235ZM40.7999 77.8236L42.2 77.7235C42.2 77.2568 42 77.0236 41.6 77.0236C41.2 77.0902 40.9333 77.3569 40.7999 77.8236Z" fill="#FEFEFE"/>
<path d="M43.1 79.2235L43.3999 75.5236H43.8999L43.6 79.2235H43.1Z" fill="#FEFEFE"/>
<path fill-rule="evenodd" clip-rule="evenodd" d="M46.6 75.5236L47.2999 75.4236L48.1 79.0236H47.6L47.3999 78.3236L45.8999 78.4236L45.6 79.1235H45.1L46.6 75.5236ZM46.8999 76.0236L46.1 78.0236H47.2999L46.8999 76.0236Z" fill="#FEFEFE"/>
<path d="M50.2 78.9236L50.3999 77.4236C50.3999 76.8903 50.2667 76.6568 50 76.7235C49.7 76.7235 49.4999 76.8236 49.3999 77.0236C49.2666 77.2236 49.2 77.3902 49.2 77.5236L49.1 79.0236H48.6L48.8999 76.3236H49.2999V76.6235C49.4999 76.3569 49.7666 76.2235 50.1 76.2235C50.4 76.2235 50.6 76.3236 50.7 76.5236C50.7666 76.5902 50.7999 76.6903 50.7999 76.8236C50.8999 77.0236 50.8999 77.1235 50.8999 77.2235L50.7 78.9236H50.2Z" fill="#FEFEFE"/>
<path d="M51.3999 78.8236L51.6 76.2235H52.1L51.8999 78.8236H51.3999ZM51.7999 75.3236C51.8666 75.2569 51.9333 75.2235 52 75.2235C52.1 75.2235 52.2999 75.3236 52.2999 75.5236C52.1999 75.7236 52.0999 75.8236 51.8999 75.8236C51.7999 75.8236 51.6 75.7236 51.6 75.5236C51.6666 75.4569 51.7333 75.3903 51.7999 75.3236Z" fill="#FEFEFE"/>
<path d="M54.7999 76.7235C54.7333 76.9235 54.7 77.0902 54.7 77.2235L54.5 78.7235H54L54.2 77.2235C54.2 76.7569 54.0666 76.5236 53.7999 76.5236C53.5333 76.5236 53.3666 76.7903 53.2999 77.3236L53.2 78.8236H52.7L52.8999 76.1236H53.3999V76.4236C53.5332 76.157 53.7333 76.0236 54 76.0236C54.3 76.0236 54.5 76.2236 54.5 76.5236C54.7 76.1903 54.9666 76.0236 55.2999 76.0236C55.5999 75.9236 55.7999 76.1235 55.8999 76.2235C55.9666 76.2902 56 76.3903 56 76.5236C56.1 76.7236 56 76.8236 56 77.1236L55.8999 78.6236L55.3999 78.7235L55.5 77.1236C55.5667 76.6569 55.4666 76.4236 55.2 76.4236C55 76.4236 54.8666 76.5235 54.7999 76.7235Z" fill="#FEFEFE"/>
<path fill-rule="evenodd" clip-rule="evenodd" d="M58.2999 78.5236L58.3999 78.2235C58.2666 78.3568 58.1666 78.4569 58.1 78.5236C57.9666 78.5902 57.8666 78.6235 57.7999 78.6235C57.7332 78.6235 57.6333 78.6235 57.5 78.6235C57.1666 78.6902 56.9332 78.5903 56.7999 78.3236C56.5999 78.0569 56.5333 77.7236 56.6 77.3236C56.6 76.9236 56.6999 76.5903 56.8999 76.3236C57.1666 76.0569 57.4666 75.8903 57.7999 75.8236C57.8666 75.8236 57.9333 75.8236 58 75.8236C58.0666 75.8903 58.1666 75.9236 58.2999 75.9236C58.3666 75.9903 58.4333 76.0902 58.5 76.2235L58.6 75.9236H59.1L58.7999 78.5236H58.2999ZM58.3999 77.2235C58.4666 76.6235 58.2666 76.3236 57.7999 76.3236C57.3999 76.3236 57.1666 76.6235 57.1 77.2235C57.0333 77.8902 57.2333 78.1902 57.6999 78.1235C58.1666 78.1235 58.3999 77.8235 58.3999 77.2235Z" fill="#FEFEFE"/>
<path d="M59.6 78.5236L59.8999 74.7235H60.3999L60.1 78.5236H59.6Z" fill="#FEFEFE"/>
</g>
<defs>
<clipPath id="clip0_239_67089">
<rect width="85" height="85" fill="white"/>
</clipPath>
</defs>
</svg>
