<svg width="82" height="125" viewBox="0 0 82 125" fill="none" xmlns="http://www.w3.org/2000/svg">
<g clip-path="url(#clip0_239_66225)">
<path d="M6 120.243L3.69995 54.5432L72.3999 51.2432L74.7 115.743L6 120.243Z" fill="#28C5EF"/>
<path d="M2.30005 125.143L6 120.243L74.7 115.743L71.3 120.643L2.30005 125.143Z" fill="#30A2BB"/>
<path d="M0 60.2432L3.80005 54.5432L6 120.243L2.30005 125.143L0 60.2432Z" fill="#1976A1"/>
<path opacity="0.2" d="M67.5001 82.8433C67.6001 84.4433 61.4 86.3432 53.7 87.0432C45.9 87.7432 39.5 87.0432 39.4 85.4432C39.2 83.8432 45.4 81.9432 53.2 81.2432C60.9 80.5432 67.3001 81.2433 67.5001 82.8433Z" fill="#1C1C1A"/>
<path d="M63.4 50.8432C63.4 50.8432 66 49.7432 66.6 49.0432C67.5 48.0432 67.4001 46.4432 66.3001 45.5432C65.3001 44.5432 63.7 44.6432 62.7 45.6432C62 46.5432 61.9001 47.7431 62.5001 48.7431C62.4334 48.7431 62.3334 48.8099 62.2 48.9432C62 49.1432 62 49.6432 62.2 49.8432L63.4 50.8432Z" fill="#B48054"/>
<path d="M63.4 50.8432C63.4 50.8432 66 49.7432 66.6 49.0432C67.5 48.0432 67.4001 46.4432 66.3001 45.5432C65.3001 44.5432 63.7 44.6432 62.7 45.6432C62 46.5432 61.9001 47.7431 62.5001 48.7431C62.4334 48.7431 62.3334 48.8099 62.2 48.9432C62 49.1432 62 49.6432 62.2 49.8432L63.4 50.8432Z" stroke="#050505" stroke-width="0.4" stroke-linecap="round" stroke-linejoin="round"/>
<path d="M56.0999 61.0432C55.5999 59.2432 56.5999 57.3432 58.3999 56.7432C59.5999 56.4432 60.4 56.0432 61 55.6432C61.6 55.2432 61.9 54.9432 62 54.6432C62.2 54.2432 62.3999 53.8432 62.3999 53.1432C62.3999 52.4432 62.3 51.5433 62 50.3433L68.5 48.4432C69 50.1432 69.2 51.7433 69.2 53.3433C69.2 54.9433 68.8 56.4433 68 57.8433C68 57.8433 68 57.8766 68 57.9432C67.2 59.2432 66.1001 60.4433 64.8001 61.3433C63.5001 62.2433 62.0001 62.8433 60.3001 63.3433C58.5001 63.8433 56.5999 62.8432 56.0999 61.0432Z" fill="#EAECED"/>
<path d="M56.0999 61.0432C55.5999 59.2432 56.5999 57.3432 58.3999 56.7432C59.5999 56.4432 60.4 56.0432 61 55.6432C61.6 55.2432 61.9 54.9432 62 54.6432C62.2 54.2432 62.3999 53.8432 62.3999 53.1432C62.3999 52.4432 62.3 51.5433 62 50.3433L68.5 48.4432C69 50.1432 69.2 51.7433 69.2 53.3433C69.2 54.9433 68.8 56.4433 68 57.8433C68 57.8433 68 57.8766 68 57.9432C67.2 59.2432 66.1001 60.4433 64.8001 61.3433C63.5001 62.2433 62.0001 62.8433 60.3001 63.3433C58.5001 63.8433 56.5999 62.8432 56.0999 61.0432Z" stroke="#050505" stroke-width="0.4" stroke-linecap="round" stroke-linejoin="round"/>
<g style="mix-blend-mode:multiply">
<mask id="mask0_239_66225" style="mask-type:luminance" maskUnits="userSpaceOnUse" x="56" y="48" width="15" height="16">
<path d="M57.5898 63.6432L70.1199 62.4932L68.8298 48.4432L56.3 49.6033L57.5898 63.6432Z" fill="white"/>
</mask>
<g mask="url(#mask0_239_66225)">
<path d="M58.3 62.7432C60 62.3432 61.5 61.6432 62.8 60.7432C64.1 59.9432 65.2 58.7433 66 57.3433C66.8 55.9433 67.1 54.3432 67.2 52.7432C67.2 51.5432 67.0333 50.2766 66.7 48.9432L68.5 48.4432C69 50.1432 69.2 51.7433 69.2 53.3433C69.2 54.9433 68.8 56.4433 68 57.8433C68 57.8433 68 57.8766 68 57.9432C67.2 59.2432 66.1 60.4433 64.8 61.3433C63.5 62.2433 62 62.8433 60.3 63.3433C59.3 63.6433 58.3 63.4432 57.5 62.9432C57.7667 62.8766 58.0334 62.8098 58.3 62.7432Z" fill="#D7D7D5"/>
</g>
</g>
<path d="M59.8999 80.5432C59.8999 80.5432 59.3999 81.5432 61.8999 82.2432L52.3 83.6432V81.5432L59.8999 80.5432Z" fill="#050505"/>
<path d="M59.8999 80.5432C59.8999 80.5432 59.3999 81.5432 61.8999 82.2432L52.3 83.6432V81.5432L59.8999 80.5432Z" stroke="#050505" stroke-width="0.4" stroke-linecap="round" stroke-linejoin="round"/>
<path d="M60.3999 72.7432V80.3433L51.7 82.0432L50.3 74.7432" fill="#28377C"/>
<path d="M60.3999 72.7432V80.3433L51.7 82.0432L50.3 74.7432" stroke="#050505" stroke-width="0.4" stroke-linecap="round" stroke-linejoin="round"/>
<g opacity="0.3">
<mask id="mask1_239_66225" style="mask-type:luminance" maskUnits="userSpaceOnUse" x="52" y="74" width="4" height="8">
<path d="M52.6899 81.8832L55.71 81.6033L55.02 74.0833L52 74.3632L52.6899 81.8832Z" fill="white"/>
</mask>
<g mask="url(#mask1_239_66225)">
<path d="M55 74.0432L54.8 81.4432L52.7 81.8433V74.7432L55 74.0432Z" fill="#0C0E10"/>
</g>
</g>
<path d="M52.5999 81.9432C52.5999 81.9432 52.1 83.2432 54.2 83.7432L44.7 85.5432V83.3433L52.5999 81.9432Z" fill="#050505"/>
<path d="M52.5999 81.9432C52.5999 81.9432 52.1 83.2432 54.2 83.7432L44.7 85.5432V83.3433L52.5999 81.9432Z" stroke="#050505" stroke-width="0.4" stroke-linecap="round" stroke-linejoin="round"/>
<path d="M53.0999 73.9432L52.8999 81.8433L43.8999 84.2432L42.8 76.5432" fill="#28377C"/>
<path d="M53.0999 73.9432L52.8999 81.8433L43.8999 84.2432L42.8 76.5432" stroke="#050505" stroke-width="0.4" stroke-linecap="round" stroke-linejoin="round"/>
<g opacity="0.3">
<mask id="mask2_239_66225" style="mask-type:luminance" maskUnits="userSpaceOnUse" x="43" y="77" width="4" height="8">
<path d="M43.5999 84.2133L46.0898 83.9932L45.5 77.6132L43.01 77.8433L43.5999 84.2133Z" fill="white"/>
</mask>
<g mask="url(#mask2_239_66225)">
<path d="M43.0999 79.0432V78.0432L45.5 77.6432L45.3999 83.8433L43.8999 84.2432L43.0999 79.0432Z" fill="#0C0E10"/>
</g>
</g>
<path d="M50.8 64.7432L54.2 61.0432L57 57.8433C57 57.8433 59.4 63.5432 61.3 66.5432C63 69.3432 64.9999 71.0432 65.0999 71.5432C65.1999 73.3432 59.1 76.8432 57.2 77.6432C51.8 79.6432 48.5 78.9432 44.7 80.2432C41.7 81.1432 41.1 80.8432 40.7 80.6432C39.4 79.7432 37.3999 64.5432 37.3999 64.5432L44.8999 63.7432L50.8 64.7432Z" fill="#EAECED"/>
<path d="M50.8 64.7432L54.2 61.0432L57 57.8433C57 57.8433 59.4 63.5432 61.3 66.5432C63 69.3432 64.9999 71.0432 65.0999 71.5432C65.1999 73.3432 59.1 76.8432 57.2 77.6432C51.8 79.6432 48.5 78.9432 44.7 80.2432C41.7 81.1432 41.1 80.8432 40.7 80.6432C39.4 79.7432 37.3999 64.5432 37.3999 64.5432L44.8999 63.7432L50.8 64.7432Z" stroke="#050505" stroke-width="0.4" stroke-linecap="round" stroke-linejoin="round"/>
<path d="M48.3 73.5432C48.9 75.5432 47.9999 76.9432 46.3999 77.4432C44.7999 77.9432 43.2999 77.3432 42.5999 75.4432L41.8999 73.2432L47.5999 71.3433L48.3 73.5432Z" stroke="#050505" stroke-width="0.4" stroke-linecap="round" stroke-linejoin="round"/>
<path d="M48.0999 72.4432L42.2 74.3433L48.0999 72.4432Z" fill="#E3272C"/>
<path d="M48.0999 72.4432L42.2 74.3433" stroke="#050505" stroke-width="0.4"/>
<path d="M52.4999 70.2432C52.5999 70.5432 52.9999 70.7432 53.2999 70.6432C53.5999 70.5432 53.7998 70.1433 53.6998 69.8433C53.5998 69.5433 53.1998 69.3432 52.8998 69.4432C52.5998 69.5432 52.3999 69.8432 52.4999 70.2432Z" fill="#050505"/>
<path d="M53.8998 72.6432C53.9998 72.9432 54.2998 73.1432 54.5998 73.0432C54.9998 72.9432 55.0999 72.5432 54.9999 72.2432C54.8999 71.9432 54.5999 71.7433 54.1999 71.8433C53.8999 71.9433 53.6998 72.3432 53.8998 72.6432Z" fill="#050505"/>
<path d="M55.3998 75.0432C55.4998 75.3432 55.7999 75.5432 56.1999 75.4432C56.4999 75.3432 56.6999 74.9432 56.4999 74.6432C56.3999 74.3432 56.1 74.1432 55.8 74.2432C55.4 74.3432 55.2998 74.6432 55.3998 75.0432Z" fill="#050505"/>
<g style="mix-blend-mode:multiply">
<mask id="mask3_239_66225" style="mask-type:luminance" maskUnits="userSpaceOnUse" x="37" y="64" width="6" height="18">
<path d="M38.97 81.1232L42.9299 80.7532L41.3999 64.1632L37.45 64.5332L38.97 81.1232Z" fill="white"/>
</mask>
<g mask="url(#mask3_239_66225)">
<path d="M40.7 80.6432C39.5 79.8432 37.8 67.0433 37.5 64.8433L37.3999 64.5432L39.5999 64.6432L42.8999 80.6432C41.3999 81.0432 41 80.8432 40.7 80.6432Z" fill="#D7D7D5"/>
</g>
</g>
<path d="M53.2 67.6432C53.2 67.6432 53.6999 69.1432 55.5999 71.9432C57.3999 74.7432 58.2 76.8433 58.2 76.8433" fill="#FEFEFE"/>
<path d="M53.2 67.6432C53.2 67.6432 53.6999 69.1432 55.5999 71.9432C57.3999 74.7432 58.2 76.8433 58.2 76.8433" stroke="#050505" stroke-width="0.4" stroke-linecap="round" stroke-linejoin="round"/>
<path d="M52.8 67.3433L53.3 67.0432L52.5 62.3433L49.3 64.8433L52.8 67.3433Z" fill="#96BFE2"/>
<g opacity="0.4">
<mask id="mask4_239_66225" style="mask-type:luminance" maskUnits="userSpaceOnUse" x="46" y="65" width="8" height="5">
<path d="M46.5898 69.0833L53.4199 68.4532L53.1499 65.5332L46.3201 66.1632L46.5898 69.0833Z" fill="white"/>
</mask>
<g mask="url(#mask4_239_66225)">
<path d="M46.5999 67.2432L46.8 67.7432L50.0999 66.8433L49.7 67.4432L49.8 67.8433L53.2 68.2432L52.8 67.3433L50.5999 65.9432L46.5999 67.2432Z" fill="#ACACAD"/>
<path d="M46.5999 67.2432L46.8 67.7432L50.0999 66.8433L49.7 67.4432L49.8 67.8433L53.2 68.2432L52.8 67.3433L50.5999 65.9432L46.5999 67.2432Z" stroke="#ACACAD" stroke-width="0.4" stroke-linejoin="round"/>
</g>
</g>
<g opacity="0.4">
<mask id="mask5_239_66225" style="mask-type:luminance" maskUnits="userSpaceOnUse" x="53" y="63" width="4" height="5">
<path d="M53.3799 67.5933L56.45 67.3132L56.1299 63.8632L53.0601 64.1432L53.3799 67.5933Z" fill="white"/>
</mask>
<g mask="url(#mask5_239_66225)">
<path d="M54.0999 64.7432V65.4432L53.3999 67.6432L54.7 65.0432L56.2 64.3433L56.0999 63.8433L54.0999 64.7432Z" fill="#ACACAD"/>
</g>
</g>
<path d="M52.7 62.1432L55.8999 63.9432L54.0999 64.7432L54.8 65.1432L53.3999 67.7432L53 66.9432L52.3 62.4432L52.7 62.1432Z" fill="#EAECED"/>
<path d="M52.7 62.1432L55.8999 63.9432L54.0999 64.7432L54.8 65.1432L53.3999 67.7432L53 66.9432L52.3 62.4432L52.7 62.1432Z" stroke="#050505" stroke-width="0.4" stroke-linecap="round" stroke-linejoin="round"/>
<path d="M48.0999 64.2432L46.7 67.2432L50.2 66.3433L49.8 67.4432L53.2 67.7432L53 67.1432L50.2 64.3433L48.0999 64.2432Z" fill="#EAECED"/>
<path d="M48.0999 64.2432L46.7 67.2432L50.2 66.3433L49.8 67.4432L53.2 67.7432L53 67.1432L50.2 64.3433L48.0999 64.2432Z" stroke="#050505" stroke-width="0.4" stroke-linecap="round" stroke-linejoin="round"/>
<mask id="mask6_239_66225" style="mask-type:luminance" maskUnits="userSpaceOnUse" x="56" y="64" width="10" height="10">
<path d="M56.25 67.3232L60.49 73.4932L65.1099 71.3433L60.0601 64.5032L56.25 67.3232Z" fill="white"/>
</mask>
<g mask="url(#mask6_239_66225)">
<path d="M66.0999 66.3433C67.0999 68.1433 66.5 69.6432 65 70.5432C63.6 71.3432 61.8999 71.1433 60.8999 69.3433L59.8 67.3433L65 64.3433L66.0999 66.3433Z" stroke="#050505" stroke-width="0.4" stroke-linecap="round" stroke-linejoin="round"/>
<path d="M65.5999 65.2432L60.3 68.3433L65.5999 65.2432Z" fill="#E3272C"/>
<path d="M65.5999 65.2432L60.3 68.3433" stroke="#050505" stroke-width="0.4"/>
</g>
<g opacity="0.5">
<mask id="mask7_239_66225" style="mask-type:luminance" maskUnits="userSpaceOnUse" x="50" y="63" width="3" height="4">
<path d="M50.78 66.6832L52.7 66.5032L52.4399 63.7032L50.52 63.8832L50.78 66.6832Z" fill="white"/>
</mask>
<g mask="url(#mask7_239_66225)">
<path d="M51.0999 63.8433L50.5999 64.2432L52.7 66.5432L52.5 65.4432L51.0999 63.8433Z" fill="#6983A5"/>
</g>
</g>
<path d="M34.7 77.7431C34.3 78.3431 33.6001 79.6432 33.8001 81.0432C33.9001 82.2432 34.6999 83.2432 35.8999 83.5432C37.1999 83.8432 38.8 83.0432 38.7 82.1432C38.6 81.7432 38.7001 81.3432 38.8001 80.8432C38.9001 80.3432 39.2 79.5432 39.2 79.3432C39.4 78.5432 39.4001 76.8432 37.8001 76.4432C35.8001 75.9432 34.7 77.7431 34.7 77.7431Z" fill="#AB795A"/>
<path d="M34.7 77.7431C34.3 78.3431 33.6001 79.6432 33.8001 81.0432C33.9001 82.2432 34.6999 83.2432 35.8999 83.5432C37.1999 83.8432 38.8 83.0432 38.7 82.1432C38.6 81.7432 38.7001 81.3432 38.8001 80.8432C38.9001 80.3432 39.2 79.5432 39.2 79.3432C39.4 78.5432 39.4001 76.8432 37.8001 76.4432C35.8001 75.9432 34.7 77.7431 34.7 77.7431Z" stroke="#050505" stroke-width="0.5" stroke-linecap="round" stroke-linejoin="round"/>
<path d="M38.7 78.9432L40 80.3433C40.3 80.7433 40.2999 81.3432 39.8999 81.5432C39.5999 81.8432 39.1999 81.8432 39.0999 81.7432C38.6999 81.5432 38.3 81.1432 38.3 81.1432" fill="#AB795A"/>
<path d="M38.7 78.9432L40 80.3433C40.3 80.7433 40.2999 81.3432 39.8999 81.5432C39.5999 81.8432 39.1999 81.8432 39.0999 81.7432C38.6999 81.5432 38.3 81.1432 38.3 81.1432" stroke="#050505" stroke-width="0.5" stroke-linecap="round" stroke-linejoin="round"/>
<g style="mix-blend-mode:multiply">
<mask id="mask8_239_66225" style="mask-type:luminance" maskUnits="userSpaceOnUse" x="33" y="76" width="7" height="5">
<path d="M34.02 80.7732L39.75 80.2432L39.3599 76.0132L33.6299 76.5332L34.02 80.7732Z" fill="white"/>
</mask>
<g mask="url(#mask8_239_66225)">
<path d="M33.8 78.8432C33.8 78.8432 35.3999 78.0432 37.0999 78.9432C38.8999 79.8432 39.0999 80.3432 39.0999 80.3432C39.0999 80.3432 40.2 78.7432 39.2 77.5432C38.2 76.3432 36.3999 75.7431 35.5999 76.7431C34.7999 77.7431 33.8 78.8432 33.8 78.8432Z" fill="#DFDFDF"/>
</g>
</g>
<path d="M33.3 78.7432C33.6 77.1432 33.9 75.8433 34.2 73.9433C34.8 70.6433 36.2 68.5432 36.2 68.5432C37.3 66.7432 39.3 66.0433 41 66.8433L41.5999 67.1432C43.0999 67.9432 44.0999 69.7432 42.8999 72.0432C42.8999 72.0432 41.7999 74.3432 41.3999 76.6432C41.0999 78.1432 40.7 80.1432 40.7 80.1432L33.3 78.7432Z" fill="#F5F6F7"/>
<path d="M33.3 78.7432C33.6 77.1432 33.9 75.8433 34.2 73.9433C34.8 70.6433 36.2 68.5432 36.2 68.5432C37.3 66.7432 39.3 66.0433 41 66.8433L41.5999 67.1432C43.0999 67.9432 44.0999 69.7432 42.8999 72.0432C42.8999 72.0432 41.7999 74.3432 41.3999 76.6432C41.0999 78.1432 40.7 80.1432 40.7 80.1432L33.3 78.7432Z" stroke="#050505" stroke-width="0.5" stroke-linecap="round" stroke-linejoin="round"/>
<g opacity="0.3">
<mask id="mask9_239_66225" style="mask-type:luminance" maskUnits="userSpaceOnUse" x="32" y="66" width="12" height="14">
<path d="M33.3699 79.4832L43.0999 78.5833L41.97 66.2732L32.24 67.1632L33.3699 79.4832Z" fill="white"/>
</mask>
<g mask="url(#mask9_239_66225)">
<path d="M33.3 78.7432C33.6 77.1432 33.9 75.8433 34.2 73.9433C34.8 70.6433 36.2 68.5432 36.2 68.5432C37.3 66.7432 39.3 66.0433 41 66.8433L41.5999 67.1432C41.7332 67.2765 41.8999 67.3766 42.0999 67.4433C41.6999 67.6433 41.5 67.6432 41.5 67.6432C41.5 67.6432 38.8 67.6433 37.5 71.3433C36.6 73.7433 36.1 77.2432 35.8 79.2432L33.3 78.7432Z" fill="#0A0C0F"/>
</g>
</g>
<path d="M50.2 64.3433L54.0999 60.8433" stroke="#050505" stroke-width="0.4" stroke-linecap="round" stroke-linejoin="round"/>
<path d="M26.1 58.3432C32.1 66.3432 43.4001 68.5432 52.2001 62.8432C60.6001 57.3432 61.5001 45.7432 55.5001 37.6432C49.5001 29.6432 38.5 27.7431 30.4 33.7431C22.4 39.7431 20.1 50.3432 26.1 58.3432Z" fill="#9A7448"/>
<path d="M29.2999 57.4432C35.0999 65.1432 44.5998 67.5432 52.1998 61.9432C59.7998 56.2432 61.2999 45.3432 55.4999 37.6432C49.7999 29.9432 44.7998 31.4432 37.1998 37.1432C29.5998 42.8432 23.4999 49.7432 29.2999 57.4432Z" fill="#BC8357"/>
<path d="M24.8998 56.6432C30.8998 64.7432 40.8999 70.6431 51.9999 62.7431C64.9999 53.4431 61.4999 45.7431 55.4999 37.7431C49.4999 29.6431 38.0999 28.0432 29.9999 34.0432C21.9999 40.0432 18.8998 48.6432 24.8998 56.6432Z" fill="#B48054"/>
<path d="M24.8998 56.6432C30.8998 64.7432 40.8999 70.6431 51.9999 62.7431C64.9999 53.4431 61.4999 45.7431 55.4999 37.7431C49.4999 29.6431 38.0999 28.0432 29.9999 34.0432C21.9999 40.0432 18.8998 48.6432 24.8998 56.6432Z" stroke="#050505" stroke-width="0.4"/>
<path d="M57.0001 42.0432C57.5001 42.7432 57.5999 43.5432 57.0999 43.9432C56.6999 44.2432 55.9001 43.9432 55.3001 43.2432C54.8001 42.5432 54.7 41.7433 55.2 41.3433C55.7 41.0433 56.5001 41.3432 57.0001 42.0432Z" fill="#050505"/>
<path d="M44.0001 51.7431C44.6001 52.4431 45.4001 52.7432 45.8001 52.3432C46.3001 52.0432 46.2 51.1432 45.7 50.4432C45.2 49.7432 44.4 49.4432 43.9 49.8432C43.4 50.1432 43.5001 51.0431 44.0001 51.7431Z" fill="#050505"/>
<path d="M43.8001 50.7432C43.9001 50.8432 44.1 50.9433 44.2 50.8433C44.3 50.7433 44.3 50.6432 44.2 50.5432C44.1 50.3432 43.9001 50.3433 43.8001 50.3433C43.7001 50.4433 43.7001 50.6432 43.8001 50.7432Z" fill="#FEFEFE"/>
<path d="M57.0001 42.0432C57.5001 42.7432 57.5999 43.5432 57.0999 43.9432C56.6999 44.2432 55.9001 43.9432 55.3001 43.2432C54.8001 42.5432 54.7 41.7433 55.2 41.3433C55.7 41.0433 56.5001 41.3432 57.0001 42.0432Z" fill="#050505"/>
<path d="M55.3001 42.1432C55.4001 42.3432 55.4999 42.3432 55.5999 42.2432C55.6999 42.2432 55.6999 42.0433 55.5999 41.9433C55.4999 41.7433 55.4001 41.7433 55.3001 41.8433C55.2001 41.8433 55.2001 42.0432 55.3001 42.1432Z" fill="#FEFEFE"/>
<path d="M44.0001 51.7431C44.6001 52.4431 45.4001 52.7432 45.8001 52.3432C46.3001 52.0432 46.2 51.1432 45.7 50.4432C45.2 49.7432 44.4 49.4432 43.9 49.8432C43.4 50.1432 43.5001 51.0431 44.0001 51.7431Z" fill="#B48054"/>
<path d="M44.0001 51.7431C44.6001 52.4431 45.4001 52.7432 45.8001 52.3432C46.3001 52.0432 46.2 51.1432 45.7 50.4432C45.2 49.7432 44.4 49.4432 43.9 49.8432C43.4 50.1432 43.5001 51.0431 44.0001 51.7431Z" stroke="#B48054" stroke-width="0.4"/>
<path d="M43.8001 50.7432C43.9001 50.8432 44.1 50.9433 44.2 50.8433C44.3 50.7433 44.3 50.6432 44.2 50.5432C44.1 50.3432 43.9001 50.3433 43.8001 50.3433C43.7001 50.4433 43.7001 50.6432 43.8001 50.7432Z" fill="#B48054"/>
<path d="M43.8001 50.7432C43.9001 50.8432 44.1 50.9433 44.2 50.8433C44.3 50.7433 44.3 50.6432 44.2 50.5432C44.1 50.3432 43.9001 50.3433 43.8001 50.3433C43.7001 50.4433 43.7001 50.6432 43.8001 50.7432Z" stroke="#B48054" stroke-width="0.4"/>
<path d="M57.0001 42.0432C57.5001 42.7432 57.5999 43.5432 57.0999 43.9432C56.6999 44.2432 55.9001 43.9432 55.3001 43.2432C54.8001 42.5432 54.7 41.7433 55.2 41.3433C55.7 41.0433 56.5001 41.3432 57.0001 42.0432Z" fill="#B48054"/>
<path d="M57.0001 42.0432C57.5001 42.7432 57.5999 43.5432 57.0999 43.9432C56.6999 44.2432 55.9001 43.9432 55.3001 43.2432C54.8001 42.5432 54.7 41.7433 55.2 41.3433C55.7 41.0433 56.5001 41.3432 57.0001 42.0432Z" stroke="#B48054" stroke-width="0.4"/>
<path d="M55.3001 42.1432C55.4001 42.3432 55.4999 42.3432 55.5999 42.2432C55.6999 42.2432 55.6999 42.0433 55.5999 41.9433C55.4999 41.7433 55.4001 41.7433 55.3001 41.8433C55.2001 41.8433 55.2001 42.0432 55.3001 42.1432Z" fill="#B48054"/>
<path d="M55.3001 42.1432C55.4001 42.3432 55.4999 42.3432 55.5999 42.2432C55.6999 42.2432 55.6999 42.0433 55.5999 41.9433C55.4999 41.7433 55.4001 41.7433 55.3001 41.8433C55.2001 41.8433 55.2001 42.0432 55.3001 42.1432Z" stroke="#B48054" stroke-width="0.4"/>
<path d="M46.0998 50.2432C45.3998 49.3432 44.2999 49.1432 43.6999 49.6432C43.0999 50.0432 43.1 51.0433 43.8 51.9433" fill="#B48054"/>
<path d="M46.0998 50.2432C45.3998 49.3432 44.2999 49.1432 43.6999 49.6432C43.0999 50.0432 43.1 51.0433 43.8 51.9433" stroke="#050505" stroke-width="0.4" stroke-linecap="round" stroke-linejoin="round"/>
<path d="M55.2 43.3433C54.7 42.6433 54.7 41.7433 55.2 41.3433C55.7 41.0433 56.5 41.3432 57 42.0432" fill="#B48054"/>
<path d="M55.2 43.3433C54.7 42.6433 54.7 41.7433 55.2 41.3433C55.7 41.0433 56.5 41.3432 57 42.0432" stroke="#050505" stroke-width="0.4" stroke-linecap="round" stroke-linejoin="round"/>
<g style="mix-blend-mode:multiply">
<mask id="mask10_239_66225" style="mask-type:luminance" maskUnits="userSpaceOnUse" x="20" y="29" width="36" height="40">
<path d="M23.5798 68.1832L55.21 65.2732L51.9399 29.6732L20.3 32.5833L23.5798 68.1832Z" fill="white"/>
</mask>
<g mask="url(#mask10_239_66225)">
<path d="M41.5999 58.8432C41.2999 58.2432 41.1 57.8432 41 57.3432C41.1333 57.0099 41.2666 56.6098 41.3999 56.1432C41.6999 55.2432 41.9 54.3432 42 53.3432C42.7 50.8432 42.7 47.6432 42.7 45.5432C42.8 43.3432 43.2 30.9432 43.2 30.9432C43.2 30.9432 38.0999 30.1432 33.0999 32.1432C33.0332 32.2098 32.9666 32.2431 32.8999 32.2431C32.6999 32.3765 32.5332 32.4765 32.3999 32.5432C32.3332 32.6098 32.2666 32.6432 32.2 32.6432C26.3 35.9432 22.6 42.7432 21.8 48.8432C21.8 48.8432 21.8 48.8765 21.8 48.9432C22 51.4432 22.9999 54.1432 24.8999 56.6432C30.8999 64.7432 40.9 70.6431 52 62.7431C52.9333 62.0765 53.7667 61.4098 54.5 60.7431C54.7 60.6098 54.8 60.5432 54.8 60.5432C47 65.0432 41.5999 58.8432 41.5999 58.8432Z" fill="#D7D7D5"/>
</g>
</g>
<path d="M25.8999 58.4432C25.8999 58.4432 22.5999 58.7432 26.9999 62.4432C29.2999 64.3432 33.8 65.3433 33.8 65.3433L25.8999 58.4432Z" fill="#201E1E"/>
<path d="M46.8 29.7432C46.8 29.7432 53.5999 29.9432 58.3999 34.9432C58.5999 35.1432 56.1 33.6432 52.7 33.0432" fill="#050505"/>
<path d="M22 39.2432C22 39.2432 15.0999 48.5432 22.6999 58.1432C22.6999 58.1432 20.2 50.6432 22 39.2432Z" fill="#050505"/>
<path d="M29.6999 45.4432C29.9999 45.1432 34.2998 55.5432 30.3998 58.8432C27.1998 56.1432 26.9999 51.6432 26.9999 51.6432C26.9999 55.5432 28.6999 58.6432 29.6999 59.4432C28.9999 60.0432 27.0998 61.5432 25.5998 62.0432C25.5998 62.0432 11.2998 45.4432 30.3998 31.8432C30.3998 31.8432 41.2998 22.8431 57.3998 35.2431C57.3998 35.2431 57.5999 36.0432 56.9999 37.9432C56.4999 39.3432 50.3999 32.6432 49.4999 33.8432" fill="#050505"/>
<path d="M32.5998 30.5432C34.5998 29.4432 42.3 25.1432 54.3 30.5432C54.3 30.5432 30.6998 31.6432 32.5998 30.5432Z" fill="#050505"/>
<path d="M45.3998 28.0432C45.3998 28.0432 26.0998 24.5432 20.5998 42.0432C15.0998 59.6432 45.3998 28.0432 45.3998 28.0432Z" fill="#050505"/>
<path d="M24.8999 61.0432C24.8999 61.0432 27.0999 64.3432 30.3999 65.7432C33.7999 67.0432 34.3 66.9432 34.3 66.9432C34.3 66.9432 32.4 66.2432 29.5 62.1432" fill="#050505"/>
<path d="M36.8 67.0432C36.8 67.0432 37.8999 67.0433 38.5999 66.3433C38.8999 66.0433 37.0999 65.6432 37.0999 65.6432L36.8 67.0432Z" fill="#050505"/>
<path d="M36.0001 30.4432C36.0001 30.4432 43.6001 23.9433 57.2001 35.8433C57.2001 35.8433 57.4 35.8433 57.1 37.3433C56.9 38.5433 56.9 38.5432 56.4 39.4432C55.1 37.6432 53.9 37.2432 49.4 36.1432C49.4 36.1432 54.2001 37.3432 55.5001 40.6432C49.4001 48.7432 41.6 46.2432 41.6 46.2432C41.9 46.0432 44.2001 51.0432 39.5001 53.2432C36.7001 50.6432 35.2001 46.6432 35.2001 46.6432C35.7001 49.8432 36.7 51.8433 38.4 53.8433C37.9 54.3433 36.2 54.8432 35.1 55.1432C35.1 55.1432 22.4001 39.9432 36.0001 30.4432Z" fill="#050505"/>
<path d="M35.0998 55.1431C35.0998 55.1431 30.9998 58.5432 37.8998 66.0432L28.6999 64.1431C28.6999 64.1431 19.5998 57.6432 20.8998 47.4432C22.0998 37.1432 25.3998 41.7431 25.3998 41.7431L29.5998 41.3432L35.0998 55.1431Z" fill="#050505"/>
<path d="M38.3998 53.8433C38.3998 53.8433 34.9999 58.9432 37.7999 65.4432C38.1999 66.4432 36.7999 67.0432 36.7999 67.0432C36.7999 67.0432 32.3997 66.4432 30.0997 64.0432C27.8997 61.7432 31.7999 53.7432 31.7999 53.7432L38.3998 53.8433Z" fill="#050505"/>
<path d="M23.7 36.9433C23.7 36.9433 24.8 32.7432 27.2 30.6432C29.5 28.4432 29.8 28.8433 29.8 28.8433C29.8 28.8433 26.3 31.1432 25.8 36.0432" fill="#050505"/>
<path d="M20.8 41.0432C20.8 41.0432 22.0999 38.8432 19.5999 38.1432C19.5999 38.1432 21.1 37.2432 21.8 37.9432C21.5 36.7432 21.5 34.4432 24.2 32.0432C24.2 32.0432 23.3999 34.9433 25.3999 34.3433" fill="#050505"/>
<path d="M52.0999 49.7432C52.0999 49.7432 53.6 50.3432 54.7 49.6432C55.7 48.8432 55.2 47.1432 55.2 47.1432C55.2 47.1432 54.5 48.6432 54 49.0432C53.6 49.3432 52.0999 49.7432 52.0999 49.7432Z" fill="#9A7448"/>
<path d="M55 47.3433L54.7 48.3433C54.6 48.6433 54.1 48.9432 53.8 49.0432L52.0999 49.5432" stroke="#050505" stroke-width="0.4" stroke-linecap="round" stroke-linejoin="bevel"/>
<path d="M52.2 59.0432C53.5 57.4432 53.5999 55.1433 52.3999 53.4433C51.2999 51.9433 49.6999 51.3433 48.0999 51.4433" stroke="#050505" stroke-width="0.4" stroke-linecap="round" stroke-linejoin="bevel"/>
<path d="M60.8999 51.1432C61.9999 49.4432 61.8999 47.2431 60.5999 45.7431C59.4999 44.5431 57.8 44.1432 56.3 44.5432" fill="#B48054"/>
<path d="M60.8999 51.1432C61.9999 49.4432 61.8999 47.2431 60.5999 45.7431C59.4999 44.5431 57.8 44.1432 56.3 44.5432" stroke="#050505" stroke-width="0.4" stroke-linecap="round" stroke-linejoin="round"/>
<path d="M34.5999 34.4432L39.2 27.8433" stroke="#050505" stroke-width="0.4"/>
<path d="M19.3 42.7432L20.8999 41.5432L21.7 43.5432L21.0999 44.0432L19.3 42.7432Z" fill="#050505"/>
<path d="M62.9999 46.6432C70.3999 42.2432 72.0998 33.5432 72.8998 33.0432C74.2998 32.2432 76.6997 34.4432 79.0997 38.6432C81.5997 42.8432 82.7998 45.6432 80.8998 46.8432C79.8998 47.3432 71.6999 44.4432 64.2999 48.8432C58.2999 52.3432 58.2998 53.2432 57.6998 53.0432C57.5998 53.0432 56.7998 52.6432 56.3998 51.9432C55.9998 51.2432 55.9997 50.6432 56.0997 50.3432C56.2997 49.7432 56.9999 50.1432 62.9999 46.6432Z" fill="#FAA918"/>
<g style="mix-blend-mode:multiply" opacity="0.2">
<mask id="mask11_239_66225" style="mask-type:luminance" maskUnits="userSpaceOnUse" x="56" y="43" width="27" height="11">
<path d="M56.95 53.1532L82.3999 50.8132L81.72 43.4032L56.27 45.7432L56.95 53.1532Z" fill="white"/>
</mask>
<g mask="url(#mask11_239_66225)">
<path d="M57.7 53.0432C57.6 53.0432 57.1999 52.7433 56.8999 52.3433L57.0999 51.9432C57.5999 51.9432 57.7 51.4433 63.8 47.8433C71.2 43.5433 78.0999 44.2432 79.0999 43.6432L81.5999 43.5432C82.0999 45.1432 81.8999 46.1433 80.8999 46.8433C79.8999 47.3433 71.7 44.4433 64.3 48.8433C58.3 52.3433 58.3 53.2432 57.7 53.0432Z" fill="#180E20"/>
</g>
</g>
<path d="M72.2 32.7431C72.3 32.6431 72.8 32.4432 72.9 32.3432C74.2 31.5432 77.3 34.2432 79.7 38.3432C82.1 42.4432 82.8999 46.3431 81.5999 47.1431C81.4999 47.2431 81 47.4432 80.9 47.5432C79.2 48.5432 75.8 46.0432 73.4 41.9432C71 37.9432 70.5 33.7431 72.2 32.7431Z" fill="#FEC908"/>
<path d="M74.6999 41.2431C77.0999 45.3431 80.1998 47.9431 81.5998 47.1431C82.8998 46.3431 82.0999 42.4432 79.6999 38.3432C77.2999 34.2432 74.1998 31.5432 72.8998 32.3432C71.4998 33.1432 72.2999 37.1431 74.6999 41.2431Z" fill="#FCB613"/>
<g opacity="0.9">
<mask id="mask12_239_66225" style="mask-type:luminance" maskUnits="userSpaceOnUse" x="74" y="33" width="7" height="13">
<path d="M75.04 45.3433L80.8101 44.8132L79.8101 33.9232L74.04 34.4532L75.04 45.3433Z" fill="white"/>
</mask>
<g mask="url(#mask12_239_66225)">
<path d="M76.0999 40.4432C77.7999 43.2432 79.7001 45.2432 80.5001 44.8432C81.2001 44.3432 80.4 41.7432 78.7 38.8432C77.1 36.0432 75.1 34.0432 74.4 34.4432C73.7 34.8432 74.3999 37.5432 76.0999 40.4432Z" fill="#600B3C"/>
</g>
</g>
<g opacity="0.7">
<mask id="mask13_239_66225" style="mask-type:luminance" maskUnits="userSpaceOnUse" x="74" y="35" width="6" height="10">
<path d="M75 44.8832L79.3799 44.4832L78.52 35.1232L74.1399 35.5232L75 44.8832Z" fill="white"/>
</mask>
<g mask="url(#mask13_239_66225)">
<path d="M76.0999 40.4432C74.9999 38.4432 74.2999 36.6432 74.0999 35.5432C75.0999 36.2432 76.2999 37.7432 77.3999 39.6432C78.4999 41.5432 79.2999 43.3432 79.3999 44.4432C78.4999 43.8432 77.1999 42.3432 76.0999 40.4432Z" fill="#4E0E26"/>
</g>
</g>
<path d="M61.9 47.4432C62.3 48.0432 63.6001 48.1432 64.7001 47.4432C65.8001 46.8432 66.4001 45.7432 66.0001 45.0432C65.6001 44.3432 64.4002 44.3432 63.3002 44.9432C62.1002 45.6432 61.5 46.7432 61.9 47.4432Z" fill="#B48054"/>
<path d="M61.9 47.4432C62.3 48.0432 63.6001 48.1432 64.7001 47.4432C65.8001 46.8432 66.4001 45.7432 66.0001 45.0432C65.6001 44.3432 64.4002 44.3432 63.3002 44.9432C62.1002 45.6432 61.5 46.7432 61.9 47.4432Z" stroke="#050505" stroke-width="0.4"/>
<path d="M61.5001 49.2431C62.0001 50.0431 62.4 50.6432 63.2 50.1432C64.1 49.6432 63.6 49.0432 63.2 48.3432C62.8 47.5432 62.0999 47.2432 61.5999 47.5432C61.1999 47.8432 61.1001 48.5431 61.5001 49.2431Z" fill="#B48054"/>
<path d="M61.5001 49.2431C62.0001 50.0431 62.4 50.6432 63.2 50.1432C64.1 49.6432 63.6 49.0432 63.2 48.3432C62.8 47.5432 62.0999 47.2432 61.5999 47.5432C61.1999 47.8432 61.1001 48.5431 61.5001 49.2431Z" stroke="#050505" stroke-width="0.4" stroke-linecap="round" stroke-linejoin="round"/>
<path d="M58.0001 53.2432C57.8001 53.2432 57 52.8433 56.4 51.8433C55.9 51.1433 55.9999 50.3432 56.0999 50.0432" stroke="#050505" stroke-width="0.5"/>
<path fill-rule="evenodd" clip-rule="evenodd" d="M26.5999 46.1432C26.6665 46.0765 26.7 46.0432 26.7 46.0432C27.4 46.0432 27.8 46.4432 27.8 47.0432C27.8667 47.6432 27.9333 48.2098 28 48.7432C28 49.0098 28 49.2432 28 49.4432C28 49.5099 28.0332 49.6098 28.0999 49.7432L28.2 50.1432C28.8 52.2765 29.2333 53.6766 29.5 54.3433C30.9 58.2433 32.9999 62.0432 35.5999 65.7432C35.7999 65.9432 35.9 66.2432 35.7 66.5432C35.6 66.8432 35.4 67.0432 35 67.0432L34.3 67.1432C33.8 67.2432 33.4 66.9432 33.2 66.5432C32.9 65.9432 32.4999 65.2432 32.0999 64.7432C32.0332 64.6765 31.9666 64.5766 31.8999 64.4432C30.3999 62.0432 29.1 59.5432 28 57.0432C27 54.5432 26 51.8432 25.8 48.9432L25.7 48.6432C25.7 48.4432 25.6665 48.2765 25.5999 48.1432V47.9432C25.5999 47.7432 25.5667 47.5098 25.5 47.2432C25.5 46.7432 25.7 46.3432 26.2 46.1432C26.2666 46.1432 26.3332 46.1432 26.3999 46.1432C26.4666 46.1432 26.5 46.1432 26.5 46.1432H26.5999ZM26.5999 46.7432C26.5332 46.7432 26.5 46.7432 26.5 46.7432C26.2 46.7432 26.1 46.9432 26.2 47.2432C26.2 47.5098 26.2334 47.7765 26.3 48.0432C26.3 48.3099 26.3332 48.6099 26.3999 48.9432C26.5999 51.6432 27.5999 54.2433 28.5999 56.8433C29.6665 59.3766 30.9667 61.8099 32.5 64.1432C32.8 64.6432 33.4 65.5433 33.8 66.3433C33.9 66.5433 34.1 66.6432 34.3 66.6432L35 66.5432C35.3 66.5432 35.4 66.2432 35.2 66.0432C32.6 62.5432 30.5 58.6432 29 54.5432C28.7 53.6432 28.1 51.4432 27.7 50.2432C27.6 49.9432 27.5 49.6432 27.5 49.5432C27.4333 48.7432 27.3667 47.9432 27.3 47.1432C27.3 46.7432 27.1 46.6432 26.8 46.6432C26.8 46.6432 26.7666 46.6432 26.7 46.6432C26.6333 46.6432 26.5999 46.6765 26.5999 46.7432Z" fill="#070505"/>
<path d="M26.0999 47.2432C26.0999 46.9432 26.1999 46.7432 26.3999 46.7432C26.3999 46.7432 26.4333 46.7099 26.5 46.6432C26.5667 46.6432 26.5999 46.6432 26.5999 46.6432C26.6665 46.6432 26.7334 46.6432 26.8 46.6432C27 46.6432 27.2 46.7432 27.2 47.1432C27.2666 47.9432 27.3332 48.7432 27.3999 49.5432C27.4999 49.6432 27.5 49.9432 27.7 50.2432C28 51.4432 28.6 53.6432 29 54.5432C30.4 58.6432 32.6 62.4432 35.2 66.0432C35.3 66.2432 35.2 66.4432 35 66.5432L34.2 66.6432C34 66.6432 33.8 66.5433 33.7 66.3433C33.4 65.5433 32.7999 64.6432 32.3999 64.1432C30.9332 61.8099 29.6665 59.3766 28.5999 56.8433C27.4999 54.2433 26.6 51.6432 26.3 48.9432C26.3 48.6099 26.2666 48.3099 26.2 48.0432C26.2 47.7765 26.1665 47.5098 26.0999 47.2432Z" fill="#E0CC2E"/>
<path d="M23.5001 10.7432C23.8001 10.8432 24 10.9432 24.2 11.1432C24.8 11.5432 25.3 11.5432 25.7 10.8432C24.8 10.9432 24.1999 10.7432 23.5999 10.1432C22.7999 9.34317 22 8.74322 21.2 7.94322C20.3 7.04322 19.3001 6.14322 18.5001 4.94322C17.8001 3.84322 18.0001 2.74325 19.0001 1.84325C19.6001 1.44325 20.2 1.54322 21.2 2.44322C21.4 2.57656 21.5667 2.74322 21.7 2.94322C23.4 4.84322 24.6 7.14322 25.7 9.44322C25.9 9.94322 25.8 10.3432 25.7 10.8432C26.5 10.6432 26.6999 10.2432 26.5999 9.34325C26.4999 8.54325 26.3 7.74322 25.9 6.94322C25.2333 5.60989 24.5334 4.27656 23.8001 2.94322C23.7334 2.74322 23.6334 2.54325 23.5001 2.34325C21.9001 -0.0567513 19.2001 0.0432 17.8001 2.5432C17.4001 3.3432 17.5 4.14322 17.9 4.94322C18.3 5.74322 18.9999 6.34322 19.5999 6.94322C20.4666 7.80989 21.3333 8.64322 22.2 9.44322C22.5 9.74322 22.9001 9.94322 22.8001 10.4432C22.8668 10.5099 22.9334 10.5765 23.0001 10.6432C23.1001 10.3432 23.1001 10.3432 23.5001 10.6432V10.7432Z" fill="#A19535"/>
<path d="M27.2 46.8433C27.1333 46.8433 27.0999 46.8433 27.0999 46.8433L29.2 45.3433C28.8 46.1433 28.1 46.7433 27.2 46.8433Z" fill="#070505"/>
<path d="M6.69995 31.4432C6.76662 31.3766 6.80005 31.3098 6.80005 31.2432C6.73338 31.3098 6.69995 31.3766 6.69995 31.4432Z" fill="#262E59"/>
<path fill-rule="evenodd" clip-rule="evenodd" d="M30.1 13.6432C30.3 14.8432 29.6 16.0432 28.4 16.1432C26.9 16.3432 25.4001 15.0433 25.2001 13.4433C25 12.2433 25.7001 11.1433 26.8001 10.9433C28.2001 10.7433 29.8 12.0432 30.1 13.6432ZM35.5001 13.2432C34.7001 13.4432 32.5 14.3432 32.2001 14.5432C31.7334 14.8099 31.2334 15.0766 30.7001 15.3433C30.6 15.4433 30.5001 15.6433 30.3001 15.4433C30.2001 15.3433 30.4001 15.1432 30.5001 15.0432C30.8001 13.5432 30.3001 12.3432 29.3001 11.2432C29.7001 10.9432 30.1001 10.8432 30.5001 10.7432C33.1001 9.74318 34.7001 10.2432 35.8001 12.5432C36.1001 13.0432 36.0001 13.1432 35.5001 13.2432ZM39.2001 23.3433C39.0667 23.4766 38.9335 23.6098 38.8001 23.7432C38.0001 24.4432 37.9001 24.4433 37.5001 23.4433C37.3001 23.1433 37.2001 22.6432 36.8001 22.6432C36.3001 22.7432 36.2 22.3432 35.9 22.0432C35.6 21.6432 35.3 20.8432 34.9 21.0432C34 21.4432 33.8 20.7433 33.4 20.3433C33 19.9433 32.7 19.8432 32.6 20.5432C32.5 20.7432 32.5001 20.8433 32.3001 20.9433C31.7001 20.5433 31.3 19.9432 30.6 19.7432C30 19.5432 29.9001 19.7432 30.0001 20.2432C30.1001 20.7432 30.3001 21.3433 30.5001 21.9433C30.6001 22.2433 30.6 22.4432 30.2001 22.5432C29.2001 22.6432 29.2001 22.7432 29.7001 23.5432C29.9001 23.8432 30.1001 24.0432 30.3001 24.2432C30.4001 24.5432 30.5 24.7432 30.1 24.7432C28.8 24.8432 29.6 25.5433 29.9 25.8433C30.3 26.4433 31 26.9433 30.6 27.8433C30.6666 27.9099 30.7335 27.9766 30.8001 28.0432C30.8668 28.1099 30.9 28.1765 30.9 28.2432C31.3 28.3432 31.6 28.4433 31.7001 28.8433C31.7001 29.1433 31.2 29.1433 30.9 29.3433C30.8 29.4433 30.6 29.4432 30.4 29.5432C30.3 29.5432 28.6001 30.1432 28.0001 30.2432C26.0001 30.7432 23.9001 30.8432 21.8001 30.5432C20.9001 30.3432 18.3 29.8432 17.9 29.7432C15.7 29.0432 15.7001 29.0433 17.3001 27.3433C17.7001 26.9433 18.1001 26.5099 18.5001 26.0432C21.7001 22.7432 25 19.6432 28.9 17.1432C30.5 16.1432 34.2001 14.3432 34.5001 14.2432C35.8001 13.6432 36 13.7433 36.6 14.8433C37.6 16.5433 38.5 18.3432 39.6 20.0432C40.5 21.3432 40.3 22.3433 39.2001 23.3433ZM41.7001 23.0432C39.3 26.0432 36.5001 28.6433 33.0001 30.4433C27.3001 33.2433 21.7 33.6432 16.1 30.2432C15.8 30.1432 15.5 30.0432 15.6 29.7432C15.6 29.4432 15.8001 29.6432 16.0001 29.6432C17.5001 30.3432 19.1001 30.5433 20.8001 30.9433C25.6001 31.8433 30.1 30.8432 34.2001 28.0432C34.2001 27.7432 34.0001 27.7432 33.8001 27.7432C33.7335 27.7432 33.7001 27.7432 33.7001 27.7432C33.5 28.0098 33.2333 28.1432 32.9 28.1432C32.9 28.2099 32.8668 28.2432 32.8001 28.2432C32.6001 28.3765 32.4001 28.3765 32.2001 28.2432C32 28.1432 31.6 28.1432 31.4 27.7432C31.6 27.6765 31.7335 27.6432 31.8001 27.6432C32.1001 27.5432 32.5001 27.6433 32.5001 27.3433C32.6001 26.9433 32.1 27.0433 31.9 26.9433C31.3 26.6433 30.6 26.2433 30.2001 25.4433C30.6 25.4433 30.9001 25.5432 31.2001 25.5432C31.4001 25.5432 31.8001 25.7433 32.0001 25.4433C32.1001 25.1433 31.7001 25.0433 31.5001 24.8433C31.0001 24.3433 30.4001 23.9432 30.2001 23.1432C31 23.2432 31.6 23.4433 32.1 23.8433C32.3 23.9433 32.4 24.1433 32.6 23.9433C32.7 23.7433 32.6001 23.6432 32.5001 23.5432C32.3001 23.3432 32.1334 23.1766 32.0001 23.0432C31.4001 22.2432 30.7 21.6432 30.6 20.5432C30.9 20.4432 31.1001 20.6432 31.3001 20.7432C32.1001 21.3432 32.5 22.2432 33.1 23.0432C33.2 23.1432 33.3001 23.4433 33.5001 23.3433C33.8001 23.1433 33.5001 22.9432 33.5001 22.7432C33.3001 22.2432 33 21.7432 33.2001 21.1432C33.7001 21.4432 33.9001 21.9433 34.2001 22.3433C34.4001 22.6433 34.5 23.2432 34.9 23.1432C35.3 23.0432 35 22.5432 35.1 22.1432C35.1 22.1432 35.1 22.1432 35.2001 22.0432C35.9001 22.6432 36.0001 23.5433 36.3001 24.3433C36.7001 24.3433 36.6 23.7433 36.9 23.8433C37.1 24.6433 37.1001 24.6433 36.8001 25.3433C36.7335 25.4099 36.7001 25.4766 36.7001 25.5432H36.6C36.6666 25.7432 36.8001 25.8766 37.0001 25.9433C37.8668 25.1433 38.7667 24.3765 39.7001 23.6432C40.1001 23.1765 40.4668 22.7098 40.8001 22.2432C41.1001 21.9432 41.4001 21.7432 41.7001 22.1432C42.1001 22.4432 41.9001 22.7432 41.7001 23.0432ZM15.0001 30.7432C15.4001 30.1432 15.7 30.6433 15.9 30.8433C18.6 32.4433 21.2 33.9432 24.1 35.1432C26 35.7432 27.9 36.3433 29.9 36.3433C32.7 36.3433 35 34.8433 37.2001 33.4433C36.9001 33.0433 36.4 33.5432 36.1 33.1432C34.6 31.4432 34.7001 30.1433 36.5001 28.8433C36.8001 28.6433 37.1 28.3432 37.4 28.1432C38 27.5432 38.6001 27.5432 39.3001 27.7432C40.1001 27.9432 40.7 28.4099 41.1 29.1432C41.3 29.3432 41.4 29.5433 41.1 29.8433C41.0333 29.9766 40.9335 30.0432 40.8001 30.0432C40.7335 30.1099 40.6666 30.1765 40.6 30.2432C40.5333 30.3099 40.4667 30.3766 40.4 30.4433C40.4 30.5766 40.3 30.6432 40.1 30.6432C40.1666 30.8432 40.2001 31.0432 40.2001 31.2432C40.4001 31.1098 40.5667 30.9766 40.7001 30.8433C40.7667 30.7766 40.8333 30.7099 40.9 30.6432C41.5667 30.0432 42.2001 29.4433 42.8001 28.8433C43.2001 28.4433 43.5001 27.9432 44.0001 27.7432C44.1001 27.3432 44.3001 26.9432 44.8001 27.1432C45.4001 27.4432 45.3001 27.8433 45.0001 28.3433C42.8001 31.0433 40.2001 33.2432 37.2001 35.0432C35.3001 36.1432 33.4 37.2432 31.1 37.5432C28.6 37.8432 26.2 37.1432 23.9 36.2432C20.9 35.1432 18.1001 33.5433 15.3001 31.8433C14.8001 31.5433 14.8001 31.2432 15.0001 30.7432ZM42.5001 28.4433C42.4334 28.4433 42.3668 28.4766 42.3001 28.5432C41.9001 29.1432 41.5001 29.2433 41.3001 28.3433C41.3001 28.3433 41.2667 28.3099 41.2001 28.2432C41.2001 28.1765 41.1666 28.1099 41.1 28.0432C41.0333 27.9766 40.9667 27.9433 40.9 27.9433C40.8333 27.8766 40.7667 27.8099 40.7001 27.7432C40.2001 27.4432 39.4001 27.3433 39.3001 26.9433C39.1001 26.3433 40.0001 26.1432 40.3001 25.5432C40.3001 25.5432 40.4 25.5433 40.4 25.4433C41.6 23.9433 41.8 23.9432 42.7001 25.5432C42.7667 25.5432 42.8001 25.5432 42.8001 25.5432C43.7001 27.1432 43.7001 27.1433 42.5001 28.4433ZM35.5001 33.2432C35.7001 33.5432 35.7001 33.7433 35.3001 33.9433C33.0001 35.3433 30.7001 36.2432 28.0001 35.6432C27.2001 35.4432 26.3668 35.2099 25.5001 34.9433C25.1668 35.0099 24.8666 34.9099 24.6 34.6432C24 34.3765 23.4001 34.1099 22.8001 33.8433C22.5001 33.7433 22.1 33.6432 22.1 33.2432C22.2 32.8432 22.7001 33.0432 23.0001 33.0432C25.5001 33.2432 28 33.1432 30.4 32.1432C31.7 31.7432 32.8001 31.1432 34.0001 30.5432C34.2001 30.4432 34.7 30.1432 34.6 30.7432C34.6 31.7432 34.9001 32.4432 35.5001 33.2432ZM8.09995 32.7432C9.79995 29.6432 11.6 26.5433 13.9 23.8433C15.1 22.0433 16.6 20.3433 18.1 18.8433C19.9 17.0433 21.8668 15.4432 24.0001 14.0432C24.2001 13.8432 24.6001 13.4432 24.8001 14.0432C25.4001 15.6432 26.5 16.5432 28.4 16.7432C27.7 17.2432 27.1 17.6433 26.6 17.9433C26.5333 18.0099 26.4667 18.0765 26.4 18.1432C26.2667 18.2099 26.1 18.3099 25.9 18.4433C25.8333 18.5099 25.7667 18.5432 25.7001 18.5432C24.2001 19.8432 22.8 21.0433 21.4 22.3433C19.8 23.9433 18.2334 25.5099 16.7 27.0432C16 27.9432 15.5001 28.9433 14.0001 28.3433C13.4001 28.0433 12.7001 28.5432 12.3001 29.0432C12.0001 29.4432 12.1 30.0433 12.4 30.4433C12.6 30.6433 12.5001 30.8432 12.5001 31.1432C12.6001 32.3432 11.7 32.9432 11.1 33.6432C9.79995 35.2432 9.80015 35.1433 8.30015 33.8433C7.90015 33.4433 7.79995 33.1432 8.09995 32.7432ZM7.20005 31.6432C7.26672 31.4432 7.33333 31.2765 7.4 31.1432C8.6 28.9432 9.90015 26.8433 11.3001 24.8433C11.8001 24.1433 14.4001 20.9433 14.5001 20.8433C15.0001 20.3433 18 16.9433 19.2 15.9433C19.6 15.6433 21.2001 14.3433 22.0001 13.8433C22.7334 13.2433 23.4667 12.7098 24.2001 12.2432C24.2667 12.1765 24.3333 12.1432 24.4 12.1432C24.6 12.0432 24.7001 12.1433 24.7001 12.3433C24.7001 12.4099 24.7001 12.4766 24.7001 12.5432C24.5 12.9432 24.3 13.2433 23.9 13.4433C21.7 14.8433 19.7001 16.6433 17.8001 18.4433C16.2001 19.9433 14.9 21.6432 13.4 23.2432C11.9 25.2432 10.7001 27.3433 9.30015 29.3433C8.70015 30.1433 8.40015 31.1433 7.80015 31.9433C7.70015 32.1433 7.60015 32.4432 7.30015 32.2432C7.10015 32.1432 7.00005 31.8432 7.20005 31.6432ZM13.1 31.3433C13 31.0433 14.3 29.2432 14.7 29.1432C14.8 29.1432 14.9 29.3432 14.9 29.5432C14.6333 30.2099 14.3666 30.8766 14.1 31.5432C14 31.7432 13.8 31.8432 13.6 31.7432C13.4 31.6432 13.2 31.5433 13.1 31.3433ZM12.7 29.7432C12.7 29.3432 12.8667 29.1099 13.2 29.0432C13.4 29.0432 13.6001 29.1433 13.5001 29.3433C13.5001 29.6433 13.3001 30.0432 13.0001 30.0432C12.8001 30.1432 12.7 29.8432 12.7 29.7432Z" fill="#070505"/>
<path fill-rule="evenodd" clip-rule="evenodd" d="M6.20004 31.9432C6.20004 31.8432 6.80014 30.8433 6.80014 30.8433C6.80014 30.7433 7.70004 29.1432 7.70004 29.0432C8.80004 27.1432 9.90004 25.3432 11.2 23.6432C11.8 22.8432 14.2999 19.9432 15.5999 18.6432C15.5999 18.6432 17.6001 16.4433 17.8001 16.3433C19.6001 14.5433 21.7 13.0432 23.9 11.6432C23.9667 11.6432 23.9667 11.6099 23.9 11.5432C23.9 11.4432 23.7 11.2432 23.7 11.2432C23.5 11.1432 21.8001 9.64326 21.5001 9.34326C20.5001 8.34326 19.4 7.34317 18.4 6.24317C16.8 4.64317 16.8 2.94326 18.2 1.34326C20 -0.556736 22.3001 -0.456834 23.8001 1.74317C24.8001 3.34317 25.7001 5.04326 26.5001 6.84326C26.6001 7.04326 26.9999 8.14322 27.0999 8.54321C27.1666 9.00988 27.2 9.37652 27.2 9.64319C27.2 9.70986 27.1666 9.84321 27.0999 10.0432C27.1999 10.0432 27.3001 9.84317 27.5001 9.74317C27.7001 9.6765 27.8999 9.60988 28.0999 9.54321C28.4999 9.34321 29.9999 8.94326 31.0999 8.84326C31.5999 8.74326 32.2 8.74326 32.7 8.84326C32.8 8.84326 33.1 8.84326 33.2 8.84326C33.6 9.04326 33.8001 9.14319 33.8001 9.14319C33.8668 9.20986 33.9334 9.2766 34.0001 9.34326C35.3001 10.2433 36.5001 12.5432 36.5001 12.5432C37.0001 13.3432 36.3 13.0432 36.7 13.7432C37 14.2432 37.1001 14.4433 37.3001 14.8433C37.4335 14.9766 37.5333 15.1098 37.5999 15.2432C37.6999 15.3432 39.3001 18.3432 39.8001 19.1432C40.0001 19.5432 40.6001 20.6432 40.8001 20.9432C40.9001 21.0432 40.9999 21.3432 41.0999 21.4432C41.1999 21.4432 41.2999 21.3432 41.5999 21.4432C41.8666 21.5766 42.0667 21.7099 42.2 21.8433C42.5 22.1433 42.6 22.4432 42.4 22.9432C42.3 23.1432 41.8999 23.4432 42.0999 23.6432C42.0999 23.7432 43.2999 25.4432 43.5999 25.9432C43.7999 26.2432 43.9 26.6432 44.4 26.5432C45.3 26.5432 45.7 26.9432 45.9 27.7432C45.8 27.9432 45.7001 28.0433 45.8001 28.3433C46.9001 28.3433 47.9 28.2432 48.9 28.4432C49.9 28.6432 50 28.8432 49.4 29.6432C48.9333 30.2432 48.4333 30.7765 47.9 31.2432C43 35.5432 37.6999 38.9432 31.5999 41.1432C30.9999 41.3432 29.5 41.8433 29.4 41.8433C29.2 41.8433 28.9001 41.9432 29.0001 42.1432C29.2001 42.5432 29.5001 42.3432 29.8001 42.1432C29.9001 42.1432 31.2999 41.7432 31.5999 41.6432C32.9999 41.1765 34.3667 40.6432 35.7 40.0432C34.9 40.4432 33.9001 40.8433 33.0001 41.3433C31.9001 41.8433 32 42.0433 31.2 42.3433C31.1 42.4433 30.0001 42.7433 29.8001 42.8433C29.4001 42.9433 29 43.0432 28.9 42.9432C28.4 42.2432 27.6 41.8432 26.7 41.9432C25.3 42.0432 24.3001 43.2432 24.5001 44.6432C24.6001 45.9432 25.7999 46.9433 27.0999 46.8433L25.8001 47.0432C25.8001 47.0432 25.5001 46.8432 25.0001 46.7432C24.0001 47.1432 23.4001 46.4432 22.8001 46.0432C22.7335 45.9766 22.6666 45.9099 22.5999 45.8433C22.5333 45.7766 22.4667 45.7099 22.4 45.6432C22.3333 45.5765 22.2667 45.5432 22.2 45.5432C22.1334 45.4766 22.0668 45.4099 22.0001 45.3433C21.9334 45.2766 21.9 45.2432 21.9 45.2432C21.9 44.7432 22.2999 44.8432 22.5999 44.7432C23.2999 44.3432 24 44.0432 24.2 42.9432C24.2 42.2432 25.6999 41.3433 26.5999 41.3433C27.0666 41.3433 27.4668 41.2432 27.8001 41.0432C28.0001 40.9766 28.1668 40.9099 28.3001 40.8433C28.4335 40.7099 28.5667 40.6099 28.7 40.5432C28.7 40.5432 30.7001 38.9433 30.8001 38.8433C31.1001 38.7433 31.6 38.6432 31.4 38.2432C31.3 37.8432 30.8999 38.1432 30.5999 38.2432C29.2999 38.4432 28.1 38.0432 27.7 37.9432C27.5667 37.9432 27.4335 37.9432 27.3001 37.9432C26.9668 37.8766 26.6667 37.8098 26.4 37.7432C24.2 37.1432 22.1001 36.3433 20.0001 35.3433C18.3001 34.4433 16.7001 33.4432 15.0001 32.4432C14.6001 32.2432 13 32.3432 12.7 32.7432C12 33.4432 11.2 34.2432 10.7 35.1432C10.5 35.6432 10.1001 35.7432 9.80014 35.6432C9.70014 35.6432 9.20004 35.2432 9.20004 35.2432C8.60004 34.7432 8.30004 34.5432 7.70004 34.1432C7.70004 34.0432 7.50009 33.9432 7.50009 33.9432C6.90009 33.3432 7.39995 33.2433 7.09995 32.8433C6.96661 32.7099 6.83338 32.5766 6.70004 32.4432C6.30004 32.1432 6.10004 32.1432 6.20004 31.9432ZM38.3001 38.7432C37.4335 39.2098 36.5667 39.6432 35.7 40.0432C37.2 39.2432 38.3001 38.7432 38.3001 38.7432ZM27.5999 10.4432C27.7999 10.5432 28.2001 10.7433 28.5001 10.8433C28.6334 10.8433 28.7667 10.8098 28.9 10.7432C30.3 10.2432 31.8001 9.64326 33.8001 9.84326C33.4001 9.14326 32.5001 9.14319 32.0001 9.14319C31.6001 9.14319 30.7001 9.24326 30.0001 9.34326C29.4001 9.54326 28.0001 9.94324 28.0001 9.94324C27.6001 10.0432 27.1999 10.2432 27.5999 10.4432Z" fill="#070505"/>
<path fill-rule="evenodd" clip-rule="evenodd" d="M26.5999 41.4432C27.3999 41.3432 28.2001 41.5432 28.8001 42.0432C29.4001 42.5432 29.7999 43.2432 29.8999 44.1432C29.9999 45.7432 28.8 47.1432 27.2 47.3432C26.4 47.4432 25.7 47.2431 25 46.7431C24.4 46.1431 23.9999 45.4432 23.8999 44.6432C23.6999 43.0432 24.8999 41.5432 26.5999 41.4432ZM24.5 44.6432C24.6 45.9432 25.8 46.9432 27.2 46.8432C28.5 46.6432 29.5001 45.4432 29.3001 44.1432C29.2001 42.7432 28 41.8432 26.7 41.9432C25.3 42.0432 24.3 43.2432 24.5 44.6432ZM25.3001 44.5432C25.2001 43.7432 25.8 42.9432 26.7 42.8432C27.6 42.7432 28.4 43.3432 28.5 44.1432C28.6 45.0432 27.9999 45.8432 27.0999 45.9432C26.1999 46.0432 25.4001 45.4432 25.3001 44.5432ZM27 45.3432C27.3334 45.3432 27.5667 45.2099 27.7 44.9432C27.9 44.7432 27.9666 44.5098 27.8999 44.2431C27.8999 43.6431 27.3001 43.2432 26.8001 43.3432C26.8001 43.3432 26.7667 43.3432 26.7 43.3432C26.2 43.4432 25.7999 43.9432 25.8999 44.4432C25.8999 45.0432 26.4 45.4432 27 45.3432Z" fill="#070505"/>
<path fill-rule="evenodd" clip-rule="evenodd" d="M45.9 27.1432C46.7 27.0432 48.7999 27.1432 49.0999 27.2432C49.8999 27.3765 50.4333 27.6433 50.7 28.0433C51.1 28.6433 51.1001 29.1433 50.8001 29.8433C50.7001 29.9433 50.4999 30.4432 50.0999 30.7432C49.7999 30.9432 49.4 31.3432 48.9 31.7432C47.6 32.9432 45.8 34.5432 45.7 34.6432C45.5 34.7432 44.9 35.2432 44.2 35.6432C43.8 35.9432 43.3 36.3433 43.2 36.3433C42.7 36.7433 40.9 37.8433 40.7 38.0433L38.5999 39.2432C36.5999 40.3099 34.5333 41.2099 32.4 41.9433C32.4 41.9433 29.7001 42.9433 29.3001 42.9433H29.2C28.9 42.9433 28.6 42.7433 28.5 42.3433C28.4 42.0433 28.4 41.8432 28.5 41.7432C28.7 41.4432 28.9999 41.3433 29.0999 41.3433C29.1999 41.2433 30.3 40.9433 30.7 40.8433C36.7 38.8433 42.2 35.5432 47.5 30.7432C48.1 30.2765 48.5666 29.81 48.9 29.3433C49.0333 29.21 49.0999 29.1099 49.0999 29.0433C49.0332 29.0433 48.9334 29.0099 48.8001 28.9433C48.0001 28.8433 47.1 28.8433 46.2 28.9433H45.9H45.5L45.3001 28.6432C45.1001 28.1432 45.2001 27.7433 45.3001 27.5433C45.3001 27.5433 45.3333 27.5099 45.4 27.4433L45.5 27.1432H45.9ZM45.9 28.3433C46.9 28.3433 47.9 28.2433 48.9 28.4433C49.9 28.6433 50.1 28.8432 49.4 29.6432C48.9333 30.2432 48.4333 30.7765 47.9 31.2432C42.9 35.7432 37.3 39.2433 30.9 41.3433C30.5 41.4433 29.4 41.8433 29.2 41.8433C29.1 41.9433 28.9999 41.9432 29.0999 42.1432C29.0999 42.2766 29.1668 42.3433 29.3001 42.3433C29.5001 42.3433 31.7 41.5433 32.2 41.4433C34.3333 40.6433 36.3668 39.7432 38.3001 38.7432L40.5 37.5433C40.5 37.5433 42.4 36.3433 42.9 35.9433C43 35.8433 45.1 34.3432 45.4 34.1432C45.5 34.0432 49 31.0433 49.7 30.3433C50 30.0433 50.3001 29.6432 50.3001 29.6432C50.6001 29.0432 50.5001 28.7433 50.3001 28.3433C50.1001 28.0433 49.5 27.8433 49 27.8433C48.8 27.7433 46.7 27.6432 45.9 27.7432C45.8 27.9432 45.7 28.0433 45.9 28.3433Z" fill="#070505"/>
<path d="M8.0999 32.7432C9.7999 29.6432 11.6 26.5433 13.9 23.8433C14.6333 22.7099 15.4666 21.6432 16.4 20.6432C17 20.0432 20.0999 16.9432 21.0999 16.1432C22.0332 15.4099 23 14.7099 24 14.0432C24.2001 13.8432 24.6001 13.4432 24.8001 14.0432C25.4001 15.6432 26.5 16.5432 28.4 16.7432C27.7 17.2432 25.2999 18.9432 25.0999 19.1432C23.7999 20.1432 22.6 21.2433 21.4 22.3433C19.8 23.9433 18.2333 25.5099 16.7 27.0432C15.7 28.0432 15.5 28.9433 14 28.3433C13.4 28.0433 12.7001 28.5432 12.3001 29.0432C12.0001 29.4432 12.1 30.0432 12.4 30.4432C12.6 30.6432 12.5 30.8432 12.5 31.1432C12.6 32.3432 11.6999 32.9432 11.0999 33.6432C9.7999 35.2432 9.8001 35.1433 8.3001 33.8433C7.9001 33.4433 7.7999 33.1432 8.0999 32.7432Z" fill="#E0CC2E"/>
<path d="M37.0999 25.0433C37.0999 24.9433 37.2 23.8433 36.9 23.8433C36.5 23.7433 36.6001 24.0433 36.3001 24.0433C35.8001 23.9433 35.9001 23.4433 35.8001 22.9433C35.7001 22.5433 35.6999 22.3432 35.5999 22.2432C35.5332 22.1099 35.4 22.0433 35.2 22.0433C35.1 22.0433 35.0999 22.1432 35.0999 22.1432C34.9999 22.4432 35.1001 22.8433 34.8001 22.9433C34.8001 23.01 34.7667 23.0433 34.7 23.0433C34.6333 23.0433 34.5667 23.0433 34.5 23.0433C34.1 22.9433 33.4999 20.6432 33.0999 20.7432C32.7999 21.0432 33.3 22.2432 33.5 22.7432C33.5 22.9432 33.8 23.1433 33.5 23.3433C33.3 23.4433 33.1999 23.1433 33.0999 23.0433C32.4999 22.2433 32.0001 21.2432 31.3001 20.6432C31.1001 20.5432 30.7 20.1433 30.5 20.3433C30.3 20.5433 30.6 21.0432 30.7 21.1432C31 21.9432 31.5 22.4433 32 23.0433C32.1334 23.1766 32.3 23.3433 32.5 23.5433C32.6 23.6433 32.6999 23.7433 32.5999 23.9433C32.3999 24.1433 32.2999 23.9433 32.0999 23.8433C31.6999 23.5433 31.1 23.1433 30.5 23.0433C30.4 22.9433 30 22.8433 30 22.9433C29.9 23.0433 29.9 23.1432 30 23.2432C30.2 23.4432 30.6001 23.8432 30.8001 24.1432C31.0001 24.3432 31.3 24.6433 31.5 24.8433C31.7 25.0433 32.1 25.1433 32 25.4433C31.8 25.7433 31.5 25.6433 31.2 25.5433C30.8 25.3433 30.7 25.3432 30.4 25.2432C30.3 25.2432 30.1999 25.1432 30.0999 25.2432C30.0332 25.3766 30.0332 25.4766 30.0999 25.5433C30.1999 25.6433 30.6001 26.1432 30.8001 26.2432C31.1001 26.5432 31.4 26.7433 31.9 26.9433C32.2 27.1433 32.6 26.9433 32.5 27.3433C32.5 27.4433 32.4 27.5433 32.2 27.5433C32.1 27.5433 31.9001 27.5433 31.8001 27.5433C31.7001 27.6433 31.5 27.5432 31.4 27.7432C31.4 28.0432 31.6001 28.0432 31.8001 28.1432C32.2001 28.4432 32.5001 28.3432 32.8001 28.2432C32.8668 28.2432 32.9 28.2099 32.9 28.1432C33.3 28.0432 33.7001 27.7432 33.8001 27.7432C34.2001 27.4432 35.6 26.3433 35.7 26.3433L36.7 25.5433C36.7 25.5433 37.0999 25.2433 37.0999 25.0433Z" fill="#FCBC60"/>
<path d="M25.2001 13.4432C25.4001 15.0432 26.9 16.3432 28.4 16.1432C29.6 16.0432 30.3 14.8432 30.1 13.6432C29.8 12.0432 28.2002 10.7432 26.8002 10.9432C25.7002 11.1432 25.0001 12.2432 25.2001 13.4432Z" fill="#9DCDED"/>
<path d="M25.8999 13.4433C26.0999 14.6433 27.0999 15.5433 28.1999 15.3433C28.9999 15.2433 29.5 14.4432 29.3 13.5432C29.1 12.4432 28.0998 11.5432 27.0998 11.7432C26.2998 11.8432 25.7999 12.6433 25.8999 13.4433Z" fill="#FEFEFE"/>
<path d="M26.7 13.5433C26.8 14.1433 27.3999 14.5433 27.8999 14.4433C28.2999 14.4433 28.6 14.0433 28.5 13.5433C28.4 13.0433 27.8 12.5432 27.3 12.6432C26.9 12.6432 26.7 13.0433 26.7 13.5433Z" fill="#9DCDED"/>
<path fill-rule="evenodd" clip-rule="evenodd" d="M26.7 41.9432C28 41.8432 29.2001 42.7432 29.3001 44.1432C29.5001 45.4432 28.5 46.6433 27.2 46.8433C25.9 46.9433 24.6001 45.9432 24.5001 44.6432C24.3001 43.2432 25.3 42.0432 26.7 41.9432ZM28.5001 44.1432C28.4001 43.2432 27.5 42.6433 26.7 42.8433C25.8 42.9433 25.2001 43.7432 25.3001 44.5432C25.4001 45.4432 26.1999 46.0432 27.0999 45.9432C27.9999 45.8432 28.6001 45.0432 28.5001 44.1432Z" fill="#A19535"/>
<path d="M14.3001 20.7432C14.9001 20.1432 15.4001 19.5432 15.8001 19.0432C17.0001 17.8432 18.3999 16.3433 19.5999 15.3433C19.9999 14.9433 21.2999 13.9432 21.5999 13.7432C22.5999 12.9432 23.7 12.2432 24.2 12.0432C24.4 11.9432 24.6 12.0433 24.7 12.3433C24.7 12.3433 24.5999 12.6432 24.5999 12.7432C24.4666 13.0098 24.2333 13.2433 23.9 13.4433C22.6 14.3433 21.4 15.2432 20.2 16.2432C19.4 16.9432 16.5 19.7433 15.9 20.4433C15 21.3433 12.4 24.6433 11.9 25.3433C11 26.6433 10.2001 28.0433 9.3001 29.3433C8.7001 30.1433 8.4001 31.1433 7.8001 31.9433C7.7001 32.1433 7.6001 32.4432 7.3001 32.2432C7.1001 32.1432 6.69995 32.0432 6.89995 31.7432C6.96662 31.6098 7.03324 31.4432 7.0999 31.2432C7.9999 29.5432 9.1 27.6433 10.2 25.9433C10.3 25.7433 11.1001 24.5433 12.0001 23.4433C12.4001 22.8433 13.4001 21.7432 14.3001 20.7432Z" fill="#264485"/>
<path d="M14.7 29.1432C14.3 29.2432 12.9999 31.0433 13.0999 31.3433C13.1999 31.5433 13.3999 31.6432 13.5999 31.7432C13.7999 31.8432 13.9999 31.7432 14.0999 31.5432C14.3666 30.8765 14.6333 30.2099 14.9 29.5432C14.9 29.3432 14.8 29.1432 14.7 29.1432Z" fill="#A19535"/>
<path d="M13.3999 28.8433C13.0999 28.9433 12.7 29.3432 12.7 29.7432C12.7 29.8432 12.8 30.1432 13 30.0432C13.3 30.0432 13.7 29.4432 13.8 29.1432C13.8 28.9432 13.5999 28.8433 13.3999 28.8433Z" fill="#A19535"/>
<path d="M14.9999 30.7431C15.3999 30.1431 15.6998 30.6432 15.8998 30.8432C18.5998 32.4432 21.1998 33.9431 24.0998 35.1431C25.9998 35.7431 27.8998 36.3432 29.8998 36.3432C32.0998 36.3432 34 35.4432 35.8 34.3432C36.3 34.0432 37.3999 33.3431 37.4999 33.2431C38.2999 32.7431 40.4999 30.9432 40.6999 30.8432C40.7666 30.7765 40.8332 30.7098 40.8998 30.6431C41.5665 30.0431 42.2 29.4432 42.8 28.8432C43 28.6432 43.8999 27.8431 43.9999 27.7431C44.0999 27.4431 44.1998 27.2431 44.3998 27.1431C44.4665 27.0765 44.6 27.0765 44.8 27.1431C44.8667 27.1431 44.9333 27.1764 44.9999 27.2431C45.3999 27.5431 45.2999 27.9432 44.9999 28.3432C42.7999 31.0432 40.1999 33.2432 37.1999 35.0432C35.2999 36.1432 33.3998 37.2432 31.0998 37.5432C28.5998 37.8432 26.1998 37.1431 23.8998 36.2431C20.8998 35.1431 18.1 33.5432 15.3 31.8432C14.8 31.5432 14.7999 31.2431 14.9999 30.7431Z" fill="#E0CC2E"/>
<path d="M15.2999 31.1432C17.9999 32.8432 20.7999 34.3432 23.7999 35.5432C26.0999 36.4432 28.4999 37.1433 30.9999 36.8433C33.2999 36.5433 35.1998 35.4432 37.1998 34.2432C40.0998 32.5432 42.6998 30.2432 44.8998 27.5432C44.9665 27.4765 45.0331 27.4099 45.0997 27.3433C45.3997 27.6433 45.2999 27.9433 44.9999 28.3433C42.7999 31.0433 40.1998 33.2432 37.1998 35.0432C35.2998 36.1432 33.3997 37.2432 31.0997 37.5432C28.5997 37.8432 26.1998 37.1432 23.8998 36.2432C20.8998 35.1432 18.0999 33.5433 15.2999 31.8433C14.8999 31.5433 14.7999 31.2433 14.9999 30.8433C15.0666 30.9766 15.1666 31.0765 15.2999 31.1432Z" fill="#A19535"/>
<path d="M41.2999 24.4432C41.5999 24.2432 41.7998 24.2432 42.0998 24.5432C42.2331 24.7432 42.4332 25.0765 42.6998 25.5432C42.7998 25.5432 43.2998 26.3432 43.3998 26.5432C43.4998 26.8432 43.4998 27.1433 43.3998 27.3433C43.1998 27.6433 42.0998 28.7433 42.0998 28.8433C41.7998 29.0433 41.5999 29.0433 41.4999 28.8433C41.3999 28.7433 40.6998 27.7432 40.1998 27.4432C39.5998 27.2432 39.3999 27.3432 39.2999 26.9432C39.1999 26.6432 39.3998 26.3432 39.6998 26.1432C39.8998 26.0432 41.0999 24.6432 41.2999 24.4432Z" fill="#264485"/>
<path d="M19.2 32.2432C19.3 32.1432 19.7999 32.3432 20.0999 32.4432C20.4999 32.6432 20.9 32.7433 21.3 32.8433C21.6 32.9433 23.0999 33.0432 23.5999 33.1432C26.2999 33.3432 28.3999 32.9432 30.3999 32.1432C31.6999 31.7432 32.8 31.1432 34 30.5432C34.2 30.4432 34.6999 30.1432 34.5999 30.7432C34.5999 31.7432 34.9 32.4432 35.5 33.2432C35.7 33.5432 35.7 33.7432 35.3 33.9432C33 35.3432 30.7 36.2432 28 35.6432C27.4 35.5099 26.8334 35.3432 26.3 35.1432C23.5 34.5432 20.6 33.0433 20.2 32.8433C19.7 32.6433 19.2 32.4432 19.2 32.2432Z" fill="#264485"/>
<path d="M15.5999 29.7432C15.5999 29.4432 15.8001 29.6432 16.0001 29.6432C17.5001 30.3432 19.1001 30.5433 20.8001 30.9433C25.6001 31.8433 30.1 30.8432 34.2 28.0432C34.2667 27.9766 34.3333 27.9433 34.4 27.9433C35.1 27.4433 37.5 25.5433 37.7 25.4433C38.4 24.8433 39 24.3432 39.7 23.6432C40.1 23.1432 40.4001 22.6432 40.8001 22.2432C41.0001 21.9432 41.2001 21.8433 41.5001 21.9433L41.9 22.2432C42.1 22.5432 41.9 22.7432 41.7 23.0432C39.3 26.0432 36.5001 28.6433 33.0001 30.4433C27.3001 33.2433 21.6999 33.6432 16.0999 30.2432C15.7999 30.1432 15.4999 30.0432 15.5999 29.7432Z" fill="#E0CC2E"/>
<path d="M32.5001 29.9432C36.0001 28.1432 38.9001 25.5432 41.3001 22.5432C41.4001 22.3432 41.5999 22.1432 41.5999 22.0432C41.6999 22.1432 41.9 22.2432 41.9 22.2432C42.1 22.5432 41.9 22.7432 41.7 23.0432C39.3 26.0432 36.5001 28.6432 33.0001 30.4432C27.3001 33.2432 21.6999 33.6432 16.0999 30.2432C15.7999 30.1432 15.4999 30.0432 15.5999 29.7432C15.5999 29.6765 15.5999 29.6432 15.5999 29.6432C21.1999 33.0432 26.9001 32.7432 32.5001 29.9432Z" fill="#A19535"/>
<path d="M29.3 11.2432C29.3 10.9432 31.6 10.3432 33.2 10.1432C33.5 10.1432 33.8999 10.0432 34.0999 10.2432C34.7999 10.5432 35.4 11.5432 35.8 12.5432C36.1 13.0432 36 13.1432 35.5 13.2432C34.2 13.4432 31.5 14.9432 30.7 15.3432C30.5 15.5432 30.4 15.5432 30.3 15.4432C30.3 15.3432 30.4 15.2432 30.5 15.0432C30.8 13.7432 30.3999 12.6432 29.5999 11.6432C29.4999 11.4432 29.3 11.3432 29.3 11.2432Z" fill="#E0CC2E"/>
<path d="M30.3 29.5432C30.8 29.4432 31.2999 29.2431 31.3999 29.1431C31.4999 29.1431 31.6999 29.0432 31.6999 28.8432C31.5999 28.5432 31.1 28.1432 31 28.0432C30.9 27.8432 30.9 27.6432 31 27.4432C31.1 27.2432 31.4998 27.4431 31.5998 27.2431C31.5998 27.1431 31.3999 27.0432 31.1999 27.0432C30.8999 26.9432 30.4999 26.5432 30.3999 26.4432C30.1999 26.2432 30.0332 26.0432 29.8999 25.8432C29.6999 25.6432 29.3999 25.2432 29.6999 25.0432C29.7999 24.9432 30 24.8432 30.3 24.8432C30.5 24.8432 30.9 25.0431 31.3 25.2431C31.4 25.2431 31.1998 25.1432 31.0998 24.9432C30.6998 24.7432 30.4 24.4431 30.3 24.2431C29.9 23.9431 29.6998 23.4432 29.5998 23.3432C29.4998 22.9432 29.3999 22.7431 29.6999 22.6431C29.7999 22.5431 30.1 22.5432 30.5 22.5432C30.6 22.6432 30.8998 22.7432 31.0998 22.8432C31.2998 22.9432 31.2999 23.0432 31.3999 22.8432C31.2999 22.7432 31.1998 22.6432 31.0998 22.5432C30.5998 22.0432 30.3999 21.6432 30.3999 21.5432C30.1999 21.1432 30.0666 20.7098 30 20.2431C29.9 19.7431 29.9998 19.5431 30.5998 19.7431C30.9998 19.8431 31.3999 20.1432 31.6999 20.5432C31.8999 20.7432 32.2999 21.1432 32.3999 21.3432C32.4999 21.4432 32.5998 21.6431 32.5998 21.6431C32.5998 21.6431 32.6998 21.6432 32.5998 21.4432C32.5998 21.1432 32.5998 20.6432 32.5998 20.5432C32.6998 19.8432 33.0999 19.9432 33.3999 20.3432C33.5999 20.5432 33.6999 20.6432 33.8999 20.9432C34.0999 21.2432 34.3998 22.1431 34.5998 22.1431C34.6998 22.1431 34.5999 21.6432 35.1999 21.5432C35.4999 21.4432 35.9998 21.9432 36.0998 22.4432C36.1998 22.8432 36.0999 23.5432 36.3999 23.5432C36.4999 23.6432 36.5999 23.2431 36.8999 23.1431C37.2999 23.1431 37.3 23.4432 37.3 23.8432C37.3 24.2432 37.4 24.3432 37.5 24.5432C37.7999 24.8432 38.2 24.3431 38.8 23.7431C38.9 23.6431 39.2 23.4432 39.3 23.3432C39.8 22.7432 40.0999 22.3432 40.3999 21.9432C40.4999 21.6432 40.5 21.6431 40.3 21.2431C40.3 20.9431 39.5999 19.9432 39.3999 19.5432C38.3999 17.7432 37.6998 16.5432 36.5998 14.8432C35.9998 13.7432 35.7999 13.6431 34.5 14.2431C34.2 14.3431 30.4999 16.1431 28.8999 17.1431C24.9999 19.6431 21.7 22.7432 18.5 26.0432C18.1 26.5098 17.7 26.9432 17.3 27.3432C15.7 29.0432 15.6999 29.0431 17.8999 29.7431C18.2999 29.8431 20.5 30.3432 21.3 30.4432C23.6 30.8432 25.8999 30.8431 28.1999 30.2431C28.6999 30.0431 30 29.6432 30.3 29.5432Z" fill="#264485"/>
<path d="M30.3 29.5432C30.8 29.4432 31.2999 29.2431 31.3999 29.1431C31.4999 29.1431 31.6999 29.0432 31.6999 28.8432C31.5999 28.5432 31.1 28.1432 31 28.0432C30.9 27.8432 30.9 27.6432 31 27.4432C31.1 27.2432 31.4998 27.4431 31.5998 27.2431C31.5998 27.1431 31.3999 27.0432 31.1999 27.0432C30.8999 26.9432 30.4999 26.5432 30.3999 26.4432C30.1999 26.2432 30.0332 26.0432 29.8999 25.8432C29.6999 25.6432 29.3999 25.2432 29.6999 25.0432C29.7999 24.9432 30 24.8432 30.3 24.8432C30.5 24.8432 30.9 25.0431 31.3 25.2431C31.4 25.2431 31.1998 25.1432 31.0998 24.9432C30.6998 24.7432 30.4 24.4431 30.3 24.2431C29.9 23.9431 29.6998 23.4432 29.5998 23.3432C29.4998 22.9432 29.3999 22.7431 29.6999 22.6431C29.7999 22.5431 30.1 22.5432 30.5 22.5432C30.6 22.6432 30.8998 22.7432 31.0998 22.8432C31.2998 22.9432 31.2999 23.0432 31.3999 22.8432C31.2999 22.7432 31.1998 22.6432 31.0998 22.5432C30.5998 22.0432 30.3999 21.6432 30.3999 21.5432C30.1999 21.1432 30.0666 20.7098 30 20.2431C29.9 19.7431 29.9998 19.5431 30.5998 19.7431C30.9998 19.8431 31.3999 20.1432 31.6999 20.5432C31.8999 20.7432 32.2999 21.1432 32.3999 21.3432C32.4999 21.4432 32.5998 21.6431 32.5998 21.6431C32.5998 21.6431 32.6998 21.6432 32.5998 21.4432C32.5998 21.1432 32.5998 20.6432 32.5998 20.5432C32.6998 19.8432 33.0999 19.9432 33.3999 20.3432C33.5999 20.5432 33.6999 20.6432 33.8999 20.9432C34.0999 21.2432 34.3998 22.1431 34.5998 22.1431C34.6998 22.1431 34.5999 21.6432 35.1999 21.5432C35.4999 21.4432 35.9998 21.9432 36.0998 22.4432C36.1998 22.8432 36.0999 23.5432 36.3999 23.5432C36.4999 23.6432 36.5999 23.2431 36.8999 23.1431C37.2999 23.1431 37.3 23.4432 37.3 23.8432C37.3 24.2432 37.4 24.3432 37.5 24.5432C37.7999 24.8432 38.2 24.3431 38.8 23.7431C38.9 23.6431 39.2 23.4432 39.3 23.3432C39.8 22.7432 40.0999 22.3432 40.3999 21.9432C40.4999 21.6432 40.5 21.6431 40.3 21.2431C40.3 20.9431 39.5999 19.9432 39.3999 19.5432C38.3999 17.7432 37.6998 16.5432 36.5998 14.8432C35.9998 13.7432 35.7999 13.6431 34.5 14.2431C34.2 14.3431 30.4999 16.1431 28.8999 17.1431C24.9999 19.6431 21.7 22.7432 18.5 26.0432C18.1 26.5098 17.7 26.9432 17.3 27.3432C15.7 29.0432 15.6999 29.0431 17.8999 29.7431C18.2999 29.8431 20.5 30.3432 21.3 30.4432C23.6 30.8432 25.8999 30.8431 28.1999 30.2431C28.6999 30.0431 30 29.6432 30.3 29.5432Z" fill="#264485"/>
<path d="M34.5 14.2431C35.8 13.6431 35.9999 13.7432 36.5999 14.8432C37.6999 16.5432 38.3999 17.7432 39.3999 19.5432C39.5999 19.9432 40.3 20.9431 40.3 21.2431C40.5 21.6431 40.4999 21.6432 40.3999 21.9432C40.0999 22.3432 39.9 22.6432 39.5 23.0432L33.7 14.5432C34.1 14.3432 34.4 14.2431 34.5 14.2431Z" fill="#232F64"/>
<path d="M34.0999 10.2432C34.7999 10.5432 35.4 11.5432 35.8 12.5432C36.1 13.0432 36 13.1432 35.5 13.2432C35 13.3432 34.1999 13.6432 33.3999 14.0432L31 10.5432C31.7 10.3432 32.5 10.2432 33.2 10.1432C33.5 10.1432 33.8999 10.0432 34.0999 10.2432Z" fill="#A19535"/>
<path d="M12.3001 29.0432C12.0001 29.4432 12.1 30.0432 12.4 30.4432C12.6 30.6432 12.5 30.8432 12.5 31.1432C12.6 32.3432 11.6999 32.9432 11.0999 33.6432C9.7999 35.2432 9.8001 35.1433 8.3001 33.8433C7.9001 33.4433 7.7999 33.1432 8.0999 32.7432C9.6999 29.7432 11.4999 26.8432 13.5999 24.1432L16.5 27.3433C15.6 28.1433 15.3 28.9433 14 28.3433C13.4 28.0433 12.7001 28.5432 12.3001 29.0432Z" fill="#A19535"/>
<path d="M36.5 28.8433C36.8 28.6433 37.6999 27.8432 37.8999 27.7432C38.4999 27.4432 38.5 27.3432 39.2 27.6432C40 27.8432 40.6999 28.3432 41.0999 29.1432C41.2999 29.3432 41.3999 29.5433 41.0999 29.8433C40.9999 29.9433 40.6999 30.1432 40.5999 30.2432C40.5999 30.3432 38.9001 31.6432 38.8001 31.7432C38.7001 31.7432 38.4001 32.0432 38.3001 32.1432C38.2001 32.1432 37.2001 32.8432 36.8001 33.0432C36.6001 33.1432 36.2999 33.2432 36.0999 33.1432C35.4999 32.4432 35.2999 31.9433 35.0999 31.3433C34.9999 30.8433 34.7 30.4432 35.2 29.9432C35.4 29.6432 36.1 29.0433 36.5 28.8433Z" fill="#FCBC60"/>
<path d="M36.3999 32.7432C36.7999 32.5432 37.9 31.8433 38 31.8433C38.1 31.7433 38.4999 31.4432 38.5999 31.4432C38.5999 31.3432 40.4999 29.9433 40.5999 29.8433C40.5999 29.7433 40.8999 29.5433 41.0999 29.3433C41.1665 29.3433 41.2 29.3098 41.2 29.2432C41.3 29.4432 41.2999 29.6433 41.0999 29.8433C40.9999 29.9433 40.6999 30.1432 40.5999 30.2432C40.5999 30.3432 38.9 31.6432 38.8 31.7432C38.7 31.7432 38.4 32.0432 38.3 32.1432C38.2 32.1432 37.2 32.8432 36.8 33.0432C36.6 33.1432 36.2999 33.2432 36.0999 33.1432C36.0332 33.0765 35.9666 33.0099 35.8999 32.9432C36.0999 32.8766 36.2666 32.8098 36.3999 32.7432Z" fill="#CE9A46"/>
<path d="M21.2 8.44322C20.6667 7.90989 20.1332 7.40989 19.5999 6.94322C18.9999 6.34322 18.3 5.74322 17.9 4.94322C17.5 4.14322 17.4001 3.3432 17.8001 2.5432C19.2001 0.0432 21.9001 -0.0567513 23.5001 2.34325C23.6334 2.54325 23.7334 2.74322 23.8001 2.94322C24.5334 4.27656 25.2333 5.60989 25.9 6.94322C26.3 7.74322 26.4999 8.54325 26.5999 9.34325C26.6999 10.2432 26.5 10.5432 25.7 10.8432C25.1 11.2432 24.8 11.5432 24.2 11.1432C24 10.9432 21.5 8.74322 21.2 8.44322Z" fill="#E0CC2E"/>
<path d="M18.7 1.34326C20.2 -0.0567424 22.2999 0.24316 23.5999 2.24316C23.7332 2.44316 23.8667 2.64326 24 2.84326C24.6667 4.17659 25.3333 5.54323 26 6.94323C26.4 7.74323 26.6 8.44326 26.8 9.34326C26.9 10.1433 26.5 10.5433 25.7 10.8433C26 10.4433 26 9.84326 25.8 9.34326C24.7 7.04326 23.6 4.74326 21.8 2.84326C21.6667 2.64326 21.5332 2.47659 21.3999 2.34326C20.3999 1.44326 18.9999 1.24316 18.3999 1.74316C18.3999 1.74316 18.5 1.64326 18.7 1.34326Z" fill="#A19535"/>
<path fill-rule="evenodd" clip-rule="evenodd" d="M25.2999 44.5432C25.1999 43.7432 25.7998 42.9432 26.6998 42.8432C27.4998 42.6432 28.3999 43.2432 28.4999 44.1432C28.5999 45.0432 27.9997 45.8432 27.0997 45.9432C26.1997 46.0432 25.3999 45.4432 25.2999 44.5432ZM27.8998 44.2431C27.8998 43.6431 27.4999 43.2432 26.7999 43.3432C26.1999 43.4432 25.7998 43.8432 25.8998 44.5432C25.8998 45.1432 26.3999 45.4432 26.9999 45.4432C27.5999 45.2432 27.9998 44.9431 27.8998 44.2431Z" fill="#070505"/>
<path d="M9.80005 35.6432C11.4 36.4432 21.3 44.8433 21.3 44.9433L21.5 45.0433C21.6 45.1433 21.9 45.2433 22 45.3433L21.8999 45.2432C21.8999 44.7432 22.2999 44.8432 22.5999 44.7432C23.2999 44.3432 23.7999 44.2432 24.0999 43.2432C24.4999 41.8432 25.9999 41.3433 26.8999 41.3433C27.5999 41.4433 27.8 41.1433 28.2 40.8433C28.4 40.7433 30.7999 38.9433 30.8999 38.9433C31.0999 38.7433 31.7999 38.2432 32.5999 37.7432C31.7999 37.9432 31.1 38.0433 30.8 38.0433C30.1 38.2433 28.1 38.0433 27.7 37.9433C27.5666 37.9433 27.4334 37.9433 27.3 37.9433C26.9667 37.8766 26.6666 37.8099 26.3999 37.7432C24.1999 37.1432 22.1 36.3433 20 35.3433C18.3 34.4433 16.7 33.4433 15 32.4433C14.6 32.2433 13 32.3432 12.7 32.7432C12 33.4432 11.2 34.2432 10.7 35.1432C10.5 35.6432 10.1 35.7432 9.80005 35.6432Z" fill="#264485"/>
<path d="M9.80005 35.6432C10.1 35.7432 10.5 35.6432 10.7 35.1432C11.2 34.2432 12 33.4432 12.7 32.7432C13 32.3432 14.6 32.2433 15 32.4433C16.7 33.4433 18.3 34.4433 20 35.3433C21.9333 36.3433 23.9665 37.1099 26.0999 37.6432L28.7 40.5433C28.5 40.6433 28.3 40.8433 28.2 40.8433C27.8 41.1433 27.5999 41.4433 26.8999 41.3433C25.9999 41.3433 24.4999 41.8432 24.0999 43.2432C23.7999 44.2432 23.2999 44.3432 22.5999 44.7432C22.2999 44.8432 21.8999 44.7432 21.8999 45.2432L22 45.3433C21.9 45.2433 21.6 45.1433 21.5 45.0433L21.3 44.9433C21.3 44.8433 11.4 36.4432 9.80005 35.6432Z" fill="#232F64"/>
<path d="M22.2 45.5432L22.5 44.7432C22.5 44.7432 22.2999 44.8432 22.0999 44.7432C22.0332 44.6765 22 44.6432 22 44.6432L21.8 44.4432C21.7 44.4432 14 37.8432 10.8 35.5432C10.7 35.4432 10.7 35.2432 10.8 35.0432C10.5 34.8432 9.90005 34.9433 9.80005 34.8433L9.3999 35.4432C10.8999 36.1432 20.3999 44.0432 21.3999 44.9432C21.3999 44.9432 22.1 45.4432 22.2 45.5432Z" fill="#070505"/>
<path d="M30.8 41.3433C37.2 39.2433 42.8999 35.7432 47.8999 31.2432C48.4332 30.7765 48.9332 30.2432 49.3999 29.6432C49.9999 28.8432 49.8999 28.6432 48.8999 28.4432C47.8999 28.2432 46.9 28.3433 45.8 28.3433C45.7 28.0433 45.7999 27.9432 45.8999 27.7432C46.6999 27.6432 48.8 27.7432 49 27.7432C49.5 27.8432 50 28.0433 50.3 28.3433C50.5 28.7433 50.5 29.0432 50.2 29.6432C50.2 29.6432 50 30.0433 49.7 30.3433C49 31.0433 45.4999 34.0432 45.3999 34.1432C45.0999 34.3432 42.9999 35.8432 42.8999 35.9432C42.3999 36.3432 40.3999 37.5432 40.3999 37.5432L38.3 38.7432C36.3667 39.7432 34.3333 40.6432 32.2 41.4432C31.7 41.5432 29.4 42.3433 29.3 42.3433C29.1667 42.3433 29.0667 42.2765 29 42.1432C29 41.9432 29.1 41.9433 29.2 41.8433C29.3 41.8433 30.5 41.4433 30.8 41.3433Z" fill="#E0CC2E"/>
<path d="M29.3 42.3433C29.1667 42.3433 29.0667 42.2765 29 42.1432C29 41.9432 29.1 41.9433 29.2 41.8433C29.3 41.8433 29.5 41.7432 29.8 41.6432L30.2 42.1432C29.7 42.2432 29.3 42.3433 29.3 42.3433Z" fill="#A19535"/>
<path d="M40.8 22.2432C41 21.9432 41.2 21.8433 41.5 21.9433L41.8999 22.2432C42.0999 22.5432 41.9 22.7432 41.7 23.0432C41.3 23.5099 40.9 23.9766 40.5 24.4433L39.8 23.5432C40.1 23.0432 40.5 22.6432 40.8 22.2432Z" fill="#A19535"/>
<path d="M41.3 24.4432C41.6 24.2432 41.7999 24.2432 42.0999 24.5432C42.2332 24.7432 42.4333 25.0765 42.7 25.5432C42.8 25.5432 43.2999 26.3432 43.3999 26.5432C43.4999 26.8432 43.4999 27.1433 43.3999 27.3433C43.2999 27.4433 43.0999 27.7432 42.8999 28.0432L40.8 24.9432C41 24.7432 41.2 24.5432 41.3 24.4432Z" fill="#232F64"/>
<path d="M43.2 28.5432C43.5 28.2432 43.9 27.8431 44 27.7431C44.1 27.4431 44.1999 27.2431 44.3999 27.1431C44.4666 27.0765 44.6 27.0765 44.8 27.1431C44.8667 27.1431 44.9333 27.1764 45 27.2431C45.4 27.5431 45.3 27.9432 45 28.3432C44.6667 28.7432 44.2999 29.1432 43.8999 29.5432L43.2 28.5432Z" fill="#A19535"/>
<path d="M9.3001 29.3433C8.7001 30.1433 8.4001 31.1432 7.8001 31.9432C7.7001 32.1432 7.6001 32.4432 7.3001 32.2432C7.1001 32.1432 6.69995 32.0432 6.89995 31.7432C6.96662 31.6098 7.03324 31.4432 7.0999 31.2432C7.9999 29.5432 9.1 27.6432 10.2 25.9432C10.3 25.7432 11.1001 24.5432 12.0001 23.4432C12.1334 23.3099 12.2666 23.1432 12.4 22.9432L13.2 23.7432C12.6 24.4432 12.1 25.1433 11.9 25.3433C11 26.6433 10.2001 28.0433 9.3001 29.3433Z" fill="#232F64"/>
<path d="M16.0999 30.2432C15.7999 30.1432 15.4999 30.0432 15.5999 29.7432C15.5999 29.4432 15.8001 29.6432 16.0001 29.6432C17.1001 30.1432 18.3999 30.4432 19.5999 30.7432L21.0999 32.2432C19.4333 31.9098 17.7666 31.2432 16.0999 30.2432Z" fill="#A19535"/>
<path d="M20.2 32.8433C19.7 32.6433 19.2 32.4432 19.2 32.2432C19.3 32.1432 19.7999 32.3433 20.0999 32.4433C20.4999 32.6433 20.9 32.7433 21.3 32.8433C21.3667 32.91 21.5 32.9433 21.7 32.9433L22.7 33.9433C21.4 33.4433 20.4 32.9433 20.2 32.8433Z" fill="#232F64"/>
<path d="M23.8998 36.2431C20.8998 35.1431 18.1 33.5432 15.3 31.8432C14.8 31.5432 14.7999 31.2431 14.9999 30.7431C15.3999 30.1431 15.6998 30.6432 15.8998 30.8432C18.2998 32.2432 20.7998 33.7432 23.3998 34.8432L25.3 36.7431C24.8333 36.6098 24.3665 36.4431 23.8998 36.2431Z" fill="#A19535"/>
<path d="M26.3999 46.7432C26.3999 46.7432 26.4333 46.7099 26.5 46.6432C26.5667 46.6432 26.5999 46.6432 26.5999 46.6432C26.6665 46.6432 26.7334 46.6432 26.8 46.6432C27 46.6432 27.2 46.7432 27.2 47.1432C27.2666 47.9432 27.3332 48.7432 27.3999 49.5432C27.4999 49.6432 27.5 49.9432 27.7 50.2432C27.7 50.3765 27.7334 50.5099 27.8 50.6432L26.5 50.3433C26.4333 49.8766 26.3667 49.4099 26.3 48.9432C26.3 48.6099 26.2666 48.3099 26.2 48.0432C26.2 47.7765 26.1665 47.5098 26.0999 47.2432C26.0999 46.9432 26.1999 46.7432 26.3999 46.7432Z" fill="#A19535"/>
<path d="M27.5997 10.4432C27.7997 10.5432 28.1999 10.7433 28.4999 10.8433C28.6332 10.8433 28.7665 10.8098 28.8998 10.7432C30.1998 10.3432 31.5999 9.74316 33.2999 9.74316C33.4999 9.74316 33.7999 9.84326 33.7999 9.84326C33.7999 9.74326 33.6999 9.54324 33.4999 9.44324C33.0999 9.14324 32.3999 9.14319 31.9999 9.14319C31.5999 9.14319 30.6999 9.24326 29.9999 9.34326C29.3999 9.54326 27.9999 9.94324 27.9999 9.94324C27.5999 10.0432 27.1997 10.2432 27.5997 10.4432Z" fill="#264485"/>
<path d="M32 9.14319C32.4 9.14319 33.1 9.14324 33.5 9.44324C33.7 9.54324 33.8 9.74326 33.8 9.84326C33.8 9.84326 33.5 9.74316 33.3 9.74316C32.4 9.74316 31.5 9.94319 30.7 10.1432L30.2 9.34326C30.9 9.24326 31.6 9.14319 32 9.14319Z" fill="#212F61"/>
<path d="M37.8 28.5432C37.9 29.0432 38.3 29.3433 38.7 29.3433C39.2 29.2433 39.5 28.8432 39.5 28.4432C39.4 27.9432 38.9999 27.6432 38.5999 27.6432C38.0999 27.7432 37.8 28.1432 37.8 28.5432Z" fill="#FDDDB4"/>
<path d="M10.0999 60.3433L12.8 60.2432L13.2 71.1432L10.2 71.3433L9.80005 63.4432C9.13338 63.6432 8.53333 63.8099 8 63.9432L7.8999 61.0432L10.0999 60.3433Z" fill="#050505"/>
<path d="M16 60.0432L18.7 59.9432L19.0999 70.9432L16.0999 71.0432L15.7 63.1432C15.0333 63.4099 14.4332 63.6098 13.8999 63.7432L13.8 60.8433L16 60.0432Z" fill="#050505"/>
<path d="M11.2 58.8433L13.8 58.7432L14.3 69.7432L11.3 69.8433L10.8999 61.9432C10.1666 62.2099 9.56652 62.4099 9.09985 62.5432L8.8999 59.6432L11.2 58.8433Z" fill="#FEFEFE"/>
<path d="M17.0999 58.6432L19.7 58.5432L20.2 69.4432L17.2 69.5432L16.8 61.7432C16.0667 61.9432 15.4667 62.1098 15 62.2432L14.8 59.3433L17.0999 58.6432Z" fill="#FEFEFE"/>
<path d="M54.3999 96.4432L14.3 100.043L13.7 95.3433L54.0999 91.7432L54.3999 96.4432Z" fill="#1C78BD"/>
<path fill-rule="evenodd" clip-rule="evenodd" d="M13.5999 84.9432C14.3999 84.8432 15.5 84.8431 15.3 87.7431C15.1 90.4431 14.1999 90.6431 12.8999 90.7431H12.3L12.7 85.0432L13.5999 84.9432ZM13.5 85.5432L13.2 90.0432C14.4 89.9432 14.5 88.7432 14.5 87.8432C14.6 86.9432 14.8 85.3432 13.5 85.5432Z" fill="#FEFEFE"/>
<path d="M16.3999 90.4432H15.7L16 84.7432L16.8 84.6432L16.3999 90.4432ZM16.3 84.4432L16 84.2432L16.7 83.0432L17.0999 83.3433L16.3 84.4432Z" fill="#FEFEFE"/>
<path fill-rule="evenodd" clip-rule="evenodd" d="M18.8999 84.4432L19.8 90.1432H19L18.8999 89.0432L17.7 89.1432L17.5 90.3433H16.7L18.3 84.5432L18.8999 84.4432ZM18.7 87.6432L18.5999 85.5432H18.5L17.8999 88.5432L18.8 88.4432L18.7 87.6432Z" fill="#FEFEFE"/>
<path fill-rule="evenodd" clip-rule="evenodd" d="M22.5999 84.1432C23.4999 84.0432 24.4999 83.9433 24.3999 86.9433C24.1999 89.5433 23.3 89.7433 22 89.9433H21.3999L21.8 84.1432H22.5999ZM22.5 84.8433L22.2 89.3433C23.4 89.2433 23.5 88.0432 23.5 87.0432C23.6 86.1432 23.8 84.6433 22.5 84.8433Z" fill="#FEFEFE"/>
<path d="M27.2 83.6432L27.0999 84.3433L25.8 84.4432L25.7 86.2432L26.8999 86.1432L26.8 86.8433L25.7 86.9432L25.5999 88.9432L26.8 88.7432V89.4432L24.8 89.6432L25.0999 83.8433L27.2 83.6432Z" fill="#FEFEFE"/>
<path d="M28.3 83.5432L28 88.6432L29.3 88.5432L29.2 89.2432L27.2 89.4432L27.5999 83.6432L28.3 83.5432Z" fill="#FEFEFE"/>
<path d="M19.8999 100.743L20 98.3433L18.2 98.5432L18.0999 100.943L15.8999 101.143L16.2 93.5432L18.5 93.3433L18.3 96.3433L20.0999 96.2432L20.3 93.1432L22.5 92.9432L22.2 100.543L19.8999 100.743Z" fill="#FEFEFE"/>
<path d="M23.3 100.443L23.7 92.8433L25.8999 92.6432L25.5999 100.243L23.3 100.443Z" fill="#FEFEFE"/>
<path d="M31 98.8433L30.3999 98.9432L29.0999 96.7432L29 99.9432L26.8 100.143L27.0999 92.5432L29.2 92.3433L30.8999 95.1432L32.8999 92.0432L35 91.8433L34.5999 99.3433L32.3999 99.6432L32.5 96.4432L31 98.8433Z" fill="#FEFEFE"/>
<path d="M42.8 91.0432L42.5 98.6432L40.3999 98.8433L38.2 95.7432L38 99.0432L35.8 99.2432L36.2 91.7432L38.2 91.5432L40.3999 94.6432L40.5999 91.3433L42.8 91.0432Z" fill="#FEFEFE"/>
<path fill-rule="evenodd" clip-rule="evenodd" d="M47.8001 90.5432C48.9334 90.4099 49.8334 90.6766 50.5 91.3433C51.2334 92.0766 51.5999 92.9766 51.5999 94.0432C51.5332 95.1766 51.1001 96.1432 50.3001 96.9432C49.5001 97.7432 48.5333 98.2099 47.3999 98.3433C46.3333 98.4766 45.4333 98.1766 44.7 97.4432C43.9667 96.7766 43.6333 95.8765 43.7 94.7432C43.7667 93.6765 44.2 92.7432 45 91.9432C45.7334 91.0766 46.6667 90.6099 47.8001 90.5432ZM47.5 96.2432C47.9667 96.1765 48.3667 95.9432 48.7 95.5432C49.0333 95.2099 49.2 94.7765 49.2 94.2432C49.2667 93.7765 49.1334 93.3766 48.8001 93.0432C48.5334 92.7099 48.1667 92.5765 47.7 92.6432C47.2333 92.7099 46.8334 92.9098 46.5 93.2432C46.1667 93.6432 46 94.0766 46 94.5432C46 95.0766 46.1333 95.4765 46.3999 95.7432C46.7333 96.0765 47.1 96.2432 47.5 96.2432Z" fill="#FEFEFE"/>
<path d="M70 105.043L9.80005 110.243L9.19995 105.543L69.8 100.343L70 105.043Z" fill="#1C78BD"/>
<path d="M18.7 103.343L18.3 110.843L16.3 111.043L14 107.943L13.8999 111.243L11.7 111.443L12 103.943L14 103.743L16.3 106.843L16.3999 103.543L18.7 103.343Z" fill="#FEFEFE"/>
<path fill-rule="evenodd" clip-rule="evenodd" d="M24.3999 102.743L26.8 110.043L24.3999 110.343L24.0999 109.543L21.7 109.743L21.3999 110.543L19 110.843L22.0999 102.943L24.3999 102.743ZM22.5999 107.543H23.5999L23.0999 105.943L22.5999 107.543Z" fill="#FEFEFE"/>
<path d="M35 106.143C34.7333 107.143 34.2333 107.976 33.5 108.643C32.7667 109.376 31.8999 109.777 30.8999 109.843C29.7666 109.91 28.8666 109.61 28.2 108.943C27.4666 108.277 27.0999 107.376 27.0999 106.243C27.1665 105.176 27.5999 104.21 28.3999 103.343C29.1999 102.543 30.1667 102.11 31.3 102.043C32.2334 101.91 33.0667 102.11 33.8 102.643C34.4667 103.243 34.8667 104.01 35 104.943L32.5999 105.143C32.5332 104.81 32.3665 104.543 32.0999 104.343C31.7665 104.143 31.4666 104.076 31.2 104.143C30.7333 104.143 30.3333 104.343 30 104.743C29.6667 105.143 29.5 105.577 29.5 106.043C29.4333 106.577 29.5666 106.976 29.8999 107.243C30.1666 107.576 30.5333 107.743 31 107.743C31.3333 107.676 31.6332 107.51 31.8999 107.243C32.1666 107.043 32.3999 106.743 32.5999 106.343L35 106.143Z" fill="#FEFEFE"/>
<path d="M35.5999 109.243L36 101.643L38.2 101.443L37.8999 109.043L35.5999 109.243Z" fill="#FEFEFE"/>
<path fill-rule="evenodd" clip-rule="evenodd" d="M43.2 100.843C44.3333 100.777 45.2333 101.077 45.8999 101.743C46.6333 102.41 46.9666 103.31 46.8999 104.443C46.8999 105.51 46.5 106.477 45.7 107.343C44.9 108.143 43.9334 108.61 42.8001 108.743C41.7334 108.81 40.8332 108.51 40.0999 107.843C39.3666 107.177 39.0332 106.277 39.0999 105.143C39.1666 104.077 39.5999 103.11 40.3999 102.243C41.1333 101.443 42.0667 100.977 43.2 100.843ZM42.8999 106.643C43.3666 106.577 43.7666 106.343 44.0999 105.943C44.4332 105.61 44.5999 105.177 44.5999 104.643C44.6666 104.177 44.5333 103.777 44.2 103.443C43.9333 103.11 43.5666 102.977 43.0999 103.043C42.6332 103.043 42.2333 103.243 41.8999 103.643C41.5666 104.043 41.3999 104.477 41.3999 104.943C41.3999 105.477 41.5334 105.877 41.8001 106.143C42.1334 106.477 42.4999 106.643 42.8999 106.643Z" fill="#FEFEFE"/>
<path d="M54.8 99.9432L54.5 107.543L52.3999 107.643L50.2 104.643L50.0999 107.943L47.8 108.143L48.2 100.543L50.2 100.343L52.3999 103.443L52.5999 100.143L54.8 99.9432Z" fill="#FEFEFE"/>
<path fill-rule="evenodd" clip-rule="evenodd" d="M60.5999 99.4432L63 106.743L60.5 106.943L60.3 106.143L57.8999 106.443L57.5999 107.243L55.2 107.443L58.3 99.6432L60.5999 99.4432ZM58.7 104.243L59.7 104.143L59.3 102.543L58.7 104.243Z" fill="#FEFEFE"/>
<path d="M66.2 98.8433L66 104.343L69.2 104.043L69.0999 106.143L63.7 106.643L64 99.0432L66.2 98.8433Z" fill="#FEFEFE"/>
</g>
<defs>
<clipPath id="clip0_239_66225">
<rect width="82" height="125" fill="white"/>
</clipPath>
</defs>
</svg>
