<svg width="71" height="73" viewBox="0 0 71 73" fill="none" xmlns="http://www.w3.org/2000/svg">
<g clip-path="url(#clip0_239_65736)">
<path d="M14.3 4.61279L71.3 11.1128L65.3 68.6128L8.1001 61.7128L14.3 4.61279Z" fill="#21B04B"/>
<path d="M65.3 68.6128L8.1001 61.7128L0 66.1128L55.2 72.5128L65.3 68.6128Z" fill="#5D9440"/>
<path d="M14.3 4.61279L5.90015 11.7128L0 66.1128L8.1001 61.7128L14.3 4.61279Z" fill="#116432"/>
<mask id="mask0_239_65736" style="mask-type:luminance" maskUnits="userSpaceOnUse" x="0" y="4" width="15" height="63">
<path d="M14.3 4.57288L5.92017 11.6829L0.0200195 66.0629L8.06006 61.6929L14.3 4.57288Z" fill="white"/>
</mask>
<g mask="url(#mask0_239_65736)">
<path d="M10.1001 -56.4872L-23.5 36.7128" stroke="#21B04B" stroke-width="0.4"/>
<path d="M11.4001 -52.6871L-22.3 40.5128" stroke="#21B04B" stroke-width="0.4"/>
<path d="M12.6001 -48.8872L-21 44.3129" stroke="#21B04B" stroke-width="0.4"/>
<path d="M13.9001 -45.0872L-19.7 48.1128" stroke="#21B04B" stroke-width="0.4"/>
<path d="M15.2 -41.2872L-18.5 51.9128" stroke="#21B04B" stroke-width="0.4"/>
<path d="M16.4001 -37.4872L-17.2 55.7128" stroke="#21B04B" stroke-width="0.4"/>
<path d="M17.7 -33.6871L-15.8999 59.5128" stroke="#21B04B" stroke-width="0.4"/>
<path d="M19 -29.8872L-14.7 63.3129" stroke="#21B04B" stroke-width="0.4"/>
<path d="M20.2 -26.0872L-13.3999 67.1128" stroke="#21B04B" stroke-width="0.4"/>
<path d="M21.5 -22.2872L-12.0999 70.9128" stroke="#21B04B" stroke-width="0.4"/>
<path d="M22.8 -18.4872L-10.8999 74.7128" stroke="#21B04B" stroke-width="0.4"/>
<path d="M24 -14.6871L-9.59985 78.5128" stroke="#21B04B" stroke-width="0.4"/>
<path d="M25.3 -10.8872L-8.30005 82.3129" stroke="#21B04B" stroke-width="0.4"/>
<path d="M26.5 -7.18713L-7.09985 86.1128" stroke="#21B04B" stroke-width="0.4"/>
<path d="M27.8 -3.38721L-5.80005 89.8129" stroke="#21B04B" stroke-width="0.4"/>
<path d="M29.1001 0.412842L-4.59985 93.6128" stroke="#21B04B" stroke-width="0.4"/>
<path d="M30.3 4.21277L-3.30005 97.4128" stroke="#21B04B" stroke-width="0.4"/>
<path d="M31.6001 8.01282L-2 101.213" stroke="#21B04B" stroke-width="0.4"/>
<path d="M32.9001 11.8129L-0.800049 105.013" stroke="#21B04B" stroke-width="0.4"/>
<path d="M35.4001 19.4128L1.80005 112.613" stroke="#21B04B" stroke-width="0.4"/>
<path d="M36.7 23.2128L10.1001 -56.4872" stroke="#21B04B" stroke-width="0.4"/>
<path d="M35.1001 27.7128L8.5 -52.0872" stroke="#21B04B" stroke-width="0.4"/>
<path d="M33.5 32.1128L6.90015 -47.5872" stroke="#21B04B" stroke-width="0.4"/>
<path d="M31.9001 36.5128L5.30005 -43.1871" stroke="#21B04B" stroke-width="0.4"/>
<path d="M30.3 41.0128L3.69995 -38.7872" stroke="#21B04B" stroke-width="0.4"/>
<path d="M28.7 45.4128L2.1001 -34.2872" stroke="#21B04B" stroke-width="0.4"/>
<path d="M27 49.9128L0.5 -29.8872" stroke="#21B04B" stroke-width="0.4"/>
<path d="M25.4001 54.3129L-1.09985 -25.3872" stroke="#21B04B" stroke-width="0.4"/>
<path d="M23.8 58.7128L-2.69995 -20.9872" stroke="#21B04B" stroke-width="0.4"/>
<path d="M22.2 63.2128L-4.30005 -16.5872" stroke="#21B04B" stroke-width="0.4"/>
<path d="M20.6001 67.6128L-5.8999 -12.0872" stroke="#21B04B" stroke-width="0.4"/>
<path d="M19 72.0128L-7.5 -7.68713" stroke="#21B04B" stroke-width="0.4"/>
<path d="M17.4001 76.5128L-9.09985 -3.28723" stroke="#21B04B" stroke-width="0.4"/>
<path d="M15.8 80.9128L-10.7 1.21277" stroke="#21B04B" stroke-width="0.4"/>
<path d="M14.2 85.4128L-12.3 5.61279" stroke="#21B04B" stroke-width="0.4"/>
<path d="M12.6001 89.8129L-13.8999 10.1128" stroke="#21B04B" stroke-width="0.4"/>
<path d="M11 94.2128L-15.5 14.5128" stroke="#21B04B" stroke-width="0.4"/>
<path d="M9.40015 98.7128L-17.0999 18.9128" stroke="#21B04B" stroke-width="0.4"/>
<path d="M7.80005 103.113L-18.7 23.4128" stroke="#21B04B" stroke-width="0.4"/>
<path d="M6.19995 107.613L-20.3 27.8129" stroke="#21B04B" stroke-width="0.4"/>
<path d="M4.6001 112.013L-21.8999 32.2128" stroke="#21B04B" stroke-width="0.4"/>
<path d="M3 116.413L-23.5 36.7128" stroke="#21B04B" stroke-width="0.4"/>
</g>
<path opacity="0.2" d="M64.2 28.6128C64.2 32.5128 56.7 35.7128 47.3 35.7128C38 35.7128 30.4001 32.5128 30.4001 28.6128C30.4001 24.7128 38 21.5128 47.3 21.5128C56.7 21.5128 64.2 24.7128 64.2 28.6128Z" fill="#1C1C1A"/>
<path d="M64.6001 24.2128L61.5 24.4129L40.8 21.4129C40.6 21.3129 40.1001 21.4129 39.9001 21.5129L28.4001 26.2128L26.3 26.3129V27.2128C26.3 27.2128 26.3335 27.2462 26.4001 27.3129L47.6001 36.2128C48.3001 36.5128 49.2 36.4129 49.7 36.0129L64.5 25.2128C64.5667 25.1461 64.6001 25.1128 64.6001 25.1128V24.2128Z" fill="url(#paint0_linear_239_65736)"/>
<path d="M26.4003 26.4129L47.6002 35.3129C48.3002 35.6129 49.2001 35.5128 49.7001 35.1128L64.5001 24.3129C64.8001 24.1129 64.5003 23.9129 63.9003 23.8129L40.8002 20.5129C40.6002 20.4129 40.1003 20.5128 39.9003 20.6128L26.8002 25.9129C26.4002 26.1129 26.2003 26.3129 26.4003 26.4129Z" fill="url(#paint1_linear_239_65736)"/>
<path d="M28.3 25.5128L50.7 33.6128L61.7 25.8129L38 21.5128L28.3 25.5128Z" fill="#C9B4D7"/>
<path fill-rule="evenodd" clip-rule="evenodd" d="M59.1001 25.6128L60.8 25.9128L59.3 27.0128L57.5 26.6128L59.1001 25.6128ZM56 25.0128L58.6001 25.5128L57.1001 26.5128L54.4001 26.0128L56 25.0128ZM53.1001 24.5128L55.5 24.9128L53.9001 25.8129L51.6001 25.4128L53.1001 24.5128ZM50.5 24.0128L52.6001 24.4128L51 25.3129L48.9001 24.8129L50.5 24.0128ZM48.1001 23.6128L50.1001 23.9128L48.5 24.8129L46.6001 24.4128L48.1001 23.6128ZM45.9001 23.2128L47.7 23.5128L46.1001 24.3129L44.4001 23.9128L45.9001 23.2128ZM43.9001 22.8129L45.5 23.1128L44 23.9128L42.4001 23.5128L43.9001 22.8129ZM42 22.5128L43.5 22.8129L42 23.5128L40.5 23.2128L42 22.5128ZM40.3 22.2128L41.7 22.4128L40.2 23.1128L38.9001 22.8129L40.3 22.2128ZM37.9001 21.7128L40 22.1128L38.5 22.8129L36.4001 22.3129L37.9001 21.7128ZM56.3 26.6128L59.1001 27.2128L57.5 28.3129L54.6001 27.7128L56.3 26.6128ZM53.2 25.9128L55.8 26.5128L54.1001 27.5128L51.6001 26.9128L53.2 25.9128ZM50.4001 25.3129L52.6001 25.8129L51 26.8129L48.7 26.3129L50.4001 25.3129ZM47.9001 24.7128L49.9001 25.2128L48.3 26.1128L46.2 25.6128L47.9001 24.7128ZM45.6001 24.2128L47.5 24.6128L45.9001 25.5128L44 25.1128L45.6001 24.2128ZM43.5 23.7128L45.2 24.1128L43.6001 24.9128L41.9001 24.5128L43.5 23.7128ZM41.6001 23.3129L43.1001 23.6128L41.5 24.4128L40 24.0128L41.6001 23.3129ZM39.8 22.9128L41.3 23.2128L39.7 24.0128L38.3 23.6128L39.8 22.9128ZM38.1001 22.6128L39.4001 22.9128L37.9001 23.5128L36.6001 23.2128L38.1001 22.6128ZM36.3 22.3129L37.8 22.6128L36.3 23.2128L34.8 22.9128L36.3 22.3129ZM34.6001 23.0128L35.7 23.2128L34.1001 23.9128L33 23.6128L34.6001 23.0128ZM53.6001 27.5128L57 28.4128L55.2 29.6128L51.8 28.7128L53.6001 27.5128ZM50.5 26.8129L53 27.4128L51.2 28.5128L48.8 27.8129L50.5 26.8129ZM47.7 26.2128L49.9001 26.7128L48.2 27.7128L46 27.2128L47.7 26.2128ZM45.2 25.6128L47.2 26.0128L45.4001 27.0128L43.5 26.5128L45.2 25.6128ZM42.9001 25.1128L44.7 25.5128L43 26.4128L41.2 25.9128L42.9001 25.1128ZM40.9001 24.6128L42.5 25.0128L40.8 25.9128L39.2 25.4128L40.9001 24.6128ZM39 24.2128L40.5 24.5128L38.8 25.3129L37.4001 24.9128L39 24.2128ZM37.3 23.8129L38.6001 24.2128L37 24.9128L35.6001 24.6128L37.3 23.8129ZM35.8 23.4128L37 23.7128L35.4001 24.4128L34.1001 24.1128L35.8 23.4128ZM49.8 28.4128L54.9001 29.8129L53 31.1128L47.9001 29.6128L49.8 28.4128ZM46.9001 27.6128L49.3 28.3129L47.3 29.4128L45 28.7128L46.9001 27.6128ZM44.4001 26.9128L46.5 27.5128L44.6001 28.6128L42.5 27.9128L44.4001 26.9128ZM42.1001 26.3129L44 26.8129L42.1001 27.8129L40.2 27.2128L42.1001 26.3129ZM40 25.8129L41.7 26.2128L39.9001 27.2128L38.2 26.7128L40 25.8129ZM38.1001 25.2128L39.7 25.7128L37.9001 26.5128L36.3 26.1128L38.1001 25.2128ZM36.4001 24.7128L37.8 25.1128L36 25.9128L34.7 25.5128L36.4001 24.7128ZM34.8 24.2128L36.1001 24.6128L34.3 25.4128L33 25.0128L34.8 24.2128ZM32.7 23.6128L34.5 24.1128L32.8 24.8129L31.1001 24.3129L32.7 23.6128ZM47.4001 29.8129L52.4001 31.4128L50.3 32.9128L45.3 31.1128L47.4001 29.8129ZM44.5 28.9128L46.8 29.6128L44.7 30.9128L42.5 30.0128L44.5 28.9128ZM41.9001 28.1128L44 28.8129L41.9001 30.0128L39.9001 29.2128L41.9001 28.1128ZM32.5 25.2128L41.5 28.0128L39.5 29.1128L30.7 25.9128L32.5 25.2128ZM30.4001 24.6128L32.1001 25.1128L30.3 25.9128L28.7 25.3129L30.4001 24.6128Z" fill="url(#paint2_linear_239_65736)"/>
<path d="M63.7 23.8129L41.5 20.5128C41.2 20.5128 41 20.1128 41 19.7128L41.1001 3.91283C41.1001 3.41283 41.3001 3.11278 41.6001 3.11278L64.7 0.0128056C65.2 -0.0871944 65.8 0.412806 65.8 1.01281L65.7 22.9128C65.7 23.5128 65.1 24.0129 63.7 23.8129Z" fill="url(#paint3_linear_239_65736)"/>
<path d="M40.5 10.2128L40.4001 19.7128C40.4001 20.1128 40.7 20.5129 41 20.5129L64.1001 23.8129C64.7001 23.9129 65.1001 23.5129 65.1001 22.9129L65.3 1.01287C65.3 0.412872 64.9 0.0128478 64.3 0.112848L41.1001 3.01287C40.8001 3.11287 40.6001 3.41292 40.6001 3.81292L40.5 9.01287" fill="url(#paint4_linear_239_65736)"/>
<path d="M64 1.61279L63.8 22.3129L48 20.4128L44.3 19.9128L42.1001 19.6128L41.1001 19.5128L41.3 4.11279L48.8 3.31287L58.6001 2.21277L60.2 2.01282L64 1.61279Z" fill="#BBBDBF"/>
<path opacity="0.3" d="M58.6001 2.21277L42.1001 19.6128L41.1001 19.5128L41.2 12.8129L48.8 3.31287L58.6001 2.21277Z" fill="#E6E7E8"/>
<path opacity="0.3" d="M64 1.61279V5.51282L46.9001 20.4128L44.3 19.9128L60.2 2.01282L64 1.61279Z" fill="#E6E7E8"/>
<path fill-rule="evenodd" clip-rule="evenodd" d="M63.8 22.5128L41.1001 19.6127C41.0334 19.6127 41 19.5794 41 19.5128L41.1001 4.11274C41.1001 4.04608 41.1333 4.01277 41.2 4.01277L64 1.51277C64 1.4461 64.0334 1.4461 64.1001 1.51277C64.1001 1.51277 64.1001 1.54608 64.1001 1.61274L64 22.3128C64 22.3795 63.9668 22.4128 63.9001 22.4128C63.9001 22.4795 63.8667 22.5128 63.8 22.5128ZM41.3 19.4128L63.7 22.2127L63.9001 1.71272L41.4001 4.21272L41.3 19.4128Z" fill="#E7DAEB"/>
<path d="M45 9.21275C45.1 9.01275 45.8 8.21275 47 7.21275C48.1 6.31275 49.8 5.31275 52.2 5.71275C55.3 6.11275 57.3 8.21283 58.2 9.41283C58.5 9.81283 58.5 10.3128 58.3 10.6128C58.3 10.6128 57.9 11.4128 56.8 12.0128C56.8 12.0795 56.7666 12.0795 56.7 12.0128L56.1001 11.2128L53 8.0128C53 8.0128 50.1001 8.11278 48.9001 8.11278C48.2001 8.51278 47.8 8.91275 47.5 9.21275C47.2 9.51275 46.8 9.51275 46.5 9.21275C46.4333 9.14609 46.3667 9.11278 46.3 9.11278C45.9 9.31278 45.5 9.5128 45.5 9.5128L45 9.21275Z" fill="#B2B2B1"/>
<path fill-rule="evenodd" clip-rule="evenodd" d="M56.8 12.2128C56.7334 12.2128 56.6668 12.2128 56.6001 12.2128L55.9001 11.3129L52.9001 8.21282C52.5001 8.21282 50 8.21292 48.8 8.31292C48.3 8.61292 47.8001 9.01292 47.6001 9.31292C47.2001 9.71292 46.7001 9.71292 46.4001 9.31292C46.3335 9.31292 46.2666 9.27949 46.2 9.21282C45.8 9.41282 45.5 9.61284 45.5 9.61284L44.9001 9.31292V9.21282V9.11284C45.0001 9.01284 45.7 8.11284 47 7.11284V7.01287C48 6.21287 49.8 5.21287 52.3 5.51287C55.4 5.91287 57.4 8.11292 58.3 9.31292C58.6 9.71292 58.6001 10.3128 58.4001 10.6128C58.3001 10.8128 57.9001 11.6128 56.9001 12.2128C56.8335 12.2128 56.8 12.2128 56.8 12.2128ZM48.9001 8.01287L53.1001 7.91289L56.2 11.0129L56.8 11.9129C57.8 11.3129 58.2 10.6128 58.2 10.6128C58.3 10.3128 58.3001 9.91284 58.1001 9.61284C57.2001 8.31284 55.2 6.21292 52.2 5.81292C49.8 5.51292 48.1 6.41292 47 7.31292C46 8.11292 45.4 8.81284 45.2 9.11284L45.6001 9.31292C45.7001 9.21292 46.4001 8.91289 46.4001 8.91289V9.01287C46.4668 9.01287 46.5334 9.04618 46.6001 9.11284C46.8001 9.31284 47.2001 9.41284 47.4001 9.11284C47.7001 8.81284 48.2 8.41287 48.8 8.01287H48.9001Z" fill="url(#paint5_linear_239_65736)"/>
<path d="M49.3 5.91287C50.2 5.61287 51.1 5.5128 52.2 5.7128C55.2 6.1128 57.2001 8.11287 58.1001 9.41287L57 10.6128L55.8 10.5128L54.6001 8.91287L53.6001 8.7128L53 8.01284C53 8.01284 52.1001 8.01282 51.1001 8.11282L49.4001 7.7128L46.5 8.61282L49.3 5.91287Z" fill="#FEFEFE"/>
<path fill-rule="evenodd" clip-rule="evenodd" d="M57 10.7128H55.8L54.5 9.01285L53.5 8.8129L52.9001 8.2128C52.7001 8.2128 51.9001 8.2128 51.1001 8.2128L49.4001 7.8129L46 8.91287L49.3 5.7128H49.4001C50.3335 5.44613 51.3 5.37951 52.3 5.51285C55.3 5.91285 57.3 8.0129 58.3 9.3129L57 10.7128ZM56 10.4129H57L58 9.41287C57.1 8.21287 55.1 6.2129 52.2 5.8129C51.2666 5.67956 50.3335 5.74618 49.4001 6.01285L47 8.3129L49.5 7.51285L51.2 7.91287C52.2 7.91287 53.1001 7.91287 53.1001 7.91287L53.7 8.51285L54.8 8.8129L56 10.4129Z" fill="url(#paint6_linear_239_65736)"/>
<path d="M56.9 12.0128C56.6 12.2128 56.1 12.1128 55.9 11.8128C55.1 10.8128 53.5 9.11275 51.1 8.71275C48.6 8.41275 46.9999 9.71282 46.2999 10.4128C45.9999 10.7128 45.5999 10.7128 45.2999 10.4128C44.8999 10.1128 44.8 9.4128 45.1 9.0128C46 8.0128 48 6.41282 51.1 6.91282C54.1 7.31282 56.0999 9.41277 56.9999 10.6128C57.3999 11.1128 57.3 11.8128 56.9 12.0128Z" fill="#B2B2B1"/>
<path fill-rule="evenodd" clip-rule="evenodd" d="M56.7999 12.2128C56.3999 12.4128 55.9998 12.2129 55.6998 11.9129C54.9998 10.9129 53.3999 9.21287 50.9999 8.91287C48.5999 8.51287 47.1 9.71284 46.4 10.5128C46 10.9128 45.4998 10.9128 45.1998 10.5128C44.8998 10.3128 44.6999 9.91284 44.7999 9.51284C44.8666 9.31284 44.9667 9.11287 45.1 8.91287C46 7.91287 48 6.31279 51.1 6.71279C54.2 7.21279 56.2 9.31284 57.1 10.5128C57.4 10.9128 57.3999 11.3128 57.2999 11.7128C57.2333 11.9128 57.1 12.0462 56.9 12.1128C56.9 12.1795 56.8666 12.2128 56.7999 12.2128ZM48.1998 9.01284C48.9998 8.61284 49.9 8.41282 51.1 8.61282C53.6 8.91282 55.1999 10.6128 55.9999 11.6128C56.1999 12.0128 56.6 12.1129 56.9 11.9129C56.9667 11.8462 57.0333 11.7795 57.1 11.7128C57.2 11.4128 57.1 11.0129 56.9 10.8129C56 9.51289 53.9999 7.41284 50.9999 7.01284C47.9999 6.61284 46.0998 8.11282 45.1998 9.11282C45.0998 9.21282 45.1 9.31287 45.1 9.41287C45 9.71287 45.1 10.1129 45.4 10.3129C45.7 10.5129 45.9998 10.6129 46.1998 10.4129C46.5998 9.91287 47.2998 9.31284 48.1998 9.01284Z" fill="url(#paint7_linear_239_65736)"/>
<path d="M47.1001 12.2127C47.1001 12.2127 47.1001 12.1128 47.1001 12.0128C47.4001 11.7128 48.1001 10.8128 49.1001 10.1128C49.1001 10.0461 49.1333 10.0128 49.2 10.0128C49.2666 9.94612 49.3335 9.91281 49.4001 9.91281C49.4001 9.84614 49.4001 9.81283 49.4001 9.81283C50.2001 9.41283 51.1 9.01273 52.2 9.21273C54.2 9.51273 55.5 10.9128 56.2 11.9128C56.4 12.3128 56.4 12.7128 56.3 13.0128C56.2 13.2128 55.6 14.2128 54.7 14.5128C54.7 14.5795 54.6668 14.5795 54.6001 14.5128L54 13.0128L50.9001 11.2127C50.8335 11.2127 50.8 11.2127 50.8 11.2127C50.2 11.5127 49.8 11.9127 49.5 12.2127C49.2 12.5127 48.8 12.5128 48.5 12.3128C48.3667 12.1795 48.2666 12.0794 48.2 12.0128C48.2 11.9461 48.1668 11.9461 48.1001 12.0128L47.7 12.2127H47.1001Z" fill="#B2B2B1"/>
<path fill-rule="evenodd" clip-rule="evenodd" d="M54.8 14.7128C54.7333 14.7128 54.6999 14.7128 54.6999 14.7128C54.6332 14.7128 54.5666 14.6795 54.5 14.6128L53.9001 13.1128L50.8 11.4129C50.2 11.6129 49.8 12.0129 49.6 12.3129C49.2 12.7129 48.7001 12.7129 48.4001 12.4129C48.2668 12.3462 48.1667 12.2462 48.1 12.1128L47.6999 12.3129C47.6999 12.3129 47.6667 12.3129 47.6 12.3129H47.1C47.0334 12.3129 47 12.2795 47 12.2128C46.9333 12.1462 46.9333 12.0795 47 12.0129C47.3 11.6129 48.1 10.7129 49 10.0129C49.0666 9.9462 49.1 9.91289 49.1 9.91289H49.1999C49.2666 9.84623 49.3334 9.77949 49.4001 9.71282C50.3334 9.11282 51.3 8.91285 52.3 9.11285C54.2 9.31285 55.5 10.7129 56.3 11.8129C56.5 12.2129 56.6001 12.6129 56.4001 13.0129C56.3001 13.2129 55.7 14.3128 54.8 14.7128ZM54.6999 14.4129C54.7666 14.4129 54.8 14.4129 54.8 14.4129C55.6 14.0129 56.0999 13.2129 56.1999 13.0129C56.2999 12.7129 56.3 12.4129 56.1 12.0129C55.3 11.0129 53.9999 9.61292 52.1999 9.31292C51.1999 9.17959 50.3 9.37956 49.5 9.91289L49.4001 10.0129C49.3334 10.0129 49.2666 10.0462 49.1999 10.1128C49.1999 10.1795 49.1667 10.2128 49.1 10.2128C48.3 10.8128 47.6 11.6129 47.3 12.0129H47.6999L48.1 11.8129C48.2334 11.8129 48.3 11.8462 48.3 11.9129C48.3667 11.9796 48.4667 12.0462 48.6 12.1128C48.8 12.4128 49.2001 12.4128 49.4001 12.2128C49.7001 11.8128 50.2 11.4128 50.8 11.1128C50.8667 11.1128 50.9333 11.1128 51 11.1128L54.1 12.8129C54.1 12.8796 54.1332 12.9129 54.1999 12.9129L54.6999 14.4129Z" fill="url(#paint8_linear_239_65736)"/>
<path d="M50.9001 9.21272C51.3001 9.14605 51.7333 9.14605 52.2 9.21272C54.1 9.51272 55.4001 10.9128 56.1001 11.9128L54.5 13.5128L54.1001 13.4128L54 13.0128L50.8 11.2127C50.8 11.2127 50.8 11.2462 50.8 11.3128C50.4667 11.4462 50.1668 11.6128 49.9001 11.8128L48.8 11.4128L50.9001 9.21272Z" fill="#FEFEFE"/>
<path fill-rule="evenodd" clip-rule="evenodd" d="M54.5 13.7127L54 13.5128L53.9001 13.1127L50.7 11.4128C50.4333 11.5461 50.2 11.7128 50 11.9128H49.9001L48.6001 11.4128L50.9001 9.11274H51C51.4 9.04608 51.8334 9.04608 52.3 9.11274C54.1 9.31274 55.4 10.7128 56.2 11.8128H56.3L54.5 13.7127ZM54.2 13.3128L54.5 13.4128L55.8 12.0128C55.1 10.9128 53.8001 9.71279 52.1001 9.41279C51.7001 9.34613 51.3001 9.34613 50.9001 9.41279L49 11.3128L49.9001 11.7127C50.1668 11.5127 50.4333 11.3461 50.7 11.2127C50.7666 11.1461 50.8335 11.1461 50.9001 11.2127L54 12.9128C54 12.9128 54.0334 12.9461 54.1001 13.0128L54.2 13.3128Z" fill="url(#paint9_linear_239_65736)"/>
<path d="M47.3 13.5128C46.8 13.1128 46.8 12.4128 47.1 12.0128C47.8 11.2128 49.1 10.1128 51.1 10.4128C53 10.7128 54.2999 12.1128 54.9999 13.1128C55.2999 13.6128 55.2 14.3128 54.8 14.5128C54.5 14.7128 54 14.6128 53.8 14.2128C53.3 13.5128 52.4 12.4128 51.1 12.2128C49.7 12.1128 48.8 12.9128 48.3 13.4128C48 13.7128 47.6 13.8128 47.3 13.5128Z" fill="#B2B2B1"/>
<path fill-rule="evenodd" clip-rule="evenodd" d="M54.6998 14.7128C54.3998 14.8128 53.8998 14.7129 53.6998 14.3129C53.1998 13.7129 52.2999 12.6128 50.9999 12.4128C49.7999 12.2128 48.9 12.9128 48.4 13.5128C48 13.9128 47.5998 13.9128 47.1998 13.6128C46.8998 13.4128 46.6999 12.9128 46.7999 12.5128C46.7999 12.3128 46.8666 12.1461 46.9999 12.0128C47.6999 11.2128 49.1 10.0129 51.1 10.3129C53 10.5129 54.3 11.9128 55.1 13.0128C55.3 13.4128 55.3998 13.8128 55.1998 14.2128C55.1332 14.4128 54.9999 14.5461 54.7999 14.6128C54.7999 14.6794 54.7665 14.7128 54.6998 14.7128ZM49.6 12.3129C50 12.1129 50.5 12.0128 51.1 12.1128C52.4 12.3128 53.4 13.3128 53.9 14.1128C54.1 14.4128 54.4999 14.5128 54.7999 14.4128C54.8666 14.3462 54.9332 14.2461 54.9999 14.1128C55.0999 13.9128 55.1 13.6129 54.9 13.3129C54.1 12.2129 52.7999 10.8128 50.9999 10.5128C49.1999 10.3128 47.8998 11.3128 47.1998 12.1128C47.0998 12.2128 46.9999 12.4128 46.9999 12.5128C46.9999 12.8128 47.1 13.1129 47.4 13.3129V13.4128C47.7 13.6128 47.9998 13.6128 48.1998 13.4128C48.4998 13.0128 49 12.6129 49.6 12.3129Z" fill="url(#paint10_linear_239_65736)"/>
<path d="M51.1999 13.0128C51.2666 12.9462 51.4 12.8795 51.6 12.8129C52 12.7129 52.5 12.7128 53 13.0128C53.4 13.3128 53.8 13.8128 54 14.4128C54.1 15.0128 54 15.6128 53.8 16.0128C53.8 16.0128 53.3 17.2128 51.8 18.0128C51.7333 18.0128 51.6999 18.0128 51.6999 18.0128L49.8 15.1128L49.6 14.7128C49.5334 14.6461 49.5334 14.6128 49.6 14.6128C49.8 14.3128 50.2999 13.5128 51.1999 13.0128Z" fill="#B2B2B1"/>
<path fill-rule="evenodd" clip-rule="evenodd" d="M51.8 18.1128C51.6667 18.1794 51.6 18.1794 51.6 18.1128L49.6999 15.2127L49.5 14.8128C49.4333 14.7462 49.4333 14.6461 49.5 14.5128C49.7 14.3128 50.2 13.4128 51.1 12.9128C51.2334 12.7795 51.4 12.6794 51.6 12.6128H51.6999C52.1666 12.5461 52.6334 12.6462 53.1 12.9128C53.6 13.2128 53.9 13.7128 54.1 14.3128C54.2 14.9128 54.2001 15.6128 53.9001 16.0128C53.8001 16.3128 53.2 17.4128 51.8 18.1128ZM49.6999 14.6128L49.9001 15.0128L51.8 17.9128C53.2 17.1128 53.6999 16.1128 53.6999 16.0128C53.8999 15.6128 54 15.1128 53.8 14.5128C53.6667 13.9128 53.3668 13.4794 52.9001 13.2127C52.4334 12.8794 52 12.7795 51.6 12.9128C51.4667 12.9795 51.3332 13.0461 51.1999 13.1128C50.3999 13.6128 49.8999 14.3128 49.6999 14.6128Z" fill="url(#paint11_linear_239_65736)"/>
<path d="M50.4 14.4128C51.2 13.5128 52.1998 12.7128 52.1998 12.7128C52.4665 12.7794 52.7332 12.8795 52.9999 13.0128C53.3999 13.3128 53.7999 13.8128 53.9999 14.4128C53.5999 15.0128 52.1998 16.5128 52.1998 16.5128L51.6998 15.9128C51.6998 15.9128 49.6 15.3128 50.4 14.4128Z" fill="#FEFEFE"/>
<path fill-rule="evenodd" clip-rule="evenodd" d="M52.2 16.6128C52.1 16.7128 52.1001 16.7128 51.6001 16.0128C51.4001 15.9128 50.1001 15.6128 50.1001 14.9128C50.1001 14.7128 50.1667 14.5129 50.3 14.3129C51.2 13.4129 52.1001 12.6128 52.1001 12.6128H52.2H52.3C52.5667 12.6128 52.8334 12.7128 53.1001 12.9128C53.6001 13.2128 53.9001 13.7129 54.1001 14.3129V14.4128V14.5128C53.8001 15.0128 52.3 16.6128 52.2 16.6128ZM50.5 14.5128C50.4333 14.5795 50.4001 14.6795 50.4001 14.8129C50.4001 15.3129 51.4 15.6128 51.8 15.7128C51.8 15.7128 52.1 16.2129 52.2 16.3129C52.6 16.0129 53.5 15.0128 53.8 14.5128C53.6667 13.9128 53.3668 13.4794 52.9001 13.2128C52.6335 13.0128 52.4 12.9128 52.2 12.9128C52 13.1128 51.2 13.7128 50.5 14.5128Z" fill="url(#paint12_linear_239_65736)"/>
<path d="M52.8 16.3129C52.8 17.4129 52 18.2128 51 18.1128C50 18.0128 49.2 16.9129 49.2 15.8129C49.2 14.6129 50 13.8128 51 13.9128C52 14.1128 52.8 15.1129 52.8 16.3129Z" fill="#B2B2B1"/>
<path fill-rule="evenodd" clip-rule="evenodd" d="M51.8 18.1128C51.5334 18.2461 51.2667 18.2794 51 18.2127C49.9 18.1127 49.1001 17.0128 49.1001 15.8128C49.1001 15.2128 49.3 14.7128 49.7 14.3128C50.1 13.9128 50.6001 13.7128 51.1001 13.8128C52.1001 13.9128 53 15.0127 53 16.2127C53 16.8127 52.8001 17.4127 52.4001 17.7127C52.2001 17.9127 52 18.0461 51.8 18.1128ZM50.2 14.2127C50.0666 14.2794 49.9334 14.3795 49.8 14.5128C49.5 14.8128 49.4001 15.2127 49.4001 15.7127C49.4001 16.8127 50.1001 17.8128 51.1001 18.0128C51.5001 18.0128 51.9 17.9128 52.2 17.6128C52.5 17.3128 52.7 16.8128 52.7 16.3128C52.7 15.2128 51.9 14.2128 51 14.1128C50.7333 14.0461 50.4666 14.0794 50.2 14.2127Z" fill="url(#paint13_linear_239_65736)"/>
<path d="M20 10.3129L22.6001 10.6128L21 21.5128L18 21.0128L19.2 13.2128C18.4666 13.2794 17.8 13.3462 17.2 13.4128L17.7 10.5128L20 10.3129Z" fill="#050505"/>
<path d="M23.9001 10.8129L30.6001 11.9128L30.3 14.1128L25.7 22.2128L22.4001 21.7128L26.8 14.1128L23.5 13.6128L23.9001 10.8129Z" fill="#050505"/>
<path d="M21.7 9.11279L24.3 9.51282L22.6001 20.3129L19.6001 19.8129L20.8 12.0128C20.0667 12.0795 19.4335 12.1461 18.9001 12.2128L19.3 9.31287L21.7 9.11279Z" fill="#FEFEFE"/>
<path d="M25.5 9.61279L32.2 10.7128L31.9001 12.9128L27.3 21.0128L24.1001 20.5128L28.4001 12.9128L25.1001 12.4128L25.5 9.61279Z" fill="#FEFEFE"/>
<path d="M62.9001 58.3129L6.40015 53.4128L6.6001 48.7128L63.5 53.6128L62.9001 58.3129Z" fill="#7358A4"/>
<path fill-rule="evenodd" clip-rule="evenodd" d="M20.1001 38.9128C21.0001 39.0128 22 39.1128 21.3 42.0128C20.7 44.6128 19.8001 44.6128 18.4001 44.5128H17.9001L19.3 38.8129L20.1001 38.9128ZM19.8 39.6128L18.8 43.9128C20 44.1128 20.2 42.9128 20.5 41.9128C20.7 41.1128 21.1 39.6128 19.8 39.6128Z" fill="#FEFEFE"/>
<path d="M22 44.8129L21.2 44.7128L22.6001 39.1128L23.3 39.2128L22 44.8129ZM23 38.9128L22.7 38.6128L23.6001 37.5128L24 37.9128L23 38.9128Z" fill="#FEFEFE"/>
<path fill-rule="evenodd" clip-rule="evenodd" d="M25.5 39.3129L25.4001 45.0128H24.6001V43.9128L23.5 43.8129L23 44.9128L22.3 44.8129L24.9001 39.3129H25.5ZM24.7 42.4128L24.9001 40.3129L23.8 43.2128H24.7V42.4128Z" fill="#FEFEFE"/>
<path d="M29.2 39.6128L29 43.7128H29.1001V43.5128L29.7 42.2128L30.8 39.7128L31.4001 39.8129L30.6001 45.4128H29.9001L30.2 43.3129L30.4001 42.2128L30.6001 41.5128L30.3 42.3129L28.9001 45.3129H28.4001L28.6001 41.3129L27.5 45.2128L26.7 45.1128L28.5 39.6128H29.2Z" fill="#FEFEFE"/>
<path d="M33.1998 39.9128L32.1998 44.0128C31.9998 44.8128 32.1999 44.9128 32.4999 45.0128C32.9999 45.0128 33.0999 44.7128 33.2999 44.2128L34.2999 40.0128L34.9999 40.1128L34.1 44.1128C33.9 44.8128 33.7 45.8128 32.4 45.7128C31.2 45.6128 31.1999 44.7128 31.4999 43.7128L32.4 39.9128H33.1998Z" fill="#FEFEFE"/>
<path d="M36 41.8129L35.6001 43.7128L35.2 45.8129L34.4001 45.7128L35.7 40.1128L36.5 40.2128L36.8 44.5128L37.2 42.3129L37.6001 40.3129H38.4001L37 45.9128H36.3L36 41.5128V41.8129Z" fill="#FEFEFE"/>
<path fill-rule="evenodd" clip-rule="evenodd" d="M40 40.4128C40.8 40.5128 41.8 40.7128 41.2 43.5128C40.6 46.1128 39.6 46.1128 38.3 46.0128H37.8L39.1001 40.4128H40ZM39.8 41.0128L38.7 45.4128C40 45.5128 40.2001 44.3128 40.4001 43.4128C40.6001 42.5128 41.1 41.0128 39.8 41.0128Z" fill="#FEFEFE"/>
<path d="M41.9001 46.3129H41.1001L42.4001 40.6128L43.2 40.7128L41.9001 46.3129Z" fill="#FEFEFE"/>
<path fill-rule="evenodd" clip-rule="evenodd" d="M45.3 40.9128L45.2 46.6128L44.5 46.5128V45.4128L43.4001 45.3129L42.9001 46.4128L42.2 46.3129L44.7 40.8129L45.3 40.9128ZM44.6001 44.0128L44.8 42.0128L43.6001 44.8129L44.5 44.9128L44.6001 44.0128Z" fill="#FEFEFE"/>
<path d="M47.6001 41.0128L46.4001 46.0128L47.7 46.1128L47.5 46.8129L45.5 46.6128L46.9001 41.0128H47.6001Z" fill="#FEFEFE"/>
<path fill-rule="evenodd" clip-rule="evenodd" d="M51.4001 41.3129C52.3001 41.4129 53.3001 41.5128 52.6001 44.4128C52.0001 47.0128 51.1 47.0128 49.7 46.9128H49.2L50.5 41.3129H51.4001ZM51.2 41.9128L50.1001 46.2128C51.4001 46.4128 51.6 45.2129 51.8 44.3129C52 43.4129 52.5 41.9128 51.2 41.9128Z" fill="#FEFEFE"/>
<path d="M55.9001 41.7128L55.7 42.3129L54.5 42.2128L54 44.0128L55.2 44.1128L55 44.7128L53.9001 44.6128L53.4001 46.6128L54.7 46.7128L54.5 47.3129L52.5 47.1128L53.9001 41.5128L55.9001 41.7128Z" fill="#FEFEFE"/>
<path d="M7.5 54.5128L9.1001 47.1128L11.4001 47.2128L9.69995 54.6128L7.5 54.5128Z" fill="#FEFEFE"/>
<path d="M19.2 47.8129L17.6001 55.2128L15.5 55.1128L13.9001 51.7128L13.2 54.9128L10.9001 54.7128L12.5 47.3129L14.6001 47.5128L16.3 50.9128L17 47.7128L19.2 47.8129Z" fill="#FEFEFE"/>
<path d="M21.7 50.2128L19.6001 50.0128L20.1001 47.9128L26.4001 48.4128L26 50.5128L23.9001 50.3129L22.7 55.6128L20.5 55.5128L21.7 50.2128Z" fill="#FEFEFE"/>
<path d="M29.1001 50.7128L28.9001 51.4128L31.9001 51.7128L31.4001 53.6128L28.5 53.3129L28.4001 54.0128L31.5 54.2128L31.1001 56.3129L25.7 55.9128L27.3 48.5128L32.7 48.9128L32.3 51.0128L29.1001 50.7128Z" fill="#FEFEFE"/>
<path fill-rule="evenodd" clip-rule="evenodd" d="M38.8 56.9128L36.1001 56.7128L35 54.7128H34.8L34.4001 56.5128L32.1001 56.4128L33.8 49.0128L36.8 49.2128C36.9 49.2128 37.0001 49.2129 37.4001 49.3129C37.8001 49.4129 38.1 49.6128 38.5 49.9128C38.9 50.2128 39.2 50.6128 39.3 51.2128C39.3 51.5461 39.2666 51.8794 39.2 52.2128C39 53.2794 38.4333 54.0128 37.5 54.4128L38.8 56.9128ZM35.5 51.2128L35.2 52.6128L36 52.7128C36.4 52.7128 36.6667 52.5128 36.8 52.1128C36.9 51.6128 36.7 51.3129 36.3 51.3129L35.5 51.2128Z" fill="#FEFEFE"/>
<path d="M47.8 50.1128L46.1001 57.5128L44.1001 57.3129L42.4001 53.9128L41.7 57.1128L39.5 56.9128L41.1001 49.5128L43.1001 49.7128L44.8 53.1128L45.5 49.9128L47.8 50.1128Z" fill="#FEFEFE"/>
<path d="M50.7 52.4128L50.6001 53.1128L53.5 53.3129L53.1001 55.2128L50.1001 55.0128L50 55.6128L53.2 55.9128L52.7 58.0128L47.3 57.6128L48.9001 50.2128L54.4001 50.6128L53.9001 52.7128L50.7 52.4128Z" fill="#FEFEFE"/>
<path d="M56.7 52.9128L54.6001 52.7128L55.1001 50.6128L61.5 51.1128L61 53.2128L58.9001 53.0128L57.8 58.4128L55.5 58.2128L56.7 52.9128Z" fill="#FEFEFE"/>
</g>
<defs>
<linearGradient id="paint0_linear_239_65736" x1="47.3001" y1="17.8129" x2="52" y2="32.4129" gradientUnits="userSpaceOnUse">
<stop stop-color="#7650A0"/>
<stop offset="1" stop-color="#593594"/>
</linearGradient>
<linearGradient id="paint1_linear_239_65736" x1="45.6002" y1="10.6128" x2="52.3002" y2="34.0129" gradientUnits="userSpaceOnUse">
<stop stop-color="#7F58A4"/>
<stop offset="1" stop-color="#6F4C9E"/>
</linearGradient>
<linearGradient id="paint2_linear_239_65736" x1="42" y1="12.9127" x2="55.7001" y2="37.5128" gradientUnits="userSpaceOnUse">
<stop stop-color="#7F58A4"/>
<stop offset="1" stop-color="#6F4C9E"/>
</linearGradient>
<linearGradient id="paint3_linear_239_65736" x1="41.1" y1="-0.187194" x2="65.8" y2="0.0128063" gradientUnits="userSpaceOnUse">
<stop stop-color="#7650A0"/>
<stop offset="1" stop-color="#593594"/>
</linearGradient>
<linearGradient id="paint4_linear_239_65736" x1="38.9002" y1="-0.0871522" x2="65.3" y2="0.112846" gradientUnits="userSpaceOnUse">
<stop stop-color="#7F58A4"/>
<stop offset="1" stop-color="#6F4C9E"/>
</linearGradient>
<linearGradient id="paint5_linear_239_65736" x1="44.9001" y1="5.41287" x2="58.6001" y2="5.41287" gradientUnits="userSpaceOnUse">
<stop stop-color="#7650A0"/>
<stop offset="1" stop-color="#593594"/>
</linearGradient>
<linearGradient id="paint6_linear_239_65736" x1="46" y1="5.41283" x2="58.3" y2="5.41283" gradientUnits="userSpaceOnUse">
<stop stop-color="#7650A0"/>
<stop offset="1" stop-color="#593594"/>
</linearGradient>
<linearGradient id="paint7_linear_239_65736" x1="44.7999" y1="6.7128" x2="57.4" y2="6.7128" gradientUnits="userSpaceOnUse">
<stop stop-color="#7650A0"/>
<stop offset="1" stop-color="#593594"/>
</linearGradient>
<linearGradient id="paint8_linear_239_65736" x1="47" y1="9.01284" x2="56.5001" y2="9.01284" gradientUnits="userSpaceOnUse">
<stop stop-color="#7650A0"/>
<stop offset="1" stop-color="#593594"/>
</linearGradient>
<linearGradient id="paint9_linear_239_65736" x1="48.6001" y1="9.01274" x2="56.3" y2="9.01274" gradientUnits="userSpaceOnUse">
<stop stop-color="#7650A0"/>
<stop offset="1" stop-color="#593594"/>
</linearGradient>
<linearGradient id="paint10_linear_239_65736" x1="46.7999" y1="10.2129" x2="55.2999" y2="10.2129" gradientUnits="userSpaceOnUse">
<stop stop-color="#7650A0"/>
<stop offset="1" stop-color="#593594"/>
</linearGradient>
<linearGradient id="paint11_linear_239_65736" x1="49.3999" y1="12.6128" x2="54.2001" y2="12.6128" gradientUnits="userSpaceOnUse">
<stop stop-color="#7650A0"/>
<stop offset="1" stop-color="#593594"/>
</linearGradient>
<linearGradient id="paint12_linear_239_65736" x1="50.1001" y1="12.6128" x2="54.1001" y2="12.6128" gradientUnits="userSpaceOnUse">
<stop stop-color="#7650A0"/>
<stop offset="1" stop-color="#593594"/>
</linearGradient>
<linearGradient id="paint13_linear_239_65736" x1="49.1001" y1="13.8128" x2="53" y2="13.8128" gradientUnits="userSpaceOnUse">
<stop stop-color="#7650A0"/>
<stop offset="1" stop-color="#593594"/>
</linearGradient>
<clipPath id="clip0_239_65736">
<rect width="71" height="73" fill="white"/>
</clipPath>
</defs>
</svg>
