<svg width="95" height="86" viewBox="0 0 95 86" fill="none"
    xmlns="http://www.w3.org/2000/svg">
    <path d="M76.9 59.93C72.4 77.93 53.3 89.0299 34.3 84.5299C15.4 80.0299 3.60002 61.8298 8.20002 43.7298C12.7 25.6298 31.8 14.63 50.7 19.13C69.7 23.63 81.4 41.83 76.9 59.93Z" fill="#116432"/>
    <path d="M76.9 59.93C72.4 77.93 53.3 89.0299 34.3 84.5299C15.4 80.0299 3.60002 61.8298 8.20002 43.7298C12.7 25.6298 31.8 14.63 50.7 19.13C69.7 23.63 81.4 41.83 76.9 59.93Z" fill="#7C265A"/>
    <mask id="mask0_153_4810" style="mask-type:luminance" maskUnits="userSpaceOnUse" x="7" y="18" width="71" height="68">
        <path d="M76.89 59.9199C72.36 77.9799 53.3 88.9997 34.33 84.5297C15.36 80.0697 3.65001 61.7997 8.18001 43.7397C12.71 25.6797 31.76 14.6498 50.74 19.1198C69.71 23.5898 81.42 41.8499 76.89 59.9199Z" fill="white"/>
    </mask>
    <g mask="url(#mask0_153_4810)">
        <path d="M66 80.4299C66.2667 80.2299 66.5667 79.9964 66.9 79.7297L29.6 23.9299C29.2667 24.1299 28.9334 24.2966 28.6 24.4299L66 80.4299Z" fill="#ED4592" stroke="#7C265A" stroke-width="0.5"/>
        <path d="M74.7 70.6299C74.9 70.2966 75.1 69.9632 75.3 69.6299L42.8 21.0298C42.4 21.0298 42 21.0632 41.6 21.1299L74.7 70.6299Z" fill="#ED4592" stroke="#7C265A" stroke-width="0.5"/>
        <path d="M69.2 77.6299C69.4667 77.3632 69.7334 77.0965 70 76.8298L33.7 22.5298C33.3 22.5965 32.9334 22.6965 32.6 22.8298L69.2 77.6299Z" fill="#ED4592" stroke="#7C265A" stroke-width="0.5"/>
        <path d="M72.1 74.4299C72.3667 74.0966 72.6 73.7965 72.8 73.5298L38.1 21.5298C37.7 21.5965 37.3 21.6631 36.9 21.7297L72.1 74.4299Z" fill="#ED4592" stroke="#7C265A" stroke-width="0.5"/>
        <path d="M76.8001 66.2297C77.0001 65.8297 77.1667 65.4298 77.3001 65.0298L48.1001 21.3298C47.6334 21.2632 47.1667 21.1965 46.7001 21.1299L76.8001 66.2297Z" fill="#ED4592" stroke="#7C265A" stroke-width="0.5"/>
        <path d="M63 82.5298C63.1334 82.3965 63.2667 82.2964 63.4 82.2297L25.8 25.9299C25.6 25.9966 25.4334 26.0632 25.3 26.1299C25.1667 26.2632 25.0334 26.3633 24.9 26.4299L62.5 82.7297C62.6334 82.6631 62.8 82.5965 63 82.5298Z" fill="#ED4592" stroke="#7C265A" stroke-width="0.5"/>
        <path d="M78.4 61.0298C78.4667 60.4965 78.5667 59.9633 78.7 59.4299L53.9 22.4299C53.3667 22.2966 52.8334 22.1631 52.3 22.0298L78.4 61.0298Z" fill="#ED4592" stroke="#7C265A" stroke-width="0.5"/>
        <path d="M58.9 24.3298L79 54.3298C79 53.6632 79 52.9965 79 52.3298L60.8 25.2297C60.2 24.8964 59.5667 24.5965 58.9 24.3298Z" fill="#ED4592" stroke="#7C265A" stroke-width="0.5"/>
        <path d="M34.4 86.2297C34.9334 86.3631 35.4334 86.4965 35.9 86.6299L9.90004 47.6299C9.83337 48.1632 9.73337 48.6964 9.60004 49.2297L34.4 86.2297Z" fill="#ED4592" stroke="#7C265A" stroke-width="0.5"/>
        <path d="M40.2001 87.3298C40.6667 87.3965 41.1334 87.4631 41.6001 87.5298L11.5001 42.4299C11.3001 42.8299 11.1334 43.2299 11.0001 43.6299L40.2001 87.3298Z" fill="#ED4592" stroke="#7C265A" stroke-width="0.5"/>
        <path d="M77.3 44.2297C76.3667 41.5631 75.1 39.0299 73.5 36.6299C71.9 34.1299 70 32.0299 67.9 30.1299L77.3 44.2297Z" fill="#ED4592" stroke="#7C265A" stroke-width="0.5"/>
        <path d="M27.4 83.4299C28.0667 83.7633 28.7334 84.0632 29.4 84.3298L9.30005 54.2297C9.30005 54.9631 9.30005 55.6632 9.30005 56.3298L27.4 83.4299Z" fill="#ED4592" stroke="#7C265A" stroke-width="0.5"/>
        <path d="M54.6 86.1299C55 86.0632 55.3667 85.9632 55.7 85.8298L19.1 31.0298C18.8334 31.2965 18.5667 31.5632 18.3 31.8298L54.6 86.1299Z" fill="#ED4592" stroke="#7C265A" stroke-width="0.5"/>
        <path d="M58.7 84.6299C59.0334 84.4965 59.3667 84.3631 59.7 84.2297L22.3 28.2297C21.9667 28.4297 21.6667 28.6633 21.4 28.9299L58.7 84.6299Z" fill="#ED4592" stroke="#7C265A" stroke-width="0.5"/>
        <path d="M45.5001 87.6299C45.9001 87.5632 46.3001 87.5298 46.7001 87.5298L13.6001 38.0298C13.4001 38.3631 13.2001 38.6965 13.0001 39.0298L45.5001 87.6299Z" fill="#ED4592" stroke="#7C265A" stroke-width="0.5"/>
        <path d="M50.2001 87.1299C50.6001 87.0632 51.0001 86.9966 51.4001 86.9299L16.1001 34.2297C15.9001 34.5631 15.7001 34.8632 15.5001 35.1299L50.2001 87.1299Z" fill="#ED4592" stroke="#7C265A" stroke-width="0.5"/>
        <path d="M24.5 85.6299C25.1667 85.9632 25.8 86.2965 26.4 86.6299L6.30005 56.5298C6.30005 57.1965 6.33337 57.8631 6.40004 58.5298L24.5 85.6299Z" fill="#ED4592" stroke="#7C265A" stroke-width="0.5"/>
    </g>
    <path d="M74.2 56.43C69.7 74.53 50.7 85.53 31.7 81.13C12.7 76.63 0.999994 58.3299 5.49999 40.3299C10.1 22.2299 29.1 11.23 48.1 15.63C67.1 20.13 78.8 38.43 74.2 56.43Z" fill="#ED4997"/>
    <path opacity="0.3" d="M64.5 70.6299C64.4 72.0299 58.5 72.7298 51.5 72.0298C44.4 71.4298 38.7 69.8298 38.9 68.3298C39 66.9298 44.8 66.3299 51.9 66.9299C59 67.5299 64.6 69.2299 64.5 70.6299Z" fill="#1C1C1A"/>
    <path d="M38.9 33.8299C38.6 35.4299 39.7 36.9298 41.3 37.2298C42.9 37.4298 44.4 36.4299 44.7 34.8299C45 33.2299 43.9 31.63 42.3 31.43C40.7 31.13 39.2 32.2299 38.9 33.8299Z" fill="#050505"/>
    <path d="M64.7 38.6299C64.4 40.1299 65.4 41.5299 66.9 41.8299C68.4 42.0299 69.8 41.0298 70.1 39.5298C70.3 38.0298 69.3 36.6299 67.8 36.3299C66.3 36.1299 64.9 37.1299 64.7 38.6299Z" fill="#050505"/>
    <path d="M33.4 29.8299C33 32.0299 34.5 34.03 36.6 34.43C38.8 34.83 40.9 33.3299 41.2 31.1299C41.6 29.0299 40.1 26.9299 38 26.6299C35.8 26.2299 33.8 27.7299 33.4 29.8299Z" fill="#050505"/>
    <path d="M69.6 34.3299C68.4 36.3299 68.9 38.9299 70.8 40.0299C72.6 41.0299 75.1 40.2298 76.3 38.2298C77.5 36.1298 76.9 33.6299 75.1 32.5299C73.3 31.4299 70.8 32.2299 69.6 34.3299Z" fill="#050505"/>
    <path d="M35.5 19.1298C33.8 29.1298 42 38.8296 53.7 40.7296C65.5 42.7296 76.4 36.3297 78.1 26.3297C79.8 16.3297 71.6 6.72963 59.8 4.72963C48.1 2.72963 37.2 9.22978 35.5 19.1298Z" fill="#050505"/>
    <path d="M69.2 38.0298C69.7 39.0298 69.3 40.3298 68.4 40.8298C67.4 41.3298 66.2 40.9299 65.6 39.9299" stroke="#3F1D13" stroke-width="0.5"/>
    <path d="M74.7 33.7297C76 34.8297 76.2 36.8297 75.1 38.2297C74 39.5297 72 39.6298 70.6 38.5298" stroke="#3F1D13" stroke-width="0.5"/>
    <path d="M38.8 27.6299C40.1 28.7299 40.4 30.6299 39.3 31.9299C38.2 33.1299 36.2 33.2299 34.9 32.1299" stroke="#3F1D13" stroke-width="0.5"/>
    <path d="M42.2 36.3298C41 36.4298 40 35.4297 39.9 34.2297" stroke="#3F1D13" stroke-width="0.5"/>
    <path d="M35.9 36.7296C38.4 40.3296 41.5 42.4296 44.9 44.2296C48.3 45.9296 50.8 41.2297 47.4 39.5297C44 37.8297 42.6 36.9297 40.2 33.8297C39.7 33.1297 38.2 32.5296 36.7 33.7296C35.3 34.7296 35.4 36.1296 35.9 36.7296Z" fill="#803531" stroke="#050505" stroke-width="0.5" stroke-linecap="round" stroke-linejoin="round"/>
    <path opacity="0.4" d="M35.9 36.7297C38.4 40.3297 41.5 42.4297 44.9 44.2297C48.3 45.9297 50.8 41.2298 47.4 39.5298C46.1 38.8298 44.1 42.1299 42.7 41.4299C40.7 40.4299 38.1 38.0297 36.6 36.2297C36.1 35.5297 36 34.5297 36.7 33.7297C35.3 34.7297 35.4 36.1297 35.9 36.7297Z" fill="#050505"/>
    <g style="mix-blend-mode:multiply" opacity="0.2">
        <path d="M41.8 36.8298C41.8 36.8298 41 37.5297 41.5 38.2297C41.5 38.2297 40.8 38.2298 40.5 39.0298C40.2 39.8298 40.8 40.0298 40.8 40.0298C40.8 40.0298 40.1 39.9297 39.9 40.2297C39.9 40.2297 39.5 40.2297 38.4 39.7297C37.3 39.2297 37.3 38.7297 37.3 38.7297C37.3 38.7297 36.7 39.6298 36.1 39.5298L36.3 40.0298L41.1 42.2297L43.5 37.3298L41.8 36.8298Z" fill="#050505"/>
    </g>
    <path d="M34.4 33.0299C33.9 34.6299 34.7 36.4301 36.2 36.9301C37.7 37.4301 39.3 36.43 39.8 34.83C40.4 33.13 39.6 31.4301 38.1 30.9301C36.6 30.4301 34.9 31.3299 34.4 33.0299Z" fill="#803531" stroke="#050505" stroke-width="0.5" stroke-linecap="round"/>
    <path d="M38.7 32.43C38.3 32.63 38.1 33.1299 38.3 33.5299C38.5 33.9299 39 34.1299 39.4 34.0299L40.3 33.6299C40.8 33.4299 41 32.93 40.8 32.43C40.6 32.03 40.1 31.8299 39.6 32.0299L38.7 32.43Z" fill="#803531" stroke="#050505" stroke-width="0.5" stroke-linecap="round"/>
    <g style="mix-blend-mode:multiply" opacity="0.2">
        <path d="M34.7 34.3298C34.7 34.3298 35.1 35.6298 36.4 35.8298C37.7 36.1298 38.4 34.5298 38.4 34.5298C38.4 34.5298 37.6 34.1299 38 33.4299C38 33.4299 38.5 34.5299 39.5 33.9299L39.9 34.6299C39.9 34.6299 39.1 37.4298 36.6 37.0298C34.2 36.5298 34.5 34.6298 34.7 34.3298Z" fill="#050505"/>
    </g>
    <path d="M46.7 65.93C46.7 65.93 44.6 63.83 44.6 61.43C44.6 59.23 45.2 57.3298 45.6 56.7298C46.6 55.2298 48.1 55.1299 49.2 55.8299C50.2 56.4299 50.8 57.43 49.7 59.13C48.8 60.93 48.8 62.0299 50.2 63.3299C51.8 64.7299 48.8 68.23 46.7 65.93Z" fill="#803531" stroke="#050505" stroke-width="0.4" stroke-linecap="round" stroke-linejoin="round"/>
    <path opacity="0.4" d="M49.3 64.13C49.3 64.13 48.3 63.3299 48.3 62.0299C48.2 60.6299 44.6 61.43 44.9 59.43C45 58.03 45.4 57.1298 45.6 56.7298C46.6 55.2298 48.1 55.1299 49.2 55.8299C50.2 56.4299 50.8 57.43 49.7 59.13C48.8 60.93 48.8 62.0299 50.2 63.3299C50.7 63.7299 50.8 65.53 49.3 64.13Z" fill="#050505"/>
    <path d="M52.4 64.7297C52.4 64.7297 52.4 64.8299 52.4 64.9299L46.3 69.9299C46.2 70.0299 46.1 70.0299 46.1 69.9299L45.8 69.6299C45.8 69.6299 45.8 69.5299 45.9 69.4299L51.9 64.3298C52 64.3298 52.1 64.3299 52.1 64.4299L52.4 64.7297Z" fill="#EE4763" stroke="#050505" stroke-width="0.4" stroke-linecap="round" stroke-linejoin="round"/>
    <path d="M47 64.2297C47 64.2297 46.4 63.5299 45.9 63.9299C45.6 64.1299 45 64.7299 44.8 64.9299C44.4 65.2299 45.1 65.4298 45.4 65.6298C45.7 65.7298 46.1 66.1297 46.1 66.5297L46.3 67.9299L47.3 67.6298L47.7 65.2297L47 64.2297Z" fill="#EE4763" stroke="#050505" stroke-width="0.4" stroke-linecap="round" stroke-linejoin="round"/>
    <path d="M51.9 64.3297C51.9 64.3297 51 63.2298 50.8 62.9298C50.5 62.6298 50.2 62.6298 49.8 62.9298C49.5 63.2298 49.4 63.7297 48.5 64.0297C47.6 64.2297 47.4 64.1296 47 64.2296C46.6 64.3296 46.7 64.5298 46.9 64.9298L47.3 65.7296L47 67.7296L47.4 68.1298L51.9 64.3297Z" fill="#F69226" stroke="#050505" stroke-width="0.4" stroke-linecap="round" stroke-linejoin="round"/>
    <path d="M45.9 69.43C45.7 69.23 46 68.13 46.3 67.93C47 67.33 48 67.6299 48 67.6299L45.9 69.43Z" fill="#FEFEFE" stroke="#050505" stroke-width="0.4" stroke-linecap="round" stroke-linejoin="round"/>
    <path d="M47.7 65.5299C47.1 65.4299 46.1 66.03 45.9 66.43" stroke="#050505" stroke-width="0.4" stroke-linecap="round" stroke-linejoin="round"/>
    <path d="M47.5 66.2296C46.9 66.1296 46.2 66.7297 46 67.0297" stroke="#050505" stroke-width="0.4" stroke-linecap="round" stroke-linejoin="round"/>
    <path d="M47.4 66.9298C46.8 66.8298 46.2 67.2298 46 67.6298" stroke="#050505" stroke-width="0.4" stroke-linecap="round" stroke-linejoin="round"/>
    <path d="M49.1 64.6299C48.6 65.0299 48.4 65.3298 48.3 65.8298L48 67.6299L48.8 67.0298L48.9 65.8298C48.9667 65.6298 49.1667 65.3965 49.5 65.1299C49.7 64.9299 51.3 63.6299 51.3 63.6299L50.9 63.1299C50.9 63.1299 49.3 64.5299 49.1 64.6299Z" fill="#EE4763" stroke="#050505" stroke-width="0.4" stroke-linecap="round" stroke-linejoin="round"/>
    <path d="M42.5 53.63L40.9 57.5299C43.3 59.1299 46.9 60.33 50.9 61.33L51.9 57.8299C52.6 55.8299 50.9 53.73 48.6 52.63C46.3 51.63 43.4 51.63 42.5 53.63Z" fill="#EE4763" stroke="#050505" stroke-width="0.4" stroke-linecap="round" stroke-linejoin="round"/>
    <path d="M41.8 56.9299C41.8 56.9299 43.6 58.5299 50.6 60.4299" stroke="#A0C7E9" stroke-width="0.4" stroke-linecap="round" stroke-linejoin="round" stroke-dasharray="0.8 0.8"/>
    <path opacity="0.4" d="M42.5001 53.63C41.7001 55.93 45.3001 59.6299 46.4001 60.0299C47.8001 60.6299 49.3001 60.93 50.9001 61.33L51.9001 57.8299C52.6 55.8299 50.9 53.73 48.6 52.63C46.3 51.63 43.4001 51.63 42.5001 53.63Z" fill="#050505"/>
    <path d="M51.7 68.0298C51.7 68.0298 51.9 62.6299 51.8 61.1299C51.8 59.2299 53.1 58.4299 54.4 58.4299C55.6 58.4299 56.6 59.1299 56.6 61.1299C56.6 63.1299 56.6 68.0298 56.6 68.0298C56.6 71.1298 51.5 71.1298 51.7 68.0298Z" fill="#803531" stroke="#050505" stroke-width="0.4" stroke-linecap="round" stroke-linejoin="round"/>
    <path opacity="0.4" d="M55.3 67.9299C55.1 69.5299 52.6 70.3298 54 70.3298C55.3 70.2298 56.6 69.5298 56.6 68.0298C56.6 68.0298 56.6 63.1299 56.6 61.1299C56.6 59.1299 55.6 58.4299 54.4 58.4299C53.1 58.4299 51.8 59.2299 51.8 61.1299C51.9 63.2299 55 62.0298 55 63.3298C55 63.9298 55.5 66.7299 55.3 67.9299Z" fill="#050505"/>
    <path d="M59.9 56.9298L60.3 60.2297C57.6 61.2297 53.8 61.4298 49.7 61.4298L49.4 59.1298C49.2 56.9298 51.5 54.9297 54 54.5297C56.5 54.1297 59.6 54.8298 59.9 56.9298Z" fill="#EE4763" stroke="#050505" stroke-width="0.4" stroke-linecap="round" stroke-linejoin="round"/>
    <path d="M59.6 59.4299C59.6 59.4299 57.4 60.6299 50.1 60.6299" stroke="#A0C7E9" stroke-width="0.4" stroke-linecap="round" stroke-linejoin="round" stroke-dasharray="0.8 0.8"/>
    <path opacity="0.4" d="M59.9 56.9298L60.3 60.2297C59.4333 60.4963 58.5 60.7298 57.5 60.9298C57.5 57.8298 57 54.7297 54 54.5297C56.5 54.1297 59.6 54.8298 59.9 56.9298Z" fill="#050505"/>
    <path d="M51.1 70.4299L51.2 70.5298H59.1C59.2 70.5298 59.3 70.4298 59.3 70.3298V69.9299C59.3 69.9299 59.2 69.8298 59.1 69.8298H51.2C51.2 69.8298 51.1 69.9298 51.1 70.0298V70.4299Z" fill="#EE4763" stroke="#050505" stroke-width="0.4" stroke-linecap="round" stroke-linejoin="round"/>
    <path d="M54.9 66.6299C54.9 66.6299 54.9 65.7299 55.6 65.6299C55.9 65.6299 56.8 65.6299 57 65.6299C57.5 65.6299 57.1 66.2298 57 66.5298C56.9 66.9298 56.8 67.4298 57.1 67.8298L57.9 68.9299L56.9 69.3298L55 67.8298L54.9 66.6299Z" fill="#EE4763" stroke="#050505" stroke-width="0.4" stroke-linecap="round" stroke-linejoin="round"/>
    <path d="M51.2 69.8299C51.2 69.8299 51.2 68.4299 51.2 68.0299C51.2 67.6299 51.4999 67.43 51.8999 67.43C52.2999 67.43 52.6999 67.7299 53.5999 67.3299C54.3999 66.9299 54.4999 66.73 54.8999 66.63C55.2999 66.43 55.2999 66.6299 55.3999 67.0299L55.5999 67.8299L57.2 69.2298V69.8299H51.2Z" fill="#F69226" stroke="#050505" stroke-width="0.4" stroke-linecap="round" stroke-linejoin="round"/>
    <path d="M59.1 69.8298C59.1 69.5298 58.2 68.9299 57.9 68.9299C56.9 68.9299 56.4 69.8298 56.4 69.8298H59.1Z" fill="#FEFEFE" stroke="#050505" stroke-width="0.4" stroke-linecap="round" stroke-linejoin="round"/>
    <path d="M55.2 68.0297C55.6 67.5297 56.6999 67.4297 57.0999 67.5297" stroke="#050505" stroke-width="0.4" stroke-linecap="round" stroke-linejoin="round"/>
    <path d="M55.8 68.4299C56.2 67.9299 57.1 67.9298 57.5 68.0298" stroke="#050505" stroke-width="0.4" stroke-linecap="round" stroke-linejoin="round"/>
    <path d="M56.3 68.93C56.7 68.43 57.5 68.3299 57.8 68.5299" stroke="#050505" stroke-width="0.4" stroke-linecap="round" stroke-linejoin="round"/>
    <path d="M53.5999 68.2297C54.1999 68.2297 54.4999 68.3299 54.8999 68.6299L56.3999 69.8298H55.3999L54.5 69.0298C54.3666 68.8965 54.0666 68.8298 53.5999 68.8298C53.2999 68.8298 51.2 68.8298 51.2 68.8298V68.2297C51.2 68.2297 53.2999 68.2297 53.5999 68.2297Z" fill="#EE4763" stroke="#050505" stroke-width="0.4" stroke-linecap="round" stroke-linejoin="round"/>
    <path d="M51.1 57.93C43.9 56.73 43.5 53.9298 43.4 51.7298C43.6 48.0298 45.3 42.03 46.2 39.93C47.7 36.53 50.8 35.6299 54.8 36.3299C58.8 36.9299 62.1 38.8299 61.7 42.5299C61.3 45.6299 60.3 51.2299 60.5 54.5299C59.8 57.8299 58.4 59.13 51.1 57.93Z" fill="#F69226" stroke="#050505" stroke-width="0.4" stroke-linecap="round" stroke-linejoin="round"/>
    <path opacity="0.4" d="M51.1 57.9299C45.1 56.9299 50.9 46.5299 54.9 46.6299C54.9 46.6299 55.8 50.5298 56 51.8298C56.4 53.6298 58.2 54.0299 58.2 51.9299C58.1 48.0299 56.3 45.4297 58.4 42.2297C60.4 39.0297 50.8 35.6298 54.8 36.3298C58.8 36.9298 62.1 38.8298 61.7 42.5298C61.3 45.6298 60.3 51.2298 60.5 54.5298C59.9 57.7298 58.4 59.1299 51.1 57.9299Z" fill="#050505"/>
    <path d="M49.4 38.2296C48.1 40.8296 48.4 43.1297 50.6 43.5297C52.9 43.9297 55.8 42.1297 57.1 39.5297C58.4 37.0297 57.5 36.7297 55.2 36.3297C52.9 35.9297 50.7 35.7296 49.4 38.2296Z" fill="#803531" stroke="#050505" stroke-width="0.4"/>
    <path d="M45.2 45.6299C45.7 42.9299 46.5 39.6299 49 36.6299L50.2 37.9299C47.9 40.5299 47.3 43.5298 46.8 46.0298L45.2 45.6299Z" fill="#EE4763" stroke="#050505" stroke-width="0.4" stroke-linecap="round" stroke-linejoin="round"/>
    <path d="M42.8 52.1299C43.6 49.4299 45.4 45.4299 45.4 45.4299C45.4 45.4299 47.3 46.2298 49.3 46.5298C51.3 46.9298 54.4 46.9299 54.4 46.9299L55.7 54.1299C55.7 54.1299 59.2 54.8299 60.7 54.1299C60.6 55.5299 60.3 56.5298 60 57.8298C58.9 59.3298 53.1 59.2299 49.9 58.6299C45.7 57.9299 41.5 56.7299 42.8 52.1299Z" fill="#EE4763"/>
    <path opacity="0.4" d="M57.3 54.3298C57.3 54.3298 59.6 54.5299 60.7 54.1299C60.6 55.5299 60.3 56.5298 60 57.8298C59.6 58.4298 58.6 58.7299 57.3 58.9299C57.9 57.7299 57.8 55.1298 57.3 54.3298Z" fill="#050505"/>
    <path d="M60 57.8298C60.2 56.6298 60.6 55.3299 60.7 54.1299C59.2 54.8299 55.7 54.1299 55.7 54.1299L54.4 46.9299C54.4 46.9299 51.3 46.9298 49.3 46.5298C47.3 46.2298 45.4 45.4299 45.4 45.4299C45.4 45.4299 43.6 49.4299 42.8 52.1299C41.5 56.7299 45.7 57.9299 49.9 58.6299" stroke="#050505" stroke-width="0.4" stroke-linecap="round" stroke-linejoin="round"/>
    <path d="M53.2 46.8298C53.7 43.8298 56.2 40.8297 59.2 37.7297L60.6 39.3298C57.9 42.0298 55.7 44.5298 55.2 47.3298L53.2 46.8298Z" fill="#EE4763" stroke="#050505" stroke-width="0.4" stroke-linecap="round" stroke-linejoin="round"/>
    <path d="M55.6 47.43C55.4 48.13 54.8 48.63 54 48.43C53.3 48.33 52.8 47.63 52.9 46.93C53.1 46.23 53.7 45.7299 54.5 45.8299C55.2 46.0299 55.7 46.63 55.6 47.43Z" fill="#6ECFF5" stroke="#050505" stroke-width="0.4" stroke-linecap="round" stroke-linejoin="round"/>
    <path opacity="0.4" d="M55 48.2297C54.4 48.6297 53.6 48.5299 53.2 47.9299C53.2 47.9299 54.1 48.2298 54.7 47.8298C55.3 47.3298 55.3 46.4299 55.3 46.4299C55.8 47.0299 55.6 47.8297 55 48.2297Z" fill="#050505"/>
    <path d="M46.7 46.1298C46.4 46.7298 45.8 47.1299 45.3 46.9299C44.8 46.8299 44.6 46.0299 44.8 45.4299C45.1 44.7299 45.7 44.3297 46.2 44.5297C46.7 44.7297 46.9 45.4298 46.7 46.1298Z" fill="#6ECFF5" stroke="#050505" stroke-width="0.4" stroke-linecap="round" stroke-linejoin="round"/>
    <path opacity="0.4" d="M46.1 46.8298C45.5 47.2298 44.9 47.0298 44.8 46.3298C44.8 46.3298 45.4 46.7298 45.9 46.3298C46.5 46.0298 46.7 45.1299 46.7 45.1299C46.9 45.7299 46.6 46.5298 46.1 46.8298Z" fill="#050505"/>
    <path d="M53.8 54.2297H54.2L54.1 53.8298" stroke="#A0C7E9" stroke-width="0.4" stroke-linecap="round" stroke-linejoin="round"/>
    <path d="M54 52.9299L53.5 49.9299" stroke="#A0C7E9" stroke-width="0.4" stroke-linecap="round" stroke-linejoin="round" stroke-dasharray="0.8 0.8"/>
    <path d="M53.4 49.4299L53.3 49.1299L53 49.0298" stroke="#A0C7E9" stroke-width="0.4" stroke-linecap="round" stroke-linejoin="round"/>
    <path d="M52.2 48.9299L49.4 48.4299L46 47.8298" stroke="#A0C7E9" stroke-width="0.4" stroke-linecap="round" stroke-linejoin="round" stroke-dasharray="0.8 0.8"/>
    <path d="M45.6 47.8298L45.3 47.7297L45.1 48.0298" stroke="#A0C7E9" stroke-width="0.4" stroke-linecap="round" stroke-linejoin="round"/>
    <path d="M44.8 48.8298L43.7 51.6299" stroke="#A0C7E9" stroke-width="0.4" stroke-linecap="round" stroke-linejoin="round" stroke-dasharray="0.8 0.8"/>
    <path d="M43.5 52.0298L43.4 52.4299L43.7 52.5298" stroke="#A0C7E9" stroke-width="0.4" stroke-linecap="round" stroke-linejoin="round"/>
    <path d="M44.3 52.9299L48.2 55.2297L53.4 54.3298" stroke="#A0C7E9" stroke-width="0.4" stroke-linecap="round" stroke-linejoin="round" stroke-dasharray="0.8 0.8"/>
    <path opacity="0.4" d="M61.6 39.93C55.2 46.73 45 41.03 47.1 38.43C50.5 34.23 63.4 38.03 61.6 39.93Z" fill="#050505"/>
    <path d="M70.6 50.5297C66.2 50.2297 62.7 48.7296 59.5 46.7296C56.2 44.8296 58.9 40.2296 62.1 42.2296C65.4 44.1296 66.9 44.8296 70.7 45.2296C71.6 45.3296 72.9 46.3298 72.7 48.1298C72.5 49.9298 71.3 50.5297 70.6 50.5297Z" fill="#803531" stroke="#050505" stroke-width="0.5" stroke-linecap="round" stroke-linejoin="round"/>
    <path opacity="0.4" d="M70.6 50.5297C66.2 50.2297 62.7 48.7296 59.5 46.7296C56.2 44.8296 58.9 40.2296 62.1 42.2296C63.4 42.9296 61.7 46.3298 63 47.1298C64.9 48.4298 68.3 49.3297 70.6 49.5297C71.5 49.6297 72.4 49.2298 72.7 48.1298C72.5 49.9298 71.3 50.5297 70.6 50.5297Z" fill="#050505"/>
    <g style="mix-blend-mode:multiply" opacity="0.2">
        <path d="M67.4 45.5298C67.4 45.5298 67.2 46.5298 66.3 46.5298C66.3 46.5298 66.7 47.0297 66.2 47.7297C65.7 48.4297 65.2 48.0298 65.2 48.0298C65.2 48.0298 65.6 48.5299 65.5 48.9299C65.5 48.9299 65.7 49.2299 66.7 49.9299C67.7 50.5299 68.1 50.3298 68.1 50.3298C68.1 50.3298 67.7 51.2298 68.1 51.8298H67.6L63.2 48.9299L66.1 44.3298L67.4 45.5298Z" fill="#050505"/>
    </g>
    <path d="M70.7 45.2298C71.5 45.3298 72.5 45.4298 73.8 44.7298C75.3 43.9298 76.8 43.5299 77.2 44.0299C77.7 44.9299 75.4 45.9299 75.1 47.3299C74.9 48.7299 74.4 50.1299 72.7 50.5299C72.1 50.6632 71.4333 50.6632 70.7 50.5299" fill="#803531"/>
    <path d="M70.7 45.2298C71.5 45.3298 72.5 45.4298 73.8 44.7298C75.3 43.9298 76.8 43.5299 77.2 44.0299C77.7 44.9299 75.4 45.9299 75.1 47.3299C74.9 48.7299 74.4 50.1299 72.7 50.5299C72.1 50.6632 71.4333 50.6632 70.7 50.5299" stroke="#050505" stroke-width="0.5" stroke-linecap="round" stroke-linejoin="round"/>
    <path d="M69.1 47.63C68.9 48.93 69.7 50.1298 70.8 50.2298C71.8 50.3298 72.8 49.43 72.9 48.13C73.1 46.83 72.3 45.7299 71.3 45.5299C70.2 45.4299 69.2 46.43 69.1 47.63Z" fill="#803531"/>
    <path d="M73.8 50.0298L74.4 49.6299L76.1 49.0298C76.6 48.8298 76.8 48.2298 76.6 47.8298C76.3 47.3298 75.9 47.2297 75.7 47.2297L73.9 47.4299" fill="#803531"/>
    <path d="M73.8 50.0298L74.4 49.6299L76.1 49.0298C76.6 48.8298 76.8 48.2298 76.6 47.8298C76.3 47.3298 75.9 47.2297 75.7 47.2297L73.9 47.4299" stroke="#050505" stroke-width="0.5" stroke-linecap="round" stroke-linejoin="round"/>
    <path d="M71.2 29.1298C69.8 37.6298 64.3 43.3297 53.5 42.0297C43 40.7297 39.6 32.5297 41.1 24.0297C42.5 15.5297 50.4 9.82967 58.7 11.2297C67.1 12.6297 72.6 20.6298 71.2 29.1298Z" fill="#803531" stroke="#050505" stroke-width="0.4" stroke-linecap="round" stroke-linejoin="round"/>
    <path opacity="0.4" d="M68.5 28.5298L67.9 29.5298C67.9 29.5298 67.7 43.2298 52.7 41.8298C52.5 41.8298 52.9 41.6299 53.5 41.9299C53.5 41.9966 53.5 42.0298 53.5 42.0298C64.3 43.3298 69.8 37.6299 71.2 29.1299C71.6 26.8299 71.5 24.5299 70.9 22.4299C70 23.8299 68.5 28.5298 68.5 28.5298Z" fill="#050505"/>
    <path d="M52.6 31.13C52.6 31.13 52.4 26.7299 46.7 27.3299C46.7 27.3299 46.1 30.6299 48.9 31.5299C51.7 32.3299 52.6 31.13 52.6 31.13Z" fill="#FEFEFE"/>
    <path d="M58.4 32.5297C58.4 32.5297 59.8 28.3298 65.2 30.4298C65.2 30.4298 64.8 33.7297 61.9 33.8297C59 33.8297 58.4 32.5297 58.4 32.5297Z" fill="#FEFEFE"/>
    <path d="M57.2 33.7297C57.2 33.7297 56.3 34.9299 55 34.6299C53.7 34.4299 53 32.8298 53 32.8298C53 32.8298 54.4 33.8299 55 33.9299C55.7 34.0299 57.2 33.7297 57.2 33.7297Z" fill="#050505"/>
    <path d="M46.8 4.62982C46.5 6.82982 48 8.92977 50.4 9.32977C52.7 9.62977 54.9 8.22972 55.2 6.02972C55.6 3.82972 54 1.72977 51.7 1.32977C49.4 0.929767 47.2 2.42982 46.8 4.62982Z" fill="#050505"/>
    <path d="M66 7.92997C65.7 9.72997 66.9 11.4298 68.7 11.7298C70.5 11.9298 72.1 10.73 72.4 8.92997C72.7 7.22997 71.5 5.52977 69.7 5.22977C67.9 5.02977 66.3 6.22997 66 7.92997Z" fill="#050505"/>
    <path d="M39.7 7.62978C39.3 10.3298 41.1 12.8297 43.8 13.3297C46.5 13.7297 49 11.9296 49.5 9.22963C49.9 6.52963 48.1 4.02968 45.4 3.52968C42.7 3.12968 40.2 4.92978 39.7 7.62978Z" fill="#050505"/>
    <path d="M72.9 18.4299C72.4 21.1299 74.3 23.7297 77 24.2297C79.7 24.6297 82.3 22.8298 82.8 20.1298C83.2 17.3298 81.4 14.8298 78.7 14.3298C75.9 13.8298 73.3 15.7299 72.9 18.4299Z" fill="#050505"/>
    <path d="M53.7 5.02979C53.2 8.32979 55.9 11.6298 59.9 12.3298C63.9 13.0298 67.6 10.8299 68.1 7.42994C68.7 4.02994 65.9 0.829888 62 0.129888C58 -0.570112 54.3 1.62979 53.7 5.02979Z" fill="#050505"/>
    <path d="M68.9 11.6299C68.4 14.3299 70.3 16.9298 72.9 17.3298C75.6 17.8298 78.1 16.0298 78.6 13.3298C79 10.6298 77.2 8.12986 74.6 7.62986C71.9 7.22986 69.4 9.02986 68.9 11.6299Z" fill="#050505"/>
    <path d="M71.8 27.0299C71.3 30.0299 73.1 32.7298 75.9 33.2298C78.6 33.7298 81.3 31.7298 81.8 28.7298C82.3 25.7298 80.4 23.0299 77.7 22.5299C74.9 22.0299 72.3 24.1299 71.8 27.0299Z" fill="#050505"/>
    <path d="M30.9 21.1299C30.3 24.2299 32.2 27.0298 34.9 27.5298C37.7 28.0298 40.3 25.9299 40.8 22.8299C41.3 19.8299 39.5 16.93 36.8 16.43C34 16.03 31.4 18.1299 30.9 21.1299Z" fill="#050505"/>
    <path d="M34.5 12.2297C34 14.7297 35.7 17.1299 38.3 17.6299C40.8 18.0299 43.2 16.3298 43.6 13.8298C44 11.2298 42.3 8.92991 39.8 8.42991C37.3 8.02991 34.9 9.72971 34.5 12.2297Z" fill="#050505"/>
    <path d="M54.8 17.9298C54.4 19.9298 55.8 21.8298 57.8 22.1298C59.8 22.5298 61.7 21.1298 62.1 19.1298C62.4 17.1298 61.1 15.2297 59 14.8297C57 14.5297 55.1 15.8298 54.8 17.9298Z" fill="#050505"/>
    <path d="M47.8 17.1298C47.4 19.1298 48.8 21.1298 50.9 21.4298C53 21.8298 54.9 20.4297 55.3 18.3297C55.6 16.3297 54.2 14.3298 52.2 13.9298C50.1 13.6298 48.1 15.0298 47.8 17.1298Z" fill="#050505"/>
    <path d="M41.7 18.9298C41.4 21.0298 42.7 22.9297 44.8 23.3297C46.9 23.6297 48.8 22.2296 49.2 20.2296C49.5 18.1296 48.1 16.1297 46.1 15.8297C44 15.4297 42 16.8298 41.7 18.9298Z" fill="#050505"/>
    <path d="M38.4 23.3298C38.1 25.0298 39.2 26.5297 40.8 26.7297C42.4 27.0297 44 25.9298 44.2 24.3298C44.5 22.7298 43.4 21.2299 41.8 20.9299C40.2 20.7299 38.7 21.7298 38.4 23.3298Z" fill="#050505"/>
    <path d="M68 28.0298C67.7 29.6298 68.8 31.1299 70.4 31.4299C72 31.6299 73.5 30.6299 73.8 28.9299C74.1 27.3299 73 25.8298 71.4 25.5298C69.8 25.3298 68.3 26.4298 68 28.0298Z" fill="#050505"/>
    <path d="M65.4 24.0298C65.2 25.3298 66.1 26.5297 67.4 26.7297C68.7 26.9297 69.9 26.1298 70.1 24.8298C70.3 23.5298 69.4 22.2298 68.1 22.0298C66.9 21.8298 65.6 22.7298 65.4 24.0298Z" fill="#050505"/>
    <path d="M60.9 19.7297C60.6 21.6297 61.8 23.3298 63.7 23.6298C65.5 23.9298 67.3 22.7298 67.6 20.8298C67.9 19.0298 66.7 17.2299 64.8 16.9299C63 16.6299 61.2 17.8297 60.9 19.7297Z" fill="#050505"/>
    <path d="M70.8 30.4299L65.8 21.7297L59.5 19.2297L52.5 18.6299L47.2 20.9299L43.5 22.3298L41.2 24.8298L38.1 21.3298L38.4 13.4299L49.3 6.22974L59.3 6.82983L69.8 9.32983L76.2 18.4299L77.3 27.5298L70.8 30.4299Z" fill="#050505"/>
    <path d="M69.2 25.2296C70.2 25.3296 71.2 24.5298 71.3 23.4298C71.3 22.4298 70.5 21.4298 69.5 21.4298C68.4 21.3298 67.4 22.1296 67.4 23.2296" stroke="#3F1D13" stroke-width="0.5"/>
    <path d="M40.9 25.6298C39.8 25.4298 39 24.4299 39.2 23.4299C39.3 22.3299 40.3 21.6297 41.4 21.7297C42.5 21.9297 43.2 22.8299 43.1 23.9299" stroke="#3F1D13" stroke-width="0.5"/>
    <path d="M66.3 5.62978C66 4.12978 65 2.82968 63.4 2.02968C61.4 0.929684 59 1.22978 57.5 2.62978C57.1667 2.96312 56.9 3.32964 56.7 3.72964" stroke="#3F1D13" stroke-width="0.5"/>
    <path d="M57.7 7.82972C58.1 6.62972 59.3 6.02982 60.4 6.42982C61 6.62982 61.4 7.02967 61.7 7.52967" stroke="#3F1D13" stroke-width="0.4"/>
    <path d="M74.9 9.22974C76.6 9.82974 77.6 11.7298 77 13.5298C76.3 15.2298 74.4 16.1298 72.7 15.5298" stroke="#3F1D13" stroke-width="0.5"/>
    <path d="M67.8001 13.0297C66.0001 12.7297 64.7 11.1298 65 9.32976C65.2 7.52976 66.9 6.22971 68.7 6.52971C70.5 6.72971 71.8001 8.42966 71.5001 10.2297" stroke="#3F1D13" stroke-width="0.5"/>
    <path d="M45 13.8299C46.1 11.8299 48.6 11.33 50.6 12.43C52.5 13.63 53.1 16.1298 51.9 18.0298" stroke="#3F1D13" stroke-width="0.4"/>
    <path d="M37.5 15.1299C36.2 14.4299 35.7 12.83 36.4 11.43C37.1 10.13 38.8 9.6299 40.1 10.3299" stroke="#3F1D13" stroke-width="0.5"/>
    <path d="M55.8 11.0297C58.7 10.3297 61.6 12.1297 62.2 15.0297" stroke="#3F1D13" stroke-width="0.4"/>
    <path d="M32.9 24.5298C31.7 22.5298 32.4 19.8299 34.5 18.6299" stroke="#3F1D13" stroke-width="0.5"/>
    <path d="M71.2 30.4299C69.8 30.0299 68.9 28.5298 69.3 27.0298" stroke="#3F1D13" stroke-width="0.4"/>
    <path d="M47.2 21.1299C46.8 21.9299 45.8 22.2298 45 21.8298C44.2 21.4298 43.8 20.4299 44.3 19.6299" stroke="#3F1D13" stroke-width="0.5"/>
    <path d="M65.6 22.3299C63.8 22.5299 62.3 21.2299 62.1 19.5299C61.9 17.7299 63.2 16.1299 65 16.0299C66.7 15.8299 68.3 17.1299 68.4 18.8299" stroke="#3F1D13" stroke-width="0.5"/>
    <path d="M39.4 14.1299C41.1 13.7299 42.8 14.7299 43.3 16.4299C43.8 18.1299 42.8 19.8298 41.1 20.3298C39.4 20.8298 37.7 19.8299 37.2 18.1299" stroke="#3F1D13" stroke-width="0.4"/>
    <path d="M76.7 24.3298C77.7 25.4298 77.7 27.1299 76.6 28.1299C75.6 29.1299 73.9 29.1299 72.9 28.1299C71.8 27.0299 71.9 25.3298 72.9 24.3298" stroke="#3F1D13" stroke-width="0.4"/>
    <path d="M43.6 12.8298C41.5 12.0298 40.3 9.62971 41.1 7.52971C41.8 5.32971 44.2 4.22986 46.3 4.92986C48.5 5.72986 49.6 8.02966 48.9 10.2297" stroke="#3F1D13" stroke-width="0.5"/>
    <path d="M53.9 16.7297C54.4 18.1297 53.8 19.6299 52.5 20.1299C51.2 20.7299 49.6 20.1298 49.1 18.8298" stroke="#3F1D13" stroke-width="0.5"/>
    <path d="M78.7 25.3298C80.4 26.2298 81 28.4299 80 30.1299C79.1 31.7299 76.9 32.3299 75.3 31.4299" stroke="#3F1D13" stroke-width="0.5"/>
    <path d="M81.3 19.8299C81 21.6299 79.3 22.8298 77.5 22.5298C75.6 22.2298 74.4 20.5299 74.7 18.6299C75 16.8299 76.8 15.63 78.6 15.93C80.4 16.23 81.6 17.9299 81.3 19.8299Z" stroke="#3F1D13" stroke-width="0.5"/>
    <path d="M71.7 16.6299C70.6 17.0299 69.4 16.3298 69 15.2298C68.7 14.0298 69.4 12.8298 70.5 12.5298C71.6 12.2298 72.8 12.8298 73.1 14.0298" stroke="#3F1D13" stroke-width="0.4"/>
    <path d="M60.5 18.9299C60.3 20.1299 59.2 20.8299 58 20.6299" stroke="#3F1D13" stroke-width="0.4"/>
    <path d="M56.2 18.2299C56.4 17.0299 57.6 16.23 58.7 16.43" stroke="#3F1D13" stroke-width="0.4"/>
    <path d="M54.3 6.62981C54 8.42981 52.3 9.62976 50.5 9.32976C48.7 9.02976 47.5 7.32971 47.8 5.52971C48.1 3.72971 49.8 2.42966 51.6 2.72966C53.4 3.02966 54.6 4.82981 54.3 6.62981Z" stroke="#3F1D13" stroke-width="0.5"/>
    <path d="M48.2 29.2299C47.9 30.2299 48.5 31.23 49.4 31.43C50.3 31.63 51.3 31.0299 51.5 30.0299C51.7 29.1299 51.2 28.13 50.3 27.93C49.4 27.63 48.4 28.2299 48.2 29.2299Z" fill="#855226"/>
    <path d="M49.3 29.5298C49.2 29.8298 49.4 30.1297 49.7 30.2297C50 30.2297 50.3 30.0297 50.3 29.7297C50.4 29.4297 50.2 29.1298 49.9 29.0298C49.6 29.0298 49.3 29.2298 49.3 29.5298Z" fill="#050505"/>
    <path d="M50.4 29.1299C50.4 29.2299 50.5 29.4299 50.6 29.4299C50.8 29.5299 51 29.3297 51 29.2297C51 29.0297 50.9 28.8298 50.7 28.8298C50.6 28.7298 50.4 28.9299 50.4 29.1299Z" fill="#FEFEFE"/>
    <path d="M63.2 31.8298C63.2 32.8298 62.4 33.6299 61.4 33.6299C60.5 33.5299 59.7 32.7297 59.8 31.7297C59.8 30.7297 60.6 29.9299 61.5 29.9299C62.5 30.0299 63.2 30.8298 63.2 31.8298Z" fill="#855226"/>
    <path d="M62 31.8299C62 32.1299 61.7 32.4299 61.4 32.3299C61.2 32.3299 60.9 32.0298 61 31.7298C61 31.4298 61.3 31.1298 61.6 31.2298C61.9 31.2298 62.1 31.5299 62 31.8299Z" fill="#050505"/>
    <path d="M61.1 31.1299C61.1 31.3299 60.9 31.4299 60.8 31.4299C60.6 31.3299 60.5 31.2298 60.5 31.0298C60.5 30.8298 60.7 30.7297 60.8 30.7297C61 30.7297 61.1 30.9299 61.1 31.1299Z" fill="#FEFEFE"/>
    <path d="M66.7 29.0298L65.2 30.2297C65.2 30.2297 60 28.6298 58.5 32.5298" stroke="#050505" stroke-width="0.5" stroke-linecap="round" stroke-linejoin="round"/>
    <path d="M65.2 28.7297L64.2 30.0298L65.2 28.7297Z" fill="#BB8653"/>
    <path d="M65.2 28.7297L64.2 30.0298" stroke="#050505" stroke-width="0.5" stroke-linecap="round" stroke-linejoin="round"/>
    <path d="M45.5 25.6299L46.7 27.2297C46.7 27.2297 52.1 27.0299 52.6 31.1299" stroke="#050505" stroke-width="0.5" stroke-linecap="round" stroke-linejoin="round"/>
    <path d="M47.1 25.7297L47.7 27.2297L47.1 25.7297Z" fill="#BB8653"/>
    <path d="M47.1 25.7297L47.7 27.2297" stroke="#050505" stroke-width="0.5" stroke-linecap="round" stroke-linejoin="round"/>
    <path d="M52.5 26.13C52.5 26.13 50.1 24.43 47.8 26.43" stroke="#050505" stroke-width="0.7" stroke-linecap="round" stroke-linejoin="round"/>
    <path d="M59.9 27.6298C59.9 27.6298 62.7 26.6296 64.4 29.2296" stroke="#050505" stroke-width="0.7" stroke-linecap="round" stroke-linejoin="round"/>
    <path d="M58.4 37.5298C58.2 36.4298 56.4 36.5298 55.4 36.5298C55.1 36.5298 54.7 36.5298 54.4 36.5298C54.1 36.4298 53.6 36.3297 53.3 36.2297C52.4 35.9297 50.7 35.1298 50.1 36.1298C49.5 37.2298 50 39.5298 53.3 40.3298C53.4333 40.3298 53.5667 40.3298 53.7 40.3298C53.8333 40.3965 53.9666 40.4299 54.1 40.4299C57.4 40.8299 58.6 38.7298 58.4 37.5298Z" fill="#050505"/>
    <path d="M83.9 49.0298L70.1 53.6299L71.6 49.3298C71.6 49.3298 71.4 48.3299 70.5 47.6299C69.6 46.8299 68.4 53.2299 69.2 53.9299L79.2 62.8298C79.4 63.0298 79.7 63.1298 80 63.0298L92.7 58.9299C93.3 58.6299 93.6 57.2298 93.1 56.8298L83.9 49.0298Z" fill="#43AADF" stroke="#050505" stroke-width="0.4" stroke-linecap="round" stroke-linejoin="round"/>
    <path d="M69.4 53.2297L79.3 62.2297C79.5 62.4297 79.8 62.5299 80.1 62.4299L92.8 58.2297C93.4 58.0297 93.6 57.2298 93.1 56.8298L84.1 48.4299L70.2 53.0298L71.7 48.7297C71.7 48.7297 71.3 48.3632 70.5 47.6299" fill="#6FC49B"/>
    <path d="M69.4 53.2297L79.3 62.2297C79.5 62.4297 79.8 62.5299 80.1 62.4299L92.8 58.2297C93.4 58.0297 93.6 57.2298 93.1 56.8298L84.1 48.4299L70.2 53.0298L71.7 48.7297C71.7 48.7297 71.3 48.3632 70.5 47.6299" stroke="#050505" stroke-width="0.4" stroke-linecap="round" stroke-linejoin="round"/>
    <path d="M69.4 53.2298C68.8 52.5298 69.9 47.63 70.4 48.13C70.9333 48.73 71.2334 49.0299 71.3 49.0299L70.2 53.0299L69.4 53.2298Z" fill="#6FC49B"/>
    <path d="M71.3 47.8298L70.2 53.0298L79.9 61.7297L81.1 55.8298L71.3 47.8298Z" fill="#DBEDF6" stroke="#050505" stroke-width="0.4"/>
    <path d="M94.1 51.9299L92.9 57.5298L79.9 61.7297L81.1 55.8298L94.1 51.9299Z" fill="#FEFEFE" stroke="#050505" stroke-width="0.4" stroke-linecap="round" stroke-linejoin="round"/>
    <path d="M70.2 48.1299L70.4 48.2297L80.4 57.1299C80.6 57.3299 80.9 57.4298 81.2 57.3298L93.9 53.1299C94.5 52.9299 94.8 51.5299 94.3 51.1299L85.1 43.3298L84.7 43.2297L70.5 47.5298" fill="#43AADF"/>
    <path d="M70.2 48.1299L70.4 48.2297L80.4 57.1299C80.6 57.3299 80.9 57.4298 81.2 57.3298L93.9 53.1299C94.5 52.9299 94.8 51.5299 94.3 51.1299L85.1 43.3298L84.7 43.2297L70.5 47.5298" stroke="#050505" stroke-width="0.4" stroke-linecap="round" stroke-linejoin="round"/>
    <path d="M85.3 42.7297L84.8 42.6299L70.3 47.6299L70.4 47.5298C70.5334 47.5965 70.6334 47.6631 70.7 47.7297L80.5 56.5298C80.7 56.7298 81 56.8297 81.3 56.7297L94 52.6299C94.6 52.3299 94.8 51.5299 94.3 51.1299L85.3 42.7297Z" fill="#479DD6" stroke="#050505" stroke-width="0.4" stroke-linecap="round" stroke-linejoin="round"/>
    <path d="M92.4 51.3298L84.9 44.3298L82.5 45.2297L90.2 52.1299L92.4 51.3298Z" fill="#FEFEFE" stroke="#050505" stroke-width="0.4" stroke-linecap="round" stroke-linejoin="round"/>
    <path fill-rule="evenodd" clip-rule="evenodd" d="M1.39999 47.4299C2.29999 47.3299 3.4 47.3297 3.2 50.5297C3 53.4297 2.09999 53.6297 0.599991 53.7297L0 53.8298L0.5 47.5297L1.39999 47.4299ZM1.2 48.1298L0.899994 53.0297C2.19999 52.9297 2.3 51.6297 2.3 50.5297C2.4 49.6297 2.6 47.9298 1.2 48.1298Z" fill="#FEFEFE"/>
    <path d="M4.49998 53.4299H3.59998L4.09998 47.2297L4.89998 47.1299L4.49998 53.4299ZM4.39998 46.9299L3.99998 46.7297L4.79999 45.4299L5.29999 45.7297L4.39998 46.9299Z" fill="#FEFEFE"/>
    <path fill-rule="evenodd" clip-rule="evenodd" d="M7.19998 46.9299L8.09998 53.0298L7.29999 53.1299L7.09998 51.9299L5.89998 52.0298L5.59998 53.3298H4.79999L6.49998 47.0298L7.19998 46.9299ZM6.99998 50.3298L6.79999 48.1299L6.09998 51.3298L7.09998 51.2297L6.99998 50.3298Z" fill="#FEFEFE"/>
    <path d="M10.9 48.4299V50.5298L10.7 52.8298L9.90002 52.9299L10.3 46.6299H11.1L12.2 51.2297V48.7297L12.4 46.4299H13.2L12.8 52.6299L12 52.7297L10.9 48.0298V48.4299Z" fill="#FEFEFE"/>
    <path fill-rule="evenodd" clip-rule="evenodd" d="M15.5 46.2297L16.4 52.3298L15.6 52.4299L15.4 51.2297L14.2 51.3298L13.9 52.5298L13.1 52.6299L14.9 46.2297H15.5ZM15.2 49.7297L15 47.5298L14.3 50.7297L15.3 50.6299L15.2 49.7297Z" fill="#FEFEFE"/>
    <path d="M19.5 46.7297C19.3 46.6297 19.2 46.5298 19 46.5298C17.8 46.6298 17.7 48.3299 17.7 49.1299C17.6 49.9299 17.6 51.5299 18.7 51.4299C18.8333 51.4299 19 51.3631 19.2 51.2297L19.1 52.0298C18.9 52.1631 18.7 52.2297 18.5 52.2297C16.8 52.3297 16.7 50.6298 16.8 49.3298C16.9 48.0298 17.2 45.9298 18.8 45.8298C19.1 45.8298 19.3 45.8299 19.5 45.9299V46.7297Z" fill="#FEFEFE"/>
    <path d="M20.4 51.9299L19.5 52.0298L20 45.8298L20.8 45.7297L20.4 51.9299Z" fill="#FEFEFE"/>
    <path fill-rule="evenodd" clip-rule="evenodd" d="M24.4 48.5297C24.3 49.6297 24.2 51.7298 22.6 51.8298C21 52.0298 21.1 49.9298 21.2 48.8298C21.3 47.6298 21.4 45.6299 23 45.4299C24.6 45.3299 24.5 47.3297 24.4 48.5297ZM22.1 48.7297C22 50.0297 22 51.1297 22.6 51.0297C23.3 51.0297 23.5 49.9298 23.6 48.6298C23.6 47.2298 23.6 46.1297 23 46.2297C22.3 46.2297 22.2 47.4297 22.1 48.7297Z" fill="#FEFEFE"/>
    <path d="M25.8 47.1299V49.2297L25.7 51.5298H24.8L25.3 45.3298L26 45.2297L27.2 49.8298V47.3298L27.3 45.1299L28.1 45.0298L27.7 51.3298L26.9 51.4299L25.8 46.7297V47.1299Z" fill="#FEFEFE"/>
    <path fill-rule="evenodd" clip-rule="evenodd" d="M30.4 44.8298L31.3 51.0298H30.5L30.4 49.8298L29.1 49.9299L28.8 51.2297L28 51.3298L29.8 44.9299L30.4 44.8298ZM30.1 48.3298L30 46.0298L29.3 49.2297H30.2L30.1 48.3298Z" fill="#FEFEFE"/>
    <path d="M32.9 44.6299L32.5 50.1299L33.9 50.0298V50.7297L31.7 50.9299L32.1 44.7297L32.9 44.6299Z" fill="#FEFEFE"/>
    <path fill-rule="evenodd" clip-rule="evenodd" d="M37 44.2298C37.9 44.2298 39 44.1299 38.8 47.3299C38.6 50.2299 37.7 50.4299 36.2 50.5299L35.6 50.63L36.1 44.3299L37 44.2298ZM36.8 44.93L36.5 49.8299C37.8 49.7299 37.9 48.43 37.9 47.43C38 46.43 38.2 44.73 36.8 44.93Z" fill="#FEFEFE"/>
    <path d="M41.9 43.8298L41.8 44.5298L40.4 44.7297L40.3 46.6299L41.5 46.5298V47.2297L40.3 47.3298L40.1 49.5298L41.5 49.3298L41.4 50.1299L39.3 50.3298L39.7 44.0298L41.9 43.8298Z" fill="#FEFEFE"/>
    <path d="M43.1 43.7297L42.7 49.2297L44.1 49.1299V49.8298L41.9 50.0298L42.3 43.8298L43.1 43.7297Z" fill="#FEFEFE"/>
    <path d="M39.1 58.7297L2.59998 61.6299L2.79999 56.6299L38.9 53.8298L39.1 58.7297Z" fill="#F9A419"/>
    <path d="M7.59996 55.2297L7.29997 60.8298L10.6 60.5298L10.5 62.7297L4.89996 63.2297L5.29997 55.4299L7.59996 55.2297Z" fill="#FEFEFE"/>
    <path d="M11.3 62.7297L11.7 54.8298L14 54.6299L13.6 62.5298L11.3 62.7297Z" fill="#FEFEFE"/>
    <path fill-rule="evenodd" clip-rule="evenodd" d="M14.8 62.4299L15.2 54.5298L18.6 54.3298C18.6666 54.2632 18.7666 54.2297 18.9 54.2297C18.9666 54.2297 19.1667 54.2632 19.5 54.3298C19.7667 54.3965 20.0333 54.4965 20.3 54.6299C20.5 54.7632 20.6667 54.9631 20.8 55.2297C21 55.4964 21.1 55.8297 21.1 56.2297C21.0333 56.8297 20.8 57.3632 20.4 57.8298C20.9333 58.1632 21.2 58.6966 21.2 59.4299C21.0666 61.0299 19.9333 61.9299 17.8 62.1299L14.8 62.4299ZM17.3 60.0298L18.3 59.9299C18.6333 59.9299 18.8 59.7965 18.8 59.5298C18.8 59.2298 18.6 59.1299 18.3 59.1299L17.3 59.2297V60.0298ZM17.5 57.4299L18.4 57.3298C18.6 57.3298 18.7 57.2299 18.8 56.9299C18.8 56.6299 18.6 56.5298 18.5 56.5298L17.5 56.6299V57.4299Z" fill="#FEFEFE"/>
    <path fill-rule="evenodd" clip-rule="evenodd" d="M28.9 61.2297L26.1 61.4299L24.6 59.6299H24.4L24.3 61.6299L22 61.8298L22.4 53.9299L25.6 53.7297C25.7 53.7297 25.8 53.6297 26.2 53.7297C26.6 53.7297 27 53.8299 27.4 54.1299C27.9 54.3299 28.2 54.7298 28.4 55.3298C28.4667 55.6632 28.5 56.0299 28.5 56.4299C28.4333 57.4966 27.9667 58.3299 27.1 58.9299L28.9 61.2297ZM24.6 55.9299L24.5 57.4299L25.4 57.3298C25.8 57.3298 26.0333 57.0966 26.1 56.6299C26.1 56.1299 25.9 55.8299 25.5 55.9299H24.6Z" fill="#FEFEFE"/>
    <path fill-rule="evenodd" clip-rule="evenodd" d="M33.5 52.9299C34.6333 52.7966 35.5667 53.0965 36.3 53.8298C37.0333 54.5632 37.3667 55.4966 37.3 56.6299C37.2333 57.7632 36.8 58.7632 36 59.6299C35.2 60.4299 34.2 60.8965 33 61.0298C31.8667 61.0965 30.9333 60.7631 30.2 60.0298C29.4667 59.3631 29.1333 58.4632 29.2 57.3298C29.2667 56.1965 29.7 55.1965 30.5 54.3298C31.3667 53.4632 32.3667 52.9966 33.5 52.9299ZM33.2 58.8298C33.6667 58.7632 34.0666 58.5299 34.4 58.1299C34.7333 57.7966 34.9 57.3632 34.9 56.8298C34.9666 56.2965 34.8333 55.8631 34.5 55.5298C34.2333 55.1965 33.8666 55.0632 33.4 55.1299C32.9333 55.1299 32.5333 55.3298 32.2 55.7298C31.8 56.1298 31.6 56.5966 31.6 57.1299C31.6 57.5966 31.7333 57.9965 32 58.3298C32.3333 58.6632 32.7333 58.8298 33.2 58.8298Z" fill="#FEFEFE"/>
    <path d="M17.1 28.4299L19.6 28.3298L20.2 38.8298L17.2 38.9299L16.8 31.4299C16.1334 31.6299 15.5334 31.7966 15 31.9299L14.9 29.2297L17.1 28.4299Z" fill="#050505"/>
    <path d="M26.9 31.7297C27.1667 31.8631 27.4334 32.0297 27.7 32.2297C28.1 32.7297 28.5 33.7298 28.6 35.0298C28.6 35.0965 28.6 35.2299 28.6 35.4299C28.6 35.5633 28.5667 35.8297 28.5 36.2297C28.3667 36.6297 28.2 36.9965 28 37.3298C27.7334 37.6632 27.3667 37.9631 26.9 38.2297C26.4334 38.4964 25.8667 38.6631 25.2 38.7297C24.5334 38.7964 23.9334 38.6966 23.4 38.4299C22.9334 38.2299 22.5667 37.9298 22.3 37.5298C21.8 36.8298 21.5 36.1299 21.5 35.6299L21.4 35.2297L24.4 35.0298C24.4 35.1298 24.4 35.3298 24.5 35.5298C24.5 35.5965 24.5334 35.6631 24.6 35.7297C24.6667 35.9297 24.8334 36.0298 25.1 36.0298C25.6 35.9298 25.7 35.6298 25.7 35.0298C25.6334 34.3631 25.3667 34.0298 24.9 34.0298C24.7 34.0298 24.5667 34.1298 24.5 34.3298L21.8 34.1299L21.5 28.2297L27.3 27.8298L27.4 30.6299L24.6 30.7297V31.7297C24.8 31.5964 25.1 31.4966 25.5 31.4299C25.9 31.4299 26.3 31.4297 26.9 31.7297Z" fill="#050505"/>
    <path d="M18.3 27.3298L20.9 27.1299L21.5 37.6299L18.5 37.8298L18.1 30.2297C17.4333 30.4964 16.8334 30.6965 16.3 30.8298L16.2 28.0298L18.3 27.3298Z" fill="#FEFEFE"/>
    <path d="M28.2 30.5298C28.4667 30.6631 28.7 30.8632 28.9 31.1299C29.4 31.5299 29.8 32.5298 29.9 33.8298C29.9 33.9632 29.9 34.0964 29.9 34.2297C29.9 34.3631 29.8333 34.6632 29.7 35.1299C29.6333 35.5299 29.5 35.8632 29.3 36.1299C29.0334 36.4632 28.6667 36.7965 28.2 37.1299C27.7333 37.3965 27.1667 37.5298 26.5 37.5298C25.8333 37.5965 25.2333 37.5298 24.7 37.3298C24.2333 37.0632 23.8667 36.7633 23.6 36.4299C23.1 35.7299 22.8 34.9299 22.8 34.4299L22.7 34.0298L25.7 33.9299C25.7 33.9299 25.7 34.2298 25.8 34.3298C25.8 34.3965 25.8333 34.4965 25.9 34.6299C25.9667 34.7632 26.1333 34.8298 26.4 34.8298C26.9 34.8298 27 34.5298 26.9 33.8298C26.9 33.1632 26.6667 32.8633 26.2 32.9299C26 32.9299 25.8667 32.9965 25.8 33.1299L23.1 33.0298L22.8 27.0298L28.6 26.7297L28.7 29.4299L25.8 29.6299L25.9 30.5298C26.1 30.3965 26.4 30.3298 26.8 30.3298C27.2 30.3298 27.6 30.3298 28.2 30.5298Z" fill="#FEFEFE"/>
</svg>
