<svg width="98" height="110" viewBox="0 0 98 110" fill="none" xmlns="http://www.w3.org/2000/svg">
<path d="M9.79999 104.406L4.79999 42.9065L66 38.9065L71 100.406L9.79999 104.406Z" fill="#7358A4"/>
<path d="M4.79999 109.806L9.69999 104.406L70.9 100.406L66.6 105.806L4.79999 109.806Z" fill="#6A4C9E"/>
<path d="M0 49.1064L4.89999 42.9065L9.8 104.406L4.8 109.806L0 49.1064Z" fill="#332F56"/>
<path d="M7.80001 52.5064L7.70001 51.8064C7.70001 51.5398 7.70001 51.3397 7.70001 51.2063C7.70001 51.0063 7.76668 50.7064 7.90001 50.3064C7.96668 49.9731 8.10001 49.6732 8.30001 49.4065C8.50001 49.1399 8.80001 48.8732 9.20001 48.6065C9.60001 48.4065 10.1 48.3064 10.7 48.3064C12 48.2064 12.9 48.6065 13.4 49.1065C13.6 49.3065 13.8 49.5732 14 49.9065C14.1333 50.3065 14.2 50.6064 14.2 50.8064C14.2667 51.0064 14.3 51.2065 14.3 51.4065V51.5064C14.3 52.1731 14.1 52.9063 13.7 53.7063C13.2333 54.4397 12.7333 55.1063 12.2 55.7063L14.6 55.6065L14.8 58.2063L8.30001 58.5064L8.20001 56.3064C9.80001 54.7064 10.8 53.6065 11.1 52.9065C11.3 52.5065 11.4333 52.2398 11.5 52.1065C11.5 51.9732 11.5 51.8065 11.5 51.6065C11.5 51.3065 11.5 51.1065 11.3 50.9065C11.2333 50.8399 11.1 50.8064 10.9 50.8064C10.5 50.8064 10.5 51.1063 10.5 51.7063V52.3064L7.80001 52.5064Z" fill="#050505"/>
<path fill-rule="evenodd" clip-rule="evenodd" d="M19.4 47.8065C20.8 47.6732 21.8667 48.0731 22.6 49.0064C23.2667 49.9398 23.6667 51.1731 23.8 52.7064C23.8667 54.2397 23.6 55.5064 23 56.5064C22.4 57.5064 21.4 58.0399 20 58.1065C18.6 58.1732 17.5667 57.7398 16.9 56.8065C16.1667 55.9398 15.7667 54.7065 15.7 53.1065C15.6333 51.5732 15.9 50.3399 16.5 49.4066C17.0333 48.4066 18 47.8732 19.4 47.8065ZM19.6 50.3065C19.3333 50.3732 19.1 50.4732 18.9 50.6065C18.7667 50.7399 18.6667 50.9397 18.6 51.2064C18.5333 51.5397 18.5 51.8064 18.5 52.0064C18.5 52.2731 18.5 52.6064 18.5 53.0064C18.5667 53.4064 18.6 53.7066 18.6 53.9066C18.6667 54.1733 18.7333 54.4397 18.8 54.7064C18.8667 54.9731 19 55.1732 19.2 55.3065C19.4 55.4398 19.6333 55.5064 19.9 55.5064C20.1667 55.5064 20.3667 55.4064 20.5 55.2064C20.7 55.0731 20.8333 54.8732 20.9 54.6065C20.9 54.3399 20.9333 54.0732 21 53.8065C21 53.5398 20.9667 53.2065 20.9 52.8065C20.9 52.4732 20.8667 52.1733 20.8 51.9066C20.8 51.6399 20.7667 51.3732 20.7 51.1065C20.5667 50.8399 20.4333 50.6398 20.3 50.5064C20.1 50.3731 19.8667 50.3065 19.6 50.3065Z" fill="#050505"/>
<path d="M9.30001 51.1064L9.20001 50.4065C9.20001 50.2065 9.20001 50.0064 9.20001 49.8064C9.20001 49.6731 9.26668 49.4063 9.40001 49.0063C9.46668 48.673 9.60001 48.3731 9.80001 48.1064C9.93334 47.8398 10.2333 47.5731 10.7 47.3064C11.1 47.1064 11.6 46.9732 12.2 46.9065C13.4 46.9065 14.4 47.3063 14.9 47.7063C15.1 47.973 15.2667 48.2731 15.4 48.6064C15.5333 48.9398 15.6333 49.2065 15.7 49.4065C15.7 49.6065 15.7333 49.8398 15.8 50.1064C15.8 50.8398 15.6 51.5731 15.2 52.3064C14.7333 53.1064 14.2 53.8065 13.6 54.4065L16.1 54.3064L16.2 56.9065L9.80001 57.2063L9.70001 54.9065C11.3 53.4065 12.3 52.2063 12.6 51.5063C12.8 51.173 12.9 50.9397 12.9 50.8064C12.9667 50.6064 13 50.4397 13 50.3064C13 49.9064 13 49.8064 12.8 49.6064C12.6667 49.5398 12.5333 49.5063 12.4 49.5063C12 49.5063 12 49.8064 12 50.3064V51.0063L9.30001 51.1064Z" fill="#FEFEFE"/>
<path fill-rule="evenodd" clip-rule="evenodd" d="M20.9 46.4066C22.3 46.3399 23.3667 46.773 24.1 47.7064C24.7667 48.573 25.1667 49.8066 25.3 51.4066C25.3667 52.9399 25.1 54.2064 24.5 55.2064C23.9 56.1397 22.9 56.6731 21.5 56.8065C20.1 56.8731 19.0333 56.4398 18.3 55.5064C17.6333 54.6398 17.2667 53.4065 17.2 51.8065C17.0667 50.2731 17.3 49.0064 17.9 48.0064C18.5 47.0064 19.5 46.4732 20.9 46.4066ZM21.1 49.0064C20.7667 49.0064 20.5333 49.073 20.4 49.2064C20.2667 49.4064 20.1667 49.6399 20.1 49.9066C20.0333 50.1732 20 50.4397 20 50.7064C20 50.973 20 51.3064 20 51.7064C20.0667 52.0397 20.1 52.3399 20.1 52.6065C20.1 52.8732 20.1667 53.1399 20.3 53.4066C20.3667 53.6732 20.5 53.8731 20.7 54.0064C20.8333 54.1398 21.0667 54.2064 21.4 54.2064C21.6667 54.1397 21.8667 54.0399 22 53.9066C22.1333 53.7732 22.2333 53.5731 22.3 53.3065C22.3667 53.0398 22.4 52.7731 22.4 52.5064C22.4 52.2398 22.4 51.9064 22.4 51.5064C22.4 51.1064 22.3667 50.8065 22.3 50.6065C22.3 50.3399 22.2333 50.0731 22.1 49.8065C22.0333 49.5398 21.9 49.3397 21.7 49.2064C21.5667 49.073 21.3667 49.0064 21.1 49.0064Z" fill="#FEFEFE"/>
<path opacity="0.3" d="M34.8 79.9065C34.7 81.6065 40.9 83.4065 48.7 83.9065C56.5 84.4065 63 83.4063 63.1 81.7063C63.2 79.9063 56.9 78.1064 49.1 77.6064C41.3 77.2064 34.9 78.2065 34.8 79.9065Z" fill="#050505"/>
<path d="M45.7 79.2063C45.7 79.2063 45.2 80.2063 47 81.2063L37.9 80.8064L38.3 78.9065L45.7 79.2063Z" fill="#050505"/>
<path fill-rule="evenodd" clip-rule="evenodd" d="M37.9 81.0063C37.8333 81.0063 37.8 81.0063 37.8 81.0063C37.7333 80.9397 37.7 80.8731 37.7 80.8064L38.1 78.9065C38.1 78.8065 38.2 78.7063 38.3 78.7063L45.7 79.0063C45.7667 79.0063 45.8333 79.0398 45.9 79.1064C45.9667 79.1731 45.9667 79.2397 45.9 79.3064C45.9 79.3064 45.8 79.5065 45.9 79.9065C46.0333 80.3065 46.4333 80.673 47.1 81.0063C47.1 81.0063 47.2 81.1063 47.2 81.2063C47.1 81.3063 47 81.4065 46.9 81.4065L37.9 81.0063ZM46.2 80.9065C45.8667 80.6398 45.6333 80.3397 45.5 80.0063C45.4333 79.8063 45.4333 79.6065 45.5 79.4065L38.5 79.2063L38.2 80.6064L46.2 80.9065Z" fill="#050505"/>
<path d="M39 72.5063L37.9 79.5063L45.9 80.0063L48.1 73.4065" fill="#2B6EB6"/>
<path d="M37.9 79.7062L45.9 80.2062C46.0333 80.2062 46.1 80.1396 46.1 80.0062L48.3 73.5062C48.3 73.4062 48.3 73.3062 48.2 73.2062C48.1 73.2062 47.9 73.2064 47.9 73.4064L45.8 79.7062L38.1 79.3063L39.2 72.5062C39.2 72.4062 39.1 72.3063 39 72.3063C38.9 72.2063 38.8 72.3064 38.8 72.4064L37.7 79.4064C37.7 79.4731 37.7 79.5397 37.7 79.6063C37.7667 79.673 37.8333 79.7062 37.9 79.7062Z" fill="#050505"/>
<g style="mix-blend-mode:multiply" opacity="0.2">
<mask id="mask0_153_5039" style="mask-type:luminance" maskUnits="userSpaceOnUse" x="38" y="74" width="10" height="6">
<path d="M46.84 79.3965L38.03 78.7163L38.35 74.5164L47.16 75.1963L46.84 79.3965Z" fill="white"/>
</mask>
<g mask="url(#mask0_153_5039)">
<path d="M38 78.7063C38 78.7063 38.6 76.8064 40.2 76.8064C41.7 76.8064 46.1 78.0064 46.7 78.1064L47.1 76.2063L38.6 74.5063C38.6 74.5063 38.4 77.3063 38 78.7063Z" fill="#050505"/>
</g>
</g>
<path d="M58.2 79.6064C58.2 79.6064 57.9 80.5064 60.5 81.6064L51.5 81.2063L51.1 79.3064L58.2 79.6064Z" fill="#050505"/>
<path fill-rule="evenodd" clip-rule="evenodd" d="M51.5 81.5063C51.3667 81.4397 51.3 81.3731 51.3 81.3064L50.9 79.4065C50.9 79.3398 50.9 79.273 50.9 79.2063C50.9667 79.1396 51.0334 79.1064 51.1 79.1064L58.2 79.4065C58.2667 79.4065 58.3334 79.4397 58.4 79.5063C58.4 79.573 58.4 79.6064 58.4 79.6064C58.4 79.7064 58.4 80.4065 60.6 81.4065C60.7 81.4065 60.7 81.5064 60.7 81.6064C60.7 81.7064 60.6 81.8064 60.5 81.8064L51.5 81.5063ZM59.5 81.3064C58.3 80.7064 58 80.1064 58 79.8064L51.3 79.5063L51.7 81.0063L59.5 81.3064Z" fill="#050505"/>
<path d="M57.1 73.0063L58.5 79.7063L50.8 79.9065L48.2 73.2063" fill="#2B6EB6"/>
<path d="M50.8 80.1064L58.5 79.9065C58.5667 79.9065 58.6 79.8731 58.6 79.8064C58.6667 79.8064 58.7 79.773 58.7 79.7063L57.3 73.0063C57.2 72.9063 57.1 72.8064 57 72.8064C56.9 72.9064 56.8 73.0064 56.9 73.1064L58.2 79.5063L50.9 79.7063L48.4 73.1064C48.3 73.0064 48.2 72.9063 48.1 73.0063C48 73.0063 47.9 73.2064 48 73.3064L50.6 80.0063C50.6667 80.073 50.7334 80.1064 50.8 80.1064Z" fill="#050505"/>
<g style="mix-blend-mode:multiply" opacity="0.2">
<mask id="mask1_153_5039" style="mask-type:luminance" maskUnits="userSpaceOnUse" x="48" y="73" width="11" height="7">
<path d="M58 79.0864L48.9 78.3965L49.24 73.8765L58.34 74.5764L58 79.0864Z" fill="white"/>
</mask>
<g mask="url(#mask1_153_5039)">
<path d="M50.3 78.5063C50.3 78.5063 52.1 78.7064 53.8 78.3064C55.5 77.9064 58.1 77.7063 58.1 77.7063L57.4 74.5063L49.1 75.3064L50.3 78.5063Z" fill="#050505"/>
</g>
</g>
<path d="M66.1 62.3064C66.1 62.3064 68.6 62.7065 69.9 61.4065C71.3 60.1065 70.1 56.3065 67.8 56.9065C65.8 57.4065 65 58.4064 65.1 59.0064C65.1 59.6064 66.1 62.3064 66.1 62.3064Z" fill="#B3805F"/>
<path fill-rule="evenodd" clip-rule="evenodd" d="M65.9 62.5063C65.9 62.4396 65.9 62.4064 65.9 62.4064C65.8 62.3064 64.9 59.6063 64.9 59.0063C64.8 58.3063 65.8 57.2062 67.8 56.7062C68.7 56.5062 69.7 56.9064 70.2 57.9064C70.8 59.1064 71 60.7064 70.1 61.6064C68.6 63.0064 66.1 62.6063 66 62.5063C66 62.5063 65.9667 62.5063 65.9 62.5063ZM69.5 57.7062C69.2 57.3062 68.7 56.9064 67.9 57.1064C66 57.6064 65.2 58.5063 65.3 59.0063C65.3 59.4063 65.9 61.3064 66.2 62.1064C66.7 62.2064 68.7 62.3063 69.8 61.3063C70.5 60.6063 70.4 59.1064 69.9 58.1064C69.8333 58.0397 69.7 57.9062 69.5 57.7062Z" fill="#050505"/>
<path d="M67.9 61.6065C67.7667 61.4065 67.6333 61.2398 67.5 61.1065C67.2 60.5065 66.2 58.8065 67.6 57.9065C67.7 57.8065 67.8 57.8065 67.9 57.9065C67.9 58.0065 67.9 58.2063 67.8 58.2063C66.7 58.9063 67.6 60.4064 67.9 60.8064C68.3 61.6064 68.7 61.8064 68.8 61.8064C68.9 61.7064 69.1 61.8065 69.1 61.9065C69.2 62.0065 69.1 62.1063 69 62.2063C68.7 62.3063 68.3 62.0065 67.9 61.6065Z" fill="#050505"/>
<path d="M67.1 57.1065C67.4 56.9065 67.8 56.9063 68.1 57.2063L68.7 58.1065C69 58.4065 68.9 58.8064 68.6 59.0064C68.3 59.3064 67.9 59.2065 67.7 58.9065L67.2 58.4065" fill="#B3805F"/>
<path d="M67.1 58.5063C67.1 58.5729 67.1 58.6064 67.1 58.6064L67.5 59.1064C67.7 59.2397 67.9 59.3398 68.1 59.4064C68.3667 59.4064 68.6001 59.3396 68.8001 59.2062C68.9334 59.0729 69.0334 58.873 69.1 58.6064C69.1 58.4064 69.0334 58.2063 68.9 58.0063L68.2 57.1064C67.9 56.7064 67.4 56.7063 67 57.0063C66.9 57.0063 66.9 57.2062 67 57.2062C67 57.3062 67.2001 57.4063 67.3001 57.3063C67.5001 57.1063 67.7 57.2064 67.9 57.4064L68.6 58.3063C68.6667 58.373 68.7 58.473 68.7 58.6064C68.6334 58.7397 68.5667 58.8398 68.5 58.9064C68.4334 58.9731 68.3334 59.0063 68.2 59.0063C68.0667 59.0063 67.9667 58.9397 67.9 58.8063L67.4 58.3063C67.3 58.2063 67.2 58.2063 67.1 58.3063C67 58.3063 67 58.5063 67.1 58.5063Z" fill="#050505"/>
<g style="mix-blend-mode:multiply" opacity="0.1">
<mask id="mask2_153_5039" style="mask-type:luminance" maskUnits="userSpaceOnUse" x="66" y="57" width="4" height="4">
<path d="M68 60.3564L66.81 58.9763L68.2 57.7764L69.39 59.1565L68 60.3564Z" fill="white"/>
</mask>
<g mask="url(#mask2_153_5039)">
<path d="M67.3 58.5063C67.3 58.5063 68.1 59.6064 68.6 59.1064C69.1 58.5064 69.2 58.9065 69.2 58.9065C69.2 58.9065 69.1 59.7065 68.3 59.9065C67.6 60.2065 66.7 59.1063 67.3 58.5063Z" fill="#050505"/>
</g>
</g>
<g style="mix-blend-mode:multiply" opacity="0.1">
<mask id="mask3_153_5039" style="mask-type:luminance" maskUnits="userSpaceOnUse" x="64" y="58" width="6" height="6">
<path d="M67.15 63.3464L64.72 60.5264L67.13 58.4463L69.56 61.2563L67.15 63.3464Z" fill="white"/>
</mask>
<g mask="url(#mask3_153_5039)">
<path d="M67.1 58.4065C67.1 58.4065 66.5 58.8065 66.7 59.9065C66.9 61.0065 67 61.5064 66.8 61.6064C66.5 61.7064 66 61.7063 66 62.0063C66.1 62.3063 66.8 62.7063 67.5 62.5063C68.2 62.3063 68.7 62.0063 68.7 62.0063C68.7 62.0063 67.4 61.1065 67.2 60.4065C67 59.7065 67.1 58.4065 67.1 58.4065Z" fill="#050505"/>
</g>
</g>
<path d="M49.8 63.5063C49.2 60.4063 51.9 60.1064 51.9 60.1064L65.7 57.2063L67.4 63.3064L52.7 66.2063C52.7 66.2063 50.3 66.9063 49.8 63.5063Z" fill="#F1F1F1"/>
<path fill-rule="evenodd" clip-rule="evenodd" d="M50.4 65.7063C50 65.173 49.7333 64.4731 49.6 63.6064C49.4 62.4731 49.5333 61.5732 50 60.9065C50.7 60.1065 51.7 59.9065 51.9 59.9065L65.7 57.0063C65.8 57.0063 65.9 57.1063 65.9 57.2063L67.6 63.2063C67.6 63.273 67.6 63.3398 67.6 63.4065C67.5333 63.4732 67.4667 63.5063 67.4 63.5063L52.8 66.4065C52.7 66.5065 51.8 66.7064 50.9 66.1064C50.7667 65.9731 50.6 65.8396 50.4 65.7063ZM65.6 57.5063L51.9 60.3064C51.9 60.3064 51 60.4063 50.4 61.2063C49.9333 61.8063 49.8 62.573 50 63.5063C50.1333 64.6397 50.5333 65.4064 51.2 65.8064C51.9 66.2064 52.7 66.0063 52.7 66.0063L67.1 63.1064L65.6 57.5063Z" fill="#050505"/>
<g style="mix-blend-mode:multiply" opacity="0.1">
<mask id="mask4_153_5039" style="mask-type:luminance" maskUnits="userSpaceOnUse" x="48" y="52" width="19" height="19">
<path d="M54.5201 70.0964L48.1801 62.7563L60.5301 52.0964L66.87 59.4265L54.5201 70.0964Z" fill="white"/>
</mask>
<g mask="url(#mask4_153_5039)">
<path d="M58.6001 62.8064C61.3001 63.5064 65.7001 61.3064 65.5001 60.1064C65.4001 59.4064 65.2001 58.1065 65.1001 57.4065L51.9001 60.1064C51.9001 60.1064 49.2001 60.4063 49.8001 63.5063C50.3001 66.9063 52.7001 66.2063 52.7001 66.2063L58.3001 65.1064C57.3001 63.7064 56.1001 62.2064 58.6001 62.8064Z" fill="#050505"/>
</g>
</g>
<path d="M47.9 63.2063C47.9 63.2063 50.6 60.6064 51.5 60.3064C52.5 60.1064 53.3 59.6064 54 60.6064C55 61.8064 57.3 65.5064 58.6 72.6064C58.2 74.1064 56.2 74.9064 52.6 75.6064C47.8 76.5064 44.7 76.2063 41.3 76.2063C38 76.2063 37.1 75.9063 37.1 75.5063C38.3 64.7063 36 61.1064 36 61.1064L42.2 61.4065L47.9 63.2063Z" fill="#F1F1F1"/>
<path fill-rule="evenodd" clip-rule="evenodd" d="M38.8 76.3065C37.6 76.2065 37.2001 76.0066 37.0001 75.9066C36.9334 75.7733 36.9 75.6398 36.9 75.5065C38.1 64.9065 35.9 61.3065 35.9 61.3065C35.8334 61.2398 35.8 61.1398 35.8 61.0065C35.8667 60.9398 35.9334 60.9066 36.0001 60.9066L42.2001 61.2064L47.8 63.0065C48.3 62.5065 50.6001 60.4066 51.5001 60.1066C51.6334 60.1066 51.7667 60.0731 51.9 60.0065C52.7 59.8065 53.5 59.5065 54.2001 60.5065C55.1 61.7065 57.5 65.4066 58.8 72.6066C58.8 72.6066 58.8 72.6397 58.8 72.7064C58.4 74.2064 56.5 75.1065 52.7001 75.8065C48.9001 76.5065 46.1001 76.5066 43.5001 76.4066C42.8334 76.4066 42.1 76.4066 41.3 76.4066C40.3 76.4066 39.4 76.4065 38.8 76.3065ZM58.4 72.6066C57.1 65.5066 54.8 61.9064 53.9 60.7064C53.3 60.0064 52.8001 60.2066 52.0001 60.4066C51.8667 60.4733 51.7334 60.5065 51.6001 60.5065C50.8001 60.7065 48.7001 62.7066 48.0001 63.4066C47.9334 63.4733 47.8667 63.4733 47.8 63.4066L42.1001 61.6066L36.4 61.4066C36.9 62.5066 38.3 66.5065 37.3 75.5065C37.3 75.5731 37.3 75.6066 37.3 75.6066C37.5 75.8066 38.4 76.0065 41.3 76.0065C42.1 76.0065 42.8334 76.0065 43.5001 76.0065C46.1001 76.0065 48.8001 76.1066 52.6001 75.4066C56.2001 74.7066 58 73.9066 58.4 72.6066Z" fill="#050505"/>
<path fill-rule="evenodd" clip-rule="evenodd" d="M41.3 74.4065C40.6 74.4065 40 74.1063 39.6 73.7063C39.2 73.2063 39 72.5064 39 71.6064L39.2 69.7063C39.2 69.6063 39.3 69.5063 39.4 69.5063H44.5C44.5667 69.5063 44.6333 69.5063 44.7 69.5063C44.7 69.573 44.7 69.6396 44.7 69.7063L44.5 71.6064C44.4 73.3064 43.2 74.4065 41.6 74.4065C41.4667 74.4065 41.3667 74.4065 41.3 74.4065ZM39.6 69.9065L39.5 71.7063C39.4 72.4063 39.6 73.0065 39.9 73.4065C40.3 73.8065 40.9 74.0063 41.6 74.0063C42.7 74.0063 44 73.4064 44.1 71.6064L44.3 69.9065H39.6Z" fill="#050505"/>
<path d="M44.5001 70.6064L39.3 70.7063L44.5001 70.6064Z" fill="#ED3937"/>
<path d="M39.3 70.9065L44.5001 70.8064V70.4065L39.3 70.5063V70.9065Z" fill="#050505"/>
<g style="mix-blend-mode:multiply" opacity="0.1">
<mask id="mask5_153_5039" style="mask-type:luminance" maskUnits="userSpaceOnUse" x="40" y="70" width="7" height="6">
<path d="M46.13 75.0764L40.59 74.6465L40.89 70.7664L46.43 71.1863L46.13 75.0764Z" fill="white"/>
</mask>
<g mask="url(#mask5_153_5039)">
<path d="M40.6 74.6064C40.6 74.6064 42 75.0063 44.1 73.7063C46.3 72.4063 46.4 71.2063 46.4 71.2063L44.5 71.5063C44.5 71.5063 43.9 74.5064 41.1 74.3064L40.6 74.6064Z" fill="#050505"/>
</g>
</g>
<path d="M41.8 61.2063C41.8 61.2063 46.9001 62.9063 50.0001 65.5063C50.0001 65.5063 51.5001 62.3063 50.5001 58.7063L41.8 61.2063Z" fill="#8DBEE6"/>
<path d="M57.7 71.9064C57.9667 71.9731 58.2667 71.9396 58.6 71.8063C58.7 71.8063 58.7 71.6062 58.7 71.5062C58.7 71.4062 58.5 71.4064 58.4 71.4064C57.4 71.8064 57 71.2063 57 71.1063L56.1 68.0062L57.4 67.7062C57.5 67.6062 57.6 67.5064 57.5 67.4064C57.5 67.3064 57.4 67.2063 57.3 67.3063L55.8 67.7062C55.7 67.7062 55.6 67.8064 55.7 67.9064L56.6 71.2062C56.6 71.2062 56.6 71.2396 56.6 71.3063C56.6 71.3063 56.9 71.9064 57.7 71.9064Z" fill="#050505"/>
<path d="M56.1 69.0063C56.1 69.0063 56.1334 69.0063 56.2 69.0063L57.7 68.6064C57.8 68.6064 57.9 68.5064 57.9 68.3064C57.8 68.2064 57.7 68.2063 57.6 68.2063L56.1 68.6064C55.9 68.6064 55.9 68.8065 55.9 68.9065C55.9667 68.9732 56.0334 69.0063 56.1 69.0063Z" fill="#050505"/>
<g style="mix-blend-mode:multiply" opacity="0.1">
<mask id="mask6_153_5039" style="mask-type:luminance" maskUnits="userSpaceOnUse" x="36" y="58" width="19" height="18">
<path d="M53.26 75.9065L36.79 74.6465L38.03 58.5664L54.49 59.8264L53.26 75.9065Z" fill="white"/>
</mask>
<g mask="url(#mask6_153_5039)">
<path d="M43.0001 60.3064L37.8 61.4065L44.0001 64.3064L41.6001 65.6064L50.0001 66.7063C50.0001 66.7063 50.4001 68.4063 50.7001 69.7063C51.1 71.1063 50.2001 71.1065 50.6001 71.4065C51.1001 71.8065 51.4001 72.3064 51.6001 73.1064C51.8001 74.0064 51.8 75.8064 51.8 75.8064L52.5001 75.2063C52.5001 75.2063 51.5001 70.2065 50.6001 66.9065L54.3 62.9065L52.7001 61.9065L53.5001 59.7063H50.3L50.2001 66.3064L43.0001 60.3064Z" fill="#050505"/>
</g>
</g>
<path d="M49 68.0064C49 68.3064 49.2 68.5064 49.5 68.5064C49.8 68.5064 50 68.2066 50 67.9066C50 67.7066 49.8 67.4064 49.5 67.5064C49.2 67.5064 49 67.7064 49 68.0064Z" fill="#050505"/>
<path d="M49.4 70.3064C49.4 70.6064 49.7 70.8064 49.9 70.8064C50.2 70.7064 50.5 70.5063 50.5 70.2063C50.5 69.9063 50.2 69.7063 49.9 69.7063C49.7 69.7063 49.4 70.0064 49.4 70.3064Z" fill="#050505"/>
<path d="M50 72.5065C50 72.8065 50.3 73.0065 50.5 73.0065C50.8 73.0065 51.1 72.7066 51.1 72.4066C51.1 72.1066 50.8 71.9065 50.6 72.0065C50.3 72.0065 50 72.2065 50 72.5065Z" fill="#050505"/>
<path d="M50.2 66.0063C50.2 66.0063 51.5 69.4063 52.5 75.5063L50.2 66.0063Z" fill="#FEFEFE"/>
<path d="M52.5 75.7063C52.5 75.7063 52.5333 75.7063 52.6 75.7063C52.7 75.7063 52.8 75.6063 52.7 75.5063C51.8 69.4063 50.4 65.9065 50.4 65.9065C50.3 65.8065 50.2 65.8064 50.1 65.8064C50 65.8064 50 66.0064 50 66.1064C50 66.1064 51.4 69.5063 52.3 75.5063C52.3667 75.6397 52.4333 75.7063 52.5 75.7063Z" fill="#050505"/>
<path d="M49.5 59.7063C49.5 59.7063 49.8 62.6063 50.2 66.0063L54.3 62.0063L51.7 62.6064L54.6 59.3064L49.5 59.7063Z" fill="#F0F1F1"/>
<path fill-rule="evenodd" clip-rule="evenodd" d="M50.2 66.2063C50.2 66.2063 50.1667 66.2063 50.1 66.2063C50.0333 66.1396 50 66.073 50 66.0063C49.6 62.7063 49.3 59.8064 49.3 59.8064C49.2333 59.7397 49.2333 59.6731 49.3 59.6064C49.3667 59.5398 49.4 59.5063 49.4 59.5063L54.6 59.1064C54.6667 59.1064 54.7333 59.1396 54.8 59.2063C54.8667 59.273 54.8667 59.3398 54.8 59.4065L52.3 62.3064L54.3 61.8064C54.3667 61.7397 54.4333 61.7732 54.5 61.9065C54.5667 61.9732 54.5667 62.0398 54.5 62.1064L50.3 66.1064C50.3 66.1731 50.2667 66.2063 50.2 66.2063ZM51.8 62.8064C51.6667 62.8064 51.6 62.773 51.6 62.7063C51.5333 62.6396 51.5333 62.573 51.6 62.5063L54.1 59.5063L49.7 59.9065C49.8 60.6065 50.1 62.9063 50.4 65.5063L53.6 62.4065L51.8 62.8064Z" fill="#050505"/>
<path d="M45.1 60.1064C45.1 60.1064 47 61.9063 50.2 66.0063L43.3 65.0063L45.8 64.3064L40 62.8064L45.1 60.1064Z" fill="#F0F1F1"/>
<path fill-rule="evenodd" clip-rule="evenodd" d="M50.2001 66.2063L43.3 65.2063C43.2 65.2063 43.1001 65.1063 43.1001 65.0063C43.1001 64.9063 43.2 64.8063 43.3 64.8063L45.0001 64.3063L40.0001 63.0063C39.8667 62.9396 39.8 62.873 39.8 62.8063C39.8 62.673 39.8334 62.6064 39.9 62.6064L45.0001 59.9064C45.1334 59.8398 45.2334 59.8398 45.3 59.9064C45.3 60.0064 47.2 61.8064 50.4 65.9064C50.4 65.9731 50.4 66.0397 50.4 66.1064C50.3334 66.1731 50.2667 66.2063 50.2001 66.2063ZM40.6001 62.7062L45.9 64.1064C45.9667 64.1064 46.0001 64.173 46.0001 64.3063C46.0001 64.373 45.9667 64.4396 45.9 64.5063L44.3 64.9064L49.7001 65.7063C47.1001 62.5063 45.5001 60.8063 45.1001 60.3063L40.6001 62.7062Z" fill="#050505"/>
<g style="mix-blend-mode:multiply" opacity="0.1">
<mask id="mask7_153_5039" style="mask-type:luminance" maskUnits="userSpaceOnUse" x="36" y="60" width="10" height="17">
<path d="M44.18 76.5564L36.59 75.9763L37.77 60.5764L45.36 61.1665L44.18 76.5564Z" fill="white"/>
</mask>
<g mask="url(#mask7_153_5039)">
<path d="M37.1 75.8064C37.1 75.8064 39.1 76.6063 41 75.7063C42.9 74.8063 41 75.4064 40 74.8064C38.9 74.2064 39.5 73.3064 39.5 73.3064C39.5 73.3064 39.1 71.9063 39.4 69.7063C39.4 69.7063 41.3 69.1065 42.8 68.6065C44.4 68.0065 43.9 66.8064 43.2 67.0064C42.5 67.2064 46 65.0064 45 62.5064C44 60.0064 40.9 61.3064 40.9 61.3064L37.3 67.3064L37.1 75.8064Z" fill="#050505"/>
</g>
</g>
<g style="mix-blend-mode:multiply" opacity="0.1">
<mask id="mask8_153_5039" style="mask-type:luminance" maskUnits="userSpaceOnUse" x="50" y="59" width="8" height="9">
<path d="M57.09 67.3464L50.76 66.8564L51.35 59.2163L57.68 59.7063L57.09 67.3464Z" fill="white"/>
</mask>
<g mask="url(#mask8_153_5039)">
<path d="M51.2 61.1064C51.2 61.1064 55.7 62.7064 57.1 67.3064C57.1 67.3064 56.7 63.9064 55.8 62.3064C54.8 60.7064 53.6 59.4065 53.6 59.4065L51.2 61.1064Z" fill="#050505"/>
</g>
</g>
<path d="M30.1 52.6064C32.9 60.1064 38.5 65.9064 49 62.9064C60.9 59.6064 60.6 52.4064 57.8 44.9064C55 37.5064 46.7 33.7063 39.1 36.5063C31.6 39.3063 27.3 45.2064 30.1 52.6064Z" fill="#B3805F"/>
<path fill-rule="evenodd" clip-rule="evenodd" d="M42.5 64.0062C40.3 63.8729 38.3 63.2062 36.5 62.0062C33.6 60.2062 31.4 57.1063 29.8 52.8063C28.5 49.2063 28.7 45.8063 30.5 42.8063C32.2 40.1063 35.1 37.9064 39 36.4064C42.7 35.1064 46.7 35.2063 50.3 36.8063C53.9 38.4063 56.6 41.3062 57.9 45.0062C58.8 47.4062 59.3 49.4062 59.5 51.2062C59.7001 53.4062 59.4 55.2063 58.6 56.8063C57.1 59.8063 53.9 61.9063 49 63.3063C46.6667 63.9729 44.5 64.2062 42.5 64.0062ZM45.3 36.0062C43.3 35.8062 41.2 36.1063 39.2 36.8063C35.4 38.2063 32.5 40.4063 30.9 43.1063C29.2 45.9063 28.9 49.2062 30.2 52.7062C32.6 59.1062 37.8 66.0064 48.9 62.9064C53.7 61.5064 56.8 59.5062 58.2 56.7062C59.6 53.8062 59.4 50.3062 57.6 45.2062C55.6 39.8062 50.7 36.4062 45.3 36.0062Z" fill="#050505"/>
<g style="mix-blend-mode:multiply" opacity="0.1">
<mask id="mask9_153_5039" style="mask-type:luminance" maskUnits="userSpaceOnUse" x="27" y="39" width="27" height="26">
<path d="M52.07 64.6863L27.86 62.8364L29.64 39.7163L53.84 41.5764L52.07 64.6863Z" fill="white"/>
</mask>
<g mask="url(#mask9_153_5039)">
<path d="M32.7 40.0063L34.6 40.1064C34.6 40.1064 43.1 41.4064 40.5 45.1064C37.9 48.8064 38.2 50.2065 38.4 51.4065C38.5 52.6065 40.3 51.9065 40.3 51.9065C34.6 56.0065 37.6 61.1064 42.5 62.3064C46.1 63.2064 50.6 62.2064 52.3 61.8064C51.3667 62.2064 50.3334 62.6063 49.2 63.0063C38.9 66.6063 32.7 59.9065 29.9 52.4065C28 47.4065 29.3 43.1063 32.7 40.0063Z" fill="#050505"/>
</g>
</g>
<path d="M52.3 37.3064C52.3 37.3064 57.4001 38.8064 60.1001 43.6064C60.2001 43.8064 58.6001 42.1063 56.1001 41.0063" fill="#050505"/>
<path d="M31.2 39.7063C31.2 39.7063 24 45.5065 27.8 54.4065C27.8 54.4065 27.5 48.1063 31.2 39.7063Z" fill="#050505"/>
<path d="M35.8 46.0064C36.1 45.9064 37.3 54.7064 33.6 56.5064C31.7 53.8064 32.5 50.3065 32.5 50.3065C31.7 53.3065 32.4 56.0064 33 56.7064C32.3 57.1064 30.6 57.9066 29.4 57.9066C29.4 57.9066 21.6 42.4064 39.2 35.7064C39.2 35.7064 49.4 30.9065 59.3 43.6065C59.3 43.6065 59.3 44.3065 58.4 45.6065C57.8 46.6065 54.4 40.3064 53.5 41.0064" fill="#050505"/>
<path d="M41.1 35.1064C42.8 34.7064 49.7 32.8064 57.9 39.4064C57.9 39.4064 39.4 35.5064 41.1 35.1064Z" fill="#050505"/>
<path d="M51.5 35.7063C51.5 35.7063 37.3 29.2064 29.5 41.6064C21.7 54.0064 51.5 35.7063 51.5 35.7063Z" fill="#050505"/>
<path d="M40 35.9065C40 35.9065 47.7 33.4063 58 42.7063C58 42.7063 58.2 42.7065 57.7 43.6065C57.3 44.2065 57.3 44.2063 56.7 44.7063C55.9 43.4063 54.9 42.9064 51.1 41.5064C51.1 41.5064 55.2 43.1063 55.8 45.2063C48.9 48.7063 42.5 45.8064 42.5 45.8064C42.7 45.7064 44.2 49.3064 39.7 49.8064C37.6 47.8064 36.9 45.2063 36.9 45.2063C36.9 47.2063 37.5 48.5065 38.7 49.9065C38.2 50.2065 36.6 50.2065 35.6 50.1065C35.6 50.1065 26.6 39.1065 40 35.9065Z" fill="#050505"/>
<path d="M34.7 45.4065L37.7 53.3064C37.7 53.3064 31.2 58.0064 39.1 63.1064L31.3 60.2063C31.3 60.2063 25.6 53.4064 28.6 45.8064C31.7 38.1064 33.3 42.3064 33.3 42.3064L34.7 45.4065Z" fill="#050505"/>
<path d="M31.7 39.8065C31.7 39.8065 33 36.5065 35.1 35.1065C37.2 33.6065 37.4 33.9066 37.4 33.9066C37.4 33.9066 34.3 35.4064 33.4 39.2064" fill="#050505"/>
<path d="M28.9 42.7063C28.9 42.7063 30.2 41.0063 28.3 40.2063C28.3 40.2063 29.6001 39.7064 30.1001 40.3064C30.0001 39.4064 30.2001 37.5065 32.6001 35.9065C32.6001 35.9065 31.7 38.1065 33.3 37.9065" fill="#050505"/>
<path d="M42.2 48.0063C42.2667 47.9397 42.3 47.8731 42.3 47.8064C42.5 47.5064 43.9 47.4065 45.1 47.4065C45.1667 47.4065 45.2 47.4065 45.2 47.4065C45.3 47.4065 45.4 47.3064 45.4 47.1064C45.4 47.0064 45.3 46.9065 45.2 46.9065C44.5 46.9065 42.2 46.9063 41.9 47.7063C41.9 47.8063 41.9 47.9065 42 47.9065C42.0667 47.9732 42.1334 48.0063 42.2 48.0063Z" fill="#050505"/>
<path d="M43.9 50.4065C44.1 51.1065 44.6 51.6065 45.1 51.6065C45.6 51.5065 45.8 50.8065 45.6 50.1065C45.4 49.4065 44.8 48.9064 44.4 49.0064C43.9 49.1064 43.6 49.7065 43.9 50.4065Z" fill="#050505"/>
<path d="M44.5 49.4065C44.5 49.6065 44.6 49.7064 44.7 49.6064C44.8 49.6064 44.9 49.5065 44.8 49.4065C44.8 49.2065 44.7 49.2063 44.6 49.2063C44.5 49.2063 44.4 49.3065 44.5 49.4065Z" fill="#FEFEFE"/>
<path d="M54.7 47.6064C54.8 48.3064 55.3 48.8065 55.8 48.9065C56.3 48.9065 56.6 48.4063 56.4 47.7063C56.3 47.0063 55.8 46.4065 55.3 46.4065C54.9 46.4065 54.6 46.9064 54.7 47.6064Z" fill="#050505"/>
<path d="M55.4 46.8064C55.4 46.9064 55.5 47.0063 55.6 47.0063C55.7 47.1063 55.7 47.0064 55.7 46.8064C55.7 46.7064 55.6 46.6064 55.5 46.6064C55.4 46.6064 55.3 46.7064 55.4 46.8064Z" fill="#FEFEFE"/>
<path d="M50.2 51.8064C50.2 51.8064 51.2 52.8064 52.2 52.6064C53.2 52.4064 53.4 50.9065 53.4 50.9065C53.4 50.9065 52.4 51.8065 51.9 51.9065C51.4 52.0065 50.2 51.8064 50.2 51.8064Z" fill="#9A724F"/>
<path d="M52.1 52.1065C52.4 52.1065 52.6 52.0065 52.8 51.9065L53.4 51.2063C53.5 51.1063 53.5 51.0065 53.4 50.9065C53.3 50.8065 53.1 50.8065 53.1 50.9065L52.5 51.5064C52.4 51.6064 52 51.7065 51.8 51.6065L50.3 51.4065C50.2 51.4065 50 51.5065 50 51.6065C50 51.8065 50.1 51.9065 50.2 51.9065L51.7 52.1065C51.8333 52.1065 51.9667 52.1065 52.1 52.1065Z" fill="#050505"/>
<path d="M48.4 55.9065C48.4 55.9065 50.6 56.4063 51.7 56.2063C52.8 56.0063 52.6 58.2063 51.1 59.2063C50.2 59.8063 48.3 61.3064 44.5 60.3064C40.7 59.2064 40.3 55.4065 42.1 54.4065C43.9 53.3065 46 55.2065 48.4 55.9065Z" fill="#050505"/>
<g style="mix-blend-mode:multiply" opacity="0.1">
<mask id="mask10_153_5039" style="mask-type:luminance" maskUnits="userSpaceOnUse" x="41" y="59" width="5" height="3">
<path d="M44.95 61.5564L41.02 61.2563L41.16 59.4563L45.09 59.7563L44.95 61.5564Z" fill="white"/>
</mask>
<g mask="url(#mask10_153_5039)">
<path d="M41.2 59.4065C41.2 59.4065 42.2 61.1064 45 61.3064C45 61.3064 42.1 62.3065 41.2 59.4065Z" fill="#050505"/>
</g>
</g>
<path d="M30.1 57.6065C30.1 57.6065 27.5 57.5065 30.7 60.8065C32.3 62.5065 35.7 63.8065 35.7 63.8065L30.1 57.6065Z" fill="#050505"/>
<path d="M29.1 59.4065C29.1 59.4065 30.5 62.1063 33 63.5063C35.5 64.9063 35.9 64.8064 35.9 64.8064C35.9 64.8064 34.5 64.1063 32.6 60.7063" fill="#050505"/>
<path d="M27 61.2064C27 61.2064 24.7 60.3064 24.2 58.5064C23.6 56.7064 26.5 54.0065 28.2 55.6065C29.7 57.1065 29.9 58.3065 29.6 58.8065C29.2 59.3065 27 61.2064 27 61.2064Z" fill="#B3805F"/>
<path fill-rule="evenodd" clip-rule="evenodd" d="M27.0001 61.4064C26.9001 61.4064 24.5 60.5064 23.9 58.6064C23.6 57.4064 24.5001 56.0063 25.6001 55.3063C26.6001 54.7063 27.7 54.8063 28.4 55.5063C29.9 56.9063 30.2001 58.3064 29.7001 58.9064C29.4001 59.5064 27.3001 61.3064 27.2001 61.4064C27.1334 61.4064 27.0667 61.4064 27.0001 61.4064ZM26.9 55.3063C26.5 55.4063 26.1 55.6062 25.8 55.7062C24.9 56.2062 24.1 57.5064 24.4 58.4064C24.8 59.9064 26.5001 60.8063 27.0001 61.0063C27.6001 60.4063 29.1 59.1062 29.4 58.7062C29.7 58.3062 29.5001 57.1063 28.1001 55.8063C27.7001 55.4063 27.3 55.3063 26.9 55.3063Z" fill="#050505"/>
<path d="M26.3 55.9066C27.3 56.4066 26.8 57.7064 26.8 58.2064C26.7 58.7064 26.4 59.8066 25.6 59.9066C24.8 59.9066 24.2 59.7065 23.4 59.3065C22.7 58.9065 23.2 56.3064 23.9 55.7064C24.6 55.0064 25.8 55.6066 26.3 55.9066Z" fill="#B3805F"/>
<path fill-rule="evenodd" clip-rule="evenodd" d="M25.7 60.1066C25.6334 60.1066 25.6 60.1066 25.6 60.1066C24.7 60.1066 24 59.8065 23.3 59.5065C23.1 59.3731 22.9667 59.0732 22.9 58.6066C22.8 57.6066 23.2 56.0065 23.8 55.5065C24.3334 54.9731 25.2 55.0397 26.4 55.7064C27.4 56.2064 27.1 57.4065 27 58.0065C27 58.0731 27 58.1397 27 58.2064C26.9 58.7064 26.6 60.0066 25.7 60.1066ZM26.2 56.0065C25.2 55.4731 24.4667 55.4065 24 55.8065C23.6 56.2065 23.2 57.7066 23.3 58.6066C23.3667 58.8732 23.4334 59.0399 23.5 59.1066C24.2 59.4066 24.8 59.7064 25.6 59.7064C26.3 59.6064 26.5 58.5066 26.5 58.1066C26.5667 58.1066 26.6 58.0399 26.6 57.9066C26.7 57.2066 26.9 56.4065 26.2 56.0065Z" fill="#050505"/>
<path d="M28.7 56.2062C28.6 55.8062 28.2 55.7063 27.9 55.8063L26.8 56.2062C26.5 56.4062 26.3 56.7064 26.5 57.1064C26.6 57.4064 27 57.6064 27.3 57.4064L28 57.2062" fill="#B3805F"/>
<path d="M27.1 57.7063C27.2333 57.7063 27.3333 57.6731 27.4 57.6064L28.1 57.4065C28.2 57.4065 28.2 57.3063 28.2 57.2063C28.2 57.1063 28.1 57.0063 27.9 57.0063L27.3 57.2063C27.2333 57.2729 27.2 57.3064 27.2 57.3064C27 57.3064 26.7 57.2063 26.6 57.0063C26.6 56.873 26.6 56.7729 26.6 56.7063C26.6667 56.5729 26.7667 56.4731 26.9 56.4065L27.9 56.0063C28.2 55.9063 28.4 56.0063 28.5 56.2063C28.6 56.3063 28.7 56.4065 28.8 56.4065C28.9 56.3065 29 56.2064 28.9 56.1064C28.7 55.6064 28.2 55.4064 27.8 55.6064L26.7 56.0063C26.5 56.1397 26.3667 56.3063 26.3 56.5063C26.1667 56.7063 26.1667 56.9396 26.3 57.2063C26.4 57.5063 26.8 57.7063 27.1 57.7063Z" fill="#050505"/>
<g style="mix-blend-mode:multiply" opacity="0.1">
<mask id="mask11_153_5039" style="mask-type:luminance" maskUnits="userSpaceOnUse" x="25" y="56" width="3" height="3">
<path d="M27.9201 58.2263L26.0301 58.3464L25.9301 56.6665L27.8201 56.5464L27.9201 58.2263Z" fill="white"/>
</mask>
<g mask="url(#mask11_153_5039)">
<path d="M27.8 57.3065C27.8 57.3065 26.6 57.8066 26.5 57.1066C26.3 56.4066 26.1 56.7064 26.1 56.7064C26.1 56.7064 25.7 57.4065 26.3 58.0065C26.8 58.7065 28.1 58.1065 27.8 57.3065Z" fill="#050505"/>
</g>
</g>
<path d="M38.5 67.8064C39.6 65.1064 37.3 62.2063 37.3 62.2063L29.9 56.7063L25.9 61.6064L34.1 67.5063C34.1 67.5063 37.4 70.6064 38.5 67.8064Z" fill="#F1F1F1"/>
<path fill-rule="evenodd" clip-rule="evenodd" d="M37.1 69.2063C35.7 69.3063 34.1 67.8065 33.9 67.6065L25.8 61.8064C25.7333 61.8064 25.7 61.773 25.7 61.7063C25.7 61.6397 25.7 61.5731 25.7 61.5064L29.7 56.6065C29.8 56.5065 29.9 56.5065 30 56.6065L37.4 62.0064C37.4 62.0064 37.4333 62.0064 37.5 62.0064C37.6 62.2064 39.8 65.1065 38.7 67.9065C38.4333 68.5732 38 68.9732 37.4 69.1065C37.3333 69.1732 37.2333 69.2063 37.1 69.2063ZM38.3 67.8064C39.3 65.3064 37.4 62.6064 37.2 62.3064L29.9 57.0064L26.2 61.6065L34.2 67.3064C34.2 67.3064 36 69.0063 37.3 68.7063C37.7667 68.6397 38.1 68.3398 38.3 67.8064Z" fill="#050505"/>
<g style="mix-blend-mode:multiply" opacity="0.1">
<mask id="mask12_153_5039" style="mask-type:luminance" maskUnits="userSpaceOnUse" x="28" y="56" width="11" height="14">
<path d="M38.79 68.7563L28.89 69.3564L28.17 57.4763L38.08 56.8865L38.79 68.7563Z" fill="white"/>
</mask>
<g mask="url(#mask12_153_5039)">
<path d="M28.7001 60.1064L30.5001 57.3064L37.1001 62.2063C37.1001 62.2063 39.3001 66.5063 38.5001 68.0063C37.7001 69.5063 36.0001 68.9063 34.1001 67.2063C32.1001 65.5063 35.5001 65.4063 34.1001 63.5063C32.8001 61.5063 30.7001 60.7063 30.7001 60.7063C30.7001 60.7063 29.8001 62.2064 29.1001 61.8064C28.5001 61.5064 28.1001 60.9064 28.7001 60.1064Z" fill="#050505"/>
</g>
</g>
<path d="M95.8001 23.8065C85.6001 21.2065 77.5001 31.5065 67.3001 29.0065C66.0001 28.6065 65.0001 27.3065 64.8001 26.0065C64.1334 19.6731 63.4667 13.3398 62.8 7.00645C62.7 5.80645 63.9 5.30641 64.9 5.70641C75 8.20641 83.1001 -1.99354 93.3001 0.506455C94.6001 0.906455 95.6001 2.20646 95.8001 3.50646C96.4667 9.83979 97.1334 16.1731 97.8001 22.5065C98.1001 23.8065 96.6001 24.0065 95.8001 23.8065Z" fill="#427EC0"/>
<path opacity="0.2" d="M97.3 17.3064C91.5 14.7064 86.2 16.7065 80.8 19.1065C75.3 21.4065 70 23.4064 64.3 20.8064C63.9667 17.9398 63.6667 15.0398 63.4 12.1065C69.1 14.7065 74.4 12.8065 79.9 10.4065C85.3 8.00652 90.6 6.10633 96.4 8.70633C96.6667 11.573 96.9667 14.4398 97.3 17.3064Z" fill="#FEFEFE"/>
<path d="M97.2 16.8065C91.5 14.2065 86.1 16.2065 80.7 18.6065C75.3 20.9065 70 22.9065 64.2 20.3065C63.9334 17.7731 63.6667 15.2397 63.4 12.7064C69.2 15.3064 74.5 13.3066 79.9 10.9066C85.3 8.60657 90.7 6.60637 96.4 9.20637C96.6667 11.7397 96.9334 14.2731 97.2 16.8065Z" fill="#FEFEFE"/>
<path opacity="0.2" d="M67.3001 29.0065C66.0001 28.6065 65.0001 27.3065 64.8001 26.0065C64.1334 19.6731 63.4667 13.3398 62.8 7.00646C62.7 5.80646 63.9 5.30641 64.9 5.70641" fill="#652672"/>
<path d="M62.5 3.60645C61.9 3.70645 61.5 4.2063 61.6 4.7063L68.1 67.0063C68.2 67.6063 68.7 68.0065 69.2 67.9065C69.8 67.9065 70.2 67.4064 70.1 66.8064L63.6 4.50635C63.5 4.00635 63 3.60645 62.5 3.60645Z" fill="#D68B3E"/>
<path opacity="0.2" d="M63.7 5.50635L63.6 4.50635C63.5 4.00635 63 3.60645 62.5 3.60645C61.9 3.70645 61.5 4.2063 61.6 4.7063L61.7 6.50635C62.4334 6.23968 63.1 5.90635 63.7 5.50635Z" fill="#652672"/>
<path opacity="0.2" d="M69.9 67.1064C69.3 67.2064 68.8 66.8063 68.8 66.2063L62.2 3.90649C62.2 3.83983 62.2 3.77297 62.2 3.7063C61.8 3.8063 61.5 4.3063 61.6 4.7063L68.1 67.0063C68.2 67.6063 68.7 68.0065 69.2 67.9065C69.7 67.9065 70.1 67.5064 70.1 67.1064C70.0333 67.1064 69.9667 67.1064 69.9 67.1064Z" fill="#652672"/>
<path d="M65.1 2.50631C65.3 4.00631 64.2 5.30631 62.7 5.50631C61.2 5.60631 59.8 4.50631 59.7 3.00631C59.5 1.50631 60.6 0.206309 62.1 0.00630911C63.6 -0.0936909 64.9 1.00631 65.1 2.50631Z" fill="#FEC30B"/>
<path opacity="0.2" d="M63.8 1.00636C64.1 1.20636 64.2 1.6064 64.1 1.8064C63.9 1.9064 63.6 1.90645 63.3 1.60645C62.9 1.30645 62.8 1.0064 62.9 0.806404C63.1 0.706404 63.4 0.706356 63.8 1.00636Z" fill="#FEFEFE"/>
<path opacity="0.3" d="M63.3 4.7063C61.8 4.8063 60.5 3.7063 60.3 2.2063C60.3 1.7063 60.4 1.1063 60.6 0.706299C60 1.2063 59.6 2.10635 59.7 3.00635C59.8 4.50635 61.2 5.60635 62.7 5.50635C63.6 5.40635 64.4 4.80635 64.8 4.00635C64.4 4.40635 63.9 4.6063 63.3 4.7063Z" fill="#CA4F36"/>
<path d="M66.7 57.5063L67.4 57.2063L67.9 57.1064L68.6 57.9065L68.9 58.6064L69.5 57.9065L69.8 61.3064L69 62.0063L68.2 61.6064L67.5 60.6064L67.2 59.2063V58.4065L66.7 57.5063Z" fill="#B3805F"/>
<path d="M67.9001 61.6065C67.7667 61.4065 67.6334 61.2398 67.5001 61.1065C67.2001 60.5065 66.2001 58.8065 67.6001 57.9065C67.7001 57.8065 67.8001 57.8065 67.9001 57.9065C67.9001 58.0065 67.9001 58.2063 67.8001 58.2063C66.7001 58.9063 67.6001 60.4064 67.9001 60.8064C68.3001 61.6064 68.7001 61.8064 68.8001 61.8064C68.9001 61.7064 69.1001 61.8065 69.1001 61.9065C69.2001 62.0065 69.1001 62.1063 69.0001 62.2063C68.7001 62.3063 68.3001 62.0065 67.9001 61.6065Z" fill="#050505"/>
<path d="M67.1 58.5063C67.1 58.5729 67.1 58.6064 67.1 58.6064L67.5 59.1064C67.7 59.2397 67.9 59.3398 68.1 59.4064C68.3667 59.4064 68.6001 59.3396 68.8001 59.2062C68.9334 59.0729 69.0334 58.873 69.1 58.6064C69.1 58.4064 69.0334 58.2063 68.9 58.0063L68.2 57.1064C67.9 56.7064 67.4 56.7063 67 57.0063C66.9 57.0063 66.9 57.2062 67 57.2062C67 57.3062 67.2001 57.4063 67.3001 57.3063C67.5001 57.1063 67.7 57.2064 67.9 57.4064L68.6 58.3063C68.6667 58.373 68.7 58.473 68.7 58.6064C68.6334 58.7397 68.5667 58.8398 68.5 58.9064C68.4334 58.9731 68.3334 59.0063 68.2 59.0063C68.0667 59.0063 67.9667 58.9397 67.9 58.8063L67.4 58.3063C67.3 58.2063 67.2 58.2063 67.1 58.3063C67 58.3063 67 58.5063 67.1 58.5063Z" fill="#050505"/>
<g style="mix-blend-mode:multiply" opacity="0.1">
<mask id="mask13_153_5039" style="mask-type:luminance" maskUnits="userSpaceOnUse" x="66" y="57" width="4" height="4">
<path d="M68.0001 60.3564L66.8101 58.9763L68.2001 57.7764L69.3901 59.1565L68.0001 60.3564Z" fill="white"/>
</mask>
<g mask="url(#mask13_153_5039)">
<path d="M67.3 58.5063C67.3 58.5063 68.1 59.6064 68.6 59.1064C69.1 58.5064 69.2 58.9065 69.2 58.9065C69.2 58.9065 69.1 59.7065 68.3 59.9065C67.6 60.2065 66.7 59.1063 67.3 58.5063Z" fill="#050505"/>
</g>
</g>
<g style="mix-blend-mode:multiply" opacity="0.1">
<mask id="mask14_153_5039" style="mask-type:luminance" maskUnits="userSpaceOnUse" x="66" y="58" width="4" height="6">
<path d="M67.26 63.0164L66.34 59.2363L67.13 58.4463L69.56 61.2563L67.26 63.0164Z" fill="white"/>
</mask>
<g mask="url(#mask14_153_5039)">
<path d="M67.1 58.4065C67.1 58.4065 66.5 58.8065 66.7 59.9065C66.9 61.0065 67 61.5064 66.8 61.6064C66.5 61.7064 66 61.7063 66 62.0063C66.1 62.3063 66.8 62.7063 67.5 62.5063C68.2 62.3063 68.7 62.0063 68.7 62.0063C68.7 62.0063 67.4 61.1065 67.2 60.4065C67 59.7065 67.1 58.4065 67.1 58.4065Z" fill="#050505"/>
</g>
</g>
<path d="M68.9 62.0063C68.9 62.0063 69.3 62.0065 69.9 61.4065" stroke="#050505" stroke-width="0.4"/>
<path fill-rule="evenodd" clip-rule="evenodd" d="M29.5 47.1064C29.5667 47.1064 29.6 47.1064 29.6 47.1064C30.2 47.2064 30.5 47.6063 30.5 48.2063C30.5 48.7396 30.4667 49.2731 30.4 49.8064C30.4 50.0064 30.4 50.2065 30.4 50.4065C30.4 50.4732 30.4 50.573 30.4 50.7063L30.5 51.1064C30.7667 53.1731 30.9667 54.5396 31.1 55.2063C32 59.0063 33.4 62.9064 35.4 66.6064C35.6 66.9064 35.6 67.2065 35.4 67.4065C35.2 67.7065 35 67.8064 34.7 67.8064H34C33.5 67.8064 33.2 67.5064 33 67.1064C32.8 66.5064 32.5 65.8064 32.3 65.3064C32.2333 65.1731 32.1667 65.073 32.1 65.0063C31 62.5063 30.1 60.0063 29.4 57.5063C28.8 55.1063 28.2 52.5063 28.3 49.7063V49.4065C28.3 49.2065 28.3 49.0398 28.3 48.9065V48.7063C28.3 48.5063 28.3 48.3064 28.3 48.1064C28.3 47.6064 28.6 47.2064 29.1 47.1064C29.1667 47.1064 29.2333 47.1064 29.3 47.1064C29.3667 47.1064 29.4 47.1064 29.4 47.1064H29.5ZM29.4 47.7063C29.3333 47.7063 29.3 47.7063 29.3 47.7063C29.1 47.7063 29 47.8064 29 48.1064C29 48.3731 29 48.6398 29 48.9065C29 49.1732 29 49.4396 29 49.7063C28.8 52.3063 29.4 54.9065 30 57.4065C30.6667 59.9398 31.5667 62.373 32.7 64.7063C32.9 65.2063 33.4 66.2065 33.6 66.9065C33.7 67.1065 33.8 67.2063 34 67.2063L34.8 67.3064C35 67.3064 35.1 67.0065 35 66.9065C33 63.2065 31.5 59.4064 30.7 55.3064C30.5 54.4064 30.2 52.3063 30 51.2063C30 50.8063 29.9 50.5065 29.9 50.4065C29.9667 49.6732 30 48.9396 30 48.2063C30.1 47.8063 29.9 47.7063 29.6 47.7063C29.6 47.7063 29.5667 47.7063 29.5 47.7063C29.5 47.7063 29.4667 47.7063 29.4 47.7063Z" fill="#070505"/>
<path d="M28.9 48.1064C28.9 47.8064 29 47.7063 29.2 47.7063C29.2667 47.7063 29.3 47.7063 29.3 47.7063C29.3667 47.7063 29.4333 47.7063 29.5 47.7063C29.5 47.7063 29.5333 47.7063 29.6 47.7063C29.8 47.7063 30 47.8063 30 48.2063C29.9333 48.9396 29.8667 49.6732 29.8 50.4065C29.9 50.5065 29.9 50.8063 29.9 51.2063C30.1 52.3063 30.4 54.4064 30.6 55.3064C31.5 59.4064 32.9 63.2065 34.9 66.9065C35 67.0065 34.9 67.3064 34.7 67.3064L34 67.2063C33.8 67.2063 33.6 67.1065 33.6 66.9065C33.3 66.2065 32.9 65.2063 32.6 64.7063C31.5333 62.373 30.6667 59.9398 30 57.4065C29.3 54.9065 28.8 52.3063 28.9 49.7063C28.9 49.4396 28.9 49.1732 28.9 48.9065C28.9 48.6398 28.9 48.3731 28.9 48.1064Z" fill="#E0CC2E"/>
<path d="M31.2 13.7063C31.4 13.9063 31.6 14.0063 31.8 14.2063C32.3 14.7063 32.7 14.7064 33.2 14.1064C32.4 14.1064 31.8 13.8063 31.3 13.2063C30.7 12.4063 30 11.7065 29.4 10.9065C28.6 9.90647 27.8 8.90627 27.3 7.70627C26.7 6.60627 27 5.60647 28.1 4.90647C28.7 4.50647 29.3 4.80627 30.1 5.70627C30.2333 5.90627 30.3666 6.07294 30.5 6.20627C31.9 8.20627 32.6 10.5064 33.3 12.8064C33.5 13.3064 33.4 13.7064 33.2 14.1064C34 14.1064 34.2 13.7065 34.2 12.9065C34.2 12.1065 34.1 11.3063 33.9 10.5063C33.4333 9.17299 32.9666 7.83965 32.5 6.50632C32.4333 6.30632 32.3333 6.10647 32.2 5.90647C31.1 3.50647 28.6 3.20647 26.9 5.40647C26.4 6.10647 26.4 6.80642 26.7 7.60642C27 8.40642 27.5 9.10627 28 9.70627C28.7333 10.6396 29.4333 11.5398 30.1 12.4065C30.4 12.7065 30.7 12.9065 30.5 13.4065C30.5666 13.4731 30.6333 13.5398 30.7 13.6064C30.8 13.3064 30.9 13.3063 31.2 13.7063Z" fill="#A19535"/>
<path d="M30 47.9065C29.9333 47.9065 29.8667 47.9065 29.8 47.9065L32 46.7063C31.6 47.4063 30.8 47.9065 30 47.9065Z" fill="#070505"/>
<path d="M12.8 30.9065C12.9333 30.9065 12.9667 30.8396 12.9 30.7063C12.9 30.773 12.8667 30.8398 12.8 30.9065Z" fill="#262E59"/>
<path fill-rule="evenodd" clip-rule="evenodd" d="M36.9 17.3063C37 18.5063 36.1 19.4064 35 19.4064C33.6 19.4064 32.4 18.1063 32.4 16.5063C32.3 15.3063 33.2 14.4064 34.3 14.4064C35.6 14.3064 36.9 15.7063 36.9 17.3063ZM42.1 17.6064C41.3 17.7064 39.1 18.3064 38.8 18.4064C38.2667 18.6064 37.7667 18.8063 37.3 19.0063C37.2 19.1063 37 19.2063 36.9 19.0063C36.8 18.9063 37 18.8064 37.1 18.6064C37.6 17.3064 37.3 16.1063 36.5 15.0063C36.9 14.7063 37.3 14.7062 37.7 14.7062C40.2 14.0062 41.7 14.8063 42.5 17.0063C42.6 17.5063 42.5 17.6064 42.1 17.6064ZM44.2 27.5063C44.0667 27.6396 43.9334 27.7397 43.8 27.8063C42.9 28.4063 42.8 28.4064 42.5 27.4064C42.5 27.1064 42.4 26.6064 42 26.6064C41.5 26.6064 41.5 26.2064 41.3 25.9064C41.1 25.5064 40.9 24.7063 40.5 24.8063C39.6 25.1063 39.5 24.4063 39.2 24.0063C38.9 23.6063 38.5 23.4064 38.4 24.1064C38.3 24.2064 38.3 24.4064 38.1 24.4064C37.6 23.9064 37.2 23.3063 36.6 23.0063C36.1 22.8063 35.9 22.9064 36 23.4064C36 24.0064 36.1 24.5064 36.2 25.1064C36.3 25.4064 36.3 25.6064 35.9 25.6064C35 25.6064 34.9 25.6063 35.3 26.5063C35.4 26.8063 35.6 27.0063 35.7 27.3063C35.9 27.5063 35.9 27.7062 35.5 27.7062C34.3 27.6062 35 28.3062 35.2 28.7062C35.5 29.3062 36.1 29.9062 35.6 30.7062C35.6 30.7729 35.6334 30.8397 35.7 30.9064C35.7667 30.9064 35.8334 30.9396 35.9 31.0063C36.1 31.2063 36.5 31.4062 36.4 31.7062C36.4 32.0062 36 31.9063 35.7 32.0063C35.5 32.1063 35.3 32.1064 35.2 32.1064C35.1 32.1064 33.4 32.5063 32.9 32.5063C30.9 32.7063 28.9 32.5063 27.1 32.0063C26.2 31.7063 23.8 30.9062 23.5 30.7062C21.5 29.8062 21.5 29.8063 23.2 28.5063C23.6667 28.1729 24.1334 27.8064 24.6 27.4064C27.9 24.7064 31.5 22.2064 35.4 20.4064C37 19.7064 40.7 18.5064 41 18.4064C42.2 18.0064 42.4 18.1063 42.9 19.3063C43.6 21.0063 44.2 22.8063 45 24.5063C45.6 25.8063 45.3 26.7063 44.2 27.5063ZM46.6 27.6064C43.9 30.1064 40.9 32.1063 37.5 33.3063C31.8 35.3063 26.5 34.8063 21.7 31.0063C21.5 30.8063 21.2 30.7064 21.3 30.4064C21.4 30.2064 21.6 30.4064 21.7 30.4064C23.1 31.3064 24.5 31.7062 26 32.2062C30.4 33.7062 34.8 33.3063 38.9 31.3063C38.9 31.0063 38.8 30.9064 38.6 30.9064C38.5334 30.9064 38.5 30.9064 38.5 30.9064C38.3 31.1731 38.0334 31.2729 37.7 31.2062C37.7 31.2729 37.6667 31.3063 37.6 31.3063C37.4 31.4397 37.2334 31.4062 37.1 31.2062C36.9 31.1062 36.5 31.1064 36.4 30.6064C36.5334 30.6064 36.6667 30.6064 36.8 30.6064C37 30.5064 37.3 30.7064 37.4 30.4064C37.5 30.0064 37.1 30.1064 36.9 29.9064C36.4 29.5064 35.8 29.1063 35.6 28.3063C35.9 28.4063 36.2 28.5063 36.4 28.5063C36.7 28.6063 37 28.8063 37.2 28.5063C37.3 28.3063 37 28.1064 36.8 27.9064C36.4 27.4064 35.9 27.0062 35.9 26.2062C36.5 26.4062 37.1 26.7064 37.5 27.1064C37.6 27.2064 37.8 27.4063 37.9 27.3063C38.1 27.1063 38 26.9063 37.9 26.8063C37.7667 26.673 37.6334 26.5063 37.5 26.3063C37.1 25.5063 36.4 24.8063 36.5 23.8063C36.8 23.8063 36.9 24.0064 37.1 24.1064C37.8 24.7064 38 25.6064 38.5 26.4064C38.6 26.6064 38.6 26.9063 38.9 26.8063C39.1 26.6063 39 26.4062 38.9 26.2062C38.8 25.7062 38.6 25.2062 38.9 24.7062C39.3 25.1062 39.5 25.6063 39.7 26.0063C39.8 26.3063 39.8 26.9063 40.2 26.8063C40.6 26.8063 40.3 26.2064 40.5 25.9064C40.5 25.9064 40.5334 25.873 40.6 25.8063C41.2 26.5063 41.2 27.3064 41.4 28.1064C41.7 28.1064 41.7 27.6062 42 27.7062C42 28.4062 42 28.4064 41.7 29.1064C41.6334 29.173 41.5667 29.2397 41.5 29.3063C41.5 29.4397 41.6 29.5729 41.8 29.7062C42.7334 29.1062 43.7 28.473 44.7 27.8063C45.0334 27.473 45.4334 27.1062 45.9 26.7062C46.1 26.5062 46.4 26.3062 46.7 26.7062V26.8063C47 27.1063 46.8 27.3064 46.6 27.6064ZM20.7 31.3063C21.1 30.8063 21.3 31.3063 21.5 31.5063C23.8 33.3063 26 35.1064 28.6 36.6064C30.3 37.4064 32 38.2064 33.8 38.4064C36.5 38.8064 38.8 37.7062 41.1 36.7062C40.8 36.3062 40.2 36.7062 40 36.2062C38.9 34.5062 39.2 33.3063 41 32.3063C41.3 32.1063 41.6 32.0062 41.9 31.7062C42.5 31.3062 43.1 31.3064 43.7 31.6064C44.4334 31.9397 44.9334 32.4729 45.2 33.2062C45.3 33.4062 45.4 33.6063 45.1 33.8063C45.0334 33.9397 44.9334 34.0063 44.8 34.0063C44.7334 34.0729 44.6667 34.1396 44.6 34.2062C44.5334 34.2062 44.4667 34.2397 44.4 34.3063C44.3334 34.4397 44.2334 34.5063 44.1 34.5063C44.1 34.7063 44.1 34.8729 44.1 35.0063C44.3 34.9396 44.4667 34.8396 44.6 34.7062C44.7334 34.6396 44.8334 34.5729 44.9 34.5063C45.5667 34.1063 46.2 33.6729 46.8 33.2062C47.3 32.8062 47.6 32.4062 48.1 32.2062C48.3 31.9062 48.5 31.6063 49 31.8063C49.5 32.2063 49.3 32.5064 48.9 32.9064C46.6 35.1064 43.9 36.9064 40.9 38.1064C38.9 38.9064 37 39.8062 34.8 39.7062C32.4 39.7062 30.3 38.8064 28.2 37.6064C25.6 36.1064 23.2 34.3064 20.8 32.4064C20.4 32.0064 20.4 31.7063 20.7 31.3063ZM46.6 32.7062C46.5334 32.7062 46.4667 32.7397 46.4 32.8063C46 33.3063 45.6 33.4063 45.5 32.5063C45.5 32.4396 45.5 32.4064 45.5 32.4064C45.4334 32.3397 45.4 32.2729 45.4 32.2062H45.3C45.3 32.1396 45.2667 32.0729 45.2 32.0063C45.1334 31.9396 45.0667 31.873 45 31.8063C44.6 31.5063 43.9 31.3064 43.8 30.9064C43.7 30.3064 44.6 30.2063 44.9 29.8063C44.9667 29.7397 45.0334 29.7062 45.1 29.7062C46.4 28.4062 46.5 28.4063 47.2 30.0063C47.2 30.0063 47.2334 30.0397 47.3 30.1064C48 31.6064 47.9 31.7062 46.6 32.7062ZM39.4 36.2062C39.6 36.6062 39.6 36.8063 39.2 37.0063C36.9 37.9063 34.6 38.4063 32.1 37.5063C31.3667 37.2396 30.6334 36.9397 29.9 36.6064C29.5667 36.6064 29.3 36.4729 29.1 36.2062C28.5667 35.8729 28.0667 35.573 27.6 35.3063C27.3 35.1063 26.9 34.9064 27 34.6064C27.1 34.2064 27.5 34.5063 27.8 34.5063C30.1 35.0063 32.5 35.2064 34.9 34.6064C36.1 34.4064 37.2 34.0064 38.4 33.6064C38.6 33.5064 39.1 33.3064 39 33.9064C38.8 34.8064 39 35.5062 39.4 36.2062ZM13.9 32.3063C15.9 29.6063 18 27.0062 20.5 24.7062C21.9 23.2062 23.5 21.9064 25.1 20.6064C27.0334 19.1397 29.0667 17.9064 31.2 16.9064C31.4 16.8064 31.8 16.4063 31.9 17.0063C32.3 18.6063 33.2 19.5063 34.9 20.0063C34.2 20.4063 33.7 20.6064 33.1 20.9064C33.0334 20.9064 32.9667 20.9396 32.9 21.0063C32.7667 21.0729 32.6334 21.1396 32.5 21.2062C32.3667 21.2729 32.2667 21.3398 32.2 21.4064C30.7 22.3064 29.2 23.2063 27.7 24.3063C26.0334 25.573 24.3667 26.8397 22.7 28.1064C22 28.9064 21.3 29.7064 20 28.9064C19.5 28.6064 18.8 28.9064 18.4 29.4064C18 29.8064 18 30.2062 18.3 30.7062C18.4 30.9062 18.3 31.1063 18.3 31.3063C18.2 32.5063 17.3 32.9063 16.6 33.5063C15.2 34.8063 15.2 34.8064 14 33.4064C13.6 33.0064 13.6 32.7063 13.9 32.3063ZM13.2 31.1064C13.3334 30.973 13.4334 30.8396 13.5 30.7062C14.9 28.8396 16.4 27.0397 18 25.3063C18.5 24.7063 21.4 22.1063 21.5 22.0063C22 21.6063 25.3 18.8063 26.5 18.0063C26.9 17.8063 28.5 16.9064 29.3 16.4064C30.1 16.0064 30.8667 15.6062 31.6 15.2062C31.6667 15.2062 31.7334 15.2062 31.8 15.2062C32 15.1062 32.1 15.2064 32.1 15.4064C32.1 15.4731 32.0667 15.5063 32 15.5063C31.9 15.9063 31.6 16.2063 31.2 16.3063C28.9 17.3063 26.9 18.7062 24.9 20.2062C23.2 21.4062 21.7 22.8062 20.1 24.2062C18.5 25.8062 17 27.6063 15.5 29.3063C14.9 30.0063 14.5 30.9063 13.8 31.5063C13.7 31.7063 13.5 32.0062 13.3 31.7062C13.1 31.6062 13.1 31.3064 13.2 31.1064ZM18.8 31.6064C18.8 31.3064 20.2 29.8063 20.6 29.8063C20.7 29.8063 20.8 30.0064 20.7 30.1064C20.3667 30.773 20.0334 31.3731 19.7 31.9064C19.6 32.1064 19.4 32.2063 19.2 32.0063C19 31.9063 18.8 31.8064 18.8 31.6064ZM18.6 30.0063C18.6667 29.7396 18.8667 29.5729 19.2 29.5063C19.4 29.6063 19.6 29.6063 19.5 29.8063C19.4 30.1063 19.2 30.4064 18.8 30.4064C18.7 30.4064 18.6 30.2063 18.6 30.0063Z" fill="#070505"/>
<path fill-rule="evenodd" clip-rule="evenodd" d="M12.3 31.3063C12.3 31.2063 12.9 30.4063 13 30.3063C13 30.2063 14 28.9063 14.1 28.8063C15.3 27.2063 16.6 25.6062 18.1 24.2062C18.7 23.5062 21.4 21.2064 22.8 20.1064C22.8 20.1064 24.9 18.3062 25.1 18.2062C27.1 16.8062 29.2 15.6062 31.4 14.7062C31.4667 14.6396 31.4667 14.5729 31.4 14.5063C31.4 14.5063 31.3 14.3062 31.2 14.2062C31.1 14.1062 29.8 12.5062 29.5 12.2062C28.6 11.1062 27.8 10.0064 26.9 8.90641C25.7 7.20641 25.9 5.60632 27.4 4.30632C29.4 2.70632 31.5 3.20642 32.6 5.40642C33.3 7.10642 34 8.70627 34.4 10.5063C34.5 10.7063 34.7 11.8062 34.8 12.2062C34.8 12.6062 34.8 12.9396 34.8 13.2062C34.8 13.2729 34.7333 13.3729 34.6 13.5063C34.7 13.5063 34.8 13.4063 35 13.3063C35.2 13.2397 35.4 13.2062 35.6 13.2062C36 13.1062 37.4 12.9064 38.5 12.9064C39 13.0064 39.5 13.0064 40 13.1064C40.1 13.1064 40.4 13.2063 40.4 13.3063C40.8 13.4063 41 13.6064 41 13.6064C41.0667 13.673 41.1333 13.7397 41.2 13.8063C42.2 14.8063 43.1 17.1064 43.1 17.1064C43.4 17.9064 42.8 17.6062 43.1 18.2062C43.3 18.8062 43.4 19.0064 43.5 19.4064C43.5667 19.5397 43.6333 19.673 43.7 19.8063C43.8 19.9063 44.9 22.9062 45.3 23.7062C45.4 24.1062 45.8 25.2063 46 25.5063C46 25.6063 46.2 25.9063 46.2 26.0063C46.3 26.0063 46.4 25.9064 46.7 26.1064C46.9 26.2397 47.0667 26.3729 47.2 26.5063C47.4 26.8063 47.5 27.1064 47.2 27.6064C47.1 27.8064 46.7 27.9062 46.8 28.2062C46.9 28.3062 47.7 30.0063 48 30.5063C48.1 30.8063 48.2 31.2062 48.7 31.2062C49.4 31.2062 49.8 31.7063 49.9 32.5063C49.8 32.6063 49.7 32.7063 49.7 33.0063C50.7 33.1063 51.7 33.2063 52.6 33.5063C53.5 33.8063 53.6 34.1062 52.9 34.7062C52.3667 35.1729 51.8333 35.6063 51.3 36.0063C46.2 39.4063 40.8 41.9064 34.8 43.1064C34.2 43.2064 32.7 43.5063 32.7 43.5063C32.4 43.5063 32.2 43.5063 32.3 43.8063C32.4 44.2063 32.7 44.0064 33 43.9064C33.1 43.9064 34.5 43.7064 34.8 43.6064C36.1333 43.3397 37.4667 43.0064 38.8 42.6064C37.9 42.9064 37 43.2063 36.1 43.5063C35 43.8063 35 44.1062 34.3 44.2062C34.2 44.3062 33.1 44.5063 33 44.5063C32.5 44.6063 32.1 44.6063 32.1 44.5063C31.7 43.8063 31 43.3063 30.1 43.3063C28.8 43.2063 27.7 44.2063 27.7 45.5063C27.7 46.7063 28.6 47.8064 29.8 47.9064H28.7C28.7 47.9064 28.4 47.7063 28 47.5063C26.9 47.8063 26.5 47.1063 25.9 46.5063C25.9 46.5063 25.8667 46.4731 25.8 46.4064C25.7333 46.3397 25.6667 46.2729 25.6 46.2062C25.5333 46.1396 25.4667 46.0729 25.4 46.0063C25.4 45.9396 25.3667 45.873 25.3 45.8063C25.2333 45.8063 25.2 45.7729 25.2 45.7062C25.3 45.3062 25.7 45.4063 25.9 45.3063C26.7 45.1063 27.4 44.9064 27.6 43.9064C27.8 43.2064 29.2 42.5062 30.1 42.7062C30.5667 42.7729 30.9667 42.7397 31.3 42.6064C31.4333 42.5397 31.5667 42.4731 31.7 42.4064C31.9 42.3397 32.0667 42.2729 32.2 42.2062C32.2 42.2062 34.3 41.0064 34.3 40.9064C34.6 40.8064 35.1 40.8064 35 40.4064C34.9 40.1064 34.5 40.3063 34.2 40.3063C33 40.4063 32 39.8062 31.6 39.7062C31.4667 39.6396 31.3333 39.6064 31.2 39.6064C30.9333 39.5397 30.6667 39.4397 30.4 39.3063C28.4 38.5063 26.5333 37.4729 24.8 36.2062C23.3 35.2062 21.9 34.0064 20.5 32.9064C20.1 32.7064 18.6 32.6063 18.2 32.8063C17.5 33.5063 16.7 34.1064 16.1 34.9064C15.8 35.3064 15.4 35.4062 15.1 35.2062C15.1 35.2062 14.7 34.8063 14.6 34.8063C14.2 34.3063 13.9 34.0063 13.4 33.5063C13.4 33.4063 13.3 33.3063 13.3 33.3063C12.8 32.7063 13.2 32.6062 13 32.2062C12.9333 32.0729 12.8333 31.9731 12.7 31.9064C12.4 31.5064 12.2 31.5063 12.3 31.3063ZM41.4 41.7062C40.5333 42.0396 39.6667 42.3397 38.8 42.6064C40.2 42.1064 41.4 41.7062 41.4 41.7062ZM35 14.0063C35.2 14.1063 35.6 14.4063 35.8 14.5063C35.9333 14.5063 36.0667 14.5063 36.2 14.5063C37.6 14.2063 39.1 13.8062 40.9 14.2062C40.6 13.5062 39.8 13.4063 39.3 13.3063C38.9 13.3063 38.1 13.3063 37.4 13.3063C36.8 13.4063 35.5 13.6064 35.5 13.6064C35.1 13.6064 34.7 13.8063 35 14.0063Z" fill="#070505"/>
<path fill-rule="evenodd" clip-rule="evenodd" d="M30.1 42.7063C30.9 42.8063 31.6 43.1064 32.1 43.6064C32.6 44.2064 32.8 44.9063 32.8 45.7063C32.7 47.2063 31.5 48.4065 29.9 48.4065C29.2 48.4065 28.5 48.0063 28 47.5063C27.4 46.9063 27.2 46.2063 27.2 45.5063C27.2 43.9063 28.5 42.7063 30.1 42.7063ZM27.7 45.5063C27.7 46.7063 28.7 47.8065 29.9 47.9065C29.9 47.9065 29.9333 47.9065 30 47.9065C31.2 47.9065 32.2 46.9063 32.3 45.7063C32.4 44.4063 31.4 43.3064 30.1 43.3064C28.8 43.2064 27.7 44.2063 27.7 45.5063ZM28.5 45.5063C28.5 44.7063 29.2 44.1064 30 44.1064C30.9 44.1064 31.5 44.8064 31.5 45.6064C31.5 46.4064 30.8 47.0063 30 47.0063C29.1 47.0063 28.5 46.4063 28.5 45.5063ZM30 46.5063C30.2667 46.5063 30.5 46.4063 30.7 46.2063C30.9 46.073 31 45.8731 31 45.6064C31 45.0064 30.6 44.6064 30 44.6064C29.5 44.6064 29 45.0063 29 45.5063C29 46.1063 29.4 46.5063 30 46.5063Z" fill="#070505"/>
<path fill-rule="evenodd" clip-rule="evenodd" d="M49.9 31.9065C50.7 32.0065 52.6 32.3065 52.9 32.4065C53.6333 32.6732 54.1 33.0065 54.3 33.4065C54.6 34.0065 54.6 34.5064 54.1 35.1064C54.1 35.2064 53.8 35.6065 53.4 35.9065C53.1 36.0065 52.7 36.3063 52.2 36.7063C50.8 37.6063 48.9 38.8065 48.8 38.9065C48.6 39.0065 47.9 39.3063 47.3 39.7063C46.8 39.9063 46.3 40.2063 46.3 40.2063C45.8 40.5063 43.9 41.3065 43.7 41.4065L41.6 42.3064C39.5333 43.0397 37.5 43.6063 35.5 44.0063C35.4 44.0063 32.8 44.6063 32.5 44.5063H32.4C32.1 44.5063 31.8 44.2065 31.7 43.9065C31.7 43.6065 31.8 43.4064 31.9 43.3064C32 43.0064 32.3 43.0063 32.4 43.0063C32.6 43.0063 33.6 42.8063 34 42.7063C39.9 41.6063 45.4 39.3063 51 35.5063C51.6 35.1063 52.1 34.7064 52.5 34.3064C52.5667 34.2397 52.6333 34.1731 52.7 34.1064C52.6333 34.1064 52.5333 34.073 52.4 34.0063C51.6 33.8063 50.9 33.7064 50 33.6064H49.7L49.3 33.5063L49.2 33.2063C49.1 32.7063 49.3 32.4064 49.4 32.3064C49.4 32.2397 49.4 32.2063 49.4 32.2063L49.6 31.9065H49.9ZM49.7 33.0063C50.6 33.1063 51.6 33.2063 52.5 33.5063C53.4 33.8063 53.5 34.0063 52.8 34.7063C52.3333 35.173 51.8 35.6063 51.2 36.0063C45.9 39.5063 40.3 42.1063 34 43.2063C33.7 43.3063 32.5 43.5063 32.4 43.5063C32.3 43.5063 32.2 43.5063 32.2 43.7063C32.2667 43.8396 32.3333 43.9397 32.4 44.0063C32.7 44.0063 34.8 43.5065 35.3 43.4065C37.3667 43.0065 39.3667 42.4396 41.3 41.7063L43.5 40.9065C43.5 40.9065 45.4 40.0063 46 39.7063C46.1 39.6063 48.2 38.5065 48.5 38.4065C48.6 38.3065 52.2 35.9065 53 35.4065C53.4 35.1065 53.6 34.8064 53.6 34.8064C54 34.3064 54 34.0064 53.8 33.6064C53.6 33.3064 53.2 33.0065 52.7 32.9065C52.5 32.8065 50.6 32.5065 49.8 32.4065C49.7 32.6065 49.6 32.7063 49.7 33.0063Z" fill="#070505"/>
<path d="M13.9 32.3064C15.9 29.6064 18 27.0063 20.5 24.7063C21.3667 23.773 22.3 22.9065 23.3 22.1065C23.9 21.6065 27.2 19.1064 28.3 18.5064C29.2333 17.9064 30.2 17.3732 31.2 16.9065C31.4 16.8065 31.8 16.4064 31.9 17.0064C32.3 18.6064 33.2 19.5064 34.9 20.0064C34.2 20.4064 31.8 21.6064 31.6 21.8064C30.3 22.6064 29 23.4064 27.7 24.3064C26.0333 25.5731 24.3667 26.8398 22.7 28.1065C21.7 28.9065 21.3 29.7065 20 28.9065C19.5 28.6065 18.8 28.9065 18.4 29.4065C18 29.8065 18 30.2063 18.3 30.7063C18.4 30.9063 18.3 31.1064 18.3 31.3064C18.2 32.5064 17.3 32.9064 16.6 33.5064C15.2 34.8064 15.2 34.8065 14 33.4065C13.6 33.0065 13.6 32.7064 13.9 32.3064Z" fill="#E0CC2E"/>
<path d="M42 28.9065C42 28.7065 42.3 27.8063 42 27.7063C41.7 27.5063 41.7 27.9064 41.3 27.8064C41 27.7064 41.1 27.2063 41.1 26.7063C41.1 26.4063 41 26.1064 41 26.0064C40.9334 25.9397 40.8 25.8731 40.6 25.8064C40.5 25.8064 40.5 25.9065 40.5 25.9065C40.4 26.2065 40.4 26.5065 40.2 26.6065C40.1334 26.6732 40.1 26.7063 40.1 26.7063C39.9667 26.7063 39.8667 26.6732 39.8 26.6065C39.5 26.5065 39.2 24.3065 38.8 24.4065C38.5 24.5065 38.8 25.7063 38.9 26.2063C39 26.4063 39.1 26.6064 38.9 26.8064C38.6 26.9064 38.6 26.6065 38.5 26.4065C38 25.6065 37.7 24.7064 37.2 24.0064C37 23.9064 36.7 23.5065 36.5 23.6065C36.2 23.8065 36.5 24.2065 36.5 24.4065C36.7 25.2065 37.2 25.7064 37.5 26.3064C37.6334 26.5064 37.7667 26.6731 37.9 26.8064C38 26.9064 38.1 27.1064 37.9 27.3064C37.8 27.4064 37.6 27.2065 37.5 27.1065C37.1 26.7065 36.7 26.3065 36.1 26.1065C36 26.0065 35.7 25.9064 35.6 26.0064C35.5 26.0064 35.6 26.1063 35.7 26.2063C35.8 26.5063 36.1 26.9063 36.3 27.2063C36.4 27.5063 36.6 27.7065 36.8 27.9065C37 28.1065 37.3 28.3064 37.2 28.5064C37 28.8064 36.7 28.7064 36.4 28.5064C36.1 28.4064 36 28.3063 35.8 28.2063C35.6 28.1063 35.5 28.0063 35.4 28.2063C35.4 28.273 35.4 28.3399 35.4 28.4065C35.5 28.5065 35.8 29.0063 36 29.2063C36.2 29.5063 36.4 29.7065 36.9 29.9065C37.2 30.1065 37.5 30.0065 37.4 30.4065C37.4 30.5065 37.3 30.6065 37.1 30.6065C37 30.6065 36.9 30.5064 36.7 30.5064C36.6 30.5064 36.4 30.4065 36.4 30.6065C36.4 30.9065 36.5 30.9065 36.6 31.1065C37 31.4065 37.3 31.4064 37.6 31.3064C37.6667 31.3064 37.7 31.273 37.7 31.2063C38.1 31.1063 38.5 30.9065 38.6 30.9065C39 30.7065 40.5 29.9064 40.5 29.8064L41.5 29.3064C41.6 29.2064 41.9 29.1065 42 28.9065Z" fill="#FCBC60"/>
<path d="M32.4 16.5063C32.4 18.1063 33.6 19.4064 35 19.4064C36.1 19.4064 37 18.5063 36.9 17.3063C36.9 15.7063 35.6 14.3064 34.3 14.4064C33.2 14.4064 32.3 15.3063 32.4 16.5063Z" fill="#9DCDED"/>
<path d="M33.1 16.6064C33.1 17.7064 33.9 18.7063 34.9 18.7063C35.7 18.7063 36.3 18.0063 36.2 17.2063C36.2 16.1063 35.3 15.1064 34.4 15.1064C33.6 15.2064 33 15.8064 33.1 16.6064Z" fill="#FEFEFE"/>
<path d="M33.8 16.7063C33.8 17.3063 34.3 17.8064 34.8 17.8064C35.2 17.8064 35.5 17.5063 35.5 17.0063C35.4 16.5063 35 16.0063 34.5 16.0063C34.1 16.0063 33.8 16.3063 33.8 16.7063Z" fill="#9DCDED"/>
<path fill-rule="evenodd" clip-rule="evenodd" d="M30.1 43.3065C31.4 43.3065 32.4 44.4064 32.3 45.7064C32.2 46.9064 31.2 47.9066 30 47.9066C28.7 47.9066 27.7 46.7064 27.7 45.5064C27.7 44.2064 28.8 43.2065 30.1 43.3065ZM31.5 45.6065C31.5 44.7065 30.8 44.1065 30 44.1065C29.2 44.1065 28.5 44.7064 28.5 45.5064C28.5 46.4064 29.1 47.0064 30 47.0064C30.8 47.0064 31.5 46.4065 31.5 45.6065Z" fill="#A19535"/>
<path d="M12.9 31.2063C13.0333 31.073 13.1333 30.9397 13.2 30.8064C14.3 29.3064 15.5 27.7063 16.8 26.2063C16.9 26.0063 17.8 25.1064 18.8 24.1064C19.5 23.4064 21.7 21.5063 22.9 20.5063C24.2 19.5063 25.7 18.3063 26.9 17.5063C27.4 17.2063 28.7 16.5064 29 16.3064C30.1 15.7064 31.1 15.2063 31.7 15.0063C31.9 15.0063 32.1 15.1065 32.1 15.4065C32.1 15.4065 31.9 15.7064 31.9 15.8064C31.7667 16.0064 31.5333 16.1731 31.2 16.3064C29.9 17.0064 28.6 17.6065 27.4 18.4065C26.5 19.0065 23.5 21.2064 22.8 21.8064C21.9 22.6064 19 25.3065 18.5 25.9065C17.5 27.0065 16.5 28.2064 15.5 29.3064C14.9 30.0064 14.5 30.9063 13.8 31.5063C13.7 31.7063 13.5 32.0063 13.3 31.7063C13.1 31.6063 12.8 31.4063 12.9 31.2063Z" fill="#264485"/>
<path d="M20.6 29.8064C20.2 29.8064 18.8 31.3064 18.8 31.6064C18.8 31.8064 19 31.9063 19.2 32.0063C19.4 32.2063 19.6 32.1065 19.7 31.9065C20.0333 31.3732 20.3667 30.7731 20.7 30.1064C20.8 30.0064 20.7 29.8064 20.6 29.8064Z" fill="#A19535"/>
<path d="M19.4 29.4065C19.1 29.4065 18.7 29.7063 18.6 30.0063C18.6 30.2063 18.7 30.4065 18.8 30.4065C19.2 30.4065 19.6 30.0063 19.7 29.7063C19.8 29.5063 19.6 29.4065 19.4 29.4065Z" fill="#A19535"/>
<path d="M20.7 31.3063C21.1 30.8063 21.3 31.3062 21.5 31.5062C23.8 33.3062 26 35.1063 28.6 36.6063C30.3 37.4063 32 38.2064 33.8 38.4064C35.9 38.7064 37.8 38.1063 39.6 37.3063C40.1 37.1063 41.3 36.6063 41.4 36.6063C42.1 36.2063 44.5 34.8062 44.6 34.7062C44.7333 34.6395 44.8333 34.5729 44.9 34.5062C45.5667 34.1062 46.2 33.6729 46.8 33.2062C47.1 33.0062 48 32.4062 48.1 32.2062C48.2 32.0062 48.4 31.8062 48.5 31.7062C48.6333 31.7062 48.7667 31.7396 48.9 31.8063C48.9667 31.8063 49.0333 31.8397 49.1 31.9064C49.4 32.2064 49.3 32.6064 48.9 32.9064C46.6 35.1064 43.9 36.9063 40.9 38.1063C38.9 38.9063 37 39.8062 34.8 39.7062C32.4 39.7062 30.3 38.8063 28.2 37.6063C25.6 36.1063 23.2 34.3064 20.8 32.4064C20.4 32.0064 20.4 31.7063 20.7 31.3063Z" fill="#E0CC2E"/>
<path d="M20.8 31.7063C23.2 33.6063 25.6 35.5063 28.3 37.0063C30.3 38.1063 32.4 39.0063 34.8 39.0063C37 39.1063 38.9 38.3063 40.9 37.5063C43.9 36.2063 46.6 34.4063 49 32.2063C49.0667 32.1396 49.1333 32.073 49.2 32.0063C49.4 32.3063 49.2 32.6065 48.9 32.9065C46.6 35.1065 43.9 36.9064 40.9 38.1064C38.9 38.9064 37 39.8063 34.8 39.7063C32.4 39.7063 30.3 38.8064 28.2 37.6064C25.6 36.1064 23.2 34.3065 20.8 32.4065C20.4 32.1065 20.4 31.8065 20.6 31.4065C20.6667 31.5398 20.7333 31.6396 20.8 31.7063Z" fill="#A19535"/>
<path d="M46 28.9065C46.3 28.7065 46.5 28.7064 46.7 29.0064C46.8333 29.2064 47 29.5397 47.2 30.0064C47.2 30.0064 47.6 30.8065 47.7 31.1065C47.7 31.4065 47.7 31.6064 47.6 31.8064C47.4 32.1064 46.2 33.0065 46.1 33.1065C45.9 33.2065 45.7 33.2065 45.6 32.9065C45.6 32.8065 45 31.8064 44.6 31.5064C44.1 31.2064 43.9 31.3065 43.8 30.9065C43.8 30.6065 44 30.4063 44.3 30.2063C44.5 30.1063 45.8 29.0065 46 28.9065Z" fill="#264485"/>
<path d="M24.4 33.3064C24.5 33.1064 24.9 33.4065 25.2 33.6065C25.6 33.8065 25.9 33.9065 26.3 34.1065C26.6 34.2065 27.9 34.5063 28.4 34.7063C30.8 35.2063 32.9 35.1065 34.9 34.6065C36.1 34.4065 37.2 34.0065 38.4 33.6065C38.6 33.5065 39.1 33.3065 39 33.9065C38.8 34.8065 39 35.5063 39.4 36.2063C39.6 36.6063 39.6 36.8064 39.2 37.0064C36.9 37.9064 34.6 38.4064 32.1 37.5064C31.6334 37.3064 31.1334 37.1065 30.6 36.9065C28.1 36.0065 25.6 34.2065 25.2 33.9065C24.8 33.7065 24.3 33.4064 24.4 33.3064Z" fill="#264485"/>
<path d="M21.3 30.4064C21.4 30.2064 21.6 30.4064 21.7 30.4064C23.1 31.3064 24.5 31.7062 26 32.2062C30.4 33.7062 34.8 33.3063 38.9 31.3063C38.9667 31.2397 39.0333 31.2062 39.1 31.2062C39.9 30.8062 42.3 29.4063 42.5 29.3063C43.3 28.9063 43.9 28.5063 44.7 27.8063C45.1 27.5063 45.4 27.0062 45.9 26.7062C46.1 26.5062 46.3 26.4063 46.5 26.5063C46.5 26.5063 46.8 26.8064 46.9 26.9064C47 27.1064 46.8 27.4064 46.6 27.6064C43.9 30.1064 40.9 32.1063 37.5 33.3063C31.8 35.3063 26.5 34.8063 21.7 31.0063C21.5 30.8063 21.2 30.7064 21.3 30.4064Z" fill="#E0CC2E"/>
<path d="M37.1 32.8064C40.6 31.6064 43.6 29.6063 46.2 27.0063C46.4 26.9063 46.5 26.7064 46.6 26.6064C46.7 26.7064 46.9 26.9065 46.9 26.9065C47 27.1065 46.8 27.4064 46.6 27.6064C43.9 30.1064 40.9 32.1064 37.5 33.3064C31.8 35.3064 26.5 34.8063 21.7 31.0063C21.5 30.8063 21.2 30.7065 21.3 30.4065C21.3667 30.4065 21.4 30.4065 21.4 30.4065C26.2 34.3065 31.5 34.7064 37.1 32.8064Z" fill="#A19535"/>
<path d="M36.5 15.0063C36.5 14.7063 38.7 14.4065 40.3 14.4065C40.6 14.5065 40.9 14.5064 41.1 14.6064C41.7 15.0064 42.1 16.1063 42.5 17.0063C42.6 17.5063 42.5 17.6064 42.1 17.6064C40.8 17.7064 38.1 18.7063 37.3 19.0063C37 19.1063 37 19.1063 36.9 19.0063C36.9 19.0063 37 18.8064 37.1 18.6064C37.6 17.5064 37.4 16.4064 36.8 15.3064C36.7 15.2064 36.5 15.1063 36.5 15.0063Z" fill="#E0CC2E"/>
<path d="M35.1 32.2063C35.5 32.1063 36 32.0063 36.1 32.0063C36.3 31.9063 36.4 31.8063 36.4 31.7063C36.5 31.4063 36 31.0064 36 30.8064C35.9 30.7064 35.9 30.5064 36 30.3064C36.2 30.2064 36.5 30.4063 36.6 30.2063C36.6 30.1063 36.4 30.0064 36.3 29.9064C36 29.8064 35.7 29.4064 35.6 29.3064C35.4 29.0397 35.2667 28.8396 35.2 28.7063C35 28.4063 34.8 28.1064 35.2 27.9064C35.3 27.8064 35.4 27.7064 35.7 27.8064C35.9 27.8064 36.2 28.1064 36.5 28.3064C36.7 28.3064 36.5 28.1063 36.4 28.0063C36.1 27.8063 35.9 27.5064 35.7 27.3064C35.4 26.9064 35.3 26.4064 35.3 26.3064C35.2 25.9064 35.1 25.7064 35.4 25.6064C35.5 25.6064 35.8 25.6063 36.2 25.7063C36.3 25.8063 36.5 25.9063 36.7 26.0063C36.8 26.1063 36.9 26.2064 36.9 26.1064C36.9 26.0064 36.8 25.8063 36.7 25.7063C36.4 25.3063 36.2 24.8064 36.2 24.8064C36.0667 24.3397 36 23.8731 36 23.4064C35.9 22.9064 36.1 22.8063 36.6 23.0063C37 23.2063 37.3 23.6064 37.6 23.9064C37.7 24.1064 38 24.6063 38.1 24.7063C38.1 24.9063 38.2 25.1064 38.3 25.1064C38.3 25.1064 38.3 25.1064 38.3 24.9064C38.3 24.6064 38.3 24.1064 38.4 24.1064C38.5 23.4064 38.9 23.6063 39.2 24.0063C39.3 24.2063 39.4 24.3064 39.6 24.6064C39.7 24.9064 39.8 25.7064 40 25.8064C40.2 25.8064 40.1 25.3064 40.6 25.3064C41 25.3064 41.4 25.8064 41.4 26.3064C41.4 26.6064 41.2 27.3064 41.5 27.4064C41.6 27.4064 41.8 27.1064 42.1 27.1064C42.4 27.1064 42.4 27.4064 42.4 27.8064C42.3 28.1064 42.3 28.2063 42.4 28.5063C42.7 28.8063 43.1 28.3064 43.7 27.9064C43.9 27.8064 44.2 27.6063 44.3 27.5063C44.8 27.1063 45.2 26.7064 45.5 26.4064C45.6 26.1064 45.6 26.1063 45.5 25.7063C45.5 25.5063 45 24.4063 44.9 24.0063C44.1 22.2063 43.7 21.0064 42.9 19.3064C42.4 18.1064 42.2 18.0064 41 18.4064C40.7 18.5064 37 19.7064 35.4 20.4064C31.5 22.2064 27.9 24.7064 24.6 27.4064C24.1333 27.8064 23.6667 28.173 23.2 28.5063C21.5 29.8063 21.5 29.8063 23.5 30.7063C23.8 30.9063 25.9 31.6064 26.6 31.8064C28.7 32.5064 30.8 32.8063 33.1 32.5063C33.5 32.5063 34.8 32.3063 35.1 32.2063Z" fill="#264485"/>
<path d="M35.1 32.2063C35.5 32.1063 36 32.0063 36.1 32.0063C36.3 31.9063 36.4 31.8063 36.4 31.7063C36.5 31.4063 36 31.0064 36 30.8064C35.9 30.7064 35.9 30.5064 36 30.3064C36.2 30.2064 36.5 30.4063 36.6 30.2063C36.6 30.1063 36.4 30.0064 36.3 29.9064C36 29.8064 35.7 29.4064 35.6 29.3064C35.4 29.0397 35.2667 28.8396 35.2 28.7063C35 28.4063 34.8 28.1064 35.2 27.9064C35.3 27.8064 35.4 27.7064 35.7 27.8064C35.9 27.8064 36.2 28.1064 36.5 28.3064C36.7 28.3064 36.5 28.1063 36.4 28.0063C36.1 27.8063 35.9 27.5064 35.7 27.3064C35.4 26.9064 35.3 26.4064 35.3 26.3064C35.2 25.9064 35.1 25.7064 35.4 25.6064C35.5 25.6064 35.8 25.6063 36.2 25.7063C36.3 25.8063 36.5 25.9063 36.7 26.0063C36.8 26.1063 36.9 26.2064 36.9 26.1064C36.9 26.0064 36.8 25.8063 36.7 25.7063C36.4 25.3063 36.2 24.8064 36.2 24.8064C36.0667 24.3397 36 23.8731 36 23.4064C35.9 22.9064 36.1 22.8063 36.6 23.0063C37 23.2063 37.3 23.6064 37.6 23.9064C37.7 24.1064 38 24.6063 38.1 24.7063C38.1 24.9063 38.2 25.1064 38.3 25.1064C38.3 25.1064 38.3 25.1064 38.3 24.9064C38.3 24.6064 38.3 24.1064 38.4 24.1064C38.5 23.4064 38.9 23.6063 39.2 24.0063C39.3 24.2063 39.4 24.3064 39.6 24.6064C39.7 24.9064 39.8 25.7064 40 25.8064C40.2 25.8064 40.1 25.3064 40.6 25.3064C41 25.3064 41.4 25.8064 41.4 26.3064C41.4 26.6064 41.2 27.3064 41.5 27.4064C41.6 27.4064 41.8 27.1064 42.1 27.1064C42.4 27.1064 42.4 27.4064 42.4 27.8064C42.3 28.1064 42.3 28.2063 42.4 28.5063C42.7 28.8063 43.1 28.3064 43.7 27.9064C43.9 27.8064 44.2 27.6063 44.3 27.5063C44.8 27.1063 45.2 26.7064 45.5 26.4064C45.6 26.1064 45.6 26.1063 45.5 25.7063C45.5 25.5063 45 24.4063 44.9 24.0063C44.1 22.2063 43.7 21.0064 42.9 19.3064C42.4 18.1064 42.2 18.0064 41 18.4064C40.7 18.5064 37 19.7064 35.4 20.4064C31.5 22.2064 27.9 24.7064 24.6 27.4064C24.1333 27.8064 23.6667 28.173 23.2 28.5063C21.5 29.8063 21.5 29.8063 23.5 30.7063C23.8 30.9063 25.9 31.6064 26.6 31.8064C28.7 32.5064 30.8 32.8063 33.1 32.5063C33.5 32.5063 34.8 32.3063 35.1 32.2063Z" fill="#264485"/>
<path d="M41 18.4064C42.2 18.0064 42.4 18.1064 42.9 19.3064C43.7 21.0064 44.1 22.2063 44.9 24.0063C45 24.4063 45.5 25.5063 45.5 25.7063C45.6 26.1063 45.6 26.1064 45.5 26.4064C45.2 26.7064 44.9 27.0064 44.5 27.3064L40.2 18.6064C40.6 18.5064 40.9 18.4064 41 18.4064Z" fill="#232F64"/>
<path d="M41.1 14.6064C41.7 15.0064 42.1 16.1063 42.5 17.0063C42.6 17.5063 42.5 17.6064 42.1 17.6064C41.5 17.7064 40.7 17.8064 39.9 18.1064L38.2 14.5063C38.9 14.5063 39.6 14.4065 40.3 14.4065C40.6 14.5065 40.9 14.5064 41.1 14.6064Z" fill="#A19535"/>
<path d="M18.4 29.4065C18 29.8065 18 30.2063 18.3 30.7063C18.4 30.9063 18.3 31.1064 18.3 31.3064C18.2 32.5064 17.3 32.9063 16.6 33.5063C15.2 34.8063 15.2 34.8065 14 33.4065C13.6 33.0065 13.6 32.7064 13.9 32.3064C15.8 29.7064 17.8 27.2063 20.1 25.0063L22.5 28.3064C21.6 29.0064 21.2 29.7065 20 28.9065C19.5 28.6065 18.8 28.9065 18.4 29.4065Z" fill="#A19535"/>
<path d="M41 32.3063C41.3 32.1063 42.2 31.5063 42.4 31.5063C43 31.2062 43 31.2062 43.6 31.5063C44.3 31.8063 44.9 32.4062 45.2 33.2062C45.3 33.4062 45.4 33.6063 45.1 33.8063C45 33.9063 44.7 34.1062 44.6 34.2062C44.6 34.2062 42.8 35.3063 42.7 35.3063C42.7 35.3063 42.3 35.5063 42.2 35.6063C42.1 35.6063 41.1 36.1063 40.7 36.3063C40.5 36.3063 40.2 36.4062 40 36.2062C39.6 35.6062 39.5 35.1062 39.3 34.5062C39.3 34.0062 39.1 33.6063 39.6 33.1063C39.8 32.9063 40.6 32.5063 41 32.3063Z" fill="#FCBC60"/>
<path d="M40.3 36.0063C40.8 35.8063 41.9 35.3064 42 35.3064C42.1 35.2064 42.5 35.0063 42.6 35.0063C42.6 34.9063 44.6 33.8064 44.6 33.8064C44.7 33.7064 45 33.5065 45.2 33.4065C45.2 33.4065 45.2334 33.3731 45.3 33.3064C45.4 33.5064 45.4 33.7064 45.1 33.8064C45 33.9064 44.7 34.1063 44.6 34.2063C44.6 34.2063 42.8 35.3064 42.7 35.3064C42.7 35.3064 42.3 35.5064 42.2 35.6064C42.1 35.6064 41.1 36.1064 40.7 36.3064C40.5 36.3064 40.2 36.4063 40 36.2063C39.9334 36.1396 39.9 36.1064 39.9 36.1064C40.0334 36.0398 40.1667 36.0063 40.3 36.0063Z" fill="#CE9A46"/>
<path d="M32.5 21.2063C32.4333 21.273 32.3333 21.3398 32.2 21.4065C32.2667 21.3398 32.3667 21.273 32.5 21.2063Z" fill="#A19535"/>
<path d="M29.3 11.3064C28.9 10.773 28.4666 10.2396 28 9.70627C27.5 9.10627 27 8.40642 26.7 7.60642C26.4 6.80642 26.4 6.10647 26.9 5.40647C28.6 3.20647 31.1 3.50647 32.2 5.90647C32.3333 6.10647 32.4333 6.30632 32.5 6.50632C32.9666 7.83965 33.4333 9.17299 33.9 10.5063C34.1 11.3063 34.2 12.1065 34.2 12.9065C34.2 13.7065 34 13.9064 33.2 14.1064C32.6 14.4064 32.3 14.7063 31.8 14.2063C31.6 14.0063 29.6 11.7064 29.3 11.3064Z" fill="#E0CC2E"/>
<path d="M27.9 4.4065C29.5 3.2065 31.4 3.80641 32.4 5.80641C32.4666 6.07307 32.5333 6.30636 32.6 6.50636C33.0666 7.83969 33.5333 9.17302 34 10.5064C34.2 11.3064 34.4 12.0064 34.4 12.8064C34.4 13.6064 34 13.9065 33.2 14.1065C33.5 13.8065 33.6 13.2063 33.5 12.7063C32.8 10.4063 32 8.20645 30.6 6.10645C30.5333 5.97312 30.4333 5.83964 30.3 5.70631C29.4 4.70631 28.2 4.30631 27.6 4.70631C27.6 4.70631 27.6 4.6065 27.9 4.4065Z" fill="#A19535"/>
<path fill-rule="evenodd" clip-rule="evenodd" d="M28.5 45.5063C28.5 44.7063 29.2 44.1064 30 44.1064C30.8 44.1064 31.5 44.7064 31.5 45.6064C31.5 46.4064 30.8 47.0063 30 47.0063C29.1 47.0063 28.5 46.4063 28.5 45.5063ZM31 45.6064C31 45.1064 30.7 44.6064 30.1 44.6064C29.4 44.6064 29.1 44.9064 29 45.6064C29 46.2064 29.4 46.5063 30 46.5063C30.6 46.5063 31 46.2064 31 45.6064Z" fill="#070505"/>
<path d="M15.1 35.2064C16.5 36.2064 24.7 45.3065 24.7 45.3065L24.9 45.5064C25 45.6064 25.2 45.8065 25.3 45.8065C25.3 45.8065 25.2 45.8064 25.2 45.7064C25.3 45.3064 25.7 45.4065 25.9 45.3065C26.7 45.1065 27.2 45.1065 27.6 44.1065C28.1 42.9065 29.5 42.6065 30.4 42.8065C31 42.9065 31.2 42.7064 31.7 42.5064C31.9 42.4064 34.4 41.0064 34.4 41.0064C34.7 40.9064 35.4 40.5065 36.2 40.1065C35.4 40.2065 34.7 40.2064 34.5 40.2064C33.8 40.2064 32 39.8064 31.6 39.7064C31.4666 39.6397 31.3333 39.6065 31.2 39.6065C30.9333 39.5399 30.6666 39.4398 30.4 39.3065C28.4 38.5065 26.5333 37.4731 24.8 36.2064C23.3 35.2064 21.9 34.0066 20.5 32.9066C20.1 32.7066 18.6 32.6065 18.2 32.8065C17.5 33.5065 16.7 34.1066 16.1 34.9066C15.8 35.3066 15.4 35.3064 15.1 35.2064Z" fill="#264485"/>
<path d="M15.1 35.2064C15.4 35.3064 15.8 35.3066 16.1 34.9066C16.7 34.1066 17.5 33.5065 18.2 32.8065C18.6 32.6065 20.1 32.7066 20.5 32.9066C21.9 34.0066 23.3 35.2064 24.8 36.2064C26.4666 37.4064 28.2333 38.4064 30.1 39.2064L32.2 42.2064C31.9 42.3064 31.7 42.4064 31.7 42.5064C31.2 42.7064 31 42.9065 30.4 42.8065C29.5 42.6065 28.1 42.9065 27.6 44.1065C27.2 45.1065 26.7 45.1065 25.9 45.3065C25.7 45.4065 25.3 45.3064 25.2 45.7064C25.2 45.8064 25.3 45.8065 25.3 45.8065C25.2 45.8065 25 45.6064 24.9 45.5064L24.7 45.3065C24.7 45.3065 16.5 36.2064 15.1 35.2064Z" fill="#232F64"/>
<path d="M25.4 46.0063L25.9 45.3064C25.8 45.4064 25.6 45.4064 25.5 45.3064C25.4334 45.2397 25.4 45.2063 25.4 45.2063L25.2 45.0063C25.2 44.9063 18.8 37.8064 16.1 35.3064C16 35.2064 16 35.0064 16.2 34.8064C16 34.6064 15.4 34.6063 15.2 34.5063L14.9 35.0063C16.1 35.8063 23.9 44.4065 24.8 45.4065L25.4 46.0063Z" fill="#070505"/>
<path d="M34.1 43.3064C40.3 42.1064 46 39.5063 51.3 36.0063C51.8333 35.6063 52.3666 35.173 52.9 34.7063C53.6 34.1063 53.5 33.8063 52.6 33.5063C51.7 33.2063 50.7 33.1063 49.7 33.0063C49.6 32.8063 49.8 32.6065 49.9 32.4065C50.6 32.5065 52.5 32.9065 52.8 32.9065C53.2 33.1065 53.7 33.3064 53.9 33.6064C54 34.0064 54 34.3064 53.7 34.8064C53.7 34.8064 53.4 35.2065 53 35.4065C52.3 35.9065 48.7 38.3065 48.5 38.4065C48.2 38.6065 46.1 39.7063 46 39.7063C45.5 40.0063 43.5 40.9065 43.5 40.9065L41.4 41.7063C39.4666 42.4396 37.4666 43.0397 35.4 43.5063C34.9 43.6063 32.6 44.0063 32.5 44.0063C32.3666 44.0063 32.3 43.9397 32.3 43.8064C32.2 43.6064 32.3 43.5063 32.5 43.5063C32.6 43.5063 33.8 43.3064 34.1 43.3064Z" fill="#E0CC2E"/>
<path d="M32.5 44.0063C32.3666 44.0063 32.3 43.9397 32.3 43.8064C32.2 43.6064 32.3 43.5063 32.5 43.5063C32.5 43.5063 32.8 43.5065 33.1 43.4065L33.4 43.9065C32.9 43.9065 32.5 44.0063 32.5 44.0063Z" fill="#A19535"/>
<path d="M45.9 26.7062C46.1 26.5062 46.3 26.4063 46.5 26.5063C46.5 26.5063 46.8 26.8064 46.9 26.9064C47 27.1064 46.8 27.4064 46.6 27.6064C46.1333 28.0064 45.6667 28.4063 45.2 28.8063L44.7 27.8063C45.1 27.4063 45.5 27.0062 45.9 26.7062Z" fill="#A19535"/>
<path d="M46 28.9065C46.3 28.7065 46.5 28.7064 46.7 29.0064C46.8333 29.2064 47 29.5397 47.2 30.0064C47.2 30.0064 47.6 30.8065 47.7 31.1065C47.7 31.4065 47.7 31.6064 47.6 31.8064C47.5 31.9064 47.3 32.1065 47 32.4065L45.5 29.3064C45.7 29.1064 45.9 28.9065 46 28.9065Z" fill="#232F64"/>
<path d="M47.3 32.9065C47.6 32.6065 48 32.3063 48.1 32.2063C48.2 32.0063 48.4 31.8063 48.5 31.7063C48.6333 31.7063 48.7667 31.7397 48.9 31.8064C48.9667 31.8064 49.0333 31.8398 49.1 31.9065C49.4 32.2065 49.3 32.6065 48.9 32.9065C48.5667 33.2398 48.2 33.5732 47.8 33.9065L47.3 32.9065Z" fill="#A19535"/>
<path d="M15.5 29.3064C14.9 30.0064 14.5 30.9063 13.8 31.5063C13.7 31.7063 13.5 32.0063 13.3 31.7063C13.1 31.6063 12.8 31.4063 12.9 31.2063C13.0333 31.073 13.1333 30.9397 13.2 30.8064C14.3 29.3064 15.5 27.7063 16.8 26.2063C16.9 26.0063 17.8 25.1064 18.8 24.1064C18.9333 24.0398 19.0667 23.9063 19.2 23.7063L19.8 24.6064C19.2 25.2064 18.7 25.7065 18.5 25.9065C17.5 27.0065 16.5 28.2064 15.5 29.3064Z" fill="#232F64"/>
<path d="M21.7 31.0064C21.5 30.8064 21.2 30.7065 21.3 30.4065C21.4 30.2065 21.6 30.4065 21.7 30.4065C22.7 31.1065 23.8 31.5065 25 31.9065L26.1 33.5064C24.6334 32.973 23.1667 32.1397 21.7 31.0064Z" fill="#A19535"/>
<path d="M25.2 33.9065C24.8 33.7065 24.3 33.4064 24.4 33.3064C24.5 33.1064 24.9 33.4065 25.2 33.6065C25.6 33.8065 25.9 33.9065 26.3 34.1065C26.3667 34.1731 26.4667 34.2063 26.6 34.2063L27.4 35.3064C26.2 34.7064 25.4 34.1065 25.2 33.9065Z" fill="#232F64"/>
<path d="M28.2 37.6063C25.6 36.1063 23.2 34.3064 20.8 32.4064C20.4 32.0064 20.4 31.7063 20.7 31.3063C21.1 30.8063 21.3 31.3062 21.5 31.5062C23.6 33.2062 25.7 34.8062 28 36.2062L29.4 38.3063C29 38.1063 28.6 37.873 28.2 37.6063Z" fill="#A19535"/>
<path d="M29.2 47.7063C29.2667 47.7063 29.3 47.7063 29.3 47.7063C29.3667 47.7063 29.4334 47.7063 29.5 47.7063C29.5 47.7063 29.5334 47.7063 29.6 47.7063C29.8 47.7063 30 47.8063 30 48.2063C29.9334 48.9396 29.8667 49.6732 29.8 50.4065C29.9 50.5065 29.9 50.8063 29.9 51.2063C29.9667 51.273 30 51.373 30 51.5063L28.9 51.1064C28.9 50.6398 28.9 50.173 28.9 49.7063C28.9 49.4396 28.9 49.1732 28.9 48.9065C28.9 48.6398 28.9 48.3731 28.9 48.1064C28.9 47.8064 29 47.7063 29.2 47.7063Z" fill="#A19535"/>
<path d="M35 14.0063C35.2 14.1063 35.6 14.4063 35.8 14.5063C35.9333 14.5063 36.0667 14.5063 36.2 14.5063C37.5 14.2063 38.8 13.9064 40.5 14.1064C40.6 14.1064 40.9 14.2063 40.9 14.2063C40.9 14.1063 40.8 14.0065 40.7 13.9065C40.3 13.5065 39.7 13.4064 39.3 13.3064C38.9 13.3064 38.1 13.3064 37.4 13.3064C36.8 13.4064 35.5 13.6064 35.5 13.6064C35.1 13.6064 34.7 13.8063 35 14.0063Z" fill="#264485"/>
<path d="M39.3 13.3064C39.7 13.4064 40.3 13.5065 40.7 13.9065C40.8 14.0065 40.9 14.1063 40.9 14.2063C40.9 14.2063 40.6 14.1064 40.5 14.1064C39.6 14.0064 38.8 14.0064 38 14.1064L37.6 13.3064C38.2 13.3064 39 13.3064 39.3 13.3064Z" fill="#212F61"/>
<path d="M42.2 32.2063C42.2 32.7063 42.6 33.0063 43 33.0063C43.4 33.0063 43.8 32.7064 43.8 32.3064C43.8 31.8064 43.5 31.5063 43 31.5063C42.6 31.5063 42.2 31.8063 42.2 32.2063Z" fill="#FDDDB4"/>
<path d="M41.6 70.5063L41.1 70.0063L40.4 70.3064L40.9 67.5063L42.1 67.6064L41.6 70.5063Z" fill="#58BDEA"/>
<path d="M40.8 70.1064L41.1001 70.0063L41.3 70.2063L41.7001 67.6064L41.2001 67.5063L40.8 70.1064Z" fill="#FEFEFE"/>
<path d="M43.1 70.2063L43.4 69.5063H44.1L42.5 67.1064L41.5 67.8064L43.1 70.2063Z" fill="#58BDEA"/>
<path d="M43.6 69.5063H43.4L43.3 69.8064L41.8 67.6064L42.2 67.3064L43.6 69.5063Z" fill="#FEFEFE"/>
<path opacity="0.2" d="M42.5 67.1064L42.2 67.4065L41.8 67.6064H41.7H41.3L40.9 67.5063L40.8 68.4065C41.1 68.5065 41.5 68.6063 41.9 68.5063C42.4 68.4063 42.7 68.2065 43 67.9065L42.5 67.1064Z" fill="#050505"/>
<path d="M43.3 66.1064C43.6 67.1064 42.9 68.1065 41.9 68.4065C40.9 68.6065 39.9 67.9065 39.7 66.9065C39.4 65.9065 40.1 64.9063 41.1 64.7063C42.1 64.5063 43.1 65.1064 43.3 66.1064Z" fill="#58BDEA"/>
<path d="M42.7 66.3065C42.8 66.9065 42.4 67.5064 41.8 67.7064C41.1 67.8064 40.5 67.4065 40.3 66.8065C40.2 66.1065 40.6 65.5065 41.2 65.3065C41.9 65.2065 42.5 65.6065 42.7 66.3065Z" fill="#FEFEFE"/>
<path d="M42.1 66.4066C42.2 66.7066 42 67.1065 41.6 67.1065C41.3 67.2065 41 67.0064 40.9 66.7064C40.8 66.3064 41 66.0066 41.4 65.9066C41.7 65.8066 42.1 66.0066 42.1 66.4066Z" fill="#58BDEA"/>
<path d="M43.3 66.1065C43.5 67.1065 42.9 68.1065 41.9 68.3065C40.9 68.5065 40 67.9066 39.7 66.9066C39.5 65.9066 40.1 65.0065 41.1 64.8065C42.1 64.5065 43 65.1065 43.3 66.1065Z" fill="#58BDEA"/>
<path d="M42.6 66.3064C42.8 66.9064 42.4 67.5064 41.8 67.6064C41.1 67.8064 40.5 67.4064 40.4 66.8064C40.2 66.1064 40.6 65.5065 41.3 65.4065C41.9 65.2065 42.5 65.6064 42.6 66.3064Z" fill="#FEFEFE"/>
<path d="M42.1 66.4066C42.2 66.7066 42 67.0065 41.6 67.1065C41.3 67.2065 41 67.0065 40.9 66.6065C40.8 66.3065 41 66.0066 41.4 65.9066C41.7 65.8066 42 66.0066 42.1 66.4066Z" fill="#58BDEA"/>
<path d="M65.2 93.1064L10.5 102.306L10.2 97.5063L64.6 88.3064L65.2 93.1064Z" fill="#20B04B"/>
<path fill-rule="evenodd" clip-rule="evenodd" d="M9.80003 86.6064C10.7 86.4064 11.8 86.3063 11.9 89.5063C11.9 92.4063 11 92.7064 9.50003 92.9064L9.00003 93.0063L8.90002 86.8063L9.80003 86.6064ZM9.70003 87.3063L9.80003 92.1064C11.1 91.9064 11 90.7064 11 89.6064C11 88.6064 11.1 87.0063 9.70003 87.3063Z" fill="#FEFEFE"/>
<path d="M12.8 85.8064L12.4 85.6064L13 84.3064L13.5 84.5063L12.8 85.8064ZM13.4 92.3064L12.6 92.4065L12.5 86.2063L13.3 86.0063L13.4 92.3064Z" fill="#FEFEFE"/>
<path fill-rule="evenodd" clip-rule="evenodd" d="M15.5 85.6064L16.9 91.6064L16.1 91.8064L15.9 90.6064L14.7 90.8064L14.5 92.1064L13.7 92.2063L14.9 85.7063L15.5 85.6064ZM15.5 89.1064L15.2 86.9065L14.7 90.1064L15.7 90.0063L15.5 89.1064Z" fill="#FEFEFE"/>
<path fill-rule="evenodd" clip-rule="evenodd" d="M19.5 84.9064C20.5 84.7064 21.6 84.6063 21.6 87.8063C21.7 90.7063 20.7 91.0062 19.3 91.2062L18.7 91.3063L18.6 85.1064L19.5 84.9064ZM19.4 85.6064L19.5 90.4064C20.9 90.2064 20.8 88.9064 20.8 87.9064C20.7 86.9064 20.8 85.3064 19.4 85.6064Z" fill="#FEFEFE"/>
<path d="M24.4 84.0063V84.8064L23 85.0063V87.0063L24.3 86.8064V87.5063L23.1 87.7063V89.8064L24.5 89.6064V90.3064L22.3 90.7063L22.2 84.4065L24.4 84.0063Z" fill="#FEFEFE"/>
<path d="M27.1 83.6064V89.1064L28.5 88.9065V89.6064L26.4 90.0063L26.2 83.7063L27.1 83.6064Z" fill="#FEFEFE"/>
<path fill-rule="evenodd" clip-rule="evenodd" d="M30.2 83.0063L31.6 89.0063L30.8 89.2063L30.6 88.0063L29.4 88.2063L29.2 89.5063L28.4 89.6064L29.6 83.1064L30.2 83.0063ZM30.2 86.5063L29.9 84.3064L29.4 87.6064L30.4 87.4065L30.2 86.5063Z" fill="#FEFEFE"/>
<path fill-rule="evenodd" clip-rule="evenodd" d="M12.0001 103.606L11.8 95.9065L15.1001 95.3064C15.1667 95.3064 15.2334 95.3064 15.3 95.3064C15.4334 95.3064 15.6334 95.3064 15.9 95.3064C16.2334 95.3731 16.5001 95.4397 16.7001 95.5063C16.9001 95.573 17.1 95.7397 17.3 96.0063C17.5 96.273 17.6001 96.6063 17.6001 97.0063C17.6667 97.6063 17.5001 98.1398 17.1001 98.6064C17.7001 98.9398 18.0001 99.4398 18.0001 100.106C18.0667 101.706 17.0667 102.673 15.0001 103.006L12.0001 103.606ZM14.1001 98.6064L15.0001 98.4065C15.1001 98.4065 15.3 98.3063 15.3 98.0063C15.3 97.7063 15.1001 97.6064 15.0001 97.6064L14.0001 97.8064L14.1001 98.6064ZM14.2001 101.106L15.2001 100.906C15.5334 100.84 15.6667 100.673 15.6001 100.406C15.6001 100.206 15.5001 100.106 15.2001 100.106L14.2001 100.306V101.106Z" fill="#FEFEFE"/>
<path fill-rule="evenodd" clip-rule="evenodd" d="M23.2 93.9065L26.2 101.106L23.8 101.606L23.5 100.806L21.1 101.206L20.8 102.106L18.4 102.506L20.9 94.3064L23.2 93.9065ZM21.7 98.9065L22.7 98.8064L22.2 97.2063L21.7 98.9065Z" fill="#FEFEFE"/>
<path d="M33.3001 92.2063L33.6001 99.9065L31.5001 100.206L29.0001 97.3064L29.1001 100.606L26.9001 101.006L26.7001 93.3064L28.7001 93.0063L31.2001 95.9065L31.1001 92.6064L33.3001 92.2063Z" fill="#FEFEFE"/>
<path fill-rule="evenodd" clip-rule="evenodd" d="M34.8001 99.7063L34.5001 92.0064L37.5001 91.5064C38.6334 91.3064 39.5667 91.5065 40.3001 92.1065C40.9667 92.7731 41.3334 93.6397 41.4001 94.7063C41.4001 95.8397 41.0667 96.8065 40.4001 97.6065C39.7334 98.4731 38.8667 99.0063 37.8001 99.2063L34.8001 99.7063ZM36.8001 93.8064L36.9001 97.1065L37.7001 97.0064C38.1001 96.9397 38.4334 96.7399 38.7001 96.4065C38.9667 96.0065 39.1001 95.5731 39.1001 95.1065C39.0334 94.6398 38.8667 94.273 38.6001 94.0064C38.3334 93.673 38.0001 93.573 37.6001 93.7063L36.8001 93.8064Z" fill="#FEFEFE"/>
<path d="M44.5001 92.5063V93.2063L47.5001 92.7063V94.7063L44.6001 95.2063V95.8064L47.8001 95.3064L47.9001 97.5063L42.4001 98.4065L42.2001 90.7063L47.6001 89.8064L47.7001 91.9065L44.5001 92.5063Z" fill="#FEFEFE"/>
<path fill-rule="evenodd" clip-rule="evenodd" d="M55.6001 96.1065L52.9001 96.6065L51.3001 94.9065L51.1001 95.0064L51.2001 96.9065L48.9001 97.3064L48.7001 89.6065L51.8001 89.1065C51.8001 89.1065 51.9001 89.0065 52.4001 89.1065C52.8001 89.1065 53.1001 89.1064 53.6001 89.3064C54.0001 89.5064 54.4001 89.8065 54.6001 90.4065C54.7334 90.7398 54.8001 91.1064 54.8001 91.5064C54.8667 92.573 54.5001 93.4064 53.7001 94.0064L55.6001 96.1065ZM50.9001 91.4065L51.0001 92.8064L51.8001 92.7063C52.2001 92.6396 52.4001 92.3732 52.4001 91.9065C52.4001 91.4065 52.1001 91.2063 51.8001 91.2063L50.9001 91.4065Z" fill="#FEFEFE"/>
<path fill-rule="evenodd" clip-rule="evenodd" d="M60.7 87.6064L63.7 94.8064L61.3 95.2063L61 94.4065L58.6 94.8064L58.3 95.7063L55.9 96.1064L58.5 87.9065L60.7 87.6064ZM59.1 92.7063L60.2 92.5063L59.6 91.0063L59.1 92.7063Z" fill="#FEFEFE"/>
</svg>
