<svg xmlns="http://www.w3.org/2000/svg" width="75" height="136" fill="none" viewBox="0 0 75 136">
  <path fill="#5A50A2" d="m12.4 135.891 62.4-3.8-3.8-65-62.4 3.8 3.8 65Z"/>
  <path fill="#45347A" d="m71.3 67.291-62.7 3.6-8.6-5.1 60.5-3.5 10.8 5Z"/>
  <path fill="#242346" d="m12.4 135.891-8.8-8.6-3.6-61.5 8.6 5.1 3.8 65Z"/>
  <mask id="a" width="13" height="71" x="0" y="65" maskUnits="userSpaceOnUse" style="mask-type:luminance">
    <path fill="#fff" d="m12.38 135.871-8.77-8.59-3.58-61.54 8.57 5.11 3.78 65.02Z"/>
  </mask>
  <g mask="url(#a)">
    <path stroke="#6A4C9E" stroke-width=".4" d="m4.5 205.791-31.7-108.7m33.3 104.4-31.7-108.7m33.3 104.4L-24 88.491m33.3 104.4-31.7-108.7m33.2 104.4-31.6-108.7m33.2 104.4-31.7-108.7m33.3 104.4-31.7-108.7m33.3 104.4-31.7-108.7m33.3 104.4-31.7-108.7m33.3 104.5-31.7-108.8m33.3 104.5-31.7-108.8m33.3 104.5-31.7-108.8m33.2 104.5-31.6-108.8m33.2 104.5-31.7-108.8m33.3 104.5L-5 36.891m33.3 104.5-31.7-108.8m33.3 104.5-31.7-108.8m33.3 104.5L-.2 23.991m33.3 104.5L1.4 19.691m34.8 100.2L4.5 11.091m33.3 104.5-33.3 90.2m31.8-95.4L3 200.691m31.8-95.5-33.3 90.3m31.8-95.5L0 190.291m31.8-95.5-33.3 90.3m31.8-95.4-33.3 90.2m31.8-95.4-33.4 90.3m31.9-95.5-33.4 90.3m31.8-95.5-33.3 90.3m31.8-95.5-33.3 90.3m31.8-95.4-33.3 90.3m31.8-95.5-33.3 90.3m31.8-95.5-33.3 90.3m31.8-95.5-33.3 90.3m31.8-95.5-33.3 90.3m31.8-95.4-33.3 90.3m31.8-95.5-33.3 90.3m31.8-95.5-33.4 90.3m31.9-95.5-33.4 90.3m31.8-95.5-33.3 90.3m31.8-95.4-33.3 90.3m31.8-95.5-33.3 90.3"/>
  </g>
  <path fill="#050505" fill-rule="evenodd" d="M16.9 74.791c1.133-.067 2 .2 2.6.8.6.533.933 1.267 1 2.2 0 .933-.267 1.633-.8 2.1.867.6 1.333 1.333 1.4 2.2.133 2.4-1.067 3.667-3.6 3.8-2.533.133-3.867-1-4-3.4 0-.933.4-1.7 1.2-2.3-.6-.466-.933-1.133-1-2 0-.933.233-1.733.7-2.4.533-.6 1.367-.933 2.5-1Zm.5 8.4c.467-.067.7-.4.7-1-.067-.6-.333-.9-.8-.9-.533.067-.8.4-.8 1 .067.6.367.9.9.9Zm-.2-4.2c.333 0 .467-.233.4-.7 0-.533-.167-.767-.5-.7-.4 0-.567.233-.5.7 0 .533.2.767.6.7Z" clip-rule="evenodd"/>
  <path fill="#FEFEFE" fill-rule="evenodd" d="M18 73.591c1.133-.067 2 .2 2.6.8.6.533.9 1.267.9 2.2.067.933-.167 1.634-.7 2.1.867.534 1.333 1.267 1.4 2.2.133 2.4-1.067 3.667-3.6 3.8-2.533.133-3.867-1-4-3.4 0-.933.4-1.7 1.2-2.3-.6-.466-.933-1.167-1-2.1a3.166 3.166 0 0 1 .7-2.3c.533-.6 1.367-.933 2.5-1Zm.5 8.4c.467-.067.7-.4.7-1-.067-.6-.333-.9-.8-.9-.533.067-.8.4-.8 1 .067.6.367.9.9.9Zm-.3-4.2c.4 0 .567-.233.5-.7 0-.533-.167-.767-.5-.7-.4 0-.567.233-.5.7 0 .533.167.767.5.7Z" clip-rule="evenodd"/>
  <path fill="#1C1C1A" d="M9.8 67.491c0 .9 7.1 1.4 15.8 1.1 8.7-.3 15.8-1.3 15.7-2.3 0-.9-7.1-1.4-15.8-1.1-8.7.3-15.7 1.3-15.7 2.3Z" opacity=".6"/>
  <path fill="#C68C57" d="m28 58.891 7.2-.3.2 6-7.1.3-.3-6Z"/>
  <path stroke="#050505" stroke-width=".5" d="m28 58.891 7.2-.3.2 6-7.1.3-.3-6Z"/>
  <path fill="#050505" d="M35.8 63.991s-.5 1.4 2.1 2.7l-10.2.2v-2.6l8.1-.3Z"/>
  <path stroke="#050505" stroke-linecap="round" stroke-linejoin="round" stroke-width=".8" d="M35.8 63.991s-.5 1.4 2.1 2.7l-10.2.2v-2.6l8.1-.3Z"/>
  <path fill="#C68C57" d="m16.5 59.391 7.2-.3.2 6-7.2.3-.2-6Z"/>
  <path stroke="#050505" stroke-width=".5" d="m16.5 59.391 7.2-.3.2 6-7.2.3-.2-6Z"/>
  <path fill="#050505" d="M16.3 64.791s.6 1.4-1.9 2.8l10.2-.5-.3-2.7-8 .4Z"/>
  <path stroke="#050505" stroke-linecap="round" stroke-linejoin="round" stroke-width=".8" d="M16.3 64.791s.6 1.4-1.9 2.8l10.2-.5-.3-2.7-8 .4Z"/>
  <path fill="#D24798" d="m36.9 53.291 2.8 6.3s-4.9 1.7-13.5 2.1c-8.6.4-13.6-1-13.6-1l2.4-8.6 21.9 1.2Z"/>
  <path stroke="#050505" stroke-linecap="round" stroke-linejoin="round" stroke-width=".5" d="m36.9 53.291 2.8 6.3s-4.9 1.7-13.5 2.1c-8.6.4-13.6-1-13.6-1l2.4-8.6 21.9 1.2Z"/>
  <path fill="#AB795A" stroke="#050505" stroke-linecap="round" stroke-linejoin="round" stroke-width=".6" d="M42 32.991c.5-.8 2-3.5 2.7-4.3 1.1-1 2.3-.6 3.6.2 1.5 1.1 2 2.3 1.3 4-.3.7-1.4 2.2-2 3-.6.9-2.3 2.9-4.6 1.4s-1.5-3.6-1-4.3Z"/>
  <path fill="#050505" d="M47.6 35.891c-.6.9-2.3 2.9-4.6 1.4s-1.3-3.9-.8-4.7c1.8.4 3.4 1.7 5.4 3.3Z" opacity=".2" style="mix-blend-mode:multiply"/>
  <path fill="#AB795A" d="m42.7 32.291-.1-1.5c0-.6.4-1.2.9-1.2.6 0 .9.3 1.1.6.2.4.2.8.2.8"/>
  <path stroke="#050505" stroke-linecap="round" stroke-linejoin="round" stroke-width=".6" d="m42.7 32.291-.1-1.5c0-.6.4-1.2.9-1.2.6 0 .9.3 1.1.6.2.4.2.8.2.8"/>
  <path fill="#050505" d="M44.7 30.091s.6.3.6.9c.1.5.1 1 .4 1.1.3.2 1.5 1.2 2 1.1.4-.2 1.9-1.8 1.2-2.7-.7-1-2.7-2.4-3.7-1.6-1 .8-.5 1.2-.5 1.2Z" opacity=".2" style="mix-blend-mode:multiply"/>
  <path fill="#F5F6F7" stroke="#050505" stroke-linecap="round" stroke-linejoin="round" stroke-width=".6" d="M47.5 36.391c-1.1 1.6-2 2.7-3.4 4.4-2.3 3.1-4.7 4.4-4.7 4.4-2 1.3-4.4 1-5.7-.8l-.4-.5c-1.1-1.6-1.2-3.9 1.2-5.6 0 0 2.2-1.7 3.8-3.8 1.1-1.4 2.5-3.2 2.5-3.2l6.7 5.1Z"/>
  <path fill="#0A0C0F" d="M47.5 36.391c-1.1 1.6-2 2.7-3.4 4.4-2.3 3.1-4.7 4.4-4.7 4.4-2 1.3-4.4 1-5.7-.8l-.4-.5a2.55 2.55 0 0 1-.3-.6c.4.1.6.1.6.1s2.7 1.4 5.9-1.6c2.2-2 4.5-5.2 5.7-7.1l2.3 1.7Z" opacity=".3"/>
  <path fill="#768536" d="m13 59.29.1 1.901c0 .133 0 .133 0 0l-.1-1.9c0-.133 0-.133 0 0Zm-.9-2.999c.133-.2.333-.3.6-.3l-.1-.3c-.2 0-.367.1-.5.3-.1 0 0 .1 0 .1v.2Zm2.9 1.6c.5-.2.9-.6 1.5-.8 0 0-.1-.3 0-.3-.6.2-1 .6-1.5.8v.3Zm8.1 1.1c-.067-.2-.1-.367-.1-.5v.3c0 .133.033.3.1.5v-.3Zm0-2.5c.2-.6.2-1.4 0-1.9v.3c.2.4.2.8 0 1.2-.1.1 0 .3 0 .4Zm8.3 3.2c-.2-.5-.2-1-.2-1.5 0-.2 0-.2 0 0 0 .6 0 1.2.2 1.8-.1-.1 0-.2 0-.3Zm4.9-.8a4.922 4.922 0 0 0 0-1.4v.3c.1.3 0 .5 0 .7v.4Z"/>
  <path fill="#F38A9A" d="M23.5 44.991c.2 5.9-3.5 10.9-8.3 11.1-4.8.2-8.9-4.4-9.1-10.4-.3-6 3.5-9.6 8.3-9.8 4.8-.2 8.8 3.1 9.1 9.1Z"/>
  <path stroke="#050505" stroke-width=".6" d="M23.5 44.991c.2 5.9-3.5 10.9-8.3 11.1-4.8.2-8.9-4.4-9.1-10.4-.3-6 3.5-9.6 8.3-9.8 4.8-.2 8.8 3.1 9.1 9.1Z"/>
  <path fill="#F3F6F7" stroke="#050505" stroke-width=".5" d="M25.9 34.491c4.2-.2 9.7 1.8 9.7 1.8s.5 9.3 1.6 13.1c1 3.5 2.6 5.8 2.6 6.4-.5 1.9-7.8 3.9-10.1 4.1-6.3.6-9.6-1.1-13.9-1-3.4.2-4-.3-4.3-.7-1.2-1.3 1.5-21.8 1.5-21.8s8.6-1.7 12.9-1.9Z"/>
  <path stroke="#050505" stroke-linecap="round" stroke-linejoin="round" stroke-width=".5" d="M25.9 34.491c4.2-.2 9.7 1.8 9.7 1.8s.5 9.3 1.6 13.1c1 3.5 2.6 5.8 2.6 6.4-.5 1.9-7.8 3.9-10.1 4.1-6.3.6-9.6-1.1-13.9-1-3.4.2-4-.3-4.3-.7-1.2-1.3 1.5-21.8 1.5-21.8s8.6-1.7 12.9-1.9Z"/>
  <g opacity=".4">
    <mask id="b" width="8" height="3" x="21" y="41" maskUnits="userSpaceOnUse" style="mask-type:luminance">
      <path fill="#fff" d="m21.64 43.891 6.71-.27-.1-2.4-6.71.28.1 2.39Z"/>
    </mask>
    <g mask="url(#b)">
      <path fill="#B4B4B4" d="M21.7 41.591v.6h3.8l-.7.5.1.5 3.3.1v.2l-1.9-2.1-4.6.2Z"/>
      <path stroke="#B4B4B4" stroke-linejoin="round" stroke-width=".4" d="M21.7 41.591v.6h3.8l-.7.5.1.5 3.3.1v.2l-1.9-2.1-4.6.2Z"/>
    </g>
  </g>
  <path fill="#F3F6F7" d="m29.4 37.791 2.8 2.9-2.1.3.6.6-2.3 2.4-.2-1 .7-5 .5-.2Z"/>
  <path stroke="#050505" stroke-linecap="round" stroke-linejoin="round" stroke-width=".4" d="m29.4 37.791 2.8 2.9-2.1.3.6.6-2.3 2.4-.2-1 .7-5 .5-.2Z"/>
  <path fill="#F3F6F7" d="m23.9 38.691-2.3 2.8h3.9l-.7 1 3.5 1.4-.1-.7-2.1-3.8-2.2-.7Z"/>
  <path stroke="#050505" stroke-linecap="round" stroke-linejoin="round" stroke-width=".4" d="m23.9 38.691-2.3 2.8h3.9l-.7 1 3.5 1.4-.1-.7-2.1-3.8-2.2-.7Z"/>
  <path fill="#D81E45" d="m28.5 38.791-2.7-.4 2.3 4 .1-1.2.3-2.4Z"/>
  <path stroke="#050505" stroke-linecap="round" stroke-linejoin="round" stroke-width=".4" d="M21.5 52.891c.1 2.4-1.3 3.5-3.1 3.6-1.8.1-3.3-1-3.4-3.3l-.1-2.5 6.6-.3v2.5Z"/>
  <path fill="#EB2A2C" d="m21.6 51.691-6.7.2Z"/>
  <path stroke="#050505" stroke-width=".4" d="m21.6 51.691-6.7.2"/>
  <path fill="#050505" d="M26.4 45.791c.1.4.4.7.7.7.4 0 .7-.4.7-.7 0-.4-.3-.7-.7-.7-.4 0-.7.3-.7.7Zm.5 5.5c0 .4.3.7.7.7.3 0 .6-.3.6-.7 0-.4-.3-.7-.7-.7-.4 0-.6.4-.6.7Zm1.4 5.3c0 .4.3.7.7.7.3-.1.6-.4.6-.8 0-.3-.3-.6-.7-.6-.4 0-.6.3-.6.7Z"/>
  <path fill="#F38A9A" d="M16.6 37.991c4.4 3.9.8 9.7-2.8 8.8-1.4-.4-1.4-1.7-1.4-1.7l.9-8.2s2.7.4 3.3 1.1Z"/>
  <path stroke="#050505" stroke-width=".6" d="M16.6 37.991c4.4 3.9.8 9.7-2.8 8.8-1.4-.4-1.4-1.7-1.4-1.7l.9-8.2s2.7.4 3.3 1.1Z"/>
  <g style="mix-blend-mode:multiply">
    <mask id="c" width="6" height="19" x="10" y="41" maskUnits="userSpaceOnUse" style="mask-type:luminance">
      <path fill="#fff" d="m11.39 59.451 4.37-.18-.74-17.96-4.37.18.74 17.96Z"/>
    </mask>
    <g mask="url(#c)">
      <path fill="#DFDFDE" d="m11.3 58.091 1.5-16.7 2.3.8-1.4 17.2-2.4-1.3Z"/>
    </g>
  </g>
  <path fill="#FEFEFE" d="M28.3 43.291s.2 6.6 1.3 10.1c1.1 3.6 1.4 6 1.4 6"/>
  <path stroke="#050505" stroke-linecap="round" stroke-linejoin="round" stroke-width=".4" d="M28.3 43.291s.2 6.6 1.3 10.1c1.1 3.6 1.4 6 1.4 6"/>
  <mask id="d" width="9" height="11" x="31" y="46" maskUnits="userSpaceOnUse" style="mask-type:luminance">
    <path fill="#fff" d="m36.56 46.781 3.31 8.8-5.49.92-2.66-7.85 4.84-1.87Z"/>
  </mask>
  <g mask="url(#d)">
    <path stroke="#050505" stroke-linecap="round" stroke-linejoin="round" stroke-width=".4" d="M42.3 50.491c.6 2.2-.5 3.7-2.3 4.2-1.7.4-3.4-.3-4-2.5l-.6-2.5 6.4-1.6.5 2.4Z"/>
    <path fill="#EB2A2C" d="m42.2 49.191-6.5 1.8Z"/>
    <path stroke="#050505" stroke-width=".4" d="m42.2 49.191-6.5 1.8"/>
  </g>
  <path fill="#4F3116" d="M33.6 34.991c.1 2.8 2 5 4.2 4.9 2.2-.1 3.9-2.4 3.8-5.2-.1-2.8-2-5-4.2-4.9-2.2.1-3.9 2.5-3.8 5.2Z"/>
  <path fill="#A27448" d="M5 21.591c.4 10.3 8.9 18.7 20 19 10.6.2 18.8-9.2 18.4-19.5-.4-10.3-9.3-18.3-19.9-17.9-10.6.4-18.9 8.1-18.5 18.4Z"/>
  <path fill="#C48A58" d="M8.3 22.591c.4 9.9 7.2 17.6 17.2 17.2 10-.4 17.8-8.8 17.4-18.7-.4-9.8-5.6-11.4-15.6-11-10 .4-19.4 2.7-19 12.5Z"/>
  <path fill="#BB8653" d="M4.9 19.491c.4 10.3 5.5 21.1 19.9 20.8 17.8-.3 18.5-8.8 18.1-19.2-.5-10.3-9.4-18.3-20-17.9-10.6.4-18.4 6-18 16.3Z"/>
  <path stroke="#050505" stroke-width=".8" d="M4.9 19.491c.4 10.3 5.5 21.1 19.9 20.8 17.8-.3 18.5-8.8 18.1-19.2-.5-10.3-9.4-18.3-20-17.9-10.6.4-18.4 6-18 16.3Z"/>
  <g style="mix-blend-mode:multiply">
    <mask id="e" width="34" height="40" x="4" y="2" maskUnits="userSpaceOnUse" style="mask-type:luminance">
      <path fill="#fff" d="m6.31 41.281 31.18-1.28-1.53-37.29-31.18 1.28 1.53 37.29Z"/>
    </mask>
    <g mask="url(#e)">
      <path fill="#DFDFDE" d="M10.1 34.391s-7.8-8.9-3.2-23.4c4.6-4.9 12.4-8.7 19.8-7.6 5.5 1.2 9.5 4.9 9.5 4.9s-9.4 9-10.8 10.8c-1.3 1.8 4.4 3.7 2.2 5.4-2.2 1.6-9.3 4.2-9.4 6.5 0-.1-.1 0 0 0 0 0 .2 7.9 9.7 8.6 0 0-3.7 1.8-8.7.5-.667-.2-1.2-.467-1.6-.8l-.4-.1-7.1-4.8Z"/>
    </g>
  </g>
  <path fill="#fff" d="M28.4 25.891c.1.8.5 1.5 1.1 1.4.5 0 .9-.6.9-1.4-.1-.8-.5-1.5-1.1-1.5-.5.1-.9.7-.9 1.5Z"/>
  <path stroke="#050505" stroke-width=".4" d="M28.4 25.891c.1.8.5 1.5 1.1 1.4.5 0 .9-.6.9-1.4-.1-.8-.5-1.5-1.1-1.5-.5.1-.9.7-.9 1.5Z"/>
  <path fill="#050505" d="M28.3 25.791s-.7.3-1.3-.9c0 0 .6.7 1.3.5.7-.2 0 .4 0 .4Z"/>
  <path fill="#050505" d="M28.3 25.391s-.7.3-1.3-.9c0 0 .6.8 1.3.6.7-.2 0 .3 0 .3Zm.5 1c0 .5.4.9.9.8.5 0 .9-.4.9-.9s-.4-.9-.9-.9c-.5.1-.9.5-.9 1Z"/>
  <path fill="#FEFEFE" d="M29.5 26.291c0 .2.2.3.3.3.2 0 .3-.2.3-.3 0-.2-.2-.3-.3-.3-.2 0-.3.2-.3.3Z"/>
  <path fill="#fff" d="M41.2 24.991c0 .7-.3 1.3-.7 1.3-.4 0-.8-.6-.8-1.3-.1-.7.3-1.3.7-1.3.4 0 .8.6.8 1.3Z"/>
  <path stroke="#050505" stroke-width=".4" d="M41.2 24.991c0 .7-.3 1.3-.7 1.3-.4 0-.8-.6-.8-1.3-.1-.7.3-1.3.7-1.3.4 0 .8.6.8 1.3Z"/>
  <path fill="#050505" d="M41.3 24.491s.6.2 1-.9c0 0-.5.7-1 .6-.6-.1 0 .3 0 .3Zm0 .799c0 .5-.3.901-.7.901-.4 0-.8-.4-.8-.8s.3-.8.7-.8c.4-.1.7.3.8.7Z"/>
  <path fill="#FEFEFE" d="M40.9 25.391c0 .1-.1.2-.3.2-.1 0-.2-.1-.2-.2 0-.2.1-.3.2-.3s.2.1.3.3Z"/>
  <path stroke="#050505" stroke-linecap="round" stroke-linejoin="bevel" stroke-width=".5" d="M33.3 33.491s3.2 1.8 6-1.3m-.3-10.9 3.1-.1m-14.1 1.4 3-.1"/>
  <path fill="#3A2417" d="M35.1 16.991s6.7 7.1 8.8 4.7c0 0-1.7 1.6-8.8-4.7Z"/>
  <path fill="#4F3116" d="M5.2 41.391c.2 2.8 2 5 4.3 4.9 2.2-.1 3.9-2.4 3.8-5.2-.1-2.8-2-5-4.2-4.9-2.3.1-4 2.4-3.9 5.2Z"/>
  <path stroke="#050505" stroke-width=".5" d="M5.2 41.391c.2 2.8 2 5 4.3 4.9 2.2-.1 3.9-2.4 3.8-5.2-.1-2.8-2-5-4.2-4.9-2.3.1-4 2.4-3.9 5.2Z"/>
  <path fill="#4F3116" d="M35.1 16.991s-9 13.6-22.6 14.8c0 0 .8 4.5-3.7 3.5-4.6-1-11.7-14-1.8-27.8 6.8-9.4 32.5-9.8 36.9 6.9 0 0 4.1 15.6-8.8 2.6Z"/>
  <path stroke="#050505" stroke-width=".6" d="M35.1 16.991s-9 13.6-22.6 14.8c0 0 .8 4.5-3.7 3.5-4.6-1-11.7-14-1.8-27.8 6.8-9.4 32.5-9.8 36.9 6.9 0 0 4.1 15.6-8.8 2.6Z"/>
  <path fill="#1F140E" d="M11 34.291s-3.9 2.8-5.3-2c0 0 1.7 2.7 5.3 2Zm3-12.1s-6.2 1.7-7.6-2.6c0 0 2.1 2.6 7.6 2.6Zm11.6-6.9s-5.6 4.5-9 1.3c0 0 3.4 1.3 9-1.3Zm10.9-1.4s-1.4 5.6-4 5.9c0 0 1.9-.9 4-5.9Z"/>
  <path fill="#C866A7" d="m11.7 34.991.1 2.5s-.6-1-3-.7c-2.4.3-2.8 1.5-2.8 1.5l.8-3.8s1 1 2.4 1c.8 0 2.5-.5 2.5-.5Z"/>
  <path stroke="#050505" stroke-width=".5" d="m11.7 34.991.1 2.5s-.6-1-3-.7c-2.4.3-2.8 1.5-2.8 1.5l.8-3.8s1 1 2.4 1c.8 0 2.5-.5 2.5-.5Z"/>
  <path stroke="#050505" stroke-linecap="round" stroke-linejoin="bevel" stroke-width=".5" d="M38.3 29.591c-.3.3-.5.4-1 .5-.7.1-1.4 0-1.7-.2"/>
  <path fill="#CB6BA9" d="M23.5 32.691c.1 1.3 1.2 2.4 2.6 2.3 1.4 0 2.5-1.2 2.4-2.5 0-1.4-1.2-2.5-2.6-2.4-1.4 0-2.4 1.2-2.4 2.6Z" opacity=".3"/>
  <path fill="#AB795A" d="m12.3 31.191-1.6-1.5c-.3-.4-.4-1.1 0-1.4.4-.4.8-.3 1-.2.4.2.9.6.9.6"/>
  <path stroke="#050505" stroke-linecap="round" stroke-linejoin="round" stroke-width=".6" d="m12.3 31.191-1.6-1.5c-.3-.4-.4-1.1 0-1.4.4-.4.8-.3 1-.2.4.2.9.6.9.6"/>
  <path fill="#AB795A" stroke="#050505" stroke-linecap="round" stroke-linejoin="round" stroke-width=".6" d="M11.6 31.191c0-.8-.1-2.6.8-3.8.8-1.2 2.1-1.8 3.4-1.5 1.6.4 2.8 2 2.2 2.8-.2.4-.4.9-.5 1.5-.2.5-.3 1.5-.4 1.7-.2.9-1.1 2.6-3 2.2-2.3-.5-2.5-2.9-2.5-2.9Z"/>
  <path fill="#DFDFDF" d="M11.7 29.491s.6 1.7 2.9 1.7c2.2 0 2.7-.3 2.7-.3s.3 2.1-1.3 2.8c-1.7.7-3.8.4-4.1-1-.3-1.5-.2-3.2-.2-3.2Z" style="mix-blend-mode:multiply"/>
  <path fill="#F5F6F7" stroke="#050505" stroke-linecap="round" stroke-linejoin="round" stroke-width=".6" d="M9.7 30.591c-.4 1.9-.6 3.3-1.1 5.5-.8 3.8-.2 6.6-.2 6.6.3 2.4 2.2 4.1 4.4 3.8h.7c2-.2 3.8-1.7 3.5-4.6 0 0-.1-2.9.4-5.6.4-1.7.8-4 .8-4l-8.5-1.7Z"/>
  <path fill="#0A0C0F" d="M9.7 30.591c-.4 1.9-.6 3.3-1.1 5.5-.8 3.8-.2 6.6-.2 6.6.3 2.4 2.2 4.1 4.4 3.8h.7c.2 0 .433-.033.7-.1l-.5-.5s-2.9-1.1-2.7-5.6c.1-3 1-6.9 1.6-9.2l-2.9-.5Z" opacity=".3"/>
  <path fill="#21B04B" d="m62.2 101.991-42.4 3.3-.4-4.1 42.4-3.3.4 4.1Zm8.1-9.4-59.2 5.3-.5-4.1 59.3-5.3.4 4.1Z"/>
  <path fill="#FEFEFE" d="m28.6 82.391-.3 4.6 1.1-.1v.6l-1.9.1.4-5.2h.7Zm3.2-.3v.6l-1.2.1-.1 1.6 1-.1v.6l-1 .1-.2 1.8 1.2-.1-.1.6-1.8.2.4-5.2 1.8-.2Zm.7-.1.5 2.4.1-.7.6-1.8h.7l-1.1 3-.2 2.2-.7.1.2-2.2-.8-2.9.7-.1Zm3.9 1.2-.1 1.8-.1 1.9h-.7l.4-5.2h.6l1 3.8v-2.1l.1-1.8.7-.1-.4 5.2-.6.1-.9-3.9h-.1l.1.3Zm2.1 3.1c0-.2.2-.4.4-.4.2-.1.4.1.4.3 0 .3-.2.5-.4.5-.3 0-.4-.2-.4-.4Z"/>
  <path fill="#FEFEFE" fill-rule="evenodd" d="M40.8 82.691c-.1.4-.1 1.5-.8 1.6-.7 0-.6-1-.6-1.5.1-.5.1-1.6.8-1.6.7-.1.6 1 .6 1.5Zm-.6-1.2c-.3.1-.3.6-.4 1.3 0 .6-.1 1.1.2 1.1.3 0 .4-.6.4-1.2s.1-1.2-.2-1.2Z" clip-rule="evenodd"/>
  <path fill="#FEFEFE" d="m44.2 80.991-.3 5.2h-.7l.3-4.6-.5.1.1-.6 1.1-.1Z"/>
  <path fill="#FEFEFE" fill-rule="evenodd" d="m47.1 83.991.4-.1-.1.5-.3.1-.1 1.4-.7.1.1-1.5-1.3.2v-.6l1.6-3.3.7-.1-.3 3.3Zm-.6-2.1-.9 2.2h.8l.1-2.2Z" clip-rule="evenodd"/>
  <path fill="#FEFEFE" d="M48 82.091c0-.8.2-1.5 1.2-1.6.8-.1 1.1.4 1 1.2 0 .7-.6 1.9-1 2.6l-.5.9 1.2-.2v.6l-2.3.2 1.5-2.7c.2-.5.4-1 .4-1.4.1-.3 0-.6-.4-.6s-.4.8-.4 1l-.1.2H48v-.2Z"/>
  <path fill="#FEFEFE" fill-rule="evenodd" d="M52.8 82.79c-.1.8-.2 2.701-1.4 2.801-1.2.1-1-1.8-1-2.6.1-.8.2-2.6 1.4-2.8 1.2-.1 1 1.8 1 2.6Zm-1.1-1.899c-.4 0-.5 1-.6 2.1-.1 1-.1 2 .4 1.9.4 0 .5-1 .6-2 .1-1.1.1-2.1-.4-2Z" clip-rule="evenodd"/>
  <path fill="#FEFEFE" d="m65.5 105.391.5 2.3.2-.7.5-1.7h.7l-1.1 2.9-.2 2.1-.6.1.1-2.2-.8-2.7.7-.1Zm-51.3-11.6-.1.6 2.6-.2-.1 1.7-2.6.2v.6l2.8-.3-.1 1.9-4.7.4.3-6.6 4.7-.4-.1 1.9-2.7.2Z"/>
  <path fill="#FEFEFE" fill-rule="evenodd" d="m17.6 98.191.3-6.6 2.6-.2c.933-.067 1.7.167 2.3.7.533.6.8 1.367.8 2.3-.067.933-.4 1.733-1 2.4a4.137 4.137 0 0 1-2.4 1.2l-2.6.2Zm2.1-4.9-.1 2.8h.7c.333-.067.633-.233.9-.5.2-.267.3-.633.3-1.1.067-.4 0-.7-.2-.9-.2-.267-.5-.4-.9-.4l-.7.1Z" clip-rule="evenodd"/>
  <path fill="#FEFEFE" d="M26.9 97.491h-.6c-.3-.1-.6-.1-1.1-.4-.4-.2-.6-.5-.8-1.1a4.21 4.21 0 0 1-.1-1l.2-4 1.9-.1-.2 4s0 .1.1.3c0 .067.033.133.1.2.1.1.3.3.6.2.2 0 .367-.067.5-.2s.233-.267.3-.4v-.3l.2-4 2-.1-.2 3.9c-.1.8-.3 1.4-.7 1.8-.133.2-.3.367-.5.5-.6.5-1.3.6-1.6.7h-.1Zm10.5-3.8c-.2.8-.633 1.5-1.3 2.1-.6.667-1.333 1.034-2.2 1.1-1 .067-1.8-.2-2.4-.8-.6-.6-.9-1.367-.9-2.3.067-1 .467-1.833 1.2-2.5.667-.733 1.467-1.133 2.4-1.2.867-.067 1.6.134 2.2.6.6.467.967 1.1 1.1 1.9l-2.1.2c-.067-.267-.233-.5-.5-.7-.2-.133-.467-.2-.8-.2a1.58 1.58 0 0 0-1 .6c-.267.267-.4.633-.4 1.1-.067.4.033.767.3 1.1.267.267.6.367 1 .3.267 0 .533-.1.8-.3.2-.267.367-.533.5-.8l2.1-.2Z"/>
  <path fill="#FEFEFE" fill-rule="evenodd" d="m42 89.491 2.1 6.3-2.1.2-.2-.6-2.1.1-.3.7-2.1.2 2.8-6.7 1.9-.2Zm-1.7 4.1.9-.1-.3-1.3-.6 1.4Z" clip-rule="evenodd"/>
  <path fill="#FEFEFE" d="M51.2 92.491c-.2.8-.633 1.5-1.3 2.1-.667.6-1.4.933-2.2 1-1 .133-1.8-.1-2.4-.7-.6-.6-.9-1.4-.9-2.4.067-.933.433-1.766 1.1-2.5.733-.666 1.566-1.067 2.5-1.2.867-.067 1.6.133 2.2.6.6.533.967 1.2 1.1 2l-2.1.2c-.133-.333-.3-.566-.5-.7-.267-.2-.533-.267-.8-.2-.4 0-.733.167-1 .5a2.43 2.43 0 0 0-.5 1.2c0 .4.133.733.4 1s.6.4 1 .4c.267 0 .533-.133.8-.4.2-.2.367-.467.5-.8l2.1-.1Zm.6 2.6.3-6.5 1.9-.2-.3 6.6-1.9.1Z"/>
  <path fill="#FEFEFE" fill-rule="evenodd" d="M58.4 87.891c.933-.067 1.7.2 2.3.8.667.6.967 1.367.9 2.3-.067.933-.433 1.767-1.1 2.5-.667.734-1.5 1.133-2.5 1.2-.933.067-1.7-.2-2.3-.8-.667-.6-.967-1.367-.9-2.3.067-.933.433-1.767 1.1-2.5.667-.733 1.5-1.133 2.5-1.2Zm-.3 5c.4-.067.733-.267 1-.6.334-.333.5-.7.5-1.1 0-.466-.133-.833-.4-1.1-.2-.267-.5-.367-.9-.3-.4 0-.733.167-1 .5-.333.333-.5.7-.5 1.1 0 .467.134.834.4 1.1.2.267.5.4.9.4Zm1.3-5.5-2 .1 1-1.8 2.2-.2-1.2 1.9Z" clip-rule="evenodd"/>
  <path fill="#FEFEFE" d="m68.5 87.091-.4 6.6-1.7.1-2-2.6-.1 2.8-1.9.2.3-6.6 1.7-.1 2 2.7.1-2.9 2-.2Z"/>
  <path fill="#21B04B" d="m63.6 110.491-49.7 5-.5-4.3 49.8-4.8.4 4.1Z"/>
  <path fill="#FEFEFE" d="M19.9 111.491c-.2-.333-.433-.533-.7-.6-.2-.067-.467-.067-.8 0-.4 0-.733.167-1 .5-.333.333-.5.733-.5 1.2 0 .4.1.733.3 1 .267.267.6.4 1 .4.267-.067.5-.133.7-.2.2-.133.333-.267.4-.4v-.1l-1.2.1.1-1.5 3.3-.3v1.3c-.1.7-.5 1.4-.8 1.7-.2.2-.433.4-.7.6-.2.133-.4.233-.6.3l-.6.2c-.2.067-.367.1-.5.1h-.2c-.933.133-1.733-.1-2.4-.7-.6-.6-.867-1.4-.8-2.4 0-.933.367-1.767 1.1-2.5.666-.667 1.5-1.067 2.5-1.2 1.267-.067 2.233.4 2.9 1.4l-1.5 1.1Z"/>
  <path fill="#FEFEFE" fill-rule="evenodd" d="m28 114.791-2.3.2-1.3-1.5h-.2v1.7l-2 .1.4-6.5 2.6-.3c.1 0 .2 0 .5.1.4 0 .7.1 1.1.3.3.2.6.5.8 1 .067.267.1.567.1.9-.067.933-.467 1.633-1.2 2.1l1.5 1.9Zm-3.6-4.4-.1 1.2h.7c.4-.067.6-.3.6-.7 0-.4-.2-.6-.5-.5h-.7Zm8.6-2.6 2 6.4-2.1.2-.2-.7-2.1.2-.2.7-2.1.2 2.7-6.8 2-.2Zm-1.6 4.2.8-.1-.3-1.3-.5 1.4Z" clip-rule="evenodd"/>
  <path fill="#FEFEFE" d="m36.3 109.391-1.8.2.1-1.9 5.5-.5-.1 1.9-1.8.1-.2 4.7-2 .2.3-4.7Zm6.9 4.2h-.6c-.3-.1-.7-.1-1.1-.4-.4-.2-.6-.5-.8-1.1-.133-.267-.167-.6-.1-1l.2-3.9 1.9-.2-.2 4v.3l.2.2c.1.1.3.3.6.2.2 0 .367-.066.5-.2.133-.133.233-.267.3-.4v-.3l.2-4 1.9-.1-.2 3.9c0 .8-.2 1.4-.6 1.8-.133.2-.3.367-.5.5-.6.5-1.3.6-1.6.7h-.1Zm3.7-.5.3-6.5 1.9-.2-.3 6.6-1.9.1Zm4.7-5.1-1.8.2.1-1.9 5.5-.5-.1 1.9-1.8.2-.2 4.7-1.9.1.2-4.7Z"/>
  <path fill="#FEFEFE" fill-rule="evenodd" d="m59 105.491 2 6.4-2.1.2-.2-.7-2.1.2-.2.7-2.1.2 2.7-6.8 2-.2Zm-1.6 4.2.9-.1-.4-1.3-.5 1.4Z" clip-rule="evenodd"/>
  <path fill="#21B04B" d="m66.9 118.491-65.5 6.1-.5-4.1 65.6-6 .4 4Z"/>
  <path fill="#FEFEFE" fill-rule="evenodd" d="M6 118.391c.933-.067 1.733.2 2.4.8.6.6.867 1.367.8 2.3 0 .934-.367 1.767-1.1 2.5-.667.734-1.5 1.133-2.5 1.2-.933.067-1.7-.2-2.3-.8-.667-.6-.967-1.367-.9-2.3.067-.933.433-1.767 1.1-2.5.667-.733 1.5-1.133 2.5-1.2Zm-.3 4.9c.4 0 .733-.167 1-.5.333-.333.5-.7.5-1.1 0-.467-.1-.833-.3-1.1-.267-.267-.6-.4-1-.4-.4.067-.733.267-1 .6-.333.333-.5.7-.5 1.1 0 .467.133.834.4 1.1.267.267.567.367.9.3Zm4.3 1.4.3-6.6 2.8-.2c.067 0 .167-.033.3-.1.067 0 .233.033.5.1l.6.2c.2.133.367.3.5.5.133.267.2.567.2.9 0 .467-.2.9-.6 1.3.533.333.767.8.7 1.4-.067 1.333-1 2.067-2.8 2.2l-2.5.3Zm2.1-2 .8-.1c.267 0 .4-.1.4-.3 0-.267-.133-.366-.4-.3h-.8v.7Zm.1-2.1.8-.1c.1 0 .3-.1.3-.4 0-.2-.1-.3-.2-.3l-.9.1v.7Z" clip-rule="evenodd"/>
  <path fill="#FEFEFE" d="m18.3 117.391-.2 4.7 2.7-.2-.1 1.8-4.7.4.4-6.5 1.9-.2Zm3.1 6.3.3-6.6 1.9-.2-.3 6.6-1.9.2Zm8-4.8c-.2-.333-.433-.533-.7-.6-.2-.067-.467-.067-.8 0-.4 0-.767.167-1.1.5-.267.333-.4.7-.4 1.1-.067.467.033.833.3 1.1.267.267.6.4 1 .4.267-.067.5-.133.7-.2.2-.133.333-.267.4-.4v-.1l-1.2.1.1-1.6 3.3-.3v1.4c-.1.7-.5 1.4-.8 1.7-.2.2-.433.4-.7.6-.2.133-.4.233-.6.3l-.6.2c-.2.067-.367.1-.5.1h-.2c-.933.133-1.733-.1-2.4-.7-.6-.6-.867-1.4-.8-2.4 0-.933.367-1.767 1.1-2.5.666-.667 1.5-1.067 2.5-1.2 1.267-.067 2.233.4 2.9 1.4l-1.5 1.1Z"/>
  <path fill="#FEFEFE" fill-rule="evenodd" d="m35.6 115.891 2.1 6.3-2.1.2-.2-.7-2.1.2-.3.7-2.1.2 2.7-6.8 2-.1Zm-1.6 4.2.9-.1-.4-1.3-.5 1.4Z" clip-rule="evenodd"/>
  <path fill="#FEFEFE" d="m38.9 117.391-1.8.2.1-1.9 5.5-.5-.1 1.9-1.8.1-.2 4.7-2 .2.3-4.7Z"/>
  <path fill="#FEFEFE" fill-rule="evenodd" d="M46.3 114.791c1-.067 1.8.2 2.4.8.6.6.9 1.367.9 2.3-.067.933-.434 1.767-1.1 2.5-.733.733-1.567 1.133-2.5 1.2-1 .067-1.8-.2-2.4-.8-.6-.6-.9-1.366-.9-2.3.067-.933.433-1.766 1.1-2.5.733-.733 1.567-1.133 2.5-1.2Zm-.2 4.9c.4 0 .733-.167 1-.5.267-.333.4-.7.4-1.1.066-.467-.033-.833-.3-1.1a1.36 1.36 0 0 0-1-.4c-.4.067-.733.267-1 .6-.267.333-.433.7-.5 1.1 0 .467.133.833.4 1.1.267.267.6.367 1 .3Zm10 .9-2.3.2-1.3-1.6-.2.1-.1 1.6-1.9.2.3-6.6 2.7-.2h.5c.4 0 .7.1 1 .3.4.2.7.5.9 1 .066.267.1.567.1.9-.067.934-.467 1.633-1.2 2.1l1.5 2Zm-3.7-4.3v1.2l.7-.1c.4 0 .6-.2.6-.6 0-.4-.2-.6-.5-.6l-.8.1Z" clip-rule="evenodd"/>
  <path fill="#FEFEFE" d="m56.7 120.491.3-6.6 1.9-.1-.3 6.5-1.9.2Z"/>
  <path fill="#FEFEFE" fill-rule="evenodd" d="m63.9 113.291 2.1 6.4-2.1.2-.2-.7-2.1.2-.3.7-2.1.2 2.7-6.8 2-.2Zm-1.6 4.2.9-.1-.4-1.3-.5 1.4Z" clip-rule="evenodd"/>
  <path fill="#FEFEFE" d="M29.6 103.191c-.267.8-.7 1.5-1.3 2.1-.667.6-1.433.933-2.3 1-.933.133-1.733-.1-2.4-.7-.6-.6-.867-1.4-.8-2.4 0-.933.367-1.767 1.1-2.5.667-.667 1.5-1.067 2.5-1.2.8-.067 1.5.167 2.1.7.6.467.967 1.1 1.1 1.9l-2.1.2c-.067-.267-.233-.5-.5-.7-.2-.133-.433-.2-.7-.2-.4 0-.767.167-1.1.5-.267.333-.4.733-.4 1.2 0 .4.1.733.3 1 .267.333.6.467 1 .4.267 0 .533-.133.8-.4.267-.2.467-.467.6-.8l2.1-.1Z"/>
  <path fill="#FEFEFE" fill-rule="evenodd" d="M33.8 98.891c.933-.067 1.7.2 2.3.8.667.6.966 1.367.9 2.3-.067.934-.433 1.767-1.1 2.5-.667.734-1.5 1.133-2.5 1.2-.933.067-1.733-.2-2.4-.8-.6-.6-.867-1.367-.8-2.3 0-.933.367-1.767 1.1-2.5.667-.733 1.5-1.133 2.5-1.2Zm-.3 4.9c.4 0 .733-.167 1-.5.333-.333.5-.7.5-1.1 0-.467-.133-.833-.4-1.1-.267-.267-.567-.4-.9-.4-.4.067-.767.267-1.1.6-.267.333-.4.7-.4 1.1 0 .467.1.834.3 1.1.267.267.6.367 1 .3Z" clip-rule="evenodd"/>
  <path fill="#FEFEFE" d="M41.5 104.091h-.6l-1.1-1.8-.1 2.7-2 .2.4-6.6 1.8-.1 1.5 2.3 1.7-2.6 1.8-.2-.3 6.6-2 .1.2-2.7-1.3 2.1Zm6.8.3c-.1 0-.2 0-.6-.1-.3 0-.7-.1-1.1-.3-.4-.2-.6-.5-.8-1.1a1.728 1.728 0 0 1-.1-1l.2-4 1.9-.2-.2 4.1v.2c.067.134.133.233.2.3.1.1.3.2.6.2a.68.68 0 0 0 .5-.2c.133-.2.233-.367.3-.5v-.2l.2-4 1.9-.2-.2 4c0 .7-.2 1.4-.6 1.8-.133.2-.3.367-.5.5-.7.5-1.3.6-1.6.6l-.1.1Zm-.7-7.1 1-1.9 2.2-.2-1.2 1.9-2 .2Zm10.5-.5-.4 6.6-1.7.1-1.9-2.6-.2 2.8-1.9.2.3-6.6 1.8-.1 1.9 2.7.1-2.9 2-.2Zm2.5 7-1.9.1 1-2.4 2.2-.2-1.3 2.5Z"/>
</svg>
