<svg xmlns="http://www.w3.org/2000/svg" width="81" height="118" fill="none" viewBox="0 0 81 118">
  <path fill="#ED2930" d="m72.8 62.75-61.9-7.3-7.5 53.9 62 7.8 7.4-54.4Z"/>
  <path fill="#AF1F24" d="M80.8 55.65H12.4l60.4 5.6-7.4 55.9 7.4-7.5 8-54Z"/>
  <path fill="#C92127" d="m23.3 49.65-12.4 5.8 61.9 7.3 8-7.1-57.5-6Z"/>
  <path fill="#7AC057" d="M71.8 100.45 0 91.55l1.5-5.2 72.1 8.9-1.8 5.2Z"/>
  <path fill="#FEFEFE" fill-rule="evenodd" d="M16.6 74.45c1 .1 2.2.3 1.2 3.7-1 3.1-2 3.1-3.6 2.9l-.6-.1 2-6.7 1 .2Zm-.3.8-1.6 5.2c1.4.2 1.8-1.2 2.1-2.3.4-1.1 1-2.8-.5-2.9Z" clip-rule="evenodd"/>
  <path fill="#FEFEFE" d="m18.3 81.65-.8-.1 2-6.7.8.1-2 6.7Zm1.6-7.1-.3-.3 1.1-1.3.5.5-1.3 1.1Z"/>
  <path fill="#FEFEFE" fill-rule="evenodd" d="m22.8 75.25-.6 6.9-.8-.1.1-1.3-1.3-.2-.7 1.3-.8-.2 3.4-6.5.7.1Zm-1.1 3.8.4-2.5-1.6 3.3 1.1.2.1-1Zm5.5-3.2c1 .2 2.2.4 1.1 3.8-.9 3.1-1.9 3.1-3.5 2.9l-.6-.1 2-6.7 1 .1Zm-.3.7-1.6 5.2c1.4.3 1.8-1.1 2.1-2.3.3-1 1-2.8-.5-2.9Z" clip-rule="evenodd"/>
  <path fill="#FEFEFE" d="m32.4 76.55-.2.8-1.5-.2-.6 2.1 1.3.2-.2.8-1.4-.2-.6 2.3 1.4.2-.2.8-2.4-.4 2.1-6.7 2.3.3Zm2.9.4-1.7 6 1.4.2-.2.8-2.3-.4 2-6.7.8.1Z"/>
  <path fill="#FEFEFE" fill-rule="evenodd" d="m38.8 77.45-.6 6.9-.9-.1.1-1.3-1.3-.2-.6 1.3-.9-.2 3.5-6.5.7.1Zm-1.2 3.8.4-2.5-1.5 3.3 1 .2.1-1Z" clip-rule="evenodd"/>
  <path fill="#FEFEFE" d="M42.3 79.05c-.2-.2-.4-.4-.7-.4-.5-.1-.9.3-1 .7-.1.3-.1.6 0 .8l.5.8c.4.7.6 1.2.3 2.1-.3 1-1.1 1.7-2.1 1.6-.3-.1-.6-.2-.8-.5l.2-.9c.2.3.5.5.8.5.5.1.9-.3 1.1-.8.3-1.4-1.4-1.9-.9-3.7.3-.9 1-1.6 2-1.5.3.1.6.2.9.4l-.3.9Zm-38 13.8 2.3-8.3 2.4.3-2.2 8.3-2.5-.3Zm13.3-6.9-2.3 8.3-2.2-.3-1.6-3.9-1 3.6-2.4-.3 2.2-8.3 2.2.3 1.6 3.9 1-3.6 2.5.3Zm1.4 8.8-2.4-.3 2.3-8.3 5.9.7-.7 2.4-3.4-.5-.4 1.2 3.3.4-.6 2.1-3.2-.4-.8 2.7Z"/>
  <path fill="#FEFEFE" fill-rule="evenodd" d="m30 87.55.8 8.7-2.7-.3v-.9l-2.7-.4-.5.9-2.6-.4 5.3-7.9 2.4.3Zm-3.2 4.9 1.1.1-.1-1.8-1 1.7Z" clip-rule="evenodd"/>
  <path fill="#FEFEFE" d="m41 88.95-2.2 8.3-2.2-.3-1.7-3.9-.9 3.6-2.5-.3 2.3-8.3 2.2.3 1.6 3.9 1-3.6 2.4.3Zm8.4 6.1c-.467 1-1.2 1.8-2.2 2.4-.934.6-1.934.833-3 .7-1.2-.2-2.1-.767-2.7-1.7-.6-.934-.733-2-.4-3.2.267-1.2.933-2.167 2-2.9 1.067-.734 2.2-1 3.4-.8 1.067.133 1.9.566 2.5 1.3.6.8.867 1.767.8 2.9l-2.6-.4c-.067-.4-.2-.734-.4-1a1.741 1.741 0 0 0-.9-.5c-.533-.067-1 .067-1.4.4a2.22 2.22 0 0 0-.9 1.3c-.133.6-.1 1.1.1 1.5.267.4.633.633 1.1.7.333.067.7 0 1.1-.2.333-.2.633-.5.9-.9l2.6.4Zm0 3.6 2.2-8.3 2.5.3-2.3 8.3-2.4-.3Z"/>
  <path fill="#FEFEFE" fill-rule="evenodd" d="m60.3 91.45.7 8.7-2.6-.4v-.9l-2.7-.3-.5.8-2.6-.3 5.2-7.9 2.5.3Zm-3.2 4.9 1.1.1v-1.8l-1.1 1.7Z" clip-rule="evenodd"/>
  <path fill="#FEFEFE" d="M63.9 97.25c.467.734 1.033 1.167 1.7 1.3.467 0 .734-.133.8-.4.067-.067-.033-.2-.3-.4-.2-.133-.467-.3-.8-.5-.4-.2-.767-.4-1.1-.6a2.11 2.11 0 0 1-.7-1c-.2-.4-.233-.833-.1-1.3.2-.5.5-1 1.1-1.5.5-.5 1.5-.8 2.7-.7.8.1 1.6.5 2 .9.4.4.7.8.7 1.1l.1.2-2 1.1c-.2-.4-.4-.667-.6-.8a6.923 6.923 0 0 0-.8-.2c-.4-.1-.7.1-.7.2-.1.3.3.6.8.8.267.133.567.3.9.5l.8.6c.2.2.367.5.5.9.067.333.067.7 0 1.1-.2.6-.5 1.1-1.2 1.6-.6.5-1.6.8-2.8.6-.933-.133-1.633-.433-2.1-.9-.467-.533-.767-1.033-.9-1.5l2-1.1Z"/>
  <path fill="#050505" d="M54.6 57.15c-.1.9-8.3 1-18.4.1-10.1-.8-18.2-2.3-18.1-3.2.1-.9 8.3-1 18.4-.1 10.1.8 18.2 2.3 18.1 3.2Z" opacity=".3"/>
  <path fill="#831618" d="M46.8 28.35s13.5 5.1 12.1 10.2c-1.4 5.1-5.6 13.8-14.8 7-9.3-6.8 2.7-17.2 2.7-17.2Z"/>
  <path fill="#050505" fill-rule="evenodd" d="M49.7 48.25c-1.8-.133-3.733-.967-5.8-2.5-2.3-1.7-3.5-3.8-3.6-6.2-.1-3 1.6-5.9 3.1-7.9 1.6-2.1 3.2-3.5 3.2-3.5.067-.067.167-.1.3-.1.5.2 13.7 5.3 12.2 10.5-.6 2.4-2.5 8-6.7 9.4a7.329 7.329 0 0 1-2.7.3Zm-2.9-19.6c-.8.7-6.2 5.8-6 10.9.133 2.267 1.267 4.2 3.4 5.8 3 2.2 5.7 2.9 8 2.1 4-1.3 5.8-6.7 6.4-9 1.3-4.5-10.3-9.3-11.8-9.8Z" clip-rule="evenodd"/>
  <path fill="#050505" d="M40.2 53.75s.5 1.3-1.8 2.1l10.8 1.3-.1-2.3-8.9-1.1Z"/>
  <path fill="#050505" fill-rule="evenodd" d="m49.2 57.45-10.9-1.4c-.1 0-.2-.1-.2-.2s.1-.2.2-.3c.8-.2 1.4-.6 1.6-1.1.2-.3.1-.6.1-.6-.067-.067-.067-.167 0-.3.067-.067.133-.067.2 0l8.9 1c.2.1.2.2.3.3v2.5c-.066.067-.133.1-.2.1Zm-9.9-1.8 9.6 1.3v-1.9l-8.4-1c0 .2 0 .4-.2.7-.2.334-.533.633-1 .9Z" clip-rule="evenodd"/>
  <path fill="#2B6EB6" d="m49.6 46.95-.1 8.6-9.7-1-1.3-8.2"/>
  <path fill="#050505" d="m49.5 55.85-9.7-1c-.1 0-.2-.1-.2-.2l-1.3-8.2c-.1-.2 0-.3.2-.3.1 0 .2 0 .3.2l1.3 8 9.2.9v-8.3c0-.1.1-.2.3-.2.1 0 .2.1.2.2v8.6c0 .067-.033.133-.1.2s-.133.1-.2.1Z"/>
  <path fill="#050505" d="M49.5 54.65s-.3-2.4-2.2-2.7c-1.9-.3-7.3.3-8 .2l-.1-2.3 10.5-.3s-.3 3.4-.2 5.1Z" opacity=".2" style="mix-blend-mode:multiply"/>
  <path fill="#050505" d="M25.3 51.75s.1 1.1-3.1 2l10.8 1.3.8-2.2-8.5-1.1Z"/>
  <path fill="#050505" fill-rule="evenodd" d="m32.9 55.35-10.8-1.4c-.1 0-.2-.1-.2-.2 0-.2.1-.3.2-.3 2.8-.7 2.9-1.6 2.9-1.6 0-.133.033-.2.1-.2.067-.067.133-.1.2-.1l8.5 1c.133.067.2.133.2.2.067.067.1.133.1.2l-.9 2.2c-.1.1-.2.2-.3.2Zm-9.5-1.8 9.4 1.2.7-1.7-8-1c-.1.4-.6 1-2.1 1.5Z" clip-rule="evenodd"/>
  <path fill="#2B6EB6" d="m27.9 44.15-3 7.7 9.1 1.7 4.5-7.5"/>
  <path fill="#050505" d="m34 53.85-9.1-1.7-.2-.2c-.067-.067-.067-.134 0-.2l3-7.7c0-.1.2-.2.3-.1.1 0 .2.2.1.3l-2.8 7.4 8.6 1.6 4.4-7.3c0-.1.2-.2.3-.1.1.1.2.2.1.4l-4.4 7.5c-.067.066-.167.1-.3.1Z"/>
  <path fill="#050505" d="M35 52.05s-2.3-.2-4.2-1c-2-.8-5-1.6-5-1.6l1.4-3.6 9.7 2.6-1.9 3.6Z" opacity=".2" style="mix-blend-mode:multiply"/>
  <path fill="#B3805F" d="M25.2 18.85s-2.1-2.1-1.8-4.4c.3-2.2 4.8-3.8 5.9-1.1.9 2.3.5 3.8-.1 4.1-.7.4-4 1.4-4 1.4Z"/>
  <path fill="#050505" fill-rule="evenodd" d="M25.2 19.15c-.067 0-.133-.034-.2-.1-.1-.1-2.2-2.2-1.9-4.6.2-1.5 1.9-2.6 3.5-2.7 1.4-.2 2.5.4 2.9 1.5.9 2.3.6 4-.2 4.5-.6.3-3.9 1.3-4 1.4h-.1Zm2.1-7c-.267 0-.5.033-.7.1-1.3.1-2.8 1-3 2.3-.2 1.8 1.3 3.6 1.7 4 1-.3 3.3-1 3.8-1.3.5-.3.8-1.7-.1-3.8-.3-.9-1.1-1.2-1.7-1.3Z" clip-rule="evenodd"/>
  <path fill="#050505" fill-rule="evenodd" d="M24.7 16.55c-.7 0-1.3-.3-1.4-.7 0-.1.1-.2.2-.3.1 0 .3.1.3.2.1.1.6.4 1.6.3.6 0 2.7-.3 2.6-1.8 0-.1.1-.2.2-.2.2 0 .3.1.3.2.1 2-2.3 2.3-3.1 2.3h-.7Z" clip-rule="evenodd"/>
  <path fill="#B3805F" d="M29.6 14.15c0-.4-.4-.8-.8-.8l-1.4-.1c-.4 0-.8.4-.8.8s.3.8.8.8l.8.1"/>
  <path fill="#050505" d="m28.2 15.25-.8-.1c-.333-.067-.6-.2-.8-.4-.133-.2-.2-.434-.2-.7 0-.267.1-.5.3-.7.2-.2.434-.3.7-.3h1.4c.6 0 1 .5 1 1.1 0 .1-.1.2-.2.2-.2 0-.3-.1-.3-.2 0-.3-.2-.6-.5-.6h-1.4a.888.888 0 0 0-.4.1.887.887 0 0 0-.1.4c0 .133.033.267.1.4.133.133.267.2.4.2l.9.1c.1 0 .2.1.2.3 0 .1-.1.2-.3.2Z"/>
  <path fill="#050505" d="M28.1 14.95s-1.6 0-1.5-.9c.2-.8-.2-.6-.2-.6s-.7.5-.5 1.5c.3 1 2 1 2.2 0Z" opacity=".1" style="mix-blend-mode:multiply"/>
  <path fill="#050505" d="M28.3 15.05s.1.9-1.2 1.5c-1.2.6-1.8.8-1.7 1.1.2.4.5.8.2 1-.3.2-1.2-.3-1.5-1.1-.3-.7-.4-1.5-.4-1.5s1.8.7 2.6.4c.9-.4 2-1.4 2-1.4Z" opacity=".1" style="mix-blend-mode:multiply"/>
  <path fill="#F1F1F1" d="M35.6 35.65c3.4-1.7 1.9-4.5 1.9-4.5l-7.1-15.6-7 2.7 7.5 16.4s1.1 2.9 4.7 1Z"/>
  <path fill="#050505" fill-rule="evenodd" d="M33.1 36.55c-.333 0-.6-.067-.8-.2-1.2-.4-1.6-1.4-1.7-1.6l-7.5-16.4v-.2c.067-.067.133-.1.2-.1l7.1-2.7c.1 0 .2 0 .3.1l7 15.6c.1.1.6 1.2.2 2.5-.267 1-1 1.8-2.2 2.4-.933.466-1.8.666-2.6.6Zm-9.4-18.1 7.4 16.1v.1s.4.9 1.3 1.2c.867.333 1.9.2 3.1-.4 1.067-.534 1.733-1.2 2-2 .3-1.1-.2-2.2-.2-2.2h-.1l-6.9-15.3-6.6 2.5Z" clip-rule="evenodd"/>
  <path fill="#050505" d="M30.1 26.55c-2.6-2.2-3.6-8-2.3-8.7.8-.4 2.1-1.1 3-1.5l6.7 14.8s1.5 2.8-1.9 4.5c-3.6 1.9-4.7-1-4.7-1l-2.9-6.2c2.1 0 4.4.1 2.1-1.9Z" opacity=".1" style="mix-blend-mode:multiply"/>
  <path fill="#F1F1F1" d="M40.8 34.25s-2.7-3.7-3.8-4.2c-1.1-.4-2-1.1-3.1-.1-1.3 1.2-4.9 5.2-7.8 13.4.3 1.9 2.4 3.3 6.6 4.7 5.6 2 9.3 2.3 13.3 2.9 4.1.7 5.2.6 5.2.1.7-13.2 4.1-17 4.1-17l-7.4-.8-7.1 1Z"/>
  <path fill="#050505" fill-rule="evenodd" d="M49 51.65c-.7-.1-1.7-.2-3-.4l-2.6-.4c-3.1-.5-6.4-.9-10.8-2.5-4.5-1.6-6.5-3.1-6.7-4.9v-.2c2.9-8.3 6.5-12.2 7.9-13.5 1-1 1.9-.5 2.8-.1.133.067.3.134.5.2 1 .5 3.3 3.4 3.8 4.1l7-1 7.4.9c.133 0 .2.034.2.1.067.134.067.234 0 .3-.1 0-3.4 3.9-4.1 16.8 0 .133-.067.267-.2.4-.2.2-.7.3-2.2.2Zm-22.6-8.3c.2 1.7 2.2 3 6.4 4.5 4.3 1.6 7.5 2 10.7 2.5.8.133 1.667.267 2.6.4 3.5.6 4.6.5 4.8.3v-.1c.6-11 3.1-15.5 3.9-16.7l-6.9-.8-7.1 1.1c-.067 0-.133-.033-.2-.1-.8-1.1-2.9-3.8-3.7-4.1a2.55 2.55 0 0 1-.6-.3c-.8-.4-1.4-.7-2.2.1-1.3 1.2-4.8 5-7.7 13.2Z" clip-rule="evenodd"/>
  <path fill="#050505" fill-rule="evenodd" d="M46.5 48.95a.887.887 0 0 0-.4-.1c-2-.3-3.1-1.9-3-3.9l.2-2.4c0-.067.033-.133.1-.2h.1l6.1 1c.2.1.3.2.2.3l-.1 2.3c-.1 1.1-.5 1.9-1.2 2.4-.5.4-1.2.6-2 .6Zm-2.8-6.1-.1 2.1c-.2 2.2 1.2 3.2 2.6 3.4.8.2 1.5 0 2-.4.6-.4.9-1.1 1-2l.1-2.1-5.6-1Z" clip-rule="evenodd"/>
  <path fill="#ED3937" d="m43.3 43.75 6.2 1.1-6.2-1.1Z"/>
  <path fill="#050505" d="m49.5 45.05-6.2-1.1.1-.5 6.2 1.1-.1.5Z"/>
  <path fill="#050505" d="M47.2 49.25s-1.7.2-4-1.8-2.3-3.4-2.3-3.4l2.3.7s.2 3.8 3.5 4l.5.5Z" opacity=".1" style="mix-blend-mode:multiply"/>
  <path fill="#8DBEE6" d="M48.4 32.95s-6.5 1.1-10.6 3.7c0 0-1.2-4.2.7-8.2l9.9 4.5Z"/>
  <path fill="#050505" d="M27.4 42.75c-.333 0-.7-.1-1.1-.3-.1-.1-.1-.3-.1-.4.1-.1.3-.2.4-.1 1.1.6 1.7 0 1.8-.1l1.6-3.5-1.5-.7c-.1 0-.1-.2-.1-.3.1-.1.2-.2.4-.1l1.6.8c.2 0 .2.2.2.3l-1.8 3.8s-.5.7-1.4.6Z"/>
  <path fill="#050505" d="M29.8 39.55h-.1l-1.7-.8c-.2-.1-.2-.2-.2-.3.1-.2.2-.2.4-.2l1.8.8c.1.1.1.3.1.4-.067.067-.167.1-.3.1Z"/>
  <path fill="#050505" d="m47.2 31.75 5.9 2.2-7.9 2.3 2.6 2-10.2-.2s-.9 1.8-1.5 3.4c-.7 1.5.4 1.8-.2 2.1-.6.3-1.1.8-1.5 1.8-.4 1-.7 3.1-.7 3.1l-.8-.8s2.1-5.8 3.9-9.5l-3.6-5.5 2.1-.9-.6-2.7 3.9.5-1.2 7.9 9.8-5.7Z" opacity=".1" style="mix-blend-mode:multiply"/>
  <path fill="#050505" d="M38.5 39.75c-.1.4-.4.6-.7.5-.4-.1-.6-.4-.5-.8 0-.3.3-.5.7-.5.3.1.5.5.5.8Zm-1 2.6c0 .4-.3.6-.7.5-.3-.1-.5-.4-.5-.8.1-.3.4-.5.7-.4.4 0 .6.4.5.7Zm-1.1 2.6c-.1.3-.4.5-.7.5-.4-.1-.6-.5-.5-.8 0-.4.3-.6.7-.5.3.1.5.4.5.8Z"/>
  <path fill="#FEFEFE" d="M37.5 37.15s-2.3 3.7-4.7 10.9l4.7-10.9Z"/>
  <path fill="#050505" d="M32.8 48.25h-.1c-.1-.1-.2-.2-.1-.3 2.3-7.1 4.6-10.9 4.6-11 .1-.1.3-.1.4-.1.1.1.1.3.1.4-.1 0-2.3 3.8-4.6 10.8-.1.1-.2.2-.3.2Z"/>
  <path fill="#F0F1F1" d="M39.5 29.75s-.9 3.4-2 7.4l-4.2-5.6 3 1.2-2.8-4.5 6 1.5Z"/>
  <path fill="#050505" fill-rule="evenodd" d="M37.4 37.35c-.066 0-.133-.033-.2-.1l-4.1-5.6c-.1-.1 0-.2 0-.3.1-.1.2-.1.3-.1l2.2 1-2.3-3.9c-.067-.067-.067-.167 0-.3.067-.067.133-.1.2-.1l6.1 1.6c.067 0 .133.034.2.1v.2s-1 3.4-2.1 7.3c-.067.133-.133.2-.2.2h-.1Zm-3.3-5.2 3.2 4.4c.9-3.1 1.7-5.8 1.9-6.6l-5.2-1.3 2.5 4v.3c-.1.1-.2.1-.3.1l-2.1-.9Z" clip-rule="evenodd"/>
  <path fill="#F0F1F1" d="M44.6 31.05s-2.5 1.8-7.1 6.1l8.3.1-2.8-1.4 7.2-.6-5.6-4.2Z"/>
  <path fill="#050505" fill-rule="evenodd" d="M37.4 37.35c-.066 0-.133-.067-.2-.2 0-.067.033-.133.1-.2 4.6-4.3 7.2-6.1 7.2-6.1.133-.067.233-.067.3 0l5.6 4.2c.067.066.067.133 0 .2 0 .133-.067.2-.2.2l-6.3.6 2.1 1c.1 0 .1.2.1.3 0 .1-.1.2-.3.2l-8.4-.2Zm7.2-6c-.5.4-2.8 2.2-6.5 5.5l6.6.1-1.8-.8c-.1-.1-.2-.2-.1-.3 0-.1.1-.2.2-.2l6.5-.6-4.9-3.7Z" clip-rule="evenodd"/>
  <path fill="#050505" d="M51.1 51.35s-2.5.6-4.6-.9c-2.1-1.5.1-.4 1.5-.9s.8-1.7.8-1.7.8-1.6.8-4.2c0 0-2.1-1.1-3.9-2.1-1.7-.9-.9-2.3-.1-1.9.8.4-2.9-2.9-1.3-5.7 1.7-2.8 5.2-.6 5.2-.6l3.1 7.8-1.5 10.2Zm-13.9-20.3s-5.6 1-8.2 6.3c0 0 1-4 2.5-5.7 1.5-1.7 3.2-3.1 3.2-3.1l2.5 2.5Z" opacity=".1" style="mix-blend-mode:multiply"/>
  <path fill="#ED2D2F" d="M58.5 37.75s-.9 3.9-4.1 5.7c0 0-2.9 1.6-5.1-.5-2-1.9-2.5-8.6 4.7-11.3 7.1-2.8 7.1 3.5 4.5 6.1Z"/>
  <path fill="#050505" fill-rule="evenodd" d="M51.6 44.25c-.8-.1-1.7-.4-2.4-1.1-1.2-1.1-1.7-3.3-1.3-5.4.4-1.7 1.6-4.7 6-6.4 3.9-1.5 5.4-.2 5.9.7 1.1 1.6.3 4.4-1 5.8-.2.6-1.2 4.1-4.3 5.8 0 0-1.4.7-2.9.6Zm5.8-13c-.867-.133-1.967.067-3.3.6-4.2 1.6-5.4 4.4-5.7 6-.4 2.1.2 4.1 1.1 5 .7.6 1.4.8 2.1.9 1.4.1 2.7-.5 2.7-.5 3.1-1.8 4-5.6 4-5.6v-.1c1.3-1.3 2.1-3.8 1.1-5.3-.4-.6-1.067-.933-2-1Z" clip-rule="evenodd"/>
  <path fill="#ED2D2F" d="M35 24.75s-5.4 1.5-5.3 10.8c0 0 2.7-4.8 8-6.2l-2.7-4.6Z"/>
  <path fill="#050505" fill-rule="evenodd" d="M29.7 35.85c-.1-.1-.2-.2-.2-.3-.1-4.9 1.4-7.6 2.6-9.1 1.4-1.6 2.8-2 2.8-2 .1 0 .3 0 .3.1l2.7 4.6c.067.067.067.167 0 .3 0 .067-.033.1-.1.1-5.2 1.4-7.8 6.1-7.8 6.1-.067.133-.167.2-.3.2Zm5.2-10.8c-.4.1-1.4.6-2.4 1.8-1.1 1.3-2.4 3.6-2.5 7.8 1-1.4 3.4-4.3 7.3-5.5l-2.4-4.1Z" clip-rule="evenodd"/>
  <path fill="#050505" d="M58 30.35s1.3 1.6.8 5.5c0 0-2.2-.4-4.7 1.7-2.6 2-5.1 4.2-5.7 2.4-.6-1.7-.4-1.8-.4-1.8s-5.7-.1-10.3-2.3c-4.6-2.3-7.7-4.2-7.2-6 .5-1.9 2.2-4.5 2.2-4.5l25.3 5Z" opacity=".2" style="mix-blend-mode:multiply"/>
  <path fill="#B3805F" d="M64 25.25c-4.7 8.4-12.5 14.2-24.5 8.6-13.5-6.3-11.8-14.8-7-23.2 4.8-8.3 15.4-11.2 23.9-6.4 8.4 4.8 12.4 12.6 7.6 21Z"/>
  <path fill="#050505" fill-rule="evenodd" d="M47 36.25c-2.4-.2-4.933-.9-7.6-2.1-5.6-2.7-8.9-5.8-10.2-9.6-.6-2.1-.6-4.3 0-6.9.6-2.1 1.6-4.4 3.1-7.1 2.3-4.1 6.1-7 10.7-8.3 4.6-1.2 9.4-.6 13.5 1.8 4.4 2.4 7.4 5.7 8.9 9.2 1.5 3.9 1.2 8.1-1.1 12.1-2.7 4.7-6 8-9.7 9.7-2.4 1.066-4.933 1.467-7.6 1.2Zm2.1-34c-6.5-.6-13 2.6-16.4 8.6-3.2 5.7-4.1 9.9-3 13.6 1.2 3.6 4.4 6.6 9.9 9.2 12.7 5.9 20.2-1.4 24.2-8.5 2.2-3.9 2.6-8 1.1-11.7-1.4-3.5-4.4-6.6-8.7-9-2.2-1.3-4.6-2-7.1-2.2Z" clip-rule="evenodd"/>
  <path fill="#050505" d="m63.4 9.45-2.4-.2s-10.3-.1-7.9 4.8c2.4 4.9 1.7 6.6 1.3 7.9-.5 1.4-2.5.2-2.5.2 6.1 6.1 1.5 11.6-4.5 12.1-4.5.3-9.7-1.7-11.6-2.6a27.05 27.05 0 0 0 3.4 2.1c11.6 6.3 20.4-.6 25.1-8.9 3.2-5.6 2.5-11-.9-15.4Z" opacity=".1" style="mix-blend-mode:multiply"/>
  <path fill="#050505" d="M63.3 28.15s3.2 0-.7 3.9c-2 2-6.2 3.4-6.2 3.4l6.9-7.3ZM40.6 2.55s-6.5.7-10.6 5.9c-.2.2 2.1-1.5 5.2-2.3m30.1 3.3s7.4 8.3 1.1 18.2c0 0 1.6-7.4-1.1-18.2Z"/>
  <path fill="#050505" d="M58.4 16.05c-.3-.2-3.4 10 .6 12.9 2.9-2.9 2.6-7.2 2.6-7.2.4 3.8-1 6.8-1.8 7.6.7.6 2.6 1.9 4.1 2.2 0 0 12.2-17.1-7.4-28.4 0 0-11.3-7.8-25.6 5.5 0 0-.1.8.7 2.5.6 1.4 5.9-5.5 6.8-4.5"/>
  <path fill="#050505" d="M54.3 2.05c-2-.9-9.8-4.4-20.8 1.9 0 0 22.8-1.1 20.8-1.9Z"/>
  <path fill="#050505" d="M41.8.75s18.2-5.1 25 11.3c6.9 16.3-25-11.3-25-11.3Zm22.7 29.6s-1.7 3.3-4.8 4.9c-3.1 1.6-3.6 1.5-3.6 1.5s1.7-.9 4.1-5"/>
  <path fill="#050505" d="M55.4 3.15s-8.7-4.4-22.8 4.7c0 0-.2-.1.3 1 .3.9.3.9.9 1.5 1.3-1.3 2.6-1.7 7.4-2.6 0 0-5.2 1.1-6.3 3.4 7.4 5.6 15.6 3.3 15.6 3.3-.2-.1-2.7 3.9 2.6 5.3 2.8-1.9 4.2-4.9 4.2-4.9-.3 2.4-1.3 3.8-3 5.3.6.4 2.5.7 3.6.9 0 0 12.9-11.5-2.5-17.9Z"/>
  <path fill="#050505" d="m59.9 15.55-5 8.9s6.8 6.8-3.7 11.4l9.9-2s8.2-7 6-16.7c-2.1-9.7-4.9-5-4.9-5l-2.3 3.4Zm4.7-6.2s-1-4.1-3.2-6.2c-2.1-2.1-2.5-1.8-2.5-1.8s3.4 2.3 3.7 7.1"/>
  <path fill="#050505" d="M67.4 13.45s-1.3-2.2 1.2-2.8c0 0-1.5-1-2.2-.3.3-1.1.4-3.3-2.2-5.7 0 0 .8 2.8-1.1 2.2m-12.6 10.3c-.067 0-.133-.067-.2-.2-.1-.4-1.7-.9-3.2-1.1-.2 0-.3-.2-.2-.3 0-.1.1-.2.3-.2.8.1 3.4.6 3.7 1.5 0 .1-.1.3-.2.3h-.2Zm-2.5 2.6c-.4.8-1.1 1.3-1.7 1.1-.6-.2-.7-1-.3-1.8.4-.8 1.2-1.3 1.7-1.1.6.2.7 1 .3 1.8Z"/>
  <path fill="#FEFEFE" d="M47.5 18.45c-.1.2-.2.2-.4.2-.1 0-.1-.2 0-.3 0-.2.2-.3.3-.2.1 0 .2.2.1.3Z"/>
  <path fill="#050505" d="M35.6 14.25c-.2.8-.9 1.4-1.5 1.3-.6 0-.8-.7-.5-1.5.2-.8.9-1.4 1.5-1.3.6.1.8.8.5 1.5Z"/>
  <path fill="#FEFEFE" d="M35 13.25c0 .1-.2.2-.3.2-.1 0-.2-.1-.1-.3 0-.1.2-.2.3-.2.1 0 .2.1.1.3Z"/>
  <path fill="#9A724F" d="M40.2 20.15s-1.3 1-2.5.6c-1.2-.5-1.2-2.3-1.2-2.3s1 1.3 1.6 1.5c.6.2 2.1.2 2.1.2Z"/>
  <path fill="#050505" d="M37.9 20.15c-.3-.1-.6-.2-.8-.4l-.6-.9c-.1-.1-.1-.3.1-.4.1-.1.3 0 .4.1l.5.8c.2.2.6.3.9.3l1.8.1c.1 0 .3.1.2.3 0 .1-.1.2-.2.2h-1.8c-.2 0-.367-.034-.5-.1Zm3.6 5.3s-2.7.1-3.9-.3c-1.3-.4-1.5 2.2.1 3.6 1 1 3 3.1 7.6 2.6 4.8-.4 6-5 4.1-6.6-2-1.6-4.9.3-7.9.7Z"/>
  <path fill="#050505" d="M49.5 31.05s-1.6 1.8-4.9 1.4c0 0 3.2 1.9 4.9-1.4Z" opacity=".1" style="mix-blend-mode:multiply"/>
  <path fill="#B3805F" d="M67 32.65s2.8-1 3.5-3.2c.7-2.2-2.7-5.5-4.8-3.6-1.8 1.7-2.1 3.2-1.7 3.8.4.6 3 3 3 3Z"/>
  <path fill="#050505" fill-rule="evenodd" d="M66.9 32.85h-.1c-.1-.1-2.6-2.4-3-3-.6-.8-.1-2.5 1.7-4.2.9-.8 2.1-.9 3.3-.1 1.3.8 2.4 2.5 2 4-.8 2.2-3.6 3.3-3.8 3.3h-.1Zm.4-7.3c-.5-.1-1 0-1.4.5-1.8 1.6-2.1 3-1.7 3.5.3.4 2 2.1 2.8 2.8.6-.3 2.7-1.2 3.3-3 .3-1.2-.6-2.7-1.7-3.4-.3-.1-.8-.4-1.3-.4Z" clip-rule="evenodd"/>
  <path fill="#050505" d="M66.1 27.85s1.4.7 1.6-.2c.3-.8.5-.5.5-.5s.4.9-.2 1.6c-.7.8-2.2 0-1.9-.9Z" opacity=".1" style="mix-blend-mode:multiply"/>
  <path fill="#F1F1F1" d="M52.9 40.25c-1.2-3.3 1.6-6.8 1.6-6.8l9.2-6.3 4.6 6-10 6.8s-4.1 3.7-5.4.3Z"/>
  <path fill="#050505" fill-rule="evenodd" d="M54.5 41.95c-.067 0-.167-.033-.3-.1-.667-.133-1.167-.633-1.5-1.5-1.3-3.4 1.5-6.9 1.6-7l.1-.1 9.1-6.3c.1-.1.3-.1.4 0l4.6 6.1c.067 0 .067.067 0 .2 0 .067-.033.1-.1.1l-10 6.8c-.2.2-2.2 1.9-3.9 1.8Zm-1.3-1.8c.2.733.567 1.133 1.1 1.2 1.6.4 3.8-1.6 3.8-1.6l9.8-6.6-4.3-5.7-8.9 6.2c-.3.3-2.6 3.5-1.5 6.5Z" clip-rule="evenodd"/>
  <path fill="#050505" d="m65 31.25-2.2-3.4-8.1 5.6s-2.7 5.3-1.8 7.1c.9 1.8 3 1 5.4-.9 2.4-2-1.6-2.2 0-4.5 1.7-2.3 4.3-3.3 4.3-3.3s1 1.8 1.8 1.4c.8-.3 1.3-1.1.6-2Z" opacity=".1" style="mix-blend-mode:multiply"/>
  <path fill="#050505" d="m50.3 70.25.1-.7c0-.2.033-.4.1-.6 0-.2.1-.5.3-.9.133-.333.3-.633.5-.9.267-.2.6-.4 1-.6.467-.133 1-.166 1.6-.1 1.2.1 2.1.7 2.5 1.3.2.267.333.6.4 1s.1.7.1.9v.7l-.1.1c-.067.734-.366 1.467-.9 2.2-.6.734-1.233 1.367-1.9 1.9l2.5.3-.4 2.7-6.3-.8.2-2.4c1.9-1.3 3-2.4 3.5-3 .267-.333.433-.6.5-.8.067-.133.1-.3.1-.5 0-.3.1-.5-.1-.7-.067-.133-.167-.2-.3-.2-.4-.1-.5.2-.6.8l-.1.7-2.7-.4Z"/>
  <path fill="#050505" fill-rule="evenodd" d="M62.5 67.45c1.4.2 2.367.834 2.9 1.9.533 1.067.7 2.434.5 4.1-.133 1.6-.6 2.867-1.4 3.8-.733.934-1.8 1.3-3.2 1.1-1.4-.133-2.333-.733-2.8-1.8-.533-1.066-.733-2.433-.6-4.1.2-1.666.667-2.933 1.4-3.8.8-.933 1.867-1.333 3.2-1.2Zm-.3 2.8c-.267-.066-.467-.033-.6.1a1.51 1.51 0 0 0-.5.6l-.2.8c-.066.267-.1.6-.1 1-.067.468-.1.8-.1 1v.9c.067.267.167.5.3.7.133.134.333.234.6.3.267 0 .5-.033.7-.1.2-.133.333-.366.4-.7.133-.266.233-.533.3-.8.067-.266.1-.6.1-1 .067-.4.1-.733.1-1v-.8c-.067-.332-.167-.6-.3-.8-.133-.133-.367-.2-.7-.2Z" clip-rule="evenodd"/>
  <path fill="#FEFEFE" d="m51.5 69.25.1-.7c0-.266.033-.5.1-.7 0-.133.1-.4.3-.8.133-.4.3-.7.5-.9.267-.266.633-.467 1.1-.6.4-.2.9-.266 1.5-.2 1.3.2 2.1.8 2.5 1.3.2.334.333.7.4 1.1.067.4.1.7.1.9v.7c-.133.734-.467 1.467-1 2.2a8.563 8.563 0 0 1-1.9 1.9l2.5.3-.3 2.7-6.4-.7.3-2.5c1.8-1.3 3-2.3 3.4-3 .267-.333.433-.567.5-.7.067-.2.1-.367.1-.5.1-.4.1-.5-.1-.8-.067-.066-.167-.1-.3-.1-.4-.1-.5.2-.6.8l-.1.6-2.7-.3Z"/>
  <path fill="#FEFEFE" fill-rule="evenodd" d="M63.8 66.45c1.4.134 2.367.767 2.9 1.9.467 1.067.633 2.4.5 4-.2 1.667-.667 2.967-1.4 3.9-.8.867-1.9 1.234-3.3 1.1-1.333-.2-2.267-.833-2.8-1.9-.533-1.066-.733-2.433-.6-4.1.2-1.6.7-2.866 1.5-3.8.733-.933 1.8-1.3 3.2-1.1Zm-.3 2.7c-.333 0-.567.034-.7.1-.2.134-.333.367-.4.7a3.907 3.907 0 0 0-.3.8c0 .267-.033.6-.1 1s-.1.734-.1 1v.8c.067.334.167.567.3.7.133.2.367.3.7.3.267.067.467.034.6-.1.2-.133.367-.333.5-.6l.2-.8c.067-.266.1-.6.1-1 .067-.466.1-.8.1-1v-.9a2.221 2.221 0 0 0-.3-.7c-.133-.133-.333-.233-.6-.3Z" clip-rule="evenodd"/>
  <path fill="#FDBC0F" d="M31.1 102.45c.3 0 .5.2.5.5s-.3.5-.5.5c-.3 0-.5-.3-.5-.6 0-.2.3-.5.5-.4Zm26.2 1.5c.3.1.5.3.5.6s-.3.5-.6.5c-.3-.1-.5-.3-.4-.6 0-.3.2-.5.5-.5Zm-47.1-28c.3 0 .5.2.5.5s-.3.5-.5.4c-.3 0-.5-.2-.5-.5s.3-.5.5-.4Zm7.2-9.9c.3 0 .5.2.5.5-.1.3-.3.5-.6.4-.2 0-.4-.2-.4-.5 0-.2.3-.4.5-.4Zm4.2 41.7c.2 0 .4.2.3.4 0 .2-.2.4-.4.4s-.4-.2-.4-.5c0-.2.2-.4.5-.3Zm28.3-24.1c.3 0 .5.2.5.5-.1.3-.3.5-.6.5s-.5-.3-.5-.6c.1-.3.3-.5.6-.4Zm.7-20c.3 0 .5.2.5.5-.1.3-.3.5-.6.5s-.5-.3-.5-.6c.1-.2.3-.5.6-.4ZM32 70.35c.2 0 .4.3.4.5 0 .3-.2.5-.5.5-.3-.1-.5-.3-.4-.6 0-.2.2-.4.5-.4Zm13.9 35.1c.2 0 .3.1.3.3 0 .2-.2.3-.3.3-.2 0-.3-.2-.3-.3 0-.2.1-.3.3-.3Zm1.1-33.5c.2 0 .3.2.3.3 0 .2-.2.3-.3.3-.2 0-.3-.2-.3-.3 0-.2.2-.3.3-.3Zm-11.2 36.9c.2.1.3.2.3.4-.1.1-.2.2-.4.2-.1 0-.2-.1-.2-.3 0-.1.1-.3.3-.3Zm24.7 2.1c.1 0 .3.2.3.3-.1.2-.2.3-.4.3-.1 0-.2-.1-.2-.3 0-.2.1-.3.3-.3Zm3.8-22.7c.1 0 .2.1.2.3 0 .1-.1.3-.3.2-.1 0-.3-.1-.3-.3.1-.1.2-.3.4-.2Zm-37.7-26.2c.2 0 .3.2.3.3 0 .2-.2.3-.3.3-.2 0-.3-.1-.3-.3 0-.2.1-.3.3-.3Zm14.4 3.4c.1 0 .2.2.2.3 0 .2-.1.3-.3.3-.1 0-.3-.2-.2-.3 0-.2.1-.3.3-.3Zm-28.2 35.3c.1 0 .3.1.2.3 0 .1-.1.3-.3.3-.1-.1-.2-.2-.2-.4 0-.1.1-.2.3-.2Zm54.8-20.1c.2.1.3.2.3.4 0 .1-.2.2-.3.2-.2 0-.3-.1-.3-.3 0-.2.2-.3.3-.3Zm-9.1 1.9c.1 0 .2.1.2.3 0 .2-.1.3-.3.3-.1 0-.3-.2-.3-.3.1-.2.2-.3.4-.3Z"/>
</svg>
