<svg xmlns="http://www.w3.org/2000/svg" width="93" height="83" fill="none" viewBox="0 0 93 83">
  <path fill="#512E8D" d="m19.6 11.903 62.7-3.4 4.4 64.1-63 3.2-4.1-63.9Z"/>
  <path fill="#2D1B51" d="m86.7 72.603-63 3.2-7.8 6.3 60.7-3.3 10.1-6.2Z"/>
  <path fill="#7C65AC" d="m19.6 11.903-7.7 9.4 4 60.8 7.8-6.3-4.1-63.9Z"/>
  <mask id="a" width="13" height="72" x="11" y="11" maskUnits="userSpaceOnUse" style="mask-type:luminance">
    <path fill="#fff" d="m19.58 11.933-7.68 9.37 3.99 60.82 7.83-6.31-4.14-63.88Z"/>
  </mask>
  <g mask="url(#a)">
    <path stroke="#512E8D" stroke-width=".4" d="m11.8-38.598-18.5 108.6M13.9-34.697l-18.5 108.6M16-30.797l-18.6 108.7M18-26.797-.5 81.803M20.1-22.898 1.6 85.702M22.2-18.997 3.7 89.703m20.6-104.7L5.8 93.603M26.4-11.098 7.9 97.502M28.5-7.197l-18.6 108.7m20.6-104.7L12 105.403M32.6.703 14.1 109.302M34.7 4.603 16.2 113.302M36.8 8.603l-18.5 108.6m20.6-104.7-18.5 108.6M41 16.402l-18.5 108.7m24.7-96.899-43.7-82.6m42.8 87.8-43.7-82.6m42.9 87.8-43.8-82.6m42.9 87.7L.8-38.797m42.9 87.7-43.8-82.6m42.9 87.8L-1-28.497m42.9 87.8-43.7-82.6M41 64.402l-43.7-82.5m42.9 87.701-43.8-82.6m42.9 87.799-43.8-82.6m42.9 87.8-43.8-82.6m42.9 87.701-43.7-82.5m42.8 87.699-43.7-82.6m42.9 87.8L-8 12.902m42.9 87.801-43.8-82.6M34 105.802l-43.8-82.6m42.9 87.8-43.7-82.6m42.8 87.801-43.7-82.6m42.8 87.7-43.7-82.5m42.9 87.699-43.8-82.6m42.9 87.801-43.8-82.6m42.9 87.8-43.8-82.6"/>
  </g>
  <path fill="#ED4997" d="m92.9 57.203-92.4 7.6-.5-5.1 92.4-7.2.5 4.7Zm-10.4-10.4-68.6 6-.5-4.8 68.9-6 .2 4.8Z"/>
  <path fill="#FEFEFE" fill-rule="evenodd" d="M28.2 35.602c1-.1 2.1-.1 1.8 3.1-.2 2.9-1.1 3.1-2.6 3.2h-.6l.5-6.3h.9Zm-.2.8-.3 4.8c1.3 0 1.4-1.3 1.5-2.4 0-1 .2-2.6-1.2-2.4Z" clip-rule="evenodd"/>
  <path fill="#FEFEFE" d="M31.3 41.602h-.9l.5-6.2.8-.1-.4 6.3Zm.1-6.5-.4-.2.7-1.3.6.3-.9 1.2Z"/>
  <path fill="#FEFEFE" fill-rule="evenodd" d="m34.1 35.102.8 6.2h-.8l-.1-1.2-1.3.1-.3 1.3h-.8l1.8-6.3.7-.1Zm-.3 3.5-.1-2.3-.7 3.2h.9l-.1-.9Zm4.3-3.8c1-.1 2.1-.1 1.9 3.1-.2 2.9-1.2 3.1-2.7 3.2h-.6l.5-6.3h.9Zm-.1.8-.4 4.8c1.4 0 1.4-1.3 1.5-2.4.1-1 .3-2.6-1.1-2.4Z" clip-rule="evenodd"/>
  <path fill="#FEFEFE" d="m43.1 34.402-.1.7-1.4.1-.1 2 1.2-.1v.7l-1.3.1-.1 2.1 1.3-.1v.8l-2.2.1.5-6.2 2.2-.2Zm2.7-.199-.4 5.5 1.4-.1-.1.7-2.2.2.5-6.3h.8Z"/>
  <path fill="#FEFEFE" fill-rule="evenodd" d="m49 33.902.9 6.2h-.8l-.2-1.2-1.2.1-.3 1.3h-.8l1.8-6.4h.6Zm-.3 3.5-.1-2.2h-.1l-.7 3.2 1-.1-.1-.9Z" clip-rule="evenodd"/>
  <path fill="#FEFEFE" d="m18.6 48.103-.1.7 3-.2-.1 2-3 .2v.7l3.2-.3-.1 2.2-5.5.4.4-7.7 5.6-.4-.2 2.1-3.2.3Z"/>
  <path fill="#FEFEFE" fill-rule="evenodd" d="m22.6 53.303.4-7.7 3.1-.3c1.067-.067 1.933.233 2.6.9s.967 1.567.9 2.7c0 1.133-.4 2.067-1.2 2.8-.733.8-1.667 1.267-2.8 1.4l-3 .2Zm2.6-5.8-.2 3.4.8-.1c.4 0 .767-.167 1.1-.5.267-.333.4-.766.4-1.3.067-.466-.033-.833-.3-1.1-.2-.333-.533-.466-1-.4h-.8Z" clip-rule="evenodd"/>
  <path fill="#FEFEFE" d="M33.5 52.603c-.1 0-.2 0-.6-.1-.5 0-.8-.1-1.3-.4-.5-.2-.8-.6-1-1.3-.133-.334-.167-.734-.1-1.2l.2-4.6 2.3-.2-.3 4.7s0 .1.1.3c0 .133.034.233.1.3.2.2.4.3.7.3.267 0 .5-.1.7-.3.134-.2.233-.367.3-.5v-.3l.3-4.7 2.3-.2-.3 4.7c0 .9-.3 1.6-.7 2.1-.2.266-.433.466-.7.6-.7.5-1.5.7-1.8.7l-.2.1Zm12.4-4.4c-.2 1-.7 1.833-1.5 2.5-.8.733-1.7 1.133-2.7 1.2-1.133.066-2.033-.233-2.7-.9-.733-.733-1.067-1.667-1-2.8a4.33 4.33 0 0 1 1.3-2.9c.8-.867 1.767-1.334 2.9-1.4 1-.067 1.867.166 2.6.7.667.6 1.067 1.4 1.2 2.4l-2.4.2c-.133-.4-.333-.7-.6-.9a1.082 1.082 0 0 0-.9-.2c-.467 0-.867.2-1.2.6-.333.4-.533.833-.6 1.3 0 .533.134.966.4 1.3.334.333.733.466 1.2.4.334 0 .633-.134.9-.4.333-.267.567-.567.7-.9l2.4-.2Z"/>
  <path fill="#FEFEFE" fill-rule="evenodd" d="m51.4 43.303 2.4 7.5-2.5.2-.2-.8-2.5.2-.3.8-2.5.2 3.3-7.9 2.3-.2Zm-2 4.9 1.1-.1-.4-1.6-.7 1.7Z" clip-rule="evenodd"/>
  <path fill="#FEFEFE" d="M62.2 46.903c-.266 1-.8 1.833-1.6 2.5-.733.733-1.6 1.133-2.6 1.2-1.133.067-2.066-.233-2.8-.9-.733-.733-1.066-1.667-1-2.8a4.33 4.33 0 0 1 1.3-2.9c.8-.867 1.767-1.333 2.9-1.4 1-.067 1.867.166 2.6.7.667.6 1.067 1.4 1.2 2.4l-2.4.2c-.133-.4-.333-.7-.6-.9a1.083 1.083 0 0 0-.9-.2c-.467 0-.866.2-1.2.6-.333.4-.5.833-.5 1.3-.067.533.067.967.4 1.3.267.333.633.467 1.1.4.334 0 .633-.133.9-.4.333-.267.567-.567.7-.9l2.5-.2Zm.6 3.2.5-7.8 2.2-.1-.4 7.7-2.3.2Z"/>
  <path fill="#FEFEFE" fill-rule="evenodd" d="M70.6 41.603c1.134-.067 2.067.233 2.8.9.733.733 1.067 1.666 1 2.8a4.331 4.331 0 0 1-1.3 2.9c-.8.866-1.766 1.333-2.9 1.4-1.133.066-2.067-.233-2.8-.9-.733-.734-1.067-1.667-1-2.8.067-1.067.5-2.033 1.3-2.9s1.767-1.334 2.9-1.4Zm-.3 5.8c.467 0 .867-.2 1.2-.6.333-.4.5-.833.5-1.3.067-.533-.067-.967-.4-1.3-.266-.334-.633-.467-1.1-.4-.467 0-.867.2-1.2.6-.333.4-.5.833-.5 1.3-.067.533.067.967.4 1.3.267.333.633.466 1.1.4Zm1.5-6.4-2.3.2 1.2-2.2 2.6-.2-1.5 2.2Z" clip-rule="evenodd"/>
  <path fill="#FEFEFE" d="m82.5 40.803-.4 7.7-2.1.2-2.3-3.2-.2 3.4-2.2.1.4-7.7 2.1-.1 2.2 3.1.2-3.3 2.3-.2Z"/>
  <path fill="#FEFEFE" fill-rule="evenodd" d="m7.7 57.503 2.3 7.5-2.4.2-.2-.8-2.5.2-.3.8-2.5.2 3.3-7.9 2.3-.2Zm-2 4.9 1-.1-.4-1.6-.6 1.7Z" clip-rule="evenodd"/>
  <path fill="#FEFEFE" d="M16.4 59.703c-.266-.334-.533-.567-.8-.7-.266-.067-.6-.067-1 0-.466 0-.867.2-1.2.6-.333.4-.533.833-.6 1.3 0 .533.134.967.4 1.3.334.333.734.466 1.2.4.267 0 .534-.067.8-.2.2-.133.334-.267.4-.4l.1-.2-1.4.1.1-1.8 3.9-.3-.1 1.6c-.1.8-.5 1.6-1 2-.2.267-.433.467-.7.6-.267.2-.533.333-.8.4-.2.133-.433.2-.7.2a3.87 3.87 0 0 0-.5.2h-.3c-1.133.066-2.033-.233-2.7-.9-.733-.733-1.067-1.667-1-2.8a4.33 4.33 0 0 1 1.3-2.9c.8-.867 1.767-1.334 2.9-1.4 1.534-.134 2.667.4 3.4 1.6l-1.7 1.3Z"/>
  <path fill="#FEFEFE" fill-rule="evenodd" d="m25.9 63.703-2.8.2-1.4-1.8h-.2l-.1 2-2.3.1.4-7.7 3.2-.2h.6c.4.1.7.1 1.2.4.4.2.7.6.9 1.2.134.333.167.666.1 1-.067 1.133-.533 1.967-1.4 2.5l1.8 2.3Zm-4.2-5.2-.1 1.5.9-.1c.4 0 .6-.233.6-.7.1-.5-.2-.8-.5-.7h-.9Zm8.7-3c1.134-.066 2.067.233 2.8.9.734.733 1.067 1.667 1 2.8a4.33 4.33 0 0 1-1.3 2.9c-.8.867-1.767 1.334-2.9 1.4-1.133.134-2.066-.167-2.8-.9-.733-.733-1.066-1.667-1-2.8.067-1.067.5-2.033 1.3-2.9.8-.8 1.767-1.266 2.9-1.4Zm-.3 5.8c.467 0 .867-.2 1.2-.6.333-.4.534-.833.6-1.3 0-.533-.133-.967-.4-1.3a1.344 1.344 0 0 0-1.2-.4c-.467 0-.867.2-1.2.6-.333.4-.5.833-.5 1.3-.067.533.067.967.4 1.3.267.334.634.467 1.1.4Zm5.4-6.1 3.2-.2h.6c.4.1.7.1 1.2.4.4.2.7.6.9 1.2.133.333.167.7.1 1.1 0 .7-.3 1.4-.7 1.8l-.6.6c-.7.4-1.4.6-1.7.6l-.2.1h-.8l-.1 2-2.3.2.4-7.8Zm3 1.9h-.9l-.1 1.5.9-.1c.4 0 .633-.234.7-.7 0-.5-.2-.8-.6-.7Z" clip-rule="evenodd"/>
  <path fill="#FEFEFE" d="M44.5 56.703v.7l3-.2-.1 2-3 .2-.1.6 3.3-.2-.1 2.2-5.6.4.5-7.7 5.5-.5-.1 2.2-3.3.3Zm12.1 1.3c-.267 1-.767 1.833-1.5 2.5-.8.733-1.7 1.133-2.7 1.2-1.133.066-2.066-.234-2.8-.9-.733-.734-1.067-1.667-1-2.8.067-1.067.5-2.034 1.3-2.9.867-.867 1.867-1.334 3-1.4 1-.067 1.834.2 2.5.8.733.533 1.167 1.3 1.3 2.3l-2.5.2c-.066-.4-.233-.7-.5-.9-.333-.2-.666-.267-1-.2-.4 0-.8.2-1.2.6-.333.4-.5.833-.5 1.3-.067.533.067.966.4 1.3.267.333.633.467 1.1.4.333 0 .667-.134 1-.4.267-.2.467-.5.6-.9l2.5-.2Zm3.8 3.1c-.1 0-.2 0-.7-.1-.4 0-.8-.1-1.2-.4-.5-.2-.8-.6-1-1.3-.133-.334-.2-.734-.2-1.2l.3-4.6 2.3-.2-.3 4.7s0 .1.1.3c0 .133.033.233.1.3.1.2.4.3.7.3.267 0 .467-.1.6-.3.2-.2.3-.367.3-.5l.1-.3.3-4.7 2.3-.2-.3 4.7c-.1.9-.4 1.6-.8 2.1-.2.266-.4.466-.6.6-.7.5-1.5.7-1.9.7l-.1.1Z"/>
  <path fill="#FEFEFE" fill-rule="evenodd" d="m69.6 52.503 2.3 7.5-2.4.2-.3-.8-2.4.2-.3.8-2.5.2 3.3-7.9 2.3-.2Zm-2 4.9 1-.1-.4-1.6-.6 1.7Zm11.9 2-2.8.2-1.5-1.8H75l-.1 1.9-2.3.2.5-7.7 3.1-.2c.1 0 .2-.1.6 0 .4 0 .8.1 1.2.4.5.2.8.5 1 1.2.067.267.1.6.1 1-.067 1.066-.533 1.9-1.4 2.5l1.8 2.3Zm-4.3-5.2v1.5l.9-.1c.4-.067.6-.334.6-.8 0-.4-.2-.7-.6-.7l-.9.1Z" clip-rule="evenodd"/>
  <path fill="#FEFEFE" d="m80.1 59.303.5-7.7 2.3-.2-.5 7.7-2.3.2Z"/>
  <path fill="#FEFEFE" fill-rule="evenodd" d="m88.7 51.003 2.4 7.4-2.5.2-.2-.7-2.5.2-.3.8-2.5.2 3.3-8 2.3-.1Zm-2 4.9 1.1-.1-.5-1.5-.6 1.6Z" clip-rule="evenodd"/>
  <path fill="#B16669" d="M58.2 33.703c.2 1.8 1.6 3.5 3.4 4 1.8.5 3.8-.1 5-1.5.8 1.2 2.4 2 3.9 1.6 1.5-.3 2.7-1.6 2.9-3.1.6.9 2 1.3 3.2 1.2 1.3-.2 2.5-1.3 2.5-2.5 0-1-.3-1.6-.6-1.8.8.1 1.7-.4 2.1-1.1.5-1.1.3-2.5 0-2.9-.9-1.4-1.9-1.7-3.5-1.6.3-1.4-.1-3.2-1.3-3.9-1.3-.7-2.8-.6-3.9.3.1-1-.6-2-1.5-2.4-1.4-.6-2.7-.6-3.9 0-.9.4-1.3 1-1.5 1.7-.9-2-4-.9-3.6 1.1-.8-.9-2.1-1.5-3.3-1.5-.9 0-1.8.5-2.4 1.2-.5.6-.9 1.5-.9 2.3 0 .7.2 1.3.6 2-1.2.2-2.2.8-2.8 1.8-.9 1.5-.7 3.3.7 4.4 1.4 1 3.3.8 4.9.7Z"/>
  <path fill="#934649" d="M79.1 33.803c-.6 1.1-1.8 1.3-2.7 1.2-1.6 0-2.6-.9-3.3-2.3 0 .7 0 3.2-2.6 3.8-2 .5-3.7-1.3-3.8-2.6-1 1.4-3.2 1.9-4.7 1.1-1.6-.9-2.7-2.9-2.1-4.5-1.2.4-2 .4-3.2.4-1.2 0-2.4-.4-3.1-1.4-.4-.4-.5-1.1-.4-1.7l-.6.8c-.9 1.5-.7 3.3.7 4.4 1.4 1 3.3.8 4.9.7.2 1.8 1.6 3.5 3.4 4 1.8.5 3.8-.1 5-1.5.8 1.2 2.4 2 3.9 1.6 1.5-.3 2.7-1.6 2.9-3.1.6.9 2 1.3 3.2 1.2 1.1-.2 2.2-1 2.5-2.1Z"/>
  <path fill="#AB6BAC" d="M65.9 16.703c.1-1.1 0-3.1-1.9-4.2-2-1.1-4.6-1.2-4.8-1-.2.2.2 3.1 2 4.6 2 1.7 4.1.6 4.7.6Z"/>
  <path fill="#6FAD48" d="M65.9 16.703c.1-1.1 0-3.1-1.9-4.2-2-1.1-4.6-1.2-4.8-1-.2.2.2 3.1 2 4.6 2 1.7 4.1.6 4.7.6Z"/>
  <path fill="#833E41" d="M68.2 19.003c-.6-.9-2.2-2.7-3-3.4-.7-.6-1.5-1.2-2.4-1.6-.2 0-.1.2 0 .2.7.5 1.4 1.1 2 1.7.7.6 2.2 2.5 2.6 3.3.1.2.4.4.7.3.2-.1.2-.3.1-.5Z"/>
  <path fill="#AB6BAC" d="M69.3 15.103c-1.7-1.8-3.2-5.2-.5-8.9 2.8-3.7 8.7-6.3 9.2-6.2.5.2 1.3 7.1-1.4 11.8-2.5 4.5-6 3-7.3 3.3Z"/>
  <path fill="#7FC356" d="M69.3 15.103c-1.7-1.8-3.2-5.2-.5-8.9 2.8-3.7 8.7-6.3 9.2-6.2.5.2 1.3 7.1-1.4 11.8-2.5 4.5-6 3-7.3 3.3Z"/>
  <path fill="#833E41" d="M66.9 23.402c-.1-2.9.6-5.3 1.8-8.5.4-1.3.9-2.3 1.6-3.6.7-1.3 2.1-3.3 2.8-3.8 0 0 .4-.2.3-.1-.7 1.1-1.6 2.8-2.2 4.1-.7 1.5-1.1 2.5-1.5 3.9-1 3.1-1.4 5.3-1.7 8.1 0 .6-1.1.4-1.1-.1Z"/>
  <path fill="#934649" d="m71.3 22.602-.4-.2c-.2 0-.367-.033-.5-.1-.4-.066-.8-.066-1.2 0-.4.067-.767.2-1.1.4-.3.1-.6.3-.8.6-.533-.2-1.133-.3-1.8-.3a3.33 3.33 0 0 0-1.4.1c-.4.1-.8.2-1.1.4-.1.1 0 .2 0 .2.5 0 .9-.2 1.4-.2.4-.066.8-.066 1.2 0 .8.1 1.6.3 2.3.7.4.2.7-.3.4-.5l-.4-.2c.133-.066.2-.133.2-.2.133-.066.234-.133.3-.2.4-.2.8-.366 1.2-.5.5-.1 1.1-.1 1.7.1v-.1Z"/>
  <path fill="#050505" fill-rule="evenodd" d="m31.1 16.303-1.8 3.4c1.733.067 2.7 1.3 2.9 3.7.067 1.133-.233 2.1-.9 2.9-.667.8-1.567 1.233-2.7 1.3-1.133.066-2.067-.234-2.8-.9-.8-.733-1.233-1.633-1.3-2.7-.067-.867.134-1.733.6-2.6l2.7-4.9 3.3-.2Zm-2.9 6.3c-.466 0-.7.366-.7 1.1.067.733.367 1.1.9 1.1.534-.067.767-.467.7-1.2-.067-.734-.366-1.067-.9-1Z" clip-rule="evenodd"/>
  <path fill="#FEFEFE" fill-rule="evenodd" d="m32.1 14.803-1.8 3.4c1.733.133 2.7 1.367 2.9 3.7.067 1.133-.233 2.1-.9 2.9-.667.8-1.566 1.233-2.7 1.3-1.133.066-2.067-.234-2.8-.9-.8-.733-1.233-1.633-1.3-2.7-.067-.867.134-1.733.6-2.6l2.7-4.9 3.3-.2Zm-2.9 6.3c-.466 0-.7.366-.7 1.1.067.733.367 1.1.9 1.1.534-.067.767-.467.7-1.2-.067-.734-.366-1.067-.9-1Z" clip-rule="evenodd"/>
</svg>
