<svg xmlns="http://www.w3.org/2000/svg" width="106" height="77" fill="none" viewBox="0 0 106 77">
  <path fill="#0E7A96" d="m65.3 31.564-31.9-.5-9.3-14.6-3.7 2.7 3.5 56.9 75.1-5 2.4-3.7-19.1-12.2-17-23.6Z"/>
  <path fill="#28C5EF" d="m99.1 11.364-75 5.1 3.6 56.2 77.4-5.5-6-55.8Z"/>
  <path fill="#086675" d="m27.7 72.664-3.8 3.4 78.8-5.2 2.4-3.7-77.4 5.5Z"/>
  <path fill="#050505" d="M94.2 61.964c0 1.9-6.3 3.4-14 3.4-7.8 0-14.1-1.5-14.1-3.4 0-1.8 6.3-3.3 14.1-3.3 7.7 0 14 1.5 14 3.3Z" opacity=".2"/>
  <path fill="#B98453" stroke="#050505" stroke-linecap="round" stroke-width=".5" d="M63.6 40.664c.1.1.8.6 1.8-.2 1-.7 1.1-1.1 1.1-1.6s-1.1-1.6-1.1-1.6-1.1-.9-3.4-.1c0 0-1.1.4-.8.7.2.3 1.7 2.3 1.8 2.5.1.3.4.1.6.3Z"/>
  <path fill="#B98453" d="M63 39.964c-1 .5-1.2.8-1.2.8-.2.1-.3.4-.2.6.2.3.4.3.7.2.4-.2 1.2-.7 1.6-1"/>
  <path stroke="#050505" stroke-linecap="round" stroke-width=".5" d="M63 39.964c-1 .5-1.2.8-1.2.8-.2.1-.3.4-.2.6.2.3.4.3.7.2.4-.2 1.2-.7 1.6-1"/>
  <path fill="#B98453" d="M62.5 38.964c-.9.5-1.6 1.1-1.6 1.1-.3.2-.3.5-.2.7.1.2.4.3.6.2.2-.1.2-.2.7-.5 0 0 .4-.3.9-.5"/>
  <path stroke="#050505" stroke-linecap="round" stroke-width=".5" d="M62.5 38.964c-.9.5-1.6 1.1-1.6 1.1-.3.2-.3.5-.2.7.1.2.4.3.6.2.2-.1.2-.2.7-.5 0 0 .4-.3.9-.5"/>
  <path fill="#B98453" d="M61.7 39.464c-.7.4-.9.6-1.2.7-.2.1-.5 0-.6-.2-.1-.2-.1-.5.2-.6 0 0 .7-.6 1.6-1.1"/>
  <path stroke="#050505" stroke-linecap="round" stroke-width=".5" d="M61.7 39.464c-.7.4-.9.6-1.2.7-.2.1-.5 0-.6-.2-.1-.2-.1-.5.2-.6 0 0 .7-.6 1.6-1.1"/>
  <path fill="#B98453" d="M63.4 36.864c-2.7.5-3.9 1.6-3.9 1.6-.2.1-.3.5-.2.7.1.2.4.4.6.2.8-.4 1.9-1.1 2.1-1"/>
  <path stroke="#050505" stroke-linecap="round" stroke-width=".5" d="M63.4 36.864c-2.7.5-3.9 1.6-3.9 1.6-.2.1-.3.5-.2.7.1.2.4.4.6.2.8-.4 1.9-1.1 2.1-1"/>
  <path fill="#050505" d="M64 40.364c.1.1.8.2.5-.4-.1-.5-.5-1.3-.9-1.7-.6-.7-1.1-1-.8-1.2.2-.2 1.3-.3 1.8-.2.6.1 1.4 1 1.6 1.3.3.4.4 1.1 0 1.6-.4.6-1.3 1.1-1.7 1-.5-.1-.5-.4-.5-.4Zm-1.8-2.4s-.6 0-1 .2c-.5.2-1.6.7-1.3 1l.2.2s-.1.3.1.5.8 0 .8 0-.2.5.1.6c.4.2.5 0 .5 0s-.1.4.2.6c.3.1.8.1 1.1-.1.4-.1 1-.5 1-.5s-.4-.1-.7-.5c-.3-.5-.6-.9-.6-.9l-.4-1.1Z" opacity=".2"/>
  <path fill="#B98453" d="M62.8 39.064s-.1 0-.7.2c-.5.2-.6.3-.9.3-.3-.1-.4-.3-.5-.6 0-.2.2-.4.6-.5.4-.2.6-.2.9-.4 0 0 .3-.4.2-.6"/>
  <path stroke="#050505" stroke-linecap="round" stroke-width=".5" d="M62.8 39.064s-.1 0-.7.2c-.5.2-.6.3-.9.3-.3-.1-.4-.3-.5-.6 0-.2.2-.4.6-.5.4-.2.6-.2.9-.4 0 0 .3-.4.2-.6"/>
  <path fill="#F3F6F7" stroke="#050505" stroke-linecap="round" stroke-linejoin="round" stroke-width=".5" d="M76.9 25.064c3.4.7 1.7 4.2 1.7 4.2s-.9 3.6-3.6 6.4c-3 2.9-5.9 4.3-7.5 4.9-.8.4-1.4.3-1.4.3l-1.6-4.2s-.2-.5 1.1-1c.8-.3 2-1 3.6-2.1 3.2-2.4 3.5-4.4 3.9-5.7.3-1.3 1.8-3.3 3.8-2.8Z"/>
  <path fill="#0D0E10" d="M75 35.664c2.7-2.8 3.6-6.4 3.6-6.4s1.3-2.7-.6-3.8c.3 1.2-.4 2.6-.4 2.6s-.8 3.6-3.6 6.4c-2.9 2.9-5.8 4.3-7.5 4.9-.4.2-.8.1-1.1-.1l.5 1.3s.8.4 1.6 0c1.6-.6 4.5-2 7.5-4.9Z" opacity=".2"/>
  <path fill="#F3F6F7" stroke="#050505" stroke-linecap="round" stroke-linejoin="round" stroke-width=".5" d="M66.2 38.564c-.4-1.2-.7-2.3-.8-2.9l-1.4.6s0 1.2.4 2.7c.4 1.5 1.2 2.6 1.2 2.6l1.6-.7c-.3-.5-.7-1.3-1-2.3Z"/>
  <path fill="#FEFEFE" stroke="#050505" stroke-width=".4" d="M66.1 40.564c-.2.1-.4 0-.5-.1 0-.2 0-.4.2-.5.2-.1.4-.1.5.1.1.2 0 .4-.2.5Z"/>
  <path fill="#0D0E10" d="m66.4 39.164-1.7.8c.4 1 .9 1.6.9 1.6l1.6-.7c-.2-.4-.5-1-.8-1.7Z" opacity=".2"/>
  <path fill="#3A2315" stroke="#050505" stroke-linejoin="round" stroke-width=".5" d="M76.3 56.664v2.8c-.1 1.5-1.6.5-2.5 1.5-.5.5-.4.8.4.9l4.9.3.7-.6-.1.6 1.9.1.4-5.4-5.7-.2Z"/>
  <path fill="#0D0E10" d="M75.2 61.064c.9-1 2.4 0 2.5-1.5v-2.8l-1.4-.1v2.8c-.1 1.5-1.6.5-2.5 1.5-.5.5-.4.8.4.9l1.4.1c-.7-.1-.9-.4-.4-.9Z" opacity=".2" style="mix-blend-mode:multiply"/>
  <path fill="#1A75BB" stroke="#050505" stroke-linecap="round" stroke-linejoin="round" stroke-width=".5" d="M80.2 43.964c2.5.2 3.2 2.4 2.9 4.3 0 0-.3 8-.8 11.1-.1.2-6.3-.3-6.2-.3.1.1.2-9.4.1-11.6-.1-2.1 1.4-3.6 4-3.5Z"/>
  <path fill="#0D0E10" d="M78.6 44.064c-.9.3-1.6.8-2 1.5l-.1.3-.2 13.2c.3 0 .9.1 1.6.1l.7-15.1Z" opacity=".2" style="mix-blend-mode:multiply"/>
  <path fill="#3A2315" stroke="#050505" stroke-linejoin="round" stroke-width=".5" d="M81.8 56.964v2.8c0 1.5-1.5.5-2.5 1.5-.5.5-.3.8.4.9l5 .3.6-.6v.6l1.8.1.5-5.4-5.8-.2Z"/>
  <path fill="#0D0E10" d="M80.7 61.364c1-1 2.5 0 2.5-1.5 0-.9.1-2.8.1-2.8l-1.5-.1v2.8c0 1.5-1.5.5-2.5 1.5-.5.5-.3.8.4.9l1.4.1c-.7-.1-.8-.4-.4-.9Z" opacity=".2" style="mix-blend-mode:multiply"/>
  <path fill="#1A75BB" stroke="#050505" stroke-linecap="round" stroke-linejoin="round" stroke-width=".5" d="M85.7 44.264c2.6.2 3.2 2.4 2.9 4.3 0 0-.3 8-.8 11.1 0 .2-6.2-.3-6.2-.3.1.1.2-9.4.1-11.6-.1-2.1 1.4-3.6 4-3.5Z"/>
  <path fill="#0D0E10" d="M84.2 44.364c-1 .3-1.7.8-2.1 1.6l-.1.2-.2 13.2c.3.1.9.1 1.7.2l.7-15.2Z" opacity=".2" style="mix-blend-mode:multiply"/>
  <path fill="#F3F6F7" stroke="#050505" stroke-linecap="round" stroke-linejoin="round" stroke-width=".5" d="m76.6 28.263-.9-2.4-.6-.3c-.7-.3-1.8 2.8-1.8 8.5-.3 5.9-.4 13.4-.4 14 .5 1.7 3.1 2 5.2 2.1 5.8.4 12.7-.9 13-1.4.6-1 .2-4.5.3-9.8 0-4.6.1-6.6-.1-9.8-.3-5.1-4.1-6-4.1-6l-10.6 5.1Z"/>
  <path stroke="#050505" stroke-linecap="round" stroke-linejoin="round" stroke-width=".4" d="M80.7 34.263c0 2 2.1 2 2.1 2s2.2 0 2.3-2l.1-2.2-4.4.1-.1 2.1Z"/>
  <path fill="#EB2A2C" d="m80.7 33.263 4.4-.1-4.4.1Z"/>
  <path stroke="#050505" stroke-width=".4" d="m80.7 33.263 4.4-.1"/>
  <path stroke="#050505" stroke-linecap="round" stroke-linejoin="round" stroke-width=".5" d="M76.5 28.263c-1.3 3.9-1 21.4-1 21.4"/>
  <path fill="#23AAE1" stroke="#050505" stroke-linecap="round" stroke-linejoin="round" stroke-width=".4" d="M85 29.563c0 .8-.6 1.3-1.3 1.3-.7 0-1.3-.6-1.3-1.3 0-.8.6-1.4 1.3-1.3.8 0 1.4.6 1.3 1.3Z"/>
  <path fill="#FEFEFE" d="M84.4 29.564c0 .4-.3.7-.7.7-.4 0-.7-.3-.7-.7 0-.4.3-.7.7-.7.4 0 .7.3.7.7Z"/>
  <path fill="#23AAE1" d="M84 29.563c0 .1-.2.2-.3.2-.2 0-.3-.1-.3-.2 0-.2.1-.3.3-.3.1 0 .3.1.3.3Z"/>
  <path fill="#FEFEFE" stroke="#050505" stroke-width=".4" d="M77.1 47.063c0 .2-.3.3-.4.2-.2 0-.3-.3-.2-.5 0-.1.2-.2.4-.2.2.1.3.3.2.5Zm0-4c-.1.1-.3.2-.5.2-.2-.1-.3-.3-.2-.5.1-.2.3-.3.5-.2.2 0 .3.3.2.5Zm.3-4.099c-.1.2-.3.3-.5.2-.2-.1-.3-.3-.2-.5.1-.2.3-.3.5-.2.2.1.3.3.2.5Zm0-4.1c-.1.2-.3.3-.5.2-.2 0-.3-.3-.2-.5.1-.1.3-.2.5-.2.2.1.3.3.2.5Z"/>
  <path fill="#DFDFDE" d="M91.1 48.763s.7-3.8.4-4.2c-.3-.4.2-2.1.2-2.1l-.3-12.8-.4-2.9-1.7-2.5-.5 24.9 2.3-.4Z" style="mix-blend-mode:multiply"/>
  <path fill="#050505" d="M85.7 22.864s1.3.2 3.7 1.4l-7.6 2.3 1.5 1.3-6.9 1.8s.2-2.7 1.4-4.3c2.5-3.2 7.9-2.5 7.9-2.5Z" opacity=".2"/>
  <path fill="#050505" d="M77.8 26.764c0 .2-.1.3-.3.3-.2 0-.3-.1-.3-.2 0-.2.1-.3.3-.3.1 0 .3.1.3.2Z"/>
  <path fill="#F3F6F7" d="m77 23.264-1-.5-3.9 1.5 2.4.9-.9.8 2.7 3.6"/>
  <path stroke="#050505" stroke-linecap="round" stroke-linejoin="round" stroke-width=".5" d="m77 23.264-1-.5-3.9 1.5 2.4.9-.9.8 2.7 3.6"/>
  <path fill="#F3F6F7" stroke="#050505" stroke-linecap="round" stroke-linejoin="round" stroke-width=".5" d="M75.6 23.264c2.6-3.7 10.3-1.5 10.3-1.5s.9.2 3.3 1.5l-7.3 2.7 1.3 1.3-6.9 2.4-.7-6.4Z"/>
  <path fill="#FEFEFE" stroke="#050505" stroke-linecap="round" stroke-linejoin="round" stroke-width=".5" d="M75.6 23.264c-.7 1.3.7 6.3.7 6.3s3.4-5.7 9-7.1c1.9-.5-7.6-2.9-9.7.8Z"/>
  <path fill="#282460" stroke="#050505" stroke-linecap="round" stroke-linejoin="round" stroke-width=".4" d="M77 24.564s-1 1.6-1.1 2.4c0 .9.2 2.8.2 2.8s1.8-2.1 2-2.9c.3-.8.1-1.8.1-1.8l1.6-1.2-1.1-1.1-2 .9.3.9Z"/>
  <path stroke="#050505" stroke-linecap="round" stroke-linejoin="round" stroke-width=".4" d="m80.6 24.764-1.9-1.9-3.2 1.5m1.2-2.2 2 .7 6.6-.4"/>
  <path fill="#050505" stroke="#050505" stroke-linecap="round" stroke-linejoin="round" stroke-width=".5" d="M84.8 22.664c.133-.067.3-.133.5-.2 1.7-.4-5.7-2.4-8.8-.2l2.1.7 6.2-.3Z"/>
  <path fill="#B98453" stroke="#050505" stroke-linecap="round" stroke-linejoin="round" stroke-width=".5" d="M85.2 20.964c0 .7-.5 1.5-1.7 1.7 0 0-2.4.5-4.5.4-2.1-.1-2.2-2.1-2.2-2.7l.3-4.9c.1-.6.6-1.1 1.2-1.1l6.1.3c.6.1.7-.2.7 1.4.1 1.6.1 4.9.1 4.9Z"/>
  <path fill="#B98453" stroke="#050505" stroke-linecap="round" stroke-width=".5" d="M88.9 46.864c.7-1 1.1-1.9 1.1-3 0-.8-.5-1.4-1.1-1.8-.3-.2-1.9-1.2-2.8.2-.2.4-.4.9-.8 1.2-.2.2-.4.3-.6.8-.1.2.4.9.6 1.1.1-.3.2-.3.3-.2.3.1.2.4-.2 1-.3.3-.1.7-.1.7l1.5.2s1.7.3 2.1-.2Z"/>
  <path fill="#B98453" d="M85 43.764s-.4.6-.7 1.2c-.3.5-.4.8-.3 1 0 .3.3.6.5.6s.367-.167.5-.5c.1-.4.1-.5.4-.9"/>
  <path stroke="#050505" stroke-linecap="round" stroke-width=".5" d="M85 43.764s-.4.6-.7 1.2c-.3.5-.4.8-.3 1 0 .3.3.6.5.6s.367-.167.5-.5c.1-.4.1-.5.4-.9"/>
  <path fill="#B98453" d="M87.1 47.364c-.1.2.2.2.4.3.2.2.433.2.7 0 0 0 .7-.3 1.5-2.3"/>
  <path stroke="#050505" stroke-linecap="round" stroke-width=".5" d="M87.1 47.364c-.1.2.2.2.4.3.2.2.433.2.7 0 0 0 .7-.3 1.5-2.3"/>
  <path fill="#B98453" d="M86.9 46.864c-.4.4-.4.3-.5.5-.2.2-.1.5 0 .7.2.2.5.1.7-.1 0 0 .4-.1 1.2-1.3"/>
  <path stroke="#050505" stroke-linecap="round" stroke-width=".5" d="M86.9 46.864c-.4.4-.4.3-.5.5-.2.2-.1.5 0 .7.2.2.5.1.7-.1 0 0 .4-.1 1.2-1.3"/>
  <path fill="#B98453" d="M86.2 46.464c-.4.6-.6.8-.8 1-.1.3-.1.5.1.7.2.2.4.1.6-.1 0 0 .4-.1 1.2-1.3"/>
  <path stroke="#050505" stroke-linecap="round" stroke-width=".5" d="M86.2 46.464c-.4.6-.6.8-.8 1-.1.3-.1.5.1.7.2.2.4.1.6-.1 0 0 .4-.1 1.2-1.3"/>
  <path fill="#B98453" d="M86.4 46.464c-.7 1.3-1.1 1.5-1.1 1.5-.3.1-.5.2-.7 0-.2-.1-.2-.4-.1-.6.5-.7 1.1-1.5 1.2-1.8"/>
  <path stroke="#050505" stroke-linecap="round" stroke-width=".5" d="M86.4 46.464c-.7 1.3-1.1 1.5-1.1 1.5-.3.1-.5.2-.7 0-.2-.1-.2-.4-.1-.6.5-.7 1.1-1.5 1.2-1.8"/>
  <path fill="#050505" d="M84.6 45.964s-.1 0 .1-.4c.1-.4.6-1 .6-.6h.1v.1c-.4.5-.4.6-.5 1-.067.333-.2.5-.4.5l.1-.1c.4-.4 0-.5 0-.5Z" opacity=".1"/>
  <path fill="#050505" d="M86.4 46.764s-.2.8-.9 1.4l-.1-.2 1-1.2Zm1 .1s-.2.7-.9 1.3l-.1-.2 1-1.1Zm1 0s.1.4-.7 1l-.3-.3 1-.7Zm1.2-1.2s-.9.3-2.1-.2c-1.5-.5-2-1.4-2.4-1.4-.5-.1.1-.6.1-.6l.8-.9s.6-1.4 2.1-.9c1.5.5 1.8 1.6 1.8 1.6s.1 1.2-.3 2.4Z" opacity=".3"/>
  <path fill="#F3F6F7" stroke="#050505" stroke-linecap="round" stroke-linejoin="round" stroke-width=".5" d="M87.6 25.164c3-1.8 4.1 2 4.1 2s1.8 3.2 1.7 7.1c-.2 4.2-1.5 7.2-2.2 8.7-.4.8-.9 1.2-.9 1.2l-4-2s-.4-.3.1-1.5c.4-.8.8-2.1 1.2-4 .8-4-.3-5.7-.9-6.9-.6-1.1-.8-3.6.9-4.6Z"/>
  <path fill="#0D0E10" d="M93.4 34.264c.1-3.9-1.7-7.1-1.7-7.1s-.8-2.9-3-2.5c1.1.7 1.5 2.2 1.5 2.2s1.8 3.3 1.6 7.2c-.2 4.1-1.4 7.1-2.2 8.7-.2.4-.6.6-.9.7l1.3.5s.8-.2 1.2-1c.7-1.5 2-4.5 2.2-8.7Z" opacity=".2"/>
  <path fill="#F3F6F7" stroke="#050505" stroke-linecap="round" stroke-linejoin="round" stroke-width=".5" d="M88.8 42.364c-1.1-.6-2-1.3-2.5-1.7l-.7 1.5s.9.9 2.2 1.7c1.3.9 2.6 1.1 2.6 1.1l.7-1.6c-.5-.2-1.4-.5-2.3-1Z"/>
  <path fill="#FEFEFE" stroke="#050505" stroke-width=".4" d="M90.1 43.864c0 .2-.2.3-.4.2-.2 0-.3-.2-.2-.4.1-.2.2-.3.4-.3.2.1.3.3.2.5Z"/>
  <path fill="#0D0E10" d="m89.4 42.665-.7 1.7c.9.5 1.7.6 1.7.6l.7-1.6c-.4-.2-1-.4-1.7-.7Z" opacity=".2"/>
  <path fill="#050505" stroke="#050505" stroke-linecap="round" stroke-linejoin="round" stroke-width=".4" d="M72.6 6.464c-1.3 1.2-.2 4.1.1 5.5.3 1.3 1.7 4.2 1.7 4.2s1.8-8.1 1.9-9.6c.2-1.4-2.5-1.1-3.7-.1Zm12.4 13s2.3-2.1 3.1-4.5c.8-2.4.5-3.8-1.1-3.9-1.6-.1-3.5 2.6-4 5.2-.5 2.7-1.6 6.1 2 3.2Z"/>
  <path fill="#B98453" d="M72.7 8.464c.1-2.3 1.7-6.7 8-6 6.3.6 7.1 5 6.9 8.5-.2 3.5-1.6 7.9-3 9.7-.6.7-2.7 1.5-4.2 1.8-3.1.5-6.7 0-6.7 0s-1.1-12.6-1-13.9"/>
  <path stroke="#050505" stroke-linecap="round" stroke-linejoin="round" stroke-width=".5" d="M72.7 8.464c.1-2.3 1.7-6.7 8-6 6.3.6 7.1 5 6.9 8.5-.2 3.5-1.6 7.9-3 9.7-.6.7-2.7 1.5-4.2 1.8-3.1.5-6.7 0-6.7 0s-1.1-12.6-1-13.9"/>
  <path fill="#050505" stroke="#050505" stroke-linecap="round" stroke-linejoin="round" stroke-width=".4" d="M71 11.064s.6-2.7 3.3-3.4c2.6-.8.4-4.2-1.4-2.7-.9.7-1.8 2.1-2 3.3-.3 1.5.1 2.8.1 2.8Z"/>
  <path fill="#050505" stroke="#050505" stroke-linecap="round" stroke-linejoin="round" stroke-width=".4" d="M71 5.064s1.6-1 3.1.4 3.4-1.7 1.6-2.5c-1.8-.9-4 .7-4.7 2.1Z"/>
  <path fill="#050505" stroke="#050505" stroke-linecap="round" stroke-linejoin="round" stroke-width=".4" d="M75.3 2.764c.7-1.6 3.6-2.3 5.5-1.3 1.9 1 1.1 2.9-1 3.1-2 .1-5.3 0-4.5-1.8Z"/>
  <path fill="#050505" stroke="#050505" stroke-linecap="round" stroke-linejoin="round" stroke-width=".4" d="m88.8 4.764-6.1-.9s-5.1-1-1.4-2.4c3.6-1.4 6 1.2 7.5 3.3Z"/>
  <path fill="#050505" stroke="#050505" stroke-linecap="round" stroke-linejoin="round" stroke-width=".4" d="M85.8 3.164c2.8.9 4.2 4.5 4.1 6.1l-3.9-3.1s-2.5-3.7-.2-3Zm-3.5 1.9c-1 1.1-.7 3.3.2 4.3 0 0 .6-1.6 1.3-2.1.7-.4-.2-3.5-1.5-2.2Z"/>
  <path fill="#050505" stroke="#050505" stroke-linecap="round" stroke-linejoin="round" stroke-width=".4" d="M83.9 6.364s-.5 1.6.3 3.1c.9 1.5 3.6 1.1 3.6 1.1s-3.7-5.5-3.9-4.2Z"/>
  <path fill="#050505" stroke="#050505" stroke-linecap="round" stroke-linejoin="round" stroke-width=".4" d="M88 6.864c1.9 2.4 1.4 8.1-.2 10.7l-1.3-3.1 1.5-7.6Zm-14.3 3.7s.7-1.8 2-2.1c1.8-.3-.6-2.7-1.5-1.7-1.4 1.6-.5 3.8-.5 3.8Z"/>
  <path fill="#050505" stroke="#050505" stroke-linecap="round" stroke-linejoin="round" stroke-width=".4" d="M74.6 5.864c-.1 1.3.3 2.3 1.7 2.8s4.1-.6 4.8-1.8c.6-1.2 1.9-.8 1.9-.8l2.3 3.5-.8 5.2 3.1-1.3.7-6.1-3.4-4.9-7 .4-3.3 3Z"/>
  <path fill="#B98453" d="M85.5 13.664c.5-1.5 2.5-1.9 3-.9.5.8-.5 3.8-1.8 4.1-1.3.3-1.4-.4-1.4-.7"/>
  <path stroke="#050505" stroke-linecap="round" stroke-width=".4" d="M85.5 13.664c.5-1.5 2.5-1.9 3-.9.5.8-.5 3.8-1.8 4.1-1.3.3-1.4-.4-1.4-.7"/>
  <path fill="#221E1F" d="M86.6 15.264c-.2.5-.6.9-.2.8.8-.2 1.4-2.2 1.1-2.7-.3-.6-1.2-.4-1.5.6 0 0-.2.4.4.5.2 0 .3.4.2.8Z" opacity=".2"/>
  <path fill="#221E1F" d="M76.1 12.664s.1 1.7-1.7 2c-1.5.1-1.4-1.7-1.4-1.7m8.9.7s-.3 1.6-2.3 1.4c-2.2-.3-1.8-2.2-1.8-2.2" opacity=".1"/>
  <path stroke="#050505" stroke-linecap="round" stroke-width=".4" d="M78 13.264s.4 1 1.9 1.1m-4.3-1.2s-.6.9-2 .8"/>
  <path fill="#050505" fill-rule="evenodd" stroke="#050505" stroke-linecap="round" stroke-linejoin="round" stroke-width=".4" d="M85.4 16.364c-.1.4 0 .7.5.7.6-.1.5.7.3 1.2-.2.3-.5.6-.7.9-.2.3-.5 1-.5 1-.4.6-.8 1.2-1.3 1.7-1.2 1.4-4.8 1.6-7.2 1.5-2.5-.2-3-.3-3.3-1.1-.3-.8-.1-.5-.3-2.8-.1-2.1.2-4.6.2-4.6s0 2.6.7 3.8l1.6-1.7 1.8.1s1.1.5 1.6.8c.4.4 1.1.9 1.1.9s1.5.6 2.6-1.1c1.2-1.7 1.4-2.8 1.5-3.5.2-.6 2-1.4 2-1.4-.1.1-.1 1-.1 1.1-.067.8-.2 1.567-.4 2.3 0 .067-.034.134-.1.2Zm-6.2 3.7-2.5-1.5h-1.2l-1.2 1.1s0 .7.5.9c.5.1.7-.1.9-.3.1-.1.8 0 1.1.1.3.2.7.4 1.2.3.6-.1 1.2-.6 1.2-.6Z" clip-rule="evenodd"/>
  <path fill="#fff" d="M73.2 12.964s0-.6.7-.7h2v.9"/>
  <path stroke="#050505" stroke-width=".4" d="M73.2 12.964s0-.6.7-.7h2v.9"/>
  <mask id="a" width="4" height="2" x="72" y="12" maskUnits="userSpaceOnUse" style="mask-type:luminance">
    <path fill="#fff" d="M73.14 12.994s-1.01.09.35-.79l2.19-.05-.06.98"/>
  </mask>
  <g mask="url(#a)">
    <path fill="#050505" d="M73.7 12.664c0 .4.3.8.7.8.4 0 .8-.3.9-.7 0-.4-.4-.8-.8-.8s-.8.3-.8.7Z"/>
  </g>
  <path fill="#FEFEFE" d="M74.7 12.664s0 .1.1.1.2-.1.2-.1c0-.1-.1-.2-.2-.2 0 0-.1.1-.1.2Z"/>
  <path fill="#fff" d="M81.8 13.464s0-.7-.8-.9l-2.7-.3-.4 1"/>
  <path stroke="#050505" stroke-width=".4" d="M81.8 13.464s0-.7-.8-.9l-2.7-.3-.4 1"/>
  <mask id="b" width="5" height="2" x="78" y="12" maskUnits="userSpaceOnUse" style="mask-type:luminance">
    <path fill="#fff" d="M81.94 13.484s1.13.23-.3-.93l-3.08-.37-.06 1.11"/>
  </mask>
  <g mask="url(#b)">
    <path fill="#050505" d="M80.3 12.964c0 .5-.5.9-.9.9-.5-.1-.9-.5-.9-1s.5-.8.9-.8c.5 0 .9.4.9.9Z"/>
  </g>
  <path fill="#FEFEFE" d="M80 12.864c0 .1-.1.1-.2.1s-.2 0-.2-.1.1-.2.2-.2.2.1.2.2Z"/>
  <path fill="#0D0E10" d="M77 20.364c0 .1-.1.2-.2.2l-1.2-.1c-.1 0-.2-.1-.2-.2s.1-.1.2-.1h1.3c.1.1.1.1.1.2Z" opacity=".2"/>
  <path stroke="#050505" stroke-linecap="round" stroke-width=".4" d="m75.3 19.464 1.8.1"/>
  <path fill="#B98453" d="M76.1 12.064s-1.2 3.1-1.3 4.9c0 .7 2.7.2 2.7.2"/>
  <path stroke="#050505" stroke-linecap="round" stroke-width=".4" d="M76.1 12.064s-1.2 3.1-1.3 4.9c0 .7 2.7.2 2.7.2"/>
  <path fill="#050505" stroke="#050505" stroke-linecap="round" stroke-linejoin="round" stroke-width=".4" d="m76.1 11.764.1-.8-2.1-.4.1-.4-1.5 1.3v.4l1.3-.7 2.1.6Zm1.4-1 .3 1 3.3-.2 2 .5v-.2l-2.3-1.4.1.4-3.4-.1Z"/>
  <path fill="#6A4C9E" d="m70.3 46.164-69.9 5.2-.4-4.3 70.1-5.2.2 4.3Z"/>
  <path fill="#FEFEFE" fill-rule="evenodd" d="M33.5 35.364c.9-.1 1.9-.1 1.7 2.9-.3 2.7-1.2 2.9-2.5 3h-.6l.5-5.8.9-.1Zm-.1.6-.4 4.6c1.3-.1 1.3-1.3 1.4-2.3.1-.9.3-2.4-1-2.3Z" clip-rule="evenodd"/>
  <path fill="#FEFEFE" d="m36.3 40.964-.8.1.5-5.9h.8l-.5 5.8Zm.1-6.1-.4-.2.8-1.2.4.3-.8 1.1Z"/>
  <path fill="#FEFEFE" fill-rule="evenodd" d="m39 34.964.7 5.8h-.8l-.1-1.1-1.1.1-.3 1.2h-.8l1.8-5.9.6-.1Zm-.3 3.2-.1-2.1-.8 3h1l-.1-.9Zm4.1-3.499c.9 0 1.9 0 1.7 2.9-.3 2.8-1.2 2.9-2.5 3l-.6.1.5-5.9.9-.1Zm-.1.7-.4 4.5c1.3 0 1.3-1.2 1.4-2.2.1-.9.3-2.5-1-2.3Z" clip-rule="evenodd"/>
  <path fill="#FEFEFE" d="M47.4 34.364v.7l-1.3.1-.2 1.8H47v.6l-1.2.1-.1 2 1.3-.1-.1.7-2.1.1.5-5.8 2.1-.2Zm2.6-.199-.5 5.2 1.3-.1v.7l-2.1.2.5-5.9.8-.1Z"/>
  <path fill="#FEFEFE" fill-rule="evenodd" d="m53 33.964.7 5.8-.8.1-.1-1.2-1.1.1-.3 1.2h-.8l1.8-5.9.6-.1Zm-.3 3.2-.1-2.1-.8 3h1l-.1-.9Z" clip-rule="evenodd"/>
  <path fill="#FEFEFE" d="M56.3 34.664c-.2-.1-.4-.2-.7-.2-.4 0-.7.4-.7.8 0 .3 0 .4.1.6l.6.6c.4.5.7.9.6 1.7 0 .8-.6 1.6-1.5 1.6-.3 0-.6 0-.8-.2l.1-.8c.2.2.4.3.7.3.5-.1.7-.5.8-.9.1-1.2-1.5-1.3-1.4-2.8.1-.9.6-1.6 1.4-1.6.334-.066.6-.033.8.1v.8Zm-39.7 19.9.5 2.7.2-.8.6-2h.9l-1.4 3.4-.2 2.5-.8.1.2-2.5-.8-3.3.8-.1Zm4.6-.3-.5 5.2 1.3-.1v.7l-2.1.1.5-5.8.8-.1Z"/>
  <path fill="#FEFEFE" fill-rule="evenodd" d="M25.4 56.864c-.1 1.1-.3 3.1-1.8 3.2-1.5.1-1.3-1.9-1.2-3 .1-1 .3-3 1.8-3.1 1.4-.1 1.3 1.9 1.2 2.9Zm-2.2.2c-.1 1.2-.1 2.3.5 2.2.6 0 .8-1.1.9-2.3.1-1.3.1-2.3-.5-2.2-.6 0-.8 1-.9 2.3Z" clip-rule="evenodd"/>
  <path fill="#FEFEFE" d="M28 54.664c-.2-.1-.4-.2-.7-.2-.4.1-.7.4-.7.8 0 .3 0 .5.1.7l.6.6c.4.5.7.8.6 1.6 0 .9-.6 1.6-1.5 1.7-.3 0-.6-.1-.8-.3l.1-.7c.2.1.4.2.7.2.5 0 .7-.4.8-.9.1-1.1-1.5-1.3-1.4-2.8.1-.8.6-1.5 1.4-1.6.333 0 .6.034.8.1v.8Z"/>
  <path fill="#FEFEFE" fill-rule="evenodd" d="m2.8 45.364 2.8-.1c.1-.1.2-.1.5 0 .4 0 .7.1 1.1.3.4.3.7.6.9 1.1.067.267.067.6 0 1 0 .7-.3 1.3-.6 1.6-.2.2-.4.367-.6.5-.6.5-1.2.6-1.5.6l-.2.1h-.7l-.2 1.7-2 .2.5-7Zm2.7 1.7-.8.1-.1 1.3.8-.1c.4 0 .6-.2.6-.6 0-.5-.2-.7-.5-.7Zm9.1 4.4-2.5.2-1.3-1.6h-.2l-.1 1.7-2 .2.4-7 2.9-.2h.5c.4.1.7.2 1.1.4.4.2.7.5.8 1.1.133.267.167.567.1.9-.067 1-.5 1.767-1.3 2.3l1.6 2Zm-3.7-4.7-.1 1.2h.8c.333 0 .533-.233.6-.7 0-.4-.2-.6-.5-.6l-.8.1Zm7.9-2.6c1-.066 1.833.234 2.5.9.667.6.967 1.434.9 2.5-.067 1-.5 1.867-1.3 2.6-.733.734-1.6 1.134-2.6 1.2-1 .067-1.833-.233-2.5-.9-.667-.6-.967-1.4-.9-2.4.067-1 .467-1.9 1.2-2.7.8-.733 1.7-1.133 2.7-1.2Zm-.4 5.2c.4 0 .767-.166 1.1-.5.333-.333.5-.733.5-1.2.067-.466-.033-.833-.3-1.1-.267-.333-.6-.466-1-.4-.467 0-.833.167-1.1.5a1.64 1.64 0 0 0-.5 1.2c-.067.467.033.834.3 1.1.267.334.6.467 1 .4Z" clip-rule="evenodd"/>
  <path fill="#FEFEFE" d="m24.9 50.764-2 .1.5-6.9 4.9-.3-.1 1.9-2.9.2-.1 1 2.7-.2-.1 1.8-2.7.2-.2 2.2Zm6.2-5.4v.7l2.7-.2-.2 1.8-2.7.2v.5l2.9-.2-.1 2-5 .3.5-6.9 5-.3-.2 1.9-2.9.2Zm4.8 2.101c.467.466 1 .7 1.6.7.4-.067.6-.2.6-.4 0-.134-.1-.234-.3-.3a6.915 6.915 0 0 0-.8-.2 11.935 11.935 0 0 1-.9-.4 1.624 1.624 0 0 1-.8-.7c-.2-.267-.3-.6-.3-1s.2-.867.6-1.4c.4-.4 1.2-.8 2.1-.9.8-.1 1.4.1 1.8.4.4.2.7.5.9.7v.2l-1.4 1.2c-.267-.334-.467-.5-.6-.5-.2-.067-.467-.1-.8-.1-.3 0-.5.2-.5.3 0 .2.3.4.8.5l.8.2.8.4c.2.133.367.333.5.6.133.266.2.566.2.9 0 .466-.233.933-.7 1.4-.4.5-1.2.9-2.2 1-.8.066-1.433-.067-1.9-.4-.467-.334-.8-.7-1-1.1l1.5-1.1Z"/>
  <path fill="#FEFEFE" fill-rule="evenodd" d="M44.9 42.364c1-.067 1.833.233 2.5.9.667.6.967 1.4.9 2.4-.067 1-.467 1.9-1.2 2.7-.8.733-1.7 1.133-2.7 1.2-1 .067-1.833-.233-2.5-.9-.667-.666-.967-1.5-.9-2.5.133-1 .567-1.867 1.3-2.6.733-.733 1.6-1.133 2.6-1.2Zm-.4 5.2c.467 0 .833-.167 1.1-.5.333-.333.5-.733.5-1.2.067-.467-.033-.866-.3-1.2-.267-.267-.6-.4-1-.4-.4.067-.767.267-1.1.6-.333.333-.5.733-.5 1.2-.067.467.033.834.3 1.1.267.334.6.467 1 .4Zm10.7 1.1-2.5.2-1.3-1.7h-.2l-.1 1.8-2.1.1.5-6.9 2.8-.2h.5c.4.1.7.1 1.1.4.4.2.7.5.9 1.1.067.267.1.567.1.9-.067 1-.5 1.733-1.3 2.2l1.6 2.1Zm-3.8-4.7-.1 1.3h.8c.4-.067.6-.3.6-.7.1-.4-.2-.6-.5-.6h-.8Zm9.1-2.6 2.1 6.8-2.2.1-.2-.7-2.3.2-.3.7-2.2.2 3-7.1 2.1-.2Zm-1.8 4.3h1l-.4-1.4-.6 1.4Z" clip-rule="evenodd"/>
  <path fill="#FEFEFE" d="M64.5 45.464c.467.467 1 .7 1.6.7.4-.066.6-.2.6-.4 0-.067-.1-.166-.3-.3l-.8-.2-1-.4c-.267-.133-.5-.366-.7-.7-.267-.266-.367-.6-.3-1 0-.4.2-.833.6-1.3.4-.5 1.1-.9 2.1-1 .7 0 1.4.1 1.8.4.4.2.7.5.8.7l.1.2-1.4 1.2c-.267-.266-.5-.433-.7-.5-.2-.066-.433-.1-.7-.1-.3 0-.5.2-.5.3 0 .2.3.4.8.5l.8.2c.267.133.5.267.7.4.267.134.467.334.6.6.133.267.2.567.2.9-.067.467-.3.933-.7 1.4-.4.5-1.2.9-2.2 1-.8.067-1.433-.066-1.9-.4-.467-.333-.8-.7-1-1.1l1.5-1.1Z"/>
  <path fill="#6A4C9E" d="m99.8 53.664-68.9 5.6-.4-4.6 68.9-5.3.4 4.3Z"/>
  <path fill="#FEFEFE" fill-rule="evenodd" d="m33.8 53.064 2.9-.2s.1 0 .5.1c.4 0 .7.1 1.1.3.4.2.7.5.8 1.1.067.267.1.567.1.9 0 .8-.3 1.4-.6 1.7-.2.2-.4.367-.6.5-.6.4-1.2.6-1.6.6h-.1l-.8.1-.1 1.7-2 .2.4-7Zm2.7 1.7-.8.1-.1 1.3.8-.1c.333 0 .533-.233.6-.7 0-.4-.2-.6-.5-.6Zm9.2 4.4-2.5.2-1.3-1.7h-.2l-.1 1.8-2.1.1.5-6.9 2.8-.2h.6c.4.1.7.1 1.1.4.4.2.6.5.8 1.1.067.267.1.567.1.9-.067 1-.5 1.733-1.3 2.2l1.6 2.1Zm-3.8-4.7v1.3h.8c.333-.067.5-.3.5-.7.1-.4-.1-.6-.5-.6h-.8Zm7.9-2.6c1.067-.067 1.933.2 2.6.8.6.667.867 1.5.8 2.5-.067 1-.467 1.9-1.2 2.7-.733.733-1.633 1.133-2.7 1.2-1 .067-1.8-.233-2.4-.9-.667-.667-.967-1.5-.9-2.5.066-1 .467-1.867 1.2-2.6.733-.733 1.6-1.133 2.6-1.2Zm-.3 5.2c.4 0 .767-.167 1.1-.5a2.43 2.43 0 0 0 .5-1.2c0-.467-.133-.867-.4-1.2-.267-.267-.6-.4-1-.4-.4.067-.767.267-1.1.6a2.43 2.43 0 0 0-.5 1.2c0 .467.133.833.4 1.1.267.333.6.467 1 .4Z" clip-rule="evenodd"/>
  <path fill="#FEFEFE" d="m56 58.464-2 .1.4-6.9 5-.4-.1 2-3 .2v1l2.7-.2-.1 1.8-2.7.2-.2 2.2Zm6.2-5.4-.1.7 2.7-.2-.1 1.7-2.7.2v.6l2.9-.2-.1 2-5 .3.5-6.9 4.9-.4-.1 2-2.9.2Zm4.8 2.101c.467.466 1 .666 1.6.6.4 0 .6-.1.6-.3 0-.134-.1-.234-.3-.3a3.905 3.905 0 0 1-.8-.3 5.695 5.695 0 0 1-1-.3 7.506 7.506 0 0 1-.8-.7c-.2-.267-.267-.6-.2-1 0-.4.2-.867.6-1.4.4-.5 1.1-.9 2.1-.9.7-.1 1.4.1 1.8.4.4.2.7.5.8.7l.1.1-1.4 1.2c-.267-.267-.5-.434-.7-.5-.2-.067-.433-.067-.7 0-.3 0-.5.1-.5.3 0 .2.3.3.8.4.2.066.467.166.8.3.267.133.5.266.7.4.267.133.467.333.6.6.133.266.2.566.2.9-.067.4-.3.866-.7 1.4-.4.5-1.2.9-2.2.9-.8.066-1.433-.067-1.9-.4-.467-.267-.8-.6-1-1l1.5-1.1Z"/>
  <path fill="#FEFEFE" fill-rule="evenodd" d="M76 50.064c1-.066 1.833.2 2.5.8.667.667.933 1.5.8 2.5-.067 1-.467 1.867-1.2 2.6-.733.734-1.6 1.167-2.6 1.3-1.067.067-1.9-.233-2.5-.9-.667-.666-.967-1.5-.9-2.5.067-1 .467-1.866 1.2-2.6.733-.733 1.633-1.133 2.7-1.2Zm-.4 5.2c.4 0 .767-.2 1.1-.6.333-.333.5-.7.5-1.1.067-.467-.033-.866-.3-1.2-.267-.266-.633-.4-1.1-.4a1.58 1.58 0 0 0-1 .6 2.069 2.069 0 0 0-.6 1.2c0 .4.133.767.4 1.1.267.267.6.4 1 .4Zm10.6 1.1-2.5.1-1.3-1.6h-.2l-.1 1.8-2 .1.5-6.9 2.8-.2h.5c.4 0 .7.1 1.1.3.4.3.7.6.8 1.1.133.334.166.667.1 1-.067.934-.5 1.667-1.3 2.2l1.6 2.1Zm-3.7-4.7-.1 1.3.8-.1c.333 0 .533-.2.6-.6 0-.5-.2-.7-.5-.7l-.8.1Z" clip-rule="evenodd"/>
  <path fill="#FEFEFE" d="M89.2 51.164v.7l2.7-.2-.2 1.8-2.7.1v.6l2.9-.2-.1 2-5 .3.5-6.9 5-.4-.2 2-2.9.2Zm4.8 2.1c.467.467 1 .7 1.6.7.4-.066.6-.2.6-.4 0-.133-.1-.233-.3-.3-.2-.067-.467-.166-.8-.3a3.57 3.57 0 0 1-.9-.3 1.624 1.624 0 0 1-.8-.7c-.2-.266-.3-.6-.3-1 .067-.4.267-.867.6-1.4.4-.5 1.2-.9 2.1-.9.8-.1 1.4.1 1.8.4.4.2.7.5.9.7v.2l-1.4 1.1c-.267-.267-.467-.433-.6-.5-.2-.067-.467-.067-.8 0-.3 0-.5.1-.5.3 0 .2.4.4.8.5.267 0 .533.067.8.2l.8.4c.2.134.367.333.5.6.133.267.2.567.2.9 0 .467-.233.934-.7 1.4-.4.5-1.2.9-2.2 1-.8 0-1.433-.133-1.9-.4-.467-.333-.8-.7-1-1.1l1.5-1.1Z"/>
  <path fill="#050505" d="m30.8 20.464 2.6-.2.7 10.6-3 .2-.5-7.6c-.667.2-1.267.4-1.8.6l-.2-2.8 2.2-.8Zm3.8-.3 6.6-.4.1 2.2-2.6 8.6-3.2.2 2.5-8-3.2.2-.2-2.8Z"/>
  <path fill="#FEFEFE" d="m31.9 19.264 2.5-.2.7 10.6-2.9.2-.5-7.6c-.733.267-1.333.467-1.8.6l-.2-2.8 2.2-.8Zm3.7-.2 6.6-.5.2 2.3-2.7 8.5-3.2.3 2.5-8.1-3.2.2-.2-2.7Z"/>
</svg>
