<svg xmlns="http://www.w3.org/2000/svg" width="79" height="89" fill="none" viewBox="0 0 79 89">
  <path fill="#3F3461" d="M78.053 58c-3.2 19.6-22.4 33.1-43 30-20.6-3-34.7-21.4-31.5-41 3.2-19.6 22.5-33 43-30 20.6 3 34.7 21.4 31.5 41Z"/>
  <mask id="a" width="76" height="73" x="3" y="16" maskUnits="userSpaceOnUse" style="mask-type:luminance">
    <path fill="#fff" d="M78.053 58.01c-3.19 19.61-22.45 33.05-43.02 30.01-20.57-3.04-34.66-21.4-31.47-41.01 3.18-19.61 22.44-33.04 43.01-30 20.57 3.03 34.67 21.39 31.48 41Z"/>
  </mask>
  <g mask="url(#a)">
    <path fill="#7055A3" stroke="#3F3461" stroke-width=".5" d="m68.353 80.8.8-.8-44.6-55.9a5.5 5.5 0 0 1-1.1.5l44.9 56.2Zm8.3-11.2.6-1.2-38.9-48.6c-.467.066-.9.133-1.3.2l39.6 49.6Zm-5.1 8c.267-.333.5-.633.7-.9l-43.5-54.6c-.4.2-.767.367-1.1.5l43.9 55Zm2.8-3.7c.2-.4.4-.766.6-1.1l-41.6-52.1c-.4.067-.8.167-1.2.3l42.2 52.9Zm4.2-9.2c.133-.4.267-.833.4-1.3l-35-43.8c-.534-.067-1.034-.1-1.5-.1l36.1 45.2Zm-13.3 18.6c.2-.133.367-.266.5-.4l-45.1-56.4c-.133.067-.3.167-.5.3a1.567 1.567 0 0 1-.4.3l45.1 56.5a1.57 1.57 0 0 1 .4-.3Zm14.5-24.3c.067-.533.1-1.066.1-1.6l-29.6-37.1c-.533-.133-1.1-.233-1.7-.3l31.2 39Zm-24-37.2 24.1 30.1a24.845 24.845 0 0 0-.3-2.2l-21.7-27.1c-.667-.334-1.367-.6-2.1-.8Zm-20.5 68c.533.133 1.1.233 1.7.3L5.753 51c-.067.6-.133 1.167-.2 1.7l29.7 37.1Zm6.3.7h1.5l-36.1-45.2-.4 1.4 35 43.8Zm35.5-49.2c-1.2-2.7-2.7-5.3-4.7-7.8-1.9-2.4-4.2-4.5-6.6-6.4l11.3 14.2Zm-49.4 46.2c.667.267 1.367.533 2.1.8l-24.1-30.2c.067.733.166 1.467.3 2.2l21.7 27.2Zm29.1.4c.4-.133.767-.267 1.1-.4l-43.9-55c-.267.267-.5.567-.7.9l43.5 54.5Zm4.2-1.9 1-.6-44.8-56.1c-.267.2-.567.433-.9.7l44.7 56Zm-13.8 4.3c.467-.066.9-.133 1.3-.2l-39.7-49.7c-.133.4-.3.8-.5 1.2l38.9 48.7Zm5-.9 1.2-.4-42.2-52.8-.6 1 41.6 52.2Zm-27.5.7 2.2.8-24.1-30.2c.067.733.167 1.467.3 2.2l21.6 27.2Z"/>
  </g>
  <path fill="#7358A4" d="M74.953 54.6c-3.2 19.6-22.5 33-43 30-20.6-3-34.7-21.4-31.5-41 3.2-19.6 22.4-33.1 43-30 20.6 3 34.7 21.4 31.5 41Z"/>
  <path fill="#050505" d="m42.253 28.4.1-.8c0-.266.033-.5.1-.7 0-.2.1-.5.3-.9.133-.4.333-.766.6-1.1.2-.266.566-.5 1.1-.7.533-.2 1.133-.266 1.8-.2 1.5.1 2.6.7 3 1.3.266.267.466.634.6 1.1.066.4.1.734.1 1 .066.2.066.434 0 .7v.1c-.067.8-.4 1.634-1 2.5-.6.8-1.3 1.534-2.1 2.2l2.9.1-.2 3.1-7.5-.5.2-2.7c2-1.5 3.4-2.8 3.9-3.5.2-.4.366-.7.5-.9.066-.133.1-.3.1-.5 0-.4 0-.6-.2-.8-.067-.133-.2-.2-.4-.2-.4-.1-.5.2-.6.9v.7l-3.3-.2Zm16.6 4.5v.1c0 .267-.034.5-.1.7 0 .2-.1.534-.3 1-.2.4-.434.734-.7 1-.267.267-.667.5-1.2.7-.534.2-1.167.267-1.9.2a5.133 5.133 0 0 1-1.8-.5c-.467-.266-.8-.533-1-.8a5 5 0 0 1-.5-1.2c-.067-.4-.1-.7-.1-.9-.067-.2-.067-.433 0-.7v-.4l3.2.3v.2c0 .7 0 1 .5 1s.6-.3.7-.9c0-.533-.234-.833-.7-.9h-.8l.2-2.5h.7c.466.067.733-.166.8-.7.066-.666-.1-1-.5-1-.5-.1-.6.2-.6.9l-.1.2-3.2-.2v-.3c.066-.266.1-.5.1-.7l.3-.9c.133-.4.333-.766.6-1.1.266-.266.666-.5 1.2-.7.466-.2 1.066-.266 1.8-.2 1.4.1 2.5.7 3 1.3.2.267.366.634.5 1.1.133.4.2.734.2 1v.8c0 .2 0 .6-.4 1.3a1.208 1.208 0 0 1-.7.7c.266.134.466.367.6.7.133.4.2.734.2 1v.4Z"/>
  <path fill="#FEFEFE" d="m43.653 27.2.1-.8c0-.266.033-.5.1-.7 0-.2.066-.5.2-.9.2-.4.4-.767.6-1.1.266-.267.666-.5 1.2-.7.533-.2 1.133-.3 1.8-.3 1.5.1 2.5.7 3 1.4.266.267.433.633.5 1.1.133.4.2.733.2 1v.8c-.067.8-.4 1.634-1 2.5-.6.8-1.3 1.5-2.1 2.1l2.9.2-.2 3-7.5-.4.2-2.7c2-1.5 3.3-2.8 3.8-3.5.266-.4.433-.7.5-.9.066-.133.133-.333.2-.6 0-.3 0-.5-.2-.7-.067-.133-.2-.2-.4-.2-.5-.1-.6.2-.6.9l-.1.7-3.2-.2Zm16.6 4.5v.1c0 .267-.034.5-.1.7-.067.2-.167.534-.3 1-.2.4-.434.734-.7 1-.267.267-.667.5-1.2.7-.534.2-1.167.267-1.9.2-.734-.066-1.334-.233-1.8-.5-.467-.266-.8-.566-1-.9-.267-.266-.434-.633-.5-1.1-.134-.4-.2-.7-.2-.9 0-.266.033-.5.1-.7v-.4l3.2.2v.3c-.1.7 0 1 .5 1s.6-.3.6-.9c.066-.533-.167-.833-.7-.9h-.7l.2-2.5h.7c.466 0 .733-.233.8-.7.066-.666-.134-1-.6-1-.4-.1-.5.2-.6.9v.2l-3.2-.2V27c.066-.266.1-.5.1-.7 0-.2.1-.5.3-.9.133-.466.333-.833.6-1.1.266-.266.633-.5 1.1-.7.533-.2 1.133-.3 1.8-.3 1.5.1 2.6.7 3.1 1.4.2.267.366.634.5 1.1.133.4.2.734.2 1v.8c-.1.2 0 .5-.4 1.3-.2.334-.434.567-.7.7.266.134.466.367.6.7.133.334.2.667.2 1v.4Z"/>
  <path fill="#050505" d="M39.253 71.4c0 1.8-6.1 3.2-13.5 3.2-7.5 0-13.5-1.4-13.5-3.2 0-1.8 6-3.3 13.5-3.3 7.4 0 13.5 1.5 13.5 3.3Z" opacity=".2"/>
  <path fill="#050505" fill-rule="evenodd" d="M41.653 46c0 .4-.1.6-.3.7v.3c-.1.2-.1.6-.5.7v.1c-.1.5-.3.7-.6.7h-.1c0 .2-.2.5-.5.6h-.2c-.3 0-.6-.2-.7-.5v-.3l-.1-.1c-.2.2-.4.3-.6.3a.887.887 0 0 1-.4-.1c-.3-.2-.5-.5-.8-1-.1-.4-.3-.7-.3-1-.067-.066-.1-.167-.1-.3-.067-.133-.1-.233-.1-.3v-.2c0-.2-.1-.5-.2-.8-.067-.133-.1-.233-.1-.3-.067-.2-.1-.4-.1-.6h-.1c-.134 0-.2-.067-.2-.2-.3-.6-1.5-3.4-2.7-6.3-.067.334-.1.633-.1.9.3.5 1.7 3.6 2.4 5.2.066.067.033.167-.1.3a1.567 1.567 0 0 1-.4.3c.2.8.3 1.7.3 2.6 0 2.1-.2 3.6-.4 4.6-.134.467-.2.867-.2 1.2 0 .8-.1 8.6-.2 8.9 0 .067-.034.133-.1.2 0 0-.5.4-1.4.7 0 1-.1 2-.2 2.8-.1.9-.2 1.6-.2 2.1.1.5.2.9.2 1.3.066 0 .133.033.2.1.3.4 0 3.4-.2 3.8-.1.1-.3.2-.3.2-.3 0-.8-.1-.8-.1-.1 0-.2-.1-.2-.2-.1-.6-.3-1.3-.4-1.4-.2.1-.6.8-.9 1.5-.067.067-.134.1-.2.1-.1 0-2.3.5-3.1.6h-.5c-.8 0-1.8-.2-1.9-.9-.1-.3.2-.7 1-1.2-.067-.2-.134-.333-.2-.4-.2.1-.6.7-.9 1.4-.067.133-.134.2-.2.2-.1 0-2.3.5-3.1.6h-.6c-.7 0-1.7-.2-1.9-.9 0-.4.4-.8 1.4-1.4.6-.4 1.2-.6 1.3-.7.2-.2.4-.433.6-.7.4-.4 1-1.1 1-1.4v-.3c-.1-1-.1-2.3-.3-3.7 0-.267-.034-.6-.1-1-1.6-.4-2.4-.9-2.5-.9a1.16 1.16 0 0 1-.2-.3c0-.6-.3-13.6.1-17.5-.067-.067-.134-.1-.2-.1-.1-.1-.2-.2-.1-.3 0-.5.2-1.1.4-1.7v-.1c-.067-.067-.067-.133 0-.2v-.1c-.1-.3.3-1.4.6-2 0-.1.1-.1.2-.1h.1c.1-.3.2-.6.2-.7v-.6c-1 2.5-2 4.7-2.2 5.2-.067.133-.134.2-.2.2h-.4v.2l-.1-.1c0 .2-.034.4-.1.6-.1 1-.7 1.4-1.1 1.5 0 .2-.034.367-.1.5-.1.4-.2.8-.3 1-.1.4-.3.6-.7.6-.067 0-.134-.033-.2-.1-.067 0-.167-.033-.3-.1-.1.2-.3.4-.6.4h-.2a1.567 1.567 0 0 1-.4-.3c-.134.2-.3.3-.5.3h-.3a.654.654 0 0 1-.3-.3.889.889 0 0 1-.4.1h-.2c-.4-.2-.7-.6-.6-1 0-.1.1-1.1.9-2.6V44c.266-.4.5-.767.7-1.1.066-.066.1-.133.1-.2.066 0 .1-.033.1-.1.2-.2.4-.367.6-.5l-.1-.1c-.067-.067-.1-.167-.1-.3.5-1.5 4.6-14.6 4.7-14.8.133-.333.4-.633.8-.9.3-.5 1.3-1.5 3.1-1.6v-.1c-.5-.1-1-.1-1.3-.3l-.5-.5a1.165 1.165 0 0 0-.2-.3 1.164 1.164 0 0 0-.2-.3c0-.066-.034-.1-.1-.1-.9-1-2.2-3.8-2.5-5.7-.2-1-.4-2.9-.4-3.8V13c-.1 0-.2-.1-.1-.2 0-.067.033-.1.1-.1a.887.887 0 0 1-.1-.4c-.1-.3-.2-.6-.2-1.1v-.9c-.2-.2-.4-.8-.4-1.8s.1-1.3.2-1.5v-.1c0-.3.3-1.4.5-1.8 0-.1 0-.7.2-1.2s1-1.7 2.4-2.5c1.7-1 3.5-1.4 5.6-1.4h.3c1.9.1 5.9.2 8.2 2.8l.1.1c.6.667 1.033 1.467 1.3 2.4.333.933.533 1.767.6 2.5.066.067.066.133 0 .2.4 2.6-.3 4.1-.7 4.7.066 0 .2.033.4.1.4 0 .6.3.8.6l.1.1c.2 0 .6 0 1 .2.4.3.6.6.6.7.2.1.4.4.7.8.2.5.2 1 .2 1.2 0 .1.2.5.2 1 0 .4-.2 1-.4 1.2 0 .3-.1.6-.4 1.3-.1.4-.5.8-.8 1 0 .2-.2.5-.6.8-.4.4-.7.5-.8.5-.1.2-.3.3-.6.5-.4.1-.7.1-.9.2h-.2c-.2.1-.4.1-.6.1-.4 0-.7-.067-.9-.2l-.5-.5h-.2c-.1.1-.3.3-.6.3-.067 0-.167-.033-.3-.1-.5-.1-1.3-.5-1.5-1-.134.2-.3.334-.5.4 0 .067-.034.1-.1.1v.2c0 .6.1 1.2.2 1.6v.2c.266.067.5.2.7.4 1.1.3 2.3.8 3.1 1.2.466.067.9.2 1.3.4s.7.5.9 1h.1l.2.4c.1.3 4 13 4.4 14.4.066.133.066.233 0 .3h-.1l.1.3c.066.067.066.133 0 .2.4.333.7.767.9 1.3.6 1.3.6 2 .5 2.1Zm-14.6 24 .4-.6c.5-.4 1-1.1 1-1.3v-.4c-.1-1-.1-2.3-.3-3.7 0-.2-.034-.467-.1-.8-.267.067-.534.1-.8.1h-.3a87.351 87.351 0 0 1-.2 1.5c-.1.9-.2 1.6-.2 2.1.1.5.2.9.2 1.3.066 0 .133.033.2.1.1.2.1.9.1 1.7Z" clip-rule="evenodd" opacity=".2"/>
  <path fill="#F3B7A4" d="M15.453 45.6c.2-.1 1-.2 1.2-1.4.3-1.2.1-1.6-.3-2-.4-.4-2-.4-2-.4s-1.4.1-2.5 2.3c0 0-.4 1.1-.1 1.2.4 0 2.8.4 3.1.5.3.1.3-.2.6-.2Z"/>
  <path fill="#050505" fill-rule="evenodd" d="M14.953 46.1h-.1c-.3-.1-2.8-.5-3.1-.6-.134 0-.234-.067-.3-.2-.2-.3 0-.9.2-1.3 1.1-2.3 2.6-2.5 2.7-2.5.4 0 1.8.1 2.2.5.5.5.6 1 .4 2.2-.2 1.4-1.2 1.6-1.4 1.6-.1 0-.1 0-.1.1-.1.1-.2.2-.5.2Zm-3-1.1c.6.1 2.7.4 3 .5h.1c.1-.1.2-.2.4-.2s.8-.2 1-1.2c.2-1.1 0-1.4-.3-1.7-.2-.2-1-.3-1.8-.3-.1 0-1.3.2-2.2 2.2-.1.2-.2.6-.2.7Z" clip-rule="evenodd"/>
  <path fill="#F3B7A4" d="M14.553 45.5c-.3 1-.3 1.4-.3 1.4 0 .3.1.5.3.6.3.1.6-.1.6-.3.2-.5.4-1.4.5-1.9"/>
  <path fill="#050505" d="M14.753 47.8h-.2c-.4-.2-.6-.5-.6-.9 0-.2.1-.6.3-1.5.1-.2.2-.2.4-.2.1 0 .2.2.2.3-.3 1-.3 1.4-.3 1.4 0 .1 0 .3.1.3.1.1.2 0 .3-.1.1-.3.1-.6.2-1l.3-.9c0-.2.2-.2.3-.2.2.1.2.2.2.4-.1.2-.2.5-.2.9-.1.3-.2.7-.3 1-.1.3-.4.5-.7.5Z"/>
  <path fill="#F3B7A4" d="M13.553 45.1c-.4 1-.4 2-.4 2-.1.3.1.5.3.6.3.1.5-.1.6-.3.1-.2 0-.3.1-.8 0 0 .2-.5.4-1.1"/>
  <path fill="#050505" d="M13.553 48h-.2c-.4-.2-.6-.5-.5-.9 0-.2.1-1.1.4-2 .1-.2.2-.3.4-.2.1 0 .2.2.1.3-.3.9-.4 1.9-.4 1.9 0 .2 0 .3.2.3.1.1.2 0 .2-.1.1-.1.1-.1.1-.2 0-.2 0-.3.1-.5 0-.1.1-.6.3-1.2.1-.1.2-.2.4-.1.1 0 .2.2.1.3-.2.5-.3 1.1-.3 1.1 0 .2-.1.3-.1.4 0 .1 0 .2-.1.4-.1.3-.4.5-.7.5Z"/>
  <path fill="#F3B7A4" d="M13.253 46c-.2.8-.2 1.1-.3 1.4-.1.3-.4.4-.6.3-.3-.1-.4-.3-.3-.6 0 0 .1-.9.4-1.9"/>
  <path fill="#050505" d="M12.453 48h-.2c-.4-.2-.6-.5-.5-1 0-.1.1-.9.4-1.9.1-.1.2-.2.4-.2.1.1.2.2.1.4-.3.9-.4 1.8-.4 1.8 0 .2 0 .3.2.3.1.1.2 0 .2-.1.1-.1.1-.3.2-.5 0-.2.1-.4.2-.8 0-.2.2-.3.3-.2.1 0 .2.2.2.3-.1.4-.2.6-.2.8-.1.3-.1.4-.2.6-.1.3-.4.5-.7.5Z"/>
  <path fill="#F3B7A4" d="M12.653 42.9c-1.6 2.3-1.7 3.9-1.7 3.9 0 .3.2.6.4.7.2.1.5 0 .6-.3.3-.8.6-2.1.8-2.2"/>
  <path fill="#050505" fill-rule="evenodd" d="M11.553 47.8h-.3c-.4-.1-.6-.6-.5-1 0-.2.1-1.8 1.7-4.1.1-.1.3-.1.4 0 .1.1.1.2 0 .3-1.5 2.3-1.6 3.8-1.6 3.8v.1c0 .1.1.3.2.4h.2v-.1c.066-.2.133-.367.2-.5.4-1.4.5-1.8.7-1.9.2-.1.3-.1.4.1.1.1 0 .2-.1.3-.1.2-.3 1.1-.5 1.6-.067.2-.1.367-.1.5-.067.2-.2.333-.4.4-.133.067-.233.1-.3.1Z" clip-rule="evenodd"/>
  <path fill="#050505" d="M15.653 45.1c.1 0 .6-.4 0-.7-.5-.3-1.2-.6-1.9-.6-.8 0-1.4 0-1.4-.3s.8-1.2 1.2-1.4c.5-.3 1.7-.3 2.1-.2.4.1 1.1.5 1.1 1.2.1.7-.1 1.7-.5 1.9-.4.2-.6.1-.6.1Zm-3.1-.5s-.4.4-.6.9c-.2.4-.6 1.6-.2 1.7l.3-.1s.1.3.4.3c.3 0 .6-.6.6-.6s.2.6.6.4c.3-.1.3-.4.3-.4s.2.4.5.3c.4-.1.7-.4.8-.8.1-.4.3-1.1.3-1.1s-.3.2-.8.1c-.6-.1-1.1-.2-1.1-.2l-1.1-.5Z" opacity=".2" style="mix-blend-mode:multiply"/>
  <path fill="#F3B7A4" d="M13.752 44.9s0 .1-.3.7c-.2.5-.2.6-.5.8-.2.2-.5.2-.7 0-.2-.2-.2-.5 0-.8.2-.4.3-.6.4-1 0 0 0-.4-.2-.5"/>
  <path fill="#050505" d="M12.653 46.8c-.2 0-.4-.067-.6-.2-.3-.3-.3-.7 0-1.2v-.1c.2-.2.3-.4.3-.7v-.2c-.2-.1-.2-.2-.2-.4 0-.1.2-.2.3-.2.4.1.5.5.4.9 0 .4-.1.6-.3.9l-.1.1c0 .1-.1.4 0 .5.2.2.3.1.3 0 .2-.1.2-.2.4-.4 0-.067.033-.167.1-.3.2-.5.3-.6.3-.6 0-.2.1-.3.3-.2.1 0 .2.1.2.3 0 .1-.2.5-.3.8l-.2.2c-.1.3-.2.4-.4.6a.68.68 0 0 1-.5.2Z"/>
  <path fill="#F3B7A4" d="M18.253 27.4c.4-1.2 1.7-2 3.1-1.6 1.4.5 2.1 1.9 1.6 3.6-.6 1.7-5.9 13.8-5.9 13.8l-3.7-1.2s4.5-13.5 4.9-14.6Z"/>
  <path fill="#050505" fill-rule="evenodd" d="M17.053 43.5h-.1l-3.7-1.2c-.1-.1-.2-.2-.1-.4.2-.5 4.4-13.5 4.8-14.6.5-1.3 1.9-2.3 3.5-1.7 1.6.5 2.3 2.1 1.7 3.9-.5 1.7-5.7 13.3-5.9 13.8-.067.134-.134.2-.2.2Zm-3.3-1.7 3.1 1.1c.8-1.7 5.3-12 5.8-13.6.5-1.5-.1-2.8-1.4-3.2-1.3-.4-2.4.4-2.8 1.4-.3 1-4.1 12.5-4.7 14.3Z" clip-rule="evenodd"/>
  <path fill="#586A2F" d="M17.853 27.1c.4-1.2 2.1-1.7 3.5-1.3 1.4.5 2.6 1.9 2 3.6-.1.2-5.9 13.8-5.9 13.8s-1 .1-2.3-.3c-1.3-.4-2-1.1-2-1.1s4.7-14.6 4.7-14.7Z"/>
  <path fill="#050505" fill-rule="evenodd" d="M17.253 43.5c-.4 0-1.2 0-2.1-.4-1.4-.4-2.1-1-2.2-1.1-.067-.067-.067-.167 0-.3.4-1.4 4.6-14.6 4.7-14.7.4-1.3 2.2-2 3.8-1.4 1.5.5 2.8 2 2.2 3.9-.1.2-5.3 12.4-5.9 13.8-.067.133-.167.2-.3.2h-.2Zm-3.8-1.8c.3.2.9.6 1.8.9 1 .3 1.7.3 2 .3 2-4.6 5.8-13.3 5.9-13.6.5-1.5-.6-2.8-1.9-3.2-1.3-.4-2.8.1-3.1 1-.1.3-3.1 9.6-4.7 14.6Z" clip-rule="evenodd"/>
  <path fill="#050505" d="M21.753 26.2s2.2 1 1.7 2.7c-.4 1.7-4.4 9.8-4.4 9.8l-2 5-2.6-1.3c.5-.1 2 .6 2.4-.5 1.3-3.4 4.4-11.1 4.8-12.3.6-1.6.1-3.4.1-3.4Z" opacity=".2" style="mix-blend-mode:multiply"/>
  <path fill="#C6872B" d="m35.453 15.6-2.3-4.2-5.3 6 2.2 4.1s1.1.4 1.1.2 1-1.3 1-1.3l3.3-4.8Z"/>
  <path fill="#050505" fill-rule="evenodd" d="M31.053 22c-.133 0-.367-.033-.7-.1-.1 0-.2-.1-.3-.1h-.1c-.067 0-.133-.033-.2-.1l-2.2-4.2c-.067-.067-.067-.167 0-.3l5.4-6c.067-.067.133-.067.2 0 .067 0 .133.033.2.1l2.3 4.2c.067.133.067.233 0 .3l-3.3 4.8c-.4.4-.8 1-.9 1.1 0 .133-.033.2-.1.2-.067.067-.167.1-.3.1Zm-.9-.7c.133 0 .267.033.4.1.1 0 .3 0 .4.1.1-.2.4-.6 1-1.3l3.2-4.6-2.1-3.7-4.9 5.5 2 3.9Z" clip-rule="evenodd"/>
  <path fill="#EDC425" d="m31.753 22.1.5.5c.2.134.467.2.8.2.3 0 .5-.2.6-.2.2 0 .5 0 .9-.2s.5-.3.5-.4c.2-.1.4 0 .9-.5.7-.6.5-.8.5-.8.1.1.6-.3.8-.9.3-.5.4-1 .3-1.2.2-.1.4-.6.5-1.2 0-.5-.3-1-.3-1s.2-.5-.1-1.1c-.3-.5-.7-.7-.7-.7s0-.3-.5-.6c-.4-.3-.9-.2-.9-.2l-.6 2.1-3.2 6.2Z"/>
  <path fill="#050505" fill-rule="evenodd" d="M32.953 23.1c-.334 0-.633-.1-.9-.3l-.5-.5c-.1-.1-.1-.2-.1-.3l3.3-6.2.5-2.1c.066-.133.167-.2.3-.2 0 0 .5-.1 1.1.3.4.2.5.5.6.7.1.1.4.3.6.7.3.5.3 1 .2 1.2.1.2.2.6.2 1 0 .5-.1 1-.4 1.3.1.2 0 .6-.3 1.2-.2.4-.5.8-.8 1-.1.2-.3.5-.6.8-.4.4-.7.5-.9.5-.1.2-.2.3-.5.5-.4.2-.7.2-.9.2h-.3c-.1.1-.3.2-.5.2h-.1Zm-.9-1c.1.1.2.2.3.2.2.2.4.2.7.2.067 0 .166-.033.3-.1.133-.066.233-.1.3-.1h.2c.1 0 .4 0 .6-.1.3-.1.3-.2.4-.3 0-.066.033-.133.1-.2h.2c.1 0 .3-.1.6-.4.3-.3.4-.4.4-.5 0-.2 0-.3.1-.3.066-.066.133-.1.2-.1.1-.1.4-.3.6-.7.3-.6.3-.9.3-.9-.067-.133-.1-.233-.1-.3l.2-.2c.1 0 .3-.4.3-.9s-.2-.9-.2-.9v-.1s.1-.5-.2-.9c-.2-.5-.5-.6-.5-.6-.067-.066-.1-.166-.1-.3 0 0-.1-.2-.4-.4-.2-.1-.4-.1-.6-.1l-.5 1.9-3.2 6.1Z" clip-rule="evenodd"/>
  <path fill="#050505" d="M31.853 22.1c.2 0 .5-.2.6-.2.2 0 .5.1.9-.1s.5-.4.5-.5c.2 0 .4 0 .9-.4.7-.7.5-.8.5-.9.1.1.6-.3.8-.9.3-.5.4-1 .3-1.2.2 0 .4-.6.4-1.1.1-.6-.2-1.1-.2-1.1s.2-.5-.1-1c-.3-.6-.7-.7-.7-.7v-.2c.2 0 .4 0 .7.2.5.3.5.6.5.6s.4.2.7.7c.3.6.1 1.1.1 1.1s.3.5.3 1c-.1.6-.3 1.1-.5 1.2.1.2 0 .7-.3 1.2-.2.6-.7 1-.8.9 0 0 .2.2-.5.8-.5.5-.7.4-.9.5 0 .1-.1.2-.5.4s-.7.2-.9.2c-.1 0-.3.2-.6.2-.333 0-.6-.067-.8-.2-.2-.2-.5-.4-.5-.5h.1Z" opacity=".1"/>
  <path fill="#EDC425" d="M34.153 13h.5c.4.1.6.7.6.7s.5 0 .6.6c.2.5 0 .9 0 .9s.3.5.2.9c0 .4-.4 1.5-.4 1.5s0 .7-.2 1c-.2.3-.7.8-.7.8s0 .6-.5 1c-.4.4-1.1.7-1.1.7s-.1.7-1 .9c-.6.2-.8 0-.8 0s-.2.4-.8.3c-.6-.2-1.4-.7-1.3-1.1 0-.4.1-1.4.1-1.4l.5.5s.4 0 .5.1c0 0 .3-.4.7-.6.3-.2.6-.1.6-.1l2.5-6.7Z"/>
  <path fill="#050505" fill-rule="evenodd" d="M30.753 22.6c-.067 0-.133-.033-.2-.1-.7-.1-1.6-.7-1.6-1.3 0-.5.2-1.4.2-1.4 0-.133.067-.2.2-.2.066-.066.133-.066.2 0l.4.4h.4c.1-.1.3-.3.5-.4.266-.133.466-.2.6-.2l2.5-6.5.1-.1c.1 0 .2-.1.7 0 .4 0 .6.4.7.6.3.1.6.4.7.8.1.4.1.8 0 1 .1.1.3.5.2.9-.1.5-.4 1.3-.5 1.5 0 .2 0 .8-.2 1.1-.1.3-.5.6-.6.8 0 .2-.1.7-.6 1.1-.4.3-.9.6-1.1.7-.1.3-.3.8-1.1 1-.4.1-.7.1-.8 0-.2.2-.4.3-.7.3Zm-1.2-2.2c0 .3 0 .6-.1.8 0 .2.6.7 1.2.8.3.1.4-.1.4-.1 0-.066.066-.133.2-.2.067 0 .133.034.2.1.1 0 .2 0 .7-.1.6-.1.7-.6.7-.6 0-.133.067-.233.2-.3 0 0 .6-.2 1.1-.6.3-.4.3-.8.3-.8 0-.066.033-.133.1-.2.2-.1.5-.6.7-.8.1-.1.1-.6.1-.8v-.1c.1-.3.4-1.1.5-1.4 0-.4-.2-.8-.2-.8v-.2s.1-.3 0-.8c-.1-.3-.4-.4-.4-.4-.133 0-.2-.066-.2-.2-.1-.1-.2-.4-.4-.4h-.3l-2.4 6.5-.2.2h-.2s-.2-.1-.4 0c-.3.2-.5.5-.5.5a1.167 1.167 0 0 1-.3.2c-.067 0-.133-.033-.2-.1h-.3c-.067 0-.133-.033-.2-.1l-.1-.1Z" clip-rule="evenodd"/>
  <path fill="#050505" d="M29.853 21.6c.6.2.7-.2.7-.2s.2.1.9 0c.8-.2.9-.9.9-.9s.7-.3 1.2-.8c.5-.4.5-.9.5-.9s.5-.6.7-.9c.1-.3.1-1 .1-1s.4-1 .5-1.4c0-.5-.2-.9-.2-.9s.1-.5 0-1c-.1-.4-.5-.5-.6-.6h.1c.4.1.6.7.6.7s.5 0 .6.6c.2.5 0 .9 0 .9s.3.5.2.9c0 .4-.4 1.5-.4 1.5s0 .7-.2 1c-.2.3-.7.8-.7.8s0 .6-.5 1c-.4.4-1.1.7-1.1.7s-.1.7-1 .9c-.6.2-.8 0-.8 0s-.2.4-.8.3c-.5-.1-1-.5-1.3-.8.2.067.4.1.6.1Z" opacity=".1"/>
  <path fill="#050505" fill-rule="evenodd" d="M30.653 21.8c-.3 0-.6-.1-.7-.1-.3 0-.7-.2-.8-.3-.1-.1-.1-.2-.1-.2.1-.1.2-.1.3-.1.2.2.5.3.6.3h.1s.4.2.8.1c.3 0 .7-.4.8-.5v-.1h.1s.7 0 1-.4c.3-.4.5-.8.5-.8h.1c.1-.1.5-.5.6-.7.2-.4.3-.9.3-.9V18s.5-.6.5-1.3l.1-.7v-1.3c-.1-.5-.2-.8-.3-.9l-.2-.1c-.1-.1-.1-.2-.1-.3h.3l.2.2h.1s.2.5.3 1.1v2.1c-.1.7-.5 1.2-.6 1.4 0 .1-.1.6-.3.9-.1.4-.6.7-.7.8-.1.1-.3.5-.6.8-.3.4-.9.5-1.1.5-.2.2-.6.6-1 .6h-.2Z" clip-rule="evenodd"/>
  <path fill="#050505" d="M31.253 22.2c-.3 0-1-.4-1-.4-.1-.1-.1-.2-.1-.2 0-.1.1-.2.2-.1.2.1.7.3.9.3h.1s.1.1.1.2 0 .2-.1.2h-.1Zm1.3-.9h-.2c-.2-.1-.6-.1-.6-.1h-.1V21c0-.1 0-.3-.1-.4 0-.2-.1-.8-.1-1 .1 0 .2-.1.3 0 0 0 .1.1 0 .2 0 .1.1.5.1.6.1.2.1.4.1.5.1 0 .3 0 .5.1.1 0 .5 0 .6-.1.1 0 .2.1.2.2s0 .1-.1.2h-.6Zm.8-1.2-.1-.2c-.1-.3-.2-.7-.4-.9-.3-.2-.3-.7-.3-.8 0-.1.1-.1.1-.1.1 0 .2 0 .2.1s.1.4.3.6c.1.2.3.5.3.8a.887.887 0 0 1 .4-.1c.3 0 .7-.1.8-.2.1-.1.2-.1.2 0 .1 0 .1.1 0 .2-.2.2-.7.3-1 .3-.1 0-.3.1-.3.1l-.2.2Zm.9-1.7v-.3s-.1-.3-.2-.5c0-.066-.033-.133-.1-.2-.2-.2-.3-.4-.4-.6 0-.2-.1-.5-.1-.5 0-.1.1-.1.2-.1.1-.1.2 0 .2.1v.4c.1.1.2.3.3.5.067.133.133.233.2.3l.2.4c.067-.066.166-.133.3-.2h.1c.1 0 .3-.1.3-.1.1-.2.3-.2.4-.2l-.1.3c-.1.2-.3.2-.5.3h-.1c-.2.1-.5.2-.5.2l-.2.2Zm.7-2.3-.1-.1c-.2-.4-.5-.8-.6-.8-.1-.1-.1-.2-.1-.2 0-.1.1-.2.2-.1.3.1.6.5.7.8.3-.1.6-.4.7-.6.1-.1.2-.1.2 0 .1 0 .1.1.1.2-.3.4-.9.7-.9.8h-.2Zm-.1-1.9h-.1c-.1-.1-.1-.1-.1-.2s.1-.5.6-.5c.1 0 .2.1.2.1 0 .1-.1.2-.2.2-.2 0-.3.2-.3.2 0 .133-.034.2-.1.2Z"/>
  <path fill="#050505" d="M32.853 22.4c-.1 0-.3-.1-.3-.1-.4.1-.8 0-.8 0-.1 0-.2-.1-.2-.2.1-.1.1-.1.2-.1.2 0 .5.1.7 0h.1c.1 0 .3.1.4 0 .3-.1.6-.3.6-.3h.1c.2 0 .7 0 .9-.2.2-.3.3-.5.3-.5l.1-.1c.2-.1.6-.4.7-.6.1-.2.3-.7.3-.7v-.1s.5-.7.7-1.2c.1-.4 0-1.1 0-1.1s.2-.8.1-1.4c-.1-.4-.2-.5-.2-.5h-.1v-.1c0-.1-.1-.4-.2-.5-.1-.2-.4-.3-.4-.3-.1-.1-.1-.2-.1-.3 0 0 .1-.1.2 0 0 0 .3.1.5.4.2.1.3.4.3.6.1.1.2.2.3.7.1.5 0 1.3 0 1.4 0 .1 0 .8-.1 1.2-.2.5-.6 1.2-.7 1.3 0 .1-.2.6-.4.8-.1.2-.6.6-.7.7 0 .1-.2.3-.4.5-.3.3-.8.3-1 .3-.1.1-.4.2-.6.3-.067.067-.167.1-.3.1Z"/>
  <path fill="#050505" d="m36.653 15.5-.2-.2c-.1-.2-.4-.4-.6-.5-.1 0-.1-.1-.1-.2.1-.1.2-.1.3-.1 0 .1.3.2.5.4.1-.1.2-.3.3-.3.1-.1.2-.1.2 0 .1 0 .1.1 0 .2s-.2.3-.3.4l-.1.3Zm.1 2.2-.1-.5c0-.1-.1-.3-.3-.4-.067-.066-.1-.133-.1-.2-.2-.1-.3-.3-.3-.3v-.2c.1-.1.2-.1.3 0 0 0 .1.2.2.3l.2.2c.067.067.133.167.2.3.067-.066.167-.133.3-.2.1 0 .4-.2.5-.3 0-.1.1-.2.2-.1.1 0 .1.1.1.1 0 .3-.6.6-.7.6l-.3.3-.2.4Zm-1 2.7.2-.8v-.4c0-.1-.1-.2-.2-.4-.2-.267-.3-.433-.3-.5-.1-.1 0-.2.1-.2 0-.1.1 0 .2.1 0 .1.1.3.2.4.1.2.3.4.3.5v.1c.133-.133.267-.233.4-.3.3-.1.7-.3.8-.4 0-.1.1-.1.2-.1.1.1.1.2 0 .3-.1.2-.9.5-.9.5l-.5.5-.5.7Zm-.7.8h-.1c-.1-.1-.1-.2 0-.2 0 0 .1-.2 0-.4v-.3c-.067-.133-.1-.233-.1-.3 0-.3-.2-.6-.2-.6s0-.1.1-.2c0 0 .1 0 .2.1 0 0 .2.3.2.6.066.134.1.234.1.3v.4c.1.3-.1.6-.1.6h-.1Z"/>
  <path fill="#050505" d="M35.453 20.9c-.067 0-.133-.033-.2-.1 0-.1.1-.2.2-.2 0 0 .6-.1 1-.1.1 0 .1.1.1.2s-.1.1-.1.1c-.4 0-1 .1-1 .1Zm-.4 1.3-.1-.1s-.1-.1-.3-.1c-.1-.1-.5 0-.6 0-.1 0-.1-.1-.1-.2s0-.1.1-.1c0 0 .5-.1.7 0 .3 0 .4.2.4.2.1 0 .1.1 0 .2 0 .066-.033.1-.1.1Z"/>
  <path fill="#050505" fill-rule="evenodd" d="m33.653 22-.1-.1c-.1 0-.1-.1 0-.2l.1-.1v-.2c.1-.5.1-.8.2-.9.1-.1.2-.1.3 0 0 .1 0 .2-.1.2 0 .1-.1.6-.1.7v.3c0 .1-.1.2-.2.2 0 .067-.033.1-.1.1Z" clip-rule="evenodd"/>
  <path fill="#050505" d="m33.653 22.8-.1-.1s-.1-.1-.2-.1c-.2 0-.4-.2-.4-.2-.1-.1-.1-.2-.1-.3.1 0 .2-.1.2 0 .1.1.3.2.4.2.2 0 .3.2.3.2.1 0 .1.1.1.2-.067.067-.133.1-.2.1Zm-1.1-.5h-.2V22c.1 0 .2-.2.2-.2 0-.1 0-.2.1-.2s.2 0 .2.1c.1.3-.2.5-.2.6h-.1Z"/>
  <path fill="#F3B7A4" d="M19.953 70.9c.1.7 5.8-1.6 5.8-1.6s-.2-1.2-.4-2.3c-.1-1.1.5-3.1.4-5.2v-3.4c0-2 .8-5.4.8-5.4l-6.7.5s1.5 7.5 1.8 10.2c.2 1.6.3 3 .3 4.1.1.7-2.1 2.4-2 3.1Z"/>
  <path fill="#050505" fill-rule="evenodd" d="M20.253 71.3c-.2 0-.3 0-.4-.1l-.2-.2c-.1-.5.5-1.2 1.1-1.9.4-.4 1-1.1 1-1.3l-.1-.4c0-1-.1-2.3-.2-3.7-.4-2.6-1.9-10.1-1.9-10.2 0-.067.033-.133.1-.2.066-.067.133-.1.2-.1l6.7-.4c.066 0 .133.033.2.1.066.067.1.133.1.2 0 0-.8 3.3-.8 5.3v3.4c0 1.1-.1 2.1-.3 3.1-.1.8-.2 1.5-.1 2 .1 1.1.3 2.3.3 2.3 0 .1 0 .3-.1.3l-2.6 1c-1.8.7-2.6.8-3 .8Zm0-.5c.5 0 3-.8 5.2-1.7-.1-.4-.2-1.3-.4-2.1 0-.6.1-1.3.2-2.2.1-.9.3-1.9.2-2.9v-3.5c0-1.7.6-4.1.8-5.1l-6.1.4c.3 1.5 1.5 7.6 1.8 10 .2 1.4.2 2.7.3 3.7v.3c0 .5-.5 1.2-1.1 1.8-.4.4-.9 1-.9 1.3Z" clip-rule="evenodd"/>
  <path fill="#050505" d="M23.953 69h1.6l-.2-2.6.4-3.9-.2-4.4.7-4.7-3.1.2s.5 6.7.8 9c.3 2.4 0 6.4 0 6.4Z" opacity=".1" style="mix-blend-mode:multiply"/>
  <path fill="#5F0A1C" d="M25.753 68.5c-.3-.4-2.7.9-3.3 1.4-.7.6-2.2 1-2.5.8-.4-.2.3-.6.3-.6s-2.7 1.1-2.5 1.8c.1.6 1.4.7 2.2.6.7-.1 3-.5 3-.5s.6-1.6 1.1-1.7c.5 0 .7 1.7.7 1.7h.7c.3 0 .5-3.3.3-3.5Z"/>
  <path fill="#050505" fill-rule="evenodd" d="M19.353 72.8c-.8 0-1.7-.2-1.9-.9-.1-.4.3-.8 1.4-1.4.6-.4 1.3-.7 1.3-.7.2 0 .3 0 .4.2 0 .1 0 .2-.1.3-.067.067-.134.1-.2.1.4 0 1.5-.3 2-.7.4-.3 1.2-.7 1.9-1.1 1.3-.6 1.7-.5 1.8-.3.3.4 0 3.4-.2 3.8-.1.2-.2.2-.3.2-.2 0-.7-.1-.7-.1-.2 0-.3-.1-.3-.2-.1-.6-.2-1.3-.4-1.4-.2.1-.6.8-.8 1.5-.067.067-.134.1-.2.1-.1.1-2.3.5-3.1.6h-.6Zm-1.4-1c.1.4 1.1.5 1.9.4.7-.1 2.4-.4 2.9-.5.2-.6.7-1.6 1.3-1.7.6 0 .8 1 .9 1.7h.4c.1-.5.3-2.5.2-3-.5 0-2.3.9-3 1.4-.6.6-2.3 1.1-2.8.8-.067-.067-.1-.134-.1-.2-.9.4-1.6.9-1.7 1.1Z" clip-rule="evenodd"/>
  <path fill="#F3B7A4" d="M25.753 71.2c.1.7 5.8-1.6 5.8-1.6s-.2-1.2-.4-2.3c-.1-1.1.5-3.1.4-5.1v-3.5c0-2 .8-5.3.8-5.3l-6.7.4s1.5 7.5 1.8 10.2c.2 1.6.3 3 .3 4.1.1.8-2.1 2.4-2 3.1Z"/>
  <path fill="#050505" fill-rule="evenodd" d="M26.053 71.6c-.2 0-.3 0-.3-.1a1.163 1.163 0 0 1-.3-.2c-.1-.5.5-1.1 1.1-1.9.4-.4 1-1 1-1.3l-.1-.4c0-1 0-2.3-.2-3.7-.4-2.6-1.8-10.1-1.9-10.2 0-.067.033-.133.1-.2s.133-.1.2-.1l6.7-.4c.066 0 .133.033.2.1s.1.133.1.2c0 .1-.8 3.3-.8 5.3v3.4c0 1.1-.1 2.1-.3 3.1-.1.8-.2 1.5-.1 2.1.1 1 .3 2.2.3 2.2.1.1 0 .3-.1.3l-2.6 1c-1.8.7-2.6.8-3 .8Zm0-.5c.5 0 3-.8 5.2-1.7-.1-.4-.2-1.3-.3-2.1-.1-.6 0-1.3.1-2.2.1-.9.3-1.9.2-2.9v-3.5c0-1.7.6-4.1.8-5.1l-6.1.4c.3 1.5 1.5 7.6 1.8 10 .2 1.4.3 2.7.3 3.7v.3c0 .6-.5 1.2-1.1 1.8-.3.4-.9 1-.9 1.3Z" clip-rule="evenodd"/>
  <path fill="#050505" d="M29.753 69.3h1.6l-.2-2.6.4-3.9-.2-4.4.7-4.7-3.1.2s.5 6.7.8 9c.3 2.4 0 6.4 0 6.4Z" opacity=".1" style="mix-blend-mode:multiply"/>
  <path fill="#5F0A1C" d="M31.553 68.8c-.3-.4-2.7.9-3.3 1.4-.7.6-2.2 1-2.5.8-.4-.2.3-.6.3-.6s-2.7 1.1-2.5 1.8c.1.6 1.4.7 2.2.6.7-.1 3-.5 3-.5s.6-1.6 1.1-1.7c.5 0 .7 1.7.7 1.7h.7c.3 0 .5-3.3.3-3.5Z"/>
  <path fill="#050505" fill-rule="evenodd" d="M25.153 73.1c-.8 0-1.7-.2-1.9-.9-.1-.4.3-.8 1.4-1.4.6-.4 1.3-.7 1.3-.7.2 0 .3 0 .4.2.1.1 0 .3-.1.3-.067.067-.134.1-.2.1.4 0 1.5-.3 2-.7.4-.3 1.2-.7 1.9-1.1 1.3-.6 1.7-.5 1.8-.3.3.4 0 3.4-.2 3.8-.1.2-.2.2-.3.2-.2 0-.7-.1-.7-.1-.2 0-.3-.1-.3-.2 0-.6-.2-1.3-.4-1.4-.2.1-.6.8-.8 1.5-.067.067-.134.1-.2.1-.1.1-2.3.5-3.1.6h-.6Zm-1.4-1c.1.4 1.1.5 1.9.4.7 0 2.4-.4 2.9-.5.2-.5.8-1.6 1.3-1.6.6-.1.8.9.9 1.6h.4c.1-.5.3-2.5.2-3-.5 0-2.3.9-3 1.5-.6.5-2.3 1-2.7.7-.133-.067-.2-.133-.2-.2-.9.5-1.6.9-1.7 1.1Z" clip-rule="evenodd"/>
  <path fill="#5C6249" d="M32.153 41s1.7 2.6 1.7 5.8c0 3.1-.6 4.8-.6 5.7 0 .8-.2 8.9-.2 8.9s-2.1 1.6-6.8 1.6c-4.7 0-7.3-1.4-7.3-1.4s-.4-16.2.2-18.4c.5-2.2 1.6-4.4 1.6-4.4s.1.2 3.6.2c3.6-.1 6.7-.5 6.7-.5l1.1 2.5Z"/>
  <path fill="#050505" fill-rule="evenodd" d="M26.253 63.3c-4.7 0-7.3-1.4-7.5-1.5-.067-.066-.1-.133-.1-.2 0-.7-.4-16.2.2-18.5.6-2.2 1.6-4.3 1.7-4.4.066-.133.133-.166.2-.1h.2c.1 0 .6.1 3.4.1 3.6 0 6.6-.5 6.6-.5.1 0 .3.1.3.2l1.1 2.5c.2.2 1.8 2.8 1.8 5.9 0 2.1-.3 3.5-.5 4.5-.067.534-.1.934-.1 1.2 0 .8-.2 8.6-.2 8.9 0 .067-.034.134-.1.2-.1.1-2.2 1.7-7 1.7Zm-7.1-1.9c.6.3 3.2 1.3 7.1 1.3 4 0 6.1-1.1 6.6-1.4 0-1.1.1-8 .1-8.8.066-.333.133-.767.2-1.3.2-.9.4-2.4.4-4.4 0-3.1-1.6-5.6-1.7-5.6v-.1l-1-2.3c-.8.1-3.4.4-6.4.4-2.1.1-3.1 0-3.5 0-.3.5-1.1 2.3-1.6 4.1-.5 2-.2 16.4-.2 18.1Z" clip-rule="evenodd"/>
  <path fill="#050505" d="M29.353 38.9s1.8 3.8 1.9 6c.1 2.3-.3 5.6-.3 7.1-.1 1.6-.3 10.5-.3 10.5l2.4-1.1s.1-7.7.2-8.9c.1-1.3.8-5.5.6-6.8-.3-1.2-1.1-3.2-1.7-4.7-.6-1.5-1.1-2.5-1.1-2.5l-1.7.4Z" opacity=".1"/>
  <path fill="#F3B7A4" d="M28.153 22.3c0-.8.1-1.5.1-1.7 0-.8-1.2-1.3-3.2-1.3s-3.3.6-3.3 1.3c0 .2.1 1 .1 1.8 0 .9-.1 1.9-.1 2.2 0 .7-4.9 8 .1 8.2 5.2.2 6.5-7.7 6.5-8.4 0-.3-.2-1.2-.2-2.1Z"/>
  <path fill="#050505" fill-rule="evenodd" d="M22.053 33.1h-.2c-1.067-.067-1.8-.433-2.2-1.1-1-1.6.5-4.6 1.3-6.3.2-.5.5-1 .5-1.1V24c.1-.4.2-1 .2-1.6 0-.5-.1-1-.2-1.3v-.5c0-1 1.5-1.6 3.6-1.6s3.5.6 3.5 1.6v.4c-.1.3-.1.8-.1 1.3 0 .6.1 1.1.1 1.6.066.2.1.367.1.5 0 .5-.7 4.9-3.1 7.2-1 1-2.167 1.5-3.5 1.5Zm3-13.6c-2 0-3.1.6-3.1 1.1 0 0 .1.2.1.4 0 .3.1.9.1 1.4 0 .6-.1 1.3-.1 1.7 0 .2-.1.4-.1.5 0 .2-.1.6-.5 1.3-.7 1.6-2.2 4.5-1.4 5.8.333.533.933.8 1.8.8 1.266.067 2.366-.367 3.3-1.3 2.3-2.2 2.9-6.4 2.9-6.8v-.5c-.1-.4-.2-1-.2-1.6 0-.5.1-1 .1-1.4v-.3c0-.5-1.1-1.1-2.9-1.1Z" clip-rule="evenodd"/>
  <path fill="#050505" d="M28.253 21.1v1.7s-2.8 2.4-4.7 2.1c-2-.2-1.9-.8-1.8-1.1.1-.4.1-1.7 2.2-2.4 2-.6 4.3-.3 4.3-.3Z" opacity=".2" style="mix-blend-mode:multiply"/>
  <path fill="#586A2F" d="M17.853 30.6c.2-3.6 1.3-5.3 2.3-5.6.4-.1.9-.3 1.5-.4l-.1.1c-1.7 2.5.3 7.4.3 7.4s2.7-1.3 4.8-4.7c1.3-2 1.9-2.8 1.9-2.8 1.5.2 3.2.9 4.1 1.5 2 1.2 1.1 3.5.4 5.8-.6 2-1.4 4.6-1.4 6.5 0 0 1.7 3.5 2.4 5.2-1.5 1.5-9 1-10 1-.3 0-1.1-.9-1.1-.9s-.6.9-.7.9c-1.4-.2-1.9-.3-3.6-1 .2-1.5 1.6-4.8 1.6-4.8 0-4.4-2.6-5.3-2.4-8.2Z"/>
  <path fill="#050505" fill-rule="evenodd" d="M27.853 44.9h-3.8c-.3 0-.8-.4-1.1-.7-.5.7-.6.7-.8.7-1.3-.2-1.9-.4-3.6-1-.1 0-.2-.2-.2-.3.3-1.5 1.4-4.4 1.6-4.9 0-2.2-.7-3.5-1.4-4.7-.5-1-1.1-2-1-3.4.3-3.9 1.5-5.6 2.5-5.8a3.9 3.9 0 0 0 .5-.2l1-.2c.133-.067.233-.034.3.1.066.066.066.166 0 .3-1.4 2-.2 5.8.2 6.9.7-.4 2.7-1.7 4.4-4.4 1-1.6 1.6-2.4 1.8-2.7l.1-.1v-.1c.066-.067.166-.1.3-.1 1.5.2 3.2.9 4.2 1.5 1.9 1.3 1.3 3.4.7 5.4a3.901 3.901 0 0 0-.3.8l-.1.4c-.5 1.9-1.2 4.2-1.2 5.9.2.5 1.7 3.6 2.4 5.2 0 .133-.034.233-.1.3-.9.9-3.6 1.1-6.4 1.1Zm-3.8-.6h.7c1.9.1 7.5.3 9-.8-.8-1.7-2.3-5-2.3-5l-.1-.1c0-1.8.7-4.2 1.3-6.1l.1-.4a6.9 6.9 0 0 1 .2-.8c.7-2.1 1.2-3.8-.4-4.8-.9-.5-2.4-1.2-3.8-1.4h-.1c-.2.3-.8 1.1-1.7 2.7-2.2 3.4-4.9 4.7-5 4.7h-.2c-.067 0-.1-.034-.1-.1-.1-.2-1.8-4.5-.6-7.1-.134 0-.234.033-.3.1-.2 0-.367.033-.5.1-.7.2-1.9 1.5-2.1 5.3-.1 1.3.4 2.1.9 3.2.7 1.2 1.4 2.6 1.4 5v.1s-1.2 3-1.5 4.6c1.5.5 2 .7 3.2.8.1-.1.4-.4.6-.7 0-.067.066-.1.2-.1h.2c.4.4.8.8.9.8Zm4.3-19.7v.1-.1Z" clip-rule="evenodd"/>
  <path fill="#050505" d="M28.053 44.6c-.067 0-.133-.034-.2-.1 0-.2-2-4.5-2-5.6-.1-1.1 2.1-9.8 2.2-10.2 0-.1.1-.1.1-.1.1 0 .2.1.2.2-.8 3.1-2.3 9.3-2.2 10.1.1 1.1 2 5.4 2 5.5.1 0 0 .1 0 .2h-.1Z"/>
  <path fill="#050505" d="M30.953 25.2s-.3 9.1-4 9.6c-1 .1-1.9 0-1.8.2.2.1 1.7.6 2.7.4.9-.3 2.1-1.3 2.9-.9.8.5-1.6 3.7-1.5 4.2.1.6 2.9 5.4 2.9 5.4l1.9-.5-2.4-5.3.5-1.4s.1-2.6.8-4.3c.7-1.7 1.4-4.2.7-5.6-.8-1.3-2.7-1.8-2.7-1.8Z" opacity=".1"/>
  <path fill="#050505" d="M26.953 35c-.067 0-.133-.067-.2-.2 0-.1.1-.2.2-.2.533-.134.9-.4 1.1-.8.1-.1.2-.1.3 0 0 0 .1.1 0 .2-.267.466-.7.8-1.3 1h-.1Z"/>
  <path fill="#050505" d="M21.853 32.8s-.3-1.6-.6-4-.1-3.6-.1-3.6c-1.8.7-2.9 2.3-2.9 2.3l1.5.9s.2 0-1.2.4c.6 2.5 2.7 1.8 3.3 4Z" opacity=".1"/>
  <path fill="#52240F" d="M21.853 32.6c-.2-1.7-.9-2.4-.8-4.6.2-2.9.6-3.4.6-3.4-2.2.1-3.2 1.8-3.2 1.8l1.7 1.5s.2.3-1.1.6c.4 2.2 2.2 1.9 2.8 4.1Z"/>
  <path fill="#050505" fill-rule="evenodd" d="M21.853 32.8c-.1 0-.2 0-.3-.2-.2-1-.8-1.4-1.3-1.8-.7-.5-1.3-1-1.5-2.2 0-.2 0-.3.2-.3.4-.1.7-.2.8-.3l-1.5-1.4c-.1-.1-.1-.2-.1-.4.1 0 1.2-1.8 3.4-1.8.2 0 .3 0 .3.1.066.134.066.234 0 .3-.1.1-.3.7-.5 3.2-.1 1.4.1 2.1.4 3 .1.4.3.9.4 1.5 0 .2-.1.3-.2.3h-.1Zm-2.5-4.1c.2.8.7 1.2 1.2 1.6.2.134.4.3.6.5-.2-.7-.4-1.6-.4-2.9.2-1.6.3-2.5.4-3-1.3.2-2.1 1.1-2.4 1.4l1.5 1.4c.1.1.2.2.1.4 0 .2-.2.4-1 .6Z" clip-rule="evenodd"/>
  <path fill="#050505" d="M22.953 44c-.1 0-.2-.1-.3-.2l-1-11.2c0-.1.1-.3.2-.3s.2.1.3.2l1 11.2c0 .1-.1.3-.2.3Z"/>
  <path fill="#050505" d="M28.753 24.6c1.5.2 2.2 3 2.2 3l-2.7-.2s-.9.7 1.4 1.8c-1.9 2.6-7.8 3.4-7.8 3.4s2.7-1.2 4.1-3.8c1.4-2.6 2.8-4.2 2.8-4.2Z" opacity=".1"/>
  <path fill="#050505" d="M19.453 44.1h-.1c-.1-.1-.1-.1-.1-.2s1.4-4.3 1.4-5.4c0-1.2-1.5-9-1.5-9.1 0-.1.1-.2.1-.2.1 0 .2.1.2.1.1.4 1.5 8 1.5 9.2 0 1.1-1.3 5.3-1.4 5.5 0 .067-.034.1-.1.1Z"/>
  <path fill="#6F3014" d="M22.753 34.7c0 .2.2.3.4.3s.3-.2.3-.4-.2-.3-.4-.3-.3.2-.3.4Z"/>
  <path fill="#050505" fill-rule="evenodd" d="M23.153 35.2a1.165 1.165 0 0 1-.3-.2c-.134-.067-.2-.167-.2-.3 0-.133.033-.267.1-.4.067-.067.166-.133.3-.2.3 0 .5.2.5.5.1.3-.1.5-.4.5v.1Zm0-.8h-.1l-.1.1v.3c.067.067.133.1.2.1.1 0 .2-.2.2-.3-.1-.1-.1-.2-.2-.2Z" clip-rule="evenodd"/>
  <path fill="#6F3014" d="M23.053 36.9c0 .1.2.3.4.3.1-.1.3-.2.3-.4-.1-.2-.2-.4-.4-.4-.2.1-.3.3-.3.5Z"/>
  <path fill="#050505" fill-rule="evenodd" d="M23.353 37.3c-.2 0-.4-.2-.5-.4 0-.133.033-.267.1-.4.133-.134.266-.2.4-.2.133 0 .233.033.3.1.133.067.2.166.2.3 0 .3-.2.6-.4.6h-.1Zm-.2-.5c0 .2.1.2.2.2.2 0 .2-.1.2-.2 0-.067-.034-.133-.1-.2h-.1c-.067 0-.1.033-.1.1-.067 0-.1.033-.1.1Z" clip-rule="evenodd"/>
  <path fill="#6F3014" d="M23.253 39.1c0 .2.2.3.4.3s.3-.2.3-.4c-.1-.2-.2-.4-.4-.3-.2 0-.3.2-.3.4Z"/>
  <path fill="#050505" fill-rule="evenodd" d="M23.553 39.5c-.067 0-.167-.033-.3-.1-.067-.066-.1-.167-.1-.3-.1-.3.1-.5.4-.6.2 0 .5.2.5.5 0 .2-.1.5-.4.5h-.1Zm-.2-.5c0 .067.033.133.1.2s.133.067.2 0c.1 0 .1-.1.1-.2s-.1-.2-.2-.2-.2.1-.2.2Z" clip-rule="evenodd"/>
  <g opacity=".2">
    <path fill="#050505" d="m29.453 40.1-3.4.4s.1 1.9.6 2c.5 0 4.1-.2 4.2-.5.2-.3-1.4-1.9-1.4-1.9Z"/>
    <path fill="#050505" fill-rule="evenodd" d="M26.753 42.7h-.1c-.6-.1-.8-1.4-.9-2.2 0-.1.1-.2.2-.2l3.5-.4c.067 0 .1.034.1.1 1.8 1.7 1.6 2 1.5 2.1-.1.1-.1.3-2.2.5-.8 0-1.7.1-2.1.1Zm-.5-2c.1.8.3 1.5.4 1.6.5 0 3.5-.2 4-.4-.1-.3-.7-1-1.3-1.6l-3.1.4Z" clip-rule="evenodd"/>
  </g>
  <path fill="#52240F" d="m29.453 39.9-3.4.3s.1 2 .6 2c.5.1 4.1-.1 4.2-.4.2-.3-1.4-1.9-1.4-1.9Z"/>
  <path fill="#050505" fill-rule="evenodd" d="M26.753 42.4h-.1c-.6 0-.8-1.3-.9-2.1 0-.1.1-.2.2-.3l3.5-.3c.066-.067.1-.067.1 0 1.8 1.7 1.6 2 1.5 2.2-.1.1-.1.3-2.2.4-.8.1-1.7.1-2.1.1Zm-.5-2c.1.8.3 1.6.4 1.6.5.1 3.5-.1 4-.3-.1-.3-.7-1-1.3-1.6l-3.1.3Z" clip-rule="evenodd"/>
  <path fill="#52240F" d="m19.553 39.6 1.5.4s-.3 2-.5 2-1.5-.2-1.6-.5c-.1-.3.6-1.9.6-1.9Z"/>
  <path fill="#050505" fill-rule="evenodd" d="M20.553 42.2c-.4 0-1.7-.2-1.8-.6-.1-.3.4-1.4.6-2.1.1-.1.2-.1.3-.1l1.4.4c.1 0 .2.1.2.2-.3 2.1-.5 2.2-.6 2.2h-.1Zm-1.4-.7c.2.1 1 .3 1.3.3.1-.2.2-1 .3-1.6l-1.1-.3c-.2.6-.5 1.4-.5 1.6Z" clip-rule="evenodd"/>
  <g opacity=".2">
    <path fill="#050505" d="m19.553 39.9 1.5.3s-.4 2-.6 2c-.2.1-1.4-.1-1.5-.4-.1-.3.6-1.9.6-1.9Z"/>
    <path fill="#050505" fill-rule="evenodd" d="M20.353 42.4c-.3 0-1.5-.2-1.6-.6-.1-.3.4-1.4.6-2 .1-.1.2-.2.3-.1l1.4.3c.1.1.2.2.2.3-.4 2.1-.6 2.1-.8 2.1h-.1Zm-1.2-.7c.2.2.9.3 1.2.3.1-.2.3-.9.4-1.6l-1.1-.3c-.2.7-.5 1.4-.5 1.6Z" clip-rule="evenodd"/>
  </g>
  <path fill="#F3B7A4" d="M40.353 45c-.3-1.1-.8-1.9-1.6-2.5-.6-.5-1.3-.5-1.9-.3-.4.1-2 .7-1.5 2.2.1.4.4.8.4 1.3 0 .3-.1.4.2.9.1.1.9.2 1.1.2-.1-.3-.1-.4.1-.4.2-.1.4.2.6.8.1.4.5.4.5.4l1-1s1.2-1 1.1-1.6Z"/>
  <path fill="#050505" fill-rule="evenodd" d="M38.253 47.9h-.1c-.2 0-.6-.2-.7-.7a.888.888 0 0 1-.1-.4c0 .066-.034.1-.1.1-.067.133-.134.2-.2.2-.2 0-1.2 0-1.3-.4-.3-.5-.3-.6-.3-.9v-.1c0-.3-.1-.6-.3-.9 0-.134-.034-.234-.1-.3-.134-.534-.1-1 .1-1.4.4-.7 1.2-1 1.6-1.1.9-.3 1.6-.2 2.2.2.8.7 1.3 1.5 1.6 2.7.2.8-.9 1.7-1.2 2l-.9.9c-.067.066-.134.1-.2.1Zm-1-1.8c.066 0 .133.033.2.1.266.133.466.433.6.9 0 .133.033.2.1.2l.9-.8v-.1c.5-.4 1.1-1.1 1-1.3-.3-1.2-.7-1.8-1.4-2.4-.467-.334-1.067-.4-1.8-.2-.2 0-.9.3-1.2.9a1.362 1.362 0 0 0-.1.9c.066.066.133.166.2.3.1.3.2.7.2 1v.2c0 .2 0 .3.2.6.1 0 .4.1.6.1v-.2c.1 0 .1-.1.3-.2h.2Z" clip-rule="evenodd"/>
  <path fill="#F3B7A4" d="M35.753 46s.2.7.4 1.3c.3.5.5.7.7.8.2.2.5.1.7 0 .133-.2.1-.433-.1-.7-.3-.3-.4-.3-.4-.8"/>
  <path fill="#050505" d="M37.153 48.5c-.2 0-.367-.033-.5-.1-.3-.2-.5-.5-.7-1-.3-.6-.5-1.3-.5-1.3 0-.1.1-.3.2-.3.1-.1.3 0 .3.2 0 0 .3.6.5 1.2.2.5.4.6.5.7.1.1.3 0 .4 0 0 0 0-.1-.1-.3l-.1-.1c-.2-.2-.3-.4-.4-.9 0-.1.1-.3.2-.3.2 0 .3.1.3.2.1.4.2.5.3.7l.1.1c.4.5.2.8.1 1-.2.1-.4.2-.6.2Z"/>
  <path fill="#F3B7A4" d="M39.653 46.6c.1.2.2 0 .5-.1.2 0 .3-.167.3-.5 0 0 .2-.7-.8-2.5"/>
  <path fill="#050505" d="M39.752 47h-.1c-.1-.1-.2-.1-.3-.3 0-.1.1-.3.2-.3.067-.066.134-.066.2 0 .067-.066.167-.1.3-.1 0 0 .1-.1.1-.3l.1-.1s.1-.7-.8-2.3c-.1-.1 0-.3.1-.3.1-.1.3-.1.4.1.9 1.6.8 2.5.8 2.7-.1.5-.4.7-.6.7-.066 0-.1.034-.1.1-.1 0-.2.1-.3.1Z"/>
  <path fill="#F3B7A4" d="M39.153 46.5c0 .5 0 .5.1.7 0 .2.3.4.5.3.2 0 .3-.2.3-.5 0 0 .2-.4-.2-1.7"/>
  <path fill="#050505" d="M39.653 47.8c-.3 0-.6-.2-.7-.5 0-.2 0-.2-.1-.4v-.4c0-.1.1-.2.2-.3.2 0 .3.1.3.3.1.2.1.3.1.4v.2c.1.1.2.2.3.1l.1-.2v-.1s0-.4-.3-1.5c0-.1.1-.3.2-.3.1-.1.3 0 .3.1.4 1.2.4 1.7.3 1.9 0 .1-.1.6-.5.7h-.2Z"/>
  <path fill="#F3B7A4" d="M38.553 46.7c.1.7.2 1 .3 1.2.1.3.2.4.4.4.3-.1.3-.3.4-.5 0 0 0-.5-.4-1.8"/>
  <path fill="#050505" d="M39.252 48.6c-.2 0-.5-.1-.7-.6 0-.2-.1-.3-.2-.6a2.72 2.72 0 0 0-.1-.6c0-.1.1-.3.2-.3.2-.1.3 0 .3.2.067.2.134.367.2.5 0 .3.1.5.1.7.1.1.2.1.2.1s.1 0 .1-.2v-.1s0-.4-.4-1.6c0-.1.1-.3.2-.4.2 0 .3.1.4.2.4 1.3.3 1.8.3 1.9 0 .5-.3.7-.5.8h-.1Z"/>
  <path fill="#F3B7A4" d="M38.553 46.6c.5 1.3.4 1.7.4 1.7 0 .3-.1.5-.3.5-.2.1-.5-.1-.5-.3-.2-.7-.5-1.7-.6-1.9"/>
  <path fill="#050505" d="M38.553 49.1c-.3 0-.6-.2-.7-.5l-.1-.3c-.1-.6-.3-1.4-.4-1.5-.1-.1-.1-.3 0-.4.1-.1.3-.1.4.1.1.1.3.6.5 1.6l.1.4.2.1c.1-.1.1-.1.1-.3h.1s0-.5-.4-1.6c-.1-.2 0-.3.1-.4.2 0 .3.1.4.2.4 1.2.4 1.7.4 1.8 0 .2-.1.7-.5.8h-.2Z"/>
  <path fill="#050505" d="M37.153 47.6s-.1.1-.3-.2c-.2-.4-.4-1.1 0-.9v-.1l.1.1c.1.6.2.7.4 1 .2.2.266.366.2.5-.2-.6-.4-.4-.4-.4Z" opacity=".1"/>
  <path fill="#050505" d="M38.753 46.8s.5.6.5 1.5l-.2-.1-.3-1.4Zm.599-.7s.5.5.5 1.5l-.2-.1-.3-1.4Zm.701-.7s.3.1.3 1l-.4.1.1-1.1Z" opacity=".3"/>
  <path fill="#050505" d="M39.353 43s-.6.6-1.8 1c-1.6.5-2.2.4-2.2.4s-.5-1 .7-1.9c1.2-.8 2.2-.4 2.2-.4s.4-.1 1.1.9Z" opacity=".2" style="mix-blend-mode:multiply"/>
  <path fill="#586A2F" d="M29.453 29.3c-.4-1.1 0-2.6 1.3-3.1 1.4-.6 2.9 0 3.6 1.7.6 1.6 4.4 14.3 4.4 14.3l-3.6 1.4s-5.3-13.1-5.7-14.3Z"/>
  <path fill="#050505" fill-rule="evenodd" d="M35.153 43.9c-.067 0-.134-.067-.2-.2-.2-.5-5.4-13.2-5.8-14.3-.5-1.2 0-2.9 1.5-3.5 1.6-.6 3.2.1 3.9 1.9.7 1.6 4.3 13.8 4.5 14.3 0 .2-.1.3-.2.3l-3.6 1.5h-.1Zm-5.5-14.7c.4 1.1 4.9 12.2 5.7 14.1l3.1-1.3c-.6-1.7-3.8-12.5-4.4-14-.6-1.5-1.9-2.1-3.2-1.6-1.2.5-1.5 1.8-1.2 2.8Z" clip-rule="evenodd"/>
  <path fill="#586A2F" d="M28.953 29.3c-.4-1.1.5-2.6 1.8-3.1 1.4-.6 3.2-.3 3.9 1.3.1.3 4.4 14.4 4.4 14.4s-.7.7-1.9 1.2c-1.3.6-2.2.5-2.2.5s-6-14.1-6-14.3Z"/>
  <path fill="#050505" fill-rule="evenodd" d="M34.953 43.9c-.134 0-.234-.067-.3-.2-.6-1.4-5.9-14.1-6-14.3-.4-1.2.5-2.9 2-3.5 1.6-.6 3.5-.3 4.2 1.5.1.3 4 13 4.5 14.4 0 .133-.034.233-.1.3 0 0-.7.7-2 1.3-1.2.5-2.2.5-2.3.5Zm-5.8-14.7c.1.3 3.9 9.3 5.9 14.2.4-.1 1.1-.2 2-.5.9-.4 1.5-.9 1.7-1.1-1.5-4.8-4.3-13.9-4.4-14.2-.6-1.4-2.2-1.7-3.5-1.2-1.2.5-2 1.9-1.7 2.8Z" clip-rule="evenodd"/>
  <g opacity=".2" style="mix-blend-mode:multiply">
    <path fill="#586A2F" d="M31.352 26.2s2.3-.7 3.1.9c.7 1.5 2.9 10.3 2.9 10.3l1.7 5.1-2.8.8c.4-.5 1.9-.9 1.5-1.9-1.2-3.5-3.8-11.4-4.3-12.6-.6-1.6-2.1-2.6-2.1-2.6Z"/>
    <path fill="#050505" fill-rule="evenodd" d="M36.253 43.6c-.067 0-.134-.034-.2-.1-.1-.1-.1-.3 0-.4.1-.1.4-.3.6-.5.6-.4 1-.7.8-1.1-1.4-4.3-3.8-11.5-4.2-12.6-.6-1.5-2-2.5-2-2.5-.134-.067-.167-.167-.1-.3 0-.134.066-.2.2-.2.1 0 2.5-.7 3.3 1.1.8 1.5 2.9 9.8 3 10.3l1.7 5.1v.3c-.067.066-.134.1-.2.1l-2.8.8h-.1Zm-4.2-17.3c.5.5 1.3 1.3 1.7 2.4.4 1.1 2.9 8.4 4.3 12.6.2.6-.1 1-.5 1.4l1.2-.4-1.6-4.8c-.1-.1-2.3-8.8-3-10.3-.4-.9-1.5-.9-2.1-.9Z" clip-rule="evenodd"/>
  </g>
  <path fill="#6F3014" d="M37.453 41.4c.1.2.3.3.4.2.2 0 .3-.3.2-.4 0-.2-.2-.3-.4-.3-.2.1-.3.3-.2.5Z"/>
  <path fill="#050505" fill-rule="evenodd" d="M37.753 41.8c-.2 0-.4-.2-.4-.4-.1-.2 0-.5.2-.6.3-.1.6 0 .7.3.1.3-.1.6-.3.6-.067.066-.134.1-.2.1Zm-.2-.5c.1.2.2.2.3.2.1-.1.1-.2.1-.3 0-.1-.2-.2-.3-.1-.1 0-.1.1-.1.2Z" clip-rule="evenodd"/>
  <path fill="#6F3014" d="M37.153 40.2c.1.2.3.3.4.2.2 0 .3-.2.2-.4 0-.2-.2-.3-.4-.2-.2 0-.3.2-.2.4Z"/>
  <path fill="#050505" fill-rule="evenodd" d="M37.453 40.6c-.2 0-.4-.1-.4-.3-.1-.3 0-.6.2-.7.3-.1.6.1.7.3a.887.887 0 0 1-.1.4c0 .133-.067.233-.2.3h-.2Zm-.2-.4c.1.1.2.1.3.1.066 0 .1-.034.1-.1V40c-.1-.1-.2-.1-.3-.1-.1 0-.1.2-.1.3Z" clip-rule="evenodd"/>
  <path fill="#52240F" d="M28.353 24.3c1.5.2 2.1 3 2.1 3l-2.6-.2s.1.7 1.4 1.6c-1 1.8-7.4 3.4-7.4 3.4s1.9-1.3 3.6-3.7c1.9-2.7 2.9-4.1 2.9-4.1Z"/>
  <path fill="#050505" fill-rule="evenodd" d="M21.853 32.3c-.134 0-.2-.033-.2-.1-.1-.2 0-.3.1-.4 0 0 1.9-1.2 3.5-3.6 1.8-2.7 2.9-4.1 2.9-4.1.066-.067.166-.1.3-.1 1.6.3 2.3 3.1 2.3 3.2 0 .067-.034.134-.1.2 0 .067-.067.1-.2.1l-2.2-.1c.2.2.5.6 1.2 1.1.1 0 .1.2.1.3-1.2 2-7.4 3.5-7.6 3.5h-.1Zm6.6-7.7c-.3.4-1.3 1.8-2.8 3.9-.9 1.3-1.8 2.3-2.6 2.9 2-.5 4.9-1.6 5.9-2.6-1.3-.9-1.4-1.6-1.4-1.7 0-.067.033-.133.1-.2.066-.066.133-.1.2-.1l2.3.2c-.3-.8-.9-2.1-1.7-2.4Z" clip-rule="evenodd"/>
  <path fill="#EDC425" d="M16.353 10.4s-.5-.5-.5-1.9c0-1.3.2-1.3.2-1.6 0-.3.5-1.7.5-1.7s0-.7.2-1.2.9-1.6 2.3-2.4c1.4-.8 3.2-1.4 5.4-1.3 2.3 0 8.1 0 9.8 5.1 1.6 5.2-.3 7.5-.3 7.5l-3.4 3-14.2-5.5Z"/>
  <path fill="#050505" fill-rule="evenodd" d="M30.553 16.2c-.067 0-.1-.033-.1-.1l-14.2-5.5-.1-.1s-.6-.5-.6-2c0-.9.2-1.3.2-1.5.1 0 .1-.1.1-.1 0-.3.3-1.4.4-1.8 0-.1.1-.7.3-1.2.1-.5.9-1.6 2.4-2.5 1.7-1 3.5-1.4 5.5-1.4.133 0 .233.033.3.1 2.4 0 8 .1 9.7 5.2 1.7 5.3-.3 7.6-.4 7.7v.1l-3.4 3c0 .067-.034.1-.1.1Zm-14.1-6 14 5.4 3.3-2.9c.1-.2 1.8-2.4.2-7.2-1.5-4.8-6.7-4.9-9.2-5h-.3c-1.9 0-3.6.4-5.3 1.3-1.3.8-2 1.8-2.2 2.3-.1.4-.2 1.1-.2 1.1v.1c-.2.6-.4 1.4-.4 1.6 0 .133-.034.233-.1.3-.1.2-.2.5-.2 1.3 0 1.1.3 1.5.4 1.7Z" clip-rule="evenodd"/>
  <path fill="#050505" d="M32.453 13.7s1.9-2.3.3-7.5c-1.7-5.1-7.5-5-9.8-5.1-1.7-.1-3.1.3-4.3.8.133-.067.267-.167.4-.3 1.4-.8 3.2-1.4 5.4-1.3 2.3 0 8.1 0 9.8 5.1 1.6 5.2-.3 7.5-.3 7.5l-3.4 3-.4-.2 2.3-2Z" opacity=".1"/>
  <path fill="#050505" d="M31.353 12.7c-.1 0-.2 0-.2-.1s.1-.2.2-.2c1.5-.1 2.7-1.1 3.4-2.7 0-.1.1-.1.2-.1.1.1.1.2.1.2-.8 1.7-2.1 2.8-3.7 2.9Z" opacity=".2" style="mix-blend-mode:multiply"/>
  <path fill="#050505" d="M31.053 11.8c-.067 0-.134-.033-.2-.1 0-.1.1-.2.2-.2.9-.2 1.7-.4 2.3-1.2.7-.7 1-1.5 1.4-2.4 0-.1.1-.2.2-.1.1 0 .1.1.1.2-.4 1-.8 1.8-1.4 2.5-.8.8-1.6 1.1-2.6 1.3Z" opacity=".2" style="mix-blend-mode:multiply"/>
  <path fill="#050505" d="M30.853 10.2c-.1 0-.2-.1-.2-.2s.1-.1.2-.1c1.7 0 3.4-1.5 3.6-3.1 0-.1.1-.1.1-.1.1 0 .2.1.2.1-.2 1.8-2 3.4-3.9 3.4Zm-.8-1.4c-.067-.066-.1-.133-.1-.2-.1-.1 0-.2.1-.2 1.6-.2 3.6-1.4 4-3 0-.1.1-.2.2-.1.1 0 .1.1.1.2-.5 1.8-2.5 3-4.3 3.3Zm-.6-1.8c-.1 0-.2-.1-.2-.2s.1-.1.2-.1c.8 0 2.6-.8 3.4-1.7.4-.4.6-.766.6-1.1 0-.1 0-.2.1-.2s.2.1.2.1c0 .467-.2.934-.6 1.4-1 1-2.8 1.8-3.7 1.8Zm-1.3-1.2c-.067 0-.1-.034-.1-.1 0-.1 0-.2.1-.2l.6-.3c1.1-.4 4.1-1.4 4.1-2.2 0-.1 0-.2.1-.2s.2.1.2.2c0 .9-2.2 1.8-4.3 2.5l-.6.3h-.1Zm-2.1-.9c-.067 0-.1-.033-.1-.1 0-.1 0-.2.1-.2h.1c4.8-1.5 5.7-2.3 5.7-2.4 0-.1 0-.2.1-.2s.2 0 .2.1c.1.2.2.9-5.9 2.8h-.2Zm-3.1 0c-.1-.1-.2-.1-.1-.2.1-.7 2.2-1.5 5-2.6 1.1-.4 2.3-.8 2.4-.9.1-.1.2-.1.2-.1.1.1.1.2.1.2-.2.2-.8.5-2.5 1.1-1.8.7-4.8 1.8-4.9 2.3-.067.133-.134.2-.2.2Zm-2.6-.3c-.1 0-.2-.1-.2-.2.1-1 .4-3.4 2.4-4.2.1 0 .2.1.2.1.1.1 0 .2 0 .2-1.9.7-2.2 3-2.2 3.9 0 .1-.1.2-.2.2Z" opacity=".2" style="mix-blend-mode:multiply"/>
  <path fill="#050505" d="M21.953 5.4c-.1 0-.1-.1-.1-.2s.1-1.4.8-2.1c.6-.6 1.6-1.1 2.3-1.4.2-.134.367-.233.5-.3.7-.3 1.9-1.1 1.9-1.1.1 0 .2 0 .3.1 0 .1 0 .2-.1.2 0 0-1.2.8-2 1.1-.134.066-.3.166-.5.3-.7.3-1.6.7-2.2 1.3-.6.7-.7 1.9-.7 1.9 0 .1-.1.2-.2.2Zm-2.3-.7c-.067 0-.1-.033-.1-.1-.4-1.1-.1-2.9.6-3.7.1-.1.2-.1.2 0 .1.1.1.2 0 .2-.6.7-.9 2.4-.5 3.3 0 .1 0 .2-.1.3h-.1Zm-1 0c-.067 0-.133-.034-.2-.1-.5-1.1-.3-1.9.1-2.8 0-.1.1-.2.2-.1.1 0 .1.1.1.2-.4.9-.5 1.6-.1 2.5.1.1 0 .2-.1.3Zm-1.1.9c-.067 0-.1-.033-.1-.1-.2-.5-.6-1.6-.3-2.3 0-.1.1-.1.2-.1.1.1.1.2.1.2-.3.6.1 1.7.3 2.1 0 0 0 .1-.1.2h-.1Zm-1 2-.1-.1c-.1 0-.3-.2-.4-.3 0-.1 0-.2.1-.2 0-.1.1-.1.2 0l.3.3c.1 0 .1.1 0 .2 0 .066-.034.1-.1.1Z" opacity=".2" style="mix-blend-mode:multiply"/>
  <path fill="#050505" d="M16.353 8.8c-.3 0-.5-.3-.7-.4v-.3h.3c.1.2.3.3.4.3.1 0 .2.1.2.2s-.1.2-.2.2Z"/>
  <path fill="#050505" d="M16.753 6.8c-.067 0-.1-.067-.1-.2 0-.067-.034-.2-.1-.4-.2-.5-.3-1.1-.1-1.4 0-.1.1-.1.2 0 .1 0 .1.1.1.2-.2.1 0 .7.1 1.1.066.2.1.367.1.5 0 .1 0 .2-.1.2h-.1Zm4.3-2.1c-.1 0-.1-.1-.1-.2.1-2.8 3.4-4.3 3.6-4.4.1 0 .2 0 .2.1s0 .2-.1.2c0 .1-3.2 1.5-3.4 4.1 0 .1-.1.2-.2.2Z" opacity=".2" style="mix-blend-mode:multiply"/>
  <path fill="#F3B7A4" d="M31.553 16.3s-1 2-1.2 2.5c-.3.5-1.1 2.3-2 2.9-.9.6-4 2.2-4.7 2.3-.7.1-1.4.1-1.7.1-.2-.1-1.2-.1-1.6-.4-.4-.2-.5-.6-.9-1.1-.8-1-2.2-3.6-2.5-5.5-.2-1.1-.4-2.9-.3-3.8 0-.8-.4-1.1-.4-2.1s.2-3.2.5-4.3c.2-1.1.9-2 2.4-2.2 1.4-.1 1.7 0 2.8.2.8-.2 1.1-.4 3.4-.2 1.1.2 1.9.3 3 1.1s1.4 1.6 1.5 3c0 0 .8.7.9 1.5.2.8.6 3.6 1 3.9.1.2 1.3 1.1 1.1 1.9-.1.6-1.3.2-1.3.2Z"/>
  <path fill="#050505" fill-rule="evenodd" d="M22.653 24.4c-.267 0-.5-.033-.7-.1h-.2c-.5 0-1.2-.1-1.5-.3-.3-.2-.5-.5-.7-.8a1.569 1.569 0 0 1-.3-.4c-.8-1-2.3-3.7-2.6-5.7-.1-1-.3-2.9-.3-3.8 0-.4-.1-.6-.2-1 0-.3-.1-.6-.2-1.1 0-1.1.2-3.3.5-4.3.2-1 .8-2.3 2.6-2.4 1.5-.2 1.8-.1 2.9.1h.2c.7-.2 1.2-.3 3.2-.1 1.1.1 2 .2 3.2 1.1 1.1.8 1.5 1.6 1.6 3.1.2.2.7.9.9 1.6 0 .2.1.5.1.8.2.8.5 2.7.8 2.9v.1c.933.8 1.333 1.5 1.2 2.1a1.563 1.563 0 0 1-.3.4c-.4.2-.9.1-1.2 0-.2.6-.9 2-1.1 2.4-.067.067-.1.133-.1.2-.4.7-1.1 2.2-1.9 2.8-.9.6-4.1 2.1-4.9 2.3a5.07 5.07 0 0 1-1 .1Zm-2.4-19.5c-.3 0-.6 0-1.1.1-1.2.133-1.934.8-2.2 2-.2 1-.5 3.1-.4 4.2 0 .4.1.7.2 1 .1.3.2.7.1 1.2 0 .8.2 2.6.4 3.6.3 1.9 1.7 4.5 2.4 5.4.133.2.233.367.3.5.2.3.4.5.6.6.2.2 1 .2 1.3.3h.2c.6.067 1.1.033 1.5-.1.6-.1 3.8-1.6 4.6-2.2.8-.5 1.5-1.9 1.8-2.5.066-.133.1-.233.1-.3.3-.5 1.2-2.5 1.2-2.5.1-.1.2-.2.3-.1.3 0 .8.1 1 0 .1-.3 0-.8-1-1.6v-.1c-.3-.2-.6-1.3-.9-3.2-.1-.3-.1-.6-.1-.8-.2-.7-.9-1.4-.9-1.4-.067-.067-.1-.133-.1-.2 0-1.3-.4-2-1.4-2.8-1-.7-1.8-.9-2.8-1-1.9-.2-2.4-.1-3 .1-.134 0-.234.033-.3.1h-.2v-.1c-.7-.1-1.1-.2-1.6-.2Z" clip-rule="evenodd"/>
  <path fill="#F3B7A4" d="M29.553 15.5s.2.9-.9 2.5l.9-2.5Z"/>
  <path fill="#C1897E" d="M28.652 18.1h-.1c-.1 0-.1-.1 0-.2 1.1-1.5.8-2.4.8-2.4 0-.1.1-.2.1-.2.1 0 .2.1.2.1 0 .1.3 1.1-.9 2.7h-.1Z"/>
  <path fill="#F3B7A4" d="M23.753 24s.5-.3 1.5-1.6l-1.5 1.6Z"/>
  <path fill="#C1897E" d="M23.753 24.1c-.067 0-.134-.033-.2-.1 0 0 0-.1.1-.2 0 0 .5-.3 1.5-1.5 0 0 .1-.1.2 0 .1 0 .1.1 0 .2-1 1.3-1.5 1.6-1.6 1.6Z"/>
  <path fill="url(#b)" d="M17.853 18.4c.3.3.5.4.8.2-.2-.4-.3-1-.6-1.6-.4.2-.4.3-.7.4.2.5.2.8.5 1Zm-.5-1c.3-.1.3-.2.7-.4-.3-.7-.4-1.3-.6-1.8-.2.1-.2.5-.3.9 0 .4 0 .9.2 1.3Zm1.3 1.2c.3-.1.4-.4.5-.8 0-.4.1-.9-.1-1.4a3.977 3.977 0 0 0-1 .6c.3.6.4 1.2.6 1.6Zm-.6-1.6a3.977 3.977 0 0 1 1-.6c-.2-.4-.4-.9-.7-1.1-.267-.2-.567-.233-.9-.1.2.5.3 1.1.6 1.8Z"/>
  <path fill="url(#c)" d="M25.752 18.2c.3.3.5.5 1 .5v-1.8h-1.5c0 .5.2 1 .5 1.3Zm-.5-1.3h1.5c0-.7.3-1.3.3-1.8-.5 0-1 .2-1.3.5-.3.3-.5.8-.5 1.3Zm1.5 1.8c.5 0 .9-.2 1.3-.5.3-.3.8-.8.8-1.3h-2.1v1.8Zm0-1.8h2.1c0-.533-.166-.967-.5-1.3-.4-.3-.8-.5-1.3-.5 0 .5-.3 1.1-.3 1.8Z"/>
  <path fill="#050505" fill-rule="evenodd" d="M22.653 24.4c-.267 0-.5-.033-.7-.1h-.2c-.5 0-1.2-.1-1.6-.3-.2-.2-.4-.5-.5-.7a3.27 3.27 0 0 0-.4-.5c-.9-1-2.3-3.8-2.6-5.7-.1-1-.3-2.9-.3-3.8 0-.4-.1-.6-.2-1 0-.3-.1-.6-.2-1.1 0-1.1.2-3.3.5-4.3.3-1.5 1.2-2.3 2.7-2.4 1.4-.2 1.7-.1 2.8.1h.1c.6-.2 1.2-.4 3.3-.1 1.1.1 2 .2 3.2 1.1 1.1.8 1.5 1.6 1.6 3.1.2.2.7.9.9 1.6 0 .2.1.5.1.8.2.8.5 2.7.8 2.9v.1c.933.8 1.333 1.5 1.2 2.1a1.564 1.564 0 0 1-.3.4c-.4.2-.9.1-1.2 0-.2.6-.9 2-1.1 2.4-.067.067-.1.133-.1.2-.4.7-1.1 2.2-1.9 2.8-.9.6-4.1 2.1-4.9 2.3a5.07 5.07 0 0 1-1 .1Zm-2.3-19.5c-.3 0-.7.1-1.2.1-1.5.1-2 1.1-2.2 2-.2 1-.5 3.1-.4 4.2 0 .4.1.7.2 1 .1.3.2.7.1 1.2 0 .8.2 2.6.4 3.6.3 1.9 1.6 4.6 2.4 5.4.2.2.333.4.4.6.2.2.3.4.5.5.2.2 1 .2 1.3.3h.2c.6.067 1.1.033 1.5-.1.6-.1 3.8-1.6 4.6-2.2.8-.5 1.5-1.9 1.8-2.5.066-.133.1-.233.1-.3.3-.5 1.2-2.5 1.2-2.5.1-.1.2-.2.3-.1.3 0 .8.1 1 0 .1-.3 0-.8-1-1.6v-.1c-.3-.2-.6-1.3-.9-3.2-.1-.3-.1-.6-.1-.8-.2-.7-.9-1.4-.9-1.4-.067-.067-.1-.133-.1-.2 0-1.3-.4-2-1.4-2.8-1-.7-1.8-.9-2.8-1-2.1-.2-2.6-.1-3.2.1l-.1.1h-.2c-.6-.2-1-.3-1.5-.3Z" clip-rule="evenodd"/>
  <path fill="#F3B7A4" d="M31.453 14.1s.8-1.3 1.8-1.3c.9 0 .9 1.5.6 2.4-.4 1-1.7 2.8-1.7 2.8h-.4c-.4 0-.9-.6-.9-.6"/>
  <path fill="#050505" d="M31.753 18.3c-.5 0-1-.6-1.1-.7-.1-.1-.1-.3 0-.4.1-.1.3-.1.4 0 .2.3.6.5.7.5h.2c.3-.3 1.3-1.8 1.6-2.6.3-.7.3-1.5.1-1.8-.134-.133-.267-.2-.4-.2-.7 0-1.4.8-1.6 1.2 0 .1-.2.1-.3.1-.2-.1-.2-.3-.1-.4 0-.1.8-1.4 2-1.4.333 0 .6.133.8.4.4.6.3 1.6 0 2.3-.4 1-1.6 2.7-1.7 2.8 0 .1-.2.2-.6.2Z"/>
  <path fill="#050505" d="M31.753 15.6c-.1 0-.2-.1-.1-.2.133-.667.4-1.1.8-1.3.5-.2.9.1.9.1.1.1.1.2.1.3h-.3s-.3-.2-.6-.1c-.267.133-.467.5-.6 1.1-.067.067-.134.1-.2.1Z"/>
  <path fill="#B9BBC6" d="M32.852 17.8c0-.6-.5-1.1-1-1.1-.6 0-1.1.5-1.1 1.1 0 .5.5 1 1.1 1 .5 0 1-.5 1-1Z"/>
  <path fill="#050505" fill-rule="evenodd" d="M31.853 18.9c-.7 0-1.2-.5-1.2-1.1 0-.7.5-1.2 1.2-1.2.6 0 1.1.5 1.1 1.2 0 .6-.5 1.1-1.1 1.1Zm0-2c-.5 0-.9.4-.9.9 0 .4.4.8.9.8.4 0 .8-.4.8-.8 0-.5-.4-.9-.8-.9Z" clip-rule="evenodd"/>
  <path fill="#FEFEFE" d="M32.752 18c0-.4-.3-.7-.7-.7-.4 0-.7.3-.7.7 0 .4.3.7.7.7.4 0 .7-.3.7-.7Z"/>
  <path fill="#050505" fill-rule="evenodd" d="M32.053 18.9c-.5 0-.9-.4-.9-.9s.4-.9.9-.9.9.4.9.9-.4.9-.9.9Zm0-1.4c-.3 0-.6.2-.6.5s.3.5.6.5.5-.2.5-.5-.2-.5-.5-.5Z" clip-rule="evenodd"/>
  <path fill="#E12E31" d="M32.453 18.1c0-.2-.2-.3-.3-.3-.2 0-.3.1-.3.3 0 .2.1.3.3.3.1 0 .3-.1.3-.3Z"/>
  <path fill="#D49C8A" d="M27.953 13.1c0 .7-1.1 1.3-2.4 1.2-1.2 0-2.2-.6-2.2-1.3 0-.8 1.1-1.3 2.3-1.3 1.3.1 2.3.7 2.3 1.4Zm-7.3-.4c.1.7-.6 1.4-1.6 1.6-1 .1-1.9-.3-2-1-.1-.7.6-1.4 1.6-1.5 1-.2 1.9.2 2 .9Z"/>
  <path fill="#FEFEFE" d="M23.853 12.7c0 .5.6 1.1 2.1 1.1 1.5.1 1.8-.4 1.9-1 0-.5-.7-1-2.1-1.1-1.4 0-1.9.6-1.9 1Z"/>
  <path fill="#050505" fill-rule="evenodd" d="M26.153 14h-.2c-.733-.066-1.3-.2-1.7-.4-.4-.3-.6-.6-.6-.9.1-.4.5-1.2 2.1-1.1 1.7 0 2.2.7 2.2 1.2 0 .8-.6 1.2-1.8 1.2Zm-2.1-1.3c-.067.2.033.4.3.6.4.2.933.3 1.6.3 1.7.1 1.7-.6 1.7-.8 0-.4-.6-.8-1.9-.9-1.4 0-1.7.5-1.7.8Z" clip-rule="evenodd"/>
  <path fill="#FEFEFE" d="M20.253 12.8c0-.3-.1-1.1-1.7-1-1.5 0-1.4 1-1.4 1.1 0 .1 0 .9 1.4.9 1.3-.1 1.7-.7 1.7-1Z"/>
  <path fill="#050505" fill-rule="evenodd" d="M18.453 13.9c-.534 0-.9-.1-1.1-.3a.96.96 0 0 1-.3-.7c-.067-.333 0-.6.2-.8.267-.333.7-.5 1.3-.5 1.6 0 1.8.7 1.9 1.2 0 .3-.2.5-.4.7-.4.267-.9.4-1.5.4h-.1Zm.3-2h-.2c-.467.067-.834.2-1.1.4-.1.2-.1.5-.1.5v.1c0 .1 0 .3.2.5.2.133.533.2 1 .2.7 0 1.1-.2 1.3-.3.2-.2.2-.4.2-.5 0-.6-.434-.9-1.3-.9Z" clip-rule="evenodd"/>
  <path fill="#723015" d="M19.753 12.6c0-.4-.3-.7-.8-.7-.4 0-.7.4-.7.8s.4.7.8.7.7-.4.7-.8Z"/>
  <path fill="#050505" fill-rule="evenodd" d="M19.053 13.6a.96.96 0 0 1-.7-.3c-.133-.133-.2-.333-.2-.6-.067-.266 0-.5.2-.7.2-.2.4-.3.6-.3.5 0 1 .4 1 .9s-.4.9-.9 1Zm0-1.5h-.1a.887.887 0 0 0-.4.1c-.067.134-.1.3-.1.5 0 .134.067.267.2.4.067.067.2.1.4.1.3 0 .6-.3.6-.6-.1-.3-.3-.5-.6-.5Z" clip-rule="evenodd"/>
  <g opacity=".3">
    <path fill="#050505" d="M19.753 12.6c0-.4-.3-.7-.8-.7-.4 0-.7.4-.7.8 1.2-.7 1.5.3 1.5-.1Z"/>
    <path fill="#050505" fill-rule="evenodd" d="M19.753 12.9c-.067 0-.133-.033-.2-.1-.1-.1-.5-.4-1.2 0-.067.067-.133.067-.2 0v-.1c-.067-.266 0-.5.2-.7.2-.2.4-.3.6-.3.5 0 1 .4 1 .9 0 .1 0 .2-.1.3h-.1Zm-.7-.6c.2 0 .367.034.5.1-.1-.2-.3-.4-.6-.3a.887.887 0 0 0-.4.1c0 .067-.033.134-.1.2.267-.066.467-.1.6-.1Z" clip-rule="evenodd"/>
  </g>
  <path fill="#050505" d="M19.353 12.6c0-.1-.2-.3-.3-.3-.2 0-.4.2-.4.4.1.1.2.3.4.3s.3-.2.3-.4Z"/>
  <path fill="#FEFEFE" d="M19.053 12.5c0-.1-.1-.2-.2-.2s-.2.1-.2.2c0 .2.1.3.2.2.1 0 .2-.1.2-.2Z"/>
  <path fill="#723015" d="M27.053 12.7c0-.4-.3-.8-.7-.8-.4 0-.8.3-.8.7 0 .5.3.8.7.8.4 0 .8-.3.8-.7Z"/>
  <path fill="#050505" fill-rule="evenodd" d="M26.253 13.6c-.5 0-.9-.5-.9-1 0-.2.1-.4.3-.6.2-.2.433-.266.7-.2.5 0 .9.4.9.9-.1.5-.5.9-1 .9Zm0-1.5a.887.887 0 0 0-.4.1c-.067.134-.134.3-.2.5 0 .3.3.6.6.6s.6-.3.6-.6-.2-.6-.5-.6h-.1Z" clip-rule="evenodd"/>
  <g opacity=".3">
    <path fill="#050505" d="M27.053 12.7c0-.4-.3-.8-.7-.8-.4 0-.8.3-.8.7 1.3-.6 1.5.5 1.5.1Z"/>
    <path fill="#050505" fill-rule="evenodd" d="M27.053 13c-.1 0-.2-.1-.2-.1-.2-.2-.5-.5-1.2-.1h-.2c-.067-.066-.1-.133-.1-.2 0-.2.1-.4.3-.6.2-.2.433-.266.7-.2.5 0 .9.4.9.9 0 .1-.1.2-.2.2v.1Zm-.8-.7c.3 0 .5.1.6.2-.1-.3-.3-.4-.5-.4s-.367.034-.5.1c0 .067-.034.134-.1.2.2-.066.366-.1.5-.1Z" clip-rule="evenodd"/>
  </g>
  <path fill="#050505" d="M26.653 12.7c0-.2-.2-.3-.3-.3-.2-.1-.4.1-.4.3 0 .1.2.3.3.3.2 0 .4-.1.4-.3Z"/>
  <path fill="#FEFEFE" d="M26.353 12.6c0-.2-.1-.2-.2-.3-.1 0-.2.1-.2.2-.1.2 0 .3.2.3.1 0 .2-.1.2-.2Z"/>
  <path fill="#B2734F" d="M17.153 12.9c0-.1-.1-1.1 1.4-1.1 1.4-.1 1.7.6 1.7.9 0 0-.4-.5-1.5-.4-1 0-1.6.6-1.6.6Z"/>
  <path fill="#050505" fill-rule="evenodd" d="M17.153 13c-.067 0-.1-.033-.1-.1-.067-.333 0-.6.2-.8.267-.333.7-.5 1.3-.5 1.5 0 1.8.7 1.9 1.1 0 .067-.034.1-.1.1-.067.067-.134.1-.2.1v-.1s-.4-.4-1.4-.4c-.9.1-1.5.6-1.5.6h-.1Zm1.6-1.1h-.2c-.467.067-.834.2-1.1.4 0 .067-.034.133-.1.2.3-.2.8-.4 1.4-.4.5 0 .9.1 1.2.2-.267-.267-.667-.4-1.2-.4Z" clip-rule="evenodd"/>
  <path fill="#E0B4A5" d="m17.853 12.3-.3-.3.3.3Z"/>
  <path fill="#050505" d="m17.853 12.5-.1-.1-.3-.3c-.1-.1-.1-.2-.1-.2.1-.1.2-.1.3 0l.4.3v.2c-.067.067-.134.1-.2.1Z"/>
  <path fill="#E0B4A5" d="m17.453 12.6-.7-.5.7.5Z"/>
  <path fill="#050505" d="M17.453 12.8h-.1l-.7-.5c0-.1-.1-.2 0-.3.1 0 .2-.1.2 0l.7.5c.1.1.1.2 0 .3h-.1Z"/>
  <path fill="#E0B4A5" d="m17.153 13-.8-.1.8.1Z"/>
  <path fill="#050505" d="m17.153 13.1-.8-.1c-.1 0-.2 0-.2-.1s.1-.2.2-.2l.8.1c.1 0 .2.1.2.2s-.1.1-.2.1Z"/>
  <path fill="#B2734F" d="M25.753 11.7c1.4.1 2.1.6 2.1 1.1v.1s-.9-.7-1.9-.7c-1.1 0-2.1.5-2.1.5 0-.4.5-1 1.9-1Z"/>
  <path fill="#050505" fill-rule="evenodd" d="M27.853 13h-.1c-.1 0-.9-.6-1.8-.6-1-.1-2 .4-2 .4-.067.067-.133.067-.2 0-.067 0-.1-.033-.1-.1.1-.4.5-1.2 2.1-1.1 1.7 0 2.2.7 2.2 1.2v.1c0 .067-.034.1-.1.1Zm-2-1h.1c.6.1 1.2.3 1.6.5-.2-.3-.8-.6-1.8-.6s-1.4.2-1.6.5c.4-.2 1-.4 1.7-.4Z" clip-rule="evenodd"/>
  <path fill="#E0B4A5" d="m26.953 12.4.8-.5-.8.5Z"/>
  <path fill="#050505" d="m26.953 12.6-.1-.1c0-.1 0-.2.1-.2l.7-.5c.1 0 .2 0 .3.1 0 0 0 .1-.1.2l-.8.5h-.1Z"/>
  <path fill="#E0B4A5" d="m27.453 12.6.9-.4-.9.4Z"/>
  <path fill="#050505" d="M27.453 12.8c-.067 0-.1-.066-.1-.2-.1 0 0-.1.1-.2l.8-.3c.1 0 .2 0 .2.1.1.1 0 .2-.1.2l-.8.3-.1.1Z"/>
  <path fill="#050505" d="M27.753 12.9c-.1 0-.2-.1-.2-.2s.1-.1.2-.1l.9-.1c.1 0 .2.1.2.1 0 .1-.1.2-.2.2l-.9.1Z"/>
  <path fill="#1A1A1A" d="M24.853 19.2s-1.7.2-3 .3c-1.2.1-1.7.3-1.6.6.1.4.3.9 1.9.7 1.5-.1 2.7-1.6 2.7-1.6Z"/>
  <path fill="#FEFEFE" d="M20.253 19.5v.7s3.2.2 3.9-.5c.4-.3-3.9-.2-3.9-.2Z"/>
  <path fill="#050505" fill-rule="evenodd" d="M21.353 20.4c-.6 0-1-.1-1.1-.1-.067 0-.1-.034-.1-.1v-.7c0-.1.1-.2.1-.2h2c2 .1 2 .2 2.1.3 0 .066-.034.133-.1.2-.5.5-1.9.6-2.9.6Zm-.9-.3c.9 0 2.8 0 3.5-.4-.5-.1-2.1-.1-3.5-.1v.5Z" clip-rule="evenodd"/>
  <path fill="#D0252C" d="M24.853 19.4c-.3.7-1.9 1.9-3.2 2-1.4.1-1.6-.7-1.6-.7 0-.3.1-.3.5-.2.3.1 1.2.2 2.2.1 1.2-.2 2.1-1.2 2.1-1.2Z"/>
  <path fill="#050505" fill-rule="evenodd" d="M21.453 21.5c-1.3 0-1.5-.7-1.5-.7v-.1c0-.1 0-.3.1-.4.2-.1.3 0 .6.1s1.1.1 2.1 0c1.1-.1 2-1.1 2-1.1.066-.067.133-.067.2 0 .066 0 .066.033 0 .1-.2.8-1.9 2.1-3.3 2.1h-.2Zm-1.2-.8c0 .1.3.6 1.4.6.8-.1 1.7-.5 2.3-1-.4.2-.7.3-1.2.4-.9.1-1.9 0-2.2-.1-.3-.1-.3 0-.3 0v.1Z" clip-rule="evenodd"/>
  <path fill="#D0252C" d="M24.853 19.3s-2.3 1-5.1.3c.267-.067.467-.167.6-.3.2-.1.4-.3.8-.1.4.3.4.2.5.2.2-.1.5-.3.8-.2.2.1 1.3.4 2.4.1Z"/>
  <path fill="#050505" fill-rule="evenodd" d="M21.853 20c-.6 0-1.4-.1-2.1-.3-.067 0-.1-.067-.1-.2 0-.067.033-.1.1-.1.2 0 .4-.067.6-.2v-.1c.2-.1.4-.3.8 0 .3.2.4.2.4.2 0-.067.033-.1.1-.1h.1c.2-.1.5-.3.7-.1.3.1 1.3.4 2.4.1.066-.067.1-.067.1 0 .067.133.067.2 0 .2-.1 0-1.3.6-3.1.6Zm-1.6-.5c1.3.3 2.4.2 3.2 0-.5 0-.9-.1-1.1-.2-.1-.1-.4.1-.5.1l-.1.1h-.1c-.1.1-.2.1-.6-.2-.3-.1-.4-.1-.5 0 0 .066-.034.1-.1.1-.067.067-.133.1-.2.1Z" clip-rule="evenodd"/>
  <path fill="#F3B7A4" d="M21.453 12.5c-.5 1.6-.2.8-.9 2.9-.2.4-.5 1.5-.6 1.8 0 .6.8.8 1.1.9.3 0 .3 0 .9-.4h.4c.2 0 .4.2.5.2.2 0 .5 0 .5-.4"/>
  <path fill="#050505" d="M21.253 18.3h-.2c-.2-.1-.7-.2-1-.5-.2-.2-.267-.4-.2-.6 0-.3.3-1.5.5-1.9.5-1.3.5-1.4.6-1.8.1-.2.2-.5.3-1 0-.1.2-.2.3-.2.1.1.1.2.1.3-.2.5-.2.8-.3 1-.1.4-.1.5-.6 1.9-.2.3-.5 1.4-.6 1.7 0 .133.033.233.1.3.2.3.7.4.8.4h.1c.2 0 .2 0 .7-.3h.1s.2-.1.4-.1c.133.066.266.1.4.1l.1.1c.133 0 .233-.034.3-.1v-.1c0-.1.1-.2.2-.2s.2.1.2.2c0 .2-.1.3-.2.4-.1.1-.3.2-.5.2-.067-.067-.167-.1-.3-.1-.067-.067-.134-.1-.2-.1h-.4c-.4.3-.5.4-.7.4Zm-5-7.5s.1-.6 1-.6c1.6 0 2.7.5 2.7.5l.1.3c.1.1.1.2-.3.2-.3 0-1.4-.5-2.4-.4-1.1 0-1.1.3-1.1.3v-.3Zm7.6-.1s1.9-.5 2.9-.5c1.3.1 2.3 1 2.4 1.1.1 0 .1.2 0 .2-.1-.1-.8-.4-1.5-.6 0 0-.9-.2-1.9-.1-1 .1-2 .4-2 .4-.1 0-.1 0-.2-.2 0-.3.3-.3.3-.3Z"/>
  <path fill="#DD4297" d="m66.253 54.1-33.6-2.1.7-4.7 33.1 2-.2 4.8Zm1.9 10.6-60.8-3.9.2-4.7 60.8 3.8-.2 4.8Z"/>
  <path fill="#FEFEFE" fill-rule="evenodd" d="M14.753 45.4c.9.1 1.9.2 1.3 3.1-.6 2.7-1.5 2.7-2.9 2.7l-.5-.1 1.2-5.7h.9Zm-.2.6-1 4.5c1.3.1 1.5-1.1 1.7-2.1.2-.9.6-2.4-.7-2.4Z" clip-rule="evenodd"/>
  <path fill="#FEFEFE" d="M16.753 51.3h-.7l1.2-5.8.8.1-1.3 5.7Zm.8-6.1-.3-.2.8-1.1.5.4-1 .9Z"/>
  <path fill="#FEFEFE" fill-rule="evenodd" d="M20.253 45.7v5.8h-.8v-1.1l-1.1-.1-.5 1.1h-.7l2.4-5.7h.7Zm-.6 3.2.1-2.1-1.1 2.9h.9l.1-.8Zm4.4-3c.9.1 1.9.2 1.3 3.1-.6 2.7-1.5 2.7-2.9 2.7l-.5-.1 1.2-5.7h.9Zm-.2.6-1 4.5c1.3.1 1.5-1.1 1.7-2.1.2-.9.6-2.4-.7-2.4Z" clip-rule="evenodd"/>
  <path fill="#FEFEFE" d="m28.653 46.2-.2.6-1.3-.1-.3 1.9h1.1l-.1.7-1.2-.1-.4 2 1.3.1-.1.6-2.1-.1 1.2-5.8 2.1.2Zm1.2 0-1.1 5.1 1.3.1-.2.6-2-.1 1.2-5.7h.8Zm8.8 7.4-2.3-.1-1.3-7.7 2.4.1.6 4.6 2.4-4.4 2.5.1-4.3 7.4Z"/>
  <path fill="#FEFEFE" fill-rule="evenodd" d="M46.853 46.3c1.133.067 2 .5 2.6 1.3.6.8.8 1.734.6 2.8-.2 1.134-.767 2.034-1.7 2.7-.933.734-1.967 1.067-3.1 1-1.067-.066-1.933-.5-2.6-1.3-.6-.8-.8-1.733-.6-2.8.2-1.066.767-1.966 1.7-2.7.933-.733 1.967-1.066 3.1-1Zm-1.1 5.7c.4 0 .8-.166 1.2-.5.4-.333.667-.733.8-1.2a1.81 1.81 0 0 0-.3-1.3 1.58 1.58 0 0 0-1-.6c-.467 0-.9.167-1.3.5-.4.334-.633.734-.7 1.2-.133.534-.067.967.2 1.3.267.4.633.6 1.1.6Z" clip-rule="evenodd"/>
  <path fill="#FEFEFE" d="m52.653 48.9-2.1-.1.5-2.1 6.4.3-.4 2.1-2.1-.1-1 5.4-2.3-.1 1-5.4Z"/>
  <path fill="#FEFEFE" fill-rule="evenodd" d="M61.753 47.1c1.133.067 2 .5 2.6 1.3.6.8.8 1.733.6 2.8-.2 1.133-.767 2.033-1.7 2.7-.933.733-1.933 1.067-3 1-1.133-.066-2.033-.5-2.7-1.3-.6-.8-.8-1.733-.6-2.8.2-1.067.767-1.966 1.7-2.7.933-.733 1.967-1.067 3.1-1Zm-1.1 5.7c.467 0 .867-.167 1.2-.5.4-.333.667-.733.8-1.2a1.81 1.81 0 0 0-.3-1.3 1.58 1.58 0 0 0-1-.6c-.467 0-.9.167-1.3.5-.4.333-.633.733-.7 1.2-.133.534-.067.967.2 1.3.267.4.633.6 1.1.6Z" clip-rule="evenodd"/>
  <path fill="#FEFEFE" d="m11.853 62.8-2.2-.1 1.5-7.5 5.5.3-.5 2.1-3.2-.2-.2 1.1 3 .1-.4 2-3-.2-.5 2.4Zm7.5-5-.1.7 3 .2-.4 1.9-3-.2-.1.7 3.2.2-.4 2.1-5.5-.3 1.5-7.6 5.5.4-.4 2.1-3.3-.2Zm7.7 5h-.6l-1-2.3-.6 3.1-2.3-.2 1.6-7.5 2.1.1 1.3 3 2.4-2.7 2.1.1-1.5 7.5-2.2-.1.6-3.1-1.9 2.1Zm8.1-4.1-.2.7 3 .2-.4 1.9-2.9-.1-.2.6 3.3.2-.5 2.1-5.5-.3 1.6-7.5 5.5.3-.5 2.1-3.2-.2Zm11.5-1.5-1.5 7.6-2.1-.2-1.8-3.4-.6 3.3-2.3-.1 1.5-7.6 2.1.2 1.7 3.4.7-3.3 2.3.1Zm-.3 7.6 1.5-7.5 2.2.1-1.5 7.6-2.2-.2Zm11.7-6.9-1.5 7.5-2.1-.1-1.7-3.4-.7 3.3-2.3-.2 1.5-7.5 2.1.1 1.8 3.5.6-3.3 2.3.1Z"/>
  <path fill="#FEFEFE" fill-rule="evenodd" d="M63.153 58.1c1.133.067 2 .5 2.6 1.3.6.8.8 1.734.6 2.8-.2 1.067-.767 1.967-1.7 2.7-.933.734-1.967 1.067-3.1 1-1.133-.066-2-.5-2.6-1.3-.6-.8-.8-1.766-.6-2.9.267-1.066.833-1.966 1.7-2.7a4.712 4.712 0 0 1 3.1-.9Zm-1.1 5.7c.4 0 .8-.166 1.2-.5.4-.333.667-.733.8-1.2.067-.533-.033-.966-.3-1.3-.267-.4-.6-.6-1-.6-.467 0-.9.134-1.3.4-.4.334-.633.767-.7 1.3-.133.467-.067.9.2 1.3.267.334.633.534 1.1.6Z" clip-rule="evenodd"/>
  <defs>
    <linearGradient id="b" x1="17.853" x2="18.053" y1="18.4" y2="16.9" gradientUnits="userSpaceOnUse">
      <stop stop-color="#F3B7A4"/>
      <stop offset="1" stop-color="#F1A6A7"/>
    </linearGradient>
    <linearGradient id="c" x1="25.752" x2="26.752" y1="18.2" y2="16.9" gradientUnits="userSpaceOnUse">
      <stop stop-color="#F3B7A4"/>
      <stop offset="1" stop-color="#F1A6A7"/>
    </linearGradient>
  </defs>
</svg>
