<svg xmlns="http://www.w3.org/2000/svg" width="100" height="169" fill="none" viewBox="0 0 100 169">
  <path fill="#ED4997" d="m6.8 155.9 72.6 4.5L83.8 86l-70-3.3-7 73.2Z"/>
  <path fill="#7C265A" d="m0 164.5 71.9-3.1-65.1-5.5 7-73.2L5 91l-5 73.5Z"/>
  <path fill="#AB3878" d="m70 168.5 9.4-8.1-72.6-4.5-6.8 8.6 70 4Z"/>
  <mask id="a" width="80" height="14" x="0" y="155" maskUnits="userSpaceOnUse" style="mask-type:alpha">
    <path fill="#AB3878" d="m70 168.5 9.4-8.1-72.6-4.5-6.8 8.6 70 4Z"/>
  </mask>
  <g mask="url(#a)">
    <mask id="b" width="142" height="106" x="-62" y="155" maskUnits="userSpaceOnUse" style="mask-type:luminance">
      <path fill="#fff" d="m-61.54 233.17 45.43 27.16 95.59-99.89-72.67-4.54-68.35 77.27Z"/>
    </mask>
    <g mask="url(#b)">
      <path stroke="#ED4592" stroke-width=".4" d="m82.4 109.601-113 131.8m113.3-127.2-113 131.7m111.6-125.4-103.6 120.9M80 126.701l-103.6 121m102.3-114.7-93.7 109.4m92.7-103.1-94 109.4m92.6-103.2-93.6 109.5m92.3-103.2-93.7 108.9m92.4-102.7-95 109.5m98-108-99.8 112.4m62.8-131.8-85.7 100m84.5-93.6-76.6 88.3m75.2-82.1-75.9 87.6m79.3-86.5-69.3 80.4m55.5-96.5-87.5 99.9m82.7-100.6-87.2 100m90.2-92.9-76.6 88.3m75.2-82.1-75.4 87.6m78.4-86.6-69.2 80.4"/>
    </g>
  </g>
  <path fill="#FEFEFE" fill-rule="evenodd" d="M28.6 126.8c.9 0 2 0 1.7 3.1-.3 2.8-1.2 3-2.7 3.1h-.5l.6-6.1.9-.1Zm-.2.7-.5 4.7c1.4 0 1.4-1.3 1.5-2.3.1-1 .4-2.6-1-2.4Z" clip-rule="evenodd"/>
  <path fill="#FEFEFE" d="m31.4 132.7-.8.1.6-6.1.8-.1-.6 6.1Zm.2-6.3-.4-.2.8-1.3.5.4-.9 1.1Z"/>
  <path fill="#FEFEFE" fill-rule="evenodd" d="m34.3 126.5.7 6-.8.1-.1-1.2-1.2.1-.4 1.2h-.8l1.9-6.2h.7Zm-.3 3.4-.1-2.2-.8 3.2 1-.1-.1-.9Z" clip-rule="evenodd"/>
  <path fill="#FEFEFE" d="m37.9 128.1-.1 2-.2 2.3h-.8l.6-6.1h.7l1 4.5.1-2.4.2-2.2h.8l-.6 6.1h-.8l-.9-4.6v.4Z"/>
  <path fill="#FEFEFE" fill-rule="evenodd" d="m42.4 126 .7 6.1h-.8l-.1-1.2-1.2.1-.3 1.2-.8.1 1.9-6.2.6-.1Zm-.3 3.4-.1-2.2-.8 3.1.9-.1v-.8Z" clip-rule="evenodd"/>
  <path fill="#FEFEFE" d="M46.3 126.6c-.1 0-.3-.1-.5-.1-1.1.1-1.3 1.7-1.3 2.5-.1.8-.2 2.3.9 2.3.2-.066.367-.133.5-.2l-.1.7c-.2.134-.4.2-.6.2-1.7.1-1.7-1.6-1.6-2.9.1-1.2.5-3.2 2.1-3.3.3-.1.5 0 .7.1l-.1.7Zm.7 5.2-.8.1.6-6.1.8-.1-.6 6.1Z"/>
  <path fill="#FEFEFE" fill-rule="evenodd" d="M51.1 128.6c-.1 1.1-.3 3.1-1.9 3.2-1.5.1-1.4-2-1.2-3.1.1-1.1.3-3.099 1.8-3.199 1.6-.1 1.4 1.999 1.3 3.099Zm-2.3.1c-.1 1.3-.1 2.401.5 2.301.6 0 .8-1.101 1-2.401.1-1.3.1-2.4-.5-2.3-.7 0-.9 1.1-1 2.4Z" clip-rule="evenodd"/>
  <path fill="#FEFEFE" d="M52.5 127.2v2.1l-.3 2.2-.8.1.6-6.1.8-.1 1 4.6v-2.5l.2-2.1.8-.1-.6 6.1-.7.1-1-4.7v.4Z"/>
  <path fill="#FEFEFE" fill-rule="evenodd" d="m57.1 125.2.7 6-.8.1-.1-1.2h-1.2l-.4 1.3h-.7l1.9-6.2h.6Zm-.4 3.4-.1-2.2-.8 3.1h1l-.1-.9Z" clip-rule="evenodd"/>
  <path fill="#FEFEFE" d="m59.5 125-.5 5.4h1.4l-.1.7-2.2.1.6-6.1.8-.1Z"/>
  <path fill="#FEFEFE" fill-rule="evenodd" d="M63.5 124.8c1-.1 2.1-.1 1.8 3-.3 2.9-1.3 3-2.7 3.1l-.6.1.6-6.1.9-.1Zm-.1.6-.5 4.8c1.3-.1 1.4-1.3 1.5-2.4.1-.9.4-2.5-1-2.4Z" clip-rule="evenodd"/>
  <path fill="#FEFEFE" d="M68.3 124.5v.7l-1.4.1-.2 1.9h1.2v.7h-1.2l-.2 2.1 1.3-.1-.1.7-2.1.2.6-6.2 2.1-.1Zm2.7-.1-.5 5.4 1.3-.1v.7l-2.2.1.6-6.1h.8Z"/>
  <path fill="#FEFEFE" fill-rule="evenodd" d="m74.2 124.2.7 6-.8.1-.2-1.2h-1.2l-.3 1.3h-.8l1.9-6.2h.7Zm-.3 3.4-.1-2.2-.8 3.1h1l-.1-.9Z" clip-rule="evenodd"/>
  <path fill="#20B04B" d="m99.2 136.9-73.9 4.6-.1-4.7 73.7-4.6.3 4.7Z"/>
  <path fill="#FEFEFE" d="M35.1 139.3a5.066 5.066 0 0 1-1.5 2.4c-.8.667-1.7 1.034-2.7 1.1-1.067.067-1.967-.266-2.7-1-.667-.666-.967-1.533-.9-2.6.133-1.133.6-2.1 1.4-2.9.8-.8 1.767-1.233 2.9-1.3.933 0 1.733.267 2.4.8.667.6 1.067 1.367 1.2 2.3l-2.4.1a1.28 1.28 0 0 0-.5-.8c-.267-.2-.567-.266-.9-.2-.467 0-.867.167-1.2.5-.333.4-.5.834-.5 1.3-.067.534.033.967.3 1.3.267.267.633.4 1.1.4.333 0 .633-.133.9-.4.333-.2.567-.5.7-.9l2.4-.1Z"/>
  <path fill="#FEFEFE" fill-rule="evenodd" d="M40.1 134.6c1.067-.066 1.967.234 2.7.901.667.733.967 1.633.9 2.699-.133 1.067-.6 2.001-1.4 2.801-.8.8-1.767 1.233-2.9 1.299-1.067.067-1.967-.266-2.7-1-.667-.666-.967-1.533-.9-2.6.133-1.133.6-2.1 1.4-2.9.8-.8 1.767-1.2 2.9-1.2Zm-.5 5.6c.467 0 .867-.2 1.2-.6.333-.333.533-.766.6-1.3 0-.466-.133-.866-.4-1.2-.267-.333-.633-.466-1.1-.4-.467 0-.867.167-1.2.5-.333.4-.533.834-.6 1.301 0 .533.133.966.4 1.299.267.267.633.4 1.1.4Z" clip-rule="evenodd"/>
  <path fill="#FEFEFE" d="m51.7 134-.7 7.5-2 .1-2.1-3.1-.3 3.3-2.2.1.6-7.5 2-.1 2.2 3.1.2-3.3 2.3-.1Zm8.5 3.8c-.267 1-.8 1.834-1.6 2.5-.733.667-1.6 1-2.6 1-1.133.067-2.033-.233-2.7-.9-.666-.733-.966-1.633-.9-2.7.067-1.066.534-2 1.4-2.8.8-.8 1.733-1.233 2.8-1.3 1-.066 1.834.2 2.5.8.667.534 1.067 1.267 1.2 2.2l-2.4.2a1.821 1.821 0 0 0-.6-.8c-.267-.2-.533-.3-.8-.3-.467 0-.867.2-1.2.6-.333.334-.533.767-.6 1.3-.067.467.067.867.4 1.2.267.334.633.467 1.1.4.333 0 .633-.1.9-.3.267-.266.5-.566.7-.9l2.4-.2Zm.5 3.1.6-7.5 2.2-.1-.6 7.5-2.2.1Zm6.1-5.7-.1.7 2.9-.1-.1 1.9-2.9.2-.1.6 3.2-.2-.2 2.1-5.4.3.6-7.5 5.4-.3-.2 2.1-3.1.2Zm11-2.7-.6 7.5-2.1.1L73 137l-.2 3.2-2.3.2.7-7.5 2-.2 2.1 3.2.3-3.3 2.2-.1Zm8.5 3.8c-.267.933-.8 1.733-1.6 2.4a4.17 4.17 0 0 1-2.6 1.1c-1.067.067-1.967-.233-2.7-.9-.667-.733-.967-1.633-.9-2.7.133-1.133.6-2.1 1.4-2.9.8-.733 1.767-1.133 2.9-1.2.933-.067 1.733.167 2.4.7.667.6 1.067 1.367 1.2 2.3l-2.4.2c-.133-.4-.3-.7-.5-.9a1.082 1.082 0 0 0-.9-.2c-.467 0-.867.167-1.2.5-.333.4-.533.833-.6 1.3 0 .533.133.967.4 1.3.267.333.633.467 1.1.4.333 0 .633-.133.9-.4.333-.2.567-.5.7-.9l2.4-.1Zm.6 3.1.6-7.5 2.2-.1-.6 7.5-2.2.1Z"/>
  <path fill="#FEFEFE" fill-rule="evenodd" d="m95.4 131.4 2.1 7.4-2.4.1-.2-.7-2.4.1-.3.8-2.4.1 3.3-7.6 2.3-.2Zm-2 4.7 1-.1-.4-1.5-.6 1.6Z" clip-rule="evenodd"/>
  <path fill="#20B04B" d="m89 147.9-63.3 3.3-.1-4.6 63-3.3.4 4.6Z"/>
  <path fill="#FEFEFE" fill-rule="evenodd" d="m32.1 144.8 2.1 7.4-2.4.1-.2-.8-2.4.1-.3.8-2.4.2 3.4-7.7 2.2-.1Zm-2 4.7h1l-.4-1.6-.6 1.6Z" clip-rule="evenodd"/>
  <path fill="#FEFEFE" d="m39.2 151-.6.1-1.2-2.2-.2 3.1-2.3.1.7-7.5 2.1-.1 1.6 2.8 2.1-3 2-.1-.6 7.5-2.2.1.2-3.1-1.6 2.3Z"/>
  <path fill="#FEFEFE" fill-rule="evenodd" d="m44 151.6.6-7.5 3.3-.1h.2c.133 0 .333.033.6.1.267.067.5.133.7.2.2.133.4.333.6.6.133.267.2.6.2 1-.067.6-.3 1.1-.7 1.5.533.4.767.933.7 1.6-.133 1.533-1.233 2.367-3.3 2.5l-2.9.1Zm2.4-2.2 1-.1c.267 0 .433-.133.5-.4 0-.267-.167-.4-.5-.4l-.9.1-.1.8Zm.2-2.5h.9c.1 0 .3-.2.4-.5 0-.3-.2-.3-.3-.3h-.9l-.1.8Z" clip-rule="evenodd"/>
  <path fill="#FEFEFE" d="m50.9 151.3.6-7.5 2.3-.1-.7 7.5-2.2.1Zm6.1-5.7-.1.7 2.9-.2-.1 2-2.9.1-.1.7 3.2-.2-.2 2.1-5.4.3.6-7.5 5.4-.3-.1 2.1-3.2.2Zm11-2.7-.6 7.5-2.1.1-2.1-3.1-.2 3.2-2.3.1.7-7.4 2-.2 2.1 3.2.3-3.3 2.2-.1Zm2.7 2-2 .1.2-2.1 6.3-.4-.2 2.1-2 .1-.5 5.4-2.2.1.4-5.3Z"/>
  <path fill="#FEFEFE" fill-rule="evenodd" d="m79.3 142.3 2.1 7.3-2.4.2-.2-.8-2.4.1-.3.8-2.5.2 3.4-7.7 2.3-.1Zm-2 4.7h1l-.4-1.6-.6 1.6Z" clip-rule="evenodd"/>
  <path fill="#FEFEFE" d="m85 142-.5 5.4 3.2-.2-.2 2.1-5.4.3.6-7.5 2.3-.1Z"/>
  <path fill="#503413" d="M14.2 152.2h-2.6v-10.1h2.6v10.1Z"/>
  <path fill="url(#c)" d="M14.2 152.2h-1.3v-10.1h1.3v10.1Z" opacity=".2" style="mix-blend-mode:multiply"/>
  <path fill="#62A243" d="M22.4 138.1c0 5.3-4.2 9.6-9.5 9.6s-9.5-4.3-9.5-9.6c0-5.2 4.2-9.5 9.5-9.5s9.5 4.3 9.5 9.5Z"/>
  <path fill="#050505" d="M17.2 152.2c0 .3-1.9.6-4.3.6s-4.3-.3-4.3-.6 1.9-.6 4.3-.6 4.3.3 4.3.6Z" opacity=".1"/>
  <path fill="#62A243" d="M17.9 120.7c0 2.8-2.2 5-5 5s-5-2.2-5-5 2.2-5 5-5 5 2.2 5 5Z"/>
  <path fill="#62A243" d="M19.9 127.7c0 3.9-3.1 7-7 7s-7-3.1-7-7 3.1-7 7-7 7 3.1 7 7Z"/>
  <path fill="url(#d)" d="M19.1 130.9c.5-1 .8-2 .8-3.2 0-2.1-.9-3.9-2.3-5.2.2-.533.3-1.133.3-1.8 0-2.8-2.2-5-5-5-.534 0-1.067.067-1.6.2 2 .7 3.5 2.6 3.5 4.8a7.137 7.137 0 0 1-.4 1.8c1.4 1.3 2.3 3.1 2.3 5.2 0 1.2-.2 2.2-.7 3.2 2 1.8 3.3 4.3 3.3 7.2 0 4.8-3.5 8.7-8 9.4.533.134 1.066.2 1.6.2 5.3 0 9.5-4.3 9.5-9.6 0-2.9-1.3-5.4-3.3-7.2Z" opacity=".2" style="mix-blend-mode:multiply"/>
  <path stroke="#FEFEFE" stroke-linecap="round" stroke-linejoin="round" stroke-width=".4" d="M5.5 134.5c.7-1.7 2.1-3 3.8-3.5m.1-12.7c.2-.334.467-.6.8-.8M7.8 125c.5-.8 1.1-1.5 1.9-1.9" opacity=".3"/>
  <path fill="#050505" d="M81.1 92.7c0 .7-6.4 1.3-14.2 1.3-7.8 0-14.1-.6-14.1-1.3 0-.8 6.3-1.3 14.1-1.3s14.2.5 14.2 1.3Zm-40.5-4.1c0 .7-5.7 1.3-12.7 1.3-7 0-12.7-.6-12.7-1.3 0-.7 5.7-1.3 12.7-1.3 7 0 12.7.6 12.7 1.3Z" opacity=".3"/>
  <path fill="#831618" d="M73.2 70.7s10.7 3.1 9.9 7.1c-.7 4-3.3 11-10.9 6.3-7.6-4.6 1-13.4 1-13.4Z"/>
  <path fill="#050505" fill-rule="evenodd" d="M76.7 85.9c-1.4 0-2.933-.534-4.6-1.6-1.867-1.2-2.933-2.7-3.2-4.5-.3-2.3.9-4.7 1.9-6.3 1-1.7 2.2-2.9 2.2-2.9.067-.067.133-.1.2-.1.5.1 10.9 3.2 10.1 7.3-.3 1.8-1.4 6.3-4.5 7.6-.667.333-1.367.5-2.1.5Zm-3.5-15c-.6.7-4.4 5-3.9 8.9.2 1.666 1.2 3.067 3 4.2 2.467 1.467 4.567 1.833 6.3 1.1 2.9-1.3 4-5.6 4.3-7.4.7-3.5-8.5-6.4-9.7-6.8Z" clip-rule="evenodd"/>
  <path fill="#050505" d="M71.1 90.8s.5.9-1.2 1.8l8.4-.2-.3-1.8-6.9.2Z"/>
  <path fill="#050505" fill-rule="evenodd" d="m78.3 92.6-8.4.2c-.067 0-.133-.067-.2-.2 0-.067.033-.133.1-.2.6-.267.967-.6 1.1-1 .1-.3 0-.5 0-.5-.067-.067-.067-.133 0-.2s.133-.1.2-.1l6.9-.2c.1 0 .1.1.2.2l.3 1.7v.2c-.067.067-.133.1-.2.1Zm-7.7-.2 7.5-.2-.3-1.4-6.5.2c.067.133.067.3 0 .5-.133.333-.367.633-.7.9Z" clip-rule="evenodd"/>
  <path fill="#2B6EB6" d="m77.4 84.6 1 6.5-7.5.4-2-6.2"/>
  <path fill="#050505" d="m78.4 91.3-7.5.4c-.133 0-.2-.067-.2-.2l-2-6.1c0-.1.1-.2.2-.2.1-.1.2 0 .2.1l1.9 6 7.2-.4-1-6.3c0-.1.1-.2.2-.2.1-.1.2 0 .2.1l1 6.6c0 .066-.033.1-.1.1 0 .066-.033.1-.1.1Z"/>
  <path fill="#050505" d="M78.2 90.4s-.4-1.8-1.9-1.8-5.6 1-6.1 1.1l-.4-1.8 8-1.4s.2 2.6.4 3.9Z" opacity=".2" style="mix-blend-mode:multiply"/>
  <path fill="#050505" d="M59.4 91s.3.8-2.1 1.8l8.4-.2.4-1.8-6.7.2Z"/>
  <path fill="#050505" fill-rule="evenodd" d="m65.7 92.8-8.4.2c-.1 0-.2-.1-.2-.1 0-.1 0-.2.1-.3 2.1-.8 2.1-1.5 2.1-1.6-.067 0-.067-.033 0-.1 0-.067.033-.1.1-.1l6.7-.2c.067 0 .1.034.1.1.067.067.1.133.1.2l-.4 1.8c-.067.067-.133.1-.2.1Zm-7.5-.2 7.3-.2.3-1.4-6.2.2c0 .3-.3.8-1.4 1.4Z" clip-rule="evenodd"/>
  <path fill="#2B6EB6" d="m60.6 84.9-1.4 6.2 7.1.3 2.6-6.3"/>
  <path fill="#050505" d="m66.3 91.6-7.1-.3c-.067 0-.133-.033-.2-.1v-.1l1.4-6.2c0-.2.1-.2.2-.2s.2.1.2.2l-1.4 6 6.8.3 2.5-6.1c0-.1.1-.2.2-.2.1.1.2.2.1.3l-2.5 6.2c0 .067-.067.133-.2.2Z"/>
  <path fill="#050505" d="M66.8 90.1s-1.7.1-3.3-.3c-1.5-.4-4-.6-4-.6l.7-2.9 7.7.8-1.1 3Z" opacity=".2" style="mix-blend-mode:multiply"/>
  <path fill="#B3805F" d="M55.6 65.9s-1.9-1.4-1.9-3.2c0-1.7 3.3-3.4 4.4-1.5.9 1.6.8 2.8.4 3.2-.5.3-2.9 1.5-2.9 1.5Z"/>
  <path fill="#050505" fill-rule="evenodd" d="M55.6 66.1h-.1c-.1-.1-2-1.5-2-3.4 0-1.1 1.2-2.1 2.3-2.4 1.1-.3 2 0 2.4.8 1 1.7 1 3 .4 3.4-.5.4-2.8 1.5-2.9 1.6h-.1Zm.8-5.6c-.2.066-.367.1-.5.1-.9.3-2 1.2-2 2.1 0 1.5 1.4 2.7 1.7 3 .8-.4 2.4-1.2 2.8-1.5.3-.3.4-1.4-.5-2.9-.4-.7-1-.8-1.5-.8Z" clip-rule="evenodd"/>
  <path fill="#050505" fill-rule="evenodd" d="M55 64.2c-.6 0-1.1-.1-1.2-.4 0-.1 0-.2.1-.2.1-.1.2 0 .3.1 0 0 .5.2 1.2 0 .5-.1 2.1-.5 1.8-1.6 0-.1.1-.2.2-.3.1 0 .2.1.2.2.3 1.5-1.5 2-2.1 2.1-.2.067-.367.1-.5.1Z" clip-rule="evenodd"/>
  <path fill="#B3805F" d="M58.4 61.8c0-.4-.4-.6-.7-.6l-1 .2c-.4 0-.6.3-.6.6.1.4.4.6.7.6h.7"/>
  <path fill="#050505" d="M57.5 62.8h-.7c-.2 0-.4-.067-.6-.2a1.256 1.256 0 0 1-.3-.5c0-.267.067-.467.2-.6.133-.2.3-.3.5-.3l1.1-.2c.4 0 .8.3.9.8 0 .1-.1.2-.2.2s-.2-.1-.2-.2c0-.2-.2-.4-.5-.4l-1 .2c-.133 0-.233.033-.3.1-.067.067-.1.167-.1.3 0 .133.067.233.2.3.067.067.167.1.3.1h.7c.1 0 .2.1.2.2s-.1.2-.2.2Z"/>
  <path fill="#050505" d="M57.3 62.6s-1.2.2-1.2-.5c.1-.7-.2-.5-.2-.5s-.5.5-.2 1.2 1.7.5 1.6-.2Z" opacity=".1" style="mix-blend-mode:multiply"/>
  <path fill="#050505" d="M57.5 62.6s.2.7-.7 1.3c-.8.6-1.3.8-1.1 1.1.1.2.4.5.2.7-.2.2-1-.1-1.3-.7-.3-.5-.5-1.1-.5-1.1s1.5.4 2.1 0c.6-.4 1.3-1.3 1.3-1.3Z" opacity=".1" style="mix-blend-mode:multiply"/>
  <path fill="#F1F1F1" d="M65.5 77.5c2.4-1.7.9-3.6.9-3.6l-7.2-11.1-5.1 2.9 7.6 11.6s1.2 2.1 3.8.2Z"/>
  <path fill="#050505" fill-rule="evenodd" d="M63.6 78.5c-.2 0-.4-.034-.6-.1-.9-.2-1.4-.9-1.4-1L54 65.8c-.067-.067-.1-.134-.1-.2l.1-.1 5.1-2.9c.1 0 .2 0 .3.1l7.1 11c.1.1.7.9.5 2-.133.733-.6 1.4-1.4 2-.667.466-1.333.733-2 .8Zm-9.2-12.8 7.5 11.5s.4.7 1.2.9c.667.133 1.433-.1 2.3-.7.733-.534 1.133-1.134 1.2-1.8.2-.9-.4-1.6-.4-1.6l-7-11-4.8 2.7Z" clip-rule="evenodd"/>
  <path fill="#050505" d="M60.2 71.2c-2.2-1.4-3.7-5.7-2.7-6.4.6-.4 1.5-1.1 2.1-1.5l6.8 10.6s1.5 1.9-.9 3.6c-2.6 1.9-3.8-.2-3.8-.2l-2.9-4.4c1.7-.2 3.4-.5 1.4-1.7Z" opacity=".1" style="mix-blend-mode:multiply"/>
  <path fill="#F1F1F1" d="M69.3 75.799s-2.5-2.5-3.4-2.7c-.9-.2-1.6-.7-2.4.2-.8 1.1-3.1 4.5-4.4 11.2.4 1.4 2.2 2.2 5.6 2.8 4.5.9 7.3.7 10.5.7 3.1.1 4-.2 3.9-.6-.9-10.1 1.2-13.4 1.2-13.4l-5.7.2-5.3 1.6Z"/>
  <path fill="#050505" fill-rule="evenodd" d="M77.5 88.2h-4.4c-2.4 0-4.9 0-8.5-.7-3.6-.7-5.3-1.6-5.7-3v-.1c1.3-6.7 3.6-10.1 4.5-11.2.7-.9 1.4-.6 2.1-.4.133.066.267.1.4.1.9.2 2.9 2.2 3.4 2.7l5.2-1.6h.1l5.7-.2c.067 0 .133.033.2.1v.2c-.1.1-2.1 3.4-1.2 13.3a.886.886 0 0 1-.1.4c-.2.1-.5.3-1.7.4Zm-18.2-3.7c.4 1.2 2 2 5.4 2.6 3.5.7 6 .7 8.4.7h2.1c2.8.1 3.6-.1 3.7-.3-.8-8.5.6-12.2 1.1-13.3l-5.4.2-5.3 1.6c-.067.066-.133.066-.2 0-.7-.7-2.6-2.5-3.3-2.7a.888.888 0 0 0-.4-.1c-.7-.3-1.2-.4-1.7.2-.9 1.2-3.1 4.5-4.4 11.1Z" clip-rule="evenodd"/>
  <path fill="#050505" fill-rule="evenodd" d="M75.3 86.4H75c-1.6-.1-2.6-1.1-2.7-2.7l-.2-1.8c0-.067.033-.1.1-.1 0-.067.033-.1.1-.1l4.8.1c.1 0 .1.1.2.2l.1 1.8c0 .8-.2 1.5-.6 1.9-.4.4-.9.6-1.5.7Zm-2.8-4.3.1 1.6c.2 1.6 1.3 2.3 2.4 2.3.666 0 1.166-.2 1.5-.6.4-.3.5-.9.5-1.6l-.1-1.6-4.4-.1Z" clip-rule="evenodd"/>
  <path fill="#ED3937" d="m72.3 82.8 4.9.1-4.9-.1Z"/>
  <path fill="#050505" d="m77.2 83.1-4.9-.1v-.4l4.9.1v.4Z"/>
  <path fill="#050505" d="M75.9 86.5s-1.3.4-3.3-.8c-2-1.3-2.1-2.4-2.1-2.4l1.8.3s.6 2.8 3.1 2.6l.5.3Z" opacity=".1" style="mix-blend-mode:multiply"/>
  <path fill="#8DBEE6" d="M74.9 74s-4.8 1.6-7.7 4c0 0-1.4-3.1-.3-6.4l8 2.4Z"/>
  <path fill="#050505" d="M60 83.9a1.78 1.78 0 0 1-.8-.2c-.1 0-.2-.1-.1-.2 0-.1.1-.2.2-.1.9.3 1.3-.2 1.4-.3l.8-2.9-1.2-.3c-.1-.1-.1-.2-.1-.3 0-.1.1-.1.2-.1l1.4.4c.1 0 .2.1.1.3l-.9 3c0 .1-.3.6-1 .7Z"/>
  <path fill="#050505" d="M61.5 81.2h-.1l-1.4-.5c-.1 0-.2-.1-.1-.2 0-.1.1-.2.2-.1l1.5.4c.1 0 .1.1.1.2l-.2.2Z"/>
  <path fill="#050505" d="m73.9 73.2 4.7 1-5.8 2.7 2.3 1.2-7.8 1s-.5 1.5-.8 2.8c-.3 1.2.5 1.3.1 1.6-.5.3-.7.8-.9 1.6-.2.7-.2 2.4-.2 2.4l-.7-.5s.9-4.7 1.9-7.8l-3.4-3.7 1.5-.9-.8-2.1h3v6.2l6.9-5.5Z" opacity=".1" style="mix-blend-mode:multiply"/>
  <path fill="#050505" d="M68.1 80.3c0 .3-.2.5-.4.5-.3-.1-.5-.3-.5-.6s.2-.4.5-.4c.2 0 .4.2.4.5Zm-.4 2.1c0 .3-.2.5-.5.5-.2-.1-.5-.3-.5-.6s.3-.4.5-.4c.3 0 .5.2.5.5Zm-.6 2.1c0 .3-.2.5-.5.4-.2 0-.4-.2-.4-.5s.2-.5.4-.4c.3 0 .5.2.5.5Z"/>
  <path fill="#FEFEFE" d="M67 78.4s-1.3 3.1-2.2 8.8l2.2-8.8Z"/>
  <path fill="#050505" d="M64.8 87.4h-.1c-.1 0-.1-.1-.1-.2.9-5.7 2.3-8.8 2.3-8.9 0-.1.1-.1.2-.1.1.1.2.2.1.3 0 0-1.3 3.2-2.2 8.8-.067.066-.133.1-.2.1Z"/>
  <path fill="#F0F1F1" d="M67.8 72.6s-.4 2.6-.8 5.8l-3.8-3.8 2.4.6-2.6-3.1 4.8.5Z"/>
  <path fill="#050505" fill-rule="evenodd" d="M67.1 78.6c-.067 0-.133-.034-.2-.1l-3.8-3.8c-.067-.067-.067-.134 0-.2.066-.067.133-.1.2-.1l1.8.5-2.2-2.7c-.067-.067-.1-.134-.1-.2.067-.067.133-.1.2-.1l4.8.5c.067 0 .133.033.2.1v.1s-.4 2.7-.8 5.8c0 .066-.034.133-.1.2ZM63.9 75l3 3c.3-2.5.6-4.6.7-5.3l-4.1-.4 2.3 2.8c.067.066.067.133 0 .2-.067.133-.133.166-.2.1l-1.7-.4Z" clip-rule="evenodd"/>
  <path fill="#F0F1F1" d="M71.8 72.9s-1.7 1.7-4.8 5.5l6.5-.8-2.3-.8 5.4-1.3-4.8-2.6Z"/>
  <path fill="#050505" fill-rule="evenodd" d="M67.1 78.6c-.133 0-.2-.034-.2-.1-.067-.067-.067-.134 0-.201 3-3.8 4.8-5.5 4.8-5.5.066-.067.133-.067.2 0l4.7 2.5c.133.067.166.134.1.2 0 .067-.034.133-.1.2l-4.7 1.1 1.6.6c.133 0 .2.067.2.2l-.2.2-6.4.8Zm4.8-5.4c-.4.4-2 2-4.4 4.9l5.1-.6-1.5-.5c-.067 0-.1-.068-.1-.201 0-.067.033-.133.1-.2l4.9-1.2-4.1-2.2Z" clip-rule="evenodd"/>
  <path fill="#050505" d="M79.1 87.7s-1.8.8-3.6-.1 0-.3 1-.9c1-.5.5-1.4.5-1.4s.4-1.3.1-3.3c0 0-1.8-.6-3.2-1.1-1.5-.5-1-1.7-.3-1.5.6.2-2.6-1.9-1.7-4.2 1-2.4 3.9-1 3.9-1l3.3 5.6v7.9ZM66.2 73.8s-4.2 1.4-5.6 5.8c0 0 .4-3.2 1.3-4.7s2.1-2.7 2.1-2.7l2.2 1.6Z" opacity=".1" style="mix-blend-mode:multiply"/>
  <path fill="#ED2D2F" d="M82.8 77.2s-.4 3-2.8 4.6c0 0-2.1 1.4-3.9 0-1.7-1.3-2.5-6.5 2.8-9 5.4-2.6 5.7 2.3 3.9 4.4Z"/>
  <path fill="#050505" fill-rule="evenodd" d="M77.9 82.6c-.6 0-1.3-.1-1.9-.6-1-.8-1.5-2.5-1.3-4.1.1-1.3.8-3.7 4.1-5.3 2.9-1.4 4.2-.5 4.6.1 1 1.2.6 3.4-.4 4.5-.1.5-.6 3.3-2.9 4.8 0 0-1 .6-2.2.6Zm3.6-10.4c-.667 0-1.5.233-2.5.7-3.1 1.5-3.8 3.8-4 5-.1 1.7.5 3.2 1.2 3.8.6.4 1.2.6 1.7.6 1.1 0 2-.6 2-.6 2.3-1.5 2.7-4.5 2.7-4.6l.1-.1c.9-1 1.3-3 .4-4.1-.333-.467-.867-.7-1.6-.7Z" clip-rule="evenodd"/>
  <path fill="#ED2D2F" d="M63.5 68.7s-3.9 1.8-2.6 8.9c0 0 1.4-4 5.2-5.8l-2.6-3.1Z"/>
  <path fill="#050505" fill-rule="evenodd" d="M61 77.8h-.1c-.067 0-.1-.033-.1-.1-.7-3.8 0-6 .7-7.3.9-1.4 1.9-1.9 1.9-1.9.067-.067.133-.033.2.1l2.7 3.1c.067.067.067.1 0 .1 0 .067-.033.133-.1.2-3.7 1.7-5.1 5.7-5.1 5.7 0 .067-.033.1-.1.1Zm2.4-8.9c-.2.2-.9.7-1.5 1.7-.7 1.1-1.3 3.1-.9 6.3.6-1.2 2-3.7 4.8-5.2l-2.4-2.8Z" clip-rule="evenodd"/>
  <path fill="#050505" d="M82 70.9s1.2 1 1.2 4.1c0 0-1.7 0-3.4 1.8-1.7 1.9-3.4 3.8-4.1 2.6-.6-1.3-.5-1.4-.5-1.4s-4.4.6-8.1-.6c-3.7-1.2-6.4-2.3-6.2-3.7.2-1.5 1.1-3.7 1.1-3.7l20 .9Z" opacity=".2" style="mix-blend-mode:multiply"/>
  <path fill="#B3805F" d="M86 66.3c-2.7 6.9-8 12.3-17.7 9.4-11.1-3.3-10.7-10-8.1-16.9 2.7-6.9 10.5-10.4 17.5-7.7s10.9 8.3 8.3 15.2Z"/>
  <path fill="#050505" fill-rule="evenodd" d="M74.2 76.7c-1.867.067-3.867-.2-6-.8-4.6-1.4-7.5-3.4-8.9-6.1-.7-1.6-1-3.3-.8-5.3.2-1.7.7-3.5 1.6-5.8 1.3-3.4 3.8-6 7.2-7.5 3.3-1.5 7.1-1.6 10.5-.2 3.6 1.4 6.3 3.5 7.8 6 1.7 2.8 1.8 6 .6 9.4-1.6 3.9-3.7 6.7-6.3 8.4a11.613 11.613 0 0 1-5.7 1.9ZM72 50.4c-5 .4-9.7 3.5-11.6 8.5-1.8 4.7-2 8-.7 10.7 1.3 2.6 4.1 4.6 8.6 5.9 10.3 3.1 15.2-3.3 17.5-9.3 1.2-3.2 1.1-6.3-.5-9-1.5-2.5-4.1-4.5-7.7-5.9-1.8-.7-3.8-1-5.6-.9Z" clip-rule="evenodd"/>
  <path fill="#050505" d="m83.7 54.3-1.9.1s-7.9 1.1-5.5 4.6c2.4 3.5 2.1 4.8 1.9 5.9-.1 1.1-1.8.5-1.8.5 5.3 3.9 2.4 8.6-2.1 9.7-3.4.8-7.6-.2-9.2-.7a16.49 16.49 0 0 0 2.9 1.2c9.5 3.5 15.5-2.7 18.1-9.7 1.8-4.6.6-8.6-2.4-11.6Z" opacity=".1" style="mix-blend-mode:multiply"/>
  <path fill="#050505" d="M85.7 68.6s2.5-.4-.1 3.1c-1.2 1.7-4.3 3.3-4.3 3.3l4.4-6.4ZM65.4 51.7s-4.8 1.3-7.3 5.7c-.2.2 1.4-1.4 3.7-2.4m23.3-.9s6.6 5.5 2.9 13.8c0 0 .4-5.9-2.9-13.8Z"/>
  <path fill="#050505" d="M80.6 59.9c-.2-.1-1.5 8.1 2 9.8 1.8-2.5 1.1-5.8 1.1-5.8.7 2.8 0 5.4-.5 6 .6.4 2.2 1.2 3.4 1.2 0 0 7.4-14.4-8.9-20.8 0 0-9.5-4.6-18.9 7.1 0 0 0 .6.8 1.9.6.9 3.8-4.9 4.7-4.3"/>
  <path fill="#050505" d="M75.9 49.7c-1.6-.4-8-2.2-15.7 3.8 0 0 17.3-3.4 15.7-3.8Z"/>
  <path fill="#050505" d="M66.2 50.2s13.3-6 20.4 5.7c7.1 11.7-20.4-5.7-20.4-5.7Zm20.7 19.9s-.9 2.7-3.1 4.3C81.6 76 81.2 76 81.2 76s1.2-.9 2.6-4.3"/>
  <path fill="#050505" d="M76.9 50.4S69.7 48 60 56.6c0 0-.1 0 .3.8.4.6.3.6.9 1 .8-1.1 1.8-1.6 5.3-2.8 0 0-3.8 1.4-4.4 3.3 6.3 3.4 12.3.7 12.3.7-.2-.1-1.6 3.3 2.6 3.8 1.9-1.8 2.7-4.3 2.7-4.3 0 1.9-.6 3.1-1.7 4.5.4.2 1.9.2 2.8.2 0 0 8.6-10.2-3.9-13.4Z"/>
  <path fill="#050505" d="m81.7 59.4-2.8 7.3s6 4.5-1.5 9.1l7.3-2.6s5.4-6.3 2.7-13.4c-2.8-7.2-4.3-3.3-4.3-3.3l-1.4 2.9Zm2.9-5.3s-1.2-3-3.1-4.4c-1.9-1.3-2.2-1.1-2.2-1.1s2.9 1.4 3.7 5"/>
  <path fill="#050505" d="M87.1 56.9s-1.2-1.5.7-2.3c0 0-1.3-.5-1.7.1.1-.9-.1-2.6-2.3-4.2 0 0 .8 2.1-.7 1.9m-8.4 9.3c-.067 0-.1-.066-.1-.2-.1-.2-1.5-.4-2.6-.4h-.1c-.1 0-.1-.1-.1-.2s0-.2.2-.2c.6 0 2.7 0 3 .7 0 .1 0 .2-.2.3h-.1Zm-1.6 2.2c-.2.7-.7 1.2-1.2 1.1-.4-.1-.6-.7-.4-1.4.2-.6.7-1.1 1.2-1 .4.1.6.7.4 1.3Z"/>
  <path fill="#FEFEFE" d="M72.6 63c-.1.1-.2.2-.3.2-.1 0-.1-.1-.1-.2.1-.2.2-.2.3-.2 0 0 .1.1.1.2Z"/>
  <path fill="#050505" d="M63.1 61.2c-.2.6-.6 1.1-1.1 1.2-.4 0-.7-.5-.6-1.2.2-.6.6-1.1 1.1-1.1.4 0 .7.5.6 1.1Z"/>
  <path fill="#FEFEFE" d="M62.5 60.5c-.1.1-.2.2-.3.2 0 0-.1-.1-.1-.2s.1-.2.2-.2.2 0 .2.2Z"/>
  <path fill="#9A724F" d="M67.2 65.1s-.9 1-1.9.8c-.9-.2-1.1-1.6-1.1-1.6s.9.9 1.4 1c.5.1 1.6-.2 1.6-.2Z"/>
  <path fill="#050505" d="M65.4 65.4c-.2 0-.5-.1-.6-.2l-.6-.6c-.1-.1 0-.2 0-.3.1-.1.3-.1.3 0l.5.6c.2.1.5.1.7.1l1.4-.2c.1 0 .3.1.3.2s-.1.2-.2.2l-1.4.2a.425.425 0 0 1-.4 0Zm3.4 3.6s-2 .5-3 .3c-1.1-.2-.9 1.8.4 2.7.9.6 2.7 2 6.2 1.1 3.6-.9 4-4.5 2.4-5.5-1.8-1-3.7.8-6 1.4Z"/>
  <path fill="#050505" d="M75.5 72.4S74.5 74 72 74c0 0 2.6 1.1 3.5-1.6Z" opacity=".1" style="mix-blend-mode:multiply"/>
  <path fill="#B3805F" d="M89 72.8s2.2-1 2.6-2.7c.4-1.7-2.5-4.1-3.9-2.5-1.4 1.4-1.5 2.6-1.1 3.1.3.4 2.4 2.1 2.4 2.1Z"/>
  <path fill="#050505" fill-rule="evenodd" d="m89 73-.1-.1c-.1 0-2.1-1.7-2.5-2.1-.4-.6-.2-1.9 1.1-3.3.6-.7 1.6-.8 2.6-.3 1 .6 1.9 1.8 1.7 3-.4 1.8-2.6 2.7-2.7 2.8H89Zm-.1-5.7c-.4 0-.8.1-1.1.5-1.2 1.3-1.4 2.4-1.1 2.7.3.4 1.7 1.5 2.4 2 .4-.2 2-1 2.3-2.4.2-1-.6-2.1-1.5-2.5-.2-.1-.6-.3-1-.3Z" clip-rule="evenodd"/>
  <path fill="#F1F1F1" d="M78.7 79.5c-1.2-2.5.8-5.3.8-5.3l6.6-5.5L90 73l-7.2 5.9s-2.9 3.1-4.1.6Z"/>
  <path fill="#050505" fill-rule="evenodd" d="M80 80.7h-.2c-.533-.133-.967-.5-1.3-1.1-1.2-2.6.7-5.4.8-5.6l6.7-5.5s.2 0 .2.1l4 4.3v.3l-7.3 5.9c-.1.1-1.6 1.6-2.9 1.6Zm-1.1-1.3c.2.533.5.833.9.9 1.2.2 2.8-1.5 2.8-1.5h.1l7.1-5.8-3.7-4-6.5 5.3c-.2.3-1.8 2.9-.7 5.1Z" clip-rule="evenodd"/>
  <path fill="#050505" d="m88 70.9-1.9-2.2-6.8 5.6s-1.5 4.1-.6 5.4c.8 1.3 2.3.6 4-1 1.7-1.7-1.3-1.6-.2-3.5s3-2.8 3-2.8 1 1.3 1.6 1c.6-.4 1.5-1.9.9-2.5Z" opacity=".1" style="mix-blend-mode:multiply"/>
  <path fill="#050505" d="M13.7 62.1c0 1.3 1 2.4 2.4 2.4 1.3 0 2.4-1.1 2.4-2.4 0-1.4-1.1-2.4-2.4-2.4-1.4 0-2.4 1-2.4 2.4Zm21.3.4c0 1.2 1 2.2 2.2 2.2 1.3 0 2.3-1 2.3-2.2 0-1.3-1-2.3-2.3-2.3-1.2 0-2.2 1-2.2 2.3Z"/>
  <path fill="#050505" d="M8.7 59.6c0 1.8 1.4 3.3 3.2 3.3 1.8 0 3.3-1.5 3.3-3.3 0-1.7-1.5-3.2-3.3-3.2-1.8 0-3.2 1.5-3.2 3.2Zm29.7-1.3c-.7 1.8.1 3.8 1.7 4.4 1.6.6 3.5-.3 4.2-2.1.7-1.9-.1-3.8-1.7-4.4-1.7-.7-3.5.3-4.2 2.1Z"/>
  <path fill="#050505" d="M8.9 50.8c0 8.2 7.9 14.9 17.6 14.9 9.7 0 17.6-6.7 17.6-14.9 0-8.3-7.8-14.9-17.6-14.9-9.7 0-17.6 6.6-17.6 14.9Z"/>
  <path fill="#3F1D13" d="M37.3 64.3c-.6 0-1.1-.3-1.5-.8l.3-.2c.3.3.7.5 1.2.5.267 0 .533-.1.8-.3.3-.2.5-.5.6-.9 0-.4-.1-.8-.3-1.1l.3-.2c.3.4.5.9.4 1.4-.1.4-.3.9-.7 1.2-.3.2-.7.4-1.1.4Zm3.8-2.1c-.533 0-1-.134-1.4-.4l.2-.4c.5.3 1.2.4 1.8.3.6-.2 1.1-.6 1.4-1.1.7-1.1.3-2.6-.8-3.3l.2-.3c1.4.8 1.8 2.5 1 3.8-.4.7-1 1.1-1.7 1.3-.267.066-.5.1-.7.1Zm-29.5-.3a2.974 2.974 0 0 1-1.5-.4l.2-.4c.4.2.833.3 1.3.3.8 0 1.5-.3 1.9-1 .3-.5.4-1.1.2-1.7-.1-.6-.5-1.1-1.1-1.4l.2-.4c.7.4 1.2 1 1.4 1.7.1.7 0 1.4-.3 2-.5.8-1.4 1.3-2.3 1.3Zm4.7 2c-.9 0-1.8-.6-2-1.5l.5-.1c.2.8 1 1.3 1.8 1.1l.1.5h-.4Z"/>
  <path fill="#803531" d="M21.3 86s-1.2-2-.9-3.9c.3-1.8 1.4-3 1.7-3.5 1-1.1 2.2-1 3-.3.8.7 1.1 1.5.1 2.8-1.2 1.7-1.6 1.9-.6 3.6 1 1.4-2.2 3.5-3.3 1.3Z"/>
  <path fill="#050505" fill-rule="evenodd" d="M22.8 87.1c-.7 0-1.3-.4-1.6-1 0-.1-.3-.6-.6-1.3-.3-.7-.5-1.7-.4-2.7.3-1.8 1.4-3 1.8-3.5v-.1c.5-.5 1.1-.8 1.7-.9.5 0 1.1.2 1.5.6.466.4.733.8.8 1.2.067.533-.167 1.1-.7 1.7l-.2.4c-.5.7-.8 1.1-.9 1.5-.1.4.1.9.6 1.6.2.4.2.9 0 1.4-.4.6-1.2 1.1-2 1.1Zm1-9.2h-.1c-.534.066-1 .333-1.4.8l-.1.1c-.4.4-1.4 1.6-1.7 3.3-.1 1 .2 1.9.4 2.6.3.7.6 1.2.6 1.2.3.7.9.9 1.3.9.6 0 1.4-.4 1.7-1 .1-.2.3-.6 0-1-.5-.8-.7-1.3-.6-1.8.1-.5.4-1 .9-1.7.066-.134.133-.234.2-.3v-.1c.466-.534.7-1 .7-1.4-.067-.4-.3-.767-.7-1.1-.3-.3-.8-.5-1.2-.5Z" clip-rule="evenodd"/>
  <path fill="#050505" d="M23.8 85.1s-1-1.6-.6-2.6c.4-1.1-2.8-.7-2.5-1.6.4-1 1.2-2 1.4-2.3 1-1.1 2.2-1 3-.3.8.7 1.1 1.5.1 2.8-1.2 1.7-1.6 1.9-.6 3.6.3.5 0 1.9-.8.4Z" opacity=".4"/>
  <path fill="#EE4763" d="M25.8 86.3c0 .067-.033.1-.1.1l-6.1 2.1c-.067 0-.1-.033-.1-.1l-.1-.3c-.067-.066-.067-.1 0-.1l6.1-2.1c.133 0 .2.034.2.1l.1.3Z"/>
  <path fill="#050505" fill-rule="evenodd" d="M19.6 88.7c-.067 0-.1-.033-.1-.1-.067 0-.133-.033-.2-.1l-.1-.3v-.3c.067-.067.133-.1.2-.1l6.1-2c.067-.067.133-.067.2 0 .067 0 .133.033.2.1l.1.3c0 .133-.033.233-.1.3 0 .067-.033.1-.1.1l-6.1 2-.1.1Zm-.1-.6.1.2 6-2v-.2l-6.1 2Z" clip-rule="evenodd"/>
  <path fill="#EE4763" d="M21.9 84.4s-.3-.7-.8-.6c-.3.1-.9.3-1.1.4-.4.1.1.5.2.7.2.2.4.6.3.9l-.3 1.1.8.1 1.1-1.7-.2-.9Z"/>
  <path fill="#050505" fill-rule="evenodd" d="m21 87.2-.8-.1c-.067 0-.1-.033-.1-.1-.067 0-.1-.033-.1-.1l.4-1.1c0-.3-.2-.6-.3-.8 0-.066-.033-.1-.1-.1-.2-.2-.4-.4-.3-.6 0-.1.1-.2.3-.3l.2-.1c.3-.1.7-.2.9-.2.5-.2.8.3.9.6l.3 1-.1.1-1 1.7c-.067.067-.133.1-.2.1Zm-.6-.4h.6l.9-1.5-.2-.9c0-.1-.2-.5-.5-.4-.2 0-.6.2-.9.2-.133.067-.2.133-.2.2H20s.2.2.2.3c.067 0 .133.033.2.1.1.2.4.7.3 1.1l-.3.9Z" clip-rule="evenodd"/>
  <path fill="#F69226" d="M25.5 85.9s-.3-1.1-.4-1.4c-.1-.3-.4-.4-.7-.3-.3.1-.5.5-1.4.4-.7-.1-.8-.2-1.1-.2-.4-.1-.3.1-.3.4v.7l-.8 1.5.2.4 4.5-1.5Z"/>
  <path fill="#050505" fill-rule="evenodd" d="M21 87.6c-.067 0-.134-.033-.2-.1l-.2-.5c0-.067.033-.1.1-.1l.8-1.4-.1-.6v-.1c0-.2 0-.4.1-.5.1-.1.3-.1.4-.1.133 0 .267.033.4.1.2 0 .4.1.7.1.6.1.8-.1 1-.2.133-.067.233-.133.3-.2.5-.1.8.1.9.4l.5 1.5v.1l-.1.1-4.6 1.5Zm0-.6.1.2 4.2-1.4-.4-1.3c-.067-.2-.233-.267-.5-.2l-.2.2c-.2.1-.5.3-1.2.3-.4-.1-.6-.2-.8-.2-.133-.067-.233-.1-.3-.1h-.2v.3l.1.7v.1L21 87Z" clip-rule="evenodd"/>
  <path fill="#FEFEFE" d="M19.4 88c0-.2.5-1 .8-1.1.7-.2 1.4.3 1.4.3l-2.2.8Z"/>
  <path fill="#050505" fill-rule="evenodd" d="M19.4 88.1c-.067 0-.1-.033-.1-.1-.1-.2.1-.5.3-.7 0-.1.3-.4.5-.5.8-.3 1.6.3 1.6.3.067.067.1.133.1.2-.067.067-.133.1-.2.1l-2.1.7h-.1Zm1.2-1.1a.887.887 0 0 0-.4.1s-.2.1-.4.4c-.067.067-.1.133-.1.2l1.5-.5c-.2-.1-.4-.2-.6-.2Z" clip-rule="evenodd"/>
  <path fill="#050505" d="M20.4 85.8c-.067 0-.1-.033-.1-.1-.067-.066-.067-.1 0-.1.3-.3 1.3-.5 1.7-.2.067.067.1.134.1.2-.067.067-.133.067-.2 0-.4-.2-1.2 0-1.4.2h-.1Z"/>
  <path fill="#050505" d="M20.3 86.3c-.067 0-.1-.033-.1-.1-.067-.067-.067-.133 0-.2.3-.2 1.1-.4 1.5-.1.067.067.1.133.1.2-.067.067-.133.067-.2 0-.4-.2-1.1 0-1.3.1v.1Z"/>
  <path fill="#050505" d="M20.1 86.7H20v-.2c.3-.2 1-.4 1.4-.1.067.067.1.133.1.2-.067.067-.133.067-.2 0-.4-.2-.9-.1-1.1.1h-.1Z"/>
  <path fill="#EE4763" d="M23.3 85.3c-.5.1-.7.3-.9.6l-.8 1.3.8-.2.4-.8c.067-.2.3-.367.7-.5.2 0 1.8-.6 1.8-.6l-.2-.4s-1.6.5-1.8.6Z"/>
  <path fill="#050505" fill-rule="evenodd" d="M21.6 87.4c-.067 0-.1-.034-.1-.1-.067-.067-.067-.1 0-.1l.8-1.3c.2-.4.4-.6 1-.8l1.8-.6h.1v.1l.2.5c0 .067-.033.133-.1.2l-1.8.6c-.333.067-.533.167-.6.3l-.4.8-.1.1-.8.3Zm1.8-2c-.5.1-.7.3-.9.6l-.6 1 .4-.1.4-.8c.133-.2.367-.367.7-.5l1.7-.5-.1-.3-1.6.6Z" clip-rule="evenodd"/>
  <path fill="#803531" d="M33.4 86.9s-.5-4.4-.5-5.6c0-1.5-1-2.2-2.1-2.2-1 0-1.8.6-1.8 2.2 0 1.7.4 5.7.4 5.7 0 2.4 4.2 2.4 4-.1Z"/>
  <path fill="#050505" fill-rule="evenodd" d="M31.5 89c-.467 0-.9-.1-1.3-.3-.6-.4-1-1-1-1.7 0-.2-.3-4.1-.3-5.7 0-.8.167-1.4.5-1.8.333-.4.8-.6 1.4-.6.6 0 1.2.2 1.6.6.4.4.7 1 .7 1.8 0 1.2.4 5.6.4 5.6.1.7-.2 1.3-.7 1.7-.4.2-.9.4-1.3.4Zm-.7-9.8c-.467 0-.833.167-1.1.5-.333.333-.5.867-.5 1.6 0 1.6.3 5.6.3 5.6v.1c0 .6.3 1.1.9 1.4.7.3 1.6.3 2.2-.1.3-.2.7-.6.6-1.4 0-.1-.5-4.4-.5-5.6 0-1.5-1-2.1-1.9-2.1Z" clip-rule="evenodd"/>
  <path fill="#050505" d="M30.4 86.8c.2 1.3 2.3 2 1.1 2-1-.1-2.1-.6-2.1-1.8 0 0-.4-4-.4-5.7 0-1.6.8-2.2 1.8-2.2 1.1 0 2.1.7 2.1 2.2 0 1.2-2.6.7-2.6 1.8 0 .5 0 2.8.1 3.7Z" opacity=".4"/>
  <path fill="#803531" d="M33.4 86.9c.1.5.4 1.4 1.8 2h-5.8V87"/>
  <path fill="#050505" d="M35.2 89.1h-5.8c-.067 0-.133-.033-.2-.1v-2c0-.1.1-.2.2-.2s.1.1.1.2v1.7h5.1c-.9-.5-1.2-1.2-1.4-1.6V87c0-.1 0-.2.1-.2.1-.1.2 0 .2.1.2.5.5 1.3 1.8 1.9.067 0 .1.033.1.1-.067.133-.133.2-.2.2Z"/>
  <path fill="#050505" d="M30.4 86.9c.1.8.1 1.4 1.5 2h-2.5V87" opacity=".4"/>
  <path fill="#EE4963" d="M28.9 88.8c0 .067.033.134.1.2h6.4c.133-.066.2-.133.2-.2v-.3c0-.066-.067-.1-.2-.1H29c-.067 0-.1.034-.1.1v.3Z"/>
  <path fill="#050505" fill-rule="evenodd" d="M35.4 89.1H29c-.2 0-.3-.1-.3-.3v-.3c0-.1.1-.3.3-.3h6.4c.2 0 .3.2.3.3v.3c0 .2-.1.3-.3.3Zm-6.4-.3h6.4v-.2H29v.2Z" clip-rule="evenodd"/>
  <path fill="#EE4963" d="M32 85.8s0-.8.6-.8h1.1c.4 0 .1.5 0 .7-.1.3-.1.8.1 1l.6 1-.8.3-1.5-1.3-.1-.9Z"/>
  <path fill="#050505" fill-rule="evenodd" d="m33.6 88.2-.1-.1-1.5-1.2-.1-.1-.1-1v-.1c0-.3.2-.8.7-.9h1.2c.2 0 .3.1.3.2.2.2 0 .4-.1.7v.1c-.1.2-.2.6 0 .8l.6 1c.067 0 .1.033.1.1l-.1.1-.8.3-.1.1Zm-1.4-1.5 1.4 1.1.6-.2-.6-.8c-.2-.3-.1-.9 0-1.1v-.2c.1-.1.2-.3.2-.3h-.4c-.3 0-.7-.1-.8 0-.4 0-.4.5-.4.6v.9Z" clip-rule="evenodd"/>
  <path fill="#F69226" d="M29 88.4v-1.5c0-.3.2-.5.5-.5.4 0 .7.3 1.5-.1.6-.2.7-.4 1-.5.3-.2.3 0 .4.3l.2.7 1.2 1.1v.5H29Z"/>
  <path fill="#050505" fill-rule="evenodd" d="M33.8 88.6H29c-.1 0-.2-.1-.2-.2v-1.5c0-.4.3-.7.7-.7.133 0 .267.033.4.1.3 0 .5.1 1-.1.4-.2.5-.3.7-.4a1.14 1.14 0 0 1 .3-.2c.1 0 .3-.1.4 0 .2.1.2.2.3.4v.1l.1.6 1.2 1c.067.067.1.133.1.2v.5c0 .1-.1.2-.2.2Zm-4.6-.4h4.5v-.3l-1.2-1c-.067 0-.1-.033-.1-.1l-.1-.6v-.1c-.1-.1-.1-.2-.1-.2h-.1a1.162 1.162 0 0 0-.3.2l-.8.4c-.6.3-.9.2-1.2.1-.067 0-.167-.033-.3-.1-.2 0-.3.133-.3.4v1.3Z" clip-rule="evenodd"/>
  <path fill="#EE4963" d="M30.9 87.1c.5 0 .8 0 1.1.3l1.2 1h-.8l-.7-.6c-.133-.134-.4-.2-.8-.2H29v-.5h1.9Z"/>
  <path fill="#050505" fill-rule="evenodd" d="M33.2 88.6h-.8c-.067 0-.1-.033-.1-.1l-.7-.6h-.1c0-.1-.2-.2-.6-.2H29c-.1 0-.2 0-.2-.1v-.5c0-.1.1-.2.2-.2h1.9c.6 0 .9.1 1.2.4l1.2 1c.067 0 .067.067 0 .2 0 .067-.033.1-.1.1Zm-.8-.4h.3l-.8-.7c-.3-.2-.5-.3-1-.3h-1.7v.2h1.7c.4 0 .7.1.9.3l.6.5Z" clip-rule="evenodd"/>
  <path fill="#FEFEFE" d="M35.4 88.4c0-.2-.7-.7-1-.7-.8 0-1.2.7-1.2.7h2.2Z"/>
  <path fill="#050505" fill-rule="evenodd" d="M35.4 88.6h-2.2c-.067 0-.133-.033-.2-.1v-.2c.1 0 .6-.8 1.4-.8.3 0 .6.2.7.3.2.2.5.4.5.6 0 .1-.1.2-.2.2Zm-1.9-.4h1.6l-.2-.1c-.2-.2-.4-.3-.5-.3-.4 0-.7.2-.9.4Z" clip-rule="evenodd"/>
  <path fill="#050505" d="M32.3 87h-.1c-.067-.067-.067-.134 0-.2.3-.4 1.3-.5 1.7-.4.067.066.067.133 0 .2 0 .067-.033.067-.1 0-.3-.1-1.2 0-1.4.4h-.1Z"/>
  <path fill="#050505" d="M32.7 87.4h-.1v-.2c.4-.4 1.2-.5 1.5-.4.066 0 .1.067.1.2 0 .067-.034.067-.1 0-.3 0-1 0-1.3.4h-.1Z"/>
  <path fill="#050505" d="M33.2 87.8c-.067 0-.1-.034-.1-.1-.067 0-.067-.034 0-.1.3-.5 1-.5 1.3-.4.067.066.1.133.1.2-.067.066-.133.066-.2 0-.2 0-.8 0-1 .3l-.1.1Z"/>
  <path fill="#803531" d="M13.7 71.2c2.4 1.2 4.3 1.8 5.9 1.1 1.4-.6 2.3-1.9 3.1-3.9 1-2.9-3.1-4.3-4.1-1.3-.7 1.3-1.1 1.4-2.7.4-.6-.4-2.8 3.4-2.2 3.7Z"/>
  <path fill="#050505" fill-rule="evenodd" d="M18.1 72.8c-.333 0-.733-.067-1.2-.2-.9-.2-2-.6-3.3-1.3-.067-.067-.1-.234-.1-.5.067.133.133.2.2.2 1.9 1 3.3 1.5 4.4 1.5.533 0 1.033-.1 1.5-.3 1.3-.6 2.2-1.7 3-3.8.2-.8.1-1.6-.4-2.1-.5-.6-1.2-.8-1.9-.7-.7.2-1.3.7-1.5 1.5 0 .066-.033.1-.1.1-.2.6-.5 1-1 1.1-.5.1-1.1-.2-1.9-.7-.1-.1-.4-.2-.7-.2a.889.889 0 0 0-.4.1.887.887 0 0 0-.4.1c.067-.267.167-.4.3-.4.5-.2 1-.1 1.4.1.9.6 1.3.8 1.6.7.3-.1.6-.4.9-1 .133-.467.367-.834.7-1.1.267-.267.6-.467 1-.6.8-.1 1.7.1 2.2.8.267.266.467.6.6 1a3.33 3.33 0 0 1-.1 1.4c-.9 2.2-1.8 3.4-3.2 4-.467.2-1 .3-1.6.3Zm-4.7-4.3c-.4.5-.4 1.1-.3 1.6.1.3.3.6.4.7.1-.8.4-2.4.8-3.2-.3.2-.7.4-.9.9Z" clip-rule="evenodd"/>
  <path fill="#050505" d="M13.7 71.2c2.4 1.2 4.3 1.8 5.9 1.1 1.4-.6 2.3-1.9 3.1-3.9 1-2.9-3.1-4.3-4.1-1.3.6-1.5 3.7-1 2.9 1.1-.2.6-1.3 2.8-2.3 3.1-.9.3-2.6.2-4-.4-.6-.3-1.7.2-1.5.3Z" opacity=".4"/>
  <path fill="#803531" d="M40.4 62.3c0 2.7-.4 4.7-1.8 5.8-1.2 1-2.7 1.2-4.9.9-3-.6-2.3-4.8.8-4.3 1.5.1 1.7-.3 1.6-2.1-.1-.7.6-1.9 2.1-2 1.4 0 2.2 1.1 2.2 1.7Z"/>
  <path fill="#050505" fill-rule="evenodd" d="M35.3 69.3c-.466 0-1-.067-1.6-.2-.8-.1-1.3-.4-1.7-1-.3-.5-.5-1.1-.3-1.7.1-.6.4-1.1.8-1.4.6-.4 1.2-.5 2-.4.7 0 1-.1 1.2-.3.3-.2.3-.7.2-1.7 0-.5.2-1 .5-1.4.3-.3.9-.7 1.8-.7.7-.1 1.3.2 1.8.6.3.4.6.8.6 1.2-.1 1.5-.2 2.6-.4 3.6-.333 1-.833 1.766-1.5 2.3-.9.7-1.9 1.1-3.4 1.1Zm-1.6-.5c.6.066 1.133.1 1.6.1 1.4 0 2.4-.3 3.2-.9 1.2-1 1.7-2.7 1.7-5.7 0-.2-.1-.6-.5-1s-.9-.6-1.5-.5c-.8 0-1.3.4-1.5.6-.4.4-.5.9-.4 1.1 0 1 0 1.7-.3 2-.4.4-.9.4-1.5.4h-.1c-1.4-.3-2.3.6-2.4 1.6-.2.9.3 2.1 1.7 2.3Z" clip-rule="evenodd"/>
  <path fill="#050505" d="M40.4 62.3c0 2.7-.4 4.7-1.8 5.8-1.2 1-2.7 1.2-4.9.9-3-.6-2.3-4.8.8-4.3-.5.9-1.4 2.8.8 3.1.7.1 1.8.2 2.6-.6.7-.6 1.4-2.2 1.5-3.6.1-.7 1-1.5 1-1.3Z" opacity=".4"/>
  <path fill="#F69226" d="M27.7 79.9c6.8-.5 6.9-1.9 7.1-4.7.1-2.2-1.2-8-1.9-9.7-.9-2.9-3.3-3.8-6.6-3.6-3.3.3-5.6 1.6-6.1 4.6-.3 1.8-.7 7.7-.2 9.9.2.8 1.3 4 7.7 3.5Z"/>
  <path fill="#050505" fill-rule="evenodd" d="M26.4 80.1c-.933 0-1.8-.1-2.6-.3-.933-.2-1.733-.534-2.4-1-1.2-.9-1.5-2.1-1.6-2.4-.4-2.2 0-8.2.3-9.9.5-2.9 2.5-4.4 6.1-4.7 3.7-.3 5.9.9 6.9 3.6.6 1.7 1.9 7.5 1.8 9.8 0 .7 0 1.3-.2 1.9-.1.6-.4 1.1-.9 1.4-.9.8-2.8 1.3-6.1 1.6h-1.3Zm1.3-.3c1.7-.2 2.9-.4 3.9-.6.933-.267 1.6-.567 2-.9.8-.7.9-1.6 1-3.1 0-1-.2-2.7-.6-5-.4-1.8-.9-3.8-1.2-4.7-.9-2.6-3-3.7-6.5-3.4-3.5.3-5.5 1.7-5.9 4.4-.2 1-.4 3-.4 4.8-.1 2.3 0 4.1.1 5.1.1.2.4 1.3 1.5 2.1 1.4 1.067 3.433 1.5 6.1 1.3Z" clip-rule="evenodd"/>
  <path fill="#EE4963" d="M31.3 70.6c.5-2.2 1.1-4.9.3-7.9l-1.7.4c.8 2.7.2 5.2-.2 7.1l1.6.4Z"/>
  <path fill="#050505" fill-rule="evenodd" d="m31.3 70.8-1.7-.4c-.1 0-.1-.1-.1-.2v-.1c.5-1.9 1-4.3.3-6.9 0-.1 0-.2.1-.2l1.6-.5h.2v.1c.4 1.4.5 2.8.4 4.4-.1 1.2-.3 2.4-.6 3.6 0 .067-.033.1-.1.1 0 .067-.033.1-.1.1Zm-1.4-.7 1.3.3c.4-2 1-4.6.3-7.5l-1.4.3c.7 2.6.2 5-.2 6.9Z" clip-rule="evenodd"/>
  <path fill="#EE4763" d="m27.7 80 .9 2c5.3-.5 7.1-1.5 7.1-1.5s-.3-3.2-.7-5.4c-.3.2-1.9.6-1.9.6l-2.2-5.5s-2.2.8-3.9.9c-1.7.2-4-.2-4-.2l-1.3 5.7s-1.6-.1-2-.2c0 2.2-.2 4.3-.2 4.3s1.8 1 7 1.7l1.2-2.4Z"/>
  <path fill="#050505" fill-rule="evenodd" d="M26.5 82.6c-2.7-.4-4.5-.8-5.5-1.2-1.1-.3-1.6-.6-1.6-.6-.067 0-.1-.034-.1-.1 0 0 .2-2.1.3-4.3v-.2h.2c.3.1 1.2.2 1.7.2l1.3-5.6s.1-.1.2-.1c0 0 2.4.4 4 .3 1.6-.2 3.9-.9 3.9-.9.1 0 .2 0 .2.1l2.1 5.3c.5-.1 1.5-.4 1.7-.5h.2c.067 0 .1.033.1.1.4 2.2.6 5.4.7 5.4 0 .066-.033.133-.1.2-.1 0-.5.2-1.6.5s-2.8.7-5.6 1c-.067 0-.1-.034-.1-.1l-.8-1.7-1 2.1c-.067.066-.133.1-.2.1Zm-6.8-2c.1.1.6.3 1.4.5 1 .3 2.7.8 5.3 1.1l1.2-2.2c0-.067.033-.1.1-.1s.133.033.2.1l.8 1.9c2.6-.3 4.4-.7 5.4-1 .8-.2 1.2-.4 1.4-.5 0-.5-.3-3.1-.6-5-.5.2-1.6.4-1.7.5-.133 0-.2-.034-.2-.1l-2.1-5.4c-.6.2-2.4.8-3.9.9-1.4.1-3.4-.2-3.9-.2l-1.3 5.6c0 .066-.033.1-.1.1-.2 0-1.3-.1-1.8-.2 0 1.8-.2 3.6-.2 4Z" clip-rule="evenodd"/>
  <path fill="#050505" d="m27.7 80 .9 2c.333 0 .667-.033 1-.1 0 0-1.1-2.4-1.9-2.4-.9.1-2.2 2.8-2.2 2.8.333 0 .667.033 1 .1l1.2-2.4Zm-8-3.6c0 2.2-.2 4.3-.2 4.3s.5.3 1.7.6c-.5-.7-.8-1.6-.5-4.8l-1-.1Z" opacity=".4"/>
  <path fill="#6ECFF5" d="M26.4 81.9v-.1c-.2 0-.4-.033-.6-.1-.067 0-.1-.033-.1-.1s.033-.1.1-.1c.2 0 .4.033.6.1.067 0 .1.034.1.1 0 .067-.033.133-.1.2Zm-1.2-.3c-.2 0-.4-.033-.6-.1-.067 0-.1-.067-.1-.2 0-.067.033-.067.1 0 .2 0 .4.033.6.1.067 0 .1.033.1.1s-.033.1-.1.1Zm-1.2-.2-.6-.2c-.067 0-.1-.033-.1-.1s.067-.1.2-.1c.133.067.3.1.5.1.133.067.167.133.1.2 0 .067-.033.1-.1.1Zm-1.2-.3-.6-.2c-.067 0-.1-.033-.1-.1.067-.067.133-.1.2-.1.2.067.4.1.6.1.067.067.1.133.1.2-.067.067-.133.1-.2.1Zm-1.2-.3-.6-.2c-.067 0-.1-.033-.1-.1.067-.133.133-.167.2-.1.2.067.4.1.6.1.067.067.1.133.1.2-.067.067-.133.1-.2.1Zm-1.1-.4h-.1l-.5-.2c-.067 0-.1-.067-.1-.2 0-.067.067-.067.2 0l.5.2c.067 0 .1.033.1.1s-.033.1-.1.1Z"/>
  <path fill="#050505" d="M35 75.1c.4 2.2.7 5.4.7 5.4s-.5.3-1.7.6c.5-.7.9-2.5.1-5.7l.9-.3Z" opacity=".4"/>
  <path fill="#6ECFF5" d="M28.7 81.5c-.067 0-.1-.033-.1-.1s.033-.133.1-.2c.2 0 .4-.033.6-.1.067 0 .133.034.2.1 0 .133-.033.2-.1.2-.2 0-.4.033-.6.1h-.1Zm1.2-.2c-.067 0-.1-.033-.1-.1s.033-.133.1-.2c.2 0 .4-.033.6-.1.067 0 .133.033.2.1 0 .067-.033.133-.1.2-.2 0-.4.033-.6.1h-.1Zm1.2-.2c-.067 0-.1-.033-.1-.1 0-.133.033-.2.1-.2.2 0 .4-.033.6-.1.067 0 .133.033.2.1 0 .067-.033.1-.1.1l-.6.2h-.1Zm1.2-.3c-.067 0-.1-.033-.1-.1s.033-.1.1-.1l.6-.2c.067 0 .133.033.2.1 0 .067-.033.133-.1.2-.2.067-.4.1-.6.1h-.1Zm1.2-.3c-.067 0-.1-.033-.1-.1s.033-.1.1-.1l.6-.2c.067 0 .1.034.1.1.067.067.067.133 0 .2-.2.067-.4.1-.6.1h-.1Zm1.2-.3c-.067 0-.1-.033-.1-.1s.033-.1.1-.1l.5-.2c.133-.067.2-.067.2 0 0 .133-.033.2-.1.2l-.6.2Z"/>
  <path fill="#803531" d="M30.5 63.9c.2 2.2-1.5 4.2-3.7 4.4-2.3.2-4.2-1.5-4.4-3.7-.2-2.3 1.5-4.2 3.7-4.4 2.3-.2 4.2 1.5 4.4 3.7Z"/>
  <path fill="#050505" fill-rule="evenodd" d="M26.4 68.5c-1 0-1.9-.4-2.7-1-.9-.8-1.4-1.8-1.5-2.9-.1-1.2.3-2.3 1-3.1.8-.9 1.8-1.4 2.9-1.5 1.1-.1 2.2.3 3.1 1 .8.7 1.4 1.8 1.5 2.9.1 1.1-.3 2.2-1 3.1-.8.8-1.8 1.4-2.9 1.4a.888.888 0 0 1-.4.1Zm0-8.2h-.3c-2.1.2-3.7 2.1-3.5 4.2.1 2.2 2 3.8 4.2 3.6 2.1-.2 3.7-2 3.5-4.2-.1-2-1.8-3.6-3.9-3.6Z" clip-rule="evenodd"/>
  <path fill="#EE4963" d="M22.7 71.3c-.9-2.1-1.9-4.7-1.6-7.8l1.7.2c-.3 2.8.7 5.1 1.4 7l-1.5.6Z"/>
  <path fill="#050505" fill-rule="evenodd" d="M22.7 71.5c-.133 0-.2-.033-.2-.1-.5-1.2-.9-2.3-1.2-3.6-.4-1.5-.5-2.9-.3-4.3 0-.1.1-.2.1-.2l1.7.2c.1 0 .2.1.2.2-.3 2.7.6 5 1.3 6.9h.1c0 .1 0 .2-.1.2l-1.6.7Zm-1.4-7.8c-.3 3 .7 5.5 1.4 7.4l1.3-.5c-.7-1.8-1.6-4.1-1.4-6.8l-1.3-.1Z" clip-rule="evenodd"/>
  <path fill="#6ECFF5" d="M22.4 71.1c0 .6.5 1 1.1 1 .6-.1 1.1-.6 1-1.2 0-.6-.6-1-1.1-1-.6.1-1.1.6-1 1.2Z"/>
  <path fill="#050505" fill-rule="evenodd" d="M23.4 72.2c-.267 0-.533-.1-.8-.3a.95.95 0 0 1-.4-.8c0-.333.1-.633.3-.9a.95.95 0 0 1 .8-.4c.7-.1 1.3.4 1.4 1.1 0 .7-.5 1.3-1.2 1.3h-.1Zm0-2.1c-.267 0-.5.1-.7.3-.133.2-.2.433-.2.7.1.5.5.8 1 .8s.9-.5.9-1c-.1-.5-.5-.8-1-.8Z" clip-rule="evenodd"/>
  <path fill="#6ECFF5" d="M31.6 70.3c0 .6-.4 1.2-1 1.2s-1.1-.4-1.2-1c0-.6.4-1.1 1-1.2.6 0 1.1.4 1.2 1Z"/>
  <path fill="#050505" fill-rule="evenodd" d="M30.5 71.7c-.7 0-1.2-.5-1.2-1.2-.1-.7.4-1.3 1.1-1.3.333 0 .633.1.9.3.267.2.4.467.4.8.1.7-.4 1.3-1.1 1.4h-.1Zm0-2.2h-.1c-.5 0-.9.5-.8 1 0 .5.5.9 1 .8.5 0 .8-.4.8-.9 0-.267-.1-.5-.3-.7-.2-.133-.4-.2-.6-.2Z" clip-rule="evenodd"/>
  <path fill="#050505" d="M31.3 71.1c-.4.5-1.1.5-1.5.1 0 0 .8.1 1.2-.4.3-.4.2-1.2.2-1.2.4.4.5 1.1.1 1.5Zm-8.6.7c.5.4 1.2.3 1.6-.1 0 0-.8.1-1.3-.2-.4-.4-.4-1.2-.4-1.2-.4.4-.3 1.1.1 1.5Z" opacity=".4"/>
  <path fill="#6ECFF5" d="M22.9 76.9h-.3c-.067-.067-.1-.133-.1-.2v-.3c.067-.067.133-.1.2-.1.067.067.1.133.1.2l-.1.1.2.1c.067 0 .1.033.1.1s-.033.1-.1.1Zm-.1-1c-.067-.067-.1-.133-.1-.2l.2-.7c0-.067.033-.1.1-.1.067.067.1.133.1.2l-.2.7c0 .067-.033.1-.1.1Zm.3-1.4c-.067-.067-.1-.133-.1-.2l.2-.7c0-.067.033-.1.1-.1.067.067.1.133.1.2l-.1.7c-.067.067-.133.1-.2.1Zm.4-1.4h-.1c-.067-.067-.1-.133-.1-.2l.1-.3c0-.067.033-.1.1-.1h.3c.067 0 .133.033.2.1 0 .067-.067.133-.2.2h-.2v.2c0 .067-.033.1-.1.1Zm.9-.4c-.067 0-.1-.034-.1-.1 0-.067.033-.1.1-.1l.6-.1c.067 0 .1.033.1.1s-.033.133-.1.2h-.6Zm1.2-.1c-.067 0-.1-.033-.1-.1s.033-.1.1-.1l.6-.1c.067 0 .1.033.1.1s-.033.133-.1.2h-.6Zm1.2-.1c-.067 0-.1-.033-.1-.1s.033-.1.1-.1l.6-.1c.067 0 .1.033.1.1 0 .133-.033.2-.1.2h-.6Zm1.2-.1c-.067 0-.1-.034-.1-.1 0-.067.033-.1.1-.1l.6-.1c.067 0 .1.033.1.1 0 .133-.033.2-.1.2H28Zm1.2-.1c-.067 0-.133-.033-.2-.1 0-.067.067-.1.2-.1l.6-.1c.067 0 .1.033.1.1 0 .133-.033.2-.1.2h-.6Zm1.6.2c-.067 0-.1-.033-.1-.1l-.1-.2h-.2c-.067 0-.133-.034-.2-.1 0-.067.067-.1.2-.1h.4l.1.3c0 .067-.033.133-.1.2Zm1.1 2.6h-.2l-.2-.7c-.067-.067-.067-.133 0-.2.133 0 .2.033.2.1l.3.7c0 .067-.033.1-.1.1Zm-.6-1.3c-.067 0-.1-.033-.1-.1l-.3-.6c0-.067.033-.133.1-.2.067 0 .133.033.2.1l.2.6c.067.133.067.2 0 .2h-.1Zm.7 2.4c-.067 0-.133-.034-.2-.1 0-.067.033-.1.1-.1l.2-.1-.1-.2c0-.067.033-.1.1-.1.067-.067.1-.067.1 0l.2.3c0 .066-.033.133-.1.2l-.3.1Zm-4.5 1.9-.3-.1c-.067 0-.1-.033-.1-.1.067-.133.133-.167.2-.1h.2l.3-.1c.067 0 .133.033.2.1 0 .067-.033.134-.1.2l-.3.1h-.1Zm-.9-.2-.6-.2c-.067 0-.1-.066-.1-.2 0-.066.033-.066.1 0l.6.1c.133 0 .167.067.1.2 0 .067-.033.1-.1.1Zm1.8-.2-.1-.1c0-.067.033-.1.1-.1l.6-.3c.067 0 .1.033.1.1.067.067.067.134 0 .2l-.6.2h-.1Zm-3-.1-.1-.1-.6-.1c-.067 0-.1-.067-.1-.2.067-.067.133-.1.2-.1l.6.2c.067 0 .1.067.1.2l-.1.1Zm-1.3-.4-.6-.1c-.067-.067-.1-.133-.1-.2s.033-.1.1-.1l.7.2c.067 0 .1.033.1.1-.067.067-.133.1-.2.1Zm5.5 0c-.067 0-.1-.033-.1-.1s.033-.1.1-.1l.5-.3c.133 0 .2.033.2.1s-.033.134-.1.2l-.5.2h-.1Zm1.2-.5c-.067 0-.1-.033-.1-.1-.067-.067-.067-.1 0-.1l.6-.3c.067 0 .133.033.2.1 0 .067-.033.1-.1.1l-.6.3Z"/>
  <path fill="#050505" d="M26.7 67.7c1.9-.2 3-.7 4.1-1.4 1-.5 1.6-.1 1.9 1.2.4 1.5 1.8 7.2 1 7.4-.5.1-1.8-3.6-2.4-3.8l1.8 4.6 1.7-.5c.1-2.2-1.2-8-1.9-9.7-.9-2.9-3.3-3.8-6.6-3.6-3.3.3-5.6 1.6-6.1 4.6-.3 1.8-.7 7.7-.2 9.9l1.7.2 1-4.8c-.5.3-1.2 4.2-1.7 4.1-.8-.1-.4-5.8-.3-7.4.2-1.4.7-1.9 1.8-1.5 1.2.5 2.3.8 4.2.7Z" opacity=".4"/>
  <path fill="#803531" d="M39 53.9c0 7-3.7 12.4-12.5 12.8-8.6.3-12.4-5.8-12.4-12.8 0-7 5.6-12.7 12.4-12.7 6.9 0 12.5 5.7 12.5 12.7Z"/>
  <path fill="#050505" fill-rule="evenodd" d="M25.8 66.8c-1.6 0-3.067-.2-4.4-.6-1.467-.534-2.733-1.3-3.8-2.3-1.2-1.2-2.133-2.667-2.8-4.4-.6-1.734-.9-3.6-.9-5.6 0-1.734.333-3.4 1-5a14.126 14.126 0 0 1 2.7-4.1c1.2-1.2 2.533-2.1 4-2.7 1.6-.667 3.233-1 4.9-1 1.733 0 3.367.333 4.9 1a12.827 12.827 0 0 1 4 2.7c1.2 1.2 2.1 2.566 2.7 4.1.667 1.6 1 3.266 1 5 0 1.8-.233 3.466-.7 5-.467 1.533-1.2 2.866-2.2 4-1.067 1.2-2.4 2.1-4 2.7-1.6.733-3.5 1.133-5.7 1.2h-.7Zm.7-25.4c-3.3 0-6.3 1.3-8.7 3.7-2.3 2.3-3.6 5.5-3.6 8.8 0 4.1 1.3 7.5 3.6 9.8 2.2 2 5.1 3 8.7 2.8 7.9-.3 12.3-4.8 12.3-12.6 0-6.9-5.5-12.5-12.3-12.5Z" clip-rule="evenodd"/>
  <path fill="#050505" d="m36.7 53.8-.3.9s1.6 11-10.6 12c-.1 0 .1-.2.7 0 8.8-.4 12.5-5.8 12.5-12.8 0-1.9-.4-3.7-1.2-5.3-.5 1.3-1.1 5.2-1.1 5.2Z" opacity=".4"/>
  <path fill="#FEFEFE" d="M24.3 58.1s-.8-3.5-5.3-2.3c0 0 0 2.8 2.4 3 2.3.3 2.9-.7 2.9-.7Zm4.9.3s.5-3.6 5.1-2.6c0 0 .2 2.7-2.2 3.2-2.3.4-2.9-.6-2.9-.6Z"/>
  <path fill="#050505" d="M28.4 59.6s-.6 1-1.7 1-1.8-1.2-1.8-1.2 1.2.6 1.7.6c.6 0 1.8-.4 1.8-.4ZM16.1 37.5c0 1.9 1.5 3.3 3.4 3.3 2 0 3.5-1.4 3.5-3.3 0-1.8-1.5-3.2-3.4-3.2-2 0-3.5 1.4-3.5 3.2Zm15.8.2c0 1.4 1.2 2.6 2.7 2.6 1.5 0 2.6-1.2 2.6-2.7 0-1.5-1.2-2.6-2.7-2.6-1.4 0-2.6 1.2-2.6 2.7Z"/>
  <path fill="#050505" d="M10.8 40.9c0 2.2 1.8 4 4 4s4-1.8 4-4-1.8-4-4-4-4 1.8-4 4Zm28.1 4.2c0 2.3 1.8 4.1 4.1 4.1 2.2 0 4-1.8 4-4.1 0-2.2-1.8-4.1-4-4.1-2.3 0-4.1 1.9-4.1 4.1Zm-17.2-8.2c0 2.8 2.6 5.1 5.9 5.1 3.3 0 6-2.3 6-5.1 0-2.7-2.7-5-6-5s-5.9 2.3-5.9 5Z"/>
  <path fill="#050505" d="M34.8 40.2c0 2.2 1.8 4 4 4s4-1.8 4-4-1.8-4-4-4-4 1.8-4 4Zm4.4 12c0 2.4 1.8 4.4 4.1 4.4s4.1-2 4.1-4.4c0-2.4-1.8-4.4-4.1-4.4s-4.1 1.9-4.1 4.4ZM5.5 53c0 2.5 1.8 4.6 4.1 4.6s4.1-2.1 4.1-4.6c0-2.5-1.8-4.6-4.1-4.6S5.5 50.5 5.5 53Z"/>
  <path fill="#050505" d="M7.2 45.4c0 2 1.7 3.7 3.7 3.7 2.1 0 3.8-1.7 3.8-3.7 0-2.1-1.7-3.8-3.8-3.8-2 0-3.7 1.7-3.7 3.8Zm17.1 1.7c0 1.7 1.3 3 3 3 1.6 0 3-1.3 3-3 0-1.6-1.4-3-3-3-1.7 0-3 1.4-3 3Z"/>
  <path fill="#050505" d="M18.5 47.4c0 1.7 1.4 3.1 3.1 3.1 1.7 0 3.1-1.4 3.1-3.1 0-1.7-1.4-3.1-3.1-3.1-1.7 0-3.1 1.4-3.1 3.1Z"/>
  <path fill="#050505" d="M13.9 49.7c0 1.7 1.4 3.1 3.1 3.1 1.7 0 3.1-1.4 3.1-3.1 0-1.7-1.4-3-3.1-3-1.7 0-3.1 1.3-3.1 3Z"/>
  <path fill="#050505" d="M11.9 53.8c0 1.3 1 2.4 2.4 2.4 1.3 0 2.4-1.1 2.4-2.4 0-1.4-1.1-2.4-2.4-2.4-1.4 0-2.4 1-2.4 2.4Zm24.3-.3c0 1.3 1.1 2.4 2.4 2.4 1.4 0 2.4-1.1 2.4-2.4 0-1.4-1-2.4-2.4-2.4-1.3 0-2.4 1-2.4 2.4Z"/>
  <path fill="#050505" d="M33.6 50.6c0 1.1.9 1.9 2 1.9 1 0 1.9-.8 1.9-1.9 0-1.1-.9-1.9-1.9-1.9-1.1 0-2 .8-2 1.9Z"/>
  <path fill="#050505" d="M29.4 47.8c0 1.5 1.3 2.8 2.8 2.8 1.5 0 2.8-1.3 2.8-2.8 0-1.6-1.3-2.8-2.8-2.8-1.5 0-2.8 1.2-2.8 2.8Z"/>
  <path fill="#050505" d="m38.8 55-5.1-6.2-5.5-1.2-5.7.4-3.9 2.6-2.8 1.6-1.5 2.4-3-2.4-.8-6.4 7.8-7.3 8.1-.9 8.7.7 6.5 6.3 2 7.2-4.8 3.2Z"/>
  <path fill="#3F1D13" d="M36.8 51.3v-.4c.4 0 .7-.2.9-.5.3-.3.4-.6.3-1 0-.3-.2-.7-.5-.9-.2-.2-.6-.3-1-.3-.3 0-.7.2-.9.5-.2.3-.3.6-.3 1h-.4c-.1-.5.1-.9.4-1.3.3-.4.7-.6 1.2-.7.5 0 1 .1 1.3.5.4.3.6.7.7 1.2 0 .5-.1.9-.4 1.3-.4.4-.8.6-1.3.6Zm-22.7 4.1c-.5 0-.9-.1-1.3-.5-.3-.3-.5-.7-.5-1.2s.1-1 .5-1.3c.3-.4.7-.6 1.2-.6s1 .2 1.3.5c.4.3.6.8.6 1.3h-.4c-.1-.4-.2-.7-.5-1-.2-.2-.6-.3-1-.3-.3 0-.7.1-.9.4-.3.3-.4.6-.4 1 0 .3.2.7.4.9.3.3.7.4 1 .4v.4Zm17.5-19.6c-.4-1.1-1.4-2-2.6-2.4-1.7-.5-3.5 0-4.5 1.2a3.15 3.15 0 0 0-.4 1l-.5-.2a3.96 3.96 0 0 1 .6-1c.5-.7 1.3-1.2 2.2-1.5.9-.2 1.8-.2 2.7.1.7.2 1.3.6 1.8 1 .5.5.9 1 1.1 1.6l-.4.2Zm-6.2 2.9-.4-.1c.1-.5.4-1 .8-1.3.5-.3 1-.4 1.5-.3.5.1.9.4 1.2.8l-.2.2c-.3-.4-.6-.6-1.1-.7-.4-.1-.8 0-1.2.3-.3.3-.6.6-.6 1.1Zm13.4 4.4h-.5l.1-.5c.133.067.267.1.4.1.533 0 1-.167 1.4-.5.6-.4.9-1 1.1-1.6.2-1.4-.7-2.7-2.1-2.9l.1-.5c1.6.3 2.7 1.8 2.4 3.4-.1.8-.6 1.5-1.2 2-.5.3-1.1.5-1.7.5ZM34 41.7c-.8 0-1.5-.3-2-.8-.6-.5-.9-1.3-.9-2-.1-1.6 1.2-3 2.8-3 .8 0 1.5.3 2.1.8.6.5.9 1.2.9 2h-.4c0-.6-.3-1.2-.8-1.7-.5-.4-1.1-.7-1.8-.7-1.3.1-2.4 1.2-2.4 2.6 0 .6.3 1.2.8 1.7.5.4 1.1.7 1.8.7v.4H34Zm-11.9 6-.3-.1c.3-.8.3-1.6 0-2.4-.3-.8-.9-1.4-1.7-1.7-1.6-.6-3.5.1-4.1 1.7l-.3-.1c.3-.8 1-1.5 1.8-1.9.9-.3 1.8-.3 2.7 0 .9.4 1.5 1 1.9 1.9.4.8.4 1.8 0 2.6Zm-12.2-.2c-.6-.2-1.1-.7-1.4-1.3-.2-.5-.3-1.2-.1-1.8.2-.6.7-1.1 1.3-1.4.5-.3 1.2-.3 1.8-.1l-.1.4c-.5-.2-1.1-.2-1.5.1-.5.2-.9.6-1 1.1-.2.5-.2 1.1 0 1.6.3.4.7.8 1.2 1l-.2.4Zm19.8-3.6c-.4-1-1.2-1.8-2.2-2.3-1.1-.4-2.2-.4-3.3 0l-.1-.3c1.1-.4 2.4-.4 3.5 0 1.1.5 1.9 1.4 2.4 2.5l-.3.1ZM7.4 55.6c-.6-.8-.9-1.8-.8-2.8.1-.9.5-1.8 1.3-2.5l.3.4c-.7.5-1.1 1.3-1.2 2.2-.1.9.2 1.7.8 2.4l-.4.3Zm31.8-.4c-1.4-.2-2.3-1.4-2.2-2.7h.3c-.1 1.2.7 2.2 1.9 2.4v.3Zm-21.9-3.3h-.4c-.4-.2-.8-.4-1-.8-.2-.4-.2-.8-.1-1.2l.5.1c-.133.333-.133.633 0 .9s.367.433.7.5a.85.85 0 0 0 .8 0c.333-.2.533-.433.6-.7l.4.1c-.1.4-.4.8-.8 1-.2.067-.433.1-.7.1Zm15.6-2.3c-1.3 0-2.4-.8-2.7-2.1-.5-1.5.4-3.1 1.9-3.5 1.5-.4 3.1.5 3.5 2l-.5.1c-.3-1.2-1.6-2-2.9-1.6-1.2.3-2 1.6-1.6 2.9.3 1.2 1.6 2 2.9 1.7l.1.4c-.267.067-.5.1-.7.1Zm-20.4 1.7c-1 0-2-.6-2.5-1.6l.3-.1c.6 1.2 2 1.8 3.2 1.2 1.2-.6 1.8-2 1.2-3.2-.6-1.3-2-1.8-3.2-1.2l-.2-.3c1.4-.7 3.1-.1 3.7 1.3.6 1.4 0 3.1-1.3 3.7-.4.133-.8.2-1.2.2Zm28.9 2.2c-.4 0-.9-.2-1.3-.5-1.1-.7-1.3-2.2-.5-3.2l.2.2c-.6.8-.4 2.1.5 2.8.9.6 2.1.4 2.8-.5.6-.9.4-2.1-.5-2.8l.2-.3c1.1.8 1.3 2.3.5 3.3-.4.6-1.1 1-1.9 1Zm-26.8-8.7c-1-.2-1.8-.7-2.4-1.5-.5-.8-.7-1.7-.6-2.7.2-.9.7-1.8 1.5-2.3.8-.6 1.7-.8 2.7-.6.9.1 1.7.6 2.3 1.4.5.8.7 1.8.6 2.7l-.4-.1c.2-1.7-.9-3.3-2.6-3.6-1.7-.3-3.3.9-3.6 2.6-.3 1.7.8 3.3 2.5 3.6v.5Z"/>
  <path fill="#3F1D13" d="M21.6 49.8c-.8 0-1.5-.3-2-1l.4-.3c.6.9 1.7 1.2 2.6.6.9-.6 1.2-1.7.6-2.6l.4-.3c.7 1.1.3 2.6-.7 3.3-.4.2-.833.3-1.3.3Zm21.9 5.8c-.333 0-.667-.067-1-.2l.1-.4c.333.134.633.2.9.2 1.1 0 2.1-.7 2.5-1.8.5-1.3-.2-2.8-1.6-3.3l.2-.4c1.6.5 2.4 2.3 1.8 3.9-.5 1.2-1.6 2-2.9 2Z"/>
  <path fill="#3F1D13" fill-rule="evenodd" d="M43.1 48c-1.6 0-2.9-1.3-2.9-2.9 0-1.7 1.3-3 2.9-3 1.6 0 3 1.3 3 3 0 1.6-1.4 2.9-3 2.9Zm0-5.5c-1.4 0-2.5 1.2-2.5 2.6 0 1.4 1.1 2.5 2.5 2.5s2.5-1.1 2.5-2.5-1.1-2.6-2.5-2.6Z" clip-rule="evenodd"/>
  <path fill="#3F1D13" d="M36.9 44.2c-.7 0-1.4-.4-1.7-1.1-.2-.4-.2-1-.1-1.4.2-.5.5-.9 1-1.1.4-.3 1-.3 1.4-.1.5.2.9.5 1.1 1l-.3.1c-.1-.4-.5-.7-.9-.8-.4-.2-.8-.1-1.2.1-.4.1-.6.5-.8.9-.1.4-.1.8.1 1.2.4.8 1.3 1.1 2.1.7l.1.3c-.267.133-.534.2-.8.2Zm-9.7 4.9v-.3c.9 0 1.6-.7 1.6-1.6h.3c0 1-.8 1.9-1.9 1.9Zm-1.6-1.9h-.3c0-1.1.9-1.9 1.9-1.9v.3c-.8 0-1.6.7-1.6 1.6Z"/>
  <path fill="#3F1D13" fill-rule="evenodd" d="M19.7 41.1c-.8 0-1.5-.3-2.1-.9-.5-.5-.9-1.3-.9-2.1 0-.7.4-1.5.9-2 .6-.6 1.3-.9 2.1-.9 1.6 0 2.9 1.3 2.9 2.9 0 1.7-1.3 3-2.9 3Zm0-5.5c-.7 0-1.3.3-1.8.8-.5.4-.7 1.1-.7 1.7 0 .7.2 1.3.7 1.8.5.5 1.1.7 1.8.7 1.3 0 2.5-1.1 2.5-2.5 0-1.3-1.2-2.5-2.5-2.5Z" clip-rule="evenodd"/>
  <path fill="#855226" d="M20.5 57.2c-.1.8.5 1.5 1.3 1.5.7.1 1.4-.5 1.5-1.3 0-.8-.5-1.6-1.3-1.6-.8-.1-1.4.5-1.5 1.4Z"/>
  <path fill="#050505" d="M21.4 57.3c0 .2.2.4.5.4.2 0 .4-.2.4-.5 0-.2-.2-.4-.4-.4-.3 0-.5.2-.5.5Z"/>
  <path fill="#FEFEFE" d="M22.2 56.7c0 .2.2.3.3.3.1 0 .3-.1.3-.3 0-.1-.2-.3-.3-.3-.1 0-.3.2-.3.3Z"/>
  <path fill="#855226" d="M32.9 57.2c.1.8-.4 1.6-1.2 1.7-.7.1-1.4-.5-1.6-1.3-.1-.8.5-1.6 1.2-1.7.8-.1 1.5.5 1.6 1.3Z"/>
  <path fill="#050505" d="M32 57.4c0 .2-.2.4-.4.5-.3 0-.5-.2-.5-.5s.2-.5.4-.5c.3 0 .5.2.5.5Z"/>
  <path fill="#FEFEFE" d="M31.1 56.9c0 .1-.1.3-.2.3s-.3-.1-.3-.3c0-.1.1-.3.3-.3.1 0 .2.1.2.3Z"/>
  <path fill="#050505" d="M29.2 58.6h-.1c-.1 0-.2-.2-.1-.3.3-1.4 1.3-2.4 3-2.7 1-.3 1.9-.2 2.2-.2l1-1.1c.1-.1.2-.1.3 0 .1.1.1.2 0 .3l-1 1.2c-.067.066-.133.1-.2.1 0 0-1.1-.2-2.2.1-1.533.333-2.433 1.133-2.7 2.4 0 .1-.1.2-.2.2Z"/>
  <path fill="#BB8653" d="m34.1 54.5-.6 1.1.6-1.1Z"/>
  <path fill="#050505" d="M33.5 55.8h-.1c-.1-.1-.1-.2-.1-.3l.6-1.1c.1-.1.2-.2.3-.1.1 0 .2.2.1.3l-.6 1.1c-.067.066-.133.1-.2.1Zm-9.2 2.5c-.133 0-.2-.066-.2-.2-.4-1.267-1.333-2-2.8-2.2-1.2-.2-2.2 0-2.2 0h-.2l-1.2-1.2c-.1-.1-.1-.2 0-.3.1-.1.2-.1.3 0l1.1 1.1c.3-.1 1.2-.2 2.2 0 1.7.2 2.8 1.1 3.2 2.5 0 .1 0 .3-.2.3Z"/>
  <path fill="#BB8653" d="m19.1 54.5.7 1.1-.7-1.1Z"/>
  <path fill="#050505" d="M19.8 55.8c-.067 0-.133-.033-.2-.1l-.7-1.1c0-.1 0-.2.1-.3.1-.1.2 0 .3.1l.7 1.1c.1.1 0 .2-.1.3h-.1Z"/>
  <path fill="#050505" d="M19.8 55.2c-.067 0-.133-.034-.2-.1-.1-.1-.1-.2 0-.4.8-1 1.9-1.2 2.6-1.2.8 0 1.4.3 1.4.3.2.1.2.3.2.4-.1.1-.3.2-.4.1 0 0-.5-.2-1.2-.2-.867-.067-1.6.267-2.2 1-.067.066-.133.1-.2.1Zm13.7 0c-.067 0-.133-.033-.2-.1-.667-.666-1.433-.966-2.3-.9-.6 0-1.1.3-1.1.3-.2.1-.3.1-.4-.1-.1-.1 0-.3.1-.4 0 0 .6-.3 1.4-.4.7-.1 1.8.1 2.7 1.1.1.1.1.3 0 .4-.067.067-.133.1-.2.1Zm-3.7 7.3c-.3-.9-1.7-.6-2.5-.4h-1.7c-.8-.2-2.3-.5-2.6.4-.3.9.3 2.7 3.1 2.8.133.067.233.067.3 0a.425.425 0 0 0 .4 0c2.7-.1 3.4-1.9 3-2.8Z"/>
  <path fill="#CD895A" d="M16.9 79.1c.1.8-.2 1.5-.5 1.6-.4 0-.8-.6-.8-1.5l-9-76.7c-.1-.8.1-1.5.5-1.6.3 0 .7.6.8 1.5l9 76.7Z"/>
  <path fill="#B76A4E" d="m6.5 2.4 9 76.7c.1.6.3 1 .5 1.3L6.9.9c-.3.2-.4.8-.4 1.5Z"/>
  <path fill="#CD895A" d="M88.4 81c-.1.9-.4 1.5-.7 1.5-.4 0-.7-.7-.6-1.5l4.7-79.4c0-.9.4-1.6.7-1.5.4 0 .7.7.6 1.5L88.4 81Z"/>
  <path fill="#B76A4E" d="m91.8 1.5-4.7 79.4c-.1.5.1 1 .2 1.3L92.4 0c-.3.1-.6.7-.6 1.5Z"/>
  <path fill="#B3805F" d="M89.5 67.7c-.9.6-.5 1.8-.4 2.2.1.5.4 1.6 1.2 1.5.7 0 1.3-.2 2-.6.6-.4.1-2.8-.6-3.4-.7-.5-1.8.1-2.2.3Z"/>
  <path fill="#050505" fill-rule="evenodd" d="M90.3 71.6c-1 0-1.3-1.2-1.3-1.6-.067-.067-.1-.133-.1-.2-.1-.5-.4-1.7.5-2.2 1.067-.667 1.867-.767 2.4-.3.5.4 1 1.9 1 2.9-.067.4-.2.667-.4.8-.6.3-1.3.6-2.1.6Zm-.7-3.7c-.6.4-.5 1.1-.3 1.8v.2c.1.3.3 1.3 1 1.4.7-.1 1.3-.3 1.9-.7.067-.067.133-.233.2-.5 0-.8-.4-2.1-.8-2.5-.4-.333-1.067-.233-2 .3Z" clip-rule="evenodd"/>
  <path fill="#B3805F" d="M87.2 68.1c.1-.3.5-.4.8-.3l1 .3c.3.1.5.5.4.8-.1.3-.5.5-.8.4l-.7-.2"/>
  <path fill="#050505" d="M88.8 69.5h-.3l-.6-.2c-.1 0-.2-.1-.2-.2.1-.1.2-.2.3-.2l.6.2c.3.1.5 0 .6-.3v-.3a1.167 1.167 0 0 0-.3-.2l-1-.3c-.2-.1-.4 0-.5.2 0 .1-.1.2-.2.1-.1 0-.2-.1-.2-.2.2-.4.6-.7 1.1-.5l1 .3a.6.6 0 0 1 .4.4c.133.2.167.433.1.7-.2.3-.5.5-.8.5Z"/>
  <g opacity=".1" style="mix-blend-mode:multiply">
    <mask id="e" width="2" height="3" x="88" y="68" maskUnits="userSpaceOnUse" style="mask-type:luminance">
      <path fill="#fff" d="m88.05 70.03 1.77.02.02-1.58-1.77-.01-.02 1.57Z"/>
    </mask>
    <g mask="url(#e)">
      <path fill="#050505" d="M88.1 69.2s1.1.4 1.2-.3c.2-.6.4-.4.4-.4s.4.6-.1 1.3c-.5.6-1.7.1-1.5-.6Z"/>
    </g>
  </g>
  <path fill="#CFE0EF" d="M6.5 4.7c3.2.8 24.2 1.7 37.6 1.5 16.4-.2 49.1-3 49.1-3L92 26.1s-33.3 2.1-39.7 2.4c-19.5.8-40.2-1.3-43.2-3.5C8 18.8 6.5 4.7 6.5 4.7Z"/>
  <path fill="#B8C7DA" d="m8.7 6.2 2.7 18.6s.5.3 1.3.3c-1.6-7.7-4-18.9-4-18.9Zm82.7-1.5c-.2 1.5-1.2 20.7-1.7 20.8-.6.1-1 .1-1 .1l2.7-20.9Z" style="mix-blend-mode:multiply"/>
  <path fill="#803531" stroke="#050505" stroke-linecap="round" stroke-width=".4" d="M17.1 68.9c.4 1.3-.2 2.6-1.3 3-1.1.4-2.4-.3-2.8-1.6-.4-1.3.2-2.6 1.4-3 1.1-.4 2.3.3 2.7 1.6Z"/>
  <path fill="#803531" stroke="#050505" stroke-linecap="round" stroke-width=".4" d="M13.9 68.5c.3.1.5.5.3.8-.1.4-.5.5-.8.4l-.7-.3c-.4-.2-.5-.5-.4-.9.2-.3.6-.5.9-.3l.7.3Z"/>
  <path fill="#050505" d="M16.9 69.9s-.3 1-1.3 1.2c-1 .2-1.5-1-1.5-1s.6-.4.3-.9c0 0-.4.9-1.1.4h-.4l.1.5s.6 2.2 2.4 1.9c1.9-.4 1.6-1.9 1.5-2.1Z" opacity=".2" style="mix-blend-mode:multiply"/>
  <path fill="#7358A4" fill-rule="evenodd" stroke="#7358A4" stroke-width=".4" d="M17.4 20.5a.887.887 0 0 0-.4-.1l-.2-.1c.133-.667.3-1.7.5-3.1.2-.933.4-2.033.6-3.3.133-.733.233-1.367.3-1.9.067-.067.1-.133.1-.2h.3c.067.066.133.1.2.1v.4c.2-.2.4-.3.6-.3.067-.067.167-.067.3 0h.1c.067 0 .167.067.3.2.133.067.267.233.4.5.2.333.3.8.3 1.4 0 .667-.067 1.367-.2 2.1a7.31 7.31 0 0 1-.5 1.9c-.2.6-.467 1.133-.8 1.6-.267.333-.6.567-1 .7-.333.133-.633.167-.9.1Zm.1-.6h.4c.133 0 .267-.067.4-.2.2-.067.367-.2.5-.4.333-.4.6-.9.8-1.5.2-.534.367-1.133.5-1.8l.1-.5v-1.3c0-.533-.067-.933-.2-1.2-.133-.267-.267-.433-.4-.5h-.1c-.2.067-.4.233-.6.5a3.5 3.5 0 0 0-.5 1l-.1.7c-.333 1.933-.6 3.667-.8 5.2Z" clip-rule="evenodd"/>
  <path fill="#7358A4" stroke="#7358A4" stroke-width=".4" d="m23 21.2-1.8-.2c-.067 0-.1-.033-.1-.1-.067 0-.1-.034-.1-.1v-.1c.067-.6.167-1.3.3-2.1 0-.267.033-.7.1-1.3.067-.667.167-1.5.3-2.5.133-1 .233-1.7.3-2.1v-.1l.1-.1c.067-.067.133-.1.2-.1l1.8.3c.133 0 .2.033.2.1.067.066.1.133.1.2s-.033.133-.1.2h-.2l-1.5-.1a87.88 87.88 0 0 1-.3 1.9l.8.1c.133 0 .2.033.2.1.067.067.1.167.1.3 0 .067-.033.1-.1.1-.067.066-.133.1-.2.1l-.9-.1a382.05 382.05 0 0 1-.4 3.1 74.052 74.052 0 0 1-.2 1.8l1.5.2c.067 0 .1.033.1.1.067.066.1.133.1.2s-.033.133-.1.2-.133.067-.2 0Z"/>
  <path fill="#7358A4" fill-rule="evenodd" stroke="#7358A4" stroke-width=".4" d="M24.7 21.4c-.066 0-.133-.034-.2-.1-.067-.067-.1-.134-.1-.2.067-.6.134-1.267.2-2 .2-2.2.3-3.534.3-4 .134-.867.234-1.567.3-2.1 0-.067.034-.133.1-.2h.2c.067 0 .134.033.2.1.067.067.067.133 0 .2v.1c.267-.267.567-.4.9-.4.267.066.5.233.7.5.267.466.334 1.133.2 2 0 .6-.166 1.3-.5 2.1-.4.867-.9 1.433-1.5 1.7.267.6.667 1.266 1.2 2 .067.066.1.133.1.2 0 .066-.033.133-.1.2h-.2c-.067 0-.133-.033-.2-.1-.533-.6-.933-1.167-1.2-1.7-.067.533-.1 1-.1 1.4 0 .066-.033.133-.1.2-.066.066-.133.1-.2.1Zm.5-2.8c.467-.134.867-.6 1.2-1.4a5.734 5.734 0 0 0 .6-2c.067-.733 0-1.267-.2-1.6-.133-.133-.233-.2-.3-.2-.067 0-.2.1-.4.3-.267.333-.466.833-.6 1.5a49.65 49.65 0 0 0-.3 3.4Z" clip-rule="evenodd"/>
  <path fill="#7358A4" stroke="#7358A4" stroke-width=".4" d="m30.1 21.8-1.7-.1c-.067 0-.133-.034-.2-.1v-.1l-.1-.1c.067-.6.133-1.334.2-2.2 0-.2.033-.634.1-1.3 0-.667.033-1.5.1-2.5.133-1 .2-1.7.2-2.1.067-.067.1-.134.1-.2h.2l1.8.1c.133 0 .2.033.2.1.067.066.1.133.1.2 0 .066-.033.133-.1.2-.067.066-.133.1-.2.1l-1.5-.1a33.096 33.096 0 0 0-.2 2h.9c.067 0 .133.033.2.1v.2c0 .066-.033.133-.1.2 0 .066-.067.1-.2.1l-.8-.1a68.58 68.58 0 0 0-.3 3.1c0 .666-.033 1.3-.1 1.9h1.5c.067.066.133.1.2.1.067.066.067.133 0 .2v.2c-.067.066-.167.1-.3.1Zm2.3.2c-.333 0-.633-.233-.9-.7-.2-.4-.333-.933-.4-1.6-.067-.467-.1-.967-.1-1.5.067-.2.1-.533.1-1 .067-.533.2-1.133.4-1.8.133-.667.367-1.167.7-1.5.267-.4.567-.6.9-.6.067 0 .133.033.2.1.467.133.7.667.7 1.6v.2c-.067.067-.1.133-.1.2-.067.067-.133.1-.2.1-.133 0-.233-.033-.3-.1v-.8c0-.2-.033-.367-.1-.5 0-.067-.033-.133-.1-.2H33l-.1.1c-.067 0-.167.067-.3.2-.267.333-.467.8-.6 1.4-.2.8-.333 1.667-.4 2.6-.067 1.333.067 2.267.4 2.8.067.2.167.333.3.4.067.067.133.1.2.1.2-.067.367-.233.5-.5a6.6 6.6 0 0 0 .4-1.1c0-.067.033-.133.1-.2s.133-.067.2 0c.067 0 .133.033.2.1v.2c-.067.333-.133.633-.2.9-.133.333-.3.6-.5.8-.133.2-.3.3-.5.3-.067.067-.167.067-.3 0Zm2.8.1c-.067 0-.133-.033-.2-.1 0-.067-.033-.134-.1-.2v-3.2c0-.334.034-.967.1-1.9 0-1 .067-2.034.2-3.1 0-.067.033-.133.1-.2s.134-.1.2-.1l.2.2c.067 0 .1.033.1.1v.1c-.066.667-.133 1.433-.2 2.3h1.8v-2.3c0-.133.034-.2.1-.2.067-.067.133-.1.2-.1s.133.033.2.1.1.133.1.2l-.2 8.2c0 .067-.033.133-.1.2h-.4c-.066-.067-.1-.167-.1-.3l.1-5.2-1.7-.1c-.067.733-.1 1.4-.1 2v3.3c0 .066-.033.133-.1.2 0 .067-.066.1-.2.1Z"/>
  <path fill="#7358A4" fill-rule="evenodd" stroke="#7358A4" stroke-width=".4" d="M40.1 22.2a.679.679 0 0 1-.5-.2 2.996 2.996 0 0 1-.3-.4c-.267-.467-.433-1.2-.5-2.2v-2.1c.067-1.6.333-2.767.8-3.5.2-.267.433-.4.7-.4.133 0 .3.066.5.2.2.267.367.633.5 1.1.2.8.3 1.8.3 3v.7c0 .333-.033.767-.1 1.3-.133.533-.267 1-.4 1.4-.2.666-.533 1.033-1 1.1Zm0-.6c.133 0 .3-.233.5-.7a9.835 9.835 0 0 0 .3-1.7c.067-.467.1-.967.1-1.5v-1c0-.4-.067-.9-.2-1.5-.133-.533-.3-.933-.5-1.2h-.1l-.1.1c-.4.667-.633 1.767-.7 3.3v2.2c.067.466.133.833.2 1.1.067.333.167.567.3.7.067.133.133.2.2.2Z" clip-rule="evenodd"/>
  <path fill="#7358A4" stroke="#7358A4" stroke-width=".4" d="M43.8 22.2a.678.678 0 0 1-.5-.2 1.79 1.79 0 0 1-.5-.5l-.2-.6v-.3c0-.267.033-.567.1-.9l.2-.2h.2c.067 0 .133.033.2.1v.2c-.066.333-.1.6-.1.8 0 .266.033.467.1.6.134.267.3.4.5.4h.1c.2-.067.334-.234.4-.5.067-.2.1-.4.1-.6v-.3c0-.133-.033-.3-.1-.5-.066-.267-.166-.467-.3-.6-.133-.4-.3-.734-.5-1l-.5-1c-.133-.334-.267-.7-.4-1.1a2.676 2.676 0 0 1-.2-1v-.4c0-.133.067-.3.2-.5.067-.267.167-.434.3-.5.2-.2.4-.3.6-.3.133 0 .233.033.3.1.2.067.367.2.5.4.2.2.3.466.3.8.067.066.1.167.1.3 0 .267-.033.533-.1.8 0 .067-.033.133-.1.2h-.3c-.067 0-.1-.034-.1-.1l-.1-.1v-.1c.067-.267.1-.5.1-.7v-.3l-.2-.4c-.133-.2-.267-.3-.4-.3s-.267.133-.4.4c-.067.2-.1.4-.1.6v.3c0 .133.067.367.2.7.067.333.167.633.3.9.2.333.367.666.5 1 .2.333.367.666.5 1 .133.2.233.433.3.7.134.333.2.667.2 1 0 .267-.033.533-.1.8a.97.97 0 0 1-.4.6c-.2.2-.433.3-.7.3Z"/>
  <path fill="#7358A4" fill-rule="evenodd" stroke="#7358A4" stroke-width=".4" d="M48.6 21.9c-.133.067-.233.067-.3 0H48c0-.666-.033-1.7-.1-3.1-.067-1-.1-2.133-.1-3.4v-2.1c.067-.067.133-.1.2-.1h.1c.067 0 .133.033.2.1v.3c.2-.2.4-.333.6-.4h.4c.067 0 .2.033.4.1.133.067.3.2.5.4.2.334.367.767.5 1.3.133.667.233 1.367.3 2.1 0 .667-.067 1.3-.2 1.9a5.128 5.128 0 0 1-.5 1.8c-.2.4-.467.7-.8.9-.267.134-.567.2-.9.2Zm0-.5a.887.887 0 0 0 .4-.1 1.56 1.56 0 0 0 .4-.3c.133-.066.267-.233.4-.5.2-.466.367-1 .5-1.6.067-.6.1-1.233.1-1.9v-.5a10.99 10.99 0 0 1-.2-1.2c-.133-.533-.3-.933-.5-1.2-.2-.267-.367-.4-.5-.4-.067 0-.1.033-.1.1-.2.067-.367.233-.5.5-.133.333-.2.7-.2 1.1v.7c.067 1.933.133 3.7.2 5.3Z" clip-rule="evenodd"/>
  <path fill="#7358A4" stroke="#7358A4" stroke-width=".4" d="M54 21.8h-1.8c-.067 0-.133-.034-.2-.1-.067 0-.1-.034-.1-.1v-.1c0-.6-.033-1.3-.1-2.1v-3.9c-.067-1-.067-1.7 0-2.1v-.2h.2l1.8-.1c.133 0 .2.033.2.1.067.066.1.133.1.2v.2c-.067.066-.133.1-.2.1h-1.6c0 .466.033 1.133.1 2h.8c.067 0 .133.033.2.1.067 0 .1.066.1.2 0 .066-.033.133-.1.2 0 .066-.067.1-.2.1h-.8v3.1c.067.666.1 1.266.1 1.8h1.4c.133 0 .2.033.2.1.067 0 .1.066.1.2v.2c-.067.066-.133.1-.2.1Zm3.3-.2h-.2c-.067-.067-.1-.133-.1-.2 0-.733-.033-1.533-.1-2.4v-2.6c-.067-1.2-.1-2.233-.1-3.1 0-.134.033-.2.1-.2.067-.067.133-.1.2-.1s.133.033.2.1c.067 0 .1.066.1.2v3.6c.067.733.1 1.433.1 2.1 0 .733.033 1.4.1 2l1.7-.1h.2c.067.067.1.133.1.2v.3c-.067 0-.133.033-.2.1l-2.1.1Z"/>
  <path fill="#7358A4" fill-rule="evenodd" stroke="#7358A4" stroke-width=".4" d="M63.1 21.4c-.067 0-.133-.034-.2-.1-.067 0-.1-.067-.1-.2-.067-.734-.167-1.734-.3-3l-1.4.1v3.1c-.067.066-.133.1-.2.1h-.2c-.067-.067-.1-.133-.1-.2-.067-.467-.1-1.033-.1-1.7v-2c0-.733.033-1.433.1-2.1s.133-1.233.2-1.7c.133-.467.267-.767.4-.9.067-.067.167-.1.3-.1.067-.067.167-.067.3 0 .133.133.267.433.4.9.2.6.433 1.6.7 3 .067.8.167 1.633.3 2.5.067.8.133 1.466.2 2 0 .066-.033.133-.1.2 0 .066-.067.1-.2.1Zm-.7-3.9c-.133-.933-.267-1.8-.4-2.6-.2-.8-.367-1.334-.5-1.6-.133.266-.233.766-.3 1.5-.067.8-.1 1.733-.1 2.8l1.3-.1Z" clip-rule="evenodd"/>
  <path fill="#7358A4" stroke="#7358A4" stroke-width=".4" d="M69.2 21c-.2 0-.3-.033-.3-.1l-2.3-6.5c.067 1.733.133 3.367.2 4.9.067.6.1 1.133.1 1.6.067.067.067.133 0 .2-.067.066-.133.1-.2.1s-.133-.034-.2-.1c-.067-.067-.1-.133-.1-.2-.067-.533-.1-1.1-.1-1.7-.067-.8-.133-1.9-.2-3.3-.067-1.333-.1-2.4-.1-3.2v-.2c.067-.067.133-.1.2-.1h.2l.2.2 2.2 6.4-.3-6.3c0-.133.033-.2.1-.2.067-.067.133-.1.2-.1h.2c.067.067.1.133.1.2l.4 7.9v.2c0 .067-.033.133-.1.2s-.133.1-.2.1Zm1.4 0c-.133 0-.2-.033-.2-.1-.067 0-.1-.067-.1-.2-.067-.067-.067-.133 0-.2s.133-.1.2-.1c-.067-.6-.1-1.233-.1-1.9a69.765 69.765 0 0 1-.2-2.7c-.067-1.067-.133-2-.2-2.8-.067 0-.133-.033-.2-.1s-.1-.133-.1-.2v-.2c.067-.067.4-.133 1-.2.067 0 .133.033.2.1.067 0 .1.033.1.1v.1c0 .066-.033.133-.1.2-.067.066-.133.1-.2.1h-.1c.067.8.133 1.933.2 3.4.067.733.1 1.433.1 2.1.067.667.133 1.3.2 1.9h.1c.067 0 .133.033.2.1s.1.133.1.2c.067.066.067.133 0 .2-.067.066-.133.1-.2.1l-.7.1Zm4.7-.4c-.133 0-.233-.067-.3-.2L72.6 14a366 366 0 0 0 .4 4.8c0 .6.034 1.167.1 1.7v.2c-.066.067-.133.1-.2.1-.133 0-.2-.033-.2-.1l-.2-.2c0-.533-.033-1.1-.1-1.7-.067-.8-.166-1.9-.3-3.3a98.519 98.519 0 0 0-.2-3.2c0-.067.033-.134.1-.2.067-.067.133-.1.2-.1h.2c.067.067.1.133.1.2l2.5 6.3-.5-6.3c0-.067.034-.133.1-.2 0-.067.067-.1.2-.1.067 0 .133.033.2.1l.1.2.5 7.8.1.1v.1c0 .133-.033.233-.1.3-.066.067-.166.1-.3.1Zm-1.5-9.1c-.133 0-.3-.1-.5-.3-.133-.2-.233-.3-.3-.3-.133 0-.233.066-.3.2v.1h-.1c-.066-.067-.1-.167-.1-.3 0-.133.067-.267.2-.4.067-.133.133-.2.2-.2.2 0 .4.133.6.4.067.2.167.3.3.3.067-.067.133-.2.2-.4l.1-.1h.1c.067.067.1.166.1.3v.1c-.133.4-.3.6-.5.6Zm5.3 8.7-1.7.2c-.067 0-.133-.034-.2-.1-.067 0-.1-.034-.1-.1v-.1c-.067-.6-.167-1.3-.3-2.1 0-.2-.033-.634-.1-1.3-.067-.667-.167-1.5-.3-2.5-.067-1-.1-1.7-.1-2.1v-.2c.067-.067.133-.1.2-.1l1.8-.2h.2c.067.066.1.133.1.2v.2c-.067.066-.133.1-.2.1l-1.6.2c.067.466.133 1.133.2 2l.9-.1c.067 0 .133.033.2.1.067 0 .1.066.1.2 0 .066-.033.133-.1.2 0 .066-.033.1-.1.1l-.9.1c.067 1.066.167 2.1.3 3.1.067.666.133 1.266.2 1.8l1.5-.2c.067 0 .133.033.2.1.067.066.1.133.1.2 0 .066-.033.133-.1.2-.067.066-.133.1-.2.1Zm2.3-.1c-.533.066-.867-.167-1-.7v-.1c-.067-.4.033-1.6.3-3.6h-.6c0-.067-.033-.133-.1-.2 0-.067.034-.133.1-.2.067-.067.134-.1.2-.1l.5-.1.1-.6c.2-1.8.3-2.767.3-2.9h-.4a14 14 0 0 0-1 .3h-.2c-.133-.067-.2-.133-.2-.2s.033-.133.1-.2c0-.067.034-.133.1-.2.4-.134.767-.2 1.1-.2.2-.067.367-.1.5-.1.334.067.534.233.6.5 0 .2-.133 1.233-.4 3.1v.4h.2c.067-.067.134-.067.2 0 .067.067.1.133.1.2.067.067.067.133 0 .2s-.133.1-.2.1l-.4.1c-.333 2.066-.466 3.267-.4 3.6.067.133.133.233.2.3h.3c.133 0 .3-.067.5-.2h.1c.133-.067.234-.033.3.1.067 0 .1.033.1.1 0 .133-.067.233-.2.3a3.91 3.91 0 0 1-.8.3Z"/>
  <path fill="#FEFEFE" fill-rule="evenodd" d="M21 93.1c1 0 2.1 0 1.7 3.1-.2 2.9-1.2 3.1-2.7 3.2h-.5l.6-6.2.9-.1Zm-.2.7-.5 4.8c1.4 0 1.5-1.3 1.6-2.4.1-.9.3-2.6-1.1-2.4Z" clip-rule="evenodd"/>
  <path fill="#FEFEFE" d="m23.9 99.1-.8.1.6-6.2.8-.1-.6 6.2Zm.2-6.5-.4-.2.8-1.2.5.3-.9 1.1Z"/>
  <path fill="#FEFEFE" fill-rule="evenodd" d="m26.8 92.8.7 6.1-.8.1-.1-1.2-1.2.1-.4 1.2h-.8l2-6.3h.6Zm-.4 3.5-.1-2.3-.8 3.2h1l-.1-.9Zm4.5-3.8c1 0 2 0 1.7 3.1-.2 2.9-1.2 3.1-2.7 3.2h-.5l.6-6.2.9-.1Zm-.2.7-.5 4.8c1.4 0 1.4-1.3 1.6-2.3 0-1 .3-2.7-1.1-2.5Z" clip-rule="evenodd"/>
  <path fill="#FEFEFE" d="m35.8 92.3-.1.7-1.4.1-.2 1.9 1.3-.1-.1.8h-1.2l-.2 2.2 1.3-.1v.7l-2.2.1.6-6.2 2.2-.1Zm2.7-.2-.5 5.5 1.3-.1v.8l-2.2.1.6-6.3h.8Z"/>
  <path fill="#FEFEFE" fill-rule="evenodd" d="M42.9 94.9c-.1 1.2-.3 3.2-1.9 3.3-1.6.1-1.4-1.9-1.3-3.1.1-1.1.4-3.2 2-3.3 1.5-.1 1.4 2 1.2 3.1Zm-2.3.2c-.1 1.3-.1 2.4.5 2.4.6-.1.8-1.2 1-2.5.1-1.3.1-2.4-.5-2.4-.7 0-.9 1.2-1 2.5Z" clip-rule="evenodd"/>
  <path fill="#FEFEFE" d="M45.7 92.6c-.2-.1-.4-.2-.7-.2-.4 0-.7.4-.8.9 0 .2 0 .4.2.6l.5.7c.5.5.8.9.7 1.7-.1.9-.7 1.7-1.6 1.8-.3 0-.6-.1-.8-.3V97c.3.1.5.3.8.3.5-.1.8-.5.8-1 .1-1.2-1.6-1.3-1.4-3 .1-.9.6-1.6 1.5-1.7.333 0 .633.067.9.2l-.1.8Z"/>
  <path fill="#4F9BCF" d="M64 105.5.5 109.4l.8-4.8 62.3-3.8.4 4.7Z"/>
  <path fill="#FEFEFE" fill-rule="evenodd" d="m2.4 110.8.6-7.6 3-.2c1.133-.066 2.033.234 2.7.9.6.667.867 1.567.8 2.7-.067 1.067-.5 2-1.3 2.8-.733.734-1.667 1.133-2.8 1.2l-3 .2Zm2.7-5.6-.3 3.3h.8c.467 0 .833-.166 1.1-.5.267-.333.433-.733.5-1.2 0-.533-.1-.933-.3-1.2-.267-.333-.6-.466-1-.4h-.8Z" clip-rule="evenodd"/>
  <path fill="#FEFEFE" d="M12.8 104.7v.8l3-.2-.2 2-3 .1v.7l3.2-.2-.2 2.1-5.5.4.7-7.7 5.5-.3-.2 2.1-3.3.2Z"/>
  <path fill="#FEFEFE" fill-rule="evenodd" d="m23.5 109.6-2.8.1-1.4-1.8h-.2l-.1 1.9-2.3.2.6-7.7 3.1-.2c.1 0 .2 0 .6.1.4 0 .8.1 1.2.4.5.2.8.6.9 1.2.133.333.167.7.1 1.1-.067 1-.533 1.8-1.4 2.4l1.7 2.3Zm-4.1-5.3-.1 1.5.8-.1c.467 0 .7-.233.7-.7 0-.5-.2-.7-.5-.7h-.9Z" clip-rule="evenodd"/>
  <path fill="#FEFEFE" d="m26.9 103.9-.1.7 3-.1-.2 1.9-3 .2v.7l3.2-.2-.2 2.1-5.5.3.7-7.6 5.5-.3-.2 2.1-3.2.2Zm11.9 1.6c-.267 1-.8 1.833-1.6 2.5s-1.7 1.033-2.7 1.1c-1.067.067-1.967-.267-2.7-1-.667-.733-.967-1.667-.9-2.8.067-1.067.533-2 1.4-2.8.8-.867 1.767-1.3 2.9-1.3 1-.067 1.833.167 2.5.7.667.6 1.067 1.4 1.2 2.4l-2.4.1a1.823 1.823 0 0 0-.6-.8c-.267-.2-.567-.3-.9-.3-.467 0-.867.2-1.2.6-.333.4-.533.833-.6 1.3 0 .533.133.967.4 1.3.267.333.633.467 1.1.4.333 0 .667-.133 1-.4.267-.2.5-.5.7-.9l2.4-.1Zm4.7 2.9.2-2.4-1.9.1-.2 2.4-2.2.1.6-7.6 2.3-.1-.3 3 1.9-.1.2-3 2.3-.2-.6 7.7-2.3.1Z"/>
  <path fill="#FEFEFE" fill-rule="evenodd" d="M51.5 100.2c1.067-.066 1.967.267 2.7 1 .733.734 1.033 1.634.9 2.7a4.33 4.33 0 0 1-1.3 2.9c-.867.8-1.867 1.233-3 1.3-1.133.067-2.033-.267-2.7-1-.733-.667-1.067-1.566-1-2.7.133-1.133.6-2.1 1.4-2.9.867-.8 1.867-1.233 3-1.3ZM51 106a2.06 2.06 0 0 0 1.2-.6c.333-.4.533-.833.6-1.3 0-.533-.133-.967-.4-1.3-.267-.333-.633-.466-1.1-.4-.467 0-.867.167-1.2.5a2.66 2.66 0 0 0-.6 1.4c-.067.467.067.867.4 1.2.267.334.633.5 1.1.5Z" clip-rule="evenodd"/>
  <path fill="#FEFEFE" d="M57.3 104.8c.533.533 1.1.8 1.7.8.467-.067.7-.2.7-.4 0-.133-.1-.233-.3-.3a12.35 12.35 0 0 0-.9-.4c-.334-.066-.7-.2-1.1-.4a1.624 1.624 0 0 1-.8-.7 1.34 1.34 0 0 1-.3-1.1c0-.467.233-.967.7-1.5.4-.6 1.3-1 2.3-1.1.8 0 1.6.2 2 .5.4.3.8.6.9.8l.1.2-1.6 1.3c-.267-.333-.5-.533-.7-.6-.2-.067-.467-.1-.8-.1-.3.1-.6.2-.6.4s.4.4.9.5c.267.067.566.167.9.3l.8.4c.267.133.466.367.6.7.133.267.2.6.2 1 0 .5-.3 1-.8 1.5-.4.6-1.3 1-2.4 1.1-.867 0-1.567-.166-2.1-.5-.534-.333-.9-.733-1.1-1.2l1.7-1.2Z"/>
  <path fill="#4F9BCF" d="M73.1 116.4 35.9 118l-.3-4.8 37.2-1.5.3 4.7Z"/>
  <path fill="#FEFEFE" fill-rule="evenodd" d="M21.8 113.3c1-.1 2-.1 1.7 3.1-.2 2.9-1.2 3-2.7 3.1l-.5.1.6-6.3h.9Zm-.2.7-.5 4.9c1.4-.1 1.4-1.4 1.6-2.4 0-1 .3-2.6-1.1-2.5Z" clip-rule="evenodd"/>
  <path fill="#FEFEFE" d="m26.7 113-.1.7-1.4.1-.2 1.9h1.3l-.1.7-1.2.1-.2 2.1 1.3-.1v.7l-2.2.2.6-6.3 2.2-.1Zm2.7-.2-.5 5.5h1.3v.7l-2.2.1.6-6.2.8-.1Z"/>
  <path fill="#FEFEFE" fill-rule="evenodd" d="m32.6 112.6.7 6.2h-.8l-.1-1.2-1.2.1-.4 1.2-.8.1 2-6.3.6-.1Zm-.4 3.5-.1-2.3-.8 3.2 1-.1-.1-.8Z" clip-rule="evenodd"/>
  <path fill="#FEFEFE" d="m45.9 111.3-.7 7.6-2.1.1-2.1-3.2-.3 3.4-2.3.1.7-7.7 2.1-.1 2.1 3.2.3-3.3 2.3-.1Zm.5 7.6.7-7.7 2.2-.1-.6 7.6-2.3.2Zm10.8-8.2-.6 7.6-2.1.1-2.2-3.2-.2 3.4-2.3.1.7-7.7 2-.1 2.2 3.2.2-3.3 2.3-.1Zm-.5-3.1c-.1.9-.4 1.6-.8 2-.3.3-.7.5-.9.5l-.1.1c-.267 0-.533-.1-.8-.3-.333-.133-.533-.2-.6-.2-.067 0-.133.167-.2.5l-1.9.1c.1-1 .4-1.7.7-2 .4-.3.7-.5 1-.6h.1c.267 0 .533.067.8.2.267.2.433.3.5.3.133 0 .2-.166.2-.5l2-.1Zm3.9 5-.1.8 3-.2-.2 2-3 .1v.7l3.2-.2-.2 2.2-5.5.3.7-7.7 5.5-.3-.2 2.2-3.2.1Zm6.7 3 2.9-.1-.1 2.1-6.1.3.2-1.8 3.1-3.8-2.7.1.2-2.1 5.8-.3-.2 1.8-3.1 3.8Z"/>
  <path fill="#050505" d="M66.1 95.1v-1.4c0-.2.067-.5.2-.9s.3-.766.5-1.1c.2-.266.533-.533 1-.8.466-.2 1.033-.3 1.7-.3 1.4-.1 2.4.4 2.9.9.266.267.466.6.6 1 .133.4.2.7.2.9.066.2.1.434.1.7v.1c0 .734-.233 1.534-.7 2.4-.533.8-1.133 1.534-1.8 2.2h2.7l.1 2.8-7 .2-.1-2.5c1.8-1.6 2.9-2.9 3.3-3.7.2-.333.333-.6.4-.8.066-.2.066-.366 0-.5 0-.4 0-.6-.1-.8-.133-.066-.3-.1-.5-.1-.4 0-.5.3-.5.9l.1.7-3.1.1Zm7.9-4.5 6.8-.2.1 2.3-3.1 8.8-3.3.1 2.9-8.2-3.3.1-.1-2.9Z"/>
  <path fill="#FEFEFE" d="M65.4 93.9v-1.4c0-.2.067-.5.2-.9.067-.4.2-.766.4-1.1.2-.266.533-.533 1-.8.467-.2 1.033-.3 1.7-.3 1.4-.1 2.4.4 2.9.9.267.267.467.6.6 1 .2.4.3.7.3.9v.8c.067.734-.167 1.533-.7 2.4a8.075 8.075 0 0 1-1.7 2.2h2.7l.1 2.8-7.1.2-.1-2.5c1.8-1.6 2.9-2.9 3.3-3.7.2-.333.333-.6.4-.8.067-.133.1-.3.1-.5 0-.4 0-.6-.2-.8a.887.887 0 0 0-.4-.1c-.5 0-.5.3-.5.9v.7l-3 .1Zm7.9-4.5 6.7-.2.1 2.3-3.1 8.8-3.2.1 2.9-8.2-3.4.1v-2.9Z"/>
  <defs>
    <linearGradient id="c" x1="12.9" x2="14.2" y1="142.1" y2="142.1" gradientUnits="userSpaceOnUse">
      <stop stop-color="#fff"/>
      <stop offset=".996" stop-color="#24134F"/>
    </linearGradient>
    <linearGradient id="d" x1="11.3" x2="22.4" y1="115.7" y2="115.7" gradientUnits="userSpaceOnUse">
      <stop stop-color="#fff"/>
      <stop offset="1" stop-color="#22474F"/>
    </linearGradient>
  </defs>
</svg>
