<svg xmlns="http://www.w3.org/2000/svg" width="88" height="113" fill="none" viewBox="0 0 88 113">
  <path fill="#512E8D" d="M47.9 68.2 16 67.7 6.7 53.1 3 55.8l3.5 56.9 75.1-5L84 104 64.9 91.8l-17-23.6Z"/>
  <path fill="#9B82BB" d="m81.7 48-75 5.1 3.6 56.2 77.4-5.5-6-55.8Z"/>
  <path fill="#6A4C9E" d="m10.3 109.3-3.8 3.4 78.8-5.2 2.4-3.7-77.4 5.5Z"/>
  <path fill="#006752" d="M4.1 52.1 2.9 97.8l74.2.5 5-40-78-6.2Z"/>
  <path fill="#F49357" fill-rule="evenodd" d="m84.1 56-4.7 46.1L0 100.7 1.6 50l82.5 6Zm-2 2.2L4.1 52 2.9 97.7l74.3.5 4.9-40Z" clip-rule="evenodd"/>
  <path fill="#B36638" d="m83.9 56-2.2 2.2.4.1-.1.3 2.1-2.1V56h-.2Zm-6.7 41.8-.1.5h-.3l2.3 3.8h.3l.1-.5-2.3-3.8Zm-74.3 0v-.5L0 100.2v.5h.3l2.9-2.9h-.3Zm1.2-45.7h.5L2.2 50h-.6v.2l2.5 2.1v-.2Z"/>
  <path fill="#004B3A" d="m82.1 58.3-78-6.2v1l75 7.1-11.3 38 9.3.1 1.8-17.4 3.2-22.6Z" opacity=".6"/>
  <path fill="#ED4592" d="M86.1 89 6 91.4v-3.7l80.1-2.4V89Z"/>
  <path fill="#FEFEFE" fill-rule="evenodd" d="M21.8 78.4c.8 0 1.6 0 1.3 2.5-.3 2.3-1.1 2.4-2.2 2.5h-.5l.7-5h.7Zm-.2.6-.5 3.8c1.1 0 1.2-1 1.3-1.8.1-.8.3-2.1-.8-2Z" clip-rule="evenodd"/>
  <path fill="#FEFEFE" d="M24 83.3h-.7l.6-4.9.7-.1-.6 5Zm.3-5.1L24 78l.6-1 .4.3-.7.9Z"/>
  <path fill="#FEFEFE" fill-rule="evenodd" d="m26.4 78.3.5 4.9h-.7l-.1-.9h-.9l-.3 1h-.7l1.7-5h.5Zm-.4 2.8v-1.8l-.7 2.5h.8l-.1-.7Z" clip-rule="evenodd"/>
  <path fill="#FEFEFE" d="m28.9 83.1-.6.1.6-5h.7l-.7 4.9Zm1.7-3.5-.1 1.7-.3 1.8h-.6l.6-4.9h.6l.7 3.7.1-2 .2-1.8h.7l-.6 4.9-.7.1-.6-3.8v.3Zm4.2-1.6v.6H34l-.5 4.4h-.7l.6-4.3h-.8l.1-.6 2.1-.1Zm2 0-.1.6h-1.1l-.2 1.5h1l-.1.6h-.9l-.3 1.7 1.1-.1v.6l-1.8.1.7-5h1.7Z"/>
  <path fill="#FEFEFE" fill-rule="evenodd" d="M37.1 78h.8c.5-.1 1.2-.1 1.1 1.2-.1.4-.3 1.2-.9 1.3l.6 2.3-.6.1-.6-2.4-.3 2.4h-.7l.6-4.9Zm1.1 1.4c.1-.5.1-.9-.4-.9h-.1l-.2 1.7c.5 0 .7-.3.7-.8Z" clip-rule="evenodd"/>
  <path fill="#FEFEFE" d="m40.1 79.3-.2 1.7-.2 1.8h-.6l.6-4.9h.6l.7 3.7.1-2 .2-1.7.7-.1-.7 5h-.6l-.6-3.8v.3Z"/>
  <path fill="#FEFEFE" fill-rule="evenodd" d="m43.8 77.8.4 4.9h-.6l-.1-1-1 .1-.3.9-.6.1 1.7-5h.5Zm-.4 2.7v-1.7l-.7 2.5h.8l-.1-.8Z" clip-rule="evenodd"/>
  <path fill="#FEFEFE" d="m47 78.4-.4-.2c-1 .1-1.1 1.4-1.2 2-.1.7-.2 1.9.7 1.9a.887.887 0 0 0 .4-.1l-.1.5a.68.68 0 0 1-.5.2c-1.4 0-1.3-1.4-1.2-2.4.1-1 .4-2.6 1.8-2.7.2 0 .4.1.5.2v.6Zm.4 4.2h-.7l.7-4.9h.6l-.6 4.9Z"/>
  <path fill="#FEFEFE" fill-rule="evenodd" d="M50.8 80c-.1.9-.4 2.6-1.6 2.6-1.3 0-1.1-1.6-1-2.5.1-.9.4-2.5 1.6-2.6 1.3 0 1.1 1.6 1 2.5Zm-1.9.1c-.1 1-.2 1.9.4 1.9.5 0 .6-.9.8-1.9.1-1.1.2-2-.4-1.9-.5 0-.7.8-.8 1.9Z" clip-rule="evenodd"/>
  <path fill="#FEFEFE" d="m52 79-.1 1.7-.3 1.8H51l.6-5h.6l.7 3.7.1-1.9.2-1.8h.7l-.7 4.9h-.6l-.6-3.7v.3Z"/>
  <path fill="#FEFEFE" fill-rule="evenodd" d="m55.7 77.4.4 4.9h-.6l-.1-.9h-1l-.3 1h-.6l1.7-5h.5Zm-.4 2.8v-1.8l-.7 2.5h.8l-.1-.7Z" clip-rule="evenodd"/>
  <path fill="#FEFEFE" d="m57.7 77.4-.6 4.3h1.1v.6h-1.8l.6-4.9h.7Z"/>
  <path fill="#FEFEFE" fill-rule="evenodd" d="M60.9 77.3c.8 0 1.7 0 1.4 2.5-.3 2.3-1.1 2.4-2.3 2.4h-.4l.6-4.9h.7Zm-.1.6-.5 3.8c1 0 1.1-1 1.2-1.9.1-.7.4-2-.7-1.9Z" clip-rule="evenodd"/>
  <path fill="#FEFEFE" d="M64.8 77.2v.5l-1.1.1-.2 1.5h.9v.6h-1l-.2 1.7 1.1-.1-.1.6h-1.8l.7-4.9h1.7Zm2.2-.1-.6 4.4 1.1-.1v.6h-1.8l.6-4.9h.7Z"/>
  <path fill="#FEFEFE" fill-rule="evenodd" d="m69.5 77 .5 4.9h-.7V81h-1l-.3 1h-.7l1.7-5h.5Zm-.3 2.8-.1-1.8-.7 2.5h.8v-.7Zm-57.7 6.1 1.6 6.2H11l-.1-.6h-2l-.3.7-2 .1 3-6.3 1.9-.1Zm-1.8 3.8h.8l-.2-1.3-.6 1.3Z" clip-rule="evenodd"/>
  <path fill="#FEFEFE" d="m16.2 85.8-.5 4.4h2.6l-.2 1.7-4.5.1.7-6.2h1.9Zm4.4 6-1.9.1.7-6.2 4.5-.1-.2 1.7-2.6.1-.1.9 2.4-.1-.2 1.6-2.4.1-.2 1.9Z"/>
  <path fill="#FEFEFE" fill-rule="evenodd" d="m27.9 85.4 1.6 6.2h-2l-.2-.6-2 .1-.3.6-2 .1 3-6.3 1.9-.1Zm-1.8 3.9.9-.1-.3-1.3-.6 1.4Zm4 2.3.6-6.2 2.7-.1h.3c.067 0 .233.033.5.1.2 0 .4.066.6.2.133.133.267.3.4.5s.167.467.1.8c0 .467-.2.9-.6 1.3.467.266.667.7.6 1.3-.133 1.266-1.067 1.933-2.8 2l-2.4.1Zm2-1.8h.8c.267 0 .433-.133.5-.4 0-.2-.133-.3-.4-.3h-.8l-.1.7Zm.2-2h.8c.1 0 .3-.1.3-.4 0-.2-.1-.3-.2-.3h-.8l-.1.7Z" clip-rule="evenodd"/>
  <path fill="#FEFEFE" d="m38.2 86.9-.1.6 2.4-.1-.1 1.6-2.5.1v.5l2.6-.1-.2 1.8-4.5.1.7-6.2 4.5-.1-.2 1.7-2.6.1Zm4.9-.2-1.7.1.2-1.8 5.3-.1-.2 1.7-1.7.1-.5 4.4-1.9.1.5-4.5Zm3.8 4.4.7-6.2 1.8-.1-.6 6.2-1.9.1Zm5.3-1.9 2.3-.1-.1 1.8-4.9.1.1-1.5 2.6-3H50l.2-1.7 4.7-.2-.1 1.5-2.6 3.1Z"/>
  <path fill="#FEFEFE" fill-rule="evenodd" d="m59.6 84.5 1.6 6.2h-2l-.1-.6h-2l-.3.7h-2l2.9-6.2 1.9-.1Zm-1.7 3.8h.8l-.3-1.3-.5 1.3Z" clip-rule="evenodd"/>
  <path fill="#FEFEFE" d="M68.2 87.9c-.267.733-.733 1.366-1.4 1.9-.667.533-1.4.833-2.2.9-.933 0-1.667-.3-2.2-.9-.533-.6-.767-1.334-.7-2.2a4.137 4.137 0 0 1 1.2-2.4c.667-.6 1.467-.934 2.4-1 .8 0 1.467.233 2 .7.6.533.933 1.2 1 2h-2c-.067-.267-.2-.5-.4-.7a1.775 1.775 0 0 0-.8-.2c-.333 0-.667.133-1 .4a2.36 2.36 0 0 0-.5 1.1c0 .4.1.733.3 1 .2.266.5.4.9.4.267 0 .533-.1.8-.3.267-.133.467-.367.6-.7h2Zm.3 2.5.7-6.2h1.9l-.7 6.2h-1.9Z"/>
  <path fill="#FEFEFE" fill-rule="evenodd" d="M75.2 83.9c.933 0 1.667.3 2.2.9.6.6.834 1.367.7 2.3-.066.867-.466 1.633-1.2 2.3-.666.6-1.466.933-2.4 1-.933 0-1.666-.3-2.2-.9-.533-.6-.766-1.334-.7-2.2a4.137 4.137 0 0 1 1.2-2.4c.667-.6 1.467-.933 2.4-1Zm-.5 4.7c.4 0 .733-.134 1-.4.267-.334.433-.7.5-1.1.067-.4-.033-.733-.3-1-.2-.267-.5-.4-.9-.4-.333 0-.666.166-1 .5-.266.266-.433.6-.5 1 0 .4.1.733.3 1 .2.333.5.466.9.4Zm1.5-5.1h-1.9l1.1-1.6 2.1-.1-1.3 1.7Z" clip-rule="evenodd"/>
  <path fill="#FEFEFE" d="m84.9 83.8-.7 6.2h-1.7l-1.7-2.6-.3 2.7h-1.8l.6-6.2H81l1.7 2.6.3-2.7h1.9Z"/>
  <path fill="#050505" d="M43.3 71.4c0 1.8 6.7 3.3 15.1 3.4 8.3.1 15.1-1.2 15.1-3 0-1.7-6.7-3.3-15-3.4-8.4-.1-15.1 1.3-15.2 3Z" opacity=".2"/>
  <path fill="#9F4B38" d="M63.9 51.2h1l.3-17.9h-1l-.3 17.9Zm3.2 2.5 4.1 20.1h-1.3l-4.4-20.3m-.5.1 2.8 20.1h-.9L64 53.4m-11.5.5-2.7 19.6h.9l2.9-19.8m-3.2.2-4.1 19.5 1.3.1L52 53.7"/>
  <path fill="#050505" d="m67.1 53.6 4.1 20.1h-1.3l-4.4-20.3m-.5.1 2.8 20.2-.9-.1L64 53.3m-11.5.5-2.7 19.6h.9l2.9-19.7m-3.2.1-4.1 19.6h1.3L52 53.6" opacity=".3"/>
  <path fill="#9F4B38" d="M53.7 51h1l.3-17.8h-1L53.7 51Z"/>
  <path fill="#C27A70" d="M45.1 50.3s.7 3.9 4.3 4c3.6 0 20.7.3 20.7.3s3.8-.2 3.8-3.7"/>
  <path fill="#FEFEFE" d="M72.9 38.3c-3.6-2.6-12.8-8.3-26.4-9.1V28l26.5.4-.1 9.9Z" opacity=".2"/>
  <path fill="#9F4B38" d="m48.7 67 20.6.3.1-.8-20.6-.3-.1.8Zm.1-2.9 20.6.2v-.8l-20.6-.2v.8Z"/>
  <path fill="#050505" d="m48.7 67 20.6.3.1-.8-20.6-.3-.1.8Zm.1-2.9 20.6.2v-.8l-20.6-.2v.8Z" opacity=".3"/>
  <path fill="#8A181B" d="M47.7 39.8c0 2.8 2.3 5.2 5.2 5.3l13.3.1c2.9.1 5.3-2.2 5.3-5.1l.1-7.8c.1-2.9-2.3-5.3-5.2-5.3l-13.3-.2c-2.9 0-5.2 2.3-5.3 5.2l-.1 7.8Z"/>
  <path fill="#050505" fill-rule="evenodd" d="m47.3 39.7.1-7.7c.1-3.1 2.6-5.6 5.7-5.6l13.4.2c3.1.1 5.5 2.6 5.5 5.7l-.1 7.8c0 3.1-2.6 5.6-5.7 5.5l-13.3-.1c-3.1-.1-5.6-2.6-5.6-5.8Zm5.8-12.5c-2.6 0-4.8 2.1-4.9 4.8l-.1 7.8c0 2.6 2.1 4.8 4.8 4.9l13.3.2c2.7 0 4.9-2.2 4.9-4.8l.1-7.8c.1-2.7-2.1-4.9-4.8-4.9l-13.3-.2Z" clip-rule="evenodd"/>
  <path fill="#050505" d="M51.5 49.4s.4 1-1.6 1.7l8.4.2.1-1.8-6.9-.1Z"/>
  <path fill="#050505" fill-rule="evenodd" d="M49.6 51.2c-.1-.2 0-.3.2-.4 1.2-.5 1.4-1 1.3-1.3-.067-.067-.067-.167 0-.3.133-.133.267-.2.4-.2l6.9.1c.067 0 .133.033.2.1.133.067.2.167.2.3l-.1 1.8c0 .2-.1.3-.4.3l-8.4-.1c-.1 0-.3-.1-.3-.3Zm8.4-1.3-6.1-.1c0 .133-.033.233-.1.3-.133.267-.3.5-.5.7l6.7.1v-1Z" clip-rule="evenodd"/>
  <path fill="#050505" d="M68.3 49.6s-.5 1 1.4 1.8l-8.4-.1.1-1.8 6.9.1Z"/>
  <path fill="#050505" fill-rule="evenodd" d="M61 51.3v-1.8c0-.067.033-.167.1-.3.067-.067.167-.1.3-.1l6.9.1c.133 0 .233.067.3.2a.425.425 0 0 1 0 .4c-.1.2.1.8 1.3 1.3.2 0 .3.2.2.4 0 .2-.2.3-.4.3l-8.4-.1c-.2 0-.3-.2-.3-.4Zm6.9-.9a.888.888 0 0 0-.1-.4l-6.1-.1v1l6.7.1c-.2-.2-.367-.4-.5-.6Z" clip-rule="evenodd"/>
  <path fill="#D8985E" d="m68.2 42.6 1.1-.5c.1-.7.5-1.3 1.2-1.6 1.1-.5 2.4.1 2.9 1.2.4 1.1-.1 2.4-1.2 2.9-.9.4-1.9 0-2.5-.7a1.161 1.161 0 0 1-.3.2c-.3.1-.6 0-.7-.3l-.5-1.2Z"/>
  <path fill="#050505" fill-rule="evenodd" d="M69.7 44.4h-.1c-.267.133-.5.166-.7.1-.3-.1-.5-.3-.5-.5-.1 0-.5-1.2-.6-1.3l-.1-.3 1.2-.6c.2-.7.8-1.3 1.5-1.6.6-.3 1.3-.3 1.9 0 .7.2 1.2.7 1.4 1.3.6 1.4 0 2.9-1.3 3.4-.333.133-.667.2-1 .2-.6 0-1.3-.2-1.7-.7Zm1-3.5c-.6.2-.9.7-1.1 1.3v.2l-.9.4c.2.4.4.9.4.9.067.066.133.066.2 0 .067 0 .1-.034.1-.1l.3-.3.3.3c.5.7 1.4.9 2.1.6.9-.4 1.3-1.4.9-2.3-.2-.5-.5-.8-1-1-.2-.133-.4-.2-.6-.2-.267 0-.5.066-.7.2Z" clip-rule="evenodd"/>
  <path fill="#D8985E" d="m50.8 42.3-1-.5c-.1-.7-.6-1.3-1.3-1.6-1-.5-2.3 0-2.8 1.1s-.1 2.4 1 2.9c.9.4 2 .2 2.6-.6l.2.2c.3.1.7 0 .8-.2l.5-1.3Z"/>
  <path fill="#050505" fill-rule="evenodd" d="M46.6 44.6c-1.3-.6-1.9-2.1-1.3-3.4.3-.7.8-1.1 1.5-1.4.6-.2 1.3-.2 1.9.1.7.3 1.2.9 1.4 1.7l1.3.5-.2.4-.6 1.2c-.1.3-.3.4-.5.5-.267.067-.5.067-.7 0l-.1-.1c-.5.5-1.1.7-1.7.7-.333 0-.667-.067-1-.2Zm3-1.2.1.1h.2v-.1s.3-.5.4-.9l-.9-.4v-.2c-.1-.6-.5-1.1-1-1.3-.4-.2-.9-.2-1.4-.1-.4.2-.8.5-1 1-.4.9 0 2 .9 2.4.7.3 1.6.1 2.1-.5l.3-.4.3.4Z" clip-rule="evenodd"/>
  <path fill="#2B6EB6" d="m51.3 42.8-.1 6.5 7.9.7 1.2-6.4"/>
  <path fill="#050505" d="M59.1 50.4c.2 0 .3-.1.4-.3l1.2-6.4c0-.3-.1-.5-.3-.5-.2 0-.5.1-.5.3l-1.1 6.1-7.2-.6.1-6.1c0-.3-.2-.4-.4-.4s-.4.1-.4.3l-.1 6.5c0 .2.1.4.3.4l8 .7Z"/>
  <path fill="#0A0C0F" d="M53.7 44.7h-2.1l-.1 4.5h2.1l.1-4.5Z" opacity=".3"/>
  <path fill="#2B6EB6" d="M68.6 43.1v6.5l-8 .5-1-6.5"/>
  <path fill="#050505" d="M60.6 50.4h.1l7.9-.5c.2 0 .3-.1.3-.3l.1-6.5c0-.2-.1-.4-.4-.4-.2 0-.3.2-.3.4l-.1 6.1-7.2.5-1-6.2c0-.2-.2-.3-.5-.3-.2 0-.3.2-.3.4l1 6.5c.1.2.2.3.4.3Z"/>
  <path fill="#0A0C0F" d="M66.2 44.9h2.1l-.1 4.5h-2.1l.1-4.5Z" opacity=".3"/>
  <path fill="#F5F6F7" d="M67.2 32.8c-3 1.2-1.9 3.7-1.9 3.7l2.6 6.7 6-2.5-2.8-6.7s-.7-2.4-3.9-1.2Z"/>
  <path fill="#050505" fill-rule="evenodd" d="m67.7 43.6-.2-.2-2.5-6.7c-.1-.2-.5-1.2-.1-2.3.334-.867 1.067-1.5 2.2-1.9 1.2-.534 2.2-.567 3-.1 1 .4 1.3 1.3 1.4 1.5l2.8 6.6c.1.2 0 .5-.2.5L68 43.6h-.3Zm3.1-9.4-.1-.1s-.2-.7-.9-1.1c-.6-.267-1.4-.2-2.4.2-.933.333-1.5.833-1.7 1.5-.4.8 0 1.6 0 1.6v.1l2.4 6.3 5.3-2.2-2.6-6.3Z" clip-rule="evenodd"/>
  <path fill="#DFDFDF" d="m73.4 40.6-1.3.6-3.2-8.5 1.5.2 3 7.7Z" style="mix-blend-mode:multiply"/>
  <path fill="#F5F6F7" d="M52.1 32.6c2.9 1.3 1.8 3.8 1.8 3.8L51.1 43l-5.9-2.7 2.9-6.6s.8-2.4 4-1.1Z"/>
  <path fill="#050505" fill-rule="evenodd" d="m51 43.4-6-2.8c-.2 0-.3-.3-.2-.5l3-6.6c0-.1.4-1 1.4-1.4.8-.4 1.8-.333 3 .2 1.067.467 1.767 1.1 2.1 1.9.4 1.1 0 2.2-.1 2.3l-2.7 6.7-.2.2H51Zm.9-10.4c-1-.467-1.8-.533-2.4-.2-.7.3-1 1-1 1v.1l-2.8 6.2 5.2 2.4 2.6-6.3s.4-.8.1-1.7c-.267-.6-.833-1.1-1.7-1.5Z" clip-rule="evenodd"/>
  <path fill="#DFDFDF" d="m45.6 40.2 1.3.6 3.5-8.4-1.5.2-3.3 7.6Z" style="mix-blend-mode:multiply"/>
  <path fill="#F5F6F7" d="M60.1 37.1s9.9-8.4 9.7-4.8c-.4 5.4 1.6 13.2 1.8 14.1-.6.7-2.6-.2-4.8.1-2.3.3-4.3.6-5.7.7-2.7.1-5.5-.5-8.2-1-2.2-.4-4.9-.1-4.8-.3.2-1 2.1-13.6 2.1-13.6l3.5-.3"/>
  <path fill="#050505" d="M60.3 47.6h.8c1-.1 2.3-.2 3.7-.4a20.715 20.715 0 0 1 2-.3c1-.1 1.9 0 2.7.1 1.1.1 1.9.2 2.4-.4.067-.067.1-.167.1-.3 0-.067-.033-.2-.1-.4-1.4-5.8-2-10.4-1.8-13.6.1-.7-.2-1-.5-1.2-.5-.2-1.7-.3-5.7 2.6-2.1 1.5-4.1 3.1-4.1 3.1-.2.1-.2.4 0 .6.1.1.3.1.5 0 0 0 1.9-1.6 4-3.1 3.9-2.8 4.8-2.5 5-2.5.1.1.1.3.1.4-.2 3.4.4 8 1.7 13.9.067 0 .1.033.1.1-.3.1-1 .1-1.6 0-.8-.1-1.8-.2-2.9-.1a20.9 20.9 0 0 1-2 .3c-1.4.2-2.7.4-3.6.4-2.5.1-5.1-.4-7.7-.9-.133-.067-.3-.1-.5-.1-1.3-.2-2.7-.2-3.7-.2h-.7c.4-2.1 1.8-11.1 2.1-12.9l3.1-.3c.2 0 .4-.2.4-.4-.1-.2-.2-.4-.5-.3l-3.4.2c-.2 0-.3.2-.4.3 0 .2-1.9 12.6-2.1 13.6 0 .133.033.233.1.3.2.2.4.2 1.4.2 1 0 2.4 0 3.6.3.133 0 .3.033.5.1 2.3.4 4.7.9 7 .9Z"/>
  <path fill="#F5F6F7" d="m66.6 33.5 2.3-2.1-2.1-.1-16.4-.2.5 2.1s3.8 2.9 3.9 2.9c.1 0 11.6.2 11.6.2l.2-2.8Z"/>
  <path fill="#9FC8EA" d="m60.1 37.8.5-.2 1.9-3.8 1-2.5h-3.2l-2.9-.1.4 2.5 2.3 4.1Z"/>
  <path fill="#678BAD" d="m60.3 37.5-2.6-3.7h.8l2.1 3-.3.7Z" opacity=".5"/>
  <path fill="#F5F6F7" d="m62.5 33.8 2.4 1.7-2.1.5.5.5-2.9 1.8-.1-.8 1.7-2.8.5-.9Z"/>
  <path fill="#050505" fill-rule="evenodd" d="m60.3 38.4-.1-.1v-.8c-.067-.066-.067-.1 0-.1l1.6-2.8.5-.9.1-.1c.067 0 .133.034.2.1l2.4 1.7c.067.067.1.134.1.2-.066.067-.133.1-.2.1l-1.7.4.3.3v.1c0 .067-.033.134-.1.2l-2.9 1.7c0 .067-.033.1-.1.1l-.1-.1Zm2.4-2.2c-.067-.066-.1-.133-.1-.2l.2-.2 1.6-.4-1.9-1.3-.3.7-1.7 2.7.1.4 2.4-1.4-.3-.3Z" clip-rule="evenodd"/>
  <path fill="#F5F6F7" d="M57.7 33.8 55.6 36l2.7.2-.6.8 2.6 1.2v-.6l-2.6-3.8Z"/>
  <path fill="#050505" fill-rule="evenodd" d="m60.3 38.3-2.7-1.1c-.067-.066-.1-.133-.1-.2v-.1l.4-.5-2.4-.2c-.067 0-.1-.033-.1-.1-.067-.066-.067-.133 0-.2l2.1-2.3h.2c.067 0 .1.034.1.1l2.7 3.8v.8c-.067.067-.133.1-.2.1v-.1Zm-2.6-4.2L56 35.8l2.3.2c.067 0 .1.034.1.1.067.067.067.134 0 .2l-.4.6 2.1 1v-.2l-2.4-3.6Z" clip-rule="evenodd"/>
  <path fill="#050505" d="M59.1 44.7c0 .3.2.5.5.5s.6-.2.6-.5-.3-.6-.6-.6c-.2 0-.5.3-.5.6Zm-.2-2.4c0 .3.3.6.6.6s.5-.3.5-.6-.2-.5-.5-.5-.5.2-.6.5Zm-.1-2.3c0 .3.2.5.5.5s.5-.2.5-.5c.1-.3-.2-.5-.5-.5s-.5.2-.5.5Z"/>
  <path fill="#DFDFDF" d="m48.1 45.8 1.5-12 1.6.3-1.5 11.6-1.6.1Z" style="mix-blend-mode:multiply"/>
  <path fill="#FEFEFE" d="M61 47.2s-.7-7-.6-9l.6 9Z"/>
  <path fill="#050505" d="M61 47.4c.1 0 .2-.1.2-.2s-.7-7-.6-9c0-.1-.1-.2-.2-.2s-.2.1-.2.2c0 2 .6 8.7.6 9 0 .1.1.2.2.2Z"/>
  <path fill="#ED2D2F" d="M49.4 38.4c3.1-2.2 2.6-5.8 2.6-5.8l-1.6-1.5-1 7.3Z"/>
  <path fill="#050505" fill-rule="evenodd" d="m50.1 30.4 2.3 2v.2s.1.9-.2 2.2c-.2 1.1-.9 2.7-2.6 3.9l-.7.5 1.2-8.8Zm.5 1.5-.8 5.7a5.94 5.94 0 0 0 1.6-2.9c.2-.9.2-1.6.2-1.9l-1-.9Z" clip-rule="evenodd"/>
  <path fill="#ED2D2F" d="M70.2 39.3c-2.6-2.6-2.5-5.9-2.5-5.9s.5-1.4 2.1-1.3c-.5 2.3.4 7.2.4 7.2Z"/>
  <path fill="#050505" fill-rule="evenodd" d="M69.9 39.5c-2.6-2.6-2.5-6-2.5-6.1v-.1c.2-.6 1-1.6 2.5-1.6l.2.2c.067.067.1.167.1.3-.5 2.2.3 7 .3 7 0 .2 0 .3-.2.4h-.2c-.067 0-.133-.033-.2-.1Zm-1.8-6c0 .4.1 2.6 1.5 4.6-.2-1.5-.4-4-.2-5.6-.9.1-1.2.8-1.3 1Zm-1.3 8.2.1-1.9c0-.1.1-.2.2-.2l5.2.1h.1c.067.067.1.133.1.2l-.1 1.9c0 1.7-1.1 2.8-2.8 2.8-1.7 0-2.8-1.1-2.8-2.9Zm.5-1.7-.1 1.7c0 1.8 1.2 2.5 2.4 2.5 1.1 0 2.4-.6 2.4-2.4l.1-1.8h-4.8Z" clip-rule="evenodd"/>
  <path fill="#EC272B" d="m72.3 40.8-5.3-.1 5.3.1Z"/>
  <path fill="#050505" d="m67 40.9 5.3.1v-.4H67v.3Z"/>
  <path fill="#050505" fill-rule="evenodd" d="M47 41.5v-2.1c.067-.067.133-.1.2-.1l5.2.1c.1 0 .2.1.2.2l-.1 1.9c0 1.8-1.1 2.9-2.8 2.8-1.7 0-2.7-1.1-2.7-2.8Zm.4-1.8v1.8c0 1.8 1.2 2.4 2.3 2.5 1.2 0 2.4-.7 2.5-2.5v-1.7l-4.8-.1Z" clip-rule="evenodd"/>
  <path fill="#050505" d="M47.1 40.7h5.3v-.3l-5.3-.1v.4Zm27.7-20.9s2.1-4.4 2 .1c-.2 5.8-3.3 8-3.3 8l1.3-8.1ZM45 19.4s-2-4.5-2 .1c0 5.7 3.1 8 3.1 8L45 19.4Z"/>
  <path fill="#BE8755" d="M60 6.1h.5c7.9.3 14.6 5.4 14.4 15.8-.2 6.2-3.6 13.5-15 13.1-11.5.1-14.7-7.3-14.7-13.5.1-10.4 6.9-15.3 14.8-15.4Z"/>
  <path fill="#050505" fill-rule="evenodd" d="M52.6 34.1c-1.867-.733-3.4-1.833-4.6-3.3a12.004 12.004 0 0 1-2.5-4.4c-.467-1.533-.7-3.166-.7-4.9 0-2.5.5-4.9 1.3-6.9.8-1.933 1.9-3.566 3.3-4.9 1.4-1.266 3-2.266 4.8-3 1.733-.6 3.567-.933 5.5-1h1.2v.1c1.933.067 3.733.434 5.4 1.1 1.8.734 3.367 1.767 4.7 3.1 1.4 1.4 2.467 3.067 3.2 5 .8 2 1.1 4.4 1.1 6.9-.067 1.734-.367 3.334-.9 4.8-.533 1.733-1.367 3.233-2.5 4.5-1.267 1.4-2.833 2.434-4.7 3.1-2.1.8-4.6 1.1-7.3 1h-.6c-2.533 0-4.767-.4-6.7-1.2Zm7.3.5c5.1.2 8.9-1.1 11.5-3.9 2.5-2.8 3.1-6.3 3.2-8.8.1-11-7.2-15.2-14.1-15.5H60c-6.9.1-14.3 4.1-14.5 15.1 0 2.5.6 6 3 8.9 2.5 2.8 6.3 4.3 11.4 4.2Z" clip-rule="evenodd"/>
  <path fill="#A37448" d="M53.7 17.1 73 21.6s-13.5.4-19.4-2.8c0 0-3.3 2.7-6.7 2.1-4.8-.9 5-8.9 5-8.9"/>
  <path fill="#DFDFDF" d="M47.7 20.6s-1.1 13 12.7 14.4c1.3.1-15.9 1.4-15.6-14.5.3-15.9 2.5-.6 2.5-.6" style="mix-blend-mode:multiply"/>
  <path fill="#A37448" d="M58 26.2s.7 1.3 2.2 1.3c1.4.1 2.3-1.4 2.3-1.4s-1.6.7-2.2.7c-.7 0-2.3-.6-2.3-.6Z"/>
  <path fill="#050505" d="M60.3 27c.267 0 .5-.034.7-.1l1.4-.5c.1-.1.2-.2.1-.3 0-.1-.1-.2-.3-.2l-1.3.6c-.3.1-.9.1-1.2-.1l-1.4-.5c-.1-.1-.2 0-.3.1 0 .1 0 .3.1.3l1.4.6c.267.067.533.1.8.1Zm-10.5-4.8c.1 0 .2-.1.3-.2.3-.9 1.3-1.4 2.2-1 .333.066.567.233.7.5.1.1.3.1.5 0 .1-.1.1-.3 0-.4a4.653 4.653 0 0 0-.9-.7c-1.2-.4-2.6.2-3.1 1.4 0 .1 0 .3.2.3 0 .066.033.1.1.1Zm20.4 2.3c0 .7-.4 1.3-.9 1.3s-.9-.6-.9-1.4c0-.7.4-1.3.9-1.3s.9.6.9 1.4Z"/>
  <path fill="#FEFEFE" d="M68.7 24c0 .1.1.2.2.2s.2-.1.2-.2-.1-.3-.2-.3-.2.1-.2.3Z"/>
  <path fill="#050505" d="M50.6 24.2c0 .8.3 1.4.8 1.4s.9-.6 1-1.4c0-.7-.4-1.3-.9-1.4-.5 0-.9.6-.9 1.4Z"/>
  <path fill="#FEFEFE" d="M51 23.7c0 .2.1.3.2.3s.2-.1.2-.3c0-.1-.1-.2-.2-.2s-.2.1-.2.2Z"/>
  <path fill="#050505" d="M47.9 5.9s2-1.3.2-2.9c0 0 1.6-.1 1.9.8.2-1.1 1.1-3 4.4-3.8 0 0-1.9 2-.1 2.3m18.9 5.8s4.2 3.4 4.9 9.6c0 .3-.4-1.8-2.5-4"/>
  <path fill="#050505" d="M61.6 1.5s12.4-.8 16 17.3c0 0-.1.5-1 1-1.1.7-1.9 1.3-3 1.6.3-1.3.4-3.8-3.2-7.3 0 0 3.4 4.3 2.3 7.5-11.9 2.8-18.6-4.1-18.6-4.1.4 0-2.2 2.9-6.7 3.2-.7-3.7 1.5-7 1.5-7-2 2.8-2.5 5.9-2.2 6.9-.8.2-2.9.2-4.1-.3 0 0-1.1-19.7 19-18.8Z"/>
  <path fill="#050505" d="M53.8 3.2s-9.3.3-11.1 11.1c0 0 2.6-5.4 11.1-11.1Zm7.8-1.7S72.3.6 78 13.5c0 0-8-7.1-16.4-12Zm1.7 31.2c-1.1.6-2.5 1.1-5.4.4-3.4-.9-3.6-3.6-2.6-4.3.8-.5 3 .8 5.4.1 1.5-.4 3.6-1.8 4.8-.3 1.4 1.7-1.1 3.7-2.2 4.1Z"/>
  <path fill="#050505" fill-rule="evenodd" d="M57.8 33.2c-1.7-.4-2.9-1.4-3.2-2.8-.1-.7.1-1.5.6-1.8.4-.3 1-.1 1.8 0 1.1.2 2.3.5 3.6.1.333-.067.7-.2 1.1-.4 1.4-.5 2.9-1.1 4 .2.4.466.533 1 .4 1.6-.3 1.3-1.9 2.5-2.7 2.8-.7.3-1.6.7-3.1.7-.6 0-1.5-.1-2.5-.4Zm5.5-.6c.7-.3 2.2-1.4 2.4-2.6.133-.467.033-.9-.3-1.3-.9-1-2.2-.5-3.6 0l-1 .4c-1.4.4-2.8.1-3.8-.1-.7-.1-1.3-.3-1.5-.1-.4.3-.6.8-.5 1.5.2 1.1 1.3 2.1 2.9 2.5 3 .7 4.3.1 5.4-.3Z" clip-rule="evenodd"/>
  <path fill="#EA2A2F" d="M63.4 32.5s-2.7 1.7-6.7 0c0 0 1-1 3.1-.9 2.4.1 3.6.9 3.6.9Z"/>
  <path fill="#050505" fill-rule="evenodd" d="m56.6 32.8-.3-.2.2-.2c.1-.1 1.2-1.1 3.3-1 2.4.1 3.7.9 3.7.9l.3.2-.3.2s-.7.5-1.9.7c-.4.067-.9.1-1.5.1-1 0-2.1-.2-3.5-.7Zm3.2-.9c-1.3-.1-2.2.3-2.6.6 1.8.7 3.3.6 4.3.4.6-.1 1.1-.2 1.4-.4-.6-.2-1.6-.6-3.1-.6ZM10.835 57.437c1.2.066 2.067.466 2.6 1.2.467.666.667 1.5.6 2.5-.066 1-.433 1.7-1.1 2.1.867.733 1.234 1.6 1.1 2.6-.2 2.466-1.633 3.566-4.3 3.3-2.733-.267-3.966-1.634-3.7-4.1.067-1 .6-1.767 1.6-2.3-.6-.534-.833-1.3-.7-2.3.067-.934.434-1.7 1.1-2.3.6-.6 1.534-.834 2.8-.7Zm-.9 8.9c.534 0 .834-.3.9-.9.067-.667-.166-1.034-.7-1.1-.533-.067-.833.233-.9.9-.066.666.167 1.033.7 1.1Zm.4-4.4c.4 0 .634-.267.7-.8 0-.467-.166-.734-.5-.8-.4 0-.633.233-.7.7 0 .533.167.833.5.9Z" clip-rule="evenodd"/>
  <path fill="#FEFEFE" fill-rule="evenodd" d="M12.035 56.036c1.267.134 2.134.534 2.6 1.2.534.734.767 1.567.7 2.5-.133 1-.5 1.7-1.1 2.1.8.734 1.167 1.6 1.1 2.6-.2 2.467-1.666 3.6-4.4 3.4-2.666-.266-3.866-1.666-3.6-4.2.067-.933.6-1.7 1.6-2.3-.6-.533-.833-1.3-.7-2.3.067-.933.4-1.7 1-2.3.667-.6 1.6-.833 2.8-.7Zm-.8 8.9c.534.067.834-.233.9-.9.067-.666-.166-1.033-.7-1.1-.533 0-.833.3-.9.9-.066.667.167 1.034.7 1.1Zm.4-4.4c.4.067.634-.166.7-.7 0-.533-.166-.833-.5-.9-.4 0-.633.267-.7.8-.066.534.1.8.5.8Z" clip-rule="evenodd"/>
</svg>
