<svg width="55" height="55" viewBox="0 0 55 55" fill="none" xmlns="http://www.w3.org/2000/svg">
<path opacity="0.2" d="M15.8999 52.1C15.8999 53.1 22.4999 54.2 30.5999 54.5C38.7999 54.9 45.3999 54.3 45.4999 53.3C45.4999 52.2 38.8999 51.1 30.7999 50.8C22.5999 50.5 15.9999 51 15.8999 52.1Z" fill="#1C1C1A"/>
<path d="M30.3 45.1999L31.3 51.6L39.3 51.4L39.5999 45.1999C39.5999 44.0999 39.6999 41.1 34.6999 41.4C30.1999 41.6 30.3 44.1999 30.3 45.1999Z" fill="#B76B29" stroke="#050505" stroke-width="0.4" stroke-linecap="round" stroke-linejoin="round"/>
<path opacity="0.3" d="M39.2999 44.2999C39.6999 46.1999 39.0999 51.4 39.0999 51.4H37.1998L37.2999 41.5C37.4999 41.7 38.8999 41.6999 39.2999 44.2999Z" fill="#0B0C0E"/>
<path d="M38.6998 51.3C38.6998 51.3 36.3998 52.6 38.1998 53.1L31.6998 52.8L31.7999 51.7C31.9999 51.7 32.4999 51.7 35.4999 51.7C38.7999 51.6 38.8998 51.2 38.6998 51.3Z" fill="#BC7C54" stroke="#050505" stroke-width="0.4" stroke-linecap="round" stroke-linejoin="round"/>
<path d="M34.9999 53C34.9999 53 39.4999 53.2 39.9999 53.2C40.4999 53.2 40.9999 53.1 40.8999 52.6C40.7999 52.2 40.3999 51.3 38.3999 51.1C37.8999 51 36.6999 51 35.9999 52" fill="#BC7C54"/>
<path d="M34.9999 53C34.9999 53 39.4999 53.2 39.9999 53.2C40.4999 53.2 40.9999 53.1 40.8999 52.6C40.7999 52.2 40.3999 51.3 38.3999 51.1C37.8999 51 36.6999 51 35.9999 52" stroke="#050505" stroke-width="0.4" stroke-linecap="round" stroke-linejoin="round"/>
<path d="M30.7999 45.3L29.1998 51.5L21.2999 50.6L21.4999 44.4001C21.5999 43.3001 21.7999 40.3 26.7999 41C31.0999 41.6 30.8999 44.2 30.7999 45.3Z" fill="#B76B29" stroke="#050505" stroke-width="0.4" stroke-linecap="round" stroke-linejoin="round"/>
<path opacity="0.3" d="M21.8999 43.5C21.3999 45.4 21.4999 50.6 21.4999 50.6L23.3999 50.7999L24.1998 40.9C23.8998 41.1 22.4999 41 21.8999 43.5Z" fill="#0B0C0E"/>
<path d="M21.7999 50.6C21.7999 50.6 24.0998 52.0001 22.1998 52.4001L28.6998 52.7V51.6C28.5998 51.5 27.9999 51.5 24.9999 51.2C21.6999 50.9 21.6999 50.4 21.7999 50.6Z" fill="#BC7C54" stroke="#050505" stroke-width="0.4" stroke-linecap="round" stroke-linejoin="round"/>
<path d="M25.4999 52.6C25.4999 52.6 20.9999 52.3999 20.4999 52.2999C19.9999 52.2999 19.4998 52.1 19.6998 51.6C19.7998 51.3 20.1998 50.3999 22.1998 50.2999C22.6998 50.2999 23.9998 50.5 24.5998 51.5" fill="#BC7C54"/>
<path d="M25.4999 52.6C25.4999 52.6 20.9999 52.3999 20.4999 52.2999C19.9999 52.2999 19.4998 52.1 19.6998 51.6C19.7998 51.3 20.1998 50.3999 22.1998 50.2999C22.6998 50.2999 23.9998 50.5 24.5998 51.5" stroke="#050505" stroke-width="0.4" stroke-linecap="round" stroke-linejoin="round"/>
<path d="M48.5999 36.1C49.3999 35.8 50.9999 35 52.2999 35.4C53.5999 35.7 54.4999 36.9 54.4999 38.4C54.4999 40.1 53.1999 42.9 52.2999 42.6C51.8999 42.5 51.3999 42.6 50.8999 42.6C50.2999 42.7 49.3998 42.9 49.1998 42.9C48.2998 43.1 46.4999 42.7999 46.4999 40.6999C46.3999 38.0999 48.5999 36.1 48.5999 36.1Z" fill="#BC7C54" stroke="#050505" stroke-width="0.4" stroke-linecap="round"/>
<path d="M49.4999 36.2999L50.3999 35.2C50.7999 34.8 51.3998 34.7 51.6998 35C51.9998 35.4 51.9999 35.9 51.8999 36.1C51.6999 36.6 51.4999 36.9 51.4999 36.9" fill="#BC7C54"/>
<path d="M49.4999 36.2999L50.3999 35.2C50.7999 34.8 51.3998 34.7 51.6998 35C51.9998 35.4 51.9999 35.9 51.8999 36.1C51.6999 36.6 51.4999 36.9 51.4999 36.9" stroke="#050505" stroke-width="0.4" stroke-linecap="round"/>
<g style="mix-blend-mode:multiply" opacity="0.2">
<path d="M51.4999 37.2C51.4999 37.2 51.9999 37.1 52.5999 37.7C53.0999 38.2 53.0999 40 53.0999 40.5C52.9999 41 52.6 42.3 52.3 42.2C52.1 42.1 50.7999 42.4 50.4999 42.3C50.1999 42.3 50.6999 39.6 50.6999 38.6C50.6999 37.6 51.4999 37.2 51.4999 37.2Z" fill="#050505"/>
</g>
<g style="mix-blend-mode:multiply" opacity="0.2">
<path d="M50.0999 35.2C50.0999 35.2 48.6999 37.9 49.1999 40.2C49.6999 42.5 50.1999 42.9 50.1999 42.9C50.1999 42.9 48.3 44 47.3 42.6C46.3 41.2 46.1 38 47.4 37.1C48.6 36.2 50.0999 35.2 50.0999 35.2Z" fill="#050505"/>
</g>
<path d="M50.4999 43.2C48.7999 43.4 50.3999 43.2 48.4999 43.5C45.1999 44 42.7999 43.4 42.7999 43.4C40.6999 43 39.3999 41.3 39.6999 39.4V38.7999C39.9999 37.0999 41.3999 35.6 43.8999 35.9C43.8999 35.9 45.1999 36.3 47.4999 36C48.9999 35.7 49.2999 35.7 49.2999 35.7L50.4999 43.2Z" fill="#F3F4F5" stroke="#050505" stroke-width="0.4" stroke-linecap="round" stroke-linejoin="round"/>
<path opacity="0.3" d="M50.4999 43.2C48.7999 43.4 50.3999 43.2 48.4999 43.5C45.1999 44 42.7999 43.4 42.7999 43.4C40.6999 43 39.3999 41.3 39.6999 39.4V38.7999C39.7665 38.5999 39.8333 38.4 39.8999 38.2C40.0999 38.5 40.1999 38.7 40.1999 38.7C40.1999 38.7 41.0999 41.2 44.9999 41.2C47.5999 41.3 48.0999 41.1 50.0999 40.7L50.4999 43.2Z" fill="#0B0C0E"/>
<path d="M31.9999 33.9C37.0999 34.6 38.7999 35.3 39.9999 35.7C41.5999 36.3 43.2999 38 43.0999 39.6C42.8999 41.2 42.9999 40.5999 43.3999 44.2999C43.7999 47.7999 44.2999 47.6999 44.0999 48.2999C43.2999 50.0999 36.2999 50.4 33.9999 50.4C27.7999 50.4 24.9999 48.9999 20.5999 48.7999C17.2999 48.5999 16.6999 48.2999 16.3999 47.7999C15.4999 46.4999 20.9999 35 20.9999 35C20.9999 35 21.3999 34.5 22.6999 34.1C24.7999 33.4 29.8999 33.6 31.9999 33.9Z" fill="#F3F4F5" stroke="#050505" stroke-width="0.4" stroke-linecap="round" stroke-linejoin="round"/>
<path d="M26.9999 44C26.6999 46.2 25.1 47.2 23.3 47.1C21.5 47.1 20.1999 45.9 20.4999 43.7L20.9 41.2L27.4 41.5L26.9999 44Z" stroke="#050505" stroke-width="0.4" stroke-linecap="round" stroke-linejoin="round"/>
<path d="M27.2999 42.7L20.6998 42.5L27.2999 42.7Z" fill="#E52B2D"/>
<path d="M27.2999 42.7L20.6998 42.5" stroke="#050505" stroke-width="0.4"/>
<path d="M33.0999 45.2999C33.0999 45.6999 33.2998 46 33.6998 46C33.9998 46 34.3999 45.6999 34.3999 45.2999C34.4999 44.9999 34.1999 44.6999 33.8999 44.6999C33.4999 44.5999 33.1999 44.8999 33.0999 45.2999Z" fill="#09090A"/>
<path d="M33.1998 48.2C33.1998 48.6 33.3999 48.9 33.7999 48.9C34.1999 48.9 34.4999 48.6999 34.5999 48.2999C34.5999 47.8999 34.3999 47.6 33.9999 47.6C33.5999 47.6 33.2998 47.9 33.1998 48.2Z" fill="#09090A"/>
<path d="M34.9999 42.4C34.9999 42.4 34.7998 44.1 35.1998 47.6C35.5998 51.1 35.3999 50.6 35.3999 50.6" fill="#FEFEFE"/>
<path d="M34.9999 42.4C34.9999 42.4 34.7998 44.1 35.1998 47.6C35.5998 51.1 35.3999 50.6 35.3999 50.6" stroke="#050505" stroke-width="0.4" stroke-linecap="round" stroke-linejoin="round"/>
<path d="M34.6998 43.1999L35.2999 43.0999L36.7999 38.0999C36.7999 38.0999 37.4999 34.7999 32.2999 34.2999C27.5999 33.7999 29.7998 37.8999 31.6998 39.6999C32.8998 40.8999 34.6998 43.1999 34.6998 43.1999Z" fill="#F29137" stroke="#050505" stroke-width="0.4" stroke-linecap="round" stroke-linejoin="round"/>
<mask id="mask0_239_69904" style="mask-type:luminance" maskUnits="userSpaceOnUse" x="37" y="39" width="8" height="10">
<path d="M42.9299 39.28L44.1599 48.0699L39.0199 48.47L37.8298 40.6799L42.9299 39.28Z" fill="white"/>
</mask>
<g mask="url(#mask0_239_69904)">
<path d="M47.9999 43.2999C48.0999 45.4999 46.6999 46.9 44.8999 47.2C43.0999 47.5 41.5999 46.6 41.3999 44.4L41.2999 42L47.7999 40.9L47.9999 43.2999Z" stroke="#050505" stroke-width="0.4" stroke-linecap="round" stroke-linejoin="round"/>
<path d="M47.9999 42.1L41.2999 43.2L47.9999 42.1Z" fill="#E52B2D"/>
<path d="M47.9999 42.1L41.2999 43.2" stroke="#050505" stroke-width="0.4"/>
</g>
<g style="mix-blend-mode:multiply">
<path d="M20.2999 41.9C20.2999 41.9 19.6999 43.9 19.4999 45.4C19.1999 46.9 18.9999 48.6 18.9999 48.6C18.9999 48.6 16.6998 48.8999 16.6998 47.2999C16.5998 45.7999 17.9999 40.7999 17.9999 40.7999C17.9999 40.7999 19.4999 42 20.2999 41.9Z" fill="#DCDEDD"/>
</g>
<g style="mix-blend-mode:multiply">
<path d="M34.6999 45.4C34.6999 46.2 34.3999 45.3 34.0999 44.9C33.8999 44.5 33.8999 44 33.8999 44C33.8999 44 30.7999 42.6 29.6999 42.2L30.1999 41.6C30.1999 41.6 27.9999 41 27.5999 40.9C27.1999 40.7 28.6999 35.2 29.0999 34.1C29.0999 34.1 29.2999 36.7999 30.3999 38.2999C31.4999 39.6999 33.9 41.8 34.3 42.5C34.7 43.3 34.7999 44.2 34.6999 45.4Z" fill="#DCDEDD"/>
</g>
<path d="M28.8999 34.5C28.7999 36.4 28.6998 40.6 28.6998 40.6L32.5999 41.2L31.7999 42.2L34.8999 43.7999L34.9999 43.1C34.9999 43.1 33.2999 40.3999 32.5999 39.7999C31.8999 39.1999 29.5999 36.6 29.7999 34.2" fill="#F3F4F5"/>
<path d="M28.8999 34.5C28.7999 36.4 28.6998 40.6 28.6998 40.6L32.5999 41.2L31.7999 42.2L34.8999 43.7999L34.9999 43.1C34.9999 43.1 33.2999 40.3999 32.5999 39.7999C31.8999 39.1999 29.5999 36.6 29.7999 34.2" stroke="#050505" stroke-width="0.4" stroke-linecap="round" stroke-linejoin="round"/>
<g style="mix-blend-mode:multiply">
<path d="M37.0998 35.7C37.0998 35.7 39.6998 38.8 40.1998 41.6L38.2999 41.7C38.2999 41.7 39.0998 42.0999 39.0998 42.2999C38.9998 42.4999 36.5998 43.7 36.1998 43.9C35.7998 44.2 35.9998 45.4 35.6998 45.4C35.2998 45.3 35.7998 43.9 35.4998 43.9C35.0998 43.9 35.9998 42.4 35.9998 42.4C35.9998 42.4 37.8998 39.7 37.3998 38.4C36.8998 37 37.0998 35.7 37.0998 35.7Z" fill="#DCDEDD"/>
</g>
<path d="M36.8999 35.1C38.2999 37 39.3999 41 39.3999 41L37.1998 41.1L37.6998 41.7L34.9999 43.9V42.9C34.9999 42.9 36.1999 40.7 36.4999 40C36.6999 39.2 36.7999 36.7 36.0999 35.2" fill="#F3F4F5"/>
<path d="M36.8999 35.1C38.2999 37 39.3999 41 39.3999 41L37.1998 41.1L37.6998 41.7L34.9999 43.9V42.9C34.9999 42.9 36.1999 40.7 36.4999 40C36.6999 39.2 36.7999 36.7 36.0999 35.2" stroke="#050505" stroke-width="0.4" stroke-linecap="round" stroke-linejoin="round"/>
<g style="mix-blend-mode:multiply">
<path d="M35.0999 43.2999C35.0999 43.2999 35.3999 45.3 35.5999 46.5C35.8999 47.8 35.9999 50.7999 35.9999 50.7999L35.4999 50.4C35.4999 50.4 35.2999 49.8 35.0999 47.6C34.9999 45.5 35.0999 43.2999 35.0999 43.2999Z" fill="#DCDEDD"/>
</g>
<g style="mix-blend-mode:multiply">
<path d="M43.5999 47.2999C43.5999 47.2999 41.1 47.2 40.8 44.6C40.5 41.9 40.9999 42 40.9999 42C40.9999 42 41.1 42.4 41.3 43.6C41.4 44.8 41.2999 45.8999 43.5999 47.2999Z" fill="#DCDEDD"/>
</g>
<g style="mix-blend-mode:multiply">
<path d="M27.5999 41.6L27.2999 42.7H22.0999C22.0999 42.7 25.8999 43.1 26.2999 43.2C26.5999 43.3 26.3999 44.8999 25.9999 45.7999C25.9999 45.7999 24.5999 47.4999 23.0999 47.2999C21.5999 47.1999 20.1998 45.9 20.1998 45.9C20.1998 45.9 20.7999 47.6 22.9999 47.9C25.2999 48.3 27.2999 46.8 27.7999 44.5C27.7999 44.5 27.4998 44.9999 27.1998 45.2999C26.8998 45.5999 27.9999 41.9 27.5999 41.6Z" fill="#DCDEDD"/>
</g>
<path d="M16.3999 43.5001C15.9999 44.1001 15.0999 45.5001 15.4999 46.9001C15.7999 48.2001 16.8999 49.1 18.3999 49.3C20.0999 49.6 21.6999 49.2001 22.2999 48.5001C22.7999 47.7001 22.3999 47.1 22.3999 46.6C22.3999 46 22.5998 45.2001 22.6998 45.0001C22.7998 44.2001 21.5998 42.2001 19.5998 41.9001C16.9998 41.4001 16.3999 43.5001 16.3999 43.5001Z" fill="#BC7C54" stroke="#050505" stroke-width="0.4" stroke-linecap="round" stroke-linejoin="round"/>
<path d="M21.2999 44.7999L23.4999 45.4C23.9999 45.6 24.2999 46.1 24.0999 46.5C23.8999 47 23.3998 47.1 23.1998 47.1C22.5998 47.1 21.9999 47 21.9999 47" fill="#BC7C54"/>
<path d="M21.2999 44.7999L23.4999 45.4C23.9999 45.6 24.2999 46.1 24.0999 46.5C23.8999 47 23.3998 47.1 23.1998 47.1C22.5998 47.1 21.9999 47 21.9999 47" stroke="#050505" stroke-width="0.4" stroke-linecap="round" stroke-linejoin="round"/>
<g style="mix-blend-mode:multiply" opacity="0.2">
<path d="M15.3999 44.7C15.3999 44.7 17.6999 43.8 19.9999 44.6C22.2999 45.5 22.6998 46 22.6998 46C22.6998 46 23.6999 44.3 22.2999 43.1C20.8999 41.9 18.2999 41.5 17.3999 42.5C16.4999 43.5 15.3999 44.7 15.3999 44.7Z" fill="#050505"/>
</g>
<path d="M15.8999 43.9C16.1999 42.2 15.8999 43.8 16.2999 41.9C16.8999 38.6 18.2999 36.6 18.2999 36.6C19.3999 34.8 21.4999 34.1 23.0999 35L23.6998 35.2999C25.1998 36.0999 26.0999 37.9 24.8999 40.2C24.8999 40.2 24.0999 41.2 23.5999 43.5C23.2999 45.1 23.1998 45.4 23.1998 45.4L15.8999 43.9Z" fill="#F3F4F5" stroke="#050505" stroke-width="0.4" stroke-linecap="round" stroke-linejoin="round"/>
<path opacity="0.3" d="M15.8999 43.9C16.1999 42.2 15.8999 43.8 16.2999 41.9C16.8999 38.6 18.2999 36.6 18.2999 36.6C19.3999 34.8 21.4999 34.1 23.0999 35L23.6998 35.2999C23.8332 35.3666 23.9998 35.4667 24.1998 35.6C23.7998 35.7 23.5999 35.7999 23.5999 35.7999C23.5999 35.7999 20.9999 35.7 19.5999 39.4C18.5999 41.8 18.5999 42.4 18.2999 44.4L15.8999 43.9Z" fill="#0B0C0E"/>
<path d="M40.0998 20.1C40.0998 20.1 44.2998 24.1 49.0998 27C54.3998 30.2 55.2998 32.2 53.9998 32.6C51.6998 33.2 48.2999 32.7 48.2999 32.7C48.2999 32.7 49.6999 35.7 50.3999 36.5C51.0999 37.4 49.5999 37.6 47.7999 37.1C46.0999 36.7 45.1998 36.4 45.1998 36.4C45.1998 36.4 46.1998 39.7 45.4998 40.1C44.8998 40.6 41.8999 41.2 38.2999 40.4C34.5999 39.6 40.0998 20.1 40.0998 20.1Z" fill="#2B2011" stroke="#050505" stroke-width="0.4" stroke-linecap="round" stroke-linejoin="round"/>
<path d="M11.4998 17.7999C11.4998 17.7999 3.89978 21 2.69978 26.6C2.39978 28.1 5.79987 27.2999 5.79987 27.2999C5.79987 27.2999 4.29985 32.3 5.39985 36.4C5.79985 37.5 8.49983 36.4 8.49983 36.4C8.49983 36.4 9.29982 39 11.9998 40.7C14.5998 42.5 18.9998 39.6 18.9998 39.6L21.8998 15.2L11.4998 17.7999Z" fill="#2B2011" stroke="#050505" stroke-width="0.4" stroke-linecap="round" stroke-linejoin="round"/>
<path d="M11.1998 23.8C10.6998 33.8 13.9999 42.1 28.2999 43.7C37.4999 44.7 44.7998 36.5001 45.1998 26.9001C45.5998 17.2001 37.3998 8.90003 28.0998 8.50003C18.8998 8.10003 11.5998 14.1 11.1998 23.8Z" fill="#A27448"/>
<path d="M13.3998 25.6C12.9998 34.8 15.3998 42.3 28.8998 43C37.5998 43.3 45.0998 36.1 45.4998 26.9C45.8998 17.6 39.6998 15.5999 30.9998 15.1999C22.1998 14.8999 13.7998 16.3 13.3998 25.6Z" fill="#C68C56"/>
<path d="M10.6998 22.3C10.2998 32.1 10.9998 42.3001 28.1998 43.5001C51.8998 45.0001 44.9999 36 45.4999 26.3C45.8999 16.6 36.8998 8.90006 27.6998 8.50006C18.3998 8.10006 11.1998 12.6 10.6998 22.3Z" fill="#BC7C54" stroke="#050505" stroke-width="0.4"/>
<g style="mix-blend-mode:multiply">
<path d="M30.4999 19C31.0999 20.1 25.9999 21.9 25.9999 21.9C25.9999 21.9 22.7999 26.9999 22.8999 30.2999C22.8999 30.2999 19.9999 30.8 19.9999 34C20.0999 36.8 19.8999 41.6999 26.0999 43.2999C10.8999 41.3999 10.2999 31.6999 10.6999 22.2999C10.7665 20.6333 11.0332 19.1333 11.4999 17.7999C24.2999 17.9999 29.9999 18 30.4999 19Z" fill="#DCDEDD"/>
</g>
<path d="M9.89985 21.7C15.9998 20.9 24.2999 22.9001 24.2999 22.9001C24.2999 22.9001 21.3998 27.5 20.5998 30.7C20.5998 30.7 19.4998 30.2 18.8998 29.3C18.2998 28.5 17.5998 32.4 17.4998 35C17.3998 37.5 15.7999 35.9001 15.7999 35.9001C15.7999 35.9001 13.9999 36.5 13.7999 38.6C13.7999 38.6 13.5999 39.6 10.7999 37.1C7.99987 34.5 8.29987 32.4001 8.29987 32.4001" fill="#2B2011"/>
<path d="M9.89985 21.7C15.9998 20.9 24.2999 22.9001 24.2999 22.9001C24.2999 22.9001 21.3998 27.5 20.5998 30.7C20.5998 30.7 19.4998 30.2 18.8998 29.3C18.2998 28.5 17.5998 32.4 17.4998 35C17.3998 37.5 15.7999 35.9001 15.7999 35.9001C15.7999 35.9001 13.9999 36.5 13.7999 38.6C13.7999 38.6 13.5999 39.6 10.7999 37.1C7.99987 34.5 8.29987 32.4001 8.29987 32.4001" stroke="#050505" stroke-width="0.4" stroke-linecap="round" stroke-linejoin="round"/>
<g style="mix-blend-mode:multiply">
<path d="M21.0999 23.6C21.0999 23.6 19.2999 25.7999 18.9999 26.6999C18.5999 27.6999 17.3999 24.2 16.8999 25C16.3999 25.7 13.9998 30.4999 13.1998 32.6999C12.2998 34.7999 10.3999 32.3999 9.8999 30.6999C9.3999 28.8999 10.6999 26.6 9.8999 27C9.0999 27.4 7.29993 28.5 7.29993 28.5C7.29993 28.5 9.29993 24.2999 11.7999 22.2999C14.3999 20.1999 21.0999 23.6 21.0999 23.6Z" fill="#DCDEDD"/>
</g>
<path d="M45.9999 24.2999C45.9999 24.2999 46.7999 18.3 45.8999 17.6C45.8999 17.6 38.1998 17.7 33.1998 17.6C23.9998 17.3 13.8999 16.7999 11.4999 16.1999C10.8999 15.9999 10.6999 17 10.5999 19.6C10.5999 22.2 10.8999 23.4 10.8999 23.4C10.8999 23.4 24.0999 24.5999 34.4999 24.6999C40.3999 24.7999 45.9999 24.2999 45.9999 24.2999Z" fill="#FCC917" stroke="#050505" stroke-width="0.4" stroke-linecap="round" stroke-linejoin="round"/>
<path d="M44.4 18.4C44.4 18.2 44.5999 18.2 44.6999 18.4L45.9 20.1C46 20.3 45.9999 20.4999 45.9999 20.6999L45.9 21.7999C45.9 21.8999 45.7999 22.1999 45.6999 22.2999L44.5999 23.6999C44.4999 23.7999 44.2999 23.8 44.1999 23.6L42.8 21.4C42.7 21.2 42.7 21 42.8 20.9L44.4 18.4Z" fill="#A51E22"/>
<path d="M32.8 18.4001C32.9 18.3001 33.0999 18.3001 33.1999 18.4001L34.9999 21C35.0999 21.1 35.0999 21.3 34.9999 21.5L33.1999 23.9001C33.0999 24.0001 32.9 24 32.8 23.8L30.9999 21.4001C30.8999 21.2001 30.8999 21.0001 30.9999 20.9001L32.8 18.4001Z" fill="#A51E22"/>
<path opacity="0.3" d="M10.8999 23.4C10.8999 23.4 10.5999 22.2 10.5999 19.6C10.6999 17 10.8999 15.9999 11.4999 16.1999C12.3999 16.3999 14.3999 16.5999 17.0999 16.7999C16.9999 20.7999 18.2999 22.5 22.2999 22.9C26.2999 23.4 40.4998 23.3999 43.6998 23.1999C45.0998 23.1999 45.8999 22.6 46.2999 21.9C46.1999 23.2 45.9999 24.2999 45.9999 24.2999C45.9999 24.2999 40.3999 24.7999 34.4999 24.6999C24.0999 24.5999 10.8999 23.4 10.8999 23.4Z" fill="#0B0C0E"/>
<path d="M43.6998 23.7L40.1998 18.4L37.4999 23.9L33.8999 18" stroke="#2D1114" stroke-width="0.4" stroke-linecap="round" stroke-linejoin="bevel" stroke-dasharray="0.4 0.4"/>
<path d="M31.7999 23.9L28.0999 18.2L25.4999 23.7L22.0999 17.9L18.4999 23.1L15.2999 17.4L11.4999 22.4" stroke="#2D1114" stroke-width="0.4" stroke-linecap="round" stroke-linejoin="bevel" stroke-dasharray="0.4 0.4"/>
<path d="M39.1998 18.1C39.2998 18.1 39.3999 18.1999 39.3999 18.2999L37.6998 21.9C37.5998 22.1 37.4999 22.1 37.3999 22L34.9999 18.2999C34.8999 18.1999 34.8999 18 35.0999 18L39.1998 18.1Z" fill="#FFE4AE"/>
<path d="M24.3 23.6C24.4 23.6 24.4999 23.5 24.3999 23.4L22.3 20.1C22.2 19.9 22.0999 19.9 21.9999 20.1L20.0999 23.1C19.9999 23.2 20.0999 23.2999 20.1999 23.2999L24.3 23.6Z" fill="#FFE4AE"/>
<path d="M8.89985 25C10.2998 23.2 16.0998 17.6 16.0998 17.6C16.0998 17.6 14.4998 21.6 15.1998 21.2C15.8998 20.9 28.0998 16.8 26.5998 18.4C25.0998 19.9 24.9998 22.7 24.9998 22.7C27.6998 20.5 31.4999 19 33.7999 18.2C34.8999 17.8 38.2999 20.1 38.2999 20.1C39.6999 20 38.4998 17.7 39.6998 17.6C48.2998 17.5 53.1998 20 52.6998 19.2C51.2998 11.1 41.6998 7.40002 41.6998 7.40002L43.8998 2.29993C36.5998 1.79993 26.3998 5.19995 26.3998 5.19995C26.3998 5.19995 28.0999 0 26.7999 0C26.3999 0 22.6999 0.799951 18.7999 5.19995C16.9999 -4.86374e-05 12.8998 5.69998 9.39985 12.6C3.09985 14.2 -0.200154 18.1 0.399846 19.9C0.799846 21 6.69977 22.6 6.69977 22.6" fill="#2B2011"/>
<path d="M8.89985 25C10.2998 23.2 16.0998 17.6 16.0998 17.6C16.0998 17.6 14.4998 21.6 15.1998 21.2C15.8998 20.9 28.0998 16.8 26.5998 18.4C25.0998 19.9 24.9998 22.7 24.9998 22.7C27.6998 20.5 31.4999 19 33.7999 18.2C34.8999 17.8 38.2999 20.1 38.2999 20.1C39.6999 20 38.4998 17.7 39.6998 17.6C48.2998 17.5 53.1998 20 52.6998 19.2C51.2998 11.1 41.6998 7.40002 41.6998 7.40002L43.8998 2.29993C36.5998 1.79993 26.3998 5.19995 26.3998 5.19995C26.3998 5.19995 28.0999 0 26.7999 0C26.3999 0 22.6999 0.799951 18.7999 5.19995C16.9999 -4.86374e-05 12.8998 5.69998 9.39985 12.6C3.09985 14.2 -0.200154 18.1 0.399846 19.9C0.799846 21 6.69977 22.6 6.69977 22.6" stroke="#050505" stroke-width="0.4" stroke-linecap="round" stroke-linejoin="round"/>
<path d="M38.8999 35.0999C39.2999 34.0999 37.8999 34.2999 37.8999 34.2999L35.2999 34.6999C35.2999 34.6999 34.1999 34.7 34.0999 34.4" stroke="#050505" stroke-width="0.4" stroke-linecap="round" stroke-linejoin="bevel"/>
<g style="mix-blend-mode:multiply">
<path d="M37.8999 36.2C37.8999 36.2 38.3999 35.7 37.3999 35.8C36.3999 35.9 34.0999 36.5 34.0999 36.5C34.0999 36.5 36.5999 36.5 37.8999 36.2Z" fill="#DCDEDD"/>
</g>
<path d="M41.6998 31.5C40.4998 31.3 39.5999 30.4999 39.7999 29.6999C39.8999 28.7999 41.0999 28.3 42.2999 28.5C43.4999 28.7 44.2998 29.4999 44.1998 30.2999C43.9998 31.1999 42.8998 31.7 41.6998 31.5Z" fill="white"/>
<mask id="mask1_239_69904" style="mask-type:luminance" maskUnits="userSpaceOnUse" x="39" y="28" width="6" height="4">
<path d="M41.67 31.52C40.46 31.34 39.61 30.5199 39.77 29.6899C39.93 28.8499 41.05 28.3099 42.27 28.4899C43.48 28.6599 44.33 29.4799 44.17 30.3099C44 31.1499 42.89 31.69 41.67 31.52Z" fill="white"/>
</mask>
<g mask="url(#mask1_239_69904)">
<path d="M40.4999 29.7C40.4999 30.7 41.0999 31.4 41.8999 31.5C42.6999 31.5 43.2999 30.8 43.3999 29.9C43.3999 28.9 42.7999 28.2 41.9999 28.1C41.2999 28.1 40.5999 28.8 40.4999 29.7Z" fill="#09090A"/>
<path d="M40.9999 29.2999C40.9999 29.4999 41.0999 29.7 41.2999 29.7C41.3999 29.7 41.4999 29.5999 41.5999 29.2999C41.5999 29.0999 41.4999 28.9 41.2999 28.9C41.1999 28.9 41.0999 29.0999 40.9999 29.2999Z" fill="white"/>
</g>
<path d="M27.0999 31.6C28.3999 31.5 29.4 30.6999 29.3 29.7999C29.1 28.8999 27.9999 28.3 26.6999 28.4C25.3999 28.5 24.3999 29.3 24.5999 30.2C24.6999 31.1 25.8999 31.8 27.0999 31.6Z" fill="white"/>
<mask id="mask2_239_69904" style="mask-type:luminance" maskUnits="userSpaceOnUse" x="24" y="28" width="6" height="4">
<path d="M27.1499 31.65C28.4399 31.53 29.3899 30.71 29.2599 29.81C29.1299 28.92 27.98 28.29 26.68 28.4C25.38 28.52 24.4399 29.34 24.5699 30.24C24.6899 31.13 25.8499 31.76 27.1499 31.65Z" fill="white"/>
</mask>
<g mask="url(#mask2_239_69904)">
<path d="M28.7999 29.7C28.7999 30.7 28.0998 31.5 27.1998 31.5C26.3998 31.5 25.6998 30.7 25.6998 29.7C25.6998 28.7 26.3998 27.9 27.1998 27.9C28.0998 27.9 28.7999 28.7 28.7999 29.7Z" fill="#09090A"/>
<path d="M26.3999 29.2C26.3999 29.4 26.4999 29.6 26.5999 29.6C26.7999 29.6 26.8999 29.5 26.8999 29.2C26.8999 29 26.7998 28.7999 26.6998 28.7999C26.4998 28.7999 26.3999 29 26.3999 29.2Z" fill="white"/>
</g>
<path d="M34.9999 32.7999C34.9999 32.7999 36.5999 33 37.3999 32.9C38.1999 32.9 39.0999 32.6 39.0999 32C39.0999 32 37.9999 32.3 36.4999 32.2C34.9999 32.1 34.2998 32 34.1998 31.4C34.1998 31.4 33.6999 32.5999 34.9999 32.7999Z" fill="#A35E3F"/>
<path d="M39.0999 31C39.0999 31 39.2999 31.6 38.8999 31.9C38.4999 32.1 36.0999 32.2 34.8999 31.9C34.2999 31.8 34.3999 31 34.3999 31" stroke="#050505" stroke-width="0.4" stroke-linecap="round" stroke-linejoin="bevel"/>
<path d="M40.9999 26.9001C40.9999 26.9001 41.6999 26.7 42.4999 26.8C43.3999 27 43.5999 26.8 43.5999 26.8" stroke="#050505" stroke-width="0.6" stroke-linecap="round"/>
<path d="M28.1998 26.2C28.1998 26.2 27.0998 26 26.1998 26.2C24.9998 26.4 24.4999 26.4 24.4999 26.4" stroke="#050505" stroke-width="0.6" stroke-linecap="round"/>
<path d="M32.4999 34.6C32.4999 35.4 33.9999 36.1 35.9999 36.2C37.9999 36.3 39.5998 35.7 39.6998 34.9C39.6998 34.1 38.0998 33.3 36.1998 33.2C34.1998 33.1 32.4999 33.7 32.4999 34.6Z" fill="#050505"/>
</svg>
