<svg xmlns="http://www.w3.org/2000/svg" width="117" height="27" fill="none" viewBox="0 0 117 27">
  <g class="Logo contenidos publicos">
    <g class="&lt;Group&gt;">
      <path fill="#1B9CD7" fill-rule="evenodd" d="M.287 16.223c1.149-.287 2.25-.43 3.302-.43 1.627 0 2.871.335 3.733 1.005.766.574 1.148 1.53 1.148 2.87s-.382 2.346-1.148 3.016c-.766.574-1.914.861-3.446.861h-.861v3.015H.287V16.223Zm5.169 4.882c.287-.288.43-.766.43-1.436 0-.575-.191-1.005-.574-1.292-.287-.383-.766-.575-1.436-.575-.383 0-.67.048-.861.144v3.59h.861c.67 0 1.197-.144 1.58-.431Z" class="&lt;Compound Path&gt;" clip-rule="evenodd"/>
      <path fill="#1B9CD7" d="M12.06 25.555c-.766-.766-1.149-1.962-1.149-3.59v-6.029h2.728v6.317c0 .766.191 1.34.574 1.723.287.287.766.43 1.436.43.574 0 1.053-.143 1.435-.43.288-.383.431-.957.431-1.723v-6.317h2.728v6.03c0 1.627-.383 2.823-1.149 3.589-.765.766-1.914 1.148-3.445 1.148-1.627 0-2.824-.382-3.59-1.148Zm2.297-10.337 1.292-2.297h2.871l-1.723 2.297h-2.44Z" class="&lt;Compound Path&gt;"/>
      <path fill="#1B9CD7" fill-rule="evenodd" d="M31.01 21.822c.287.479.431 1.053.431 1.723 0 .67-.144 1.244-.43 1.723-.384.478-.958.813-1.723 1.005-.862.287-1.915.43-3.159.43a9.666 9.666 0 0 1-1.58-.143c-.573 0-1.1-.048-1.578-.144V16.223l1.722-.287c.67-.096 1.292-.143 1.867-.143 1.627 0 2.823.239 3.589.717.67.575 1.005 1.34 1.005 2.297 0 .575-.144 1.053-.43 1.436-.288.383-.67.67-1.15.862a2.571 2.571 0 0 1 1.436.717Zm-5.312-3.876v2.153h1.292c.575 0 1.005-.095 1.293-.287.287-.191.43-.478.43-.861a.974.974 0 0 0-.287-.718 1.67 1.67 0 0 0-.43-.287 3.182 3.182 0 0 0-1.006-.144c-.478 0-.909.048-1.292.144Zm2.44 6.604c.288-.096.527-.24.719-.43.096-.192.143-.431.143-.719 0-.478-.143-.813-.43-1.005-.288-.19-.718-.287-1.293-.287h-1.579v2.585h1.149c.574 0 1.005-.048 1.292-.144Z" class="&lt;Compound Path&gt;" clip-rule="evenodd"/>
      <path fill="#1B9CD7" d="M33.882 26.56V15.936h2.727v8.327h4.738v2.297h-7.465Zm9.475 0V15.936h2.728V26.56h-2.728Zm6.748-1.292c-.957-.862-1.436-2.201-1.436-4.02 0-1.149.24-2.154.718-3.015.478-.766 1.148-1.34 2.01-1.723.861-.478 1.914-.718 3.158-.718a9.44 9.44 0 0 1 2.297.288v2.153c-.67-.096-1.34-.143-2.01-.143-.765 0-1.387.095-1.866.287a3.95 3.95 0 0 0-1.148 1.005c-.192.478-.288 1.1-.288 1.866s.096 1.388.288 1.866c.287.479.67.814 1.148 1.005.383.192.957.288 1.723.288.67 0 1.388-.096 2.153-.288v2.154l-1.148.287c-.479.096-.91.143-1.292.143-1.914 0-3.35-.478-4.307-1.435Z" class="&lt;Compound Path&gt;"/>
      <path fill="#1B9CD7" fill-rule="evenodd" d="M61.016 25.986a3.757 3.757 0 0 1-1.723-1.723c-.479-.862-.718-1.867-.718-3.015 0-1.149.24-2.154.718-3.015a3.757 3.757 0 0 1 1.723-1.723c.765-.478 1.675-.718 2.727-.718 1.053 0 2.01.24 2.872.718.766.383 1.34.957 1.723 1.723.382.861.574 1.866.574 3.015 0 1.148-.192 2.153-.574 3.015a3.756 3.756 0 0 1-1.723 1.723c-.862.478-1.819.717-2.871.717-1.053 0-1.963-.239-2.728-.717Zm4.594-2.297c.383-.479.574-1.293.574-2.441 0-1.149-.191-1.962-.574-2.44-.383-.48-1.005-.718-1.867-.718-.765 0-1.34.239-1.722.717-.383.479-.575 1.293-.575 2.441s.192 1.962.575 2.44c.383.48.957.719 1.722.719.862 0 1.484-.24 1.867-.718Z" class="&lt;Compound Path&gt;" clip-rule="evenodd"/>
      <path fill="#1B9CD7" d="M72.788 26.56c-.574-.096-1.053-.24-1.435-.43v-2.154c.382.191.86.335 1.435.43h1.58c.574 0 1.004-.047 1.291-.143.288-.192.431-.43.431-.718 0-.191-.048-.335-.143-.43a.939.939 0 0 0-.431-.431 5.555 5.555 0 0 0-.718-.288l-.861-.143c-.957-.287-1.675-.67-2.154-1.148-.478-.48-.718-1.15-.718-2.01 0-1.053.383-1.867 1.149-2.441.766-.574 1.914-.861 3.445-.861.479 0 .91.047 1.293.143.478 0 .909.048 1.292.144v2.297l-1.149-.287h-1.292c-.766 0-1.292.047-1.58.143-.286.191-.43.43-.43.718v.43c.096.096.24.192.43.288.097.096.336.191.719.287l.861.287c.957.191 1.723.526 2.297 1.005.479.574.718 1.244.718 2.01a3.3 3.3 0 0 1-.574 1.866c-.383.479-.91.862-1.58 1.149-.574.287-1.34.43-2.297.43a8.05 8.05 0 0 1-1.579-.143Z" class="&lt;Compound Path&gt;"/>
    </g>
    <g class="&lt;Group&gt;">
      <g class="&lt;Group&gt;">
        <path fill="#1B9CD7" d="M87.72 20.1c-.097 0-.192-.049-.288-.144v-.287h.287c.192.095.335.143.43.143.384 0 .575-.191.575-.574v-.144c0-.095-.048-.143-.144-.143-.095 0-.191-.048-.287-.144h-.287a1.67 1.67 0 0 1-.43-.287c-.192-.096-.288-.287-.288-.574 0-.096.048-.24.144-.43a1.67 1.67 0 0 1 .43-.288h1.15v.43a1.275 1.275 0 0 0-.574-.143c-.479 0-.718.144-.718.43v.288c.096 0 .144.048.144.143h.287l.287.144c.191 0 .383.096.574.287.096.096.144.24.144.431s-.048.335-.144.43c-.096.192-.191.288-.287.288a1.274 1.274 0 0 1-.574.143h-.43Z" class="&lt;Compound Path&gt;"/>
        <path fill="#1B9CD7" fill-rule="evenodd" d="M90.734 19.956a.94.94 0 0 1-.43-.43 2.71 2.71 0 0 1-.144-.862c0-.383.048-.67.143-.862a.94.94 0 0 1 .431-.43c.192-.096.43-.144.718-.144.191 0 .383.048.574.144a.94.94 0 0 1 .43.43c.096.192.144.479.144.862 0 .287-.047.574-.143.861a.94.94 0 0 1-.43.43 1.274 1.274 0 0 1-.575.144c-.287 0-.526-.047-.718-.143Zm1.292-.43c.096-.192.144-.48.144-.862 0-.383-.048-.67-.144-.862-.096-.191-.287-.287-.574-.287s-.479.096-.574.287c-.192.192-.287.479-.287.862s.095.67.287.861c.095.192.287.287.574.287s.478-.096.574-.287Z" class="&lt;Compound Path&gt;" clip-rule="evenodd"/>
        <path fill="#1B9CD7" d="M94.036 19.812c-.191-.287-.287-.67-.287-1.148 0-.479.096-.862.287-1.149.287-.191.67-.287 1.149-.287h.574v.43a1.274 1.274 0 0 0-.574-.143c-.288 0-.479.048-.575.144-.191.095-.287.191-.287.287-.095.191-.143.43-.143.718 0 .287.047.478.143.574 0 .191.096.335.287.43.096.096.287.144.575.144.095 0 .191-.048.287-.143h.287v.287c-.192.096-.43.143-.718.143a1.77 1.77 0 0 1-1.005-.287Zm2.728.288v-2.872h.43v2.871h-.43Zm2.153-.431h1.436v.43h-1.866v-2.871h1.866v.287h-1.436v.861h1.292v.431h-1.292v.862Z" class="&lt;Compound Path&gt;"/>
        <path fill="#1B9CD7" fill-rule="evenodd" d="M101.502 20.1v-2.872h.861c.479 0 .861.096 1.149.287.191.287.287.67.287 1.149 0 .478-.144.861-.431 1.148-.191.192-.574.287-1.149.287h-.717Zm1.435-.431c.192-.096.287-.24.287-.431.096-.096.144-.287.144-.574 0-.383-.096-.67-.287-.862-.096-.191-.335-.287-.718-.287h-.431v2.154c.096.095.24.143.431.143s.383-.048.574-.143Zm3.877.431-.288-.862h-1.148l-.287.861h-.431l1.005-2.871h.574l1.005 2.871h-.43Zm-1.293-1.293h.862l-.431-1.292-.431 1.292Zm2.728 1.293v-2.872h.862c.478 0 .861.096 1.148.287.191.287.287.67.287 1.149 0 .478-.096.861-.287 1.148-.287.192-.718.287-1.292.287h-.718Zm1.436-.431c.191-.096.287-.24.287-.431.096-.096.144-.287.144-.574 0-.383-.048-.67-.144-.862-.191-.191-.479-.287-.861-.287h-.431v2.154c.096.095.239.143.431.143.287 0 .478-.048.574-.143Zm-22.253 5.455v-2.871h.861c.479 0 .862.096 1.149.287.191.287.287.67.287 1.149 0 .478-.096.861-.287 1.148-.287.192-.718.287-1.292.287h-.718Zm1.436-.43c.191-.096.287-.24.287-.431.096-.096.143-.287.143-.574 0-.383-.047-.67-.143-.862-.192-.191-.479-.287-.862-.287h-.43v2.154c.191.095.335.143.43.143.287 0 .479-.048.575-.143Z" class="&lt;Compound Path&gt;" clip-rule="evenodd"/>
        <path fill="#1B9CD7" d="M91.308 24.694h1.436v.43H91.02v-2.871h1.723v.287h-1.436v.861H92.6v.431h-1.292v.862Zm2.584.43v-2.871h.431v2.44h1.436v.431h-1.867Zm4.882-.43h1.579v.43h-1.866v-2.871h1.722v.287h-1.435v.861h1.292v.431h-1.292v.862Zm2.871.43c-.096 0-.191-.048-.287-.143v-.287h.287c.192.095.335.143.431.143.383 0 .574-.191.574-.574v-.144c0-.095-.048-.143-.143-.143-.096 0-.192-.048-.288-.144h-.287a1.66 1.66 0 0 1-.43-.287c-.192-.096-.288-.287-.288-.574 0-.096.048-.24.144-.43.096-.097.239-.192.431-.288h1.148v.43a1.273 1.273 0 0 0-.574-.143c-.479 0-.718.144-.718.43v.288c.096 0 .192.048.287.143h.287l.144.144c.191 0 .383.096.574.287.096.096.144.24.144.43 0 .192-.048.336-.144.432-.095.191-.191.287-.287.287a1.273 1.273 0 0 1-.574.143h-.431Zm3.159 0V22.54h-1.005v-.287h2.297v.287h-.862v2.584h-.43Z" class="&lt;Compound Path&gt;"/>
        <path fill="#1B9CD7" fill-rule="evenodd" d="m108.68 25.124-.287-.861h-1.149l-.287.861h-.431l1.005-2.871h.575l1.005 2.871h-.431Zm-1.292-1.292h.861l-.431-1.292-.43 1.292Zm2.871 1.292v-2.871h.718c.478 0 .861.096 1.148.287.192.287.288.67.288 1.149 0 .478-.096.861-.288 1.148-.287.192-.67.287-1.148.287h-.718Zm1.292-.43a.938.938 0 0 0 .431-.431v-.574c0-.383-.048-.67-.144-.862-.191-.191-.478-.287-.861-.287h-.287v2.154c.096.095.191.143.287.143.287 0 .479-.048.574-.143Zm2.584.286a.936.936 0 0 1-.43-.43 2.703 2.703 0 0 1-.144-.861c0-.383.048-.67.144-.862a.936.936 0 0 1 .43-.43c.192-.096.431-.144.718-.144.192 0 .383.048.574.143.192.096.335.24.431.431.096.192.144.479.144.862a2.7 2.7 0 0 1-.144.861.938.938 0 0 1-.431.43 1.27 1.27 0 0 1-.574.144 1.61 1.61 0 0 1-.718-.143Zm1.292-.43c.096-.192.144-.479.144-.861 0-.383-.048-.67-.144-.862-.191-.191-.382-.287-.574-.287a.975.975 0 0 0-.718.287c-.095.192-.143.479-.143.862 0 .382.048.67.143.861a.975.975 0 0 0 .718.287c.192 0 .383-.096.574-.287Z" class="&lt;Compound Path&gt;" clip-rule="evenodd"/>
      </g>
    </g>
    <g class="&lt;Group&gt;">
      <path fill="#1B9CD7" d="M1.292 9.762C.431 8.902 0 7.513 0 5.6c0-1.914.43-3.302 1.292-4.163C2.25.479 3.542 0 5.168 0a9.44 9.44 0 0 1 2.297.287V1.58a7.807 7.807 0 0 0-2.153-.287c-.861 0-1.531.144-2.01.43-.574.288-1.005.767-1.292 1.436-.287.575-.43 1.34-.43 2.298 0 1.052.143 1.914.43 2.584.287.574.67 1.005 1.148 1.292.575.287 1.245.43 2.01.43a4.72 4.72 0 0 0 1.149-.143c.383 0 .766-.096 1.148-.287v1.292a6.891 6.891 0 0 1-2.44.43c-1.627 0-2.872-.43-3.733-1.292Z" class="&lt;Compound Path&gt;"/>
      <path fill="#1B9CD7" fill-rule="evenodd" d="M13.352 10.48c-.67-.382-1.197-1.004-1.58-1.866-.382-.765-.574-1.77-.574-3.015 0-1.34.192-2.392.575-3.158.382-.862.909-1.484 1.579-1.866C14.117.192 14.979 0 15.936 0c.957 0 1.77.192 2.44.575.67.382 1.197 1.004 1.58 1.866.383.766.574 1.818.574 3.158 0 1.245-.191 2.25-.574 3.015-.383.862-.91 1.484-1.58 1.867-.67.382-1.483.574-2.44.574-.957 0-1.819-.192-2.584-.574Zm4.737-1.722c.575-.67.862-1.723.862-3.159 0-1.531-.287-2.632-.862-3.302-.478-.67-1.196-1.005-2.153-1.005-1.053 0-1.819.335-2.297 1.005-.574.67-.862 1.723-.862 3.159 0 1.531.288 2.632.862 3.302.478.67 1.244 1.005 2.297 1.005.957 0 1.675-.335 2.153-1.005Z" class="&lt;Compound Path&gt;" clip-rule="evenodd"/>
      <path fill="#1B9CD7" d="M32.446.144h1.436V10.91h-1.58l-5.599-8.47v8.47h-1.435V.144h1.579l5.599 8.47V.144Zm9.044 10.767V1.436h-3.445V.144h8.47v1.292H43.07v9.475h-1.58ZM52.258 9.62h5.456v1.291h-7.035V.144h7.035v1.292h-5.456v3.302h4.738V6.03h-4.738v3.59ZM69.343.144h1.579V10.91h-1.58l-5.598-8.47v8.47h-1.436V.144h1.58l5.455 8.47V.144Zm6.747 10.767V.144h1.58V10.91h-1.58Z" class="&lt;Compound Path&gt;"/>
      <path fill="#1B9CD7" fill-rule="evenodd" d="M82.838 10.911V.287a7.305 7.305 0 0 1 1.436-.143A9.666 9.666 0 0 1 85.853 0c1.818 0 3.158.479 4.02 1.436.957.861 1.435 2.25 1.435 4.163 0 1.819-.478 3.159-1.435 4.02-.957.957-2.44 1.436-4.45 1.436-.862 0-1.724-.048-2.585-.144Zm5.168-1.579c.575-.287 1.005-.766 1.292-1.436.288-.574.431-1.387.431-2.44 0-1.436-.335-2.489-1.005-3.159-.574-.67-1.531-1.005-2.871-1.005a9.65 9.65 0 0 0-1.58.144v8.183a8.068 8.068 0 0 0 1.58.144c.861 0 1.58-.144 2.153-.43Zm9.906 1.148c-.766-.382-1.34-1.004-1.723-1.866-.382-.765-.574-1.77-.574-3.015 0-1.34.192-2.392.574-3.158.383-.862.958-1.484 1.723-1.866.67-.383 1.484-.575 2.441-.575.957 0 1.771.192 2.44.575.67.382 1.197 1.004 1.58 1.866.383.766.574 1.818.574 3.158 0 1.245-.191 2.25-.574 3.015-.383.862-.91 1.484-1.58 1.867-.669.382-1.483.574-2.44.574-.957 0-1.77-.192-2.44-.574Zm4.738-1.722c.478-.67.718-1.723.718-3.159 0-1.531-.287-2.632-.862-3.302-.478-.67-1.196-1.005-2.153-1.005-1.053 0-1.819.335-2.297 1.005-.575.67-.862 1.723-.862 3.159 0 1.531.287 2.632.862 3.302.478.67 1.244 1.005 2.297 1.005.957 0 1.723-.335 2.297-1.005Z" class="&lt;Compound Path&gt;" clip-rule="evenodd"/>
      <path fill="#1B9CD7" d="m110.69 10.911-1.436-.287V9.332l1.436.287c.478.096.909.144 1.292.144 1.627 0 2.44-.575 2.44-1.723 0-.383-.047-.67-.143-.861-.096-.192-.287-.383-.574-.575-.287-.095-.67-.239-1.149-.43l-.718-.144c-.957-.191-1.627-.526-2.01-1.005-.478-.478-.717-1.1-.717-1.866 0-.67.143-1.245.43-1.723.287-.479.718-.814 1.292-1.005.67-.287 1.436-.43 2.297-.43.383 0 .814.047 1.292.143.383 0 .766.048 1.149.143V1.58a10.035 10.035 0 0 0-2.441-.287c-1.627 0-2.44.575-2.44 1.723 0 .287.048.527.143.718a.863.863 0 0 0 .575.574c.191.192.526.335 1.005.43l.717.145c.957.287 1.675.67 2.154 1.148.478.479.718 1.1.718 1.866 0 .67-.144 1.245-.431 1.723-.287.479-.766.814-1.436 1.005-.574.287-1.292.43-2.153.43a6.62 6.62 0 0 1-1.292-.143Z" class="&lt;Compound Path&gt;"/>
    </g>
    <path fill="#1B9CD7" d="M82.838 26.703h-.43v-10.91h.43v10.91Z" class="&lt;Path&gt;"/>
  </g>
</svg>
