<svg width="318" height="467" viewBox="0 0 318 467" fill="none" xmlns="http://www.w3.org/2000/svg">
<path d="M76.5199 15.1469L43.5466 54.6149L45.1423 55.948L43.0549 55.3353L37.6113 65.2562L37.579 65.3152L37.5484 65.3751L22.497 94.8645L22.4964 94.8656L22.4088 95.0371C18.9834 101.743 15.2145 109.122 13.0371 116.818C11.0084 123.987 10.3194 131.459 9.69503 138.23L9.67224 138.477C9.67221 138.477 9.67218 138.477 9.67215 138.478C7.70887 159.715 5.6665 181.843 5.05962 203.696C5.01267 205.306 4.86983 206.723 4.67249 208.052C4.30719 210.511 5.63582 212.979 8.01969 213.962L41.5609 227.796C41.5618 227.796 41.5627 227.797 41.5636 227.797C45.4963 229.426 48.8921 230.936 50.8842 233.53C52.9464 236.23 53.2215 239.843 52.5103 244.525C51.9747 248.051 55.1412 251.787 59.3279 250.62C59.7306 250.508 60.1475 250.384 60.5298 250.27L60.7174 250.214L60.728 250.21L60.7387 250.207C62.6475 249.628 64.0821 249.262 65.436 249.335C67.536 249.488 68.9879 250.567 70.1015 252.698C71.3123 255.015 71.9181 258.318 71.8713 261.815C71.8713 261.816 71.8713 261.816 71.8713 261.817L71.2782 302.659C71.2782 302.659 71.2782 302.659 71.2782 302.66C71.2215 306.368 70.99 309.6 68.9876 311.706L66.9085 313.371L66.8693 313.402L66.8307 313.434L64.8764 315.072C64.6244 315.283 64.3436 315.557 64.0753 315.904C62.9504 317.358 62.4613 318.969 62.217 320.316C61.9772 321.638 61.9245 323.012 61.8941 324.148C60.8915 359.012 60.7407 394.356 61.4417 429.22L61.4417 429.22C61.6288 438.498 61.8972 447.809 62.2078 457.085C62.3247 460.578 65.5949 463.02 68.9246 462.271C86.7445 458.265 105.527 459.251 124.47 460.356L124.473 460.356L124.707 460.369C128.987 460.617 133.289 460.865 137.578 461.05L76.5199 15.1469ZM76.5199 15.1469L77.8449 13.5H80H81.7469C88.1269 7.98123 96.525 5.30637 104.826 5.1116C113.592 4.90588 122.657 7.45123 129.698 12.8425C131.677 14.3571 133.456 16.0518 135.029 17.5508L135.29 17.7998L135.299 17.8078C137.431 19.8482 139.367 21.6871 141.569 23.221L141.575 23.2258C148.349 27.9641 157.036 29.5619 165.808 31.1082C185.376 34.5584 205.175 38.0439 225.082 38.2033C227.272 38.2193 229.498 38.2033 231.729 38.179L231.741 38.1789L232.255 38.1747C239.847 38.1107 248.302 38.0395 256.253 39.908L256.256 39.9086C267.047 42.451 277.038 48.8551 283.744 57.5617C284.164 58.1047 284.516 58.7275 284.75 59.152C284.911 59.4441 285.1 59.8007 285.278 60.1361C285.37 60.3097 285.459 60.4776 285.54 60.628L285.544 60.6361L285.549 60.6443C286.542 62.5169 287.356 63.9619 288.144 65.0628C288.942 66.1775 289.474 66.5909 289.75 66.7357C291.602 67.7053 293.286 69.9885 292.723 72.8271C291.604 78.4637 291.302 83.9313 293.588 88.5226C295.311 91.9676 298.262 94.6894 301.894 97.9413L301.904 97.9507L301.947 97.9892C303.317 99.2235 304.798 100.557 306.201 101.976L306.208 101.983L306.215 101.99C308.418 104.238 310.586 107.164 311.843 110.4C313.103 113.644 313.613 117.706 311.552 121.546L311.549 121.552C307.048 129.906 305.82 139.405 304.572 149.57L304.572 149.571L304.509 150.079C303.182 160.877 301.774 172.335 295.209 182.187C293.449 184.839 291.394 187.242 289.422 189.542M76.5199 15.1469L137.58 461.05C157.086 461.9 176.738 461.339 196.096 459.503C198.925 459.235 201.074 456.858 201.074 454.029V412.516C201.074 412.107 201.029 411.699 200.938 411.3L200.51 409.411C213.651 411.08 226.865 412.13 240.095 412.624C242.019 412.696 243.765 411.612 244.581 409.93M289.422 189.542C289.422 189.542 289.423 189.542 289.423 189.541L286.001 186.619L289.417 189.548C289.419 189.546 289.42 189.544 289.422 189.542ZM289.422 189.542C286.635 192.806 284.155 195.748 282.428 199.053L282.425 199.059C280.966 201.842 280.284 205.193 280.645 208.183C280.996 211.093 282.286 213.468 284.641 214.986L284.641 214.987C285.813 215.742 286.675 216.864 287.088 218.23C287.455 219.444 287.387 220.588 287.263 221.416C287.027 222.991 286.35 224.803 285.661 226.546L285.66 226.548C285.234 227.624 284.888 228.527 284.649 229.316M284.649 229.316C284.034 231.443 284.36 233.719 285.538 236.386C286.753 239.137 288.656 241.832 290.709 244.71L290.71 244.712C299.242 256.682 305.685 269.767 309.867 283.585L309.869 283.593C311.326 288.442 312.446 293.323 311.451 298.307L311.449 298.317C310.606 302.489 308.283 306.275 306.503 309.174L306.341 309.438L306.339 309.442L244.581 409.93M284.649 229.316C284.647 229.322 284.645 229.328 284.643 229.334L280.334 228.037M284.649 229.316C284.651 229.31 284.652 229.304 284.654 229.298L280.334 228.037M244.581 409.93L244.417 410.196C244.627 409.855 244.787 409.486 244.892 409.099C244.813 409.389 244.708 409.667 244.581 409.93ZM280.334 228.037C280.635 227.037 281.051 225.964 281.476 224.891M280.334 228.037C278.289 235.046 283.044 241.713 287.046 247.324C295.298 258.902 301.522 271.546 305.56 284.888C306.994 289.661 307.8 293.613 307.038 297.426C306.357 300.8 304.4 303.996 302.505 307.085L240.583 407.84C240.569 407.863 240.558 407.889 240.551 407.915C240.516 408.044 240.396 408.132 240.263 408.127C226.199 407.602 212.162 406.442 198.221 404.574C197.496 404.458 196.785 404.671 196.244 405.098C196.113 405.201 196.026 405.349 195.975 405.509L195.496 407.032C195.443 407.201 195.435 407.381 195.474 407.553L196.55 412.295C196.566 412.367 196.574 412.442 196.574 412.516V454.029C196.574 454.544 196.183 454.975 195.671 455.023C176.51 456.841 157.065 457.395 137.774 456.554C133.517 456.371 129.243 456.124 124.952 455.876L124.732 455.863C105.887 454.765 86.4738 453.713 67.9374 457.881C67.321 458.02 66.7264 457.566 66.7053 456.935C66.3951 447.672 66.1273 438.382 65.9407 429.129L281.476 224.891M281.476 224.891C282.911 221.264 283.362 219.516 282.203 218.768C274.836 214.02 274.756 203.995 278.44 196.969L281.476 224.891ZM255.224 44.2887C265.025 46.5978 274.119 52.4357 280.184 60.3145C280.487 60.7053 280.848 61.3875 281.274 62.1896L255.224 44.2887ZM255.224 44.2887C247.805 42.5453 239.817 42.6119 232.06 42.6764M255.224 44.2887L232.06 42.6764M303.001 105.14C306.826 109.043 310.04 114.848 307.587 119.418C302.62 128.638 301.336 138.997 300.106 149.022L300.102 149.053C298.731 160.197 297.435 170.732 291.464 179.691L303.001 105.14ZM303.001 105.14C301.69 103.815 300.291 102.554 298.893 101.294L303.001 105.14ZM232.06 42.6764L231.778 42.6788L232.06 42.6764Z" fill="white" stroke="#FFBF02" stroke-width="9"/>
</svg>
