<svg width="604" height="340" viewBox="0 0 604 340" fill="none" xmlns="http://www.w3.org/2000/svg">
<mask id="path-1-outside-1_1089_25120" maskUnits="userSpaceOnUse" x="0.197266" y="132.023" width="214" height="208" fill="black">
<rect fill="white" x="0.197266" y="132.023" width="214" height="208"/>
<path d="M188.932 323.202C187.639 323.698 186.267 324.145 184.886 323.95C182.274 323.576 180.733 321.12 178.599 319.681C174.686 317.047 169.081 318.071 164.849 320.258C160.626 322.437 157.022 325.625 152.577 327.389C141.324 331.861 128.724 326.259 117.187 322.454C86.9217 312.463 51.9318 315.394 24.1019 330.171C23.4108 330.538 22.5731 330.016 22.5933 329.234C23.1132 309.089 16.4546 289.354 13.7802 269.318C9.40622 236.511 15.7368 203.093 11.3806 170.277C10.3624 162.577 8.74213 154.861 9.31765 147.12C9.52129 144.478 11.0973 141.046 13.9217 141.559C15.2144 141.794 16.1176 142.827 16.8702 143.819C20.7218 148.917 23.4843 154.706 24.954 160.772C25.3879 162.561 25.7421 164.447 26.9728 165.886C28.9827 168.236 32.5862 168.659 35.5258 169.935C40.4951 172.095 43.6302 177.283 43.2216 182.287C43.1623 183.013 42.3201 183.322 41.6914 182.955C36.9477 180.189 30.1142 180.4 26.1759 184.083C21.864 188.116 22.6165 195.921 28.0175 198.645C31.6743 200.491 36.1545 199.84 40.3159 200.214C49.4356 201.028 57.6257 207.549 59.8038 215.72C60.8928 219.826 60.6626 224.388 63.2303 227.892C65.2933 230.721 68.7995 232.315 72.0667 233.941C81.4875 238.633 90.1026 244.56 98.5405 250.626C116.32 263.391 133.479 276.872 149.974 291.02C153.87 294.362 157.907 297.841 162.954 299.427C168.993 301.313 175.899 300.289 181.61 302.883C183.655 303.81 185.47 305.184 187.613 305.924C194.882 308.452 200.832 297.963 203.896 304.769C207.924 313.697 196.015 320.461 188.932 323.202"/>
</mask>
<path d="M188.932 323.202C187.639 323.698 186.267 324.145 184.886 323.95C182.274 323.576 180.733 321.12 178.599 319.681C174.686 317.047 169.081 318.071 164.849 320.258C160.626 322.437 157.022 325.625 152.577 327.389C141.324 331.861 128.724 326.259 117.187 322.454C86.9217 312.463 51.9318 315.394 24.1019 330.171C23.4108 330.538 22.5731 330.016 22.5933 329.234C23.1132 309.089 16.4546 289.354 13.7802 269.318C9.40622 236.511 15.7368 203.093 11.3806 170.277C10.3624 162.577 8.74213 154.861 9.31765 147.12C9.52129 144.478 11.0973 141.046 13.9217 141.559C15.2144 141.794 16.1176 142.827 16.8702 143.819C20.7218 148.917 23.4843 154.706 24.954 160.772C25.3879 162.561 25.7421 164.447 26.9728 165.886C28.9827 168.236 32.5862 168.659 35.5258 169.935C40.4951 172.095 43.6302 177.283 43.2216 182.287C43.1623 183.013 42.3201 183.322 41.6914 182.955C36.9477 180.189 30.1142 180.4 26.1759 184.083C21.864 188.116 22.6165 195.921 28.0175 198.645C31.6743 200.491 36.1545 199.84 40.3159 200.214C49.4356 201.028 57.6257 207.549 59.8038 215.72C60.8928 219.826 60.6626 224.388 63.2303 227.892C65.2933 230.721 68.7995 232.315 72.0667 233.941C81.4875 238.633 90.1026 244.56 98.5405 250.626C116.32 263.391 133.479 276.872 149.974 291.02C153.87 294.362 157.907 297.841 162.954 299.427C168.993 301.313 175.899 300.289 181.61 302.883C183.655 303.81 185.47 305.184 187.613 305.924C194.882 308.452 200.832 297.963 203.896 304.769C207.924 313.697 196.015 320.461 188.932 323.202" fill="white"/>
<path d="M184.886 323.95L183.627 332.861L183.618 332.86L183.61 332.859L184.886 323.95ZM178.599 319.681L183.625 312.215L183.632 312.219L178.599 319.681ZM164.849 320.258L168.981 328.254L168.976 328.256L164.849 320.258ZM152.577 327.389L149.254 319.025L149.257 319.024L152.577 327.389ZM117.187 322.454L114.368 331.001L114.366 331L117.187 322.454ZM13.7802 269.318L4.85929 270.509L4.85909 270.508L13.7802 269.318ZM11.3806 170.277L2.45888 171.461L2.45829 171.457L11.3806 170.277ZM9.31765 147.12L0.342422 146.453L0.343322 146.441L0.344255 146.429L9.31765 147.12ZM13.9217 141.559L15.5278 132.703L15.5367 132.705L13.9217 141.559ZM16.8702 143.819L24.0402 138.379L24.0457 138.386L24.0512 138.394L16.8702 143.819ZM24.954 160.772L16.2076 162.893L16.2072 162.891L24.954 160.772ZM26.9728 165.886L20.1334 171.736L20.1328 171.735L26.9728 165.886ZM35.5258 169.935L39.1107 161.68L39.1136 161.681L35.5258 169.935ZM26.1759 184.083L32.3236 190.656L26.1759 184.083ZM28.0175 198.645L32.0702 190.609L32.0729 190.611L28.0175 198.645ZM40.3159 200.214L39.5167 209.179L39.5102 209.178L40.3159 200.214ZM59.8038 215.72L68.5002 213.402L68.503 213.413L59.8038 215.72ZM63.2303 227.892L70.4901 222.573L70.4964 222.581L70.5026 222.59L63.2303 227.892ZM72.0667 233.941L76.077 225.884L76.0787 225.885L72.0667 233.941ZM98.5405 250.626L93.2914 257.936L93.2873 257.934L98.5405 250.626ZM149.974 291.02L155.833 284.188L155.834 284.189L149.974 291.02ZM162.954 299.427L160.271 308.018L160.264 308.015L160.257 308.013L162.954 299.427ZM181.61 302.883L177.895 311.08L177.888 311.077L181.61 302.883ZM187.613 305.924L190.55 297.416L190.56 297.42L190.57 297.423L187.613 305.924ZM203.896 304.769L195.692 308.471L195.689 308.463L203.896 304.769ZM43.2216 182.287L34.2514 181.555L43.2216 182.287ZM41.6914 182.955L46.2253 175.181L41.6914 182.955ZM22.5933 329.234L13.5963 329.002L22.5933 329.234ZM192.156 331.604C190.881 332.093 187.54 333.414 183.627 332.861L186.145 315.038C185.476 314.944 185.04 315.038 185.003 315.046C184.982 315.051 185.023 315.043 185.15 315.001C185.28 314.959 185.452 314.897 185.708 314.799L192.156 331.604ZM183.61 332.859C179.714 332.301 177.06 330.211 175.698 329.041C175.12 328.544 174.288 327.767 174.081 327.581C173.897 327.414 173.772 327.306 173.678 327.229C173.586 327.155 173.553 327.133 173.567 327.143L183.632 312.219C184.698 312.939 185.568 313.7 186.148 314.224C186.425 314.475 186.74 314.766 186.925 314.936C187.146 315.139 187.299 315.277 187.428 315.388C188.023 315.899 187.446 315.224 186.162 315.041L183.61 332.859ZM173.574 327.147C173.781 327.286 173.612 327.046 172.586 327.131C171.557 327.216 170.245 327.6 168.981 328.254L160.717 312.263C165.931 309.568 175.559 306.785 183.625 312.215L173.574 327.147ZM168.976 328.256C167.38 329.079 165.95 330.064 163.701 331.525C161.659 332.852 159.011 334.518 155.898 335.754L149.257 319.024C150.588 318.495 151.964 317.686 153.891 316.433C155.611 315.315 158.094 313.616 160.722 312.26L168.976 328.256ZM155.901 335.753C147.918 338.925 139.915 338.321 133.058 336.816C126.459 335.367 119.498 332.693 114.368 331.001L120.006 313.906C126.413 316.02 131.52 318.049 136.919 319.235C142.059 320.363 145.983 320.325 149.254 319.025L155.901 335.753ZM114.366 331C86.4102 321.772 53.9654 324.504 28.3225 338.12L19.8813 322.222C49.8982 306.284 87.4333 303.154 120.008 313.907L114.366 331ZM13.5963 329.002C13.8302 319.938 12.4529 310.749 10.5498 300.951C8.70594 291.459 6.2429 280.874 4.85929 270.509L22.701 268.128C23.9919 277.798 26.1954 287.099 28.2195 297.519C30.1844 307.635 31.8763 318.385 31.5903 329.466L13.5963 329.002ZM4.85909 270.508C2.55935 253.258 3.08998 235.968 3.57771 219.534C4.07281 202.851 4.52498 187.025 2.45888 171.461L20.3024 169.092C22.5925 186.344 22.0574 203.636 21.5698 220.068C21.0747 236.749 20.627 252.571 22.7012 268.129L4.85909 270.508ZM2.45829 171.457C1.56359 164.691 -0.324219 155.419 0.342422 146.453L18.2929 147.787C17.8085 154.302 19.1612 160.463 20.3029 169.097L2.45829 171.457ZM0.344255 146.429C0.53953 143.895 1.36164 140.762 3.2196 138.059C5.18956 135.192 9.41456 131.594 15.5278 132.703L12.3157 150.414C13.6429 150.655 15.0626 150.424 16.2589 149.789C17.3191 149.227 17.8598 148.537 18.0542 148.254C18.1649 148.093 18.226 147.974 18.2543 147.914C18.2695 147.882 18.2792 147.858 18.2846 147.844C18.2901 147.83 18.2926 147.823 18.2931 147.821C18.2933 147.821 18.2907 147.829 18.2884 147.841C18.286 147.853 18.2884 147.846 18.291 147.812L0.344255 146.429ZM15.5367 132.705C20.6169 133.631 23.3829 137.513 24.0402 138.379L9.70027 149.259C9.40933 148.875 9.46893 149.006 9.75 149.246C10.0943 149.54 10.9584 150.167 12.3067 150.413L15.5367 132.705ZM24.0512 138.394C28.6258 144.449 31.9334 151.358 33.7009 158.652L16.2072 162.891C15.0352 158.055 12.8177 153.385 9.68921 149.244L24.0512 138.394ZM33.7005 158.65C33.7612 158.901 33.8234 159.165 33.871 159.365C33.9227 159.583 33.9657 159.761 34.0074 159.927C34.0919 160.263 34.1485 160.454 34.1882 160.571C34.2672 160.804 34.1951 160.484 33.8128 160.037L20.1328 171.735C17.1727 168.274 16.423 163.781 16.2076 162.893L33.7005 158.65ZM33.8122 160.036C33.2796 159.413 32.8865 159.454 34.0079 159.867C34.5633 160.071 35.084 160.231 36.0287 160.54C36.8505 160.809 37.9651 161.183 39.1107 161.68L31.9409 178.19C31.6167 178.05 31.1786 177.892 30.4351 177.649C29.8146 177.446 28.7576 177.114 27.7935 176.76C25.8757 176.054 22.6758 174.709 20.1334 171.736L33.8122 160.036ZM39.1136 161.681C47.43 165.296 52.9299 173.98 52.1917 183.02L34.2514 181.555C34.3305 180.587 33.5602 178.894 31.938 178.189L39.1136 161.681ZM37.1574 190.73C36.4288 190.305 35.3205 190.015 34.1696 190.084C33.0136 190.154 32.4574 190.531 32.3236 190.656L20.0282 177.51C27.4206 170.596 38.7444 170.818 46.2253 175.181L37.1574 190.73ZM32.3236 190.656C32.3637 190.619 32.3913 190.582 32.4071 190.557C32.4218 190.534 32.4213 190.528 32.415 190.547C32.4085 190.567 32.3987 190.604 32.3933 190.656C32.3879 190.71 32.3883 190.765 32.3944 190.818C32.4006 190.871 32.4108 190.907 32.4168 190.924C32.4226 190.941 32.4207 190.929 32.3993 190.896C32.3769 190.862 32.3361 190.808 32.272 190.75C32.2061 190.69 32.1346 190.642 32.0702 190.609L23.9649 206.681C12.4771 200.888 11.5633 185.427 20.0282 177.51L32.3236 190.656ZM32.0729 190.611C32.2352 190.693 32.7848 190.903 34.4695 190.995C35.3126 191.041 36.1523 191.05 37.3261 191.073C38.4061 191.094 39.7402 191.126 41.1215 191.251L39.5102 209.178C38.8109 209.116 38.0245 209.09 36.9797 209.069C36.0288 209.051 34.7396 209.037 33.4854 208.968C30.9755 208.831 27.4565 208.444 23.9622 206.68L32.0729 190.611ZM41.1151 191.25C53.5944 192.363 65.2464 201.195 68.5002 213.402L51.1074 218.038C50.0049 213.902 45.2768 209.692 39.5167 209.179L41.1151 191.25ZM68.503 213.413C68.8927 214.882 69.1388 216.293 69.3217 217.422C69.5272 218.691 69.6344 219.462 69.8027 220.343C70.1176 221.991 70.3906 222.437 70.4901 222.573L55.9705 233.211C53.5024 229.843 52.6067 226.255 52.1224 223.72C51.4915 220.417 51.5752 219.802 51.1046 218.027L68.503 213.413ZM70.5026 222.59C70.9709 223.232 71.9963 223.853 76.077 225.884L68.0564 241.998C65.6028 240.777 59.6158 238.211 55.958 233.194L70.5026 222.59ZM76.0787 225.885C86.1945 230.922 95.3076 237.218 103.794 243.318L93.2873 257.934C84.8975 251.902 76.7805 246.343 68.0547 241.997L76.0787 225.885ZM103.79 243.315C121.779 256.231 139.141 269.872 155.833 284.188L144.115 297.851C127.816 283.872 110.861 270.551 93.2914 257.936L103.79 243.315ZM155.834 284.189C160.002 287.764 162.667 289.903 165.652 290.841L160.257 308.013C153.148 305.78 147.738 300.959 144.114 297.851L155.834 284.189ZM165.638 290.836C167.536 291.43 169.615 291.584 173.257 291.93C176.421 292.231 180.956 292.701 185.331 294.688L177.888 311.077C176.552 310.47 174.779 310.156 171.553 309.849C168.804 309.588 164.41 309.311 160.271 308.018L165.638 290.836ZM185.325 294.685C186.818 295.362 188.282 296.231 189 296.636C189.918 297.154 190.305 297.332 190.55 297.416L184.675 314.431C182.778 313.775 181.186 312.896 180.149 312.31C178.913 311.612 178.446 311.33 177.895 311.08L185.325 294.685ZM190.57 297.423C190.004 297.226 189.647 297.41 190.048 297.282C190.734 297.062 191.367 296.706 193.156 295.77C193.881 295.39 194.95 294.84 196.118 294.397C197.263 293.962 199.051 293.409 201.189 293.435C203.56 293.463 206.027 294.204 208.176 295.892C210.155 297.448 211.35 299.404 212.102 301.075L195.689 308.463C195.693 308.473 195.776 308.657 195.976 308.936C196.181 309.222 196.527 309.631 197.053 310.045C198.261 310.994 199.705 311.418 200.973 311.433C202.009 311.446 202.617 311.183 202.51 311.224C202.426 311.256 202.171 311.367 201.507 311.715C200.517 312.234 198.107 313.601 195.538 314.424C192.683 315.338 188.857 315.885 184.656 314.424L190.57 297.423ZM212.099 301.067C214.064 305.421 214.156 309.884 212.769 313.941C211.471 317.738 209.055 320.697 206.737 322.871C202.17 327.154 196.205 330.038 192.179 331.595L185.685 314.808C188.742 313.625 192.274 311.757 194.425 309.74C195.465 308.765 195.714 308.187 195.737 308.119C195.738 308.116 195.728 308.146 195.719 308.204C195.71 308.264 195.705 308.335 195.709 308.408C195.716 308.579 195.757 308.614 195.692 308.471L212.099 301.067ZM52.1917 183.02C51.8548 187.145 49.1393 190.1 46.0972 191.353C43.2303 192.533 39.9171 192.339 37.1574 190.73L46.2253 175.181C44.0944 173.938 41.5167 173.772 39.2428 174.709C36.7939 175.717 34.529 178.155 34.2514 181.555L52.1917 183.02ZM28.3225 338.12C21.5058 341.739 13.3996 336.625 13.5963 329.002L31.5903 329.466C31.7467 323.407 25.3157 319.336 19.8813 322.222L28.3225 338.12Z" fill="#FFBF02" mask="url(#path-1-outside-1_1089_25120)"/>
<mask id="path-3-outside-2_1089_25120" maskUnits="userSpaceOnUse" x="212.465" y="293.275" width="74" height="38" fill="black">
<rect fill="white" x="212.465" y="293.275" width="74" height="38"/>
<path d="M225.145 311.047C223.383 312.852 222.179 315.274 222.524 317.673C222.878 320.072 225.118 322.3 227.757 322.275C231.741 322.251 233.99 317.811 237.788 316.706C241.339 315.681 245.173 317.836 248.838 317.234C250.441 316.966 251.875 316.201 253.434 315.746C255.851 315.022 258.454 315.104 260.986 314.835C266.555 314.258 271.992 311.884 275.542 307.9C276.403 306.939 277.167 305.587 276.586 304.505C276.528 304.397 276.438 304.311 276.338 304.241L275.135 303.406C275.07 303.361 275 303.323 274.927 303.296C270.388 301.601 265.41 304.232 260.606 305.184C248.086 307.672 235.123 300.859 225.145 311.047"/>
</mask>
<path d="M225.145 311.047C223.383 312.852 222.179 315.274 222.524 317.673C222.878 320.072 225.118 322.3 227.757 322.275C231.741 322.251 233.99 317.811 237.788 316.706C241.339 315.681 245.173 317.836 248.838 317.234C250.441 316.966 251.875 316.201 253.434 315.746C255.851 315.022 258.454 315.104 260.986 314.835C266.555 314.258 271.992 311.884 275.542 307.9C276.403 306.939 277.167 305.587 276.586 304.505C276.528 304.397 276.438 304.311 276.338 304.241L275.135 303.406C275.07 303.361 275 303.323 274.927 303.296C270.388 301.601 265.41 304.232 260.606 305.184C248.086 307.672 235.123 300.859 225.145 311.047" fill="white"/>
<path d="M222.524 317.673L213.621 318.988L213.618 318.972L213.616 318.956L222.524 317.673ZM227.757 322.275L227.674 313.276L227.688 313.275L227.702 313.275L227.757 322.275ZM237.788 316.706L235.273 308.064L235.283 308.061L235.293 308.058L237.788 316.706ZM248.838 317.234L250.325 326.111L250.31 326.113L250.296 326.115L248.838 317.234ZM253.434 315.746L256.015 324.368L255.986 324.377L255.958 324.385L253.434 315.746ZM260.986 314.835L260.038 305.886L260.048 305.884L260.058 305.883L260.986 314.835ZM275.542 307.9L268.823 301.912L268.831 301.904L268.839 301.895L275.542 307.9ZM260.606 305.184L258.851 296.357L258.857 296.356L260.606 305.184ZM275.135 303.406L280.268 296.013L275.135 303.406ZM274.927 303.296L271.778 311.727L274.927 303.296ZM276.586 304.505L268.657 308.763L276.586 304.505ZM276.338 304.241L271.204 311.634L276.338 304.241ZM231.585 317.333C231.486 317.434 231.414 317.526 231.368 317.593C231.321 317.662 231.317 317.682 231.334 317.641C231.366 317.566 231.536 317.111 231.432 316.391L213.616 318.956C212.724 312.763 215.847 307.687 218.704 304.76L231.585 317.333ZM231.427 316.358C231.274 315.317 230.801 314.646 230.356 314.24C229.875 313.801 228.966 313.264 227.674 313.276L227.84 331.275C220.192 331.346 214.553 325.303 213.621 318.988L231.427 316.358ZM227.702 313.275C226.224 313.284 225.572 314.211 227.156 312.919C227.642 312.524 228.839 311.501 229.975 310.696C231.233 309.805 233.008 308.724 235.273 308.064L240.304 325.347C240.67 325.24 240.74 325.129 240.383 325.382C239.905 325.721 239.578 326.017 238.528 326.872C237.043 328.083 233.274 331.242 227.812 331.275L227.702 313.275ZM235.293 308.058C239.355 306.886 243.188 307.651 244.867 307.954C247.276 308.388 247.414 308.347 247.381 308.353L250.296 326.115C246.597 326.722 242.986 325.905 241.673 325.668C239.632 325.3 239.772 325.5 240.284 325.353L235.293 308.058ZM247.352 308.358C247.263 308.373 247.356 308.371 248.003 308.129C248.157 308.072 248.312 308.012 248.513 307.936C248.702 307.864 248.928 307.778 249.165 307.691C249.636 307.516 250.236 307.304 250.909 307.107L255.958 324.385C255.598 324.49 255.388 324.586 254.302 324.991C253.442 325.312 252.016 325.827 250.325 326.111L247.352 308.358ZM250.852 307.124C252.959 306.494 254.947 306.271 256.434 306.15C258.384 305.991 258.778 306.019 260.038 305.886L261.935 323.785C260.662 323.92 258.489 324.042 257.899 324.09C256.848 324.176 256.326 324.275 256.015 324.368L250.852 307.124ZM260.058 305.883C263.895 305.486 267.07 303.88 268.823 301.912L282.261 313.888C276.914 319.888 269.216 323.031 261.914 323.787L260.058 305.883ZM268.839 301.895C268.804 301.934 268.73 302.02 268.634 302.166C268.543 302.304 268.365 302.597 268.194 303.045C267.877 303.878 267.279 306.196 268.657 308.763L284.515 300.248C286.474 303.896 285.785 307.432 285.016 309.451C284.259 311.438 283.099 312.953 282.246 313.905L268.839 301.895ZM271.204 311.634L270.001 310.798L280.268 296.013L281.471 296.849L271.204 311.634ZM271.778 311.727C272.014 311.816 271.758 311.579 269.918 312.01C269.008 312.223 268.084 312.5 266.753 312.889C265.543 313.242 263.988 313.689 262.354 314.013L258.857 296.356C259.625 296.203 260.494 295.964 261.71 295.61C262.806 295.29 264.31 294.837 265.813 294.485C268.798 293.786 273.3 293.081 278.076 294.865L271.778 311.727ZM262.36 314.011C258.203 314.837 254.223 314.851 250.814 314.709C246.742 314.541 244.916 314.288 241.745 314.226C236.711 314.127 234.018 314.849 231.574 317.344L218.715 304.749C226.25 297.056 235.027 296.091 242.099 296.23C244.981 296.286 249.368 296.634 251.559 296.725C254.413 296.843 256.748 296.775 258.851 296.357L262.36 314.011ZM270.001 310.798C270.504 311.147 271.095 311.472 271.778 311.727L278.076 294.865C278.905 295.175 279.637 295.575 280.268 296.013L270.001 310.798ZM268.657 308.763C269.48 310.297 270.568 311.192 271.204 311.634L281.471 296.849C282.309 297.43 283.576 298.498 284.515 300.248L268.657 308.763Z" fill="#FFBF02" mask="url(#path-3-outside-2_1089_25120)"/>
<mask id="path-5-outside-3_1089_25120" maskUnits="userSpaceOnUse" x="396.275" y="0.222656" width="129" height="94" fill="black">
<rect fill="white" x="396.275" y="0.222656" width="129" height="94"/>
<path d="M437.951 80.1675C437.671 79.7037 437.556 79.017 437.511 78.2527C437.474 77.6303 437.334 74.704 437.334 74.0806C437.334 73.3956 436.858 73.0004 436.224 72.6933C433.848 71.5417 431.806 71.023 429.134 70.5983C427.416 70.3254 425.454 70.1316 423.862 69.4941C421.937 68.7236 419.407 68.571 417.85 67.1726C416.362 65.8366 415.616 64.711 414.705 63.0392C414.136 61.9932 413.506 61.1053 412.778 60.1798C411.498 58.5517 409.354 57.1356 407.507 56.1029C405.46 54.9592 406.168 52.8822 408.139 52.3092C412.001 51.1861 417.005 48.8735 419.854 53.0595C421.569 55.5798 420.512 59.1132 422.675 61.4962C424.998 64.0563 432.249 64.2985 435.423 62.841C436.592 62.3041 437.596 61.6751 438.876 61.3547C439.82 61.118 440.741 60.9304 441.558 60.4062C442.839 59.5843 444.006 58.3448 445.165 57.3628C446.278 56.4194 450.344 52.8925 449.419 51.0352C448.715 49.6206 447.378 48.6568 445.812 47.9776C443.669 47.0483 441.774 47.779 441.774 45.0616C441.774 42.4979 447.418 42.255 449.265 41.9615C450.53 41.7605 451.682 41.2349 452.996 41.3811C453.95 41.4873 454.869 41.9033 455.801 42.1172C457.243 42.4483 458.797 42.6253 460.271 42.825L460.348 42.8354C462.767 43.1635 465.464 43.5292 464.742 40.3619C464.555 39.5429 463.298 38.1538 462.599 37.6724C461.251 36.7437 459.813 35.6332 458.853 34.36C457.877 33.0653 456.359 32.315 455.524 30.9201C454.867 29.8242 454.161 28.6049 453.366 27.5936C450.992 24.5751 447.068 23.3304 444.517 20.4025C442.65 18.2594 442.078 14.8292 444.41 12.6877C445.654 11.5446 446.703 11.7959 448.433 11.7959C450.124 11.7959 450.781 12.8452 451.269 14.1458C452.287 16.8567 453.674 18.6758 455.894 20.714C457.467 22.1588 458.894 23.6846 460.98 24.536C462.231 25.0465 464.482 25.8178 465.79 25.0173C467.36 24.0557 466.991 20.2598 465.913 19.0578C465.197 18.259 464.607 17.3476 463.909 16.5239C463.048 15.5067 461.748 15.0769 460.78 14.1882C459.206 12.7431 457.78 11.6353 457.867 9.55935C457.911 8.50062 461.807 10.6779 462.214 10.8334C463.579 11.3558 465.317 11.4236 466.591 12.079C467.844 12.7232 468.931 13.8024 469.936 14.7261C470.788 15.508 471.955 16.2769 472.357 17.3449C472.671 18.1816 472.723 19.0464 473.251 19.808C473.802 20.6041 475.455 20.7681 476.457 20.714C477.457 20.6599 478.249 20.2044 479.355 20.2044C480.888 20.2044 482.779 19.9562 484.226 20.5158C485 20.8152 485.855 20.5305 486.6 20.8414C487.535 21.2315 488.76 21.4802 489.775 21.6765C490.865 21.8871 491.766 21.7552 492.843 22.1012C494.251 22.5539 495.92 22.4976 497.39 22.4976C499.335 22.4976 501.706 21.9506 501.706 19.6948C501.706 18.9512 501.683 18.0277 500.874 17.6564C499.949 17.2319 498.471 16.6363 497.483 16.439C495.796 16.1022 493.742 16.3823 492.026 16.3823C489.674 16.3823 487.317 16.4264 484.966 16.3823C483.027 16.346 480.853 15.6843 479.802 14.075C478.919 12.7231 480.44 11.9512 481.312 11.0457C483.409 8.86899 487.92 9.24793 490.7 9.24793C493.728 9.24793 496.515 9.07221 499.086 10.6776C501.672 12.2929 503.429 14.8499 505.159 17.1609C505.824 18.0485 506.009 19.6136 507.317 19.8929C508.29 20.1006 509.235 20.3493 510.154 20.714C511.28 21.1614 512.632 21.284 513.468 22.2286C513.997 22.8266 515.257 23.2244 515.518 23.9697C516.24 26.0325 513.652 27.6993 512.111 28.4854C510.735 29.1877 508.92 30.9663 508.92 32.4206C508.92 33.4912 508.933 34.4999 508.705 35.549C508.411 36.898 508.351 36.9907 507.101 37.5308C506.465 37.8058 505.984 37.7856 505.282 37.7856C503.76 37.7856 502.49 38.037 500.997 38.2386C497.825 38.6669 496.41 40.4462 494.924 42.7967C491.66 47.9583 488.746 53.194 484.565 57.8016C483.248 59.253 482.412 61.0116 481.174 62.473C480.66 63.0801 479.875 63.1299 479.077 62.9967C476.886 62.6308 474.482 62.4316 472.249 62.2606C469.624 62.0598 468.213 62.7506 467.023 64.936C465.837 67.115 460.919 64.8504 460.919 67.9795C460.919 69.2604 460.825 70.4552 460.657 71.6883C460.411 73.4926 458.56 73.0127 457.188 73.5851C455.659 74.2235 453.361 73.8654 452.04 74.7317C450.641 75.6491 449.093 76.135 448.155 77.6761C447.163 79.3064 445.263 80.4724 444.548 82.2342C444.069 83.4167 442.901 84.915 441.342 84.6548C440.064 84.4414 439.394 83.0048 438.999 82.0077C438.716 81.2933 438.348 80.8268 437.951 80.1675Z"/>
</mask>
<path d="M437.951 80.1675C437.671 79.7037 437.556 79.017 437.511 78.2527C437.474 77.6303 437.334 74.704 437.334 74.0806C437.334 73.3956 436.858 73.0004 436.224 72.6933C433.848 71.5417 431.806 71.023 429.134 70.5983C427.416 70.3254 425.454 70.1316 423.862 69.4941C421.937 68.7236 419.407 68.571 417.85 67.1726C416.362 65.8366 415.616 64.711 414.705 63.0392C414.136 61.9932 413.506 61.1053 412.778 60.1798C411.498 58.5517 409.354 57.1356 407.507 56.1029C405.46 54.9592 406.168 52.8822 408.139 52.3092C412.001 51.1861 417.005 48.8735 419.854 53.0595C421.569 55.5798 420.512 59.1132 422.675 61.4962C424.998 64.0563 432.249 64.2985 435.423 62.841C436.592 62.3041 437.596 61.6751 438.876 61.3547C439.82 61.118 440.741 60.9304 441.558 60.4062C442.839 59.5843 444.006 58.3448 445.165 57.3628C446.278 56.4194 450.344 52.8925 449.419 51.0352C448.715 49.6206 447.378 48.6568 445.812 47.9776C443.669 47.0483 441.774 47.779 441.774 45.0616C441.774 42.4979 447.418 42.255 449.265 41.9615C450.53 41.7605 451.682 41.2349 452.996 41.3811C453.95 41.4873 454.869 41.9033 455.801 42.1172C457.243 42.4483 458.797 42.6253 460.271 42.825L460.348 42.8354C462.767 43.1635 465.464 43.5292 464.742 40.3619C464.555 39.5429 463.298 38.1538 462.599 37.6724C461.251 36.7437 459.813 35.6332 458.853 34.36C457.877 33.0653 456.359 32.315 455.524 30.9201C454.867 29.8242 454.161 28.6049 453.366 27.5936C450.992 24.5751 447.068 23.3304 444.517 20.4025C442.65 18.2594 442.078 14.8292 444.41 12.6877C445.654 11.5446 446.703 11.7959 448.433 11.7959C450.124 11.7959 450.781 12.8452 451.269 14.1458C452.287 16.8567 453.674 18.6758 455.894 20.714C457.467 22.1588 458.894 23.6846 460.98 24.536C462.231 25.0465 464.482 25.8178 465.79 25.0173C467.36 24.0557 466.991 20.2598 465.913 19.0578C465.197 18.259 464.607 17.3476 463.909 16.5239C463.048 15.5067 461.748 15.0769 460.78 14.1882C459.206 12.7431 457.78 11.6353 457.867 9.55935C457.911 8.50062 461.807 10.6779 462.214 10.8334C463.579 11.3558 465.317 11.4236 466.591 12.079C467.844 12.7232 468.931 13.8024 469.936 14.7261C470.788 15.508 471.955 16.2769 472.357 17.3449C472.671 18.1816 472.723 19.0464 473.251 19.808C473.802 20.6041 475.455 20.7681 476.457 20.714C477.457 20.6599 478.249 20.2044 479.355 20.2044C480.888 20.2044 482.779 19.9562 484.226 20.5158C485 20.8152 485.855 20.5305 486.6 20.8414C487.535 21.2315 488.76 21.4802 489.775 21.6765C490.865 21.8871 491.766 21.7552 492.843 22.1012C494.251 22.5539 495.92 22.4976 497.39 22.4976C499.335 22.4976 501.706 21.9506 501.706 19.6948C501.706 18.9512 501.683 18.0277 500.874 17.6564C499.949 17.2319 498.471 16.6363 497.483 16.439C495.796 16.1022 493.742 16.3823 492.026 16.3823C489.674 16.3823 487.317 16.4264 484.966 16.3823C483.027 16.346 480.853 15.6843 479.802 14.075C478.919 12.7231 480.44 11.9512 481.312 11.0457C483.409 8.86899 487.92 9.24793 490.7 9.24793C493.728 9.24793 496.515 9.07221 499.086 10.6776C501.672 12.2929 503.429 14.8499 505.159 17.1609C505.824 18.0485 506.009 19.6136 507.317 19.8929C508.29 20.1006 509.235 20.3493 510.154 20.714C511.28 21.1614 512.632 21.284 513.468 22.2286C513.997 22.8266 515.257 23.2244 515.518 23.9697C516.24 26.0325 513.652 27.6993 512.111 28.4854C510.735 29.1877 508.92 30.9663 508.92 32.4206C508.92 33.4912 508.933 34.4999 508.705 35.549C508.411 36.898 508.351 36.9907 507.101 37.5308C506.465 37.8058 505.984 37.7856 505.282 37.7856C503.76 37.7856 502.49 38.037 500.997 38.2386C497.825 38.6669 496.41 40.4462 494.924 42.7967C491.66 47.9583 488.746 53.194 484.565 57.8016C483.248 59.253 482.412 61.0116 481.174 62.473C480.66 63.0801 479.875 63.1299 479.077 62.9967C476.886 62.6308 474.482 62.4316 472.249 62.2606C469.624 62.0598 468.213 62.7506 467.023 64.936C465.837 67.115 460.919 64.8504 460.919 67.9795C460.919 69.2604 460.825 70.4552 460.657 71.6883C460.411 73.4926 458.56 73.0127 457.188 73.5851C455.659 74.2235 453.361 73.8654 452.04 74.7317C450.641 75.6491 449.093 76.135 448.155 77.6761C447.163 79.3064 445.263 80.4724 444.548 82.2342C444.069 83.4167 442.901 84.915 441.342 84.6548C440.064 84.4414 439.394 83.0048 438.999 82.0077C438.716 81.2933 438.348 80.8268 437.951 80.1675Z" fill="white"/>
<path d="M437.511 78.2527L446.495 77.7191L446.495 77.7191L437.511 78.2527ZM437.951 80.1675L445.66 75.5234L445.66 75.5234L437.951 80.1675ZM438.999 82.0077L430.631 85.3212L430.631 85.3212L438.999 82.0077ZM441.342 84.6548L439.86 93.5319L439.86 93.5319L441.342 84.6548ZM444.548 82.2342L436.208 78.8508L436.208 78.8508L444.548 82.2342ZM448.155 77.6761L440.467 72.9975L440.467 72.9975L448.155 77.6761ZM452.04 74.7317L456.976 82.2572L456.976 82.2572L452.04 74.7317ZM457.188 73.5851L460.655 81.8906L460.655 81.8906L457.188 73.5851ZM460.657 71.6883L451.739 70.4744L451.739 70.4744L460.657 71.6883ZM467.023 64.936L459.119 60.6323L459.119 60.6323L467.023 64.936ZM472.249 62.2606L471.562 71.2344L471.562 71.2344L472.249 62.2606ZM479.077 62.9967L477.595 71.8738L477.595 71.8738L479.077 62.9967ZM481.174 62.473L488.042 68.2897L488.042 68.2897L481.174 62.473ZM484.565 57.8016L491.23 63.8497L491.23 63.8497L484.565 57.8016ZM494.924 42.7967L487.317 37.9868L487.317 37.9869L494.924 42.7967ZM500.997 38.2386L499.793 29.3196L499.793 29.3196L500.997 38.2386ZM507.101 37.5308L503.531 29.2692L503.531 29.2692L507.101 37.5308ZM508.705 35.549L499.911 33.6338L499.911 33.6338L508.705 35.549ZM512.111 28.4854L508.021 20.4684L508.021 20.4684L512.111 28.4854ZM515.518 23.9697L507.023 26.943L507.023 26.943L515.518 23.9697ZM513.468 22.2286L506.727 28.1924L506.727 28.1924L513.468 22.2286ZM510.154 20.714L506.832 29.0786L506.832 29.0786L510.154 20.714ZM507.317 19.8929L505.438 28.6945L507.317 19.8929ZM505.159 17.1609L512.364 11.7671L512.364 11.7671L505.159 17.1609ZM499.086 10.6776L503.853 3.04379L503.853 3.04379L499.086 10.6776ZM481.312 11.0457L474.831 4.80177L474.831 4.80177L481.312 11.0457ZM479.802 14.075L487.336 9.15226L487.336 9.15224L479.802 14.075ZM484.966 16.3823L485.134 7.38393L485.134 7.38393L484.966 16.3823ZM497.483 16.439L499.245 7.61313L499.245 7.61312L497.483 16.439ZM500.874 17.6564L504.629 9.47733L504.629 9.47733L500.874 17.6564ZM492.843 22.1012L495.597 13.5329L495.597 13.5329L492.843 22.1012ZM489.775 21.6765L491.484 12.8402L491.484 12.8402L489.775 21.6765ZM486.6 20.8414L490.067 12.5359L490.067 12.5359L486.6 20.8414ZM484.226 20.5158L480.98 28.9101L480.98 28.9101L484.226 20.5158ZM476.457 20.714L476.942 29.7009L476.942 29.7009L476.457 20.714ZM473.251 19.808L465.853 24.9342L465.853 24.9342L473.251 19.808ZM472.357 17.3449L480.782 14.1811L480.782 14.1811L472.357 17.3449ZM469.936 14.7261L463.849 21.3551L463.849 21.3551L469.936 14.7261ZM466.591 12.079L462.475 20.0827L462.475 20.0827L466.591 12.079ZM462.214 10.8334L458.997 19.239L458.997 19.239L462.214 10.8334ZM457.867 9.55935L448.875 9.18271L448.875 9.18274L457.867 9.55935ZM460.78 14.1882L466.868 7.55929L466.868 7.55929L460.78 14.1882ZM463.909 16.5239L457.041 22.3406L457.041 22.3406L463.909 16.5239ZM465.913 19.0578L459.213 25.0665L459.213 25.0665L465.913 19.0578ZM465.79 25.0173L461.091 17.3415L461.091 17.3415L465.79 25.0173ZM460.98 24.536L464.381 16.2033L464.381 16.2033L460.98 24.536ZM455.894 20.714L449.806 27.3429L449.806 27.3429L455.894 20.714ZM451.269 14.1458L459.695 10.982L459.695 10.982L451.269 14.1458ZM444.41 12.6877L450.497 19.3167L450.497 19.3167L444.41 12.6877ZM444.517 20.4025L437.731 26.3143L437.731 26.3143L444.517 20.4025ZM453.366 27.5936L446.291 33.1573L446.291 33.1573L453.366 27.5936ZM455.524 30.9201L463.245 26.2958L463.245 26.2958L455.524 30.9201ZM458.853 34.36L451.667 39.7778L451.667 39.7778L458.853 34.36ZM462.599 37.6724L467.704 30.2603L467.704 30.2603L462.599 37.6724ZM464.742 40.3619L455.967 42.3619L455.967 42.3619L464.742 40.3619ZM460.348 42.8354L461.558 33.9171L461.558 33.9171L460.348 42.8354ZM460.271 42.825L461.481 33.9066L461.48 33.9065L460.271 42.825ZM455.801 42.1172L457.815 33.3454L457.815 33.3454L455.801 42.1172ZM452.996 41.3811L453.991 32.4364L453.991 32.4364L452.996 41.3811ZM449.265 41.9615L447.853 33.0731L447.852 33.0731L449.265 41.9615ZM445.812 47.9776L449.393 39.7206L449.393 39.7206L445.812 47.9776ZM449.419 51.0352L441.362 55.046L441.362 55.046L449.419 51.0352ZM445.165 57.3628L439.345 50.4975L439.345 50.4975L445.165 57.3628ZM441.558 60.4062L446.417 67.982L446.417 67.982L441.558 60.4062ZM438.876 61.3547L441.062 70.085L441.062 70.085L438.876 61.3547ZM435.423 62.841L439.178 71.02L439.178 71.02L435.423 62.841ZM422.675 61.4962L429.34 55.4481L429.34 55.4481L422.675 61.4962ZM419.854 53.0595L412.414 58.1233L412.414 58.1233L419.854 53.0595ZM408.139 52.3092L405.626 43.6672L405.626 43.6672L408.139 52.3092ZM407.507 56.1029L411.898 48.247L411.898 48.247L407.507 56.1029ZM412.778 60.1798L405.704 65.7434L405.704 65.7434L412.778 60.1798ZM414.705 63.0392L422.61 58.7355L422.61 58.7355L414.705 63.0392ZM417.85 67.1726L423.863 60.476L423.863 60.476L417.85 67.1726ZM423.862 69.4941L427.206 61.1387L427.206 61.1387L423.862 69.4941ZM429.134 70.5983L427.721 79.4867L427.721 79.4867L429.134 70.5983ZM436.224 72.6933L440.15 64.5944L440.15 64.5944L436.224 72.6933ZM428.527 78.7863C428.58 79.6805 428.74 82.3189 430.242 84.8116L445.66 75.5234C446.216 76.4461 446.395 77.2076 446.445 77.4461C446.504 77.7232 446.503 77.8489 446.495 77.7191L428.527 78.7863ZM430.242 84.8115C430.412 85.0945 430.569 85.3396 430.669 85.4955C430.727 85.5849 430.758 85.6331 430.792 85.6878C430.823 85.7361 430.839 85.7621 430.848 85.7761C430.864 85.8022 430.836 85.7576 430.79 85.6702C430.742 85.5771 430.685 85.458 430.631 85.3212L447.367 78.6942C446.967 77.6852 446.523 76.9049 446.187 76.3577C446.039 76.1165 445.886 75.8794 445.815 75.7698C445.726 75.6306 445.688 75.57 445.66 75.5234L430.242 84.8115ZM430.631 85.3212C430.88 85.9492 431.492 87.4713 432.598 88.9691C433.716 90.4839 436.027 92.8919 439.86 93.5319L442.824 75.7777C445.379 76.2043 446.717 77.7874 447.081 78.2812C447.433 78.7581 447.513 79.0633 447.367 78.6942L430.631 85.3212ZM439.86 93.5319C444.148 94.2478 447.477 92.3719 449.355 90.6887C451.147 89.0832 452.26 87.1661 452.888 85.6175L436.208 78.8508C436.357 78.4848 436.646 77.9082 437.344 77.2823C438.129 76.5789 440.095 75.322 442.824 75.7777L439.86 93.5319ZM452.888 85.6175C452.676 86.1399 452.448 86.4427 452.408 86.4942C452.386 86.524 452.435 86.4561 452.733 86.1458C452.924 85.9479 453.503 85.3613 453.969 84.8423C454.49 84.2623 455.195 83.4215 455.844 82.3547L440.467 72.9975C440.62 72.7458 440.715 72.6622 440.578 72.8143C440.387 73.0275 440.26 73.1482 439.762 73.6659C439.095 74.3597 437.287 76.1928 436.208 78.8508L452.888 85.6175ZM455.844 82.3547C455.602 82.752 455.324 83.0695 455.074 83.3002C454.845 83.5128 454.687 83.607 454.73 83.58C454.751 83.5667 454.803 83.5349 454.911 83.4728C455.031 83.4043 455.149 83.3391 455.356 83.2238C455.706 83.0285 456.324 82.6848 456.976 82.2572L447.104 67.2062C447.056 67.2373 446.956 67.2984 446.594 67.5003C446.316 67.6553 445.715 67.9844 445.12 68.3601C443.804 69.1907 441.929 70.5958 440.467 72.9975L455.844 82.3547ZM456.976 82.2572C456.098 82.8331 455.371 83.0091 455.213 83.0458C455.062 83.0807 455.049 83.0689 455.484 83.0229C455.741 82.9956 456.567 82.9193 457.299 82.8061C458.078 82.6857 459.315 82.4499 460.655 81.8906L453.722 65.2796C454.297 65.0395 454.673 64.9983 454.55 65.0174C454.38 65.0437 454.262 65.0516 453.588 65.123C453.092 65.1755 452.162 65.2765 451.16 65.5079C450.151 65.741 448.642 66.1971 447.104 67.2062L456.976 82.2572ZM460.655 81.8906C460.008 82.1609 459.536 82.2161 459.8 82.1706C459.85 82.1621 459.902 82.1535 460.007 82.1364C460.096 82.1217 460.234 82.0992 460.379 82.0736C460.662 82.0241 461.129 81.9373 461.661 81.7954C462.667 81.5275 464.612 80.8886 466.397 79.1955C468.359 77.3349 469.286 75.0214 469.574 72.9021L451.739 70.4744C451.905 69.2573 452.508 67.5604 454.011 66.1351C455.337 64.8774 456.687 64.4927 457.028 64.4019C457.228 64.3485 457.345 64.331 457.268 64.3446C457.234 64.3505 457.189 64.3581 457.095 64.3734C457.016 64.3864 456.884 64.408 456.748 64.4313C456.272 64.5132 455.055 64.7231 453.722 65.2796L460.655 81.8906ZM469.574 72.9021C469.789 71.3271 469.919 69.723 469.919 67.9795H451.919C451.919 68.7978 451.86 69.5834 451.739 70.4744L469.574 72.9021ZM469.919 67.9795C469.919 68.7687 469.758 70.0701 468.966 71.4712C468.147 72.9186 467.005 73.8511 466.018 74.3901C465.131 74.8738 464.413 75.0207 464.209 75.0594C463.99 75.1007 463.905 75.0971 464.16 75.0791C464.282 75.0704 464.394 75.064 464.606 75.0508C464.79 75.0393 465.043 75.0232 465.314 75.0007C465.83 74.9579 466.65 74.8749 467.567 74.6661C469.351 74.2599 472.855 73.0453 474.927 69.2397L459.119 60.6323C460.598 57.9162 463.042 57.2357 463.57 57.1155C463.83 57.0563 464.22 57.03 462.892 57.1238C462.458 57.1545 461.703 57.2144 460.866 57.3725C460.044 57.5279 458.76 57.8449 457.394 58.5905C455.927 59.3913 454.391 60.6772 453.299 62.6082C452.233 64.4929 451.919 66.408 451.919 67.9795H469.919ZM474.927 69.2398C475.007 69.0941 474.521 70.0443 473.169 70.7301C471.922 71.3626 471.046 71.1949 471.562 71.2344L472.935 53.2869C470.827 53.1255 467.933 53.2029 465.027 54.6768C462.016 56.2042 460.229 58.5925 459.119 60.6323L474.927 69.2398ZM471.562 71.2344C473.821 71.4073 475.851 71.5826 477.595 71.8738L480.56 54.1196C477.921 53.6791 475.143 53.4558 472.935 53.2869L471.562 71.2344ZM477.595 71.8738C479.136 72.1311 484.29 72.719 488.042 68.2897L474.306 56.6563C475.562 55.1732 477.164 54.4466 478.474 54.1857C479.601 53.9615 480.406 54.094 480.56 54.1196L477.595 71.8738ZM488.042 68.2897C489.089 67.0533 489.93 65.7321 490.36 65.078C490.904 64.2502 491.099 63.9945 491.23 63.8497L477.9 51.7535C476.714 53.0601 475.832 54.4094 475.32 55.189C474.693 56.1425 474.497 56.4313 474.306 56.6563L488.042 68.2897ZM491.23 63.8497C496.098 58.4852 499.621 52.2083 502.531 47.6065L487.317 37.9869C483.699 43.7083 481.395 47.9028 477.9 51.7535L491.23 63.8497ZM502.531 47.6065C502.683 47.365 502.808 47.1736 502.917 47.0138C503.025 46.8551 503.105 46.7461 503.163 46.6717C503.28 46.5216 503.271 46.5583 503.142 46.667C503.076 46.723 502.986 46.7912 502.875 46.8614C502.763 46.932 502.647 46.9937 502.531 47.0443C502.289 47.1503 502.151 47.1644 502.202 47.1576L499.793 29.3196C496.572 29.7544 493.81 30.9838 491.514 32.9267C489.455 34.6697 488.119 36.7179 487.317 37.9868L502.531 47.6065ZM502.202 47.1576C504.306 46.8734 504.561 46.7856 505.282 46.7856V28.7856C502.96 28.7856 500.674 29.2006 499.793 29.3196L502.202 47.1576ZM505.282 46.7856C505.65 46.7856 508.043 46.9281 510.672 45.7924L503.531 29.2692C503.798 29.1541 504.104 29.0464 504.443 28.9609C504.78 28.8757 505.076 28.831 505.303 28.8078C505.513 28.7863 505.649 28.7853 505.632 28.7856C505.572 28.7865 505.556 28.7856 505.282 28.7856V46.7856ZM510.672 45.7924C510.71 45.7757 513.402 44.8207 515.284 42.4718C516.319 41.1805 516.818 39.9043 517.075 39.1036C517.297 38.412 517.443 37.7208 517.498 37.4642L499.911 33.6338C499.82 34.0517 499.848 33.878 499.937 33.6C500.061 33.2131 500.412 32.2467 501.239 31.2147C502.079 30.1664 502.971 29.5972 503.389 29.3593C503.694 29.1863 503.894 29.1124 503.531 29.2692L510.672 45.7924ZM517.498 37.4642C517.973 35.2857 517.92 33.244 517.92 32.4206H499.92C499.92 32.7256 499.921 32.924 499.919 33.1316C499.917 33.3243 499.914 33.4546 499.909 33.5515C499.9 33.7382 499.889 33.7329 499.911 33.6338L517.498 37.4642ZM517.92 32.4206C517.92 33.8815 517.484 34.8987 517.271 35.3239C517.039 35.7866 516.827 36.0359 516.769 36.1012C516.697 36.1835 516.652 36.2215 516.622 36.2454C516.603 36.2606 516.475 36.3624 516.201 36.5023L508.021 20.4684C506.224 21.3854 504.537 22.748 503.23 24.2408C502.175 25.4447 499.92 28.3563 499.92 32.4206H517.92ZM516.201 36.5023C517.262 35.9612 519.341 34.8112 521.125 32.9713C522.85 31.1913 526.036 26.7776 524.013 20.9965L507.023 26.943C506.46 25.3354 506.568 23.693 507.039 22.3857C507.446 21.2548 508.027 20.6217 508.202 20.4413C508.487 20.147 508.501 20.2234 508.021 20.4684L516.201 36.5023ZM524.013 20.9965C523.287 18.9238 522.047 17.5789 521.286 16.8723C520.525 16.166 519.784 15.6826 519.478 15.4846C519.314 15.3789 519.127 15.2621 519.074 15.2286C518.982 15.1711 518.985 15.172 519.018 15.194C519.052 15.2172 519.188 15.3098 519.373 15.46C519.555 15.6077 519.863 15.8744 520.208 16.2648L506.727 28.1924C507.205 28.7323 507.668 29.1423 508.021 29.4291C508.377 29.7185 508.7 29.9461 508.931 30.1023C509.16 30.2574 509.369 30.3893 509.487 30.4631C509.642 30.5608 509.666 30.5753 509.709 30.6033C509.735 30.6203 509.676 30.5833 509.577 30.5102C509.478 30.4378 509.28 30.2876 509.038 30.0625C508.796 29.8382 508.449 29.4838 508.091 28.9888C507.726 28.4858 507.325 27.8044 507.023 26.943L524.013 20.9965ZM520.208 16.2649C518.288 14.0945 516.033 13.1902 514.9 12.7925C514.354 12.6009 513.781 12.4358 513.608 12.3838C513.321 12.2981 513.357 12.3026 513.475 12.3494L506.832 29.0786C507.19 29.2207 507.515 29.3336 507.781 29.4207C508.043 29.5065 508.282 29.5789 508.451 29.6293C508.656 29.6907 508.729 29.7119 508.84 29.7458C508.927 29.7726 508.95 29.7809 508.94 29.7772C508.932 29.7743 508.648 29.6772 508.253 29.4487C507.829 29.2039 507.269 28.8043 506.727 28.1924L520.208 16.2649ZM513.475 12.3494C511.905 11.7256 510.419 11.3523 509.197 11.0914L505.438 28.6945C506.161 28.8489 506.566 28.973 506.832 29.0786L513.475 12.3494ZM509.197 11.0914C510.636 11.3988 511.832 12.1096 512.7 12.9286C513.461 13.6468 513.827 14.315 513.898 14.4459C513.944 14.53 513.959 14.5665 513.922 14.4884C513.904 14.4499 513.885 14.4082 513.849 14.3307C513.817 14.2633 513.77 14.1626 513.72 14.0564C513.556 13.7131 513.103 12.7544 512.364 11.7671L497.954 22.5547C497.548 22.0113 497.366 21.581 497.466 21.7896C497.481 21.8213 497.499 21.86 497.533 21.9325C497.562 21.995 497.608 22.0936 497.656 22.1951C497.751 22.3969 497.903 22.7114 498.095 23.0641C498.823 24.3983 500.915 27.7286 505.438 28.6945L509.197 11.0914ZM512.364 11.7671C511.051 10.0133 508.202 5.75945 503.853 3.04379L494.319 18.3115C495.143 18.8264 495.807 19.6866 497.954 22.5547L512.364 11.7671ZM503.853 3.04379C498.605 -0.233412 492.726 0.24793 490.7 0.24793V18.2479C491.657 18.2479 492.143 18.2369 492.819 18.2449C493.402 18.2518 493.782 18.2733 494.06 18.3046C494.543 18.3588 494.487 18.4165 494.319 18.3115L503.853 3.04379ZM490.7 0.24793C489.964 0.24793 487.18 0.137722 484.836 0.377086C482.609 0.604472 478.192 1.31289 474.831 4.80177L487.794 17.2896C487.098 18.012 486.446 18.2702 486.287 18.3266C486.142 18.3782 486.223 18.329 486.664 18.284C487.086 18.241 487.624 18.2214 488.339 18.2227C488.692 18.2233 489.045 18.2286 489.445 18.2348C489.819 18.2406 490.269 18.2479 490.7 18.2479V0.24793ZM474.831 4.80177C474.952 4.67614 475.113 4.53801 474.646 4.94763C474.397 5.16651 473.603 5.85334 472.863 6.78038C472.094 7.74439 470.9 9.55353 470.602 12.1222C470.282 14.8847 471.135 17.2643 472.267 18.9977L487.336 9.15224C488.027 10.2097 488.739 11.9858 488.483 14.1951C488.249 16.2105 487.324 17.5166 486.934 18.0055C486.574 18.4574 486.268 18.697 486.522 18.4742C486.559 18.4422 487.237 17.868 487.794 17.2896L474.831 4.80177ZM472.267 18.9977C475.741 24.3148 481.704 25.3228 484.797 25.3808L485.134 7.38393C485.055 7.38243 485.146 7.36184 485.427 7.4757C485.708 7.58946 486.596 8.01923 487.336 9.15226L472.267 18.9977ZM484.797 25.3808C487.247 25.4267 489.913 25.3823 492.026 25.3823V7.38235C489.435 7.38235 487.387 7.42615 485.134 7.38393L484.797 25.3808ZM492.026 25.3823C492.675 25.3823 493.299 25.3562 493.776 25.3345C494.314 25.3099 494.658 25.2916 495.033 25.2804C495.818 25.257 495.916 25.3038 495.721 25.2648L499.245 7.61312C497.362 7.2374 495.59 7.25585 494.498 7.28837C492.899 7.33593 492.807 7.38235 492.026 7.38235V25.3823ZM495.721 25.2648C495.57 25.2347 495.534 25.218 495.643 25.2518C495.736 25.2806 495.878 25.3283 496.062 25.3969C496.439 25.5373 496.834 25.7047 497.118 25.8354L504.629 9.47733C503.621 9.01448 501.334 8.03022 499.245 7.61313L495.721 25.2648ZM497.118 25.8354C495.985 25.3149 494.984 24.5165 494.217 23.5215C493.487 22.575 493.127 21.6586 492.947 21.0348C492.65 20.0077 492.706 19.1934 492.706 19.6948H510.706C510.706 19.4526 510.75 17.8048 510.239 16.0372C509.616 13.8793 508.023 11.0356 504.629 9.47733L497.118 25.8354ZM492.706 19.6948C492.706 18.5891 493.028 17.2414 493.883 15.9941C494.687 14.8221 495.647 14.1956 496.247 13.8951C497.234 13.4005 497.787 13.4976 497.39 13.4976V31.4976C498.938 31.4976 501.648 31.3212 504.308 29.9892C505.744 29.2699 507.418 28.0837 508.727 26.1747C510.088 24.1904 510.706 21.9284 510.706 19.6948H492.706ZM497.39 13.4976C497.186 13.4976 496.973 13.4986 496.799 13.4992C496.615 13.4998 496.453 13.5001 496.299 13.4994C495.988 13.4979 495.763 13.4923 495.585 13.4826C495.181 13.4605 495.268 13.4273 495.597 13.5329L490.089 30.6695C493.177 31.6619 496.601 31.4976 497.39 31.4976V13.4976ZM495.597 13.5329C494.019 13.026 492.667 12.9134 491.976 12.8625C491.116 12.7991 491.359 12.8161 491.484 12.8402L488.067 30.5129C488.739 30.6428 489.324 30.7084 489.765 30.7477C489.981 30.7669 490.177 30.7809 490.32 30.7908C490.494 30.8028 490.554 30.8065 490.652 30.8137C490.953 30.836 490.59 30.8305 490.089 30.6695L495.597 13.5329ZM491.484 12.8402C490.987 12.7441 490.62 12.6694 490.31 12.5928C490.163 12.5567 490.067 12.5293 490.012 12.5122C489.953 12.494 489.979 12.4991 490.067 12.5359L483.133 29.1468C485.065 29.9531 487.215 30.3483 488.067 30.5129L491.484 12.8402ZM490.067 12.5359C488.859 12.0317 487.771 11.8395 487.009 11.7556C486.309 11.6785 485.678 11.6768 485.538 11.675C485.252 11.6714 485.458 11.668 485.723 11.6948C486.051 11.7279 486.694 11.8208 487.472 12.1214L480.98 28.9101C482.145 29.3604 483.185 29.53 483.914 29.6037C484.581 29.671 485.192 29.6721 485.31 29.6735C485.573 29.6769 485.344 29.681 485.038 29.6473C484.67 29.6068 483.969 29.4956 483.133 29.1468L490.067 12.5359ZM487.472 12.1214C485.224 11.2523 483.093 11.1617 481.907 11.1506C481.262 11.1446 480.655 11.1655 480.245 11.1798C479.764 11.1966 479.544 11.2044 479.355 11.2044V29.2044C479.933 29.2044 480.523 29.1811 480.874 29.1688C481.295 29.1541 481.538 29.1479 481.738 29.1498C481.931 29.1516 481.945 29.161 481.849 29.1478C481.752 29.1345 481.429 29.0837 480.98 28.9101L487.472 12.1214ZM479.355 11.2044C477.563 11.2044 476.131 11.5899 475.589 11.7318C475.23 11.8257 475.261 11.8175 475.27 11.8157C475.344 11.7997 475.603 11.747 475.971 11.7271L476.942 29.7009C477.811 29.6539 478.544 29.524 479.082 29.4074C479.555 29.3049 480.041 29.1727 480.144 29.146C480.524 29.0466 480.041 29.2044 479.355 29.2044V11.2044ZM475.971 11.7271C476.09 11.7207 476.265 11.712 476.62 11.7903C476.812 11.8326 477.3 11.9533 477.93 12.2741C478.536 12.5831 479.681 13.2863 480.648 14.6818L465.853 24.9342C468.164 28.2694 471.654 29.1281 472.75 29.3693C474.32 29.7151 475.822 29.7614 476.942 29.7009L475.971 11.7271ZM480.648 14.6818C480.937 15.0988 481.123 15.4778 481.238 15.7524C481.345 16.0085 481.39 16.1777 481.38 16.1433C481.376 16.1267 481.366 16.0915 481.341 15.9958C481.322 15.9237 481.28 15.7626 481.239 15.6127C481.153 15.2973 481.005 14.7759 480.782 14.1811L463.931 20.5087C463.865 20.3323 463.841 20.2327 463.87 20.3386C463.887 20.3993 463.9 20.4486 463.936 20.5864C463.966 20.7006 464.012 20.8745 464.067 21.0659C464.281 21.8202 464.751 23.344 465.853 24.9342L480.648 14.6818ZM480.782 14.1811C479.856 11.7137 478.267 10.1137 477.494 9.3844C477.066 8.98029 476.652 8.63087 476.422 8.43706C476.284 8.32033 476.206 8.25546 476.127 8.1877C476.093 8.15813 476.068 8.1365 476.05 8.1206C476.041 8.11285 476.035 8.10707 476.03 8.10307C476.026 8.09906 476.024 8.09716 476.024 8.09719L463.849 21.3551C464.058 21.5471 464.253 21.7169 464.409 21.851C464.559 21.9791 464.716 22.111 464.813 22.1929C464.926 22.2885 464.998 22.3498 465.057 22.4016C465.085 22.4256 465.105 22.4431 465.118 22.4554C465.132 22.4676 465.137 22.4728 465.137 22.4721C465.136 22.4713 465.127 22.4628 465.111 22.4474C465.096 22.4319 465.072 22.4078 465.042 22.3754C464.984 22.3124 464.89 22.2065 464.778 22.0593C464.557 21.7711 464.21 21.2527 463.931 20.5088L480.782 14.1811ZM476.024 8.09721C475.498 7.61473 473.321 5.41939 470.707 4.07536L462.475 20.0827C462.265 19.9742 462.269 19.9379 462.564 20.1862C462.7 20.3001 462.862 20.4441 463.082 20.6458C463.191 20.7463 463.303 20.85 463.433 20.9708C463.557 21.0858 463.703 21.2207 463.849 21.3551L476.024 8.09721ZM470.707 4.07536C468.88 3.13578 467.032 2.7586 466.327 2.60702C465.803 2.49448 465.631 2.46141 465.397 2.40533C465.211 2.36048 465.262 2.36354 465.43 2.42767L458.997 19.239C459.848 19.5644 460.629 19.7719 461.192 19.9072C461.708 20.0312 462.306 20.1541 462.547 20.2057C462.708 20.2403 462.818 20.2651 462.905 20.2859C462.946 20.2957 462.976 20.3034 462.997 20.3089C463.018 20.3144 463.027 20.3172 463.027 20.3171C463.027 20.317 463.014 20.3134 462.992 20.3059C462.969 20.2984 462.934 20.2863 462.889 20.2689C462.799 20.2349 462.656 20.1755 462.475 20.0827L470.707 4.07536ZM465.43 2.42767C465.884 2.6014 466.249 2.79604 465.919 2.63169C465.871 2.60806 465.547 2.44537 465.362 2.35394C464.892 2.12112 464.162 1.76671 463.38 1.4393C462.788 1.19118 461.414 0.629322 459.865 0.392921C459.259 0.30046 457.227 0.00764775 454.913 0.867903C453.569 1.36766 451.946 2.33056 450.673 4.0588C449.39 5.79929 448.938 7.67076 448.875 9.18271L466.859 9.936C466.801 11.3156 466.384 13.08 465.164 14.7362C463.953 16.3801 462.418 17.2813 461.186 17.7396C459.095 18.5169 457.378 18.2217 457.15 18.1869C456.356 18.0658 455.991 17.8595 456.429 18.0428C456.677 18.1468 457.001 18.2997 457.377 18.4858C457.615 18.6038 457.662 18.6284 457.905 18.7495C457.988 18.7904 458.106 18.8489 458.228 18.9072C458.278 18.9309 458.604 19.0887 458.997 19.239L465.43 2.42767ZM448.875 9.18274C448.576 16.3201 454.297 20.4541 454.693 20.8172L466.868 7.55929C466.66 7.36858 466.4 7.13401 466.262 7.00757C466.089 6.85034 465.973 6.74255 465.881 6.65452C465.683 6.46447 465.74 6.4984 465.878 6.68034C466.038 6.89172 466.332 7.33369 466.561 7.98774C466.799 8.67055 466.883 9.34876 466.859 9.93596L448.875 9.18274ZM454.693 20.8172C455.398 21.4648 456.071 21.9448 456.56 22.2708C456.983 22.5531 457.502 22.8697 457.618 22.9419C457.841 23.0815 457.82 23.0763 457.729 23.0064C457.616 22.92 457.347 22.7014 457.041 22.3406L470.777 10.7072C469.36 9.03472 467.748 8.04674 467.151 7.67375C466.713 7.40027 466.672 7.37922 466.552 7.29927C466.498 7.26289 466.646 7.35598 466.868 7.55929L454.693 20.8172ZM457.041 22.3406C457.184 22.5085 457.325 22.6964 457.714 23.2135C458.036 23.6404 458.569 24.3485 459.213 25.0665L472.614 13.049C472.541 12.9682 472.421 12.8213 472.094 12.3869C471.835 12.0426 471.332 11.3629 470.777 10.7072L457.041 22.3406ZM459.213 25.0665C458.246 23.9885 457.979 23.0477 457.948 22.9424C457.871 22.6861 457.851 22.5094 457.848 22.3546C457.845 22.2383 457.837 21.7492 458.082 21.0119C458.31 20.3276 459.05 18.5907 461.091 17.3415L470.489 32.693C473.315 30.963 474.598 28.3911 475.164 26.6871C475.748 24.93 475.876 23.2365 475.842 21.9008C475.807 20.5266 475.591 19.1154 475.191 17.7792C474.836 16.5941 474.119 14.728 472.614 13.049L459.213 25.0665ZM461.091 17.3415C462.298 16.6022 463.393 16.4233 463.963 16.3788C464.532 16.3345 464.888 16.3981 464.936 16.4067C464.994 16.4169 464.813 16.3796 464.381 16.2033L457.58 32.8687C458.399 33.2029 459.969 33.8065 461.792 34.1299C463.265 34.3913 466.939 34.8661 470.489 32.693L461.091 17.3415ZM464.381 16.2033C464.439 16.2268 464.337 16.2045 463.955 15.8913C463.754 15.7259 463.515 15.5142 463.179 15.2019C463.009 15.0443 462.841 14.8865 462.635 14.6936C462.439 14.5099 462.215 14.3002 461.981 14.085L449.806 27.3429C450.699 28.1631 453.597 31.2432 457.58 32.8687L464.381 16.2033ZM461.981 14.085C460.53 12.7524 460.101 12.0631 459.695 10.982L442.844 17.3096C444.474 21.6504 446.818 24.5992 449.806 27.3429L461.981 14.085ZM459.695 10.982C459.339 10.036 458.49 7.89279 456.579 6.03298C454.307 3.82289 451.398 2.79594 448.433 2.79594V20.7959C447.915 20.7959 447.15 20.7129 446.276 20.3748C445.379 20.0281 444.619 19.5107 444.025 18.9333C442.988 17.9233 442.71 16.955 442.844 17.3096L459.695 10.982ZM448.433 2.79594C448.049 2.79594 448.081 2.78653 447.392 2.77565C446.927 2.76831 446.079 2.76191 445.112 2.88407C442.699 3.18876 440.373 4.17586 438.322 6.05879L450.497 19.3167C450.207 19.5828 449.729 19.9469 449.059 20.2527C448.384 20.5612 447.776 20.6906 447.367 20.7422C447.033 20.7844 446.85 20.7693 447.107 20.7734C447.242 20.7755 447.344 20.7788 447.602 20.7849C447.823 20.7901 448.111 20.7959 448.433 20.7959V2.79594ZM438.322 6.05879C431.047 12.7399 434.017 22.0507 437.731 26.3143L451.304 14.4908C451.554 14.778 451.826 15.233 451.872 15.9958C451.898 16.422 451.852 16.9996 451.611 17.6438C451.362 18.3126 450.961 18.8902 450.497 19.3167L438.322 6.05879ZM437.731 26.3143C439.965 28.8782 442.708 30.5893 444.048 31.4738C445.769 32.6106 446.131 32.953 446.291 33.1573L460.44 22.0299C458.226 19.2156 455.44 17.4264 453.968 16.4543C452.114 15.2299 451.621 14.8547 451.304 14.4908L437.731 26.3143ZM446.291 33.1573C446.646 33.6079 447.009 34.2197 447.803 35.5445L463.245 26.2958C462.725 25.4288 461.676 23.6018 460.44 22.0299L446.291 33.1573ZM447.803 35.5445C449.039 37.6082 450.649 38.9667 451.25 39.4866C451.675 39.8536 451.765 39.9279 451.885 40.0399C451.956 40.1066 451.839 40.0069 451.667 39.7778L466.04 28.9421C465.379 28.0657 464.707 27.3867 464.192 26.905C463.727 26.4687 463.202 26.0254 463.021 25.8686C462.411 25.341 462.844 25.6269 463.245 26.2958L447.803 35.5445ZM451.667 39.7778C453.555 42.2828 456.027 44.0743 457.494 45.0845L467.704 30.2603C467.163 29.8875 466.744 29.5732 466.422 29.2991C466.088 29.0141 466.001 28.8912 466.04 28.9421L451.667 39.7778ZM457.494 45.0845C457.284 44.9399 457.145 44.8259 457.084 44.7744C457.015 44.7164 456.976 44.6789 456.963 44.6666C456.948 44.6527 456.945 44.6482 456.948 44.6516C456.951 44.6547 456.952 44.6562 456.949 44.6529C456.947 44.6503 456.931 44.6316 456.904 44.5941C456.878 44.5587 456.824 44.4829 456.753 44.3667C456.685 44.2567 456.568 44.0551 456.439 43.7713C456.317 43.5051 456.117 43.0204 455.967 42.3619L473.517 38.362C473.154 36.7714 472.469 35.5627 472.1 34.961C471.661 34.2454 471.188 33.6232 470.776 33.1282C470.051 32.2588 468.967 31.1304 467.704 30.2603L457.494 45.0845ZM455.967 42.3619C455.934 42.2168 455.534 40.4935 456.541 38.3315C457.726 35.7859 459.867 34.6664 461.158 34.2827C462.19 33.9757 462.867 34.0578 462.635 34.0455C462.487 34.0376 462.241 34.0098 461.558 33.9171L459.139 51.7538C459.665 51.8251 460.663 51.966 461.679 52.0201C462.61 52.0696 464.369 52.1067 466.288 51.5362C468.464 50.889 471.295 49.2876 472.859 45.93C474.244 42.956 473.911 40.0907 473.517 38.3619L455.967 42.3619ZM461.558 33.9171L461.481 33.9066L459.062 51.7434L459.139 51.7538L461.558 33.9171ZM461.48 33.9065C459.713 33.6671 458.741 33.558 457.815 33.3454L453.787 50.889C455.746 51.3387 457.881 51.5834 459.063 51.7435L461.48 33.9065ZM457.815 33.3454C457.874 33.359 457.867 33.3604 457.727 33.3177C457.659 33.2969 457.581 33.2725 457.466 33.2362C457.364 33.2038 457.215 33.1566 457.066 33.1106C456.515 32.9403 455.365 32.5892 453.991 32.4364L452 50.3259C451.76 50.2992 451.606 50.2627 451.574 50.2548C451.548 50.2486 451.582 50.2557 451.748 50.307C451.831 50.3329 451.915 50.3594 452.045 50.4004C452.162 50.4375 452.317 50.4862 452.48 50.5361C452.805 50.6349 453.262 50.7685 453.787 50.889L457.815 33.3454ZM453.991 32.4364C451.861 32.1992 450.098 32.5429 449.124 32.7635C448.723 32.8544 448.153 33.0001 448.05 33.0252C447.821 33.0816 447.797 33.0819 447.853 33.0731L450.678 50.8499C451.366 50.7406 451.961 50.5998 452.344 50.5057C452.514 50.4638 452.74 50.4067 452.835 50.3829C452.967 50.35 453.044 50.3315 453.1 50.3188C453.347 50.2628 452.817 50.4169 452 50.3259L453.991 32.4364ZM447.852 33.0731C448.188 33.0197 444.693 33.4074 442.607 33.9382C441.407 34.2438 439.418 34.8466 437.548 36.1467C435.49 37.5768 432.774 40.5062 432.774 45.0616H450.774C450.774 46.4969 450.35 47.8571 449.65 48.9765C449.002 50.0139 448.258 50.6235 447.821 50.9271C447.067 51.4515 446.605 51.4945 447.046 51.3822C447.355 51.3038 447.823 51.2203 448.493 51.1319C448.821 51.0886 449.123 51.0533 449.486 51.0097C449.789 50.9733 450.249 50.918 450.678 50.8499L447.852 33.0731ZM432.774 45.0616C432.774 46.6662 433.034 49.0704 434.535 51.4037C436.155 53.9201 438.391 55.0876 439.879 55.6357C440.57 55.8902 441.183 56.0426 441.548 56.1277C441.83 56.1935 442.321 56.297 442.357 56.3048C442.685 56.3766 442.517 56.3583 442.232 56.2347L449.393 39.7206C448.036 39.1323 446.827 38.8569 446.198 38.7194C445.754 38.6226 445.787 38.6333 445.638 38.5985C445.571 38.5829 445.779 38.6267 446.099 38.7446C446.846 39.0195 448.474 39.8021 449.671 41.6622C450.751 43.3392 450.774 44.8156 450.774 45.0616H432.774ZM442.232 56.2347C442.473 56.3395 442.438 56.3573 442.26 56.2125C442.058 56.048 441.675 55.6735 441.362 55.046L457.476 47.0245C455.439 42.932 451.92 40.8164 449.393 39.7206L442.232 56.2347ZM441.362 55.046C440.6 53.5148 440.489 52.0458 440.584 50.9939C440.673 50.0081 440.942 49.3239 441.072 49.031C441.305 48.504 441.469 48.3924 441.18 48.7355C440.66 49.351 439.863 50.0583 439.345 50.4975L450.984 64.2281C451.579 63.7239 453.372 62.1961 454.933 60.348C455.683 59.4592 456.76 58.0587 457.531 56.3186C458.21 54.7847 459.485 51.0594 457.476 47.0245L441.362 55.046ZM439.345 50.4975C438.923 50.8552 438.533 51.209 438.222 51.4931C437.871 51.814 437.656 52.0135 437.397 52.2453C437.162 52.4562 436.994 52.5999 436.864 52.7048C436.734 52.8091 436.684 52.8403 436.699 52.8305L446.417 67.982C447.684 67.1691 448.73 66.2604 449.418 65.6438C450.33 64.8252 450.506 64.6334 450.984 64.2281L439.345 50.4975ZM436.699 52.8305C437.178 52.5233 437.544 52.4093 437.558 52.405C437.563 52.4035 437.551 52.4073 437.517 52.4168C437.482 52.4265 437.432 52.4398 437.357 52.4588C437.281 52.4782 437.196 52.4993 437.08 52.5276C436.975 52.5534 436.832 52.5886 436.689 52.6243L441.062 70.085C441.373 70.0072 444.058 69.4945 446.417 67.982L436.699 52.8305ZM436.689 52.6243C435.237 52.988 434.065 53.4988 433.249 53.8859C431.786 54.5802 432.565 54.2498 431.667 54.662L439.178 71.02C439.62 70.8171 440.02 70.6177 440.305 70.4749C440.628 70.3133 440.796 70.2284 440.967 70.1474C441.265 70.0057 441.235 70.0418 441.062 70.085L436.689 52.6243ZM431.667 54.662C431.88 54.5645 431.961 54.554 431.856 54.5804C431.765 54.6034 431.588 54.6403 431.325 54.6724C430.785 54.7385 430.114 54.7568 429.442 54.7034C428.747 54.6483 428.29 54.5361 428.104 54.4726C428.022 54.4448 428.103 54.4631 428.292 54.5734C428.475 54.68 428.882 54.9443 429.34 55.4481L416.01 67.5443C418.014 69.7525 420.489 70.894 422.297 71.5101C424.223 72.1665 426.212 72.5037 428.018 72.647C431.316 72.9087 435.65 72.6399 439.178 71.02L431.667 54.662ZM429.34 55.4481C430.289 56.4941 430.234 57.6 430 56.0173C429.928 55.5272 429.761 54.2179 429.459 52.9779C429.126 51.6099 428.527 49.8071 427.294 47.9957L412.414 58.1233C412.038 57.5721 411.95 57.1561 411.969 57.2339C412.019 57.4397 412.044 57.6353 412.193 58.6414C412.401 60.0512 412.898 64.1153 416.01 67.5443L429.34 55.4481ZM427.294 47.9957C425.606 45.5153 423.318 43.6552 420.568 42.6079C417.955 41.6123 415.459 41.5531 413.539 41.7325C410.312 42.0341 406.419 43.4366 405.626 43.6672L410.652 60.9513C411.259 60.7746 411.868 60.5809 412.357 60.4254C412.884 60.2582 413.311 60.123 413.726 60.0015C414.589 59.7489 415.021 59.6724 415.214 59.6544C415.383 59.6385 414.914 59.7158 414.161 59.4288C413.772 59.2807 413.39 59.0657 413.053 58.7943C412.72 58.5267 412.516 58.2739 412.414 58.1233L427.294 47.9957ZM405.626 43.6672C402.339 44.623 398.612 47.3029 397.542 51.9895C396.283 57.5053 399.47 61.9212 403.115 63.9589L411.898 48.247C412.577 48.6265 413.658 49.4415 414.441 50.938C415.257 52.499 415.476 54.3059 415.091 55.9946C414.356 59.2136 411.968 60.5685 410.652 60.9513L405.626 43.6672ZM403.115 63.9589C403.826 64.3559 404.474 64.7619 404.998 65.1502C405.561 65.5673 405.737 65.7849 405.704 65.7434L419.853 54.6161C417.404 51.5024 413.911 49.3724 411.898 48.247L403.115 63.9589ZM405.704 65.7434C406.252 66.4403 406.556 66.8937 406.801 67.3429L422.61 58.7355C421.715 57.0927 420.76 55.7702 419.853 54.6161L405.704 65.7434ZM406.801 67.3429C407.998 69.5417 409.325 71.6138 411.837 73.8692L423.863 60.476C423.526 60.1739 423.388 60.0028 423.296 59.8788C423.172 59.7111 422.988 59.4295 422.61 58.7355L406.801 67.3429ZM411.837 73.8692C414.208 75.9986 416.904 76.8342 418.214 77.2135C418.81 77.386 419.736 77.6247 419.971 77.6884C420.413 77.8086 420.529 77.8546 420.517 77.8496L427.206 61.1387C426.231 60.7485 425.31 60.4864 424.688 60.3175C424.381 60.2341 424.041 60.1458 423.821 60.0877C423.568 60.0209 423.382 59.9707 423.222 59.9242C422.885 59.8265 422.838 59.7955 422.928 59.8363C423.034 59.885 423.411 60.0703 423.863 60.476L411.837 73.8692ZM420.517 77.8496C423.338 78.9787 426.88 79.3531 427.721 79.4867L430.546 61.7099C430.052 61.6313 429.51 61.5538 429.124 61.4968C428.694 61.4333 428.35 61.38 428.04 61.3244C427.376 61.2052 427.175 61.1262 427.206 61.1387L420.517 77.8496ZM427.721 79.4867C429.857 79.8262 430.974 80.1499 432.299 80.7922L440.15 64.5944C436.723 62.9336 433.755 62.2199 430.546 61.7098L427.721 79.4867ZM432.299 80.7922C432.178 80.7334 431.237 80.2891 430.293 79.2281C429.133 77.9239 428.334 76.1007 428.334 74.0806H446.334C446.334 67.9028 441.479 65.2387 440.15 64.5944L432.299 80.7922ZM446.495 77.7191C446.481 77.4785 446.439 76.6475 446.4 75.7658C446.381 75.3343 446.363 74.9161 446.351 74.5766C446.336 74.1765 446.334 74.0428 446.334 74.0806H428.334C428.334 75.0162 428.493 78.2103 428.527 78.7863L446.495 77.7191Z" fill="#FFBF02" mask="url(#path-5-outside-3_1089_25120)"/>
<path d="M524.836 96.0047L521.792 99.3191L524.836 96.0046C524.057 95.2889 523.253 94.8558 522.781 94.6127C522.66 94.55 522.542 94.491 522.45 94.4451C522.351 94.3954 522.279 94.3595 522.211 94.3246C522.076 94.2549 522.028 94.226 522.018 94.2193C520.39 93.1843 517.656 91.2344 516.333 90.0855C516.296 90.0404 516.269 90.0069 516.242 89.9724C516.215 89.9298 516.188 89.8879 516.161 89.8465C516.605 90.1771 517.066 90.5036 517.544 90.8183C520.001 92.437 522.711 92.6526 524.795 92.5421C526.663 92.4429 528.53 92.041 529.847 91.7576C529.982 91.7285 530.112 91.7006 530.235 91.6744C530.485 91.6213 530.791 91.5813 531.335 91.5182L531.422 91.5082C531.89 91.4542 532.559 91.3769 533.23 91.242C534.709 90.9444 536.895 90.2378 538.492 88.0868C539.264 87.0471 540.035 85.6494 540.266 83.9375C540.394 82.9873 540.34 82.0451 540.117 81.1355C542.281 82.6873 544.712 82.5407 546.113 82.2939C547.369 82.0727 548.723 81.5829 549.4 81.3379C549.529 81.2911 549.634 81.2533 549.708 81.2279C550.115 81.0898 550.715 80.9499 551.731 80.7216L551.774 80.7118C552.674 80.5098 553.83 80.25 554.96 79.8979C556.867 79.3036 560.686 77.8907 561.991 73.9948L558.137 72.7034L561.991 73.9948C562.508 72.4503 562.249 71.0362 561.903 70.0829C561.561 69.1404 561.04 68.3615 560.54 67.7686C561.446 67.3346 562.318 66.7381 563.136 65.9613C564.079 65.0653 564.784 64.1029 565.276 63.422C565.335 63.3412 565.39 63.2643 565.443 63.191C565.895 62.5641 566.161 62.1963 566.471 61.8574C567.034 61.2415 567.545 60.5358 567.874 60.0817C567.923 60.0146 567.968 59.953 568.008 59.8979C568.412 59.346 568.588 59.1433 568.691 59.0487C570.527 57.3625 571.867 56.1935 573.33 55.5511C575.242 54.7111 577.48 54.4772 580.329 54.5232C581.389 54.5403 582.428 54.5915 583.548 54.6466C583.951 54.6664 584.364 54.6868 584.793 54.7062C586.347 54.7768 588.035 54.8312 589.736 54.7511C592.78 54.6077 594.817 53.2165 596.133 52.3176C596.188 52.28 596.242 52.2432 596.295 52.2074C598.406 50.7712 598.786 48.5701 598.875 47.5906C598.924 47.0428 598.913 46.5478 598.902 46.2398C598.894 46.0228 598.889 45.9117 598.885 45.8406C598.882 45.7703 598.88 45.7393 598.88 45.6838C598.88 41.9461 596.251 39.9801 594.779 39.1155C594.11 38.7224 593.395 38.3881 592.912 38.1626C592.857 38.1369 592.805 38.1125 592.756 38.0897C592.161 37.8101 591.946 37.6926 591.852 37.6289C591.451 37.3573 591.042 37.1249 590.643 36.9253C590.652 36.9184 590.662 36.9113 590.671 36.904L590.747 36.8479L590.765 36.834C590.968 36.6835 591.403 36.3595 591.82 35.9339C592.307 35.4373 592.809 34.7708 593.158 33.8874C593.499 33.0272 593.609 32.1794 593.609 31.415V31.3603C593.609 30.2576 593.609 28.6077 593.086 26.8321C592.307 24.1834 590.358 22.3283 588.886 21.1811C587.321 19.9615 585.596 19.0163 584.414 18.3915L582.311 22.3696L584.414 18.3915C584.164 18.2593 583.857 18.0896 583.506 17.8952C582.145 17.1421 580.114 16.0185 578.119 15.2719C575.625 14.3383 571.831 13.434 568.191 15.3139C567.742 15.5458 567.291 15.8022 566.927 16.0087C566.87 16.0411 566.815 16.0723 566.762 16.102C566.336 16.3431 566.009 16.5232 565.705 16.6705C565.087 16.969 564.863 16.9778 564.83 16.9778C564.421 16.9778 564.067 16.9402 563.721 16.8473C563.657 16.5873 563.561 16.2585 563.409 15.9011C562.709 14.2462 561.569 12.53 559.735 11.2342C559.072 10.7662 558.422 10.5467 558.004 10.4358C557.563 10.3187 557.158 10.2658 556.849 10.2388C556.241 10.1857 555.655 10.2056 555.236 10.2295C554.843 10.2519 554.452 10.2878 554.176 10.3131C554.147 10.3158 554.119 10.3184 554.093 10.3208C553.811 10.3465 553.72 10.3518 553.72 10.3528C553.72 10.353 553.723 10.3531 553.728 10.3531C552.227 10.3568 550.891 10.7871 550.373 10.954C550.293 10.9799 550.232 10.9995 550.193 11.0101L551.389 15.3485L550.193 11.0101C549.396 11.2299 548.752 11.561 548.317 11.8097C548.243 11.8518 548.167 11.8968 548.091 11.9425C548.055 11.9091 547.915 11.7775 547.66 11.4393C547.481 11.203 547.309 10.9548 547.076 10.6182C547.052 10.583 547.027 10.5469 547.001 10.5097C546.757 10.1573 546.43 9.68731 546.066 9.23402C545.077 8.00117 543.541 6.5236 541.557 5.63202C539.422 4.67306 536.516 4.33199 533.726 6.0935L536.11 9.8703L533.726 6.0935C532.584 6.81435 531.621 7.83314 531.05 9.1668C530.499 10.4558 530.463 11.6897 530.562 12.6244C530.658 13.5304 530.899 14.3254 531.075 14.8518C531.088 14.8909 531.101 14.9299 531.114 14.9685C530.781 15.1598 530.402 15.3584 529.912 15.6146L529.807 15.6699C529.766 15.6913 529.724 15.7133 529.68 15.736C528.61 16.295 526.798 17.2419 525.437 18.6677C524.656 19.486 523.909 20.5666 523.497 21.9513C523.162 23.08 523.103 24.2337 523.269 25.3717C523.217 25.3836 523.163 25.3958 523.108 25.4085L523.067 25.4178C521.604 25.7536 518.441 26.4796 516.504 29.3526C514.386 32.4943 515.246 36.256 516.176 38.4425C516.603 39.4477 517.209 40.5235 517.991 41.5204C517.676 41.7339 517.358 41.9402 517.051 42.1323C516.668 42.3721 516.323 42.5765 516.049 42.7315C515.773 42.8878 515.634 42.9575 515.616 42.9664C515.615 42.9666 515.615 42.9668 515.615 42.9669C515.609 42.969 515.525 43.0037 515.331 43.0581C515.128 43.1152 514.871 43.1752 514.558 43.2383C514.247 43.3012 513.917 43.3597 513.562 43.4207C513.483 43.4343 513.4 43.4485 513.314 43.4631C513.043 43.5093 512.748 43.5595 512.486 43.6077C510.51 43.9705 508.823 44.5944 507.409 45.1173C507.169 45.2061 506.936 45.292 506.712 45.3733C506.294 45.5244 505.906 45.6276 505.339 45.7784C505.107 45.8402 504.844 45.91 504.537 45.9943C503.636 46.2421 502.39 46.6114 501.161 47.279C500.387 47.6996 499.635 48.2453 499.195 48.5647C499.115 48.6225 499.045 48.6729 498.988 48.7137C498.743 48.888 498.583 48.994 498.457 49.0684C498.349 49.1316 498.301 49.1507 498.298 49.1518C495.7 50.0893 493.903 52.1561 492.808 53.779C491.65 55.4951 490.803 57.4208 490.367 59.0253C490.179 59.7162 489.924 60.3931 489.575 61.3187L489.535 61.4232C489.194 62.3298 488.761 63.487 488.454 64.7546C488.239 65.6459 488.1 66 487.995 66.1945C487.941 66.2941 487.87 66.4151 487.577 66.6243C487.579 66.6226 487.517 66.6664 487.322 66.7563C487.125 66.847 486.917 66.93 486.572 67.0678L486.475 67.1067C486.45 67.1165 486.425 67.1267 486.398 67.1373C485.735 67.4014 484.449 67.9136 483.312 68.8476C483.122 69.0037 482.999 69.0977 482.842 69.2173C482.747 69.29 482.639 69.3722 482.496 69.4836C482.218 69.7006 481.67 70.1315 481.172 70.7436C479.893 72.3168 479.727 74.0436 479.727 75.3397C479.727 77.6344 480.885 79.2991 481.679 80.2197C482.344 80.9901 483.17 81.6919 483.602 82.0591C483.67 82.1172 483.729 82.167 483.775 82.2073C484.362 82.7162 485.057 83.2066 485.478 83.5031C485.577 83.573 485.661 83.6321 485.724 83.6782C486.18 84.0086 486.332 84.1587 486.414 84.2589C487.29 85.3316 488.347 85.9947 488.843 86.3059C488.86 86.316 488.875 86.3257 488.89 86.3351C489.296 86.5901 489.435 86.6859 489.463 86.7025C489.757 87.0193 490.051 87.3869 490.478 87.9241L490.505 87.9582C490.909 88.4677 491.447 89.1453 492.067 89.7966L495.325 86.6924L492.067 89.7966C492.256 89.9945 492.488 90.2456 492.749 90.5282C493.404 91.2368 494.241 92.1432 495.034 92.9036C496.203 94.0258 497.764 95.3371 499.685 96.1789L501.491 92.0574L499.685 96.1789C499.882 96.2654 500.18 96.4644 500.919 97.1804C500.991 97.2507 501.074 97.3318 501.165 97.4218C501.788 98.0366 502.827 99.062 504.037 99.826C504.918 100.383 505.758 100.959 506.675 101.588L506.874 101.725C507.845 102.39 508.903 103.112 510.04 103.808C512.541 105.34 516.906 107.122 521.096 106.366C522.692 106.079 524.406 105.154 525.528 103.672C526.134 102.872 526.78 101.611 526.726 100.007C526.669 98.2991 525.845 96.9309 524.836 96.0047ZM545.351 63.9335C545.398 63.9698 545.447 64.0071 545.497 64.0454C545.459 64.0309 545.424 64.0178 545.395 64.0068L545.365 63.9954C545.283 63.9642 545.239 63.947 545.204 63.9329C545.199 63.931 545.195 63.9294 545.192 63.9279C543.616 63.0251 542.026 62.5221 540.758 62.1604C540.337 62.0406 539.967 61.9392 539.629 61.8467C539.083 61.6971 538.622 61.571 538.176 61.4285C538.391 61.4575 538.65 61.5009 538.967 61.5636C541.771 62.1204 543.618 62.6295 544.853 63.5547C544.995 63.661 545.162 63.7891 545.351 63.9335Z" fill="white" stroke="#FFBF02" stroke-width="9" stroke-linecap="round"/>
</svg>
