<svg width="510" height="370" viewBox="0 0 510 370" fill="none" xmlns="http://www.w3.org/2000/svg">
<mask id="path-1-outside-1_1088_25016" maskUnits="userSpaceOnUse" x="-0.185547" y="0.169922" width="511" height="370" fill="black">
<rect fill="white" x="-0.185547" y="0.169922" width="511" height="370"/>
<path d="M38.5592 277.707C42.5878 279.146 47.0592 279.276 52.0706 279.284C66.9012 279.203 81.9089 278.675 96.474 278.065C122.079 276.995 148.556 275.9 174.57 278.281C174.714 278.294 174.853 278.338 174.978 278.41L176.209 279.121C176.485 279.28 176.669 279.561 176.703 279.878L176.842 281.137C176.86 281.303 176.836 281.471 176.774 281.627C175.754 284.177 174.947 287.366 176.621 288.643C177.144 289.034 178.003 289.294 178.897 289.578L180.083 289.961C183.979 291.343 187.22 294.587 188.539 298.441C189.681 301.791 189.247 305.108 187.308 307.743C183.926 312.361 177.631 313.475 172.088 314.459C165.704 315.581 161.747 316.499 160.507 319.841C158.842 324.338 164.766 329.102 166.625 330.452L168.201 331.582C172.416 334.583 177.188 337.989 178.41 343.299C178.764 344.827 178.755 346.299 178.755 347.73C178.755 349.112 178.755 350.421 179.092 351.568C179.889 354.243 182.987 356.438 186.458 356.78C189.779 357.121 193.373 356.024 196.641 353.731L198.509 352.364C202.157 349.641 206.672 346.25 211.94 348.047C213.8 348.681 215.172 349.852 216.385 350.893C223.185 356.625 231.765 359.869 240.389 360.162C241.46 360.186 242.602 360.178 243.257 359.772C244.223 359.186 244.577 357.536 244.842 356.023L246.896 344.291C247.082 343.201 248.101 342.396 249.296 342.364L274.867 341.835C276.894 341.794 279.365 341.746 281.693 342.721C284.739 343.998 286.554 346.608 288.157 348.909C289.981 351.503 291.202 353.088 293.009 353.243C293.797 353.324 294.868 353.023 295.966 352.722L297.675 352.275C302.756 351.158 308.37 352.762 312.091 356.117C312.485 356.472 313.083 356.499 313.495 356.167C319.333 351.472 327.296 349.146 335.025 349.847C335.562 349.895 336.053 349.527 336.142 348.996C339.281 330.316 347.655 312.491 360.601 297.693C361.221 296.969 362.257 296.677 363.231 296.921C381.943 301.806 401.598 302.369 420.982 302.209C421.24 302.207 421.487 302.105 421.672 301.924C447.343 276.769 471.965 250.204 494.882 222.938C496.751 220.71 498.876 218.19 499.894 215.433C500.903 212.709 500.894 209.587 500.885 206.562L500.409 47.0648C500.408 46.6668 500.16 46.2499 499.768 46.3167C499.02 46.4439 498.406 47.3698 496.042 47.2793C490.34 47.0761 484.213 38.4085 479.034 36.018C470.711 32.164 468.524 28.3589 466.425 20.0573C464.424 12.0891 461.927 10.9669 453.206 10.1538C439.898 8.90979 426.626 10.341 413.318 10.7882C403.729 11.1053 394.034 10.9101 384.472 10.471C366.581 9.65539 348.217 20.1277 307.547 16.7236C298.734 15.9793 289.92 15.8239 281.106 15.9591C280.555 15.9675 280.116 16.4223 280.115 16.9739C280.11 19.9552 279.88 23.0446 279.657 25.9764C279.462 28.4156 279.276 30.7087 279.267 32.6438C279.232 38.8802 276.859 41.9132 274.105 45.4257C273.255 46.499 272.343 47.6698 271.405 49.052C265.871 57.2316 269.156 70.1758 270.811 75.3633C272.423 80.3637 274.3 83.7298 278.665 85.0389C280.17 85.4861 281.507 85.7462 282.756 85.9901C286.102 86.6406 289.272 87.2504 292.849 90.6491C298.914 96.4382 299.809 98.5035 294.62 105.537C292.973 107.756 292.044 109.602 292.486 111.879C292.858 113.765 294.31 115.001 296.161 116.562C297.462 117.668 298.932 118.912 300.048 120.53C301.394 122.457 301.978 125.669 302.668 129.393C303.474 133.751 304.572 139.719 306.98 141.052C307.352 141.256 307.981 141.483 309.291 141.085C310.531 140.703 310.743 139.743 310.336 136.182C310.071 133.775 309.752 131.06 311.85 129.425C313.966 127.775 317.118 128.571 318.163 128.84C321.749 129.75 324.538 132.141 327 134.255C329.213 136.158 331.312 137.954 333.472 138.312C336.571 138.824 342.397 137.605 345.797 135.044C346.705 134.363 347.77 133.315 347.915 132.076C347.933 131.922 347.968 131.768 348.041 131.631L348.625 130.521C348.758 130.269 348.992 130.085 349.269 130.017L350.638 129.677C350.768 129.645 350.903 129.64 351.035 129.659C351.959 129.791 352.986 129.846 354.067 129.929C357.723 130.165 361.867 130.433 364.86 132.808C371.863 138.361 371.137 147.573 370.562 154.972C370.438 156.558 370.323 158.07 370.287 159.452C370.208 162.949 370.544 166.559 370.872 170.039C371.173 173.307 371.491 176.682 371.483 180.064C371.465 185.52 370.11 187.357 367.87 190.398L367.073 191.488C365.745 193.333 364.727 195.448 363.656 197.684C363.045 198.984 362.425 200.261 361.752 201.489C359.069 206.335 356.457 210.506 349.082 210.189L347.727 210.132C343.114 209.92 336.155 209.595 333.339 211.994C332.48 212.734 332.064 213.685 332.038 215.018C332.011 216.027 332.046 216.954 332.082 217.848C332.215 221.296 332.339 224.548 328.983 228.613C326.893 231.142 324.777 232.378 322.537 232.378L322.192 232.37C318.898 232.183 316.755 229.377 315.436 227.296C314.896 226.434 314.418 225.58 313.949 224.751C312.443 222.068 311.257 219.946 308.441 218.547C305.218 216.929 303.209 218.653 299.393 222.978L298.374 224.109L297.374 225.28C294.85 228.296 292.938 228.516 289.157 226.125C287.616 225.158 283.464 221.344 282.472 219.401C282.317 219.092 282.206 218.776 282.126 218.461C281.917 217.638 280.932 217.165 280.282 217.709L280.232 217.751C278.55 219.173 276.814 220.645 274.849 220.962C270.847 221.604 268.881 219.873 267.447 218.604C266.747 217.994 266.154 217.466 265.313 217.1C263.418 216.254 260.054 216.059 257.592 215.913L256.645 215.856C255.742 215.791 254.794 215.783 253.838 215.767C250.367 215.702 246.427 215.636 243.045 213.677C238.441 211.002 238.644 207.603 238.813 204.887C238.892 203.708 238.954 202.603 238.698 201.481C238.228 199.432 236.44 197.09 235.005 195.212L233.766 193.846C232.916 193.017 231.96 192.073 231.384 190.732C230.738 189.236 230.782 187.772 230.826 186.593C230.85 185.858 230.867 185.215 230.737 184.715C230.707 184.6 230.646 184.498 230.57 184.407L229.268 182.853C228.391 182.04 227.293 181.032 226.762 179.519C226.196 177.901 226.435 176.389 226.647 175.055C226.815 173.974 226.966 173.039 226.647 172.242C225.744 170.006 224.54 169.827 222.14 169.478C219.9 169.161 217.111 168.754 214.924 166.193C213.835 164.933 213.33 163.347 212.888 161.965C212.578 160.997 212.286 160.095 211.87 159.469C211.161 158.387 210.276 157.769 209.143 156.989C208.186 156.322 207.212 155.639 206.3 154.704C202.059 150.387 202.697 145.736 203.263 141.63C203.697 138.426 204.078 135.653 202.36 133.108C196.463 124.335 188.875 119.701 179.782 119.319C175.267 119.099 172.292 120.855 170.547 124.742C168.219 129.929 169.733 130.994 174.78 134.499L175.364 134.914C182.111 139.613 180.668 147.785 179.499 154.338C179.065 156.785 178.649 159.103 178.658 161.03L178.702 164.185C178.799 170.673 178.897 176.812 175.099 183.723C174.488 184.829 173 185.292 171.796 184.756C170.973 184.39 170.308 183.869 169.715 183.398V183.398C169.416 183.163 168.985 183.215 168.774 183.531C168.337 184.186 167.862 185.027 167.519 185.625C166.28 187.788 165.12 189.829 163.385 190.813C162.021 191.594 159.985 192.594 157.806 192.114C155.593 191.634 154.451 189.91 153.441 188.398L152.228 186.699C150.732 184.829 150.174 184.715 146.854 184.877C142.63 185.056 139 185.244 136.53 183.04C134.821 181.511 134.06 179.145 134.139 175.576C134.157 174.673 134.228 173.909 134.29 173.226C134.493 170.876 134.494 170.876 132.537 169.795C129.792 168.266 126.817 167.128 123.674 165.916C120.168 164.583 116.546 163.184 113.129 161.192C112.137 160.607 111.136 160.078 110.189 159.566L108.965 158.897C108.448 158.615 107.8 158.838 107.569 159.379C105.325 164.629 103.246 169.943 101.707 175.421C99.874 181.942 97.3947 183.796 90.5682 187.089C78.0839 193.122 64.794 196.171 51.7607 200.936C42.88 204.18 33.3972 205.091 28.3681 213.189C23.2859 221.368 20.1515 230.028 14.2281 237.777C11.2531 241.671 8.50839 244.371 10.4829 248.989C12.7495 254.29 15.2906 251.485 20.0984 253.396C25.3666 255.486 26.376 262.519 25.65 267.21C25.5462 267.862 25.4236 268.413 25.2871 268.902C25.1647 269.341 25.3221 269.817 25.7021 270.069L30.1833 273.04C32.99 274.902 35.6108 276.65 38.5592 277.707Z"/>
</mask>
<path d="M38.5592 277.707C42.5878 279.146 47.0592 279.276 52.0706 279.284C66.9012 279.203 81.9089 278.675 96.474 278.065C122.079 276.995 148.556 275.9 174.57 278.281C174.714 278.294 174.853 278.338 174.978 278.41L176.209 279.121C176.485 279.28 176.669 279.561 176.703 279.878L176.842 281.137C176.86 281.303 176.836 281.471 176.774 281.627C175.754 284.177 174.947 287.366 176.621 288.643C177.144 289.034 178.003 289.294 178.897 289.578L180.083 289.961C183.979 291.343 187.22 294.587 188.539 298.441C189.681 301.791 189.247 305.108 187.308 307.743C183.926 312.361 177.631 313.475 172.088 314.459C165.704 315.581 161.747 316.499 160.507 319.841C158.842 324.338 164.766 329.102 166.625 330.452L168.201 331.582C172.416 334.583 177.188 337.989 178.41 343.299C178.764 344.827 178.755 346.299 178.755 347.73C178.755 349.112 178.755 350.421 179.092 351.568C179.889 354.243 182.987 356.438 186.458 356.78C189.779 357.121 193.373 356.024 196.641 353.731L198.509 352.364C202.157 349.641 206.672 346.25 211.94 348.047C213.8 348.681 215.172 349.852 216.385 350.893C223.185 356.625 231.765 359.869 240.389 360.162C241.46 360.186 242.602 360.178 243.257 359.772C244.223 359.186 244.577 357.536 244.842 356.023L246.896 344.291C247.082 343.201 248.101 342.396 249.296 342.364L274.867 341.835C276.894 341.794 279.365 341.746 281.693 342.721C284.739 343.998 286.554 346.608 288.157 348.909C289.981 351.503 291.202 353.088 293.009 353.243C293.797 353.324 294.868 353.023 295.966 352.722L297.675 352.275C302.756 351.158 308.37 352.762 312.091 356.117C312.485 356.472 313.083 356.499 313.495 356.167C319.333 351.472 327.296 349.146 335.025 349.847C335.562 349.895 336.053 349.527 336.142 348.996C339.281 330.316 347.655 312.491 360.601 297.693C361.221 296.969 362.257 296.677 363.231 296.921C381.943 301.806 401.598 302.369 420.982 302.209C421.24 302.207 421.487 302.105 421.672 301.924C447.343 276.769 471.965 250.204 494.882 222.938C496.751 220.71 498.876 218.19 499.894 215.433C500.903 212.709 500.894 209.587 500.885 206.562L500.409 47.0648C500.408 46.6668 500.16 46.2499 499.768 46.3167C499.02 46.4439 498.406 47.3698 496.042 47.2793C490.34 47.0761 484.213 38.4085 479.034 36.018C470.711 32.164 468.524 28.3589 466.425 20.0573C464.424 12.0891 461.927 10.9669 453.206 10.1538C439.898 8.90979 426.626 10.341 413.318 10.7882C403.729 11.1053 394.034 10.9101 384.472 10.471C366.581 9.65539 348.217 20.1277 307.547 16.7236C298.734 15.9793 289.92 15.8239 281.106 15.9591C280.555 15.9675 280.116 16.4223 280.115 16.9739C280.11 19.9552 279.88 23.0446 279.657 25.9764C279.462 28.4156 279.276 30.7087 279.267 32.6438C279.232 38.8802 276.859 41.9132 274.105 45.4257C273.255 46.499 272.343 47.6698 271.405 49.052C265.871 57.2316 269.156 70.1758 270.811 75.3633C272.423 80.3637 274.3 83.7298 278.665 85.0389C280.17 85.4861 281.507 85.7462 282.756 85.9901C286.102 86.6406 289.272 87.2504 292.849 90.6491C298.914 96.4382 299.809 98.5035 294.62 105.537C292.973 107.756 292.044 109.602 292.486 111.879C292.858 113.765 294.31 115.001 296.161 116.562C297.462 117.668 298.932 118.912 300.048 120.53C301.394 122.457 301.978 125.669 302.668 129.393C303.474 133.751 304.572 139.719 306.98 141.052C307.352 141.256 307.981 141.483 309.291 141.085C310.531 140.703 310.743 139.743 310.336 136.182C310.071 133.775 309.752 131.06 311.85 129.425C313.966 127.775 317.118 128.571 318.163 128.84C321.749 129.75 324.538 132.141 327 134.255C329.213 136.158 331.312 137.954 333.472 138.312C336.571 138.824 342.397 137.605 345.797 135.044C346.705 134.363 347.77 133.315 347.915 132.076C347.933 131.922 347.968 131.768 348.041 131.631L348.625 130.521C348.758 130.269 348.992 130.085 349.269 130.017L350.638 129.677C350.768 129.645 350.903 129.64 351.035 129.659C351.959 129.791 352.986 129.846 354.067 129.929C357.723 130.165 361.867 130.433 364.86 132.808C371.863 138.361 371.137 147.573 370.562 154.972C370.438 156.558 370.323 158.07 370.287 159.452C370.208 162.949 370.544 166.559 370.872 170.039C371.173 173.307 371.491 176.682 371.483 180.064C371.465 185.52 370.11 187.357 367.87 190.398L367.073 191.488C365.745 193.333 364.727 195.448 363.656 197.684C363.045 198.984 362.425 200.261 361.752 201.489C359.069 206.335 356.457 210.506 349.082 210.189L347.727 210.132C343.114 209.92 336.155 209.595 333.339 211.994C332.48 212.734 332.064 213.685 332.038 215.018C332.011 216.027 332.046 216.954 332.082 217.848C332.215 221.296 332.339 224.548 328.983 228.613C326.893 231.142 324.777 232.378 322.537 232.378L322.192 232.37C318.898 232.183 316.755 229.377 315.436 227.296C314.896 226.434 314.418 225.58 313.949 224.751C312.443 222.068 311.257 219.946 308.441 218.547C305.218 216.929 303.209 218.653 299.393 222.978L298.374 224.109L297.374 225.28C294.85 228.296 292.938 228.516 289.157 226.125C287.616 225.158 283.464 221.344 282.472 219.401C282.317 219.092 282.206 218.776 282.126 218.461C281.917 217.638 280.932 217.165 280.282 217.709L280.232 217.751C278.55 219.173 276.814 220.645 274.849 220.962C270.847 221.604 268.881 219.873 267.447 218.604C266.747 217.994 266.154 217.466 265.313 217.1C263.418 216.254 260.054 216.059 257.592 215.913L256.645 215.856C255.742 215.791 254.794 215.783 253.838 215.767C250.367 215.702 246.427 215.636 243.045 213.677C238.441 211.002 238.644 207.603 238.813 204.887C238.892 203.708 238.954 202.603 238.698 201.481C238.228 199.432 236.44 197.09 235.005 195.212L233.766 193.846C232.916 193.017 231.96 192.073 231.384 190.732C230.738 189.236 230.782 187.772 230.826 186.593C230.85 185.858 230.867 185.215 230.737 184.715C230.707 184.6 230.646 184.498 230.57 184.407L229.268 182.853C228.391 182.04 227.293 181.032 226.762 179.519C226.196 177.901 226.435 176.389 226.647 175.055C226.815 173.974 226.966 173.039 226.647 172.242C225.744 170.006 224.54 169.827 222.14 169.478C219.9 169.161 217.111 168.754 214.924 166.193C213.835 164.933 213.33 163.347 212.888 161.965C212.578 160.997 212.286 160.095 211.87 159.469C211.161 158.387 210.276 157.769 209.143 156.989C208.186 156.322 207.212 155.639 206.3 154.704C202.059 150.387 202.697 145.736 203.263 141.63C203.697 138.426 204.078 135.653 202.36 133.108C196.463 124.335 188.875 119.701 179.782 119.319C175.267 119.099 172.292 120.855 170.547 124.742C168.219 129.929 169.733 130.994 174.78 134.499L175.364 134.914C182.111 139.613 180.668 147.785 179.499 154.338C179.065 156.785 178.649 159.103 178.658 161.03L178.702 164.185C178.799 170.673 178.897 176.812 175.099 183.723C174.488 184.829 173 185.292 171.796 184.756C170.973 184.39 170.308 183.869 169.715 183.398V183.398C169.416 183.163 168.985 183.215 168.774 183.531C168.337 184.186 167.862 185.027 167.519 185.625C166.28 187.788 165.12 189.829 163.385 190.813C162.021 191.594 159.985 192.594 157.806 192.114C155.593 191.634 154.451 189.91 153.441 188.398L152.228 186.699C150.732 184.829 150.174 184.715 146.854 184.877C142.63 185.056 139 185.244 136.53 183.04C134.821 181.511 134.06 179.145 134.139 175.576C134.157 174.673 134.228 173.909 134.29 173.226C134.493 170.876 134.494 170.876 132.537 169.795C129.792 168.266 126.817 167.128 123.674 165.916C120.168 164.583 116.546 163.184 113.129 161.192C112.137 160.607 111.136 160.078 110.189 159.566L108.965 158.897C108.448 158.615 107.8 158.838 107.569 159.379C105.325 164.629 103.246 169.943 101.707 175.421C99.874 181.942 97.3947 183.796 90.5682 187.089C78.0839 193.122 64.794 196.171 51.7607 200.936C42.88 204.18 33.3972 205.091 28.3681 213.189C23.2859 221.368 20.1515 230.028 14.2281 237.777C11.2531 241.671 8.50839 244.371 10.4829 248.989C12.7495 254.29 15.2906 251.485 20.0984 253.396C25.3666 255.486 26.376 262.519 25.65 267.21C25.5462 267.862 25.4236 268.413 25.2871 268.902C25.1647 269.341 25.3221 269.817 25.7021 270.069L30.1833 273.04C32.99 274.902 35.6108 276.65 38.5592 277.707Z" fill="white"/>
<path d="M38.5592 277.707C42.5878 279.146 47.0592 279.276 52.0706 279.284C66.9012 279.203 81.9089 278.675 96.474 278.065C122.079 276.995 148.556 275.9 174.57 278.281C174.714 278.294 174.853 278.338 174.978 278.41L176.209 279.121C176.485 279.28 176.669 279.561 176.703 279.878L176.842 281.137C176.86 281.303 176.836 281.471 176.774 281.627C175.754 284.177 174.947 287.366 176.621 288.643C177.144 289.034 178.003 289.294 178.897 289.578L180.083 289.961C183.979 291.343 187.22 294.587 188.539 298.441C189.681 301.791 189.247 305.108 187.308 307.743C183.926 312.361 177.631 313.475 172.088 314.459C165.704 315.581 161.747 316.499 160.507 319.841C158.842 324.338 164.766 329.102 166.625 330.452L168.201 331.582C172.416 334.583 177.188 337.989 178.41 343.299C178.764 344.827 178.755 346.299 178.755 347.73C178.755 349.112 178.755 350.421 179.092 351.568C179.889 354.243 182.987 356.438 186.458 356.78C189.779 357.121 193.373 356.024 196.641 353.731L198.509 352.364C202.157 349.641 206.672 346.25 211.94 348.047C213.8 348.681 215.172 349.852 216.385 350.893C223.185 356.625 231.765 359.869 240.389 360.162C241.46 360.186 242.602 360.178 243.257 359.772C244.223 359.186 244.577 357.536 244.842 356.023L246.896 344.291C247.082 343.201 248.101 342.396 249.296 342.364L274.867 341.835C276.894 341.794 279.365 341.746 281.693 342.721C284.739 343.998 286.554 346.608 288.157 348.909C289.981 351.503 291.202 353.088 293.009 353.243C293.797 353.324 294.868 353.023 295.966 352.722L297.675 352.275C302.756 351.158 308.37 352.762 312.091 356.117C312.485 356.472 313.083 356.499 313.495 356.167C319.333 351.472 327.296 349.146 335.025 349.847C335.562 349.895 336.053 349.527 336.142 348.996C339.281 330.316 347.655 312.491 360.601 297.693C361.221 296.969 362.257 296.677 363.231 296.921C381.943 301.806 401.598 302.369 420.982 302.209C421.24 302.207 421.487 302.105 421.672 301.924C447.343 276.769 471.965 250.204 494.882 222.938C496.751 220.71 498.876 218.19 499.894 215.433C500.903 212.709 500.894 209.587 500.885 206.562L500.409 47.0648C500.408 46.6668 500.16 46.2499 499.768 46.3167C499.02 46.4439 498.406 47.3698 496.042 47.2793C490.34 47.0761 484.213 38.4085 479.034 36.018C470.711 32.164 468.524 28.3589 466.425 20.0573C464.424 12.0891 461.927 10.9669 453.206 10.1538C439.898 8.90979 426.626 10.341 413.318 10.7882C403.729 11.1053 394.034 10.9101 384.472 10.471C366.581 9.65539 348.217 20.1277 307.547 16.7236C298.734 15.9793 289.92 15.8239 281.106 15.9591C280.555 15.9675 280.116 16.4223 280.115 16.9739C280.11 19.9552 279.88 23.0446 279.657 25.9764C279.462 28.4156 279.276 30.7087 279.267 32.6438C279.232 38.8802 276.859 41.9132 274.105 45.4257C273.255 46.499 272.343 47.6698 271.405 49.052C265.871 57.2316 269.156 70.1758 270.811 75.3633C272.423 80.3637 274.3 83.7298 278.665 85.0389C280.17 85.4861 281.507 85.7462 282.756 85.9901C286.102 86.6406 289.272 87.2504 292.849 90.6491C298.914 96.4382 299.809 98.5035 294.62 105.537C292.973 107.756 292.044 109.602 292.486 111.879C292.858 113.765 294.31 115.001 296.161 116.562C297.462 117.668 298.932 118.912 300.048 120.53C301.394 122.457 301.978 125.669 302.668 129.393C303.474 133.751 304.572 139.719 306.98 141.052C307.352 141.256 307.981 141.483 309.291 141.085C310.531 140.703 310.743 139.743 310.336 136.182C310.071 133.775 309.752 131.06 311.85 129.425C313.966 127.775 317.118 128.571 318.163 128.84C321.749 129.75 324.538 132.141 327 134.255C329.213 136.158 331.312 137.954 333.472 138.312C336.571 138.824 342.397 137.605 345.797 135.044C346.705 134.363 347.77 133.315 347.915 132.076C347.933 131.922 347.968 131.768 348.041 131.631L348.625 130.521C348.758 130.269 348.992 130.085 349.269 130.017L350.638 129.677C350.768 129.645 350.903 129.64 351.035 129.659C351.959 129.791 352.986 129.846 354.067 129.929C357.723 130.165 361.867 130.433 364.86 132.808C371.863 138.361 371.137 147.573 370.562 154.972C370.438 156.558 370.323 158.07 370.287 159.452C370.208 162.949 370.544 166.559 370.872 170.039C371.173 173.307 371.491 176.682 371.483 180.064C371.465 185.52 370.11 187.357 367.87 190.398L367.073 191.488C365.745 193.333 364.727 195.448 363.656 197.684C363.045 198.984 362.425 200.261 361.752 201.489C359.069 206.335 356.457 210.506 349.082 210.189L347.727 210.132C343.114 209.92 336.155 209.595 333.339 211.994C332.48 212.734 332.064 213.685 332.038 215.018C332.011 216.027 332.046 216.954 332.082 217.848C332.215 221.296 332.339 224.548 328.983 228.613C326.893 231.142 324.777 232.378 322.537 232.378L322.192 232.37C318.898 232.183 316.755 229.377 315.436 227.296C314.896 226.434 314.418 225.58 313.949 224.751C312.443 222.068 311.257 219.946 308.441 218.547C305.218 216.929 303.209 218.653 299.393 222.978L298.374 224.109L297.374 225.28C294.85 228.296 292.938 228.516 289.157 226.125C287.616 225.158 283.464 221.344 282.472 219.401C282.317 219.092 282.206 218.776 282.126 218.461C281.917 217.638 280.932 217.165 280.282 217.709L280.232 217.751C278.55 219.173 276.814 220.645 274.849 220.962C270.847 221.604 268.881 219.873 267.447 218.604C266.747 217.994 266.154 217.466 265.313 217.1C263.418 216.254 260.054 216.059 257.592 215.913L256.645 215.856C255.742 215.791 254.794 215.783 253.838 215.767C250.367 215.702 246.427 215.636 243.045 213.677C238.441 211.002 238.644 207.603 238.813 204.887C238.892 203.708 238.954 202.603 238.698 201.481C238.228 199.432 236.44 197.09 235.005 195.212L233.766 193.846C232.916 193.017 231.96 192.073 231.384 190.732C230.738 189.236 230.782 187.772 230.826 186.593C230.85 185.858 230.867 185.215 230.737 184.715C230.707 184.6 230.646 184.498 230.57 184.407L229.268 182.853C228.391 182.04 227.293 181.032 226.762 179.519C226.196 177.901 226.435 176.389 226.647 175.055C226.815 173.974 226.966 173.039 226.647 172.242C225.744 170.006 224.54 169.827 222.14 169.478C219.9 169.161 217.111 168.754 214.924 166.193C213.835 164.933 213.33 163.347 212.888 161.965C212.578 160.997 212.286 160.095 211.87 159.469C211.161 158.387 210.276 157.769 209.143 156.989C208.186 156.322 207.212 155.639 206.3 154.704C202.059 150.387 202.697 145.736 203.263 141.63C203.697 138.426 204.078 135.653 202.36 133.108C196.463 124.335 188.875 119.701 179.782 119.319C175.267 119.099 172.292 120.855 170.547 124.742C168.219 129.929 169.733 130.994 174.78 134.499L175.364 134.914C182.111 139.613 180.668 147.785 179.499 154.338C179.065 156.785 178.649 159.103 178.658 161.03L178.702 164.185C178.799 170.673 178.897 176.812 175.099 183.723C174.488 184.829 173 185.292 171.796 184.756C170.973 184.39 170.308 183.869 169.715 183.398V183.398C169.416 183.163 168.985 183.215 168.774 183.531C168.337 184.186 167.862 185.027 167.519 185.625C166.28 187.788 165.12 189.829 163.385 190.813C162.021 191.594 159.985 192.594 157.806 192.114C155.593 191.634 154.451 189.91 153.441 188.398L152.228 186.699C150.732 184.829 150.174 184.715 146.854 184.877C142.63 185.056 139 185.244 136.53 183.04C134.821 181.511 134.06 179.145 134.139 175.576C134.157 174.673 134.228 173.909 134.29 173.226C134.493 170.876 134.494 170.876 132.537 169.795C129.792 168.266 126.817 167.128 123.674 165.916C120.168 164.583 116.546 163.184 113.129 161.192C112.137 160.607 111.136 160.078 110.189 159.566L108.965 158.897C108.448 158.615 107.8 158.838 107.569 159.379C105.325 164.629 103.246 169.943 101.707 175.421C99.874 181.942 97.3947 183.796 90.5682 187.089C78.0839 193.122 64.794 196.171 51.7607 200.936C42.88 204.18 33.3972 205.091 28.3681 213.189C23.2859 221.368 20.1515 230.028 14.2281 237.777C11.2531 241.671 8.50839 244.371 10.4829 248.989C12.7495 254.29 15.2906 251.485 20.0984 253.396C25.3666 255.486 26.376 262.519 25.65 267.21C25.5462 267.862 25.4236 268.413 25.2871 268.902C25.1647 269.341 25.3221 269.817 25.7021 270.069L30.1833 273.04C32.99 274.902 35.6108 276.65 38.5592 277.707Z" stroke="#FFBF02" stroke-width="18" mask="url(#path-1-outside-1_1088_25016)"/>
</svg>
