<svg width="351" height="357" viewBox="0 0 351 357" fill="none" xmlns="http://www.w3.org/2000/svg">
<mask id="path-1-outside-1_1088_25011" maskUnits="userSpaceOnUse" x="0.162109" y="0.585938" width="351" height="356" fill="black">
<rect fill="white" x="0.162109" y="0.585938" width="351" height="356"/>
<path d="M13.9969 73.6582C18.5834 72.2841 24.2765 70.5766 28.4291 74.3087C29.8634 75.6015 30.5806 77.187 31.2181 78.5937C31.5634 79.358 31.8911 80.1304 32.3869 80.8052C33.7239 82.6509 36.2827 83.6672 38.9921 84.7486L40.7718 85.4723C57.1341 92.351 66.909 109.783 63.509 126.004C63.2788 127.126 62.9779 128.24 62.6945 129.363C61.9596 132.16 61.2601 134.802 61.5612 137.363C61.7029 138.64 62.0747 139.868 62.4466 141.095C62.8539 142.461 63.2523 143.819 63.4471 145.218C63.9607 149.047 62.9779 152.665 62.0216 156.162C61.3487 158.65 60.7024 160.992 60.6138 163.325C60.4899 166.268 62.3934 169.724 64.97 171.188C66.7789 172.218 68.0334 171.707 68.5235 171.462C68.575 171.437 68.6232 171.406 68.669 171.371L70.5923 169.911C71.3715 169.228 72.248 168.439 73.3548 167.838C78.8444 164.813 84.7413 167.83 89.9475 170.488C95.2157 173.188 98.5979 174.7 101.024 172.773L101.954 171.879C102.627 171.171 103.494 170.285 104.734 169.7C109.958 167.236 113.96 172.025 116.598 175.172L117.82 176.595C120.724 179.847 125.328 181.327 130.198 182.88C133.696 184.002 137.308 185.156 140.522 187.043C145.48 189.962 148.889 194.255 152.192 198.401C154.264 201.003 156.212 203.451 158.514 205.589C163.738 210.443 170.467 213.427 177.594 216.582C182.907 218.94 188.396 221.371 193.275 224.664C204.856 232.494 213.33 245.414 219.2 264.164C220.634 268.749 221.883 273.4 223.131 278.051C225.769 287.922 228.497 298.11 233.145 307.379C240.738 322.519 253.218 335.036 265.573 347.064C265.891 347.374 266.373 347.435 266.764 347.226C274.804 342.917 284.675 341.585 293.698 343.643L295.646 344.114C298.063 344.732 300.321 345.317 302.384 344.919C308.024 343.821 309.405 336.187 309.574 329.983C310.176 308.168 312.221 286.109 314.187 264.782C314.842 257.683 315.515 250.333 317.542 243.178C319.72 235.502 323.404 228.274 326.972 221.282L341.433 192.941C341.556 192.7 341.576 192.419 341.489 192.163L321.562 133.786L321.061 132.694C320.967 132.49 320.807 132.323 320.607 132.221L319.278 131.542L318.552 131.249C315.488 129.972 313.062 127.907 311.035 126.078C309.149 124.37 307.272 122.59 305.377 120.776C296.186 112.019 286.686 102.962 274.423 102.58L273.086 102.555C270.97 102.539 268.579 102.514 266.339 101.441C261.142 98.9532 260.911 93.5382 260.708 88.7654C260.54 84.9032 260.389 81.2524 257.848 79.797C256.971 79.2929 255.776 79.0571 254.501 78.8051C252.633 78.4311 250.526 78.0081 248.746 76.6503C245.682 74.3086 245.443 70.8531 245.24 67.804C245.125 66.0803 245.01 64.4542 244.434 63.1614C242.876 59.6407 237.846 58.2746 232.631 57.3314C226.159 56.1524 218.854 54.8028 212.258 56.372C206.591 57.7136 200.677 62.2181 200.863 67.9259C200.887 68.6463 200.549 69.3268 199.947 69.7752C199.82 69.87 199.665 69.9156 199.507 69.9268L197.562 70.0638C197.404 70.0749 197.246 70.0487 197.1 69.9869C186.353 65.4267 172.947 61.0825 164.074 67.3975L162.56 68.5195C159.036 71.1701 154.211 74.8128 149.42 71.845C146.605 70.1132 146.012 67.1047 145.534 64.6899C144.027 57.2163 139.972 50.7566 134.046 46.0789C133.984 46.0299 133.917 45.9872 133.842 45.9604C132.64 45.5275 130.483 46.476 127.409 48.0054C123.947 49.7372 119.635 51.8839 115.527 49.5422C112.269 47.6803 111.578 44.184 111.02 41.387C108.922 30.825 103.778 21.003 96.1277 12.9453C94.7287 11.4736 93.5157 10.3921 92.1167 9.96117C89.0266 9.03425 85.5116 11.3028 82.0939 13.5144L80.8366 14.3112C73.9658 18.6531 66.608 20.4175 60.1002 19.2304C59.1006 19.0433 58.1102 18.7511 57.1388 18.387C56.5483 18.1657 55.8862 18.5043 55.7406 19.1179C55.3155 20.909 54.7987 22.6611 54.0441 24.3203C51.193 30.5648 43.0296 32.4919 39.665 38.5737C34.8129 47.3632 33.7504 55.9085 25.1088 62.8197C19.7845 67.0889 13.2901 69.2987 9.48033 73.3007C8.91567 73.8938 9.42979 74.7731 10.2428 74.6746V74.6746C11.4558 74.4144 12.7219 74.0322 13.9969 73.6582"/>
</mask>
<path d="M13.9969 73.6582C18.5834 72.2841 24.2765 70.5766 28.4291 74.3087C29.8634 75.6015 30.5806 77.187 31.2181 78.5937C31.5634 79.358 31.8911 80.1304 32.3869 80.8052C33.7239 82.6509 36.2827 83.6672 38.9921 84.7486L40.7718 85.4723C57.1341 92.351 66.909 109.783 63.509 126.004C63.2788 127.126 62.9779 128.24 62.6945 129.363C61.9596 132.16 61.2601 134.802 61.5612 137.363C61.7029 138.64 62.0747 139.868 62.4466 141.095C62.8539 142.461 63.2523 143.819 63.4471 145.218C63.9607 149.047 62.9779 152.665 62.0216 156.162C61.3487 158.65 60.7024 160.992 60.6138 163.325C60.4899 166.268 62.3934 169.724 64.97 171.188C66.7789 172.218 68.0334 171.707 68.5235 171.462C68.575 171.437 68.6232 171.406 68.669 171.371L70.5923 169.911C71.3715 169.228 72.248 168.439 73.3548 167.838C78.8444 164.813 84.7413 167.83 89.9475 170.488C95.2157 173.188 98.5979 174.7 101.024 172.773L101.954 171.879C102.627 171.171 103.494 170.285 104.734 169.7C109.958 167.236 113.96 172.025 116.598 175.172L117.82 176.595C120.724 179.847 125.328 181.327 130.198 182.88C133.696 184.002 137.308 185.156 140.522 187.043C145.48 189.962 148.889 194.255 152.192 198.401C154.264 201.003 156.212 203.451 158.514 205.589C163.738 210.443 170.467 213.427 177.594 216.582C182.907 218.94 188.396 221.371 193.275 224.664C204.856 232.494 213.33 245.414 219.2 264.164C220.634 268.749 221.883 273.4 223.131 278.051C225.769 287.922 228.497 298.11 233.145 307.379C240.738 322.519 253.218 335.036 265.573 347.064C265.891 347.374 266.373 347.435 266.764 347.226C274.804 342.917 284.675 341.585 293.698 343.643L295.646 344.114C298.063 344.732 300.321 345.317 302.384 344.919C308.024 343.821 309.405 336.187 309.574 329.983C310.176 308.168 312.221 286.109 314.187 264.782C314.842 257.683 315.515 250.333 317.542 243.178C319.72 235.502 323.404 228.274 326.972 221.282L341.433 192.941C341.556 192.7 341.576 192.419 341.489 192.163L321.562 133.786L321.061 132.694C320.967 132.49 320.807 132.323 320.607 132.221L319.278 131.542L318.552 131.249C315.488 129.972 313.062 127.907 311.035 126.078C309.149 124.37 307.272 122.59 305.377 120.776C296.186 112.019 286.686 102.962 274.423 102.58L273.086 102.555C270.97 102.539 268.579 102.514 266.339 101.441C261.142 98.9532 260.911 93.5382 260.708 88.7654C260.54 84.9032 260.389 81.2524 257.848 79.797C256.971 79.2929 255.776 79.0571 254.501 78.8051C252.633 78.4311 250.526 78.0081 248.746 76.6503C245.682 74.3086 245.443 70.8531 245.24 67.804C245.125 66.0803 245.01 64.4542 244.434 63.1614C242.876 59.6407 237.846 58.2746 232.631 57.3314C226.159 56.1524 218.854 54.8028 212.258 56.372C206.591 57.7136 200.677 62.2181 200.863 67.9259C200.887 68.6463 200.549 69.3268 199.947 69.7752C199.82 69.87 199.665 69.9156 199.507 69.9268L197.562 70.0638C197.404 70.0749 197.246 70.0487 197.1 69.9869C186.353 65.4267 172.947 61.0825 164.074 67.3975L162.56 68.5195C159.036 71.1701 154.211 74.8128 149.42 71.845C146.605 70.1132 146.012 67.1047 145.534 64.6899C144.027 57.2163 139.972 50.7566 134.046 46.0789C133.984 46.0299 133.917 45.9872 133.842 45.9604C132.64 45.5275 130.483 46.476 127.409 48.0054C123.947 49.7372 119.635 51.8839 115.527 49.5422C112.269 47.6803 111.578 44.184 111.02 41.387C108.922 30.825 103.778 21.003 96.1277 12.9453C94.7287 11.4736 93.5157 10.3921 92.1167 9.96117C89.0266 9.03425 85.5116 11.3028 82.0939 13.5144L80.8366 14.3112C73.9658 18.6531 66.608 20.4175 60.1002 19.2304C59.1006 19.0433 58.1102 18.7511 57.1388 18.387C56.5483 18.1657 55.8862 18.5043 55.7406 19.1179C55.3155 20.909 54.7987 22.6611 54.0441 24.3203C51.193 30.5648 43.0296 32.4919 39.665 38.5737C34.8129 47.3632 33.7504 55.9085 25.1088 62.8197C19.7845 67.0889 13.2901 69.2987 9.48033 73.3007C8.91567 73.8938 9.42979 74.7731 10.2428 74.6746V74.6746C11.4558 74.4144 12.7219 74.0322 13.9969 73.6582" fill="white"/>
<path d="M28.4291 74.3087L34.4451 67.6148L34.4546 67.6234L28.4291 74.3087ZM31.2181 78.5937L39.4156 74.8785L39.4199 74.8881L31.2181 78.5937ZM32.3869 80.8052L39.6398 75.4764L39.6578 75.5009L39.6756 75.5255L32.3869 80.8052ZM38.9921 84.7486L42.3284 76.3898L42.3555 76.4006L42.3825 76.4116L38.9921 84.7486ZM40.7718 85.4723L44.1622 77.1354L44.211 77.1552L44.2596 77.1757L40.7718 85.4723ZM63.509 126.004L54.6927 124.196L54.6965 124.177L54.7005 124.158L63.509 126.004ZM62.6945 129.363L71.4206 131.566L71.4101 131.608L71.3991 131.65L62.6945 129.363ZM61.5612 137.363L70.4997 136.313L70.5031 136.342L70.5063 136.371L61.5612 137.363ZM62.4466 141.095L71.0602 138.486L71.0658 138.505L71.0714 138.524L62.4466 141.095ZM63.4471 145.218L72.3611 143.976L72.3642 143.999L72.3673 144.022L63.4471 145.218ZM62.0216 156.162L53.3338 153.812L53.3371 153.8L53.3405 153.787L62.0216 156.162ZM60.6138 163.325L69.6074 163.666L69.6067 163.685L69.6059 163.704L60.6138 163.325ZM64.97 171.188L69.4152 163.362L69.425 163.367L64.97 171.188ZM70.5923 169.911L76.5249 176.679L76.2867 176.888L76.0344 177.079L70.5923 169.911ZM73.3548 167.838L77.6981 175.72L77.6758 175.733L77.6534 175.745L73.3548 167.838ZM89.9475 170.488L94.0409 162.473L94.0517 162.479L89.9475 170.488ZM101.024 172.773L107.263 179.259L106.956 179.555L106.622 179.82L101.024 172.773ZM101.954 171.879L108.474 178.082L108.337 178.227L108.193 178.365L101.954 171.879ZM104.734 169.7L100.89 161.561L100.895 161.559L104.734 169.7ZM116.598 175.172L109.77 181.035L109.736 180.995L109.702 180.955L116.598 175.172ZM117.82 176.595L111.107 182.589L111.049 182.524L110.992 182.458L117.82 176.595ZM130.198 182.88L132.933 174.305L132.94 174.308L132.948 174.31L130.198 182.88ZM140.522 187.043L145.078 179.281L145.088 179.287L140.522 187.043ZM152.192 198.401L159.232 192.794L159.232 192.795L152.192 198.401ZM158.514 205.589L164.639 198.995L164.64 198.996L158.514 205.589ZM177.594 216.582L181.237 208.352L181.245 208.356L177.594 216.582ZM193.275 224.664L198.31 217.204L198.316 217.208L193.275 224.664ZM219.2 264.164L227.789 261.475L227.789 261.477L219.2 264.164ZM223.131 278.051L231.823 275.718L231.826 275.727L223.131 278.051ZM233.145 307.379L225.1 311.414L225.1 311.414L233.145 307.379ZM293.698 343.643L295.699 334.868L295.757 334.881L295.815 334.895L293.698 343.643ZM295.646 344.114L297.763 335.367L297.819 335.38L297.875 335.394L295.646 344.114ZM302.384 344.919L304.103 353.753L304.091 353.756L302.384 344.919ZM309.574 329.983L300.577 329.739L300.577 329.734L309.574 329.983ZM314.187 264.782L305.225 263.956L305.225 263.954L314.187 264.782ZM317.542 243.178L308.883 240.724L308.884 240.721L317.542 243.178ZM326.972 221.282L334.989 225.372L334.989 225.372L326.972 221.282ZM321.562 133.786L329.74 130.028L329.931 130.444L330.08 130.878L321.562 133.786ZM319.278 131.542L322.642 123.194L323.016 123.345L323.375 123.528L319.278 131.542ZM318.552 131.249L315.187 139.596L315.139 139.577L315.09 139.557L318.552 131.249ZM311.035 126.078L305.006 132.76L305 132.755L304.994 132.749L311.035 126.078ZM305.377 120.776L311.585 114.261L311.592 114.267L311.599 114.274L305.377 120.776ZM274.423 102.58L274.587 93.5811L274.645 93.5822L274.703 93.584L274.423 102.58ZM273.086 102.555L273.155 93.5555L273.203 93.5558L273.25 93.5567L273.086 102.555ZM266.339 101.441L270.225 93.3234L270.228 93.3247L266.339 101.441ZM260.708 88.7654L269.699 88.3737L269.7 88.3817L260.708 88.7654ZM257.848 79.797L253.375 87.6068L253.368 87.6028L253.361 87.5988L257.848 79.797ZM254.501 78.8051L252.756 87.6342L252.745 87.6321L252.734 87.63L254.501 78.8051ZM248.746 76.6503L243.287 83.8055L243.28 83.8006L248.746 76.6503ZM245.24 67.804L236.26 68.4038L236.26 68.4037L245.24 67.804ZM244.434 63.1614L236.212 66.8216L236.208 66.8128L236.204 66.8041L244.434 63.1614ZM232.631 57.3314L231.03 66.1877L231.019 66.1857L232.631 57.3314ZM212.258 56.372L214.341 65.1277L214.332 65.1299L212.258 56.372ZM200.863 67.9259L191.868 68.2258L191.868 68.2189L200.863 67.9259ZM164.074 67.3975L158.716 60.1664L158.785 60.115L158.855 60.065L164.074 67.3975ZM162.56 68.5195L157.15 61.327L157.176 61.3076L157.202 61.2883L162.56 68.5195ZM149.42 71.845L154.136 64.1791L154.148 64.1867L154.161 64.1944L149.42 71.845ZM145.534 64.6899L154.356 62.9119L154.359 62.9269L154.362 62.9419L145.534 64.6899ZM127.409 48.0054L123.383 39.9564L123.391 39.9521L123.4 39.9479L127.409 48.0054ZM115.527 49.5422L111.07 57.3613L111.062 57.3563L115.527 49.5422ZM111.02 41.387L102.194 43.1472L102.193 43.1408L111.02 41.387ZM96.1277 12.9453L102.651 6.74459L102.655 6.74863L96.1277 12.9453ZM92.1167 9.96117L94.7026 1.34064L94.7344 1.3502L94.7662 1.36L92.1167 9.96117ZM82.0939 13.5144L86.9834 21.0704L86.9476 21.0936L86.9116 21.1164L82.0939 13.5144ZM80.8366 14.3112L85.6542 21.9132L85.6445 21.9194L80.8366 14.3112ZM60.1002 19.2304L58.4852 28.0843L58.4648 28.0806L58.4444 28.0768L60.1002 19.2304ZM54.0441 24.3203L62.2365 28.0465L62.2311 28.0583L54.0441 24.3203ZM39.665 38.5737L31.7858 34.2242L31.7898 34.217L39.665 38.5737ZM25.1088 62.8197L19.4787 55.7982L19.4876 55.7911L25.1088 62.8197ZM9.48033 73.3007L2.96176 67.0952L9.48033 73.3007ZM57.1388 18.387L60.2974 9.95949L57.1388 18.387ZM55.7406 19.1179L46.9838 17.0396L55.7406 19.1179ZM197.562 70.0638L196.929 61.086L197.562 70.0638ZM197.1 69.9869L200.616 61.7018L197.1 69.9869ZM341.433 192.941L333.417 188.85L341.433 192.941ZM341.489 192.163L332.971 195.07L332.971 195.07L341.489 192.163ZM321.061 132.694L312.883 136.452L321.061 132.694ZM320.607 132.221L324.704 124.208L320.607 132.221ZM134.046 46.0789L139.623 39.0147L134.046 46.0789ZM133.842 45.9604L130.792 54.4279L133.842 45.9604ZM265.573 347.064L259.295 353.513L265.573 347.064ZM266.764 347.226L262.513 339.293L266.764 347.226ZM199.947 69.7752L194.569 62.559L199.947 69.7752ZM199.507 69.9268L198.874 60.949L199.507 69.9268ZM68.5235 171.462L72.5366 179.518L68.5235 171.462ZM68.669 171.371L74.1111 178.539L68.669 171.371ZM11.4139 65.0368C13.5061 64.41 17.123 63.2796 20.9037 63.081C24.9837 62.8668 30.0678 63.6809 34.4451 67.6148L22.4131 81.0026C22.4069 80.997 22.4313 81.019 22.4819 81.0467C22.5044 81.059 22.5256 81.0689 22.5434 81.0762C22.552 81.0797 22.5589 81.0822 22.5639 81.0839C22.5688 81.0857 22.5714 81.0864 22.5714 81.0864C22.5703 81.0861 22.3682 81.0289 21.8477 81.0563C20.597 81.1219 19.0742 81.5323 16.5799 82.2796L11.4139 65.0368ZM34.4546 67.6234C37.4668 70.3384 38.8409 73.6105 39.4156 74.8785L23.0207 82.3088C22.853 81.9386 22.742 81.6952 22.63 81.4662C22.5247 81.2508 22.4499 81.1143 22.3957 81.0234C22.2968 80.8578 22.2981 80.899 22.4036 80.994L34.4546 67.6234ZM39.4199 74.8881C39.4675 74.9936 39.518 75.106 39.5557 75.1899C39.5968 75.2814 39.6308 75.3566 39.6625 75.4261C39.7266 75.5664 39.7655 75.6473 39.7911 75.6984C39.8449 75.8056 39.7946 75.6871 39.6398 75.4764L25.1341 86.134C23.9481 84.5198 23.2047 82.716 23.0164 82.2992L39.4199 74.8881ZM39.6756 75.5255C39.2255 74.9041 38.8852 74.8381 39.4586 75.1484C39.7098 75.2843 40.0599 75.4524 40.5626 75.6687C41.074 75.8888 41.6262 76.1095 42.3284 76.3898L35.6558 93.1073C34.4242 92.6158 32.5866 91.8963 30.8911 90.9787C29.1735 90.0491 26.8854 88.5521 25.0983 86.0849L39.6756 75.5255ZM42.3825 76.4116L44.1622 77.1354L37.3813 93.8093L35.6016 93.0855L42.3825 76.4116ZM44.2596 77.1757C64.1866 85.5529 76.6899 106.991 72.3176 127.851L54.7005 124.158C57.1281 112.576 50.0817 99.1492 37.2839 93.769L44.2596 77.1757ZM72.3254 127.813C72.0414 129.198 71.6544 130.64 71.4206 131.566L53.9684 127.159C54.3014 125.841 54.5163 125.055 54.6927 124.196L72.3254 127.813ZM71.3991 131.65C70.5556 134.86 70.435 135.763 70.4997 136.313L52.6227 138.414C52.0853 133.842 53.3636 129.459 53.99 127.075L71.3991 131.65ZM70.5063 136.371C70.5413 136.687 70.6475 137.124 71.0602 138.486L53.833 143.704C53.502 142.611 52.8644 140.593 52.6161 138.356L70.5063 136.371ZM71.0714 138.524C71.4561 139.814 72.0582 141.801 72.3611 143.976L54.5332 146.459C54.4465 145.837 54.2517 145.109 53.8218 143.667L71.0714 138.524ZM72.3673 144.022C73.1609 149.94 71.5889 155.296 70.7028 158.536L53.3405 153.787C54.3668 150.035 54.7604 148.155 54.527 146.414L72.3673 144.022ZM70.7095 158.511C69.9662 161.26 69.6496 162.554 69.6074 163.666L51.6203 162.984C51.7552 159.429 52.7312 156.04 53.3338 153.812L70.7095 158.511ZM69.6059 163.704C69.6122 163.553 69.6039 163.445 69.5964 163.382C69.5888 163.319 69.5805 163.288 69.5805 163.287C69.5803 163.287 69.5852 163.305 69.599 163.339C69.6127 163.373 69.6314 163.413 69.6549 163.455C69.6784 163.498 69.7023 163.535 69.7233 163.564C69.7445 163.593 69.7571 163.607 69.756 163.606C69.7553 163.605 69.7329 163.581 69.683 163.541C69.6332 163.501 69.5457 163.436 69.4152 163.362L60.5248 179.013C57.5127 177.302 55.3148 174.719 53.9035 172.167C52.4929 169.616 51.4768 166.39 51.6218 162.946L69.6059 163.704ZM69.425 163.367C68.9104 163.074 67.9858 162.755 66.7986 162.814C65.683 162.869 64.8548 163.235 64.5104 163.407L72.5366 179.518C71.7021 179.934 70.0015 180.678 67.6839 180.792C65.2948 180.91 62.8386 180.331 60.515 179.008L69.425 163.367ZM63.227 164.203L65.1503 162.743L76.0344 177.079L74.1111 178.539L63.227 164.203ZM64.6598 163.143C65.2824 162.597 66.9118 161.096 69.0562 159.931L77.6534 175.745C77.6699 175.736 77.6025 175.77 77.4141 175.918C77.1911 176.094 76.9835 176.277 76.5249 176.679L64.6598 163.143ZM69.0116 159.955C74.3454 157.016 79.6956 157.231 83.9566 158.305C87.9335 159.307 91.6322 161.243 94.0409 162.473L85.8542 178.504C83.0566 177.075 81.2037 176.174 79.5582 175.759C78.1968 175.416 77.8537 175.635 77.6981 175.72L69.0116 159.955ZM94.0517 162.479C95.3541 163.146 96.3751 163.654 97.2413 164.043C98.1222 164.438 98.6097 164.601 98.8374 164.661C99.0671 164.721 98.6945 164.584 97.96 164.67C97.0863 164.773 96.1672 165.137 95.4261 165.726L106.622 179.82C102.327 183.232 97.5402 182.93 94.2656 182.07C91.342 181.303 88.2959 179.755 85.8433 178.498L94.0517 162.479ZM94.7848 166.287L95.7145 165.392L108.193 178.365L107.263 179.259L94.7848 166.287ZM95.4328 165.676C96.1365 164.936 97.9985 162.927 100.89 161.561L108.577 177.838C108.816 177.725 108.936 177.621 108.921 177.633C108.912 177.641 108.876 177.672 108.802 177.745C108.722 177.823 108.63 177.918 108.474 178.082L95.4328 165.676ZM100.895 161.559C107.073 158.646 112.712 160.309 116.523 162.775C119.843 164.922 122.349 168.023 123.495 169.389L109.702 180.955C109.014 180.134 108.472 179.493 107.908 178.911C107.346 178.332 106.964 178.029 106.748 177.889C106.547 177.759 106.731 177.928 107.244 177.996C107.86 178.077 108.367 177.937 108.573 177.84L100.895 161.559ZM123.426 169.308L124.648 170.731L110.992 182.458L109.77 181.035L123.426 169.308ZM124.533 170.6C125.482 171.662 127.402 172.541 132.933 174.305L127.464 191.454C123.255 190.112 115.967 188.032 111.107 182.589L124.533 170.6ZM132.948 174.31C136.267 175.375 140.857 176.804 145.078 179.281L135.967 194.805C133.759 193.509 131.124 192.629 127.449 191.45L132.948 174.31ZM145.088 179.287C151.705 183.182 156.08 188.837 159.232 192.794L145.152 204.008C141.698 199.672 139.256 196.741 135.956 194.798L145.088 179.287ZM159.232 192.795C161.382 195.495 162.917 197.395 164.639 198.995L152.388 212.183C149.507 209.506 147.145 206.512 145.151 204.008L159.232 192.795ZM164.64 198.996C168.562 202.64 173.815 205.067 181.237 208.352L173.952 224.812C167.119 221.788 158.913 218.246 152.387 212.182L164.64 198.996ZM181.245 208.356C186.422 210.654 192.66 213.391 198.31 217.204L188.24 232.124C184.133 229.352 179.391 227.226 173.943 224.808L181.245 208.356ZM198.316 217.208C212.155 226.565 221.553 241.558 227.789 261.475L210.611 266.853C205.106 249.27 197.557 238.423 188.234 232.12L198.316 217.208ZM227.789 261.477C229.288 266.268 230.583 271.097 231.823 275.718L214.439 280.384C213.182 275.703 211.98 271.231 210.61 266.85L227.789 261.477ZM231.826 275.727C234.505 285.751 237.023 295.035 241.19 303.344L225.1 311.414C219.97 301.185 217.034 290.092 214.436 280.375L231.826 275.727ZM241.19 303.344C248.005 316.932 259.372 328.466 271.851 340.616L259.295 353.513C247.065 341.606 233.472 328.106 225.1 311.414L241.19 303.344ZM262.513 339.293C272.48 333.951 284.573 332.331 295.699 334.868L291.697 352.417C284.777 350.839 277.128 351.882 271.016 355.158L262.513 339.293ZM295.815 334.895L297.763 335.367L293.529 352.861L291.581 352.39L295.815 334.895ZM297.875 335.394C299.192 335.731 299.913 335.909 300.523 336.003C301.081 336.09 301.034 336.014 300.678 336.082L304.091 353.756C299.646 354.614 295.247 353.302 293.417 352.834L297.875 335.394ZM300.665 336.085C300.083 336.198 299.599 336.523 299.36 336.773C299.211 336.928 299.365 336.834 299.617 336.171C300.159 334.744 300.503 332.464 300.577 329.739L318.57 330.227C318.476 333.705 318.046 338.344 316.445 342.561C314.841 346.784 311.286 352.355 304.103 353.753L300.665 336.085ZM300.577 329.734C301.188 307.58 303.264 285.229 305.225 263.956L323.149 265.608C321.178 286.989 319.163 308.756 318.57 330.231L300.577 329.734ZM305.225 263.954C305.867 256.992 306.592 248.81 308.883 240.724L326.201 245.632C324.438 251.856 323.816 258.375 323.148 265.609L305.225 263.954ZM308.884 240.721C311.343 232.056 315.455 224.05 318.955 217.191L334.989 225.372C331.352 232.498 328.098 238.949 326.2 245.635L308.884 240.721ZM318.955 217.191L333.417 188.85L349.45 197.031L334.989 225.372L318.955 217.191ZM332.971 195.07L313.045 136.693L330.08 130.878L350.006 189.256L332.971 195.07ZM313.384 137.543L312.883 136.452L329.239 128.936L329.74 130.028L313.384 137.543ZM316.51 140.235L315.181 139.555L323.375 123.528L324.704 124.208L316.51 140.235ZM315.913 139.889L315.187 139.596L321.916 122.901L322.642 123.194L315.913 139.889ZM315.09 139.557C310.495 137.642 307.096 134.646 305.006 132.76L317.064 119.396C319.029 121.169 320.481 122.303 322.013 122.941L315.09 139.557ZM304.994 132.749C303.011 130.954 301.06 129.102 299.154 127.279L311.599 114.274C313.483 116.077 315.286 117.786 317.075 119.406L304.994 132.749ZM299.168 127.292C294.458 122.804 290.337 118.908 286.023 116.002C281.83 113.176 278.025 111.696 274.143 111.575L274.703 93.584C283.084 93.8452 290.16 97.0848 296.081 101.073C301.881 104.981 307.105 109.992 311.585 114.261L299.168 127.292ZM274.259 111.578L272.922 111.554L273.25 93.5567L274.587 93.5811L274.259 111.578ZM273.017 111.555C271.139 111.541 266.762 111.623 262.45 109.558L270.228 93.3247C270.235 93.3282 270.391 93.4038 270.872 93.4636C271.417 93.5316 272.038 93.5469 273.155 93.5555L273.017 111.555ZM262.453 109.559C257.206 107.047 254.424 102.855 253.089 98.7341C251.911 95.0978 251.807 91.2755 251.716 89.149L269.7 88.3817C269.753 89.6234 269.796 90.5648 269.891 91.4438C269.984 92.3037 270.103 92.8463 270.213 93.186C270.314 93.4979 270.368 93.5145 270.286 93.4145C270.18 93.2835 270.099 93.263 270.225 93.3234L262.453 109.559ZM251.716 89.157C251.672 88.1482 251.639 87.3912 251.58 86.7044C251.522 86.0225 251.457 85.6488 251.413 85.4671C251.369 85.2809 251.403 85.539 251.68 85.9895C252.001 86.5107 252.559 87.1396 253.375 87.6068L262.321 71.9873C266.663 74.4744 268.272 78.5635 268.922 81.2903C269.539 83.8772 269.626 86.6997 269.699 88.3737L251.716 89.157ZM253.361 87.5988C253.639 87.7585 253.848 87.8439 253.939 87.8785C254.031 87.9132 254.054 87.916 253.976 87.8948C253.897 87.8736 253.767 87.8416 253.551 87.7954C253.33 87.7479 253.089 87.7001 252.756 87.6342L256.247 69.976C257.035 70.1319 259.897 70.5932 262.335 71.9952L253.361 87.5988ZM252.734 87.63C251.128 87.3084 246.962 86.6097 243.287 83.8055L254.205 69.4951C254.078 69.3978 254.07 69.4382 254.394 69.5445C254.787 69.6735 255.263 69.7791 256.268 69.9802L252.734 87.63ZM243.28 83.8006C236.554 78.6595 236.427 70.9091 236.26 68.4038L254.22 67.2043C254.273 68.0005 254.311 68.5337 254.373 69.0241C254.431 69.4913 254.492 69.7451 254.53 69.8711C254.563 69.9805 254.56 69.9267 254.476 69.7978C254.382 69.6534 254.273 69.5472 254.211 69.4999L243.28 83.8006ZM236.26 68.4037C236.23 67.9646 236.207 67.6242 236.18 67.3101C236.153 67.002 236.128 66.786 236.105 66.6289C236.053 66.273 236.038 66.4318 236.212 66.8216L252.656 59.5011C254.011 62.5454 254.134 65.9216 254.22 67.2044L236.26 68.4037ZM236.204 66.8041C236.756 68.0515 237.543 68.0585 236.366 67.5553C235.249 67.0779 233.532 66.6403 231.03 66.1877L234.233 48.4751C236.946 48.9657 240.351 49.6828 243.442 51.0044C246.473 52.3002 250.553 54.7506 252.664 59.5186L236.204 66.8041ZM231.019 66.1857C224.101 64.9257 218.76 64.0764 214.341 65.1277L210.175 47.6164C218.949 45.5291 228.217 47.3791 234.244 48.4771L231.019 66.1857ZM214.332 65.1299C212.872 65.4755 211.41 66.2531 210.487 67.1096C209.566 67.9642 209.876 68.1741 209.858 67.6329L191.868 68.2189C191.664 61.9699 194.839 57.0736 198.245 53.9136C201.649 50.7556 205.977 48.6102 210.185 47.6141L214.332 65.1299ZM209.858 67.6261C209.985 71.4467 208.165 74.8752 205.326 76.9914L194.569 62.559C192.933 63.7784 191.789 65.846 191.868 68.2258L209.858 67.6261ZM200.139 78.9045L198.194 79.0415L196.929 61.086L198.874 60.949L200.139 78.9045ZM193.585 78.2719C188.38 76.0634 183.195 74.2082 178.555 73.5153C173.883 72.8176 171.047 73.4815 169.293 74.73L158.855 60.065C165.974 54.9985 174.278 54.677 181.213 55.7127C188.181 56.7532 195.073 59.3502 200.616 61.7018L193.585 78.2719ZM169.432 74.6286L167.918 75.7506L157.202 61.2883L158.716 60.1664L169.432 74.6286ZM167.97 75.7119C166.411 76.8842 163.331 79.2793 159.72 80.68C155.68 82.2469 150.151 82.8848 144.68 79.4957L154.161 64.1944C154.006 64.0989 153.661 63.9657 153.261 63.954C152.944 63.9448 152.892 64.0216 153.21 63.8983C153.543 63.7693 154.049 63.512 154.773 63.039C155.505 62.561 156.233 62.0169 157.15 61.327L167.97 75.7119ZM144.705 79.5109C138.093 75.444 137.077 68.3165 136.705 66.4379L154.362 62.9419C154.489 63.5807 154.569 63.9767 154.663 64.3412C154.751 64.684 154.813 64.8427 154.836 64.8933C154.853 64.9324 154.81 64.8228 154.669 64.6507C154.517 64.464 154.326 64.2963 154.136 64.1791L144.705 79.5109ZM136.711 66.4679C135.637 61.1386 132.764 56.5331 128.47 53.1431L139.623 39.0147C147.179 44.9801 152.418 53.2941 154.356 62.9119L136.711 66.4679ZM130.792 54.4279C132.265 54.9583 133.443 54.8667 133.869 54.814C134.315 54.7586 134.498 54.6731 134.289 54.7458C134.11 54.808 133.79 54.9349 133.269 55.1717C132.758 55.4043 132.156 55.6961 131.419 56.0628L123.4 39.9479C124.901 39.2009 126.683 38.3346 128.366 37.7482C129.568 37.3293 133.094 36.1251 136.892 37.4928L130.792 54.4279ZM131.436 56.0544C129.87 56.8376 126.966 58.3359 123.707 59.0772C120.156 59.8849 115.603 59.9451 111.07 57.3613L119.984 41.7232C119.864 41.6547 119.674 41.5927 119.503 41.576C119.373 41.5633 119.417 41.5932 119.714 41.5255C120.025 41.4548 120.479 41.309 121.133 41.0294C121.802 40.7435 122.487 40.4044 123.383 39.9564L131.436 56.0544ZM111.062 57.3563C103.74 53.1725 102.619 45.2772 102.194 43.1472L119.846 39.6267C119.994 40.3643 120.094 40.8602 120.215 41.3251C120.329 41.7687 120.422 42.018 120.48 42.1489C120.533 42.2679 120.526 42.2162 120.42 42.0891C120.298 41.9447 120.14 41.8127 119.992 41.7281L111.062 57.3563ZM102.193 43.1408C100.437 34.3034 96.1192 26.0079 89.6007 19.142L102.655 6.74863C111.436 15.998 117.407 27.3466 119.848 39.6331L102.193 43.1408ZM89.6046 19.146C89.3172 18.8438 89.0952 18.6206 88.9151 18.4498C88.7352 18.2792 88.6334 18.1956 88.5945 18.1654C88.5135 18.1023 88.8242 18.3643 89.4672 18.5623L94.7662 1.36C98.6449 2.5548 101.282 5.30501 102.651 6.74459L89.6046 19.146ZM89.5309 18.5817C90.9247 18.9998 91.6413 18.4599 90.7837 18.8288C90.4262 18.9825 89.936 19.2349 89.2589 19.6365C88.5764 20.0413 87.8627 20.5014 86.9834 21.0704L77.2044 5.95845C78.7585 4.95278 81.151 3.3774 83.6726 2.29297C86.1995 1.20631 90.2187 -0.0043596 94.7026 1.34064L89.5309 18.5817ZM86.9116 21.1164L85.6542 21.9132L76.019 6.70924L77.2763 5.91244L86.9116 21.1164ZM85.6445 21.9194C77.3465 27.1632 67.7177 29.7685 58.4852 28.0843L61.7153 10.3765C65.4983 11.0666 70.5852 10.143 76.0287 6.70305L85.6445 21.9194ZM58.4444 28.0768C56.8421 27.7769 55.3448 27.326 53.9802 26.8146L60.2974 9.95949C60.8756 10.1762 61.3591 10.3098 61.756 10.3841L58.4444 28.0768ZM64.4973 21.1961C64.0054 23.2688 63.3288 25.6449 62.2365 28.0465L45.8516 20.5942C46.2686 19.6774 46.6255 18.5493 46.9838 17.0396L64.4973 21.1961ZM62.2311 28.0583C59.6637 33.6816 54.8408 36.9923 52.2951 38.8195C49.0394 41.1564 48.0528 42.0038 47.5402 42.9304L31.7898 34.217C34.6417 29.0618 39.4192 25.9047 41.7991 24.1965C44.889 21.9786 45.5734 21.2036 45.857 20.5824L62.2311 28.0583ZM47.5442 42.9233C46.5539 44.7171 45.719 46.5667 44.8345 48.6358C44.0008 50.5861 43.014 53.0025 41.9333 55.2712C39.6329 60.101 36.4734 65.255 30.73 69.8484L19.4876 55.7911C22.3857 53.4732 24.0783 50.899 25.6826 47.5309C26.5543 45.7007 27.283 43.9007 28.2832 41.5608C29.2327 39.3397 30.35 36.8251 31.7858 34.2242L47.5442 42.9233ZM30.7389 69.8413C27.4034 72.5158 23.723 74.5226 21.2049 75.9671C18.3232 77.6202 16.8725 78.5885 15.9989 79.5062L2.96176 67.0952C5.89797 64.0108 9.59935 61.8732 12.2483 60.3537C15.2609 58.6255 17.4899 57.3929 19.4787 55.7982L30.7389 69.8413ZM8.35527 65.8747C9.16326 65.7014 10.0476 65.4375 11.4635 65.0221L16.5303 82.2943C15.3962 82.627 13.7484 83.1273 12.1303 83.4744L8.35527 65.8747ZM15.9989 79.5062C18.5574 76.8186 18.8922 72.8403 17.1754 69.8103C15.5543 66.9491 12.3807 65.3497 9.16025 65.7399L11.3254 83.6092C7.29191 84.0979 3.45478 82.1082 1.51448 78.6836C-0.521429 75.0904 -0.161431 70.3759 2.96176 67.0952L15.9989 79.5062ZM53.9802 26.8146C58.278 28.4253 63.3467 26.0444 64.4973 21.1961L46.9838 17.0396C48.4257 10.9642 54.8186 7.90608 60.2974 9.95949L53.9802 26.8146ZM198.194 79.0415C196.622 79.1523 195.043 78.8906 193.585 78.2719L200.616 61.7018C199.449 61.2069 198.185 60.9976 196.929 61.086L198.194 79.0415ZM333.417 188.85C332.433 190.778 332.272 193.022 332.971 195.07L350.006 189.256C350.88 191.816 350.68 194.621 349.45 197.031L333.417 188.85ZM312.883 136.452C313.633 138.084 314.91 139.417 316.51 140.235L324.704 124.208C326.704 125.23 328.301 126.896 329.239 128.936L312.883 136.452ZM128.47 53.1431C128.867 53.4564 129.652 54.0171 130.792 54.4279L136.892 37.4928C138.181 37.9573 139.102 38.6034 139.623 39.0147L128.47 53.1431ZM271.851 340.616C269.275 338.108 265.477 337.704 262.513 339.293L271.016 355.158C267.27 357.166 262.506 356.64 259.295 353.513L271.851 340.616ZM205.326 76.9914C203.478 78.3685 201.537 78.806 200.139 78.9045L198.874 60.949C197.792 61.0252 196.162 61.3715 194.569 62.559L205.326 76.9914ZM64.5104 163.407C63.9902 163.666 63.563 163.948 63.227 164.203L74.1111 178.539C73.6834 178.864 73.1599 179.208 72.5366 179.518L64.5104 163.407Z" fill="#FFBF02" mask="url(#path-1-outside-1_1088_25011)"/>
</svg>
