<svg width="205" height="219" viewBox="0 0 205 219" fill="none" xmlns="http://www.w3.org/2000/svg">
<mask id="path-1-outside-1_1088_25026" maskUnits="userSpaceOnUse" x="-0.015625" y="-0.236328" width="205" height="219" fill="black">
<rect fill="white" x="-0.015625" y="-0.236328" width="205" height="219"/>
<path d="M186.802 106.624C189.821 96.4523 196.7 83.7275 195.434 73.068C194.522 65.3518 186.925 60.6605 187.625 52.5053C188.2 45.8624 193.336 28.5029 185.996 24.9498C182.977 23.4862 182.242 24.6001 180.471 21.8682C178.895 19.4289 179.364 16.6971 176.876 14.2985C174.849 12.3471 170.351 9.29798 167.314 9.36303C162.807 9.46873 160.044 14.2659 156.166 15.6237C149.269 18.0386 134.651 13.2657 132.641 22.0714C131.933 25.1774 133.757 29.0721 132.482 32.0724C131.375 34.6824 127.807 35.5281 126.594 38.0649C124.876 41.6913 127.86 42.6262 129.268 46.1225C131.056 50.5538 130.268 54.9608 128.63 59.2295C126.877 63.7665 124.929 68.0432 123.627 72.7103C122.397 77.1091 120.954 82.1178 116.234 84.4025C112.516 86.2157 111.364 85.6059 108.584 89.4436C106.831 91.8585 103.555 102.176 100.501 103.014C99.0928 103.396 95.7989 101.233 94.1875 100.949C89.5833 100.119 85.7761 101.616 82.2522 104.356C77.2142 108.275 74.3986 114.072 69.4669 118.072C65.5179 121.276 65.4559 119.926 61.1971 119.178C55.2471 118.113 53.7242 122.024 50.5455 125.967C49.0138 127.87 47.0306 130.244 44.9676 131.724C43.3385 132.895 40.877 133.318 39.4072 134.545C36.5208 136.96 38.0879 140.148 36.9812 143.343C35.3786 147.945 31.6509 148.465 27.091 149.807C21.1038 151.577 15.9675 155.363 10.3379 155.246C9.66409 155.232 9.09721 155.815 9.22786 156.476C9.6152 158.437 10.1552 160.466 10.9766 162.629C13.5354 169.394 17.263 175.671 22.0619 181.306C23.2661 182.729 24.9218 184.68 24.6738 187.184C24.4259 189.689 22.4869 191.225 20.9286 192.461C19.928 193.258 18.9808 194.006 18.8391 194.697C18.6355 195.673 20.0077 197.185 20.6629 197.909L30.7398 209.013C31.1145 209.426 31.7538 209.453 32.164 209.075C36.2304 205.334 40.9789 201.383 45.366 199.446C48.4118 198.112 47.7035 199.608 50.4217 199.421C53.9367 199.185 60.1878 196.779 61.7816 193.681C63.092 191.136 61.2502 189.534 64.0569 187.396C66.9965 185.16 72.9201 185.891 76.4086 185.111C90.1767 182.029 99.0042 169.329 110.86 163.215C113.853 161.67 117.89 159.775 121.476 160.483C126.08 161.385 127.727 164.272 133.349 163.434C139.423 162.524 144.195 159.499 146.17 154.108C148.153 148.685 147.073 146.335 153.616 146.311C168.562 146.254 178.284 141.115 184.783 128.431C187.014 124.073 187.492 121.381 186.288 117.007C185.261 113.259 185.677 110.405 186.802 106.624"/>
</mask>
<path d="M186.802 106.624C189.821 96.4523 196.7 83.7275 195.434 73.068C194.522 65.3518 186.925 60.6605 187.625 52.5053C188.2 45.8624 193.336 28.5029 185.996 24.9498C182.977 23.4862 182.242 24.6001 180.471 21.8682C178.895 19.4289 179.364 16.6971 176.876 14.2985C174.849 12.3471 170.351 9.29798 167.314 9.36303C162.807 9.46873 160.044 14.2659 156.166 15.6237C149.269 18.0386 134.651 13.2657 132.641 22.0714C131.933 25.1774 133.757 29.0721 132.482 32.0724C131.375 34.6824 127.807 35.5281 126.594 38.0649C124.876 41.6913 127.86 42.6262 129.268 46.1225C131.056 50.5538 130.268 54.9608 128.63 59.2295C126.877 63.7665 124.929 68.0432 123.627 72.7103C122.397 77.1091 120.954 82.1178 116.234 84.4025C112.516 86.2157 111.364 85.6059 108.584 89.4436C106.831 91.8585 103.555 102.176 100.501 103.014C99.0928 103.396 95.7989 101.233 94.1875 100.949C89.5833 100.119 85.7761 101.616 82.2522 104.356C77.2142 108.275 74.3986 114.072 69.4669 118.072C65.5179 121.276 65.4559 119.926 61.1971 119.178C55.2471 118.113 53.7242 122.024 50.5455 125.967C49.0138 127.87 47.0306 130.244 44.9676 131.724C43.3385 132.895 40.877 133.318 39.4072 134.545C36.5208 136.96 38.0879 140.148 36.9812 143.343C35.3786 147.945 31.6509 148.465 27.091 149.807C21.1038 151.577 15.9675 155.363 10.3379 155.246C9.66409 155.232 9.09721 155.815 9.22786 156.476C9.6152 158.437 10.1552 160.466 10.9766 162.629C13.5354 169.394 17.263 175.671 22.0619 181.306C23.2661 182.729 24.9218 184.68 24.6738 187.184C24.4259 189.689 22.4869 191.225 20.9286 192.461C19.928 193.258 18.9808 194.006 18.8391 194.697C18.6355 195.673 20.0077 197.185 20.6629 197.909L30.7398 209.013C31.1145 209.426 31.7538 209.453 32.164 209.075C36.2304 205.334 40.9789 201.383 45.366 199.446C48.4118 198.112 47.7035 199.608 50.4217 199.421C53.9367 199.185 60.1878 196.779 61.7816 193.681C63.092 191.136 61.2502 189.534 64.0569 187.396C66.9965 185.16 72.9201 185.891 76.4086 185.111C90.1767 182.029 99.0042 169.329 110.86 163.215C113.853 161.67 117.89 159.775 121.476 160.483C126.08 161.385 127.727 164.272 133.349 163.434C139.423 162.524 144.195 159.499 146.17 154.108C148.153 148.685 147.073 146.335 153.616 146.311C168.562 146.254 178.284 141.115 184.783 128.431C187.014 124.073 187.492 121.381 186.288 117.007C185.261 113.259 185.677 110.405 186.802 106.624" fill="white"/>
<path d="M195.434 73.068L186.497 74.1296L186.497 74.1244L195.434 73.068ZM187.625 52.5053L178.658 51.7362L178.659 51.7285L187.625 52.5053ZM185.996 24.9498L182.075 33.0505L182.07 33.0484L185.996 24.9498ZM180.471 21.8682L172.919 26.7634L172.912 26.7524L180.471 21.8682ZM176.876 14.2985L183.117 7.81386L183.123 7.81918L176.876 14.2985ZM167.314 9.36303L167.103 0.365502L167.112 0.365287L167.121 0.365091L167.314 9.36303ZM156.166 15.6237L159.14 24.1181L159.14 24.1182L156.166 15.6237ZM132.641 22.0714L123.866 20.0703L123.867 20.0687L132.641 22.0714ZM132.482 32.0724L124.196 28.5588L124.198 28.5524L132.482 32.0724ZM126.594 38.0649L118.46 34.2122L118.467 34.1973L118.474 34.1825L126.594 38.0649ZM129.268 46.1225L120.922 49.491L120.919 49.4841L129.268 46.1225ZM128.63 59.2295L137.033 62.4538L137.029 62.4636L137.025 62.4734L128.63 59.2295ZM123.627 72.7103L132.297 75.1279L132.295 75.1352L123.627 72.7103ZM116.234 84.4025L112.29 76.3129L112.301 76.3074L112.313 76.3019L116.234 84.4025ZM108.584 89.4436L115.873 94.7236L115.867 94.7309L108.584 89.4436ZM100.501 103.014L102.88 111.694L102.869 111.697L102.858 111.7L100.501 103.014ZM94.1875 100.949L92.6223 109.812L92.6071 109.809L92.592 109.806L94.1875 100.949ZM82.2522 104.356L76.7261 97.2519L76.7276 97.2507L82.2522 104.356ZM69.4669 118.072L63.7968 111.083L63.7972 111.083L69.4669 118.072ZM61.1971 119.178L59.6401 128.042L59.6256 128.04L59.6111 128.037L61.1971 119.178ZM50.5455 125.967L43.5351 120.323L43.5384 120.319L50.5455 125.967ZM44.9676 131.724L39.7152 124.416L39.7218 124.411L44.9676 131.724ZM39.4072 134.545L33.6322 127.642L33.6374 127.638L39.4072 134.545ZM36.9812 143.343L45.4855 146.288L45.4831 146.296L45.4806 146.303L36.9812 143.343ZM27.091 149.807L24.5396 141.176L24.5507 141.173L27.091 149.807ZM10.9766 162.629L19.3906 159.435L19.3945 159.445L10.9766 162.629ZM22.0619 181.306L28.9137 175.47L28.9229 175.481L28.932 175.492L22.0619 181.306ZM20.9286 192.461L15.3217 185.421L15.3289 185.415L15.3361 185.41L20.9286 192.461ZM18.8391 194.697L27.6558 196.504L27.6526 196.52L27.6493 196.536L18.8391 194.697ZM20.6629 197.909L13.9981 203.957L13.9913 203.949L20.6629 197.909ZM45.366 199.446L41.7297 191.213L41.7431 191.207L41.7566 191.201L45.366 199.446ZM50.4217 199.421L49.8039 190.442L49.8116 190.442L49.8193 190.441L50.4217 199.421ZM61.7816 193.681L53.7786 189.564L53.78 189.561L61.7816 193.681ZM64.0569 187.396L58.6026 180.237L58.6082 180.233L64.0569 187.396ZM76.4086 185.111L78.3743 193.894L78.3737 193.894L76.4086 185.111ZM110.86 163.215L114.988 171.212L114.985 171.214L110.86 163.215ZM121.476 160.483L119.745 169.315L119.734 169.312L121.476 160.483ZM133.349 163.434L134.684 172.335L134.675 172.336L133.349 163.434ZM146.17 154.108L154.622 157.199L154.621 157.203L146.17 154.108ZM153.616 146.311L153.651 155.311L153.65 155.311L153.616 146.311ZM184.783 128.431L192.794 132.532L192.793 132.535L184.783 128.431ZM186.288 117.007L177.611 119.396L177.608 119.385L186.288 117.007ZM10.3379 155.246L10.1504 164.244L10.3379 155.246ZM9.22786 156.476L0.398592 158.221L9.22786 156.476ZM178.174 104.063C179.031 101.174 180.134 98.1949 181.179 95.4191C182.26 92.5468 183.288 89.8647 184.192 87.1687C186.054 81.6125 186.882 77.3695 186.497 74.1296L204.372 72.0064C205.253 79.426 203.274 86.8752 201.258 92.8892C200.223 95.9782 199.044 99.0507 198.026 101.758C196.971 104.562 196.082 106.988 195.43 109.185L178.174 104.063ZM186.497 74.1244C186.325 72.6751 185.596 71.4964 183.242 67.6384C181.263 64.394 178.038 58.9642 178.658 51.7362L196.592 53.2744C196.513 54.2016 196.736 55.195 198.609 58.2642C200.106 60.7197 203.631 65.7447 204.372 72.0116L186.497 74.1244ZM178.659 51.7285C178.844 49.5822 179.377 46.7001 179.774 44.3794C180.219 41.7808 180.622 39.2299 180.806 36.8684C180.999 34.4033 180.891 32.8042 180.682 31.944C180.491 31.1554 180.581 32.3277 182.075 33.0505L189.917 16.849C195.081 19.3484 197.282 24.0231 198.174 27.6963C199.048 31.298 198.997 35.1201 198.751 38.2694C198.498 41.5222 197.967 44.7788 197.517 47.4145C197.018 50.328 196.693 52.107 196.591 53.2821L178.659 51.7285ZM182.07 33.0484C181.265 32.6581 182.582 33.2613 180.066 32.4704C178.854 32.0892 177.385 31.4452 175.913 30.2255C174.588 29.1267 173.635 27.8683 172.919 26.7634L188.023 16.9729C188.192 17.234 187.996 16.8608 187.4 16.3673C187.08 16.1021 186.713 15.8578 186.316 15.6534C185.931 15.4556 185.618 15.3471 185.464 15.2988C185.35 15.2631 185.298 15.2538 185.527 15.3097C185.692 15.3501 186.085 15.444 186.506 15.5604C187.455 15.8227 188.592 16.2067 189.922 16.8511L182.07 33.0484ZM172.912 26.7524C171.984 25.316 171.433 23.9483 171.074 22.8916C170.898 22.3752 170.757 21.8974 170.653 21.5405C170.532 21.1223 170.48 20.9336 170.403 20.6812C170.186 19.9665 170.248 20.4095 170.63 20.7778L183.123 7.81918C185.993 10.5861 187.063 13.5943 187.628 15.455C188.29 17.6361 188.131 17.1394 188.03 16.9839L172.912 26.7524ZM170.635 20.7831C170.191 20.3554 169.17 19.5485 168.029 18.9007C167.485 18.5915 167.077 18.4128 166.839 18.3299C166.54 18.2255 166.813 18.3758 167.506 18.361L167.121 0.365091C171.183 0.278088 174.854 2.07672 176.918 3.24846C179.292 4.5968 181.534 6.29016 183.117 7.81387L170.635 20.7831ZM167.525 18.3606C168.507 18.3375 168.756 17.756 167.105 19.0689C166.627 19.449 165.272 20.5819 164.237 21.3418C163.036 22.2239 161.312 23.3578 159.14 24.1181L153.192 7.12936C152.96 7.21077 153.035 7.23579 153.584 6.83318C154.298 6.30843 154.643 5.98089 155.904 4.97871C157.73 3.52717 161.614 0.494231 167.103 0.365502L167.525 18.3606ZM159.14 24.1182C155.903 25.2516 152.387 25.3807 149.976 25.4109C146.853 25.4501 145.288 25.3404 142.966 25.4424C142.008 25.4844 141.283 25.5594 140.736 25.6573C140.182 25.7567 139.992 25.8486 140.027 25.8321C140.477 25.6202 141.234 24.871 141.415 24.0742L123.867 20.0687C125.054 14.869 128.391 11.4143 132.363 9.54519C135.802 7.9271 139.518 7.57641 142.176 7.45968C144.621 7.35231 148.13 7.43266 149.75 7.41236C150.804 7.39916 151.62 7.35928 152.267 7.28762C152.581 7.25289 152.813 7.21502 152.978 7.18115C153.144 7.14704 153.207 7.124 153.192 7.12931L159.14 24.1182ZM141.416 24.0725C141.506 23.6783 141.454 23.5522 141.48 23.978C141.51 24.4794 141.576 24.9251 141.71 26.0413C141.892 27.5636 142.462 31.5972 140.765 35.5924L124.198 28.5524C123.937 29.1672 123.945 29.5718 123.947 29.4721C123.951 29.3252 123.936 29.0055 123.838 28.1818C123.763 27.5611 123.586 26.2632 123.513 25.067C123.436 23.7952 123.422 22.0175 123.866 20.0703L141.416 24.0725ZM140.767 35.586C139.867 37.7083 138.563 39.2292 137.479 40.2633C136.461 41.2357 135.384 42.0038 134.851 42.389C134.52 42.6284 134.33 42.7653 134.153 42.9004C133.99 43.0249 133.935 43.0747 133.937 43.0727C133.942 43.0679 134.045 42.974 134.19 42.7927C134.339 42.605 134.533 42.3231 134.713 41.9474L118.474 34.1825C119.441 32.1608 120.758 30.7311 121.802 29.778C122.78 28.8857 123.831 28.1446 124.304 27.8032C124.953 27.3336 125.051 27.2423 125.051 27.2428C124.986 27.305 124.542 27.7414 124.196 28.5588L140.767 35.586ZM134.727 41.9176C134.803 41.7567 135.174 40.8701 135.051 39.5352C134.931 38.2385 134.422 37.4222 134.376 37.3497C134.366 37.3339 134.402 37.3917 134.592 37.6498C134.727 37.8317 135.066 38.2832 135.356 38.6933C136.014 39.6208 136.898 40.9781 137.616 42.7608L120.919 49.4841C120.933 49.5187 120.916 49.4481 120.672 49.1036C120.512 48.8778 120.4 48.7323 120.107 48.3357C119.871 48.0154 119.504 47.5131 119.141 46.9353C118.388 45.7387 117.367 43.7902 117.127 41.189C116.883 38.5496 117.525 36.1863 118.46 34.2122L134.727 41.9176ZM137.613 42.754C140.638 50.2468 139.025 57.2627 137.033 62.4538L120.228 56.0052C121.512 52.6589 121.475 50.8608 120.922 49.491L137.613 42.754ZM137.025 62.4734C135.024 67.6522 133.443 71.0182 132.297 75.1279L114.958 70.2926C116.415 65.0681 118.73 59.8808 120.235 55.9856L137.025 62.4734ZM132.295 75.1352C131.279 78.7634 129.088 88.1787 120.156 92.5031L112.313 76.3019C112.496 76.2134 112.808 76.0403 113.284 75.1402C113.866 74.0403 114.308 72.6167 114.96 70.2853L132.295 75.1352ZM120.179 92.4922C118.889 93.1208 117.828 93.5342 117.075 93.8221C116.67 93.9768 116.478 94.0488 116.282 94.1281C116.116 94.1948 116.08 94.2146 116.105 94.2025C116.241 94.1337 116.417 94.0129 116.513 93.9247C116.541 93.8987 116.344 94.0734 115.873 94.7236L101.296 84.1636C103.241 81.4781 105.247 79.5164 108.01 78.1252C109.067 77.5931 110.163 77.1938 110.648 77.0088C111.243 76.7812 111.72 76.5909 112.29 76.3129L120.179 92.4922ZM115.867 94.7309C116.066 94.458 115.903 94.6561 115.201 96.1963C114.701 97.2952 113.902 99.1214 113.158 100.685C112.401 102.278 111.412 104.23 110.246 105.943C109.66 106.805 108.87 107.844 107.86 108.807C106.909 109.712 105.252 111.043 102.88 111.694L98.1209 94.3342C96.5131 94.775 95.626 95.6009 95.4461 95.7722C95.2065 96.0005 95.1874 96.0778 95.3652 95.8165C95.7278 95.2837 96.2401 94.3486 96.9027 92.9552C97.579 91.5331 98.119 90.2747 98.8211 88.7336C99.1381 88.0377 99.4887 87.2863 99.846 86.5877C100.168 85.9579 100.664 85.0342 101.301 84.1563L115.867 94.7309ZM102.858 111.7C101.274 112.13 99.8828 112.092 98.9829 112.001C98.0485 111.906 97.2421 111.71 96.652 111.54C95.5072 111.209 94.4519 110.758 93.795 110.469C92.8307 110.044 92.7037 109.97 92.1365 109.729C91.6015 109.501 91.9218 109.688 92.6223 109.812L95.7526 92.0858C96.6006 92.2355 97.3231 92.4619 97.8112 92.6311C98.3257 92.8095 98.7984 93.0017 99.175 93.1617C99.5553 93.3233 99.9271 93.4905 100.227 93.626C100.555 93.7742 100.798 93.8846 101.046 93.9938C101.59 94.2332 101.723 94.2685 101.642 94.2452C101.584 94.2284 101.278 94.1411 100.8 94.0925C100.355 94.0475 99.3755 93.9936 98.1428 94.3282L102.858 111.7ZM92.592 109.806C91.2322 109.561 89.9544 109.767 87.7767 111.461L76.7276 97.2507C81.5978 93.4639 87.9345 90.6775 95.783 92.0912L92.592 109.806ZM87.7782 111.459C86.2211 112.671 84.8738 114.271 82.8493 116.803C81.0262 119.084 78.4913 122.341 75.1365 125.062L63.7972 111.083C65.3742 109.803 66.7129 108.162 68.7901 105.563C70.6658 103.217 73.2452 99.9597 76.7261 97.2519L87.7782 111.459ZM75.1369 125.062C73.0771 126.733 69.7931 129.238 65.185 129.103C63.4098 129.051 61.8363 128.583 61.3636 128.455C60.6751 128.267 60.2439 128.148 59.6401 128.042L62.754 110.314C64.2796 110.582 65.4533 110.913 66.0976 111.088C66.4548 111.186 66.5136 111.198 66.5021 111.196C66.456 111.186 66.1572 111.124 65.7114 111.111C65.2285 111.097 64.6992 111.143 64.1656 111.269C63.6543 111.39 63.2888 111.549 63.0987 111.644C62.9246 111.731 62.8906 111.767 63.034 111.667C63.1752 111.57 63.4174 111.391 63.7968 111.083L75.1369 125.062ZM59.6111 128.037C59.1399 127.953 59.3072 128.061 59.8203 127.923C60.3712 127.774 60.7159 127.505 60.7734 127.455C60.7762 127.452 60.705 127.515 60.5468 127.698C60.3851 127.884 60.1821 128.138 59.8976 128.515C59.5831 128.932 59.3284 129.284 58.9021 129.859C58.5183 130.377 58.063 130.982 57.5526 131.615L43.5384 120.319C44.2309 119.46 44.59 118.917 45.5306 117.671C46.2891 116.666 47.4125 115.233 48.8906 113.934C50.47 112.546 52.5097 111.253 55.1189 110.547C57.6903 109.852 60.2792 109.871 62.783 110.319L59.6111 128.037ZM57.5559 131.611C56.115 133.401 53.4193 136.737 50.2134 139.037L39.7218 124.411C40.642 123.751 41.9125 122.339 43.5351 120.323L57.5559 131.611ZM50.22 139.032C49.1763 139.782 48.1583 140.302 47.3984 140.654C46.6651 140.993 45.9088 141.292 45.5019 141.457C44.9906 141.664 44.7924 141.751 44.6798 141.807C44.5781 141.858 44.8166 141.754 45.177 141.453L33.6374 127.638C34.7327 126.723 35.8301 126.106 36.6542 125.695C37.4674 125.29 38.262 124.968 38.7534 124.77C39.3493 124.529 39.6056 124.426 39.8379 124.318C40.0437 124.223 39.9444 124.251 39.7152 124.416L50.22 139.032ZM45.1822 141.448C45.5997 141.099 46.0417 140.531 46.3184 139.842C46.5432 139.282 46.5287 138.947 46.5038 139.295C46.4912 139.471 46.4829 139.681 46.469 140.094C46.457 140.452 46.4396 140.999 46.4002 141.575C46.3194 142.755 46.1278 144.434 45.4855 146.288L28.4768 140.397C28.388 140.654 28.4155 140.737 28.4423 140.345C28.4567 140.135 28.4653 139.902 28.4792 139.489C28.4912 139.132 28.5088 138.581 28.5498 138.008C28.7377 135.386 29.5049 131.095 33.6322 127.643L45.1822 141.448ZM45.4806 146.303C43.8458 150.997 40.8075 153.982 37.2523 155.806C34.5498 157.192 31.0403 158.026 29.6313 158.441L24.5507 141.173C25.1909 140.984 25.8155 140.811 26.3327 140.666C26.8769 140.514 27.3134 140.39 27.7126 140.269C28.534 140.018 28.8877 139.866 29.0379 139.789C29.129 139.743 28.9458 139.825 28.7154 140.081C28.4759 140.346 28.4327 140.524 28.4818 140.383L45.4806 146.303ZM29.6424 158.438C27.2887 159.134 25.5257 160.074 22.0756 161.528C19.1367 162.766 14.9677 164.344 10.1504 164.244L10.5253 146.248C11.3376 146.265 12.5515 146.008 15.085 144.941C17.1073 144.088 20.9061 142.25 24.5396 141.176L29.6424 158.438ZM18.0571 154.732C18.3619 156.274 18.7735 157.809 19.3906 159.435L2.56248 165.824C1.53682 163.122 0.868507 160.599 0.398592 158.221L18.0571 154.732ZM19.3945 159.445C21.5782 165.218 24.768 170.603 28.9137 175.47L15.2101 187.141C9.75799 180.74 5.49262 173.57 2.55863 165.813L19.3945 159.445ZM28.932 175.492C29.6749 176.37 34.3107 181.196 33.6301 188.071L15.7176 186.298C15.6689 186.789 15.7197 187.237 15.8078 187.59C15.8907 187.922 15.9922 188.114 16.0099 188.147C16.0248 188.174 15.9905 188.107 15.8461 187.916C15.691 187.712 15.5128 187.499 15.1918 187.12L28.932 175.492ZM33.6301 188.071C32.9501 194.939 27.5421 198.703 26.521 199.513L15.3361 185.41C15.7513 185.08 15.9826 184.895 16.1834 184.717C16.3698 184.553 16.4109 184.498 16.3817 184.533C16.3467 184.575 16.2007 184.758 16.05 185.08C15.8903 185.422 15.7628 185.841 15.7176 186.298L33.6301 188.071ZM26.5354 199.501C26.2624 199.719 26.0999 199.848 25.9595 199.965C25.821 200.081 25.8125 200.095 25.8698 200.038C25.9114 199.997 26.174 199.74 26.4862 199.289C26.7831 198.859 27.3679 197.909 27.6558 196.504L10.0224 192.89C10.6743 189.71 12.7219 187.722 13.2538 187.199C14.0398 186.427 14.9426 185.723 15.3217 185.421L26.5354 199.501ZM27.6493 196.536C28.0914 194.418 27.5534 192.824 27.3597 192.314C27.1298 191.708 26.893 191.369 26.8832 191.354C26.8721 191.338 26.9521 191.446 27.3345 191.868L13.9913 203.949C13.7185 203.648 12.7847 202.638 11.9747 201.441C11.5654 200.836 10.9828 199.89 10.5324 198.704C10.1182 197.614 9.48499 195.465 10.029 192.858L27.6493 196.536ZM27.3277 191.861L37.4047 202.965L24.075 215.061L13.9981 203.957L27.3277 191.861ZM26.0704 202.452C30.1311 198.716 35.8415 193.814 41.7297 191.213L49.0024 207.678C46.1164 208.953 42.3297 211.952 38.2577 215.699L26.0704 202.452ZM41.7566 191.201C42.8642 190.716 44.3033 190.179 45.9502 189.974C47.9573 189.725 49.618 190.044 50.9025 190.479C51.146 190.561 51.3483 190.638 51.4579 190.681C51.6517 190.755 51.5559 190.719 51.6316 190.748C51.6342 190.749 51.5793 190.728 51.4937 190.7C51.4044 190.67 51.2867 190.634 51.1472 190.598C50.4821 190.428 49.9763 190.431 49.8039 190.442L51.0394 208.4C50.3017 208.451 49.5578 208.453 48.8071 208.391C48.0438 208.328 47.3377 208.203 46.6794 208.035C46.0332 207.869 45.5236 207.683 45.2296 207.571C45.1599 207.545 45.0981 207.521 45.0589 207.505C45.0103 207.486 44.9987 207.482 44.9827 207.476C44.9555 207.465 45.0233 207.492 45.1309 207.528C45.3794 207.612 45.8556 207.755 46.4775 207.833C47.1081 207.911 47.6833 207.897 48.1671 207.837C48.6201 207.781 48.9275 207.692 49.0413 207.656C49.1529 207.621 49.1438 207.616 48.9754 207.69L41.7566 191.201ZM49.8193 190.441C49.9308 190.434 50.3583 190.38 51.0453 190.189C51.6997 190.007 52.4014 189.753 53.0433 189.456C53.7054 189.15 54.1352 188.876 54.3437 188.716C54.6206 188.503 54.207 188.731 53.7786 189.564L69.7846 197.798C67.5384 202.164 63.1687 204.605 60.6009 205.793C57.6447 207.16 54.1219 208.193 51.024 208.401L49.8193 190.441ZM53.78 189.561C53.2925 190.507 53.2357 192.365 53.3717 189.892C53.4315 188.803 53.6322 186.96 54.6333 184.934C55.6316 182.914 57.0805 181.396 58.6026 180.237L69.5112 194.555C69.6299 194.464 70.2566 193.948 70.7699 192.91C71.2859 191.866 71.3389 190.983 71.3445 190.88C71.3454 190.865 71.3442 190.881 71.3423 190.962C71.3381 191.15 71.3412 191.047 71.3353 191.328C71.3286 191.645 71.3142 192.2 71.2484 192.843C71.1036 194.256 70.7274 195.967 69.7831 197.801L53.78 189.561ZM58.6082 180.233C62.3847 177.36 67.0862 176.925 69.2648 176.74C70.4345 176.64 72.0716 176.555 72.7945 176.505C73.8283 176.433 74.2773 176.365 74.4434 176.328L78.3737 193.894C76.7956 194.247 75.196 194.381 74.0461 194.461C72.5853 194.563 71.9037 194.58 70.789 194.675C69.8337 194.756 69.2667 194.849 68.9371 194.932C68.5852 195.021 68.9314 194.996 69.5056 194.559L58.6082 180.233ZM74.4428 176.328C79.1926 175.265 83.4808 172.468 88.7318 168.27C93.4874 164.469 99.7591 158.813 106.735 155.216L114.985 171.214C110.105 173.73 106.035 177.483 99.971 182.33C94.4023 186.782 87.3927 191.875 78.3743 193.894L74.4428 176.328ZM106.732 155.217C108.297 154.409 110.627 153.245 113.236 152.422C115.801 151.612 119.357 150.891 123.218 151.653L119.734 169.312C120.009 169.367 119.753 169.24 118.655 169.586C117.601 169.919 116.415 170.475 114.988 171.212L106.732 155.217ZM123.207 151.651C125.181 152.038 126.784 152.632 128.053 153.181C128.657 153.442 129.214 153.706 129.618 153.896C130.064 154.107 130.34 154.237 130.599 154.348C131.054 154.545 131.19 154.566 131.227 154.572C131.247 154.575 131.461 154.616 132.023 154.532L134.675 172.336C129.823 173.059 126.295 172.096 123.463 170.873C120.584 169.63 120.782 169.518 119.745 169.315L123.207 151.651ZM132.015 154.534C135.889 153.953 137.202 152.425 137.719 151.013L154.621 157.203C151.189 166.572 142.957 171.094 134.684 172.335L132.015 154.534ZM137.717 151.017C138.069 150.055 138.261 149.311 138.594 148.141C138.839 147.279 139.385 145.274 140.559 143.402C142.035 141.05 144.187 139.302 146.901 138.317C149.199 137.482 151.578 137.318 153.583 137.311L153.65 155.311C153.083 155.313 152.774 155.34 152.646 155.357C152.517 155.373 152.691 155.364 153.042 155.237C153.425 155.097 153.974 154.834 154.55 154.37C155.132 153.902 155.542 153.391 155.807 152.968C156.047 152.586 156.134 152.329 156.117 152.378C156.093 152.441 156.037 152.61 155.906 153.069C155.679 153.866 155.262 155.449 154.622 157.199L137.717 151.017ZM153.582 137.311C160.067 137.286 164.586 136.158 167.952 134.263C171.229 132.418 174.16 129.428 176.773 124.327L192.793 132.535C188.907 140.118 183.727 146.039 176.782 149.949C169.927 153.808 162.112 155.278 153.651 155.311L153.582 137.311ZM176.772 124.329C177.697 122.523 177.866 121.795 177.911 121.473C177.939 121.274 177.995 120.792 177.611 119.396L194.965 114.618C195.785 117.597 196.204 120.648 195.736 123.977C195.286 127.184 194.1 129.981 192.794 132.532L176.772 124.329ZM177.608 119.385C175.962 113.377 176.804 108.667 178.175 104.058L195.428 109.19C194.55 112.142 194.56 113.14 194.968 114.629L177.608 119.385ZM37.4047 202.965C34.3993 199.653 29.31 199.472 26.0704 202.452L38.2577 215.699C34.1976 219.434 27.8296 219.199 24.075 215.061L37.4047 202.965ZM10.1504 164.244C14.2898 164.33 19.2148 160.59 18.0571 154.732L0.398592 158.221C-1.02038 151.04 5.03837 146.133 10.5253 146.248L10.1504 164.244Z" fill="#FFBF02" mask="url(#path-1-outside-1_1088_25026)"/>
</svg>
