<svg width="329" height="293" viewBox="0 0 329 293" fill="none" xmlns="http://www.w3.org/2000/svg">
<mask id="path-1-outside-1_1088_25027" maskUnits="userSpaceOnUse" x="0.568359" y="-0.439453" width="329" height="293" fill="black">
<rect fill="white" x="0.568359" y="-0.439453" width="329" height="293"/>
<path d="M305.942 74.8256C306.402 72.5733 308.217 71.1423 309.678 69.9959C310.688 69.1828 311.644 68.4267 311.715 67.7681C311.777 67.0688 310.865 65.9874 310.121 65.1174C304.995 59.1006 301.001 52.3763 298.257 45.1317C296.85 41.4195 296.093 37.9648 295.77 34.6906C295.739 34.3744 295.564 34.0909 295.297 33.9194C289.988 30.5148 284.864 24.5737 278.069 24.7479C273.686 24.8617 267.674 26.3497 263.752 28.2035C261.326 29.3581 258.254 33.5292 255.42 33.4885C253.472 33.4641 251.595 30.8867 249.878 30.0736C246.212 28.3417 242.449 28.6831 238.429 29.0978C228.035 30.1792 219.101 35.7815 208.892 36.9767C203.978 37.554 201.888 36.0172 197.895 33.6999C193.247 31.0005 188.129 29.4963 183.304 27.1627C180.09 25.6016 176.858 22.6339 173.378 21.6988C170.943 21.0402 166.614 22.7803 164.489 21.5281C160.531 19.1946 164.383 16.2023 159.026 14.316C154.315 12.6573 151.27 14.2509 146.789 13.6736C143.088 13.202 141.627 10.2994 137.634 9.73025C131.047 8.80334 126.398 10.836 120.174 12.3158C111.913 14.2835 104.511 14.5599 96.2323 12.4947L96.0814 12.447C95.832 12.3681 95.5617 12.3903 95.3284 12.5086C94.5011 12.9282 93.666 13.3443 92.7704 13.6492C90.9376 14.2834 88.9808 14.7062 87.0064 15.1209C83.4824 15.8608 80.1532 16.5601 78.0548 18.6172C74.6017 22.0078 75.8591 27.8864 76.9128 31.0818C77.2669 32.1714 77.6741 33.2609 78.0725 34.3504C79.56 38.3589 81.1007 42.5136 80.6049 46.9937C79.8788 53.6366 74.407 59.8567 66.6508 62.8407L65.544 63.2554C63.8529 63.8652 62.2502 64.4508 61.4888 65.4509C60.2846 67.0283 61.0726 69.6139 61.9226 72.354C63.006 75.8482 64.3437 80.1873 61.019 83.4262C60.9847 83.4596 60.9469 83.4908 60.908 83.5187L58.7441 85.0624L57.9294 85.5503C53.0331 88.8351 53.8567 96.3642 55.4238 102.105C57.1947 108.617 59.6118 117.537 53.8832 123.765C52.2541 125.538 50.253 126.733 48.3051 127.896C46.8707 128.749 45.5159 129.562 44.418 130.546C41.266 133.376 40.1859 137.604 39.0615 142.084C38.1052 145.832 37.1135 149.711 34.8292 153.117C32.5005 156.589 29.1359 159.085 25.8953 161.5C24.4963 162.541 23.0975 163.574 21.7959 164.696C18.2543 167.729 15.0313 172.404 16.6162 176.461C16.9261 177.25 17.3864 178.006 17.8468 178.762C18.9979 180.705 20.3084 182.909 19.8038 185.576C19.3256 188.113 17.36 189.853 15.784 191.259C12.9684 193.788 9.01045 198.154 9.68336 203C9.94898 204.952 10.4891 206.635 11.0026 208.261C11.8615 210.96 12.738 213.741 12.3485 217.473C11.7906 222.628 11.3746 227.791 10.9408 232.954L10.551 237.686C10.282 240.942 9.98467 244.27 9.67798 247.605C9.62099 248.224 10.1374 248.745 10.7575 248.694L21.9996 247.752C23.1139 247.656 25.6577 247.45 27.3838 249.098C27.4425 249.153 27.4924 249.219 27.534 249.288L28.6665 251.184C29.1712 252.346 29.9151 252.924 30.9953 253.257C32.952 253.85 35.7321 253.509 37.7508 252.411C39.5748 251.411 41.204 250.021 42.9129 248.549C44.7457 246.98 46.6405 245.362 48.9426 244.102C52.2009 242.321 56.4686 241.833 59.8066 242.849C61.0773 243.238 62.1734 243.816 63.0687 244.564C63.3782 244.823 63.8024 244.909 64.1805 244.769C69.9776 242.622 76.7001 243.523 81.3928 244.158C87.3516 244.963 96.3652 246.183 101.625 251.956L102.209 252.615L103.529 253.895C103.587 253.952 103.652 254.002 103.725 254.039C104.66 254.507 106.008 254.272 108.07 253.826C109.947 253.428 112.081 252.989 114.268 253.387C120.696 254.582 122.777 261.567 121.511 267.852L121.095 269.803C120.236 273.681 119.421 277.349 121.378 279.877C123.122 282.146 126.478 282.755 130.365 283.463V283.463C130.682 283.523 131.005 283.406 131.223 283.168C132.617 281.642 134.461 280.272 135.146 278.219C136.129 275.259 135.164 272.803 135.288 269.917C135.598 263.055 140.246 259.656 146.586 257.964C152.854 256.298 153.386 252.468 156.13 247.094C159.876 239.76 163.258 241.264 170.217 239.695C179.585 237.581 178.602 229.905 179.833 223.051C181.338 214.668 187.987 214.619 195.372 211.985C203.482 209.106 208.733 202.333 215.099 197.227C225.246 189.072 235.897 181.665 245.637 173.095C249.541 169.664 253.464 166.428 255.438 161.647C257.014 157.817 256.642 153.548 258.767 149.792C261.14 145.588 261.804 147.084 265.868 146.45C269.587 145.873 271.933 144.06 274.289 141.466C278.866 136.433 281.186 129.928 286.667 125.676C287.791 124.806 289.199 124.611 289.996 123.391C291.28 121.456 290.084 118.797 291.678 116.708C296.433 110.439 302.604 117.748 308.448 115.756C315.239 113.439 307.943 109.284 308.616 105.276C309.227 101.633 316.939 96.9253 319.568 94.421V94.421C319.77 94.2314 319.783 93.9153 319.597 93.7102L308.837 81.8426C307.598 80.4766 305.278 77.9315 305.942 74.8256"/>
</mask>
<path d="M305.942 74.8256C306.402 72.5733 308.217 71.1423 309.678 69.9959C310.688 69.1828 311.644 68.4267 311.715 67.7681C311.777 67.0688 310.865 65.9874 310.121 65.1174C304.995 59.1006 301.001 52.3763 298.257 45.1317C296.85 41.4195 296.093 37.9648 295.77 34.6906C295.739 34.3744 295.564 34.0909 295.297 33.9194C289.988 30.5148 284.864 24.5737 278.069 24.7479C273.686 24.8617 267.674 26.3497 263.752 28.2035C261.326 29.3581 258.254 33.5292 255.42 33.4885C253.472 33.4641 251.595 30.8867 249.878 30.0736C246.212 28.3417 242.449 28.6831 238.429 29.0978C228.035 30.1792 219.101 35.7815 208.892 36.9767C203.978 37.554 201.888 36.0172 197.895 33.6999C193.247 31.0005 188.129 29.4963 183.304 27.1627C180.09 25.6016 176.858 22.6339 173.378 21.6988C170.943 21.0402 166.614 22.7803 164.489 21.5281C160.531 19.1946 164.383 16.2023 159.026 14.316C154.315 12.6573 151.27 14.2509 146.789 13.6736C143.088 13.202 141.627 10.2994 137.634 9.73025C131.047 8.80334 126.398 10.836 120.174 12.3158C111.913 14.2835 104.511 14.5599 96.2323 12.4947L96.0814 12.447C95.832 12.3681 95.5617 12.3903 95.3284 12.5086C94.5011 12.9282 93.666 13.3443 92.7704 13.6492C90.9376 14.2834 88.9808 14.7062 87.0064 15.1209C83.4824 15.8608 80.1532 16.5601 78.0548 18.6172C74.6017 22.0078 75.8591 27.8864 76.9128 31.0818C77.2669 32.1714 77.6741 33.2609 78.0725 34.3504C79.56 38.3589 81.1007 42.5136 80.6049 46.9937C79.8788 53.6366 74.407 59.8567 66.6508 62.8407L65.544 63.2554C63.8529 63.8652 62.2502 64.4508 61.4888 65.4509C60.2846 67.0283 61.0726 69.6139 61.9226 72.354C63.006 75.8482 64.3437 80.1873 61.019 83.4262C60.9847 83.4596 60.9469 83.4908 60.908 83.5187L58.7441 85.0624L57.9294 85.5503C53.0331 88.8351 53.8567 96.3642 55.4238 102.105C57.1947 108.617 59.6118 117.537 53.8832 123.765C52.2541 125.538 50.253 126.733 48.3051 127.896C46.8707 128.749 45.5159 129.562 44.418 130.546C41.266 133.376 40.1859 137.604 39.0615 142.084C38.1052 145.832 37.1135 149.711 34.8292 153.117C32.5005 156.589 29.1359 159.085 25.8953 161.5C24.4963 162.541 23.0975 163.574 21.7959 164.696C18.2543 167.729 15.0313 172.404 16.6162 176.461C16.9261 177.25 17.3864 178.006 17.8468 178.762C18.9979 180.705 20.3084 182.909 19.8038 185.576C19.3256 188.113 17.36 189.853 15.784 191.259C12.9684 193.788 9.01045 198.154 9.68336 203C9.94898 204.952 10.4891 206.635 11.0026 208.261C11.8615 210.96 12.738 213.741 12.3485 217.473C11.7906 222.628 11.3746 227.791 10.9408 232.954L10.551 237.686C10.282 240.942 9.98467 244.27 9.67798 247.605C9.62099 248.224 10.1374 248.745 10.7575 248.694L21.9996 247.752C23.1139 247.656 25.6577 247.45 27.3838 249.098C27.4425 249.153 27.4924 249.219 27.534 249.288L28.6665 251.184C29.1712 252.346 29.9151 252.924 30.9953 253.257C32.952 253.85 35.7321 253.509 37.7508 252.411C39.5748 251.411 41.204 250.021 42.9129 248.549C44.7457 246.98 46.6405 245.362 48.9426 244.102C52.2009 242.321 56.4686 241.833 59.8066 242.849C61.0773 243.238 62.1734 243.816 63.0687 244.564C63.3782 244.823 63.8024 244.909 64.1805 244.769C69.9776 242.622 76.7001 243.523 81.3928 244.158C87.3516 244.963 96.3652 246.183 101.625 251.956L102.209 252.615L103.529 253.895C103.587 253.952 103.652 254.002 103.725 254.039C104.66 254.507 106.008 254.272 108.07 253.826C109.947 253.428 112.081 252.989 114.268 253.387C120.696 254.582 122.777 261.567 121.511 267.852L121.095 269.803C120.236 273.681 119.421 277.349 121.378 279.877C123.122 282.146 126.478 282.755 130.365 283.463V283.463C130.682 283.523 131.005 283.406 131.223 283.168C132.617 281.642 134.461 280.272 135.146 278.219C136.129 275.259 135.164 272.803 135.288 269.917C135.598 263.055 140.246 259.656 146.586 257.964C152.854 256.298 153.386 252.468 156.13 247.094C159.876 239.76 163.258 241.264 170.217 239.695C179.585 237.581 178.602 229.905 179.833 223.051C181.338 214.668 187.987 214.619 195.372 211.985C203.482 209.106 208.733 202.333 215.099 197.227C225.246 189.072 235.897 181.665 245.637 173.095C249.541 169.664 253.464 166.428 255.438 161.647C257.014 157.817 256.642 153.548 258.767 149.792C261.14 145.588 261.804 147.084 265.868 146.45C269.587 145.873 271.933 144.06 274.289 141.466C278.866 136.433 281.186 129.928 286.667 125.676C287.791 124.806 289.199 124.611 289.996 123.391C291.28 121.456 290.084 118.797 291.678 116.708C296.433 110.439 302.604 117.748 308.448 115.756C315.239 113.439 307.943 109.284 308.616 105.276C309.227 101.633 316.939 96.9253 319.568 94.421V94.421C319.77 94.2314 319.783 93.9153 319.597 93.7102L308.837 81.8426C307.598 80.4766 305.278 77.9315 305.942 74.8256" fill="white"/>
<path d="M309.678 69.9959L315.324 77.0047L315.28 77.0407L315.235 77.0761L309.678 69.9959ZM311.715 67.7681L320.68 68.5627L320.672 68.6466L320.663 68.7305L311.715 67.7681ZM310.121 65.1174L303.28 70.9656L303.275 70.96L303.271 70.9543L310.121 65.1174ZM298.257 45.1317L289.84 48.3204L289.84 48.3204L298.257 45.1317ZM278.069 24.7479L277.836 15.7509L277.839 15.7508L278.069 24.7479ZM263.752 28.2035L259.884 20.0769L259.895 20.0717L259.906 20.0665L263.752 28.2035ZM255.42 33.4885L255.533 24.4892L255.541 24.4893L255.549 24.4895L255.42 33.4885ZM249.878 30.0736L253.722 21.9361L253.728 21.9389L249.878 30.0736ZM238.429 29.0978L237.498 20.1461L237.506 20.1453L238.429 29.0978ZM208.892 36.9767L207.842 28.0382L207.845 28.0377L208.892 36.9767ZM197.895 33.6999L193.378 41.4842L193.376 41.4828L197.895 33.6999ZM183.304 27.1627L179.385 35.265L179.379 35.2617L179.372 35.2583L183.304 27.1627ZM173.378 21.6988L171.043 30.3905L171.036 30.3886L171.028 30.3866L173.378 21.6988ZM164.489 21.5281L159.92 29.2821L159.918 29.2808L164.489 21.5281ZM159.026 14.316L162.015 5.8269L162.015 5.82693L159.026 14.316ZM146.789 13.6736L147.927 4.74576L147.94 4.74739L146.789 13.6736ZM137.634 9.73025L138.888 0.818046L138.896 0.819167L138.904 0.820301L137.634 9.73025ZM120.174 12.3158L118.088 3.56073L118.092 3.55985L120.174 12.3158ZM96.2323 12.4947L94.0539 21.227L93.7842 21.1598L93.5193 21.076L96.2323 12.4947ZM92.7704 13.6492L89.8273 5.14397L89.8487 5.13657L89.8702 5.12928L92.7704 13.6492ZM87.0064 15.1209L88.8562 23.9288L88.8557 23.9288L87.0064 15.1209ZM78.0548 18.6172L71.7492 12.1953L71.7544 12.1903L78.0548 18.6172ZM76.9128 31.0818L85.4601 28.2635L85.4661 28.2815L85.4719 28.2996L76.9128 31.0818ZM78.0725 34.3504L69.6347 37.4816L69.6273 37.4615L69.62 37.4415L78.0725 34.3504ZM80.6049 46.9937L71.6581 46.0159L71.6595 46.0037L80.6049 46.9937ZM66.6508 62.8407L69.8824 71.2405L69.8455 71.2547L69.8085 71.2686L66.6508 62.8407ZM65.544 63.2554L68.7018 71.6833L68.6495 71.7028L68.5969 71.7218L65.544 63.2554ZM61.4888 65.4509L68.6495 70.9029L68.6425 70.912L61.4888 65.4509ZM61.9226 72.354L70.5185 69.6875L70.5189 69.6887L61.9226 72.354ZM58.7441 85.0624L63.971 92.389L63.6775 92.5984L63.3683 92.7836L58.7441 85.0624ZM57.9294 85.5503L52.9153 78.0764L53.1071 77.9477L53.3052 77.8291L57.9294 85.5503ZM55.4238 102.105L64.1061 99.7342L64.1085 99.7432L55.4238 102.105ZM53.8832 123.765L47.2569 117.675L47.2591 117.672L53.8832 123.765ZM48.3051 127.896L52.9179 135.624L52.9082 135.629L48.3051 127.896ZM44.418 130.546L38.4059 123.849L38.4118 123.844L44.418 130.546ZM39.0615 142.084L47.7907 144.275L47.7864 144.292L47.7821 144.309L39.0615 142.084ZM34.8292 153.117L42.3043 158.13L42.3036 158.131L34.8292 153.117ZM25.8953 161.5L31.273 168.717L31.2673 168.721L25.8953 161.5ZM21.7959 164.696L27.6725 171.512L27.6612 171.522L27.6498 171.532L21.7959 164.696ZM16.6162 176.461L8.23962 179.752L8.23634 179.744L8.23309 179.736L16.6162 176.461ZM17.8468 178.762L25.534 174.082L25.5625 174.128L25.5904 174.175L17.8468 178.762ZM19.8038 185.576L10.9595 183.909L10.9607 183.902L19.8038 185.576ZM15.784 191.259L9.77032 184.563L9.78069 184.554L9.79109 184.545L15.784 191.259ZM9.68336 203L18.5978 201.762L18.5995 201.774L18.6011 201.786L9.68336 203ZM11.0026 208.261L2.42622 210.989L2.4233 210.98L2.42039 210.971L11.0026 208.261ZM12.3485 217.473L21.2998 218.408L21.2981 218.424L21.2962 218.441L12.3485 217.473ZM10.9408 232.954L1.97116 232.215L1.97177 232.208L1.9724 232.2L10.9408 232.954ZM10.551 237.686L19.5207 238.425L19.5205 238.428L10.551 237.686ZM21.9996 247.752L22.7715 256.719L22.761 256.72L22.7504 256.721L21.9996 247.752ZM28.6665 251.184L36.3923 246.567L36.6907 247.066L36.9223 247.6L28.6665 251.184ZM30.9953 253.257L28.3828 261.869L28.362 261.863L28.3413 261.857L30.9953 253.257ZM37.7508 252.411L42.0779 260.303L42.064 260.31L42.05 260.318L37.7508 252.411ZM42.9129 248.549L37.0397 241.73L37.0496 241.721L37.0594 241.713L42.9129 248.549ZM48.9426 244.102L44.6207 236.207L44.6266 236.204L48.9426 244.102ZM59.8066 242.849L62.4281 234.24L62.4409 234.244L59.8066 242.849ZM81.3928 244.158L80.188 253.077L80.1844 253.077L81.3928 244.158ZM101.625 251.956L108.278 245.895L108.318 245.939L108.357 245.983L101.625 251.956ZM102.209 252.615L95.9418 259.074L95.6999 258.839L95.4762 258.587L102.209 252.615ZM108.07 253.826L106.168 245.029L106.185 245.026L106.202 245.022L108.07 253.826ZM114.268 253.387L115.881 244.533L115.897 244.536L115.913 244.539L114.268 253.387ZM121.511 267.852L130.334 269.629L130.324 269.679L130.313 269.729L121.511 267.852ZM121.095 269.803L129.897 271.68L129.889 271.715L129.882 271.749L121.095 269.803ZM121.378 279.877L128.496 274.369L128.504 274.38L128.513 274.391L121.378 279.877ZM135.146 278.219L143.687 281.055L143.685 281.062L143.683 281.068L135.146 278.219ZM135.288 269.917L126.296 269.531L126.297 269.521L126.297 269.511L135.288 269.917ZM146.586 257.964L144.266 249.269L144.273 249.267L146.586 257.964ZM156.13 247.094L164.146 251.187L164.146 251.187L156.13 247.094ZM170.217 239.695L172.199 248.474L172.197 248.474L170.217 239.695ZM179.833 223.051L170.975 221.46L170.975 221.46L179.833 223.051ZM195.372 211.985L192.348 203.508L192.355 203.506L192.362 203.503L195.372 211.985ZM215.099 197.227L220.737 204.242L220.73 204.248L215.099 197.227ZM245.637 173.095L239.691 166.338L239.696 166.334L245.637 173.095ZM255.438 161.647L263.761 165.072L263.757 165.082L255.438 161.647ZM258.767 149.792L266.605 154.216L266.601 154.223L258.767 149.792ZM265.868 146.45L264.481 137.558L264.488 137.557L265.868 146.45ZM274.289 141.466L267.626 135.416L267.63 135.41L274.289 141.466ZM286.667 125.676L281.149 118.565L281.159 118.558L286.667 125.676ZM289.996 123.391L282.461 118.468L282.479 118.442L282.496 118.416L289.996 123.391ZM291.678 116.708L298.849 122.146L298.841 122.156L298.834 122.165L291.678 116.708ZM308.448 115.756L311.354 124.274L311.352 124.275L308.448 115.756ZM308.616 105.276L317.492 106.764L317.492 106.766L308.616 105.276ZM308.837 81.8426L315.502 75.7945L315.505 75.7976L308.837 81.8426ZM319.597 93.7102L312.929 99.7553L319.597 93.7102ZM131.223 283.168L124.578 277.098L131.223 283.168ZM63.0687 244.564L68.8381 237.656L63.0687 244.564ZM64.1805 244.769L61.0539 236.33L64.1805 244.769ZM103.529 253.895L97.2616 260.354L103.529 253.895ZM103.725 254.039L107.755 245.992L103.725 254.039ZM96.0814 12.447L98.7944 3.86561L96.0814 12.447ZM95.3284 12.5086L91.2572 4.48204L95.3284 12.5086ZM61.019 83.4262L54.7387 76.9797L61.019 83.4262ZM60.908 83.5187L66.1349 90.8453L60.908 83.5187ZM27.3838 249.098L33.597 242.586L27.3838 249.098ZM27.534 249.288L19.8081 253.905L27.534 249.288ZM9.67798 247.605L0.715792 246.781L9.67798 247.605ZM10.7575 248.694L10.0066 239.725L10.7575 248.694ZM295.77 34.6906L286.814 35.5716L295.77 34.6906ZM295.297 33.9194L290.438 41.4954L295.297 33.9194ZM297.124 73.023C298.347 67.041 303.107 63.7126 304.122 62.9157L315.235 77.0761C315.048 77.2225 314.902 77.3374 314.761 77.4506C314.625 77.5605 314.516 77.6507 314.425 77.7292C314.335 77.8072 314.271 77.8656 314.228 77.9079C314.184 77.95 314.167 77.9693 314.169 77.9672C314.17 77.9658 314.274 77.8495 314.401 77.618C314.536 77.3734 314.676 77.0363 314.76 76.6281L297.124 73.023ZM304.032 62.9871C304.316 62.7588 304.478 62.6281 304.623 62.5068C304.765 62.3872 304.764 62.3806 304.694 62.4507C304.646 62.4986 304.333 62.8086 303.979 63.3493C303.646 63.8577 302.955 65.0542 302.766 66.8056L320.663 68.7305C320.261 72.4671 317.818 74.7836 317.403 75.1973C316.613 75.9848 315.683 76.7158 315.324 77.0047L304.032 62.9871ZM302.75 66.9735C302.586 68.8272 303.094 70.1724 303.282 70.6271C303.507 71.1692 303.725 71.4892 303.748 71.5236C303.775 71.5637 303.71 71.4679 303.28 70.9656L316.962 59.2692C317.276 59.6369 318.039 60.5168 318.692 61.4899C319.029 61.9909 319.509 62.7667 319.911 63.7354C320.276 64.6167 320.875 66.3593 320.68 68.5627L302.75 66.9735ZM303.271 70.9543C297.489 64.1684 292.959 56.552 289.84 48.3204L306.673 41.9431C309.044 48.2006 312.5 54.0327 316.972 59.2805L303.271 70.9543ZM289.84 48.3204C288.15 43.8574 287.213 39.6262 286.814 35.5716L304.727 33.8095C304.973 36.3034 305.551 38.9816 306.673 41.9431L289.84 48.3204ZM290.438 41.4954C288.725 40.3966 287.108 39.1472 285.808 38.1396C284.401 37.0493 283.303 36.1939 282.199 35.4473C279.974 33.9425 278.908 33.7293 278.3 33.7449L277.839 15.7508C284.025 15.5922 288.919 18.2625 292.281 20.5359C293.971 21.6784 295.574 22.9357 296.834 23.9115C298.199 24.97 299.214 25.7399 300.155 26.3435L290.438 41.4954ZM278.303 33.7448C275.229 33.8247 270.443 34.9958 267.598 36.3404L259.906 20.0665C264.906 17.7035 272.144 15.8987 277.836 15.7509L278.303 33.7448ZM267.62 36.3301C268.062 36.1194 268.122 35.9968 267.535 36.4788C267.294 36.6767 267.029 36.9036 266.671 37.2122C266.34 37.4976 265.918 37.8619 265.484 38.2223C264.655 38.9093 263.419 39.89 261.955 40.7053C260.523 41.5028 258.197 42.5293 255.291 42.4876L255.549 24.4895C254.783 24.4785 254.184 24.6127 253.809 24.7298C253.444 24.8438 253.233 24.9595 253.198 24.9792C253.182 24.9877 253.397 24.8612 253.994 24.3662C254.272 24.1356 254.557 23.8902 254.922 23.5754C255.261 23.2839 255.683 22.9202 256.115 22.5654C256.875 21.9418 258.229 20.8648 259.884 20.0769L267.62 36.3301ZM255.308 42.4878C252.857 42.4571 250.915 41.6363 249.694 40.9759C248.478 40.3184 247.494 39.5522 246.908 39.0786C246.599 38.8287 246.298 38.5758 246.092 38.403C245.858 38.207 245.714 38.0874 245.592 37.99C245.276 37.7386 245.492 37.9549 246.027 38.2083L253.728 21.9389C254.47 22.29 255.092 22.6737 255.568 22.9957C256.049 23.3205 256.469 23.642 256.797 23.9035C257.123 24.1625 257.431 24.4207 257.653 24.607C257.903 24.8165 258.063 24.9504 258.217 25.0751C258.558 25.3505 258.517 25.284 258.255 25.1421C257.987 24.9972 257.01 24.5077 255.533 24.4892L255.308 42.4878ZM246.033 38.2111C244.958 37.7031 243.677 37.6042 239.353 38.0503L237.506 20.1453C241.221 19.762 247.466 18.9804 253.722 21.9361L246.033 38.2111ZM239.361 38.0494C235.369 38.4647 231.497 39.7608 226.567 41.4881C221.948 43.1067 216.207 45.1817 209.939 45.9156L207.845 28.0377C211.785 27.5765 215.616 26.2527 220.615 24.5009C225.303 22.8579 231.095 20.8122 237.498 20.1461L239.361 38.0494ZM209.942 45.9152C206.253 46.3486 203.06 46.0175 199.941 44.8705C197.356 43.9195 194.883 42.3577 193.378 41.4842L202.412 25.9157C203.601 26.6055 204.229 26.9897 204.96 27.3932C205.597 27.7454 205.94 27.8979 206.155 27.9771C206.326 28.0399 206.444 28.0668 206.597 28.0827C206.774 28.1012 207.15 28.1195 207.842 28.0382L209.942 45.9152ZM193.376 41.4828C191.624 40.4657 189.671 39.6087 187.266 38.6272C185.019 37.7105 182.132 36.5932 179.385 35.265L187.222 19.0604C189.301 20.0657 191.385 20.8674 194.066 21.961C196.588 22.9899 199.518 24.2347 202.415 25.9171L193.376 41.4828ZM179.372 35.2583C177.131 34.17 174.743 32.5156 173.585 31.7735C171.992 30.7531 171.326 30.4667 171.043 30.3905L175.714 13.0072C178.91 13.866 181.6 15.5309 183.297 16.6184C185.428 17.9843 186.262 18.5943 187.236 19.0672L179.372 35.2583ZM171.028 30.3866C171.868 30.6136 172.326 30.52 171.846 30.5513C171.382 30.5816 170.971 30.6435 169.878 30.7733C169.028 30.8742 167.626 31.0322 166.15 30.986C164.731 30.9416 162.321 30.697 159.92 29.2821L169.058 13.7741C168.355 13.3602 167.739 13.1736 167.358 13.0879C166.985 13.0037 166.745 12.9958 166.713 12.9948C166.677 12.9937 166.737 12.9973 166.938 12.9826C167.137 12.968 167.392 12.942 167.756 12.8988C168.316 12.8324 169.577 12.661 170.675 12.5894C171.759 12.5188 173.671 12.4547 175.728 13.011L171.028 30.3866ZM159.918 29.2808C157.501 27.856 155.6 25.8652 154.473 23.2892C153.972 22.144 153.729 21.1167 153.594 20.4104C153.527 20.0632 153.48 19.7555 153.451 19.5565C153.412 19.2928 153.409 19.2672 153.392 19.1581C153.351 18.8962 153.487 20.164 154.485 21.4449C155.455 22.6877 156.42 22.9402 156.036 22.805L162.015 5.82693C164.31 6.63489 166.803 7.9688 168.68 10.3761C170.587 12.8215 171.012 15.3369 171.172 16.3506C171.399 17.7888 171.283 16.8043 170.964 16.0748C170.396 14.7751 169.498 14.0335 169.06 13.7754L159.918 29.2808ZM156.036 22.805C155.301 22.546 154.731 22.4878 153.38 22.5719C152.171 22.6471 148.991 23.0317 145.639 22.5998L147.94 4.74739C149.067 4.89272 149.651 4.76919 152.262 4.60663C154.732 4.45287 158.04 4.42724 162.015 5.8269L156.036 22.805ZM145.652 22.6014C141.52 22.0749 138.642 20.0752 137.444 19.3022C136.739 18.8476 136.524 18.7242 136.365 18.6486C136.315 18.6249 136.307 18.6245 136.327 18.6307C136.349 18.6376 136.366 18.6404 136.364 18.6402L138.904 0.820301C143.03 1.40834 145.85 3.30473 147.199 4.17478C148.654 5.11331 148.358 4.80067 147.927 4.74577L145.652 22.6014ZM136.38 18.6425C132.011 18.0278 130.065 19.2151 122.255 21.0718L118.092 3.55985C122.732 2.45686 130.082 -0.42108 138.888 0.818046L136.38 18.6425ZM122.259 21.0709C112.844 23.3135 103.96 23.6982 94.0539 21.227L98.4107 3.76228C105.062 5.42161 110.982 5.25342 118.088 3.56073L122.259 21.0709ZM93.5193 21.076L93.3684 21.0283L98.7944 3.86561L98.9453 3.91331L93.5193 21.076ZM99.3996 20.5351C98.6054 20.938 97.2458 21.6329 95.6707 22.1691L89.8702 5.12928C90.0862 5.05572 90.3968 4.91844 91.2572 4.48204L99.3996 20.5351ZM95.7135 22.1544C93.2665 23.0011 90.7739 23.526 88.8562 23.9288L85.1566 6.31305C87.1877 5.88647 88.6087 5.56565 89.8273 5.14397L95.7135 22.1544ZM88.8557 23.9288C86.9691 24.325 85.8221 24.5787 84.9056 24.8918C84.039 25.1879 84.0743 25.3194 84.3551 25.0441L71.7544 12.1903C74.1337 9.85788 76.8828 8.61122 79.0864 7.85841C81.2401 7.12261 83.5197 6.65673 85.157 6.31296L88.8557 23.9288ZM84.3603 25.0391C85.0373 24.3743 84.7874 23.8823 84.7936 24.866C84.7963 25.2988 84.8555 25.8482 84.9841 26.4866C85.1105 27.1147 85.2834 27.7275 85.4601 28.2635L68.3654 33.9002C67.6986 31.8778 66.8167 28.6006 66.7939 24.9793C66.7712 21.3773 67.6191 16.2507 71.7492 12.1953L84.3603 25.0391ZM85.4719 28.2996C85.7618 29.1913 86.0934 30.079 86.525 31.2594L69.62 37.4415C69.2547 36.4428 68.7721 35.1514 68.3536 33.8641L85.4719 28.2996ZM86.5103 31.2193C87.8719 34.8887 90.3185 41.0421 89.5503 47.9838L71.6595 46.0037C71.8829 43.9852 71.2481 41.8292 69.6347 37.4816L86.5103 31.2193ZM89.5516 47.9716C88.3648 58.8299 79.8759 67.3958 69.8824 71.2405L63.4192 54.4409C68.9381 52.3176 71.3928 48.4433 71.6581 46.0159L89.5516 47.9716ZM69.8085 71.2686L68.7018 71.6833L62.3863 54.8276L63.493 54.4129L69.8085 71.2686ZM68.5969 71.7218C68.161 71.879 67.8522 71.9913 67.5795 72.0979C67.3111 72.2028 67.1823 72.262 67.1379 72.2838C67.0882 72.3082 67.2331 72.2428 67.4775 72.0662C67.7236 71.8883 68.1803 71.5191 68.6495 70.9029L54.3281 59.9989C55.9599 57.8556 58.0227 56.7073 59.1976 56.1298C60.434 55.5221 61.7459 55.0577 62.4911 54.789L68.5969 71.7218ZM68.6425 70.912C69.3927 69.9293 69.7019 68.9353 69.8131 68.2495C69.9136 67.6297 69.8547 67.2626 69.8617 67.317C69.867 67.3579 69.8996 67.561 70.0209 68.0145C70.1425 68.4689 70.2985 68.9782 70.5185 69.6875L53.3267 75.0205C52.9616 73.8436 52.2807 71.7255 52.0091 69.6158C51.7418 67.5405 51.5967 63.5769 54.335 59.9898L68.6425 70.912ZM70.5189 69.6887C70.9922 71.2151 72.0253 74.3615 72.1203 77.7325C72.2282 81.5642 71.1584 86.1132 67.2993 89.8728L54.7387 76.9797C54.5908 77.1238 54.3726 77.4187 54.2329 77.8126C54.109 78.1617 54.1306 78.3524 54.1274 78.2392C54.1235 78.1021 54.0919 77.7804 53.9506 77.1865C53.8054 76.5767 53.6092 75.9315 53.3263 75.0192L70.5189 69.6887ZM66.1349 90.8453L63.971 92.389L53.5172 77.7357L55.6811 76.192L66.1349 90.8453ZM63.3683 92.7836L62.5535 93.2715L53.3052 77.8291L54.12 77.3411L63.3683 92.7836ZM62.9435 93.0242C63.6915 92.5223 63.3369 92.0159 63.2309 93.5336C63.1223 95.0887 63.4375 97.2854 64.1061 99.7342L46.7416 104.475C45.843 101.183 44.9628 96.7454 45.2747 92.2796C45.5892 87.7765 47.271 81.8631 52.9153 78.0764L62.9435 93.0242ZM64.1085 99.7432C64.9484 102.832 66.3169 107.716 66.4621 112.784C66.614 118.082 65.4649 124.468 60.5073 129.858L47.2591 117.672C48.0302 116.834 48.5368 115.647 48.4695 113.299C48.3956 110.722 47.6701 107.89 46.7391 104.466L64.1085 99.7432ZM60.5095 129.856C57.8544 132.744 54.7041 134.557 52.9179 135.624L43.6922 120.168C45.8019 118.908 46.6537 118.331 47.2569 117.675L60.5095 129.856ZM52.9082 135.629C51.3251 136.572 50.7562 136.951 50.4242 137.249L38.4118 123.844C40.2756 122.173 42.4163 120.927 43.7019 120.162L52.9082 135.629ZM50.4301 137.244C50.177 137.471 49.7871 137.934 49.3117 139.098C48.7903 140.375 48.382 141.919 47.7907 144.275L30.3322 139.893C31.3019 136.03 32.8441 128.842 38.4059 123.849L50.4301 137.244ZM47.7821 144.309C46.8834 147.832 45.587 153.234 42.3043 158.13L27.354 148.105C28.64 146.187 29.327 143.833 30.3408 139.859L47.7821 144.309ZM42.3036 158.131C38.9699 163.101 34.2839 166.473 31.273 168.717L20.5175 154.284C23.9878 151.698 26.0311 150.078 27.3547 148.104L42.3036 158.131ZM31.2673 168.721C29.7948 169.817 28.6794 170.644 27.6725 171.512L15.9194 157.879C17.5156 156.503 19.1979 155.265 20.5233 154.279L31.2673 168.721ZM27.6498 171.532C27.1098 171.994 26.6032 172.502 26.1765 173.013C25.7438 173.531 25.4609 173.971 25.2976 174.29C24.9201 175.029 25.4787 174.413 24.9993 173.186L8.23309 179.736C6.16885 174.451 7.54645 169.47 9.26967 166.098C11.0012 162.71 13.5623 159.898 15.942 157.86L27.6498 171.532ZM24.9928 173.17C24.9567 173.078 24.9541 173.093 25.0507 173.268C25.1559 173.458 25.2868 173.676 25.534 174.082L10.1597 183.443C9.78073 182.82 8.88455 181.394 8.23962 179.752L24.9928 173.17ZM25.5904 174.175C26.466 175.654 29.8757 180.755 28.6468 187.249L10.9607 183.902C10.9084 184.179 10.9048 184.452 10.9309 184.68C10.9552 184.894 10.9974 184.999 10.9846 184.964C10.9683 184.919 10.9115 184.777 10.7598 184.491C10.5981 184.187 10.4094 183.866 10.1033 183.349L25.5904 174.175ZM28.648 187.243C27.5111 193.275 22.9122 196.961 21.7768 197.974L9.79109 184.545C10.2113 184.17 10.4889 183.921 10.7467 183.671C10.9915 183.434 11.1268 183.282 11.1993 183.192C11.3412 183.016 11.0775 183.282 10.9595 183.909L28.648 187.243ZM21.7976 197.955C20.6729 198.965 19.677 200.039 19.0592 201.028C18.4321 202.032 18.657 202.188 18.5978 201.762L0.768893 204.238C0.0368133 198.966 1.90417 194.516 3.79169 191.494C5.68851 188.456 8.07946 186.082 9.77032 184.563L21.7976 197.955ZM18.6011 201.786C18.747 202.858 19.0409 203.828 19.5848 205.551L2.42039 210.971C1.93721 209.441 1.15095 207.045 0.765596 204.214L18.6011 201.786ZM19.579 205.532C20.4538 208.282 21.9014 212.645 21.2998 218.408L3.39709 216.539C3.57469 214.837 3.26914 213.639 2.42622 210.989L19.579 205.532ZM21.2962 218.441C20.7529 223.462 20.3472 228.495 19.9092 233.708L1.9724 232.2C2.40204 227.087 2.8284 221.794 3.40069 216.505L21.2962 218.441ZM19.9104 233.693L19.5207 238.425L1.58141 236.947L1.97116 232.215L19.9104 233.693ZM19.5205 238.428C19.2482 241.722 18.9481 245.08 18.6402 248.429L0.715792 246.781C1.02122 243.459 1.31574 240.162 1.58162 236.945L19.5205 238.428ZM10.0066 239.725L21.2487 238.784L22.7504 256.721L11.5084 257.662L10.0066 239.725ZM21.2276 238.785C21.8162 238.735 28.5553 237.775 33.597 242.586L21.1707 255.609C22.1004 256.496 23.0254 256.657 23.1821 256.68C23.3042 256.697 23.2947 256.674 22.7715 256.719L21.2276 238.785ZM35.2598 244.672L36.3923 246.567L20.9407 255.8L19.8081 253.905L35.2598 244.672ZM36.9223 247.6C36.731 247.159 36.3025 246.414 35.494 245.717C34.7059 245.037 33.9633 244.754 33.6493 244.657L28.3413 261.857C26.947 261.426 25.2924 260.688 23.7362 259.346C22.1595 257.986 21.1067 256.37 20.4107 254.767L36.9223 247.6ZM33.6077 244.644C33.457 244.599 33.342 244.575 33.2695 244.563C33.1962 244.55 33.151 244.547 33.1356 244.546C33.1196 244.545 33.1229 244.546 33.1445 244.545C33.1657 244.544 33.1976 244.542 33.2379 244.537C33.3242 244.527 33.4073 244.508 33.47 244.489C33.4839 244.484 33.4948 244.481 33.5025 244.478C33.5102 244.475 33.5139 244.473 33.5136 244.474C33.5134 244.474 33.5082 244.476 33.4983 244.481C33.4883 244.485 33.4727 244.493 33.4516 244.505L42.05 260.318C38.174 262.426 32.9129 263.244 28.3828 261.869L33.6077 244.644ZM33.4238 244.52C34.2822 244.049 35.2137 243.302 37.0397 241.73L48.786 255.369C47.1944 256.739 44.8674 258.773 42.0779 260.303L33.4238 244.52ZM37.0594 241.713C38.8127 240.211 41.3778 237.983 44.6207 236.207L53.2644 251.996C51.9031 252.741 50.6786 253.748 48.7663 255.386L37.0594 241.713ZM44.6266 236.204C49.8663 233.34 56.6262 232.473 62.4281 234.24L57.1851 251.459C56.311 251.193 54.5354 251.301 53.2586 251.999L44.6266 236.204ZM62.4409 234.244C64.7125 234.939 66.9104 236.047 68.8381 237.656L57.2994 251.472C57.3649 251.526 57.4011 251.544 57.3884 251.537C57.3747 251.53 57.3078 251.497 57.1723 251.455L62.4409 234.244ZM61.0539 236.33C69.3022 233.274 78.3058 234.658 82.6011 235.24L80.1844 253.077C75.0944 252.387 70.653 251.969 67.3071 253.209L61.0539 236.33ZM82.5976 235.239C85.4996 235.631 89.9542 236.216 94.4227 237.594C98.8905 238.971 104.148 241.362 108.278 245.895L94.9715 258.017C93.8413 256.777 91.9627 255.671 89.1192 254.795C86.2764 253.918 83.2448 253.49 80.188 253.077L82.5976 235.239ZM108.357 245.983L108.941 246.642L95.4762 258.587L94.8919 257.928L108.357 245.983ZM108.476 246.155L109.796 247.435L97.2616 260.354L95.9418 259.074L108.476 246.155ZM107.755 245.992C106.923 245.575 106.169 245.405 105.642 245.338C105.144 245.274 104.817 245.299 104.769 245.303C104.718 245.307 104.79 245.304 105.061 245.255C105.329 245.207 105.673 245.136 106.168 245.029L109.973 262.623C109.013 262.83 107.588 263.137 106.181 263.248C104.761 263.359 102.279 263.381 99.6942 262.086L107.755 245.992ZM106.202 245.022C107.895 244.663 111.703 243.772 115.881 244.533L112.655 262.241C112.642 262.239 112.464 262.209 111.996 262.258C111.483 262.312 110.911 262.424 109.939 262.63L106.202 245.022ZM115.913 244.539C122.51 245.765 126.862 250.139 129.029 255.123C131.073 259.825 131.251 265.074 130.334 269.629L112.688 266.074C113.037 264.344 112.808 262.958 112.521 262.298C112.401 262.023 112.339 262.021 112.447 262.113C112.588 262.234 112.707 262.251 112.623 262.235L115.913 244.539ZM130.313 269.729L129.897 271.68L112.293 267.926L112.709 265.975L130.313 269.729ZM129.882 271.749C129.659 272.755 129.489 273.529 129.36 274.247C129.233 274.955 129.185 275.408 129.174 275.694C129.151 276.289 129.309 275.42 128.496 274.369L114.26 285.385C111.49 281.806 111.077 277.839 111.187 274.999C111.291 272.313 111.925 269.585 112.308 267.857L129.882 271.749ZM128.513 274.391C127.868 273.552 127.268 273.498 127.964 273.734C128.287 273.844 128.759 273.973 129.468 274.126C130.185 274.282 130.973 274.426 131.976 274.608L128.753 292.317C126.992 291.997 124.471 291.558 122.172 290.777C119.782 289.964 116.633 288.471 114.243 285.363L128.513 274.391ZM124.578 277.098C125.109 276.516 125.656 275.979 126.001 275.638C126.406 275.238 126.624 275.02 126.802 274.824C127.162 274.43 126.843 274.669 126.609 275.369L143.683 281.068C142.764 283.821 141.18 285.772 140.098 286.958C139.556 287.552 139.009 288.09 138.654 288.441C138.24 288.849 138.034 289.056 137.869 289.237L124.578 277.098ZM126.605 275.382C126.55 275.548 126.63 275.572 126.565 274.727C126.548 274.499 126.524 274.251 126.491 273.915C126.461 273.606 126.419 273.193 126.384 272.774C126.311 271.917 126.242 270.796 126.296 269.531L144.28 270.303C144.248 271.037 144.34 271.098 144.513 273.354C144.654 275.198 144.725 277.929 143.687 281.055L126.605 275.382ZM126.297 269.511C126.551 263.894 128.697 259.115 132.434 255.518C135.938 252.144 140.298 250.327 144.266 249.269L148.906 266.66C146.534 267.293 145.399 268.021 144.918 268.485C144.714 268.682 144.605 268.849 144.526 269.027C144.443 269.214 144.311 269.603 144.279 270.323L126.297 269.511ZM144.273 249.267C145.033 249.065 145.24 248.9 145.198 248.929C145.129 248.977 145.131 249.013 145.256 248.831C145.446 248.555 145.709 248.083 146.211 247.011C146.633 246.109 147.335 244.527 148.115 243L164.146 251.187C163.553 252.347 163.16 253.26 162.515 254.639C161.948 255.849 161.173 257.447 160.103 259.008C157.574 262.698 154.022 265.3 148.898 266.662L144.273 249.267ZM148.115 243C150.722 237.895 154.072 234.399 159.091 232.705C161.072 232.036 163.045 231.757 164.329 231.573C165.789 231.363 166.918 231.212 168.238 230.915L172.197 248.474C170.037 248.961 168.133 249.211 166.885 249.39C165.46 249.594 165.048 249.692 164.846 249.76C164.81 249.772 164.872 249.754 164.978 249.691C165.088 249.626 165.155 249.567 165.167 249.555C165.171 249.552 165.077 249.64 164.9 249.894C164.718 250.154 164.464 250.563 164.146 251.187L148.115 243ZM168.236 230.915C169.376 230.658 169.582 230.382 169.466 230.487C169.348 230.594 169.426 230.616 169.595 230.139C169.805 229.549 169.996 228.656 170.207 227.064C170.375 225.795 170.62 223.434 170.975 221.46L188.691 224.641C188.43 226.095 188.337 227.264 188.051 229.427C187.807 231.269 187.427 233.712 186.558 236.161C185.648 238.724 184.138 241.49 181.531 243.845C178.926 246.198 175.742 247.674 172.199 248.474L168.236 230.915ZM170.975 221.46C171.561 218.194 172.756 215.203 174.748 212.637C176.73 210.084 179.121 208.44 181.367 207.315C183.507 206.243 185.729 205.544 187.452 205.027C189.38 204.448 190.789 204.064 192.348 203.508L198.396 220.461C196.263 221.223 194.071 221.833 192.628 222.266C190.981 222.761 190.062 223.092 189.429 223.409C188.9 223.674 188.886 223.778 188.967 223.674C189.058 223.557 188.857 223.716 188.691 224.641L170.975 221.46ZM192.362 203.503C194.889 202.606 197.24 201.015 200.013 198.625C201.424 197.408 202.771 196.143 204.366 194.67C205.896 193.258 207.614 191.694 209.468 190.207L220.73 204.248C219.401 205.314 218.075 206.511 216.576 207.895C215.143 209.218 213.477 210.783 211.766 212.258C208.294 215.25 203.965 218.485 198.382 220.466L192.362 203.503ZM209.461 190.212C220.372 181.442 230.041 174.83 239.691 166.338L251.582 179.852C241.753 188.5 230.119 196.702 220.737 204.242L209.461 190.212ZM239.696 166.334C244.11 162.455 246.113 160.648 247.12 158.211L263.757 165.082C260.814 172.208 254.972 176.872 251.577 179.856L239.696 166.334ZM247.115 158.222C247.452 157.403 247.589 156.551 248.044 154.068C248.428 151.978 249.067 148.66 250.934 145.361L266.601 154.223C266.342 154.681 266.105 155.375 265.749 157.316C265.465 158.864 265 162.061 263.761 165.072L247.115 158.222ZM250.93 145.368C252.291 142.956 254.686 139.195 259.602 138.027C261.239 137.637 262.919 137.657 263.182 137.651C263.736 137.639 264.064 137.623 264.481 137.558L267.256 155.343C265.64 155.595 264.361 155.629 263.574 155.647C263.368 155.651 263.265 155.653 263.147 155.656C263.044 155.659 263.011 155.661 263.015 155.661C263.021 155.66 263.097 155.656 263.22 155.64C263.346 155.623 263.534 155.594 263.765 155.539C264.262 155.421 264.844 155.214 265.437 154.876C266.015 154.547 266.426 154.195 266.68 153.94C266.915 153.704 267.009 153.559 266.966 153.62C266.925 153.678 266.809 153.855 266.605 154.216L250.93 145.368ZM264.488 137.557C265.137 137.456 265.487 137.292 265.785 137.104C266.168 136.862 266.72 136.413 267.626 135.416L280.952 147.516C277.864 150.917 273.788 154.329 267.249 155.344L264.488 137.557ZM267.63 135.41C269.307 133.567 270.488 131.566 272.625 128.325C274.55 125.404 277.171 121.652 281.149 118.565L292.184 132.787C290.681 133.952 289.402 135.579 287.653 138.232C286.115 140.564 283.848 144.332 280.947 147.522L267.63 135.41ZM281.159 118.558C282.018 117.893 282.823 117.441 283.348 117.164C283.607 117.027 283.85 116.906 283.994 116.835C284.167 116.749 284.229 116.717 284.28 116.691C284.377 116.64 284.125 116.761 283.773 117.035C283.376 117.344 282.889 117.814 282.461 118.468L297.53 128.314C295.849 130.886 293.622 132.117 292.628 132.638C292.382 132.767 292.143 132.885 292.014 132.949C291.855 133.029 291.794 133.06 291.75 133.083C291.67 133.125 291.877 133.024 292.174 132.794L281.159 118.558ZM282.496 118.416C281.906 119.304 281.742 120.087 281.701 120.328C281.687 120.415 281.689 120.478 281.733 119.639C281.79 118.548 281.867 114.73 284.522 111.25L298.834 122.165C299.895 120.774 299.773 119.331 299.708 120.576C299.691 120.904 299.652 122.126 299.451 123.32C299.223 124.67 298.727 126.51 297.495 128.367L282.496 118.416ZM284.507 111.269C286.907 108.104 290.116 105.977 293.975 105.321C297.359 104.746 300.365 105.486 302.058 105.955C304.5 106.632 304.676 106.805 305.866 107.053C306.537 107.193 306.213 107.009 305.544 107.238L311.352 124.275C307.76 125.499 304.474 125.149 302.195 124.675C301.059 124.438 300.017 124.135 299.223 123.895C298.301 123.616 297.836 123.463 297.251 123.301C296.077 122.976 296.282 123.187 296.99 123.067C297.442 122.99 297.928 122.814 298.354 122.543C298.756 122.287 298.902 122.076 298.849 122.146L284.507 111.269ZM305.541 107.238C305.835 107.138 305.501 107.207 304.933 107.639C304.284 108.132 303.34 109.1 302.781 110.642C302.233 112.159 302.331 113.474 302.477 114.217C302.607 114.877 302.801 115.226 302.735 115.091C302.671 114.96 302.564 114.766 302.251 114.22C301.998 113.779 301.568 113.035 301.174 112.228C300.463 110.774 299.094 107.636 299.74 103.786L317.492 106.766C317.802 104.92 317.092 103.804 317.348 104.329C317.437 104.511 317.567 104.746 317.865 105.265C318.102 105.678 318.536 106.426 318.918 107.21C319.49 108.386 321.337 112.263 319.707 116.767C318.001 121.483 313.836 123.427 311.354 124.274L305.541 107.238ZM299.74 103.787C300.305 100.42 302.209 97.9081 303.379 96.5417C304.711 94.9857 306.259 93.6036 307.571 92.5091C308.902 91.3995 310.3 90.3346 311.336 89.5355C312.535 88.6102 313.109 88.1437 313.362 87.9035L325.775 100.938C324.712 101.95 323.336 103.011 322.331 103.787C321.162 104.689 320.101 105.498 319.099 106.334C318.078 107.185 317.419 107.819 317.052 108.249C316.522 108.868 317.233 108.31 317.492 106.764L299.74 103.787ZM312.929 99.7553L302.17 87.8876L315.505 75.7976L326.264 87.6652L312.929 99.7553ZM302.172 87.8907C301.612 87.2732 300.01 85.5616 298.775 83.2959C297.48 80.9228 296.214 77.2782 297.141 72.9439L314.743 76.7072C314.862 76.1486 314.837 75.6253 314.755 75.2251C314.717 75.0388 314.67 74.8995 314.636 74.8114C314.603 74.7243 314.578 74.6791 314.577 74.6773C314.576 74.6755 314.592 74.7039 314.632 74.7635C314.673 74.8228 314.73 74.9015 314.81 75.002C314.986 75.2225 315.177 75.4358 315.502 75.7945L302.172 87.8907ZM313.404 87.8639C310.03 91.0355 309.819 96.3249 312.929 99.7553L326.264 87.6652C329.746 91.5056 329.51 97.4273 325.733 100.978L313.404 87.8639ZM132.046 274.621C129.102 274.061 126.33 275.179 124.578 277.098L137.869 289.237C135.681 291.633 132.263 292.985 128.684 292.304L132.046 274.621ZM68.8381 237.656C66.8578 236.003 63.9227 235.267 61.0539 236.33L67.3071 253.209C63.6822 254.552 59.8986 253.643 57.2994 251.472L68.8381 237.656ZM109.796 247.435C109.409 247.061 108.735 246.483 107.755 245.992L99.6942 262.086C98.5682 261.522 97.7649 260.843 97.2616 260.354L109.796 247.435ZM93.3684 21.0283C95.3669 21.6601 97.5323 21.4822 99.3996 20.5351L91.2572 4.48204C93.591 3.29829 96.2971 3.07606 98.7944 3.86561L93.3684 21.0283ZM67.2993 89.8728C66.9147 90.2474 66.5209 90.5699 66.1349 90.8453L55.6811 76.192C55.3729 76.4118 55.0547 76.6719 54.7387 76.9797L67.2993 89.8728ZM33.597 242.586C34.3257 243.282 34.8648 244.011 35.2598 244.672L19.8081 253.905C20.12 254.426 20.5592 255.025 21.1707 255.609L33.597 242.586ZM18.6402 248.429C19.0955 243.478 14.969 239.309 10.0066 239.725L11.5084 257.662C5.30581 258.181 0.146503 252.971 0.715792 246.781L18.6402 248.429ZM286.814 35.5716C287.055 38.0265 288.413 40.1963 290.438 41.4954L300.155 26.3435C302.716 27.9856 304.424 30.7223 304.727 33.8095L286.814 35.5716Z" fill="#FFBF02" mask="url(#path-1-outside-1_1088_25027)"/>
</svg>
