<svg width="562" height="348" viewBox="0 0 562 348" fill="none" xmlns="http://www.w3.org/2000/svg">
<mask id="path-1-outside-1_1088_25013" maskUnits="userSpaceOnUse" x="-0.953125" y="-0.798828" width="563" height="348" fill="black">
<rect fill="white" x="-0.953125" y="-0.798828" width="563" height="348"/>
<path d="M324.97 13.1547C232.55 18.521 136.979 24.0662 43.4091 34.059C40.3921 34.3792 37.4854 34.7353 34.6891 35.1679C34.0058 35.2736 33.6437 36.0285 33.9319 36.6569C35.4895 40.0533 35.6337 43.5122 32.0669 46.296C26.5065 50.6378 20.6893 43.0681 16.5545 51.1908C12.4639 59.2078 21.9201 67.7045 17.13 75.3963C15.5097 77.9819 10.3566 78.7055 9.2587 81.2423C8.11652 83.8848 11.9327 91.2921 12.6322 93.9428C13.4113 96.9268 13.1456 101.96 14.6774 104.602C16.5102 107.757 19.9899 107.123 23.8503 107.676C27.808 108.237 31.4559 108.09 32.1377 112.001C32.846 116.075 28.8972 120.961 27.1441 124.336C22.6462 132.954 25.4795 137.28 29.8711 144.679C31.6153 147.622 32.8195 148.257 35.5289 150.371C38.7783 152.916 39.8673 156.412 40.9033 160.209C42.4616 165.925 44.2679 173.983 40.4872 179.227C38.5215 181.951 36.9809 181.43 37.8486 184.837C38.619 187.846 42.1518 189.138 43.3028 191.781C45.6226 197.139 38.4242 205.563 37.2908 211.084C35.8476 218.101 40.5225 230.907 47.6412 220.995C49.2173 218.808 50.8995 215.938 54.1667 215.751C57.4693 215.556 56.6813 216.596 58.762 218.645C64.8183 224.646 64.8448 217.767 70.4052 216.182C75.3724 214.767 80.791 221.589 80.6139 225.8C80.4811 229.167 76.727 233.021 75.3546 236.118C73.9468 239.298 72.8489 243.379 67.8375 241.485C65.1016 240.444 66.0932 238.875 62.8261 239.038C59.9396 239.176 56.6548 241.834 54.1491 242.965C49.9877 244.835 47.1809 245.924 43.1788 243.94C39.8408 242.282 39.1856 239.972 35.0596 241.33C22.8852 245.331 40.434 253.12 41.2309 258.519C41.6293 261.235 38.9288 265.292 41.2309 267.723C46.1803 272.959 56.8584 265.723 62.9234 268.861C66.2968 270.601 68.5724 274.073 71.8396 276.106C75.5583 278.415 78.4447 279.334 78.3651 283.741C78.1703 292.994 67.7578 300.759 60.3823 305.361C51.9975 310.589 51.0147 313.874 55.424 321.939C57.8412 326.371 65.2256 330.607 65.8631 335.372C65.9168 335.771 65.9118 336.302 65.8601 336.916C65.8051 337.568 66.34 338.135 66.9916 338.068C149.42 329.546 232.722 324.86 315.714 323.978C316.077 323.975 316.409 323.775 316.583 323.456C321.054 315.264 325.857 307.314 330.574 299.254C333.505 294.254 335.497 288.506 340.402 284.798C342.908 282.912 346.521 281.651 347.309 278.44C347.831 276.277 346.149 275.285 347.61 273.138C348.38 272 351.293 270.764 352.727 270.488C357.659 269.561 363.343 274.146 367.974 271.634C371.79 269.561 370.63 267.918 375.527 266.951C378.873 266.292 381.476 266.341 380.874 263.308C380.29 260.365 375.358 259.852 378.103 256.413C380.201 253.803 385.603 254.714 388.338 252.836C392.287 250.144 392.695 244.428 397.662 242.55C399.654 241.802 404.48 241.42 405.515 243.347C406.436 245.054 401.327 249.047 405.126 251.055C408.34 252.754 409.296 248.437 411.271 247.152C413.458 245.721 417.548 245.445 419.744 247.16C421.665 248.648 421.196 252.551 423.852 253.226C426.827 253.966 434.229 245.892 434.707 243.656C436.257 236.419 422.639 240.956 420.842 235.866C419.487 232.053 423.613 226.191 424.091 222.263C424.578 218.271 422.657 214.856 427.562 213.938C431.635 213.165 434.141 216.808 437.373 216.751C441.826 216.686 441.569 212.498 442.145 209.775C443.234 204.628 443.845 206.49 448.228 203.652C451.557 201.489 451.982 198.099 452.752 194.578C453.788 189.846 453.469 191.09 449.529 188.399C444.128 184.707 447.758 179.829 450.388 175.365C455.754 166.234 443.951 158.355 446.156 148.102C448.467 137.378 454.08 126.238 460.429 117.059C467.114 107.399 477.349 97.6259 489.674 94.4305C492.852 93.6093 512.863 91.3896 503.424 87.9665C499.086 86.3891 493.747 87.3405 489.222 86.5599C483.874 85.6249 479.403 82.1366 474.604 79.9413C470 77.8435 461.208 76.2825 458.534 71.8511C454.505 65.192 463.333 63.8342 468.53 62.9642C481.466 60.8014 491.312 48.7351 505.478 56.5651C512.748 60.5736 512.066 64.5985 512.216 71.4934C512.314 75.819 513.668 76.5265 518.131 78.2258C524.727 80.7382 525.701 79.4046 531.403 75.4612C536.866 71.6885 543.622 70.1112 548.554 65.7693C555.283 59.8338 552.565 51.3452 551.715 43.6535C551.219 39.3035 550.377 38.531 547.881 35.4738C545.083 32.0344 546.535 32.002 547.668 27.6276C548.855 23.0743 546.73 19.1634 541.417 18.082C534.239 16.619 533.748 21.369 531.798 26.0821C531.609 26.539 531.105 26.7705 530.628 26.6407C527.162 25.6975 523.368 24.9394 519.787 24.676C517.679 24.5215 508.781 26.0178 514.403 28.083C518.352 29.5384 522.877 25.6761 526.374 29.9204C528.756 32.7906 528.419 38.7587 525.728 41.4175C522.62 44.5072 516.59 44.0436 512.358 44.3689C508.772 44.6372 496.491 46.7188 493.605 43.7186C488.664 38.5799 511.225 23.6923 493.578 25.3591C489.081 25.7819 488.239 28.0016 484.547 29.5952C479.43 31.7905 472.665 28.522 467.831 26.969C461.296 24.8793 456.922 25.0014 458.259 17.6999C458.711 15.24 459.465 13.0754 460.119 10.9879C460.314 10.3676 459.862 9.73972 459.213 9.71561C414.29 8.04821 369.017 10.6014 324.97 13.1547"/>
</mask>
<path d="M324.97 13.1547C232.55 18.521 136.979 24.0662 43.4091 34.059C40.3921 34.3792 37.4854 34.7353 34.6891 35.1679C34.0058 35.2736 33.6437 36.0285 33.9319 36.6569C35.4895 40.0533 35.6337 43.5122 32.0669 46.296C26.5065 50.6378 20.6893 43.0681 16.5545 51.1908C12.4639 59.2078 21.9201 67.7045 17.13 75.3963C15.5097 77.9819 10.3566 78.7055 9.2587 81.2423C8.11652 83.8848 11.9327 91.2921 12.6322 93.9428C13.4113 96.9268 13.1456 101.96 14.6774 104.602C16.5102 107.757 19.9899 107.123 23.8503 107.676C27.808 108.237 31.4559 108.09 32.1377 112.001C32.846 116.075 28.8972 120.961 27.1441 124.336C22.6462 132.954 25.4795 137.28 29.8711 144.679C31.6153 147.622 32.8195 148.257 35.5289 150.371C38.7783 152.916 39.8673 156.412 40.9033 160.209C42.4616 165.925 44.2679 173.983 40.4872 179.227C38.5215 181.951 36.9809 181.43 37.8486 184.837C38.619 187.846 42.1518 189.138 43.3028 191.781C45.6226 197.139 38.4242 205.563 37.2908 211.084C35.8476 218.101 40.5225 230.907 47.6412 220.995C49.2173 218.808 50.8995 215.938 54.1667 215.751C57.4693 215.556 56.6813 216.596 58.762 218.645C64.8183 224.646 64.8448 217.767 70.4052 216.182C75.3724 214.767 80.791 221.589 80.6139 225.8C80.4811 229.167 76.727 233.021 75.3546 236.118C73.9468 239.298 72.8489 243.379 67.8375 241.485C65.1016 240.444 66.0932 238.875 62.8261 239.038C59.9396 239.176 56.6548 241.834 54.1491 242.965C49.9877 244.835 47.1809 245.924 43.1788 243.94C39.8408 242.282 39.1856 239.972 35.0596 241.33C22.8852 245.331 40.434 253.12 41.2309 258.519C41.6293 261.235 38.9288 265.292 41.2309 267.723C46.1803 272.959 56.8584 265.723 62.9234 268.861C66.2968 270.601 68.5724 274.073 71.8396 276.106C75.5583 278.415 78.4447 279.334 78.3651 283.741C78.1703 292.994 67.7578 300.759 60.3823 305.361C51.9975 310.589 51.0147 313.874 55.424 321.939C57.8412 326.371 65.2256 330.607 65.8631 335.372C65.9168 335.771 65.9118 336.302 65.8601 336.916C65.8051 337.568 66.34 338.135 66.9916 338.068C149.42 329.546 232.722 324.86 315.714 323.978C316.077 323.975 316.409 323.775 316.583 323.456C321.054 315.264 325.857 307.314 330.574 299.254C333.505 294.254 335.497 288.506 340.402 284.798C342.908 282.912 346.521 281.651 347.309 278.44C347.831 276.277 346.149 275.285 347.61 273.138C348.38 272 351.293 270.764 352.727 270.488C357.659 269.561 363.343 274.146 367.974 271.634C371.79 269.561 370.63 267.918 375.527 266.951C378.873 266.292 381.476 266.341 380.874 263.308C380.29 260.365 375.358 259.852 378.103 256.413C380.201 253.803 385.603 254.714 388.338 252.836C392.287 250.144 392.695 244.428 397.662 242.55C399.654 241.802 404.48 241.42 405.515 243.347C406.436 245.054 401.327 249.047 405.126 251.055C408.34 252.754 409.296 248.437 411.271 247.152C413.458 245.721 417.548 245.445 419.744 247.16C421.665 248.648 421.196 252.551 423.852 253.226C426.827 253.966 434.229 245.892 434.707 243.656C436.257 236.419 422.639 240.956 420.842 235.866C419.487 232.053 423.613 226.191 424.091 222.263C424.578 218.271 422.657 214.856 427.562 213.938C431.635 213.165 434.141 216.808 437.373 216.751C441.826 216.686 441.569 212.498 442.145 209.775C443.234 204.628 443.845 206.49 448.228 203.652C451.557 201.489 451.982 198.099 452.752 194.578C453.788 189.846 453.469 191.09 449.529 188.399C444.128 184.707 447.758 179.829 450.388 175.365C455.754 166.234 443.951 158.355 446.156 148.102C448.467 137.378 454.08 126.238 460.429 117.059C467.114 107.399 477.349 97.6259 489.674 94.4305C492.852 93.6093 512.863 91.3896 503.424 87.9665C499.086 86.3891 493.747 87.3405 489.222 86.5599C483.874 85.6249 479.403 82.1366 474.604 79.9413C470 77.8435 461.208 76.2825 458.534 71.8511C454.505 65.192 463.333 63.8342 468.53 62.9642C481.466 60.8014 491.312 48.7351 505.478 56.5651C512.748 60.5736 512.066 64.5985 512.216 71.4934C512.314 75.819 513.668 76.5265 518.131 78.2258C524.727 80.7382 525.701 79.4046 531.403 75.4612C536.866 71.6885 543.622 70.1112 548.554 65.7693C555.283 59.8338 552.565 51.3452 551.715 43.6535C551.219 39.3035 550.377 38.531 547.881 35.4738C545.083 32.0344 546.535 32.002 547.668 27.6276C548.855 23.0743 546.73 19.1634 541.417 18.082C534.239 16.619 533.748 21.369 531.798 26.0821C531.609 26.539 531.105 26.7705 530.628 26.6407C527.162 25.6975 523.368 24.9394 519.787 24.676C517.679 24.5215 508.781 26.0178 514.403 28.083C518.352 29.5384 522.877 25.6761 526.374 29.9204C528.756 32.7906 528.419 38.7587 525.728 41.4175C522.62 44.5072 516.59 44.0436 512.358 44.3689C508.772 44.6372 496.491 46.7188 493.605 43.7186C488.664 38.5799 511.225 23.6923 493.578 25.3591C489.081 25.7819 488.239 28.0016 484.547 29.5952C479.43 31.7905 472.665 28.522 467.831 26.969C461.296 24.8793 456.922 25.0014 458.259 17.6999C458.711 15.24 459.465 13.0754 460.119 10.9879C460.314 10.3676 459.862 9.73972 459.213 9.71561C414.29 8.04821 369.017 10.6014 324.97 13.1547" fill="white"/>
<path d="M43.4091 34.059L44.3648 43.0081L44.3589 43.0088L43.4091 34.059ZM32.0669 46.296L26.5278 39.2024L26.5296 39.2011L32.0669 46.296ZM16.5545 51.1908L24.5751 55.2737L24.5712 55.2812L16.5545 51.1908ZM17.13 75.3963L24.7697 80.1539L24.763 80.1647L24.7563 80.1754L17.13 75.3963ZM9.2587 81.2423L0.997378 77.6715L0.99906 77.6676L9.2587 81.2423ZM12.6322 93.9428L21.3343 91.6464L21.3373 91.6577L21.3402 91.669L12.6322 93.9428ZM14.6774 104.602L6.89538 109.123L6.89097 109.116L14.6774 104.602ZM23.8503 107.676L22.5871 116.587L22.5743 116.585L23.8503 107.676ZM32.1377 112.001L41.004 110.456L41.0046 110.459L32.1377 112.001ZM27.1441 124.336L35.1305 128.485L35.1267 128.492L35.1229 128.5L27.1441 124.336ZM29.8711 144.679L37.6105 140.085L37.6137 140.091L29.8711 144.679ZM35.5289 150.371L41.0653 143.275L41.0718 143.28L41.0782 143.285L35.5289 150.371ZM40.9033 160.209L49.5859 157.84L49.5864 157.842L40.9033 160.209ZM40.4872 179.227L47.7878 184.49L47.7853 184.494L40.4872 179.227ZM37.8486 184.837L29.1299 187.07L29.1271 187.059L37.8486 184.837ZM43.3028 191.781L51.554 188.187L51.558 188.196L51.562 188.205L43.3028 191.781ZM37.2908 211.084L46.107 212.893L46.1063 212.897L37.2908 211.084ZM47.6412 220.995L40.3313 215.745L40.3394 215.734L47.6412 220.995ZM54.1667 215.751L54.6976 224.735L54.6893 224.736L54.681 224.736L54.1667 215.751ZM58.762 218.645L65.0769 212.233L65.0867 212.242L65.0966 212.252L58.762 218.645ZM70.4052 216.182L67.9373 207.527L67.9399 207.526L70.4052 216.182ZM80.6139 225.8L71.6209 225.446L71.6214 225.434L71.6219 225.422L80.6139 225.8ZM75.3546 236.118L67.1254 232.474L67.126 232.473L75.3546 236.118ZM67.8375 241.485L64.655 249.903L64.6463 249.9L64.6376 249.897L67.8375 241.485ZM62.8261 239.038L63.2735 248.026L63.265 248.027L63.2565 248.027L62.8261 239.038ZM54.1491 242.965L57.8495 251.169L57.8382 251.174L54.1491 242.965ZM43.1788 243.94L39.1815 252.004L39.1738 252L43.1788 243.94ZM35.0596 241.33L37.873 249.879L37.8691 249.881L35.0596 241.33ZM41.2309 258.519L50.1344 257.205L50.1355 257.213L41.2309 258.519ZM41.2309 267.723L47.7659 261.535L47.7714 261.541L41.2309 267.723ZM62.9234 268.861L58.7977 276.86L58.7872 276.855L62.9234 268.861ZM71.8396 276.106L67.0919 283.752L67.0852 283.748L71.8396 276.106ZM78.3651 283.741L87.3636 283.904L87.3633 283.917L87.3631 283.93L78.3651 283.741ZM60.3823 305.361L65.1466 312.996L65.1442 312.998L60.3823 305.361ZM55.424 321.939L63.321 317.622L63.325 317.63L55.424 321.939ZM65.8631 335.372L56.9433 336.571L56.9425 336.565L65.8631 335.372ZM330.574 299.254L322.807 294.708L322.81 294.704L330.574 299.254ZM340.402 284.798L334.975 277.618L334.982 277.613L334.989 277.608L340.402 284.798ZM347.309 278.44L356.057 280.553L356.053 280.568L356.049 280.584L347.309 278.44ZM347.61 273.138L355.063 278.182L355.057 278.192L355.05 278.202L347.61 273.138ZM352.727 270.488L351.024 261.65L351.044 261.646L351.065 261.642L352.727 270.488ZM367.974 271.634L372.271 279.542L372.266 279.545L367.974 271.634ZM375.527 266.951L373.782 258.121L373.789 258.12L375.527 266.951ZM380.874 263.308L389.702 261.555L389.702 261.555L380.874 263.308ZM378.103 256.413L371.069 250.799L371.079 250.786L371.089 250.774L378.103 256.413ZM388.338 252.836L383.245 245.416L383.257 245.407L383.27 245.398L388.338 252.836ZM397.662 242.55L394.479 234.132L394.488 234.128L394.498 234.124L397.662 242.55ZM405.515 243.347L397.594 247.619L397.588 247.608L405.515 243.347ZM405.126 251.055L400.919 259.011L400.919 259.011L405.126 251.055ZM411.271 247.152L416.199 254.683L416.189 254.689L416.179 254.696L411.271 247.152ZM419.744 247.16L414.233 254.276L414.218 254.264L414.203 254.252L419.744 247.16ZM423.852 253.226L421.68 261.96L421.658 261.954L421.636 261.949L423.852 253.226ZM434.707 243.656L425.906 241.774L425.907 241.771L434.707 243.656ZM420.842 235.866L429.323 232.854L429.325 232.862L429.328 232.87L420.842 235.866ZM424.091 222.263L415.157 221.176L415.158 221.174L424.091 222.263ZM427.562 213.938L429.239 222.78L429.229 222.782L429.219 222.784L427.562 213.938ZM437.373 216.751L437.214 207.752L437.228 207.752L437.241 207.752L437.373 216.751ZM442.145 209.775L433.339 207.914L433.34 207.912L442.145 209.775ZM448.228 203.652L453.131 211.199L453.119 211.207L448.228 203.652ZM452.752 194.578L443.96 192.654L443.96 192.653L452.752 194.578ZM449.529 188.399L444.453 195.83L444.451 195.829L449.529 188.399ZM450.388 175.365L458.147 179.925L458.142 179.933L450.388 175.365ZM446.156 148.102L437.357 146.21L437.358 146.206L446.156 148.102ZM460.429 117.059L453.026 111.939L453.028 111.937L460.429 117.059ZM489.674 94.4305L487.415 85.7185L487.422 85.7166L489.674 94.4305ZM503.424 87.9665L500.356 96.4273L500.349 96.4248L503.424 87.9665ZM489.222 86.5599L487.692 95.4289L487.682 95.4272L487.672 95.4254L489.222 86.5599ZM474.604 79.9413L478.336 71.7513L478.348 71.757L474.604 79.9413ZM458.534 71.8511L466.234 67.1925L466.24 67.2013L458.534 71.8511ZM468.53 62.9642L467.044 54.0877L467.046 54.0874L468.53 62.9642ZM505.478 56.5651L501.132 64.4463L501.125 64.442L505.478 56.5651ZM512.216 71.4934L503.219 71.696L503.219 71.6899L512.216 71.4934ZM518.131 78.2258L521.334 69.815L521.334 69.8152L518.131 78.2258ZM531.403 75.4612L526.284 68.059L526.289 68.0555L531.403 75.4612ZM548.554 65.7693L554.507 72.5188L554.501 72.5244L548.554 65.7693ZM551.715 43.6535L560.657 42.6342L560.658 42.6496L560.66 42.6649L551.715 43.6535ZM547.881 35.4738L540.91 41.1668L540.904 41.1601L540.899 41.1533L547.881 35.4738ZM547.668 27.6276L538.956 25.3704L538.959 25.3582L547.668 27.6276ZM541.417 18.082L539.622 26.9012L539.62 26.9007L541.417 18.082ZM519.787 24.676L520.445 15.7001L520.447 15.7003L519.787 24.676ZM514.403 28.083L517.506 19.6349L517.516 19.6383L514.403 28.083ZM526.374 29.9204L519.448 35.6677L519.438 35.6557L519.428 35.6437L526.374 29.9204ZM525.728 41.4175L519.382 35.035L519.393 35.0248L519.403 35.0145L525.728 41.4175ZM512.358 44.3689L513.048 53.3424L513.039 53.3431L513.029 53.3438L512.358 44.3689ZM493.605 43.7186L487.119 49.9583L487.117 49.9562L493.605 43.7186ZM493.578 25.3591L494.425 34.3192L494.421 34.3196L493.578 25.3591ZM484.547 29.5952L488.114 37.8583L488.105 37.8623L488.095 37.8663L484.547 29.5952ZM467.831 26.969L470.572 18.3966L470.583 18.4002L467.831 26.969ZM458.259 17.6999L449.407 16.0789L449.407 16.0755L458.259 17.6999ZM460.119 10.9879L468.707 13.6796L460.119 10.9879ZM459.213 9.71561L459.547 0.721806L459.213 9.71561ZM315.714 323.978L315.809 332.978L315.714 323.978ZM316.583 323.456L324.482 327.768L316.583 323.456ZM531.798 26.0821L540.115 29.5223L531.798 26.0821ZM530.628 26.6407L532.991 17.9565L530.628 26.6407ZM65.8601 336.916L74.8283 337.671L65.8601 336.916ZM66.9916 338.068L66.066 329.115L66.9916 338.068ZM34.6891 35.1679L36.0649 44.0621L34.6891 35.1679ZM33.9319 36.6569L25.7511 40.4086L33.9319 36.6569ZM325.491 22.1395C233.035 27.5081 137.682 33.0424 44.3648 43.0081L42.4533 25.1099C136.277 15.0901 232.066 9.53398 324.448 4.16982L325.491 22.1395ZM44.3589 43.0088C41.4288 43.3198 38.6736 43.6585 36.0649 44.0621L33.3132 26.2737C36.2972 25.812 39.3554 25.4387 42.4592 25.1093L44.3589 43.0088ZM42.1126 32.9052C43.2742 35.4381 44.3628 38.932 43.8444 42.8785C43.2832 47.15 41.0038 50.7376 37.6042 53.3909L26.5296 39.2011C26.6806 39.0832 26.5563 39.1448 26.3755 39.4447C26.1831 39.7635 26.0479 40.1519 25.9977 40.5339C25.9515 40.886 25.9967 41.08 25.9898 41.0471C25.9806 41.0028 25.9288 40.7961 25.7511 40.4086L42.1126 32.9052ZM37.606 53.3896C31.1743 58.4117 23.5613 56.3691 22.6562 56.2556C21.6158 56.1251 22.3118 56.3672 23.3714 55.9303C24.7105 55.3781 24.9531 54.5311 24.5751 55.2737L8.53388 47.1079C10.2233 43.789 12.7436 40.8423 16.5101 39.2893C19.9971 37.8515 23.2702 38.1916 24.8961 38.3955C29.3233 38.9507 27.3991 38.5221 26.5278 39.2024L37.606 53.3896ZM24.5712 55.2812C24.4739 55.472 24.1866 55.8138 25.7088 60.776C26.7674 64.2269 29.6354 72.3407 24.7697 80.1539L9.49032 70.6386C9.51371 70.6011 9.51694 70.5894 9.51277 70.5998C9.50866 70.61 9.50667 70.6186 9.50703 70.6169C9.5072 70.6161 9.53478 70.4913 9.51044 70.1641C9.44795 69.3238 9.16821 68.2323 8.50028 66.0549C7.51457 62.8416 4.54446 54.9266 8.53774 47.1003L24.5712 55.2812ZM24.7563 80.1754C23.3499 82.4196 21.4847 83.8077 20.2598 84.6002C19.0384 85.3904 17.7188 86.0367 17.0517 86.3732C16.6426 86.5795 16.3732 86.7179 16.1496 86.8411C15.9294 86.9625 15.8667 87.0083 15.8926 86.9901C15.9153 86.9741 16.138 86.8181 16.4329 86.5013C16.7396 86.172 17.172 85.6171 17.5183 84.817L0.99906 77.6676C2.22193 74.8421 4.28241 73.1473 5.55524 72.2544C6.83774 71.3547 8.22034 70.6676 8.94522 70.302C9.90619 69.8172 10.2473 69.6393 10.4821 69.4874C10.7134 69.3378 10.1 69.6657 9.50373 70.6172L24.7563 80.1754ZM17.52 84.8131C18.0166 83.6642 18.0448 82.7646 18.0468 82.5083C18.0491 82.2061 18.0143 82.1124 18.0508 82.3069C18.1282 82.719 18.334 83.4535 18.7294 84.5594C19.1147 85.6371 19.5477 86.7109 20.0189 87.9024C20.3949 88.8534 20.9943 90.3581 21.3343 91.6464L3.93006 96.2391C3.95006 96.3149 3.92734 96.2184 3.78898 95.8409C3.66235 95.4953 3.49687 95.0699 3.27984 94.5209C2.87441 93.4956 2.29358 92.0553 1.78024 90.6196C1.27695 89.212 0.699078 87.4335 0.360353 85.6307C0.100345 84.2469 -0.426772 80.9664 0.997379 77.6715L17.52 84.8131ZM21.3402 91.669C21.6992 93.0437 21.8849 94.4262 22.0047 95.4548C22.0678 95.9972 22.1232 96.5423 22.1719 97.0218C22.2227 97.5228 22.2668 97.9594 22.3152 98.3864C22.4146 99.2627 22.5053 99.8426 22.5966 100.243C22.6972 100.685 22.715 100.522 22.4638 100.089L6.89097 109.116C5.05096 105.941 4.63094 102.188 4.42988 100.415C4.11892 97.6726 4.09754 96.8807 3.92413 96.2165L21.3402 91.669ZM22.4594 100.081C22.1824 99.6043 21.691 99.0566 21.0262 98.6513C20.4507 98.3004 20.0554 98.2481 20.2072 98.2774C20.4171 98.3178 20.7781 98.3602 21.7218 98.4312C22.5135 98.4908 23.796 98.576 25.1262 98.7666L22.5743 116.585C21.9744 116.499 21.3742 116.456 20.3704 116.38C19.5187 116.316 18.1714 116.216 16.7997 115.952C13.6377 115.342 9.546 113.686 6.89538 109.123L22.4594 100.081ZM25.1134 98.7647C25.4982 98.8193 25.8973 98.8678 26.3824 98.9258C26.835 98.9798 27.3993 99.0464 27.9572 99.1238C29.0239 99.272 30.5866 99.5241 32.1969 100.088C33.8781 100.677 35.9565 101.721 37.7455 103.672C39.5864 105.68 40.5871 108.065 41.004 110.456L23.2714 113.547C23.3473 113.983 23.6364 114.919 24.4779 115.837C25.2676 116.698 26.0587 117.01 26.2481 117.077C26.3664 117.118 26.2325 117.057 25.4808 116.953C25.1294 116.904 24.7541 116.859 24.247 116.799C23.7724 116.742 23.1917 116.672 22.5871 116.587L25.1134 98.7647ZM41.0046 110.459C41.9029 115.625 39.7937 120.186 38.5512 122.578C37.835 123.958 37.0505 125.252 36.4539 126.233C35.7825 127.338 35.3965 127.973 35.1305 128.485L19.1576 120.186C19.7682 119.011 20.5332 117.771 21.0731 116.883C21.6879 115.871 22.1751 115.056 22.5766 114.283C22.9809 113.505 23.1583 113.029 23.2249 112.786C23.2903 112.548 23.1543 112.874 23.2707 113.543L41.0046 110.459ZM35.1229 128.5C33.6049 131.408 33.8353 132.46 33.9537 132.986C34.2626 134.356 35.1183 135.887 37.6105 140.085L22.1317 149.273C20.2322 146.073 17.4755 141.741 16.3943 136.944C15.1227 131.302 16.1853 125.882 19.1652 120.172L35.1229 128.5ZM37.6137 140.091C38.1126 140.933 38.3208 141.11 38.4383 141.219C38.5787 141.348 38.7949 141.53 39.2504 141.882C39.4807 142.06 39.7204 142.242 40.0364 142.483C40.3394 142.714 40.6864 142.979 41.0653 143.275L29.9924 157.466C27.6794 155.662 24.9147 153.969 22.1285 149.267L37.6137 140.091ZM41.0782 143.285C46.9189 147.86 48.5796 154.152 49.5859 157.84L32.2206 162.578C31.1551 158.672 30.6378 157.972 29.9795 157.456L41.0782 143.285ZM49.5864 157.842C50.3875 160.781 51.4588 165.017 51.6855 169.433C51.9092 173.79 51.3803 179.507 47.7878 184.49L33.1865 173.964C33.3747 173.703 33.833 172.768 33.7092 170.356C33.5884 168.004 32.9773 165.354 32.2202 162.576L49.5864 157.842ZM47.7853 184.494C46.861 185.774 45.9777 186.675 45.327 187.294C45.1786 187.435 45.042 187.562 44.9483 187.649C44.8404 187.749 44.7951 187.791 44.7574 187.827C44.6713 187.909 44.8365 187.761 45.0611 187.487C45.3166 187.176 45.6812 186.667 45.995 185.968C46.316 185.253 46.4909 184.546 46.5622 183.911C46.6292 183.315 46.594 182.878 46.5714 182.685C46.5494 182.497 46.529 182.454 46.5702 182.616L29.1271 187.059C28.804 185.79 28.4439 183.956 28.6747 181.902C28.9517 179.436 29.9676 177.504 31.1497 176.065C31.6355 175.473 32.1061 175.018 32.3621 174.775C32.4954 174.648 32.6302 174.524 32.7106 174.449C32.8051 174.361 32.865 174.306 32.9202 174.253C33.0841 174.097 33.1305 174.042 33.189 173.96L47.7853 184.494ZM46.5674 182.605C46.2162 181.233 45.3057 180.704 46.5139 181.811C46.8677 182.136 47.8318 182.986 48.6451 183.855C49.5346 184.806 50.7048 186.237 51.554 188.187L35.0516 195.375C35.3253 196.003 35.6222 196.282 35.5016 196.153C35.3047 195.943 35.1216 195.787 34.352 195.081C33.3134 194.129 30.2514 191.449 29.1299 187.07L46.5674 182.605ZM51.562 188.205C53.185 191.954 52.8745 195.621 52.2823 198.255C51.6906 200.887 50.6213 203.344 49.7166 205.243C49.2469 206.228 48.7575 207.193 48.3237 208.045C47.8718 208.933 47.4868 209.687 47.1366 210.411C46.789 211.129 46.5339 211.7 46.3517 212.166C46.263 212.393 46.202 212.569 46.1612 212.699C46.1412 212.763 46.1276 212.812 46.1188 212.845C46.1099 212.879 46.1067 212.895 46.107 212.893L28.4747 209.274C28.9994 206.718 30.0988 204.297 30.9325 202.573C31.3803 201.647 31.861 200.707 32.2819 199.88C32.7208 199.018 33.1109 198.247 33.4668 197.5C34.2135 195.933 34.5797 194.934 34.7206 194.307C34.8612 193.682 34.5805 194.287 35.0436 195.357L51.562 188.205ZM46.1063 212.897C46.0187 213.323 45.967 214.282 46.1701 215.474C46.2639 216.023 46.3932 216.506 46.5289 216.886C46.6703 217.281 46.7745 217.442 46.762 217.423C46.7503 217.405 46.6821 217.304 46.5392 217.153C46.3965 217.003 46.1503 216.772 45.7822 216.532C44.9772 216.005 43.7472 215.544 42.2877 215.63C40.9002 215.712 40.0476 216.244 39.81 216.417C39.6075 216.563 39.811 216.469 40.3313 215.745L54.9512 226.245C52.6733 229.417 48.8988 233.271 43.348 233.599C37.2964 233.956 33.4917 229.988 31.7487 227.352C29.9129 224.577 28.9093 221.332 28.4262 218.499C27.9362 215.625 27.8414 212.353 28.4754 209.27L46.1063 212.897ZM40.3394 215.734C40.7341 215.186 42.2139 212.931 43.9423 211.223C45.9787 209.209 49.1678 207.022 53.6524 206.765L54.681 224.736C55.1858 224.707 55.6875 224.56 56.1015 224.348C56.4742 224.156 56.6376 223.983 56.5973 224.023C56.5448 224.075 56.3932 224.239 56.0919 224.645C55.9454 224.842 55.7899 225.06 55.5952 225.336C55.4202 225.584 55.1757 225.934 54.9431 226.257L40.3394 215.734ZM53.6359 206.766C54.7566 206.7 56.3779 206.669 58.0977 207.084C60.2245 207.597 61.999 208.66 63.3909 210.099C63.9533 210.68 64.3562 211.224 64.5681 211.519C64.6784 211.672 64.7787 211.816 64.8379 211.902C64.9093 212.005 64.9438 212.055 64.9814 212.108C65.07 212.234 65.0673 212.223 65.0769 212.233L52.4472 225.058C51.4164 224.043 50.7319 223.134 50.2799 222.494C50.1824 222.356 50.0905 222.223 50.041 222.151C50.0123 222.11 49.9939 222.084 49.979 222.062C49.9646 222.042 49.9597 222.035 49.9608 222.037C49.9609 222.037 50.005 222.098 50.0802 222.192C50.1575 222.288 50.283 222.437 50.4543 222.614C50.819 222.991 51.3394 223.44 52.0269 223.837C52.7093 224.23 53.3544 224.456 53.8731 224.581C54.3596 224.699 54.7046 224.72 54.8119 224.725C54.9203 224.73 54.9028 224.723 54.6976 224.735L53.6359 206.766ZM65.0966 212.252C65.5767 212.728 65.7564 212.832 65.6673 212.774C65.5729 212.713 64.9918 212.35 63.9923 212.165C62.879 211.959 61.7144 212.061 60.6745 212.424C59.7591 212.743 59.2268 213.167 59.1449 213.232C59.0911 213.275 59.1378 213.244 59.5489 212.838C59.8616 212.529 60.467 211.921 61.1439 211.325C62.6005 210.042 64.8071 208.419 67.9373 207.527L72.8731 224.837C73.2231 224.737 73.3412 224.568 73.0397 224.834C72.8376 225.012 72.6466 225.201 72.2002 225.642C71.8523 225.986 71.1774 226.657 70.3942 227.284C68.6396 228.689 65.2786 230.709 60.7163 229.864C57.0247 229.181 54.2708 226.865 52.4275 225.039L65.0966 212.252ZM67.9399 207.526C75.2201 205.452 81.1079 209.678 83.9619 212.681C86.8631 215.733 89.8344 220.746 89.606 226.179L71.6219 225.422C71.6023 225.887 71.6653 226.166 71.6786 226.221C71.6946 226.288 71.6907 226.245 71.6265 226.106C71.4873 225.806 71.2321 225.415 70.9154 225.082C70.7683 224.927 70.6481 224.827 70.5744 224.774C70.4984 224.719 70.5122 224.741 70.6308 224.791C70.7519 224.842 71.0212 224.937 71.4238 224.975C71.8427 225.015 72.345 224.987 72.8706 224.837L67.9399 207.526ZM89.6069 226.155C89.4336 230.548 87.0959 234.235 86.0433 235.89C84.3611 238.535 83.9067 239.034 83.5833 239.764L67.126 232.473C67.7637 231.034 68.5701 229.732 69.1697 228.8C69.484 228.312 69.8114 227.82 70.0863 227.406C70.3763 226.969 70.6245 226.592 70.8549 226.23C71.3339 225.477 71.5805 225.022 71.7034 224.745C71.8356 224.447 71.6488 224.74 71.6209 225.446L89.6069 226.155ZM83.5839 239.763C83.5029 239.945 82.8159 241.592 82.4238 242.419C81.9075 243.508 81.0287 245.199 79.5979 246.768C78.0429 248.474 75.7696 250.103 72.6933 250.718C69.7403 251.309 66.97 250.779 64.655 249.903L71.02 233.066C71.2108 233.138 70.457 232.809 69.1633 233.067C67.7462 233.351 66.775 234.116 66.297 234.64C65.9431 235.028 65.9159 235.221 66.158 234.71C66.2623 234.49 66.3793 234.222 66.5454 233.83C66.6887 233.492 66.91 232.961 67.1254 232.474L83.5839 239.763ZM64.6376 249.897C63.8546 249.599 63.1081 249.245 62.3987 248.826C61.6827 248.404 61.0683 247.954 60.5363 247.503C60.0166 247.062 59.6231 246.659 59.3861 246.409C59.2926 246.311 59.1628 246.171 59.1503 246.158C59.1057 246.11 59.125 246.132 59.1695 246.176C59.2684 246.275 59.5735 246.572 60.0439 246.894C60.5427 247.235 61.0973 247.517 61.68 247.717C62.7664 248.09 63.4834 248.016 63.2735 248.026L62.3786 230.049C63.8022 229.978 65.6205 230.039 67.5254 230.693C69.6755 231.431 71.0739 232.626 71.8924 233.443C72.0626 233.613 72.2055 233.765 72.2862 233.851C72.3991 233.972 72.3965 233.97 72.4359 234.011C72.4648 234.042 72.36 233.929 72.1831 233.779C71.739 233.402 71.3013 233.173 71.0374 233.073L64.6376 249.897ZM63.2565 248.027C63.7887 248.002 64.0115 247.884 63.8039 247.963C63.6096 248.037 63.2637 248.195 62.6855 248.513C62.0608 248.857 61.542 249.173 60.6814 249.673C59.9572 250.094 58.935 250.679 57.8495 251.169L50.4487 234.76C50.6161 234.685 50.9441 234.513 51.6307 234.114C52.181 233.794 53.1336 233.224 54.0041 232.745C55.5756 231.88 58.7072 230.224 62.3956 230.048L63.2565 248.027ZM57.8382 251.174C55.9116 252.04 53.0742 253.328 49.9386 253.798C46.2914 254.345 42.7354 253.766 39.1815 252.004L47.1762 235.877C47.4968 236.036 47.5744 236.027 47.4672 236.009C47.3439 235.989 47.249 236 47.2698 235.997C47.3348 235.987 47.584 235.941 48.1426 235.736C48.7251 235.522 49.424 235.221 50.46 234.755L57.8382 251.174ZM39.1738 252C37.6891 251.262 36.5599 250.476 35.8241 249.946C35.6539 249.824 35.4741 249.692 35.3574 249.608C35.2239 249.511 35.133 249.445 35.0571 249.392C34.8993 249.281 34.9104 249.297 35.0134 249.354C35.1335 249.422 35.3877 249.552 35.7502 249.672C36.1252 249.795 36.5283 249.877 36.9337 249.907C37.7391 249.967 38.1389 249.792 37.873 249.879L32.2462 232.781C34.0432 232.19 36.0722 231.794 38.2653 231.957C40.5626 232.127 42.4049 232.863 43.8161 233.654C44.9439 234.286 46.0829 235.152 46.3403 235.338C46.7951 235.665 46.9996 235.789 47.1838 235.881L39.1738 252ZM37.8691 249.881C36.9205 250.192 37.1589 250.27 37.7684 249.729C38.6102 248.983 39.6841 247.443 39.7687 245.299C39.8382 243.54 39.1802 242.491 39.1703 242.474C39.1278 242.403 39.2577 242.624 39.8072 243.203C40.3288 243.752 40.98 244.369 41.8343 245.16C42.6145 245.883 43.631 246.812 44.5516 247.724C45.4652 248.628 46.5744 249.796 47.5351 251.127C48.4284 252.365 49.7298 254.463 50.1344 257.205L32.3273 259.833C32.5328 261.225 33.1114 261.899 32.94 261.662C32.836 261.518 32.5386 261.16 31.8852 260.513C31.2388 259.873 30.5278 259.223 29.6017 258.365C28.7497 257.576 27.7157 256.61 26.7548 255.598C25.8218 254.615 24.6718 253.296 23.7338 251.732C22.8283 250.223 21.6589 247.726 21.7827 244.589C22.0828 236.988 28.7727 233.923 32.2501 232.78L37.8691 249.881ZM50.1355 257.213C50.469 259.485 50.1063 261.504 49.8981 262.538C49.7812 263.118 49.6462 263.682 49.5544 264.067C49.4497 264.508 49.3859 264.779 49.336 265.024C49.2215 265.586 49.331 265.343 49.2707 264.742C49.1878 263.916 48.8083 262.636 47.7659 261.535L34.6958 273.911C30.1605 269.122 31.3369 263.205 31.698 261.432C31.8169 260.848 31.9516 260.286 32.0435 259.9C32.1483 259.459 32.2081 259.204 32.2524 258.984C32.3665 258.417 32.192 258.91 32.3262 259.825L50.1355 257.213ZM47.7714 261.541C46.9612 260.684 46.0851 260.666 46.3918 260.685C46.9486 260.718 47.941 260.621 49.9926 260.234C51.6334 259.925 54.3977 259.33 56.9501 259.125C59.5594 258.915 63.3541 258.951 67.0597 260.868L58.7872 276.855C59.4602 277.203 59.6458 276.966 58.3925 277.067C57.0823 277.172 55.7306 277.47 53.325 277.923C51.3303 278.299 48.3461 278.833 45.3192 278.653C42.0421 278.457 37.9753 277.381 34.6903 273.905L47.7714 261.541ZM67.0491 260.863C70.0388 262.405 72.3033 264.588 73.6457 265.873C75.2908 267.449 75.9322 268.052 76.594 268.464L67.0852 283.748C64.4798 282.127 62.3498 279.978 61.197 278.874C59.7414 277.481 59.1814 277.058 58.7977 276.86L67.0491 260.863ZM76.5873 268.46C77.6467 269.118 77.7677 269.147 79.1007 269.955C80.0157 270.509 81.3287 271.339 82.5798 272.476C83.9193 273.694 85.2522 275.313 86.1762 277.473C87.0898 279.607 87.4017 281.798 87.3636 283.904L69.3665 283.578C69.3683 283.48 69.3492 283.903 69.6278 284.554C69.9168 285.23 70.3107 285.649 70.4736 285.797C70.5482 285.865 70.4474 285.757 69.7777 285.352C69.4536 285.156 69.1193 284.962 68.6405 284.681C68.1926 284.419 67.659 284.104 67.0919 283.752L76.5873 268.46ZM87.3631 283.93C87.1954 291.895 82.7153 298.226 78.5384 302.549C74.2302 307.007 69.0565 310.557 65.1466 312.996L55.618 297.725C59.0836 295.563 62.8039 292.928 65.5945 290.041C68.5164 287.017 69.3399 284.84 69.367 283.551L87.3631 283.93ZM65.1442 312.998C63.2622 314.171 62.2525 314.961 61.7245 315.475C61.2514 315.935 61.5319 315.82 61.7279 315.165C61.9397 314.457 61.7767 314.059 61.8689 314.413C61.9946 314.896 62.3611 315.866 63.321 317.622L47.527 326.257C45.2688 322.126 42.5947 316.32 44.4828 310.007C46.2879 303.971 51.4798 300.305 55.6204 297.724L65.1442 312.998ZM63.325 317.63C63.3192 317.619 63.3859 317.741 63.5988 318.01C63.8088 318.275 64.1004 318.608 64.5038 319.032C65.4437 320.02 66.2576 320.762 67.647 322.139C68.8227 323.304 70.3252 324.851 71.6022 326.621C72.8649 328.371 74.3497 330.935 74.7836 334.178L56.9425 336.565C57.0577 337.426 57.3804 337.673 57.0036 337.151C56.6412 336.648 56.0271 335.965 54.9748 334.922C54.1363 334.091 52.611 332.645 51.4666 331.443C50.2588 330.174 48.6967 328.401 47.523 326.249L63.325 317.63ZM74.7828 334.172C74.9636 335.517 74.9022 336.795 74.8283 337.671L56.8919 336.16C56.9023 336.037 56.9013 335.997 56.9012 336.029C56.9011 336.048 56.9013 336.101 56.9058 336.184C56.9102 336.264 56.9199 336.397 56.9433 336.571L74.7828 334.172ZM66.066 329.115C148.774 320.564 232.354 315.863 315.618 314.979L315.809 332.978C233.091 333.856 150.065 338.527 67.9171 347.02L66.066 329.115ZM308.683 319.144C313.24 310.794 318.173 302.624 322.807 294.708L338.341 303.801C333.54 312.003 328.868 319.733 324.482 327.768L308.683 319.144ZM322.81 294.704C323.407 293.684 323.977 292.592 324.67 291.257C325.328 289.992 326.108 288.487 326.98 286.997C328.743 283.982 331.183 280.485 334.975 277.618L345.829 291.978C344.717 292.819 343.708 294.049 342.516 296.086C341.91 297.121 341.336 298.223 340.643 299.557C339.985 300.822 339.207 302.324 338.339 303.805L322.81 294.704ZM334.989 277.608C336 276.847 337.044 276.206 337.705 275.799C338.49 275.315 338.889 275.066 339.22 274.827C339.876 274.352 338.926 274.835 338.568 276.295L356.049 280.584C354.903 285.256 351.753 287.975 349.779 289.405C348.795 290.117 347.772 290.738 347.151 291.121C346.404 291.581 346.057 291.806 345.815 291.988L334.989 277.608ZM338.56 276.326C338.208 277.786 338.729 279.591 338.316 277.712C338.144 276.929 337.842 275.35 338.095 273.404C338.36 271.373 339.135 269.594 340.169 268.074L355.05 278.202C355.353 277.756 355.791 276.906 355.944 275.732C356.014 275.193 356.005 274.729 355.974 274.383C355.959 274.216 355.94 274.084 355.925 273.996C355.91 273.909 355.898 273.856 355.898 273.853C355.897 273.851 355.899 273.858 355.903 273.876C355.908 273.896 355.914 273.922 355.924 273.962C355.937 274.019 355.977 274.179 356.009 274.317C356.08 274.62 356.194 275.125 356.28 275.73C356.468 277.048 356.507 278.691 356.057 280.553L338.56 276.326ZM340.156 268.094C341.262 266.46 342.64 265.417 343.401 264.889C344.294 264.269 345.208 263.771 345.999 263.389C347.472 262.676 349.319 261.979 351.024 261.65L354.431 279.325C354.569 279.298 354.63 279.279 354.602 279.287C354.582 279.293 354.526 279.31 354.437 279.341C354.251 279.407 354.034 279.497 353.84 279.591C353.627 279.694 353.578 279.736 353.664 279.677C353.712 279.643 353.865 279.534 354.076 279.341C354.27 279.162 354.658 278.782 355.063 278.182L340.156 268.094ZM351.065 261.642C353.9 261.11 356.462 261.435 358.308 261.804C360.015 262.147 361.929 262.725 362.841 262.975C365.673 263.751 364.885 263.071 363.682 263.723L372.266 279.545C366.433 282.709 360.487 280.993 358.086 280.336C356.382 279.869 355.66 279.632 354.77 279.453C354.018 279.303 354.021 279.402 354.39 279.333L351.065 261.642ZM363.677 263.726C364.147 263.471 363.639 263.842 365.015 262.48C365.867 261.637 367.051 260.627 368.765 259.763C370.359 258.959 372.048 258.464 373.782 258.121L377.271 275.78C376.558 275.921 376.555 275.994 376.87 275.835C377.041 275.749 377.232 275.632 377.416 275.492C377.591 275.36 377.689 275.261 377.676 275.275C377.6 275.349 377.583 275.372 377.264 275.706C377.009 275.974 376.625 276.371 376.145 276.809C375.118 277.747 373.882 278.666 372.271 279.542L363.677 263.726ZM373.789 258.12C374.317 258.016 374.812 257.93 375.206 257.861C375.633 257.787 375.909 257.74 376.162 257.692C376.776 257.574 376.506 257.578 375.974 257.818C375.301 258.123 373.692 259.041 372.681 261.106C371.718 263.071 371.976 264.705 372.047 265.06L389.702 261.555C390.074 263.428 390.232 266.193 388.846 269.022C387.412 271.952 385.056 273.467 383.388 274.221C381.862 274.91 380.352 275.216 379.556 275.369C379.103 275.456 378.631 275.536 378.278 275.597C377.891 275.664 377.573 275.72 377.264 275.781L373.789 258.12ZM372.047 265.061C372.382 266.752 373.289 267.677 373.358 267.748C373.391 267.782 373.368 267.754 373.111 267.531C372.946 267.388 372.45 266.964 372.002 266.534C371.233 265.794 368.939 263.537 368.393 259.845C367.795 255.806 369.586 252.657 371.069 250.799L385.138 262.027C385.248 261.889 386.626 260.093 386.199 257.21C386.006 255.907 385.508 254.942 385.125 254.363C384.939 254.082 384.772 253.879 384.666 253.758C384.56 253.638 384.488 253.568 384.478 253.559C384.47 253.551 384.491 253.572 384.573 253.644C384.672 253.731 384.745 253.794 384.923 253.949C385.205 254.194 385.725 254.647 386.26 255.197C387.332 256.299 389.074 258.393 389.702 261.555L372.047 265.061ZM371.089 250.774C372.99 248.41 375.35 247.213 377.092 246.572C378.779 245.95 380.45 245.652 381.469 245.478C382.772 245.256 383.25 245.194 383.799 245.064C384.295 244.946 383.898 244.967 383.245 245.416L393.432 260.255C391.411 261.643 389.312 262.255 387.961 262.576C386.662 262.885 385.146 263.111 384.495 263.222C384.068 263.295 383.777 263.351 383.554 263.402C383.332 263.453 383.272 263.478 383.314 263.462C383.367 263.443 384.266 263.111 385.117 262.052L371.089 250.774ZM383.27 245.398C383.222 245.431 383.187 245.576 384.929 242.712C386.269 240.507 388.952 236.221 394.479 234.132L400.845 250.968C401.405 250.757 401.4 250.268 400.308 252.064C399.918 252.706 399.018 254.278 398.097 255.573C397.063 257.028 395.577 258.794 393.407 260.273L383.27 245.398ZM394.498 234.124C396.776 233.269 399.684 232.866 402.242 232.95C403.572 232.994 405.337 233.181 407.144 233.823C408.865 234.435 411.708 235.859 413.443 239.085L397.588 247.608C398.805 249.871 400.656 250.621 401.119 250.785C401.668 250.98 401.908 250.949 401.653 250.94C401.465 250.934 401.186 250.949 400.902 250.991C400.571 251.04 400.555 251.077 400.826 250.976L394.498 234.124ZM413.437 239.075C414.792 241.587 414.733 244.014 414.495 245.505C414.267 246.931 413.79 248.074 413.518 248.677C413.23 249.32 412.904 249.927 412.741 250.234C412.525 250.639 412.445 250.793 412.387 250.916C412.332 251.032 412.419 250.872 412.512 250.529C412.605 250.185 412.776 249.396 412.667 248.332C412.549 247.167 412.119 245.937 411.323 244.861C410.572 243.848 409.759 243.324 409.333 243.099L400.919 259.011C399.543 258.284 398.058 257.196 396.857 255.573C395.609 253.888 394.948 252.004 394.76 250.155C394.426 246.877 395.644 244.221 396.096 243.26C396.382 242.652 396.69 242.08 396.85 241.779C396.946 241.599 397.005 241.487 397.054 241.392C397.101 241.3 397.11 241.278 397.099 241.301C397.09 241.322 397.036 241.443 396.969 241.641C396.904 241.834 396.796 242.188 396.72 242.667C396.57 243.605 396.47 245.534 397.594 247.619L413.437 239.075ZM409.333 243.099C408.961 242.902 408.284 242.614 407.344 242.497C406.362 242.374 405.342 242.472 404.385 242.783C403.471 243.079 402.821 243.502 402.437 243.801C402.069 244.087 401.872 244.316 401.852 244.339C401.833 244.362 401.875 244.315 402.04 244.088C402.106 243.999 402.497 243.454 402.719 243.156C403.01 242.768 403.444 242.206 403.986 241.624C404.526 241.044 405.313 240.291 406.362 239.608L416.179 254.696C417.134 254.074 417.512 253.431 417.14 253.929C417.137 253.932 416.184 255.284 415.474 256.106C414.646 257.064 412.846 258.961 409.943 259.903C406.61 260.985 403.42 260.333 400.919 259.011L409.333 243.099ZM406.343 239.621C409.152 237.783 412.463 237.039 415.312 236.978C418.109 236.918 421.991 237.494 425.285 240.068L414.203 254.252C414.802 254.721 415.302 254.882 415.49 254.932C415.688 254.985 415.756 254.973 415.696 254.974C415.641 254.975 415.597 254.986 415.605 254.984C415.615 254.981 415.666 254.966 415.754 254.928C415.84 254.891 415.995 254.816 416.199 254.683L406.343 239.621ZM425.255 240.045C427.379 241.69 428.462 243.704 429.008 244.899C429.294 245.525 429.51 246.102 429.654 246.501C429.726 246.702 429.796 246.902 429.846 247.045C429.902 247.204 429.941 247.314 429.977 247.412C430.167 247.934 430.056 247.471 429.585 246.836C429.301 246.454 428.855 245.958 428.206 245.496C427.539 245.023 426.805 244.69 426.068 244.503L421.636 261.949C418.64 261.187 416.512 259.423 415.135 257.569C413.944 255.966 413.333 254.308 413.068 253.584C412.99 253.371 412.918 253.166 412.863 253.01C412.803 252.838 412.763 252.722 412.722 252.61C412.64 252.382 412.619 252.342 412.637 252.382C412.648 252.406 413.069 253.375 414.233 254.276L425.255 240.045ZM426.025 244.492C425.069 244.254 424.251 244.249 423.675 244.299C423.104 244.349 422.68 244.461 422.44 244.538C421.995 244.678 421.842 244.801 422.026 244.688C422.388 244.466 423.083 243.934 423.962 243.085C424.804 242.271 425.559 241.413 426.07 240.743C426.191 240.584 426.285 240.453 426.355 240.35C426.39 240.3 426.416 240.26 426.434 240.231C426.453 240.202 426.461 240.188 426.461 240.188C426.461 240.189 426.458 240.194 426.452 240.204C426.447 240.214 426.438 240.23 426.427 240.252C426.405 240.292 426.368 240.366 426.322 240.469C426.251 240.628 426.052 241.091 425.906 241.774L443.508 245.538C443.141 247.256 442.377 248.63 441.99 249.29C441.5 250.127 440.936 250.932 440.386 251.654C439.281 253.104 437.911 254.636 436.471 256.028C435.067 257.385 433.324 258.873 431.447 260.026C430.51 260.601 429.288 261.25 427.867 261.7C426.526 262.124 424.273 262.605 421.68 261.96L426.025 244.492ZM425.907 241.771C425.844 242.064 425.66 243.235 426.255 244.747C426.883 246.343 427.974 247.299 428.715 247.757C429.331 248.138 429.703 248.182 429.418 248.115C429.173 248.057 428.748 247.986 427.972 247.894C426.895 247.766 423.989 247.532 421.654 246.906C419.323 246.281 414.333 244.462 412.355 238.863L429.328 232.87C428.25 229.816 425.635 229.338 426.315 229.52C426.991 229.701 427.729 229.739 430.087 230.018C431.524 230.188 435.14 230.567 438.18 232.446C440.008 233.576 441.922 235.405 443.005 238.157C444.055 240.826 443.958 243.438 443.508 245.54L425.907 241.771ZM412.361 238.879C411.302 235.899 411.499 233.082 411.85 231.11C412.203 229.12 412.848 227.278 413.363 225.919C413.63 225.215 413.909 224.521 414.141 223.941C414.387 223.328 414.585 222.83 414.758 222.366C415.143 221.333 415.172 221.053 415.157 221.176L433.025 223.351C432.771 225.437 432.105 227.364 431.625 228.653C431.365 229.351 431.087 230.043 430.85 230.635C430.6 231.26 430.39 231.784 430.195 232.297C429.789 233.37 429.626 233.954 429.572 234.259C429.515 234.581 429.704 233.928 429.323 232.854L412.361 238.879ZM415.158 221.174C415.182 220.971 415.191 220.661 415.156 219.759C415.133 219.175 415.026 217.444 415.247 215.77C415.507 213.803 416.297 211.033 418.689 208.667C420.95 206.43 423.689 205.507 425.905 205.091L429.219 222.784C428.983 222.828 430.122 222.676 431.349 221.463C431.969 220.849 432.415 220.151 432.705 219.478C432.977 218.845 433.064 218.343 433.093 218.126C433.12 217.921 433.109 217.858 433.11 218.061C433.111 218.285 433.122 218.528 433.142 219.056C433.177 219.946 433.244 221.56 433.025 223.353L415.158 221.174ZM425.885 205.095C431.123 204.102 435.149 206.154 436.961 207.105C438.147 207.726 438.267 207.815 438.582 207.949C438.7 208 438.146 207.736 437.214 207.752L437.531 225.749C434.983 225.794 432.904 225.096 431.516 224.504C430.325 223.996 428.958 223.232 428.604 223.047C427.338 222.383 428.075 223.001 429.239 222.78L425.885 205.095ZM437.241 207.752C436.897 207.757 435.808 207.876 434.625 208.736C433.487 209.563 433.012 210.533 432.87 210.885C432.762 211.151 432.798 211.183 432.9 210.558C432.953 210.232 432.983 210.008 433.058 209.508C433.121 209.097 433.211 208.521 433.339 207.914L450.95 211.635C450.858 212.073 450.886 212.097 450.666 213.451C450.515 214.38 450.228 215.973 449.556 217.635C448.849 219.382 447.568 221.581 445.208 223.296C442.802 225.045 440.075 225.712 437.504 225.75L437.241 207.752ZM433.34 207.912C433.848 205.51 434.78 201.016 439.118 198.255C439.888 197.765 440.599 197.438 440.999 197.26C441.207 197.166 441.416 197.078 441.555 197.018C441.713 196.95 441.829 196.901 441.946 196.849C442.326 196.681 442.741 196.483 443.336 196.097L453.119 211.207C451.523 212.24 450.218 212.873 449.216 213.315C448.989 213.416 448.78 213.505 448.633 213.568C448.468 213.639 448.39 213.672 448.33 213.699C448.191 213.761 448.432 213.664 448.784 213.44C449.202 213.173 449.716 212.771 450.202 212.209C450.671 211.666 450.944 211.171 451.084 210.873C451.21 210.606 451.232 210.488 451.184 210.653C451.138 210.812 451.061 211.113 450.95 211.638L433.34 207.912ZM443.325 196.105C443.325 196.104 443.317 196.11 443.3 196.123C443.284 196.135 443.263 196.153 443.238 196.176C443.186 196.224 443.136 196.279 443.093 196.335C443.005 196.449 443.015 196.48 443.085 196.303C443.166 196.099 443.277 195.75 443.43 195.106C443.505 194.79 443.58 194.444 443.668 194.026C443.75 193.639 443.855 193.134 443.96 192.654L461.544 196.502C461.065 198.691 460.214 206.597 453.131 211.199L443.325 196.105ZM443.96 192.653C444.094 192.041 444.18 191.646 444.239 191.341C444.302 191.02 444.292 191.017 444.277 191.172C444.264 191.319 444.209 191.968 444.372 192.863C444.558 193.89 444.983 194.978 445.695 195.97C446.335 196.863 446.991 197.37 447.225 197.542C447.429 197.692 447.538 197.746 447.259 197.581C446.817 197.319 445.742 196.711 444.453 195.83L454.606 180.967C455.286 181.432 455.729 181.677 456.422 182.087C456.64 182.216 458.799 183.358 460.319 185.476C462.368 188.331 462.342 191.286 462.202 192.817C462.084 194.099 461.75 195.56 461.544 196.503L443.96 192.653ZM444.451 195.829C441.929 194.105 439.714 191.71 438.551 188.491C437.398 185.302 437.638 182.296 438.217 179.984C438.774 177.763 439.73 175.833 440.491 174.443C441.196 173.155 442.176 171.573 442.634 170.797L458.142 179.933C457.794 180.525 457.383 181.201 457.094 181.683C456.771 182.221 456.506 182.673 456.279 183.088C456.053 183.502 455.899 183.814 455.796 184.052C455.692 184.292 455.67 184.386 455.677 184.359C455.695 184.286 455.876 183.47 455.479 182.374C455.072 181.248 454.429 180.846 454.608 180.968L444.451 195.829ZM442.629 170.805C442.742 170.612 443.356 170.463 441.269 165.89C439.733 162.524 435.491 154.89 437.357 146.21L454.955 149.994C454.616 151.567 455.173 152.999 457.645 158.418C459.567 162.631 463.4 170.987 458.147 179.925L442.629 170.805ZM437.358 146.206C439.993 133.975 446.245 121.745 453.026 111.939L467.831 122.178C461.915 130.732 456.94 140.78 454.954 149.998L437.358 146.206ZM453.028 111.937C460.316 101.405 472.14 89.6788 487.415 85.7185L491.932 103.142C482.558 105.573 473.911 113.393 467.829 122.18L453.028 111.937ZM487.422 85.7166C488.689 85.3895 491.215 84.989 492.954 84.6876C495.119 84.3124 497.31 83.9025 499.038 83.4579C499.914 83.2328 500.436 83.0571 500.673 82.9607C501.285 82.7124 500.068 83.0434 498.854 84.4684C498.081 85.3759 496.913 87.2146 496.933 89.8313C496.952 92.468 498.164 94.301 498.976 95.2047C500.225 96.5969 501.376 96.7974 500.356 96.4273L506.493 79.5058C507.832 79.9915 510.422 81.0101 512.372 83.182C513.533 84.4756 514.91 86.689 514.932 89.6963C514.955 92.6837 513.628 94.8832 512.555 96.1419C510.743 98.2692 508.369 99.2634 507.445 99.6383C506.148 100.165 504.757 100.573 503.522 100.891C501.031 101.531 498.213 102.044 496.028 102.423C494.802 102.636 493.996 102.768 493.118 102.922C492.214 103.081 491.915 103.147 491.925 103.144L487.422 85.7166ZM500.349 96.4248C499.688 96.1844 498.577 96.0177 496.183 95.962C494.302 95.9181 490.812 95.9671 487.692 95.4289L490.752 77.6909C492.157 77.9332 493.598 77.8969 496.603 77.9668C499.094 78.0249 502.822 78.1712 506.499 79.5082L500.349 96.4248ZM487.672 95.4254C483.594 94.7123 480.143 93.0784 477.496 91.6772C474.371 90.0228 473.002 89.1056 470.86 88.1256L478.348 71.757C481.005 72.9723 484.271 74.8969 485.919 75.7692C488.044 76.8947 489.503 77.4724 490.772 77.6944L487.672 95.4254ZM470.873 88.1313C470.204 87.8264 469.217 87.4718 467.65 86.9432C466.242 86.4681 464.381 85.8571 462.588 85.1613C459.554 83.9837 453.906 81.602 450.828 76.501L466.24 67.2013C465.924 66.6779 465.725 66.6977 466.326 67.077C466.899 67.4385 467.79 67.872 469.102 68.3813C470.418 68.8919 471.785 69.3414 473.404 69.8876C474.864 70.3801 476.703 71.0073 478.336 71.7513L470.873 88.1313ZM450.833 76.5097C449.056 73.5721 447.678 69.4892 449.088 65.0505C450.433 60.8175 453.629 58.4971 455.77 57.3317C459.75 55.1657 465.013 54.4278 467.044 54.0877L470.016 71.8407C468.632 72.0723 467.426 72.2708 466.28 72.5418C465.078 72.8261 464.515 73.0653 464.375 73.1418C464.163 73.257 465.583 72.579 466.243 70.5006C466.968 68.2166 465.997 66.8006 466.234 67.1925L450.833 76.5097ZM467.046 54.0874C469.165 53.7332 471.392 52.9323 474.123 51.7223C476.422 50.7035 480.159 48.861 483.239 47.6456C490.444 44.8025 499.501 42.9781 509.832 48.6882L501.125 64.442C497.289 62.3221 494.34 62.6159 489.846 64.3891C487.077 65.4819 485.042 66.5721 481.414 68.1793C478.218 69.5953 474.363 71.1138 470.014 71.841L467.046 54.0874ZM509.824 48.684C514.828 51.4429 518.437 55.0333 520.09 60.2075C520.811 62.4637 521.023 64.6231 521.111 66.3641C521.189 67.9094 521.186 69.9944 521.214 71.297L503.219 71.6899C503.172 69.545 503.198 68.5413 503.134 67.2675C503.079 66.1893 502.98 65.7992 502.944 65.6862C502.933 65.6536 502.938 65.6747 502.962 65.7162C502.986 65.7582 502.992 65.7544 502.94 65.6983C502.822 65.5693 502.366 65.1266 501.132 64.4463L509.824 48.684ZM521.214 71.2908C521.221 71.6101 521.238 71.7745 521.245 71.8286C521.251 71.8806 521.241 71.7667 521.174 71.5443C521.104 71.3098 520.976 70.9724 520.755 70.5878C520.529 70.1963 520.26 69.8472 519.974 69.5548C519.436 69.0041 519.03 68.8509 519.319 68.9935C519.446 69.0564 519.661 69.1539 520.015 69.2991C520.369 69.4444 520.79 69.6081 521.334 69.815L514.928 86.6366C513.267 86.0042 509.675 84.7708 507.099 82.1342C503.767 78.7239 503.284 74.5811 503.219 71.696L521.214 71.2908ZM521.334 69.8152C522.749 70.3539 523.351 70.4823 523.524 70.5084C523.526 70.5087 523.124 70.4686 522.614 70.6152C522.266 70.7153 522.269 70.7993 522.985 70.3391C523.328 70.1186 523.741 69.8367 524.311 69.438C524.835 69.0719 525.552 68.5648 526.284 68.059L536.522 82.8634C535.367 83.6626 533.877 84.7357 532.718 85.4811C531.441 86.3015 529.719 87.3013 527.59 87.9137C522.843 89.2792 518.576 88.0259 514.927 86.6364L521.334 69.8152ZM526.289 68.0555C529.787 65.6394 533.707 63.929 536.34 62.6878C539.306 61.2896 541.186 60.2644 542.606 59.0142L554.501 72.5244C550.989 75.6161 547.026 77.5504 544.015 78.9695C540.672 80.5456 538.482 81.5103 536.517 82.8669L526.289 68.0555ZM542.6 59.0198C543.498 58.228 543.946 57.3929 543.977 55.2398C543.995 54.0169 543.861 52.5856 543.608 50.7378C543.393 49.1608 542.995 46.6838 542.769 44.642L560.66 42.6649C560.859 44.469 561.12 45.9375 561.443 48.3009C561.729 50.3935 562.013 52.8975 561.975 55.5002C561.896 60.9982 560.339 67.375 554.507 72.5188L542.6 59.0198ZM542.772 44.6727C542.578 42.9634 542.413 42.9435 542.57 43.245C542.61 43.3202 542.592 43.2586 542.324 42.9097C541.996 42.4832 541.643 42.064 540.91 41.1668L554.851 29.7808C555.749 30.8806 557.399 32.7552 558.526 34.9126C559.852 37.4522 560.356 39.9935 560.657 42.6342L542.772 44.6727ZM540.899 41.1533C540.057 40.1187 538.987 38.698 538.245 36.9791C537.339 34.8808 537.064 32.6971 537.41 30.5025C537.662 28.8965 538.279 27.3845 538.402 27.0573C538.627 26.4576 538.795 25.9928 538.956 25.3704L556.38 29.8848C555.975 31.4496 555.536 32.6293 555.257 33.3735C555.186 33.5634 555.143 33.679 555.102 33.7913C555.063 33.8965 555.048 33.9406 555.045 33.951C555.032 33.988 555.124 33.7272 555.191 33.3002C555.266 32.8231 555.303 32.1987 555.212 31.4894C555.122 30.7896 554.937 30.2294 554.771 29.8449C554.617 29.4898 554.49 29.3063 554.509 29.3344C554.527 29.3613 554.624 29.5009 554.862 29.7943L540.899 41.1533ZM538.959 25.3582C539.013 25.1526 538.972 25.1698 538.996 25.3751C539.021 25.598 539.112 25.9433 539.339 26.3088C539.568 26.6771 539.828 26.8923 539.973 26.9843C540.101 27.0654 540.031 26.9844 539.622 26.9012L543.212 9.26288C547.742 10.1849 551.996 12.5807 554.621 16.7969C557.227 20.9849 557.46 25.7424 556.377 29.897L538.959 25.3582ZM539.62 26.9007C538.708 26.7149 538.897 26.9181 539.655 26.6995C540.055 26.5839 540.489 26.3851 540.898 26.0986C541.296 25.8198 541.556 25.5381 541.699 25.3578C541.831 25.1913 541.857 25.1191 541.797 25.2347C541.735 25.3543 541.633 25.5737 541.475 25.9691C541.311 26.382 541.152 26.8157 540.917 27.4501C540.701 28.0352 540.429 28.7633 540.115 29.5223L523.482 22.6418C523.655 22.2226 523.826 21.7712 524.037 21.2001C524.23 20.6784 524.486 19.9791 524.754 19.3068C525.267 18.0178 526.124 16.0298 527.595 14.1741C529.225 12.1184 531.539 10.3065 534.666 9.40455C537.596 8.55954 540.537 8.71759 543.215 9.26335L539.62 26.9007ZM528.265 35.3249C525.177 34.4844 521.972 33.8611 519.126 33.6518L520.447 15.7003C524.764 16.0178 529.148 16.9106 532.991 17.9565L528.265 35.3249ZM519.129 33.6519C519.598 33.6863 519.424 33.6342 518.554 33.7601C517.816 33.8668 517.284 34.0025 517.119 34.0594C516.996 34.1014 517.401 33.9851 518.009 33.5874C518.258 33.4244 520.796 31.8233 521.436 28.2402C522.231 23.7904 519.469 21.0571 518.64 20.3771C517.774 19.6677 517.143 19.5014 517.506 19.6349L511.3 36.5311C510.258 36.1482 508.675 35.4834 507.228 34.2976C505.817 33.141 502.845 29.9531 503.716 25.0751C504.433 21.0637 507.335 19.0606 508.152 18.526C509.327 17.7567 510.504 17.2992 511.274 17.0348C512.893 16.4788 514.63 16.1403 515.977 15.9454C517.193 15.7697 518.922 15.5885 520.445 15.7001L519.129 33.6519ZM517.516 19.6383C516.742 19.353 516.262 19.4568 516.658 19.422C516.856 19.4045 517.125 19.3688 517.623 19.2914C518.036 19.2274 518.761 19.1089 519.461 19.0229C520.867 18.8503 523.238 18.6496 525.876 19.3442C528.769 20.1061 531.306 21.7528 533.32 24.197L519.428 35.6437C519.694 35.9658 520.354 36.5036 521.291 36.7506C521.973 36.9302 522.311 36.8083 521.655 36.8888C521.324 36.9294 521.011 36.981 520.385 37.0783C519.845 37.1621 519.073 37.2789 518.238 37.3525C516.565 37.4999 514.039 37.5406 511.291 36.5277L517.516 19.6383ZM533.3 24.1731C536.424 27.9383 537.14 32.6876 536.939 36.2538C536.737 39.8386 535.49 44.4253 532.052 47.8204L519.403 35.0145C519.176 35.2384 519.043 35.4286 518.975 35.5389C518.906 35.6494 518.885 35.7079 518.889 35.6978C518.893 35.689 518.91 35.6397 518.929 35.5506C518.947 35.4624 518.961 35.357 518.968 35.2426C518.974 35.128 518.971 35.0248 518.964 34.9413C518.956 34.8568 518.945 34.8157 518.946 34.8194C518.947 34.8216 518.967 34.8993 519.033 35.036C519.098 35.1727 519.225 35.3991 519.448 35.6677L533.3 24.1731ZM532.073 47.8C528.348 51.5032 523.561 52.4782 520.609 52.8568C518.996 53.0637 517.43 53.1445 516.171 53.1971C514.77 53.2558 513.897 53.2771 513.048 53.3424L511.668 35.3953C512.935 35.298 514.403 35.2554 515.419 35.2129C516.579 35.1644 517.508 35.1071 518.32 35.003C520.218 34.7596 519.999 34.4215 519.382 35.035L532.073 47.8ZM513.029 53.3438C512.335 53.3957 511.271 53.5334 509.299 53.749C507.54 53.9415 505.357 54.1573 503.134 54.2599C500.972 54.3596 498.426 54.3714 496.019 54.0392C494.096 53.774 490.089 53.045 487.119 49.9583L500.091 37.4788C499.202 36.5546 498.372 36.2363 498.223 36.181C498.035 36.1112 498.079 36.153 498.479 36.2081C499.298 36.3211 500.587 36.3582 502.305 36.279C503.96 36.2026 505.701 36.0353 507.342 35.8557C508.772 35.6994 510.587 35.4762 511.686 35.394L513.029 53.3438ZM487.117 49.9562C484.216 46.9383 483.616 43.2312 483.976 40.2929C484.291 37.7198 485.33 35.5398 486.102 34.1284C487.501 31.571 490.083 28.1522 490.906 26.9374C491.195 26.5112 491.408 26.1773 491.563 25.9142C491.723 25.6418 491.766 25.5376 491.752 25.5694C491.748 25.5783 491.589 25.9423 491.499 26.574C491.406 27.2275 491.353 28.4204 491.857 29.8304C493.075 33.2378 495.921 34.1097 496.358 34.2137C496.709 34.2973 496.292 34.1429 494.425 34.3192L492.732 16.399C495.277 16.1586 498.014 16.1047 500.529 16.7035C503.129 17.3228 507.146 19.1245 508.807 23.7734C510.206 27.6879 508.933 31.159 508.326 32.592C507.595 34.3174 506.577 35.8997 505.806 37.0361C503.813 39.9772 502.784 41.1397 501.894 42.7668C501.521 43.4477 501.747 43.2609 501.843 42.479C501.983 41.3319 501.759 39.2142 500.093 37.4809L487.117 49.9562ZM494.421 34.3196C494.029 34.3564 493.934 34.4081 493.988 34.3875C494.032 34.3708 493.985 34.375 493.686 34.5705C493.51 34.6857 493.319 34.8181 492.991 35.0473C492.695 35.2538 492.279 35.5443 491.823 35.8438C490.86 36.476 489.648 37.196 488.114 37.8583L480.981 21.3321C481.879 20.9443 481.7 20.902 483.835 19.5057C486 18.09 488.717 16.7764 492.736 16.3986L494.421 34.3196ZM488.095 37.8663C482.776 40.148 477.409 39.2999 473.891 38.4168C470.715 37.6193 466.362 35.9503 465.078 35.5377L470.583 18.4002C471.945 18.8377 473.586 19.444 474.75 19.8535C476.073 20.319 477.218 20.6935 478.274 20.9586C480.627 21.5493 481.2 21.2378 480.999 21.3241L488.095 37.8663ZM465.089 35.5413C463.312 34.973 462.808 34.8938 460.78 34.2789C459.377 33.8536 457.186 33.1455 455.157 31.8145C452.811 30.2753 450.706 27.9326 449.674 24.5941C448.748 21.6017 448.942 18.6154 449.407 16.0789L467.112 19.3209C466.908 20.4351 467.147 20.1716 466.87 19.2752C466.713 18.7684 466.438 18.2146 466.032 17.7017C465.639 17.2064 465.252 16.9091 465.029 16.7633C464.829 16.6318 464.76 16.6218 464.953 16.6998C465.147 16.7784 465.465 16.8902 466.001 17.0529C466.556 17.221 467.135 17.3817 467.948 17.6128C468.714 17.8304 469.611 18.0894 470.572 18.3966L465.089 35.5413ZM449.407 16.0755C449.986 12.9222 450.981 10.051 451.531 8.29613L468.707 13.6796C467.949 16.0999 467.436 17.5578 467.112 19.3243L449.407 16.0755ZM458.879 18.7094C414.45 17.0604 369.596 19.583 325.49 22.1396L324.449 4.16976C368.439 1.61983 414.13 -0.963927 459.547 0.721806L458.879 18.7094ZM451.531 8.29613C449.918 13.445 453.707 18.5175 458.879 18.7094L459.547 0.721806C466.017 0.961982 470.71 7.29029 468.707 13.6796L451.531 8.29613ZM315.618 314.979C312.714 315.01 310.066 316.611 308.683 319.144L324.482 327.768C322.752 330.938 319.44 332.939 315.809 332.978L315.618 314.979ZM540.115 29.5223C538.1 34.3941 532.873 36.5788 528.265 35.3249L532.991 17.9565C529.338 16.9622 525.119 18.6838 523.482 22.6418L540.115 29.5223ZM74.8283 337.671C75.2073 333.174 71.4874 328.555 66.066 329.115L67.9171 347.02C61.1927 347.715 56.403 341.963 56.8919 336.16L74.8283 337.671ZM36.0649 44.0621C41.886 43.1616 44.0543 37.1392 42.1126 32.9052L25.7511 40.4086C23.233 34.9178 26.1257 27.3855 33.3132 26.2737L36.0649 44.0621Z" fill="#FFBF02" mask="url(#path-1-outside-1_1088_25013)"/>
</svg>
