<svg width="298" height="526" viewBox="0 0 298 526" fill="none" xmlns="http://www.w3.org/2000/svg">
<mask id="path-1-outside-1_1088_25023" maskUnits="userSpaceOnUse" x="0.414062" y="-0.25" width="297" height="526" fill="black">
<rect fill="white" x="0.414062" y="-0.25" width="297" height="526"/>
<path d="M244.898 131.787C245.093 130.698 244.34 129.437 243.464 127.966C242.888 126.99 242.313 126.014 241.923 125.006C239.878 119.794 242.295 113.558 248.395 108.338C249.777 107.151 251.264 106.053 252.743 104.947C255.806 102.671 258.702 100.516 260.579 97.7191C262.447 94.9465 263.297 91.5885 264.2 88.0435C265.448 83.1162 266.741 78.0262 270.929 74.2697C272.381 72.9688 274.01 72.0013 275.595 71.0581C277.304 70.0336 278.924 69.0579 280.084 67.8057C283.856 63.7078 282.546 57.4065 280.58 50.2188C277.083 37.3396 281.049 31.4854 284.998 28.851L286.043 28.2086L287.301 27.3536C287.348 27.3219 287.392 27.2863 287.432 27.246C288.665 25.979 288.134 23.8793 287.132 20.5981C286.624 18.9844 286.151 17.2724 286.002 15.5606C285.951 14.9634 285.43 14.4957 284.835 14.5621C272.391 15.9494 259.866 16.5166 247.333 16.5166C224.693 16.5166 202.044 14.7521 179.864 13.0203C155.728 11.1421 130.795 9.19066 106.322 9.57281C101.417 9.64599 96.5119 9.8086 91.6156 9.97121C88.8412 10.0667 86.067 10.162 83.2927 10.2335C82.7835 10.2466 82.3649 10.6393 82.3201 11.1466C80.4136 32.7365 78.0981 54.2773 75.0762 75.644C71.2246 102.931 66.3902 130.495 60.7236 157.554C60.5819 158.253 60.4048 159.635 60.1835 161.359C59.2007 168.978 58.4039 173.377 57.3768 175.962C55.4555 183.865 54.1184 190.89 57.1023 196.907C58.882 200.468 62.0428 203.306 65.3808 206.298C66.8595 207.632 68.347 208.957 69.7105 210.356C74.6334 215.38 78.6266 223.105 75.0584 229.731C70.4809 238.236 69.259 248.188 68.0725 257.815C66.7001 268.979 65.2746 280.525 58.7314 290.363C56.9871 292.981 54.9242 295.388 52.932 297.721C50.2492 300.876 47.7081 303.852 45.9373 307.234C43.1128 312.633 43.1483 320.122 48.08 323.309C52.5513 326.187 50.6034 331.131 49.1779 334.733C48.7972 335.684 48.4253 336.619 48.1685 337.505C46.6987 342.53 50.6034 348.011 54.0477 352.84C62.7601 365.069 69.2058 378.144 73.3761 391.95C74.7839 396.601 75.9439 401.593 74.9522 406.536C74.1199 410.667 71.8532 414.358 69.8522 417.619L9.7366 515.436C9.54687 515.745 9.59074 516.143 9.84314 516.403V516.403C9.98804 516.552 10.1858 516.639 10.3938 516.643C27.578 517.019 44.7877 516.406 61.9012 514.782C66.2309 514.367 70.4277 513.88 74.1198 512.457C78.8125 510.635 82.7438 507.302 86.5511 504.09C99.6551 493.008 114.503 480.454 121.516 464.363L121.808 463.704C123.313 460.2 125.19 455.866 129.609 454.004C133.088 452.541 136.931 453.183 139.729 453.646L160.58 457.11C161.953 457.338 163.52 457.614 164.609 457.224C165.875 456.769 166.814 455.394 167.823 453.776L182.455 430.382C182.782 429.859 182.562 429.166 181.982 428.958C180.998 428.607 179.978 428.327 178.917 428.132L177.35 427.88C175.535 427.612 173.481 427.303 171.613 426.294C167.982 424.335 166.61 420.733 165.406 417.554L164.99 416.489C162.077 409.081 156.561 402.251 151.239 395.649C143.049 385.494 134.585 374.997 135.187 362.044C135.612 353.149 140.34 345.327 144.917 337.758L146.6 334.977C148.627 331.562 150.752 327.594 150.274 323.821C150.026 321.911 149.141 319.902 148.211 317.764C146.458 313.739 144.475 309.178 147.237 304.844C149.548 301.234 154.63 299.413 160.917 299.917C162.165 300.022 163.422 300.193 164.68 300.364C167.54 300.754 170.258 301.128 172.772 300.608C178.9 299.356 182.671 293.233 186 287.826C193.73 275.24 202.876 263.312 213.2 252.359L215.387 250.059C219.557 245.692 223.861 241.171 226.703 236.073C230.528 229.203 231.776 221.202 232.706 213.592C233.937 203.705 234.769 193.858 235.575 184.329L235.973 179.613C236.398 174.409 236.823 169.214 237.381 164.034C237.691 161.18 237.009 159.034 236.221 156.546C235.672 154.83 235.052 152.887 234.734 150.57C233.786 143.764 238.815 138.113 241.896 135.341C243.534 133.885 244.686 132.861 244.898 131.787"/>
</mask>
<path d="M244.898 131.787C245.093 130.698 244.34 129.437 243.464 127.966C242.888 126.99 242.313 126.014 241.923 125.006C239.878 119.794 242.295 113.558 248.395 108.338C249.777 107.151 251.264 106.053 252.743 104.947C255.806 102.671 258.702 100.516 260.579 97.7191C262.447 94.9465 263.297 91.5885 264.2 88.0435C265.448 83.1162 266.741 78.0262 270.929 74.2697C272.381 72.9688 274.01 72.0013 275.595 71.0581C277.304 70.0336 278.924 69.0579 280.084 67.8057C283.856 63.7078 282.546 57.4065 280.58 50.2188C277.083 37.3396 281.049 31.4854 284.998 28.851L286.043 28.2086L287.301 27.3536C287.348 27.3219 287.392 27.2863 287.432 27.246C288.665 25.979 288.134 23.8793 287.132 20.5981C286.624 18.9844 286.151 17.2724 286.002 15.5606C285.951 14.9634 285.43 14.4957 284.835 14.5621C272.391 15.9494 259.866 16.5166 247.333 16.5166C224.693 16.5166 202.044 14.7521 179.864 13.0203C155.728 11.1421 130.795 9.19066 106.322 9.57281C101.417 9.64599 96.5119 9.8086 91.6156 9.97121C88.8412 10.0667 86.067 10.162 83.2927 10.2335C82.7835 10.2466 82.3649 10.6393 82.3201 11.1466C80.4136 32.7365 78.0981 54.2773 75.0762 75.644C71.2246 102.931 66.3902 130.495 60.7236 157.554C60.5819 158.253 60.4048 159.635 60.1835 161.359C59.2007 168.978 58.4039 173.377 57.3768 175.962C55.4555 183.865 54.1184 190.89 57.1023 196.907C58.882 200.468 62.0428 203.306 65.3808 206.298C66.8595 207.632 68.347 208.957 69.7105 210.356C74.6334 215.38 78.6266 223.105 75.0584 229.731C70.4809 238.236 69.259 248.188 68.0725 257.815C66.7001 268.979 65.2746 280.525 58.7314 290.363C56.9871 292.981 54.9242 295.388 52.932 297.721C50.2492 300.876 47.7081 303.852 45.9373 307.234C43.1128 312.633 43.1483 320.122 48.08 323.309C52.5513 326.187 50.6034 331.131 49.1779 334.733C48.7972 335.684 48.4253 336.619 48.1685 337.505C46.6987 342.53 50.6034 348.011 54.0477 352.84C62.7601 365.069 69.2058 378.144 73.3761 391.95C74.7839 396.601 75.9439 401.593 74.9522 406.536C74.1199 410.667 71.8532 414.358 69.8522 417.619L9.7366 515.436C9.54687 515.745 9.59074 516.143 9.84314 516.403V516.403C9.98804 516.552 10.1858 516.639 10.3938 516.643C27.578 517.019 44.7877 516.406 61.9012 514.782C66.2309 514.367 70.4277 513.88 74.1198 512.457C78.8125 510.635 82.7438 507.302 86.5511 504.09C99.6551 493.008 114.503 480.454 121.516 464.363L121.808 463.704C123.313 460.2 125.19 455.866 129.609 454.004C133.088 452.541 136.931 453.183 139.729 453.646L160.58 457.11C161.953 457.338 163.52 457.614 164.609 457.224C165.875 456.769 166.814 455.394 167.823 453.776L182.455 430.382C182.782 429.859 182.562 429.166 181.982 428.958C180.998 428.607 179.978 428.327 178.917 428.132L177.35 427.88C175.535 427.612 173.481 427.303 171.613 426.294C167.982 424.335 166.61 420.733 165.406 417.554L164.99 416.489C162.077 409.081 156.561 402.251 151.239 395.649C143.049 385.494 134.585 374.997 135.187 362.044C135.612 353.149 140.34 345.327 144.917 337.758L146.6 334.977C148.627 331.562 150.752 327.594 150.274 323.821C150.026 321.911 149.141 319.902 148.211 317.764C146.458 313.739 144.475 309.178 147.237 304.844C149.548 301.234 154.63 299.413 160.917 299.917C162.165 300.022 163.422 300.193 164.68 300.364C167.54 300.754 170.258 301.128 172.772 300.608C178.9 299.356 182.671 293.233 186 287.826C193.73 275.24 202.876 263.312 213.2 252.359L215.387 250.059C219.557 245.692 223.861 241.171 226.703 236.073C230.528 229.203 231.776 221.202 232.706 213.592C233.937 203.705 234.769 193.858 235.575 184.329L235.973 179.613C236.398 174.409 236.823 169.214 237.381 164.034C237.691 161.18 237.009 159.034 236.221 156.546C235.672 154.83 235.052 152.887 234.734 150.57C233.786 143.764 238.815 138.113 241.896 135.341C243.534 133.885 244.686 132.861 244.898 131.787" fill="white"/>
<path d="M243.464 127.966L235.731 132.571L235.721 132.555L235.712 132.538L243.464 127.966ZM241.923 125.006L250.301 121.718L250.31 121.74L250.318 121.762L241.923 125.006ZM248.395 108.338L254.262 115.164L254.254 115.17L254.247 115.176L248.395 108.338ZM252.743 104.947L247.353 97.7399L247.363 97.7318L247.374 97.7236L252.743 104.947ZM260.579 97.7191L253.105 92.7039L253.11 92.6969L253.115 92.69L260.579 97.7191ZM264.2 88.0435L272.924 90.254L272.921 90.2653L264.2 88.0435ZM270.929 74.2697L264.92 67.5699L264.923 67.5665L270.929 74.2697ZM275.595 71.0581L280.223 78.7771L280.21 78.7847L280.198 78.7922L275.595 71.0581ZM280.084 67.8057L286.706 73.9008L286.697 73.9113L286.687 73.9218L280.084 67.8057ZM280.58 50.2188L271.899 52.5929L271.897 52.5851L271.894 52.5774L280.58 50.2188ZM284.998 28.851L280.004 21.3641L280.142 21.2716L280.284 21.1843L284.998 28.851ZM286.043 28.2086L291.102 35.6523L290.932 35.7677L290.757 35.8753L286.043 28.2086ZM287.132 20.5981L295.716 17.8942L295.728 17.9315L295.74 17.969L287.132 20.5981ZM179.864 13.0203L180.563 4.0474L180.565 4.04759L179.864 13.0203ZM106.322 9.57281L106.463 18.5717L106.457 18.5718L106.322 9.57281ZM91.6156 9.97121L91.3061 0.976527L91.3168 0.976171L91.6156 9.97121ZM75.0762 75.644L66.1645 74.3861L66.1648 74.3836L75.0762 75.644ZM60.7236 157.554L51.9028 155.767L51.9086 155.738L51.9147 155.709L60.7236 157.554ZM60.1835 161.359L69.1102 162.505L69.1095 162.511L60.1835 161.359ZM57.3768 175.962L48.6315 173.836L48.7802 173.225L49.0125 172.64L57.3768 175.962ZM57.1023 196.907L49.0515 200.93L49.0454 200.918L49.0393 200.906L57.1023 196.907ZM65.3808 206.298L71.3881 199.597L71.3982 199.606L71.4082 199.615L65.3808 206.298ZM69.7105 210.356L63.2817 216.654L63.2741 216.646L63.2665 216.638L69.7105 210.356ZM75.0584 229.731L67.1334 225.466L67.1342 225.465L75.0584 229.731ZM68.0725 257.815L59.1398 256.717L59.1401 256.714L68.0725 257.815ZM58.7314 290.363L66.2254 295.347L66.2214 295.353L58.7314 290.363ZM52.932 297.721L46.0759 291.891L46.0815 291.884L46.0871 291.878L52.932 297.721ZM45.9373 307.234L37.9626 303.062L37.9639 303.06L45.9373 307.234ZM48.08 323.309L43.2085 330.877L43.2017 330.872L43.1949 330.868L48.08 323.309ZM49.1779 334.733L57.5464 338.045L57.54 338.061L57.5336 338.077L49.1779 334.733ZM48.1685 337.505L56.813 340.01L56.8098 340.021L56.8066 340.032L48.1685 337.505ZM54.0477 352.84L61.3752 347.615L61.3776 347.618L54.0477 352.84ZM73.3761 391.95L64.7621 394.557L64.7606 394.552L73.3761 391.95ZM74.9522 406.536L83.7764 408.307L83.7749 408.314L74.9522 406.536ZM69.8522 417.619L77.5228 422.326L77.5199 422.331L69.8522 417.619ZM61.9012 514.782L62.7593 523.741L62.7515 523.742L61.9012 514.782ZM74.1198 512.457L77.3762 520.847L77.3663 520.851L77.3563 520.855L74.1198 512.457ZM86.5511 504.09L92.3628 510.962L92.3541 510.969L86.5511 504.09ZM121.516 464.363L113.265 460.767L113.277 460.739L113.29 460.712L121.516 464.363ZM121.808 463.704L130.078 467.256L130.056 467.306L130.034 467.356L121.808 463.704ZM129.609 454.004L126.114 445.711L126.119 445.708L129.609 454.004ZM139.729 453.646L141.2 444.767L141.204 444.768L139.729 453.646ZM160.58 457.11L159.107 465.989L159.106 465.988L160.58 457.11ZM164.609 457.224L167.654 465.693L167.645 465.696L164.609 457.224ZM167.823 453.776L160.187 449.013L160.192 449.004L167.823 453.776ZM178.917 428.132L180.347 419.246L180.445 419.262L180.543 419.28L178.917 428.132ZM177.35 427.88L178.666 418.977L178.723 418.985L178.779 418.994L177.35 427.88ZM171.613 426.294L167.338 434.215L167.337 434.214L171.613 426.294ZM165.406 417.554L173.789 414.279L173.806 414.322L173.822 414.366L165.406 417.554ZM164.99 416.489L173.365 413.195L173.369 413.204L173.373 413.214L164.99 416.489ZM151.239 395.649L158.245 389.999L158.247 390.001L151.239 395.649ZM135.187 362.044L126.196 361.627L126.197 361.615L135.187 362.044ZM144.917 337.758L137.216 333.1L137.217 333.099L144.917 337.758ZM146.6 334.977L154.338 339.572L154.319 339.604L154.3 339.636L146.6 334.977ZM150.274 323.821L159.199 322.663L159.201 322.677L159.203 322.69L150.274 323.821ZM148.211 317.764L156.462 314.17L156.465 314.176L148.211 317.764ZM147.237 304.844L139.648 300.006L139.653 299.999L139.657 299.992L147.237 304.844ZM160.917 299.917L161.636 290.945L161.656 290.947L161.676 290.949L160.917 299.917ZM164.68 300.364L165.891 291.446L165.897 291.447L164.68 300.364ZM172.772 300.608L170.949 291.795L170.96 291.792L170.97 291.79L172.772 300.608ZM186 287.826L193.67 292.536L193.664 292.545L186 287.826ZM213.2 252.359L206.651 246.186L206.664 246.173L206.677 246.159L213.2 252.359ZM215.387 250.059L208.864 243.858L208.871 243.85L208.879 243.842L215.387 250.059ZM226.703 236.073L234.566 240.451L234.564 240.456L226.703 236.073ZM232.706 213.592L223.772 212.5L223.774 212.49L223.775 212.48L232.706 213.592ZM235.575 184.329L244.543 185.086L244.543 185.087L235.575 184.329ZM235.973 179.613L244.943 180.345L244.942 180.358L244.941 180.37L235.973 179.613ZM237.381 164.034L228.433 163.071L228.433 163.063L237.381 164.034ZM236.221 156.546L244.793 153.803L244.797 153.816L244.801 153.828L236.221 156.546ZM234.734 150.57L243.648 149.329L243.649 149.336L243.65 149.343L234.734 150.57ZM241.896 135.341L235.876 128.65L235.897 128.631L235.918 128.613L241.896 135.341ZM182.455 430.382L190.085 435.154L182.455 430.382ZM181.982 428.958L178.958 437.435L181.982 428.958ZM9.7366 515.436L2.06888 510.724L9.7366 515.436ZM83.2927 10.2335L83.5245 19.2305L83.2927 10.2335ZM82.3201 11.1466L73.355 10.355L82.3201 11.1466ZM286.002 15.5606L294.969 14.7816L286.002 15.5606ZM284.835 14.5621L285.832 23.5067L284.835 14.5621ZM287.301 27.3536L292.36 34.7973L287.301 27.3536ZM287.432 27.246L293.881 33.5233L287.432 27.246ZM236.038 130.203C235.854 131.235 235.935 132.09 236.043 132.645C236.145 133.175 236.286 133.509 236.316 133.578C236.348 133.652 236.338 133.618 236.224 133.414C236.108 133.205 235.966 132.965 235.731 132.571L251.196 123.36C251.544 123.945 252.295 125.174 252.849 126.462C253.395 127.73 254.311 130.273 253.758 133.371L236.038 130.203ZM235.712 132.538C235.213 131.693 234.232 130.072 233.528 128.25L250.318 121.762C250.393 121.957 250.563 122.287 251.215 123.393L235.712 132.538ZM233.545 128.294C229.484 117.946 235.057 107.906 242.544 101.5L254.247 115.176C252.048 117.058 250.95 118.759 250.495 119.932C250.074 121.017 250.223 121.521 250.301 121.718L233.545 128.294ZM242.529 101.512C244.194 100.081 245.965 98.7778 247.353 97.7399L258.133 112.155C256.563 113.328 255.359 114.22 254.262 115.164L242.529 101.512ZM247.374 97.7236C250.738 95.2237 252.252 93.975 253.105 92.7039L268.052 102.734C265.151 107.057 260.874 110.118 258.111 112.171L247.374 97.7236ZM253.115 92.69C253.951 91.4496 254.487 89.7149 255.478 85.8217L272.921 90.2653C272.107 93.4622 270.943 98.4434 268.042 102.748L253.115 92.69ZM255.475 85.833C256.626 81.2923 258.389 73.4279 264.92 67.5699L276.938 80.9695C275.093 82.6244 274.27 84.9401 272.924 90.254L255.475 85.833ZM264.923 67.5665C267.132 65.5882 269.522 64.1991 270.993 63.324L280.198 78.7922C278.498 79.8034 277.631 80.3493 276.935 80.973L264.923 67.5665ZM270.967 63.339C271.867 62.7999 272.443 62.4494 272.924 62.1167C273.387 61.7961 273.508 61.6608 273.482 61.6897L286.687 73.9218C284.487 76.2964 281.655 77.9184 280.223 78.7771L270.967 63.339ZM273.462 61.7107C273.196 61.9997 273.543 62.0621 273.489 60.4778C273.427 58.6723 272.895 56.2366 271.899 52.5929L289.261 47.8448C290.23 51.3887 291.336 55.6975 291.478 59.8641C291.628 64.2518 290.744 69.5139 286.706 73.9008L273.462 61.7107ZM271.894 52.5774C269.843 45.0242 269.706 38.5296 271.396 33.0437C273.13 27.4137 276.535 23.6781 280.004 21.3641L289.993 36.3379C289.513 36.6583 288.96 37.167 288.598 38.3425C288.191 39.6621 287.819 42.5342 289.265 47.8603L271.894 52.5774ZM280.284 21.1843L281.329 20.5419L290.757 35.8753L289.712 36.5177L280.284 21.1843ZM280.984 20.765L282.242 19.9099L292.36 34.7973L291.102 35.6523L280.984 20.765ZM280.982 20.9686C280.119 21.8558 279.577 22.9177 279.322 23.9233C279.096 24.8135 279.151 25.434 279.16 25.5274C279.17 25.6245 279.166 25.5102 279.05 25.0485C278.936 24.5994 278.771 24.0327 278.525 23.2271L295.74 17.969C296.187 19.4345 296.875 21.6663 297.08 23.8273C297.309 26.2445 297.091 30.2253 293.881 33.5233L280.982 20.9686ZM278.548 23.302C278 21.5628 277.274 19.0761 277.036 16.3395L294.969 14.7816C295.028 15.4687 295.248 16.406 295.716 17.8942L278.548 23.302ZM285.832 23.5067C272.998 24.9374 260.135 25.5166 247.333 25.5166V7.51657C259.598 7.51657 271.784 6.96135 283.837 5.61753L285.832 23.5067ZM247.333 25.5166C224.284 25.5166 201.287 23.7205 179.164 21.993L180.565 4.04759C202.801 5.78383 225.101 7.51657 247.333 7.51657V25.5166ZM179.166 21.9931C154.952 20.1089 130.443 18.1973 106.463 18.5717L106.182 0.573906C131.147 0.184066 156.504 2.17523 180.563 4.0474L179.166 21.9931ZM106.457 18.5718C101.647 18.6436 96.8238 18.8032 91.9143 18.9663L91.3168 0.976171C96.2 0.813991 101.187 0.648417 106.188 0.57381L106.457 18.5718ZM91.925 18.9659C89.1569 19.0611 86.344 19.1579 83.5245 19.2305L83.0608 1.23648C85.79 1.16616 88.5256 1.07219 91.3061 0.976533L91.925 18.9659ZM91.2852 11.9383C89.369 33.6384 87.0371 55.3417 83.9875 76.9043L66.1648 74.3836C69.1591 53.2129 71.4582 31.8347 73.355 10.355L91.2852 11.9383ZM83.9878 76.9018C80.1082 104.388 75.2394 132.147 69.5325 159.399L51.9147 155.709C57.541 128.842 62.341 101.474 66.1645 74.3861L83.9878 76.9018ZM69.5444 159.341C69.5464 159.331 69.5321 159.403 69.5018 159.596C69.4734 159.777 69.4393 160.011 69.3986 160.305C69.3163 160.901 69.2228 161.628 69.1102 162.505L51.2568 160.213C51.4505 158.704 51.6782 156.876 51.9028 155.767L69.5444 159.341ZM69.1095 162.511C68.1591 169.878 67.2618 175.456 65.7411 179.285L49.0125 172.64C49.546 171.297 50.2423 168.077 51.2575 160.208L69.1095 162.511ZM66.1221 178.088C64.0779 186.497 63.8535 190.264 65.1653 192.909L49.0393 200.906C44.3833 191.517 46.8331 181.234 48.6315 173.836L66.1221 178.088ZM65.153 192.884C66.0233 194.626 67.7423 196.329 71.3881 199.597L59.3735 213C56.3434 210.284 51.7406 206.311 49.0515 200.93L65.153 192.884ZM71.4082 199.615C72.8059 200.875 74.5432 202.42 76.1545 204.073L63.2665 216.638C62.1508 215.494 60.913 214.388 59.3535 212.982L71.4082 199.615ZM76.1394 204.057C79.2692 207.252 82.3658 211.544 84.0774 216.51C85.8295 221.593 86.2615 227.909 82.9827 233.998L67.1342 225.465C67.4235 224.927 67.6431 224.068 67.0599 222.376C66.4362 220.566 65.0748 218.484 63.2817 216.654L76.1394 204.057ZM82.9834 233.997C79.3469 240.753 78.2338 248.945 77.0049 258.916L59.1401 256.714C60.2841 247.432 61.6149 235.719 67.1334 225.466L82.9834 233.997ZM77.0053 258.913C75.677 269.718 74.1372 283.451 66.2254 295.347L51.2374 285.379C56.412 277.598 57.7233 268.239 59.1398 256.717L77.0053 258.913ZM66.2214 295.353C64.1274 298.496 61.6996 301.313 59.7769 303.565L46.0871 291.878C48.1488 289.463 49.8469 287.466 51.2414 285.373L66.2214 295.353ZM59.7881 303.552C56.9596 306.878 55.1297 309.08 53.9106 311.409L37.9639 303.06C40.2864 298.624 43.5388 294.874 46.0759 291.891L59.7881 303.552ZM53.9119 311.406C53.2341 312.702 52.9625 314.198 53.0618 315.273C53.1557 316.288 53.4324 316.052 52.9651 315.75L43.1949 330.868C37.7958 327.379 35.5889 321.805 35.1383 316.93C34.6931 312.114 35.8159 307.166 37.9626 303.062L53.9119 311.406ZM52.9515 315.741C55.3737 317.301 57.3127 319.419 58.5194 322.051C59.6938 324.612 59.9362 327.136 59.8281 329.216C59.6316 333.001 58.1405 336.544 57.5464 338.045L40.8094 331.421C41.1826 330.478 41.4423 329.809 41.6367 329.179C41.7273 328.886 41.7835 328.662 41.817 328.498C41.8508 328.332 41.8532 328.266 41.8524 328.283C41.8506 328.317 41.8307 328.841 42.1573 329.553C42.3182 329.904 42.5249 330.213 42.7476 330.463C42.9657 330.708 43.1449 330.836 43.2085 330.877L52.9515 315.741ZM57.5336 338.077C57.1211 339.108 56.9245 339.625 56.813 340.01L39.524 335.001C39.9261 333.613 40.4732 332.261 40.8222 331.389L57.5336 338.077ZM56.8066 340.032C56.9614 339.503 56.6018 339.697 57.4104 341.418C58.2241 343.149 59.5476 345.052 61.3752 347.615L46.7201 358.066C45.1034 355.799 42.7525 352.547 41.1202 349.075C39.4829 345.591 37.9058 340.533 39.5305 334.979L56.8066 340.032ZM61.3776 347.618C70.6399 360.619 77.5292 374.574 81.9917 389.347L64.7606 394.552C60.8824 381.713 54.8803 369.52 46.7177 358.063L61.3776 347.618ZM81.9901 389.342C83.4435 394.144 85.2406 401.007 83.7764 408.307L66.128 404.766C66.6471 402.178 66.1244 399.057 64.7621 394.557L81.9901 389.342ZM83.7749 408.314C82.5746 414.271 79.3787 419.302 77.5228 422.326L62.1816 412.911C64.3278 409.414 65.6652 407.063 66.1295 404.759L83.7749 408.314ZM77.5199 422.331L17.4043 520.149L2.06888 510.724L62.1845 412.906L77.5199 422.331ZM10.5904 507.645C27.4301 508.013 44.2902 507.413 61.051 505.822L62.7515 523.742C45.2852 525.399 27.7259 526.024 10.1972 525.641L10.5904 507.645ZM61.0432 505.823C65.4734 505.399 68.4963 504.979 70.8834 504.059L77.3563 520.855C72.3591 522.781 66.9884 523.336 62.7593 523.741L61.0432 505.823ZM70.8635 504.067C73.9107 502.884 76.7056 500.621 80.748 497.211L92.3541 510.969C88.782 513.983 83.7144 518.387 77.3762 520.847L70.8635 504.067ZM80.7393 497.218C94.2257 485.812 107.245 474.583 113.265 460.767L129.766 467.958C121.762 486.325 105.085 500.203 92.3628 510.962L80.7393 497.218ZM113.29 460.712L113.582 460.053L130.034 467.356L129.742 468.014L113.29 460.712ZM113.539 460.152C114.806 457.202 117.862 449.188 126.114 445.711L133.104 462.298C132.896 462.385 132.556 462.577 132.025 463.348C131.4 464.254 130.875 465.399 130.078 467.256L113.539 460.152ZM126.119 445.708C132.365 443.081 138.816 444.373 141.2 444.767L138.258 462.525C136.787 462.282 135.743 462.121 134.741 462.101C133.788 462.081 133.311 462.211 133.098 462.3L126.119 445.708ZM141.204 444.768L162.055 448.232L159.106 465.988L138.254 462.525L141.204 444.768ZM162.053 448.231C162.437 448.295 162.684 448.337 162.929 448.372C163.162 448.406 163.281 448.417 163.327 448.421C163.379 448.424 163.252 448.411 163.004 448.431C162.762 448.45 162.241 448.512 161.573 448.751L167.645 465.696C165.348 466.519 163.204 466.456 162.075 466.377C160.859 466.292 159.66 466.08 159.107 465.989L162.053 448.231ZM161.563 448.755C160.845 449.013 160.323 449.35 159.994 449.604C159.679 449.848 159.514 450.038 159.493 450.063C159.47 450.089 159.52 450.034 159.655 449.837C159.79 449.64 159.955 449.385 160.187 449.013L175.459 458.54C174.961 459.339 174.152 460.625 173.131 461.81C172.103 463.004 170.334 464.729 167.654 465.693L161.563 448.755ZM160.192 449.004L174.824 425.609L190.085 435.154L175.453 458.549L160.192 449.004ZM178.958 437.435C178.399 437.236 177.847 437.086 177.291 436.984L180.543 419.28C182.11 419.568 183.596 419.979 185.005 420.481L178.958 437.435ZM177.488 437.018L175.921 436.766L178.779 418.994L180.347 419.246L177.488 437.018ZM176.034 436.783C174.406 436.542 170.803 436.084 167.338 434.215L175.887 418.374C175.95 418.408 176.153 418.504 176.627 418.619C177.142 418.744 177.716 418.836 178.666 418.977L176.034 436.783ZM167.337 434.214C160.342 430.438 158.029 423.486 156.989 420.742L173.822 414.366C174.468 416.071 174.837 416.969 175.269 417.672C175.605 418.219 175.792 418.323 175.888 418.375L167.337 434.214ZM157.023 420.829L156.607 419.763L173.373 413.214L173.789 414.279L157.023 420.829ZM156.614 419.782C154.301 413.9 149.768 408.166 144.232 401.297L158.247 390.001C163.353 396.337 169.852 404.262 173.365 413.195L156.614 419.782ZM144.234 401.299C136.582 391.811 125.407 378.597 126.196 361.627L144.177 362.462C143.762 371.397 149.517 379.176 158.245 389.999L144.234 401.299ZM126.197 361.615C126.749 350.051 132.882 340.267 137.216 333.1L152.619 342.415C147.797 350.387 144.474 356.248 144.176 362.474L126.197 361.615ZM137.217 333.099L138.899 330.318L154.3 339.636L152.618 342.417L137.217 333.099ZM138.861 330.382C139.842 328.731 140.54 327.44 140.973 326.311C141.408 325.178 141.329 324.819 141.345 324.953L159.203 322.69C159.698 326.596 158.795 330.108 157.78 332.756C156.763 335.408 155.385 337.808 154.338 339.572L138.861 330.382ZM141.349 324.979C141.349 324.98 141.348 324.974 141.346 324.963C141.344 324.952 141.341 324.935 141.337 324.913C141.328 324.868 141.313 324.803 141.289 324.716C141.241 324.536 141.164 324.294 141.045 323.968C140.788 323.264 140.454 322.496 139.957 321.352L156.465 314.176C157.229 315.933 158.753 319.222 159.199 322.663L141.349 324.979ZM139.96 321.358C138.639 318.326 133.91 309.008 139.648 300.006L154.826 309.682C154.809 309.709 154.85 309.639 154.865 309.54C154.875 309.478 154.846 309.574 154.905 309.919C154.966 310.284 155.104 310.805 155.38 311.557C155.663 312.328 156.007 313.126 156.462 314.17L139.96 321.358ZM139.657 299.992C144.546 292.354 153.796 290.317 161.636 290.945L160.197 308.888C158.059 308.716 156.539 308.98 155.632 309.306C154.746 309.625 154.688 309.897 154.817 309.696L139.657 299.992ZM161.676 290.949C163.19 291.077 164.674 291.28 165.891 291.446L163.469 309.282C162.171 309.106 161.141 308.968 160.157 308.885L161.676 290.949ZM165.897 291.447C169.138 291.889 170.232 291.943 170.949 291.795L174.596 309.421C170.284 310.314 165.942 309.62 163.463 309.281L165.897 291.447ZM170.97 291.79C171.448 291.693 172.33 291.329 173.744 289.757C175.228 288.107 176.586 285.95 178.337 283.108L193.664 292.545C192.085 295.109 189.894 298.717 187.128 301.793C184.291 304.948 180.224 308.271 174.575 309.426L170.97 291.79ZM178.331 283.116C186.389 269.996 195.912 257.579 206.651 246.186L219.749 258.533C209.84 269.045 201.071 280.484 193.67 292.536L178.331 283.116ZM206.677 246.159L208.864 243.858L221.911 256.259L219.724 258.56L206.677 246.159ZM208.879 243.842C213.209 239.308 216.658 235.609 218.842 231.691L234.564 240.456C231.064 246.734 225.906 252.076 221.896 256.275L208.879 243.842ZM218.839 231.696C221.716 226.528 222.838 220.146 223.772 212.5L241.639 214.683C240.714 222.259 239.339 231.878 234.566 240.451L218.839 231.696ZM223.775 212.48C224.98 202.798 225.799 193.127 226.607 183.571L244.543 185.087C243.739 194.589 242.893 204.611 241.637 214.703L223.775 212.48ZM226.607 183.571L227.005 178.855L244.941 180.37L244.543 185.086L226.607 183.571ZM227.003 178.88C227.426 173.695 227.86 168.384 228.433 163.071L246.329 164.998C245.786 170.043 245.37 175.124 244.943 180.345L227.003 178.88ZM228.433 163.063C228.515 162.309 228.454 161.829 227.641 159.263L244.801 153.828C245.564 156.238 246.866 160.052 246.328 165.006L228.433 163.063ZM227.649 159.289C227.106 157.591 226.255 154.974 225.817 151.796L243.65 149.343C243.85 150.8 244.238 152.069 244.793 153.803L227.649 159.289ZM225.819 151.81C224.983 145.8 226.85 140.642 229.032 136.905C231.197 133.196 233.954 130.38 235.876 128.65L247.916 142.031C246.757 143.074 245.459 144.469 244.576 145.981C243.711 147.463 243.537 148.533 243.648 149.329L225.819 151.81ZM235.918 128.613C236.346 128.233 236.645 127.966 236.899 127.73C237.019 127.619 237.107 127.534 237.171 127.47C237.203 127.439 237.226 127.415 237.242 127.399C237.25 127.39 237.256 127.384 237.26 127.38C237.264 127.376 237.266 127.373 237.266 127.374C237.266 127.374 237.263 127.376 237.259 127.381C237.255 127.386 237.249 127.393 237.24 127.403C237.224 127.423 237.198 127.455 237.164 127.498C237.1 127.581 236.994 127.725 236.872 127.927C236.629 128.329 236.266 129.045 236.069 130.039L253.727 133.535C253.14 136.498 251.465 138.512 250.598 139.468C249.682 140.477 248.571 141.45 247.874 142.068L235.918 128.613ZM174.824 425.609C172.293 429.657 173.791 435.593 178.958 437.435L185.005 420.481C191.334 422.738 193.27 430.061 190.085 435.154L174.824 425.609ZM16.3008 510.134C14.8007 508.589 12.7504 507.692 10.5904 507.645L10.1972 525.641C7.62127 525.585 5.17537 524.516 3.3855 522.672L16.3008 510.134ZM17.4043 520.149C19.3696 516.951 18.9152 512.827 16.3008 510.134L3.3855 522.672C0.266309 519.459 -0.275845 514.539 2.06888 510.724L17.4043 520.149ZM83.5245 19.2305C87.5811 19.126 90.9269 15.996 91.2852 11.9383L73.355 10.355C73.8029 5.28271 77.9859 1.36723 83.0608 1.23648L83.5245 19.2305ZM277.036 16.3395C277.379 20.2835 280.921 24.0542 285.832 23.5067L283.837 5.61753C289.94 4.9372 294.522 9.64325 294.969 14.7816L277.036 16.3395ZM282.242 19.9099C281.914 20.133 281.461 20.4767 280.982 20.9686L293.881 33.5233C293.324 34.096 292.781 34.5109 292.36 34.7973L282.242 19.9099Z" fill="#FFBF02" mask="url(#path-1-outside-1_1088_25023)"/>
</svg>
