<svg width="344" height="399" viewBox="0 0 344 399" fill="none" xmlns="http://www.w3.org/2000/svg">
<mask id="path-1-outside-1_1088_25037" maskUnits="userSpaceOnUse" x="0" y="-0.5" width="344" height="399" fill="black">
<rect fill="white" y="-0.5" width="344" height="399"/>
<path d="M30.0373 213.433L31.2504 212.652C35.2701 210.067 40.2284 206.831 45.7446 208.514C48.3388 209.319 50.2513 211.067 51.9247 212.831C60.159 221.515 65.7105 232.093 67.9506 243.42C68.3756 245.566 68.8095 247.754 70.1996 248.55C71.7491 249.42 73.8121 248.485 77.0615 246.875C80.4379 245.188 84.6526 243.099 88.7171 245.109C88.7733 245.137 88.8273 245.171 88.8768 245.209C96.1033 250.829 100.752 258.229 102.384 266.324C102.818 268.495 103.172 270.284 104.235 270.934C105.811 271.926 108.325 270.211 111.433 267.869L113.053 266.674C122.858 259.697 135.975 262.749 147.247 267.099C147.808 267.315 148.433 266.996 148.635 266.43C150.72 260.591 156.984 256.261 163.044 254.827C170.747 253.014 178.654 254.461 185.639 255.73C191.908 256.876 198.646 258.787 201.099 264.34C201.975 266.316 202.108 268.397 202.25 270.414C202.444 273.227 202.648 275.016 203.967 276.016C204.809 276.659 206.101 276.919 207.598 277.219C209.156 277.536 210.918 277.886 212.512 278.797C217.302 281.537 217.532 286.822 217.727 291.481C217.93 296.173 218.223 299.099 220.684 300.278C221.853 300.839 223.464 300.856 225.173 300.864L226.634 300.888C240.907 301.344 251.124 311.084 261.006 320.492C262.865 322.272 264.715 324.029 266.566 325.704C268.292 327.265 270.329 329.005 272.658 329.981L273.269 330.224C274.349 330.647 275.703 331.176 276.739 332.29C277.66 333.282 278.041 334.404 278.351 335.306L296.39 388.694C296.648 389.458 297.657 389.618 298.139 388.971L316 365L334.353 344.715C334.714 344.316 334.695 343.706 334.323 343.317C323.799 332.33 319.091 309.788 317.008 296.473C313.626 274.862 310.137 252.51 312.917 230.28C313.208 227.96 313.602 225.569 314.052 223.12C314.149 222.591 313.813 222.079 313.289 221.96L296.812 218.214L296.134 218.12C295.757 218.068 295.384 218.235 295.17 218.549L294.421 219.653C291.172 225.71 284.487 229.459 277.625 229.459L276.102 229.394C274.774 229.288 273.773 228.239 273.826 227.02C274.03 222.385 274.021 218.295 271.896 215.197C270.789 213.587 268.647 212.376 266.575 212.173C265.592 212.075 264.273 212.164 263.272 213.091L262.298 214.149C261.006 215.604 258.872 218.043 255.578 217.173C253.922 216.718 252.939 215.531 252.346 214.816L241.208 201.408C238.994 198.749 236.692 195.602 237.33 191.919C237.471 191.114 237.755 190.35 238.056 189.586L238.543 188.114C238.915 186.122 237.038 184.057 235.081 183.113C232.54 181.902 229.37 181.731 226.315 181.568C225.394 181.52 224.571 180.999 224.19 180.227C223.809 179.454 223.925 178.552 224.491 177.877L248.415 149.444C251.381 145.923 254.737 141.923 255.729 137.483C256.578 133.71 255.162 128.905 251.337 127.385C249.734 126.742 247.724 126.645 245.591 126.539C242.306 126.376 238.578 126.19 235.727 123.759C231.734 120.36 232.239 114.798 233.877 111.074C234.585 109.472 235.515 107.952 236.444 106.44C237.48 104.749 238.463 103.155 239.065 101.48C239.835 99.3658 240.039 97.073 240.26 94.6419L240.339 93.8894C240.378 93.5176 240.206 93.1551 239.893 92.951C238.72 92.1869 237.539 91.4235 236.48 90.5359L236.019 90.1375C235.063 89.3163 234.169 88.5518 233.23 88.2347C230.822 87.4053 228.299 89.121 224.695 91.8123L222.703 93.2679C218.409 96.2682 213.539 97.6664 208.961 97.2274C203.436 96.6826 198.655 93.1619 197.318 88.6736C196.796 86.9255 196.804 85.2427 196.804 83.6165C196.804 82.3725 196.804 81.1935 196.565 80.1365C195.724 76.4777 191.882 73.7377 188.181 71.1033L186.551 69.9402C179.778 64.9967 176.953 59.2807 178.813 54.264C181.08 48.1659 188.03 46.9304 194.175 45.849C199.222 44.9627 203.985 44.1166 206.208 41.0838C207.66 39.108 207.208 36.8642 206.801 35.7015C205.951 33.1972 203.799 31.0098 201.329 30.1317L200.328 29.8148C199.098 29.4245 197.716 29.0016 196.477 28.0584C194.066 26.2208 193.231 23.4054 193.984 19.6606C194.107 19.0468 193.687 18.4412 193.063 18.3924C168.707 16.4903 143.841 17.5373 119.729 18.5453C105.102 19.1469 89.8114 19.6271 75.0958 19.7572C69.7834 19.7572 64.6038 19.5942 59.7783 17.8705C56.2455 16.602 53.2262 14.602 50.3132 12.6668L45.25 9.30094C44.9676 9.1132 44.6095 9.08147 44.2967 9.21263C43.4385 9.57256 42.4583 9.97016 41.2998 10.5936C37.6519 12.5613 39.6528 13.4228 39.582 17.0003C39.4846 21.6105 35.8545 21.4723 33.2071 24.7328C29.329 29.4974 35.7924 28.7087 37.457 32.7415C39.2101 36.9858 30.5952 42.2713 33.2426 46.2635C34.6238 48.3531 37.9971 47.0196 39.9273 47.4505C42.982 48.1335 42.4419 47.6946 43.6992 51.012C46.2669 57.8094 48.0731 64.8502 49.1179 71.9647C50.0387 78.1441 52.4117 82.1689 54.3507 87.8524C56.3783 93.796 54.0763 92.4953 49.9414 94.0076C44.381 96.0403 42.6101 101.886 42.1054 106.854C41.4059 113.644 39.2633 120.116 45.5763 124.75C52.695 129.97 61.4162 139.182 60.159 148.313C59.1142 155.883 50.7117 158.201 43.8409 158.331C33.9597 158.518 26.1858 165.144 24.1228 174.015C22.4671 181.162 27.266 187.487 22.5025 194.537C19.6515 198.748 14.5337 201.481 12.1077 205.953C10.53 208.865 9.77695 212.118 9.13665 215.433C9.05427 215.859 9.25737 216.292 9.64838 216.481C10.7608 217.02 11.9301 217.418 13.0995 217.628C20.0676 218.864 26.7081 215.539 30.0373 213.433Z"/>
</mask>
<path d="M30.0373 213.433L31.2504 212.652C35.2701 210.067 40.2284 206.831 45.7446 208.514C48.3388 209.319 50.2513 211.067 51.9247 212.831C60.159 221.515 65.7105 232.093 67.9506 243.42C68.3756 245.566 68.8095 247.754 70.1996 248.55C71.7491 249.42 73.8121 248.485 77.0615 246.875C80.4379 245.188 84.6526 243.099 88.7171 245.109C88.7733 245.137 88.8273 245.171 88.8768 245.209C96.1033 250.829 100.752 258.229 102.384 266.324C102.818 268.495 103.172 270.284 104.235 270.934C105.811 271.926 108.325 270.211 111.433 267.869L113.053 266.674C122.858 259.697 135.975 262.749 147.247 267.099C147.808 267.315 148.433 266.996 148.635 266.43C150.72 260.591 156.984 256.261 163.044 254.827C170.747 253.014 178.654 254.461 185.639 255.73C191.908 256.876 198.646 258.787 201.099 264.34C201.975 266.316 202.108 268.397 202.25 270.414C202.444 273.227 202.648 275.016 203.967 276.016C204.809 276.659 206.101 276.919 207.598 277.219C209.156 277.536 210.918 277.886 212.512 278.797C217.302 281.537 217.532 286.822 217.727 291.481C217.93 296.173 218.223 299.099 220.684 300.278C221.853 300.839 223.464 300.856 225.173 300.864L226.634 300.888C240.907 301.344 251.124 311.084 261.006 320.492C262.865 322.272 264.715 324.029 266.566 325.704C268.292 327.265 270.329 329.005 272.658 329.981L273.269 330.224C274.349 330.647 275.703 331.176 276.739 332.29C277.66 333.282 278.041 334.404 278.351 335.306L296.39 388.694C296.648 389.458 297.657 389.618 298.139 388.971L316 365L334.353 344.715C334.714 344.316 334.695 343.706 334.323 343.317C323.799 332.33 319.091 309.788 317.008 296.473C313.626 274.862 310.137 252.51 312.917 230.28C313.208 227.96 313.602 225.569 314.052 223.12C314.149 222.591 313.813 222.079 313.289 221.96L296.812 218.214L296.134 218.12C295.757 218.068 295.384 218.235 295.17 218.549L294.421 219.653C291.172 225.71 284.487 229.459 277.625 229.459L276.102 229.394C274.774 229.288 273.773 228.239 273.826 227.02C274.03 222.385 274.021 218.295 271.896 215.197C270.789 213.587 268.647 212.376 266.575 212.173C265.592 212.075 264.273 212.164 263.272 213.091L262.298 214.149C261.006 215.604 258.872 218.043 255.578 217.173C253.922 216.718 252.939 215.531 252.346 214.816L241.208 201.408C238.994 198.749 236.692 195.602 237.33 191.919C237.471 191.114 237.755 190.35 238.056 189.586L238.543 188.114C238.915 186.122 237.038 184.057 235.081 183.113C232.54 181.902 229.37 181.731 226.315 181.568C225.394 181.52 224.571 180.999 224.19 180.227C223.809 179.454 223.925 178.552 224.491 177.877L248.415 149.444C251.381 145.923 254.737 141.923 255.729 137.483C256.578 133.71 255.162 128.905 251.337 127.385C249.734 126.742 247.724 126.645 245.591 126.539C242.306 126.376 238.578 126.19 235.727 123.759C231.734 120.36 232.239 114.798 233.877 111.074C234.585 109.472 235.515 107.952 236.444 106.44C237.48 104.749 238.463 103.155 239.065 101.48C239.835 99.3658 240.039 97.073 240.26 94.6419L240.339 93.8894C240.378 93.5176 240.206 93.1551 239.893 92.951C238.72 92.1869 237.539 91.4235 236.48 90.5359L236.019 90.1375C235.063 89.3163 234.169 88.5518 233.23 88.2347C230.822 87.4053 228.299 89.121 224.695 91.8123L222.703 93.2679C218.409 96.2682 213.539 97.6664 208.961 97.2274C203.436 96.6826 198.655 93.1619 197.318 88.6736C196.796 86.9255 196.804 85.2427 196.804 83.6165C196.804 82.3725 196.804 81.1935 196.565 80.1365C195.724 76.4777 191.882 73.7377 188.181 71.1033L186.551 69.9402C179.778 64.9967 176.953 59.2807 178.813 54.264C181.08 48.1659 188.03 46.9304 194.175 45.849C199.222 44.9627 203.985 44.1166 206.208 41.0838C207.66 39.108 207.208 36.8642 206.801 35.7015C205.951 33.1972 203.799 31.0098 201.329 30.1317L200.328 29.8148C199.098 29.4245 197.716 29.0016 196.477 28.0584C194.066 26.2208 193.231 23.4054 193.984 19.6606C194.107 19.0468 193.687 18.4412 193.063 18.3924C168.707 16.4903 143.841 17.5373 119.729 18.5453C105.102 19.1469 89.8114 19.6271 75.0958 19.7572C69.7834 19.7572 64.6038 19.5942 59.7783 17.8705C56.2455 16.602 53.2262 14.602 50.3132 12.6668L45.25 9.30094C44.9676 9.1132 44.6095 9.08147 44.2967 9.21263C43.4385 9.57256 42.4583 9.97016 41.2998 10.5936C37.6519 12.5613 39.6528 13.4228 39.582 17.0003C39.4846 21.6105 35.8545 21.4723 33.2071 24.7328C29.329 29.4974 35.7924 28.7087 37.457 32.7415C39.2101 36.9858 30.5952 42.2713 33.2426 46.2635C34.6238 48.3531 37.9971 47.0196 39.9273 47.4505C42.982 48.1335 42.4419 47.6946 43.6992 51.012C46.2669 57.8094 48.0731 64.8502 49.1179 71.9647C50.0387 78.1441 52.4117 82.1689 54.3507 87.8524C56.3783 93.796 54.0763 92.4953 49.9414 94.0076C44.381 96.0403 42.6101 101.886 42.1054 106.854C41.4059 113.644 39.2633 120.116 45.5763 124.75C52.695 129.97 61.4162 139.182 60.159 148.313C59.1142 155.883 50.7117 158.201 43.8409 158.331C33.9597 158.518 26.1858 165.144 24.1228 174.015C22.4671 181.162 27.266 187.487 22.5025 194.537C19.6515 198.748 14.5337 201.481 12.1077 205.953C10.53 208.865 9.77695 212.118 9.13665 215.433C9.05427 215.859 9.25737 216.292 9.64838 216.481C10.7608 217.02 11.9301 217.418 13.0995 217.628C20.0676 218.864 26.7081 215.539 30.0373 213.433Z" fill="white"/>
<path d="M30.0373 213.433L31.2504 212.652C35.2701 210.067 40.2284 206.831 45.7446 208.514C48.3388 209.319 50.2513 211.067 51.9247 212.831C60.159 221.515 65.7105 232.093 67.9506 243.42C68.3756 245.566 68.8095 247.754 70.1996 248.55C71.7491 249.42 73.8121 248.485 77.0615 246.875C80.4379 245.188 84.6526 243.099 88.7171 245.109C88.7733 245.137 88.8273 245.171 88.8768 245.209C96.1033 250.829 100.752 258.229 102.384 266.324C102.818 268.495 103.172 270.284 104.235 270.934C105.811 271.926 108.325 270.211 111.433 267.869L113.053 266.674C122.858 259.697 135.975 262.749 147.247 267.099C147.808 267.315 148.433 266.996 148.635 266.43C150.72 260.591 156.984 256.261 163.044 254.827C170.747 253.014 178.654 254.461 185.639 255.73C191.908 256.876 198.646 258.787 201.099 264.34C201.975 266.316 202.108 268.397 202.25 270.414C202.444 273.227 202.648 275.016 203.967 276.016C204.809 276.659 206.101 276.919 207.598 277.219C209.156 277.536 210.918 277.886 212.512 278.797C217.302 281.537 217.532 286.822 217.727 291.481C217.93 296.173 218.223 299.099 220.684 300.278C221.853 300.839 223.464 300.856 225.173 300.864L226.634 300.888C240.907 301.344 251.124 311.084 261.006 320.492C262.865 322.272 264.715 324.029 266.566 325.704C268.292 327.265 270.329 329.005 272.658 329.981L273.269 330.224C274.349 330.647 275.703 331.176 276.739 332.29C277.66 333.282 278.041 334.404 278.351 335.306L296.39 388.694C296.648 389.458 297.657 389.618 298.139 388.971L316 365L334.353 344.715C334.714 344.316 334.695 343.706 334.323 343.317C323.799 332.33 319.091 309.788 317.008 296.473C313.626 274.862 310.137 252.51 312.917 230.28C313.208 227.96 313.602 225.569 314.052 223.12C314.149 222.591 313.813 222.079 313.289 221.96L296.812 218.214L296.134 218.12C295.757 218.068 295.384 218.235 295.17 218.549L294.421 219.653C291.172 225.71 284.487 229.459 277.625 229.459L276.102 229.394C274.774 229.288 273.773 228.239 273.826 227.02C274.03 222.385 274.021 218.295 271.896 215.197C270.789 213.587 268.647 212.376 266.575 212.173C265.592 212.075 264.273 212.164 263.272 213.091L262.298 214.149C261.006 215.604 258.872 218.043 255.578 217.173C253.922 216.718 252.939 215.531 252.346 214.816L241.208 201.408C238.994 198.749 236.692 195.602 237.33 191.919C237.471 191.114 237.755 190.35 238.056 189.586L238.543 188.114C238.915 186.122 237.038 184.057 235.081 183.113C232.54 181.902 229.37 181.731 226.315 181.568C225.394 181.52 224.571 180.999 224.19 180.227C223.809 179.454 223.925 178.552 224.491 177.877L248.415 149.444C251.381 145.923 254.737 141.923 255.729 137.483C256.578 133.71 255.162 128.905 251.337 127.385C249.734 126.742 247.724 126.645 245.591 126.539C242.306 126.376 238.578 126.19 235.727 123.759C231.734 120.36 232.239 114.798 233.877 111.074C234.585 109.472 235.515 107.952 236.444 106.44C237.48 104.749 238.463 103.155 239.065 101.48C239.835 99.3658 240.039 97.073 240.26 94.6419L240.339 93.8894C240.378 93.5176 240.206 93.1551 239.893 92.951C238.72 92.1869 237.539 91.4235 236.48 90.5359L236.019 90.1375C235.063 89.3163 234.169 88.5518 233.23 88.2347C230.822 87.4053 228.299 89.121 224.695 91.8123L222.703 93.2679C218.409 96.2682 213.539 97.6664 208.961 97.2274C203.436 96.6826 198.655 93.1619 197.318 88.6736C196.796 86.9255 196.804 85.2427 196.804 83.6165C196.804 82.3725 196.804 81.1935 196.565 80.1365C195.724 76.4777 191.882 73.7377 188.181 71.1033L186.551 69.9402C179.778 64.9967 176.953 59.2807 178.813 54.264C181.08 48.1659 188.03 46.9304 194.175 45.849C199.222 44.9627 203.985 44.1166 206.208 41.0838C207.66 39.108 207.208 36.8642 206.801 35.7015C205.951 33.1972 203.799 31.0098 201.329 30.1317L200.328 29.8148C199.098 29.4245 197.716 29.0016 196.477 28.0584C194.066 26.2208 193.231 23.4054 193.984 19.6606C194.107 19.0468 193.687 18.4412 193.063 18.3924C168.707 16.4903 143.841 17.5373 119.729 18.5453C105.102 19.1469 89.8114 19.6271 75.0958 19.7572C69.7834 19.7572 64.6038 19.5942 59.7783 17.8705C56.2455 16.602 53.2262 14.602 50.3132 12.6668L45.25 9.30094C44.9676 9.1132 44.6095 9.08147 44.2967 9.21263C43.4385 9.57256 42.4583 9.97016 41.2998 10.5936C37.6519 12.5613 39.6528 13.4228 39.582 17.0003C39.4846 21.6105 35.8545 21.4723 33.2071 24.7328C29.329 29.4974 35.7924 28.7087 37.457 32.7415C39.2101 36.9858 30.5952 42.2713 33.2426 46.2635C34.6238 48.3531 37.9971 47.0196 39.9273 47.4505C42.982 48.1335 42.4419 47.6946 43.6992 51.012C46.2669 57.8094 48.0731 64.8502 49.1179 71.9647C50.0387 78.1441 52.4117 82.1689 54.3507 87.8524C56.3783 93.796 54.0763 92.4953 49.9414 94.0076C44.381 96.0403 42.6101 101.886 42.1054 106.854C41.4059 113.644 39.2633 120.116 45.5763 124.75C52.695 129.97 61.4162 139.182 60.159 148.313C59.1142 155.883 50.7117 158.201 43.8409 158.331C33.9597 158.518 26.1858 165.144 24.1228 174.015C22.4671 181.162 27.266 187.487 22.5025 194.537C19.6515 198.748 14.5337 201.481 12.1077 205.953C10.53 208.865 9.77695 212.118 9.13665 215.433C9.05427 215.859 9.25737 216.292 9.64838 216.481C10.7608 217.02 11.9301 217.418 13.0995 217.628C20.0676 218.864 26.7081 215.539 30.0373 213.433Z" stroke="#FFBF02" stroke-width="18" mask="url(#path-1-outside-1_1088_25037)"/>
</svg>
