<svg width="453" height="538" viewBox="0 0 453 538" fill="none" xmlns="http://www.w3.org/2000/svg">
<mask id="path-1-outside-1_1088_25028" maskUnits="userSpaceOnUse" x="0" y="0.498047" width="453" height="537" fill="black">
<rect fill="white" y="0.498047" width="453" height="537"/>
<path d="M76.4354 29.6662C74.1334 30.3899 68.148 25.7797 66.4746 29.6825C65.5449 31.8616 72.6813 40.3503 73.9032 42.3992C80.0656 52.7823 84.9885 74.4102 75.8333 84.4843C72.7963 87.8261 70.6094 89.5743 70.1667 94.095C69.6443 99.4939 72.1943 100.876 74.1687 105.316C76.1343 109.747 74.5849 117.927 72.9027 122.333C70.7511 128.001 67.174 130.147 61.4542 132.31C47.2434 137.684 57.1954 151.523 53.0694 161.711C50.9887 166.866 44.6315 167.769 43.5601 173.273C42.0992 180.77 49.1559 183.843 52.7418 189.275C54.1939 191.47 54.4063 194.055 55.1058 196.487C55.9027 199.259 57.7178 200.511 58.8157 202.593C60.6043 205.975 59.4355 214.757 56.6907 218.318C54.6897 220.912 50.2272 221.554 48.9079 224.652C47.7303 227.416 49.0053 232.848 49.4569 235.718C50.2715 240.84 54.1319 245.361 54.0256 250.589C53.7866 263.103 41.2846 275.722 31.1023 282.527C26.3742 285.682 21.3363 288.414 21.6107 294.227C21.8498 299.472 24.9399 304.001 22.7972 309.351C20.6722 314.636 15.0941 318.693 11.6322 323.214C7.66551 328.393 8.8077 333.028 10.977 338.809C13.1816 344.695 14.4212 349.167 14.1644 355.509C13.8191 363.949 13.1285 371.202 19.0519 377.926C23.6029 383.089 24.9133 388.447 26.5602 394.895C28.0211 400.611 24.7009 408.823 27.3129 413.783C29.8717 418.637 38.832 419.922 43.9585 418.393C51.4048 416.165 49.4658 409.571 51.272 404.059C53.2996 397.879 55.885 399.115 61.4277 399.205C64.4646 399.253 68.8563 396.969 71.3089 397.806C73.1063 398.416 73.7349 400.644 74.7886 401.896C77.3297 404.929 79.9505 406.929 83.0849 409.271C89.5926 414.149 87.0515 417.816 83.8729 424.353C80.3667 431.565 82.8546 433.411 85.9978 439.761C87.7155 443.233 87.99 447.38 87.6535 451.144C87.2728 455.34 84.1651 458.397 83.5364 462.43C82.8901 466.52 85.7853 472.284 88.1051 475.642C91.9124 481.147 96.2686 482.497 102.05 485.497C113.109 491.237 105.379 503.718 114.331 509.613C123.043 515.337 133.978 507.369 141.929 504.247C154.369 499.368 163.188 509.597 175.548 508.776C184.863 508.158 194.771 505.865 203.625 503.263C206.361 502.45 210.248 500.897 213.187 501.995C215.604 502.905 216.605 505.588 218.588 507.027C222.59 509.946 222.626 507.206 226.07 507.353C228.168 507.442 232.073 510.296 234.047 511.125C238.776 513.093 243.716 514.467 248.922 513.735C253.597 513.085 257.511 510.646 262.363 511.085C266.701 511.483 270.518 513.646 274.776 514.557C279.212 515.508 283.87 515.093 286.729 518.809C289.155 521.964 288.89 525.241 293.423 526.615C298.833 528.241 305.296 523.931 310.069 525.224C311.698 525.663 312.238 527.972 313.787 528.347C317.258 529.2 318.409 526.289 317.533 523.557C316.09 519.069 308.829 514.711 305.456 511.499C301.073 507.32 296.991 502.401 294.539 497.01C292.786 493.156 292.91 487.294 289.394 484.416C286.437 481.993 280.779 483.188 278.885 479.683C277.512 477.155 278.752 473.691 276.99 470.821C275.131 467.796 271.288 463.95 268.153 461.999C265.329 460.243 261.132 459.682 266.214 456.681C269.836 454.527 272.519 458.511 275.077 456.966C277.742 455.364 273.006 450.331 272.217 448.933C268.897 442.973 268.755 437.281 268.499 430.736C268.33 426.435 266.701 420.483 263.31 417.231C260.548 414.58 255.067 414.767 253.969 410.718C252.756 406.278 259.016 404.384 261.336 401.782C264.302 398.448 265.046 393.017 265.727 388.903C267.339 379.195 267.038 368.925 271.819 359.892C275.414 353.095 281.134 348.753 289.518 347.899C293.556 347.484 298.824 348.517 296.017 343.142C293.742 338.776 287.606 340.565 287.553 334.28C287.517 329.767 290.147 323.1 295.902 327.678C299.293 330.369 296.974 335.003 299.205 338.296C303.809 345.102 316.435 337.524 319.808 332.841C323.137 328.214 323.908 322.279 327.148 317.53C330.309 312.896 335.347 309.538 339.101 305.358C346.185 297.439 341.51 289.203 342.554 280.21C342.794 278.128 344.086 276.185 343.466 274.193C342.705 271.721 339.978 270.567 339.58 267.331C338.34 257.094 346.725 250.231 351.869 242.166C354.747 237.645 356.872 232.742 359.988 228.359C364.221 222.391 370.374 217.879 375.828 212.886C380.981 208.162 385.417 203.024 391.553 199.357C395.909 196.755 400.992 196.674 405.188 194.283C410.917 191.015 410.572 185.112 414.786 181.339C420.851 175.924 430.919 181.81 436.443 177.282C439.87 174.468 432.371 169.354 433.902 164.378C435.532 159.052 440.375 158.743 438.825 152.661C437.187 146.23 434.106 147.311 428.643 149.604C422.224 152.304 415.937 152.198 420.276 144.246C423.277 138.733 428.572 138.563 433.513 135.448C444.908 128.253 446.599 109.43 440.065 98.8353C437.639 94.8918 434.487 94.03 429.608 94.4203C422.171 95.022 416.424 96.9408 409.917 92.2737C403.958 87.9969 401.399 85.8829 393.28 87.0537C389.251 87.6391 382.442 90.1109 378.405 88.1595C375.067 86.5496 375.129 82.7769 374.491 79.8254C373.411 74.8412 372.136 73.3695 367.408 71.1336C364.318 69.67 361.883 67.743 359.032 65.9705C354.419 63.1085 349.868 62.0351 344.963 60.1975C331.602 55.1646 333.249 35.3254 328.237 25.5033C325.374 19.8984 326.564 15.7336 328.956 11.0843C329.306 10.4042 328.815 9.58574 328.051 9.59489C245.616 10.5814 162.929 15.3422 81.108 23.885C80.7252 23.9249 80.4012 24.182 80.2625 24.541C79.3007 27.0311 77.9709 29.1912 76.4354 29.6662"/>
</mask>
<path d="M76.4354 29.6662C74.1334 30.3899 68.148 25.7797 66.4746 29.6825C65.5449 31.8616 72.6813 40.3503 73.9032 42.3992C80.0656 52.7823 84.9885 74.4102 75.8333 84.4843C72.7963 87.8261 70.6094 89.5743 70.1667 94.095C69.6443 99.4939 72.1943 100.876 74.1687 105.316C76.1343 109.747 74.5849 117.927 72.9027 122.333C70.7511 128.001 67.174 130.147 61.4542 132.31C47.2434 137.684 57.1954 151.523 53.0694 161.711C50.9887 166.866 44.6315 167.769 43.5601 173.273C42.0992 180.77 49.1559 183.843 52.7418 189.275C54.1939 191.47 54.4063 194.055 55.1058 196.487C55.9027 199.259 57.7178 200.511 58.8157 202.593C60.6043 205.975 59.4355 214.757 56.6907 218.318C54.6897 220.912 50.2272 221.554 48.9079 224.652C47.7303 227.416 49.0053 232.848 49.4569 235.718C50.2715 240.84 54.1319 245.361 54.0256 250.589C53.7866 263.103 41.2846 275.722 31.1023 282.527C26.3742 285.682 21.3363 288.414 21.6107 294.227C21.8498 299.472 24.9399 304.001 22.7972 309.351C20.6722 314.636 15.0941 318.693 11.6322 323.214C7.66551 328.393 8.8077 333.028 10.977 338.809C13.1816 344.695 14.4212 349.167 14.1644 355.509C13.8191 363.949 13.1285 371.202 19.0519 377.926C23.6029 383.089 24.9133 388.447 26.5602 394.895C28.0211 400.611 24.7009 408.823 27.3129 413.783C29.8717 418.637 38.832 419.922 43.9585 418.393C51.4048 416.165 49.4658 409.571 51.272 404.059C53.2996 397.879 55.885 399.115 61.4277 399.205C64.4646 399.253 68.8563 396.969 71.3089 397.806C73.1063 398.416 73.7349 400.644 74.7886 401.896C77.3297 404.929 79.9505 406.929 83.0849 409.271C89.5926 414.149 87.0515 417.816 83.8729 424.353C80.3667 431.565 82.8546 433.411 85.9978 439.761C87.7155 443.233 87.99 447.38 87.6535 451.144C87.2728 455.34 84.1651 458.397 83.5364 462.43C82.8901 466.52 85.7853 472.284 88.1051 475.642C91.9124 481.147 96.2686 482.497 102.05 485.497C113.109 491.237 105.379 503.718 114.331 509.613C123.043 515.337 133.978 507.369 141.929 504.247C154.369 499.368 163.188 509.597 175.548 508.776C184.863 508.158 194.771 505.865 203.625 503.263C206.361 502.45 210.248 500.897 213.187 501.995C215.604 502.905 216.605 505.588 218.588 507.027C222.59 509.946 222.626 507.206 226.07 507.353C228.168 507.442 232.073 510.296 234.047 511.125C238.776 513.093 243.716 514.467 248.922 513.735C253.597 513.085 257.511 510.646 262.363 511.085C266.701 511.483 270.518 513.646 274.776 514.557C279.212 515.508 283.87 515.093 286.729 518.809C289.155 521.964 288.89 525.241 293.423 526.615C298.833 528.241 305.296 523.931 310.069 525.224C311.698 525.663 312.238 527.972 313.787 528.347C317.258 529.2 318.409 526.289 317.533 523.557C316.09 519.069 308.829 514.711 305.456 511.499C301.073 507.32 296.991 502.401 294.539 497.01C292.786 493.156 292.91 487.294 289.394 484.416C286.437 481.993 280.779 483.188 278.885 479.683C277.512 477.155 278.752 473.691 276.99 470.821C275.131 467.796 271.288 463.95 268.153 461.999C265.329 460.243 261.132 459.682 266.214 456.681C269.836 454.527 272.519 458.511 275.077 456.966C277.742 455.364 273.006 450.331 272.217 448.933C268.897 442.973 268.755 437.281 268.499 430.736C268.33 426.435 266.701 420.483 263.31 417.231C260.548 414.58 255.067 414.767 253.969 410.718C252.756 406.278 259.016 404.384 261.336 401.782C264.302 398.448 265.046 393.017 265.727 388.903C267.339 379.195 267.038 368.925 271.819 359.892C275.414 353.095 281.134 348.753 289.518 347.899C293.556 347.484 298.824 348.517 296.017 343.142C293.742 338.776 287.606 340.565 287.553 334.28C287.517 329.767 290.147 323.1 295.902 327.678C299.293 330.369 296.974 335.003 299.205 338.296C303.809 345.102 316.435 337.524 319.808 332.841C323.137 328.214 323.908 322.279 327.148 317.53C330.309 312.896 335.347 309.538 339.101 305.358C346.185 297.439 341.51 289.203 342.554 280.21C342.794 278.128 344.086 276.185 343.466 274.193C342.705 271.721 339.978 270.567 339.58 267.331C338.34 257.094 346.725 250.231 351.869 242.166C354.747 237.645 356.872 232.742 359.988 228.359C364.221 222.391 370.374 217.879 375.828 212.886C380.981 208.162 385.417 203.024 391.553 199.357C395.909 196.755 400.992 196.674 405.188 194.283C410.917 191.015 410.572 185.112 414.786 181.339C420.851 175.924 430.919 181.81 436.443 177.282C439.87 174.468 432.371 169.354 433.902 164.378C435.532 159.052 440.375 158.743 438.825 152.661C437.187 146.23 434.106 147.311 428.643 149.604C422.224 152.304 415.937 152.198 420.276 144.246C423.277 138.733 428.572 138.563 433.513 135.448C444.908 128.253 446.599 109.43 440.065 98.8353C437.639 94.8918 434.487 94.03 429.608 94.4203C422.171 95.022 416.424 96.9408 409.917 92.2737C403.958 87.9969 401.399 85.8829 393.28 87.0537C389.251 87.6391 382.442 90.1109 378.405 88.1595C375.067 86.5496 375.129 82.7769 374.491 79.8254C373.411 74.8412 372.136 73.3695 367.408 71.1336C364.318 69.67 361.883 67.743 359.032 65.9705C354.419 63.1085 349.868 62.0351 344.963 60.1975C331.602 55.1646 333.249 35.3254 328.237 25.5033C325.374 19.8984 326.564 15.7336 328.956 11.0843C329.306 10.4042 328.815 9.58574 328.051 9.59489C245.616 10.5814 162.929 15.3422 81.108 23.885C80.7252 23.9249 80.4012 24.182 80.2625 24.541C79.3007 27.0311 77.9709 29.1912 76.4354 29.6662" fill="white"/>
<path d="M66.4746 29.6825L58.1965 26.1507L58.1997 26.1433L58.2029 26.1358L66.4746 29.6825ZM73.9032 42.3992L81.6331 37.7896L81.6379 37.7977L81.6427 37.8058L73.9032 42.3992ZM75.8333 84.4843L82.4938 90.5373L82.4938 90.5373L75.8333 84.4843ZM70.1667 94.095L61.2085 93.2282L61.2095 93.2179L70.1667 94.095ZM74.1687 105.316L82.3921 101.658L82.3957 101.666L74.1687 105.316ZM72.9027 122.333L64.4886 119.139L64.4915 119.131L64.4945 119.124L72.9027 122.333ZM61.4542 132.31L58.2706 123.892L58.2711 123.892L61.4542 132.31ZM53.0694 161.711L44.7236 158.342L44.7276 158.333L53.0694 161.711ZM43.5601 173.273L52.3944 174.992L52.3939 174.995L43.5601 173.273ZM52.7418 189.275L45.2353 194.24L45.2311 194.233L52.7418 189.275ZM55.1058 196.487L63.7549 193.998L63.7556 194.001L55.1058 196.487ZM58.8157 202.593L50.8595 206.8L50.8552 206.792L58.8157 202.593ZM56.6907 218.318L63.8192 223.812L63.8166 223.815L56.6907 218.318ZM48.9079 224.652L57.1883 228.178L57.188 228.179L48.9079 224.652ZM49.4569 235.718L40.5686 237.131L40.5674 237.124L40.5662 237.117L49.4569 235.718ZM54.0256 250.589L45.0273 250.417L45.0275 250.406L54.0256 250.589ZM31.1023 282.527L36.1035 290.01L36.0976 290.014L31.1023 282.527ZM21.6107 294.227L30.6007 293.803L30.6011 293.81L30.6014 293.818L21.6107 294.227ZM22.7972 309.351L31.152 312.697L31.1475 312.708L22.7972 309.351ZM11.6322 323.214L18.7776 328.686L18.7774 328.686L11.6322 323.214ZM10.977 338.809L19.4033 335.647L19.4053 335.652L10.977 338.809ZM14.1644 355.509L23.157 355.874L23.1569 355.877L14.1644 355.509ZM19.0519 377.926L12.3003 383.877L12.2985 383.875L19.0519 377.926ZM26.5602 394.895L17.8405 397.124L17.8401 397.122L26.5602 394.895ZM27.3129 413.783L19.3513 417.98L19.3496 417.977L27.3129 413.783ZM43.9585 418.393L46.5382 427.016L46.5302 427.018L43.9585 418.393ZM51.272 404.059L42.7194 401.256L42.7206 401.253L51.272 404.059ZM61.4277 399.205L61.2831 408.203L61.2824 408.203L61.4277 399.205ZM71.3089 397.806L68.4173 406.329L68.4089 406.326L68.4006 406.323L71.3089 397.806ZM74.7886 401.896L81.675 396.101L81.681 396.108L81.6871 396.116L74.7886 401.896ZM83.0849 409.271L88.4715 402.06L88.4774 402.065L88.4832 402.069L83.0849 409.271ZM83.8729 424.353L75.7788 420.418L75.779 420.418L83.8729 424.353ZM85.9978 439.761L94.0638 435.769L94.0645 435.77L85.9978 439.761ZM87.6535 451.144L96.6178 451.945L96.6167 451.958L87.6535 451.144ZM83.5364 462.43L92.4291 463.816L92.4276 463.825L92.4261 463.835L83.5364 462.43ZM88.1051 475.642L80.7031 480.762L80.7002 480.758L88.1051 475.642ZM102.05 485.497L106.196 477.509L106.197 477.509L102.05 485.497ZM114.331 509.613L109.389 517.135L109.381 517.13L114.331 509.613ZM141.929 504.247L138.64 495.869L138.643 495.868L141.929 504.247ZM175.548 508.776L174.952 499.795L174.953 499.795L175.548 508.776ZM203.625 503.263L206.189 511.89L206.175 511.894L206.162 511.898L203.625 503.263ZM213.187 501.995L216.335 493.563L216.348 493.568L216.36 493.572L213.187 501.995ZM218.588 507.027L223.874 499.743L223.883 499.75L223.892 499.756L218.588 507.027ZM226.07 507.353L226.452 498.361L226.453 498.361L226.07 507.353ZM234.047 511.125L230.589 519.435L230.576 519.429L230.562 519.423L234.047 511.125ZM248.922 513.735L247.67 504.823L247.682 504.821L248.922 513.735ZM262.363 511.085L263.174 502.121L263.186 502.122L262.363 511.085ZM274.776 514.557L276.658 505.756L276.664 505.757L274.776 514.557ZM286.729 518.809L293.862 513.32L293.864 513.323L286.729 518.809ZM293.423 526.615L290.832 535.234L290.822 535.231L290.812 535.228L293.423 526.615ZM310.069 525.224L307.727 533.914L307.716 533.911L310.069 525.224ZM313.787 528.347L315.899 519.598L315.918 519.602L315.937 519.607L313.787 528.347ZM317.533 523.557L326.101 520.802L326.102 520.808L317.533 523.557ZM305.456 511.499L299.25 518.018L299.245 518.013L305.456 511.499ZM294.539 497.01L286.347 500.737L286.346 500.737L294.539 497.01ZM289.394 484.416L283.693 491.379L283.691 491.377L289.394 484.416ZM278.885 479.683L286.795 475.39L286.798 475.397L286.802 475.403L278.885 479.683ZM276.99 470.821L284.657 466.108L284.66 466.112L276.99 470.821ZM268.153 461.999L272.906 454.356L272.91 454.359L268.153 461.999ZM266.214 456.681L270.816 464.416L270.803 464.424L270.79 464.432L266.214 456.681ZM275.077 456.966L270.426 449.261L270.433 449.257L270.441 449.252L275.077 456.966ZM272.217 448.933L264.377 453.351L264.366 453.332L264.355 453.313L272.217 448.933ZM268.499 430.736L259.506 431.089L259.506 431.088L268.499 430.736ZM263.31 417.231L257.081 423.726L257.079 423.725L263.31 417.231ZM253.969 410.718L262.651 408.346L262.653 408.354L262.656 408.363L253.969 410.718ZM261.336 401.782L268.06 407.765L268.053 407.771L261.336 401.782ZM265.727 388.903L256.848 387.431L256.849 387.429L265.727 388.903ZM271.819 359.892L279.775 364.099L279.774 364.102L271.819 359.892ZM289.518 347.899L290.438 356.852L290.43 356.853L289.518 347.899ZM296.017 343.142L288.04 347.309L288.036 347.302L296.017 343.142ZM287.553 334.28L278.553 334.356L278.553 334.35L287.553 334.28ZM295.902 327.678L290.307 334.727L290.3 334.721L295.902 327.678ZM299.205 338.296L306.656 333.248L306.659 333.253L299.205 338.296ZM319.808 332.841L327.114 338.097L327.111 338.101L319.808 332.841ZM327.148 317.53L334.584 322.601L334.582 322.604L327.148 317.53ZM339.101 305.358L345.81 311.358L345.803 311.366L345.797 311.373L339.101 305.358ZM342.554 280.21L351.496 281.237L351.494 281.248L342.554 280.21ZM343.466 274.193L334.873 276.867L334.869 276.855L334.865 276.843L343.466 274.193ZM339.58 267.331L330.647 268.43L330.646 268.421L330.645 268.412L339.58 267.331ZM351.869 242.166L359.461 246.998L359.457 247.005L351.869 242.166ZM359.988 228.359L367.33 233.566L367.323 233.575L359.988 228.359ZM375.828 212.886L381.91 219.521L381.905 219.525L375.828 212.886ZM391.553 199.357L386.936 191.631L386.938 191.63L391.553 199.357ZM405.188 194.283L409.649 202.1L409.643 202.104L405.188 194.283ZM414.786 181.339L408.784 174.633L408.792 174.625L414.786 181.339ZM436.443 177.282L442.154 184.237L442.149 184.242L436.443 177.282ZM433.902 164.378L442.509 167.011L442.506 167.018L442.504 167.026L433.902 164.378ZM438.825 152.661L430.104 154.883L430.104 154.883L438.825 152.661ZM428.643 149.604L425.154 141.308L425.16 141.306L428.643 149.604ZM420.276 144.246L428.18 148.55L428.176 148.556L420.276 144.246ZM433.513 135.448L438.318 143.058L438.312 143.062L433.513 135.448ZM440.065 98.8353L432.405 103.56L432.399 103.551L440.065 98.8353ZM429.608 94.4203L428.882 85.4496L428.89 85.4489L429.608 94.4203ZM409.917 92.2737L404.672 99.5874L404.669 99.5854L409.917 92.2737ZM393.28 87.0537L391.985 78.1472L391.995 78.1458L393.28 87.0537ZM378.405 88.1595L382.314 80.053L382.321 80.0563L378.405 88.1595ZM374.491 79.8254L383.287 77.9191L383.288 77.9253L374.491 79.8254ZM367.408 71.1336L363.56 79.2696L363.556 79.2674L367.408 71.1336ZM359.032 65.9705L363.777 58.3229L363.784 58.3273L359.032 65.9705ZM344.963 60.1975L341.805 68.6256L341.798 68.6227L341.79 68.6198L344.963 60.1975ZM328.237 25.5033L336.252 21.4084L336.254 21.413L328.237 25.5033ZM81.108 23.885L82.0426 32.8363L81.108 23.885ZM80.2625 24.541L88.658 27.7838L80.2625 24.541ZM328.956 11.0843L336.959 15.2013L328.956 11.0843ZM328.051 9.59489L327.943 0.595535L328.051 9.59489ZM79.1343 38.252C77.1035 38.8904 75.2996 38.7722 74.2812 38.6429C73.1944 38.5049 72.2343 38.2461 71.5905 38.0556C70.9348 37.8617 70.2689 37.6341 69.8359 37.488C69.3304 37.3174 69.0063 37.2107 68.7278 37.1305C68.4499 37.0504 68.3977 37.0507 68.495 37.0645C68.5777 37.0762 69.059 37.1416 69.7803 37.0308C70.5632 36.9105 71.6547 36.5748 72.7253 35.7633C73.8082 34.9424 74.4294 33.9682 74.7463 33.2292L58.2029 26.1358C58.9381 24.4211 60.1124 22.7372 61.8519 21.4186C63.5792 20.1093 65.4308 19.4879 67.046 19.2397C69.9334 18.7959 72.519 19.4906 73.7107 19.8339C74.4289 20.0408 75.1112 20.2709 75.5907 20.4327C76.1428 20.619 76.4406 20.7193 76.6959 20.7948C76.963 20.8738 76.8613 20.826 76.549 20.7863C76.3052 20.7554 75.1919 20.6229 73.7365 21.0804L79.1343 38.252ZM74.7526 33.2143C75.7858 30.7926 75.2661 28.8252 75.22 28.6361C75.1104 28.1874 75.0095 28.0482 75.1486 28.3313C75.4115 28.8662 75.9561 29.7645 76.8006 30.9941C77.6078 32.1693 78.4916 33.3652 79.3339 34.5048C79.7368 35.0499 80.1529 35.613 80.5078 36.1076C80.8221 36.5458 81.2664 37.1747 81.6331 37.7896L66.1733 47.0088C66.2345 47.1115 66.1885 47.027 65.8823 46.6002C65.6166 46.2299 65.282 45.7766 64.8586 45.2037C64.0482 44.1073 62.9769 42.6607 61.9634 41.1852C60.9874 39.7641 59.8458 38.0036 58.9939 36.27C58.5756 35.4188 58.0601 34.243 57.7335 32.9049C57.4702 31.8265 56.9309 29.1171 58.1965 26.1507L74.7526 33.2143ZM81.6427 37.8058C85.4261 44.1803 88.5755 53.4357 89.5607 62.5952C90.5092 71.4137 89.6911 82.6176 82.4938 90.5373L69.1728 78.4314C71.1307 76.277 72.4287 71.6298 71.664 64.5201C70.9359 57.7514 68.5427 51.0012 66.1637 46.9927L81.6427 37.8058ZM82.4938 90.5373C82.0689 91.0048 81.6644 91.4383 81.3159 91.8118C80.9534 92.2003 80.6634 92.511 80.395 92.8069C79.8548 93.4024 79.5888 93.7363 79.43 93.966C79.3007 94.1529 79.2693 94.2337 79.2539 94.2753C79.2359 94.3241 79.1683 94.5175 79.1238 94.9722L61.2095 93.2179C62.0054 85.0909 66.8653 80.9705 69.1728 78.4314L82.4938 90.5373ZM79.1248 94.9618C79.0673 95.556 79.1203 95.7414 79.1105 95.6939C79.0983 95.6342 79.0831 95.6566 79.2167 95.9135C79.4445 96.3517 79.6538 96.6633 80.3315 97.7803C80.9196 98.7496 81.6728 100.041 82.3921 101.658L65.9454 108.973C65.6774 108.37 65.3714 107.824 64.9424 107.117C64.603 106.558 63.8373 105.354 63.2461 104.217C61.6877 101.219 60.767 97.7907 61.2085 93.2282L79.1248 94.9618ZM82.3957 101.666C84.3735 106.125 84.2481 111.252 83.848 114.833C83.4133 118.723 82.4291 122.614 81.3108 125.543L64.4945 119.124C65.0585 117.646 65.6901 115.243 65.9593 112.834C66.091 111.655 66.1158 110.648 66.0599 109.87C66.0002 109.039 65.8725 108.809 65.9418 108.965L82.3957 101.666ZM81.3167 125.528C79.7352 129.694 77.4157 133.02 74.1679 135.64C71.1379 138.085 67.7089 139.567 64.6374 140.728L58.2711 123.892C60.9194 122.89 62.1387 122.218 62.8651 121.631C63.3738 121.221 63.9186 120.64 64.4886 119.139L81.3167 125.528ZM64.6379 140.728C63.6174 141.114 63.134 141.455 62.9424 141.614C62.78 141.75 62.755 141.811 62.7444 141.832C62.664 141.989 62.3945 142.684 62.4741 144.879C62.5123 145.933 62.6143 147.072 62.7491 148.506C62.8759 149.855 63.0349 151.496 63.1121 153.157C63.2648 156.443 63.1665 160.755 61.4113 165.089L44.7276 158.333C45.0353 157.573 45.2403 156.335 45.1315 153.993C45.0779 152.84 44.9651 151.648 44.8281 150.191C44.6992 148.82 44.5457 147.181 44.4859 145.531C44.3696 142.322 44.5345 137.913 46.7139 133.645C49.0602 129.051 53.0752 125.857 58.2706 123.892L64.6379 140.728ZM61.4152 165.08C59.2942 170.335 54.8972 173.338 53.4961 174.438C51.4879 176.016 52.2343 175.815 52.3944 174.992L34.7259 171.554C35.9573 165.227 40.418 161.822 42.3764 160.284C44.9419 158.268 44.764 158.243 44.7236 158.342L61.4152 165.08ZM52.3939 174.995C52.3545 175.197 52.3662 175.262 52.3635 175.226C52.3626 175.212 52.36 175.192 52.355 175.169C52.3527 175.158 52.3504 175.149 52.3484 175.142C52.3464 175.136 52.3452 175.132 52.3452 175.132C52.3495 175.144 52.4647 175.454 53.1115 176.214C53.8585 177.092 54.6115 177.8 56.0242 179.245C57.2442 180.493 58.8606 182.208 60.2526 184.316L45.2311 194.233C44.8301 193.626 44.2197 192.919 43.1537 191.829C42.2803 190.936 40.6881 189.389 39.4054 187.882C36.4295 184.387 33.2681 179.034 34.7263 171.552L52.3939 174.995ZM60.2483 184.309C61.7587 186.593 62.4809 188.871 62.9101 190.503C63.1189 191.297 63.2973 192.102 63.4206 192.643C63.5599 193.255 63.6563 193.655 63.7549 193.998L46.4567 198.975C46.2055 198.102 46.0131 197.268 45.8705 196.643C45.7119 195.946 45.6152 195.512 45.5019 195.081C45.2871 194.264 45.177 194.152 45.2353 194.24L60.2483 184.309ZM63.7556 194.001C63.7198 193.876 63.6475 193.866 64.0449 194.395C64.1627 194.552 64.2867 194.711 64.4744 194.953C64.6446 195.171 64.8738 195.466 65.1082 195.782C65.5847 196.423 66.2013 197.304 66.7762 198.394L50.8552 206.792C50.8813 206.841 50.8592 206.785 50.6617 206.519C50.5591 206.381 50.4424 206.23 50.2646 206.002C50.1044 205.796 49.8784 205.506 49.6508 205.203C48.6669 203.892 47.2886 201.87 46.456 198.973L63.7556 194.001ZM66.7719 198.386C68.0504 200.804 68.4597 203.398 68.6003 205.32C68.7524 207.4 68.6459 209.557 68.373 211.587C67.8772 215.276 66.6032 220.2 63.8192 223.812L49.5622 212.824C49.4297 212.996 49.624 212.783 49.9102 211.94C50.1696 211.176 50.3958 210.214 50.5334 209.189C50.6722 208.157 50.6942 207.262 50.6482 206.632C50.5906 205.845 50.4754 206.073 50.8595 206.8L66.7719 198.386ZM63.8166 223.815C62.4598 225.574 60.893 226.742 59.7584 227.488C58.72 228.17 57.4692 228.848 56.9987 229.116C56.2961 229.516 56.1676 229.628 56.206 229.596C56.3161 229.503 56.8195 229.044 57.1883 228.178L40.6275 221.125C42.6117 216.466 46.7292 214.25 48.0886 213.476C49.1488 212.872 49.4713 212.709 49.8736 212.445C50.1797 212.244 49.9211 212.359 49.5649 212.82L63.8166 223.815ZM57.188 228.179C57.4908 227.468 57.4423 227.114 57.4257 227.516C57.4124 227.837 57.4303 228.373 57.517 229.156C57.6013 229.919 57.7306 230.746 57.8845 231.639C58.0134 232.388 58.2237 233.532 58.3475 234.319L40.5662 237.117C40.4458 236.351 39.8782 233.416 39.626 231.134C39.3994 229.085 39.0256 224.886 40.6279 221.125L57.188 228.179ZM58.3452 234.304C58.5258 235.44 59.0371 236.527 60.3405 239.526C61.396 241.954 63.1207 246.003 63.0238 250.772L45.0275 250.406C45.0368 249.948 44.8844 249.121 43.8326 246.702C43.0288 244.852 41.2025 241.118 40.5686 237.131L58.3452 234.304ZM63.024 250.761C62.8505 259.841 58.3344 268.015 53.3374 274.3C48.2304 280.723 41.8245 286.186 36.1035 290.01L26.1012 275.045C30.5624 272.063 35.4986 267.813 39.2479 263.098C43.1073 258.243 44.9617 253.851 45.0273 250.417L63.024 250.761ZM36.0976 290.014C34.6618 290.972 33.7865 291.516 32.7365 292.249C31.7876 292.911 31.201 293.39 30.8231 293.765C30.4674 294.119 30.4561 294.226 30.5142 294.097C30.5996 293.908 30.5983 293.752 30.6007 293.803L12.6208 294.652C12.3323 288.541 15.0469 284.065 18.138 280.995C20.7618 278.389 24.3178 276.234 26.1071 275.041L36.0976 290.014ZM30.6014 293.818C30.6754 295.441 31.0648 296.037 31.8913 299.836C32.5771 302.987 33.2063 307.567 31.152 312.697L14.4423 306.005C14.5307 305.784 14.6863 305.425 14.3029 303.663C14.2032 303.205 14.0827 302.716 13.9289 302.105C13.7852 301.535 13.6009 300.814 13.4324 300.09C13.0912 298.623 12.7162 296.746 12.6201 294.637L30.6014 293.818ZM31.1475 312.708C29.4236 316.996 26.4974 320.353 24.2923 322.713C21.6625 325.528 20.1558 326.886 18.7776 328.686L4.48668 317.742C6.57042 315.021 9.58376 312.09 11.1397 310.425C13.1205 308.305 14.0457 306.991 14.4469 305.993L31.1475 312.708ZM18.7774 328.686C18.316 329.289 18.1547 329.673 18.0913 329.863C18.0318 330.042 17.9932 330.244 18.001 330.569C18.022 331.444 18.3341 332.798 19.4033 335.647L2.55065 341.971C1.45052 339.039 0.106892 335.185 0.00619912 331.002C-0.106005 326.341 1.30521 321.896 4.48691 317.742L18.7774 328.686ZM19.4053 335.652C21.8048 342.059 23.483 347.822 23.157 355.874L5.17178 355.145C5.35936 350.512 4.55846 347.332 2.54865 341.965L19.4053 335.652ZM23.1569 355.877C22.775 365.212 22.6875 368.438 25.8053 371.977L12.2985 383.875C3.56954 373.966 4.86326 362.686 5.17194 355.142L23.1569 355.877ZM25.8035 371.975C31.9875 378.991 33.6935 386.456 35.2802 392.668L17.8401 397.122C16.1331 390.439 15.2184 387.188 12.3003 383.877L25.8035 371.975ZM35.2799 392.667C35.9559 395.312 35.9996 397.888 35.9198 399.914C35.8419 401.893 35.6017 404.026 35.4647 405.472C35.3071 407.135 35.2442 408.239 35.2872 409.088C35.3296 409.924 35.4563 409.932 35.2761 409.589L19.3496 417.977C16.5922 412.741 17.2704 406.672 17.545 403.774C17.9478 399.522 18.0804 398.062 17.8405 397.124L35.2799 392.667ZM35.2744 409.586C34.9701 409.009 34.6768 408.911 34.9521 409.079C35.2282 409.247 35.7996 409.506 36.6919 409.711C37.5622 409.911 38.528 410.012 39.4497 410.001C40.3969 409.99 41.0634 409.865 41.3868 409.769L46.5302 427.018C42.2452 428.296 37.1193 428.28 32.6537 427.252C28.4694 426.289 22.4425 423.844 19.3513 417.98L35.2744 409.586ZM41.3788 409.771C41.9075 409.613 41.6288 409.592 41.2259 410.05C40.8756 410.449 40.8894 410.701 41.0131 410.219C41.179 409.573 41.2649 408.852 41.4918 407.133C41.6823 405.691 41.9824 403.506 42.7194 401.256L59.8246 406.861C59.6586 407.368 59.5237 408.075 59.337 409.489C59.1868 410.626 58.9534 412.726 58.4474 414.696C57.8994 416.83 56.8888 419.493 54.7515 421.927C52.5614 424.421 49.7327 426.06 46.5382 427.016L41.3788 409.771ZM42.7206 401.253C44.0993 397.051 46.7094 392.288 52.5731 390.623C54.7757 389.998 56.85 390.024 58.06 390.06C60.0028 390.119 59.9408 390.179 61.5729 390.206L61.2824 408.203C60.4338 408.19 59.6653 408.154 59.0332 408.123C58.3491 408.088 57.9254 408.065 57.5153 408.052C57.1274 408.04 56.9712 408.048 56.9377 408.05C56.9148 408.052 57.1338 408.04 57.4903 407.938C57.8747 407.829 58.3531 407.635 58.844 407.314C59.3332 406.994 59.6822 406.647 59.9046 406.375C60.1118 406.121 60.1722 405.978 60.1312 406.061C60.0887 406.146 59.9792 406.39 59.8234 406.865L42.7206 401.253ZM61.5722 390.206C61.2824 390.201 61.3208 390.244 61.9619 390.102C62.6377 389.952 63.1969 389.79 64.3386 389.495C65.2696 389.255 66.6447 388.914 68.0941 388.741C69.4671 388.578 71.7559 388.448 74.2172 389.289L68.4006 406.323C69.6356 406.745 70.4557 406.587 70.2206 406.615C70.0618 406.634 69.6893 406.704 68.8362 406.924C68.1938 407.09 66.9324 407.437 65.8539 407.676C64.7408 407.922 63.0914 408.232 61.2831 408.203L61.5722 390.206ZM74.2005 389.283C78.0646 390.594 80.0753 393.478 80.8725 394.703C81.2553 395.292 81.7049 396.074 81.7834 396.205C81.986 396.545 81.9122 396.383 81.675 396.101L67.9022 407.69C67.4969 407.209 67.1721 406.753 66.9264 406.385C66.6813 406.018 66.4738 405.676 66.3229 405.423C66.2461 405.294 66.173 405.17 66.1138 405.069C66.05 404.96 66.0027 404.88 65.9549 404.799C65.86 404.639 65.8108 404.56 65.7827 404.517C65.7102 404.405 65.8629 404.667 66.2388 405.027C66.6612 405.432 67.3844 405.978 68.4173 406.329L74.2005 389.283ZM81.6871 396.116C83.4859 398.262 85.335 399.717 88.4715 402.06L77.6983 416.481C74.566 414.14 71.1735 411.595 67.89 407.676L81.6871 396.116ZM88.4832 402.069C90.7018 403.732 92.8168 405.777 94.2726 408.404C95.8378 411.228 96.3385 414.18 96.0722 417.028C95.83 419.618 94.973 421.876 94.2568 423.52C93.5749 425.084 92.6114 426.963 91.9668 428.289L75.779 420.418C76.1704 419.613 76.6392 418.674 76.9394 418.063C77.2844 417.36 77.5467 416.808 77.7551 416.33C78.2059 415.295 78.1734 415.106 78.1504 415.352C78.1336 415.532 78.1297 415.839 78.2052 416.219C78.2818 416.604 78.4112 416.917 78.5283 417.128C78.7296 417.491 78.7218 417.248 77.6865 416.472L88.4832 402.069ZM91.9671 428.288C91.3176 429.624 91.1877 430.229 91.1654 430.365C91.1579 430.411 91.1691 430.363 91.1634 430.255C91.1577 430.145 91.1398 430.069 91.1364 430.056C91.1364 430.055 91.1431 430.081 91.1633 430.137C91.1838 430.194 91.217 430.279 91.2696 430.4C91.3807 430.655 91.5453 430.992 91.8107 431.497C92.2367 432.306 93.2305 434.085 94.0638 435.769L77.9318 443.754C77.1935 442.262 76.6976 441.429 75.8827 439.881C75.2018 438.587 74.3076 436.801 73.7472 434.705C72.4108 429.706 73.486 425.134 75.7788 420.418L91.9671 428.288ZM94.0645 435.77C96.8192 441.338 97.026 447.378 96.6178 451.945L78.6892 450.343C78.9539 447.382 78.6118 445.128 77.9311 443.752L94.0645 435.77ZM96.6167 451.958C96.2529 455.967 94.5877 459.186 93.7258 460.897C92.6415 463.049 92.4817 463.479 92.4291 463.816L74.6438 461.044C75.2199 457.348 76.9282 454.232 77.6501 452.799C78.5944 450.925 78.6734 450.517 78.6903 450.331L96.6167 451.958ZM92.4261 463.835C92.4698 463.559 92.4083 463.61 92.5003 464.105C92.5872 464.573 92.7703 465.219 93.084 466.017C93.7222 467.639 94.6711 469.313 95.51 470.527L80.7002 480.758C79.2193 478.614 77.5607 475.726 76.333 472.605C75.1983 469.72 73.9485 465.443 74.6468 461.025L92.4261 463.835ZM95.5071 470.523C97.6913 473.681 99.1717 473.864 106.196 477.509L97.9049 493.486C93.3655 491.13 86.1334 488.613 80.7031 480.762L95.5071 470.523ZM106.197 477.509C110.73 479.862 113.72 483.19 115.524 487.037C117.164 490.533 117.629 494.11 117.912 496.387C118.62 502.079 118.891 501.84 119.281 502.097L109.381 517.13C100.819 511.491 100.48 502.064 100.05 498.608C99.7639 496.31 99.5284 495.321 99.2271 494.679C99.0904 494.387 98.8999 494.002 97.9039 493.485L106.197 477.509ZM119.273 502.091C120.119 502.647 121.593 503.085 125.472 501.742C127.347 501.094 129.324 500.186 131.586 499.097C133.657 498.101 136.251 496.807 138.64 495.869L145.219 512.624C143.632 513.247 141.877 514.121 139.39 515.318C137.093 516.422 134.301 517.734 131.359 518.752C125.605 520.744 117.255 522.303 109.389 517.135L119.273 502.091ZM138.643 495.868C148.002 492.198 155.965 494.486 161.725 496.489C168.003 498.672 171.081 500.053 174.952 499.795L176.145 517.756C167.655 518.32 160.144 514.997 155.813 513.49C150.963 511.804 148.297 511.417 145.215 512.625L138.643 495.868ZM174.953 499.795C183.327 499.24 192.52 497.146 201.087 494.628L206.162 511.898C197.021 514.584 186.399 517.076 176.144 517.756L174.953 499.795ZM201.061 494.636C201.776 494.423 204.326 493.556 206.482 493.104C208.717 492.635 212.463 492.117 216.335 493.563L210.039 510.426C210.303 510.525 210.52 510.572 210.664 510.594C210.736 510.605 210.791 510.61 210.826 510.613C210.862 510.615 210.881 510.615 210.881 510.615C210.881 510.615 210.865 510.615 210.833 510.618C210.8 510.62 210.754 510.624 210.692 510.632C210.566 510.647 210.397 510.674 210.177 510.72C209.721 510.816 209.181 510.963 208.488 511.175C208.142 511.281 207.804 511.388 207.412 511.512C207.043 511.629 206.614 511.764 206.189 511.89L201.061 494.636ZM216.36 493.572C219.928 494.917 222.055 497.455 222.977 498.566C223.662 499.392 223.683 499.451 224.015 499.829C224.208 500.049 224.14 499.936 223.874 499.743L213.302 514.312C212.044 513.399 211.108 512.412 210.48 511.695C210.162 511.332 209.878 510.986 209.662 510.72C209.412 510.413 209.286 510.255 209.124 510.059C208.445 509.241 208.864 509.983 210.014 510.417L216.36 493.572ZM223.892 499.756C224.447 500.161 224.122 499.804 223.156 499.561C222.609 499.423 221.964 499.349 221.268 499.391C220.59 499.431 220.069 499.57 219.786 499.661C219.573 499.73 219.439 499.793 219.729 499.67C219.92 499.589 220.452 499.359 221.063 499.147C221.723 498.918 222.529 498.688 223.474 498.534C224.421 498.379 225.412 498.317 226.452 498.361L225.688 516.345C226.088 516.362 228.807 515.669 225.291 516.799C223.562 517.354 221.335 517.663 218.766 517.017C216.56 516.463 214.73 515.353 213.285 514.299L223.892 499.756ZM226.453 498.361C228.617 498.453 230.453 499.16 231.434 499.576C232.575 500.059 233.654 500.636 234.489 501.101C235.239 501.52 236.259 502.117 236.72 502.38C237.413 502.775 237.599 502.855 237.533 502.828L230.562 519.423C229.509 518.981 228.466 518.394 227.806 518.018C226.914 517.509 226.457 517.232 225.722 516.822C225.071 516.459 224.657 516.254 224.414 516.151C224.303 516.104 224.335 516.124 224.481 516.166C224.605 516.201 225.038 516.317 225.687 516.345L226.453 498.361ZM237.505 502.816C241.667 504.548 244.82 505.224 247.67 504.823L250.175 522.648C242.612 523.711 235.884 521.638 230.589 519.435L237.505 502.816ZM247.682 504.821C249.149 504.617 250.202 504.199 253.043 503.365C255.498 502.645 259.017 501.745 263.174 502.121L261.552 520.048C260.857 519.985 259.992 520.085 258.109 520.638C256.612 521.077 253.37 522.203 250.163 522.65L247.682 504.821ZM263.186 502.122C266.524 502.429 269.446 503.395 271.551 504.126C273.935 504.954 275.229 505.45 276.658 505.756L272.894 523.358C270.065 522.753 267.321 521.712 265.648 521.131C263.696 520.453 262.541 520.139 261.54 520.047L263.186 502.122ZM276.664 505.757C277.387 505.912 278.165 506.021 279.347 506.185C280.399 506.33 281.878 506.532 283.37 506.877C286.539 507.609 290.677 509.182 293.862 513.32L279.597 524.298C279.922 524.72 280.301 524.642 279.318 524.415C278.734 524.28 278.038 524.175 276.879 524.015C275.851 523.873 274.384 523.677 272.889 523.357L276.664 505.757ZM293.864 513.323C294.978 514.772 295.715 516.151 296.207 517.134C296.392 517.503 296.708 518.156 296.79 518.322C296.941 518.629 297.021 518.778 297.071 518.864C297.146 518.992 297 518.71 296.615 518.385C296.211 518.043 295.916 517.966 296.034 518.002L290.812 535.228C288.663 534.576 286.702 533.574 284.997 532.133C283.311 530.708 282.23 529.152 281.501 527.895C280.919 526.893 280.266 525.499 280.115 525.199C279.834 524.637 279.693 524.423 279.595 524.295L293.864 513.323ZM296.014 517.996C295.985 517.987 296.526 518.121 299.83 517.306C301.085 516.997 303.022 516.493 304.928 516.217C306.879 515.935 309.556 515.761 312.422 516.537L307.716 533.911C308.196 534.041 308.274 533.921 307.503 534.032C306.685 534.15 305.774 534.38 304.14 534.783C301.667 535.393 296.271 536.868 290.832 535.234L296.014 517.996ZM312.411 516.534C314.679 517.146 316.275 518.345 317.265 519.269C318.163 520.109 318.851 521.015 319.04 521.256C319.407 521.725 319.242 521.482 318.941 521.2C318.544 520.827 317.528 519.991 315.899 519.598L311.676 537.095C309.273 536.515 307.608 535.25 306.622 534.325C305.734 533.491 305.041 532.574 304.876 532.363C304.533 531.926 304.684 532.149 304.974 532.42C305.355 532.777 306.273 533.522 307.727 533.914L312.411 516.534ZM315.937 519.607C315.564 519.515 314.494 519.341 313.095 519.811C311.608 520.31 310.429 521.315 309.696 522.467C308.427 524.462 308.878 526.042 308.963 526.307L326.102 520.808C327.064 523.805 327.378 528.206 324.885 532.126C323.54 534.241 321.477 535.984 318.825 536.874C316.262 537.735 313.747 537.605 311.638 537.086L315.937 519.607ZM308.965 526.313C309.117 526.785 309.223 526.723 308.684 526.096C308.189 525.519 307.442 524.801 306.394 523.911C305.34 523.017 304.243 522.164 302.984 521.169C301.842 520.267 300.438 519.149 299.25 518.018L311.662 504.981C312.16 505.456 312.929 506.087 314.142 507.045C315.238 507.911 316.679 509.031 318.043 510.189C320.351 512.148 324.503 515.833 326.101 520.802L308.965 526.313ZM299.245 518.013C294.419 513.411 289.456 507.573 286.347 500.737L302.731 493.283C304.526 497.229 307.727 501.23 311.667 504.986L299.245 518.013ZM286.346 500.737C285.569 499.028 285.092 497.313 284.769 496.045C284.341 494.368 284.268 493.904 283.943 492.709C283.384 490.656 283.12 490.91 283.693 491.379L295.096 477.452C299.184 480.799 300.615 485.424 301.312 487.985C301.614 489.097 302.059 491.002 302.211 491.597C302.467 492.602 302.632 493.066 302.731 493.284L286.346 500.737ZM283.691 491.377C284.291 491.87 284.698 491.916 284.261 491.79C283.672 491.618 283.291 491.569 281.818 491.247C280.079 490.867 274.08 489.72 270.968 483.964L286.802 475.403C286.191 474.274 285.311 473.697 284.913 473.5C284.697 473.392 284.746 473.462 285.664 473.663C286.212 473.783 287.919 474.108 289.281 474.504C290.796 474.944 293.019 475.75 295.098 477.454L283.691 491.377ZM270.975 483.977C269.947 482.083 269.542 480.256 269.349 478.917C269.172 477.685 269.125 476.401 269.096 475.858C269.011 474.249 268.877 474.808 269.32 475.529L284.66 466.112C286.865 469.704 286.992 473.43 287.071 474.903C287.124 475.9 287.134 476.136 287.166 476.354C287.182 476.465 287.136 476.02 286.795 475.39L270.975 483.977ZM269.323 475.534C268.215 473.732 265.382 470.875 263.397 469.639L272.91 454.359C277.194 457.025 282.046 461.861 284.657 466.108L269.323 475.534ZM263.401 469.642C263.201 469.517 262.989 469.42 262.003 468.94C261.574 468.731 259.579 467.825 257.993 466.305C257.062 465.413 255.643 463.739 255.07 461.199C254.448 458.441 255.11 455.97 256.097 454.181C257.656 451.357 260.304 449.719 261.639 448.931L270.79 464.432C270.404 464.659 270.358 464.719 270.493 464.606C270.573 464.539 271.247 463.983 271.855 462.881C272.566 461.594 273.156 459.577 272.629 457.24C272.152 455.12 270.993 453.832 270.445 453.308C270.146 453.021 269.893 452.831 269.75 452.73C269.603 452.626 269.504 452.568 269.485 452.557C269.474 452.55 269.556 452.597 269.885 452.758C270.322 452.971 271.694 453.602 272.906 454.356L263.401 469.642ZM261.612 448.947C264.144 447.441 266.79 446.904 269.288 447.049C271.518 447.178 273.344 447.85 274.165 448.153C274.763 448.374 274.809 448.399 275.057 448.485C275.209 448.538 275.059 448.475 274.747 448.418C273.912 448.265 272.172 448.207 270.426 449.261L279.729 464.671C276.704 466.497 273.668 466.521 271.497 466.122C270.517 465.942 269.689 465.676 269.15 465.488C268.706 465.334 268.047 465.082 267.923 465.036C267.301 464.807 267.618 464.983 268.247 465.019C269.143 465.071 270.096 464.845 270.816 464.416L261.612 448.947ZM270.441 449.252C269.285 449.947 268.141 451.106 267.461 452.717C266.828 454.216 266.841 455.522 266.923 456.247C267.003 456.953 267.178 457.39 267.211 457.471C267.255 457.579 267.257 457.561 267.162 457.397C266.955 457.041 266.628 456.57 266.137 455.907C265.952 455.657 265.621 455.215 265.398 454.908C265.206 454.644 264.76 454.032 264.377 453.351L280.058 444.515C279.893 444.221 279.763 444.06 280.606 445.199C281.141 445.922 281.98 447.072 282.723 448.349C283.358 449.442 284.51 451.588 284.808 454.216C284.972 455.66 284.924 457.633 284.043 459.719C283.115 461.918 281.536 463.585 279.714 464.68L270.441 449.252ZM264.355 453.313C259.829 445.187 259.75 437.318 259.506 431.089L277.492 430.383C277.761 437.245 277.966 440.758 280.08 444.553L264.355 453.313ZM259.506 431.088C259.456 429.816 259.17 428.139 258.619 426.566C258.043 424.922 257.407 424.039 257.081 423.726L269.54 410.735C272.605 413.675 274.478 417.393 275.607 420.614C276.76 423.905 277.373 427.354 277.492 430.384L259.506 431.088ZM257.079 423.725C257.457 424.087 257.655 424.103 257.111 423.856C256.861 423.742 256.558 423.617 256.095 423.432C255.691 423.271 255.073 423.028 254.483 422.776C252.366 421.873 247.016 419.464 245.283 413.073L262.656 408.363C262.379 407.343 261.763 406.572 261.268 406.159C260.948 405.893 260.843 405.92 261.548 406.221C261.884 406.364 262.219 406.495 262.765 406.714C263.253 406.908 263.899 407.168 264.568 407.473C265.863 408.062 267.783 409.049 269.541 410.737L257.079 423.725ZM245.287 413.09C244.342 409.632 244.872 406.315 246.353 403.556C247.659 401.126 249.51 399.483 250.728 398.515C251.911 397.575 253.355 396.634 253.947 396.228C254.871 395.595 254.85 395.533 254.618 395.793L268.053 407.771C267.299 408.618 266.519 409.289 265.891 409.787C265.256 410.289 264.626 410.731 264.124 411.075C262.927 411.895 262.448 412.193 261.928 412.607C261.442 412.992 261.811 412.818 262.211 412.073C262.447 411.634 262.681 411.021 262.774 410.271C262.868 409.514 262.788 408.847 262.651 408.346L245.287 413.09ZM254.612 395.8C254.79 395.599 255.245 394.906 255.723 393.205C256.199 391.507 256.47 389.713 256.848 387.431L274.606 390.374C274.303 392.207 273.861 395.186 273.054 398.065C272.247 400.942 270.847 404.631 268.06 407.765L254.612 395.8ZM256.849 387.429C257.207 385.27 257.468 383.028 257.741 380.555C258.007 378.154 258.289 375.486 258.681 372.832C259.468 367.491 260.781 361.508 263.864 355.682L279.774 364.102C278.076 367.31 277.149 370.978 276.488 375.457C276.156 377.712 275.913 379.996 275.632 382.534C275.359 384.999 275.053 387.682 274.606 390.376L256.849 387.429ZM263.863 355.685C268.76 346.424 277.013 340.126 288.607 338.945L290.43 356.853C285.254 357.38 282.067 359.765 279.775 364.099L263.863 355.685ZM288.599 338.946C289.951 338.807 291.629 338.772 292.23 338.746C293.306 338.698 293.151 338.632 292.619 338.8C292.266 338.912 291.358 339.242 290.381 340.084C289.281 341.033 288.397 342.377 288.01 343.962C287.659 345.404 287.847 346.511 287.957 346.97C288.066 347.426 288.174 347.567 288.04 347.309L303.995 338.976C304.93 340.766 306.471 344.235 305.497 348.227C304.274 353.245 300.241 355.268 298.05 355.961C296.047 356.595 293.993 356.685 293.034 356.728C291.599 356.792 291.105 356.783 290.438 356.852L288.599 338.946ZM288.036 347.302C288.65 348.48 290.511 349.218 287.028 347.53C285.796 346.933 283.428 345.707 281.51 343.274C279.417 340.619 278.58 337.499 278.553 334.356L296.552 334.204C296.553 334.259 296.558 334.01 296.42 333.574C296.273 333.109 296.017 332.601 295.646 332.131C294.964 331.266 294.282 331.044 294.876 331.331C295.284 331.529 295.363 331.552 296.142 331.913C296.719 332.181 297.542 332.577 298.416 333.108C300.277 334.239 302.464 336.038 303.999 338.983L288.036 347.302ZM278.553 334.35C278.526 330.949 279.386 325.743 282.622 321.833C284.462 319.608 287.506 317.361 291.723 317.154C295.736 316.957 299.077 318.703 301.505 320.634L290.3 334.721C289.85 334.364 290.704 335.226 292.606 335.133C294.713 335.029 296.022 333.873 296.49 333.307C296.865 332.854 296.823 332.687 296.702 333.119C296.6 333.485 296.55 333.909 296.552 334.209L278.553 334.35ZM301.497 320.628C306.489 324.59 306.835 330.097 306.97 332.183C307.062 333.61 307.051 333.826 307.113 334.214C307.138 334.372 307.085 333.882 306.656 333.248L291.754 343.345C290.209 341.064 289.609 338.761 289.336 337.039C289.099 335.548 289.038 333.819 289.007 333.34C288.896 331.612 288.707 333.457 290.307 334.727L301.497 320.628ZM306.659 333.253C306.453 332.948 306.093 332.587 305.604 332.318C305.146 332.067 304.799 332.019 304.717 332.012C304.691 332.009 305.328 332.029 306.682 331.498C307.94 331.005 309.306 330.233 310.507 329.356C311.094 328.928 311.581 328.519 311.95 328.169C312.133 327.995 312.271 327.851 312.37 327.741C312.472 327.628 312.511 327.573 312.506 327.581L327.111 338.101C324.207 342.133 318.656 346.137 313.254 348.255C310.455 349.354 306.861 350.285 303.067 349.936C298.934 349.555 294.642 347.614 291.75 343.34L306.659 333.253ZM312.503 327.584C313.379 326.366 314.036 324.818 315.103 322.022C316.036 319.578 317.39 315.863 319.714 312.457L334.582 322.604C333.666 323.945 333.014 325.573 331.92 328.441C330.96 330.956 329.567 334.689 327.114 338.097L312.503 327.584ZM319.713 312.459C321.924 309.218 324.646 306.627 326.83 304.63C329.254 302.415 330.919 301 332.406 299.344L345.797 311.373C343.53 313.896 340.798 316.25 338.974 317.917C336.911 319.802 335.534 321.208 334.584 322.601L319.713 312.459ZM332.393 299.358C333.829 297.753 334.202 296.353 334.098 293.516C334.032 291.689 333.826 290.247 333.602 287.569C333.404 285.21 333.25 282.309 333.615 279.171L351.494 281.248C351.336 282.607 351.375 284.108 351.539 286.069C351.676 287.712 352 290.511 352.086 292.857C352.288 298.366 351.457 305.044 345.81 311.358L332.393 299.358ZM333.613 279.183C333.756 277.941 334.035 276.882 334.234 276.191C334.333 275.846 334.437 275.506 334.504 275.287C334.581 275.035 334.625 274.888 334.659 274.766C334.828 274.156 334.382 275.289 334.873 276.867L352.06 271.519C353.171 275.089 352.388 278.19 352.006 279.57C351.902 279.945 351.795 280.297 351.719 280.546C351.633 280.828 351.582 280.992 351.536 281.153C351.444 281.473 351.473 281.437 351.496 281.237L333.613 279.183ZM334.865 276.843C335.068 277.502 335.345 277.868 335.32 277.833C335.162 277.616 335.151 277.632 334.444 276.776C333.323 275.416 331.169 272.667 330.647 268.43L348.512 266.231C348.389 265.23 347.797 264.676 348.329 265.321C348.45 265.467 349.288 266.438 349.868 267.233C350.581 268.211 351.484 269.648 352.068 271.543L334.865 276.843ZM330.645 268.412C329.666 260.334 332.636 253.906 335.769 249.053C337.299 246.682 339.03 244.447 340.47 242.574C341.997 240.589 343.242 238.955 344.281 237.326L359.457 247.005C357.924 249.409 356.192 251.658 354.738 253.548C353.198 255.55 351.946 257.182 350.892 258.815C348.856 261.969 348.253 264.091 348.514 266.249L330.645 268.412ZM344.277 237.333C345.513 235.391 346.582 233.378 347.945 230.888C349.238 228.526 350.764 225.801 352.654 223.144L367.323 233.575C366.096 235.301 365.001 237.218 363.733 239.533C362.535 241.721 361.103 244.42 359.461 246.998L344.277 237.333ZM352.647 223.153C355.311 219.396 358.455 216.271 361.397 213.596C362.871 212.257 364.374 210.962 365.763 209.761C367.184 208.533 368.497 207.396 369.752 206.248L381.905 219.525C380.432 220.873 378.931 222.172 377.532 223.381C376.101 224.617 374.778 225.759 373.503 226.918C370.947 229.24 368.897 231.355 367.33 233.566L352.647 223.153ZM369.747 206.252C373.908 202.438 379.751 195.925 386.936 191.631L396.17 207.082C391.084 210.122 388.055 213.887 381.91 219.521L369.747 206.252ZM386.938 191.63C390.307 189.618 393.804 188.68 396.041 188.064C398.642 187.347 399.799 186.996 400.734 186.463L409.643 202.104C406.381 203.961 402.899 204.845 400.82 205.418C398.378 206.09 397.155 206.494 396.168 207.083L386.938 191.63ZM400.728 186.466C401.19 186.202 401.542 185.937 402.476 184.034C403.223 182.512 405.033 177.99 408.784 174.633L420.789 188.045C420.325 188.46 420.2 188.776 418.634 191.966C417.255 194.774 414.915 199.095 409.649 202.1L400.728 186.466ZM408.792 174.625C415.006 169.077 422.955 169.798 426.336 169.993C428.614 170.124 429.769 170.195 430.744 170.104C431.537 170.03 431.237 169.912 430.738 170.321L442.149 184.242C438.887 186.916 435.257 187.76 432.419 188.026C429.763 188.274 426.987 188.06 425.299 187.963C420.749 187.7 420.631 188.185 420.78 188.052L408.792 174.625ZM430.733 170.326C429.955 170.964 429.086 172.035 428.636 173.533C428.214 174.936 428.354 176.072 428.464 176.603C428.565 177.092 428.689 177.302 428.588 177.086C428.494 176.884 428.338 176.59 428.022 176.022C427.531 175.142 426.397 173.203 425.653 171.108C424.858 168.867 424.14 165.501 425.301 161.73L442.504 167.026C442.899 165.742 442.544 164.883 442.617 165.088C442.741 165.439 442.981 165.888 443.745 167.26C444.213 168.1 445.56 170.398 446.09 172.954C446.397 174.438 446.548 176.473 445.874 178.714C445.173 181.049 443.789 182.896 442.154 184.237L430.733 170.326ZM425.296 161.745C426.783 156.883 430.311 153.448 430.569 153.13C430.837 152.799 430.464 153.172 430.251 153.96C430.021 154.81 430.2 155.263 430.104 154.883L447.547 150.44C448.225 153.101 448.38 155.874 447.627 158.658C446.891 161.381 445.495 163.304 444.542 164.477C442.359 167.165 442.65 166.547 442.509 167.011L425.296 161.745ZM430.104 154.883C429.985 154.418 429.899 154.205 429.882 154.165C429.864 154.123 429.959 154.359 430.242 154.718C430.545 155.102 431.036 155.593 431.751 156.015C432.474 156.442 433.208 156.669 433.842 156.763C434.439 156.852 434.858 156.811 435.001 156.792C435.139 156.774 435.119 156.763 434.884 156.834C434.335 156.998 433.55 157.305 432.126 157.903L425.16 141.306C426.467 140.757 428.116 140.069 429.733 139.587C431.295 139.12 433.739 138.549 436.495 138.959C439.686 139.435 442.416 141.084 444.38 143.578C446.098 145.757 446.995 148.275 447.547 150.44L430.104 154.883ZM432.132 157.901C430.073 158.766 427.808 159.503 425.546 159.893C423.516 160.243 420.395 160.513 417.281 159.352C415.577 158.717 413.7 157.58 412.214 155.666C410.707 153.724 410.024 151.525 409.874 149.475C409.604 145.783 411.022 142.415 412.375 139.935L428.176 148.556C428.014 148.854 427.904 149.083 427.833 149.247C427.761 149.412 427.737 149.49 427.737 149.489C427.738 149.487 427.746 149.459 427.758 149.407C427.77 149.355 427.786 149.275 427.801 149.167C427.83 148.957 427.859 148.611 427.826 148.16C427.756 147.197 427.403 145.878 426.434 144.629C425.487 143.409 424.358 142.781 423.57 142.487C422.287 142.008 421.67 142.296 422.489 142.155C423.075 142.054 424.003 141.792 425.154 141.308L432.132 157.901ZM412.372 139.942C415.102 134.927 418.992 132.422 422.247 130.847C423.606 130.189 425.316 129.491 426.184 129.112C427.27 128.638 428.046 128.255 428.714 127.835L438.312 143.062C436.509 144.199 434.771 145.005 433.381 145.611C431.773 146.312 431.045 146.586 430.088 147.049C428.709 147.716 428.451 148.052 428.18 148.55L412.372 139.942ZM428.707 127.839C431.524 126.06 433.832 122.326 434.61 117.093C435.39 111.851 434.357 106.725 432.405 103.56L447.725 94.1107C452.307 101.54 453.696 111.123 452.414 119.74C451.132 128.365 446.897 137.641 438.318 143.058L428.707 127.839ZM432.399 103.551C432.172 103.181 432.069 103.114 432.138 103.174C432.228 103.254 432.371 103.343 432.502 103.394C432.605 103.434 432.543 103.388 432.189 103.358C431.816 103.326 431.23 103.319 430.326 103.392L428.89 85.4489C431.857 85.2116 435.453 85.2321 439.01 86.6114C442.866 88.1067 445.685 90.7948 447.73 94.1194L432.399 103.551ZM430.334 103.391C425.253 103.802 414.634 106.732 404.672 99.5874L415.162 84.9601C416.65 86.0273 417.822 86.3082 419.494 86.3232C420.507 86.3322 421.674 86.2365 423.293 86.0526C424.765 85.8853 426.83 85.6157 428.882 85.4496L430.334 103.391ZM404.669 99.5854C401.264 97.1416 400.242 96.4276 399.196 96.0281C398.684 95.8326 397.677 95.5127 394.564 95.9616L391.995 78.1458C397.002 77.4238 401.333 77.5756 405.62 79.2136C409.374 80.6476 412.611 83.1291 415.164 84.9621L404.669 99.5854ZM394.574 95.9602C393.975 96.0471 393.161 96.2239 391.788 96.5309C390.558 96.8059 388.958 97.1661 387.311 97.4379C384.486 97.9039 379.256 98.5669 374.488 96.2627L382.321 80.0563C381.801 79.8051 381.607 79.8823 382.104 79.8954C382.578 79.908 383.312 79.8543 384.38 79.6779C385.444 79.5025 386.553 79.257 387.859 78.9648C389.023 78.7047 390.57 78.353 391.985 78.1472L394.574 95.9602ZM374.495 96.2659C369.868 94.0345 367.804 90.1935 366.859 87.2239C366.422 85.8499 366.183 84.5474 366.032 83.6658C365.844 82.5712 365.799 82.2116 365.694 81.7255L383.288 77.9253C383.41 78.4895 383.505 79.0252 383.579 79.4622C383.616 79.6817 383.653 79.9017 383.684 80.0907C383.716 80.2882 383.745 80.4603 383.773 80.6269C383.894 81.3331 383.967 81.6278 384.012 81.7672C384.046 81.8758 383.972 81.5862 383.653 81.1646C383.288 80.6822 382.801 80.2877 382.314 80.0531L374.495 96.2659ZM365.696 81.7317C365.234 79.602 365.008 79.7302 365.366 80.1655C365.533 80.3676 365.621 80.3916 365.391 80.2394C365.109 80.0532 364.583 79.7534 363.56 79.2696L371.256 62.9975C373.81 64.2054 376.88 65.8279 379.269 68.7323C381.716 71.7085 382.668 75.0646 383.287 77.9191L365.696 81.7317ZM363.556 79.2674C359.903 77.5375 356.004 74.6857 354.28 73.6138L363.784 58.3273C367.762 60.8004 368.733 61.8025 371.26 62.9998L363.556 79.2674ZM354.287 73.6181C350.679 71.3797 347.96 70.931 341.805 68.6256L348.12 51.7695C351.776 53.1392 358.159 54.8372 363.777 58.3229L354.287 73.6181ZM341.79 68.6198C330.771 64.4688 326.807 54.3234 324.795 47.0448C323.784 43.3888 322.971 39.2479 322.313 36.3664C321.561 33.0805 320.921 30.9657 320.221 29.5937L336.254 21.413C338.06 24.952 339.093 29.0003 339.86 32.3541C340.719 36.1121 341.27 39.0872 342.144 42.2479C343.901 48.6026 345.794 50.8933 348.135 51.7753L341.79 68.6198ZM320.223 29.5982C318.089 25.4219 317.238 21.2486 317.673 17.0158C318.084 13.02 319.585 9.62652 320.953 6.96738L336.959 15.2013C335.935 17.1915 335.646 18.2051 335.579 18.8552C335.536 19.2684 335.522 19.9799 336.252 21.4084L320.223 29.5982ZM328.158 18.5942C245.997 19.5775 163.586 24.3226 82.0426 32.8363L80.1734 14.9336C162.272 6.36187 245.236 1.58532 327.943 0.595535L328.158 18.5942ZM88.658 27.7838C88.0195 29.4368 87.1305 31.3348 85.91 33.0591C84.835 34.5777 82.671 37.158 79.0954 38.2642L73.7754 21.0683C72.6777 21.4079 71.9771 21.9318 71.6514 22.2141C71.3229 22.4988 71.1932 22.6948 71.2182 22.6595C71.2334 22.6379 71.3167 22.5137 71.4472 22.2563C71.5741 22.0058 71.7176 21.685 71.8671 21.2981L88.658 27.7838ZM82.0426 32.8363C85.1573 32.5111 87.629 30.448 88.658 27.7838L71.8671 21.2981C73.1735 17.9159 76.293 15.3388 80.1734 14.9336L82.0426 32.8363ZM320.953 6.96738C318.305 12.1148 321.913 18.669 328.158 18.5942L327.943 0.595535C335.718 0.502484 340.307 8.69358 336.959 15.2013L320.953 6.96738Z" fill="#FFBF02" mask="url(#path-1-outside-1_1088_25028)"/>
</svg>
