<svg width="297" height="446" viewBox="0 0 297 446" fill="none" xmlns="http://www.w3.org/2000/svg">
<mask id="path-1-outside-1_1088_25014" maskUnits="userSpaceOnUse" x="-0.0195312" y="0.513672" width="297" height="445" fill="black">
<rect fill="white" x="-0.0195312" y="0.513672" width="297" height="445"/>
<path d="M25.7451 344.668C25.8425 345.944 25.9399 347.156 26.4091 348.091C28.4643 352.235 36.5228 350.39 41.0888 348.597C41.2019 348.552 41.3198 348.529 41.4413 348.527L42.7853 348.504C43.0382 348.5 43.2834 348.592 43.4714 348.761L44.391 349.589C44.4909 349.679 44.5717 349.788 44.6284 349.91L67.3063 398.608C68.4928 401.145 69.9891 403.795 72.1849 404.194C73.15 404.381 74.3896 404.112 75.6734 403.844C77.3291 403.486 79.2151 403.104 81.2161 403.446C83.8723 403.917 85.7405 405.478 87.3962 406.852C88.1931 407.511 88.9812 408.186 89.8754 408.682C93.1515 410.528 97.977 409.861 102.643 409.218C108.938 408.348 116.101 407.365 120.041 412.959C120.75 413.959 121.192 415.024 121.582 415.967C121.954 416.886 122.317 417.756 122.83 418.357C124.079 419.845 126.549 420.366 129.161 420.919L130.224 421.155C136.93 422.65 143.296 425.695 148.512 429.856C148.907 430.171 149.472 430.15 149.875 429.846C150.474 429.396 151.154 429.007 151.907 428.676C154.918 427.383 158.849 427.293 162.196 428.456C164.887 429.383 167.189 430.838 169.412 432.229C171.023 433.245 172.555 434.213 174.167 434.944C175.445 435.525 176.796 435.933 178.189 436.25C178.829 436.395 179.415 435.872 179.367 435.218C178.535 423.894 177.426 412.593 176.292 401.527C175.805 396.729 175.318 391.94 174.857 387.151C173.821 376.484 172.688 363.848 172.174 351.083C172.13 349.912 171.953 348.335 171.749 346.522C170.926 338.976 169.793 328.626 174.184 323.861C175.601 322.332 177.513 321.446 179.718 321.308L206.077 319.69C228.619 318.3 251.923 316.86 274.909 316.153L280.168 316.023C282.256 315.967 284.278 315.917 286.28 315.863C286.821 315.848 287.252 315.405 287.252 314.864L287.322 229.487C287.322 228.072 287.322 226.616 286.897 225.405C286.481 224.21 285.578 223.055 284.63 221.843L283.355 220.16C280.212 215.729 278.973 210.493 277.875 205.875L271.199 177.791C270.791 176.075 270.03 172.88 272.075 170.416C272.863 169.465 273.882 168.863 274.705 168.383L275.918 167.527C276 167.469 276.076 167.401 276.125 167.314C276.488 166.665 276.323 165.478 276.157 164.619C274.563 156.293 269.897 148.601 263.035 142.942L261.557 141.755C259.139 139.852 256.651 137.868 255.199 134.982C253.924 132.477 253.756 129.859 253.588 127.331C253.464 125.298 253.331 123.387 252.632 121.729C251.507 119.07 248.931 117.07 246.195 114.947C243.795 113.085 241.316 111.158 239.519 108.589C234.649 101.572 236.88 93.5877 239.049 85.8715C240.085 82.1638 241.157 78.3262 241.369 74.7567C241.715 68.8049 239.634 62.8612 237.624 57.1208L227.683 28.6784C227.475 28.0846 226.777 27.8299 226.218 28.118C221.724 30.4342 217.651 30.5387 214.63 28.224C212.505 26.5978 211.735 24.2967 211.053 22.2722C210.53 20.7273 210.043 19.272 209.069 18.4914C207.679 17.3775 205.156 17.483 202.712 17.6944L186.775 19.0198C181.799 19.4227 178.633 18.2923 177.284 15.6206C177.26 15.5726 177.24 15.5221 177.224 15.4706L176.672 13.6371L176.475 12.8838C176.459 12.8225 176.439 12.7619 176.404 12.7094C175.991 12.1018 174.373 11.8481 172.024 12.0272L157.866 13.1412C156.936 13.2144 155.865 13.2956 155.228 13.6371C154.298 14.1331 153.66 15.4422 153.032 16.7025C151.651 19.5239 149.915 22.7193 146.914 25.0284C143.948 27.3213 139.078 28.7361 134.961 26.7278L133.092 25.6138L131.485 24.7745C131.315 24.6855 131.122 24.6475 130.931 24.6651L129.985 24.7521C129.276 24.8659 128.409 24.996 127.426 24.9065C123.76 24.565 121.547 21.4022 121.245 18.4507C121.042 16.3529 121.609 14.377 122.122 12.637L122.188 12.4002C122.242 12.2094 122.014 12.0666 121.865 12.1979V12.1979L119.563 13.995C115.482 16.4343 111.435 13.9707 108.177 11.9867C105.37 10.2793 103.405 9.21403 102.041 9.87263C101.341 10.206 100.571 11.0434 99.8363 11.8565C98.3223 13.4989 96.0644 15.9871 92.5847 15.0032C91.2123 14.6292 90.327 13.8161 89.6098 13.1657L88.8749 12.5477C87.715 11.759 85.9885 12.0761 83.2437 12.7021C82.1013 12.9644 80.8931 13.2418 79.6537 13.3917C79.0983 13.4589 78.6761 13.9405 78.6899 14.4998C78.7266 15.9967 78.5991 17.4989 78.3028 18.9631C78.2746 19.1024 78.2152 19.2334 78.1308 19.3478L77.4064 20.3296C77.2492 20.5426 77.014 20.6846 76.7523 20.7245L75.421 20.9272C75.301 20.9455 75.1789 20.9414 75.0599 20.9175C71.8263 20.2679 68.3264 20.7978 65.4616 22.3189C65.0911 22.5156 64.9067 22.9362 64.9824 23.3488C65.8577 28.1201 66.3457 32.9678 66.4386 37.7858C66.4475 38.5583 66.4828 40.8674 64.3578 42.0138C62.95 42.77 61.5069 42.4772 60.6391 42.2902C58.8949 42.0218 57.4605 43.3798 56.6459 44.8027L55.6277 46.8191C54.8928 48.3883 54.0606 50.1771 52.5819 51.6569C50.9882 53.2587 48.5091 54.21 46.2867 54.088C44.4716 54.0067 42.8956 53.2751 41.8685 52.0148C41.2476 51.2615 40.8795 50.4139 40.6299 49.5544C40.5399 49.2442 40.0598 49.2435 39.9914 49.5593V49.5593C39.6018 51.4375 39.168 53.5677 37.769 55.3809C35.1571 58.7877 30.6591 59.5683 26.1878 59.9017C25.6445 59.9448 25.1012 59.9682 24.5579 59.9918C23.9565 60.0179 23.5258 60.5705 23.6427 61.1609C23.7906 61.9082 23.9386 62.6615 24.0629 63.4547C24.6827 67.4307 25.4264 71.4068 25.9488 75.3909C26.4358 79.0254 25.6655 83.3265 26.8254 86.8146C28.6759 92.4086 34.5461 95.3276 35.5466 101.67C36.2727 106.264 34.2007 112.443 38.4684 116.126C44.9142 121.68 44.0555 113.077 45.5341 110.199C48.394 104.662 55.5746 105.239 57.6908 110.955C60.2673 117.915 57.1595 121.915 51.3955 125.713C47.6148 128.192 44.9054 130.607 46.508 135.356C48.1903 140.356 52.6173 139.958 49.5538 145.641C47.8804 148.772 45.5075 151.105 47.6237 154.723C50.4747 159.577 54.5475 158.935 53.6267 165.741C52.5996 173.359 48.2966 182.067 45.0914 189.109C40.5227 199.15 33.3685 208.655 27.3389 217.981C23.3191 224.209 21.4951 230.69 21.4774 237.942C21.4597 246.228 17.3071 250.984 12.6056 257.871C9.50667 262.408 9.10826 267.092 11.6405 271.897C14.0223 276.434 18.7238 279.109 21.265 283.215C26.179 291.142 16.342 300.265 19.0248 308.632C20.8665 314.372 26.7368 319.812 27.33 325.739C27.6265 328.703 26.6102 333.661 24.2889 337.21C24.0944 337.507 24.0561 337.882 24.1953 338.209C24.891 339.843 25.4293 341.533 25.6211 343.302L25.7451 344.668"/>
</mask>
<path d="M25.7451 344.668C25.8425 345.944 25.9399 347.156 26.4091 348.091C28.4643 352.235 36.5228 350.39 41.0888 348.597C41.2019 348.552 41.3198 348.529 41.4413 348.527L42.7853 348.504C43.0382 348.5 43.2834 348.592 43.4714 348.761L44.391 349.589C44.4909 349.679 44.5717 349.788 44.6284 349.91L67.3063 398.608C68.4928 401.145 69.9891 403.795 72.1849 404.194C73.15 404.381 74.3896 404.112 75.6734 403.844C77.3291 403.486 79.2151 403.104 81.2161 403.446C83.8723 403.917 85.7405 405.478 87.3962 406.852C88.1931 407.511 88.9812 408.186 89.8754 408.682C93.1515 410.528 97.977 409.861 102.643 409.218C108.938 408.348 116.101 407.365 120.041 412.959C120.75 413.959 121.192 415.024 121.582 415.967C121.954 416.886 122.317 417.756 122.83 418.357C124.079 419.845 126.549 420.366 129.161 420.919L130.224 421.155C136.93 422.65 143.296 425.695 148.512 429.856C148.907 430.171 149.472 430.15 149.875 429.846C150.474 429.396 151.154 429.007 151.907 428.676C154.918 427.383 158.849 427.293 162.196 428.456C164.887 429.383 167.189 430.838 169.412 432.229C171.023 433.245 172.555 434.213 174.167 434.944C175.445 435.525 176.796 435.933 178.189 436.25C178.829 436.395 179.415 435.872 179.367 435.218C178.535 423.894 177.426 412.593 176.292 401.527C175.805 396.729 175.318 391.94 174.857 387.151C173.821 376.484 172.688 363.848 172.174 351.083C172.13 349.912 171.953 348.335 171.749 346.522C170.926 338.976 169.793 328.626 174.184 323.861C175.601 322.332 177.513 321.446 179.718 321.308L206.077 319.69C228.619 318.3 251.923 316.86 274.909 316.153L280.168 316.023C282.256 315.967 284.278 315.917 286.28 315.863C286.821 315.848 287.252 315.405 287.252 314.864L287.322 229.487C287.322 228.072 287.322 226.616 286.897 225.405C286.481 224.21 285.578 223.055 284.63 221.843L283.355 220.16C280.212 215.729 278.973 210.493 277.875 205.875L271.199 177.791C270.791 176.075 270.03 172.88 272.075 170.416C272.863 169.465 273.882 168.863 274.705 168.383L275.918 167.527C276 167.469 276.076 167.401 276.125 167.314C276.488 166.665 276.323 165.478 276.157 164.619C274.563 156.293 269.897 148.601 263.035 142.942L261.557 141.755C259.139 139.852 256.651 137.868 255.199 134.982C253.924 132.477 253.756 129.859 253.588 127.331C253.464 125.298 253.331 123.387 252.632 121.729C251.507 119.07 248.931 117.07 246.195 114.947C243.795 113.085 241.316 111.158 239.519 108.589C234.649 101.572 236.88 93.5877 239.049 85.8715C240.085 82.1638 241.157 78.3262 241.369 74.7567C241.715 68.8049 239.634 62.8612 237.624 57.1208L227.683 28.6784C227.475 28.0846 226.777 27.8299 226.218 28.118C221.724 30.4342 217.651 30.5387 214.63 28.224C212.505 26.5978 211.735 24.2967 211.053 22.2722C210.53 20.7273 210.043 19.272 209.069 18.4914C207.679 17.3775 205.156 17.483 202.712 17.6944L186.775 19.0198C181.799 19.4227 178.633 18.2923 177.284 15.6206C177.26 15.5726 177.24 15.5221 177.224 15.4706L176.672 13.6371L176.475 12.8838C176.459 12.8225 176.439 12.7619 176.404 12.7094C175.991 12.1018 174.373 11.8481 172.024 12.0272L157.866 13.1412C156.936 13.2144 155.865 13.2956 155.228 13.6371C154.298 14.1331 153.66 15.4422 153.032 16.7025C151.651 19.5239 149.915 22.7193 146.914 25.0284C143.948 27.3213 139.078 28.7361 134.961 26.7278L133.092 25.6138L131.485 24.7745C131.315 24.6855 131.122 24.6475 130.931 24.6651L129.985 24.7521C129.276 24.8659 128.409 24.996 127.426 24.9065C123.76 24.565 121.547 21.4022 121.245 18.4507C121.042 16.3529 121.609 14.377 122.122 12.637L122.188 12.4002C122.242 12.2094 122.014 12.0666 121.865 12.1979V12.1979L119.563 13.995C115.482 16.4343 111.435 13.9707 108.177 11.9867C105.37 10.2793 103.405 9.21403 102.041 9.87263C101.341 10.206 100.571 11.0434 99.8363 11.8565C98.3223 13.4989 96.0644 15.9871 92.5847 15.0032C91.2123 14.6292 90.327 13.8161 89.6098 13.1657L88.8749 12.5477C87.715 11.759 85.9885 12.0761 83.2437 12.7021C82.1013 12.9644 80.8931 13.2418 79.6537 13.3917C79.0983 13.4589 78.6761 13.9405 78.6899 14.4998C78.7266 15.9967 78.5991 17.4989 78.3028 18.9631C78.2746 19.1024 78.2152 19.2334 78.1308 19.3478L77.4064 20.3296C77.2492 20.5426 77.014 20.6846 76.7523 20.7245L75.421 20.9272C75.301 20.9455 75.1789 20.9414 75.0599 20.9175C71.8263 20.2679 68.3264 20.7978 65.4616 22.3189C65.0911 22.5156 64.9067 22.9362 64.9824 23.3488C65.8577 28.1201 66.3457 32.9678 66.4386 37.7858C66.4475 38.5583 66.4828 40.8674 64.3578 42.0138C62.95 42.77 61.5069 42.4772 60.6391 42.2902C58.8949 42.0218 57.4605 43.3798 56.6459 44.8027L55.6277 46.8191C54.8928 48.3883 54.0606 50.1771 52.5819 51.6569C50.9882 53.2587 48.5091 54.21 46.2867 54.088C44.4716 54.0067 42.8956 53.2751 41.8685 52.0148C41.2476 51.2615 40.8795 50.4139 40.6299 49.5544C40.5399 49.2442 40.0598 49.2435 39.9914 49.5593V49.5593C39.6018 51.4375 39.168 53.5677 37.769 55.3809C35.1571 58.7877 30.6591 59.5683 26.1878 59.9017C25.6445 59.9448 25.1012 59.9682 24.5579 59.9918C23.9565 60.0179 23.5258 60.5705 23.6427 61.1609C23.7906 61.9082 23.9386 62.6615 24.0629 63.4547C24.6827 67.4307 25.4264 71.4068 25.9488 75.3909C26.4358 79.0254 25.6655 83.3265 26.8254 86.8146C28.6759 92.4086 34.5461 95.3276 35.5466 101.67C36.2727 106.264 34.2007 112.443 38.4684 116.126C44.9142 121.68 44.0555 113.077 45.5341 110.199C48.394 104.662 55.5746 105.239 57.6908 110.955C60.2673 117.915 57.1595 121.915 51.3955 125.713C47.6148 128.192 44.9054 130.607 46.508 135.356C48.1903 140.356 52.6173 139.958 49.5538 145.641C47.8804 148.772 45.5075 151.105 47.6237 154.723C50.4747 159.577 54.5475 158.935 53.6267 165.741C52.5996 173.359 48.2966 182.067 45.0914 189.109C40.5227 199.15 33.3685 208.655 27.3389 217.981C23.3191 224.209 21.4951 230.69 21.4774 237.942C21.4597 246.228 17.3071 250.984 12.6056 257.871C9.50667 262.408 9.10826 267.092 11.6405 271.897C14.0223 276.434 18.7238 279.109 21.265 283.215C26.179 291.142 16.342 300.265 19.0248 308.632C20.8665 314.372 26.7368 319.812 27.33 325.739C27.6265 328.703 26.6102 333.661 24.2889 337.21C24.0944 337.507 24.0561 337.882 24.1953 338.209C24.891 339.843 25.4293 341.533 25.6211 343.302L25.7451 344.668" fill="white"/>
<path d="M26.4091 348.091L34.453 344.054L34.4625 344.073L34.472 344.092L26.4091 348.091ZM67.3063 398.608L59.1539 402.421L59.1507 402.414L59.1476 402.407L67.3063 398.608ZM72.1849 404.194L73.7917 395.338L73.8444 395.348L73.897 395.358L72.1849 404.194ZM75.6734 403.844L77.5742 412.641L77.5444 412.647L77.5146 412.654L75.6734 403.844ZM81.2161 403.446L82.7301 394.574L82.7598 394.579L82.7893 394.584L81.2161 403.446ZM87.3962 406.852L81.6627 413.79L81.6556 413.784L81.6486 413.778L87.3962 406.852ZM89.8754 408.682L94.2406 400.811L94.2669 400.826L94.2931 400.841L89.8754 408.682ZM102.643 409.218L103.875 418.134L103.87 418.134L102.643 409.218ZM120.041 412.959L112.697 418.16L112.69 418.151L112.683 418.141L120.041 412.959ZM121.582 415.967L129.9 412.531L129.912 412.561L129.925 412.59L121.582 415.967ZM122.83 418.357L129.676 412.515L129.701 412.544L129.725 412.573L122.83 418.357ZM129.161 420.919L131.025 412.114L131.068 412.123L131.111 412.133L129.161 420.919ZM130.224 421.155L132.174 412.368L132.182 412.37L130.224 421.155ZM151.907 428.676L148.284 420.437L148.32 420.422L148.356 420.406L151.907 428.676ZM162.196 428.456L159.265 436.966L159.254 436.962L159.242 436.958L162.196 428.456ZM169.412 432.229L174.185 424.599L174.199 424.608L174.213 424.616L169.412 432.229ZM174.167 434.944L177.888 426.75L177.889 426.75L174.167 434.944ZM176.292 401.527L167.338 402.444L167.338 402.436L176.292 401.527ZM174.857 387.151L183.815 386.282L183.816 386.29L174.857 387.151ZM172.174 351.083L163.182 351.445L163.181 351.434L163.181 351.423L172.174 351.083ZM171.749 346.522L162.806 347.526L162.804 347.512L162.802 347.498L171.749 346.522ZM174.184 323.861L167.566 317.761L167.575 317.752L167.583 317.743L174.184 323.861ZM179.718 321.308L179.155 312.326L179.167 312.325L179.718 321.308ZM206.077 319.69L206.631 328.673L206.628 328.673L206.077 319.69ZM274.909 316.153L274.632 307.157L274.659 307.156L274.686 307.156L274.909 316.153ZM280.168 316.023L280.409 325.02L280.4 325.02L280.39 325.02L280.168 316.023ZM287.322 229.487L296.322 229.487L296.322 229.494L287.322 229.487ZM286.897 225.405L278.404 228.384L278.401 228.374L278.398 228.364L286.897 225.405ZM284.63 221.843L277.541 227.388L277.498 227.333L277.456 227.278L284.63 221.843ZM283.355 220.16L276.181 225.595L276.096 225.482L276.015 225.367L283.355 220.16ZM277.875 205.875L269.119 207.956L269.119 207.956L277.875 205.875ZM271.199 177.791L262.443 179.872L262.442 179.869L271.199 177.791ZM272.075 170.416L279.006 176.157L279 176.165L272.075 170.416ZM274.705 168.383L279.893 175.738L279.573 175.963L279.235 176.16L274.705 168.383ZM276.157 164.619L267.32 166.322L267.318 166.311L276.157 164.619ZM263.035 142.942L268.67 135.924L268.716 135.961L268.761 135.998L263.035 142.942ZM261.557 141.755L267.123 134.683L267.157 134.71L267.191 134.737L261.557 141.755ZM255.199 134.982L263.22 130.898L263.23 130.918L263.239 130.937L255.199 134.982ZM253.588 127.331L244.608 127.928L244.606 127.903L244.605 127.878L253.588 127.331ZM252.632 121.729L260.921 118.223L260.924 118.231L252.632 121.729ZM246.195 114.947L240.679 122.059L240.677 122.058L246.195 114.947ZM239.519 108.589L232.144 113.748L232.134 113.734L232.125 113.72L239.519 108.589ZM239.049 85.8715L247.717 88.2934L247.716 88.3003L247.714 88.3073L239.049 85.8715ZM241.369 74.7567L250.354 75.278L250.353 75.2916L241.369 74.7567ZM237.624 57.1208L229.13 60.0949L229.128 60.0903L237.624 57.1208ZM214.63 28.224L220.099 21.0767L220.103 21.0795L214.63 28.224ZM211.053 22.2722L219.579 19.3892L219.582 19.3999L211.053 22.2722ZM209.069 18.4914L214.697 11.4681L214.698 11.4685L209.069 18.4914ZM202.712 17.6944L203.488 26.6609L203.473 26.6622L203.458 26.6634L202.712 17.6944ZM186.775 19.0198L187.521 27.9889L187.511 27.9897L187.501 27.9905L186.775 19.0198ZM176.672 13.6371L168.055 16.2323L168.007 16.0753L167.966 15.9167L176.672 13.6371ZM172.024 12.0272L171.318 3.05496L171.329 3.0541L171.34 3.05327L172.024 12.0272ZM157.866 13.1412L157.16 4.16899L157.16 4.16898L157.866 13.1412ZM155.228 13.6371L159.477 21.5705L159.471 21.5742L159.464 21.5778L155.228 13.6371ZM153.032 16.7025L144.948 12.7452L144.963 12.7151L144.978 12.6852L153.032 16.7025ZM146.914 25.0284L141.409 17.9079L141.418 17.9015L141.426 17.8951L146.914 25.0284ZM134.961 26.7278L131.015 34.8168L130.676 34.6513L130.351 34.458L134.961 26.7278ZM133.092 25.6138L137.259 17.6362L137.484 17.7537L137.702 17.8837L133.092 25.6138ZM129.985 24.7521L128.557 15.8661L128.857 15.8178L129.161 15.7899L129.985 24.7521ZM127.426 24.9065L126.61 33.8695L126.6 33.8686L126.591 33.8677L127.426 24.9065ZM121.245 18.4507L112.292 19.3639L112.29 19.3421L112.288 19.3203L121.245 18.4507ZM122.122 12.637L130.79 15.0611L130.772 15.123L130.754 15.1846L122.122 12.637ZM119.563 13.995L125.101 21.0893L124.66 21.4336L124.18 21.7206L119.563 13.995ZM108.177 11.9867L112.854 4.29774L112.857 4.29957L108.177 11.9867ZM102.041 9.87263L105.955 17.9768L105.934 17.987L105.913 17.9971L102.041 9.87263ZM99.8363 11.8565L106.513 17.8913L106.484 17.9241L106.454 17.9566L99.8363 11.8565ZM92.5847 15.0032L94.9512 6.31993L94.9923 6.33114L95.0334 6.34274L92.5847 15.0032ZM89.6098 13.1657L95.4022 6.27743L95.5312 6.38593L95.6561 6.49918L89.6098 13.1657ZM88.8749 12.5477L93.9356 5.10527L94.3156 5.36369L94.6674 5.65948L88.8749 12.5477ZM83.2437 12.7021L81.2299 3.93033L81.2423 3.92751L83.2437 12.7021ZM66.4386 37.7858L75.437 37.6123L75.4376 37.6475L75.438 37.6827L66.4386 37.7858ZM64.3578 42.0138L68.6312 49.9346L68.6238 49.9386L68.6165 49.9425L64.3578 42.0138ZM60.6391 42.2902L62.0075 33.3948L62.2729 33.4356L62.5353 33.4922L60.6391 42.2902ZM56.6459 44.8027L48.6121 40.7458L48.7183 40.5356L48.8353 40.3312L56.6459 44.8027ZM55.6277 46.8191L47.4772 43.0021L47.5338 42.8813L47.5939 42.7622L55.6277 46.8191ZM52.5819 51.6569L46.202 45.309L46.2087 45.3022L46.2154 45.2955L52.5819 51.6569ZM46.2867 54.088L46.6894 45.097L46.7346 45.099L46.7798 45.1015L46.2867 54.088ZM41.8685 52.0148L48.8133 46.2903L48.8293 46.3097L48.8451 46.3291L41.8685 52.0148ZM37.769 55.3809L30.6266 49.9049L30.635 49.894L30.6434 49.8831L37.769 55.3809ZM26.1878 59.9017L25.4748 50.93L25.4967 50.9282L25.5186 50.9266L26.1878 59.9017ZM24.0629 63.4547L32.9545 62.062L32.9555 62.0685L24.0629 63.4547ZM25.9488 75.3909L17.0285 76.5862L17.0268 76.5736L17.0252 76.561L25.9488 75.3909ZM26.8254 86.8146L35.3656 83.9748L35.37 83.988L26.8254 86.8146ZM35.5466 101.67L26.657 103.075L26.6566 103.072L35.5466 101.67ZM38.4684 116.126L32.594 122.945L32.5881 122.94L38.4684 116.126ZM45.5341 110.199L37.5287 106.086L37.5332 106.078L37.5377 106.069L45.5341 110.199ZM57.6908 110.955L66.1309 107.831L66.131 107.831L57.6908 110.955ZM51.3955 125.713L56.3466 133.228L56.3392 133.233L56.3318 133.238L51.3955 125.713ZM46.508 135.356L55.0355 132.478L55.0382 132.486L46.508 135.356ZM49.5538 145.641L41.6167 141.398L41.624 141.385L41.6314 141.371L49.5538 145.641ZM47.6237 154.723L39.8632 159.281L39.859 159.274L39.8548 159.267L47.6237 154.723ZM53.6267 165.741L44.7073 164.538L44.7079 164.534L53.6267 165.741ZM45.0914 189.109L36.8994 185.381L36.9001 185.38L45.0914 189.109ZM27.3389 217.981L19.777 213.101L19.7809 213.095L27.3389 217.981ZM21.4774 237.942L12.4775 237.923L12.4775 237.921L21.4774 237.942ZM12.6056 257.871L20.0386 262.946L20.0374 262.947L12.6056 257.871ZM11.6405 271.897L19.6026 267.701L19.6059 267.707L19.6092 267.714L11.6405 271.897ZM21.265 283.215L13.6154 287.957L13.612 287.951L21.265 283.215ZM19.0248 308.632L10.4551 311.381L10.4546 311.38L19.0248 308.632ZM27.33 325.739L36.2853 324.843L36.2853 324.843L27.33 325.739ZM25.6211 343.302L34.5686 342.332L34.5771 342.41L34.5843 342.488L25.6211 343.302ZM65.4616 22.3189L69.6824 30.2678L65.4616 22.3189ZM64.9824 23.3488L73.8347 21.7248L64.9824 23.3488ZM78.3028 18.9631L87.124 20.748L78.3028 18.9631ZM78.1308 19.3478L70.8887 14.0044L78.1308 19.3478ZM40.6299 49.5544L49.273 47.0449L40.6299 49.5544ZM122.188 12.4002L113.521 9.97607L122.188 12.4002ZM24.2889 337.21L31.8211 342.136L24.2889 337.21ZM24.1953 338.209L15.9146 341.735L24.1953 338.209ZM227.683 28.6784L219.187 31.6479L227.683 28.6784ZM226.218 28.118L222.095 20.1178L226.218 28.118ZM75.421 20.9272L76.776 29.8247L75.421 20.9272ZM75.0599 20.9175L76.8325 12.0938L75.0599 20.9175ZM275.918 167.527L281.106 174.882L275.918 167.527ZM276.125 167.314L283.977 171.711L276.125 167.314ZM24.5579 59.9918L24.948 68.9833L24.948 68.9833L24.5579 59.9918ZM23.6427 61.1609L32.4714 59.4133L23.6427 61.1609ZM286.28 315.863L286.524 324.859L286.28 315.863ZM287.252 314.864L278.252 314.857L287.252 314.864ZM177.284 15.6206L185.318 11.564L177.284 15.6206ZM177.224 15.4706L185.842 12.8754L177.224 15.4706ZM44.391 349.589L50.4132 342.901L44.391 349.589ZM44.6284 349.91L52.7872 346.11L44.6284 349.91ZM131.485 24.7745L135.651 16.7969L131.485 24.7745ZM130.931 24.6651L130.107 15.7029L130.931 24.6651ZM42.7853 348.504L42.9378 357.503L42.7853 348.504ZM43.4714 348.761L37.4492 355.449L43.4714 348.761ZM178.189 436.25L180.183 427.473L178.189 436.25ZM179.367 435.218L188.343 434.558L179.367 435.218ZM79.6537 13.3917L80.7345 22.3266L79.6537 13.3917ZM78.6899 14.4998L69.6926 14.7209L78.6899 14.4998ZM176.475 12.8838L185.182 10.6043L176.475 12.8838ZM176.404 12.7094L168.956 17.7628L176.404 12.7094ZM77.4064 20.3296L84.6485 25.6731L77.4064 20.3296ZM76.7523 20.7245L75.3973 11.8271L76.7523 20.7245ZM148.512 429.856L142.899 436.892L148.512 429.856ZM149.875 429.846L144.464 422.655L149.875 429.846ZM41.0888 348.597L37.7989 340.22L41.0888 348.597ZM41.4413 348.527L41.2888 339.528L41.4413 348.527ZM34.719 343.983C34.7312 344.143 34.7416 344.278 34.7521 344.407C34.7625 344.533 34.7719 344.639 34.781 344.732C34.7997 344.923 34.8132 345.016 34.8186 345.048C34.8239 345.08 34.8124 344.998 34.7668 344.841C34.7205 344.681 34.6273 344.401 34.453 344.054L18.3653 352.128C16.9424 349.292 16.8301 346.125 16.7712 345.352L34.719 343.983ZM34.472 344.092C33.6989 342.533 32.4201 341.853 31.8412 341.655C31.4387 341.517 31.4919 341.632 32.2784 341.586C32.9847 341.544 33.9066 341.395 34.9581 341.13C35.9907 340.87 36.9864 340.539 37.7989 340.22L44.3786 356.974C41.5898 358.069 37.4587 359.312 33.3365 359.555C30.105 359.745 22.039 359.535 18.3462 352.09L34.472 344.092ZM41.2888 339.528L42.6328 339.505L42.9378 357.503L41.5937 357.526L41.2888 339.528ZM49.4936 342.072L50.4132 342.901L38.3689 356.277L37.4492 355.449L49.4936 342.072ZM52.7872 346.11L75.465 394.808L59.1476 402.407L36.4697 353.709L52.7872 346.11ZM75.4588 394.795C75.7085 395.329 75.9229 395.757 76.1183 396.107C76.3175 396.464 76.442 396.639 76.4843 396.694C76.5343 396.759 76.3866 396.547 75.9979 396.261C75.5783 395.952 74.8336 395.527 73.7917 395.338L70.5782 413.049C66.3028 412.273 63.6301 409.494 62.25 407.711C60.8098 405.851 59.7954 403.792 59.1539 402.421L75.4588 394.795ZM73.897 395.358C73.6454 395.309 73.4294 395.284 73.2588 395.271C73.0882 395.257 72.9516 395.255 72.8559 395.256C72.7601 395.257 72.6935 395.262 72.6617 395.264C72.6298 395.267 72.6221 395.268 72.6435 395.265C72.6945 395.259 72.8078 395.241 73.023 395.2C73.127 395.18 73.2433 395.157 73.3803 395.129C73.5214 395.099 73.6611 395.07 73.8322 395.034L77.5146 412.654C76.9822 412.765 75.9793 412.983 74.9758 413.114C73.9974 413.242 72.3393 413.391 70.4728 413.029L73.897 395.358ZM73.7726 395.047C75.3516 394.706 78.8136 393.906 82.7301 394.574L79.702 412.317C79.7185 412.32 79.6045 412.297 79.2557 412.333C78.8628 412.375 78.4042 412.462 77.5742 412.641L73.7726 395.047ZM82.7893 394.584C88.1039 395.528 91.6745 398.707 93.1439 399.927L81.6486 413.778C80.7453 413.028 80.3373 412.706 79.9541 412.469C79.8001 412.374 79.7109 412.334 79.673 412.318C79.6541 412.31 79.6447 412.308 79.6431 412.307C79.642 412.307 79.6418 412.307 79.6423 412.307C79.6427 412.307 79.643 412.307 79.6428 412.307L82.7893 394.584ZM93.1298 399.915C93.3716 400.115 93.5147 400.235 93.6946 400.382C93.8556 400.514 93.9755 400.609 94.0744 400.685C94.2781 400.841 94.3146 400.852 94.2406 400.811L85.5103 416.552C83.7234 415.561 82.2169 414.248 81.6627 413.79L93.1298 399.915ZM94.2931 400.841C93.9428 400.643 94.1312 400.895 95.6714 400.883C97.1783 400.872 98.9486 400.642 101.416 400.302L103.87 418.134C101.671 418.437 98.6959 418.861 95.8046 418.883C92.9465 418.904 89.0841 418.566 85.4577 416.523L94.2931 400.841ZM101.411 400.303C104.308 399.903 108.834 399.227 113.229 399.721C118.029 400.259 123.526 402.277 127.399 407.776L112.683 418.141C112.616 418.046 112.562 417.759 111.222 417.608C109.477 417.413 107.273 417.664 103.875 418.134L101.411 400.303ZM127.386 407.757C128.759 409.695 129.541 411.66 129.9 412.531L113.264 419.403C113.06 418.91 112.95 418.651 112.839 418.424C112.741 418.221 112.693 418.156 112.697 418.16L127.386 407.757ZM129.925 412.59C130.015 412.815 130.078 412.969 130.134 413.098C130.188 413.225 130.215 413.281 130.221 413.293C130.228 413.306 130.194 413.235 130.118 413.113C130.041 412.99 129.898 412.775 129.676 412.515L115.985 424.2C114.343 422.276 113.475 419.927 113.239 419.344L129.925 412.59ZM129.725 412.573C129.258 412.017 128.81 411.709 128.583 411.574C128.369 411.447 128.29 411.435 128.459 411.494C128.624 411.552 128.903 411.636 129.364 411.748C129.833 411.861 130.345 411.97 131.025 412.114L127.297 429.724C126.14 429.479 124.262 429.097 122.51 428.483C120.777 427.876 118.074 426.691 115.936 424.142L129.725 412.573ZM131.111 412.133L132.174 412.368L128.273 429.941L127.211 429.705L131.111 412.133ZM132.182 412.37C140.203 414.158 147.823 417.794 154.125 422.821L142.899 436.892C138.769 433.597 133.657 431.141 128.265 429.939L132.182 412.37ZM144.464 422.655C145.689 421.733 146.986 421.008 148.284 420.437L155.531 436.914C155.323 437.005 155.259 437.059 155.287 437.038L144.464 422.655ZM148.356 420.406C153.591 418.158 159.853 418.115 165.149 419.955L159.242 436.958C157.845 436.472 156.244 436.608 155.459 436.945L148.356 420.406ZM165.126 419.947C168.951 421.264 172.112 423.302 174.185 424.599L164.638 439.859C162.267 438.375 160.824 437.502 159.265 436.966L165.126 419.947ZM174.213 424.616C175.934 425.701 176.937 426.318 177.888 426.75L170.445 443.139C168.173 442.107 166.113 440.789 164.611 439.841L174.213 424.616ZM177.889 426.75C178.448 427.004 179.178 427.245 180.183 427.473L176.194 445.026C174.415 444.622 172.442 444.046 170.444 443.139L177.889 426.75ZM170.391 435.877C169.57 424.689 168.471 413.495 167.338 402.444L185.245 400.609C186.381 411.691 187.501 423.099 188.343 434.558L170.391 435.877ZM167.338 402.436C166.851 397.644 166.362 392.83 165.898 388.013L183.816 386.29C184.274 391.051 184.758 395.815 185.245 400.618L167.338 402.436ZM165.899 388.021C164.86 377.32 163.706 364.476 163.182 351.445L181.167 350.721C181.67 363.221 182.782 375.647 183.815 386.282L165.899 388.021ZM163.181 351.423C163.152 350.664 163.025 349.477 162.806 347.526L180.693 345.517C180.881 347.193 181.108 349.16 181.168 350.743L163.181 351.423ZM162.802 347.498C162.405 343.856 161.825 338.705 162.018 333.794C162.198 329.24 163.078 322.631 167.566 317.761L180.802 329.961C180.899 329.856 180.15 330.804 180.004 334.503C179.872 337.845 180.27 341.642 180.696 345.545L162.802 347.498ZM167.583 317.743C170.66 314.424 174.779 312.6 179.155 312.326L180.281 330.29C180.224 330.294 180.291 330.298 180.429 330.234C180.572 330.168 180.699 330.072 180.785 329.979L167.583 317.743ZM179.167 312.325L205.525 310.707L206.628 328.673L180.269 330.291L179.167 312.325ZM205.523 310.707C228.041 309.318 251.484 307.87 274.632 307.157L275.185 325.149C252.362 325.851 229.198 327.281 206.631 328.673L205.523 310.707ZM274.686 307.156L279.946 307.026L280.39 325.02L275.131 325.15L274.686 307.156ZM279.927 307.026C282.076 306.969 284 306.921 286.036 306.866L286.524 324.859C284.557 324.913 282.435 324.965 280.409 325.02L279.927 307.026ZM278.252 314.857L278.322 229.479L296.322 229.494L296.252 314.872L278.252 314.857ZM278.322 229.487C278.322 229.119 278.322 228.847 278.317 228.591C278.312 228.343 278.304 228.175 278.295 228.058C278.286 227.942 278.28 227.919 278.288 227.964C278.296 228.009 278.326 228.161 278.404 228.384L295.39 222.426C296.421 225.365 296.322 228.48 296.322 229.487H278.322ZM278.398 228.364C278.476 228.59 278.547 228.726 278.565 228.761C278.583 228.794 278.569 228.763 278.493 228.651C278.418 228.539 278.308 228.385 278.142 228.165C277.972 227.94 277.786 227.702 277.541 227.388L291.72 216.299C292.392 217.158 294.389 219.553 295.397 222.446L278.398 228.364ZM277.456 227.278L276.181 225.595L290.53 214.726L291.805 216.409L277.456 227.278ZM276.015 225.367C271.702 219.287 270.155 212.317 269.119 207.956L286.631 203.793C287.79 208.669 288.722 212.171 290.696 214.953L276.015 225.367ZM269.119 207.956L262.443 179.872L279.955 175.709L286.631 203.793L269.119 207.956ZM262.442 179.869C262.203 178.861 259.847 171.055 265.151 164.667L279 176.165C279.298 175.805 279.498 175.404 279.61 175.046C279.713 174.716 279.717 174.504 279.717 174.482C279.717 174.465 279.715 174.551 279.753 174.779C279.794 175.019 279.849 175.265 279.955 175.712L262.442 179.869ZM265.144 164.675C267.079 162.34 269.435 161.037 270.174 160.607L279.235 176.16C279.135 176.218 279.056 176.264 278.982 176.308C278.91 176.351 278.852 176.386 278.803 176.417C278.704 176.478 278.659 176.51 278.646 176.519C278.634 176.528 278.668 176.504 278.731 176.447C278.795 176.389 278.893 176.294 279.006 176.157L265.144 164.675ZM269.517 161.029L270.73 160.173L281.106 174.882L279.893 175.738L269.517 161.029ZM268.272 162.916C267.674 163.985 267.481 164.915 267.41 165.381C267.334 165.877 267.34 166.228 267.345 166.355C267.352 166.578 267.376 166.613 267.32 166.322L284.994 162.915C285.104 163.484 285.293 164.542 285.334 165.736C285.365 166.623 285.407 169.158 283.977 171.711L268.272 162.916ZM267.318 166.311C266.14 160.161 262.647 154.287 257.309 149.885L268.761 135.998C277.147 142.914 282.986 152.424 284.997 162.927L267.318 166.311ZM257.401 149.96L255.922 148.773L267.191 134.737L268.67 135.924L257.401 149.96ZM255.99 148.827C253.794 147.098 249.648 143.972 247.159 139.026L263.239 130.937C263.655 131.764 264.485 132.606 267.123 134.683L255.99 148.827ZM247.179 139.065C244.94 134.668 244.759 130.206 244.608 127.928L262.568 126.733C262.658 128.082 262.719 128.891 262.846 129.629C262.96 130.286 263.095 130.653 263.22 130.898L247.179 139.065ZM244.605 127.878C244.54 126.823 244.493 126.196 244.419 125.681C244.349 125.201 244.293 125.116 244.339 125.226L260.924 118.231C262.323 121.548 262.465 125.042 262.571 126.783L244.605 127.878ZM244.342 125.234C244.421 125.419 244.395 125.224 243.737 124.583C243.041 123.905 242.135 123.189 240.679 122.059L251.711 107.836C253.888 109.524 258.697 112.964 260.921 118.223L244.342 125.234ZM240.677 122.058C238.455 120.333 234.85 117.616 232.144 113.748L246.893 103.43C247.783 104.701 249.136 105.838 251.712 107.837L240.677 122.058ZM232.125 113.72C224.446 102.656 228.475 90.2303 230.385 83.4357L247.714 88.3073C245.285 96.945 244.852 100.488 246.913 103.458L232.125 113.72ZM230.381 83.4496C231.48 79.5181 232.241 76.6492 232.385 74.2219L250.353 75.2916C250.073 80.0031 248.691 84.8096 247.717 88.2934L230.381 83.4496ZM232.384 74.2354C232.607 70.401 231.269 66.2042 229.13 60.0949L246.118 54.1466C247.999 59.5181 250.822 67.2089 250.354 75.278L232.384 74.2354ZM229.128 60.0903L219.187 31.6479L236.179 25.7089L246.12 54.1513L229.128 60.0903ZM230.341 36.1182C224.146 39.3104 216.001 40.6121 209.157 35.3684L220.103 21.0795C220.043 21.0336 219.939 20.9738 219.817 20.9348C219.7 20.8977 219.663 20.9096 219.751 20.9084C219.965 20.9055 220.733 20.82 222.095 20.1178L230.341 36.1182ZM209.16 35.3713C204.561 31.8516 203.111 26.8887 202.523 25.1444L219.582 19.3999C219.762 19.9353 219.881 20.2842 220.006 20.61C220.123 20.9167 220.207 21.0966 220.263 21.2029C220.352 21.373 220.305 21.2342 220.099 21.0767L209.16 35.3713ZM202.527 25.1551C202.387 24.7411 202.297 24.4771 202.211 24.2413C202.128 24.0144 202.09 23.9334 202.091 23.9353C202.091 23.9361 202.174 24.1151 202.363 24.3834C202.558 24.6596 202.903 25.0831 203.441 25.5143L214.698 11.4685C216.707 13.0789 217.79 15.0266 218.37 16.2551C218.943 17.4698 219.362 18.7489 219.579 19.3892L202.527 25.1551ZM203.441 25.5147C204.187 26.1124 204.864 26.371 205.207 26.4756C205.541 26.5774 205.703 26.5778 205.587 26.5687C205.483 26.5606 205.26 26.5527 204.873 26.567C204.49 26.5811 204.044 26.6128 203.488 26.6609L201.936 8.72788C203.18 8.62028 205.07 8.47398 206.985 8.62305C208.757 8.76109 211.907 9.23207 214.697 11.4681L203.441 25.5147ZM203.458 26.6634L187.521 27.9889L186.029 10.0508L201.966 8.72535L203.458 26.6634ZM187.501 27.9905C181.582 28.4698 173.2 27.4994 169.25 19.6772L185.318 11.564C185.116 11.1636 184.811 10.7696 184.435 10.4524C184.073 10.1478 183.781 10.0278 183.702 9.99944C183.638 9.97656 183.77 10.0331 184.185 10.0702C184.597 10.1071 185.206 10.1174 186.048 10.0492L187.501 27.9905ZM168.607 18.0658L168.055 16.2323L185.29 11.0419L185.842 12.8754L168.607 18.0658ZM167.966 15.9167L167.769 15.1633L185.182 10.6043L185.379 11.3576L167.966 15.9167ZM168.956 17.7628C170.183 19.5715 171.72 20.3298 172.307 20.5834C172.984 20.876 173.467 20.9523 173.552 20.9657C173.733 20.9939 173.493 20.9413 172.708 21.0012L171.34 3.05327C172.904 2.93397 174.647 2.91872 176.328 3.1809C177.163 3.31124 178.274 3.5537 179.445 4.05924C180.525 4.52569 182.418 5.54354 183.851 7.65609L168.956 17.7628ZM172.73 20.9995L158.572 22.1135L157.16 4.16898L171.318 3.05496L172.73 20.9995ZM158.572 22.1135C158.32 22.1333 158.162 22.1459 158.015 22.1601C157.873 22.1737 157.819 22.1819 157.821 22.1816C157.825 22.1809 157.858 22.1758 157.914 22.1642C157.969 22.1529 158.062 22.1322 158.184 22.0982C158.397 22.0392 158.878 21.8916 159.477 21.5705L150.978 5.70368C152.666 4.79908 154.314 4.5106 155.054 4.39549C155.919 4.26095 156.778 4.19909 157.16 4.16899L158.572 22.1135ZM159.464 21.5778C160.297 21.1333 160.838 20.6306 161.125 20.3268C161.41 20.0248 161.553 19.8024 161.571 19.7758C161.592 19.7427 161.562 19.7859 161.466 19.9683C161.364 20.16 161.261 20.3669 161.085 20.7197L144.978 12.6852C145.219 12.2024 145.775 11.0518 146.463 9.99053C147.103 9.00276 148.511 7.01993 150.991 5.69647L159.464 21.5778ZM161.115 20.6597C159.682 23.587 157.191 28.4769 152.401 32.1617L141.426 17.8951C142.639 16.9616 143.619 15.4607 144.948 12.7452L161.115 20.6597ZM152.418 32.1489C147.705 35.7922 139.169 38.7945 131.015 34.8168L138.906 18.6389C138.92 18.6457 138.97 18.6687 139.091 18.6815C139.223 18.6954 139.437 18.6958 139.73 18.6414C140.381 18.5211 141.022 18.2069 141.409 17.9079L152.418 32.1489ZM130.351 34.458L128.483 33.3439L137.702 17.8837L139.57 18.9977L130.351 34.458ZM128.926 33.5914L127.319 32.7521L135.651 16.7969L137.259 17.6362L128.926 33.5914ZM131.755 33.6273L130.808 33.7143L129.161 15.7899L130.107 15.7029L131.755 33.6273ZM131.413 33.6381C130.654 33.76 128.813 34.0699 126.61 33.8695L128.241 15.9436C128.101 15.9308 128.027 15.9394 128.063 15.9364C128.083 15.9348 128.126 15.9305 128.207 15.9195C128.292 15.9078 128.393 15.8925 128.557 15.8661L131.413 33.6381ZM126.591 33.8677C117.576 33.0279 112.91 25.428 112.292 19.3639L130.199 17.5375C130.167 17.2213 130.07 16.986 129.855 16.7398C129.723 16.5889 129.514 16.401 129.213 16.2392C128.899 16.0704 128.563 15.9735 128.261 15.9453L126.591 33.8677ZM112.288 19.3203C111.892 15.2454 113.023 11.6711 113.49 10.0894L130.754 15.1846C130.49 16.0803 130.349 16.5937 130.264 17.0495C130.188 17.4617 130.205 17.6018 130.203 17.5811L112.288 19.3203ZM113.455 10.2129L113.521 9.97607L130.856 14.8242L130.79 15.0611L113.455 10.2129ZM127.403 19.2922L125.101 21.0893L114.025 6.90072L116.327 5.10364L127.403 19.2922ZM124.18 21.7206C119.489 24.5242 114.751 24.3645 111.056 23.294C107.776 22.3433 104.927 20.5447 103.496 19.6739L112.857 4.29957C113.709 4.81797 114.329 5.19179 114.931 5.50701C115.519 5.81476 115.876 5.95008 116.066 6.00517C116.236 6.05435 116.114 5.99281 115.796 6.01844C115.429 6.04812 115.114 6.16908 114.946 6.26941L124.18 21.7206ZM103.499 19.6757C102.822 19.2634 102.312 18.9618 101.893 18.732C101.691 18.6211 101.539 18.5428 101.428 18.4887C101.315 18.434 101.27 18.4164 101.28 18.4204C101.289 18.4238 101.39 18.4637 101.57 18.5106C101.75 18.5574 102.053 18.6232 102.455 18.6558C103.308 18.7247 104.588 18.6372 105.955 17.9768L98.1266 1.76846C102.272 -0.233838 106.148 0.994179 107.856 1.66442C109.707 2.39095 111.545 3.50138 112.854 4.29774L103.499 19.6757ZM105.913 17.9971C106.192 17.864 106.414 17.7351 106.576 17.6334C106.738 17.5311 106.861 17.4421 106.944 17.3796C107.1 17.2614 107.171 17.1902 107.145 17.2151C107.123 17.2355 107.062 17.2958 106.945 17.4201C106.827 17.5454 106.695 17.6906 106.513 17.8913L93.1594 5.8217C93.5018 5.44286 94.0988 4.78026 94.7588 4.1543C95.3392 3.60389 96.5271 2.53062 98.1689 1.74815L105.913 17.9971ZM106.454 17.9566C105.613 18.8683 99.6186 26.3448 90.1361 23.6637L95.0334 6.34274C94.653 6.23521 94.1064 6.17802 93.4957 6.27963C92.9193 6.37554 92.5287 6.57181 92.3596 6.67197C92.2124 6.7592 92.2188 6.78185 92.3996 6.61246C92.5976 6.4269 92.8007 6.21014 93.219 5.75641L106.454 17.9566ZM90.2183 23.6865C86.5347 22.6826 84.2238 20.4311 83.5634 19.8321L95.6561 6.49918C95.8612 6.68518 95.931 6.74776 95.9942 6.80123C96.0413 6.84099 96.0185 6.81859 95.946 6.76875C95.8696 6.71635 95.7398 6.63451 95.5622 6.54856C95.3818 6.46122 95.1755 6.38104 94.9512 6.31993L90.2183 23.6865ZM83.8173 20.0539L83.0825 19.4359L94.6674 5.65948L95.4022 6.27743L83.8173 20.0539ZM83.8143 19.9901C84.6621 20.5666 85.5091 20.8566 86.1768 20.9862C86.7877 21.1048 87.1905 21.0784 87.2292 21.076C87.2693 21.0734 87.1498 21.0794 86.7668 21.1507C86.3898 21.221 85.9158 21.3238 85.2452 21.4768L81.2423 3.92751C82.4962 3.64149 84.3172 3.22565 86.0781 3.11281C87.9452 2.99317 91.0013 3.11005 93.9356 5.10527L83.8143 19.9901ZM85.2575 21.4739C84.1837 21.7205 82.5201 22.1106 80.7345 22.3266L78.5729 4.45681C79.2662 4.37295 80.0189 4.20835 81.2299 3.93034L85.2575 21.4739ZM87.6871 14.2786C87.74 16.4307 87.5574 18.6064 87.124 20.748L69.4816 17.1782C69.6408 16.3914 69.7133 15.5627 69.6926 14.7209L87.6871 14.2786ZM85.3729 24.6913L84.6485 25.6731L70.1643 14.9862L70.8887 14.0044L85.3729 24.6913ZM78.1072 29.6219L76.776 29.8247L74.0661 12.0298L75.3973 11.8271L78.1072 29.6219ZM73.2873 29.7412C72.1107 29.5048 70.7268 29.7132 69.6824 30.2678L61.2409 14.37C65.926 11.8823 71.5418 11.0309 76.8325 12.0938L73.2873 29.7412ZM73.8347 21.7248C74.7975 26.9735 75.3346 32.3062 75.437 37.6123L57.4403 37.9594C57.3568 33.6294 56.9179 29.2667 56.1301 24.9728L73.8347 21.7248ZM75.438 37.6827C75.4418 38.0111 75.9692 45.9757 68.6312 49.9346L60.0845 34.0931C59.4542 34.4331 58.8703 34.9319 58.4077 35.5423C57.9655 36.1258 57.7315 36.6806 57.6091 37.072C57.4001 37.7399 57.4432 38.2388 57.4392 37.889L75.438 37.6827ZM68.6165 49.9425C64.0291 52.4065 59.5635 51.265 58.743 51.0881L62.5353 33.4922C62.9381 33.579 62.7074 33.507 62.3247 33.5057C61.8568 33.5042 61.0136 33.594 60.0991 34.0852L68.6165 49.9425ZM59.2708 51.1855C61.2506 51.4901 62.7782 50.7684 63.5193 50.2399C64.164 49.7802 64.4027 49.3683 64.4566 49.2741L48.8353 40.3312C50.1213 38.0849 54.4472 32.2318 62.0075 33.3948L59.2708 51.1855ZM64.6797 48.8595L63.6615 50.8759L47.5939 42.7622L48.6121 40.7458L64.6797 48.8595ZM63.7782 50.636C63.123 52.0352 61.705 55.2595 58.9484 58.0183L46.2154 45.2955C46.2674 45.2435 46.3998 45.0954 46.6161 44.7258C46.859 44.3107 47.0829 43.8441 47.4772 43.0021L63.7782 50.636ZM58.9619 58.0048C55.571 61.4128 50.5965 63.3381 45.7935 63.0745L46.7798 45.1015C46.6111 45.0923 46.5089 45.1064 46.4726 45.1126C46.4348 45.1191 46.4253 45.1241 46.4329 45.1212C46.4403 45.1183 46.4335 45.1196 46.4076 45.136C46.3827 45.1519 46.3082 45.2022 46.202 45.309L58.9619 58.0048ZM45.8839 63.079C41.8891 62.9 37.7662 61.2275 34.8919 57.7005L48.8451 46.3291C48.0249 45.3227 47.0541 45.1134 46.6894 45.097L45.8839 63.079ZM34.9237 57.7393C33.2817 55.7473 32.4528 53.6686 31.9869 52.064L49.273 47.0449C49.3062 47.1593 49.2134 46.7757 48.8133 46.2903L34.9237 57.7393ZM48.8038 51.3871C48.4718 52.9881 47.7489 57.1793 44.8947 60.8786L30.6434 49.8831C30.5642 49.9858 30.6116 49.9748 30.7224 49.643C30.8582 49.2364 30.9662 48.7573 31.179 47.7314L48.8038 51.3871ZM44.9114 60.8569C39.6089 67.773 31.1185 68.559 26.8569 68.8768L25.5186 50.9266C27.5675 50.7738 28.9201 50.5555 29.8575 50.2464C30.6831 49.9742 30.7188 49.7847 30.6266 49.9049L44.9114 60.8569ZM26.9008 68.8734C26.1682 68.9316 25.4608 68.9611 24.948 68.9833L24.1678 51.0002C24.7416 50.9753 25.1208 50.9581 25.4748 50.93L26.9008 68.8734ZM32.4714 59.4133C32.6171 60.1495 32.7987 61.0677 32.9545 62.062L15.1713 64.8474C15.0786 64.2554 14.9641 63.667 14.814 62.9086L32.4714 59.4133ZM32.9555 62.0685C33.5127 65.643 34.3365 70.1334 34.8724 74.2209L17.0252 76.561C16.5164 72.6803 15.8526 69.2184 15.1703 64.8409L32.9555 62.0685ZM34.8691 74.1957C35.2126 76.7597 35.1251 79.7028 35.1345 81.0969C35.1474 82.9948 35.2716 83.6921 35.3656 83.9748L18.2851 89.6544C17.2193 86.449 17.1487 83.2517 17.1349 81.2185C17.1178 78.6813 17.172 77.6567 17.0285 76.5862L34.8691 74.1957ZM35.37 83.988C35.6428 84.8128 36.1668 85.4565 38.4609 88.251C40.3728 90.5798 43.5294 94.5159 44.4367 100.267L26.6566 103.072C26.5634 102.481 26.2846 101.787 24.5486 99.6723C23.1948 98.0232 19.8584 94.4104 18.2807 89.6412L35.37 83.988ZM44.4363 100.265C44.7523 102.264 44.7338 104.204 44.7075 105.527C44.6762 107.105 44.6337 107.943 44.6718 108.869C44.7403 110.534 45.0258 109.897 44.3488 109.313L32.5881 122.94C27.6433 118.672 26.831 113.104 26.687 109.61C26.6189 107.956 26.6915 106.158 26.7111 105.17C26.7358 103.927 26.704 103.372 26.657 103.075L44.4363 100.265ZM44.3428 109.308C44.8007 109.702 44.84 109.657 44.5052 109.494C44.1761 109.333 43.0282 108.838 41.3389 108.979C39.445 109.136 37.8902 110.004 36.8601 111.01C35.9859 111.863 35.6463 112.651 35.5875 112.789C35.5105 112.969 35.5296 112.974 35.6112 112.644C35.6915 112.319 35.7673 111.948 35.8924 111.331C35.9989 110.806 36.1588 110.013 36.3627 109.232C36.5553 108.495 36.9002 107.31 37.5287 106.086L53.5395 114.311C53.8648 113.678 53.8522 113.336 53.533 114.91C53.3681 115.723 52.9684 117.922 52.1404 119.86C51.3563 121.696 48.81 126.42 42.8287 126.917C38.0726 127.312 34.4368 124.532 32.594 122.945L44.3428 109.308ZM37.5377 106.069C40.5636 100.21 46.4005 96.957 52.5106 97.3785C58.5601 97.7957 63.8795 101.749 66.1309 107.831L49.2506 114.08C49.2915 114.19 49.4549 114.508 49.8564 114.813C50.2398 115.105 50.7319 115.299 51.2721 115.336C51.8161 115.373 52.3603 115.248 52.8174 114.986C53.2943 114.713 53.4947 114.398 53.5305 114.329L37.5377 106.069ZM66.131 107.831C68.0869 113.114 68.2409 118.518 65.7165 123.553C63.4546 128.065 59.5946 131.089 56.3466 133.228L46.4444 118.197C47.6187 117.423 48.4125 116.797 48.945 116.287C49.4654 115.788 49.6082 115.521 49.6252 115.487C49.6316 115.474 49.6211 115.493 49.6113 115.533C49.6015 115.573 49.6049 115.583 49.6055 115.542C49.6066 115.458 49.5959 115.013 49.2505 114.08L66.131 107.831ZM56.3318 133.238C55.4965 133.786 54.9868 134.16 54.6549 134.443C54.3289 134.721 54.3873 134.736 54.5478 134.481C54.6363 134.34 54.7466 134.133 54.8415 133.864C54.9377 133.591 54.9989 133.309 55.0244 133.037C55.0769 132.479 54.9557 132.241 55.0355 132.478L37.9806 138.234C36.4207 133.612 36.7556 128.954 39.3183 124.886C41.4136 121.56 44.5754 119.423 46.4592 118.187L56.3318 133.238ZM55.0382 132.486C55.2658 133.162 54.4637 131.473 56.9905 134.816C58.1433 136.341 59.5634 138.809 59.6062 142.227C59.6441 145.259 58.5692 147.884 57.4762 149.912L41.6314 141.371C42.0702 140.557 41.5907 141.1 41.6076 142.452C41.6169 143.2 41.7753 143.941 42.0453 144.604C42.2938 145.214 42.5685 145.587 42.6307 145.669C42.6611 145.709 42.6426 145.679 42.3192 145.319C42.067 145.038 41.5858 144.507 41.0967 143.896C40.0249 142.556 38.8192 140.727 37.9778 138.226L55.0382 132.486ZM57.4909 149.884C57.1866 150.453 56.8859 150.968 56.6337 151.391C56.5082 151.602 56.3836 151.808 56.2781 151.983C56.1675 152.166 56.075 152.319 55.9879 152.466C55.6058 153.11 55.5636 153.242 55.5892 153.174C55.6496 153.013 55.8296 152.449 55.7793 151.651C55.7277 150.833 55.4686 150.31 55.3925 150.18L39.8548 159.267C38.7207 157.328 37.9646 155.156 37.815 152.785C37.6667 150.434 38.1477 148.412 38.7461 146.825C39.3095 145.33 40.0421 144.066 40.5094 143.278C41.0962 142.29 41.3245 141.945 41.6167 141.398L57.4909 149.884ZM55.3841 150.165C55.546 150.441 55.7246 150.662 56.0872 151.005C56.3217 151.228 56.5407 151.418 56.9722 151.799C57.3386 152.122 57.9155 152.632 58.496 153.23C59.7804 154.553 61.2487 156.46 62.086 159.203C62.8804 161.806 62.8851 164.436 62.5454 166.947L44.7079 164.534C44.8286 163.642 44.6695 163.801 44.8701 164.458C44.9734 164.797 45.1288 165.124 45.3087 165.404C45.4755 165.664 45.6066 165.794 45.5832 165.77C45.534 165.72 45.4222 165.612 45.0652 165.298C44.7734 165.04 44.2345 164.572 43.7006 164.066C42.5264 162.952 41.1268 161.433 39.8632 159.281L55.3841 150.165ZM62.546 166.943C61.2942 176.229 56.18 186.472 53.2827 192.837L36.9001 185.38C40.4131 177.662 43.905 170.49 44.7073 164.538L62.546 166.943ZM53.2833 192.836C48.3489 203.681 40.4242 214.318 34.8968 222.868L19.7809 213.095C26.3128 202.992 32.6964 194.619 36.8994 185.381L53.2833 192.836ZM34.9007 222.862C31.8488 227.59 30.4911 232.373 30.4774 237.964L12.4775 237.921C12.4992 229.006 14.7893 220.829 19.7771 213.101L34.9007 222.862ZM30.4774 237.962C30.4524 249.664 24.0634 257.05 20.0386 262.946L5.17256 252.797C10.5509 244.919 12.4671 242.792 12.4775 237.923L30.4774 237.962ZM20.0374 262.947C19.2089 264.16 19.0219 264.967 18.9876 265.438C18.9554 265.879 19.0134 266.583 19.6026 267.701L3.67843 276.093C1.73541 272.406 0.726478 268.365 1.03517 264.129C1.34173 259.923 2.90335 256.119 5.17378 252.795L20.0374 262.947ZM19.6092 267.714C20.0622 268.576 20.8545 269.494 22.6817 271.279C24.1753 272.738 26.9381 275.28 28.9179 278.479L13.612 287.951C13.0507 287.044 12.1922 286.195 10.1043 284.156C8.35002 282.442 5.60063 279.754 3.67183 276.08L19.6092 267.714ZM28.9145 278.473C33.9001 286.516 30.8345 294.848 29.4772 298.729C28.5988 301.242 28.0464 302.694 27.7291 304.156C27.4503 305.439 27.5813 305.841 27.595 305.884L10.4546 311.38C9.127 307.24 9.48152 303.363 10.1391 300.336C10.7581 297.486 11.8548 294.593 12.486 292.788C13.2431 290.623 13.5683 289.421 13.6471 288.547C13.6792 288.19 13.6512 288.039 13.647 288.019C13.6456 288.012 13.6448 288.009 13.6449 288.009C13.645 288.01 13.6451 288.01 13.6453 288.011C13.6454 288.011 13.6455 288.011 13.6456 288.011C13.6456 288.011 13.6456 288.012 13.6457 288.012C13.6457 288.012 13.6457 288.012 13.6457 288.012C13.6457 288.012 13.6457 288.012 13.6456 288.012C13.6456 288.011 13.6456 288.011 13.6455 288.011C13.6454 288.011 13.6451 288.01 13.6448 288.01C13.6441 288.008 13.6429 288.005 13.6409 288.001C13.6371 287.994 13.6292 287.979 13.6154 287.957L28.9145 278.473ZM27.5946 305.883C28.0716 307.369 29.1064 308.892 31.2648 312.325C32.959 315.02 35.752 319.514 36.2853 324.843L18.3747 326.635C18.3148 326.037 17.8761 324.848 16.0263 321.906C14.6409 319.702 11.8197 315.635 10.4551 311.381L27.5946 305.883ZM36.2853 324.843C36.7895 329.883 35.2512 336.891 31.8211 342.136L16.7567 332.284C17.2424 331.541 17.7305 330.405 18.0536 329.097C18.2077 328.473 18.3018 327.899 18.3474 327.424C18.3699 327.189 18.3787 326.998 18.38 326.854C18.3807 326.783 18.3795 326.728 18.3779 326.69C18.3763 326.651 18.3745 326.633 18.3747 326.635L36.2853 324.843ZM32.4759 334.683C33.3807 336.808 34.2497 339.391 34.5686 342.332L16.6736 344.272C16.6088 343.675 16.4013 342.878 15.9146 341.735L32.4759 334.683ZM34.5843 342.488L34.7082 343.854L16.7819 345.481L16.6579 344.115L34.5843 342.488ZM69.6824 30.2678C73.0559 28.4765 74.4084 24.8523 73.8347 21.7248L56.1301 24.9728C55.405 21.0201 57.1263 16.5547 61.2409 14.37L69.6824 30.2678ZM87.124 20.748C86.8253 22.2242 86.2063 23.5616 85.3729 24.6913L70.8887 14.0044C70.2241 14.9052 69.7239 15.9807 69.4816 17.1782L87.124 20.748ZM31.9869 52.064C33.2991 56.5834 37.3799 58.333 40.336 58.322C43.3528 58.3108 47.7199 56.3946 48.7876 51.464L31.1953 47.6546C32.3313 42.4082 36.9727 40.3344 40.2691 40.3222C43.5048 40.3101 47.8707 42.2152 49.273 47.0449L31.9869 52.064ZM113.521 9.97607C111.157 18.4276 121.264 24.754 127.833 18.9347L115.897 5.46113C122.763 -0.620873 133.326 5.99113 130.856 14.8242L113.521 9.97607ZM31.8211 342.136C33.2158 340.003 33.5537 337.215 32.4759 334.683L15.9146 341.735C14.5585 338.55 14.973 335.011 16.7567 332.284L31.8211 342.136ZM219.187 31.6479C220.897 36.5399 226.348 38.1756 230.341 36.1182L222.095 20.1178C227.206 17.4841 234.054 19.6293 236.179 25.7089L219.187 31.6479ZM76.776 29.8247C75.5569 30.0103 74.375 29.9597 73.2873 29.7412L76.8325 12.0938C75.9827 11.9231 75.0452 11.8807 74.0661 12.0298L76.776 29.8247ZM270.73 160.173C270.306 160.473 269.16 161.332 268.272 162.916L283.977 171.711C282.992 173.47 281.695 174.466 281.106 174.882L270.73 160.173ZM24.948 68.9833C29.9016 68.7684 33.4162 64.1861 32.4714 59.4133L14.814 62.9086C13.6354 56.9548 18.0114 51.2673 24.1678 51.0002L24.948 68.9833ZM286.036 306.866C281.701 306.984 278.256 310.531 278.252 314.857L296.252 314.872C296.248 320.28 291.941 324.712 286.524 324.859L286.036 306.866ZM169.25 19.6772C168.963 19.1083 168.756 18.5617 168.607 18.0658L185.842 12.8754C185.724 12.4824 185.557 12.0369 185.318 11.564L169.25 19.6772ZM50.4132 342.901C51.4122 343.8 52.2196 344.892 52.7872 346.11L36.4697 353.709C36.9237 354.684 37.5696 355.558 38.3689 356.277L50.4132 342.901ZM127.319 32.7521C128.683 33.4643 130.223 33.7682 131.755 33.6273L130.107 15.7029C132.022 15.5269 133.947 15.9067 135.651 16.7969L127.319 32.7521ZM42.6328 339.505C45.1621 339.463 47.6137 340.38 49.4936 342.072L37.4492 355.449C38.9531 356.803 40.9144 357.537 42.9378 357.503L42.6328 339.505ZM180.183 427.473C174.69 426.225 170.014 430.741 170.391 435.877L188.343 434.558C188.816 441.003 182.968 446.565 176.194 445.026L180.183 427.473ZM80.7345 22.3266C84.7157 21.845 87.789 18.4221 87.6871 14.2786L69.6926 14.7209C69.5632 9.45884 73.481 5.07273 78.5729 4.45681L80.7345 22.3266ZM167.769 15.1633C167.813 15.335 168.1 16.5014 168.956 17.7628L183.851 7.65609C184.778 9.02227 185.105 10.31 185.182 10.6043L167.769 15.1633ZM84.6485 25.6731C83.0767 27.8033 80.7244 29.2234 78.1072 29.6219L75.3973 11.8271C73.3036 12.1459 71.4217 13.282 70.1643 14.9862L84.6485 25.6731ZM154.125 422.821C150.958 420.295 146.966 420.773 144.464 422.655L155.287 437.038C151.977 439.528 146.856 440.048 142.899 436.892L154.125 422.821ZM37.7989 340.22C38.9055 339.785 40.0855 339.549 41.2888 339.528L41.5937 357.526C42.554 357.509 43.4983 357.32 44.3786 356.974L37.7989 340.22Z" fill="#FFBF02" mask="url(#path-1-outside-1_1088_25014)"/>
</svg>
