<svg xmlns="http://www.w3.org/2000/svg" width="80" height="105" fill="none" viewBox="0 0 80 105">
  <g class="1-24-ilus">
    <g class="&lt;Group&gt;">
      <path fill="#050505" d="M61.156 102.5c0-1.4-9.2-2.6-20.6-2.6-11.4 0-20.7 1.2-20.7 2.6 0 1.4 9.3 2.5 20.7 2.5 11.4 0 20.6-1.1 20.6-2.5Z" class="&lt;Path&gt;" opacity=".3"/>
      <g class="&lt;Group&gt;">
        <path fill="#050505" d="M41.856 63.1s-3.1-1-4.6-4.2c-.3-1-1.6-1.5-2.6-.5-1.5 1.3-1.2 5.3 1.8 6.7 3.1 1.4 6.5-1.5 5.4-2Z" class="&lt;Path&gt;"/>
        <path fill="#050505" d="M35.056 65.7s-2.4-1.6-2.4-3.8c0 0-1.1 3.3 2.4 3.8Z" class="&lt;Path&gt;" opacity=".2" style="mix-blend-mode:multiply"/>
      </g>
      <g class="&lt;Group&gt;">
        <g class="&lt;Group&gt;">
          <path fill="#803531" stroke="#050505" stroke-linecap="round" stroke-linejoin="round" stroke-width=".5" d="M61.556 71.9c-5 1.6-9.7 1.5-14.2.7-4.6-.7-3.6-7.1 1-6.3 4.5.8 6.5.9 11.1-.4 1-.3 2.9.2 3.5 2.4.6 2.1-.5 3.3-1.4 3.6Z" class="&lt;Path&gt;"/>
          <path fill="#050505" d="M61.556 71.9c-5 1.6-9.7 1.5-14.2.7-4.6-.7-3.6-7.1 1-6.3 1.7.3 1.3 4.9 3.1 5.2 2.7.6 7 .1 9.7-.7 1-.3 1.9-1.2 1.8-2.5.6 2.1-.5 3.3-1.4 3.6Z" class="&lt;Path&gt;" opacity=".4"/>
          <path fill="#050505" d="M55.756 67.7s.3 1.2-.8 1.6c0 0 .7.5.4 1.4-.3 1-1 .9-1 .9s.7.3.7.8c0 0 .4.3 1.8.6s1.9-.2 1.9-.2-.1 1.3.6 1.7l-.6.3-6.3-1.3 1.3-6.5 2 .7Z" class="&lt;Path&gt;" opacity=".2" style="mix-blend-mode:multiply"/>
        </g>
        <g class="&lt;Group&gt;">
          <g class="&lt;Path&gt;">
            <path fill="#803531" d="M59.456 65.9c.9-.2 2-.6 3.2-2 1.3-1.6 2.8-2.7 3.5-2.2 1 .8-1.2 2.9-.9 4.6.4 1.7.4 3.6-1.2 4.7-.7.4-1.5.7-2.3.9"/>
            <path stroke="#050505" stroke-linecap="round" stroke-linejoin="round" stroke-width=".5" d="M59.456 65.9c.9-.2 2-.6 3.2-2 1.3-1.6 2.8-2.7 3.5-2.2 1 .8-1.2 2.9-.9 4.6.4 1.7.4 3.6-1.2 4.7-.7.4-1.5.7-2.3.9"/>
          </g>
          <path fill="#803531" d="M58.656 69.4c.4 1.5 1.7 2.5 3 2.1 1.2-.3 1.9-1.8 1.5-3.3-.4-1.5-1.7-2.5-3-2.2-1.2.4-1.9 1.9-1.5 3.4Z" class="&lt;Path&gt;"/>
          <g class="&lt;Path&gt;">
            <path fill="#803531" d="m65.056 69.9.5-.7 1.6-1.4c.4-.5.5-1.2 0-1.6-.5-.4-1-.3-1.3-.2l-1.9 1"/>
            <path stroke="#050505" stroke-linecap="round" stroke-linejoin="round" stroke-width=".5" d="m65.056 69.9.5-.7 1.6-1.4c.4-.5.5-1.2 0-1.6-.5-.4-1-.3-1.3-.2l-1.9 1"/>
          </g>
        </g>
        <g class="&lt;Group&gt;">
          <g class="&lt;Group&gt;">
            <path fill="#803531" stroke="#050505" stroke-linecap="round" stroke-linejoin="round" stroke-width=".5" d="M51.356 97.7s-2.1-6.3-2.7-8c-.6-2.2-2.4-2.7-3.9-2.2-1.4.4-2.3 1.6-1.6 4 .7 2.3 2.5 8 2.5 8 1.1 3.5 7.1 1.7 5.7-1.8Z" class="&lt;Path&gt;"/>
            <path fill="#050505" d="M47.056 98.9c.9 1.7 4.1 1.7 2.4 2.2-1.5.5-3.3.1-3.8-1.6 0 0-1.8-5.7-2.5-8-.7-2.4.2-3.6 1.6-4 1.5-.5 3.3 0 3.9 2.2.8 2.4-3.4 2.2-2.9 3.7.2.7.7 4.2 1.3 5.5Z" class="&lt;Path&gt;" opacity=".4"/>
          </g>
          <g class="&lt;Group&gt;">
            <path fill="#EE4763" stroke="#050505" stroke-linecap="round" stroke-linejoin="round" stroke-width=".5" d="M44.956 102.5c0 .1.1.2.2.2l9.6.3c.1 0 .2-.1.2-.2v-.5c0-.1-.1-.2-.2-.2l-9.6-.3c-.1 0-.2.1-.2.2v.5Zm4.8-4.5s.1-1 .8-1.1c.5 0 1.5.1 1.8.1.6 0 .1.7 0 1.1-.2.4-.3 1.1 0 1.5l.9 1.4-1.2.5-2.3-2V98Z" class="&lt;Path&gt;"/>
            <path fill="#F69226" stroke="#050505" stroke-linecap="round" stroke-linejoin="round" stroke-width=".5" d="M45.156 101.8s0-1.7.1-2.2c0-.5.3-.7.8-.7s1 .4 2.1 0c1-.4 1.1-.7 1.6-.9.5-.1.5.1.6.6l.2 1 1.8 1.7v.8l-7.2-.3Z" class="&lt;Path&gt;"/>
            <path fill="#FEFEFE" stroke="#050505" stroke-linecap="round" stroke-linejoin="round" stroke-width=".5" d="M54.756 102.1c0-.3-1.1-1.1-1.5-1.1-1.1 0-1.9 1-1.9 1l3.4.1Z" class="&lt;Path&gt;"/>
            <path stroke="#050505" stroke-linecap="round" stroke-linejoin="round" stroke-width=".4" d="M50.056 99.8c.5-.6 1.9-.7 2.4-.5m-1.7 1c.5-.5 1.6-.6 2-.4m-1.4 1c.5-.6 1.4-.6 1.8-.4" class="&lt;Path&gt;"/>
            <path fill="#EE4763" stroke="#050505" stroke-linecap="round" stroke-linejoin="round" stroke-width=".4" d="M48.056 100c.8 0 1.2.1 1.6.5l1.7 1.5h-1.2l-1-1c-.2-.2-.567-.3-1.1-.3-.3 0-2.9-.1-2.9-.1l.1-.7s2.5 0 2.8.1Z" class="&lt;Path&gt;"/>
          </g>
        </g>
        <g class="&lt;Group&gt;">
          <g class="&lt;Group&gt;">
            <path fill="#803531" stroke="#050505" stroke-linecap="round" stroke-linejoin="round" stroke-width=".5" d="M30.856 97s2.5-6.2 3.2-7.9c.8-2.1 2.6-2.5 4.1-1.9 1.4.6 2.1 1.9 1.2 4.1-.8 2.3-3 7.9-3 7.9-1.3 3.4-7.2 1.1-5.5-2.2Z" class="&lt;Path&gt;"/>
            <path fill="#050505" d="M34.956 98.4c-1 1.7-4.2 1.5-2.6 2.1 1.5.6 3.3.3 4-1.3 0 0 2.2-5.6 3-7.9.9-2.2.2-3.5-1.2-4.1-1.5-.6-3.3-.2-4.1 1.9-.9 2.4 3.2 2.5 2.6 4-.3.7-1 4.1-1.7 5.3Z" class="&lt;Path&gt;" opacity=".4"/>
          </g>
          <g class="&lt;Group&gt;">
            <path fill="#EE4763" stroke="#050505" stroke-linecap="round" stroke-linejoin="round" stroke-width=".5" d="M36.856 102.2c-.1.1-.1.2-.2.2l-9.6-.4c-.1-.1-.2-.1-.2-.2v-.5c0-.1.1-.2.2-.2l9.6.4c.1 0 .2.1.2.2v.5Zm-4.5-4.8s0-1.1-.8-1.2h-1.7c-.6-.1-.2.7-.1 1.1.2.3.2 1-.1 1.4l-1 1.4 1.2.5 2.3-1.7.2-1.5Z" class="&lt;Path&gt;"/>
            <path fill="#F69226" stroke="#050505" stroke-linecap="round" stroke-linejoin="round" stroke-width=".5" d="M36.656 101.5s.1-1.7.1-2.2c0-.5-.3-.8-.8-.8s-1 .4-2.1-.2c-.9-.4-1-.7-1.5-.9-.5-.2-.5.1-.7.5l-.2 1-2 1.5v.8l7.2.3Z" class="&lt;Path&gt;"/>
            <path fill="#FEFEFE" stroke="#050505" stroke-linecap="round" stroke-linejoin="round" stroke-width=".5" d="M27.056 101.1c0-.3 1.2-1 1.6-1 1.1 0 1.8 1.2 1.8 1.2l-3.4-.2Z" class="&lt;Path&gt;"/>
            <path stroke="#050505" stroke-linecap="round" stroke-linejoin="round" stroke-width=".4" d="M31.856 99.1c-.4-.6-1.7-.8-2.3-.7m1.6 1.2c-.4-.6-1.6-.7-2-.6m1.3 1.1c-.4-.6-1.3-.7-1.7-.5" class="&lt;Path&gt;"/>
            <path fill="#EE4763" stroke="#050505" stroke-linecap="round" stroke-linejoin="round" stroke-width=".4" d="M33.856 99.4c-.7 0-1.1.1-1.6.5l-1.8 1.4h1.2l1.1-.9c.2-.133.567-.2 1.1-.2.3 0 2.9.1 2.9.1v-.7s-2.6-.2-2.9-.2Z" class="&lt;Path&gt;"/>
          </g>
        </g>
        <g class="&lt;Group&gt;">
          <g class="&lt;Group&gt;">
            <path fill="#EE4763" stroke="#050505" stroke-linecap="round" stroke-linejoin="round" stroke-width=".5" d="m51.356 84.4 2 5.4c-2.9 1.8-7.8 2.3-12.6 3.4l-.8-4.2c-.9-2.5 1.3-4.9 4.1-6.1 2.9-1.1 6.4-1 7.3 1.5Z" class="&lt;Path&gt;"/>
            <path stroke="#A0C7E9" stroke-dasharray=".8 .8" stroke-linecap="round" stroke-linejoin="round" stroke-width=".4" d="M52.356 89s-2.5 1.3-11.1 3.2" class="&lt;Path&gt;"/>
            <path fill="#050505" d="M51.356 84.4c.9 2.7-3.6 7-4.9 7.5-1.7.6-3.9.9-5.8 1.4l-.7-4.3c-.9-2.5 1.3-4.9 4.1-6.1 2.9-1.1 6.4-1 7.3 1.5Z" class="&lt;Path&gt;" opacity=".4"/>
          </g>
          <g class="&lt;Group&gt;">
            <path fill="#EE4763" stroke="#050505" stroke-linecap="round" stroke-linejoin="round" stroke-width=".5" d="m30.256 87-.5 3.5c3.2 1.1 8 1.7 13 1.6l.2-2.8c.2-2.7-2.6-5-5.6-5.4-3.1-.4-6.8.5-7.1 3.1Z" class="&lt;Path&gt;"/>
            <path stroke="#A0C7E9" stroke-dasharray=".8 .8" stroke-linecap="round" stroke-linejoin="round" stroke-width=".4" d="M30.456 89.5s2.9 1.8 11.7 1.6" class="&lt;Path&gt;"/>
            <path fill="#050505" d="m30.256 87-.5 3.5c1 .3 2.4 1.1 3.6 1.3-.1-3.7.3-7.5 4-7.9-3.1-.4-6.8.5-7.1 3.1Z" class="&lt;Path&gt;" opacity=".4"/>
          </g>
          <g class="&lt;Group&gt;">
            <path fill="#F69226" stroke="#050505" stroke-linecap="round" stroke-linejoin="round" stroke-width=".5" d="M40.856 88.6c8.9-.2 9.8-3.5 10.3-6.1.4-4.5-.6-11.9-1.4-14.5-1.2-4.4-4.6-5.9-9.6-5.8-4.9.1-9.9 1.8-10 6.3-.1 3.7.3 10.1.1 14.5.3 4.1 1.8 5.9 10.6 5.6Z" class="&lt;Path&gt;"/>
            <path fill="#050505" d="M40.856 88.6c7.3-.1 2.2-13.5-2.6-14.1 0 0-1.7 4.5-2.2 6-.7 2.1-3 2.3-2.6-.2.8-4.6 3.4-7.5 1.4-11.7-1.9-4.1 10.3-6.5 5.3-6.4-4.9.1-10 1.8-10.1 6.3-.1 3.7.8 10.6 0 14.5.2 4 2 5.9 10.8 5.6Z" class="&lt;Path&gt;" opacity=".4"/>
            <path fill="#803531" stroke="#050505" stroke-width=".5" d="M46.256 65.4c1.2 3.3.4 6.1-2.4 6.1-2.7.1-5.9-2.5-7-5.8-1.1-3.3.1-3.4 2.8-3.5 2.8-.1 5.5-.1 6.6 3.2Z" class="&lt;Path&gt;"/>
            <path fill="#EE4763" stroke="#050505" stroke-linecap="round" stroke-linejoin="round" stroke-width=".5" d="M50.056 75c-.2-3.4-.5-7.5-3-11.4l-1.6 1.3c2.2 3.5 2.4 7.3 2.6 10.2l2-.1Z" class="&lt;Path&gt;"/>
            <path fill="#EE4763" d="M51.856 83.2c-.6-3.4-2.1-8.5-2.1-8.5s-2.3.6-4.8.7c-2.4 0-6.2-.4-6.2-.4l-2.7 8.3s-4.3.2-5.9-.8c-.1 1.7 0 2.9.1 4.5 1.1 2 8 2.8 11.9 2.7 5.2-.1 10.5-.9 9.7-6.5Z" class="&lt;Path&gt;"/>
            <path fill="#050505" d="M34.056 83.3s-2.7-.2-3.9-.8c-.1 1.7 0 2.9.1 4.5.4.8 1.6 1.3 3.1 1.8-.5-1.5.1-4.6.7-5.5Z" class="&lt;Path&gt;" opacity=".4"/>
            <path stroke="#050505" stroke-linecap="round" stroke-linejoin="round" stroke-width=".5" d="M30.256 87c-.1-1.4-.2-3.1-.1-4.5 1.6 1 5.9.8 5.9.8l2.7-8.3s3.8.4 6.2.4c2.5-.1 4.8-.7 4.8-.7s1.5 5.1 2.1 8.5c.8 5.6-4.5 6.4-9.7 6.5" class="&lt;Path&gt;"/>
            <path fill="#EE4763" stroke="#050505" stroke-linecap="round" stroke-linejoin="round" stroke-width=".5" d="M40.356 75c-.1-3.7-2.6-7.6-5.8-11.8l-1.9 1.6c2.8 3.7 5.1 7.1 5.2 10.6l2.5-.4Z" class="&lt;Path&gt;"/>
            <path fill="#6ECFF5" stroke="#050505" stroke-linecap="round" stroke-linejoin="round" stroke-width=".5" d="M37.356 75.3c0 .9.8 1.6 1.6 1.6.9-.1 1.6-.8 1.6-1.7 0-.9-.8-1.6-1.6-1.5-.9 0-1.6.7-1.6 1.6Z" class="&lt;Path&gt;"/>
            <path fill="#050505" d="M37.856 76.4c.6.6 1.7.6 2.3 0 0 0-1.2.1-1.8-.5-.7-.6-.6-1.7-.6-1.7-.6.6-.5 1.6.1 2.2Z" class="&lt;Path&gt;" opacity=".4"/>
            <path fill="#6ECFF5" stroke="#050505" stroke-linecap="round" stroke-linejoin="round" stroke-width=".5" d="M48.156 75.3c.2.8.9 1.4 1.5 1.3.7-.2 1.1-1 .9-1.9-.2-.8-.9-1.4-1.5-1.3-.7.2-1.1 1-.9 1.9Z" class="&lt;Path&gt;"/>
            <path fill="#050505" d="M48.756 76.3c.6.5 1.3.3 1.7-.4 0 0-.8.3-1.4-.2-.6-.5-.8-1.6-.8-1.6-.3.7-.1 1.7.5 2.2Z" class="&lt;Path&gt;" opacity=".4"/>
            <g class="&lt;Group&gt;">
              <g class="&lt;Group&gt;">
                <path stroke="#A0C7E9" stroke-linecap="round" stroke-linejoin="round" stroke-width=".4" d="m38.256 83.8-.4-.1.1-.5" class="&lt;Path&gt;"/>
                <path stroke="#A0C7E9" stroke-dasharray="1.2 1.2" stroke-linecap="round" stroke-linejoin="round" stroke-width=".4" d="m38.356 82.2 1.1-3.5" class="&lt;Path&gt;"/>
                <path stroke="#A0C7E9" stroke-linecap="round" stroke-linejoin="round" stroke-width=".4" d="m39.556 78.1.2-.4h.4" class="&lt;Path&gt;"/>
                <path stroke="#A0C7E9" stroke-dasharray=".8 .8" stroke-linecap="round" stroke-linejoin="round" stroke-width=".4" d="m41.156 77.7 3.4-.1 4.1-.1" class="&lt;Path&gt;"/>
                <path stroke="#A0C7E9" stroke-linecap="round" stroke-linejoin="round" stroke-width=".4" d="M49.156 77.5h.5l.1.4" class="&lt;Path&gt;"/>
                <path stroke="#A0C7E9" stroke-dasharray="1.2 1.2" stroke-linecap="round" stroke-linejoin="round" stroke-width=".4" d="m49.956 78.9.9 3.5" class="&lt;Path&gt;"/>
                <path stroke="#A0C7E9" stroke-linecap="round" stroke-linejoin="round" stroke-width=".4" d="m50.956 82.9.1.4-.4.2" class="&lt;Path&gt;"/>
                <path stroke="#A0C7E9" stroke-dasharray=".8 .8" stroke-linecap="round" stroke-linejoin="round" stroke-width=".4" d="m49.856 83.8-5.1 2.1-6.1-2" class="&lt;Path&gt;"/>
              </g>
            </g>
            <path fill="#050505" d="M31.456 65.3c6.5 9.2 19.6 4.2 17.6.8-3.4-5.7-19.4-3.3-17.6-.8Z" class="&lt;Path&gt;" opacity=".4"/>
          </g>
        </g>
        <g class="&lt;Group&gt;">
          <path fill="#050505" d="M45.156 60.7s-3.1-.1-5.3-2.8c-.5-.8-1.8-.9-2.5.2-1.1 1.7.2 5.3 3.3 5.8 3.3.6 5.7-3.1 4.5-3.2Z" class="&lt;Path&gt;"/>
          <path fill="#050505" d="M39.556 64.9s-2.6-.9-3.2-3c0 0-.2 3.4 3.2 3Z" class="&lt;Path&gt;" opacity=".2" style="mix-blend-mode:multiply"/>
        </g>
      </g>
      <g class="&lt;Group&gt;">
        <g class="&lt;Group&gt;">
          <path fill="#803531" stroke="#050505" stroke-width=".5" d="M22.256 50.3c.5 10.6 8.2 18.6 20.2 18.4 15.8-.2 18.2-8.7 18.5-20.1.2-10.6-9.5-18.8-20.2-18.3-10.7.4-19 9.4-18.5 20Z" class="&lt;Path&gt;"/>
          <path fill="#050505" d="M40.756 30.3c10.7-.5 20.4 7.7 20.2 18.3 0 .6-.033 1.2-.1 1.8-1 .9-6-1.1-4.9-4-1.9 2.4-5.9.9-7.5-1.2-1.8 2.9-5 2.5-6 1.5.8 1.2-2.2 4.9-5.3 3.7 2.6 3.5-2.2 7.7-3.3 7-1.9 2.9-.8 6.4.7 8.1 1.7 1.8 5.8 3 7.6 3.2h-.5c-11.5-.2-18.9-8-19.4-18.4-.5-10.6 7.8-19.6 18.5-20Z" class="&lt;Path&gt;" opacity=".2" style="mix-blend-mode:multiply"/>
        </g>
        <g class="&lt;Group&gt;">
          <g class="&lt;Group&gt;">
            <path fill="#FEFEFE" d="M55.356 56s1.1-5.5 4.3-3.4c0 0-.1 3.6-2.5 4.3-1.1.3-1.8-.9-1.8-.9Z" class="&lt;Path&gt;"/>
          </g>
          <path fill="#FEFEFE" d="M49.156 55.5s-.7-5.6-7.9-4.3c0 0-.3 4.3 3.4 5.1 3.6.7 4.5-.8 4.5-.8Z" class="&lt;Path&gt;"/>
        </g>
        <g class="&lt;Group&gt;">
          <path fill="#050505" d="M54.856 58.5s-.4.8-1.9.8c-1.4 0-2.5-.9-2.5-.9s.1 1.5 1.3 2c1.1.4 2.4-.3 3.1-1.9Z" class="&lt;Path&gt;" opacity=".2" style="mix-blend-mode:multiply"/>
          <path fill="#050505" d="M50.156 58.1s.3 1.7 2.7 1.7c1.6 0 2-1.5 2-1.5s-.8.6-1.8.5c-1.3-.1-2.9-.7-2.9-.7Z" class="&lt;Path&gt;"/>
        </g>
        <g class="&lt;Group&gt;">
          <path fill="#050505" d="m25.956 59.4-7.6-8.5.3-11.6 12.2-14.6s14.9-.6 15.2-.6c.3.1 13.1 2.8 13.1 3.1-.1.3 5.4 8.7 5.4 8.7l-.2 7.9-4.1 1.6-6.7-6.8-23.1 9.7-4.5 11.1Z" class="&lt;Path&gt;"/>
          <g class="&lt;Group&gt;">
            <path fill="#050505" d="M28.656 59.2c-.2 2-2 3.5-4 3.3-2.1-.1-3.5-1.9-3.4-4 .2-2 2-3.5 4.1-3.3 2 .2 3.5 2 3.3 4Z" class="&lt;Path&gt;"/>
            <path fill="#050505" d="M30.256 54.4c-.2 1.8-1.8 3.1-3.6 3-1.8-.2-3.1-1.8-2.9-3.6.1-1.8 1.7-3.1 3.5-3 1.9.2 3.2 1.8 3 3.6Zm10.2-30.1c-.4 3.4-3.3 5.8-6.6 5.5-3.4-.3-5.8-3.3-5.5-6.6.3-3.3 3.3-5.8 6.6-5.5 3.3.4 5.8 3.3 5.5 6.6Zm23.2 20.8c-.2 1.8-1.8 3.1-3.6 2.9-1.8-.2-3.1-1.8-2.9-3.6.1-1.8 1.7-3.1 3.5-2.9 1.9.2 3.2 1.8 3 3.6Zm-22.3-.9c-.2 2-1.9 3.4-3.9 3.2-2-.1-3.4-1.9-3.2-3.9.2-1.9 1.9-3.4 3.9-3.2 2 .2 3.4 1.9 3.2 3.9Z" class="&lt;Path&gt;"/>
            <path fill="#050505" d="M48.656 40.2c-.2 2.6-2.5 4.5-5.2 4.3-2.6-.3-4.5-2.6-4.3-5.2.3-2.6 2.6-4.5 5.2-4.3 2.7.3 4.6 2.6 4.3 5.2Zm12.3 7.7c2 .2 3.5 2 3.3 4-.2 2-2 3.5-4 3.3 0 0 .6-3.1.7-7.3Zm3.5-20c-.3 3.3-3.2 5.7-6.5 5.4-3.3-.3-5.7-3.2-5.4-6.5.3-3.3 3.2-5.7 6.5-5.4 3.3.3 5.7 3.2 5.4 6.5Zm-38.7 27.2c-.3 2.9-2.9 5.1-5.8 4.8-3-.3-5.1-2.9-4.8-5.8.2-3 2.8-5.1 5.8-4.8 2.9.3 5 2.9 4.8 5.8Zm10.1-7.2c-.3 2.9-2.9 5-5.8 4.8-2.9-.3-5.1-2.9-4.8-5.8.3-3 2.9-5.1 5.8-4.8 2.9.2 5.1 2.8 4.8 5.8Zm-4.5-20c-.3 3-2.9 5.1-5.8 4.8-2.9-.2-5.1-2.8-4.8-5.8.3-2.9 2.9-5 5.8-4.8 2.9.3 5.1 2.9 4.8 5.8Z" class="&lt;Path&gt;"/>
            <path fill="#050505" d="M69.356 44.2c-.3 2.9-2.9 5.1-5.8 4.8-2.9-.3-5.1-2.9-4.8-5.8.3-2.9 2.9-5.1 5.8-4.8 2.9.3 5.1 2.9 4.8 5.8Zm-45.6 1.7c-.3 3.6-3.6 6.3-7.2 5.9-3.6-.3-6.3-3.5-5.9-7.2.3-3.6 3.5-6.3 7.2-5.9 3.6.3 6.3 3.6 5.9 7.2Z" class="&lt;Path&gt;"/>
            <path fill="#050505" d="M60.356 39c-.4 3.6-3.6 6.3-7.2 5.9-3.6-.3-6.3-3.6-6-7.2.4-3.6 3.6-6.3 7.2-6 3.7.4 6.3 3.6 6 7.3Z" class="&lt;Path&gt;"/>
            <path fill="#050505" d="M69.056 35.2c-.3 3.6-3.5 6.3-7.2 6-3.6-.4-6.3-3.6-5.9-7.3.3-3.6 3.5-6.3 7.2-5.9 3.6.3 6.3 3.6 5.9 7.2Zm-11.5-9.6c-.5 4.9-5.4 8.5-11.1 7.9-5.7-.5-9.9-4.9-9.5-9.8.5-5 5.5-8.5 11.2-8 5.7.6 9.9 5 9.4 9.9Zm-31.5 9.3c-.3 3.5-3.4 6-6.8 5.7-3.5-.3-6-3.4-5.7-6.8.3-3.5 3.4-6 6.8-5.7 3.5.3 6 3.4 5.7 6.8Z" class="&lt;Path&gt;"/>
          </g>
          <path stroke="#38170E" stroke-linecap="round" stroke-linejoin="round" stroke-width=".5" d="M23.556 52.9c1 .9 2.5.7 3.4-.3.9-1 .7-2.5-.3-3.3-1-.9-2.5-.8-3.4.2m1.2-15.1c-.2-2.2-2.2-4-4.4-3.8-2.3.2-4 2.1-3.8 4.4m30.3.1c-.8-2.6-3.6-4.1-6.2-3.3-2.7.7-4.2 3.5-3.4 6.2m-4.4-5.5c-.1-1.5-1.4-2.6-2.8-2.5-1.5.1-2.6 1.4-2.5 2.9m39.9 13.7c1-2.2 0-4.9-2.2-5.9m-38.4-16.5c-1.9.1-3.4 1.8-3.2 3.7m31.3 5.8c-.1-3.6-3.2-6.4-6.8-6.3" class="&lt;Path&gt;"/>
          <path stroke="#38170E" stroke-linecap="round" stroke-linejoin="round" stroke-width=".7" d="M30.456 50.9c1.9 0 3.5-1.5 3.5-3.5" class="&lt;Path&gt;"/>
          <path stroke="#38170E" stroke-linecap="round" stroke-linejoin="round" stroke-width=".5" d="M59.256 46.4c.8.8 2 .8 2.8 0 .8-.8.8-2.1 0-2.9m-33.4 2.2c2.5-.2 4.4-2.4 4.2-4.9-.2-2.4-2.3-4.3-4.8-4.2-2.5.2-4.4 2.4-4.2 4.9m-1.1 17.3c-.3 1.1.3 2.3 1.5 2.5 1.1.3 2.2-.4 2.5-1.5" class="&lt;Path&gt;"/>
          <path stroke="#38170E" stroke-linecap="round" stroke-linejoin="round" stroke-width=".7" d="M19.156 50.8c-2 .9-2.8 3.3-1.9 5.2.9 1.9 3.2 2.8 5.2 1.9m39.3-30c.7-1.7 0-3.6-1.7-4.4-.8-.3-1.7-.3-2.5 0m-23.2 6.2c2.6.3 4.9-1.5 5.2-4 .3-2.6-1.5-4.9-4.1-5.2-2.6-.4-4.9 1.5-5.2 4m9.9-3.4c1.5-1.5 3.7-2.6 6.2-2.7 4.8-.4 8.5 2.8 8.8 7.1m-17.7 20.6c1.5-.1 2.6-1.3 2.5-2.8-.1-1.5-1.4-2.6-2.8-2.5-1.5.2-2.6 1.4-2.5 2.9m27.3 9.9c1.2-.9 1.4-2.6.6-3.7m.5-10.1c2.9-.2 5.1-2.7 4.9-5.6-.3-2.9-2.8-5.1-5.7-4.9-2.9.2-5 2.7-4.8 5.6m-7.8 0c-1.7 2.3-1.3 5.6 1 7.4 2.3 1.8 5.6 1.4 7.4-.9m-37.4.1c-2.1-1.5-5.1-1-6.6 1.2-1.5 2.1-1 5.1 1.1 6.6" class="&lt;Path&gt;"/>
        </g>
        <g class="&lt;Group&gt;">
          <path fill="#855226" d="M58.356 54.8c-.4 1.1-1.2 1.8-1.8 1.6-.6-.2-.8-1.3-.4-2.4.4-1.2 1.2-1.9 1.8-1.6.7.2.8 1.3.4 2.4Z" class="&lt;Path&gt;"/>
          <path fill="#050505" d="M57.556 54.5c-.1.4-.3.7-.6.7-.4 0-.6-.3-.6-.6 0-.4.3-.8.6-.8s.6.3.6.7Z" class="&lt;Path&gt;"/>
          <path fill="#FEFEFE" d="M58.056 53.6c0 .2-.1.4-.2.4s-.2-.2-.1-.5c0-.2.1-.4.2-.4s.2.2.1.5Z" class="&lt;Path&gt;"/>
        </g>
        <g class="&lt;Group&gt;">
          <path fill="#855226" d="M42.456 53c-.2 1.3.5 2.4 1.7 2.6 1.2.2 2.4-.6 2.6-1.9.2-1.2-.6-2.4-1.8-2.6-1.2-.2-2.3.6-2.5 1.9Z" class="&lt;Path&gt;"/>
          <path fill="#050505" d="M43.856 53.3c0 .4.3.7.6.8.4 0 .7-.3.8-.7 0-.4-.3-.8-.7-.8-.3 0-.7.3-.7.7Z" class="&lt;Path&gt;"/>
          <path fill="#FEFEFE" d="M45.156 52.6c0 .2.2.4.4.4.2.1.4-.1.4-.4.1-.2-.1-.4-.3-.4-.2 0-.4.1-.5.4Z" class="&lt;Path&gt;"/>
        </g>
        <g class="&lt;Group&gt;">
          <g class="&lt;Group&gt;">
            <path stroke="#050505" stroke-linecap="round" stroke-linejoin="round" stroke-width=".5" d="m60.556 50.2-1 2.3s-3.1-1.6-4.2 3.5" class="&lt;Path&gt;"/>
            <path stroke="#050505" stroke-linecap="round" stroke-linejoin="bevel" stroke-width=".5" d="m59.256 50.7-.5 1.6" class="&lt;Path&gt;"/>
          </g>
          <path stroke="#050505" stroke-linecap="round" stroke-linejoin="round" stroke-width=".8" d="m39.656 49.2 1.7 1.9s6.8-.8 7.8 4.4" class="&lt;Path&gt;"/>
          <path stroke="#050505" stroke-linecap="round" stroke-linejoin="bevel" stroke-width=".8" d="m41.656 49.2.9 1.8" class="&lt;Path&gt;"/>
        </g>
        <path stroke="#050505" stroke-linecap="round" stroke-width=".6" d="M56.856 48.6s2.1-1.8 2.9.5" class="&lt;Path&gt;"/>
        <path stroke="#050505" stroke-linecap="round" stroke-width=".9" d="M49.056 47.9s-2.5-2.7-5.6-.2" class="&lt;Path&gt;"/>
      </g>
      <path stroke="#050505" stroke-linecap="round" stroke-linejoin="bevel" stroke-width=".5" d="M49.556 63.3s-3.4.6-6.6-1" class="&lt;Path&gt;"/>
      <g class="&lt;Group&gt;">
        <path fill="#803531" stroke="#050505" stroke-linecap="round" stroke-linejoin="round" stroke-width=".6" d="M21.856 59.7c1.3 5.2 3.9 9.1 7 12.7 3.1 3.6 8.1-.8 5-4.3-3.1-3.5-4.3-5.2-5.6-9.8-.3-1-1.8-2.4-4-1.8-2.1.6-2.6 2.2-2.4 3.2Z" class="&lt;Path&gt;"/>
        <path fill="#050505" d="M21.856 59.7c1.3 5.2 3.9 9.1 7 12.7 3.1 3.6 8.1-.8 5-4.3-1.2-1.3-5 1.5-6.3.1-1.9-2.1-3.7-6-4.5-8.8-.3-1 0-2.2 1.2-2.9-2.1.6-2.6 2.2-2.4 3.2Z" class="&lt;Path&gt;" opacity=".4"/>
        <path fill="#050505" d="M28.656 62.5s-1.2.4-1 1.5c0 0-.8-.4-1.5.4-.6.8-.1 1.3-.1 1.3s-.7-.4-1.2-.2c0 0-.4-.2-1.4-1.2-1-1.1-.8-1.7-.8-1.7s-1.1.8-1.8.4l.1.6 4.4 4.8 5-4.6-1.7-1.3Z" class="&lt;Path&gt;" opacity=".2" style="mix-blend-mode:multiply"/>
      </g>
      <g class="&lt;Group&gt;">
        <g class="&lt;Group&gt;">
          <path fill="#803531" stroke="#050505" stroke-linecap="round" stroke-width=".6" d="M21.956 54.7c-1.4 1.6-1.3 4 .2 5.3 1.5 1.2 3.8.9 5.2-.7 1.4-1.7 1.3-4.1-.2-5.3-1.5-1.3-3.8-1-5.2.7Z" class="&lt;Path&gt;"/>
          <path fill="#803531" stroke="#050505" stroke-linecap="round" stroke-width=".6" d="M27.156 56c-.6 0-1 .5-1 1.1 0 .6.5 1 1.1 1h1.2c.6 0 1.1-.5 1-1.1 0-.6-.5-1-1.1-1h-1.2Z" class="&lt;Path&gt;"/>
          <path fill="#050505" d="M21.656 56.3s-.2 1.7 1.2 2.6c1.5.9 2.9-.7 2.9-.7s-.6-.8.1-1.4c0 0 .1 1.5 1.5 1.3l.2 1s-2.3 2.8-4.9 1.2c-2.6-1.7-1.3-3.7-1-4Z" class="&lt;Path&gt;" opacity=".2" style="mix-blend-mode:multiply"/>
        </g>
      </g>
    </g>
  </g>
</svg>
