<svg xmlns="http://www.w3.org/2000/svg" width="127" height="37" fill="none" viewBox="0 0 127 37">
  <g class="1-24-texto">
    <g class="Group 108">
      <g class="&lt;Group&gt;">
        <path fill="#FEFEFE" fill-rule="evenodd" d="M36.45 4c1 0 2.1-.1 1.9 3.1-.2 2.9-1.2 3.1-2.7 3.2l-.5.1.4-6.3.9-.1Zm-.1.7-.4 4.9c1.4-.1 1.4-1.4 1.5-2.5 0-.9.2-2.6-1.1-2.4Z" class="&lt;Compound Path&gt;" clip-rule="evenodd"/>
        <path fill="#FEFEFE" d="M39.55 10h-.8l.4-6.2.8-.1-.4 6.3Zm0-6.5-.4-.2.7-1.3.6.4-.9 1.1Z" class="&lt;Compound Path&gt;"/>
        <path fill="#FEFEFE" fill-rule="evenodd" d="m42.25 3.5.9 6.1-.8.1-.1-1.2-1.3.1-.3 1.3h-.8l1.8-6.3.6-.1Zm-.3 3.5-.1-2.3-.7 3.2.9-.1-.1-.8Z" class="&lt;Compound Path&gt;" clip-rule="evenodd"/>
        <path fill="#FEFEFE" d="m46.35 3.2.5 4.4h.1v-.3l.3-1.5.8-2.8.7-.1.1 6.2-.8.1V6.9l.1-1.2v-.8l-.2.9-.9 3.5h-.5l-.5-4.2h-.1l-.5 4.3-.8.1 1-6.3h.7Zm4.3-.4-.3 4.5c-.1.8.1 1 .5 1 .5-.1.6-.5.6-1l.3-4.6.9-.1-.3 4.4c-.1.8-.2 1.9-1.6 2-1.3.2-1.3-.7-1.2-1.9l.2-4.3h.9Zm3.3 1.5v2.1l-.1 2.3-.9.1.5-6.3.7-.1 1.2 4.7V7l-.1-2.4.2-2.3h.8l-.4 6.2-.8.1-1.1-4.7v.4Z" class="&lt;Compound Path&gt;"/>
        <path fill="#FEFEFE" fill-rule="evenodd" d="M57.95 2.1c1-.1 2.1-.1 1.9 3-.2 2.9-1.2 3.1-2.6 3.3h-.6l.4-6.2.9-.1Zm-.1.7-.4 4.8c1.4 0 1.4-1.3 1.5-2.4 0-1 .3-2.6-1.1-2.4Z" class="&lt;Compound Path&gt;" clip-rule="evenodd"/>
        <path fill="#FEFEFE" d="m61.05 8-.8.1.4-6.2.8-.1-.4 6.2Z" class="&lt;Compound Path&gt;"/>
        <path fill="#FEFEFE" fill-rule="evenodd" d="m63.75 1.6.9 6.1-.8.1-.1-1.2-1.3.1-.3 1.2-.8.1 1.8-6.4h.6Zm-.3 3.5-.1-2.2-.7 3.2 1-.1-.2-.9Z" class="&lt;Compound Path&gt;" clip-rule="evenodd"/>
        <path fill="#FEFEFE" d="m66.25 1.3-.4 5.6 1.4-.1v.7l-2.2.2.4-6.3.8-.1Z" class="&lt;Compound Path&gt;"/>
        <path fill="#FEFEFE" fill-rule="evenodd" d="M70.35 1c.9-.1 2-.1 1.8 3-.2 2.9-1.1 3.1-2.6 3.3h-.5l.4-6.2.9-.1Zm-.2.7-.3 4.8c1.3-.1 1.4-1.4 1.5-2.4 0-1 .2-2.6-1.2-2.4Z" class="&lt;Compound Path&gt;" clip-rule="evenodd"/>
        <path fill="#FEFEFE" d="m75.25.5-.1.8-1.4.1-.1 2 1.2-.2V4l-1.2.1-.2 2.1 1.4-.1v.7l-2.2.2.4-6.3 2.2-.2Zm2.7-.2-.4 5.5 1.4-.1-.1.7-2.1.2.4-6.2.8-.1Z" class="&lt;Compound Path&gt;"/>
        <path fill="#FEFEFE" fill-rule="evenodd" d="m81.15 0 .9 6.1-.8.1-.2-1.2-1.2.1-.3 1.3h-.8l1.7-6.3.7-.1Zm-.2 3.4-.2-2.2-.7 3.2 1-.1-.1-.9Z" class="&lt;Compound Path&gt;" clip-rule="evenodd"/>
      </g>
      <g class="&lt;Group&gt;">
        <g class="&lt;Group&gt;">
          <path fill="#EC5D23" d="M119.8 24.7 2.2 35.1l.1-4.8 117-10.3.5 4.7Z" class="&lt;Path&gt;"/>
        </g>
        <g class="&lt;Group&gt;">
          <g class="&lt;Group&gt;">
            <path fill="#FEFEFE" fill-rule="evenodd" d="m9 28.3 2.5 7.4-2.5.2-.2-.8-2.5.3-.3.8-2.4.2 3.1-7.9 2.3-.2Zm-1.8 4.9 1-.1-.5-1.6-.5 1.7Z" class="&lt;Compound Path&gt;" clip-rule="evenodd"/>
            <path fill="#FEFEFE" d="m14.4 35.4-2.2.2.3-7.6 5.5-.5-.1 2.1-3.2.3V31l2.9-.3-.1 2-2.9.3-.2 2.4Z" class="&lt;Compound Path&gt;"/>
            <path fill="#FEFEFE" fill-rule="evenodd" d="m25.4 34.4-2.8.3-1.4-1.8h-.3v1.9l-2.3.3.4-7.7 3.1-.3h.6c.4.1.7.1 1.2.4.4.2.7.6.9 1.2.133.267.2.6.2 1-.067 1.067-.533 1.9-1.4 2.5l1.8 2.2Zm-4.3-5.1v1.4l.8-.1c.4 0 .633-.233.7-.7 0-.5-.2-.7-.6-.7l-.9.1Zm8.7-3c1.133-.133 2.067.167 2.8.9.733.667 1.067 1.567 1 2.7a4.33 4.33 0 0 1-1.3 2.9c-.8.867-1.766 1.333-2.9 1.4-1.133.133-2.067-.167-2.8-.9-.667-.667-1-1.567-1-2.7a4.33 4.33 0 0 1 1.3-2.9c.8-.867 1.767-1.333 2.9-1.4Zm-.3 5.8c.467-.067.867-.3 1.2-.7.333-.333.534-.767.6-1.3 0-.533-.166-.933-.5-1.2-.267-.333-.633-.5-1.1-.5-.467.067-.866.3-1.2.7-.333.333-.5.767-.5 1.3-.067.533.067.933.4 1.2.334.333.7.5 1.1.5Zm5 1.5.4-7.6 3-.3c1.133-.133 2.033.133 2.7.8.667.667.967 1.567.9 2.7a4.444 4.444 0 0 1-1.2 2.8c-.733.8-1.667 1.233-2.8 1.3l-3 .3Zm2.5-5.7-.1 3.4.7-.1c.467 0 .833-.2 1.1-.6.267-.333.433-.733.5-1.2 0-.467-.133-.833-.4-1.1-.2-.333-.533-.467-1-.4H37Z" class="&lt;Compound Path&gt;" clip-rule="evenodd"/>
            <path fill="#FEFEFE" d="m44.8 27.2-.1.7 3-.2-.1 1.9-3 .3v.7l3.2-.3-.1 2.1-5.5.5.4-7.6 5.5-.5-.1 2.1-3.2.3Zm5.3 2.2c.533.533 1.133.767 1.8.7.4-.067.633-.2.7-.4 0-.133-.133-.233-.4-.3a7.088 7.088 0 0 1-.9-.3 3.142 3.142 0 0 1-1-.4c-.4-.133-.7-.367-.9-.7-.267-.267-.367-.633-.3-1.1 0-.467.2-.967.6-1.5.4-.6 1.3-1 2.3-1.1.8-.1 1.6.1 2 .4.4.2.8.6.9.8l.1.1-1.5 1.4c-.267-.333-.533-.533-.8-.6-.2-.067-.433-.067-.7 0-.4 0-.6.2-.6.3 0 .2.4.4.9.5.267.067.567.167.9.3l.8.4c.267.133.467.333.6.6.2.333.267.667.2 1 0 .5-.2 1.1-.7 1.6-.4.6-1.3 1-2.4 1.1-.867.067-1.567-.067-2.1-.4-.533-.333-.9-.7-1.1-1.1l1.6-1.3Zm13.6-1.6c-.267 1-.767 1.833-1.5 2.5-.8.733-1.7 1.133-2.7 1.2-1.133.133-2.033-.167-2.7-.9-.733-.667-1.1-1.567-1.1-2.7A4.33 4.33 0 0 1 57 25c.8-.867 1.767-1.333 2.9-1.4 1-.133 1.867.1 2.6.7.667.533 1.067 1.3 1.2 2.3l-2.4.2a1.82 1.82 0 0 0-.6-.8c-.267-.2-.566-.3-.9-.3a2.069 2.069 0 0 0-1.2.6c-.333.4-.5.867-.5 1.4 0 .467.134.867.4 1.2.334.333.7.467 1.1.4.334 0 .667-.133 1-.4.267-.2.467-.5.6-.9l2.5-.2Zm3.2-2.6-.1.7 3-.2-.1 1.9-3 .3v.7l3.2-.3-.1 2.1-5.5.5.4-7.6 5.5-.5-.1 2.1-3.2.3ZM78 22.1l-.4 7.6-2 .2-2.3-3.1-.2 3.3-2.2.2.4-7.6 2-.2 2.3 3.1.1-3.3 2.3-.2Z" class="&lt;Compound Path&gt;"/>
            <path fill="#FEFEFE" fill-rule="evenodd" d="m78.8 29.6.4-7.7 3-.2c1.133-.133 2.034.133 2.7.8.667.667.967 1.567.9 2.7a4.444 4.444 0 0 1-1.2 2.8c-.733.8-1.666 1.233-2.8 1.3l-3 .3Zm2.6-5.7-.2 3.4.8-.1a1.58 1.58 0 0 0 1-.6 2.43 2.43 0 0 0 .5-1.2c0-.467-.1-.833-.3-1.1-.267-.333-.6-.467-1-.4h-.8Z" class="&lt;Compound Path&gt;" clip-rule="evenodd"/>
            <path fill="#FEFEFE" d="m86.6 28.9.4-7.7 2.2-.2-.4 7.7-2.2.2Zm6-6-.1.7 3-.2-.1 1.9-3 .3v.6l3.2-.3-.1 2.2-5.5.5.4-7.7 5.5-.5-.1 2.2-3.2.3Zm11.1-3.2-.4 7.7-2 .2-2.3-3.1-.2 3.3-2.2.2.4-7.7 2-.1 2.3 3.1.1-3.4 2.3-.2Zm2.9 1.9-2.1.2.1-2.1 6.4-.6-.1 2.1-2.1.2-.2 5.5-2.3.2.3-5.5Zm7.5-.6-.1.7 3-.3-.1 2-3 .3v.6l3.2-.3-.1 2.2-5.5.5.4-7.7 5.5-.5-.1 2.2-3.2.3Z" class="&lt;Compound Path&gt;"/>
          </g>
        </g>
      </g>
      <g class="&lt;Group&gt;">
        <g class="&lt;Group&gt;">
          <path fill="#EC5D23" d="M54.7 18.5.5 22.8 0 18.1l54.2-4.3.5 4.7Z" class="&lt;Path&gt;"/>
        </g>
        <g class="&lt;Group&gt;">
          <g class="&lt;Group&gt;">
            <path fill="#FEFEFE" d="M10.2 20.8c-.267 1-.767 1.833-1.5 2.5-.8.733-1.7 1.133-2.7 1.2-1.067.067-1.967-.233-2.7-.9-.733-.733-1.067-1.633-1-2.7.067-1.133.5-2.133 1.3-3a4.33 4.33 0 0 1 2.9-1.3c1-.133 1.833.1 2.5.7.733.533 1.167 1.3 1.3 2.3l-2.5.2a1.28 1.28 0 0 0-.5-.8c-.267-.2-.567-.3-.9-.3a2.067 2.067 0 0 0-1.2.6 2.66 2.66 0 0 0-.6 1.4c0 .467.133.867.4 1.2.333.333.733.467 1.2.4.333 0 .633-.133.9-.4.267-.2.5-.5.7-.9l2.4-.2Zm3.8 3h-.7c-.4 0-.8-.1-1.2-.4-.5-.3-.8-.6-1-1.3-.133-.333-.2-.733-.2-1.2l.3-4.6 2.3-.2-.3 4.7s0 .1.1.3c0 .133.033.233.1.3.1.1.4.3.7.3.267-.067.467-.167.6-.3.2-.2.3-.367.3-.5l.1-.3.2-4.7 2.3-.2-.2 4.7c-.1.8-.4 1.6-.8 2.1l-.6.6c-.8.5-1.5.6-1.9.7H14Zm7-8.3-.3 5.5 3.2-.3-.1 2.1-5.5.5.4-7.7 2.3-.1Zm4.3 1.7-2.1.2.1-2.1 6.5-.6-.1 2.2-2.1.1-.3 5.5-2.3.2.3-5.5Zm8.1 5h-.7c-.4-.1-.8-.2-1.2-.4-.5-.3-.8-.7-1-1.4-.133-.333-.2-.7-.2-1.1l.3-4.7 2.2-.2-.2 4.7v.4l.2.2c.1.2.3.3.7.3.267 0 .467-.1.6-.3.2-.133.3-.3.3-.5l.1-.2.2-4.7 2.3-.2-.3 4.6c0 .9-.3 1.7-.7 2.1-.2.267-.433.467-.7.6-.7.5-1.4.7-1.8.7l-.1.1Z" class="&lt;Compound Path&gt;"/>
            <path fill="#FEFEFE" fill-rule="evenodd" d="m44.5 21.1-2.8.2-1.4-1.8h-.2l-.1 2-2.3.2.4-7.7 3.1-.3c.1 0 .2 0 .6.1.4 0 .8.1 1.2.3.5.3.8.6 1 1.2.067.333.1.7.1 1.1-.067 1.067-.533 1.867-1.4 2.4l1.8 2.3ZM40.3 16l-.1 1.4h.9c.4-.067.6-.333.6-.8 0-.5-.2-.7-.5-.7l-.9.1Zm10-3 2.4 7.4-2.5.2-.2-.8-2.5.2-.3.8-2.4.3 3.2-7.9 2.3-.2Zm-1.9 4.8 1-.1-.4-1.5-.6 1.6Z" class="&lt;Compound Path&gt;" clip-rule="evenodd"/>
          </g>
        </g>
      </g>
      <g class="&lt;Group&gt;">
        <g class="&lt;Group&gt;">
          <path fill="#FEFEFE" d="m124 7.2.6 2.8.2-.8.7-2.1.8-.1-1.3 3.6-.2 2.7-.8.1.1-2.7-.9-3.4.8-.1Z" class="&lt;Compound Path&gt;"/>
        </g>
        <g class="&lt;Group&gt;">
          <g class="&lt;Group&gt;">
            <path fill="#EC5D23" d="M120.3 12.8 60 17.7l-.5-4.7 60.3-5 .5 4.8Z" class="&lt;Path&gt;"/>
          </g>
          <g class="&lt;Group&gt;">
            <g class="&lt;Group&gt;">
              <path fill="#FEFEFE" fill-rule="evenodd" d="m66.7 11.6 2.4 7.4-2.5.2-.2-.8-2.4.2-.3.8-2.5.2 3.2-7.9 2.3-.1Zm-1.9 4.9 1-.1-.4-1.5-.6 1.6Z" class="&lt;Compound Path&gt;" clip-rule="evenodd"/>
              <path fill="#FEFEFE" d="m72.1 18.7-2.3.2.4-7.6 5.5-.5-.1 2.1-3.2.3-.1 1.1 3-.3-.1 2-3 .3-.1 2.4Z" class="&lt;Compound Path&gt;"/>
              <path fill="#FEFEFE" fill-rule="evenodd" d="m83 17.8-2.7.2-1.5-1.8-.2.1-.1 1.9-2.3.2.5-7.7 3.1-.3c.1 0 .1 0 .6.1.4 0 .7.1 1.2.3.4.3.7.6.9 1.2.133.333.167.7.1 1.1-.067 1.067-.533 1.867-1.4 2.4l1.8 2.3Zm-4.2-5.1-.1 1.4h.9c.4-.067.633-.333.7-.8 0-.5-.2-.7-.6-.7l-.9.1Z" class="&lt;Compound Path&gt;" clip-rule="evenodd"/>
              <path fill="#FEFEFE" d="m83.7 17.7.4-7.6 2.3-.2-.4 7.6-2.3.2Zm11.4-4.1c-.2.933-.7 1.767-1.5 2.5a4.699 4.699 0 0 1-2.6 1.2c-1.133.067-2.067-.267-2.8-1-.733-.667-1.067-1.567-1-2.7.067-1.067.5-2.033 1.3-2.9.8-.8 1.767-1.267 2.9-1.4 1-.067 1.867.167 2.6.7.667.6 1.067 1.367 1.2 2.3l-2.4.3c-.133-.4-.333-.7-.6-.9a1.082 1.082 0 0 0-.9-.2c-.467 0-.867.2-1.2.6-.333.4-.5.833-.5 1.3-.067.533.067.967.4 1.3.267.333.633.467 1.1.4.333 0 .633-.133.9-.4.333-.267.567-.567.7-.9l2.4-.2Z" class="&lt;Compound Path&gt;"/>
              <path fill="#FEFEFE" fill-rule="evenodd" d="m100.6 8.7 2.3 7.4-2.4.2-.2-.8-2.5.2-.3.9-2.5.2 3.3-7.9 2.3-.2Zm-2 4.8 1.1-.1-.5-1.5-.6 1.6Z" class="&lt;Compound Path&gt;" clip-rule="evenodd"/>
              <path fill="#FEFEFE" d="m110.8 7.8-.4 7.7-2.1.1-2.2-3.1-.2 3.3-2.3.2.5-7.6 2-.2 2.3 3.1.2-3.3 2.2-.2Z" class="&lt;Compound Path&gt;"/>
              <path fill="#FEFEFE" fill-rule="evenodd" d="m116.6 7.3 2.4 7.4-2.5.2-.2-.7-2.4.2-.3.8-2.5.2 3.2-7.9 2.3-.2Zm-1.9 4.9 1-.1-.4-1.6-.6 1.7Z" class="&lt;Compound Path&gt;" clip-rule="evenodd"/>
            </g>
          </g>
        </g>
      </g>
    </g>
  </g>
</svg>
