<svg xmlns="http://www.w3.org/2000/svg" width="75" height="44" fill="none" viewBox="0 0 75 44">
  <g class="1-26-texto">
    <g class="&lt;Group&gt;">
      <g class="&lt;Group&gt;">
        <path fill="#6A4C9E" d="M72.049 20.373 2.315 25.646l-.439-4.689 70.228-5.351-.055 4.767Z" class="&lt;Path&gt;"/>
      </g>
      <g class="&lt;Group&gt;">
        <path fill="#FEFEFE" fill-rule="evenodd" d="M33.816 7.191c1.003-.057 2.105-.13 1.899 3.04-.253 2.876-1.226 3.131-2.624 3.251l-.608-.005.428-6.244.905-.042Zm-.187.739-.351 4.814c1.414-.021 1.408-1.337 1.548-2.371.041-1.02.285-2.678-1.197-2.443Z" class="&lt;Compound Path&gt;" clip-rule="evenodd"/>
        <path fill="#FEFEFE" d="m36.876 13.085-.79.126.428-6.244.79-.125-.428 6.243Zm-.014-6.477-.328-.15.702-1.327.556.317-.93 1.16Z" class="&lt;Compound Path&gt;"/>
        <path fill="#FEFEFE" fill-rule="evenodd" d="m39.607 6.68.97 6.123-.904.042-.09-1.201-1.2.089-.405 1.28-.79.124 1.826-6.364.593-.094Zm-.274 3.384-.146-2.204-.7 3.25.987-.157-.14-.89Zm4.371-3.73c1.003-.058 2.006-.115 1.8 3.056-.155 2.86-1.127 3.115-2.624 3.25l-.51-.02.429-6.244.905-.042Zm-.187.738-.351 4.815c1.414-.022 1.408-1.337 1.548-2.372.04-1.019.186-2.662-1.197-2.443Z" class="&lt;Compound Path&gt;" clip-rule="evenodd"/>
        <path fill="#FEFEFE" d="m48.59 5.864-.088.723-1.3.104-.18 2.054 1.185-.188.01.707-1.283.203-.083 2.038 1.3-.104.01.707-2.188.245.429-6.244 2.188-.245Zm2.698-.224-.34 5.52 1.3-.104.01.707-2.189.245.429-6.244.79-.125Z" class="&lt;Compound Path&gt;"/>
        <path fill="#FEFEFE" fill-rule="evenodd" d="m54.496 5.435.855 6.04-.79.126-.089-1.201-1.3.104-.306 1.264-.806.026 1.827-6.364.609.005Zm-.259 3.483-.146-2.204-.716 3.15.904-.041-.042-.905Z" class="&lt;Compound Path&gt;" clip-rule="evenodd"/>
      </g>
      <g class="&lt;Group&gt;">
        <path fill="#6A4C9E" d="M71.103 31.66 5.954 37.118l.055-4.767 64.64-5.479.454 4.788Z" class="&lt;Path&gt;"/>
      </g>
      <g class="&lt;Group&gt;">
        <g class="&lt;Group&gt;">
          <path fill="#FEFEFE" fill-rule="evenodd" d="m12.668 30.284 2.39 7.418-2.5.193-.126-.79-2.5.194-.27.852-2.5.194 3.203-7.899 2.303-.162Zm-1.864 4.851 1.003-.057-.447-1.55-.556 1.607Z" class="&lt;Compound Path&gt;" clip-rule="evenodd"/>
          <path fill="#FEFEFE" d="m20.116 36.394-.608-.005-1.348-2.115-.108 3.156-2.303.162.407-7.658 2.106-.131 1.753 2.76 2.047-3.058 2.09-.23-.407 7.658-2.288.261.191-3.27-1.532 2.47Z" class="&lt;Compound Path&gt;"/>
          <path fill="#FEFEFE" fill-rule="evenodd" d="m24.945 36.844.407-7.658 3.291-.319c.066-.01.17.007.312.052.132-.02.335-.019.608.005.285.09.536.186.754.286.219.1.415.272.588.514.118.32.175.681.172 1.087-.048.547-.272 1.055-.67 1.523.6.378.853.911.76 1.601-.09 1.567-1.165 2.446-3.227 2.637l-2.995.272Zm2.37-2.299.988-.156c.34.014.516-.15.53-.49-.031-.197-.146-.28-.458-.332l-.988.157-.072.821Zm.103-2.547.904-.042c.198-.032.38-.162.432-.473-.047-.297-.26-.364-.36-.349l-.904.042-.072.822Z" class="&lt;Compound Path&gt;" clip-rule="evenodd"/>
          <path fill="#FEFEFE" d="m32.036 36.227.407-7.658 2.205-.146-.309 7.642-2.303.162Zm6.034-6.017-.089.722 2.994-.272-.082 2.038-2.994.272-.005.608 3.192-.303-.165 2.153-5.495.465.407-7.658 5.495-.465-.067 2.137-3.192.302Zm11.055-3.068-.308 7.643-2.105.13-2.211-3.092-.175 3.37-2.303.161.407-7.657 2.09-.23 2.226 3.19.175-3.368 2.204-.147Zm2.928 1.865-2.09.23.051-2.236 6.499-.523-.166 2.153-2.09.23-.241 5.505-2.303.162.34-5.52Z" class="&lt;Compound Path&gt;"/>
          <path fill="#FEFEFE" fill-rule="evenodd" d="m60.708 26.118 2.39 7.417-2.501.194-.224-.775-2.485.292-.285.755-2.402.177 3.204-7.898 2.303-.162Zm-1.963 4.867 1.003-.058-.349-1.565-.654 1.623Z" class="&lt;Compound Path&gt;" clip-rule="evenodd"/>
          <path fill="#FEFEFE" d="m66.4 25.621-.242 5.506 3.192-.303-.066 2.136-5.48.564.392-7.756 2.204-.147Z" class="&lt;Compound Path&gt;"/>
        </g>
      </g>
      <g class="&lt;Group&gt;">
        <g class="&lt;Group&gt;">
          <path fill="#FEFEFE" d="m6.571 21.834-.088.723 2.994-.272-.097 1.939-2.995.272-.005.608 3.208-.204-.067 2.136-5.494.466.407-7.658 5.494-.466-.165 2.153-3.192.303Z" class="&lt;Compound Path&gt;"/>
          <path fill="#FEFEFE" fill-rule="evenodd" d="m10.525 26.979.506-7.674 2.994-.272c1.064-.1 1.955.197 2.673.893.641.641.919 1.542.833 2.703a4.142 4.142 0 0 1-1.174 2.819c-.762.728-1.708 1.148-2.838 1.259l-2.994.272Zm2.643-5.684-.274 3.385.79-.125a1.344 1.344 0 0 0 1.123-.583c.288-.316.428-.71.42-1.18.06-.482-.036-.872-.286-1.17-.25-.298-.572-.416-.967-.353l-.806.026Z" class="&lt;Compound Path&gt;" clip-rule="evenodd"/>
          <path fill="#FEFEFE" d="M21.447 26.261c-.114-.083-.213-.067-.723-.088-.41-.036-.722-.088-1.18-.42-.54-.218-.8-.582-1.01-1.258a3.625 3.625 0 0 1-.187-1.185l.284-4.601 2.287-.261-.268 4.7.063.395c.01.066.059.159.145.28.115.083.344.25.64.203.274.024.499-.046.676-.209.166-.228.271-.414.316-.556l.068-.213.268-4.7 2.204-.146-.185 4.585c-.072.821-.358 1.575-.789 2.049-.232.239-.47.445-.712.619-.629.504-1.419.63-1.814.692l-.083.114Zm12.366-4.388c-.25.984-.793 1.813-1.632 2.486-.762.728-1.609 1.132-2.541 1.212-1.14.046-2.07-.28-2.787-.976-.718-.696-1.061-1.587-1.03-2.672.096-1.095.548-2.078 1.355-2.948a4.712 4.712 0 0 1 2.92-1.374c.933-.08 1.748.162 2.445.727.697.564 1.123 1.34 1.28 2.328l-2.402.178a1.742 1.742 0 0 0-.635-.81c-.229-.167-.513-.257-.853-.27-.46.073-.867.272-1.22.598a1.944 1.944 0 0 0-.489 1.393c-.059.482.075.9.401 1.253.25.298.61.444 1.081.436a1.93 1.93 0 0 0 .941-.452c.298-.25.52-.555.665-.916l2.5-.193Z" class="&lt;Compound Path&gt;"/>
          <path fill="#FEFEFE" fill-rule="evenodd" d="m39.212 16.968 2.29 7.433-2.385.277-.224-.775-2.5.194-.286.754-2.5.193 3.318-7.815 2.287-.261Zm-1.979 4.768 1.004-.058-.35-1.564-.654 1.622Z" class="&lt;Compound Path&gt;" clip-rule="evenodd"/>
          <path fill="#FEFEFE" d="M49.902 20.54a5.291 5.291 0 0 1-1.517 2.568 4.634 4.634 0 0 1-2.656 1.13c-1.13.111-2.053-.181-2.77-.878-.73-.762-1.078-1.685-1.047-2.77.096-1.095.548-2.078 1.355-2.948a4.713 4.713 0 0 1 2.921-1.374c.932-.08 1.785.19 2.558.81.697.564 1.086 1.313 1.166 2.245l-2.402.178a2.2 2.2 0 0 0-.535-.827 2.2 2.2 0 0 0-.952-.254c-.461.073-.863.306-1.206.697a2.727 2.727 0 0 0-.504 1.295 1.5 1.5 0 0 0 .401 1.253 1.58 1.58 0 0 0 1.082.436c.33-.052.643-.203.94-.453.299-.25.52-.555.666-.915l2.5-.194Zm.6 3.144.505-7.673 2.205-.147-.408 7.658-2.302.162Z" class="&lt;Compound Path&gt;"/>
          <path fill="#FEFEFE" fill-rule="evenodd" d="M58.296 15.363c1.13-.112 2.053.18 2.771.877.718.696 1.029 1.592.932 2.687a4.071 4.071 0 0 1-1.257 2.933c-.807.87-1.78 1.328-2.92 1.374-1.13.111-2.054-.181-2.772-.878-.718-.696-1.034-1.625-.948-2.786.031-1.084.455-2.029 1.273-2.834.807-.87 1.78-1.328 2.92-1.373Zm-.31 5.718a1.344 1.344 0 0 0 1.123-.582c.343-.392.544-.829.603-1.31.048-.548-.086-.966-.401-1.253-.326-.354-.72-.494-1.18-.421-.406-.003-.78.191-1.123.583a2.398 2.398 0 0 0-.603 1.31c.018.537.152.955.401 1.253.326.353.72.493 1.18.42Zm1.417-6.4-2.204.147 1.085-2.096 2.6-.21-1.481 2.16Z" class="&lt;Compound Path&gt;" clip-rule="evenodd"/>
          <path fill="#FEFEFE" d="m70.107 14.504-.407 7.658-2.106.131-2.21-3.092-.191 3.27-2.288.261.407-7.658 2.09-.23 2.227 3.191.175-3.368 2.303-.163Z" class="&lt;Compound Path&gt;"/>
        </g>
      </g>
    </g>
  </g>
</svg>
