<svg xmlns="http://www.w3.org/2000/svg" width="68" height="34" fill="none" viewBox="0 0 68 34">
  <path fill="#DD4297" d="M67.52 25.2.92 32.4l-.7-5.1 66.6-6.9.7 4.8ZM64.12 15l-55.5 6.3-.6-4.8 55.5-6.4.6 4.9Z"/>
  <path fill="#FEFEFE" fill-rule="evenodd" d="M12.32 5.2c1-.1 2.1-.2 2 3.1-.1 3-1.1 3.2-2.6 3.4h-.6l.3-6.4.9-.1Zm-.1.7-.3 5c1.4-.1 1.4-1.4 1.5-2.5 0-1 .2-2.7-1.2-2.5Z" clip-rule="evenodd"/>
  <path fill="#FEFEFE" d="m15.62 11.2-.8.1.3-6.4.8-.1-.3 6.4Zm-.2-6.6-.4-.2.8-1.4.5.3-.9 1.3Z"/>
  <path fill="#FEFEFE" fill-rule="evenodd" d="m18.32 4.5 1.1 6.3-.9.1-.2-1.2-1.2.1-.3 1.3-.8.1 1.6-6.6.7-.1Zm-.1 3.6-.3-2.3-.6 3.3 1-.1-.1-.9Z" clip-rule="evenodd"/>
  <path fill="#FEFEFE" d="m22.02 10.5-.8.1.3-6.4.8-.1-.3 6.4Zm1.8-4.7V8l-.1 2.3-.8.1.2-6.4.8-.1 1.3 4.7-.1-2.6.1-2.2.9-.1-.3 6.4-.8.1-1.2-4.8h-.1l.1.4Zm5.3-2.5v.8l-1 .1-.2 5.6-.9.1.3-5.6-1 .1v-.8l2.8-.3Zm2.5-.3v.8l-1.4.1-.1 2.1 1.3-.2-.1.8-1.2.1-.1 2.2 1.4-.2-.1.8-2.2.2.3-6.4 2.2-.3Z"/>
  <path fill="#FEFEFE" fill-rule="evenodd" d="m32.12 3 1-.1c.6-.1 1.6-.2 1.5 1.4 0 .6-.3 1.6-1 1.8l1.1 3-.9.1-1-3-.2 3.1-.8.1.3-6.4Zm1.6 1.7c0-.7 0-1.2-.7-1.1h-.1l-.1 2.2c.6-.1.9-.5.9-1.1Z" clip-rule="evenodd"/>
  <path fill="#FEFEFE" d="M36.02 4.4v2.2l-.1 2.3-.8.1.3-6.4.8-.1 1.2 4.7-.1-2.5.1-2.3.9-.1-.3 6.4-.8.1-1.2-4.8v.4Z"/>
  <path fill="#FEFEFE" fill-rule="evenodd" d="m40.72 2 1 6.3-.8.1-.2-1.2-1.3.1-.2 1.3-.9.1 1.7-6.6.7-.1Zm-.2 3.6-.2-2.3-.7 3.3 1-.1-.1-.9Z" clip-rule="evenodd"/>
  <path fill="#FEFEFE" d="M44.82 2.4c-.2 0-.4-.1-.6-.1-1.1.2-1.2 1.9-1.3 2.7 0 .9 0 2.5 1.1 2.3.2 0 .4-.067.6-.2l-.1.8c-.2.133-.433.2-.7.2-1.7.2-1.8-1.6-1.7-2.9 0-1.3.3-3.5 2-3.6.3-.1.5-.1.7.1v.7Zm1 5.4-.9.1.3-6.4.9-.1-.3 6.4Z"/>
  <path fill="#FEFEFE" fill-rule="evenodd" d="M49.92 4.2c-.1 1.1-.2 3.3-1.8 3.5-1.7.1-1.6-2-1.5-3.1 0-1.2.1-3.3 1.8-3.5 1.6-.2 1.5 1.9 1.5 3.1Zm-2.4.3c-.1 1.3-.1 2.4.6 2.4.7-.1.8-1.3.9-2.6 0-1.4 0-2.5-.7-2.4-.6 0-.8 1.2-.8 2.6Z" clip-rule="evenodd"/>
  <path fill="#FEFEFE" d="M51.32 2.7v2.2l-.1 2.3-.8.1.3-6.4.8-.1 1.2 4.7V3l.1-2.3.8-.1-.3 6.4-.8.1-1.2-4.8v.4Z"/>
  <path fill="#FEFEFE" fill-rule="evenodd" d="m56.02.3 1 6.3-.8.1-.2-1.3-1.3.2-.2 1.3-.9.1 1.7-6.6.7-.1Zm-.2 3.6-.2-2.3-.7 3.3 1.1-.1-.2-.9Z" clip-rule="evenodd"/>
  <path fill="#FEFEFE" d="m58.52 0-.3 5.7 1.5-.2-.1.8-2.2.2.3-6.4.8-.1Z"/>
  <path fill="#FEFEFE" fill-rule="evenodd" d="m9.92 22.3.2-7.9 3.1-.3c1.133-.134 2.067.133 2.8.8.667.666 1 1.566 1 2.7-.067 1.133-.467 2.1-1.2 2.9-.733.866-1.667 1.366-2.8 1.5l-3.1.3Zm2.4-5.9-.1 3.4.9-.1a1.58 1.58 0 0 0 1-.6c.267-.334.433-.767.5-1.3 0-.467-.133-.867-.4-1.2-.267-.267-.6-.367-1-.3l-.9.1Z" clip-rule="evenodd"/>
  <path fill="#FEFEFE" d="M20.32 15.5v.8l3-.4v2l-3.1.4v.7l3.3-.4v2.2l-5.7.6.2-7.9 5.7-.6-.1 2.2-3.3.4Zm9.2-3.2-.2 5.6 3.3-.3v2.2l-5.6.6.2-7.9 2.3-.2Z"/>
  <path fill="#FEFEFE" fill-rule="evenodd" d="m38.52 11.2 2.7 7.6-2.5.3-.3-.8-2.5.3-.3.8-2.5.3 3.1-8.2 2.3-.3Zm-1.8 5.1 1-.2-.5-1.6-.5 1.8Z" clip-rule="evenodd"/>
  <path fill="#FEFEFE" d="m51.52 9.8-.2 7.9-2.2.2-2.3-3.1-.1 3.4-2.4.3.3-7.9 2.1-.3 2.4 3.2.1-3.4 2.3-.3Z"/>
  <path fill="#FEFEFE" fill-rule="evenodd" d="M56.72 9.1c1.133-.134 2.067.133 2.8.8.8.733 1.166 1.666 1.1 2.8 0 1.133-.4 2.133-1.2 3-.8.867-1.8 1.367-3 1.5-1.134.133-2.067-.133-2.8-.8-.8-.733-1.167-1.667-1.1-2.8 0-1.134.4-2.134 1.2-3 .8-.867 1.8-1.367 3-1.5Zm-.2 5.9c.467-.067.866-.3 1.2-.7.333-.4.5-.834.5-1.3 0-.534-.133-.967-.4-1.3a1.344 1.344 0 0 0-1.2-.4c-.467.066-.867.3-1.2.7-.334.4-.5.833-.5 1.3 0 .533.133.966.4 1.3.333.333.733.466 1.2.4Z" clip-rule="evenodd"/>
  <path fill="#FEFEFE" d="m9.22 32.8-2.4.3-2.6-7.6 2.5-.2 1.4 4.5 1.7-4.9 2.5-.3-3.1 8.2Zm3.5-.4.2-7.9 2.4-.2-.2 7.9-2.4.2Z"/>
  <path fill="#FEFEFE" fill-rule="evenodd" d="M20.42 23.6c1.2-.134 2.167.133 2.9.8.8.733 1.167 1.667 1.1 2.8 0 1.133-.4 2.133-1.2 3-.8.867-1.8 1.367-3 1.5-1.133.133-2.067-.133-2.8-.8-.8-.733-1.167-1.667-1.1-2.8 0-1.134.4-2.134 1.2-3 .8-.867 1.767-1.367 2.9-1.5Zm-.1 5.9c.467-.067.867-.3 1.2-.7.333-.4.5-.834.5-1.3 0-.534-.133-.967-.4-1.3a1.344 1.344 0 0 0-1.2-.4c-.467.066-.867.3-1.2.7-.333.4-.5.833-.5 1.3-.067.533.067.966.4 1.3.333.333.733.466 1.2.4Z" clip-rule="evenodd"/>
  <path fill="#FEFEFE" d="m28.02 22.9-.2 5.6 3.3-.3-.1 2.2-5.6.6.2-7.9 2.4-.2Zm6.3 1.5-.1.7 3.1-.3-.1 2-3 .3v.7l3.3-.4-.1 2.3-5.6.6.2-7.9 5.6-.6V24l-3.3.4Zm11.3-3.5-.2 7.9-2.1.2-2.4-3.2-.1 3.5-2.3.2.2-7.8 2.1-.3 2.4 3.2.1-3.5 2.3-.2Zm9.1 3.5a4.99 4.99 0 0 1-1.4 2.6c-.8.8-1.7 1.233-2.7 1.3-1.133.133-2.1-.133-2.9-.8-.733-.733-1.1-1.666-1.1-2.8.067-1.133.5-2.133 1.3-3 .8-.866 1.767-1.366 2.9-1.5 1-.133 1.867.067 2.6.6.733.6 1.2 1.4 1.4 2.4l-2.5.2a1.82 1.82 0 0 0-.6-.8c-.267-.2-.6-.267-1-.2-.467.067-.867.3-1.2.7-.333.4-.5.833-.5 1.3 0 .534.167.967.5 1.3.333.334.7.467 1.1.4.4 0 .733-.133 1-.4s.5-.6.7-1l2.4-.3Zm.8 3.2.2-7.9 2.3-.2-.2 7.9-2.3.2Z"/>
  <path fill="#FEFEFE" fill-rule="evenodd" d="m64.02 18.8 2.6 7.6-2.5.3-.2-.8-2.6.3-.2.8-2.6.3 3.1-8.2 2.4-.3Zm-1.8 5 1-.1-.4-1.6-.6 1.7Z" clip-rule="evenodd"/>
</svg>
