<svg xmlns="http://www.w3.org/2000/svg" width="72" height="78" fill="none" viewBox="0 0 72 78">
  <path fill="#050505" d="m36.294 30.73-1.33.281-.976.221L6.11 37.714.365 41.498l6.8.96 27.969-6.44.843-.171 1.463-.332c1.595-.382.449-5.167-1.146-4.785Z" opacity=".3"/>
  <path fill="#6EBD44" d="M35.004 35.083 7.127 41.564 5.981 36.78l27.968-6.44 1.055 4.744Z"/>
  <path fill="#FEFEFE" d="m33.95 30.339.883-.262 1.146 4.785-.975.221-1.055-4.744Z"/>
  <path fill="#ED3523" d="m34.833 30.077 1.372-.373c1.686-.34 2.832 4.444 1.105 4.877l-1.33.28-1.147-4.784Z"/>
  <path fill="#050505" d="M35.004 35.083 7.127 41.564l-.11-.487 27.968-6.441.02.447Zm-.562-2.662L6.474 38.862l-.382-1.595L34.1 30.735l.34 1.686Z"/>
  <path fill="#F1CB26" d="m7.127 41.565-6.8-.961L5.98 36.78l1.146 4.785Z"/>
  <path fill="#050505" d="m2.803 40.945-2.476-.341 2.044-1.386.432 1.727Z"/>
  <path fill="#050505" d="m28.48 8.237 1.265.5.925.38 26.404 11.042 5.034 4.69-6.865-.188L28.74 13.643l-.802-.308-1.387-.571c-1.51-.643.419-5.17 1.928-4.527Z" opacity=".3"/>
  <path fill="#6EBD44" d="M29.025 12.745 55.43 23.787l1.928-4.527L30.857 8.243l-1.832 4.502Z"/>
  <path fill="#FEFEFE" d="m30.857 8.242-.828-.405-1.928 4.527.924.38 1.832-4.502Z"/>
  <path fill="#ED3523" d="m30.029 7.837-1.29-.596c-1.606-.618-3.534 3.909-1.904 4.623l1.265.5 1.929-4.527Z"/>
  <path fill="#050505" d="M29.025 12.744 55.43 23.786l.19-.462-26.5-11.017-.094.437Zm.999-2.531 26.5 11.018.644-1.509L30.642 8.608l-.618 1.605Z"/>
  <path fill="#F1CB26" d="m55.43 23.787 6.865.187-4.937-4.714-1.928 4.527Z"/>
  <path fill="#050505" d="m59.796 23.897 2.5.077-1.785-1.708-.715 1.631Z"/>
  <path fill="#050505" d="m34.335 55.256 1.36.032.998.039 28.593 1.259 6.343 2.666-6.51 2.191-28.674-1.202-.86-.013-1.5-.058c-1.637-.083-1.388-4.997.25-4.914Z" opacity=".3"/>
  <path fill="#6EBD44" d="m36.4 59.299 28.594 1.258.249-4.913-28.675-1.203L36.4 59.3Z"/>
  <path fill="#FEFEFE" d="m36.568 54.442-.917-.096-.25 4.914 1 .039.166-4.857Z"/>
  <path fill="#ED3523" d="m35.65 54.346-1.416-.114c-1.72-.027-1.97 4.888-.192 4.996l1.36.032.249-4.914Z"/>
  <path fill="#050505" d="m36.4 59.299 28.593 1.259.02-.5-28.675-1.202.063.443Zm.065-2.72 28.675 1.202.083-1.638-28.732-1.284-.026 1.72Z"/>
  <path fill="#F1CB26" d="m64.994 60.557 6.509-2.191-6.26-2.722-.25 4.913Z"/>
  <path fill="#050505" d="m69.13 59.155 2.373-.79-2.264-.987-.109 1.777Z"/>
</svg>
