<svg xmlns="http://www.w3.org/2000/svg" width="81" height="44" fill="none" viewBox="0 0 81 44">
  <path fill="#7358A4" d="M80.404 27.791 12.536 21.2l.432-4.647 67.76 6.592-.324 4.647ZM63.22 17.524l-45.28-4.538.324-4.54 45.389 4.431-.432 4.647Z"/>
  <path fill="#FEFEFE" d="M21.074.882c-.145-.144-.289-.216-.433-.216-1.08-.108-1.513 1.405-1.62 2.053-.217.757-.541 2.162.431 2.27h.54l-.215.648a1 1 0 0 1-.649 0c-1.513-.108-1.296-1.729-.972-2.918.324-1.08.972-2.918 2.485-2.702.216 0 .433 0 .54.217l-.107.648Z"/>
  <path fill="#FEFEFE" fill-rule="evenodd" d="M23.667 3.152c-.216 1.08-.756 2.918-2.161 2.81-1.513-.217-.973-2.054-.757-3.026.325-1.081.757-2.918 2.27-2.702 1.405.108.972 1.945.648 2.918Zm-2.161-.108c-.216 1.08-.433 2.161.108 2.161.648.108.973-.865 1.297-2.053.324-1.19.432-2.162-.108-2.27-.649 0-.973.973-1.297 2.162Z" clip-rule="evenodd"/>
  <path fill="#FEFEFE" d="m25.18 2.179-.324 1.945-.54 1.946h-.757L24.964.45l.757.108.216 4.323.432-2.27.54-1.945.757.108-1.513 5.512h-.648l-.217-4.431-.108.324Zm5.187-.432a.959.959 0 0 0-.432-.108c-1.08-.108-1.513 1.405-1.62 2.053-.217.756-.541 2.161.54 2.27a.959.959 0 0 0 .432-.109l-.216.649a2.04 2.04 0 0 1-.649.108c-1.513-.108-1.297-1.73-.972-2.918.324-1.189.972-2.918 2.485-2.81.216 0 .433.108.649.216l-.216.649Zm-.107 4.971-.757-.108 1.405-5.512h.757l-1.405 5.62Zm4.214-5.296-.216.648-1.297-.108-.432 1.73 1.189.108-.216.648-1.081-.108-.54 1.837 1.297.108-.217.649-2.053-.108 1.513-5.62 2.053.216Zm.541 1.729-.325 1.946-.54 1.945h-.756l1.404-5.62.757.108.216 4.323.432-2.27.54-1.945.757.109-1.513 5.511h-.648l-.216-4.43-.108.323Zm5.187-1.188-.216.648-.865-.108-1.297 4.971-.756-.108 1.297-4.863-.865-.108.216-.648 2.486.216Zm-.54 5.727-.757-.108 1.513-5.62.757.109-1.513 5.62ZM44.2 2.395 41.283 7.15l1.62.108-.216.648-2.593-.216 3.026-4.755-1.513-.108.108-.648 2.485.216Z"/>
  <path fill="#FEFEFE" fill-rule="evenodd" d="m46.038 2.61-.216 5.62-.757-.107V7.042l-1.08-.108-.433 1.08-.756-.108 2.701-5.403.54.108Zm-.865 3.135.216-2.053-1.188 2.701.864.108.108-.756Z" clip-rule="evenodd"/>
  <path fill="#FEFEFE" d="M49.496 3.692c-.072-.072-.216-.144-.432-.216-.973-.108-1.405 1.405-1.621 2.161-.108.757-.432 2.054.54 2.162.144.072.324.072.54 0l-.216.648a2.04 2.04 0 0 1-.648.108c-1.513-.216-1.297-1.837-.973-3.026.325-1.08.865-2.918 2.378-2.701.324 0 .432.108.648.216l-.216.648Zm-.108 4.971-.757-.108 1.513-5.62.757.108-1.513 5.62Z"/>
  <path fill="#FEFEFE" fill-rule="evenodd" d="M53.71 6.177c-.323.973-.756 2.81-2.269 2.702-1.405-.108-.972-1.945-.648-3.026.216-.973.756-2.81 2.161-2.702 1.513.216.973 2.054.757 3.026Zm-2.16-.216c-.325 1.189-.54 2.162.108 2.27.54 0 .972-.973 1.188-2.162.324-1.188.54-2.161-.108-2.161-.54-.108-.864.864-1.189 2.053Zm1.512-2.918-.324-.324.865-.972.432.324-.973.972Z" clip-rule="evenodd"/>
  <path fill="#FEFEFE" d="m55.224 5.205-.433 1.837-.54 2.053-.757-.108 1.513-5.511.757.108.216 4.323.324-2.27.54-1.945h.757l-1.405 5.62-.756-.109-.216-4.43v.432Z"/>
  <path fill="#FEFEFE" fill-rule="evenodd" d="M60.519 4.016c.864.108 1.837.216 1.189 3.026-.757 2.594-1.621 2.594-2.918 2.486h-.54l1.404-5.62.865.108Zm-.216.649-1.08 4.322c1.188.108 1.404-.972 1.728-1.945.216-.864.649-2.377-.648-2.377Z" clip-rule="evenodd"/>
  <path fill="#FEFEFE" d="m65.058 4.448-.216.649-1.297-.108-.432 1.729 1.189.108-.217.648-1.08-.108-.54 1.837 1.296.216-.216.649-2.053-.216 1.513-5.62 2.053.216ZM1.08 15.147l.109 2.486.216-.649.973-1.729h.756l-1.837 3.026-.54 2.27L0 20.443l.648-2.27-.324-3.134.757.108Zm4.323.325-1.188 4.755 1.188.216-.108.54-1.945-.216 1.405-5.295h.648Z"/>
  <path fill="#FEFEFE" fill-rule="evenodd" d="m8.321 15.796-.324 5.511-.648-.108v-1.08l-1.08-.108-.433 1.08-.757-.108 2.594-5.187h.648Zm-.756 2.918.216-1.946-1.189 2.702.865.108.108-.864Z" clip-rule="evenodd"/>
  <path fill="#FEFEFE" d="M11.24 16.984c-.217-.216-.325-.324-.541-.324-.432 0-.757.216-.865.649-.108.216 0 .324 0 .54l.433.648c.324.54.54.973.324 1.73-.108.756-.756 1.296-1.621 1.188-.216 0-.54-.108-.757-.324l.217-.649c.216.109.432.325.648.325.432 0 .757-.324.865-.757.216-.972-1.19-1.405-.865-2.81.216-.756.756-1.296 1.621-1.188.288 0 .54.072.757.216l-.217.756ZM13.4 7.69l-1.188 4.755 1.189.109-.108.648-1.946-.216 1.405-5.296h.649Z"/>
  <path fill="#FEFEFE" fill-rule="evenodd" d="m16.319 8.015-.217 5.511-.756-.108v-1.08l-1.08-.108-.433 1.08-.757-.108 2.594-5.295.649.108Zm-.757 3.026.216-1.946-1.189 2.594.865.108.108-.756Z" clip-rule="evenodd"/>
  <path fill="#FEFEFE" d="m24.208 25.09-.108.648-1.297-.108-.432 1.73 1.08.107-.216.649-1.08-.108-.541 1.837 1.297.108-.108.648-2.053-.216 1.404-5.512 2.054.217Zm1.945 1.08c-.216-.216-.324-.324-.648-.324-.325 0-.757.216-.757.648a.69.69 0 0 0 0 .649l.432.648c.325.54.54.973.325 1.73-.217.756-.865 1.404-1.73 1.296-.216 0-.54-.108-.756-.324l.216-.757c.216.216.432.325.649.325.54.108.756-.325.864-.649.324-1.189-1.189-1.513-.756-3.026.108-.756.756-1.297 1.62-1.297.289.072.541.18.757.325l-.216.756Z"/>
  <path fill="#FEFEFE" fill-rule="evenodd" d="m25.613 30.925 1.512-5.62.865.109c.648.108 1.405.216 1.08 1.62-.323 1.19-.864 1.622-2.053 1.514l-.648 2.485-.756-.108Zm2.053-4.863-.54 1.837c.648.109.972-.216 1.08-.864.216-.54.108-.973-.432-.973h-.108Z" clip-rule="evenodd"/>
  <path fill="#FEFEFE" d="m31.773 25.846-.108.648-1.297-.108-.432 1.73 1.08.108-.108.648-1.189-.108-.432 1.837 1.189.108-.108.649-2.053-.216 1.512-5.512 1.946.216Zm2.377.973c-.072-.072-.216-.144-.432-.216-.973 0-1.405 1.404-1.621 2.16-.216.757-.432 2.162.54 2.162.144.072.325.072.54 0l-.216.649a2.042 2.042 0 0 1-.648.108c-1.513-.216-1.297-1.837-.973-2.918.325-1.189.865-3.026 2.378-2.81.324 0 .432.108.648.216l-.216.649Zm-.108 4.971-.756-.108 1.513-5.512h.756l-1.513 5.62Zm1.08-5.836-.323-.216.864-1.08.432.431-.972.865Zm3.135.54-.108.649-1.297-.108-.432 1.729 1.08.108-.108.648-1.189-.108-.648 2.486-.756-.108 1.513-5.512 1.945.216Zm-.325 5.62h-.756l1.513-5.62.648.108-1.405 5.512Zm4.215-4.539a1.203 1.203 0 0 0-.54-.108c-.973-.108-1.405 1.405-1.621 2.053-.108.757-.432 2.162.54 2.27.216 0 .396-.036.54-.108l-.216.648a2.04 2.04 0 0 1-.648.108c-1.513-.108-1.297-1.729-.972-2.918.324-1.08.864-2.918 2.485-2.81.216 0 .432.109.54.217l-.108.648Z"/>
  <path fill="#FEFEFE" fill-rule="evenodd" d="m44.092 27.035-.216 5.727-.756-.108v-1.08l-1.08-.108-.541 1.08-.649-.108 2.594-5.403h.648Zm-.756 3.026.216-2.054-1.189 2.81.865.108.108-.864Z" clip-rule="evenodd"/>
  <path fill="#FEFEFE" d="M47.118 28.224c-.108-.108-.324-.325-.54-.325-.432 0-.756.325-.864.649-.108.324-.108.432 0 .648l.432.649c.432.54.54.972.432 1.729-.216.756-.973 1.405-1.729 1.297-.324 0-.648-.108-.756-.324l.216-.757c.108.216.324.324.648.324.432.108.757-.216.865-.648.216-1.08-1.297-1.513-.865-2.918.216-.865.757-1.405 1.621-1.297.288 0 .54.072.757.216l-.217.757Z"/>
  <path fill="#FEFEFE" fill-rule="evenodd" d="M50.145 27.9c.864 0 1.837.215 1.08 2.917-.648 2.486-1.513 2.486-2.81 2.377l-.432-.107 1.405-5.296.757.108Zm-.325.54-1.08 4.214c1.188.108 1.513-.973 1.729-1.945.216-.757.648-2.161-.649-2.27Z" clip-rule="evenodd"/>
  <path fill="#FEFEFE" d="m54.467 28.331-.108.54-1.297-.107-.432 1.729 1.08.108-.107.54-1.081-.108-.54 1.837 1.297.108-.217.649-1.945-.217 1.405-5.295 1.945.216Zm1.081.109-1.189 4.647 1.189.216-.108.54-1.945-.108 1.405-5.404.648.109Z"/>
  <path fill="#FEFEFE" fill-rule="evenodd" d="m20.425 14.39 1.621-6.267 2.486.216c.937.072 1.657.468 2.161 1.189.433.648.54 1.404.324 2.269-.216.936-.684 1.657-1.404 2.161-.793.577-1.657.829-2.594.757l-2.594-.324Zm3.026-4.43-.648 2.81.648.107c.36 0 .685-.107.973-.324.288-.288.468-.612.54-.972.144-.432.108-.793-.108-1.081-.144-.288-.396-.432-.756-.432l-.649-.108Z" clip-rule="evenodd"/>
  <path fill="#FEFEFE" d="M27.018 15.039 28.53 8.77l1.945.108-1.513 6.376-1.945-.216Zm4.538-1.945c.36.576.829.864 1.405.864.36.072.54 0 .54-.216.073-.072 0-.18-.215-.324a2.724 2.724 0 0 1-.649-.324 5.682 5.682 0 0 1-.864-.54 1.414 1.414 0 0 1-.649-.649c-.144-.288-.144-.648 0-1.08.072-.36.324-.721.757-1.081.432-.433 1.188-.649 2.053-.54a2.26 2.26 0 0 1 1.621.648c.324.216.54.54.648.756l.108.216-1.62.865c-.145-.288-.289-.505-.433-.649a2.039 2.039 0 0 0-.648-.107c-.325-.108-.54 0-.54.216-.109.108.216.324.648.54.216.072.432.18.648.324.288.144.505.288.649.432.216.217.36.433.432.649.072.288.072.576 0 .864-.072.433-.324.865-.757 1.297-.54.324-1.296.54-2.27.432-.72-.071-1.26-.288-1.62-.648-.432-.36-.684-.72-.756-1.08l1.512-.865Zm7.782-3.242-1.19 4.538 2.81.217-.432 1.837-4.647-.54 1.513-6.269 1.946.217Zm4.755 2.269-.108.649 2.485.216-.324 1.62-2.594-.215-.108.54 2.702.216-.324 1.837-4.755-.54 1.62-6.268 4.648.432-.433 1.73-2.81-.217Zm5.619 3.675L48.415 17.2l-2.269-.217 2.918-2.917-1.297-3.459 2.161.216.649 1.621 1.297-1.404 2.269.216-2.81 3.026 1.297 3.35-2.27-.216-.648-1.621Zm3.458 1.837 1.513-6.268 1.946.216-1.513 6.268-1.946-.216Z"/>
  <path fill="#FEFEFE" fill-rule="evenodd" d="m61.492 12.013.864 6.592-2.053-.216-.108-.648-2.053-.216-.433.648-2.053-.216 3.89-6.16 1.946.216Zm-2.27 3.783.865.108-.108-1.405-.757 1.297ZM13.94 22.172l1.514-6.376 2.594.324c.936.072 1.62.432 2.053 1.08.504.649.648 1.442.432 2.378-.216.937-.72 1.657-1.513 2.162-.72.576-1.549.792-2.485.648l-2.594-.216Zm3.027-4.323-.757 2.81h.757c.36.072.684-.036.972-.324.217-.216.397-.505.54-.865.073-.432.037-.792-.107-1.08-.144-.289-.396-.433-.757-.433l-.648-.108Z" clip-rule="evenodd"/>
  <path fill="#FEFEFE" d="m20.533 22.82 1.513-6.376 1.945.216-1.512 6.377-1.946-.216Zm4.863.54-1.945-.215 1.513-6.376 4.647.432-.432 1.837-2.702-.324-.216.972 2.486.216-.325 1.621-2.593-.216-.433 2.054Zm3.459.325 1.62-6.376 1.838.216L30.8 23.9l-1.945-.216Zm10.266-1.729a4.03 4.03 0 0 1-1.62 1.837c-.793.505-1.586.72-2.378.649-1.009-.144-1.765-.54-2.27-1.19-.432-.72-.54-1.548-.324-2.485.216-.936.72-1.693 1.513-2.269a4.122 4.122 0 0 1 2.594-.649c.864.073 1.549.397 2.053.973s.72 1.297.648 2.161l-2.053-.216c0-.36-.108-.612-.324-.756a1.603 1.603 0 0 0-.757-.432c-.36 0-.72.107-1.08.324a2.712 2.712 0 0 0-.649 1.08c-.072.433-.036.793.108 1.081.216.36.54.54.973.54.216.072.468 0 .756-.216.289-.144.54-.36.757-.648l2.053.216Zm2.702 3.134c-.108 0-.216 0-.54-.108-.325-.108-.649-.216-.973-.54-.432-.325-.649-.649-.649-1.297a2.207 2.207 0 0 1 0-.973l.973-3.782 1.945.108-.972 3.89v.324c0 .073.036.145.108.216 0 .109.216.325.54.325.216.072.396.036.54-.108.145-.145.253-.288.325-.433l.108-.108.972-3.89 1.837.216-.864 3.782c-.216.757-.54 1.297-.973 1.622l-.648.432c-.648.324-1.297.324-1.621.324h-.108Zm7.133-5.944-1.081 4.539 2.702.324-.433 1.73-4.647-.433 1.513-6.376 1.946.216Zm3.35 2.161-1.837-.108.432-1.837 5.511.54-.432 1.838-1.837-.217-1.08 4.54-1.946-.217 1.189-4.539Z"/>
  <path fill="#FEFEFE" fill-rule="evenodd" d="m59.978 20.227.757 6.592-2.053-.216-.108-.649-2.054-.216-.324.649-2.161-.217 3.998-6.051 1.945.108ZM57.601 23.9l.864.108-.108-1.405-.756 1.297Zm3.782 3.027 1.514-6.376 2.593.216c.937.144 1.621.54 2.053 1.189.433.648.54 1.44.325 2.377-.216.865-.685 1.585-1.405 2.162-.72.504-1.585.72-2.594.648l-2.486-.216Zm3.026-4.323-.648 2.702.648.108c.36 0 .685-.108.973-.324.288-.216.504-.54.648-.973.073-.36.037-.684-.108-.973-.144-.288-.396-.468-.756-.54h-.757Z" clip-rule="evenodd"/>
  <path fill="#FEFEFE" d="m71.002 23.144-.216.649 2.593.216-.432 1.62-2.486-.215-.216.54 2.81.216-.432 1.837-4.647-.432 1.513-6.376 4.647.432-.432 1.837-2.702-.324Zm4.106 2.702c.36.505.793.793 1.297.865.36.072.577 0 .649-.216 0-.072-.073-.18-.217-.325a5.925 5.925 0 0 1-.756-.324 2.882 2.882 0 0 1-.756-.54c-.289-.144-.505-.396-.649-.757-.144-.288-.18-.612-.108-.972s.324-.757.757-1.189c.432-.324 1.188-.54 2.161-.54.648.108 1.297.432 1.621.648.324.324.54.649.648.865v.108l-1.513.864c-.144-.288-.324-.468-.54-.54a3.341 3.341 0 0 0-.648-.216c-.325 0-.433.108-.54.216 0 .216.324.432.756.649l.648.323.649.433c.144.144.288.36.432.648.072.288.072.577 0 .865-.072.432-.36.828-.865 1.189-.432.432-1.296.648-2.161.54-.793-.072-1.369-.288-1.73-.649-.36-.36-.612-.72-.756-1.08l1.621-.865Z"/>
  <path fill="#7358A4" d="M74.136 43.354 5.62 36.329l.432-4.539 68.408 7.025-.324 4.539Z"/>
  <path fill="#FEFEFE" fill-rule="evenodd" d="m12.86 31.573.757 6.593-2.054-.216v-.65l-2.161-.216-.324.54-2.054-.108 3.89-6.16 1.946.216Zm-2.377 3.783.864.108-.108-1.405-.756 1.297Zm5.295-3.458 2.702.216s.108 0 .432.108.649.216.973.54c.324.217.54.54.648 1.081 0 .288-.036.612-.108.973-.108.54-.54 1.08-.865 1.405a2.725 2.725 0 0 1-.648.324c-.54.324-1.189.324-1.513.324h-.108l-.756-.108-.325 1.621-1.945-.216 1.513-6.268Zm2.27 2.053h-.757l-.324 1.08.756.109c.36.072.577-.108.649-.54.108-.325-.108-.649-.324-.649Zm7.78 5.403-2.377-.216-.973-1.729h-.108l-.432 1.513-1.945-.108 1.62-6.376 2.594.216c.108 0 .108 0 .54.108.325.108.541.216.865.54.325.325.54.649.649 1.19 0 .215-.036.504-.108.864-.216.864-.72 1.477-1.513 1.837l1.188 2.161Zm-2.701-4.97-.325 1.188.757.108c.36 0 .576-.18.648-.54.108-.432 0-.649-.324-.649l-.756-.108Z" clip-rule="evenodd"/>
  <path fill="#FEFEFE" d="m29.395 35.032-.216.648 2.593.216-.432 1.621-2.485-.216-.109.54 2.702.216-.432 1.838-4.647-.54 1.513-6.269 4.647.433-.432 1.837-2.702-.325Zm9.726-.865-1.513 6.376-1.729-.216-1.405-2.918-.648 2.702-1.946-.216 1.513-6.268 1.73.108 1.404 3.026.757-2.81 1.837.216Z"/>
  <path fill="#FEFEFE" fill-rule="evenodd" d="m38.58 40.652 1.622-6.377 2.485.217c1.009.144 1.73.54 2.162 1.188.432.649.54 1.441.324 2.378-.216.864-.684 1.585-1.405 2.161a4.122 4.122 0 0 1-2.594.649l-2.593-.216Zm3.027-4.323-.649 2.702.649.108c.36 0 .684-.109.972-.325.288-.216.469-.54.54-.972.145-.36.145-.685 0-.973a1.383 1.383 0 0 0-.864-.54h-.648Z" clip-rule="evenodd"/>
  <path fill="#FEFEFE" d="m45.173 41.3 1.621-6.376 1.837.216-1.513 6.268-1.945-.108Zm5.727-1.297 2.486.216-.432 1.837-5.08-.54.325-1.513 3.134-2.81-2.27-.216.433-1.729 4.863.432-.324 1.513-3.134 2.81Z"/>
  <path fill="#FEFEFE" fill-rule="evenodd" d="m59.222 36.22.864 6.485-2.053-.216-.108-.649-2.053-.216-.432.648-2.054-.216 3.89-6.052 1.946.217Zm-2.378 3.783h.865l-.108-1.297-.757 1.297Z" clip-rule="evenodd"/>
  <path fill="#FEFEFE" d="m60.41 41.3 1.73-.648c.216.432.432.648.648.648.36.072.577-.036.649-.324l1.08-4.323 1.838.216-1.081 4.43a2.4 2.4 0 0 1-.973 1.406 2.796 2.796 0 0 1-1.837.432c-.648-.108-1.189-.432-1.405-.756-.324-.325-.54-.649-.54-.865l-.108-.216Zm8.43-2.378-.108.649 2.486.216-.432 1.621-2.486-.216-.108.54 2.702.216-.433 1.837-4.647-.432 1.514-6.376 4.646.433-.432 1.837-2.701-.325Z"/>
</svg>
