<svg xmlns="http://www.w3.org/2000/svg" width="82" height="27" fill="none" viewBox="0 0 82 27">
  <path fill="#ED4592" d="M81.5 11.9.2 17 0 13l81.4-5.2.1 4.1Zm-10.7 9.7L9.4 25.8l-.1-4.1 61.3-4.1.2 4Z"/>
  <path fill="#FEFEFE" fill-rule="evenodd" d="M22.1 2.4c.8 0 1.7 0 1.5 2.7-.3 2.4-1.1 2.6-2.3 2.7h-.5l.5-5.3.8-.1Zm-.2.6-.4 4.1c1.2 0 1.2-1.1 1.3-2 .1-.9.3-2.3-.9-2.1Z" clip-rule="evenodd"/>
  <path fill="#FEFEFE" d="M24.6 7.6h-.7l.5-5.3.7-.1-.5 5.4Zm.1-5.5-.3-.2.6-1.1.5.2-.8 1.1Z"/>
  <path fill="#FEFEFE" fill-rule="evenodd" d="m27.1 2.1.6 5.3H27l-.1-1-1.1.1-.3 1-.6.1 1.6-5.5h.6Zm-.3 3-.1-1.9-.7 2.7h.9l-.1-.8Zm2.5 2.2.5-5.4h.8c.6-.1 1.4-.1 1.2 1.3-.1 1.1-.5 1.6-1.6 1.7L30 7.2l-.7.1Zm1.1-4.8-.2 1.8c.6 0 .8-.3.9-.9.1-.5-.1-.9-.6-.9h-.1Zm1.9-.7.9-.1c.5 0 1.3 0 1.1 1.3 0 .5-.2 1.3-.8 1.4l.7 2.6h-.7l-.7-2.5-.3 2.6h-.7l.5-5.3Zm1.3 1.5c0-.5 0-1-.5-.9H33l-.2 1.8c.5 0 .7-.4.8-.9Zm3.8.8c-.1 1-.2 2.8-1.6 2.8-1.4.1-1.2-1.7-1.1-2.6.1-1 .3-2.8 1.6-2.9 1.4 0 1.2 1.7 1.1 2.7Zm-2 .1c-.1 1.2-.1 2.1.5 2.1.5-.1.7-1 .8-2.1.1-1.2.1-2.1-.4-2.1-.6 0-.8 1-.9 2.1Z" clip-rule="evenodd"/>
  <path fill="#FEFEFE" d="m38.6 1.4.2 4 .1-.4.4-1.8.5-1.9h.7l-1.6 5.4h-.5l-.5-5.3h.7ZM41 6.6h-.7l.5-5.4h.7L41 6.6Zm1.6-3.9v1.8l-.2 2h-.7l.5-5.3.6-.1.9 4 .1-2.1.1-2h.7l-.5 5.4h-.6l-.9-4.1v.4Zm4.7-1.1a.887.887 0 0 0-.4-.1c-1 0-1.2 1.5-1.2 2.1-.1.7-.2 2.1.8 2a.887.887 0 0 0 .4-.1v.6c-.2.133-.4.2-.6.2-1.4.1-1.5-1.5-1.4-2.6.1-1 .4-2.8 1.9-2.9.2 0 .4 0 .6.1l-.1.7Zm.6 4.5-.7.1.5-5.4h.7l-.5 5.3Z"/>
  <path fill="#FEFEFE" fill-rule="evenodd" d="m50.4.6.7 5.3-.7.1-.1-1.1-1.1.1-.3 1.1h-.7L49.9.7l.5-.1Zm-.3 3-.1-2-.7 2.8.8-.1v-.7Z" clip-rule="evenodd"/>
  <path fill="#FEFEFE" d="m52.6.5-.5 4.7h1.2l-.1.6-1.8.1.5-5.4h.7Z"/>
  <path fill="#FEFEFE" fill-rule="evenodd" d="M56.1.3c.8-.1 1.7-.1 1.5 2.6-.3 2.5-1.1 2.7-2.3 2.8h-.5l.5-5.4h.8Zm-.2.6-.4 4.2c1.2 0 1.3-1.2 1.3-2.1.1-.8.3-2.2-.9-2.1Z" clip-rule="evenodd"/>
  <path fill="#FEFEFE" d="m60.3 0-.1.6-1.2.1-.1 1.7 1-.1V3h-1.1l-.2 1.8h1.2v.6l-1.9.1.5-5.4 1.9-.1Zm1 0-.4 4.7 1.2-.1-.1.6-1.9.2.5-5.4h.7ZM9.8 14.7c-.2.867-.667 1.6-1.4 2.2-.667.6-1.433.933-2.3 1-1 .067-1.833-.233-2.5-.9-.6-.6-.867-1.4-.8-2.4.067-1 .467-1.834 1.2-2.5.733-.734 1.6-1.133 2.6-1.2.867-.067 1.6.166 2.2.7.6.533.967 1.2 1.1 2l-2.2.2c-.067-.333-.2-.6-.4-.8a1.774 1.774 0 0 0-.8-.2c-.4 0-.767.167-1.1.5a2.43 2.43 0 0 0-.5 1.2c-.067.4.033.766.3 1.1.267.266.6.4 1 .4a.95.95 0 0 0 .8-.4c.267-.2.5-.467.7-.8l2.1-.1Z"/>
  <path fill="#FEFEFE" fill-rule="evenodd" d="M14 10.4c1-.067 1.8.233 2.4.9.667.6.967 1.4.9 2.4-.067 1-.467 1.833-1.2 2.5-.733.733-1.6 1.133-2.6 1.2-1 .066-1.8-.2-2.4-.8-.667-.667-.967-1.5-.9-2.5.067-.934.467-1.767 1.2-2.5.733-.734 1.6-1.134 2.6-1.2Zm-.4 5.1c.4 0 .767-.167 1.1-.5a2.43 2.43 0 0 0 .5-1.2c0-.4-.1-.767-.3-1.1-.267-.267-.6-.4-1-.4-.4.066-.767.233-1.1.5a2.43 2.43 0 0 0-.5 1.2c-.067.466.033.833.3 1.1.267.333.6.466 1 .4Z" clip-rule="evenodd"/>
  <path fill="#FEFEFE" d="m24.2 9.9-.5 6.7-1.8.2-2-2.8-.2 2.9-2 .1.5-6.7 1.9-.1L22 13l.2-3 2-.1Z"/>
  <path fill="#FEFEFE" fill-rule="evenodd" d="M28.4 9.5c1-.067 1.833.233 2.5.9.6.6.867 1.4.8 2.4-.067 1-.467 1.833-1.2 2.5-.733.733-1.6 1.133-2.6 1.2-1 .067-1.8-.2-2.4-.8-.667-.667-.967-1.5-.9-2.5.133-.934.567-1.767 1.3-2.5.667-.734 1.5-1.134 2.5-1.2Zm-.4 5.1c.4 0 .767-.167 1.1-.5.333-.334.5-.734.5-1.2.067-.4-.034-.767-.3-1.1-.267-.267-.6-.4-1-.4-.4.066-.767.266-1.1.6-.267.267-.433.633-.5 1.1 0 .466.133.833.4 1.1.2.333.5.466.9.4Z" clip-rule="evenodd"/>
  <path fill="#FEFEFE" d="M39.3 12.9a4.805 4.805 0 0 1-1.4 2.2c-.733.6-1.533.9-2.4.9-1 .066-1.8-.2-2.4-.8-.6-.667-.867-1.467-.8-2.4.067-1 .467-1.867 1.2-2.6.734-.734 1.6-1.1 2.6-1.1.867-.067 1.6.133 2.2.6.6.533.933 1.233 1 2.1l-2.1.1c-.067-.267-.233-.5-.5-.7-.2-.2-.467-.267-.8-.2-.4 0-.733.166-1 .5-.333.333-.5.7-.5 1.1-.066.466.034.833.3 1.1.267.333.6.466 1 .4.267 0 .534-.1.8-.3.267-.2.467-.467.6-.8l2.2-.1Zm.2 2.8.6-6.8 2-.1-.6 6.7-2 .2Zm6.7-1.2h-.5l-1.1-1.9-.2 2.8-2 .1.5-6.8 1.9-.1 1.4 2.5 1.9-2.7 1.8-.1-.5 6.7-2 .2.2-2.8-1.4 2.1Zm4 .5.6-6.7 2-.2-.6 6.8-2 .1Zm5.2-5.1v.6l2.6-.2-.1 1.8-2.7.1v.6l2.8-.2-.1 1.9-4.8.3.5-6.7 4.8-.3-.1 1.9-2.9.2Zm9.7-2.5-.5 6.7-1.9.1-1.9-2.8-.2 3-2 .1.5-6.8 1.8-.1 2 2.8.2-2.9 2-.1Zm2.2 1.7-1.8.1.1-1.9 5.7-.3-.1 1.9-1.9.1-.4 4.8-1.9.2.3-4.9Z"/>
  <path fill="#FEFEFE" fill-rule="evenodd" d="M74.8 6.6c1 0 1.8.3 2.4.9.667.666.967 1.466.9 2.4-.066 1-.466 1.866-1.2 2.6a4.17 4.17 0 0 1-2.6 1.1c-1 .066-1.8-.2-2.4-.8-.666-.667-.966-1.467-.9-2.4.067-1 .467-1.867 1.2-2.6.734-.734 1.6-1.134 2.6-1.2Zm-.4 5.1c.4 0 .767-.167 1.1-.5A2.43 2.43 0 0 0 76 10c0-.4-.1-.767-.3-1.1-.266-.267-.6-.4-1-.4-.4.066-.767.266-1.1.6a2.36 2.36 0 0 0-.5 1.1c-.066.466.034.833.3 1.1.267.333.6.466 1 .4Z" clip-rule="evenodd"/>
  <path fill="#FEFEFE" d="M19.3 23.6c-.2.8-.667 1.534-1.4 2.2-.667.6-1.433.9-2.3.9-1 .067-1.8-.2-2.4-.8-.666-.666-.967-1.466-.9-2.4.133-1 .533-1.866 1.2-2.6.733-.733 1.6-1.133 2.6-1.2.867 0 1.6.233 2.2.7.6.534.967 1.234 1.1 2.1l-2.2.1c-.066-.267-.2-.5-.4-.7-.267-.2-.533-.3-.8-.3-.4.067-.767.267-1.1.6a2.36 2.36 0 0 0-.5 1.1c0 .467.1.834.3 1.1.267.334.6.467 1 .4.334 0 .633-.1.9-.3.267-.2.467-.466.6-.8l2.1-.1Zm.5 2.7.5-6.7 2-.1-.5 6.7-2 .1Zm5.4-5.1v.6l2.6-.1-.1 1.7-2.6.2-.1.5 2.9-.1-.2 1.8-4.8.3.5-6.7 4.8-.3-.1 1.9-2.9.2Zm9.9-2.5-.5 6.7-1.8.1-1.9-2.8-.2 3-2 .1.5-6.8 1.8-.1 1.9 2.8.2-2.9 2-.1Zm2.5 1.7-1.8.1.1-1.9 5.7-.3-.1 1.9-1.9.1-.4 4.8-2 .2.4-4.9Zm4.3 4.6.5-6.8 2-.1-.5 6.7-2 .2Zm2.5-7.4-2 .1 1.1-1.8 2.2-.2-1.3 1.9Zm2.5 7.1-2 .1.5-6.8 4.9-.3-.2 1.9-2.8.2-.1 1 2.6-.2-.1 1.7-2.6.2-.2 2.2Zm3.7-.3.5-6.7 2-.1-.5 6.7-2 .1ZM60.8 21a4.805 4.805 0 0 1-1.4 2.2c-.733.6-1.533.933-2.4 1-1 0-1.8-.3-2.4-.9-.6-.666-.867-1.467-.8-2.4.067-1 .467-1.866 1.2-2.6a4.17 4.17 0 0 1 2.6-1.1c.867-.067 1.6.167 2.2.7.6.467.933 1.133 1 2l-2.1.1c-.067-.267-.233-.5-.5-.7-.2-.2-.467-.267-.8-.2-.4 0-.733.167-1 .5-.333.333-.5.7-.5 1.1-.066.467.034.867.3 1.2.267.267.6.4 1 .4.267-.067.534-.2.8-.4.267-.2.467-.467.6-.8l2.2-.1Z"/>
  <path fill="#FEFEFE" fill-rule="evenodd" d="M65.2 16.7c1-.066 1.8.234 2.4.9.667.6.967 1.4.9 2.4-.133.934-.533 1.767-1.2 2.5-.733.734-1.6 1.134-2.6 1.2-1 .067-1.833-.233-2.5-.9-.6-.6-.867-1.4-.8-2.4.067-1 .467-1.833 1.2-2.5.733-.733 1.6-1.133 2.6-1.2Zm-.4 5.1a2.36 2.36 0 0 0 1.1-.5 2.43 2.43 0 0 0 .5-1.2c0-.466-.133-.833-.4-1.1-.2-.266-.5-.4-.9-.4s-.766.167-1.1.5a1.64 1.64 0 0 0-.5 1.2c-.066.4.033.767.3 1.1.267.267.6.4 1 .4Z" clip-rule="evenodd"/>
</svg>
