<svg xmlns="http://www.w3.org/2000/svg" width="74" height="38" fill="none" viewBox="0 0 74 38">
  <path fill="#ED4592" d="m63 11.633-62.3 7.2-.7-4.7 62.6-7.1.4 4.6Zm11 8-67.3 8.4-.7-4.7 67.6-8.4.4 4.7Z"/>
  <path fill="#FEFEFE" fill-rule="evenodd" d="M7.1 2.733c.8-.1 1.9-.2 1.8 2.8-.1 2.6-1 2.9-2.4 3l-.5.1.2-5.8.9-.1Zm-.1.7-.2 4.4c1.3-.1 1.3-1.3 1.3-2.2 0-.9.2-2.5-1.1-2.2Z" clip-rule="evenodd"/>
  <path fill="#FEFEFE" d="m10.1 8.134-.8.1.2-5.8.8-.1-.2 5.8Zm-.2-6-.4-.1.7-1.3.4.3-.7 1.1Z"/>
  <path fill="#FEFEFE" fill-rule="evenodd" d="m12.4 2.133 1 5.6-.7.1-.2-1.1-1.1.1-.3 1.2-.7.1 1.4-6h.6Zm-.1 3.2-.2-2-.6 3 .9-.1-.1-.9Zm3.8-3.699c.9-.1 1.9-.2 1.8 2.8-.1 2.6-1 2.9-2.3 3l-.5.1.2-5.8.8-.1Zm-.1.7-.2 4.4c1.3-.1 1.2-1.3 1.3-2.2 0-.9.2-2.5-1.1-2.2Z" clip-rule="evenodd"/>
  <path fill="#FEFEFE" d="M20.6 1.133v.6l-1.3.2v1.8l1.1-.1v.6l-1.2.2v1.9l1.2-.1v.6l-2 .3.2-5.8 2-.2Zm2.5-.3-.2 5.1 1.3-.2v.7l-2 .2.2-5.7.7-.1Z"/>
  <path fill="#FEFEFE" fill-rule="evenodd" d="M27.4 3.133c-.1 1.1-.2 3-1.6 3.2-1.5.1-1.4-1.8-1.4-2.8.1-1.1.1-3 1.6-3.2 1.5-.1 1.4 1.8 1.4 2.8Zm-2.2.3c0 1.2 0 2.2.6 2.1.6 0 .7-1.1.8-2.3 0-1.2 0-2.2-.6-2.1-.6 0-.7 1.1-.8 2.3Z" clip-rule="evenodd"/>
  <path fill="#FEFEFE" d="M29.8.833c-.2-.1-.4-.2-.7-.1-.4 0-.6.4-.7.8 0 .3.1.4.2.6l.6.6c.5.4.8.8.7 1.6 0 .8-.5 1.5-1.4 1.6-.3.1-.6 0-.8-.1v-.8c.3.1.5.2.8.2.4-.1.7-.5.7-.9 0-1.1-1.6-1.2-1.5-2.7 0-.8.5-1.5 1.3-1.6.333-.066.6-.033.8.1v.7Z"/>
  <path fill="#FEFEFE" fill-rule="evenodd" d="M10.3 31.733c.9-.1 1.9-.2 1.8 2.7-.1 2.7-.9 2.9-2.3 3.1l-.5.1.2-5.8.8-.1Zm-.1.6-.2 4.5c1.3-.1 1.2-1.3 1.3-2.3 0-.9.2-2.4-1.1-2.2Z" clip-rule="evenodd"/>
  <path fill="#FEFEFE" d="M14.8 31.133v.7l-1.3.2v1.8l1.1-.2v.7l-1.2.1v2l1.2-.2v.7l-2 .3.2-5.8 2-.3Zm2.5-.3-.2 5.1 1.3-.1v.7l-2 .2.2-5.8.7-.1Z"/>
  <path fill="#FEFEFE" fill-rule="evenodd" d="m20.3 30.533 1 5.6-.8.1-.1-1.1-1.2.1-.2 1.2-.8.1 1.5-5.9.6-.1Zm-.1 3.2-.3-2.1-.5 3 .9-.1-.1-.8Zm2.7 2.2.3-5.8.9-.1c.6-.1 1.4-.1 1.4 1.4-.1 1.2-.5 1.8-1.7 1.9l-.1 2.5-.8.1Zm.9-5.2v1.9c.6 0 .8-.4.8-1s-.1-1-.7-.9h-.1Zm2.1-.9.9-.1c.5-.1 1.4-.1 1.3 1.3 0 .5-.2 1.4-.8 1.6l.9 2.7-.7.1-1-2.7-.1 2.8-.7.1.2-5.8Zm1.4 1.4c0-.5 0-1-.6-.9h-.1l-.1 1.9c.6 0 .8-.4.8-1Zm4.2.8c0 1-.1 3-1.6 3.1-1.4.2-1.4-1.7-1.3-2.7 0-1.1.1-3 1.6-3.2 1.4-.2 1.4 1.8 1.3 2.8Zm-2.1.3c-.1 1.2 0 2.2.6 2.1.6-.1.7-1.1.7-2.3.1-1.2 0-2.2-.6-2.2-.6.1-.7 1.1-.7 2.4Z" clip-rule="evenodd"/>
  <path fill="#FEFEFE" d="m32.6 29.033.4 4.3h.1v-.4l.4-2 .4-2.1.7-.1-1.3 6h-.6l-.9-5.6.8-.1Zm1.3 5.2c0-.3.2-.5.5-.5.2-.1.4.1.4.4 0 .2-.2.5-.5.5-.2 0-.4-.2-.4-.4Z"/>
  <path fill="#FEFEFE" fill-rule="evenodd" d="M37.8 28.433c.9-.1 1.9-.2 1.8 2.7-.1 2.7-1 2.9-2.4 3.1h-.5l.2-5.7.9-.1Zm-.1.6-.1 4.5c1.2-.1 1.2-1.3 1.2-2.3.1-.9.2-2.4-1.1-2.2Z" clip-rule="evenodd"/>
  <path fill="#FEFEFE" d="M42.3 27.833v.7l-1.3.1-.1 1.9 1.2-.2-.1.7-1.1.1-.1 2 1.3-.2v.7l-2.1.2.3-5.7 2-.3Z"/>
  <path fill="#FEFEFE" fill-rule="evenodd" d="m43.8 33.433.2-5.8 1-.1c1-.1 1.3.4 1.2 1.4 0 .6-.1 1.1-.7 1.4.6.1.7.6.7 1.2 0 1.1-.4 1.7-1.5 1.8l-.9.1Zm.8-.8c.6 0 .8-.4.8-1s-.1-1-.8-.9v1.9Zm.3-4.5h-.1l-.1 1.9c.7-.1.8-.5.9-1.1 0-.5-.2-.9-.7-.8Z" clip-rule="evenodd"/>
  <path fill="#FEFEFE" d="M48.7 27.933c-.2-.1-.4-.2-.6-.1-.5 0-.7.4-.7.8 0 .2 0 .4.2.6l.5.6c.5.4.8.8.7 1.6 0 .8-.5 1.5-1.3 1.6-.3.1-.6 0-.9-.2l.1-.7c.2.1.4.2.7.2.5-.1.7-.5.7-.9 0-1.1-1.5-1.2-1.5-2.7 0-.8.5-1.5 1.3-1.6.333-.067.6-.034.8.1v.7Zm.4 4.4c0-.2.2-.4.5-.5.2 0 .4.2.4.4 0 .3-.2.5-.4.6-.3 0-.5-.2-.5-.5Z"/>
  <path fill="#FEFEFE" fill-rule="evenodd" d="m53.6 26.533 1 5.6-.8.1-.2-1.1-1.1.1-.2 1.2-.8.1 1.5-6h.6Zm-.2 3.3-.2-2.1-.6 3 .9-.1-.1-.8Z" clip-rule="evenodd"/>
  <path fill="#FEFEFE" d="M56.8 27.033c-.2-.2-.4-.2-.6-.2-.5 0-.7.4-.7.8 0 .3 0 .4.2.6l.5.6c.5.4.8.8.7 1.6 0 .8-.5 1.5-1.3 1.6-.3.1-.6 0-.9-.1l.1-.8c.2.1.4.2.7.2.5-.1.7-.5.7-.9 0-1.1-1.5-1.2-1.5-2.7 0-.8.5-1.5 1.3-1.6.333-.067.6-.034.8.1v.8Zm.4 4.4c0-.3.2-.5.5-.5.2-.1.4.1.4.4 0 .2-.2.4-.4.5-.3 0-.5-.2-.5-.4Zm-47.3-15.8a4.99 4.99 0 0 1-1.4 2.6c-.733.733-1.567 1.133-2.5 1.2-1.133.133-2.067-.133-2.8-.8-.733-.666-1.1-1.533-1.1-2.6 0-1.133.4-2.1 1.2-2.9.733-.866 1.667-1.366 2.8-1.5 1-.133 1.833.067 2.5.6.733.534 1.167 1.267 1.3 2.2l-2.3.3a1.82 1.82 0 0 0-.6-.8 1.984 1.984 0 0 0-.9-.2c-.467.067-.867.3-1.2.7-.333.4-.5.834-.5 1.3 0 .467.167.867.5 1.2.267.333.633.467 1.1.4.333-.066.633-.2.9-.4.267-.267.467-.6.6-1l2.4-.3Z"/>
  <path fill="#FEFEFE" fill-rule="evenodd" d="M14.6 10.633c1.133-.133 2.067.133 2.8.8.733.666 1.1 1.533 1.1 2.6-.067 1.067-.467 2.033-1.2 2.9-.8.866-1.733 1.366-2.8 1.5-1.133.133-2.067-.133-2.8-.8-.733-.667-1.1-1.534-1.1-2.6a4.98 4.98 0 0 1 1.2-3c.733-.8 1.666-1.267 2.8-1.4Zm-.1 5.7c.467-.067.867-.3 1.2-.7.267-.4.4-.833.4-1.3.066-.533-.067-.933-.4-1.2-.333-.333-.7-.467-1.1-.4a2.069 2.069 0 0 0-1.2.6c-.333.4-.5.867-.5 1.4 0 .466.167.866.5 1.2.267.333.633.467 1.1.4Z" clip-rule="evenodd"/>
  <path fill="#FEFEFE" d="m26.2 9.333-.1 7.6-2.1.2-2.3-3v3.3l-2.3.3.2-7.6 2-.3 2.3 3.1.1-3.3 2.2-.3Zm2.3 4.5c.533.467 1.1.666 1.7.6.467-.067.7-.2.7-.4 0-.133-.133-.233-.4-.3a6.902 6.902 0 0 0-.8-.2c-.4-.133-.767-.267-1.1-.4-.334-.133-.633-.367-.9-.7-.2-.267-.3-.633-.3-1.1 0-.4.2-.9.6-1.5.3-.5 1.2-1 2.2-1.1.8-.1 1.5 0 2 .3.4.3.8.6.9.8l.1.1-1.5 1.4c-.267-.267-.5-.433-.7-.5-.2-.067-.467-.1-.8-.1-.3.1-.5.3-.5.4 0 .2.3.4.9.5.266 0 .533.067.8.2.333.133.633.267.9.4s.467.333.6.6c.2.267.3.6.3 1-.1.4-.3 1-.7 1.6-.4.5-1.3 1-2.3 1.1-.867.133-1.567.033-2.1-.3-.6-.334-1-.7-1.2-1.1l1.6-1.3Zm7.9-3.6v.7l2.9-.3v1.9l-3 .4v.6l3.2-.4-.1 2.1-5.4.7.2-7.6 5.4-.6-.1 2.1-3.1.4Zm3.5 3.3 1.7-1.2c.333.4.666.6 1 .6.333-.067.533-.266.6-.6l.1-5.1 2.2-.2-.1 5.3c0 .667-.267 1.267-.8 1.8-.534.534-1.2.834-2 .9-.7.1-1.4-.1-1.8-.4-.4-.3-.7-.7-.8-.9l-.1-.2Z"/>
  <path fill="#FEFEFE" fill-rule="evenodd" d="M50.4 6.233c1.067-.133 2 .133 2.8.8.733.667 1.067 1.567 1 2.7 0 1.067-.367 2.034-1.1 2.9-.8.867-1.767 1.367-2.9 1.5-1.067.134-1.967-.133-2.7-.8-.733-.667-1.1-1.566-1.1-2.7 0-1.066.4-2.033 1.2-2.9.733-.867 1.667-1.367 2.8-1.5Zm-.1 5.7c.467 0 .833-.2 1.1-.6.333-.4.5-.833.5-1.3 0-.533-.133-.967-.4-1.3-.333-.267-.733-.367-1.2-.3-.4 0-.767.2-1.1.6-.333.4-.5.833-.5 1.3 0 .534.167.967.5 1.3.267.267.633.367 1.1.3Z" clip-rule="evenodd"/>
  <path fill="#FEFEFE" d="M56.4 10.433c.533.533 1.1.767 1.7.7.466-.066.7-.233.7-.5 0-.133-.133-.233-.4-.3a6.944 6.944 0 0 0-.8-.2c-.4-.066-.767-.2-1.1-.4a2.664 2.664 0 0 1-.9-.6c-.2-.333-.3-.7-.3-1.1 0-.466.2-.966.6-1.5.3-.6 1.2-1.1 2.2-1.2.8-.1 1.5.1 2 .3.4.3.8.6.9.8l.1.1-1.5 1.4c-.267-.267-.5-.433-.7-.5-.2-.067-.467-.067-.8 0-.3 0-.5.2-.5.3 0 .3.3.4.9.5l.8.2c.333.133.633.267.9.4.267.134.466.333.6.6.2.267.3.6.3 1-.1.5-.3 1-.7 1.6-.4.6-1.3 1-2.4 1.1-.8.134-1.467.034-2-.3-.6-.333-1-.7-1.2-1.1l1.6-1.3Zm-46.1 12.6v.7l2.9-.4v2l-2.9.3-.1.7 3.2-.4v2.1l-5.4.7.1-7.6 5.4-.6v2.1l-3.2.4Zm5.4 1.9c.533.533 1.1.767 1.7.7.467-.066.7-.2.7-.4 0-.133-.133-.233-.4-.3a7.097 7.097 0 0 1-.9-.3 5.698 5.698 0 0 1-1-.3c-.334-.133-.633-.366-.9-.7-.267-.267-.4-.633-.4-1.1 0-.467.2-.967.6-1.5.4-.5 1.2-1 2.3-1.1.8-.1 1.5 0 2 .3.4.2.7.5.9.8l.1.1-1.5 1.4c-.267-.333-.5-.5-.7-.5a3.287 3.287 0 0 0-.8-.1c-.4.1-.6.2-.6.4s.4.4.9.5c.267 0 .567.067.9.2.266.067.533.167.8.3.267.2.5.433.7.7.133.267.2.6.2 1s-.2 1-.6 1.5c-.5.6-1.3 1.1-2.4 1.2-.867.067-1.567-.033-2.1-.3-.533-.333-.9-.7-1.1-1.1l1.6-1.4Zm13.3-1.9c-.2.933-.667 1.767-1.4 2.5-.733.733-1.6 1.167-2.6 1.3-1.133.134-2.067-.133-2.8-.8-.733-.667-1.067-1.567-1-2.7 0-1.066.367-2.033 1.1-2.9.8-.867 1.733-1.367 2.8-1.5 1-.133 1.867.067 2.6.6.667.6 1.1 1.367 1.3 2.3l-2.4.3c-.133-.4-.333-.666-.6-.8a1.083 1.083 0 0 0-.9-.2c-.467 0-.833.2-1.1.6-.333.4-.5.834-.5 1.3 0 .534.133.933.4 1.2.333.333.7.467 1.1.4.333 0 .633-.133.9-.4.333-.267.567-.567.7-.9l2.4-.3Z"/>
  <path fill="#FEFEFE" fill-rule="evenodd" d="M33.7 17.933c1.067-.134 1.967.133 2.7.8.733.666 1.1 1.533 1.1 2.6 0 1.133-.4 2.133-1.2 3-.733.8-1.667 1.267-2.8 1.4-1.133.133-2.067-.134-2.8-.8-.733-.667-1.067-1.533-1-2.6 0-1.133.367-2.1 1.1-2.9.8-.867 1.767-1.367 2.9-1.5Zm-.1 5.7c.4-.067.767-.3 1.1-.7.333-.334.5-.767.5-1.3 0-.467-.167-.867-.5-1.2-.267-.334-.633-.467-1.1-.4a1.53 1.53 0 0 0-1.1.7c-.333.4-.5.833-.5 1.3 0 .533.133.933.4 1.2.333.333.733.467 1.2.4Z" clip-rule="evenodd"/>
  <path fill="#FEFEFE" d="m40.9 17.133-.1 5.5 3.1-.4v2.1l-5.4.7.1-7.6 2.3-.3Z"/>
  <path fill="#FEFEFE" fill-rule="evenodd" d="m49.5 16.133 2.6 7.2-2.4.3-.2-.7-2.4.3-.3.8-2.4.3 2.9-7.9 2.2-.3Zm-1.7 4.8 1-.1-.5-1.5-.5 1.6Zm11.7 1.6-2.7.3-1.5-1.7h-.2v1.9l-2.3.3.2-7.6 3-.4h.6c.4 0 .8.1 1.2.3.5.3.8.6 1 1.2.133.267.167.6.1 1 0 1.067-.4 1.9-1.2 2.5l1.8 2.2Zm-4.4-4.9v1.4l.9-.1c.4-.067.6-.333.6-.8 0-.4-.3-.7-.6-.6l-.9.1Z" clip-rule="evenodd"/>
  <path fill="#FEFEFE" d="M62.5 16.733v.7l2.9-.4-.1 2-2.9.3v.7l3.2-.4-.1 2.1-5.4.7.2-7.6 5.4-.6-.1 2.1-3.1.4Zm5.3 1.9c.533.534 1.133.767 1.8.7.4-.066.6-.2.6-.4 0-.133-.1-.233-.3-.3a7.082 7.082 0 0 1-.9-.3 5.302 5.302 0 0 1-1.1-.3c-.333-.133-.633-.367-.9-.7-.2-.266-.3-.633-.3-1.1 0-.467.2-.967.6-1.5.4-.5 1.2-1 2.2-1.1.8-.1 1.6 0 2 .3.4.2.8.5.9.8l.1.1-1.5 1.4c-.267-.333-.5-.5-.7-.5-.2-.067-.467-.1-.8-.1-.3.1-.5.2-.5.4s.4.4.9.5c.267 0 .533.067.8.2.333.067.633.167.9.3.267.2.467.433.6.7.2.267.3.6.3 1s-.2 1-.7 1.5c-.4.6-1.3 1.1-2.3 1.2-.867.067-1.567-.033-2.1-.3-.533-.333-.9-.7-1.1-1.1l1.5-1.4Z"/>
</svg>
