<svg xmlns="http://www.w3.org/2000/svg" width="82" height="49" fill="none" viewBox="0 0 82 49">
  <path fill="#ED4997" d="m81.1 15.5-50.9 4-.2-5 50.9-4 .2 5Z"/>
  <path fill="#FEFEFE" fill-rule="evenodd" d="M41.6 2.1c1-.1 2.2-.1 1.9 3.2-.2 3-1.2 3.2-2.8 3.4h-.6l.5-6.5 1-.1Zm-.1.7-.4 5.1c1.4-.1 1.4-1.4 1.5-2.5.1-1.1.3-2.8-1.1-2.6Z" clip-rule="evenodd"/>
  <path fill="#FEFEFE" d="m44.8 8.3-.9.1.5-6.5.9-.1-.5 6.5Zm0-6.8-.4-.2.8-1.3.5.3-.9 1.2Z"/>
  <path fill="#FEFEFE" fill-rule="evenodd" d="m47.7 1.6.9 6.4-.9.1-.1-1.3-1.3.1-.4 1.3-.8.1L47 1.7l.7-.1Zm-.3 3.6-.1-2.3-.8 3.3 1-.1-.1-.9Zm4.5-3.9c1-.1 2.2-.1 1.9 3.2-.2 3-1.2 3.2-2.8 3.3l-.5.1.5-6.6h.9Zm-.2.8-.4 5c1.4 0 1.5-1.4 1.5-2.5.1-1 .3-2.7-1.1-2.5Z" clip-rule="evenodd"/>
  <path fill="#FEFEFE" d="M57 .9v.7l-1.5.1-.1 2.1 1.2-.1v.7l-1.3.1-.2 2.2 1.5-.1-.1.8-2.3.2.5-6.6L57 .9Zm2.9-.3-.5 5.8 1.5-.1-.1.7-2.3.2.5-6.5.9-.1Z"/>
  <path fill="#FEFEFE" fill-rule="evenodd" d="m63.2.4.9 6.4h-.9l-.1-1.2-1.3.1-.3 1.3h-.9L62.5.4h.7ZM62.9 4l-.1-2.3-.8 3.4 1-.1-.1-1Z" clip-rule="evenodd"/>
  <path fill="#FEFEFE" d="M38 19.5h-.7L36 17.3l-.2 3.3-2.4.2.5-8 2.2-.2 1.8 2.9 2.2-3.2 2.1-.2-.4 8-2.4.2.2-3.3-1.6 2.5Zm8.3.4h-.7c-.4-.1-.8-.2-1.3-.5-.5-.2-.8-.6-1-1.3-.133-.4-.2-.8-.2-1.2l.3-4.9 2.4-.2-.3 4.9c0 .1 0 .1.1.4 0 .067.033.134.1.2.1.2.4.4.7.3.267 0 .5-.1.7-.3.133-.133.233-.3.3-.5l.1-.3.2-4.8 2.4-.2-.3 4.8c0 .9-.3 1.7-.8 2.2-.2.267-.434.467-.7.6-.7.5-1.5.7-1.8.8h-.2Zm-.8-8.8 1.2-2.2 2.7-.2-1.5 2.2-2.4.2Zm6.8 5.2c.533.6 1.133.867 1.8.8.466-.066.7-.233.7-.5 0-.066-.133-.166-.4-.3a7.1 7.1 0 0 1-.9-.3c-.4-.066-.767-.2-1.1-.4-.333-.133-.633-.366-.9-.7-.267-.333-.367-.733-.3-1.2 0-.466.2-1 .6-1.6.5-.6 1.4-1 2.5-1.1.8-.1 1.6.1 2.1.4.4.3.8.6.9.9l.1.1-1.6 1.4a3.132 3.132 0 0 0-.8-.6c-.2-.066-.467-.066-.8 0-.4 0-.6.2-.6.4s.4.4.9.5c.267.067.567.167.9.3.333.067.633.2.9.4.267.134.5.367.7.7.133.267.2.6.2 1-.1.5-.3 1.1-.8 1.7-.5.5-1.4 1-2.5 1.1-.933.067-1.667-.1-2.2-.5-.533-.333-.9-.733-1.1-1.2l1.7-1.3Zm5.7 2.5.5-8 2.4-.2-.5 8-2.4.2Zm12-4.3c-.267 1-.8 1.867-1.6 2.6-.8.734-1.7 1.134-2.7 1.2-1.2.134-2.167-.166-2.9-.9-.733-.733-1.1-1.7-1.1-2.9.133-1.133.6-2.133 1.4-3 .867-.866 1.9-1.366 3.1-1.5 1-.066 1.867.2 2.6.8.733.6 1.166 1.4 1.3 2.4l-2.5.2a1.82 1.82 0 0 0-.6-.8 1.93 1.93 0 0 0-1-.3 2.068 2.068 0 0 0-1.2.6c-.334.4-.533.867-.6 1.4 0 .534.133.967.4 1.3.333.334.733.5 1.2.5.333-.066.666-.233 1-.5.267-.2.5-.5.7-.9l2.5-.2Z"/>
  <path fill="#FEFEFE" fill-rule="evenodd" d="m75.7 9.4 2.4 7.8-2.5.2-.2-.8-2.6.2-.3.8-2.6.2 3.4-8.2 2.4-.2Zm-2 5.1 1-.1-.4-1.7-.6 1.8Z" clip-rule="evenodd"/>
  <path fill="#ED4997" d="m48.8 32.7-48.3 4L0 32l48.6-4.1.2 4.8Zm15.4 9L1 47.4l-.5-4.8L64 37l.2 4.7Z"/>
  <path fill="#FEFEFE" fill-rule="evenodd" d="M3.1 20.8c1-.1 2.1-.1 1.8 3.1-.2 2.9-1.1 3.1-2.6 3.2h-.6l.5-6.2.9-.1Zm-.2.7-.3 4.8C3.9 26.3 4 25 4 23.9c.1-1 .3-2.6-1.1-2.4Z" clip-rule="evenodd"/>
  <path fill="#FEFEFE" d="M6.2 26.8h-.9l.5-6.2.8-.1-.4 6.3Zm.1-6.5-.4-.2.7-1.3.6.3-.9 1.2Z"/>
  <path fill="#FEFEFE" fill-rule="evenodd" d="m9 20.3.8 6.2H9l-.1-1.2-1.3.1-.3 1.3-.8.1 1.8-6.4.7-.1Zm-.3 3.5-.1-2.3-.8 3.2h1l-.1-.9ZM13 20c1-.1 2.1-.1 1.9 3.1-.2 2.9-1.2 3.1-2.7 3.2h-.6l.5-6.2.9-.1Zm-.1.7-.4 4.8c1.4 0 1.4-1.3 1.5-2.4.1-1 .3-2.6-1.1-2.4Z" clip-rule="evenodd"/>
  <path fill="#FEFEFE" d="m18 19.6-.1.7-1.4.1-.1 2 1.2-.1v.7l-1.3.1-.1 2.2 1.3-.2v.8l-2.2.1.5-6.2 2.2-.2ZM4.9 30.1l-.4 5.5 3.3-.3-.1 2.2-5.6.5.5-7.8 2.3-.1Z"/>
  <path fill="#FEFEFE" fill-rule="evenodd" d="m13.8 29.3 2.3 7.5-2.4.2-.3-.7-2.4.2-.4.8-2.4.2 3.2-8 2.4-.2Zm-1.9 4.9 1-.1-.4-1.5-.6 1.6Z" clip-rule="evenodd"/>
  <path fill="#FEFEFE" d="m21.5 36.4-2.3.2.5-7.7 5.5-.5-.1 2.2-3.3.3v1l3-.2-.1 2-3 .2-.2 2.5Zm6.9-8.2-.3 5.5 3.3-.3-.2 2.2-5.5.5.5-7.8 2.2-.1Z"/>
  <path fill="#FEFEFE" fill-rule="evenodd" d="M36.2 27.4c1.133-.067 2.067.233 2.8.9.733.733 1.067 1.666 1 2.8a4.33 4.33 0 0 1-1.3 2.9c-.867.866-1.867 1.333-3 1.4-1.133.066-2.067-.234-2.8-.9-.667-.734-1-1.667-1-2.8.067-1.067.533-2.034 1.4-2.9.8-.867 1.767-1.334 2.9-1.4Zm-.3 5.8c.4 0 .767-.2 1.1-.6.4-.4.6-.834.6-1.3.066-.534-.067-.967-.4-1.3-.333-.334-.7-.467-1.1-.4-.467 0-.867.2-1.2.6a2.58 2.58 0 0 0-.6 1.3c0 .533.133.966.4 1.3.333.333.733.466 1.2.4Zm11.8 1.1-2.8.2-1.5-1.8h-.2l-.1 2-2.3.1.5-7.7 3.1-.2h.6c.4.1.8.1 1.2.4.5.2.8.6 1 1.2.067.333.1.666.1 1-.067 1.133-.533 1.966-1.4 2.5l1.8 2.3Zm-4.3-5.2v1.5l.8-.1c.467 0 .7-.233.7-.7 0-.5-.2-.8-.6-.7h-.9Z" clip-rule="evenodd"/>
  <path fill="#FEFEFE" d="m10.9 40.1-.4 7.7-2.1.1-2.2-3.1-.2 3.3-2.3.2.4-7.7 2.1-.2 2.3 3.2.2-3.4 2.2-.1Z"/>
  <path fill="#FEFEFE" fill-rule="evenodd" d="m16.8 39.6 2.4 7.5-2.5.2-.2-.8-2.5.2-.3.8-2.5.2 3.3-7.9 2.3-.2Zm-2 4.9 1.1-.1-.5-1.6-.6 1.7Z" clip-rule="evenodd"/>
  <path fill="#FEFEFE" d="M27.5 43.2c-.2 1-.7 1.833-1.5 2.5-.8.733-1.7 1.133-2.7 1.2-1.134.067-2.033-.267-2.7-1-.733-.667-1.067-1.567-1-2.7a4.33 4.33 0 0 1 1.3-2.9c.8-.867 1.767-1.333 2.9-1.4 1-.067 1.867.166 2.6.7.667.6 1.067 1.367 1.2 2.3l-2.4.2a1.82 1.82 0 0 0-.6-.8 1.083 1.083 0 0 0-.9-.2c-.467 0-.867.2-1.2.6a2.58 2.58 0 0 0-.6 1.3c0 .533.133.966.4 1.3.333.333.733.466 1.2.4.333 0 .633-.134.9-.4.333-.267.567-.567.7-.9l2.4-.2Zm.7 3.1.4-7.7 2.3-.2-.4 7.8-2.3.1Z"/>
  <path fill="#FEFEFE" fill-rule="evenodd" d="M36 37.9c1.133-.067 2.066.233 2.8.9.733.733 1.067 1.666 1 2.8-.067 1.066-.5 2.033-1.3 2.9-.867.866-1.867 1.333-3 1.4-1.133.066-2.033-.234-2.7-.9-.733-.734-1.067-1.667-1-2.8a4.33 4.33 0 0 1 1.3-2.9c.8-.867 1.767-1.334 2.9-1.4Zm-.3 5.8c.467 0 .867-.2 1.2-.6.333-.4.5-.834.5-1.3.067-.534-.067-.967-.4-1.3-.267-.334-.633-.467-1.1-.4-.467 0-.867.2-1.2.6a2.58 2.58 0 0 0-.6 1.3c0 .533.133.966.4 1.3.333.333.733.466 1.2.4Z" clip-rule="evenodd"/>
  <path fill="#FEFEFE" d="m47.9 37.1-.5 7.7-2 .2-2.3-3.2-.2 3.4-2.3.1.5-7.7 2.1-.1 2.2 3.1.2-3.3 2.3-.2Z"/>
  <path fill="#FEFEFE" fill-rule="evenodd" d="m53.7 36.6 2.4 7.5-2.5.2-.2-.8-2.5.2-.3.8-2.5.2 3.3-7.9 2.3-.2Zm-1.9 4.9 1-.1-.4-1.6-.6 1.7Z" clip-rule="evenodd"/>
  <path fill="#FEFEFE" d="m59.6 36.1-.4 5.6 3.3-.3-.2 2.2-5.5.4.5-7.7 2.3-.2Z"/>
</svg>
