<svg xmlns="http://www.w3.org/2000/svg" width="60" height="48" fill="none" viewBox="0 0 60 48">
  <path fill="#FEFEFE" fill-rule="evenodd" d="M11.3 2.3c.9 0 1.9 0 1.6 2.8-.3 2.5-1.1 2.7-2.4 2.7l-.5.1.5-5.5.8-.1Zm-.1.6-.4 4.3C12 7.1 12 6 12.1 5.1c.1-.9.3-2.3-.9-2.2Z" clip-rule="evenodd"/>
  <path fill="#FEFEFE" d="m13.9 7.6-.7.1.5-5.5.7-.1-.5 5.5Zm.2-5.7-.4-.2.7-1.1.5.3-.8 1Z"/>
  <path fill="#FEFEFE" fill-rule="evenodd" d="m16.5 2 .6 5.5h-.7l-.1-1.1-1.1.1-.3 1.1h-.7l1.7-5.5.6-.1Zm-.3 3-.1-2-.7 2.9.9-.1-.1-.8Z" clip-rule="evenodd"/>
  <path fill="#FEFEFE" d="m19.4 7.3-.7.1.5-5.5.8-.1-.6 5.5Zm1.7-3.9v1.8l-.2 2-.8.1.6-5.5.7-.1.8 4.1.1-2.2.2-1.9.7-.1-.5 5.5-.7.1-.9-4.2v.4Zm4.7-1.9v.6l-.9.1-.4 4.8-.8.1.5-4.9-.8.1v-.7l2.4-.1Zm2.2-.2-.1.7-1.2.1-.2 1.7 1.1-.1v.7h-1.1l-.2 1.9 1.2-.1-.1.6-1.9.2.5-5.5 2-.2Z"/>
  <path fill="#FEFEFE" fill-rule="evenodd" d="M28.4 1.3h.8c.6-.1 1.4-.1 1.3 1.3-.1.5-.3 1.3-.9 1.5l.7 2.6h-.8l-.7-2.6-.2 2.7h-.8l.6-5.5Zm1.3 1.5c.1-.5.1-1-.5-.9h-.1l-.2 1.8c.6 0 .8-.3.8-.9Z" clip-rule="evenodd"/>
  <path fill="#FEFEFE" d="M31.6 2.8v1.8l-.2 2-.7.1.5-5.5.7-.1.8 4.1h.1V3l.2-1.9.7-.1-.5 5.5h-.7l-.8-4.1h-.1v.4Z"/>
  <path fill="#FEFEFE" fill-rule="evenodd" d="m35.8.9.6 5.4-.7.1-.1-1.1-1.1.1-.3 1-.7.1L35.2.9h.6ZM35.5 4l-.1-2-.7 2.8h.8V4Z" clip-rule="evenodd"/>
  <path fill="#FEFEFE" d="M39.3 1.4c-.133-.067-.3-.1-.5-.1-1 .1-1.1 1.6-1.2 2.3-.1.7-.2 2 .8 2 .2 0 .367-.034.5-.1l-.1.6c-.2.133-.4.2-.6.2-1.5.1-1.5-1.5-1.4-2.6.1-1.2.4-3 1.9-3.1.3 0 .4.1.6.2v.6Zm.6 4.7-.7.1.5-5.5.7-.1-.5 5.5Z"/>
  <path fill="#FEFEFE" fill-rule="evenodd" d="M43.6 3.2c-.1 1-.3 2.8-1.7 2.9-1.4.1-1.3-1.8-1.2-2.8.1-1 .3-2.8 1.7-2.9 1.4-.1 1.3 1.8 1.2 2.8Zm-2.1.1c-.1 1.2-.1 2.1.4 2.1.6 0 .8-1 .9-2.2.1-1.2.1-2.1-.4-2.1-.6 0-.8 1-.9 2.2Z" clip-rule="evenodd"/>
  <path fill="#FEFEFE" d="M44.8 2v1.8l-.2 2-.8.1.6-5.5.7-.1.8 4.1h.1V2.2l.2-1.9.7-.1-.5 5.5-.7.1-.8-4.2h-.1V2Z"/>
  <path fill="#FEFEFE" fill-rule="evenodd" d="m49 .1.6 5.4-.7.1-.1-1.1-1.1.1-.3 1.1h-.7L48.4.2l.6-.1Zm-.3 3-.1-2-.7 2.9.8-.1v-.8Z" clip-rule="evenodd"/>
  <path fill="#FEFEFE" d="m51.1 0-.4 4.9 1.2-.1-.1.6-1.9.1.5-5.5h.7Z"/>
  <path fill="#FEFEFE" fill-rule="evenodd" d="M16.3 10.6c.8-.1 1.8-.1 1.5 2.7-.2 2.5-1 2.7-2.3 2.8H15l.5-5.5h.8Zm-.2.7-.4 4.2c1.2 0 1.3-1.2 1.4-2.1 0-.8.3-2.3-1-2.1Z" clip-rule="evenodd"/>
  <path fill="#FEFEFE" d="m20.6 10.3-.1.6-1.2.1-.1 1.7h1.1l-.1.6-1.1.1-.2 1.8h1.2v.6l-2 .1.6-5.5 1.9-.1Zm2.4-.1-.4 4.8 1.2-.1-.1.7-1.9.1.5-5.5h.7Z"/>
  <path fill="#FEFEFE" fill-rule="evenodd" d="m25.8 10 .7 5.4h-.7l-.1-1-1.1.1-.3 1-.7.1 1.7-5.6h.5Zm-.3 3.1-.1-2-.7 2.8h.8v-.8Z" clip-rule="evenodd"/>
  <path fill="#FEFEFE" d="m16.2 41.2-.4 4.8 1.2-.1-.1.7-1.9.1.5-5.5h.7Z"/>
  <path fill="#FEFEFE" fill-rule="evenodd" d="m19 41 .7 5.4H19l-.1-1-1.1.1-.3 1-.7.1 1.6-5.6h.6Zm-.2 3.1-.1-2h-.1l-.6 2.8h.8v-.8Z" clip-rule="evenodd"/>
  <path fill="#6A559A" d="M59.9 22.3 0 26.1l.3-4.5 59.6-3.8v4.5Z"/>
  <path fill="#FEFEFE" d="m6.1 26.9-2.2.1-2-7 2.3-.2L5.3 24 7 19.7l2.3-.2-3.2 7.4Zm3.2-.2.7-7.2 2.1-.1-.6 7.2-2.2.1Z"/>
  <path fill="#FEFEFE" fill-rule="evenodd" d="M16.8 19c1.067-.067 1.933.267 2.6 1 .667.667.967 1.5.9 2.5-.133 1.067-.567 1.967-1.3 2.7-.8.8-1.733 1.2-2.8 1.2-1.067.067-1.933-.233-2.6-.9-.6-.667-.867-1.533-.8-2.6.067-1 .5-1.9 1.3-2.7.733-.733 1.633-1.133 2.7-1.2Zm-.4 5.4c.4 0 .767-.167 1.1-.5.333-.333.533-.766.6-1.3 0-.466-.133-.833-.4-1.1-.267-.333-.6-.5-1-.5a2.069 2.069 0 0 0-1.2.6c-.333.333-.5.733-.5 1.2-.067.467.033.867.3 1.2.267.333.633.467 1.1.4Z" clip-rule="evenodd"/>
  <path fill="#FEFEFE" d="m23.7 18.8-.4 5.1 3-.1-.2 2-5.1.2.6-7.1 2.1-.1Zm5.7 1.7-.1.7 2.8-.2-.1 1.8-2.8.2-.1.6 3-.2-.1 2-5.2.3.6-7.1 5.2-.3-.2 2-3 .2Zm10.5-2.6-.6 7.2-2 .1-2-3-.2 3.1-2.1.1.6-7.2 1.9-.1 2 3 .3-3.1 2.1-.1Zm8.1 3.7a4.493 4.493 0 0 1-1.5 2.3c-.733.667-1.567 1-2.5 1-1.067.067-1.9-.233-2.5-.9-.667-.666-.967-1.533-.9-2.6.067-1 .5-1.9 1.3-2.7.8-.733 1.7-1.133 2.7-1.2.933-.066 1.733.2 2.4.8.667.534 1.033 1.233 1.1 2.1l-2.3.2a1.28 1.28 0 0 0-.5-.8c-.267-.2-.533-.3-.8-.3a2.069 2.069 0 0 0-1.2.6 2.43 2.43 0 0 0-.5 1.2c-.067.467.067.867.4 1.2.267.334.6.467 1 .4.333 0 .633-.1.9-.3a2.65 2.65 0 0 0 .6-.9l2.3-.1Zm.5 2.9.6-7.1 2.2-.1-.6 7.1-2.2.1Z"/>
  <path fill="#FEFEFE" fill-rule="evenodd" d="m56.7 17 2 7-2.3.1-.2-.7-2.3.1-.3.8-2.3.1 3.3-7.3 2.1-.1Zm-2 4.5 1-.1-.4-1.4-.6 1.5Z" clip-rule="evenodd"/>
  <path fill="#6A559A" d="M55.9 34.2 9 36.4l.4-4.6 46.5-2.1v4.5Z"/>
  <path fill="#FEFEFE" d="M17.9 34.3a4.494 4.494 0 0 1-1.5 2.3c-.733.666-1.567 1-2.5 1-1.067.066-1.933-.234-2.6-.9-.6-.734-.867-1.6-.8-2.6.133-1.067.567-1.967 1.3-2.7a4.444 4.444 0 0 1 2.8-1.2c.933-.067 1.7.2 2.3.8.667.533 1.033 1.266 1.1 2.2l-2.3.1a1.28 1.28 0 0 0-.5-.8c-.2-.2-.467-.3-.8-.3-.4.066-.767.266-1.1.6a2.069 2.069 0 0 0-.6 1.2c-.067.466.033.866.3 1.2.267.266.633.4 1.1.4.333 0 .633-.1.9-.3a2.66 2.66 0 0 0 .6-.9l2.3-.1Z"/>
  <path fill="#FEFEFE" fill-rule="evenodd" d="M22.7 29.8c1.067 0 1.933.333 2.6 1 .667.666.933 1.533.8 2.6-.067 1-.5 1.9-1.3 2.7a4.445 4.445 0 0 1-2.8 1.2c-1.067 0-1.9-.333-2.5-1-.667-.667-.966-1.534-.9-2.6.133-1 .6-1.9 1.4-2.7.733-.734 1.633-1.134 2.7-1.2Zm-.5 5.4c.467 0 .833-.167 1.1-.5.333-.334.533-.734.6-1.2.067-.467-.033-.867-.3-1.2-.267-.333-.633-.467-1.1-.4-.4 0-.767.166-1.1.5a2.068 2.068 0 0 0-.6 1.2c0 .466.133.867.4 1.2.267.333.6.466 1 .4Z" clip-rule="evenodd"/>
  <path fill="#FEFEFE" d="m33.8 29.4-.7 7.2-1.9.1-2-3-.3 3.1-2.1.1.7-7.2 1.9-.1 2 3.1.3-3.2 2.1-.1Zm2.6 1.9-2 .1.2-2 6.1-.3-.2 2-2 .1-.5 5.2-2.1.1.5-5.2Z"/>
  <path fill="#FEFEFE" fill-rule="evenodd" d="m47.2 36-2.6.1-1.3-1.8-.2.1-.1 1.8h-2.2l.7-7.1 2.9-.1c.1 0 .2-.1.6 0 .4.1.7.1 1.1.4.4.2.7.6.8 1.1.067.333.1.666.1 1-.067 1-.533 1.766-1.4 2.3l1.6 2.2Zm-3.8-5-.1 1.4.8-.1c.4 0 .633-.234.7-.7 0-.4-.2-.6-.5-.6h-.9Zm9.5-2.4 2 7-2.3.1-.2-.7-2.3.1-.3.7-2.3.1 3.3-7.2 2.1-.1Zm-2 4.4h1l-.4-1.5-.6 1.5Z" clip-rule="evenodd"/>
  <path fill="#6A559A" d="m59 44.6-37 1.6.3-4.5 36.8-1.6-.1 4.5Z"/>
  <path fill="#FEFEFE" d="M27.2 46.4h-.6l-1.1-2.1-.3 3-2.2.1.8-7.2 1.9-.1 1.5 2.7 2.1-2.8 1.9-.1-.7 7.2h-2.1l.3-2.9-1.5 2.2Zm7.4.6H34c-.4-.1-.7-.2-1.2-.4-.4-.3-.7-.7-.9-1.3a3.042 3.042 0 0 1 0-1.1l.4-4.3 2.1-.1-.4 4.3v.4l.2.2c.1.2.3.3.6.3.267 0 .467-.067.6-.2.133-.2.233-.367.3-.5l.1-.2.4-4.4 2.1-.1-.4 4.4c-.1.8-.4 1.5-.8 1.9-.2.2-.4.367-.6.5-.7.5-1.4.6-1.8.6h-.1Zm3.4-1.8 1.7-1.1c.267.467.567.7.9.7.333 0 .533-.167.6-.5l.4-4.8 2.2-.1-.5 5a2.19 2.19 0 0 1-.9 1.6c-.6.467-1.267.733-2 .8-.7 0-1.3-.2-1.6-.6-.4-.3-.6-.6-.8-.9v-.1Zm8.8-3.9-.1.7 2.8-.2-.2 1.9-2.8.1-.1.6 3.1-.1-.2 2-5.2.2.7-7.2 5.2-.2-.2 2-3 .2Z"/>
  <path fill="#FEFEFE" fill-rule="evenodd" d="m56.6 46-2.5.1-1.3-1.7h-.2l-.2 1.8-2.1.1.7-7.2 2.9-.1h.6c.3.1.7.2 1.1.4.4.3.7.6.8 1.2.067.267.1.6.1 1-.133 1-.6 1.733-1.4 2.2l1.5 2.2Zm-3.8-5-.1 1.4.8-.1c.4 0 .6-.2.6-.6.1-.5-.1-.7-.5-.7h-.8Z" clip-rule="evenodd"/>
  <path fill="#6A559A" d="m46.9 13.61-17.9 1 .3-4.6 17.7-.9-.1 4.5Z"/>
  <path fill="#FEFEFE" d="m37.1 8.31-.7 7.1-1.9.099-2-3-.3 3.1-2.1.1.7-7.2h1.9l2 3 .3-3.1 2.1-.1Z"/>
  <path fill="#FEFEFE" fill-rule="evenodd" d="M41.9 8.01c1.067-.068 1.9.233 2.5.9.666.733.967 1.6.9 2.6a4.277 4.277 0 0 1-1.4 2.7 4.443 4.443 0 0 1-2.8 1.2c-1 0-1.833-.334-2.5-1-.667-.667-.933-1.534-.8-2.6.067-1 .5-1.867 1.3-2.6.8-.8 1.733-1.2 2.8-1.2Zm-.6 5.4a2.068 2.068 0 0 0 1.2-.6c.333-.334.5-.734.5-1.2.066-.467-.033-.867-.3-1.2-.267-.267-.6-.4-1-.4-.467 0-.867.166-1.2.5-.334.332-.5.733-.5 1.2-.067.466.033.866.3 1.2.267.333.6.5 1 .5Z" clip-rule="evenodd"/>
</svg>
