<svg xmlns="http://www.w3.org/2000/svg" width="121" height="61" fill="none" viewBox="0 0 121 61">
  <path fill="#E2EDC3" stroke="#050505" stroke-linecap="round" stroke-linejoin="round" stroke-width=".4" d="M75.599 34.4c.066-.067.133-.1.2-.1l.5.1c.066 0 .1.067.1.2.1.1 0 .3-.1.4-.067.066-.134.1-.2.1 0 0-.4-.1-.5-.1-.067-.067-.1-.133-.1-.2 0-.1 0-.3.1-.4Z"/>
  <path fill="#E0EFE1" stroke="#050505" stroke-linecap="round" stroke-linejoin="round" stroke-width=".4" d="M75.999 35c.1.1.2.1.3 0 .1-.1.2-.3.1-.4 0-.2-.1-.2-.2-.1-.2.1-.2.3-.2.5Z"/>
  <path fill="#E2EDC3" stroke="#050505" stroke-linecap="round" stroke-linejoin="round" stroke-width=".4" d="M76.299 33.6c.066-.067.133-.1.2-.1l.5.1c.066 0 .133.033.2.1 0 .2 0 .4-.1.5-.067.067-.134.067-.2 0-.1 0-.5-.1-.6-.1l-.1-.1c0-.1 0-.3.1-.4Z"/>
  <path fill="#E0EFE1" stroke="#050505" stroke-linecap="round" stroke-linejoin="round" stroke-width=".4" d="M76.799 34.1c0 .2.1.2.3.1.1-.1.1-.3.1-.5-.1-.1-.2-.1-.3 0-.1.1-.2.3-.1.4Z"/>
  <path fill="#E2EDC3" stroke="#050505" stroke-linecap="round" stroke-linejoin="round" stroke-width=".4" d="M74.899 35.2c.066-.067.133-.067.2 0 0 0 .4.1.5.1.066 0 .1.033.1.1.1.1 0 .3-.1.4-.067.067-.134.1-.2.1l-.5-.1c-.067 0-.1-.033-.1-.1-.1-.2 0-.4.1-.5Z"/>
  <path fill="#E0EFE1" stroke="#050505" stroke-linecap="round" stroke-linejoin="round" stroke-width=".4" d="M75.299 35.8c.1.1.2.2.3 0 .1-.1.2-.3.1-.4 0-.1-.2-.2-.3-.1-.1.2-.1.4-.1.5Z"/>
  <path fill="#6ACBDF" stroke="#050505" stroke-linecap="round" stroke-linejoin="round" stroke-width=".4" d="m80.499 34.2-2.4 2.8-1.2.4-1.4-.2-.3-.8 5-2.9.3.7Z"/>
  <path fill="#6ACBDF" stroke="#050505" stroke-linecap="round" stroke-linejoin="round" stroke-width=".4" d="m76.899 37.4-5 6.4-2.1-.6 6.8-6.5.3.7Z"/>
  <path fill="#ED499A" stroke="#050505" stroke-linecap="round" stroke-linejoin="round" stroke-width=".4" d="M58.099 50.8c-.5-1.2 1-2.8 2.3-3.5 1.3-.7 2.7-.9 3.4-1.6.7-.7.9-2 2.3-2.7 1.4-.6 2.7-.6 3.4-.5.8.1 1.4.3 2.1.4.6.1 1.5.2 1.8 1.2.3.8.8 2.1 1.1 3.1.3.9-.7 1.6-1.2 2.1-.6.4-1.4 1-1.2 2.2.3 1.1-.4 3-2.7 4-2.3 1.1-3.8 1-6.2.5-2.5-.5-3.6-.8-4-2.1-.2-.5-.9-2.4-1.1-3.1Z"/>
  <path fill="#69BC45" d="M69.199 43.9c.8-.4 1.566-.734 2.3-1-.6-.2-1.2-.3-2-.4-.7-.1-2-.1-3.4.5-1.4.7-1.6 2-2.3 2.7-.7.7-2.1.9-3.4 1.6-1.3.7-2.8 2.3-2.3 3.5.2.7.9 2.6 1.1 3.1.4 1.3 1.5 1.6 4 2.1 1.1.2 2 .4 2.9.3-.6-1.6-1.4-4.1-1.8-5.1-.9-2.6 2.2-5.8 4.9-7.3Z" style="mix-blend-mode:multiply"/>
  <path fill="#69BC45" d="M68.999 55.7c-.6-1.6-1.6-4.5-2-5.6-.9-2.5 2.1-5.7 4.7-7.2h-.2c-.734.266-1.5.6-2.3 1-2.7 1.5-5.8 4.7-4.9 7.3.4 1 1.2 3.5 1.8 5.1 1 0 1.8-.2 2.9-.6Z" opacity=".3" style="mix-blend-mode:multiply"/>
  <path fill="#ED499A" stroke="#050505" stroke-linecap="round" stroke-linejoin="round" stroke-width=".4" d="M73.399 44.1c.3.9-.7 1.6-1.2 2-.6.5-1.4 1.1-1.2 2.3.3 1.1-.4 2.9-2.7 4-2.3 1.1-3.8.9-6.2.5-2.5-.5-3.6-.9-4-2.1-.5-1.2 1-2.8 2.3-3.5 1.3-.7 2.7-.9 3.4-1.6.7-.7.9-2 2.3-2.7 1.4-.6 2.7-.6 3.4-.5.8.1 1.4.3 2.1.4.6.1 1.5.2 1.8 1.2Z"/>
  <path fill="#69BC45" d="M73.099 49.4c-.4-1.2-.8-2.4-1.1-3.1-.5.3-1.1.9-1 1.7.3.9.7 2.1 1.1 3.2-.1-.9.5-1.4 1-1.8Z" opacity=".3" style="mix-blend-mode:multiply"/>
  <path fill="#3953A4" stroke="#050505" stroke-linecap="round" stroke-linejoin="round" stroke-width=".4" d="M62.299 54.3c.1.2.3.3.4.2.2 0 .2-.2.1-.4-.2-.1-.4-.2-.5-.2-.2.1-.2.2 0 .4Z"/>
  <path fill="#D28CBC" stroke="#050505" stroke-linecap="round" stroke-linejoin="round" stroke-width=".4" d="m80.199 33.5-2.4 2.8-1.2.4-1.4-.2-.3-.8 2.4-2.7 2.9.5Z"/>
  <path fill="#69BC45" stroke="#050505" stroke-linecap="round" stroke-linejoin="round" stroke-width=".4" d="m76.599 36.7-5 6.2-2.1-.4 5.7-6 1.4.2Z"/>
  <path fill="#69BC45" stroke="#050505" stroke-linecap="round" stroke-linejoin="round" stroke-width=".4" d="m74.699 37 1.5.3-.5.5-1.5-.2.5-.6Z"/>
  <path fill="#70BF57" stroke="#050505" stroke-linecap="round" stroke-linejoin="round" stroke-width=".4" d="m74.199 37.6 1.5.2-.5.6-1.5-.3.5-.5Zm-1.1 1.1 1.7.2-.5.6-1.7-.3.5-.5Z"/>
  <path fill="#69BC45" stroke="#050505" stroke-linecap="round" stroke-linejoin="round" stroke-width=".4" d="m73.699 38.1 1.5.3-.4.5-1.7-.2.6-.6Z"/>
  <path fill="#70BF57" stroke="#050505" stroke-linecap="round" stroke-linejoin="round" stroke-width=".4" d="m75.199 36.5 1.4.2-.4.6-1.5-.3.5-.5Z"/>
  <path stroke="#050505" stroke-linecap="round" stroke-linejoin="round" stroke-width=".4" d="m75.199 36.5 1.4.2"/>
  <path fill="#69BC45" stroke="#050505" stroke-linecap="round" stroke-linejoin="round" stroke-width=".4" d="m70.599 41.4 1.9.4-.5.5-1.9-.3.5-.6Z"/>
  <path stroke="#050505" stroke-linecap="round" stroke-linejoin="round" stroke-width=".4" d="m70.599 42.7 1 .2"/>
  <path fill="#70BF57" stroke="#050505" stroke-linecap="round" stroke-linejoin="round" stroke-width=".4" d="m69.499 42.5.6-.5 1.9.3-.4.6-1-.2-1.1-.2Z"/>
  <path fill="#69BC45" stroke="#050505" stroke-linecap="round" stroke-linejoin="round" stroke-width=".4" d="m72.599 39.2 1.7.3-.4.6-1.8-.3.5-.6Z"/>
  <path fill="#70BF57" stroke="#050505" stroke-linecap="round" stroke-linejoin="round" stroke-width=".4" d="m71.099 40.9 1.8.3-.4.6-1.9-.4.5-.5Z"/>
  <path fill="#69BC45" stroke="#050505" stroke-linecap="round" stroke-linejoin="round" stroke-width=".4" d="m71.599 40.3 1.8.3-.5.6-1.8-.3.5-.6Z"/>
  <path fill="#70BF57" stroke="#050505" stroke-linecap="round" stroke-linejoin="round" stroke-width=".4" d="m72.099 39.8 1.8.3-.5.5-1.8-.3.5-.5Zm-3 3.3 2.1.3-.5.6-2.1-.4.5-.5Z"/>
  <path fill="#69BC45" stroke="#050505" stroke-linecap="round" stroke-linejoin="round" stroke-width=".4" d="m69.499 42.5 2.1.4-.4.5-2.1-.3.4-.6Zm-.9 1.1 2.1.4-.5.6-2-.4.4-.6Zm-1.4 1.7.5-.5 2.1.3-.5.6-2.1-.4Z"/>
  <path fill="#69BC45" stroke="#050505" stroke-linecap="round" stroke-linejoin="round" stroke-width=".4" d="m69.099 45.9-2.1-.2.2-.4 2.1.4-.2.2Z"/>
  <path fill="#70BF57" stroke="#050505" stroke-linecap="round" stroke-linejoin="round" stroke-width=".4" d="m68.199 44.2 2 .4-.4.5-2.1-.3.5-.6Z"/>
  <path fill="#6ACBDF" d="m71.799 42.9-2.7 3 2.9-3.6"/>
  <path stroke="#050505" stroke-linecap="round" stroke-linejoin="round" stroke-width=".4" d="m71.799 42.9-2.7 3 2.9-3.6"/>
  <path fill="#56B846" stroke="#050505" stroke-linecap="round" stroke-linejoin="round" stroke-width=".4" d="m77.799 36.3-1.2.4.3.7 1.2-.4-.3-.7Z"/>
  <path fill="#6ACBDF" stroke="#050505" stroke-linecap="round" stroke-linejoin="round" stroke-width=".4" d="m75.799 35.3 1.5-1.8c.1-.1.4-.1.6-.1.2.1.3.2.2.3l-1.6 1.8c-.1.1-.3.2-.5.1-.2 0-.3-.2-.2-.3Zm1.199.2 1.6-1.8c.1-.1.3-.2.5-.1.2 0 .3.1.2.3l-1.5 1.7c-.1.2-.4.2-.6.2-.2-.1-.3-.2-.2-.3Z"/>
  <path fill="#E2EDC3" stroke="#050505" stroke-linecap="round" stroke-linejoin="round" stroke-width=".4" d="M78.999 35c.066-.067.133-.1.2-.1.1 0 .5.1.5.1.066 0 .133.033.2.1 0 .2 0 .4-.1.5-.067.067-.134.1-.2.1-.1-.1-.5-.1-.6-.2l-.1-.1c0-.1 0-.3.1-.4Z"/>
  <path fill="#E0EFE1" stroke="#050505" stroke-linecap="round" stroke-linejoin="round" stroke-width=".4" d="M79.498 35.6c0 .1.2.1.3 0 .1-.1.1-.3.1-.5-.1-.1-.2-.1-.3 0-.1.1-.2.3-.1.5Z"/>
  <path fill="#E2EDC3" stroke="#050505" stroke-linecap="round" stroke-linejoin="round" stroke-width=".4" d="M79.799 34.1h.1c.1 0 .5.1.6.1l.1.1c0 .1 0 .3-.1.5-.067.067-.134.067-.2 0l-.5-.1c-.067 0-.1-.033-.1-.1-.1-.1 0-.3.1-.5Z"/>
  <path fill="#E0EFE1" stroke="#050505" stroke-linecap="round" stroke-linejoin="round" stroke-width=".4" d="M80.199 34.7c.1.2.2.2.3.1.1-.2.1-.4.1-.5-.1-.1-.2-.1-.3 0-.1.1-.1.3-.1.4Z"/>
  <path fill="#E2EDC3" stroke="#050505" stroke-linecap="round" stroke-linejoin="round" stroke-width=".4" d="M78.299 35.8c.066-.066.133-.1.2-.1 0 .1.5.2.5.2.066 0 .1.034.1.1.1.1 0 .3-.1.4-.067.067-.134.1-.2.1 0 0-.4-.1-.5-.1l-.1-.1c0-.2 0-.4.1-.5Z"/>
  <path fill="#E0EFE1" stroke="#050505" stroke-linecap="round" stroke-linejoin="round" stroke-width=".4" d="M78.799 36.4c0 .1.1.1.2 0s.2-.3.1-.4c0-.2-.1-.2-.2-.1s-.2.4-.1.5Z"/>
  <path fill="#050505" stroke="#050505" stroke-linecap="round" stroke-linejoin="round" stroke-width=".4" d="M65.199 47.4c.2.7 1.3.9 2.5.5 1.1-.5 1.9-1.3 1.6-2-.2-.6-1.3-.9-2.5-.5-1.1.5-1.8 1.3-1.6 2Z"/>
  <path fill="#69BC45" stroke="#050505" stroke-linecap="round" stroke-linejoin="round" stroke-width=".4" d="m65.899 50.3-3.7-.7.2.4 3.6.6-.1-.3Z"/>
  <path fill="#6ACBDF" stroke="#050505" stroke-linecap="round" stroke-linejoin="round" stroke-width=".4" d="m66.299 49.7-.4.6.1.3.5-.5-.2-.4Z"/>
  <path fill="#FEFEFE" stroke="#050505" stroke-linecap="round" stroke-linejoin="round" stroke-width=".4" d="m62.699 49.1 3.6.6-.4.6-3.7-.7.5-.5Z"/>
  <path fill="url(#a)" d="m82.9 13.327-2.9-.3c-.2-.1-.5.1-.6.3l-2.6 5.2c-.2-.2-.5-.3-.9-.3-1.1-.2-2.3.4-2.7 1.3-.5.8.1 1.6 1.2 1.7 1.1.2 2.3-.4 2.7-1.3l2.6-5.1c.1-.1.3-.3.6-.3l2.1.2c.1 0 .3-.1.4-.3l.3-.7c.2-.2 0-.4-.2-.4Z"/>
  <path fill="#1782B9" d="m83.1 13.427-.4.7c-.1.2-.2.3-.4.3l-2.1-.2c-.2 0-.5.1-.6.3l-2.5 5.1c-.5.9-1.7 1.5-2.8 1.3-.7 0-1.1-.3-1.3-.8.1.6.6 1 1.4 1.1 1.1.2 2.3-.4 2.7-1.3l2.6-5.1c.1-.1.3-.3.6-.3l2.1.2c.1 0 .3-.1.4-.3l.3-.7c.067-.133.067-.234 0-.3Z"/>
  <path stroke="#FEFEFE" stroke-linecap="round" stroke-linejoin="round" stroke-width=".4" d="m81.3 13.527-1.1-.1c-.3-.1-.5.1-.6.2m2.7 0h-.2m-3.2 1.6-1.3 2.4m1.6-3-.1.1m-4.4 4c-.5.1-.9.4-1.1.8m1.7-1.001h-.1"/>
  <mask id="b" width="15" height="17" x="50" y="25" maskUnits="userSpaceOnUse" style="mask-type:luminance">
    <path fill="#fff" d="m64.46 25.63-9.8 3.57c-.26.1-.45.37-.46.64l-.07 7.13c-.327-.06-.694-.02-1.1.12-1.26.44-2.28 1.74-2.29 2.91-.01 1.16.99 1.75 2.25 1.31 1.25-.44 2.27-1.74 2.28-2.91l.07-6.97c0-.27.18-.53.43-.64l2.95-1.23c.36-.15.71.08.71.46l-.05 4.65c-.28-.053-.59-.02-.93.1-1.06.37-1.92 1.47-1.93 2.45-.01.98.84 1.48 1.89 1.11 1.06-.37 1.92-1.47 1.93-2.46l.08-8.1c0-.36 4.12-2.16 4.06-2.15l-.02.01Z"/>
  </mask>
  <g mask="url(#b)">
    <path fill="url(#c)" d="m51.68 45.7-4-17.5 16-6.4 4.1 17.5-16.1 6.4Z"/>
  </g>
  <path stroke="#FEFEFE" stroke-linecap="round" stroke-linejoin="round" stroke-width=".4" d="m56.28 29.1-1.3.5c-.2.1-.4.3-.4.6m2.9-1.6-.2.1"/>
  <path fill="#3A82B6" d="M59.18 29.6c-.1-.2-.4-.4-.6-.2l-3 1.2c-.2.1-.4.3-.4.6l-.1 6.9c0 1.2-1 2.5-2.3 2.9-.8.3-1.5.1-1.9-.4.3.8 1.1 1.1 2.1.7 1.3-.4 2.3-1.7 2.3-2.9l.1-7c0-.2.1-.5.4-.6l2.9-1.2c.2-.066.366-.066.5 0Zm1-2.3c.066.067.1.167.1.3l-.1 8c0 1-.9 2.1-2 2.4-.6.3-1.2.1-1.6-.2.3.6 1 .8 1.8.5 1.1-.3 2-1.4 2-2.4v-8.1a.68.68 0 0 0-.2-.5Z"/>
  <path stroke="#FEFEFE" stroke-linecap="round" stroke-linejoin="round" stroke-width=".4" d="M54.58 32.2v3.4m0-4.2v.2m5.2-.2v1.3m0-2.5v.1m-7.8 8c-.4.4-.7 1-.7 1.5m1.3-2c-.067 0-.1.034-.1.1m5.4-2.3c-.4.3-.7.8-.7 1.2m1.2-1.7c0 .067-.034.1-.1.1"/>
  <mask id="d" width="12" height="14" x="54" y="25" maskUnits="userSpaceOnUse" style="mask-type:luminance">
    <path fill="#fff" d="m64.56 25.53-9.9 3.67c-.11.04.9-.29 2.03-.64 1.33-.41 2.82-.84 2.82-.71l-.06 6.51c-.3-.053-.637-.017-1.01.11-1.15.41-2.08 1.59-2.09 2.66-.01 1.06.91 1.6 2.05 1.2 1.14-.41 2.08-1.6 2.09-2.66l.06-6.37c0-.24.16-.48.4-.58l2.68-1.12c.33-.14.65.06.65.41l-.04 4.25c-.254-.046-.537-.016-.85.09-.97.34-1.76 1.34-1.76 2.24-.01.9.76 1.35 1.73 1.01.96-.34 1.75-1.34 1.76-2.24l.07-7.4c0-.3-.23-.49-.51-.46a.787.787 0 0 0-.12.03Z"/>
  </mask>
  <g mask="url(#d)">
    <path fill="url(#e)" d="m56.48 41.6-3.4-14.3 11.5-4.5 3.3 14.2-11.4 4.6Z"/>
  </g>
  <path stroke="#FEFEFE" stroke-linecap="round" stroke-linejoin="round" stroke-width=".4" d="m61.38 27.2-1.1.4m2.2-.8h-.2"/>
  <path fill="#3A82B6" d="M64.08 27.6c-.1-.2-.4-.3-.6-.2l-2.7 1.1c-.2.1-.4.4-.4.6l-.1 6.3c0 1.1-.9 2.2-2 2.6-.8.3-1.5.2-1.8-.3.2.7 1 .9 1.9.6 1.2-.4 2.1-1.6 2.1-2.6l.1-6.4c0-.2.1-.5.4-.6l2.7-1.1a.425.425 0 0 1 .4 0Zm.9-2v7.5c0 .9-.8 1.9-1.8 2.2-.6.2-1.2.1-1.5-.2.3.5.9.8 1.7.5.9-.3 1.7-1.3 1.7-2.2l.1-7.4c0-.2-.067-.333-.2-.4Z"/>
  <path stroke="#FEFEFE" stroke-linecap="round" stroke-linejoin="round" stroke-width=".4" d="m59.88 30-.1 3.1m.1-3.8v.2m4.7-.3v1.3m-7.1 5.1c-.4.4-.6.9-.6 1.4m1.1-1.9c0 .067-.034.1-.1.1m5-2.1c-.4.3-.6.8-.7 1.2m1.2-1.6c-.067 0-.1.034-.1.1"/>
  <mask id="f" width="9" height="12" x="65" y="2" maskUnits="userSpaceOnUse" style="mask-type:luminance">
    <path fill="#fff" d="m73.29 2.67-6.01 3.14a.46.46 0 0 0-.24.45l.56 4.6c-.22-.006-.457.05-.71.17-.77.39-1.32 1.32-1.22 2.07.09.75.79 1.05 1.56.66s1.31-1.32 1.22-2.07l-.55-4.51c-.02-.17.08-.35.23-.44l1.79-1.04c.22-.13.47-.02.5.23l.37 3a1.308 1.308 0 0 0-.6.14c-.65.33-1.11 1.11-1.04 1.75.08.63.67.88 1.32.55.65-.33 1.11-1.11 1.04-1.74l-.64-5.24c-.03-.23 2.48-1.74 2.44-1.73-.007 0-.014.004-.02.01Z"/>
  </mask>
  <g mask="url(#f)">
    <path fill="url(#g)" d="m66.78 16.7-4.1-10.9 9.8-5.5 4.1 10.9-9.8 5.5Z"/>
  </g>
  <path stroke="#FEFEFE" stroke-linecap="round" stroke-linejoin="round" stroke-width=".4" d="m68.28 5.6-.7.4c-.2.1-.3.3-.3.4m1.8-1.2-.2.1"/>
  <path fill="#3A82B6" d="M70.28 5.7c-.1-.2-.3-.2-.5-.1l-1.8 1c-.1.1-.2.3-.2.5l.5 4.4c.1.8-.4 1.7-1.2 2.1-.5.2-1 .2-1.3-.1.3.4.8.6 1.4.3.8-.4 1.4-1.4 1.3-2.1l-.6-4.5c0-.2.1-.4.2-.5l1.8-1a.425.425 0 0 1 .4 0Zm.4-1.6c0 .067.033.133.1.2l.6 5.2c.1.6-.4 1.4-1.1 1.7-.4.2-.8.2-1 0 .2.3.7.4 1.2.2.6-.4 1.1-1.1 1-1.8l-.6-5.2c0-.133-.067-.233-.2-.3Z"/>
  <path stroke="#FEFEFE" stroke-linecap="round" stroke-linejoin="round" stroke-width=".4" d="m67.48 7.8.3 2.1m-.4-2.7.1.2m3.3-.6.1.8m-.2-1.6v.1m-4.4 5.8c-.2.3-.3.7-.3 1m.7-1.4-.1.1m3.3-2c-.2.3-.4.6-.3.9m.6-1.2v.1"/>
  <mask id="h" width="8" height="10" x="67" y="2" maskUnits="userSpaceOnUse" style="mask-type:luminance">
    <path fill="#fff" d="m73.35 2.6-6.07 3.21c-.07.03.55-.27 1.25-.59.83-.38 1.75-.78 1.76-.7l.51 4.21c-.2-.013-.414.037-.64.15-.7.36-1.2 1.21-1.12 1.89.08.69.72.96 1.42.6.71-.36 1.21-1.2 1.12-1.89l-.5-4.11a.43.43 0 0 1 .21-.41l1.64-.95c.2-.12.42-.01.45.21l.33 2.74a1.088 1.088 0 0 0-.54.14c-.59.3-1.02 1.01-.94 1.59.07.58.6.8 1.2.5.59-.3 1.01-1.01.94-1.59l-.58-4.78a.28.28 0 0 0-.36-.25.394.394 0 0 0-.08.03Z"/>
  </mask>
  <g mask="url(#h)">
    <path fill="url(#i)" d="m69.48 13.6-3.4-8.9 7-3.9 3.4 8.9-7 3.9Z"/>
  </g>
  <path stroke="#FEFEFE" stroke-linecap="round" stroke-linejoin="round" stroke-width=".4" d="m71.48 3.9-.7.4m1.3-.7h-.1"/>
  <path fill="#3A82B6" d="M73.18 4c-.1-.1-.2-.2-.4-.1l-1.6 1c-.2 0-.2.2-.2.4l.5 4c.1.7-.4 1.5-1.1 1.9-.5.2-1 .2-1.2-.1.2.4.7.6 1.3.3.7-.4 1.2-1.2 1.1-1.9l-.5-4.1c0-.2.1-.4.2-.4l1.6-1c.133-.067.233-.067.3 0Zm.4-1.4c.066 0 .1.033.1.1l.6 4.8c0 .5-.4 1.2-1 1.5-.4.2-.7.2-1 0 .2.3.7.4 1.1.2.6-.3 1.1-1 1-1.6l-.6-4.8c0-.133-.067-.2-.2-.2Z"/>
  <path stroke="#FEFEFE" stroke-linecap="round" stroke-linejoin="round" stroke-width=".4" d="m70.68 5.9.3 2m-.3-2.5v.1m3-.5.1.8m-4.2 3.9c-.2.3-.3.6-.2.9m.6-1.3-.1.1m3-1.8c-.2.3-.3.6-.3.8m.6-1.1-.1.1"/>
  <path fill="#050505" d="M49.98 57.6c0 .9-7 2-15.7 2.4-8.7.3-15.8-.2-15.8-1.2 0-.9 7-2 15.7-2.3 8.7-.4 15.8.1 15.8 1.1Z" opacity=".2"/>
  <path fill="#B48054" d="M44.38 25.5s2.7-1.1 3.3-1.7c1-1 .9-2.6-.1-3.6s-2.6-1-3.6 0c-.8.8-.9 2-.3 3l-.4.2c-.2.3-.3.7 0 .9l1.1 1.2Z"/>
  <path stroke="#050505" stroke-linecap="round" stroke-linejoin="round" stroke-width=".4" d="M44.38 25.5s2.7-1.1 3.3-1.7c1-1 .9-2.6-.1-3.6s-2.6-1-3.6 0c-.8.8-.9 2-.3 3l-.4.2c-.2.3-.3.7 0 .9l1.1 1.2Z"/>
  <path fill="#EAECED" d="M36.48 35.3c-.4-1.9.8-3.7 2.6-4.2 1.2-.2 2.1-.6 2.6-.9.6-.4.9-.7 1.2-1.1.2-.3.3-.7.4-1.4 0-.7 0-1.6-.3-2.8l6.7-1.6c.4 1.7.5 3.3.4 4.9-.1 1.6-.6 3.2-1.4 4.5v.1c-.9 1.3-2.1 2.4-3.4 3.2-1.4.9-2.9 1.4-4.6 1.8-1.9.5-3.7-.7-4.2-2.5Z"/>
  <path stroke="#050505" stroke-linecap="round" stroke-linejoin="round" stroke-width=".4" d="M36.48 35.3c-.4-1.9.8-3.7 2.6-4.2 1.2-.2 2.1-.6 2.6-.9.6-.4.9-.7 1.2-1.1.2-.3.3-.7.4-1.4 0-.7 0-1.6-.3-2.8l6.7-1.6c.4 1.7.5 3.3.4 4.9-.1 1.6-.6 3.2-1.4 4.5v.1c-.9 1.3-2.1 2.4-3.4 3.2-1.4.9-2.9 1.4-4.6 1.8-1.9.5-3.7-.7-4.2-2.5Z"/>
  <g style="mix-blend-mode:multiply">
    <mask id="j" width="14" height="15" x="37" y="23" maskUnits="userSpaceOnUse" style="mask-type:luminance">
      <path fill="#fff" d="m37.88 37.99 12.67-.5-.57-14.2-12.67.5.57 14.2Z"/>
    </mask>
    <g mask="url(#j)">
      <path fill="#D7D7D5" d="M38.68 37.2c1.7-.4 3.2-1 4.6-1.8 1.3-.8 2.5-1.9 3.4-3.3.8-1.4 1.3-3 1.4-4.5a19.38 19.38 0 0 0-.2-3.9l1.8-.4c.4 1.7.5 3.3.4 4.9-.1 1.6-.6 3.2-1.4 4.5v.1c-.9 1.3-2.1 2.4-3.4 3.2-1.4.9-2.9 1.4-4.6 1.8-1 .3-2.1 0-2.8-.5.266 0 .533-.034.8-.1Z"/>
    </g>
  </g>
  <path fill="#050505" d="M39.28 55.1s-.5 1 2 1.9l-9.8.8.1-2.1 7.7-.6Z"/>
  <path stroke="#050505" stroke-linecap="round" stroke-linejoin="round" stroke-width=".4" d="M39.28 55.1s-.5 1 2 1.9l-9.8.8.1-2.1 7.7-.6Z"/>
  <path fill="#28377C" d="m40.28 47.3-.4 7.6-8.9 1.3-1-7.4"/>
  <path stroke="#050505" stroke-linecap="round" stroke-linejoin="round" stroke-width=".4" d="m40.28 47.3-.4 7.6-8.9 1.3-1-7.4"/>
  <g opacity=".3">
    <mask id="k" width="5" height="9" x="31" y="48" maskUnits="userSpaceOnUse" style="mask-type:luminance">
      <path fill="#fff" d="m31.99 56.09 3.06-.12-.31-7.6-3.05.12.3 7.6Z"/>
    </mask>
    <g mask="url(#k)">
      <path fill="#0C0E10" d="m34.78 48.4-.6 7.4-2.2.3.4-7.2 2.4-.5Z"/>
    </g>
  </g>
  <path fill="#050505" d="M31.88 56.2s-.6 1.2 1.6 1.9l-9.8 1.2.2-2.1 8-1Z"/>
  <path stroke="#050505" stroke-linecap="round" stroke-linejoin="round" stroke-width=".4" d="M31.88 56.2s-.6 1.2 1.6 1.9l-9.8 1.2.2-2.1 8-1Z"/>
  <path fill="#28377C" d="m32.78 48.1-.6 7.9-9.2 2-.7-7.8"/>
  <path stroke="#050505" stroke-linecap="round" stroke-linejoin="round" stroke-width=".4" d="m32.78 48.1-.6 7.9-9.2 2-.7-7.8"/>
  <g opacity=".3">
    <mask id="l" width="4" height="7" x="22" y="51" maskUnits="userSpaceOnUse" style="mask-type:luminance">
      <path fill="#fff" d="m22.72 57.96 2.52-.1-.25-6.44-2.52.1.25 6.44Z"/>
    </mask>
    <g mask="url(#l)">
      <path fill="#0C0E10" d="m22.48 52.7.1-1 2.4-.3-.5 6.2-1.5.4-.5-5.3Z"/>
    </g>
  </g>
  <path fill="#EAECED" d="m30.98 38.7 3.7-3.5 2.9-3.1s2.1 5.9 3.8 9c1.7 3 3.6 4.7 3.7 5.3-.1 1.8-6.3 5-8.4 5.6-5.5 1.8-8.8 1-12.7 2-3 .8-3.6.5-4 .2-1.3-.9-2.4-16.4-2.4-16.4l7.5-.3 5.9 1.2Z"/>
  <path stroke="#050505" stroke-linecap="round" stroke-linejoin="round" stroke-width=".4" d="m30.98 38.7 3.7-3.5 2.9-3.1s2.1 5.9 3.8 9c1.7 3 3.6 4.7 3.7 5.3-.1 1.8-6.3 5-8.4 5.6-5.5 1.8-8.8 1-12.7 2-3 .8-3.6.5-4 .2-1.3-.9-2.4-16.4-2.4-16.4l7.5-.3 5.9 1.2Z"/>
  <path stroke="#050505" stroke-linecap="round" stroke-linejoin="round" stroke-width=".4" d="M27.98 47.5c.6 2-.5 3.4-2.1 3.8-1.6.4-3.1-.2-3.7-2.2l-.6-2.3 5.9-1.5.5 2.2Z"/>
  <path fill="#E3272C" d="m27.88 46.3-6 1.6Z"/>
  <path stroke="#050505" stroke-width=".4" d="m27.88 46.3-6 1.6"/>
  <path fill="#050505" d="M32.48 44.3c0 .4.4.6.7.5.3-.1.5-.4.5-.8-.1-.3-.5-.5-.8-.4-.3.1-.5.4-.4.7Zm1.2 2.6c.1.3.4.5.7.4.4-.1.6-.4.5-.8-.1-.3-.5-.5-.8-.4-.3.1-.5.4-.4.8Zm1.4 2.4c.1.3.4.5.7.5.4-.1.6-.5.5-.8-.1-.3-.5-.5-.8-.5-.3.1-.5.5-.4.8Z"/>
  <g style="mix-blend-mode:multiply">
    <mask id="m" width="6" height="18" x="17" y="37" maskUnits="userSpaceOnUse" style="mask-type:luminance">
      <path fill="#fff" d="m18.23 54.61 4-.16-.67-16.78-4 .16.67 16.78Z"/>
    </mask>
    <g mask="url(#m)">
      <path fill="#D7D7D5" d="M19.98 54.2c-1.2-.9-2.2-13.8-2.4-16v-.4l2.2.3 2.4 16.3c-1.5.2-1.9 0-2.2-.2Z"/>
    </g>
  </g>
  <path fill="#AB795A" d="M14.08 51c-.4.6-1.2 1.9-1.1 3.2.1 1.3.9 2.3 2 2.7 1.3.4 2.9-.4 2.9-1.3 0-.4.1-.8.2-1.3s.5-1.2.5-1.5c.3-.7.3-2.4-1.3-2.9-2-.7-3.2 1.1-3.2 1.1Z"/>
  <path stroke="#050505" stroke-linecap="round" stroke-linejoin="round" stroke-width=".5" d="M14.08 51c-.4.6-1.2 1.9-1.1 3.2.1 1.3.9 2.3 2 2.7 1.3.4 2.9-.4 2.9-1.3 0-.4.1-.8.2-1.3s.5-1.2.5-1.5c.3-.7.3-2.4-1.3-2.9-2-.7-3.2 1.1-3.2 1.1Z"/>
  <path fill="#AB795A" d="m18.08 52.4 1.2 1.5c.3.4.2 1-.1 1.2-.3.3-.7.2-.9.1-.4-.2-.7-.6-.7-.6"/>
  <path stroke="#050505" stroke-linecap="round" stroke-linejoin="round" stroke-width=".5" d="m18.08 52.4 1.2 1.5c.3.4.2 1-.1 1.2-.3.3-.7.2-.9.1-.4-.2-.7-.6-.7-.6"/>
  <g style="mix-blend-mode:multiply">
    <mask id="n" width="7" height="5" x="13" y="49" maskUnits="userSpaceOnUse" style="mask-type:luminance">
      <path fill="#fff" d="m13.27 54 5.79-.24-.17-4.28-5.79.24.17 4.28Z"/>
    </mask>
    <g mask="url(#n)">
      <path fill="#DFDFDF" d="M13.18 52.1s1.6-.8 3.3.2c1.7 1 1.9 1.5 1.9 1.5s1.2-1.5.3-2.8c-1-1.2-2.7-1.9-3.6-1-.9 1-1.9 2.1-1.9 2.1Z"/>
    </g>
  </g>
  <path fill="#F5F6F7" d="M12.68 52c.4-1.7.7-2.9 1.1-4.9.8-3.3 2.3-5.3 2.3-5.3 1.2-1.8 3.3-2.4 5-1.4l.5.3c1.5.9 2.4 2.7 1.1 5 0 0-1.2 2.2-1.8 4.5-.3 1.6-.8 3.6-.8 3.6l-7.4-1.8Z"/>
  <path stroke="#050505" stroke-linecap="round" stroke-linejoin="round" stroke-width=".5" d="M12.68 52c.4-1.7.7-2.9 1.1-4.9.8-3.3 2.3-5.3 2.3-5.3 1.2-1.8 3.3-2.4 5-1.4l.5.3c1.5.9 2.4 2.7 1.1 5 0 0-1.2 2.2-1.8 4.5-.3 1.6-.8 3.6-.8 3.6l-7.4-1.8Z"/>
  <g opacity=".3">
    <mask id="o" width="11" height="14" x="12" y="39" maskUnits="userSpaceOnUse" style="mask-type:luminance">
      <path fill="#fff" d="m12.68 52.66 9.84-.39-.5-12.45-9.84.39.5 12.45Z"/>
    </mask>
    <g mask="url(#o)">
      <path fill="#0A0C0F" d="M12.68 52c.4-1.7.7-2.9 1.1-4.9.8-3.3 2.3-5.3 2.3-5.3 1.2-1.8 3.3-2.4 5-1.4l.5.3c.2.067.366.167.5.3-.4.2-.6.2-.6.2s-2.7-.2-4.2 3.5c-1 2.4-1.8 5.8-2.1 7.9l-2.5-.6Z"/>
    </g>
  </g>
  <path fill="#FEFEFE" d="M33.28 41.8s.4 1.6 2.1 4.5c1.7 2.9 2.4 5 2.4 5"/>
  <path stroke="#050505" stroke-linecap="round" stroke-linejoin="round" stroke-width=".4" d="M33.28 41.8s.4 1.6 2.1 4.5c1.7 2.9 2.4 5 2.4 5"/>
  <path fill="#96BFE2" d="m32.88 41.5.5-.3-.6-4.8-3.3 2.3 3.4 2.8Z"/>
  <g opacity=".4">
    <mask id="p" width="8" height="4" x="26" y="39" maskUnits="userSpaceOnUse" style="mask-type:luminance">
      <path fill="#fff" d="m26.52 42.89 6.91-.27-.12-2.95-6.9.27.11 2.95Z"/>
    </mask>
    <g mask="url(#p)">
      <path fill="#ACACAD" d="m26.68 41.1.1.5 3.4-.8-.5.6.2.4 3.3.6-.3-.9-2.1-1.5-4.1 1.1Z"/>
      <path stroke="#ACACAD" stroke-linejoin="round" stroke-width=".4" d="m26.68 41.1.1.5 3.4-.8-.5.6.2.4 3.3.6-.3-.9-2.1-1.5-4.1 1.1Z"/>
    </g>
  </g>
  <g opacity=".4">
    <mask id="q" width="4" height="4" x="33" y="38" maskUnits="userSpaceOnUse" style="mask-type:luminance">
      <path fill="#fff" d="m33.43 41.75 3.11-.12-.14-3.49-3.11.12.14 3.49Z"/>
    </mask>
    <g mask="url(#q)">
      <path fill="#ACACAD" d="M34.28 39v.6l-.8 2.2 1.4-2.6 1.5-.6v-.5l-2.1.9Z"/>
    </g>
  </g>
  <path fill="#EAECED" d="m33.08 36.2 3.1 2-1.9.8.7.3-1.6 2.6-.3-.8-.4-4.5.4-.4Z"/>
  <path stroke="#050505" stroke-linecap="round" stroke-linejoin="round" stroke-width=".4" d="m33.08 36.2 3.1 2-1.9.8.7.3-1.6 2.6-.3-.8-.4-4.5.4-.4Z"/>
  <path fill="#EAECED" d="m28.28 38.1-1.5 3 3.5-.8-.4 1.1 3.4.5-.2-.6-2.6-3-2.2-.2Z"/>
  <path stroke="#050505" stroke-linecap="round" stroke-linejoin="round" stroke-width=".4" d="m28.28 38.1-1.5 3 3.5-.8-.4 1.1 3.4.5-.2-.6-2.6-3-2.2-.2Z"/>
  <mask id="r" width="10" height="11" x="36" y="38" maskUnits="userSpaceOnUse" style="mask-type:luminance">
    <path fill="#fff" d="m36.34 41.63 3.94 6.42 4.76-1.92-4.72-7.14-3.98 2.64Z"/>
  </mask>
  <g mask="url(#r)">
    <path stroke="#050505" stroke-linecap="round" stroke-linejoin="round" stroke-width=".4" d="M46.28 41.1c.9 1.9.2 3.4-1.3 4.2-1.4.7-3.1.4-4.1-1.4l-1-2.1 5.4-2.7 1 2Z"/>
    <path fill="#E3272C" d="m45.88 40-5.5 2.9Z"/>
    <path stroke="#050505" stroke-width=".4" d="m45.88 40-5.5 2.9"/>
  </g>
  <g opacity=".5">
    <mask id="s" width="3" height="4" x="30" y="37" maskUnits="userSpaceOnUse" style="mask-type:luminance">
      <path fill="#fff" d="m30.87 40.7 1.94-.08-.11-2.84-1.95.08.12 2.84Z"/>
    </mask>
    <g mask="url(#s)">
      <path fill="#6983A5" d="m31.38 37.8-.6.5 2 2.3-.1-1.1-1.3-1.7Z"/>
    </g>
  </g>
  <path stroke="#050505" stroke-linecap="round" stroke-linejoin="round" stroke-width=".4" d="m30.48 38.3 4.1-3.3"/>
  <path fill="#9A7448" d="M6.48 31c5.6 8.4 16.9 11.2 26 5.9 8.8-5.1 10.7-17 5-25.4-5.6-8.4-17-10.7-25.4-5C3.68 12.1.88 22.6 6.48 31Z"/>
  <path fill="#BC8357" d="M9.78 30.3c5.4 8 14.8 11 22.7 5.7 8-5.4 10.1-16.2 4.7-24.3-5.4-8-10.5-6.7-18.4-1.4-8 5.3-14.4 11.9-9 20Z"/>
  <path fill="#B48054" d="M5.38 29.3c5.6 8.4 15.3 14.9 26.9 7.5 13.6-8.7 10.4-16.6 4.8-25-5.6-8.4-17-10.7-25.4-5-8.4 5.6-11.9 14.1-6.3 22.5Z"/>
  <path stroke="#050505" stroke-width=".4" d="M5.38 29.3c5.6 8.4 15.3 14.9 26.9 7.5 13.6-8.7 10.4-16.6 4.8-25-5.6-8.4-17-10.7-25.4-5-8.4 5.6-11.9 14.1-6.3 22.5Z"/>
  <path fill="#050505" d="M38.38 16.2c.5.7.5 1.6.1 1.9-.5.3-1.3 0-1.8-.7-.5-.8-.5-1.6 0-2 .4-.3 1.2.1 1.7.8Zm-13.5 9.1c.5.7 1.3 1.1 1.7.7.5-.3.5-1.1 0-1.9-.5-.7-1.3-1-1.7-.7-.5.3-.5 1.2 0 1.9Z"/>
  <path fill="#FEFEFE" d="M24.68 24.3c.1.1.3.2.4.1.1 0 .1-.2 0-.3-.1-.2-.3-.2-.4-.2-.1.1-.1.3 0 .4Z"/>
  <path fill="#050505" d="M38.38 16.2c.5.7.5 1.6.1 1.9-.5.3-1.3 0-1.8-.7-.5-.8-.5-1.6 0-2 .4-.3 1.2.1 1.7.8Z"/>
  <path fill="#FEFEFE" d="M36.68 16.3c.1.1.2.2.3.1.1-.1.1-.2 0-.4 0-.1-.2-.2-.3-.1-.1.1-.1.2 0 .4Z"/>
  <path fill="#B48054" d="M24.88 25.3c.5.7 1.3 1.1 1.7.7.5-.3.5-1.1 0-1.9-.5-.7-1.3-1-1.7-.7-.5.3-.5 1.2 0 1.9Z"/>
  <path stroke="#B48054" stroke-width=".4" d="M24.88 25.3c.5.7 1.3 1.1 1.7.7.5-.3.5-1.1 0-1.9-.5-.7-1.3-1-1.7-.7-.5.3-.5 1.2 0 1.9Z"/>
  <path fill="#B48054" d="M24.68 24.3c.1.1.3.2.4.1.1 0 .1-.2 0-.3-.1-.2-.3-.2-.4-.2-.1.1-.1.3 0 .4Z"/>
  <path stroke="#B48054" stroke-width=".4" d="M24.68 24.3c.1.1.3.2.4.1.1 0 .1-.2 0-.3-.1-.2-.3-.2-.4-.2-.1.1-.1.3 0 .4Z"/>
  <path fill="#B48054" d="M38.38 16.2c.5.7.5 1.6.1 1.9-.5.3-1.3 0-1.8-.7-.5-.8-.5-1.6 0-2 .4-.3 1.2.1 1.7.8Z"/>
  <path stroke="#B48054" stroke-width=".4" d="M38.38 16.2c.5.7.5 1.6.1 1.9-.5.3-1.3 0-1.8-.7-.5-.8-.5-1.6 0-2 .4-.3 1.2.1 1.7.8Z"/>
  <path fill="#B48054" d="M36.68 16.3c.1.1.2.2.3.1.1-.1.1-.2 0-.4 0-.1-.2-.2-.3-.1-.1.1-.1.2 0 .4Z"/>
  <path stroke="#B48054" stroke-width=".4" d="M36.68 16.3c.1.1.2.2.3.1.1-.1.1-.2 0-.4 0-.1-.2-.2-.3-.1-.1.1-.1.2 0 .4Z"/>
  <path fill="#B48054" d="M26.98 23.9c-.6-1-1.7-1.1-2.3-.7-.6.4-.7 1.3-.1 2.3"/>
  <path stroke="#050505" stroke-linecap="round" stroke-linejoin="round" stroke-width=".4" d="M26.98 23.9c-.6-1-1.7-1.1-2.3-.7-.6.4-.7 1.3-.1 2.3"/>
  <path fill="#B48054" d="M36.58 17.4c-.5-.7-.4-1.6.1-2 .4-.3 1.2.1 1.7.8"/>
  <path stroke="#050505" stroke-linecap="round" stroke-linejoin="round" stroke-width=".4" d="M36.58 17.4c-.5-.7-.4-1.6.1-2 .4-.3 1.2.1 1.7.8"/>
  <g style="mix-blend-mode:multiply">
    <mask id="t" width="35" height="38" x="1" y="3" maskUnits="userSpaceOnUse" style="mask-type:luminance">
      <path fill="#fff" d="m3.42 40.78 31.98-1.27-1.44-35.99L1.98 4.79l1.44 35.99Z"/>
    </mask>
    <g mask="url(#t)">
      <path fill="#D7D7D5" d="M22.08 32.3c-.4-.6-.5-1.1-.5-1.5.133-.333.266-.733.4-1.2.3-.8.6-1.8.7-2.8.9-2.5 1-5.7 1.2-7.8.2-2.2 1.2-14.6 1.2-14.6s-5.1-1.1-10.2.7h-.2c-.2.134-.4.233-.6.3-.067 0-.134.033-.2.1-6 2.9-10.1 9.7-11.2 15.7v.1c0 2.6.9 5.3 2.7 8 5.6 8.4 15.3 14.9 26.9 7.5 1-.666 1.9-1.3 2.7-1.9l.2-.2c-8 4.1-13.1-2.4-13.1-2.4Z"/>
    </g>
  </g>
  <path fill="#201E1E" d="M6.28 31.1s-3.4.1.9 4.1c2.2 2 6.6 3.3 6.6 3.3l-7.5-7.4Z"/>
  <path fill="#050505" d="M28.88 3.4s6.7.5 11.3 5.7c.2.3-2.3-1.4-5.6-2.1m-31.2 4.6s-7.4 9-.3 19.1c0 0-2.1-7.7.3-19.1Z"/>
  <path fill="#050505" d="M10.78 18.2c.3-.2 4.1 10.4 0 13.6-3.1-2.9-3-7.5-3-7.5-.3 4 1.3 7.2 2.2 8-.7.6-2.7 2-4.2 2.4 0 0-13.6-17.4 6.4-30.1 0 0 11.5-8.5 27 4.8 0 0 .2.8-.6 2.7-.5 1.4-6.4-5.6-7.3-4.5"/>
  <path fill="#050505" d="M14.48 3.4c2-1 10-5 21.8 1.2 0 0-23.8-.2-21.8-1.2Z"/>
  <path fill="#050505" d="M27.48 1.6S8.28-3 1.78 14.3c-6.4 17.4 25.7-12.7 25.7-12.7ZM5.18 33.7s1.9 3.4 5.2 5c3.3 1.5 3.9 1.4 3.9 1.4s-1.9-.8-4.6-5.1m7.1 5.3s1.1.1 1.9-.6c.3-.3-1.6-.8-1.6-.8l-.3 1.4Z"/>
  <path fill="#050505" d="M17.88 3.5s7.9-6.1 21.1 6.5c0 0 .2 0-.2 1.5-.3 1.2-.3 1.2-.9 2.1-1.1-1.9-2.4-2.4-6.8-3.7 0 0 4.8 1.5 5.9 4.8-6.5 7.9-14.2 5-14.2 5 .2-.2 2.3 4.9-2.6 6.8-2.6-2.7-3.9-6.8-3.9-6.8.3 3.3 1.2 5.4 2.8 7.4-.5.5-2.2 1-3.4 1.2 0 0-12-16 2.2-24.8Z"/>
  <path fill="#050505" d="M15.68 28.3s-4.2 3.1 2.3 11l-9.2-2.4s-8.8-6.9-7-17.2c1.8-10.2 4.8-5.4 4.8-5.4l4.4-.2 4.7 14.2Z"/>
  <path fill="#050505" d="M19.08 27.1s-3.7 5-1.2 11.7c.4 1-1.1 1.5-1.1 1.5s-4.4-.8-6.5-3.3c-2.1-2.5 2.1-10.3 2.1-10.3l6.7.4ZM5.18 9.4s1.4-4.2 3.8-6.2c2.5-2.1 2.8-1.7 2.8-1.7s-3.7 2.1-4.4 7.1"/>
  <path fill="#050505" d="M1.98 13.4s1.5-2.2-1-3.1c0 0 1.6-.8 2.2 0-.2-1.2-.1-3.6 2.8-5.9 0 0-1 2.9 1 2.5"/>
  <path fill="#9A7448" d="M33.08 23.7s1.5.7 2.6 0 .6-2.5.6-2.5-.7 1.5-1.2 1.9c-.5.3-2 .6-2 .6Z"/>
  <path stroke="#050505" stroke-linecap="round" stroke-linejoin="bevel" stroke-width=".4" d="m36.18 21.5-.4.9c-.2.4-.6.7-1 .7l-1.7.5m-.4 9.5c1.4-1.6 1.6-3.9.5-5.7-1-1.5-2.6-2.2-4.2-2.2"/>
  <path fill="#B48054" d="M41.88 25.6c1.2-1.7 1.2-3.9-.1-5.5-1-1.2-2.7-1.7-4.2-1.4"/>
  <path stroke="#050505" stroke-linecap="round" stroke-linejoin="round" stroke-width=".4" d="M41.88 25.6c1.2-1.7 1.2-3.9-.1-5.5-1-1.2-2.7-1.7-4.2-1.4"/>
  <path stroke="#050505" stroke-width=".4" d="m16.28 7.4 5-6.4"/>
  <path fill="#050505" d="m.38 14.9 1.8-1 .6 2-.6.4-1.8-1.4Z"/>
  <path fill="#FAA918" d="M44.28 21.1c7.6-3.9 9.8-12.6 10.6-13.1 1.4-.7 3.7 1.6 6 6 2.2 4.3 3.3 7.2 1.3 8.3-1 .5-9.1-2.9-16.8 1.1-6.2 3.3-6.2 4.1-6.8 3.9-.2 0-.9-.4-1.3-1.2-.4-.6-.3-1.3-.2-1.6.2-.6.9-.1 7.2-3.4Z"/>
  <g opacity=".2" style="mix-blend-mode:multiply">
    <mask id="u" width="27" height="10" x="37" y="18" maskUnits="userSpaceOnUse" style="mask-type:luminance">
      <path fill="#fff" d="m37.78 27.41 25.73-1.03-.3-7.49-25.72 1.02.29 7.5Z"/>
    </mask>
    <g mask="url(#u)">
      <path fill="#180E20" d="M38.58 27.3c-.1 0-.5-.3-.8-.7l.2-.4c.5.1.7-.5 6.9-3.7 7.7-4 14.6-3 15.7-3.5l2.5.1c.4 1.5.2 2.6-.9 3.2-1 .5-9.1-2.9-16.8 1.1-6.2 3.3-6.2 4.1-6.8 3.9Z"/>
    </g>
  </g>
  <path fill="#FEC908" d="M54.18 7.7c.1-.1.6-.3.7-.4 1.4-.7 4.4 2.1 6.6 6.4 2.2 4.2 2.8 8.2 1.4 9-.1 0-.6.3-.7.3-1.8 1-5.1-1.7-7.3-6-2.2-4.2-2.5-8.4-.7-9.3Z"/>
  <path fill="#FCB613" d="M56.28 16.3c2.2 4.3 5.1 7.1 6.6 6.4 1.4-.8.8-4.8-1.4-9-2.2-4.3-5.2-7.1-6.6-6.4-1.4.7-.8 4.8 1.4 9Z"/>
  <g opacity=".9">
    <mask id="v" width="8" height="12" x="55" y="9" maskUnits="userSpaceOnUse" style="mask-type:luminance">
      <path fill="#fff" d="m56.39 20.49 5.84-.23-.44-11.01-5.83.23.43 11.01Z"/>
    </mask>
    <g mask="url(#v)">
      <path fill="#600B3C" d="M57.78 15.6c1.5 2.9 3.3 5 4.1 4.6.7-.4.1-3.1-1.4-6-1.6-3-3.4-5.1-4.2-4.7-.7.4-.1 3.1 1.5 6.1Z"/>
    </g>
  </g>
  <g opacity=".7">
    <mask id="w" width="6" height="11" x="55" y="10" maskUnits="userSpaceOnUse" style="mask-type:luminance">
      <path fill="#fff" d="m56.38 20.03 4.43-.17-.38-9.47-4.43.18.38 9.46Z"/>
    </mask>
    <g mask="url(#w)">
      <path fill="#4E0E26" d="M57.78 15.6c-1.1-2-1.7-3.9-1.8-5 .9.7 2.1 2.3 3.1 4.2 1 2 1.7 3.9 1.7 5.1-.9-.8-2-2.4-3-4.3Z"/>
    </g>
  </g>
  <path fill="#B48054" d="M43.08 21.9c.4.7 1.6.8 2.8.2 1.1-.6 1.8-1.6 1.4-2.4-.3-.7-1.6-.8-2.7-.2-1.2.6-1.8 1.7-1.5 2.4Z"/>
  <path stroke="#050505" stroke-width=".4" d="M43.08 21.9c.4.7 1.6.8 2.8.2 1.1-.6 1.8-1.6 1.4-2.4-.3-.7-1.6-.8-2.7-.2-1.2.6-1.8 1.7-1.5 2.4Z"/>
  <path fill="#B48054" d="M42.58 23.7c.4.8.8 1.5 1.6 1 1-.5.5-1 .1-1.8s-1-1.1-1.5-.9c-.5.3-.6 1-.2 1.7Z"/>
  <path stroke="#050505" stroke-linecap="round" stroke-linejoin="round" stroke-width=".4" d="M42.58 23.7c.4.8.8 1.5 1.6 1 1-.5.5-1 .1-1.8s-1-1.1-1.5-.9c-.5.3-.6 1-.2 1.7Z"/>
  <path stroke="#050505" stroke-width=".5" d="M38.88 27.6c-.2-.1-1-.6-1.6-1.5-.4-.8-.3-1.6-.2-1.9"/>
  <path fill="#EE4A66" fill-rule="evenodd" d="M98.184 30.224c.707-.812 1.28-1.668 1.943-2.346.885-.904 2.087-1.41 3.2-1.869 1.558-.687 3.026-1.33 4.491-2.418-.005 3.712.257 7.287-1.36 10.703 1.524.342 2.827.909 3.823 1.971.586.486 1.04 1.152 1.538 1.683 1.117 1.3 2.22 2.57 3.307 3.81-3.032.883-6.285 1.992-9.733 1.627l.005.447a8.62 8.62 0 0 1-1.072 4.26c-1.009 1.755-2.154 3.467-2.892 5.533-1.998-2.796-4.128-5.412-4.97-8.802-.668.23-1.202.505-1.827.601-1.07.325-2.145.202-3.22.08l-4.39-.668c-.493-.084-1.029-.034-1.61-.072 1.937-2.794 3.603-5.898 6.534-7.853-.363-.488-.772-1.065-1.135-1.553-.818-1.154-1.102-2.582-1.25-3.967-.193-1.25-.52-2.543-.713-3.794-.094-.401-.322-.846-.462-1.336 3.499.901 6.995 1.579 9.793 3.963Zm.903 13.14c.276.757.546.843 1.303.567-.043.135-.264.36-.219.45.188.803.42 1.62.698 2.452.048.312.274.534.632.574.402-.093.577-.408.618-.767-.005-.447-.099-.848-.058-1.207.118-1.522-.344-2.858-.628-4.286a7.2 7.2 0 0 0 .664-.678l.63.35a37.9 37.9 0 0 0 2.022.873c.315.176.716.082.892-.233.175-.315-.096-.625-.411-.8-.813-.707-1.667-1.056-2.698-1.313l.086-.27c.717.082 1.479.253 2.195.335 1.074.048 2.163.05 3.265.009.135.043.491-.14.534-.274a.85.85 0 0 0-.32-.623c-.271-.31-.586-.486-.945-.526-.449-.22-.942-.303-1.435-.387-.231-.669-.502-.979-1.039-.928-.447.005-.757.276-1.019.86-.447.005-.91-.02-1.387-.074 0 0-.043.135-.132.18a33.63 33.63 0 0 1-.681-.887c.442-.452.885-.904 1.281-1.445a23.48 23.48 0 0 0 1.719-2.344c.176-.315.128-.628.168-.986-.298.003-.58.036-.848.099l-.267.137c-.619.692-1.267 1.4-1.945 2.123-.176.24-.382.496-.618.767a2.538 2.538 0 0 1-.007-.67c.041-.359.216-.674.303-.943.125-.851.385-1.66.332-2.419-.008-.67-.592-.933-1.078-.346-.353.406-.75.947-.923 1.486-.478 1.257-.598 2.556-.54 3.762a3.27 3.27 0 0 1-.758.277c-.272-.385-.59-.784-.952-1.197.534-.274.798-.635.659-1.125-.064-.417-.276-.683-.635-.798-.45-.22-.849.098-1.159.37-.587-.486-1.084-1.017-1.582-1.548-.315-.176-.678-.664-.988-.392-.4.317-.036.805.19 1.026.911 1.556 2.222 2.794 3.489 4.167l.269.086c-.119.061-.192.136-.221.226a10.31 10.31 0 0 0-1.573-.654l-1.615-.519c-.135-.043-.447.005-.536.05-.133.18.005.448.05.537.046.089.137.267.272.31l2.789 1.49c-.026.388-.022.76.012 1.118l-.173.539a.654.654 0 0 0-.404-.13c-.947-.75-1.704-.473-1.87.736-.8.411-1.647.733-2.402 1.233-.178.092-.353.407-.308.496.092.178.317.399.541.396.404.13.717.082 1.164.077 1.339-.238 2.584-.877 3.875-1.428a.763.763 0 0 0 .354-.406l.72.528c-.172.539-.39.988-.52 1.392a13.976 13.976 0 0 0-.472 1.929c-.043.134.183.356.32.623.178-.092.49-.14.534-.275.35-.63.524-1.168.786-1.753Z" clip-rule="evenodd"/>
  <path fill="#F9DFC9" d="M96.942 39.406a6.997 6.997 0 0 1-.012-1.118c.175-.39.38-.794.613-1.214.029-.09.102-.165.221-.226.266-.211.503-.408.71-.589.267-.062.52-.155.757-.276.418.085.851.125 1.298.12.03.06.075.073.135.043l.99.615c.242.326.469.621.681.888l.283 1.428-.086.269c-.116.359-.26.733-.435 1.123a7.2 7.2 0 0 1-.664.678c-.445.154-.905.352-1.38.596l-.447.005a10.927 10.927 0 0 0-1.166-.3l-.721-.53-.777-1.512Z"/>
  <path fill="#D0344E" d="M100.051 41.52c.445-.229.938-.145 1.382-.373.602 1.827.811 4.642.686 5.493-.041.358-.216.674-.618.767-.358-.04-.584-.262-.632-.574-.322-.846-.553-1.515-.697-2.453 0 0-.385-2.5-.388-2.724.043-.134.09-.045.267-.137Zm.478-5.417a6.175 6.175 0 0 1-1.298-.12c-.058-1.207.062-2.505.54-3.763.174-.539.57-1.08.924-1.486.485-.587 1.07-.325 1.077.346.053.76-.207 1.568-.332 2.419-.086.27-.262.584-.303.942-.271-.31-.541-.396-.851-.125-.178.092-.264.361-.173.54.005.446.274.533.676.439l-.26.808Zm2.089 2.974-.283-1.428c.089-.046.132-.18.132-.18.478.054.94.078 1.387.074.005.447.188.803.503.978.541.397 1.522.118 1.555-.911.493.084.986.168 1.435.387.359.04.674.216.946.526.18.133.317.4.319.623-.043.135-.399.317-.533.274a39.593 39.593 0 0 1-3.265-.01c-.717-.081-1.479-.252-2.196-.333Zm-.964-2.316-.99-.615c.205-.33.365-.675.48-1.034.236-.271.442-.527.618-.767a116.88 116.88 0 0 0 1.945-2.123c.089-.046.399-.318.488-.363.178-.092.401-.094.627.127.183.356.008.67-.168.986a23.493 23.493 0 0 1-1.719 2.344c-.396.541-.839.993-1.281 1.445Zm-4.579 2.465c.274.534.416 1.248.644 1.693a.763.763 0 0 1-.353.406c-1.291.55-2.537 1.19-3.876 1.428-.447.005-.76.053-1.164-.077-.223.003-.45-.218-.54-.396-.046-.09.13-.404.307-.495.755-.5 1.601-.823 2.402-1.234.322.846.772 1.065 1.53.788l.266-.137c.353-.406.168-.985-.06-1.43 0 0 .89-.457.844-.546Zm1.398-2.967c-.207.181-.443.377-.71.59l-.269-.087c-1.267-1.373-2.577-2.611-3.488-4.167-.226-.22-.59-.709-.19-1.026.31-.272.673.216.988.392.498.53.995 1.062 1.582 1.548-.257 1.031.152 1.608 1.135 1.553.362.413.68.812.952 1.197Zm3.624 4.21c.174-.39.319-.764.435-1.123 1.031.257 1.885.606 2.698 1.313.314.175.586.485.411.8-.176.315-.577.409-.892.233a37.982 37.982 0 0 1-2.022-.872l-.63-.351Zm-3.657.978c.418.085.807.185 1.166.3-.087.27-.158.569-.214.898a3.97 3.97 0 0 0-.305.718c-.262.585-.435 1.123-.786 1.753-.044.135-.265.361-.534.275-.315-.176-.363-.489-.32-.623.112-.657.27-1.3.471-1.929.13-.404.349-.853.522-1.392Zm-.897-4.373c-.234.42-.438.825-.613 1.214l-2.79-1.49c-.134-.043-.27-.31-.316-.4-.046-.088-.138-.266-.005-.446.089-.046.401-.094.536-.05l1.616.518c.538.173 1.062.392 1.572.654Z"/>
  <path fill="#F9DFC9" d="M96.023 41.34c-.757.276-1.206.057-1.529-.79.166-1.208.924-1.485 1.87-.735.23.445.28.98-.074 1.387l-.267.137Zm9.889-3.73c-.033 1.029-1.014 1.308-1.555.911-.315-.175-.498-.531-.503-.978.262-.585.572-.856 1.02-.861.536-.05.807.26 1.038.928Zm-8.391-2.548c-.983.055-1.392-.522-1.135-1.554.31-.271.71-.589 1.16-.37.358.116.57.382.634.798.14.49-.125.851-.659 1.126Zm1.566 8.302a3.98 3.98 0 0 1 .305-.72l.534-.273c.808.26 1.038.928.464 1.56-.758.277-1.027.19-1.303-.567Zm1.702-8.069c-.402.093-.671.007-.676-.44-.092-.178-.005-.447.173-.539.31-.272.579-.185.851.125-.027.239-.025.463.007.671l-.355.183Z"/>
  <path fill="#EE4A66" d="m99.926 42.37-.534.275c.056-.329.127-.628.214-.897.089-.046.31-.272.445-.228-.356.182-.217.673-.125.85Zm.863-7.076.356-.182a4.703 4.703 0 0 1-.481 1.034c-.059.03-.104.016-.135-.044l.26-.807Z"/>
  <path fill="#F9DFC9" stroke="#050505" stroke-width=".4" d="M100.633 41.558c-1.515.553-3.09-.325-3.643-1.84-.464-1.56.368-3.223 1.84-3.642 1.514-.553 3.178.279 3.731 1.794.464 1.56-.368 3.224-1.928 3.688Z"/>
  <path fill="#F9DFC9" d="M105.253 38.735c-.579.185-1.209-.166-1.394-.745-.185-.58.077-1.164.656-1.35.579-.184 1.298.121 1.483.7.186.58-.165 1.21-.745 1.395Zm-7.686-3.585c-.58.186-1.21-.165-1.395-.744-.185-.58.166-1.21.745-1.395.58-.185 1.21.166 1.395.745.185.58-.077 1.164-.745 1.395Zm-1.676 6.37c-.579.185-1.209-.166-1.394-.746-.185-.579.077-1.163.656-1.348.668-.231 1.253.03 1.483.699.186.58-.165 1.21-.745 1.395Zm4.321 2.502c-.444.229-.94-.08-1.08-.57-.228-.444.08-.94.57-1.08.491-.139.941.08 1.08.57.14.491-.079.94-.57 1.08Zm.622-8.638c-.355.183-.716-.082-.899-.437-.048-.313.082-.717.483-.81.356-.183.717.081.9.437.048.312-.082.716-.484.81Z"/>
  <path stroke="#050505" stroke-linecap="round" stroke-linejoin="bevel" stroke-width=".4" d="M98.184 30.224c.707-.812 1.28-1.668 1.943-2.346.885-.904 2.087-1.41 3.2-1.869 1.558-.687 3.026-1.33 4.491-2.418-.005 3.712.257 7.287-1.36 10.703 1.524.342 2.827.909 3.823 1.971.586.486 1.04 1.152 1.538 1.683 1.117 1.3 2.22 2.57 3.307 3.81-3.032.883-6.285 1.992-9.733 1.627l.005.447a8.62 8.62 0 0 1-1.072 4.26c-1.009 1.755-2.154 3.467-2.892 5.533-1.998-2.796-4.128-5.412-4.97-8.802-.668.23-1.202.505-1.827.601-1.07.325-2.145.202-3.22.08l-4.39-.668c-.493-.084-1.029-.034-1.61-.072 1.937-2.794 3.603-5.898 6.534-7.853-.363-.488-.772-1.065-1.135-1.553-.818-1.154-1.102-2.582-1.25-3.967-.193-1.25-.52-2.543-.713-3.794-.094-.401-.322-.846-.462-1.336 3.499.901 6.995 1.579 9.793 3.963Z"/>
  <path fill="#EE4A66" fill-rule="evenodd" d="M95.78 18.757c.038-.582.076-1.164.203-1.791.171-.763.568-1.304 1.008-1.98.528-.72 1.1-1.577 1.404-2.519 1.226 1.731 2.452 3.462 2.789 5.65.846-.323 1.695-.421 2.457-.25.493.084.943.302 1.347.432l2.87.774c-1.281 1.445-2.517 2.98-4.296 3.893l.137.267c.515.71.777 1.512.787 2.407.057 1.206.026 2.459.353 3.752-1.887-.829-3.772-1.435-5.263-2.805-.31.272-.485.587-.707.813-.442.452-1.019.86-1.598 1.046-.771.396-1.558.762-2.359 1.098-.267.138-.534.275-.844.546.067-2.058-.089-4.113.74-6-.315-.176-.719-.306-1.123-.436-.718-.305-1.262-.925-1.805-1.546a27.964 27.964 0 0 0-1.628-1.637c-.137-.267-.406-.353-.632-.574 2.05-.604 4.01-1.385 6.16-1.14Zm4.539 6.212c.495.308.584.262.937-.145-.043.135-.086.27-.04.359l1.173.971c.18.132.315.175.493.084.221-.226.13-.404.038-.582-.091-.178-.317-.399-.408-.577-.412-.8-1.044-1.375-1.676-1.95l.173-.538.447-.005 1.25-.192c.178-.092.356-.183.353-.407-.048-.312-.271-.31-.495-.307a5.224 5.224 0 0 0-1.697.197 8.047 8.047 0 0 1-.046-.089l1.157-.594c.562-.364 1.095-.712 1.598-1.046.089-.046.222-.226.176-.315-.046-.089-.18-.132-.315-.175a2.525 2.525 0 0 0-.671.007c-.313.048-.579.185-.846.322-.272-.31-.496-.308-.762-.17-.238.121-.324.39-.26.807l-.712.366s.046.089-.043.135a3.27 3.27 0 0 1-.584-.262 4.65 4.65 0 0 0 .211-1.12 30.65 30.65 0 0 0 .027-1.7c.043-.135-.048-.313-.14-.491-.178.091-.31.197-.399.317-.06.03-.103.09-.132.18a22.033 22.033 0 0 0-.296 1.614c.032.208.02.402-.038.582a.888.888 0 0 0-.272-.31c-.002-.224-.005-.448-.096-.626-.229-.444-.368-.935-.64-1.245-.182-.356-.584-.262-.625.096a4.72 4.72 0 0 0 .012 1.118c.142.715.508 1.426.962 2.092a.887.887 0 0 0-.31.272l-.808-.26c.087-.27.173-.539-.053-.76-.18-.207-.376-.294-.584-.262-.267.137-.399.318-.44.676a12.206 12.206 0 0 0-1.3-.344c-.224.003-.494-.084-.626.096-.086.27.229.445.498.532.9.437 1.93.694 2.916.863.135.043.135.043.224-.003l-.043.135c-.327.093-.624.17-.892.233a5.31 5.31 0 0 0-1.116.236c-.089.046-.132.18-.22.226.045.089.18.132.225.22l.27.088a31.076 31.076 0 0 1 1.832-.155c.121.238.257.43.408.578-.029.09-.028.164.003.223l-.178.091c-.717-.081-1.024.414-.705 1.037-.293.45-.557.885-.79 1.305-.044.135-.087.27-.041.358l.403.13c.238-.122.43-.258.578-.408.62-.544 1.06-1.22 1.5-1.895.043-.135.086-.27.04-.358.209-.032.403-.02.582.038.048.313.05.536.099.849.123.386.261.727.414 1.024.091.178.225.221.36.264.043-.134.221-.226.176-.315a16.233 16.233 0 0 0-.236-1.115Z" clip-rule="evenodd"/>
  <path fill="#F9DFC9" d="M98.114 23.74a2.219 2.219 0 0 1-.409-.576 3.908 3.908 0 0 1-.098-.85l.043-.134.173-.538a.889.889 0 0 1 .31-.272 3.29 3.29 0 0 1 .666-.454l.09-.046c.238.027.462.025.67-.007.21.117.405.204.584.262.181.206.407.427.678.663l.046.09c.032.207.079.445.142.713l-.173.539-.529.721c-.059.03-.104.09-.132.18a3 3 0 0 0-.669.231 1.256 1.256 0 0 0-.582-.038 5.247 5.247 0 0 0-.81-.483Z"/>
  <path fill="#D0344E" d="M100.261 23.762c.221-.226.399-.318.574-.633.948.75 1.946 2.037 2.085 2.527.092.178.183.356-.038.582-.178.091-.313.048-.493-.084-.406-.353-.767-.618-1.173-.971 0 0-.953-1.198-.998-1.287-.046-.088 0 0 .043-.134ZM98.8 20.916a3.25 3.25 0 0 0-.667.454c-.454-.666-.82-1.377-.962-2.091a4.669 4.669 0 0 1-.012-1.118c.041-.359.443-.453.625-.097.272.31.411.8.64 1.245.091.178.094.402.096.626-.134-.044-.358-.041-.356.183-.089.045-.086.269.049.312.09.178.314.175.447-.005.032.209.078.372.14.49Zm2.021.872a7.069 7.069 0 0 1-.678-.663c.089-.046.043-.135.043-.135l.712-.366c.181.207.376.295.584.262a.542.542 0 0 0 .438-.899c.267-.137.533-.274.846-.322.208-.032.432-.034.671-.007.134.043.269.086.315.175.045.09-.087.27-.176.315-.503.334-1.036.682-1.598 1.046l-1.157.594Zm-1.261-.925a2.525 2.525 0 0 1-.672.007l-.096-.625c.058-.18.07-.374.038-.582.084-.567.182-1.105.296-1.613.043-.135.175-.315.13-.404a.758.758 0 0 1 .401-.094c.18.132.183.356.14.49.006.597-.003 1.163-.027 1.7a4.652 4.652 0 0 1-.21 1.12Zm-1.402 2.743c.18.132.54.396.767.618.045.088.002.223-.041.358-.44.675-.88 1.351-1.5 1.894-.148.151-.34.287-.577.41l-.404-.13c-.046-.09-.003-.224.04-.359a22.2 22.2 0 0 1 .791-1.305c.361.264.674.216 1.027-.19l.043-.135c.087-.27-.228-.445-.454-.666 0 0 .219-.45.308-.495Zm-.335-1.964-.173.538c-.089.046-.089.046-.224.003-.985-.169-2.017-.426-2.916-.863-.27-.087-.584-.262-.498-.532.132-.18.402-.093.625-.096.419.085.852.2 1.301.344.185.58.59.709 1.077.346l.808.26Zm3.186.948a9.851 9.851 0 0 1-.142-.713 5.233 5.233 0 0 1 1.698-.198c.223-.002.447-.004.495.308.002.224-.176.315-.354.406l-1.25.193-.447.005Zm-1.503 1.672c.178-.091.4-.168.669-.23.001.148.048.312.139.49l.005.447c.094.401.188.803.236 1.115.045.09-.041.358-.176.315-.223.003-.269-.086-.36-.264a6.684 6.684 0 0 1-.414-1.024c-.048-.313-.05-.536-.099-.849Zm-1.899-1.947c.003.298.036.58.098.848a30.99 30.99 0 0 0-1.832.155l-.27-.087c-.134-.043-.18-.132-.225-.221.09-.046.132-.18.221-.226a5.296 5.296 0 0 1 1.116-.236c.267-.062.565-.14.892-.233Z"/>
  <path fill="#F9DFC9" d="M98.261 24.902c-.353.406-.666.454-1.026.19-.32-.623-.013-1.118.704-1.037.226.221.452.443.365.712l-.043.135Zm3.659-4.915a.542.542 0 0 1-.437.9c-.209.031-.403-.056-.585-.263-.064-.416.023-.686.26-.808.267-.137.49-.14.762.171Zm-4.904 1.395c-.489.363-.892.233-1.078-.346.041-.359.173-.539.44-.676.209-.032.403.055.585.262.226.221.139.49.053.76Zm3.303 3.588a66.63 66.63 0 0 1-.005-.448c.029-.09.103-.165.221-.226.445-.229.805.036.721.529-.353.406-.442.452-.937.144Zm-1.659-4.545c-.133.18-.356.183-.447.005-.135-.043-.138-.267-.049-.313-.002-.223.222-.226.356-.183.12.089.21.192.272.31-.03.09-.073.15-.132.181Z"/>
  <path fill="#EE4A66" d="M100.535 24.296c-.118.06-.192.136-.221.225a1.108 1.108 0 0 1-.139-.49s-.003-.224.086-.27c-.132.181.094.402.274.535Zm-1.875-3.871c.059-.03.103-.09.132-.18l.096.625-.089.045a1.645 1.645 0 0 1-.14-.49Z"/>
  <path fill="#F9DFC9" stroke="#050505" stroke-width=".4" d="M100.617 23.58c-.618.766-1.69.867-2.457.25-.633-.575-.823-1.602-.205-2.369.618-.767 1.69-.868 2.457-.25.721.529.823 1.601.205 2.368Z"/>
  <path fill="#F9DFC9" d="M101.973 20.747c-.221.226-.623.32-.938.144-.271-.31-.365-.712-.055-.983.175-.316.623-.32.849-.1.36.265.32.624.144.939Zm-4.958.634c-.175.315-.622.32-.848.1-.36-.265-.32-.623-.145-.939.222-.226.623-.32.938-.144.272.31.366.712.055.983Zm1.203 3.655c-.265.36-.623.32-.938.144-.226-.22-.32-.622-.144-.937.31-.272.711-.366.983-.056.315.176.32.623.099.849Zm2.995-.077c-.221.226-.533.274-.759.053-.181-.132-.229-.445-.142-.714.221-.226.534-.274.76-.053.226.221.274.534.141.714Zm-2.507-4.445c-.133.18-.356.183-.537.05a.48.48 0 0 1-.096-.625c.133-.18.445-.228.582.039.18.132.183.355.05.536Z"/>
  <path stroke="#050505" stroke-linecap="round" stroke-linejoin="bevel" stroke-width=".4" d="M95.78 18.757c.038-.582.076-1.164.203-1.791.171-.763.568-1.304 1.008-1.98.528-.72 1.1-1.577 1.404-2.519 1.226 1.731 2.452 3.462 2.789 5.65.846-.323 1.695-.421 2.457-.25.493.084.943.302 1.347.432l2.87.774c-1.281 1.445-2.517 2.98-4.296 3.893l.137.267c.515.71.777 1.512.787 2.407.057 1.206.026 2.459.353 3.752-1.887-.829-3.772-1.435-5.263-2.805-.31.272-.485.587-.707.813-.442.452-1.019.86-1.598 1.046-.771.396-1.558.762-2.359 1.098-.267.138-.534.275-.844.546.067-2.058-.089-4.113.74-6-.315-.176-.719-.306-1.123-.436-.718-.305-1.262-.925-1.805-1.546a27.964 27.964 0 0 0-1.628-1.637c-.137-.267-.406-.353-.632-.574 2.05-.604 4.01-1.385 6.16-1.14Z"/>
  <defs>
    <linearGradient id="a" x1="66.9" x2="69.5" y1="21.826" y2="10.627" gradientUnits="userSpaceOnUse">
      <stop stop-color="#1B55A6"/>
      <stop offset=".3" stop-color="#4372B8"/>
      <stop offset=".8" stop-color="#4372B8"/>
      <stop offset="1" stop-color="#6392CC"/>
    </linearGradient>
    <linearGradient id="c" x1="66.98" x2="64.38" y1="35.9" y2="25.1" gradientUnits="userSpaceOnUse">
      <stop stop-color="#3156A6"/>
      <stop offset=".3" stop-color="#4D70B6"/>
      <stop offset=".8" stop-color="#4D70B6"/>
      <stop offset="1" stop-color="#7592CB"/>
    </linearGradient>
    <linearGradient id="e" x1="67.38" x2="64.98" y1="34.9" y2="24.9" gradientUnits="userSpaceOnUse">
      <stop stop-color="#3156A6"/>
      <stop offset=".3" stop-color="#4D70B6"/>
      <stop offset=".8" stop-color="#4D70B6"/>
      <stop offset="1" stop-color="#7592CB"/>
    </linearGradient>
    <linearGradient id="g" x1="75.78" x2="73.18" y1="9.1" y2="2.3" gradientUnits="userSpaceOnUse">
      <stop stop-color="#3156A6"/>
      <stop offset=".3" stop-color="#4D70B6"/>
      <stop offset=".8" stop-color="#4D70B6"/>
      <stop offset="1" stop-color="#7592CB"/>
    </linearGradient>
    <linearGradient id="i" x1="75.98" x2="73.58" y1="8.4" y2="2.1" gradientUnits="userSpaceOnUse">
      <stop stop-color="#3156A6"/>
      <stop offset=".3" stop-color="#4D70B6"/>
      <stop offset=".8" stop-color="#4D70B6"/>
      <stop offset="1" stop-color="#7592CB"/>
    </linearGradient>
  </defs>
</svg>
