<svg xmlns="http://www.w3.org/2000/svg" width="55" height="37" fill="none" viewBox="0 0 55 37">
  <path fill="#6A559A" d="m51.9 17.5-47.8-3 .2-4.2 48 3-.4 4.2Z"/>
  <path fill="#FEFEFE" fill-rule="evenodd" d="M3.5 1.1c.8.1 1.7.2 1.1 2.6C4.1 6 3.3 6 2.1 5.9h-.4L2.8 1l.7.1Zm-.2.6-.9 3.7c1.1.2 1.3-.9 1.5-1.7.2-.7.5-2-.6-2Z" clip-rule="evenodd"/>
  <path fill="#FEFEFE" d="m5.2 6.2-.6-.1 1.1-4.8h.6L5.2 6.2Zm.9-5.1L5.8.9l.7-.9.4.3-.8.8Z"/>
  <path fill="#FEFEFE" fill-rule="evenodd" d="m8.2 1.4-.1 5-.7-.1.1-.9-1-.1-.4.9h-.6l2.2-4.8h.5Zm-.7 2.7.2-1.8-1 2.5h.8v-.7Zm3.9-2.4c.8 0 1.6.2 1.1 2.6-.6 2.3-1.3 2.3-2.5 2.2h-.5l1.2-4.9.7.1Zm-.2.6L10.3 6c1.1.1 1.2-.9 1.4-1.7.2-.7.6-2-.5-2Z" clip-rule="evenodd"/>
  <path fill="#FEFEFE" d="m15.3 2-.1.5h-1.1L13.7 4l1 .1-.1.5-1-.1-.4 1.7 1.1.1-.1.5-1.8-.1 1.2-4.9 1.7.2Zm2.2.1-1 4.3 1.1.1-.2.6-1.7-.2 1.1-4.8h.7Z"/>
  <path fill="#FEFEFE" fill-rule="evenodd" d="m20 2.3-.1 5-.6-.1v-1h-1l-.4.9h-.6l2.2-4.8h.5ZM19.4 5l.1-1.8-.9 2.4.7.1.1-.7Z" clip-rule="evenodd"/>
  <path fill="#FEFEFE" d="m23.2 2.6-.9 3.5c-.1.6.1.8.3.8.5 0 .6-.2.7-.6l.8-3.7.7.1-.8 3.4c-.2.7-.4 1.5-1.5 1.4-1-.1-1-.8-.8-1.6l.8-3.4.7.1Zm2.4 1.6-.3 1.6-.4 1.8h-.6l1.1-4.9.6.1.3 3.7.3-1.9.4-1.8.7.1-1.2 4.8h-.6l-.2-3.8-.1.3Zm2.2 3.6h-.6l1.1-4.9.7.1-1.2 4.8Z"/>
  <path fill="#FEFEFE" fill-rule="evenodd" d="M30.3 3.1c.8.1 1.7.2 1.1 2.6-.5 2.3-1.3 2.3-2.5 2.2h-.4L29.6 3l.7.1Zm-.2.6-.9 3.7c1.1.2 1.3-.9 1.5-1.7.1-.7.5-2-.6-2Zm3.6-.4-.1 5-.7-.1.1-.9-1-.1-.4.9H31l2.2-4.8h.5ZM33 6l.2-1.8-1 2.5h.8V6Zm2.7-2.5c.8.1 1.7.2 1.1 2.6-.5 2.3-1.3 2.3-2.5 2.2h-.4L35 3.4l.7.1Zm-.2.6-.9 3.7c1.1.2 1.3-.9 1.5-1.7.1-.7.5-2-.6-2Zm4.3-.3c.8.1 1.6.2 1 2.6-.5 2.3-1.3 2.3-2.4 2.2h-.5l1.2-4.9.7.1Zm-.2.6-.9 3.7c1 .2 1.2-.9 1.4-1.7.2-.7.6-2-.5-2Z" clip-rule="evenodd"/>
  <path fill="#FEFEFE" d="m43.7 4.1-.1.5h-1.1l-.4 1.5 1 .1-.2.5H42l-.4 1.6 1.1.1-.2.5-1.7-.1L41.9 4l1.8.1Zm2.2.2-1.1 4.2 1.1.1-.1.6-1.7-.1 1.1-4.9.7.1Z"/>
  <path fill="#FEFEFE" fill-rule="evenodd" d="M49.1 7c-.3.8-.6 2.4-1.9 2.4-1.3-.1-.9-1.8-.7-2.6.2-.9.6-2.5 1.9-2.4 1.2.1.9 1.7.7 2.6Zm-1.9-.2c-.3 1-.4 1.9.1 1.9.5.1.8-.8 1.1-1.8.2-1 .3-1.9-.2-1.9-.5-.1-.8.8-1 1.8Z" clip-rule="evenodd"/>
  <path fill="#FEFEFE" d="M51.5 5.4c-.2-.1-.3-.2-.5-.2-.4 0-.7.2-.8.6 0 .2 0 .3.1.5l.4.6c.3.5.5.8.3 1.4-.1.7-.7 1.3-1.4 1.2-.3 0-.5-.1-.7-.3l.2-.6c.1.2.3.3.6.3.4 0 .6-.3.7-.6.2-1-1.1-1.3-.8-2.6.1-.7.6-1.2 1.4-1.1.267 0 .467.067.6.2l-.1.6Z"/>
  <path fill="#FEFEFE" fill-rule="evenodd" d="M1.9 18.7c.8.1 1.7.2 1.1 2.7-.6 2.2-1.3 2.3-2.5 2.2l-.5-.1 1.2-4.8h.7Zm-.2.5L.8 23c1.1.1 1.3-.9 1.5-1.7.1-.8.5-2-.6-2.1Z" clip-rule="evenodd"/>
  <path fill="#FEFEFE" d="m5.8 19.1-.1.5-1.1-.1-.4 1.5 1 .1-.1.6-1-.1-.4 1.7h1.1l-.1.6-1.8-.1 1.2-4.9 1.7.2Z"/>
  <path fill="#FEFEFE" fill-rule="evenodd" d="m6.8 8.7 2.8.2c.1 0 .2 0 .5.1.4.1.7.2 1 .5.4.3.6.6.7 1.2.067.266.033.6-.1 1-.1.6-.5 1.2-.8 1.5-.2.133-.433.267-.7.4-.6.3-1.2.3-1.5.3h-1l-.3 1.6-2-.1 1.4-6.7Zm2.3 2.1-.7-.1-.3 1.3h.8c.333.066.533-.1.6-.5.1-.4 0-.7-.4-.7Z" clip-rule="evenodd"/>
  <path fill="#FEFEFE" d="M14.2 16.2c-.1 0-.2 0-.6-.1-.3-.1-.6-.2-1-.5s-.6-.7-.7-1.3a3.043 3.043 0 0 1 0-1.1l.9-4 2.1.1-.9 4.1c-.1.1-.1.1 0 .3v.3c.1.1.3.3.6.3.267.066.467.033.6-.1.2-.134.3-.267.3-.4l.1-.3.9-4 2.1.1-.9 4.1c-.2.7-.6 1.3-1 1.7-.2.2-.433.333-.7.4-.7.4-1.3.4-1.7.4h-.1Zm7-4.5-.2.7 2.7.2-.4 1.7-2.7-.2-.1.6 2.9.2-.4 1.9-4.9-.4 1.5-6.7 4.9.4L24 12l-2.8-.3Z"/>
  <path fill="#FEFEFE" fill-rule="evenodd" d="m23.9 16.8 1.5-6.6 2.9.2h.3c.067 0 .233.066.5.2.267.066.467.166.6.3.2.133.367.333.5.6.067.266.067.566 0 .9-.133.533-.4.966-.8 1.3.4.4.533.9.4 1.5-.267 1.4-1.333 2-3.2 1.8l-2.7-.2Zm2.4-1.7.9.1c.267 0 .433-.1.5-.3 0-.267-.1-.4-.3-.4l-.9-.1-.2.7Zm.5-2.2.8.1c.1 0 .3-.1.4-.3 0-.3-.1-.4-.2-.4l-.9-.1-.1.7Z" clip-rule="evenodd"/>
  <path fill="#FEFEFE" d="m33.7 10.8-1 4.8 2.8.2-.4 1.9-4.9-.4 1.5-6.6 2 .1Z"/>
  <path fill="#FEFEFE" fill-rule="evenodd" d="M40.6 11.2c1 .133 1.767.533 2.3 1.2.533.733.7 1.6.5 2.6-.2.933-.733 1.7-1.6 2.3-.8.667-1.7.967-2.7.9-1-.133-1.767-.533-2.3-1.2-.533-.733-.7-1.6-.5-2.6.2-.933.733-1.733 1.6-2.4.8-.6 1.7-.867 2.7-.8Zm-1.1 5.1c.4 0 .767-.133 1.1-.4.4-.267.633-.633.7-1.1.133-.4.067-.767-.2-1.1-.2-.333-.5-.533-.9-.6-.4 0-.767.133-1.1.4-.4.267-.633.633-.7 1.1-.133.4-.066.767.2 1.1.2.333.5.533.9.6Z" clip-rule="evenodd"/>
  <path fill="#FEFEFE" d="M45.2 16c.4.533.867.833 1.4.9.4 0 .633-.1.7-.3 0-.067-.1-.167-.3-.3a6.534 6.534 0 0 0-.7-.4 3.914 3.914 0 0 1-.9-.5c-.267-.133-.5-.367-.7-.7a2.017 2.017 0 0 1-.1-1.1c.133-.4.4-.8.8-1.2.5-.4 1.3-.7 2.2-.6.7 0 1.4.3 1.7.6.4.3.6.7.7.9l.1.1-1.6 1c-.2-.333-.4-.533-.6-.6-.133-.133-.333-.2-.6-.2-.4 0-.6.1-.6.2 0 .2.3.4.7.6.267.133.5.267.7.4.267.133.5.267.7.4.2.2.367.433.5.7.067.267.067.567 0 .9-.067.467-.333.9-.8 1.3-.5.4-1.4.7-2.3.6-.8-.067-1.4-.3-1.8-.7-.467-.333-.733-.7-.8-1.1l1.6-.9Z"/>
  <path fill="#6A559A" d="m54.4 26.5-47.7-3 .2-4.3 48 3.1-.5 4.2Z"/>
  <path fill="#FEFEFE" fill-rule="evenodd" d="m13.5 18 1 6.9-2.2-.2-.1-.7-2.2-.2-.3.7-2.2-.2 3.9-6.5 2.1.2Zm-2.4 4 1 .1-.2-1.4-.8 1.3Z" clip-rule="evenodd"/>
  <path fill="#FEFEFE" d="m19.1 24.5-.5-.1-.8-2.1-.6 2.8-2.1-.2 1.5-6.7 1.9.2 1.1 2.7 2.3-2.4 1.8.1-1.4 6.7-2.1-.2.6-2.7-1.7 1.9Zm7.3-3.6-.1.7 2.6.2-.4 1.7-2.6-.2-.2.5 2.9.3-.4 1.9-4.9-.4 1.5-6.7 4.9.4-.4 1.8-2.9-.2Zm1.9-2.3-2-.2 1.3-1.7 2.3.2-1.6 1.7Z"/>
  <path fill="#FEFEFE" fill-rule="evenodd" d="m35.2 26.5-2.4-.2-1.1-1.8h-.2l-.3 1.7-2-.2 1.4-6.7 2.8.3c.1 0 .2 0 .5.1.4.1.7.2 1 .5.4.3.6.6.7 1.2.067.266.033.567-.1.9-.2.933-.7 1.6-1.5 2l1.2 2.2Zm-3-5.2-.3 1.3h.8c.333.066.567-.1.7-.5.1-.4-.1-.7-.4-.7l-.8-.1Z" clip-rule="evenodd"/>
  <path fill="#FEFEFE" d="m35.8 26.5 1.5-6.6 2 .1-1.5 6.7-2-.2Zm10.7-2c-.4.866-.967 1.533-1.7 2-.8.533-1.633.766-2.5.7-1-.067-1.767-.467-2.3-1.2-.533-.734-.7-1.6-.5-2.6.2-.934.733-1.7 1.6-2.3.8-.667 1.7-.934 2.7-.8.867.066 1.567.4 2.1 1 .533.6.8 1.333.8 2.2l-2.2-.2c0-.334-.1-.6-.3-.8a2.254 2.254 0 0 0-.8-.4c-.4 0-.767.133-1.1.4a1.53 1.53 0 0 0-.7 1.1c-.067.466 0 .866.2 1.2.2.333.5.5.9.5.333 0 .633-.067.9-.2.267-.2.5-.434.7-.7l2.2.1Z"/>
  <path fill="#FEFEFE" fill-rule="evenodd" d="m52 21 1 6.9-2.2-.2-.1-.7-2.2-.2-.4.7-2.2-.2 4-6.5 2.1.2Zm-2.4 4.1h.9l-.1-1.4-.8 1.4Z" clip-rule="evenodd"/>
  <path fill="#6A559A" d="M48.1 35.2 5.5 32.5l.2-4.3L48.6 31l-.5 4.2Z"/>
  <path fill="#FEFEFE" fill-rule="evenodd" d="m6.7 33.3 1.5-6.7 2.7.3c1 .067 1.733.433 2.2 1.1.533.667.7 1.5.5 2.5a4.494 4.494 0 0 1-1.5 2.3c-.8.6-1.7.833-2.7.7l-2.7-.2Zm3.1-4.6-.6 2.9.7.1c.333 0 .667-.133 1-.4.267-.267.467-.6.6-1 .067-.4 0-.767-.2-1.1-.133-.267-.4-.433-.8-.5h-.7Z" clip-rule="evenodd"/>
  <path fill="#FEFEFE" d="m16.7 29.2-.1.7 2.7.2-.4 1.7-2.7-.2-.1.5 2.9.3-.4 1.8-4.9-.3 1.4-6.7 4.9.4-.4 1.8-2.9-.2Zm6.3-1.4-1.1 4.8 2.9.2-.4 1.9-4.9-.4 1.5-6.7 2 .2Zm5.8 4.7c.4.6.867.9 1.4.9.4.067.633 0 .7-.2 0-.133-.1-.266-.3-.4a5.488 5.488 0 0 1-.7-.3 3.913 3.913 0 0 1-.9-.5 1.82 1.82 0 0 1-.6-.8c-.2-.267-.267-.6-.2-1 .133-.4.4-.833.8-1.3.5-.4 1.3-.6 2.2-.6.7.1 1.4.4 1.7.7.4.3.6.6.7.8l.1.2-1.6.9c-.2-.266-.4-.466-.6-.6-.133-.066-.333-.1-.6-.1-.4-.1-.6.1-.6.2 0 .2.3.4.7.6.267.067.5.167.7.3.267.134.5.3.7.5.2.134.367.367.5.7.067.267.067.567 0 .9-.067.4-.333.834-.8 1.3-.5.4-1.4.6-2.3.6-.8-.066-1.4-.3-1.8-.7-.4-.4-.667-.8-.8-1.2l1.6-.9Zm7.3 3.3c-.1-.1-.2-.1-.5-.2-.4-.1-.7-.2-1.1-.5-.4-.3-.6-.7-.7-1.3a1.729 1.729 0 0 1 .1-1l.9-4.1 2 .2-.9 4.1s-.1.1 0 .3c0 .067.033.133.1.2 0 .2.2.3.5.4.267 0 .467-.067.6-.2.2-.134.333-.267.4-.4v-.2l1-4.1 2 .2-.9 4c-.2.8-.6 1.4-1 1.7-.2.2-.4.366-.6.5-.7.3-1.4.4-1.7.3l-.2.1Z"/>
  <path fill="#FEFEFE" fill-rule="evenodd" d="m46.1 36.4-2.5-.2-1-1.8h-.2l-.4 1.7-2-.2 1.5-6.7 2.8.3s.1 0 .5.1c.3.1.6.2 1 .5.3.3.6.6.6 1.2.067.267.067.566 0 .9-.2.933-.733 1.6-1.6 2l1.3 2.2Zm-3-5.2-.2 1.3h.7c.4.066.633-.1.7-.5.1-.4-.1-.7-.4-.7l-.8-.1Z" clip-rule="evenodd"/>
</svg>
