<svg xmlns="http://www.w3.org/2000/svg" width="39" height="84" fill="none" viewBox="0 0 39 84">
  <path fill="#489FD7" d="M20.6 83.2c-.2-.1-.4-.3-.3-.5.1-.3.3-.4.5-.3.2 0 .4.3.3.5-.1.2-.3.4-.5.3Z"/>
  <path fill="#EC252D" d="M5 11.3c-.2-.1-.3-.3-.3-.5.1-.3.3-.4.6-.3.2 0 .3.3.3.5-.1.2-.3.3-.6.3Z"/>
  <path fill="#489FD7" d="M20.6 83.2c-.2-.1-.4-.3-.3-.5.1-.3.3-.4.5-.3.2 0 .4.3.3.5-.1.2-.3.4-.5.3Z"/>
  <g opacity=".7">
    <path fill="#FEFEFE" d="M14.3 83.1s-.8-1.3-.7-1.3c.1 0 .9.1 1 .1.1 0 .3 1.1.3 1.1l-.6.1Z"/>
    <path stroke="#FEFEFE" stroke-linecap="round" stroke-linejoin="round" stroke-width=".4" d="M14.3 83.1s-.8-1.3-.7-1.3c.1 0 .9.1 1 .1.1 0 .3 1.1.3 1.1l-.6.1Z"/>
    <path fill="#FEFEFE" d="m15 77.9.7 3.5s0 .7.9.8c.9 0 3.2-.2 3.2-.2s-.2-.4-.7-.5c-.5-.1-.8-.2-1.2-.5-.4-.3-1-.8-1.1-.9 0-.1-.6-.7-.6-1-.1-.3-.1-.3-.6-.7-.4-.5-.6-.5-.6-.5Z"/>
    <path stroke="#FEFEFE" stroke-linecap="round" stroke-linejoin="round" stroke-width=".4" d="m15 77.9.7 3.5s0 .7.9.8c.9 0 3.2-.2 3.2-.2s-.2-.4-.7-.5c-.5-.1-.8-.2-1.2-.5-.4-.3-1-.8-1.1-.9 0-.1-.6-.7-.6-1-.1-.3-.1-.3-.6-.7-.4-.5-.6-.5-.6-.5Z"/>
    <path fill="#FEFEFE" d="M19.1 52.6c-.4 0-.5.4-.6-.1-.1-.4-.7-.4-.7-.4l-.6.3s-.1.2 0 .5.4.6.5.6h.1s-.4.3-.6 1c-.3.8-.3 1.6-.2 1.7 0 .1.1 1.1.1 1.1l-.2.6c-.1.2-.2.6-.2.6s-1.8.5-2 1c-.2.5-.6 1-.6 1s-.3 1-.3 1.1v.8s.7 1 .9 1.2c.2.1.8.3 1 .4.2.1 1.3.1 1.3.1s.6.2.4.8c-.1.5-.2.7-.3.8-.1.2.1.2.2.3.1 0-.4 1-.7 1.3-.3.4-.8.8-.9 1-.1.3-.7 1-.7 1l-.2.8.2.7s0 .7-.2.9c-.1.1-.3.3-.4.2-.1-.1-.5-.3-.5-.3l-.4.2.2.2.2.3s-.5 1-.6 1.3c-.1.3-.2 1-.2 1l.5.2.3.9-.6.3s.6.2.8.3c.1.2.7.7.7.7l-.7.3-4.4.4s-.7-.6-.9-1.3c-.3-.8 0-1.5-.4-1.7-.5-.1-.8.1-1.1.2-.3.2.1.4-.3.2-.4-.3-1-1.6-1.1-2.1 0-.5.5-1.9.6-2 .1-.2.5-.3.4-.8 0-.4-.3-2.9-.2-3.5.1-.6.2-.6.2-.9 0-.3.1-.4.1-.8 0-.5.1-.3 0-.9-.1-.6-.1-.9-.2-1.2-.1-.3-.4-.6-.4-.7 0-.2.6-.7.6-.9-.1-.2-.6-.8-.6-.8s.2-.3.3-.5c.1-.1.1-.5.1-.6-.1-.2-.4-.2-.7-.3-.2-.1-.4.2-.4-.2-.1-.4-.2-1.3-.2-1.4 0-.1-.4-.6-.4-.7 0-.2-.4-.1-.8-1.1-.4-.9-.6-1.8-.5-1.9.1-.1.5-.7.5-.7s-.8-3.6-.9-3.9c0-.2.1-.7.1-.9-.1-.2 0-.7.1-.8 0-.2-.1-1.6 0-1.8.2-.3.4-.6.5-.8.1-.2-.9-2.3-1.1-3.7-.1-1.4.2-1.4.4-1.7.1-.3.5-1.3.5-1.5 0-.1.1-.3.1-.3S3.5 36 3.6 35c.1-1.1 1.1-1.6.4-3.2-.7-1.5-.8-1.1-.9-1.7-.1-.6-1.1-2.5-1.3-2.8-.2-.3-.2-1-.1-1.2.1-.2.2-.2.3-1 0-.7.4-1.4.4-1.6.1-.1-.4-1.2-.5-1.9 0-.6.3-2.2.4-2.5.1-.2.8-1.5.8-1.7 0-.2.1-1.6.2-1.7.1-.1.8-.3.9-.5.2-.1.3 0 0-.6-.4-.5-.8-.7-.8-.7s.6-.3.4-1.4c-.2-1.1-.3-1.2-.4-1.6v-.8c0-.3-.3-.4-.3-.6 0-.2-.5-.2.4-.7.8-.4 1.8-1.3 2-1.6.2-.4.4-.5.3-.8 0-.3.1-1.6-.1-2-.3-.5 1.2-2 1.4-2.3.2-.2.3-.3.4-.3.1 0 .3.2.7.1h2.5c.1 0 .4.3.4.3l.9 1.1.9-2 2.6-.3s.6 1.1 1.4 1.5c.7.5 3.1 2.2 3.1 2.2l3.8 1.2 2.9 1.4 1.1.3s.4.3.4.4c0 .1-.6 1.8-.8 2.1-.3.4-1.1 2.9-1.1 2.9s1.4.1 1.8.1c.3 0 3.6.5 3.6.5s.2-.3.3-.5c.1-.1 1.1 0 1.1 0s1-1 1.2-1.3c.1-.3.6-.6.8-1 .2-.4.3-1.4.3-1.7 0-.3-.1-.4.6-.6.7-.1.9 0 1 .4.2.5.4 1.1.5 1.5 0 .4.2 1-.7 1.7-1 .8-3.6 2.6-3.6 2.6l-4.5 6.2v.6s-.3 2.7-.4 3.2c-.1.4-.1 1.3-.1 1.4 0 .1.1.6.2.8 0 .3-.2.3-.3.5-.2.3-.3.8-.3 1.1 0 .2.1 1.1.1 1.2 0 .1.2.6 0 .7-.1.1-.4.2-.6.3l1.9 1.3c.2-.1 1 .3 1.2.5.3.2.5.8.5.8l-.2.5s-.3.7 0 1c.3.4 1 .8 1.2.8l.3.3s0 1.2-.5 1.8c-.5.6-.9 1.4-1 1.6 0 .1-.4.6-.4.6s-2.1 1.8-4.3 2.2c-2.1.4-4.5.4-4.5.4l-.4-.1v.7c.1.4.3.6.3.6s.3.4.4.7c.1.2-.1.5-.3.7-.2.2-.2 1-.2 1.1 0 .1.5 1 .5 1s-.3.5-.4.5c-.1 0-.8.2-.8.2s.3.3-.4.4c-.7.1-3.1-.4-3.2-.5-.1-.1-.6 0-.6 0s-.3.1-.2.6c.1.5.3 1.2.5 1.6.1.4 0 1.3 0 1.3l.3.3c.1.1.8.2.8.2h.4"/>
    <path stroke="#FEFEFE" stroke-linecap="round" stroke-linejoin="round" stroke-width=".4" d="M19.1 52.6c-.4 0-.5.4-.6-.1-.1-.4-.7-.4-.7-.4l-.6.3s-.1.2 0 .5.4.6.5.6h.1s-.4.3-.6 1c-.3.8-.3 1.6-.2 1.7 0 .1.1 1.1.1 1.1l-.2.6c-.1.2-.2.6-.2.6s-1.8.5-2 1c-.2.5-.6 1-.6 1s-.3 1-.3 1.1v.8s.7 1 .9 1.2c.2.1.8.3 1 .4.2.1 1.3.1 1.3.1s.6.2.4.8c-.1.5-.2.7-.3.8-.1.2.1.2.2.3.1 0-.4 1-.7 1.3-.3.4-.8.8-.9 1-.1.3-.7 1-.7 1l-.2.8.2.7s0 .7-.2.9c-.1.1-.3.3-.4.2-.1-.1-.5-.3-.5-.3l-.4.2.2.2.2.3s-.5 1-.6 1.3c-.1.3-.2 1-.2 1l.5.2.3.9-.6.3s.6.2.8.3c.1.2.7.7.7.7l-.7.3-4.4.4s-.7-.6-.9-1.3c-.3-.8 0-1.5-.4-1.7-.5-.1-.8.1-1.1.2-.3.2.1.4-.3.2-.4-.3-1-1.6-1.1-2.1 0-.5.5-1.9.6-2 .1-.2.5-.3.4-.8 0-.4-.3-2.9-.2-3.5.1-.6.2-.6.2-.9 0-.3.1-.4.1-.8 0-.5.1-.3 0-.9-.1-.6-.1-.9-.2-1.2-.1-.3-.4-.6-.4-.7 0-.2.6-.7.6-.9-.1-.2-.6-.8-.6-.8s.2-.3.3-.5c.1-.1.1-.5.1-.6-.1-.2-.4-.2-.7-.3-.2-.1-.4.2-.4-.2-.1-.4-.2-1.3-.2-1.4 0-.1-.4-.6-.4-.7 0-.2-.4-.1-.8-1.1-.4-.9-.6-1.8-.5-1.9.1-.1.5-.7.5-.7s-.8-3.6-.9-3.9c0-.2.1-.7.1-.9-.1-.2 0-.7.1-.8 0-.2-.1-1.6 0-1.8.2-.3.4-.6.5-.8.1-.2-.9-2.3-1.1-3.7-.1-1.4.2-1.4.4-1.7.1-.3.5-1.3.5-1.5 0-.1.1-.3.1-.3S3.5 36 3.6 35c.1-1.1 1.1-1.6.4-3.2-.7-1.5-.8-1.1-.9-1.7-.1-.6-1.1-2.5-1.3-2.8-.2-.3-.2-1-.1-1.2.1-.2.2-.2.3-1 0-.7.4-1.4.4-1.6.1-.1-.4-1.2-.5-1.9 0-.6.3-2.2.4-2.5.1-.2.8-1.5.8-1.7 0-.2.1-1.6.2-1.7.1-.1.8-.3.9-.5.2-.1.3 0 0-.6-.4-.5-.8-.7-.8-.7s.6-.3.4-1.4c-.2-1.1-.3-1.2-.4-1.6v-.8c0-.3-.3-.4-.3-.6 0-.2-.5-.2.4-.7.8-.4 1.8-1.3 2-1.6.2-.4.4-.5.3-.8 0-.3.1-1.6-.1-2-.3-.5 1.2-2 1.4-2.3.2-.2.3-.3.4-.3.1 0 .3.2.7.1h2.5c.1 0 .4.3.4.3l.9 1.1.9-2 2.6-.3s.6 1.1 1.4 1.5c.7.5 3.1 2.2 3.1 2.2l3.8 1.2 2.9 1.4 1.1.3s.4.3.4.4c0 .1-.6 1.8-.8 2.1-.3.4-1.1 2.9-1.1 2.9s1.4.1 1.8.1c.3 0 3.6.5 3.6.5s.2-.3.3-.5c.1-.1 1.1 0 1.1 0s1-1 1.2-1.3c.1-.3.6-.6.8-1 .2-.4.3-1.4.3-1.7 0-.3-.1-.4.6-.6.7-.1.9 0 1 .4.2.5.4 1.1.5 1.5 0 .4.2 1-.7 1.7-1 .8-3.6 2.6-3.6 2.6l-4.5 6.2v.6s-.3 2.7-.4 3.2c-.1.4-.1 1.3-.1 1.4 0 .1.1.6.2.8 0 .3-.2.3-.3.5-.2.3-.3.8-.3 1.1 0 .2.1 1.1.1 1.2 0 .1.2.6 0 .7-.1.1-.4.2-.6.3l1.9 1.3c.2-.1 1 .3 1.2.5.3.2.5.8.5.8l-.2.5s-.3.7 0 1c.3.4 1 .8 1.2.8l.3.3s0 1.2-.5 1.8c-.5.6-.9 1.4-1 1.6 0 .1-.4.6-.4.6s-2.1 1.8-4.3 2.2c-2.1.4-4.5.4-4.5.4l-.4-.1v.7c.1.4.3.6.3.6s.3.4.4.7c.1.2-.1.5-.3.7-.2.2-.2 1-.2 1.1 0 .1.5 1 .5 1s-.3.5-.4.5c-.1 0-.8.2-.8.2s.3.3-.4.4c-.7.1-3.1-.4-3.2-.5-.1-.1-.6 0-.6 0s-.3.1-.2.6c.1.5.3 1.2.5 1.6.1.4 0 1.3 0 1.3l.3.3c.1.1.8.2.8.2h.4"/>
    <path fill="#FEFEFE" fill-rule="evenodd" d="M23.3 77.9v-.1c.1 0 .3.1.4-.1-.1 0-.2-.1-.1-.1.3-.1.4.2.5-.1-.1 0-.2.1-.2 0 .067 0 .133-.033.2-.1 0-.1-.1-.2 0-.3-.2.1-.3 0-.4-.2.2 0 .6 0 .7-.2-.2-.1-.4-.1-.5-.1-.1-.3.2-.1.2-.2-.1-.1-.4 0-.4-.1v-.2c.3.1.6.4.9.2-.4-.2.5-.3.4-.1.2-.1.3-.2.5-.1 0 0-.2-.2 0-.2.1.1.3 0 .4.1-.2.1-.2.5-.6.6 0 .3-.3.9-.5.9l-.1-.1c.1.3-.2.1-.3.2.2.2 0 .5-.2.4 0 .1-.1.2-.2.3-.1-.1-.1-.5-.3-.3.1 0 .2 0 .1.1-.2 0-.3-.2-.5-.2Zm.8-.8c.2-.1.1.2.2.1 0-.1-.1-.3.2-.2-.067 0-.1-.033-.1-.1-.133 0-.233.067-.3.2Z" clip-rule="evenodd"/>
    <path stroke="#FEFEFE" stroke-linecap="round" stroke-linejoin="round" stroke-width=".4" d="M24.1 77.1c-.1.1 0 .2 0 .3-.067.067-.133.1-.2.1 0 .1.1 0 .2 0-.1.3-.2 0-.5.1-.1 0 0 .1.1.1-.1.2-.3.1-.4.1v.1c.2 0 .3.2.5.2.1-.1 0-.1-.1-.1.2-.2.2.2.3.3.1-.1.2-.2.2-.3.2.1.4-.2.2-.4.1-.1.4.1.3-.2l.1.1c.2 0 .5-.6.5-.9.4-.1.4-.5.6-.6-.1-.1-.3 0-.4-.1-.2 0 0 .2 0 .2-.2-.1-.3 0-.5.1.1-.2-.8-.1-.4.1-.3.2-.6-.1-.9-.2v.2c0 .1.3 0 .4.1 0 .1-.3-.1-.2.2.1 0 .3 0 .5.1-.1.2-.5.2-.7.2.1.2.2.3.4.2Zm0 0c.2-.1.1.2.2.1 0-.1-.1-.3.2-.2-.067 0-.1-.033-.1-.1-.133 0-.233.067-.3.2Z"/>
    <path fill="#FEFEFE" fill-rule="evenodd" d="M26.1 75.6h.1c.2.1.5.1.8 0 0 .1.1.2.2.2.1-.3.8-.1.7.3-.2.1-.3-.2-.4 0 0 .2.5 0 .5.2-.3 0-.1.1-.1.2-.2 0-.4.2-.5.2 0 .1-.2.3-.3.3h-.2c-.3 0-.5.1-.6-.1.1.3.3.2.5.3 0 .1.1.3 0 .3 0-.1-.1 0-.2-.1-.1 0 0 .1-.2.1-.1 0-.3-.2-.4 0 .2-.2.2.1.2.2 0 0 .1-.1.1 0v.2c-.2 0-.4-.2-.6-.1.1.1.1.3.2.4h-.1c-.2-.2-.4-.3-.6-.5.3 0 .1-.2.2-.5.1.1.1-.1.1-.2.3.1.4-.5.7-.3-.1-.2-.2-.2-.3-.3 0-.2.2-.1.2-.3-.1 0-.2.1-.2 0 .1-.1.2-.1.4-.3 0-.1-.2-.1-.2-.2Zm1.2.8c0-.2 0-.3-.2-.4v.1c-.067-.067-.067-.133 0-.2-.2.1-.2-.1-.3 0 .1.3.4.1.5.5Z" clip-rule="evenodd"/>
    <path stroke="#FEFEFE" stroke-linecap="round" stroke-linejoin="round" stroke-width=".4" d="M26.1 75.6h.1c.2.1.5.1.8 0 0 .1.1.2.2.2.1-.3.8-.1.7.3-.2.1-.3-.2-.4 0 0 .2.5 0 .5.2-.3 0-.1.1-.1.2-.2 0-.4.2-.5.2 0 .1-.2.3-.3.3h-.2c-.3 0-.5.1-.6-.1.1.3.3.2.5.3 0 .1.1.3 0 .3 0-.1-.1 0-.2-.1-.1 0 0 .1-.2.1-.1 0-.3-.2-.4 0 .2-.2.2.1.2.2 0 0 .1-.1.1 0v.2c-.2 0-.4-.2-.6-.1.1.1.1.3.2.4h-.1c-.2-.2-.4-.3-.6-.5.3 0 .1-.2.2-.5.1.1.1-.1.1-.2.3.1.4-.5.7-.3-.1-.2-.2-.2-.3-.3 0-.2.2-.1.2-.3-.1 0-.2.1-.2 0 .1-.1.2-.1.4-.3 0-.1-.2-.1-.2-.2Zm1.2.8c0-.2 0-.3-.2-.4v.1c-.067-.067-.067-.133 0-.2-.2.1-.2-.1-.3 0 .1.3.4.1.5.5Z" clip-rule="evenodd"/>
  </g>
  <path fill="#3E89C8" d="M15.6 83.4s-.8-1.2-.7-1.2h1c.1 0 .2 1.1.2 1.1l-.5.1Zm.7-5.1.6 3.5s0 .7 1 .7c.9.1 3.1-.1 3.1-.1s-.1-.4-.6-.5c-.5-.1-.8-.2-1.2-.5-.4-.4-1.1-.9-1.1-1-.1-.1-.6-.7-.7-.9-.1-.3-.1-.3-.5-.8s-.6-.4-.6-.4Zm14.2-46c.1 0 .9.4 1.2.6.2.2.5.7.5.7l-.2.6s-.3.6-.1 1c.3.4 1 .7 1.2.8.2 0 .4.3.4.3s-.1 1.1-.6 1.7c-.5.7-.9 1.5-.9 1.6-.1.1-.4.6-.4.6s-2.2 1.9-4.3 2.3c-2.1.4-4.5.3-4.5.3l-.5-.1s.1.5.1.8c0 .3.3.6.3.6s.2.3.3.6c.2.3 0 .6-.2.8-.2.1-.2 1-.2 1.1 0 .1.5 1 .5 1s-.4.4-.5.4c-.1 0-.7.2-.7.2s.2.3-.5.4c-.6.1-3-.4-3.1-.5-.2-.1-.6.1-.6.1s-.3.1-.2.6c.1.5.3 1.2.4 1.6.2.4.1 1.2.1 1.2s.1.3.3.3c.1.1.8.3.8.3l.3-.1s.3 0 .4-.4c.1-.4.4-.3.5-.1.1.2.2.9.2.9s.1.4-.2.4c-.3.1-.5.4-.5 0-.1-.5-.7-.4-.7-.4l-.6.3s-.1.2 0 .4c.1.3.4.7.5.7l.1-.1s-.5.3-.7 1.1c-.2.8-.2 1.6-.2 1.7.1.1.2 1.1.2 1.1s-.1.2-.2.5c-.2.3-.2.6-.2.6s-1.8.5-2.1 1c-.2.5-.6 1.1-.6 1.1s-.2.9-.3 1.1c0 .1.1.7.1.7s.7 1 .9 1.2c.1.2.7.4.9.5.2 0 1.4.1 1.4.1s.5.2.4.7c-.2.5-.2.8-.3.9-.1.1 0 .2.1.2.2 0-.3 1.1-.6 1.4-.4.3-.8.8-.9 1-.1.2-.7 1-.7 1l-.2.7.2.8s0 .7-.2.8c-.2.1-.4.4-.4.3-.1-.1-.5-.4-.5-.4l-.4.2.2.3.2.3s-.6.9-.7 1.3c-.1.3-.1.9-.1.9l.4.3.3.9-.6.3s.7.1.8.3c.2.2.7.6.7.6l-.6.4-4.4.3s-.8-.5-1-1.3c-.2-.8 0-1.5-.4-1.6-.4-.2-.8 0-1 .2-.3.1.1.4-.3.1-.4-.2-1.1-1.5-1.1-2.1 0-.5.5-1.8.6-2 0-.1.5-.3.4-.7-.1-.5-.3-3-.2-3.6 0-.6.1-.5.2-.9 0-.3 0-.3.1-.8 0-.4.1-.2-.1-.8-.1-.7 0-.9-.2-1.2-.1-.3-.3-.6-.3-.8 0-.1.6-.6.5-.8 0-.2-.5-.9-.5-.9l.2-.4c.1-.2.1-.5.1-.7 0-.1-.4-.2-.6-.2-.2-.1-.4.1-.5-.3 0-.4-.1-1.3-.1-1.4 0-.1-.4-.5-.4-.7-.1-.1-.4 0-.8-1-.5-1-.7-1.9-.6-2 .1-.1.6-.7.6-.7s-.9-3.6-.9-3.8c-.1-.3.1-.8 0-1 0-.2.1-.7.1-.8 0-.1 0-1.6.1-1.8.1-.2.4-.6.5-.8.1-.2-.9-2.2-1.1-3.6-.2-1.5.2-1.5.3-1.8.2-.3.6-1.2.6-1.4 0-.2.1-.4.1-.4s-.5-1.6-.4-2.7c.1-1 1-1.6.3-3.1-.7-1.6-.7-1.2-.9-1.8-.1-.6-1-2.5-1.2-2.8-.2-.3-.2-.9-.1-1.1.1-.2.2-.2.2-1 .1-.8.5-1.5.5-1.6 0-.1-.5-1.3-.5-1.9-.1-.6.3-2.2.4-2.5.1-.3.8-1.5.8-1.7 0-.3.1-1.6.2-1.7.1-.1.8-.3.9-.5.1-.2.3 0-.1-.6-.3-.6-.7-.8-.7-.8s.6-.3.4-1.4c-.3-1.1-.4-1.1-.4-1.5-.1-.4 0-.5 0-.8 0-.4-.3-.5-.3-.7-.1-.2-.5-.2.3-.6.9-.5 1.9-1.3 2.1-1.7.2-.3.3-.5.3-.8-.1-.3.1-1.6-.2-2-.2-.4 1.2-2 1.5-2.2.2-.2.2-.3.3-.4.1 0 .4.2.8.2s2.3-.1 2.4-.1c.2.1.5.3.5.3l.9 1.2.9-2 2.5-.3s.7 1 1.4 1.5c.8.4 3.1 2.2 3.1 2.2L25 6.2l3 1.4 1.1.3s.4.4.4.5c0 .1-.7 1.8-.9 2.1-.2.3-1 2.8-1 2.8s1.4.2 1.7.2c.4 0 3.7.5 3.7.5s.2-.4.3-.5c.1-.1 1 0 1 0s1.1-1 1.2-1.3c.2-.3.7-.7.9-1.1.1-.3.2-1.4.3-1.6 0-.3-.2-.5.5-.6.8-.1 1-.1 1.1.4.1.5.4 1 .4 1.5.1.4.3 1-.7 1.7s-3.5 2.6-3.5 2.6l-4.6 6.1v.6s-.2 2.8-.3 3.2c-.1.5-.2 1.4-.1 1.5 0 .1.1.5.1.8 0 .2-.1.2-.3.5-.1.2-.2.8-.2 1 0 .3.1 1.1.1 1.2 0 .1.1.6 0 .7-.1.1-.4.3-.6.4l1.9 1.2Z"/>
  <path fill="#3E89C8" fill-rule="evenodd" d="M24.6 78.2c-.067 0-.1-.033-.1-.1.2.1.4.1.5 0-.1 0-.2-.1-.1-.2.3 0 .4.2.5 0-.1 0-.2 0-.3-.1.133 0 .233-.033.3-.1 0-.1-.1-.1-.1-.2-.1.1-.3 0-.3-.3.2.1.6 0 .6-.1-.1-.1-.3-.2-.4-.2-.1-.2.1-.1.1-.1-.1-.1-.3 0-.4-.1 0-.133.033-.2.1-.2.2 0 .5.4.9.1-.4-.1.4-.3.3 0 .3-.2.4-.2.5-.1.1-.1-.1-.2.1-.3.1.1.2.1.3.1-.1.2-.1.6-.5.7 0 .3-.4.9-.5.9 0 0-.1-.2-.2-.1.1.3-.2.1-.2.2.1.2-.1.5-.3.3.1.2 0 .3-.1.3-.2 0-.2-.4-.3-.2 0 0 .1 0 .1.1-.2-.1-.3-.2-.5-.3Zm.8-.8c.1 0 0 .2.1.2.1-.1 0-.3.2-.2v-.2a1.165 1.165 0 0 0-.3.2Zm2-1.4c.2.1.6 0 .9 0 0 .1.1.1.1.2.2-.3.8-.2.8.2-.3.1-.4-.1-.5.1.1.2.5-.1.6.2-.3 0-.1 0-.1.2-.2 0-.5.1-.6.1.1.2-.1.3-.3.4 0 0-.1-.1-.2-.1-.2 0-.4.1-.6 0 .2.2.4.2.6.3 0 .1 0 .2-.1.3 0-.1-.1-.1-.1-.2-.1 0-.1.2-.2.2s-.4-.3-.4-.1c.2-.1.1.2.1.2h.2c-.1 0-.1.2-.1.3-.2 0-.4-.3-.5-.2.1.1.1.3.2.5h-.1c-.2-.2-.4-.3-.6-.5.3 0 .1-.2.1-.5.2 0 .2-.2.2-.3.3.1.3-.5.6-.2 0-.2-.2-.2-.2-.4s.2 0 .1-.2c0 0-.2.1-.1-.1 0-.1.2-.1.3-.2 0-.1-.1-.1-.1-.2Zm1.1.7c.1-.1 0-.2-.1-.3v.1c-.067-.067-.1-.133-.1-.2-.2.1-.1-.1-.3-.1.2.3.4.2.5.5Z" clip-rule="evenodd"/>
  <path stroke="#2C4265" stroke-linecap="round" stroke-linejoin="round" stroke-width=".4" d="M5 33.5s.7-1.7.8-2.1c0-.4-.1-2.5 2-1.5 2 1 .5 2.6.5 2.6s-1.2 1.6-1.2 2.1"/>
  <path stroke="#22B24E" stroke-linecap="round" stroke-linejoin="round" stroke-width=".4" d="M5.2 33.6s.7-1.8.7-2.1c.1-.4 0-2.5 2-1.5s.5 2.6.5 2.6-1.1 1.5-1.2 2"/>
  <path stroke="#2B0A41" stroke-linecap="round" stroke-linejoin="round" stroke-width=".4" d="M5.7 33.6s.8-1.9.8-2.3c.1-.4.1-2.6 2.1-1.6s.4 2.7.4 2.7-1.2 1.7-1.3 2.3"/>
  <path fill="#825AA5" d="M.4 34s2.7-3.6 5.7-2.3l1.4.6s3.2 1.2 2.7 5.4c0 0-.1 1.3-2.4.2-2.4-1-5.9-2.6-5.9-2.6S.1 34.7.4 34Z"/>
  <path fill="url(#a)" d="M.4 34s2.7-3.6 5.7-2.3l1.4.6s3.2 1.2 2.7 5.4c0 0-.1 1.3-2.4.2-2.4-1-5.9-2.6-5.9-2.6S.1 34.7.4 34Z" style="mix-blend-mode:multiply"/>
  <g opacity=".3" style="mix-blend-mode:multiply">
    <path fill="#78469B" d="M1.1 34.3s2.5-3.6 5.4-2.4Z"/>
    <path stroke="#050505" stroke-width=".4" d="M1.1 34.3s2.5-3.6 5.4-2.4"/>
  </g>
  <path fill="#78469B" d="M1.8 34.6s2.5-3.7 5.1-2.6l1.2.6s2.8 1 2.1 5.1c0 0-.1 1.3-2.2.4-2-.9-5-2.3-5-2.3s-1.5-.5-1.2-1.2Z"/>
  <path fill="url(#b)" d="M2.2 34.6c-.3.7 1.1 1.1 1.1 1.1s1.1.5 2.3 1c.3-.6.6-1.5 1.1-2.3-.4-.2-.9-.3-1.3-.5-.3-.1-.7-.1-.8-.1-.4-.1-1.3-.1-1.5-.2-.5.5-.9 1-.9 1Zm.9-1c.2.1 1.1.1 1.5.2.1 0 .5 0 .8.1.4.2.9.3 1.3.5.3-.6.7-1.2 1-1.8a3.902 3.902 0 0 1-.8-.3c-.8-.4-1.6-.2-2.3.1-.6.3-1.1.8-1.5 1.2Zm2.5 3.1c.8.4 1.6.7 2.3 1.1 1.9.8 2-.4 2-.4a17.4 17.4 0 0 0 .1-1.7c-.2-.6-.8-.3-1.8-.7-.4-.2-.9-.4-1.2-.5-.1 0-.2 0-.3-.1-.5.8-.8 1.7-1.1 2.3Zm1.1-2.3c.1.1.2.1.3.1.3.1.8.3 1.2.5 1 .4 1.6.1 1.8.7a3.574 3.574 0 0 0-.3-.9c-.5-1.6-1.7-2-1.7-2a1.161 1.161 0 0 1-.3-.2c-.3.6-.7 1.2-1 1.8Z" style="mix-blend-mode:multiply"/>
  <path fill="#ED2545" d="M8.8 36.9c-1.3-.6-2.5-.2-3.8-1a3.57 3.57 0 0 0 .3-.9c1.3.6 2.5.3 3.8 1a7.088 7.088 0 0 0-.3.9Z" opacity=".5"/>
  <path fill="#FEFEFE" d="M5.5 35.9c.067-.2.1-.367.1-.5h.1c.067.067.167.1.3.1h.1l-.1.1v.1c-.067-.067-.133-.1-.2-.1 0 .067.033.1.1.1v.1h-.2v.1h-.2Z"/>
  <path fill="#FEFEFE" fill-rule="evenodd" d="M6.2 35.9c0 .067-.033.133-.1.2-.067 0-.1-.033-.1-.1h-.1l.2-.4v-.1c.133.067.233.1.3.1.067 0 .1.033.1.1.067 0 .1.033.1.1l-.1.1v.3c-.067-.067-.133-.1-.2-.1v-.2h-.1Zm0-.2v.1h.2v-.1h-.2Z" clip-rule="evenodd"/>
  <path fill="#FEFEFE" fill-rule="evenodd" d="M7 36.2c-.067-.067-.167-.1-.3-.1v.1h-.2v-.1l.4-.4h.2c0 .2.033.367.1.5v.1c-.067-.067-.133-.1-.2-.1Zm-.2-.2H7c-.067 0-.1-.033-.1-.1 0 .067-.033.1-.1.1Z" clip-rule="evenodd"/>
  <path fill="#FEFEFE" d="M7.4 36.1c0 .067.033.1.1.1h.1v-.1h-.1V36h.3v.1c-.067.067-.1.133-.1.2h-.3c-.067 0-.133-.033-.2-.1V36c0-.066.033-.133.1-.2s.167-.067.3 0h.2v.2h-.1v-.1h-.3v.2Z"/>
  <path fill="#FEFEFE" d="m7.7 36.3.2-.4v-.1c0 .067.033.1.1.1-.067.133-.1.3-.1.5-.067 0-.133-.033-.2-.1Z"/>
  <path fill="#FEFEFE" d="M8.1 36.3h.3v.1l-.1.1a.887.887 0 0 0-.4-.1c.067-.2.1-.367.1-.5h.2a.887.887 0 0 1-.1.4Zm.5-.1c-.067.067-.1.133-.1.2h-.1v-.1c.067 0 .1-.033.1-.1V36c.067 0 .1.033.1.1v.1Zm-.1.2v.1h-.1v-.1h.1Z"/>
  <path stroke="#78469B" stroke-linecap="round" stroke-linejoin="round" stroke-width=".4" d="M5.5 33.5s.8-1.8.9-2.2c0-.4.1-2.7 2-1.7 2 1 .4 2.8.4 2.8s-1.2 1.7-1.2 2.2"/>
  <path fill="#78469B" stroke="#78469B" stroke-width=".4" d="m5.6 34.2-.6-.3.6-1.4.6.2-.6 1.5Z"/>
  <path fill="#33469C" stroke="#78469B" stroke-width=".4" d="m5.6 33.9-.4-.2.4-1 .5.2-.5 1Z"/>
  <path fill="#78469B" stroke="#78469B" stroke-width=".4" d="m7.7 35.1-.6-.3.6-1.4.6.2-.6 1.5Z"/>
  <path fill="#33469C" stroke="#78469B" stroke-width=".4" d="m7.7 34.8-.5-.2.5-1 .4.2-.4 1Z"/>
  <path fill="#33469C" d="M1.1 34.5H.9l.1-.3.2.1-.1.2Z"/>
  <path fill="#33469C" d="M1 34.5H.9l-.4.3.1.2.4-.5Z"/>
  <path fill="#FECF1B" stroke="#F48125" stroke-width=".4" d="M5.7 35.2c-.1.3-.4.4-.7.3-.2-.2-.3-.5-.2-.7.1-.3.4-.4.7-.3.2.1.3.4.2.7Z"/>
  <path fill="#F37523" stroke="#F48125" stroke-width=".4" d="m5.4 35.4-.6-.2.3-.6.6.2-.3.6Z"/>
  <path stroke="#2C4265" stroke-linecap="round" stroke-linejoin="round" stroke-width=".4" d="M5 33.5s.7-1.7.8-2.1c0-.4-.1-2.5 2-1.5 2 1 .5 2.6.5 2.6s-1.2 1.6-1.2 2.1"/>
  <path stroke="#0A7857" stroke-linecap="round" stroke-linejoin="round" stroke-width=".4" d="M5.2 33.6s.7-1.8.7-2.1c.1-.4 0-2.5 2-1.5s.5 2.6.5 2.6-1.1 1.5-1.2 2"/>
  <path stroke="#32BBA4" stroke-linecap="round" stroke-linejoin="round" stroke-width=".4" d="M5.7 33.6s.8-1.9.8-2.3c.1-.4.1-2.6 2.1-1.6s.4 2.7.4 2.7-1.2 1.7-1.3 2.3"/>
  <path fill="#B2DFDB" d="M.4 34s2.7-3.6 5.7-2.3l1.4.6s3.2 1.2 2.7 5.4c0 0-.1 1.3-2.4.2-2.4-1-5.9-2.6-5.9-2.6S.1 34.7.4 34Z"/>
  <path fill="url(#c)" d="M.4 34s2.7-3.6 5.7-2.3l1.4.6s3.2 1.2 2.7 5.4c0 0-.1 1.3-2.4.2-2.4-1-5.9-2.6-5.9-2.6S.1 34.7.4 34Z" style="mix-blend-mode:multiply"/>
  <path stroke="#050505" stroke-width=".4" d="M1.1 34.3s2.5-3.6 5.4-2.4" opacity=".3" style="mix-blend-mode:multiply"/>
  <path fill="#80C9A0" d="M1.8 34.6s2.5-3.7 5.1-2.6l1.2.6s2.8 1 2.1 5.1c0 0-.1 1.3-2.2.4-2-.9-5-2.3-5-2.3s-1.5-.5-1.2-1.2Z"/>
  <path fill="url(#d)" d="M2.2 34.6c-.3.7 1.1 1.1 1.1 1.1s1.1.5 2.3 1c.3-.6.6-1.5 1.1-2.3-.4-.2-.9-.3-1.3-.5-.3-.1-.7-.1-.8-.1-.4-.1-1.3-.1-1.5-.2-.5.5-.9 1-.9 1Zm.9-1c.2.1 1.1.1 1.5.2.1 0 .5 0 .8.1.4.2.9.3 1.3.5.3-.6.7-1.2 1-1.8a3.902 3.902 0 0 1-.8-.3c-.8-.4-1.6-.2-2.3.1-.6.3-1.1.8-1.5 1.2Zm2.5 3.1c.8.4 1.6.7 2.3 1.1 1.9.8 2-.4 2-.4a17.4 17.4 0 0 0 .1-1.7c-.2-.6-.8-.3-1.8-.7-.4-.2-.9-.4-1.2-.5-.1 0-.2 0-.3-.1-.5.8-.8 1.7-1.1 2.3Zm1.1-2.3c.1.1.2.1.3.1.3.1.8.3 1.2.5 1 .4 1.6.1 1.8.7a3.574 3.574 0 0 0-.3-.9c-.5-1.6-1.7-2-1.7-2a1.161 1.161 0 0 1-.3-.2c-.3.6-.7 1.2-1 1.8Z" style="mix-blend-mode:multiply"/>
  <path fill="#ED2545" d="M8.8 36.9c-1.3-.6-2.5-.2-3.8-1a3.57 3.57 0 0 0 .3-.9c1.3.6 2.5.3 3.8 1a7.088 7.088 0 0 0-.3.9Z" opacity=".5"/>
  <path fill="#FEFEFE" d="M5.5 35.9c.067-.2.1-.367.1-.5h.1c.067.067.167.1.3.1h.1l-.1.1v.1c-.067-.067-.133-.1-.2-.1 0 .067.033.1.1.1v.1h-.2v.1h-.2Z"/>
  <path fill="#FEFEFE" fill-rule="evenodd" d="M6.2 35.9c0 .067-.033.133-.1.2-.067 0-.1-.033-.1-.1h-.1l.2-.4v-.1c.133.067.233.1.3.1.067 0 .1.033.1.1.067 0 .1.033.1.1l-.1.1v.3c-.067-.067-.133-.1-.2-.1v-.2h-.1Zm0-.2v.1h.2v-.1h-.2Z" clip-rule="evenodd"/>
  <path fill="#FEFEFE" fill-rule="evenodd" d="M7 36.2c-.067-.067-.167-.1-.3-.1v.1h-.2v-.1l.4-.4h.2c0 .2.033.367.1.5v.1c-.067-.067-.133-.1-.2-.1Zm-.2-.2H7c-.067 0-.1-.033-.1-.1 0 .067-.033.1-.1.1Z" clip-rule="evenodd"/>
  <path fill="#FEFEFE" d="M7.4 36.1c0 .067.033.1.1.1h.1v-.1h-.1V36h.3v.1c-.067.067-.1.133-.1.2h-.3c-.067 0-.133-.033-.2-.1V36c0-.066.033-.133.1-.2s.167-.067.3 0h.2v.2h-.1v-.1h-.3v.2Z"/>
  <path fill="#FEFEFE" d="m7.7 36.3.2-.4v-.1c0 .067.033.1.1.1-.067.133-.1.3-.1.5-.067 0-.133-.033-.2-.1Z"/>
  <path fill="#FEFEFE" d="M8.1 36.3h.3v.1l-.1.1a.887.887 0 0 0-.4-.1c.067-.2.1-.367.1-.5h.2a.887.887 0 0 1-.1.4Zm.5-.1c-.067.067-.1.133-.1.2h-.1v-.1c.067 0 .1-.033.1-.1V36c.067 0 .1.033.1.1v.1Zm-.1.2v.1h-.1v-.1h.1Z"/>
  <path stroke="#78C7A4" stroke-linecap="round" stroke-linejoin="round" stroke-width=".4" d="M5.5 33.5s.8-1.8.9-2.2c0-.4.1-2.7 2-1.7 2 1 .4 2.8.4 2.8s-1.2 1.7-1.2 2.2"/>
  <path fill="#996B74" d="m5.6 34.2-.6-.3.6-1.4.6.2-.6 1.5Z"/>
  <path fill="#29B6A4" stroke="#78469B" stroke-width=".4" d="m5.6 33.9-.4-.2.4-1 .5.2-.5 1Z"/>
  <path fill="#996B74" d="m7.7 35.1-.6-.3.6-1.4.6.2-.6 1.5Z"/>
  <path fill="#29B6A4" stroke="#78469B" stroke-width=".4" d="m7.7 34.8-.5-.2.5-1 .4.2-.4 1Z"/>
  <path fill="#33469C" d="M1.1 34.5H.9l.1-.3.2.1-.1.2Z"/>
  <path fill="#33469C" d="M1 34.5H.9l-.4.3.1.2.4-.5Z"/>
  <path fill="#FECF1B" stroke="#F48125" stroke-width=".4" d="M5.7 35.2c-.1.3-.4.4-.7.3-.2-.2-.3-.5-.2-.7.1-.3.4-.4.7-.3.2.1.3.4.2.7Z"/>
  <path fill="#F37523" stroke="#F48125" stroke-width=".4" d="m5.4 35.4-.6-.2.3-.6.6.2-.3.6Z"/>
  <path fill="#070709" d="m20.3 10.2.4.3c.067.133.033.167-.1.1l-.1-.1c-.1 0-.2-.1-.3-.1 0 0-.2-.1 0-.4l.2-.3c0-.133.033-.133.1 0l-.2.5Zm2.3-4.5c-.067 0-.067-.033 0-.1v-.2c.1-.1.1-.2.2-.3 0 0 .1-.2.4 0l.3.2c.067 0 .067.033 0 .1l-.9.3Z"/>
  <path fill="#701511" d="m29.9 9.6-.3-.8c0-.1-.1-.2-.2-.3l-6.3-3.4h-.2l2.2 5.4 4.7-.7c.1 0 .1-.1.1-.2Z"/>
  <path fill="#57130B" d="m22.8 5.2-2.5 4.7c0 .1-.1.3 0 .4l.3.7c0 .1.1.2.2.2l4.3-.7-2.2-5.4-.1.1Z"/>
  <path fill="#811517" d="M27.4 14.6c-.1.1-.2.1-.3.1l-6.3-3.4c-.1 0-.2-.2-.1-.2l2.5-4.8c.1-.1.2-.1.3 0l6.3 3.3c.1.1.1.2.1.3l-2.5 4.7Z"/>
  <path fill="#822F19" d="M27.3 14.3c-.1.1-.2.2-.2.1L21 11.2c-.1 0-.1-.1 0-.2l2.3-4.4c0-.1.1-.1.2-.1l6.1 3.2c0 .1.1.2 0 .3l-2.3 4.3Z"/>
  <path fill="#82481D" d="M27.2 14.1c0 .1-.1.1-.2.1l-5.8-3.1s-.1-.1 0-.2l2.1-4.1c.1-.1.2-.1.3-.1l5.8 3.1c0 .1.1.2 0 .2l-2.2 4.1Z"/>
  <g opacity=".5">
    <path fill="#E2E44C" d="M26.1 10.1c-.4.8-1.3 1.1-2.1.7-.7-.4-1-1.4-.6-2.1.4-.8 1.3-1.1 2.1-.7.8.4 1.1 1.4.6 2.1Z"/>
    <path fill="#050505" d="m24.3 9.3-.3-.2.5-.8.3.2-.5.8Zm1.1.5-.3-.1.4-.8.3.1-.4.8Zm-1.8-.5s.3 1.5 2.1 1Z"/>
  </g>
  <path stroke="#070709" stroke-width=".4" d="m20.5 10.3 2.6-4.7L29.5 9"/>
  <path stroke="#461114" stroke-width=".4" d="M23.1 5.6 29.5 9"/>
  <path fill="#070709" d="m26 7-.4-.2c-.3-.1-.5-.3-.4-.3 0 0 .2 0 .4.2.3.1.5.2.4.3Zm2 1s-.2 0-.5-.2c-.2-.1-.4-.2-.4-.3.1 0 .3.1.5.2s.4.3.4.3Z"/>
  <path fill="#070709" d="M25.3 6.6s.3-.7 1-.3l.8.4-.1.3-.7-.4s-.4-.1-.6.2l-.4-.2Z"/>
  <path fill="#070709" d="M27.8 7.9s.4-.6-.3-1l-.9-.5-.1.3.7.4s.3.2.1.6l.5.2Z"/>
  <path fill="#1B0C0F" d="M25.4 6.7s.3-.7 1-.4l.8.5-.1.2-.7-.4s-.4-.1-.6.3l-.4-.2Z"/>
  <path fill="#1B0C0F" d="M27.8 8s.5-.7-.2-1l-.9-.5-.2.2.8.4s.3.3.1.6l.4.3Z"/>
  <path fill="#070709" d="M23 6.7c-.067 0-.1-.033-.1-.1l.1-.1c.1-.1.1-.3.2-.3 0 0 .1-.2.4 0l.3.1c.067.066.033.133-.1.2l-.8.2Zm6.6 3.5c.067.134.1.134.1 0l.1-.1c.1-.1.1-.2.2-.3 0 0 .1-.2-.3-.4l-.3-.1c-.067-.067-.1-.033-.1.1l.3.8Z"/>
  <path fill="#070709" d="M23 6.7c-.067 0-.1-.033-.1-.1l.1-.1c.1-.1.1-.3.2-.3 0 0 .1-.2.4 0l.3.1c.067.066.033.133-.1.2l-.8.2Zm6.6 3.5c.067.134.1.134.1 0l.1-.1c.1-.1.1-.2.2-.3 0 0 .1-.2-.3-.4l-.3-.1c-.067-.067-.1-.033-.1.1l.3.8Zm-2.1 3.9c.133 0 .167.034.1.1l-.1.2s-.1.2-.1.3c0 0-.1.1-.4 0l-.3-.2c-.067-.067-.067-.1 0-.1l.8-.3Zm-6.6-3.5c0-.066-.033-.066-.1 0l-.1.1c0 .1-.1.3-.1.4 0 0-.1.1.2.3l.3.2c.133 0 .167-.033.1-.1l-.3-.9ZM23 5.2l-.4.5c-.067 0-.067-.033 0-.1v-.2c.1-.1.1-.2.2-.3 0 0 .1-.2.4 0l.3.2c.067 0 .067.033 0 .1l-.5-.2ZM29.7 9l-.1-.2-.5-.4c0-.067.033-.1.1-.1l.2.1.1.1s.3.1.3.2m-5.4-2.4c.067.067.033.1-.1.1l-.1-.1s-.2-.1-.2-.2l-.1-.2c-.067-.067-.067-.067 0 0h.1c.1.1.2.2.3.2l.1.2Z"/>
  <path fill="#1B0C0F" d="M24.5 6.3c0 .133-.033.167-.1.1l-.1-.1c-.1 0-.2-.1-.2-.2l-.2-.2c0-.067.034-.067.1 0h.1l.2.2.2.2Z"/>
  <path fill="#8A3825" d="M24.3 6.2c.067.067.067.1 0 .1l-.2-.2c-.067-.067-.067-.1 0-.1.1 0 .2.1.2.2Z"/>
  <path fill="#070709" d="M29.1 8.8c.067.133.033.167-.1.1v-.1c-.1 0-.2-.1-.3-.2l-.1-.2c-.067-.067-.067-.067 0 0h.1c.1.1.2.2.3.2l.1.2Z"/>
  <path fill="#1B0C0F" d="M29.2 8.9c0 .067-.033.067-.1 0H29c-.1-.1-.2-.2-.2-.3l-.2-.2c0-.067.033-.067.1 0h.1c.1.1.2.2.2.3l.2.2Z"/>
  <path fill="#8A3825" d="M29 8.7c.067.067.067.1 0 .1-.1-.1-.2-.1-.2-.2-.067-.067-.067-.1 0-.1.1 0 .2.1.2.2Z"/>
  <path fill="#070709" d="M11.3 43.4c.067.067.033.067-.1 0h-.1c0-.1-.2-.2-.2-.2l-.1-.2c-.067-.133-.067-.167 0-.1h.1l.3.3.1.2Z"/>
  <path fill="#1B0C0F" d="M11.4 43.4c0 .067-.033.067-.1 0h-.1l-.2-.2-.2-.2c0-.133.033-.167.1-.1l.1.1c.1 0 .2.1.2.2l.2.2Z"/>
  <path fill="#8A3825" d="M11.2 43.2c.067.067.067.1 0 .1-.1 0-.2-.1-.2-.2-.067-.067-.067-.1 0-.1l.2.2Z"/>
  <path fill="#FBE109" d="M5.8 8.4c-.2-.1-.4-.3-.3-.5 0-.2.3-.3.5-.3.2.1.3.3.3.5-.1.2-.3.4-.5.3Z"/>
  <path fill="#FBE109" d="M5.8 8.4c-.2-.1-.4-.3-.3-.5 0-.2.3-.3.5-.3.2.1.3.3.3.5-.1.2-.3.4-.5.3Z"/>
  <path fill="#5D463C" d="M8.6 6.6s.8 1.1.7 2.4c-.1 1.4-.3 1.9-.4 2.1-.1.2-.4.6-.4.6h-1l-1.2-.4s.1-1.8.5-2.7c.4-.8 1-2 1.2-2.1.2-.2.6.1.6.1Z"/>
  <path stroke="#050505" stroke-linecap="round" stroke-linejoin="round" stroke-width=".4" d="M8.6 6.6s.8 1.1.7 2.4c-.1 1.4-.3 1.9-.4 2.1-.1.2-.4.6-.4.6h-1l-1.2-.4s.1-1.8.5-2.7c.4-.8 1-2 1.2-2.1.2-.2.6.1.6.1Z"/>
  <g opacity=".3" style="mix-blend-mode:multiply">
    <mask id="e" width="4" height="7" x="6" y="6" maskUnits="userSpaceOnUse" style="mask-type:luminance">
      <path fill="#fff" d="m6.11 11.34 2.51.7L9.97 7.2l-2.5-.7-1.36 4.84Z"/>
    </mask>
    <g mask="url(#e)">
      <path fill="#050505" d="M8 6.7S6.9 8.8 6.8 9c-.1.2-.6 2.2-.4 2.3.2.1.7.3 1 .4h1.1c.1 0 .3-.5.3-.6-.1.1-.3.3-.5.2-.2-.1-.2-.3-.3-.3-.3-.1-.3.2-.5.2-.6.2-.6-.8-.5-1.1.1-.5 1-3.4 1-3.4Z"/>
      <path stroke="#050505" stroke-linecap="round" stroke-linejoin="round" stroke-width=".4" d="M8 6.7S6.9 8.8 6.8 9c-.1.2-.6 2.2-.4 2.3.2.1.7.3 1 .4h1.1c.1 0 .3-.5.3-.6-.1.1-.3.3-.5.2-.2-.1-.2-.3-.3-.3-.3-.1-.3.2-.5.2-.6.2-.6-.8-.5-1.1.1-.5 1-3.4 1-3.4Z"/>
    </g>
  </g>
  <g opacity=".2" style="mix-blend-mode:multiply">
    <mask id="f" width="3" height="4" x="7" y="6" maskUnits="userSpaceOnUse" style="mask-type:luminance">
      <path fill="#fff" d="m7.32 8.71 1.27.35.63-2.24-1.27-.35-.63 2.24Z"/>
    </mask>
    <g mask="url(#f)">
      <path fill="#B9BBC7" d="M8 6.6s-.1.9-.1 1.2v1l.6.1s-.1-.9-.1-1.2c0-.4.1-1 .1-1L8 6.6Z"/>
      <path stroke="#050505" stroke-width=".4" d="M8 6.6s-.1.9-.1 1.2v1l.6.1s-.1-.9-.1-1.2c0-.4.1-1 .1-1L8 6.6Z"/>
      <path fill="#B9BBC7" d="M8.2 6.7v.9c-.1.4 0 1.2 0 1.2"/>
      <path stroke="#050505" stroke-width=".4" d="M8.2 6.7v.9c-.1.4 0 1.2 0 1.2"/>
    </g>
  </g>
  <path fill="#B9BBC7" d="M8.1 6.5s0 .9-.1 1.2v.9l.7.1s-.2-.8-.1-1.2v-.9l-.5-.1Z"/>
  <path stroke="#050505" stroke-width=".4" d="M8.1 6.5s0 .9-.1 1.2v.9l.7.1s-.2-.8-.1-1.2v-.9l-.5-.1Z"/>
  <path fill="#B9BBC7" d="M8.4 6.5s-.1.6-.1 1v1.2"/>
  <path stroke="#050505" stroke-width=".4" d="M8.4 6.5s-.1.6-.1 1v1.2"/>
  <path fill="#3D2822" d="M7.5 6.4c-.2-.1-.2-.3-.2-.4l.2-.4c.067-.267.1-.433.1-.5-.1-.1-.4-.2-.9-.4-.4-.1-.9-.2-1-.3-.1 0-.2.1-.3.4-.1.2-.1.3-.1.3-.1.2-.3.3-.4.2-.1 0-.2-.2-.2-.3 0 0 .1-.3.3-.5.067-.2.133-.333.2-.4.1-.1.3-.2.5-.2s.8.2 1.3.4c.267.066.5.133.7.2.2.2.4.3.4.5.1.1.1.3-.1.7-.1.3-.2.5-.2.5 0 .1-.2.2-.3.2Z"/>
  <path stroke="#050505" stroke-linecap="round" stroke-linejoin="round" stroke-width=".4" d="M7.5 6.4c-.2-.1-.2-.3-.2-.4l.2-.4c.067-.267.1-.433.1-.5-.1-.1-.4-.2-.9-.4-.4-.1-.9-.2-1-.3-.1 0-.2.1-.3.4-.1.2-.1.3-.1.3-.1.2-.3.3-.4.2-.1 0-.2-.2-.2-.3 0 0 .1-.3.3-.5.067-.2.133-.333.2-.4.1-.1.3-.2.5-.2s.8.2 1.3.4c.267.066.5.133.7.2.2.2.4.3.4.5.1.1.1.3-.1.7-.1.3-.2.5-.2.5 0 .1-.2.2-.3.2Z"/>
  <path fill="#3D2822" d="M3.2 4.8c.2 0 1.8.1 3 .6 1.3.5 2.4 1.2 2.4 1.2s-.5-.2-.6.1c-.2.2-.9 1.5-1.2 2.3-.1.3-.3 1.1-.4 1.6-.1.3 0 .7 0 .7s-1.3-.1-2.9-.8C1.9 9.8.9 9.5.9 9.3c0-.2.1-1.7.7-2.6.7-1 1.4-1.9 1.6-1.9Z"/>
  <path stroke="#050505" stroke-linecap="round" stroke-linejoin="round" stroke-width=".4" d="M3.2 4.8c.2 0 1.8.1 3 .6 1.3.5 2.4 1.2 2.4 1.2s-.5-.2-.6.1c-.2.2-.9 1.5-1.2 2.3-.1.3-.3 1.1-.4 1.6-.1.3 0 .7 0 .7s-1.3-.1-2.9-.8C1.9 9.8.9 9.5.9 9.3c0-.2.1-1.7.7-2.6.7-1 1.4-1.9 1.6-1.9Z"/>
  <g opacity=".3" style="mix-blend-mode:multiply">
    <mask id="g" width="5" height="7" x="0" y="4" maskUnits="userSpaceOnUse" style="mask-type:luminance">
      <path fill="#fff" d="m.63 9.62 2.1.59 1.41-5.04-2.1-.58L.63 9.62Z"/>
    </mask>
    <g mask="url(#g)">
      <path fill="#050505" d="M3 4.9S1.5 6.8 1.4 7.1c-.2.4-.6 2-.5 2.2.1.1 1.8.9 1.8.9s-1-1-1-1.7c0-.4.1-1.2.6-2.3.3-.6.7-1.3.7-1.3Z"/>
      <path stroke="#050505" stroke-linecap="round" stroke-linejoin="round" stroke-width=".4" d="M3 4.9S1.5 6.8 1.4 7.1c-.2.4-.6 2-.5 2.2.1.1 1.8.9 1.8.9s-1-1-1-1.7c0-.4.1-1.2.6-2.3.3-.6.7-1.3.7-1.3Z"/>
    </g>
  </g>
  <path fill="#3D2822" d="M7.3 6.3c-.2-.1-.2-.2-.2-.4l.2-.4c.067-.2.1-.333.1-.4-.1-.1-.4-.2-.9-.4-.4-.2-.9-.3-1-.3-.1 0-.2.1-.3.3-.1.2-.1.4-.1.4-.1.1-.2.2-.4.2-.1-.1-.2-.2-.2-.4 0 0 .1-.3.3-.5L5 4c.1-.1.3-.2.5-.2.2.1.8.2 1.3.4.267.134.5.233.7.3.3.1.4.2.5.4 0 .1 0 .3-.2.8-.1.2-.2.4-.2.5 0 .1-.2.1-.3.1Z"/>
  <path stroke="#050505" stroke-linecap="round" stroke-linejoin="round" stroke-width=".4" d="M7.3 6.3c-.2-.1-.2-.2-.2-.4l.2-.4c.067-.2.1-.333.1-.4-.1-.1-.4-.2-.9-.4-.4-.2-.9-.3-1-.3-.1 0-.2.1-.3.3-.1.2-.1.4-.1.4-.1.1-.2.2-.4.2-.1-.1-.2-.2-.2-.4 0 0 .1-.3.3-.5L5 4c.1-.1.3-.2.5-.2.2.1.8.2 1.3.4.267.134.5.233.7.3.3.1.4.2.5.4 0 .1 0 .3-.2.8-.1.2-.2.4-.2.5 0 .1-.2.1-.3.1Z"/>
  <path fill="#471F10" d="m19.7 37.9.6.1c.067.133.033.2-.1.2l-.1-.1h-.4s-.2 0-.2-.4l.1-.3c0-.133.033-.133.1 0v.5Zm.5-5.2c-.067.067-.1.067-.1 0v-.2c0-.1.1-.2.1-.3 0 0 0-.2.3-.2l.4.1c.067 0 .067.033 0 .1l-.7.5Z"/>
  <path fill="#DB7327" d="m28.6 33.7-.6-.6c0-.1-.2-.2-.3-.2l-7.3-.8h-.1l4.1 4.3 4.1-2.4c.1-.1.1-.2.1-.3Z"/>
  <path fill="#C37429" d="m20.2 32.3-.6 5.4c0 .1.1.2.1.3l.6.6c.1.1.2.1.3 0l3.8-2.2-4.1-4.3c-.067.067-.1.133-.1.2Z"/>
  <path fill="#BB7429" d="M28.1 39.4c0 .1-.1.2-.2.2l-7.3-.8c-.1 0-.2-.1-.2-.2l.6-5.4c0-.1.1-.2.2-.2l7.3.8c.1 0 .2.1.2.2l-.6 5.4Z"/>
  <path stroke="#471F10" stroke-width=".4" d="m20 38 .6-5.5 7.4.8"/>
  <path stroke="#B42224" stroke-width=".4" d="m20.6 32.5 7.4.8"/>
  <path fill="#471F10" d="M23.9 32.7s-.2.1-.5 0c-.2 0-.5-.1-.5-.1 0-.1.3-.1.5 0 .3 0 .5.1.5.1Zm2.3.3h-.5c-.3-.1-.5-.1-.5-.2h.5c.3 0 .5.1.5.2Z"/>
  <path fill="#471F10" d="M23.1 32.6s0-.7.8-.6l1 .1-.1.2H24s-.3 0-.4.4l-.5-.1Z"/>
  <path fill="#471F10" d="M25.9 32.9s.2-.7-.6-.8l-1-.1-.1.3.9.1s.4.1.3.5h.5Z"/>
  <path fill="#CF2427" d="M23.2 32.6s.1-.7.8-.6l1 .1v.3l-.9-.1s-.3 0-.4.4l-.5-.1Z"/>
  <path fill="#CF2427" d="M26 33s.2-.8-.6-.9l-1-.1-.1.3.9.1s.4.1.3.5l.5.1Z"/>
  <path fill="#471F10" d="M21 33.6c-.067.067-.1.033-.1-.1V33s.1-.2.4-.1h.4c.067 0 .067.034 0 .1l-.7.6Zm7.5.8c.067.133.133.133.2 0v-.5s0-.2-.3-.2l-.4-.1c-.067 0-.067.033 0 .1l.5.7Z"/>
  <path fill="#471F10" d="M21 33.6c-.067.067-.1.033-.1-.1V33s.1-.2.4-.1h.4c.067 0 .067.034 0 .1l-.7.6Zm7.5.8c.067.133.133.133.2 0v-.5s0-.2-.3-.2l-.4-.1c-.067 0-.067.033 0 .1l.5.7Zm-.5 4.5c.133-.067.167-.033.1.1v.5s0 .2-.4.1h-.3c-.133 0-.167-.033-.1-.1l.7-.6Zm-7.5-.8c-.067-.066-.1-.066-.1 0l-.1.2v.3s0 .2.3.3h.4c.133 0 .167-.033.1-.1l-.6-.7Zm-.1-5.9-.2.5c-.067.067-.1.067-.1 0v-.2c0-.1.1-.2.1-.3 0 0 0-.2.3-.2l.4.1c.067 0 .067.033 0 .1h-.5Zm7.8 1-.2-.1-.6-.2c-.067-.067-.033-.1.1-.1h.3s.3 0 .3.2m-5.9-.3c.067.067.033.1-.1.1H22c-.1 0-.2-.1-.3-.1l-.2-.2c-.067-.067-.067-.1 0-.1l.1.1c.1 0 .3 0 .4.1l.2.1Z"/>
  <path fill="#861F19" d="M22.2 32.7c.067.067.067.1 0 .1h-.1c-.1 0-.3-.1-.3-.1l-.2-.2c-.067-.067-.067-.1 0-.1h.1c.1.1.3.1.3.2l.2.1Z"/>
  <path fill="#F59828" d="M22 32.6c.067.067.067.1 0 .1-.1 0-.2-.1-.2-.1-.067-.067-.067-.1 0-.1l.2.1Z"/>
  <path fill="#471F10" d="M27.6 33.3c.067.067.033.1-.1.1h-.1c-.1 0-.2-.1-.3-.1l-.2-.2c-.067-.066-.067-.066 0 0h.1c.1 0 .3 0 .4.1l.2.1Z"/>
  <path fill="#861F19" d="M27.6 33.3c.067.067.067.1 0 .1h-.1c-.1 0-.3-.1-.4-.1l-.2-.2c-.067-.067-.033-.1.1-.1l.1.1c.1 0 .2 0 .3.1l.2.1Z"/>
  <path fill="#F59828" d="M27.4 33.2c.067.067.067.1 0 .1-.1 0-.2 0-.2-.1-.067-.067-.067-.1 0-.1 0 0 .1.1.2.1Z"/>
  <path fill="#102A47" d="M27.5 35.5c.2.5 0 1.1-.5 1.3-.6.2-1.2-.1-1.4-.6-.2-.5.1-1.1.6-1.3.5-.2 1.1 0 1.3.6Z"/>
  <path fill="#DB454A" d="m26.5 35.5.3-.4.1.5.4.2-.4.2v.5l-.4-.3-.4.1.2-.4-.3-.4h.5Z"/>
  <mask id="h" width="4" height="3" x="22" y="34" maskUnits="userSpaceOnUse" style="mask-type:luminance">
    <path fill="#fff" d="m22.22 36.25 3.63-.61-3.54-1.55-.09 2.16Z"/>
  </mask>
  <g mask="url(#h)">
    <path fill="url(#i)" d="m22.6 38.3-1.5-3.8 4.1-1.5 1.4 3.7-4 1.6Z"/>
  </g>
  <g opacity=".3">
    <mask id="j" width="4" height="3" x="22" y="34" maskUnits="userSpaceOnUse" style="mask-type:luminance">
      <path fill="#fff" d="m22.19 35.86 2.83.8.44-1.56-2.83-.8-.44 1.56Z"/>
    </mask>
    <g mask="url(#j)">
      <path fill="#3E6CB4" d="m25.3 35.5-2.7-1.2V36l2.7-.5Z"/>
    </g>
  </g>
  <path fill="#2D3332" d="M13.7 26c0 .1 0 .2-.2.2-.1 0-.2 0-.3-.1 0-.1.1-.2.2-.2.2-.1.3 0 .3.1Zm1.4.2c0 .1-.1.2-.2.2-.2.1-.3 0-.3-.1s0-.2.2-.2c.1-.1.2 0 .3.1Zm8.3-2c0 .1-.1.2-.2.2-.1.1-.3 0-.3-.1s.1-.2.2-.2.3 0 .3.1Z"/>
  <path fill="#874D7D" d="m13.1 21.1-1.1-.5c-.067.067-.067.133 0 .2l1.2 5.1c0 .1.1.1.2.1l1.4.2 7.1-2.2c.1 0 .1-.1.1-.3l-1.1-4.5-7.8 1.9Z"/>
  <path fill="#9B4D7D" d="m20.9 19.2-.1-.2c-.1-.1-.7-.4-.8-.4l-7.9 1.9c-.067 0-.1.033-.1.1l1.1.5 7.8-1.9Z"/>
  <path fill="#2D3332" d="M15.2 20s-.3-.7.5-.9l.9-.2v.2l-.8.2s-.3.2-.2.6l-.4.1Z"/>
  <path fill="#2D3332" d="M17.8 19.3s-.1-.7-.9-.5l-.9.2v.3l.9-.2s.3 0 .4.4l.5-.2Z"/>
  <path fill="#2D3332" d="M15.3 19.9s-.3-.7.5-.8l.9-.3v.3l-.8.2s-.3.1-.2.5l-.4.1Z"/>
  <path fill="#2D3332" d="M17.9 19.3s-.1-.7-.9-.5l-.9.2v.3l.9-.2s.3-.1.4.3l.5-.1Z"/>
  <path fill="#B24D7D" d="M14.9 26.2c-.1 0-.2 0-.3-.2l-2-4.9c0-.1.1-.2.2-.3l7.8-1.9c.2 0 .3.1.3.2l2.4 4.9c0 .1 0 .2-.1.2"/>
  <path stroke="#D88F52" stroke-width=".4" d="M14.9 26.2c-.1 0-.2 0-.3-.2l-2-4.9c0-.1.1-.2.2-.3l7.8-1.9c.2 0 .3.1.3.2l2.4 4.9c0 .1 0 .2-.1.2"/>
  <path fill="#9B4D7D" d="M23 23.8c0 .1 0 .3-.1.3L15.1 26c-.2 0-.3-.1-.3-.2l-1.9-4.6c0-.1.1-.2.2-.2l7.4-1.8c.1 0 .2 0 .3.1l2.2 4.5Z"/>
  <path fill="#99777C" d="M22.7 23.7c0 .1 0 .2-.1.3l-7.4 1.7c-.1 0-.2 0-.2-.1l-1.8-4.3c0-.1.1-.2.2-.2l7-1.7c.1 0 .2.1.2.2l2.1 4.1Z"/>
  <path fill="#2D3332" d="m16.1 26-.4.1-.1-.5.4-.1.1.5Zm6.2-1.5-.4.1-.1-.5.4-.1.1.5Z"/>
  <path fill="#6A3433" d="m16.2 26-.4.1-.1-.6.4-.1.1.6Zm-2.3-5.5-.4.1-.7-.3.4-.1.7.3Zm6-1.4-.4.1-.7-.4.4-.1.7.4ZM14.2 21l-.4.1-.2-.5.4-.1.2.5Zm5.9-1.4-.4.1-.2-.5.4-.1.2.5Z"/>
  <path stroke="#6A3433" stroke-width=".4" d="M15.9 25.5 14 20.9m8 3.1-2.1-4.4"/>
  <path fill="#6A3433" d="m22.4 24.5-.4.1-.1-.5.4-.1.1.5Zm-9 1.4-1.1-5 2 5.1-.9-.1Z"/>
  <path fill="#612C0F" d="M13.3 47.6c-.1-.2-2.8.2-3.2.4-1.2.2-2.8.8-2.9 1.2.4 1.8-.1 5.9 2 6.9.8.1 2.1-.1 2.9-.6.4-.1.8-.2 1.1-.3.6-.2 1-.4 1.5-.8.3-.2.6-.4.6-.8 0-.5-.2-.7-.4-1.1-.4-.9-1.5-4.7-1.6-4.9Z"/>
  <path stroke="#0C0908" stroke-linecap="round" stroke-linejoin="round" stroke-width=".4" d="M13.3 47.6c-.1-.2-2.8.2-3.2.4-1.2.2-2.8.8-2.9 1.2.4 1.8-.1 5.9 2 6.9.8.1 2.1-.1 2.9-.6.4-.1.8-.2 1.1-.3.6-.2 1-.4 1.5-.8.3-.2.6-.4.6-.8 0-.5-.2-.7-.4-1.1-.4-.9-1.5-4.7-1.6-4.9Z"/>
  <g opacity=".2">
    <mask id="k" width="10" height="12" x="7" y="45" maskUnits="userSpaceOnUse" style="mask-type:luminance">
      <path fill="#fff" d="m7.05 54.83 7.41 1.95 2.34-8.89-7.41-1.95-2.34 8.89Z"/>
    </mask>
    <g mask="url(#k)">
      <path fill="#0C0908" d="M15.3 53.6c0-.5-.2-.7-.4-1.1-.4-.9-1.5-4.7-1.6-4.9-.1-.2.2-.5 0-.6-.5-.3-1.7.2-2 .4a5.5 5.5 0 0 0-1.1.5c-.5.1-1.1.4-1.5.8-.4 2.5-.4 7.1 2.2 7.1.333 0 .667-.033 1-.1.067-.067.133-.1.2-.1.4-.2.8-.3 1.1-.4.6-.2 1-.4 1.5-.8.3-.2.6-.4.6-.8Z"/>
    </g>
  </g>
  <g opacity=".2">
    <mask id="l" width="10" height="11" x="7" y="46" maskUnits="userSpaceOnUse" style="mask-type:luminance">
      <path fill="#fff" d="m7.86 54.71 6.68 1.76 2.26-8.58-6.68-1.76-2.26 8.58Z"/>
    </mask>
    <g mask="url(#l)">
      <path fill="#0C0908" d="M13.3 47c-.5-.3-1.7.2-2 .4-.6.3-1.2.6-1.7 1 0 .066-.033.133-.1.2 0 .7.1 1.7.3 2.7 0 .133.033.267.1.4l1.7 3.9c.067.067.133.1.2.1.4-.2 1-.3 1.4-.5.6-.2 1-.4 1.5-.8.3-.2.6-.4.6-.8 0-.5-.2-.7-.4-1.1-.4-.9-1.5-4.7-1.6-4.9-.1-.2.2-.5 0-.6Z"/>
    </g>
  </g>
  <path fill="#2E130C" d="m16.7 53.1-.7.1s.2.1.1.4c-.4.5-1 .5-1 .5l-.8.4c.2.1.7.1 1.3-.1.4-.1.7-.3.8-.5l.1-.1v-.1c.2-.3.2-.6.2-.6Z"/>
  <path stroke="#150D0B" stroke-linejoin="round" stroke-width=".4" d="m16.7 53.1-.7.1s.2.1.1.4c-.4.5-1 .5-1 .5l-.8.4c.2.1.7.1 1.3-.1.4-.1.7-.3.8-.5l.1-.1v-.1c.2-.3.2-.6.2-.6Z"/>
  <path fill="#2E130C" d="M12.4 49.4s1.2 2.2 2.7 2.6c1.2.3 1 1.3 1 1.3l.7-.1s.1-.7-.4-1.3c-.4-.5-.8-.4-1.6-.9-.5-.3-1.6-1.9-1.6-1.9l-.8.3Z"/>
  <path stroke="#150D0B" stroke-linejoin="round" stroke-width=".4" d="M12.4 49.4s1.2 2.2 2.7 2.6c1.2.3 1 1.3 1 1.3l.7-.1s.1-.7-.4-1.3c-.4-.5-.8-.4-1.6-.9-.5-.3-1.6-1.9-1.6-1.9l-.8.3Z"/>
  <path fill="#2E130C" d="M16.6 52.8c.1.4.3.7.5.9.3.2.5.4.4.5-.2.3-.6.2-.8-.1-.3-.3-.5-.7-.7-1l.6-.3Z"/>
  <path stroke="#150D0B" stroke-linejoin="round" stroke-width=".4" d="M16.6 52.8c.1.4.3.7.5.9.3.2.5.4.4.5-.2.3-.6.2-.8-.1-.3-.3-.5-.7-.7-1l.6-.3Z"/>
  <path fill="#767777" d="M16.9 53.2s0-.1-.1-.2c0-.1-.1-.1-.2-.1a1.26 1.26 0 0 0-.5.3H16v.1l.1.1c0 .067.034.1.1.1l.1.1c-.1 0-.1.1-.1.1h-.1c-.067-.066-.1-.133-.1-.2l-.1-.1v-.3c0-.066.034-.1.1-.1.134-.066.3-.133.5-.2l.1-.1c.2-.1.2.1.2.1.1 0 .1.2.2.3 0 0 0 .1-.1.2"/>
  <path stroke="#363637" stroke-linecap="round" stroke-width=".4" d="m16.9 53.2-.1-.2c0-.1-.1-.1-.2-.1a1.26 1.26 0 0 0-.5.3c-.067 0-.1.033-.1.1l.1.2"/>
  <path stroke="#363637" stroke-width=".4" d="M16.3 53.6c-.1 0-.1.1-.2.1-.1-.1-.1-.2-.2-.3v-.3c0-.066.034-.1.1-.1.134-.066.3-.133.5-.2l.1-.1c.2-.1.2.1.2.1.1 0 .1.2.2.3 0 0 0 .1-.1.2"/>
  <path fill="#767777" d="m16.5 53.1-.1-.3c0-.067-.033-.067-.1 0-.067 0-.1.033-.1.1l.1.3h.1l.1-.1Z"/>
  <path stroke="#363637" stroke-linejoin="round" stroke-width=".4" d="m16.5 53.1-.1-.3c0-.067-.033-.067-.1 0-.067 0-.1.033-.1.1l.1.3h.1l.1-.1Z"/>
  <path fill="#150D0B" d="M16.6 53.4v.1h-.1v-.1c.067-.067.1-.067.1 0Zm.2.2-.1.1c-.066-.067-.066-.1 0-.1h.1Z"/>
  <path fill="#2E130C" d="m14.3 54-.7.1s.3.1.2.3c-.5.5-.9.8-.9.8l-.9.4c.3.1.6-.1 1.3-.3.4-.1.6-.4.8-.6h.1v-.1c.1-.3.1-.6.1-.6Z"/>
  <path stroke="#150D0B" stroke-linejoin="round" stroke-width=".4" d="m14.3 54-.7.1s.3.1.2.3c-.5.5-.9.8-.9.8l-.9.4c.3.1.6-.1 1.3-.3.4-.1.6-.4.8-.6h.1v-.1c.1-.3.1-.6.1-.6Z"/>
  <path fill="#2E130C" d="M10.1 50.2s1.1 2.2 2.7 2.7c1.1.3 1 1.2 1 1.2h.7s0-.8-.4-1.3c-.5-.5-.8-.5-1.6-.9-.6-.3-1.6-1.9-1.6-1.9l-.8.2Z"/>
  <path stroke="#150D0B" stroke-linejoin="round" stroke-width=".4" d="M10.1 50.2s1.1 2.2 2.7 2.7c1.1.3 1 1.2 1 1.2h.7s0-.8-.4-1.3c-.5-.5-.8-.5-1.6-.9-.6-.3-1.6-1.9-1.6-1.9l-.8.2Z"/>
  <path fill="#2E130C" d="M14.4 53.9V55c.1.3.2.5 0 .6-.3.1-.5-.1-.6-.5v-1.2h.6Z"/>
  <path stroke="#150D0B" stroke-linejoin="round" stroke-width=".4" d="M14.4 53.9V55c.1.3.2.5 0 .6-.3.1-.5-.1-.6-.5v-1.2h.6Z"/>
  <path fill="#767777" d="M14.4 54.3c.1 0 .1-.1.1-.1v-.1c0-.1 0-.1-.2-.1h-.6v.1c-.067 0-.1.033-.1.1v.2h.1v.1h-.1c-.067-.067-.1-.133-.1-.2v-.4c.067-.067.133-.1.2-.1h.6c.3 0 .3.1.3.2v.3l-.1.1"/>
  <path stroke="#363637" stroke-linecap="round" stroke-width=".4" d="M14.5 54.3v-.2c0-.1 0-.1-.2-.1h-.5c-.067 0-.1.033-.1.1-.1 0 0 .3 0 .3"/>
  <path stroke="#363637" stroke-width=".4" d="M13.7 54.5h-.1c-.1-.1-.1-.2-.1-.3v-.3c.067-.067.133-.1.2-.1h.6c.3 0 .3.1.3.2v.3s0 .1-.1.1"/>
  <path fill="#767777" d="M14.1 54.1v-.4c-.067 0-.1.033-.1.1v.3c0 .067.033.1.1.1v-.1Z"/>
  <path stroke="#363637" stroke-linejoin="round" stroke-width=".4" d="M14.1 54.1v-.4c-.067 0-.1.033-.1.1v.3c0 .067.033.1.1.1v-.1Z"/>
  <path fill="#150D0B" d="M14.1 54.4v.1c-.067 0-.1-.033-.1-.1h.1Zm.1.3H14l.1-.1.1.1Z"/>
  <path fill="#612C0F" d="M8.7 53c.2-.067.433 0 .7.2.2.134.367.333.5.6.5.7.7 1.3.4 1.6-.4.2-1 .1-1.6-.8-.5-.6-.1-1.4 0-1.6Z"/>
  <path stroke="#0C0908" stroke-width=".4" d="M8.7 53c.2-.067.433 0 .7.2.2.134.367.333.5.6.5.7.7 1.3.4 1.6-.4.2-1 .1-1.6-.8-.5-.6-.1-1.4 0-1.6Z"/>
  <path stroke="#0C0908" stroke-linejoin="round" stroke-width=".4" d="M9.2 53.9c.1.3.5.9 1.1 1.3"/>
  <g opacity=".2">
    <mask id="m" width="3" height="3" x="8" y="53" maskUnits="userSpaceOnUse" style="mask-type:luminance">
      <path fill="#fff" d="m8.51 54.81 1.96.52.44-1.69-1.96-.51-.44 1.68Z"/>
    </mask>
    <g mask="url(#m)">
      <path fill="#0C0908" d="M9.3 53.9c-.2-.2-.3-.5-.4-.8.133 0 .3.066.5.2.2.133.367.3.5.5.5.7.6 1.3.6 1.5-.5-.3-.9-.9-1.2-1.4Z"/>
    </g>
  </g>
  <path fill="#612C0F" d="M9.4 54.3c-.4.2-.9.1-1.2.1.1-.3-.2-1.1.4-1.4.3-.1.5 0 .7.2.2.3.3.7.1 1.1Z"/>
  <path stroke="#0C0908" stroke-linejoin="round" stroke-width=".4" d="M9.4 54.3c-.4.2-.9.1-1.2.1.1-.3-.2-1.1.4-1.4.3-.1.5 0 .7.2.2.3.3.7.1 1.1Z"/>
  <path fill="#F5F7F7" d="M8.5 54.2c.1.1.2.1.2 0 .067 0 .1-.033.1-.1-.1-.1-.1-.1-.2-.1-.067.067-.1.133-.1.2Z"/>
  <path stroke="#B1B3B4" stroke-linejoin="round" stroke-width=".4" d="M8.5 54.2c.1.1.2.1.2 0 .067 0 .1-.033.1-.1-.1-.1-.1-.1-.2-.1-.067.067-.1.133-.1.2Z"/>
  <path fill="#0C0908" d="M9.5 48.1c-.1-.1-2.1.7-2.2.9-.3.3 0 .7.1 1.1.1.2 1.3 1.9 1.5 1.3.1-.3.2-1.2.2-1.7.1-.2.2-.8.3-1.1.3-.4.9-.7 1.3-.9l-1.2.4Z"/>
  <path fill="#2E130C" d="M11.6 50.2c.2.4.4.7.5 1 .3.2.5.4.4.5-.2.2-.6.1-.8-.2-.3-.3-.5-.7-.7-1.1.2 0 .6-.2.6-.2Z"/>
  <path stroke="#150D0B" stroke-linejoin="round" stroke-width=".4" d="M11.6 50.2c.2.4.4.7.5 1 .3.2.5.4.4.5-.2.2-.6.1-.8-.2-.3-.3-.5-.7-.7-1.1.2 0 .6-.2.6-.2Z"/>
  <path fill="#0C0908" d="M11.9 51.3c.067 0 .067.033 0 .1-.067 0-.1-.033-.1-.1h.1c0-.067 0-.067 0 0Z"/>
  <path fill="#2E130C" d="M14.2 48.7c.2.4.4.7.6.9.2.3.4.5.3.6-.2.2-.6.1-.8-.2-.2-.3-.5-.7-.6-1.1.1 0 .5-.2.5-.2Z"/>
  <path stroke="#150D0B" stroke-linejoin="round" stroke-width=".4" d="M14.2 48.7c.2.4.4.7.6.9.2.3.4.5.3.6-.2.2-.6.1-.8-.2-.2-.3-.5-.7-.6-1.1.1 0 .5-.2.5-.2Z"/>
  <path fill="#0C0908" d="M14.6 49.8h-.1c0 .067 0 .067 0 0-.067 0-.067 0 0 0 .067-.067.1-.067.1 0Z"/>
  <path fill="#612C0F" d="M9.3 48.8c.9-.3 1.1.6 1.3 1.3 0 .2.033.4.1.6.1.2.1.3.3.3.4 0 .9-.2 1.3-.4.333-.133.7-.3 1.1-.5.4-.2.9-.4 1.2-.8.3-.3-.1-.4-.3-.7-.2-.2-.3-.6-.5-.9-.1-.3-.2-.6-.6-.7-.3-.1-.1-.1-1.7.3-1.6.4-2.2 1.5-2.2 1.5Z"/>
  <path stroke="#0C0908" stroke-width=".4" d="M9.3 48.8c.9-.3 1.1.6 1.3 1.3 0 .2.033.4.1.6.1.2.1.3.3.3.4 0 .9-.2 1.3-.4.333-.133.7-.3 1.1-.5.4-.2.9-.4 1.2-.8.3-.3-.1-.4-.3-.7-.2-.2-.3-.6-.5-.9-.1-.3-.2-.6-.6-.7-.3-.1-.1-.1-1.7.3-1.6.4-2.2 1.5-2.2 1.5Z"/>
  <g opacity=".2">
    <mask id="n" width="7" height="5" x="8" y="47" maskUnits="userSpaceOnUse" style="mask-type:luminance">
      <path fill="#fff" d="m8.87 50.48 5.12 1.35.78-2.98-5.11-1.35-.79 2.98Z"/>
    </mask>
    <g mask="url(#n)">
      <path fill="#0C0908" d="M13.2 49.1c-.6.1-1.4.2-1.9 0-.4-.1-.7-.5-1.1-.6-.2-.1-.4-.1-.7 0-.1.2-.2.3-.2.3.9-.3 1.1.6 1.3 1.3 0 .2.033.4.1.6.1.2.1.3.3.3.4 0 .9-.2 1.3-.4.333-.133.7-.3 1.1-.5.4-.2.9-.4 1.2-.8.2-.3 0-.4-.1-.5-.467.133-.9.233-1.3.3Z"/>
    </g>
  </g>
  <defs>
    <linearGradient id="a" x1="2.2" x2="11.8" y1="30" y2="34.2" gradientUnits="userSpaceOnUse">
      <stop stop-color="#fff"/>
      <stop offset="1"/>
    </linearGradient>
    <linearGradient id="b" x1="2.5" x2="6.8" y1="34.5" y2="34.3" gradientUnits="userSpaceOnUse">
      <stop stop-color="#78469B"/>
      <stop offset="1" stop-color="#B13293"/>
    </linearGradient>
    <linearGradient id="c" x1="2.2" x2="11.8" y1="30" y2="34.2" gradientUnits="userSpaceOnUse">
      <stop stop-color="#fff"/>
      <stop offset="1"/>
    </linearGradient>
    <linearGradient id="d" x1="2.5" x2="9.9" y1="34.4" y2="37.1" gradientUnits="userSpaceOnUse">
      <stop stop-color="#F6F7F8"/>
      <stop offset="1" stop-color="#78469B"/>
    </linearGradient>
    <linearGradient id="i" x1="26.1" x2="25.2" y1="35.5" y2="33" gradientUnits="userSpaceOnUse">
      <stop stop-color="#FEFEFE"/>
      <stop offset="1" stop-color="#F5D20C"/>
    </linearGradient>
  </defs>
</svg>
