<svg xmlns="http://www.w3.org/2000/svg" width="77" height="93" fill="none" viewBox="0 0 77 93">
  <path fill="#050505" d="M65.3 91.2c0 .7-5.6 1.2-12.6 1.2S40 91.9 40 91.2c0-.6 5.7-1.1 12.7-1.1 7 0 12.6.5 12.6 1.1Zm-32.8-.4c0 .7-5.7 1.2-12.7 1.2-7 0-12.7-.5-12.7-1.2 0-.6 5.7-1.1 12.7-1.1 7 0 12.7.5 12.7 1.1Z" opacity=".3"/>
  <path fill="#831618" d="M58.3 71.8s9.6 2.8 8.9 6.4c-.7 3.5-3 9.8-9.8 5.7-6.8-4.2.9-12.1.9-12.1Z"/>
  <path fill="#050505" fill-rule="evenodd" d="M61.5 85.4c-1.267 0-2.666-.467-4.2-1.4-1.666-1-2.6-2.333-2.8-4-.3-2.1.7-4.2 1.6-5.6 1-1.6 2-2.7 2-2.7.067-.067.133-.067.2 0 .4.1 9.8 2.8 9.1 6.5-.3 1.6-1.3 5.6-4.1 6.8-.6.267-1.2.4-1.8.4ZM58.3 72c-.5.6-3.9 4.5-3.5 7.9.2 1.533 1.1 2.8 2.7 3.8 2.2 1.333 4.1 1.667 5.7 1 2.6-1.2 3.5-5 3.8-6.6.6-3.2-7.7-5.8-8.7-6.1Z" clip-rule="evenodd"/>
  <path fill="#050505" d="M55.2 89.8s.4.8-1.1 1.5l7.5.3-.2-1.6-6.2-.2Z"/>
  <path fill="#050505" fill-rule="evenodd" d="m61.6 91.8-7.5-.3c-.067 0-.133-.067-.2-.2 0-.067.033-.134.1-.2.6-.2.967-.467 1.1-.8.1-.3 0-.5 0-.5-.067-.067-.067-.1 0-.1l.1-.1 6.2.2c.133 0 .2.067.2.2l.2 1.6v.1c-.067.066-.133.1-.2.1Zm-6.9-.7 6.7.3-.1-1.2-5.8-.3c0 .133-.033.3-.1.5-.133.267-.367.5-.7.7Z" clip-rule="evenodd"/>
  <path fill="#4E69B1" d="m61.3 84.5.5 5.9-6.8-.1-1.4-5.5"/>
  <path fill="#050505" d="m61.8 90.6-6.8-.1c-.067 0-.1-.033-.1-.1l-1.4-5.6c-.1-.1 0-.2.1-.2s.2 0 .2.1l1.4 5.5 6.4.1-.5-5.7c0-.1.1-.2.2-.2s.2 0 .2.1l.4 5.9v.2h-.1Z"/>
  <path fill="#050505" d="M61.7 89.8s-.3-1.6-1.7-1.7c-1.3-.1-5 .6-5.5.6l-.2-1.6 7.2-.8s0 2.4.2 3.5Z" opacity=".2" style="mix-blend-mode:multiply"/>
  <path fill="#050505" d="M44.8 89.3s.2.7-2 1.5l7.5.3.5-1.6-6-.2Z"/>
  <path fill="#050505" fill-rule="evenodd" d="m50.3 91.2-7.5-.3c-.067 0-.133-.034-.2-.1 0-.067.033-.134.1-.2 1.9-.6 2-1.2 2-1.3-.067-.067-.067-.1 0-.1l.1-.1 6 .2c.067 0 .1.033.1.1.067.067.067.1 0 .1l-.4 1.6c-.067.066-.133.1-.2.1Zm-6.7-.6 6.6.3.3-1.2-5.5-.3c-.1.3-.3.8-1.4 1.2Z" clip-rule="evenodd"/>
  <path fill="#4E69B1" d="m46.2 83.9-1.6 5.4 6.4.7 2.6-5.4"/>
  <path fill="#050505" d="m51 90.2-6.4-.7c-.067 0-.133-.033-.2-.1v-.1l1.6-5.5c.1-.1.2-.1.2-.1.1 0 .2.1.2.2l-1.6 5.3 6.1.6 2.5-5.3c.1-.1.2-.1.3-.1.1 0 .1.2.1.2l-2.7 5.5c0 .066-.033.1-.1.1Z"/>
  <path fill="#050505" d="M51.5 88.9s-1.6 0-2.9-.5c-1.4-.4-3.6-.7-3.6-.7l.8-2.6 6.9 1.2-1.2 2.6Z" opacity=".2" style="mix-blend-mode:multiply"/>
  <path fill="#B3805F" d="M42.9 66.6s-1.7-1.4-1.6-2.9c.1-1.6 3.2-2.9 4-1.2.8 1.6.6 2.6.2 2.9-.4.3-2.6 1.2-2.6 1.2Z"/>
  <path fill="#050505" fill-rule="evenodd" d="M42.9 66.8c-.067 0-.1-.034-.1-.1-.1 0-1.7-1.4-1.6-3 0-1.1 1.1-1.9 2.2-2.1.9-.2 1.7.1 2.1.8.8 1.6.6 2.8.1 3.2-.4.2-2.6 1.1-2.7 1.2Zm1-4.9h-.4c-.9.2-1.9.9-2 1.8-.1 1.3 1.1 2.4 1.4 2.7.7-.3 2.2-.9 2.5-1.1.4-.3.5-1.3-.2-2.7-.3-.6-.9-.7-1.3-.7Z" clip-rule="evenodd"/>
  <path fill="#050505" fill-rule="evenodd" d="M42.4 65c-.5 0-.9-.1-1-.3 0-.1 0-.2.1-.3.1 0 .2 0 .2.1.1.1.4.3 1.1.1.5 0 1.9-.3 1.7-1.3 0-.1.1-.2.2-.2s.1 0 .2.1c.2 1.4-1.5 1.7-2 1.8h-.5Z" clip-rule="evenodd"/>
  <path fill="#B3805F" d="M45.6 63.1c0-.3-.3-.6-.6-.5h-.9c-.3 0-.6.3-.6.6.1.3.3.5.6.5h.6"/>
  <path fill="#050505" d="M44.7 63.9h-.6a.679.679 0 0 1-.5-.2.678.678 0 0 1-.2-.5c0-.2.067-.367.2-.5.133-.2.3-.3.5-.3h.9c.4 0 .7.3.8.7 0 .1-.1.1-.2.2-.1 0-.2-.1-.2-.2 0-.2-.2-.4-.4-.4l-.9.1c-.133 0-.233.033-.3.1-.066.067-.1.166-.1.3 0 .066.033.133.1.2.134.067.233.1.3.1l.6.1c.1 0 .2 0 .2.1s-.1.2-.2.2Z"/>
  <path fill="#050505" d="M44.6 63.7s-1.1.1-1-.5c0-.6-.3-.4-.3-.4s-.4.4-.2 1.1c.3.6 1.5.5 1.5-.2Z" opacity=".1" style="mix-blend-mode:multiply"/>
  <path fill="#050505" d="M44.7 63.8s.2.6-.6 1.1c-.9.5-1.2.7-1.1.9 0 .2.3.5.1.6-.2.2-.9-.1-1.1-.6-.2-.5-.4-1.1-.4-1.1s1.3.4 1.9.1c.6-.3 1.2-1 1.2-1Z" opacity=".1" style="mix-blend-mode:multiply"/>
  <path fill="#F1F1F1" d="M51 77.6c2.3-1.4 1-3.3 1-3.3L46.3 64l-4.8 2.3 6.2 10.9s.9 1.9 3.3.4Z"/>
  <path fill="#050505" fill-rule="evenodd" d="M49.3 78.3c-.2 0-.4-.034-.6-.1-.8-.2-1.1-.9-1.2-1l-6.1-10.8v-.2l.1-.1 4.7-2.2c.1-.1.2 0 .2 0l5.8 10.3c0 .1.5.9.3 1.8-.133.667-.6 1.233-1.4 1.7-.666.4-1.267.6-1.8.6Zm-7.5-11.9 6 10.7s.3.6 1 .8c.6.2 1.3.033 2.1-.5.733-.4 1.167-.9 1.3-1.5.1-.8-.3-1.5-.3-1.5l-5.7-10.1-4.4 2.1Z" clip-rule="evenodd"/>
  <path fill="#050505" d="M46.7 71.6c-1.9-1.4-3-5.3-2.1-5.9.5-.3 1.4-.8 1.9-1.2l5.5 9.8s1.3 1.9-1 3.3c-2.4 1.5-3.3-.4-3.3-.4L45.3 73c1.5-.1 3.1-.2 1.4-1.4Z" opacity=".1" style="mix-blend-mode:multiply"/>
  <path fill="#F1F1F1" d="M54.5 76.3s-2.1-2.4-2.9-2.7c-.8-.2-1.4-.7-2.1.1-.8.9-3.1 3.9-4.6 9.7.3 1.3 1.9 2.1 4.8 2.9 4 1 6.6 1 9.4 1.2 2.8.2 3.6.1 3.5-.3-.2-9.1 1.9-11.9 1.9-11.9l-5.2-.2-4.8 1.2Z"/>
  <path fill="#050505" fill-rule="evenodd" d="M61.2 87.8c-.5 0-1.2 0-2.1-.1-.667-.067-1.3-.1-1.9-.1-2.1-.2-4.4-.3-7.5-1.1-3.2-.9-4.7-1.8-5-3v-.1c1.6-5.9 3.8-8.8 4.7-9.8.7-.7 1.3-.5 1.9-.3l.4.2c.7.2 2.4 2.1 2.8 2.6l4.8-1.1 5.2.1c.067 0 .1.033.1.1.067.066.067.133 0 .2 0 0-2.1 2.9-1.8 11.8 0 .133-.033.233-.1.3-.2.1-.5.3-1.5.3Zm-16.1-4.4c.3 1.1 1.7 1.9 4.7 2.7 3.1.8 5.3 1 7.5 1.1.6.066 1.2.1 1.8.1 2.5.2 3.2.1 3.4 0v-.1c-.3-7.6 1.2-10.8 1.7-11.7l-4.8-.2-4.9 1.2c-.067 0-.1-.033-.1-.1-.6-.7-2.2-2.4-2.8-2.6a.887.887 0 0 0-.4-.1c-.6-.3-1-.4-1.5.1-.9 1-3.1 3.8-4.6 9.6Z" clip-rule="evenodd"/>
  <path fill="#050505" fill-rule="evenodd" d="M59.3 86H59c-1.4-.1-2.3-1.1-2.3-2.5v-1.8h.2l4.2.4c.1 0 .2 0 .2.1v1.6c0 .8-.2 1.4-.6 1.7-.4.4-.9.5-1.4.5ZM57 82.1l.1 1.4c0 1.5 1 2.1 1.9 2.2.6.066 1.067-.067 1.4-.4.333-.334.5-.834.5-1.5v-1.4l-3.9-.3Z" clip-rule="evenodd"/>
  <path fill="#ED3937" d="m56.8 82.7 4.3.3Z"/>
  <path fill="#050505" d="m61.1 83.2-4.3-.4v-.3l4.4.4-.1.3Z"/>
  <path fill="#050505" d="M59.8 86.2s-1.2.3-2.9-.9C55.2 84 55.2 83 55.2 83l1.6.4s.3 2.6 2.6 2.5l.4.3Z" opacity=".1" style="mix-blend-mode:multiply"/>
  <path fill="#8DBEE6" d="M59.7 75s-4.4 1.1-7.1 3.1c0 0-1.1-2.8 0-5.7l7.1 2.6Z"/>
  <path fill="#050505" d="M45.7 82.9c-.2 0-.434-.067-.7-.2-.1 0-.1-.1-.1-.2.1-.1.2-.1.2-.1.9.4 1.2-.1 1.3-.1l.9-2.5-1-.4c-.1-.1-.2-.2-.1-.3 0 0 .1-.1.2-.1l1.2.5c.1 0 .1.1.1.2l-1 2.7s-.3.5-1 .5Z"/>
  <path fill="#050505" d="M47.3 80.6h-.1l-1.3-.5c-.1 0-.1-.1-.1-.2s.1-.1.2-.1l1.3.5c.1 0 .1.1.1.2 0 .067-.033.1-.1.1Z"/>
  <path fill="#050505" d="m58.8 74.2 4.2 1.2-5.4 2 1.9 1.3-7 .4s-.5 1.3-.8 2.4c-.4 1.1.4 1.2 0 1.4-.5.3-.7.7-.9 1.4-.3.7-.4 2.2-.4 2.2l-.5-.5s1.1-4.2 2.1-6.8l-2.8-3.6 1.3-.7L50 73l2.7.2-.4 5.5 6.5-4.5Z" opacity=".1" style="mix-blend-mode:multiply"/>
  <path fill="#050505" d="M53.2 80.2c0 .3-.2.4-.4.4-.3-.1-.5-.3-.4-.5 0-.3.2-.4.4-.4.3.1.4.3.4.5Zm-.5 1.9c0 .2-.2.4-.4.3-.3 0-.5-.2-.4-.5 0-.2.2-.4.4-.3.3 0 .4.2.4.5Zm-.6 1.8c0 .2-.2.4-.5.4-.2-.1-.4-.3-.4-.5 0-.3.2-.4.5-.4.2 0 .4.3.4.5Z"/>
  <path fill="#FEFEFE" d="M52.4 78.4s-1.4 2.8-2.6 7.8Z"/>
  <path fill="#050505" d="M49.8 86.4c-.1 0-.2-.1-.2-.2 1.2-5 2.6-7.8 2.6-7.8 0-.1.1-.2.2-.1.1 0 .2.1.1.2 0 0-1.3 2.8-2.5 7.8-.067.066-.133.1-.2.1Z"/>
  <path fill="#F0F1F1" d="M53.4 73.3s-.5 2.3-1 5.1l-3.2-3.6 2.1.7-2.2-2.9 4.3.7Z"/>
  <path fill="#050505" fill-rule="evenodd" d="M52.4 78.6h-.2l-3.1-3.7c-.067-.067-.1-.134-.1-.2.067-.067.133-.067.2 0l1.6.5-1.8-2.5c-.067-.067-.067-.133 0-.2 0-.067.033-.1.1-.1l4.3.7c.067 0 .1.033.1.1.067 0 .067.033 0 .1 0 0-.4 2.4-1 5.2 0 .067-.033.1-.1.1Zm-2.7-3.4 2.6 2.9c.4-2.2.8-4.1.9-4.7l-3.7-.6 1.9 2.6c.067.067.067.133 0 .2 0 .066-.067.1-.2.1l-1.5-.5Z" clip-rule="evenodd"/>
  <path fill="#F0F1F1" d="M57 73.8s-1.7 1.4-4.6 4.6l5.8-.3-2.1-.8 4.9-.9-4-2.6Z"/>
  <path fill="#050505" fill-rule="evenodd" d="M52.4 78.6c-.067 0-.133-.033-.2-.1v-.2c3-3.2 4.6-4.6 4.7-4.6 0-.067.067-.067.2 0l4 2.5c.067.067.1.133.1.2s-.033.133-.1.2l-4.3.7 1.4.6c.067.067.1.133.1.2s-.033.1-.1.1l-5.8.4Zm4.6-4.5c-.4.3-1.9 1.6-4.2 4.1l4.6-.3-1.3-.5c-.133 0-.2-.033-.2-.1.067-.133.133-.2.2-.2l4.5-.8-3.6-2.2Z" clip-rule="evenodd"/>
  <path fill="#050505" d="M62.6 87.4s-1.7.6-3.2-.3c-1.5-.9 0-.2.9-.7 1-.4.5-1.2.5-1.2s.5-1.1.3-3c0 0-1.5-.6-2.8-1.2-1.2-.5-.7-1.5-.2-1.3.6.2-2.2-1.8-1.2-3.8 1-2.1 3.5-.8 3.5-.8l2.7 5.3-.5 7ZM51.8 74.3s-3.8 1-5.3 4.8c0 0 .5-2.8 1.5-4.1.9-1.3 2-2.3 2-2.3l1.8 1.6Z" opacity=".1" style="mix-blend-mode:multiply"/>
  <path fill="#ED3937" d="M66.9 77.6s-.4 2.8-2.5 4.2c0 0-1.9 1.3-3.5 0-1.5-1.2-2.3-5.8 2.5-8.1s5.1 2 3.5 3.9Z"/>
  <path fill="#050505" fill-rule="evenodd" d="M62.5 82.5c-.5 0-1.1-.1-1.7-.6-.9-.7-1.4-2.2-1.2-3.7.1-1.1.8-3.3 3.7-4.7 2.6-1.2 3.7-.5 4.2.1.8 1.1.5 3-.4 4.1-.1.4-.6 2.9-2.6 4.2 0 .1-.9.6-2 .6Zm3.3-9.3c-.667 0-1.433.2-2.3.6-2.8 1.4-3.4 3.4-3.5 4.5-.2 1.5.4 2.8 1 3.4.5.4 1 .5 1.5.5 1 0 1.8-.5 1.8-.5 2-1.4 2.4-4.1 2.4-4.1.067 0 .1-.033.1-.1.8-.9 1.1-2.7.4-3.7-.333-.4-.8-.6-1.4-.6Z" clip-rule="evenodd"/>
  <path fill="#ED3937" d="M49.9 70s-3.6 1.4-2.9 7.8c0 0 1.5-3.5 5.1-4.7L49.9 70Z"/>
  <path fill="#050505" fill-rule="evenodd" d="M47 78h-.1c-.067 0-.1-.067-.1-.2-.3-3.3.5-5.3 1.3-6.4.8-1.1 1.7-1.5 1.8-1.5.067-.067.133-.067.2 0l2.1 3.1c.067 0 .067.033 0 .1 0 .067-.033.1-.1.1-3.4 1.3-5 4.7-5 4.7 0 .067-.033.1-.1.1Zm2.9-7.7c-.3.1-.9.5-1.6 1.3-.6 1-1.4 2.7-1.2 5.6.6-1 2-3.2 4.7-4.2l-1.9-2.7Z" clip-rule="evenodd"/>
  <path fill="#050505" d="M66.1 72.6s1 1 .9 3.8c0 0-1.5-.2-3.2 1.4-1.6 1.5-3.2 3.1-3.7 2-.5-1.2-.4-1.3-.4-1.3s-4 .3-7.2-1c-3.3-1.3-5.6-2.4-5.4-3.7.3-1.3 1.3-3.2 1.3-3.2l17.7 2Z" opacity=".2" style="mix-blend-mode:multiply"/>
  <path fill="#B3805F" d="M70 68.7c-2.8 6.1-7.9 10.5-16.4 7.4-9.7-3.6-9-9.5-6.2-15.6 2.8-6 10-8.6 16.1-5.8 6.1 2.8 9.3 8 6.5 14Z"/>
  <path fill="#050505" fill-rule="evenodd" d="M58.9 77.3c-1.667 0-3.467-.333-5.4-1-4-1.5-6.5-3.5-7.5-6-.6-1.4-.7-3-.4-4.8.2-1.5.8-3.1 1.6-5 1.4-3 3.9-5.3 6.9-6.4 3.1-1.1 6.5-1 9.4.4 3.2 1.5 5.5 3.5 6.7 5.9 1.3 2.6 1.3 5.5-.1 8.4-1.5 3.4-3.6 5.8-6.1 7.2-1.533.867-3.233 1.3-5.1 1.3Zm-.5-23.6c-4.5 0-8.8 2.6-10.8 6.9-1.9 4.1-2.3 7.1-1.3 9.5 1 2.5 3.4 4.4 7.4 5.8 9 3.4 13.7-2.1 16.1-7.3 1.3-2.8 1.4-5.6.1-8-1.2-2.4-3.4-4.3-6.5-5.8-1.6-.7-3.3-1.1-5-1.1Z" clip-rule="evenodd"/>
  <path fill="#050505" d="m68.6 57.9-1.6-.1s-7.2.6-5.2 3.8c1.9 3.3 1.6 4.5 1.3 5.4-.2 1-1.6.3-1.6.3 4.5 3.8 1.7 7.9-2.5 8.6-3 .5-6.7-.6-8.1-1.1.733.4 1.567.8 2.5 1.2 8.3 3.7 14-1.6 16.8-7.6 1.8-4 1-7.7-1.6-10.5Z" opacity=".1" style="mix-blend-mode:multiply"/>
  <path fill="#050505" d="M69.6 70.7s2.2-.1-.2 2.8c-1.3 1.5-4.1 2.7-4.1 2.7l4.3-5.5ZM52.5 54.4s-4.4.9-7 4.7c-.1.2 1.4-1.1 3.5-1.9m20.9.5s5.6 5.3 1.8 12.5c0 0 .7-5.2-1.8-12.5Z"/>
  <path fill="#050505" d="M65.6 62.7c-.2-.1-1.8 7.1 1.2 8.9 1.7-2.2 1.3-5.1 1.3-5.1.5 2.5-.3 4.7-.8 5.3.5.4 1.9 1.1 2.9 1.3 0 0 7.5-12.5-6.7-19.2 0 0-8.2-4.7-17.3 5.3 0 0 0 .5.6 1.7.5.9 3.7-4.2 4.4-3.5"/>
  <path fill="#050505" d="M61.9 53.3c-1.4-.5-7-2.5-14.2 2.5 0 0 15.6-2 14.2-2.5Z"/>
  <path fill="#050505" d="M53.2 53.1s12.3-4.5 17.9 6.3c5.7 10.9-17.9-6.3-17.9-6.3Zm17.4 19.1s-1 2.4-3 3.7c-2 1.2-2.4 1.2-2.4 1.2s1.1-.7 2.6-3.7"/>
  <path fill="#050505" d="M62.7 54s-6.2-2.6-15.4 4.5c0 0-.1 0 .2.8.3.5.3.5.8.9.8-1 1.6-1.3 4.9-2.2 0 0-3.5 1-4.1 2.7 5.4 3.4 11 1.4 11 1.4-.2-.1-1.7 2.8 2 3.5 1.9-1.5 2.6-3.7 2.6-3.7 0 1.7-.6 2.8-1.7 3.9.4.2 1.7.3 2.5.3 0 0 8.3-8.6-2.8-12.1Z"/>
  <path fill="#050505" d="m66.6 62.3-3 6.4s5.1 4.3-1.8 8.1l6.7-2s5.2-5.3 3.1-11.8c-2-6.6-3.6-3.2-3.6-3.2l-1.4 2.5Zm2.9-4.5s-1-2.8-2.6-4.2c-1.6-1.3-1.8-1.1-1.8-1.1s2.4 1.4 2.9 4.7"/>
  <path fill="#050505" d="M71.6 60.4s-1-1.5.7-2c0 0-1.1-.6-1.5-.1.1-.8.1-2.3-1.9-3.8 0 0 .7 1.9-.7 1.6m-8 7.8c-.067 0-.1-.033-.1-.1-.1-.3-1.3-.5-2.3-.6h-.1c-.1 0-.1-.1-.1-.2s.1-.1.2-.1c.5 0 2.4.2 2.6.8.1.1 0 .2-.1.2h-.1Zm-1.6 2c-.2.5-.7.9-1.1.8-.4-.1-.5-.6-.3-1.2s.7-1 1.1-.9c.4.1.6.7.3 1.3Z"/>
  <path fill="#FEFEFE" d="m58.2 65-.2.2c-.1-.1-.2-.2-.1-.3 0-.1.1-.1.2-.1s.1.1.1.2Z"/>
  <path fill="#050505" d="M49.8 62.8c-.2.6-.6 1-1 1s-.6-.5-.5-1c.2-.6.6-1 1-1s.6.5.5 1Z"/>
  <path fill="#FEFEFE" d="M49.3 62.1c0 .1-.1.2-.2.2s-.1-.1-.1-.2.1-.2.2-.2.1.1.1.2Z"/>
  <path fill="#9A724F" d="M53.3 66.6s-.9.8-1.7.5c-.9-.2-1-1.4-1-1.4s.8.8 1.2.9c.4.1 1.5 0 1.5 0Z"/>
  <path fill="#050505" d="M51.7 66.8c-.2-.1-.5-.2-.6-.3l-.5-.6c0-.1 0-.2.1-.2.1-.1.2-.1.2 0l.5.5c.1.1.4.2.6.2l1.2-.1c.1 0 .2.1.2.2s0 .2-.2.2l-1.2.1h-.3Zm2.8 3.4s-1.9.2-2.8 0c-.9-.2-.8 1.6.3 2.5.8.6 2.3 1.9 5.5 1.3 3.2-.6 3.8-3.8 2.4-4.7-1.5-1.1-3.4.4-5.4.9Z"/>
  <path fill="#050505" d="M60.3 73.6s-1 1.3-3.3 1.2c0 0 2.3 1.1 3.3-1.2Z" opacity=".1" style="mix-blend-mode:multiply"/>
  <path fill="#B3805F" d="M72.4 73.6s2-.8 2.3-2.4c.3-1.5-2.2-3.6-3.5-2.2-1.2 1.3-1.3 2.4-1 2.8.3.3 2.2 1.8 2.2 1.8Z"/>
  <path fill="#050505" fill-rule="evenodd" d="M72.4 73.8h-.1c-.1-.1-1.9-1.5-2.2-1.9-.4-.5-.2-1.7.9-3 .6-.6 1.4-.7 2.3-.3.9.5 1.8 1.6 1.6 2.7-.4 1.6-2.3 2.4-2.4 2.5h-.1Zm-.2-5.1c-.3 0-.6.1-.9.4-1.1 1.2-1.2 2.2-1 2.5.3.3 1.6 1.4 2.2 1.8.3-.2 1.7-1 2-2.2.2-.9-.5-1.8-1.4-2.2-.1-.1-.5-.3-.9-.3Z" clip-rule="evenodd"/>
  <path fill="#050505" d="M71.6 70.4s1 .4 1.1-.2c.1-.6.3-.4.3-.4s.3.5-.1 1.1c-.4.6-1.5.1-1.3-.5Z" opacity=".1" style="mix-blend-mode:multiply"/>
  <path fill="#F1F1F1" d="M63.2 79.7c-1-2.2.7-4.8.7-4.8l6-4.9 3.5 3.9-6.5 5.3s-2.6 2.8-3.7.5Z"/>
  <path fill="#050505" fill-rule="evenodd" d="M64.4 80.8h-.2c-.467-.133-.833-.467-1.1-1-1.1-2.3.6-4.9.7-5l5.9-4.9c.1-.1.2 0 .3 0l3.5 3.9.1.1c0 .067-.033.133-.1.2L67 79.3c-.1.2-1.4 1.5-2.6 1.5Zm-1-1.2c.2.466.467.733.8.8 1.1.2 2.5-1.3 2.6-1.3l6.3-5.2-3.3-3.6L64 75c-.1.3-1.6 2.6-.6 4.6Z" clip-rule="evenodd"/>
  <path fill="#050505" d="m71 72.8-1.7-2.2-5.2 4.3s-1.6 3.8-.9 5c.7 1.2 2.1.5 3.7-.9 1.5-1.5-1.3-1.5-.3-3.1 1-1.7 2.8-2.6 2.8-2.6s.8 1.3 1.3.9c.6-.3.9-.8.3-1.4Z" opacity=".1" style="mix-blend-mode:multiply"/>
  <path fill="#050505" d="M7.3 67c0 1.2 1 2.2 2.2 2.2 1.2 0 2.1-1 2.1-2.2 0-1.2-.9-2.1-2.1-2.1-1.2 0-2.2.9-2.2 2.1Zm19.2.4c0 1.1.9 2 2 2s2-.9 2-2-.9-2-2-2-2 .9-2 2Z"/>
  <path fill="#050505" d="M2.9 64.9c0 1.6 1.3 2.9 2.9 2.9 1.6 0 2.9-1.3 2.9-2.9 0-1.6-1.3-2.9-2.9-2.9-1.6 0-2.9 1.2-2.9 2.9Zm26.6-1.2c-.6 1.6.1 3.4 1.5 3.9 1.5.6 3.2-.3 3.8-1.9.6-1.7-.1-3.4-1.6-4-1.4-.5-3.1.4-3.7 2Z"/>
  <path fill="#050505" d="M3.1 56.9c0 7.4 7.1 13.3 15.8 13.3 8.7 0 15.7-5.9 15.7-13.3.1-7.4-7-13.4-15.7-13.4s-15.8 6-15.8 13.4Z"/>
  <path fill="#3F1D13" d="M28.5 69c-.5 0-1-.2-1.3-.7l.3-.2c.2.3.6.5 1 .5.267 0 .533-.1.8-.3.2-.2.4-.5.5-.8 0-.3-.1-.7-.3-.9l.3-.3c.3.4.4.8.3 1.2 0 .5-.2.9-.6 1.2-.333.2-.667.3-1 .3Zm3.4-1.9c-.467 0-.9-.1-1.3-.3l.2-.4c.5.3 1.1.4 1.7.3.5-.2 1-.5 1.3-1 .5-1 .2-2.3-.8-2.9l.2-.4c1.2.8 1.6 2.3.9 3.5-.3.6-.9 1-1.5 1.1-.267.067-.5.1-.7.1Zm-26.4-.2c-.467 0-.933-.133-1.4-.4l.2-.4c.4.266.8.4 1.2.4.7 0 1.3-.4 1.7-1 .3-.4.3-.9.2-1.5-.1-.5-.5-1-1-1.3l.2-.3c.6.3 1 .9 1.2 1.6.2.6.1 1.2-.3 1.7-.4.7-1.2 1.2-2 1.2Zm4.2 1.8c-.8 0-1.6-.6-1.7-1.4l.3-.1c.2.7.9 1.2 1.7 1.1v.3c-.067.066-.167.1-.3.1Z"/>
  <path fill="#803531" d="M14.2 88.4s-1.1-1.7-.8-3.4c.2-1.6 1.2-2.7 1.5-3.1.9-1.1 2-.9 2.7-.3.7.6 1 1.3 0 2.4-1 1.6-1.4 1.8-.4 3.3.8 1.3-2 3.2-3 1.1Z"/>
  <path fill="#050505" fill-rule="evenodd" d="M15.5 89.5c-.6 0-1.1-.4-1.4-1 0 0-.3-.5-.5-1.1-.3-.6-.5-1.5-.4-2.4.3-1.6 1.2-2.8 1.6-3.2.5-.5 1-.8 1.5-.8.5-.1 1 .1 1.4.5.4.333.633.7.7 1.1.067.466-.133.966-.6 1.5a1.17 1.17 0 0 1-.2.3c-.5.6-.8 1-.8 1.4-.1.4.1.7.5 1.4.2.4.2.8 0 1.2-.3.7-1.1 1.1-1.8 1.1Zm.9-8.2h-.1c-.467 0-.9.233-1.3.7-.3.4-1.3 1.5-1.5 3-.1.8.1 1.7.3 2.3.3.6.5 1.1.5 1.1.4.6.9.8 1.2.8.6 0 1.3-.4 1.6-.9.1-.2.2-.6 0-.9-.5-.8-.7-1.2-.6-1.6.1-.5.4-.9.8-1.6l.2-.2v-.1c.467-.467.667-.9.6-1.3 0-.267-.2-.567-.6-.9-.3-.3-.7-.4-1.1-.4Z" clip-rule="evenodd"/>
  <path fill="#050505" d="M16.4 87.7s-.9-1.4-.5-2.3c.4-1.1-2.6-.7-2.2-1.5.3-.9 1-1.8 1.2-2 .9-1.1 2-.9 2.7-.3.7.6 1 1.3 0 2.4-1 1.6-1.4 1.8-.4 3.3.2.4-.1 1.7-.8.4Z" opacity=".4"/>
  <path fill="#EE4763" d="M18.2 88.7v.2l-5.5 1.8c-.067 0-.133-.034-.2-.1v-.2c-.067-.067-.067-.134 0-.2l5.5-1.8c.067 0 .1.033.1.1l.1.2Z"/>
  <path fill="#050505" fill-rule="evenodd" d="m12.6 90.9-.1-.1c-.067 0-.1-.033-.1-.1l-.1-.3v-.2c.067-.067.133-.1.2-.1l5.5-1.8c.067-.067.1-.067.1 0 .067 0 .133.033.2.1l.1.3c0 .067-.033.133-.1.2 0 .067-.033.1-.1.1l-5.5 1.8c0 .067-.033.1-.1.1Zm0-.5.1.2 5.4-1.9-.1-.2-5.4 1.9Z" clip-rule="evenodd"/>
  <path fill="#EE4763" d="M14.7 87s-.2-.6-.7-.5c-.2.1-.8.3-1 .4-.3.1.1.4.2.6.2.2.4.5.3.8l-.3 1 .8.1.9-1.5-.2-.9Z"/>
  <path fill="#050505" fill-rule="evenodd" d="M14 89.5h-.1l-.7-.1h-.1c-.067-.067-.067-.1 0-.1l.2-1c.1-.2-.1-.6-.2-.7 0-.067-.033-.1-.1-.1-.1-.2-.3-.4-.2-.6 0 0 0-.1.2-.2.067 0 .133-.034.2-.1.3-.1.6-.2.8-.2.4-.2.7.3.8.6l.3.8c0 .067-.033.1-.1.1l-.9 1.5-.1.1Zm-.6-.3h.5l.9-1.4-.2-.8c-.1 0-.2-.4-.5-.3-.2 0-.5.1-.8.2-.067.067-.133.1-.2.1H13c0 .1.2.2.2.3.067 0 .1.033.1.1.2.2.4.6.3 1l-.2.8Z" clip-rule="evenodd"/>
  <path fill="#F69226" d="M18 88.4s-.3-1-.4-1.3c-.1-.3-.3-.4-.6-.3-.3.1-.5.5-1.3.4-.6 0-.7-.2-1-.2-.3 0-.3.1-.3.4l.1.6-.8 1.3.2.5 4.1-1.4Z"/>
  <path fill="#050505" fill-rule="evenodd" d="M13.9 89.9c-.067 0-.1-.034-.1-.1l-.2-.4v-.2l.7-1.2v-.6c0-.2 0-.3.1-.5.1-.1.2-.1.3 0h.4c.1.1.3.1.7.2.4 0 .6-.1.8-.2.133-.067.233-.134.3-.2.4-.1.7 0 .8.4l.4 1.2c.067.066.067.133 0 .2H18l-4.1 1.4Zm0-.6.1.3 3.8-1.3-.4-1.1c-.067-.2-.2-.267-.4-.2-.067 0-.133.033-.2.1-.2.1-.5.3-1.1.3-.3-.1-.5-.1-.7-.2-.133 0-.233-.034-.3-.1-.067 0-.1.033-.1.1v.9l-.7 1.2Z" clip-rule="evenodd"/>
  <path fill="#FEFEFE" d="M12.5 90.2c0-.2.5-.8.7-.9.6-.2 1.3.3 1.3.3l-2 .6Z"/>
  <path fill="#050505" fill-rule="evenodd" d="m12.5 90.4-.1-.1c-.1-.2.1-.5.2-.7.1-.1.3-.4.6-.4.7-.3 1.3.2 1.3.3.067 0 .1.033.1.1 0 .066-.033.1-.1.1l-1.9.7h-.1Zm1-1h-.3c0 .1-.2.2-.3.4l-.2.2 1.4-.5c-.1 0-.3-.1-.6-.1Z" clip-rule="evenodd"/>
  <path fill="#050505" d="M13.4 88.3c-.067 0-.1-.034-.1-.1-.067 0-.067-.034 0-.1.3-.3 1.2-.4 1.6-.1v.1c-.067.066-.133.066-.2 0-.3-.2-1 0-1.3.2Z"/>
  <path fill="#050505" d="M13.3 88.7h-.1c-.066-.067-.066-.133 0-.2.2-.2 1-.4 1.4-.1.067.067.067.133 0 .2h-.1c-.4-.2-1-.1-1.2.1Z"/>
  <path fill="#050505" d="M13.1 89.1H13c0-.067.033-.133.1-.2.2-.2.8-.3 1.2-.1.067.067.067.133 0 .2 0 .067-.033.067-.1 0-.3-.2-.8 0-1 .1h-.1Z"/>
  <path fill="#EE4763" d="M16 87.8c-.4.2-.7.3-.9.6l-.6 1.2.6-.2.5-.8c.067-.134.233-.267.5-.4.2 0 1.7-.5 1.7-.5l-.2-.4s-1.4.5-1.6.5Z"/>
  <path fill="#050505" fill-rule="evenodd" d="M14.5 89.7h-.1c-.067-.067-.067-.133 0-.2l.7-1.1c.2-.4.4-.5.9-.7l1.6-.5c0-.067.033-.067.1 0l.2.5c0 .067-.033.1-.1.1l-1.6.6c-.333.067-.5.167-.5.3l-.5.7v.1l-.7.2Zm1.5-1.8c-.4.2-.6.3-.8.6l-.5.9.4-.1.4-.7c.067-.2.267-.367.6-.5l1.5-.5-.1-.2-1.5.5Z" clip-rule="evenodd"/>
  <path fill="#803531" d="M25 89.3s-.4-4-.4-5.1c0-1.3-.9-1.9-1.9-1.9-.9 0-1.6.5-1.6 2s.3 5 .3 5c0 2.2 3.8 2.2 3.6 0Z"/>
  <path fill="#050505" fill-rule="evenodd" d="M23.3 91.1c-.4 0-.767-.067-1.1-.2-.6-.4-.9-.9-.9-1.6 0-.1-.3-3.6-.3-5 0-.733.167-1.3.5-1.7.267-.334.667-.5 1.2-.5.6 0 1.1.2 1.4.5.4.4.6 1 .6 1.6 0 1.1.4 5.1.4 5.1.1.6-.1 1.2-.6 1.5-.4.2-.8.3-1.2.3Zm-.6-8.7c-.4 0-.733.133-1 .4-.267.333-.4.833-.4 1.5 0 1.4.3 5 .3 5 0 .6.2 1 .7 1.3.6.3 1.5.3 2 0 .3-.2.6-.6.6-1.3-.1-.2-.5-4-.5-5.1 0-1.3-.9-1.8-1.7-1.8Z" clip-rule="evenodd"/>
  <path fill="#050505" d="M22.4 89.2c.2 1.2 2 1.8 1 1.7-1 0-2-.5-2-1.6 0 0-.3-3.5-.3-5s.7-2 1.6-2c1 0 1.9.6 1.9 1.9 0 1.1-2.3.7-2.3 1.7 0 .4-.1 2.5.1 3.3Z" opacity=".4"/>
  <path fill="#803531" d="M25 89.3c.2.4.4 1.3 1.7 1.8h-5.3v-1.8"/>
  <path fill="#050505" d="M26.7 91.2h-5.4v-1.9c0-.1 0-.1.1-.1s.2.1.2.1v1.6h4.5c-.8-.5-1.1-1.1-1.2-1.5-.1-.1 0-.2 0-.2.1-.1.2 0 .2.1h.1c.1.4.4 1.2 1.5 1.6.067.066.1.133.1.2 0 .066-.033.1-.1.1Z"/>
  <path fill="#050505" d="M22.4 89.3c0 .7 0 1.3 1.2 1.8h-2.2v-1.8" opacity=".4"/>
  <path fill="#EE4963" d="M21 91c0 .067.033.1.1.1h5.8c.067 0 .1-.033.1-.1v-.3c0-.067-.033-.1-.1-.1h-5.8c-.067 0-.1.033-.1.1v.3Z"/>
  <path fill="#050505" fill-rule="evenodd" d="M26.9 91.3h-5.8c-.1 0-.3-.1-.3-.3v-.3c0-.1.2-.2.3-.2h5.8c.1 0 .2.1.2.2v.3c0 .2-.1.3-.2.3Zm-5.8-.3h5.7v-.2h-5.7v.2Z" clip-rule="evenodd"/>
  <path fill="#EE4963" d="M23.8 88.3s0-.7.5-.7h1c.4 0 .1.4 0 .6-.1.3-.1.7.1.9l.5.9-.7.3-1.4-1.2v-.8Z"/>
  <path fill="#050505" fill-rule="evenodd" d="M25.2 90.4h-.1l-1.3-1.2c-.067 0-.1-.034-.1-.1l-.1-.8v-.1c0-.2.2-.8.7-.8h1c.2 0 .3.1.3.2.1.1 0 .4-.1.6v.1c-.1.2-.2.5 0 .7l.5.9c.067 0 .1.033.1.1l-.1.1-.7.3h-.1ZM24 89.1l1.2 1 .5-.2-.5-.7c-.2-.3-.1-.8 0-1 0-.067.033-.133.1-.2 0 0 .1-.2.1-.3h-1.1c-.3 0-.4.5-.4.6l.1.8Z" clip-rule="evenodd"/>
  <path fill="#F69226" d="M21.1 90.6v-1.3c0-.3.2-.5.5-.5s.6.3 1.3 0c.5-.3.6-.4.9-.5.3-.2.3 0 .4.3l.1.6 1.1.9v.5h-4.3Z"/>
  <path fill="#050505" fill-rule="evenodd" d="M25.4 90.8h-4.3c-.1 0-.2-.1-.2-.2v-1.3c0-.4.3-.6.7-.6h.3c.2.1.5.1.9-.1.3-.1.5-.2.6-.3a1.15 1.15 0 0 1 .3-.2c.1 0 .2-.1.4 0 .1.1.1.2.2.4l.1.6 1.1.9.1.1v.5c0 .1-.1.2-.2.2Zm-4.2-.3h4.1v-.3l-1.1-.9v-.1l-.2-.6c0-.1 0-.2-.1-.2 0-.067-.033-.067-.1 0-.067 0-.133.033-.2.1-.2.1-.3.3-.7.4-.5.2-.8.2-1.1.1h-.2c-.267 0-.4.1-.4.3v1.2Z" clip-rule="evenodd"/>
  <path fill="#EE4963" d="M22.8 89.4c.5 0 .7.1 1 .3l1 .9h-.7l-.6-.5c-.133-.134-.367-.2-.7-.2h-1.7v-.5h1.7Z"/>
  <path fill="#050505" fill-rule="evenodd" d="M24.8 90.8h-.7l-.1-.1-.6-.5c-.1-.1-.2-.2-.6-.2h-1.7c-.1 0-.2 0-.2-.1v-.5c0-.1.1-.1.2-.1h1.7c.5 0 .8.1 1.1.3l1 .9c.067.067.1.133.1.2-.067.066-.133.1-.2.1Zm-.6-.3h.2l-.7-.7c-.2-.2-.5-.2-.9-.2h-1.6v.1h1.6c.4 0 .667.067.8.2l.6.6Z" clip-rule="evenodd"/>
  <path fill="#FEFEFE" d="M26.9 90.6c0-.2-.7-.6-1-.6-.6 0-1.1.6-1.1.6h2.1Z"/>
  <path fill="#050505" fill-rule="evenodd" d="M26.9 90.8h-2.1c-.067 0-.1-.034-.1-.1v-.2s.5-.7 1.2-.7c.3 0 .6.2.7.3.2.1.4.3.4.5 0 .1-.1.2-.1.2Zm-1.8-.3h1.5l-.2-.2c-.2-.1-.4-.2-.5-.2-.3 0-.6.2-.8.4Z" clip-rule="evenodd"/>
  <path fill="#050505" d="M24 89.4c-.067-.067-.1-.134-.1-.2.3-.4 1.2-.5 1.6-.4v.2c0 .067-.033.067-.1 0-.3 0-1 0-1.3.3 0 .066-.033.1-.1.1Z"/>
  <path fill="#050505" d="M24.4 89.7c-.067-.067-.1-.133-.1-.2.3-.4 1.1-.4 1.4-.3.067 0 .1.033.1.1-.067.066-.133.1-.2.1-.2-.1-.9 0-1.1.3h-.1Z"/>
  <path fill="#050505" d="M24.8 90.1V90c-.067 0-.1-.034-.1-.1.3-.4.9-.5 1.2-.4.067.067.1.133.1.2 0 .066-.033.1-.1.1-.2-.1-.7-.1-1 .2 0 .067-.033.1-.1.1Z"/>
  <path fill="#803531" d="M7.3 75.2c2.2 1.1 3.9 1.6 5.4 1 1.3-.6 2.1-1.7 2.7-3.5.9-2.6-2.8-3.8-3.6-1.2-.6 1.2-1 1.3-2.4.4-.6-.4-1.8-.4-2.5.8-.6 1.1-.1 2.2.4 2.5Z"/>
  <path fill="#050505" fill-rule="evenodd" d="M11.4 76.6c-.4 0-.8-.033-1.2-.1-.8-.2-1.7-.6-2.9-1.2-.3-.2-.6-.5-.7-1-.2-.5-.1-1.1.2-1.7.4-.7 1-.9 1.4-1 .4-.1.9-.1 1.2.2.8.4 1.2.6 1.5.5.3 0 .5-.3.7-.8.2-.466.434-.833.7-1.1.267-.2.567-.367.9-.5.7-.1 1.5.1 2 .7.267.266.434.567.5.9.067.4.034.833-.1 1.3-.8 1.9-1.6 3-2.9 3.5-.4.2-.833.3-1.3.3Zm-2.8-4.8a.887.887 0 0 0-.4.1c-.3.1-.8.3-1.1.9-.3.4-.4 1-.2 1.4.1.5.3.7.5.8 1.7.9 2.9 1.3 3.9 1.3.467 0 .9-.067 1.3-.2 1.2-.5 2-1.6 2.7-3.4.2-.8.1-1.4-.3-1.9s-1.1-.7-1.7-.6c-.7.2-1.2.6-1.4 1.4-.3.5-.5.9-.9 1-.5.1-1-.1-1.7-.6-.2-.1-.4-.2-.7-.2Z" clip-rule="evenodd"/>
  <path fill="#050505" d="M7.3 75.2c2.2 1.1 3.9 1.6 5.4 1 1.3-.6 2.1-1.7 2.7-3.5.9-2.6-2.8-3.8-3.6-1.2.5-1.3 3.3-.9 2.6 1-.2.6-1.2 2.5-2.1 2.8-.8.3-2.3.1-3.5-.4-.6-.2-1.6.2-1.5.3Z" opacity=".4"/>
  <path fill="#803531" d="M31.3 67.2c0 2.5-.4 4.3-1.6 5.2-1.1.9-2.5 1.1-4.4.8-2.7-.5-2-4.3.7-3.8 1.3.1 1.6-.3 1.4-1.9 0-.7.6-1.7 1.9-1.8 1.3 0 2 1 2 1.5Z"/>
  <path fill="#050505" fill-rule="evenodd" d="M26.7 73.5c-.4 0-.867-.033-1.4-.1-.7-.2-1.2-.5-1.5-1-.3-.4-.4-.9-.3-1.5.1-.5.3-1 .8-1.3.4-.3 1-.4 1.7-.3.6 0 .9-.1 1.1-.3.2-.2.3-.6.2-1.5 0-.4.1-.9.5-1.2.2-.3.7-.7 1.5-.7.6 0 1.2.2 1.6.6.3.3.5.7.5 1 0 1.4-.1 2.4-.3 3.2-.267.933-.7 1.633-1.3 2.1-.8.7-1.8 1-3.1 1Zm-1.4-.4c.533.066 1 .1 1.4.1 1.3 0 2.2-.3 2.9-.9 1.1-.8 1.5-2.3 1.6-5.1 0-.2-.2-.5-.5-.8-.3-.4-.8-.6-1.4-.5-.7 0-1.1.3-1.3.6-.3.3-.4.7-.4.9.1.9 0 1.5-.3 1.8-.3.3-.7.4-1.3.4-1.3-.3-2.1.5-2.3 1.4-.1.8.3 1.8 1.6 2.1Z" clip-rule="evenodd"/>
  <path fill="#050505" d="M31.3 67.2c0 2.5-.4 4.3-1.6 5.2-1.1.9-2.5 1.1-4.4.8-2.7-.5-2-4.3.7-3.8-.5.8-1.2 2.5.8 2.7.6.1 1.6.2 2.3-.5.6-.5 1.2-1.9 1.3-3.2.1-.6.9-1.4.9-1.2Z" opacity=".4"/>
  <path fill="#F69226" d="M19.9 83c6.1-.5 6.2-1.7 6.4-4.2 0-2-1.1-7.1-1.7-8.7-.9-2.6-3-3.4-6-3.2-2.9.2-4.9 1.4-5.4 4.1-.3 1.6-.6 6.9-.2 8.9.2.7 1.2 3.6 6.9 3.1Z"/>
  <path fill="#050505" fill-rule="evenodd" d="M18.8 83.2c-.867 0-1.667-.067-2.4-.2-.8-.2-1.5-.533-2.1-1-1.1-.8-1.4-1.8-1.4-2.1-.4-2-.1-7.4.2-8.9.4-2.6 2.2-4 5.5-4.2 3.3-.3 5.3.8 6.2 3.2.5 1.5 1.7 6.8 1.6 8.8 0 .7-.1 1.2-.2 1.7s-.4.9-.8 1.3c-.9.7-2.5 1.1-5.5 1.4h-1.1Zm1.1-.3c1.5-.1 2.7-.3 3.5-.5.8-.2 1.4-.467 1.8-.8.8-.7.8-1.5.9-2.8 0-.9-.2-2.5-.6-4.5-.3-1.6-.7-3.4-1-4.2-.8-2.3-2.7-3.3-5.9-3.1-3.1.3-4.8 1.6-5.2 4-.2.9-.3 2.6-.4 4.3-.1 2.1 0 3.7.2 4.5 0 .3.3 1.2 1.3 2 1.2.933 3 1.3 5.4 1.1Z" clip-rule="evenodd"/>
  <path fill="#EE4963" d="M23.2 74.7c.4-2 .9-4.4.2-7.1l-1.5.4c.7 2.4.2 4.6-.2 6.3l1.5.4Z"/>
  <path fill="#050505" fill-rule="evenodd" d="M23.2 74.8h-.1l-1.4-.3c-.1 0-.2-.1-.2-.2h.1c.3-1.8.8-3.9.2-6.3 0-.1 0-.2.1-.2l1.5-.4h.1v.1c.4 1.3.5 2.5.4 3.9-.1 1.2-.3 2.2-.6 3.3 0 .066-.033.1-.1.1Zm-1.3-.6 1.2.3c.4-1.8.9-4.2.2-6.8l-1.2.4c.6 2.3.1 4.4-.2 6.1Z" clip-rule="evenodd"/>
  <path fill="#EE4763" d="m19.9 83.1.8 1.8c4.8-.5 6.4-1.3 6.4-1.3s-.3-2.9-.6-4.9c-.3.2-1.7.5-1.7.5l-2-4.9s-2 .7-3.5.8c-1.5.2-3.6-.2-3.6-.2l-1.2 5.2s-1.4-.1-1.7-.3c0 2-.2 3.9-.2 3.9s1.6.9 6.3 1.6l1-2.2Z"/>
  <path fill="#050505" fill-rule="evenodd" d="M18.9 85.4c-2.5-.3-4.1-.7-5-1-1-.3-1.4-.5-1.4-.6-.067 0-.1-.034-.1-.1 0 0 .2-1.9.2-3.9l.1-.1h.1c.3.1 1.2.2 1.6.2l1.1-5c.066-.067.133-.1.2-.1 0 0 2.1.3 3.6.2 1.4-.1 3.5-.8 3.5-.8.067 0 .133.033.2.1l1.9 4.8c.4-.1 1.3-.4 1.5-.5h.1c.067 0 .1.033.1.1.4 2 .6 4.8.6 4.8v.2c-.1 0-.5.2-1.5.5-.9.2-2.5.6-5 .9-.067 0-.1-.033-.1-.1l-.7-1.5-.9 1.8c0 .067-.033.1-.1.1Zm-6.2-1.8c.2.1.6.3 1.3.5.9.3 2.4.7 4.8 1l1-2 .1-.1c.067 0 .133.033.2.1l.7 1.7c2.4-.3 3.9-.6 4.8-.9.8-.2 1.2-.4 1.3-.4 0-.5-.2-2.8-.5-4.6-.5.2-1.5.5-1.6.5-.067 0-.1-.034-.1-.1l-1.9-4.8c-.5.2-2.2.7-3.5.8-1.3.1-3-.1-3.5-.2l-1.1 5c-.067.066-.133.1-.2.1-.1 0-1.1-.1-1.6-.2 0 1.7-.1 3.2-.2 3.6Z" clip-rule="evenodd"/>
  <path fill="#050505" d="m19.9 83.1.8 1.8c.333 0 .633-.034.9-.1 0 0-1-2.2-1.7-2.1-.7 0-1.9 2.4-1.9 2.4.267.066.567.133.9.2l1-2.2Zm-7.1-3.3c0 2-.2 3.9-.2 3.9s.4.3 1.5.6c-.5-.7-.7-1.5-.5-4.4l-.8-.1Z" opacity=".4"/>
  <path fill="#6ECFF5" d="M18.8 84.8h-.1c-.133-.067-.3-.1-.5-.1-.067-.067-.1-.133-.1-.2s.066-.1.2-.1c.133.067.3.1.5.1.066.067.1.133.1.2l-.1.1Zm-1.1-.3c-.2 0-.4-.033-.6-.1-.067 0-.1-.033-.1-.1.067-.067.133-.1.2-.1.133.067.3.1.5.1.067.067.1.133.1.2h-.1Zm-1.1-.2c-.2 0-.367-.033-.5-.1-.067 0-.1-.034-.1-.1 0-.067.033-.1.1-.1.2 0 .366.033.5.1.066 0 .1.033.1.1s-.034.1-.1.1Zm-1-.2h-.1a3.881 3.881 0 0 0-.5-.2c-.067 0-.1-.033-.1-.1.066-.067.133-.1.2-.1.133.067.3.133.5.2.066 0 .1.033.1.1l-.1.1Zm-1.1-.3-.6-.2c-.067 0-.067-.033 0-.1 0-.067.033-.1.1-.1.2.067.367.133.5.2.066 0 .1.033.1.1s-.034.1-.1.1Zm-1-.3h-.1l-.5-.2c-.067-.067-.1-.133-.1-.2.066-.067.133-.067.2 0l.5.2c.066 0 .1.033.1.1l-.1.1Z"/>
  <path fill="#050505" d="M26.5 78.7c.3 2 .6 4.9.6 4.9s-.5.2-1.6.5c.5-.7.9-2.3.2-5.1l.8-.3Z" opacity=".4"/>
  <path fill="#6ECFF5" d="M20.9 84.4c-.067 0-.133-.034-.2-.1 0-.067.033-.1.1-.1.2-.067.4-.1.6-.1.067 0 .1.033.1.1 0 .066-.033.1-.1.1-.2.067-.367.1-.5.1Zm1-.2c-.067 0-.1-.034-.1-.1 0-.067.033-.1.1-.1.2 0 .4-.033.6-.1.067 0 .1.033.1.1s-.033.1-.1.1c-.2.066-.367.1-.5.1h-.1ZM23 84h-.1c0-.067.033-.133.1-.2.2 0 .367-.034.5-.1.067 0 .133.033.2.1 0 .067-.033.1-.1.1-.2.067-.4.1-.6.1Zm1.1-.2c-.067 0-.1-.034-.1-.1 0-.067.033-.1.1-.1.133-.067.3-.1.5-.1.067 0 .1.033.1.1 0 .066-.033.1-.1.1-.133.066-.3.1-.5.1Zm1.1-.2c-.067 0-.133-.033-.2-.1 0-.067.033-.1.1-.1.2-.067.367-.134.5-.2.133 0 .2.033.2.1s-.033.1-.1.1a3.86 3.86 0 0 1-.5.2Zm1-.3c-.067 0-.1-.034-.1-.1 0-.067.033-.1.1-.1l.5-.2c.067 0 .1.033.1.1.067.067.067.1 0 .1l-.6.2Z"/>
  <path fill="#803531" d="M22.4 68.7c.2 2-1.3 3.7-3.3 3.9-2 .2-3.8-1.3-3.9-3.3-.2-2.1 1.3-3.8 3.3-4 2-.1 3.8 1.4 3.9 3.4Z"/>
  <path fill="#050505" fill-rule="evenodd" d="M18.8 72.8c-.9 0-1.8-.4-2.5-1s-1.2-1.5-1.3-2.5c-.1-1 .3-2 .9-2.8.7-.8 1.6-1.2 2.6-1.3 1-.1 2 .2 2.8.9.7.6 1.2 1.5 1.3 2.6.1 1-.3 1.9-.9 2.7-.7.8-1.6 1.3-2.6 1.3-.133.067-.233.1-.3.1Zm0-7.3h-.3c-1.9.1-3.3 1.8-3.2 3.7.2 2 1.9 3.4 3.8 3.2 1.9-.1 3.3-1.8 3.2-3.7-.2-1.8-1.7-3.2-3.5-3.2Z" clip-rule="evenodd"/>
  <path fill="#EE4963" d="M15.4 75.3c-.8-1.9-1.7-4.2-1.4-7l1.5.2c-.2 2.5.6 4.6 1.3 6.2l-1.4.6Z"/>
  <path fill="#050505" fill-rule="evenodd" d="m15.4 75.5-.1-.1c-.5-1.1-.8-2.1-1.1-3.2-.3-1.4-.4-2.6-.3-3.9 0-.1.1-.1.1-.1l1.6.1s.1.1.1.2c-.3 2.4.6 4.5 1.2 6.1v.1c.1.1 0 .1 0 .2l-1.4.5-.1.1Zm-1.2-7c-.3 2.7.6 4.9 1.3 6.6l1.1-.4c-.6-1.7-1.4-3.7-1.2-6.1l-1.2-.1Z" clip-rule="evenodd"/>
  <path fill="#6ECFF5" d="M15.1 75.1c.1.5.5.9 1.1.9.5-.1.9-.5.9-1.1-.1-.5-.5-.9-1.1-.8-.5 0-.9.5-.9 1Z"/>
  <path fill="#050505" fill-rule="evenodd" d="M16.1 76.1c-.267 0-.5-.067-.7-.2a.951.951 0 0 1-.4-.8c0-.267.1-.533.3-.8.2-.2.433-.333.7-.4.6 0 1.2.4 1.2 1 .1.6-.4 1.2-1 1.2h-.1Zm0-1.9H16c-.2 0-.367.1-.5.3-.133.133-.2.333-.2.6 0 .4.4.8.9.7.4 0 .8-.4.7-.8 0-.5-.4-.8-.8-.8Z" clip-rule="evenodd"/>
  <path fill="#6ECFF5" d="M23.4 74.4c0 .6-.4 1-.9 1.1-.5 0-1-.4-1-.9-.1-.5.3-1 .8-1.1.6 0 1 .4 1.1.9Z"/>
  <path fill="#050505" fill-rule="evenodd" d="M22.4 75.6c-.5 0-1-.4-1.1-1 0-.6.4-1.1 1-1.2.333 0 .6.1.8.3.266.2.4.433.4.7.1.6-.4 1.2-1 1.2h-.1Zm0-1.9c-.5 0-.8.4-.8.9 0 .4.4.8.9.7.4 0 .8-.4.7-.9a.68.68 0 0 0-.2-.5c-.2-.133-.4-.2-.6-.2Z" clip-rule="evenodd"/>
  <path fill="#050505" d="M23.2 75.1c-.4.4-1 .5-1.4.1 0 0 .7.1 1-.3.4-.4.3-1.1.3-1.1.4.3.4.9.1 1.3Zm-7.7.7c.4.3 1 .3 1.3-.2 0 0-.6.2-1.1-.2-.4-.3-.3-1-.3-1-.4.4-.3 1 .1 1.4Z" opacity=".4"/>
  <path fill="#6ECFF5" d="M15.6 80.4v-.1h-.3c-.067-.067-.1-.134-.1-.2l.1-.2c0-.067.033-.1.1-.1s.1.033.1.1v.2h.1c.067.066.1.133.1.2l-.1.1Zm0-1h-.1c-.067 0-.1-.034-.1-.1l.2-.7c0-.067.033-.1.1-.1.067.067.1.133.1.2l-.1.6-.1.1Zm.2-1.3c-.067 0-.1-.033-.1-.1l.2-.6c0-.067.033-.1.1-.1s.1.033.1.1l-.1.7h-.2Zm.3-1.2c-.067 0-.1-.034-.1-.1l.1-.3c0-.067.033-.1.1-.1h.3c.067 0 .1.033.1.1s-.033.1-.1.1h-.2l-.1.2c0 .067-.033.1-.1.1Zm.9-.3c-.067 0-.1-.033-.1-.1s.033-.133.1-.2h.5c.067 0 .1.033.1.1s-.034.1-.1.1l-.5.1Zm1.1-.1c-.067 0-.133-.033-.2-.1 0-.067.033-.134.1-.2h.6c.067 0 .1.033.1.1s-.033.1-.1.1l-.5.1Zm1-.1c-.067 0-.1-.034-.1-.1 0-.067.033-.1.1-.1l.5-.1c.067 0 .133.033.2.1 0 .066-.033.1-.1.1l-.6.1Zm1.1-.1c-.067 0-.1-.034-.1-.1 0-.067.033-.1.1-.1l.5-.1c.067 0 .1.033.1.1 0 .066-.033.133-.1.2h-.5Zm1-.1c-.067 0-.1-.034-.1-.1 0-.067.033-.1.1-.1l.6-.1c.067 0 .1.066.1.2 0 .066-.033.1-.1.1h-.6Zm1.5.2c-.067 0-.1-.034-.1-.1l-.1-.2h-.2c-.067 0-.1-.033-.1-.1s.033-.1.1-.1h.3c.067 0 .1.033.1.1l.1.2c0 .066-.033.133-.1.2Zm.9 2.3h-.1l-.2-.6c0-.067.033-.133.1-.2.067 0 .1.033.1.1l.3.6c0 .066-.033.1-.1.1h-.1Zm-.4-1.1c-.067 0-.1-.033-.1-.1l-.3-.6c0-.067.033-.134.1-.2.067 0 .1.033.1.1l.3.6c0 .067-.033.1-.1.1v.1Zm.5 2.1-.1-.1c0-.067.033-.1.1-.1l.1-.1v-.3c.066 0 .133.033.2.1l.1.2c0 .067-.034.133-.1.2l-.2.1h-.1Zm-3.9 1.7-.3-.1c-.067 0-.1-.034-.1-.1 0-.067.033-.1.1-.1h.5c.067-.067.133-.067.2 0 0 .066-.033.133-.1.2l-.3.1Zm-.8-.2h-.1l-.5-.2c-.067 0-.1-.033-.1-.1s.033-.1.1-.1l.6.2c.067 0 .1.033.1.1l-.1.1Zm1.6-.2h-.1c-.067-.067-.067-.133 0-.2l.6-.2c.067 0 .1.033.1.1v.1l-.6.2Zm-2.8-.1-.5-.1c-.067-.067-.1-.134-.1-.2 0-.067.033-.1.1-.1l.6.2c.067 0 .1.033.1.1-.067.067-.133.1-.2.1Zm-1.1-.3-.6-.1c-.067 0-.067-.067 0-.2 0-.067.033-.067.1 0l.6.1c.067 0 .067.033 0 .1 0 .067-.033.1-.1.1Zm4.9 0-.1-.1c0-.067.033-.1.1-.1l.5-.2c.067-.067.133-.067.2 0 0 .066-.033.133-.1.2l-.5.2h-.1Zm1.1-.5h-.1c-.067-.067-.067-.133 0-.2l.6-.2c.067 0 .1.033.1.1.067.067.067.1 0 .1l-.6.2Z"/>
  <path fill="#050505" d="M19 72c1.8-.1 2.7-.5 3.7-1.2.9-.5 1.4-.1 1.7 1.1.4 1.4 1.6 6.4.9 6.6-.4.1-1.6-3.2-2.1-3.4l1.6 4.1 1.5-.4c0-2-1.1-7.1-1.7-8.7-.9-2.6-3-3.4-6-3.2-2.9.2-4.9 1.4-5.4 4.1-.3 1.6-.6 6.9-.2 8.9l1.5.2 1-4.3c-.5.2-1.2 3.7-1.6 3.6-.7 0-.3-5.2-.2-6.6.1-1.2.6-1.7 1.5-1.3 1.2.4 2.1.7 3.8.5Z" opacity=".4"/>
  <path fill="#803531" d="M30 59.7c0 6.3-3.2 11.1-11.1 11.4-7.8.4-11.2-5.1-11.2-11.4 0-6.3 5-11.4 11.2-11.4C25 48.3 30 53.4 30 59.7Z"/>
  <path fill="#050505" fill-rule="evenodd" d="M18.2 71.3c-1.467 0-2.767-.2-3.9-.6-1.333-.467-2.467-1.134-3.4-2-1.133-1.067-1.967-2.4-2.5-4-.533-1.534-.8-3.2-.8-5 0-1.534.3-3.034.9-4.5.533-1.334 1.333-2.534 2.4-3.6 1-1.067 2.2-1.9 3.6-2.5 1.4-.6 2.867-.9 4.4-.9 1.533 0 3 .3 4.4.9a12.06 12.06 0 0 1 3.6 2.5c1 1.066 1.8 2.266 2.4 3.6.6 1.466.9 2.966.9 4.5 0 1.666-.233 3.166-.7 4.5a9.603 9.603 0 0 1-2 3.6c-.933 1-2.1 1.8-3.5 2.4-1.467.666-3.167 1.033-5.1 1.1h-.7Zm.7-22.8c-3 0-5.7 1.2-7.8 3.3-2.1 2.1-3.2 4.9-3.2 7.9 0 3.7 1.1 6.8 3.2 8.7 1.9 1.9 4.5 2.7 7.8 2.6 7.1-.3 11-4.3 11-11.3 0-6.2-5-11.2-11-11.2Z" clip-rule="evenodd"/>
  <path fill="#050505" d="m28 59.6-.3.8s1.5 9.9-9.5 10.8c-.1 0 .1-.2.6-.1h.1C26.8 70.8 30 66 30 59.7c0-1.7-.3-3.3-1-4.7-.5 1.1-1 4.6-1 4.6Z" opacity=".4"/>
  <path fill="#FEFEFE" d="M16.9 63.4s-.7-3.1-4.8-2c0 0 0 2.5 2.2 2.7 2.1.3 2.6-.7 2.6-.7Zm4.3.3s.5-3.2 4.6-2.3c0 0 .2 2.5-1.9 2.8-2.1.4-2.7-.5-2.7-.5Z"/>
  <path fill="#050505" d="M20.5 64.8s-.5.9-1.5.9c-.9 0-1.6-1.1-1.6-1.1s1.1.6 1.6.6c.4 0 1.5-.4 1.5-.4Zm-11-19.7c0 1.6 1.4 2.9 3.1 2.9 1.7 0 3.1-1.3 3.1-2.9 0-1.7-1.4-3-3.1-3-1.7 0-3.1 1.3-3.1 3Zm14.2 0c0 1.4 1.1 2.4 2.4 2.4 1.3 0 2.4-1.1 2.4-2.4-.1-1.3-1.1-2.4-2.4-2.4-1.4.1-2.4 1.1-2.4 2.4Z"/>
  <path fill="#050505" d="M4.8 48.1c0 2 1.6 3.6 3.6 3.6s3.6-1.6 3.6-3.6-1.6-3.6-3.6-3.6-3.6 1.6-3.6 3.6Zm25.1 3.7c0 2.1 1.7 3.7 3.7 3.7s3.7-1.6 3.7-3.7c0-2-1.7-3.6-3.7-3.6s-3.7 1.6-3.7 3.6Zm-15.4-7.3c0 2.5 2.4 4.5 5.4 4.5 2.9 0 5.3-2 5.3-4.5S22.8 40 19.9 40c-3 0-5.4 2-5.4 4.5Z"/>
  <path fill="#050505" d="M26.3 47.5c0 1.9 1.6 3.5 3.5 3.5 2 0 3.6-1.6 3.6-3.5 0-2-1.6-3.6-3.6-3.6-1.9 0-3.5 1.6-3.5 3.6Zm3.9 10.7c0 2.2 1.6 3.9 3.7 3.9 2 0 3.7-1.7 3.7-3.9s-1.7-4-3.7-4c-2.1 0-3.7 1.8-3.7 4ZM0 58.9C0 61.2 1.7 63 3.7 63s3.7-1.8 3.7-4.1-1.7-4.1-3.7-4.1S0 56.6 0 58.9Z"/>
  <path fill="#050505" d="M1.5 52c0 1.9 1.5 3.4 3.4 3.4s3.4-1.5 3.4-3.3c0-1.9-1.5-3.4-3.4-3.4S1.5 50.2 1.5 52Zm15.3 1.6c0 1.5 1.3 2.7 2.7 2.7 1.5 0 2.7-1.2 2.7-2.7 0-1.5-1.2-2.7-2.7-2.7-1.4 0-2.7 1.2-2.7 2.7Z"/>
  <path fill="#050505" d="M11.7 53.9c0 1.5 1.3 2.8 2.8 2.8 1.5 0 2.7-1.3 2.7-2.8 0-1.5-1.2-2.8-2.7-2.8-1.5 0-2.8 1.3-2.8 2.8Z"/>
  <path fill="#050505" d="M7.6 56c0 1.5 1.2 2.7 2.7 2.7 1.5 0 2.8-1.2 2.8-2.7 0-1.5-1.3-2.8-2.8-2.8-1.5 0-2.7 1.3-2.7 2.8Z"/>
  <path fill="#050505" d="M5.7 59.6c0 1.2 1 2.1 2.2 2.1 1.2 0 2.1-.9 2.1-2.1 0-1.2-.9-2.2-2.1-2.2-1.2 0-2.2 1-2.2 2.2Zm21.9-.3c0 1.2.9 2.2 2.1 2.2 1.2 0 2.2-1 2.2-2.2 0-1.2-1-2.1-2.2-2.1-1.2 0-2.1.9-2.1 2.1Z"/>
  <path fill="#050505" d="M25.2 56.8c0 .9.8 1.7 1.8 1.7.9 0 1.7-.8 1.7-1.7 0-1-.8-1.8-1.7-1.8-1 0-1.8.8-1.8 1.8Z"/>
  <path fill="#050505" d="M21.5 54.2c0 1.4 1.1 2.5 2.5 2.5 1.3 0 2.4-1.1 2.4-2.5.1-1.4-1.1-2.5-2.4-2.5-1.4 0-2.5 1.1-2.5 2.5Z"/>
  <path fill="#050505" d="m29.9 60.7-4.6-5.6-4.9-1.1-5.1.5-3.6 2.2-2.4 1.5-1.4 2.1-2.7-2.2-.7-5.7 7-6.5 7.2-.8 7.9.6 5.8 5.7 1.8 6.4-4.3 2.9Z"/>
  <path fill="#3F1D13" d="M28.1 57.4V57a.95.95 0 0 0 .8-.4c.2-.267.3-.567.3-.9a1.279 1.279 0 0 0-.5-.8c-.2-.267-.5-.367-.9-.3a.95.95 0 0 0-.8.4c-.2.267-.3.567-.3.9h-.4c0-.4.1-.8.4-1.1.3-.4.7-.6 1.1-.6.4 0 .9.1 1.2.4.3.2.5.6.6 1.1 0 .4-.1.8-.4 1.1-.3.4-.7.6-1.1.6ZM7.7 61.1c-.4 0-.8-.2-1.1-.5-.3-.3-.5-.7-.5-1.1 0-.4.1-.8.4-1.1.3-.4.7-.5 1.2-.6.4 0 .8.2 1.1.5.3.3.5.7.5 1.1h-.4c0-.333-.1-.6-.3-.8-.267-.267-.567-.4-.9-.4a2.2 2.2 0 0 0-.9.4c-.2.266-.3.567-.3.9 0 .333.133.6.4.8.267.267.567.4.9.4v.4h-.1Zm15.7-17.6c-.3-1-1.2-1.8-2.3-2.1-1.5-.5-3.1-.1-4 1.1-.2.2-.333.467-.4.8l-.4-.1c.133-.4.3-.733.5-1 .4-.6 1.1-1 1.9-1.3.8-.2 1.7-.2 2.5.1.6.2 1.2.5 1.6.9.5.4.8.9 1 1.4l-.4.2ZM17.8 46h-.3c.1-.5.4-.9.8-1.1.3-.3.8-.4 1.2-.3.5 0 .9.3 1.2.7l-.3.1c-.2-.3-.5-.5-.9-.6-.4 0-.8.1-1.1.3-.3.2-.5.6-.6.9Zm12.1 4h-.5l.1-.4h.4c.467 0 .9-.134 1.3-.4.5-.3.8-.9.9-1.4.2-1.3-.6-2.4-1.9-2.6l.1-.4c1.4.2 2.4 1.6 2.2 3-.2.7-.5 1.3-1.1 1.7-.5.4-1 .5-1.5.5Zm-4.3-1.2c-.7 0-1.4-.3-1.8-.7-.6-.5-.8-1.2-.9-1.9 0-1.4 1.2-2.6 2.6-2.6.7-.1 1.4.2 1.9.7.5.5.8 1.1.8 1.8h-.4c0-.6-.3-1.1-.7-1.5-.4-.4-1-.7-1.6-.6-1.2 0-2.2 1-2.2 2.2.1.6.3 1.2.7 1.6.5.4 1 .6 1.6.6v.4Zm-10.7 5.4-.2-.1c.2-.7.2-1.5-.1-2.2-.3-.7-.8-1.2-1.5-1.5-1.5-.6-3.1.1-3.7 1.5l-.3-.1c.3-.7.9-1.3 1.7-1.7.8-.3 1.6-.3 2.4 0 .8.3 1.4.9 1.7 1.7.3.8.3 1.6 0 2.4ZM4 53.9c-.5-.1-1-.5-1.2-1.1-.3-.5-.3-1.1-.1-1.6.1-.6.5-1 1.1-1.3.5-.2 1.1-.3 1.6-.1l-.1.4c-.5-.2-.9-.1-1.4.1-.4.2-.7.6-.9 1-.1.5-.1.9.1 1.4.2.4.6.7 1 .9l-.1.3Zm17.7-3.2c-.4-.9-1.1-1.6-2-2-.9-.4-1.9-.4-2.9 0l-.1-.3c1-.4 2.1-.4 3.1.1 1 .4 1.8 1.1 2.2 2.1l-.3.1ZM1.8 61.2c-.6-.7-.9-1.5-.8-2.4.1-.9.5-1.7 1.2-2.3l.2.3c-.6.5-.9 1.2-1 2-.1.8.2 1.6.7 2.2l-.3.2Zm28.4-.3c-1.2-.2-2.1-1.3-1.9-2.5l.2.1c-.1 1 .7 2 1.7 2.1v.3Zm-19.6-3h-.4c-.4-.1-.6-.4-.8-.7-.2-.4-.2-.7-.1-1.1l.4.1a.85.85 0 0 0 0 .8.895.895 0 0 0 .6.5c.267.067.533.033.8-.1a.895.895 0 0 0 .5-.6l.4.2c-.1.3-.4.6-.7.8-.2.067-.433.1-.7.1Zm14-2.1c-1.2 0-2.2-.7-2.5-1.8-.3-1.4.4-2.8 1.8-3.1 1.3-.4 2.7.4 3.1 1.7l-.4.2c-.3-1.2-1.5-1.9-2.6-1.6-1.1.3-1.8 1.5-1.5 2.7.3 1.1 1.5 1.8 2.6 1.5l.1.3c-.2.066-.4.1-.6.1ZM6.3 57.4c-.9 0-1.8-.5-2.2-1.4l.2-.1c.5 1 1.8 1.5 2.9 1 1.1-.5 1.6-1.8 1.1-2.9-.5-1.1-1.8-1.5-2.9-1l-.1-.3c1.2-.6 2.7 0 3.2 1.2.6 1.2.1 2.7-1.2 3.3-.333.133-.667.2-1 .2Zm25.9 1.9c-.4 0-.8-.1-1.2-.4-.9-.7-1.1-2-.4-2.9l.2.2c-.6.8-.4 1.9.4 2.5.8.6 1.9.4 2.5-.4.6-.8.4-1.9-.4-2.5l.2-.3c.9.7 1.1 2 .4 3-.4.5-1 .8-1.7.8Zm-24-7.8c-.9-.1-1.6-.6-2.1-1.3-.5-.7-.7-1.5-.6-2.4.2-.8.6-1.6 1.3-2.1.7-.5 1.6-.7 2.4-.5.9.1 1.6.6 2.1 1.3.5.7.7 1.5.5 2.4l-.3-.1c.2-1.5-.8-3-2.3-3.3-1.6-.2-3 .8-3.3 2.4-.2 1.5.8 3 2.3 3.2v.4Z"/>
  <path fill="#3F1D13" d="M14.4 56.1c-.6 0-1.3-.4-1.7-1l.3-.2c.5.8 1.6 1 2.4.5.8-.5 1-1.6.5-2.4l.3-.2c.7 1 .4 2.3-.6 2.9-.4.266-.8.4-1.2.4Zm19.7 5.2c-.333 0-.633-.067-.9-.2l.1-.4c.267.133.533.2.8.2 1 0 1.9-.6 2.2-1.6.4-1.2-.2-2.6-1.4-3l.1-.4c1.5.5 2.2 2.1 1.7 3.5-.4 1.2-1.5 1.9-2.6 1.9Z"/>
  <path fill="#3F1D13" fill-rule="evenodd" d="M33.7 54.4c-1.4 0-2.6-1.1-2.6-2.6s1.2-2.7 2.6-2.7c1.5 0 2.7 1.2 2.7 2.7 0 1.5-1.2 2.6-2.7 2.6Zm0-4.9c-1.2 0-2.2 1-2.2 2.3 0 1.2 1 2.3 2.2 2.3 1.3 0 2.3-1.1 2.3-2.3 0-1.3-1-2.3-2.3-2.3Z" clip-rule="evenodd"/>
  <path fill="#3F1D13" d="M28.2 51c-.6 0-1.3-.4-1.6-1-.1-.4-.2-.8 0-1.3.1-.4.4-.8.8-.9.4-.2.9-.3 1.3-.1.5.1.8.4 1 .9l-.2.1c-.2-.4-.5-.6-.9-.7-.3-.2-.7-.2-1 0-.4.2-.6.5-.8.8-.1.4-.1.8.1 1.1.4.7 1.2 1 1.9.7l.1.2c-.2.133-.433.2-.7.2Zm-8.7 4.4v-.3c.8 0 1.4-.6 1.4-1.4h.3c0 .9-.7 1.7-1.7 1.7Zm-1.4-1.7h-.3c0-.9.8-1.7 1.7-1.7v.3c-.8 0-1.4.6-1.4 1.4Z"/>
  <path fill="#3F1D13" fill-rule="evenodd" d="M12.7 48.2c-.7 0-1.3-.3-1.8-.8s-.8-1.1-.8-1.8.3-1.4.8-1.9 1.1-.8 1.8-.8c1.5 0 2.7 1.2 2.7 2.7 0 1.4-1.2 2.6-2.7 2.6Zm0-4.9c-.6 0-1.1.3-1.5.7-.5.4-.7 1-.7 1.6 0 .6.2 1.1.7 1.6.4.4.9.6 1.5.6 1.3 0 2.3-1 2.3-2.2 0-1.3-1-2.3-2.3-2.3Z" clip-rule="evenodd"/>
  <path fill="#855226" d="M13.5 62.6c-.1.7.4 1.4 1.1 1.4.7.1 1.3-.5 1.4-1.2 0-.7-.5-1.4-1.2-1.4-.7-.1-1.3.5-1.3 1.2Z"/>
  <path fill="#050505" d="M14.3 62.7c0 .2.2.4.4.4s.4-.2.4-.4-.2-.4-.4-.4-.4.2-.4.4Z"/>
  <path fill="#FEFEFE" d="M15 62.2c0 .2.1.3.3.3.1 0 .2-.1.2-.3 0-.1-.1-.2-.2-.2-.2 0-.3.1-.3.2Z"/>
  <path fill="#855226" d="M24.6 62.7c.1.7-.4 1.4-1.1 1.5-.6 0-1.3-.5-1.4-1.2-.1-.7.4-1.4 1.1-1.5.7-.1 1.3.4 1.4 1.2Z"/>
  <path fill="#050505" d="M23.8 62.8c0 .2-.2.4-.4.5-.2 0-.4-.2-.4-.5 0-.2.1-.4.3-.4.3 0 .4.2.5.4Z"/>
  <path fill="#FEFEFE" d="M23 62.4c0 .1-.1.2-.2.2s-.2-.1-.3-.2c0-.1.1-.2.3-.3.1 0 .2.1.2.3Z"/>
  <path fill="#050505" d="M21.3 63.9h-.1c-.1 0-.2-.1-.1-.2.3-1.3 1.2-2.2 2.7-2.5.8-.2 1.7-.1 2-.1l.8-1c.1-.1.2-.1.3 0 .1 0 .1.2 0 .2l-.9 1.1c-.067.066-.133.1-.2.1 0 0-1-.1-2 .1-1.333.266-2.133.966-2.4 2.1 0 .133-.033.2-.1.2Z"/>
  <path fill="#BB8653" d="m25.7 60.2-.6 1Z"/>
  <path fill="#050505" d="M25.1 61.4H25c-.1-.1-.1-.2 0-.3l.5-1c.1-.1.2-.1.3-.1.1.1.1.2 0 .3l-.5 1c-.067.067-.133.1-.2.1Zm-8.2 2.2c-.133 0-.2-.034-.2-.1-.333-1.133-1.167-1.8-2.5-2-1.1-.2-2 0-2 0H12l-1-1.1c-.1 0-.1-.2 0-.2.1-.1.2-.1.3 0l.9.9c.3 0 1.1-.1 2 0 1.5.2 2.5 1 2.8 2.3.1.1 0 .2-.1.2Z"/>
  <path fill="#BB8653" d="m12.2 60.2.7 1Z"/>
  <path fill="#050505" d="M12.9 61.4c-.133 0-.2-.034-.2-.1l-.6-1c-.1-.1-.1-.2 0-.2.1-.1.2-.1.3 0l.6 1c.1.1 0 .2 0 .3h-.1Z"/>
  <path fill="#050505" d="M12.8 60.9c-.067 0-.1-.033-.1-.1-.1-.1-.2-.2-.1-.3.8-1 1.8-1.2 2.4-1.2.7.1 1.3.3 1.3.3.1.1.2.3.1.4-.1.1-.2.2-.3.1-.1 0-.5-.2-1.1-.2-.8-.067-1.467.233-2 .9-.067.067-.133.1-.2.1Zm12.3 0c-.067 0-.133-.033-.2-.1-.533-.6-1.2-.867-2-.8-.6 0-1 .3-1 .3-.2 0-.3 0-.4-.1 0-.2 0-.3.1-.4 0 0 .5-.3 1.2-.4.7 0 1.7.1 2.5 1 .1.1.1.3 0 .4-.067.067-.133.1-.2.1Zm-3.3 6.5c-.2-.8-1.5-.5-2.3-.4-.2 0-.5.1-.7.1-.2 0-.5-.1-.8-.1-.7-.1-2-.4-2.3.4-.3.8.3 2.4 2.8 2.6h.6c2.4-.2 3-1.8 2.7-2.6Z"/>
  <path fill="#050505" d="M18.7 68.7h-.6c-.7-.1-1.2-.2-1.2-.2-.1-.1-.2-.1-.1-.2 0-.1.1-.1.1-.1s.5.1 1.2.2c.7 0 1.7 0 2.7-.3.1-.1.2 0 .2 0 0 .1 0 .2-.1.2-.8.3-1.6.4-2.2.4Z"/>
  <path fill="#CD895A" d="M10.2 82.2c.1.8-.1 1.5-.4 1.5-.4 0-.7-.5-.8-1.3L1 2.3c-.1-.8.1-1.4.4-1.5.4 0 .7.6.8 1.3l8 80.1Z"/>
  <path fill="#B76A4E" d="m1 2.2 8 80.1c.1.5.2.9.5 1.1L1.3.8c-.2.2-.4.7-.3 1.4Z"/>
  <path fill="#CD895A" d="M72.5 81.9c-.1.7-.4 1.3-.7 1.3-.3 0-.6-.6-.5-1.4l4.2-80.4c0-.7.3-1.3.7-1.3.3 0 .5.6.5 1.4l-4.2 80.4Z"/>
  <path fill="#B76A4E" d="m75.5 1.3-4.2 80.4c-.1.6 0 1 .2 1.2L76.1 0c-.3.1-.6.7-.6 1.3Z"/>
  <path fill="#DDEEF9" d="M1 4.3c2.8.6 21.6 1.5 33.6 1.3 14.7-.2 42.1-2.7 42.1-2.7l-1.6 26s-27.4 2-33.1 2.2C24.5 31.9 6.3 30 3.5 28 2 11.2 1 4.3 1 4.3Z"/>
  <path fill="#B8C7DA" d="m2.9 5.6 2.4 22.2s.5.3 1.2.3C5.1 21.2 2.9 5.6 2.9 5.6Zm72.2-1.3c-.1 1.3-1 24-1.5 24.1-.5.1-.9.1-.9.1l2.4-24.2Z" style="mix-blend-mode:multiply"/>
  <path fill="#562E90" fill-rule="evenodd" stroke="#562E90" stroke-width=".4" d="M10.5 26.7a.888.888 0 0 0-.4-.1l-.2-.1c.133-.667.333-1.7.6-3.1.2-1 .4-2.1.6-3.3.2-.8.333-1.467.4-2 .066-.067.133-.1.2-.1 0-.067.033-.1.1-.1l.1.1c.067 0 .133.033.2.1v.3c.2-.133.4-.234.6-.3h.4l.4.2c.133.133.267.333.4.6.133.333.2.8.2 1.4 0 .666-.067 1.367-.2 2.1a9.01 9.01 0 0 1-.6 1.9c-.2.6-.5 1.133-.9 1.6a2.12 2.12 0 0 1-1 .7c-.333.133-.633.166-.9.1Zm.1-.6h.4c.133 0 .3-.033.5-.1l.5-.5c.333-.4.6-.9.8-1.5.2-.533.367-1.134.5-1.8l.1-.5c.067-.334.1-.767.1-1.3s-.067-.967-.2-1.3c-.133-.267-.267-.4-.4-.4h-.1c-.2 0-.4.133-.6.4a5.5 5.5 0 0 0-.5 1.1l-.1.7c-.4 1.867-.733 3.6-1 5.2Z" clip-rule="evenodd"/>
  <path fill="#562E90" stroke="#562E90" stroke-width=".4" d="m16.2 27.5-1.8-.2c-.067 0-.1-.034-.1-.1-.067-.067-.1-.133-.1-.2a54.2 54.2 0 0 1 .3-2.2c0-.2.067-.633.2-1.3.067-.667.167-1.5.3-2.5.133-1 .267-1.7.4-2.1v-.1c0-.067.033-.1.1-.1 0-.067.033-.1.1-.1l1.9.3c.067 0 .133.033.2.1v.2c0 .066-.033.133-.1.2s-.133.1-.2.1l-1.5-.2c-.067.466-.167 1.133-.3 2l.8.1c.133 0 .2.033.2.1.067.067.1.133.1.2 0 .066-.033.133-.1.2s-.133.067-.2 0l-.9-.1a126.48 126.48 0 0 1-.4 3.1 35.311 35.311 0 0 0-.3 1.9l1.5.2c.067 0 .133.033.2.1.067.066.067.133 0 .2 0 .066-.033.133-.1.2s-.133.067-.2 0Z"/>
  <path fill="#562E90" fill-rule="evenodd" stroke="#562E90" stroke-width=".4" d="M17.9 27.7c-.067 0-.133-.034-.2-.1v-.2c0-.6.033-1.267.1-2 .267-2.267.433-3.6.5-4 .067-.933.133-1.667.2-2.2 0-.067.033-.1.1-.1.067-.067.133-.1.2-.1.133 0 .2.033.2.1.067.066.1.133.1.2v.2c.267-.333.533-.467.8-.4.267 0 .5.133.7.4.267.467.367 1.133.3 2-.067.667-.267 1.4-.6 2.2-.4.866-.9 1.433-1.5 1.7.2.6.6 1.267 1.2 2 .067.067.1.133.1.2 0 .066-.033.133-.1.2-.067.066-.133.1-.2.1s-.133-.034-.2-.1c-.533-.6-.933-1.2-1.2-1.8-.067.533-.1 1-.1 1.4l-.1.2c-.067.066-.167.1-.3.1Zm.6-2.8c.467-.133.867-.6 1.2-1.4a5.735 5.735 0 0 0 .6-2c.067-.733 0-1.3-.2-1.7-.067-.134-.133-.2-.2-.2-.133 0-.3.1-.5.3-.267.4-.467.9-.6 1.5a67.696 67.696 0 0 1-.3 3.5Z" clip-rule="evenodd"/>
  <path fill="#562E90" stroke="#562E90" stroke-width=".4" d="m23.5 28.2-1.8-.1c-.067 0-.133-.033-.2-.1v-.2c0-.667.033-1.4.1-2.2 0-.267.033-.734.1-1.4.067-.667.133-1.5.2-2.5s.133-1.7.2-2.1v-.1c0-.067.033-.1.1-.1.067-.067.133-.1.2-.1l1.8.2c.133 0 .2.033.2.1.067 0 .1.066.1.2 0 .066-.033.133-.1.2h-.2l-1.5-.1a33.096 33.096 0 0 0-.2 2l.8.1c.133 0 .2.033.2.1.067.066.1.133.1.2 0 .066-.033.133-.1.2s-.133.1-.2.1l-.9-.1a247.22 247.22 0 0 1-.2 3.1 21.27 21.27 0 0 0-.1 1.9l1.4.1c.067 0 .133.033.2.1.067.066.1.133.1.2s-.033.133-.1.2c-.067.066-.133.1-.2.1Zm2.3.2c-.333 0-.667-.234-1-.7-.2-.4-.333-.934-.4-1.6v-1.6c0-.2.033-.533.1-1 .067-.533.167-1.134.3-1.8.2-.667.467-1.2.8-1.6.267-.334.566-.5.9-.5h.2c.533.2.767.766.7 1.7v.2c0 .133-.033.2-.1.2-.067.066-.133.1-.2.1-.133 0-.233-.034-.3-.1v-.8c0-.2-.033-.367-.1-.5 0-.133-.033-.2-.1-.2h-.2l-.1.1c-.067 0-.167.067-.3.2-.267.333-.467.8-.6 1.4-.2.867-.333 1.766-.4 2.7-.067 1.266.033 2.2.3 2.8.133.2.267.333.4.4h.2c.133 0 .3-.133.5-.4.133-.333.233-.7.3-1.1l.1-.2c.067-.067.133-.1.2-.1.133 0 .2.033.2.1.067.066.1.133.1.2v.1a7.098 7.098 0 0 1-.3.9c-.067.267-.2.5-.4.7-.2.2-.4.333-.6.4h-.2Zm2.8.1c-.067 0-.134-.033-.2-.1 0-.067-.034-.134-.1-.2 0-1 .033-2.1.1-3.3V23c.067-.933.133-1.967.2-3.1l.2-.2c0-.067.033-.1.1-.1.133.066.233.133.3.2v.2c-.067.667-.133 1.433-.2 2.3h1.8l.1-2.3c0-.067.033-.134.1-.2.067-.067.133-.1.2-.1s.133.033.2.1c.067.066.1.133.1.2l-.3 8.3v.2c-.067.067-.167.1-.3.1-.067-.067-.133-.1-.2-.1v-.3l.1-5.3H29c0 .667-.034 1.333-.1 2v3.3c0 .066-.034.133-.1.2 0 .067-.067.1-.2.1Z"/>
  <path fill="#562E90" fill-rule="evenodd" stroke="#562E90" stroke-width=".4" d="M33.5 28.6c-.133 0-.267-.067-.4-.2-.133-.067-.233-.2-.3-.4-.267-.467-.433-1.2-.5-2.2-.067-.267-.1-.6-.1-1 0-.334.033-.7.1-1.1.067-1.667.333-2.867.8-3.6.2-.267.433-.4.7-.4.2 0 .367.1.5.3.2.2.367.533.5 1 .2.8.3 1.833.3 3.1v.6c0 .4-.067.866-.2 1.4a7.33 7.33 0 0 1-.3 1.4c-.267.667-.6 1.033-1 1.1h-.1Zm0-.6c.2 0 .4-.233.6-.7a9.846 9.846 0 0 0 .3-1.7c.067-.534.1-1.034.1-1.5v-1c0-.467-.067-.967-.2-1.5-.133-.6-.3-1-.5-1.2v-.1h-.1c0 .066-.033.133-.1.2-.4.6-.633 1.666-.7 3.2a6.7 6.7 0 0 0-.1 1.1c0 .4.033.8.1 1.2 0 .467.067.833.2 1.1.067.333.133.566.2.7l.2.2Z" clip-rule="evenodd"/>
  <path fill="#562E90" stroke="#562E90" stroke-width=".4" d="M37.3 28.6c-.2 0-.4-.067-.6-.2-.133-.067-.267-.233-.4-.5l-.2-.6V27c0-.267.033-.567.1-.9 0-.067.033-.133.1-.2h.3c.067 0 .133.033.2.1v.2a4.63 4.63 0 0 0-.1.9c0 .2.033.4.1.6.133.2.3.3.5.3.267 0 .433-.167.5-.5.067-.2.1-.4.1-.6v-.3c0-.134-.033-.3-.1-.5-.067-.267-.167-.467-.3-.6a5.53 5.53 0 0 0-.5-1.1 6.993 6.993 0 0 1-.5-1 7.747 7.747 0 0 1-.4-1c-.133-.333-.2-.7-.2-1.1V21l.2-.6c.067-.2.2-.367.4-.5.133-.133.333-.2.6-.2h.3c.2.066.367.2.5.4s.233.467.3.8v.4c0 .2-.033.466-.1.8 0 .066-.034.133-.1.2h-.2c-.133 0-.2-.034-.2-.1-.067-.067-.1-.133-.1-.2h.1v-1a.68.68 0 0 0-.2-.5c-.067-.133-.167-.2-.3-.2-.2 0-.367.133-.5.4-.067.133-.1.333-.1.6v.3c0 .133.067.333.2.6.067.4.2.733.4 1l.4 1 .6 1c.067.2.133.433.2.7.133.333.2.667.2 1 0 .267-.033.533-.1.8a.971.971 0 0 1-.4.6c-.2.2-.433.3-.7.3Zm4.8-.2c-.067.067-.133.067-.2 0s-.1-.134-.1-.2c-.133-1-.233-2.1-.3-3.3 0-.333-.033-.967-.1-1.9v-3.1c0-.067.033-.134.1-.2.066-.067.133-.1.2-.1s.133.033.2.1c.067.066.1.133.1.2v2.3l1.8-.1-.2-2.3c0-.067.033-.134.1-.2.067-.067.133-.1.2-.1s.133.033.2.1c.067 0 .1.066.1.2l.5 8.2c0 .067-.033.133-.1.2-.067.066-.133.1-.2.1s-.133-.034-.2-.1c-.067 0-.1-.067-.1-.2l-.3-5.3-1.8.1c0 .666.033 1.333.1 2 .067 1.133.133 2.233.2 3.3v.2c-.067.066-.133.1-.2.1Zm5.1-.1c-.333 0-.633-.067-.9-.2-.267-.2-.433-.5-.5-.9-.2-.6-.367-1.867-.5-3.8-.067-1.4-.1-2.634-.1-3.7 0-.067.033-.133.1-.2 0-.067.067-.1.2-.1.067 0 .1.033.1.1.067.067.1.133.1.2 0 1 .067 2.233.2 3.7.067 1.867.2 3.1.4 3.7.067.2.167.366.3.5.133.066.3.1.5.1.333 0 .533-.133.6-.4.2-.4.267-1.167.2-2.3 0-.6-.067-1.633-.2-3.1l-.1-2.3c0-.067.033-.133.1-.2 0-.067.067-.1.2-.1.067 0 .1.033.1.1.067 0 .1.066.1.2.067.666.133 1.433.2 2.3.067 1.533.1 2.567.1 3.1.067.6.067 1.1 0 1.5 0 .467-.067.833-.2 1.1-.2.466-.533.7-1 .7Zm6.2-.6h-.2c-.067-.067-.1-.133-.1-.2-.067-1.133-.167-2.5-.3-4.1-.067-.667-.1-1.333-.1-2l-.6 3.9a1.163 1.163 0 0 1-.2.3c-.067.066-.133.1-.2.1a.887.887 0 0 1-.4-.1c-.067-.067-.1-.133-.1-.2-.2-.6-.567-1.9-1.1-3.9.067.4.1.8.1 1.2.133 1.866.267 3.5.4 4.9 0 .133-.034.2-.1.2-.067.066-.133.1-.2.1-.067.067-.133.067-.2 0s-.1-.134-.1-.2a237.36 237.36 0 0 1-.4-5.1 79.847 79.847 0 0 0-.2-3.3c0-.067.033-.134.1-.2.066-.067.133-.1.2-.1h.3c.066.067.1.133.1.2.067.266.2.733.4 1.4.133.666.333 1.366.6 2.1l.5 2 .8-5.5c.067-.134.133-.2.2-.2 0-.067.067-.1.2-.1s.233.033.3.1c0 .067.033.133.1.2 0 .933.067 2.3.2 4.1.067 1.6.167 2.967.3 4.1 0 .067-.033.133-.1.2 0 .066-.067.1-.2.1Z"/>
  <path fill="#562E90" fill-rule="evenodd" stroke="#562E90" stroke-width=".4" d="M57.3 27.4c-.067 0-.133-.034-.2-.1l-.1-.1c-.067-.8-.2-1.834-.4-3.1l-1.4.1c.066 1 .1 2 .1 3v.2c-.067.067-.133.1-.2.1-.133 0-.2-.033-.2-.1-.067-.067-.1-.134-.1-.2-.067-.4-.1-.934-.1-1.6-.067-.667-.1-1.367-.1-2.1 0-.733.033-1.433.1-2.1 0-.667.033-1.234.1-1.7.067-.467.2-.8.4-1 .066-.067.166-.1.3-.1.066 0 .133.033.2.1.2.066.366.333.5.8.267.6.533 1.6.8 3l.4 2.6c.067.8.133 1.466.2 2v.2c-.067.066-.167.1-.3.1Zm-.8-3.9c-.133-1-.3-1.867-.5-2.6-.2-.8-.367-1.333-.5-1.6-.133.2-.2.7-.2 1.5-.067.8-.1 1.733-.1 2.8l1.3-.1Z" clip-rule="evenodd"/>
  <path fill="#562E90" stroke="#562E90" stroke-width=".4" d="M61.6 27.1c-.133 0-.233-.067-.3-.2l-2.4-6.5c.067 1.733.166 3.367.3 4.9.066.6.1 1.133.1 1.6v.3c-.067 0-.133.033-.2.1-.133 0-.2-.034-.2-.1l-.2-.2c0-.533-.034-1.134-.1-1.8-.067-.8-.133-1.9-.2-3.3-.067-1.333-.1-2.4-.1-3.2v-.2c.067-.133.133-.2.2-.2.066 0 .133.033.2.1.066 0 .133.033.2.1l2.3 6.5-.4-6.4c0-.067.033-.133.1-.2s.133-.1.2-.1c.066 0 .133.033.2.1s.1.133.1.2l.5 7.9v.3c0 .066-.033.133-.1.2s-.133.1-.2.1Z"/>
  <path fill="#562E90" fill-rule="evenodd" stroke="#562E90" stroke-width=".4" d="M64.3 27c-.133 0-.3-.067-.5-.2l-.3-.3c-.267-.467-.467-1.2-.6-2.2-.067-.267-.133-.6-.2-1v-1.1c0-1.667.2-2.867.6-3.6a.895.895 0 0 1 .6-.5c.2 0 .367.066.5.2.2.267.4.6.6 1 .267.8.433 1.833.5 3.1 0 .067.033.267.1.6 0 .4-.033.867-.1 1.4 0 .533-.067 1-.2 1.4-.2.733-.5 1.133-.9 1.2h-.1Zm0-.6c.133 0 .267-.234.4-.7.133-.467.233-1.067.3-1.8 0-.467-.033-.967-.1-1.5 0-.2-.033-.533-.1-1 0-.4-.1-.9-.3-1.5-.133-.533-.3-.9-.5-1.1l-.1-.1c-.067.066-.1.133-.1.2-.4.667-.567 1.766-.5 3.3v1.1l.2 1.2c.067.4.133.766.2 1.1.133.266.267.466.4.6.067.133.133.2.2.2Z" clip-rule="evenodd"/>
  <path fill="#562E90" stroke="#562E90" stroke-width=".4" d="M68 26.8c-.2 0-.4-.067-.6-.2-.2-.067-.367-.234-.5-.5a3.085 3.085 0 0 1-.2-.6v-.2c0-.334.033-.667.1-1 0-.067.033-.134.1-.2h.2c.067 0 .133.033.2.1v1.1c0 .2.033.4.1.6.2.2.4.3.6.3.2-.067.333-.234.4-.5.067-.267.1-.5.1-.7l-.1-.2c0-.2-.033-.4-.1-.6a2.55 2.55 0 0 0-.3-.6 7.003 7.003 0 0 1-.5-1l-.6-1a3.5 3.5 0 0 1-.5-1 2.674 2.674 0 0 1-.2-1v-.4c0-.134.033-.334.1-.6.067-.2.167-.367.3-.5.2-.134.4-.234.6-.3.133 0 .233.033.3.1.2.067.4.2.6.4.133.133.233.367.3.7 0 .133.033.267.1.4 0 .2-.033.466-.1.8 0 .066-.033.133-.1.2h-.2c-.067 0-.133-.034-.2-.1l-.1-.1v-.1c.067-.267.1-.5.1-.7 0-.067-.033-.167-.1-.3a.888.888 0 0 0-.1-.4c-.133-.2-.267-.3-.4-.3-.2 0-.367.167-.5.5-.067.133-.067.333 0 .6v.3c0 .133.067.333.2.6l.4 1c.2.267.4.567.6.9.133.333.3.666.5 1 .133.2.233.433.3.7.133.333.233.667.3 1 0 .267-.033.533-.1.8s-.167.467-.3.6c-.2.2-.433.333-.7.4Z"/>
  <path fill="#56B846" fill-rule="evenodd" stroke="#56B846" stroke-width=".4" d="M20.9 8.7h.1c1.9.2 2.1 2.5 2.1 4-.067.2-.1.366-.1.5-.1 2-.7 3.7-2.6 3.6a.887.887 0 0 1-.4-.1s0-1.2.1-1.7c0-1.3.1-2.6.2-4 .1-.2.1-1.8.1-2l.1-.1c0-.1.3-.2.4-.2Zm-.3 7.6h.1c1.4.1 1.7-2.2 1.7-3.1.1-1 .2-3.7-1.4-3.9l-.4 7Z" clip-rule="evenodd"/>
  <path fill="#56B846" stroke="#56B846" stroke-width=".4" d="m24.1 15.9.1-2.1c0-1.6-.1-2.6-.1-4.1v-.6c1.7-.1 1.9.1 1.9.3 0 .1 0 .2-.1.3l-1.2-.1-.1.1c0 1.2.1 2 .1 3.2H26c.4 0 .6.7.1.7l-1.4-.1V16c.2.1 1.6-.1 1.6.3 0 .2-.1.3-.2.3H26c-.4 0-1.9.1-1.9-.2v-.5Zm3.4-3.9c0-1.8.2-3 .5-3 .1.1.3.1.4.4.1.8.4 2.2 1 3.1.1 0 .5-.8.8-1.1v-.1c.4-.7.7-1.3 1-1.9.067-.133.167-.2.3-.2.1 0 .2 0 .3.1-.1 2.4-.1 4.8-.1 7.2l-.1.5c0 .2-.1.3-.3.3-.1 0-.2-.1-.3-.2l.1-.6c0-2 0-3.9.1-5.9l-.8 1.4c-.1.2-.5 1.1-.6 1.3-.1.1-.4.5-.6.1l-1-2.5c-.3 2-.4 4-.4 5.9 0 .2-.1.2-.2.2s-.3 0-.3-.1l.2-4.9Z"/>
  <path fill="#56B846" fill-rule="evenodd" stroke="#56B846" stroke-width=".4" d="M34.5 9.1c2.4 0 2.7 7.7.4 7.9h-.2c-.9 0-1.4-.5-1.6-1.5-.2-.7-1.3-6.3 1.4-6.4Zm-.9 5.9c.1.3.4 1.4 1 1.4h.1c.7-.1.9-1.3 1-1.8.2-.9.3-4.9-1.2-4.9h-.1c-1.6.2-1 4.5-.8 5.3Z" clip-rule="evenodd"/>
  <path fill="#56B846" stroke="#56B846" stroke-width=".4" d="M39.2 9.2c.5 0 1 .2 1 .7 0 .1 0 .3-.2.3-.3 0-.4-.5-.8-.5h-.1c-1.4 0-2.2 6.8.2 6.8h.1c.8 0 .4-1 1-1h.1c.1 0 .2.1.2.2 0 .2 0 .2-.1.5-.2.5-.6.8-1.2.8h-.1c-2.1 0-2.2-2.9-2.1-4.3 0-1.1.4-3.5 2-3.5Z"/>
  <path fill="#56B846" fill-rule="evenodd" stroke="#56B846" stroke-width=".4" d="M41.5 12.7c0-.4-.2-2.3-.2-2.8 0-.1-.1-1.1-.2-1.2 0-.3.3-.4.5-.4 1.5 0 2.1 1 2.1 2.2.1 1-.3 1.6-.9 2.2 1.2.5 1.6 2.2 1.7 3.4 0 .2-.1.3-.3.3-.2 0-.2 0-.3-.2-.1-.8-.4-3-1.6-3h-.1c-.1 1.2.1 2.5 0 3.7-.1.2-.4.2-.5 0-.1-.6-.2-3.6-.2-4.2Zm.6-.3c.7-.2 1.1-1.1 1.1-1.7-.1-.6-.4-1.8-1.1-1.7-.1 0-.4 0-.4.1l.4 3.3Zm3.5-3.3c0-1 .7-.7.9 0 .3 1 .6 2 2.1 7.6 0 .3-.3.5-.6.1l-.5-1.9-1.4.3c0 .5-.1 1.5-.1 1.9 0 .3-.4.3-.4.1V9.1Zm.4 5s0 .5.1.5l1.3-.2-1.3-4.7c0 .6-.1 3.7-.1 4.4Z" clip-rule="evenodd"/>
  <path fill="#56B846" stroke="#56B846" stroke-width=".4" d="M50.6 8.6h.1c.4 0 .9.2 1 .7 0 .1 0 .2-.2.3-.3 0-.4-.5-.8-.5h-.1c-1.5.1-2.1 6.9.4 6.9h.1c.7-.1.4-1.1 1-1.1.2 0 .3.1.3.2 0 .2 0 .2-.1.4-.2.6-.6.9-1.2.9H51c-2.1 0-2.3-2.8-2.3-4.2 0-1.1.3-3.5 1.9-3.6Zm3 0 .9 6.5c0 .2.1.4.1.6 0 .2-.2.3-.4.3s-.3-.2-.3-.4l-.6-4.7c-.1-.8-.3-1.5-.3-2.3 0-.3.5-.2.6 0Z"/>
  <path fill="#56B846" fill-rule="evenodd" stroke="#56B846" stroke-width=".4" d="M55.5 8.5c0-1 .7-.8.9-.1.4 1.1.6 2.1 2.2 7.7 0 .2-.3.4-.5.1l-.5-1.9-1.4.3c-.1.5-.1 1.5-.1 1.9 0 .3-.5.2-.5 0l-.1-8Zm.6 5v.6l1.3-.3-1.3-4.7v4.4Z" clip-rule="evenodd"/>
  <path fill="#803531" d="M5.3 73c.1 1.2 1.2 2.2 2.3 2 1.2-.1 2-1.2 1.8-2.5-.1-1.2-1.2-2.1-2.3-2-1.2.1-2 1.2-1.8 2.5Z"/>
  <path fill="#050505" fill-rule="evenodd" d="M7.4 75.2c-1.1 0-2.1-.9-2.3-2.2-.1-.7.1-1.4.5-1.9.4-.4.9-.7 1.5-.8 1.2-.1 2.3.9 2.5 2.2.1.7-.1 1.4-.5 1.9-.4.4-.9.7-1.4.8h-.3Zm-2-2.2c.2 1.1 1.2 2 2.2 1.9.5-.1.9-.3 1.3-.7.3-.4.5-1 .4-1.6-.1-1.2-1.1-2.1-2.2-2-.5.1-.9.3-1.2.7-.4.5-.6 1.1-.5 1.7Z" clip-rule="evenodd"/>
  <path fill="#803531" d="M8 71.3c-.3.2-.2.6 0 .9.3.2.7.2.9-.1l.5-.5c.2-.3.2-.7-.1-.9-.2-.2-.6-.2-.9 0l-.4.6Z"/>
  <path fill="#050505" fill-rule="evenodd" d="M8.4 72.5c-.133 0-.3-.067-.5-.2-.133-.134-.2-.334-.2-.6-.067-.2-.033-.367.1-.5l.5-.5c.3-.4.8-.4 1.1-.1.2.133.3.3.3.5s-.067.4-.2.6l-.5.5c-.134.2-.333.3-.6.3Zm-.3-1.1c-.133.066-.2.166-.2.3l.2.4c.2.1.5.1.7-.1l.5-.5a.889.889 0 0 0 .1-.4c0-.134-.067-.234-.2-.3-.2-.2-.5-.2-.6 0l-.5.6Z" clip-rule="evenodd"/>
  <path fill="#050505" d="M5.9 73.8s.6.7 1.6.5c.9-.3.9-1.5.9-1.5s-.6-.1-.6-.6c0 0 .7.5 1.1-.2l.6.4s.3 2.1-1.5 2.5c-1.8.5-2.2-.9-2.1-1.1Z" opacity=".2" style="mix-blend-mode:multiply"/>
  <path fill="#B3805F" d="M72.8 69.1c-.8.5-.4 1.6-.3 2 .1.4.4 1.3 1 1.3.7 0 1.2-.2 1.8-.6.6-.3.1-2.5-.5-3-.7-.5-1.6.1-2 .3Z"/>
  <path fill="#050505" fill-rule="evenodd" d="M73.5 72.6c-.8 0-1.1-1.1-1.2-1.5V71c-.1-.5-.4-1.5.4-2 .933-.6 1.667-.7 2.2-.3.5.4.9 1.7.9 2.6-.067.333-.2.567-.4.7-.5.3-1.1.6-1.9.6Zm-.9-1.7.1.1c.1.3.3 1.3.8 1.3.7-.1 1.2-.3 1.7-.6.133-.067.2-.234.2-.5.1-.7-.4-1.9-.8-2.2-.333-.333-.9-.233-1.7.3-.6.3-.4 1-.3 1.6Z" clip-rule="evenodd"/>
</svg>
