<svg xmlns="http://www.w3.org/2000/svg" width="72" height="40" fill="none" viewBox="0 0 72 40">
  <path fill="#6A4C9E" d="m68.2 15.9-65.6 5 .1-4.9 65.1-5.1.4 5Z"/>
  <path fill="#FEFEFE" fill-rule="evenodd" d="M32.2 22c.9-.1 1.9-.1 1.7 2.9-.2 2.8-1.1 3-2.5 3.1h-.5l.4-6h.9Zm-.1.7-.3 4.7c1.2-.1 1.2-1.3 1.3-2.4.1-.9.3-2.5-1-2.3Z" clip-rule="evenodd"/>
  <path fill="#FEFEFE" d="m36.7 21.6-.1.7-1.2.1-.2 1.9 1.2-.1-.1.7-1.1.1-.2 2 1.3-.1v.7l-2.1.1.5-5.9 2-.2Zm2.5-.2-.4 5.3 1.3-.1-.1.7-2 .1.4-5.9.8-.1Z"/>
  <path fill="#FEFEFE" fill-rule="evenodd" d="m42.1 21.2.8 5.8-.7.1-.2-1.2-1.1.1-.3 1.2-.7.1 1.7-6.1h.5Zm-.3 3.3-.1-2.1-.7 3.1.9-.1-.1-.9ZM9.5 14.1l2.3 7.7-2.5.2-.2-.8-2.4.2-.3.8-2.5.2 3.3-8.1 2.3-.2Zm-2 5 1-.1-.4-1.6-.6 1.7Zm5 2.7.5-8 3.3-.2h.8c.267.067.533.167.8.3.2.133.367.333.5.6.2.267.3.633.3 1.1-.067.6-.3 1.133-.7 1.6.533.334.767.867.7 1.6-.067 1.667-1.133 2.567-3.2 2.7l-3 .3Zm2.3-2.4 1-.1c.333 0 .5-.133.5-.4 0-.3-.1-.4-.4-.4l-1 .1-.1.8Zm.2-2.6.9-.1c.1 0 .3-.1.3-.4.1-.4-.1-.5-.2-.4h-1v.9Zm8.6-3.9c1.133-.133 2.067.167 2.8.9.733.734 1.067 1.7 1 2.9-.067 1.134-.5 2.134-1.3 3-.867.8-1.833 1.267-2.9 1.4-1.133.067-2.067-.267-2.8-1-.733-.733-1.067-1.666-1-2.8.067-1.133.533-2.133 1.4-3 .8-.866 1.733-1.333 2.8-1.4Zm-.3 5.9c.467 0 .867-.2 1.2-.6.333-.4.5-.866.5-1.4.067-.466-.067-.9-.4-1.3-.267-.333-.633-.467-1.1-.4-.467 0-.867.2-1.2.6-.333.4-.5.867-.5 1.4-.067.533.067.967.4 1.3.267.333.633.467 1.1.4Z" clip-rule="evenodd"/>
  <path fill="#FEFEFE" d="m31 12.4-.4 5.7 3.2-.2-.1 2.2-5.5.4.5-7.9 2.3-.2Zm3.4 7.6.5-7.9 2.2-.2-.4 8-2.3.1Zm11.5-4.2c-.267 1.067-.8 1.933-1.6 2.6-.733.734-1.6 1.134-2.6 1.2-1.134.134-2.034-.2-2.7-1-.733-.733-1.067-1.666-1-2.8.066-1.133.5-2.133 1.3-3 .8-.866 1.767-1.333 2.9-1.4 1-.066 1.833.2 2.5.8.733.6 1.133 1.4 1.2 2.4l-2.4.2c-.067-.4-.233-.7-.5-.9-.267-.2-.567-.3-.9-.3-.467.067-.867.3-1.2.7a2.58 2.58 0 0 0-.6 1.3c0 .534.133.967.4 1.3.333.334.7.5 1.1.5.333 0 .667-.133 1-.4.267-.266.467-.6.6-1l2.5-.2Zm.6 3.3.5-7.9 2.2-.2-.4 7.9-2.3.2Z"/>
  <path fill="#FEFEFE" fill-rule="evenodd" d="M54.3 10.5c1.067-.133 1.967.167 2.7.9.733.733 1.067 1.7 1 2.9-.067 1.134-.5 2.134-1.3 3-.8.8-1.767 1.267-2.9 1.4-1.133.067-2.067-.267-2.8-1-.667-.733-1-1.667-1-2.8.133-1.133.6-2.133 1.4-3 .8-.867 1.767-1.333 2.9-1.4Zm-.4 5.9c.467 0 .867-.2 1.2-.6.333-.4.533-.867.6-1.4 0-.467-.133-.9-.4-1.3a1.344 1.344 0 0 0-1.2-.4c-.4 0-.8.2-1.2.6-.333.4-.5.867-.5 1.4-.067.534.067.967.4 1.3.267.333.633.467 1.1.4Zm1.5-6.6-2.2.2 1.1-2.2 2.6-.2-1.5 2.2Z" clip-rule="evenodd"/>
  <path fill="#FEFEFE" d="m66 9.7-.4 7.9-2.1.2-2.2-3.3-.2 3.5-2.3.1.5-7.9 2-.2 2.3 3.3.2-3.4 2.2-.2Z"/>
  <path fill="#6A4C9E" d="M71.6 33.4 0 38.5l.1-4.9 71-5.1.5 4.9Z"/>
  <path fill="#FEFEFE" d="M4.7 34.1v.7l3-.2-.2 2-2.9.3-.1.6 3.2-.2-.1 2.2-5.4.5.4-8 5.5-.4-.1 2.2-3.3.3Zm5.4 2.3c.467.533 1.033.8 1.7.8.4-.067.633-.233.7-.5 0-.067-.133-.167-.4-.3l-.9-.3a3.143 3.143 0 0 1-1-.4c-.333-.133-.633-.367-.9-.7-.2-.333-.3-.733-.3-1.2 0-.466.233-1 .7-1.6.4-.5 1.2-1 2.3-1.1.8 0 1.5.2 2 .5.4.2.7.6.9.8l.1.2-1.6 1.3c-.267-.267-.5-.433-.7-.5-.2-.067-.467-.1-.8-.1-.4 0-.6.2-.6.4s.4.4.9.5c.267.067.567.167.9.3.267.067.533.2.8.4.267.133.466.367.6.7.2.267.3.6.3 1-.1.5-.3 1.1-.8 1.6-.4.6-1.3 1-2.4 1.1-.867.067-1.567-.067-2.1-.4-.533-.333-.9-.733-1.1-1.2l1.7-1.3Zm13.4-1.5c-.2 1-.7 1.867-1.5 2.6-.733.734-1.6 1.134-2.6 1.2-1.133.067-2.067-.266-2.8-1-.667-.733-.967-1.667-.9-2.8.067-1.133.5-2.133 1.3-3 .8-.866 1.767-1.333 2.9-1.4.933-.066 1.767.2 2.5.8.667.534 1.067 1.3 1.2 2.3l-2.4.2a1.82 1.82 0 0 0-.6-.8c-.267-.2-.567-.3-.9-.3-.4.067-.8.3-1.2.7-.333.334-.5.767-.5 1.3 0 .534.133.967.4 1.3.267.334.633.5 1.1.5.333-.066.667-.233 1-.5.267-.2.467-.5.6-.9l2.4-.2Zm3.4-4.9-.3 5.7 3.2-.2-.1 2.2-5.5.5.4-8 2.3-.2Z"/>
  <path fill="#FEFEFE" fill-rule="evenodd" d="M35.7 29.3 38 37l-2.4.2-.2-.8-2.5.2-.3.9-2.4.2 3.2-8.2 2.3-.2Zm-1.9 5h1l-.4-1.7-.6 1.7Z" clip-rule="evenodd"/>
  <path fill="#FEFEFE" d="m42.1 36.7-2.3.2-2.3-7.7 2.4-.2 1.2 4.6 1.8-4.9 2.4-.2-3.2 8.2Zm3.4-.3.5-7.9 2.2-.2-.4 7.9-2.3.2Zm5.6-6.1-2.1.2.1-2.3 6.4-.5-.1 2.2-2.1.2-.3 5.7-2.3.2.4-5.7Zm8 5.2c-.1 0-.2 0-.7-.1-.4 0-.8-.1-1.2-.4-.5-.3-.8-.6-1-1.4-.133-.333-.2-.733-.2-1.2l.3-4.8 2.3-.1-.3 4.8c0 .1 0 .1.1.3 0 .133.033.233.1.3.1.2.4.4.7.3.267 0 .467-.1.6-.3.2-.133.3-.3.3-.5l.1-.2.3-4.9 2.2-.2-.3 4.8c0 .9-.3 1.7-.7 2.2-.2.2-.433.4-.7.6-.7.5-1.4.7-1.8.7l-.1.1Z"/>
  <path fill="#FEFEFE" fill-rule="evenodd" d="m63.4 35 .4-8 3-.2c1.133-.133 2.033.167 2.7.9.666.667.967 1.567.9 2.7-.067 1.2-.467 2.2-1.2 3-.733.8-1.667 1.233-2.8 1.3l-3 .3Zm2.5-5.9-.2 3.5.8-.1c.466 0 .833-.167 1.1-.5.267-.4.433-.833.5-1.3 0-.466-.133-.867-.4-1.2-.2-.333-.533-.467-1-.4h-.8ZM4 4.9c.9-.1 1.9-.1 1.7 2.9-.2 2.8-1.1 3-2.4 3.1h-.5l.4-6H4Zm-.2.7-.3 4.6c1.3 0 1.3-1.2 1.4-2.3 0-.9.2-2.5-1.1-2.3Z" clip-rule="evenodd"/>
  <path fill="#FEFEFE" d="M6.8 10.6h-.7l.4-5.9.8-.1-.5 6Zm0-6.2-.4-.2.7-1.2.5.3-.8 1.1Z"/>
  <path fill="#FEFEFE" fill-rule="evenodd" d="m9.4 4.4.8 5.9-.8.1-.1-1.2-1.1.1-.3 1.2-.8.1 1.7-6.1.6-.1Zm-.2 3.3L9 5.6l-.7 3h.9v-.9Z" clip-rule="evenodd"/>
  <path fill="#FEFEFE" d="m12.6 10.1-.7.1.4-6 .7-.1-.4 6Zm1.7-4.3v2l-.2 2.2-.8.1.5-6 .7-.1 1 4.5V6.1l.1-2.2h.8L16 9.8l-.7.1-1-4.5v.4Zm4.8-2.1v.6l-.9.1-.3 5.3-.8.1.4-5.3h-.9v-.6l2.5-.2Zm2.3-.2v.7l-1.3.1-.1 1.8 1.1-.1-.1.7-1.1.1-.1 2.1 1.2-.1v.6l-2 .2.4-6 2-.1Z"/>
  <path fill="#FEFEFE" fill-rule="evenodd" d="M21.8 3.4h.9c.6-.1 1.4-.1 1.3 1.4 0 .5-.2 1.4-.9 1.6l.9 2.8-.8.1-.8-2.9h-.1l-.2 3h-.7l.4-6ZM23.2 5c0-.6 0-1-.6-1h-.1l-.1 2c.5 0 .7-.4.8-1Z" clip-rule="evenodd"/>
  <path fill="#FEFEFE" d="m25.3 4.9-.1 2-.1 2.2-.8.1.5-6 .7-.1 1 4.5V5.2l.1-2.2h.8L27 9h-.7l-1-4.5v.4Z"/>
  <path fill="#FEFEFE" fill-rule="evenodd" d="m29.5 2.8.8 5.9-.7.1-.2-1.2-1.1.1-.3 1.2h-.7l1.6-6 .6-.1Zm-.2 3.3-.2-2.2-.6 3.1.9-.1-.1-.8Z" clip-rule="evenodd"/>
  <path fill="#FEFEFE" d="M33.2 3.3c-.133-.066-.3-.1-.5-.1-1 .1-1.1 1.7-1.2 2.5-.1.8-.1 2.2.9 2.2.2-.067.367-.133.5-.2l-.1.7c-.2.133-.4.2-.6.2-1.5.1-1.6-1.6-1.5-2.8.1-1.2.4-3.2 1.9-3.3.3 0 .4 0 .7.1l-.1.7Zm.8 5.1-.8.1.4-6 .8-.1-.4 6Z"/>
  <path fill="#FEFEFE" fill-rule="evenodd" d="M37.7 5.1c0 1.1-.2 3.1-1.7 3.2-1.4.1-1.3-1.9-1.2-2.9.1-1.1.2-3.1 1.7-3.2 1.4-.1 1.3 1.8 1.2 2.9Zm-2.1.2c-.1 1.3-.1 2.3.5 2.3.6-.1.7-1.1.8-2.4.1-1.3.1-2.3-.5-2.3-.6.1-.7 1.1-.8 2.4Z" clip-rule="evenodd"/>
  <path fill="#FEFEFE" d="M39 3.8v2L38.9 8l-.8.1.4-6 .8-.1 1 4.5V4.1l.1-2.2h.8l-.5 6H40l-1-4.5v.4Z"/>
  <path fill="#FEFEFE" fill-rule="evenodd" d="m43.3 1.7.8 5.9h-.8l-.1-1.1-1.1.1-.3 1.2H41l1.7-6 .6-.1ZM43.1 5l-.2-2.2-.7 3.1.9-.1V5Z" clip-rule="evenodd"/>
  <path fill="#FEFEFE" d="m45.6 1.5-.4 5.3 1.3-.1-.1.7-2 .2.4-6 .8-.1Z"/>
  <path fill="#FEFEFE" fill-rule="evenodd" d="m48.1 7.3.4-6 .9-.1c.6 0 1.5 0 1.4 1.5-.1 1.2-.6 1.8-1.8 1.9l-.2 2.6-.7.1Zm1.2-5.4-.2 2c.7 0 .9-.4.9-1 .1-.6-.1-1-.6-1h-.1Zm3.1-.9.8 5.9h-.8l-.1-1.1-1.1.1-.3 1.1-.8.1L51.8 1h.6Zm-.2 3.4L52 2.2l-.7 3.1.9-.1v-.8ZM53.9.8h.9c.6-.1 1.4-.1 1.3 1.4 0 .6-.2 1.4-.9 1.6l.9 2.8-.8.1-.8-2.9-.2 3h-.8l.4-6Zm1.4 1.6c0-.6 0-1-.6-1h-.1l-.1 2c.5 0 .8-.4.8-1Z" clip-rule="evenodd"/>
  <path fill="#FEFEFE" fill-rule="evenodd" d="m58.3.5.8 5.9h-.8l-.1-1.1-1.1.1-.3 1.2H56L57.7.5h.6ZM58 3.9l-.1-2.2-.7 3.1.9-.1-.1-.8Z" clip-rule="evenodd"/>
  <path fill="#FEFEFE" d="m61.9.2-.4 5.3 1.3-.1v.7l-2.1.1.5-5.9.7-.1Z"/>
  <path fill="#FEFEFE" fill-rule="evenodd" d="m64.9 0 .8 5.8-.8.1-.1-1.1-1.2.1-.2 1.1-.8.1L64.3 0h.6Zm-.3 3.3-.1-2.1-.7 3.1.9-.1-.1-.9Z" clip-rule="evenodd"/>
</svg>
