<svg xmlns="http://www.w3.org/2000/svg" width="82" height="27" fill="none" viewBox="0 0 82 27">
  <path fill="#7358A4" d="M81.7 7.7 0 16.7v-5l81.2-8.9.5 4.9Z"/>
  <path fill="#FEFEFE" d="m4 17.6-2.3.3.3-8 5.5-.5-.1 2.2-3.2.3-.1 1.2 3-.4-.1 2.1-2.9.3-.1 2.5Zm4.1-.4.3-7.9 2.2-.3-.2 8-2.3.2Zm10.4-9-.2 8-2.1.2-2.3-3.2-.1 3.4-2.2.3.2-8 2.1-.2 2.3 3.2.1-3.4 2.2-.3Z"/>
  <path fill="#FEFEFE" fill-rule="evenodd" d="m24.3 7.6 2.5 7.7-2.4.2-.3-.8-2.4.3-.3.8-2.4.3 3-8.2 2.3-.3Zm-1.8 5 1-.1-.4-1.6-.6 1.7Z" clip-rule="evenodd"/>
  <path fill="#FEFEFE" d="m30.1 7-.2 5.7 3.1-.3v2.2l-5.5.6.3-7.9 2.3-.3Zm3.6 7.5.3-7.9 2.2-.2-.2 7.9-2.3.2Zm6.3-2.8 2.9-.3-.1 2.2-6 .6.1-1.9 2.8-4.1-2.6.3.1-2.2 5.7-.6v1.9L40 11.7Z"/>
  <path fill="#FEFEFE" fill-rule="evenodd" d="m48.6 5.1 2.5 7.6-2.4.3-.2-.8-2.5.2-.3.9-2.4.2 3-8.2 2.3-.2Zm-1.8 5.1 1-.1-.4-1.6-.6 1.7Z" clip-rule="evenodd"/>
  <path fill="#FEFEFE" d="M59.4 8.5c-.267 1.067-.767 1.967-1.5 2.7-.733.733-1.6 1.133-2.6 1.2-1.133.133-2.067-.167-2.8-.9-.733-.667-1.067-1.6-1-2.8 0-1.133.4-2.133 1.2-3 .8-.867 1.767-1.367 2.9-1.5.933-.067 1.767.166 2.5.7.733.6 1.167 1.4 1.3 2.4l-2.4.2a1.819 1.819 0 0 0-.6-.8 1.083 1.083 0 0 0-.9-.2c-.467 0-.867.2-1.2.6-.333.4-.5.867-.5 1.4 0 .533.133.967.4 1.3.333.333.733.467 1.2.4.333 0 .633-.133.9-.4.267-.266.467-.6.6-1l2.5-.3Zm.7 3.3.2-7.9 2.3-.3-.3 8-2.2.2Z"/>
  <path fill="#FEFEFE" fill-rule="evenodd" d="M67.6 3c1.133-.133 2.067.167 2.8.9.733.667 1.067 1.6 1 2.8 0 1.134-.4 2.134-1.2 3-.8.867-1.767 1.367-2.9 1.5-1.133.134-2.067-.166-2.8-.9-.667-.733-1-1.667-1-2.8.067-1.133.467-2.167 1.2-3.1.8-.867 1.767-1.333 2.9-1.4Zm-.2 6c.467-.067.867-.3 1.2-.7.333-.4.5-.867.5-1.4 0-.533-.133-.967-.4-1.3a1.344 1.344 0 0 0-1.2-.4c-.4.067-.767.3-1.1.7a2.58 2.58 0 0 0-.6 1.3c0 .534.167.967.5 1.3.267.333.633.5 1.1.5Zm1.3-6.7-2.2.2L67.6.3l2.5-.3-1.4 2.3Z" clip-rule="evenodd"/>
  <path fill="#FEFEFE" d="m79.3 1.9-.2 7.9-2.1.2-2.3-3.2-.1 3.5-2.2.2.2-7.9 2.1-.2L77 5.6l.1-3.5 2.2-.2Z"/>
  <path fill="#7358A4" d="m69.9 20.4-47.4 5.1v-4.9l46.8-5.1.6 4.9Z"/>
  <path fill="#FEFEFE" d="M32.7 22.2c-.2 1.067-.667 1.966-1.4 2.7-.8.733-1.667 1.133-2.6 1.2-1.133.133-2.067-.167-2.8-.9-.733-.667-1.1-1.567-1.1-2.7.067-1.2.5-2.234 1.3-3.1.733-.867 1.667-1.367 2.8-1.5 1-.067 1.867.167 2.6.7.667.6 1.1 1.4 1.3 2.4l-2.5.2a1.28 1.28 0 0 0-.5-.8c-.333-.2-.633-.267-.9-.2-.467 0-.867.2-1.2.6-.333.4-.5.867-.5 1.4-.067.533.067.966.4 1.3.333.333.7.466 1.1.4.333 0 .667-.133 1-.4.267-.267.467-.6.6-1l2.4-.3Zm3.2-4.9-.1 5.7 3.2-.3-.1 2.2-5.5.6.3-8 2.2-.2Z"/>
  <path fill="#FEFEFE" fill-rule="evenodd" d="m44.7 16.4 2.6 7.6-2.5.3-.2-.8-2.5.2-.3.9-2.4.2 3-8.2 2.3-.2Zm-1.8 5.1 1-.1-.4-1.7-.6 1.8Z" clip-rule="evenodd"/>
  <path fill="#FEFEFE" d="M49.2 20.8c.6.6 1.2.867 1.8.8.467-.067.7-.233.7-.5 0-.133-.133-.233-.4-.3a7.104 7.104 0 0 1-.9-.3 5.703 5.703 0 0 1-1-.3c-.4-.2-.7-.467-.9-.8-.267-.267-.4-.633-.4-1.1.067-.466.3-1 .7-1.6.4-.6 1.2-1 2.2-1.2.8 0 1.6.1 2 .4.5.3.8.6 1 .8l.1.2-1.6 1.4c-.267-.333-.5-.533-.7-.6H51c-.3 0-.5.2-.5.4-.1.2.3.4.9.5l.8.2c.333.134.633.267.9.4.267.2.467.433.6.7.2.267.3.6.3 1-.1.5-.3 1.1-.7 1.7-.5.6-1.3 1-2.4 1.2-.867.067-1.567-.067-2.1-.4-.533-.4-.9-.8-1.1-1.2l1.5-1.4Zm8-3.6v.8l3-.3-.1 2-2.9.3-.1.7 3.2-.3v2.2l-5.5.6.3-8 5.4-.5v2.2l-3.3.3Zm5.4 2.2c.533.533 1.133.767 1.8.7.4 0 .6-.133.6-.4.067-.133-.033-.233-.3-.3a7.063 7.063 0 0 1-.9-.3 4.45 4.45 0 0 1-1.1-.4 1.625 1.625 0 0 1-.8-.7c-.267-.333-.4-.733-.4-1.2 0-.466.2-.966.6-1.5.4-.6 1.3-1.1 2.3-1.2.8-.1 1.6.1 2 .4.4.2.8.6.9.8l.1.2-1.5 1.4c-.267-.333-.5-.533-.7-.6-.2-.066-.467-.066-.8 0-.4 0-.6.2-.6.3 0 .3.4.4.9.5.267.067.567.167.9.3.333.133.633.267.9.4.2.134.4.367.6.7.133.267.2.6.2 1 0 .5-.2 1.1-.7 1.6-.4.6-1.3 1.1-2.3 1.2-.933.067-1.667-.067-2.2-.4-.533-.333-.9-.7-1.1-1.1l1.6-1.4Z"/>
  <path fill="#FEFEFE" fill-rule="evenodd" d="M15.5 20.7c.9-.1 1.9-.2 1.8 2.9-.2 2.7-1 2.9-2.4 3.1h-.5l.3-6h.8Zm-.1.7-.3 4.7c1.3-.1 1.3-1.4 1.3-2.4.1-.9.2-2.5-1-2.3Z" clip-rule="evenodd"/>
  <path fill="#FEFEFE" d="M20 20.2v.7l-1.3.1-.1 1.9 1.2-.1-.1.7-1.1.1-.1 2 1.3-.1-.1.7-2 .2.3-6 2-.2Z"/>
</svg>
