<svg xmlns="http://www.w3.org/2000/svg" width="45" height="28" fill="none" viewBox="0 0 45 28">
  <path fill="#F68D26" d="M42.5 21.6 6.9 25.9l-.7-5.1 35.6-4.3.7 5.1Z"/>
  <path fill="#FEFEFE" fill-rule="evenodd" d="m15.8 18 3 8.6-2.8.3-.3-.9-2.9.4-.3.9-2.8.4 3.4-9.3 2.7-.4Zm-2 5.7 1.1-.1-.5-1.8-.6 1.9Z" clip-rule="evenodd"/>
  <path fill="#FEFEFE" d="m27.6 16.6-.2 8.9-2.4.3-2.7-3.5-.1 3.9-2.6.3.1-8.9 2.4-.3 2.8 3.5v-3.9l2.7-.3Zm-.9-3.5c0 1-.3 1.9-.7 2.3-.4.4-.7.7-1 .7l-.2.1c-.267 0-.567-.067-.9-.2-.333-.2-.567-.3-.7-.3s-.2.2-.2.6l-2.2.3c0-1.1.3-1.9.7-2.4.4-.4.8-.6 1-.7h.2c.267-.067.567 0 .9.2.4.134.633.2.7.2.133 0 .2-.2.2-.6l2.2-.2Z"/>
  <path fill="#FEFEFE" fill-rule="evenodd" d="M33.5 15.7c1.267-.133 2.367.2 3.3 1 .867.733 1.267 1.766 1.2 3.1 0 1.266-.467 2.4-1.4 3.4-.867 1-1.967 1.6-3.3 1.8-1.267.133-2.333-.2-3.2-1-.867-.734-1.3-1.767-1.3-3.1 0-1.267.467-2.4 1.4-3.4.867-1 1.967-1.6 3.3-1.8Zm-.1 6.8c.533-.067.967-.333 1.3-.8.4-.467.6-1 .6-1.6 0-.6-.167-1.067-.5-1.4-.4-.4-.867-.567-1.4-.5-.467.067-.9.333-1.3.8-.4.466-.6 1-.6 1.6 0 .6.167 1.066.5 1.4.4.4.867.566 1.4.5Z" clip-rule="evenodd"/>
  <path fill="#F68D26" d="M44.9 7.1.7 12 0 6.9 44.2 2l.7 5.1Z"/>
  <path fill="#FEFEFE" d="m5.8 13.4-2.6.3.1-8.9L9.7 4v2.5L5.9 7v1.2l3.5-.4-.1 2.3-3.4.4-.1 2.9Zm4.8-.6.2-8.9 2.6-.3-.1 8.9-2.7.3Zm12-10.4-.1 9-2.4.3-2.8-3.6V12l-2.6.3.1-8.9 2.4-.3 2.7 3.6.1-3.9 2.6-.4Z"/>
  <path fill="#FEFEFE" fill-rule="evenodd" d="m26.6 10.9.2-9 3.5-.4c1.267-.133 2.3.167 3.1.9.8.733 1.2 1.733 1.2 3 0 1.333-.433 2.466-1.3 3.4-.8.933-1.867 1.467-3.2 1.6l-3.5.5Zm2.8-6.7-.1 3.9.9-.1c.533-.067.933-.3 1.2-.7.333-.4.5-.9.5-1.5 0-.534-.133-.967-.4-1.3a1.344 1.344 0 0 0-1.2-.4l-.9.1Z" clip-rule="evenodd"/>
  <path fill="#FEFEFE" d="m38.4 3-.1.9 3.5-.4v2.2l-3.5.5v.7l3.7-.4V9l-6.4.8.2-9 6.4-.8-.1 2.6-3.7.4Z"/>
</svg>
