<svg xmlns="http://www.w3.org/2000/svg" width="80" height="34" fill="none" viewBox="0 0 80 34">
  <g class="2-11-texto">
    <g class="&lt;Group&gt;">
      <g class="&lt;Group&gt;">
        <path fill="#61A2CE" d="M38.397 18.66.332 20.19l.448-4.788 37.362-1.452.255 4.71Z" class="&lt;Path&gt;"/>
      </g>
      <g class="&lt;Group&gt;">
        <path fill="#FEFEFE" fill-rule="evenodd" d="M9.944 3.678c.903-.072 1.902-.041 1.507 3.048-.386 2.79-1.292 2.962-2.694 3.019l-.5-.016.788-6.078.899.027Zm-.221.694-.545 4.685c1.3.04 1.34-1.26 1.47-2.256.128-.896.48-2.586-.925-2.43Z" class="&lt;Compound Path&gt;" clip-rule="evenodd"/>
        <path fill="#FEFEFE" d="m12.461 9.658-.8-.024.788-6.079.8.025-.788 6.078Zm.297-6.393-.393-.213.836-1.175.49.316-.933 1.072Z" class="&lt;Compound Path&gt;"/>
        <path fill="#FEFEFE" fill-rule="evenodd" d="m15.354 3.444.512 6.12-.8-.025-.063-1.203-1.102.066-.437 1.187-.7-.021 1.987-6.042.603-.082Zm-.405 3.39-.032-2.202-.895 3.074 1.003-.07-.076-.802Z" class="&lt;Compound Path&gt;" clip-rule="evenodd"/>
        <path fill="#FEFEFE" d="m18.37 9.44-.802.075.787-6.078.803-.076-.787 6.079Zm1.936-4.343-.165 2.096-.268 2.193-.802.076.787-6.08.703-.078.858 4.63.077-2.5.264-2.093.803-.075-.787 6.079-.7-.022-.758-4.625-.003.1-.01.3Zm5.062-1.945-.125.797-.8-.025-.765 5.38-.7-.022.666-5.382-.903.072.022-.7 2.605-.12Zm2.302-.029-.022.7-1.302.06-.259 1.893 1.103-.067-.022.7-1.202.063-.265 2.093 1.303-.06-.122.697-2.002.038.688-6.082 2.102-.035Z" class="&lt;Compound Path&gt;"/>
        <path fill="#FEFEFE" fill-rule="evenodd" d="m28.07 3.135.902-.072c.6.018 1.5.046 1.253 1.54-.018.599-.346 1.49-.948 1.57l.71 2.924-.803.075-.71-2.923-.39 2.89-.802.075.787-6.079Zm1.35 1.643c.118-.597.13-.997-.47-1.015l-.1-.003-.26 1.993c.499.015.811-.376.83-.975Z" class="&lt;Compound Path&gt;" clip-rule="evenodd"/>
        <path fill="#FEFEFE" d="m31.518 4.842-.161 1.996-.27 2.293-.7-.022.687-6.081.8.024.76 4.526.175-2.396.267-2.193.7.022-.684 5.982-.803.075-.758-4.626-.012.4Z" class="&lt;Compound Path&gt;"/>
        <path fill="#FEFEFE" fill-rule="evenodd" d="m35.981 2.878.515 6.02-.802.075-.064-1.203-1.202.063-.337 1.19-.7-.021 1.987-6.042.603-.082Zm-.404 3.39-.033-2.202-.895 3.074.903-.073.025-.8Z" class="&lt;Compound Path&gt;" clip-rule="evenodd"/>
        <path fill="#FEFEFE" d="M39.661 3.592c-.1-.003-.297-.11-.397-.112-1.103.066-1.352 1.659-1.376 2.459-.125.796-.27 2.292.732 2.223.2.006.367-.022.503-.084l-.022.7c-.27.124-.506.184-.706.178-1.602.05-1.55-1.649-1.41-2.945.137-1.197.602-3.283 2.2-3.234.204-.094.4.012.597.118l-.121.697Zm.539 5.219-.802.075.787-6.078.803-.076-.787 6.079Z" class="&lt;Compound Path&gt;"/>
        <path fill="#FEFEFE" fill-rule="evenodd" d="M44.197 5.732c-.134 1.097-.395 3.09-1.898 3.144-1.502.053-1.237-2.04-1.103-3.136.133-1.096.395-3.09 1.897-3.143 1.502-.054 1.238 2.039 1.104 3.135Zm-2.202.033c-.14 1.296-.174 2.396.43 2.314.599.019.833-1.075.973-2.371s.173-2.396-.43-2.314c-.6-.019-.833 1.074-.973 2.37Z" class="&lt;Compound Path&gt;" clip-rule="evenodd"/>
        <path fill="#FEFEFE" d="m45.64 4.376-.165 2.096-.267 2.193-.803.075.787-6.078.803-.076.758 4.626.077-2.5.264-2.092.803-.075-.787 6.078-.703.079-.755-4.726-.003.1-.01.3Z" class="&lt;Compound Path&gt;"/>
        <path fill="#FEFEFE" fill-rule="evenodd" d="m50.099 2.512.515 6.02-.803.074-.063-1.202-1.199-.037-.337 1.19-.803.076 2.09-6.139.6.018ZM49.595 5.9l.067-2.2-.1-.003-.795 3.078.9.027-.072-.902Z" class="&lt;Compound Path&gt;" clip-rule="evenodd"/>
        <path fill="#FEFEFE" d="m52.401 2.483-.663 5.282 1.3.04-.122.697-2.002.038.687-6.081.8.024Z" class="&lt;Compound Path&gt;"/>
        <path fill="#FEFEFE" fill-rule="evenodd" d="M56.308 2.303c.9.028 1.9.059 1.504 3.148-.386 2.79-1.291 2.962-2.69 2.919l-.504.084.788-6.078.902-.073Zm-.221.694-.544 4.685c1.3.04 1.339-1.26 1.47-2.256.13-.996.48-2.586-.926-2.43Z" class="&lt;Compound Path&gt;" clip-rule="evenodd"/>
        <path fill="#FEFEFE" d="m60.912 2.245-.121.696-1.3-.04-.261 1.993 1.202-.063-.12.697-1.203.063-.262 1.993 1.403-.057-.122.697-2.105.135.787-6.079 2.102-.035Zm2.505-.123-.666 5.382 1.303-.06-.122.696-2.002.039.785-5.979.702-.078Z" class="&lt;Compound Path&gt;"/>
        <path fill="#FEFEFE" fill-rule="evenodd" d="m66.422 2.014.515 6.019-.803.075-.063-1.202-1.102.066-.437 1.187-.7-.022 1.987-6.041.603-.082Zm-.404 3.39L65.984 3.2l-.895 3.074 1.003-.069-.076-.803Z" class="&lt;Compound Path&gt;" clip-rule="evenodd"/>
      </g>
      <g class="&lt;Group&gt;">
        <path fill="#FEFEFE" d="m40.974 12.937.317 2.71.222-.693.764-2.077.802-.076-1.51 3.556-.28 2.592-.8-.024.28-2.593-.694-3.423.9.028Zm4.607-.159-.665 5.382 1.202-.063-.022.7-2.102.035.788-6.078.8.024Z" class="&lt;Compound Path&gt;"/>
        <path fill="#FEFEFE" fill-rule="evenodd" d="m48.586 12.67.412 6.116-.7-.021-.063-1.203-1.202.063-.337 1.19-.8-.024 2.087-6.039.603-.081Zm-.505 3.387.068-2.2-.1-.002-.795 3.077.903-.072-.075-.803Z" class="&lt;Compound Path&gt;" clip-rule="evenodd"/>
      </g>
      <g class="&lt;Group&gt;">
        <path fill="#FEFEFE" d="m10.289 24.999-.122.697-1.302.06-.258 1.892 1.199.037-.122.697-1.099-.034-.264 2.093 1.302-.06-.121.697-2.106.135.788-6.079L10.289 25Zm.844 1.827-.161 1.996-.27 2.293-.8-.025.787-6.079.7.022.76 4.525.1.003.074-2.398.268-2.193.8.024-.788 6.079-.7-.022-.758-4.625-.012.4Zm5.162-1.942-.666 5.382 1.303-.06-.121.696-2.103.036.788-6.079.8.025Z" class="&lt;Compound Path&gt;"/>
        <path fill="#FEFEFE" fill-rule="evenodd" d="m19.3 24.776.515 6.019-.803.075-.063-1.203-1.202.063-.337 1.19-.7-.02 1.987-6.043.603-.081Zm-.404 3.39-.033-2.203-.895 3.074.903-.072.025-.8Z" class="&lt;Compound Path&gt;" clip-rule="evenodd"/>
      </g>
      <g class="&lt;Group&gt;">
        <g class="&lt;Group&gt;">
          <path fill="#FEFEFE" d="m6.123 20.569-.6-.019-1.131-2.236-.299 3.193-2.202.032.834-7.578 2.002-.038L6.24 16.77l2.094-3.037 2.002-.038-.733 7.581-2.202.032.295-3.092-1.573 2.353Zm7.581.733c-.1-.003-.2-.006-.596-.118-.4-.012-.697-.122-1.188-.437-.39-.312-.68-.621-.86-1.327-.122-.337-.143-.738-.062-1.203l.441-4.588 2.202-.032-.541 4.585c-.003.1-.003.1.088.403-.002.067.029.134.093.203.094.203.39.312.69.321.267.009.47-.052.607-.181.14-.196.244-.36.315-.49l.01-.3.54-4.586 2.106-.135-.442 4.588c-.027.9-.349 1.59-.764 2.078a6.523 6.523 0 0 1-.718.578c-.715.478-1.418.557-1.718.547l-.203.094Zm3.463-1.994L19 18.264c.252.474.546.683.881.627.333.01.538-.15.615-.481l.457-5.089 2.205-.132-.566 5.385c-.087.664-.404 1.222-.952 1.672-.55.516-1.225.796-2.026.838-.6-.019-1.294-.24-1.581-.65-.39-.311-.678-.72-.772-.923l-.094-.203Zm9.028-4.025-.021.7 2.804-.114-.161 1.996-2.905.111-.018.6 3.104-.105-.264 2.093-5.21.24.733-7.581 5.31-.237-.267 2.193-3.105.104Z" class="&lt;Compound Path&gt;"/>
          <path fill="#FEFEFE" fill-rule="evenodd" d="m36.246 20.295-2.605.12-1.344-1.842-.2-.006-.159 1.895-2.205.133.834-7.578 2.905-.11c.1.002.203-.095.6.018.396.112.696.121 1.186.436.391.312.682.621.763 1.224.123.338.146.672.07 1.003-.1 1.064-.592 1.883-1.477 2.456l1.632 2.25Zm-3.739-5.318-.143 1.397.803-.076c.4.013.64-.213.721-.678.016-.5-.178-.706-.478-.715l-.902.072Z" class="&lt;Compound Path&gt;" clip-rule="evenodd"/>
        </g>
      </g>
      <g class="&lt;Group&gt;">
        <path fill="#61A2CE" d="M68.93 27.803 22.242 29.97l.047-4.801 46.486-2.072.155 4.707Z" class="&lt;Path&gt;"/>
      </g>
      <g class="&lt;Group&gt;">
        <g class="&lt;Group&gt;">
          <path fill="#FEFEFE" d="M31.311 27.847c-.23.993-.756 1.81-1.576 2.452-.753.644-1.598.985-2.533 1.023-1.068.034-1.924-.326-2.568-1.08-.646-.686-.918-1.595-.816-2.726a4.33 4.33 0 0 1 1.388-2.859c.825-.775 1.771-1.179 2.84-1.213.934-.038 1.725.253 2.373.874.648.62.991 1.397 1.03 2.332l-2.306.13c-.054-.402-.212-.707-.472-.916a1.083 1.083 0 0 0-.894-.227c-.4-.012-.77.143-1.114.466-.346.39-.56.85-.643 1.38-.014.467.107.871.363 1.212.256.342.617.52 1.084.534.268-.058.573-.182.912-.372.275-.258.484-.552.627-.881l2.305-.13Zm.505 3.117.833-7.578 2.102-.036-.733 7.581-2.202.033Zm6.075-5.616-.121.696 2.901-.01-.258 1.893-2.805.113-.118.597 3.105-.105-.168 2.196-5.307.137.834-7.578 5.206-.14-.164 2.096-3.105.105Zm10.781-2.47-.733 7.581-2.002.039-2.004-3.164-.301 3.293-2.203.032.734-7.58 2.002-.04 2.004 3.164.301-3.293 2.202-.032Zm8.18 4.054c-.231.993-.757 1.81-1.577 2.452-.753.644-1.597.985-2.532 1.023-1.069.034-1.925-.326-2.569-1.08-.712-.689-.984-1.597-.816-2.726.1-1.064.561-1.984 1.386-2.759.76-.843 1.707-1.281 2.841-1.313.935-.038 1.727.253 2.375.873.648.62.99 1.398 1.028 2.333l-2.305.13c-.12-.404-.278-.71-.472-.915a1.083 1.083 0 0 0-.893-.228c-.467-.015-.84.174-1.118.566-.344.323-.557.75-.64 1.28-.014.467.107.871.363 1.212.256.342.584.519.984.53.336-.055.64-.18.912-.371.341-.256.584-.55.727-.878l2.306-.13Zm.501 3.216.733-7.58 2.205-.133-.733 7.581-2.205.133Z" class="&lt;Compound Path&gt;"/>
          <path fill="#FEFEFE" fill-rule="evenodd" d="m65.9 22.208 1.87 7.56-2.403.027-.178-.706-2.302.03-.325.79-2.405.126 3.539-7.695 2.205-.132Zm-2.146 4.736 1.003-.07-.35-1.61-.653 1.68Z" class="&lt;Compound Path&gt;" clip-rule="evenodd"/>
        </g>
      </g>
      <g class="&lt;Group&gt;">
        <path fill="#61A2CE" d="m79.258 17.316-28.142.935.344-4.692 27.642-.95.156 4.707Z" class="&lt;Path&gt;"/>
      </g>
      <g class="&lt;Group&gt;">
        <g class="&lt;Group&gt;">
          <path fill="#FEFEFE" d="m59.918 11.819-.734 7.58-2.005.14-2-3.264-.302 3.292-2.205.133.833-7.578 1.905-.142 2.001 3.263.401-3.289 2.106-.135Zm.366 7.615.833-7.578 2.205-.133-.833 7.578-2.205.133Zm10.55-7.98L70 19.032l-1.905.142-2-3.263-.401 3.289-2.106.135.737-7.68 2.002-.04 2 3.264.302-3.293 2.205-.132Zm-.505-3.117c-.027.9-.348 1.59-.657 1.88-.413.388-.719.58-.919.573l-.2-.006c-.201.06-.433-.014-.693-.222-.262-.141-.427-.213-.494-.215-.133-.004-.205.16-.215.494l-1.902.041c.127-.896.449-1.587.761-1.977.31-.291.715-.479.915-.472l.103-.097c.267.008.531.083.793.224.26.208.424.313.491.315.133.005.205-.16.216-.493l1.801-.045Z" class="&lt;Compound Path&gt;"/>
          <path fill="#FEFEFE" fill-rule="evenodd" d="m76.444 11.227 1.868 7.56-2.302.03-.178-.706-2.402.026-.325.79-2.305.13 3.438-7.698 2.206-.132Zm-2.047 4.739.903-.072-.254-1.509-.65 1.58Z" class="&lt;Compound Path&gt;" clip-rule="evenodd"/>
        </g>
      </g>
    </g>
  </g>
</svg>
