<svg xmlns="http://www.w3.org/2000/svg" width="70" height="70" fill="none" viewBox="0 0 70 70">
  <g class="2-13-ilus">
    <g class="&lt;Group&gt;">
      <g class="&lt;Group&gt;">
        <g class="&lt;Group&gt;">
          <path fill="#050505" d="m54.916 54.292 4 1.9c1 .6.9 2.1-.2 2.5l-30.2 10.5c-3.1 1-6.6.8-9.5-.8l-9.6-5.1c-1.1-.5-.9-2 .2-2.4l6.8-2.2 38.5-4.4Z" class="&lt;Path&gt;" opacity=".2"/>
          <path fill="#EC2993" d="m10.116 59.992.5-13.7c.1-1.2.9-2.3 2.1-2.7l30.8-10.3c.7-.2 1.5-.2 2.2.1l7.3 2.4c2.1.7 3.5 2.5 3.7 4.6l1.3 14.3c.1 1.3-.7 2.5-2.1 3l-27.4 9.2c-2.8.9-5.9.7-8.6-.5l-7.8-3.4c-1.2-.5-2-1.7-2-3Z" class="&lt;Path&gt;"/>
          <g class="&lt;Group&gt;">
            <path fill="#C43794" d="m28.716 66.492 26.7-9c1.3-.4 2.1-1.6 2-2.9l-1.2-13.1c-.2-2-2.3-3.3-4.3-2.7l-26.7 9c-1.3.4-2.1 1.6-2 2.9l1.2 13.1c.2 2 2.3 3.3 4.3 2.7Z" class="&lt;Path&gt;"/>
            <path fill="#43A9DF" d="M46.416 51.192c.4 3.7 2.7 6 5.2 5.2 2.5-.9 4.2-4.5 3.9-8.3-.4-3.7-2.7-6-5.2-5.2-2.4.9-4.2 4.6-3.9 8.3Z" class="&lt;Path&gt;"/>
            <path fill="#F3EB18" d="M46.816 50.992c.3 3.4 2.4 5.5 4.7 4.8 2.3-.8 3.9-4.1 3.6-7.5-.3-3.4-2.4-5.5-4.7-4.8-2.3.8-3.9 4.2-3.6 7.5Z" class="&lt;Path&gt;"/>
            <path fill="#43A9DF" d="M25.616 58.192c.3 3.7 2.6 6 5.1 5.2 2.5-.9 4.3-4.6 3.9-8.3-.3-3.7-2.6-6-5.1-5.2-2.5.9-4.3 4.5-3.9 8.3Z" class="&lt;Path&gt;"/>
            <path fill="#F3EB18" d="M26.016 57.992c.3 3.4 2.4 5.5 4.6 4.8 2.3-.8 3.9-4.2 3.6-7.5-.3-3.4-2.4-5.5-4.7-4.8-2.2.8-3.8 4.1-3.5 7.5Z" class="&lt;Path&gt;"/>
            <path fill="#FEFEFE" d="M48.416 56.992s-2-1-2.6-3.7l-7.6-4s-.9.8-1.3.5c-.5-.2-4.3-3.7-4.3-3.7l-6.7 2.2c-1.3.4-2.1 1.6-1.9 2.9l.3 3.9s.8-2.6 1.9-3.8c1.2-1.1 8 5.6 8 5.6l-.3 1.5 5.1 3.5 8.7-2.9s.1-1.2.7-2Z" class="&lt;Path&gt;" opacity=".3"/>
            <g class="&lt;Group&gt;">
              <path fill="#F3EB18" d="m43.416 56.592.6-.2c.1 0 .2-.2.2-.3l-.1-1.3c0-.2-.1-.2-.3-.2l-.6.2c-.1 0-.2.2-.2.3l.2 1.3c0 .2.1.2.2.2Zm-1.3.5.5-.2c.2-.1.3-.2.2-.4l-.1-1.3c0-.1-.1-.2-.2-.1l-.6.2c-.1 0-.2.1-.2.3l.1 1.3c0 .1.1.2.3.2Zm-1.4.4.6-.2c.1 0 .2-.2.2-.3l-.1-1.3c0-.1-.1-.2-.3-.2l-.6.2c-.1 0-.2.2-.2.3l.2 1.3c0 .2.1.2.2.2Zm-1.3.5.5-.2c.2-.1.3-.2.2-.4l-.1-1.3c0-.1-.1-.2-.2-.1l-.6.2c-.1 0-.2.1-.2.3l.1 1.3c0 .1.1.2.3.2Zm-1.4.4.6-.2c.1 0 .2-.2.2-.3l-.1-1.3c0-.1-.1-.2-.3-.2l-.5.2c-.2.1-.3.2-.2.3l.1 1.3c0 .2.1.3.2.2Z" class="&lt;Path&gt;"/>
            </g>
            <g class="&lt;Group&gt;">
              <path fill="#43A9DF" d="M36.616 57.192c0 .4.3.6.6.5l7.4-2.5c.3-.1.6-.5.5-.8l-.5-5.8c0-.3-.3-.5-.6-.4l-7.4 2.4c-.3.1-.6.5-.5.9l.5 5.7Z" class="&lt;Path&gt;"/>
              <path fill="#F3EB18" d="M33.916 49.492c0 .4.3.6.6.5l11.3-3.8c.3-.1.6-.5.5-.8l-.1-1.6c0-.4-.3-.6-.6-.5l-11.4 3.8c-.3.1-.5.5-.5.9l.2 1.5Zm3.6 5.1c.1.3.3.5.6.4l5.2-1.8c.3-.1.5-.4.5-.7l-.2-2.3c-.1-.3-.3-.5-.6-.4l-5.2 1.8c-.3.1-.5.4-.5.7l.2 2.3Z" class="&lt;Path&gt;"/>
            </g>
            <g class="&lt;Group&gt;">
              <path fill="#43A9DF" d="M28.016 57.292c.2 1.8 1.2 2.8 2.4 2.5 1.1-.4 1.9-2.1 1.8-3.9-.2-1.7-1.2-2.8-2.4-2.4-1.1.4-2 2.1-1.8 3.8Z" class="&lt;Path&gt;"/>
            </g>
            <g class="&lt;Group&gt;">
              <path fill="#43A9DF" d="M48.916 50.392c.1 1.7 1.2 2.8 2.3 2.4 1.2-.4 2-2.1 1.8-3.8-.1-1.8-1.2-2.8-2.3-2.5-1.2.4-2 2.1-1.8 3.9Z" class="&lt;Path&gt;"/>
            </g>
          </g>
          <path fill="#9A2D91" d="m14.916 46.692 5.2 1.8c1.2.4 2 1.4 2.1 2.5l1 12c.2 2.1-2.1 3.6-4.2 2.7l-6.6-2.9c-1.1-.5-1.8-1.6-1.8-2.8l.4-10.8c.1-1.9 2-3.2 3.9-2.5Z" class="&lt;Path&gt;" opacity=".8"/>
          <path fill="#E35FA2" d="m51.416 36.092-5.9-2c-.6-.2-1.3-.2-1.9 0l-27.2 9.1c-.6.3-.6 1.1.1 1.4l5.4 1.9c.9.3 1.8.3 2.6 0l26.9-9.1c.7-.2.7-1.1 0-1.3Z" class="&lt;Path&gt;"/>
          <path fill="#9A2D91" d="M41.416 35.892c.6-.2 1.3-.2 1.9 0l.8.3c.8.3.8 1.3 0 1.5l-17.4 5.9c-.8.3-1.7.3-2.5 0l-.6-.2c-.7-.3-.7-1.3 0-1.5l17.8-6Z" class="&lt;Path&gt;" opacity=".8"/>
          <path fill="#9A2D91" d="m26.316 32.192 9.8-3.3c.5-.2 1.9-.3 3-.1 1 .2 1.8.6 2.1.8 1.1.7 1.8 1.9 2 3.1l.3 4.2-2.8.9-1.4-.2-.3-4.8c-.1-.4-.3-.8-.6-1l-9.8 3.3c-.6.2-.9.7-.8 1.2l.5 6-2.9 1-1.3-.2-.5-6.8c-.2-1.8.9-3.5 2.7-4.1Z" class="&lt;Path&gt;"/>
          <g class="&lt;Group&gt;">
            <path fill="#43A9DF" d="m25.416 43.292 2.9-1-.5-6c-.1-.5.2-1 .8-1.2l9.8-3.3c.4-.1.9-.1 1.3.2.3.2.6.6.6 1l.4 4.8 2.8-.9-.3-4.2c-.2-1.2-.9-2.4-2-3.1-1.1-.7-2.5-.9-3.8-.5l-9.8 3.3c-1.7.6-2.9 2.3-2.7 4.1l.5 6.8Z" class="&lt;Path&gt;"/>
          </g>
          <g class="&lt;Group&gt;">
            <path stroke="#FEFEFE" stroke-linecap="round" stroke-linejoin="round" stroke-width="1.4" d="m41.416 40.692 5.8-2m2.6-.9-.5.1" class="&lt;Path&gt;"/>
          </g>
        </g>
      </g>
      <g class="&lt;Group&gt;">
        <g class="&lt;Group&gt;">
          <path fill="url(#a)" d="m49.316 33.992 3.5-.4c.3 0 .6.1.7.4l3.2 6.3c.266-.134.6-.234 1-.3 1.4-.2 2.9.5 3.4 1.6.5 1-.1 2-1.5 2.1-1.3.2-2.8-.5-3.3-1.6l-3.1-6.2c-.2-.2-.4-.4-.7-.4l-2.5.2c-.3 0-.5-.1-.6-.3l-.4-.9c-.1-.2 0-.5.3-.5Z" class="&lt;Path&gt;"/>
          <path fill="#1782B9" d="M49.016 34.092c.067 0 .1.033.1.1l.4.8c.1.2.3.3.5.3l2.6-.1c.3-.1.5.1.6.3l3.2 6.3c.5 1 2 1.7 3.3 1.6.8-.1 1.4-.5 1.6-1-.1.7-.7 1.2-1.7 1.3-1.3.2-2.8-.5-3.3-1.6l-3.1-6.2c-.2-.2-.4-.4-.7-.4l-2.5.2c-.3 0-.5-.1-.6-.3l-.4-.9c-.1-.1-.1-.3 0-.4Z" class="&lt;Path&gt;"/>
          <path stroke="#FEFEFE" stroke-linecap="round" stroke-linejoin="round" stroke-width=".4" d="m51.316 34.192 1.3-.1c.3 0 .6.1.7.3m-3.3 0 .2-.1m4 2 1.5 3m-1.9-3.7.1.2m5.3 4.8c.6.2 1.1.6 1.3 1m-2-1.2h.1" class="&lt;Path&gt;"/>
        </g>
      </g>
      <g class="&lt;Group&gt;">
        <g class="&lt;Group&gt;">
          <path fill="url(#b)" d="m47.716 58.892-3.3.3c-.3.1-.5.3-.6.5l-1.7 6.5c-.267-.134-.633-.167-1.1-.1-1.2.1-2.5 1.1-2.8 2.1-.2 1.1.6 1.9 1.8 1.8 1.3-.2 2.5-1.1 2.8-2.2l1.7-6.4c0-.2.3-.4.5-.5l2.4-.3c.2 0 .4-.2.4-.4l.3-.9c0-.3-.2-.5-.4-.4Z" class="&lt;Path&gt;"/>
          <path fill="#1782B9" d="M47.916 58.892v.1l-.2.9c-.1.2-.2.3-.4.4l-2.4.3c-.3.1-.5.3-.6.5l-1.6 6.4c-.3 1.1-1.6 2-2.8 2.1-.8.1-1.4-.1-1.7-.6.2.7.9 1 1.8 1 1.3-.2 2.5-1.1 2.8-2.2l1.7-6.4c0-.2.3-.4.5-.5l2.4-.3c.2 0 .4-.2.4-.4l.3-.9c0-.2-.1-.3-.2-.4Z" class="&lt;Path&gt;"/>
          <path stroke="#FEFEFE" stroke-linecap="round" stroke-linejoin="round" stroke-width=".4" d="m45.916 59.492-1.3.1c-.2.1-.5.3-.5.5m3-.7h-.2m-3.3 2.6-.8 3.1m1-3.9-.1.2m-3.9 5.6c-.5.3-.9.7-1 1.2m1.6-1.6c0 .066-.033.1-.1.1" class="&lt;Path&gt;"/>
        </g>
      </g>
      <g class="&lt;Group&gt;">
        <g class="Clip path group">
          <mask id="c" width="13" height="16" x="39" y="15" class="c" maskUnits="userSpaceOnUse" style="mask-type:luminance">
            <g class="cp85">
              <path fill="#fff" d="M39.426 16.432a.5.5 0 0 1 .62-.51c1.62.37 5.76 1.5 5.76 1.5.29.08.53.35.56.64l.87 7.7c.346-.1.75-.1 1.21 0 1.4.34 2.65 1.63 2.79 2.89.14 1.26-.88 2-2.28 1.66-1.4-.33-2.65-1.62-2.79-2.88l-.85-7.53a.775.775 0 0 0-.54-.64l-3.31-1c-.41-.12-.76.16-.72.57l.56 5.02c.3-.087.643-.087 1.03 0 1.18.29 2.23 1.38 2.35 2.44.12 1.06-.74 1.69-1.92 1.4-1.18-.28-2.24-1.37-2.36-2.43l-.98-8.73v-.1Z" class="Vector"/>
            </g>
          </mask>
          <g class="&lt;Clip Group&gt;" mask="url(#c)">
            <path fill="url(#d)" d="m50.816 34.892 2.5-19.3-18.1-5.2-2.4 19.4 18 5.1Z" class="&lt;Path&gt;"/>
          </g>
        </g>
        <path stroke="#FEFEFE" stroke-linecap="round" stroke-linejoin="round" stroke-width=".4" d="m44.016 17.492 1.4.4c.3 0 .5.3.6.6m-3.3-1.4.2.1" class="&lt;Path&gt;"/>
        <path fill="#3A82B6" d="M40.916 18.292c.1-.2.4-.4.7-.3l3.3 1c.3.1.5.4.6.7l.8 7.4c.2 1.2 1.4 2.5 2.8 2.9.9.2 1.7-.1 2.1-.6-.3.8-1.1 1.2-2.3.9-1.4-.3-2.6-1.6-2.8-2.9l-.8-7.5c0-.3-.3-.5-.5-.6l-3.4-1c-.2-.067-.367-.067-.5 0Zm-1.3-2.3v.3l1 8.7c.1 1 1.1 2.1 2.3 2.4.8.1 1.4-.1 1.7-.5-.2.7-.9 1-1.9.8-1.1-.3-2.2-1.4-2.3-2.4l-1-8.8c0-.2.1-.4.2-.5Z" class="&lt;Path&gt;"/>
        <path stroke="#FEFEFE" stroke-linecap="round" stroke-linejoin="round" stroke-width=".4" d="m46.216 20.692.4 3.6m-.5-4.5v.2m3.6 7c.5.4.9 1 .9 1.5m-1.6-2c.067 0 .1.033.1.1m-6-1.9c.4.3.8.8.8 1.3m-1.5-1.7h.1m-2.2-5.4.3 3.3m-.4-4.1v.2" class="&lt;Path&gt;"/>
      </g>
    </g>
  </g>
  <defs>
    <linearGradient id="a" x1="68.716" x2="65.615" y1="44.392" y2="30.792" class="a" gradientUnits="userSpaceOnUse">
      <stop stop-color="#1B55A6"/>
      <stop offset=".3" stop-color="#4372B8"/>
      <stop offset=".8" stop-color="#4372B8"/>
      <stop offset="1" stop-color="#6392CC"/>
    </linearGradient>
    <linearGradient id="b" x1="31.816" x2="31.916" y1="72.392" y2="59.192" class="b" gradientUnits="userSpaceOnUse">
      <stop stop-color="#1B55A6"/>
      <stop offset=".3" stop-color="#4372B8"/>
      <stop offset=".8" stop-color="#4372B8"/>
      <stop offset="1" stop-color="#6392CC"/>
    </linearGradient>
    <linearGradient id="d" x1="33.316" x2="34.816" y1="25.992" y2="14.092" class="d" gradientUnits="userSpaceOnUse">
      <stop stop-color="#3156A6"/>
      <stop offset=".3" stop-color="#4D70B6"/>
      <stop offset=".8" stop-color="#4D70B6"/>
      <stop offset="1" stop-color="#7592CB"/>
    </linearGradient>
  </defs>
</svg>
