<svg xmlns="http://www.w3.org/2000/svg" width="57" height="21" fill="none" viewBox="0 0 57 21">
  <g class="2-13-texto">
    <g class="&lt;Group&gt;">
      <g class="&lt;Group&gt;">
        <g class="&lt;Group&gt;">
          <path fill="#DD4297" d="m57 12.9-39.6 5.4-.2-5.1 39.4-5.3.4 5Z" class="&lt;Path&gt;"/>
        </g>
        <g class="&lt;Group&gt;">
          <g class="&lt;Group&gt;">
            <path fill="#FEFEFE" fill-rule="evenodd" d="M1.1 4.3c1-.1 2.1-.2 2.1 3.1-.1 3-1.1 3.3-2.6 3.5L0 11l.1-6.5 1-.2ZM1 5l-.1 5.1c1.4-.2 1.4-1.5 1.4-2.6 0-1 .1-2.8-1.3-2.5Z" class="&lt;Compound Path&gt;" clip-rule="evenodd"/>
            <path fill="#FEFEFE" d="m4.6 10.3-.9.2.2-6.6.8-.1-.1 6.5Zm-.4-6.7-.4-.2.7-1.4.6.3-.9 1.3Z" class="&lt;Compound Path&gt;"/>
            <path fill="#FEFEFE" fill-rule="evenodd" d="m7.1 3.5 1.3 6.3-.9.1-.2-1.2-1.3.2-.2 1.3-.9.1 1.5-6.7.7-.1Zm0 3.6-.3-2.3-.6 3.4 1-.2-.1-.9Z" class="&lt;Compound Path&gt;" clip-rule="evenodd"/>
            <path fill="#FEFEFE" d="m11.3 2.9.8 4.6.1-.3.3-1.6.5-3 .8-.1.5 6.5-.9.1-.1-2.4V4.6l-.2 1-.7 3.6-.6.1-.7-4.4-.4 4.6-.8.1.7-6.6.7-.1Zm4.4-.6V7c-.1.9.2 1 .5 1 .6-.1.7-.5.7-1l.1-4.9.8-.1v4.6c-.1.9-.1 2-1.6 2.2-1.3.2-1.4-.7-1.4-1.9l.1-4.5.8-.1Zm3.6 1.4.1 2.2v2.4l-.9.1.1-6.6.9-.1 1.4 4.8-.2-2.6.1-2.4.8-.1-.1 6.6-.8.1-1.4-4.9v.5Z" class="&lt;Compound Path&gt;"/>
            <path fill="#FEFEFE" fill-rule="evenodd" d="M23.4 1.2c1-.2 2.1-.3 2.1 3.1-.1 3-1.1 3.2-2.6 3.5h-.6l.1-6.5 1-.1Zm-.1.8-.1 5c1.4-.1 1.4-1.5 1.4-2.6 0-1 .2-2.7-1.3-2.4Z" class="&lt;Compound Path&gt;" clip-rule="evenodd"/>
            <path fill="#FEFEFE" d="m26.9 7.2-.8.1.1-6.5.8-.1-.1 6.5Z" class="&lt;Compound Path&gt;"/>
            <path fill="#FEFEFE" fill-rule="evenodd" d="m29.4.3 1.3 6.4-.9.1-.2-1.3-1.3.2-.2 1.3-.9.2L28.7.4l.7-.1Zm0 3.7-.3-2.4-.6 3.4 1-.1-.1-.9Z" class="&lt;Compound Path&gt;" clip-rule="evenodd"/>
            <path fill="#FEFEFE" d="m32 0-.1 5.7 1.4-.2v.8l-2.3.3.1-6.5.9-.1Z" class="&lt;Compound Path&gt;"/>
          </g>
          <g class="&lt;Group&gt;">
            <path fill="#FEFEFE" fill-rule="evenodd" d="M1.8 13.9c1-.1 2.1-.2 2.1 3.1-.1 3-1.1 3.3-2.6 3.5l-.6.1.1-6.5 1-.2Zm-.1.7-.1 5.1C3 19.5 3 18.2 3 17.1c0-1 .2-2.8-1.3-2.5Z" class="&lt;Compound Path&gt;" clip-rule="evenodd"/>
            <path fill="#FEFEFE" d="M6.9 13.2v.8l-1.5.2v2l1.3-.2-.1.8-1.2.2-.1 2.2 1.5-.2-.1.8-2.2.3.1-6.6 2.3-.3Zm2.8-.4-.1 5.8 1.4-.2v.8l-2.3.3.1-6.6.9-.1Z" class="&lt;Compound Path&gt;"/>
            <path fill="#FEFEFE" fill-rule="evenodd" d="m13 12.4 1.3 6.3-.9.1-.2-1.2-1.3.2-.2 1.3-.9.1 1.5-6.8h.7Zm0 3.7-.3-2.3-.6 3.4 1-.2-.1-.9Z" class="&lt;Compound Path&gt;" clip-rule="evenodd"/>
          </g>
          <g class="&lt;Group&gt;">
            <g class="&lt;Group&gt;">
              <path fill="#FEFEFE" fill-rule="evenodd" d="M25.9 18.6 23 19l-1.6-1.8h-.2v2l-2.4.3.1-8 3.2-.4h.6c.4 0 .8.1 1.3.3.5.2.8.6 1 1.2.133.333.2.7.2 1.1 0 1.133-.433 2-1.3 2.6l2 2.3Zm-4.7-5.1V15l.9-.1c.467-.067.7-.367.7-.9 0-.4-.3-.7-.7-.6l-.9.1Zm10.3-3.7 2.9 7.6-2.6.4-.3-.8-2.5.3-.3.9-2.5.3 2.9-8.4 2.4-.3ZM29.8 15l1-.1-.5-1.7-.5 1.8Zm5.3 2.3v-8l3.2-.4c1.133-.133 2.067.1 2.8.7.733.667 1.1 1.6 1.1 2.8a4.508 4.508 0 0 1-1.1 3c-.733.867-1.7 1.367-2.9 1.5l-3.1.4Zm2.4-6.1v3.5l.8-.1c.467-.067.834-.267 1.1-.6.267-.4.4-.833.4-1.3 0-.533-.133-.933-.4-1.2-.267-.333-.633-.467-1.1-.4l-.8.1Z" class="&lt;Compound Path&gt;" clip-rule="evenodd"/>
              <path fill="#FEFEFE" d="m43.1 16.2.1-8 2.3-.3v8l-2.4.3Z" class="&lt;Compound Path&gt;"/>
              <path fill="#FEFEFE" fill-rule="evenodd" d="M50.8 7.1c1.133-.2 2.1.067 2.9.8.8.667 1.2 1.567 1.2 2.7 0 1.2-.4 2.267-1.2 3.2-.8.867-1.8 1.4-3 1.6-1.133.133-2.1-.133-2.9-.8-.8-.733-1.2-1.667-1.2-2.8 0-1.2.4-2.233 1.2-3.1.8-.933 1.8-1.467 3-1.6Zm-.1 6c.467-.067.867-.3 1.2-.7.334-.4.5-.867.5-1.4 0-.533-.133-.967-.4-1.3a1.344 1.344 0 0 0-1.2-.4c-.533.067-.967.3-1.3.7a3.2 3.2 0 0 0-.5 1.4c0 .533.167.967.5 1.3.333.333.733.467 1.2.4Z" class="&lt;Compound Path&gt;" clip-rule="evenodd"/>
            </g>
          </g>
        </g>
      </g>
    </g>
  </g>
</svg>
