<svg xmlns="http://www.w3.org/2000/svg" width="70" height="40" fill="none" viewBox="0 0 70 40">
  <g class="2-2-ilus">
    <g class="&lt;Group&gt;">
      <path fill="#EC5F42" d="M13.976 35.1c-.2-1.5-1.1-8.6-1.6-9.5 1.2.1 3.2 2.1 4.3 2 1.2 0 2.4-.3 3.3-.9.3-.3.6-.5 1-.6.7-.2 1.4.2 1.9.8.4.6.5 1.4.7 2.1.666 3.067 1.467 6.1 2.4 9.1 0 .1-11.4.9-11.4.9-.4-.9-.5-2.9-.6-3.9Zm44.7 1c.1-1.6.6-8.7 1-9.7-1.1.2-3 2.3-4.2 2.3-1.1 0-2.3-.2-3.3-.8-.3-.2-.6-.4-1-.5-.7-.1-1.4.3-1.8 1-.4.6-.5 1.3-.6 2-.5 3.2-1.7 9.4-1.7 9.3l11.2.3c.4-1 .3-2.9.4-3.9Z" class="&lt;Path&gt;"/>
      <g class="&lt;Group&gt;">
        <g class="&lt;Group&gt;">
          <path fill="#7358A4" d="M30.876 14.6h.2c-.133.6-.4 1.1-.8 1.5-.6.7-1.8 1-2.7.6-1.1-.5-1.7-1.8-1.3-3l.2-.6c.1-.2.2-.2.4-.1.133 0 .233.033.3.1.2.1.2.3.1.5-.1.3-.2.5-.2.8 0 .7.4 1.2 1 1.4.5.2 1.2.1 1.6-.4.2-.2.3-.4.4-.7 0-.1.1-.1.2-.1a.5.5 0 0 0 .6 0Z" class="&lt;Path&gt;"/>
          <path fill="#261A0E" fill-rule="evenodd" d="m47.976 33.3.6-3.6c.067-.4.167-.767.3-1.1 0-.1 0-.2-.2-.3-.4-.2-.8-.5-1-.8-.267-.267-.4-.567-.4-.9 0-.133-.067-.167-.2-.1a5.53 5.53 0 0 1-1.5.4c-.6 0-1.167-.133-1.7-.4-.133-.133-.267-.167-.4-.1h-.9c-.133.067-.233.1-.3.1a.654.654 0 0 1-.3.3c-.4.2-.8.333-1.2.4-.4-.067-.8-.167-1.2-.3v-.1c-.2-.133-.433-.3-.7-.5-.067-.067-.133-.1-.2-.1-.2-.1-.5-.1-.7-.1-.2-.067-.333-.233-.4-.5-.1-.4.2-.8.6-.9.133 0 .2-.033.2-.1v-.2h-.2c-.333-.067-.533-.267-.6-.6 0-.3.1-.6.4-.7.2-.1.4-.1.6 0 .333.133.633.067.9-.2v-.1c.133-.067.3-.1.5-.1.3-.1.7-.1 1-.1.467.133.867.367 1.2.7.1 0 .2.1.3.1.333 0 .633-.033.9-.1.133 0 .233-.033.3-.1.733-.733 1.633-1.033 2.7-.9.2 0 .433.033.7.1.133.067.3.167.5.3.067-.6.1-1.167.1-1.7.1-.4.3-.8.6-1.1.333-.2.7-.3 1.1-.3.3 0 .3 0 .3-.3-.1-1.1 0-2.3.2-3.5a86.37 86.37 0 0 1 .2-1.5c0-.067-.033-.133-.1-.2-.3-.4-.2-.9-.2-1.3.067-.333.133-.633.2-.9 0-.267.033-.533.1-.8s.1-.533.1-.8c.067-.6.4-1 1-1.2.6-.2 1.133-.1 1.6.3.1.2.2.3.4.5 0-.6.2-1 .7-1.3.067 0 .133-.033.2-.1h.1c.2 0 .4-.033.6-.1h.1l.6.2h.2v.1h.1l.1.1h.1v.1c.133.2.267.367.4.5.133-.2.233-.4.3-.6.067 0 .1-.033.1-.1h.1v-.1c.133-.067.233-.1.3-.1v-.1c.2 0 .4-.033.6-.1.4-.1.7.1 1 .2l.1.1c.2.2.4.433.6.7.4-.5.5-.6.9-.7.533-.133 1.033 0 1.5.4.133.133.233.267.3.4.2.3.2.7.1 1.1l-.2 1.6c-.067.2-.1.433-.1.7v.3l.1.1v.1c.4.5.5 1 .4 1.6l-.2.6a11.28 11.28 0 0 0-.9 1.5c-.133.2-.233.4-.3.6-.133.867-.3 1.767-.5 2.7 0 .1 0 .2.1.2.8.4 1.2 1.1 1.1 2a1169.27 1169.27 0 0 0-.4 4.5v.4c0 .6-.3 1-.8 1.3-.4.267-.8.467-1.2.6-.2 0-.2.1-.2.2v.8c-.067.333-.1.633-.1.9v1.3c-.067.4-.1.833-.1 1.3-.067.733-.1 1.433-.1 2.1-.067.6-.1 1.2-.1 1.8-.067.667-.133 1.367-.2 2.1h-.3c.067-.6.1-1.2.1-1.8l.4-8.4v-.2h-.1c-1.6.3-3.1.3-4.7.2-1.3-.1-2.7-.4-4-.8l-.6-.2c-.133-.067-.2-.033-.2.1-.133.8-.3 1.633-.5 2.5a968.49 968.49 0 0 0-1 5.7 34.524 34.524 0 0 0-.3 2.6v.1h-.4v-.1c.333-1.8.633-3.633.9-5.5m-2.8-1.3c-.067.2-.1.367-.1.5.1.3-.1.6-.3.7-.3.2-.6.3-.9.1v-.1h-.1v-.1h-.1v-.2c-.1-.5-.1-.9 0-1.4.2-.4.4-.9.7-1.2a2.314 2.314 0 0 1 1.7-.7c.6 0 1.133.167 1.6.5.4.3.4.8.1 1.2-.3.3-.8.3-1.1 0-.3-.3-1.1-.3-1.4.3l-.1.4Zm17-17.6c.3-.6.1-1.6-.5-2l-4-2.4-.4-.2c-.7-.1-1.3.4-1.5 1-.3.7-.1 1.2.5 1.6.867.6 1.7 1.167 2.5 1.7.1.1.2.2.1.3 0 .1-.2.1-.3.1-.7-.2-1.3-.2-2 0-.933.133-1.833.4-2.7.8-.1.1-.2.1-.3 0 0-.1 0-.2.1-.3.9-.4 1.8-.7 2.7-.9.267 0 .5-.033.7-.1-.467-.2-.8-.5-1-.9-.3.8-.6 1.1-1.3 1.2-.867.133-1.5-.2-1.9-1-.7.8-1.2.9-2.3.4 0 .133-.033.2-.1.2-.067.8-.167 1.567-.3 2.3-.133 1.133-.1 2.3.1 3.5.067.4.267.7.6.9v.1c1 .7 2.2 1 3.4 1.1.733.067 1.5.1 2.3.1.867 0 1.7-.167 2.5-.5.6-.2 1-.6 1.1-1.2.333-1.133.6-2.3.8-3.5 0-.2.067-.367.2-.5l1-1.8Zm0-4.9c.1-.7-.5-1.3-1.2-1.3-.6 0-1.1.3-1.2.9a86.4 86.4 0 0 0-.2 1.5c0 .1.1.2.1.2.667.4 1.3.8 1.9 1.2.1.1.2 0 .2-.1.1-.8.2-1.6.4-2.4Zm-1.2 13c.533-.333.733-.767.6-1.3-.1-.5-.4-.8-.8-1-.1.2-.2.4-.4.6-.3.5-.8.8-1.4 1-.8.3-1.7.5-2.6.5a17.08 17.08 0 0 1-2.6-.2c-.667-.133-1.3-.3-1.9-.5-.133-.067-.233-.067-.3 0a3.28 3.28 0 0 1-.4.5 4.9 4.9 0 0 1-.3.5c.067.067.133.1.2.1.7.1 1.5.3 2.2.4.6.1 1.3.2 1.9.2 1.4.1 2.8.1 4.2-.2.6-.1 1.2-.3 1.6-.6Zm.5.9v-.8c-.067 0-.1.033-.1.1-.3.1-.6.3-.9.4-1 .4-2 .6-3.1.6-2.2.1-4.4-.1-6.5-.7h-.2v.9c-.067.133-.033.233.1.3.267.067.533.167.8.3.1 0 .2.1.2.2-.067.133-.167.167-.3.1a7.108 7.108 0 0 1-.9-.3v.1c0 .4-.033.833-.1 1.3l.1.1c.267.133.567.233.9.3.1.1.2.1.1.3 0 .1-.1.1-.3.1a2.221 2.221 0 0 0-.7-.3c-.067-.067-.1-.033-.1.1a6.7 6.7 0 0 0-.1 1.1c0 .1 0 .2.2.3 1.2.333 2.467.533 3.8.6 1.6.1 3.2.2 4.8-.2.5-.2 1.1-.3 1.5-.7.333-.2.5-.5.5-.9.067-1.067.167-2.167.3-3.3Zm-2.2-14.1c.067-.667-.2-1.1-.8-1.3-.6-.3-1.4 0-1.5.6-.1.3-.1.6-.2.9h.6c.333.133.633.267.9.4.267.2.533.367.8.5.067-.4.133-.767.2-1.1Zm-2.8 3.7c.1.3.5.7 1 .7a9.085 9.085 0 0 0-1-.7Zm-.3-3.3c.1-.4.1-.7-.1-1.1-.3-.4-.9-.6-1.4-.5-.6.1-.9.4-1 .8a80.91 80.91 0 0 0-.5 3.7c-.1.5.1.9.5 1.2.267.133.533.2.8.2.6 0 1-.3 1.2-.7 0-.2.1-.5.1-.7 0-.1 0-.1-.1-.2-.1-.2-.2-.3-.3-.5-.3-.7 0-1.5.7-2.1l.1-.1Zm-3.2.7c0-.2.1-.5.1-.7 0-.5-.5-1-1.1-1-.7-.1-1.2.3-1.3.9-.133.933-.267 1.833-.4 2.7-.1.8.4 1.3 1.2 1.4.7 0 1.1-.5 1.2-1.1.1-.7.2-1.5.3-2.2Zm-1.7 11.1V22a2.55 2.55 0 0 1-.6-.3c-.5-.4-1-.9-1.1-1.7 0-.067-.033-.1-.1-.1-.4 0-.7.1-.9.4-.4.5-.6 1.2 0 1.8.4.5.9.7 1.5.9.5.2.4.3.7-.2.133-.2.3-.4.5-.6Zm-.9 1.5c0-.1 0-.2-.2-.3-.7-.2-1.5-.6-2-1.2h-.1v.5a66.15 66.15 0 0 1-.3 3.6c-.067.4.067.733.4 1 .4.5 1 .8 1.7 1 .067.067.1.033.1-.1.067-.4.1-.767.1-1.1 0-.133-.033-.2-.1-.2a3.898 3.898 0 0 1-.5-.2.888.888 0 0 1-.4-.1v-.2l.1-.1h.2c.267.067.5.167.7.3l.1-.1c0-.467.033-.9.1-1.3 0-.1-.1-.1-.2-.2a9.549 9.549 0 0 0-.7-.2c-.1-.1-.2-.1-.2-.3.1-.1.2-.1.3-.1l.6.2c.2.1.2.1.2-.1 0-.267.033-.533.1-.8Zm-2.6 7.7c0-.3-.2-.5-.5-.5s-.5.2-.5.5.2.5.5.5.5-.2.5-.5Zm-.1-8.1c0-.2-.1-.3-.2-.4a2.704 2.704 0 0 0-1.9-.3c-.8.2-1.4.6-1.9 1.3-.2.267-.3.567-.3.9 0 .1 0 .2.2.2l.6-.2c.1 0 .1-.1.1-.2.1-.2.1-.4.3-.6.4-.6 1.2-.9 1.9-.7.267.067.5.2.7.4.4.5.3 1.2-.2 1.6-.467.467-1 .633-1.6.5h-.2l-.8.4c.067.067.133.1.2.1 1 .4 1.9.2 2.8-.3 0-.1.1-.2.1-.3l.2-2.4Zm-.8 1.7c.2-.3.3-.5.2-.8-.2-.6-1.2-.8-1.7-.4.667.467.733 1 .2 1.6l.1.1c.5 0 .9-.2 1.2-.5Zm.1 5.7c-.067 0-.1-.033-.1-.1-.2 0-.4 0-.6-.1-.9 0-1.8.6-2.1 1.5-.2.467-.267.933-.2 1.4.067.4.267.5.6.3.267-.067.367-.233.3-.5-.1-.9.5-1.8 1.5-1.7l.1-.1c0-.333.167-.567.5-.7Zm-1.6-5.6c.3-.4.2-.8-.3-1.1h-.1c-.1.2-.3.4-.3.6 0 .3-.1.5-.4.5a3.744 3.744 0 0 1-2.1.2c-.3 0-.4-.2-.5-.5a.68.68 0 0 0-.2-.5c0-.133-.067-.133-.2 0-.4.4-.3 1 .2 1.3.4.3.9.5 1.4.5.4-.1.8-.1 1.2-.2.5-.1 1-.3 1.3-.8Zm-2-1.4h-.6c.1.2.2.4.3.7.1-.3.2-.5.3-.7Zm-.6 1.1a.887.887 0 0 0-.1-.4c-.3-1.2-1.6-1.8-2.8-1.3-.6.267-.933.767-1 1.5-.067.067-.033.1.1.1h.4c.133 0 .2-.067.2-.2.067-.267.2-.5.4-.7.8-.5 1.9-.1 2 .9 0 .2.1.3.3.3h.2c.3.1.3.1.3-.2Zm-.7 1.5a5.498 5.498 0 0 1-.7-.3l-.1.1c-.333.133-.667.1-1-.1-.067-.067-.133-.1-.2-.1l-.6.2c.4.7 1.9 1 2.6.2Zm-1.3-1.8c.133-.133.267-.3.4-.5-.2-.067-.433-.1-.7-.1l.3.6Zm-.3 1.2c.2.1.4.2.6 0a4.908 4.908 0 0 1-.3-.5 1.26 1.26 0 0 0-.3.5Zm-.4-.2c.5-.3.6-.9.2-1.3-.067-.067-.133-.067-.2 0l-.2.4c-.1.3-.2.5-.5.5h-1c-.2 0-.3.1-.3.3-.067.2 0 .3.2.3.2.067.367.1.5.1.5 0 1 0 1.3-.3Zm-1.5-1.5c.2-.2.2-.4.3-.6h-.4c-.3-.1-.4.1-.4.4.1.1.2.2.3.2h.2Z" class="&lt;Compound Path&gt;" clip-rule="evenodd"/>
          <path fill="#EC5F42" d="M61.476 13.2c.6.3.9 1.3.5 2a38.29 38.29 0 0 0-1 1.7 3.86 3.86 0 0 0-.2.5c-.2 1.2-.434 2.367-.7 3.5-.2.6-.6 1-1.1 1.2a6.7 6.7 0 0 1-2.6.5 9 9 0 0 1-2.3-.1c-1.2-.1-2.3-.4-3.3-1.1h-.1a1.58 1.58 0 0 1-.6-1 15.363 15.363 0 0 1 0-3.5c.066-.733.166-1.467.3-2.2v-.2c1.1.4 1.6.3 2.3-.5.4.8 1.066 1.133 2 1 .7-.1 1-.4 1.2-1.2.266.467.6.767 1 .9v.1h-.6c-1 .2-1.9.5-2.7.9-.1.1-.2.2-.1.3 0 .1.1.1.3 0 .8-.4 1.666-.667 2.6-.8.7-.1 1.4-.1 2.1 0 .1 0 .2 0 .3-.1 0-.1-.1-.2-.2-.3l-2.4-1.6c-.6-.4-.8-1-.6-1.7.2-.6.9-1 1.5-.9.2 0 .333.033.4.1 1.333.8 2.666 1.633 4 2.5Zm-.7-4.3c.7 0 1.3.6 1.2 1.3-.1.8-.2 1.6-.4 2.4 0 .2 0 .2-.2.1l-1.8-1.2c-.1 0-.1-.1-.1-.2 0-.467.067-.967.2-1.5.1-.6.5-.9 1.1-.9Z" class="&lt;Path&gt;"/>
          <path fill="#7358A4" d="M61.376 21.9c.133.533-.033.967-.5 1.3-.5.3-1.1.5-1.6.6-1.4.3-2.8.3-4.3.3-.6-.1-1.2-.1-1.9-.2-.7-.2-1.4-.3-2.1-.5-.067 0-.167-.033-.3-.1l.4-.4c.066-.2.166-.367.3-.5.067-.133.167-.167.3-.1a7.332 7.332 0 0 0 2 .5c.867.2 1.733.267 2.6.2.8 0 1.7-.1 2.5-.4.6-.3 1.1-.5 1.5-1 .1-.2.2-.5.4-.7.3.2.6.5.7 1Z" class="&lt;Path&gt;"/>
          <path fill="#7358A4" d="M61.376 23.3c-.067.333-.1.633-.1.9a903.186 903.186 0 0 0-.2 3.3 1.28 1.28 0 0 1-.5.8c-.5.4-1 .6-1.6.7-1.5.4-3.1.4-4.8.3a25.323 25.323 0 0 1-3.8-.7c-.1-.1-.2-.1-.2-.3.067-.333.1-.667.1-1 0-.133.067-.2.2-.2.2.133.433.233.7.3.1 0 .2 0 .3-.1 0-.1-.1-.2-.2-.3l-.8-.2c-.1-.1-.1-.2-.1-.2 0-.467.033-.9.1-1.3v-.1c.267.133.566.233.9.3.133.067.2.033.2-.1.1-.1 0-.2-.1-.2a3.907 3.907 0 0 0-.8-.3c-.133 0-.2-.1-.2-.3.067-.267.1-.567.1-.9h.2c2.1.6 4.3.8 6.4.7 1.1 0 2.2-.1 3.2-.6.3-.1.5-.3.8-.4.067 0 .133-.033.2-.1Z" class="&lt;Path&gt;"/>
          <path fill="#EC5F42" d="M58.376 8.7c.6.267.833.7.7 1.3 0 .4-.033.8-.1 1.2a13.58 13.58 0 0 0-.9-.5 5.25 5.25 0 0 0-.8-.5h-.6c0-.3 0-.6.1-.8.2-.6.9-.9 1.6-.7Zm-2.5.6c.3.4.2.7.2 1.1l-.2.2c-.7.5-.9 1.3-.6 2.1.1.1.2.3.3.4v.2c0 .2 0 .5-.1.7-.1.5-.6.7-1.2.7-.267 0-.5-.067-.7-.2-.5-.3-.7-.6-.6-1.1.2-1.267.4-2.5.6-3.7 0-.5.4-.8.9-.9.5-.1 1.2.1 1.4.5Zm-3 1.1v.7c-.1.8-.3 1.5-.4 2.2 0 .6-.5 1.1-1.2 1.1s-1.2-.6-1.1-1.4c.133-.867.233-1.767.3-2.7.1-.6.7-1 1.3-.9.6 0 1.1.5 1.1 1Z" class="&lt;Path&gt;"/>
          <path fill="#7358A4" d="M51.176 22.1c-.067 0-.1.033-.1.1-.133.2-.3.433-.5.7-.3.4-.1.4-.7.1-.5-.2-1-.4-1.4-.8-.7-.6-.5-1.4-.1-1.9.2-.2.6-.3.9-.4.133 0 .2.067.2.2.1.7.5 1.2 1.1 1.6l.6.4Zm-1.1 1.4c.1 0 .1.1.1.2v.8c-.1.2-.1.2-.3.2l-.6-.2c-.1-.1-.2-.1-.2.1-.1.1 0 .2.1.2.267.067.533.167.8.3 0 0 .1 0 .1.1 0 .467-.033.9-.1 1.3v.1a2.224 2.224 0 0 1-.7-.3h-.2c-.1 0-.2.1-.2.1 0 .1 0 .2.1.2.067.067.167.1.3.1.2.067.367.133.5.2.133 0 .2.067.2.2a6.7 6.7 0 0 0-.1 1.1c0 .133-.067.167-.2.1-.6-.2-1.2-.5-1.7-1-.267-.267-.4-.6-.4-1 .133-1.2.233-2.367.3-3.5.067-.2.1-.4.1-.6.6.7 1.3 1 2.1 1.3Z" class="&lt;Path&gt;"/>
          <path fill="#261A0E" fill-rule="evenodd" d="M48.076 14.2c0 .5-.3.8-.6 1.1-.733.667-1.567.933-2.5.8-.5-.1-.9-.3-1.3-.7-.2-.267-.3-.567-.3-.9a.895.895 0 0 1 .6-.5h.2l.4.2c.066 0 .133.033.2.1.4.4 1.2.4 1.6-.1l.1-.1.1-.1c.2-.4.6-.6 1.1-.4a.97.97 0 0 1 .4.6Zm-.8.6c.3 0 .5-.2.5-.5s-.2-.5-.5-.5-.5.2-.5.5.2.5.5.5Zm-.1.3c-.067 0-.1-.033-.1-.1-.2-.1-.4-.2-.5-.3-.1-.2-.1-.2-.2-.1-.6.4-1.3.4-1.8-.1a1.165 1.165 0 0 1-.3-.2c-.2 0-.3 0-.5.1-.1.1-.1.3 0 .4.1.4.3.6.6.8.9.4 2 .3 2.8-.5Z" class="&lt;Compound Path&gt;" clip-rule="evenodd"/>
          <path fill="#7358A4" d="M47.176 30.9c.2 0 .4.3.4.5 0 .3-.2.5-.5.5-.2 0-.4-.2-.4-.5 0-.2.2-.5.5-.5Zm.6-16.6c0 .3-.2.5-.5.5s-.5-.2-.5-.5.2-.5.5-.5.5.2.5.5Zm-.5 8.6c.2.1.3.2.2.4-.067.8-.133 1.633-.2 2.5 0 0 0 .1-.1.2-.9.6-1.8.7-2.8.3-.067 0-.1-.033-.1-.1.2-.133.433-.233.7-.3.067-.067.167-.1.3-.1.6.133 1.133 0 1.6-.4.5-.5.5-1.2.2-1.7a1.49 1.49 0 0 0-.7-.4c-.8-.1-1.5.1-2 .8-.1.1-.1.3-.2.5 0 .1-.1.2-.1.2a9.56 9.56 0 0 0-.7.2c-.1 0-.1-.1-.1-.1 0-.4.1-.733.3-1 .4-.7 1.1-1.1 1.9-1.2.667-.133 1.267-.067 1.8.2Zm-.2-7.9c0 .067.033.1.1.1-.8.8-1.9.9-2.8.5-.3-.2-.5-.4-.6-.8-.1-.1-.1-.3 0-.4.2-.1.3-.1.5-.1.067.067.166.133.3.2.5.5 1.2.5 1.8.1.1-.1.1-.1.2.1.1.1.3.2.5.3Zm-.3 15.7c-.267.2-.4.433-.4.7 0 .1-.1.1-.2.1-1-.1-1.5.9-1.4 1.7 0 .267-.133.433-.4.5-.333.2-.533.133-.6-.2-.067-.533 0-1.033.2-1.5.4-.9 1.2-1.5 2.1-1.4.3 0 .5 0 .7.1Z" class="&lt;Path&gt;"/>
          <path fill="#7358A4" d="M44.976 24c.5.3.6.8.2 1.2-.3.4-.7.6-1.2.7-.4.1-.9.2-1.3.2-.5 0-1-.1-1.4-.4-.5-.4-.5-1-.1-1.4.066-.067.133-.067.2 0 .066.2.133.367.2.5 0 .3.1.5.5.6.666.133 1.367.067 2.1-.2.2-.1.3-.3.4-.6 0-.2.1-.4.2-.5.1-.1.1-.1.2-.1Z" class="&lt;Path&gt;"/>
          <path fill="#7358A4" d="M42.576 23.7h.7c-.1.2-.2.4-.3.7-.2-.2-.3-.5-.4-.7Zm0 .7c0 .133.033.267.1.4-.1.3-.1.3-.3.3-.067-.067-.133-.1-.2-.1-.2 0-.3-.1-.4-.3-.1-1-1.2-1.4-1.9-.9-.267.2-.4.433-.4.7-.067.133-.133.2-.2.2a.889.889 0 0 1-.4.1c-.133 0-.2-.067-.2-.2.067-.733.433-1.233 1.1-1.5 1.1-.5 2.4.1 2.8 1.3Zm-1.3 1.7c.2.067.4.167.6.3-.7.7-2.1.5-2.6-.2l.6-.2c.067-.067.133-.067.2 0 .333.2.7.233 1.1.1 0-.067.033-.067.1 0Z" class="&lt;Path&gt;"/>
          <path fill="#7358A4" d="M40.176 24.2c.3.4.3 1-.2 1.3-.4.3-.9.3-1.3.3h-.6c-.2-.067-.267-.2-.2-.4s.2-.3.4-.3h.9c.4 0 .5-.1.6-.5 0-.133.067-.267.2-.4 0-.067.067-.067.2 0Zm-1.4-.8-.3.6s-.2.1-.3 0c-.1 0-.2-.1-.2-.2-.1-.3.1-.5.4-.4h.4Z" class="&lt;Path&gt;"/>
          <path fill="#261A0E" fill-rule="evenodd" d="M24.676 25.5a3.88 3.88 0 0 1-.5-.2c-.133.067-.267.2-.4.4l-.2.2-.1.1a1.26 1.26 0 0 1-.5.3v.4c0 .067.033.1.1.1.267 1.133.567 2.233.9 3.3.133.533.267 1.033.4 1.5 0 0 .5 1.7.6 2.3l.6 2.4c.133.467.233.9.3 1.3h-.3c-.3-1-.5-2-.7-3l-1.6-5.8c-.2-.667-.4-1.367-.6-2.1 0-.1-.1-.1-.2-.1-1.1.6-2.3 1-3.5 1.2a19.02 19.02 0 0 1-3.9.6c-.6 0-1.1-.1-1.7-.1h-.1c-.133 0-.167.067-.1.2.133 1.067.267 2.167.4 3.3.267 1.933.567 3.867.9 5.8l.2 1h-.4c-.067-.2-.1-.4-.1-.6a174.537 174.537 0 0 0-.9-5.8 6.7 6.7 0 0 0-.1-1.1c-.067-.2-.1-.433-.1-.7v-.2l-.2-.8v-.2c0-.133-.033-.233-.1-.3v-.4c0-.2-.1-.3-.4-.3-.6-.2-1.2-.4-1.6-.8a1.163 1.163 0 0 1-.2-.3h-.1v-.2c0-.067-.033-.133-.1-.2v-.1a14.93 14.93 0 0 0-.3-1.5 86.949 86.949 0 0 0-.2-1.5c0-.067-.033-.1-.1-.1v-.4c-.067-.2-.1-.367-.1-.5-.067-.333-.133-.7-.2-1.1-.067-.333 0-.667.2-1 .133-.4.367-.667.7-.8.133-.067.167-.167.1-.3a3.908 3.908 0 0 1-.3-.8c0-.067-.033-.133-.1-.2-.133-.6-.3-1.167-.5-1.7 0-.067-.033-.133-.1-.2l-1.2-1.5c-.5-.6-.5-1.7-.1-2.3.067-.133.1-.233.1-.3-.267-.867-.5-1.733-.7-2.6-.3-.8.2-1.5 1-1.8.6-.133 1.133.033 1.6.5h.1c.2-.7.7-1.1 1.4-1.2.8-.067 1.333.267 1.6 1 .333-.8.9-1.2 1.7-1.2.867-.067 1.4.333 1.6 1.2.2-.467.5-.767.9-.9.067 0 .1-.033.1-.1h.1c.4-.1.7 0 1 0 .3.1.6.3.7.4.1.2.2.5.2.7 0 .067.033.1.1.1v.1l.6 2.2c.1.4.2.8-.1 1.3v.2c.133.4.233.8.3 1.2.3.8.5 1.7.7 2.6v.2c.067.4.1.8.1 1.2 0 .2.1.1.2.1.3.1.6.1.9.1.5.2.9.6 1 1.2.1.5.2 1.1.3 1.6 0 .133.033.233.1.3 0 .2 0 .2.2.2 1-.4 1.9 0 2.6.7l.2.2a.654.654 0 0 1 .3.3c0 .067.033.133.1.2.1.1.2.2.3.2.267.067.533.1.8.1.067.067.133.067.2 0 .467-.333 1-.567 1.6-.7.8-.2 1.6-.2 2.4 0 .067.067.167.067.3 0 .3-.1.5-.2.8-.2.3-.1.5 0 .6.3.067.133.1.267.1.4 0 .3-.1.5-.4.5-.067.067-.133.1-.2.1 0 .3 0 .3.2.3.4 0 .7.3.7.6.1.4-.1.7-.5.8-.2.1-.5.1-.8.2-.067 0-.133.067-.2.2-.3.2-.5.4-.8.6-.3.2-.6.3-.9.4 0 .067-.033.1-.1.1-.3 0-.5.1-.8.1-.9.1-1.6-.1-2.3-.6l-.1-.1c-.4 0-.767-.033-1.1-.1h-.1c-.1 0-.2-.1-.2 0-.267.067-.533.1-.8.1h-.7c-.1-.1-.5-.2-.5-.2Zm9.3-1.1c.2 0 .3-.2.3-.4-.067-.133-.2-.2-.4-.2h-.2a9.56 9.56 0 0 0-.7.2h-.7c-.2 0-.3 0-.4-.3a.6.6 0 0 0-.4-.4h-.2c-.1.2-.3.4-.4.6-.1.2 0 .4.2.5.2.1.3.2.4.2.4.1 1.4.1 1.5.1a5.7 5.7 0 0 0 1-.3Zm-.2-1.7c.133-.067.2-.167.2-.3-.1-.2-.2-.3-.3-.3-.267 0-.5.067-.7.2.067.067.133.1.2.1l.2.2c.1.2.2.2.4.1Zm-.6.8c.133 0 .167-.067.1-.2-.133-.4-.367-.667-.7-.8-.6-.3-1.3-.3-1.9-.3-.8.1-1.6.4-2.2.9-.333.333-.533.7-.6 1.1 0 .1 0 .2.2.2.133 0 .3-.033.5-.1.133 0 .2-.067.2-.2 0-.067.033-.167.1-.3.3-.4.6-.6 1-.7.6-.3 1.1-.3 1.7-.2.3.1.6.3.7.6 0 .1.1.2.2.1.2 0 .433-.033.7-.1Zm-.6 1.6h-.8a.889.889 0 0 0-.4.1c-.533.2-1.067.267-1.6.2h-.3l-.6.2c-.067.067-.133.1-.2.1.8.4 1.6.5 2.4.3.533-.133 1.033-.433 1.5-.9Zm-1.7-1.9c-.2 0-.7.1-.8.2l.4.4c.133-.133.267-.333.4-.6Zm.1 1.7a3.28 3.28 0 0 0-.5-.4l-.4.6c.2.1.8 0 .9-.2Zm-1-.3c.3-.3.1-.8-.3-1h-.1c-.2.2-.4.4-.4.6 0 .2-.2.4-.4.4-.3.2-.7.2-1.1.1-.4 0-.9-.2-1.2-.5-.2-.067-.267-.233-.2-.5 0-.2-.1-.4-.1-.6-.1 0-.2-.1-.2-.1-.4.1-.6.5-.5.8.067.2.167.4.3.6.6.8 1.5 1 2.4 1h.3c.6-.1 1.1-.3 1.5-.8Zm-1.9-1.5-.6-.2c.067.267.133.5.2.7v.1l.4-.6Zm-.8.7c0-1.1-.9-2.2-2-2.5-.467-.133-.9-.133-1.3 0-.1.1-.1.1-.1.2 0 .267.033.567.1.9l.2-.2c.267-.267.567-.367.9-.3.8.2 1.5.9 1.5 1.7 0 .3.1.4.3.5.4.2.5.2.4-.3Zm-1.4-1.1v-.1c-.2 0-.4-.2-.4-.2-.267-.2-.567-.2-.9 0-.3.1-.4.3-.4.6 0 .333.1.6.3.8.2.3.6.5.8.5-.067-.2-.1-.367-.1-.5-.1-.2-.1-.2 0-.4.067-.333.3-.567.7-.7Zm.4 2.6c-.267-.2-.5-.4-.7-.6h-.1c-.333 0-.667-.133-1-.4l-.1-.1c0 .267-.033.467-.1.6 0 .1.1.2.1.2.2.067.367.133.5.2.4.2.9.2 1.4.1Zm-2.7.2c.3-.4.5-.8.4-1.4-.2-.8-.3-1.6-.4-2.4a13.502 13.502 0 0 1-.3-1.6c-.2.3-.4.5-.6.6-.4.4-.9.7-1.4.9 0 0-.1.1-.1.2.067.333.133.7.2 1.1.267-.133.5-.267.7-.4.1 0 .3-.1.3.1.1.1 0 .2-.1.2-.267.133-.5.233-.7.3-.1.1-.2.1-.2.2l.2 1.2c.067.133.133.167.2.1.267-.067.5-.133.7-.2.1-.1.2-.1.2 0 .1.2 0 .2-.1.3-.2.067-.433.167-.7.3-.133 0-.167.067-.1.2.067.4.133.767.2 1.1v.2l.4-.2c.4-.2.8-.5 1.2-.8Zm-.9-5.2c.5-.5.6-1 .3-1.6-.2-.4-.8-.8-1.3-.7 0 0-.1 0-.1.1 0 .6-.3 1.1-.7 1.5-.2.2-.5.5-.8.7.267.333.567.667.9 1h.1c.6-.2 1.1-.6 1.6-1Zm-1.8-1.4a9.11 9.11 0 0 0-.2-3.3c-.2-1-.5-2-.7-2.9-.1-.2-.1-.2-.2-.1-.7.5-1.5.4-2.1-.2h-.1c-.4.8-.9 1.2-1.6 1.2-.8 0-1.4-.3-1.6-1.1-.2.5-.5.9-1 1.1h.1c.8 0 1.6.1 2.4.3.333.067.7.167 1.1.3 0 0 .1.1.1.2s-.1.2-.2.1c-.133 0-.233-.033-.3-.1-1.2-.4-2.3-.5-3.5-.4-.4.1-.7.2-1.1.3-.1 0-.2 0-.2-.1-.1-.1 0-.2 0-.2 0-.067.033-.1.1-.1.733-.667 1.5-1.367 2.3-2.1a.95.95 0 0 0 .4-.8c0-.6-.3-1.1-.8-1.4-.533-.267-1.033-.2-1.5.2a120.151 120.151 0 0 1-3.4 2.7c-.8.6-.9 1.6-.3 2.3l1.2 1.6c.067.067.133.167.2.3a47.82 47.82 0 0 0 1.1 3.3c.2.5.6.8 1.1 1 .7.3 1.5.4 2.2.4 1.6 0 3.1-.3 4.5-.9.6-.3 1.2-.6 1.7-1.1.2-.1.3-.3.3-.5Zm.6 7.8c.133-.067.167-.167.1-.3 0-.2-.033-.433-.1-.7 0-.133-.033-.3-.1-.5l-.8.4c-.1 0-.3.1-.3-.1-.1-.1 0-.2.1-.2l.8-.4c.133 0 .167-.067.1-.2l-.2-1.2v-.1a3.88 3.88 0 0 0-.5.2l-.4.2c-.133 0-.2-.033-.2-.1-.1-.1 0-.2.1-.3.133-.067.3-.133.5-.2.1-.1.3-.1.4-.2.1-.2 0-.4-.1-.5 0-.2-.033-.433-.1-.7 0 .067-.033.1-.1.1-.9.3-1.8.6-2.7.8-1 .2-2 .367-3 .5-1 .1-2.1.1-3.1-.1-.6-.1-1.2-.2-1.8-.6h-.1c.067.133.1.233.1.3.2 1.267.4 2.5.6 3.7.067.467.333.8.8 1 .6.3 1.4.4 2.1.5 1 .067 1.967.033 2.9-.1a12.86 12.86 0 0 0 1.7-.3c.6-.067 1.2-.2 1.8-.4.5-.1 1-.3 1.5-.5Zm-2.4-14.2c.7-.1 1.1-.8.9-1.4-.2-.867-.433-1.733-.7-2.6-.2-.6-.6-.9-1.2-.9-.8.1-1.3.8-1.1 1.4.2.933.433 1.833.7 2.7.2.6.6.9 1.3.8h.1Zm1.4 9.1c.1-.1.1-.1 0-.2l-.6-.8c-.067-.133-.167-.133-.3 0-.8.4-1.7.7-2.6.8-1.1.3-2.2.4-3.3.3-.6-.1-1.2-.2-1.8-.4-.5-.3-.9-.5-1.2-1a1.161 1.161 0 0 1-.2-.3l-.3.3c-.5.5-.6 1.5.2 1.9.5.4 1.1.5 1.8.6.9.1 1.9.1 3 0 .5-.1 1.1-.1 1.7-.2.8-.2 1.567-.4 2.3-.6.4-.1.9-.3 1.3-.4Zm-4.1-8.4c.6-.2 1-.8.8-1.5a47.68 47.68 0 0 1-.9-3.3c-.067-.2-.133-.333-.2-.4-.2-.5-.7-.6-1.1-.6-.6.1-1 .3-1.2.7-.133.267-.167.5-.1.7.1.3.2.5.4.6.8.6 1.1 1.7.5 2.4v.3c.067.133.1.267.1.4.133.333.333.533.6.6.333.2.7.233 1.1.1Zm-3.3-4.1.1-.1c-.1-.3-.2-.6-.3-.8-.2-.5-.9-.7-1.4-.5-.6.2-.9.8-.8 1.3.1.4.2.8.3 1.3.267-.2.5-.367.7-.5.4-.4.8-.7 1.4-.7Zm0 4.2c.3.1.9-.4.9-.8a10.91 10.91 0 0 0-.9.8Zm-2.6-2.5c.1-.1.1-.2.1-.3l-.4-1.4c-.2-.5-.7-.8-1.2-.8-.7.1-1.3.7-1.1 1.5.2.733.4 1.5.6 2.3.1.2.1.2.3.1.533-.467 1.1-.933 1.7-1.4Z" class="&lt;Compound Path&gt;" clip-rule="evenodd"/>
          <path fill="#7358A4" d="M34.276 24c0 .2-.1.4-.3.4a5.698 5.698 0 0 1-1 .3c-.1 0-1.1 0-1.5-.1-.1 0-.2-.1-.4-.2s-.3-.3-.2-.5c.1-.2.3-.4.4-.6h.2c.2.067.333.2.4.4.1.3.2.3.4.3h.7c.2-.067.433-.133.7-.2h.2c.2 0 .333.067.4.2Zm-.3-1.6c0 .133-.067.233-.2.3-.2.1-.3.1-.4-.1l-.2-.2c-.067 0-.133-.033-.2-.1.2-.133.433-.2.7-.2.1 0 .2.1.3.3Z" class="&lt;Path&gt;"/>
          <path fill="#7358A4" d="M33.276 23.3c.067.133.033.2-.1.2-.267.067-.5.1-.7.1-.1.1-.2 0-.2-.1-.1-.3-.4-.5-.7-.6-.6-.1-1.1-.1-1.7.2-.4.1-.7.3-1 .7-.067.133-.1.233-.1.3 0 .133-.067.2-.2.2-.2.067-.367.1-.5.1-.2 0-.2-.1-.2-.2.066-.4.267-.767.6-1.1.6-.5 1.4-.8 2.2-.9.6 0 1.3 0 1.9.3.333.133.567.4.7.8Zm-1.5 1.8h.8c-.467.467-.967.767-1.5.9-.8.2-1.6.1-2.4-.3.067 0 .133-.033.2-.1l.6-.2h.3a3.32 3.32 0 0 0 1.6-.2.889.889 0 0 1 .4-.1Z" class="&lt;Path&gt;"/>
          <path fill="#261A0E" fill-rule="evenodd" d="M30.676 13.1c.4.1.7.4.7.7.1 1-.2 1.9-.9 2.6a3.158 3.158 0 0 1-1.8.8c-2 .1-3.3-1.9-2.7-3.7.067-.2.167-.367.3-.5.133-.267.367-.367.7-.3.4 0 .7.4.6.8 0 .2-.1.4-.1.5-.3.9.4 1.8 1.3 1.6.6-.1 1.1-.7 1.1-1.4-.1-.2-.1-.5 0-.7.2-.2.5-.4.8-.4Zm0 1.3c.2 0 .4-.3.4-.5 0-.3-.3-.5-.6-.5-.2.1-.4.3-.4.6 0 .2.3.4.6.4Zm.4.2h-.2a.5.5 0 0 1-.6 0c-.1 0-.2 0-.2.1-.1.3-.2.5-.4.7-.4.5-1.1.6-1.6.4-.6-.2-1-.7-1-1.4 0-.3.1-.5.2-.8.1-.2.1-.4-.1-.5-.067-.067-.167-.1-.3-.1-.2-.1-.3-.1-.4.1l-.2.6c-.4 1.2.2 2.5 1.3 3 .9.4 2.1.1 2.7-.6.4-.4.666-.9.8-1.5Z" class="&lt;Compound Path&gt;" clip-rule="evenodd"/>
          <path fill="#7358A4" d="M31.076 13.9c0 .2-.2.5-.4.5-.3 0-.6-.2-.6-.4 0-.3.2-.5.4-.6.3 0 .6.2.6.5Zm-1.4 9.7c.4.2.6.7.3 1-.4.5-.9.7-1.5.8h-.3c-.9 0-1.8-.2-2.4-1a2.55 2.55 0 0 1-.3-.6c-.1-.3.1-.7.5-.8 0 0 .1.1.2.1 0 .2.1.4.1.6-.067.267 0 .433.2.5.3.3.8.5 1.2.5.4.1.8.1 1.1-.1.2 0 .4-.2.4-.4s.2-.4.4-.6h.1Z" class="&lt;Path&gt;"/>
          <path fill="#7358A4" d="M25.276 21.3c1.1.3 2 1.4 2 2.5.1.5 0 .5-.4.3-.2-.1-.3-.2-.3-.5 0-.8-.7-1.5-1.5-1.7-.334-.067-.633.033-.9.3l-.2.2a4.634 4.634 0 0 1-.1-.9c0-.1 0-.1.1-.2.4-.133.833-.133 1.3 0Zm.3 3.4c.2.2.433.4.7.6-.5.1-1 .1-1.4-.1a3.87 3.87 0 0 0-.5-.2s-.1-.1-.1-.2c.067-.133.1-.333.1-.6l.1.1c.333.267.667.4 1 .4h.1Zm-1.6-.6c.1.6-.1 1-.4 1.4-.4.3-.8.6-1.2.8l-.4.2v-.2c-.067-.333-.133-.7-.2-1.1-.067-.133-.034-.2.1-.2.266-.133.5-.233.7-.3.1-.1.2-.1.1-.3 0-.1-.1-.1-.2 0a9.56 9.56 0 0 1-.7.2c-.067.067-.134.033-.2-.1l-.2-1.2c0-.1.1-.1.2-.2.2-.067.433-.167.7-.3.1 0 .2-.1.1-.2 0-.2-.2-.1-.3-.1-.2.133-.434.267-.7.4-.067-.4-.133-.767-.2-1.1 0-.1.1-.2.1-.2.5-.2 1-.5 1.4-.9.2-.1.4-.3.6-.6.067.533.166 1.067.3 1.6.1.8.2 1.6.4 2.4Zm-1-5.4c.3.6.2 1.1-.3 1.6-.5.4-1 .8-1.6 1h-.1a12.191 12.191 0 0 1-.9-1c.3-.2.6-.5.8-.7.4-.4.7-.9.7-1.5 0-.1.1-.1.1-.1.5-.1 1.1.3 1.3.7Z" class="&lt;Path&gt;"/>
          <path fill="#EC5F42" d="M20.676 15.6a9.11 9.11 0 0 1 .2 3.3c0 .2-.1.4-.3.5-.5.5-1.1.8-1.7 1.1-1.4.6-2.9.9-4.5.9-.7 0-1.5-.1-2.2-.4-.5-.2-.9-.5-1.1-1a47.83 47.83 0 0 1-1.1-3.3 1.161 1.161 0 0 0-.2-.3l-1.2-1.6c-.6-.7-.5-1.7.3-2.3a120.588 120.588 0 0 0 3.4-2.7c.467-.4.967-.467 1.5-.2.5.3.8.8.8 1.4a.95.95 0 0 1-.4.8c-.8.733-1.567 1.433-2.3 2.1-.067 0-.1.033-.1.1 0 0-.1.1 0 .2 0 .1.1.1.2.1.4-.1.7-.2 1.1-.3 1.2-.1 2.3 0 3.5.4.066.067.166.1.3.1.1.1.2 0 .2-.1s-.1-.2-.1-.2a9.223 9.223 0 0 0-1.1-.3c-.8-.2-1.6-.3-2.4-.3h-.1c.5-.2.8-.6 1-1.1.2.8.8 1.1 1.6 1.1.7 0 1.2-.4 1.6-1.2h.1c.6.6 1.4.7 2.1.2.1-.1.1-.1.2.1.2.9.5 1.9.7 2.9Z" class="&lt;Path&gt;"/>
          <path fill="#7358A4" d="M21.576 26.4c.066.133.033.233-.1.3-.5.2-1 .4-1.5.5-.6.2-1.2.333-1.8.4-.533.133-1.1.233-1.7.3-.933.133-1.9.167-2.9.1-.7-.1-1.5-.2-2.1-.5-.467-.2-.733-.533-.8-1-.2-1.2-.4-2.433-.6-3.7 0-.067-.033-.167-.1-.3h.1c.6.4 1.2.5 1.8.6 1 .2 2.1.2 3.1.1 1-.133 2-.3 3-.5.9-.2 1.8-.5 2.7-.8.067 0 .1-.033.1-.1.067.267.1.5.1.7.1.1.2.3.1.5-.1.1-.3.1-.4.2a3.86 3.86 0 0 0-.5.2c-.1.1-.2.2-.1.3 0 .067.067.1.2.1l.4-.2c.133-.067.3-.133.5-.2v.1l.2 1.2c.067.133.033.2-.1.2l-.8.4c-.1 0-.2.1-.1.2 0 .2.2.1.3.1l.8-.4c.066.2.1.367.1.5.067.267.1.5.1.7Z" class="&lt;Path&gt;"/>
          <path fill="#EC5F42" d="M19.976 11.1c.2.6-.2 1.3-.9 1.4h-.1c-.7.1-1.1-.2-1.3-.8a31.94 31.94 0 0 1-.7-2.7c-.2-.6.3-1.3 1.1-1.4.6 0 1 .3 1.2.9.267.867.5 1.733.7 2.6Z" class="&lt;Path&gt;"/>
          <path fill="#7358A4" d="M20.476 21.4c.1.1.1.1 0 .2-.4.1-.9.3-1.3.4-.733.2-1.5.4-2.3.6-.6.1-1.2.1-1.7.2-1.1.1-2.1.1-3 0-.7-.1-1.3-.2-1.8-.6-.8-.4-.7-1.4-.2-1.9l.3-.3c.067.133.133.233.2.3.3.5.7.7 1.2 1 .6.2 1.2.3 1.8.4 1.1.1 2.2 0 3.3-.3.9-.1 1.8-.4 2.6-.8.133-.133.233-.133.3 0l.6.8Z" class="&lt;Path&gt;"/>
          <path fill="#EC5F42" d="M17.176 11.7c.2.7-.2 1.3-.8 1.5-.4.133-.767.1-1.1-.1-.267-.067-.467-.267-.6-.6a.887.887 0 0 0-.1-.4v-.3c.6-.7.3-1.8-.5-2.4-.2-.1-.3-.3-.4-.6-.067-.2-.033-.433.1-.7.2-.4.6-.6 1.2-.7.4 0 .9.1 1.1.6.067.067.133.2.2.4.267 1.133.567 2.233.9 3.3Zm-4-2.7-.1.1c-.6 0-1 .3-1.4.7-.2.133-.434.3-.7.5-.1-.5-.2-.9-.3-1.3-.1-.5.2-1.1.8-1.3.5-.2 1.2 0 1.4.5.1.2.2.5.3.8Zm-2.6 1.5c0 .1 0 .2-.1.3-.6.467-1.167.933-1.7 1.4-.2.1-.2.1-.3-.1-.2-.8-.4-1.567-.6-2.3-.2-.8.4-1.4 1.1-1.5.5 0 1 .3 1.2.8l.4 1.4Z" class="&lt;Path&gt;"/>
        </g>
      </g>
    </g>
  </g>
</svg>
