<svg xmlns="http://www.w3.org/2000/svg" width="90" height="86" fill="none" viewBox="0 0 90 86">
  <g class="2-20-ilus">
    <g class="Group 9">
      <g class="&lt;Group&gt;">
        <g class="&lt;Group&gt;" opacity=".3">
          <g class="&lt;Group&gt;">
            <g class="&lt;Group&gt;">
              <path fill="#1C1C1A" d="M29.45 84.7c0 .7 7.901 1.3 17.601 1.3s17.6-.6 17.6-1.3c0-.8-7.9-1.4-17.6-1.4-9.7 0-17.6.6-17.6 1.4Z" class="&lt;Path&gt;"/>
            </g>
          </g>
        </g>
        <g class="&lt;Group&gt;">
          <g class="&lt;Group&gt;">
            <g class="&lt;Group&gt;">
              <g class="&lt;Group&gt;">
                <path fill="#050505" d="M60.351 56.3c0 1.4-1.1 2.6-2.5 2.5-1.5 0-2.6-1.2-2.5-2.6 0-1.4 1.1-2.5 2.5-2.5 1.5.1 2.6 1.2 2.5 2.6Zm-22.6 0c0 1.3-1.1 2.4-2.4 2.4-1.3-.1-2.4-1.2-2.4-2.5.1-1.3 1.1-2.3 2.5-2.3 1.3 0 2.3 1.1 2.3 2.4Z" class="&lt;Path&gt;"/>
                <path fill="#050505" d="M65.751 53.9c-.1 1.8-1.6 3.4-3.5 3.3-1.9 0-3.4-1.6-3.4-3.5s1.6-3.4 3.5-3.3c1.9 0 3.4 1.6 3.4 3.5Zm-31.5-2c.7 1.9-.2 4-1.9 4.6-1.8.6-3.7-.5-4.4-2.4-.7-1.9.1-4 1.9-4.6 1.7-.6 3.7.4 4.4 2.4Z" class="&lt;Path&gt;"/>
                <path fill="#050505" d="M65.651 44.4c-.2 8.7-8.7 15.7-19 15.5-10.3-.2-18.5-7.4-18.4-16.2.2-8.7 8.7-15.6 19-15.4 10.3.1 18.6 7.4 18.4 16.1Z" class="&lt;Path&gt;"/>
                <path stroke="#3F1D13" stroke-width=".5" d="M33.95 55.1c-.6.8-.5 1.9.3 2.5.8.6 1.801.4 2.401-.3m-6.701-6.8c-1.3.8-1.8 2.5-1 3.8.7 1.3 2.401 1.8 3.701 1m28.8-4.2c-1.3.7-1.8 2.3-1.1 3.6.8 1.2 2.4 1.6 3.7.9m-6.8 2.3c1 .3 1.9-.3 2.2-1.3" class="&lt;Path&gt;"/>
              </g>
              <g class="&lt;Group&gt;">
                <path fill="#803531" stroke="#050505" stroke-linecap="round" stroke-linejoin="round" stroke-width=".4" d="M54.751 81.6s-1.6-4.4-2-5.7c-.4-1.5-1.6-2-2.7-1.7-1 .3-1.7 1.1-1.2 2.8.4 1.7 1.8 5.7 1.8 5.7.6 2.5 5 1.4 4.1-1.1Z" class="&lt;Path&gt;"/>
                <path fill="#050505" d="M51.651 82.3c.6 1.3 2.9 1.4 1.7 1.7-1.1.3-2.4-.1-2.7-1.3 0 0-1.4-4-1.8-5.7-.5-1.7.2-2.5 1.2-2.8 1.1-.3 2.3.2 2.7 1.7.4 1.3-2.4 1.4-2.1 2.6.1.5.6 2.9 1 3.8Z" class="&lt;Path&gt;" opacity=".4"/>
              </g>
              <g class="&lt;Group&gt;">
                <g class="&lt;Path&gt;">
                  <path fill="#803531" d="M54.851 82.7c.2.5.5 1.5 2 2.2l-6.3-.2.1-2"/>
                  <path stroke="#050505" stroke-linecap="round" stroke-linejoin="round" stroke-width=".4" d="M54.851 82.7c.2.5.5 1.5 2 2.2l-6.3-.2.1-2"/>
                </g>
                <path fill="#050505" d="M51.751 82.7c.1.8 0 1.5 1.5 2.1l-2.7-.1.1-2" class="&lt;Path&gt;" opacity=".4"/>
              </g>
              <g class="&lt;Group&gt;">
                <path fill="#EE4963" stroke="#050505" stroke-linecap="round" stroke-linejoin="round" stroke-width=".4" d="M50.051 84.7c0 .067.067.1.2.1l6.8.1c.067 0 .1-.033.1-.1v-.3c0-.133-.033-.2-.1-.2l-6.8-.1c-.067 0-.133.033-.2.1v.4Zm3.399-3.2s.001-.8.601-.8h1.2c.5 0 .1.5 0 .8-.1.2-.1.7.1 1l.6 1-.8.4-1.6-1.4-.1-1Z" class="&lt;Path&gt;"/>
                <path fill="#F69226" stroke="#050505" stroke-linecap="round" stroke-linejoin="round" stroke-width=".4" d="M50.251 84.2v-1.6c0-.3.2-.5.6-.5.4 0 .7.3 1.5 0 .7-.3.8-.5 1.1-.6.3-.2.4 0 .5.4l.1.7 1.3 1.1v.6l-5.1-.1Z" class="&lt;Path&gt;"/>
                <path fill="#FEFEFE" stroke="#050505" stroke-linecap="round" stroke-linejoin="round" stroke-width=".4" d="M57.051 84.3c0-.2-.8-.8-1.1-.8-.8 0-1.3.8-1.3.8h2.4Z" class="&lt;Path&gt;"/>
                <path stroke="#050505" stroke-linecap="round" stroke-linejoin="round" stroke-width=".4" d="M53.751 82.7c.3-.4 1.3-.5 1.6-.4m-1.2.8c.4-.4 1.2-.5 1.5-.4m-1 .8c.3-.4 1-.4 1.3-.3" class="&lt;Path&gt;"/>
                <path fill="#EE4963" stroke="#050505" stroke-linecap="round" stroke-linejoin="round" stroke-width=".4" d="M52.251 82.8c.6 0 .9.1 1.2.4l1.2 1.1h-.9l-.7-.7c-.133-.133-.4-.2-.8-.2-.2 0-2-.1-2-.1v-.5h2Z" class="&lt;Path&gt;"/>
              </g>
              <g class="&lt;Group&gt;">
                <path fill="#803531" stroke="#050505" stroke-linecap="round" stroke-linejoin="round" stroke-width=".4" d="M37.951 81.3s1.8-4.4 2.2-5.6c.4-1.6 1.7-2 2.8-1.6 1 .3 1.6 1.1 1.1 2.8-.5 1.7-2 5.6-2 5.6-.8 2.5-5.1 1.3-4.1-1.2Z" class="&lt;Path&gt;"/>
                <path fill="#050505" d="M41.051 82.1c-.6 1.2-2.9 1.3-1.8 1.6 1.2.3 2.4.1 2.8-1.2 0 0 1.5-3.9 2-5.6.5-1.7-.1-2.5-1.1-2.8-1.1-.4-2.4 0-2.8 1.6-.4 1.2 2.4 1.5 2.1 2.6-.2.5-.8 2.9-1.2 3.8Z" class="&lt;Path&gt;" opacity=".4"/>
              </g>
              <g class="&lt;Group&gt;">
                <g class="&lt;Path&gt;">
                  <path fill="#803531" d="M37.851 82.4c-.2.5-.6 1.5-2.1 2.1l6.3.1v-2.1"/>
                  <path stroke="#050505" stroke-linecap="round" stroke-linejoin="round" stroke-width=".4" d="M37.851 82.4c-.2.5-.6 1.5-2.1 2.1l6.3.1v-2.1"/>
                </g>
                <path fill="#050505" d="M40.95 82.5c-.1.8-.099 1.5-1.599 2.1h2.7v-2.1" class="&lt;Path&gt;" opacity=".4"/>
              </g>
              <g class="&lt;Group&gt;">
                <path fill="#EE4963" stroke="#050505" stroke-linecap="round" stroke-linejoin="round" stroke-width=".4" d="M42.551 84.5c0 .133-.067.2-.2.2l-6.8-.2c-.067 0-.1-.033-.1-.1v-.3c0-.133.033-.2.1-.2l6.9.2c.067 0 .1.033.1.1v.3Zm-3.3-3.3s0-.8-.5-.8h-1.3c-.4 0-.1.5 0 .8.1.2.1.7-.1 1l-.7 1 .9.3 1.6-1.3.1-1Z" class="&lt;Path&gt;"/>
                <path fill="#F69226" stroke="#050505" stroke-linecap="round" stroke-linejoin="round" stroke-width=".4" d="M42.45 84.1v-1.6c0-.4-.199-.6-.599-.6-.4 0-.7.3-1.5-.1-.7-.3-.8-.4-1.1-.6-.3-.1-.3.1-.4.4l-.2.7-1.4 1.1v.6l5.2.1Z" class="&lt;Path&gt;"/>
                <path fill="#FEFEFE" stroke="#050505" stroke-linecap="round" stroke-linejoin="round" stroke-width=".4" d="M35.551 83.9c0-.2.8-.7 1.1-.7.8 0 1.3.8 1.3.8l-2.4-.1Z" class="&lt;Path&gt;"/>
                <path stroke="#050505" stroke-linecap="round" stroke-linejoin="round" stroke-width=".4" d="M38.95 82.4c-.3-.4-1.299-.5-1.599-.4m1.099.8c-.3-.4-1.099-.5-1.399-.4m.899.8c-.3-.4-.899-.5-1.199-.4" class="&lt;Path&gt;"/>
                <path fill="#EE4963" stroke="#050505" stroke-linecap="round" stroke-linejoin="round" stroke-width=".4" d="M40.351 82.6c-.5 0-.8.1-1.1.4l-1.3 1h.9l.7-.7c.133-.133.4-.167.8-.1h2.1v-.5s-1.9-.1-2.1-.1Z" class="&lt;Path&gt;"/>
              </g>
              <g class="&lt;Group&gt;">
                <path fill="#803531" stroke="#050505" stroke-linecap="round" stroke-linejoin="round" stroke-width=".4" d="M62.95 57.6c-2.2 3-5 4.8-7.9 6.3-3 1.5-5-2.7-2.1-4.1 3-1.4 4.2-2.2 6.3-4.8.4-.6 1.8-1.1 3-.1s1.1 2.1.7 2.7Z" class="&lt;Path&gt;"/>
                <path fill="#050505" d="M62.95 57.6c-2.2 3-5 4.8-7.9 6.3-3 1.5-5-2.7-2.1-4.1 1.2-.5 2.8 2.3 4 1.7 1.8-.8 4.1-2.8 5.3-4.4.5-.6.6-1.5 0-2.2 1.2 1 1.1 2.1.7 2.7Z" class="&lt;Path&gt;" opacity=".4"/>
              </g>
              <g class="&lt;Group&gt;">
                <path fill="#803531" d="M60.25 57.4c.8.7 2.001.6 2.601-.1.5-.7.3-1.9-.6-2.5-.9-.7-2.1-.7-2.6.1-.6.7-.3 1.8.6 2.5Z" class="&lt;Path&gt;"/>
                <g class="&lt;Group&gt;">
                  <g class="&lt;Group&gt;">
                    <g class="&lt;Group&gt;">
                      <g class="&lt;Path&gt;">
                        <path fill="#803531" d="M59.151 55.1c.5-.7 1.7-2.3 2.3-2.9.8-.6 1.6-.2 2.5.4 1 .9 1.4 1.9.6 2.9l-.7.9-.9 1.2"/>
                        <path stroke="#050505" stroke-linecap="round" stroke-linejoin="round" stroke-width=".4" d="M59.151 55.1c.5-.7 1.7-2.3 2.3-2.9.8-.6 1.6-.2 2.5.4 1 .9 1.4 1.9.6 2.9l-.7.9-.9 1.2"/>
                      </g>
                    </g>
                  </g>
                  <g class="&lt;Group&gt;">
                    <g class="&lt;Path&gt;">
                      <path fill="#803531" d="M59.751 54.7v-1.1c0-.4.3-.8.7-.8.4 0 .7.3.7.5.2.3.1.6.1.6"/>
                      <path stroke="#050505" stroke-linecap="round" stroke-linejoin="round" stroke-width=".4" d="M59.751 54.7v-1.1c0-.4.3-.8.7-.8.4 0 .7.3.7.5.2.3.1.6.1.6"/>
                    </g>
                  </g>
                  <path fill="#050505" d="M61.25 53.2s.401.3.401.7c.1.4 0 .7.2.8.2.2 1 1 1.4.9.3-.1 1.5-1.1 1-1.8-.4-.7-1.8-1.9-2.5-1.4-.8.5-.5.8-.5.8Z" class="&lt;Path&gt;" opacity=".2" style="mix-blend-mode:multiply"/>
                </g>
              </g>
              <g class="&lt;Group&gt;">
                <path fill="#803531" stroke="#050505" stroke-linecap="round" stroke-linejoin="round" stroke-width=".4" d="M30.45 57c2.1 3.1 4.801 5 7.701 6.6 2.8 1.6 5.1-2.5 2.2-4-2.9-1.6-4.1-2.4-6.1-5.1-.4-.6-1.7-1.1-3-.2-1.2 1-1.2 2.1-.8 2.7Z" class="&lt;Path&gt;"/>
                <path fill="#050505" d="M30.45 57c2.1 3.1 4.801 5 7.701 6.6 2.8 1.6 5.1-2.5 2.2-4-1.1-.6-2.9 2.2-4.1 1.6-1.8-.9-3.9-3-5.1-4.7-.5-.6-.6-1.4.1-2.2-1.2 1-1.2 2.1-.8 2.7Z" class="&lt;Path&gt;" opacity=".4"/>
              </g>
              <g class="&lt;Group&gt;">
                <path fill="#803531" d="M33.151 56.9c-.9.7-2 .6-2.6-.2-.5-.7-.2-1.9.7-2.5.9-.7 2.1-.6 2.6.2.5.7.2 1.9-.7 2.5Z" class="&lt;Path&gt;"/>
                <g class="&lt;Group&gt;">
                  <g class="&lt;Group&gt;">
                    <g class="&lt;Group&gt;">
                      <g class="&lt;Path&gt;">
                        <path fill="#803531" d="M34.351 54.7c-.5-.8-1.6-2.4-2.2-3-.8-.7-1.7-.3-2.5.3-1 .8-1.5 1.8-.8 2.9l.7.9.9 1.2"/>
                        <path stroke="#050505" stroke-linecap="round" stroke-linejoin="round" stroke-width=".4" d="M34.351 54.7c-.5-.8-1.6-2.4-2.2-3-.8-.7-1.7-.3-2.5.3-1 .8-1.5 1.8-.8 2.9l.7.9.9 1.2"/>
                      </g>
                    </g>
                  </g>
                  <path fill="#050505" d="M32.251 52.7s-.4.2-.4.6c0 .4 0 .8-.2.9-.2.1-1.1.9-1.4.8-.3-.1-1.5-1.2-1-1.9s1.9-1.8 2.6-1.2c.7.5.4.8.4.8Z" class="&lt;Path&gt;" opacity=".2" style="mix-blend-mode:multiply"/>
                </g>
              </g>
              <g class="&lt;Group&gt;">
                <path fill="#F69226" stroke="#050505" stroke-linecap="round" stroke-linejoin="round" stroke-width=".4" d="M46.45 75.1c-7.2-.2-7.399-1.6-7.799-4.6-.2-2.3.8-8.5 1.3-10.4.9-3.1 3.4-4.2 6.9-4.2 3.5.1 5.9 1.3 6.7 4.5.4 1.9 1.2 8.1.9 10.4-.5 3-.8 4.4-8 4.3Z" class="&lt;Path&gt;"/>
                <path fill="#EE4963" stroke="#050505" stroke-linecap="round" stroke-linejoin="round" stroke-width=".4" d="M42.051 65.4c-.7-2.3-1.5-5.1-.8-8.4l1.8.4c-.6 2.9.1 5.5.7 7.5l-1.7.5Z" class="&lt;Path&gt;"/>
                <path fill="#EE4763" stroke="#050505" stroke-linecap="round" stroke-linejoin="round" stroke-width=".4" d="M46.45 75.2 45.252 78c-5.5-1.2-7.3-2.5-7.3-2.5s.2-2.7.5-5c.4.2 2 .5 2 .5l2-6s2.4.7 4.2.7c1.8 0 4.3-.5 4.3-.5l1.7 6s1.6-.2 2-.4c.2 2.3.3 5.2.3 5.2s-1.9 1.1-7.4 1.9l-1.1-2.7Z" class="&lt;Path&gt;"/>
                <path fill="#050505" d="M46.45 75.2 45.252 78l-1-.2s1.3-3.2 2.2-3.1c.9 0 2.1 3 2.1 3l-1 .2-1.1-2.7Zm8.201-4.4c.2 2.3.3 5.2.3 5.2s-.5.3-1.8.7c.6-.8 1.1-2.3.6-5.7l.9-.2Z" class="&lt;Path&gt;" opacity=".4"/>
                <path stroke="#6ECFF5" stroke-dasharray=".8 .8" stroke-linecap="round" stroke-linejoin="round" stroke-width=".4" d="M54.551 75.4s-2 .9-7.2 1.8" class="&lt;Path&gt;"/>
                <path fill="#050505" d="M38.45 70.5c-.3 2.3-.5 5-.5 5s.501.4 1.801.9c-.5-.9-1-2.3-.4-5.7l-.9-.2Z" class="&lt;Path&gt;" opacity=".4"/>
                <path stroke="#6ECFF5" stroke-dasharray=".8 .8" stroke-linecap="round" stroke-linejoin="round" stroke-width=".4" d="M38.45 74.9s1.9 1.1 7 2.5" class="&lt;Path&gt;"/>
                <path fill="#803531" stroke="#050505" stroke-linecap="round" stroke-linejoin="round" stroke-width=".4" d="M42.45 58.3c0 2.4 1.901 4.3 4.301 4.4 2.3 0 4.3-1.9 4.4-4.3 0-2.3-1.9-4.3-4.3-4.3-2.4-.1-4.3 1.8-4.4 4.2Z" class="&lt;Path&gt;"/>
                <path fill="#EE4963" stroke="#050505" stroke-linecap="round" stroke-linejoin="round" stroke-width=".4" d="M51.251 65.6c.8-2.3 1.7-5.1 1.1-8.3l-1.8.2c.5 3-.3 5.5-1 7.6l1.7.5Z" class="&lt;Path&gt;"/>
                <path fill="#6ECFF5" stroke="#050505" stroke-linecap="round" stroke-linejoin="round" stroke-width=".4" d="M51.551 65.4c0 .6-.5 1.1-1.2 1.1-.6 0-1.1-.6-1.1-1.2s.6-1.1 1.2-1.1 1.1.5 1.1 1.2Zm-9.8-.2c0 .6.5 1.1 1.1 1.1.7.1 1.2-.4 1.2-1.1 0-.6-.5-1.1-1.1-1.1-.7-.1-1.2.4-1.2 1.1Z" class="&lt;Path&gt;"/>
                <path fill="#050505" d="M42.051 66c.5.4 1.2.5 1.7 0 0 0-.9.1-1.3-.3-.5-.5-.3-1.3-.3-1.3-.5.4-.5 1.1-.1 1.6Zm9.2.2c-.5.4-1.2.4-1.7-.1 0 0 .9.1 1.3-.3.5-.4.4-1.3.4-1.3.4.5.4 1.2 0 1.7Z" class="&lt;Path&gt;" opacity=".4"/>
                <g class="&lt;Group&gt;">
                  <g class="&lt;Group&gt;">
                    <path stroke="#6ECFF5" stroke-linecap="round" stroke-linejoin="round" stroke-width=".4" d="m51.351 71.5.3-.1-.1-.3" class="&lt;Path&gt;"/>
                    <path stroke="#6ECFF5" stroke-dasharray=".8 .8" stroke-linecap="round" stroke-linejoin="round" stroke-width=".4" d="m51.351 70.3-.7-2.5" class="&lt;Path&gt;"/>
                    <path stroke="#6ECFF5" stroke-linecap="round" stroke-linejoin="round" stroke-width=".4" d="m50.551 67.4-.1-.3h-.3" class="&lt;Path&gt;"/>
                    <path stroke="#6ECFF5" stroke-dasharray=".8 .8" stroke-linecap="round" stroke-linejoin="round" stroke-width=".4" d="m49.45 67.1-2.799-.1h-3.2" class="&lt;Path&gt;"/>
                    <path stroke="#6ECFF5" stroke-linecap="round" stroke-linejoin="round" stroke-width=".4" d="M43.151 67h-.3l-.1.3" class="&lt;Path&gt;"/>
                    <path stroke="#6ECFF5" stroke-dasharray=".8 .8" stroke-linecap="round" stroke-linejoin="round" stroke-width=".4" d="m42.45 68-.799 2.5" class="&lt;Path&gt;"/>
                    <path stroke="#6ECFF5" stroke-linecap="round" stroke-linejoin="round" stroke-width=".4" d="m41.551 70.9-.1.3.3.1" class="&lt;Path&gt;"/>
                    <path stroke="#6ECFF5" stroke-dasharray=".8 .8" stroke-linecap="round" stroke-linejoin="round" stroke-width=".4" d="m42.351 71.5 4.2 1.5 4.5-1.4" class="&lt;Path&gt;"/>
                  </g>
                </g>
                <path fill="#050505" d="M46.75 62c-2.1 0-3.2-.4-4.5-1.1-1-.6-1.699 0-1.899 1.4-.3 1.6-1.4 7.7-.5 7.9.4.1 1.7-4 2.2-4.2l-1.6 5-1.8-.5c-.2-2.3.8-8.5 1.3-10.4.9-3.1 3.4-4.2 6.9-4.2 3.5.1 5.9 1.3 6.7 4.5.4 1.9 1.2 8.1.9 10.4l-1.8.4-1.4-5c.5.2 1.6 4.3 2.1 4.2.8-.1 0-6.2-.3-7.9-.2-1.4-.8-2-1.9-1.4-1.3.6-2.4 1-4.4.9Z" class="&lt;Path&gt;" opacity=".4"/>
              </g>
              <g class="&lt;Group&gt;">
                <path fill="#803531" stroke="#050505" stroke-linecap="round" stroke-linejoin="round" stroke-width=".4" d="M33.651 47.2c-.1 7.4 3.7 13.2 13 13.7 9.2.6 13.3-5.8 13.5-13.2.1-7.5-5.7-13.6-13-13.8-7.3-.1-13.3 5.8-13.5 13.3Z" class="&lt;Path&gt;"/>
                <path fill="#050505" d="m36.051 47.1.4 1s-2 11.6 11 12.9c.1 0-.2-.3-.7 0-.067 0-.1-.033-.1-.1-9.3-.5-13.1-6.3-13-13.7.1-2 .5-3.9 1.3-5.6.6 1.3 1.1 5.5 1.1 5.5Z" class="&lt;Path&gt;" opacity=".4"/>
              </g>
              <path fill="#FEFEFE" d="M49.151 51.9s.9-3.7 5.7-2.3c0 0-.1 2.9-2.6 3.2-2.5.2-3.1-.9-3.1-.9Zm-5.201.2s-.499-3.8-5.299-2.9c0 0-.3 3 2.2 3.5 2.5.4 3.1-.6 3.1-.6Z" class="&lt;Path&gt;"/>
              <path fill="#050505" d="M44.851 53.4s.6 1.1 1.7 1.1c1.2 0 2-1.2 2-1.2s-1.3.6-1.9.6c-.5 0-1.8-.5-1.8-.5Z" class="&lt;Path&gt;"/>
              <g class="&lt;Group&gt;">
                <g class="&lt;Group&gt;">
                  <path fill="#050505" d="M58.351 30.3c-.1 1.9-1.8 3.4-3.8 3.4-2-.1-3.6-1.7-3.6-3.6 0-1.9 1.7-3.4 3.7-3.4 2.1 0 3.7 1.6 3.7 3.6Zm-16.901-.2c0 1.5-1.299 2.7-2.799 2.7-1.6-.1-2.8-1.4-2.8-2.9.1-1.6 1.4-2.8 2.9-2.7 1.6 0 2.8 1.3 2.7 2.9Z" class="&lt;Path&gt;"/>
                  <path fill="#050505" d="M63.851 33.9c0 2.4-2 4.3-4.3 4.2-2.4 0-4.3-2-4.2-4.3 0-2.4 2-4.2 4.3-4.2 2.4 0 4.3 2 4.2 4.3Zm-29.9 3.9c0 2.4-2 4.3-4.4 4.3-2.4 0-4.3-2-4.2-4.4 0-2.4 2-4.3 4.4-4.3 2.4.1 4.3 2.1 4.2 4.4Zm18.4-8.3c0 2.9-2.9 5.3-6.4 5.2-3.5 0-6.3-2.5-6.2-5.4 0-3 2.9-5.3 6.4-5.3 3.5.1 6.3 2.5 6.2 5.5Z" class="&lt;Path&gt;"/>
                  <path fill="#050505" d="M38.451 32.7c-.1 2.4-2 4.2-4.3 4.2-2.4 0-4.3-2-4.2-4.3 0-2.4 2-4.2 4.3-4.2 2.4.1 4.2 2 4.2 4.3Zm-4.9 12.6c-.1 2.6-2.1 4.7-4.5 4.6-2.4 0-4.3-2.1-4.3-4.7.1-2.6 2.1-4.7 4.5-4.6 2.4 0 4.3 2.1 4.3 4.7Zm35.7 1.6c0 2.6-2 4.8-4.5 4.7-2.4 0-4.3-2.2-4.2-4.9 0-2.7 2-4.8 4.4-4.8 2.4.1 4.3 2.3 4.3 5Z" class="&lt;Path&gt;"/>
                  <path fill="#050505" d="M67.651 38.7c-.1 2.2-1.9 4-4.1 3.9-2.2 0-4-1.8-3.9-4 0-2.2 1.8-4 4-4 2.2.1 4 1.9 4 4.1Z" class="&lt;Path&gt;"/>
                  <g class="&lt;Group&gt;">
                    <path fill="#050505" d="M49.45 40.3c0 1.7-1.499 3.1-3.299 3.1-1.7 0-3.1-1.5-3.1-3.3 0-1.7 1.5-3.1 3.2-3.1 1.8 0 3.2 1.5 3.2 3.3Z" class="&lt;Path&gt;"/>
                    <path fill="#050505" d="M55.551 40.7a3.4 3.4 0 0 1-3.4 3.2c-1.8 0-3.2-1.5-3.2-3.3 0-1.8 1.5-3.3 3.3-3.2 1.8 0 3.3 1.5 3.3 3.3Z" class="&lt;Path&gt;"/>
                    <path fill="#050505" d="M60.351 43.2c0 1.8-1.5 3.3-3.3 3.3a3.4 3.4 0 0 1-3.2-3.4c0-1.8 1.5-3.2 3.3-3.2 1.8 0 3.3 1.5 3.2 3.3Z" class="&lt;Path&gt;"/>
                    <path fill="#050505" d="M62.45 47.5c0 1.4-1.199 2.6-2.599 2.5-1.4 0-2.5-1.1-2.5-2.6 0-1.4 1.2-2.5 2.6-2.5 1.4.1 2.5 1.2 2.5 2.6Zm-25.799-.7c-.1 1.4-1.2 2.5-2.6 2.5-1.5-.1-2.6-1.2-2.5-2.6 0-1.5 1.1-2.6 2.5-2.5 1.5 0 2.6 1.1 2.6 2.6Z" class="&lt;Path&gt;"/>
                    <path fill="#050505" d="M39.451 43.8c0 1.1-1 2-2.1 2s-2.1-1-2-2.1c0-1.1.9-2 2.1-2 1.1 0 2 .9 2 2.1Z" class="&lt;Path&gt;"/>
                    <path fill="#050505" d="M43.95 40.9c0 1.6-1.4 2.9-3 2.9-1.6-.1-2.899-1.4-2.899-3.1 0-1.6 1.4-2.9 3-2.9 1.6.1 2.9 1.4 2.9 3.1Z" class="&lt;Path&gt;"/>
                    <path fill="#050505" d="m33.851 48.4 5.6-6.6 5.8-1.1 6 .6 4.2 2.7 2.8 1.8 1.6 2.6 3.2-2.5 1-6.8-8.1-7.9-8.6-1.1-9.3.5-6.9 6.7-2.4 7.5 5.1 3.6Z" class="&lt;Path&gt;"/>
                  </g>
                </g>
                <path stroke="#3F1D13" stroke-width=".5" d="M36.051 44.2c-.9-.1-1.6-.9-1.5-1.8.1-.9.9-1.6 1.9-1.5.9.1 1.6.9 1.5 1.9m22.1 6.2c.9.1 1.7-.6 1.8-1.6 0-.9-.7-1.7-1.6-1.7-1-.1-1.8.6-1.8 1.6M41.651 28c.5-1.2 1.5-2.2 3-2.6 1.9-.6 3.9.1 4.9 1.5.267.267.467.6.6 1" class="&lt;Path&gt;"/>
                <path stroke="#3F1D13" stroke-width=".4" d="M48.651 31.2c-.2-1-1.2-1.7-2.2-1.6-.5.1-.9.4-1.2.8" class="&lt;Path&gt;"/>
                <path stroke="#3F1D13" stroke-width=".5" d="M33.751 29.7c-1.6.2-2.7 1.7-2.5 3.3.3 1.6 1.8 2.7 3.3 2.4m4.6-1.3c1.6 0 2.9-1.2 3-2.8.1-1.5-1.2-2.9-2.7-2.9-1.6-.1-3 1.1-3 2.7" class="&lt;Path&gt;"/>
                <path stroke="#3F1D13" stroke-width=".4" d="M58.451 38.4c-.7-1.9-2.7-2.8-4.6-2.1-1.8.7-2.7 2.8-2 4.6" class="&lt;Path&gt;"/>
                <path stroke="#3F1D13" stroke-width=".5" d="M64.551 40.7c1.2-.4 1.9-1.7 1.5-3-.4-1.2-1.7-1.9-2.9-1.5" class="&lt;Path&gt;"/>
                <path stroke="#3F1D13" stroke-width=".4" d="M49.651 34.3c-2.4-1-5.1 0-6.1 2.4" class="&lt;Path&gt;"/>
                <path stroke="#3F1D13" stroke-width=".5" d="M66.95 49.4c1.4-1.5 1.201-3.9-.399-5.2" class="&lt;Path&gt;"/>
                <path stroke="#3F1D13" stroke-width=".4" d="M33.45 48.3c1.3-.1 2.301-1.3 2.201-2.6" class="&lt;Path&gt;"/>
                <path stroke="#3F1D13" stroke-width=".5" d="M55.351 44.2c.2.8 1 1.2 1.8 1 .7-.2 1.2-1 1-1.8m-18.6-1c1.5.4 3-.5 3.4-1.9.4-1.5-.4-3-1.9-3.5-1.4-.4-2.9.5-3.4 1.9" class="&lt;Path&gt;"/>
                <path stroke="#3F1D13" stroke-width=".4" d="M63.051 39.6c-1.3-.7-3-.1-3.6 1.2-.7 1.4-.1 3.1 1.2 3.7 1.4.7 3 .1 3.7-1.3m-34.6-.9c-1 .7-1.2 2.2-.5 3.2s2.2 1.3 3.2.6c1-.8 1.3-2.2.5-3.2" class="&lt;Path&gt;"/>
                <path stroke="#3F1D13" stroke-width=".5" d="M59.751 37.7c1.9-.3 3.3-2.1 3-4.1-.3-1.9-2.1-3.3-4.1-3-1.9.3-3.3 2.1-3 4.1m-5.3 4.8c-.7 1-.4 2.4.7 3.1 1 .7 2.4.4 3.1-.6m-26.2.8c-1.6.5-2.4 2.2-1.9 3.8.5 1.6 2.2 2.4 3.8 1.9m-3.3-10.9c0 1.7 1.3 3 2.9 3 1.6 0 2.9-1.2 2.9-2.8 0-1.7-1.2-3-2.8-3-1.6 0-2.9 1.2-3 2.8Z" class="&lt;Path&gt;"/>
                <path stroke="#3F1D13" stroke-width=".4" d="M35.251 36.5c.9.5 2 .1 2.5-.8s.1-2-.8-2.5c-.9-.4-2-.1-2.5.8" class="&lt;Path&gt;"/>
                <g class="&lt;Group&gt;">
                  <path stroke="#3F1D13" stroke-width=".4" d="M44.45 40.2c0 1.1.801 1.9 1.801 1.9m1.9-1.8c0-1-.8-1.9-1.8-1.9" class="&lt;Path&gt;"/>
                </g>
                <path stroke="#3F1D13" stroke-width=".5" d="M51.651 30.8c-.1 1.6 1.2 2.9 2.8 2.9 1.6 0 2.9-1.2 2.9-2.8 0-1.6-1.2-2.9-2.8-3-1.6 0-2.9 1.3-2.9 2.9Z" class="&lt;Path&gt;"/>
              </g>
              <g class="&lt;Group&gt;">
                <path fill="#855226" d="M53.251 51c0 .8-.6 1.6-1.4 1.6-.8.1-1.5-.6-1.6-1.5 0-.8.6-1.6 1.4-1.6.8-.1 1.5.6 1.6 1.5Z" class="&lt;Path&gt;"/>
                <path fill="#050505" d="M52.251 51.1c0 .2-.2.5-.5.4-.2 0-.4-.2-.4-.5 0-.2.2-.5.4-.5.3.1.5.3.5.6Z" class="&lt;Path&gt;"/>
                <path fill="#FEFEFE" d="M51.351 50.5c0 .1-.1.3-.2.3-.2 0-.3-.2-.3-.3 0-.2.1-.3.3-.3.1 0 .2.1.2.3Z" class="&lt;Path&gt;"/>
              </g>
              <g class="&lt;Group&gt;">
                <path fill="#855226" d="M40.051 50.8c-.1.8.4 1.6 1.2 1.8.8.1 1.6-.5 1.7-1.4.2-.8-.4-1.6-1.2-1.7-.8-.2-1.5.4-1.7 1.3Z" class="&lt;Path&gt;"/>
                <path fill="#050505" d="M41.051 51c0 .2.2.5.4.5.3 0 .5-.2.5-.5 0-.2-.2-.5-.4-.5-.3 0-.5.2-.5.5Z" class="&lt;Path&gt;"/>
                <path fill="#FEFEFE" d="M41.95 50.5c0 .1.101.3.201.3.2 0 .3-.1.3-.3.1-.1-.1-.3-.2-.3-.2 0-.3.1-.3.3Z" class="&lt;Path&gt;"/>
              </g>
              <path stroke="#050505" stroke-linecap="round" stroke-linejoin="round" stroke-width=".5" d="m37.551 47.8 1.1 1.3s4.6-.5 5.3 3" class="&lt;Path&gt;"/>
              <g class="&lt;Path&gt;">
                <path fill="#BB8653" d="m38.851 47.9.6 1.2Z"/>
                <path stroke="#050505" stroke-linecap="round" stroke-linejoin="round" stroke-width=".5" d="m38.851 47.9.6 1.2"/>
              </g>
              <path stroke="#050505" stroke-linecap="round" stroke-linejoin="round" stroke-width=".5" d="m56.051 48.3-1.2 1.2s-4.6-1.1-5.6 2.4" class="&lt;Path&gt;"/>
              <g class="&lt;Path&gt;">
                <path fill="#BB8653" d="m54.751 48.2-.8 1.1Z"/>
                <path stroke="#050505" stroke-linecap="round" stroke-linejoin="round" stroke-width=".5" d="m54.751 48.2-.8 1.1"/>
              </g>
              <path stroke="#050505" stroke-linecap="round" stroke-linejoin="round" stroke-width=".6" d="M50.151 47.7s2.3-1.2 3.9.9m-10.601-.9s-2.2-1.3-4 .6" class="&lt;Path&gt;"/>
              <path fill="#050505" d="M43.251 56.4c.3-.9 1.9-.5 2.7-.4.2.1.6.1.9.1.2.1.6 0 .9 0 .9-.1 2.4-.5 2.7.5.4.9-.4 2.9-3.3 3h-.4c-.067 0-.167-.033-.3-.1-2.9-.2-3.6-2.1-3.2-3.1Z" class="&lt;Path&gt;"/>
            </g>
            <g class="&lt;Group&gt;">
              <g class="&lt;Path&gt;">
                <path fill="#803531" d="m33.351 53.1-1.1-.3c-.4-.1-.9 0-1 .4-.1.4.1.7.2.8.3.3.6.3.6.3"/>
                <path stroke="#050505" stroke-linecap="round" stroke-linejoin="round" stroke-width=".4" d="m33.351 53.1-1.1-.3c-.4-.1-.9 0-1 .4-.1.4.1.7.2.8.3.3.6.3.6.3"/>
              </g>
            </g>
          </g>
        </g>
      </g>
      <g class="&lt;Group&gt;">
        <g class="&lt;Group&gt;">
          <path fill="#8A52A0" d="M66.484 33.7c-5.2-.9-9.5-3.1-9.5-3.1s-6.4-2.9-10.6-6.1c-4.2-3.2-4.4 3.3 7.1 8.4 11.6 5 18.2 1.7 13 .8Z" class="&lt;Path&gt;"/>
        </g>
        <path fill="#8A52A0" d="M66.484 33.7c-5.2-.9-9.5-3.1-9.5-3.1s-5.1-2.4-8.6-4.7c-.7.3-1.5 1-.4 2.1 1.6 1.8 10 7.2 15.1 6.7 1.5.1 2.6-.2 3.7.7 2-.4 2.1-1.3-.3-1.7Z" class="&lt;Path&gt;" opacity=".5" style="mix-blend-mode:multiply"/>
        <g class="&lt;Group&gt;">
          <path fill="#8A52A0" d="M60.984 15.8c-4.5-2-7.7-3.8-7.7-3.8l-4.4 16c2.3 2 10.3 5.9 13.3 6.2l8.7-14.1s-5.3-2.4-9.9-4.3Z" class="&lt;Path&gt;"/>
        </g>
        <path fill="#FAA918" d="m49.684 25.1-.8 2.9c2.3 2 10.3 5.9 13.3 6.2l1.6-2.6c-3.4-.5-11.4-4.4-14.1-6.5Z" class="&lt;Path&gt;"/>
        <path fill="#8A52A0" d="m49.084 27.4-.2.6c2.3 2 10.3 5.9 13.3 6.2l8.7-14.1s-.7-.2-1.9-.6c-2 3.8-10.8 13.5-19.9 7.9Z" class="&lt;Path&gt;" opacity=".5" style="mix-blend-mode:multiply"/>
      </g>
      <path fill="#FCE003" d="M19.936 28.425c-1.532-1.055-2.72-2.335-4.613-1.993-.41.038-.352 2.03-.73 2.16 1.988-.374 3.176.906 4.614 1.993 1.245.837 3.023 1.382 4.143.038.435-.575.262-1.68.73-2.16-1.215 1.376-2.899.799-4.144-.038Zm4.708 43.009c1.116-1.66 2.585-2.913 2.144-5.09-.037-.41-2.25-.38-2.382-.758.408 2.082-1.029 3.43-2.144 5.09-1.088 1.438-1.632 3.216-.19 4.62.575.435 1.869.196 2.382.758-1.41-1.31-.897-3.182.19-4.62Z" class="&lt;Path&gt;"/>
      <path fill="#DD4297" d="M8.302 45.04c-.441-2.175.793-4.406 2.805-5.319-.284.099-1.476-1.498-1.853-1.366-2.106.946-3.246 3.144-2.867 5.447.07.505 1.75.767 1.915 1.239Zm6.845 35.136c-2.21.346-4.44-.888-5.353-2.9.099.284-1.498 1.476-1.366 1.853.946 2.106 3.144 3.247 5.447 2.867.505-.07.767-1.75 1.272-1.82ZM78.52 48.843c-.724-2.077-.027-4.332 1.79-5.496-.25.193-1.659-1.116-2.004-.89-1.818 1.164-2.515 3.419-1.79 5.496.164.472 1.84.418 2.004.89Z" class="&lt;Path&gt;"/>
      <path fill="#7358A4" fill-rule="evenodd" d="M68.976 63.008c.58-.065.944-1.728 1.444-1.733 2.738-.205 4.808 2.996 7.022 4.576-.04-.053-.054-.126-.042-.22-.01-1 .935-2.728 2.188-3.56.696-.406 1.514-.653 2.159-.139 2.293 1.52-.1 4.481-1.61 5.635.325.424.655.8.991 1.13 1.654 1.506 3.92 2.165 6.177 1.825-.58.065-.926 1.588-1.505 1.654-2.916.466-6.41-1.142-7.835-3.83-3.14.01-5.452-5.65-8.99-5.338Zm10.573 3.624c.427.01.899-.141 1.416-.453.486-1.504-.43-3.196-2.046-2.841-.21 1.042.06 2.22.63 3.294ZM7.164 68.097c.04-.498-1.384-1.255-1.343-1.753.4-2.737 3.957-4.035 5.888-5.846l-.138-.031c-.965-.219-2.487-1.505-2.98-2.849-.397-.814-.347-1.673.276-2.185 1.963-1.949 4.33 1.051 5.174 2.765.43-.193.871-.432 1.322-.716 1.838-1.397 2.942-3.395 3.027-5.696.014.583 1.384 1.255 1.313 1.892-.157 2.937-2.453 6.042-5.386 6.83-.633 3.119-6.65 4.078-7.153 7.59Zm5.84-9.481c.104-.46.07-.951-.101-1.473-1.424-.757-3.267-.303-3.196 1.307.903.495 2.154.415 3.298.166Z" class="&lt;Compound Path&gt;" clip-rule="evenodd"/>
      <path fill="#30A2BB" d="M37.04 16.106c-.608.004-1.078-1.49-1.571-1.568-2.319-.068-2.517 2.432-3.264 3.932-.973 2.275-2.916 1.76-4.717 2.89.114-.083 1.456 1.651 1.57 1.569 1.802-1.13 3.746-.615 4.718-2.89.747-1.5.946-4 3.264-3.933Zm41.72 19.443c-.067-.189 1.916-.88 1.85-1.07-.44-2.175-1.76-3.833-3.608-4.883-.288-.218-1.564 1.286-1.852 1.069 1.849 1.05 3.201 2.802 3.61 4.884ZM65.42 71.54c.16.156-1.05 1.849-.856 2.099 1.63 1.338 3.664 2.005 5.779 1.692.41-.037.512-1.873.89-2.005-2.115.314-4.149-.354-5.813-1.786Z" class="&lt;Path&gt;"/>
    </g>
  </g>
</svg>
