<svg xmlns="http://www.w3.org/2000/svg" width="62" height="39" fill="none" viewBox="0 0 62 39">
  <g class="3-12-texto">
    <g class="&lt;Group&gt;">
      <path fill="#7358A4" d="m60.815 30.09-57.44 4.058-.336-5.098 57.341-4.045.434 5.086Zm-5.111-9.438-49.23 3.635-.433-5.085 49.328-3.648.335 5.098Z" class="&lt;Path&gt;"/>
      <g class="&lt;Group&gt;">
        <g class="&lt;Group&gt;">
          <path fill="#FEFEFE" fill-rule="evenodd" d="M4.366 8.224c1.005-.024 2.121.038 1.836 3.399C5.88 14.687 4.9 14.91 3.3 15.009l-.608-.025.682-6.636.992-.124Zm-.21.732-.559 5.21c1.501-.087 1.538-1.402 1.687-2.63.074-1.017.36-2.766-1.129-2.58Z" class="&lt;Compound Path&gt;" clip-rule="evenodd"/>
          <path fill="#FEFEFE" d="m7.393 14.699-.893.112.67-6.735.905-.013-.682 6.636Zm.235-6.983-.421-.149.83-1.414.546.335-.955 1.228Z" class="&lt;Compound Path&gt;"/>
          <path fill="#FEFEFE" fill-rule="evenodd" d="m10.58 7.951.72 6.562-.906.012-.062-1.302-1.29.161-.446 1.265-.794.1 2.071-6.81.707.012Zm-.335 3.771-.099-2.406-.1.012-.793 3.324 1.005-.024-.013-.906Zm4.639-4.006c1.092-.137 2.208-.075 1.923 3.287-.322 3.063-1.402 3.299-2.902 3.386l-.608-.025.682-6.636.905-.012Zm-.21.732-.559 5.209c1.501-.087 1.538-1.402 1.7-2.53.074-1.018.347-2.866-1.141-2.68Z" class="&lt;Compound Path&gt;" clip-rule="evenodd"/>
          <path fill="#FEFEFE" d="m20.18 7.356-.099.818-1.5.087-.15 2.035 1.303-.063-.1.82-1.302.061-.223 2.245 1.501-.087-.111.72-2.394.198.67-6.735 2.406-.1Zm1.303-.062-.57 5.916 1.5-.087-.111.72-2.295.186.57-6.723.906-.012Z" class="&lt;Compound Path&gt;"/>
        </g>
        <g class="&lt;Group&gt;">
          <g class="&lt;Group&gt;">
            <path fill="#FEFEFE" d="m12.069 19.859-.025.607 2.803-.148-.173 1.835-2.803.15-.025.607 3.001-.174-.149 2.034-5.097.335.508-7.218 5.21-.248-.15 2.034-3.1.186Zm4.999 2.096c.47.546 1.008.814 1.612.806.397-.05.616-.178.657-.384-.016-.133-.128-.22-.334-.26a4.434 4.434 0 0 0-.844-.299 3.916 3.916 0 0 1-.955-.384 1.624 1.624 0 0 1-.794-.707c-.24-.306-.318-.666-.236-1.08.017-.404.228-.867.633-1.388.335-.546 1.19-.956 2.196-.98.706.012 1.426.124 1.872.471.335.26.67.52.794.707l.124.186-1.563 1.203c-.24-.306-.463-.48-.67-.52a9.646 9.646 0 0 0-.719-.112c-.297.037-.483.16-.558.372.025.198.347.36.868.496.207.041.484.107.831.198.29.166.542.302.757.41.223.173.418.384.583.632.108.323.149.654.124.992-.05.41-.285.943-.732 1.402-.434.558-1.29.968-2.294.992-.803.034-1.46-.12-1.973-.459-.446-.347-.76-.71-.942-1.091l1.563-1.203Zm12.676-.98a4.358 4.358 0 0 1-1.427 2.294 4.047 4.047 0 0 1-2.493 1.018c-1.066.066-1.943-.228-2.63-.881-.628-.728-.905-1.6-.83-2.617.074-1.017.5-1.91 1.277-2.68.778-.768 1.7-1.186 2.766-1.252.935-.05 1.704.19 2.307.72.678.586 1.071 1.31 1.179 2.17l-2.295.186a2.2 2.2 0 0 0-.509-.843c-.289-.166-.566-.232-.83-.199a1.344 1.344 0 0 0-1.142.546c-.29.372-.475.765-.558 1.178-.008.472.112.893.36 1.265.24.306.591.43 1.054.373a2 2 0 0 0 .868-.31c.306-.24.538-.538.695-.894l2.208-.074Zm3.486 2.89c-.1.012-.199.025-.608-.025-.41-.05-.72-.112-1.166-.459-.434-.248-.683-.62-.856-1.203a3.045 3.045 0 0 1-.137-1.092l.36-4.378 2.109-.062-.36 4.378.037.298c.075.058.12.153.137.285.111.087.335.26.632.224a1.24 1.24 0 0 0 .67-.286c.116-.149.198-.293.248-.434l.075-.21.36-4.38 2.095-.16-.36 4.378c0 .806-.322 1.451-.768 1.91a2.67 2.67 0 0 1-.633.583c-.645.484-1.34.57-1.637.608l-.199.025Z" class="&lt;Compound Path&gt;"/>
            <path fill="#FEFEFE" fill-rule="evenodd" d="m37.31 23.455.62-7.132 2.803-.149c1.067-.066 1.91.232 2.53.893.546.604.782 1.415.708 2.431-.066 1.084-.46 1.973-1.179 2.667-.72.695-1.612 1.075-2.679 1.141l-2.803.15Zm2.567-5.259-.21 3.15.694-.086c.405.016.757-.128 1.055-.434a3.54 3.54 0 0 0 .458-1.166c.009-.471-.103-.827-.335-1.067-.173-.314-.492-.442-.955-.384l-.707-.013Zm8.943-2.629c1.067-.067 1.91.231 2.53.893.695.719 1.005 1.587.93 2.604-.074 1.017-.5 1.91-1.277 2.68-.843.777-1.765 1.194-2.766 1.252-1.066.067-1.943-.227-2.63-.88-.628-.728-.905-1.6-.83-2.617.074-1.017.5-1.91 1.277-2.68.778-.769 1.7-1.186 2.766-1.252Zm-.434 5.395c.405.017.786-.165 1.141-.546.29-.372.476-.765.559-1.178a2.158 2.158 0 0 0-.36-1.265c-.306-.298-.658-.422-1.054-.372a1.344 1.344 0 0 0-1.142.546c-.355.38-.541.773-.558 1.178a1.5 1.5 0 0 0 .36 1.265c.24.306.591.43 1.054.372Z" class="&lt;Compound Path&gt;" clip-rule="evenodd"/>
          </g>
        </g>
        <g class="&lt;Group&gt;">
          <g class="&lt;Group&gt;">
            <path fill="#FEFEFE" d="m11.92 27.537-.52 7.12-1.998.148-1.984-2.977-.211 3.15-2.208.075.62-7.132 1.898-.136 2.084 2.964.223-3.051 2.096-.162Z" class="&lt;Compound Path&gt;"/>
            <path fill="#FEFEFE" fill-rule="evenodd" d="m17.427 27.251 1.985 7.008-2.307.087-.186-.682-2.307.087-.31.744-2.295.186 3.213-7.355 2.207-.075Zm-1.848 4.565.893-.112-.285-1.476-.608 1.588Z" class="&lt;Compound Path&gt;" clip-rule="evenodd"/>
            <path fill="#FEFEFE" d="M27.338 30.749c-.215.967-.72 1.77-1.514 2.406-.727.628-1.558.968-2.493 1.017-1.066.066-1.914-.264-2.542-.992-.687-.653-.992-1.488-.918-2.506.14-1.025.6-1.922 1.377-2.691.777-.77 1.699-1.187 2.765-1.253.869-.041 1.638.198 2.308.72a3.578 3.578 0 0 1 1.079 2.183l-2.295.186c-.041-.331-.21-.612-.508-.844-.224-.174-.5-.24-.832-.198-.405-.017-.752.161-1.041.533a1.53 1.53 0 0 0-.558 1.178c-.075.48.04.869.347 1.166.248.372.57.534.967.484a2.68 2.68 0 0 0 .968-.322c.24-.232.438-.525.595-.881l2.295-.186Zm.582 3.051.51-7.219 2.207-.074-.62 7.132-2.096.161Z" class="&lt;Compound Path&gt;"/>
            <path fill="#FEFEFE" fill-rule="evenodd" d="M35.326 26.122c1.066-.066 1.943.227 2.63.88.62.662.896 1.535.83 2.618-.074 1.017-.5 1.91-1.277 2.68-.778.768-1.7 1.186-2.766 1.252-1.075 0-1.923-.33-2.543-.992-.686-.654-.992-1.489-.918-2.506a4.142 4.142 0 0 1 1.265-2.778 4.466 4.466 0 0 1 2.779-1.154Zm-.434 5.396c.463-.058.843-.24 1.14-.546.29-.372.472-.798.546-1.278.009-.471-.107-.86-.347-1.166a1.58 1.58 0 0 0-1.067-.47c-.397.049-.777.23-1.14.545-.29.372-.472.798-.547 1.277-.008.472.108.86.348 1.166a1.58 1.58 0 0 0 1.066.472Z" class="&lt;Compound Path&gt;" clip-rule="evenodd"/>
            <path fill="#FEFEFE" d="m46.439 25.539-.608 7.231-1.91.037-2.084-2.964-.21 3.15-2.109.063.62-7.132 1.898-.137 1.997 3.076.31-3.163 2.096-.161Z" class="&lt;Compound Path&gt;"/>
            <path fill="#FEFEFE" fill-rule="evenodd" d="m51.847 25.266 2.084 6.996-2.307.086-.186-.682-2.307.087-.298.843-2.307.087 3.212-7.355 2.11-.062ZM49.9 29.843l.992-.124-.384-1.464-.608 1.588Z" class="&lt;Compound Path&gt;" clip-rule="evenodd"/>
            <path fill="#FEFEFE" d="m57.354 24.98-.471 5.098 3.002-.173-.15 2.034-5.209.248.62-7.132 2.208-.074Z" class="&lt;Compound Path&gt;"/>
          </g>
        </g>
      </g>
    </g>
  </g>
</svg>
