<svg xmlns="http://www.w3.org/2000/svg" width="71" height="23" fill="none" viewBox="0 0 71 23">
  <g class="3-21-texto">
    <g class="&lt;Group&gt;">
      <g class="&lt;Group&gt;">
        <path fill="#7358A4" d="m70.6 13.5-70 6.3-.6-4.7 70-6.4.6 4.8Z" class="&lt;Path&gt;"/>
      </g>
      <g class="&lt;Group&gt;">
        <g class="&lt;Group&gt;">
          <path fill="#FEFEFE" fill-rule="evenodd" d="M17.2 4.1c1-.1 2.1-.2 1.9 3-.1 2.9-1.1 3.1-2.6 3.3l-.6.1.4-6.3.9-.1Zm-.2.7-.2 4.9c1.3-.1 1.3-1.4 1.4-2.5.1-1 .2-2.6-1.2-2.4Z" class="&lt;Compound Path&gt;" clip-rule="evenodd"/>
          <path fill="#FEFEFE" d="m20.4 10-.8.1.3-6.3.8-.1-.3 6.3Zm-.1-6.5-.4-.2.7-1.3.6.3-.9 1.2Z" class="&lt;Compound Path&gt;"/>
          <path fill="#FEFEFE" fill-rule="evenodd" d="m23 3.5 1.1 6.1-.9.1-.1-1.2-1.3.1-.3 1.3-.8.1 1.7-6.5h.6ZM22.8 7l-.2-2.2-.7 3.2 1-.1-.1-.9Z" class="&lt;Compound Path&gt;" clip-rule="evenodd"/>
          <path fill="#FEFEFE" d="m27.1 3 .6 4.5h.1v-.3l.3-1.5.7-2.8.7-.1.3 6.2-.8.1V4.8l-.2.9-.8 3.5-.6.1-.6-4.3-.5 4.4-.7.1.8-6.4.7-.1Zm4.3-.4-.2 4.6c-.1.8.2.9.5.9.6 0 .6-.4.7-.9l.2-4.7.8-.1-.2 4.4c0 .9-.1 1.9-1.5 2.1-1.3.1-1.4-.8-1.3-1.9l.2-4.3.8-.1Zm3.4 1.5.1 2.1-.2 2.3-.8.1.3-6.3.8-.1 1.2 4.6V4.3l.1-2.2.8-.1-.3 6.3-.8.1-1.2-4.7v.4Z" class="&lt;Compound Path&gt;"/>
          <path fill="#FEFEFE" fill-rule="evenodd" d="M38.8 1.8c1-.1 2.1-.1 1.9 3-.1 2.9-1.1 3.2-2.6 3.3l-.5.1.3-6.3.9-.1Zm-.1.7-.3 4.9c1.4-.1 1.4-1.4 1.4-2.5.1-.9.3-2.6-1.1-2.4Z" class="&lt;Compound Path&gt;" clip-rule="evenodd"/>
          <path fill="#FEFEFE" d="m42 7.7-.8.1.3-6.3.9-.1-.4 6.3Z" class="&lt;Compound Path&gt;"/>
          <path fill="#FEFEFE" fill-rule="evenodd" d="m44.7 1.2 1 6.1-.8.1-.2-1.2-1.2.2-.3 1.2-.8.1L44 1.3l.7-.1Zm-.2 3.5-.2-2.3-.6 3.3 1-.1-.2-.9Z" class="&lt;Compound Path&gt;" clip-rule="evenodd"/>
          <path fill="#FEFEFE" d="m47.2.9-.3 5.6 1.4-.1-.1.7-2.2.2.3-6.3.9-.1Z" class="&lt;Compound Path&gt;"/>
          <path fill="#FEFEFE" fill-rule="evenodd" d="M51.3.5c.9-.1 2-.2 1.9 3-.2 2.9-1.1 3.2-2.6 3.3l-.6.1.3-6.3 1-.1Zm-.1.7-.3 4.9c1.4-.1 1.4-1.4 1.5-2.5 0-.9.2-2.6-1.2-2.4Z" class="&lt;Compound Path&gt;" clip-rule="evenodd"/>
          <path fill="#FEFEFE" d="m56.2 0-.1.7-1.3.2-.2 1.9 1.3-.1-.1.7-1.2.2-.1 2.1 1.4-.1-.1.7-2.2.2.4-6.3 2.2-.2Z" class="&lt;Compound Path&gt;"/>
        </g>
        <g class="&lt;Group&gt;">
          <g class="&lt;Group&gt;">
            <path fill="#FEFEFE" d="m6.5 13.5-.2 6.3 3.6-.4v2.4l-6.3.7.3-8.8 2.6-.2Z" class="&lt;Compound Path&gt;"/>
            <path fill="#FEFEFE" fill-rule="evenodd" d="m16.6 12.4 2.8 8.4-2.8.3-.2-.9-2.8.3-.4 1-2.8.3 3.5-9.1 2.7-.3Zm-2 5.6 1.1-.1-.5-1.8-.6 1.9Zm8.6-6.3 3.6-.4c.1 0 .2 0 .7.1.4 0 .8.1 1.3.4.6.2.9.6 1.1 1.3.134.333.2.733.2 1.2 0 .9-.3 1.6-.8 2.1-.2.267-.4.5-.6.7-.8.5-1.6.7-2 .8h-.1l-1 .1-.1 2.2-2.6.3.3-8.8Zm3.5 2.1-1 .1v1.6l1-.1c.467-.067.7-.367.7-.9 0-.5-.3-.8-.7-.7Zm8.8-3.5c1.267-.133 2.3.2 3.1 1 .867.733 1.267 1.733 1.2 3 0 1.267-.467 2.4-1.4 3.4-.867 1-1.967 1.567-3.3 1.7-1.267.133-2.3-.2-3.1-1-.867-.8-1.267-1.833-1.2-3.1 0-1.267.467-2.4 1.4-3.4.867-.933 1.967-1.467 3.3-1.6Zm-.3 6.6c.533-.067 1-.333 1.4-.8.333-.4.533-.9.6-1.5 0-.533-.167-1-.5-1.4-.333-.333-.767-.467-1.3-.4-.533 0-1 .233-1.4.7a3.246 3.246 0 0 0-.6 1.5c0 .6.167 1.067.5 1.4.4.4.833.567 1.3.5Z" class="&lt;Compound Path&gt;" clip-rule="evenodd"/>
            <path fill="#FEFEFE" d="M43.7 12v.9l3.4-.4-.1 2.3-3.4.3v.7l3.6-.3v2.4l-6.3.7.3-8.8 6.3-.6-.1 2.4-3.7.4Zm6.2 2.4c.6.6 1.267.867 2 .8.467-.067.7-.233.7-.5 0-.133-.133-.233-.4-.3-.267-.067-.6-.167-1-.3l-1.2-.4c-.4-.2-.733-.467-1-.8-.267-.4-.4-.833-.4-1.3 0-.5.2-1.1.7-1.7.5-.7 1.4-1.2 2.6-1.3.9-.1 1.8.1 2.3.4.5.3.9.6 1.1.9l.1.2-1.8 1.5c-.267-.333-.533-.533-.8-.6a2.043 2.043 0 0 0-.9 0c-.4 0-.7.2-.7.4s.5.4 1.1.5c.267.067.6.167 1 .3.333.133.633.267.9.4.333.2.6.467.8.8.2.333.267.7.2 1.1 0 .6-.2 1.2-.7 1.8-.6.7-1.6 1.2-2.8 1.3-1 .133-1.8 0-2.4-.4-.6-.4-1.033-.833-1.3-1.3l1.9-1.5Zm6.3 2.6.3-8.8 2.6-.2-.3 8.7-2.6.3Zm2.9-9.8-2.6.3L57.8 5l2.9-.3-1.6 2.5Z" class="&lt;Compound Path&gt;"/>
            <path fill="#FEFEFE" fill-rule="evenodd" d="m65.7 7.3 2.9 8.4-2.8.3-.3-.9-2.8.3-.3.9-2.8.3 3.5-9.1 2.6-.2Zm-2.1 5.6 1.2-.1-.5-1.8-.7 1.9Z" class="&lt;Compound Path&gt;" clip-rule="evenodd"/>
          </g>
        </g>
      </g>
    </g>
  </g>
</svg>
