<svg xmlns="http://www.w3.org/2000/svg" width="80" height="103" fill="none" viewBox="0 0 80 103">
  <g class="3-24-ilus">
    <g class="Group 115">
      <path fill="#1C1C1A" fill-opacity=".2" d="M51.495 94.77c.033 2.04-6.548 3.776-14.77 3.617-8.101-.083-14.622-1.84-14.58-3.997-.033-2.04 6.549-3.776 14.77-3.617 8.102.083 14.623 1.84 14.58 3.997Z" class="&lt;Path&gt;"/>
      <g class="&lt;Group&gt;">
        <g class="&lt;Group&gt;">
          <g class="&lt;Group&gt;">
            <g class="&lt;Group&gt;">
              <g class="&lt;Group&gt;">
                <path fill="#050505" d="M54.404 62.928c-.051 1.648-1.424 2.867-3.072 2.816-1.551-.073-2.77-1.445-2.719-3.094.052-1.648 1.424-2.867 3.073-2.816 1.572.17 2.79 1.543 2.718 3.094Zm-25.865-.831c-.073 1.551-1.369 2.651-2.92 2.579-1.453-.094-2.65-1.369-2.556-2.822a2.655 2.655 0 0 1 2.821-2.557c1.55.073 2.65 1.369 2.655 2.8Z" class="&lt;Path&gt;"/>
                <path fill="#050505" d="M60.578 60.257c-.14 2.18-1.917 3.896-4.097 3.755-2.18-.141-3.895-1.917-3.754-4.097.14-2.18 1.938-3.797 4.096-3.755 2.18.141 3.896 1.917 3.755 4.097Zm-35.93-3.352c.684 2.205-.336 4.576-2.346 5.217-2.01.64-4.227-.617-4.932-2.92-.684-2.206.337-4.576 2.346-5.217 2.01-.641 4.249.715 4.932 2.92Z" class="&lt;Path&gt;"/>
                <path fill="#050505" d="M60.793 49.466c-.483 10.03-10.4 17.607-22.178 17.095-11.798-.61-21.02-9.148-20.537-19.179.602-9.954 10.498-17.63 22.296-17.019 11.799.61 20.923 9.17 20.419 19.103Z" class="&lt;Path&gt;"/>
                <path stroke="#3F1D13" stroke-width=".5" d="M24.24 60.678c-.753.777-.574 2.068.203 2.82.854.634 2.166.553 2.8-.3M19.776 55.2c-1.458.828-2.074 2.702-1.225 4.257.752 1.576 2.702 2.074 4.18 1.343m33.145-3.82c-1.577.752-2.193 2.625-1.365 4.083.709 1.38 2.561 1.9 4.138 1.148m-7.963 2.445c1.202.353 2.29-.292 2.643-1.495" class="&lt;Path&gt;"/>
              </g>
              <g class="&lt;Group&gt;">
                <path fill="#803531" stroke="#050505" stroke-linecap="round" stroke-linejoin="round" stroke-width=".4" d="M47.03 91.647s-1.732-5.15-2.05-6.616c-.382-1.759-1.725-2.286-2.995-2.01-1.173.254-1.98 1.248-1.577 3.105.424 1.954 1.953 6.637 1.953 6.637.636 2.931 5.599 1.752 4.67-1.116Z" class="&lt;Path&gt;"/>
                <path fill="#050505" d="M43.49 92.313c.634 1.5 3.246 1.751 1.878 2.048-1.291.178-2.71-.23-3.007-1.598 0 0-1.529-4.683-1.953-6.637-.403-1.857.404-2.85 1.577-3.105 1.27-.276 2.613.251 2.995 2.01.318 1.466-2.839 1.537-2.542 2.905.128.587.624 3.344 1.053 4.377Z" class="&lt;Path&gt;" opacity=".4"/>
              </g>
              <g class="&lt;Group&gt;">
                <g class="&lt;Path&gt;">
                  <path fill="#803531" d="M47.208 92.938c.128.587.48 1.738 2.081 2.516l-7.145-.393.217-2.298"/>
                  <path stroke="#050505" stroke-linecap="round" stroke-linejoin="round" stroke-width=".4" d="M47.208 92.938c.128.587.48 1.738 2.081 2.516l-7.145-.393.217-2.298"/>
                </g>
                <path fill="#050505" d="M43.597 92.801c.093.901-.051 1.649 1.648 2.406l-3.101-.146.217-2.298" class="&lt;Path&gt;" opacity=".4"/>
              </g>
              <g class="&lt;Group&gt;">
                <path fill="#EE4963" stroke="#050505" stroke-linecap="round" stroke-linejoin="round" stroke-width=".4" d="M41.612 94.972c.022.098.043.195.14.174l7.852.342c.021.098.098-.021.076-.12l.035-.313c.076-.12-.043-.196-.14-.175l-7.776-.46a.215.215 0 0 0-.152.238l-.035.314Zm3.944-3.517s.102-.943.73-.875c.413.013 1.237.038 1.454.094.51-.009.03.607-.026.824-.132.336-.319.888-.038 1.236l.666 1.186-.956.31-1.77-1.56-.06-1.215Z" class="&lt;Path&gt;"/>
                <path fill="#F69226" stroke="#050505" stroke-linecap="round" stroke-linejoin="round" stroke-width=".4" d="M41.8 94.42s.017-1.334.03-1.746c.11-.434.284-.574.697-.561.51-.008.79.34 1.746.03.837-.386.913-.505 1.283-.688.37-.183.433.11.518.502l.17.781 1.436 1.428-.069.629-5.811-.375Z" class="&lt;Path&gt;"/>
                <path fill="#FEFEFE" stroke="#050505" stroke-linecap="round" stroke-linejoin="round" stroke-width=".4" d="M49.574 94.88c.034-.314-.82-.947-1.232-.96-.845-.124-1.457.828-1.457.828l2.69.132Z" class="&lt;Path&gt;"/>
                <path stroke="#050505" stroke-linecap="round" stroke-linejoin="round" stroke-width=".4" d="M45.853 92.823c.425-.4 1.521-.535 1.878-.305m-1.36.807c.404-.497 1.326-.493 1.661-.361m-1.142.862c.403-.497 1.13-.45 1.465-.318" class="&lt;Path&gt;"/>
                <path fill="#EE4963" stroke="#050505" stroke-linecap="round" stroke-linejoin="round" stroke-width=".4" d="M44.15 92.988c.628.069.943.103 1.342.528l1.393 1.232-1.04-.081-.778-.752c-.173-.167-.469-.274-.888-.319-.217-.055-2.375-.098-2.375-.098l.068-.63s2.06.065 2.277.12Z" class="&lt;Path&gt;"/>
              </g>
              <g class="&lt;Group&gt;">
                <path fill="#803531" stroke="#050505" stroke-linecap="round" stroke-linejoin="round" stroke-width=".4" d="M27.89 90.686s2.215-4.881 2.721-6.321c.54-1.755 1.985-2.17 3.208-1.72 1.105.374 1.827 1.343 1.21 3.216-.616 1.874-2.602 6.398-2.602 6.398-.914 2.86-5.765 1.252-4.537-1.573Z" class="&lt;Path&gt;"/>
                <path fill="#050505" d="M31.302 91.787c-.723 1.385-3.293 1.33-1.972 1.759 1.202.353 2.69.132 3.098-1.287 0 0 1.985-4.524 2.601-6.397.617-1.874-.105-2.843-1.21-3.217-1.223-.45-2.668-.035-3.208 1.72-.506 1.44 2.638 1.78 2.208 3.102-.187.552-.948 3.173-1.517 4.32Z" class="&lt;Path&gt;" opacity=".4"/>
              </g>
              <g class="&lt;Group&gt;">
                <g class="&lt;Path&gt;">
                  <path fill="#803531" d="M27.657 91.965c-.285.573-.66 1.678-2.376 2.255l7.146.393v-2.354"/>
                  <path stroke="#050505" stroke-linecap="round" stroke-linejoin="round" stroke-width=".4" d="M27.657 91.965c-.285.573-.66 1.678-2.376 2.255l7.146.393v-2.354"/>
                </g>
                <path fill="#050505" d="M31.17 92.123c-.08 1.04-.128 1.767-1.844 2.345l3.101.145v-2.354" class="&lt;Path&gt;" opacity=".4"/>
              </g>
              <g class="&lt;Group&gt;">
                <path fill="#EE4963" stroke="#050505" stroke-linecap="round" stroke-linejoin="round" stroke-width=".4" d="m32.937 94.605-.077.118-7.872-.439c-.098.021-.12-.077-.12-.077l.014-.412c-.022-.097.076-.118.174-.14l7.754.363c.097-.021.216.055.14.174l-.013.413Zm-3.517-3.944s.004-.922-.722-.969c-.314-.034-1.139-.06-1.334-.017-.531-.09-.187.552-.124.845.162.272.191.88-.038 1.237l-.905 1.015.93.514 2.035-1.465.158-1.16Z" class="&lt;Path&gt;"/>
                <path fill="#F69226" stroke="#050505" stroke-linecap="round" stroke-linejoin="round" stroke-width=".4" d="M32.81 94.018s.093-1.453.127-1.767c.013-.412-.246-.663-.658-.676-.412-.013-.76.268-1.67-.149-.79-.34-.853-.633-1.189-.765-.455-.208-.51.008-.62.442l-.243.769-1.568 1.261.03.608 5.79.277Z" class="&lt;Path&gt;"/>
                <path fill="#FEFEFE" stroke="#050505" stroke-linecap="round" stroke-linejoin="round" stroke-width=".4" d="M25.056 93.655c-.064-.293.947-.82 1.24-.883.944.102 1.45 1.016 1.45 1.016l-2.69-.133Z" class="&lt;Path&gt;"/>
                <path stroke="#050505" stroke-linecap="round" stroke-linejoin="round" stroke-width=".4" d="M28.99 91.982c-.399-.425-1.46-.603-1.852-.519m1.232.961c-.301-.446-1.245-.548-1.635-.464m1.112.884c-.399-.424-1.146-.57-1.419-.408" class="&lt;Path&gt;"/>
                <path fill="#EE4963" stroke="#050505" stroke-linecap="round" stroke-linejoin="round" stroke-width=".4" d="M30.605 92.348c-.629-.068-.922-.005-1.368.297l-1.492 1.142 1.041.082.85-.8c.181-.107.482-.138.9-.092.294-.064 2.376.098 2.376.098l.068-.629s-2.18-.14-2.375-.098Z" class="&lt;Path&gt;"/>
              </g>
              <g class="&lt;Group&gt;">
                <path fill="#803531" stroke="#050505" stroke-linecap="round" stroke-linejoin="round" stroke-width=".4" d="M57.293 64.45c-2.652 3.338-5.894 5.373-9.243 6.918-3.424 1.665-5.7-3.162-2.254-4.729 3.467-1.47 4.805-2.374 7.347-5.28.578-.636 2.099-1.171 3.492.061 1.253 1.058 1.138 2.413.658 3.03Z" class="&lt;Path&gt;"/>
                <path fill="#050505" d="M57.293 64.45c-2.652 3.338-5.894 5.373-9.242 6.918-3.425 1.665-5.701-3.162-2.255-4.729 1.304-.59 3.143 2.695 4.545 2.083 2.065-.858 4.657-3.058 6.217-4.83.578-.636.778-1.6.077-2.472 1.253 1.058 1.138 2.414.658 3.03Z" class="&lt;Path&gt;" opacity=".4"/>
                <path fill="#050505" d="M51.425 64.29s.757.655.2 1.39c0 0 .726.047.994.808.267.76-.298.985-.298.985s.608-.03.867.222c0 0 .412.012 1.444-.416 1.13-.45 1.122-.96 1.122-.96s.506.913 1.21.862l-.305.476-4.793 1.962-2.102-4.967 1.661-.361Z" class="&lt;Path&gt;" opacity=".2" style="mix-blend-mode:multiply"/>
              </g>
              <g class="&lt;Group&gt;">
                <path fill="#803531" d="M54.17 64.207c.994.807 2.307.727 2.961-.03.731-.874.455-2.145-.539-2.952-.993-.808-2.328-.825-2.96.029-.753.777-.456 2.145.538 2.953Z" class="&lt;Path&gt;"/>
                <g class="&lt;Group&gt;">
                  <g class="&lt;Group&gt;">
                    <g class="&lt;Group&gt;">
                      <g class="&lt;Path&gt;">
                        <path fill="#803531" d="M53.066 61.479c.655-.756 1.998-2.583 2.673-3.241.99-.625 1.9-.208 2.893.6 1.037 1.002 1.606 2.21.624 3.343l-.905 1.016-1.058 1.253"/>
                        <path stroke="#050505" stroke-linecap="round" stroke-linejoin="round" stroke-width=".4" d="M53.066 61.479c.655-.756 1.998-2.583 2.673-3.241.99-.625 1.9-.208 2.893.6 1.037 1.002 1.606 2.21.624 3.343l-.905 1.016-1.058 1.253"/>
                      </g>
                    </g>
                  </g>
                  <g class="&lt;Group&gt;">
                    <g class="&lt;Path&gt;">
                      <path fill="#803531" d="m53.687 61.037.038-1.236c.09-.531.514-.93.926-.918.413.013.693.362.735.557.204.467.149.684.149.684"/>
                      <path stroke="#050505" stroke-linecap="round" stroke-linejoin="round" stroke-width=".4" d="m53.687 61.037.038-1.236c.09-.531.514-.93.926-.918.413.013.693.362.735.557.204.467.149.684.149.684"/>
                    </g>
                  </g>
                  <path fill="#050505" d="M55.582 59.398s.378.327.386.837c-.013.412-.047.726.212.977.14.174 1.156 1.08 1.449 1.016.39-.085 1.882-1.228 1.3-2.022-.505-.914-2.017-2.223-2.833-1.739-.892.603-.514.93-.514.93Z" class="&lt;Path&gt;" opacity=".2" style="mix-blend-mode:multiply"/>
                </g>
              </g>
              <g class="&lt;Group&gt;">
                <path fill="#803531" stroke="#050505" stroke-linecap="round" stroke-linejoin="round" stroke-width=".4" d="M20.054 62.61c2.315 3.59 5.373 5.894 8.661 7.84 3.17 1.87 5.86-2.705 2.593-4.554-3.267-1.849-4.596-2.788-6.707-5.911-.463-.718-1.946-1.42-3.458-.375-1.415 1.024-1.433 2.358-1.089 3Z" class="&lt;Path&gt;"/>
                <path fill="#050505" d="M20.054 62.61c2.315 3.59 5.373 5.894 8.661 7.84 3.17 1.87 5.86-2.705 2.593-4.554-1.266-.646-3.353 2.468-4.64 1.724-1.98-1.105-4.452-3.536-5.798-5.495-.463-.718-.577-1.716.273-2.515-1.416 1.024-1.433 2.358-1.089 3Z" class="&lt;Path&gt;" opacity=".4"/>
                <path fill="#050505" d="M25.964 62.964s-.773.68-.31 1.397c0 0-.727-.047-1.067.744-.34.79.233 1.075.233 1.075s-.65-.166-.9.093c0 0-.413-.013-1.462-.604-1.028-.493-1.036-1.003-1.036-1.003s-.633.854-1.283.688l.225.565 4.609 2.376 2.648-4.77-1.657-.561Z" class="&lt;Path&gt;" opacity=".2" style="mix-blend-mode:multiply"/>
              </g>
              <g class="&lt;Group&gt;">
                <path fill="#803531" d="M23.232 62.636c-.969.722-2.324.607-2.927-.286-.603-.892-.174-2.213.795-2.935 1.088-.646 2.443-.53 3.046.362.603.892.174 2.213-.914 2.859Z" class="&lt;Path&gt;"/>
                <g class="&lt;Group&gt;">
                  <g class="&lt;Group&gt;">
                    <g class="&lt;Group&gt;">
                      <g class="&lt;Path&gt;">
                        <path fill="#803531" d="M24.622 60.083c-.484-.816-1.733-2.796-2.293-3.493-.973-.71-1.93-.4-2.898.322-1.24.883-1.81 2.03-1.025 3.292l.744 1.067.904 1.339"/>
                        <path stroke="#050505" stroke-linecap="round" stroke-linejoin="round" stroke-width=".4" d="M24.622 60.083c-.484-.816-1.733-2.796-2.293-3.493-.973-.71-1.93-.4-2.898.322-1.24.883-1.81 2.03-1.025 3.292l.744 1.067.904 1.339"/>
                      </g>
                    </g>
                  </g>
                  <path fill="#050505" d="M22.388 57.805s-.468.204-.557.735c-.013.412-.026.824-.2.964-.272.162-1.317 1.003-1.653.87-.335-.131-1.63-1.385-1.095-2.217.654-.756 2.243-1.92 3.076-1.385.756.655.429 1.033.429 1.033Z" class="&lt;Path&gt;" opacity=".2" style="mix-blend-mode:multiply"/>
                </g>
              </g>
              <g class="&lt;Group&gt;">
                <path fill="#F69226" stroke="#050505" stroke-linecap="round" stroke-linejoin="round" stroke-width=".4" d="M37.88 83.912c-8.284-.452-8.526-2.037-8.759-5.466-.28-2.702 1.154-9.767 1.826-11.857 1.058-3.607 3.96-4.851 8.005-4.604 4.023.15 6.717 1.714 7.502 5.33.369 2.17 1.115 9.377.647 11.934-.591 3.403-1.055 5.039-9.22 4.663Z" class="&lt;Path&gt;"/>
                <path fill="#EE4963" stroke="#050505" stroke-linecap="round" stroke-linejoin="round" stroke-width=".4" d="M33.087 72.673c-.671-2.617-1.49-5.918-.648-9.58l2.047.476c-.807 3.348.025 6.237.653 8.659l-2.052.445Z" class="&lt;Path&gt;"/>
                <path fill="#EE4763" stroke="#050505" stroke-linecap="round" stroke-linejoin="round" stroke-width=".4" d="m37.804 84.03-1.458 3.183c-6.283-1.603-8.25-3.12-8.25-3.12s.264-3.026.69-5.779c.475.306 2.285.63 2.285.63l2.44-6.67s2.838.816 4.801.902c2.06.064 4.916-.454 4.916-.454l1.821 6.973s1.9-.208 2.367-.412c.084 2.745.079 6.02.079 6.02s-2.197 1.194-8.6 1.868l-1.09-3.14Z" class="&lt;Path&gt;"/>
                <path fill="#050505" d="m37.804 84.03-1.458 3.183c-.433-.11-.827-.196-1.181-.255 0 0 1.666-3.637 2.707-3.556 1.041.081 2.217 3.612 2.217 3.612a8.82 8.82 0 0 1-1.194.157l-1.09-3.14Zm9.611-4.747c.085 2.745.08 6.02.08 6.02s-.544.323-2.087.76c.612-.951 1.25-2.727.813-6.623l1.194-.157Z" class="&lt;Path&gt;" opacity=".4"/>
                <path stroke="#6ECFF5" stroke-dasharray=".8 .8" stroke-linecap="round" stroke-linejoin="round" stroke-width=".4" d="M47.032 84.585s-2.26.9-8.209 1.783" class="&lt;Path&gt;"/>
                <path fill="#050505" d="M28.786 78.314c-.426 2.753-.69 5.778-.69 5.778s.497.404 1.98 1.105c-.527-1.01-1.007-2.749-.207-6.606l-1.083-.277Z" class="&lt;Path&gt;" opacity=".4"/>
                <path stroke="#6ECFF5" stroke-dasharray=".8 .8" stroke-linecap="round" stroke-linejoin="round" stroke-width=".4" d="M28.674 83.455s2.12 1.28 7.914 2.989" class="&lt;Path&gt;"/>
                <path fill="#803531" stroke="#050505" stroke-linecap="round" stroke-linejoin="round" stroke-width=".4" d="M33.874 64.52c-.132 2.69 1.928 5.108 4.617 5.24 2.788.111 5.087-2.025 5.219-4.715.132-2.689-1.928-5.107-4.715-5.218-2.69-.132-4.988 2.004-5.12 4.693Z" class="&lt;Path&gt;"/>
                <path fill="#EE4963" stroke="#050505" stroke-linecap="round" stroke-linejoin="round" stroke-width=".4" d="M43.648 73.245c.978-2.566 2.024-5.76 1.511-9.538l-1.976.327c.429 3.386-.605 6.169-1.43 8.497l1.895.714Z" class="&lt;Path&gt;"/>
                <path fill="#6ECFF5" stroke="#050505" stroke-linecap="round" stroke-linejoin="round" stroke-width=".4" d="M43.997 72.965a1.284 1.284 0 0 1-1.373 1.219 1.284 1.284 0 0 1-1.219-1.373c-.05-.705.646-1.266 1.373-1.219a1.284 1.284 0 0 1 1.219 1.373Zm-11.17-.543a1.284 1.284 0 0 0 1.22 1.373c.726.047 1.304-.59 1.35-1.317a1.284 1.284 0 0 0-1.218-1.372c-.706.05-1.305.59-1.352 1.317Z" class="&lt;Path&gt;"/>
                <path fill="#050505" d="M33.137 73.379c.519.501 1.343.527 1.844.008 0 0-.998.115-1.419-.408-.518-.501-.318-1.466-.318-1.466-.62.442-.646 1.266-.107 1.866Zm10.443.495c-.522.42-1.347.395-1.865-.107 0 0 .965.2 1.466-.318.502-.518.506-1.44.506-1.44.42.522.395 1.347-.107 1.865Z" class="&lt;Path&gt;" opacity=".4"/>
                <g class="&lt;Group&gt;">
                  <g class="&lt;Group&gt;">
                    <path stroke="#6ECFF5" stroke-linecap="round" stroke-linejoin="round" stroke-width=".4" d="m43.562 79.915.39-.084-.182-.37" class="&lt;Path&gt;"/>
                    <path stroke="#6ECFF5" stroke-dasharray=".8 .8" stroke-linecap="round" stroke-linejoin="round" stroke-width=".4" d="m43.6 78.68-.755-3.01" class="&lt;Path&gt;"/>
                    <path stroke="#6ECFF5" stroke-linecap="round" stroke-linejoin="round" stroke-width=".4" d="m42.76 75.28-.183-.37-.314-.034" class="&lt;Path&gt;"/>
                    <path stroke="#6ECFF5" stroke-dasharray=".8 .8" stroke-linecap="round" stroke-linejoin="round" stroke-width=".4" d="m41.536 74.83-3.199-.125-3.632-.234" class="&lt;Path&gt;"/>
                    <path stroke="#6ECFF5" stroke-linecap="round" stroke-linejoin="round" stroke-width=".4" d="m34.293 74.458-.315-.034-.11.433" class="&lt;Path&gt;"/>
                    <path stroke="#6ECFF5" stroke-dasharray=".8 .8" stroke-linecap="round" stroke-linejoin="round" stroke-width=".4" d="m33.528 75.647-1.11 2.902" class="&lt;Path&gt;"/>
                    <path stroke="#6ECFF5" stroke-linecap="round" stroke-linejoin="round" stroke-width=".4" d="m32.286 78.885-.132.335.336.132" class="&lt;Path&gt;"/>
                    <path stroke="#6ECFF5" stroke-dasharray=".8 .8" stroke-linecap="round" stroke-linejoin="round" stroke-width=".4" d="m33.28 79.692 4.699 1.845L43.17 80" class="&lt;Path&gt;"/>
                  </g>
                </g>
                <path fill="#050505" d="M38.517 68.936c-2.277-.12-3.522-.668-5.026-1.467-1.147-.57-1.843-.009-2.23 1.508-.4 1.928-1.778 8.777-.89 9.096.53.089 2.082-4.546 2.766-4.694l-2.066 5.565-1.95-.498c-.28-2.702 1.154-9.767 1.826-11.857 1.058-3.607 3.96-4.851 8.005-4.604 4.024.15 6.717 1.714 7.502 5.33.37 2.17 1.115 9.377.647 11.934l-2.052.446-1.469-5.821c.574.285 1.69 4.954 2.2 4.946.977-.212.274-7.223.066-9.122-.242-1.585-.9-2.26-2.107-1.691-1.5.632-2.847 1.027-5.222.929Z" class="&lt;Path&gt;" opacity=".4"/>
              </g>
              <g class="&lt;Group&gt;">
                <path fill="#803531" stroke="#050505" stroke-linecap="round" stroke-linejoin="round" stroke-width=".4" d="M24.186 51.48c-.388 8.577 3.723 15.257 14.37 16.22 10.451 1.005 15.432-6.217 15.842-14.697.41-8.48-5.966-15.691-14.348-16.122-8.382-.431-15.454 6.118-15.863 14.598Z" class="&lt;Path&gt;"/>
                <path fill="#050505" d="m26.952 51.493.353 1.151S24.659 65.908 39.4 67.823c.098-.021-.161-.272-.824-.026l-.021-.097c-10.647-.963-14.758-7.643-14.37-16.22.12-2.278.694-4.347 1.701-6.305.535 1.52 1.065 6.318 1.065 6.318Z" class="&lt;Path&gt;" opacity=".4"/>
              </g>
              <path fill="#FEFEFE" d="M41.761 57.487s1.127-4.236 6.531-2.442c0 0-.2 3.318-3.12 3.543-2.82.203-3.41-1.101-3.41-1.101Zm-5.922.058s-.445-4.406-6.079-3.49c0 0-.396 3.36 2.497 3.96 2.796.621 3.582-.47 3.582-.47Z" class="&lt;Path&gt;"/>
              <path fill="#050505" d="M36.765 58.981s.59 1.304 1.924 1.322c1.355.115 2.273-1.313 2.273-1.313s-1.5.633-2.205.684c-.629-.068-1.992-.693-1.992-.693Z" class="&lt;Path&gt;"/>
              <g class="&lt;Group&gt;">
                <g class="&lt;Group&gt;">
                  <path fill="#050505" d="M52.933 33.06c-.043 2.158-2.036 3.819-4.411 3.72-2.277-.119-4.112-1.972-3.972-4.151.141-2.18 2.113-3.938 4.411-3.721 2.277.12 4.112 1.972 3.972 4.152Zm-19.216-.842c-.128 1.768-1.578 3.106-3.345 2.978-1.865-.107-3.203-1.556-3.075-3.323.107-1.865 1.653-3.225 3.42-3.097 1.768.128 3.127 1.675 3 3.442Z" class="&lt;Path&gt;"/>
                  <path fill="#050505" d="M59.203 37.429c-.133 2.69-2.432 4.826-5.121 4.693-2.69-.132-4.826-2.43-4.694-5.12.133-2.69 2.432-4.826 5.121-4.694 2.69.133 4.826 2.432 4.694 5.12Zm-34.347 3.467c-.132 2.69-2.431 4.826-5.218 4.715-2.71-.23-4.847-2.53-4.715-5.218.111-2.788 2.53-4.848 5.218-4.715 2.69.132 4.826 2.431 4.715 5.218Zm21.39-8.942c-.18 3.416-3.609 6.002-7.556 5.733-4.023-.15-7.111-3.06-6.932-6.476.2-3.318 3.532-5.883 7.555-5.734 3.947.269 7.014 3.082 6.933 6.477Z" class="&lt;Path&gt;"/>
                  <path fill="#050505" d="M30.155 35.14c-.132 2.69-2.43 4.826-5.12 4.694-2.69-.132-4.728-2.453-4.596-5.142.132-2.69 2.453-4.728 5.044-4.574 2.69.132 4.805 2.333 4.672 5.023Zm-6.1 14.321c-.09 2.885-2.444 5.238-5.252 5.03-2.787-.112-4.868-2.628-4.702-5.631.09-2.885 2.444-5.238 5.252-5.03 2.788.112 4.869 2.627 4.702 5.631Zm40.867 2.997c-.167 3.003-2.52 5.357-5.308 5.245-2.787-.11-4.89-2.724-4.723-5.728.145-3.101 2.5-5.454 5.287-5.343 2.689.132 4.889 2.724 4.744 5.826Z" class="&lt;Path&gt;"/>
                  <path fill="#050505" d="M63.297 43.09c-.175 2.493-2.3 4.49-4.794 4.314-2.591-.153-4.49-2.3-4.315-4.793.056-2.57 2.202-4.469 4.793-4.315 2.473.077 4.47 2.202 4.316 4.793Z" class="&lt;Path&gt;"/>
                  <g class="&lt;Group&gt;">
                    <path fill="#050505" d="M42.445 44.138c-.065 2.06-1.786 3.56-3.846 3.495-1.963-.085-3.56-1.785-3.496-3.845.183-1.984 1.883-3.581 3.867-3.398a3.576 3.576 0 0 1 3.475 3.748Z" class="&lt;Path&gt;"/>
                    <path fill="#050505" d="M49.361 44.887c-.064 2.06-1.862 3.68-3.944 3.517-2.06-.064-3.657-1.764-3.495-3.846.064-2.06 1.861-3.679 3.922-3.614 2.06.064 3.679 1.861 3.517 3.943Z" class="&lt;Path&gt;"/>
                    <path fill="#050505" d="M54.845 47.994c-.064 2.06-1.861 3.679-3.943 3.517-2.06-.064-3.581-1.883-3.517-3.944.064-2.06 1.862-3.678 3.943-3.516 2.06.064 3.68 1.861 3.517 3.943Z" class="&lt;Path&gt;"/>
                    <path fill="#050505" d="M57.045 52.94c-.052 1.649-1.424 2.868-2.975 2.795-1.648-.051-2.867-1.424-2.816-3.072.073-1.551 1.424-2.868 3.094-2.719 1.55.073 2.867 1.424 2.697 2.996Zm-29.451-1.791c-.17 1.572-1.522 2.888-3.094 2.718-1.648-.051-2.867-1.424-2.794-2.975.05-1.648 1.424-2.867 3.072-2.816 1.648.051 2.867 1.424 2.816 3.073Z" class="&lt;Path&gt;"/>
                    <path fill="#050505" d="M30.854 47.78c-.018 1.334-1.14 2.294-2.474 2.277-1.236-.038-2.294-1.14-2.179-2.495.039-1.236 1.14-2.293 2.495-2.178 1.236.038 2.294 1.139 2.157 2.396Z" class="&lt;Path&gt;"/>
                    <path fill="#050505" d="M36.216 44.672c-.107 1.865-1.751 3.245-3.595 3.236-1.865-.107-3.343-1.73-3.237-3.595.107-1.865 1.73-3.343 3.595-3.236 1.865.106 3.246 1.75 3.237 3.595Z" class="&lt;Path&gt;"/>
                    <path fill="#050505" d="m24.386 52.869 6.608-7.268 6.611-1.129 6.96.945 4.604 3.298 3.233 2.163 1.754 2.894 3.7-2.748 1.405-7.672-9.077-9.286-9.755-1.566-10.587.253-8.236 7.314-2.938 8.62 5.718 4.182Z" class="&lt;Path&gt;"/>
                  </g>
                </g>
                <path stroke="#3F1D13" stroke-width=".5" d="M26.957 48.217c-1.04-.081-1.762-1.05-1.584-2.112.081-1.04 1.148-1.784 2.189-1.703 1.062.178 1.784 1.147 1.605 2.21m25.061 7.963c1.04.081 2.01-.641 2.07-1.78.178-1.062-.62-1.912-1.683-2.09-1.139-.06-2.086.76-2.167 1.8M34.031 29.899c.528-1.343 1.824-2.443 3.464-2.901 2.226-.586 4.456.26 5.62 1.85.215.362.405.764.57 1.206" class="&lt;Path&gt;"/>
                <path stroke="#3F1D13" stroke-width=".4" d="M41.843 33.83c-.156-1.193-1.27-2.077-2.463-1.92-.51.008-1.054.33-1.36.807" class="&lt;Path&gt;"/>
                <path stroke="#3F1D13" stroke-width=".5" d="M24.858 31.481c-1.78.284-3.068 1.894-2.881 3.696.208 1.899 1.817 3.187 3.619 3m5.311-1.46c1.767.128 3.412-1.253 3.54-3.02.128-1.767-1.232-3.314-2.999-3.442-1.886-.204-3.433 1.155-3.56 2.922" class="&lt;Path&gt;"/>
                <path stroke="#3F1D13" stroke-width=".4" d="M52.79 42.3c-.662-2.107-2.935-3.148-5.14-2.465-2.086.76-3.225 3.054-2.465 5.14" class="&lt;Path&gt;"/>
                <path stroke="#3F1D13" stroke-width=".5" d="M59.761 45.187c1.347-.395 2.244-1.92 1.85-3.267-.417-1.444-1.942-2.341-3.386-1.925" class="&lt;Path&gt;"/>
                <path stroke="#3F1D13" stroke-width=".4" d="M42.9 37.285c-2.608-1.173-5.748-.082-7.019 2.547" class="&lt;Path&gt;"/>
                <path stroke="#3F1D13" stroke-width=".5" d="M62.164 55.308c1.56-1.772 1.475-4.516-.296-6.076" class="&lt;Path&gt;"/>
                <path stroke="#3F1D13" stroke-width=".4" d="M23.876 52.877a2.878 2.878 0 0 0 2.64-2.927" class="&lt;Path&gt;"/>
                <path stroke="#3F1D13" stroke-width=".5" d="M49.114 48.932c.19.88 1.12 1.394 2 1.203.859-.29 1.394-1.122 1.105-1.98m-21.195-1.947c1.657.562 3.505-.352 3.968-1.987.562-1.657-.351-3.505-2.008-4.066a3.24 3.24 0 0 0-3.948 2.085" class="&lt;Path&gt;"/>
                <path stroke="#3F1D13" stroke-width=".4" d="M58.13 43.802c-1.601-.778-3.513-.158-4.312 1.345-.778 1.602-.158 3.514 1.346 4.313 1.503.8 3.415.18 4.214-1.325m-39.503-2.371c-1.164.764-1.508 2.476-.744 3.64.786 1.263 2.498 1.607 3.662.843 1.241-.884 1.51-2.477.723-3.739" class="&lt;Path&gt;"/>
                <path stroke="#3F1D13" stroke-width=".5" d="M54.388 41.647c2.192-.272 3.786-2.357 3.515-4.55-.293-2.29-2.281-3.905-4.571-3.612a4.042 4.042 0 0 0-3.515 4.55m-6.23 5.241a2.544 2.544 0 0 0 .569 3.56c1.21.863 2.795.621 3.658-.59m-30.067.082c-1.836.501-2.843 2.46-2.244 4.274.5 1.835 2.459 2.843 4.294 2.342m-3.345-12.577c-.106 1.866 1.253 3.412 3.118 3.519 1.746.03 3.39-1.35 3.4-3.194.106-1.865-1.253-3.412-3.118-3.519-1.746-.03-3.39 1.35-3.4 3.194Z" class="&lt;Path&gt;"/>
                <path stroke="#3F1D13" stroke-width=".4" d="M26.382 39.44c1.028.492 2.277.119 2.868-.93.59-1.05.217-2.299-.832-2.89-1.028-.493-2.278-.12-2.868.93" class="&lt;Path&gt;"/>
                <g class="&lt;Group&gt;">
                  <path stroke="#3F1D13" stroke-width=".4" d="M36.675 43.958c-.06 1.139.879 2.163 2.018 2.223m2.32-2.039c.06-1.139-.88-2.163-2.115-2.202" class="&lt;Path&gt;"/>
                </g>
                <path stroke="#3F1D13" stroke-width=".5" d="M45.328 33.381c-.107 1.865 1.252 3.412 3.096 3.42 1.767.129 3.314-1.23 3.42-3.096.108-1.865-1.35-3.39-3.096-3.42-1.865-.107-3.411 1.252-3.42 3.096Z" class="&lt;Path&gt;"/>
              </g>
              <g class="&lt;Group&gt;">
                <path fill="#855226" d="M46.376 56.587c.114.998-.638 1.776-1.56 1.771-.998.115-1.797-.735-1.793-1.657-.016-1.02.715-1.895 1.637-1.89.922.004 1.699.756 1.716 1.776Z" class="&lt;Path&gt;"/>
                <path fill="#050505" d="M45.258 56.625c-.034.314-.285.574-.501.518-.314-.034-.574-.285-.54-.599.034-.314.285-.573.6-.54.216.056.475.307.441.621Z" class="&lt;Path&gt;"/>
                <path fill="#FEFEFE" d="M44.285 55.915c.043.196-.131.336-.327.378-.119-.076-.259-.25-.28-.348.055-.217.23-.357.327-.378.217.055.336.132.28.348Z" class="&lt;Path&gt;"/>
              </g>
              <g class="&lt;Group&gt;">
                <path fill="#855226" d="M31.378 55.853c-.2.964.425 1.954 1.27 2.078.964.2 1.857-.404 2.035-1.466.2-.964-.403-1.857-1.367-2.056-.846-.124-1.738.48-1.938 1.444Z" class="&lt;Path&gt;"/>
                <path fill="#050505" d="M32.462 56.13c-.035.313.225.564.441.62.315.034.565-.225.6-.54.033-.314-.128-.586-.442-.62-.315-.034-.565.225-.6.54Z" class="&lt;Path&gt;"/>
                <path fill="#FEFEFE" d="M33.57 55.581c-.055.217.086.391.183.37.217.055.391-.085.349-.28.055-.217-.085-.391-.183-.37-.217-.055-.39.085-.348.28Z" class="&lt;Path&gt;"/>
              </g>
              <path stroke="#050505" stroke-linecap="round" stroke-linejoin="round" stroke-width=".5" d="m28.575 52.368 1.164 1.59s5.404-.56 6.1 3.587" class="&lt;Path&gt;"/>
              <g class="&lt;Path&gt;">
                <path fill="#BB8653" d="m30.028 52.462.71 1.381Z"/>
                <path stroke="#050505" stroke-linecap="round" stroke-linejoin="round" stroke-width=".5" d="m30.028 52.462.71 1.381"/>
              </g>
              <path stroke="#050505" stroke-linecap="round" stroke-linejoin="round" stroke-width=".5" d="m49.72 53.61-1.449 1.338s-5.221-1.425-6.51 2.539" class="&lt;Path&gt;"/>
              <g class="&lt;Path&gt;">
                <path fill="#BB8653" d="m48.246 53.418-.863 1.21Z"/>
                <path stroke="#050505" stroke-linecap="round" stroke-linejoin="round" stroke-width=".5" d="m48.246 53.418-.863 1.21"/>
              </g>
              <path stroke="#050505" stroke-linecap="round" stroke-linejoin="round" stroke-width=".7" d="M42.956 52.622s2.707-1.201 4.474 1.28m-12.066-1.371s-2.497-1.606-4.601.488" class="&lt;Path&gt;"/>
              <path fill="#050505" d="M34.742 62.388c.493-1.028 2.247-.488 3.212-.288.216.055.65.166.964.2.196-.043.705-.051.998-.115.999-.114 2.78-.399 3.11.655.353 1.152-.515 3.284-3.888 3.3a.888.888 0 0 1-.412-.012.887.887 0 0 1-.412-.013c-3.34-.298-4.044-2.601-3.572-3.727Z" class="&lt;Path&gt;"/>
            </g>
            <g class="&lt;Group&gt;">
              <path fill="#AB4B39" d="m27.344 13.238-1.768-.127-5.965 53.586 1.649.05 6.084-53.509Z" class="&lt;Path&gt;"/>
              <g class="&lt;Group&gt;">
                <path fill="#88391D" d="m23.806 45.013-1.789-.226 3.33-28.966 1.69.247-3.231 28.945Z" class="&lt;Path&gt;"/>
                <path fill="#88391D" d="m26.99 16.794-1.788-.225.26-2.103 1.788.225-.26 2.103Z" class="&lt;Path&gt;"/>
              </g>
              <g class="&lt;Group&gt;">
                <path fill="#050505" fill-rule="evenodd" d="m10.759 42.422 3.38-28.26c.055-.217.23-.357.348-.28l23.72 2.728c.216.056.356.23.28.349l-3.282 28.24c-.056.216-.23.356-.447.3L11.06 42.87a.764.764 0 0 1-.301-.447Zm3.92-27.661-3.202 27.198c-.055.217.085.391.301.447l22.539 2.473c.119.077.293-.063.348-.28l3.223-27.101c.055-.217-.085-.39-.302-.446l-22.56-2.572c-.216-.055-.39.085-.348.28Z" class="&lt;Compound Path&gt;" clip-rule="evenodd"/>
                <path fill="#FEFEFE" d="m11.464 42.371 23.188 2.64 3.249-27.925-23.189-2.64-3.248 27.925Z" class="&lt;Path&gt;"/>
                <path fill="#3D92CD" d="m34.459 37.992 2.396-20.065-9.648-1.077 5.347 9.072-3.955-.779 5.86 12.85ZM14.885 21.367l-2.397 20.066 9.649 1.077-5.347-9.072 3.857.8-5.762-12.87Z" class="&lt;Path&gt;"/>
              </g>
            </g>
            <g class="&lt;Group&gt;">
              <g class="&lt;Path&gt;">
                <path fill="#803531" d="m23.535 58.374-1.147-.57c-.434-.11-.999.115-1.207.57-.11.433.072.803.191.88.378.327.692.36.692.36"/>
                <path stroke="#050505" stroke-linecap="round" stroke-linejoin="round" stroke-width=".4" d="m23.535 58.374-1.147-.57c-.434-.11-.999.115-1.207.57-.11.433.072.803.191.88.378.327.692.36.692.36"/>
              </g>
            </g>
          </g>
        </g>
        <g class="&lt;Group&gt;">
          <g class="&lt;Group&gt;">
            <path fill="#3D92CD" d="m22.015 18.386.386.838-1.351 1.316 1.941-.012.366.74-2.851 1.949-.387-.837 1.708-1.088-2.137.055-.161-.272 1.406-1.533-1.835.5-.365-.739 3.28-.917Zm1.473 4.899-.565.226.408.934-.663.247-.387-.838-.565.225.408.935-.642.344-.794-1.772 3.076-1.384.794 1.772-.662.246-.408-.935Zm1.457 1.526.386.837-1.351 1.317 1.942-.012.365.739-2.851 1.95-.387-.838 1.708-1.087-2.137.055-.161-.272 1.407-1.534-1.934.522-.267-.76 3.28-.917Z" class="&lt;Compound Path&gt;"/>
            <path fill="#3D92CD" fill-rule="evenodd" d="M26.719 32.51a1.826 1.826 0 0 1-2.545-.88c-.429-1.033-.033-2.04.978-2.566.935-.408 1.963.085 2.37 1.02.408.935.132 2.018-.803 2.426Zm-1.278-2.588c-.446.302-.731.875-.43 1.321.204.468.756.655 1.322.43.37-.183.556-.735.353-1.202-.204-.468-.778-.753-1.245-.549Zm.967 6.339-.429-1.032.842-1.309-1.207.57-.387-.838 3.174-1.405.472 1.228c.344.642.254 1.172-.387 1.516-.468.204-.901.094-1.181-.255l-.897 1.525Zm.88-2.544.021.097c.14.175.302.447.693.362.272-.162.208-.455.047-.727l-.022-.098-.74.366Z" class="&lt;Compound Path&gt;" clip-rule="evenodd"/>
            <path fill="#3D92CD" d="m26.956 37.37-.387-.837 3.077-1.384.365.74-3.055 1.481Z" class="&lt;Compound Path&gt;"/>
            <path fill="#3D92CD" fill-rule="evenodd" d="m28.111 38.45-.705.05-.387-.837 3.722-.296.408.935-2.605 2.612-.408-.935.425-.4-.45-1.13Zm1.9-.208-1.195.157.344.642.85-.8Z" class="&lt;Compound Path&gt;" clip-rule="evenodd"/>
          </g>
        </g>
      </g>
    </g>
  </g>
</svg>
