<svg xmlns="http://www.w3.org/2000/svg" width="57" height="42" fill="none" viewBox="0 0 57 42">
  <g class="3-27-texto">
    <g class="27 marzo">
      <g class="&lt;Group&gt;">
        <g class="&lt;Group&gt;">
          <path fill="#28C5EF" d="M55.185 27.868 3.54 26.222l-.085-4.56 51.617 1.55.114 4.656Z" class="&lt;Path&gt;"/>
        </g>
        <g class="&lt;Group&gt;">
          <g class="&lt;Group&gt;">
            <path fill="#FEFEFE" d="m19.77 12.342.222 4.312.04-.22.43-1.377.985-2.685.632.023-.345 5.937-.728.005.177-2.24.103-1.073.09-.756-.027-.096-.255.909-1.104 3.345-.536-.051-.165-4.12-.88 4.113-.727.005 1.36-6.026.728-.005Zm4.176.028-.698 4.372c-.091.756.157.892.473.903.536.052.615-.388.695-.828l.67-4.47.824-.032-.63 4.249c-.188.784-.29 1.856-1.65 1.837-1.236.05-1.297-.87-1.099-1.97l.563-4.125.852.063Zm3.103 1.695-.138 2.02-.397 2.201-.728.005.852-5.981.824-.033.718 4.583.121-2.432.301-2.173.824-.033-.824 6.077-.824.033-.65-4.707-.096.028.017.412Z" class="&lt;Compound Path&gt;"/>
            <path fill="#FEFEFE" fill-rule="evenodd" d="M31.102 12.252c.948.035 1.992.042 1.532 3.095-.353 2.708-1.34 2.893-2.797 2.903l-.507.045.852-5.982.92-.06Zm-.119.66-.738 4.594c1.264.046 1.434-1.15 1.633-2.25.063-.853.409-2.517-.895-2.343Zm-21.881-.66c.948.035 1.992.042 1.532 3.095-.353 2.708-1.34 2.893-2.796 2.903l-.508.045.852-5.982.92-.06Zm-.119.66-.738 4.594c1.264.046 1.434-1.15 1.633-2.25.063-.853.409-2.517-.895-2.343Z" class="&lt;Compound Path&gt;" clip-rule="evenodd"/>
            <path fill="#FEFEFE" d="m33.573 18.198-.728.004.853-5.98.824-.034-.949 6.01Zm-21.999-.001-.728.005.852-5.98.824-.034-.948 6.01Z" class="&lt;Compound Path&gt;"/>
            <path fill="#FEFEFE" fill-rule="evenodd" d="m36.802 12.146.411 6.027-.824.033-.02-1.14-1.265-.046-.39 1.156-.729.005 2.213-5.963.604-.072Zm-.596 3.3.081-2.212-.096.028-.872 3.07.948.034-.06-.92Zm-21.404-3.3.412 6.027-.824.033-.022-1.14-1.264-.046-.39 1.156-.728.005 2.212-5.963.604-.072Zm-.596 3.3.082-2.212-.096.028-.873 3.07.948.034-.06-.92Z" class="&lt;Compound Path&gt;" clip-rule="evenodd"/>
            <path fill="#FEFEFE" d="m39.206 12.17-.83 5.35 1.333-.078-.092.756-2.087-.013.852-5.981.824-.033Z" class="&lt;Compound Path&gt;"/>
            <path fill="#FEFEFE" fill-rule="evenodd" d="M43.162 12.158c.92-.061 1.992.042 1.532 3.094-.449 2.737-1.34 2.894-2.797 2.903l-.536-.05.853-5.982.948.035Zm-.12.66-.71 4.689c1.265.046 1.407-1.246 1.538-2.222.13-.976.505-2.545-.827-2.467Z" class="&lt;Compound Path&gt;" clip-rule="evenodd"/>
            <path fill="#FEFEFE" d="m47.942 12.112-.119.66-1.36-.018-.262 1.952 1.236-.05-.119.66-1.236.05-.33 2.077 1.333-.078-.092.756-2.087-.013.852-5.981 2.184-.015Zm1.236-.049-.83 5.349 1.333-.078-.091.756-2.184.015.948-6.01.824-.032Z" class="&lt;Compound Path&gt;"/>
          </g>
          <g class="&lt;Group&gt;">
            <g class="&lt;Group&gt;">
              <path fill="#FEFEFE" d="m9.012 23.349-2.184.014.369-2.296 6.772-.004-.301 2.172-2.28.043-.717 5.733-2.404-.025.745-5.637Zm7.883-.122-.09.756 3.131.02-.261 1.953-3.104.076-.12.66 3.325-.036-.178 2.24-5.824.039 1.019-7.905 5.824-.04-.302 2.173-3.42.064Z" class="&lt;Compound Path&gt;"/>
              <path fill="#FEFEFE" fill-rule="evenodd" d="m26.537 20.924 1.893 7.885-2.596.031-.129-.795-2.596.03-.407.745-2.596.031 3.93-7.924 2.5-.003Zm-2.302 4.946 1.044.007-.286-1.688-.758 1.681Z" class="&lt;Compound Path&gt;" clip-rule="evenodd"/>
              <path fill="#FEFEFE" d="m30.316 23.151-2.184.015.273-2.269 6.84-.128-.37 2.297-2.184.014-.717 5.733-2.404-.025.745-5.637Z" class="&lt;Compound Path&gt;"/>
              <path fill="#FEFEFE" fill-rule="evenodd" d="m42.234 28.62-2.884.116-1.414-1.982-.22-.04-.234 2.048-2.404-.025 1.019-7.905 3.324-.036c.096-.028.096-.028.536.051.44.08.784.187 1.28.459.4.3.705.627.902 1.299.03.338.037.718.021 1.14-.166 1.09-.724 1.914-1.673 2.47l1.747 2.405Zm-3.967-5.715-.182 1.513.92-.062c.421.016.662-.228.723-.732.08-.44-.197-.672-.513-.684l-.948-.035Zm9.201-2.383c1.182.002 2.128.384 2.838 1.149.729.828 1.02 1.82.871 2.975-.148 1.155-.7 2.115-1.656 2.882-.874.812-1.901 1.217-3.083 1.216-1.162.062-2.108-.32-2.837-1.15-.71-.764-.992-1.723-.843-2.878.147-1.155.69-2.148 1.628-2.978a5.108 5.108 0 0 1 3.082-1.216Zm-.728 6.05c.485-.004.914-.2 1.287-.586.373-.387.59-.833.65-1.337a1.709 1.709 0 0 0-.393-1.344c-.24-.346-.603-.518-1.089-.514-.485.003-.914.198-1.287.585-.392.323-.608.769-.65 1.337-.061.504.029.93.269 1.276.323.391.727.585 1.213.582Z" class="&lt;Compound Path&gt;" clip-rule="evenodd"/>
            </g>
          </g>
        </g>
      </g>
      <g class="&lt;Group&gt;">
        <path fill="#FEFEFE" d="m12.236 11.912-.4-.3.898-1.2.428.395-.926 1.105Z" class="&lt;Compound Path&gt;"/>
      </g>
    </g>
  </g>
</svg>
