<svg xmlns="http://www.w3.org/2000/svg" width="58" height="39" fill="none" viewBox="0 0 58 39">
  <g class="3-27-ilus">
    <g class="&lt;Group&gt;">
      <g class="&lt;Group&gt;">
        <path fill="#F69226" fill-rule="evenodd" d="M30.59 37.31a8.82 8.82 0 0 1-2.28-1.92 15.65 15.65 0 0 1-3.24-6c0-.08-.04-.2-.12-.36v-.24c-.32-1.36-.36-2.76-.12-4.2.08-.8.28-1.6.6-2.4.24-.56.52-1.16.84-1.8.8-1.6 1.64-3.2 2.52-4.8.16-.48.36-.96.6-1.44l.24-.48c.4-.72.76-1.4 1.08-2.04v-.24l.24-.24c0-.08.04-.16.12-.24 0-.08.04-.2.12-.36v-.12c.16-.24.32-.52.48-.84.32-.56.8-.84 1.44-.84.36 0 .72.12.96.36 1.08.84 2.04 1.68 3.12 2.4 1.84 1.28 3.76 2.4 5.76 3.36.24.16.48.28.72.36 0 .16-.04.32-.12.48-.32.56-.6 1.12-.84 1.68-.32.64-.64 1.24-.96 1.8-.24.56-.52 1.16-.84 1.8l-.72 1.68c-.24.56-.48 1.16-.72 1.8l-.48.96c-.16.32-.28.68-.36 1.08l-.48 1.2c-.08.24-.2.44-.36.6-.56 0-1.16-.04-1.8-.12-.36 0-.48-.12-.72-.36-.32-.32-.64-.68-.96-1.08l-.24-.24c-.08.72-.12 1.44-.12 2.16 0 .12 0 .24-.12.36-.16-.08-.32-.12-.48-.12-1.68-.12-3.12.36-4.44 1.32-.08 0-.12.04-.12.12-.24.12-.12.36.12.48h.24c.48.12 1.08.12 1.68.24 1.2.32 2.36.8 3.48 1.44 1.08.6 2.16 1.44 3 2.52-.16 0-.28-.04-.36-.12-.8-.24-1.56-.48-2.28-.72-.48-.24-.96-.48-1.44-.6-.08-.08-.16-.12-.24-.12l-.24.24c-.4.88-.8 1.72-1.2 2.52-.24.4-.44.8-.6 1.2h-.12c-.08-.08-.16-.12-.24-.12Zm.36-19.32c-.24 0-.24.12-.24.24v1.08c.24 1.8 1.44 3 3.24 3.12.72.12 1.56-.12 2.28-.48.12-.12.12-.12.12-.36-2.16-.64-3.96-1.84-5.4-3.6Zm.48-3.72c-.36-.12-.72.12-.72.48-.12.36.12.72.36.72.36.12.72-.12.84-.36.12-.36-.12-.72-.48-.84Z" class="&lt;Compound Path&gt;" clip-rule="evenodd"/>
        <path fill="#E53C33" fill-rule="evenodd" d="M15.35 32.75h-.48a10.71 10.71 0 0 1-3-1.2c-1.68-.96-3.12-2.2-4.32-3.72-.08-.16-.16-.28-.24-.36-.08 0-.12-.04-.12-.12v-.12c-.24-.24-.44-.52-.6-.84-.56-.96-1-2-1.32-3.12a8.79 8.79 0 0 1-.24-2.88c0-.6.12-1.2.12-1.92.24-2.08.52-4.2.84-6.36.16-1.76.36-3.52.6-5.28 0-.48 0-.84.36-1.2.36-.48.96-.72 1.56-.6.84.36 1.56.6 2.4.84.88.24 1.72.48 2.52.72 1.44.36 3 .6 4.44.72l1.92.24c-.08.72-.16 1.4-.24 2.04l-.24 2.4a64.73 64.73 0 0 0-.36 3.72l-.24 3.84v3.12c-.8.24-1.52.48-2.16.72-.72-.36-1.32-.84-2.04-1.08l.48.96c.16.32.28.64.36.96.12.12.12.12.12.24-1.6-.24-3.12-.72-4.56-1.44-.36.24-.48.24-.36.6.48 1.2.96 2.28 1.8 3.12.72.72 1.44 1.32 2.28 1.56 1.56.6 3.12.48 4.56-.36.84-.48 1.56-1.2 2.16-1.92.36-.48.6-.84.96-1.32 0 .12 0 .12-.12.24-.16.4-.36.8-.6 1.2l-.96 1.2c-.64.96-1.44 1.68-2.4 2.16-.72.4-1.52.6-2.4.6h-.12c-.08.48-.16 1-.24 1.56 0 .4-.04.76-.12 1.08Zm-.36-16.2c.12-.12.12-.24 0-.36-.24-.36-.36-.72-.72-.96-.96-1.08-2.16-1.44-3.6-.96-.84.24-1.56.84-2.04 1.56-.12.24-.24.48-.24.72.12.12.24.12.36 0l1.8-.36c1.2-.16 2.44-.08 3.72.24.24 0 .48.04.72.12Zm-6.36-4.8c.12-.48-.12-.72-.48-.84s-.72 0-.84.36.12.72.48.84.72-.12.84-.36Z" class="&lt;Compound Path&gt;" clip-rule="evenodd"/>
        <path fill="#D87928" fill-rule="evenodd" d="M30.95 37.43c.16-.4.36-.8.6-1.2.4-.8.8-1.64 1.2-2.52l.24-.24c.08 0 .16.04.24.12.48.12.96.36 1.44.6.72.24 1.48.48 2.28.72.08.08.2.12.36.12l.12.12c.24.12.48 0 .6-.24v-.24c0-1.2-.32-2.32-.96-3.36-.8-1.2-1.88-1.96-3.24-2.28.12-.12.12-.24.12-.36 0-.72.04-1.44.12-2.16l.24.24c.32.4.64.76.96 1.08.24.24.36.36.72.36.64.08 1.24.12 1.8.12.16-.16.28-.36.36-.6l.48-1.2c.08-.4.2-.76.36-1.08l.48-.96c.24-.64.48-1.24.72-1.8l.72-1.68c.32-.64.6-1.24.84-1.8.32-.56.64-1.16.96-1.8.24-.56.52-1.12.84-1.68.08-.16.12-.32.12-.48 1.8.72 3.48 1.44 5.28 1.92.88.32 1.76.6 2.64.84.72.12 1.2.48 1.32 1.2v.48c0 .16-.04.28-.12.36v.12c-.08.08-.12.16-.12.24-.4.72-.8 1.48-1.2 2.28l-1.92 3.84c-.72 1.52-1.48 3.04-2.28 4.56-.36.72-.72 1.44-1.2 2.16-.8 1.2-1.8 2.16-3 2.88-2.16 1.44-4.68 2.16-7.32 2.28-1.44 0-2.88-.12-4.32-.72l-.48-.24Zm9.24-13.68c0 1.08.84 3.12 2.76 3.48 1.2.24 3.24-.48 3.6-1.44-.08 0-.16-.04-.24-.12-.64-.08-1.24-.16-1.8-.24-.72-.12-1.44-.36-2.16-.72a7.79 7.79 0 0 1-1.8-.96c-.12-.12-.24-.12-.36 0Zm3.24 9c.08 0 .16.04.24.12h.36c.6 0 1.32-.72 1.32-1.44.12-1.08-.12-2.04-.24-3.12-.12-.24-.48-.36-.72-.12-.16.24-.32.44-.48.6a9.43 9.43 0 0 0-1.32 1.68c-.6.84 0 2.04.84 2.28Zm6-8.88c.12-.36-.12-.72-.48-.84s-.72.12-.84.48c0 .36.12.72.48.72.36.12.72 0 .84-.36Z" class="&lt;Compound Path&gt;" clip-rule="evenodd"/>
        <path fill="#9E2B25" fill-rule="evenodd" d="M15.47 24.47c0-.12 0-.12-.12-.24-.08-.32-.2-.64-.36-.96l-.48-.96c.72.24 1.32.72 2.04 1.08.64-.24 1.36-.48 2.16-.72v-3.12l.24-3.84c.08-1.2.2-2.44.36-3.72l.24-2.4c.08-.64.16-1.32.24-2.04.64.08 1.28.12 1.92.12h2.64c1.12-.08 2.2-.16 3.24-.24h.36c.96-.12 1.56.12 1.92.96l.12.12v.72c-.16 1.44-.36 2.88-.6 4.32v.6c-.24.48-.44.96-.6 1.44-.88 1.6-1.72 3.2-2.52 4.8-.32.64-.6 1.24-.84 1.8-.32.8-.52 1.6-.6 2.4-.24 1.44-.2 2.84.12 4.2v.24c-.24.16-.48.36-.72.6-.88.72-1.84 1.32-2.88 1.8-1.04.56-2.2.96-3.48 1.2-.72.24-1.56.24-2.4.24-.08 0-.12-.04-.12-.12.08-.32.12-.68.12-1.08.08-.56.16-1.08.24-1.56h.12c.88 0 1.68-.2 2.4-.6.96-.48 1.76-1.2 2.4-2.16l.96-1.2c.24-.4.44-.8.6-1.2.12-.12.12-.12.12-.24v-.12c-.08 0-.12-.04-.12-.12 0-.24-.12-.24-.24-.12h-.24c-1.32.24-2.64.48-4.08.36-.72 0-1.44-.12-2.16-.24Zm10.32-5.76c.12-.24.12-.48.12-.6-.24-.72-.6-1.32-1.2-1.92-.8-.72-1.72-1-2.76-.84-.96.12-1.8.6-2.52 1.32 0 .12 0 .24-.12.36.6.12 1.2 0 1.68.12l1.68.24c.56.16 1.08.36 1.56.6.6.12 1.08.48 1.56.72Zm.96-5.16c0 .36.12.72.48.84s.72-.12.84-.48 0-.72-.48-.84c-.36-.12-.72.12-.84.48Z" class="&lt;Compound Path&gt;" clip-rule="evenodd"/>
        <g class="&lt;Group&gt;">
          <path stroke="#050505" stroke-width=".48" d="M24.95 29.03c-.24.16-.48.36-.72.6-.88.72-1.84 1.32-2.88 1.8-1.04.56-2.2.96-3.48 1.2-.72.24-1.56.24-2.4.24-.08 0-.12-.04-.12-.12h-.48a10.71 10.71 0 0 1-3-1.2c-1.68-.96-3.12-2.2-4.32-3.72-.08-.16-.16-.28-.24-.36-.08 0-.12-.04-.12-.12v-.12c-.24-.24-.44-.52-.6-.84-.56-.96-1-2-1.32-3.12a8.79 8.79 0 0 1-.24-2.88c0-.6.12-1.2.12-1.92.24-2.08.52-4.2.84-6.36.16-1.76.36-3.52.6-5.28 0-.48 0-.84.36-1.2.36-.48.96-.72 1.56-.6.84.36 1.56.6 2.4.84.88.24 1.72.48 2.52.72 1.44.36 3 .6 4.44.72l1.92.24c.64.08 1.28.12 1.92.12h2.64c1.12-.08 2.2-.16 3.24-.24h.36c.96-.12 1.56.12 1.92.96l.12.12v.72c-.16 1.44-.36 2.88-.6 4.32v.6c-.24.48-.44.96-.6 1.44-.88 1.6-1.72 3.2-2.52 4.8-.32.64-.6 1.24-.84 1.8-.32.8-.52 1.6-.6 2.4-.24 1.44-.2 2.84.12 4.2v.24Zm-10.68-12.6c.24 0 .48.04.72.12.12-.12.12-.24 0-.36-.24-.36-.36-.72-.72-.96-.96-1.08-2.16-1.44-3.6-.96-.84.24-1.56.84-2.04 1.56-.12.24-.24.48-.24.72.12.12.24.12.36 0l1.8-.36c1.2-.16 2.44-.08 3.72.24Zm4.92 11.52c.84-.48 1.56-1.2 2.16-1.92.36-.48.6-.84.96-1.32v-.12c-.08 0-.12-.04-.12-.12 0-.24-.12-.24-.24-.12h-.24c-1.32.24-2.64.48-4.08.36-.72 0-1.44-.12-2.16-.24-1.6-.24-3.12-.72-4.56-1.44-.36.24-.48.24-.36.6.48 1.2.96 2.28 1.8 3.12.72.72 1.44 1.32 2.28 1.56 1.56.6 3.12.48 4.56-.36Zm6.72-9.84c-.24-.72-.6-1.32-1.2-1.92-.8-.72-1.72-1-2.76-.84-.96.12-1.8.6-2.52 1.32 0 .12 0 .24-.12.36.6.12 1.2 0 1.68.12l1.68.24c.56.16 1.08.36 1.56.6.6.12 1.08.48 1.56.72.12-.24.12-.48.12-.6Z" class="&lt;Compound Path&gt;" clip-rule="evenodd"/>
        </g>
        <path fill="#F69226" d="M43.43 32.75c-.84-.24-1.44-1.44-.84-2.28.4-.64.84-1.2 1.32-1.68.16-.16.32-.36.48-.6.24-.24.6-.12.72.12.12 1.08.36 2.04.24 3.12 0 .72-.72 1.44-1.32 1.44h-.36c-.08-.08-.16-.12-.24-.12Z" class="&lt;Path&gt;"/>
        <path stroke="#050505" stroke-width=".48" d="M52.79 20.03v.12c-.08.08-.12.16-.12.24-.4.72-.8 1.48-1.2 2.28l-1.92 3.84c-.72 1.52-1.48 3.04-2.28 4.56-.36.72-.72 1.44-1.2 2.16-.8 1.2-1.8 2.16-3 2.88-2.16 1.44-4.68 2.16-7.32 2.28-1.44 0-2.88-.12-4.32-.72l-.48-.24h-.12c-.08-.08-.16-.12-.24-.12a8.82 8.82 0 0 1-2.28-1.92 15.65 15.65 0 0 1-3.24-6c0-.08-.04-.2-.12-.36v-.24c-.32-1.36-.36-2.76-.12-4.2.08-.8.28-1.6.6-2.4.24-.56.52-1.16.84-1.8.8-1.6 1.64-3.2 2.52-4.8.16-.48.36-.96.6-1.44l.24-.48c.4-.72.76-1.4 1.08-2.04v-.24l.24-.24c0-.08.04-.16.12-.24 0-.08.04-.2.12-.36v-.12c.16-.24.32-.52.48-.84.32-.56.8-.84 1.44-.84.36 0 .72.12.96.36 1.08.84 2.04 1.68 3.12 2.4 1.84 1.28 3.76 2.4 5.76 3.36.24.16.48.28.72.36 1.8.72 3.48 1.44 5.28 1.92.88.32 1.76.6 2.64.84.72.12 1.2.48 1.32 1.2v.48c0 .16-.04.28-.12.36Zm-18.84 2.4c.72.12 1.56-.12 2.28-.48.12-.12.12-.12.12-.36-2.16-.64-3.96-1.84-5.4-3.6-.24 0-.24.12-.24.24v1.08c.24 1.8 1.44 3 3.24 3.12Zm4.08 12.48v-.24c0-1.2-.32-2.32-.96-3.36-.8-1.2-1.88-1.96-3.24-2.28-.16-.08-.32-.12-.48-.12-1.68-.12-3.12.36-4.44 1.32-.08 0-.12.04-.12.12-.24.12-.12.36.12.48h.24c.48.12 1.08.12 1.68.24 1.2.32 2.36.8 3.48 1.44 1.08.6 2.16 1.44 3 2.52l.12.12c.24.12.48 0 .6-.24Zm4.92-7.68c1.2.24 3.24-.48 3.6-1.44-.08 0-.16-.04-.24-.12-.64-.08-1.24-.16-1.8-.24-.72-.12-1.44-.36-2.16-.72a7.79 7.79 0 0 1-1.8-.96c-.12-.12-.24-.12-.36 0 0 1.08.84 3.12 2.76 3.48Z" class="&lt;Compound Path&gt;" clip-rule="evenodd"/>
      </g>
    </g>
  </g>
</svg>
