<svg xmlns="http://www.w3.org/2000/svg" width="61" height="19" fill="none" viewBox="0 0 61 19">
  <g class="3-3-texto">
    <g class="&lt;Group&gt;">
      <g class="&lt;Group&gt;">
        <g class="&lt;Group&gt;">
          <path fill="#4291CD" d="M60.2 14.4.4 18 0 13.2l59.8-3.5.4 4.7Z" class="&lt;Path&gt;"/>
        </g>
        <g class="&lt;Group&gt;">
          <g class="&lt;Group&gt;">
            <path fill="#FEFEFE" fill-rule="evenodd" d="M6.7 3.3c.9-.1 2-.1 1.8 3.1-.3 2.8-1.2 3-2.7 3.1l-.6.1.6-6.3h.9Zm-.2.8-.4 4.8c1.4-.1 1.4-1.4 1.5-2.4.1-1 .3-2.6-1.1-2.4Z" class="&lt;Compound Path&gt;" clip-rule="evenodd"/>
            <path fill="#FEFEFE" d="M9.7 9.3h-.8l.5-6.2.8-.1-.5 6.3Zm.1-6.5-.4-.2.7-1.3.6.4-.9 1.1Z" class="&lt;Compound Path&gt;"/>
            <path fill="#FEFEFE" fill-rule="evenodd" d="m12.5 2.8.8 6.2h-.8l-.1-1.2-1.3.1-.3 1.3H10l1.9-6.3.6-.1Zm-.3 3.5L12 4l-.7 3.2h.9v-.9Z" class="&lt;Compound Path&gt;" clip-rule="evenodd"/>
            <path fill="#FEFEFE" d="m15.9 8.8-.8.1.5-6.3h.9l-.6 6.2Zm1.9-4.5-.1 2.1-.1 2.3h-.9l.6-6.2.7-.1 1.1 4.7V4.6l.2-2.3h.8l-.5 6.2-.8.1-1-4.7v.4Zm5.3-2.2-.1.7-.9.1-.5 5.5h-.8l.5-5.5-1 .1.1-.7 2.7-.2Zm2.5-.2-.1.7-1.4.1-.2 2 1.3-.1-.1.7-1.2.1-.2 2.1 1.4-.1-.1.7-2.2.2.6-6.3 2.2-.1Z" class="&lt;Compound Path&gt;"/>
            <path fill="#FEFEFE" fill-rule="evenodd" d="m26 1.9 1-.1c.6-.1 1.5-.1 1.4 1.5-.1.6-.3 1.5-1 1.6l.9 3h-.9L26.6 5h-.1l-.2 3-.8.1.5-6.2Zm1.5 1.6c0-.5 0-1-.6-1h-.2l-.1 2.1c.6 0 .8-.4.9-1.1Z" class="&lt;Compound Path&gt;" clip-rule="evenodd"/>
            <path fill="#FEFEFE" d="M29.7 3.4v2.1l-.2 2.3-.8.1.5-6.3h.8l1 4.6V3.7l.2-2.2.8-.1-.5 6.2-.7.1L29.7 3v.4Z" class="&lt;Compound Path&gt;"/>
            <path fill="#FEFEFE" fill-rule="evenodd" d="m34.4 1.2.8 6.2h-.9l-.1-1.2-1.2.1-.3 1.3h-.8l1.8-6.3.7-.1Zm-.3 3.5L34 2.4l-.8 3.2 1-.1-.1-.8Z" class="&lt;Compound Path&gt;" clip-rule="evenodd"/>
            <path fill="#FEFEFE" d="M38.3 1.8c-.1-.1-.3-.1-.5-.1-1.1.1-1.3 1.7-1.3 2.5-.1.8-.2 2.4 1 2.3.133 0 .3-.033.5-.1l-.1.7c-.2.133-.433.2-.7.2-1.6.1-1.7-1.6-1.6-3 .1-1.2.4-3.3 2.1-3.4.3 0 .5 0 .7.1l-.1.8Zm.8 5.3h-.8l.5-6.2.9-.1-.6 6.3Z" class="&lt;Compound Path&gt;"/>
            <path fill="#FEFEFE" fill-rule="evenodd" d="M43.2 3.7c0 1.1-.2 3.2-1.8 3.3-1.6.1-1.5-2-1.4-3.1.1-1.1.3-3.2 1.9-3.3 1.6-.1 1.4 2 1.3 3.1Zm-2.3.2c-.1 1.3-.1 2.4.5 2.3.7 0 .9-1.1 1-2.5.1-1.3.1-2.4-.6-2.3-.6 0-.8 1.1-.9 2.5Z" class="&lt;Compound Path&gt;" clip-rule="evenodd"/>
            <path fill="#FEFEFE" d="m44.7 2.3-.1 2.1-.2 2.3-.8.1.5-6.3h.8L46 5.1V2.6l.2-2.2.8-.1-.5 6.2-.8.1-1-4.7v.4Z" class="&lt;Compound Path&gt;"/>
            <path fill="#FEFEFE" fill-rule="evenodd" d="m49.3.1.8 6.2h-.8l-.1-1.2-1.3.1-.3 1.3h-.8L48.7.2l.6-.1ZM49 3.6l-.2-2.3-.7 3.2 1-.1-.1-.8Z" class="&lt;Compound Path&gt;" clip-rule="evenodd"/>
            <path fill="#FEFEFE" d="m51.8 0-.5 5.5 1.4-.1v.7l-2.2.1L51 0h.8Z" class="&lt;Compound Path&gt;"/>
          </g>
          <g class="&lt;Group&gt;">
            <g class="&lt;Group&gt;">
              <path fill="#FEFEFE" d="m24.7 17.2-.6.1-1.3-2.2-.2 3.2-2.3.1.5-7.6 2.1-.2 1.7 2.8 2.1-3 2.1-.2-.5 7.7-2.3.1.2-3.2-1.5 2.4Zm7.9.5H32c-.4-.1-.8-.2-1.3-.5-.5-.2-.8-.6-1-1.3-.067-.333-.1-.7-.1-1.1l.3-4.7 2.3-.2-.3 4.7v.4l.2.2c.1.2.3.4.7.3.267 0 .467-.1.6-.3.2-.133.3-.3.3-.5l.1-.2.3-4.7 2.2-.2-.3 4.7c0 .8-.3 1.6-.7 2.1-.2.2-.433.4-.7.6-.7.5-1.5.6-1.8.7h-.2Zm3.6-2.1 1.8-1.2c.267.467.567.7.9.7.4-.067.6-.233.6-.5l.4-5.2 2.3-.2-.4 5.4c-.067.667-.367 1.267-.9 1.8-.6.467-1.3.733-2.1.8-.7.1-1.3-.2-1.7-.5-.4-.3-.7-.7-.8-1l-.1-.1Zm9.2-4.5v.7l2.9-.2-.1 2-3 .2v.7l3.2-.3-.1 2.2-5.5.4.5-7.7 5.5-.4-.2 2.2-3.2.2Z" class="&lt;Compound Path&gt;"/>
              <path fill="#FEFEFE" fill-rule="evenodd" d="m56.1 15.8-2.7.2-1.5-1.8h-.2l-.1 1.9-2.3.2.5-7.7 3.2-.2h.5c.5.1.8.2 1.2.4.5.3.8.6 1 1.2.067.333.1.7.1 1.1-.067 1.067-.533 1.867-1.4 2.4l1.7 2.3Zm-4.2-5.1-.1 1.4.9-.1c.4 0 .6-.233.6-.7.1-.5-.2-.7-.5-.7l-.9.1Z" class="&lt;Compound Path&gt;" clip-rule="evenodd"/>
            </g>
          </g>
        </g>
      </g>
      <g class="&lt;Group&gt;">
        <path fill="#FEFEFE" fill-rule="evenodd" d="M4.9 12.7c1-.1 2.1-.1 1.8 3.1-.3 2.9-1.3 3.1-2.7 3.2h-.6l.6-6.2.9-.1Zm-.2.7-.4 4.8c1.3 0 1.4-1.3 1.5-2.4.1-.9.3-2.6-1.1-2.4Z" class="&lt;Compound Path&gt;" clip-rule="evenodd"/>
        <path fill="#FEFEFE" d="m9.8 12.4-.1.7-1.3.1-.2 2 1.2-.1-.1.7-1.2.1-.2 2.1 1.4-.1-.1.7-2.2.2.6-6.3 2.2-.1Zm2.7-.2-.5 5.5h1.4l-.1.7-2.2.1.6-6.2.8-.1Z" class="&lt;Compound Path&gt;"/>
        <path fill="#FEFEFE" fill-rule="evenodd" d="m15.7 12 .8 6.2h-.9l-.1-1.2-1.2.1-.3 1.2-.8.1 1.9-6.3.6-.1Zm-.4 3.5v-2.3h-.1l-.8 3.2 1-.1-.1-.8Z" class="&lt;Compound Path&gt;" clip-rule="evenodd"/>
      </g>
    </g>
  </g>
</svg>
