<svg width="61" height="20" viewBox="0 0 61 20" fill="none" xmlns="http://www.w3.org/2000/svg">
<path d="M61 15L1.19999 18.6L0.799988 13.8L60.6 10.3L61 15Z" fill="#4291CD"/>
<path fill-rule="evenodd" clip-rule="evenodd" d="M7.5 3.89998C8.4 3.79998 9.5 3.79996 9.3 6.99996C9 9.79996 8.1 9.99993 6.6 10.0999L6 10.1999L6.6 3.89998H7.5ZM7.3 4.69991L6.89999 9.49996C8.29999 9.39996 8.29999 8.09993 8.39999 7.09993C8.49999 6.09993 8.7 4.49991 7.3 4.69991Z" fill="#FEFEFE"/>
<path d="M10.5 9.90002H9.70001L10.2 3.69995L11 3.59998L10.5 9.90002ZM10.6 3.40002L10.2 3.19995L10.9 1.90002L11.5 2.30005L10.6 3.40002Z" fill="#FEFEFE"/>
<path fill-rule="evenodd" clip-rule="evenodd" d="M13.3 3.40002L14.1 9.59998H13.3L13.2 8.40002L11.9 8.5L11.6 9.80005H10.8L12.7 3.5L13.3 3.40002ZM13 6.90002L12.8 4.59998L12.1 7.80005H13V6.90002Z" fill="#FEFEFE"/>
<path d="M16.7 9.40002L15.9 9.5L16.4 3.19995H17.3L16.7 9.40002Z" fill="#FEFEFE"/>
<path d="M18.6 4.90002L18.5 7L18.4 9.30005H17.5L18.1 3.09998L18.8 3L19.9 7.69995V5.19995L20.1 2.90002H20.9L20.4 9.09998L19.6 9.19995L18.6 4.5V4.90002Z" fill="#FEFEFE"/>
<path d="M23.9 2.69995L23.8 3.40002L22.9 3.5L22.4 9H21.6L22.1 3.5L21.1 3.59998L21.2 2.90002L23.9 2.69995Z" fill="#FEFEFE"/>
<path d="M26.4 2.5L26.3 3.19995L24.9 3.30005L24.7 5.30005L26 5.19995L25.9 5.90002L24.7 6L24.5 8.09998L25.9 8L25.8 8.69995L23.6 8.90002L24.2 2.59998L26.4 2.5Z" fill="#FEFEFE"/>
<path fill-rule="evenodd" clip-rule="evenodd" d="M26.8 2.49999L27.8 2.40001C28.4 2.30001 29.3 2.30001 29.2 3.90001C29.1 4.50001 28.9 5.39999 28.2 5.49999L29.1 8.49999H28.2L27.4 5.59996H27.3L27.1 8.59996L26.3 8.69994L26.8 2.49999ZM28.3 4.09996C28.3 3.59996 28.3 3.09996 27.7 3.09996H27.5L27.4 5.19994C28 5.19994 28.2 4.79996 28.3 4.09996Z" fill="#FEFEFE"/>
<path d="M30.5 4V6.09998L30.3 8.40002L29.5 8.5L30 2.19995H30.8L31.8 6.80005V4.30005L32 2.09998L32.8 2L32.3 8.19995L31.6 8.30005L30.5 3.59998V4Z" fill="#FEFEFE"/>
<path fill-rule="evenodd" clip-rule="evenodd" d="M35.2 1.80005L36 8H35.1L35 6.80005L33.8 6.90002L33.5 8.19995H32.7L34.5 1.90002L35.2 1.80005ZM34.9 5.30005L34.8 3L34 6.19995L35 6.09998L34.9 5.30005Z" fill="#FEFEFE"/>
<path d="M39.1 2.40002C39 2.30002 38.8 2.30005 38.6 2.30005C37.5 2.40005 37.3 4.00005 37.3 4.80005C37.2 5.60005 37.1 7.19998 38.3 7.09998C38.4334 7.09998 38.6 7.06667 38.8 7L38.7 7.69995C38.5 7.83328 38.2667 7.90002 38 7.90002C36.4 8.00002 36.3 6.30002 36.4 4.90002C36.5 3.70002 36.8 1.6 38.5 1.5C38.8 1.5 39 1.49998 39.2 1.59998L39.1 2.40002Z" fill="#FEFEFE"/>
<path d="M39.9 7.69995H39.1L39.6 1.5L40.5 1.40002L39.9 7.69995Z" fill="#FEFEFE"/>
<path fill-rule="evenodd" clip-rule="evenodd" d="M44 4.30008C44 5.40008 43.8 7.50001 42.2 7.60001C40.6 7.70001 40.7 5.60003 40.8 4.50003C40.9 3.40003 41.1 1.29998 42.7 1.19998C44.3 1.09998 44.1 3.20008 44 4.30008ZM41.7 4.50003C41.6 5.80003 41.6 6.90008 42.2 6.80008C42.9 6.80008 43.1 5.70008 43.2 4.30008C43.3 3.00008 43.3 1.90003 42.6 2.00003C42 2.00003 41.8 3.10003 41.7 4.50003Z" fill="#FEFEFE"/>
<path d="M45.5 2.90002L45.4 5L45.2 7.30005L44.4 7.40002L44.9 1.09998H45.7L46.8 5.69995V3.19995L47 1L47.8 0.900024L47.3 7.09998L46.5 7.19995L45.5 2.5V2.90002Z" fill="#FEFEFE"/>
<path fill-rule="evenodd" clip-rule="evenodd" d="M50.1 0.699951L50.9 6.90002H50.1L50 5.69995L48.7 5.80005L48.4 7.09998H47.6L49.5 0.800049L50.1 0.699951ZM49.8 4.19995L49.6 1.90002L48.9 5.09998L49.9 5L49.8 4.19995Z" fill="#FEFEFE"/>
<path d="M52.6 0.599976L52.1 6.09998L53.5 6V6.69995L51.3 6.80005L51.8 0.599976H52.6Z" fill="#FEFEFE"/>
<path d="M25.5 17.8L24.9 17.9L23.6 15.7L23.4 18.9L21.1 19L21.6 11.4L23.7 11.2L25.4 14L27.5 11L29.6 10.8L29.1 18.5L26.8 18.6L27 15.4L25.5 17.8Z" fill="#FEFEFE"/>
<path d="M33.4 18.3C33.3 18.3 33.2 18.3 32.8 18.3C32.4 18.2 32 18.1 31.5 17.8C31 17.6 30.7 17.2 30.5 16.5C30.4333 16.1667 30.4 15.8 30.4 15.4L30.7 10.7L33 10.5L32.7 15.2C32.7 15.3 32.7 15.3 32.7 15.6C32.7666 15.6666 32.8333 15.7334 32.9 15.8C33 16 33.2 16.2 33.6 16.1C33.8666 16.1 34.0666 16 34.2 15.8C34.4 15.6667 34.5 15.5 34.5 15.3L34.6 15.1L34.9 10.4L37.1 10.2L36.8 14.9C36.8 15.7 36.5 16.5 36.1 17C35.9 17.2 35.6666 17.4 35.4 17.6C34.7 18.1 33.9 18.2 33.6 18.3H33.4Z" fill="#FEFEFE"/>
<path d="M37 16.2L38.8 15C39.0667 15.4667 39.3667 15.7 39.7 15.7C40.1 15.6333 40.3 15.4666 40.3 15.2L40.7 10L43 9.80005L42.6 15.2C42.5333 15.8666 42.2333 16.4667 41.7 17C41.1 17.4667 40.4 17.7334 39.6 17.8C38.9 17.9 38.3 17.6 37.9 17.3C37.5 17 37.2 16.6 37.1 16.3L37 16.2Z" fill="#FEFEFE"/>
<path d="M46.2 11.7V12.4L49.1 12.2L49 14.2L46 14.4V15.1L49.2 14.8L49.1 17L43.6 17.4L44.1 9.69995L49.6 9.30005L49.4 11.5L46.2 11.7Z" fill="#FEFEFE"/>
<path fill-rule="evenodd" clip-rule="evenodd" d="M56.9 16.4L54.2 16.6L52.7 14.8H52.5L52.4 16.7L50.1 16.9L50.6 9.19995L53.8 9C53.8 9 53.9 9 54.3 9C54.8 9.1 55.1 9.20002 55.5 9.40002C56 9.70002 56.3 9.99998 56.5 10.6C56.5667 10.9333 56.6 11.3 56.6 11.7C56.5333 12.7666 56.0666 13.5666 55.2 14.1L56.9 16.4ZM52.7 11.3L52.6 12.7L53.5 12.6C53.9 12.6 54.1 12.3667 54.1 11.9C54.2 11.4 53.9 11.2 53.6 11.2L52.7 11.3Z" fill="#FEFEFE"/>
<path fill-rule="evenodd" clip-rule="evenodd" d="M5.70001 13.3C6.70001 13.2 7.80002 13.2 7.50002 16.4C7.20002 19.3 6.20001 19.4999 4.80001 19.5999H4.20001L4.80001 13.4L5.70001 13.3ZM5.50002 14L5.10001 18.8C6.40001 18.8 6.50001 17.5 6.60001 16.4C6.70001 15.5 6.90002 13.8 5.50002 14Z" fill="#FEFEFE"/>
<path d="M10.6 13L10.5 13.7L9.19999 13.8L8.99999 15.8L10.2 15.7L10.1 16.4L8.89999 16.5L8.69999 18.6L10.1 18.5L9.99999 19.2L7.79999 19.4L8.39999 13.1L10.6 13Z" fill="#FEFEFE"/>
<path d="M13.3 12.8L12.8 18.3H14.2L14.1 19L11.9 19.1L12.5 12.9L13.3 12.8Z" fill="#FEFEFE"/>
<path fill-rule="evenodd" clip-rule="evenodd" d="M16.5 12.6L17.3 18.8H16.4L16.3 17.6L15.1 17.7L14.8 18.9L14 19L15.9 12.7L16.5 12.6ZM16.1 16.1V13.8H16L15.2 17L16.2 16.9L16.1 16.1Z" fill="#FEFEFE"/>
</svg>
