<svg xmlns="http://www.w3.org/2000/svg" width="73" height="32" fill="none" viewBox="0 0 73 32">
  <g class="4-19-texto">
    <g class="texto">
      <path fill="#6A4C9E" d="M73 25.3.4 30.4 0 25.5l72.6-5.1.4 4.9Zm-3.4-9.5L6.5 19.9 6.1 15l63.1-4.1.4 4.9Z" class="&lt;Path&gt;"/>
      <g class="&lt;Group&gt;">
        <g class="&lt;Group&gt;">
          <path fill="#FEFEFE" fill-rule="evenodd" d="m13.2 12.9 2.3 7.7-2.5.1-.2-.8-2.6.2-.3.8-2.5.2 3.5-8.1 2.3-.1Zm-2.1 5 1-.1-.4-1.6-.6 1.7Zm5.1 2.6.6-7.9 3.4-.2h.3c.133 0 .333.033.6.1.333.067.6.167.8.3.2.133.4.333.6.6.133.267.2.6.2 1A2.9 2.9 0 0 1 22 16c.533.4.766.967.7 1.7-.134 1.6-1.267 2.467-3.4 2.6l-3.1.2Zm2.5-2.3 1-.1c.333 0 .5-.167.5-.5.1-.2-.1-.3-.4-.3h-1l-.1.9Zm.2-2.5.9-.1c.2 0 .4-.1.4-.4 0-.4-.2-.5-.3-.4h-1v.9Zm9-3.9c1.133-.067 2.067.267 2.8 1 .733.733 1.067 1.7 1 2.9a4.778 4.778 0 0 1-1.4 2.9c-.867.867-1.867 1.333-3 1.4-1.2.067-2.167-.267-2.9-1-.733-.733-1.033-1.667-.9-2.8.067-1.2.533-2.2 1.4-3 .8-.867 1.8-1.333 3-1.4Zm-.5 6c.467-.067.9-.3 1.3-.7.333-.333.533-.767.6-1.3 0-.533-.133-.967-.4-1.3a1.637 1.637 0 0 0-1.2-.5c-.467.067-.867.3-1.2.7-.333.333-.533.767-.6 1.3-.067.533.067.967.4 1.3.267.333.633.5 1.1.5Zm12.1 1.3-2.9.1-1.4-1.8h-.3l-.1 2-2.3.1.6-7.9 3.2-.2c.1 0 .2 0 .6.1.4 0 .8.1 1.2.4.5.3.8.6 1 1.2.067.333.1.7.1 1.1-.133 1.133-.633 1.967-1.5 2.5l1.8 2.4Zm-4.2-5.3-.2 1.4h.9c.467-.067.7-.333.7-.8.1-.5-.2-.7-.5-.7l-.9.1Z" class="&lt;Compound Path&gt;" clip-rule="evenodd"/>
          <path fill="#FEFEFE" d="m40.1 19 .6-7.8 2.4-.2-.6 7.9-2.4.1Zm9.8-5.4c-.2-.4-.467-.633-.8-.7a4.21 4.21 0 0 0-1-.1c-.467 0-.867.2-1.2.6-.4.4-.6.833-.6 1.3-.067.533.067.967.4 1.3.267.4.633.567 1.1.5.333 0 .633-.067.9-.2.2-.133.333-.267.4-.4l.1-.2-1.5.1.2-1.8 4-.3-.1 1.6c-.2.9-.6 1.6-1.1 2.1-.2.2-.433.4-.7.6a4.45 4.45 0 0 0-.8.4 9.56 9.56 0 0 0-.7.2 2.74 2.74 0 0 1-.6.1h-.2c-1.2.067-2.167-.267-2.9-1-.733-.733-1.033-1.667-.9-2.8.067-1.133.533-2.133 1.4-3 .867-.8 1.867-1.233 3-1.3 1.533-.133 2.667.433 3.4 1.7l-1.8 1.3Zm5.5-1.1-.1.7 3.1-.2-.2 2.1-3.1.1v.7l3.3-.2-.2 2.2-5.6.4.6-7.9 5.7-.3-.2 2.2-3.3.2Zm11.5-2.9-.6 7.8-2.2.1-2.2-3.2-.2 3.4-2.4.1.6-7.8 2.1-.1 2.3 3.2.2-3.4 2.4-.1Z" class="&lt;Compound Path&gt;"/>
        </g>
      </g>
      <g class="&lt;Group&gt;">
        <g class="&lt;Group&gt;">
          <path fill="#FEFEFE" fill-rule="evenodd" d="m7.1 23.6 2.2 7.7-2.5.1-.2-.8-2.5.2-.4.8-2.5.2 3.5-8.1 2.4-.1Zm-2.1 5 1.1-.1-.4-1.6-.7 1.7Z" class="&lt;Compound Path&gt;" clip-rule="evenodd"/>
          <path fill="#FEFEFE" d="m14.5 30-.6.1-1.3-2.3-.2 3.3-2.3.1.6-7.8 2.1-.2 1.7 2.9 2.2-3.1 2.2-.2-.6 7.9-2.4.2.3-3.3-1.7 2.4Zm7.8-5.2-.1.8 3.1-.2-.2 2-3 .2-.1.7 3.3-.2-.1 2.2-5.7.3.6-7.8 5.7-.4-.2 2.2-3.3.2Z" class="&lt;Compound Path&gt;"/>
          <path fill="#FEFEFE" fill-rule="evenodd" d="m33.2 29.8-2.8.2-1.5-1.9h-.2l-.1 2-2.4.1.6-7.8 3.3-.2s.1-.1.6 0c.4.1.7.1 1.2.4.4.3.8.6.9 1.3.133.267.167.6.1 1-.067 1.133-.567 1.967-1.5 2.5l1.8 2.4ZM29 24.5l-.1 1.4h.9c.4-.067.633-.333.7-.8 0-.5-.2-.7-.6-.7l-.9.1Z" class="&lt;Compound Path&gt;" clip-rule="evenodd"/>
          <path fill="#FEFEFE" d="m33.9 29.7.6-7.8 2.3-.2-.6 7.9-2.3.1Zm11.9-4c-.267 1-.833 1.867-1.7 2.6-.8.667-1.7 1.033-2.7 1.1-1.133.067-2.066-.267-2.8-1-.733-.733-1.067-1.667-1-2.8.133-1.133.6-2.133 1.4-3 .867-.8 1.867-1.233 3-1.3 1.067-.067 1.934.2 2.6.8.733.6 1.167 1.4 1.3 2.4l-2.6.1a1.28 1.28 0 0 0-.5-.8c-.267-.2-.566-.3-.9-.3-.466 0-.9.2-1.3.6a2.66 2.66 0 0 0-.6 1.4c0 .467.133.867.4 1.2.334.4.733.567 1.2.5.334 0 .633-.133.9-.4.334-.267.6-.567.8-.9l2.5-.2Z" class="&lt;Compound Path&gt;"/>
          <path fill="#FEFEFE" fill-rule="evenodd" d="m51.4 20.8 2.3 7.7-2.5.2-.2-.8-2.6.1-.3.9-2.5.1 3.5-8 2.3-.2Zm-2.1 4.9h1l-.4-1.7-.6 1.7Z" class="&lt;Compound Path&gt;" clip-rule="evenodd"/>
          <path fill="#FEFEFE" d="m62 20.2-.6 7.8-2.2.2-2.2-3.3-.2 3.4-2.4.2.6-7.9 2.1-.1 2.3 3.3.3-3.5 2.3-.1Z" class="&lt;Compound Path&gt;"/>
          <path fill="#FEFEFE" fill-rule="evenodd" d="M67.2 19.7c1.133-.067 2.067.267 2.8 1 .733.733 1.067 1.667 1 2.8-.067 1.2-.534 2.2-1.4 3-.867.867-1.867 1.333-3 1.4-1.2.067-2.167-.267-2.9-1-.733-.733-1.034-1.667-.9-2.8.067-1.2.533-2.2 1.4-3 .867-.867 1.867-1.333 3-1.4Zm-.5 6c.466-.067.9-.3 1.3-.7.333-.333.533-.767.6-1.3 0-.533-.133-.967-.4-1.3a1.636 1.636 0 0 0-1.2-.5c-.467.067-.867.3-1.2.7-.334.333-.534.767-.6 1.3-.067.533.066.967.4 1.3.267.333.633.5 1.1.5Z" class="&lt;Compound Path&gt;" clip-rule="evenodd"/>
        </g>
      </g>
      <g class="&lt;Group&gt;">
        <g class="&lt;Group&gt;">
          <path fill="#FEFEFE" fill-rule="evenodd" d="M33 2c1-.1 2.1-.1 1.8 3.2-.3 2.9-1.3 3.1-2.8 3.2l-.5.1.6-6.4.9-.1Zm-.2.7-.5 4.9c1.4 0 1.5-1.3 1.6-2.4.1-1 .3-2.7-1.1-2.5Z" class="&lt;Compound Path&gt;" clip-rule="evenodd"/>
          <path fill="#FEFEFE" d="M36 8.2h-.8l.6-6.4h.8L36 8.2Zm.2-6.7-.4-.2.8-1.3.5.3-.9 1.2Z" class="&lt;Compound Path&gt;"/>
          <path fill="#FEFEFE" fill-rule="evenodd" d="m39 1.6.8 6.3-.9.1-.1-1.2h-1.3l-.3 1.3-.9.1 2-6.5.7-.1Zm-.3 3.5-.1-2.3-.8 3.3h1l-.1-1Zm4.5-3.7c1-.1 2.1-.1 1.8 3.2-.3 2.9-1.3 3.1-2.8 3.2h-.6l.6-6.4h1Zm-.1.8-.5 4.9c1.4 0 1.4-1.3 1.5-2.4.1-1 .4-2.7-1-2.5Z" class="&lt;Compound Path&gt;" clip-rule="evenodd"/>
          <path fill="#FEFEFE" d="m48.2 1.1-.1.7-1.4.1-.2 2 1.3-.1-.1.8h-1.3l-.2 2.2 1.5-.1-.1.8-2.3.1.6-6.4 2.3-.1Zm1.3-.1-.6 5.6h1.5l-.1.7-2.3.1.6-6.4h.9Z" class="&lt;Compound Path&gt;"/>
        </g>
      </g>
    </g>
  </g>
</svg>
