<svg xmlns="http://www.w3.org/2000/svg" width="65" height="60" fill="none" viewBox="0 0 65 60">
  <g class="4-19-ilus">
    <g class="ilustracion">
      <path fill="#1C1C1A" d="M20.57 57.1c0 1 6.6 2.1 14.7 2.4 8.2.4 14.8-.2 14.9-1.2 0-1.1-6.6-2.2-14.7-2.5-8.2-.3-14.8.2-14.9 1.3Z" class="sombra" opacity=".2"/>
      <g class="cuerpo">
        <g class="piernas">
          <g class="&lt;Group&gt;">
            <g class="&lt;Group&gt;">
              <g class="&lt;Group&gt;">
                <path fill="#B76B29" stroke="#050505" stroke-linecap="round" stroke-linejoin="round" stroke-width=".4" d="m34.97 50.2 1 6.4 8-.2.3-6.2c0-1.1.1-4.1-4.9-3.8-4.5.2-4.4 2.8-4.4 3.8Z" class="&lt;Path&gt;"/>
              </g>
              <path fill="#0B0C0E" d="M43.97 49.3c.4 1.9-.2 7.1-.2 7.1h-1.9l.1-9.9c.2.2 1.6.2 2 2.8Z" class="&lt;Path&gt;" opacity=".3"/>
            </g>
            <g class="&lt;Group&gt;">
              <g class="&lt;Group&gt;">
                <path fill="#BC7C54" stroke="#050505" stroke-linecap="round" stroke-linejoin="round" stroke-width=".4" d="M43.37 56.3s-2.3 1.3-.5 1.8l-6.5-.3.1-1.1h3.7c3.3-.1 3.4-.5 3.2-.4Z" class="&lt;Path&gt;"/>
              </g>
              <g class="&lt;Group&gt;">
                <g class="&lt;Group&gt;">
                  <g class="&lt;Path&gt;">
                    <path fill="#BC7C54" d="M39.67 58s4.5.2 5 .2 1-.1.9-.6c-.1-.4-.5-1.3-2.5-1.5-.5-.1-1.7-.1-2.4.9"/>
                    <path stroke="#050505" stroke-linecap="round" stroke-linejoin="round" stroke-width=".4" d="M39.67 58s4.5.2 5 .2 1-.1.9-.6c-.1-.4-.5-1.3-2.5-1.5-.5-.1-1.7-.1-2.4.9"/>
                  </g>
                </g>
              </g>
            </g>
          </g>
          <g class="&lt;Group&gt;">
            <g class="&lt;Group&gt;">
              <g class="&lt;Group&gt;">
                <path fill="#B76B29" stroke="#050505" stroke-linecap="round" stroke-linejoin="round" stroke-width=".4" d="m35.47 50.3-1.6 6.2-7.9-.9.2-6.2c.1-1.1.3-4.1 5.3-3.4 4.3.6 4.1 3.2 4 4.3Z" class="&lt;Path&gt;"/>
              </g>
              <path fill="#0B0C0E" d="M26.57 48.5c-.5 1.9-.4 7.1-.4 7.1l1.9.2.8-9.9c-.3.2-1.7.1-2.3 2.6Z" class="&lt;Path&gt;" opacity=".3"/>
            </g>
            <g class="&lt;Group&gt;">
              <g class="&lt;Group&gt;">
                <path fill="#BC7C54" stroke="#050505" stroke-linecap="round" stroke-linejoin="round" stroke-width=".4" d="M26.47 55.6s2.3 1.4.4 1.8l6.5.3v-1.1c-.1-.1-.7-.1-3.7-.4-3.3-.3-3.3-.8-3.2-.6Z" class="&lt;Path&gt;"/>
              </g>
              <g class="&lt;Group&gt;">
                <g class="&lt;Group&gt;">
                  <g class="&lt;Path&gt;">
                    <path fill="#BC7C54" d="M30.17 57.6s-4.5-.2-5-.3c-.5 0-1-.2-.8-.7.1-.3.5-1.2 2.5-1.3.5 0 1.8.2 2.4 1.2"/>
                    <path stroke="#050505" stroke-linecap="round" stroke-linejoin="round" stroke-width=".4" d="M30.17 57.6s-4.5-.2-5-.3c-.5 0-1-.2-.8-.7.1-.3.5-1.2 2.5-1.3.5 0 1.8.2 2.4 1.2"/>
                  </g>
                </g>
              </g>
            </g>
          </g>
        </g>
        <g class="brazo der">
          <g class="&lt;Group&gt;">
            <g class="&lt;Group&gt;">
              <g class="&lt;Group&gt;">
                <path fill="#BC7C54" stroke="#050505" stroke-linecap="round" stroke-width=".4" d="M53.27 41.1c.8-.3 2.4-1.1 3.7-.7 1.3.3 2.2 1.5 2.2 3 0 1.7-1.3 4.5-2.2 4.2-.4-.1-.9 0-1.4 0-.6.1-1.5.3-1.7.3-.9.2-2.7-.1-2.7-2.2-.1-2.6 2.1-4.6 2.1-4.6Z" class="&lt;Path&gt;"/>
              </g>
            </g>
            <g class="&lt;Group&gt;">
              <g class="&lt;Path&gt;">
                <path fill="#BC7C54" d="m54.17 41.3.9-1.1c.4-.4 1-.5 1.3-.2.3.4.3.9.2 1.1-.2.5-.4.8-.4.8"/>
                <path stroke="#050505" stroke-linecap="round" stroke-width=".4" d="m54.17 41.3.9-1.1c.4-.4 1-.5 1.3-.2.3.4.3.9.2 1.1-.2.5-.4.8-.4.8"/>
              </g>
            </g>
            <path fill="#050505" d="M56.17 42.2s.5-.1 1.1.5c.5.5.5 2.3.5 2.8-.1.5-.5 1.8-.8 1.7-.2-.1-1.5.2-1.8.1-.3 0 .2-2.7.2-3.7s.8-1.4.8-1.4Zm-1.4-2s-1.4 2.7-.9 5c.5 2.3 1 2.7 1 2.7s-1.9 1.1-2.9-.3c-1-1.4-1.2-4.6.1-5.5 1.2-.9 2.7-1.9 2.7-1.9Z" class="&lt;Path&gt;" opacity=".2" style="mix-blend-mode:multiply"/>
          </g>
          <g class="&lt;Group&gt;">
            <path fill="#F3F4F5" stroke="#050505" stroke-linecap="round" stroke-linejoin="round" stroke-width=".4" d="M55.17 48.2c-1.7.2-.1 0-2 .3-3.3.5-5.7-.1-5.7-.1-2.1-.4-3.4-2.1-3.1-4v-.6c.3-1.7 1.7-3.2 4.2-2.9 0 0 1.3.4 3.6.1 1.5-.3 1.8-.3 1.8-.3l1.2 7.5Z" class="&lt;Path&gt;"/>
            <path fill="#0B0C0E" d="M55.17 48.2c-1.7.2-.1 0-2 .3-3.3.5-5.7-.1-5.7-.1-2.1-.4-3.4-2.1-3.1-4v-.6l.2-.6c.2.3.3.5.3.5s.9 2.5 4.8 2.5c2.6.1 3.1-.1 5.1-.5l.4 2.5Z" class="&lt;Path&gt;" opacity=".3"/>
          </g>
        </g>
        <g class="torso">
          <path fill="#F3F4F5" stroke="#050505" stroke-linecap="round" stroke-linejoin="round" stroke-width=".4" d="M36.67 38.9c5.1.7 6.8 1.4 8 1.8 1.6.6 3.3 2.3 3.1 3.9-.2 1.6-.1 1 .3 4.7.4 3.5.9 3.4.7 4-.8 1.8-7.8 2.1-10.1 2.1-6.2 0-9-1.4-13.4-1.6-3.3-.2-3.9-.5-4.2-1-.9-1.3 4.6-12.8 4.6-12.8s.4-.5 1.7-.9c2.1-.7 7.2-.5 9.3-.2Z" class="&lt;Path&gt;"/>
          <g class="&lt;Group&gt;">
            <path stroke="#050505" stroke-linecap="round" stroke-linejoin="round" stroke-width=".4" d="M31.67 49c-.3 2.2-1.9 3.2-3.7 3.1-1.8 0-3.1-1.2-2.8-3.4l.4-2.5 6.5.3-.4 2.5Z" class="&lt;Path&gt;"/>
            <g class="&lt;Path&gt;">
              <path fill="#E52B2D" d="m31.97 47.7-6.6-.2Z"/>
              <path stroke="#050505" stroke-width=".4" d="m31.97 47.7-6.6-.2"/>
            </g>
          </g>
          <g class="&lt;Group&gt;">
            <path fill="#09090A" d="M37.77 50.3c0 .4.2.7.6.7.3 0 .7-.3.7-.7.1-.3-.2-.6-.5-.6-.4-.1-.7.2-.8.6Z" class="&lt;Path&gt;"/>
          </g>
          <g class="&lt;Group&gt;">
            <path fill="#09090A" d="M37.87 53.2c0 .4.2.7.6.7.4 0 .7-.2.8-.6 0-.4-.2-.7-.6-.7-.4 0-.7.3-.8.6Z" class="&lt;Path&gt;"/>
          </g>
          <g class="&lt;Path&gt;">
            <path fill="#FEFEFE" d="M39.67 47.4s-.2 1.7.2 5.2.2 3 .2 3"/>
            <path stroke="#050505" stroke-linecap="round" stroke-linejoin="round" stroke-width=".4" d="M39.67 47.4s-.2 1.7.2 5.2.2 3 .2 3"/>
          </g>
          <path fill="#F29137" stroke="#050505" stroke-linecap="round" stroke-linejoin="round" stroke-width=".4" d="m39.37 48.2.6-.1 1.5-5s.7-3.3-4.5-3.8c-4.7-.5-2.5 3.6-.6 5.4 1.2 1.2 3 3.5 3 3.5Z" class="&lt;Path&gt;"/>
          <g class="Clip path group">
            <mask id="a" width="7" height="10" x="42" y="44" class="a" maskUnits="userSpaceOnUse" style="mask-type:luminance">
              <g class="cp191">
                <path fill="#fff" d="m47.6 44.28 1.23 8.79-5.14.4-1.19-7.79 5.1-1.4Z" class="Vector"/>
              </g>
            </mask>
            <g class="&lt;Clip Group&gt;" mask="url(#a)">
              <g class="&lt;Group&gt;">
                <path stroke="#050505" stroke-linecap="round" stroke-linejoin="round" stroke-width=".4" d="M52.67 48.3c.1 2.2-1.3 3.6-3.1 3.9-1.8.3-3.3-.6-3.5-2.8l-.1-2.4 6.5-1.1.2 2.4Z" class="&lt;Path&gt;"/>
                <g class="&lt;Path&gt;">
                  <path fill="#E52B2D" d="m52.67 47.1-6.7 1.1Z"/>
                  <path stroke="#050505" stroke-width=".4" d="m52.67 47.1-6.7 1.1"/>
                </g>
              </g>
            </g>
          </g>
          <path fill="#DCDEDD" d="M24.97 46.9s-.6 2-.8 3.5c-.3 1.5-.5 3.2-.5 3.2s-2.3.3-2.3-1.3c-.1-1.5 1.3-6.5 1.3-6.5s1.5 1.2 2.3 1.1Zm14.4 3.5c0 .8-.3-.1-.6-.5-.2-.4-.2-.9-.2-.9s-3.1-1.4-4.2-1.8l.5-.6s-2.2-.6-2.6-.7c-.4-.2 1.1-5.7 1.5-6.8 0 0 .2 2.7 1.3 4.2 1.1 1.4 3.5 3.5 3.9 4.2.4.8.5 1.7.4 2.9Z" class="&lt;Path&gt;" style="mix-blend-mode:multiply"/>
          <g class="&lt;Path&gt;">
            <path fill="#F3F4F5" d="M33.57 39.5c-.1 1.9-.2 6.1-.2 6.1l3.9.6-.8 1 3.1 1.6.1-.7s-1.7-2.7-2.4-3.3c-.7-.6-3-3.2-2.8-5.6"/>
            <path stroke="#050505" stroke-linecap="round" stroke-linejoin="round" stroke-width=".4" d="M33.57 39.5c-.1 1.9-.2 6.1-.2 6.1l3.9.6-.8 1 3.1 1.6.1-.7s-1.7-2.7-2.4-3.3c-.7-.6-3-3.2-2.8-5.6"/>
          </g>
          <path fill="#DCDEDD" d="M41.77 40.7s2.6 3.1 3.1 5.9l-1.9.1s.8.4.8.6c-.1.2-2.5 1.4-2.9 1.6-.4.3-.2 1.5-.5 1.5-.4-.1.1-1.5-.2-1.5-.4 0 .5-1.5.5-1.5s1.9-2.7 1.4-4c-.5-1.4-.3-2.7-.3-2.7Z" class="&lt;Path&gt;" style="mix-blend-mode:multiply"/>
          <g class="&lt;Path&gt;">
            <path fill="#F3F4F5" d="M41.57 40.1c1.4 1.9 2.5 5.9 2.5 5.9l-2.2.1.5.6-2.7 2.2v-1s1.2-2.2 1.5-2.9c.2-.8.3-3.3-.4-4.8"/>
            <path stroke="#050505" stroke-linecap="round" stroke-linejoin="round" stroke-width=".4" d="M41.57 40.1c1.4 1.9 2.5 5.9 2.5 5.9l-2.2.1.5.6-2.7 2.2v-1s1.2-2.2 1.5-2.9c.2-.8.3-3.3-.4-4.8"/>
          </g>
          <path fill="#DCDEDD" d="M39.77 48.3s.3 2 .5 3.2c.3 1.3.4 4.3.4 4.3l-.5-.4s-.2-.6-.4-2.8c-.1-2.1 0-4.3 0-4.3Zm8.5 4s-2.5-.1-2.8-2.7c-.3-2.7.2-2.6.2-2.6s.1.4.3 1.6c.1 1.2 0 2.3 2.3 3.7Zm-16-5.7-.3 1.1h-5.2s3.8.4 4.2.5c.3.1.1 1.7-.3 2.6 0 0-1.4 1.7-2.9 1.5-1.5-.1-2.9-1.4-2.9-1.4s.6 1.7 2.8 2c2.3.4 4.3-1.1 4.8-3.4 0 0-.3.5-.6.8-.3.3.8-3.4.4-3.7Z" class="&lt;Path&gt;" style="mix-blend-mode:multiply"/>
        </g>
        <g class="brazo izq">
          <g class="&lt;Group&gt;">
            <g class="&lt;Group&gt;">
              <g class="&lt;Group&gt;">
                <path fill="#BC7C54" stroke="#050505" stroke-linecap="round" stroke-linejoin="round" stroke-width=".4" d="M21.07 48.5c-.4.6-1.3 2-.9 3.4.3 1.3 1.4 2.2 2.9 2.4 1.7.3 3.3-.1 3.9-.8.5-.8.1-1.4.1-1.9 0-.6.2-1.4.3-1.6.1-.8-1.1-2.8-3.1-3.1-2.6-.5-3.2 1.6-3.2 1.6Z" class="&lt;Path&gt;"/>
              </g>
            </g>
            <g class="&lt;Group&gt;">
              <g class="&lt;Path&gt;">
                <path fill="#BC7C54" d="m25.97 49.8 2.2.6c.5.2.8.7.6 1.1-.2.5-.7.6-.9.6-.6 0-1.2-.1-1.2-.1"/>
                <path stroke="#050505" stroke-linecap="round" stroke-linejoin="round" stroke-width=".4" d="m25.97 49.8 2.2.6c.5.2.8.7.6 1.1-.2.5-.7.6-.9.6-.6 0-1.2-.1-1.2-.1"/>
              </g>
            </g>
            <path fill="#050505" d="M20.07 49.7s2.3-.9 4.6-.1c2.3.9 2.7 1.4 2.7 1.4s1-1.7-.4-2.9-4-1.6-4.9-.6c-.9 1-2 2.2-2 2.2Z" class="&lt;Path&gt;" opacity=".2" style="mix-blend-mode:multiply"/>
          </g>
          <path fill="#F3F4F5" stroke="#050505" stroke-linecap="round" stroke-linejoin="round" stroke-width=".4" d="M20.57 48.9c.3-1.7 0-.1.4-2 .6-3.3 2-5.3 2-5.3 1.1-1.8 3.2-2.5 4.8-1.6l.6.3c1.5.8 2.4 2.6 1.2 4.9 0 0-.8 1-1.3 3.3-.3 1.6-.4 1.9-.4 1.9l-7.3-1.5Z" class="&lt;Path&gt;"/>
          <path fill="#0B0C0E" d="M20.57 48.9c.3-1.7 0-.1.4-2 .6-3.3 2-5.3 2-5.3 1.1-1.8 3.2-2.5 4.8-1.6l.6.3c.133.067.3.167.5.3-.4.1-.6.2-.6.2s-2.6-.1-4 3.6c-1 2.4-1 3-1.3 5l-2.4-.5Z" class="&lt;Path&gt;" opacity=".3"/>
        </g>
        <g class="cabeza">
          <path fill="#2B2011" stroke="#050505" stroke-linecap="round" stroke-linejoin="round" stroke-width=".4" d="M44.77 25.1s4.2 4 9 6.9c5.3 3.2 6.2 5.2 4.9 5.6-2.3.6-5.7.1-5.7.1s1.4 3 2.1 3.8c.7.9-.8 1.1-2.6.6-1.7-.4-2.6-.7-2.6-.7s1 3.3.3 3.7c-.6.5-3.6 1.1-7.2.3-3.7-.8 1.8-20.3 1.8-20.3Zm-28.6-2.3s-7.6 3.2-8.8 8.8c-.3 1.5 3.1.7 3.1.7s-1.5 5-.4 9.1c.4 1.1 3.1 0 3.1 0s.8 2.6 3.5 4.3c2.6 1.8 7-1.1 7-1.1l2.9-24.4-10.4 2.6Z" class="&lt;Path&gt;"/>
          <g class="&lt;Group&gt;">
            <path fill="#A27448" d="M15.87 28.8c-.5 10 2.8 18.3 17.1 19.9 9.2 1 16.5-7.2 16.9-16.8.4-9.7-7.8-18-17.1-18.4-9.2-.4-16.5 5.6-16.9 15.3Z" class="&lt;Path&gt;"/>
            <path fill="#C68C56" d="M18.07 30.6c-.4 9.2 2 16.7 15.5 17.4 8.7.3 16.2-6.9 16.6-16.1.4-9.3-5.8-11.3-14.5-11.7-8.8-.3-17.2 1.1-17.6 10.4Z" class="&lt;Path&gt;"/>
            <path fill="#BC7C54" stroke="#050505" stroke-width=".4" d="M15.37 27.3c-.4 9.8.3 20 17.5 21.2 23.7 1.5 16.8-7.5 17.3-17.2.4-9.7-8.6-17.4-17.8-17.8-9.3-.4-16.5 4.1-17 13.8Z" class="&lt;Path&gt;"/>
            <path fill="#DCDEDD" d="M35.17 24c.6 1.1-4.5 2.9-4.5 2.9s-3.2 5.1-3.1 8.4c0 0-2.9.5-2.9 3.7.1 2.8-.1 7.7 6.1 9.3-15.2-1.9-15.8-11.6-15.4-21 .066-1.667.333-3.167.8-4.5 12.8.2 18.5.2 19 1.2Z" class="&lt;Path&gt;" style="mix-blend-mode:multiply"/>
          </g>
          <g class="&lt;Path&gt;">
            <path fill="#2B2011" d="M14.57 26.7c6.1-.8 14.4 1.2 14.4 1.2s-2.9 4.6-3.7 7.8c0 0-1.1-.5-1.7-1.4-.6-.8-1.3 3.1-1.4 5.7-.1 2.5-1.7.9-1.7.9s-1.8.6-2 2.7c0 0-.2 1-3-1.5-2.8-2.6-2.5-4.7-2.5-4.7"/>
            <path stroke="#050505" stroke-linecap="round" stroke-linejoin="round" stroke-width=".4" d="M14.57 26.7c6.1-.8 14.4 1.2 14.4 1.2s-2.9 4.6-3.7 7.8c0 0-1.1-.5-1.7-1.4-.6-.8-1.3 3.1-1.4 5.7-.1 2.5-1.7.9-1.7.9s-1.8.6-2 2.7c0 0-.2 1-3-1.5-2.8-2.6-2.5-4.7-2.5-4.7"/>
          </g>
          <path fill="#DCDEDD" d="M25.77 28.6s-1.8 2.2-2.1 3.1c-.4 1-1.6-2.5-2.1-1.7-.5.7-2.9 5.5-3.7 7.7-.9 2.1-2.8-.3-3.3-2-.5-1.8.8-4.1 0-3.7-.8.4-2.6 1.5-2.6 1.5s2-4.2 4.5-6.2c2.6-2.1 9.3 1.3 9.3 1.3Z" class="&lt;Path&gt;" style="mix-blend-mode:multiply"/>
          <g class="&lt;Group&gt;">
            <path fill="#FCC917" stroke="#050505" stroke-linecap="round" stroke-linejoin="round" stroke-width=".4" d="M50.67 29.3s.8-6-.1-6.7c0 0-7.7.1-12.7 0-9.2-.3-19.3-.8-21.7-1.4-.6-.2-.8.8-.9 3.4 0 2.6.3 3.8.3 3.8s13.2 1.2 23.6 1.3c5.9.1 11.5-.4 11.5-.4Z" class="&lt;Path&gt;"/>
            <g class="&lt;Group&gt;">
              <path fill="#A51E22" d="M49.07 23.4c0-.2.2-.2.3 0l1.2 1.7c.1.2.1.4.1.6l-.1 1.1c0 .1-.1.4-.2.5l-1.1 1.4c-.1.1-.3.1-.4-.1l-1.4-2.2c-.1-.2-.1-.4 0-.5l1.6-2.5Z" class="&lt;Path&gt;"/>
            </g>
            <g class="&lt;Group&gt;">
              <path fill="#A51E22" d="M37.47 23.4c.1-.1.3-.1.4 0l1.8 2.6c.1.1.1.3 0 .5l-1.8 2.4c-.1.1-.3.1-.4-.1l-1.8-2.4c-.1-.2-.1-.4 0-.5l1.8-2.5Z" class="&lt;Path&gt;"/>
            </g>
            <path fill="#0B0C0E" d="M15.57 28.4s-.3-1.2-.3-3.8c.1-2.6.3-3.6.9-3.4.9.2 2.9.4 5.6.6-.1 4 1.2 5.7 5.2 6.1 4 .5 18.2.5 21.4.3 1.4 0 2.2-.6 2.6-1.3-.1 1.3-.3 2.4-.3 2.4s-5.6.5-11.5.4c-10.4-.1-23.6-1.3-23.6-1.3Z" class="&lt;Path&gt;" opacity=".3"/>
            <path stroke="#2D1114" stroke-dasharray=".4 .4" stroke-linecap="round" stroke-linejoin="bevel" stroke-width=".4" d="m48.37 28.7-3.5-5.3-2.7 5.5-3.6-5.9m-2.1 5.9-3.7-5.7-2.6 5.5-3.4-5.8-3.6 5.2-3.2-5.7-3.8 5" class="&lt;Path&gt;"/>
            <g class="&lt;Group&gt;">
              <path fill="#FFE4AE" d="M43.87 23.1c.1 0 .2.1.2.2l-1.7 3.6c-.1.2-.2.2-.3.1l-2.4-3.7c-.1-.1-.1-.3.1-.3l4.1.1Z" class="&lt;Path&gt;"/>
            </g>
            <g class="&lt;Group&gt;">
              <path fill="#FFE4AE" d="M28.97 28.6c.1 0 .2-.1.1-.2l-2.1-3.3c-.1-.2-.2-.2-.3 0l-1.9 3c-.1.1 0 .2.1.2l4.1.3Z" class="&lt;Path&gt;"/>
            </g>
          </g>
          <g class="&lt;Path&gt;">
            <path fill="#2B2011" d="M13.57 30c1.4-1.8 7.2-7.4 7.2-7.4s-1.6 4-.9 3.6c.7-.3 12.9-4.4 11.4-2.8-1.5 1.5-1.6 4.3-1.6 4.3 2.7-2.2 6.5-3.7 8.8-4.5 1.1-.4 4.5 1.9 4.5 1.9 1.4-.1.2-2.4 1.4-2.5 8.6-.1 13.5 2.4 13 1.6-1.4-8.1-11-11.8-11-11.8l2.2-5.1c-7.3-.5-17.5 2.9-17.5 2.9s1.7-5.2.4-5.2c-.4 0-4.1.8-8 5.2-1.8-5.2-5.9.5-9.4 7.4-6.3 1.6-9.6 5.5-9 7.3.4 1.1 6.3 2.7 6.3 2.7"/>
            <path stroke="#050505" stroke-linecap="round" stroke-linejoin="round" stroke-width=".4" d="M13.57 30c1.4-1.8 7.2-7.4 7.2-7.4s-1.6 4-.9 3.6c.7-.3 12.9-4.4 11.4-2.8-1.5 1.5-1.6 4.3-1.6 4.3 2.7-2.2 6.5-3.7 8.8-4.5 1.1-.4 4.5 1.9 4.5 1.9 1.4-.1.2-2.4 1.4-2.5 8.6-.1 13.5 2.4 13 1.6-1.4-8.1-11-11.8-11-11.8l2.2-5.1c-7.3-.5-17.5 2.9-17.5 2.9s1.7-5.2.4-5.2c-.4 0-4.1.8-8 5.2-1.8-5.2-5.9.5-9.4 7.4-6.3 1.6-9.6 5.5-9 7.3.4 1.1 6.3 2.7 6.3 2.7"/>
          </g>
          <path stroke="#050505" stroke-linecap="round" stroke-linejoin="bevel" stroke-width=".4" d="M43.57 40.1c.4-1-1-.8-1-.8l-2.6.4s-1.1 0-1.2-.3" class="&lt;Path&gt;"/>
          <path fill="#DCDEDD" d="M42.57 41.2s.5-.5-.5-.4c-1 .1-3.3.7-3.3.7s2.5 0 3.8-.3Z" class="&lt;Path&gt;" style="mix-blend-mode:multiply"/>
          <path fill="#fff" d="M46.37 36.5c-1.2-.2-2.1-1-1.9-1.8.1-.9 1.3-1.4 2.5-1.2 1.2.2 2 1 1.9 1.8-.2.9-1.3 1.4-2.5 1.2Z" class="&lt;Path&gt;"/>
          <g class="Clip path group">
            <mask id="b" width="5" height="4" x="44" y="33" class="b" maskUnits="userSpaceOnUse" style="mask-type:luminance">
              <g class="cp192">
                <path fill="#fff" d="M46.34 36.52c-1.21-.18-2.06-1-1.9-1.83.16-.84 1.28-1.38 2.5-1.2 1.21.17 2.06.99 1.9 1.82-.17.84-1.28 1.38-2.5 1.21Z" class="Vector"/>
              </g>
            </mask>
            <g class="&lt;Clip Group&gt;" mask="url(#b)">
              <path fill="#09090A" d="M45.17 34.7c0 1 .6 1.7 1.4 1.8.8 0 1.4-.7 1.5-1.6 0-1-.6-1.7-1.4-1.8-.7 0-1.4.7-1.5 1.6Z" class="&lt;Path&gt;"/>
              <path fill="#fff" d="M45.67 34.3c0 .2.1.4.3.4.1 0 .2-.1.3-.4 0-.2-.1-.4-.3-.4-.1 0-.2.2-.3.4Z" class="&lt;Path&gt;"/>
            </g>
          </g>
          <path fill="#fff" d="M31.77 36.6c1.3-.1 2.3-.9 2.2-1.8-.2-.9-1.3-1.5-2.6-1.4-1.3.1-2.3.9-2.1 1.8.1.9 1.3 1.6 2.5 1.4Z" class="&lt;Path&gt;"/>
          <g class="Clip path group">
            <mask id="c" width="5" height="4" x="29" y="33" class="c" maskUnits="userSpaceOnUse" style="mask-type:luminance">
              <g class="cp193">
                <path fill="#fff" d="M31.82 36.65c1.29-.12 2.24-.94 2.11-1.84-.13-.89-1.28-1.52-2.58-1.41-1.3.12-2.24.94-2.11 1.84.12.89 1.28 1.52 2.58 1.41Z" class="Vector"/>
              </g>
            </mask>
            <g class="&lt;Clip Group&gt;" mask="url(#c)">
              <path fill="#09090A" d="M33.47 34.7c0 1-.7 1.8-1.6 1.8-.8 0-1.5-.8-1.5-1.8s.7-1.8 1.5-1.8c.9 0 1.6.8 1.6 1.8Z" class="&lt;Path&gt;"/>
              <path fill="#fff" d="M31.07 34.2c0 .2.1.4.2.4.2 0 .3-.1.3-.4 0-.2-.1-.4-.2-.4-.2 0-.3.2-.3.4Z" class="&lt;Path&gt;"/>
            </g>
          </g>
          <g class="&lt;Group&gt;">
            <path fill="#A35E3F" d="M39.67 37.8s1.6.2 2.4.1c.8 0 1.7-.3 1.7-.9 0 0-1.1.3-2.6.2-1.5-.1-2.2-.2-2.3-.8 0 0-.5 1.2.8 1.4Z" class="&lt;Path&gt;"/>
            <g class="&lt;Group&gt;">
              <path stroke="#050505" stroke-linecap="round" stroke-linejoin="bevel" stroke-width=".4" d="M43.77 36s.2.6-.2.9c-.4.2-2.8.3-4 0-.6-.1-.5-.9-.5-.9" class="&lt;Path&gt;"/>
            </g>
          </g>
          <path stroke="#050505" stroke-linecap="round" stroke-width=".6" d="M45.67 31.9s.7-.2 1.5-.1c.9.2 1.1 0 1.1 0m-15.4-.6s-1.1-.2-2 0c-1.2.2-1.7.2-1.7.2" class="&lt;Path&gt;"/>
          <path fill="#050505" d="M37.17 39.6c0 .8 1.5 1.5 3.5 1.6 2 .1 3.6-.5 3.7-1.3 0-.8-1.6-1.6-3.5-1.7-2-.1-3.7.5-3.7 1.4Z" class="&lt;Path&gt;"/>
        </g>
      </g>
    </g>
  </g>
</svg>
