<svg xmlns="http://www.w3.org/2000/svg" width="65" height="33" fill="none" viewBox="0 0 65 33">
  <g class="4-27-texto">
    <g class="texto">
      <g class="&lt;Group&gt;">
        <path fill="#6A4C9E" d="M64.7 32.4 0 26.4l.3-4.8L65 27.5l-.3 4.9Zm-8.6-11-38-3.1.3-4.9 38 3.1-.3 4.9Z" class="&lt;Path&gt;"/>
        <g class="&lt;Group&gt;">
          <g class="&lt;Group&gt;">
            <path fill="#FEFEFE" fill-rule="evenodd" d="M5.3 1.5c1 .1 2 .2 1.3 3.2C6 7.5 5 7.5 3.6 7.4H3l1.5-6 .8.1Zm-.3.7L3.9 6.8c1.3.1 1.5-1.1 1.8-2.1.2-.9.7-2.5-.7-2.5Z" class="&lt;Compound Path&gt;" clip-rule="evenodd"/>
            <path fill="#FEFEFE" d="M7.3 7.7h-.8l1.5-6 .8.1-1.5 5.9Zm1-6.3L8 1.2 8.9 0l.4.4-1 1Z" class="&lt;Compound Path&gt;"/>
            <path fill="#FEFEFE" fill-rule="evenodd" d="m11 2-.1 6-.8-.1V6.8l-1.2-.1-.5 1.1-.7-.1 2.7-5.8.6.1Zm-.8 3.3.2-2.2-1.2 3 .9.1.1-.9Z" class="&lt;Compound Path&gt;" clip-rule="evenodd"/>
            <path fill="#FEFEFE" d="m13.5 8.2-.8-.1 1.4-5.9.8.1-1.4 5.9Zm2.4-4.1-.3 2-.6 2.2h-.8l1.5-6 .7.1.4 4.6.4-2.4.5-2.1h.8l-1.5 6-.7-.1-.3-4.7v.1l-.1.3Zm5.5-1.3-.2.7-.9-.1L19 8.7l-.8-.1 1.3-5.3h-.9l.1-.7 2.7.2Zm2.4.2-.2.7-1.3-.2-.5 1.9 1.2.1-.1.7-1.3-.1-.4 2 1.3.1-.2.7-2.1-.2 1.4-5.9 2.2.2Z" class="&lt;Compound Path&gt;"/>
            <path fill="#FEFEFE" fill-rule="evenodd" d="m24.2 3 1 .1c.5 0 1.5.1 1.1 1.6-.1.6-.5 1.4-1.2 1.5l.4 3-.8-.1-.4-3-.7 2.9h-.8l1.4-6Zm1.2 1.8c.1-.6.1-1.1-.5-1.1h-.1l-.5 2c.6 0 .9-.3 1.1-.9Z" class="&lt;Compound Path&gt;" clip-rule="evenodd"/>
            <path fill="#FEFEFE" d="m27.6 5.1-.4 2-.5 2.2-.8-.1 1.4-5.9h.8l.3 4.6.4-2.4.5-2.1.8.1-1.4 5.9h-.8l-.3-4.7v.4Z" class="&lt;Compound Path&gt;"/>
            <path fill="#FEFEFE" fill-rule="evenodd" d="m32.4 3.7-.2 6-.8-.1.1-1.1-1.2-.1-.5 1.1H29l2.8-5.9.6.1ZM31.5 7l.3-2.2h-.1l-1.2 3 1 .1V7Z" class="&lt;Compound Path&gt;" clip-rule="evenodd"/>
            <path fill="#FEFEFE" d="M36.2 4.8c-.2-.1-.3-.2-.5-.2-1.1-.1-1.5 1.5-1.7 2.3-.2.7-.5 2.2.6 2.3.133 0 .3-.033.5-.1l-.2.7c-.2.133-.433.167-.7.1-1.6-.1-1.4-1.8-1.1-3.1.3-1.1.9-3.1 2.6-3 .2.1.4.1.6.3l-.1.7Zm-.1 5.2h-.8l1.5-6 .8.1-1.5 5.9Z" class="&lt;Compound Path&gt;"/>
            <path fill="#FEFEFE" fill-rule="evenodd" d="M40.6 7.3c-.3 1.1-.8 3.1-2.3 3-1.6-.2-1.1-2.1-.8-3.2.2-1.1.7-3.1 2.3-2.9 1.5.1 1.1 2.1.8 3.1Zm-2.3-.1c-.3 1.2-.5 2.3.2 2.3.6.1.9-1 1.3-2.2.3-1.3.4-2.3-.2-2.4-.6 0-1 1-1.3 2.3Z" class="&lt;Compound Path&gt;" clip-rule="evenodd"/>
            <path fill="#FEFEFE" d="m42.2 6.2-.4 2-.5 2.2h-.8l1.4-6 .8.1.3 4.6.4-2.4.5-2.1h.8l-1.4 6-.7-.1-.3-4.7h-.1v.4Z" class="&lt;Compound Path&gt;"/>
            <path fill="#FEFEFE" fill-rule="evenodd" d="m47 4.8-.1 6.1-.8-.1V9.6l-1.2-.1-.5 1.2-.8-.1 2.8-5.8h.6Zm-.8 3.3.2-2.2-1.2 3 .9.1.1-.9Z" class="&lt;Compound Path&gt;" clip-rule="evenodd"/>
            <path fill="#FEFEFE" d="m49.4 5-1.2 5.3 1.3.1-.2.7-2.1-.2L48.6 5h.8Z" class="&lt;Compound Path&gt;"/>
          </g>
          <g class="&lt;Group&gt;">
            <g class="&lt;Group&gt;">
              <path fill="#FEFEFE" d="m28.4 13-1.7 7.7-2.1-.2-1.8-3.6-.7 3.4-2.4-.2 1.7-7.7 2.2.2 1.7 3.5.8-3.3 2.3.2Zm-.5 7.8 1.7-7.7 2.3.1-1.7 7.7-2.3-.1ZM40 13.9l-1.7 7.7-2.1-.2-1.7-3.5-.8 3.3-2.3-.2 1.7-7.7 2.1.2 1.8 3.6.7-3.4 2.3.2Zm-.2-3.2c-.2.9-.6 1.6-1 1.9-.4.3-.8.4-1 .4h-.1c-.267 0-.533-.1-.8-.3-.267-.2-.433-.3-.5-.3-.133-.067-.233.067-.3.4l-2-.1c.2-1 .6-1.6 1-1.9.4-.3.8-.5 1-.5h.2c.267 0 .533.133.8.4.267.2.433.3.5.3.133 0 .233-.167.3-.5l1.9.2Z" class="&lt;Compound Path&gt;"/>
              <path fill="#FEFEFE" fill-rule="evenodd" d="m46.1 14.4 1.1 7.9-2.5-.2-.1-.8-2.5-.2-.5.7-2.5-.2 4.6-7.4 2.4.2ZM43.3 19l1.1.1-.2-1.7-.9 1.6Z" class="&lt;Compound Path&gt;" clip-rule="evenodd"/>
              <path fill="#FEFEFE" d="M49.8 19.6c.467.667 1.033 1 1.7 1 .4.067.633-.033.7-.3.067-.067-.033-.167-.3-.3-.2-.133-.467-.3-.8-.5a6.987 6.987 0 0 1-1-.5 3.382 3.382 0 0 1-.8-.9c-.2-.333-.233-.733-.1-1.2.067-.467.367-.933.9-1.4.5-.5 1.4-.8 2.5-.7.8 0 1.6.3 2 .7.4.4.7.7.8 1v.2l-1.8 1c-.2-.333-.4-.533-.6-.6-.2-.133-.467-.2-.8-.2-.4-.1-.6.1-.7.2 0 .2.4.5.9.7l.8.4c.267.2.533.367.8.5.267.2.433.467.5.8.133.333.167.7.1 1.1-.1.5-.5 1-1 1.5-.6.4-1.6.7-2.7.6-.867-.067-1.533-.3-2-.7-.533-.467-.833-.933-.9-1.4l1.8-1Z" class="&lt;Compound Path&gt;"/>
            </g>
          </g>
          <g class="&lt;Group&gt;">
            <g class="&lt;Group&gt;">
              <path fill="#FEFEFE" d="m4.7 22.9-.1.8 3 .2-.4 2-3.1-.3-.1.7 3.3.2-.5 2.2-5.6-.4 1.7-7.7 5.6.4-.5 2.2-3.3-.3Zm11.8-1.2-1.7 7.7-2.1-.2-1.8-3.6-.7 3.4-2.3-.2 1.7-7.7 2.1.2 1.8 3.5.7-3.3 2.3.2Zm6 .4-1.2 5.6 3.3.2-.5 2.2-5.6-.5 1.7-7.7 2.3.2Z" class="&lt;Compound Path&gt;"/>
              <path fill="#FEFEFE" fill-rule="evenodd" d="m31.6 22.9 1.2 7.9-2.6-.2v-.8l-2.6-.2-.4.7-2.5-.2 4.5-7.4 2.4.2Zm-2.7 4.6 1 .1-.1-1.7-.9 1.6Z" class="&lt;Compound Path&gt;" clip-rule="evenodd"/>
              <path fill="#FEFEFE" d="M35.4 28.1c.4.6.933.933 1.6 1 .467.067.733-.033.8-.3 0-.133-.1-.233-.3-.3-.267-.133-.567-.3-.9-.5a6.987 6.987 0 0 1-1-.5c-.333-.267-.567-.567-.7-.9-.2-.333-.267-.733-.2-1.2.133-.467.433-.933.9-1.4.5-.5 1.5-.8 2.6-.7.8 0 1.5.3 1.9.7.4.3.7.7.8 1l.1.1-1.8 1.1c-.267-.333-.5-.533-.7-.6-.2-.133-.467-.2-.8-.2-.3-.1-.6.1-.6.2 0 .2.3.5.8.7.267.067.567.2.9.4.267.133.533.3.8.5.2.2.367.467.5.8s.133.7 0 1.1c-.1.4-.4 1-1 1.4-.5.5-1.5.8-2.6.7-.933-.067-1.633-.3-2.1-.7-.467-.467-.767-.933-.9-1.4l1.9-1Zm10.7-1.9-2.2-.1.5-2.2 6.7.5-.5 2.2-2.2-.2-1.2 5.5-2.3-.1 1.2-5.6Zm4.1 6 1.8-7.7 2.3.2-1.7 7.7-2.4-.2Zm12.4-2.3a6.045 6.045 0 0 1-2 2.3c-.933.6-1.9.833-2.9.7-1.133-.067-2-.533-2.6-1.4-.6-.8-.8-1.767-.6-2.9.267-1.133.867-2.033 1.8-2.7 1-.733 2.067-1.033 3.2-.9 1 .067 1.8.433 2.4 1.1.667.733.967 1.6.9 2.6l-2.5-.2c-.067-.4-.2-.733-.4-1a2.2 2.2 0 0 0-.9-.4c-.467 0-.9.167-1.3.5-.4.267-.667.667-.8 1.2-.067.533 0 .967.2 1.3.267.4.633.633 1.1.7.333 0 .667-.1 1-.3.333-.2.633-.467.9-.8l2.5.2Z" class="&lt;Compound Path&gt;"/>
            </g>
          </g>
        </g>
      </g>
      <g class="&lt;Group&gt;">
        <path fill="#FEFEFE" fill-rule="evenodd" d="M3.8 11.1c.8.1 1.8.2 1.1 2.9-.5 2.4-1.4 2.5-2.7 2.4h-.4L3 11.1h.8Zm-.2.5-1 4.1c1.2.2 1.4-.9 1.6-1.8.2-.8.6-2.2-.6-2.3Z" class="&lt;Compound Path&gt;" clip-rule="evenodd"/>
        <path fill="#FEFEFE" d="m8 11.4-.1.6-1.2-.1-.4 1.7 1.1.1-.2.6-1-.1-.5 1.8 1.2.1-.1.6-1.9-.1 1.2-5.3 1.9.1Zm2.4.2-1.1 4.7h1.2l-.1.7-1.9-.2 1.2-5.3.7.1Z" class="&lt;Compound Path&gt;"/>
        <path fill="#FEFEFE" fill-rule="evenodd" d="m13.2 11.8-.1 5.3h-.7V16h-1l-.5 1-.7-.1 2.4-5.2.6.1Zm-.7 3 .2-2-1.1 2.7.9.1v-.8Z" class="&lt;Compound Path&gt;" clip-rule="evenodd"/>
        <path fill="#FEFEFE" d="M16.1 12.8c-.2-.1-.3-.3-.6-.3-.4 0-.7.3-.7.7-.1.2-.1.4 0 .6l.4.6c.4.5.6.9.4 1.6-.1.7-.8 1.3-1.6 1.3-.2 0-.5-.1-.7-.3l.2-.7c.2.1.3.3.6.3.5 0 .7-.3.8-.7.3-1.1-1.2-1.4-.9-2.8.2-.7.7-1.3 1.5-1.2.333 0 .6.067.8.2l-.2.7Z" class="&lt;Compound Path&gt;"/>
      </g>
    </g>
  </g>
</svg>
