<svg xmlns="http://www.w3.org/2000/svg" width="63" height="79" fill="none" viewBox="0 0 63 79">
  <g class="4-29-ilus">
    <g class="ilustracion">
      <path fill="#1C1C1A" d="M44.527 77.224c-.1 1.4-8.2 1.8-18.1.9-9.9-.8-17.8-2.7-17.7-4.1.2-1.5 8.3-1.9 18.2-1 9.8.9 17.7 2.7 17.6 4.2Z" class="sombra" opacity=".3"/>
      <g class="cabeza atras">
        <path fill="#050505" d="M46.328 44.123c-.1 1.7-1.6 2.9-3.2 2.8-1.7-.1-2.9-1.6-2.8-3.2.1-1.7 1.6-2.9 3.2-2.8 1.7.1 2.9 1.6 2.8 3.2Zm-26.801-1.5c-.1 1.5-1.4 2.7-3 2.6-1.5-.2-2.7-1.5-2.6-3.1.1-1.5 1.5-2.7 3-2.5 1.6.1 2.7 1.4 2.6 3Z" class="&lt;Path&gt;"/>
        <path fill="#050505" d="M52.727 41.524c-.1 2.3-2.1 4-4.3 3.8-2.3-.2-3.9-2.1-3.8-4.4.2-2.2 2.2-3.9 4.4-3.7 2.2.2 3.9 2.1 3.7 4.3Zm-37-4.4c.7 2.3-.5 4.7-2.6 5.3-2.1.6-4.3-.8-5-3.1-.7-2.3.5-4.7 2.5-5.3 2.1-.7 4.4.7 5.1 3.1Z" class="&lt;Path&gt;"/>
        <path fill="#050505" d="M53.328 30.424c-.8 10.3-11.3 17.9-23.5 17-12.1-.9-21.4-10-20.6-20.3.8-10.4 11.3-18 23.5-17 12.1.9 21.4 10 20.6 20.3Z" class="&lt;Path&gt;"/>
        <path stroke="#3F1D13" stroke-width=".6" d="M15.227 40.924c-.8.9-.7 2.2.1 2.9.9.8 2.2.7 2.9-.1m-7.5-8.5c-1.6.8-2.2 2.8-1.4 4.4.8 1.6 2.7 2.2 4.3 1.4m34.3-3c-1.6.7-2.3 2.6-1.5 4.1.8 1.6 2.7 2.1 4.3 1.4m-8.3 2.3c1.2.4 2.4-.3 2.7-1.5" class="&lt;Path&gt;"/>
      </g>
      <g class="pierna der">
        <g class="&lt;Group&gt;">
          <path fill="#803531" stroke="#050505" stroke-linecap="round" stroke-linejoin="round" stroke-width=".4" d="M34.328 73.124c0-.1 1.9-2.1 1.7-4-.3-1.9-2-4.3-2.1-4.4-1.2-1.5-2.7-1.3-3.8-.5-.9.8-1.4 1.8-.1 3.4 1.3 1.9 1.8 1.4.2 3.7-1.3 1.7 2.5 4.6 4.1 1.8Z" class="&lt;Path&gt;"/>
          <path fill="#050505" d="M31.227 71.924s2.1-.2 1.5-2.6c-.2-1.2 3.2-.5 2.8-1.7-.5-1.3-1.3-2.5-1.6-2.9-1.2-1.5-2.7-1.3-3.8-.5-.9.8-1.4 1.8-.1 3.4 1.3 1.9 1.8 1.4.2 3.7-.4.6-.1 2.4 1 .6Z" class="&lt;Path&gt;" opacity=".4"/>
        </g>
        <g class="&lt;Group&gt;">
          <path fill="#EE4763" stroke="#050505" stroke-linecap="round" stroke-linejoin="round" stroke-width=".4" d="M28.727 72.624c-.1.1-.1.2 0 .2l7.2 3.7c.1 0 .2 0 .2-.1l.2-.3c.1-.1 0-.2 0-.2l-7.3-3.7s-.1 0-.2.1l-.1.3Zm5.201-1.7s.5-.8 1.1-.5c.3.2 1 .6 1.3.7.4.2-.2.6-.5.8-.2.2-.5.7-.5 1.1l.2 1.4h-1.1l-1-2.3.5-1.2Z" class="&lt;Path&gt;"/>
          <path fill="#F69226" stroke="#050505" stroke-linecap="round" stroke-linejoin="round" stroke-width=".4" d="M29.027 72.224s.7-1.3.9-1.7c.2-.3.5-.4.9-.2s.6.7 1.6.7c.9.1 1.1-.1 1.5-.1.4.1.4.3.3.7l-.2.8.8 2-.4.5-5.4-2.7Z" class="&lt;Path&gt;"/>
          <path fill="#FEFEFE" stroke="#050505" stroke-linecap="round" stroke-linejoin="round" stroke-width=".4" d="M36.328 75.924c.1-.3-.5-1.3-.8-1.5-.8-.4-1.8.2-1.8.2l2.6 1.3Z" class="&lt;Path&gt;"/>
          <path stroke="#050505" stroke-linecap="round" stroke-linejoin="round" stroke-width=".4" d="M33.627 72.424c.5-.3 1.6.1 1.9.4m-1.699.3c.6-.3 1.5.1 1.8.3m-1.501.3c.6-.2 1.3.1 1.6.3" class="&lt;Path&gt;"/>
          <path fill="#EE4763" stroke="#050505" stroke-linecap="round" stroke-linejoin="round" stroke-width=".4" d="M31.927 71.824c.6.3.9.5 1.1 1l.7 1.8-.9-.5-.4-1.1c-.066-.2-.3-.4-.7-.6-.3-.1-2.2-1.1-2.2-1.1l.3-.6s1.9 1 2.1 1.1Z" class="&lt;Path&gt;"/>
        </g>
      </g>
      <g class="pierna izq">
        <g class="&lt;Group&gt;">
          <path fill="#803531" stroke="#050505" stroke-linecap="round" stroke-linejoin="round" stroke-width=".4" d="M19.027 72.824s.9-5.5 1.1-7.1c.1-1.9 1.4-2.6 2.8-2.5 1.2.1 2.2.9 2 3-.2 2-1 7-1 7-.2 3.1-5.5 2.7-4.9-.4Z" class="&lt;Path&gt;"/>
          <path fill="#050505" d="M22.627 73.024c-.3 1.5-3 2.2-1.5 2.3 1.3 0 2.7-.6 2.8-2.1 0 0 .8-5 1-7 .2-2.1-.8-2.9-2-3-1.4-.1-2.7.6-2.8 2.5-.2 1.6 3.1 1.2 3 2.6 0 .6-.2 3.5-.5 4.7Z" class="&lt;Path&gt;" opacity=".4"/>
        </g>
        <g class="&lt;Group&gt;">
          <g class="&lt;Path&gt;">
            <path fill="#803531" d="M19.027 72.824c-.3.6-.8 1.7-2.6 2.3l7.4.5.1-2.4"/>
            <path stroke="#050505" stroke-linecap="round" stroke-linejoin="round" stroke-width=".4" d="M19.027 72.824c-.3.6-.8 1.7-2.6 2.3l7.4.5.1-2.4"/>
          </g>
          <path fill="#050505" d="M22.627 73.124c-.2 1-.2 1.7-1.9 2.3l3.1.2.1-2.4" class="&lt;Path&gt;" opacity=".4"/>
        </g>
        <g class="&lt;Group&gt;">
          <path fill="#EE4963" stroke="#050505" stroke-linecap="round" stroke-linejoin="round" stroke-width=".4" d="M24.427 75.624c0 .1-.1.1-.2.1l-8.1-.6s-.1 0-.1-.1v-.4c0-.1.1-.2.2-.2l8.1.6c.1 0 .1.1.1.2v.4Zm-3.599-4.2s0-.9-.6-1c-.4 0-1.3 0-1.5-.1-.5 0-.2.6-.1 1 .1.3.1.9-.1 1.2l-.9 1.1.9.5 2.1-1.4.2-1.3Z" class="&lt;Path&gt;"/>
          <path fill="#F69226" stroke="#050505" stroke-linecap="round" stroke-linejoin="round" stroke-width=".4" d="M24.328 75.023s.1-1.4.1-1.8c0-.4-.2-.7-.6-.7-.5-.1-.9.3-1.8-.2-.8-.4-.9-.7-1.2-.9-.4-.2-.5.1-.6.5l-.3.8-1.6 1.2-.1.7 6.1.4Z" class="&lt;Path&gt;"/>
          <path fill="#EE4963" stroke="#050505" stroke-linecap="round" stroke-linejoin="round" stroke-width=".4" d="M22.027 73.224c-.6-.1-1 0-1.4.3l-1.5 1.1 1 .1.9-.7c.2-.134.534-.2 1-.2.2.1 2.4.2 2.4.2v-.6s-2.2-.2-2.4-.2Z" class="&lt;Path&gt;"/>
          <path fill="#FEFEFE" stroke="#050505" stroke-linecap="round" stroke-linejoin="round" stroke-width=".4" d="M16.227 74.424c0-.3 1-.8 1.4-.8.9.1 1.5 1 1.5 1l-2.9-.2Z" class="&lt;Path&gt;"/>
          <path stroke="#050505" stroke-linecap="round" stroke-linejoin="round" stroke-width=".4" d="M20.328 72.924c-.3-.6-1.4-.8-1.9-.7m1.299 1.1c-.3-.5-1.3-.7-1.7-.6m1.1 1c-.3-.5-1.1-.6-1.4-.5" class="&lt;Path&gt;"/>
        </g>
      </g>
      <g class="brazo der">
        <path fill="#803531" stroke="#050505" stroke-linecap="round" stroke-linejoin="round" stroke-width=".4" d="M45.628 55.523c-3.1 1.4-5.7 2-7.6 1-1.7-1-2.8-2.6-3.5-5.2-1-3.8 4.3-5.1 5.2-1.3.7 1.7 1.3 1.8 3.4.7.7-.4 2.4-.3 3.3 1.4.8 1.6-.1 3.1-.8 3.4Z" class="&lt;Path&gt;"/>
        <path fill="#050505" d="M45.628 55.523c-3.1 1.4-5.7 2-7.6 1-1.7-1-2.8-2.6-3.5-5.2-1-3.8 4.3-5.1 5.2-1.3-.6-2-4.5-1.6-3.7 1.1.2.8 1.4 3.6 2.7 4.1 1.1.5 3.2.5 4.9-.2.8-.2 2.2.4 2 .5Z" class="&lt;Path&gt;" opacity=".4"/>
        <g class="&lt;Group&gt;">
          <g class="&lt;Group&gt;">
            <path fill="#803531" stroke="#050505" stroke-linecap="round" stroke-linejoin="round" stroke-width=".4" d="M48.727 52.724c-.4 1.7-2 2.9-3.5 2.6-1.6-.3-2.7-1.9-2.3-3.7.3-1.7 1.9-2.9 3.5-2.6 1.6.3 2.6 1.9 2.3 3.7Z" class="&lt;Path&gt;"/>
            <path fill="#803531" stroke="#050505" stroke-linecap="round" stroke-linejoin="round" stroke-width=".4" d="M45.127 50.024c.3.4.2 1-.2 1.3-.4.3-.9.2-1.2-.2l-.7-.8c-.3-.4-.2-.9.2-1.2.4-.3 1-.2 1.3.1l.6.8Z" class="&lt;Path&gt;"/>
            <path fill="#050505" d="M47.727 53.724s-.9 1-2.2.6c-1.3-.5-1.1-2.2-1.1-2.2s.8 0 .8-.8c0 0-.9.7-1.6-.3l-.7.4s-.6 3 1.8 3.8c2.4.8 3.1-1.1 3-1.5Z" class="&lt;Path&gt;" opacity=".2" style="mix-blend-mode:multiply"/>
          </g>
        </g>
      </g>
      <g class="brazo izq">
        <path fill="#803531" stroke="#050505" stroke-linecap="round" stroke-linejoin="round" stroke-width=".4" d="M12.6 48.624c2.376 2.44 4.424 3.905 6.61 3.735 1.978-.09 3.481-1.29 5.228-3.352 2.334-3.15-1.99-6.422-4.325-3.272-1.355 1.336-1.926 1.22-3.355-.627-.523-.613-2.177-1.175-3.606.093-1.294 1.12-1.076 2.81-.552 3.423Z" class="&lt;Path&gt;"/>
        <path fill="#050505" d="M12.6 48.624c2.376 2.44 4.424 3.905 6.61 3.735 1.978-.09 3.481-1.29 5.228-3.352 2.334-3.15-1.99-6.422-4.325-3.272 1.15.372 3.67 1.32 1.788 3.529-.465.658-1.41 1.692-2.822 1.756-1.204-.016-3.153-.848-4.482-2.062-.59-.54-2.219-.536-1.997-.334Z" class="&lt;Path&gt;" opacity=".4"/>
        <g class="&lt;Group&gt;">
          <g class="&lt;Group&gt;">
            <path fill="#803531" stroke="#050505" stroke-linecap="round" stroke-linejoin="round" stroke-width=".4" d="M10.799 44.813c-.347 1.714.651 3.439 2.225 3.792 1.64.28 3.217-.854 3.564-2.569.347-1.714-.652-3.438-2.225-3.792-1.573-.353-3.15.78-3.564 2.569Z" class="&lt;Path&gt;"/>
            <path fill="#803531" stroke="#050505" stroke-linecap="round" stroke-linejoin="round" stroke-width=".4" d="M15.14 43.766c-.418.16-.533.733-.299 1.217.228.344.8.46 1.217.299l.896-.536a.955.955 0 0 0 .299-1.217c-.228-.344-.733-.533-1.217-.299l-.896.536Z" class="&lt;Path&gt;"/>
            <path fill="#050505" d="M11.28 46.065s.488 1.394 1.908 1.47c1.345.01 1.907-1.643 1.907-1.643s-.793-.318-.543-1.037c0 0 .61.963 1.574.353l.523.613s-.572 3-3.06 2.758c-2.556-.167-2.505-2.151-2.309-2.514Z" class="&lt;Path&gt;" opacity=".2" style="mix-blend-mode:multiply"/>
          </g>
        </g>
      </g>
      <g class="cuerpo">
        <path fill="#F69226" stroke="#050505" stroke-linecap="round" stroke-linejoin="round" stroke-width=".4" d="M27.027 65.124c-8.4-1.3-8.5-3-8.4-6.5.1-2.8 2.3-9.9 3.2-12.1 1.5-3.5 4.6-4.4 8.7-3.8 4.1.7 6.8 2.5 7.2 6.3.2 2.4.1 9.8-.7 12.4-.3 1.1-2 5-10 3.7Z" class="&lt;Path&gt;"/>
        <path fill="#EE4963" stroke="#050505" stroke-linecap="round" stroke-linejoin="round" stroke-width=".4" d="M23.427 53.123c-.5-2.8-.9-6.2.4-9.9l2 .7c-1.2 3.3-.7 6.4-.3 8.9l-2.1.3Z" class="&lt;Path&gt;"/>
        <path fill="#EE4763" stroke="#050505" stroke-linecap="round" stroke-linejoin="round" stroke-width=".4" d="m27.027 65.324-1.3 2.4c-6.6-1.2-8.8-2.6-8.8-2.6s.7-3.9 1.4-6.6c.4.2 2.3.8 2.3.8l3.3-6.6s2.8 1.2 4.8 1.5c2.1.3 5.1.1 5.1.1l1.1 7.3s1.9 0 2.4-.1c-.1 2.7-.1 5.4-.1 5.4s-2.3 1.1-9 1.5l-1.2-3.1Z" class="&lt;Path&gt;"/>
        <path fill="#050505" d="m27.027 65.324-1.3 2.4a57.44 57.44 0 0 1-1.3-.2s1.6-3 2.7-2.9c1 .2 2.4 3.7 2.4 3.7-.4 0-.833.033-1.3.1l-1.2-3.1Zm10.301-3.8c-.1 2.7-.1 5.4-.1 5.4s-.6.3-2.2.6c.7-.9 1.2-1.9 1.2-6h1.1Z" class="&lt;Path&gt;" opacity=".4"/>
        <path stroke="#6ECFF5" stroke-dasharray=".8 .8" stroke-linecap="round" stroke-linejoin="round" stroke-width=".4" d="M36.828 66.124s-2.4.8-8.6 1.5" class="&lt;Path&gt;"/>
        <path fill="#050505" d="M18.328 58.524c-.7 2.7-1.4 6.6-1.4 6.6s.6.4 2.2.9c-.6-.9-1-3.3.3-7.1l-1.1-.4Z" class="&lt;Path&gt;" opacity=".4"/>
        <path stroke="#6ECFF5" stroke-dasharray=".8 .8" stroke-linecap="round" stroke-linejoin="round" stroke-width=".4" d="M17.527 64.424s2.3 1.1 8.4 2.5" class="&lt;Path&gt;"/>
        <path fill="#803531" stroke="#050505" stroke-linecap="round" stroke-linejoin="round" stroke-width=".4" d="M25.027 44.824c-.4 2.8 1.5 5.4 4.3 5.8 2.8.5 5.4-1.4 5.8-4.2.5-2.8-1.4-5.4-4.2-5.8-2.8-.5-5.4 1.4-5.9 4.2Z" class="&lt;Path&gt;"/>
        <path fill="#EE4963" stroke="#050505" stroke-linecap="round" stroke-linejoin="round" stroke-width=".4" d="M34.227 54.824c1.2-2.5 2.7-5.7 2.6-9.6l-2.1.1c.1 3.5-1.3 6.3-2.5 8.6l2 .9Z" class="&lt;Path&gt;"/>
        <path fill="#6ECFF5" stroke="#050505" stroke-linecap="round" stroke-linejoin="round" stroke-width=".4" d="M34.528 54.623c-.1.7-.8 1.2-1.5 1.1-.8-.1-1.3-.8-1.1-1.5.1-.8.8-1.3 1.5-1.2.7.1 1.3.8 1.1 1.6Zm-11.4-1.799c-.1.7.4 1.4 1.1 1.5.7.1 1.4-.4 1.6-1.1.1-.7-.4-1.4-1.2-1.6-.7-.1-1.4.4-1.5 1.2Z" class="&lt;Path&gt;"/>
        <path fill="#050505" d="M23.328 53.824c.5.6 1.3.7 1.9.3 0 0-1-.1-1.4-.7-.4-.6-.2-1.5-.2-1.5-.6.4-.7 1.3-.3 1.9Zm10.7 1.7c-.6.4-1.5.3-1.9-.3 0 0 .9.2 1.6-.2.6-.5.6-1.4.6-1.4.4.6.3 1.4-.3 1.9Z" class="&lt;Path&gt;" opacity=".4"/>
        <g class="&lt;Group&gt;">
          <g class="&lt;Group&gt;">
            <path stroke="#6ECFF5" stroke-linecap="round" stroke-linejoin="round" stroke-width=".4" d="m33.328 61.724.4-.1-.1-.3" class="&lt;Path&gt;"/>
            <path stroke="#6ECFF5" stroke-dasharray=".8 .8" stroke-linecap="round" stroke-linejoin="round" stroke-width=".4" d="m33.528 60.424-.5-3.1" class="&lt;Path&gt;"/>
            <path stroke="#6ECFF5" stroke-linecap="round" stroke-linejoin="round" stroke-width=".4" d="m33.028 56.824-.1-.4h-.4" class="&lt;Path&gt;"/>
            <path stroke="#6ECFF5" stroke-dasharray=".8 .8" stroke-linecap="round" stroke-linejoin="round" stroke-width=".4" d="m31.828 56.324-3.3-.6-3.7-.5" class="&lt;Path&gt;"/>
            <path stroke="#6ECFF5" stroke-linecap="round" stroke-linejoin="round" stroke-width=".4" d="m24.427 55.123-.4-.1-.1.4" class="&lt;Path&gt;"/>
            <path stroke="#6ECFF5" stroke-dasharray=".8 .8" stroke-linecap="round" stroke-linejoin="round" stroke-width=".4" d="m23.527 56.224-1.4 2.8" class="&lt;Path&gt;"/>
            <path stroke="#6ECFF5" stroke-linecap="round" stroke-linejoin="round" stroke-width=".4" d="m21.927 59.424-.2.3.3.2" class="&lt;Path&gt;"/>
            <path stroke="#6ECFF5" stroke-dasharray=".8 .8" stroke-linecap="round" stroke-linejoin="round" stroke-width=".4" d="m22.828 60.324 4.6 2.4 5.5-.9" class="&lt;Path&gt;"/>
          </g>
        </g>
        <path fill="#050505" d="M29.427 49.924c-2.4-.4-3.6-1.1-5-2.1-1.1-.8-2-.3-2.5 1.3-.7 1.9-2.9 8.9-1.9 9.2.5.2 2.6-4.4 3.3-4.5l-2.7 5.5-2-.7c.1-2.8 2.3-9.9 3.2-12.1 1.5-3.5 4.6-4.4 8.7-3.8 4.1.7 6.8 2.5 7.2 6.3.2 2.4.1 9.8-.7 12.4l-2.1.2-.9-6.1c.6.3 1.2 5.3 1.8 5.3 1-.1 1-7.3 1-9.3 0-1.7-.7-2.5-2-2-1.6.5-3 .7-5.4.4Z" class="&lt;Path&gt;" opacity=".4"/>
      </g>
      <g class="cabeza">
        <g class="&lt;Group&gt;">
          <path fill="#803531" stroke="#050505" stroke-linecap="round" stroke-linejoin="round" stroke-width=".4" d="M15.428 31.524c-.7 8.8 3.4 15.8 14.3 17.1 10.9 1.3 16.2-6 16.8-14.7.7-8.8-5.7-16.5-14.3-17.1-8.7-.7-16.2 5.9-16.8 14.7Z" class="&lt;Path&gt;"/>
          <path fill="#050505" d="m18.227 31.623.3 1.1s-3.1 13.7 12.1 16c.2.1-.1-.3-.8 0 0-.066-.033-.1-.1-.1-10.9-1.3-15-8.3-14.3-17.1.1-2.4.8-4.6 1.9-6.5.5 1.6.9 6.6.9 6.6Z" class="&lt;Path&gt;" opacity=".4"/>
        </g>
        <path fill="#FEFEFE" d="M33.428 38.124s1.3-4.3 6.8-2.3c0 0-.3 3.4-3.3 3.5-3 .2-3.5-1.2-3.5-1.2Zm-6.201-.101s-.3-4.5-6.2-3.7c0 0-.5 3.4 2.5 4.2 2.9.7 3.7-.5 3.7-.5Z" class="&lt;Path&gt;"/>
        <path fill="#050505" d="M28.127 39.623s.6 1.3 2 1.4c1.4.1 2.4-1.3 2.4-1.3s-1.6.6-2.3.6c-.6-.1-2.1-.7-2.1-.7Z" class="&lt;Path&gt;"/>
        <g class="&lt;Group&gt;">
          <g class="&lt;Group&gt;">
            <path fill="#050505" d="M45.628 13.224c-.2 2.2-2.3 3.9-4.7 3.7-2.4-.1-4.2-2.1-4-4.4.2-2.3 2.3-3.9 4.7-3.8 2.4.2 4.2 2.2 4 4.5Zm-19.901-1.4c-.1 1.8-1.7 3.2-3.6 3-1.8-.1-3.1-1.8-3-3.6.2-1.8 1.8-3.2 3.6-3 1.8.1 3.2 1.8 3 3.6Z" class="&lt;Path&gt;"/>
            <path fill="#050505" d="M51.927 17.924c-.2 2.8-2.6 4.9-5.4 4.7-2.8-.3-4.9-2.7-4.7-5.5.2-2.7 2.7-4.8 5.5-4.6 2.7.2 4.8 2.6 4.6 5.4Zm-35.599 2.6c-.2 2.8-2.7 4.9-5.5 4.7-2.8-.2-4.9-2.7-4.7-5.5.2-2.8 2.7-4.9 5.5-4.7 2.8.2 4.9 2.7 4.7 5.5Zm22.299-8.6c-.2 3.4-3.8 6-7.9 5.7-4.1-.3-7.2-3.4-7-6.9.3-3.4 3.8-6 8-5.7 4.1.3 7.2 3.4 6.9 6.9Z" class="&lt;Path&gt;"/>
            <path fill="#050505" d="M21.927 14.824c-.2 2.7-2.6 4.8-5.4 4.6-2.7-.2-4.8-2.6-4.6-5.4.2-2.8 2.6-4.8 5.4-4.6 2.8.2 4.8 2.6 4.6 5.4Zm-6.599 14.5c-.2 3.1-2.7 5.4-5.6 5.2-2.8-.3-5-2.9-4.7-6 .2-3 2.7-5.3 5.5-5.1 2.9.2 5 2.9 4.8 5.9Zm42.1 4.2c-.2 3.2-2.7 5.6-5.6 5.3-2.8-.2-5-2.9-4.7-6.1.2-3.1 2.7-5.5 5.6-5.3 2.8.2 4.9 3 4.7 6.1Z" class="&lt;Path&gt;"/>
            <path fill="#050505" d="M56.028 23.824c-.2 2.6-2.5 4.6-5.1 4.4-2.6-.2-4.5-2.5-4.3-5.1.2-2.6 2.4-4.6 5-4.4 2.6.2 4.6 2.5 4.4 5.1Z" class="&lt;Path&gt;"/>
            <g class="&lt;Group&gt;">
              <path fill="#050505" d="M34.428 24.424c-.1 2.1-1.9 3.6-4 3.5-2.1-.2-3.7-2-3.5-4.1.1-2.1 2-3.6 4-3.5 2.1.2 3.7 2 3.5 4.1Z" class="&lt;Path&gt;"/>
              <path fill="#050505" d="M41.627 25.324c-.2 2.1-2.1 3.7-4.2 3.6-2.1-.2-3.7-2-3.6-4.2.2-2.1 2.1-3.7 4.2-3.5 2.1.1 3.7 2 3.6 4.1Z" class="&lt;Path&gt;"/>
              <path fill="#050505" d="M47.227 28.624c-.2 2.2-2.1 3.8-4.2 3.6-2.1-.1-3.7-2-3.6-4.1.2-2.2 2.1-3.8 4.2-3.6 2.1.1 3.7 2 3.6 4.1Z" class="&lt;Path&gt;"/>
              <path fill="#050505" d="M49.328 33.923c-.1 1.6-1.5 2.9-3.2 2.8-1.7-.2-2.9-1.6-2.8-3.3.1-1.7 1.6-2.9 3.3-2.8 1.6.2 2.9 1.6 2.7 3.3Zm-30.5-2.699c-.1 1.7-1.5 2.9-3.2 2.8-1.7-.2-2.9-1.6-2.8-3.3.1-1.6 1.6-2.9 3.2-2.8 1.7.2 3 1.6 2.8 3.3Z" class="&lt;Path&gt;"/>
              <path fill="#050505" d="M22.427 27.924c-.1 1.3-1.3 2.3-2.6 2.2-1.4-.1-2.4-1.3-2.3-2.6.1-1.4 1.3-2.4 2.6-2.3 1.4.1 2.4 1.3 2.3 2.7Z" class="&lt;Path&gt;"/>
              <path fill="#050505" d="M27.927 24.724c-.1 1.9-1.8 3.4-3.7 3.2-2-.1-3.4-1.8-3.3-3.7.2-1.9 1.9-3.4 3.8-3.2 1.9.1 3.4 1.8 3.2 3.7Z" class="&lt;Path&gt;"/>
              <path fill="#050505" d="m15.527 32.924 7-7.4 6.9-.9 7.2 1.1 4.6 3.6 3.3 2.3 1.7 3.1 4-2.8 1.6-7.9-9.1-9.8-10-1.9h-11l-8.7 7.3-3.3 8.8 5.8 4.5Z" class="&lt;Path&gt;"/>
            </g>
          </g>
          <path stroke="#3F1D13" stroke-width=".6" d="M18.328 28.224c-1.1-.2-1.8-1.2-1.6-2.3.2-1.1 1.2-1.8 2.3-1.6 1.1.2 1.8 1.2 1.6 2.3m25.799 8.9c1.1.1 2-.7 2.2-1.8.1-1.1-.7-2.1-1.8-2.2-1.1-.1-2.1.7-2.2 1.8m-18.5-23.9c.6-1.4 1.9-2.5 3.6-2.9 2.4-.5 4.7.4 5.8 2.1.267.4.467.833.6 1.3" class="&lt;Path&gt;"/>
          <path stroke="#3F1D13" stroke-width=".4" d="M34.127 13.723c-.2-1.3-1.2-2.2-2.5-2.1-.6.1-1.1.4-1.5.8" class="&lt;Path&gt;"/>
          <path stroke="#3F1D13" stroke-width=".6" d="M16.627 10.824c-1.9.2-3.3 1.9-3.1 3.8.2 1.9 1.8 3.3 3.7 3.1m5.5-1.3c1.9.2 3.5-1.2 3.7-3 .2-1.9-1.2-3.5-3-3.7-1.9-.2-3.5 1.1-3.7 3" class="&lt;Path&gt;"/>
          <path stroke="#3F1D13" stroke-width=".4" d="M45.227 22.724c-.7-2.1-3-3.3-5.2-2.6-2.2.7-3.5 3-2.8 5.2" class="&lt;Path&gt;"/>
          <path stroke="#3F1D13" stroke-width=".6" d="M52.328 25.924c1.5-.4 2.3-1.9 2-3.4-.4-1.5-1.9-2.4-3.4-2" class="&lt;Path&gt;"/>
          <path stroke="#3F1D13" stroke-width=".4" d="M35.127 17.324c-2.7-1.3-6-.3-7.3 2.4" class="&lt;Path&gt;"/>
          <path stroke="#3F1D13" stroke-width=".6" d="M54.528 36.424c1.7-1.8 1.7-4.6-.1-6.2" class="&lt;Path&gt;"/>
          <path stroke="#3F1D13" stroke-width=".4" d="M15.027 32.924c1.6-.1 2.8-1.4 2.8-3" class="&lt;Path&gt;"/>
          <path stroke="#3F1D13" stroke-width=".6" d="M41.227 29.524c.2.9 1.1 1.5 2 1.2.9-.2 1.5-1.1 1.3-2m-21.9-2.5c1.7.6 3.6-.3 4.2-2 .6-1.7-.3-3.6-2-4.2-1.7-.6-3.6.3-4.2 2" class="&lt;Path&gt;"/>
          <path stroke="#3F1D13" stroke-width=".4" d="M50.628 24.524c-1.5-.9-3.5-.3-4.4 1.2-.9 1.6-.3 3.6 1.2 4.5 1.6.9 3.6.3 4.5-1.3m-40.801-3.4c-1.3.7-1.7 2.4-.9 3.7.8 1.3 2.5 1.7 3.8.9 1.2-.8 1.6-2.5.8-3.8" class="&lt;Path&gt;"/>
          <path stroke="#3F1D13" stroke-width=".6" d="M46.828 22.123c2.3-.2 4-2.3 3.8-4.6-.2-2.4-2.3-4.1-4.6-3.9-2.3.2-4 2.3-3.8 4.6m-6.601 5.301c-.9 1.2-.6 2.8.5 3.7 1.2.9 2.9.7 3.8-.5m-31.1-.8c-1.9.5-3 2.5-2.4 4.4.5 1.9 2.5 3 4.4 2.5m-3.2-13c-.1 1.9 1.3 3.5 3.2 3.7 1.8.1 3.5-1.3 3.6-3.2.2-1.9-1.2-3.6-3.1-3.7-1.9-.2-3.6 1.3-3.7 3.2Z" class="&lt;Path&gt;"/>
          <path stroke="#3F1D13" stroke-width=".4" d="M17.927 19.024c1.1.6 2.4.3 3-.8.6-1 .3-2.4-.8-3-1-.6-2.3-.2-2.9.8" class="&lt;Path&gt;"/>
          <g class="&lt;Group&gt;">
            <path stroke="#3F1D13" stroke-width=".4" d="M28.527 24.024c-.1 1.2.8 2.3 2 2.4m2.401-2c.1-1.3-.8-2.3-2-2.4" class="&lt;Path&gt;"/>
          </g>
          <path stroke="#3F1D13" stroke-width=".6" d="M37.627 13.324c-.1 1.9 1.3 3.5 3.2 3.7 1.9.1 3.5-1.3 3.6-3.2.2-1.9-1.2-3.5-3.1-3.6-1.9-.2-3.5 1.2-3.7 3.1Z" class="&lt;Path&gt;"/>
        </g>
        <g class="&lt;Group&gt;">
          <path fill="#855226" d="M38.227 37.324c0 1-.8 1.9-1.7 1.9-1 0-1.8-.9-1.8-1.9 0-1 .8-1.9 1.7-1.9 1 0 1.8.9 1.8 1.9Z" class="&lt;Path&gt;"/>
          <path fill="#050505" d="M37.028 37.324c0 .4-.3.6-.6.6s-.5-.3-.5-.7c.1-.3.3-.5.6-.5s.5.3.5.6Z" class="&lt;Path&gt;"/>
          <path fill="#FEFEFE" d="M36.127 36.623c-.1.2-.2.3-.4.3s-.3-.2-.3-.4c0-.1.2-.3.4-.3.1 0 .3.2.3.4Z" class="&lt;Path&gt;"/>
        </g>
        <g class="&lt;Group&gt;">
          <path fill="#855226" d="M22.627 36.224c-.2 1 .4 2 1.4 2.2.9.2 1.9-.5 2.1-1.5.2-1-.4-1.9-1.3-2.2-1-.2-1.9.5-2.2 1.5Z" class="&lt;Path&gt;"/>
          <path fill="#050505" d="M23.828 36.523c0 .3.2.6.5.6.3.1.5-.2.6-.5 0-.3-.2-.6-.5-.6-.3-.1-.6.2-.6.5Z" class="&lt;Path&gt;"/>
          <path fill="#FEFEFE" d="M24.927 36.023c0 .2.1.3.3.3.1.1.3-.1.3-.3.1-.1-.1-.3-.2-.3-.2-.1-.4.1-.4.3Z" class="&lt;Path&gt;"/>
        </g>
        <path stroke="#050505" stroke-linecap="round" stroke-linejoin="round" stroke-width=".5" d="m19.828 32.524 1.3 1.6s5.5-.3 6.1 3.9" class="&lt;Path&gt;"/>
        <g class="&lt;Path&gt;">
          <path fill="#BB8653" d="m21.427 32.623.7 1.5Z"/>
          <path stroke="#050505" stroke-linecap="round" stroke-linejoin="round" stroke-width=".5" d="m21.427 32.623.7 1.5"/>
        </g>
        <path stroke="#050505" stroke-linecap="round" stroke-linejoin="round" stroke-width=".5" d="m41.727 34.324-1.5 1.3s-5.4-1.5-6.8 2.5" class="&lt;Path&gt;"/>
        <g class="&lt;Path&gt;">
          <path fill="#BB8653" d="m40.227 34.123-1 1.3Z"/>
          <path stroke="#050505" stroke-linecap="round" stroke-linejoin="round" stroke-width=".5" d="m40.227 34.123-1 1.3"/>
        </g>
        <path stroke="#050505" stroke-linecap="round" stroke-linejoin="round" stroke-width=".7" d="M34.727 33.224s2.8-1.2 4.6 1.4m-12.4-1.8s-2.5-1.7-4.8.5" class="&lt;Path&gt;"/>
        <path fill="#050505" d="M26.027 43.124c.5-1.1 2.3-.5 3.3-.3.2.1.7.2 1 .2h1.1c1-.1 2.8-.4 3.2.7.3 1.2-.7 3.4-4.2 3.3h-.8c-3.4-.5-4.1-2.8-3.6-3.9Z" class="&lt;Path&gt;"/>
      </g>
    </g>
  </g>
</svg>
