<svg xmlns="http://www.w3.org/2000/svg" width="58" height="28" fill="none" viewBox="0 0 58 28">
  <g class="4-29-texto">
    <g class="texto">
      <path fill="#4F9BCF" d="M57.5 14.1.4 17.5 0 12.9l57.1-3.4.4 4.6Z" class="&lt;Path&gt;"/>
      <g class="&lt;Group&gt;">
        <g class="&lt;Group&gt;">
          <path fill="#FEFEFE" fill-rule="evenodd" d="M5.9 2.9c.9 0 1.8 0 1.6 2.7-.3 2.5-1.1 2.7-2.4 2.8h-.5L5.1 3l.8-.1Zm-.1.6-.4 4.2c1.2 0 1.2-1.2 1.3-2.1.1-.8.3-2.2-.9-2.1Z" class="&lt;Compound Path&gt;" clip-rule="evenodd"/>
          <path fill="#FEFEFE" d="M8.5 8.2h-.7l.5-5.4.7-.1-.5 5.5Zm.1-5.6-.3-.2.7-1.1.4.3-.8 1Z" class="&lt;Compound Path&gt;"/>
          <path fill="#FEFEFE" fill-rule="evenodd" d="m11 2.6.6 5.4h-.7l-.1-1h-1l-.3 1.1h-.7l1.6-5.4.6-.1Zm-.3 3v-2h-.1L10 6.4l.8-.1-.1-.7Z" class="&lt;Compound Path&gt;" clip-rule="evenodd"/>
          <path fill="#FEFEFE" d="m13.9 7.8-.7.1.5-5.5h.7l-.5 5.4Zm1.7-3.9-.1 1.8-.2 2-.7.1.5-5.4.7-.1.9 4.1V4.2l.2-2h.7l-.5 5.4-.6.1-.9-4.1v.3ZM20.2 2v.7h-.9l-.4 4.8-.7.1.4-4.8h-.8l.1-.6 2.3-.2Zm2.1-.1v.6l-1.2.1-.2 1.7 1.1-.1-.1.7h-1l-.2 1.9 1.2-.1-.1.6-1.9.1.5-5.4 1.9-.1Z" class="&lt;Compound Path&gt;"/>
          <path fill="#FEFEFE" fill-rule="evenodd" d="m22.7 1.9.9-.1c.5 0 1.3 0 1.2 1.3-.1.5-.3 1.3-.9 1.5l.7 2.5-.7.1-.7-2.6-.3 2.7h-.7l.5-5.4ZM24 3.4c0-.6 0-1-.5-.9h-.1l-.2 1.8c.5 0 .7-.4.8-.9Z" class="&lt;Compound Path&gt;" clip-rule="evenodd"/>
          <path fill="#FEFEFE" d="m26 3.3-.1 1.8-.2 2H25l.5-5.4h.7l.9 4V3.5l.2-1.9h.7L27.5 7h-.7L26 2.9v.4Z" class="&lt;Compound Path&gt;"/>
          <path fill="#FEFEFE" fill-rule="evenodd" d="m30 1.4.6 5.4h-.7l-.1-1h-1l-.3 1.1-.7.1 1.6-5.5.6-.1Zm-.3 3v-2h-.1L29 5.2h.8l-.1-.8Z" class="&lt;Compound Path&gt;" clip-rule="evenodd"/>
          <path fill="#FEFEFE" d="M33.5 1.9c-.133-.067-.3-.1-.5-.1-1 .1-1.1 1.6-1.2 2.2-.1.8-.1 2.1.8 2 .2 0 .367-.033.5-.1l-.1.6c-.2.133-.4.2-.6.2-1.4.1-1.5-1.4-1.3-2.6.1-1 .4-2.8 1.8-2.9.3 0 .4 0 .6.1v.6Zm.6 4.7h-.7l.5-5.4.7-.1-.5 5.5Z" class="&lt;Compound Path&gt;"/>
          <path fill="#FEFEFE" fill-rule="evenodd" d="M37.7 3.6c-.1 1-.3 2.8-1.7 2.9-1.3.1-1.2-1.7-1.1-2.7.1-1 .3-2.8 1.7-2.9 1.3 0 1.2 1.8 1.1 2.7Zm-2 .2c-.1 1.1-.2 2.1.4 2 .6 0 .7-1 .8-2.1.2-1.2.2-2.1-.4-2.1-.6.1-.7 1-.8 2.2Z" class="&lt;Compound Path&gt;" clip-rule="evenodd"/>
          <path fill="#FEFEFE" d="m39 2.5-.1 1.8-.2 2H38l.5-5.4h.7l.9 4V2.7l.2-1.9.7-.1-.5 5.5h-.7L39 2.1v.4Z" class="&lt;Compound Path&gt;"/>
          <path fill="#FEFEFE" fill-rule="evenodd" d="m43 .6.7 5.4h-.8l-.1-1h-1l-.3 1.1h-.7L42.5.7l.5-.1Zm-.3 3-.1-2-.7 2.8.8-.1v-.7Z" class="&lt;Compound Path&gt;" clip-rule="evenodd"/>
          <path fill="#FEFEFE" d="m45.2.5-.5 4.8 1.2-.1v.6l-2 .1.6-5.4h.7Z" class="&lt;Compound Path&gt;"/>
          <path fill="#FEFEFE" fill-rule="evenodd" d="M48.7.3c.8-.1 1.8-.1 1.5 2.6-.2 2.5-1 2.7-2.3 2.8h-.5l.5-5.4h.8Zm-.1.6-.4 4.2c1.1 0 1.2-1.1 1.3-2.1.1-.8.3-2.2-.9-2.1Z" class="&lt;Compound Path&gt;" clip-rule="evenodd"/>
          <path fill="#FEFEFE" d="m53 0-.1.6-1.2.1-.2 1.7 1.1-.1V3h-1.1l-.2 1.9 1.2-.1v.6l-2 .1.6-5.4L53 0Z" class="&lt;Compound Path&gt;"/>
        </g>
        <g class="&lt;Group&gt;">
          <g class="&lt;Group&gt;">
            <path fill="#FEFEFE" d="m5 10.8-.4 5.3 3.1-.2-.1 2.1-5.4.3.6-7.4 2.2-.1Z" class="&lt;Compound Path&gt;"/>
            <path fill="#FEFEFE" fill-rule="evenodd" d="m13.6 10.2 2.1 7.3-2.4.1-.2-.7-2.4.1-.3.8L8 18l3.3-7.6 2.3-.2Zm-1.9 4.6h1l-.4-1.5-.6 1.5Zm7 2.5.5-7.4 3-.2c1.067-.067 1.9.233 2.5.9.667.667.934 1.533.8 2.6-.067 1.067-.466 1.967-1.2 2.7-.733.733-1.633 1.133-2.7 1.2l-2.9.2Zm2.6-5.4-.3 3.2.8-.1c.4 0 .733-.167 1-.5.267-.333.433-.733.5-1.2.067-.4-.033-.767-.3-1.1-.2-.267-.5-.4-.9-.4l-.8.1Zm9.5-2.7 2.1 7.2-2.4.1-.2-.7-2.4.1-.3.8-2.3.2 3.2-7.6 2.3-.1Zm-1.9 4.7 1-.1-.4-1.5-.6 1.6Z" class="&lt;Compound Path&gt;" clip-rule="evenodd"/>
            <path fill="#FEFEFE" d="m40.7 8.5-.6 7.4-2 .2L36 13l-.2 3.2-2.2.2.5-7.4 2-.2 2.1 3.1.3-3.2 2.2-.2Zm3.4 5.1 2.8-.2-.1 2.1-5.8.4.1-1.8 2.9-3.7-2.5.2.1-2.1 5.6-.4-.1 1.8-3 3.7Z" class="&lt;Compound Path&gt;"/>
            <path fill="#FEFEFE" fill-rule="evenodd" d="m52.8 7.8 2.1 7.2-2.4.2-.2-.8-2.4.2-.3.8-2.3.1 3.2-7.6 2.3-.1Zm-1.9 4.7 1-.1-.4-1.5-.6 1.6Z" class="&lt;Compound Path&gt;" clip-rule="evenodd"/>
          </g>
        </g>
      </g>
      <g class="&lt;Group&gt;">
        <g class="&lt;Group&gt;">
          <path fill="#FEFEFE" fill-rule="evenodd" d="M16.7 26.5c-.333.333-.767.5-1.3.5l-.9.1.3-3.7h.9c.533 0 .967.133 1.3.4.267.333.367.767.3 1.3s-.267 1-.6 1.4Zm-1.5-2.6-.2 2.7h.5c.333-.067.633-.233.9-.5.2-.2.333-.5.4-.9s0-.733-.2-1-.5-.367-.9-.3h-.5Z" class="&lt;Compound Path&gt;" clip-rule="evenodd"/>
          <path fill="#FEFEFE" d="m18.5 24.2-.2 2.7h-.5l.2-2.6.5-.1Zm0-.4h-.4l.4-.7h.5l-.5.7Z" class="&lt;Compound Path&gt;"/>
          <path fill="#FEFEFE" fill-rule="evenodd" d="M20.8 26.8v-.3c-.067.133-.167.2-.3.2a1.16 1.16 0 0 0-.3.2H20c-.4 0-.667-.133-.8-.4s-.2-.6-.2-1c.067-.4.2-.733.4-1a.95.95 0 0 1 .8-.4h.3c.067 0 .133.033.2.1.133.067.233.133.3.2v-.3h.5l-.2 2.7h-.5Zm.1-1.4c.067-.6-.133-.9-.6-.9-.467.067-.733.4-.8 1-.067.6.133.9.6.9.467 0 .733-.333.8-1Zm3.9 1.2v-.3a.654.654 0 0 1-.3.3c-.133.067-.233.1-.3.1H24a.95.95 0 0 1-.8-.4c-.133-.2-.2-.5-.2-.9.067-.467.2-.833.4-1.1a.95.95 0 0 1 .8-.4h.3c.067 0 .133.033.2.1a.654.654 0 0 1 .3.3l.1-1.4.5-.1-.3 3.8h-.5Zm.1-1.3c.067-.667-.133-.967-.6-.9-.467 0-.733.3-.8.9-.067.6.133.9.6.9.467 0 .733-.3.8-.9Zm3.4 0-1.8.1c0 .467.2.7.6.7a.68.68 0 0 0 .5-.2l.3.4c-.2.133-.467.233-.8.3-.4 0-.7-.133-.9-.4-.133-.2-.2-.533-.2-1 .067-.4.2-.733.4-1s.5-.4.9-.4.667.1.8.3c.2.267.267.6.2 1v.2Zm-1.8-.3 1.4-.1c0-.467-.2-.7-.6-.7-.4.067-.667.333-.8.8Z" class="&lt;Compound Path&gt;" clip-rule="evenodd"/>
          <path fill="#FEFEFE" d="m28.8 26.4.3-3.7h.5l-.3 3.7h-.5Z" class="&lt;Compound Path&gt;"/>
          <path fill="#FEFEFE" fill-rule="evenodd" d="m32.3 22.7.7-.1.8 3.6h-.5l-.2-.7-1.5.1-.3.7h-.5l1.5-3.6Zm.3.5-.8 2H33l-.4-2Z" class="&lt;Compound Path&gt;" clip-rule="evenodd"/>
          <path fill="#FEFEFE" d="m35.9 26.1.2-1.5c0-.533-.133-.767-.4-.7-.3 0-.5.1-.6.3-.133.2-.2.367-.2.5l-.1 1.5h-.5l.3-2.7h.4v.3a.95.95 0 0 1 .8-.4c.3 0 .5.1.6.3.067.067.1.167.1.3.1.2.1.3.1.4l-.2 1.7h-.5Zm1.2-.1.2-2.6h.5l-.2 2.6h-.5Zm.4-3.5c.067-.067.133-.1.2-.1.1 0 .3.1.3.3-.1.2-.2.3-.4.3-.1 0-.3-.1-.3-.3l.2-.2Zm3 1.4c-.067.2-.1.367-.1.5l-.2 1.5h-.5l.2-1.5c0-.467-.133-.7-.4-.7s-.434.267-.5.8l-.1 1.5h-.5l.2-2.7h.5v.3c.133-.267.333-.4.6-.4.3 0 .5.2.5.5.2-.333.466-.5.8-.5.3-.1.5.1.6.2.066.067.1.167.1.3.1.2 0 .3 0 .6l-.1 1.5-.5.1.1-1.6c.067-.467-.033-.7-.3-.7-.2 0-.334.1-.4.3Z" class="&lt;Compound Path&gt;"/>
          <path fill="#FEFEFE" fill-rule="evenodd" d="m44 25.7.1-.3-.3.3c-.133.067-.233.1-.3.1h-.3c-.333.067-.567-.033-.7-.3-.2-.267-.267-.6-.2-1 0-.4.1-.733.3-1 .267-.267.566-.433.9-.5h.2c.067.067.166.1.3.1.066.067.133.167.2.3l.1-.3h.5l-.3 2.6H44Zm.1-1.3c.066-.6-.133-.9-.6-.9-.4 0-.633.3-.7.9-.067.667.133.967.6.9.467 0 .7-.3.7-.9Z" class="&lt;Compound Path&gt;" clip-rule="evenodd"/>
          <path fill="#FEFEFE" d="m45.3 25.7.3-3.8h.5l-.3 3.8h-.5Z" class="&lt;Compound Path&gt;"/>
        </g>
      </g>
    </g>
  </g>
</svg>
