<svg xmlns="http://www.w3.org/2000/svg" width="100" height="26" fill="none" viewBox="0 0 100 26">
  <g class="4-7-texto">
    <g class="texto">
      <g class="&lt;Group&gt;">
        <path fill="#FEFEFE" fill-rule="evenodd" d="M36.9 4.3c.9-.1 2-.2 1.9 2.9 0 2.8-.9 3.1-2.3 3.3l-.6.1.1-6.2.9-.1Zm-.1.7-.1 4.8C38 9.6 38 8.4 38 7.3c0-.9.1-2.5-1.2-2.3Z" class="&lt;Compound Path&gt;" clip-rule="evenodd"/>
        <path fill="#FEFEFE" d="M41.6 3.6v.7l-1.3.2-.1 1.9 1.2-.2V7l-1.2.1v2.1l1.4-.2v.7l-2.2.3.1-6.1 2.1-.3Z" class="&lt;Compound Path&gt;"/>
      </g>
      <g class="&lt;Group&gt;">
        <path fill="#7BC044" d="m56.4 18.3-39.1 6.8-.9-4.8 39.1-6.8.9 4.8ZM62 6.2 45.2 9.1l-.9-4.8 16.8-2.9.9 4.8Z" class="&lt;Path&gt;"/>
        <g class="&lt;Group&gt;">
          <g class="&lt;Group&gt;">
            <g class="&lt;Group&gt;">
              <path fill="#FEFEFE" fill-rule="evenodd" d="M1 9.8c1-.2 2.1-.3 2.1 3 0 3-.9 3.3-2.4 3.6l-.6.1L0 9.9l1-.1Zm0 .8v5c1.4-.1 1.3-1.5 1.3-2.6 0-1 .1-2.7-1.3-2.4Z" class="&lt;Compound Path&gt;" clip-rule="evenodd"/>
              <path fill="#FEFEFE" d="m4.1 9-.4-.2.7-1.4.5.3L4.1 9Zm.6 6.7-.9.1V9.3l.8-.1.1 6.5Z" class="&lt;Compound Path&gt;"/>
              <path fill="#FEFEFE" fill-rule="evenodd" d="m7 8.8 1.4 6.3-.9.1-.2-1.2-1.3.2-.2 1.3-.8.2 1.3-6.8.7-.1Zm0 3.6-.3-2.3-.5 3.4 1-.1-.2-1Z" class="&lt;Compound Path&gt;" clip-rule="evenodd"/>
              <path fill="#FEFEFE" d="m11.2 8.1.9 4.6v-.3l.3-1.6.5-3 .8-.1.6 6.5-.9.1-.1-2.4-.1-1.2v-.9l-.2 1-.6 3.7h-.6l-.8-4.3-.3 4.5-.8.2.5-6.7.8-.1Zm4.4-.7v4.8c0 .8.3 1 .6.9.6-.1.6-.5.6-1V7.2l.9-.1v4.6c0 .9 0 2-1.5 2.2-1.3.2-1.4-.7-1.4-1.9l-.1-4.5.9-.1Zm3.6 1.4.1 2.1v2.4l-.8.2V6.9l.8-.1 1.5 4.7-.2-2.6V6.6l.8-.1.1 6.5-.8.1-1.5-4.8v.5Z" class="&lt;Compound Path&gt;"/>
              <path fill="#FEFEFE" fill-rule="evenodd" d="M23.2 6.2c1-.2 2.1-.3 2.1 3 0 3-.9 3.3-2.4 3.6l-.6.1-.1-6.6 1-.1Zm-.1.8.1 5c1.4-.2 1.3-1.5 1.3-2.6 0-1 .1-2.7-1.4-2.4Z" class="&lt;Compound Path&gt;" clip-rule="evenodd"/>
              <path fill="#FEFEFE" d="m26.8 12.1-.8.1V5.7l.8-.1v6.5Z" class="&lt;Compound Path&gt;"/>
              <path fill="#FEFEFE" fill-rule="evenodd" d="m29.2 5.2 1.4 6.3-.9.1-.2-1.2-1.3.2-.2 1.3-.8.2 1.3-6.8.7-.1Zm0 3.6-.3-2.3-.5 3.4 1-.1-.2-1Z" class="&lt;Compound Path&gt;" clip-rule="evenodd"/>
              <path fill="#FEFEFE" d="m31.7 4.8.1 5.8 1.4-.3v.8l-2.3.3V4.9l.8-.1Z" class="&lt;Compound Path&gt;"/>
            </g>
          </g>
          <g class="&lt;Group&gt;">
            <g class="&lt;Group&gt;">
              <path fill="#FEFEFE" d="m62.94 11.696.915 4.779-.01-.4.345-2.309.244-2.306.795-.22-1.038 6.727-.595.215-1.454-6.367.798-.12Zm3.743 5.911-.897.122-.157-6.498.795-.22.26 6.596Zm2.828-7.17.02.8-1.395.233.05 2.1 1.295-.231.017.7-1.295.23.053 2.2 1.495-.236.02.8-2.293.355-.156-6.498 2.19-.453Z" class="&lt;Compound Path&gt;"/>
              <path fill="#FEFEFE" fill-rule="evenodd" d="m70.011 10.425.995-.224c.597-.115 1.595-.239 1.633 1.361.015.6-.161 1.604-.856 1.821l1.272 2.97-.895.222-1.174-3.073-.1.003.177 3.196-.895.222-.157-6.498Zm1.738 1.559c-.017-.7-.129-1.198-.724-.983l-.1.002.05 2.1c.6-.015.789-.52.774-1.12Z" class="&lt;Compound Path&gt;" clip-rule="evenodd"/>
              <path fill="#FEFEFE" d="m74.039 11.528.153 2.197.058 2.4-.798.119-.156-6.498.797-.12 1.613 4.663-.263-2.595-.055-2.299.795-.22.259 6.596-.798.12-1.615-4.763.01.4Zm5.231-2.927.02.8-1.396.234.05 2.1 1.296-.232.017.7-1.295.231.053 2.2 1.395-.234.019.8-2.192.352-.257-6.495 2.29-.456Zm2.416.642c-.205-.195-.407-.29-.704-.183-.498.112-.688.517-.676 1.017.005.2.01.4.214.595l.615.585c.611.486 1.021.876 1.043 1.776.021.9-.557 1.814-1.452 2.035-.4.01-.7.017-1.004-.176l-.022-.9c.305.193.507.288.905.179.497-.112.687-.517.675-1.017-.031-1.3-1.83-1.256-1.871-2.956-.022-.9.459-1.71 1.353-1.933.4-.01.7-.016.903.079l.021.9Zm4.282-.803c-.205-.195-.405-.19-.705-.183-.497.112-.687.517-.675 1.017.005.2.01.4.214.595l.614.585c.612.485.922.878.943 1.778.022.9-.456 1.811-1.351 2.033-.4.01-.7.017-1.005-.176l-.021-.9c.305.193.507.288.904.178.498-.112.688-.516.676-1.016-.031-1.3-1.83-1.256-1.872-2.956-.021-.9.46-1.711 1.354-1.933.3-.007.7-.017.902.078l.022.9Z" class="&lt;Compound Path&gt;"/>
              <path fill="#FEFEFE" fill-rule="evenodd" d="m88.334 6.983 1.551 6.264-.897.122-.23-1.195-1.294.231-.169 1.305-.797.119 1.138-6.73.698-.116Zm.086 3.599-.355-2.293-.418 3.412.995-.225-.222-.894Z" class="&lt;Compound Path&gt;" clip-rule="evenodd"/>
              <path fill="#FEFEFE" d="m90.77 8.424.252 2.195.058 2.4-.897.12-.157-6.497.797-.12 1.613 4.663-.263-2.594-.057-2.4.897-.121.157 6.498-.795.219-1.616-4.762.01.4ZM96 5.497l.02.8-.898.122.14 5.798-.798.12-.237-5.696-.997.124-.017-.7L96 5.497Z" class="&lt;Compound Path&gt;"/>
              <path fill="#FEFEFE" fill-rule="evenodd" d="M99.564 8.112c.029 1.2-.018 3.402-1.613 3.64-1.592.339-1.745-1.858-1.771-2.958-.03-1.2.018-3.401 1.61-3.74 1.595-.238 1.645 1.861 1.774 3.058Zm-2.49.46c.034 1.4.16 2.497.858 2.38.697-.116.77-1.218.737-2.618-.034-1.4-.162-2.597-.858-2.38-.697.117-.77 1.219-.737 2.619Z" class="&lt;Compound Path&gt;" clip-rule="evenodd"/>
            </g>
          </g>
          <g class="&lt;Group&gt;">
            <g class="&lt;Group&gt;">
              <path fill="#FEFEFE" d="m48.3 1.5.2 5.6 3.2-.5.1 2.2-5.6.9-.2-7.8 2.3-.4Z" class="&lt;Compound Path&gt;"/>
              <path fill="#FEFEFE" fill-rule="evenodd" d="m57.3 0 3 7.4-2.5.5-.2-.8-2.6.4-.2.8-2.5.4L55 .4l2.3-.4Zm-1.6 5.1 1-.1-.5-1.6-.5 1.7Z" class="&lt;Compound Path&gt;" clip-rule="evenodd"/>
            </g>
          </g>
          <g class="&lt;Group&gt;">
            <g class="&lt;Group&gt;">
              <path fill="#FEFEFE" d="M20.5 22.8c.6.533 1.233.767 1.9.7.4-.133.6-.3.6-.5 0-.133-.133-.233-.4-.3-.2-.067-.5-.133-.9-.2a9.238 9.238 0 0 1-1.1-.3c-.4-.133-.7-.367-.9-.7a2.36 2.36 0 0 1-.5-1.1c0-.467.2-1 .6-1.6.4-.6 1.2-1.2 2.3-1.3.8-.2 1.6 0 2 .2.5.3.9.6 1.1.8l.1.1-1.5 1.5c-.333-.267-.6-.433-.8-.5a1.627 1.627 0 0 0-.8 0c-.4.1-.6.3-.6.4 0 .3.4.4 1 .5.267 0 .567.067.9.2.333.067.633.167.9.3.267.133.5.333.7.6.2.333.3.7.3 1.1 0 .5-.2 1-.6 1.6-.5.6-1.4 1.1-2.5 1.3-.867.133-1.567.066-2.1-.2-.6-.333-1.033-.7-1.3-1.1l1.6-1.5Z" class="&lt;Compound Path&gt;"/>
              <path fill="#FEFEFE" fill-rule="evenodd" d="m30.8 16.2 3 7.4-2.5.4-.3-.7-2.5.4-.3.8-2.5.4 2.7-8.3 2.4-.4Zm-1.6 5.1 1.1-.2-.6-1.5-.5 1.7Z" class="&lt;Compound Path&gt;" clip-rule="evenodd"/>
              <path fill="#FEFEFE" d="m36.6 15.2.2 5.7 3.2-.5.1 2.2-5.6.9-.2-7.9 2.3-.4Zm7.4 6.9h-.6c-.5 0-.9 0-1.4-.3-.5-.2-.8-.6-1.1-1.2-.133-.4-.2-.8-.2-1.2l-.1-4.8 2.3-.4.1 4.9s0 .1.1.3c0 .067.033.167.1.3.2.1.4.2.8.2a.97.97 0 0 0 .6-.4c.133-.133.233-.3.3-.5v-.3l-.1-4.8 2.3-.4.1 4.8c0 .9-.2 1.7-.6 2.2-.2.267-.4.5-.6.7-.7.6-1.4.8-1.8.9H44Z" class="&lt;Compound Path&gt;"/>
              <path fill="#FEFEFE" fill-rule="evenodd" d="m48.4 21.2-.2-7.8 3.1-.5c1.133-.2 2.067 0 2.8.6.733.667 1.133 1.567 1.2 2.7 0 1.133-.333 2.133-1 3-.733.867-1.667 1.367-2.8 1.5l-3.1.5Zm2.2-6v3.5l.8-.2c.467-.067.833-.267 1.1-.6.267-.4.367-.833.3-1.3 0-.533-.133-.933-.4-1.2-.267-.267-.6-.367-1-.3l-.8.1Z" class="&lt;Compound Path&gt;" clip-rule="evenodd"/>
            </g>
          </g>
        </g>
      </g>
    </g>
  </g>
</svg>
