<svg xmlns="http://www.w3.org/2000/svg" width="117" height="33" fill="none" viewBox="0 0 117 33">
  <g class="5-1-texto">
    <g class="Group 117">
      <g class="&lt;Group&gt;">
        <path fill="#FEFEFE" fill-rule="evenodd" d="M4.1 1.3c.8.1 1.8.2 1.2 3-.6 2.5-1.5 2.6-2.8 2.5h-.6l1.3-5.6.9.1Zm-.2.7-1 4.2c1.2.2 1.4-1 1.7-1.9.1-.9.6-2.3-.7-2.3Z" class="&lt;Compound Path&gt;" clip-rule="evenodd"/>
        <path fill="#FEFEFE" d="M6 7.1 5.2 7l1.3-5.5h.7L6 7.1Zm.9-5.8-.3-.2.9-1.1.4.4-1 .9Z" class="&lt;Compound Path&gt;"/>
        <path fill="#FEFEFE" fill-rule="evenodd" d="M9.3 1.7v5.6l-.8-.1V6.1H7.4l-.4 1h-.7l2.4-5.5.6.1Zm-.7 3.1.2-2-1.1 2.8h.9v-.8Z" class="&lt;Compound Path&gt;" clip-rule="evenodd"/>
        <path fill="#FEFEFE" d="M.8 15H0l1.3-5.6.7.1L.8 15ZM3 11.2l-.3 1.9-.5 2h-.7l1.3-5.6.7.1.3 4.3.4-2.3.4-1.9h.8l-1.3 5.6-.7-.1-.3-4.3-.1.3Zm5.1-1.3-.2.7-.8-.1-1.2 4.9-.7-.1 1.1-4.9h-.8l.1-.7 2.5.2Zm2.2.2-.2.6-1.2-.1-.4 1.8h1.1l-.1.7-1.2-.1-.4 1.9 1.3.1-.2.6-2-.1 1.3-5.6 2 .2Z" class="&lt;Compound Path&gt;"/>
        <path fill="#FEFEFE" fill-rule="evenodd" d="m10.7 10.1.9.1c.5 0 1.4.1 1 1.5-.1.5-.4 1.3-1.1 1.3l.4 2.8h-.7l-.4-2.8-.7 2.7-.7-.1 1.3-5.5Zm1.1 1.7c.2-.5.2-1-.4-1h-.1l-.4 1.8c.5.1.8-.2.9-.8Z" class="&lt;Compound Path&gt;" clip-rule="evenodd"/>
        <path fill="#FEFEFE" d="m13.8 12-.3 1.9-.5 2-.7-.1 1.3-5.5.7.1.3 4.2.4-2.2.4-2 .8.1-1.3 5.5h-.7l-.3-4.4-.1.4Z" class="&lt;Compound Path&gt;"/>
        <path fill="#FEFEFE" fill-rule="evenodd" d="m18.3 10.6-.1 5.6h-.8l.1-1.1-1.1-.1-.5 1.1-.7-.1 2.5-5.4h.6Zm-.7 3.1.1-2.1-1.1 2.8.9.1.1-.8Z" class="&lt;Compound Path&gt;" clip-rule="evenodd"/>
        <path fill="#FEFEFE" d="M21.8 11.6c-.133-.067-.3-.1-.5-.1-1-.1-1.4 1.4-1.5 2.1-.2.7-.5 2.1.6 2.2a.887.887 0 0 0 .4-.1l-.1.6c-.2.133-.4.166-.6.1-1.6-.1-1.4-1.7-1.1-2.8.2-1.1.8-2.9 2.3-2.8.3 0 .4 0 .6.2l-.1.6Zm0 4.9-.8-.1 1.3-5.5.8.1-1.3 5.5Z" class="&lt;Compound Path&gt;"/>
        <path fill="#FEFEFE" fill-rule="evenodd" d="M25.9 14c-.2 1-.7 2.8-2.1 2.7-1.4-.1-1-1.9-.8-2.9.2-1 .7-2.9 2.1-2.8 1.5.1 1 2 .8 3Zm-2.1-.2c-.3 1.2-.4 2.2.2 2.2.5.1.9-.9 1.1-2.1.3-1.2.4-2.1-.1-2.2-.6 0-.9 1-1.2 2.1Z" class="&lt;Compound Path&gt;" clip-rule="evenodd"/>
        <path fill="#FEFEFE" d="m27.4 12.9-.3 1.9-.5 2h-.7l1.2-5.5h.7l.4 4.3.3-2.2.5-2h.7L28.4 17l-.6-.1-.4-4.3v.3Z" class="&lt;Compound Path&gt;"/>
        <path fill="#FEFEFE" fill-rule="evenodd" d="m31.8 11.6-.1 5.6-.7-.1V16h-1.1l-.4 1h-.8l2.5-5.5.6.1Zm-.7 3.1.2-2-1.1 2.8h.9v-.8Z" class="&lt;Compound Path&gt;" clip-rule="evenodd"/>
        <path fill="#FEFEFE" d="m34.1 11.7-1.2 4.9 1.3.1-.2.7-2-.2 1.3-5.5h.8Z" class="&lt;Compound Path&gt;"/>
        <path fill="#FEFEFE" fill-rule="evenodd" d="M37.8 12c.8.1 1.8.2 1.2 3-.6 2.5-1.5 2.6-2.8 2.5h-.5l1.2-5.6.9.1Zm-.2.7-1 4.2c1.2.2 1.4-1 1.7-1.9.1-.9.6-2.3-.7-2.3Z" class="&lt;Compound Path&gt;" clip-rule="evenodd"/>
        <path fill="#FEFEFE" d="m42.2 12.3-.2.6h-1.2l-.4 1.7 1.1.1-.1.6-1.2-.1-.4 1.9 1.3.1-.2.6-2-.1 1.3-5.5 2 .1Zm1.1.1-1.1 4.9 1.2.1-.1.6-2-.1 1.3-5.6.7.1Z" class="&lt;Compound Path&gt;"/>
      </g>
      <g class="&lt;Group&gt;">
        <g class="&lt;Group&gt;">
          <g class="&lt;Group&gt;">
            <g class="&lt;Group&gt;">
              <path fill="#FEFEFE" d="m22 21.8.1 1.9.2-.5.6-1.3h.6l-1.2 2.2-.4 1.7h-.6l.4-1.7-.3-2.3h.6Zm3.2.2-.8 3.5.9.1-.1.5-1.4-.1.9-4h.5Z" class="&lt;Compound Path&gt;"/>
              <path fill="#FEFEFE" fill-rule="evenodd" d="m27.6 22.2-.1 4H27v-.8l-.8-.1-.3.8h-.5l1.7-3.9h.5Zm-.5 2.2.1-1.5-.7 2 .6.1v-.6Z" class="&lt;Compound Path&gt;" clip-rule="evenodd"/>
            </g>
          </g>
        </g>
      </g>
      <g class="&lt;Group&gt;">
        <g class="&lt;Group&gt;">
          <path fill="#1C78BD" d="m115.8 22.5-69.4-4.9.7-4.4 69.2 4.9-.5 4.4Z" class="&lt;Path&gt;"/>
        </g>
        <g class="&lt;Group&gt;">
          <g class="&lt;Group&gt;">
            <path fill="#FEFEFE" d="m49.9 14.3-1.9-.2.4-1.9 5.9.4-.4 1.9-1.9-.1-1.1 4.9-2-.1 1-4.9Z" class="&lt;Compound Path&gt;"/>
            <path fill="#FEFEFE" fill-rule="evenodd" d="m59.3 19.9-2.5-.2-1-1.8h-.2l-.4 1.7-2-.1 1.4-6.9 2.8.2c.1.1.2.1.6.1.3.1.6.3 1 .5.3.3.6.7.7 1.2 0 .333-.033.667-.1 1-.2.933-.733 1.6-1.6 2l1.3 2.3Zm-3-5.2L56 16l.8.1c.4 0 .633-.2.7-.6.1-.4-.1-.7-.4-.7l-.8-.1Z" class="&lt;Compound Path&gt;" clip-rule="evenodd"/>
            <path fill="#FEFEFE" fill-rule="evenodd" d="m65.2 13.4 1.1 7-2.3-.2-.1-.7-2.2-.2-.4.7-2.2-.1 4-6.7 2.1.2Zm-2.4 4.1.9.1-.1-1.5-.8 1.4Zm3.6 2.9 1.5-6.8 3 .2h.2c.133 0 .3.067.5.2.267.067.5.167.7.3.133.133.267.333.4.6.133.267.167.567.1.9a2.4 2.4 0 0 1-.8 1.3c.4.4.534.9.4 1.5-.267 1.467-1.367 2.133-3.3 2l-2.7-.2Zm2.5-1.8h.9c.267.067.433-.033.5-.3 0-.2-.133-.333-.4-.4h-.8l-.2.7Zm.4-2.3.9.1c.1 0 .3-.1.4-.3 0-.3-.2-.4-.3-.4l-.8-.1-.2.7Zm8.6-2 1.1 6.9-2.3-.1-.1-.7-2.2-.2-.4.7-2.2-.2 4-6.6 2.1.2Zm-2.4 4.1.9.1-.1-1.5-.8 1.4Z" class="&lt;Compound Path&gt;" clip-rule="evenodd"/>
            <path fill="#FEFEFE" d="m78.9 19.7 1.8-.8c.2.467.433.7.7.7.334 0 .533-.133.6-.4l1-4.6 2 .2-1 4.8c-.133.533-.467 1-1 1.4-.6.4-1.267.567-2 .5-.6 0-1.2-.3-1.5-.7-.3-.3-.5-.7-.6-.9v-.2Z" class="&lt;Compound Path&gt;"/>
            <path fill="#FEFEFE" fill-rule="evenodd" d="m89.8 15.1 1.1 7-2.3-.2v-.7l-2.3-.2-.4.7-2.2-.1 4-6.7 2.1.2Zm-2.4 4.1.9.1-.1-1.5-.8 1.4Zm3.6 2.9 1.5-6.8 2.7.2c1 .066 1.767.433 2.3 1.1.467.666.6 1.5.4 2.5-.2 1-.667 1.8-1.4 2.4-.8.6-1.7.866-2.7.8l-2.8-.2Zm3.1-4.8-.7 3h.7c.4.066.767-.034 1.1-.3.267-.267.433-.6.5-1 .133-.467.1-.834-.1-1.1-.133-.334-.4-.5-.8-.5l-.7-.1Zm8.5-1.4c1 .067 1.767.467 2.3 1.2.534.733.7 1.567.5 2.5-.2 1-.7 1.833-1.5 2.5-.866.6-1.8.867-2.8.8-1.067-.067-1.867-.467-2.4-1.2-.533-.733-.7-1.6-.5-2.6.2-.933.733-1.733 1.6-2.4.8-.6 1.733-.867 2.8-.8Zm-1.1 5.1c.4 0 .767-.133 1.1-.4.4-.267.633-.633.7-1.1.067-.467 0-.867-.2-1.2-.2-.333-.5-.5-.9-.5a1.343 1.343 0 0 0-1.2.4c-.333.267-.567.633-.7 1.1-.067.467 0 .867.2 1.2.267.333.6.5 1 .5Zm9.9 2.5-2.5-.2-1.1-1.8h-.2l-.3 1.7-2.1-.1 1.4-6.8 2.9.2s.1 0 .5.1.7.2 1 .5c.4.2.6.6.7 1.2.067.267.067.566 0 .9-.2.933-.733 1.6-1.6 2l1.3 2.3Zm-3.1-5.2-.3 1.3.8.1c.4 0 .633-.2.7-.6.1-.4-.1-.7-.4-.7l-.8-.1Z" class="&lt;Compound Path&gt;" clip-rule="evenodd"/>
          </g>
        </g>
      </g>
      <g class="&lt;Group&gt;">
        <g class="&lt;Group&gt;">
          <path fill="#1C78BD" d="m105.4 31.8-75.4-5 .7-4.3 75.2 5-.5 4.3Z" class="&lt;Path&gt;"/>
        </g>
        <g class="&lt;Group&gt;">
          <g class="&lt;Group&gt;">
            <path fill="#FEFEFE" d="m33.5 23.5-1.9-.2.4-1.9 5.9.4-.4 1.9-1.9-.1-1 4.9-2.1-.2 1-4.8Z" class="&lt;Compound Path&gt;"/>
            <path fill="#FEFEFE" fill-rule="evenodd" d="m43 29-2.5-.2-1.1-1.8h-.2l-.3 1.7-2.1-.1 1.4-6.8 2.8.2c.1 0 .2 0 .6.1.3.1.6.2 1 .5.4.2.6.6.7 1.1 0 .333-.033.666-.1 1-.133.933-.633 1.6-1.5 2L43 29Zm-3.1-5.1-.3 1.2.8.1c.4 0 .633-.2.7-.6.1-.4-.1-.7-.4-.7h-.8Z" class="&lt;Compound Path&gt;" clip-rule="evenodd"/>
            <path fill="#FEFEFE" fill-rule="evenodd" d="m48.8 22.4 1.1 7-2.2-.1-.1-.8-2.2-.1-.4.7-2.2-.1 3.9-6.7 2.1.1Zm-2.4 4.1 1 .1-.2-1.5-.8 1.4Zm3.7 2.9 1.4-6.8 3 .2h.2c.133 0 .333.033.6.1l.6.4a.97.97 0 0 1 .4.6c.133.267.167.567.1.9a2.4 2.4 0 0 1-.8 1.3c.467.4.633.9.5 1.5-.267 1.4-1.367 2.067-3.3 2l-2.7-.2Zm2.4-1.8h.9c.334.067.5-.033.5-.3.067-.2-.033-.333-.3-.4h-.9l-.2.7Zm.5-2.3.8.1c.1 0 .3-.1.4-.4 0-.2-.1-.3-.2-.4h-.9l-.1.7Zm8.5-2.1 1.1 7-2.2-.2-.1-.7-2.2-.1-.4.7-2.2-.2 3.9-6.6 2.1.1Zm-2.4 4.1h1l-.2-1.4-.8 1.4Z" class="&lt;Compound Path&gt;" clip-rule="evenodd"/>
            <path fill="#FEFEFE" d="m62.5 28.6 1.8-.8c.2.467.433.7.7.7.4 0 .633-.133.7-.4l.9-4.6 2.1.1-1 4.8c-.133.6-.467 1.1-1 1.5-.6.4-1.267.567-2 .5-.6 0-1.2-.3-1.5-.7-.3-.3-.5-.7-.6-.9l-.1-.2Z" class="&lt;Compound Path&gt;"/>
            <path fill="#FEFEFE" fill-rule="evenodd" d="m73.4 23.9 1.2 7-2.3-.1-.1-.8-2.2-.1-.4.7-2.2-.1 3.9-6.7 2.1.1ZM71.1 28l.9.1-.2-1.5-.7 1.4Zm3.6 2.9 1.4-6.8 2.7.2c1.067 0 1.833.367 2.3 1.1.533.667.7 1.5.5 2.5-.2.933-.7 1.733-1.5 2.4-.733.6-1.6.867-2.6.8l-2.8-.2Zm3-4.8-.6 3h.7c.4.067.733-.067 1-.4.333-.267.534-.6.6-1 .067-.4.033-.767-.1-1.1-.2-.267-.5-.433-.9-.5h-.7Zm8.5-1.5c1 .066 1.767.466 2.3 1.2.6.666.8 1.5.6 2.5-.2 1-.733 1.833-1.6 2.5-.8.6-1.733.866-2.8.8-1-.067-1.767-.434-2.3-1.1-.533-.733-.733-1.6-.6-2.6.267-1 .8-1.834 1.6-2.5.8-.6 1.733-.867 2.8-.8Zm-1.1 5.1c.467.067.867-.067 1.2-.4.333-.267.567-.634.7-1.1.067-.467 0-.867-.2-1.2-.267-.334-.6-.5-1-.5s-.8.133-1.2.4c-.333.266-.533.633-.6 1.1-.133.466-.067.866.2 1.2.2.333.5.5.9.5Zm10 2.4-2.5-.1-1.1-1.8h-.2l-.3 1.7-2.1-.1 1.4-6.9 2.8.2c.1 0 .2 0 .5.1.4.1.7.2 1.1.5.3.3.6.6.6 1.2.067.267.067.6 0 1-.2.933-.7 1.6-1.5 2l1.3 2.2Zm-3.2-5.2-.2 1.3h.8c.333.067.533-.1.6-.5.1-.5 0-.7-.4-.7l-.8-.1Z" class="&lt;Compound Path&gt;" clip-rule="evenodd"/>
            <path fill="#FEFEFE" fill-rule="evenodd" d="m100.8 25.6 1.2 7-2.2-.2-.1-.7-2.3-.1-.3.7-2.3-.2 4-6.6 2 .1Zm-2.4 4.1h.9l-.1-1.4-.8 1.4Z" class="&lt;Compound Path&gt;" clip-rule="evenodd"/>
          </g>
        </g>
      </g>
    </g>
  </g>
</svg>
