<svg xmlns="http://www.w3.org/2000/svg" width="60" height="27" fill="none" viewBox="0 0 60 27">
  <g class="5-17-texto">
    <g class="texto">
      <path fill="#7358A4" d="m58.405 20.744-56.7 1.189-.305-4.695 57.097-1.231-.092 4.737Z" class="&lt;Path&gt;"/>
      <g class="&lt;Group&gt;">
        <path fill="#FEFEFE" fill-rule="evenodd" d="M13.771 6.047c.905.003 1.91-.005 1.525 2.953-.317 2.65-1.212 2.746-2.614 2.797l-.498.053.78-5.817.807.014Zm-.223.728-.533 4.382c1.214.07 1.284-1.144 1.475-2.17.113-.817.35-2.352-.942-2.212Z" class="&lt;Compound Path&gt;" clip-rule="evenodd"/>
        <path fill="#FEFEFE" d="m16.293 11.709-.806-.014.791-5.718.707.025-.692 5.707Zm.361-5.973-.33-.266.777-1.19.44.354-.887 1.102Z" class="&lt;Compound Path&gt;"/>
        <path fill="#FEFEFE" fill-rule="evenodd" d="m19.183 5.865.512 5.678-.796.086-.118-1.094-1.104.019-.38 1.147-.706-.024 1.995-5.747.597-.065Zm-.463 3.168-.026-2.11-.783 3.002.895-.097-.086-.795Z" class="&lt;Compound Path&gt;" clip-rule="evenodd"/>
        <path fill="#FEFEFE" d="m22.893 5.767.241 4.098.1-.011-.021-.199.456-1.357.826-2.603.607.035-.194 5.653-.696.075.073-2.12.08-1.115.124-.717-.212.827-1.07 3.133-.497.054-.23-3.999-.676 3.996-.806-.014 1.2-5.661.695-.075Zm4.009-.131-.554 4.184c-.113.816.097.894.405.962.498-.054.565-.363.71-.882l.544-4.283.707.025-.466 4.073c-.124.718-.215 1.733-1.519 1.773-1.203.03-1.3-.865-1.11-1.892l.488-3.874.795-.086Zm2.988 1.589-.194 1.932-.172 2.13-.806-.013.692-5.707.806.013.76 4.243.16-2.23.184-2.031.796-.086-.792 5.718-.696.075-.77-4.343.032.299Z" class="&lt;Compound Path&gt;"/>
        <path fill="#FEFEFE" fill-rule="evenodd" d="M33.717 5.404c.806.013 1.822.105 1.526 2.953-.318 2.65-1.312 2.757-2.616 2.797l-.497.053.692-5.707.895-.096Zm-.134.618-.622 4.492c1.303-.04 1.373-1.254 1.476-2.17.102-.917.438-2.462-.854-2.322Z" class="&lt;Compound Path&gt;" clip-rule="evenodd"/>
        <path fill="#FEFEFE" d="m36.24 11.066-.796.086.68-5.807.807.014-.692 5.707Z" class="&lt;Compound Path&gt;"/>
        <path fill="#FEFEFE" fill-rule="evenodd" d="m39.04 5.332.512 5.678-.707-.024-.118-1.094-1.104.019-.379 1.147-.707-.024 1.896-5.737.607.035Zm-.363 3.157-.016-2.01-.893 2.913.906.003.003-.906Z" class="&lt;Compound Path&gt;" clip-rule="evenodd"/>
        <path fill="#FEFEFE" d="m41.337 5.185-.656 5.1 1.303-.04-.124.718-2.01.015.792-5.718.695-.075Z" class="&lt;Compound Path&gt;"/>
        <path fill="#FEFEFE" fill-rule="evenodd" d="M45.148 5.076c.905.003 1.91-.005 1.525 2.953-.317 2.65-1.212 2.746-2.615 2.797l-.497.053.692-5.707.895-.096Zm-.135.618-.632 4.393c1.314.06 1.384-1.155 1.486-2.071.103-.917.439-2.462-.854-2.322Z" class="&lt;Compound Path&gt;" clip-rule="evenodd"/>
        <path fill="#FEFEFE" d="m49.665 4.99-.135.619-1.203.03-.305 1.842 1.204-.029-.134.618-1.105.019-.282 2.042 1.303-.04-.135.618-2.01.015.792-5.717 2.01-.016Z" class="&lt;Compound Path&gt;"/>
      </g>
      <g class="&lt;Group&gt;">
        <g class="&lt;Group&gt;">
          <path fill="#FEFEFE" d="m2.917 22.908.797-7.529 2.298-.147-.897 7.54-2.198.136Zm10.913-7.916-.796 7.529-2.099.126-1.955-3.21-.353 3.258-2.308.047.797-7.529 2.11-.026 2.054 3.198.353-3.257 2.198-.136Zm2.744 2.118-2.11.026.273-2.141 6.317-.179-.173 2.13-2.109.027-.625 5.398-2.198.137.625-5.398Zm7.411-.297-.124.718 3.015-.024-.293 1.943-2.916.013-.024.706 3.103-.133-.172 2.13-5.412.182.797-7.529 5.412-.181-.172 2.13-3.214.045Z" class="&lt;Compound Path&gt;"/>
          <path fill="#FEFEFE" fill-rule="evenodd" d="m34.294 21.937-2.706.09-1.308-1.87-.2.022-.204 1.832-2.297.148.896-7.54 3.004-.123c.1-.01.2-.021.608.035.408.057.728.223 1.158.479.43.255.77.62.934 1.206.036.332.039.667.008 1.005-.084 1.082-.569 1.872-1.454 2.37l1.56 2.346ZM30.4 16.624l-.148 1.424.806.014c.398-.043.642-.27.732-.683.045-.508-.186-.784-.583-.741l-.807-.014Z" class="&lt;Compound Path&gt;" clip-rule="evenodd"/>
          <path fill="#FEFEFE" d="m42.513 14.21-.897 7.54-2.01.016-2.055-3.198-.352 3.257-2.21.037.798-7.529 2.01-.016 2.055 3.198.352-3.256 2.309-.048Zm3.129 1.977-.024.706 2.905-.112-.194 1.932-3.004.123-.035.607 3.213-.045-.272 2.142-5.411.181.797-7.529L49.128 14l-.272 2.142-3.214.045Zm6.02-.147-2.11.027.272-2.142 6.417-.19-.272 2.142-2.11.027-.514 5.487-2.308.047.625-5.398Z" class="&lt;Compound Path&gt;"/>
        </g>
      </g>
    </g>
  </g>
</svg>
