<svg xmlns="http://www.w3.org/2000/svg" width="58" height="49" fill="none" viewBox="0 0 58 49">
  <g class="5-17-ilus">
    <g class="ilustracion">
      <path fill="#1C1C1A" d="M50.48 39.335c0 4.68-9 8.52-20.28 8.52-11.16 0-20.28-3.84-20.28-8.52s9.12-8.52 20.28-8.52c11.28 0 20.28 3.84 20.28 8.52Z" class="sombra" opacity=".2"/>
      <g class="computadora">
        <g class="&lt;Group&gt;">
          <path fill="url(#a)" d="m50.96 34.056-3.72.24-24.84-3.6c-.24-.12-.84 0-1.08.12l-13.8 5.64-2.52.12v1.08l.12.12 25.44 10.68c.84.36 1.92.24 2.52-.24l17.76-12.96.12-.12v-1.08Z" class="&lt;Path&gt;"/>
          <g class="&lt;Group&gt;">
            <path fill="url(#b)" d="m5.12 36.696 25.44 10.68c.84.36 1.92.24 2.52-.24l17.76-12.96c.36-.24 0-.48-.72-.6l-27.72-3.96c-.24-.12-.84 0-1.08.12L5.6 36.096c-.48.24-.72.48-.48.6Z" class="&lt;Path&gt;"/>
            <path fill="#C9B4D7" d="m7.4 35.615 26.88 9.72 13.2-9.36-28.44-5.16-11.64 4.8Z" class="&lt;Path&gt;"/>
            <path fill="url(#c)" fill-rule="evenodd" d="m44.36 35.736 2.04.36-1.8 1.32-2.16-.48 1.92-1.2Zm-3.72-.72 3.12.6-1.8 1.2-3.24-.6 1.92-1.2Zm-3.48-.6 2.88.48-1.92 1.08-2.76-.48 1.8-1.08Zm-3.12-.6 2.52.48-1.92 1.08-2.52-.6 1.92-.96Zm-2.88-.48 2.4.36-1.92 1.08-2.28-.48 1.8-.96Zm-2.64-.48 2.16.36-1.92.96-2.04-.48 1.8-.84Zm-2.4-.48 1.92.36-1.8.96-1.92-.48 1.8-.84Zm-2.28-.36 1.8.36-1.8.84-1.8-.36 1.8-.84Zm-2.04-.36 1.68.24-1.8.84-1.56-.36 1.68-.72Zm-2.88-.6 2.52.48-1.8.84-2.52-.6 1.8-.72ZM41 36.936l3.36.72-1.92 1.32-3.48-.72 2.04-1.32Zm-3.72-.84 3.12.72-2.04 1.2-3-.72 1.92-1.2Zm-3.36-.72 2.64.6-1.92 1.2-2.76-.6 2.04-1.2Zm-3-.72 2.4.6-1.92 1.08-2.52-.6 2.04-1.08Zm-2.76-.6 2.28.48-1.92 1.08-2.28-.48 1.92-1.08Zm-2.52-.6 2.04.48-1.92.96-2.04-.48 1.92-.96Zm-2.28-.48 1.8.36-1.92.96-1.8-.48 1.92-.84Zm-2.16-.48 1.8.36-1.92.96-1.68-.48 1.8-.84Zm-2.04-.36 1.56.36-1.8.72-1.56-.36 1.8-.72Zm-2.16-.36 1.8.36-1.8.72-1.8-.36 1.8-.72Zm-2.04.84 1.32.24-1.92.84-1.32-.36 1.92-.72Zm22.8 5.4 4.08 1.08-2.16 1.44-4.08-1.08 2.16-1.44Zm-3.72-.84 3 .72-2.16 1.32-2.88-.84 2.04-1.2Zm-3.36-.72 2.64.6-2.04 1.2-2.64-.6 2.04-1.2Zm-3-.72 2.4.48-2.16 1.2-2.28-.6 2.04-1.08Zm-2.76-.6 2.16.48-2.04 1.08-2.16-.6 2.04-.96Zm-2.4-.6 1.92.48-2.04 1.08-1.92-.6 2.04-.96Zm-2.28-.48 1.8.36-2.04.96-1.68-.48 1.92-.84Zm-2.04-.48 1.56.48-1.92.84-1.68-.36 2.04-.96Zm-1.8-.48 1.44.36-1.92.84-1.56-.36 2.04-.84Zm16.8 6 6.12 1.68-2.28 1.56-6.12-1.8 2.28-1.44Zm-3.48-.96 2.88.84-2.4 1.32-2.76-.84 2.28-1.32Zm-3-.84 2.52.72-2.28 1.32-2.52-.84 2.28-1.2Zm-2.76-.72 2.28.6-2.28 1.2-2.28-.72 2.28-1.08Zm-2.52-.6 2.04.48-2.16 1.2-2.04-.6 2.16-1.08Zm-2.28-.72 1.92.6-2.16.96-1.92-.48 2.16-1.08Zm-2.04-.6 1.68.48-2.16.96-1.56-.48 2.04-.96Zm-1.92-.6 1.56.48-2.16.96-1.56-.48 2.16-.96Zm-2.52-.72 2.16.6-2.04.84-2.04-.6 1.92-.84Zm17.64 7.44 6 1.92-2.52 1.8-6-2.16 2.52-1.56Zm-3.48-1.08 2.76.84-2.52 1.56-2.64-1.08 2.4-1.32Zm-3.12-.96 2.52.84-2.52 1.44-2.4-.96 2.4-1.32Zm-11.28-3.48 10.8 3.36-2.4 1.32-10.56-3.84 2.16-.84Zm-2.52-.72 2.04.6-2.16.96-1.92-.72 2.04-.84Z" class="&lt;Compound Path&gt;" clip-rule="evenodd"/>
          </g>
        </g>
        <g class="&lt;Group&gt;">
          <g class="&lt;Group&gt;">
            <g class="&lt;Group&gt;">
              <path fill="url(#d)" d="m49.88 33.575-26.64-3.96c-.36 0-.6-.48-.6-.96l.12-18.96c0-.6.24-.96.6-.96l27.72-3.72c.6-.12 1.32.48 1.32 1.2l-.12 26.28c0 .72-.72 1.32-2.4 1.08Z" class="&lt;Path&gt;"/>
              <path fill="url(#e)" d="m22.04 17.256-.12 11.4c0 .48.36.96.72.96l27.72 3.96c.72.12 1.2-.36 1.2-1.08l.24-26.28c0-.72-.48-1.2-1.2-1.08l-27.84 3.48c-.36.12-.6.48-.6.96l-.12 6.24" class="&lt;Path&gt;"/>
            </g>
            <g class="&lt;Group&gt;">
              <g class="&lt;Group&gt;">
                <path fill="#BBBDBF" d="M50.24 6.936 50 31.776l-18.96-2.28-4.44-.6-2.64-.36-1.2-.12.24-18.48 9-.96 11.76-1.32 1.92-.24 4.56-.48Z" class="&lt;Path&gt;"/>
                <g class="&lt;Group&gt;">
                  <path fill="#E6E7E8" d="m43.76 7.656-19.8 20.88-1.2-.12.12-8.04L32 8.976l11.76-1.32Zm6.48-.72v4.68l-20.52 17.88-3.12-.6 19.08-21.48 4.56-.48Z" class="&lt;Path&gt;" opacity=".3"/>
                </g>
              </g>
              <path fill="#E7DAEB" fill-rule="evenodd" d="m50 32.016-27.24-3.48c-.08 0-.12-.04-.12-.12l.12-18.48c0-.08.04-.12.12-.12l27.36-3c0-.08.04-.08.12 0v.12l-.12 24.84c0 .08-.04.12-.12.12 0 .08-.04.12-.12.12Zm-27-3.72 26.88 3.36.24-24.6-27 3-.12 18.24Z" class="&lt;Compound Path&gt;" clip-rule="evenodd"/>
            </g>
          </g>
        </g>
      </g>
    </g>
  </g>
  <defs>
    <linearGradient id="a" x1="30.2" x2="35.84" y1="26.376" y2="43.896" class="a" gradientUnits="userSpaceOnUse">
      <stop stop-color="#7650A0"/>
      <stop offset="1" stop-color="#593594"/>
    </linearGradient>
    <linearGradient id="b" x1="28.16" x2="36.2" y1="17.736" y2="45.816" class="b" gradientUnits="userSpaceOnUse">
      <stop stop-color="#7F58A4"/>
      <stop offset="1" stop-color="#6F4C9E"/>
    </linearGradient>
    <linearGradient id="c" x1="23.84" x2="40.28" y1="20.496" y2="50.016" class="c" gradientUnits="userSpaceOnUse">
      <stop stop-color="#7F58A4"/>
      <stop offset="1" stop-color="#6F4C9E"/>
    </linearGradient>
    <linearGradient id="d" x1="22.76" x2="52.4" y1="4.775" y2="5.015" class="d" gradientUnits="userSpaceOnUse">
      <stop stop-color="#7650A0"/>
      <stop offset="1" stop-color="#593594"/>
    </linearGradient>
    <linearGradient id="e" x1="20.12" x2="51.8" y1="4.896" y2="5.136" class="e" gradientUnits="userSpaceOnUse">
      <stop stop-color="#7F58A4"/>
      <stop offset="1" stop-color="#6F4C9E"/>
    </linearGradient>
  </defs>
</svg>
