<svg xmlns="http://www.w3.org/2000/svg" width="41" height="43" fill="none" viewBox="0 0 41 43">
  <g class="5-18-ilus">
    <g class="escarapela">
      <g class="&lt;Group&gt;">
        <path fill="#3F86AA" d="M31.52 23.116v-.2c.5.1.9-.2 1-.6l.1-.1c.1-.5-.2-.9-.7-1v-.2c.5.1.9-.3.9-.7v-.1c.1-.4-.3-.8-.7-.9h-.1v-.1h.1c.4-.1.8-.5.7-.9v-.1c0-.4-.4-.8-.9-.7v-.2c.5-.1.7-.6.6-1-.1-.5-.5-.8-1-.7v-.1c.4-.2.6-.7.5-1.1v-.1c-.2-.4-.7-.6-1.1-.4-.067-.067-.1-.134-.1-.2.4-.2.6-.7.4-1.1l-.1-.1c-.2-.4-.7-.5-1.1-.3-.067 0-.1-.034-.1-.1.4-.3.5-.8.2-1.2-.3-.4-.9-.5-1.2-.2-.067 0-.1-.034-.1-.1.3-.3.3-.9 0-1.2h-.1c-.3-.4-.8-.4-1.1 0h-.1c0-.067-.034-.1-.1-.1.3-.4.2-.9-.1-1.2h-.1c-.3-.3-.9-.2-1.1.1l-.1.1c0-.067-.034-.1-.1-.1.3-.5.1-1-.3-1.2-.4-.2-1-.1-1.2.3v.1l-.1-.1c.1-.5-.1-1-.5-1.1h-.1c-.4-.2-.9 0-1 .5h-.2v-.1c.1-.4-.2-.9-.6-1h-.1c-.4-.1-.9.2-1 .7h-.1v-.1c0-.4-.3-.8-.8-.9-.5 0-.9.3-.9.8h-.2c0-.5-.4-.8-.9-.8-.5.1-.8.5-.8.9v.1h-.2c-.1-.5-.5-.8-1-.7-.5.1-.7.6-.6 1v.1h-.2c-.1-.5-.6-.7-1.1-.5-.4.2-.7.6-.5 1.1-.067 0-.1.033-.1.1v-.1c-.3-.4-.8-.5-1.2-.3-.4.2-.6.8-.4 1.2h.1c-.067 0-.134.033-.2.1v-.1c-.3-.3-.8-.4-1.2-.1-.4.3-.4.8-.2 1.2h.1c-.067.066-.134.1-.2.1-.3-.4-.8-.4-1.2 0-.3.3-.3.9 0 1.2 0 .066-.034.1-.1.1-.4-.3-.9-.2-1.2.2-.3.4-.2.9.2 1.2 0 .066-.034.1-.1.1-.4-.2-.9 0-1.2.4-.2.4-.1.9.4 1.1v.1l-.1.1c-.4-.2-.9 0-1.1.5-.2.4.1.9.5 1.1v.1c-.5-.1-1 .2-1 .7h-.1c-.1.5.2.9.7 1v.2c-.5-.1-.9.3-.9.8-.1.4.2.8.6.9h.2v.1h-.1c-.4.1-.8.5-.7.9v.1c0 .4.3.7.6.7.066.066.166.1.3.1v.1c-.5.1-.8.6-.7 1v.1c.1.3.4.5.7.6h.4v.1c-.4.2-.7.7-.5 1.1v.1c.1.2.4.4.6.5h.5v-.1c.066.066.1.133.1.2-.4.2-.6.7-.4 1.1v.1c.2.2.4.3.6.4.2.066.4.033.6-.1l.1.1c-.4.3-.5.8-.2 1.2.133.2.3.333.5.4.2 0 .5 0 .7-.2l.1.1c-.3.4-.3.9 0 1.2v.1l.4.2c.3 0 .6 0 .8-.2v-.1c.066.066.133.1.2.1h-.1c-.2.4-.2.9.2 1.2v.1c.133.066.266.1.4.1.3.1.6 0 .8-.3h.2c0 .066-.034.1-.1.1-.2.4 0 .9.4 1.1.066.066.133.1.2.1.4.1.8-.1 1-.4h.1v.1c-.2.4.1.9.5 1v.1h.1c.5.1.9-.1 1-.5v-.1c.066.066.133.1.2.1-.1.5.2.9.6 1 .5.1.9-.2 1-.6v-.1c.066.066.133.1.2.1 0 .4.3.8.7.9h.1c.5 0 .9-.3.9-.8h.2c0 .4.3.7.6.8h.3c.5 0 .8-.4.8-.9.066 0 .1-.034.1-.1v.1c.1.3.4.6.7.6.133.066.233.066.3 0h.1c.4-.1.7-.5.6-1 .066 0 .133-.034.2-.1v.1c.1.2.3.4.6.5h.4l.1-.1c.4-.1.6-.6.5-1v-.1h.1c.1.2.3.4.6.4.2.066.4.033.6-.1.4-.2.6-.7.3-1.1v-.1h.2c.133.2.3.3.5.3.2.1.4 0 .6-.1l.1-.1c.3-.2.4-.8.1-1.1v-.1c.066 0 .1-.034.1-.1l.1.1c.066.066.2.133.4.2.2 0 .5 0 .8-.2v-.1c.3-.3.3-.8 0-1.2l.1-.1c.066.066.166.133.3.2.3 0 .7-.1.9-.4.3-.3.2-.9-.2-1.1v-.1l.1-.1c.066.066.133.1.2.1.4.1.8-.1.9-.4h.1c.2-.5 0-1-.4-1.2 0-.067.033-.1.1-.1h.1c.4.1.8-.1 1-.5v-.1c.2-.4-.1-.9-.5-1Z" class="&lt;Path&gt;"/>
      </g>
      <g class="&lt;Group&gt;">
        <g class="&lt;Group&gt;">
          <g class="&lt;Group&gt;">
            <path fill="#58BDEA" d="m17.72 42.115-2.7-3.1-4 1 5-16.1 6.7 2.1-5 16.1Z" class="&lt;Path&gt;"/>
            <path fill="#FEFEFE" d="m13.52 39.415 1.5-.4 1 1.2 4.6-14.8-2.5-.8-4.6 14.8Z" class="&lt;Path&gt;"/>
          </g>
          <g class="&lt;Group&gt;">
            <path fill="#58BDEA" d="m26.52 41.515 2.2-3.5 4.1.4-7.3-15.2-6.3 3.1 7.3 15.2Z" class="&lt;Path&gt;"/>
            <path fill="#FEFEFE" d="m30.32 38.215-1.6-.2-.8 1.3-6.8-14 2.4-1.1 6.8 14Z" class="&lt;Path&gt;"/>
          </g>
        </g>
      </g>
      <g class="&lt;Group&gt;">
        <path fill="#6ECFF5" d="M33.82 23.115h-.1c0-.066.033-.1.1-.1.5.1.9-.2 1-.7.1-.5-.2-1-.6-1.1v-.1c.5 0 .9-.4.9-.8v-.1c.1-.4-.3-.9-.8-.9v-.1c.5-.1.9-.5.8-1 0-.5-.4-.8-.9-.8 0-.066-.034-.133-.1-.2h.1c.5-.1.7-.5.6-1-.1-.5-.5-.8-1-.7 0-.066-.034-.1-.1-.1h.1c.4-.2.6-.7.5-1.1v-.1c-.2-.4-.7-.7-1.2-.5l-.1-.1h.1c.4-.2.5-.8.3-1.2-.2-.5-.8-.6-1.2-.4l-.1-.1c.4-.3.5-.8.2-1.2-.3-.4-.8-.5-1.2-.2l-.1-.1c.3-.4.3-.9 0-1.3-.4-.3-.9-.3-1.3 0l-.1-.1c.3-.4.2-.9-.2-1.2-.4-.3-.9-.2-1.2.2l-.1-.1c.2-.4 0-1-.4-1.2-.4-.2-1-.1-1.2.3v.1l-.1-.1c.1-.5-.1-1-.5-1.1l-.1-.1c-.4-.1-.9.1-1.1.5v.1c-.067 0-.1-.033-.1-.1.1-.5-.2-.9-.7-1-.5-.1-1 .2-1.1.6v.1l-.1-.1c0-.5-.3-.9-.8-.9-.5-.1-.9.3-1 .8h-.1c-.1-.5-.5-.9-.9-.8h-.1c-.5 0-.8.4-.8.9-.067 0-.1.034-.1.1v-.1c-.1-.4-.6-.7-1.1-.6-.5.1-.8.5-.7 1 0 .067-.034.1-.1.1-.2-.5-.7-.7-1.1-.6l-.1.1c-.4.1-.6.6-.5 1.1l-.1.1v-.1c-.2-.4-.8-.5-1.2-.3-.4.2-.6.8-.4 1.2h.1c-.067.067-.134.1-.2.1-.3-.4-.8-.5-1.2-.2-.4.3-.5.8-.2 1.2 0 .067-.034.134-.1.2v-.1c-.4-.3-.9-.3-1.2 0l-.1.1c-.3.3-.3.8 0 1.2h.1c-.067.067-.134.1-.2.1-.4-.3-.9-.2-1.2.2-.3.4-.2.9.2 1.2 0 .067-.034.134-.1.2v-.1c-.4-.2-1 0-1.2.4-.2.4-.1 1 .3 1.2h.1l-.1.1c-.5-.1-1 .1-1.1.5v.1c-.2.4 0 .9.5 1.1 0 .067-.034.1-.1.1-.4-.1-.9.2-1 .7-.1.5.2 1 .6 1.1h.1v.1h-.1c-.5 0-.9.3-.9.8v.1c0 .4.3.8.7.9h.1v.1c-.5.1-.8.5-.8 1 0 .4.3.7.7.8h.2l.1.1h-.1c-.4.2-.7.6-.6 1.1.1.4.3.6.6.7h.4c.066 0 .1.034.1.1-.5.2-.7.7-.5 1.1v.1c.1.3.3.4.6.5.133.067.3.067.5 0l.1.1h-.1c-.4.2-.5.8-.3 1.2.1.3.4.4.6.5.2 0 .4-.033.6-.1v-.1c.066.067.1.134.1.2-.4.3-.5.8-.2 1.2.133.2.3.334.5.4.3 0 .5 0 .7-.2h.1l.1.1h-.1c-.3.4-.3.9 0 1.2l.1.1c.066.134.2.2.4.2.3.1.6 0 .8-.2.066 0 .1.034.1.1-.3.4-.2.9.2 1.2.133.067.233.134.3.2.4 0 .7-.1.9-.4.066.067.133.1.2.1h-.1c-.2.4 0 1 .4 1.2.066.067.166.1.3.1.3.1.7-.1.9-.4v-.1l.1.1c-.1.5.1 1 .5 1.1l.1.1h.1c.4.1.8-.1 1-.6.066 0 .1.034.1.1-.1.5.2.9.7 1 .5.1 1-.2 1.1-.6v-.1l.1.1c0 .4.3.8.7.9h.2c.4.1.8-.3.9-.8h.1c.1.4.3.7.7.8h.3c.5 0 .8-.4.8-.9.066 0 .1-.033.1-.1v.1c.1.3.4.6.7.6a.425.425 0 0 0 .4 0c.5-.1.8-.5.7-1 0-.066.033-.1.1-.1.1.3.4.5.7.6h.4l.1-.1c.4-.1.6-.6.5-1.1l.1-.1v.1c.1.2.4.4.6.4.2.067.4.034.6-.1.4-.2.6-.8.4-1.2l.1-.1c.133.2.3.334.5.4.2 0 .5 0 .7-.2.4-.3.5-.8.2-1.2l.1-.1c.133.134.3.2.5.2.2.1.5 0 .8-.2.3-.4.3-.9 0-1.3l.1-.1c.066.067.166.134.3.2.3 0 .7-.1.9-.4.3-.4.2-.9-.2-1.2l.1-.1c.066 0 .166.034.3.1.3 0 .7-.1.9-.5.3-.4.1-.9-.3-1.2h-.1l.1-.1h.2c.4.1.8-.1 1-.5v-.1c.1-.4-.1-.9-.5-1.1Z" class="&lt;Path&gt;"/>
      </g>
      <g class="&lt;Group&gt;">
        <path fill="#FEFEFE" d="M31.12 22.315v-.1h.1c.3.1.7-.1.8-.5v-.1c.1-.3-.2-.7-.5-.8v-.1c.4 0 .7-.3.7-.6v-.1c.1-.3-.2-.7-.6-.7v-.1c.4-.1.7-.4.6-.8 0-.4-.3-.7-.7-.6 0-.066-.034-.1-.1-.1.066 0 .1-.033.1-.1.4 0 .6-.4.5-.8-.1-.4-.5-.6-.8-.5h-.1v-.1c.4-.2.6-.6.4-.9v-.1c-.1-.3-.5-.5-.9-.4v-.1c.3-.1.4-.6.3-.9h-.1c-.1-.4-.6-.5-.9-.3l-.1-.1c.4-.2.4-.7.2-1-.3-.3-.7-.4-1-.1l-.1-.1c.3-.3.3-.7 0-1-.3-.3-.7-.3-1 0l-.1-.1c.3-.3.2-.7-.1-1-.3-.2-.8-.2-1 .2l-.1-.1c.2-.3.1-.8-.3-1-.3-.1-.8 0-.9.3h-.2.1c.1-.4-.1-.8-.5-.9-.3-.2-.7 0-.9.4h-.1v-.1c.1-.3-.1-.7-.5-.8-.4-.1-.8.2-.9.5v.1l-.1-.1c0-.4-.2-.7-.6-.7-.4 0-.8.2-.8.6h-.1c0-.4-.4-.6-.7-.6h-.1c-.4 0-.6.3-.6.7l-.1.1v-.1c-.1-.3-.5-.6-.9-.5-.4.1-.6.5-.5.8v.1h-.1c-.2-.4-.6-.6-.9-.4-.4.1-.6.5-.4.9h-.2c-.1-.3-.6-.4-.9-.3v.1c-.4.1-.5.6-.3.9l-.1.1c-.2-.3-.7-.4-1-.2-.3.3-.3.7-.1 1l-.1.1c-.3-.3-.7-.3-1 0-.3.3-.3.7 0 1l-.1.1c-.3-.3-.7-.2-1 .1-.2.3-.1.8.2 1 0 .067-.034.1-.1.1-.3-.2-.8-.1-.9.3h-.1c-.1.3 0 .8.3.9v.2c-.4-.2-.8 0-.9.4-.2.3 0 .7.4.9v.1h-.1c-.3-.1-.7.1-.8.5-.1.4.2.8.6.9v.1h-.1c-.3 0-.7.2-.7.6v.1c0 .3.2.6.5.7h.2v.1h-.1c-.4 0-.6.4-.6.8 0 .3.2.5.5.6h.3v.1h-.1c-.3.1-.6.5-.5.9.1.3.3.5.6.5h.3v.1c-.4.2-.6.6-.4.9.1.3.3.4.5.5h.4v-.1.2c-.3.1-.4.6-.3.9h.1c.066.2.2.334.4.4.2 0 .366-.033.5-.1.066 0 .1.034.1.1-.3.2-.4.7-.2 1 .133.134.266.2.4.2.2.067.4.034.6-.1l.1.1c-.3.3-.3.7 0 1 .133.134.266.2.4.2.2.1.4 0 .6-.2 0 0 .032.034.1.1-.2.3-.2.7.1 1 .133.067.233.1.3.1.3.1.5 0 .7-.3l.1.1c-.2.3-.1.8.3.9v.1h.2c.3.1.6 0 .7-.3h.2c-.2.4 0 .8.4.9 0 .067.033.1.1.1.3 0 .7-.1.8-.5h.1v.1c-.1.3.2.7.5.8h.1c.3.1.7-.2.8-.5v-.1s.032.034.1.1c0 .3.2.6.5.7h.2c.3 0 .7-.2.7-.6h.1c0 .3.3.5.6.6h.2c.4 0 .7-.3.6-.7.066 0 .1-.033.1-.1v.1c.1.2.3.4.6.5h.3c.4-.1.6-.5.5-.8v-.1h.1c.1.3.3.4.5.5a.889.889 0 0 0 .4-.1h.1c.3-.1.5-.5.4-.9h-.1.2c.066.2.2.3.4.3.2.067.366.067.5 0v-.1c.4-.1.5-.6.3-.9l.1-.1v.1c.133.134.266.2.4.2.2.067.4.034.6-.1.3-.3.4-.7.1-1l.1-.1c.132.134.266.2.4.2.2.1.4 0 .6-.2.3-.3.3-.7 0-1 .066 0 .1-.033.1-.1.066.067.166.134.3.2.2 0 .5-.1.7-.3.2-.3.2-.8-.2-1l.1-.1c.066.067.133.1.2.1.3 0 .6-.1.8-.4.2-.3 0-.7-.3-.9v-.1h.1c.4.1.7-.1.8-.4v-.1c.2-.3 0-.7-.4-.9Z" class="&lt;Path&gt;"/>
      </g>
      <path fill="#6ECFF5" d="M26.52 20.515c-.7 3.1-3.8 5.1-6.9 4.4-3.1-.7-5-3.8-4.4-6.9.7-3.1 3.8-5.1 6.9-4.4 3.1.7 5.1 3.8 4.4 6.9Z" class="&lt;Path&gt;"/>
    </g>
  </g>
</svg>
