<svg xmlns="http://www.w3.org/2000/svg" width="59" height="81" fill="none" viewBox="0 0 59 81">
  <g class="5-24-ilus">
    <g class="ilustracion">
      <path fill="#1C1C1A" d="M9.1 76.791c0 2.1 8.2 3.8 18.3 3.8 10.1 0 18.2-1.7 18.2-3.8 0-2-8.1-3.7-18.2-3.7s-18.3 1.7-18.3 3.7Z" class="sombra" opacity=".2"/>
      <g class="cuerpo">
        <g class="atras capa">
          <path fill="#050505" d="m41.9 65.891-2.2.1s-10.5-1.1-13.5-1.6c-2.9-.4-5.1-4.1-5.4-9.6-.3-5.6 19.5-1.7 19.5-1.7l3 1.7-1.4 10.5" class="&lt;Path&gt;"/>
          <path fill="#050505" d="m39.7 66.192 2.2-.1v-.4l-2.2.2c-.4-.1-10.5-1.2-13.4-1.6-3-.5-5-4.2-5.3-9.6-.067-.6.167-1.1.7-1.5 3.3-2.9 17.8-.1 18.6 0l2.8 1.7-1.3 10.3.3.1 1.4-10.6-3.1-1.8h-.1c-.6-.1-15.3-3-18.9.1-.533.466-.8 1.066-.8 1.8.3 5.6 2.5 9.4 5.6 9.8 3 .4 13.4 1.6 13.5 1.6Z" class="&lt;Path&gt;"/>
        </g>
        <g class="pierna izq">
          <g class="&lt;Group&gt;">
            <g class="&lt;Group&gt;">
              <g class="&lt;Group&gt;">
                <path fill="#FEFEFE" d="M28.2 60.391 18 73.091l-7-6.1 8.4-14.9" class="&lt;Path&gt;"/>
                <path fill="#050505" d="M18 73.291h.1l.1-.1 10.1-12.7v-.2c-.1-.1-.2-.1-.3 0l-10 12.6-6.8-5.9 8.4-14.8c0-.1 0-.2-.1-.2-.1-.1-.2-.1-.2 0l-8.5 14.9c-.067.067-.067.134 0 .2l7.1 6.1.1.1Z" class="&lt;Path&gt;"/>
              </g>
            </g>
          </g>
          <g class="&lt;Group&gt;">
            <path fill="#783C18" d="M19.3 61.892c.3-4.1-2.2-5.7-2.2-5.7l-6.6 11.4s-.7 1.5-3.9.5l8.2 7c.6.4 1.4.4 1.9-.2 1.6-2.1 5.1-6.4 5.8-7.3-.7-.9-3.3-3.8-3.2-5.7Z" class="&lt;Path&gt;"/>
            <path fill="#050505" fill-rule="evenodd" d="m14.7 75.191-8.2-7c-.067-.066-.067-.133 0-.2.067-.066.133-.1.2-.1 2.9 1 3.7-.3 3.7-.4l6.6-11.3c0-.066.033-.1.1-.1h.1c.1.1 2.6 1.7 2.3 5.8-.133 1.2.9 3.034 3.1 5.5v.1c.067.067.067.134 0 .2-.7.9-4.3 5.4-5.8 7.3-.2.3-.6.5-1 .5h-.1c-.4 0-.733-.1-1-.3Zm4.4-13.4c.3-3.3-1.4-4.9-2-5.3l-6.4 11.2s-.7 1.4-3.4.7l7.7 6.5c.2.2.467.3.8.3.333-.066.6-.2.8-.4 1.4-1.9 4.8-6.1 5.7-7.2-.9-1-3.3-3.8-3.2-5.8Z" class="&lt;Compound Path&gt;" clip-rule="evenodd"/>
          </g>
          <g class="&lt;Group&gt;">
            <path fill="#FBB356" d="m21.8 67.791.3-.3c-1.733-1.733-2.733-3.333-3-4.8-.1-.5-.1-1-.1-1.4 0-.7 0-1.3-.3-2.3-.4-1.2-1.1-2-1.4-2.3l-.3.3c.3.2 1 1 1.4 2.1.2.9.2 1.6.2 2.2.1.4.1.9.2 1.4.267 1.6 1.267 3.3 3 5.1Z" class="&lt;Path&gt;"/>
          </g>
          <path fill="#050505" d="m12.5 72.992 2.3 2.1c.6.4 1.4.4 1.9-.2 1.3-1.7 3.9-4.9 5.2-6.5-.7-.7-1.9-1.9-2.4-3l-4.3 5.6s-.3.8-.8.6c-.5-.3-2.1-1.3-2.1-1.3s1 1.2 1.2 1.8c.1.4-.4.9-1 .9Zm10.4-6 6.1-7.6-9.3-7.7-1.7 3.1c.7 0 4.5 4.3 3.4 6.7 0 .066-.033.133-.1.2-.1-.9-.5-2.6-.8-2.9-.4-.4-.2.8 0 1.9.2.9.1 1.8.2 2.2-.2.3-.3.5-.3.5s1.1 2 2.5 3.6Z" class="&lt;Path&gt;" opacity=".2" style="mix-blend-mode:multiply"/>
        </g>
        <g class="pantalon">
          <g class="&lt;Group&gt;">
            <path fill="#FEFEFE" d="M18.1 51.892s-.7 3.2 1.6 5.5 11.6 3.3 15.8 3.2c4.2-.1 7-.4 7.2-2 .3-1.7.2-4.6.2-4.6l-24.8-2.1Z" class="&lt;Path&gt;"/>
            <path fill="#050505" fill-rule="evenodd" d="M19.6 57.492c-2.4-2.3-1.7-5.6-1.7-5.7.1 0 .1-.1.2-.1l24.8 2.1c.1 0 .2.1.2.2s0 3-.2 4.6c-.3 1.8-3.2 2-7.4 2.2h-.8c-4.6 0-12.9-1-15.1-3.3Zm-1.3-5.4c-.1.6-.4 3.2 1.5 5.2 2.3 2.3 11.6 3.2 15.7 3.1 3.9-.1 6.8-.3 7.1-1.9.2-1.3.1-3.7.1-4.3l-24.4-2.1Z" class="&lt;Compound Path&gt;" clip-rule="evenodd"/>
          </g>
          <path fill="#050505" d="M18.5 54.892s.2 1.3.8 2.2c0 0 2.1.9 5.2 1.2 3.1.3 6.6-1.1 10.2-.1v-1l-16.2-2.3Z" class="&lt;Path&gt;" opacity=".2" style="mix-blend-mode:multiply"/>
        </g>
        <g class="pierna derecha">
          <g class="&lt;Group&gt;">
            <g class="&lt;Group&gt;">
              <g class="&lt;Group&gt;">
                <path fill="#FEFEFE" d="m29.2 59.191-.3 14.8 9.5-.1 2.7-14.8" class="&lt;Path&gt;"/>
                <path fill="#050505" d="m28.9 74.192 9.5-.1c.133 0 .2-.067.2-.2l2.7-14.7c0-.1-.1-.2-.2-.2-.1-.1-.2 0-.2.1l-2.6 14.6-9.2.2.3-14.7c0-.1-.1-.2-.2-.2s-.2.1-.2.2l-.3 14.8c0 .066.033.133.1.2h.1Z" class="&lt;Path&gt;"/>
              </g>
            </g>
          </g>
          <g class="&lt;Group&gt;">
            <path fill="#783C18" d="M35.3 64.391c2.4-3.4 5.4-2.9 5.4-2.9l-2.3 13.1s-.4 1.7 2.7 3l-11-.6c-.7 0-1.2-.6-1.2-1.3 0-2.4.1-7.7.1-8.9 1.1-.2 5.1-.8 6.3-2.4Z" class="&lt;Path&gt;"/>
            <path fill="#050505" fill-rule="evenodd" d="m41.1 77.691-11-.5c-.8 0-1.4-.7-1.4-1.5.1-2.3.1-7.7.1-8.9.067-.133.133-.2.2-.2 3.333-.466 5.367-1.233 6.1-2.3 2.5-3.4 5.5-3 5.6-3 .067 0 .1.034.1.1.067 0 .067.034 0 .1l-2.3 13.2s-.3 1.5 2.7 2.7c.067.067.1.134.1.2-.067.067-.133.1-.2.1Zm-.6-16.1c-.7 0-3.1.1-5.1 2.9-1.2 1.6-4.9 2.2-6.2 2.4 0 1.5-.1 6.6-.1 8.8 0 .6.4 1.1 1.1 1.2l10 .4c-2.3-1.2-2-2.6-2-2.7l2.3-13Z" class="&lt;Compound Path&gt;" clip-rule="evenodd"/>
          </g>
          <path fill="#050505" d="m35.1 74.892 2.5-13.9h-.1l.4-1.9h3.2l-.4 2.4-2.3 13.1s-.4 1.7 2.7 3h-4c-2.3-1.3-2-2.7-2-2.7Z" class="&lt;Path&gt;" opacity=".2" style="mix-blend-mode:multiply"/>
          <g class="&lt;Group&gt;">
            <path fill="#FBB356" d="M29.4 67.391c2.534-.266 4.433-.9 5.7-1.9.4-.4.7-.8 1.1-1.1.4-.5.8-1 1.6-1.5 1-.7 2-.8 2.4-.8v-.4c-.4 0-1.5.2-2.6.9-.8.6-1.3 1.1-1.7 1.6-.3.3-.6.7-1 1-1.2 1-3.033 1.6-5.5 1.8v.4Z" class="&lt;Path&gt;"/>
          </g>
        </g>
        <g class="panuelo">
          <g class="&lt;Group&gt;">
            <path fill="#D8DADF" d="M22.1 36.192c-.1.4.2.6.5.7l7.9 1c.3.1.6-.1.6-.4l.8-5.5c0-.3-.2-.6-.5-.7l-7.9-1c-.3-.1-.6.1-.7.4l-.7 5.5Z" class="&lt;Path&gt;"/>
            <path fill="#050505" fill-rule="evenodd" d="m30.5 38.092-7.9-1.1c-.267 0-.433-.067-.5-.2-.133-.2-.2-.4-.2-.6l.8-5.5c0-.2.067-.367.2-.5.2-.067.4-.1.6-.1l7.9 1.1c.4 0 .7.4.6.8l-.7 5.5c0 .2-.1.366-.3.5a.888.888 0 0 1-.4.1h-.1Zm-7.3-7.6c-.133.066-.2.166-.2.3l-.7 5.5c-.067.066-.067.166 0 .3.067.066.167.1.3.1l7.9 1.1c.133 0 .233-.034.3-.1.067-.067.133-.167.2-.3l.7-5.5c0-.2-.1-.4-.3-.4l-8-1.1c-.066 0-.133.033-.2.1Z" class="&lt;Compound Path&gt;" clip-rule="evenodd"/>
          </g>
          <g class="&lt;Group&gt;">
            <path fill="#050505" d="M29.2 35.392c.067 0 .134-.034.2-.1 0-.1 0-.2-.1-.2s-1.4-.4-2.8-.8c-1.2-.4-1.9-.8-1.9-.8-.1-.1-.2-.1-.3 0 0 .1 0 .2.1.2 0 .1.7.5 2 .9 1.4.5 2.8.8 2.8.8Z" class="&lt;Path&gt;"/>
          </g>
        </g>
        <g class="torso">
          <path fill="#1965AC" d="M41.5 66.992c-.6.3-1.5-.9-1.5-2.4-.3-5.2-3.8-6.2-7.6-6.9-.7-.2-5.9.3-11.4-1-1.6-.4-3.8-2-3.8-2l.1-2.2c.1-4.1.5-10.1.4-12.2-.2-5 .5-7.7 1.6-10.2 2.2-4.9 7.8 8.8 7.8 8.8l18.4-11.9s4 1.4 1.9 15.8c-1.2 8.2-3.7 23.1-5.9 24.2Z" class="&lt;Path&gt;"/>
          <path fill="#050505" fill-rule="evenodd" d="M40.8 67.191c-.6-.4-1.1-1.5-1.1-2.6-.2-4.9-3.4-5.9-7.4-6.7h-1.1c-2 0-6 .1-10.2-.9-1.7-.5-3.8-2-3.9-2.1l-.1-.1.1-2.3c0-1.6.1-3.6.2-5.4.1-2.9.2-5.5.1-6.8-.2-5 .5-7.7 1.7-10.3.333-.8.8-1.2 1.4-1.2 2.5 0 6 7.9 6.8 9.7l18.2-11.8.1.1c.2 0 4.1 1.6 2.1 16-.6 4-1.6 9.9-2.6 14.8-1.9 8.8-3.1 9.4-3.5 9.6-.133.067-.233.1-.3.1-.133 0-.3-.033-.5-.1Zm.5-.5c.6-.2 1.7-1.8 3.3-9.2 1-4.9 1.9-10.7 2.5-14.8 1.9-12.5-1-15-1.6-15.4l-18.5 12-.1-.3c-1.1-2.7-4.4-9.7-6.4-9.7-.4 0-.733.3-1 .9-1.1 2.6-1.8 5.2-1.6 10.1.1 1.3 0 4-.1 6.8-.1 1.9-.2 3.8-.2 5.5l-.1 2c.5.3 2.2 1.5 3.6 1.8 4.2 1.1 8.2 1 10.1 1h1.2c4.1.8 7.6 1.9 7.8 7.2.1 1 .5 1.9.9 2.1.133.067.2.067.2 0Z" class="&lt;Compound Path&gt;" clip-rule="evenodd"/>
          <path fill="#050505" d="M47 30.591s1.2 4.6-.2 13c-1.5 8.3-2.3 15.8-4.2 20.7-.5 1.4-1.3 2.9-1.6.7-.4-2.3-.8-4.9-3-7.2-1.1-1.2 3.3-7.6 2.7-14-.6-6.3-3.5-8.5-3.5-8.5l9.8-4.7Zm-19.2 27.1s0-5.6.1-6.3c0-.7.5.1.3-1.9s.2-6.7.2-8.4l-1.3.4s0 1.6-.1 3.2c0 1.6-.5 12.6-.5 12.6l1.3.4Z" class="&lt;Path&gt;" opacity=".2" style="mix-blend-mode:multiply"/>
          <g class="&lt;Group&gt;">
            <path fill="#1965AC" d="m26.5 57.492.6-13.6Z" class="&lt;Path&gt;"/>
            <path fill="#050505" d="M26.5 57.791c.2 0 .3-.1.3-.3l.6-13.5c0-.2-.1-.3-.3-.3-.1 0-.2.1-.2.2l-.6 13.6c0 .1.1.3.2.3Z" class="&lt;Path&gt;"/>
          </g>
          <path fill="#050505" d="M19.1 29.991s-1.1 2.5-1.4 5.9c0 0 2.2 4.7 9.4 8.5 0 0-.1-1.3-.4-1.7-.2-.3-7-9-7.6-12.7Z" class="&lt;Path&gt;" opacity=".2" style="mix-blend-mode:multiply"/>
          <g class="botones">
            <g class="&lt;Group&gt;">
              <path fill="#FDC02E" d="M24.5 55.392c-.1.4-.5.6-.8.4-.4-.1-.6-.5-.6-.9.1-.4.5-.6.8-.5.4.2.6.6.6 1Z" class="&lt;Path&gt;"/>
              <path fill="#050505" fill-rule="evenodd" d="M23.6 55.992c-.4-.2-.7-.7-.6-1.2.067-.2.2-.367.4-.5a.5.5 0 0 1 .6 0c.4.1.7.6.6 1.1 0 .266-.1.433-.3.5a.886.886 0 0 1-.4.1h-.3Zm-.1-1.4a1.163 1.163 0 0 0-.2.3c0 .3.1.6.4.8a.888.888 0 0 0 .4-.1c.133-.067.2-.167.2-.3.1-.3-.1-.6-.4-.7h-.4Z" class="&lt;Compound Path&gt;" clip-rule="evenodd"/>
            </g>
            <g class="&lt;Group&gt;">
              <path fill="#FDC02E" d="M21.4 54.592c-.1.4-.4.6-.8.5-.3-.1-.6-.5-.6-.9.1-.4.4-.6.8-.5.3.1.6.5.6.9Z" class="&lt;Path&gt;"/>
              <path fill="#050505" fill-rule="evenodd" d="M20.6 55.291c-.5-.1-.8-.6-.7-1.1 0-.266.1-.466.3-.6.2-.133.4-.166.6-.1.5.1.8.6.8 1.1a.97.97 0 0 1-.4.6.888.888 0 0 1-.4.1h-.2Zm.1-1.4c-.133-.066-.233-.066-.3 0-.133.067-.2.2-.2.4 0 .3.2.6.5.7.134 0 .233-.033.3-.1.134-.066.2-.166.2-.3 0-.3-.2-.7-.5-.7Z" class="&lt;Compound Path&gt;" clip-rule="evenodd"/>
            </g>
            <g class="&lt;Group&gt;">
              <path fill="#FDC02E" d="M24.5 51.691c-.1.4-.5.6-.8.4-.4-.1-.6-.5-.6-.9.1-.4.5-.6.8-.4.4.1.6.5.6.9Z" class="&lt;Path&gt;"/>
              <path fill="#050505" fill-rule="evenodd" d="M23.6 52.291c-.5-.2-.7-.7-.6-1.1 0-.266.1-.466.3-.6.267-.066.5-.066.7 0 .4.2.7.7.6 1.1a.971.971 0 0 1-.4.6c-.066.067-.166.1-.3.1-.133 0-.233-.033-.3-.1Zm.7-.6c0-.3-.1-.7-.4-.8a.425.425 0 0 0-.4 0c-.133.067-.2.167-.2.3-.1.3.1.7.4.8a.425.425 0 0 0 .4 0 1.16 1.16 0 0 0 .2-.3Z" class="&lt;Compound Path&gt;" clip-rule="evenodd"/>
            </g>
            <g class="&lt;Group&gt;">
              <path fill="#FDC02E" d="M21.3 50.892c0 .4-.3.6-.7.5-.4-.1-.6-.5-.6-.9s.4-.6.7-.5c.4.1.7.5.6.9Z" class="&lt;Path&gt;"/>
              <path fill="#050505" fill-rule="evenodd" d="M20.6 51.592c-.5-.1-.8-.6-.8-1.1a.971.971 0 0 1 .4-.6c.134-.134.333-.167.6-.1.4.1.8.6.7 1.1 0 .266-.1.466-.3.6a.889.889 0 0 1-.4.1h-.2Zm-.3-1.4c-.067.066-.1.166-.1.3-.1.3.2.7.4.7a.425.425 0 0 0 .4 0c.067-.067.134-.2.2-.4 0-.3-.2-.6-.5-.7h-.1c-.067 0-.167.033-.3.1Z" class="&lt;Compound Path&gt;" clip-rule="evenodd"/>
            </g>
            <g class="&lt;Group&gt;">
              <path fill="#FDC02E" d="M24.6 45.691c-.1.4-.5.6-.8.4-.4-.1-.6-.5-.6-.9.1-.4.5-.6.8-.5.4.2.6.6.6 1Z" class="&lt;Path&gt;"/>
              <path fill="#050505" fill-rule="evenodd" d="M23.7 46.291c-.5-.2-.7-.7-.6-1.1 0-.266.1-.466.3-.6.267-.066.5-.066.7 0 .4.2.7.7.6 1.1a.972.972 0 0 1-.4.6h-.6Zm.3-1.4a.425.425 0 0 0-.4 0 1.16 1.16 0 0 0-.2.3c-.1.3.1.7.4.8h.4a1.16 1.16 0 0 0 .2-.3c0-.4-.1-.7-.4-.8Z" class="&lt;Compound Path&gt;" clip-rule="evenodd"/>
            </g>
            <g class="&lt;Group&gt;">
              <path fill="#FDC02E" d="M21.5 44.792c0 .3-.4.6-.7.5-.4-.1-.7-.5-.6-.9 0-.4.3-.6.7-.5.4.1.6.5.6.9Z" class="&lt;Path&gt;"/>
              <path fill="#050505" fill-rule="evenodd" d="M20.7 45.492c-.4-.2-.8-.6-.7-1.1 0-.267.1-.467.3-.6.2-.134.4-.167.6-.1.5.1.8.6.8 1.1-.067.2-.2.4-.4.6-.067.066-.2.1-.4.1h-.2Zm.2-1.5a.888.888 0 0 0-.4.1 1.16 1.16 0 0 0-.2.3c0 .3.2.7.5.7.133.066.233.066.3 0 .133-.067.2-.2.2-.4.1-.3-.2-.6-.4-.7Z" class="&lt;Compound Path&gt;" clip-rule="evenodd"/>
            </g>
          </g>
        </g>
        <g class="brazo izq">
          <g class="&lt;Group&gt;">
            <g class="&lt;Group&gt;">
              <g class="&lt;Group&gt;">
                <path fill="#EAC39E" d="M6 55.691c-.2-1.7-.1-2.4.9-4 .6-.9 1-.9 2-.9.5 0 2.5.6 3.5 1.6.4.4.1 1.4.3 2.1.2.4.3.6.2 1.4 0 .3-.4.6-.7.7-.4.1-.5-.4-.8-.4-.4.1-.8 1-.7 1.5.1.6-.2.8-.2.8l-2-.9s-2.4-1-2.5-1.9Z" class="&lt;Path&gt;"/>
                <g class="&lt;Group&gt;">
                  <path fill="#EAC39E" d="M12.9 54.992s.1 1.1.1 2c0 .9-.3 1.2-.4 1.5-.1.3-.6.4-.9.3-.3-.2-.4-.5-.3-1 .2-.5.3-.7.1-1.4" class="&lt;Path&gt;"/>
                  <path fill="#050505" d="M11.8 58.992h-.2c-.4-.2-.533-.6-.4-1.2 0-.067.033-.134.1-.2.1-.4.1-.5 0-1.2-.1-.1 0-.2.1-.2s.3 0 .3.1c.2.8.1 1 0 1.4 0 .066-.033.133-.1.2-.1.5.1.6.2.7h.4c.134-.067.2-.134.2-.2.067-.067.1-.134.1-.2.1-.2.3-.5.3-1.2 0-.9-.1-1.9-.1-1.9 0-.1.1-.3.2-.3s.2.1.2.2.1 1.1.1 2c0 .8-.2 1.2-.3 1.4 0 .066-.033.133-.1.2-.067.2-.2.333-.4.4-.2.066-.4.066-.6 0Z" class="&lt;Path&gt;"/>
                </g>
                <g class="&lt;Group&gt;">
                  <g class="&lt;Group&gt;">
                    <path fill="#EAC39E" d="M7.9 57.691c0 .4-.3.1-.7.1-.3 0-.6-.2-.8-.6 0 0-.7-.9-.4-3.9" class="&lt;Path&gt;"/>
                    <path fill="#050505" fill-rule="evenodd" d="M6.9 57.992c-.4-.1-.6-.5-.7-.7-.1-.1-.7-1.2-.5-4.1.1-.1.2-.2.3-.2.1 0 .2.2.2.3-.3 2.8.4 3.8.4 3.8.2.5.4.5.6.5h.5c0-.067.067-.1.2-.1.1 0 .2.1.2.2 0 .133-.033.233-.1.3-.2.2-.3.1-.5.1-.067-.067-.166-.1-.3-.1h-.3Z" class="&lt;Compound Path&gt;" clip-rule="evenodd"/>
                  </g>
                  <g class="&lt;Group&gt;">
                    <path fill="#EAC39E" d="M8.6 57.291c.1.7.2.7.2 1 0 .4-.2.7-.5.7-.4.1-.6-.2-.8-.5 0 0-.4-.5-.6-2.6" class="&lt;Path&gt;"/>
                    <path fill="#050505" d="M8 59.292c-.4-.1-.6-.5-.7-.7-.1-.1-.4-.7-.7-2.6 0-.1.1-.3.2-.3.2 0 .3.1.3.2.2 2 .6 2.4.6 2.4v.1c.2.4.4.4.5.4.3 0 .4-.2.4-.4s0-.3-.1-.4c0-.1-.1-.3-.2-.7 0-.1.1-.2.2-.2.1-.1.3 0 .3.1.1.4.1.5.2.7v.4c.1.5-.2.9-.7 1H8Z" class="&lt;Path&gt;"/>
                  </g>
                  <g class="&lt;Group&gt;">
                    <path fill="#EAC39E" d="M9.6 57.392c.2 1 .3 1.4.4 1.8 0 .4-.3.7-.6.7-.4.1-.6-.2-.8-.5 0 0-.3-.5-.5-2.6" class="&lt;Path&gt;"/>
                    <path fill="#050505" d="M9.1 60.092c-.4-.1-.6-.5-.7-.6 0-.2-.4-.8-.5-2.7-.1-.1 0-.2.2-.2.1 0 .2.1.2.2.2 1.9.5 2.4.5 2.4v.1c.3.4.4.4.6.4.2 0 .3-.2.3-.5 0-.2 0-.4-.1-.6-.1-.3-.1-.7-.2-1.2 0-.1 0-.2.2-.3.1 0 .2.1.2.2.1.5.2.9.2 1.2.1.3.2.5.2.7 0 .5-.3.9-.8 1-.067 0-.167-.034-.3-.1Z" class="&lt;Path&gt;"/>
                  </g>
                  <g class="&lt;Group&gt;">
                    <path fill="#EAC39E" d="M9.3 57.192c.2 2.1.5 2.6.5 2.6.2.4.4.6.8.6.3 0 .6-.3.5-.7-.1-1.2-.4-2.6-.3-3" class="&lt;Path&gt;"/>
                    <path fill="#050505" d="M10.3 60.592c-.3-.1-.5-.4-.7-.7 0-.1-.4-.7-.5-2.7 0-.1.1-.2.2-.3.2 0 .3.1.3.3.1 1.9.4 2.5.4 2.5.2.4.4.5.5.5.133 0 .233-.067.3-.2.1 0 .1-.1.1-.2v-.5c-.3-1.4-.4-2.3-.3-2.6 0-.1.1-.2.3-.2.1 0 .2.2.1.3 0 .2.2 1.5.3 2.4l.1.5c0 .2-.066.4-.2.6-.1.2-.4.3-.6.3-.133.066-.233.066-.3 0Z" class="&lt;Path&gt;"/>
                  </g>
                </g>
                <g class="&lt;Group&gt;">
                  <path fill="#050505" d="M10.8 56.892c-.133 0-.2-.067-.2-.2 0-.2.1-.5.4-.7.1 0 .4-.1.7.3 0 .1 0 .3-.1.3-.1.1-.2.1-.3 0-.067-.134-.1-.167-.1-.1-.1 0-.2.1-.2.2.1.1 0 .2-.1.2h-.1Z" class="&lt;Path&gt;"/>
                </g>
                <path fill="#050505" d="M12.1 57.892s.1.1.3-.4c.1-.6-.4-1.7-.7-1.3-.1 0-.1-.1-.1-.1l-.2.2c.3.8.2 1 0 1.5-.133.466-.066.766.2.9v-.1c-.2-.8.5-.7.5-.7Z" class="&lt;Path&gt;" opacity=".1"/>
                <path fill="#050505" d="M9.2 57.592s-.3 1 .2 2.4l.3-.2-.5-2.2Zm-1.3-.801s-.3 1 .3 2.4l.2-.2-.5-2.2Zm-1.3-.699s-.3.3.2 1.7l.6-.1-.8-1.6Zm-.6-2.4s.8 1.1 2.7 1.5c2.1.5 3.3-.2 3.9.2.7.3.2-.9.2-.9l-.4-1.6-5.2-.9s-.9 0-1.2 1.7Z" class="&lt;Path&gt;" opacity=".3"/>
              </g>
              <g class="&lt;Group&gt;">
                <path fill="#FEFEFE" d="m6.1 51.192-.3 1.8s1.8 1.8 4.8 1.9c3.1.1 2.6-.7 2.5-2.1-.1-1.4-7-1.6-7-1.6Z" class="&lt;Path&gt;"/>
                <path fill="#050505" fill-rule="evenodd" d="M8.9 54.892c-2-.5-3.2-1.6-3.3-1.7v-.2l.2-1.8c0-.1.1-.2.3-.2 0 0 1.7 0 3.5.2 3.3.4 3.7 1.1 3.7 1.5.067.2.1.366.1.5 0 .5.1 1-.2 1.4-.4.4-1.2.6-2.6.5-.6 0-1.167-.067-1.7-.2Zm-2.8-2c.3.4 2 1.7 4.5 1.7 1.3.1 2 0 2.2-.3.2-.2.2-.5.1-1.1v-.4c-.1-.7-3.5-1.2-6.6-1.3l-.2 1.4Z" class="&lt;Compound Path&gt;" clip-rule="evenodd"/>
              </g>
              <g class="&lt;Group&gt;">
                <path fill="#1965AC" d="m18.8 36.492-1.5 2.7c-2.7 6.6-4.3 15.7-4.3 15.7-5.3.8-7.6-2.6-7.6-2.6s1.6-8.5 4.9-16.3c3.4-7.8 7.6-8.9 7.6-8.9" class="&lt;Path&gt;"/>
                <path fill="#050505" d="M9.3 54.992c-2.8-.7-4-2.5-4.1-2.6v-.1c0-.1 1.6-8.7 4.9-16.4 3.3-7.8 7.6-9 7.7-9.1.2 0 .3.1.4.2 0 .2-.1.3-.2.4-.1 0-4.2 1.2-7.4 8.7-3.1 7.2-4.7 15.1-4.9 16.1.4.5 2.6 3.1 7.1 2.4.3-1.3 1.8-9.5 4.3-15.5v-.1s1-1.7 1.5-2.6c.1-.1.2-.2.4-.1.1.1.1.2.1.4-.5.8-1.5 2.4-1.6 2.6-2.6 6.5-4.2 15.5-4.2 15.6v.2h-.2c-1.5.3-2.8.2-3.8-.1Z" class="&lt;Path&gt;"/>
              </g>
            </g>
            <g class="&lt;Group&gt;">
              <path fill="#1965AC" d="M13.1 54.892s-2.7.5-5.2-.6-2.6-2-2.6-2l.6-2.7s1.1 1.8 3.6 2.4c2.3.6 4.1.5 4.1.5l-.5 2.4Z" class="&lt;Path&gt;"/>
              <path fill="#050505" fill-rule="evenodd" d="M9.1 54.992c-.4-.134-.833-.3-1.3-.5-2.6-1.1-2.8-2.1-2.8-2.2l.8-3.4.4.6s1 1.6 3.3 2.2c2.3.6 4.1.5 4.1.5h.3l-.5 2.9h-.2c-.1.1-2 .4-4.1-.1Zm-3.5-2.7c0 .2.4.9 2.4 1.8 2.1.9 4.3.6 4.9.5l.4-1.9c-.6 0-2.1 0-3.9-.5-1.7-.4-2.8-1.4-3.3-2l-.5 2.1Z" class="&lt;Compound Path&gt;" clip-rule="evenodd"/>
            </g>
            <g class="&lt;Group&gt;">
              <path fill="#FDC02F" d="M6 51.891c-.1.3 0 .6.3.7.2 0 .4-.2.5-.5.1-.3 0-.5-.3-.6-.2-.1-.4.1-.5.4Z" class="&lt;Path&gt;"/>
              <path fill="#050505" fill-rule="evenodd" d="M6.2 52.791c-.3-.1-.5-.5-.4-.9.1-.4.4-.7.8-.6.3.1.5.5.4.9-.1.4-.4.7-.8.6Zm.3-1.1c-.1 0-.2.1-.3.3 0 .2 0 .3.1.4.1 0 .3-.1.3-.3 0-.2 0-.4-.1-.4Z" class="&lt;Compound Path&gt;" clip-rule="evenodd"/>
            </g>
            <path fill="#050505" d="M18.8 30.992s-2.2-2.7-4.9 1.5c-2.7 4.3-5.5 14.1-5.5 14.1s-.7 2.8-.7 3.3c0 .6-.4.3-.8-.1-.4-.3-.4.5-.4.5s.3.4.7.6c.4.1-.8-.1-.8.6-.1.7-.2 1.9-.2 1.9s-1.1-.8-1-1.1c.1-.2.7-2.5.7-2.5s.2-.6.2-.8c.1-.3 2.4-8.9 3.2-10.6.8-1.7 3.4-7.6 5.1-8.8 1.7-1.2 3-2.7 3.9-2.5.9.3 2.1 1.6.5 3.9Z" class="&lt;Path&gt;" opacity=".2" style="mix-blend-mode:multiply"/>
            <path fill="#050505" d="M15.2 42.392s-.4 1.4-.8 1.1c-.4-.4-3.1-2.7-2.4-2.8.7-.1 3.3 1.1 3.2 1.7Z" class="&lt;Path&gt;" opacity=".2" style="mix-blend-mode:multiply"/>
          </g>
        </g>
        <g class="cuello izq">
          <g class="&lt;Group&gt;">
            <g class="&lt;Group&gt;">
              <path fill="#1965AC" d="m23 28.591-.9 1 .3 2s-.7 5.8 4.2 9.8c0 0 .7.9.6 2.6 0 .3-7.9-4.8-9-11.5-.1-.2.5-.7.5-.9-.1-.3-.9-.3-.9-.5-.133-.533-.233-1-.3-1.4-.6-4.5 3.5-9.6 3.6-9.3.6 1.6.1 2.9.8 5.4.1.2 1.1 2.8 1.1 2.8Z" class="&lt;Path&gt;"/>
              <path fill="#050505" fill-rule="evenodd" d="M22.8 40.892c-1.9-1.9-4.3-4.9-4.9-8.4 0-.2.1-.4.3-.6.1-.1.1-.2.2-.3h-.3c-.2-.1-.5-.2-.6-.5l-.2-1.4c-.4-2.3.5-4.7 1.4-6.3.7-1.6 1.9-3.1 2.3-3.2.1-.1.3 0 .3.1.3.8.4 1.5.4 2.4.1.8.1 1.8.5 3.1 0 .1.7 1.7 1 2.7l.1.1-.9 1.1.3 1.9v.1s-.7 5.6 4.1 9.5v.1c.1 0 .8.9.6 2.7 0 .2-.1.3-.2.3-.4 0-2.6-1.5-4.4-3.4Zm-.6-9.2-.4-2.2.9-1c-.3-.7-1-2.5-1-2.6-.4-1.4-.5-2.3-.5-3.2-.1-.7-.1-1.2-.3-1.9-.8 1-3.7 5.1-3.1 8.8l.2 1.4c.1 0 .2 0 .3.1.3 0 .5.1.6.4.1.2-.1.5-.3.7 0 .1-.1.2-.2.3.6 3.3 2.8 6.1 4.6 7.9 1.7 1.7 3.3 2.9 3.9 3.2.1-1.2-.4-1.9-.5-2-4.7-3.9-4.3-9.4-4.2-9.9Z" class="&lt;Compound Path&gt;" clip-rule="evenodd"/>
            </g>
            <g class="&lt;Group&gt;">
              <path fill="#FDC02E" d="M26.8 43.492c.067 0 .1-.034.1-.1.1-.1.1-.2 0-.2 0-.1-3.7-2.7-5.7-5.6-1.8-2.5-2.3-4.7-2.4-5.1.2-.2.7-.8.5-1.2-.1-.4-.7-.6-1-.6-.1-.5-.6-3 .4-5.2 1.1-2.5 3.1-5.2 3.1-5.2.1-.1.1-.2 0-.2-.1-.1-.2-.1-.2 0 0 0-2.1 2.7-3.2 5.2-1.2 2.7-.4 5.4-.4 5.5l.1.1.1.1c.3 0 .7.2.8.4.1.2-.2.7-.5 1v.1c0 .1.4 2.4 2.4 5.3 2.1 3 5.8 5.6 5.8 5.6 0 .066.033.1.1.1Z" class="&lt;Path&gt;"/>
            </g>
          </g>
          <g class="&lt;Group&gt;">
            <path fill="#D8DADF" d="M22.3 33.191c.3 1.4-1 1.9 3.3 7.4.1.1 2.7-.9 2.7-.9l-.3-2.6c-.1-.1-.4-.1-.6-.2-1.7-.6-3.4-4.6-3.5-4.6 0 0-.8-8.3-2.5-6.1-3 4 .6 5.6.9 7Z" class="&lt;Compound Path&gt;"/>
            <path fill="#050505" fill-rule="evenodd" d="M25.4 40.691c-3.3-4.4-3.3-5.6-3.2-6.7 0-.3 0-.5-.1-.8 0-.3-.4-.7-.7-1.1-1-1.3-2.4-3-.1-6 .267-.333.534-.466.8-.4 1.3.4 1.9 5.7 2 6.5 0 .1.1.2.3.5.5 1.1 1.8 3.6 3.1 4.1h.3c.067.067.133.1.2.1.067.067.1.134.1.2l.3 2.5c0 .134-.033.2-.1.2-1.8.8-2.4 1-2.7 1-.1 0-.1-.1-.2-.1Zm2.4-3.5h-.1c-.133-.066-.233-.1-.3-.1-1.4-.5-2.7-3-3.3-4.2-.1-.2-.2-.4-.3-.5l-.1-.1c-.2-2.3-.9-6-1.7-6.3-.133 0-.3.1-.5.3-2.1 2.8-.8 4.3.2 5.5.3.5.7.9.8 1.3v.9c0 1-.1 2.2 3.2 6.4.2 0 1.4-.4 2.4-.8l-.3-2.4Z" class="&lt;Compound Path&gt;" clip-rule="evenodd"/>
          </g>
        </g>
        <g class="cabeza">
          <g class="&lt;Group&gt;">
            <path fill="#DAB48C" d="M47.5 22.192c1-8.9-3.7-13.4-11.7-14.4-8.9-1-16.6.6-17.7 10.2 0 0 .1 3 .6 3.9l.9 4.8c1.5 5.6 3.3 5.3 8.3 5.8 3.6.4 13.6.9 16.4-2.7 2.1-2.7 2.9-7.2 2.9-7.2" class="&lt;Path&gt;"/>
            <path fill="#050505" d="m25.8 16.992-.1 7.5 1-5.1v-1.6l-.9-.8Z" class="&lt;Path&gt;" opacity=".2" style="mix-blend-mode:multiply"/>
            <path fill="#050505" d="M33.2 32.992c4.1 0 9.3-.6 11.2-3.1 2.1-2.7 3-7.1 3-7.3h-.3s-.9 4.5-3 7.1c-2.4 3.3-11.4 3.2-16.2 2.7-.4-.067-.767-.134-1.1-.2-4.1-.4-5.6-.5-7-5.5l-1-4.8v-.1c-.4-.8-.5-3.6-.5-3.8.4-3.4 1.7-6 3.8-7.7 2.9-2.3 7.4-3.1 13.7-2.3 5.9.7 12.7 3.8 11.5 14.1l.3.1c.6-4.3-.3-7.8-2.4-10.3-2.1-2.3-5.2-3.7-9.4-4.2-6.4-.8-10.9 0-13.9 2.3-2.2 1.8-3.6 4.4-3.9 8 0 .1 0 3 .5 4l1 4.7c1.4 5.3 3.1 5.5 7.2 5.9.334 0 .7.033 1.1.1.6.1 2.7.3 5.4.3Z" class="&lt;Path&gt;"/>
          </g>
          <g class="&lt;Group&gt;" opacity=".2" style="mix-blend-mode:multiply">
            <path fill="#050505" d="M35.8 17.091c-.1-.1 0 .1-.2 0-.9-.8-.7-.3-1.9-.3h-.4c-.8.1-1.2-.2-1.8.3-.3.2-.2 0-.4.3 0 .3.2 1 .5 1.3 1.5 1.1 3.8 1.1 5.2-.1.1-.1.6-.5.7-.8-.5-.7-1.6-.6-1.7-.7Zm-11.2-.599c-1.5-.9-3-.7-4.6.1 0 0-.7-.1-.5.5.1.2.2.4.3.5.1.2.2.3.4.4 1.1 1.1 2.7 1.2 4.2.3.3-.2.9-1 .9-1.2.1-.2-.2-.3-.7-.6Z" class="&lt;Path&gt;"/>
          </g>
          <g class="&lt;Group&gt;">
            <path fill="#050505" d="M33.5 7.492s-2.4-.6-5.6 1.6c-3.1 2.3-.4-3-.5-3 0-.1 5.1 0 5.1 0 .1 0 1 1.4 1 1.4Z" class="&lt;Path&gt;"/>
            <path fill="#050505" fill-rule="evenodd" d="M26.4 9.791c-.4-.4-.2-1.5.8-3.6 0-.066.033-.1.1-.1v-.1c.1-.1.1-.1 2.7-.1 1.1 0 2.5.1 2.6.1 0 0 .1 0 1 1.5l.2.3-.4-.1s-2.3-.6-5.4 1.6c-.533.4-.966.6-1.3.6-.133 0-.233-.033-.3-.1Zm6.7-2.5c-.3-.4-.5-.9-.6-1-.6 0-4.3-.1-4.9-.1-.067.067-.1.134-.1.2-1.2 2.5-1 3-.9 3.1.1 0 .3.1 1.2-.5 2.1-1.4 3.8-1.7 4.8-1.7h.5Z" class="&lt;Compound Path&gt;" clip-rule="evenodd"/>
          </g>
          <g class="&lt;Group&gt;">
            <path fill="#050505" d="M40.6 11.691s.3-.3.5 0c.3.3.2-.7.2-.7l-.6-.1-.1.8Z" class="&lt;Path&gt;"/>
            <path fill="#050505" fill-rule="evenodd" d="m40.5 10.691.9.1.1.2c0 .8-.1.9-.2.9-.1.1-.2.1-.3-.1h-.3l-.4.4.2-1.5Zm.3.3v.4h.3v-.3l-.3-.1Z" class="&lt;Compound Path&gt;" clip-rule="evenodd"/>
          </g>
          <g class="&lt;Group&gt;">
            <path fill="#050505" d="M38.6 10.291s.6.1 1 .5.2-.8.2-.8l-1.2-.1v.4Z" class="&lt;Path&gt;"/>
            <path fill="#050505" fill-rule="evenodd" d="M39.5 10.892c-.3-.3-.9-.4-.9-.4h-.2v-.2c0-.4 0-.5.2-.5 0-.1 0-.1 1.2.1h.2v.1c.1.9-.1 1-.2 1 0 .066-.033.1-.1.1s-.133-.067-.2-.2Zm-.7-.8v.1c.2 0 .6.2.9.4v-.4c-.3 0-.7-.1-.9-.1Z" class="&lt;Compound Path&gt;" clip-rule="evenodd"/>
          </g>
          <path fill="#050505" fill-rule="evenodd" d="M48.1 14.291c2.8 6.1-1.5 11.4-1.5 11.4l-2.2.8.3-1.1s.3-.9.8-1.7c-.4.4-.8.5-1.2.2-.6-.5.4-3 0-4.3-.5-.8-1.4-.1-1.4-.1.4-.6.9-.7 1.3-.7.067-.2.1-.4.1-.6-.9-.3-1.6.7-1.6.7-.1-1.1 1-1.5 1.5-1.6-1.4-.6-2.2 1.1-2.2 1 0-1.1.6-1.7 1.2-2.1-1.2-.3-1.7-1.1-1.5-1.1 1.6.2 2-1.5 1.7-2.2-.8-1.7-2.4-.1-3.4-.6 0 0 1.8-.4.8-.8-.5.7-1.8.3-1.8.3.8-.4 1.1-.6.5-1.1-.1-.1-.1-.2 0-.2-.2 0-.467-.066-.8-.2-2-.5-1.3.9-2.8.6-1.4-.2-2-1.4-2.2-1.7h-.1c-.3.1-1 .4-.7.9 0 0-1.2-.5-1.2-1.2-.067-.066-.167-.1-.3-.1-.2-.066-.367-.1-.5-.1-.5 0-1.2.2-1.7 1.2-.4.9.7 1.8 1.9 2 .2.1-3.1.6-5-.2-.3.4-1 1.4-2.2 1.7-.8.3-1.6.5-2.1.6-.6.4-1.7.1-2 1.2-.4 1.2-1.9 4.2-1.9 3.4-.2-2.5-5.9-15.3 16.2-13.4 14.8 1.2 14 9.1 14 9.1Zm-.9 5.3c-.133-.133-.267-.166-.4-.1l.2.7s-.3.2-.6.3c-.3 1-.3 2.4-.4 2.6.2-.2.4-.4.6-.4 1-.1 1.5-2.2.6-3.1Z" class="&lt;Compound Path&gt;" clip-rule="evenodd"/>
          <path fill="url(#a)" d="M35 21.991c.1 1 1.9 1.7 4.1 1.5 2.2-.2 3.8-1.2 3.7-2.3-.1-1-1.9-1.7-4.1-1.5-2.1.2-3.8 1.2-3.7 2.3Z" class="&lt;Path&gt;" opacity=".3" style="mix-blend-mode:multiply"/>
          <path fill="url(#b)" d="M18.3 19.591c-.3.6.6 1.6 1.9 2.1 1.4.5 2.7.4 2.9-.2.3-.7-.6-1.6-2-2.1-1.3-.5-2.6-.4-2.8.2Z" class="&lt;Path&gt;" opacity=".3" style="mix-blend-mode:multiply"/>
          <path fill="#050505" d="M17.3 15.691c0 .1.5 2.2-1.1 1.3 0 0 .5 1.9 1.6 1.6 1.4-.4.6-2.3.6-2.3l-1.1-.6Z" class="&lt;Path&gt;"/>
          <path fill="#050505" d="M47.2 16.392h-3.1.2s-.9 1.9-1.9 5.3c-2.1 7.7-13.3 11.2-19.6 9.2-1.1-.4-2.2-3.4-2.6-7.3-.3-3.3-1.1-9.3-1.1-10.8-.8 1.8-.7 3-1 5.2 0 0 .1 3 .6 3.9l.9 4.8c1.5 5.6 3.3 5.3 8.3 5.8 3.6.4 13.6.9 16.4-2.7 2.1-2.7 2.9-7.2 2.9-7.2l.3-.4c.2-2.2.1-4.134-.3-5.8Z" class="&lt;Path&gt;" opacity=".2" style="mix-blend-mode:multiply"/>
          <path fill="#DAB48C" d="M47.6 21.692c-.3 1.2-.9 2.3-2.4 2.1-.6 0-.3-1.3.2-2.8.5-1.4 1.3-2.5 1.9-2.3.5.2.8 1.4.3 3ZM30 8.992s.6-.8 1.8-.9c1.1-.1 5.4 2 6.3 2.5.8.5 3.6 2.2 3.7 3.2.1 1 .4 1.6-.9 1.9-1.4.4-6.9-3-6.9-3l-3.9-2.3-.1-1.4Z" class="&lt;Path&gt;"/>
          <g class="&lt;Group&gt;">
            <g class="&lt;Group&gt;">
              <path fill="#FEFEFE" d="M24.9 17.092c-.3.2-.6.3-.9.5 0-.3.1-.5.1-.8.2.1.5.2.8.3Zm-2.2.699c-.9.2-2.2-.4-2.5-1 .5-.2 1.8-.4 2.4-.3-.2.5-.3 1 .1 1.3Z" class="&lt;Path&gt;"/>
              <g class="&lt;Group&gt;">
                <g class="&lt;Group&gt;">
                  <path fill="#DAB48C" d="M31.7 16.991c1.4-.8 3.3-.7 4.4 0-1.1-.3-3.3-.4-4.4 0Z" class="&lt;Path&gt;"/>
                  <path fill="#050505" fill-rule="evenodd" d="M37.4 17.491c0 .1 0 .2.1.3-.1 0-.2.1-.3.1-.1-.1-.3-.1-.4.1-1.4 1.2-3.7 1.2-5.2 0l-.4-.4c-.2-.3-.2-.4 0-.6.6-.466 1.3-.733 2.1-.8h.4c1.2-.1 2.3.3 3.3 1.1.1.1.2.1.4.2Zm-.8.2v-.1c-.3-.3-.7-.4-1.3-.5-.1.4.2.9.1 1.2l1.2-.6Zm-.5-.7c-1.1-.7-3-.8-4.4 0 1.1-.4 3.3-.3 4.4 0Zm-4.6.3c.5.8 1.8 1.3 2.7 1.2-.6-.4-.4-.8-.1-1.4-1 0-1.6 0-2.6.2Z" class="&lt;Compound Path&gt;" clip-rule="evenodd"/>
                  <path fill="#FEFEFE" d="M36.6 17.591v.1l-1.2.6c.1-.3-.2-.8-.1-1.2.6.1 1 .2 1.3.5Zm-2.4.9c-.9.1-2.2-.4-2.7-1.2 1-.2 1.6-.2 2.6-.2-.3.6-.5 1 .1 1.4Z" class="&lt;Path&gt;"/>
                </g>
              </g>
              <path fill="#050505" d="M34.1 14.592c1-.134 1.967-.134 2.9 0 .133 0 .267.033.4.1-.8 0-1.5.1-2.3.1-1.3.2-2.5.8-3.6 1.6a1.568 1.568 0 0 1-.4.3c-.1.1-.3.1-.4 0-.1-.1-.1-.3.1-.4.9-.9 2-1.5 3.3-1.7Zm-8.7 12.3c1.5.2 3 .2 4.4-.2.1-.1.3 0 .3.1.1.2-.1.2-.2.3-.933.2-1.9.333-2.9.4l-1.6-.2c-.1 0-.3-.1-.3-.2 0-.2.2-.2.3-.2Zm1.2-8.3c.1-.8-.3-1.2-.8-1.6 0-.067-.033-.1-.1-.1-.1-.1-.1-.2-.1-.3.1-.1.3 0 .4 0 .7.6 1.1 1.2.9 2.3-.3 1.7-.5 3.4-.7 5.2-.2.8-.1.8.7.9h.2c.1 0 .2-.1.3-.2.1-.3.4-.5.8-.5h.3c.2 0 .4-.1.4-.3 0-.1.1-.2.2-.3.1.1.2.2.2.3 0 .4-.167.6-.5.6-.2.066-.4.1-.6.1-.3 0-.5.1-.5.4 0 .2-.1.3-.3.3-.466 0-.933-.034-1.4-.1-.1 0-.2-.1-.2-.3-.1-.1-.1-.3-.1-.5 0 0 .3-2.4.5-3.6.134-.8.267-1.567.4-2.3Z" class="&lt;Path&gt;"/>
              <path fill="#050505" fill-rule="evenodd" d="M20.1 16.192c1.5-.8 3.1-.8 4.6.2 1 .6.7.8 0 1.2-1.5 1-3.4.8-4.5-.2-.2-.1-.3-.3-.4-.4-.1-.1-.2.3-.3.1-.2-.6.6-.9.6-.9Zm4.8.9c-.3-.1-.6-.2-.8-.3 0 .3-.1.5-.1.8.3-.2.6-.3.9-.5Zm-1.3-.6c-.7-.1-2.9.1-3.4.3.3.6 1.6 1.2 2.5 1-.4-.3.6-.8.9-1.3Zm-3.3-.1c.7-.1 1.8-.2 2.3-.2.4.1 1.3.2 1.8.3-1-.5-2.2-1-4.1-.1Z" class="&lt;Compound Path&gt;" clip-rule="evenodd"/>
              <path fill="#050505" d="M21.5 14.392c1.5 0 2.9.4 4.3 1.2l-1.6-.4c-1.2-.3-2.3-.3-3.5 0-.5.1-1.3.4-1.3.9 0 .1-.1.2-.1.3 0 0-.3-.8-.1-1.2.3-.5 2.3-.8 2.3-.8Z" class="&lt;Path&gt;"/>
            </g>
            <path fill="#DAB48C" d="M20.3 16.392c.7-.1 1.8-.2 2.3-.2.4.1 1.3.2 1.8.3-1-.5-2.2-1-4.1-.1Z" class="&lt;Path&gt;"/>
            <path fill="#050505" d="M24.2 17.192c0 .5-.5.9-1 .9s-.9-.4-.9-.9.4-.9.9-.9 1 .4 1 .9Z" class="&lt;Path&gt;"/>
            <path fill="#401215" d="M23.9 17.192c0 .3-.3.6-.7.6-.3 0-.6-.3-.6-.6s.3-.6.6-.6c.4 0 .7.3.7.6Z" class="&lt;Path&gt;"/>
            <path fill="#050505" d="M23.4 17.192c0 .1-.1.2-.2.2s-.2-.1-.2-.2.1-.2.2-.2.2.1.2.2Zm-1.4-.7s2.3.1 2.9.6c.6.5-.1-.5-.1-.5l-2.4-.3-.4.2Z" class="&lt;Path&gt;"/>
            <path fill="#FEFEFE" d="M23.7 17.291c0 .067-.033.1-.1.1s-.1-.033-.1-.1l.1-.1.1.1Z" class="&lt;Path&gt;"/>
            <path fill="#050505" d="M35.6 17.692c0 .5-.4.9-1 .9-.5 0-.9-.4-.9-.9 0-.4.4-.8.9-.8.6 0 1 .4 1 .8Z" class="&lt;Path&gt;"/>
            <path fill="#401215" d="M35.3 17.692c0 .4-.3.7-.7.7-.3 0-.6-.3-.6-.7 0-.3.3-.6.6-.6.4 0 .7.3.7.6Z" class="&lt;Path&gt;"/>
            <path fill="#050505" d="M34.9 17.692c0 .2-.2.3-.3.3-.1 0-.2-.1-.2-.3 0-.1.1-.2.2-.2s.3.1.3.2Z" class="&lt;Path&gt;"/>
            <path fill="#FEFEFE" d="M35.1 17.892c0 .066-.033.1-.1.1s-.1-.034-.1-.1c0-.067.033-.1.1-.1s.1.033.1.1Z" class="&lt;Path&gt;"/>
          </g>
          <path fill="#050505" d="M31.9 10.492c-.3-.5.4-.7.8-.8.2.3.7 1.5 1.9 1.9 1.5.4.9-1 2.8-.2.334.133.6.2.8.2-.1 0-.2.1 0 .3.5.5.2.7-.6.9-.1 0 1.1.5 1.7 0 .9.5-.8.6-.8.6.9.7 2.6-.7 3.1 1.1.3.6-.3 2.3-1.9 1.9-.1-.1.3.7 1.3 1.2.6.2 1.2.133 1.8-.2.5-.4 3-4 .9-6.3-2.1-2.2-8.7-5.2-8.8-5.2-.2-.1-5.6 1.5-5.6 1.5s0 2.2-.2 2.7c.3-.7 1-1.2 1.7-1-.1.8 1.1 1.4 1.1 1.4Z" class="&lt;Compound Path&gt;"/>
          <g class="&lt;Group&gt;" opacity=".2" style="mix-blend-mode:multiply">
            <path fill="#050505" d="M27.5 28.791c.3 0 .8 0 1.2-.2.1-.1.1-.2.1-.2-.067-.066-.133-.1-.2-.1-.6.4-2 .2-2 .2-.067-.066-.133-.066-.2 0 0 .1 0 .2.1.2 0 0 .4.1 1 .1Z" class="&lt;Path&gt;"/>
          </g>
        </g>
        <g class="brazo der">
          <g class="&lt;Group&gt;">
            <g class="&lt;Group&gt;">
              <path fill="#EAC39E" d="M51.4 58.792c.6-1.6.7-2.3.1-4.1-.3-1-.8-1-1.7-1.3-.5-.1-2.6 0-3.8.7-.5.3-.4 1.4-.8 2-.3.4-.4.5-.6 1.3 0 .3.3.7.6.8.3.2.6-.2.9-.1.3.1.5 1.1.3 1.6-.3.6 0 .8 0 .8l2.1-.4s2.5-.4 2.9-1.3Z" class="&lt;Path&gt;"/>
              <g class="&lt;Group&gt;">
                <path fill="#EAC39E" d="M44.9 56.592s-.4 1-.6 1.9c-.2.9 0 1.2 0 1.5 0 .3.5.6.9.5.3-.1.5-.3.4-.9 0-.5 0-.7.3-1.4" class="&lt;Path&gt;"/>
                <path fill="#050505" d="M45 60.692h.2c.467-.067.7-.434.7-1.1 0-.067-.033-.1-.1-.1 0-.4 0-.6.3-1.2.1-.1 0-.2-.1-.3-.1 0-.2 0-.3.1-.3.7-.3 1-.3 1.4v.1c0 .6-.2.7-.3.7-.1 0-.3 0-.4-.1-.133-.067-.2-.134-.2-.2v-.2c-.1-.3-.2-.6 0-1.3.2-.8.6-1.8.6-1.9 0-.1-.1-.2-.2-.2-.1-.1-.2 0-.3.1 0 0-.3 1-.5 1.9-.2.8-.1 1.2 0 1.5v.1c0 .2.1.366.3.5.2.133.4.2.6.2Z" class="&lt;Path&gt;"/>
              </g>
              <g class="&lt;Group&gt;">
                <g class="&lt;Group&gt;">
                  <path fill="#EAC39E" d="M49.1 60.392c-.1.3.3.1.6.2.4.1.7 0 1-.4 0 0 .9-.7 1.3-3.7" class="&lt;Path&gt;"/>
                  <path fill="#050505" fill-rule="evenodd" d="M49.7 60.792h-.3c-.2 0-.4 0-.5-.1a.425.425 0 0 1 0-.4c0-.1.1-.2.3-.2.067.066.1.133.1.2.2 0 .3 0 .5.1.2 0 .4.1.7-.3 0-.1.9-.8 1.3-3.7 0-.1.1-.2.2-.2.2.1.3.2.2.3-.3 2.9-1.2 3.8-1.4 3.9-.1.1-.4.5-.8.5-.133 0-.233-.034-.3-.1Z" class="&lt;Compound Path&gt;" clip-rule="evenodd"/>
                </g>
                <g class="&lt;Group&gt;">
                  <path fill="#EAC39E" d="M48.5 59.792c-.3.6-.3.6-.5.9-.1.4.1.7.4.9.3.1.6-.1.9-.4 0 0 .5-.4 1.2-2.3" class="&lt;Path&gt;"/>
                  <path fill="#050505" d="M48.6 61.792c.4 0 .7-.3.8-.4.2-.1.7-.6 1.3-2.4.1-.2 0-.3-.1-.3-.1-.1-.3 0-.3.1-.7 1.8-1.1 2.2-1.1 2.2h-.1c-.3.4-.5.4-.6.3-.2 0-.3-.3-.2-.5 0-.1 0-.2.1-.3.1-.2.2-.3.3-.6.1-.1.1-.3-.1-.3-.1-.1-.2 0-.3.1-.1.3-.2.4-.3.5 0 .2-.1.3-.2.5-.1.4.1.9.5 1.1h.3Z" class="&lt;Path&gt;"/>
                </g>
                <g class="&lt;Group&gt;">
                  <path fill="#EAC39E" d="M47.5 59.592c-.4 1-.6 1.3-.8 1.7-.1.4.1.7.4.9.3.1.6-.1.9-.4 0 0 .5-.4 1.1-2.4" class="&lt;Path&gt;"/>
                  <path fill="#050505" d="M47.3 62.392c.4 0 .7-.3.8-.5.2-.1.6-.6 1.2-2.4.1-.1 0-.3-.1-.3s-.2 0-.3.2c-.6 1.8-1.1 2.2-1.1 2.2-.3.4-.5.4-.6.3-.2 0-.3-.3-.2-.5 0-.2.1-.4.2-.6.2-.3.3-.6.5-1.1.1-.1 0-.2-.1-.3-.1 0-.2 0-.3.1-.2.5-.3.8-.5 1.1-.1.2-.2.4-.3.7-.1.4.1.9.5 1.1h.3Z" class="&lt;Path&gt;"/>
                </g>
                <g class="&lt;Group&gt;">
                  <path fill="#EAC39E" d="M47.8 59.492c-.6 2-1.1 2.4-1.1 2.4-.3.4-.5.6-.8.4-.4-.1-.6-.4-.4-.8.4-1.1 1-2.4 1-2.8" class="&lt;Path&gt;"/>
                  <path fill="#050505" d="M46.1 62.592c.3 0 .6-.2.8-.5.1-.1.5-.7 1.1-2.5.1-.2 0-.3-.1-.3-.1-.1-.3 0-.3.1-.6 1.9-1 2.4-1 2.4h-.1c-.2.4-.4.4-.6.3-.067 0-.133-.067-.2-.2-.1-.1-.1-.2 0-.3l.1-.4c.6-1.3.9-2.2.9-2.5 0-.1-.1-.2-.2-.2s-.2.1-.2.2c0 .3-.5 1.5-.9 2.3l-.2.5c-.067.2-.033.4.1.6.1.2.3.4.5.5h.3Z" class="&lt;Path&gt;"/>
                </g>
              </g>
              <g class="&lt;Group&gt;">
                <path fill="#050505" d="M46.5 58.892c.067 0 .133-.034.2-.1.1-.2 0-.6-.2-.8-.1-.1-.4-.2-.7.1-.1.1-.1.2-.1.3.1.1.3.1.4 0 .067-.067.1-.067.1 0 0 0 .1.1.1.2-.1.1 0 .2.1.3h.1Z" class="&lt;Path&gt;"/>
              </g>
              <path fill="#050505" d="M44.9 59.592s-.1 0-.1-.5c0-.6.8-1.6 1-1.1l.1-.1.1.2c-.4.8-.4 1-.4 1.5.067.466-.067.766-.4.9l.1-.1c.4-.8-.4-.8-.4-.8Z" class="&lt;Path&gt;" opacity=".1"/>
              <path fill="#050505" d="M47.9 59.992s0 1-.8 2.2l-.3-.3 1.1-1.9Zm1.4-.5s0 1-.8 2.2l-.2-.3 1-1.9Zm1.4-.4s.3.4-.6 1.6l-.5-.2 1.1-1.4Zm1.2-2.1s-1.1.8-3 .7c-2.2 0-3.2-.9-3.9-.7-.6.2.1-.9.1-.9l.7-1.5 5.4.4s.8.2.7 2Z" class="&lt;Path&gt;" opacity=".3"/>
            </g>
            <g class="&lt;Group&gt;">
              <path fill="#FEFEFE" d="m52.4 54.491-.2 1.8s-2.1 1.3-5.1.7c-3-.7-2.3-1.4-1.9-2.7.4-1.3 7.2.2 7.2.2Z" class="&lt;Path&gt;"/>
              <path fill="#050505" fill-rule="evenodd" d="M47.1 57.191c-1.4-.3-2.1-.6-2.4-1.1-.2-.4-.1-.9.1-1.5l.2-.4c.1-.4.7-.9 4-.5 1.7.2 3.4.6 3.5.6.1 0 .2.1.1.2l-.1 1.8-.2.2s-1.4.9-3.5.9a7.81 7.81 0 0 1-1.7-.2Zm5.1-2.5c-3.1-.7-6.5-1-6.8-.3a.888.888 0 0 1-.1.4c-.2.5-.3.8-.2 1.1.2.3.9.6 2.1.8 2.4.6 4.4-.3 4.8-.5l.2-1.5Z" class="&lt;Compound Path&gt;" clip-rule="evenodd"/>
            </g>
            <g class="&lt;Group&gt;">
              <path fill="#1965AC" d="M43.5 37.191c.3 1 .8 2.9.8 2.9 1.1 7.1.5 16.3.5 16.3 5 2 8-.7 8-.7s.4-8.6-.9-17c-1.4-8.4-5.3-10.5-5.3-10.5" class="&lt;Path&gt;"/>
              <path fill="#050505" d="M48.4 57.392c2.8 0 4.4-1.5 4.5-1.5l.1-.1v-.1c0-.1.5-8.8-.9-17-1.4-8.4-5.2-10.6-5.4-10.7-.1-.1-.3 0-.3.1-.1.1-.1.3.1.4 0 0 3.7 2.1 5.1 10.2 1.3 7.8 1 15.8.9 16.8-.5.5-3.2 2.4-7.5.7.1-1.4.5-9.7-.4-16.1v-.1s-.6-1.9-.9-2.9c0-.1-.2-.2-.3-.2-.1.1-.2.2-.2.4.3.9.8 2.7.9 2.9 1 6.9.4 16.1.4 16.2v.1l.2.1c1.4.6 2.6.8 3.7.8Z" class="&lt;Path&gt;"/>
            </g>
          </g>
          <g class="&lt;Group&gt;">
            <path fill="#1965AC" d="M44.7 56.392s2.5 1.1 5.2.6c2.7-.4 3-1.3 3-1.3v-2.8s-1.5 1.5-4 1.5c-2.4 0-4.1-.5-4.1-.5l-.1 2.5Z" class="&lt;Path&gt;"/>
            <path fill="#050505" fill-rule="evenodd" d="m44.6 56.592-.2-.1.1-3 .4.1s1.6.6 4 .5c2.4 0 3.8-1.3 3.8-1.3l.5-.5v3.5c-.1.1-.5 1-3.3 1.5-.466.066-.933.1-1.4.1-2.1 0-3.9-.8-3.9-.8Zm8-3.1c-.6.4-1.9 1.2-3.7 1.2-1.8 0-3.3-.3-3.9-.5l-.1 2c.6.2 2.7 1 5 .6 2.1-.4 2.6-1 2.7-1.1v-2.2Z" class="&lt;Compound Path&gt;" clip-rule="evenodd"/>
          </g>
          <g class="&lt;Group&gt;">
            <path fill="#FDC02F" d="M52.3 55.191c0 .3-.2.6-.4.6-.3 0-.4-.3-.4-.6s.1-.6.4-.6c.2 0 .4.3.4.6Z" class="&lt;Path&gt;"/>
            <path fill="#050505" fill-rule="evenodd" d="M51.2 55.191c0-.4.3-.8.7-.8.3 0 .6.4.6.8s-.3.8-.6.8c-.4 0-.7-.4-.7-.8Zm.5 0c0 .2.1.3.2.3s.2-.1.2-.3c0-.2-.1-.3-.2-.3s-.2.1-.2.3Z" class="&lt;Compound Path&gt;" clip-rule="evenodd"/>
          </g>
          <path fill="#050505" d="M44.8 31.791s2.8-2 4.4 2.7c1.7 4.7 2 14.9 2 14.9s0 2.9-.1 3.5c-.1.5.4.3.8 0 .5-.2.3.5.3.5s-.4.4-.8.4c-.5.1.8.1.6.8-.1.7-.2 2-.2 2s1.2-.6 1.2-.8v-2.7s-.1-.6-.1-.8c0-.3-.2-9.2-.6-11-.4-1.9-1.5-8.3-2.9-9.8-1.4-1.6-2.2-3.3-3.2-3.3-.9 0-2.4 1-1.4 3.6Z" class="&lt;Path&gt;" opacity=".2" style="mix-blend-mode:multiply"/>
          <path fill="#050505" d="M45.6 43.792s.1 1.4.5 1.2c.5-.3 3.6-1.9 3-2.2-.6-.2-3.5.4-3.5 1Z" class="&lt;Path&gt;" opacity=".2" style="mix-blend-mode:multiply"/>
        </g>
        <g class="cuello der">
          <g class="&lt;Group&gt;">
            <path fill="#FEFEFE" d="M46.6 27.492s-.6.7-3 1c-2.1.3-4.5.7-5.1 1-1.3.5-.9 2-2.4 2.6-1.4.5-6.8-.8-8.8 1.2-2.4 2.3-1.3 7.2-1.3 7.2l21.7-10-1.1-3Z" class="&lt;Path&gt;"/>
            <path fill="#050505" fill-rule="evenodd" d="M25.9 40.691v-.1c-.1-.2-1.1-5 1.3-7.4 1.3-1.3 4.1-1.2 6.2-1.2 1.2.1 2.2.1 2.7-.1.7-.2.9-.7 1.2-1.2.2-.6.5-1.1 1.1-1.4.6-.2 3.1-.7 5.2-.9 2.2-.3 2.9-1 2.9-1 .067-.066.133-.1.2-.1s.1.034.1.1l1.1 3c0 .1 0 .2-.1.2l-21.7 10.1h-.2Zm20.7-12.9c-.4.2-1.2.7-3 .9-2.1.3-4.5.7-5 .9-.6.3-.8.7-1 1.2-.3.5-.6 1.1-1.4 1.5-.6.2-1.6.1-2.8.1-2.1-.1-4.7-.2-5.9 1-2.1 2-1.5 5.9-1.4 6.9l21.4-9.9-.9-2.6Z" class="&lt;Compound Path&gt;" clip-rule="evenodd"/>
          </g>
          <path fill="#050505" d="M26.6 39.992s-.5-4 1.3-5.7c1.9-1.7 4.1-.9 4.1-.9s-2.6-.3-3.1 1.5 1.3.7 1.3.7l2.9-1.7-.1-.4s1.4-.2 2.4-.4c1.1-.2-.5 1.7-.5 1.7l-8.3 5.2Zm11.5-8.3s.2-1.2 1-1.5c.9-.4 3.3-.7 3.3-.7l-3.6 2.5-.7-.3Z" class="&lt;Path&gt;" opacity=".2" style="mix-blend-mode:multiply"/>
          <g class="&lt;Group&gt;">
            <g class="&lt;Group&gt;">
              <g class="&lt;Group&gt;">
                <path fill="#1965AC" d="M37.1 38.492c.3-.1-.5-2.2-.2-2.3.3-.2 1.3 1.3 1.6 1.2 3.1-.8 6.4-3.1 9.2-5.9.8-.9.7-2.9-.5-4.1-.5-.5-7.3 2.8-12.6 6.2-5.4 3.3-9.2 6.8-9.2 6.8s-.1-.1.6.8c.8 1 1.1 1 1.1 1s4.1-1 10-3.7Z" class="&lt;Path&gt;"/>
                <path fill="#050505" fill-rule="evenodd" d="M27.1 42.492c-.1 0-.5-.2-1.3-1.2-.2-.2-.333-.367-.4-.5l-.2-.2c-.1-.2 0-.3.1-.4.6-.6 4.3-3.8 9.1-6.9 2.5-1.5 5.5-3.2 8.2-4.5 4.3-2.1 4.6-1.8 4.8-1.6 1.2 1.3 1.5 3.4.5 4.5-3 3-6.4 5.2-9.3 6-.3 0-.6-.2-1.1-.7-.1-.2-.3-.3-.4-.5 0 .3.1.6.2.8.2.8.3 1.3-.1 1.4-5.9 2.8-10 3.8-10 3.8h-.1Zm9.7-5.1c-.2-.8-.3-1.3 0-1.5.4-.1.7.2 1.1.7l.6.6c2.9-.8 6.2-2.9 9-5.9.7-.8.7-2.5-.4-3.7-.9-.1-7.1 2.9-12.3 6.2-4.6 2.9-8.1 5.9-9 6.7.133.066.3.233.5.5.5.7.8.9.9.9.5-.1 4.4-1.1 9.8-3.6 0-.2-.1-.6-.2-.9Z" class="&lt;Compound Path&gt;" clip-rule="evenodd"/>
              </g>
              <g class="&lt;Group&gt;">
                <path fill="#FDC02E" d="M27.2 41.992s3.7-.8 9.6-3.5c.2-.1.1-.6 0-1.2-.1-.4-.3-1.3-.2-1.4.5-.2.9.3 1.3.7.3.3.5.5.7.5 2.8-.7 5.9-2.8 8.9-6.1h.1s1-1.5-.6-3.4c0-.1-.1-.1-.2 0-.1 0-.1.1 0 .2 1.3 1.7.6 2.9.5 3-3 3.2-6 5.2-8.8 5.9-.1 0-.2-.2-.4-.3-.4-.5-.9-1.1-1.6-.8-.4.2-.2.9-.1 1.7.1.3.2.7.2.9-5.4 2.4-8.8 3.3-9.4 3.5-.1-.2-.5-.6-1.1-1.4-.1 0-.2-.1-.3 0-.1.1-.1.2 0 .2l1.2 1.5h.2Z" class="&lt;Path&gt;"/>
              </g>
            </g>
          </g>
        </g>
      </g>
    </g>
  </g>
  <defs>
    <radialGradient id="a" cx="0" cy="0" r="1" class="a" gradientTransform="matrix(3.90002 0 0 3.90005 38.9 21.591)" gradientUnits="userSpaceOnUse">
      <stop stop-color="#F5A2B8"/>
      <stop offset="1" stop-color="#fff"/>
    </radialGradient>
    <radialGradient id="b" cx="0" cy="0" r="1" class="b" gradientTransform="matrix(2.60002 0 0 2.59997 20.7 20.491)" gradientUnits="userSpaceOnUse">
      <stop stop-color="#F5A2B8"/>
      <stop offset="1" stop-color="#fff"/>
    </radialGradient>
  </defs>
</svg>
