<svg xmlns="http://www.w3.org/2000/svg" width="82" height="42" fill="none" viewBox="0 0 82 42">
  <g class="5-25-texto">
    <g class="texto">
      <g class="&lt;Group&gt;">
        <path fill="#ED4592" d="M80.59 23.937 1.553 25.468l.482-5.156 78.332-1.574.223 5.199Z" class="&lt;Path&gt;"/>
      </g>
      <g class="&lt;Group&gt;">
        <path fill="#FEFEFE" fill-rule="evenodd" d="M6.7 7.39c1.005.018 2.118.128 1.589 3.483-.363 2.939-1.45 3.128-2.954 3.15l-.498.04.966-6.6.897-.073Zm-.242.722-.79 5.081c1.412.086 1.597-1.334 1.707-2.447.118-1.013.478-2.748-.917-2.634Z" class="&lt;Compound Path&gt;" clip-rule="evenodd"/>
        <path fill="#FEFEFE" d="m9.346 13.997-.805-.035.966-6.6.806.034-.967 6.6Zm.543-6.867-.423-.267.9-1.277.43.366L9.89 7.13Z" class="&lt;Compound Path&gt;"/>
        <path fill="#FEFEFE" fill-rule="evenodd" d="m12.72 7.4.338 6.595-.805-.035-.106-1.295-1.204-.002-.393 1.336-.905-.027 2.37-6.614.706.042Zm-.504 3.654.013-2.309-1.036 3.295 1.005.019.018-1.005Zm4.616-3.688c.996-.081 2.11.029 1.58 3.383-.354 3.039-1.45 3.128-2.854 3.142l-.598.05.966-6.601.906.026Zm-.242.722-.782 5.181c1.404-.014 1.589-1.434 1.699-2.547.126-.913.478-2.748-.917-2.634Z" class="&lt;Compound Path&gt;" clip-rule="evenodd"/>
        <path fill="#FEFEFE" d="m21.84 7.259-.135.813-1.403.014-.236 2.026 1.204.002-.135.814-1.204-.002-.32 2.233 1.404-.014-.142.714-2.2.08.966-6.601 2.2-.08Zm2.806-.029-.824 5.887 1.404-.014-.143.713-2.2.08.966-6.6.797-.066Z" class="&lt;Compound Path&gt;"/>
        <path fill="#FEFEFE" fill-rule="evenodd" d="m27.96 7.261.337 6.594-.805-.034-.106-1.296-1.204-.002-.393 1.336-.805-.034 2.27-6.607.706.043Zm-.505 3.653.013-2.309-1.036 3.296 1.005.018.018-1.005Z" class="&lt;Compound Path&gt;" clip-rule="evenodd"/>
      </g>
      <g class="&lt;Group&gt;">
        <g class="&lt;Group&gt;">
          <path fill="#FEFEFE" fill-rule="evenodd" d="M10.295 26.862 7.39 26.9l-1.375-2.095-.2.016-.236 2.026-2.4.095 1.036-8.211 3.305-.07s.1-.007.606.052c.407.067.714.142 1.145.508.523.259.755.641.912 1.33.093.328.123.693.09 1.097-.175 1.151-.738 2.033-1.691 2.646l1.714 2.57Zm-3.992-5.895-.177 1.52.905.026c.465-.038.712-.292.74-.762.06-.507-.164-.79-.563-.757l-.905-.027Z" class="&lt;Compound Path&gt;" clip-rule="evenodd"/>
          <path fill="#FEFEFE" d="m14.018 20.84-.035.805 3.106-.052-.228 2.125-3.106.053-.142.714 3.405-.077-.311 2.333-5.714.065 1.036-8.212 5.705-.164-.311 2.333-3.405.077Zm8.502 5.828-2.408-.005-1.871-8.175 2.6-.111.904 4.943 2.201-4.996 2.508-.004-3.934 8.348Z" class="&lt;Compound Path&gt;"/>
          <path fill="#FEFEFE" fill-rule="evenodd" d="M30.549 18.087c1.14.04 2.078.465 2.813 1.275.668.815.949 1.795.842 2.941-.169 1.218-.688 2.23-1.558 3.037-.932.879-1.999 1.334-3.2 1.365-1.14-.041-2.078-.466-2.813-1.276-.668-.815-.916-1.798-.742-2.95.101-1.212.62-2.224 1.558-3.036.865-.873 1.898-1.325 3.1-1.357Zm-.792 6.285c.465-.038.884-.24 1.255-.604.438-.37.669-.824.692-1.361.09-.543-.015-1.002-.313-1.38a1.53 1.53 0 0 0-1.153-.608c-.466.038-.884.24-1.255.604a2.401 2.401 0 0 0-.692 1.361c-.09.543.015 1.002.313 1.38.298.376.683.58 1.153.608Z" class="&lt;Compound Path&gt;" clip-rule="evenodd"/>
          <path fill="#FEFEFE" d="m38.18 18.166-.724 5.879 3.305-.07-.211 2.326-5.714.064.936-8.203 2.409.004Zm6.389 8.208c-.1.008-.2.016-.706-.043-.407-.067-.814-.134-1.245-.5-.53-.358-.763-.74-.927-1.53-.094-.327-.126-.725-.098-1.196l.59-5.065 2.409.005-.59 5.064s-.092.108.024.3c.01.132.052.23.124.29.116.191.331.374.639.45a.96.96 0 0 0 .673-.356c.188-.15.31-.293.366-.431l.075-.307.69-5.073 2.309.012-.599 4.965c-.126.913-.46 1.743-.925 2.183l-.749.663c-.764.463-1.562.528-1.96.56l-.1.009Zm13.136-3.781c-.317 1.03-.914 1.914-1.79 2.655-.881.674-1.823 1.018-2.825 1.033-1.202.031-2.137-.36-2.805-1.176-.669-.815-.952-1.829-.85-3.04.168-1.219.687-2.23 1.558-3.038.937-.812 1.973-1.23 3.108-1.257 1.069-.02 1.932.311 2.59.993.718.61 1.087 1.45 1.108 2.518l-2.508.004a1.743 1.743 0 0 0-.572-.856.95.95 0 0 0-.83-.334 1.756 1.756 0 0 0-1.362.513 2.35 2.35 0 0 0-.584 1.452c-.09.543.015 1.002.313 1.38.298.376.68.546 1.145.508a1.93 1.93 0 0 0 .972-.38c.316-.227.558-.548.724-.963l2.608-.012Zm.385 3.481 1.027-8.311 2.408.004-1.036 8.211-2.4.096Z" class="&lt;Compound Path&gt;"/>
          <path fill="#FEFEFE" fill-rule="evenodd" d="M66.824 17.535c1.135-.026 2.07.366 2.805 1.176.668.815.918 1.831.75 3.049-.107 1.146-.626 2.158-1.558 3.037-.87.807-1.907 1.226-3.108 1.257-1.135.025-2.07-.367-2.805-1.176-.668-.815-.952-1.829-.85-3.041.173-1.151.726-2.166 1.658-3.045.87-.807 1.907-1.226 3.108-1.257Zm-.8 6.186c.47.028.89-.173 1.255-.604.372-.365.603-.819.692-1.361.09-.543-.015-1.002-.313-1.38-.299-.376-.68-.546-1.145-.508-.47-.028-.89.173-1.255.604a2.401 2.401 0 0 0-.692 1.361c-.09.543.015 1.002.313 1.38.298.376.68.546 1.145.508Zm1.955-6.782-2.308-.012 1.332-2.115 2.7-.12-1.724 2.247Z" class="&lt;Compound Path&gt;" clip-rule="evenodd"/>
          <path fill="#FEFEFE" d="m79.057 17.44-.928 8.303-2.21-.02-2.094-3.542-.405 3.645-2.408-.004 1.035-8.211 2.102-.071 2.094 3.54.513-3.552 2.3-.088Z" class="&lt;Compound Path&gt;"/>
        </g>
      </g>
      <g class="&lt;Group&gt;">
        <path fill="#ED4592" d="M59.36 35.502 4.888 36.834l.184-5.132 54.164-1.409.124 5.207Z" class="&lt;Path&gt;"/>
      </g>
      <g class="&lt;Group&gt;">
        <g class="&lt;Group&gt;">
          <path fill="#FEFEFE" fill-rule="evenodd" d="m6.987 37.968 1.036-8.211 3.106-.053c1.202-.031 2.1.33 2.697 1.084.668.815.916 1.798.742 2.95-.101 1.212-.59 2.188-1.466 2.928a4.111 4.111 0 0 1-2.91 1.241l-3.205.06Zm3.025-5.966-.405 3.645.798-.065c.47.029.858-.137 1.163-.496.305-.36.472-.774.5-1.245.09-.542.022-.971-.205-1.288-.232-.382-.58-.554-1.045-.516l-.806-.035Z" class="&lt;Compound Path&gt;" clip-rule="evenodd"/>
          <path fill="#FEFEFE" d="m18.126 31.842-.035.806 3.107-.053-.229 2.125-3.205.061-.043.706 3.405-.077-.311 2.333-5.714.065 1.036-8.212 5.714-.064-.312 2.333-3.413-.023Zm10.829 4.836-.606-.051-1.2-2.41-.421 3.445-2.31-.012.937-8.204 2.209.02 1.656 3.076 2.347-3.201 2.2-.08-1.027 8.312-2.408-.005.421-3.445-1.798 2.555Z" class="&lt;Compound Path&gt;"/>
          <path fill="#FEFEFE" fill-rule="evenodd" d="m39.78 29.172 1.88 8.275-2.508.004-.173-.889-2.6.112-.333.83-2.608.012 3.942-8.248 2.4-.096Zm-2.392 5.112 1.105.01-.346-1.778-.758 1.768Z" class="&lt;Compound Path&gt;" clip-rule="evenodd"/>
          <path fill="#FEFEFE" d="m45.463 37.337-2.408-.004.379-2.74-2.25-5.435 2.707-.02 1.017 2.626 1.79-2.654 2.608-.012-3.564 5.508-.279 2.731Z" class="&lt;Compound Path&gt;"/>
          <path fill="#FEFEFE" fill-rule="evenodd" d="M53.3 28.872c1.136-.025 2.071.366 2.806 1.176.669.815.952 1.829.85 3.041-.174 1.151-.693 2.164-1.558 3.037-.938.812-2.007 1.234-3.208 1.265-1.135.026-2.07-.366-2.805-1.176-.668-.815-.919-1.831-.75-3.05.107-1.145.626-2.157 1.558-3.036.87-.807 1.906-1.226 3.108-1.257Zm-.799 6.186c.47.028.89-.173 1.255-.604.438-.37.669-.824.692-1.361.09-.543-.015-1.002-.313-1.38-.298-.376-.68-.546-1.145-.508-.471-.028-.892.14-1.263.505a2.967 2.967 0 0 0-.684 1.46c-.09.542.015 1.002.313 1.38.298.376.68.546 1.145.508Z" class="&lt;Compound Path&gt;" clip-rule="evenodd"/>
        </g>
      </g>
    </g>
  </g>
</svg>
