<svg xmlns="http://www.w3.org/2000/svg" width="57" height="21" fill="none" viewBox="0 0 57 21">
  <g class="6-20-texto">
    <g class="&lt;Group&gt;">
      <g class="&lt;Group&gt;">
        <path fill="#20B04B" d="M56.3 10.1 1.6 19.3l-.3-4.8 54.4-9.2.6 4.8Z" class="&lt;Path&gt;"/>
      </g>
      <g class="&lt;Group&gt;">
        <g class="&lt;Group&gt;">
          <path fill="#FEFEFE" fill-rule="evenodd" d="M.9 3.6c.9-.2 2-.3 2.1 2.9C3 9.4 2.1 9.7.6 9.9l-.5.1L0 3.8l.9-.2Zm-.1.7.1 4.8c1.3-.2 1.2-1.4 1.2-2.5 0-1 .1-2.6-1.3-2.3Z" class="&lt;Compound Path&gt;" clip-rule="evenodd"/>
          <path fill="#FEFEFE" d="m3.9 2.8-.4-.2.6-1.3.5.2-.7 1.3Zm.6 6.5-.8.1-.1-6.2.8-.2.1 6.3Z" class="&lt;Compound Path&gt;"/>
          <path fill="#FEFEFE" fill-rule="evenodd" d="m6.6 2.6 1.4 6-.8.2L7 7.6l-1.2.2-.2 1.3-.8.1L6 2.7l.6-.1Zm0 3.5-.3-2.2-.5 3.2 1-.1-.2-.9Zm4-4.2c1-.2 2.1-.3 2.1 2.9.1 2.9-.9 3.2-2.3 3.4l-.6.1-.1-6.2.9-.2Zm-.1.7.1 4.8c1.4-.2 1.3-1.5 1.3-2.5-.1-1 0-2.6-1.4-2.3Z" class="&lt;Compound Path&gt;" clip-rule="evenodd"/>
          <path fill="#FEFEFE" d="M15.5 1v.8l-1.4.2v2l1.3-.2v.7l-1.2.2v2.1l1.4-.2v.7l-2.2.4-.1-6.3 2.2-.4Zm2.7-.4v5.5l1.4-.2v.7l-2.1.4-.2-6.3.9-.1Z" class="&lt;Compound Path&gt;"/>
          <path fill="#FEFEFE" fill-rule="evenodd" d="m21.3 0 1.4 6-.8.2-.2-1.2-1.2.2-.2 1.3-.8.1L20.7.1l.6-.1Zm0 3.5L21 1.3l-.5 3.3 1-.2-.2-.9Z" class="&lt;Compound Path&gt;" clip-rule="evenodd"/>
        </g>
        <g class="&lt;Group&gt;">
          <g class="&lt;Group&gt;">
            <path fill="#FEFEFE" fill-rule="evenodd" d="m3.1 20.6-.2-7.7 3.3-.6H7c.333.067.6.133.8.2.2.067.4.233.6.5.2.267.3.6.3 1 .067.6-.1 1.133-.5 1.6.6.333.9.833.9 1.5.067 1.6-.933 2.567-3 2.9l-3 .6Zm2.1-5 .9-.2c.1 0 .3-.1.3-.4 0-.3-.2-.4-.3-.4l-1 .2.1.8Zm.1 2.5 1-.2c.333-.066.467-.233.4-.5 0-.2-.1-.3-.4-.3l-1 .2v.8Zm9-7.2 3 7.2-2.4.5-.3-.8-2.4.4-.3.9-2.4.4 2.5-8.2 2.3-.4Zm-1.5 5 1-.1-.5-1.6-.5 1.7Z" class="&lt;Compound Path&gt;" clip-rule="evenodd"/>
            <path fill="#FEFEFE" d="m24.4 9.2.3 7.7-2.1.3-2.5-2.9.1 3.3-2.2.4-.2-7.7 2-.3 2.5 2.9-.1-3.3 2.2-.4Z" class="&lt;Compound Path&gt;"/>
            <path fill="#FEFEFE" fill-rule="evenodd" d="M25.9 16.7 25.6 9l3-.5c1.133-.2 2.066 0 2.8.6.666.667 1.033 1.533 1.1 2.6 0 1.133-.334 2.1-1 2.9a4.141 4.141 0 0 1-2.6 1.6l-3 .5Zm2-5.9.1 3.3.8-.1a1.58 1.58 0 0 0 1-.6c.267-.4.4-.833.4-1.3-.067-.466-.233-.833-.5-1.1-.267-.333-.6-.433-1-.3l-.8.1Z" class="&lt;Compound Path&gt;" clip-rule="evenodd"/>
            <path fill="#FEFEFE" d="M35.6 9.5v.7l3-.5v2l-2.9.5v.6l3.2-.5.1 2.2-5.5.9-.2-7.7 5.4-.9.1 2.1-3.2.6Z" class="&lt;Compound Path&gt;"/>
            <path fill="#FEFEFE" fill-rule="evenodd" d="m46.7 13.1-2.7.5-1.6-1.7-.2.1.1 1.9-2.3.4-.2-7.7 3.1-.5s.1-.1.6 0c.4 0 .7 0 1.2.2.4.2.8.5 1 1.1.133.333.2.7.2 1.1.067 1.067-.3 1.9-1.1 2.5l1.9 2.1ZM42 8.4l.1 1.4.8-.1c.4-.067.6-.333.6-.8 0-.5-.3-.7-.6-.7l-.9.2Zm9.8-3.8 3 7.2-2.4.4-.3-.8-2.4.4-.3.9-2.4.4 2.6-8.2 2.2-.3Zm-1.6 5.1 1.1-.2-.6-1.5-.5 1.7Z" class="&lt;Compound Path&gt;" clip-rule="evenodd"/>
          </g>
        </g>
      </g>
    </g>
  </g>
</svg>
