<svg xmlns="http://www.w3.org/2000/svg" width="80" height="40" fill="none" viewBox="0 0 80 40">
  <path fill="#5A50A2" d="M79.3 12.7.4 18.4 0 13.8l79.1-5.7.2 4.6Z"/>
  <path fill="#FEFEFE" fill-rule="evenodd" d="M30 1.8c.9 0 1.9-.1 1.6 2.8-.2 2.6-1.1 2.8-2.4 2.9h-.5l.5-5.6.8-.1Zm-.2.6-.3 4.4c1.2-.1 1.2-1.2 1.3-2.2.1-.9.3-2.3-1-2.2Z" clip-rule="evenodd"/>
  <path fill="#FEFEFE" d="m32.7 7.2-.7.1.4-5.7h.8l-.5 5.6Zm.1-5.9-.4-.2.7-1.1.5.3-.8 1Z"/>
  <path fill="#FEFEFE" fill-rule="evenodd" d="M35.3 1.4 36 7l-.8.1-.1-1.1H34l-.3 1.2H33l1.7-5.7.6-.1ZM35 4.5l-.1-2-.7 2.9.9-.1-.1-.8Zm3.9-3.3c.9-.1 1.9-.1 1.7 2.8-.3 2.6-1.1 2.8-2.5 2.9h-.5l.5-5.6.8-.1Zm-.1.6-.4 4.4c1.2-.1 1.3-1.2 1.3-2.2.1-.9.3-2.4-.9-2.2Z" clip-rule="evenodd"/>
  <path fill="#FEFEFE" d="m43.4.9-.1.6-1.2.1-.2 1.8 1.1-.1V4h-1.2l-.1 2 1.2-.1v.6l-2 .2.5-5.7 2-.1Zm2.4-.2-.4 5 1.2-.1v.7l-2 .1.5-5.6.7-.1Z"/>
  <path fill="#FEFEFE" fill-rule="evenodd" d="m48.7.5.7 5.6h-.7L48.6 5l-1.1.1-.3 1.1-.8.1L48.1.6l.6-.1Zm-.2 3.1-.1-2h-.1l-.7 2.9.9-.1v-.8ZM12.6 23.4c.9 0 1.9-.1 1.6 2.8-.2 2.6-1.1 2.8-2.4 2.9h-.5l.5-5.6.8-.1Zm-.2.6-.3 4.4c1.2-.1 1.2-1.2 1.3-2.2.1-.9.3-2.4-1-2.2Z" clip-rule="evenodd"/>
  <path fill="#FEFEFE" d="M17 23.1v.7h-1.3l-.1 1.8 1.1-.1-.1.7-1.1.1-.1 1.9 1.2-.1-.1.6-1.9.2.4-5.7 2-.1ZM2.1 19.6l.5-7.4 2.2-.1-.5 7.4-2.2.1Zm10.4-8.1-.5 7.4-2 .2L7.8 16l-.2 3.2-2.2.2.5-7.4 2-.2 2.2 3.1.2-3.2 2.2-.2Zm2.7 1.9-2 .2.1-2.1 6.3-.5-.2 2.1-2 .2-.4 5.3-2.2.1.4-5.3Zm7.3-.5-.1.7 2.9-.2-.1 1.9-2.9.2-.1.6 3.2-.2-.2 2.1-5.3.4.5-7.4 5.3-.4-.1 2.1-3.1.2Zm9.6 0c-.267-.334-.533-.533-.8-.6a3.72 3.72 0 0 0-.9-.1 2.068 2.068 0 0 0-1.2.6c-.333.4-.533.833-.6 1.3 0 .467.133.867.4 1.2.334.333.7.467 1.1.4.333 0 .6-.067.8-.2.2-.133.334-.233.4-.3l.1-.2-1.4.1.1-1.8 3.8-.2-.1 1.5c-.1.8-.5 1.5-.9 1.9a3.14 3.14 0 0 1-.8.6c-.267.2-.5.333-.7.4a9.56 9.56 0 0 1-.7.2c-.2.067-.366.1-.5.1H30c-1.133.067-2.033-.233-2.7-.9-.666-.667-.966-1.533-.9-2.6.067-1.133.5-2.067 1.3-2.8.8-.8 1.733-1.233 2.8-1.3 1.467-.133 2.567.4 3.3 1.6l-1.7 1.1Z"/>
  <path fill="#FEFEFE" fill-rule="evenodd" d="m41.2 16.9-2.7.2-1.4-1.8-.2.1-.1 1.8-2.2.2.5-7.4 3-.3c.1 0 .2 0 .6.1.4 0 .8.1 1.2.4.4.2.7.5.9 1.1.067.333.1.667.1 1-.066 1.067-.533 1.867-1.4 2.4l1.7 2.2Zm-4-5-.1 1.4.8-.1c.4 0 .633-.233.7-.7 0-.5-.2-.7-.6-.7l-.8.1Zm9.7-2.8 2.2 7.2-2.4.2-.2-.7-2.4.1-.3.8-2.3.2 3.2-7.6 2.2-.2ZM45 13.8l.9-.1-.3-1.5-.6 1.6Z" clip-rule="evenodd"/>
  <path fill="#FEFEFE" d="M57.2 12.7a5.073 5.073 0 0 1-1.5 2.4 4.17 4.17 0 0 1-2.6 1.1c-1.067.067-1.933-.233-2.6-.9-.733-.733-1.067-1.633-1-2.7.067-1.067.5-2 1.3-2.8.8-.733 1.767-1.167 2.9-1.3.933-.067 1.733.2 2.4.8.667.533 1.067 1.267 1.2 2.2l-2.4.2a1.28 1.28 0 0 0-.5-.8c-.267-.2-.567-.3-.9-.3-.467.067-.833.267-1.1.6-.333.4-.533.833-.6 1.3 0 .467.133.867.4 1.2.267.333.633.467 1.1.4.267 0 .567-.133.9-.4.267-.2.467-.467.6-.8l2.4-.2Zm.6 3 .5-7.4 2.2-.1-.5 7.4-2.2.1Z"/>
  <path fill="#FEFEFE" fill-rule="evenodd" d="M65.4 7.7c1.067-.067 1.967.233 2.7.9.667.733.967 1.633.9 2.7-.067 1.067-.5 2-1.3 2.8a4.33 4.33 0 0 1-2.9 1.3c-1.067.067-1.933-.233-2.6-.9-.667-.733-.967-1.633-.9-2.7.067-1.067.5-2 1.3-2.8.733-.8 1.667-1.233 2.8-1.3Zm-.4 5.6c.467 0 .833-.2 1.1-.6.333-.333.534-.767.6-1.3 0-.467-.133-.867-.4-1.2-.267-.267-.633-.4-1.1-.4-.4.067-.767.267-1.1.6-.333.333-.533.767-.6 1.3 0 .467.133.867.4 1.2.267.333.633.467 1.1.4Zm1.5-6.2-2.2.2 1.1-2.1 2.5-.1-1.4 2Z" clip-rule="evenodd"/>
  <path fill="#FEFEFE" d="m76.8 7.1-.5 7.4-2 .1-2.1-3.1-.3 3.3-2.1.1.5-7.4 2-.1 2.1 3 .2-3.2 2.2-.1Z"/>
  <path fill="#5A50A2" d="m72 24.3-53 3.5-.5-4.5 53.3-3.6.2 4.6Z"/>
  <path fill="#FEFEFE" fill-rule="evenodd" d="m25.6 21.4 2.2 7.2-2.4.2-.2-.8-2.4.2-.3.8-2.4.1 3.2-7.6 2.3-.1Zm-1.9 4.7 1-.1-.4-1.5-.6 1.6Z" clip-rule="evenodd"/>
  <path fill="#FEFEFE" d="m32.6 27.4-.5.1-1.3-2.2-.2 3.1-2.2.2.6-7.4 2-.2 1.6 2.7 2-2.9 2.1-.2-.5 7.4-2.2.2.2-3.1-1.6 2.3Zm7.3-4.9-.1.7 2.9-.2-.1 1.9-2.9.2v.6l3.1-.2-.2 2.1-5.3.3.5-7.4 5.4-.3-.2 2-3.1.3Zm1.7-2.8-2.2.2 1.1-2.1 2.5-.2-1.4 2.1Z"/>
  <path fill="#FEFEFE" fill-rule="evenodd" d="m50.2 27-2.6.2-1.4-1.7H46l-.2 1.8-2.1.2.5-7.4 3-.2h.6c.4.1.7.1 1.1.4.4.2.7.6.9 1.2.067.267.1.6.1 1-.066 1-.533 1.767-1.4 2.3l1.7 2.2Zm-4-5-.1 1.4.9-.1c.4 0 .6-.233.6-.7 0-.4-.2-.7-.5-.6h-.9Z" clip-rule="evenodd"/>
  <path fill="#FEFEFE" d="m50.9 27 .5-7.4 2.2-.2-.6 7.4-2.1.2ZM62 23.1a5.073 5.073 0 0 1-1.5 2.4 4.17 4.17 0 0 1-2.6 1.1c-1.066.133-1.933-.167-2.6-.9-.733-.667-1.066-1.533-1-2.6.134-1.067.567-2 1.3-2.8a4.33 4.33 0 0 1 2.9-1.3c.934-.067 1.734.166 2.4.7.667.6 1.067 1.367 1.2 2.3l-2.4.1a1.28 1.28 0 0 0-.5-.8 1.082 1.082 0 0 0-.9-.2c-.4 0-.766.167-1.1.5-.333.4-.533.833-.6 1.3 0 .466.134.867.4 1.2.267.333.634.5 1.1.5.267-.067.567-.2.9-.4a2.66 2.66 0 0 0 .6-.9l2.4-.2Z"/>
  <path fill="#FEFEFE" fill-rule="evenodd" d="m67.3 18.5 2.2 7.2-2.4.2-.2-.8-2.4.2-.3.8-2.4.1 3.3-7.6 2.2-.1Zm-2 4.7 1-.1-.4-1.5-.6 1.6Z" clip-rule="evenodd"/>
  <path fill="#5A50A2" d="m57.8 35-41.5 3.2-.5-4.5 41.9-3.2.1 4.5Z"/>
  <path fill="#FEFEFE" d="m20.6 31.9-.3 5.4 3.1-.3-.2 2.1-5.3.4.5-7.4 2.2-.2Z"/>
  <path fill="#FEFEFE" fill-rule="evenodd" d="m29.2 31.4 2.2 7.2-2.4.1-.2-.7-2.4.1-.3.8-2.4.2 3.2-7.6 2.3-.1Zm-1.9 4.7 1-.1-.4-1.5-.6 1.6Z" clip-rule="evenodd"/>
  <path fill="#FEFEFE" d="m32.8 33.2-2 .1.2-2.1 6.2-.4-.1 2.1-2.1.1-.3 5.3-2.2.2.3-5.3Zm4.8 4.9.5-7.4 2.2-.1-.6 7.4-2.1.1ZM48 30l-.6 7.4-2 .2-2.1-3.1-.2 3.2-2.2.2.5-7.4 2-.1 2.1 3 .3-3.2L48 30Z"/>
  <path fill="#FEFEFE" fill-rule="evenodd" d="m53.6 29.7 2.2 7.2-2.4.1-.2-.7-2.4.1-.3.8-2.4.2 3.2-7.6 2.3-.1Zm-1.9 4.7 1-.1-.4-1.5-.6 1.6Z" clip-rule="evenodd"/>
</svg>
