<svg xmlns="http://www.w3.org/2000/svg" width="70" height="46" fill="none" viewBox="0 0 70 46">
  <path fill="#21B04B" d="m61.3 21.804-42.4 3.3-.4-4.1 42.4-3.3.4 4.1Zm8.1-9.4-59.2 5.3-.5-4.1 59.3-5.3.4 4.1Z"/>
  <path fill="#FEFEFE" d="m27.7 2.204-.3 4.6 1.1-.1v.6l-1.9.1.4-5.2h.7Zm3.2-.3v.6l-1.2.1-.1 1.6 1-.1v.6l-1 .1-.2 1.8 1.2-.1-.1.6-1.8.2.4-5.2 1.8-.2Zm.7-.1.5 2.4.1-.7.6-1.8h.7l-1.1 3-.2 2.2-.7.1.2-2.2-.8-2.9.7-.1Zm3.9 1.2-.1 1.8-.1 1.9h-.7l.4-5.2h.6l1 3.8v-2.1l.1-1.8.7-.1-.4 5.2-.6.1-.9-3.9h-.1l.1.3Zm2.1 3.1c0-.2.2-.4.4-.4.2-.1.4.1.4.3 0 .3-.2.5-.4.5-.3 0-.4-.2-.4-.4Z"/>
  <path fill="#FEFEFE" fill-rule="evenodd" d="M39.9 2.504c-.1.4-.1 1.5-.8 1.6-.7 0-.6-1-.6-1.5.1-.5.1-1.6.8-1.6.7-.1.6 1 .6 1.5Zm-.6-1.2c-.3.1-.3.6-.4 1.3 0 .6-.1 1.1.2 1.1.3 0 .4-.6.4-1.2s.1-1.2-.2-1.2Z" clip-rule="evenodd"/>
  <path fill="#FEFEFE" d="m43.3.804-.3 5.2h-.7l.3-4.6-.5.1.1-.6 1.1-.1Z"/>
  <path fill="#FEFEFE" fill-rule="evenodd" d="m46.2 3.804.4-.1-.1.5-.3.1-.1 1.4-.7.1.1-1.5-1.3.2v-.6l1.6-3.3.7-.1-.3 3.3Zm-.6-2.1-.9 2.2h.8l.1-2.2Z" clip-rule="evenodd"/>
  <path fill="#FEFEFE" d="M47.1 1.904c0-.8.2-1.5 1.2-1.6.8-.1 1.1.4 1 1.2 0 .7-.6 1.9-1 2.6l-.5.9 1.2-.2v.6l-2.3.2 1.5-2.7c.2-.5.4-1 .4-1.4.1-.3 0-.6-.4-.6s-.4.8-.4 1l-.1.2h-.6v-.2Z"/>
  <path fill="#FEFEFE" fill-rule="evenodd" d="M51.9 2.604c-.1.8-.2 2.7-1.4 2.8-1.2.1-1-1.8-1-2.6.1-.8.2-2.6 1.4-2.8 1.2-.1 1 1.8 1 2.6Zm-1.1-1.9c-.4 0-.5 1-.6 2.1-.1 1-.1 2 .4 1.9.4 0 .5-1 .6-2 .1-1.1.1-2.1-.4-2Z" clip-rule="evenodd"/>
  <path fill="#FEFEFE" d="m64.6 25.204.5 2.3.2-.7.5-1.7h.7l-1.1 2.9-.2 2.1-.6.1.1-2.2-.8-2.7.7-.1Zm-51.3-11.6-.1.6 2.6-.2-.1 1.7-2.6.2v.6l2.8-.3-.1 1.9-4.7.4.3-6.6 4.7-.4-.1 1.9-2.7.2Z"/>
  <path fill="#FEFEFE" fill-rule="evenodd" d="m16.7 18.004.3-6.6 2.6-.2c.933-.067 1.7.166 2.3.7.534.6.8 1.366.8 2.3-.066.933-.4 1.733-1 2.4a4.137 4.137 0 0 1-2.4 1.2l-2.6.2Zm2.1-4.9-.1 2.8h.7c.334-.067.634-.234.9-.5.2-.267.3-.633.3-1.1.067-.4 0-.7-.2-.9-.2-.267-.5-.4-.9-.4l-.7.1Z" clip-rule="evenodd"/>
  <path fill="#FEFEFE" d="M26 17.304h-.6c-.3-.1-.6-.1-1.1-.4-.4-.2-.6-.5-.8-1.1a4.21 4.21 0 0 1-.1-1l.2-4 1.9-.1-.2 4s0 .1.1.3c0 .067.034.133.1.2.1.1.3.3.6.2a.68.68 0 0 0 .5-.2 1.6 1.6 0 0 0 .3-.4v-.3l.2-4 2-.1-.2 3.9c-.1.8-.3 1.4-.7 1.8-.133.2-.3.366-.5.5-.6.5-1.3.6-1.6.7H26Zm10.5-3.8c-.2.8-.633 1.5-1.3 2.1-.6.666-1.333 1.033-2.2 1.1-1 .067-1.8-.2-2.4-.8-.6-.6-.9-1.367-.9-2.3.067-1 .467-1.833 1.2-2.5.667-.733 1.467-1.133 2.4-1.2.867-.067 1.6.133 2.2.6.6.467.967 1.1 1.1 1.9l-2.1.2c-.066-.267-.233-.5-.5-.7-.2-.133-.467-.2-.8-.2-.4.067-.733.267-1 .6-.267.267-.4.633-.4 1.1-.067.4.033.767.3 1.1.267.267.6.367 1 .3.267 0 .533-.1.8-.3.2-.267.367-.533.5-.8l2.1-.2Z"/>
  <path fill="#FEFEFE" fill-rule="evenodd" d="m41.1 9.304 2.1 6.3-2.1.2-.2-.6-2.1.1-.3.7-2.1.2 2.8-6.7 1.9-.2Zm-1.7 4.1.9-.1-.3-1.3-.6 1.4Z" clip-rule="evenodd"/>
  <path fill="#FEFEFE" d="M50.3 12.304c-.2.8-.633 1.5-1.3 2.1-.667.6-1.4.933-2.2 1-1 .133-1.8-.1-2.4-.7-.6-.6-.9-1.4-.9-2.4.067-.933.433-1.767 1.1-2.5.733-.667 1.567-1.067 2.5-1.2.867-.067 1.6.133 2.2.6.6.533.967 1.2 1.1 2l-2.1.2c-.133-.334-.3-.567-.5-.7-.267-.2-.533-.267-.8-.2-.4 0-.733.167-1 .5a2.43 2.43 0 0 0-.5 1.2c0 .4.133.733.4 1s.6.4 1 .4c.267 0 .533-.133.8-.4.2-.2.367-.467.5-.8l2.1-.1Zm.6 2.6.3-6.5 1.9-.2-.3 6.6-1.9.1Z"/>
  <path fill="#FEFEFE" fill-rule="evenodd" d="M57.5 7.704c.934-.067 1.7.2 2.3.8.667.6.967 1.367.9 2.3-.066.933-.433 1.767-1.1 2.5-.666.733-1.5 1.133-2.5 1.2-.933.067-1.7-.2-2.3-.8-.666-.6-.966-1.367-.9-2.3.067-.934.434-1.767 1.1-2.5.667-.734 1.5-1.133 2.5-1.2Zm-.3 5c.4-.067.734-.267 1-.6.334-.334.5-.7.5-1.1 0-.467-.133-.833-.4-1.1-.2-.267-.5-.367-.9-.3-.4 0-.733.166-1 .5-.333.333-.5.7-.5 1.1 0 .466.134.833.4 1.1.2.267.5.4.9.4Zm1.3-5.5-2 .1 1-1.8 2.2-.2-1.2 1.9Z" clip-rule="evenodd"/>
  <path fill="#FEFEFE" d="m67.6 6.904-.4 6.6-1.7.1-2-2.6-.1 2.8-1.9.2.3-6.6 1.7-.1 2 2.7.1-2.9 2-.2Z"/>
  <path fill="#21B04B" d="m62.7 30.304-49.7 5-.5-4.3 49.8-4.8.4 4.1Z"/>
  <path fill="#FEFEFE" d="M19 31.304c-.2-.333-.433-.534-.7-.6-.2-.067-.467-.067-.8 0-.4 0-.733.166-1 .5-.333.333-.5.733-.5 1.2 0 .4.1.733.3 1 .267.266.6.4 1 .4.267-.067.5-.134.7-.2.2-.134.333-.267.4-.4v-.1l-1.2.1.1-1.5 3.3-.3v1.3c-.1.7-.5 1.4-.8 1.7-.2.2-.433.4-.7.6-.2.133-.4.233-.6.3l-.6.2c-.2.067-.367.1-.5.1h-.2c-.933.133-1.733-.1-2.4-.7-.6-.6-.867-1.4-.8-2.4 0-.933.367-1.767 1.1-2.5.667-.667 1.5-1.067 2.5-1.2 1.267-.067 2.233.4 2.9 1.4l-1.5 1.1Z"/>
  <path fill="#FEFEFE" fill-rule="evenodd" d="m27.1 34.604-2.3.2-1.3-1.5h-.2v1.7l-2 .1.4-6.5 2.6-.3c.1 0 .2 0 .5.1.4 0 .7.1 1.1.3.3.2.6.5.8 1 .067.267.1.566.1.9-.067.933-.467 1.633-1.2 2.1l1.5 1.9Zm-3.6-4.4-.1 1.2h.7c.4-.067.6-.3.6-.7 0-.4-.2-.6-.5-.5h-.7Zm8.6-2.6 2 6.4-2.1.2-.2-.7-2.1.2-.2.7-2.1.2 2.7-6.8 2-.2Zm-1.6 4.2.8-.1-.3-1.3-.5 1.4Z" clip-rule="evenodd"/>
  <path fill="#FEFEFE" d="m35.4 29.204-1.8.2.1-1.9 5.5-.5-.1 1.9-1.8.1-.2 4.7-2 .2.3-4.7Zm6.9 4.2h-.6c-.3-.1-.7-.1-1.1-.4-.4-.2-.6-.5-.8-1.1-.133-.267-.167-.6-.1-1l.2-3.9 1.9-.2-.2 4v.3l.2.2c.1.1.3.3.6.2a.68.68 0 0 0 .5-.2 1.57 1.57 0 0 0 .3-.4v-.3l.2-4 1.9-.1-.2 3.9c0 .8-.2 1.4-.6 1.8-.133.2-.3.367-.5.5-.6.5-1.3.6-1.6.7h-.1Zm3.7-.5.3-6.5 1.9-.2-.3 6.6-1.9.1Zm4.7-5.1-1.8.2.1-1.9 5.5-.5-.1 1.9-1.8.2-.2 4.7-1.9.1.2-4.7Z"/>
  <path fill="#FEFEFE" fill-rule="evenodd" d="m58.1 25.304 2 6.4-2.1.2-.2-.7-2.1.2-.2.7-2.1.2 2.7-6.8 2-.2Zm-1.6 4.2.9-.1-.4-1.3-.5 1.4Z" clip-rule="evenodd"/>
  <path fill="#21B04B" d="m66 38.304-65.5 6.1-.5-4.1 65.6-6 .4 4Z"/>
  <path fill="#FEFEFE" fill-rule="evenodd" d="M5.1 38.204c.933-.067 1.733.2 2.4.8.6.6.867 1.367.8 2.3 0 .933-.367 1.767-1.1 2.5-.667.733-1.5 1.133-2.5 1.2-.933.067-1.7-.2-2.3-.8-.667-.6-.967-1.367-.9-2.3.067-.934.433-1.767 1.1-2.5.667-.734 1.5-1.134 2.5-1.2Zm-.3 4.9c.4 0 .733-.167 1-.5.333-.334.5-.7.5-1.1 0-.467-.1-.834-.3-1.1-.267-.267-.6-.4-1-.4a1.58 1.58 0 0 0-1 .6c-.333.333-.5.7-.5 1.1 0 .466.133.833.4 1.1.267.267.567.366.9.3Zm4.3 1.4.3-6.6 2.8-.2c.067 0 .167-.034.3-.1.067 0 .233.033.5.1l.6.2c.2.133.367.3.5.5.133.266.2.567.2.9 0 .467-.2.9-.6 1.3.534.333.767.8.7 1.4-.066 1.333-1 2.067-2.8 2.2l-2.5.3Zm2.1-2 .8-.1c.267 0 .4-.1.4-.3 0-.267-.133-.367-.4-.3h-.8v.7Zm.1-2.1.8-.1c.1 0 .3-.1.3-.4 0-.2-.1-.3-.2-.3l-.9.1v.7Z" clip-rule="evenodd"/>
  <path fill="#FEFEFE" d="m17.4 37.204-.2 4.7 2.7-.2-.1 1.8-4.7.4.4-6.5 1.9-.2Zm3.1 6.3.3-6.6 1.9-.2-.3 6.6-1.9.2Zm8-4.8c-.2-.334-.433-.534-.7-.6-.2-.067-.467-.067-.8 0-.4 0-.767.166-1.1.5-.267.333-.4.7-.4 1.1-.067.466.033.833.3 1.1.267.267.6.4 1 .4.267-.067.5-.133.7-.2.2-.133.333-.267.4-.4v-.1l-1.2.1.1-1.6 3.3-.3v1.4c-.1.7-.5 1.4-.8 1.7-.2.2-.433.4-.7.6-.2.133-.4.233-.6.3l-.6.2c-.2.066-.367.1-.5.1h-.2c-.933.133-1.733-.1-2.4-.7-.6-.6-.867-1.4-.8-2.4 0-.934.367-1.767 1.1-2.5.667-.667 1.5-1.067 2.5-1.2 1.267-.067 2.233.4 2.9 1.4l-1.5 1.1Z"/>
  <path fill="#FEFEFE" fill-rule="evenodd" d="m34.7 35.704 2.1 6.3-2.1.2-.2-.7-2.1.2-.3.7-2.1.2 2.7-6.8 2-.1Zm-1.6 4.2.9-.1-.4-1.3-.5 1.4Z" clip-rule="evenodd"/>
  <path fill="#FEFEFE" d="m38 37.204-1.8.2.1-1.9 5.5-.5-.1 1.9-1.8.1-.2 4.7-2 .2.3-4.7Z"/>
  <path fill="#FEFEFE" fill-rule="evenodd" d="M45.4 34.604c1-.067 1.8.2 2.4.8.6.6.9 1.366.9 2.3-.067.933-.433 1.767-1.1 2.5-.733.733-1.567 1.133-2.5 1.2-1 .066-1.8-.2-2.4-.8-.6-.6-.9-1.367-.9-2.3.067-.933.433-1.767 1.1-2.5.733-.733 1.567-1.134 2.5-1.2Zm-.2 4.9c.4 0 .733-.167 1-.5.267-.333.4-.7.4-1.1.067-.467-.033-.833-.3-1.1-.267-.267-.6-.4-1-.4a1.58 1.58 0 0 0-1 .6 2.36 2.36 0 0 0-.5 1.1c0 .466.133.833.4 1.1.267.267.6.367 1 .3Zm10 .9-2.3.2-1.3-1.6-.2.1-.1 1.6-1.9.2.3-6.6 2.7-.2h.5c.4 0 .7.1 1 .3.4.2.7.5.9 1 .067.266.1.567.1.9-.067.933-.467 1.633-1.2 2.1l1.5 2Zm-3.7-4.3v1.2l.7-.1c.4 0 .6-.2.6-.6 0-.4-.2-.6-.5-.6l-.8.1Z" clip-rule="evenodd"/>
  <path fill="#FEFEFE" d="m55.8 40.304.3-6.6 1.9-.1-.3 6.5-1.9.2Z"/>
  <path fill="#FEFEFE" fill-rule="evenodd" d="m63 33.104 2.1 6.4-2.1.2-.2-.7-2.1.2-.3.7-2.1.2 2.7-6.8 2-.2Zm-1.6 4.2.9-.1-.4-1.3-.5 1.4Z" clip-rule="evenodd"/>
  <path fill="#FEFEFE" d="M28.7 23.004c-.267.8-.7 1.5-1.3 2.1-.666.6-1.433.933-2.3 1-.933.133-1.733-.1-2.4-.7-.6-.6-.866-1.4-.8-2.4 0-.934.367-1.767 1.1-2.5.667-.667 1.5-1.067 2.5-1.2.8-.067 1.5.167 2.1.7.6.466.967 1.1 1.1 1.9l-2.1.2c-.067-.267-.233-.5-.5-.7-.2-.134-.433-.2-.7-.2-.4 0-.766.166-1.1.5-.267.333-.4.733-.4 1.2 0 .4.1.733.3 1 .267.333.6.466 1 .4.267 0 .533-.134.8-.4.267-.2.467-.467.6-.8l2.1-.1Z"/>
  <path fill="#FEFEFE" fill-rule="evenodd" d="M32.9 18.704c.933-.067 1.7.2 2.3.8.667.6.967 1.367.9 2.3-.067.933-.433 1.767-1.1 2.5-.667.733-1.5 1.133-2.5 1.2-.933.067-1.733-.2-2.4-.8-.6-.6-.867-1.367-.8-2.3 0-.933.367-1.767 1.1-2.5.667-.733 1.5-1.134 2.5-1.2Zm-.3 4.9c.4 0 .733-.167 1-.5.333-.334.5-.7.5-1.1 0-.467-.133-.834-.4-1.1-.267-.267-.567-.4-.9-.4-.4.067-.767.266-1.1.6-.267.333-.4.7-.4 1.1 0 .466.1.833.3 1.1.267.267.6.366 1 .3Z" clip-rule="evenodd"/>
  <path fill="#FEFEFE" d="M40.6 23.904H40l-1.1-1.8-.1 2.7-2 .2.4-6.6 1.8-.1 1.5 2.3 1.7-2.6 1.8-.2-.3 6.6-2 .1.2-2.7-1.3 2.1Zm6.8.3c-.1 0-.2 0-.6-.1-.3 0-.7-.1-1.1-.3-.4-.2-.6-.5-.8-1.1a1.728 1.728 0 0 1-.1-1l.2-4 1.9-.2-.2 4.1v.2c.067.133.133.233.2.3.1.1.3.2.6.2a.68.68 0 0 0 .5-.2c.133-.2.233-.367.3-.5v-.2l.2-4 1.9-.2-.2 4c0 .7-.2 1.4-.6 1.8-.133.2-.3.367-.5.5-.7.5-1.3.6-1.6.6l-.1.1Zm-.7-7.1 1-1.9 2.2-.2-1.2 1.9-2 .2Zm10.5-.5-.4 6.6-1.7.1-1.9-2.6-.2 2.8-1.9.2.3-6.6 1.8-.1 1.9 2.7.1-2.9 2-.2Zm2.5 7-1.9.1 1-2.4 2.2-.2-1.3 2.5Z"/>
</svg>
