<svg xmlns="http://www.w3.org/2000/svg" width="79" height="51" fill="none" viewBox="0 0 79 51">
  <path fill="#6A4C9E" d="M44.108 31.658 6.127 32.942l.468-4.979 37.374-1.319.14 5.014Z"/>
  <path fill="#FEFEFE" d="m7.593 23.23-.806-.014.726-6.315.806.014-.726 6.314Zm1.924-4.534-.073 2.12-.35 2.352-.805-.014.826-6.325.706.024.814 4.74.1-.01.029-2.518.36-2.252.796-.086-.826 6.325-.696.075-.824-4.84-.057.41Zm4.015-1.942.284 4.496.067-.309.447-1.456.903-2.814.696-.075-.219 6.36-.806-.013.15-2.33.07-1.214.114-.817-.301.938-1.038 3.43-.497.055-.263-4.297-.742 4.304-.795.086 1.223-6.368.707.024Z"/>
  <path fill="#FEFEFE" fill-rule="evenodd" d="M19.575 19.622c-.18 1.126-.452 3.268-1.954 3.33-1.601.071-1.33-2.07-1.25-3.185.181-1.126.453-3.267 1.955-3.329 1.612.027 1.33 2.069 1.249 3.184Zm-2.297.148c-.16 1.324-.24 2.44.356 2.375.707.024.887-1.102 1.046-2.426.159-1.325.24-2.44-.367-2.475-.697.075-.877 1.201-1.035 2.526Zm3.267-3.27 1.005-.008c.497-.053 1.403-.05 1.276 1.572-.045.508-.346 1.446-1.032 1.62l.73 3.04-.806-.014-.73-3.039-.374 3.058-.795.086.726-6.315Zm1.397 1.76c.035-.607-.018-1.104-.626-1.139l-.1.01-.27 2.142c.606.035.862-.395.996-1.012Z" clip-rule="evenodd"/>
  <path fill="#FEFEFE" d="m25.659 16.35-.124.718-.905-.003-.603 5.597-.806-.014.613-5.497-.905-.003.123-.717 2.607-.08Z"/>
  <path fill="#FEFEFE" fill-rule="evenodd" d="m27.061 16.3.577 6.274-.806-.013-.129-1.194-1.104.02-.468 1.257-.707-.025 2.03-6.354.607.035Zm-.42 3.565-.047-2.308-.86 3.211 1.004-.008-.096-.895Z" clip-rule="evenodd"/>
  <path fill="#FEFEFE" d="m29.568 16.23-.712 5.508 1.303-.04-.025.707-2.198.137.826-6.326.806.014Zm1.671 6.156-.796.086.727-6.315.795-.085-.726 6.314Z"/>
  <path fill="#FEFEFE" fill-rule="evenodd" d="M33.677 16.088c.895-.096 2.01-.015 1.547 3.152-.285 2.948-1.28 3.056-2.682 3.106l-.596.065.826-6.325.905.002Zm-.223.729-.578 4.89c1.303-.04 1.461-1.365 1.553-2.38.091-1.016.417-2.66-.975-2.51Zm4.331-.871.478 6.285-.806-.013-.03-1.204-1.203.03-.369 1.246-.806-.014 2.03-6.354.706.024Zm-.42 3.566-.047-2.308-.86 3.21 1.004-.007-.096-.895Zm2.928-3.635c.894-.097 2.01-.016 1.646 3.141-.385 2.959-1.379 3.066-2.781 3.117l-.497.053.726-6.314.906.003Zm-.224.728-.578 4.89c1.303-.04 1.462-1.364 1.553-2.38.092-1.016.417-2.66-.975-2.51Zm5.127-.955c1.005-.009 2.02.083 1.658 3.24-.296 2.848-1.28 3.055-2.682 3.106l-.597.064.826-6.325.795-.086Zm-.223.727-.578 4.89c1.303-.04 1.362-1.353 1.553-2.38.091-1.015.417-2.66-.975-2.51Z" clip-rule="evenodd"/>
  <path fill="#FEFEFE" d="m50.012 15.532-.025.706-1.402.051-.183 2.032 1.193-.13-.113.818-1.204.029-.272 2.142 1.303-.04-.024.706-2.209.038.826-6.326 2.11-.026Zm1.203-.03-.602 5.597 1.303-.04-.124.718-2.11.026.727-6.314.806.013ZM13.936 28.88c-.242-.376-.502-.616-.782-.72-.28-.104-.618-.134-1.016-.091-.405-.024-.821.155-1.25.537-.361.374-.547.83-.556 1.368-.075.544.041 1.001.35 1.37.241.376.594.54 1.058.49.339.03.633-.035.884-.197.192-.087.347-.205.465-.352l.078-.21-1.502.062.194-1.931 4.02-.032-.127 1.623c-.212.827-.634 1.577-1.088 2.028a3.917 3.917 0 0 1-.842.594c-.317.168-.571.296-.763.384a3.26 3.26 0 0 1-.784.185 1.647 1.647 0 0 1-.487.153l-.298.033c-1.141-.011-2.057-.415-2.746-1.213-.683-.73-.956-1.707-.82-2.929.144-1.155.64-2.147 1.49-2.977.849-.829 1.844-1.238 2.985-1.227 1.532-.098 2.671.516 3.418 1.844l-1.881 1.209Z"/>
  <path fill="#FEFEFE" fill-rule="evenodd" d="m23.297 33.603-2.806.102-1.319-1.97-.198.021-.283 2.042-2.308.048.942-8.047 3.103-.134c.1-.01.199-.021.618.134.409.057.817.113 1.247.369.44.355.682.73.846 1.317.11.39.152.788.129 1.193-.15 1.089-.698 1.92-1.642 2.49l1.67 2.435Zm-3.936-5.71-.137 1.523.905.003c.398-.043.605-.3.621-.771.046-.508-.185-.785-.483-.753l-.906-.003Zm10.399-2.43 1.963 7.935-2.507.07-.185-.786-2.507.07-.411.85-2.507.069 3.747-8.15 2.408-.058Zm-2.279 4.973 1.104-.019-.38-1.669-.724 1.688Z" clip-rule="evenodd"/>
  <path fill="#FEFEFE" d="m35.57 25.237-.582 5.796 3.214-.045-.161 2.23-5.611.204.832-8.137 2.308-.048Zm3.747 5.832c.303-.301.62-.47.952-.505.404.023.72.157.948.4.161.251.23.579.207.984-.03.338-.164.654-.4.948a1.93 1.93 0 0 1-.963.406c-.397.043-.714-.09-.948-.4-.228-.244-.293-.539-.196-.885.023-.405.157-.72.4-.948Z"/>
  <path fill="#6A4C9E" d="M77.99 41.78 4.747 43.45l.457-5.078 72.548-1.596.238 5.003Z"/>
  <path fill="#FEFEFE" d="M8.616 42.028c.47.62 1.039.927 1.709.922.464-.05.715-.212.752-.484-.007-.066-.15-.151-.43-.255A20.724 20.724 0 0 0 9.8 41.8a6.994 6.994 0 0 1-1.048-.39c-.36-.23-.625-.503-.793-.82a2.158 2.158 0 0 1-.338-1.27c.082-.48.33-.975.744-1.49.444-.55 1.406-.956 2.5-1.074.806.014 1.534.237 1.974.592.43.255.771.62.903.908l.021.199-1.671 1.287c-.235-.31-.459-.52-.672-.632-.213-.111-.485-.149-.817-.113-.298.032-.585.164-.564.363-.078.21.352.465.87.61.273.038.552.142.839.312.346.097.629.234.849.411.286.17.48.417.583.742.168.317.24.678.217 1.083-.045.508-.39 1.048-.833 1.598-.543.562-1.405.957-2.51.975-.935.034-1.656-.123-2.163-.47-.514-.414-.862-.846-1.045-1.295l1.771-1.298Z"/>
  <path fill="#FEFEFE" fill-rule="evenodd" d="m19.5 36.629 1.973 8.034-2.507.07-.196-.884-2.507.069-.312.838-2.496.17 3.736-8.25 2.308-.047Zm-2.27 5.073 1.105-.02-.381-1.668-.723 1.688Z" clip-rule="evenodd"/>
  <path fill="#FEFEFE" d="m29.925 36.308-.842 8.037-2.098.126-2.088-3.497-.42 3.566-2.308.048.942-8.047 2.11-.027 2.076 3.397.32-3.555 2.308-.048Zm7.279 6.858-.597.064-1.163-2.389-.342 3.357-2.407.058.941-8.047 2.099-.126 1.636 3.042 2.174-3.152 2.209-.037-.842 8.037-2.309.048.353-3.257-1.752 2.402Z"/>
  <path fill="#FEFEFE" fill-rule="evenodd" d="m47.663 35.7 1.973 8.035-2.507.07-.195-.885-2.497.17-.312.838-2.507.07 3.648-8.14 2.397-.157Zm-2.18 4.963 1.005-.008-.282-1.68-.723 1.688Zm11.774 2.853-2.816.002-1.32-1.97-.297.032-.184 2.032-2.308.048.843-8.037 3.213-.045c.1-.011.2-.022.608.035.408.056.717.123 1.157.478.43.255.772.621.946 1.306.036.332.042.7.019 1.104-.085 1.082-.599 1.91-1.543 2.48l1.682 2.535Zm-4.024-5.6-.148 1.423.905.003c.405.023.645-.237.72-.782.046-.508-.174-.685-.583-.742l-.895.097Z" clip-rule="evenodd"/>
  <path fill="#FEFEFE" d="m60.036 37.583-2.099.126.25-2.34 6.616-.212-.25 2.34-2.209.038-.581 5.796-2.308.048.581-5.796Zm4.731 5.625.942-8.047 2.308-.049-.941 8.048-2.309.048Zm3.275-8.802-2.309.048 1.277-2.15 2.596-.18-1.564 2.282Zm7.993.444-.842 8.037-2.11.027-2.076-3.397-.32 3.555-2.308.048.842-8.037 2.098-.126 2.088 3.496.32-3.555 2.308-.048Z"/>
  <path fill="#FEFEFE" fill-rule="evenodd" d="m7.457 13.588.726-6.315 1.005-.008c.696-.075 1.513.038 1.386 1.661-.169 1.225-.701 1.886-2.015 1.827l-.307 2.749-.795.086Zm1.508-5.595-.272 2.142c.707.024.863-.395.987-1.112.045-.508-.008-1.005-.616-1.04l-.099.01Zm3.426-.873.478 6.285-.806-.013-.03-1.204-1.204.03-.368 1.246-.806-.013 2.04-6.255.696-.076Zm-.43 3.467-.048-2.308-.86 3.21 1.004-.008-.096-.894Z" clip-rule="evenodd"/>
  <path fill="#FEFEFE" d="M15.701 7.97c-.21-.078-.33-.266-.628-.233-.398.042-.764.383-.81.891-.077.21.044.398.175.686l.473.653c.462.553.704.93.701 1.835-.212.828-.833 1.599-1.628 1.684-.409-.056-.618-.134-.839-.311l.014-.806c.22.177.53.244.838.311.497-.053.753-.483.798-.99.07-1.215-1.563-1.441-1.337-3.075.102-.916.634-1.577 1.529-1.674.338.03.614.101.827.213l-.113.816Z"/>
  <path fill="#FEFEFE" fill-rule="evenodd" d="M19.25 10.101c-.18 1.126-.462 3.168-1.964 3.23-1.602.072-1.33-2.07-1.249-3.184.18-1.126.463-3.168 1.965-3.23 1.601-.072 1.319 1.97 1.249 3.184Zm-2.308.048c-.158 1.325-.239 2.44.358 2.376.706.024.886-1.102 1.045-2.426.159-1.325.24-2.44-.368-2.475-.695.075-.876 1.2-1.035 2.525Zm6.173-3.382.577 6.275-.795.086-.14-1.293-1.204.03-.368 1.246-.696.075 2.03-6.354.596-.065Zm-.43 3.466-.038-2.208-.86 3.21.895-.096.003-.905Z" clip-rule="evenodd"/>
  <path fill="#FEFEFE" d="m27.025 6.648-.702 5.607 1.402-.05-.123.717-2.198.137.826-6.325.795-.086Z"/>
  <path fill="#FEFEFE" fill-rule="evenodd" d="m30.14 6.613.576 6.274-.806-.013-.129-1.193-1.204.029-.368 1.247-.806-.014 2.129-6.365.607.035Zm-.42 3.566-.048-2.309-.86 3.211.905.003.003-.905Z" clip-rule="evenodd"/>
</svg>
