<svg xmlns="http://www.w3.org/2000/svg" width="69" height="96" fill="none" viewBox="0 0 69 96">
  <mask id="a" width="69" height="96" x="0" y="0" maskUnits="userSpaceOnUse" style="mask-type:alpha">
    <path fill="#D9D9D9" d="M0 0h69v96H0z"/>
  </mask>
  <g mask="url(#a)">
    <path fill="#192B46" d="M22.61 51.647s-3.535.578-7.113 4.45c-3.56 3.946-9.038 12.623-9.88 13.717-.918 1.114-4.876 4.121-4.372 7.675.447 3.649 6.728 7.575 16.088.313 9.284-7.243 7.314-15.307 7.314-15.307L22.61 51.647Z"/>
    <path stroke="#090707" stroke-linecap="round" stroke-linejoin="round" stroke-width=".931" d="M22.61 51.647s-3.535.578-7.113 4.45c-3.56 3.946-9.038 12.623-9.88 13.717-.918 1.114-4.876 4.121-4.372 7.675.447 3.649 6.728 7.575 16.088.313 9.284-7.243 7.314-15.307 7.314-15.307L22.61 51.647Z"/>
    <path fill="#FACF09" d="M13.094 57.348c.17.357-.054.734-.41.905-.377.096-.754-.129-.868-.58l-.287-1.128c-.115-.45.034-.809.41-.904a.695.695 0 0 1 .849.504l.306 1.203Z"/>
    <path stroke="#090707" stroke-linecap="round" stroke-linejoin="round" stroke-width=".621" d="M13.094 57.348c.17.357-.054.734-.41.905-.377.096-.754-.129-.868-.58l-.287-1.128c-.115-.45.034-.809.41-.904a.695.695 0 0 1 .849.504l.306 1.203Z"/>
    <path fill="#F3971E" d="M14.562 57.455c.095.376-.13.753-.486.924a.695.695 0 0 1-.849-.505l-.305-1.203c-.115-.45.034-.809.41-.904a.695.695 0 0 1 .849.504l.38 1.184Z"/>
    <path stroke="#090707" stroke-linecap="round" stroke-linejoin="round" stroke-width=".621" d="M14.562 57.455c.095.376-.13.753-.486.924a.695.695 0 0 1-.849-.505l-.305-1.203c-.115-.45.034-.809.41-.904a.695.695 0 0 1 .849.504l.38 1.184Z"/>
    <path fill="#FACF09" d="M15.822 57.375c.095.376-.035.81-.41.905a.695.695 0 0 1-.85-.505l-.38-1.184c-.096-.376.11-.828.485-.924a.695.695 0 0 1 .849.505l.306 1.203Z"/>
    <path stroke="#090707" stroke-linecap="round" stroke-linejoin="round" stroke-width=".621" d="M15.822 57.375c.095.376-.035.81-.41.905a.695.695 0 0 1-.85-.505l-.38-1.184c-.096-.376.11-.828.485-.924a.695.695 0 0 1 .849.505l.306 1.203Z"/>
    <path fill="#F3971E" d="M17.515 57.425c.115.45-.11.828-.485.923l-.15.039a.695.695 0 0 1-.85-.505l-.361-1.109c-.115-.45.11-.828.485-.924l.15-.038c.358-.17.829.11.925.486l.286 1.128Z"/>
    <path stroke="#090707" stroke-linecap="round" stroke-linejoin="round" stroke-width=".621" d="M17.515 57.425c.115.45-.11.828-.485.923l-.15.039a.695.695 0 0 1-.85-.505l-.361-1.109c-.115-.45.11-.828.485-.924l.15-.038c.358-.17.829.11.925.486l.286 1.128Z"/>
    <path fill="#FACF09" d="M23.843 54.295c.096.376-.128.753-.41.905a.695.695 0 0 1-.849-.505l-.38-1.184c-.115-.451.11-.828.485-.924.3-.076.678.148.849.505l.305 1.203Z"/>
    <path stroke="#090707" stroke-linecap="round" stroke-linejoin="round" stroke-width=".621" d="M23.843 54.295c.096.376-.128.753-.41.905a.695.695 0 0 1-.849-.505l-.38-1.184c-.115-.451.11-.828.485-.924.3-.076.678.148.849.505l.305 1.203Z"/>
    <path fill="#F3971E" d="M22.774 55.127c.171.357-.053.734-.43.83-.356.17-.733-.053-.848-.505l-.306-1.203c-.095-.376.054-.734.43-.83a.695.695 0 0 1 .849.505l.305 1.203Z"/>
    <path stroke="#090707" stroke-linecap="round" stroke-linejoin="round" stroke-width=".621" d="M22.774 55.127c.171.357-.053.734-.43.83-.356.17-.733-.053-.848-.505l-.306-1.203c-.095-.376.054-.734.43-.83a.695.695 0 0 1 .849.505l.305 1.203Z"/>
    <path fill="#FACF09" d="M21.648 55.734c.095.376-.11.828-.486.924-.3.076-.753-.129-.848-.505l-.306-1.203c-.096-.376.11-.828.41-.905a.695.695 0 0 1 .849.505l.38 1.184Z"/>
    <path stroke="#090707" stroke-linecap="round" stroke-linejoin="round" stroke-width=".621" d="M21.648 55.734c.095.376-.11.828-.486.924-.3.076-.753-.129-.848-.505l-.306-1.203c-.096-.376.11-.828.41-.905a.695.695 0 0 1 .849.505l.38 1.184Z"/>
    <path fill="#F3971E" d="M20.504 56.585a.777.777 0 0 1-.561.943l-.075.02c-.376.095-.829-.11-.924-.486l-.381-1.184c-.096-.376.204-.773.58-.868l.075-.02c.432-.189.828.11.924.486l.362 1.109Z"/>
    <path stroke="#090707" stroke-linecap="round" stroke-linejoin="round" stroke-width=".621" d="M20.504 56.585a.777.777 0 0 1-.561.943l-.075.02c-.376.095-.829-.11-.924-.486l-.381-1.184c-.096-.376.204-.773.58-.868l.075-.02c.432-.189.828.11.924.486l.362 1.109Z"/>
    <path fill="#FACF09" d="M18.945 57.382a.695.695 0 0 1-.505.848l-.075.02a.696.696 0 0 1-.848-.505l-.381-1.184a.695.695 0 0 1 .504-.849l.075-.019c.357-.17.81.035.905.41l.325 1.279Z"/>
    <path stroke="#090707" stroke-linecap="round" stroke-linejoin="round" stroke-width=".621" d="M18.945 57.382a.695.695 0 0 1-.505.848l-.075.02a.696.696 0 0 1-.848-.505l-.381-1.184a.695.695 0 0 1 .504-.849l.075-.019c.357-.17.81.035.905.41l.325 1.279Z"/>
    <path fill="#FACF09" d="M23.31 52.83c.192.752-2.418 2.135-5.782 3.07-3.44.955-5.885 1.096-6.076.345-.266-.733 1.873-2.077 5.313-3.032 3.364-.935 6.28-1.116 6.546-.383Z"/>
    <path stroke="#090707" stroke-linecap="round" stroke-linejoin="round" stroke-width=".621" d="M23.31 52.83c.192.752-2.418 2.135-5.782 3.07-3.44.955-5.885 1.096-6.076.345-.266-.733 1.873-2.077 5.313-3.032 3.364-.935 6.28-1.116 6.546-.383Z"/>
    <g opacity=".2" style="mix-blend-mode:multiply">
      <mask id="b" width="11" height="5" x="13" y="52" maskUnits="userSpaceOnUse" style="mask-type:luminance">
        <path fill="#fff" d="m13.66 56.396 9.97-1.086-.339-3.124-9.977 1.088.346 3.122Z"/>
      </mask>
      <g mask="url(#b)">
        <path fill="#100E0C" d="M13.477 54.45c-.451.114 6.862-1.345 5.137.054-1.351.984-3.719 1.746-3.719 1.746s4.08-.637 5.095-1.055c1.014-.418 5.41-2.335 2.266-2.737-3.05-.345-8.103 1.82-8.78 1.992Z"/>
      </g>
    </g>
    <g opacity=".2" style="mix-blend-mode:multiply">
      <mask id="c" width="17" height="18" x="3" y="56" maskUnits="userSpaceOnUse" style="mask-type:luminance">
        <path fill="#fff" d="m5.594 73.566 13.81-1.502-1.75-16.044-13.808 1.51 1.748 16.036Z"/>
      </mask>
      <g mask="url(#c)">
        <path fill="#100E0C" d="M5.92 70.377s.456 1.165-.463 1.96c0 0 4.815-.585 5.778.371.983 1.031 5.576-2.938 5.576-2.938s.881-10.39 1.125-10.692c.168-.283-.614-3.045-.614-3.045s-3.68 2.216-4.503 3.386c-.767 1.075 1.022 1.5.687 2.386-.26.867-2.429 4.3-4.098 5.605-1.65 1.38 1.08 1.727.178 2.276-.806.605-3.666.691-3.666.691Z"/>
      </g>
    </g>
    <path fill="#F3AB1B" d="M25.869 52.5s-6.669 2.735-5.357 6.324l4.566-1.561.79-4.764Z"/>
    <path stroke="#090707" stroke-linecap="round" stroke-linejoin="round" stroke-width=".853" d="M25.869 52.5s-6.669 2.735-5.357 6.324l4.566-1.561.79-4.764Z"/>
    <path fill="#192B46" d="M26.742 49.956s-15.029 1.02-12.226 19.917c.93 6.488 7.92 23.28 7.92 23.28s9.13 1.282 24.514-.548c0 0 4.613-18.062 4.532-24.365-.11-8.617-.032-7.996-1.998-15.1-.859-3.064-3.437-3.129-3.437-3.129l-19.304-.055Z"/>
    <path stroke="#090707" stroke-linecap="round" stroke-linejoin="round" stroke-width=".931" d="M26.742 49.956s-15.029 1.02-12.226 19.917c.93 6.488 7.92 23.28 7.92 23.28s9.13 1.282 24.514-.548c0 0 4.613-18.062 4.532-24.365-.11-8.617-.032-7.996-1.998-15.1-.859-3.064-3.437-3.129-3.437-3.129l-19.304-.055Z"/>
    <path fill="#FDD00B" d="M18.918 64.832s8.526.794 1.55 6.73c0 0 7.594 2.792 2.877 8.794 0 0 4.093 2.561 1.757 6.597 0 0 3.4 3.298 1.248 6.486l-.89-1.295-1.885-1.121s-1.934-3.83-.692-3.666c0 0-2.571-3.189-3.029-4.673-.476-1.56.897-1.509.897-1.509s-2.137-2.739-3.087-5.218c-1.026-2.461-.166-3.8 1.023-2.902 0 0-4.703-9.37.23-8.223Z"/>
    <path stroke="#090707" stroke-linecap="round" stroke-linejoin="round" stroke-width=".388" d="M18.918 64.832s8.526.794 1.55 6.73c0 0 7.594 2.792 2.877 8.794 0 0 4.093 2.561 1.757 6.597 0 0 3.4 3.298 1.248 6.486l-.89-1.295-1.885-1.121s-1.934-3.83-.692-3.666c0 0-2.571-3.189-3.029-4.673-.476-1.56.897-1.509.897-1.509s-2.137-2.739-3.087-5.218c-1.026-2.461-.166-3.8 1.023-2.902 0 0-4.703-9.37.23-8.223Z"/>
    <g opacity=".2" style="mix-blend-mode:multiply">
      <mask id="d" width="26" height="39" x="13" y="57" maskUnits="userSpaceOnUse" style="mask-type:luminance">
        <path fill="#fff" d="m17.35 95.944 21.511-2.347-3.979-36.53-21.513 2.34 3.981 36.537Z"/>
      </mask>
      <g mask="url(#d)">
        <path fill="#100E0C" d="M15.512 74.103s-.235-2.182.424-2.11c.753.13 3.257 5.256 5.337 7.769 2.174 2.57 5.445 6.62 6.804 7.875 1.34 1.18 4.115 3.277 3.404 4.258-.636.962-8.042-2.038-8.832-1.997-.847.135-1.142 1.49-1.142 1.49l1.1 2.123s14.244.3 16.125.143c1.861-.233-18.73-21.413-20.233-25.433-1.502-4.02-3.253-9.019-3.253-9.019s-2.635 4.752.266 14.9Z"/>
      </g>
    </g>
    <path fill="#FDD00B" d="M35.554 51.558s-3.703 5.584-9.984 6.38c0 0 1.012 3.666-2.744 5.58 0 0 3.214 3.826-.223 10.143 0 0-6.579-12.655-1.785-18.357 0 0 8.473-3.194 14.736-3.746Z"/>
    <path stroke="#090707" stroke-linecap="round" stroke-linejoin="round" stroke-width=".388" d="M35.554 51.558s-3.703 5.584-9.984 6.38c0 0 1.012 3.666-2.744 5.58 0 0 3.214 3.826-.223 10.143 0 0-6.579-12.655-1.785-18.357 0 0 8.473-3.194 14.736-3.746Z"/>
    <path fill="#B7942F" d="M26.067 93.271c-.15.038-.263-.093-.302-.243-.038-.15-.247-.658-.627-1.522-6.766-17.17-9.857-28.07-9.291-32.456a.373.373 0 0 1 .413-.266c.15-.038.283.169.246.338-.53 4.217 2.543 15.042 9.29 32.137.475 1.24.552 1.54.571 1.616a.334.334 0 0 1-.224.377l-.076.02Z"/>
    <path stroke="#090707" stroke-linecap="round" stroke-linejoin="round" stroke-width=".776" d="M26.63 92.968c-.077-.62-10.51-26.544-9.804-33.848"/>
    <g style="mix-blend-mode:multiply">
      <mask id="e" width="10" height="20" x="17" y="50" maskUnits="userSpaceOnUse" style="mask-type:luminance">
        <path fill="#fff" d="m19.301 69.898 7.627-.826L24.949 50.9l-7.624.834 1.976 18.164Z"/>
      </mask>
      <g mask="url(#e)">
        <path fill="#B8B3B3" d="M24.978 50.885s-5.584 5.742-4.39 17.365c.588 6.094-2.329-8.213-2.329-8.213l4.351-8.39 2.368-.762Z"/>
      </g>
    </g>
    <path fill="#FEFEFE" d="M26.102 49.639c-9.458 1.524-12.095 10.358-11.094 16.187 2.444 13.707 21.39 27.78 22.105 27.759.565.016 5.495.204 5.495.204-36.62-30.072-16.506-44.15-16.506-44.15Z"/>
    <path stroke="#090707" stroke-linecap="round" stroke-linejoin="round" stroke-width=".621" d="M26.102 49.639c-9.458 1.524-12.095 10.358-11.094 16.187 2.444 13.707 21.39 27.78 22.105 27.759.565.016 5.495.204 5.495.204-36.62-30.072-16.506-44.15-16.506-44.15Z"/>
    <g opacity=".2" style="mix-blend-mode:multiply">
      <mask id="f" width="22" height="45" x="13" y="49" maskUnits="userSpaceOnUse" style="mask-type:luminance">
        <path fill="#fff" d="m18.026 93.594 16.83-1.837-4.634-42.534-16.83 1.838 4.634 42.533Z"/>
      </mask>
      <g mask="url(#f)">
        <path fill="#100E0C" d="M34.38 87.556s-2.115-2.024-3.419-3.373c-1.322-1.425-2.302-1.816-2.302-1.816s-1.203.306-2.915.5c-.35.09-.746.004-1.186-.258 3.647 3.955 7.46 7.308 9.858 9.18-.133-.206-.34-.394-.662-.712-4.342-3.859-4.233-4.687-4.233-4.687l4.86 1.166Zm-8.278-37.917c-9.458 1.524-12.095 10.358-11.093 16.187.442 2.369 1.373 4.774 2.605 7.102-.706-2.462-.091-4.14-.207-4.91-.098-1.016 2.406-.612 1.93-1.852-.4-1.259-.435-5.492-.382-6.226.054-.734 1.39-.833 1.227 1.049-.164 1.242.255 2.576.616 3.365-1.47-9.872 5.304-14.715 5.304-14.715Z"/>
      </g>
    </g>
    <g opacity=".2" style="mix-blend-mode:multiply">
      <mask id="g" width="20" height="46" x="35" y="49" maskUnits="userSpaceOnUse" style="mask-type:luminance">
        <path fill="#fff" d="m39.817 94.05 14.433-1.57-4.68-42.932-14.43 1.572 4.678 42.93Z"/>
      </mask>
      <g mask="url(#g)">
        <path fill="#100E0C" d="m42.268 50.572 3.835-.655 1.29 2.554c1.29 2.553 3.67 9.713 3.85 12.628.492 5.398-.944 13.287-2.295 18.994-.444 1.713-1.682 7.551-2.146 9.19l-3.462-.08-.89-6.338s3.223-3.06 1.425-5.725c-1.74-2.44-5.18-6.527-5.18-6.527s-1.606-1.593-1.083-2.367c.449-.754 2.675.761 4.144 1.188 1.47.427 3.86.7 4.06-1.352.273-2.07-7.338-4.618-7.338-4.618s3.933.36 5.735-.738c1.783-1.174-1.651-8.385-1.651-8.385l-.294-7.77Z"/>
      </g>
    </g>
    <path fill="#F3C999" d="m18.117 38.382.902 4.493.384 1.823s-.543.699-.504 1.169c.115.45 1.187 9.704 1.286 11.04l3.422-.71 3.288-.917 11.366-4.41-.554-2.18-.492-5.398-1.757-6.597-6.902-3.849-10.439 5.536Z"/>
    <path stroke="#090707" stroke-width=".931" d="m18.117 38.382.902 4.493.384 1.823s-.543.699-.504 1.169c.115.45 1.187 9.704 1.286 11.04l3.422-.71 3.288-.917 11.366-4.41-.554-2.18-.492-5.398-1.757-6.597-6.902-3.849-10.439 5.536Z"/>
    <path fill="#100E0C" d="M17.78 38.627s.698.543 2.182.086c1.541-.552 4.366-4.552 7.87-3.362 0 0 4.031 1.057.365 1.749-.075.019.377.224.772.204.923.165 1.523-.308 1.523-.308s.282-.151.358.15c.19.432-.525.453-.506.529.02.075.038.15.34.073.564.017 1.202-.305 1.446-.607 0 0 .338.074.452.205.227.262.587 1.051-.333 1.525-1.257.72-1.767.29-1.767.29s.925.805 2.127.18c.995-.494.304.882-1.257 1.039.133.206.772.204 1.26-.08.508-.21.635 3.44-.429 5.552-1.14 2.13-.553 2.862.727 3.177 1.281.314 1.37-.909 1.65-1.38.802-1.885.601-5.196 1.604-3.77 0 0 .818 2.274 1.247 1.444 0 0 .34.394.394-.34.054-.734.476-8.205-2.81-11.052-1.434-1.236-3.903-2.13-6.35-2.308-2.296-.217-6.354 1.135-9.363 1.58-2.783.387-3.238 4.265-1.502 5.424Zm3.156 3.6-.041-.79-1.864-.406-.165 1.242 2.07-.046Z"/>
    <path fill="#FEFEFE" d="M28.026 41.465s-.154-.92-1.114-.917l-3.342 1.65.19.432"/>
    <path stroke="#090707" stroke-width=".465" d="M28.026 41.465s-.154-.92-1.114-.917l-3.342 1.65.19.432"/>
    <mask id="h" width="6" height="3" x="23" y="40" maskUnits="userSpaceOnUse" style="mask-type:luminance">
      <path fill="#fff" d="m23.946 42.135.114.419 3.727-.988s1.116-.524-.732-1.022l-3.11 1.59Z"/>
    </mask>
    <g mask="url(#h)">
      <path fill="#100E0C" d="M26.033 41.812c.115.451-.05 1.694-.576 1.827-.526.134-1.264-.879-1.379-1.33-.19-.432.166-.923.768-1.076.526-.133 1.072.128 1.187.579Z"/>
    </g>
    <mask id="i" width="3" height="2" x="19" y="42" maskUnits="userSpaceOnUse" style="mask-type:luminance">
      <path fill="#fff" d="m19.234 42.556.375 1.41 1.695-.448-.376-1.417-1.694.455Z"/>
    </mask>
    <g mask="url(#i)">
      <path fill="#FEFEFE" d="M18.647 43.93s-.059-.545.767-1.075l3.44-.635.116.451"/>
      <path stroke="#090707" stroke-width=".465" d="M18.647 43.93s-.059-.545.767-1.075l3.44-.635.116.451"/>
    </g>
    <mask id="j" width="3" height="2" x="19" y="42" maskUnits="userSpaceOnUse" style="mask-type:luminance">
      <path fill="#fff" d="m19.35 42.982.184.722 1.688-.509-.143-.532-1.728.32Z"/>
    </mask>
    <g mask="url(#j)">
      <path fill="#100E0C" d="M18.57 43.629c.19.432.928 1.445 1.455 1.311.582-.228.671-1.451.556-1.902-.114-.451-.736-.694-1.262-.56-.526.134-.863.7-.748 1.15Z"/>
    </g>
    <mask id="k" width="3" height="2" x="19" y="42" maskUnits="userSpaceOnUse" style="mask-type:luminance">
      <path fill="#fff" d="m19.234 42.556.375 1.41 1.695-.448-.376-1.417-1.694.455Z"/>
    </mask>
    <g mask="url(#k)">
      <path fill="#FEFEFE" d="M20.13 43.152c.02.075.094.056.094.056.076-.019.15-.038.132-.113a.167.167 0 0 0-.189-.112c-.075.019-.056.094-.037.17Z"/>
    </g>
    <path fill="#F3C999" d="m20.78 40.986.365 1.748s-.337.566-.354.81c.076.302.337 4.478.507 4.514.264.093 1.974-.422 2.5-.555.507-.21.975-.888.126-1.393"/>
    <path stroke="#090707" stroke-linecap="round" stroke-width=".465" d="m20.78 40.986.365 1.748s-.337.566-.354.81c.076.302.337 4.478.507 4.514.264.093 1.974-.422 2.5-.555.507-.21.975-.888.126-1.393"/>
    <path fill="#100E0C" d="M37.349 39.095c-.502-7.957-1.023-6.543-4.437-8.637-1.34-.86-3.745-.249-6.039.174-10.83 1.793-9.681 6.944-9.681 6.944s4.802-3.782 10.217-4.519c5.416-.736 9.94 6.038 9.94 6.038Z"/>
    <path fill="#100E0C" d="M23.473 32.057s.525-.454 2.406-.612c1.862-.233 2.955.29 2.955.29l1.753.595-7.036.348-.078-.621Z"/>
    <g opacity=".1">
      <mask id="l" width="6" height="3" x="23" y="41" maskUnits="userSpaceOnUse" style="mask-type:luminance">
        <path fill="#fff" d="m23.631 43.575 4.706-.508-.168-1.606-4.713.51.175 1.604Z"/>
      </mask>
      <g mask="url(#l)">
        <path fill="#292422" d="M23.534 42.688s.267 1.052 1.3.71c1.805-.46 3.342-1.97 3.342-1.97"/>
      </g>
    </g>
    <mask id="m" width="4" height="3" x="17" y="43" maskUnits="userSpaceOnUse" style="mask-type:luminance">
      <path fill="#fff" d="m17.752 43.998.578 1.045 2.527-.322-.063-1.537-3.042.814Z"/>
    </mask>
    <g mask="url(#m)" opacity=".1">
      <mask id="n" width="6" height="3" x="19" y="42" maskUnits="userSpaceOnUse" style="mask-type:luminance">
        <path fill="#fff" d="m19.598 44.649 4.713-.51-.175-1.604-4.713.51.175 1.604Z"/>
      </mask>
      <g mask="url(#n)">
        <path fill="#292422" d="M19.494 43.795s.248.978 1.3.71c1.805-.459 3.342-1.97 3.342-1.97"/>
      </g>
    </g>
    <path fill="#F3C999" d="M20.032 51.582s-.903-.09-1.331 1.059c-.41.905.077 5.343.077 5.343l8.138-2.309 11.213-5.011"/>
    <path stroke="#090707" stroke-linecap="round" stroke-linejoin="round" stroke-width=".931" d="M20.032 51.582s-.903-.09-1.331 1.059c-.41.905.077 5.343.077 5.343l8.138-2.309 11.213-5.011"/>
    <g opacity=".1">
      <mask id="o" width="21" height="7" x="18" y="51" maskUnits="userSpaceOnUse" style="mask-type:luminance">
        <path fill="#fff" d="m18.77 57.666 19.502-2.124-.453-4.175-19.503 2.124.453 4.175Z"/>
      </mask>
      <g mask="url(#o)">
        <path fill="#292422" d="m37.83 51.38-19.19 5.118.287 1.128 7.745-1.649 11.159-4.597Z"/>
      </g>
    </g>
    <path fill="#100E0C" d="M29.282 35.703s-.524.453-1.729.44c0 0 1.352-.664.43-.83m4.646-5.023c-2.13-.82-7.524.632-9.234 1.146-1.729.44-7.05 1.553-7.019 4.506 0 0 .027 1.995 1.176 2.423 0 0 3.202.627 6.89-4.073 0 0 1.95-1.776 2.967-1.235 0 0 .547.262-.58.868 0 0-.544.379.06.546.602.167 1.746-.685 1.746-.685s.263-.227.34.074c.076.301.095.376-.281.472 0 0-.319.32.208.187.526-.134 1.145-.531 1.37-.908 0 0 .187-.208.263.093"/>
    <g opacity=".1">
      <mask id="p" width="2" height="2" x="35" y="43" maskUnits="userSpaceOnUse" style="mask-type:luminance">
        <path fill="#fff" d="m35.673 44.909 1.207-.13-.111-1.037-1.207.13.11 1.037Z"/>
      </mask>
      <g mask="url(#p)">
        <path fill="#292422" d="M35.639 44.333s.228.582.698.543c.451-.115.43-.83.43-.83l-1.168-.183.04.47Z"/>
      </g>
    </g>
    <path fill="#100E0C" d="M34.731 38.56s-.168.283-.374.416c-.207.132-.32.001-.375.415-.092.584-.015.885.024 1.355-.016.564.193 1.071.27 1.372.076.3.495 1.635.365 2.068-.335.886-.582.228-.865.06-.283-.168-.534-1.785-.67-2.95-.212-1.148-.124-2.691.495-3.089.62-.397 1.13.353 1.13.353Z"/>
    <path fill="#F3C999" d="M34.664 40.498s.783 3.083.693 3.986c-.11.509.078.621.078.621l.357-.17-.304-5.287-.281.152c-.263.227-.639.322-.543.698Z"/>
    <path fill="#F3C999" d="M35.979 44.727c-.584-.092-.912-2.33-.99-2.95-.136-1.166-.31-2.163.122-2.353.507-.209 2.224.876 1.405 3.005-.373 1.055-.217 2.296-.537 2.298Z"/>
    <g opacity=".1">
      <mask id="q" width="2" height="5" x="35" y="39" maskUnits="userSpaceOnUse" style="mask-type:luminance">
        <path fill="#fff" d="m35.773 43.947 1.145-.123-.43-3.893-1.145.123.43 3.893Z"/>
      </mask>
      <g mask="url(#q)">
        <path fill="#292422" d="M35.863 43.956c-.414-.055.275-1.751.066-2.258-.266-.733-.627-1.522-.345-1.673.376-.096 1.528.972.836 2.028-.393.66-.312 1.92-.557 1.903Z"/>
      </g>
    </g>
    <g opacity=".1">
      <mask id="r" width="3" height="4" x="34" y="39" maskUnits="userSpaceOnUse" style="mask-type:luminance">
        <path fill="#fff" d="m35.155 42.903 1.035-.12-.356-3.255-1.036.112.357 3.263Z"/>
      </mask>
      <g mask="url(#r)">
        <path fill="#292422" d="M35.062 41.117c.247.658.175 1.637.289 1.768.17.037.448-.755-.064-1.825-.322-.638-.023-1.035.108-1.148.282-.152.434.13.49.036.075-.02-.379-.545-.716-.299-.207.133-.43.83-.107 1.468Z"/>
      </g>
    </g>
    <g opacity=".1">
      <mask id="s" width="5" height="15" x="34" y="38" maskUnits="userSpaceOnUse" style="mask-type:luminance">
        <path fill="#fff" d="m35.834 52.408 2.827-.31-1.505-13.794-2.82.308 1.498 13.796Z"/>
      </mask>
      <g mask="url(#s)">
        <path fill="#292422" d="m35.597 38.5.262 13.941 2.291-1.062-.895-12.34-1.658-.538Z"/>
      </g>
    </g>
    <path fill="#100E0C" d="M21.566 39.986s3.268-1.631 4.34-1.824c1.165-.136 3.166 1.437 3.166 1.437s-2.901-1.024-4.87.678c-1.369 1.228-1.768.289-2.764.462l.128-.753Z"/>
    <path fill="#FACF09" d="M26.503 55.94s-.508-4.833 4.58-7.488l9.052-4.382 1.302 5.752-14.934 6.118Z"/>
    <path stroke="#090707" stroke-linecap="round" stroke-linejoin="round" stroke-width=".853" d="M26.503 55.94s-.508-4.833 4.58-7.488l9.052-4.382 1.302 5.752-14.934 6.118Z"/>
    <g opacity=".2" style="mix-blend-mode:multiply">
      <mask id="t" width="18" height="12" x="25" y="44" maskUnits="userSpaceOnUse" style="mask-type:luminance">
        <path fill="#fff" d="m26.36 55.785 15.748-1.715-1.073-9.828-15.75 1.714 1.074 9.829Z"/>
      </mask>
      <g mask="url(#t)">
        <path fill="#100E0C" d="M26.572 54.322s9.971-4.856 10.852-5.8c.805-.926.702-3.22.702-3.22l2.066-1.006 1.394 5.168L26.39 55.81l.182-1.487Z"/>
      </g>
    </g>
    <path fill="#100E0C" d="M28.054 48.502c.057.225.04.47-.167.603l-2.477 1.59c-.207.132-.376.096-.509-.11 0 0-.153-.602-.493-.996-.284-.488-.36-.47-.36-.47-.188-.111-.245-.337-.039-.47l2.852-2.005c.131-.113.376-.096.433.13l.76 1.728Z"/>
    <path fill="#FEFEFE" d="M21.617 90.56c-.076.02-.076.02-.056.095l1.352 4.059c.019.075.019.075.113.13 0 0 7.283.31 11.931.65 7.641.458 12.757.118 12.757.118.05-.012.094-.05.132-.113l-.429-3.573c-.019-.076-.094-.056-.094-.056s-4.553.037-12.55-.252c-6.285-.163-13.156-1.057-13.156-1.057Z"/>
    <path stroke="#090707" stroke-width=".853" d="M21.617 90.56c-.076.02-.076.02-.056.095l1.352 4.059c.019.075.019.075.113.13 0 0 7.283.31 11.931.65 7.641.458 12.757.118 12.757.118.05-.012.094-.05.132-.113l-.429-3.573c-.019-.076-.094-.056-.094-.056s-4.553.037-12.55-.252c-6.285-.163-13.156-1.057-13.156-1.057Z"/>
    <path fill="#FEFEFE" d="m28.631 94.54-4.064-.247-.427-3.253 4.14.228.351 3.272Z"/>
    <path fill="#F4D60C" fill-rule="evenodd" d="m29.54 91.188.504 3.554c.114.45-.26.866-.75.83l-4.93-.187a1.167 1.167 0 0 1-1.02-.861l-.503-3.554c-.114-.451.26-.867.75-.831l4.93.187c.49.036.905.41 1.02.862Zm-1.69.91c-.057-.226-.284-.488-.603-.487l-2.578-.065c-.32.001-.508.209-.45.434l.25 1.617c.058.226.285.489.53.506l2.653.046c.244.018.432-.19.374-.415l-.176-1.636Z" clip-rule="evenodd"/>
    <path stroke="#090707" stroke-linecap="round" stroke-linejoin="round" stroke-width=".543" d="m29.54 91.188.504 3.554c.114.45-.26.866-.75.83l-4.93-.187a1.167 1.167 0 0 1-1.02-.861l-.503-3.554c-.114-.451.26-.867.75-.831l4.93.187c.49.036.905.41 1.02.862Zm-1.69.91c-.057-.226-.284-.488-.603-.487l-2.578-.065c-.32.001-.508.209-.45.434l.25 1.617c.058.226.285.489.53.506l2.653.046c.244.018.432-.19.374-.415l-.176-1.636Z" clip-rule="evenodd"/>
    <g opacity=".3" style="mix-blend-mode:multiply">
      <mask id="u" width="9" height="9" x="22" y="88" maskUnits="userSpaceOnUse" style="mask-type:luminance">
        <path fill="#fff" d="m22.835 96.518 8.1-.882-.806-7.391-8.1.882.806 7.391Z"/>
      </mask>
      <g mask="url(#u)">
        <mask id="v" width="9" height="7" x="22" y="89" maskUnits="userSpaceOnUse" style="mask-type:luminance">
          <path fill="#fff" d="m22.556 94.004 7.491 1.73.359-4.982-7.49-1.722-.36 4.974Z"/>
        </mask>
        <g mask="url(#v)">
          <path fill="#181716" d="m22.765 90.669 4.95.262s.828.11.944.881c.04.79.635 3.76.635 3.76l.826-.53-.58-3.854-1.019-.862-5.25-.186-.506.529Z"/>
        </g>
      </g>
    </g>
    <g opacity=".3" style="mix-blend-mode:multiply">
      <mask id="w" width="4" height="5" x="28" y="91" maskUnits="userSpaceOnUse" style="mask-type:luminance">
        <path fill="#fff" d="m29.355 95.31 2.07-.23-.438-3.963-2.065.22.433 3.972Z"/>
      </mask>
      <g mask="url(#w)">
        <mask id="x" width="3" height="5" x="29" y="91" maskUnits="userSpaceOnUse" style="mask-type:luminance">
          <path fill="#fff" d="m29.299 94.803 1.48.344.263-3.532-1.49-.35-.253 3.538Z"/>
        </mask>
        <g mask="url(#x)">
          <path fill="#181716" d="m30.026 94.987.734.053-.504-3.554-.64.003.41 3.498Z"/>
          <path fill="#31302F" d="M30.044 94.742c-.095-.056-.058-.226-.077-.3l-.019-.076c-.019-.075-.057-.225-.001-.32l-.02-.075-.018-.075-.02-.075-.038-.15c.013.05.013.05 0 0l-.057-.226.075-.02-.094-.055c.075-.02-.02-.076.056-.095-.075.02 0 0-.095-.056l.076-.019c-.075.02 0 0-.02-.075l-.018-.075c-.02-.076.017-.245-.02-.395l-.02-.076-.02-.075.02.075-.02-.075-.018-.075c.056-.094 0 0-.02-.075l.02.075-.039-.15c.038-.063.05-.12.038-.17 0 0-.02-.075-.076.02.056-.095.056-.095.037-.17l-.038-.15.02.075-.02-.075-.019-.076-.02-.075-.018-.075-.02-.075-.018-.075.075-.02.075-.019c.05-.012.082.006.094.056l.15-.038.076-.019-.075.02c.05-.014.081.005.094.055-.02-.075-.094-.056-.094-.056l.075-.019.019.075.075-.019.075-.019.075-.019.095.056s-.114-.131.019.075l.019.075.019.075.02.076c-.076.019.018.075.018.075l.02.075c.018.075.038.15-.038.17.013.05.013.05 0 0l.02.075a26.603 26.603 0 0 0 .057.225l.019.075.02.076-.057.094.075-.02c-.056.095-.075.02-.056.095 0 0 .095.056.038.15a559.234 559.234 0 0 0 .077.301l.019.075-.075.02c.05-.013.081.006.094.056l-.056.094.057.225.02.076c-.057.094-.076.019-.076.019.013.05.013.05 0 0 .02.075.095.056.095.056l-.076.019.02.075c-.02-.075.075-.019.075-.019l.019.075s-.094-.056-.075.02l.075-.02-.075.02s.094.055.019.075l.075-.02a23 23 0 0 0-.075.02l.019.075.075-.02c-.05.013-.05.013 0 0l-.075.02.094.056c-.063-.038-.088-.031-.075.019l.02.075c-.014-.05-.014-.05 0 0 .012.05.012.05 0 0l.018.075-.075.02c.075-.02.094.055.094.055.02.076-.075.02-.056.095l.075-.02s.02.076-.075.02c.02.075.02.075.095.056-.05.013-.05.013 0 0l.019.075c-.076.02-.02-.075-.095-.056a62.475 62.475 0 0 0 .039.15l.019.076-.039-.15-.075.018c.095.056.075-.019.095.056l.019.076c-.05.012-.07.044-.056.094.075-.02.019.075.094.056l-.02-.075.02.075c-.02-.075-.075.019-.095-.056l.02.075.019.075c-.056.094 0 0-.075.02l-.15.037-.02-.075-.075.02c-.02-.076-.02-.076-.094-.057l-.076.02.076-.02.075-.019.075-.019-.075.02.094.055-.019-.075.094.056-.019-.075.095.056-.039-.15-.019-.075a.688.688 0 0 0-.001-.32l.019.075-.02-.075-.037-.15-.039-.151-.019-.075-.019-.075c-.019-.076.018-.245-.001-.32l-.076-.301.075-.02-.095-.055-.019-.075c.05-.013.044-.038-.019-.076.075-.019.056-.094.056-.094l-.019-.075-.038-.15-.038-.15c-.039-.151.037-.17.017-.245l-.095-.376c-.02-.076.056-.095-.038-.15l.075-.02-.038-.15-.038-.15.019.075c.056-.095-.02-.076-.02-.076l-.019-.075.095.056-.075.02-.15.038c-.095-.056-.02-.076-.095-.056-.075.019-.095-.056-.095-.056l.02.075-.095-.056-.15.038s-.131.113.056-.094l.02.075.037.15.039.15c.025.1.032.232.02.395.051.2.083.433.097.696-.056.095-.056.095-.037.17l.075-.02a.689.689 0 0 0 .001.32c.077.301.04.47.097.696.026.1.02.182-.018.245-.012.163.002.32.04.47l-.02-.075Z"/>
          <path fill="#31302F" d="M30.74 94.645c.05-.012.08.007.094.057l-.095-.056Z"/>
        </g>
      </g>
    </g>
    <g opacity=".2" style="mix-blend-mode:multiply">
      <mask id="y" width="17" height="7" x="31" y="91" maskUnits="userSpaceOnUse" style="mask-type:luminance">
        <path fill="#fff" d="m32.142 97.202 15.662-1.709-.467-4.355-15.67 1.71.475 4.354Z"/>
      </mask>
      <g mask="url(#y)">
        <path fill="#100E0C" d="M47.457 92.396s-9.914.36-13.245.165l1.246 1.124s-.335.886-1.295.89c-.94.079-2.314.028-2.314.028l.247.657s10.802.616 13.85.322l1.9-.083-.39-3.103Z"/>
      </g>
    </g>
    <path fill="#192B46" d="M4.126 73.395c.692-1.056 2.666-1.478 2.666-1.478s2.819-.877 5.597-2.543c2.702-1.648 5.454-.586 6.117.766 1.67 3.417.473 5.323.473 5.323s-1.867 3.676-7.56 5.843"/>
    <path stroke="#090707" stroke-linecap="round" stroke-linejoin="round" stroke-width=".931" d="M4.126 73.395c.692-1.056 2.666-1.478 2.666-1.478s2.819-.877 5.597-2.543c2.702-1.648 5.454-.586 6.117.766 1.67 3.417.473 5.323.473 5.323s-1.867 3.676-7.56 5.843"/>
    <path fill="#FDD00B" d="M18.98 75.463s1.196-1.905-.474-5.323c-.663-1.352-3.415-2.414-6.117-.766-1.445.928-2.967 1.554-4.057 1.992-.992 1.132-1.87 2.716-1.693 4.672.201 3.311 3.312 4.841 6.359 4.547 4.412-2.162 5.981-5.122 5.981-5.122Z"/>
    <path stroke="#090707" stroke-linecap="round" stroke-linejoin="round" stroke-width=".776" d="M18.98 75.463s1.196-1.905-.474-5.323c-.663-1.352-3.415-2.414-6.117-.766-1.445.928-2.967 1.554-4.057 1.992-.992 1.132-1.87 2.716-1.693 4.672.201 3.311 3.312 4.841 6.359 4.547 4.412-2.162 5.981-5.122 5.981-5.122Z"/>
    <g opacity=".2" style="mix-blend-mode:multiply">
      <mask id="z" width="18" height="11" x="0" y="72" maskUnits="userSpaceOnUse" style="mask-type:luminance">
        <path fill="#fff" d="m1.788 82.587 15.491-1.69-.869-7.983L.917 74.595l.87 7.992Z"/>
      </mask>
      <g mask="url(#z)">
        <path fill="#100E0C" d="M1.245 77.49s.46-2.599 1.287-2.81c.902-.229.349 2.633.349 2.633s.518-2.052 2.234-1.288c1.77.67 3.313.439 4.214-.11l.931-2.319s-.702 3.22 2.824 5.126c0 0 1.697 1.009 3.911-.674 0 0-3.001 2.364-4.636 2.86-1.56.476-8.604 3.307-11.114-3.419Z"/>
      </g>
    </g>
    <path fill="#EEC193" d="M17.302 70.126s3.312.118 4.578 1.318c1.34 1.18-1.407 1.078-1.407 1.078l-3.17-2.396Z"/>
    <path stroke="#090707" stroke-linecap="round" stroke-linejoin="round" stroke-width=".853" d="M17.302 70.126s3.312.118 4.578 1.318c1.34 1.18-1.407 1.078-1.407 1.078l-3.17-2.396Z"/>
    <path fill="#100E0C" d="M18.116 71.44c1.21 1.293.918 3.609-.638 5.045-1.612 1.53-3.907 1.633-5.136.265-1.209-1.294-.992-3.59.639-5.045 1.612-1.53 3.907-1.634 5.135-.265Z"/>
    <path fill="#FDCF0A" d="M19.934 83.624c.395-.02.601-.153.883-.304 1.595-.966 2.373-4.206 2.257-9.7-.06-.864-.514-1.39-.891-1.614-1.358-.935-3.688-.023-4.12.167a.922.922 0 0 0-.522 1.094c.19.432.717.618 1.15.428.882-.305 2.18-.555 2.557-.33.019.075.113.131.076.3.153 5.325-.665 7.774-1.435 8.21-.056.094-.338.246-.998-.147-2.432-1.383-3.53-3.185-3.554-4.22.024-.326.124-.564.299-.716 1.408-.758 4.302-1.654 4.302-1.654a.86.86 0 0 0 .617-1.037c-.115-.45-.587-.731-1.019-.541-.15.038-3.138.878-4.753 1.768-.694.417-1.143 1.171-1.14 2.13.028 1.995 1.73 4.284 4.426 5.76.755.448 1.414.52 1.865.406Z"/>
    <path stroke="#090707" stroke-linecap="round" stroke-linejoin="round" stroke-width=".388" d="M19.934 83.624c.395-.02.601-.153.883-.304 1.595-.966 2.373-4.206 2.257-9.7-.06-.864-.514-1.39-.891-1.614-1.358-.935-3.688-.023-4.12.167a.922.922 0 0 0-.522 1.094c.19.432.717.618 1.15.428.882-.305 2.18-.555 2.557-.33.019.075.113.131.076.3.153 5.325-.665 7.774-1.435 8.21-.056.094-.338.246-.998-.147-2.432-1.383-3.53-3.185-3.554-4.22.024-.326.124-.564.299-.716 1.408-.758 4.302-1.654 4.302-1.654a.86.86 0 0 0 .617-1.037c-.115-.45-.587-.731-1.019-.541-.15.038-3.138.878-4.753 1.768-.694.417-1.143 1.171-1.14 2.13.028 1.995 1.73 4.284 4.426 5.76.755.448 1.414.52 1.865.406Z"/>
    <path fill="#FDCF0A" d="M27.89 87.845c.846-.135 1.54-.552 1.857-1.512.223-.697.22-1.337-.177-1.956-.758-1.409-2.887-1.908-4.976-2.257l-.095-.056c-.04-.47-.139-1.806-.02-5.118.044-1.505-.35-2.633-1.18-3.382-.982-1.031-2.262-1.026-2.412-.988-.47.04-.845.455-.806.925.02.395.436.77.907.73.019.076.658.073 1.168.504.441.475.65 1.195.63 2.161-.221 6.06.08 6.303.552 6.583.208.188.377.225.961.316.828.11 3.332.514 3.806 1.434.114.131.152.282.06.546-.336.885-3.425.07-5.064-.394-2.222-.556-3.86-1.02-4.704-.245-.319.32-.843 1.094-.392.98.076-.02.338-.246.94-.08.377-.095 2.657.686 3.692.983 1.809.501 3.787 1.039 5.253.826Z"/>
    <path stroke="#090707" stroke-linecap="round" stroke-linejoin="round" stroke-width=".388" d="M27.89 87.845c.846-.135 1.54-.552 1.857-1.512.223-.697.22-1.337-.177-1.956-.758-1.409-2.887-1.908-4.976-2.257l-.095-.056c-.04-.47-.139-1.806-.02-5.118.044-1.505-.35-2.633-1.18-3.382-.982-1.031-2.262-1.026-2.412-.988-.47.04-.845.455-.806.925.02.395.436.77.907.73.019.076.658.073 1.168.504.441.475.65 1.195.63 2.161-.221 6.06.08 6.303.552 6.583.208.188.377.225.961.316.828.11 3.332.514 3.806 1.434.114.131.152.282.06.546-.336.885-3.425.07-5.064-.394-2.222-.556-3.86-1.02-4.704-.245-.319.32-.843 1.094-.392.98.076-.02.338-.246.94-.08.377-.095 2.657.686 3.692.983 1.809.501 3.787 1.039 5.253.826Z"/>
    <g opacity=".2" style="mix-blend-mode:multiply">
      <mask id="A" width="7" height="12" x="19" y="71" maskUnits="userSpaceOnUse" style="mask-type:luminance">
        <path fill="#fff" d="m20.866 82.571 4.252-.465-1.16-10.639-4.254.458 1.162 10.646Z"/>
      </mask>
      <g mask="url(#A)">
        <path fill="#100E0C" d="M21.561 71.765s.905.41.53.826c-.394.34-.771.116-.771.116l.836 2.028s.287 1.128-.974 1.208l.208.188s-.046 2.653-.697 4.5c0 0 .772.203.511.75-.186.527-.013 1.524.493.995.43-.51 1.025-2.582 1.025-2.582l.063-2.897s.224-.698.732-.587c.49.036.967 1.916.967 1.916s.512-3.653-1.544-5.13c0 0-.042-1.11-1.379-1.331Z"/>
      </g>
    </g>
    <g opacity=".2" style="mix-blend-mode:multiply">
      <mask id="B" width="6" height="8" x="13" y="75" maskUnits="userSpaceOnUse" style="mask-type:luminance">
        <path fill="#fff" d="m14.176 82.135 4.01-.443-.63-5.78-4.01.436.63 5.787Z"/>
      </mask>
      <g mask="url(#B)">
        <path fill="#100E0C" d="M18.156 81.355s-1.452-.672-1.656.1c-.148.679-.544.38-.544.38s-2.172-2.25-2.216-3.68c.013-1.524.414.055.637-.642.223-.697-.305-1.203-.305-1.203l.564.016.779 1.804s.57 1.615 2.74 3.225Z"/>
      </g>
    </g>
    <g opacity=".2" style="mix-blend-mode:multiply">
      <mask id="C" width="7" height="5" x="23" y="82" maskUnits="userSpaceOnUse" style="mask-type:luminance">
        <path fill="#fff" d="m23.85 86.655 5.327-.578-.341-3.171-5.336.58.35 3.169Z"/>
      </mask>
      <g mask="url(#C)">
        <path fill="#100E0C" d="M23.508 83.516s3.968-.449 5.1.544c1.078 1.087.293 2.407-2.493 2.155 0 0 1.94.387 2.067-.686.108-1.148-1.925-1.591-4.674-2.013Z"/>
      </g>
    </g>
    <path fill="#EEC193" d="M12.787 75.035c-.094-.056-.808.286-.902.23-.605-.807-.122-2.37.909-3.353 1.592-1.606 3.545-2.742 6.562-.948 1.773.99 2.207 1.44.542 3.704-1.629 2.095-1.963 3.3-4.395 1.918-1.282-.635-2.149-.894-2.716-1.55Z"/>
    <path stroke="#090707" stroke-width=".853" d="M12.787 75.035c-.094-.056-.808.286-.902.23-.605-.807-.122-2.37.909-3.353 1.592-1.606 3.545-2.742 6.562-.948 1.773.99 2.207 1.44.542 3.704-1.629 2.095-1.963 3.3-4.395 1.918-1.282-.635-2.149-.894-2.716-1.55Z"/>
    <path fill="#EEC193" d="m16.156 75.38.854 1.784c.17.357-.015.884-.447 1.074-.432.19-.96.004-1.13-.353l-.988-2.31"/>
    <path stroke="#090707" stroke-linecap="round" stroke-linejoin="round" stroke-width=".853" d="m16.156 75.38.854 1.784c.17.357-.015.884-.447 1.074-.432.19-.96.004-1.13-.353l-.988-2.31"/>
    <path fill="#EEC193" d="m17.524 73.831 1.252 2.724c.171.356-.09.903-.522 1.093-.432.19-.94.079-1.13-.353l-1.31-2.629"/>
    <path stroke="#090707" stroke-linecap="round" stroke-linejoin="round" stroke-width=".853" d="m17.524 73.831 1.252 2.724c.171.356-.09.903-.522 1.093-.432.19-.94.079-1.13-.353l-1.31-2.629"/>
    <path fill="#EEC193" d="m19.233 72.997 1.271 2.798c.171.357-.015.885-.522 1.094-.432.19-1.016.098-1.206-.334l-1.043-2.216"/>
    <path stroke="#090707" stroke-linecap="round" stroke-linejoin="round" stroke-width=".853" d="m19.233 72.997 1.271 2.798c.171.357-.015.885-.522 1.094-.432.19-1.016.098-1.206-.334l-1.043-2.216"/>
    <path fill="#EEC193" d="m20.847 72.106 1.215 2.573c.19.432-.015.884-.448 1.074a.966.966 0 0 1-1.243-.484l-.948-1.84"/>
    <path stroke="#090707" stroke-linecap="round" stroke-linejoin="round" stroke-width=".853" d="m20.847 72.106 1.215 2.573c.19.432-.015.884-.448 1.074a.966.966 0 0 1-1.243-.484l-.948-1.84"/>
    <path fill="#192B46" d="M35.339 54.174c1.078-3.316 4.288-5.172 7.5-6.389 3.288-1.236 12.788-1.65 15.054-9.11 2.266-7.46-1.28-9.44 2.737-11.902 0 0 1.745-1.324 3.825 1.19 0 0 5.692 2.555 1.062 16.458-4.705 13.923-16.92 17.509-18.932 17.78-1.392.194-3.386.22-5.383-.392"/>
    <path stroke="#090707" stroke-linecap="round" stroke-linejoin="round" stroke-width=".931" d="M35.339 54.174c1.078-3.316 4.288-5.172 7.5-6.389 3.288-1.236 12.788-1.65 15.054-9.11 2.266-7.46-1.28-9.44 2.737-11.902 0 0 1.745-1.324 3.825 1.19 0 0 5.692 2.555 1.062 16.458-4.705 13.923-16.92 17.509-18.932 17.78-1.392.194-3.386.22-5.383-.392"/>
    <path fill="#FDD00B" d="M59.233 34.813s-.101-1.655.427-1.47c.602.168.987 2.311.987 2.311s.981.711.817 1.954c0 0 1.775 1.63 4.217.529 2.216-1.044 2.492-2.475 2.225-3.528 0 0-.389-3.103-1.658-5.261-.044-1.43.04-4.253-1.923-5.675-1.868-1.366-7.394.199-7.324 3.623 0 0-.258 1.186.992 3.27 0 0 .643.957.596 3.29l.644.957Z"/>
    <path stroke="#090707" stroke-linecap="round" stroke-linejoin="round" stroke-width=".776" d="M59.233 34.813s-.101-1.655.427-1.47c.602.168.987 2.311.987 2.311s.981.711.817 1.954c0 0 1.775 1.63 4.217.529 2.216-1.044 2.492-2.475 2.225-3.528 0 0-.389-3.103-1.658-5.261-.044-1.43.04-4.253-1.923-5.675-1.868-1.366-7.394.199-7.324 3.623 0 0-.258 1.186.992 3.27 0 0 .643.957.596 3.29l.644.957Z"/>
    <g opacity=".2" style="mix-blend-mode:multiply">
      <mask id="D" width="32" height="31" x="38" y="31" maskUnits="userSpaceOnUse" style="mask-type:luminance">
        <path fill="#fff" d="m41.584 61.831 27.687-3.02-2.995-27.494-27.69 3.013 2.998 27.501Z"/>
      </mask>
      <g mask="url(#D)">
        <path fill="#100E0C" d="M64.457 38.047s1.971-1.061 1.379-3.392c-.517-2.35-.897-3.214-.897-3.214s-.99 1.773-2.853 1.686c-1.882-.162-.862 1.02-.862 1.02s.696-.097.849.504c.153.601.88 3.778.335 3.837l1.073.127s.53.826-.617 1.038c-1.052.267-1.238.795-1.63 1.775-.485.924-.302 4.479-1.683 7.231 0 0 1.249 1.764-.756 3.955-1.93 2.17-2.314.028-2.314.028s-3.001 2.363-5.444 3.144c-2.499.876-10.606 1.416-9.752 3.2.929 1.765 5.312 1.691 5.538 1.634.245.018-3.534.898-3.534.898s4.16.303 10.374-2.958c6.215-3.26 11.905-10.79 12.675-15.948.77-5.159.484-5.967.484-5.967s-1.911 1.927-2.365 1.402Z"/>
      </g>
    </g>
    <path fill="#100E0C" d="M65.465 26.585c.195 1.711-1.473 3.336-3.749 3.514-2.181.235-4.162-.943-4.357-2.654-.195-1.712 1.493-3.261 3.75-3.515 2.181-.234 4.161.943 4.356 2.655Z"/>
    <path fill="#EEC193" d="m57.249 23.23 5.23-4.93s1.728-.76 2.241.63c.42 1.334.418 5.737.18 7.318-.295 1.676-2.79 3.511-3.826 3.214-1.036-.297-3.564-2.055-2.93-3.657.614-1.677-.895-2.574-.895-2.574Z"/>
    <path stroke="#090707" stroke-width=".853" d="m57.249 23.23 5.23-4.93s1.728-.76 2.241.63c.42 1.334.418 5.737.18 7.318-.295 1.676-2.79 3.511-3.826 3.214-1.036-.297-3.564-2.055-2.93-3.657.614-1.677-.895-2.574-.895-2.574Z"/>
    <path fill="#100F0D" d="M48.576 13.989c-6.663-5.43-13.832-5.608-14.342-6.04-.585-.41 2.947-1.629 3.96-2.687C39.26 4.11 47.342-2.827 57.055 2.95"/>
    <path stroke="#090707" stroke-linejoin="round" stroke-width=".853" d="M48.576 13.989c-6.663-5.43-13.832-5.608-14.342-6.04-.585-.41 2.947-1.629 3.96-2.687C39.26 4.11 47.342-2.827 57.055 2.95"/>
    <path fill="#100F0D" d="m62.59 22.833.566 5.06s-2.109-.425-3.448-1.285c-.68-.468-.205.452-1.55-1.688-4.59-4.836-9.132-6.643-14.55-11.269-3.588-3.09-4.754-2.953-8.315-4.37 0 0 1.581.239 4.552-.356 2.99-.52 6.987-3.057 9.494-1.693 2.508 1.363 14.266 10.46 14.422 11.702.155 1.241-1.17 3.9-1.17 3.9Z"/>
    <path stroke="#090707" stroke-linejoin="round" stroke-width=".853" d="m62.59 22.833.566 5.06s-2.109-.425-3.448-1.285c-.68-.468-.205.452-1.55-1.688-4.59-4.836-9.132-6.643-14.55-11.269-3.588-3.09-4.754-2.953-8.315-4.37 0 0 1.581.239 4.552-.356 2.99-.52 6.987-3.057 9.494-1.693 2.508 1.363 14.266 10.46 14.422 11.702.155 1.241-1.17 3.9-1.17 3.9Z"/>
    <path fill="#100E0C" d="M41.207 10.82s1.773 1.31 3.114 2.49c1.416 1.16 5.587 4.343 8.284 6.138 2.792 1.852 4.265 3.238 4.265 3.238s.831.75 1.055.373c.28-.472-.26-4.176-1.753-5.638-1.511-1.537-6.93-6.163-8.399-6.59-1.525-.332-6.701-.857-6.566-.011Z"/>
    <path fill="#192B46" d="M40.853 6.908s9.145-9.049 18.466-2.614c8.527 5.837 3.703 18.03 3.894 23.504.057.225-.866.06-1.547-1.048-.569-.976-3.502-5.273-10.26-10.759-6.663-5.43-13.608-5.986-14.099-6.341-.51-.43 2.273-1.138 3.546-2.742Z"/>
    <path stroke="#090707" stroke-linecap="round" stroke-linejoin="round" stroke-width=".853" d="M40.853 6.908s9.145-9.049 18.466-2.614c8.527 5.837 3.703 18.03 3.894 23.504.057.225-.866.06-1.547-1.048-.569-.976-3.502-5.273-10.26-10.759-6.663-5.43-13.608-5.986-14.099-6.341-.51-.43 2.273-1.138 3.546-2.742Z"/>
    <path fill="#100F0D" d="m34.495 7.403.639-.322Z"/>
    <path stroke="#090707" stroke-linejoin="round" stroke-width=".621" d="m34.495 7.403.639-.322"/>
    <path fill="#100F0D" d="m39.355 8.89-1.595.965s-1.844-.011-3.183-.871c-.66-.393-.757-1.089-.138-1.486l.413-.265"/>
    <path stroke="#090707" stroke-linejoin="round" stroke-width=".853" d="m39.355 8.89-1.595.965s-1.844-.011-3.183-.871c-.66-.393-.757-1.089-.138-1.486l.413-.265"/>
    <path fill="#192B46" d="M39.071 8.401c-1.537 1.511-4.42.563-4.42.563s2.261.706 3.768.964"/>
    <path stroke="#090707" stroke-linecap="round" stroke-linejoin="round" stroke-width=".853" d="M39.071 8.401c-1.537 1.511-4.42.563-4.42.563s2.261.706 3.768.964"/>
    <path stroke="#CDAE2C" stroke-width="1.396" d="M37.815 9.44c.395-.02 2.798-1.27 3.753-2.554.411-.585 9.168-8.014 17.659-2.008 7.906 5.594 3.494 17.522 3.57 22.545"/>
    <path stroke="#090707" stroke-linecap="round" stroke-linejoin="round" stroke-width=".853" d="M40.852 6.908s9.146-9.049 18.466-2.613c8.528 5.836 3.703 18.029 3.894 23.503.057.226-.865.06-1.547-1.047-.568-.977-3.502-5.274-10.259-10.76-6.663-5.43-13.57-5.835-14.155-6.247-.51-.43 2.328-1.232 3.601-2.836Z"/>
    <g style="mix-blend-mode:multiply">
      <mask id="E" width="14" height="27" x="53" y="2" maskUnits="userSpaceOnUse" style="mask-type:luminance">
        <path fill="#fff" d="m56.443 28.814 9.588-1.044-2.763-25.384-9.586 1.052 2.76 25.376Z"/>
      </mask>
      <g mask="url(#E)">
        <path fill="#B1ADAC" d="M57 3.043s.938 4.324.94 9.366c-.102 2.748-2.55 6.972-2.55 6.972l6.938 8.402s.905.41.942.24c.13-.113 1.108-9.806 1.164-9.9.037-.17.168-5.326-.194-6.435-.381-1.183-.404-2.218-1.426-3.72-1.022-1.5-2.458-3.056-2.93-3.337C59.507 4.407 57 3.043 57 3.043Z"/>
      </g>
    </g>
    <path fill="#EEC193" d="m62.787 20.142-1.992.666c-.357.17-1.054-.052-1.168-.503-.19-.432-.004-.96.428-1.15l2.63-.988s1.896-1.043 2.226 1.515c.134.526.274 2.652.222 3.705-.087 1.863.011 2.88-.718 4.105"/>
    <path stroke="#090707" stroke-linecap="round" stroke-linejoin="round" stroke-width=".853" d="m62.787 20.142-1.992.666c-.357.17-1.054-.052-1.168-.503-.19-.432-.004-.96.428-1.15l2.63-.988s1.896-1.043 2.226 1.515c.134.526.274 2.652.222 3.705-.087 1.863.011 2.88-.718 4.105"/>
    <path fill="#EEC193" d="m63.986 23.599-2.48.95c-.376.096-.562.624-.447 1.075.19.432.661.712 1.093.522l1.823-.703"/>
    <path stroke="#090707" stroke-linecap="round" stroke-linejoin="round" stroke-width=".853" d="m63.986 23.599-2.48.95c-.376.096-.562.624-.447 1.075.19.432.661.712 1.093.522l1.823-.703"/>
    <path fill="#EEC193" d="m63.847 21.793-2.78 1.027c-.357.17-.543.698-.429 1.15.19.431.662.712 1.094.522l2.254-.893"/>
    <path stroke="#090707" stroke-linecap="round" stroke-linejoin="round" stroke-width=".853" d="m63.847 21.793-2.78 1.027c-.357.17-.543.698-.429 1.15.19.431.662.712 1.094.522l2.254-.893"/>
    <path fill="#EEC193" d="m63.219 19.952-2.837 1.122c-.451.114-.637.642-.428 1.149.19.432.661.712 1.112.598l2.78-1.027"/>
    <path stroke="#090707" stroke-linecap="round" stroke-linejoin="round" stroke-width=".853" d="m63.219 19.952-2.837 1.122c-.451.114-.637.642-.428 1.149.19.432.661.712 1.112.598l2.78-1.027"/>
    <path fill="#EEC193" d="M61.338 29.555c-1.974.422-3.164-.797-3.164-.797-1.304-1.35-.934-3.044-.934-3.044l-.403-1.899c-.095-.376.166-.922.617-1.037.526-.134.979.071 1.169.503l.212 1.467s.097.696 1.66 1.179c0 0 1.04 1.256 1.532 1.932"/>
    <path stroke="#090707" stroke-linecap="round" stroke-linejoin="round" stroke-width=".853" d="M61.338 29.555c-1.974.422-3.164-.797-3.164-.797-1.304-1.35-.934-3.044-.934-3.044l-.403-1.899c-.095-.376.166-.922.617-1.037.526-.134.979.071 1.169.503l.212 1.467s.097.696 1.66 1.179c0 0 1.04 1.256 1.532 1.932"/>
    <g opacity=".2" style="mix-blend-mode:multiply">
      <mask id="F" width="16" height="9" x="35" y="45" maskUnits="userSpaceOnUse" style="mask-type:luminance">
        <path fill="#fff" d="m36.05 53.033 14.518-1.578-.615-5.63L35.442 47.4l.607 5.633Z"/>
      </mask>
      <g mask="url(#F)">
        <path fill="#100E0C" d="M37.92 50.157s-1.65 1.7-1.91 2.566c-.165.923 1.672-.665 3.61-.598 2.014.049 6.64-.647 8.29-2.027 1.575-1.36 2.618-4.187 1.808-4.222-.734-.053-3.177.728-3.177.728l-8.621 3.553Z"/>
      </g>
    </g>
    <path fill="#FACF09" d="M37.941 50.872c.17.356.04.79-.316.96-.357.171-.79.041-1.055-.372l-.512-1.07c-.246-.338-.116-.771.316-.961.356-.17.809.034.98.391l.587 1.052Z"/>
    <path stroke="#090707" stroke-linecap="round" stroke-linejoin="round" stroke-width=".698" d="M37.941 50.872c.17.356.04.79-.316.96-.357.171-.79.041-1.055-.372l-.512-1.07c-.246-.338-.116-.771.316-.961.356-.17.809.034.98.391l.587 1.052Z"/>
    <path fill="#F3971E" d="M39.427 50.733a.62.62 0 0 1-.24.942c-.433.19-.866.06-1.056-.372l-.587-1.051c-.17-.357-.04-.79.316-.96.357-.172.81.033 1.055.371l.512 1.07Z"/>
    <path stroke="#090707" stroke-linecap="round" stroke-linejoin="round" stroke-width=".698" d="M39.427 50.733a.62.62 0 0 1-.24.942c-.433.19-.866.06-1.056-.372l-.587-1.051c-.17-.357-.04-.79.316-.96.357-.172.81.033 1.055.371l.512 1.07Z"/>
    <path fill="#FACF09" d="M40.855 50.37c.19.433.06.866-.296 1.037-.357.17-.81-.035-1.055-.372l-.513-1.07c-.246-.338-.04-.79.316-.962.357-.17.79-.04.961.316l.587 1.052Z"/>
    <path stroke="#090707" stroke-linecap="round" stroke-linejoin="round" stroke-width=".698" d="M40.855 50.37c.19.433.06.866-.296 1.037-.357.17-.81-.035-1.055-.372l-.513-1.07c-.246-.338-.04-.79.316-.962.357-.17.79-.04.961.316l.587 1.052Z"/>
    <path fill="#F3971E" d="M42.717 50.137c.171.357.041.79-.39.98l-.132.114a.805.805 0 0 1-1.055-.372l-.588-1.052c-.17-.357-.04-.79.392-.98l.13-.113c.358-.17.885.015 1.056.372l.587 1.051Z"/>
    <path stroke="#090707" stroke-linecap="round" stroke-linejoin="round" stroke-width=".698" d="M42.717 50.137c.171.357.041.79-.39.98l-.132.114a.805.805 0 0 1-1.055-.372l-.588-1.052c-.17-.357-.04-.79.392-.98l.13-.113c.358-.17.885.015 1.056.372l.587 1.051Z"/>
    <path fill="#FACF09" d="M48.91 45.842c.17.357.04.79-.317.96-.357.171-.809-.034-1.055-.371l-.512-1.07a.621.621 0 0 1 .24-.942c.433-.19.866-.06 1.037.296l.606 1.127Z"/>
    <path stroke="#090707" stroke-linecap="round" stroke-linejoin="round" stroke-width=".698" d="M48.91 45.842c.17.357.04.79-.317.96-.357.171-.809-.034-1.055-.371l-.512-1.07a.621.621 0 0 1 .24-.942c.433-.19.866-.06 1.037.296l.606 1.127Z"/>
    <path fill="#F3971E" d="M47.954 46.805c.17.357.04.79-.316.961-.357.171-.866.06-1.036-.297l-.607-1.126c-.17-.357-.04-.79.316-.961.357-.17.885.015 1.055.372l.588 1.051Z"/>
    <path stroke="#090707" stroke-linecap="round" stroke-linejoin="round" stroke-width=".698" d="M47.954 46.805c.17.357.04.79-.316.961-.357.171-.866.06-1.036-.297l-.607-1.126c-.17-.357-.04-.79.316-.961.357-.17.885.015 1.055.372l.588 1.051Z"/>
    <path fill="#FACF09" d="M46.81 47.656c.17.357.04.79-.317.961-.357.17-.865.06-1.036-.297l-.606-1.126c-.171-.357-.041-.79.316-.961.356-.17.884.015 1.055.372l.587 1.051Z"/>
    <path stroke="#090707" stroke-linecap="round" stroke-linejoin="round" stroke-width=".698" d="M46.81 47.656c.17.357.04.79-.317.961-.357.17-.865.06-1.036-.297l-.606-1.126c-.171-.357-.041-.79.316-.961.356-.17.884.015 1.055.372l.587 1.051Z"/>
    <path fill="#F3971E" d="M45.722 48.733c.171.357.06.866-.372 1.056l-.15.038a.805.805 0 0 1-1.055-.372l-.569-.977c-.19-.432-.06-.865.297-1.036l.226-.057c.357-.17.865-.06 1.036.297l.587 1.051Z"/>
    <path stroke="#090707" stroke-linecap="round" stroke-linejoin="round" stroke-width=".698" d="M45.722 48.733c.171.357.06.866-.372 1.056l-.15.038a.805.805 0 0 1-1.055-.372l-.569-.977c-.19-.432-.06-.865.297-1.036l.226-.057c.357-.17.865-.06 1.036.297l.587 1.051Z"/>
    <path fill="#FACF09" d="M44.221 49.755c.17.357.04.79-.391.98l-.075.02c-.432.189-.866.059-1.036-.298l-.607-1.126c-.17-.357-.04-.79.316-.961l.15-.038c.357-.171.885.015 1.056.372l.587 1.051Z"/>
    <path stroke="#090707" stroke-linecap="round" stroke-linejoin="round" stroke-width=".698" d="M44.221 49.755c.17.357.04.79-.391.98l-.075.02c-.432.189-.866.059-1.036-.298l-.607-1.126c-.17-.357-.04-.79.316-.961l.15-.038c.357-.171.885.015 1.056.372l.587 1.051Z"/>
    <path fill="#FACF09" d="M48 44.472c.342.714-2.134 2.624-5.59 4.143-3.512 1.613-6.162 2.207-6.485 1.568-.416-.694 1.703-2.434 5.14-4.028 3.437-1.594 6.538-2.302 6.936-1.683Z"/>
    <path stroke="#090707" stroke-linecap="round" stroke-linejoin="round" stroke-width=".698" d="M48 44.472c.342.714-2.134 2.624-5.59 4.143-3.512 1.613-6.162 2.207-6.485 1.568-.416-.694 1.703-2.434 5.14-4.028 3.437-1.594 6.538-2.302 6.936-1.683Z"/>
    <g opacity=".2" style="mix-blend-mode:multiply">
      <mask id="G" width="12" height="6" x="37" y="44" maskUnits="userSpaceOnUse" style="mask-type:luminance">
        <path fill="#fff" d="m37.92 49.684 10.639-1.16-.463-4.308-10.649 1.154.473 4.314Z"/>
      </mask>
      <g mask="url(#G)">
        <path fill="#100E0C" d="M37.78 48.031c-.433.19 7.157-2.7 5.508-1-1.274 1.285-3.697 2.46-3.697 2.46s4.36-1.428 5.336-1.996c1.051-.587 5.312-3.351 1.926-3.131-3.386.22-8.36 3.326-9.074 3.667Z"/>
      </g>
    </g>
  </g>
</svg>
