<svg xmlns="http://www.w3.org/2000/svg" width="53" height="58" fill="none" viewBox="0 0 53 58">
  <path fill="#050505" d="M36.5 57.15c-.1.9-8.3 1-18.4.1C8 56.45-.1 54.95 0 54.05c.1-.9 8.3-1 18.4-.1 10.1.8 18.2 2.3 18.1 3.2Z" opacity=".3"/>
  <path fill="#831618" d="M28.701 28.35s13.5 5.1 12.1 10.2c-1.4 5.1-5.6 13.8-14.8 7-9.3-6.8 2.7-17.2 2.7-17.2Z"/>
  <path fill="#050505" fill-rule="evenodd" d="M31.6 48.25c-1.8-.133-3.732-.967-5.799-2.5-2.3-1.7-3.5-3.8-3.6-6.2-.1-3 1.6-5.9 3.1-7.9 1.6-2.1 3.2-3.5 3.2-3.5.067-.067.167-.1.3-.1.5.2 13.7 5.3 12.2 10.5-.6 2.4-2.5 8-6.7 9.4a7.329 7.329 0 0 1-2.7.3Zm-2.899-19.6c-.8.7-6.2 5.8-6 10.9.133 2.267 1.267 4.2 3.4 5.8 3 2.2 5.7 2.9 8 2.1 4-1.3 5.8-6.7 6.4-9 1.3-4.5-10.3-9.3-11.8-9.8Z" clip-rule="evenodd"/>
  <path fill="#050505" d="M22.1 53.75s.501 1.3-1.799 2.1l10.8 1.3-.1-2.3-8.9-1.1Z"/>
  <path fill="#050505" fill-rule="evenodd" d="m31.1 57.45-10.9-1.4c-.1 0-.199-.1-.199-.2s.1-.2.2-.3c.8-.2 1.4-.6 1.6-1.1.2-.3.1-.6.1-.6-.067-.067-.067-.167 0-.3.067-.067.133-.067.2 0l8.9 1c.2.1.2.2.3.3v2.5c-.067.067-.133.1-.2.1Zm-9.9-1.8 9.601 1.3v-1.9l-8.4-1c0 .2 0 .4-.2.7-.2.334-.533.633-1 .9Z" clip-rule="evenodd"/>
  <path fill="#2B6EB6" d="m31.501 46.95-.1 8.6-9.7-1-1.3-8.2"/>
  <path fill="#050505" d="m31.4 55.85-9.7-1c-.1 0-.2-.1-.2-.2l-1.3-8.2c-.1-.2 0-.3.2-.3.1 0 .2 0 .3.2l1.3 8 9.2.9v-8.3c0-.1.1-.2.3-.2.1 0 .2.1.2.2v8.6c0 .067-.033.133-.1.2-.066.067-.133.1-.2.1Z"/>
  <path fill="#050505" d="M31.4 54.65s-.3-2.4-2.2-2.7c-1.9-.3-7.3.3-8 .2l-.1-2.3 10.5-.3s-.3 3.4-.2 5.1Z" opacity=".2" style="mix-blend-mode:multiply"/>
  <path fill="#050505" d="M7.2 51.75s.1 1.1-3.1 2l10.8 1.3.8-2.2-8.5-1.1Z"/>
  <path fill="#050505" fill-rule="evenodd" d="m14.801 55.35-10.8-1.4c-.1 0-.2-.1-.2-.2 0-.2.1-.3.2-.3 2.8-.7 2.9-1.6 2.9-1.6 0-.133.033-.2.1-.2.067-.067.133-.1.2-.1l8.5 1c.133.067.2.133.2.2.066.067.1.133.1.2l-.9 2.2c-.1.1-.2.2-.3.2Zm-9.5-1.8 9.4 1.2.7-1.7-8-1c-.1.4-.6 1-2.1 1.5Z" clip-rule="evenodd"/>
  <path fill="#2B6EB6" d="m9.801 44.15-3 7.7 9.1 1.7 4.5-7.5"/>
  <path fill="#050505" d="m15.9 53.85-9.099-1.7-.2-.2c-.067-.067-.067-.134 0-.2l3-7.7c0-.1.2-.2.3-.1.1 0 .2.2.1.3l-2.8 7.4 8.6 1.6 4.4-7.3c0-.1.2-.2.3-.1.1.1.2.2.1.4l-4.4 7.5c-.067.066-.167.1-.3.1Z"/>
  <path fill="#050505" d="M16.9 52.05s-2.3-.2-4.2-1c-2-.8-5-1.6-5-1.6l1.4-3.6 9.701 2.6-1.9 3.6Z" opacity=".2" style="mix-blend-mode:multiply"/>
  <path fill="#B3805F" d="M7.1 18.85s-2.099-2.1-1.799-4.4c.3-2.2 4.8-3.8 5.9-1.1.9 2.3.5 3.8-.1 4.1-.7.4-4 1.4-4 1.4Z"/>
  <path fill="#050505" fill-rule="evenodd" d="M7.1 19.15c-.066 0-.132-.034-.2-.1-.1-.1-2.199-2.2-1.899-4.6.2-1.5 1.9-2.6 3.5-2.7 1.4-.2 2.5.4 2.9 1.5.9 2.3.6 4-.2 4.5-.6.3-3.9 1.3-4 1.4h-.1Zm2.1-7c-.266 0-.499.033-.699.1-1.3.1-2.8 1-3 2.3-.2 1.8 1.3 3.6 1.7 4 1-.3 3.3-1 3.8-1.3.5-.3.8-1.7-.1-3.8-.3-.9-1.1-1.2-1.7-1.3Z" clip-rule="evenodd"/>
  <path fill="#050505" fill-rule="evenodd" d="M6.6 16.55c-.7 0-1.3-.3-1.4-.7 0-.1.1-.2.2-.3.1 0 .3.1.3.2.1.1.601.4 1.601.3.6 0 2.7-.3 2.6-1.8 0-.1.1-.2.2-.2.2 0 .3.1.3.2.1 2-2.3 2.3-3.1 2.3h-.7Z" clip-rule="evenodd"/>
  <path fill="#B3805F" d="M11.501 14.15c0-.4-.4-.8-.8-.8l-1.4-.1c-.4 0-.8.4-.8.8s.3.8.8.8l.8.1"/>
  <path fill="#050505" d="m10.1 15.25-.799-.1c-.333-.067-.6-.2-.8-.4-.133-.2-.2-.434-.2-.7 0-.267.1-.5.3-.7.2-.2.433-.3.7-.3h1.4c.6 0 1 .5 1 1.1 0 .1-.1.2-.2.2-.2 0-.3-.1-.3-.2 0-.3-.2-.6-.5-.6H9.3a.888.888 0 0 0-.4.1.887.887 0 0 0-.1.4c0 .133.033.267.1.4.133.133.267.2.4.2l.9.1c.1 0 .2.1.2.3 0 .1-.1.2-.3.2Z"/>
  <path fill="#050505" d="M10.001 14.95s-1.6 0-1.5-.9c.2-.8-.2-.6-.2-.6s-.7.5-.5 1.5c.3 1 2 1 2.2 0Z" opacity=".1" style="mix-blend-mode:multiply"/>
  <path fill="#050505" d="M10.2 15.05s.101.9-1.199 1.5c-1.2.6-1.8.8-1.7 1.1.2.4.5.8.2 1-.3.2-1.2-.3-1.5-1.1-.3-.7-.4-1.5-.4-1.5s1.8.7 2.6.4c.9-.4 2-1.4 2-1.4Z" opacity=".1" style="mix-blend-mode:multiply"/>
  <path fill="#F1F1F1" d="M17.501 35.65c3.4-1.7 1.9-4.5 1.9-4.5l-7.1-15.6-7 2.7 7.5 16.4s1.1 2.9 4.7 1Z"/>
  <path fill="#050505" fill-rule="evenodd" d="M15.001 36.55c-.333 0-.6-.067-.8-.2-1.2-.4-1.6-1.4-1.7-1.6l-7.5-16.4v-.2c.067-.067.133-.1.2-.1l7.1-2.7c.1 0 .2 0 .3.1l7 15.6c.1.1.6 1.2.2 2.5-.267 1-1 1.8-2.2 2.4-.933.466-1.8.666-2.6.6Zm-9.4-18.1 7.4 16.1v.1s.4.9 1.3 1.2c.867.333 1.9.2 3.1-.4 1.067-.534 1.733-1.2 2-2 .3-1.1-.2-2.2-.2-2.2h-.1l-6.9-15.3-6.6 2.5Z" clip-rule="evenodd"/>
  <path fill="#050505" d="M12 26.55c-2.6-2.2-3.6-8-2.3-8.7.8-.4 2.1-1.1 3-1.5l6.7 14.8s1.5 2.8-1.9 4.5c-3.6 1.9-4.7-1-4.7-1l-2.9-6.2c2.1 0 4.4.1 2.1-1.9Z" opacity=".1" style="mix-blend-mode:multiply"/>
  <path fill="#F1F1F1" d="M22.7 34.25s-2.7-3.7-3.8-4.2c-1.1-.4-1.999-1.1-3.099-.1-1.3 1.2-4.9 5.2-7.8 13.4.3 1.9 2.4 3.3 6.6 4.7 5.6 2 9.3 2.3 13.3 2.9 4.1.7 5.2.6 5.2.1.7-13.2 4.1-17 4.1-17l-7.4-.8-7.1 1Z"/>
  <path fill="#050505" fill-rule="evenodd" d="M30.9 51.65c-.7-.1-1.7-.2-3-.4l-2.599-.4c-3.1-.5-6.4-.9-10.8-2.5-4.5-1.6-6.5-3.1-6.7-4.9v-.2c2.9-8.3 6.5-12.2 7.9-13.5 1-1 1.9-.5 2.8-.1.133.067.3.134.5.2 1 .5 3.3 3.4 3.8 4.1l7-1 7.4.9c.133 0 .2.034.2.1.066.134.066.234 0 .3-.1 0-3.4 3.9-4.1 16.8 0 .133-.067.267-.2.4-.2.2-.7.3-2.2.2Zm-22.599-8.3c.2 1.7 2.2 3 6.4 4.5 4.3 1.6 7.5 2 10.7 2.5.8.133 1.667.267 2.6.4 3.5.6 4.6.5 4.8.3v-.1c.6-11 3.1-15.5 3.9-16.7l-6.9-.8-7.1 1.1c-.067 0-.133-.033-.2-.1-.8-1.1-2.9-3.8-3.7-4.1a2.55 2.55 0 0 1-.6-.3c-.8-.4-1.4-.7-2.2.1-1.3 1.2-4.8 5-7.7 13.2Z" clip-rule="evenodd"/>
  <path fill="#050505" fill-rule="evenodd" d="M28.4 48.95a.887.887 0 0 0-.4-.1c-2-.3-3.1-1.9-3-3.9l.2-2.4c0-.067.034-.133.1-.2h.1l6.1 1c.2.1.3.2.2.3l-.1 2.3c-.1 1.1-.5 1.9-1.2 2.4-.5.4-1.2.6-2 .6Zm-2.8-6.1-.1 2.1c-.2 2.2 1.2 3.2 2.6 3.4.8.2 1.5 0 2-.4.6-.4.9-1.1 1-2l.1-2.1-5.6-1Z" clip-rule="evenodd"/>
  <path fill="#ED3937" d="m25.2 43.75 6.2 1.1Z"/>
  <path fill="#050505" d="m31.4 45.05-6.2-1.1.101-.5 6.2 1.1-.1.5Z"/>
  <path fill="#050505" d="M29.1 49.25s-1.7.2-4-1.8-2.299-3.4-2.299-3.4l2.3.7s.2 3.8 3.5 4l.5.5Z" opacity=".1" style="mix-blend-mode:multiply"/>
  <path fill="#8DBEE6" d="M30.301 32.95s-6.5 1.1-10.6 3.7c0 0-1.2-4.2.7-8.2l9.9 4.5Z"/>
  <path fill="#050505" d="M9.301 42.75c-.333 0-.7-.1-1.1-.3-.1-.1-.1-.3-.1-.4.1-.1.3-.2.4-.1 1.1.6 1.7 0 1.8-.1l1.6-3.5-1.5-.7c-.1 0-.1-.2-.1-.3.1-.1.2-.2.4-.1l1.6.8c.2 0 .2.2.2.3l-1.8 3.8s-.5.7-1.4.6Z"/>
  <path fill="#050505" d="M11.7 39.55h-.1l-1.7-.8c-.2-.1-.2-.2-.2-.3.1-.2.2-.2.4-.2l1.8.8c.1.1.101.3.101.4-.067.067-.167.1-.3.1Z"/>
  <path fill="#050505" d="m29.1 31.75 5.901 2.2-7.9 2.3 2.6 2-10.2-.2s-.9 1.8-1.5 3.4c-.7 1.5.4 1.8-.2 2.1-.6.3-1.1.8-1.5 1.8-.4 1-.7 3.1-.7 3.1l-.8-.8s2.1-5.8 3.9-9.5l-3.6-5.5 2.1-.9-.6-2.7 3.9.5-1.2 7.9 9.8-5.7Z" opacity=".1" style="mix-blend-mode:multiply"/>
  <path fill="#050505" d="M20.401 39.75c-.1.4-.4.6-.7.5-.4-.1-.6-.4-.5-.8 0-.3.3-.5.7-.5.3.1.5.5.5.8Zm-1.001 2.6c0 .4-.3.6-.7.5-.3-.1-.5-.4-.5-.8.1-.3.4-.5.7-.4.4 0 .6.4.5.7Zm-1.099 2.6c-.1.3-.4.5-.7.5-.4-.1-.6-.5-.5-.8 0-.4.3-.6.7-.5.3.1.5.4.5.8Z"/>
  <path fill="#FEFEFE" d="M19.4 37.15s-2.3 3.7-4.7 10.9Z"/>
  <path fill="#050505" d="M14.7 48.25h-.1c-.1-.1-.2-.2-.1-.3 2.3-7.1 4.6-10.9 4.6-11 .1-.1.3-.1.4-.1.1.1.1.3.1.4-.1 0-2.3 3.8-4.6 10.8-.1.1-.2.2-.3.2Z"/>
  <path fill="#F0F1F1" d="M21.4 29.75s-.9 3.4-2 7.4l-4.2-5.6 3 1.2-2.8-4.5 6 1.5Z"/>
  <path fill="#050505" fill-rule="evenodd" d="M19.301 37.35c-.067 0-.133-.033-.2-.1l-4.1-5.6c-.1-.1 0-.2 0-.3.1-.1.2-.1.3-.1l2.2 1-2.3-3.9c-.067-.067-.067-.167 0-.3.067-.067.133-.1.2-.1l6.1 1.6c.067 0 .133.034.2.1v.2s-1 3.4-2.1 7.3c-.067.133-.133.2-.2.2h-.1Zm-3.3-5.2 3.2 4.4c.9-3.1 1.7-5.8 1.9-6.6l-5.2-1.3 2.5 4v.3c-.1.1-.2.1-.3.1l-2.1-.9Z" clip-rule="evenodd"/>
  <path fill="#F0F1F1" d="M26.501 31.05s-2.5 1.8-7.1 6.1l8.3.1-2.8-1.4 7.2-.6-5.6-4.2Z"/>
  <path fill="#050505" fill-rule="evenodd" d="M19.301 37.35c-.067 0-.133-.067-.2-.2 0-.067.033-.133.1-.2 4.6-4.3 7.2-6.1 7.2-6.1.133-.067.233-.067.3 0l5.6 4.2c.067.066.067.133 0 .2 0 .133-.067.2-.2.2l-6.3.6 2.1 1c.1 0 .1.2.1.3 0 .1-.1.2-.3.2l-8.4-.2Zm7.2-6c-.5.4-2.8 2.2-6.5 5.5l6.6.1-1.8-.8c-.1-.1-.2-.2-.1-.3 0-.1.1-.2.2-.2l6.5-.6-4.9-3.7Z" clip-rule="evenodd"/>
  <path fill="#050505" d="M33.001 51.35s-2.5.6-4.6-.9c-2.1-1.5.1-.4 1.5-.9s.8-1.7.8-1.7.8-1.6.8-4.2c0 0-2.1-1.1-3.9-2.1-1.7-.9-.9-2.3-.1-1.9.8.4-2.9-2.9-1.3-5.7 1.7-2.8 5.2-.6 5.2-.6l3.1 7.8-1.5 10.2ZM19.1 31.05s-5.6 1-8.2 6.3c0 0 1-4 2.5-5.7 1.5-1.7 3.2-3.1 3.2-3.1l2.5 2.5Z" opacity=".1" style="mix-blend-mode:multiply"/>
  <path fill="#ED2D2F" d="M40.4 37.75s-.899 3.9-4.099 5.7c0 0-2.9 1.6-5.1-.5-2-1.9-2.5-8.6 4.7-11.3 7.1-2.8 7.1 3.5 4.5 6.1Z"/>
  <path fill="#050505" fill-rule="evenodd" d="M33.5 44.25c-.8-.1-1.7-.4-2.4-1.1-1.2-1.1-1.7-3.3-1.3-5.4.4-1.7 1.6-4.7 6-6.4 3.9-1.5 5.4-.2 5.9.7 1.1 1.6.3 4.4-1 5.8-.2.6-1.2 4.1-4.3 5.8 0 0-1.4.7-2.9.6Zm5.8-13c-.866-.133-1.966.067-3.3.6-4.2 1.6-5.4 4.4-5.7 6-.4 2.1.2 4.1 1.1 5 .7.6 1.4.8 2.1.9 1.4.1 2.7-.5 2.7-.5 3.1-1.8 4-5.6 4-5.6v-.1c1.3-1.3 2.1-3.8 1.1-5.3-.4-.6-1.066-.933-2-1Z" clip-rule="evenodd"/>
  <path fill="#ED2D2F" d="M16.9 24.75s-5.4 1.5-5.3 10.8c0 0 2.7-4.8 8-6.2l-2.7-4.6Z"/>
  <path fill="#050505" fill-rule="evenodd" d="M11.6 35.85c-.1-.1-.199-.2-.199-.3-.1-4.9 1.4-7.6 2.6-9.1 1.4-1.6 2.8-2 2.8-2 .1 0 .3 0 .3.1l2.7 4.6c.067.067.067.167 0 .3 0 .067-.033.1-.1.1-5.2 1.4-7.8 6.1-7.8 6.1-.067.133-.167.2-.3.2Zm5.201-10.8c-.4.1-1.4.6-2.4 1.8-1.1 1.3-2.4 3.6-2.5 7.8 1-1.4 3.4-4.3 7.3-5.5l-2.4-4.1Z" clip-rule="evenodd"/>
  <path fill="#050505" d="M39.901 30.35s1.3 1.6.8 5.5c0 0-2.2-.4-4.7 1.7-2.6 2-5.1 4.2-5.7 2.4-.6-1.7-.4-1.8-.4-1.8s-5.7-.1-10.3-2.3c-4.6-2.3-7.7-4.2-7.2-6 .5-1.9 2.2-4.5 2.2-4.5l25.3 5Z" opacity=".2" style="mix-blend-mode:multiply"/>
  <path fill="#B3805F" d="M45.9 25.25c-4.7 8.4-12.5 14.2-24.5 8.6-13.5-6.3-11.8-14.8-7-23.2 4.8-8.3 15.4-11.2 23.9-6.4 8.4 4.8 12.4 12.6 7.6 21Z"/>
  <path fill="#050505" fill-rule="evenodd" d="M28.9 36.25c-2.4-.2-4.932-.9-7.599-2.1-5.6-2.7-8.9-5.8-10.2-9.6-.6-2.1-.6-4.3 0-6.9.6-2.1 1.6-4.4 3.1-7.1 2.3-4.1 6.1-7 10.7-8.3 4.6-1.2 9.4-.6 13.5 1.8 4.4 2.4 7.4 5.7 8.9 9.2 1.5 3.9 1.2 8.1-1.1 12.1-2.7 4.7-6 8-9.7 9.7-2.4 1.066-4.933 1.467-7.6 1.2Zm2.101-34c-6.5-.6-13 2.6-16.4 8.6-3.2 5.7-4.1 9.9-3 13.6 1.2 3.6 4.4 6.6 9.9 9.2 12.7 5.9 20.2-1.4 24.2-8.5 2.2-3.9 2.6-8 1.1-11.7-1.4-3.5-4.4-6.6-8.7-9-2.2-1.3-4.6-2-7.1-2.2Z" clip-rule="evenodd"/>
  <path fill="#050505" d="m45.301 9.45-2.4-.2s-10.3-.1-7.9 4.8c2.4 4.9 1.7 6.6 1.3 7.9-.5 1.4-2.5.2-2.5.2 6.1 6.1 1.5 11.6-4.5 12.1-4.5.3-9.7-1.7-11.6-2.6 1 .733 2.133 1.434 3.4 2.1 11.6 6.3 20.4-.6 25.1-8.9 3.2-5.6 2.5-11-.9-15.4Z" opacity=".1" style="mix-blend-mode:multiply"/>
  <path fill="#050505" d="M45.2 28.15s3.201 0-.699 3.9c-2 2-6.2 3.4-6.2 3.4l6.9-7.3ZM22.5 2.55s-6.5.7-10.6 5.9c-.2.2 2.1-1.5 5.2-2.3m30.1 3.3s7.401 8.3 1.101 18.2c0 0 1.6-7.4-1.1-18.2Z"/>
  <path fill="#050505" d="M40.301 16.05c-.3-.2-3.4 10 .6 12.9 2.9-2.9 2.6-7.2 2.6-7.2.4 3.8-1 6.8-1.8 7.6.7.6 2.6 1.9 4.1 2.2 0 0 12.2-17.1-7.4-28.4 0 0-11.3-7.8-25.6 5.5 0 0-.1.8.7 2.5.6 1.4 5.9-5.5 6.8-4.5"/>
  <path fill="#050505" d="M36.2 2.05c-2-.9-9.8-4.4-20.8 1.9 0 0 22.8-1.1 20.8-1.9Z"/>
  <path fill="#050505" d="M23.7.75s18.2-5.1 25 11.3c6.9 16.3-25-11.3-25-11.3Zm22.7 29.6s-1.7 3.3-4.8 4.9c-3.1 1.6-3.599 1.5-3.599 1.5s1.7-.9 4.1-5"/>
  <path fill="#050505" d="M37.301 3.15s-8.7-4.4-22.8 4.7c0 0-.2-.1.3 1 .3.9.3.9.9 1.5 1.3-1.3 2.6-1.7 7.4-2.6 0 0-5.2 1.1-6.3 3.4 7.4 5.6 15.6 3.3 15.6 3.3-.2-.1-2.7 3.9 2.6 5.3 2.8-1.9 4.2-4.9 4.2-4.9-.3 2.4-1.3 3.8-3 5.3.6.4 2.5.7 3.6.9 0 0 12.9-11.5-2.5-17.9Z"/>
  <path fill="#050505" d="m41.801 15.55-5 8.9s6.8 6.8-3.7 11.4l9.9-2s8.2-7 6-16.7c-2.1-9.7-4.9-5-4.9-5l-2.3 3.4Zm4.7-6.2s-1-4.1-3.2-6.2c-2.1-2.1-2.5-1.8-2.5-1.8s3.4 2.3 3.7 7.1"/>
  <path fill="#050505" d="M49.301 13.45s-1.3-2.2 1.2-2.8c0 0-1.5-1-2.2-.3.3-1.1.4-3.3-2.2-5.7 0 0 .8 2.8-1.1 2.2M32.4 17.15c-.066 0-.133-.067-.2-.2-.1-.4-1.7-.9-3.2-1.1-.2 0-.299-.2-.199-.3 0-.1.1-.2.3-.2.8.1 3.4.6 3.7 1.5 0 .1-.1.3-.2.3h-.2Zm-2.5 2.6c-.4.8-1.1 1.3-1.7 1.1-.6-.2-.7-1-.3-1.8.4-.8 1.2-1.3 1.7-1.1.6.2.7 1 .3 1.8Z"/>
  <path fill="#FEFEFE" d="M29.4 18.45c-.1.2-.199.2-.399.2-.1 0-.1-.2 0-.3 0-.2.2-.3.3-.2.1 0 .2.2.1.3Z"/>
  <path fill="#050505" d="M17.5 14.25c-.2.8-.9 1.4-1.5 1.3-.6 0-.8-.7-.5-1.5.2-.8.9-1.4 1.5-1.3.6.1.8.8.5 1.5Z"/>
  <path fill="#FEFEFE" d="M16.9 13.25c0 .1-.2.2-.3.2-.1 0-.2-.1-.1-.3 0-.1.201-.2.301-.2.1 0 .2.1.1.3Z"/>
  <path fill="#9A724F" d="M22.1 20.15s-1.3 1-2.5.6c-1.2-.5-1.2-2.3-1.2-2.3s1.001 1.3 1.601 1.5c.6.2 2.1.2 2.1.2Z"/>
  <path fill="#050505" d="M19.801 20.15c-.3-.1-.6-.2-.8-.4l-.6-.9c-.1-.1-.1-.3.1-.4.1-.1.3 0 .4.1l.5.8c.2.2.6.3.9.3l1.8.1c.1 0 .3.1.2.3 0 .1-.1.2-.2.2h-1.8c-.2 0-.367-.034-.5-.1Zm3.599 5.3s-2.699.1-3.899-.3c-1.3-.4-1.5 2.2.1 3.6 1 1 3 3.1 7.6 2.6 4.8-.4 6-5 4.1-6.6-2-1.6-4.9.3-7.9.7Z"/>
  <path fill="#050505" d="M31.4 31.05s-1.599 1.8-4.899 1.4c0 0 3.2 1.9 4.9-1.4Z" opacity=".1" style="mix-blend-mode:multiply"/>
  <path fill="#B3805F" d="M48.9 32.65s2.8-1 3.5-3.2c.7-2.2-2.7-5.5-4.8-3.6-1.8 1.7-2.1 3.2-1.7 3.8.4.6 3 3 3 3Z"/>
  <path fill="#050505" fill-rule="evenodd" d="M48.801 32.85h-.1c-.1-.1-2.6-2.4-3-3-.6-.8-.1-2.5 1.7-4.2.9-.8 2.1-.9 3.3-.1 1.3.8 2.4 2.5 2 4-.8 2.2-3.6 3.3-3.8 3.3h-.1Zm.4-7.3c-.5-.1-1 0-1.4.5-1.8 1.6-2.1 3-1.7 3.5.3.4 2 2.1 2.8 2.8.6-.3 2.7-1.2 3.3-3 .3-1.2-.6-2.7-1.7-3.4-.3-.1-.8-.4-1.3-.4Z" clip-rule="evenodd"/>
  <path fill="#050505" d="M48.001 27.85s1.4.7 1.6-.2c.3-.8.5-.5.5-.5s.4.9-.2 1.6c-.7.8-2.2 0-1.9-.9Z" opacity=".1" style="mix-blend-mode:multiply"/>
  <path fill="#F1F1F1" d="M34.8 40.25c-1.2-3.3 1.6-6.8 1.6-6.8l9.2-6.3 4.6 6-10 6.8s-4.1 3.7-5.4.3Z"/>
  <path fill="#050505" fill-rule="evenodd" d="M36.4 41.95c-.066 0-.166-.033-.3-.1-.666-.133-1.166-.633-1.5-1.5-1.3-3.4 1.5-6.9 1.6-7l.1-.1 9.1-6.3c.1-.1.3-.1.4 0l4.6 6.1c.067 0 .067.067 0 .2 0 .067-.032.1-.1.1l-10 6.8c-.2.2-2.2 1.9-3.9 1.8Zm-1.3-1.8c.2.733.567 1.133 1.1 1.2 1.6.4 3.8-1.6 3.8-1.6l9.8-6.6-4.3-5.7-8.9 6.2c-.3.3-2.6 3.5-1.5 6.5Z" clip-rule="evenodd"/>
  <path fill="#050505" d="m46.901 31.25-2.2-3.4-8.1 5.6s-2.7 5.3-1.8 7.1c.9 1.8 3 1 5.4-.9 2.4-2-1.6-2.2 0-4.5 1.7-2.3 4.3-3.3 4.3-3.3s1 1.8 1.8 1.4c.8-.3 1.3-1.1.6-2Z" opacity=".1" style="mix-blend-mode:multiply"/>
</svg>
