<svg xmlns="http://www.w3.org/2000/svg" width="78" height="42" fill="none" viewBox="0 0 78 42">
  <path fill="#7AC057" d="M75.743 27.334 3.569 32.377l.474-5.391 72.469-5.1-.77 5.448Z"/>
  <path fill="#FEFEFE" fill-rule="evenodd" d="M16.58 12.41c1-.095 2.216-.129 1.887 3.4-.386 3.234-1.368 3.426-2.977 3.537l-.607.017.677-6.96 1.02.005Zm-.141.842-.573 5.41c1.412-.072 1.536-1.523 1.62-2.66.181-1.156.444-2.94-1.047-2.75Z" clip-rule="evenodd"/>
  <path fill="#FEFEFE" d="m19.63 19.149-.805.055.677-6.959.805-.055-.678 6.959Zm.207-7.275-.352-.237.83-1.487.587.395-1.065 1.329Z"/>
  <path fill="#FEFEFE" fill-rule="evenodd" d="m22.818 12.005.735 6.887-.804.055-.152-1.295-1.314.053-.438 1.41-.823-.042 2.09-7.032.706-.036Zm-.35 3.94-.088-2.53-.937 3.546 1.118-.015-.094-1Zm4.783-4.196c1.02.004 2.236-.03 1.809 3.518-.289 3.215-1.27 3.407-2.879 3.518l-.608.017.677-6.96 1.001-.093Zm-.16.744-.573 5.411c1.432.026 1.556-1.425 1.62-2.66.103-1.04.444-2.94-1.047-2.75Z" clip-rule="evenodd"/>
  <path fill="#FEFEFE" d="m32.489 11.438-.043.824-1.51.091-.186 2.177 1.314-.054-.043.824-1.413.072-.147 2.372 1.412-.072-.042.824-2.433.068.776-6.979 2.315-.147Zm2.923-.164-.517 6.215 1.412-.072-.043.823-2.334.049.677-6.96.805-.055Z"/>
  <path fill="#FEFEFE" fill-rule="evenodd" d="m38.943 11.094.735 6.886-.903.075-.15-1.295-1.315.053-.34 1.391-.921-.024 2.188-7.05.706-.036Zm-.449 3.96-.087-2.531-.84 3.526 1.02.005-.093-1Z" clip-rule="evenodd"/>
  <path fill="#FEFEFE" d="M42.684 11.992c-.234-.158-.469-.315-.763-.258-.51-.002-.826.467-.847.879-.04.314.017.608.153.785l.645.69c.526.61.819 1.062.697 2.003-.103 1.039-.754 1.88-1.754 1.973-.314-.04-.627-.081-.881-.337l.023-.922c.254.256.587.395.881.337.51.003.826-.467.926-.996.026-1.431-1.738-1.596-1.593-3.458.122-.941.675-1.762 1.675-1.856.314.04.628.08.96.22l-.121.94ZM8.039 32.828l.664-8.588 2.413-.166-.566 8.568-2.511.185Zm11.729-9.324-.665 8.587-2.217.128-2.318-3.52-.291 3.724-2.413.166.567-8.568 2.216-.127 2.319 3.52.29-3.725 2.512-.185Zm3.062 8.368-2.413.166.665-8.587 5.924-.445-.226 2.49-3.433.161-.162 1.255 3.315-.241-.186 2.176-3.217.221-.267 2.804Z"/>
  <path fill="#FEFEFE" fill-rule="evenodd" d="m32.244 22.695 2.455 8.385-2.708.223-.172-.883-2.727.125-.318.98-2.629.106 3.686-8.77 2.413-.166Zm-2.2 5.423 1.099-.113-.444-1.747-.655 1.86Z" clip-rule="evenodd"/>
  <path fill="#FEFEFE" d="m43.309 21.958-.567 8.568-2.217.128-2.416-3.502-.193 3.706-2.511.185.665-8.587 2.216-.128 2.319 3.521.29-3.725 2.413-.166Zm9.414 4.374c-.266 1.072-.833 1.997-1.699 2.778-.8.768-1.738 1.189-2.81 1.263-1.216.034-2.208-.35-2.976-1.15-.768-.801-1.103-1.822-1.006-3.064.031-1.23.5-2.306 1.406-3.23.906-.925 1.967-1.404 3.183-1.438 1.073-.074 1.974.192 2.703.796.742.67 1.19 1.568 1.342 2.693l-2.629.106c-.142-.38-.337-.681-.584-.904a1.742 1.742 0 0 0-.98-.318 1.757 1.757 0 0 0-1.297.661 2.22 2.22 0 0 0-.633 1.448c-.016.615.112 1.1.386 1.453.338.342.743.5 1.214.476.34.002.686-.134 1.04-.407.29-.26.526-.612.711-1.056l2.629-.107Zm.691 3.534.566-8.568 2.511-.186-.664 8.588-2.413.166Z"/>
  <path fill="#FEFEFE" fill-rule="evenodd" d="m62.73 20.708 2.356 8.404-2.628.107-.173-.884-2.708.224-.337.88-2.61.205 3.588-8.75 2.511-.186Zm-2.2 5.423 1.098-.113-.346-1.766-.753 1.879Z" clip-rule="evenodd"/>
  <path fill="#FEFEFE" d="M67.376 25.71c.598.63 1.237.946 1.917.95.458-.09.694-.272.709-.547.052-.078-.071-.19-.371-.335a20.683 20.683 0 0 0-.882-.337c-.43-.12-.829-.245-1.194-.378a2.111 2.111 0 0 1-.88-.847c-.272-.354-.388-.773-.347-1.257.1-.529.299-1.077.792-1.683.395-.586 1.319-1.073 2.515-1.205.805-.055 1.667.184 2.136.5.47.316.84.65.898.945l.137.177-1.752 1.463c-.273-.354-.52-.577-.742-.67a6.94 6.94 0 0 0-.824-.042c-.412-.022-.668.232-.648.33-.041.314.409.531.938.632.287.08.614.186.98.318l.9.435c.234.158.455.42.663.788.13.314.2.674.211 1.079-.081.627-.28 1.176-.87 1.8-.494.607-1.417 1.093-2.634 1.127-.941.048-1.686-.112-2.233-.48-.56-.434-.95-.868-1.171-1.3l1.752-1.463Z"/>
</svg>
