<svg xmlns="http://www.w3.org/2000/svg" width="100" height="28" fill="none" viewBox="0 0 100 28">
  <path fill="#6A4C9E" d="m70.3 13.164-69.9 5.2-.4-4.3 70.1-5.2.2 4.3Z"/>
  <path fill="#FEFEFE" fill-rule="evenodd" d="M33.5 2.364c.9-.1 1.9-.1 1.7 2.9-.3 2.7-1.2 2.9-2.5 3h-.6l.5-5.8.9-.1Zm-.1.6-.4 4.6c1.3-.1 1.3-1.3 1.4-2.3.1-.9.3-2.4-1-2.3Z" clip-rule="evenodd"/>
  <path fill="#FEFEFE" d="m36.3 7.964-.8.1.5-5.9h.8l-.5 5.8Zm.1-6.1-.4-.2.8-1.2.4.3-.8 1.1Z"/>
  <path fill="#FEFEFE" fill-rule="evenodd" d="m39 1.964.7 5.8h-.8l-.1-1.1-1.1.1-.3 1.2h-.8l1.8-5.9.6-.1Zm-.3 3.2-.1-2.1-.8 3h1l-.1-.9Zm4.1-3.499c.9 0 1.9 0 1.7 2.9-.3 2.8-1.2 2.9-2.5 3l-.6.1.5-5.9.9-.1Zm-.1.7-.4 4.5c1.3 0 1.3-1.2 1.4-2.2.1-.9.3-2.5-1-2.3Z" clip-rule="evenodd"/>
  <path fill="#FEFEFE" d="M47.4 1.364v.7l-1.3.1-.2 1.8H47v.6l-1.2.1-.1 2 1.3-.1-.1.7-2.1.1.5-5.8 2.1-.2Zm2.6-.199-.5 5.2 1.3-.1v.7l-2.1.2.5-5.9.8-.1Z"/>
  <path fill="#FEFEFE" fill-rule="evenodd" d="m53 .964.7 5.8-.8.1-.1-1.2-1.1.1-.3 1.2h-.8l1.8-5.9.6-.1Zm-.3 3.2-.1-2.1-.8 3h1l-.1-.9Z" clip-rule="evenodd"/>
  <path fill="#FEFEFE" d="M56.3 1.664c-.2-.1-.4-.2-.7-.2-.4 0-.7.4-.7.8 0 .3 0 .4.1.6l.6.6c.4.5.7.9.6 1.7 0 .8-.6 1.6-1.5 1.6-.3 0-.6 0-.8-.2l.1-.8c.2.2.4.3.7.3.5-.1.7-.5.8-.9.1-1.2-1.5-1.3-1.4-2.8.1-.9.6-1.6 1.4-1.6.334-.066.6-.033.8.1v.8Zm-39.7 19.9.5 2.7.2-.8.6-2h.9l-1.4 3.4-.2 2.5-.8.1.2-2.5-.8-3.3.8-.1Zm4.6-.3-.5 5.2 1.3-.1v.7l-2.1.1.5-5.8.8-.1Z"/>
  <path fill="#FEFEFE" fill-rule="evenodd" d="M25.4 23.864c-.1 1.1-.3 3.1-1.8 3.2-1.5.1-1.3-1.9-1.2-3 .1-1 .3-3 1.8-3.1 1.4-.1 1.3 1.9 1.2 2.9Zm-2.2.2c-.1 1.2-.1 2.3.5 2.2.6 0 .8-1.1.9-2.3.1-1.3.1-2.3-.5-2.2-.6 0-.8 1-.9 2.3Z" clip-rule="evenodd"/>
  <path fill="#FEFEFE" d="M28 21.664c-.2-.1-.4-.2-.7-.2-.4.1-.7.4-.7.8 0 .3 0 .5.1.7l.6.6c.4.5.7.8.6 1.6 0 .9-.6 1.6-1.5 1.7-.3 0-.6-.1-.8-.3l.1-.7c.2.1.4.2.7.2.5 0 .7-.4.8-.9.1-1.1-1.5-1.3-1.4-2.8.1-.8.6-1.5 1.4-1.6.333 0 .6.034.8.1v.8Z"/>
  <path fill="#FEFEFE" fill-rule="evenodd" d="m2.8 12.364 2.8-.1c.1-.1.2-.1.5 0 .4 0 .7.1 1.1.3.4.3.7.6.9 1.1.067.267.067.6 0 1 0 .7-.3 1.3-.6 1.6-.2.2-.4.367-.6.5-.6.5-1.2.6-1.5.6l-.2.1h-.7l-.2 1.7-2 .2.5-7Zm2.7 1.7-.8.1-.1 1.3.8-.1c.4 0 .6-.2.6-.6 0-.5-.2-.7-.5-.7Zm9.1 4.4-2.5.2-1.3-1.6h-.2l-.1 1.7-2 .2.4-7 2.9-.2h.5c.4.1.7.2 1.1.4.4.2.7.5.8 1.1.133.267.167.567.1.9-.067 1-.5 1.767-1.3 2.3l1.6 2Zm-3.7-4.7-.1 1.2h.8c.333 0 .533-.233.6-.7 0-.4-.2-.6-.5-.6l-.8.1Zm7.9-2.6c1-.066 1.833.234 2.5.9.667.6.967 1.434.9 2.5-.067 1-.5 1.867-1.3 2.6-.733.734-1.6 1.134-2.6 1.2-1 .067-1.833-.233-2.5-.9-.667-.6-.967-1.4-.9-2.4.067-1 .467-1.9 1.2-2.7.8-.733 1.7-1.133 2.7-1.2Zm-.4 5.2c.4 0 .767-.166 1.1-.5.333-.333.5-.733.5-1.2.067-.466-.033-.833-.3-1.1-.267-.333-.6-.466-1-.4-.467 0-.833.167-1.1.5a1.64 1.64 0 0 0-.5 1.2c-.067.467.033.834.3 1.1.267.334.6.467 1 .4Z" clip-rule="evenodd"/>
  <path fill="#FEFEFE" d="m24.9 17.764-2 .1.5-6.9 4.9-.3-.1 1.9-2.9.2-.1 1 2.7-.2-.1 1.8-2.7.2-.2 2.2Zm6.2-5.4v.7l2.7-.2-.2 1.8-2.7.2v.5l2.9-.2-.1 2-5 .3.5-6.9 5-.3-.2 1.9-2.9.2Zm4.8 2.1c.467.467 1 .7 1.6.7.4-.066.6-.2.6-.4 0-.133-.1-.233-.3-.3a6.915 6.915 0 0 0-.8-.2 11.935 11.935 0 0 1-.9-.4 1.624 1.624 0 0 1-.8-.7c-.2-.266-.3-.6-.3-1s.2-.866.6-1.4c.4-.4 1.2-.8 2.1-.9.8-.1 1.4.1 1.8.4.4.2.7.5.9.7v.2l-1.4 1.2c-.267-.333-.467-.5-.6-.5-.2-.066-.467-.1-.8-.1-.3 0-.5.2-.5.3 0 .2.3.4.8.5l.8.2.8.4c.2.134.367.334.5.6.133.267.2.567.2.9 0 .467-.233.934-.7 1.4-.4.5-1.2.9-2.2 1-.8.067-1.433-.066-1.9-.4-.467-.333-.8-.7-1-1.1l1.5-1.1Z"/>
  <path fill="#FEFEFE" fill-rule="evenodd" d="M44.9 9.364c1-.067 1.833.233 2.5.9.667.6.967 1.4.9 2.4-.067 1-.467 1.9-1.2 2.7-.8.733-1.7 1.133-2.7 1.2-1 .067-1.833-.233-2.5-.9-.667-.666-.967-1.5-.9-2.5.133-1 .567-1.867 1.3-2.6.733-.733 1.6-1.133 2.6-1.2Zm-.4 5.2c.467 0 .833-.167 1.1-.5.333-.333.5-.733.5-1.2.067-.467-.033-.867-.3-1.2a1.36 1.36 0 0 0-1-.4c-.4.067-.767.267-1.1.6-.333.333-.5.733-.5 1.2-.067.467.033.834.3 1.1.267.334.6.467 1 .4Zm10.7 1.1-2.5.2-1.3-1.7h-.2l-.1 1.8-2.1.1.5-6.9 2.8-.2h.5c.4.1.7.1 1.1.4.4.2.7.5.9 1.1.067.267.1.567.1.9-.067 1-.5 1.733-1.3 2.2l1.6 2.1Zm-3.8-4.7-.1 1.3h.8c.4-.066.6-.3.6-.7.1-.4-.2-.6-.5-.6h-.8Zm9.1-2.6 2.1 6.8-2.2.1-.2-.7-2.3.2-.3.7-2.2.2 3-7.1 2.1-.2Zm-1.8 4.3h1l-.4-1.4-.6 1.4Z" clip-rule="evenodd"/>
  <path fill="#FEFEFE" d="M64.5 12.464c.467.467 1 .7 1.6.7.4-.066.6-.2.6-.4 0-.066-.1-.166-.3-.3l-.8-.2-1-.4c-.267-.133-.5-.366-.7-.7-.267-.266-.367-.6-.3-1 0-.4.2-.833.6-1.3.4-.5 1.1-.9 2.1-1 .7 0 1.4.1 1.8.4.4.2.7.5.8.7l.1.2-1.4 1.2c-.267-.266-.5-.433-.7-.5-.2-.066-.433-.1-.7-.1-.3 0-.5.2-.5.3 0 .2.3.4.8.5l.8.2c.267.134.5.267.7.4.267.134.467.334.6.6.133.267.2.567.2.9-.067.467-.3.934-.7 1.4-.4.5-1.2.9-2.2 1-.8.067-1.433-.066-1.9-.4-.467-.333-.8-.7-1-1.1l1.5-1.1Z"/>
  <path fill="#6A4C9E" d="m99.8 20.664-68.9 5.6-.4-4.6 68.9-5.3.4 4.3Z"/>
  <path fill="#FEFEFE" fill-rule="evenodd" d="m33.8 20.064 2.9-.2s.1 0 .5.1c.4 0 .7.1 1.1.3.4.2.7.5.8 1.1.067.267.1.567.1.9 0 .8-.3 1.4-.6 1.7-.2.2-.4.367-.6.5-.6.4-1.2.6-1.6.6h-.1l-.8.1-.1 1.7-2 .2.4-7Zm2.7 1.7-.8.1-.1 1.3.8-.1c.333 0 .533-.233.6-.7 0-.4-.2-.6-.5-.6Zm9.2 4.4-2.5.2-1.3-1.7h-.2l-.1 1.8-2.1.1.5-6.9 2.8-.2h.6c.4.1.7.1 1.1.4.4.2.6.5.8 1.1.067.267.1.567.1.9-.067 1-.5 1.733-1.3 2.2l1.6 2.1Zm-3.8-4.7v1.3h.8c.333-.066.5-.3.5-.7.1-.4-.1-.6-.5-.6h-.8Zm7.9-2.6c1.067-.067 1.933.2 2.6.8.6.667.867 1.5.8 2.5-.067 1-.467 1.9-1.2 2.7-.733.733-1.633 1.133-2.7 1.2-1 .067-1.8-.233-2.4-.9-.667-.667-.967-1.5-.9-2.5.066-1 .467-1.867 1.2-2.6.733-.733 1.6-1.133 2.6-1.2Zm-.3 5.2c.4 0 .767-.167 1.1-.5a2.43 2.43 0 0 0 .5-1.2c0-.467-.133-.867-.4-1.2-.267-.267-.6-.4-1-.4-.4.067-.767.267-1.1.6a2.43 2.43 0 0 0-.5 1.2c0 .467.133.833.4 1.1.267.333.6.467 1 .4Z" clip-rule="evenodd"/>
  <path fill="#FEFEFE" d="m56 25.464-2 .1.4-6.9 5-.4-.1 2-3 .2v1l2.7-.2-.1 1.8-2.7.2-.2 2.2Zm6.2-5.4-.1.7 2.7-.2-.1 1.7-2.7.2v.6l2.9-.2-.1 2-5 .3.5-6.9 4.9-.4-.1 2-2.9.2Zm4.8 2.101c.467.466 1 .666 1.6.6.4 0 .6-.1.6-.3 0-.134-.1-.234-.3-.3a3.905 3.905 0 0 1-.8-.3 5.695 5.695 0 0 1-1-.3 7.506 7.506 0 0 1-.8-.7c-.2-.267-.267-.6-.2-1 0-.4.2-.867.6-1.4.4-.5 1.1-.9 2.1-.9.7-.1 1.4.1 1.8.4.4.2.7.5.8.7l.1.1-1.4 1.2c-.267-.267-.5-.434-.7-.5-.2-.067-.433-.067-.7 0-.3 0-.5.1-.5.3 0 .2.3.3.8.4.2.066.467.166.8.3.267.133.5.266.7.4.267.133.467.333.6.6.133.266.2.566.2.9-.067.4-.3.866-.7 1.4-.4.5-1.2.9-2.2.9-.8.066-1.433-.067-1.9-.4-.467-.267-.8-.6-1-1l1.5-1.1Z"/>
  <path fill="#FEFEFE" fill-rule="evenodd" d="M76 17.064c1-.067 1.833.2 2.5.8.667.667.933 1.5.8 2.5-.067 1-.467 1.867-1.2 2.6-.733.734-1.6 1.167-2.6 1.3-1.067.067-1.9-.233-2.5-.9-.667-.666-.967-1.5-.9-2.5.067-1 .467-1.867 1.2-2.6.733-.733 1.633-1.133 2.7-1.2Zm-.4 5.2c.4 0 .767-.2 1.1-.6.333-.333.5-.7.5-1.1.067-.466-.033-.866-.3-1.2-.267-.266-.633-.4-1.1-.4a1.58 1.58 0 0 0-1 .6 2.069 2.069 0 0 0-.6 1.2c0 .4.133.767.4 1.1.267.267.6.4 1 .4Zm10.6 1.1-2.5.1-1.3-1.6h-.2l-.1 1.8-2 .1.5-6.9 2.8-.2h.5c.4 0 .7.1 1.1.3.4.3.7.6.8 1.1.133.334.166.667.1 1-.067.934-.5 1.667-1.3 2.2l1.6 2.1Zm-3.7-4.7-.1 1.3.8-.1c.333 0 .533-.2.6-.6 0-.5-.2-.7-.5-.7l-.8.1Z" clip-rule="evenodd"/>
  <path fill="#FEFEFE" d="M89.2 18.164v.7l2.7-.2-.2 1.8-2.7.1v.6l2.9-.2-.1 2-5 .3.5-6.9 5-.4-.2 2-2.9.2Zm4.8 2.1c.467.467 1 .7 1.6.7.4-.066.6-.2.6-.4 0-.133-.1-.233-.3-.3-.2-.067-.467-.166-.8-.3a3.57 3.57 0 0 1-.9-.3 1.624 1.624 0 0 1-.8-.7c-.2-.266-.3-.6-.3-1 .067-.4.267-.867.6-1.4.4-.5 1.2-.9 2.1-.9.8-.1 1.4.1 1.8.4.4.2.7.5.9.7v.2l-1.4 1.1c-.267-.267-.467-.433-.6-.5-.2-.067-.467-.067-.8 0-.3 0-.5.1-.5.3 0 .2.4.4.8.5.267 0 .533.067.8.2l.8.4c.2.134.367.333.5.6.133.267.2.567.2.9 0 .467-.233.934-.7 1.4-.4.5-1.2.9-2.2 1-.8 0-1.433-.133-1.9-.4-.467-.333-.8-.7-1-1.1l1.5-1.1Z"/>
</svg>
