<svg xmlns="http://www.w3.org/2000/svg" width="36" height="66" fill="none" viewBox="0 0 36 66">
  <path fill="#050505" d="M35.94 61.964c0 1.9-6.3 3.4-14 3.4-7.8 0-14.1-1.5-14.1-3.4 0-1.8 6.3-3.3 14.1-3.3 7.7 0 14 1.5 14 3.3Z" opacity=".2"/>
  <path fill="#B98453" stroke="#050505" stroke-linecap="round" stroke-width=".5" d="M5.339 40.664c.1.1.8.6 1.8-.2 1-.7 1.1-1.1 1.1-1.6s-1.1-1.6-1.1-1.6-1.1-.9-3.4-.1c0 0-1.1.4-.8.7.2.3 1.7 2.3 1.8 2.5.1.3.4.1.6.3Z"/>
  <path fill="#B98453" d="M4.74 39.964c-1 .5-1.201.8-1.201.8-.2.1-.3.4-.2.6.2.3.4.3.7.2.4-.2 1.2-.7 1.6-1"/>
  <path stroke="#050505" stroke-linecap="round" stroke-width=".5" d="M4.74 39.964c-1 .5-1.201.8-1.201.8-.2.1-.3.4-.2.6.2.3.4.3.7.2.4-.2 1.2-.7 1.6-1"/>
  <path fill="#B98453" d="M4.24 38.964c-.9.5-1.6 1.1-1.6 1.1-.3.2-.3.5-.2.7.1.2.4.3.6.2.2-.1.2-.2.7-.5 0 0 .4-.3.9-.5"/>
  <path stroke="#050505" stroke-linecap="round" stroke-width=".5" d="M4.24 38.964c-.9.5-1.6 1.1-1.6 1.1-.3.2-.3.5-.2.7.1.2.4.3.6.2.2-.1.2-.2.7-.5 0 0 .4-.3.9-.5"/>
  <path fill="#B98453" d="M3.44 39.464c-.7.4-.9.6-1.2.7-.2.1-.5 0-.6-.2-.1-.2-.1-.5.2-.6 0 0 .7-.6 1.6-1.1"/>
  <path stroke="#050505" stroke-linecap="round" stroke-width=".5" d="M3.44 39.464c-.7.4-.9.6-1.2.7-.2.1-.5 0-.6-.2-.1-.2-.1-.5.2-.6 0 0 .7-.6 1.6-1.1"/>
  <path fill="#B98453" d="M5.14 36.864c-2.7.5-3.9 1.6-3.9 1.6-.2.1-.3.5-.2.7.1.2.4.4.6.2.8-.4 1.9-1.1 2.1-1"/>
  <path stroke="#050505" stroke-linecap="round" stroke-width=".5" d="M5.14 36.864c-2.7.5-3.9 1.6-3.9 1.6-.2.1-.3.5-.2.7.1.2.4.4.6.2.8-.4 1.9-1.1 2.1-1"/>
  <path fill="#050505" d="M5.74 40.364c.1.1.8.2.5-.4-.1-.5-.5-1.3-.9-1.7-.6-.7-1.1-1-.8-1.2.2-.2 1.3-.3 1.8-.2.6.1 1.4 1 1.6 1.3.3.4.4 1.1 0 1.6-.4.6-1.3 1.1-1.7 1-.5-.1-.5-.4-.5-.4Zm-1.8-2.4s-.6 0-1 .2c-.5.2-1.6.7-1.3 1l.2.2s-.1.3.1.5.8 0 .8 0-.2.5.1.6c.4.2.5 0 .5 0s-.1.4.2.6c.3.1.8.1 1.1-.1.4-.1 1-.5 1-.5s-.4-.1-.7-.5c-.3-.5-.6-.9-.6-.9l-.4-1.1Z" opacity=".2"/>
  <path fill="#B98453" d="M4.54 39.064s-.1 0-.7.2c-.5.2-.6.3-.9.3-.3-.1-.4-.3-.5-.6 0-.2.2-.4.6-.5.4-.2.6-.2.9-.4 0 0 .3-.4.2-.6"/>
  <path stroke="#050505" stroke-linecap="round" stroke-width=".5" d="M4.54 39.064s-.1 0-.7.2c-.5.2-.6.3-.9.3-.3-.1-.4-.3-.5-.6 0-.2.2-.4.6-.5.4-.2.6-.2.9-.4 0 0 .3-.4.2-.6"/>
  <path fill="#F3F6F7" stroke="#050505" stroke-linecap="round" stroke-linejoin="round" stroke-width=".5" d="M18.64 25.064c3.4.7 1.7 4.2 1.7 4.2s-.9 3.6-3.6 6.4c-3 2.9-5.9 4.3-7.5 4.9-.8.4-1.4.3-1.4.3l-1.6-4.2s-.2-.5 1.1-1c.8-.3 2-1 3.6-2.1 3.2-2.4 3.5-4.4 3.9-5.7.3-1.3 1.8-3.3 3.8-2.8Z"/>
  <path fill="#0D0E10" d="M16.74 35.664c2.7-2.8 3.6-6.4 3.6-6.4s1.3-2.7-.6-3.8c.3 1.2-.4 2.6-.4 2.6s-.8 3.6-3.6 6.4c-2.9 2.9-5.8 4.3-7.5 4.9-.4.2-.8.1-1.1-.1l.5 1.3s.8.4 1.6 0c1.6-.6 4.5-2 7.5-4.9Z" opacity=".2"/>
  <path fill="#F3F6F7" stroke="#050505" stroke-linecap="round" stroke-linejoin="round" stroke-width=".5" d="M7.94 38.564c-.4-1.2-.7-2.3-.8-2.9l-1.4.6s0 1.2.4 2.7c.4 1.5 1.2 2.6 1.2 2.6l1.6-.7c-.3-.5-.7-1.3-1-2.3Z"/>
  <path fill="#FEFEFE" stroke="#050505" stroke-width=".4" d="M7.84 40.564c-.2.1-.4 0-.5-.1 0-.2 0-.4.2-.5.2-.1.4-.1.5.1.1.2 0 .4-.2.5Z"/>
  <path fill="#0D0E10" d="m8.14 39.164-1.7.8c.4 1 .9 1.6.9 1.6l1.6-.7c-.2-.4-.5-1-.8-1.7Z" opacity=".2"/>
  <path fill="#3A2315" stroke="#050505" stroke-linejoin="round" stroke-width=".5" d="M18.04 56.664v2.8c-.1 1.5-1.6.5-2.5 1.5-.5.5-.4.8.4.9l4.9.3.7-.6-.1.6 1.9.1.4-5.4-5.7-.2Z"/>
  <path fill="#0D0E10" d="M16.94 61.064c.9-1 2.4 0 2.5-1.5v-2.8l-1.4-.1v2.8c-.1 1.5-1.6.5-2.5 1.5-.5.5-.4.8.4.9l1.4.1c-.7-.1-.9-.4-.4-.9Z" opacity=".2" style="mix-blend-mode:multiply"/>
  <path fill="#1A75BB" stroke="#050505" stroke-linecap="round" stroke-linejoin="round" stroke-width=".5" d="M21.94 43.964c2.5.2 3.2 2.4 2.9 4.3 0 0-.3 8-.8 11.1-.1.2-6.3-.3-6.2-.3.1.1.2-9.4.1-11.6-.1-2.1 1.4-3.6 4-3.5Z"/>
  <path fill="#0D0E10" d="M20.34 44.064c-.9.3-1.6.8-2 1.5l-.1.3-.2 13.2c.3 0 .9.1 1.6.1l.7-15.1Z" opacity=".2" style="mix-blend-mode:multiply"/>
  <path fill="#3A2315" stroke="#050505" stroke-linejoin="round" stroke-width=".5" d="M23.54 56.964v2.8c0 1.5-1.5.5-2.5 1.5-.5.5-.3.8.4.9l5 .3.6-.6v.6l1.8.1.5-5.4-5.8-.2Z"/>
  <path fill="#0D0E10" d="M22.44 61.364c1-1 2.5 0 2.5-1.5 0-.9.1-2.8.1-2.8l-1.5-.1v2.8c0 1.5-1.5.5-2.5 1.5-.5.5-.3.8.4.9l1.4.1c-.7-.1-.8-.4-.4-.9Z" opacity=".2" style="mix-blend-mode:multiply"/>
  <path fill="#1A75BB" stroke="#050505" stroke-linecap="round" stroke-linejoin="round" stroke-width=".5" d="M27.44 44.264c2.6.2 3.2 2.4 2.9 4.3 0 0-.3 8-.8 11.1 0 .2-6.2-.3-6.2-.3.1.1.2-9.4.1-11.6-.1-2.1 1.4-3.6 4-3.5Z"/>
  <path fill="#0D0E10" d="M25.94 44.364c-1 .3-1.7.8-2.1 1.6l-.1.2-.2 13.2c.3.1.9.1 1.7.2l.7-15.2Z" opacity=".2" style="mix-blend-mode:multiply"/>
  <path fill="#F3F6F7" stroke="#050505" stroke-linecap="round" stroke-linejoin="round" stroke-width=".5" d="m18.34 28.263-.9-2.4-.6-.3c-.7-.3-1.8 2.8-1.8 8.5-.3 5.9-.4 13.4-.4 14 .5 1.7 3.1 2 5.2 2.1 5.8.4 12.7-.9 13-1.4.6-1 .2-4.5.3-9.8 0-4.6.1-6.6-.1-9.8-.3-5.1-4.1-6-4.1-6l-10.6 5.1Z"/>
  <path stroke="#050505" stroke-linecap="round" stroke-linejoin="round" stroke-width=".4" d="M22.44 34.263c0 2 2.1 2 2.1 2s2.2 0 2.3-2l.1-2.2-4.4.1-.1 2.1Z"/>
  <path fill="#EB2A2C" d="m22.44 33.263 4.4-.1Z"/>
  <path stroke="#050505" stroke-width=".4" d="m22.44 33.263 4.4-.1"/>
  <path stroke="#050505" stroke-linecap="round" stroke-linejoin="round" stroke-width=".5" d="M18.24 28.263c-1.3 3.9-1 21.4-1 21.4"/>
  <path fill="#23AAE1" stroke="#050505" stroke-linecap="round" stroke-linejoin="round" stroke-width=".4" d="M26.74 29.563c0 .8-.6 1.3-1.3 1.3-.7 0-1.3-.6-1.3-1.3 0-.8.6-1.4 1.3-1.3.8 0 1.4.6 1.3 1.3Z"/>
  <path fill="#FEFEFE" d="M26.14 29.564c0 .4-.3.7-.7.7-.4 0-.7-.3-.7-.7 0-.4.3-.7.7-.7.4 0 .7.3.7.7Z"/>
  <path fill="#23AAE1" d="M25.74 29.563c0 .1-.2.2-.3.2-.2 0-.3-.1-.3-.2 0-.2.1-.3.3-.3.1 0 .3.1.3.3Z"/>
  <path fill="#FEFEFE" stroke="#050505" stroke-width=".4" d="M18.84 47.063c0 .2-.3.3-.4.2-.2 0-.3-.3-.2-.5 0-.1.2-.2.4-.2.2.1.3.3.2.5Zm0-4c-.1.1-.3.2-.5.2-.2-.1-.3-.3-.2-.5.1-.2.3-.3.5-.2.2 0 .3.3.2.5Zm.3-4.099c-.1.2-.3.3-.5.2-.2-.1-.3-.3-.2-.5.1-.2.3-.3.5-.2.2.1.3.3.2.5Zm0-4.1c-.1.2-.3.3-.5.2-.2 0-.3-.3-.2-.5.1-.1.3-.2.5-.2.2.1.3.3.2.5Z"/>
  <path fill="#DFDFDE" d="M32.84 48.763s.7-3.8.4-4.2c-.3-.4.2-2.1.2-2.1l-.3-12.8-.4-2.9-1.7-2.5-.5 24.9 2.3-.4Z" style="mix-blend-mode:multiply"/>
  <path fill="#050505" d="M27.44 22.864s1.3.2 3.7 1.4l-7.6 2.3 1.5 1.3-6.9 1.8s.2-2.7 1.4-4.3c2.5-3.2 7.9-2.5 7.9-2.5Z" opacity=".2"/>
  <path fill="#050505" d="M19.54 26.764c0 .2-.1.3-.3.3-.2 0-.3-.1-.3-.2 0-.2.1-.3.3-.3.1 0 .3.1.3.2Z"/>
  <path fill="#F3F6F7" d="m18.74 23.264-1-.5-3.9 1.5 2.4.9-.9.8 2.7 3.6"/>
  <path stroke="#050505" stroke-linecap="round" stroke-linejoin="round" stroke-width=".5" d="m18.74 23.264-1-.5-3.9 1.5 2.4.9-.9.8 2.7 3.6"/>
  <path fill="#F3F6F7" stroke="#050505" stroke-linecap="round" stroke-linejoin="round" stroke-width=".5" d="M17.34 23.264c2.6-3.7 10.3-1.5 10.3-1.5s.9.2 3.3 1.5l-7.3 2.7 1.3 1.3-6.9 2.4-.7-6.4Z"/>
  <path fill="#FEFEFE" stroke="#050505" stroke-linecap="round" stroke-linejoin="round" stroke-width=".5" d="M17.34 23.264c-.7 1.3.7 6.3.7 6.3s3.4-5.7 9-7.1c1.9-.5-7.6-2.9-9.7.8Z"/>
  <path fill="#282460" stroke="#050505" stroke-linecap="round" stroke-linejoin="round" stroke-width=".4" d="M18.74 24.564s-1 1.6-1.1 2.4c0 .9.2 2.8.2 2.8s1.8-2.1 2-2.9c.3-.8.1-1.8.1-1.8l1.6-1.2-1.1-1.1-2 .9.3.9Z"/>
  <path stroke="#050505" stroke-linecap="round" stroke-linejoin="round" stroke-width=".4" d="m22.34 24.764-1.9-1.9-3.2 1.5m1.2-2.2 2 .7 6.6-.4"/>
  <path fill="#050505" stroke="#050505" stroke-linecap="round" stroke-linejoin="round" stroke-width=".5" d="M26.54 22.664c.133-.067.3-.133.5-.2 1.7-.4-5.7-2.4-8.8-.2l2.1.7 6.2-.3Z"/>
  <path fill="#B98453" stroke="#050505" stroke-linecap="round" stroke-linejoin="round" stroke-width=".5" d="M26.94 20.964c0 .7-.5 1.5-1.7 1.7 0 0-2.4.5-4.5.4-2.1-.1-2.2-2.1-2.2-2.7l.3-4.9c.1-.6.6-1.1 1.2-1.1l6.1.3c.6.1.7-.2.7 1.4.1 1.6.1 4.9.1 4.9Z"/>
  <path fill="#B98453" stroke="#050505" stroke-linecap="round" stroke-width=".5" d="M30.64 46.864c.7-1 1.1-1.9 1.1-3 0-.8-.5-1.4-1.1-1.8-.3-.2-1.9-1.2-2.8.2-.2.4-.4.9-.8 1.2-.2.2-.4.3-.6.8-.1.2.4.9.6 1.1.1-.3.2-.3.3-.2.3.1.2.4-.2 1-.3.3-.1.7-.1.7l1.5.2s1.7.3 2.1-.2Z"/>
  <path fill="#B98453" d="M26.74 43.764s-.4.6-.7 1.2c-.3.5-.4.8-.3 1 0 .3.3.6.5.6s.366-.167.5-.5c.1-.4.1-.5.4-.9"/>
  <path stroke="#050505" stroke-linecap="round" stroke-width=".5" d="M26.74 43.764s-.4.6-.7 1.2c-.3.5-.4.8-.3 1 0 .3.3.6.5.6s.366-.167.5-.5c.1-.4.1-.5.4-.9"/>
  <path fill="#B98453" d="M28.839 47.364c-.1.2.2.2.4.3.2.2.433.2.7 0 0 0 .7-.3 1.5-2.3"/>
  <path stroke="#050505" stroke-linecap="round" stroke-width=".5" d="M28.839 47.364c-.1.2.2.2.4.3.2.2.433.2.7 0 0 0 .7-.3 1.5-2.3"/>
  <path fill="#B98453" d="M28.639 46.864c-.4.4-.4.3-.5.5-.2.2-.1.5 0 .7.2.2.5.1.7-.1 0 0 .4-.1 1.2-1.3"/>
  <path stroke="#050505" stroke-linecap="round" stroke-width=".5" d="M28.639 46.864c-.4.4-.4.3-.5.5-.2.2-.1.5 0 .7.2.2.5.1.7-.1 0 0 .4-.1 1.2-1.3"/>
  <path fill="#B98453" d="M27.939 46.464c-.4.6-.6.8-.8 1-.1.3-.1.5.1.7.2.2.4.1.6-.1 0 0 .4-.1 1.2-1.3"/>
  <path stroke="#050505" stroke-linecap="round" stroke-width=".5" d="M27.939 46.464c-.4.6-.6.8-.8 1-.1.3-.1.5.1.7.2.2.4.1.6-.1 0 0 .4-.1 1.2-1.3"/>
  <path fill="#B98453" d="M28.139 46.464c-.7 1.3-1.1 1.5-1.1 1.5-.3.1-.5.2-.7 0-.2-.1-.2-.4-.1-.6.5-.7 1.1-1.5 1.2-1.8"/>
  <path stroke="#050505" stroke-linecap="round" stroke-width=".5" d="M28.139 46.464c-.7 1.3-1.1 1.5-1.1 1.5-.3.1-.5.2-.7 0-.2-.1-.2-.4-.1-.6.5-.7 1.1-1.5 1.2-1.8"/>
  <path fill="#050505" d="M26.34 45.964s-.1 0 .1-.4c.1-.4.6-1 .6-.6h.1v.1c-.4.5-.4.6-.5 1-.067.333-.2.5-.4.5l.1-.1c.4-.4 0-.5 0-.5Z" opacity=".1"/>
  <path fill="#050505" d="M28.14 46.764s-.2.8-.9 1.4l-.1-.2 1-1.2Zm1 .1s-.2.7-.9 1.3l-.1-.2 1-1.1Zm1 0s.1.4-.7 1l-.3-.3 1-.7Zm1.2-1.2s-.9.3-2.1-.2c-1.5-.5-2-1.4-2.4-1.4-.5-.1.1-.6.1-.6l.8-.9s.6-1.4 2.1-.9c1.5.5 1.8 1.6 1.8 1.6s.1 1.2-.3 2.4Z" opacity=".3"/>
  <path fill="#F3F6F7" stroke="#050505" stroke-linecap="round" stroke-linejoin="round" stroke-width=".5" d="M29.34 25.164c3-1.8 4.1 2 4.1 2s1.8 3.2 1.7 7.1c-.2 4.2-1.5 7.2-2.2 8.7-.4.8-.9 1.2-.9 1.2l-4-2s-.4-.3.1-1.5c.4-.8.8-2.1 1.2-4 .8-4-.3-5.7-.9-6.9-.6-1.1-.8-3.6.9-4.6Z"/>
  <path fill="#0D0E10" d="M35.14 34.264c.1-3.9-1.7-7.1-1.7-7.1s-.8-2.9-3-2.5c1.1.7 1.5 2.2 1.5 2.2s1.8 3.3 1.6 7.2c-.2 4.1-1.4 7.1-2.2 8.7-.2.4-.6.6-.9.7l1.3.5s.8-.2 1.2-1c.7-1.5 2-4.5 2.2-8.7Z" opacity=".2"/>
  <path fill="#F3F6F7" stroke="#050505" stroke-linecap="round" stroke-linejoin="round" stroke-width=".5" d="M30.54 42.364c-1.1-.6-2-1.3-2.5-1.7l-.7 1.5s.9.9 2.2 1.7c1.3.9 2.6 1.1 2.6 1.1l.7-1.6c-.5-.2-1.4-.5-2.3-1Z"/>
  <path fill="#FEFEFE" stroke="#050505" stroke-width=".4" d="M31.84 43.864c0 .2-.2.3-.4.2-.2 0-.3-.2-.2-.4.1-.2.2-.3.4-.3.2.1.3.3.2.5Z"/>
  <path fill="#0D0E10" d="m31.14 42.665-.7 1.7c.9.5 1.7.6 1.7.6l.7-1.6c-.4-.2-1-.4-1.7-.7Z" opacity=".2"/>
  <path fill="#050505" stroke="#050505" stroke-linecap="round" stroke-linejoin="round" stroke-width=".4" d="M14.339 6.464c-1.3 1.2-.2 4.1.1 5.5.3 1.3 1.7 4.2 1.7 4.2s1.8-8.1 1.9-9.6c.2-1.4-2.5-1.1-3.7-.1Zm12.401 13s2.3-2.1 3.1-4.5c.8-2.4.5-3.8-1.1-3.9-1.6-.1-3.5 2.6-4 5.2-.5 2.7-1.6 6.1 2 3.2Z"/>
  <path fill="#B98453" d="M14.439 8.464c.1-2.3 1.7-6.7 8-6 6.3.6 7.1 5 6.9 8.5-.2 3.5-1.6 7.9-3 9.7-.6.7-2.7 1.5-4.2 1.8-3.1.5-6.7 0-6.7 0s-1.1-12.6-1-13.9"/>
  <path stroke="#050505" stroke-linecap="round" stroke-linejoin="round" stroke-width=".5" d="M14.439 8.464c.1-2.3 1.7-6.7 8-6 6.3.6 7.1 5 6.9 8.5-.2 3.5-1.6 7.9-3 9.7-.6.7-2.7 1.5-4.2 1.8-3.1.5-6.7 0-6.7 0s-1.1-12.6-1-13.9"/>
  <path fill="#050505" stroke="#050505" stroke-linecap="round" stroke-linejoin="round" stroke-width=".4" d="M12.74 11.064s.6-2.7 3.3-3.4c2.6-.8.4-4.2-1.4-2.7-.9.7-1.8 2.1-2 3.3-.3 1.5.1 2.8.1 2.8Z"/>
  <path fill="#050505" stroke="#050505" stroke-linecap="round" stroke-linejoin="round" stroke-width=".4" d="M12.74 5.064s1.6-1 3.1.4 3.4-1.7 1.6-2.5c-1.8-.9-4 .7-4.7 2.1Z"/>
  <path fill="#050505" stroke="#050505" stroke-linecap="round" stroke-linejoin="round" stroke-width=".4" d="M17.04 2.764c.7-1.6 3.6-2.3 5.5-1.3 1.9 1 1.1 2.9-1 3.1-2 .1-5.3 0-4.5-1.8Z"/>
  <path fill="#050505" stroke="#050505" stroke-linecap="round" stroke-linejoin="round" stroke-width=".4" d="m30.54 4.764-6.1-.9s-5.1-1-1.4-2.4c3.6-1.4 6 1.2 7.5 3.3Z"/>
  <path fill="#050505" stroke="#050505" stroke-linecap="round" stroke-linejoin="round" stroke-width=".4" d="M27.54 3.164c2.8.9 4.2 4.5 4.1 6.1l-3.9-3.1s-2.5-3.7-.2-3Zm-3.5 1.9c-1 1.1-.7 3.3.2 4.3 0 0 .6-1.6 1.3-2.1.7-.4-.2-3.5-1.5-2.2Z"/>
  <path fill="#050505" stroke="#050505" stroke-linecap="round" stroke-linejoin="round" stroke-width=".4" d="M25.64 6.364s-.5 1.6.3 3.1c.9 1.5 3.6 1.1 3.6 1.1s-3.7-5.5-3.9-4.2Z"/>
  <path fill="#050505" stroke="#050505" stroke-linecap="round" stroke-linejoin="round" stroke-width=".4" d="M29.74 6.864c1.9 2.4 1.4 8.1-.2 10.7l-1.3-3.1 1.5-7.6Zm-14.3 3.7s.7-1.8 2-2.1c1.8-.3-.6-2.7-1.5-1.7-1.4 1.6-.5 3.8-.5 3.8Z"/>
  <path fill="#050505" stroke="#050505" stroke-linecap="round" stroke-linejoin="round" stroke-width=".4" d="M16.34 5.864c-.1 1.3.3 2.3 1.7 2.8s4.1-.6 4.8-1.8c.6-1.2 1.9-.8 1.9-.8l2.3 3.5-.8 5.2 3.1-1.3.7-6.1-3.4-4.9-7 .4-3.3 3Z"/>
  <path fill="#B98453" d="M27.24 13.664c.5-1.5 2.5-1.9 3-.9.5.8-.5 3.8-1.8 4.1-1.3.3-1.4-.4-1.4-.7"/>
  <path stroke="#050505" stroke-linecap="round" stroke-width=".4" d="M27.24 13.664c.5-1.5 2.5-1.9 3-.9.5.8-.5 3.8-1.8 4.1-1.3.3-1.4-.4-1.4-.7"/>
  <path fill="#221E1F" d="M28.339 15.264c-.2.5-.6.9-.2.8.8-.2 1.4-2.2 1.1-2.7-.3-.6-1.2-.4-1.5.6 0 0-.2.4.4.5.2 0 .3.4.2.8Z" opacity=".2"/>
  <path fill="#221E1F" d="M17.84 12.664s.1 1.7-1.7 2c-1.5.1-1.4-1.7-1.4-1.7m8.9.7s-.3 1.6-2.3 1.4c-2.2-.3-1.8-2.2-1.8-2.2" opacity=".1"/>
  <path stroke="#050505" stroke-linecap="round" stroke-width=".4" d="M19.74 13.264s.4 1 1.9 1.1m-4.3-1.2s-.6.9-2 .8"/>
  <path fill="#050505" fill-rule="evenodd" stroke="#050505" stroke-linecap="round" stroke-linejoin="round" stroke-width=".4" d="M27.14 16.364c-.1.4 0 .7.5.7.6-.1.499.7.299 1.2-.2.3-.5.6-.7.9-.2.3-.5 1-.5 1-.4.6-.8 1.2-1.3 1.7-1.2 1.4-4.8 1.6-7.2 1.5-2.5-.2-3-.3-3.3-1.1-.3-.8-.1-.5-.3-2.8-.1-2.1.2-4.6.2-4.6s0 2.6.7 3.8l1.6-1.7 1.8.1s1.1.5 1.6.8c.4.4 1.1.9 1.1.9s1.5.6 2.6-1.1c1.2-1.7 1.4-2.8 1.5-3.5.2-.6 2-1.4 2-1.4-.1.1-.1 1-.1 1.1-.067.8-.2 1.567-.4 2.3 0 .067-.033.134-.1.2Zm-6.201 3.7-2.5-1.5h-1.2l-1.2 1.1s0 .7.5.9c.5.1.7-.1.9-.3.1-.1.8 0 1.1.1.3.2.7.4 1.2.3.6-.1 1.2-.6 1.2-.6Z" clip-rule="evenodd"/>
  <path fill="#fff" d="M14.94 12.964s0-.6.7-.7h2v.9"/>
  <path stroke="#050505" stroke-width=".4" d="M14.94 12.964s0-.6.7-.7h2v.9"/>
  <mask id="a" width="4" height="2" x="14" y="12" maskUnits="userSpaceOnUse" style="mask-type:luminance">
    <path fill="#fff" d="M14.88 12.994s-1.01.09.35-.79l2.19-.05-.06.98"/>
  </mask>
  <g mask="url(#a)">
    <path fill="#050505" d="M15.44 12.664c0 .4.3.8.7.8.4 0 .8-.3.9-.7 0-.4-.4-.8-.8-.8s-.8.3-.8.7Z"/>
  </g>
  <path fill="#FEFEFE" d="M16.44 12.664s0 .1.1.1.2-.1.2-.1c0-.1-.1-.2-.2-.2 0 0-.1.1-.1.2Z"/>
  <path fill="#fff" d="M23.54 13.464s0-.7-.8-.9l-2.7-.3-.4 1"/>
  <path stroke="#050505" stroke-width=".4" d="M23.54 13.464s0-.7-.8-.9l-2.7-.3-.4 1"/>
  <mask id="b" width="5" height="2" x="20" y="12" maskUnits="userSpaceOnUse" style="mask-type:luminance">
    <path fill="#fff" d="M23.68 13.484s1.13.23-.3-.93l-3.08-.37-.06 1.11"/>
  </mask>
  <g mask="url(#b)">
    <path fill="#050505" d="M22.04 12.964c0 .5-.5.9-.9.9-.5-.1-.9-.5-.9-1s.5-.8.9-.8c.5 0 .9.4.9.9Z"/>
  </g>
  <path fill="#FEFEFE" d="M21.74 12.864c0 .1-.1.1-.2.1s-.2 0-.2-.1.1-.2.2-.2.2.1.2.2Z"/>
  <path fill="#0D0E10" d="M18.74 20.364c0 .1-.1.2-.2.2l-1.2-.1c-.1 0-.2-.1-.2-.2s.1-.1.2-.1h1.3c.1.1.1.1.1.2Z" opacity=".2"/>
  <path stroke="#050505" stroke-linecap="round" stroke-width=".4" d="m17.04 19.464 1.8.1"/>
  <path fill="#B98453" d="M17.84 12.064s-1.2 3.1-1.3 4.9c0 .7 2.7.2 2.7.2"/>
  <path stroke="#050505" stroke-linecap="round" stroke-width=".4" d="M17.84 12.064s-1.2 3.1-1.3 4.9c0 .7 2.7.2 2.7.2"/>
  <path fill="#050505" stroke="#050505" stroke-linecap="round" stroke-linejoin="round" stroke-width=".4" d="m17.84 11.764.1-.8-2.1-.4.1-.4-1.5 1.3v.4l1.3-.7 2.1.6Zm1.4-1 .3 1 3.3-.2 2 .5v-.2l-2.3-1.4.1.4-3.4-.1Z"/>
</svg>
