<svg xmlns="http://www.w3.org/2000/svg" width="31" height="75" fill="none" viewBox="0 0 31 75">
  <path fill="#050505" d="M28.525 71.4c0 1.8-6.1 3.2-13.5 3.2-7.5 0-13.5-1.4-13.5-3.2 0-1.8 6-3.3 13.5-3.3 7.4 0 13.5 1.5 13.5 3.3Z" opacity=".2"/>
  <path fill="#050505" fill-rule="evenodd" d="M30.926 46c0 .4-.1.6-.3.7v.3c-.1.2-.1.6-.5.7v.1c-.1.5-.3.7-.6.7h-.1c0 .2-.2.5-.5.6h-.2c-.3 0-.6-.2-.7-.5v-.3l-.1-.1c-.2.2-.4.3-.6.3a.887.887 0 0 1-.4-.1c-.3-.2-.5-.5-.8-1-.1-.4-.3-.7-.3-1-.067-.066-.1-.167-.1-.3-.067-.133-.1-.233-.1-.3v-.2c0-.2-.1-.5-.2-.8-.067-.133-.1-.233-.1-.3-.067-.2-.1-.4-.1-.6h-.1c-.134 0-.2-.067-.2-.2-.3-.6-1.5-3.4-2.7-6.3a4.64 4.64 0 0 0-.1.9c.3.5 1.7 3.6 2.4 5.2.066.067.033.167-.1.3a1.567 1.567 0 0 1-.4.3c.2.8.3 1.7.3 2.6 0 2.1-.2 3.6-.4 4.6-.134.467-.2.867-.2 1.2 0 .8-.1 8.6-.2 8.9 0 .067-.034.133-.1.2 0 0-.5.4-1.4.7 0 1-.1 2-.2 2.8-.1.9-.2 1.6-.2 2.1.1.5.2.9.2 1.3.066 0 .133.033.2.1.3.4 0 3.4-.2 3.8-.1.1-.3.2-.3.2-.3 0-.8-.1-.8-.1-.1 0-.2-.1-.2-.2-.1-.6-.3-1.3-.4-1.4-.2.1-.6.8-.9 1.5-.067.067-.134.1-.2.1-.1 0-2.3.5-3.1.6h-.5c-.8 0-1.8-.2-1.9-.9-.1-.3.2-.7 1-1.2-.067-.2-.134-.333-.2-.4-.2.1-.6.7-.9 1.4-.067.133-.134.2-.2.2-.1 0-2.3.5-3.1.6h-.6c-.7 0-1.7-.2-1.9-.9 0-.4.4-.8 1.4-1.4.6-.4 1.2-.6 1.3-.7.2-.2.4-.433.6-.7.4-.4 1-1.1 1-1.4v-.3c-.1-1-.1-2.3-.3-3.7 0-.267-.034-.6-.1-1-1.6-.4-2.4-.9-2.5-.9a1.162 1.162 0 0 1-.2-.3c0-.6-.3-13.6.1-17.5-.067-.067-.134-.1-.2-.1-.1-.1-.2-.2-.1-.3 0-.5.2-1.1.4-1.7v-.1c-.067-.067-.067-.133 0-.2v-.1c-.1-.3.3-1.4.6-2 0-.1.1-.1.2-.1h.1c.1-.3.2-.6.2-.7v-.6c-1 2.5-2 4.7-2.2 5.2-.067.133-.134.2-.2.2h-.4v.2l-.1-.1c0 .2-.034.4-.1.6-.1 1-.7 1.4-1.1 1.5 0 .2-.034.367-.1.5-.1.4-.2.8-.3 1-.1.4-.3.6-.7.6-.067 0-.134-.033-.2-.1-.067 0-.167-.033-.3-.1-.1.2-.3.4-.6.4h-.2a1.568 1.568 0 0 1-.4-.3c-.134.2-.3.3-.5.3h-.3a.654.654 0 0 1-.3-.3.888.888 0 0 1-.4.1h-.2c-.4-.2-.7-.6-.6-1 0-.1.1-1.1.9-2.6V44c.266-.4.5-.767.7-1.1.066-.066.1-.133.1-.2.066 0 .1-.033.1-.1.2-.2.4-.367.6-.5l-.1-.1c-.067-.067-.1-.167-.1-.3.5-1.5 4.6-14.6 4.7-14.8.133-.333.4-.633.8-.9.3-.5 1.3-1.5 3.1-1.6v-.1c-.5-.1-1-.1-1.3-.3l-.5-.5a1.162 1.162 0 0 0-.2-.3 1.162 1.162 0 0 0-.2-.3c0-.066-.034-.1-.1-.1-.9-1-2.2-3.8-2.5-5.7-.2-1-.4-2.9-.4-3.8V13c-.1 0-.2-.1-.1-.2 0-.067.033-.1.1-.1a.887.887 0 0 1-.1-.4c-.1-.3-.2-.6-.2-1.1v-.9c-.2-.2-.4-.8-.4-1.8s.1-1.3.2-1.5v-.1c0-.3.3-1.4.5-1.8 0-.1 0-.7.2-1.2s1-1.7 2.4-2.5c1.7-1 3.5-1.4 5.6-1.4h.3c1.9.1 5.9.2 8.2 2.8l.1.1c.6.667 1.033 1.467 1.3 2.4.333.933.533 1.767.6 2.5.066.067.066.133 0 .2.4 2.6-.3 4.1-.7 4.7.066 0 .2.033.4.1.4 0 .6.3.8.6l.1.1c.2 0 .6 0 1 .2.4.3.6.6.6.7.2.1.4.4.7.8.2.5.2 1 .2 1.2 0 .1.2.5.2 1 0 .4-.2 1-.4 1.2 0 .3-.1.6-.4 1.3-.1.4-.5.8-.8 1 0 .2-.2.5-.6.8-.4.4-.7.5-.8.5-.1.2-.3.3-.6.5-.4.1-.7.1-.9.2h-.2c-.2.1-.4.1-.6.1-.4 0-.7-.067-.9-.2l-.5-.5h-.2c-.1.1-.3.3-.6.3-.067 0-.167-.033-.3-.1-.5-.1-1.3-.5-1.5-1-.134.2-.3.334-.5.4 0 .067-.034.1-.1.1v.2c0 .6.1 1.2.2 1.6v.2c.266.067.5.2.7.4 1.1.3 2.3.8 3.1 1.2.466.067.9.2 1.3.4s.7.5.9 1h.1l.2.4c.1.3 4 13 4.4 14.4.066.133.066.233 0 .3h-.1l.1.3c.066.067.066.133 0 .2.4.333.7.767.9 1.3.6 1.3.6 2 .5 2.1Zm-14.6 24 .4-.6c.5-.4 1-1.1 1-1.3v-.4c-.1-1-.1-2.3-.3-3.7 0-.2-.034-.467-.1-.8a3.29 3.29 0 0 1-.8.1h-.3a85.412 85.412 0 0 1-.2 1.5c-.1.9-.2 1.6-.2 2.1.1.5.2.9.2 1.3.066 0 .133.033.2.1.1.2.1.9.1 1.7Z" clip-rule="evenodd" opacity=".2"/>
  <path fill="#F3B7A4" d="M4.725 45.6c.2-.1 1-.2 1.2-1.4.3-1.2.1-1.6-.3-2-.4-.4-2-.4-2-.4s-1.4.1-2.5 2.3c0 0-.4 1.1-.1 1.2.4 0 2.8.4 3.1.5.3.1.3-.2.6-.2Z"/>
  <path fill="#050505" fill-rule="evenodd" d="M4.225 46.1h-.1c-.3-.1-2.8-.5-3.1-.6-.133 0-.233-.067-.3-.2-.2-.3 0-.9.2-1.3 1.1-2.3 2.6-2.5 2.7-2.5.4 0 1.8.1 2.2.5.5.5.6 1 .4 2.2-.2 1.4-1.2 1.6-1.4 1.6-.1 0-.1 0-.1.1-.1.1-.2.2-.5.2Zm-3-1.1c.6.1 2.7.4 3 .5h.1c.1-.1.2-.2.4-.2s.8-.2 1-1.2c.2-1.1 0-1.4-.3-1.7-.2-.2-1-.3-1.8-.3-.1 0-1.3.2-2.2 2.2-.1.2-.2.6-.2.7Z" clip-rule="evenodd"/>
  <path fill="#F3B7A4" d="M3.826 45.5c-.3 1-.3 1.4-.3 1.4 0 .3.1.5.3.6.3.1.6-.1.6-.3.2-.5.4-1.4.5-1.9"/>
  <path fill="#050505" d="M4.026 47.8h-.2c-.4-.2-.6-.5-.6-.9 0-.2.1-.6.3-1.5.1-.2.2-.2.4-.2.1 0 .2.2.2.3-.3 1-.3 1.4-.3 1.4 0 .1 0 .3.1.3.1.1.2 0 .3-.1.1-.3.1-.6.2-1l.3-.9c0-.2.2-.2.3-.2.2.1.2.2.2.4-.1.2-.2.5-.2.9-.1.3-.2.7-.3 1-.1.3-.4.5-.7.5Z"/>
  <path fill="#F3B7A4" d="M2.826 45.1c-.4 1-.4 2-.4 2-.1.3.1.5.3.6.3.1.5-.1.6-.3.1-.2 0-.3.1-.8 0 0 .2-.5.4-1.1"/>
  <path fill="#050505" d="M2.826 48h-.2c-.4-.2-.6-.5-.5-.9 0-.2.1-1.1.4-2 .1-.2.2-.3.4-.2.1 0 .2.2.1.3-.3.9-.4 1.9-.4 1.9 0 .2 0 .3.2.3.1.1.2 0 .2-.1.1-.1.1-.1.1-.2 0-.2 0-.3.1-.5 0-.1.1-.6.3-1.2.1-.1.2-.2.4-.1.1 0 .2.2.1.3-.2.5-.3 1.1-.3 1.1 0 .2-.1.3-.1.4 0 .1 0 .2-.1.4-.1.3-.4.5-.7.5Z"/>
  <path fill="#F3B7A4" d="M2.526 46c-.2.8-.2 1.1-.3 1.4-.1.3-.4.4-.6.3-.3-.1-.4-.3-.3-.6 0 0 .1-.9.4-1.9"/>
  <path fill="#050505" d="M1.726 48h-.2c-.4-.2-.6-.5-.5-1 0-.1.1-.9.4-1.9.1-.1.2-.2.4-.2.1.1.2.2.1.4-.3.9-.4 1.8-.4 1.8 0 .2 0 .3.2.3.1.1.2 0 .2-.1.1-.1.1-.3.2-.5 0-.2.1-.4.2-.8 0-.2.2-.3.3-.2.1 0 .2.2.2.3-.1.4-.2.6-.2.8-.1.3-.1.4-.2.6-.1.3-.4.5-.7.5Z"/>
  <path fill="#F3B7A4" d="M1.926 42.9c-1.6 2.3-1.7 3.9-1.7 3.9 0 .3.2.6.4.7.2.1.5 0 .6-.3.3-.8.6-2.1.8-2.2"/>
  <path fill="#050505" fill-rule="evenodd" d="M.826 47.8h-.3c-.4-.1-.6-.6-.5-1 0-.2.1-1.8 1.7-4.1.1-.1.3-.1.4 0 .1.1.1.2 0 .3-1.5 2.3-1.6 3.8-1.6 3.8v.1c0 .1.1.3.2.4h.2v-.1c.066-.2.133-.367.2-.5.4-1.4.5-1.8.7-1.9.2-.1.3-.1.4.1.1.1 0 .2-.1.3-.1.2-.3 1.1-.5 1.6-.067.2-.1.367-.1.5a.6.6 0 0 1-.4.4c-.134.067-.234.1-.3.1Z" clip-rule="evenodd"/>
  <path fill="#050505" d="M4.926 45.1c.1 0 .6-.4 0-.7-.5-.3-1.2-.6-1.9-.6-.8 0-1.4 0-1.4-.3s.8-1.2 1.2-1.4c.5-.3 1.7-.3 2.1-.2.4.1 1.1.5 1.1 1.2.1.7-.1 1.7-.5 1.9-.4.2-.6.1-.6.1Zm-3.101-.5s-.4.4-.6.9c-.2.4-.6 1.6-.2 1.7l.3-.1s.1.3.4.3c.3 0 .6-.6.6-.6s.2.6.6.4c.3-.1.3-.4.3-.4s.2.4.5.3c.4-.1.7-.4.8-.8.1-.4.3-1.1.3-1.1s-.3.2-.8.1c-.6-.1-1.1-.2-1.1-.2l-1.1-.5Z" opacity=".2" style="mix-blend-mode:multiply"/>
  <path fill="#F3B7A4" d="M3.025 44.9s0 .1-.3.7c-.2.5-.2.6-.5.8-.2.2-.5.2-.7 0-.2-.2-.2-.5 0-.8.2-.4.3-.6.4-1 0 0 0-.4-.2-.5"/>
  <path fill="#050505" d="M1.926 46.8c-.2 0-.4-.067-.6-.2-.3-.3-.3-.7 0-1.2v-.1c.2-.2.3-.4.3-.7v-.2c-.2-.1-.2-.2-.2-.4 0-.1.2-.2.3-.2.4.1.5.5.4.9 0 .4-.1.6-.3.9l-.1.1c0 .1-.1.4 0 .5.2.2.3.1.3 0 .2-.1.2-.2.4-.4 0-.067.033-.167.1-.3.2-.5.3-.6.3-.6 0-.2.1-.3.3-.2.1 0 .2.1.2.3 0 .1-.2.5-.3.8l-.2.2c-.1.3-.2.4-.4.6a.68.68 0 0 1-.5.2Z"/>
  <path fill="#F3B7A4" d="M7.526 27.4c.4-1.2 1.7-2 3.1-1.6 1.4.5 2.1 1.9 1.6 3.6-.6 1.7-5.9 13.8-5.9 13.8l-3.7-1.2s4.5-13.5 4.9-14.6Z"/>
  <path fill="#050505" fill-rule="evenodd" d="M6.326 43.5h-.1l-3.7-1.2c-.1-.1-.2-.2-.1-.4.2-.5 4.4-13.5 4.8-14.6.5-1.3 1.9-2.3 3.5-1.7 1.6.5 2.3 2.1 1.7 3.9-.5 1.7-5.7 13.3-5.9 13.8-.067.134-.134.2-.2.2Zm-3.3-1.7 3.1 1.1c.8-1.7 5.3-12 5.8-13.6.5-1.5-.1-2.8-1.4-3.2-1.3-.4-2.4.4-2.8 1.4-.3 1-4.1 12.5-4.7 14.3Z" clip-rule="evenodd"/>
  <path fill="#586A2F" d="M7.126 27.1c.4-1.2 2.1-1.7 3.5-1.3 1.4.5 2.6 1.9 2 3.6-.1.2-5.9 13.8-5.9 13.8s-1 .1-2.3-.3c-1.3-.4-2-1.1-2-1.1s4.7-14.6 4.7-14.7Z"/>
  <path fill="#050505" fill-rule="evenodd" d="M6.526 43.5c-.4 0-1.2 0-2.1-.4-1.4-.4-2.1-1-2.2-1.1-.067-.067-.067-.167 0-.3.4-1.4 4.6-14.6 4.7-14.7.4-1.3 2.2-2 3.8-1.4 1.5.5 2.8 2 2.2 3.9-.1.2-5.3 12.4-5.9 13.8-.067.133-.167.2-.3.2h-.2Zm-3.8-1.8c.3.2.9.6 1.8.9 1 .3 1.7.3 2 .3 2-4.6 5.8-13.3 5.9-13.6.5-1.5-.6-2.8-1.9-3.2-1.3-.4-2.8.1-3.1 1-.1.3-3.1 9.6-4.7 14.6Z" clip-rule="evenodd"/>
  <path fill="#050505" d="M11.026 26.2s2.2 1 1.7 2.7c-.4 1.7-4.4 9.8-4.4 9.8l-2 5-2.6-1.3c.5-.1 2 .6 2.4-.5 1.3-3.4 4.4-11.1 4.8-12.3.6-1.6.1-3.4.1-3.4Z" opacity=".2" style="mix-blend-mode:multiply"/>
  <path fill="#C6872B" d="m24.726 15.6-2.3-4.2-5.3 6 2.2 4.1s1.1.4 1.1.2 1-1.3 1-1.3l3.3-4.8Z"/>
  <path fill="#050505" fill-rule="evenodd" d="M20.325 22c-.133 0-.366-.033-.7-.1-.1 0-.2-.1-.3-.1h-.1c-.066 0-.133-.033-.2-.1l-2.2-4.2c-.066-.067-.066-.167 0-.3l5.4-6c.067-.067.134-.067.2 0 .067 0 .134.033.2.1l2.3 4.2c.067.133.067.233 0 .3l-3.3 4.8c-.4.4-.8 1-.9 1.1 0 .133-.033.2-.1.2-.066.067-.166.1-.3.1Zm-.9-.7a.88.88 0 0 1 .4.1c.1 0 .3 0 .4.1.1-.2.4-.6 1-1.3l3.2-4.6-2.1-3.7-4.9 5.5 2 3.9Z" clip-rule="evenodd"/>
  <path fill="#EDC425" d="m21.025 22.1.5.5c.2.134.467.2.8.2.3 0 .5-.2.6-.2.2 0 .5 0 .9-.2s.5-.3.5-.4c.2-.1.4 0 .9-.5.7-.6.5-.8.5-.8.1.1.6-.3.8-.9.3-.5.4-1 .3-1.2.2-.1.4-.6.5-1.2 0-.5-.3-1-.3-1s.2-.5-.1-1.1c-.3-.5-.7-.7-.7-.7s0-.3-.5-.6c-.4-.3-.9-.2-.9-.2l-.6 2.1-3.2 6.2Z"/>
  <path fill="#050505" fill-rule="evenodd" d="M22.225 23.1c-.333 0-.633-.1-.9-.3l-.5-.5c-.1-.1-.1-.2-.1-.3l3.3-6.2.5-2.1c.067-.133.167-.2.3-.2 0 0 .5-.1 1.1.3.4.2.5.5.6.7.1.1.4.3.6.7.3.5.3 1 .2 1.2.1.2.2.6.2 1 0 .5-.1 1-.4 1.3.1.2 0 .6-.3 1.2-.2.4-.5.8-.8 1-.1.2-.3.5-.6.8-.4.4-.7.5-.9.5-.1.2-.2.3-.5.5-.4.2-.7.2-.9.2h-.3c-.1.1-.3.2-.5.2h-.1Zm-.9-1c.1.1.2.2.3.2.2.2.4.2.7.2.067 0 .167-.033.3-.1.134-.066.234-.1.3-.1h.2c.1 0 .4 0 .6-.1.3-.1.3-.2.4-.3 0-.066.034-.133.1-.2h.2c.1 0 .3-.1.6-.4.3-.3.4-.4.4-.5 0-.2 0-.3.1-.3.067-.066.134-.1.2-.1.1-.1.4-.3.6-.7.3-.6.3-.9.3-.9-.066-.133-.1-.233-.1-.3l.2-.2c.1 0 .3-.4.3-.9s-.2-.9-.2-.9v-.1s.1-.5-.2-.9c-.2-.5-.5-.6-.5-.6-.066-.066-.1-.166-.1-.3 0 0-.1-.2-.4-.4-.2-.1-.4-.1-.6-.1l-.5 1.9-3.2 6.1Z" clip-rule="evenodd"/>
  <path fill="#050505" d="M21.125 22.1c.2 0 .5-.2.6-.2.2 0 .5.1.9-.1s.5-.4.5-.5c.2 0 .4 0 .9-.4.7-.7.5-.8.5-.9.1.1.6-.3.8-.9.3-.5.4-1 .3-1.2.2 0 .4-.6.4-1.1.1-.6-.2-1.1-.2-1.1s.2-.5-.1-1c-.3-.6-.7-.7-.7-.7v-.2c.2 0 .4 0 .7.2.5.3.5.6.5.6s.4.2.7.7c.3.6.1 1.1.1 1.1s.3.5.3 1c-.1.6-.3 1.1-.5 1.2.1.2 0 .7-.3 1.2-.2.6-.7 1-.8.9 0 0 .2.2-.5.8-.5.5-.7.4-.9.5 0 .1-.1.2-.5.4s-.7.2-.9.2c-.1 0-.3.2-.6.2-.333 0-.6-.067-.8-.2-.2-.2-.5-.4-.5-.5h.1Z" opacity=".1"/>
  <path fill="#EDC425" d="M23.425 13h.5c.4.1.6.7.6.7s.5 0 .6.6c.2.5 0 .9 0 .9s.3.5.2.9c0 .4-.4 1.5-.4 1.5s0 .7-.2 1c-.2.3-.7.8-.7.8s0 .6-.5 1c-.4.4-1.1.7-1.1.7s-.1.7-1 .9c-.6.2-.8 0-.8 0s-.2.4-.8.3c-.6-.2-1.4-.7-1.3-1.1 0-.4.1-1.4.1-1.4l.5.5s.4 0 .5.1c0 0 .3-.4.7-.6.3-.2.6-.1.6-.1l2.5-6.7Z"/>
  <path fill="#050505" fill-rule="evenodd" d="M20.025 22.6c-.066 0-.133-.033-.2-.1-.7-.1-1.6-.7-1.6-1.3 0-.5.2-1.4.2-1.4 0-.133.067-.2.2-.2.067-.066.134-.066.2 0l.4.4h.4c.1-.1.3-.3.5-.4.267-.133.467-.2.6-.2l2.5-6.5.1-.1c.1 0 .2-.1.7 0 .4 0 .6.4.7.6.3.1.6.4.7.8.1.4.1.8 0 1 .1.1.3.5.2.9-.1.5-.4 1.3-.5 1.5 0 .2 0 .8-.2 1.1-.1.3-.5.6-.6.8 0 .2-.1.7-.6 1.1-.4.3-.9.6-1.1.7-.1.3-.3.8-1.1 1-.4.1-.7.1-.8 0-.2.2-.4.3-.7.3Zm-1.2-2.2c0 .3 0 .6-.1.8 0 .2.6.7 1.2.8.3.1.4-.1.4-.1 0-.066.067-.133.2-.2.067 0 .134.034.2.1.1 0 .2 0 .7-.1.6-.1.7-.6.7-.6 0-.133.067-.233.2-.3 0 0 .6-.2 1.1-.6.3-.4.3-.8.3-.8 0-.066.034-.133.1-.2.2-.1.5-.6.7-.8.1-.1.1-.6.1-.8v-.1c.1-.3.4-1.1.5-1.4 0-.4-.2-.8-.2-.8v-.2s.1-.3 0-.8c-.1-.3-.4-.4-.4-.4-.133 0-.2-.066-.2-.2-.1-.1-.2-.4-.4-.4h-.3l-2.4 6.5-.2.2h-.2s-.2-.1-.4 0c-.3.2-.5.5-.5.5a1.166 1.166 0 0 1-.3.2c-.066 0-.133-.033-.2-.1h-.3c-.066 0-.133-.033-.2-.1l-.1-.1Z" clip-rule="evenodd"/>
  <path fill="#050505" d="M19.125 21.6c.6.2.7-.2.7-.2s.2.1.9 0c.8-.2.9-.9.9-.9s.7-.3 1.2-.8c.5-.4.5-.9.5-.9s.5-.6.7-.9c.1-.3.1-1 .1-1s.4-1 .5-1.4c0-.5-.2-.9-.2-.9s.1-.5 0-1c-.1-.4-.5-.5-.6-.6h.1c.4.1.6.7.6.7s.5 0 .6.6c.2.5 0 .9 0 .9s.3.5.2.9c0 .4-.4 1.5-.4 1.5s0 .7-.2 1c-.2.3-.7.8-.7.8s0 .6-.5 1c-.4.4-1.1.7-1.1.7s-.1.7-1 .9c-.6.2-.8 0-.8 0s-.2.4-.8.3c-.5-.1-1-.5-1.3-.8.2.067.4.1.6.1Z" opacity=".1"/>
  <path fill="#050505" fill-rule="evenodd" d="M19.925 21.8c-.3 0-.6-.1-.7-.1-.3 0-.7-.2-.8-.3-.1-.1-.1-.2-.1-.2.1-.1.2-.1.3-.1.2.2.5.3.6.3h.1s.4.2.8.1c.3 0 .7-.4.8-.5v-.1h.1s.7 0 1-.4c.3-.4.5-.8.5-.8h.1c.1-.1.5-.5.6-.7.2-.4.3-.9.3-.9V18s.5-.6.5-1.3l.1-.7v-1.3c-.1-.5-.2-.8-.3-.9l-.2-.1c-.1-.1-.1-.2-.1-.3h.3l.2.2h.1s.2.5.3 1.1v2.1c-.1.7-.5 1.2-.6 1.4 0 .1-.1.6-.3.9-.1.4-.6.7-.7.8-.1.1-.3.5-.6.8-.3.4-.9.5-1.1.5-.2.2-.6.6-1 .6h-.2Z" clip-rule="evenodd"/>
  <path fill="#050505" d="M20.525 22.2c-.3 0-1-.4-1-.4-.1-.1-.1-.2-.1-.2 0-.1.1-.2.2-.1.2.1.7.3.9.3h.1s.1.1.1.2 0 .2-.1.2h-.1Zm1.301-.9h-.2c-.2-.1-.6-.1-.6-.1h-.1V21c0-.1 0-.3-.1-.4 0-.2-.1-.8-.1-1 .1 0 .2-.1.3 0 0 0 .1.1 0 .2 0 .1.1.5.1.6.1.2.1.4.1.5.1 0 .3 0 .5.1.1 0 .5 0 .6-.1.1 0 .2.1.2.2s0 .1-.1.2h-.6Zm.799-1.2-.1-.2c-.1-.3-.2-.7-.4-.9-.3-.2-.3-.7-.3-.8 0-.1.1-.1.1-.1.1 0 .2 0 .2.1s.1.4.3.6c.1.2.3.5.3.8a.888.888 0 0 1 .4-.1c.3 0 .7-.1.8-.2.1-.1.2-.1.2 0 .1 0 .1.1 0 .2-.2.2-.7.3-1 .3-.1 0-.3.1-.3.1l-.2.2Zm.9-1.7v-.3s-.1-.3-.2-.5c0-.066-.033-.133-.1-.2-.2-.2-.3-.4-.4-.6 0-.2-.1-.5-.1-.5 0-.1.1-.1.2-.1.1-.1.2 0 .2.1v.4c.1.1.2.3.3.5.067.133.134.233.2.3l.2.4c.067-.066.167-.133.3-.2h.1c.1 0 .3-.1.3-.1.1-.2.3-.2.4-.2l-.1.3c-.1.2-.3.2-.5.3h-.1c-.2.1-.5.2-.5.2l-.2.2Zm.701-2.3-.1-.1c-.2-.4-.5-.8-.6-.8-.1-.1-.1-.2-.1-.2 0-.1.1-.2.2-.1.3.1.6.5.7.8.3-.1.6-.4.7-.6.1-.1.2-.1.2 0 .1 0 .1.1.1.2-.3.4-.9.7-.9.8h-.2Zm-.101-1.9h-.1c-.1-.1-.1-.1-.1-.2s.1-.5.6-.5c.1 0 .2.1.2.1 0 .1-.1.2-.2.2-.2 0-.3.2-.3.2 0 .133-.033.2-.1.2Z"/>
  <path fill="#050505" d="M22.125 22.4c-.1 0-.3-.1-.3-.1-.4.1-.8 0-.8 0-.1 0-.2-.1-.2-.2.1-.1.1-.1.2-.1.2 0 .5.1.7 0h.1c.1 0 .3.1.4 0 .3-.1.6-.3.6-.3h.1c.2 0 .7 0 .9-.2.2-.3.3-.5.3-.5l.1-.1c.2-.1.6-.4.7-.6.1-.2.3-.7.3-.7v-.1s.5-.7.7-1.2c.1-.4 0-1.1 0-1.1s.2-.8.1-1.4c-.1-.4-.2-.5-.2-.5h-.1v-.1c0-.1-.1-.4-.2-.5-.1-.2-.4-.3-.4-.3-.1-.1-.1-.2-.1-.3 0 0 .1-.1.2 0 0 0 .3.1.5.4.2.1.3.4.3.6.1.1.2.2.3.7.1.5 0 1.3 0 1.4 0 .1 0 .8-.1 1.2-.2.5-.6 1.2-.7 1.3 0 .1-.2.6-.4.8-.1.2-.6.6-.7.7 0 .1-.2.3-.4.5-.3.3-.8.3-1 .3-.1.1-.4.2-.6.3-.066.067-.166.1-.3.1Z"/>
  <path fill="#050505" d="m25.925 15.5-.2-.2c-.1-.2-.4-.4-.6-.5-.1 0-.1-.1-.1-.2.1-.1.2-.1.3-.1 0 .1.3.2.5.4.1-.1.2-.3.3-.3.1-.1.2-.1.2 0 .1 0 .1.1 0 .2s-.2.3-.3.4l-.1.3Zm.101 2.2-.1-.5c0-.1-.1-.3-.3-.4-.067-.066-.1-.133-.1-.2-.2-.1-.3-.3-.3-.3v-.2c.1-.1.2-.1.3 0 0 0 .1.2.2.3l.2.2c.066.067.133.167.2.3.066-.066.166-.133.3-.2.1 0 .4-.2.5-.3 0-.1.1-.2.2-.1.1 0 .1.1.1.1 0 .3-.6.6-.7.6l-.3.3-.2.4Zm-1 2.7.2-.8v-.4c0-.1-.1-.2-.2-.4-.2-.267-.3-.433-.3-.5-.1-.1 0-.2.1-.2 0-.1.1 0 .2.1 0 .1.1.3.2.4.1.2.3.4.3.5v.1c.133-.133.266-.233.4-.3.3-.1.7-.3.8-.4 0-.1.1-.1.2-.1.1.1.1.2 0 .3-.1.2-.9.5-.9.5l-.5.5-.5.7Zm-.701.8h-.1c-.1-.1-.1-.2 0-.2 0 0 .1-.2 0-.4v-.3c-.066-.133-.1-.233-.1-.3 0-.3-.2-.6-.2-.6s0-.1.1-.2c0 0 .1 0 .2.1 0 0 .2.3.2.6.067.134.1.234.1.3v.4c.1.3-.1.6-.1.6h-.1Z"/>
  <path fill="#050505" d="M24.725 20.9c-.066 0-.133-.033-.2-.1 0-.1.1-.2.2-.2 0 0 .6-.1 1-.1.1 0 .1.1.1.2s-.1.1-.1.1c-.4 0-1 .1-1 .1Zm-.399 1.3-.1-.1s-.1-.1-.3-.1c-.1-.1-.5 0-.6 0-.1 0-.1-.1-.1-.2s0-.1.1-.1c0 0 .5-.1.7 0 .3 0 .4.2.4.2.1 0 .1.1 0 .2 0 .066-.034.1-.1.1Z"/>
  <path fill="#050505" fill-rule="evenodd" d="m22.925 22-.1-.1c-.1 0-.1-.1 0-.2l.1-.1v-.2c.1-.5.1-.8.2-.9.1-.1.2-.1.3 0 0 .1 0 .2-.1.2 0 .1-.1.6-.1.7v.3c0 .1-.1.2-.2.2 0 .067-.033.1-.1.1Z" clip-rule="evenodd"/>
  <path fill="#050505" d="m22.925 22.8-.1-.1s-.1-.1-.2-.1c-.2 0-.4-.2-.4-.2-.1-.1-.1-.2-.1-.3.1 0 .2-.1.2 0 .1.1.3.2.4.2.2 0 .3.2.3.2.1 0 .1.1.1.2-.066.067-.133.1-.2.1Zm-1.099-.5h-.2V22c.1 0 .2-.2.2-.2 0-.1 0-.2.1-.2s.2 0 .2.1c.1.3-.2.5-.2.6h-.1Z"/>
  <path fill="#F3B7A4" d="M9.225 70.9c.1.7 5.8-1.6 5.8-1.6s-.2-1.2-.4-2.3c-.1-1.1.5-3.1.4-5.2v-3.4c0-2 .8-5.4.8-5.4l-6.7.5s1.5 7.5 1.8 10.2c.2 1.6.3 3 .3 4.1.1.7-2.1 2.4-2 3.1Z"/>
  <path fill="#050505" fill-rule="evenodd" d="M9.525 71.3c-.2 0-.3 0-.4-.1l-.2-.2c-.1-.5.5-1.2 1.1-1.9.4-.4 1-1.1 1-1.3l-.1-.4c0-1-.1-2.3-.2-3.7-.4-2.6-1.9-10.1-1.9-10.2 0-.067.034-.133.1-.2.067-.067.134-.1.2-.1l6.7-.4c.067 0 .134.033.2.1.067.067.1.133.1.2 0 0-.8 3.3-.8 5.3v3.4c0 1.1-.1 2.1-.3 3.1-.1.8-.2 1.5-.1 2 .1 1.1.3 2.3.3 2.3 0 .1 0 .3-.1.3l-2.6 1c-1.8.7-2.6.8-3 .8Zm0-.5c.5 0 3-.8 5.2-1.7-.1-.4-.2-1.3-.4-2.1 0-.6.1-1.3.2-2.2.1-.9.3-1.9.2-2.9v-3.5c0-1.7.6-4.1.8-5.1l-6.1.4c.3 1.5 1.5 7.6 1.8 10 .2 1.4.2 2.7.3 3.7v.3c0 .5-.5 1.2-1.1 1.8-.4.4-.9 1-.9 1.3Z" clip-rule="evenodd"/>
  <path fill="#050505" d="M13.226 69h1.6l-.2-2.6.4-3.9-.2-4.4.7-4.7-3.1.2s.5 6.7.8 9c.3 2.4 0 6.4 0 6.4Z" opacity=".1" style="mix-blend-mode:multiply"/>
  <path fill="#5F0A1C" d="M15.025 68.5c-.3-.4-2.7.9-3.3 1.4-.7.6-2.2 1-2.5.8-.4-.2.3-.6.3-.6s-2.7 1.1-2.5 1.8c.1.6 1.4.7 2.2.6.7-.1 3-.5 3-.5s.6-1.6 1.1-1.7c.5 0 .7 1.7.7 1.7h.7c.3 0 .5-3.3.3-3.5Z"/>
  <path fill="#050505" fill-rule="evenodd" d="M8.625 72.8c-.8 0-1.7-.2-1.9-.9-.1-.4.3-.8 1.4-1.4.6-.4 1.3-.7 1.3-.7.2 0 .3 0 .4.2 0 .1 0 .2-.1.3-.066.067-.133.1-.2.1.4 0 1.5-.3 2-.7.4-.3 1.2-.7 1.9-1.1 1.3-.6 1.7-.5 1.8-.3.3.4 0 3.4-.2 3.8-.1.2-.2.2-.3.2-.2 0-.7-.1-.7-.1-.2 0-.3-.1-.3-.2-.1-.6-.2-1.3-.4-1.4-.2.1-.6.8-.8 1.5-.066.067-.133.1-.2.1-.1.1-2.3.5-3.1.6h-.6Zm-1.4-1c.1.4 1.1.5 1.9.4.7-.1 2.4-.4 2.9-.5.2-.6.7-1.6 1.3-1.7.6 0 .8 1 .9 1.7h.4c.1-.5.3-2.5.2-3-.5 0-2.3.9-3 1.4-.6.6-2.3 1.1-2.8.8-.066-.067-.1-.134-.1-.2-.9.4-1.6.9-1.7 1.1Z" clip-rule="evenodd"/>
  <path fill="#F3B7A4" d="M15.025 71.2c.1.7 5.8-1.6 5.8-1.6s-.2-1.2-.4-2.3c-.1-1.1.5-3.1.4-5.1v-3.5c0-2 .8-5.3.8-5.3l-6.7.4s1.5 7.5 1.8 10.2c.2 1.6.3 3 .3 4.1.1.8-2.1 2.4-2 3.1Z"/>
  <path fill="#050505" fill-rule="evenodd" d="M15.325 71.6c-.2 0-.3 0-.3-.1a1.163 1.163 0 0 1-.3-.2c-.1-.5.5-1.1 1.1-1.9.4-.4 1-1 1-1.3l-.1-.4c0-1 0-2.3-.2-3.7-.4-2.6-1.8-10.1-1.9-10.2 0-.067.034-.133.1-.2.067-.067.134-.1.2-.1l6.7-.4c.067 0 .134.033.2.1.067.067.1.133.1.2 0 .1-.8 3.3-.8 5.3v3.4c0 1.1-.1 2.1-.3 3.1-.1.8-.2 1.5-.1 2.1.1 1 .3 2.2.3 2.2.1.1 0 .3-.1.3l-2.6 1c-1.8.7-2.6.8-3 .8Zm0-.5c.5 0 3-.8 5.2-1.7-.1-.4-.2-1.3-.3-2.1-.1-.6 0-1.3.1-2.2.1-.9.3-1.9.2-2.9v-3.5c0-1.7.6-4.1.8-5.1l-6.1.4c.3 1.5 1.5 7.6 1.8 10 .2 1.4.3 2.7.3 3.7v.3c0 .6-.5 1.2-1.1 1.8-.3.4-.9 1-.9 1.3Z" clip-rule="evenodd"/>
  <path fill="#050505" d="M19.026 69.3h1.6l-.2-2.6.4-3.9-.2-4.4.7-4.7-3.1.2s.5 6.7.8 9c.3 2.4 0 6.4 0 6.4Z" opacity=".1" style="mix-blend-mode:multiply"/>
  <path fill="#5F0A1C" d="M20.826 68.8c-.3-.4-2.7.9-3.3 1.4-.7.6-2.2 1-2.5.8-.4-.2.3-.6.3-.6s-2.7 1.1-2.5 1.8c.1.6 1.4.7 2.2.6.7-.1 3-.5 3-.5s.6-1.6 1.1-1.7c.5 0 .7 1.7.7 1.7h.7c.3 0 .5-3.3.3-3.5Z"/>
  <path fill="#050505" fill-rule="evenodd" d="M14.426 73.1c-.8 0-1.7-.2-1.9-.9-.1-.4.3-.8 1.4-1.4.6-.4 1.3-.7 1.3-.7.2 0 .3 0 .4.2.1.1 0 .3-.1.3-.067.067-.134.1-.2.1.4 0 1.5-.3 2-.7.4-.3 1.2-.7 1.9-1.1 1.3-.6 1.7-.5 1.8-.3.3.4 0 3.4-.2 3.8-.1.2-.2.2-.3.2-.2 0-.7-.1-.7-.1-.2 0-.3-.1-.3-.2 0-.6-.2-1.3-.4-1.4-.2.1-.6.8-.8 1.5-.067.067-.134.1-.2.1-.1.1-2.3.5-3.1.6h-.6Zm-1.4-1c.1.4 1.1.5 1.9.4.7 0 2.4-.4 2.9-.5.2-.5.8-1.6 1.3-1.6.6-.1.8.9.9 1.6h.4c.1-.5.3-2.5.2-3-.5 0-2.3.9-3 1.5-.6.5-2.3 1-2.7.7-.134-.067-.2-.133-.2-.2-.9.5-1.6.9-1.7 1.1Z" clip-rule="evenodd"/>
  <path fill="#5C6249" d="M21.425 41s1.7 2.6 1.7 5.8c0 3.1-.6 4.8-.6 5.7 0 .8-.2 8.9-.2 8.9s-2.1 1.6-6.8 1.6c-4.7 0-7.3-1.4-7.3-1.4s-.4-16.2.2-18.4c.5-2.2 1.6-4.4 1.6-4.4s.1.2 3.6.2c3.6-.1 6.7-.5 6.7-.5l1.1 2.5Z"/>
  <path fill="#050505" fill-rule="evenodd" d="M15.525 63.3c-4.7 0-7.3-1.4-7.5-1.5-.066-.066-.1-.133-.1-.2 0-.7-.4-16.2.2-18.5.6-2.2 1.6-4.3 1.7-4.4.067-.133.134-.166.2-.1h.2c.1 0 .6.1 3.4.1 3.6 0 6.6-.5 6.6-.5.1 0 .3.1.3.2l1.1 2.5c.2.2 1.8 2.8 1.8 5.9 0 2.1-.3 3.5-.5 4.5-.066.534-.1.934-.1 1.2 0 .8-.2 8.6-.2 8.9 0 .067-.033.134-.1.2-.1.1-2.2 1.7-7 1.7Zm-7.1-1.9c.6.3 3.2 1.3 7.1 1.3 4 0 6.1-1.1 6.6-1.4 0-1.1.1-8 .1-8.8.067-.333.134-.767.2-1.3.2-.9.4-2.4.4-4.4 0-3.1-1.6-5.6-1.7-5.6v-.1l-1-2.3c-.8.1-3.4.4-6.4.4-2.1.1-3.1 0-3.5 0-.3.5-1.1 2.3-1.6 4.1-.5 2-.2 16.4-.2 18.1Z" clip-rule="evenodd"/>
  <path fill="#050505" d="M18.625 38.9s1.8 3.8 1.9 6c.1 2.3-.3 5.6-.3 7.1-.1 1.6-.3 10.5-.3 10.5l2.4-1.1s.1-7.7.2-8.9c.1-1.3.8-5.5.6-6.8-.3-1.2-1.1-3.2-1.7-4.7-.6-1.5-1.1-2.5-1.1-2.5l-1.7.4Z" opacity=".1"/>
  <path fill="#F3B7A4" d="M17.426 22.3c0-.8.1-1.5.1-1.7 0-.8-1.2-1.3-3.2-1.3s-3.3.6-3.3 1.3c0 .2.1 1 .1 1.8 0 .9-.1 1.9-.1 2.2 0 .7-4.9 8 .1 8.2 5.2.2 6.5-7.7 6.5-8.4 0-.3-.2-1.2-.2-2.1Z"/>
  <path fill="#050505" fill-rule="evenodd" d="M11.326 33.1h-.2c-1.067-.067-1.8-.433-2.2-1.1-1-1.6.5-4.6 1.3-6.3.2-.5.5-1 .5-1.1V24c.1-.4.2-1 .2-1.6 0-.5-.1-1-.2-1.3v-.5c0-1 1.5-1.6 3.6-1.6s3.5.6 3.5 1.6v.4c-.1.3-.1.8-.1 1.3 0 .6.1 1.1.1 1.6.066.2.1.367.1.5 0 .5-.7 4.9-3.1 7.2-1 1-2.167 1.5-3.5 1.5Zm3-13.6c-2 0-3.1.6-3.1 1.1 0 0 .1.2.1.4 0 .3.1.9.1 1.4 0 .6-.1 1.3-.1 1.7 0 .2-.1.4-.1.5 0 .2-.1.6-.5 1.3-.7 1.6-2.2 4.5-1.4 5.8.333.533.933.8 1.8.8 1.266.067 2.366-.367 3.3-1.3 2.3-2.2 2.9-6.4 2.9-6.8v-.5c-.1-.4-.2-1-.2-1.6 0-.5.1-1 .1-1.4v-.3c0-.5-1.1-1.1-2.9-1.1Z" clip-rule="evenodd"/>
  <path fill="#050505" d="M17.526 21.1v1.7s-2.8 2.4-4.7 2.1c-2-.2-1.9-.8-1.8-1.1.1-.4.1-1.7 2.2-2.4 2-.6 4.3-.3 4.3-.3Z" opacity=".2" style="mix-blend-mode:multiply"/>
  <path fill="#586A2F" d="M7.125 30.6c.2-3.6 1.3-5.3 2.3-5.6.4-.1.9-.3 1.5-.4l-.1.1c-1.7 2.5.3 7.4.3 7.4s2.7-1.3 4.8-4.7c1.3-2 1.9-2.8 1.9-2.8 1.5.2 3.2.9 4.1 1.5 2 1.2 1.1 3.5.4 5.8-.6 2-1.4 4.6-1.4 6.5 0 0 1.7 3.5 2.4 5.2-1.5 1.5-9 1-10 1-.3 0-1.1-.9-1.1-.9s-.6.9-.7.9c-1.4-.2-1.9-.3-3.6-1 .2-1.5 1.6-4.8 1.6-4.8 0-4.4-2.6-5.3-2.4-8.2Z"/>
  <path fill="#050505" fill-rule="evenodd" d="M17.125 44.9h-3.8c-.3 0-.8-.4-1.1-.7-.5.7-.6.7-.8.7-1.3-.2-1.9-.4-3.6-1-.1 0-.2-.2-.2-.3.3-1.5 1.4-4.4 1.6-4.9 0-2.2-.7-3.5-1.4-4.7-.5-1-1.1-2-1-3.4.3-3.9 1.5-5.6 2.5-5.8.2-.067.367-.134.5-.2l1-.2c.134-.067.234-.034.3.1.067.066.067.166 0 .3-1.4 2-.2 5.8.2 6.9.7-.4 2.7-1.7 4.4-4.4 1-1.6 1.6-2.4 1.8-2.7l.1-.1v-.1c.067-.067.167-.1.3-.1 1.5.2 3.2.9 4.2 1.5 1.9 1.3 1.3 3.4.7 5.4a3.901 3.901 0 0 0-.3.8l-.1.4c-.5 1.9-1.2 4.2-1.2 5.9.2.5 1.7 3.6 2.4 5.2 0 .133-.033.233-.1.3-.9.9-3.6 1.1-6.4 1.1Zm-3.8-.6h.7c1.9.1 7.5.3 9-.8-.8-1.7-2.3-5-2.3-5l-.1-.1c0-1.8.7-4.2 1.3-6.1l.1-.4a6.9 6.9 0 0 1 .2-.8c.7-2.1 1.2-3.8-.4-4.8-.9-.5-2.4-1.2-3.8-1.4h-.1c-.2.3-.8 1.1-1.7 2.7-2.2 3.4-4.9 4.7-5 4.7h-.2c-.066 0-.1-.034-.1-.1-.1-.2-1.8-4.5-.6-7.1-.133 0-.233.033-.3.1-.2 0-.366.033-.5.1-.7.2-1.9 1.5-2.1 5.3-.1 1.3.4 2.1.9 3.2.7 1.2 1.4 2.6 1.4 5v.1s-1.2 3-1.5 4.6c1.5.5 2 .7 3.2.8.1-.1.4-.4.6-.7 0-.067.067-.1.2-.1h.2c.4.4.8.8.9.8Zm4.3-19.7v.1-.1Z" clip-rule="evenodd"/>
  <path fill="#050505" d="M17.325 44.6c-.066 0-.133-.034-.2-.1 0-.2-2-4.5-2-5.6-.1-1.1 2.1-9.8 2.2-10.2 0-.1.1-.1.1-.1.1 0 .2.1.2.2-.8 3.1-2.3 9.3-2.2 10.1.1 1.1 2 5.4 2 5.5.1 0 0 .1 0 .2h-.1Z"/>
  <path fill="#050505" d="M20.226 25.2s-.3 9.1-4 9.6c-1 .1-1.9 0-1.8.2.2.1 1.7.6 2.7.4.9-.3 2.1-1.3 2.9-.9.8.5-1.6 3.7-1.5 4.2.1.6 2.9 5.4 2.9 5.4l1.9-.5-2.4-5.3.5-1.4s.1-2.6.8-4.3c.7-1.7 1.4-4.2.7-5.6-.8-1.3-2.7-1.8-2.7-1.8Z" opacity=".1"/>
  <path fill="#050505" d="M16.225 35c-.066 0-.133-.067-.2-.2 0-.1.1-.2.2-.2.534-.134.9-.4 1.1-.8.1-.1.2-.1.3 0 0 0 .1.1 0 .2-.266.466-.7.8-1.3 1h-.1Z"/>
  <path fill="#050505" d="M11.125 32.8s-.3-1.6-.6-4-.1-3.6-.1-3.6c-1.8.7-2.9 2.3-2.9 2.3l1.5.9s.2 0-1.2.4c.6 2.5 2.7 1.8 3.3 4Z" opacity=".1"/>
  <path fill="#52240F" d="M11.125 32.6c-.2-1.7-.9-2.4-.8-4.6.2-2.9.6-3.4.6-3.4-2.2.1-3.2 1.8-3.2 1.8l1.7 1.5s.2.3-1.1.6c.4 2.2 2.2 1.9 2.8 4.1Z"/>
  <path fill="#050505" fill-rule="evenodd" d="M11.125 32.8c-.1 0-.2 0-.3-.2-.2-1-.8-1.4-1.3-1.8-.7-.5-1.3-1-1.5-2.2 0-.2 0-.3.2-.3.4-.1.7-.2.8-.3l-1.5-1.4c-.1-.1-.1-.2-.1-.4.1 0 1.2-1.8 3.4-1.8.2 0 .3 0 .3.1.067.134.067.234 0 .3-.1.1-.3.7-.5 3.2-.1 1.4.1 2.1.4 3 .1.4.3.9.4 1.5 0 .2-.1.3-.2.3h-.1Zm-2.5-4.1c.2.8.7 1.2 1.2 1.6.2.134.4.3.6.5-.2-.7-.4-1.6-.4-2.9.2-1.6.3-2.5.4-3-1.3.2-2.1 1.1-2.4 1.4l1.5 1.4c.1.1.2.2.1.4 0 .2-.2.4-1 .6Z" clip-rule="evenodd"/>
  <path fill="#050505" d="M12.225 44c-.1 0-.2-.1-.3-.2l-1-11.2c0-.1.1-.3.2-.3s.2.1.3.2l1 11.2c0 .1-.1.3-.2.3Z"/>
  <path fill="#050505" d="M18.026 24.6c1.5.2 2.2 3 2.2 3l-2.7-.2s-.9.7 1.4 1.8c-1.9 2.6-7.8 3.4-7.8 3.4s2.7-1.2 4.1-3.8c1.4-2.6 2.8-4.2 2.8-4.2Z" opacity=".1"/>
  <path fill="#050505" d="M8.725 44.1h-.1c-.1-.1-.1-.1-.1-.2s1.4-4.3 1.4-5.4c0-1.2-1.5-9-1.5-9.1 0-.1.1-.2.1-.2.1 0 .2.1.2.1.1.4 1.5 8 1.5 9.2 0 1.1-1.3 5.3-1.4 5.5 0 .067-.033.1-.1.1Z"/>
  <path fill="#6F3014" d="M12.025 34.7c0 .2.2.3.4.3s.3-.2.3-.4-.2-.3-.4-.3-.3.2-.3.4Z"/>
  <path fill="#050505" fill-rule="evenodd" d="M12.425 35.2a1.165 1.165 0 0 1-.3-.2c-.133-.067-.2-.167-.2-.3 0-.133.034-.267.1-.4.067-.067.167-.133.3-.2.3 0 .5.2.5.5.1.3-.1.5-.4.5v.1Zm0-.8h-.1l-.1.1v.3c.067.067.134.1.2.1.1 0 .2-.2.2-.3-.1-.1-.1-.2-.2-.2Z" clip-rule="evenodd"/>
  <path fill="#6F3014" d="M12.325 36.9c0 .1.2.3.4.3.1-.1.3-.2.3-.4-.1-.2-.2-.4-.4-.4-.2.1-.3.3-.3.5Z"/>
  <path fill="#050505" fill-rule="evenodd" d="M12.626 37.3c-.2 0-.4-.2-.5-.4 0-.133.033-.267.1-.4.133-.134.266-.2.4-.2.133 0 .233.033.3.1.133.067.2.166.2.3 0 .3-.2.6-.4.6h-.1Zm-.2-.5c0 .2.1.2.2.2.2 0 .2-.1.2-.2 0-.067-.034-.133-.1-.2h-.1c-.067 0-.1.033-.1.1-.067 0-.1.033-.1.1Z" clip-rule="evenodd"/>
  <path fill="#6F3014" d="M12.525 39.1c0 .2.2.3.4.3s.3-.2.3-.4c-.1-.2-.2-.4-.4-.3-.2 0-.3.2-.3.4Z"/>
  <path fill="#050505" fill-rule="evenodd" d="M12.825 39.5c-.066 0-.166-.033-.3-.1-.066-.066-.1-.167-.1-.3-.1-.3.1-.5.4-.6.2 0 .5.2.5.5 0 .2-.1.5-.4.5h-.1Zm-.2-.5c0 .067.034.133.1.2.067.067.134.067.2 0 .1 0 .1-.1.1-.2s-.1-.2-.2-.2-.2.1-.2.2Z" clip-rule="evenodd"/>
  <g opacity=".2">
    <path fill="#050505" d="m18.725 40.1-3.4.4s.1 1.9.6 2c.5 0 4.1-.2 4.2-.5.2-.3-1.4-1.9-1.4-1.9Z"/>
    <path fill="#050505" fill-rule="evenodd" d="M16.025 42.7h-.1c-.6-.1-.8-1.4-.9-2.2 0-.1.1-.2.2-.2l3.5-.4c.067 0 .1.034.1.1 1.8 1.7 1.6 2 1.5 2.1-.1.1-.1.3-2.2.5-.8 0-1.7.1-2.1.1Zm-.5-2c.1.8.3 1.5.4 1.6.5 0 3.5-.2 4-.4-.1-.3-.7-1-1.3-1.6l-3.1.4Z" clip-rule="evenodd"/>
  </g>
  <path fill="#52240F" d="m18.725 39.9-3.4.3s.1 2 .6 2c.5.1 4.1-.1 4.2-.4.2-.3-1.4-1.9-1.4-1.9Z"/>
  <path fill="#050505" fill-rule="evenodd" d="M16.025 42.4h-.1c-.6 0-.8-1.3-.9-2.1 0-.1.1-.2.2-.3l3.5-.3c.067-.067.1-.067.1 0 1.8 1.7 1.6 2 1.5 2.2-.1.1-.1.3-2.2.4-.8.1-1.7.1-2.1.1Zm-.5-2c.1.8.3 1.6.4 1.6.5.1 3.5-.1 4-.3-.1-.3-.7-1-1.3-1.6l-3.1.3Z" clip-rule="evenodd"/>
  <path fill="#52240F" d="m8.826 39.6 1.5.4s-.3 2-.5 2-1.5-.2-1.6-.5c-.1-.3.6-1.9.6-1.9Z"/>
  <path fill="#050505" fill-rule="evenodd" d="M9.826 42.2c-.4 0-1.7-.2-1.8-.6-.1-.3.4-1.4.6-2.1.1-.1.2-.1.3-.1l1.4.4c.1 0 .2.1.2.2-.3 2.1-.5 2.2-.6 2.2h-.1Zm-1.4-.7c.2.1 1 .3 1.3.3.1-.2.2-1 .3-1.6l-1.1-.3c-.2.6-.5 1.4-.5 1.6Z" clip-rule="evenodd"/>
  <g opacity=".2">
    <path fill="#050505" d="m8.826 39.9 1.5.3s-.4 2-.6 2c-.2.1-1.4-.1-1.5-.4-.1-.3.6-1.9.6-1.9Z"/>
    <path fill="#050505" fill-rule="evenodd" d="M9.626 42.4c-.3 0-1.5-.2-1.6-.6-.1-.3.4-1.4.6-2 .1-.1.2-.2.3-.1l1.4.3c.1.1.2.2.2.3-.4 2.1-.6 2.1-.8 2.1h-.1Zm-1.2-.7c.2.2.9.3 1.2.3.1-.2.3-.9.4-1.6l-1.1-.3c-.2.7-.5 1.4-.5 1.6Z" clip-rule="evenodd"/>
  </g>
  <path fill="#F3B7A4" d="M29.626 45c-.3-1.1-.8-1.9-1.6-2.5-.6-.5-1.3-.5-1.9-.3-.4.1-2 .7-1.5 2.2.1.4.4.8.4 1.3 0 .3-.1.4.2.9.1.1.9.2 1.1.2-.1-.3-.1-.4.1-.4.2-.1.4.2.6.8.1.4.5.4.5.4l1-1s1.2-1 1.1-1.6Z"/>
  <path fill="#050505" fill-rule="evenodd" d="M27.526 47.9h-.1c-.2 0-.6-.2-.7-.7a.887.887 0 0 1-.1-.4c0 .066-.034.1-.1.1-.067.133-.134.2-.2.2-.2 0-1.2 0-1.3-.4-.3-.5-.3-.6-.3-.9v-.1c0-.3-.1-.6-.3-.9 0-.134-.034-.234-.1-.3-.134-.534-.1-1 .1-1.4.4-.7 1.2-1 1.6-1.1.9-.3 1.6-.2 2.2.2.8.7 1.3 1.5 1.6 2.7.2.8-.9 1.7-1.2 2l-.9.9c-.067.066-.134.1-.2.1Zm-1-1.8c.066 0 .133.033.2.1.266.133.466.433.6.9 0 .133.033.2.1.2l.9-.8v-.1c.5-.4 1.1-1.1 1-1.3-.3-1.2-.7-1.8-1.4-2.4-.467-.334-1.067-.4-1.8-.2-.2 0-.9.3-1.2.9a1.363 1.363 0 0 0-.1.9c.066.066.133.166.2.3.1.3.2.7.2 1v.2c0 .2 0 .3.2.6.1 0 .4.1.6.1v-.2c.1 0 .1-.1.3-.2h.2Z" clip-rule="evenodd"/>
  <path fill="#F3B7A4" d="M25.026 46s.2.7.4 1.3c.3.5.5.7.7.8.2.2.5.1.7 0 .133-.2.1-.433-.1-.7-.3-.3-.4-.3-.4-.8"/>
  <path fill="#050505" d="M26.426 48.5c-.2 0-.367-.033-.5-.1-.3-.2-.5-.5-.7-1-.3-.6-.5-1.3-.5-1.3 0-.1.1-.3.2-.3.1-.1.3 0 .3.2 0 0 .3.6.5 1.2.2.5.4.6.5.7.1.1.3 0 .4 0 0 0 0-.1-.1-.3l-.1-.1c-.2-.2-.3-.4-.4-.9 0-.1.1-.3.2-.3.2 0 .3.1.3.2.1.4.2.5.3.7l.1.1c.4.5.2.8.1 1-.2.1-.4.2-.6.2Z"/>
  <path fill="#F3B7A4" d="M28.925 46.6c.1.2.2 0 .5-.1.2 0 .3-.167.3-.5 0 0 .2-.7-.8-2.5"/>
  <path fill="#050505" d="M29.026 47h-.1c-.1-.1-.2-.1-.3-.3 0-.1.1-.3.2-.3.066-.066.133-.066.2 0 .066-.066.166-.1.3-.1 0 0 .1-.1.1-.3l.1-.1s.1-.7-.8-2.3c-.1-.1 0-.3.1-.3.1-.1.3-.1.4.1.9 1.6.8 2.5.8 2.7-.1.5-.4.7-.6.7-.067 0-.1.034-.1.1-.1 0-.2.1-.3.1Z"/>
  <path fill="#F3B7A4" d="M28.425 46.5c0 .5 0 .5.1.7 0 .2.3.4.5.3.2 0 .3-.2.3-.5 0 0 .2-.4-.2-1.7"/>
  <path fill="#050505" d="M28.925 47.8c-.3 0-.6-.2-.7-.5 0-.2 0-.2-.1-.4v-.4c0-.1.1-.2.2-.3.2 0 .3.1.3.3.1.2.1.3.1.4v.2c.1.1.2.2.3.1l.1-.2v-.1s0-.4-.3-1.5c0-.1.1-.3.2-.3.1-.1.3 0 .3.1.4 1.2.4 1.7.3 1.9 0 .1-.1.6-.5.7h-.2Z"/>
  <path fill="#F3B7A4" d="M27.825 46.7c.1.7.2 1 .3 1.2.1.3.2.4.4.4.3-.1.3-.3.4-.5 0 0 0-.5-.4-1.8"/>
  <path fill="#050505" d="M28.525 48.6c-.2 0-.5-.1-.7-.6 0-.2-.1-.3-.2-.6a2.72 2.72 0 0 0-.1-.6c0-.1.1-.3.2-.3.2-.1.3 0 .3.2.067.2.134.367.2.5 0 .3.1.5.1.7.1.1.2.1.2.1s.1 0 .1-.2v-.1s0-.4-.4-1.6c0-.1.1-.3.2-.4.2 0 .3.1.4.2.4 1.3.3 1.8.3 1.9 0 .5-.3.7-.5.8h-.1Z"/>
  <path fill="#F3B7A4" d="M27.826 46.6c.5 1.3.4 1.7.4 1.7 0 .3-.1.5-.3.5-.2.1-.5-.1-.5-.3-.2-.7-.5-1.7-.6-1.9"/>
  <path fill="#050505" d="M27.826 49.1c-.3 0-.6-.2-.7-.5l-.1-.3c-.1-.6-.3-1.4-.4-1.5-.1-.1-.1-.3 0-.4.1-.1.3-.1.4.1.1.1.3.6.5 1.6l.1.4.2.1c.1-.1.1-.1.1-.3h.1s0-.5-.4-1.6c-.1-.2 0-.3.1-.4.2 0 .3.1.4.2.4 1.2.4 1.7.4 1.8 0 .2-.1.7-.5.8h-.2Z"/>
  <path fill="#050505" d="M26.425 47.6s-.1.1-.3-.2c-.2-.4-.4-1.1 0-.9v-.1l.1.1c.1.6.2.7.4 1 .2.2.267.366.2.5-.2-.6-.4-.4-.4-.4Z" opacity=".1"/>
  <path fill="#050505" d="M28.026 46.8s.5.6.5 1.5l-.2-.1-.3-1.4Zm.599-.7s.5.5.5 1.5l-.2-.1-.3-1.4Zm.701-.7s.3.1.3 1l-.4.1.1-1.1Z" opacity=".3"/>
  <path fill="#050505" d="M28.625 43s-.6.6-1.8 1c-1.6.5-2.2.4-2.2.4s-.5-1 .7-1.9c1.2-.8 2.2-.4 2.2-.4s.4-.1 1.1.9Z" opacity=".2" style="mix-blend-mode:multiply"/>
  <path fill="#586A2F" d="M18.726 29.3c-.4-1.1 0-2.6 1.3-3.1 1.4-.6 2.9 0 3.6 1.7.6 1.6 4.4 14.3 4.4 14.3l-3.6 1.4s-5.3-13.1-5.7-14.3Z"/>
  <path fill="#050505" fill-rule="evenodd" d="M24.425 43.9c-.066 0-.133-.067-.2-.2-.2-.5-5.4-13.2-5.8-14.3-.5-1.2 0-2.9 1.5-3.5 1.6-.6 3.2.1 3.9 1.9.7 1.6 4.3 13.8 4.5 14.3 0 .2-.1.3-.2.3l-3.6 1.5h-.1Zm-5.5-14.7c.4 1.1 4.9 12.2 5.7 14.1l3.1-1.3c-.6-1.7-3.8-12.5-4.4-14-.6-1.5-1.9-2.1-3.2-1.6-1.2.5-1.5 1.8-1.2 2.8Z" clip-rule="evenodd"/>
  <path fill="#586A2F" d="M18.226 29.3c-.4-1.1.5-2.6 1.8-3.1 1.4-.6 3.2-.3 3.9 1.3.1.3 4.4 14.4 4.4 14.4s-.7.7-1.9 1.2c-1.3.6-2.2.5-2.2.5s-6-14.1-6-14.3Z"/>
  <path fill="#050505" fill-rule="evenodd" d="M24.226 43.9c-.134 0-.234-.067-.3-.2-.6-1.4-5.9-14.1-6-14.3-.4-1.2.5-2.9 2-3.5 1.6-.6 3.5-.3 4.2 1.5.1.3 4 13 4.5 14.4 0 .133-.034.233-.1.3 0 0-.7.7-2 1.3-1.2.5-2.2.5-2.3.5Zm-5.8-14.7c.1.3 3.9 9.3 5.9 14.2.4-.1 1.1-.2 2-.5.9-.4 1.5-.9 1.7-1.1-1.5-4.8-4.3-13.9-4.4-14.2-.6-1.4-2.2-1.7-3.5-1.2-1.2.5-2 1.9-1.7 2.8Z" clip-rule="evenodd"/>
  <g opacity=".2" style="mix-blend-mode:multiply">
    <path fill="#586A2F" d="M20.625 26.2s2.3-.7 3.1.9c.7 1.5 2.9 10.3 2.9 10.3l1.7 5.1-2.8.8c.4-.5 1.9-.9 1.5-1.9-1.2-3.5-3.8-11.4-4.3-12.6-.6-1.6-2.1-2.6-2.1-2.6Z"/>
    <path fill="#050505" fill-rule="evenodd" d="M25.526 43.6c-.067 0-.134-.034-.2-.1-.1-.1-.1-.3 0-.4.1-.1.4-.3.6-.5.6-.4 1-.7.8-1.1-1.4-4.3-3.8-11.5-4.2-12.6-.6-1.5-2-2.5-2-2.5-.134-.067-.167-.167-.1-.3 0-.134.066-.2.2-.2.1 0 2.5-.7 3.3 1.1.8 1.5 2.9 9.8 3 10.3l1.7 5.1v.3c-.067.066-.134.1-.2.1l-2.8.8h-.1Zm-4.2-17.3c.5.5 1.3 1.3 1.7 2.4.4 1.1 2.9 8.4 4.3 12.6.2.6-.1 1-.5 1.4l1.2-.4-1.6-4.8c-.1-.1-2.3-8.8-3-10.3-.4-.9-1.5-.9-2.1-.9Z" clip-rule="evenodd"/>
  </g>
  <path fill="#6F3014" d="M26.726 41.4c.1.2.3.3.4.2.2 0 .3-.3.2-.4 0-.2-.2-.3-.4-.3-.2.1-.3.3-.2.5Z"/>
  <path fill="#050505" fill-rule="evenodd" d="M27.026 41.8c-.2 0-.4-.2-.4-.4-.1-.2 0-.5.2-.6.3-.1.6 0 .7.3.1.3-.1.6-.3.6-.067.066-.134.1-.2.1Zm-.2-.5c.1.2.2.2.3.2.1-.1.1-.2.1-.3 0-.1-.2-.2-.3-.1-.1 0-.1.1-.1.2Z" clip-rule="evenodd"/>
  <path fill="#6F3014" d="M26.425 40.2c.1.2.3.3.4.2.2 0 .3-.2.2-.4 0-.2-.2-.3-.4-.2-.2 0-.3.2-.2.4Z"/>
  <path fill="#050505" fill-rule="evenodd" d="M26.726 40.6c-.2 0-.4-.1-.4-.3-.1-.3 0-.6.2-.7.3-.1.6.1.7.3a.887.887 0 0 1-.1.4c0 .133-.067.233-.2.3h-.2Zm-.2-.4c.1.1.2.1.3.1.066 0 .1-.034.1-.1V40c-.1-.1-.2-.1-.3-.1-.1 0-.1.2-.1.3Z" clip-rule="evenodd"/>
  <path fill="#52240F" d="M17.625 24.3c1.5.2 2.1 3 2.1 3l-2.6-.2s.1.7 1.4 1.6c-1 1.8-7.4 3.4-7.4 3.4s1.9-1.3 3.6-3.7c1.9-2.7 2.9-4.1 2.9-4.1Z"/>
  <path fill="#050505" fill-rule="evenodd" d="M11.125 32.3c-.133 0-.2-.033-.2-.1-.1-.2 0-.3.1-.4 0 0 1.9-1.2 3.5-3.6 1.8-2.7 2.9-4.1 2.9-4.1.067-.067.167-.1.3-.1 1.6.3 2.3 3.1 2.3 3.2 0 .067-.033.134-.1.2 0 .067-.066.1-.2.1l-2.2-.1c.2.2.5.6 1.2 1.1.1 0 .1.2.1.3-1.2 2-7.4 3.5-7.6 3.5h-.1Zm6.6-7.7c-.3.4-1.3 1.8-2.8 3.9-.9 1.3-1.8 2.3-2.6 2.9 2-.5 4.9-1.6 5.9-2.6-1.3-.9-1.4-1.6-1.4-1.7 0-.067.034-.133.1-.2.067-.066.134-.1.2-.1l2.3.2c-.3-.8-.9-2.1-1.7-2.4Z" clip-rule="evenodd"/>
  <path fill="#EDC425" d="M5.625 10.4s-.5-.5-.5-1.9c0-1.3.2-1.3.2-1.6 0-.3.5-1.7.5-1.7s0-.7.2-1.2.9-1.6 2.3-2.4c1.4-.8 3.2-1.4 5.4-1.3 2.3 0 8.1 0 9.8 5.1 1.6 5.2-.3 7.5-.3 7.5l-3.4 3-14.2-5.5Z"/>
  <path fill="#050505" fill-rule="evenodd" d="M19.825 16.2c-.066 0-.1-.033-.1-.1l-14.2-5.5-.1-.1s-.6-.5-.6-2c0-.9.2-1.3.2-1.5.1 0 .1-.1.1-.1 0-.3.3-1.4.4-1.8 0-.1.1-.7.3-1.2.1-.5.9-1.6 2.4-2.5 1.7-1 3.5-1.4 5.5-1.4.134 0 .234.033.3.1 2.4 0 8 .1 9.7 5.2 1.7 5.3-.3 7.6-.4 7.7v.1l-3.4 3c0 .067-.033.1-.1.1Zm-14.1-6 14 5.4 3.3-2.9c.1-.2 1.8-2.4.2-7.2-1.5-4.8-6.7-4.9-9.2-5h-.3c-1.9 0-3.6.4-5.3 1.3-1.3.8-2 1.8-2.2 2.3-.1.4-.2 1.1-.2 1.1v.1c-.2.6-.4 1.4-.4 1.6 0 .133-.033.233-.1.3-.1.2-.2.5-.2 1.3 0 1.1.3 1.5.4 1.7Z" clip-rule="evenodd"/>
  <path fill="#050505" d="M21.726 13.7s1.9-2.3.3-7.5c-1.7-5.1-7.5-5-9.8-5.1-1.7-.1-3.1.3-4.3.8a1.6 1.6 0 0 0 .4-.3c1.4-.8 3.2-1.4 5.4-1.3 2.3 0 8.1 0 9.8 5.1 1.6 5.2-.3 7.5-.3 7.5l-3.4 3-.4-.2 2.3-2Z" opacity=".1"/>
  <path fill="#050505" d="M20.625 12.7c-.1 0-.2 0-.2-.1s.1-.2.2-.2c1.5-.1 2.7-1.1 3.4-2.7 0-.1.1-.1.2-.1.1.1.1.2.1.2-.8 1.7-2.1 2.8-3.7 2.9Z" opacity=".2" style="mix-blend-mode:multiply"/>
  <path fill="#050505" d="M20.326 11.8c-.067 0-.134-.033-.2-.1 0-.1.1-.2.2-.2.9-.2 1.7-.4 2.3-1.2.7-.7 1-1.5 1.4-2.4 0-.1.1-.2.2-.1.1 0 .1.1.1.2-.4 1-.8 1.8-1.4 2.5-.8.8-1.6 1.1-2.6 1.3Z" opacity=".2" style="mix-blend-mode:multiply"/>
  <path fill="#050505" d="M20.125 10.2c-.1 0-.2-.1-.2-.2s.1-.1.2-.1c1.7 0 3.4-1.5 3.6-3.1 0-.1.1-.1.1-.1.1 0 .2.1.2.1-.2 1.8-2 3.4-3.9 3.4Zm-.799-1.4c-.067-.066-.1-.133-.1-.2-.1-.1 0-.2.1-.2 1.6-.2 3.6-1.4 4-3 0-.1.1-.2.2-.1.1 0 .1.1.1.2-.5 1.8-2.5 3-4.3 3.3ZM18.725 7c-.1 0-.2-.1-.2-.2s.1-.1.2-.1c.8 0 2.6-.8 3.4-1.7.4-.4.6-.766.6-1.1 0-.1 0-.2.1-.2s.2.1.2.1c0 .467-.2.934-.6 1.4-1 1-2.8 1.8-3.7 1.8Zm-1.3-1.2c-.066 0-.1-.034-.1-.1 0-.1 0-.2.1-.2l.6-.3c1.1-.4 4.1-1.4 4.1-2.2 0-.1 0-.2.1-.2s.2.1.2.2c0 .9-2.2 1.8-4.3 2.5l-.6.3h-.1Zm-2.1-.9c-.066 0-.1-.033-.1-.1 0-.1 0-.2.1-.2h.1c4.8-1.5 5.7-2.3 5.7-2.4 0-.1 0-.2.1-.2s.2 0 .2.1c.1.2.2.9-5.9 2.8h-.2Zm-3.1 0c-.1-.1-.2-.1-.1-.2.1-.7 2.2-1.5 5-2.6 1.1-.4 2.3-.8 2.4-.9.1-.1.2-.1.2-.1.1.1.1.2.1.2-.2.2-.8.5-2.5 1.1-1.8.7-4.8 1.8-4.9 2.3-.066.133-.133.2-.2.2Zm-2.6-.3c-.1 0-.2-.1-.2-.2.1-1 .4-3.4 2.4-4.2.1 0 .2.1.2.1.1.1 0 .2 0 .2-1.9.7-2.2 3-2.2 3.9 0 .1-.1.2-.2.2Z" opacity=".2" style="mix-blend-mode:multiply"/>
  <path fill="#050505" d="M11.226 5.4c-.1 0-.1-.1-.1-.2s.1-1.4.8-2.1c.6-.6 1.6-1.1 2.3-1.4.2-.134.366-.233.5-.3.7-.3 1.9-1.1 1.9-1.1.1 0 .2 0 .3.1 0 .1 0 .2-.1.2 0 0-1.2.8-2 1.1-.134.066-.3.166-.5.3-.7.3-1.6.7-2.2 1.3-.6.7-.7 1.9-.7 1.9 0 .1-.1.2-.2.2Zm-2.301-.7c-.066 0-.1-.033-.1-.1-.4-1.1-.1-2.9.6-3.7.1-.1.2-.1.2 0 .1.1.1.2 0 .2-.6.7-.9 2.4-.5 3.3 0 .1 0 .2-.1.3h-.1Zm-1 0c-.066 0-.133-.034-.2-.1-.5-1.1-.3-1.9.1-2.8 0-.1.1-.2.2-.1.1 0 .1.1.1.2-.4.9-.5 1.6-.1 2.5.1.1 0 .2-.1.3Zm-1.1.9c-.066 0-.1-.033-.1-.1-.2-.5-.6-1.6-.3-2.3 0-.1.1-.1.2-.1.1.1.1.2.1.2-.3.6.1 1.7.3 2.1 0 0 0 .1-.1.2h-.1Zm-1 2-.1-.1c-.1 0-.3-.2-.4-.3 0-.1 0-.2.1-.2 0-.1.1-.1.2 0l.3.3c.1 0 .1.1 0 .2 0 .066-.033.1-.1.1Z" opacity=".2" style="mix-blend-mode:multiply"/>
  <path fill="#050505" d="M5.626 8.8c-.3 0-.5-.3-.7-.4v-.3h.3c.1.2.3.3.4.3.1 0 .2.1.2.2s-.1.2-.2.2Z"/>
  <path fill="#050505" d="M6.025 6.8c-.066 0-.1-.067-.1-.2 0-.067-.033-.2-.1-.4-.2-.5-.3-1.1-.1-1.4 0-.1.1-.1.2 0 .1 0 .1.1.1.2-.2.1 0 .7.1 1.1.067.2.1.367.1.5 0 .1 0 .2-.1.2h-.1Zm4.3-2.1c-.1 0-.1-.1-.1-.2.1-2.8 3.4-4.3 3.6-4.4.1 0 .2 0 .2.1s0 .2-.1.2c0 .1-3.2 1.5-3.4 4.1 0 .1-.1.2-.2.2Z" opacity=".2" style="mix-blend-mode:multiply"/>
  <path fill="#F3B7A4" d="M20.825 16.3s-1 2-1.2 2.5c-.3.5-1.1 2.3-2 2.9-.9.6-4 2.2-4.7 2.3-.7.1-1.4.1-1.7.1-.2-.1-1.2-.1-1.6-.4-.4-.2-.5-.6-.9-1.1-.8-1-2.2-3.6-2.5-5.5-.2-1.1-.4-2.9-.3-3.8 0-.8-.4-1.1-.4-2.1s.2-3.2.5-4.3c.2-1.1.9-2 2.4-2.2 1.4-.1 1.7 0 2.8.2.8-.2 1.1-.4 3.4-.2 1.1.2 1.9.3 3 1.1s1.4 1.6 1.5 3c0 0 .8.7.9 1.5.2.8.6 3.6 1 3.9.1.2 1.3 1.1 1.1 1.9-.1.6-1.3.2-1.3.2Z"/>
  <path fill="#050505" fill-rule="evenodd" d="M11.925 24.4c-.266 0-.5-.033-.7-.1h-.2c-.5 0-1.2-.1-1.5-.3-.3-.2-.5-.5-.7-.8a1.567 1.567 0 0 1-.3-.4c-.8-1-2.3-3.7-2.6-5.7-.1-1-.3-2.9-.3-3.8 0-.4-.1-.6-.2-1 0-.3-.1-.6-.2-1.1 0-1.1.2-3.3.5-4.3.2-1 .8-2.3 2.6-2.4 1.5-.2 1.8-.1 2.9.1h.2c.7-.2 1.2-.3 3.2-.1 1.1.1 2 .2 3.2 1.1 1.1.8 1.5 1.6 1.6 3.1.2.2.7.9.9 1.6 0 .2.1.5.1.8.2.8.5 2.7.8 2.9v.1c.934.8 1.334 1.5 1.2 2.1a1.566 1.566 0 0 1-.3.4c-.4.2-.9.1-1.2 0-.2.6-.9 2-1.1 2.4-.066.067-.1.133-.1.2-.4.7-1.1 2.2-1.9 2.8-.9.6-4.1 2.1-4.9 2.3-.333.067-.666.1-1 .1Zm-2.4-19.5c-.3 0-.6 0-1.1.1-1.2.133-1.933.8-2.2 2-.2 1-.5 3.1-.4 4.2 0 .4.1.7.2 1 .1.3.2.7.1 1.2 0 .8.2 2.6.4 3.6.3 1.9 1.7 4.5 2.4 5.4.134.2.234.367.3.5.2.3.4.5.6.6.2.2 1 .2 1.3.3h.2c.6.067 1.1.033 1.5-.1.6-.1 3.8-1.6 4.6-2.2.8-.5 1.5-1.9 1.8-2.5.067-.133.1-.233.1-.3.3-.5 1.2-2.5 1.2-2.5.1-.1.2-.2.3-.1.3 0 .8.1 1 0 .1-.3 0-.8-1-1.6v-.1c-.3-.2-.6-1.3-.9-3.2-.1-.3-.1-.6-.1-.8-.2-.7-.9-1.4-.9-1.4-.066-.067-.1-.133-.1-.2 0-1.3-.4-2-1.4-2.8-1-.7-1.8-.9-2.8-1-1.9-.2-2.4-.1-3 .1-.133 0-.233.033-.3.1h-.2v-.1c-.7-.1-1.1-.2-1.6-.2Z" clip-rule="evenodd"/>
  <path fill="#F3B7A4" d="M18.826 15.5s.2.9-.9 2.5Z"/>
  <path fill="#C1897E" d="M17.925 18.1h-.1c-.1 0-.1-.1 0-.2 1.1-1.5.8-2.4.8-2.4 0-.1.1-.2.1-.2.1 0 .2.1.2.1 0 .1.3 1.1-.9 2.7h-.1Z"/>
  <path fill="#F3B7A4" d="M13.025 24s.5-.3 1.5-1.6Z"/>
  <path fill="#C1897E" d="M13.025 24.1c-.066 0-.133-.033-.2-.1 0 0 0-.1.1-.2 0 0 .5-.3 1.5-1.5 0 0 .1-.1.2 0 .1 0 .1.1 0 .2-1 1.3-1.5 1.6-1.6 1.6Z"/>
  <path fill="url(#a)" d="M7.125 18.4c.3.3.5.4.8.2-.2-.4-.3-1-.6-1.6-.4.2-.4.3-.7.4.2.5.2.8.5 1Zm-.5-1c.3-.1.3-.2.7-.4-.3-.7-.4-1.3-.6-1.8-.2.1-.2.5-.3.9 0 .4 0 .9.2 1.3Zm1.3 1.2c.3-.1.4-.4.5-.8 0-.4.1-.9-.1-1.4a3.979 3.979 0 0 0-1 .6c.3.6.4 1.2.6 1.6Zm-.6-1.6a3.979 3.979 0 0 1 1-.6c-.2-.4-.4-.9-.7-1.1-.266-.2-.566-.233-.9-.1.2.5.3 1.1.6 1.8Z"/>
  <path fill="url(#b)" d="M15.025 18.2c.3.3.5.5 1 .5v-1.8h-1.5c0 .5.2 1 .5 1.3Zm-.5-1.3h1.5c0-.7.3-1.3.3-1.8-.5 0-1 .2-1.3.5-.3.3-.5.8-.5 1.3Zm1.5 1.8c.5 0 .9-.2 1.3-.5.3-.3.8-.8.8-1.3h-2.1v1.8Zm0-1.8h2.1c0-.533-.166-.967-.5-1.3-.4-.3-.8-.5-1.3-.5 0 .5-.3 1.1-.3 1.8Z"/>
  <path fill="#050505" fill-rule="evenodd" d="M11.925 24.4c-.266 0-.5-.033-.7-.1h-.2c-.5 0-1.2-.1-1.6-.3-.2-.2-.4-.5-.5-.7a3.276 3.276 0 0 0-.4-.5c-.9-1-2.3-3.8-2.6-5.7-.1-1-.3-2.9-.3-3.8 0-.4-.1-.6-.2-1 0-.3-.1-.6-.2-1.1 0-1.1.2-3.3.5-4.3.3-1.5 1.2-2.3 2.7-2.4 1.4-.2 1.7-.1 2.8.1h.1c.6-.2 1.2-.4 3.3-.1 1.1.1 2 .2 3.2 1.1 1.1.8 1.5 1.6 1.6 3.1.2.2.7.9.9 1.6 0 .2.1.5.1.8.2.8.5 2.7.8 2.9v.1c.934.8 1.334 1.5 1.2 2.1a1.567 1.567 0 0 1-.3.4c-.4.2-.9.1-1.2 0-.2.6-.9 2-1.1 2.4-.066.067-.1.133-.1.2-.4.7-1.1 2.2-1.9 2.8-.9.6-4.1 2.1-4.9 2.3-.333.067-.666.1-1 .1Zm-2.3-19.5c-.3 0-.7.1-1.2.1-1.5.1-2 1.1-2.2 2-.2 1-.5 3.1-.4 4.2 0 .4.1.7.2 1 .1.3.2.7.1 1.2 0 .8.2 2.6.4 3.6.3 1.9 1.6 4.6 2.4 5.4.2.2.334.4.4.6.2.2.3.4.5.5.2.2 1 .2 1.3.3h.2c.6.067 1.1.033 1.5-.1.6-.1 3.8-1.6 4.6-2.2.8-.5 1.5-1.9 1.8-2.5.067-.133.1-.233.1-.3.3-.5 1.2-2.5 1.2-2.5.1-.1.2-.2.3-.1.3 0 .8.1 1 0 .1-.3 0-.8-1-1.6v-.1c-.3-.2-.6-1.3-.9-3.2-.1-.3-.1-.6-.1-.8-.2-.7-.9-1.4-.9-1.4-.066-.067-.1-.133-.1-.2 0-1.3-.4-2-1.4-2.8-1-.7-1.8-.9-2.8-1-2.1-.2-2.6-.1-3.2.1l-.1.1h-.2c-.6-.2-1-.3-1.5-.3Z" clip-rule="evenodd"/>
  <path fill="#F3B7A4" d="M20.726 14.1s.8-1.3 1.8-1.3c.9 0 .9 1.5.6 2.4-.4 1-1.7 2.8-1.7 2.8h-.4c-.4 0-.9-.6-.9-.6"/>
  <path fill="#050505" d="M21.025 18.3c-.5 0-1-.6-1.1-.7-.1-.1-.1-.3 0-.4.1-.1.3-.1.4 0 .2.3.6.5.7.5h.2c.3-.3 1.3-1.8 1.6-2.6.3-.7.3-1.5.1-1.8-.133-.133-.266-.2-.4-.2-.7 0-1.4.8-1.6 1.2 0 .1-.2.1-.3.1-.2-.1-.2-.3-.1-.4 0-.1.8-1.4 2-1.4.334 0 .6.133.8.4.4.6.3 1.6 0 2.3-.4 1-1.6 2.7-1.7 2.8 0 .1-.2.2-.6.2Z"/>
  <path fill="#050505" d="M21.025 15.6c-.1 0-.2-.1-.1-.2.134-.667.4-1.1.8-1.3.5-.2.9.1.9.1.1.1.1.2.1.3h-.3s-.3-.2-.6-.1c-.266.133-.466.5-.6 1.1-.066.067-.133.1-.2.1Z"/>
  <path fill="#B9BBC6" d="M22.125 17.8c0-.6-.5-1.1-1-1.1-.6 0-1.1.5-1.1 1.1 0 .5.5 1 1.1 1 .5 0 1-.5 1-1Z"/>
  <path fill="#050505" fill-rule="evenodd" d="M21.125 18.9c-.7 0-1.2-.5-1.2-1.1 0-.7.5-1.2 1.2-1.2.6 0 1.1.5 1.1 1.2 0 .6-.5 1.1-1.1 1.1Zm0-2c-.5 0-.9.4-.9.9 0 .4.4.8.9.8.4 0 .8-.4.8-.8 0-.5-.4-.9-.8-.9Z" clip-rule="evenodd"/>
  <path fill="#FEFEFE" d="M22.025 18c0-.4-.3-.7-.7-.7-.4 0-.7.3-.7.7 0 .4.3.7.7.7.4 0 .7-.3.7-.7Z"/>
  <path fill="#050505" fill-rule="evenodd" d="M21.325 18.9c-.5 0-.9-.4-.9-.9s.4-.9.9-.9.9.4.9.9-.4.9-.9.9Zm0-1.4c-.3 0-.6.2-.6.5s.3.5.6.5.5-.2.5-.5-.2-.5-.5-.5Z" clip-rule="evenodd"/>
  <path fill="#E12E31" d="M21.725 18.1c0-.2-.2-.3-.3-.3-.2 0-.3.1-.3.3 0 .2.1.3.3.3.1 0 .3-.1.3-.3Z"/>
  <path fill="#D49C8A" d="M17.226 13.1c0 .7-1.1 1.3-2.4 1.2-1.2 0-2.2-.6-2.2-1.3 0-.8 1.1-1.3 2.3-1.3 1.3.1 2.3.7 2.3 1.4Zm-7.301-.4c.1.7-.6 1.4-1.6 1.6-1 .1-1.9-.3-2-1-.1-.7.6-1.4 1.6-1.5 1-.2 1.9.2 2 .9Z"/>
  <path fill="#FEFEFE" d="M13.126 12.7c0 .5.6 1.1 2.1 1.1 1.5.1 1.8-.4 1.9-1 0-.5-.7-1-2.1-1.1-1.4 0-1.9.6-1.9 1Z"/>
  <path fill="#050505" fill-rule="evenodd" d="M15.425 14h-.2c-.733-.066-1.3-.2-1.7-.4-.4-.3-.6-.6-.6-.9.1-.4.5-1.2 2.1-1.1 1.7 0 2.2.7 2.2 1.2 0 .8-.6 1.2-1.8 1.2Zm-2.1-1.3c-.066.2.034.4.3.6.4.2.934.3 1.6.3 1.7.1 1.7-.6 1.7-.8 0-.4-.6-.8-1.9-.9-1.4 0-1.7.5-1.7.8Z" clip-rule="evenodd"/>
  <path fill="#FEFEFE" d="M9.525 12.8c0-.3-.1-1.1-1.7-1-1.5 0-1.4 1-1.4 1.1 0 .1 0 .9 1.4.9 1.3-.1 1.7-.7 1.7-1Z"/>
  <path fill="#050505" fill-rule="evenodd" d="M7.726 13.9c-.534 0-.9-.1-1.1-.3a.96.96 0 0 1-.3-.7c-.067-.333 0-.6.2-.8.266-.333.7-.5 1.3-.5 1.6 0 1.8.7 1.9 1.2 0 .3-.2.5-.4.7-.4.267-.9.4-1.5.4h-.1Zm.3-2h-.2c-.467.067-.834.2-1.1.4-.1.2-.1.5-.1.5v.1c0 .1 0 .3.2.5.2.133.533.2 1 .2.7 0 1.1-.2 1.3-.3.2-.2.2-.4.2-.5 0-.6-.434-.9-1.3-.9Z" clip-rule="evenodd"/>
  <path fill="#723015" d="M9.025 12.6c0-.4-.3-.7-.8-.7-.4 0-.7.4-.7.8s.4.7.8.7.7-.4.7-.8Z"/>
  <path fill="#050505" fill-rule="evenodd" d="M8.325 13.6a.96.96 0 0 1-.7-.3c-.133-.133-.2-.333-.2-.6-.066-.266 0-.5.2-.7.2-.2.4-.3.6-.3.5 0 1 .4 1 .9s-.4.9-.9 1Zm0-1.5h-.1a.887.887 0 0 0-.4.1c-.066.134-.1.3-.1.5 0 .134.067.267.2.4.067.067.2.1.4.1.3 0 .6-.3.6-.6-.1-.3-.3-.5-.6-.5Z" clip-rule="evenodd"/>
  <g opacity=".3">
    <path fill="#050505" d="M9.025 12.6c0-.4-.3-.7-.8-.7-.4 0-.7.4-.7.8 1.2-.7 1.5.3 1.5-.1Z"/>
    <path fill="#050505" fill-rule="evenodd" d="M9.025 12.9c-.066 0-.133-.033-.2-.1-.1-.1-.5-.4-1.2 0-.066.067-.133.067-.2 0v-.1c-.066-.266 0-.5.2-.7.2-.2.4-.3.6-.3.5 0 1 .4 1 .9 0 .1 0 .2-.1.3h-.1Zm-.7-.6c.2 0 .367.034.5.1-.1-.2-.3-.4-.6-.3a.887.887 0 0 0-.4.1c0 .067-.033.134-.1.2.267-.066.467-.1.6-.1Z" clip-rule="evenodd"/>
  </g>
  <path fill="#050505" d="M8.625 12.6c0-.1-.2-.3-.3-.3-.2 0-.4.2-.4.4.1.1.2.3.4.3s.3-.2.3-.4Z"/>
  <path fill="#FEFEFE" d="M8.325 12.5c0-.1-.1-.2-.2-.2s-.2.1-.2.2c0 .2.1.3.2.2.1 0 .2-.1.2-.2Z"/>
  <path fill="#723015" d="M16.325 12.7c0-.4-.3-.8-.7-.8-.4 0-.8.3-.8.7 0 .5.3.8.7.8.4 0 .8-.3.8-.7Z"/>
  <path fill="#050505" fill-rule="evenodd" d="M15.525 13.6c-.5 0-.9-.5-.9-1 0-.2.1-.4.3-.6.2-.2.434-.266.7-.2.5 0 .9.4.9.9-.1.5-.5.9-1 .9Zm0-1.5a.887.887 0 0 0-.4.1c-.066.134-.133.3-.2.5 0 .3.3.6.6.6s.6-.3.6-.6-.2-.6-.5-.6h-.1Z" clip-rule="evenodd"/>
  <g opacity=".3">
    <path fill="#050505" d="M16.325 12.7c0-.4-.3-.8-.7-.8-.4 0-.8.3-.8.7 1.3-.6 1.5.5 1.5.1Z"/>
    <path fill="#050505" fill-rule="evenodd" d="M16.326 13c-.1 0-.2-.1-.2-.1-.2-.2-.5-.5-1.2-.1h-.2c-.067-.066-.1-.133-.1-.2 0-.2.1-.4.3-.6.2-.2.433-.266.7-.2.5 0 .9.4.9.9 0 .1-.1.2-.2.2v.1Zm-.8-.7c.3 0 .5.1.6.2-.1-.3-.3-.4-.5-.4s-.367.034-.5.1c0 .067-.034.134-.1.2.2-.066.366-.1.5-.1Z" clip-rule="evenodd"/>
  </g>
  <path fill="#050505" d="M15.926 12.7c0-.2-.2-.3-.3-.3-.2-.1-.4.1-.4.3 0 .1.2.3.3.3.2 0 .4-.1.4-.3Z"/>
  <path fill="#FEFEFE" d="M15.626 12.6c0-.2-.1-.2-.2-.3-.1 0-.2.1-.2.2-.1.2 0 .3.2.3.1 0 .2-.1.2-.2Z"/>
  <path fill="#B2734F" d="M6.426 12.9c0-.1-.1-1.1 1.4-1.1 1.4-.1 1.7.6 1.7.9 0 0-.4-.5-1.5-.4-1 0-1.6.6-1.6.6Z"/>
  <path fill="#050505" fill-rule="evenodd" d="M6.426 13c-.067 0-.1-.033-.1-.1-.067-.333 0-.6.2-.8.266-.333.7-.5 1.3-.5 1.5 0 1.8.7 1.9 1.1 0 .067-.034.1-.1.1-.067.067-.134.1-.2.1v-.1s-.4-.4-1.4-.4c-.9.1-1.5.6-1.5.6h-.1Zm1.6-1.1h-.2c-.467.067-.834.2-1.1.4 0 .067-.034.133-.1.2.3-.2.8-.4 1.4-.4.5 0 .9.1 1.2.2-.267-.267-.667-.4-1.2-.4Z" clip-rule="evenodd"/>
  <path fill="#E0B4A5" d="m7.125 12.3-.3-.3Z"/>
  <path fill="#050505" d="m7.125 12.5-.1-.1-.3-.3c-.1-.1-.1-.2-.1-.2.1-.1.2-.1.3 0l.4.3v.2c-.066.067-.133.1-.2.1Z"/>
  <path fill="#E0B4A5" d="m6.725 12.6-.7-.5Z"/>
  <path fill="#050505" d="M6.726 12.8h-.1l-.7-.5c0-.1-.1-.2 0-.3.1 0 .2-.1.2 0l.7.5c.1.1.1.2 0 .3h-.1Z"/>
  <path fill="#E0B4A5" d="m6.426 13-.8-.1Z"/>
  <path fill="#050505" d="m6.426 13.1-.8-.1c-.1 0-.2 0-.2-.1s.1-.2.2-.2l.8.1c.1 0 .2.1.2.2s-.1.1-.2.1Z"/>
  <path fill="#B2734F" d="M15.025 11.7c1.4.1 2.1.6 2.1 1.1v.1s-.9-.7-1.9-.7c-1.1 0-2.1.5-2.1.5 0-.4.5-1 1.9-1Z"/>
  <path fill="#050505" fill-rule="evenodd" d="M17.125 13h-.1c-.1 0-.9-.6-1.8-.6-1-.1-2 .4-2 .4-.066.067-.133.067-.2 0-.066 0-.1-.033-.1-.1.1-.4.5-1.2 2.1-1.1 1.7 0 2.2.7 2.2 1.2v.1c0 .067-.033.1-.1.1Zm-2-1h.1c.6.1 1.2.3 1.6.5-.2-.3-.8-.6-1.8-.6s-1.4.2-1.6.5c.4-.2 1-.4 1.7-.4Z" clip-rule="evenodd"/>
  <path fill="#E0B4A5" d="m16.226 12.4.8-.5Z"/>
  <path fill="#050505" d="m16.226 12.6-.1-.1c0-.1 0-.2.1-.2l.7-.5c.1 0 .2 0 .3.1 0 0 0 .1-.1.2l-.8.5h-.1Z"/>
  <path fill="#E0B4A5" d="m16.725 12.6.9-.4Z"/>
  <path fill="#050505" d="M16.725 12.8c-.066 0-.1-.066-.1-.2-.1 0 0-.1.1-.2l.8-.3c.1 0 .2 0 .2.1.1.1 0 .2-.1.2l-.8.3-.1.1Z"/>
  <path fill="#050505" d="M17.026 12.9c-.1 0-.2-.1-.2-.2s.1-.1.2-.1l.9-.1c.1 0 .2.1.2.1 0 .1-.1.2-.2.2l-.9.1Z"/>
  <path fill="#1A1A1A" d="M14.126 19.2s-1.7.2-3 .3c-1.2.1-1.7.3-1.6.6.1.4.3.9 1.9.7 1.5-.1 2.7-1.6 2.7-1.6Z"/>
  <path fill="#FEFEFE" d="M9.525 19.5v.7s3.2.2 3.9-.5c.4-.3-3.9-.2-3.9-.2Z"/>
  <path fill="#050505" fill-rule="evenodd" d="M10.626 20.4c-.6 0-1-.1-1.1-.1-.067 0-.1-.034-.1-.1v-.7c0-.1.1-.2.1-.2h2c2 .1 2 .2 2.1.3 0 .066-.034.133-.1.2-.5.5-1.9.6-2.9.6Zm-.9-.3c.9 0 2.8 0 3.5-.4-.5-.1-2.1-.1-3.5-.1v.5Z" clip-rule="evenodd"/>
  <path fill="#D0252C" d="M14.126 19.4c-.3.7-1.9 1.9-3.2 2-1.4.1-1.6-.7-1.6-.7 0-.3.1-.3.5-.2.3.1 1.2.2 2.2.1 1.2-.2 2.1-1.2 2.1-1.2Z"/>
  <path fill="#050505" fill-rule="evenodd" d="M10.726 21.5c-1.3 0-1.5-.7-1.5-.7v-.1c0-.1 0-.3.1-.4.2-.1.3 0 .6.1s1.1.1 2.1 0c1.1-.1 2-1.1 2-1.1.066-.067.133-.067.2 0 .066 0 .066.033 0 .1-.2.8-1.9 2.1-3.3 2.1h-.2Zm-1.2-.8c0 .1.3.6 1.4.6.8-.1 1.7-.5 2.3-1-.4.2-.7.3-1.2.4-.9.1-1.9 0-2.2-.1-.3-.1-.3 0-.3 0v.1Z" clip-rule="evenodd"/>
  <path fill="#D0252C" d="M14.125 19.3s-2.3 1-5.1.3c.267-.067.467-.167.6-.3.2-.1.4-.3.8-.1.4.3.4.2.5.2.2-.1.5-.3.8-.2.2.1 1.3.4 2.4.1Z"/>
  <path fill="#050505" fill-rule="evenodd" d="M11.126 20c-.6 0-1.4-.1-2.1-.3-.067 0-.1-.067-.1-.2 0-.067.033-.1.1-.1.2 0 .4-.067.6-.2v-.1c.2-.1.4-.3.8 0 .3.2.4.2.4.2 0-.067.033-.1.1-.1h.1c.2-.1.5-.3.7-.1.3.1 1.3.4 2.4.1.066-.067.1-.067.1 0 .066.133.066.2 0 .2-.1 0-1.3.6-3.1.6Zm-1.6-.5c1.3.3 2.4.2 3.2 0-.5 0-.9-.1-1.1-.2-.1-.1-.4.1-.5.1l-.1.1h-.1c-.1.1-.2.1-.6-.2-.3-.1-.4-.1-.5 0 0 .066-.034.1-.1.1-.067.067-.134.1-.2.1Z" clip-rule="evenodd"/>
  <path fill="#F3B7A4" d="M10.726 12.5c-.5 1.6-.2.8-.9 2.9-.2.4-.5 1.5-.6 1.8 0 .6.8.8 1.1.9.3 0 .3 0 .9-.4h.4c.2 0 .4.2.5.2.2 0 .5 0 .5-.4"/>
  <path fill="#050505" d="M10.526 18.3h-.2c-.2-.1-.7-.2-1-.5-.2-.2-.267-.4-.2-.6 0-.3.3-1.5.5-1.9.5-1.3.5-1.4.6-1.8.1-.2.2-.5.3-1 0-.1.2-.2.3-.2.1.1.1.2.1.3-.2.5-.2.8-.3 1-.1.4-.1.5-.6 1.9-.2.3-.5 1.4-.6 1.7 0 .133.033.233.1.3.2.3.7.4.8.4h.1c.2 0 .2 0 .7-.3h.1s.2-.1.4-.1c.133.066.266.1.4.1l.1.1c.133 0 .233-.034.3-.1v-.1c0-.1.1-.2.2-.2s.2.1.2.2c0 .2-.1.3-.2.4-.1.1-.3.2-.5.2-.067-.067-.167-.1-.3-.1-.067-.067-.134-.1-.2-.1h-.4c-.4.3-.5.4-.7.4Zm-5.001-7.5s.1-.6 1-.6c1.6 0 2.7.5 2.7.5l.1.3c.1.1.1.2-.3.2-.3 0-1.4-.5-2.4-.4-1.1 0-1.1.3-1.1.3v-.3Zm7.601-.1s1.9-.5 2.9-.5c1.3.1 2.3 1 2.4 1.1.1 0 .1.2 0 .2-.1-.1-.8-.4-1.5-.6 0 0-.9-.2-1.9-.1-1 .1-2 .4-2 .4-.1 0-.1 0-.2-.2 0-.3.3-.3.3-.3Z"/>
  <defs>
    <linearGradient id="a" x1="7.125" x2="7.325" y1="18.4" y2="16.9" gradientUnits="userSpaceOnUse">
      <stop stop-color="#F3B7A4"/>
      <stop offset="1" stop-color="#F1A6A7"/>
    </linearGradient>
    <linearGradient id="b" x1="15.025" x2="16.025" y1="18.2" y2="16.9" gradientUnits="userSpaceOnUse">
      <stop stop-color="#F3B7A4"/>
      <stop offset="1" stop-color="#F1A6A7"/>
    </linearGradient>
  </defs>
</svg>
