<svg xmlns="http://www.w3.org/2000/svg" width="61" height="23" fill="none" viewBox="0 0 61 23">
  <path fill="#DD4297" d="M58.9 10.2 25.3 8.1l.7-4.7 33.1 2-.2 4.8Zm1.9 10.6L0 16.9l.2-4.7L61 16l-.2 4.8Z"/>
  <path fill="#FEFEFE" fill-rule="evenodd" d="M7.4 1.5c.9.1 1.9.2 1.3 3.1-.6 2.7-1.5 2.7-2.9 2.7l-.5-.1 1.2-5.7h.9Zm-.2.6-1 4.5c1.3.1 1.5-1.1 1.7-2.1.2-.9.6-2.4-.7-2.4Z" clip-rule="evenodd"/>
  <path fill="#FEFEFE" d="M9.4 7.4h-.7l1.2-5.8.8.1-1.3 5.7Zm.8-6.1-.3-.2.8-1.1.5.4-1 .9Z"/>
  <path fill="#FEFEFE" fill-rule="evenodd" d="M12.9 1.8v5.8h-.8V6.5L11 6.4l-.5 1.1h-.7l2.4-5.7h.7ZM12.3 5l.1-2.1-1.1 2.9h.9l.1-.8Zm4.4-3c.9.1 1.9.2 1.3 3.1-.6 2.7-1.5 2.7-2.9 2.7l-.5-.1L15.8 2h.9Zm-.2.6-1 4.5C16.8 7.2 17 6 17.2 5c.2-.9.6-2.4-.7-2.4Z" clip-rule="evenodd"/>
  <path fill="#FEFEFE" d="m21.3 2.3-.2.6-1.3-.1-.3 1.9h1.1l-.1.7-1.2-.1-.4 2 1.3.1-.1.6-2.1-.1 1.2-5.8 2.1.2Zm1.2 0-1.1 5.1 1.3.1-.2.6-2-.1 1.2-5.7h.8Zm8.8 7.4L29 9.6l-1.3-7.7 2.4.1.6 4.6 2.4-4.4 2.5.1-4.3 7.4Z"/>
  <path fill="#FEFEFE" fill-rule="evenodd" d="M39.5 2.4c1.133.067 2 .5 2.6 1.3.6.8.8 1.733.6 2.8-.2 1.133-.767 2.033-1.7 2.7-.933.733-1.967 1.067-3.1 1-1.067-.067-1.933-.5-2.6-1.3-.6-.8-.8-1.733-.6-2.8.2-1.067.767-1.967 1.7-2.7.933-.733 1.967-1.067 3.1-1Zm-1.1 5.7c.4 0 .8-.167 1.2-.5.4-.333.667-.733.8-1.2a1.81 1.81 0 0 0-.3-1.3 1.58 1.58 0 0 0-1-.6c-.467 0-.9.167-1.3.5-.4.333-.633.733-.7 1.2-.133.533-.067.967.2 1.3.267.4.633.6 1.1.6Z" clip-rule="evenodd"/>
  <path fill="#FEFEFE" d="m45.3 5-2.1-.1.5-2.1 6.4.3-.4 2.1-2.1-.1-1 5.4-2.3-.1 1-5.4Z"/>
  <path fill="#FEFEFE" fill-rule="evenodd" d="M54.4 3.2c1.133.066 2 .5 2.6 1.3.6.8.8 1.733.6 2.8-.2 1.133-.767 2.033-1.7 2.7-.933.733-1.933 1.066-3 1-1.133-.067-2.033-.5-2.7-1.3-.6-.8-.8-1.734-.6-2.8.2-1.067.767-1.967 1.7-2.7.933-.734 1.967-1.067 3.1-1Zm-1.1 5.7c.467 0 .867-.167 1.2-.5.4-.334.667-.734.8-1.2a1.81 1.81 0 0 0-.3-1.3 1.58 1.58 0 0 0-1-.6c-.467 0-.9.166-1.3.5-.4.333-.633.733-.7 1.2-.133.533-.067.966.2 1.3.267.4.633.6 1.1.6Z" clip-rule="evenodd"/>
  <path fill="#FEFEFE" d="m4.5 18.9-2.2-.1 1.5-7.5 5.5.3-.5 2.1-3.2-.2-.2 1.1 3 .1-.4 2-3-.2-.5 2.4Zm7.5-5-.1.7 3 .2-.4 1.9-3-.2-.1.7 3.2.2-.4 2.1-5.5-.3 1.5-7.6 5.5.4-.4 2.1-3.3-.2Zm7.7 5h-.6l-1-2.3-.6 3.1-2.3-.2 1.6-7.5 2.1.1 1.3 3 2.4-2.7 2.1.1-1.5 7.5-2.2-.1.6-3.1-1.9 2.1Zm8.1-4.1-.2.7 3 .2-.4 1.9-2.9-.1-.2.6 3.3.2-.5 2.1-5.5-.3 1.6-7.5 5.5.3L31 15l-3.2-.2Zm11.5-1.5-1.5 7.6-2.1-.2-1.8-3.4-.6 3.3-2.3-.1 1.5-7.6 2.1.2 1.7 3.4.7-3.3 2.3.1Zm-.3 7.6 1.5-7.5 2.2.1-1.5 7.6-2.2-.2ZM50.7 14l-1.5 7.5-2.1-.1-1.7-3.4-.7 3.3-2.3-.2 1.5-7.5 2.1.1 1.8 3.5.6-3.3 2.3.1Z"/>
  <path fill="#FEFEFE" fill-rule="evenodd" d="M55.8 14.2c1.133.067 2 .5 2.6 1.3.6.8.8 1.733.6 2.8-.2 1.066-.767 1.967-1.7 2.7-.933.733-1.967 1.067-3.1 1-1.133-.067-2-.5-2.6-1.3-.6-.8-.8-1.767-.6-2.9.267-1.067.833-1.967 1.7-2.7a4.712 4.712 0 0 1 3.1-.9Zm-1.1 5.7c.4 0 .8-.167 1.2-.5.4-.333.667-.733.8-1.2.067-.533-.033-.967-.3-1.3-.267-.4-.6-.6-1-.6-.467 0-.9.133-1.3.4-.4.333-.633.767-.7 1.3-.133.467-.067.9.2 1.3.267.333.633.533 1.1.6Z" clip-rule="evenodd"/>
</svg>
