<svg xmlns="http://www.w3.org/2000/svg" width="153" height="33" fill="none" viewBox="0 0 153 33">
  <path fill="#FEFEFE" fill-rule="evenodd" d="M82.4 6.6c.9 0 2 0 1.7 3.1-.3 2.8-1.2 3-2.7 3.1h-.5l.6-6.1.9-.1Zm-.2.7-.5 4.7c1.4 0 1.4-1.3 1.5-2.3.1-1 .4-2.6-1-2.4Z" clip-rule="evenodd"/>
  <path fill="#FEFEFE" d="m85.2 12.5-.8.1.6-6.1.8-.1-.6 6.1Zm.2-6.3L85 6l.8-1.3.5.4-.9 1.1Z"/>
  <path fill="#FEFEFE" fill-rule="evenodd" d="m88.1 6.3.7 6-.8.1-.1-1.2-1.2.1-.4 1.2h-.8l1.9-6.2h.7Zm-.3 3.4-.1-2.2-.8 3.2 1-.1-.1-.9Z" clip-rule="evenodd"/>
  <path fill="#FEFEFE" d="m91.7 7.9-.1 2-.2 2.3h-.8l.6-6.1h.7l1 4.5.1-2.4.2-2.2h.8l-.6 6.1h-.8l-.9-4.6v.4Z"/>
  <path fill="#FEFEFE" fill-rule="evenodd" d="m96.2 5.8.7 6.1h-.8l-.1-1.2-1.2.1-.3 1.2-.8.1 1.9-6.2.6-.1Zm-.3 3.4L95.8 7l-.8 3.1.9-.1v-.8Z" clip-rule="evenodd"/>
  <path fill="#FEFEFE" d="M100.1 6.4c-.1 0-.3-.1-.5-.1-1.1.1-1.3 1.7-1.3 2.5-.1.8-.2 2.3.9 2.3.2-.067.367-.133.5-.2l-.1.7c-.2.133-.4.2-.6.2-1.7.1-1.7-1.6-1.6-2.9.1-1.2.5-3.2 2.1-3.3.3-.1.5 0 .7.1l-.1.7Zm.7 5.2-.8.1.6-6.1.8-.1-.6 6.1Z"/>
  <path fill="#FEFEFE" fill-rule="evenodd" d="M104.9 8.4c-.1 1.1-.3 3.1-1.9 3.2-1.5.1-1.4-2-1.2-3.1.1-1.1.3-3.1 1.8-3.2 1.6-.1 1.4 2 1.3 3.1Zm-2.3.1c-.1 1.3-.1 2.4.5 2.3.6 0 .8-1.1 1-2.4.1-1.3.1-2.4-.5-2.3-.7 0-.9 1.1-1 2.4Z" clip-rule="evenodd"/>
  <path fill="#FEFEFE" d="M106.3 7v2.1l-.3 2.2-.8.1.6-6.1.8-.1 1 4.6V7.3l.2-2.1.8-.1-.6 6.1-.7.1-1-4.7V7Z"/>
  <path fill="#FEFEFE" fill-rule="evenodd" d="m110.9 5 .7 6-.8.1-.1-1.2h-1.2l-.4 1.3h-.7l1.9-6.2h.6Zm-.4 3.4-.1-2.2-.8 3.1h1l-.1-.9Z" clip-rule="evenodd"/>
  <path fill="#FEFEFE" d="m113.3 4.8-.5 5.4h1.4l-.1.7-2.2.1.6-6.1.8-.1Z"/>
  <path fill="#FEFEFE" fill-rule="evenodd" d="M117.3 4.6c1-.1 2.1-.1 1.8 3-.3 2.9-1.3 3-2.7 3.1l-.6.1.6-6.1.9-.1Zm-.1.6-.5 4.8c1.3-.1 1.4-1.3 1.5-2.4.1-.9.4-2.5-1-2.4Z" clip-rule="evenodd"/>
  <path fill="#FEFEFE" d="M122.1 4.3V5l-1.4.1-.2 1.9h1.2v.7h-1.2l-.2 2.1 1.3-.1-.1.7-2.1.2.6-6.2 2.1-.1Zm2.7-.1-.5 5.4 1.3-.1v.7l-2.2.1.6-6.1h.8Z"/>
  <path fill="#FEFEFE" fill-rule="evenodd" d="m128 4 .7 6-.8.1-.2-1.2h-1.2l-.3 1.3h-.8l1.9-6.2h.7Zm-.3 3.4-.1-2.2-.8 3.1h1l-.1-.9Z" clip-rule="evenodd"/>
  <path fill="#20B04B" d="m153 16.7-73.9 4.6-.1-4.7 73.7-4.6.3 4.7Z"/>
  <path fill="#FEFEFE" d="M88.9 19.1a5.073 5.073 0 0 1-1.5 2.4c-.8.667-1.7 1.033-2.7 1.1-1.067.067-1.967-.267-2.7-1-.667-.667-.967-1.533-.9-2.6.133-1.133.6-2.1 1.4-2.9a4.33 4.33 0 0 1 2.9-1.3c.933 0 1.733.267 2.4.8.667.6 1.067 1.367 1.2 2.3l-2.4.1a1.28 1.28 0 0 0-.5-.8c-.267-.2-.567-.266-.9-.2-.467 0-.867.167-1.2.5-.333.4-.5.834-.5 1.3-.067.534.033.967.3 1.3.267.267.633.4 1.1.4.333 0 .633-.133.9-.4.333-.2.567-.5.7-.9l2.4-.1Z"/>
  <path fill="#FEFEFE" fill-rule="evenodd" d="M93.9 14.4c1.067-.066 1.967.234 2.7.9.667.734.967 1.634.9 2.7-.133 1.067-.6 2-1.4 2.8a4.33 4.33 0 0 1-2.9 1.3c-1.067.067-1.967-.267-2.7-1-.667-.667-.967-1.533-.9-2.6.133-1.133.6-2.1 1.4-2.9.8-.8 1.767-1.2 2.9-1.2Zm-.5 5.6c.467 0 .867-.2 1.2-.6.333-.333.533-.766.6-1.3 0-.466-.133-.867-.4-1.2-.267-.333-.633-.466-1.1-.4-.467 0-.867.167-1.2.5a2.58 2.58 0 0 0-.6 1.3c0 .534.133.967.4 1.3.267.267.633.4 1.1.4Z" clip-rule="evenodd"/>
  <path fill="#FEFEFE" d="m105.5 13.8-.7 7.5-2 .1-2.1-3.1-.3 3.3-2.2.1.6-7.5 2-.1 2.2 3.1.2-3.3 2.3-.1Zm8.5 3.8a4.79 4.79 0 0 1-1.6 2.5c-.733.667-1.6 1-2.6 1-1.133.067-2.033-.233-2.7-.9-.667-.733-.967-1.633-.9-2.7.067-1.066.533-2 1.4-2.8.8-.8 1.733-1.233 2.8-1.3 1-.066 1.833.2 2.5.8.667.534 1.067 1.267 1.2 2.2l-2.4.2a1.815 1.815 0 0 0-.6-.8c-.267-.2-.533-.3-.8-.3-.467 0-.867.2-1.2.6-.333.333-.533.767-.6 1.3-.067.467.067.867.4 1.2.267.333.633.467 1.1.4.333 0 .633-.1.9-.3.267-.267.5-.566.7-.9l2.4-.2Zm.5 3.1.6-7.5 2.2-.1-.6 7.5-2.2.1Zm6.1-5.7-.1.7 2.9-.1-.1 1.9-2.9.2-.1.6 3.2-.2-.2 2.1-5.4.3.6-7.5 5.4-.3-.2 2.1-3.1.2Zm11-2.7-.6 7.5-2.1.1-2.1-3.1-.2 3.2-2.3.2.7-7.5 2-.2 2.1 3.2.3-3.3 2.2-.1Zm8.5 3.8c-.267.933-.8 1.733-1.6 2.4a4.169 4.169 0 0 1-2.6 1.1c-1.067.066-1.967-.234-2.7-.9-.667-.733-.967-1.633-.9-2.7.133-1.133.6-2.1 1.4-2.9.8-.734 1.767-1.133 2.9-1.2.933-.067 1.733.166 2.4.7.667.6 1.067 1.367 1.2 2.3l-2.4.2c-.133-.4-.3-.7-.5-.9a1.083 1.083 0 0 0-.9-.2c-.467 0-.867.166-1.2.5-.333.4-.533.833-.6 1.3 0 .533.133.966.4 1.3.267.333.633.466 1.1.4.333 0 .633-.134.9-.4.333-.2.567-.5.7-.9l2.4-.1Zm.6 3.1.6-7.5 2.2-.1-.6 7.5-2.2.1Z"/>
  <path fill="#FEFEFE" fill-rule="evenodd" d="m149.2 11.2 2.1 7.4-2.4.1-.2-.7-2.4.1-.3.8-2.4.1 3.3-7.6 2.3-.2Zm-2 4.7 1-.1-.4-1.5-.6 1.6Z" clip-rule="evenodd"/>
  <path fill="#20B04B" d="M142.8 27.7 79.5 31l-.1-4.6 63-3.3.4 4.6Z"/>
  <path fill="#FEFEFE" fill-rule="evenodd" d="M85.9 24.6 88 32l-2.4.1-.2-.8-2.4.1-.3.8-2.4.2 3.4-7.7 2.2-.1Zm-2 4.7h1l-.4-1.6-.6 1.6Z" clip-rule="evenodd"/>
  <path fill="#FEFEFE" d="m93 30.8-.6.1-1.2-2.2-.2 3.1-2.3.1.7-7.5 2.1-.1 1.6 2.8 2.1-3 2-.1-.6 7.5-2.2.1.2-3.1-1.6 2.3Z"/>
  <path fill="#FEFEFE" fill-rule="evenodd" d="m97.8 31.4.6-7.5 3.3-.1h.2c.133 0 .333.033.6.1.266.066.5.133.7.2.2.133.4.333.6.6.133.266.2.6.2 1-.067.6-.3 1.1-.7 1.5.533.4.766.933.7 1.6-.134 1.533-1.234 2.366-3.3 2.5l-2.9.1Zm2.4-2.2 1-.1c.266 0 .433-.134.5-.4 0-.267-.167-.4-.5-.4l-.9.1-.1.8Zm.2-2.5h.9c.1 0 .3-.2.4-.5 0-.3-.2-.3-.3-.3h-.9l-.1.8Z" clip-rule="evenodd"/>
  <path fill="#FEFEFE" d="m104.7 31.1.6-7.5 2.3-.1-.7 7.5-2.2.1Zm6.1-5.7-.1.7 2.9-.2-.1 2-2.9.1-.1.7 3.2-.2-.2 2.1-5.4.3.6-7.5 5.4-.3-.1 2.1-3.2.2Zm11-2.7-.6 7.5-2.1.1-2.1-3.1-.2 3.2-2.3.1.7-7.4 2-.2 2.1 3.2.3-3.3 2.2-.1Zm2.7 2-2 .1.2-2.1 6.3-.4-.2 2.1-2 .1-.5 5.4-2.2.1.4-5.3Z"/>
  <path fill="#FEFEFE" fill-rule="evenodd" d="m133.1 22.1 2.1 7.3-2.4.2-.2-.8-2.4.1-.3.8-2.5.2 3.4-7.7 2.3-.1Zm-2 4.7h1l-.4-1.6-.6 1.6Z" clip-rule="evenodd"/>
  <path fill="#FEFEFE" d="m138.8 21.8-.5 5.4 3.2-.2-.2 2.1-5.4.3.6-7.5 2.3-.1Z"/>
  <path fill="#FEFEFE" fill-rule="evenodd" d="M20.5 1.9c1 0 2.1 0 1.7 3.1-.2 2.9-1.2 3.1-2.7 3.2H19l.6-6.2.9-.1Zm-.2.7-.5 4.8c1.4 0 1.5-1.3 1.6-2.4.1-.9.3-2.6-1.1-2.4Z" clip-rule="evenodd"/>
  <path fill="#FEFEFE" d="m23.4 7.9-.8.1.6-6.2.8-.1-.6 6.2Zm.2-6.5-.4-.2L24 0l.5.3-.9 1.1Z"/>
  <path fill="#FEFEFE" fill-rule="evenodd" d="m26.3 1.6.7 6.1-.8.1-.1-1.2-1.2.1-.4 1.2h-.8l2-6.3h.6Zm-.4 3.5-.1-2.3L25 6h1l-.1-.9Zm4.5-3.8c1 0 2 0 1.7 3.1-.2 2.9-1.2 3.1-2.7 3.2h-.5l.6-6.2.9-.1Zm-.2.7-.5 4.8c1.4 0 1.4-1.3 1.6-2.3 0-1 .3-2.7-1.1-2.5Z" clip-rule="evenodd"/>
  <path fill="#FEFEFE" d="m35.3 1.1-.1.7-1.4.1-.2 1.9 1.3-.1-.1.8h-1.2l-.2 2.2 1.3-.1v.7l-2.2.1.6-6.2 2.2-.1ZM38 .9l-.5 5.5 1.3-.1v.8l-2.2.1.6-6.3h.8Z"/>
  <path fill="#FEFEFE" fill-rule="evenodd" d="M42.4 3.7c-.1 1.2-.3 3.2-1.9 3.3-1.6.1-1.4-1.9-1.3-3.1.1-1.1.4-3.2 2-3.3 1.5-.1 1.4 2 1.2 3.1Zm-2.3.2c-.1 1.3-.1 2.4.5 2.4.6-.1.8-1.2 1-2.5.1-1.3.1-2.4-.5-2.4-.7 0-.9 1.2-1 2.5Z" clip-rule="evenodd"/>
  <path fill="#FEFEFE" d="M45.2 1.4c-.2-.1-.4-.2-.7-.2-.4 0-.7.4-.8.9 0 .2 0 .4.2.6l.5.7c.5.5.8.9.7 1.7-.1.9-.7 1.7-1.6 1.8-.3 0-.6-.1-.8-.3v-.8c.3.1.5.3.8.3.5-.1.8-.5.8-1 .1-1.2-1.6-1.3-1.4-3 .1-.9.6-1.6 1.5-1.7.333 0 .633.067.9.2l-.1.8Z"/>
  <path fill="#4F9BCF" d="M63.5 14.3 0 18.2l.8-4.8 62.3-3.8.4 4.7Z"/>
  <path fill="#FEFEFE" fill-rule="evenodd" d="m1.9 19.6.6-7.6 3-.2c1.133-.067 2.033.233 2.7.9.6.667.867 1.567.8 2.7-.067 1.067-.5 2-1.3 2.8-.733.733-1.667 1.133-2.8 1.2l-3 .2ZM4.6 14l-.3 3.3h.8c.467 0 .833-.167 1.1-.5.267-.333.433-.733.5-1.2 0-.533-.1-.933-.3-1.2-.267-.333-.6-.467-1-.4h-.8Z" clip-rule="evenodd"/>
  <path fill="#FEFEFE" d="M12.3 13.5v.8l3-.2-.2 2-3 .1v.7l3.2-.2-.2 2.1-5.5.4.7-7.7 5.5-.3-.2 2.1-3.3.2Z"/>
  <path fill="#FEFEFE" fill-rule="evenodd" d="m23 18.4-2.8.1-1.4-1.8h-.2l-.1 1.9-2.3.2.6-7.7 3.1-.2c.1 0 .2 0 .6.1.4 0 .8.1 1.2.4.5.2.8.6.9 1.2.133.333.167.7.1 1.1-.067 1-.533 1.8-1.4 2.4l1.7 2.3Zm-4.1-5.3-.1 1.5.8-.1c.467 0 .7-.233.7-.7 0-.5-.2-.7-.5-.7h-.9Z" clip-rule="evenodd"/>
  <path fill="#FEFEFE" d="m26.4 12.7-.1.7 3-.1-.2 1.9-3 .2v.7l3.2-.2-.2 2.1-5.5.3.7-7.6 5.5-.3-.2 2.1-3.2.2Zm11.9 1.6c-.267 1-.8 1.833-1.6 2.5S35 17.833 34 17.9c-1.067.067-1.967-.267-2.7-1-.667-.733-.967-1.667-.9-2.8.067-1.067.533-2 1.4-2.8.8-.867 1.767-1.3 2.9-1.3 1-.067 1.833.166 2.5.7.667.6 1.067 1.4 1.2 2.4l-2.4.1a1.821 1.821 0 0 0-.6-.8c-.267-.2-.567-.3-.9-.3-.467 0-.867.2-1.2.6-.333.4-.533.833-.6 1.3 0 .533.133.967.4 1.3.267.333.633.466 1.1.4.333 0 .667-.133 1-.4.267-.2.5-.5.7-.9l2.4-.1Zm4.7 2.9.2-2.4-1.9.1-.2 2.4-2.2.1.6-7.6 2.3-.1-.3 3 1.9-.1.2-3 2.3-.2-.6 7.7-2.3.1Z"/>
  <path fill="#FEFEFE" fill-rule="evenodd" d="M51 9c1.067-.067 1.967.267 2.7 1 .733.733 1.033 1.633.9 2.7a4.33 4.33 0 0 1-1.3 2.9c-.867.8-1.867 1.233-3 1.3-1.133.067-2.033-.267-2.7-1-.733-.667-1.067-1.567-1-2.7.133-1.133.6-2.1 1.4-2.9.867-.8 1.867-1.233 3-1.3Zm-.5 5.8a2.069 2.069 0 0 0 1.2-.6c.333-.4.533-.833.6-1.3 0-.533-.133-.967-.4-1.3-.267-.333-.633-.467-1.1-.4-.467 0-.867.167-1.2.5a2.66 2.66 0 0 0-.6 1.4c-.067.467.067.867.4 1.2.267.333.633.5 1.1.5Z" clip-rule="evenodd"/>
  <path fill="#FEFEFE" d="M56.8 13.6c.533.533 1.1.8 1.7.8.467-.067.7-.2.7-.4 0-.133-.1-.233-.3-.3a11.933 11.933 0 0 0-.9-.4 4.45 4.45 0 0 1-1.1-.4 1.624 1.624 0 0 1-.8-.7c-.267-.333-.367-.7-.3-1.1 0-.467.233-.967.7-1.5.4-.6 1.3-1 2.3-1.1.8 0 1.6.2 2 .5.4.3.8.6.9.8l.1.2-1.6 1.3c-.267-.333-.5-.533-.7-.6-.2-.067-.467-.1-.8-.1-.3.1-.6.2-.6.4s.4.4.9.5c.267.067.566.167.9.3l.8.4c.267.133.466.367.6.7.133.267.2.6.2 1 0 .5-.3 1-.8 1.5-.4.6-1.3 1-2.4 1.1-.867 0-1.567-.167-2.1-.5-.534-.333-.9-.733-1.1-1.2l1.7-1.2Z"/>
  <path fill="#4F9BCF" d="m72.6 25.2-37.2 1.6-.3-4.8 37.2-1.5.3 4.7Z"/>
  <path fill="#FEFEFE" fill-rule="evenodd" d="M21.3 22.1c1-.1 2-.1 1.7 3.1-.2 2.9-1.2 3-2.7 3.1l-.5.1.6-6.3h.9Zm-.2.7-.5 4.9c1.4-.1 1.4-1.4 1.6-2.4 0-1 .3-2.6-1.1-2.5Z" clip-rule="evenodd"/>
  <path fill="#FEFEFE" d="m26.2 21.8-.1.7-1.4.1-.2 1.9h1.3l-.1.7-1.2.1-.2 2.1 1.3-.1v.7l-2.2.2.6-6.3 2.2-.1Zm2.7-.2-.5 5.5h1.3v.7l-2.2.1.6-6.2.8-.1Z"/>
  <path fill="#FEFEFE" fill-rule="evenodd" d="m32.1 21.4.7 6.2H32l-.1-1.2-1.2.1-.4 1.2-.8.1 2-6.3.6-.1Zm-.4 3.5-.1-2.3-.8 3.2 1-.1-.1-.8Z" clip-rule="evenodd"/>
  <path fill="#FEFEFE" d="m45.4 20.1-.7 7.6-2.1.1-2.1-3.2-.3 3.4-2.3.1.7-7.7 2.1-.1 2.1 3.2.3-3.3 2.3-.1Zm.5 7.6.7-7.7 2.2-.1-.6 7.6-2.3.2Zm10.8-8.2-.6 7.6-2.1.1-2.2-3.2-.2 3.4-2.3.1.7-7.7 2-.1 2.2 3.2.2-3.3 2.3-.1Zm-.5-3.1c-.1.9-.4 1.6-.8 2-.3.3-.7.5-.9.5l-.1.1c-.267 0-.533-.1-.8-.3-.333-.133-.533-.2-.6-.2-.067 0-.133.167-.2.5l-1.9.1c.1-1 .4-1.7.7-2 .4-.3.7-.5 1-.6h.1c.267 0 .533.067.8.2.267.2.433.3.5.3.133 0 .2-.167.2-.5l2-.1Zm3.9 5-.1.8 3-.2-.2 2-3 .1v.7l3.2-.2-.2 2.2-5.5.3.7-7.7 5.5-.3-.2 2.2-3.2.1Zm6.7 3 2.9-.1-.1 2.1-6.1.3.2-1.8 3.1-3.8-2.7.1.2-2.1 5.8-.3-.2 1.8-3.1 3.8Z"/>
</svg>
