<svg xmlns="http://www.w3.org/2000/svg" width="95" height="66" fill="none" viewBox="0 0 95 66">
  <path fill="#7358A4" d="M64.9 33.6 3.7 28.3l.3-4.5 61.2 5.6-.3 4.2Zm-3.7-9.5L.4 18.9l.3-4.2 61.1 5.2-.6 4.2Z"/>
  <path fill="#FEFEFE" fill-rule="evenodd" d="M24.9 1.1c.8.1 1.7.3 1 2.8-.6 2.4-1.4 2.4-2.6 2.3l-.5-.1 1.3-5h.8Zm-.2.5-1 4c1.1.1 1.3-1 1.6-1.8.1-.8.6-2.1-.6-2.2Z" clip-rule="evenodd"/>
  <path fill="#FEFEFE" d="m26.5 6.5-.7-.1 1.3-5.1.7.1-1.3 5.1Zm.9-5.3-.3-.2.9-1 .3.3-.9.9Z"/>
  <path fill="#FEFEFE" fill-rule="evenodd" d="m29.7 1.6-.1 5.2-.7-.1v-1l-1-.1-.4 1-.7-.1 2.4-5 .5.1ZM29 4.5l.2-1.9-1.1 2.5.8.1.1-.7Z" clip-rule="evenodd"/>
  <path fill="#FEFEFE" d="m10.9 8.3-.3 1.7-.5 1.8h-.7l1.3-5.1.6.1.3 3.9.3-2 .5-1.8h.7L11.8 12l-.7-.1-.2-4v.4Z"/>
  <path fill="#FEFEFE" fill-rule="evenodd" d="m15 7.1-.2 5.2-.7-.1.1-1-1-.1-.5 1-.6-.1 2.4-4.9h.5Zm-.8 2.8.2-1.9-1 2.5.8.1v-.7Z" clip-rule="evenodd"/>
  <path fill="#FEFEFE" d="m18.2 8.1-.4-.2c-1-.1-1.3 1.3-1.5 1.9-.1.7-.4 2 .5 2.1.134 0 .3-.033.5-.1l-.2.6c-.2.067-.4.1-.6.1-1.4-.1-1.2-1.6-.9-2.7.2-1 .8-2.6 2.2-2.5.2 0 .4.1.6.2l-.2.6Zm-.1 4.5-.7-.1 1.3-5.1.7.1-1.3 5.1Z"/>
  <path fill="#FEFEFE" fill-rule="evenodd" d="M22 10.3c-.3.9-.7 2.6-2 2.5-1.3-.1-.9-1.8-.7-2.7.2-.9.7-2.6 2-2.5 1.3.1.9 1.8.7 2.7Zm-2-.1c-.3 1-.4 1.9.1 2 .6 0 .9-.9 1.1-1.9.3-1.1.5-2-.1-2.1-.5 0-.8.9-1.1 2Z" clip-rule="evenodd"/>
  <path fill="#FEFEFE" d="m23.3 9.4-.3 1.7-.5 1.9-.6-.1 1.2-5.1.7.1.2 4v-.1l.4-2 .4-1.8.7.1-1.3 5h-.6l-.2-4-.1.3Z"/>
  <path fill="#FEFEFE" fill-rule="evenodd" d="m27.5 8.2-.2 5.2-.7-.1.1-1-1.1-.1-.4 1h-.7l2.4-5h.6Zm-.7 2.8.2-1.9-1.1 2.6.8.1.1-.8Z" clip-rule="evenodd"/>
  <path fill="#FEFEFE" d="m29.5 8.4-1.1 4.5 1.1.1-.1.6-1.8-.2 1.2-5h.7Z"/>
  <path fill="#FEFEFE" fill-rule="evenodd" d="M32.9 8.7c.8.1 1.7.2 1.1 2.8-.6 2.3-1.4 2.4-2.7 2.3l-.4-.1 1.3-5h.7Zm-.3.5-1 4c1.2.1 1.4-1 1.6-1.8.2-.8.6-2.1-.6-2.2Z" clip-rule="evenodd"/>
  <path fill="#FEFEFE" d="m37 9.1-.1.6-1.2-.1-.4 1.6 1 .1-.1.6-1.1-.1-.4 1.7 1.2.1-.2.6-1.8-.2 1.3-5.1 1.8.2Zm2.3.2-1.2 4.5 1.2.1-.2.6-1.8-.2 1.3-5.1.7.1Z"/>
  <path fill="#FEFEFE" fill-rule="evenodd" d="m41.9 9.6-.1 5.1h-.7v-1l-1-.1-.4.9H39l2.4-5 .5.1Zm-.7 2.8.2-1.8-1.1 2.5.8.1.1-.8Z" clip-rule="evenodd"/>
  <path fill="#FEFEFE" d="m5.6 20.3.5-2.1-1.7-.1-.4 2.1-2.1-.2 1.6-6.7 2 .2-.6 2.7 1.6.1.7-2.6 2 .2-1.6 6.6-2-.2Zm3.1.3 1.6-6.6 2 .1-1.6 6.7-2-.2Zm4.7-2.1c.4.6.9.9 1.5.9.333.067.533 0 .6-.2.067-.133 0-.233-.2-.3a4.442 4.442 0 0 0-.8-.4 5.256 5.256 0 0 1-.8-.5 1.624 1.624 0 0 1-.7-.8c-.133-.267-.167-.6-.1-1s.333-.833.8-1.3c.5-.4 1.3-.6 2.2-.5.7 0 1.4.3 1.7.6.3.3.6.7.7.9l.1.1-1.6.9c-.2-.267-.4-.433-.6-.5-.2-.133-.433-.2-.7-.2-.3 0-.5.1-.5.2-.1.2.2.4.7.6.2.067.433.167.7.3.267.2.5.367.7.5.2.2.333.433.4.7.133.267.167.567.1.9-.133.467-.433.9-.9 1.3-.5.4-1.4.7-2.3.6-.8-.067-1.4-.3-1.8-.7-.4-.4-.667-.8-.8-1.2l1.6-.9Zm7.2-1.7-1.9-.2.5-1.8 5.7.5-.4 1.9-1.9-.2-1.1 4.8-2-.2 1.1-4.8Z"/>
  <path fill="#FEFEFE" fill-rule="evenodd" d="M28.7 15.5c1 .066 1.767.467 2.3 1.2.533.733.667 1.6.4 2.6-.2.933-.7 1.733-1.5 2.4-.867.6-1.8.833-2.8.7-1-.067-1.767-.467-2.3-1.2-.533-.733-.7-1.6-.5-2.6.267-.934.8-1.7 1.6-2.3.867-.6 1.8-.867 2.8-.8Zm-1.2 5.1c.4 0 .8-.133 1.2-.4.333-.267.567-.633.7-1.1.067-.467 0-.867-.2-1.2-.2-.333-.5-.5-.9-.5-.4-.067-.8.067-1.2.4-.333.267-.567.6-.7 1-.067.466 0 .866.2 1.2.2.333.5.533.9.6Zm10.2 2.7-2.5-.3-1-1.8H34l-.4 1.7-2-.2 1.6-6.7 2.8.3s.1 0 .5.1c.3.1.6.2 1 .5.3.3.6.6.6 1.2.067.267.067.567 0 .9-.267.933-.8 1.6-1.6 2l1.2 2.3Zm-3-5.2-.2 1.3h.7c.4.067.633-.1.7-.5.1-.4 0-.7-.4-.7l-.8-.1Z" clip-rule="evenodd"/>
  <path fill="#FEFEFE" d="m38.3 23.3 1.5-6.7 2 .2-1.5 6.7-2-.2Zm6.2-4.3-.2.6 2.7.3-.4 1.7-2.7-.3-.1.6 2.9.3-.5 1.8-4.9-.4 1.6-6.7 4.9.5-.4 1.8-2.9-.2Zm5.4.5-1.9-.2.5-1.9 5.7.6-.4 1.8-1.9-.1-1.1 4.8-2-.2 1.1-4.8Z"/>
  <path fill="#FEFEFE" fill-rule="evenodd" d="m57.9 18.3 1 6.9-2.2-.2-.1-.7-2.2-.2-.4.6-2.2-.2 4.1-6.4 2 .2Zm-2.5 4 .9.1-.1-1.5-.8 1.4Zm-44.4.6.9 6.9-2.2-.2-.1-.7-2.2-.2-.4.7-2.2-.2 4.1-6.5 2.1.2Zm-2.4 4 .9.1-.2-1.5-.7 1.4Zm10 3.5-2.5-.2-1-1.8h-.2l-.4 1.6-2-.1 1.6-6.7 2.8.2c0 .1.1.1.5.2.3.1.6.2 1 .5.3.3.5.6.6 1.2.067.267.067.567 0 .9-.267.934-.8 1.567-1.6 1.9l1.2 2.3Zm-3-5.1-.3 1.2.8.1c.4.067.633-.133.7-.6.1-.4-.1-.6-.4-.6l-.8-.1Z" clip-rule="evenodd"/>
  <path fill="#FEFEFE" d="M25 26.8c-.2-.4-.4-.633-.6-.7a1.985 1.985 0 0 0-.9-.2c-.4-.066-.767.034-1.1.3-.4.267-.633.634-.7 1.1-.133.467-.066.867.2 1.2.2.334.5.5.9.5.267 0 .5-.033.7-.1.2-.066.367-.133.5-.2l.1-.2-1.3-.1.3-1.6 3.5.3-.3 1.4c-.2.7-.7 1.3-1.1 1.6-.267.2-.533.367-.8.5-.266.067-.5.134-.7.2-.2.067-.433.1-.7.1h-.7c-1-.066-1.767-.466-2.3-1.2-.533-.733-.666-1.6-.4-2.6.2-.933.733-1.733 1.6-2.4.867-.6 1.8-.833 2.8-.7 1.267.134 2.167.767 2.7 1.9l-1.7.9Zm4.8-.3-.2.7 2.7.2-.4 1.7-2.7-.2-.1.6 2.9.2-.5 1.9-4.9-.5 1.6-6.6 4.9.4-.4 1.9-2.9-.3Zm10.3-.9-1.6 6.6-1.9-.1-1.4-3.1-.7 2.9-2-.2L34 25l1.9.2 1.4 3.1.7-2.9 2.1.2Zm2.2 2.1-1.9-.2.4-1.9 5.8.5-.4 1.9-1.9-.1-1.1 4.8-2.1-.2 1.2-4.8Zm3.5 5.2 1.6-6.7 2 .2-1.6 6.7-2-.2ZM56.5 27l-1.6 6.7-1.8-.1-1.5-3.1-.7 2.9-2-.2 1.6-6.7 1.8.2 1.5 3.1.7-2.9 2 .1Z"/>
  <path fill="#FEFEFE" fill-rule="evenodd" d="m61.7 27.5.9 6.9-2.2-.2-.1-.7-2.2-.2-.4.7-2.2-.2 4.1-6.5 2.1.2Zm-2.4 4 .9.1-.2-1.5-.7 1.4Z" clip-rule="evenodd"/>
  <path fill="#7358A4" d="M94.2 65 19 57.3l1-5.1 74.6 7.7-.4 5.1Z"/>
  <path fill="#FEFEFE" fill-rule="evenodd" d="M48.8 42.5c1 .1 2.1.3 1.3 3.6-.9 3-1.9 3-3.4 2.8h-.6l1.8-6.5.9.1Zm-.3.7-1.4 5c1.4.2 1.7-1.1 2-2.2.3-1 .8-2.7-.6-2.8Z" clip-rule="evenodd"/>
  <path fill="#FEFEFE" d="m50.7 49.4-.9-.1 1.8-6.5.9.1-1.8 6.5Zm1.3-6.9-.3-.3 1-1.2.5.5-1.2 1Z"/>
  <path fill="#FEFEFE" fill-rule="evenodd" d="m54.9 43.2-.5 6.6-.8-.1.1-1.3-1.3-.1-.5 1.2-.9-.1 3.2-6.3.7.1Zm-1 3.6.3-2.4-1.4 3.2 1 .2.1-1Zm5.1-3.2c1 .1 2.2.3 1.3 3.6-.9 3-1.9 3.1-3.4 2.9l-.6-.1 1.8-6.5.9.1Zm-.3.7-1.4 5.1c1.4.2 1.7-1.2 2-2.3.3-1 .8-2.7-.6-2.8Z" clip-rule="evenodd"/>
  <path fill="#FEFEFE" d="m64.1 44.2-.2.8-1.4-.2-.6 2 1.3.2-.2.7-1.3-.1-.6 2.2 1.4.2-.2.7-2.3-.2 1.8-6.6 2.3.3Zm1.3.1-1.6 5.8 1.4.2-.2.7-2.2-.2 1.7-6.5h.9ZM20.7 59l2-8.1 2.3.3-1.9 8-2.4-.2Zm12.5-7-1.9 8-2.1-.2-1.7-3.7-.8 3.5-2.4-.3 1.9-8 2.2.2 1.6 3.7.9-3.5 2.3.3Zm4 7.6-.6-.1-.9-2.5-.8 3.3-2.3-.2 1.9-8 2.2.2 1.2 3.3 2.7-2.9 2.1.2-1.9 8-2.3-.2.8-3.4-2.1 2.3Zm4.9 1.4 1.9-8 2.3.2-1.9 8-2.3-.2Zm10.7-4.1c-.2-.4-.433-.667-.7-.8a3.552 3.552 0 0 0-1-.3c-.467 0-.933.167-1.4.5-.4.333-.667.767-.8 1.3s-.067 1 .2 1.4c.267.4.633.6 1.1.6.267.067.533.033.8-.1.267-.067.433-.166.5-.3l.2-.2-1.5-.1.4-1.9 4.1.4-.4 1.6c-.3.9-.9 1.6-1.4 2a3.91 3.91 0 0 1-.9.5 3.91 3.91 0 0 1-.8.3c-.267.067-.5.1-.7.1h-.9c-1.133-.133-2-.633-2.6-1.5-.6-.867-.767-1.9-.5-3.1.267-1.133.9-2.067 1.9-2.8 1-.733 2.067-1.033 3.2-.9 1.533.133 2.6.9 3.2 2.3l-2 1Z"/>
  <path fill="#FEFEFE" fill-rule="evenodd" d="m61.7 62.9-2.9-.3-1.1-2.1-.3-.1-.4 2-2.4-.2 1.9-8 3.3.3s.1 0 .6.1c.4.1.7.3 1.1.6.4.4.7.8.7 1.5.066.333.066.7 0 1.1-.267 1.133-.9 1.934-1.9 2.4l1.4 2.7Zm-3.3-6.3-.4 1.5.9.1c.4.067.666-.167.8-.7.1-.4-.1-.7-.4-.8l-.9-.1Zm10.7-1.2 1 8.3-2.5-.2-.1-.9-2.5-.2-.5.8-2.6-.3 4.9-7.7 2.3.2Zm-2.9 4.7 1 .1-.1-1.7-.9 1.6Z" clip-rule="evenodd"/>
  <path fill="#FEFEFE" d="m79.8 56.4-2 8-2.1-.2-1.7-3.7-.8 3.5-2.3-.2 1.9-8.1 2.1.2 1.7 3.8.8-3.5 2.4.2Zm2.5 2.6-2.2-.3.6-2.2 6.7.6-.6 2.3-2.2-.2-1.3 5.8-2.4-.3 1.4-5.7Zm7.8.7-.2.8 3.1.3-.5 2-3.1-.3-.2.7 3.4.3-.6 2.3-5.7-.5 2-8.1 5.6.6-.5 2.2-3.3-.3Z"/>
</svg>
