<svg xmlns="http://www.w3.org/2000/svg" width="68" height="75" fill="none" viewBox="0 0 68 75">
  <path fill="#006752" d="m3.28 2.68-.96 36.56 59.36.4 4-32-62.4-4.96Z"/>
  <path fill="#F49357" fill-rule="evenodd" d="m67.28 5.8-3.76 36.88L0 41.56 1.28 1l66 4.8Zm-1.6 1.76L3.28 2.6l-.96 36.56 59.44.4 3.92-32Z" clip-rule="evenodd"/>
  <path fill="#B36638" d="m67.12 5.8-1.76 1.76.32.08-.08.24 1.68-1.68v-.4h-.16Zm-5.36 33.44-.08.4h-.24l1.84 3.04h.24l.08-.4-1.84-3.04Zm-59.44 0v-.4L0 41.16v.4h.24l2.32-2.32h-.24Zm.96-36.56h.4L1.76 1h-.48v.16l2 1.68v-.16Z"/>
  <path fill="#004B3A" d="M65.68 7.64 3.28 2.68v.8l60 5.68-9.04 30.4 7.44.08 1.44-13.92 2.56-18.08Z" opacity=".6"/>
  <path fill="#050505" d="M18.3 71.4c0 1.8 6.7 3.3 15.1 3.4 8.3.1 15.1-1.2 15.1-3 0-1.7-6.7-3.3-15-3.4-8.4-.1-15.1 1.3-15.2 3Z" opacity=".2"/>
  <path fill="#9F4B38" d="M38.9 51.2h1l.3-17.9h-1l-.3 17.9Zm3.2 2.5 4.1 20.1h-1.3l-4.4-20.3m-.5.1 2.8 20.1h-.9L39 53.4m-11.5.5-2.7 19.6h.9l2.9-19.8m-3.2.2-4.1 19.5 1.3.1L27 53.7"/>
  <path fill="#050505" d="m42.1 53.6 4.1 20.1h-1.3l-4.4-20.3m-.5.1 2.8 20.2-.9-.1L39 53.3m-11.5.5-2.7 19.6h.9l2.9-19.7m-3.2.1-4.1 19.6h1.3L27 53.6" opacity=".3"/>
  <path fill="#9F4B38" d="M28.7 51h1l.3-17.8h-1L28.7 51Z"/>
  <path fill="#C27A70" d="M20.1 50.3s.7 3.9 4.3 4c3.6 0 20.7.3 20.7.3s3.8-.2 3.8-3.7"/>
  <path fill="#FEFEFE" d="M47.9 38.3c-3.6-2.6-12.8-8.3-26.4-9.1V28l26.5.4-.1 9.9Z" opacity=".2"/>
  <path fill="#9F4B38" d="m23.7 67 20.6.3.1-.8-20.6-.3-.1.8Zm.1-2.9 20.6.2v-.8l-20.6-.2v.8Z"/>
  <path fill="#050505" d="m23.7 67 20.6.3.1-.8-20.6-.3-.1.8Zm.1-2.9 20.6.2v-.8l-20.6-.2v.8Z" opacity=".3"/>
  <path fill="#8A181B" d="M22.7 39.8c0 2.8 2.3 5.2 5.2 5.3l13.3.1c2.9.1 5.3-2.2 5.3-5.1l.1-7.8c.1-2.9-2.3-5.3-5.2-5.3l-13.3-.2c-2.9 0-5.2 2.3-5.3 5.2l-.1 7.8Z"/>
  <path fill="#050505" fill-rule="evenodd" d="m22.3 39.7.1-7.7c.1-3.1 2.6-5.6 5.7-5.6l13.4.2c3.1.1 5.5 2.6 5.5 5.7l-.1 7.8c0 3.1-2.6 5.6-5.7 5.5l-13.3-.1c-3.1-.1-5.6-2.6-5.6-5.8Zm5.8-12.5c-2.6 0-4.8 2.1-4.9 4.8l-.1 7.8c0 2.6 2.1 4.8 4.8 4.9l13.3.2c2.7 0 4.9-2.2 4.9-4.8l.1-7.8c.1-2.7-2.1-4.9-4.8-4.9l-13.3-.2Z" clip-rule="evenodd"/>
  <path fill="#050505" d="M26.5 49.4s.4 1-1.6 1.7l8.4.2.1-1.8-6.9-.1Z"/>
  <path fill="#050505" fill-rule="evenodd" d="M24.6 51.2c-.1-.2 0-.3.2-.4 1.2-.5 1.4-1 1.3-1.3-.067-.067-.067-.167 0-.3.133-.133.267-.2.4-.2l6.9.1c.067 0 .133.033.2.1.133.067.2.167.2.3l-.1 1.8c0 .2-.1.3-.4.3l-8.4-.1c-.1 0-.3-.1-.3-.3Zm8.4-1.3-6.1-.1c0 .133-.033.233-.1.3-.133.267-.3.5-.5.7l6.7.1v-1Z" clip-rule="evenodd"/>
  <path fill="#050505" d="M43.3 49.6s-.5 1 1.4 1.8l-8.4-.1.1-1.8 6.9.1Z"/>
  <path fill="#050505" fill-rule="evenodd" d="M36 51.3v-1.8c0-.067.033-.167.1-.3.067-.067.167-.1.3-.1l6.9.1c.133 0 .233.067.3.2a.425.425 0 0 1 0 .4c-.1.2.1.8 1.3 1.3.2 0 .3.2.2.4 0 .2-.2.3-.4.3l-8.4-.1c-.2 0-.3-.2-.3-.4Zm6.9-.9a.888.888 0 0 0-.1-.4l-6.1-.1v1l6.7.1c-.2-.2-.367-.4-.5-.6Z" clip-rule="evenodd"/>
  <path fill="#D8985E" d="m43.2 42.6 1.1-.5c.1-.7.5-1.3 1.2-1.6 1.1-.5 2.4.1 2.9 1.2.4 1.1-.1 2.4-1.2 2.9-.9.4-1.9 0-2.5-.7a1.161 1.161 0 0 1-.3.2c-.3.1-.6 0-.7-.3l-.5-1.2Z"/>
  <path fill="#050505" fill-rule="evenodd" d="M44.7 44.4h-.1c-.267.133-.5.166-.7.1-.3-.1-.5-.3-.5-.5-.1 0-.5-1.2-.6-1.3l-.1-.3 1.2-.6c.2-.7.8-1.3 1.5-1.6.6-.3 1.3-.3 1.9 0 .7.2 1.2.7 1.4 1.3.6 1.4 0 2.9-1.3 3.4-.333.133-.667.2-1 .2-.6 0-1.3-.2-1.7-.7Zm1-3.5c-.6.2-.9.7-1.1 1.3v.2l-.9.4c.2.4.4.9.4.9.067.066.133.066.2 0 .067 0 .1-.034.1-.1l.3-.3.3.3c.5.7 1.4.9 2.1.6.9-.4 1.3-1.4.9-2.3-.2-.5-.5-.8-1-1-.2-.133-.4-.2-.6-.2-.267 0-.5.066-.7.2Z" clip-rule="evenodd"/>
  <path fill="#D8985E" d="m25.8 42.3-1-.5c-.1-.7-.6-1.3-1.3-1.6-1-.5-2.3 0-2.8 1.1s-.1 2.4 1 2.9c.9.4 2 .2 2.6-.6l.2.2c.3.1.7 0 .8-.2l.5-1.3Z"/>
  <path fill="#050505" fill-rule="evenodd" d="M21.6 44.6c-1.3-.6-1.9-2.1-1.3-3.4.3-.7.8-1.1 1.5-1.4.6-.2 1.3-.2 1.9.1.7.3 1.2.9 1.4 1.7l1.3.5-.2.4-.6 1.2c-.1.3-.3.4-.5.5-.267.067-.5.067-.7 0l-.1-.1c-.5.5-1.1.7-1.7.7-.333 0-.667-.067-1-.2Zm3-1.2.1.1h.2v-.1s.3-.5.4-.9l-.9-.4v-.2c-.1-.6-.5-1.1-1-1.3-.4-.2-.9-.2-1.4-.1-.4.2-.8.5-1 1-.4.9 0 2 .9 2.4.7.3 1.6.1 2.1-.5l.3-.4.3.4Z" clip-rule="evenodd"/>
  <path fill="#2B6EB6" d="m26.3 42.8-.1 6.5 7.9.7 1.2-6.4"/>
  <path fill="#050505" d="M34.1 50.4c.2 0 .3-.1.4-.3l1.2-6.4c0-.3-.1-.5-.3-.5-.2 0-.5.1-.5.3l-1.1 6.1-7.2-.6.1-6.1c0-.3-.2-.4-.4-.4s-.4.1-.4.3l-.1 6.5c0 .2.1.4.3.4l8 .7Z"/>
  <path fill="#0A0C0F" d="M28.7 44.7h-2.1l-.1 4.5h2.1l.1-4.5Z" opacity=".3"/>
  <path fill="#2B6EB6" d="M43.6 43.1v6.5l-8 .5-1-6.5"/>
  <path fill="#050505" d="M35.6 50.4h.1l7.9-.5c.2 0 .3-.1.3-.3l.1-6.5c0-.2-.1-.4-.4-.4-.2 0-.3.2-.3.4l-.1 6.1-7.2.5-1-6.2c0-.2-.2-.3-.5-.3-.2 0-.3.2-.3.4l1 6.5c.1.2.2.3.4.3Z"/>
  <path fill="#0A0C0F" d="M41.2 44.9h2.1l-.1 4.5h-2.1l.1-4.5Z" opacity=".3"/>
  <path fill="#F5F6F7" d="M42.2 32.8c-3 1.2-1.9 3.7-1.9 3.7l2.6 6.7 6-2.5-2.8-6.7s-.7-2.4-3.9-1.2Z"/>
  <path fill="#050505" fill-rule="evenodd" d="m42.7 43.6-.2-.2-2.5-6.7c-.1-.2-.5-1.2-.1-2.3.334-.867 1.067-1.5 2.2-1.9 1.2-.534 2.2-.567 3-.1 1 .4 1.3 1.3 1.4 1.5l2.8 6.6c.1.2 0 .5-.2.5L43 43.6h-.3Zm3.1-9.4-.1-.1s-.2-.7-.9-1.1c-.6-.267-1.4-.2-2.4.2-.933.333-1.5.833-1.7 1.5-.4.8 0 1.6 0 1.6v.1l2.4 6.3 5.3-2.2-2.6-6.3Z" clip-rule="evenodd"/>
  <path fill="#DFDFDF" d="m48.4 40.6-1.3.6-3.2-8.5 1.5.2 3 7.7Z" style="mix-blend-mode:multiply"/>
  <path fill="#F5F6F7" d="M27.1 32.6c2.9 1.3 1.8 3.8 1.8 3.8L26.1 43l-5.9-2.7 2.9-6.6s.8-2.4 4-1.1Z"/>
  <path fill="#050505" fill-rule="evenodd" d="m26 43.4-6-2.8c-.2 0-.3-.3-.2-.5l3-6.6c0-.1.4-1 1.4-1.4.8-.4 1.8-.333 3 .2 1.067.467 1.767 1.1 2.1 1.9.4 1.1 0 2.2-.1 2.3l-2.7 6.7-.2.2H26Zm.9-10.4c-1-.467-1.8-.533-2.4-.2-.7.3-1 1-1 1v.1l-2.8 6.2 5.2 2.4 2.6-6.3s.4-.8.1-1.7c-.267-.6-.833-1.1-1.7-1.5Z" clip-rule="evenodd"/>
  <path fill="#DFDFDF" d="m20.6 40.2 1.3.6 3.5-8.4-1.5.2-3.3 7.6Z" style="mix-blend-mode:multiply"/>
  <path fill="#F5F6F7" d="M35.1 37.1s9.9-8.4 9.7-4.8c-.4 5.4 1.6 13.2 1.8 14.1-.6.7-2.6-.2-4.8.1-2.3.3-4.3.6-5.7.7-2.7.1-5.5-.5-8.2-1-2.2-.4-4.9-.1-4.8-.3.2-1 2.1-13.6 2.1-13.6l3.5-.3"/>
  <path fill="#050505" d="M35.3 47.6h.8c1-.1 2.3-.2 3.7-.4a20.715 20.715 0 0 1 2-.3c1-.1 1.9 0 2.7.1 1.1.1 1.9.2 2.4-.4.067-.067.1-.167.1-.3 0-.067-.033-.2-.1-.4-1.4-5.8-2-10.4-1.8-13.6.1-.7-.2-1-.5-1.2-.5-.2-1.7-.3-5.7 2.6-2.1 1.5-4.1 3.1-4.1 3.1-.2.1-.2.4 0 .6.1.1.3.1.5 0 0 0 1.9-1.6 4-3.1 3.9-2.8 4.8-2.5 5-2.5.1.1.1.3.1.4-.2 3.4.4 8 1.7 13.9.067 0 .1.033.1.1-.3.1-1 .1-1.6 0-.8-.1-1.8-.2-2.9-.1a20.9 20.9 0 0 1-2 .3c-1.4.2-2.7.4-3.6.4-2.5.1-5.1-.4-7.7-.9-.133-.067-.3-.1-.5-.1-1.3-.2-2.7-.2-3.7-.2h-.7c.4-2.1 1.8-11.1 2.1-12.9l3.1-.3c.2 0 .4-.2.4-.4-.1-.2-.2-.4-.5-.3l-3.4.2c-.2 0-.3.2-.4.3 0 .2-1.9 12.6-2.1 13.6 0 .133.033.233.1.3.2.2.4.2 1.4.2 1 0 2.4 0 3.6.3.133 0 .3.033.5.1 2.3.4 4.7.9 7 .9Z"/>
  <path fill="#F5F6F7" d="m41.6 33.5 2.3-2.1-2.1-.1-16.4-.2.5 2.1s3.8 2.9 3.9 2.9c.1 0 11.6.2 11.6.2l.2-2.8Z"/>
  <path fill="#9FC8EA" d="m35.1 37.8.5-.2 1.9-3.8 1-2.5h-3.2l-2.9-.1.4 2.5 2.3 4.1Z"/>
  <path fill="#678BAD" d="m35.3 37.5-2.6-3.7h.8l2.1 3-.3.7Z" opacity=".5"/>
  <path fill="#F5F6F7" d="m37.5 33.8 2.4 1.7-2.1.5.5.5-2.9 1.8-.1-.8 1.7-2.8.5-.9Z"/>
  <path fill="#050505" fill-rule="evenodd" d="m35.3 38.4-.1-.1v-.8c-.067-.066-.067-.1 0-.1l1.6-2.8.5-.9.1-.1c.067 0 .133.034.2.1l2.4 1.7c.067.067.1.134.1.2-.067.067-.133.1-.2.1l-1.7.4.3.3v.1c0 .067-.033.134-.1.2l-2.9 1.7c0 .067-.033.1-.1.1l-.1-.1Zm2.4-2.2c-.067-.066-.1-.133-.1-.2l.2-.2 1.6-.4-1.9-1.3-.3.7-1.7 2.7.1.4 2.4-1.4-.3-.3Z" clip-rule="evenodd"/>
  <path fill="#F5F6F7" d="M32.7 33.8 30.6 36l2.7.2-.6.8 2.6 1.2v-.6l-2.6-3.8Z"/>
  <path fill="#050505" fill-rule="evenodd" d="m35.3 38.3-2.7-1.1c-.067-.066-.1-.133-.1-.2v-.1l.4-.5-2.4-.2c-.067 0-.1-.033-.1-.1-.067-.066-.067-.133 0-.2l2.1-2.3h.2c.067 0 .1.034.1.1l2.7 3.8v.8c-.067.067-.133.1-.2.1v-.1Zm-2.6-4.2L31 35.8l2.3.2c.067 0 .1.034.1.1.067.067.067.134 0 .2l-.4.6 2.1 1v-.2l-2.4-3.6Z" clip-rule="evenodd"/>
  <path fill="#050505" d="M34.1 44.7c0 .3.2.5.5.5s.6-.2.6-.5-.3-.6-.6-.6c-.2 0-.5.3-.5.6Zm-.2-2.4c0 .3.3.6.6.6s.5-.3.5-.6-.2-.5-.5-.5-.5.2-.6.5Zm-.1-2.3c0 .3.2.5.5.5s.5-.2.5-.5c.1-.3-.2-.5-.5-.5s-.5.2-.5.5Z"/>
  <path fill="#DFDFDF" d="m23.1 45.8 1.5-12 1.6.3-1.5 11.6-1.6.1Z" style="mix-blend-mode:multiply"/>
  <path fill="#FEFEFE" d="M36 47.2s-.7-7-.6-9Z"/>
  <path fill="#050505" d="M36 47.4c.1 0 .2-.1.2-.2s-.7-7-.6-9c0-.1-.1-.2-.2-.2s-.2.1-.2.2c0 2 .6 8.7.6 9 0 .1.1.2.2.2Z"/>
  <path fill="#ED2D2F" d="M24.4 38.4c3.1-2.2 2.6-5.8 2.6-5.8l-1.6-1.5-1 7.3Z"/>
  <path fill="#050505" fill-rule="evenodd" d="m25.1 30.4 2.3 2v.2s.1.9-.2 2.2c-.2 1.1-.9 2.7-2.6 3.9l-.7.5 1.2-8.8Zm.5 1.5-.8 5.7a5.94 5.94 0 0 0 1.6-2.9c.2-.9.2-1.6.2-1.9l-1-.9Z" clip-rule="evenodd"/>
  <path fill="#ED2D2F" d="M45.2 39.3c-2.6-2.6-2.5-5.9-2.5-5.9s.5-1.4 2.1-1.3c-.5 2.3.4 7.2.4 7.2Z"/>
  <path fill="#050505" fill-rule="evenodd" d="M44.9 39.5c-2.6-2.6-2.5-6-2.5-6.1v-.1c.2-.6 1-1.6 2.5-1.6l.2.2c.067.067.1.167.1.3-.5 2.2.3 7 .3 7 0 .2 0 .3-.2.4h-.2c-.067 0-.133-.033-.2-.1Zm-1.8-6c0 .4.1 2.6 1.5 4.6-.2-1.5-.4-4-.2-5.6-.9.1-1.2.8-1.3 1Zm-1.3 8.2.1-1.9c0-.1.1-.2.2-.2l5.2.1h.1c.067.067.1.133.1.2l-.1 1.9c0 1.7-1.1 2.8-2.8 2.8-1.7 0-2.8-1.1-2.8-2.9Zm.5-1.7-.1 1.7c0 1.8 1.2 2.5 2.4 2.5 1.1 0 2.4-.6 2.4-2.4l.1-1.8h-4.8Z" clip-rule="evenodd"/>
  <path fill="#EC272B" d="m47.3 40.8-5.3-.1Z"/>
  <path fill="#050505" d="m42 40.9 5.3.1v-.4H42v.3Z"/>
  <path fill="#050505" fill-rule="evenodd" d="M22 41.5v-2.1c.067-.067.133-.1.2-.1l5.2.1c.1 0 .2.1.2.2l-.1 1.9c0 1.8-1.1 2.9-2.8 2.8-1.7 0-2.7-1.1-2.7-2.8Zm.4-1.8v1.8c0 1.8 1.2 2.4 2.3 2.5 1.2 0 2.4-.7 2.5-2.5v-1.7l-4.8-.1Z" clip-rule="evenodd"/>
  <path fill="#050505" d="M22.1 40.7h5.3v-.3l-5.3-.1v.4Zm27.7-20.9s2.1-4.4 2 .1c-.2 5.8-3.3 8-3.3 8l1.3-8.1ZM20 19.4s-2-4.5-2 .1c0 5.7 3.1 8 3.1 8L20 19.4Z"/>
  <path fill="#BE8755" d="M35 6.1h.5c7.9.3 14.6 5.4 14.4 15.8-.2 6.2-3.6 13.5-15 13.1-11.5.1-14.7-7.3-14.7-13.5.1-10.4 6.9-15.3 14.8-15.4Z"/>
  <path fill="#050505" fill-rule="evenodd" d="M27.6 34.1c-1.867-.733-3.4-1.833-4.6-3.3a12.004 12.004 0 0 1-2.5-4.4c-.467-1.533-.7-3.166-.7-4.9 0-2.5.5-4.9 1.3-6.9.8-1.933 1.9-3.566 3.3-4.9 1.4-1.266 3-2.266 4.8-3 1.733-.6 3.567-.933 5.5-1h1.2v.1c1.933.067 3.733.434 5.4 1.1 1.8.734 3.367 1.767 4.7 3.1 1.4 1.4 2.467 3.067 3.2 5 .8 2 1.1 4.4 1.1 6.9-.067 1.734-.367 3.334-.9 4.8-.533 1.733-1.367 3.233-2.5 4.5-1.267 1.4-2.833 2.434-4.7 3.1-2.1.8-4.6 1.1-7.3 1h-.6c-2.533 0-4.767-.4-6.7-1.2Zm7.3.5c5.1.2 8.9-1.1 11.5-3.9 2.5-2.8 3.1-6.3 3.2-8.8.1-11-7.2-15.2-14.1-15.5H35c-6.9.1-14.3 4.1-14.5 15.1 0 2.5.6 6 3 8.9 2.5 2.8 6.3 4.3 11.4 4.2Z" clip-rule="evenodd"/>
  <path fill="#A37448" d="M28.7 17.1 48 21.6s-13.5.4-19.4-2.8c0 0-3.3 2.7-6.7 2.1-4.8-.9 5-8.9 5-8.9"/>
  <path fill="#DFDFDF" d="M22.7 20.6s-1.1 13 12.7 14.4c1.3.1-15.9 1.4-15.6-14.5.3-15.9 2.5-.6 2.5-.6" style="mix-blend-mode:multiply"/>
  <path fill="#A37448" d="M33 26.2s.7 1.3 2.2 1.3c1.4.1 2.3-1.4 2.3-1.4s-1.6.7-2.2.7c-.7 0-2.3-.6-2.3-.6Z"/>
  <path fill="#050505" d="M35.3 27c.267 0 .5-.034.7-.1l1.4-.5c.1-.1.2-.2.1-.3 0-.1-.1-.2-.3-.2l-1.3.6c-.3.1-.9.1-1.2-.1l-1.4-.5c-.1-.1-.2 0-.3.1 0 .1 0 .3.1.3l1.4.6c.267.067.533.1.8.1Zm-10.5-4.8c.1 0 .2-.1.3-.2.3-.9 1.3-1.4 2.2-1 .333.066.567.233.7.5.1.1.3.1.5 0 .1-.1.1-.3 0-.4a4.653 4.653 0 0 0-.9-.7c-1.2-.4-2.6.2-3.1 1.4 0 .1 0 .3.2.3 0 .066.033.1.1.1Zm20.4 2.3c0 .7-.4 1.3-.9 1.3s-.9-.6-.9-1.4c0-.7.4-1.3.9-1.3s.9.6.9 1.4Z"/>
  <path fill="#FEFEFE" d="M43.7 24c0 .1.1.2.2.2s.2-.1.2-.2-.1-.3-.2-.3-.2.1-.2.3Z"/>
  <path fill="#050505" d="M25.6 24.2c0 .8.3 1.4.8 1.4s.9-.6 1-1.4c0-.7-.4-1.3-.9-1.4-.5 0-.9.6-.9 1.4Z"/>
  <path fill="#FEFEFE" d="M26 23.7c0 .2.1.3.2.3s.2-.1.2-.3c0-.1-.1-.2-.2-.2s-.2.1-.2.2Z"/>
  <path fill="#050505" d="M22.9 5.9s2-1.3.2-2.9c0 0 1.6-.1 1.9.8.2-1.1 1.1-3 4.4-3.8 0 0-1.9 2-.1 2.3m18.9 5.8s4.2 3.4 4.9 9.6c0 .3-.4-1.8-2.5-4"/>
  <path fill="#050505" d="M36.6 1.5s12.4-.8 16 17.3c0 0-.1.5-1 1-1.1.7-1.9 1.3-3 1.6.3-1.3.4-3.8-3.2-7.3 0 0 3.4 4.3 2.3 7.5-11.9 2.8-18.6-4.1-18.6-4.1.4 0-2.2 2.9-6.7 3.2-.7-3.7 1.5-7 1.5-7-2 2.8-2.5 5.9-2.2 6.9-.8.2-2.9.2-4.1-.3 0 0-1.1-19.7 19-18.8Z"/>
  <path fill="#050505" d="M28.8 3.2s-9.3.3-11.1 11.1c0 0 2.6-5.4 11.1-11.1Zm7.8-1.7S47.3.6 53 13.5c0 0-8-7.1-16.4-12Zm1.7 31.2c-1.1.6-2.5 1.1-5.4.4-3.4-.9-3.6-3.6-2.6-4.3.8-.5 3 .8 5.4.1 1.5-.4 3.6-1.8 4.8-.3 1.4 1.7-1.1 3.7-2.2 4.1Z"/>
  <path fill="#050505" fill-rule="evenodd" d="M32.8 33.2c-1.7-.4-2.9-1.4-3.2-2.8-.1-.7.1-1.5.6-1.8.4-.3 1-.1 1.8 0 1.1.2 2.3.5 3.6.1.333-.067.7-.2 1.1-.4 1.4-.5 2.9-1.1 4 .2.4.466.533 1 .4 1.6-.3 1.3-1.9 2.5-2.7 2.8-.7.3-1.6.7-3.1.7-.6 0-1.5-.1-2.5-.4Zm5.5-.6c.7-.3 2.2-1.4 2.4-2.6.133-.467.033-.9-.3-1.3-.9-1-2.2-.5-3.6 0l-1 .4c-1.4.4-2.8.1-3.8-.1-.7-.1-1.3-.3-1.5-.1-.4.3-.6.8-.5 1.5.2 1.1 1.3 2.1 2.9 2.5 3 .7 4.3.1 5.4-.3Z" clip-rule="evenodd"/>
  <path fill="#EA2A2F" d="M38.4 32.5s-2.7 1.7-6.7 0c0 0 1-1 3.1-.9 2.4.1 3.6.9 3.6.9Z"/>
  <path fill="#050505" fill-rule="evenodd" d="m31.6 32.8-.3-.2.2-.2c.1-.1 1.2-1.1 3.3-1 2.4.1 3.7.9 3.7.9l.3.2-.3.2s-.7.5-1.9.7c-.4.067-.9.1-1.5.1-1 0-2.1-.2-3.5-.7Zm3.2-.9c-1.3-.1-2.2.3-2.6.6 1.8.7 3.3.6 4.3.4.6-.1 1.1-.2 1.4-.4-.6-.2-1.6-.6-3.1-.6Z" clip-rule="evenodd"/>
</svg>
