<svg xmlns="http://www.w3.org/2000/svg" width="81" height="16" fill="none" viewBox="0 0 81 16">
  <path fill="#ED4592" d="M80.1 12 0 14.4v-3.7l80.1-2.4V12Z"/>
  <path fill="#FEFEFE" fill-rule="evenodd" d="M15.8 1.4c.8 0 1.6 0 1.3 2.5-.3 2.3-1.1 2.4-2.2 2.5h-.5l.7-5h.7Zm-.2.6-.5 3.8c1.1 0 1.2-1 1.3-1.8.1-.8.3-2.1-.8-2Z" clip-rule="evenodd"/>
  <path fill="#FEFEFE" d="M18 6.3h-.7l.6-4.9.7-.1-.6 5Zm.3-5.1L18 1l.6-1 .4.3-.7.9Z"/>
  <path fill="#FEFEFE" fill-rule="evenodd" d="m20.4 1.3.5 4.9h-.7l-.1-.9h-.9l-.3 1h-.7l1.7-5h.5ZM20 4.1V2.3l-.7 2.5h.8l-.1-.7Z" clip-rule="evenodd"/>
  <path fill="#FEFEFE" d="m22.9 6.1-.6.1.6-5h.7l-.7 4.9Zm1.7-3.5-.1 1.7-.3 1.8h-.6l.6-4.9h.6l.7 3.7.1-2 .2-1.8h.7L25.9 6l-.7.1-.6-3.8v.3ZM28.8 1v.6H28L27.5 6h-.7l.6-4.3h-.8l.1-.6 2.1-.1Zm2 0-.1.6h-1.1l-.2 1.5h1l-.1.6h-.9l-.3 1.7 1.1-.1v.6l-1.8.1.7-5h1.7Z"/>
  <path fill="#FEFEFE" fill-rule="evenodd" d="M31.1 1h.8c.5-.1 1.2-.1 1.1 1.2-.1.4-.3 1.2-.9 1.3l.6 2.3-.6.1-.6-2.4-.3 2.4h-.7l.6-4.9Zm1.1 1.4c.1-.5.1-.9-.4-.9h-.1l-.2 1.7c.5 0 .7-.3.7-.8Z" clip-rule="evenodd"/>
  <path fill="#FEFEFE" d="M34.1 2.3 33.9 4l-.2 1.8h-.6l.6-4.9h.6l.7 3.7.1-2 .2-1.7.7-.1-.7 5h-.6L34.1 2v.3Z"/>
  <path fill="#FEFEFE" fill-rule="evenodd" d="m37.8.8.4 4.9h-.6l-.1-1-1 .1-.3.9-.6.1 1.7-5h.5Zm-.4 2.7V1.8l-.7 2.5h.8l-.1-.8Z" clip-rule="evenodd"/>
  <path fill="#FEFEFE" d="m41 1.4-.4-.2c-1 .1-1.1 1.4-1.2 2-.1.7-.2 1.9.7 1.9a.888.888 0 0 0 .4-.1l-.1.5a.68.68 0 0 1-.5.2c-1.4 0-1.3-1.4-1.2-2.4.1-1 .4-2.6 1.8-2.7.2 0 .4.1.5.2v.6Zm.4 4.2h-.7l.7-4.9h.6l-.6 4.9Z"/>
  <path fill="#FEFEFE" fill-rule="evenodd" d="M44.8 3c-.1.9-.4 2.6-1.6 2.6-1.3 0-1.1-1.6-1-2.5.1-.9.4-2.5 1.6-2.6 1.3 0 1.1 1.6 1 2.5Zm-1.9.1c-.1 1-.2 1.9.4 1.9.5 0 .6-.9.8-1.9.1-1.1.2-2-.4-1.9-.5 0-.7.8-.8 1.9Z" clip-rule="evenodd"/>
  <path fill="#FEFEFE" d="m46 2-.1 1.7-.3 1.8H45l.6-5h.6l.7 3.7.1-1.9.2-1.8h.7l-.7 4.9h-.6L46 1.7V2Z"/>
  <path fill="#FEFEFE" fill-rule="evenodd" d="m49.7.4.4 4.9h-.6l-.1-.9h-1l-.3 1h-.6l1.7-5h.5Zm-.4 2.8V1.4l-.7 2.5h.8l-.1-.7Z" clip-rule="evenodd"/>
  <path fill="#FEFEFE" d="m51.7.4-.6 4.3h1.1v.6h-1.8L51 .4h.7Z"/>
  <path fill="#FEFEFE" fill-rule="evenodd" d="M54.9.3c.8 0 1.7 0 1.4 2.5-.3 2.3-1.1 2.4-2.3 2.4h-.4l.6-4.9h.7Zm-.1.6-.5 3.8c1 0 1.1-1 1.2-1.9.1-.7.4-2-.7-1.9Z" clip-rule="evenodd"/>
  <path fill="#FEFEFE" d="M58.8.2v.5l-1.1.1-.2 1.5h.9v.6h-1l-.2 1.7 1.1-.1-.1.6h-1.8l.7-4.9h1.7ZM61 .1l-.6 4.4 1.1-.1V5h-1.8l.6-4.9h.7Z"/>
  <path fill="#FEFEFE" fill-rule="evenodd" d="m63.5 0 .5 4.9h-.7V4h-1L62 5h-.7L63 0h.5Zm-.3 2.8L63.1 1l-.7 2.5h.8v-.7ZM5.5 8.9l1.6 6.2H5l-.1-.6h-2l-.3.7-2 .1 3-6.3 1.9-.1Zm-1.8 3.8h.8l-.2-1.3-.6 1.3Z" clip-rule="evenodd"/>
  <path fill="#FEFEFE" d="m10.2 8.8-.5 4.4h2.6l-.2 1.7-4.5.1.7-6.2h1.9Zm4.4 6-1.9.1.7-6.2 4.5-.1-.2 1.7-2.6.1-.1.9 2.4-.1-.2 1.6-2.4.1-.2 1.9Z"/>
  <path fill="#FEFEFE" fill-rule="evenodd" d="m21.9 8.4 1.6 6.2h-2l-.2-.6-2 .1-.3.6-2 .1 3-6.3 1.9-.1Zm-1.8 3.9.9-.1-.3-1.3-.6 1.4Zm4 2.3.6-6.2 2.7-.1h.3c.067 0 .233.033.5.1.2 0 .4.067.6.2.133.133.267.3.4.5s.167.467.1.8c0 .467-.2.9-.6 1.3.467.266.667.7.6 1.3-.133 1.266-1.067 1.933-2.8 2l-2.4.1Zm2-1.8h.8c.267 0 .433-.133.5-.4 0-.2-.133-.3-.4-.3h-.8l-.1.7Zm.2-2h.8c.1 0 .3-.1.3-.4 0-.2-.1-.3-.2-.3h-.8l-.1.7Z" clip-rule="evenodd"/>
  <path fill="#FEFEFE" d="m32.2 9.9-.1.6 2.4-.1-.1 1.6-2.5.1v.5l2.6-.1-.2 1.8-4.5.1.7-6.2 4.5-.1-.2 1.7-2.6.1Zm4.9-.2-1.7.1.2-1.8 5.3-.1-.2 1.7-1.7.1-.5 4.4-1.9.1.5-4.5Zm3.8 4.4.7-6.2 1.8-.1-.6 6.2-1.9.1Zm5.3-1.9 2.3-.1-.1 1.8-4.9.1.1-1.5 2.6-3H44l.2-1.7 4.7-.2-.1 1.5-2.6 3.1Z"/>
  <path fill="#FEFEFE" fill-rule="evenodd" d="m53.6 7.5 1.6 6.2h-2l-.1-.6h-2l-.3.7h-2l2.9-6.2 1.9-.1Zm-1.7 3.8h.8l-.3-1.3-.5 1.3Z" clip-rule="evenodd"/>
  <path fill="#FEFEFE" d="M62.2 10.9c-.267.733-.733 1.367-1.4 1.9-.667.533-1.4.833-2.2.9-.933 0-1.667-.3-2.2-.9-.533-.6-.767-1.334-.7-2.2a4.137 4.137 0 0 1 1.2-2.4c.667-.6 1.467-.934 2.4-1 .8 0 1.467.233 2 .7.6.533.933 1.2 1 2h-2c-.067-.267-.2-.5-.4-.7a1.775 1.775 0 0 0-.8-.2c-.333 0-.667.133-1 .4a2.36 2.36 0 0 0-.5 1.1c0 .4.1.733.3 1 .2.266.5.4.9.4.267 0 .533-.1.8-.3.267-.133.467-.367.6-.7h2Zm.3 2.5.7-6.2h1.9l-.7 6.2h-1.9Z"/>
  <path fill="#FEFEFE" fill-rule="evenodd" d="M69.2 6.9c.933 0 1.667.3 2.2.9.6.6.834 1.367.7 2.3-.066.867-.466 1.633-1.2 2.3-.666.6-1.466.933-2.4 1-.933 0-1.666-.3-2.2-.9-.533-.6-.766-1.334-.7-2.2a4.137 4.137 0 0 1 1.2-2.4c.667-.6 1.467-.933 2.4-1Zm-.5 4.7c.4 0 .733-.134 1-.4.267-.334.433-.7.5-1.1.067-.4-.033-.733-.3-1-.2-.267-.5-.4-.9-.4-.333 0-.666.166-1 .5-.266.266-.433.6-.5 1 0 .4.1.733.3 1 .2.333.5.466.9.4Zm1.5-5.1h-1.9l1.1-1.6 2.1-.1-1.3 1.7Z" clip-rule="evenodd"/>
  <path fill="#FEFEFE" d="m78.9 6.8-.7 6.2h-1.7l-1.7-2.6-.3 2.7h-1.8l.6-6.2H75l1.7 2.6.3-2.7h1.9Z"/>
</svg>
