<svg xmlns="http://www.w3.org/2000/svg" width="1090" height="710" fill="none" viewBox="0 0 1090 710">
  <g class="febrero">
    <g class="banderines">
      <path fill="#050505" d="M656.107 3.237c-15.676 5.284-104.533 33.346-218.315 48.66-73.597 9.717-142.742 12.404-206.111 7.708C152.799 53.645 81.919 38.498 23.169 9.97l.871-2.193c-1-.774-2.29.322-1.902-1.032.548-1.065 1.935-1.645 3.225-1.031 58.073 28.333 127.34 45.706 205.77 51.535 62.918 4.568 131.772 2.041 204.918-7.804C560.476 32.78 655.172.528 655.979.27c.58-.322 1.258-.128 1.935.065" class="&lt;Path&gt;"/>
      <g class="&lt;Group&gt;">
        <path fill="#41BEB3" d="m541.29 25.583 8.79 46.958-18.541-7.746-10.293 16.348-10.983-46.121 31.027-9.44Z" class="&lt;Path&gt;"/>
      </g>
      <g class="&lt;Group&gt;">
        <path fill="#F5EC31" d="m468.595 40.684-6.529 46.728-26.885-39.192 33.414-7.536Z" class="&lt;Path&gt;"/>
      </g>
      <g class="&lt;Group&gt;">
        <path fill="#43C4DA" d="m395.254 52.916 1.115 43.054-18.474-13.099-13.55 14.928-5.05-41.25 35.959-3.633Z" class="&lt;Path&gt;"/>
      </g>
      <g class="&lt;Group&gt;">
        <path fill="#F5EC31" d="m319.917 58.472-20.687 47.562-19.496-47.091 40.183-.471Z" class="&lt;Path&gt;"/>
      </g>
      <g class="&lt;Group&gt;">
        <path fill="#EB2027" d="M604.698 10.51 594.33 61.268l-29.011-41.999 39.379-8.76Z" class="&lt;Path&gt;"/>
      </g>
      <g class="&lt;Group&gt;">
        <path fill="#C3D843" d="m244.517 57.416-10.367 45.631-13.185-16.226-12.936 13.637-2.502-45.892 38.99 2.85Z" class="&lt;Path&gt;"/>
      </g>
      <g class="&lt;Group&gt;">
        <path fill="#EF543A" d="m173.505 49.557-31.004 39.238-9.983-47.056 40.987 7.818Z" class="&lt;Path&gt;"/>
      </g>
      <g class="&lt;Group&gt;">
        <path fill="#91298E" d="M95.564 27.505 76.587 69.94l-10.99-20.482-20.482 10.99L61.091 17.4l34.472 10.105Z" class="&lt;Path&gt;"/>
      </g>
    </g>
    <g class="papelitos">
      <path fill="#F5EC31" d="M490.131 178.478c-.704 11.035-8.687 19.957-19.487 22.07 1.644-.47 5.401 8.452 7.279 7.982 10.8-1.878 18.782-10.8 19.487-21.835.235-2.582-7.513-5.634-7.279-8.217Zm-246.757 91.095c-10.565 0-19.487-7.043-22.07-17.374.469 1.878-7.748 5.635-7.278 7.513 2.583 10.331 11.504 17.374 22.069 17.374 2.583 0 4.931-7.513 7.279-7.513Z" class="papelito"/>
      <path fill="#DD4297" d="M996.556 154.53c-1.409 10.096-9.157 17.844-19.252 19.017 1.643-.234 4.46 7.983 6.339 7.748 10.095-1.174 17.847-8.921 19.017-18.782.47-2.348-6.339-5.635-6.104-7.983Z" class="papelito"/>
      <path fill="#30A2BB" d="M513.375 110.156c-10.565-1.878-18.548-10.33-19.722-21.13.235 1.878-8.686 4.46-8.452 6.339.939 10.8 8.922 19.487 19.487 21.13 2.582.47 6.339-6.808 8.687-6.339Z" class="papelito"/>
      <path fill="#7358A4" d="M137.722 64.14c-1.643 11.034-10.566 19.486-21.6 20.425 1.878 0 4.695 9.157 6.574 8.922 11.269-.94 20.191-9.391 21.835-20.426.469-2.583-7.044-6.574-6.809-8.922Z" class="papelito"/>
      <path fill="#7358A4" fill-rule="evenodd" d="M989.042 42.781c2.113 0 4.461-5.87 6.574-5.635 10.334.47 16.434 13.852 24.184 20.661 0-.156.08-.313.23-.47.47-3.99 4.93-10.095 9.86-12.678l.24-.234v.234c2.82-1.408 5.87-1.643 8.45.47 7.75 6.809-2.82 16.904-9.16 20.426.94 1.878 2.04 3.522 3.29 4.93 5.87 6.574 13.85 10.096 22.78 9.861-2.12 0-4.23 5.635-6.58 5.635-11.5.47-23.95-7.278-27.94-18.313-12.44-1.644-18.08-24.183-31.928-24.887Zm38.738 19.017c1.72.313 3.6.079 5.64-.704 2.34-5.635-.24-12.678-6.34-11.974-1.65 3.992-.94 8.452.7 12.678Z" class="papelito" clip-rule="evenodd"/>
      <path fill="#DD4297" fill-rule="evenodd" d="M625.6 20c-.235 1.878 5.166 4.696 4.931 6.574-1.409 9.626-14.322 14.322-21.366 21.13h.47c3.757.94 8.922 5.635 11.035 10.33 0 .157.078.314.234.47l-.234-.234c1.174 2.817 1.174 5.634-1.174 7.982-7.043 6.574-15.731-3.991-18.548-10.33a23.36 23.36 0 0 0-4.696 2.817c-6.808 4.696-10.799 12.209-11.269 20.426.235-2.113-4.93-4.46-4.695-6.574.469-10.8 8.686-22.07 19.486-24.887C602.122 36.434 623.957 32.913 625.6 20Zm-20.895 34.513c-.47 1.722-.391 3.522.235 5.4 5.165 2.817 11.739.94 11.739-4.93-3.522-1.644-7.983-1.644-11.974-.47Z" class="papelito" clip-rule="evenodd"/>
      <path fill="#F5EC31" d="M47.8 149.834c-.469-2.113 5.166-5.165 4.93-7.278-1.408-8.922-11.034-7.983-17.842-9.626-9.157-2.113-8.922-10.331-14.557-16.2.235.469-5.4 6.808-5.165 7.278 5.87 5.87 5.634 14.087 14.791 16.2 6.574 1.643 16.435.704 17.844 9.626Z" class="papelito"/>
      <path fill="#30A2BB" d="M149.461 207.826c-2.113-.705-1.643-7.279-3.756-8.218-8.453-3.287-12.914 5.635-17.844 10.8-6.574 6.809-13.617 2.348-21.834 4.226.469 0 3.286 8.453 3.756 8.218 8.217-1.878 15.261 2.582 21.835-4.461 4.93-4.93 9.391-14.087 17.843-10.565Z" class="papelito"/>
    </g>
    <g class="texto">
      <g class="letras">
        <g class="&lt;Group&gt;">
          <g class="&lt;Group&gt;">
            <path fill="#050505" fill-rule="evenodd" d="M740.173 243.227c9.548-11.113 22.149-17.53 37.801-19.252 15.652-1.722 29.348 1.8 41.087 10.565 11.739 8.765 18.391 20.348 19.956 34.748.705 6.339 3.522 12.209 2.348 18.313-.939 4.93-7.513 13.148-14.087 19.956-11.035 11.035-22.305 17.374-37.8 19.253-15.652 1.721-29.348-1.8-41.087-10.566-11.739-8.765-18.391-20.347-19.957-34.747-1.721-14.4 2.192-27.157 11.739-38.27Zm29.348 50.478c4.852 4.07 10.487 5.792 16.905 5.165 6.26-.782 11.347-3.678 15.26-8.687 3.913-5.008 5.479-10.8 4.696-17.373-.783-6.574-3.6-11.818-8.452-15.731-5.008-4.069-10.643-5.791-16.904-5.165-6.261.783-11.348 3.678-15.261 8.687-3.913 5.009-5.478 10.8-4.696 17.374.627 6.417 3.444 11.661 8.452 15.73Z" class="&lt;Compound Path&gt;" clip-rule="evenodd"/>
          </g>
          <g class="&lt;Group&gt;">
            <path fill="#2BAAE1" fill-rule="evenodd" stroke="#050505" stroke-linecap="round" stroke-linejoin="round" stroke-width="2.583" d="M785.722 211.766c15.652-1.722 29.348 1.8 41.087 10.565 11.739 8.765 18.391 20.348 19.956 34.748 1.566 14.244-2.347 27-11.739 38.27-9.547 11.113-22.148 17.53-37.8 19.252-15.652 1.722-29.348-1.8-41.087-10.565-11.739-8.766-18.391-20.348-19.956-34.748-1.722-14.244 2.191-26.922 11.739-38.035 9.548-11.113 22.148-17.609 37.8-19.487Zm8.452 74.896c6.261-.626 11.348-3.522 15.261-8.687 3.756-5.009 5.321-10.8 4.695-17.374-.782-6.418-3.599-11.661-8.451-15.731-4.853-4.069-10.488-5.791-16.905-5.165-6.261.783-11.348 3.678-15.261 8.687-3.913 5.009-5.478 10.8-4.696 17.374.626 6.417 3.444 11.739 8.453 15.965 5.008 4.07 10.643 5.713 16.904 4.931Z" class="&lt;Compound Path&gt;" clip-rule="evenodd"/>
          </g>
          <g class="&lt;Group&gt;">
            <g class="&lt;Group&gt;">
              <path fill="#175E97" fill-opacity=".2" d="M738.53 243.697c4.696 3.756 10.331 7.278 9.626 18.782-.704 8.218-5.869 16.905-16.669 20.661" class="&lt;Compound Path&gt;"/>
            </g>
          </g>
        </g>
        <g class="&lt;Group&gt;">
          <path fill="#050505" fill-rule="evenodd" d="m735.713 331.27-34.983-2.113c-.939 0-1.878-.47-2.348-1.174l-21.6-28.643h-.704l6.339 17.843c.235.47 0 .939-.235 1.174l-6.104 7.278c-.94.939-2.348 1.174-3.522 1.174l-33.574-1.878 7.044-100.017c0-.94.313-1.8.939-2.583l7.513-7.278c.156-.157.391-.157.704 0l37.096 10.33c.47 0 1.252.078 2.348.235.939 0 2.817.391 5.634 1.174 2.974.626 5.713 1.487 8.218 2.582 2.661.94 5.556 2.427 8.687 4.461 3.13 2.192 5.791 4.618 7.983 7.279 2.191 2.66 3.991 6.104 5.4 10.33 1.408 4.226 1.956 8.843 1.643 13.852-.939 14.087-7.435 23.948-19.487 29.583l32.165 25.122c.704.469.939 1.643.235 2.113l-6.105 7.982c-.939.705-2.112 1.174-3.286 1.174Zm-57.053-78.652-.938 18.548 12.208.704c2.504.157 4.539-.469 6.104-1.878 1.722-1.409 2.661-3.6 2.818-6.574.157-3.131-.47-5.557-1.878-7.278-1.566-1.722-3.601-2.661-6.105-2.818l-12.209-.704Z" class="&lt;Compound Path&gt;" clip-rule="evenodd"/>
        </g>
        <g class="&lt;Group&gt;">
          <path fill="#2BAAE1" fill-rule="evenodd" stroke="#050505" stroke-linecap="round" stroke-linejoin="round" stroke-width="2.583" d="m744.399 320.94-38.269-2.113-20.426-26.296-2.817-.235-1.409 24.887-31.696-1.643 5.87-99.783 43.434 2.583c1.174 0 2.583 0 8.218 1.408 5.635 1.409 10.565 3.053 16.904 7.279 6.104 4.226 10.566 8.921 13.383 17.374 1.252 4.226 1.721 8.921 1.408 14.087-.782 13.93-7.2 23.713-19.252 29.347l24.652 33.105Zm-58.93-75.131-.939 18.548 12.209.704c4.93.235 8.687-2.582 8.921-8.452.47-6.339-2.817-9.861-7.982-10.095l-12.209-.705Z" class="&lt;Compound Path&gt;" clip-rule="evenodd"/>
        </g>
        <g class="&lt;Group&gt;">
          <path fill="#050505" fill-rule="evenodd" d="m558.452 325.4-36.626-2.113c-.47 0-.861-.156-1.174-.469l-19.487-25.357-2.818-2.817 6.574 17.609c.235.469.001 1.174-.469 1.408l-7.983 7.983c-.626.313-1.252.47-1.878.47l-31.695-1.644c-.47-.235-.94-.704-.94-1.174l5.635-98.139.235-3.052c0-.705.704-1.174 1.878-2.113l7.513-5.87c.235-.235.47-.235.704-.235l36.627 10.566c.626.156 1.408.234 2.348.234.939.157 2.895.627 5.869 1.409a50.008 50.008 0 0 1 8.217 2.583c2.661.939 5.557 2.426 8.687 4.461 2.974 2.191 5.557 4.617 7.748 7.278 2.348 2.661 4.148 6.104 5.4 10.33 1.409 4.226 1.957 8.844 1.644 13.852-.783 13.931-7.201 23.792-19.253 29.583l30.287 26.061-5.635 8.687c-.234.235-.704.469-1.408.469Zm-57.287-77.478-1.174 18.548 12.209.704c2.504.157 4.617-.469 6.339-1.878 1.565-1.409 2.504-3.6 2.817-6.574.157-3.13-.547-5.556-2.113-7.278-1.408-1.722-3.365-2.661-5.869-2.817l-12.209-.705Z" class="&lt;Compound Path&gt;" clip-rule="evenodd"/>
        </g>
        <g class="&lt;Group&gt;">
          <path fill="#050505" d="M591.556 255.67v8.922h41.557l8.687 19.957c0 .469 0 .939-.469 1.173l-7.514 3.992c-.469.313-1.017.469-1.643.469h-40.618v8.452h45.079l7.043 23.244-7.043 9.626c-.47.313-1.018.47-1.644.47h-77.948c-.704 0-1.174-.47-1.174-1.174V230.079c0-.47.001-1.409.235-1.878.235-.705.705-.939 1.879-1.644 1.643-1.408 8.687-6.104 8.687-6.104.234-.235.939-.47 1.174-.235l68.791 6.574 8.687 22.304c.235.705 0 1.409-.705 1.644l-7.278 4.461c-.47.313-1.017.469-1.644.469h-44.139Z" class="&lt;Compound Path&gt;"/>
        </g>
        <g class="&lt;Group&gt;">
          <path fill="#050505" fill-rule="evenodd" d="m380.252 323.053-3.992-101.896c0-.469.079-.861.236-1.174l9.625-7.278c.47-.469.705-.469 1.174-.469l38.974 6.339h3.992c1.565 0 4.382.391 8.452 1.174 4.226.939 7.904 2.191 11.035 3.756 3.13 1.565 6.104 4.148 8.921 7.748 2.661 3.757 4.07 8.139 4.227 13.148.313 6.887-1.722 13.148-6.105 18.782-.704.94-.47 2.113.47 2.583 7.2 4.696 10.956 11.27 11.269 19.722.47 7.513 1.409 13.148-2.348 18.078-6.339 8.687-21.365 18.783-40.148 19.487l-43.904 1.643c-1.174 0-1.878-.704-1.878-1.643Zm33.104-66.913c0 .939.94 1.643 1.879 1.643l11.269-.469c.939 0 1.878-.391 2.818-1.174.939-.939 1.408-2.348 1.408-4.226-.157-2.035-.704-3.444-1.643-4.226-1.096-.626-2.114-.939-3.053-.939l-11.269.469c-.939 0-1.644.705-1.644 1.878l.235 7.044Zm1.409 32.87c0 .939.704 1.643 1.644 1.643l11.973-.47c4.383-.313 6.496-2.269 6.34-5.869-.157-3.131-2.427-4.618-6.809-4.461l-11.974.47c-.939 0-1.644.704-1.644 1.643l.47 7.044Z" class="&lt;Compound Path&gt;" clip-rule="evenodd"/>
        </g>
        <g class="&lt;Group&gt;">
          <path fill="#050505" d="M328.365 249.331v8.687l41.556 2.113 7.513 19.722c.235.704 0 1.409-.704 1.644l-6.339 3.756c-.626.313-1.33.47-2.113.47l-41.087-2.113-.469 8.452 45.078 2.113 7.278 21.6c0 .469.469 1.643 0 1.878l-8.687 9.391c-.939.47-1.878.626-2.817.47l-75.6-3.522a2.105 2.105 0 0 1-2.114-2.113l4.696-102.835 11.035-6.574c.705-.469.939-.234 1.409-.234l68.322 10.565 6.339 23.713-7.748 4.461c-.47.313-.939.469-1.409.469l-44.139-2.113Z" class="&lt;Compound Path&gt;"/>
        </g>
        <g class="&lt;Group&gt;">
          <path fill="#050505" d="m252.295 323.053-30.991 1.174c-1.174.235-1.878-.704-2.113-1.643L215.2 220.688c0-.469.157-.861.47-1.174l7.748-8.687c.234-.469.704-.469 1.173-.469l69.965 5.165 7.279 21.6-7.044 7.043c-.313.47-.783.705-1.409.705l-42.73 1.878.704 12.678 41.322-1.878 6.574 19.017-6.104 7.279c-.47.469-.939.704-1.643.704l-39.21 1.878 9.157 23.244c0 .469.235.469-.235.939l-7.513 11.504c-.234.705-.704.939-1.409.939Z" class="&lt;Compound Path&gt;"/>
        </g>
        <g class="&lt;Group&gt;">
          <path fill="#2BAAE1" fill-rule="evenodd" stroke="#050505" stroke-linecap="round" stroke-linejoin="round" stroke-width="2.583" d="m567.139 316.479-38.27-2.348-20.426-26.06-2.817-.235-1.409 24.887-31.696-1.879 5.87-99.547 43.435 2.582c1.174 0 2.347 0 8.217 1.409 5.635 1.409 10.565 3.052 16.904 7.278 6.105 4.226 10.566 8.922 13.148 17.374 1.409 4.226 1.957 8.844 1.644 13.852-.783 14.087-7.2 23.948-19.252 29.583l24.652 33.104Zm-58.931-75.13-1.174 18.548 12.209.704c5.166.235 8.922-2.583 9.157-8.687.469-6.104-2.818-9.626-7.983-9.861l-12.209-.704Z" class="&lt;Compound Path&gt;" clip-rule="evenodd"/>
        </g>
        <path fill="#175E97" fill-opacity=".2" d="M466.652 258.722c7.044 3.522 19.252 13.148 18.313 23.479-1.408 16.434-15.495 23.243-24.652 26.295-5.869 1.879-4.93-11.269-10.8-9.861" class="&lt;Compound Path&gt;"/>
        <g class="e">
          <path fill="#2BAAE1" stroke="#050505" stroke-linecap="round" stroke-linejoin="round" stroke-width="2.583" d="M599.304 249.331v9.627h41.557v25.591h-41.557v8.452h45.078v28.174h-76.773v-99.783h76.773v27.939h-45.078Z" class="&lt;Compound Path&gt;"/>
        </g>
        <path fill="#175E97" fill-opacity=".2" d="M581.461 322.818c0 .47-.235.939-.939 1.174 0 0-13.148.235-13.383-1.878-.469-3.287-5.165-49.07-5.165-49.07l19.487 49.774Z" class="&lt;Path&gt;"/>
        <g class="b">
          <g class="&lt;Group&gt;">
            <path fill="#2BAAE1" fill-rule="evenodd" stroke="#050505" stroke-linecap="round" stroke-linejoin="round" stroke-width="2.583" d="m391.521 313.427-3.991-99.548 46.018-2.113c.939 0 2.269.078 3.991.235 1.409 0 4.461.469 8.452 1.174 4.226.704 7.748 2.113 11.035 3.756 3.287 1.409 6.104 3.992 8.687 7.748 2.817 3.6 4.304 7.983 4.461 13.148.313 7.513-2.113 14.243-7.278 20.191 8.295 4.696 12.6 11.583 12.913 20.661.939 20.818-13.227 31.852-42.496 33.105l-41.792 1.643Zm29.114-62.217 13.147-.705c1.879 0 4.227-1.643 4.227-5.4-.235-3.991-2.818-5.165-4.696-5.165l-13.148.47.47 10.8Zm1.408 32.869 13.618-.469c4.382-.157 6.495-2.113 6.339-5.87-.157-3.13-2.426-4.617-6.809-4.461l-13.617.47.469 10.33Z" class="&lt;Compound Path&gt;" clip-rule="evenodd"/>
          </g>
        </g>
        <g class="e">
          <path fill="#2BAAE1" stroke="#050505" stroke-linecap="round" stroke-linejoin="round" stroke-width="2.583" d="m336.348 242.992-.47 9.391 41.557 2.113-1.174 25.592-41.557-2.113-.469 8.452 45.078 2.113-1.409 28.174-76.539-3.757 4.696-99.782 76.774 3.756-1.409 28.174-45.078-2.113Z" class="&lt;Compound Path&gt;"/>
        </g>
        <g class="f">
          <path fill="#2BAAE1" stroke="#050505" stroke-linecap="round" stroke-linejoin="round" stroke-width="2.583" d="m260.748 310.14-31.696 1.409-4.226-99.783 76.773-3.287 1.174 28.174-45.078 1.878.705 14.087 41.322-1.878 1.174 25.591-41.557 1.878 1.409 31.931Z" class="&lt;Compound Path&gt;"/>
        </g>
        <path fill="#175E97" fill-opacity=".2" d="M396.687 213.409c.469 0 .939.47.939.939-.939 7.279-8.217 78.653-8.452 79.827-1.174 3.756-5.4-17.609-5.4-17.609s1.174-.704 1.409-2.818c0-3.286 2.817-60.573 2.817-60.573l8.687.234Zm257.322 102.6c.469 0 3.052-.234 3.052-.704 0-7.278-2.113-78.182-2.348-79.591-.704-3.757-5.869 15.965-5.869 15.965s1.173.939.939 3.052c-.235 3.052-.235 60.809-.235 60.809l4.461.469Zm-350.531-99.782c.939 0 3.757 3.992 3.757 4.931l3.521 60.574c0 .469-.469.939-.939.939l-25.122 1.878s17.14-6.339 17.375-8.452c0-3.287-.235-57.522-.235-57.522l1.643-2.348Z" class="&lt;Path&gt;"/>
      </g>
      <g class="brillos">
        <g class="&lt;Group&gt;">
          <g class="&lt;Group&gt;">
            <path fill="#AAD5F1" d="M823.052 228.202c0 .939-.704 1.408-1.409 1.408-.704 0-1.408-.469-1.408-1.408 0-.705.704-1.174 1.408-1.174.705 0 1.409.469 1.409 1.174Z" class="&lt;Path&gt;"/>
          </g>
          <g class="&lt;Group&gt;">
            <path stroke="#AAD5F1" stroke-linecap="round" stroke-linejoin="round" stroke-width="2.583" d="M800.513 291.592c8.452-1.408 15.496-8.687 16.905-14.556" class="&lt;Path&gt;"/>
          </g>
          <g class="&lt;Group&gt;">
            <path stroke="#AAD5F1" stroke-linecap="round" stroke-linejoin="round" stroke-width="2.583" d="M815.304 223.975c-5.87-5.635-26.061-7.748-34.044-3.991" class="&lt;Path&gt;"/>
          </g>
        </g>
        <g class="&lt;Group&gt;">
          <g class="&lt;Group&gt;">
            <path stroke="#AAD5F1" stroke-linecap="round" stroke-linejoin="round" stroke-width="2.583" d="m516.895 219.514-28.408-1.878" class="&lt;Path&gt;"/>
          </g>
          <g class="&lt;Group&gt;">
            <path stroke="#AAD5F1" stroke-linecap="round" stroke-linejoin="round" stroke-width="2.583" d="M521.826 266.236c7.982-1.174 11.269-5.869 11.974-11.739" class="&lt;Path&gt;"/>
          </g>
        </g>
        <g class="&lt;Group&gt;">
          <g class="&lt;Group&gt;">
            <path stroke="#AAD5F1" stroke-linecap="round" stroke-linejoin="round" stroke-width="2.583" d="m694.626 223.505-28.174-1.878" class="&lt;Path&gt;"/>
          </g>
          <g class="&lt;Group&gt;">
            <path stroke="#AAD5F1" stroke-linecap="round" stroke-linejoin="round" stroke-width="2.583" d="M699.556 270.226c8.217-1.173 11.27-5.634 11.974-11.739" class="&lt;Path&gt;"/>
          </g>
        </g>
        <g class="&lt;Group&gt;">
          <g class="&lt;Group&gt;">
            <path stroke="#AAD5F1" stroke-linecap="round" stroke-linejoin="round" stroke-width="2.583" d="m433.548 217.166-30.288 1.174" class="&lt;Path&gt;"/>
          </g>
          <g class="&lt;Group&gt;">
            <path stroke="#AAD5F1" stroke-linecap="round" stroke-linejoin="round" stroke-width="2.583" d="M433.078 256.14c6.809-.939 9.627-4.461 10.331-9.391" class="&lt;Path&gt;"/>
          </g>
          <g class="&lt;Group&gt;">
            <path stroke="#AAD5F1" stroke-linecap="round" stroke-linejoin="round" stroke-width="2.583" d="M437.07 288.775c6.809-.705 9.626-4.461 10.33-9.392" class="&lt;Path&gt;"/>
          </g>
        </g>
        <g class="&lt;Group&gt;">
          <g class="&lt;Group&gt;">
            <path stroke="#AAD5F1" stroke-linecap="round" stroke-linejoin="round" stroke-width="2.583" d="m348.79 221.157 26.531 1.174c.939 0 1.643.705 1.643 1.409l-.469 6.339" class="&lt;Path&gt;"/>
          </g>
          <g class="&lt;Group&gt;">
            <path stroke="#AAD5F1" stroke-linecap="round" stroke-linejoin="round" stroke-width="2.583" d="m336.347 308.496-26.531-1.409c-.939 0-1.643-.704-1.643-1.408l.94-6.339" class="&lt;Path&gt;"/>
          </g>
          <g class="&lt;Group&gt;">
            <path stroke="#AAD5F1" stroke-linecap="round" stroke-linejoin="round" stroke-width="2.583" d="m330.243 252.148.939-9.86" class="&lt;Path&gt;"/>
          </g>
        </g>
        <g class="&lt;Group&gt;">
          <g class="&lt;Group&gt;">
            <path stroke="#AAD5F1" stroke-linecap="round" stroke-linejoin="round" stroke-width="2.583" d="m265.912 215.053 27.94-1.174c.939-.235 1.643.47 1.643 1.174l.235 6.574" class="&lt;Path&gt;"/>
          </g>
          <g class="&lt;Group&gt;">
            <path stroke="#AAD5F1" stroke-linecap="round" stroke-linejoin="round" stroke-width="2.583" d="m242.904 303.801-7.044.234c-.704.235-1.408-.469-1.643-1.408v-6.339" class="&lt;Path&gt;"/>
          </g>
          <g class="&lt;Group&gt;">
            <path stroke="#AAD5F1" stroke-linecap="round" stroke-linejoin="round" stroke-width="2.583" d="m252.295 252.618-.469-14.321" class="&lt;Path&gt;"/>
          </g>
        </g>
        <g class="&lt;Group&gt;">
          <g class="&lt;Group&gt;">
            <path stroke="#AAD5F1" stroke-linecap="round" stroke-linejoin="round" stroke-width="2.583" d="M601.887 226.792h-26.531c-.939 0-1.643.47-1.643 1.409v6.339" class="&lt;Path&gt;"/>
          </g>
          <g class="&lt;Group&gt;">
            <path stroke="#AAD5F1" stroke-linecap="round" stroke-linejoin="round" stroke-width="2.583" d="M610.573 315.306h26.296c.939 0 1.643-.705 1.643-1.644l-.234-6.339" class="&lt;Path&gt;"/>
          </g>
          <g class="&lt;Group&gt;">
            <path stroke="#AAD5F1" stroke-linecap="round" stroke-linejoin="round" stroke-width="2.583" d="m593.199 258.957.235-10.095" class="&lt;Path&gt;"/>
          </g>
        </g>
      </g>
    </g>
    <g class="zamba">
      <path fill="#1C1C1A" d="M275.678 591.889c0 9.261 34.193 16.622 76.459 16.147 42.266-.238 76.221-8.311 76.221-17.571 0-9.261-34.43-16.622-76.459-16.384-42.266.474-76.458 8.31-76.221 17.808Z" class="sombra" opacity=".2"/>
      <g class="pierna izq">
        <path fill="#050505" d="M332.666 580.492s-2.612 5.699 7.124 10.21l-48.677.475 1.662-10.448 39.891-.237Z" class="&lt;Path&gt;"/>
        <path fill="#050505" fill-rule="evenodd" d="M291.113 592.365c-.317-.159-.554-.317-.713-.475-.316-.317-.474-.633-.474-.95l1.662-10.21c.237-.713.712-.95 1.187-.95l39.891-.238c.475 0 .712 0 .95.475.158.317.158.634 0 .95 0 0-.475 1.425.238 3.087.712 2.137 2.849 4.037 6.411 5.699.474.237.712.712.712 1.187-.237.475-.712.95-1.187.95l-48.677.475Zm44.403-2.612c-1.9-1.583-3.167-3.245-3.8-4.987-.475-1.187-.475-2.137-.475-3.086l-37.517.237-1.187 8.073 42.979-.237Z" class="&lt;Compound Path&gt;" clip-rule="evenodd"/>
        <path fill="#4E69B1" d="m294.675 545.824-4.275 37.992 43.454.713 10.209-35.855" class="&lt;Path&gt;"/>
        <path fill="#050505" d="m290.4 584.766 43.454.949c.474 0 .949-.475 1.187-.949l10.21-35.618c0-.712-.238-1.187-.95-1.424-.475-.238-1.187.237-1.425.712l-9.735 34.905-41.316-.712 4.037-36.805c0-.475-.475-1.187-.95-1.187-.713 0-1.188.475-1.188.949l-4.274 37.992c-.158.317-.079.634.238.95.158.158.396.238.712.238Z" class="&lt;Path&gt;"/>
        <g class="&lt;Group&gt;" opacity=".2" style="mix-blend-mode:multiply">
          <g class="Clip path group">
            <mask id="a" width="49" height="25" x="291" y="557" class="a" maskUnits="userSpaceOnUse" style="mask-type:luminance">
              <g class="cp68">
                <path fill="#fff" d="m338.72 581.204-47.584-1.52.712-22.676 47.609 1.519-.737 22.677Z" class="Vector"/>
              </g>
            </mask>
            <g class="&lt;Clip Group&gt;" mask="url(#a)">
              <path fill="#050505" d="M291.113 579.779s2.374-10.685 10.923-10.923c8.548-.475 32.293 4.987 35.38 5.224l1.899-10.21-46.303-6.886s-.474 15.197-1.899 22.795Z" class="&lt;Path&gt;"/>
            </g>
          </g>
        </g>
      </g>
      <g class="pierna der">
        <path fill="#050505" d="M399.864 579.542s-1.187 4.749 12.822 10.211l-48.44.237-2.611-10.21 38.229-.238Z" class="&lt;Path&gt;"/>
        <path fill="#050505" fill-rule="evenodd" d="M364.246 591.177c-.475 0-.95-.238-1.187-.713l-2.612-10.447c-.158-.317-.079-.634.237-.95.159-.158.476-.317.95-.475l38.229-.238c.238 0 .713.238.95.475.159.317.238.634.238.95-.238.475 0 4.274 12.11 8.786.475.237.712.712.712 1.425-.237.474-.712.712-1.187.949l-48.44.238Zm43.216-2.612c-6.648-3.087-8.311-6.174-8.786-7.836l-35.617.237 1.899 8.074 42.504-.475Z" class="&lt;Compound Path&gt;" clip-rule="evenodd"/>
        <path fill="#4E69B1" d="m392.265 544.637 9.261 35.38-41.317 3.086-15.908-35.617" class="&lt;Path&gt;"/>
        <path fill="#050505" d="m360.21 584.054 41.316-2.85c.317 0 .633-.158.95-.475a1.01 1.01 0 0 0 0-.949l-9.261-35.38c0-.713-.712-.95-1.424-.95-.475.237-.95.712-.713 1.425l9.023 34.192-39.179 2.85-15.672-34.905c-.237-.475-.712-.713-1.424-.475-.475.237-.712.95-.475 1.424l15.671 35.618a1.82 1.82 0 0 0 1.188.475Z" class="&lt;Path&gt;"/>
        <g class="&lt;Group&gt;" opacity=".2" style="mix-blend-mode:multiply">
          <g class="Clip path group">
            <mask id="b" width="51" height="27" x="349" y="550" class="b" maskUnits="userSpaceOnUse" style="mask-type:luminance">
              <g class="cp69">
                <path fill="#fff" d="m398.7 576.906-49.151-1.567.76-24.386 49.175 1.567-.784 24.386Z" class="Vector"/>
              </g>
            </mask>
            <g class="&lt;Clip Group&gt;" mask="url(#b)">
              <path fill="#050505" d="M356.886 575.505s10.21.475 19.233-2.137c9.023-2.375 22.795-4.274 22.795-4.274l-4.274-16.622-44.641 6.412 6.887 16.621Z" class="&lt;Path&gt;"/>
            </g>
          </g>
        </g>
      </g>
      <g class="brazo der">
        <path fill="#B3805F" d="M438.093 484.799s13.535 1.663 20.658-5.698c6.886-7.599-.475-27.544-12.585-23.983-10.448 3.325-14.722 8.786-14.247 12.11.475 3.087 6.174 17.571 6.174 17.571Z" class="&lt;Path&gt;"/>
        <path fill="#050505" fill-rule="evenodd" d="M437.38 485.512c-.158 0-.237-.079-.237-.237-.237-.712-5.699-14.722-6.174-18.046-.712-4.037 4.275-9.973 14.96-13.06 5.224-1.662 10.21.713 13.534 5.936 3.562 5.937 4.512 14.722 0 19.709-7.361 7.598-20.895 6.173-21.37 6.173-.317 0-.554-.158-.713-.475Zm18.284-26.594c-1.9-1.899-4.986-4.036-9.023-2.612-9.973 2.85-14.01 8.074-13.535 10.685.238 2.375 4.037 12.348 5.936 16.859 2.612 0 13.06.475 18.759-5.698 3.799-4.037 2.849-11.873-.237-16.859-.475-.713-.95-1.425-1.9-2.375Z" class="&lt;Compound Path&gt;" clip-rule="evenodd"/>
        <path fill="#050505" d="M447.591 480.288a37.4 37.4 0 0 1-1.9-2.612c-1.899-2.849-7.835-12.11-.475-17.334.475-.237 1.188 0 1.425.475.475.475.238 1.187-.237 1.425-5.462 3.799-.475 11.872.949 14.009 2.85 3.799 4.987 4.987 5.462 4.749.712-.237 1.424 0 1.662.713.237.474 0 1.187-.712 1.424-1.425.713-3.8-.475-6.174-2.849Z" class="&lt;Compound Path&gt;"/>
        <path fill="#B3805F" d="M442.604 456.543c1.425-1.425 3.8-1.188 4.987.237l4.037 4.749c1.187 1.425.95 3.799-.475 4.987-1.425 1.187-3.8.949-4.987-.475l-2.849-2.612" class="&lt;Path&gt;"/>
        <path fill="#050505" d="m442.604 464.142 2.612 2.612c.95.95 1.9 1.662 3.324 1.662 1.188.238 2.375-.237 3.325-1.187.95-.712 1.425-1.9 1.662-3.087 0-1.187-.237-2.374-1.187-3.324l-3.8-4.749c-1.662-1.9-4.748-2.137-6.648-.475-.475.475-.475 1.187-.237 1.662a1.147 1.147 0 0 0 1.662 0c.949-.712 2.612-.712 3.324.238l4.037 4.749c.475.474.633 1.028.475 1.662 0 .633-.238 1.187-.713 1.662-.475.475-1.108.712-1.9.712a3.52 3.52 0 0 1-1.662-.95l-2.849-2.849c-.475-.237-1.187-.237-1.425.237-.475.238-.475.95 0 1.425Z" class="&lt;Path&gt;"/>
        <g class="&lt;Group&gt;" opacity=".1" style="mix-blend-mode:multiply">
          <g class="Clip path group">
            <mask id="c" width="15" height="15" x="441" y="459" class="c" maskUnits="userSpaceOnUse" style="mask-type:luminance">
              <g class="cp70">
                <path fill="#fff" d="m448.042 473.64-6.743-7.124 7.218-6.815 6.744 7.124-7.219 6.815Z" class="Vector"/>
              </g>
            </mask>
            <g class="&lt;Clip Group&gt;" mask="url(#c)">
              <path fill="#050505" d="M444.029 464.142s4.274 5.461 6.886 2.375c2.612-2.85 3.087-.95 3.087-.95s-.238 4.036-4.274 5.936c-4.037 1.662-8.786-4.512-5.699-7.361Z" class="&lt;Path&gt;"/>
            </g>
          </g>
        </g>
        <g class="&lt;Group&gt;" opacity=".1" style="mix-blend-mode:multiply">
          <g class="Clip path group">
            <mask id="d" width="27" height="27" x="430" y="463" class="d" maskUnits="userSpaceOnUse" style="mask-type:luminance">
              <g class="cp71">
                <path fill="#fff" d="m444.172 489.928-13.749-14.555 12.49-11.801 13.749 14.555-12.49 11.801Z" class="Vector"/>
              </g>
            </mask>
            <g class="&lt;Clip Group&gt;" mask="url(#d)">
              <path fill="#050505" d="M442.842 463.667s-3.087 1.9-1.9 7.836c1.187 6.174 2.137 8.786.712 9.261-1.424.475-3.799.712-3.799 2.137.237 1.662 4.512 3.562 8.074 2.374 3.561-1.187 6.411-2.849 6.411-2.849s-7.599-4.512-8.786-8.311c-.95-4.036-.712-10.448-.712-10.448Z" class="&lt;Path&gt;"/>
            </g>
          </g>
        </g>
        <path fill="#F1F1F1" d="M350.712 495.247c-3.562-16.859 10.685-19.233 10.685-19.233l73.609-18.521 10.448 32.293-78.121 19.233s-13.059 4.037-16.621-13.772Z" class="&lt;Path&gt;"/>
        <path fill="#050505" fill-rule="evenodd" d="M354.749 506.408c-2.533-2.533-4.274-6.174-5.224-10.923-1.267-5.857-.633-10.606 1.899-14.247 3.562-4.986 9.024-6.173 9.736-6.173l73.609-18.759c.713 0 1.187.238 1.425.713l10.21 32.293a1.01 1.01 0 0 1 0 .949c-.158.317-.396.475-.712.475l-78.121 19.471c-.475 0-5.224 1.425-9.973-1.425a10.35 10.35 0 0 1-2.849-2.374Zm79.545-47.727-72.659 18.521h-.238s-4.986.949-8.073 5.224c-2.058 3.166-2.612 7.36-1.662 12.584 1.267 5.857 3.641 9.815 7.124 11.873 4.036 2.374 8.073 1.187 8.073.95h.237l76.933-18.996-9.735-30.156Z" class="&lt;Compound Path&gt;" clip-rule="evenodd"/>
        <g class="&lt;Group&gt;" opacity=".1" style="mix-blend-mode:multiply">
          <g class="Clip path group">
            <mask id="e" width="101" height="100" x="341" y="430" class="e" maskUnits="userSpaceOnUse" style="mask-type:luminance">
              <g class="cp72">
                <path fill="#fff" d="M377.829 529.298 341.95 491.33l63.921-60.383 35.855 37.968-63.897 60.383Z" class="Vector"/>
              </g>
            </mask>
            <g class="&lt;Clip Group&gt;" mask="url(#e)">
              <path fill="#050505" d="M397.964 489.075c14.722 2.85 37.992-9.735 36.567-16.146-.95-4.037-2.137-10.448-2.849-14.722l-70.285 17.808s-14.247 2.375-10.685 19.234c3.561 17.808 16.621 13.772 16.621 13.772l29.681-7.361c-5.936-7.361-12.584-15.197.95-12.585Z" class="&lt;Path&gt;"/>
            </g>
          </g>
        </g>
      </g>
      <g class="torso">
        <path fill="#F1F1F1" d="M340.264 494.059s14.01-14.959 19.233-16.621c4.987-1.425 9.024-4.037 13.298.95 5.461 6.173 19.233 25.407 27.781 63.636-2.137 7.836-12.347 13.06-31.581 17.334-25.881 5.936-42.265 4.986-60.549 5.936-18.284.95-23.032-.237-23.032-2.612 3.799-58.412-9.261-77.171-9.261-77.171h33.005l31.106 8.548Z" class="&lt;Path&gt;"/>
        <path fill="#050505" fill-rule="evenodd" d="M294.911 566.719c-6.886-.237-8.785-1.187-9.735-2.137-.633-.475-.87-1.108-.712-1.9 3.562-57.225-9.024-76.221-9.261-76.458-.237-.238-.237-.713 0-1.187 0-.238.475-.475.95-.475h33.243l30.631 8.073c2.612-2.849 14.247-14.722 18.996-16.147l2.374-.949c4.037-1.188 8.073-2.85 12.347 2.137 5.462 6.411 19.234 25.407 27.782 64.111.158.158.158.316 0 .475-1.899 8.073-11.635 13.534-32.293 18.283-20.421 4.749-34.905 4.987-49.152 5.462-3.799 0-7.599.237-11.635.475-5.936.237-10.21.237-13.535.237Zm104.478-24.932c-8.548-37.754-22.083-56.513-27.307-62.687-3.324-3.799-5.936-2.849-9.973-1.424l-2.374.949c-4.037 1.188-14.722 12.11-18.521 16.147-.475.237-.712.475-1.187.237l-30.869-8.31h-31.105c3.087 5.936 11.634 27.069 8.548 76.221.949.95 5.699 2.137 21.608 1.187 4.115-.158 8.073-.237 11.872-.237 14.01-.475 28.494-.95 48.677-5.462 19.471-4.511 28.494-9.498 30.631-16.621Z" class="&lt;Compound Path&gt;" clip-rule="evenodd"/>
        <path fill="#050505" fill-rule="evenodd" d="M307.496 555.797c-3.562 0-6.649-1.187-9.023-3.324-2.612-2.612-3.799-6.411-3.562-11.16l.238-10.448c.237-.475.475-.949 1.187-.949l27.544-1.663c.316 0 .554.159.712.475.317.159.475.396.475.713l-.712 10.447c-.237 9.261-6.174 15.435-15.197 15.909-.475.159-1.029.159-1.662 0Zm-9.973-23.744-.474 9.26c0 4.037.949 7.361 3.086 9.498 2.137 2.137 5.224 3.087 8.786 2.849 6.174-.474 12.822-4.274 13.297-13.772v-.237l.475-9.023-25.17 1.425Z" class="&lt;Compound Path&gt;" clip-rule="evenodd"/>
        <path fill="#ED3937" d="m324.117 534.664-28.019 1.424 28.019-1.424Z" class="&lt;Path&gt;"/>
        <path fill="#050505" d="m296.099 537.275 28.019-1.662v-2.137l-28.256 1.425.237 2.374Z" class="&lt;Path&gt;"/>
        <g class="&lt;Group&gt;" opacity=".1" style="mix-blend-mode:multiply">
          <g class="Clip path group">
            <mask id="f" width="32" height="23" x="303" y="536" class="f" maskUnits="userSpaceOnUse" style="mask-type:luminance">
              <g class="cp73">
                <path fill="#fff" d="m333.853 558.124-29.918-.95.664-20.99 29.919.949-.665 20.991Z" class="Vector"/>
              </g>
            </mask>
            <g class="&lt;Clip Group&gt;" mask="url(#f)">
              <path fill="#050505" d="M303.935 556.985s7.598 1.899 18.758-5.699c11.16-7.599 11.872-14.247 11.872-14.247l-10.685 2.374s-2.374 16.384-17.096 15.672l-2.849 1.9Z" class="&lt;Path&gt;"/>
            </g>
          </g>
        </g>
        <path fill="#8DBEE6" d="M307.259 484.325s28.019 8.073 45.115 21.607c0 0 7.599-18.046.95-36.804l-46.065 15.197Z" class="&lt;Path&gt;"/>
        <path fill="#050505" d="M395.352 538.463c1.425 0 2.85-.237 4.749-.95.475-.237.95-.95.713-1.424-.238-.713-.95-.95-1.662-.713-5.224 2.375-7.599-.712-7.836-1.187l-5.462-16.384 6.886-2.375c.475 0 .95-.712.713-1.424-.238-.475-.95-.713-1.425-.475l-7.836 2.612c-.475 0-.95.712-.712 1.425l5.698 17.333c0 .159.08.238.238.238 0 0 1.662 3.324 5.936 3.324Z" class="&lt;Path&gt;"/>
        <path fill="#050505" d="M386.092 523.266h.237l8.31-2.849c.713 0 .95-.712.713-1.425 0-.475-.712-.712-1.187-.712l-8.311 2.849c-.712 0-.95.713-.712 1.188 0 .475.475.949.95.949Z" class="&lt;Path&gt;"/>
        <g class="&lt;Group&gt;" opacity=".1" style="mix-blend-mode:multiply">
          <g class="Clip path group">
            <mask id="g" width="93" height="90" x="283" y="471" class="g" maskUnits="userSpaceOnUse" style="mask-type:luminance">
              <g class="cp74">
                <path fill="#fff" d="m372.415 560.903-88.925-2.826 2.755-86.882 88.948 2.849-2.778 86.859Z" class="Vector"/>
              </g>
            </mask>
            <g class="&lt;Clip Group&gt;" mask="url(#g)">
              <path fill="#050505" d="m313.195 479.576-27.307 6.648 33.955 14.247-12.585 7.836 45.116 4.037s2.849 8.548 4.986 15.909c2.137 7.123-2.849 7.598-.237 9.26s4.274 4.512 5.699 9.023c1.187 4.512 1.424 14.01 1.424 14.01l3.799-3.324s-6.173-26.832-12.347-44.166l18.996-22.558-8.785-4.749 4.036-11.872-17.334.475 1.188 35.38-40.604-30.156Z" class="&lt;Path&gt;"/>
            </g>
          </g>
        </g>
        <path fill="#050505" d="M347.625 519.705c0 1.425 1.425 2.612 2.85 2.375 1.662-.238 2.849-1.663 2.849-3.325-.237-1.424-1.425-2.612-3.087-2.374-1.425.237-2.612 1.662-2.612 3.324Zm2.85 11.872c0 1.662 1.424 2.612 2.849 2.612 1.662-.237 2.849-1.662 2.611-3.324 0-1.662-1.187-2.612-2.849-2.375-1.424.238-2.611 1.662-2.611 3.087Zm3.798 11.873c0 1.662 1.188 2.849 2.85 2.612 1.662-.238 2.849-1.662 2.612-3.325 0-1.424-1.187-2.612-2.849-2.374-1.425.237-2.85 1.662-2.613 3.087Z" class="&lt;Path&gt;"/>
        <path fill="#FEFEFE" d="M353.561 508.307s8.073 17.809 14.959 50.577l-14.959-50.577Z" class="&lt;Path&gt;"/>
        <path fill="#050505" d="M368.283 560.071h.475c.475-.237.95-.712.713-1.425-6.649-32.53-14.722-50.576-14.96-50.814-.237-.474-.95-.712-1.425-.474-.475.237-.712.949-.475 1.424 0 .238 8.074 18.046 14.722 50.339 0 .475.475.95.95.95Z" class="&lt;Path&gt;"/>
        <path fill="#F0F1F1" d="M348.1 474.827s2.612 15.434 5.461 33.48l21.133-22.558-13.534 4.037 14.484-18.759-27.544 3.8Z" class="&lt;Path&gt;"/>
        <path fill="#050505" fill-rule="evenodd" d="M353.561 509.494c-.158 0-.237-.079-.237-.237-.475 0-.713-.475-.95-.713a3440.804 3440.804 0 0 0-5.461-33.48c0-.317.079-.633.237-.95.158-.316.396-.475.713-.475l27.781-3.561c.475-.238.95 0 1.187.474.238.475.001.95-.237 1.188l-12.348 15.909 10.211-3.087c.475 0 .95 0 1.187.475.475.475.237.95 0 1.424l-21.133 22.558c-.316.317-.633.475-.95.475Zm7.836-18.758c-.475.237-.95 0-1.187-.238a1.511 1.511 0 0 1 0-1.425l12.822-16.384-23.744 3.087c.712 3.799 2.849 15.909 4.986 30.156l16.859-18.046-9.736 2.85Z" class="&lt;Compound Path&gt;" clip-rule="evenodd"/>
        <path fill="#F0F1F1" d="M324.83 477.677s10.448 9.26 28.731 30.631l-37.279-3.562 13.297-4.749-31.58-6.649 26.831-15.671Z" class="&lt;Path&gt;"/>
        <path fill="#050505" fill-rule="evenodd" d="m353.561 509.494-37.279-3.799c-.713 0-.95-.475-1.188-.95 0-.475.238-.95.713-1.187l9.498-3.324-27.544-5.936c-.475 0-.712-.475-.712-.95-.238-.238 0-.713.475-.95l26.831-15.672c.238-.237.95-.237 1.188.238.237 0 10.685 9.498 28.968 30.631.238.237.238.712 0 1.187-.237.475-.475.712-.95.712Zm-52.476-16.621 28.731 5.936c.475.237.713.712.95 1.187 0 .475-.475.95-.95.95l-8.311 3.087 29.444 2.849c-14.721-16.859-23.982-25.644-26.357-27.781l-23.507 13.772Z" class="&lt;Compound Path&gt;" clip-rule="evenodd"/>
        <g class="&lt;Group&gt;" opacity=".1" style="mix-blend-mode:multiply">
          <g class="Clip path group">
            <mask id="h" width="45" height="85" x="282" y="482" class="h" maskUnits="userSpaceOnUse" style="mask-type:luminance">
              <g class="cp75">
                <path fill="#fff" d="m323.738 566.578-41.008-1.306 2.66-83.155 40.983 1.306-2.635 83.155Z" class="Vector"/>
              </g>
            </mask>
            <g class="&lt;Clip Group&gt;" mask="url(#h)">
              <path fill="#050505" d="M285.651 564.109s10.685 4.274 20.896-1.425c9.972-5.461 0-1.662-5.937-4.512-5.936-3.086-3.087-8.073-3.087-8.073s-2.374-7.361-1.187-19.233c0 0 9.973-3.799 18.046-6.886 8.311-3.325 5.224-9.736 1.663-8.548-3.562 1.187 14.484-11.398 8.785-24.695-5.936-13.535-22.558-5.224-22.558-5.224l-18.046 33.005 1.425 45.591Z" class="&lt;Path&gt;"/>
            </g>
          </g>
        </g>
        <g class="&lt;Group&gt;" opacity=".1" style="mix-blend-mode:multiply">
          <g class="Clip path group">
            <mask id="i" width="37" height="43" x="356" y="471" class="i" maskUnits="userSpaceOnUse" style="mask-type:luminance">
              <g class="cp76">
                <path fill="#fff" d="m391.007 513.887-34.193-1.092 1.33-41.292 34.193 1.092-1.33 41.292Z" class="Vector"/>
              </g>
            </mask>
            <g class="&lt;Clip Group&gt;" mask="url(#i)">
              <path fill="#050505" d="M357.835 481.713s24.457 7.361 33.243 32.056c0 0-2.849-18.047-8.548-26.595-5.461-8.31-12.348-15.196-12.348-15.196l-12.347 9.735Z" class="&lt;Path&gt;"/>
            </g>
          </g>
        </g>
      </g>
      <g class="cabeza">
        <path fill="#B3805F" d="M241.248 441.109c16.859 39.416 48.439 69.335 104.24 50.814 63.399-21.133 59.837-59.362 43.215-99.016-16.858-39.417-62.686-57.938-102.577-41.079-39.654 16.859-61.499 49.627-44.878 89.281Z" class="&lt;Path&gt;"/>
        <path fill="#050505" fill-rule="evenodd" d="M311.77 499.759c-12.03-.475-23.032-3.641-33.005-9.498-15.672-9.498-28.494-25.407-37.992-47.965-8.073-18.996-7.598-37.517 1.425-53.901 8.311-15.196 23.507-27.781 44.166-36.567 19.47-8.311 41.078-8.548 60.786-.475 19.471 7.836 34.905 22.795 42.978 42.029 5.462 12.822 8.786 23.507 9.973 33.005 1.662 11.635.475 21.608-3.799 30.631-7.124 16.147-23.508 28.256-49.864 37.042-12.348 4.116-23.903 6.015-34.668 5.699Zm8.073-151.967c-10.922-.238-21.845 1.662-32.53 6.173-20.183 8.548-35.142 20.896-43.215 35.618-8.549 15.434-9.024 33.48-1.188 52.001 14.247 33.718 43.691 69.81 102.816 50.339 25.644-8.548 41.553-20.183 48.677-35.855 7.123-15.671 5.223-34.667-6.174-61.736-12.11-28.257-39.417-45.591-68.386-46.54Z" class="&lt;Compound Path&gt;" clip-rule="evenodd"/>
        <g class="&lt;Group&gt;" opacity=".1" style="mix-blend-mode:multiply">
          <g class="Clip path group">
            <mask id="j" width="136" height="130" x="232" y="371" class="j" maskUnits="userSpaceOnUse" style="mask-type:luminance">
              <g class="cp77">
                <path fill="#fff" d="m363.32 500.78-130.739-4.155 3.966-124.875 130.738 4.179-3.965 124.851Z" class="Vector"/>
              </g>
            </mask>
            <g class="&lt;Clip Group&gt;" mask="url(#j)">
              <path fill="#050505" d="m252.883 372.487 10.685.237s45.828 4.749 32.768 25.17c-13.297 20.658-11.16 28.493-9.973 34.667 1.188 6.174 10.685 2.137 10.685 2.137-29.918 23.508-12.347 50.339 14.01 55.801 19.708 3.799 43.69-2.612 52.713-5.462-4.749 2.533-10.131 4.987-16.146 7.361-54.614 21.846-89.993-12.822-106.615-52.476-11.16-26.357-5.224-49.627 11.873-67.435Z" class="&lt;Path&gt;"/>
            </g>
          </g>
        </g>
        <path fill="#050505" d="M357.835 353.49s28.02 6.649 43.691 31.818c.712.95-8.548-7.598-22.083-12.822m-134.633-1.187s-37.517 33.005-14.484 80.02c0 0-3.325-33.717 14.484-80.02Z" class="&lt;Path&gt;"/>
        <path fill="#050505" d="M271.404 404.305c1.662-.95 10.21 46.065-9.261 56.75-11.16-14.247-7.598-33.243-7.598-33.243-3.562 16.384.949 30.869 4.036 34.668-3.324 2.374-12.584 6.886-19.233 7.361 0 0-45.353-81.92 47.49-122.049 0 0 54.138-28.256 110.176 37.992 0 0 .475 3.324-4.037 10.685-3.324 5.699-23.032-27.544-27.781-23.507" class="&lt;Path&gt;"/>
        <path fill="#050505" d="M297.286 344.23c9.023-2.849 45.59-14.247 91.18 19.233 0 0-100.441-16.383-91.18-19.233Z" class="&lt;Path&gt;"/>
        <path fill="#050505" d="M353.086 345.18s-77.883-32.056-116.825 36.804c-38.941 68.86 116.825-36.804 116.825-36.804Z" class="&lt;Path&gt;"/>
        <path fill="#050505" d="M291.587 348.741s40.841-15.196 98.541 32.293c0 0 .95 0-1.662 4.749-1.899 3.562-1.662 3.562-4.986 6.174-4.749-6.649-10.211-9.023-31.106-15.672 0 0 22.32 7.361 26.119 18.521-35.855 20.658-71.235 6.412-71.235 6.412 1.188-.475 9.974 18.52-14.009 22.082-11.635-9.973-16.146-23.745-16.146-23.745.237 10.448 3.799 17.572 10.448 25.17-2.612 1.187-11.161 1.662-16.385 1.662 0 0-51.288-57.225 20.421-77.646Z" class="&lt;Path&gt;"/>
        <path fill="#050505" d="m265.23 400.98 17.809 42.029s-33.718 26.831 10.21 52.476l-42.741-14.01s-32.53-35.142-18.046-76.933c14.484-41.791 24.22-19.708 24.22-19.708l8.548 16.146Zm-17.809-29.443s6.649-17.809 17.334-26.12c10.923-8.073 12.11-6.648 12.11-6.648s-15.909 8.548-20.183 29.443" class="&lt;Path&gt;"/>
        <path fill="#050505" d="M233.412 387.921s6.649-9.023-4.037-13.06c0 0 6.887-3.324 9.498.238-.712-5.224 0-15.197 12.822-24.695 0 0-4.511 12.347 4.037 10.448m50.102 52.238c.475 0 .949-.238.949-.712.713-1.663 8.311-2.85 15.197-3.087.713-.238 1.188-.713 1.188-1.187 0-.713-.713-1.188-1.425-1.188-3.562 0-15.672.713-17.097 4.512-.237.712.001 1.424.713 1.662.158.158.316.158.475 0Zm9.735 12.823c1.425 3.799 4.512 6.411 7.124 5.936 2.611-.713 3.799-4.274 2.374-8.073-1.187-3.8-4.511-6.412-7.123-5.699-2.612.475-3.562 4.036-2.375 7.836Z" class="&lt;Path&gt;"/>
        <path fill="#FEFEFE" d="M318.894 420.688c.237.475.712.95 1.187.95.712-.237.95-.712.712-1.425-.237-.712-.95-1.187-1.425-1.187-.474.238-.712.95-.474 1.662Z" class="&lt;Path&gt;"/>
        <path fill="#050505" d="M373.269 408.342c.95 3.562 3.799 6.411 6.411 6.411 2.612 0 3.799-2.849 3.087-6.649-.95-3.561-3.561-6.411-6.173-6.411s-4.037 2.85-3.325 6.649Z" class="&lt;Path&gt;"/>
        <path fill="#FEFEFE" d="M376.594 403.83c.237.712.949 1.187 1.424 1.187s.713-.475.713-1.187c-.238-.713-.713-1.188-1.425-1.188-.475 0-.712.475-.712 1.188Z" class="&lt;Path&gt;"/>
        <path fill="#9A724F" d="M350.237 431.611s5.224 5.462 10.923 4.037c5.461-1.425 6.173-9.261 6.173-9.261s-5.224 4.987-7.836 5.699c-2.612.713-9.26-.475-9.26-.475Z" class="&lt;Path&gt;"/>
        <path fill="#050505" d="M360.447 433.036c1.425 0 2.849-.712 3.799-1.425l3.087-3.562c.475-.474.238-1.424-.237-1.899-.475-.238-1.188-.238-1.662.237l-2.85 3.325c-.712.712-2.849 1.187-4.036.949l-8.073-.712c-.713-.237-1.188.475-1.425.95 0 .712.475 1.425 1.187 1.425l8.073.712c.633.158 1.346.158 2.137 0Zm-18.758 21.37s11.873 2.137 17.571.95c5.937-1.187 5.224 10.448-2.374 15.909-4.987 3.799-14.722 12.11-35.38 7.598-20.896-4.511-23.982-25.169-14.484-31.343 9.735-6.174 21.37 3.562 34.667 6.886Z" class="&lt;Path&gt;"/>
        <g class="&lt;Group&gt;" opacity=".1" style="mix-blend-mode:multiply">
          <g class="Clip path group">
            <mask id="k" width="22" height="11" x="303" y="475" class="k" maskUnits="userSpaceOnUse" style="mask-type:luminance">
              <g class="cp78">
                <path fill="#fff" d="m324.26 485.654-21.251-.664.308-9.76 21.252.689-.309 9.735Z" class="Vector"/>
              </g>
            </mask>
            <g class="&lt;Clip Group&gt;" mask="url(#k)">
              <path fill="#050505" d="M303.222 475.302s6.412 8.786 21.134 8.786c0 0-15.197 6.411-21.134-8.786Z" class="&lt;Path&gt;"/>
            </g>
          </g>
        </g>
      </g>
      <g style="transform-box: fill-box;" class="brazo-bandera">
        <g class="brazo izq">
          <path fill="#050505" d="M243.623 467.704s-14.247.475 3.561 17.571c9.023 8.786 28.019 14.722 28.019 14.722l-31.58-32.293Z" class="&lt;Path&gt;"/>
          <path fill="#050505" d="M238.161 477.677s8.074 14.722 22.083 21.608c14.01 6.886 16.146 6.173 16.146 6.173s-7.598-3.561-18.758-21.608" class="&lt;Path&gt;"/>
          <path fill="#B3805F" d="M227.713 488.125s-12.822-4.274-16.146-13.772c-3.324-9.735 11.635-24.932 21.133-16.621 8.31 7.361 9.735 14.247 8.073 16.859-1.9 2.849-13.06 13.534-13.06 13.534Z" class="&lt;Path&gt;"/>
          <path fill="#050505" fill-rule="evenodd" d="M227.713 489.311h-.475c-.475-.237-13.297-4.511-16.858-14.722-2.137-6.411 2.612-14.009 8.31-17.808 5.224-3.325 10.923-3.325 14.722.237 8.548 7.361 10.448 14.722 8.311 18.284-1.9 2.849-12.823 13.297-13.298 13.772-.158.158-.396.237-.712.237Zm-2.137-32.768c-2.374.238-4.512 1.425-5.461 2.137-4.987 3.325-9.261 9.973-7.599 15.197 2.612 7.836 12.348 12.11 14.96 13.06 3.324-3.325 10.922-10.923 12.347-12.823 1.425-2.374 0-8.548-7.836-15.434-2.137-1.899-4.274-2.374-6.411-2.137Z" class="&lt;Compound Path&gt;" clip-rule="evenodd"/>
          <path fill="#B3805F" d="M222.253 459.394c5.461 2.612 3.561 9.972 3.324 12.584-.475 2.375-1.425 8.786-5.699 9.261-4.511.237-8.073-.712-12.11-2.612-4.037-1.9-1.9-16.147 1.662-19.708 3.562-3.562 10.211-.713 12.823.475Z" class="&lt;Path&gt;"/>
          <path fill="#050505" fill-rule="evenodd" d="M220.115 482.426h-.237c-4.987.237-9.023-1.187-12.585-2.85-1.266-.633-2.137-2.058-2.612-4.274-.713-5.461 1.187-14.247 4.036-17.096 2.85-2.849 7.52-2.77 14.01.237 5.699 2.612 4.511 9.261 4.037 12.585a2.1 2.1 0 0 0-.238.95c-.238 2.374-1.187 9.735-6.411 10.448Zm1.662-21.846c-5.541-2.691-9.339-3.007-11.397-.949-2.375 2.374-4.275 10.447-3.325 15.196.238 1.425.713 2.375 1.187 2.612 3.8 1.9 7.362 3.087 11.398 2.612h.238c3.324-.237 4.274-6.411 4.511-8.31 0-.317.079-.713.238-1.188.475-3.799.949-8.31-2.85-9.973Z" class="&lt;Compound Path&gt;" clip-rule="evenodd"/>
          <path fill="#B3805F" d="M235.549 460.581c-.712-1.9-2.849-2.612-4.749-1.663l-5.461 2.375c-1.662.95-2.612 3.087-1.662 4.749.712 1.899 2.849 2.612 4.749 1.662l3.561-1.187" class="&lt;Path&gt;"/>
          <path fill="#050505" d="M227.238 469.129c.475 0 .95-.079 1.425-.237l3.799-1.425c.475 0 .713-.713.476-1.425 0-.475-.713-.712-1.425-.475l-3.562 1.187c-1.425.475-2.849 0-3.324-1.187-.317-.633-.317-1.266 0-1.899.158-.634.554-1.029 1.187-1.188l5.461-2.612c1.187-.712 2.612 0 3.325 1.188.237.475.949.712 1.424.475.475-.238.713-.95.475-1.425-.949-2.375-3.799-3.324-6.174-2.375l-5.461 2.612c-1.187.475-1.9 1.425-2.375 2.612-.474 1.188-.474 2.375 0 3.562.95 1.9 2.85 2.849 4.749 2.612Z" class="&lt;Path&gt;"/>
          <g class="&lt;Group&gt;" opacity=".1" style="mix-blend-mode:multiply">
            <g class="Clip path group">
              <mask id="l" width="12" height="11" x="220" y="462" class="l" maskUnits="userSpaceOnUse" style="mask-type:luminance">
                <g class="cp79">
                  <path fill="#fff" d="m231.798 471.835-10.163 1.069-.95-9.023 10.162-1.069.951 9.023Z" class="Vector"/>
                </g>
              </mask>
              <g class="&lt;Clip Group&gt;" mask="url(#l)">
                <path fill="#050505" d="M231.275 466.754s-6.411 3.324-7.598-.475c-.95-3.799-2.137-2.137-2.137-2.137s-1.662 3.561 1.187 6.886c3.087 3.324 9.973-.238 8.548-4.274Z" class="&lt;Path&gt;"/>
              </g>
            </g>
          </g>
          <path fill="#F1F1F1" d="M290.875 520.893c5.224-14.959-7.598-30.156-7.598-30.156l-41.554-27.307-19.946 27.307 45.353 29.443s18.521 15.91 23.745.713Z" class="&lt;Path&gt;"/>
          <path fill="#050505" fill-rule="evenodd" d="M283.989 528.491c-7.598.95-16.622-6.649-17.571-7.599l-45.353-29.206c-.158-.158-.317-.396-.475-.712a2.1 2.1 0 0 1 .238-.95l20.183-27.307c.237-.474.95-.475 1.425-.237l41.315 27.307.238.237c.712.712 13.297 15.909 8.073 31.343-1.425 3.799-3.641 6.095-6.649 6.886a4.455 4.455 0 0 1-1.424.238Zm5.936-7.836c4.512-13.535-6.411-27.544-7.361-28.969l-40.366-26.832-18.758 25.645 44.165 28.731h.237s10.211 8.786 17.097 6.886c2.216-.633 3.878-2.453 4.986-5.461Z" class="&lt;Compound Path&gt;" clip-rule="evenodd"/>
          <g class="&lt;Group&gt;" opacity=".1" style="mix-blend-mode:multiply">
            <g class="Clip path group">
              <mask id="m" width="61" height="70" x="232" y="462" class="m" maskUnits="userSpaceOnUse" style="mask-type:luminance">
                <g class="cp80">
                  <path fill="#fff" d="m292.846 525.903-53.213 5.604-6.695-63.779 53.188-5.604 6.72 63.779Z" class="Vector"/>
                </g>
              </mask>
              <g class="&lt;Clip Group&gt;" mask="url(#m)">
                <path fill="#050505" d="m236.5 481.952 9.023-15.434 36.804 24.457s12.823 23.033 8.786 31.106c-3.799 8.073-13.297 4.986-23.982-3.324-10.923-8.549 6.886-9.973-.713-20.184-7.598-9.972-19.233-14.247-19.233-14.247s-4.512 8.311-8.073 6.649c-3.562-1.662-5.936-4.986-2.612-9.023Z" class="&lt;Path&gt;"/>
              </g>
            </g>
          </g>
        </g>
        <g class="bandera">
          <g class="&lt;Group&gt;">
            <g class="&lt;Group&gt;">
              <path fill="#050505" d="m216.316 457.256-17.097-132.022s3.8-4.036 4.512.713l16.859 129.647c-1.187 2.137-3.086 1.899-4.274 1.662Z" class="&lt;Path&gt;"/>
            </g>
            <g class="&lt;Group&gt;">
              <g class="&lt;Group&gt;">
                <path fill="#F5EC31" d="M127.985 339.719a45.77 45.77 0 0 0 3.325-.949c6.411-1.663 11.397-5.699 16.146-10.211a28.783 28.783 0 0 0 2.137-2.374c2.612 9.973 3.562 20.658 2.612 30.868-5.461 2.137-10.923 3.562-17.334 3.324a94.282 94.282 0 0 1-6.648-.712c-6.412-.95-12.823-2.374-19.234-2.374.475-6.411.238-12.823-.712-18.996 6.411.712 13.297 2.374 19.708 1.424Z" class="&lt;Path&gt;"/>
              </g>
              <g class="&lt;Group&gt;">
                <path fill="#43C4DA" d="M166.689 311.937a24.547 24.547 0 0 1 3.561-1.662c10.448-3.799 21.608-1.662 32.056.95l5.936 47.965c-7.598-9.261-27.781-9.261-29.918-9.498-5.936-.475-12.11 1.662-18.046 4.036a252.11 252.11 0 0 1-7.361 3.087c-.317.158-.554.238-.712.238.949-10.211-.001-20.896-2.612-30.869 5.223-5.224 10.447-10.922 17.096-14.247Z" class="&lt;Path&gt;"/>
              </g>
              <g class="&lt;Group&gt;">
                <path fill="#43C4DA" d="M81.207 343.281a15.52 15.52 0 0 0 1.662-.95c7.599-3.324 15.197-4.986 23.27-4.274h1.663c.158.158.317.238.475.238.95 6.173 1.187 12.584.712 18.995h-3.087a59.22 59.22 0 0 0-5.224.713c-6.411 1.424-10.922 3.799-14.722 7.598-2.849 2.612-4.986 5.936-7.123 9.973-2.612 4.749-5.698 8.548-9.735 11.872-.475.475-1.03.95-1.663 1.425.475-11.16 1.188-21.845-.475-32.768 3.562-4.986 7.836-9.735 14.247-12.822Z" class="&lt;Path&gt;"/>
              </g>
              <g class="&lt;Group&gt;">
                <path fill="#43C4DA" d="M23.983 399.557c-8.311-.713-16.147-2.85-23.983-4.987 8.548 2.375 19.709 1.187 29.919-2.374l2.374-.95c.317 2.849.396 5.778.237 8.785h-3.324l-5.223-.474Z" class="&lt;Path&gt;"/>
              </g>
              <g class="&lt;Group&gt;">
                <path fill="#F5EC31" d="m49.864 380.561.238-.238c5.224-4.986 8.548-10.922 11.872-16.384 1.662-2.849 3.087-5.461 4.986-7.835 1.663 10.922.95 21.607.475 32.767-5.224 4.037-11.16 6.886-17.57 8.549-5.462 1.662-11.398 2.374-17.335 2.612.159-3.008.08-5.937-.237-8.786 6.886-2.612 13.06-6.411 17.571-10.685Z" class="&lt;Path&gt;"/>
              </g>
            </g>
          </g>
          <g class="&lt;Group&gt;">
            <g class="&lt;Group&gt;">
              <path fill="#050505" d="m227.476 510.682-4.512-30.631s-1.899 1.188-4.036.713l4.512 30.631c0 .949.712 1.662 1.662 1.662.475 0 .949-.159 1.424-.475.712-.238 1.188-1.188.95-1.9Z" class="&lt;Path&gt;"/>
            </g>
          </g>
        </g>
      </g>
    </g>
    <g class="nina">
      <path fill="#1C1C1A" d="M897.114 602.067c0 9.735-33.005 17.571-73.846 17.571s-73.847-7.836-73.847-17.571c0-9.973 33.006-17.809 73.847-17.809 40.841 0 73.846 7.836 73.846 17.809Z" class="sombra" opacity=".2"/>
      <g class="cabeza atras">
        <g class="&lt;Group&gt;">
          <path fill="#050505" d="M767.467 442.503c-1.425 7.361 3.562 14.01 10.685 15.197 7.124 1.425 13.772-3.562 15.197-10.685 1.187-7.124-3.562-13.772-10.685-15.197-7.361-1.187-14.01 3.562-15.197 10.685Zm114.688 22.082c-1.187 6.649 3.324 13.06 9.973 14.247 6.886.95 13.059-3.324 14.246-9.972 1.188-6.886-3.324-13.06-9.972-14.247-6.649-1.188-13.06 3.324-14.247 9.972Z" class="&lt;Path&gt;"/>
          <path fill="#050505" d="M742.772 424.931c-1.662 9.498 4.986 18.759 14.484 20.421 9.736 1.662 18.759-4.749 20.421-14.485 1.9-9.497-4.749-18.758-14.247-20.42-9.735-1.662-18.995 4.749-20.658 14.484Zm161.466 20.421c-5.224 9.26-3.087 20.658 5.223 25.407 8.311 4.749 19.233 1.425 24.695-7.836 5.224-9.26 3.087-20.42-5.224-25.407-8.311-4.749-19.233-1.187-24.694 7.836Z" class="&lt;Path&gt;"/>
          <path fill="#050505" d="M752.27 377.204c-7.598 44.403 28.731 87.619 81.207 96.642 52.477 9.261 101.153-19.471 108.989-63.874 7.599-44.403-28.731-87.856-81.207-96.879-52.476-9.023-101.153 19.708-108.989 64.111Z" class="&lt;Path&gt;"/>
          <path stroke="#3F1D13" stroke-width="1.878" d="M902.338 462.211c2.374 4.511.712 9.973-3.562 12.11-4.511 2.374-9.973.712-12.11-3.8m40.604-27.781c5.936 5.224 6.648 14.01 1.424 19.946-4.986 5.936-14.009 6.649-19.945 1.662M766.992 414.72c5.936 5.224 6.886 13.773 2.137 19.471-4.986 5.462-13.772 5.936-19.708.95m32.53 18.759c-5.224.238-9.736-3.799-9.973-9.26" class="&lt;Path&gt;"/>
        </g>
      </g>
      <g class="brazo izq">
        <g class="&lt;Group&gt;">
          <path fill="#803531" stroke="#050505" stroke-linecap="round" stroke-linejoin="round" stroke-width="1.69" d="M753.695 455.799c11.16 15.672 25.407 25.407 40.366 33.243 14.96 7.836 26.12-13.297 10.923-20.895-14.959-7.599-21.133-11.635-31.818-25.407-2.137-3.087-9.023-5.699-15.672-.713-5.936 4.749-5.699 10.923-3.799 13.772Z" class="&lt;Path&gt;"/>
          <path fill="#050505" d="M753.695 455.799c11.16 15.672 25.407 25.407 40.366 33.243 14.96 7.836 26.12-13.297 10.923-20.896-5.699-2.849-14.484 11.635-20.658 8.549-9.26-4.274-20.658-14.96-27.069-23.508-2.375-2.849-2.849-7.361.237-11.16-5.936 4.749-5.699 10.923-3.799 13.772Z" class="&lt;Path&gt;" opacity=".4"/>
        </g>
        <g class="&lt;Group&gt;">
          <g class="&lt;Group&gt;">
            <path fill="#803531" stroke="#050505" stroke-linecap="round" stroke-width="1.503" d="M747.284 438.941c-2.375 7.361 1.187 15.197 7.836 17.334 6.648 2.374 14.009-1.662 16.383-9.023 2.375-7.599-1.187-15.197-7.836-17.571-6.648-2.375-14.009 1.899-16.383 9.26Z" class="&lt;Path&gt;"/>
            <path fill="#803531" stroke="#050505" stroke-linecap="round" stroke-width="1.503" d="M766.517 436.329c-1.9.95-2.85 3.087-1.9 4.986.95 2.137 3.087 2.85 4.986 2.137l4.274-1.662c1.9-.95 2.613-3.087 1.9-4.986-.95-2.137-3.087-2.85-5.224-2.137l-4.036 1.662Z" class="&lt;Path&gt;"/>
            <path fill="#050505" d="M748.708 444.639s1.425 6.174 7.361 7.124c5.936.95 8.785-6.174 8.785-6.174s-3.086-1.662-1.424-4.749c0 0 2.137 4.749 6.649 2.137l1.899 3.324s-3.799 12.585-14.722 10.448c-10.922-2.137-9.497-10.685-8.548-12.11Z" class="&lt;Path&gt;" opacity=".2" style="mix-blend-mode:multiply"/>
          </g>
        </g>
      </g>
      <g class="pierna izq">
        <g class="&lt;Group&gt;">
          <path fill="#803531" stroke="#050505" stroke-linecap="round" stroke-linejoin="round" stroke-width="1.315" d="M801.659 586.16s-9.26-9.498-9.26-19.946c0-10.21 2.849-18.284 4.511-21.133 4.275-6.886 10.924-7.124 15.91-4.037 4.749 2.85 7.123 7.124 2.374 14.722-4.036 8.073-4.274 12.822 1.9 18.759 7.123 6.173-6.174 21.607-15.435 11.635Z" class="&lt;Path&gt;"/>
          <path fill="#050505" d="M813.294 577.849s-4.749-3.324-4.749-9.261c0-5.936-16.146-2.374-14.959-11.397.712-6.174 2.137-10.211 3.324-12.11 4.274-6.886 10.923-7.124 15.91-4.037 4.749 2.85 7.123 7.124 2.374 14.722-4.036 8.073-4.274 12.822 1.899 18.759 2.375 1.899 2.85 9.972-3.799 3.324Z" class="&lt;Path&gt;" opacity=".4"/>
        </g>
        <g class="&lt;Group&gt;">
          <path fill="#EE4763" stroke="#050505" stroke-linecap="round" stroke-linejoin="round" stroke-width="1.315" d="M827.066 580.698c.238.238.238.713-.237.95l-27.069 22.558c-.238.237-.713 0-.95-.238l-1.188-1.187c-.237-.475.001-.712.238-.95l27.069-22.557c.238-.238.713-.238.95 0l1.187 1.424Zm-23.982-2.137s-2.612-3.087-4.987-1.187c-1.187.95-4.036 3.324-4.749 4.036-1.899 1.425 1.187 2.375 2.375 3.087 1.424.713 3.324 2.375 3.324 4.274l.475 6.174 4.511-1.187 2.138-10.685-3.087-4.512Z" class="&lt;Path&gt;"/>
          <path fill="#F69226" stroke="#050505" stroke-linecap="round" stroke-linejoin="round" stroke-width="1.315" d="M824.929 579.274s-4.036-4.987-5.224-6.412c-1.187-1.424-2.612-1.424-4.036-.237-1.425 1.187-1.663 3.562-6.174 4.749-3.562 1.187-4.512.712-6.411 1.187-1.9.475-1.187 1.425-.475 3.087l1.662 3.324-1.425 9.023 1.663 2.137 20.42-16.858Z" class="&lt;Path&gt;"/>
          <path fill="#FEFEFE" stroke="#050505" stroke-linecap="round" stroke-linejoin="round" stroke-width="1.315" d="M797.861 601.831c-.95-.95.474-5.936 1.662-6.886 3.324-2.612 7.836-1.187 7.836-1.187l-9.498 8.073Z" class="&lt;Path&gt;"/>
          <path stroke="#050505" stroke-linecap="round" stroke-linejoin="round" stroke-width="1.127" d="M805.933 584.26c-2.612-.475-6.886 2.137-7.836 4.036m7.361-.712c-2.849-.712-6.173 1.9-7.123 3.324m6.411-.236c-2.612-.713-5.461 1.424-6.173 2.849" class="&lt;Path&gt;"/>
          <path fill="#EE4763" stroke="#050505" stroke-linecap="round" stroke-linejoin="round" stroke-width="1.127" d="M812.344 580.461c-2.137 1.662-3.087 2.849-3.562 5.224l-1.424 8.073 3.324-2.85.95-4.986c0-.95.792-2.058 2.375-3.324.95-.713 8.073-6.886 8.073-6.886l-1.662-2.137s-7.361 6.173-8.074 6.886Z" class="&lt;Path&gt;"/>
        </g>
        <g class="&lt;Group&gt;">
          <path fill="#EE4763" stroke="#050505" stroke-linecap="round" stroke-linejoin="round" stroke-width="1.315" d="m783.139 531.071-7.124 17.334c10.448 7.123 26.594 12.584 44.165 17.333l4.749-15.671c3.325-9.023-4.274-18.521-14.484-23.033-10.448-4.749-23.507-4.749-27.306 4.037Z" class="&lt;Path&gt;"/>
          <path stroke="#A0C7E9" stroke-dasharray="2.2 2.2" stroke-linecap="round" stroke-linejoin="round" stroke-width="1.127" d="M779.814 545.555s8.073 7.599 39.417 16.147" class="&lt;Path&gt;"/>
          <path fill="#050505" d="M783.139 531.071c-3.8 10.21 12.584 26.594 17.333 28.731 5.936 2.374 12.822 4.037 19.708 5.936l4.749-15.671c3.325-9.023-4.273-18.521-14.484-23.033-10.447-4.749-23.507-4.749-27.306 4.037Z" class="&lt;Path&gt;" opacity=".4"/>
        </g>
      </g>
      <g class="pierna der">
        <g class="&lt;Group&gt;">
          <path fill="#803531" stroke="#050505" stroke-linecap="round" stroke-linejoin="round" stroke-width="1.315" d="M823.979 595.657s.713-24.22.713-31.106c0-8.31 5.461-11.872 11.397-11.872 5.461 0 9.736 3.324 9.736 12.347v30.869c0 13.297-23.033 13.297-21.846-.238Z" class="&lt;Path&gt;"/>
          <path fill="#050505" d="M840.127 595.182c-1.188 6.886-12.348 10.448-5.937 10.448 5.699 0 11.635-3.324 11.635-9.736v-30.868c0-9.023-4.274-12.347-9.736-12.347-5.936 0-11.397 3.561-11.397 11.872 0 9.498 14.247 4.037 14.247 9.973 0 2.849 2.137 15.434 1.188 20.658Z" class="&lt;Path&gt;" opacity=".4"/>
        </g>
        <g class="&lt;Group&gt;">
          <path fill="#EE4763" stroke="#050505" stroke-linecap="round" stroke-linejoin="round" stroke-width="1.315" d="m860.784 546.03 1.662 14.722c-12.11 4.512-28.968 5.224-47.252 5.224l-1.187-10.21c-.95-9.736 9.26-18.521 20.42-20.421 11.16-1.9 24.933 1.187 26.357 10.685Z" class="&lt;Path&gt;"/>
          <path stroke="#A0C7E9" stroke-dasharray="2.2 2.2" stroke-linecap="round" stroke-linejoin="round" stroke-width="1.127" d="M859.359 557.429s-9.735 4.986-42.265 4.986" class="&lt;Path&gt;"/>
          <path fill="#050505" d="m860.784 546.03 1.662 14.722c-3.799 1.425-7.994 2.533-12.585 3.325 0-13.772-1.899-27.782-15.434-28.732 11.16-1.899 24.933 1.188 26.357 10.685Z" class="&lt;Path&gt;" opacity=".4"/>
        </g>
        <g class="&lt;Group&gt;">
          <path fill="#EE4763" stroke="#050505" stroke-linecap="round" stroke-linejoin="round" stroke-width="1.315" d="M821.13 606.104c0 .475.237.713.712.713h35.143c.475 0 .712-.238.712-.713v-1.662c0-.475-.237-.712-.712-.712h-35.143c-.475 0-.712.237-.712.712v1.662Zm17.097-16.858s0-4.037 3.087-4.274c1.424 0 5.223.237 6.173.237 2.374 0 .712 2.612.238 4.037-.475 1.187-.951 3.799.237 5.224l3.324 5.224-4.274 1.662-8.548-6.649-.237-5.461Z" class="&lt;Path&gt;"/>
          <path fill="#F69226" stroke="#050505" stroke-linecap="round" stroke-linejoin="round" stroke-width="1.315" d="M821.842 603.73v-8.31c0-1.663.951-2.85 2.85-2.85 1.9 0 3.799 1.662 7.835-.237 3.562-1.425 4.037-2.375 5.7-3.087 1.662-.712 1.899.237 2.374 1.899l.713 3.8 6.885 5.936v2.849h-26.357Z" class="&lt;Path&gt;"/>
          <path fill="#FEFEFE" stroke="#050505" stroke-linecap="round" stroke-linejoin="round" stroke-width="1.315" d="M856.985 603.73c0-1.187-4.037-4.036-5.699-4.036-4.036 0-6.649 4.036-6.649 4.036h12.348Z" class="&lt;Path&gt;"/>
          <path stroke="#050505" stroke-linecap="round" stroke-linejoin="round" stroke-width="1.127" d="M839.651 595.419c1.662-2.137 6.649-2.612 8.548-1.899m-6.174 4.037c1.663-2.137 5.937-2.374 7.599-1.9m-4.987 3.8c1.663-2.138 4.987-2.138 6.411-1.663" class="&lt;Path&gt;"/>
          <path fill="#EE4763" stroke="#050505" stroke-linecap="round" stroke-linejoin="round" stroke-width="1.127" d="M832.29 596.37c2.612 0 4.274.475 5.937 1.9l6.411 5.461h-4.512l-3.799-3.562c-.633-.633-1.979-.949-4.037-.949h-10.448v-2.85h10.448Z" class="&lt;Path&gt;"/>
        </g>
      </g>
      <g class="torso">
        <path fill="#F69226" stroke="#050505" stroke-linecap="round" stroke-linejoin="round" stroke-width="1.315" d="M821.367 550.541c-32.293-5.698-33.955-18.283-34.43-28.019 1.187-16.621 8.786-43.215 12.823-52.476 6.886-15.197 20.42-19.233 38.466-16.146 17.809 3.086 32.531 11.397 30.631 28.019-1.662 13.534-6.411 38.941-5.461 53.663-3.325 14.722-9.736 20.421-42.029 14.959Z" class="&lt;Path&gt;"/>
        <path fill="#050505" d="M821.368 550.541c-26.595-4.749-.475-50.814 17.333-50.576 0 0 3.562 17.571 4.749 23.27 1.425 8.073 9.736 9.973 9.498.712-.237-17.334-8.073-29.206 1.188-43.69 9.26-14.01-33.955-29.444-15.909-26.357 17.808 3.087 32.53 11.397 30.63 28.019-1.662 13.534-6.411 38.941-5.461 53.663-2.85 14.247-9.735 20.421-42.028 14.959Z" class="&lt;Path&gt;" opacity=".4"/>
        <path fill="#803531" stroke="#050505" stroke-width="1.315" d="M814.007 462.686c-5.699 11.397-4.512 21.845 5.46 23.507 10.211 1.662 23.271-6.174 29.207-17.571 5.699-11.398 1.425-12.585-8.786-14.247-9.973-1.9-19.945-3.087-25.881 8.311Z" class="&lt;Path&gt;"/>
        <path fill="#EE4763" stroke="#050505" stroke-linecap="round" stroke-linejoin="round" stroke-width="1.315" d="M795.011 495.454c2.849-12.11 6.173-26.832 17.333-39.892l5.224 5.699c-9.972 11.635-12.822 25.17-15.197 35.855l-7.36-1.662Z" class="&lt;Path&gt;"/>
        <path fill="#EE4763" d="M784.326 524.66c3.799-12.348 11.872-30.156 11.872-30.156s8.31 3.561 17.333 5.224c9.023 1.424 23.033 1.662 23.033 1.662l5.224 32.293s15.909 3.087 22.32 0c-.475 6.411-1.662 10.922-2.849 16.621-4.987 6.649-30.869 5.936-45.116 3.324-18.995-3.324-37.754-8.785-31.817-28.968Z" class="&lt;Path&gt;"/>
        <path fill="#050505" d="M849.386 534.632s9.973.713 14.722-.95c-.475 6.411-1.662 10.923-2.849 16.622-1.9 2.374-6.649 3.799-12.347 4.511 2.849-4.986 2.137-16.621.474-20.183Z" class="&lt;Path&gt;" opacity=".4"/>
        <path stroke="#050505" stroke-linecap="round" stroke-linejoin="round" stroke-width="1.315" d="M861.259 550.304c.949-5.224 2.374-11.397 2.849-16.621-6.411 3.087-22.32 0-22.32 0l-5.224-32.293s-14.01-.238-23.033-1.662c-9.023-1.663-17.333-5.224-17.333-5.224s-8.073 17.808-11.872 30.156c-5.937 20.183 12.822 25.644 31.817 28.968" class="&lt;Path&gt;"/>
        <path fill="#EE4763" stroke="#050505" stroke-linecap="round" stroke-linejoin="round" stroke-width="1.503" d="M830.865 500.677c2.138-13.297 13.298-26.357 27.307-39.891l6.174 6.886c-12.347 12.11-22.32 23.27-24.457 35.855l-9.024-2.85Z" class="&lt;Path&gt;"/>
        <path fill="#6ECFF5" stroke="#050505" stroke-linecap="round" stroke-linejoin="round" stroke-width="1.315" d="M841.551 503.527c-.713 3.324-3.799 5.461-6.886 4.749-3.324-.475-5.461-3.562-4.749-6.886.475-3.087 3.562-5.224 6.649-4.749 3.324.712 5.461 3.562 4.986 6.886Z" class="&lt;Path&gt;"/>
        <path fill="#050505" d="M838.939 507.325c-2.612 1.9-6.174 1.188-8.074-1.424 0 0 4.037 1.187 6.649-.713 2.85-1.899 2.849-6.173 2.849-6.173 1.9 2.849 1.425 6.411-1.424 8.31Z" class="&lt;Path&gt;" opacity=".4"/>
        <path fill="#6ECFF5" stroke="#050505" stroke-linecap="round" stroke-linejoin="round" stroke-width="1.315" d="M801.896 497.59c-1.187 3.087-4.037 4.749-6.174 3.799-2.374-.712-3.324-4.036-2.136-6.886 1.187-3.086 4.036-4.986 6.174-4.036 2.374.712 3.324 4.036 2.136 7.123Z" class="&lt;Path&gt;"/>
        <path fill="#050505" d="M799.284 500.915c-2.612 1.662-5.224.712-5.936-2.137 0 0 2.85 1.662 5.224 0 2.375-1.425 3.562-5.699 3.562-5.699.713 2.849-.475 6.411-2.85 7.836Z" class="&lt;Path&gt;" opacity=".4"/>
        <g class="&lt;Group&gt;">
          <g class="&lt;Group&gt;">
            <path stroke="#A0C7E9" stroke-linecap="round" stroke-linejoin="round" stroke-width="1.127" d="m833.478 534.158 1.662-.238-.238-1.662" class="&lt;Path&gt;"/>
            <path stroke="#A0C7E9" stroke-dasharray="3.31 3.31" stroke-linecap="round" stroke-linejoin="round" stroke-width="1.127" d="m834.19 528.459-2.137-13.772" class="&lt;Path&gt;"/>
            <path stroke="#A0C7E9" stroke-linecap="round" stroke-linejoin="round" stroke-width="1.127" d="m831.815 512.787-.237-1.662-1.662-.238" class="&lt;Path&gt;"/>
            <path stroke="#A0C7E9" stroke-dasharray="3.31 3.31" stroke-linecap="round" stroke-linejoin="round" stroke-width="1.127" d="m826.354 510.175-12.347-2.137-14.96-2.612" class="&lt;Path&gt;"/>
            <path stroke="#A0C7E9" stroke-linecap="round" stroke-linejoin="round" stroke-width="1.127" d="m797.148 505.189-1.662-.475-.713 1.662" class="&lt;Path&gt;"/>
            <path stroke="#A0C7E9" stroke-dasharray="3.31 3.31" stroke-linecap="round" stroke-linejoin="round" stroke-width="1.127" d="m793.348 509.938-4.986 12.347" class="&lt;Path&gt;"/>
            <path stroke="#A0C7E9" stroke-linecap="round" stroke-linejoin="round" stroke-width="1.127" d="m787.65 523.947-.475 1.662 1.424.713" class="&lt;Path&gt;"/>
            <path stroke="#A0C7E9" stroke-dasharray="2.2 2.2" stroke-linecap="round" stroke-linejoin="round" stroke-width="1.127" d="m791.212 527.984 17.571 10.448 23.27-4.037" class="&lt;Path&gt;"/>
          </g>
        </g>
        <path fill="#050505" d="M868.62 470.283c-28.731 30.156-74.322 4.749-65.061-6.648 15.434-18.996 72.897-1.663 65.061 6.648Z" class="&lt;Path&gt;" opacity=".4"/>
      </g>
      <g style="transform-box: fill-box;" class="brazo-der">
        <g class="&lt;Group&gt;">
          <path fill="#803531" stroke="#050505" stroke-linecap="round" stroke-linejoin="round" stroke-width="1.69" d="M908.274 517.774c-19.233-1.425-34.668-8.311-49.389-17.097-14.722-8.548-2.375-29.206 12.11-20.183 14.247 8.786 21.132 11.873 38.229 13.772 3.799.238 9.735 4.749 8.785 13.06-.712 7.598-6.173 10.685-9.735 10.448Z" class="&lt;Path&gt;"/>
          <path fill="#050505" d="M908.274 517.774c-19.233-1.425-34.668-8.311-49.389-17.097-14.722-8.548-2.375-29.206 12.11-20.183 5.461 3.324-2.137 18.284 3.561 22.083 8.549 5.461 23.508 9.735 34.193 10.685 3.799.475 7.835-1.425 9.26-5.936-.712 7.598-6.173 10.685-9.735 10.448Z" class="&lt;Path&gt;" opacity=".4"/>
        </g>
        <g class="&lt;Group&gt;">
          <g class="&lt;Path&gt;">
            <path fill="#803531" d="M909.224 494.267c3.562.475 7.836.713 13.535-2.374 6.886-3.562 13.535-5.462 15.197-2.85 2.612 4.037-8.074 8.074-9.261 14.485-.95 6.411-3.324 12.822-10.685 14.247-2.85.475-5.699.475-8.786 0"/>
            <path stroke="#050505" stroke-linecap="round" stroke-linejoin="round" stroke-width="1.69" d="M909.224 494.267c3.562.475 7.836.713 13.535-2.374 6.886-3.562 13.535-5.462 15.197-2.85 2.612 4.037-8.074 8.074-9.261 14.485-.95 6.411-3.324 12.822-10.685 14.247-2.85.475-5.699.475-8.786 0"/>
          </g>
          <path fill="#803531" d="M901.863 504.952c-.712 5.699 2.612 10.923 7.361 11.398 4.749.475 9.023-3.562 9.735-9.261.713-5.698-2.612-10.922-7.361-11.397-4.749-.475-9.022 3.561-9.735 9.26Z" class="&lt;Path&gt;"/>
          <g class="&lt;Path&gt;">
            <path fill="#803531" d="m922.996 515.637 2.612-1.899 7.598-2.612c1.9-.95 3.087-3.562 2.137-5.461-1.187-1.9-3.087-2.375-4.036-2.375l-8.073.712"/>
            <path stroke="#050505" stroke-linecap="round" stroke-linejoin="round" stroke-width="1.69" d="m922.996 515.637 2.612-1.899 7.598-2.612c1.9-.95 3.087-3.562 2.137-5.461-1.187-1.9-3.087-2.375-4.036-2.375l-8.073.712"/>
          </g>
        </g>
      </g>
      <g class="cabeza">
        <g class="&lt;Group&gt;">
          <path fill="#803531" stroke="#050505" stroke-linecap="round" stroke-linejoin="round" stroke-width="1.315" d="M911.598 422.082c-6.411 37.992-31.106 63.399-79.071 57.226-47.015-5.937-61.736-42.504-55.325-80.258 6.649-37.992 42.028-63.399 79.07-56.988 37.042 6.411 61.974 42.266 55.326 80.02Z" class="&lt;Path&gt;"/>
          <path fill="#050505" d="m899.489 419.471-2.612 4.511s-1.425 61.024-68.148 54.851c-.712 0 .712-1.187 3.562.475h.237c47.964 6.173 72.659-19.234 79.07-57.225 1.9-9.973 1.188-20.184-1.187-29.444-4.037 6.174-10.922 26.832-10.922 26.832Z" class="&lt;Path&gt;" opacity=".4"/>
        </g>
        <path fill="#FEFEFE" d="M828.491 430.867s-.95-19.708-26.357-17.096c0 0-2.612 14.959 9.973 18.758 12.585 3.562 16.384-1.662 16.384-1.662Zm26.119 6.174s6.411-18.758 30.156-9.023c0 0-1.661 14.96-14.959 14.96-12.822 0-15.197-5.937-15.197-5.937Z" class="&lt;Path&gt;"/>
        <path fill="#050505" d="M849.149 442.74s-4.036 4.987-9.973 4.037c-5.936-1.187-8.785-8.073-8.785-8.073s6.174 4.274 9.023 4.749c2.849.474 9.735-.713 9.735-.713Z" class="&lt;Path&gt;"/>
        <g class="&lt;Group&gt;">
          <g class="&lt;Group&gt;">
            <path fill="#050505" d="M803.322 312.381c-1.662 9.973 5.224 19.233 15.671 20.895 10.211 1.9 19.946-4.511 21.608-14.246 1.9-9.736-5.223-19.234-15.434-20.896-10.447-1.9-20.183 4.512-21.845 14.247Zm85.481 15.434c-1.424 7.836 4.037 15.434 11.873 16.621 8.073 1.187 15.434-4.036 16.621-12.11 1.425-7.835-4.036-15.196-11.872-16.621-8.073-1.187-15.434 4.274-16.622 12.11Z" class="&lt;Path&gt;"/>
            <path fill="#050505" d="M771.504 325.677c-2.138 12.11 5.936 23.508 18.046 25.645 11.872 1.9 23.27-5.936 25.407-18.046 2.137-11.873-5.937-23.27-18.047-25.407-11.872-2.137-23.269 5.936-25.406 17.808Zm147.692 48.916c-1.899 12.109 6.175 23.744 18.284 25.881 12.11 2.137 23.745-6.173 25.882-18.283 2.137-12.11-6.173-23.745-18.283-25.882-12.11-1.9-23.746 6.174-25.883 18.284ZM834.19 314.28c-2.612 15.197 9.498 29.681 27.307 32.768 17.808 3.087 34.192-6.648 36.804-21.608 2.612-14.959-9.735-29.681-27.306-32.768-17.809-3.086-34.193 6.649-36.805 21.608Z" class="&lt;Path&gt;"/>
            <path fill="#050505" d="M901.625 344.436c-2.137 11.872 5.936 23.27 17.809 25.17 12.11 2.137 23.27-5.937 25.407-17.809 2.137-11.873-5.936-23.27-17.809-25.17-11.872-2.137-23.27 5.937-25.407 17.809Zm12.585 68.623c-2.137 13.06 5.936 25.645 18.284 27.544 12.11 2.137 23.982-6.648 26.357-19.945 2.137-13.06-5.937-25.645-18.284-27.544-12.11-2.137-23.982 6.648-26.357 19.945ZM731.612 385.99c-2.137 13.534 5.699 26.356 18.046 28.493 12.347 2.138 24.22-7.123 26.594-20.895 2.375-13.535-5.698-26.357-18.046-28.256-12.347-2.137-24.22 7.123-26.594 20.658Z" class="&lt;Path&gt;"/>
            <path fill="#050505" d="M747.996 346.336c-1.899 11.16 5.461 21.845 16.859 23.744 11.16 2.138 21.845-5.461 23.745-16.621 1.899-11.397-5.461-22.083-16.859-23.982-11.16-1.9-21.845 5.699-23.745 16.859Z" class="&lt;Path&gt;"/>
            <g class="&lt;Group&gt;">
              <path fill="#050505" d="M838.463 371.743c-1.424 9.023 4.512 17.571 13.535 19.233 9.023 1.425 17.572-4.511 18.996-13.535 1.662-9.023-4.512-17.571-13.297-18.995-9.023-1.663-17.572 4.511-19.234 13.297Z" class="&lt;Path&gt;"/>
              <path fill="#050505" d="M807.359 368.182c-1.663 9.26 4.511 17.808 13.772 19.47 9.26 1.663 18.046-4.511 19.47-13.772 1.662-9.26-4.511-18.046-13.772-19.47-9.023-1.663-17.808 4.511-19.47 13.772Z" class="&lt;Path&gt;"/>
              <path fill="#050505" d="M780.051 376.255c-1.424 9.26 4.749 18.046 13.773 19.47 9.26 1.663 18.045-4.511 19.707-13.772 1.425-9.023-4.748-17.808-13.771-19.47-9.261-1.663-18.046 4.511-19.709 13.772Z" class="&lt;Path&gt;"/>
              <path fill="#050505" d="M765.33 395.963c-1.187 7.124 3.561 14.01 10.922 15.197 7.124 1.425 14.01-3.562 15.197-10.685 1.188-7.124-3.561-14.01-10.685-15.197-7.361-1.187-14.009 3.562-15.434 10.685Zm132.021 21.132c-1.424 7.361 3.562 14.01 10.686 15.197 7.123 1.425 14.009-3.562 15.197-10.685 1.187-7.124-3.562-14.01-10.686-15.197-7.123-1.187-14.009 3.562-15.197 10.685Z" class="&lt;Path&gt;"/>
              <path fill="#050505" d="M885.953 399.287c-1.187 5.699 2.85 11.397 8.548 12.347 5.699.95 11.16-2.849 12.348-8.785.949-5.699-2.85-11.161-8.786-12.11-5.699-1.188-11.16 2.849-12.11 8.548Z" class="&lt;Path&gt;"/>
              <path fill="#050505" d="M865.77 380.054c-1.424 8.311 4.038 16.384 12.348 17.809 8.311 1.424 16.147-4.274 17.571-12.585 1.662-8.311-4.036-16.147-12.347-17.571-8.311-1.425-16.147 4.036-17.572 12.347Z" class="&lt;Path&gt;"/>
              <path fill="#050505" d="m909.698 428.018-21.845-38.704-28.256-11.397-31.343-2.85-23.745 10.211-16.147 6.173-10.685 11.16-13.772-15.671 1.662-35.143 48.915-32.055 44.403 2.849 46.54 11.635 28.968 40.129 4.275 40.841-28.97 12.822Z" class="&lt;Path&gt;"/>
            </g>
          </g>
          <path stroke="#3F1D13" stroke-width="1.878" d="M902.575 404.986c4.749.475 9.023-3.087 9.261-7.836.474-4.749-3.087-9.023-7.836-9.498-4.987-.237-9.023 3.324-9.498 8.073m-118.25 10.211c-4.749-.713-8.073-4.987-7.36-9.736.712-4.749 4.986-8.073 9.735-7.361 4.749.713 8.31 4.987 7.598 9.736m103.766-81.445c-1.425-6.411-5.699-12.347-12.585-15.909-9.261-4.749-19.946-3.562-26.595 2.612a20.754 20.754 0 0 0-3.561 4.749" class="&lt;Path&gt;"/>
          <path stroke="#3F1D13" stroke-width="1.315" d="M851.523 326.865c1.9-5.224 7.362-7.836 12.348-6.174 2.612.95 4.511 2.85 5.699 4.987" class="&lt;Path&gt;"/>
          <path stroke="#3F1D13" stroke-width="1.878" d="M928.457 333.513c7.836 2.85 11.873 11.398 9.023 18.996-2.612 7.836-11.16 12.11-18.996 9.261m-21.845-11.397c-8.074-1.187-13.772-8.548-12.585-16.621 1.188-8.074 8.786-13.535 16.859-12.348 8.073 1.187 13.772 8.548 12.585 16.622" class="&lt;Path&gt;"/>
          <path stroke="#3F1D13" stroke-width="1.315" d="M794.773 353.46c5.224-8.549 16.384-11.161 24.933-5.937 8.548 5.462 11.16 16.622 5.936 25.17" class="&lt;Path&gt;"/>
          <path stroke="#3F1D13" stroke-width="1.878" d="M761.53 359.395c-5.936-3.324-8.073-10.685-4.749-16.621 3.087-5.699 10.448-8.073 16.384-4.749" class="&lt;Path&gt;"/>
          <path stroke="#3F1D13" stroke-width="1.315" d="M843.45 341.112c12.822-2.85 25.407 5.223 28.256 18.046" class="&lt;Path&gt;"/>
          <path stroke="#3F1D13" stroke-width="1.878" d="M740.873 401.187c-5.224-9.261-2.138-20.896 6.886-26.12" class="&lt;Path&gt;"/>
          <path stroke="#3F1D13" stroke-width="1.315" d="M911.836 428.255c-6.649-1.899-10.685-8.785-8.786-15.434" class="&lt;Path&gt;"/>
          <path stroke="#3F1D13" stroke-width="1.878" d="M804.509 386.227c-1.662 3.561-6.174 4.986-9.736 3.087-3.561-1.9-4.986-6.174-3.324-9.736m95.217 12.348c-7.836.949-14.722-4.987-15.435-12.823-.712-7.835 4.987-14.721 12.823-15.434 7.598-.712 14.722 4.987 15.434 12.823" class="&lt;Path&gt;"/>
          <path stroke="#3F1D13" stroke-width="1.315" d="M770.079 354.884c7.598-1.9 15.196 2.612 17.333 10.21 2.137 7.598-2.374 15.434-9.973 17.334-7.598 2.137-15.434-2.375-17.334-9.973m176.188 28.731c4.512 4.749 4.274 12.11-.475 16.859-4.749 4.512-12.347 4.274-16.859-.237-4.511-4.749-4.274-12.347.475-16.859" class="&lt;Path&gt;"/>
          <path stroke="#3F1D13" stroke-width="1.878" d="M788.837 348.948c-9.735-3.324-14.722-14.009-11.398-23.745 3.562-9.498 14.01-14.721 23.508-11.16 9.736 3.325 14.722 13.772 11.397 23.508m22.321 29.205c2.375 5.937-.475 12.823-6.411 15.197-5.936 2.612-12.822-.237-15.197-6.174m132.022 29.682c7.598 4.274 10.21 13.772 5.936 21.37-4.274 7.361-13.772 9.973-21.37 5.699m27.306-51.764c-1.425 8.311-9.261 13.772-17.334 12.348-8.073-1.425-13.535-9.261-12.11-17.334 1.424-8.311 9.023-13.772 17.334-12.347 8.073 1.424 13.534 9.26 12.11 17.333Z" class="&lt;Path&gt;"/>
          <path stroke="#3F1D13" stroke-width="1.315" d="M913.972 366.756c-4.986 1.425-10.21-1.662-11.872-6.648-1.425-5.224 1.662-10.448 6.649-11.873 4.986-1.424 10.21 1.425 11.872 6.649" class="&lt;Path&gt;"/>
          <g class="&lt;Group&gt;">
            <path stroke="#3F1D13" stroke-width="1.315" d="M863.871 376.492c-.712 5.224-5.699 8.786-10.923 7.836m-7.836-10.923c.95-5.224 5.936-8.785 11.16-7.836" class="&lt;Path&gt;"/>
          </g>
          <path stroke="#3F1D13" stroke-width="1.878" d="M836.802 321.641c-1.425 8.073-9.261 13.535-17.096 12.11-8.074-1.425-13.535-9.023-12.111-17.334 1.425-8.073 9.024-13.534 17.097-12.11 8.073 1.425 13.534 9.023 12.11 17.334Z" class="&lt;Path&gt;"/>
        </g>
        <g class="&lt;Group&gt;">
          <path fill="#855226" d="M808.783 422.32c-.95 4.511 1.424 8.785 5.461 9.735 4.037 1.187 8.311-1.662 9.498-5.936.95-4.274-1.425-8.548-5.461-9.736-4.037-.949-8.311 1.663-9.498 5.937Z" class="&lt;Path&gt;"/>
          <path fill="#050505" d="M813.769 423.744c-.237 1.424.713 2.849 1.9 3.087 1.425.237 2.612-.95 2.849-2.137.238-1.425-.712-2.85-1.899-3.087-1.188-.238-2.612.712-2.85 2.137Z" class="&lt;Path&gt;"/>
          <path fill="#FEFEFE" d="M818.756 421.844c-.237.713.238 1.425 1.187 1.663.713 0 1.425-.475 1.425-1.425.237-.713-.238-1.425-.95-1.662-.95 0-1.662.475-1.662 1.424Z" class="&lt;Path&gt;"/>
        </g>
        <g class="&lt;Group&gt;">
          <path fill="#855226" d="M875.743 434.192c0 4.511-3.562 8.073-7.836 7.835-4.274 0-7.598-3.799-7.361-8.31.238-4.512 3.562-7.836 7.836-7.836 4.274.237 7.599 4.036 7.361 8.311Z" class="&lt;Path&gt;"/>
          <path fill="#050505" d="M870.757 434.192c-.238 1.425-1.425 2.612-2.849 2.374-1.188-.237-2.138-1.424-1.9-2.849.237-1.425 1.187-2.374 2.612-2.374 1.187.237 2.137 1.424 2.137 2.849Z" class="&lt;Path&gt;"/>
          <path fill="#FEFEFE" d="M866.482 430.867c0 .95-.712 1.425-1.424 1.425-.712-.238-1.425-.95-1.187-1.662 0-.95.712-1.425 1.424-1.425s1.425.95 1.187 1.662Z" class="&lt;Path&gt;"/>
        </g>
        <path stroke="#050505" stroke-linecap="round" stroke-linejoin="round" stroke-width="1.878" d="m891.653 421.845-6.887 5.461s-23.032-7.361-30.156 9.735" class="&lt;Path&gt;"/>
        <g class="&lt;Path&gt;">
          <path fill="#BB8653" d="m885.004 420.657-4.512 5.461 4.512-5.461Z"/>
          <path stroke="#050505" stroke-linecap="round" stroke-linejoin="round" stroke-width="1.878" d="m885.004 420.657-4.512 5.461"/>
        </g>
        <path stroke="#050505" stroke-linecap="round" stroke-linejoin="round" stroke-width="1.878" d="m797.148 405.936 4.987 7.36s24.219-.949 26.356 17.572" class="&lt;Path&gt;"/>
        <g class="&lt;Path&gt;">
          <path fill="#BB8653" d="m804.034 406.885 2.612 6.411-2.612-6.411Z"/>
          <path stroke="#050505" stroke-linecap="round" stroke-linejoin="round" stroke-width="1.878" d="m804.034 406.885 2.612 6.411"/>
        </g>
        <path stroke="#050505" stroke-linecap="round" stroke-linejoin="round" stroke-width="2.442" d="M828.016 408.548s-10.685-7.836-20.895 1.187m54.376 5.698s12.346-4.511 19.707 7.124" class="&lt;Path&gt;"/>
        <path fill="#050505" d="M854.373 459.836c-.949-5.224-9.023-4.512-13.535-4.749-1.187 0-3.324 0-4.511-.238-.95-.237-3.086-.712-4.511-1.187-4.274-1.425-11.873-4.749-14.485-.238-2.612 4.512-.712 15.197 14.009 18.284l1.9.475a7.823 7.823 0 0 0 1.9.237c14.722 1.9 20.183-7.361 19.233-12.584Z" class="&lt;Path&gt;"/>
      </g>
      <g class="sombrero">
        <g class="&lt;Group&gt;">
          <path fill="#8A52A0" d="M827.295 287.043c24.693 17.105 50.589 25.302 50.589 25.302s37.562 14.183 67.164 18.039c29.838 3.837 4.324 30.623-62.255 4.916-66.342-25.726-79.973-65.618-55.498-48.257Z" class="&lt;Path&gt;"/>
        </g>
        <path fill="#8A52A0" d="M827.295 287.043c24.693 17.105 50.589 25.302 50.589 25.302s30.162 10.957 53.41 15.79c1.482 3.694 2.187 9.593-6.846 9.83-13.53.592-69.008-11.224-87.665-33.331-6.148-5.469-9.475-11.399-17.635-12.184-6.211-9.275-2.978-13.58 8.147-5.407Z" class="&lt;Path&gt;" opacity=".5" style="mix-blend-mode:multiply"/>
        <path fill="#7358A4" d="M921.201 236.515c26.3 10.309 45.561 15.934 45.561 15.934l-45.709 81.735c-17.23-1.021-64.959-17.26-78.44-28.105l21.378-91.247s30.928 11.611 57.21 21.683Z" class="&lt;Path&gt;"/>
        <path fill="#FAA918" d="m929.4 319.233-8.347 14.951c-17.23-1.022-64.959-17.261-78.44-28.106l3.918-16.744c15.667 11.387 63.633 27.607 82.869 29.899Z" class="&lt;Path&gt;"/>
        <path fill="#8A52A0" d="m922.704 330.957-1.651 3.227c-17.23-1.021-64.959-17.26-78.44-28.105l21.378-91.247s3.7 1.613 10.135 4.678c-6.964 23.416-10.601 98.018 48.578 111.447Z" class="&lt;Path&gt;" opacity=".5" style="mix-blend-mode:multiply"/>
      </g>
    </g>
  </g>
</svg>
