<svg xmlns="http://www.w3.org/2000/svg" width="1080" height="690" fill="none" viewBox="0 0 1080 690">
  <g class="marzo">
    <g class="texto">
      <g class="&lt;Group&gt;">
        <g class="&lt;Group&gt;">
          <path fill="#050505" fill-rule="evenodd" d="M754.703 401.98c-11.025 11.265-25.166 17.017-41.943 17.736h-2.637c-15.578 0-29.24-5.033-40.265-14.859-.16-.16-.399-.32-.719-.48l-.479 7.91c-.24 1.438-1.438 2.636-2.876 2.636h-.48l-60.397-5.513c-.48.959-1.438 1.439-2.397 1.439l-39.067 1.917c-.959 0-1.678-.24-2.157-.959l-21.331-22.05.959 21.092c0 1.677-1.199 3.115-2.876 3.115l-32.356 1.438v.24c-.799-.16-1.439-.479-1.918-.959-.719-.479-.959-1.198-.959-1.917l-.479-6.471-21.331-.719c-1.198 0-2.157-.959-2.636-2.158l-2.637-8.628-30.918-1.198-3.355 8.628c-.479.959-1.678 1.678-2.876 1.678l-15.579-.48.479 18.456c0 1.677-1.198 2.875-2.876 2.875l-32.356.959c-.719 0-1.438-.24-1.917-.719-.719-.479-.959-1.198-.959-2.157l-.958-32.596-14.381 23.009c-.479.719-1.438 1.199-2.397 1.199l-8.628.239c-.959 0-1.678-.239-2.397-1.198l-15.578-22.05.958 32.596c0 1.677-1.198 3.115-2.876 3.115l-32.356.959c-.719 0-1.438-.24-1.917-.959-.719-.479-.959-1.198-.959-1.917L301 323.368c0-.959.24-1.678.719-2.158.479-.479 1.198-.958 2.157-.958l29.959-.719c.959 0 1.918.239 2.397 1.198l25.405 34.993 23.489-36.431c.719-.719 1.438-1.438 2.396-1.438l29.96-.719c.958 0 1.677.24 2.157.719.479.479.958 1.198.958 2.157l.719 31.637 23.249-53.447c.479-1.199 1.677-1.678 2.876-1.678l32.835 1.198c1.198 0 2.157.719 2.637 1.918l16.777 47.935-1.678-36.671c-.24-1.677.959-2.876 2.636-3.115l44.34-1.918c.639-.16 1.518-.239 2.636-.239 1.119 0 3.276.239 6.472.718 3.036.48 5.992 1.039 8.868 1.678 3.035.799 6.391 2.157 10.066 4.075 3.515 1.917 6.631 4.234 9.347 6.95a24.71 24.71 0 0 1 3.835 4.315l1.678-20.613c.239-.719.479-1.437 1.198-1.917.479-.479 1.198-.719 2.157-.719l81.969 7.19c.719.24 1.438.48 1.917 1.199.479.479.719 1.198.719 2.157l-.719 8.388c9.587-6.711 20.852-10.306 33.794-10.785 16.777-.719 31.397 4.314 43.141 14.62s18.216 23.488 18.695 39.067c.479 15.339-4.794 29-16.058 40.025Zm-44.58-59.199c-5.512.24-10.305 2.397-14.14 6.471-3.835 4.314-5.753 9.348-5.513 15.339.24 5.992 2.397 10.786 6.471 14.86 4.315 4.075 9.108 5.992 14.621 5.752 5.752-.239 10.305-2.396 14.38-6.71 3.835-4.315 5.512-9.348 5.273-15.34-.24-5.991-2.157-10.785-6.471-14.86-3.835-3.834-8.389-5.512-13.662-5.512h-.959Zm-58.72 15.819-18.215 18.694 19.893 1.917c-1.118-4.154-1.758-8.548-1.917-13.182a38.14 38.14 0 0 1 .239-7.429Zm-59.918-23.728c.799 3.036 1.278 6.391 1.438 10.066.719 14.141-4.314 25.166-14.86 32.596l1.917 1.917c0-.479.24-.879.719-1.198l38.828-40.985-28.042-2.396Zm-38.108 11.983c0-2.396-.56-4.074-1.678-5.033-1.198-1.198-2.636-1.438-4.314-1.438l-9.587.48.479 13.182 9.587-.48c1.918-.159 3.356-.719 4.314-1.677.959-1.119 1.358-2.797 1.199-5.034Zm-90.597-13.421-4.314 26.364 11.025.24-6.711-26.604Z" class="&lt;Compound Path&gt;" clip-rule="evenodd"/>
          <g class="&lt;Group&gt;">
            <g class="&lt;Group&gt;">
              <g class="&lt;Group&gt;">
                <path fill="#FCD904" fill-rule="evenodd" stroke="#050505" stroke-linecap="round" stroke-linejoin="round" stroke-width="2.636" d="M715.636 301.797c15.978-.639 29.639 3.994 40.984 13.901 11.185 9.747 17.096 22.05 17.736 36.91.479 14.7-4.634 27.323-15.339 37.868-10.546 10.706-23.808 16.298-39.786 16.777-16.138.64-29.8-3.994-40.985-13.901-11.344-9.906-17.256-22.21-17.735-36.91-.48-14.859 4.553-27.562 15.099-38.108 10.546-10.546 23.887-16.058 40.026-16.537Zm2.636 76.696c6.391-.16 11.824-2.637 16.298-7.431 4.314-4.953 6.311-10.785 5.992-17.496-.16-6.551-2.557-12.143-7.191-16.777-4.793-4.474-10.386-6.631-16.777-6.471-6.551.319-11.983 2.876-16.298 7.67-4.474 4.793-6.551 10.545-6.231 17.256.16 6.711 2.636 12.303 7.43 16.777 4.633 4.634 10.226 6.791 16.777 6.472Z" class="&lt;Compound Path&gt;" clip-rule="evenodd"/>
              </g>
            </g>
            <g class="&lt;Group&gt;">
              <path fill="#C8AB2D" d="M678.486 368.187c2.397.239 2.397 2.157 1.438 8.388a2483.43 2483.43 0 0 0-2.396 14.62c-2.157-1.198-6.471-7.43-8.149-9.107-2.876-3.116-4.794-10.067-4.794-10.067-.719-2.157-1.198-5.272-1.198-5.272l15.099 1.438Z" class="&lt;Path&gt;"/>
            </g>
            <g class="&lt;Group&gt;">
              <path fill="#FCD904" stroke="#050505" stroke-linecap="round" stroke-linejoin="round" stroke-width="2.636" d="m374.82 402.939-8.629.24L345.1 373.22l1.198 42.422-32.355.719-2.877-101.861 29.96-.719 28.042 38.348 25.884-40.026 29.96-.719 2.876 101.861-32.356.959-1.199-42.422-19.413 31.157Z" class="&lt;Compound Path&gt;"/>
            </g>
            <path fill="#050505" d="M400.465 398.386c-.72 1.917.719 3.835 2.636 4.074l35.472 1.199c1.198 0 2.396-.72 2.876-1.918l3.355-8.389 8.868-103.299c0-.24 0-1.198-.24-.959-2.157 1.918-8.388 7.909-8.628 8.868l-23.248 53.208-21.091 47.216Z" class="&lt;Path&gt;"/>
            <g class="&lt;Group&gt;">
              <path fill="#FCD904" fill-rule="evenodd" stroke="#050505" stroke-linecap="round" stroke-linejoin="round" stroke-width="2.636" d="m486.987 291.731 36.191 103.299-34.992-1.198-3.356-10.785-34.992-1.438-4.314 10.546-34.993-1.199 43.861-100.423 32.595 1.198Zm-26.124 61.836 14.62.479-6.471-21.81-8.149 21.331Z" class="&lt;Compound Path&gt;" clip-rule="evenodd"/>
            </g>
            <g class="&lt;Group&gt;">
              <path fill="#C8AB2D" d="m495.615 320.971-1.198 66.389.239 3.596c0 .479-.24 1.437.479 1.677.959 0 12.464.24 12.464.24l-.719-57.762-3.596 7.67s-7.669-22.769-7.669-21.81Z" class="&lt;Path&gt;"/>
            </g>
            <g class="&lt;Group&gt;">
              <path fill="#C8AB2D" d="m423.714 327.921-22.29 61.117s-2.876 6.472-3.116 7.91c-.719 4.074 2.397 4.074 2.397 4.074s-.719-1.198 0-3.116c1.438-3.355 23.248-52.728 23.248-52.728l-.239-17.257Z" class="&lt;Path&gt;"/>
            </g>
            <g class="&lt;Group&gt;">
              <path fill="#FCD904" fill-rule="evenodd" stroke="#050505" stroke-linecap="round" stroke-linejoin="round" stroke-width="2.636" d="m609.699 399.345-39.306 1.917-23.488-24.447h-2.876l1.198 25.645-32.356 1.438-4.793-101.861 44.339-2.157c1.199 0 2.397 0 8.389.719 5.992.719 11.265 1.917 17.975 5.512 6.711 3.595 11.744 7.91 15.34 16.298 1.917 4.155 2.956 8.788 3.115 13.901.639 14.381-4.793 25.086-16.298 32.117l28.761 30.918Zm-68.067-69.985.959 18.934 12.463-.719c5.273-.24 8.628-3.595 8.388-9.587-.479-6.231-4.074-9.587-9.347-9.347l-12.463.719Z" class="&lt;Compound Path&gt;" clip-rule="evenodd"/>
            </g>
            <g class="&lt;Group&gt;">
              <path fill="#C8AB2D" d="M579.741 399.105c-.719 0-.24-2.396.959-11.025 1.198-8.388 2.636-15.099 2.636-15.099l2.636 2.876c1.918 2.636 5.513 7.669 6.472 8.868 2.636 3.355 4.074 10.306 4.074 10.306.24 2.157.479 5.512.479 5.512-3.115-.479-5.991-1.678-9.107-1.917l-8.149.479Z" class="&lt;Path&gt;"/>
            </g>
            <g class="&lt;Group&gt;">
              <path fill="#C8AB2D" d="M583.337 337.508c-.959-.24-1.918-1.198-2.158-2.157-.239-1.438.24-2.636 1.199-9.107 1.198-8.389 2.397-14.62 2.397-14.62s5.512 4.553 9.107 11.264c2.157 3.595 1.438 5.992 1.438 5.992.48 2.397.24 8.149.24 8.149s-8.389.479-12.223.479Z" class="&lt;Path&gt;"/>
            </g>
            <path fill="#050505" d="m585.972 373.939-2.637 30.199c0 .719.24 1.677.719 2.157.48.479 1.199.958 1.918.958l20.852 1.918v-12.463l-20.852-22.769Zm2.158-72.621-2.637 30.198c-.239.72 0 1.439.48 2.158.719.479 1.438.958 2.157.958l21.091 1.678-.479-12.463-20.612-22.529Z" class="&lt;Path&gt;"/>
            <g class="&lt;Group&gt;">
              <path fill="#FCD904" stroke="#050505" stroke-linecap="round" stroke-linejoin="round" stroke-width="2.636" d="m633.668 370.584 41.224 3.834-2.397 28.522-85.084-7.67 2.157-24.207 43.141-45.298-37.629-3.356 2.637-28.521 81.968 7.19-2.157 24.207-43.86 45.299Z" class="&lt;Compound Path&gt;"/>
            </g>
          </g>
        </g>
        <g class="&lt;Group&gt;">
          <path stroke="#F8EEBA" stroke-linecap="round" stroke-linejoin="round" stroke-width="2.636" d="m347.257 332.715-8.628-12.702c-.479-.719-1.438-1.199-2.157-1.199h-9.347" class="&lt;Path&gt;"/>
        </g>
        <g class="&lt;Group&gt;">
          <path stroke="#F8EEBA" stroke-linecap="round" stroke-linejoin="round" stroke-width="2.636" d="m414.366 316.657-13.182.48" class="&lt;Path&gt;"/>
        </g>
        <g class="&lt;Group&gt;">
          <path stroke="#F8EEBA" stroke-linecap="round" stroke-linejoin="round" stroke-width="2.636" d="m477.88 297.003-13.182-.24" class="&lt;Path&gt;"/>
        </g>
        <g class="&lt;Group&gt;">
          <path stroke="#F8EEBA" stroke-linecap="round" stroke-linejoin="round" stroke-width="2.636" d="m547.624 305.632-29 1.677" class="&lt;Path&gt;"/>
        </g>
        <g class="&lt;Group&gt;">
          <path stroke="#F8EEBA" stroke-linecap="round" stroke-linejoin="round" stroke-width="2.636" d="m642.056 303.954-36.67-3.355c-.959 0-1.678.719-1.918 1.438l-.239 3.835" class="&lt;Path&gt;"/>
        </g>
        <g class="&lt;Group&gt;">
          <path stroke="#F8EEBA" stroke-linecap="round" stroke-linejoin="round" stroke-width="2.636" d="m641.816 376.575 26.125 2.158c.719 0 .959.718.959 1.677v3.595" class="&lt;Path&gt;"/>
        </g>
        <g class="&lt;Group&gt;">
          <path stroke="#F8EEBA" stroke-linecap="round" stroke-linejoin="round" stroke-width="2.636" d="m461.582 334.153-5.033 12.223" class="&lt;Path&gt;"/>
        </g>
        <path stroke="#F8EEBA" stroke-linecap="round" stroke-linejoin="round" stroke-width="2.636" d="M357.084 346.376 367.15 358.6c.959 1.198 2.636 1.198 3.355 0l7.67-10.786" class="&lt;Path&gt;"/>
        <g class="&lt;Group&gt;">
          <path fill="#F8EEBA" d="M382.009 343.74c0 .719-.719 1.438-1.438 1.438s-1.438-.719-1.438-1.438.719-1.438 1.438-1.438 1.438.719 1.438 1.438Z" class="&lt;Path&gt;"/>
        </g>
        <path fill="#F8EEBA" d="M749.19 318.814c0 .719-.479 1.438-1.438 1.438-.719 0-1.438-.719-1.438-1.438s.719-1.438 1.438-1.438c.959 0 1.438.719 1.438 1.438Z" class="&lt;Path&gt;"/>
        <path stroke="#F8EEBA" stroke-linecap="round" stroke-linejoin="round" stroke-width="2.636" d="m467.813 358.6 10.786.239c1.917 0 3.355-1.678 2.636-3.595l-2.397-8.868m79.333 6.232c8.149-2.397 10.785-7.19 10.785-13.422m157.465 44.34c8.389-1.438 15.819-8.868 17.017-15.099m-2.157-53.927c-5.752-5.992-26.604-8.149-34.753-4.314" class="&lt;Path&gt;"/>
      </g>
      <path fill="#050505" d="M500.409 302.756c-1.438 0-2.876 1.438-2.637 2.876l1.678 41.943 2.876 58.72.24 6.232c0 .958.24 1.677.959 2.157.479.479 1.118.718 1.917.718h.24l7.19-.479-4.075-113.366-.719-1.438-7.669 2.637Zm87.002 5.512h9.826l1.438-14.62c0-.959-1.198-1.438-1.917-.719l-8.868 7.43-.479 7.909Zm81.728 107.135-16.297-1.678 11.983-11.505h9.108l-2.637 10.786c-.479 1.438-.719 2.397-2.157 2.397Zm-130.622-1.439h-.48l-1.198-11.744 8.628-1.438c.24 0 .719.959.48 1.678l-5.033 9.826c-.48.959-1.438 1.678-2.397 1.678Zm-117.2 10.786-5.513.239 1.918-12.702h8.868c.479 0 .958-1.678 1.198-1.678.479.24.959 1.918.719 2.637l-5.033 10.305c-.48.719-1.199 1.199-2.157 1.199Z" class="&lt;Path&gt;"/>
      <g class="&lt;Group&gt;">
        <path fill="#050505" d="M339.108 427.147h-4.314l5.992-10.546 6.231-4.554s.24 2.637 0 3.356l-5.273 10.066c-.479.959-1.677 1.678-2.636 1.678Z" class="&lt;Path&gt;"/>
      </g>
      <path fill="#050505" d="m390.399 319.773-3.596-.24c-.719-.24-1.438-.479-1.198-.719 0 0 7.67-7.67 7.909-8.149.48-.24 1.199-.24 1.199-.24l-4.314 9.348Z" class="&lt;Path&gt;"/>
    </g>
    <g class="zamba">
      <path fill="#1C1C1A" fill-opacity=".2" d="M325.467 558.635c0 11.998-36.743 21.496-81.733 21.496-45.241 0-81.734-9.498-81.734-21.496 0-11.747 36.493-21.245 81.734-21.245 44.99 0 81.733 9.498 81.733 21.245Z" class="sombra"/>
      <g class="banco">
        <g class="&lt;Group&gt;">
          <g class="&lt;Group&gt;">
            <g class="&lt;Group&gt;">
              <path fill="#7A4733" d="M212.24 477.402c-1 4.999-4.749 8.499-8.749 7.999-3.749-.5-5.998-4.999-4.999-9.748 1-4.999 4.749-8.499 8.749-7.749 3.749.5 5.998 4.749 4.999 9.498Z" class="&lt;Path&gt;"/>
              <path fill="#8A8069" d="M209.49 468.654c1 1.75 1.25 4 .75 6.499-1 4.749-4.999 8.249-8.749 7.749a8.938 8.938 0 0 1-2.249-.75c.75 1.749 2.499 2.999 4.249 3.249 3.999.5 7.749-2.999 8.748-7.998 1-3.75-.25-7.249-2.749-8.749Z" class="&lt;Path&gt;" opacity=".3"/>
            </g>
            <g class="&lt;Group&gt;">
              <path fill="#7A4733" d="M195.993 543.389c-.999 4.749-4.999 8.248-8.748 7.748-3.749-.5-6.249-4.749-5.249-9.748 1-4.749 4.999-8.248 8.748-7.748 4 .5 6.249 4.999 5.249 9.748Z" class="&lt;Path&gt;"/>
              <path fill="#8A8069" d="M192.994 534.64c1 1.749 1.25 3.999.75 6.248-1 4.999-4.749 8.499-8.748 7.999a5.5 5.5 0 0 1-2.25-1c1 1.75 2.5 2.999 4.499 3.249 3.749.5 7.749-2.999 8.748-7.748.75-3.749-.499-7.249-2.999-8.748Z" class="&lt;Path&gt;" opacity=".3"/>
            </g>
            <path fill="#7A4733" d="m193.494 543.888-9.248-1.25c-3.25-.5-5.499-2.999-4.749-5.499l14.497-57.488c.5-2.5 3.499-4.249 6.748-3.999l9.248 1.249c3.25.5 5.499 3 4.999 5.499l-14.747 57.488c-.5 2.75-3.499 4.499-6.748 4Z" class="&lt;Path&gt;"/>
            <path fill="#8A8069" d="M212.49 477.902c.333.666.417 1.416.25 2.249l-14.747 57.489c-.5 2.499-3.499 4.249-6.499 3.749l-9.498-1.25a14.214 14.214 0 0 1-2.499-.75c.75 1.5 2.499 3 4.749 3.25l9.248 1.249c3.249.5 6.249-1.249 6.749-3.999l14.747-57.488c.25-1.75-.75-3.499-2.5-4.499Z" class="&lt;Path&gt;" opacity=".3"/>
          </g>
          <path fill="#9E5D41" d="M201.742 516.143c0 2.25-2 4.25-4.249 4.25-2.5 0-4.249-2-4.249-4.25 0-2.499 1.749-4.249 4.249-4.249 2.249 0 4.249 1.75 4.249 4.249Z" class="&lt;Path&gt;"/>
          <path fill="#7A4733" d="M197.493 517.894c-2 0-3.5-1.25-3.999-3-.167.334-.25.75-.25 1.25 0 2.25 1.749 4.249 4.249 4.249 2.249 0 4.249-1.999 4.249-4.249 0-.5-.083-.916-.25-1.25-.5 1.75-2 3-3.999 3Z" class="&lt;Path&gt;" opacity=".5"/>
          <g class="&lt;Group&gt;">
            <g class="&lt;Group&gt;">
              <path fill="#7A4733" d="M287.475 536.64c-.75-4.25-4.249-7.249-7.749-6.999-3.249.5-5.249 4.249-4.499 8.498 1 4.249 4.499 7.249 7.749 6.749 3.249-.25 5.499-3.999 4.499-8.248Z" class="&lt;Path&gt;"/>
              <path fill="#8A8069" d="M284.975 544.138c.75-1.499 1-3.499.75-5.499-.999-4.249-4.499-7.248-7.748-6.748-.667 0-1.333.25-2 .75.75-1.5 2.25-2.75 3.75-3 3.499-.25 6.998 2.75 7.748 6.999.75 3.249-.5 6.249-2.5 7.498Z" class="&lt;Path&gt;" opacity=".3"/>
            </g>
            <g class="&lt;Group&gt;">
              <path fill="#7A4733" d="M273.227 480.9c-.999-4.249-4.249-7.498-7.748-6.998-3.249.499-5.249 4.249-4.499 8.498 1 4.249 4.499 7.249 7.748 6.749 3.25-.25 5.249-4.25 4.499-8.249Z" class="&lt;Path&gt;"/>
              <path fill="#8A8069" d="M270.728 488.399c.75-1.5.999-3.499.5-5.499-.75-4.249-4.25-7.249-7.499-6.749-.833 0-1.5.25-2 .75.75-1.749 2.25-2.749 3.75-2.999 3.499-.5 6.748 2.749 7.748 6.998.75 3.25-.5 6.249-2.499 7.499Z" class="&lt;Path&gt;" opacity=".3"/>
            </g>
            <path fill="#7A4733" d="m270.978 480.402-7.998.999c-2.75.5-4.749 2.5-4.249 4.749l12.747 48.491c.5 2.249 3.249 3.749 5.999 3.499l7.998-1.25c2.75-.25 4.749-2.499 4.249-4.749l-12.747-48.49c-.5-2.25-3.249-3.749-5.999-3.249Z" class="&lt;Path&gt;"/>
            <path fill="#8A8069" d="M287.725 536.14c.167-.5.167-1.083 0-1.749L274.978 485.9c-.25-2.249-3-3.749-5.749-3.499l-8.248 1.25c-.834 0-1.5.25-2 .75.5-1.5 2-2.75 3.999-3l7.999-.999c2.749-.5 5.498.999 5.998 3.249l12.748 48.49c.25 1.75-.5 3.249-2 3.999Z" class="&lt;Path&gt;" opacity=".3"/>
          </g>
          <path fill="#8A8069" d="M281.726 516.143c0 2.25-1.75 4.25-4.249 4.25-2.25 0-4.249-2-4.249-4.25 0-2.499 1.999-4.249 4.249-4.249 2.499 0 4.249 1.75 4.249 4.249Z" class="&lt;Path&gt;" opacity=".3"/>
          <path fill="#050505" d="M277.477 517.894c-1.75 0-3.5-1.25-3.999-3-.167.334-.25.75-.25 1.25 0 2.25 1.999 4.249 4.249 4.249 2.499 0 4.249-1.999 4.249-4.249v-1.25c-.5 1.75-2.25 3-4.249 3Z" class="&lt;Path&gt;" opacity=".1"/>
          <g class="&lt;Group&gt;">
            <path fill="#7A4733" d="M265.729 514.394h-51.24c-2.249 0-4.249-2-4.249-4.25 0-2.249 2-4.249 4.249-4.249h51.24c2.25 0 4.249 2 4.249 4.249 0 2.25-1.999 4.25-4.249 4.25Z" class="&lt;Path&gt;"/>
            <path fill="#8A8069" d="M267.229 510.894H213.24c-1.25 0-2-.25-2.75-.75h-.25c0 2.25 2 4.249 4.249 4.249h51.24c2.25 0 4.249-1.999 4.249-4.249-.75.5-1.749.75-2.749.75Z" class="&lt;Path&gt;" opacity=".3"/>
          </g>
          <path fill="#050505" d="M214.989 481.901v-.75c0-.333-.083-.583-.25-.75 0-.166-.083-.333-.25-.5a3.127 3.127 0 0 0-.75-1.25 3.126 3.126 0 0 0-1.249-.749c0-.167-.084-.25-.25-.25v-.25c.166-.334.25-.75.25-1.25v-2.749c-.167-.334-.25-.75-.25-1.25h-.25c-.167-.667-.5-1.333-1-2-1-1.25-2.25-2.249-3.749-2.249-3.999-.75-7.749 2.749-8.749 7.748v.25c-2.249.25-3.999 1.75-4.499 3.749l-.749 3.75c-.5 2.499.999 4.998 3.249 5.498 3.499 1.167 7.415 2.084 11.748 2.75 2.499.5 4.999-1.25 5.498-3.749l1.25-5.499v-.5Zm58.989-1.25c-.5-.25-1-.5-1-1a17.446 17.446 0 0 0-1.25-2.499c-1.499-2.25-3.749-3.5-6.248-3.25-.167 0-.334.084-.5.25h-.25c-.167 0-.25.084-.25.25h-.25c-.167 0-.333.083-.5.25-.167 0-.333.083-.5.25-1.75 1.5-2.749 4.249-2.249 7.249-.167 0-.417.083-.75.249v.25c-.167.167-.334.251-.5.251 0 .166-.084.249-.25.249-.167.167-.25.334-.25.5l-.25.25v.5c-.333.5-.417 1.083-.25 1.75l2 6.498c.25.75.999 1.5 1.749 1.25 5.499-.25 9.748-.75 14.497-1.5 1-.249 1.5-.999 1.25-1.999l-1.25-6.749c-.25-1.25-1.499-2.499-2.999-2.999Z" class="&lt;Path&gt;" opacity=".2"/>
          <g class="&lt;Group&gt;">
            <g class="&lt;Group&gt;">
              <path fill="#9E5D41" d="M224.237 486.649c-1.25 5.499-5.499 9.248-9.998 8.749-4.249-.5-6.749-5.499-5.749-10.748 1.25-5.499 5.499-9.498 9.998-8.749 4.249.5 6.749 5.249 5.749 10.748Z" class="&lt;Path&gt;"/>
              <path fill="#7A4733" d="M220.988 476.652c.999 1.999 1.249 4.498.75 7.248-1 5.499-5.499 9.248-9.749 8.748-.999-.166-1.832-.5-2.499-.999 1 1.999 2.749 3.499 4.749 3.749 4.499.5 8.748-3.25 9.998-8.748.75-4.25-.5-7.999-3.249-9.998Z" class="&lt;Path&gt;" opacity=".5"/>
            </g>
            <g class="&lt;Group&gt;">
              <path fill="#9E5D41" d="M205.742 561.884c-1 5.249-5.499 9.248-9.748 8.748-4.25-.75-6.749-5.499-5.749-10.998 1.25-5.249 5.499-9.248 9.748-8.748 4.499.75 6.998 5.499 5.749 10.998Z" class="&lt;Path&gt;"/>
              <path fill="#7A4733" d="M202.742 551.885c1 2 1.25 4.499.75 7.249-1.25 5.249-5.499 9.248-9.748 8.748-1-.167-1.833-.5-2.5-1 1 2 2.75 3.249 4.749 3.749 4.249.5 8.748-3.499 9.748-8.748 1-4.249-.5-8.248-2.999-9.998Z" class="&lt;Path&gt;" opacity=".5"/>
            </g>
            <path fill="#9E5D41" d="m202.991 562.383-10.248-1.5c-3.499-.5-5.999-2.999-5.499-5.999l16.497-65.736c.5-2.999 3.999-4.999 7.499-4.499l10.247 1.499c3.75.5 5.999 3.25 5.499 5.999l-16.246 65.987c-.75 2.749-4 4.749-7.749 4.249Z" class="&lt;Path&gt;"/>
            <path fill="#FDFCEB" d="M205.491 511.894c-1-.25-1.75-1-1.5-2l2.5-11.747c0-.75 1.249-1.5 2.249-1.25 1 0 1.75 1 1.5 1.75l-2.25 11.747c-.25 1-1.249 1.5-2.499 1.5Z" class="&lt;Path&gt;" opacity=".3"/>
            <path fill="#7A4733" d="M224.487 487.15c.167.666.167 1.416 0 2.25l-16.246 65.986c-.5 2.75-4 4.749-7.499 4.249l-10.498-1.249a7.784 7.784 0 0 1-2.749-1c.75 1.749 2.749 3.249 5.249 3.499l10.248 1.5c3.749.5 6.998-1.5 7.748-4.249l16.247-65.987c.5-2-.75-3.999-2.5-4.999Z" class="&lt;Path&gt;" opacity=".5"/>
            <path fill="#050505" d="M226.987 491.398v-1.499h-.25c0-.167-.084-.334-.25-.5v-.25a3.933 3.933 0 0 0-.75-1c-.5-.5-.916-.833-1.25-1-.166-.166-.333-.25-.5-.25 0-.166.084-.25.25-.25V485.4c0-.167.084-.334.25-.5v-1.25c0-.333-.083-.583-.25-.75v-1l-.25-.25v-.75l-.25-.249c-.166-.667-.416-1.167-.749-1.5v-.25c0-.167-.084-.333-.25-.5-1-1.5-2.5-2.25-4.25-2.499-4.499-.75-8.748 3.249-9.998 8.748v.25c-2.499.5-4.249 1.999-4.749 4.249l-.749 3.749c-.5 2.25.999 4.249 3.249 4.749 4.666 1 9.831 1.75 15.497 2.25 1.999.25 3.999-1.25 4.249-3.25l1-4.499v-.75Z" class="&lt;Path&gt;" opacity=".1"/>
          </g>
          <g class="&lt;Group&gt;">
            <path fill="#9E5D41" d="M279.226 532.891h-64.487c-2.999 0-5.249-2.25-5.249-5.25 0-2.999 2.25-5.248 5.249-5.248h64.487c2.999 0 5.249 2.249 5.249 5.248 0 3-2.25 5.25-5.249 5.25Z" class="&lt;Path&gt;"/>
            <path fill="#FDFCEB" d="M245.733 526.392h-15.247c-.5 0-1.25-.5-1.25-1 0-.749.75-1.249 1.25-1.249h15.247c.75 0 1.25.5 1.25 1.249 0 .5-.5 1-1.25 1Z" class="&lt;Path&gt;" opacity=".3"/>
            <path fill="#7A4733" d="M281.226 528.64h-68.237c-1.499 0-2.749-.5-3.499-1.249v.25c0 2.999 2.25 5.249 5.249 5.249h64.487c2.999 0 5.249-2.25 5.249-5.249v-.25c-.75.749-2 1.249-3.249 1.249Z" class="&lt;Path&gt;" opacity=".5"/>
          </g>
          <g class="&lt;Group&gt;">
            <g class="&lt;Group&gt;">
              <path fill="#9E5D41" d="M304.471 557.385c-1-5.249-5.249-8.748-9.248-8.249-3.999.5-6.499 4.999-5.249 10.248 1 4.999 4.999 8.748 9.248 8.248 3.999-.749 6.249-5.248 5.249-10.247Z" class="&lt;Path&gt;"/>
              <path fill="#7A4733" d="M301.472 566.633c1-1.75 1.25-4.25.75-6.749-1-4.999-5.249-8.748-9.248-8.248a5.491 5.491 0 0 0-2.25.999c1-1.999 2.5-3.249 4.499-3.499 3.999-.5 8.249 3 9.248 8.248 1 4-.5 7.499-2.999 9.249Z" class="&lt;Path&gt;" opacity=".5"/>
            </g>
            <g class="&lt;Group&gt;">
              <path fill="#9E5D41" d="M287.225 487.15c-1-5.249-5.249-8.999-9.248-8.249-4 .5-6.499 4.999-5.499 9.998 1.25 5.249 5.249 8.999 9.248 8.249 4.249-.5 6.499-4.999 5.499-9.998Z" class="&lt;Path&gt;"/>
              <path fill="#7A4733" d="M284.225 496.397c1-1.999 1.25-4.249.75-6.748-1-5.249-5.249-8.748-9.248-8.249a8.938 8.938 0 0 0-2.249.75c.749-1.749 2.499-2.999 4.499-3.249 3.999-.75 8.248 2.999 9.248 8.248.75 4-.5 7.499-3 9.248Z" class="&lt;Path&gt;" opacity=".5"/>
            </g>
            <path fill="#9E5D41" d="m284.725 486.399-9.998 1.5c-3.25.5-5.499 2.999-4.999 5.748l15.497 61.488c.5 2.499 3.749 4.499 6.998 3.999l9.998-1.249c3.25-.5 5.499-3 4.999-5.749l-15.497-61.488c-.5-2.749-3.749-4.499-6.998-4.249Z" class="&lt;Path&gt;"/>
            <path fill="#FDFCEB" d="M279.226 495.648c-1 .25-1.75 1-1.5 2l2.5 12.497c.25 1 1.25 1.75 2.499 1.5 1-.25 1.75-1 1.75-1.999l-2.749-12.498c-.25-1-1.25-1.75-2.5-1.5Z" class="&lt;Path&gt;" opacity=".3"/>
            <path fill="#7A4733" d="M304.721 556.885c.333-.667.417-1.417.25-2.25l-15.497-61.487c-.5-2.75-3.749-4.499-6.998-4l-9.998 1.25c-1 .167-1.833.417-2.5.75.75-1.5 2.5-2.999 4.749-3.249l9.998-1.5c3.249-.25 6.499 1.5 6.999 4.249l15.497 61.488c.499 1.749-.5 3.749-2.5 4.749Z" class="&lt;Path&gt;" opacity=".5"/>
            <path fill="#050505" d="M291.224 495.648h.25c.75 0 1.25-1 1-1.75l-.75-3.249c0-.5-.167-1-.5-1.5-.75-1.249-2-1.999-3.499-2.499h-.5c-.167-.167-.25-.334-.25-.5a23.97 23.97 0 0 0-.5-1.75c-.167-.333-.333-.583-.5-.75-1-1.749-2.249-2.999-3.499-3.749-1-.667-2-1-3-1-.166-.166-.416-.25-.749-.25-.167 0-.417.084-.75.25h-.75c-.333.167-.583.25-.75.25-.167.167-.333.25-.5.25 0 .167-.083.25-.25.25-.167 0-.333.083-.5.25-2.249 1.75-3.249 4.999-2.749 8.748h-.25c-.167.167-.333.25-.5.25v.25c-.333.167-.667.5-1 1-1 1-1.25 2.249-1 3.499l1 4.499c0 .75.75 1.25 1.75 1.25 6.998-1 13.497-2.249 18.746-3.749Z" class="&lt;Path&gt;" opacity=".1"/>
          </g>
          <g class="&lt;Group&gt;">
            <path fill="#BB6C4D" d="M303.471 462.155c0-8.248-27.744-15.247-62.237-15.247-34.243 0-61.988 6.999-61.988 15.247v10.998c0 8.248 27.745 15.247 61.988 15.247 34.493 0 62.237-6.999 62.237-15.247v-10.998Z" class="&lt;Path&gt;"/>
            <path fill="#7A4733" d="M277.227 449.906v35.493c15.746-2.749 26.244-7.248 26.244-12.247v-10.998c0-4.999-10.498-9.498-26.244-12.248Z" class="&lt;Path&gt;" opacity=".5"/>
            <path fill="#FDFCEB" d="M184.996 473.652v2.999c0 1 .749 1.75 1.749 2 1.75.25 3.25-.5 3.25-2v-2.999c0-1-1-2-2.5-2-1.25 0-2.499 1-2.499 2Z" class="&lt;Path&gt;" opacity=".3"/>
            <path fill="#D1A488" d="M303.471 462.155c0 8.498-27.744 15.497-62.237 15.497-34.243 0-61.988-6.999-61.988-15.497 0-8.248 27.745-15.247 61.988-15.247 34.493 0 62.237 6.999 62.237 15.247Z" class="&lt;Path&gt;"/>
            <path fill="#C9865A" d="M301.722 461.403c0 7.499-26.995 13.748-60.488 13.748-33.243 0-60.488-6.249-60.488-13.748 0-7.748 27.245-13.997 60.488-13.997 33.493 0 60.488 6.249 60.488 13.997Z" class="&lt;Path&gt;"/>
          </g>
        </g>
      </g>
      <g class="cuerpo">
        <g class="mochila atras">
          <path fill="#C02F2D" d="M174.483 522.166c0 15.747-12.748 28.495-28.495 28.495H73.503c-15.747 0-28.494-12.748-28.494-28.495v-42.241c0-15.747 12.747-28.494 28.494-28.494h72.485c15.747 0 28.495 12.747 28.495 28.494v42.241Z" class="&lt;Path&gt;"/>
          <path fill="#050505" fill-rule="evenodd" d="M145.989 551.911H73.503c-16.246 0-29.494-13.498-29.494-29.744v-42.242c0-16.246 13.248-29.494 29.494-29.494h72.486c16.246 0 29.494 13.248 29.494 29.494v42.242c0 16.246-13.248 29.744-29.494 29.744Zm-72.486-99.23c-14.997 0-27.494 12.247-27.494 27.244v42.242c0 15.247 12.497 27.494 27.494 27.494h72.486c14.997 0 27.494-12.247 27.494-27.494v-42.242c0-14.997-12.497-27.244-27.494-27.244H73.503Z" class="&lt;Compound Path&gt;" clip-rule="evenodd"/>
        </g>
        <g class="brazo der">
          <g class="&lt;Group&gt;">
            <g class="&lt;Group&gt;">
              <g class="&lt;Group&gt;">
                <g class="&lt;Group&gt;">
                  <path fill="#AB795A" d="M196.48 494.174c2.999-1 9.498-2.75 12.997-7.749 3.499-3.999 3.999-9.748 1.25-14.247-3.25-4.999-10.748-7.498-12.998-4.249-1.249 1.25-2.749 2.25-4.499 3.749-1.999 1.25-5.249 2.75-5.998 3.25-3 1.999-8.249 7.498-4.5 13.747 4.999 7.748 13.748 5.499 13.748 5.499Z" class="&lt;Path&gt;"/>
                  <path fill="#050505" fill-rule="evenodd" d="m210.976 470.678.5 1c3 4.749 2.5 10.997-1.249 15.496-3.5 5.249-10.498 6.999-13.498 7.999-.25 0-9.748 2.249-14.747-5.999-3.999-6.499.5-12.497 4.499-14.997.334-.166.917-.5 1.75-1 1.25-.75 2.999-1.499 4.249-2.499l.25-.25c1.75-1 2.999-2 3.999-3.25 1-1.249 2.75-1.749 4.749-1.749 3.5.25 7.249 2.249 9.498 5.249Zm-26.494 18.496c4.499 5.749 11.497 3.999 11.747 3.749 2.75-.499 9.249-2.249 12.498-6.998 2.999-3.75 3.499-8.998 1-12.998-2-3.249-5.749-5.248-8.249-5.498-.75 0-2.249-.001-2.999.999-1.25 1.5-2.75 2.5-4.499 3.749l-.25.251c-1.25.999-3.249 1.999-4.749 2.749-.5.25-1 .5-1.25.75-2.249 1.249-7.498 6.249-3.999 11.997.167.5.416.917.75 1.25Z" class="&lt;Compound Path&gt;" clip-rule="evenodd"/>
                </g>
              </g>
            </g>
            <g class="&lt;Group&gt;">
              <g class="&lt;Group&gt;">
                <path fill="#AB795A" d="m187.731 477.926.25-8.498c.25-2 1.999-3.749 3.749-3.749 1.999.25 2.999 1.499 3.249 2.499.75 1.75.75 3.999.75 3.999" class="&lt;Path&gt;"/>
                <path fill="#050505" d="M195.229 466.678c.333.334.583.75.75 1.25.75 1.75.75 4.249.75 4.249 0 .75-.5 1-1 1-.75 0-1.25-.25-1.25-1 0 0 0-1.999-.5-3.749 0 0-.5-1.5-2.249-1.5-1.25-.25-2.5 1-2.75 2.5l-.25 8.498c0 .5-.5 1-.999 1-.75 0-1-.5-1-1.25l.25-8.248v-.25c.25-2.5 2.499-4.499 4.999-4.499 1.499.25 2.749 1 3.249 1.999Z" class="&lt;Path&gt;"/>
              </g>
            </g>
            <path fill="#050505" d="M202.728 493.173s-7.499-2-10.248-10.248c-2.749-8.248-2-10.498-2-10.498s-7.998 1.5-8.748 8.498c-.5 6.749 3.249 13.998 8.748 13.498 5.749-.5 12.248-1.25 12.248-1.25Z" class="&lt;Path&gt;" opacity=".2" style="mix-blend-mode:multiply"/>
          </g>
          <g class="&lt;Group&gt;">
            <g class="&lt;Group&gt;">
              <g class="&lt;Group&gt;">
                <path fill="#F5F6F7" d="M146.739 509.919c8.748 14.997 21.245 6.999 21.245 6.999l34.243-18.996-18.746-30.494-33.493 20.496s-12.747 5.749-3.249 21.995Z" class="&lt;Path&gt;"/>
                <path fill="#050505" fill-rule="evenodd" d="M203.227 498.171c-.166.334-.333.584-.5.75l-34.243 18.996c-.5.25-5.499 3.25-11.497 1.75-4.333-1-8.082-4.082-11.248-9.248-3.333-5.999-4.333-11.248-2.999-15.747 1.749-5.249 5.998-7.498 6.748-7.748l33.493-20.246c.5-.5 1.25-.25 1.5.25l18.496 30.494c.167.166.25.333.25.499v.25Zm-52.739-9.498c0 .167-.083.25-.25.25 0 0-3.999 2-5.499 6.499-1.166 3.999-.167 8.665 3 13.997 2.666 4.666 5.915 7.415 9.748 8.249 5.249 1.249 9.998-1.5 9.998-1.5l33.243-18.496-17.497-28.745-32.743 19.746Z" class="&lt;Compound Path&gt;" clip-rule="evenodd"/>
              </g>
            </g>
          </g>
        </g>
        <g class="pierna izq">
          <g class="&lt;Group&gt;">
            <g class="&lt;Group&gt;">
              <path fill="#050505" d="M64.756 574.157s0 7.248-9.748 9.748h45.99v-9.748c-.25-4.999-.5-14.997-18.496-14.997-17.246 0-16.247 5.749-17.746 14.997Z" class="&lt;Path&gt;"/>
              <path fill="#050505" fill-rule="evenodd" d="M100.998 585.903h-45.99c-1 0-1.75-.749-2-1.749 0-1 .5-2 1.5-2.25 7.748-1.999 8.248-7.248 8.248-7.748v-.25c.166-1 .25-1.916.25-2.749.75-4 1.25-7.749 3.999-10.249 2.75-2.749 7.499-3.999 15.497-3.999 19.996 0 20.246 11.998 20.496 16.997v9.998c0 1-.75 1.999-2 1.999Zm-37.742-4.249h35.743v-7.498c-.25-2.5-.25-5.749-2.25-8.249-2.5-3.166-7.248-4.748-14.247-4.748-6.749 0-10.748.999-12.498 2.749s-2.25 4.249-2.75 7.748c-.166.834-.332 1.75-.499 2.75 0 1-.5 4.249-3.5 7.248Z" class="&lt;Compound Path&gt;" clip-rule="evenodd"/>
            </g>
          </g>
          <g class="&lt;Group&gt;">
            <g class="&lt;Group&gt;">
              <g class="&lt;Group&gt;">
                <g class="&lt;Group&gt;">
                  <path fill="#2B6EB6" d="m109.997 537.414-6.499 39.992-41.741-2.499v-39.992c0-5.499.25-21.246 26.494-18.747 22.996 2.25 22.246 15.747 21.746 21.246Z" class="&lt;Path&gt;"/>
                  <path fill="#050505" fill-rule="evenodd" d="m103.498 578.405-41.741-2.499c-.75 0-1-.5-1-1v-39.992c0-3.499 0-10.248 5.499-14.997 4.499-4.249 11.997-5.749 22.245-4.749 24.495 2.5 22.996 17.497 22.496 22.246v.25l-6.499 39.742c0 .5-.5.999-1 .999Zm-40.742-4.499 39.992 2.25 6.249-38.742c.5-4.999 1.5-17.997-20.746-20.246-9.498-.75-16.496.5-20.746 4.249-4.499 4.249-4.749 10.248-4.749 13.497v38.992Z" class="&lt;Compound Path&gt;" clip-rule="evenodd"/>
                </g>
              </g>
            </g>
            <path fill="#0A0C0F" d="M74.754 516.668c-12.747 3.25-12.997 13.748-12.997 18.247v39.992l10.998.499 2-58.738Z" class="&lt;Path&gt;" opacity=".3"/>
          </g>
        </g>
        <g class="pierna der">
          <g class="&lt;Group&gt;">
            <g class="&lt;Group&gt;">
              <path fill="#050505" d="M151.988 574.157s0 7.248 9.498 9.748h-45.74v-9.748c0-4.999.25-14.997 18.496-14.997 17.246 0 15.997 5.749 17.746 14.997Z" class="&lt;Path&gt;"/>
              <path fill="#050505" fill-rule="evenodd" d="M161.485 585.903h-45.74c-1.25 0-2.25-.999-2.25-1.999v-9.998c.25-4.999.75-16.997 20.746-16.997 7.748 0 12.497 1.25 15.497 3.999 2.749 2.5 3.249 6.249 3.749 10.249.167.833.333 1.749.5 2.749v.25c0 .5.25 5.749 7.998 7.748 1 .25 1.75 1.25 1.5 2.25 0 1-1 1.749-2 1.749Zm-43.741-4.249h35.493c-2.999-2.999-3.249-6.248-3.499-7.248-.167-1-.25-1.916-.25-2.75-.5-3.499-1-5.998-2.75-7.748-1.999-1.75-5.998-2.749-12.497-2.749-7.165 0-11.914 1.582-14.247 4.748-2 2.5-2.25 5.749-2.25 8.249v7.498Z" class="&lt;Compound Path&gt;" clip-rule="evenodd"/>
            </g>
          </g>
          <g class="&lt;Group&gt;">
            <g class="&lt;Group&gt;">
              <g class="&lt;Group&gt;">
                <path fill="#2B6EB6" d="m106.497 537.414 6.498 39.992 41.992-2.499v-39.992c-.25-5.499-.25-21.246-26.745-18.747-22.995 2.25-22.245 15.747-21.745 21.246Z" class="&lt;Path&gt;"/>
                <path fill="#050505" fill-rule="evenodd" d="M112.996 578.405c-.5 0-.75-.499-1-.999l-6.499-39.742v-.25c-.5-4.749-1.749-19.746 22.746-22.246 9.998-1 17.496.5 22.245 4.749 5.249 4.749 5.499 11.498 5.499 14.997v39.992c0 .5-.5 1-1 1l-41.741 2.499h-.25Zm-5.499-40.991 6.498 38.742 39.992-2.25v-38.992c-.25-3.249-.25-9.248-4.999-13.497-4.249-3.749-10.997-4.999-20.495-4.249-22.496 2.249-21.246 15.247-20.996 20.246Z" class="&lt;Compound Path&gt;" clip-rule="evenodd"/>
              </g>
              <path fill="#0A0C0F" d="m141.99 516.918 1.75 58.488h.5l10.748-.5v-39.992c-.25-4.249-.25-14.997-12.998-17.996Z" class="&lt;Path&gt;" opacity=".3"/>
            </g>
          </g>
        </g>
        <g class="brazo izq">
          <g class="&lt;Group&gt;">
            <g class="&lt;Group&gt;">
              <g class="&lt;Group&gt;">
                <g class="&lt;Group&gt;">
                  <g class="&lt;Group&gt;">
                    <path fill="#AB795A" d="M24.264 530.665c-1 2.75-3.25 9.248-1.25 14.997 1.5 5.249 5.999 8.748 10.998 8.998 6.249.25 12.247-4.499 11.248-8.248-.5-1.749-.5-3.499-.5-5.749 0-2.249.5-5.748.5-6.748.25-3.5-1.25-10.998-8.499-11.498-9.248-.5-12.497 8.248-12.497 8.248Z" class="&lt;Path&gt;"/>
                    <path fill="#050505" fill-rule="evenodd" d="M34.012 555.66c-5.5-.25-10.248-4.249-11.998-9.748-2-5.999.25-12.747 1.5-15.746 0-.25 3.499-9.248 13.247-8.749 7.498.5 9.998 7.749 9.748 12.498-.166.333-.25.916-.25 1.749-.25 1.5-.5 3.5-.5 4.999v.25c0 2.25 0 3.75.5 5.249.5 1.5 0 3.25-1.25 4.999-2.25 2.5-5.998 4.499-9.748 4.499h-1.25Zm-8.749-24.745c-1 2.75-3.249 8.999-1.25 14.248v.25c1.5 4.499 5.5 7.998 10.249 8.248 3.749.25 7.498-1.75 8.998-3.999.5-.5 1.25-1.75 1-3-.5-1.749-.5-3.499-.5-5.749v-.25c0-1.499.25-3.749.5-5.248v-1.75c.25-2.499-1-9.748-7.749-9.998-.333-.167-.75-.167-1.25 0-7.248.25-9.748 6.998-9.998 7.248Z" class="&lt;Compound Path&gt;" clip-rule="evenodd"/>
                  </g>
                </g>
              </g>
              <g class="&lt;Group&gt;">
                <g class="&lt;Group&gt;">
                  <path fill="#AB795A" d="m42.76 532.665 6.748 4.999c1.5 1.25 2 3.749.75 5.249-1.25 1.5-3 1.5-3.75 1.25-1.749-.5-3.748-1.75-3.748-1.75" class="&lt;Path&gt;"/>
                  <path fill="#050505" d="M47.509 545.413c1.25-.25 2.5-.5 3.499-1.75 1.5-2 1.25-4.999-.75-6.749h-.25l-6.748-4.999c-.5-.5-1-.25-1.5 0-.25.5 0 1.25.25 1.5l6.748 4.999c1.25 1 1.5 2.999.75 3.749-1.25 1.5-2.5 1-2.75 1-1.499-.5-3.249-1.75-3.498-1.75-.25-.25-1-.25-1.25.25-.5.5-.25 1.25.25 1.5 0 0 2 1.5 3.999 2 .333.166.75.25 1.25.25Z" class="&lt;Path&gt;"/>
                </g>
              </g>
            </g>
            <path fill="#050505" d="M23.014 535.414c.25-1.999 1-3.749 1.25-4.749 0 0 3.249-8.748 12.497-8.248 7.248.5 8.748 7.998 8.498 11.498v.749l1.5 1c-.75 1.5-1 2.25-1 2.25s-1.5-1.75-9.998-4.249c-5.999-1.75-10.748.5-12.747 1.749Z" class="&lt;Path&gt;" opacity=".2" style="mix-blend-mode:multiply"/>
          </g>
          <g class="&lt;Group&gt;">
            <g class="&lt;Group&gt;">
              <g class="&lt;Group&gt;">
                <path fill="#F5F6F7" d="M60.756 483.175c16.247 6.749 9.998 19.996 9.998 19.996l-14.247 36.493-32.744-14.247 15.747-36.243s4-13.247 21.246-5.999Z" class="&lt;Path&gt;"/>
                <path fill="#050505" fill-rule="evenodd" d="m56.007 540.664-32.743-14.247c-.5-.25-.75-1-.5-1.5l15.746-35.992c.25-.75 1.75-5.249 6.75-7.499 4.332-1.999 9.664-1.75 15.996.75 5.499 2.333 9.081 5.665 10.748 9.998 2.25 5.749 0 10.998-.25 11.498l-14.497 36.492c0 .167-.167.333-.5.5h-.75Zm4.499-56.488c-5.832-2.333-10.581-2.667-14.247-1-4.5 1.999-5.749 6.248-5.749 6.498l-15.497 35.243 30.744 13.497 13.997-35.492s2.25-4.999.25-9.998c-1.333-3.666-4.499-6.582-9.498-8.748Z" class="&lt;Compound Path&gt;" clip-rule="evenodd"/>
              </g>
              <path fill="#DFDFDF" d="m33.012 529.416-9.249-3.999 15.747-36.243s2.5-8.498 12.498-7.998l-18.996 48.24Z" class="&lt;Path&gt;" style="mix-blend-mode:multiply"/>
            </g>
          </g>
        </g>
        <g class="torso">
          <g class="&lt;Group&gt;">
            <path fill="#F5F6F7" d="M161.486 481.425s9.748 68.736 10.498 73.985c.25 1.25-13.997-.75-25.995 1.5-14.997 2.499-30.244 5.499-44.741 4.749-7.748-.25-18.496-2.25-30.744-4.249-12.247-1.5-21.745 2.999-25.245-1 1-6.999 9.749-48.74 9.998-76.485 0-2.999 7.749-17.246 52.49-17.246 44.491 0 52.239 16.247 53.739 18.746Z" class="&lt;Path&gt;"/>
            <path fill="#050505" fill-rule="evenodd" d="M105.497 562.91c-1.5 0-2.916-.083-4.249-.25-5.499-.25-12.248-1.25-20.246-2.499-3.5-.5-7.082-1-10.748-1.5-5.499-.75-10.248-.25-14.247 0-5.249.5-9.248 1-11.497-1.5-.167-.167-.25-.416-.25-.75.25-1.499.75-3.999 1.25-7.498 2.749-14.997 8.498-46.491 8.498-68.986 0-2 2.25-6.499 10.247-10.748 9.749-4.999 24.246-7.498 43.492-7.498 18.496 0 32.743 2.749 42.741 8.248 7.998 4.249 10.748 9.248 11.748 10.748v.25c.166.166.25.333.25.5 0 .749 9.748 68.736 10.748 73.735 0 .333-.167.666-.5 1-.5.749-2 .749-6.999.749s-12.747-.25-19.496 1c-1 .167-1.916.333-2.749.5-12.748 2.249-25.745 4.499-37.993 4.499Zm-40.992-6.748c1.833 0 3.833.083 6 .249 3.832.667 7.414 1.25 10.747 1.75 7.999 1.25 14.747 2.25 20.246 2.499 13.247.5 27.744-1.999 41.492-4.498a18.163 18.163 0 0 1 2.999-.251c6.749-1.249 14.497-1.249 19.746-.999 2 0 4.249 0 5.249-.25-1.5-8.749-9.998-68.237-10.498-72.736v-.249c-6.499-11.498-25.245-17.997-52.739-17.997-23.496 0-35.993 3.999-42.492 7.499-7.498 3.749-8.998 7.748-8.998 8.748 0 22.745-5.749 54.239-8.498 69.236-.75 3.249-1 5.499-1.25 6.999 1.75 1.249 4.75.999 9.248.499 2.5-.25 5.5-.499 8.748-.499Z" class="&lt;Compound Path&gt;" clip-rule="evenodd"/>
          </g>
          <g class="&lt;Group&gt;">
            <path fill="#050505" d="M114.245 547.661c0 1.5-1.499 2.75-2.999 2.75s-2.999-1.25-2.999-2.75c0-1.749 1.499-2.999 2.999-2.999s2.999 1.25 2.999 2.999Z" class="&lt;Path&gt;"/>
          </g>
          <g class="&lt;Group&gt;">
            <path fill="#050505" d="M114.995 534.165c0 1.499-1.5 2.999-2.999 2.999-1.5 0-3-1.5-3-2.999 0-1.5 1.5-3 3-3 1.499 0 2.999 1.5 2.999 3Z" class="&lt;Path&gt;"/>
          </g>
          <g class="&lt;Group&gt;">
            <path fill="#050505" d="M114.495 520.668c0 1.749-1.249 2.999-2.999 2.999-1.5 0-2.749-1.25-2.749-2.999 0-1.5 1.249-2.75 2.749-2.75 1.75 0 2.999 1.25 2.999 2.75Z" class="&lt;Path&gt;"/>
          </g>
          <path fill="#DFDFDF" d="M171.984 555.411c-.75-5.249-10.498-73.985-10.498-73.985-1.25-1.75-5.499-10.998-25.245-15.747l-1.75 6.249s8.249 2.999 11.998 4.249c3.999 1.25 7.249 3.499 7.998 6.249.75 2.249 6.999 52.489 9.499 73.485 4.749 0 8.248 0 7.998-.5Z" class="&lt;Path&gt;" style="mix-blend-mode:multiply"/>
          <g class="&lt;Group&gt;">
            <path fill="#FEFEFE" d="M105.497 561.909s.75-39.742.75-50.739l-.75 50.739Z" class="&lt;Path&gt;"/>
            <path fill="#050505" d="M105.497 562.908c-.5 0-1-.5-1-1s.75-39.991.75-50.739c0-.5.5-1 1-1s1 .5 1 1c0 10.748-.75 50.239-.75 50.739s-.5 1-1 1Z" class="&lt;Path&gt;"/>
          </g>
          <g class="Clip path group">
            <mask id="a" width="35" height="55" x="45" y="500" class="a" maskUnits="userSpaceOnUse" style="mask-type:luminance">
              <g class="cp182">
                <path fill="#fff" d="M54.183 500.247s-3.575 26.42-4.25 30.544c-.674 4.099-4.124 23.545-4.124 23.545l28.72-4.824s5.548-41.941 4.499-41.691c-1.075.274-24.845-7.574-24.845-7.574Z" class="Vector"/>
              </g>
            </mask>
            <g class="&lt;Clip Group&gt;" mask="url(#a)">
              <g class="&lt;Group&gt;">
                <g class="&lt;Group&gt;">
                  <path fill="#050505" fill-rule="evenodd" d="M55.258 546.914c-9.248 0-14.997-5.999-14.997-15.247l-.25-10.748c0-.334.083-.583.25-.75.166-.167.416-.25.75-.25h28.244c.5 0 1 .5 1 1v10.748c0 9.248-6 15.247-14.997 15.247ZM42.01 521.919l.25 9.498v.25c0 9.748 6.749 13.247 12.998 13.247 6.248 0 12.997-3.499 12.997-13.247v-9.748H42.01Z" class="&lt;Compound Path&gt;" clip-rule="evenodd"/>
                </g>
                <g class="&lt;Group&gt;">
                  <path fill="#050505" d="M69.504 527.168H40.51v-1.999h28.994v1.999Z" class="&lt;Path&gt;"/>
                </g>
              </g>
            </g>
          </g>
          <g class="Clip path group">
            <mask id="b" width="33" height="55" x="139" y="500" class="b" maskUnits="userSpaceOnUse" style="mask-type:luminance">
              <g class="cp183">
                <path fill="#fff" d="M164.011 500.372s3.674 26.019 4.224 30.144c.55 4.149 3.499 24.444 3.499 24.444l-27.819-5.448s-5.524-41.942-4.474-41.692c1.049.275 24.57-7.448 24.57-7.448Z" class="Vector"/>
              </g>
            </mask>
            <g class="&lt;Clip Group&gt;" mask="url(#b)">
              <g class="&lt;Group&gt;">
                <g class="&lt;Group&gt;">
                  <path fill="#050505" fill-rule="evenodd" d="M163.236 546.913c-9.248 0-14.997-5.998-14.997-15.247v-10.748c0-.499.5-.999 1-.999h28.244c.333 0 .583.083.75.25.166.166.25.416.25.749l-.25 10.748c0 9.249-5.999 15.247-14.997 15.247Zm-12.998-24.995v9.748c0 9.748 6.749 13.248 12.998 13.248 6.248 0 12.997-3.5 12.997-13.248v-.249l.25-9.499h-26.245Z" class="&lt;Compound Path&gt;" clip-rule="evenodd"/>
                </g>
                <g class="&lt;Group&gt;">
                  <path fill="#050505" d="M177.983 527.167h-28.994v-1.999h28.994v1.999Z" class="&lt;Path&gt;"/>
                </g>
              </g>
            </g>
          </g>
          <path fill="#DFDFDF" d="m105.997 511.42.999 8.498s.25-4.249 4.25-6.499c4.249-1.999 18.496-4.748 18.496-4.748l-5.499-4.25 11.997-.5s1.75-26.494 2.25-30.494c.5-3.999-4.749-4.999-4.749-4.999l-5.249 20.996-22.495 21.996Z" class="&lt;Path&gt;" style="mix-blend-mode:multiply"/>
          <path fill="#DFDFDF" d="m105.747 519.168.75-9.248-27.744-40.742-3.5 3.999s3 26.495 3 26.995 5.749.5 5.749.5-1.5 2.749-.5 3.499c1.25.75 18.746 10.498 22.245 14.997Z" class="&lt;Path&gt;" style="mix-blend-mode:multiply"/>
          <g class="&lt;Group&gt;">
            <path fill="#9FC8EA" d="m106.997 510.42-2.25-.5-9.998-20.996-12.747-21.745s7.249-2.25 23.995-2.25c16.997 0 25.495 1.75 25.495 1.75l-11.498 21.995-12.997 21.746Z" class="&lt;Path&gt;"/>
          </g>
          <path fill="#DFDFDF" d="M104.997 519.918s-1.999 12.997-3.249 16.747c-1.25 3.749 2.249-.251 1.749 2.999-.25 2.999-.25 21.746-.25 21.746l2.25.249.5-41.991-1 .25Zm-57.488 30.494s.75-4.499 7.249-2.749c6.498 1.749 12.497.5 15.246-4.499 2.5-4.749-.5-19.496-.5-19.496s0 15.996-5.248 19.745c-5.5 3.75-15.247.75-15.247.75l-1.5 6.249Zm101.729-29.494s-1.749 13.498 2.25 19.496c4.249 5.999 10.748 5.999 10.748 5.999s-7.249 3.499-12.998-2.999c-3.499-3.75-2.749-12.248-2.749-12.248s.5-8.748 2.749-10.248Z" class="&lt;Path&gt;" style="mix-blend-mode:multiply"/>
          <g class="&lt;Group&gt;">
            <path fill="#F5F6F7" d="M105.997 513.669v-4.749l-8.748-15.497-16.497-28.494c-3 .5-5.666 1.166-7.999 1.999l8.749 30.994 10.997 2.999-2.749 2.5 16.247 10.248Z" class="&lt;Path&gt;"/>
            <path fill="#050505" fill-rule="evenodd" d="M105.997 514.669c-.167 0-.333-.083-.5-.25L89.25 504.171c-.166-.166-.333-.416-.5-.75 0-.333.167-.583.5-.749l1.25-1.25-9.248-2.499c-.333 0-.583-.167-.75-.501l-8.498-31.243c-.25-.5 0-1 .5-1.25 2.5-.833 5.165-1.5 7.998-1.999.5 0 .75-.001 1 .499l16.497 28.495 8.748 15.496c.166.167.25.334.25.5v4.75c0 .333-.167.666-.5.999h-.5ZM91.5 503.172l13.497 8.748v-2.75l-8.748-15.246-15.997-27.995c-2.166.5-4.249 1-6.249 1.5l8.249 29.744 10.498 2.749c.5.167.75.417.75.75.166.333.083.667-.25 1l-1.75 1.5Z" class="&lt;Compound Path&gt;" clip-rule="evenodd"/>
          </g>
          <g class="&lt;Group&gt;">
            <path fill="#F5F6F7" d="M139.74 466.428c-2.166-.666-4.666-1.25-7.498-1.75l-16.497 28.744-8.998 15.497.25 4.75 15.997-10.249-2.75-2.499 10.998-2.999 8.498-31.494Z" class="&lt;Path&gt;"/>
            <path fill="#050505" fill-rule="evenodd" d="M106.997 514.668h-.5c-.333-.333-.5-.666-.5-.999l-.25-4.749c0-.167.083-.334.25-.5l25.495-44.241c.25-.25.5-.5 1-.5 2.666.5 5.165 1.166 7.498 1.999.5 0 1 .5.75 1l-8.498 31.744c0 .333-.25.5-.75.5l-9.248 2.499 1.499 1.25c.167.167.25.416.25.75 0 .333-.166.583-.5.75l-15.996 10.248c-.167.166-.334.249-.5.249Zm.75-5.498v2.749l13.497-8.748-1.75-1.5a2.224 2.224 0 0 1-.25-1c.167-.333.417-.583.75-.749l10.498-2.75 7.998-29.994a58.427 58.427 0 0 0-5.748-1.25l-24.995 43.242Z" class="&lt;Compound Path&gt;" clip-rule="evenodd"/>
          </g>
          <g class="mochila tira der">
            <g class="&lt;Group&gt;">
              <path fill="#ED2D2F" d="M166.235 514.918c-28.244-5.999-21.746-44.491-18.246-44.991 11.247-2.249 13.497 7.998 13.497 7.998l4.749 36.993Z" class="&lt;Path&gt;"/>
              <path fill="#050505" fill-rule="evenodd" d="M166.235 515.918h-.25c-8.248-1.749-14.497-6.498-18.246-13.997-3.749-7.498-4.249-15.747-3.999-19.996.25-4.999 1.499-12.747 3.999-12.997 12.247-2.5 14.747 8.748 14.747 8.748v.25l4.749 36.742c.167.334.083.667-.25 1-.167.167-.417.25-.75.25Zm-17.996-44.991c-.5.5-1.5 3-2 7.249-.5 2.999-.75 8.748.5 14.997 1.75 7.748 6.249 17.246 18.246 20.246l-4.499-35.243c-.25-.75-2.249-9.248-12.247-7.249Z" class="&lt;Compound Path&gt;" clip-rule="evenodd"/>
            </g>
            <path fill="#DFDFDF" d="M146.239 479.676s-1.249 11.748 3.5 16.997c4.749 5.249 8.998 1.749 9.498-2.25.75-3.999-.5-13.747-3.999-14.747-3.25-1-8.249-2.25-7.749-5.249.25-3.249 2.5-4.499 2.5-4.499s10.747 1 11.997 6.249c1.25 5.499 4.249 37.992 4.249 37.992s-6.248 1-12.497-5.999c-6.249-6.748-11.748-16.746-7.499-28.494Z" class="&lt;Path&gt;" style="mix-blend-mode:multiply"/>
          </g>
          <g class="mochila tira izq">
            <g class="&lt;Group&gt;">
              <path fill="#ED2D2F" d="M52.508 514.918c28.245-5.999 21.746-44.491 18.247-44.991-11.248-2.249-14.997 7.999-14.997 7.999l-3.25 36.992Z" class="&lt;Path&gt;"/>
              <path fill="#050505" fill-rule="evenodd" d="M52.508 515.918c-.333 0-.583-.083-.75-.25-.167-.167-.25-.5-.25-1l3-36.742.25-.25c0-.25 1-2.75 3.499-5.249 2.25-2.25 6.498-4.749 12.747-3.5 2.5.25 3.75 7.999 4 12.998.25 4.249-.25 12.497-4 19.996-3.75 7.498-9.748 12.247-18.246 13.997h-.25Zm4.249-37.743-3 35.243c11.998-2.999 16.497-12.497 18.247-20.246 1.25-6.248 1-11.997.75-14.997-.75-4.249-1.75-6.748-2.25-7.248-4.332-.833-7.915.167-10.748 2.999-2 1.75-2.75 3.75-2.999 4.249Z" class="&lt;Compound Path&gt;" clip-rule="evenodd"/>
            </g>
            <path fill="#DFDFDF" d="M72.754 479.675s1 11.748-3.749 16.997c-4.75 5.249-8.998 1.75-9.498-2.25-.75-3.999.5-13.747 4-14.747 3.248-.999 8.247-2.249 7.747-5.248-.25-3.25-2.499-4.499-2.499-4.499s-10.498.999-11.998 6.248c-1.25 5.499-4.249 37.993-4.249 37.993s6.249.999 12.498-5.999c6.248-6.749 11.747-16.747 7.748-28.495Z" class="&lt;Path&gt;" style="mix-blend-mode:multiply"/>
          </g>
        </g>
        <g class="cabeza">
          <path fill="#050505" d="M190.73 411.439s11.248-23.745 10.998.75c-.5 31.243-17.497 43.741-17.497 43.741l6.499-44.491Zm-161.967 0s-11.248-23.745-10.998.75c.5 31.243 17.497 43.741 17.497 43.741l-6.5-44.491Z" class="&lt;Path&gt;"/>
          <g class="&lt;Group&gt;">
            <path fill="#050505" d="M110.246 338.204h-2.999c-42.991 1-79.484 28.494-79.484 85.233.25 13.997 8.498 29.994 8.498 29.994s35.743-13.997 72.236-14.747c36.492.75 74.485 14.747 74.485 14.747s6.498-16.247 6.748-29.994c0-56.739-36.492-84.233-79.484-85.233Z" class="&lt;Path&gt;"/>
            <path fill="#050505" fill-rule="evenodd" d="m35.511 455.93-.75-1.5c-.5-.749-8.748-16.746-8.998-30.993 0-13.998 2.25-26.745 6.5-37.743 4.248-10.498 10.247-19.746 17.745-26.994 7.25-7.249 15.997-12.748 25.995-16.497 9.248-3.499 18.996-5.499 29.494-5.749v-.25h6.499v.25c10.498.25 20.496 2.25 29.494 5.749 9.998 3.749 18.746 9.248 25.995 16.497 7.748 7.248 13.497 16.496 17.746 26.994 4.249 10.998 6.499 23.745 6.499 37.743-.25 13.997-6.499 29.994-6.749 30.744l-.75 1.749-1.749-.75c-.5-.25-38.242-13.747-73.985-14.497-35.743.75-70.986 14.497-71.486 14.497l-1.5.75Zm-5.748-32.493c.25 10.997 5.748 23.495 7.748 27.744 7.498-2.749 39.242-13.497 70.986-14.247h.25c31.743.75 65.237 11.498 73.235 14.247 1.75-4.499 5.749-16.997 5.999-27.744 0-59.988-40.242-82.234-77.735-83.233h-2.749c-37.493.999-77.734 23.245-77.734 83.233Z" class="&lt;Compound Path&gt;" clip-rule="evenodd"/>
          </g>
          <g class="&lt;Group&gt;">
            <g class="&lt;Group&gt;">
              <path fill="#AB795A" d="M110.247 338.205h-3c-42.991 1-79.484 28.494-79.484 85.232.75 33.494 18.497 73.236 80.984 71.986 62.487 1.25 80.234-38.492 80.984-71.986 0-56.738-36.493-84.232-79.484-85.232Z" class="&lt;Path&gt;"/>
              <path fill="#050505" fill-rule="evenodd" d="M111.746 496.423h-2.999c-28.495.75-50.24-7.248-64.487-23.245-5.75-6.749-10.248-14.747-13.248-23.995-2.75-7.999-4.249-16.747-4.249-25.745 0-13.997 2-26.495 6.499-37.493 4-10.247 9.748-19.246 17.496-26.744 7.249-6.999 15.747-12.497 25.745-16.247 8.998-3.499 19.246-5.499 29.744-5.749h4.999c10.498.25 20.746 2.25 29.744 5.749 9.998 3.75 18.496 9.248 25.745 16.247 7.748 7.498 13.497 16.497 17.496 26.744 4.5 10.998 6.499 23.496 6.499 37.493 0 8.998-1.5 17.746-4.249 25.745-2.749 9.248-7.499 17.246-13.247 23.995-13.748 15.497-34.493 23.245-61.488 23.245Zm-2.999-1.999h2.999c26.495 0 46.491-7.499 59.988-22.746s16.747-34.743 16.997-48.49c0-60.488-40.492-82.983-78.485-83.983h-2.999c-37.992 1-78.484 23.495-78.484 84.233.25 13.497 3.5 32.993 16.996 48.24 13.998 15.747 34.993 23.246 62.988 22.746Z" class="&lt;Compound Path&gt;" clip-rule="evenodd"/>
            </g>
            <path fill="#DFDFDF" d="M122.494 339.205c-11.498 0-34.993 1-45.741 4.75-10.748 3.749-28.994 19.245-35.993 28.244-10.748 13.997-11.997 44.241-11.997 44.241s70.235 15.497 114.976-8.748c0 0 18.247 15.497 36.243 12.247 26.495-4.499-12.747-58.988-12.747-58.988s-27.245-21.496-44.741-21.746Z" class="&lt;Path&gt;" style="mix-blend-mode:multiply"/>
            <path fill="#DFDFDF" d="m160.236 383.196 15.497 34.743s4.999 70.986-69.986 77.484h3c62.487 1.25 80.234-38.492 80.983-71.985 0-20.746-4.749-37.493-12.997-50.49-9.248 2.999-16.497 10.248-16.497 10.248Z" class="&lt;Path&gt;" style="mix-blend-mode:multiply"/>
            <g class="&lt;Group&gt;">
              <path fill="#050505" fill-rule="evenodd" d="M111.746 496.423h-2.999c-28.495.75-50.24-7.248-64.487-23.245-5.75-6.749-10.248-14.747-13.248-23.995-2.75-7.999-4.249-16.747-4.249-25.745 0-13.997 2-26.495 6.499-37.493 4-10.247 9.748-19.246 17.496-26.744 7.249-6.999 15.747-12.497 25.745-16.247 8.998-3.499 19.246-5.499 29.744-5.749h4.999c10.498.25 20.746 2.25 29.744 5.749 9.998 3.75 18.496 9.248 25.745 16.247 7.748 7.498 13.497 16.497 17.496 26.744 4.5 10.998 6.499 23.496 6.499 37.493 0 8.998-1.5 17.746-4.249 25.745-2.749 9.248-7.499 17.246-13.247 23.995-13.748 15.497-34.493 23.245-61.488 23.245Zm-2.999-1.999h2.999c26.495 0 46.491-7.499 59.988-22.746s16.747-34.743 16.997-48.49c0-60.488-40.492-82.983-78.485-83.983h-2.999c-37.992 1-78.484 23.495-78.484 84.233.25 13.497 3.5 32.993 16.996 48.24 13.998 15.747 34.993 23.246 62.988 22.746Z" class="&lt;Compound Path&gt;" clip-rule="evenodd"/>
            </g>
          </g>
          <path fill="#050505" d="M38.261 348.452s-22.995 18.247-27.245 51.74c-.25 1.5 2.25-9.748 13.748-21.746" class="&lt;Path&gt;"/>
          <path fill="#050505" d="M101.748 312.958s-67.236-4.999-88.482 92.981c0 0 1 3 5.499 5.749 6.248 3.75 10.248 6.999 16.496 8.999-1.5-7.249-1.75-20.746 17.747-39.742 0 0-18.996 22.995-12.748 40.991 64.237 15.747 100.98-20.995 100.98-20.995-1.75-.25 12.248 15.746 36.243 17.496 4.249-19.996-7.749-37.992-7.749-37.992 10.998 15.247 13.248 32.243 11.748 37.992 4.499.75 15.747 1 22.245-1.5 0 0 7.499-106.978-101.979-103.979Z" class="&lt;Path&gt;"/>
          <path fill="#050505" d="M143.99 322.957s50.489 2.25 59.737 61.488c0 0-13.747-29.744-59.737-61.488Zm-42.242-9.998s-58.238-5.498-90.232 64.487c0 0 44.241-38.242 90.232-64.487Z" class="&lt;Path&gt;"/>
          <path fill="#050505" d="M152.738 322.957s-15.997-16.246-31.744-19.995c-15.997-3.5-16.496-1.25-16.496-1.25s21.745 1.5 36.492 22.245" class="&lt;Path&gt;"/>
          <path fill="#050505" d="M176.483 338.454s-11.248-7.248-1-16.246c0 0-8.998-.75-10.748 4.249-1.249-6.249-6.248-16.747-24.495-21.996 0 0 10.248 11.748 0 13.498" class="&lt;Path&gt;"/>
          <g class="&lt;Group&gt;">
            <path fill="#DFDFDF" d="M119.245 447.931s-3.749 6.999-11.498 6.999c-7.748 0-12.747-8.248-12.747-8.248s8.498 4.249 12.247 4.249c3.75 0 11.998-3 11.998-3Z" class="&lt;Path&gt;" style="mix-blend-mode:multiply"/>
            <g class="&lt;Group&gt;">
              <path fill="#050505" d="M107.247 451.931c-1.499 0-2.999-.249-3.999-.749l-7.498-3c-.5-.25-.75-.75-.5-1.25 0-.5.75-.749 1.25-.749l7.498 2.999c1.75.75 4.499.75 6.249 0l7.748-2.999c.5 0 1 .249 1.25.749s0 1-.5 1.25l-7.749 3c-.999.5-2.499.749-3.749.749Z" class="&lt;Path&gt;"/>
            </g>
          </g>
          <g class="&lt;Group&gt;">
            <path fill="#050505" d="M164.485 425.935c-.249 0-.749-.249-.999-.749-2-5.249-7.749-7.749-12.998-5.749-1.499.5-2.749 1.499-3.999 2.749-.25.5-1 .5-1.5 0-.499-.5-.499-1 0-1.5 1.25-1.499 3-2.749 4.749-3.499 6.249-2.249 13.498 1 15.997 7.249 0 .5-.25 1.249-.75 1.499h-.5Z" class="&lt;Path&gt;"/>
          </g>
          <g class="&lt;Group&gt;">
            <path fill="#050505" d="M50.009 425.935h-.25c-.75-.25-1-.999-.75-1.499 2.5-6.249 9.498-9.498 15.996-7.249 1.75.75 3.5 2 4.75 3.499.5.5.5 1 0 1.5s-1.25.5-1.75 0c-1-1.25-2.25-2.249-4-2.749-4.998-2-10.997.5-12.997 5.749 0 .5-.5.749-1 .749Z" class="&lt;Path&gt;"/>
          </g>
          <path fill="#050505" d="M53.508 437.435c0 4.249 2 7.498 4.749 7.498 2.75 0 4.999-3.249 4.999-7.498 0-3.999-2.25-7.499-5-7.499-2.499 0-4.748 3.5-4.748 7.499Z" class="&lt;Path&gt;"/>
          <path fill="#FEFEFE" d="M61.256 434.936c0 .75-.25 1.25-1 1.25-.5 0-1-.5-1-1.25s.5-1.25 1-1.25c.75 0 1 .5 1 1.25Z" class="&lt;Path&gt;"/>
          <path fill="#050505" d="M160.236 437.435c0 4.249-2.25 7.498-4.999 7.498-2.75 0-4.749-3.249-4.749-7.498 0-3.999 1.999-7.499 4.749-7.499 2.749 0 4.999 3.5 4.999 7.499Z" class="&lt;Path&gt;"/>
          <path fill="#FEFEFE" d="M157.736 434.936c0 .75-.499 1.25-.999 1.25s-1-.5-1-1.25.5-1.25 1-1.25.999.5.999 1.25Z" class="&lt;Path&gt;"/>
          <g class="&lt;Group&gt;">
            <g class="&lt;Group&gt;">
              <g class="&lt;Group&gt;">
                <g class="&lt;Group&gt;">
                  <path fill="#050505" d="M141.24 475.677c-5.249 3.25-11.248 6.749-25.745 4.999-16.996-1.749-19.746-14.747-15.247-18.746 3.25-2.999 14.997 1.75 25.995-2.999 6.999-2.999 15.997-10.748 22.995-4.499 7.749 6.998-3.249 18.246-7.998 21.245Z" class="&lt;Path&gt;"/>
                </g>
              </g>
              <g class="&lt;Group&gt;">
                <g class="&lt;Group&gt;">
                  <path fill="#050505" fill-rule="evenodd" d="M115.246 481.676c-4.666-.5-8.582-1.833-11.748-3.999-2.5-2-4.5-4.499-5.499-7.249-1-3.749-.5-7.248 1.75-9.248 1.499-1.499 4.499-1.249 8.748-1 4.999.25 11.248.5 17.246-1.999 1.5-.75 3.25-1.5 4.75-2.5 3.249-1.749 6.498-3.499 9.498-4.249 3.999-1 6.998-.25 9.748 2.25 2.332 1.999 3.332 4.499 2.999 7.498-.5 6.499-7.498 12.998-10.998 15.247-2.999 1.75-5.749 3.499-9.748 4.499-1.333.333-2.833.583-4.499.75-3.499.5-7.582.5-12.247 0Zm25.494-6.748c3.25-2 9.748-8.249 10.248-13.998.167-2.333-.666-4.332-2.499-5.998-4.999-4.25-10.998-1-16.997 2.249-1.749 1-3.499 2-4.999 2.75-6.498 2.749-13.247 2.249-18.246 1.999-3.249-.25-6.249-.25-7.249.5-1.75 1.5-2 4.499-1.25 7.499 2 5.249 7.749 8.998 15.748 9.998 14.497 1.499 20.495-2.25 25.244-4.999Z" class="&lt;Compound Path&gt;" clip-rule="evenodd"/>
                </g>
              </g>
            </g>
            <g class="&lt;Group&gt;">
              <g class="&lt;Group&gt;">
                <g class="&lt;Group&gt;">
                  <path fill="#EA2A2F" d="M141.491 474.427s-11.748 9.998-31.994 4.749c0 0 4.249-5.499 14.247-6.498 11.498-1.25 17.747 1.749 17.747 1.749Z" class="&lt;Path&gt;"/>
                </g>
              </g>
              <g class="&lt;Group&gt;">
                <g class="&lt;Group&gt;">
                  <path fill="#050505" fill-rule="evenodd" d="M122.995 481.676c-4.5.167-9.082-.416-13.748-1.749l-1.249-.251.749-1.249c.25-.25 4.499-5.749 14.747-6.749 11.748-1 17.997 2 18.247 2l1.499.75-1.249.75c0 .249-3 2.749-8.499 4.498a35.316 35.316 0 0 1-7.248 1.75c-1 0-2.083.084-3.249.25Zm.749-8.248c-4.999.5-8.248 2.249-10.248 3.499l-2.249 1.5c9.498 2.249 16.747 1 21.496-.5 2.999-1 5.498-2.25 6.748-2.999-2.499-1-7.998-2-15.747-1.5Z" class="&lt;Compound Path&gt;" clip-rule="evenodd"/>
                </g>
              </g>
            </g>
          </g>
        </g>
      </g>
    </g>
    <g class="nina">
      <path fill="#1C1C1A" fill-opacity=".2" d="M948.676 541.177c0 10.926-34.439 19.951-76.953 19.951s-76.953-9.025-76.953-19.951c0-11.163 34.439-20.188 76.953-20.188s76.953 9.025 76.953 20.188Z" class="sombra"/>
      <g class="cabeza atras">
        <path fill="#050505" d="M793.353 370.66c0 8.076 6.65 14.726 14.963 14.726 8.075 0 14.725-6.65 14.725-14.726 0-8.312-6.65-14.963-14.725-14.963a14.901 14.901 0 0 0-14.963 14.963Zm131.579 2.138c0 7.838 6.175 14.013 13.776 14.013 7.837 0 14.013-6.175 14.013-14.013 0-7.6-6.176-13.776-14.013-13.776-7.601 0-13.776 6.176-13.776 13.776Z" class="&lt;Path&gt;"/>
        <path fill="#050505" d="M762.951 355.697c0 10.925 8.788 19.95 19.951 19.95 10.925 0 19.951-9.025 19.951-19.95 0-11.163-9.026-19.951-19.951-19.951-11.163 0-19.951 8.788-19.951 19.951Zm182.882-8.313c-4.275 11.162.475 23.275 10.45 27.076 10.213 3.8 21.613-2.138 25.889-13.301 4.275-11.163-.475-23.276-10.451-27.076-10.213-3.8-21.613 2.138-25.888 13.301Z" class="&lt;Path&gt;"/>
        <path fill="#050505" d="M764.376 300.833c0 50.589 48.452 91.916 108.304 91.916 60.09 0 108.541-41.327 108.541-91.916 0-50.827-48.451-91.916-108.541-91.916-59.852 0-108.304 41.089-108.304 91.916Z" class="&lt;Path&gt;"/>
        <path stroke="#3F1D13" stroke-width="2.613" d="M947.02 366.385c3.325 4.513 2.612 10.926-1.9 14.251-4.513 3.325-10.688 2.375-14.251-1.9m39.902-38.477c7.6 4.512 9.975 14.25 5.463 21.851-4.513 7.363-14.251 9.975-21.851 5.462m-166.731-27.788c7.838 4.513 10.451 14.013 6.175 21.138-4.275 7.126-14.013 9.263-21.613 4.751m39.664 14.725c-5.938 1.188-11.638-2.612-12.826-8.312" class="&lt;Path&gt;"/>
      </g>
      <g class="pierna izq">
        <g class="&lt;Group&gt;">
          <path fill="#803531" stroke="#050505" stroke-linecap="round" stroke-linejoin="round" stroke-width="1.9" d="M823.509 517.902s9.975-25.651 12.113-33.014c2.375-8.788 9.5-11.163 15.913-9.5 5.938 1.663 9.5 6.65 6.888 16.388-2.613 9.738-11.163 32.776-11.163 32.776-4.038 14.726-29.214 7.838-23.751-6.65Z" class="&lt;Path&gt;"/>
          <path fill="#050505" d="M841.322 522.177c-3.326 7.363-16.626 7.838-9.738 9.501 6.412 1.9 13.775 0 15.675-7.125 0 0 8.551-23.039 11.163-32.777 2.613-9.738-.95-14.725-6.888-16.388-6.412-1.662-13.538.713-15.913 9.5-2.137 7.363 14.013 8.788 12.351 15.201-.713 3.088-4.275 16.626-6.65 22.088Z" class="&lt;Path&gt;" opacity=".4"/>
        </g>
        <g class="&lt;Group&gt;">
          <g class="&lt;Path&gt;">
            <path fill="#803531" d="M822.796 524.554c-1.188 2.612-3.088 8.55-11.638 12.113l36.101-.238v-11.875"/>
            <path stroke="#050505" stroke-linecap="round" stroke-linejoin="round" stroke-width="1.9" d="M822.796 524.554c-1.188 2.612-3.088 8.55-11.638 12.113l36.101-.238v-11.875"/>
          </g>
          <path fill="#050505" d="M840.609 524.552c-.475 4.75-.238 8.55-8.55 12.113l15.2-.238v-11.875" class="&lt;Path&gt;" opacity=".4"/>
        </g>
        <g class="&lt;Group&gt;">
          <path fill="#EE4963" stroke="#050505" stroke-linecap="round" stroke-linejoin="round" stroke-width="1.9" d="M850.347 536.19c0 .475-.475.713-.712.713h-39.902c-.237 0-.712-.238-.712-.713v-1.9c0-.475.475-.712.712-.712h39.902c.237 0 .712.237.712.712v1.9Zm-19.239-19s-.237-4.513-3.325-4.751c-1.9 0-6.175.238-7.363.238-2.375 0-.475 2.85 0 4.513.476 1.425.951 4.275-.237 5.937l-3.8 5.701 4.75 2.137 9.5-7.6.475-6.175Z" class="&lt;Path&gt;"/>
          <path fill="#F69226" stroke="#050505" stroke-linecap="round" stroke-linejoin="round" stroke-width="1.9" d="M849.634 533.578v-9.263c0-2.137-1.425-3.325-3.325-3.325-2.375 0-4.275 1.9-8.788-.237-4.037-1.663-4.512-2.613-6.412-3.563-1.9-.95-2.138.238-2.613 2.375l-.95 4.038-7.838 6.65v3.325h29.926Z" class="&lt;Path&gt;"/>
          <path fill="#FEFEFE" stroke="#050505" stroke-linecap="round" stroke-linejoin="round" stroke-width="1.9" d="M809.733 533.578c0-1.425 4.75-4.75 6.65-4.75 4.513 0 7.363 4.75 7.363 4.75h-14.013Z" class="&lt;Path&gt;"/>
          <path stroke="#050505" stroke-linecap="round" stroke-linejoin="round" stroke-width="1.663" d="M829.446 524.316c-1.9-2.375-7.6-3.088-9.5-2.375m6.65 4.512c-1.9-2.375-6.65-2.613-8.313-2.138m5.701 4.513c-1.9-2.375-5.701-2.612-7.363-1.9" class="&lt;Path&gt;"/>
          <path fill="#EE4963" stroke="#050505" stroke-linecap="round" stroke-linejoin="round" stroke-width="1.9" d="M837.759 525.264c-3.088 0-4.75.475-6.888 2.138l-7.125 6.175h4.988l4.512-4.037c.792-.792 2.296-1.188 4.513-1.188h11.876v-3.088h-11.876Z" class="&lt;Path&gt;"/>
        </g>
      </g>
      <g class="pierna der">
        <g class="&lt;Group&gt;">
          <path fill="#803531" stroke="#050505" stroke-linecap="round" stroke-linejoin="round" stroke-width="1.9" d="M920.887 517.902s-9.975-25.651-11.875-33.014c-2.613-8.788-9.738-11.163-15.913-9.5-5.938 1.663-9.738 6.65-7.126 16.388 2.851 9.738 11.401 32.776 11.401 32.776 3.8 14.726 28.976 7.838 23.513-6.65Z" class="&lt;Path&gt;"/>
          <path fill="#050505" d="M903.312 522.177c3.325 7.363 16.625 7.838 9.738 9.501-6.413 1.9-13.776 0-15.676-7.126 0 0-8.55-23.038-11.401-32.776-2.612-9.738 1.188-14.725 7.126-16.388 6.175-1.663 13.3.712 15.913 9.5 1.9 7.363-14.251 8.788-12.351 15.201.713 3.088 4.038 16.626 6.651 22.088Z" class="&lt;Path&gt;" opacity=".4"/>
        </g>
        <g class="&lt;Group&gt;">
          <g class="&lt;Path&gt;">
            <path fill="#803531" d="M921.838 524.553c1.187 2.613 3.087 8.551 11.4 12.113l-36.101-.237.237-11.876"/>
            <path stroke="#050505" stroke-linecap="round" stroke-linejoin="round" stroke-width="1.9" d="M921.838 524.553c1.187 2.613 3.087 8.551 11.4 12.113l-36.101-.237.237-11.876"/>
          </g>
          <path fill="#050505" d="M903.787 524.553c.475 4.751.237 8.551 8.788 12.113l-15.438-.237.237-11.876" class="&lt;Path&gt;" opacity=".4"/>
        </g>
        <g class="&lt;Group&gt;">
          <path fill="#EE4963" stroke="#050505" stroke-linecap="round" stroke-linejoin="round" stroke-width="1.9" d="M894.286 536.19c0 .475.238.713.713.713h39.664c.475 0 .712-.238.712-.713v-1.9c0-.475-.237-.712-.712-.712h-39.664c-.475 0-.713.237-.713.712v1.9Zm19.238-19s0-4.513 3.325-4.751c1.663 0 5.938.238 7.126.238 2.612 0 .712 2.85 0 4.513-.475 1.425-.95 4.275.237 5.937l4.038 5.701-4.75 2.137-9.501-7.6-.475-6.175Z" class="&lt;Path&gt;"/>
          <path fill="#F69226" stroke="#050505" stroke-linecap="round" stroke-linejoin="round" stroke-width="1.9" d="M894.999 533.578v-9.263c0-2.137 1.188-3.325 3.325-3.325 2.138 0 4.038 1.9 8.788-.237 3.8-1.663 4.513-2.613 6.413-3.563 1.9-.95 2.137.238 2.612 2.375l.95 4.038 7.601 6.65v3.325h-29.689Z" class="&lt;Path&gt;"/>
          <path fill="#FEFEFE" stroke="#050505" stroke-linecap="round" stroke-linejoin="round" stroke-width="1.9" d="M934.662 533.578c0-1.425-4.75-4.75-6.412-4.75-4.75 0-7.601 4.75-7.601 4.75h14.013Z" class="&lt;Path&gt;"/>
          <path stroke="#050505" stroke-linecap="round" stroke-linejoin="round" stroke-width="1.663" d="M915.187 524.316c1.9-2.375 7.363-3.088 9.501-2.375m-6.888 4.512c1.9-2.375 6.65-2.613 8.55-2.138m-5.701 4.513c1.9-2.375 5.701-2.612 7.363-1.9" class="&lt;Path&gt;"/>
          <path fill="#EE4963" stroke="#050505" stroke-linecap="round" stroke-linejoin="round" stroke-width="1.9" d="M906.874 525.264c3.088 0 4.751.475 6.651 2.138l7.125 6.175h-4.988l-4.275-4.037c-.792-.792-2.296-1.188-4.513-1.188h-11.875v-3.088h11.875Z" class="&lt;Path&gt;"/>
        </g>
      </g>
      <g class="brazo izq">
        <g class="&lt;Group&gt;">
          <path fill="#803531" stroke="#050505" stroke-linecap="round" stroke-linejoin="round" stroke-width="1.9" d="M778.382 377.535c12.588 17.814 28.501 28.501 45.365 37.527 16.863 8.787 29.451-14.963 12.35-23.513-16.863-8.551-23.988-13.301-35.626-28.739-2.613-3.325-10.213-6.413-17.813-.713-6.888 5.463-6.413 12.351-4.276 15.438Z" class="&lt;Path&gt;"/>
          <path fill="#050505" d="M778.382 377.536c12.588 17.813 28.501 28.5 45.364 37.526 16.863 8.788 29.451-14.963 12.351-23.513-6.413-3.325-16.388 12.825-23.276 9.5-10.45-4.75-23.276-16.863-30.401-26.364-2.613-3.325-3.325-8.312.237-12.587-6.887 5.462-6.412 12.35-4.275 15.438Z" class="&lt;Path&gt;" opacity=".4"/>
        </g>
        <g class="&lt;Group&gt;">
          <path fill="#803531" d="M794.533 376.822c-5.225 3.8-12.113 3.563-15.201-.95-3.087-4.275-1.662-10.925 3.563-14.726 5.225-3.8 12.113-3.325 15.201.951 3.325 4.275 1.662 10.925-3.563 14.725Z" class="&lt;Path&gt;"/>
          <g class="&lt;Group&gt;">
            <g class="&lt;Group&gt;">
              <g class="&lt;Group&gt;">
                <g class="&lt;Path&gt;">
                  <path fill="#803531" d="M800.945 363.522c-3.087-4.038-9.737-13.776-12.825-17.101-4.988-3.563-9.738-1.663-14.726 2.375-5.937 4.513-8.787 10.688-4.037 16.626l4.037 5.225 4.988 6.888"/>
                  <path stroke="#050505" stroke-linecap="round" stroke-linejoin="round" stroke-width="1.9" d="M800.945 363.522c-3.087-4.038-9.737-13.776-12.825-17.101-4.988-3.563-9.738-1.663-14.726 2.375-5.937 4.513-8.787 10.688-4.037 16.626l4.037 5.225 4.988 6.888"/>
                </g>
              </g>
            </g>
            <g class="&lt;Group&gt;">
              <g class="&lt;Path&gt;">
                <path fill="#803531" d="m797.62 361.146.238-6.412c-.238-2.375-2.138-4.75-4.513-4.75s-3.562 1.662-4.037 2.612c-.95 2.138-.713 3.563-.713 3.563"/>
                <path stroke="#050505" stroke-linecap="round" stroke-linejoin="round" stroke-width="1.9" d="m797.62 361.146.238-6.412c-.238-2.375-2.138-4.75-4.513-4.75s-3.562 1.662-4.037 2.612c-.95 2.138-.713 3.563-.713 3.563"/>
              </g>
            </g>
            <path fill="#050505" d="M788.595 352.36s-2.376 1.425-2.376 3.8 0 4.275-.95 4.987c-1.187.95-6.175 5.463-8.075 4.988-1.9-.713-8.788-6.888-5.938-10.925 2.851-4.038 10.688-10.451 14.963-7.601 4.276 3.088 2.376 4.751 2.376 4.751Z" class="&lt;Path&gt;" opacity=".2" style="mix-blend-mode:multiply"/>
          </g>
        </g>
      </g>
      <g style="transform-origin: 50% 50%; transform-box: fill-box;" class="brazo-der">
        <g class="&lt;Group&gt;">
          <path fill="#803531" stroke="#050505" stroke-linecap="round" stroke-linejoin="round" stroke-width="1.9" d="M967.439 377.536c-12.588 17.813-28.501 28.5-45.364 37.526-16.863 8.788-29.451-14.963-12.351-23.513 16.864-8.551 23.989-13.301 35.864-28.739 2.613-3.325 9.976-6.413 17.576-.712 6.888 5.462 6.65 12.35 4.275 15.438Z" class="&lt;Path&gt;"/>
          <path fill="#050505" d="M967.439 377.536c-12.588 17.813-28.501 28.5-45.364 37.526-16.863 8.788-29.451-14.963-12.351-23.513 6.413-3.325 16.389 12.825 23.276 9.5 10.451-4.75 23.276-16.863 30.401-26.364 2.613-3.325 3.325-8.312-.237-12.587 6.888 5.462 6.65 12.35 4.275 15.438Z" class="&lt;Path&gt;" opacity=".4"/>
        </g>
        <g class="&lt;Group&gt;">
          <path fill="#803531" d="M951.288 376.822c5.225 3.8 12.113 3.563 15.201-.95 3.325-4.275 1.662-10.925-3.563-14.726-5.225-3.8-12.113-3.325-15.2.951-3.088 4.275-1.663 10.925 3.562 14.725Z" class="&lt;Path&gt;"/>
          <g class="&lt;Group&gt;">
            <g class="&lt;Group&gt;">
              <g class="&lt;Group&gt;">
                <g class="&lt;Path&gt;">
                  <path fill="#803531" d="M945.113 363.522c2.85-4.038 9.5-13.776 12.825-17.101 4.75-3.563 9.738-1.663 14.488 2.375 5.938 4.513 8.788 10.688 4.038 16.626l-3.801 5.225-5.225 6.888"/>
                  <path stroke="#050505" stroke-linecap="round" stroke-linejoin="round" stroke-width="1.9" d="M945.113 363.522c2.85-4.038 9.5-13.776 12.825-17.101 4.75-3.563 9.738-1.663 14.488 2.375 5.938 4.513 8.788 10.688 4.038 16.626l-3.801 5.225-5.225 6.888"/>
                </g>
              </g>
            </g>
            <path fill="#050505" d="M957.226 352.359s2.375 1.425 2.375 3.801c.238 2.375 0 4.275 1.188 4.987.95.95 5.937 5.463 7.837 4.988 1.9-.713 8.788-6.888 5.938-10.926-2.85-4.037-10.688-10.45-14.963-7.6-4.275 3.088-2.375 4.75-2.375 4.75Z" class="&lt;Path&gt;" opacity=".2" style="mix-blend-mode:multiply"/>
          </g>
        </g>
      </g>
      <g class="torso">
        <path fill="#F69226" stroke="#050505" stroke-linecap="round" stroke-linejoin="round" stroke-width="1.9" d="M872.198 480.852c41.801 0 43.464-8.313 45.839-25.651 1.663-13.301-3.563-49.402-6.413-60.565-4.75-18.288-19-24.938-39.426-24.938-20.426 0-34.676 6.65-39.189 24.938-2.85 11.163-8.075 47.264-6.413 60.565 2.138 17.338 4.038 25.651 45.602 25.651Z" class="&lt;Path&gt;"/>
        <path fill="#EE4963" stroke="#050505" stroke-linecap="round" stroke-linejoin="round" stroke-width="1.9" d="M899.037 425.512c4.275-13.538 9.025-29.688 5.462-48.689l-10.213 1.9c3.088 16.863-1.425 31.826-5.225 43.702l9.976 3.087Z" class="&lt;Path&gt;"/>
        <path fill="#EE4763" stroke="#050505" stroke-linecap="round" stroke-linejoin="round" stroke-width="1.9" d="m872.198 481.564 6.888 16.626c31.826-6.65 42.514-13.776 42.514-13.776s-.713-15.675-2.138-29.213c-2.137.95-11.875 2.375-11.875 2.375L896.899 422.9s-14.25 3.562-24.701 3.562c-10.213 0-24.701-3.562-24.701-3.562l-10.688 34.676s-9.5-1.425-11.875-2.375c-1.188 13.538-2.138 30.401-2.138 30.401s10.926 6.413 43.227 11.4l6.175-15.438Z" class="&lt;Path&gt;"/>
        <path fill="#050505" d="m872.198 481.565 6.888 16.625a334.9 334.9 0 0 0 5.938-1.425s-7.6-18.288-12.826-18.288c-4.987 0-12.35 17.576-12.35 17.576 1.9.317 3.958.633 6.175.95l6.175-15.438Zm-47.264-26.364c-1.188 13.538-2.138 30.401-2.138 30.401s3.088 1.663 10.451 4.275c-3.088-4.75-5.7-13.775-2.613-33.726l-5.7-.95Z" class="&lt;Path&gt;" opacity=".4"/>
        <path stroke="#6ECFF5" stroke-dasharray="3.14 3.14" stroke-linecap="round" stroke-linejoin="round" stroke-width="1.663" d="M825.409 481.802s11.4 5.225 41.326 11.4" class="&lt;Path&gt;"/>
        <path fill="#050505" d="M919.462 455.201c1.425 13.538 2.138 29.214 2.138 29.214s-2.85 1.9-10.451 4.75c2.851-4.988 5.938-13.063 2.613-33.014l5.7-.95Z" class="&lt;Path&gt;" opacity=".4"/>
        <path stroke="#6ECFF5" stroke-dasharray="3.14 3.14" stroke-linecap="round" stroke-linejoin="round" stroke-width="1.663" d="M918.75 480.851s-10.926 5.938-40.852 13.301" class="&lt;Path&gt;"/>
        <path fill="#803531" stroke="#050505" stroke-linecap="round" stroke-linejoin="round" stroke-width="2.138" d="M897.374 383.711c0 14.013-11.163 25.176-25.176 25.176-13.775 0-24.938-11.163-24.938-25.176 0-13.776 11.163-24.938 24.938-24.938 14.013 0 25.176 11.162 25.176 24.938Z" class="&lt;Path&gt;"/>
        <path fill="#EE4963" stroke="#050505" stroke-linecap="round" stroke-linejoin="round" stroke-width="1.9" d="M845.597 425.512c-4.275-13.538-9.263-29.688-5.7-48.689l10.45 1.9c-3.325 16.863 1.425 31.826 5.226 43.702l-9.976 3.087Z" class="&lt;Path&gt;"/>
        <path fill="#6ECFF5" stroke="#050505" stroke-linecap="round" stroke-linejoin="round" stroke-width="1.9" d="M843.935 423.85c0 3.8 2.85 6.65 6.65 6.65 3.563 0 6.65-2.85 6.65-6.65 0-3.562-3.087-6.65-6.65-6.65-3.8 0-6.65 3.088-6.65 6.65Zm56.764 0c0 3.8-2.85 6.65-6.65 6.65-3.563 0-6.65-2.85-6.65-6.65 0-3.562 3.087-6.65 6.65-6.65 3.8 0 6.65 3.088 6.65 6.65Z" class="&lt;Path&gt;"/>
        <path fill="#050505" d="M898.799 428.6c-2.612 2.613-6.888 2.613-9.5 0 0 0 4.75.475 7.363-2.137 2.612-2.613 2.137-7.363 2.137-7.363 2.613 2.613 2.613 6.888 0 9.5Zm-52.964 0c2.612 2.613 6.65 2.613 9.263 0 0 0-4.751.475-7.363-2.137-2.613-2.613-1.9-7.363-1.9-7.363-2.613 2.613-2.613 6.888 0 9.5Z" class="&lt;Path&gt;" opacity=".4"/>
        <g class="&lt;Group&gt;">
          <g class="&lt;Group&gt;">
            <path stroke="#6ECFF5" stroke-linecap="round" stroke-linejoin="round" stroke-width="1.663" d="m844.172 459.476-1.662-.713.475-1.9" class="&lt;Path&gt;"/>
            <path stroke="#6ECFF5" stroke-dasharray="4.7 4.7" stroke-linecap="round" stroke-linejoin="round" stroke-width="1.663" d="m844.409 452.826 4.513-14.725" class="&lt;Path&gt;"/>
            <path stroke="#6ECFF5" stroke-linecap="round" stroke-linejoin="round" stroke-width="1.663" d="m849.635 435.963.475-1.9h1.9" class="&lt;Path&gt;"/>
            <path stroke="#6ECFF5" stroke-dasharray="3.14 3.14" stroke-linecap="round" stroke-linejoin="round" stroke-width="1.663" d="M855.81 434.063h34.913" class="&lt;Path&gt;"/>
            <path stroke="#6ECFF5" stroke-linecap="round" stroke-linejoin="round" stroke-width="1.663" d="M892.386 434.063h1.9l.713 1.9" class="&lt;Path&gt;"/>
            <path stroke="#6ECFF5" stroke-dasharray="4.7 4.7" stroke-linecap="round" stroke-linejoin="round" stroke-width="1.663" d="m896.187 440.238 4.75 14.725" class="&lt;Path&gt;"/>
            <path stroke="#6ECFF5" stroke-linecap="round" stroke-linejoin="round" stroke-width="1.663" d="m901.411 456.863.713 1.9-1.901.713" class="&lt;Path&gt;"/>
            <path stroke="#6ECFF5" stroke-dasharray="4.7 4.7" stroke-linecap="round" stroke-linejoin="round" stroke-width="1.663" d="m896.661 460.663-24.463 8.075-26.126-8.788" class="&lt;Path&gt;"/>
          </g>
        </g>
        <path fill="#050505" d="M872.198 405.086c11.875 0 18.526-2.375 25.888-6.175 6.176-3.087 9.738 0 11.163 8.313 1.663 9.5 7.126 44.889 2.138 45.839-2.613.475-9.263-23.276-12.588-24.463l8.788 28.976 10.45-2.375c1.663-13.301-3.563-49.402-6.413-60.565-4.75-18.288-19-24.938-39.426-24.938-20.426 0-34.676 6.65-39.189 24.938-2.85 11.163-8.075 47.264-6.413 60.565l10.213 2.375 9.025-28.976c-3.325 1.187-9.975 24.938-12.825 24.463-4.75-.95.475-36.339 2.138-45.839 1.425-8.313 5.225-11.4 11.163-8.313 7.6 3.8 14.013 6.175 25.888 6.175Z" class="&lt;Path&gt;" opacity=".4"/>
      </g>
      <g class="cabeza">
        <g class="&lt;Group&gt;">
          <path fill="#803531" stroke="#050505" stroke-linecap="round" stroke-linejoin="round" stroke-width="1.9" d="M949.396 320.307c0 43.227-22.326 76.003-76.715 78.616-53.202 2.375-76.716-35.389-76.716-78.616 0-43.226 34.439-78.377 76.716-78.377 42.514 0 76.715 35.151 76.715 78.377Z" class="&lt;Path&gt;"/>
          <path fill="#050505" d="m935.621 319.595-2.138 5.463s10.213 67.927-65.077 73.865c-.713 0 .712-1.425 4.037 0h.238c54.389-2.612 76.715-35.389 76.715-78.615 0-11.638-2.375-22.801-6.887-32.539-3.326 7.363-6.888 31.826-6.888 31.826Z" class="&lt;Path&gt;" opacity=".4"/>
        </g>
        <path fill="#FEFEFE" d="M858.905 345.959s-4.751-21.614-32.539-14.013c0 0 0 17.1 14.963 18.763 14.25 1.662 17.576-4.75 17.576-4.75Zm30.163 1.662s3.563-21.851 31.589-15.913c0 0 1.188 17.101-13.538 19.713-14.25 2.375-18.051-3.8-18.051-3.8Z" class="&lt;Path&gt;"/>
        <path fill="#050505" d="M884.081 354.984s-3.563 6.413-10.213 6.413c-6.65 0-11.163-7.363-11.163-7.363s7.601 3.563 10.688 3.563c3.325 0 10.688-2.613 10.688-2.613Z" class="&lt;Path&gt;"/>
        <g class="&lt;Group&gt;">
          <g class="&lt;Group&gt;">
            <path fill="#050505" d="M808.315 219.368c0 11.163 9.738 20.188 21.376 20.188 11.875 0 21.376-9.025 21.376-20.188 0-11.163-9.501-20.188-21.376-20.188-11.638 0-21.376 9.025-21.376 20.188Zm97.616.711c.238 9.025 7.6 16.15 16.626 16.15 9.025-.237 16.15-7.6 16.15-16.625-.237-9.026-7.6-16.151-16.625-16.151-9.026.238-16.151 7.6-16.151 16.626Z" class="&lt;Path&gt;"/>
            <path fill="#050505" d="M775.777 240.268c0 13.775 11.163 24.701 24.701 24.701 13.775 0 24.938-10.926 24.938-24.701 0-13.776-11.163-24.701-24.938-24.701-13.538 0-24.701 10.925-24.701 24.701Zm173.143 25.888c0 13.775 11.163 25.176 25.176 25.176 13.776 0 25.176-11.401 25.176-25.176 0-14.013-11.4-25.176-25.176-25.176-14.013 0-25.176 11.163-25.176 25.176Zm-105.929-50.589c0 17.1 16.389 31.114 36.577 31.114s36.576-14.014 36.576-31.114c0-17.101-16.388-30.876-36.576-30.876s-36.577 13.775-36.577 30.876Z" class="&lt;Path&gt;"/>
            <path fill="#050505" d="M923.507 235.992c0 13.538 11.163 24.701 24.701 24.701s24.701-11.163 24.701-24.701-11.163-24.7-24.701-24.7-24.701 11.162-24.701 24.7Zm27.076 73.628c0 14.963 11.4 27.314 25.413 27.314s25.414-12.351 25.414-27.314-11.401-27.313-25.414-27.313c-14.013 0-25.413 12.35-25.413 27.313ZM743 314.608c0 15.676 11.401 28.264 25.414 28.264 14.013 0 25.413-12.588 25.413-28.264 0-15.438-11.4-28.026-25.413-28.026S743 299.17 743 314.608Z" class="&lt;Path&gt;"/>
            <path fill="#050505" d="M753.451 267.58c0 12.826 10.45 23.276 23.275 23.276 12.826 0 23.276-10.45 23.276-23.276 0-12.825-10.45-23.275-23.276-23.275-12.825 0-23.275 10.45-23.275 23.275Z" class="&lt;Path&gt;"/>
            <g class="&lt;Group&gt;">
              <path fill="#050505" d="M858.905 278.506c0 10.213 8.313 18.526 18.525 18.526 10.213 0 18.526-8.313 18.526-18.526s-8.313-18.525-18.526-18.525c-10.212 0-18.525 8.312-18.525 18.525Z" class="&lt;Path&gt;"/>
              <path fill="#050505" d="M823.516 280.407c0 10.451 8.55 19.001 19 19.001 10.688 0 19.001-8.55 19.001-19.001 0-10.45-8.313-19.001-19.001-19.001-10.45 0-19 8.551-19 19.001Z" class="&lt;Path&gt;"/>
              <path fill="#050505" d="M795.015 294.657c0 10.451 8.55 19.001 19 19.001 10.451 0 19.001-8.55 19.001-19.001 0-10.687-8.55-19-19.001-19-10.45 0-19 8.313-19 19Z" class="&lt;Path&gt;"/>
              <path fill="#050505" d="M782.427 319.358c0 8.075 6.65 14.725 14.725 14.725 8.313 0 14.964-6.65 14.964-14.725a14.901 14.901 0 0 0-14.964-14.963c-8.075 0-14.725 6.65-14.725 14.963Zm150.105-1.9c0 8.313 6.651 14.726 14.963 14.726 8.076 0 14.726-6.413 14.726-14.726 0-8.075-6.65-14.725-14.726-14.725-8.312 0-14.963 6.65-14.963 14.725Z" class="&lt;Path&gt;"/>
              <path fill="#050505" d="M916.62 299.882c0 6.65 5.225 11.875 11.875 11.875 6.651 0 11.876-5.225 11.876-11.875s-5.225-11.875-11.876-11.875c-6.65 0-11.875 5.225-11.875 11.875Z" class="&lt;Path&gt;"/>
              <path fill="#050505" d="M890.493 282.544c0 9.5 7.838 17.1 17.101 17.1 9.5 0 17.338-7.6 17.338-17.1 0-9.501-7.838-17.339-17.338-17.339-9.263 0-17.101 7.838-17.101 17.339Z" class="&lt;Path&gt;"/>
              <path fill="#050505" d="m948.446 327.195-31.589-38.713-33.489-7.363-35.389 3.087-24.225 15.676-16.864 9.975-9.737 14.488-18.051-14.725-4.988-39.427 47.977-44.889 49.877-5.462 53.914 4.037 39.664 39.189 12.588 44.177-29.688 19.95Z" class="&lt;Path&gt;"/>
            </g>
          </g>
          <path stroke="#3F1D13" stroke-width="2.613" d="M936.095 302.97c5.463-.475 9.5-5.225 9.025-10.45-.475-5.463-5.462-9.501-10.688-9.025-5.462.475-9.5 5.225-9.025 10.687M796.44 328.146c-5.463.237-9.976-4.038-10.213-9.263-.238-5.463 4.037-9.975 9.5-10.213 5.463 0 9.975 4.038 10.213 9.501m99.516-110.204c-2.85-6.887-8.788-12.588-17.1-15.2-11.163-3.563-22.801 0-28.976 7.838a28.146 28.146 0 0 0-3.088 6.175" class="&lt;Path&gt;"/>
          <path stroke="#3F1D13" stroke-width="1.9" d="M864.604 226.017c.951-5.937 6.651-9.975 12.588-9.025 3.088.475 5.463 2.138 7.126 4.513" class="&lt;Path&gt;"/>
          <path stroke="#3F1D13" stroke-width="2.613" d="M951.058 218.892c9.263 1.425 15.438 10.212 13.776 19.238-1.425 9.263-10.213 15.438-19.239 14.013m-26.363-8.55c-9.263.238-16.863-6.888-17.1-16.151-.238-9.025 6.887-16.625 16.15-16.863 9.263-.237 16.863 6.888 17.101 16.151" class="&lt;Path&gt;"/>
          <path stroke="#3F1D13" stroke-width="1.9" d="M806.653 266.393c4.275-10.45 16.15-15.438 26.601-11.163 10.688 4.275 15.675 16.151 11.4 26.601" class="&lt;Path&gt;"/>
          <path stroke="#3F1D13" stroke-width="2.613" d="M771.027 279.219a13.462 13.462 0 0 1-8.551-17.1c2.613-7.125 10.213-11.163 17.339-8.551" class="&lt;Path&gt;"/>
          <path stroke="#3F1D13" stroke-width="1.9" d="M858.192 243.592c13.776-5.7 29.451.95 34.914 14.488" class="&lt;Path&gt;"/>
          <path stroke="#3F1D13" stroke-width="2.613" d="M756.063 329.809c-7.6-9.263-6.412-22.801 2.85-30.401" class="&lt;Path&gt;"/>
          <path stroke="#3F1D13" stroke-width="1.9" d="M950.821 326.958c-7.838-.713-13.301-7.6-12.588-15.438" class="&lt;Path&gt;"/>
          <path stroke="#3F1D13" stroke-width="2.613" d="M823.991 301.07c-1.425 4.275-5.938 6.651-10.451 5.226-4.275-1.425-6.65-5.938-5.462-10.451m107.829-4.276c-8.313 2.375-17.101-2.612-19.476-11.162-2.375-8.551 2.613-17.339 11.163-19.714s17.338 2.851 19.713 11.401" class="&lt;Path&gt;"/>
          <path stroke="#3F1D13" stroke-width="1.9" d="M779.577 272.806c8.075-3.562 17.575 0 21.138 7.838 3.8 8.075.475 17.575-7.6 21.376-8.076 3.562-17.576.237-21.139-7.838m200.695-1.9c5.938 4.275 7.125 12.825 2.85 18.763-4.275 5.938-12.825 7.125-18.763 2.85-5.938-4.275-7.125-12.588-2.85-18.763" class="&lt;Path&gt;"/>
          <path stroke="#3F1D13" stroke-width="2.613" d="M799.29 262.593c-11.4-1.9-19.001-12.588-17.101-23.988 1.9-11.401 12.588-19.001 23.989-17.101 11.163 1.9 18.763 12.588 16.863 23.988m30.401 28.264c3.8 5.938 2.137 14.013-4.038 18.051-6.175 3.8-14.25 2.137-18.05-4.038m152.243 7.601c9.025 3.325 13.538 13.3 10.45 22.563-3.325 9.026-13.538 13.775-22.563 10.45m20.188-62.701c0 9.263-7.363 16.863-16.625 16.863-9.263 0-16.863-7.6-16.863-16.863s7.6-16.864 16.863-16.864c9.262 0 16.625 7.601 16.625 16.864Z" class="&lt;Path&gt;"/>
          <path stroke="#3F1D13" stroke-width="1.9" d="M941.558 258.318c-5.463 2.613-11.876.238-14.488-4.988-2.613-5.462-.238-11.875 4.987-14.488 5.463-2.612 11.876-.237 14.488 4.988" class="&lt;Path&gt;"/>
          <g class="&lt;Group&gt;">
            <path stroke="#3F1D13" stroke-width="1.9" d="M887.881 278.744c0 5.937-4.751 10.925-10.688 10.925m-10.925-10.925c0-5.938 4.987-10.688 10.925-10.688" class="&lt;Path&gt;"/>
          </g>
          <path stroke="#3F1D13" stroke-width="2.613" d="M847.267 223.167c0 9.263-7.6 16.626-16.863 16.626-9.026 0-16.626-7.363-16.626-16.626 0-9.263 7.6-16.863 16.626-16.863 9.263 0 16.863 7.6 16.863 16.863Z" class="&lt;Path&gt;"/>
        </g>
        <g class="&lt;Group&gt;">
          <path fill="#855226" d="M835.629 340.258c-.475 4.988 3.087 9.263 7.837 9.739 4.751.237 8.788-3.563 9.263-8.551.475-4.988-3.087-9.263-7.837-9.738-4.751-.237-8.788 3.563-9.263 8.55Z" class="&lt;Path&gt;"/>
          <path fill="#050505" d="M841.329 340.734c0 1.663 1.188 3.088 2.85 3.088 1.425-.238 2.613-1.425 2.613-3.088 0-1.662-1.188-2.85-2.85-2.85-1.425 0-2.613 1.425-2.613 2.85Z" class="&lt;Path&gt;"/>
          <path fill="#FEFEFE" d="M846.317 337.646c0 .95.712 1.663 1.662 1.663s1.663-.713 1.663-1.663c0-.95-.713-1.9-1.663-1.9-.95.238-1.662.95-1.662 1.9Z" class="&lt;Path&gt;"/>
        </g>
        <g class="&lt;Group&gt;">
          <path fill="#855226" d="M912.106 340.496c.713 4.987-2.612 9.5-7.125 10.213-4.75.712-9.263-2.85-9.975-7.838-.713-4.988 2.612-9.501 7.363-10.213 4.75-.713 9.025 2.85 9.737 7.838Z" class="&lt;Path&gt;"/>
          <path fill="#050505" d="M906.407 341.445c0 1.663-.95 3.088-2.613 3.088-1.425 0-2.612-1.188-2.612-2.85-.238-1.425.95-2.85 2.375-2.85 1.425-.238 2.612 1.187 2.85 2.612Z" class="&lt;Path&gt;"/>
          <path fill="#FEFEFE" d="M901.181 338.596c0 .95-.475 1.662-1.425 1.662-.95.238-1.662-.475-1.662-1.425 0-.95.475-1.9 1.425-1.9.95 0 1.662.713 1.662 1.663Z" class="&lt;Path&gt;"/>
        </g>
        <path stroke="#050505" stroke-linecap="round" stroke-linejoin="round" stroke-width="2.613" d="m927.307 323.633-6.65 7.363s-27.076-3.8-31.589 16.626" class="&lt;Path&gt;"/>
        <g class="&lt;Path&gt;">
          <path fill="#BB8653" d="m919.469 323.633-3.8 6.888 3.8-6.888Z"/>
          <path stroke="#050505" stroke-linecap="round" stroke-linejoin="round" stroke-width="2.613" d="m919.469 323.633-3.8 6.888"/>
        </g>
        <path stroke="#050505" stroke-linecap="round" stroke-linejoin="round" stroke-width="2.613" d="m819.478 324.346 7.126 6.888s26.601-5.463 32.301 14.725" class="&lt;Path&gt;"/>
        <g class="&lt;Path&gt;">
          <path fill="#BB8653" d="m827.079 323.871 4.275 6.65-4.275-6.65Z"/>
          <path stroke="#050505" stroke-linecap="round" stroke-linejoin="round" stroke-width="2.613" d="m827.079 323.871 4.275 6.65"/>
        </g>
        <path stroke="#050505" stroke-linecap="round" stroke-linejoin="round" stroke-width="3.563" d="M854.154 321.258s-13.3-6.65-23.038 5.225m61.515-4.037s12.825-7.363 23.038 4.037" class="&lt;Path&gt;"/>
        <path fill="#050505" d="M893.344 373.035c-2.138-5.7-10.926-3.325-16.151-2.612-1.187.237-3.563.474-4.988.474-1.187 0-3.562-.237-5.225-.474-4.988-.713-14.013-3.088-15.913 2.612-2.137 5.463 2.138 16.863 19.001 17.576.633.158 1.346.158 2.137 0 .634.158 1.346.158 2.138 0 16.863-.713 20.901-12.113 19.001-17.576Z" class="&lt;Path&gt;"/>
      </g>
      <g style="transform-origin: 50% 50%; transform-box: fill-box;" class="cartel-completo">
        <g class="palo">
          <path fill="#AB4B39" d="M942.983 136.001h8.788l17.338 272.898h-8.787l-17.339-272.898Z" class="&lt;Path&gt;"/>
          <g class="&lt;Group&gt;">
            <path fill="#88391D" d="m953.197 297.982 8.787-.475-9.262-147.731-8.788.713 9.263 147.493Z" class="&lt;Path&gt;"/>
            <path fill="#88391D" d="m944.171 154.052 8.788-.476-.712-10.925-8.788.713.712 10.688Z" class="&lt;Path&gt;"/>
          </g>
        </g>
        <g class="cartel">
          <g class="&lt;Group&gt;">
            <path fill="#050505" fill-rule="evenodd" d="m1018.04 290.145-120.659 7.6c-.95 0-1.9-.712-1.9-1.662l-9.975-143.693c0-.95.712-1.9 1.662-1.9l120.652-8.075c.95 0 1.9.712 1.9 1.662l9.98 144.168c0 .95-.71 1.9-1.66 1.9Zm-12.83-144.88-114.717 7.838c-1.187 0-1.9.712-1.662 1.662l9.263 138.468c.237.95.95 1.662 1.9 1.662l114.716-7.363c1.19 0 1.9-.712 1.66-1.9l-9.26-138.704c0-.951-.95-1.663-1.9-1.663Z" class="&lt;Compound Path&gt;" clip-rule="evenodd"/>
            <path fill="#FEFEFE" d="m1016.61 287.532-118.278 7.6-9.738-142.029 118.276-7.838 9.74 142.267Z" class="&lt;Path&gt;"/>
            <path fill="#53A4DA" d="m900.944 259.506-6.888-102.128 48.927-3.088-29.451 44.889 20.188-3.325-32.776 63.652Zm103.316-79.089 7.13 102.128-48.931 3.325 29.213-44.889-19.95 3.325 32.538-63.889Z" class="&lt;Path&gt;"/>
          </g>
          <g class="&lt;Group&gt;">
            <path fill="#3D92CD" d="m916.382 267.106 2.137-3.8 9.738 1.188-6.412-7.601 2.137-4.037 16.626 5.937-2.138 3.801-9.5-3.563v.237l6.887 8.313-.712 1.425-10.688-1.187-.237.237 8.312 5.938-2.137 4.038-14.013-10.926Zm15.438-20.664 2.613 1.426 2.375-4.513 3.325 1.9-2.375 4.275 2.612 1.425 2.613-4.513 3.325 1.663-4.75 8.788-15.201-8.313 4.513-8.55 3.325 1.662-2.375 4.75Zm1.425-10.925 2.137-3.8 9.738 1.187-6.413-7.6 2.138-4.038 16.625 5.938-2.137 4.038-9.5-3.563 6.887 8.313-.95 1.663-10.688-1.188 8.313 5.938-2.137 4.037-14.013-10.925Z" class="&lt;Compound Path&gt;"/>
            <path fill="#3D92CD" fill-rule="evenodd" d="M959.133 204.879c4.988 2.613 6.651 8.076 3.801 13.063-2.613 4.75-7.838 6.651-12.826 3.801-4.75-2.375-5.7-8.076-3.325-12.588 2.375-4.513 7.6-6.651 12.35-4.276Zm-6.887 12.826c2.612 1.425 5.7.475 6.887-1.9 1.426-2.375.476-5.463-2.137-6.65-2.138-1.188-5.225-.238-6.413 2.137-1.187 2.375-.475 5.225 1.663 6.413Zm22.8-23.277-2.85 4.988-7.838.474 5.938 3.326-2.137 3.8-15.201-8.076 3.088-5.937c1.662-3.088 4.275-4.513 7.6-2.85 2.137 1.187 3.325 3.325 2.375 5.7l9.025-1.425Zm-13.063 4.275.238-.475c.712-1.188 1.187-2.85-.475-3.8-1.663-.95-2.613.475-3.325 1.662l-.238.475 3.8 2.138Z" class="&lt;Compound Path&gt;" clip-rule="evenodd"/>
            <path fill="#3D92CD" d="m977.659 189.202-2.137 3.8-15.201-8.075 2.138-4.038 15.2 8.313Z" class="&lt;Compound Path&gt;"/>
            <path fill="#3D92CD" fill-rule="evenodd" d="m978.609 180.89 2.138 2.613-2.138 4.275-12.35-14.251 2.375-4.275 18.525 2.375-2.375 4.276-3.087-.475-3.088 5.462Zm-6.413-6.888h-.237l4.037 4.276 1.9-3.326-5.7-.95Z" class="&lt;Compound Path&gt;" clip-rule="evenodd"/>
          </g>
        </g>
        <g class="dedo">
          <g class="&lt;Path&gt;">
            <path fill="#803531" d="m951.051 354.971 5.938-2.137c2.375-.713 5.225.712 5.937 2.85.713 2.137-.475 3.8-1.425 4.512-1.662 1.663-3.087 1.9-3.087 1.9"/>
            <path stroke="#050505" stroke-linecap="round" stroke-linejoin="round" stroke-width="1.9" d="m951.051 354.971 5.938-2.137c2.375-.713 5.225.712 5.937 2.85.713 2.137-.475 3.8-1.425 4.512-1.662 1.663-3.087 1.9-3.087 1.9"/>
          </g>
        </g>
      </g>

    </g>
  </g>
</svg>
