<svg xmlns="http://www.w3.org/2000/svg" width="1080" height="690" fill="none" viewBox="0 0 1080 690">
  <g class="octubre">
    <g class="zamba">
      <path fill="#1C1C1A" d="M404.33 554.665c0 10.175-46.435 18.523-103.828 18.523s-103.829-8.348-103.829-18.523c0-10.174 46.436-18.522 103.829-18.522 57.393 0 103.828 8.348 103.828 18.522Z" class="sombra" opacity=".2"/>
      <g class="brazo der">
        <g class="&lt;Group&gt;">
          <g class="&lt;Group&gt;">
            <path fill="#B3805F" d="M379.547 375.443s11.74-9.913 10.957-21.391c-.522-11.479-22.696-21.132-29.218-8.349-5.479 11.218-4.174 18.783-1.305 20.87 3.131 2.087 19.566 8.87 19.566 8.87Z" class="&lt;Path&gt;"/>
            <path fill="#050505" fill-rule="evenodd" d="M379.025 376.487c-.782-.261-16.435-6.521-19.565-8.869-3.913-2.609-4.957-11.218.782-22.436 2.609-5.478 8.348-7.826 15.392-6.522 7.565 1.566 15.913 7.827 16.174 15.392.783 12.001-10.957 21.914-11.478 22.175-.348.348-.609.521-.783.521-.174 0-.348-.087-.522-.261Zm-16.435-30.261c-5.478 10.435-4.174 17.739-1.826 19.305 2.348 1.565 13.565 6.26 18.522 8.347 2.087-2.087 10.696-10.434 10.174-19.826-.521-6.261-7.826-11.479-14.348-12.783-.782-.261-2.087-.522-3.391-.522-3.131 0-7.044 1.044-9.131 5.479Z" class="&lt;Compound Path&gt;" clip-rule="evenodd"/>
          </g>
          <g class="&lt;Group&gt;">
            <path fill="#050505" fill-rule="evenodd" d="M379.286 363.704c-3.652-.522-15.913-3.13-14.348-13.044 0-.782.522-1.044 1.304-1.044.783 0 1.305.783 1.044 1.566-1.044 7.304 9.131 9.392 12.522 9.913 5.218.783 7.826-.261 8.087-.782.261-.783 1.044-1.044 1.565-.783.783.261 1.044 1.044.783 1.565-.522 1.826-3.391 2.87-7.304 2.87-1.044 0-2.261-.087-3.653-.261Z" class="&lt;Compound Path&gt;" clip-rule="evenodd"/>
          </g>
          <g class="&lt;Group&gt;">
            <path fill="#B3805F" d="M359.459 349.617c.261-2.087 2.087-3.913 4.435-3.652l6.783.261c2.087.261 3.913 2.086 3.652 4.173 0 2.348-1.826 3.914-4.174 3.914l-4.435.261" class="&lt;Path&gt;"/>
            <path fill="#050505" d="M365.72 355.617h4.435c1.565 0 2.87-.522 3.913-1.305 1.044-1.043 1.565-2.347 1.565-3.913.261-1.304-.261-2.608-1.304-3.652a4.566 4.566 0 0 0-3.652-1.826l-6.783-.261c-2.87-.261-5.478 2.087-5.739 4.957 0 .782.522 1.304 1.304 1.304.783 0 1.305-.522 1.305-1.043.26-1.566 1.304-2.87 2.869-2.609l7.044.261c.696 0 1.304.26 1.826.782.522.696.783 1.392.783 2.087a3.864 3.864 0 0 1-1.044 1.826c-.522.522-1.217.783-2.087.783l-4.435.261c-.782 0-1.304.522-1.043 1.305 0 .521.521 1.043 1.043 1.043Z" class="&lt;Path&gt;"/>
          </g>
          <path fill="#050505" d="M366.764 354.574s8.087.521 7.566-3.914c-.522-4.434 1.565-3.13 1.565-3.13s3.391 3.131 1.565 7.826c-1.826 4.696-10.435 3.913-10.696-.782Z" class="&lt;Path&gt;" opacity=".1" style="mix-blend-mode:multiply"/>
          <path fill="#050505" d="M365.721 354.834s-.783 4.174 4.956 7.826c6.001 3.914 8.87 5.218 8.088 6.522-.783 1.566-2.348 3.914-1.044 4.957 1.304 1.044 6.261-1.043 8.087-4.695 1.826-3.914 2.609-7.566 2.609-7.566s-9.392 2.87-13.566.522c-4.174-2.087-9.13-7.566-9.13-7.566Z" class="&lt;Path&gt;" opacity=".1" style="mix-blend-mode:multiply"/>
        </g>
        <g class="&lt;Group&gt;">
          <g class="&lt;Group&gt;">
            <path fill="#F1F1F1" d="M319.807 455.271c-16.435-10.174-7.305-23.478-7.305-23.478l42.001-75.132 34.697 16.435-44.871 79.306s-6.782 13.565-24.522 2.869Z" class="&lt;Path&gt;"/>
            <path fill="#050505" fill-rule="evenodd" d="M319.285 456.315c-5.74-3.478-9.131-7.652-10.175-12.522-1.565-6.783 1.827-12 2.088-12.783l42.261-75.132c.261-.522 1.044-.783 1.566-.522l34.696 16.696c.348.174.522.435.522.783.174.348.174.695 0 1.043l-44.871 79.045c-.261.522-2.869 5.479-8.87 7.305a17.139 17.139 0 0 1-4.174.522c-4 0-8.348-1.478-13.043-4.435Zm35.74-98.089-41.479 74.089c0 .26-3.392 4.956-2.088 10.956 1.044 4.174 4.087 7.826 9.131 10.957 5.739 3.478 10.783 4.609 15.131 3.391 5.217-1.304 7.304-5.739 7.304-5.739v-.261l44.349-78.001-32.348-15.392Z" class="&lt;Compound Path&gt;" clip-rule="evenodd"/>
          </g>
        </g>
        <path fill="#050505" d="M351.634 411.705c14.087-9.913 21.652-38.609 15.131-42.522-3.914-2.609-10.175-6.522-14.088-9.131l-40.175 71.741s-9.13 13.304 7.305 23.479c17.74 10.695 24.522-2.87 24.522-2.87l16.957-30.261c-10.696-.783-22.174-1.305-9.652-10.436Z" class="&lt;Path&gt;" opacity=".1" style="mix-blend-mode:multiply"/>
      </g>
      <g class="torso">
        <g class="&lt;Group&gt;">
          <path fill="#831618" d="M266.849 413.531s-70.176 19.827-65.48 45.915c4.957 26.348 22.174 72.001 71.741 41.74 49.566-30.262-6.261-87.655-6.261-87.655Z" class="&lt;Path&gt;"/>
          <path fill="#050505" fill-rule="evenodd" d="M230.065 509.795c-20.348-9.131-27.653-38.088-30.001-50.088-4.956-26.871 63.393-46.437 66.263-47.48.522 0 1.043 0 1.304.522.261 0 7.826 7.826 14.87 19.043 6.522 10.435 13.826 26.088 12 41.219-1.565 11.739-8.609 21.652-20.87 29.218-11.131 6.783-21.218 10.174-30.261 10.174-4.696 0-9.131-.869-13.305-2.608Zm-27.392-50.349c2.087 11.478 9.131 39.392 28.436 48 11.217 4.957 25.043 2.61 41.218-7.304 11.739-7.304 18.261-16.435 19.565-27.653 3.392-25.305-21.652-53.218-25.565-57.392-7.305 2.087-68.089 20.87-63.654 44.349Z" class="&lt;Compound Path&gt;" clip-rule="evenodd"/>
        </g>
        <g class="&lt;Group&gt;">
          <g class="&lt;Group&gt;">
            <path fill="#050505" d="M289.023 543.969s-2.87 6.522 8.348 11.218l-55.045 2.348 1.304-11.739 45.393-1.827Z" class="&lt;Path&gt;"/>
            <path fill="#050505" fill-rule="evenodd" d="M241.282 558.317a2.313 2.313 0 0 1-.261-1.043l1.305-11.74c.261-.521.782-1.043 1.304-1.043l45.132-1.826c.522 0 .956.261 1.304.782a1.11 1.11 0 0 1 0 1.044s-.522 1.565.261 3.391c.783 2.348 3.391 4.435 7.565 6.261.522.261.783.783.783 1.305-.261.522-.783 1.043-1.304 1.043l-55.045 2.348c-.348 0-.696-.174-1.044-.522Zm46.697-9.391c-.522-1.304-.782-2.609-.522-3.653l-42.522 1.827-1.305 9.131 49.045-2.088c-2.435-1.565-4-3.304-4.696-5.217Z" class="&lt;Compound Path&gt;" clip-rule="evenodd"/>
          </g>
          <g class="&lt;Group&gt;">
            <g class="&lt;Group&gt;">
              <g class="&lt;Group&gt;">
                <path fill="#2B6EB6" d="m244.674 506.142-3.392 43.045 49.306-.782 10.174-40.697" class="&lt;Path&gt;"/>
                <path fill="#050505" d="m241.282 550.491 49.306-.782c.521 0 1.043-.522 1.043-1.044l10.174-40.696c.261-.522-.261-1.305-.782-1.566-.783 0-1.305.261-1.565 1.044l-9.914 39.653-46.957.782 3.391-41.74c0-.521-.522-1.304-1.304-1.304-.522 0-1.305.522-1.305 1.044l-3.391 43.044c0 .348.087.696.261 1.043.348.348.695.522 1.043.522Z" class="&lt;Path&gt;"/>
              </g>
            </g>
          </g>
          <path fill="#050505" d="M241.804 544.491s2.348-12 12.001-12.522c9.652-.783 36.783 4.435 40.175 4.435l1.826-11.478-52.697-6.001s0 17.218-1.305 25.566Z" class="&lt;Path&gt;" opacity=".2" style="mix-blend-mode:multiply"/>
        </g>
        <g class="&lt;Group&gt;">
          <g class="&lt;Group&gt;">
            <g class="&lt;Group&gt;">
              <path fill="#050505" d="M364.938 540.579s-1.043 5.217 14.87 10.956l-54.784 2.087-3.391-11.479 43.305-1.564Z" class="&lt;Path&gt;"/>
              <path fill="#050505" fill-rule="evenodd" d="m323.72 553.883-3.392-11.478c0-.348.087-.697.261-1.044.174-.348.522-.522 1.044-.522l43.305-1.565c.522 0 .782 0 1.043.522.348.174.435.521.261 1.043 0 .261.261 4.696 14.088 9.392.521.261.782.782.782 1.304 0 .783-.522 1.044-1.043 1.305l-55.045 2.087c-.522 0-1.043-.262-1.304-1.044Zm40.174-12-40.696 1.565 2.608 8.87 48.002-1.827c-7.566-3.391-9.392-6.782-9.914-8.608Z" class="&lt;Compound Path&gt;" clip-rule="evenodd"/>
            </g>
          </g>
          <g class="&lt;Group&gt;">
            <g class="&lt;Group&gt;">
              <path fill="#2B6EB6" d="m355.024 501.186 11.74 39.914-46.697 4.696-19.044-39.654" class="&lt;Path&gt;"/>
              <path fill="#050505" d="M320.067 547.1h.261l46.697-4.696c.348-.173.609-.347.782-.521.348-.348.436-.783.262-1.305l-11.74-39.653c-.261-.783-1.044-1.043-1.565-1.043-.783.26-1.044 1.043-1.044 1.826l11.479 38.348-44.349 4.436-18.783-38.871c-.261-.522-1.043-.783-1.826-.522-.522.261-.783 1.043-.522 1.826l19.305 39.393c.261.521.522.782 1.043.782Z" class="&lt;Path&gt;"/>
            </g>
          </g>
          <path fill="#050505" d="M316.154 537.447s11.478.262 21.653-2.869c10.174-3.391 25.826-5.739 25.826-5.739l-5.478-19.044-50.349 8.869 8.348 18.783Z" class="&lt;Path&gt;" opacity=".2" style="mix-blend-mode:multiply"/>
        </g>
        <g class="&lt;Group&gt;">
          <g class="&lt;Group&gt;">
            <path fill="#F1F1F1" d="M294.501 445.881s15.131-17.218 20.871-19.305c6-1.826 10.174-4.956 15.391.522 6.261 6.783 22.436 28.174 33.653 70.697-2.087 9.392-13.565 15.392-35.218 21.131-28.957 7.566-47.74 7.044-68.35 8.609-20.609 1.826-26.087.522-26.087-2.087 2.087-66.001-13.305-86.61-13.305-86.61l37.566-1.305 35.479 8.348Z" class="&lt;Path&gt;"/>
            <path fill="#050505" fill-rule="evenodd" d="M234.5 527.796c-.696-.696-1.044-1.478-1.044-2.348 2.087-64.697-13.043-85.568-13.043-85.828-.261-.522-.261-1.044-.261-1.305.261-.522.782-.782 1.304-.782l37.306-1.304c.173 0 .347.086.521.26l34.697 8.088c3.13-3.392 15.652-17.218 21.131-19.044l2.608-1.044c4.435-1.826 9.131-3.652 14.088 1.826 6.261 7.044 22.696 28.175 33.914 71.219v.783c-2.087 9.13-13.044 15.652-36.262 21.652-22.696 6-39.131 7.044-55.306 8.088-4.174.261-8.87.522-13.305.783-6.522.521-11.478.782-15.13.782-7.826 0-10.174-.783-11.218-1.826Zm95.22-99.916c-3.653-3.913-6.522-2.869-11.218-1.043l-2.609 1.043c-4.435 1.565-16.174 14.088-20.609 18.784-.261.521-.783.521-1.043.521l-35.479-8.348-35.219 1.044c3.913 6.522 14.087 30 12.522 85.827 1.305 1.305 6.522 2.088 24.523.783a2318.5 2318.5 0 0 0 13.565-1.043c15.653-1.044 32.088-1.826 54.784-7.826 21.914-5.74 32.088-11.74 34.175-19.566-11.218-42.523-26.871-63.132-33.392-70.176Z" class="&lt;Compound Path&gt;" clip-rule="evenodd"/>
          </g>
          <g class="&lt;Group&gt;">
            <g class="&lt;Group&gt;">
              <path fill="#050505" fill-rule="evenodd" d="M249.371 513.447c-3.131-2.87-4.696-7.044-4.696-12.522v-11.74c0-.522.522-1.043 1.304-1.304l31.044-2.609c.348 0 .696.087 1.044.261.174.348.261.696.261 1.043l-.261 11.74c0 10.435-6.522 17.74-16.696 18.522-.696.174-1.305.261-1.826.261-4.174 0-7.826-1.304-10.174-3.652Zm-2.087-22.958v10.436c-.261 4.695 1.304 8.348 3.652 10.696 2.609 2.087 6 3.13 10.174 2.87 7.044-.783 14.348-5.218 14.348-16.175l.261-10.435-28.435 2.608Z" class="&lt;Compound Path&gt;" clip-rule="evenodd"/>
            </g>
            <g class="&lt;Group&gt;">
              <path fill="#ED3937" d="m277.545 492.316-31.826 2.87Z" class="&lt;Path&gt;"/>
              <path fill="#050505" d="m245.979 496.49 31.566-2.869v-2.609l-31.826 2.869.26 2.609Z" class="&lt;Path&gt;"/>
            </g>
          </g>
          <path fill="#050505" d="M255.631 518.404s8.609 1.826 21.131-7.044c12.261-9.131 12.783-16.435 12.783-16.435l-12 2.87s-2.087 18.522-19.044 18.261l-2.87 2.348Z" class="&lt;Path&gt;" opacity=".1" style="mix-blend-mode:multiply"/>
          <path fill="#8DBEE6" d="M256.675 436.228s32.088 8.087 51.914 22.696c0 0 7.826-20.348-.522-41.479l-51.392 18.783Z" class="&lt;Path&gt;"/>
          <g class="&lt;Group&gt;">
            <path fill="#050505" d="M358.416 494.142c1.565 0 3.391-.261 5.217-1.044.783-.522 1.044-1.043.783-1.826-.261-.522-1.043-.782-1.826-.521-5.739 2.608-8.348-.783-8.87-1.305l-6.783-18.261 7.827-2.87c.521-.261.782-.782.522-1.565-.261-.522-.783-1.044-1.566-.783l-8.869 3.392c-.522.261-.783.782-.522 1.565l7.043 19.565v.262s2.348 3.391 7.044 3.391Z" class="&lt;Path&gt;"/>
          </g>
          <g class="&lt;Group&gt;">
            <path fill="#050505" d="M347.46 477.185h.26l9.392-3.13c.522-.261 1.044-1.044.783-1.827-.261-.522-1.044-.782-1.566-.782l-9.391 3.391c-.783.261-1.044 1.044-.783 1.565.261.522.783.783 1.305.783Z" class="&lt;Path&gt;"/>
          </g>
          <path fill="#050505" d="m263.196 430.75-30.783 8.609 39.132 14.87-14.088 8.869 51.393 3.131s3.391 9.652 6.261 17.739c2.609 8.087-2.87 8.609 0 10.435 3.13 1.826 4.956 4.957 6.522 9.914 1.565 5.217 2.348 16.174 2.348 16.174l4.174-3.913s-8.088-30.262-15.392-49.567l20.609-26.087-10.174-5.218 3.913-13.565-19.305 1.044 2.609 40.174-47.219-32.609Z" class="&lt;Path&gt;" opacity=".1" style="mix-blend-mode:multiply"/>
          <g class="&lt;Group&gt;">
            <g class="&lt;Group&gt;">
              <path fill="#050505" d="M303.633 474.577c0 1.826 1.565 2.87 3.391 2.609 1.826-.261 3.131-1.826 2.87-3.653 0-1.826-1.565-2.869-3.392-2.608-1.826.261-3.13 1.826-2.869 3.652Z" class="&lt;Path&gt;"/>
            </g>
            <g class="&lt;Group&gt;">
              <path fill="#050505" d="M307.285 488.143c0 1.826 1.566 2.869 3.392 2.608 1.826-.261 3.13-1.826 2.87-3.652 0-1.826-1.566-2.869-3.392-2.608-1.826.26-3.13 1.825-2.87 3.652Z" class="&lt;Path&gt;"/>
            </g>
            <g class="&lt;Group&gt;">
              <path fill="#050505" d="M311.981 501.447c0 1.826 1.565 2.87 3.391 2.609 1.826-.261 3.13-1.827 2.869-3.653 0-1.826-1.565-2.87-3.391-2.609-1.565.261-2.869 1.827-2.869 3.653Z" class="&lt;Path&gt;"/>
            </g>
            <g class="&lt;Group&gt;">
              <path fill="#FEFEFE" d="M309.893 461.533s9.913 20.087 18.783 56.871Z" class="&lt;Path&gt;"/>
              <path fill="#050505" d="m328.677 519.708.261-.261c.782 0 1.043-.783 1.043-1.305-8.87-36.783-18.783-56.87-18.783-57.131-.261-.522-1.043-.783-1.826-.522-.522.261-.783 1.043-.522 1.565 0 .261 9.913 20.348 18.522 56.61.261.522.783 1.044 1.305 1.044Z" class="&lt;Path&gt;"/>
            </g>
            <g class="&lt;Group&gt;">
              <path fill="#F0F1F1" d="M302.589 423.967s3.391 17.218 7.305 37.566l23.218-26.349-15.392 5.218 16.174-21.653-31.305 5.218Z" class="&lt;Path&gt;"/>
              <path fill="#050505" fill-rule="evenodd" d="M309.633 462.837c-.522 0-.783-.522-.783-1.044-3.913-20.087-7.566-37.305-7.566-37.565 0-.348.088-.696.262-1.044.173-.174.434-.348.782-.522l31.305-5.217c.522 0 1.044.261 1.304.782.261.261.261 1.044-.26 1.305l-13.566 18.522 11.74-3.913c.521-.261 1.043 0 1.304.522.522.521.261 1.043 0 1.565l-23.218 26.348c-.174.174-.522.261-1.044.261h-.26Zm8.608-21.131c-.521 0-1.043 0-1.565-.521a1.664 1.664 0 0 1 0-1.566l14.087-19.043-26.609 4.434c.783 4.174 3.653 18.001 6.522 33.914l18.522-20.87-10.957 3.652Z" class="&lt;Compound Path&gt;" clip-rule="evenodd"/>
            </g>
            <g class="&lt;Group&gt;">
              <path fill="#F0F1F1" d="M276.241 428.141s12.261 10.174 33.653 33.392l-42.262-2.609 14.87-5.739-36.001-6.522 29.74-18.522Z" class="&lt;Path&gt;"/>
              <path fill="#050505" fill-rule="evenodd" d="m309.894 462.838-42.262-2.609c-.783 0-1.305-.522-1.305-1.044 0-.782.261-1.304.783-1.565l10.696-4.174-31.566-5.478c-.522-.261-.783-.522-1.044-1.044 0-.522.261-1.043.783-1.304l29.74-18.522c.522-.261 1.043-.261 1.304 0 .261 0 12.522 10.435 33.914 33.653.261.521.522 1.043.261 1.304-.261.522-.783.783-1.304.783Zm-59.741-16.957 32.609 6c.522 0 1.044.522 1.044 1.043 0 .522-.261 1.044-.783 1.305l-9.652 3.652 33.392 2.348c-16.957-18.522-27.914-28.174-30.522-30.522l-26.088 16.174Z" class="&lt;Compound Path&gt;" clip-rule="evenodd"/>
            </g>
          </g>
          <path fill="#050505" d="M235.023 527.274s12.261 4.174 23.478-2.348c11.218-6.783 0-1.826-6.783-4.957-6.782-3.391-3.652-9.13-3.652-9.13s-3.13-8.349-2.087-21.653c0 0 10.957-4.695 20.349-8.609 9.13-3.913 5.478-11.218 1.304-9.653-3.913 1.566 16.174-13.304 9.131-28.174-7.044-14.869-25.827-5.217-25.827-5.217l-19.044 38.087 3.131 51.654Zm78.784-96.003s27.913 7.565 38.87 35.218c0 0-3.913-20.348-10.435-29.739-6.783-9.392-14.87-16.957-14.87-16.957l-13.565 11.478Z" class="&lt;Path&gt;" opacity=".1" style="mix-blend-mode:multiply"/>
        </g>
        <g class="&lt;Group&gt;">
          <path fill="#ED2D2F" d="M203.456 455.793s2.87 20.087 18.522 30.261c0 0 13.827 9.392 25.566 0 10.957-8.869 16.435-42.261-18.522-59.218-34.957-16.696-37.305 15.131-25.566 28.957Z" class="&lt;Path&gt;"/>
          <path fill="#050505" fill-rule="evenodd" d="M221.196 487.099c-14.87-9.653-18.522-27.914-18.783-30.784-6.522-7.826-9.131-21.914-3.131-29.74 3.391-4.174 11.478-9.913 30.262-.782 21.652 10.174 26.348 26.087 27.391 34.435 1.305 10.696-2.347 21.914-8.608 26.871-4.174 3.391-8.609 4.434-12.522 4.434-8.088 0-14.609-4.174-14.609-4.434Zm-19.827-58.959c-5.478 6.783-2.87 19.827 3.131 26.61.173.347.26.608.26.782 0 .261 3.131 19.566 17.74 29.479.261 0 6 3.914 13.305 3.914 3.391 0 7.304-1.044 10.957-3.914 4.695-3.652 8.869-13.305 7.565-24.522-.783-7.827-5.478-22.696-25.827-32.349-6.522-3.13-12-4.695-16.696-4.695-4.435 0-8.087 1.565-10.435 4.695Z" class="&lt;Compound Path&gt;" clip-rule="evenodd"/>
        </g>
        <g class="&lt;Group&gt;">
          <path fill="#ED2D2F" d="M327.633 400.488s26.348 9.652 21.913 56.61c0 0-11.217-25.305-37.305-34.697l15.392-21.913Z" class="&lt;Path&gt;"/>
          <path fill="#050505" fill-rule="evenodd" d="M348.242 457.62c0-.261-11.218-25.044-36.523-33.914-.348-.174-.608-.522-.782-1.044-.174-.348-.087-.696.261-1.043l15.391-21.914c.261-.521 1.044-.522 1.566-.522.26.261 7.043 2.87 13.043 11.218 5.74 7.826 12 22.174 9.653 46.957-.261.522-.522 1.044-1.044 1.044h-.261c-.522 0-1.043-.261-1.304-.782Zm-34.175-35.74c19.305 7.565 30.262 23.217 34.436 30.783 1.304-21.131-4.174-33.653-9.131-40.436-4.435-6.261-9.391-9.131-11.217-10.174l-14.088 19.827Z" class="&lt;Compound Path&gt;" clip-rule="evenodd"/>
        </g>
      </g>
      <g class="cabeza">
        <path fill="#050505" d="M209.195 418.749s-7.305 7.565-6.261 27.653c0 0 11.217-1.044 23.218 10.435 11.739 11.217 23.739 22.957 27.391 14.609 3.914-8.348 3.131-9.131 3.131-9.131s28.696 2.087 52.697-7.304c23.74-9.392 40.435-17.479 38.87-26.871-1.826-9.391-9.13-23.478-9.13-23.478l-129.916 14.087Z" class="&lt;Path&gt;" opacity=".2" style="mix-blend-mode:multiply"/>
        <g class="&lt;Group&gt;">
          <g class="&lt;Group&gt;">
            <path fill="#B3805F" d="M181.02 390.835c20.349 43.827 57.393 76.698 120.003 53.741 70.958-26.088 65.48-69.393 45.132-113.481-20.348-44.088-73.045-63.132-117.394-42.523-44.61 20.349-68.089 58.175-47.741 102.263Z" class="&lt;Path&gt;"/>
            <path fill="#050505" fill-rule="evenodd" d="M224.587 443.793c-18.261-9.913-33.132-27.653-44.61-52.436-9.913-21.392-10.174-42.523-.522-61.045 8.87-17.478 25.566-32.348 48.784-43.044 21.653-9.914 46.175-10.957 68.61-2.87 22.696 8.087 40.436 24.523 50.61 46.175 6.522 14.088 10.435 26.088 12.261 36.783 2.348 13.305 1.305 24.523-3.13 34.697-7.566 18.522-25.566 32.87-55.306 43.827-13.739 5.044-26.783 7.565-39.131 7.565-13.566 0-26.088-3.217-37.566-9.652Zm4.695-154.178c-22.435 10.435-38.87 24.784-47.479 41.74-9.391 18.001-9.131 38.349.522 58.959 17.218 37.566 51.914 77.219 118.177 52.957 28.696-10.435 46.435-24.261 53.74-42.001 7.565-18 4.696-39.653-9.131-69.653-14.609-31.566-46.175-50.088-79.045-50.088-12.522 0-25.044 2.608-36.784 8.086Z" class="&lt;Compound Path&gt;" clip-rule="evenodd"/>
          </g>
        </g>
        <path fill="#050505" d="m190.934 311.79 12.261-.261s52.175 3.913 37.827 27.652c-14.088 23.479-11.479 32.349-9.913 39.393 1.565 6.783 12.261 2.087 12.261 2.087-33.132 27.653-12.261 57.132 17.739 62.349 22.436 3.652 49.566-4.434 59.74-8.087-5.391 3.131-11.478 6.174-18.261 9.131-61.045 26.609-102.263-11.479-122.611-55.567-13.827-29.479-7.826-56.088 10.957-76.697Z" class="&lt;Path&gt;" opacity=".1" style="mix-blend-mode:multiply"/>
        <g class="&lt;Group&gt;">
          <path fill="#050505" d="M183.629 405.445s-16.174-1.305 1.827 20.087c9.13 10.957 29.739 19.827 29.739 19.827l-31.566-39.914Z" class="&lt;Path&gt;"/>
        </g>
        <g class="&lt;Group&gt;">
          <path fill="#050505" d="M309.11 286.746s32.087 6.261 50.87 34.174c.783 1.044-9.913-8.087-25.565-13.565" class="&lt;Path&gt;"/>
        </g>
        <g class="&lt;Group&gt;">
          <path fill="#050505" d="M181.803 310.747s-41.219 38.609-13.566 91.045c0 0-4.956-37.827 13.566-91.045Z" class="&lt;Path&gt;"/>
        </g>
        <g class="&lt;Group&gt;">
          <path fill="#050505" d="M213.108 347.008c1.826-1.043 13.305 51.915-8.348 64.437-13.044-15.653-9.913-37.045-9.913-37.045-3.392 18.522 2.087 34.697 6 38.871-3.913 2.869-14.087 8.087-21.653 9.13 0 0-54.523-91.045 49.567-139.568 0 0 60.001-33.914 126.263 38.87 0 0 .261 3.652-4.174 12.261-3.652 6.522-27.392-30.522-32.348-25.565" class="&lt;Path&gt;"/>
        </g>
        <g class="&lt;Group&gt;">
          <path fill="#050505" d="M240.239 278.398c10.174-3.652 51.131-18 104.089 18.261 0 0-114.524-14.87-104.089-18.261Z" class="&lt;Path&gt;"/>
        </g>
        <g class="&lt;Group&gt;">
          <path fill="#050505" d="M303.632 277.355s-89.481-33.392-130.96 45.914c-41.74 79.045 130.96-45.914 130.96-45.914Z" class="&lt;Path&gt;"/>
        </g>
        <g class="&lt;Group&gt;">
          <path fill="#050505" d="M176.324 415.879s7.305 17.479 22.175 26.871c14.87 9.391 17.739 9.13 17.739 9.13s-8.348-4.957-18.783-26.609" class="&lt;Path&gt;"/>
        </g>
        <g class="&lt;Group&gt;">
          <path fill="#050505" d="M233.978 283.616s45.653-18.783 112.699 33.131c0 0 1.043-.261-1.566 5.217-1.826 3.914-1.826 4.174-5.217 7.044-5.739-7.305-12.261-9.914-36.001-16.435 0 0 25.566 7.565 30.262 20.087-39.914 24.522-80.35 9.653-80.35 9.653 1.304-.522 12 20.608-15.392 25.565-13.305-10.957-19.044-26.348-19.044-26.348.522 12 4.957 19.826 12.783 27.914-2.87 1.565-12.522 2.608-18.522 2.608 0 0-60.001-62.87 20.348-88.436Z" class="&lt;Path&gt;"/>
        </g>
        <g class="&lt;Group&gt;">
          <path fill="#050505" d="m206.064 343.617 21.653 46.958s-37.305 31.305 13.565 58.697l-49.044-14.348s-38.088-38.349-23.218-86.089c15.131-47.74 26.609-22.957 26.609-22.957l10.435 17.739Z" class="&lt;Path&gt;"/>
        </g>
        <g class="&lt;Group&gt;">
          <g class="&lt;Group&gt;">
            <path fill="#050505" d="M184.933 311.008s6.783-20.349 18.522-30.001c12.001-9.652 13.566-8.087 13.566-8.087s-18 10.174-21.653 34.174" class="&lt;Path&gt;"/>
          </g>
          <g class="&lt;Group&gt;">
            <path fill="#050505" d="M169.541 330.051s7.044-10.696-5.217-14.609c0 0 7.826-4.174 10.957-.261-1.044-6-.522-16.957 13.565-28.175 0 0-4.696 14.087 4.957 11.74" class="&lt;Path&gt;"/>
          </g>
        </g>
        <g class="&lt;Group&gt;">
          <path fill="#050505" d="M252.5 355.878c.522 0 1.044-.522 1.044-.782.783-2.087 9.392-3.653 16.957-4.175h.261c.522-.261 1.043-.782 1.043-1.565 0-.782-.782-1.304-1.565-1.304-3.913.261-17.739 1.565-19.305 6-.261.783.261 1.565 1.044 1.826h.521Z" class="&lt;Path&gt;"/>
        </g>
        <g class="&lt;Group&gt;">
          <g class="&lt;Group&gt;">
            <path fill="#050505" d="M263.979 369.966c1.826 4.174 5.478 7.044 8.348 6.261 2.87-.783 3.913-4.696 2.348-9.131-1.565-4.174-5.218-7.044-8.348-6.261-2.87.782-3.913 4.957-2.348 9.131Z" class="&lt;Path&gt;"/>
          </g>
          <g class="&lt;Group&gt;">
            <path fill="#FEFEFE" d="M267.37 363.705c.261.782 1.044 1.304 1.566 1.043.782 0 1.043-.782.521-1.565-.261-.783-.782-1.305-1.565-1.044-.522 0-.783.783-.522 1.566Z" class="&lt;Path&gt;"/>
          </g>
        </g>
        <g class="&lt;Group&gt;">
          <g class="&lt;Group&gt;">
            <path fill="#050505" d="M328.937 347.791c1.043 4.174 4.174 7.304 7.043 7.304 3.131-.261 4.435-3.652 3.392-7.565-1.044-4.174-4.174-7.305-7.305-7.044-2.869 0-4.434 3.391-3.13 7.305Z" class="&lt;Path&gt;"/>
          </g>
          <g class="&lt;Group&gt;">
            <path fill="#FEFEFE" d="M332.328 342.835c.261.782 1.044 1.304 1.565 1.304.522 0 1.044-.782.783-1.304-.261-.783-.782-1.565-1.565-1.305-.522 0-.783.522-.783 1.305Z" class="&lt;Path&gt;"/>
          </g>
        </g>
        <g class="&lt;Group&gt;">
          <g class="&lt;Group&gt;">
            <path fill="#9A724F" d="M303.371 375.183s6.261 5.739 12.522 4.174c6-1.826 6.783-10.696 6.783-10.696s-5.739 6-8.609 6.783c-3.131.783-10.696-.261-10.696-.261Z" class="&lt;Path&gt;"/>
          </g>
          <g class="&lt;Group&gt;">
            <path fill="#050505" d="M315.11 376.487c1.566-.261 3.131-1.043 4.174-2.087l3.392-3.913c.522-.783.261-1.565-.261-2.087-.783-.521-1.565-.261-2.087.261l-2.87 3.913c-1.043.783-3.13 1.305-4.435 1.044l-9.391-.522c-.783 0-1.304.521-1.565 1.304 0 .783.782 1.566 1.565 1.566l8.87.521a6.58 6.58 0 0 0 2.608 0Z" class="&lt;Path&gt;"/>
          </g>
        </g>
        <path fill="#050505" d="M294.501 401.27s13.565 2.088 20.087.261c6.522-1.565 6.261 11.74-2.087 18.262-5.478 4.435-16.435 14.087-39.914 9.652-24.001-4.435-27.914-27.653-17.478-34.697 10.695-7.304 24.261 3.131 39.392 6.522Z" class="&lt;Path&gt;"/>
        <path fill="#050505" d="M251.979 426.053s7.304 9.914 24 9.131c0 0-16.957 8.087-24-9.131Z" class="&lt;Path&gt;" opacity=".1" style="mix-blend-mode:multiply"/>
      </g>
      <g style="transform-box: fill-box;" class="zamba brazo-izq">
        <g class="&lt;Group&gt;">
          <path fill="#B3805F" d="M164.979 466.692s-15.304 1.86-23.302-6.427c-7.908-8.645.219-31.139 13.859-27.14 12.21 3.64 16.899 9.954 16.358 13.622-.542 3.668-6.915 19.945-6.915 19.945Z" class="&lt;Path&gt;"/>
          <path fill="#050505" fill-rule="evenodd" d="M165.067 467.856c-.806.178-16.109 2.037-24.375-6.697-5.093-5.465-4.006-15.843.073-22.236 3.632-6.125 9.406-8.668 15.265-7.005 12.209 3.639 17.749 10.357 17.161 14.965-.541 3.668-6.825 19.587-7.005 20.303-.209.328-.388.536-.538.625-.149.09-.343.105-.581.045Zm-22.111-27.812c-3.542 5.767-4.627 14.624-.293 19.328 6.479 6.764 18.156 6.465 21.288 6.111 1.975-4.829 6.374-16.277 6.645-18.872.586-3.086-4.06-8.819-15.196-12.188-3.22-.81-5.636-.276-7.651.929-2.463 1.474-3.942 3.575-4.793 4.692Z" class="&lt;Compound Path&gt;" clip-rule="evenodd"/>
        </g>
        <g class="&lt;Group&gt;">
          <g class="&lt;Group&gt;">
            <path fill="#F1F1F1" d="M245.505 470.194c-1.812-17.764-22.425-27.319-22.425-27.319l-55.377-8.213-7.698 37.438 60.433 8.532s26.789 7.684 25.067-10.438Z" class="&lt;Path&gt;"/>
            <path fill="#050505" fill-rule="evenodd" d="m220.302 481.929-60.433-8.532c-.387.029-.671-.105-.849-.404-.268-.447-.373-.791-.313-1.029l7.564-37.662c.314-.491.852-1.117 1.568-.937l55.735 8.302.358.09c.849.404 21.105 9.87 22.737 28.35.501 4.564-.607 7.962-3.324 10.196l-1.567.938c-7.164 4.286-20.269 1.182-21.476.688Zm24.04-11.647c-1.68-16.019-19.699-25.303-21.398-26.11l-54.438-8.167-6.934 35.157 59.001 8.173c.239.059.358.09.358.09s14.58 4.045 20.627-1.093c2.209-1.727 3.137-4.41 2.784-8.05Z" class="&lt;Compound Path&gt;" clip-rule="evenodd"/>
          </g>
        </g>
        <g class="bandera">
          <g class="&lt;Group&gt;">
            <g class="&lt;Group&gt;">
              <path fill="#CD895A" d="M161.012 525.61c1.693 5.371 4.909 9.222 7.192 8.465 2.417-.534 2.87-5.365 1.043-10.96L56.542 173.152c-1.917-5.237-5.133-9.089-7.416-8.331-2.283.758-2.736 5.589-1.043 10.96L161.012 525.61Z" class="&lt;Path&gt;"/>
              <g class="&lt;Group&gt;">
                <path fill="#B76A4E" d="m56.364 172.346 112.839 350.187c1.203 3.536 1.333 6.802.436 8.859L50.021 164.285c2.013.315 4.828 3.495 6.343 8.061Z" class="&lt;Path&gt;"/>
              </g>
            </g>
          </g>
          <g class="&lt;Group&gt;">
            <g class="&lt;Group&gt;">
              <path fill="#DDEEF9" d="M232.79 265.002c-73.44 17.489-141.808 21.609-155.133 15.597-20.268-69.954-30.254-98.332-30.254-98.332 12.527.105 92.626-11.336 143.195-21.831l12.799-2.489 29.393 107.055Z" class="&lt;Path&gt;"/>
              <g class="Clip path group">
                <mask id="a" width="186" height="127" x="47" y="157" class="a" maskUnits="userSpaceOnUse" style="mask-type:luminance">
                  <g class="cp554">
                    <path fill="#fff" d="M232.706 264.961c-73.364 17.414-141.889 21.627-155.156 15.61-20.102-70.083-30.11-98.448-30.11-98.448 12.468.414 92.558-11.296 143.262-21.719l12.709-2.435 29.295 106.992Z" class="Vector"/>
                  </g>
                </mask>
                <g class="&lt;Clip Group&gt;" mask="url(#a)">
                  <g class="&lt;Group&gt;">
                    <g class="&lt;Group&gt;">
                      <g class="&lt;Group&gt;">
                        <g class="&lt;Group&gt;">
                          <path fill="#1E4FA2" d="m58.228 149.039-23.18 2.923-5.251-21.482 23.088-2.565 5.343 21.124Z" class="&lt;Path&gt;"/>
                        </g>
                      </g>
                      <g class="&lt;Group&gt;">
                        <g class="&lt;Group&gt;">
                          <path fill="#7F2366" d="m63.48 170.52-22.82 3.013-5.61-21.571 23.178-2.924 5.253 21.482Z" class="&lt;Path&gt;"/>
                          <path fill="#1E4FA2" d="m86.391 167.148-22.91 3.372-5.253-21.482 22.821-3.014 5.342 21.124Z" class="&lt;Path&gt;"/>
                        </g>
                        <g class="&lt;Group&gt;">
                          <path fill="#EC1C24" d="m198.893 147.874-22.375 4.266-4.806-20.228 22.508-4.043 4.673 20.005Z" class="&lt;Path&gt;"/>
                          <path fill="#F26E21" d="m176.517 152.14-22.509 4.043-4.94-20.452 22.643-3.819 4.806 20.228Z" class="&lt;Path&gt;"/>
                          <path fill="#FCDB04" d="m154.009 156.184-22.42 3.684-5.074-20.676 22.553-3.461 4.941 20.453Z" class="&lt;Path&gt;"/>
                          <path fill="#FEFEFE" d="m131.589 159.869-22.643 3.819-5.208-20.9 22.777-3.595 5.074 20.676Z" class="&lt;Path&gt;"/>
                          <path fill="#0E8D44" d="m108.945 163.687-22.553 3.461-5.342-21.123 22.687-3.237 5.208 20.899Z" class="&lt;Path&gt;"/>
                        </g>
                      </g>
                      <g class="&lt;Group&gt;">
                        <g class="&lt;Group&gt;">
                          <path fill="#7F2366" d="m91.509 188.407-22.553 3.461-5.476-21.347 22.91-3.372 5.119 21.258Z" class="&lt;Path&gt;"/>
                          <path fill="#1E4FA2" d="m114.152 184.588-22.643 3.819-5.118-21.258 22.553-3.461 5.208 20.9Z" class="&lt;Path&gt;"/>
                          <path fill="#EC1C24" d="m68.956 191.869-22.911 3.371-5.386-21.706 22.82-3.013 5.477 21.348Z" class="&lt;Path&gt;"/>
                          <path fill="#F26E21" d="m46.044 195.239-22.687 3.238-5.744-21.796 23.045-3.147 5.386 21.705Z" class="&lt;Path&gt;"/>
                        </g>
                        <g class="&lt;Group&gt;">
                          <path fill="#7F2366" d="m247.912 158.673-22.107 4.715-4.672-20.005 22.241-4.491 4.538 19.781Z" class="&lt;Path&gt;"/>
                          <path fill="#EC1C24" d="m225.805 163.388-22.107 4.715-4.807-20.229 22.242-4.49 4.672 20.004Z" class="&lt;Path&gt;"/>
                          <path fill="#F26E21" d="m203.697 168.103-22.241 4.49-4.941-20.452 22.376-4.267 4.806 20.229Z" class="&lt;Path&gt;"/>
                          <path fill="#FCDB04" d="m181.456 172.593-22.375 4.266-5.074-20.675 22.509-4.043 4.94 20.452Z" class="&lt;Path&gt;"/>
                          <path fill="#FEFEFE" d="m159.081 176.86-22.285 3.909-5.209-20.9 22.42-3.685 5.074 20.676Z" class="&lt;Path&gt;"/>
                          <path fill="#0E8D44" d="m136.796 180.769-22.644 3.819-5.208-20.9 22.643-3.819 5.209 20.9Z" class="&lt;Path&gt;"/>
                        </g>
                      </g>
                      <g class="&lt;Group&gt;">
                        <g class="&lt;Group&gt;">
                          <path fill="#7F2366" d="m119.406 206.07-22.42 3.685-5.476-21.348 22.644-3.819 5.252 21.482Z" class="&lt;Path&gt;"/>
                          <path fill="#1E4FA2" d="m141.781 201.802-22.375 4.267-5.252-21.481 22.643-3.82 4.984 21.034Z" class="&lt;Path&gt;"/>
                          <path fill="#EC1C24" d="m96.986 209.755-22.643 3.819-5.386-21.706 22.553-3.461 5.476 21.348Z" class="&lt;Path&gt;"/>
                          <path fill="#F26E21" d="m74.343 213.574-22.553 3.461-5.744-21.796 22.911-3.371 5.386 21.706Z" class="&lt;Path&gt;"/>
                          <path fill="#FCDB04" d="m51.79 217.035-22.777 3.595-5.654-22.153 22.687-3.238 5.744 21.796Z" class="&lt;Path&gt;"/>
                        </g>
                        <g class="&lt;Group&gt;">
                          <path fill="#EC1C24" d="m252.451 178.455-21.839 5.162-4.806-20.228 22.107-4.715 4.538 19.781Z" class="&lt;Path&gt;"/>
                          <path fill="#F26E21" d="m230.612 183.616-22.108 4.715-4.806-20.229 22.108-4.714 4.806 20.228Z" class="&lt;Path&gt;"/>
                          <path fill="#FCDB04" d="m208.504 188.331-22.107 4.715-4.941-20.452 22.242-4.491 4.806 20.228Z" class="&lt;Path&gt;"/>
                          <path fill="#FEFEFE" d="m186.397 193.046-22.241 4.49-5.075-20.676 22.376-4.267 4.94 20.453Z" class="&lt;Path&gt;"/>
                          <path fill="#0E8D44" d="m164.156 197.536-22.376 4.267-4.984-21.034 22.285-3.909 5.075 20.676Z" class="&lt;Path&gt;"/>
                        </g>
                      </g>
                      <g class="&lt;Group&gt;">
                        <g class="&lt;Group&gt;">
                          <path fill="#F26E21" d="m257.123 198.458-21.705 5.387-4.807-20.229 21.84-5.162 4.672 20.004Z" class="&lt;Path&gt;"/>
                          <path fill="#FCDB04" d="m235.418 203.845-21.974 4.938-4.94-20.453 22.107-4.714 4.807 20.229Z" class="&lt;Path&gt;"/>
                          <path fill="#FEFEFE" d="m213.445 208.783-21.974 4.938-5.074-20.676 22.107-4.715 4.941 20.453Z" class="&lt;Path&gt;"/>
                        </g>
                        <g class="&lt;Group&gt;">
                          <path fill="#7F2366" d="m147.122 222.926-22.376 4.267-5.342-21.124 22.376-4.267 5.342 21.124Z" class="&lt;Path&gt;"/>
                          <path fill="#1E4FA2" d="m169.364 218.436-22.242 4.49-5.342-21.124 22.376-4.266 5.208 20.9Z" class="&lt;Path&gt;"/>
                          <path fill="#0E8D44" d="m191.471 213.721-22.108 4.715-5.208-20.9 22.242-4.49 5.074 20.675Z" class="&lt;Path&gt;"/>
                          <path fill="#EC1C24" d="m124.747 227.193-22.376 4.266-5.386-21.705 22.42-3.685 5.342 21.124Z" class="&lt;Path&gt;"/>
                          <path fill="#F26E21" d="m102.371 231.46-22.285 3.909-5.744-21.795 22.643-3.819 5.386 21.705Z" class="&lt;Path&gt;"/>
                          <path fill="#FCDB04" d="m80.087 235.369-22.644 3.819-5.654-22.153 22.554-3.462 5.743 21.796Z" class="&lt;Path&gt;"/>
                          <path fill="#FEFEFE" d="m57.442 239.188-22.776 3.595-5.654-22.154 22.777-3.595 5.653 22.154Z" class="&lt;Path&gt;"/>
                        </g>
                      </g>
                      <g class="&lt;Group&gt;">
                        <g class="&lt;Group&gt;">
                          <path fill="#FCDB04" d="m261.931 218.687-21.706 5.386-4.806-20.228 21.706-5.386 4.806 20.228Z" class="&lt;Path&gt;"/>
                          <path fill="#FEFEFE" d="m240.224 224.073-21.705 5.386-5.074-20.676 21.973-4.938 4.806 20.228Z" class="&lt;Path&gt;"/>
                          <path fill="#0E8D44" d="m218.519 229.459-21.973 4.938-5.074-20.676 21.973-4.938 5.074 20.676Z" class="&lt;Path&gt;"/>
                        </g>
                        <g class="&lt;Group&gt;">
                          <path fill="#7F2366" d="m174.572 239.336-22.107 4.714-5.342-21.124 22.241-4.49 5.208 20.9Z" class="&lt;Path&gt;"/>
                          <path fill="#1E4FA2" d="m196.545 234.398-21.973 4.938-5.208-20.9 22.107-4.715 5.074 20.677Z" class="&lt;Path&gt;"/>
                          <path fill="#EC1C24" d="m152.464 244.05-22.107 4.714-5.61-21.571 22.375-4.267 5.342 21.124Z" class="&lt;Path&gt;"/>
                          <path fill="#F26E21" d="m130.357 248.765-22.376 4.266-5.61-21.571 22.376-4.267 5.61 21.572Z" class="&lt;Path&gt;"/>
                          <path fill="#FCDB04" d="m107.982 253.031-22.375 4.267-5.52-21.929 22.285-3.909 5.61 21.571Z" class="&lt;Path&gt;"/>
                          <path fill="#FEFEFE" d="m85.606 257.298-22.51 4.043-5.653-22.153 22.643-3.819 5.52 21.929Z" class="&lt;Path&gt;"/>
                          <path fill="#0E8D44" d="m63.097 261.341-22.419 3.685-6.012-22.243 22.777-3.595 5.654 22.153Z" class="&lt;Path&gt;"/>
                        </g>
                      </g>
                      <g class="&lt;Group&gt;">
                        <g class="&lt;Group&gt;">
                          <path fill="#7F2366" d="m46.6 287.628-22.51 4.043-6.055-22.825 22.643-3.819 5.921 22.601Z" class="&lt;Path&gt;"/>
                          <path fill="#1E4FA2" d="m69.109 283.585-22.51 4.043-5.921-22.601 22.419-3.685 6.012 22.243Z" class="&lt;Path&gt;"/>
                          <path fill="#0E8D44" d="m245.165 244.526-21.796 5.744-4.85-20.81 21.705-5.386 4.941 20.452Z" class="&lt;Path&gt;"/>
                          <path fill="#1E4FA2" d="m223.369 250.27-21.84 5.162-4.984-21.034 21.973-4.938 4.851 20.81Z" class="&lt;Path&gt;"/>
                        </g>
                        <g class="&lt;Group&gt;">
                          <path fill="#7F2366" d="m201.53 255.433-21.84 5.162-5.118-21.258 21.973-4.939 4.985 21.035Z" class="&lt;Path&gt;"/>
                          <path fill="#EC1C24" d="m179.689 260.595-21.973 4.938-5.252-21.482 22.107-4.714 5.118 21.258Z" class="&lt;Path&gt;"/>
                          <path fill="#F26E21" d="m157.716 265.533-22.107 4.714-5.253-21.482 22.108-4.714 5.252 21.482Z" class="&lt;Path&gt;"/>
                          <path fill="#FCDB04" d="m135.609 270.248-22.108 4.714-5.52-21.93 22.376-4.266 5.252 21.482Z" class="&lt;Path&gt;"/>
                          <path fill="#FEFEFE" d="m113.501 274.962-22.241 4.491-5.654-22.154 22.375-4.267 5.52 21.93Z" class="&lt;Path&gt;"/>
                          <path fill="#0E8D44" d="m91.26 279.452-22.151 4.133-6.012-22.243 22.51-4.043 5.653 22.153Z" class="&lt;Path&gt;"/>
                        </g>
                      </g>
                      <g class="&lt;Group&gt;">
                        <g class="&lt;Group&gt;">
                          <path fill="#7F2366" d="m74.897 305.962-22.376 4.267-5.922-22.601 22.51-4.043 5.788 22.377Z" class="&lt;Path&gt;"/>
                          <path fill="#1E4FA2" d="m97.138 301.471-22.241 4.491-5.788-22.377 22.151-4.133 5.878 22.019Z" class="&lt;Path&gt;"/>
                          <path fill="#EC1C24" d="m52.522 310.229-22.376 4.266-6.055-22.824 22.508-4.043 5.923 22.601Z" class="&lt;Path&gt;"/>
                          <path fill="#1E4FA2" d="m250.239 265.202-21.662 5.968-5.208-20.9 21.796-5.744 5.074 20.676Z" class="&lt;Path&gt;"/>
                          <path fill="#7F2366" d="m228.577 271.17-21.705 5.386-5.342-21.124 21.839-5.162 5.208 20.9Z" class="&lt;Path&gt;"/>
                        </g>
                        <g class="&lt;Group&gt;">
                          <path fill="#EC1C24" d="m206.871 276.556-21.705 5.386-5.476-21.348 21.839-5.162 5.342 21.124Z" class="&lt;Path&gt;"/>
                          <path fill="#F26E21" d="m185.166 281.943-21.84 5.162-5.609-21.572 21.973-4.938 5.476 21.348Z" class="&lt;Path&gt;"/>
                          <path fill="#FCDB04" d="m163.326 287.104-21.973 4.939-5.744-21.796 22.107-4.714 5.61 21.571Z" class="&lt;Path&gt;"/>
                          <path fill="#FEFEFE" d="m141.353 292.043-22.108 4.714-5.744-21.795 22.108-4.715 5.744 21.796Z" class="&lt;Path&gt;"/>
                          <path fill="#0E8D44" d="m119.379 296.982-22.241 4.49-5.878-22.02 22.241-4.49 5.878 22.02Z" class="&lt;Path&gt;"/>
                        </g>
                      </g>
                    </g>
                  </g>
                </g>
              </g>
              <path fill="#B8C7DA" d="m56.481 186.26 28.607 92.021s2.146.54 5.145-.038C78.546 250.579 56.48 186.26 56.48 186.26Z" class="&lt;Path&gt;" style="mix-blend-mode:multiply"/>
              <path fill="#B8C7DA" d="m76.098 275.452 1.56 5.147c13.324 6.012 81.692 1.892 155.132-15.598l-6.725-23.944c-63.332 19.65-120.348 33.09-149.967 34.395Z" class="&lt;Path&gt;" style="mix-blend-mode:multiply"/>
            </g>
          </g>
        </g>
        <g class="&lt;Group&gt;">
          <path fill="#B3805F" d="M145.64 439.959c7.024.053 8.356 8.377 9.158 11.241 1.025 2.73 3.074 9.712-1.313 12.033-4.254 2.545-8.415 3.211-13.694 3.025-4.921-.095-9.466-15.313-7.535-20.724 2.154-5.545 10.342-5.579 13.384-5.575Z" class="&lt;Path&gt;"/>
          <path fill="#050505" fill-rule="evenodd" d="M154.154 464.353c-4.925 2.946-9.802 3.432-14.142 3.292-1.64-.031-3.205-1.122-4.693-3.271-3.663-5.105-5.708-15.13-4.271-19.333 1.706-4.263 6.615-6.39 14.727-6.38 7.024.054 8.984 7.394 9.963 11.064.179.298.283.641.312 1.029.892 2.506 3.253 10.518-1.896 13.599Zm-20.468-18.459c-1.481 3.622.611 12.707 3.513 17.05 1.028 1.209 1.921 2.195 2.727 2.017 4.697.229 8.635-.302 12.889-2.847 3.492-1.785 1.576-8.544.953-10.602-.179-.299-.328-.717-.446-1.254-1.158-4.475-2.897-8.907-7.594-9.136-6.95-.099-10.964 1.492-12.042 4.772Z" class="&lt;Compound Path&gt;" clip-rule="evenodd"/>
        </g>
        <g class="&lt;Group&gt;">
          <path fill="#B3805F" d="M159.739 434.562c-1.519-1.523-4.07-1.213-5.459.53l-4.525 5.139c-1.389 1.743-1.303 4.428.44 5.817 1.743 1.389 4.294 1.08 5.683-.664l3.18-2.814" class="&lt;Path&gt;"/>
          <path fill="#050505" d="M155.563 447.397c.447-.268.851-.61 1.209-1.027l3.046-3.039c.671-.401.494-1.207.226-1.655-.626-.537-1.341-.717-1.879-.091l-3.046 3.038-.224.134c-.852 1.117-2.597 1.249-3.848.174-.656-.418-1.013-1.015-1.072-1.791-.058-.776.166-1.417.674-1.923l4.391-5.363c1.21-1.027 2.955-1.16 4.072-.308.402.671 1.207.494 1.745-.132.314-.492.36-1.431-.132-1.745-2.369-1.927-5.501-1.573-7.562.572l-4.391 5.363c-.985.894-1.345 2.325-1.347 3.846.222 1.387.892 2.507 1.785 3.492 1.877 1.613 4.338 1.661 6.353.455Z" class="&lt;Path&gt;"/>
        </g>
        <path fill="#050505" d="M158.296 443.33s-5.018 6.347-7.743 2.809c-2.948-3.404-3.488-1.257-3.488-1.257s-.006 4.563 4.6 6.672c4.605 2.108 10.162-4.864 6.631-8.224Zm12.557 12.856 2.083-20.399 49.383 7.848s19.407 7.54 24.08 27.545c-.281 10.2-11.423 11.394-26.541 7.975-15.117-3.42 2.612-13.419-10.309-20.28-12.563-6.772-26.389-5.492-26.389-5.492s-.819 10.826-5.159 10.687c-4.563-.006-8.587-2.159-7.148-7.884Z" class="&lt;Path&gt;" opacity=".1" style="mix-blend-mode:multiply"/>
      </g>
    </g>
    <g class="nina">
      <path fill="#1C1C1A" d="M713.19 564.057c0 9.913 34.696 17.739 77.741 17.739 42.783 0 77.741-7.826 77.741-17.739 0-9.653-34.958-17.479-77.741-17.479-43.045 0-77.741 7.826-77.741 17.479Z" class="sombra" opacity=".2"/>
      <g class="cabeza atras">
        <path fill="#050505" d="M850.672 396.574c1.304 7.566-3.914 14.61-11.479 15.914-7.304 1.304-14.609-3.653-15.913-11.218-1.305-7.565 3.913-14.609 11.217-15.913 7.566-1.304 14.87 3.652 16.175 11.217Zm-121.046 23.218c1.304 6.783-3.392 13.566-10.435 14.87-7.044 1.044-13.827-3.652-14.87-10.696-1.304-7.044 3.391-13.566 10.435-14.87 7.044-1.043 13.826 3.653 14.87 10.696Z" class="&lt;Path&gt;"/>
        <path fill="#050505" d="M876.498 377.791c1.566 10.174-5.217 19.827-15.391 21.653-10.175 1.826-19.827-4.957-21.392-15.131-1.827-10.174 4.956-19.827 15.13-21.653 10.175-1.826 19.827 4.957 21.653 15.131Zm-170.09 21.653c5.739 9.652 3.391 21.652-5.478 26.609-8.609 5.217-20.088 1.566-25.827-8.087-5.479-9.652-3.131-21.653 5.478-26.61 8.609-5.217 20.088-1.565 25.827 8.088Z" class="&lt;Path&gt;"/>
        <path fill="#050505" d="M866.324 327.703c8.087 46.697-30.001 92.35-85.306 101.742-55.306 9.652-106.698-20.61-114.525-67.306-8.087-46.697 30.001-92.35 85.307-101.742 55.044-9.652 106.437 20.609 114.524 67.306Z" class="&lt;Path&gt;"/>
        <path stroke="#3F1D13" stroke-width="2.609" d="M708.495 417.184c-2.609 4.695-.783 10.434 3.913 12.782 4.695 2.348 10.435.522 12.783-3.913m-42.784-29.218c-6.261 5.218-7.044 14.609-1.826 20.87 5.478 6.262 14.87 7.044 21.131 1.566m149.22-51.915c-6.261 5.218-7.304 14.348-2.087 20.349 4.957 5.739 14.349 6.26 20.61 1.043m-34.175 19.827c5.478 0 10.174-4.174 10.435-9.914" class="&lt;Path&gt;"/>
      </g>
      <g style="transform-box: fill-box;" class="nina brazo-izq atras">
        <path fill="#803531" stroke="#050505" stroke-linecap="round" stroke-linejoin="round" stroke-width="2.087" d="M865.019 410.401c-12 16.696-26.609 26.61-42.522 34.958-15.914 8.348-27.392-13.827-11.74-21.914 15.914-8.087 22.436-12.262 33.653-26.871 2.348-3.13 9.392-6 16.436-.521 6.522 4.956 6.26 11.478 4.173 14.348Z" class="&lt;Path&gt;"/>
        <path fill="#050505" d="M865.019 410.401c-12 16.696-26.609 26.609-42.522 34.957-15.914 8.348-27.392-13.826-11.74-21.914 6.261-3.13 15.392 12.001 21.914 8.871 9.652-4.435 21.653-15.653 28.696-24.523 2.348-3.131 2.87-7.826-.521-11.74 6.522 4.957 6.26 11.479 4.173 14.349Z" class="&lt;Path&gt;" opacity=".4"/>
      </g>
      <g class="torso">
        <g class="&lt;Group&gt;">
          <path fill="#803531" stroke="#050505" stroke-linecap="round" stroke-linejoin="round" stroke-width="1.826" d="M814.41 547.622s9.913-10.175 9.913-21.132c0-10.435-3.13-19.304-4.696-21.913-4.695-7.565-11.739-7.826-16.957-4.435-4.956 2.87-7.565 7.305-2.608 15.392 4.435 8.609 4.696 13.566-1.826 19.827-7.566 6.522 6.521 22.696 16.174 12.261Z" class="&lt;Path&gt;"/>
          <path fill="#050505" d="M802.149 539.013s4.956-3.653 4.956-9.914c0-6.261 17.218-2.608 15.914-12-.783-6.522-2.348-10.696-3.392-12.522-4.695-7.565-11.739-7.826-16.956-4.435-4.957 2.87-7.566 7.305-2.609 15.392 4.435 8.609 4.696 13.566-1.826 19.827-2.348 2.087-2.87 10.695 3.913 3.652Z" class="&lt;Path&gt;" opacity=".4"/>
        </g>
        <g class="&lt;Group&gt;">
          <path fill="#EE4763" stroke="#050505" stroke-linecap="round" stroke-linejoin="round" stroke-width="1.826" d="M787.801 541.882c-.261.261-.261.783 0 1.044l28.696 23.739c.261 0 .783 0 1.043-.261l1.044-1.304c.261-.261.261-.782 0-1.043l-28.696-23.74c-.261-.261-.783-.261-.783.261l-1.304 1.304Zm25.044-2.347s2.869-3.131 5.478-1.305c1.305 1.044 4.174 3.652 4.957 4.435 1.826 1.565-1.305 2.609-2.609 3.391-1.304.783-3.391 2.348-3.391 4.435l-.522 6.522-4.957-1.565-2.087-11.218 3.131-4.695Z" class="&lt;Path&gt;"/>
          <path fill="#F69226" stroke="#050505" stroke-linecap="round" stroke-linejoin="round" stroke-width="1.826" d="M789.887 540.317s4.435-5.218 5.479-6.522c1.304-1.565 2.87-1.565 4.435-.261 1.565 1.304 1.826 3.653 6.522 4.957 3.652 1.043 4.695.521 6.522 1.043 2.087.783 1.565 1.566.782 3.392l-1.826 3.391 1.565 9.391-2.087 2.349-21.392-17.74Z" class="&lt;Path&gt;"/>
          <path fill="#FEFEFE" stroke="#050505" stroke-linecap="round" stroke-linejoin="round" stroke-width="1.826" d="M818.584 564.057c.783-1.043-.783-6.001-1.826-7.044-3.392-2.87-8.348-1.304-8.348-1.304l10.174 8.348Z" class="&lt;Path&gt;"/>
          <path stroke="#050505" stroke-linecap="round" stroke-linejoin="round" stroke-width="1.565" d="M809.975 545.795c2.869-.783 7.304 2.087 8.348 3.913m-7.827-.782c2.87-.522 6.522 2.086 7.566 3.652m-6.783-.261c2.87-.522 5.74 1.565 6.522 2.869" class="&lt;Path&gt;"/>
          <path fill="#EE4763" stroke="#050505" stroke-linecap="round" stroke-linejoin="round" stroke-width="1.565" d="M803.453 541.621c2.087 1.826 3.13 3.131 3.652 5.479l1.304 8.608-3.391-2.869-1.044-5.479c0-1.043-.869-2.26-2.608-3.652-.783-.521-8.348-7.043-8.348-7.043l1.826-2.087s7.565 6.261 8.609 7.043Z" class="&lt;Path&gt;"/>
        </g>
        <g class="&lt;Group&gt;">
          <path fill="#EE4763" stroke="#050505" stroke-linecap="round" stroke-linejoin="round" stroke-width="1.826" d="m833.976 489.707 7.565 18c-10.957 7.826-27.914 13.305-46.697 18.261l-4.696-16.174c-3.652-9.652 4.435-19.566 15.131-24.522 10.957-4.957 24.523-4.957 28.697 4.435Z" class="&lt;Path&gt;"/>
          <path stroke="#A0C7E9" stroke-dasharray="2.93 2.93" stroke-linecap="round" stroke-linejoin="round" stroke-width="1.565" d="M837.628 505.098s-8.609 7.826-41.74 16.696" class="&lt;Path&gt;"/>
          <path fill="#050505" d="M833.976 489.707c3.913 10.696-13.305 27.914-18.001 30.001-6.522 2.869-13.826 4.434-21.131 6.26l-4.696-16.174c-3.652-9.652 4.435-19.566 15.131-24.522 10.957-4.957 24.523-4.957 28.697 4.435Z" class="&lt;Path&gt;" opacity=".4"/>
        </g>
        <g class="&lt;Group&gt;">
          <path fill="#803531" stroke="#050505" stroke-linecap="round" stroke-linejoin="round" stroke-width="1.826" d="M790.931 557.535s-.782-25.566-.782-32.609c0-8.609-5.74-12.522-12.001-12.522-5.739 0-10.174 3.391-10.174 13.043v32.349c0 14.087 24.262 14.087 22.957-.261Z" class="&lt;Path&gt;"/>
          <path fill="#050505" d="M773.974 557.013c1.305 7.565 13.044 11.218 6.522 11.218-6.261-.261-12.522-3.653-12.522-10.435v-32.349c0-9.652 4.435-13.043 10.174-13.043 6.261 0 12.001 3.913 12.001 12.522 0 9.913-14.87 4.174-14.87 10.435 0 3.13-2.348 16.174-1.305 21.652Z" class="&lt;Path&gt;" opacity=".4"/>
        </g>
        <g class="&lt;Group&gt;">
          <path fill="#EE4763" stroke="#050505" stroke-linecap="round" stroke-linejoin="round" stroke-width="1.826" d="m752.061 505.36-1.565 15.652c12.783 4.435 30.522 5.478 49.827 5.478l1.304-10.956c1.044-10.174-9.652-19.566-21.652-21.392-11.74-1.826-26.349 1.305-27.914 11.218Z" class="&lt;Path&gt;"/>
          <path stroke="#A0C7E9" stroke-dasharray="2.93 2.93" stroke-linecap="round" stroke-linejoin="round" stroke-width="1.565" d="M753.626 517.36s10.435 5.217 44.61 5.217" class="&lt;Path&gt;"/>
          <path fill="#050505" d="m752.061 505.36-1.565 15.652c4 1.392 8.435 2.435 13.304 3.131 0-14.087 2.087-28.957 16.175-30.001-11.74-1.826-26.349 1.305-27.914 11.218Z" class="&lt;Path&gt;" opacity=".4"/>
        </g>
        <g class="&lt;Group&gt;">
          <path fill="#EE4763" stroke="#050505" stroke-linecap="round" stroke-linejoin="round" stroke-width="1.826" d="M794.061 568.492c0 .522-.26.783-.782.783h-37.045c-.521 0-.782-.261-.782-.783v-1.826c0-.261.261-.522.782-.522h37.045c.522 0 .782.261.782.522v1.826Zm-18-17.74s-.261-4.174-3.13-4.174c-1.826-.261-5.74 0-6.783 0-2.348 0-.522 2.87 0 4.174.522 1.565.783 4.174-.261 5.739l-3.652 5.218 4.435 2.087 8.869-7.305.522-5.739Z" class="&lt;Path&gt;"/>
          <path fill="#F69226" stroke="#050505" stroke-linecap="round" stroke-linejoin="round" stroke-width="1.826" d="M793.279 566.143v-8.608c0-2.087-1.044-3.131-3.131-3.131-2.087 0-3.652 1.827-8.087-.261-3.652-1.565-4.173-2.608-6-3.391-1.826-.783-2.087.522-2.348 2.087l-1.043 3.913-7.305 6.261.261 3.13h27.653Z" class="&lt;Path&gt;"/>
          <path fill="#FEFEFE" stroke="#050505" stroke-linecap="round" stroke-linejoin="round" stroke-width="1.826" d="M756.234 566.143c0-1.304 4.435-4.434 6-4.434 4.435 0 7.044 4.434 7.044 4.434h-13.044Z" class="&lt;Path&gt;"/>
          <path stroke="#050505" stroke-linecap="round" stroke-linejoin="round" stroke-width="1.565" d="M774.495 557.535c-1.826-2.348-7.043-2.87-8.869-2.348m6.261 4.434c-1.826-2.347-6.261-2.608-7.826-2.086m5.217 4.173c-1.826-2.348-5.217-2.347-6.782-1.826" class="&lt;Path&gt;"/>
          <path fill="#EE4763" stroke="#050505" stroke-linecap="round" stroke-linejoin="round" stroke-width="1.565" d="M782.322 558.317c-2.87 0-4.435.522-6.522 2.087l-6.522 5.739h4.696l3.913-3.652c.869-.696 2.348-1.043 4.435-1.043h10.957v-3.131h-10.957Z" class="&lt;Path&gt;"/>
        </g>
        <g class="&lt;Group&gt;">
          <path fill="#F69226" stroke="#050505" stroke-linecap="round" stroke-linejoin="round" stroke-width="1.826" d="M793.54 510.055c34.175-6 36.001-19.043 36.262-29.478-1.043-17.218-9.131-45.393-13.305-55.307-7.304-15.913-21.652-20.087-40.435-16.695-18.783 3.13-34.436 12-32.349 29.479 1.826 14.348 6.783 40.696 6 56.348 3.131 15.392 9.913 21.392 43.827 15.653Z" class="&lt;Path&gt;"/>
          <path fill="#050505" d="M793.54 510.055c28.175-4.957.783-53.218-18-53.218 0 0-3.913 18.522-4.957 24.783-1.565 8.348-10.435 10.174-10.174.521.261-18.261 8.609-30.522-1.304-45.913-9.653-14.609 35.74-31.045 16.957-27.653-18.783 3.13-34.436 12-32.349 29.479 1.826 14.348 6.783 40.696 6 56.348 2.87 15.131 9.913 21.392 43.827 15.653Z" class="&lt;Path&gt;" opacity=".4"/>
          <path fill="#803531" stroke="#050505" stroke-width="1.826" d="M801.366 417.706c6.261 12 4.957 22.957-5.739 24.783-10.696 1.826-24.261-6.522-30.522-18.522-6.261-12.001-1.566-13.305 9.13-15.131 10.696-1.826 21.131-3.391 27.131 8.87Z" class="&lt;Path&gt;"/>
          <path fill="#EE4763" stroke="#050505" stroke-linecap="round" stroke-linejoin="round" stroke-width="1.826" d="M821.454 452.141c-2.87-12.783-6.522-28.174-18.262-42l-5.478 5.999c10.435 12.261 13.566 26.349 16.175 37.827l7.565-1.826Z" class="&lt;Path&gt;"/>
          <path fill="#EE4763" d="M832.671 482.924c-3.913-12.783-12.522-31.826-12.522-31.826s-8.609 3.912-18.261 5.478c-9.391 1.826-24 1.826-24 1.826l-5.74 33.914s-16.696 3.392-23.478 0c.521 6.783 1.826 11.479 3.13 17.479 5.218 7.043 32.609 6.26 47.479 3.652 19.827-3.392 39.653-9.131 33.392-30.523Z" class="&lt;Path&gt;"/>
          <path fill="#050505" d="M764.322 493.359s-10.435.783-15.652-1.043c.521 6.783 1.826 11.479 3.13 17.479 1.826 2.608 6.783 4.173 13.044 4.956-3.131-5.478-2.348-17.739-.522-21.392Z" class="&lt;Path&gt;" opacity=".4"/>
          <path stroke="#050505" stroke-linecap="round" stroke-linejoin="round" stroke-width="1.826" d="M751.8 509.795c-1.043-5.479-2.609-12-3.13-17.479 6.782 3.392 23.478 0 23.478 0l5.74-33.914s14.609 0 24-1.826c9.652-1.566 18.261-5.478 18.261-5.478s8.609 19.043 12.522 31.826c6.261 21.392-13.565 27.131-33.392 30.523" class="&lt;Path&gt;"/>
          <path fill="#EE4763" stroke="#050505" stroke-linecap="round" stroke-linejoin="round" stroke-width="2.087" d="M783.888 457.62c-2.609-13.827-14.348-27.653-28.696-42.002l-6.522 7.305c12.783 12.783 23.478 24.522 25.565 37.566l9.653-2.869Z" class="&lt;Path&gt;"/>
          <path fill="#6ECFF5" stroke="#050505" stroke-linecap="round" stroke-linejoin="round" stroke-width="1.826" d="M772.67 460.75c.522 3.391 3.652 5.478 7.043 4.956 3.392-.522 5.74-3.652 5.218-7.043-.783-3.392-3.913-5.74-7.304-5.218-3.392.522-5.74 3.913-4.957 7.305Z" class="&lt;Path&gt;"/>
          <path fill="#050505" d="M775.018 464.663c2.87 2.087 6.783 1.304 8.87-1.566 0 0-4.435 1.305-7.305-.521-2.608-2.087-2.869-6.522-2.869-6.522-2.087 2.87-1.305 6.783 1.304 8.609Z" class="&lt;Path&gt;" opacity=".4"/>
          <path fill="#6ECFF5" stroke="#050505" stroke-linecap="round" stroke-linejoin="round" stroke-width="1.826" d="M814.149 454.228c1.304 3.391 4.174 5.218 6.783 4.174 2.348-.782 3.391-4.174 2.087-7.304-1.304-3.131-4.174-5.218-6.522-4.175-2.348.783-3.391 4.174-2.348 7.305Z" class="&lt;Path&gt;"/>
          <path fill="#050505" d="M817.019 457.88c2.608 1.826 5.478.783 6.261-2.087 0 0-2.87 1.566-5.479 0-2.608-1.826-3.913-6-3.913-6-.782 2.87.522 6.522 3.131 8.087Z" class="&lt;Path&gt;" opacity=".4"/>
          <g class="&lt;Group&gt;">
            <g class="&lt;Group&gt;">
              <path stroke="#A0C7E9" stroke-linecap="round" stroke-linejoin="round" stroke-width="1.565" d="m781.018 492.838-1.826-.261.261-1.565" class="&lt;Path&gt;"/>
              <path stroke="#A0C7E9" stroke-dasharray="4.4 4.4" stroke-linecap="round" stroke-linejoin="round" stroke-width="1.565" d="m780.236 486.838 2.086-14.348" class="&lt;Path&gt;"/>
              <path stroke="#A0C7E9" stroke-linecap="round" stroke-linejoin="round" stroke-width="1.565" d="m782.844 470.403.261-1.826 1.565-.262" class="&lt;Path&gt;"/>
              <path stroke="#A0C7E9" stroke-dasharray="4.4 4.4" stroke-linecap="round" stroke-linejoin="round" stroke-width="1.565" d="m788.583 467.533 13.044-2.087 15.652-2.87" class="&lt;Path&gt;"/>
              <path stroke="#A0C7E9" stroke-linecap="round" stroke-linejoin="round" stroke-width="1.565" d="m819.367 462.316 1.565-.261.783 1.565" class="&lt;Path&gt;"/>
              <path stroke="#A0C7E9" stroke-dasharray="4.4 4.4" stroke-linecap="round" stroke-linejoin="round" stroke-width="1.565" d="m823.28 467.272 5.218 13.044" class="&lt;Path&gt;"/>
              <path stroke="#A0C7E9" stroke-linecap="round" stroke-linejoin="round" stroke-width="1.565" d="m829.28 482.142.522 1.826-1.566.783" class="&lt;Path&gt;"/>
              <path stroke="#A0C7E9" stroke-dasharray="2.93 2.93" stroke-linecap="round" stroke-linejoin="round" stroke-width="1.565" d="m825.366 486.577-18.261 10.696-24.522-4.174" class="&lt;Path&gt;"/>
            </g>
          </g>
          <path fill="#050505" d="M743.974 425.532c30.261 31.826 78.262 5.217 68.349-7.044-16.174-19.827-76.437-1.565-68.349 7.044Z" class="&lt;Path&gt;" opacity=".4"/>
        </g>
      </g>
      <g class="brazo der">
        <g class="&lt;Group&gt;">
          <path fill="#803531" stroke="#050505" stroke-linecap="round" stroke-linejoin="round" stroke-width="2.087" d="M702.233 475.619c20.349-1.565 36.523-8.869 51.915-18 15.391-8.87 2.608-30.522-12.522-21.391-15.131 9.391-22.175 12.782-40.436 14.608-3.913.522-10.174 4.957-9.131 13.827.783 8.087 6.522 11.217 10.174 10.956Z" class="&lt;Path&gt;"/>
          <path fill="#050505" d="M702.234 475.619c20.348-1.565 36.522-8.869 51.914-18 15.392-8.87 2.608-30.522-12.522-21.391-6 3.652 2.348 19.565-3.913 23.478-8.87 5.74-24.783 10.174-36.001 11.218-3.913.521-8.087-1.305-9.653-6.261.783 8.087 6.522 11.217 10.175 10.956Z" class="&lt;Path&gt;" opacity=".4"/>
        </g>
        <g class="&lt;Group&gt;">
          <g class="&lt;Path&gt;">
            <path fill="#803531" d="M701.19 450.837c-3.652.521-8.087.783-14.087-2.348-7.305-3.913-14.348-5.739-16.175-3.13-2.608 4.174 8.609 8.608 9.914 15.391 1.043 6.522 3.391 13.305 11.217 14.87 2.87.522 6 .522 9.392 0"/>
            <path stroke="#050505" stroke-linecap="round" stroke-linejoin="round" stroke-width="2.087" d="M701.19 450.837c-3.652.521-8.087.783-14.087-2.348-7.305-3.913-14.348-5.739-16.175-3.13-2.608 4.174 8.609 8.608 9.914 15.391 1.043 6.522 3.391 13.305 11.217 14.87 2.87.522 6 .522 9.392 0"/>
          </g>
          <path fill="#803531" d="M709.016 462.316c.783 6-2.609 11.218-7.826 11.74-4.957.782-9.392-3.653-10.174-9.653-.783-6 2.608-11.478 7.826-12 4.957-.522 9.391 3.913 10.174 9.913Z" class="&lt;Path&gt;"/>
          <g class="&lt;Path&gt;">
            <path fill="#803531" d="m686.842 473.533-2.609-2.087-8.087-2.87c-2.087-1.043-3.391-3.652-2.348-5.478 1.305-2.087 3.131-2.609 4.174-2.609l8.348.783"/>
            <path stroke="#050505" stroke-linecap="round" stroke-linejoin="round" stroke-width="2.087" d="m686.842 473.533-2.609-2.087-8.087-2.87c-2.087-1.043-3.391-3.652-2.348-5.478 1.305-2.087 3.131-2.609 4.174-2.609l8.348.783"/>
          </g>
        </g>
      </g>
      <g class="cabeza">
        <g class="&lt;Group&gt;">
          <g class="&lt;Group&gt;">
            <path fill="#803531" stroke="#050505" stroke-linecap="round" stroke-linejoin="round" stroke-width="1.826" d="M698.842 375.182c6.783 39.653 32.871 66.523 83.22 60.002 49.566-6.261 64.958-44.61 58.175-84.524-7.044-39.914-44.088-66.784-83.219-60.001-39.132 6.783-65.219 44.609-58.176 84.523Z" class="&lt;Path&gt;"/>
            <path fill="#050505" d="m711.365 372.052 2.869 4.956s1.565 64.176 71.741 57.654c.783 0-.783-1.044-3.652.522h-.261c-50.349 6.522-76.437-20.349-83.22-60.002-1.826-10.957-1.304-21.392 1.044-31.305 4.435 6.522 11.479 28.175 11.479 28.175Z" class="&lt;Path&gt;" opacity=".4"/>
          </g>
          <path fill="#FEFEFE" d="M786.235 384.313s1.044-20.608 27.914-18c0 0 2.609 15.653-10.696 19.566-13.044 3.652-17.218-1.566-17.218-1.566Zm-27.392 6.262s-6.783-19.566-31.827-9.392c0 0 1.826 15.653 15.653 15.653 13.565.26 16.174-6.261 16.174-6.261Z" class="&lt;Path&gt;"/>
          <path fill="#050505" d="M764.583 396.836s4.174 5.217 10.435 3.913c6.261-1.044 9.131-8.348 9.131-8.348s-6.261 4.435-9.392 4.956c-2.869.522-10.174-.521-10.174-.521Z" class="&lt;Path&gt;"/>
          <g class="&lt;Group&gt;">
            <g class="&lt;Group&gt;">
              <path fill="#050505" d="M812.845 259.615c1.565 10.174-5.74 20.087-16.696 21.914-10.696 2.087-20.87-4.957-22.696-15.131-1.827-10.175 5.478-20.088 16.434-21.914 10.696-1.826 21.132 4.956 22.958 15.131Zm-90.002 16.175c1.304 8.348-4.174 16.174-12.522 17.478-8.348 1.305-16.174-4.435-17.479-12.783-1.304-8.087 4.174-16.174 12.522-17.479 8.348-1.304 16.174 4.436 17.479 12.784Z" class="&lt;Path&gt;"/>
              <path fill="#050505" d="M846.237 273.703c2.087 12.522-6.261 24.522-19.044 26.609-12.522 2.348-24.522-6.261-26.61-18.783-2.347-12.522 6.262-24.522 18.784-26.87 12.522-2.087 24.522 6.261 26.87 19.044Zm-155.482 51.391c2.087 12.783-6.522 24.783-19.305 27.131-12.783 2.087-24.783-6.522-27.131-19.305-2.087-12.783 6.261-24.783 19.305-27.13 12.782-2.087 24.783 6.521 27.131 19.304Zm89.48-63.392c2.87 15.652-10.174 31.044-28.696 34.435-18.783 3.131-36.001-7.043-38.871-22.956-2.609-15.653 10.174-31.045 28.957-34.175 18.522-3.392 36.001 6.782 38.61 22.696Z" class="&lt;Path&gt;"/>
              <path fill="#050505" d="M709.277 293.268c2.087 12.522-6.261 24.522-18.783 26.609-12.522 2.087-24.522-6.261-26.609-18.783-2.348-12.522 6.261-24.522 18.783-26.609 12.522-2.348 24.522 6.261 26.609 18.783Zm-13.305 72.262c2.348 13.826-6 26.87-19.044 28.957-13.043 2.348-25.305-7.043-27.653-20.87-2.608-14.087 6.001-27.131 19.044-29.218 12.783-2.348 25.305 7.044 27.653 21.131Zm192.005-28.435c2.608 14.087-5.74 27.653-18.783 29.74-13.044 2.347-25.305-7.566-27.914-21.653-2.348-14.348 6-27.914 19.044-30.001 12.783-2.348 25.305 7.566 27.653 21.914Z" class="&lt;Path&gt;"/>
              <path fill="#050505" d="M871.02 295.355c2.087 11.739-6 22.957-17.739 25.044-11.74 2.087-22.957-6.001-25.044-17.74-2.087-11.739 5.739-22.957 17.739-25.044 11.739-2.087 22.957 5.74 25.044 17.74Z" class="&lt;Path&gt;"/>
              <g class="&lt;Group&gt;">
                <path fill="#050505" d="M775.8 321.964c1.565 9.653-4.696 18.522-14.348 20.088-9.392 1.826-18.261-4.696-20.088-14.087-1.565-9.392 4.696-18.523 14.349-20.088 9.391-1.566 18.261 4.696 20.087 14.087Z" class="&lt;Path&gt;"/>
                <path fill="#050505" d="M808.41 318.311c1.826 9.653-4.696 18.784-14.349 20.349-9.652 1.826-19.043-4.696-20.608-14.348-1.827-9.653 4.695-19.044 14.348-20.609 9.913-1.565 19.043 4.695 20.609 14.608Z" class="&lt;Path&gt;"/>
                <path fill="#050505" d="M837.106 326.66c1.565 9.652-4.696 19.044-14.609 20.609-9.652 1.826-18.783-4.696-20.348-14.348-1.826-9.913 4.696-19.044 14.348-20.609 9.652-1.826 19.044 4.696 20.609 14.348Z" class="&lt;Path&gt;"/>
                <path fill="#050505" d="M852.497 347.53c1.305 7.565-3.652 14.609-11.217 15.913-7.566 1.304-14.61-3.652-15.914-11.218-1.304-7.565 3.652-14.608 11.218-15.913 7.565-1.304 14.609 3.653 15.913 11.218Zm-138.525 22.175c1.305 7.565-3.913 14.869-11.478 16.174-7.566 1.304-14.609-3.914-15.914-11.479-1.304-7.305 3.653-14.609 11.218-15.913 7.565-1.304 14.87 3.652 16.174 11.218Z" class="&lt;Path&gt;"/>
                <path fill="#050505" d="M725.973 350.921c1.043 6.261-3.131 12-9.131 13.044-6 1.043-12-3.131-13.044-9.131-1.043-6 3.131-12 9.131-13.044 6.261-1.043 12 3.131 13.044 9.131Z" class="&lt;Path&gt;"/>
                <path fill="#050505" d="M747.104 330.834c1.565 8.609-4.435 16.957-13.044 18.523-8.87 1.565-17.218-4.435-18.522-13.044-1.566-8.87 4.174-16.957 13.043-18.523 8.609-1.565 16.957 4.174 18.523 13.044Z" class="&lt;Path&gt;"/>
                <path fill="#050505" d="m700.929 381.183 22.957-40.697 29.739-12 32.871-2.87 24.783 10.435 17.218 6.783 11.217 11.739 14.349-16.696-1.566-37.044-51.392-33.653-46.697 2.869-49.305 12.262-30.262 42.522-4.696 42.784 30.784 13.566Z" class="&lt;Path&gt;"/>
              </g>
            </g>
            <path stroke="#3F1D13" stroke-width="2.609" d="M708.233 356.922c-4.956.521-9.391-3.131-9.913-8.348-.261-4.957 3.392-9.392 8.609-9.653 4.957-.521 9.391 3.131 9.913 8.348m124.177 10.696c5.218-.522 8.61-5.218 8.088-10.174-.783-4.957-5.479-8.609-10.435-7.827-4.957.783-8.609 5.218-7.826 10.175m-109.308-85.568c1.304-6.782 6-13.043 13.304-16.956 9.653-4.957 20.87-3.653 27.914 2.869 1.565 1.391 2.87 3.13 3.913 5.217" class="&lt;Path&gt;"/>
            <path stroke="#3F1D13" stroke-width="1.826" d="M761.974 274.746c-1.826-5.479-7.827-8.348-13.044-6.261-2.609.782-4.696 2.869-5.74 5.217" class="&lt;Path&gt;"/>
            <path stroke="#3F1D13" stroke-width="2.609" d="M681.103 281.789c-8.348 2.87-12.523 11.74-9.653 20.088 2.87 8.087 12.001 12.522 20.088 9.652m22.956-12.001c8.609-1.304 14.348-9.13 13.044-17.478-1.044-8.609-9.131-14.348-17.479-13.044-8.608 1.305-14.348 9.131-13.304 17.479" class="&lt;Path&gt;"/>
            <path stroke="#3F1D13" stroke-width="1.826" d="M821.714 302.659c-5.478-8.87-17.218-11.739-26.348-5.999-8.87 5.478-11.74 17.217-6.261 26.087" class="&lt;Path&gt;"/>
            <path stroke="#3F1D13" stroke-width="2.609" d="M856.671 308.92c6.261-3.391 8.609-11.217 5.218-17.218-3.392-6.261-11.218-8.608-17.218-5.217" class="&lt;Path&gt;"/>
            <path stroke="#3F1D13" stroke-width="1.826" d="M770.583 289.877c-13.566-3.131-26.87 5.478-29.74 19.044" class="&lt;Path&gt;"/>
            <path stroke="#3F1D13" stroke-width="2.609" d="M878.586 353.008c5.478-9.652 2.086-22.174-7.566-27.652" class="&lt;Path&gt;"/>
            <path stroke="#3F1D13" stroke-width="1.826" d="M698.581 381.444c7.043-1.826 11.217-9.131 9.13-16.175" class="&lt;Path&gt;"/>
            <path stroke="#3F1D13" stroke-width="2.609" d="M811.279 337.356c2.087 3.652 6.783 5.217 10.435 3.13 3.913-1.826 5.479-6.522 3.392-10.435m-99.916 13.305c8.087.783 15.392-5.217 16.174-13.566.783-8.348-5.217-15.652-13.565-16.435-8.087-.782-15.392 5.478-16.174 13.566" class="&lt;Path&gt;"/>
            <path stroke="#3F1D13" stroke-width="1.826" d="M847.802 304.224c-8.087-2.087-16.174 2.609-18.261 10.696-2.087 8.088 2.608 16.175 10.435 18.262 8.087 2.348 16.174-2.609 18.261-10.435m-185.221 30.261c-4.957 4.957-4.696 12.783.26 17.74 4.957 4.695 13.044 4.695 17.74-.261 4.696-4.957 4.696-13.044-.522-17.739" class="&lt;Path&gt;"/>
            <path stroke="#3F1D13" stroke-width="2.609" d="M827.975 297.964c10.175-3.652 15.392-14.609 12.001-24.783-3.652-10.174-14.87-15.653-24.783-12.001-10.174 3.392-15.392 14.609-11.74 24.784m-23.479 30.783c-2.608 6.261.261 13.304 6.522 15.913 6.261 2.869 13.305-.261 15.914-6.261m-139.047 31.044c-7.827 4.435-10.435 14.609-6 22.436 4.434 7.826 14.609 10.695 22.435 6.26m-28.696-54.523c1.565 8.609 9.652 14.348 18.261 12.783 8.348-1.565 14.087-9.652 12.783-18.261-1.565-8.609-9.652-14.348-18.261-12.783-8.609 1.305-14.348 9.653-12.783 18.261Z" class="&lt;Path&gt;"/>
            <path stroke="#3F1D13" stroke-width="1.826" d="M696.233 316.747c5.479 1.304 10.957-1.565 12.522-7.044 1.566-5.478-1.565-10.957-7.043-12.522-5.218-1.565-10.696 1.565-12.262 7.044" class="&lt;Path&gt;"/>
            <g class="&lt;Group&gt;">
              <path stroke="#3F1D13" stroke-width="1.826" d="M748.93 327.182c.783 5.218 6.261 8.87 11.74 8.087m8.086-11.74c-.782-5.478-6-9.13-11.739-8.087" class="&lt;Path&gt;"/>
            </g>
            <path stroke="#3F1D13" stroke-width="2.609" d="M777.627 269.268c1.304 8.348 9.391 14.087 18 12.782 8.609-1.565 14.087-9.652 12.783-18.261-1.566-8.348-9.653-14.087-18.262-12.783-8.348 1.566-14.087 9.653-12.521 18.262Z" class="&lt;Path&gt;"/>
          </g>
          <g class="&lt;Group&gt;">
            <path fill="#855226" d="M806.845 375.182c1.304 4.696-1.305 9.131-5.74 10.435-4.174 1.044-8.609-1.825-9.913-6.26-1.044-4.696 1.565-9.131 5.739-10.435 4.435-1.044 8.87 1.826 9.914 6.26Z" class="&lt;Path&gt;"/>
            <path fill="#050505" d="M801.627 376.748c.261 1.565-.521 2.869-2.087 3.13-1.304.261-2.609-.782-2.87-2.348-.261-1.304.783-2.87 2.087-3.131 1.305 0 2.609 1.044 2.87 2.349Z" class="&lt;Path&gt;"/>
            <path fill="#FEFEFE" d="M796.67 374.661c0 .782-.521 1.565-1.304 1.826-.783 0-1.565-.522-1.826-1.305 0-1.043.522-1.826 1.304-1.826.783-.261 1.566.261 1.826 1.305Z" class="&lt;Path&gt;"/>
          </g>
          <g class="&lt;Group&gt;">
            <path fill="#855226" d="M736.408 387.705c.261 4.695 3.914 8.348 8.348 8.348 4.435-.261 7.827-4.174 7.827-8.87-.261-4.696-3.914-8.348-8.349-8.087-4.434 0-7.826 3.913-7.826 8.609Z" class="&lt;Path&gt;"/>
            <path fill="#050505" d="M741.887 387.705c.261 1.565 1.304 2.608 2.87 2.347 1.304 0 2.347-1.304 2.086-2.869-.261-1.565-1.565-2.609-2.869-2.348-1.305 0-2.348 1.565-2.087 2.87Z" class="&lt;Path&gt;"/>
            <path fill="#FEFEFE" d="M746.061 384.314c.261.782 1.043 1.565 1.826 1.304.782 0 1.304-.783 1.304-1.826-.261-.783-1.043-1.304-1.826-1.304-.782 0-1.304.782-1.304 1.826Z" class="&lt;Path&gt;"/>
          </g>
          <path stroke="#050505" stroke-linecap="round" stroke-linejoin="round" stroke-width="2.609" d="m719.712 374.661 7.305 5.739s24.261-7.826 31.826 10.435" class="&lt;Path&gt;"/>
          <g class="&lt;Path&gt;">
            <path fill="#BB8653" d="m727.016 373.356 4.435 5.74Z"/>
            <path stroke="#050505" stroke-linecap="round" stroke-linejoin="round" stroke-width="2.609" d="m727.016 373.356 4.435 5.74"/>
          </g>
          <path stroke="#050505" stroke-linecap="round" stroke-linejoin="round" stroke-width="2.609" d="m819.366 357.965-5.478 7.565s-25.566-.782-27.653 18.783" class="&lt;Path&gt;"/>
          <g class="&lt;Path&gt;">
            <path fill="#BB8653" d="m812.062 358.748-2.869 6.783Z"/>
            <path stroke="#050505" stroke-linecap="round" stroke-linejoin="round" stroke-width="2.609" d="m812.062 358.748-2.869 6.783"/>
          </g>
          <path stroke="#050505" stroke-linecap="round" stroke-linejoin="round" stroke-width="3.391" d="M786.757 360.835s11.218-8.348 21.914 1.044m-57.132 5.999s-13.044-4.696-20.609 7.566" class="&lt;Path&gt;"/>
        </g>
        <path fill="#050505" d="M759.104 414.575c.783-5.478 9.392-4.696 14.348-4.696 1.044-.261 3.131-.26 4.435-.521 1.305 0 3.392-.783 4.957-1.305 4.435-1.565 12.261-4.957 15.13-.261 2.87 4.957.783 16.174-14.609 19.566a8.564 8.564 0 0 1-2.086.261c-.522.174-1.218.26-2.087.26-15.392 2.087-21.131-7.825-20.088-13.304Z" class="&lt;Path&gt;"/>
      </g>
      <g style="transform-box: fill-box;" class="nina brazo-izq adelante">
        <g class="nina atras" opacity=".01">
          <path fill="#803531" stroke="#050505" stroke-linecap="round" stroke-linejoin="round" stroke-width="2.087" d="M865.019 410.401c-12 16.696-26.609 26.61-42.522 34.958-15.914 8.348-27.392-13.827-11.74-21.914 15.914-8.087 22.436-12.262 33.653-26.871 2.348-3.13 9.392-6 16.436-.521 6.522 4.956 6.26 11.478 4.173 14.348Z" class="&lt;Path&gt;"/>
          <path fill="#050505" d="M865.019 410.401c-12 16.696-26.609 26.609-42.522 34.957-15.914 8.348-27.392-13.826-11.74-21.914 6.261-3.13 15.392 12.001 21.914 8.871 9.652-4.435 21.653-15.653 28.696-24.523 2.348-3.131 2.87-7.826-.521-11.74 6.522 4.957 6.26 11.479 4.173 14.349Z" class="&lt;Path&gt;" opacity=".4"/>
        </g>
        <g class="bandera">
          <g class="&lt;Group&gt;">
            <g class="&lt;Group&gt;">
              <path fill="#CD895A" d="M847.052 444.156c-.464 3.096-1.922 5.779-3.47 5.547-1.29-.193-2.193-2.967-1.69-6.321l41.47-295.824c.464-3.095 2.18-5.74 3.47-5.547 1.548.233 2.193 2.967 1.69 6.321l-41.47 295.824Z" class="&lt;Path&gt;"/>
              <g class="&lt;Group&gt;">
                <path fill="#B76A4E" d="M883.401 147.3 841.97 442.866c-.349 2.322-.104 4.206.516 5.354l43.83-306.286c-1.109.361-2.49 2.528-2.915 5.366Z" class="&lt;Path&gt;"/>
              </g>
            </g>
          </g>
          <g class="&lt;Group&gt;">
            <path fill="#7358A5" d="M1013.91 309.588c-73.945-15.311-137.668-40.697-147.072-51.868 11.571-71.863 14.473-101.764 14.473-101.764 11.029 5.611 88.49 29.101 138.919 41.149l12.44 3.186-18.76 109.297Z" class="&lt;Path&gt;"/>
            <path fill="#B8C7DA" d="m887.824 163.529-13.247 95.352s1.613 1.561 4.67 2.284c1.096-30.172 8.577-97.636 8.577-97.636Z" class="&lt;Path&gt;" style="mix-blend-mode:multiply"/>
          </g>
          <g class="&lt;Group&gt;">
            <g class="&lt;Group&gt;">
              <g class="&lt;Group&gt;">
                <g class="&lt;Group&gt;">
                  <g class="&lt;Group&gt;">
                    <path fill="#FBE109" d="M909.832 240.164c-1.118 1.59-2.614 2.773-4.489 3.547s-3.646.86-5.315.258c-2.21-.507-3.715-1.613-4.515-3.315-.774-1.875-.761-3.719.039-5.534.826-1.986 2.275-3.44 4.347-4.36 1.901-.946 3.87-1.178 5.908-.696 1.866.455 3.298 1.461 4.296 3.018.825 1.531 1.023 3.143.593 4.837l-4.567-1.212c.104-.688.022-1.316-.245-1.883a5.774 5.774 0 0 0-1.689-1.045 3.824 3.824 0 0 0-2.439.425c-.765.413-1.397 1.11-1.895 2.09-.301.834-.332 1.621-.091 2.36a3.337 3.337 0 0 0 1.87 1.6c.516.077 1.144-.004 1.884-.245.739-.241 1.32-.594 1.741-1.058l4.567 1.213Zm4.631 7.817s-.258-.039-.993-.413-1.471-.749-2.129-1.639c-.697-.632-.838-1.445-.864-3.031.077-.516.266-1.191.567-2.025l3.599-8.165 4.051 1.135-3.599 8.165-.117.774c-.025.172.035.357.181.555-.038.258.4.851.916.929.516.077.959.055 1.329-.065.567-.267.864-.486.89-.658l.335-.477 3.599-8.166 4.051 1.135-3.341 8.204c-.748 1.471-1.716 2.645-2.825 3.006-.421.464-.903.744-1.445.838-1.625.284-3.173.052-3.689-.025l-.516-.077Zm18.149-10.204-4.089 9.675 5.857 1.406-1.652 3.972-10.126-2.838 5.96-13.35 4.05 1.135Zm6.489 5.986-3.792-1.097 1.612-3.715 11.932 3.109-1.651 3.973-3.793-1.096-4.089 9.674-4.308-1.174 4.089-9.674Zm11.338 14.098c-.258-.038-.516-.077-1.251-.451-.735-.374-1.213-.71-1.87-1.6-.697-.632-1.097-1.483-1.122-3.07.077-.516.266-1.191.567-2.025l3.599-8.165 4.308 1.173-3.598 8.166c-.039.258-.297.219-.116.774l-.078.516c.22.296.4.851 1.174.967.516.078.959.056 1.329-.064l.889-.659.078-.515 3.599-8.166 4.308 1.174-3.598 8.165c-.748 1.471-1.716 2.645-2.567 3.045-.594.438-1.162.705-1.703.8-1.626.284-2.915.09-3.689-.026l-.259-.039Z" class="&lt;Compound Path&gt;"/>
                    <path fill="#FBE109" fill-rule="evenodd" d="m970.989 263.317-5.083-1.289-1.483-4.18-.22-.297-1.573 3.458-4.051-1.135 5.702-13.39 5.856 1.406s.258.039.993.413c.736.374 1.213.709 1.871 1.599.697.632 1.096 1.484.903 2.774-.077.515-.254 1.104-.529 1.767-.826 1.986-2.15 3.195-3.973 3.625l1.587 5.249Zm-4.27-11.983-1.161 2.464 1.767.529c.662.275 1.144-.004 1.445-.839.412-.993.232-1.548-.542-1.664l-1.509-.49Zm20.136 1.174-.658 14.937-4.566-1.212-.026-1.586-4.566-1.213-.968 1.173-4.566-1.212 11.041-12.061 4.309 1.174Zm-6.656 7.443 1.767.529.465-3.096-2.232 2.567Z" class="&lt;Compound Path&gt;" clip-rule="evenodd"/>
                    <path fill="#FBE109" d="m997.496 255.423-4.346 9.637 6.075 1.702-1.651 3.973-10.126-2.838 5.74-13.648 4.308 1.174Z" class="&lt;Compound Path&gt;"/>
                  </g>
                </g>
              </g>
            </g>
            <g class="&lt;Group&gt;">
              <g class="&lt;Group&gt;">
                <g class="&lt;Group&gt;">
                  <g class="&lt;Group&gt;">
                    <path fill="#FBE109" fill-rule="evenodd" d="m888.509 218.764 5.959-13.351 5.599 1.367c2.012.654 3.345 1.733 3.998 3.238.8 1.703.788 3.547-.038 5.533-.826 1.987-2.176 3.367-4.051 4.141-1.9.946-3.869 1.179-5.907.697l-5.56-1.625Zm8.397-8.501-2.437 5.702 1.251.451c.834.301 1.647.159 2.438-.426.593-.439 1.126-1.062 1.599-1.87.301-.834.318-1.535.052-2.103-.241-.739-.692-1.247-1.354-1.522l-1.549-.232Z" class="&lt;Compound Path&gt;" clip-rule="evenodd"/>
                    <path fill="#FBE109" d="m902.943 222.775 5.741-13.647 4.308 1.173-5.998 13.609-4.051-1.135Zm14.693 4.05-4.308-1.173.658-14.938 4.566 1.213-.541 8.888 6.101-7.263 4.566 1.212-11.042 12.061Zm14.731-6.759-.451 1.251 5.302 1.587-1.278 3.238-5.598-1.368-.412.994 5.817 1.664-1.651 3.972-10.126-2.837 5.998-13.609 10.126 2.837-1.651 3.974-6.076-1.703Z" class="&lt;Compound Path&gt;"/>
                    <path fill="#FBE109" fill-rule="evenodd" d="m948.569 235.159-5.083-1.29-1.225-4.141-.516-.077-1.574 3.457-4.05-1.135 5.74-13.648 5.818 1.664c.258.039.257.038.993.412.735.374 1.47.749 1.909 1.342.658.89 1.058 1.742.903 2.774a4.225 4.225 0 0 1-.31 2.063c-.799 1.815-2.209 3.01-4.23 3.587l1.625 4.992Zm-4.27-11.984-.903 2.502 1.509.491c.86.129 1.44-.224 1.741-1.058.375-.735-.063-1.329-.541-1.664l-1.806-.271Z" class="&lt;Compound Path&gt;" clip-rule="evenodd"/>
                    <path fill="#FBE109" d="M953.651 231.172c.68 1.333 1.609 2.176 2.787 2.528.86.129 1.316.022 1.367-.322.224-.318.09-.602-.4-.852l-1.432-1.006a40.976 40.976 0 0 1-1.612-1.561c-.464-.421-.817-1.002-1.058-1.741-.24-.74-.124-1.514.349-2.322.301-.834.945-1.617 1.934-2.348 1.148-.619 3.032-.864 5.057-.296 1.509.49 2.721 1.199 3.121 2.05.658.89 1.097 1.484 1.278 2.038l-.039.259-3.664 1.561c-.24-.74-.52-1.222-.838-1.445-.292-.396-.783-.645-1.471-.748-.516-.078-1.07.103-1.109.361-.296.219.4.851 1.097 1.483.49.25.967.585 1.431 1.007l1.394 1.264c.292.395.486.864.58 1.406a4.242 4.242 0 0 1-.309 2.064c-.301.834-1.032 1.603-2.193 2.309-1.445.838-3.29.825-5.057.296-1.694-.43-2.907-1.139-3.638-2.128-.731-.989-1.13-1.841-1.199-2.554l3.624-1.303Zm8.579 7.882 5.701-13.39 4.308 1.174-5.959 13.351-4.05-1.135Z" class="&lt;Compound Path&gt;"/>
                    <path fill="#FBE109" fill-rule="evenodd" d="m968.564 240.795 5.701-13.39 5.598 1.368c2.184.679 3.603 1.772 4.257 3.276.8 1.703.787 3.547-.038 5.534-.8 1.815-2.15 3.195-4.051 4.141-1.9.946-3.87 1.178-5.908.697l-5.559-1.626Zm8.436-8.759-2.735 5.921 1.509.49a3.82 3.82 0 0 0 2.438-.425c.594-.439 1.127-1.063 1.6-1.871.301-.834.318-1.534.051-2.102-.241-.74-.692-1.247-1.354-1.522l-1.509-.491Zm19.323 1.316-.658 14.938-4.566-1.213.232-1.547-4.567-1.213-1.225 1.135-4.308-1.174 10.784-12.1 4.308 1.174Zm-6.656 7.444 2.025.567.207-3.135-2.232 2.568Zm7.288 7.688 5.955-13.352 5.56 1.626c2.04.481 3.46 1.574 4.26 3.276.63 1.677.54 3.423-.26 5.237-.82 1.987-2.19 3.453-4.09 4.399-1.9.946-3.85 1.092-5.87.439l-5.555-1.625Zm8.395-8.502-2.47 5.96 1.29.194c.83.301 1.63.245 2.4-.168.76-.412 1.29-1.036 1.59-1.87.31-.834.34-1.622.09-2.361-.06-.714-.53-1.135-1.39-1.264l-1.51-.491Z" class="&lt;Compound Path&gt;" clip-rule="evenodd"/>
                  </g>
                </g>
              </g>
            </g>
            <g class="&lt;Group&gt;">
              <path fill="#FEFEFE" d="m932.819 197.711-.452 1.252-2.541-.646-1.238 2.981 2.025.567-.452 1.251-2.283-.606-2.025 4.708-1.251-.451 4.425-10.152 3.792 1.096Zm4.308 1.174-.451 1.251-2.245-.864-1.535 3.199 2.284.606-.71 1.213-2.025-.567-1.574 3.456 2.283.607-.451 1.251-3.793-1.096 4.425-10.152 3.792 1.096Zm3.302 2.606c-.219-.297-.438-.594-.954-.671-.735-.374-1.367.322-1.703.8-.335.477-.374.735-.193 1.29l.58 1.406c.62 1.148.762 1.96.271 3.47-.748 1.47-2.193 2.308-3.702 1.818-.516-.077-1.006-.326-1.471-.748l.749-1.47c.181.555.658.89 1.174.967.774.116 1.367-.322 1.741-1.058 1.083-1.948-1.896-3.186-.696-5.908.748-1.47 1.934-2.347 3.74-2.076.49.249.894.485 1.213.709l-.749 1.471Zm5.83-.18-.451 1.251-1.509-.49-3.973 8.9-1.548-.232 4.012-9.159-1.548-.232.452-1.251 4.565 1.213Zm4.31 1.174-.452 1.251-2.502-.903-1.277 3.237 2.025.568-.452 1.251-2.283-.606-1.316 3.496 2.284.606-.452 1.251-3.792-1.096 4.424-10.152 3.793 1.097Z" class="&lt;Compound Path&gt;"/>
              <path fill="#FEFEFE" d="M950.621 210.933c-.748 1.471-1.458 2.683-3.484 2.115-.257-.038-.735-.373-.954-.67l.452-1.251c.219.296.477.335.954.67.774.116 1.148-.619 1.522-1.354l3.225-7.431 1.548.233-3.263 7.688Z" class="&lt;Compound Path&gt;"/>
              <path fill="#FEFEFE" fill-rule="evenodd" d="m957.934 204.381-2.399 10.719-1.252-.452.31-2.064-2.025-.567-1.342 1.909-1.29-.193 6.708-9.546 1.29.194Zm-2.4 5.443 1.097-3.792-3.135 5.069 1.549.232.489-1.509Z" class="&lt;Compound Path&gt;" clip-rule="evenodd"/>
              <path fill="#FEFEFE" d="m962.243 205.554-1.677 7.662.297-.219 1.419-2.425 3.018-4.296 1.251.452-3.65 10.268-1.29-.193 1.393-4.013.787-1.728.49-1.509-1.006 1.432-3.432 5.288-1.031-.154 1.638-7.405-3.405 6.875-1.252-.451 5.198-10.036 1.252.452Z" class="&lt;Compound Path&gt;"/>
              <path fill="#FEFEFE" fill-rule="evenodd" d="M971.298 213.771c-.786 1.728-2.361 5.185-5.121 4.244-2.799-.684-1.226-4.141-.439-5.869.787-1.729 2.361-5.186 5.16-4.502 2.542.645 1.226 4.14.4 6.127Zm-4.05-1.135c-1.084 1.947-1.651 3.973-.62 4.128 1.252.451 2.039-1.277 3.161-3.483.864-2.245 1.651-3.973.399-4.425-1.032-.154-2.076 1.535-2.94 3.78Z" class="&lt;Compound Path&gt;" clip-rule="evenodd"/>
              <path fill="#FEFEFE" d="M977.219 211.23c-.22-.297-.439-.594-.955-.671-.774-.116-1.625.284-1.999 1.019-.077.516-.117.774.103 1.071l.58 1.406c.323 1.367.723 2.219.013 3.431-.49 1.51-1.935 2.348-3.741 2.077a3.283 3.283 0 0 1-1.174-.967l.452-1.252c.477.336.697.632 1.213.71.993.413 1.625-.284 1.999-1.019.826-1.987-1.896-3.186-.696-5.908.49-1.509 1.935-2.348 3.444-1.858.516.077.92.314 1.212.71l-.451 1.251Zm6.088-.142-4.011 9.158 2.283.607-.413.993-3.831-.838 4.424-10.152 1.548.232Z" class="&lt;Compound Path&gt;"/>
              <path fill="#FEFEFE" fill-rule="evenodd" d="m988.61 212.674-2.142 10.758-1.509-.489.567-2.026-2.024-.568-1.342 1.91-1.509-.491 6.965-9.507.994.413Zm-2.438 5.702 1.096-3.792-.258-.039-3.096 4.811 1.767.529.491-1.509Z" class="&lt;Compound Path&gt;" clip-rule="evenodd"/>
            </g>
            <path fill="#B8C7DA" d="m867.612 252.56-.774 5.16c9.404 11.171 73.128 36.557 147.072 51.868l17.6-101.558c-69.951 53.082-134.706 48.645-163.898 44.53Z" class="&lt;Path&gt;" style="mix-blend-mode:multiply"/>
          </g>
        </g>
        <g class="mano der">
          <g class="&lt;Group&gt;">
            <path fill="#803531" stroke="#050505" stroke-linecap="round" stroke-width="2.087" d="M871.78 400.646c1.161 8.088-3.65 15.544-10.964 16.821-7.353 1.535-14.435-4.012-15.596-12.1-1.419-8.126 3.393-15.582 10.707-16.859 7.314-1.277 14.434 4.011 15.853 12.138Z" class="&lt;Path&gt;"/>
            <path fill="#803531" stroke="#050505" stroke-linecap="round" stroke-width="2.087" d="M852.044 395.048c1.947 1.083 2.373 3.521 1.29 5.469-1.342 1.909-3.78 2.335-5.728 1.252l-3.856-2.425c-1.948-1.084-2.374-3.522-1.291-5.47 1.342-1.909 3.78-2.335 5.47-1.29l4.115 2.464Z" class="&lt;Path&gt;"/>
            <path fill="#050505" d="M869.342 406.348s-2.516 6.218-8.862 6.321c-6.347.103-8.32-7.843-8.32-7.843s3.625-1.303 2.541-4.631c0 0-3.057 4.554-7.314 1.277l-2.528 2.786s1.896 13.738 13.557 13.377c11.919-.322 11.725-9.585 10.926-11.287Z" class="&lt;Path&gt;" opacity=".2" style="mix-blend-mode:multiply"/>
          </g>
        </g>
      </g>
    </g>
    <g class="texto">
      <g class="&lt;Group&gt;">
        <path fill="#050505" fill-rule="evenodd" d="M283.156 154.806c0 16.436-.522 27.131-12.783 38.609-12.261 11.479-32.87 20.61-50.871 20.61-18.087 0-33.218-5.739-45.392-17.218-12.348-11.479-18.522-25.478-18.522-42.001 0-16.696 14.609-38.087 26.87-49.566 12.261-11.218 19.044-9.653 37.044-9.653 17.914 0 33.044 5.74 45.393 17.218 12.174 11.305 18.261 25.305 18.261 42.001Zm-37.566 0c0-7.652-2.522-14.087-7.566-19.305-5.043-5.217-11.217-7.826-18.522-7.826-7.304 0-13.478 2.609-18.522 7.826-5.217 5.218-7.826 11.653-7.826 19.305 0 7.479 2.609 13.826 7.826 19.044 5.044 5.217 11.218 7.826 18.522 7.826 7.305 0 13.479-2.609 18.522-7.826 5.044-5.218 7.566-11.565 7.566-19.044Z" class="&lt;Compound Path&gt;" clip-rule="evenodd"/>
        <g class="&lt;Group&gt;">
          <g class="&lt;Group&gt;">
            <path fill="#F69227" fill-rule="evenodd" stroke="#050505" stroke-linecap="round" stroke-linejoin="round" stroke-width="2.87" d="M231.241 85.413c18.088 0 33.219 5.653 45.393 16.957 12.174 11.479 18.261 25.479 18.261 42.001 0 16.697-6.087 30.696-18.261 42.001-12.174 11.479-27.305 17.305-45.393 17.479-18.087-.174-33.218-6-45.392-17.479-12.174-11.305-18.261-25.304-18.261-42.001 0-16.522 6.087-30.522 18.261-42.001 12.174-11.304 27.305-16.957 45.392-16.957Zm0 86.089c7.305 0 13.479-2.608 18.522-7.826 5.044-5.218 7.566-11.652 7.566-19.305 0-7.478-2.522-13.826-7.566-19.044-5.043-5.217-11.217-7.826-18.522-7.826-7.304 0-13.478 2.609-18.522 7.826-5.043 5.218-7.565 11.566-7.565 19.044 0 7.653 2.522 14.087 7.565 19.305 5.044 5.218 11.218 7.826 18.522 7.826Z" class="&lt;Compound Path&gt;" clip-rule="evenodd"/>
          </g>
        </g>
        <g class="&lt;Group&gt;">
          <g class="&lt;Group&gt;">
            <path fill="#FEDBB5" d="M259.937 101.327c0 .783-.521 1.565-1.304 1.826-1.044 0-1.826-.522-1.826-1.565 0-.783.522-1.565 1.304-1.565 1.044-.261 1.826.522 1.826 1.304Z" class="&lt;Path&gt;"/>
          </g>
          <path stroke="#FEDBB5" stroke-linecap="round" stroke-linejoin="round" stroke-width="2.87" d="M236.981 177.242c9.913-.783 18.783-8.087 21.131-14.87m-7.566-64.958c-7.043-6-30.522-6.262-39.131-1.044" class="&lt;Path&gt;"/>
        </g>
      </g>
      <g class="&lt;Group&gt;">
        <g class="&lt;Group&gt;">
          <g class="&lt;Group&gt;">
            <g class="&lt;Group&gt;">
              <path fill="#B76B28" fill-opacity=".2" d="M295.939 194.981c-6.522-4.174-17.74-12.261-22.696-18.261-10.957-12.783-13.826-28.175-9.652-40.697 3.913-12.783 15.13-21.13 24.783-21.13" class="&lt;Compound Path&gt;"/>
            </g>
          </g>
        </g>
        <g class="&lt;Group&gt;">
          <g class="&lt;Group&gt;">
            <path fill="#050505" d="m361.94 159.502 30.784-2.348c.782 0 1.304.522 1.304 1.305-2.087 13.304-8.87 24.783-18.783 34.435-10.435 9.913-25.566 18.522-40.436 19.566-17.043 1.391-31.826-2.87-44.348-12.783-12.522-9.913-19.392-22.783-20.61-38.61-1.304-15.652 4.957-33.131 15.653-44.87 10.696-12 26.087-17.74 43.305-19.044 14.957-1.218 28.349 2.173 40.175 10.174 9.131 6.261 27.131 12.783 32.088 22.174.347.522.347 1.044 0 1.566l-9.653 9.913-.521.522-35.74 2.608c-1.044.261-1.827-.26-2.348-1.043-2.087-4.435-5.479-9.391-9.392-11.739-4.696-2.783-9.565-4.001-14.609-3.653-6.783.522-10.174 3.392-14.609 8.87-4.348 5.392-6.261 11.653-5.739 18.783.522 7.131 3.391 12.957 8.609 17.479 5.391 4.695 11.478 6.782 18.261 6.26 5.044-.521 9.565-2.521 13.566-5.999 3.652-3.392 10.174-7.827 12-12.783.261-.261.522-.522 1.043-.783Z" class="&lt;Compound Path&gt;"/>
          </g>
        </g>
        <g class="&lt;Group&gt;">
          <g class="&lt;Group&gt;">
            <path fill="#F69227" stroke="#050505" stroke-linecap="round" stroke-linejoin="round" stroke-width="2.87" d="M401.333 147.24c-1.739 13.914-7.826 25.914-18.261 36.001-10.435 9.914-23.131 15.392-38.088 16.436-17.044 1.391-31.827-2.87-44.349-12.784-12.522-9.913-19.392-22.696-20.609-38.348-1.391-15.827 3.304-29.653 14.087-41.479 10.783-11.653 24.696-18.174 41.74-19.566 14.957-1.217 28.435 2.174 40.436 10.174 11.826 8 19.652 18.784 23.479 32.349l-36.784 3.13c-2.261-5.043-5.652-8.956-10.174-11.739-4.696-2.609-9.479-3.739-14.348-3.391-6.957.521-12.609 3.478-16.957 8.869-4.522 5.391-6.522 11.653-6 18.784.696 7.13 3.652 12.956 8.87 17.478 5.217 4.696 11.217 6.696 18 6 5.043-.347 9.566-2.261 13.566-5.739 4-3.479 6.782-7.827 8.347-13.044l37.045-3.131Z" class="&lt;Compound Path&gt;"/>
          </g>
        </g>
        <g class="&lt;Group&gt;">
          <path fill="#FEDBB5" d="M301.939 176.459c0-.782.783-1.304 1.566-1.304 1.043.261 1.565 1.044 1.304 1.826 0 .783-.783 1.305-1.565 1.305-.783-.261-1.305-1.044-1.305-1.827Z" class="&lt;Path&gt;"/>
          <path stroke="#FEDBB5" stroke-linecap="round" stroke-linejoin="round" stroke-width="2.87" d="M334.81 111.24c-9.391.522-18.261 7.044-20.348 13.305m-4.957 57.914c5.479 7.044 27.131 12.523 36.262 9.392" class="&lt;Path&gt;"/>
        </g>
      </g>
      <g class="&lt;Group&gt;">
        <g class="&lt;Group&gt;">
          <g class="&lt;Group&gt;">
            <path fill="#B76B28" fill-opacity=".2" d="m397.159 123.24-27.653.522c-1.043 0-1.826-.783-1.826-1.826l2.348-26.349c.522-3.391 6.261 2.61 7.304 2.87 3.131 1.044 4.435-14.87 8.088-12h.261l6.26 27.914c1.305 1.043 6.783 8.869 5.218 8.869Z" class="&lt;Path&gt;"/>
          </g>
        </g>
      </g>
      <g class="&lt;Group&gt;">
        <path fill="#050505" d="m862.821 170.459-52.175 3.652-.522-8.87 47.219-3.391c.522 0 .956-.174 1.304-.522l8.609-4.696-4.957-1.044-4.695.523-1.566-24.784-48.001 3.391-.782-9.391 50.871-3.653c.695 0 1.304-.173 1.826-.521l8.609-5.478-8.87-.783-.783.261-2.087-27.392-80.61-.782-10.957 7.303c-.261.261-.522.783-.522 1.566l8.087 118.698c0 1.566.522 2.87 2.087 2.609l90.263-6.783 10.174-12.782-12.522-27.131Z" class="&lt;Path&gt;"/>
        <g class="&lt;Group&gt;">
          <path fill="#F69227" stroke="#050505" stroke-linecap="round" stroke-linejoin="round" stroke-width="2.87" d="m815.864 118.022.782 10.957 48.001-3.391 2.087 29.74-48.001 3.391.783 9.653 51.914-3.653 2.348 32.349-88.437 6.261-8.087-115.046 88.437-6.261 2.348 32.348-52.175 3.652Z" class="&lt;Compound Path&gt;"/>
        </g>
        <g class="&lt;Group&gt;">
          <g class="&lt;Group&gt;">
            <path stroke="#FEDBB5" stroke-linecap="round" stroke-linejoin="round" stroke-width="2.87" d="m827.603 90.892 30.783-2.088c1.044 0 1.827.522 2.088 1.565l.782 7.305" class="&lt;Path&gt;"/>
          </g>
          <g class="&lt;Group&gt;">
            <path stroke="#FEDBB5" stroke-linecap="round" stroke-linejoin="round" stroke-width="2.87" d="m824.733 193.154-30.783 2.609c-.782 0-1.826-.783-1.826-1.565l-.782-7.565" class="&lt;Path&gt;"/>
          </g>
          <g class="&lt;Group&gt;">
            <path stroke="#FEDBB5" stroke-linecap="round" stroke-linejoin="round" stroke-width="2.87" d="m809.342 130.023-1.043-11.739" class="&lt;Path&gt;"/>
          </g>
        </g>
      </g>
      <g class="&lt;Group&gt;">
        <path fill="#050505" fill-rule="evenodd" d="m784.298 212.459-9.652 10.696c-1.044 1.044-2.348 1.565-3.653 1.304l-36.783-1.826c-1.565 0-2.87-.782-3.913-2.087l-23.218-30.261-3.131-3.131-1.043 21.131 8.608.522-9.391 10.174c-.783 1.043-1.826 1.304-3.13 1.304l-33.914-1.565c-1.565 0-2.87-1.305-2.87-3.131l6.783-114.263c0-1.565.782-2.87 1.826-4.174l7.565-7.305 2.088 1.826-1.566 7.566 42.784 2.087c1.304 0 2.869 0 9.391 1.565 6.783 1.565 12.261 3.392 19.566 8.088 7.304 4.695 12.522 10.174 15.652 20.087 1.566 4.87 2.261 10.174 2.087 15.914-.869 16.348-8.261 27.826-22.174 34.435l22.957 30.001 15.131 1.043Zm-63.654-78.523-14.348-.783-.782 21.392 14.087.782c5.739.261 9.913-3.13 10.174-10.174.522-7.044-3.392-10.956-9.131-11.217Z" class="&lt;Compound Path&gt;" clip-rule="evenodd"/>
        <g class="&lt;Group&gt;">
          <g class="&lt;Group&gt;">
            <path fill="#B76B28" fill-opacity=".2" d="M745.689 107.326c6.782 1.043 23.217.261 28.174 3.913 8.348 5.739 14.87 16.174 13.827 29.479-.522 9.392-8.348 21.392-19.827 24.262-7.565 2.087-15.131-3.392-22.696-1.566" class="&lt;Compound Path&gt;"/>
          </g>
        </g>
        <g class="&lt;Group&gt;">
          <path fill="#F69227" fill-rule="evenodd" stroke="#050505" stroke-linecap="round" stroke-linejoin="round" stroke-width="2.87" d="m783.515 211.416-44.349-2.088-24-30.261h-3.392l-1.304 28.696-36.522-1.565 5.478-115.307 50.349 2.348c1.304 0 2.87 0 9.391 1.565 6.522 1.566 12.262 3.391 19.566 8.087 7.305 4.696 12.261 10.174 15.653 20.087 1.565 4.87 2.26 10.262 2.086 16.175-.869 16.174-8.261 27.566-22.174 34.174l29.218 38.089Zm-68.871-86.089-1.044 21.391 14.088.783c6 .261 10.174-3.131 10.435-10.175.261-7.043-3.391-11.217-9.392-11.478l-14.087-.521Z" class="&lt;Compound Path&gt;" clip-rule="evenodd"/>
        </g>
        <g class="&lt;Group&gt;">
          <path stroke="#FEDBB5" stroke-linecap="round" stroke-linejoin="round" stroke-width="2.87" d="M731.601 153.502c7.826-1.044 10.957-5.218 12-10.958" class="&lt;Path&gt;"/>
        </g>
        <g class="&lt;Group&gt;">
          <g class="&lt;Group&gt;">
            <g class="&lt;Group&gt;">
              <path stroke="#FEDBB5" stroke-linecap="round" stroke-linejoin="round" stroke-width="2.87" d="m730.036 99.76-38.61-1.825" class="&lt;Path&gt;"/>
            </g>
          </g>
        </g>
      </g>
      <g class="&lt;Group&gt;">
        <g class="&lt;Group&gt;">
          <path fill="#050505" fill-rule="evenodd" d="M574.554 215.329c-1.304.261-2.348-.782-2.348-2.087l-8.87-109.829c0-1.304.522-2.608 1.305-3.652l9.13-10.173c.174-.348.435-.435.783-.262l41.479 6.522h4.435c1.739 0 4.957.348 9.653 1.043 4.695.696 8.869 1.914 12.522 3.653 3.652 1.739 7.13 4.609 10.435 8.609 3.13 4 4.956 8.957 5.478 14.87.522 8.348-2.087 16.087-7.826 23.218 9.739 5.043 14.957 12.696 15.652 22.957.522 8.348 11.218 9.652 7.305 15.391-1.566 2.087-8.348 10.175-13.827 13.566-10.174 6.783-23.739 11.74-40.175 13.044l-45.131 3.13Zm28.175-74.61 14.869-1.043c1.044 0 2.088-.522 3.131-1.566 1.044-1.044 1.478-2.695 1.304-4.956-.173-2.087-.869-3.566-2.087-4.435-1.043-.87-2.173-1.218-3.391-1.044l-14.609 1.044.783 12Zm2.608 37.044 15.392-1.043c5.044-.348 7.391-2.609 7.044-6.783-.174-3.479-2.783-5.131-7.827-4.957l-15.391 1.305.782 11.478Z" class="&lt;Compound Path&gt;" clip-rule="evenodd"/>
        </g>
        <g class="&lt;Group&gt;">
          <g class="&lt;Group&gt;">
            <path fill="#B76B28" fill-opacity=".2" d="M642.382 134.719c7.043.521 24.522 4.435 29.739 7.565 9.131 5.479 15.131 11.74 15.392 22.696.522 9.653-5.739 17.479-17.739 25.827-6.522 4.435-15.653-1.043-23.479 1.565" class="&lt;Compound Path&gt;"/>
          </g>
        </g>
        <g class="&lt;Group&gt;">
          <path fill="#F69227" fill-rule="evenodd" stroke="#050505" stroke-linecap="round" stroke-linejoin="round" stroke-width="2.87" d="m582.641 203.329-8.348-112.96 52.175-3.652c1.043-.174 2.522-.26 4.435-.26 1.826 0 4.956.521 9.652 1.043 4.696 1.044 8.87 2.087 12.783 3.913 3.652 1.826 6.783 4.435 10.174 8.609 3.131 4 4.957 8.87 5.479 14.609.521 8.522-2.087 16.262-7.827 23.218 9.74 5.044 14.957 12.696 15.653 22.957 1.739 23.653-13.913 36.696-46.958 39.131l-47.218 3.392Zm30.783-71.741 14.87-1.043c2.087-.261 4.696-2.087 4.435-6.522-.261-4.174-3.391-5.74-5.478-5.479l-14.871 1.044 1.044 12Zm2.87 37.044 15.391-1.043c4.87-.348 7.218-2.609 7.044-6.783-.348-3.479-2.956-5.13-7.826-4.957l-15.392 1.305.783 11.478Z" class="&lt;Compound Path&gt;" clip-rule="evenodd"/>
        </g>
        <g class="&lt;Group&gt;">
          <path stroke="#FEDBB5" stroke-linecap="round" stroke-linejoin="round" stroke-width="2.87" d="m619.946 94.544-38.348 2.347" class="&lt;Path&gt;"/>
        </g>
        <g class="&lt;Group&gt;">
          <path stroke="#FEDBB5" stroke-linecap="round" stroke-linejoin="round" stroke-width="2.87" d="M626.729 138.11c8.348-.261 11.479-4.435 11.739-10.435" class="&lt;Path&gt;"/>
        </g>
        <g class="&lt;Group&gt;">
          <path stroke="#FEDBB5" stroke-linecap="round" stroke-linejoin="round" stroke-width="2.87" d="M632.729 175.415c7.826-.522 10.957-4.696 11.739-10.435" class="&lt;Path&gt;"/>
        </g>
      </g>
      <g class="&lt;Group&gt;">
        <g class="&lt;Group&gt;">
          <path fill="#050505" d="m392.463 88.543-3.913-8.347c-.261-.261-.783-.261-1.044 0l-11.479 8.609c-.347.174-.521.521-.521 1.043l-1.827 29.479c0 .261.262.522.522.522l33.131 1.826c.522 0 .522.261.522.522l-4.435 86.349c-.261.522.261 1.305 1.044 1.305l33.914 1.826c.695 0 1.217-.087 1.565-.261l12-10.696-6.261-76.958 33.653 1.826 10.957-4.957-9.131-27.13-88.697-4.958Z" class="&lt;Path&gt;"/>
        </g>
        <g class="&lt;Group&gt;">
          <g class="&lt;Group&gt;">
            <g class="&lt;Group&gt;">
              <g class="&lt;Group&gt;">
                <path fill="#B76B28" fill-opacity=".2" d="m387.245 100.022-3.131-2.087-3.391 16.957 4.957-2.609 6.261 2.087-3.652-17.479-1.044 3.131Z" class="&lt;Compound Path&gt;"/>
              </g>
            </g>
          </g>
        </g>
        <g class="&lt;Group&gt;">
          <g class="&lt;Group&gt;">
            <path fill="#F69227" stroke="#050505" stroke-linecap="round" stroke-linejoin="round" stroke-width="2.87" d="m419.333 114.892-33.392-2.087 1.826-32.088 103.046 6-1.826 32.088-33.653-1.826-4.696 81.915-36.001-2.087 4.696-81.915Z" class="&lt;Compound Path&gt;"/>
          </g>
        </g>
        <g class="&lt;Group&gt;">
          <g class="&lt;Group&gt;">
            <g class="&lt;Group&gt;">
              <path fill="#B76B28" fill-opacity=".2" d="M462.638 100.283c-1.304.261-1.826 2.087-1.565 3.391v20.087c.522 3.392 9.652-5.739 10.696-6 2.87-1.043 4.435 14.871 8.087 12.262 0-.261 9.913 1.565 9.913 1.565s-3.13-38.61-9.652-36.262c0 0-12.522 3.913-17.479 4.957Z" class="&lt;Path&gt;"/>
            </g>
          </g>
        </g>
        <g class="&lt;Group&gt;">
          <g class="&lt;Group&gt;">
            <g class="&lt;Group&gt;">
              <path fill="#B76B28" fill-opacity=".2" d="M572.207 107.326c-1.305-.261-2.348 1.305-2.609 2.609l-4.174 18.261c-.783 3.131 8.087-1.565 9.391-1.565 3.131.261-.782 15.392 3.392 14.087.26 0-2.087 49.567-1.826 49.567l16.174-77.741c.261-1.826-1.044-3.391-2.609-3.652-4.957-.261-14.087-1.044-17.739-1.566Z" class="&lt;Path&gt;"/>
            </g>
          </g>
        </g>
        <g class="&lt;Group&gt;">
          <g class="&lt;Group&gt;">
            <path stroke="#FEDBB5" stroke-linecap="round" stroke-linejoin="round" stroke-width="2.87" d="m437.073 90.37-40.175-2.348c-1.044-.26-1.826.522-2.087 1.566l-.261 4.173" class="&lt;Path&gt;"/>
          </g>
          <g class="&lt;Group&gt;">
            <path stroke="#FEDBB5" stroke-linecap="round" stroke-linejoin="round" stroke-width="2.87" d="m444.378 192.894 1.043-15.392" class="&lt;Path&gt;"/>
          </g>
        </g>
      </g>
      <g class="&lt;Group&gt;">
        <path fill="#050505" d="m572.206 113.848-25.305-2.348 2.348-2.608-2.087-8.088-9.392 8.609c-1.043.783-1.565 1.827-1.565 2.87l-6 67.828-.783 8.087c-.521 2.348-2.348.261-5.217 2.348-2.609 2.087-6 2.956-10.174 2.609-2.609-.174-4.87-.87-6.783-2.087-1.913-1.218-3.304-2.522-4.174-3.914a20.654 20.654 0 0 1-2.087-4.434c-.348-1.74-.609-2.957-.783-3.653v-1.565l6-69.654-22.435-7.826-3.391-.26.522-4.697-10.175 9.392c-.348.174-.522.435-.522.783l-6 68.609c-.521 6.261-.087 12.175 1.305 17.74 1.565 5.392 3.652 9.827 6.261 13.305 2.435 3.478 5.565 6.522 9.391 9.131 3.653 2.608 7.044 4.521 10.175 5.739 2.956 1.391 6.26 2.522 9.913 3.391 7.043 2.087 12.522 2.087 12.522 2.087 1.913.174 4.435.087 7.565-.261 2.957-.347 6.348-.869 10.174-1.565 3.826-.696 7.653-2 11.479-3.913 3.652-2.087 13.304-7.044 16.696-10.174 3.13-2.87 0-4.174 2.348-9.392 2.261-5.044 3.652-10.782 4.174-17.217l6-68.872Z" class="&lt;Path&gt;"/>
        <g class="&lt;Group&gt;">
          <g class="&lt;Group&gt;">
            <path fill="#F69227" stroke="#050505" stroke-linecap="round" stroke-linejoin="round" stroke-width="2.87" d="M523.422 217.416c-1.304-.261-2.869-.261-9.913-2.087-7.043-1.826-12.783-4.174-20.087-9.392-7.305-5.217-12.522-11.478-15.392-22.435-1.565-5.478-2.087-11.217-1.565-17.739l6.261-68.872 36.001 3.131-6.261 69.654c0 .522 0 1.565 1.043 4.956.522 1.739 1.217 3.305 2.087 4.696 1.565 2.609 5.478 5.479 10.696 6 4.174.261 7.565-.521 10.435-2.608 2.609-2.348 4.174-4.436 4.957-6.783l.782-3.652 6.261-69.654 36.001 3.13-6 69.132c-1.304 12.783-6.261 23.218-12.783 29.218-3.391 2.87-6.783 5.479-10.696 7.305-11.478 5.739-23.479 6-28.957 5.739l-2.87.261Z" class="&lt;Compound Path&gt;"/>
          </g>
        </g>
        <g class="&lt;Group&gt;">
          <path stroke="#FEDBB5" stroke-linecap="round" stroke-linejoin="round" stroke-width="2.87" d="m497.856 103.413-8.869-.782c-.783 0-1.827.521-1.827 1.565l-.521 7.043" class="&lt;Path&gt;"/>
        </g>
        <g class="&lt;Group&gt;">
          <path stroke="#FEDBB5" stroke-linecap="round" stroke-linejoin="round" stroke-width="2.87" d="m567.249 110.196-11.479-1.043c-1.043 0-1.826.521-2.087 1.564l-.521 8.348" class="&lt;Path&gt;"/>
        </g>
        <g class="&lt;Group&gt;">
          <path stroke="#FEDBB5" stroke-linecap="round" stroke-linejoin="round" stroke-width="2.87" d="M533.335 190.285c7.565-1.044 13.305-7.826 14.087-13.304" class="&lt;Path&gt;"/>
        </g>
      </g>
    </g>
  </g>
</svg>
