<svg width="435" height="610" viewBox="0 0 435 610" fill="none" xmlns="http://www.w3.org/2000/svg">
<g clip-path="url(#clip0_345_1228)">
<rect width="435" height="610" fill="#FDFDFD"/>
<path d="M448 587.1H3V-23H448V587.1Z" fill="#F69227"/>
<mask id="mask0_345_1228" style="mask-type:luminance" maskUnits="userSpaceOnUse" x="-7" y="-6" width="448" height="626">
<path d="M440.06 619.87H-6.12V-5.20001H440.06V619.87Z" fill="white"/>
</mask>
<g mask="url(#mask0_345_1228)">
<path d="M-196.95 867.57C-139.35 811.27 -9.15002 685.47 48.55 629.67C58.05 620.47 51.25 604.97 37.85 604.97C13.25 604.97 -19.35 605.07 -44.05 605.17C-57.55 605.27 -53.25 578.57 -43.75 569.37L301.35 234.77C301.55 234.57 408.45 150.77 301.75 183.07L209.35 135.07C209.35 135.37 56.15 286.77 55.95 287.07L-231.65 566.47C-241.05 575.67 -234.25 591.17 -220.75 591.17C-196.05 591.07 -163.45 590.87 -138.85 590.97C-125.45 590.97 -118.65 606.47 -128.05 615.57C-185.75 671.47 -327.15 808.37 -384.85 864.67L-196.95 867.57Z" fill="#DB7F27"/>
<path opacity="0.1" d="M364.15 23.17L428.65 -34.13" stroke="#FDFDFD" stroke-width="2" stroke-linecap="round"/>
<path d="M-121.05 386.87C-74.85 344.77 23.85 186.37 70.05 144.67C77.65 137.77 72.25 126.17 61.45 126.17C41.75 126.17 90.65 128.27 70.85 128.37C60.05 128.37 54.55 116.77 62.15 109.87L292.65 -99.13C292.85 -99.33 292.95 -99.5633 292.95 -99.83L142.35 -101.93C142.35 -101.73 120.75 -101.43 120.55 -101.23L-16.75 -24.13L-110.05 107.77C-117.65 114.67 -90.65 126.27 -79.85 126.17C-59.95 126.17 -33.85 126.07 -14.15 126.07C-3.34996 126.07 2.05002 137.67 -5.54999 144.57C-51.75 186.27 -165.15 288.77 -211.35 330.87L-121.05 386.87Z" fill="#FAB76B"/>
<path d="M32.15 409.17C78.35 367.07 252.05 210.77 298.35 168.97C305.85 162.17 300.45 150.47 289.65 150.47C269.95 150.47 215.25 150.57 195.35 150.67C184.55 150.67 179.15 139.07 186.65 132.17L417.25 -76.83C417.45 -77.03 399.75 -77.23 399.75 -77.53C399.75 -77.53 210.05 -79.13 209.85 -78.93L-23.65 130.07C-31.25 136.97 10.15 148.57 20.95 148.47C40.85 148.47 -0.34996 148.37 19.35 148.37C30.15 148.37 23.65 159.97 16.15 166.87C-30.15 208.57 -91.05 311.07 -137.35 353.17L32.15 409.17Z" fill="#DB7F27"/>
<path d="M333.05 615.27C389.75 563.57 545.55 421.57 602.25 370.27C611.55 361.87 604.85 347.67 591.65 347.67C567.45 347.57 476.25 347.67 451.85 347.77C438.65 347.87 431.95 333.57 441.25 325.17L724.05 68.77C724.25 68.57 724.45 68.17 724.45 67.87L539.65 65.27C539.65 65.57 539.55 65.87 539.25 66.07L256.45 322.57C247.15 330.97 253.85 345.17 267.05 345.17C291.45 345.07 281.85 344.97 306.05 344.97C319.35 344.97 325.95 359.27 316.65 367.67C259.95 418.87 104.15 560.97 47.45 612.67L333.05 615.27Z" fill="#F69227"/>
<path opacity="0.2" d="M241.85 527.47L325.25 453.27" stroke="#FDFDFD" stroke-width="5.4" stroke-linecap="round"/>
<path d="M407.35 643.37C436.15 617.17 506.65 553.47 535.45 527.47C540.15 523.17 536.75 515.97 530.05 515.97C517.75 515.97 477.75 515.97 465.45 516.07C458.75 516.07 455.35 508.87 460.05 504.57L603.45 374.47C603.583 374.337 603.683 374.203 603.75 374.07L509.95 372.77C509.95 372.903 509.883 373.037 509.75 373.17L366.35 503.17C361.55 507.47 365.05 514.77 371.75 514.67C384.05 514.67 400.35 514.57 412.55 514.57C419.35 514.57 422.65 521.87 417.95 526.07C389.15 552.07 318.65 615.87 289.85 642.07L407.35 643.37Z" fill="#FAB76B"/>
<path d="M-64.55 276.97C-29.65 245.17 146.75 76.57 181.75 45.07C187.45 39.87 183.35 31.07 175.25 31.07C160.35 31.07 140.55 31.17 125.55 31.17C117.45 31.17 113.25 22.47 119.05 17.27L263.35 -113.23C263.55 -113.363 263.65 -113.53 263.65 -113.73L149.75 -115.43C149.75 -115.23 149.683 -115.03 149.55 -114.83L-24.65 43.07C-30.45 48.27 -26.25 57.07 -18.15 57.07C-3.14996 56.97 19.55 56.97 34.45 56.97C42.65 56.97 46.75 65.67 41.05 70.87C6.04999 102.47 -82.65 179.87 -117.55 211.67L-64.55 276.97Z" fill="#F69227"/>
<path d="M674.65 -212.53L641.75 -301.33C641.75 -301.03 492.45 -149.63 492.25 -149.33L133.15 174.07C123.05 183.27 130.35 198.77 144.75 198.77C171.25 198.67 170.55 198.57 196.95 198.57C211.35 198.57 218.65 214.07 208.45 223.17C148.35 277.47 -36.15 443.57 -36.15 443.57C-40.85 447.77 -37.45 455.07 -30.75 454.97C-18.45 454.97 30.45 455.17 42.75 455.17C49.45 455.17 52.35 461.87 48.15 466.67C38.45 477.87 -85.95 590.57 -85.95 590.57L-11.25 616.57C-1.45 607.67 4.85001 632.47 23.95 615.97L92.15 552.47C153.95 496.17 425.55 237.87 487.45 182.07C497.55 172.87 469.55 157.37 455.05 157.37C428.75 157.37 367.05 157.47 340.55 157.57C326.15 157.67 318.85 142.07 328.95 132.97L698.85 -201.63C699.05 -201.83 789.05 -244.83 674.65 -212.53Z" fill="#F69227"/>
<path d="M218.15 563.97C263.75 522.37 360.85 421.27 406.55 379.97C414.05 373.27 408.75 361.77 398.05 361.77C378.55 361.77 352.75 361.87 333.15 361.87C322.55 361.97 331.95 350.47 339.45 343.67L567.15 131.27C567.35 131.07 567.45 136.87 567.45 136.57L480.35 79.57C480.35 79.87 144.65 380.77 144.65 380.77C137.25 387.57 142.65 399.07 153.25 399.07C172.85 398.97 198.65 398.87 218.15 398.87C228.75 398.87 234.15 410.37 226.65 417.07C212.55 429.87 192.05 448.37 169.25 468.97C161.35 476.07 153.25 483.47 144.95 490.87C99.45 532.07 -58.85 684.37 -58.85 684.37L83.25 685.07L218.15 563.97Z" fill="#DB7F27"/>
<g style="mix-blend-mode:multiply" opacity="0.1">
<path d="M407.85 272.07C407.783 272.003 407.75 271.97 407.75 271.97C406.65 271.67 405.75 271.37 404.85 271.27C405.75 271.47 406.75 271.67 407.85 272.07Z" fill="#FAB76B"/>
<path d="M401.65 270.67C401.55 270.67 401.55 270.77 401.55 270.77C401.95 271.07 403.15 271.87 404.85 272.77C403.05 271.77 401.85 270.87 401.65 270.77C401.65 270.703 401.65 270.67 401.65 270.67Z" fill="#FAB76B"/>
<path d="M404.15 267.27C404.15 267.27 404.35 267.67 404.85 268.27C404.45 267.77 404.25 267.37 404.15 267.27Z" fill="#FAB76B"/>
</g>
<g opacity="0.2">
<path d="M406.95 269.67H406.85C406.85 269.603 406.85 269.57 406.85 269.57C406.85 269.57 406.883 269.57 406.95 269.57C407.017 269.637 407.017 269.67 406.95 269.67Z" fill="#FDFDFD"/>
</g>
<g opacity="0.2">
<path d="M406.25 269.17L405.75 268.77C405.75 268.77 405.75 268.737 405.75 268.67C405.817 268.67 405.85 268.67 405.85 268.67L406.35 269.07C406.35 269.07 406.35 269.103 406.35 269.17C406.35 269.17 406.317 269.17 406.25 269.17Z" fill="#FDFDFD"/>
</g>
</g>
<path d="M138.75 238.47C138.75 239.37 137.95 240.07 137.05 240.07C136.15 240.07 135.35 239.37 135.35 238.47C135.35 237.47 136.15 236.77 137.05 236.77C137.95 236.77 138.75 237.47 138.75 238.47Z" fill="#FDFDFD"/>
<path d="M222.85 145.87C222.85 146.57 222.35 147.17 221.65 147.17C220.95 147.17 220.45 146.57 220.45 145.87C220.45 145.27 220.95 144.67 221.65 144.67C222.35 144.67 222.85 145.27 222.85 145.87Z" fill="#FAB76B"/>
<path opacity="0.2" d="M384.05 119.97L448.35 58.97" stroke="#FDFDFD" stroke-width="5.6" stroke-linecap="round"/>
<path opacity="0.2" d="M206.95 32.47L299.35 -56.53" stroke="#FDFDFD" stroke-width="4.8" stroke-linecap="round"/>
<path opacity="0.2" d="M377.95 266.17L490.55 160.97" stroke="#FDFDFD" stroke-width="8.3" stroke-linecap="round"/>
<path opacity="0.2" d="M369.55 33.07L408.15 -2.42999" stroke="#FDFDFD" stroke-width="2.9" stroke-linecap="round"/>
<path d="M414.05 22.07C413.75 21.17 414.35 20.27 415.15 20.07C416.05 19.87 416.95 20.37 417.25 21.27C417.45 22.17 416.95 23.07 416.05 23.27C415.15 23.47 414.25 22.97 414.05 22.07Z" fill="#FAB76B"/>
<path d="M381.35 140.77C381.05 139.87 381.55 138.97 382.45 138.77C383.35 138.47 384.25 139.07 384.55 139.97C384.75 140.77 384.25 141.67 383.35 141.97C382.45 142.17 381.55 141.67 381.35 140.77Z" fill="#FAB76B"/>
<path d="M405.75 219.07C405.55 218.47 405.85 217.97 406.45 217.77C406.95 217.67 407.55 217.97 407.75 218.57C407.85 219.07 407.55 219.67 406.95 219.77C406.45 219.97 405.85 219.67 405.75 219.07Z" fill="#F69227"/>
<path d="M217.85 299.17C217.65 298.47 218.05 297.77 218.85 297.57C219.55 297.37 220.25 297.77 220.45 298.47C220.65 299.27 220.25 299.97 219.55 300.17C218.75 300.37 218.05 299.97 217.85 299.17Z" fill="#F69227"/>
<path d="M359.65 529.67C359.45 528.97 359.85 528.27 360.55 528.07C361.35 527.87 362.05 528.27 362.25 528.97C362.45 529.77 362.05 530.47 361.25 530.67C360.55 530.87 359.85 530.47 359.65 529.67Z" fill="#F69227"/>
<path d="M368.65 446.37C368.35 445.37 368.95 444.37 369.95 444.07C370.95 443.77 372.05 444.37 372.25 445.37C372.55 446.37 371.95 447.47 370.95 447.77C369.95 447.97 368.85 447.37 368.65 446.37Z" fill="#DB7F27"/>
<path opacity="0.2" d="M-40.35 299.37L54.95 210.47" stroke="#FDFDFD" stroke-width="8.3" stroke-linecap="round"/>
<path opacity="0.2" d="M-18.25 587.57L83.35 492.67" stroke="#FDFDFD" stroke-width="8.3" stroke-linecap="round"/>
<path d="M150.15 75.77C149.05 74.67 149.05 72.97 150.05 71.87C151.15 70.77 152.95 70.77 154.05 71.77C155.15 72.87 155.15 74.67 154.05 75.77C152.95 76.87 151.25 76.87 150.15 75.77Z" fill="#FAB76B"/>
<path d="M150.15 75.77C149.05 74.67 149.05 72.97 150.05 71.87C151.15 70.77 152.95 70.77 154.05 71.77C155.15 72.87 155.15 74.67 154.05 75.77C152.95 76.87 151.25 76.87 150.15 75.77Z" fill="#FAB76B"/>
<g style="mix-blend-mode:multiply">
<path d="M153.45 72.97C154.05 73.67 154.55 74.37 154.45 75.17C155.05 74.17 154.95 72.67 154.05 71.77C152.95 70.77 151.15 70.77 150.15 71.87C149.85 72.07 149.65 72.47 149.45 72.77C150.45 71.87 152.25 71.87 153.45 72.97Z" fill="#FDFDFD"/>
</g>
<path d="M138.75 238.47C138.75 239.37 137.95 240.07 137.05 240.07C136.15 240.07 135.35 239.37 135.35 238.47C135.35 237.47 136.15 236.77 137.05 236.77C137.95 236.77 138.75 237.47 138.75 238.47Z" fill="#FAB76B"/>
<path d="M140.95 434.87C140.95 435.77 140.15 436.57 139.25 436.57C138.35 436.57 137.65 435.77 137.65 434.87C137.65 433.97 138.35 433.17 139.25 433.17C140.15 433.17 140.95 433.97 140.95 434.87Z" fill="#F69227"/>
<path d="M53.15 283.07C53.15 283.97 52.35 284.77 51.45 284.77C50.55 284.77 49.75 283.97 49.75 283.07C49.75 282.17 50.55 281.47 51.45 281.47C52.35 281.47 53.15 282.17 53.15 283.07Z" fill="#FAB76B"/>
<path d="M206.25 569.17C206.25 570.07 205.45 570.87 204.55 570.87C203.65 570.87 202.85 570.07 202.85 569.17C202.85 568.27 203.65 567.47 204.55 567.47C205.45 567.47 206.25 568.27 206.25 569.17Z" fill="#FAB76B"/>
<path d="M384.35 587.77C384.35 588.67 383.65 589.37 382.75 589.37C381.75 589.37 381.05 588.67 381.05 587.77C381.05 586.77 381.75 586.07 382.75 586.07C383.65 586.07 384.35 586.77 384.35 587.77Z" fill="#FAB76B"/>
<path d="M387.15 223.97C387.15 224.77 386.45 225.47 385.65 225.47C384.85 225.47 384.15 224.77 384.15 223.97C384.15 223.17 384.85 222.47 385.65 222.47C386.45 222.47 387.15 223.17 387.15 223.97Z" fill="#F69227"/>
<path d="M307.95 227.77C307.95 228.67 307.15 229.47 306.25 229.47C305.35 229.47 304.55 228.67 304.55 227.77C304.55 226.87 305.35 226.07 306.25 226.07C307.15 226.07 307.95 226.87 307.95 227.77Z" fill="#FAB76B"/>
<path d="M71.95 102.37C71.95 103.37 71.15 104.17 70.15 104.17C69.15 104.17 68.35 103.37 68.35 102.37C68.35 101.37 69.15 100.57 70.15 100.57C71.15 100.57 71.95 101.37 71.95 102.37Z" fill="#F69227"/>
<path d="M15.15 338.37C15.15 339.37 14.35 340.17 13.35 340.17C12.45 340.17 11.65 339.37 11.65 338.37C11.65 337.37 12.45 336.57 13.35 336.57C14.35 336.57 15.15 337.37 15.15 338.37Z" fill="#F69227"/>
<path d="M172.75 490.57C172.75 491.57 171.95 492.37 170.95 492.37C169.95 492.37 169.15 491.57 169.15 490.57C169.15 489.57 169.95 488.77 170.95 488.77C171.95 488.77 172.75 489.57 172.75 490.57Z" fill="#F69227"/>
<path d="M368.05 83.77C368.05 84.47 367.55 84.97 366.85 84.97C366.25 84.97 365.65 84.47 365.65 83.77C365.65 83.07 366.25 82.57 366.85 82.57C367.55 82.57 368.05 83.07 368.05 83.77Z" fill="#F69227"/>
<path d="M149.75 20.67C149.75 21.37 149.25 21.87 148.55 21.87C147.95 21.87 147.35 21.37 147.35 20.67C147.35 20.07 147.95 19.47 148.55 19.47C149.25 19.47 149.75 20.07 149.75 20.67Z" fill="#F69227"/>
<path d="M53.25 32.17C53.25 32.87 52.75 33.37 52.05 33.37C51.35 33.37 50.85 32.87 50.85 32.17C50.85 31.47 51.35 30.97 52.05 30.97C52.75 30.97 53.25 31.47 53.25 32.17Z" fill="#F69227"/>
<path d="M92.55 171.67C92.55 172.37 91.95 172.87 91.25 172.87C90.65 172.87 90.05 172.37 90.05 171.67C90.05 170.97 90.65 170.47 91.25 170.47C91.95 170.47 92.55 170.97 92.55 171.67Z" fill="#F69227"/>
<path d="M98.95 507.27C98.95 507.87 98.45 508.47 97.75 508.47C97.05 508.47 96.55 507.87 96.55 507.27C96.55 506.57 97.05 505.97 97.75 505.97C98.45 505.97 98.95 506.57 98.95 507.27Z" fill="#DB7F27"/>
<path opacity="0.2" d="M28.25 21.17L58.55 -8.42999" stroke="#FDFDFD" stroke-width="1.1" stroke-linecap="round"/>
<path opacity="0.2" d="M-4.84998 180.67L24.05 154.87" stroke="#FDFDFD" stroke-width="1.1" stroke-linecap="round"/>
<path opacity="0.2" d="M372.25 15.87L392.05 -0.929993" stroke="#FDFDFD" stroke-width="0.9" stroke-linecap="round"/>
<path opacity="0.2" d="M160.35 317.27L210.35 272.77" stroke="#FDFDFD" stroke-width="1.5" stroke-linecap="round"/>
<path opacity="0.2" d="M419.05 311.27L468.95 267.27" stroke="#FDFDFD" stroke-width="1.8" stroke-linecap="round"/>
<path opacity="0.2" d="M-22.15 391.57L21.65 352.37" stroke="#FDFDFD" stroke-width="1.8" stroke-linecap="round"/>
<path opacity="0.2" d="M385.35 528.97L462.05 463.17" stroke="#FDFDFD" stroke-width="1.8" stroke-linecap="round"/>
<path opacity="0.2" d="M210.35 404.27L244.25 375.17" stroke="#FDFDFD" stroke-width="1.2" stroke-linecap="round"/>
<path opacity="0.2" d="M41.75 491.07L71.05 462.77" stroke="#FDFDFD" stroke-width="1.1" stroke-linecap="round"/>
<path opacity="0.2" d="M64.45 51.97L156.85 -37.03" stroke="#FDFDFD" stroke-width="5.7" stroke-linecap="round"/>
<path opacity="0.2" d="M417.05 210.77L439.05 192.77" stroke="#FDFDFD" stroke-width="1.1" stroke-linecap="round"/>
<path opacity="0.2" d="M399.25 587.77L488.75 498.77" stroke="#FDFDFD" stroke-width="5.7" stroke-linecap="round"/>
<path opacity="0.2" d="M120.75 581.47L215.65 488.07" stroke="#FDFDFD" stroke-width="7" stroke-linecap="round"/>
</g>
<defs>
<clipPath id="clip0_345_1228">
<rect width="435" height="610" fill="white"/>
</clipPath>
</defs>
</svg>
