<svg xmlns="http://www.w3.org/2000/svg" width="38" height="38" fill="none" viewBox="0 0 38 38">
  <g class="dibujo9">
    <g class="&lt;Group&gt;">
      <path fill="#7AC057" d="M22.4 22.116c1.8-1.725 1.8-4.65 0-6.45-1.725-1.8-4.65-1.876-6.45-.075-1.8 1.8-1.875 4.65-.075 6.525 1.8 1.8 4.65 1.8 6.525 0Z" class="&lt;Path&gt;"/>
      <path fill="#7AC057" d="M22.4 22.116c1.8-1.725 1.8-4.65 0-6.45-1.725-1.8-4.65-1.876-6.45-.075-1.8 1.8-1.875 4.65-.075 6.525 1.8 1.8 4.65 1.8 6.525 0Z" class="&lt;Path&gt;"/>
      <g class="&lt;Group&gt;" style="mix-blend-mode:multiply">
        <g class="&lt;Group&gt;">
          <path fill="#7AC057" d="M16.925 17.54c-1.05 1.05-1.95 2.176-1.8 3.6-.9-1.724-.75-4.124.75-5.55a4.55 4.55 0 0 1 6.525.076c.375.375.825 1.05.975 1.575-1.575-1.5-4.5-1.575-6.45.3Z" class="&lt;Path&gt;"/>
        </g>
      </g>
    </g>
  </g>
</svg>
