<svg xmlns="http://www.w3.org/2000/svg" width="38" height="38" fill="none" viewBox="0 0 38 38">
  <g class="dibujo4">
    <g class="&lt;Group&gt;">
      <g class="&lt;Group&gt;">
        <g class="&lt;Group&gt;">
          <path fill="#DDEDF9" stroke="#2CABE2" stroke-linecap="round" stroke-linejoin="round" stroke-width=".3" d="m22.639 16.29-10.575 3.525a7.873 7.873 0 0 0 3.525 10.575 7.873 7.873 0 0 0 10.575-3.525 7.873 7.873 0 0 0-3.525-10.575Z" class="&lt;Path&gt;"/>
          <path fill="#C2DFF4" d="M23.764 16.965a8.377 8.377 0 0 0-1.125-.675l-10.575 3.525c-.05.15-.125.3-.225.45.05.05.075.1.075.15.3.9 3.225.675 6.525-.375 2.7-.9 4.8-2.175 5.325-3.075Z" class="&lt;Path&gt;"/>
          <path fill="#C2DFF4" d="m22.639 16.29-.75.225c3.075 2.175 4.125 6.225 2.475 9.6-1.875 3.675-6.3 5.25-9.975 3.525.35.3.75.55 1.2.75a7.873 7.873 0 0 0 10.575-3.525 7.873 7.873 0 0 0-3.525-10.575Z" class="&lt;Path&gt;" style="mix-blend-mode:multiply"/>
          <g class="&lt;Group&gt;">
            <g class="&lt;Group&gt;">
              <path fill="#7EC1EA" stroke="#2CABE2" stroke-linecap="round" stroke-linejoin="round" stroke-width=".3" d="m21.589 14.865-9.525 3.15c-.45.525-.375 1.8-.225 2.175.3.825 3 .675 6.15-.375 3.075-.975 5.4-2.475 5.1-3.375-.15-.3-.825-1.425-1.5-1.575Z" class="&lt;Path&gt;"/>
            </g>
            <g class="&lt;Group&gt;">
              <path fill="#93CAED" d="M13.563 17.79v-.3l-1.5.525c-.45.525-.374 1.8-.224 2.175.15.45.974.6 2.1.525-.2-.95-.325-1.925-.376-2.925Z" class="&lt;Path&gt;"/>
              <path fill="#82C2EA" d="m21.589 14.865-2.55.825c.05.05.075.1.075.15.45.75.85 1.55 1.2 2.4.1.15.175.325.225.525 1.725-.825 2.775-1.725 2.55-2.325-.15-.3-.825-1.425-1.5-1.575Z" class="&lt;Path&gt;" style="mix-blend-mode:multiply"/>
            </g>
            <path fill="#C4E0F5" stroke="#2CABE2" stroke-linecap="round" stroke-linejoin="round" stroke-width=".3" d="M21.889 15.165c.225.675-1.8 2.025-4.5 2.925-2.7.9-5.1 1.05-5.4.3-.225-.675 1.8-2.025 4.5-2.925 2.775-.9 5.175-1.05 5.4-.3Z" class="&lt;Path&gt;"/>
            <path fill="#7EC1EA" stroke="#2CABE2" stroke-linecap="round" stroke-linejoin="round" stroke-width=".3" d="M20.164 15.465c.15.375-1.2 1.2-3.075 1.8-1.8.6-3.375.825-3.525.375-.075-.375 1.275-1.2 3.075-1.8 1.8-.6 3.375-.75 3.525-.375Z" class="&lt;Path&gt;"/>
            <path fill="#82C2EA" d="M18.289 15.39c.15.4.3.825.45 1.275.975-.45 1.5-.9 1.425-1.2-.075-.3-.825-.3-1.875-.075Zm-3.375 1.125c-.9.45-1.425.9-1.35 1.125.075.3.75.3 1.65.15-.1-.45-.2-.875-.3-1.275Z" class="&lt;Path&gt;" style="mix-blend-mode:multiply"/>
          </g>
          <g class="Clip path group">
            <mask id="a" width="8" height="12" x="17" y="6" class="a" maskUnits="userSpaceOnUse" style="mask-type:luminance">
              <g class="cp48">
                <path fill="#fff" d="M20.164 15.465c.135.405-1.23 1.223-3.046 1.83l1.928-7.883L23.69 6l.637.93-4.162 8.535Z" class="Vector"/>
              </g>
            </mask>
            <g class="&lt;Clip Group&gt;" mask="url(#a)">
              <g class="&lt;Group&gt;">
                <g class="&lt;Group&gt;">
                  <path fill="#C4E0F5" stroke="#2CABE2" stroke-linecap="round" stroke-linejoin="round" stroke-width=".3" d="m17.839 19.815-.825-.3c-.15 0-.226-.15-.15-.3l3.15-9.3c.1-.3.25-.55.45-.75l2.85-2.4c.074-.075.224-.075.374 0a.228.228 0 0 1 0 .3L21.514 9.99c-.1.15-.175.3-.226.45l-3.15 9.225c0 .15-.15.225-.3.15Z" class="&lt;Path&gt;"/>
                </g>
                <path fill="#CDE5F6" d="M21.363 9.54c-.1.15-.174.3-.224.45l-3.675 9.075c0 .075-.15.15-.3.15l-.3-.15v.15c-.076.15 0 .3.15.3l.825.3c.15.075.3 0 .3-.15l3.15-9.225c.05-.15.124-.3.224-.45l2.175-2.925a.228.228 0 0 0 0-.3L21.363 9.54Z" class="&lt;Path&gt;" style="mix-blend-mode:multiply"/>
                <g class="&lt;Group&gt;">
                  <path fill="#DDEDF9" stroke="#2CABE2" stroke-linecap="round" stroke-linejoin="round" stroke-width=".3" d="M19.339 10.215a.51.51 0 0 0 .3.6l1.425.45c.224.15.45 0 .525-.225.15-.225 0-.525-.225-.6l-1.425-.45c-.3-.075-.525 0-.6.225Z" class="&lt;Path&gt;"/>
                </g>
              </g>
            </g>
          </g>
          <path stroke="#2CABE2" stroke-linecap="round" stroke-linejoin="round" stroke-width=".3" d="M20.164 15.465c.15.375-1.2 1.2-3.075 1.8" class="&lt;Path&gt;"/>
        </g>
      </g>
    </g>
  </g>
</svg>
