<svg xmlns="http://www.w3.org/2000/svg" width="38" height="38" fill="none" viewBox="0 0 38 38">
  <g class="dibujo5">
    <g class="libro">
      <g class="&lt;Group&gt;">
        <g class="&lt;Group&gt;">
          <g class="&lt;Group&gt;">
            <path fill="#43AADF" d="m17.22 15 12.94 4.314-1.407-4.032s.188-.937 1.032-1.594c.844-.75 1.969 5.251 1.219 5.908l-9.377 8.344a.729.729 0 0 1-.75.188L8.97 24.284c-.563-.282-.844-1.594-.375-1.97l8.626-7.313Z" class="&lt;Path&gt;"/>
            <path fill="#6FC49B" d="m30.816 18.939-9.282 8.439a.73.73 0 0 1-.75.188l-11.91-3.939c-.562-.187-.75-.937-.281-1.312l8.439-7.877 13.033 4.313-1.406-4.032 1.125-1.03" class="&lt;Path&gt;"/>
            <path fill="#6FC49B" d="M30.816 18.939c.563-.656-.469-5.25-.937-4.782-.5.563-.782.844-.844.844l1.031 3.75.75.188Z" class="&lt;Path&gt;"/>
            <path fill="#DBEDF6" d="m29.035 13.876 1.031 4.876-9.095 8.157-1.125-5.532 9.189-7.501Z" class="&lt;Path&gt;"/>
            <path fill="#FEFEFE" d="m7.656 17.72 1.125 5.25 12.19 3.939-1.125-5.532-12.19-3.657Z" class="&lt;Path&gt;"/>
            <path fill="#43AADF" d="m30.066 14.157-.187.094-9.377 8.345a.73.73 0 0 1-.75.187L7.844 18.845c-.563-.187-.844-1.5-.375-1.875l8.626-7.314.375-.094 13.315 4.032" class="&lt;Path&gt;"/>
            <path fill="#479DD6" d="M15.908 9.094 16.376 9l13.596 4.688-.093-.094a1.091 1.091 0 0 0-.282.188l-9.189 8.251a.729.729 0 0 1-.75.188L7.75 18.376c-.563-.28-.75-1.03-.281-1.406l8.439-7.876Z" class="&lt;Path&gt;"/>
            <g class="&lt;Group&gt;">
              <path fill="#FEFEFE" d="m9.25 17.157 7.033-6.563 2.25.844-7.22 6.47-2.063-.75Z" class="&lt;Path&gt;"/>
            </g>
          </g>
        </g>
      </g>
    </g>
  </g>
</svg>
