<?xml version="1.0" encoding="UTF-8" standalone="no"?>
<!-- Generator: Adobe Illustrator 23.0.3, SVG Export Plug-In . SVG Version: 6.00 Build 0)  -->

<svg
   version="1.1"
   id="Capa_1"
   x="0px"
   y="0px"
   viewBox="0 0 3.0000001 60"
   xml:space="preserve"
   sodipodi:docname="fondo-celda-1-1-c.svg"
   inkscape:version="1.1.2 (0a00cf5339, 2022-02-04)"
   width="3"
   height="60"
   xmlns:inkscape="http://www.inkscape.org/namespaces/inkscape"
   xmlns:sodipodi="http://sodipodi.sourceforge.net/DTD/sodipodi-0.dtd"
   xmlns="http://www.w3.org/2000/svg"
   xmlns:svg="http://www.w3.org/2000/svg"><defs
   id="defs22" /><sodipodi:namedview
   id="namedview20"
   pagecolor="#ffffff"
   bordercolor="#000000"
   borderopacity="0.25"
   inkscape:pageshadow="2"
   inkscape:pageopacity="0.0"
   inkscape:pagecheckerboard="0"
   showgrid="false"
   inkscape:zoom="18.657197"
   inkscape:cx="-3.805502"
   inkscape:cy="44.031266"
   inkscape:window-width="1920"
   inkscape:window-height="1016"
   inkscape:window-x="0"
   inkscape:window-y="27"
   inkscape:window-maximized="1"
   inkscape:current-layer="Capa_1"
   width="3px" />
<style
   type="text/css"
   id="style13">
	.st0{fill:#B6306D;}
	.st1{fill:#E166A1;}
</style>
<path
   id="path15"
   class="st0"
   d="m -33.166016,0.54708468 c -1.211513,1.06009032 -2.424152,2.11905122 -3.634765,3.18004382 0,18.7576235 0,37.5152485 0,56.2728715 17.836588,0 35.6731768,0 53.509765,0 1.412926,-1.27942 2.825767,-2.558923 4.238282,-3.838741 C 19.897295,38.363651 18.84672,20.566073 17.798828,2.7683581 1.0194183,1.8473855 -15.75981,0.92349368 -32.539062,0 c -0.208985,0.18236159 -0.417969,0.36472309 -0.626954,0.54708468 z"
   style="stroke-width:0.967891" />
<path
   id="path17"
   class="st1"
   d="m -33.800781,1.9175409 c 0,18.4862161 0,36.9724321 0,55.4586491 18.233724,0 36.4674477,0 54.701172,0 0,-19.11076 0,-38.221518 0,-57.33227685 -18.2337243,0 -36.467448,0 -54.701172,0 0,0.6245426 0,1.24908515 0,1.87362775 z"
   style="stroke-width:0.967891" />
</svg>
