<?xml version="1.0" encoding="UTF-8" standalone="no"?>
<svg
   width="101.067"
   height="188.158"
   viewBox="0 0 101.067 188.158"
   fill="none"
   version="1.1"
   id="svg6764"
   sodipodi:docname="fondo-morado-full.svg"
   inkscape:version="1.1.2 (0a00cf5339, 2022-02-04)"
   xmlns:inkscape="http://www.inkscape.org/namespaces/inkscape"
   xmlns:sodipodi="http://sodipodi.sourceforge.net/DTD/sodipodi-0.dtd"
   xmlns="http://www.w3.org/2000/svg"
   xmlns:svg="http://www.w3.org/2000/svg">
  <sodipodi:namedview
     id="namedview6766"
     pagecolor="#ffffff"
     bordercolor="#000000"
     borderopacity="0.25"
     inkscape:pageshadow="2"
     inkscape:pageopacity="0.0"
     inkscape:pagecheckerboard="0"
     showgrid="false"
     showguides="true"
     inkscape:guide-bbox="true"
     inkscape:zoom="1.9132639"
     inkscape:cx="-52.266705"
     inkscape:cy="101.65874"
     inkscape:window-width="1920"
     inkscape:window-height="1016"
     inkscape:window-x="0"
     inkscape:window-y="27"
     inkscape:window-maximized="1"
     inkscape:current-layer="g8">
    <sodipodi:guide
       position="100.96772,103.82916"
       orientation="1,0"
       id="guide8485" />
    <sodipodi:guide
       position="82.579373,15.911606"
       orientation="0,-1"
       id="guide8968" />
    <sodipodi:guide
       position="104.15552,-0.0015105016"
       orientation="0,-1"
       id="guide8970" />
  </sodipodi:namedview>
  <g
     clip-path="url(#clip0_404_117549)"
     id="g8"
     transform="translate(-1.86303,-128.419)">
    <path
       d="m 24.228766,128.50927 78.601984,-0.0784 0,172.23453 -77.33025,-0.1614 z"
       fill="#9b82bb"
       id="path2"
       sodipodi:nodetypes="ccccc" />
    <path
       d="M 102.83075,300.6654 25.5005,300.504 1.8594346,316.57852 l 77.8816444,3e-5 z"
       fill="#512e8d"
       id="path4"
       style="stroke-width:0.9924"
       sodipodi:nodetypes="ccccc" />
    <path
       d="M 24.228766,128.50927 1.86303,154.005 1.8594346,316.57852 25.5005,300.504 Z"
       fill="#6a4c9e"
       id="path6"
       sodipodi:nodetypes="ccccc" />
  </g>
  <mask
     id="mask0_404_117549"
     maskUnits="userSpaceOnUse"
     x="536"
     y="92"
     width="28"
     height="33">
    <path
       d="m 544.533,93.694 10e-4,-5e-4 c 3.565,-1.2313 5.882,-1.2794 7.557,-0.6371 1.671,0.6413 2.786,2.0015 3.879,3.8051 1.06,1.8111 3.051,6.6405 4.706,11.1555 0.826,2.253 1.562,4.414 2.053,6.064 0.245,0.827 0.427,1.517 0.527,2.023 0.051,0.254 0.079,0.451 0.086,0.59 0.003,0.058 0.002,0.099 0,0.125 -0.119,0.134 -0.378,0.346 -0.791,0.627 -0.442,0.301 -1.022,0.656 -1.703,1.045 -1.363,0.777 -3.115,1.682 -4.942,2.548 -1.827,0.865 -3.724,1.689 -5.376,2.307 -1.516,0.566 -2.788,0.944 -3.609,1.04 -0.065,-0.124 -0.158,-0.297 -0.273,-0.513 -0.249,-0.467 -0.604,-1.136 -1.034,-1.946 -0.858,-1.62 -2.009,-3.802 -3.181,-6.052 -1.173,-2.25 -2.366,-4.567 -3.307,-6.456 -0.471,-0.945 -0.878,-1.781 -1.188,-2.447 -0.312,-0.673 -0.516,-1.152 -0.592,-1.397 -0.698,-2.346 -0.625,-4.717 0.462,-6.7882 1.087,-2.0708 3.214,-3.8944 6.725,-5.0928 z m 18.805,23.154 c 0,0 0,-0.001 0.001,-0.003 -0.001,0.002 -0.001,0.003 -0.001,0.003 z"
       fill="#ffffff"
       stroke="#ffffff"
       stroke-width="0.75"
       id="path896" />
  </mask>
  <mask
     id="path-451-inside-1_404_117549"
     fill="#ffffff">
    <path
       d="m 531.002,213.242 c -0.9,0.888 -0.45,1.777 0.45,2.221 z"
       id="path970" />
  </mask>
  <mask
     id="path-459-inside-2_404_117549"
     fill="#ffffff">
    <path
       d="m 503.102,213.687 c -0.9,0.888 -0.45,1.776 0.45,2.22 z"
       id="path993" />
  </mask>
  <mask
     id="mask2_404_117549"
     maskUnits="userSpaceOnUse"
     x="480"
     y="134"
     width="85"
     height="72">
    <path
       d="m 483.986,153.431 v 0 c 0.956,-7.129 3.987,-11.888 6.771,-14.865 1.393,-1.489 2.725,-2.533 3.707,-3.204 0.49,-0.335 0.893,-0.576 1.171,-0.733 0.122,-0.069 0.22,-0.121 0.291,-0.158 0.099,0.034 0.246,0.084 0.438,0.148 0.386,0.129 0.955,0.313 1.691,0.535 1.473,0.445 3.613,1.044 6.288,1.662 5.349,1.236 12.844,2.551 21.423,2.863 h 0.001 c 8.571,0.289 15.162,-0.212 19.613,-0.786 2.226,-0.287 3.917,-0.592 5.054,-0.827 0.568,-0.117 0.998,-0.216 1.287,-0.286 0.144,-0.036 0.253,-0.064 0.327,-0.083 0.009,-0.002 0.017,-0.004 0.025,-0.007 0.046,0.011 0.115,0.028 0.203,0.053 0.19,0.055 0.472,0.152 0.826,0.315 0.707,0.325 1.703,0.917 2.823,1.979 2.238,2.122 4.987,6.138 6.886,13.702 v 0.001 c 1.917,7.543 1.386,19.438 0.362,29.495 -0.511,5.019 -1.143,9.563 -1.647,12.852 -0.252,1.645 -0.472,2.975 -0.629,3.894 -0.079,0.46 -0.142,0.817 -0.185,1.058 -0.008,0.049 -0.016,0.093 -0.023,0.132 -0.065,0.016 -0.144,0.035 -0.237,0.057 -0.317,0.076 -0.8,0.185 -1.458,0.32 -1.317,0.27 -3.336,0.642 -6.139,1.049 -5.606,0.813 -14.345,1.767 -26.866,2.322 -12.502,0.531 -23.974,-0.62 -32.322,-1.905 -4.173,-0.643 -7.564,-1.318 -9.911,-1.833 -1.173,-0.258 -2.085,-0.475 -2.703,-0.627 -0.265,-0.066 -0.476,-0.119 -0.631,-0.159 l 10e-4,-0.004 c 0.022,-0.209 0.055,-0.513 0.095,-0.891 0.081,-0.754 0.19,-1.803 0.308,-2.978 0.237,-2.348 0.507,-5.207 0.643,-7.234 v -0.001 c 0.06,-0.903 0.121,-2.445 0.202,-4.454 0.285,-7.142 0.807,-20.184 2.315,-31.402 z"
       fill="#ffffff"
       stroke="#ffffff"
       stroke-width="0.75"
       id="path1014" />
  </mask>
  <mask
     id="mask3_404_117549"
     maskUnits="userSpaceOnUse"
     x="492"
     y="86"
     width="67"
     height="54">
    <path
       d="m 520.725,101.075 v 0 c 1.343,0.38 3.293,0.552 5.459,0.593 2.174,0.042 4.596,-0.049 6.898,-0.208 2.303,-0.159 4.491,-0.386 6.198,-0.618 0.854,-0.117 1.591,-0.235 2.163,-0.346 0.556,-0.109 1.001,-0.22 1.236,-0.333 v 0.001 l 0.009,-0.005 c 0.315,-0.1597 0.52,-0.5129 0.666,-0.8673 0.156,-0.3763 0.283,-0.8535 0.39,-1.3833 0.213,-1.062 0.354,-2.3947 0.447,-3.6904 0.093,-1.2984 0.14,-2.5717 0.163,-3.5195 0.011,-0.4264 0.016,-0.7874 0.02,-1.0557 0.16,0.0549 0.354,0.1227 0.575,0.2019 0.644,0.2307 1.508,0.5566 2.393,0.9383 0.887,0.3826 1.784,0.8166 2.499,1.2623 0.358,0.2229 0.662,0.4434 0.893,0.6561 0.236,0.2161 0.374,0.4036 0.435,0.5557 0.066,0.1683 0.12,0.3778 0.183,0.6852 0.035,0.1693 0.07,0.3565 0.111,0.5745 0.035,0.1834 0.074,0.3886 0.12,0.6232 0.198,1.0135 0.515,2.4885 1.148,4.7413 0.629,2.2587 1.762,3.4657 2.82,4.5937 0.35,0.373 0.693,0.738 1.006,1.13 0.636,0.795 1.2,1.738 1.564,3.144 0.367,1.414 0.536,3.311 0.357,6.017 v 0 0.008 c -0.008,0.173 -0.105,0.545 -0.329,1.056 -0.218,0.498 -0.54,1.092 -0.965,1.699 -0.852,1.218 -2.093,2.456 -3.689,3.086 l -0.218,0.086 -0.018,0.233 c -0.247,3.17 -0.641,7.118 -0.972,10.276 -0.166,1.579 -0.317,2.959 -0.426,3.944 -0.054,0.493 -0.098,0.887 -0.129,1.158 l -0.024,0.212 c -0.019,0.009 -0.039,0.018 -0.062,0.027 -0.169,0.074 -0.435,0.18 -0.811,0.306 -0.751,0.253 -1.943,0.588 -3.681,0.901 -3.478,0.627 -9.143,1.17 -17.851,0.816 -8.688,-0.354 -16.974,-1.44 -23.091,-2.438 -3.057,-0.498 -5.571,-0.975 -7.32,-1.327 -0.875,-0.176 -1.558,-0.32 -2.022,-0.421 -0.194,-0.042 -0.349,-0.076 -0.465,-0.102 -0.007,-0.044 -0.016,-0.095 -0.025,-0.151 -0.044,-0.261 -0.107,-0.644 -0.187,-1.134 -0.159,-0.979 -0.382,-2.383 -0.64,-4.082 -0.515,-3.399 -1.165,-7.976 -1.707,-12.694 -0.543,-4.72 -0.976,-9.572 -1.058,-13.522 -0.041,-1.976 0.007,-3.7161 0.169,-5.0966 0.081,-0.6901 0.191,-1.2827 0.329,-1.7659 0.14,-0.4866 0.303,-0.8403 0.479,-1.0709 1.691,-2.1824 4.751,-3.8835 7.8,-5.1503 2.691,-1.118 5.321,-1.8769 6.892,-2.3302 0.091,-0.0263 0.179,-0.0516 0.263,-0.0759 0.044,0.0779 0.097,0.172 0.159,0.2809 0.197,0.3463 0.484,0.8421 0.844,1.4414 0.72,1.1982 1.735,2.8122 2.912,4.4736 1.176,1.6599 2.52,3.3753 3.898,4.7715 1.369,1.3864 2.812,2.5004 4.192,2.8944 z"
       fill="#ffffff"
       stroke="#ffffff"
       stroke-width="0.75"
       id="path1091" />
  </mask>
  <mask
     id="path-624-inside-9_404_117549"
     fill="#ffffff">
    <path
       d="m 536.851,107.552 c -0.3,0 -0.45,0 -0.45,0 0,0 -4.05,-2.22 -8.1,-4.441 -5.4,-3.2562 -9,-5.624 -10.8,-7.1042 -2.25,-2.2204 -4.05,-3.997 -5.4,-5.7733 -1.35,-2.2204 -1.8,-3.1085 -1.8,-4.4408 0,-0.296 0,-0.4445 0,-0.4445 l 0.9,-0.4434 c 0.3,0 0.45,0 0.45,0 0,0.296 0,0.5919 0,0.8879 0.45,1.3323 1.35,3.9967 6.75,8.8816 4.05,3.5526 16.2,10.2137 18,11.1017 0.9,-0.888 2.7,-3.109 4.05,-5.773 1.2,-2.0723 1.95,-3.9969 2.25,-5.7732 0.3,-2.3684 -0.15,-4.4404 -1.35,-6.2167 0,-0.296 0,-0.4445 0,-0.4445 0.45,0 1.35,0.4445 1.35,0.4445 0,0 0.15,0 0.45,0 0.9,2.2204 1.35,3.9963 0.9,6.2167 -0.3,2.0724 -1.05,4.2927 -2.25,6.6612 -1.8,3.553 -4.5,6.218 -4.5,6.218 z"
       id="path1370" />
  </mask>
  <mask
     id="path-626-inside-10_404_117549"
     fill="#ffffff">
    <path
       fill-rule="evenodd"
       clip-rule="evenodd"
       d="m 511.651,84.4604 c 0,0 0,0.1485 0,0.4446 0.3,0.296 0.45,0.5918 0.45,0.8879 0.45,1.3322 0.9,3.9967 6.75,8.8816 3.6,3.1085 15.3,9.7695 17.55,11.1015 0.9,-1.332 2.7,-3.108 4.05,-5.773 0.9,-2.0722 1.5,-3.9967 1.8,-5.773 0.3,-2.3685 -0.15,-4.2919 -1.35,-5.7722 0,-0.296 0,-0.593 0,-0.889 0.3,0 0.45,0 0.45,0 0.3,0 0.45,0 0.45,0 h 0.9 c 0.3,0 0.45,0.1484 0.45,0.4445 1.35,2.2204 1.35,3.9963 0.9,6.2167 0,2.0723 -0.6,4.2927 -1.8,6.661 -2.25,3.553 -4.5,6.217 -4.95,6.661 h -0.45 c 0,0.296 0,0.445 0,0.445 -0.3,0 -0.45,0 -0.45,0 l -0.45,-0.445 c 0,0 -3.6,-1.776 -7.65,-4.44 -5.4,-2.961 -9,-5.3288 -10.8,-7.1051 -2.25,-1.7763 -4.05,-3.9969 -5.4,-5.7732 -1.35,-2.2204 -2.25,-3.1086 -2.25,-4.4408 0,-0.2961 0.15,-0.4445 0.45,-0.4445 l 0.9,-0.888 c 0,0 0.15,0 0.45,0 z m -1.35,1.3325 c 0,1.3322 0.9,2.22 2.25,3.9963 1.35,1.7763 3.15,3.9969 4.95,5.7732 1.8,1.7763 5.55,4.1452 11.25,7.1056 4.05,2.665 7.65,4.441 7.65,4.441 l 0.45,0.443 v -0.443 c 0,0 2.7,-2.665 4.5,-6.218 1.2,-2.3683 1.95,-4.5887 2.25,-6.661 0.45,-2.2204 0.45,-3.9963 -0.9,-6.2167 h -1.35 c 1.2,1.7763 1.65,3.8482 1.35,6.2167 -0.3,1.7763 -0.9,3.8493 -1.8,6.218 -1.8,2.664 -3.6,4.885 -4.5,5.773 -2.25,-1.332 -14.4,-7.9935 -18,-11.102 -6.75,-6.2171 -6.75,-8.8818 -7.2,-10.214 z"
       id="path1377" />
  </mask>
  <mask
     id="mask4_404_117549"
     maskUnits="userSpaceOnUse"
     x="499"
     y="33"
     width="48"
     height="35">
    <path
       d="m 510.121,49.4217 -0.343,-0.1507 -0.001,10e-5 v 5e-4 l -10e-4,0.0022 -0.004,0.0086 -0.014,0.0339 -0.058,0.1311 c -0.05,0.1143 -0.124,0.2806 -0.215,0.4882 -0.184,0.4154 -0.441,0.9965 -0.736,1.6594 -0.591,1.3263 -1.332,2.9783 -1.938,4.2856 v 0 l -0.003,0.0049 c -0.593,1.329 -1.307,3.3658 -1.869,5.0585 -0.282,0.8488 -0.528,1.6154 -0.702,2.1697 -0.088,0.2772 -0.158,0.5015 -0.206,0.6565 l -0.048,0.1558 -2.517,2.6321 c -0.017,-0.0553 -0.036,-0.1138 -0.055,-0.1751 -0.149,-0.4716 -0.348,-1.11 -0.55,-1.7771 -0.202,-0.6675 -0.406,-1.3617 -0.565,-1.9459 -0.163,-0.5977 -0.268,-1.0449 -0.287,-1.24 v -0.0018 c -0.039,-0.3858 0.04,-0.9902 0.143,-1.6227 0.02,-0.122 0.041,-0.2459 0.061,-0.3676 0.031,-0.1798 0.06,-0.3549 0.085,-0.5123 0.04,-0.2617 0.073,-0.5132 0.073,-0.7013 V 58.2107 58.207 58.2033 58.1995 58.1957 58.1919 58.188 58.1841 58.1802 58.1763 58.1723 58.1683 58.1642 58.1601 58.156 58.1519 58.1477 58.1435 58.1393 58.135 58.1307 58.1264 58.122 v -0.0044 -0.0044 -0.0044 -0.0045 -0.0045 -0.0046 -0.0045 -0.0046 -0.0046 -0.0047 -0.0047 -0.0047 -0.0047 -0.0048 -0.0047 -0.0049 -0.0048 -0.0049 -0.0049 -0.0049 -0.005 -0.0049 -0.005 -0.0051 -0.005 -0.0051 -0.0051 -0.0052 -0.0051 -0.0052 -0.0052 -0.0052 -0.0053 -0.0053 -0.0053 -0.0053 -0.0054 -0.0054 -0.0054 -0.0054 -0.0055 -0.0054 -0.0055 -0.0056 -0.0055 -0.0056 -0.0056 -0.0056 -0.0056 -0.0057 -0.0057 -0.0057 -0.0057 -0.0057 -0.0058 -0.0058 -0.0058 -0.0058 -0.0059 -0.0058 -0.0059 -0.0059 -0.006 -0.0059 -0.006 -0.006 -0.006 -0.006 -0.0061 -0.006 V 57.7457 57.7396 57.7335 57.7273 57.7212 57.715 57.7088 57.7026 57.6963 57.6901 57.6838 57.6775 57.6712 57.6649 57.6586 57.6522 57.6459 57.6395 57.6331 57.6267 57.6203 57.6138 57.6074 57.6009 57.5944 57.5879 57.5814 57.5749 57.5683 57.5617 57.5552 57.5486 57.542 57.5354 57.5287 57.5221 57.5154 57.5088 57.5021 57.4954 57.4887 57.482 57.4752 57.4685 57.4617 57.455 57.4482 57.4414 57.4346 57.4278 57.421 57.4141 57.4073 57.4004 57.3936 57.3867 57.3798 57.3729 57.366 v -0.0069 -0.0069 -0.0069 -0.007 -0.0069 -0.007 -0.007 -0.0069 -0.007 -0.007 -0.007 -0.007 -0.007 -0.007 -0.0071 -0.007 -0.007 -0.0071 -0.007 -0.0071 -0.0071 -0.007 V 57.205 57.1979 57.1908 57.1837 57.1766 57.1695 57.1624 57.1553 57.1481 57.141 57.1339 57.1268 57.1196 57.1125 57.1053 57.0982 57.091 57.0839 57.0767 57.0696 57.0624 57.0552 57.0481 57.0409 57.0337 57.0265 57.0194 57.0122 57.005 56.9978 56.9906 56.9835 56.9763 56.9691 56.9619 56.9547 56.9475 56.9403 56.9332 56.926 56.9188 56.9116 56.9044 56.8972 56.8901 56.8829 56.8757 56.8685 56.8613 56.8542 56.847 56.8398 56.8327 56.8255 56.8183 56.8112 56.804 56.7969 56.7897 56.7826 56.7754 56.7683 56.7611 56.754 56.7469 56.7398 56.7326 56.7255 56.7184 56.7113 56.7042 56.6971 56.69 v -0.007 -0.0071 -0.0071 -0.007 -0.0071 -0.0071 -0.007 -0.007 -0.0071 -0.007 -0.007 -0.007 -0.007 -0.007 -0.007 -0.007 -0.0069 -0.007 -0.007 -0.0069 -0.0069 -0.007 -0.0069 -0.0069 -0.0069 -0.0069 -0.0068 -0.0069 -0.0069 -0.0068 -0.0069 -0.0068 -0.0068 -0.0068 -0.0068 -0.0068 -0.0068 -0.0067 -0.0068 -0.0067 -0.0067 -0.0067 -0.0067 -0.0067 -0.0067 -0.0067 -0.0066 -0.0066 -0.0067 -0.0066 -0.0066 -0.0065 -0.0066 -0.0066 -0.0065 -0.0065 -0.0065 -0.0065 -0.0065 -0.0065 -0.0064 -0.0065 -0.0064 -0.0064 -0.0064 -0.0063 -0.0064 -0.0063 -0.0064 -0.0063 -0.0063 -0.0062 -0.0063 -0.0062 -0.0062 -0.0062 -0.0062 -0.0062 -0.0061 -0.0062 -0.0061 -0.0061 -0.006 -0.0061 -0.006 -0.0061 -0.006 -0.0059 -0.006 -0.0059 -0.006 -0.0059 -0.0058 -0.0059 -0.0058 -0.0058 -0.0058 -0.0058 -0.0058 -0.0057 -0.0057 -0.0057 -0.0057 -0.0056 -0.0056 -0.0056 -0.0056 -0.0056 -0.0055 -0.0055 -0.0055 -0.0055 -0.0054 -0.0054 -0.0054 -0.0054 -0.0053 -0.0053 -0.0053 -0.0053 -0.0053 -0.0052 -0.0052 -0.0051 -0.0052 -0.0051 -0.0051 -0.0051 -0.005 -0.005 -0.005 -0.005 -0.0049 -0.0049 -0.0049 -0.0049 -0.0048 -0.0048 -0.0048 -0.0047 -0.0047 -0.0047 -0.0047 -0.0046 -0.0046 -0.0046 -0.0045 -0.0046 -0.0045 -0.0044 -0.0044 -0.0044 -0.0044 -0.0044 -0.0043 -0.0042 -0.0043 -0.0042 -0.0042 -0.0042 -0.0041 -0.0041 -0.004 -0.0041 -0.004 -0.0039 -0.004 -0.0039 -0.0039 -0.0038 -0.0038 -0.0038 -0.0037 -0.0037 -0.0037 -0.0036 -0.0036 -0.0036 -0.0035 -0.0036 -0.0034 -0.0035 -0.0034 -0.0033 -0.0034 -0.0033 -0.0032 -0.0032 -0.0032 -0.0032 -10e-4 l 4.428,-6.0735 0.023,-0.032 0.016,-0.0362 v -1e-4 l 10e-4,-4e-4 v -0.0016 l 0.003,-0.0069 0.013,-0.0276 0.049,-0.1082 c 0.043,-0.0945 0.106,-0.2323 0.187,-0.405 0.161,-0.3453 0.392,-0.8295 0.669,-1.3839 0.554,-1.1116 1.289,-2.4949 2.019,-3.6088 h 10e-4 l 0.002,-0.0044 c 0.677,-1.0641 2.218,-2.3713 3.82,-3.4972 1.598,-1.123 3.173,-2.009 3.866,-2.2577 0.403,-0.1449 1.151,-0.403 2.057,-0.7158 2.375,-0.8199 5.839,-2.0156 7.053,-2.5339 v 1e-4 l 0.008,-0.0035 c 1.613,-0.7316 6.212,-1.9526 10.434,-1.0844 0.993,0.204 2.089,0.8425 3.203,1.7639 1.109,0.9167 2.205,2.0888 3.196,3.3169 0.99,1.2271 1.869,2.5025 2.544,3.6201 0.68,1.1259 1.137,2.0663 1.303,2.6287 v 0 l 0.002,0.0061 c 0.366,1.1687 0.432,2.3227 0.405,3.1897 -0.005,0.1543 -0.013,0.299 -0.022,0.4327 -0.087,-0.1272 -0.184,-0.2652 -0.288,-0.4113 -0.529,-0.7409 -1.273,-1.7009 -2.124,-2.5635 -0.461,-0.4791 -1.31,-1.037 -2.392,-1.5905 -1.094,-0.5593 -2.457,-1.13 -3.97,-1.624 -3.02,-0.9861 -6.675,-1.6779 -10.008,-1.3379 -3.347,0.3194 -7.603,2.2988 -10.984,4.1637 -1.699,0.9374 -3.192,1.855 -4.261,2.5381 -0.534,0.3416 -0.963,0.6248 -1.258,0.8229 -0.148,0.0991 -0.262,0.1768 -0.34,0.23 l -0.089,0.0608 -0.022,0.0158 -0.006,0.0041 -0.002,0.0011 v 3e-4 c 0,10e-5 -10e-4,10e-5 0.214,0.3078 z m 0,0 -0.343,-0.1508 0.042,-0.0966 0.086,-0.0603 z"
       fill="#ffffff"
       stroke="#ffffff"
       stroke-width="0.75"
       id="path1492" />
  </mask>
  <mask
     id="mask5_404_117549"
     maskUnits="userSpaceOnUse"
     x="529"
     y="32"
     width="8"
     height="11">
    <path
       d="m 530.519,38.0172 v 10e-5 l 10e-4,-0.0104 c 0.098,-0.868 -0.062,-1.8206 -0.304,-2.6855 -0.195,-0.6967 -0.449,-1.354 -0.684,-1.8909 0.151,-0.0494 0.34,-0.1078 0.556,-0.1661 0.56,-0.1515 1.277,-0.2976 1.949,-0.2976 0.681,0 1.353,0.1842 1.866,0.3758 0.254,0.095 0.464,0.1899 0.609,0.2606 0.039,0.0187 0.072,0.0356 0.101,0.0504 l 0.005,0.0144 c 0.035,0.0965 0.084,0.2362 0.143,0.4085 0.119,0.3446 0.278,0.8185 0.44,1.336 0.328,1.0517 0.65,2.2292 0.692,2.8869 0.041,0.6692 -0.147,1.6621 -0.361,2.5229 -0.105,0.423 -0.213,0.8014 -0.295,1.0741 -0.007,0.0258 -0.015,0.0507 -0.022,0.0745 -0.138,-0.0459 -0.308,-0.1004 -0.492,-0.1567 -0.472,-0.1441 -1.076,-0.3093 -1.52,-0.358 l -0.002,-2e-4 c -0.447,-0.0465 -1.343,-0.0687 -2.109,-0.0797 -0.387,-0.0056 -0.746,-0.0084 -1.009,-0.0098 -0.002,0 -0.004,0 -0.006,0 0.028,-0.2241 0.066,-0.5242 0.11,-0.8667 0.096,-0.7434 0.22,-1.6855 0.332,-2.4826 z"
       fill="#ffffff"
       stroke="#ffffff"
       stroke-width="0.75"
       id="path1557" />
  </mask>
  <mask
     id="mask6_404_117549"
     maskUnits="userSpaceOnUse"
     x="483"
     y="90"
     width="28"
     height="33">
    <path
       d="m 501.278,121.666 c -0.04,0.046 -0.069,0.074 -0.088,0.09 -0.171,0.029 -0.511,0.02 -1.03,-0.047 -0.531,-0.068 -1.202,-0.191 -1.971,-0.358 -1.538,-0.333 -3.449,-0.838 -5.388,-1.424 -1.939,-0.587 -3.9,-1.252 -5.539,-1.905 -1.499,-0.597 -2.69,-1.169 -3.356,-1.646 0.036,-0.134 0.086,-0.321 0.149,-0.554 0.138,-0.509 0.335,-1.238 0.575,-2.12 0.48,-1.763 1.131,-4.135 1.814,-6.571 0.683,-2.436 1.398,-4.934 2.007,-6.949 0.304,-1.0081 0.581,-1.8933 0.814,-2.5889 0.236,-0.7047 0.418,-1.1906 0.533,-1.4175 v 0 l 10e-4,-0.0027 c 1.092,-2.1977 2.759,-3.8946 4.972,-4.6932 2.213,-0.7983 5.027,-0.7186 8.45,0.7417 l 10e-4,3e-4 c 3.476,1.4733 5.212,2.9915 5.998,4.5831 0.784,1.59 0.663,3.3362 0.217,5.3822 v 0.001 c -0.441,2.047 -2.283,6.933 -4.164,11.356 -0.937,2.206 -1.879,4.282 -2.651,5.815 -0.387,0.768 -0.728,1.392 -1.002,1.825 -0.138,0.218 -0.252,0.378 -0.342,0.482 z m -0.101,0.101 c -0.003,0.002 -0.004,0.002 -0.003,0.002 0,0 0.001,-0.001 0.003,-0.002 z"
       fill="#ffffff"
       stroke="#ffffff"
       stroke-width="0.75"
       id="path1620" />
  </mask>
  <mask
     id="mask8_404_117549"
     maskUnits="userSpaceOnUse"
     x="669"
     y="184"
     width="84"
     height="79">
    <path
       d="m 733.322,184.11 c 1.215,0.666 22.365,16.077 18.135,71.897 0,0 -38.565,14.699 -81.405,0 0,0 -5.76,-48.182 15.525,-68.698 0,0 35.955,4.395 47.745,-3.199 z"
       fill="#ffffff"
       id="path3370" />
  </mask>
  <mask
     id="mask9_404_117549"
     maskUnits="userSpaceOnUse"
     x="530"
     y="125"
     width="7"
     height="5">
    <path
       d="m 530.641,128.955 c -0.18,-0.045 -0.72,-0.444 -0.54,-0.844 0.135,-0.4 0.945,-2.22 1.845,-2.22 0.9,0 3.96,0.754 5.04,1.598 -1.575,1.732 -2.88,1.954 -6.345,1.466 z"
       fill="#ffffff"
       id="path6645" />
  </mask>
  <mask
     id="mask10_404_117549"
     maskUnits="userSpaceOnUse"
     x="512"
     y="125"
     width="10"
     height="4">
    <path
       d="m 521.644,128.644 c -0.36,-0.533 -2.07,-2.841 -2.07,-2.841 -0.27,-0.178 -5.49,0.088 -7.515,1.865 1.755,1.376 7.515,1.509 9.585,0.976 z"
       fill="#ffffff"
       id="path6660" />
  </mask>
  <mask
     id="mask11_404_117549"
     maskUnits="userSpaceOnUse"
     x="398"
     y="160"
     width="412"
     height="145">
    <path
       d="m 475.535,178.046 c 0.315,4.085 -0.18,7.416 -0.18,19.717 0,1.332 1.17,8.215 -2.7,7.771 0,0 -0.54,3.109 0.36,7.15 0.765,3.553 1.305,8.481 -0.36,11.234 -13.905,22.826 -57.285,37.26 -74.655,57.643 8.505,-0.489 16.695,2.842 24.795,5.462 24.255,7.949 49.995,10.036 75.51,11.768 32.22,2.131 64.47,3.715 96.75,4.752 21.825,0.71 43.695,1.154 65.385,-1.022 35.37,-3.552 70.02,-14.077 101.115,-31.13 9.495,-5.24 19.799,-13.056 19.349,-23.803 12.15,-7.904 22.23,-18.917 28.305,-32.018 -6.435,-0.488 -9.135,-8.171 -10.35,-14.388 -1.98,-10.48 -2.069,-18.163 -4.094,-28.643 l -5.041,-11.769 c -1.215,-0.31 -4.409,1.022 -5.669,1.244 -44.865,8.038 -90.225,13.412 -135.765,16.121 -39.96,2.353 -80.01,-5.907 -120.015,-4.886 -42.39,1.022 -84.105,9.992 -125.505,18.918 1.32,-1.036 2.64,-2.087 3.96,-3.153"
       fill="#ffffff"
       id="path6705" />
  </mask>
  <defs
     id="defs6762">
    <linearGradient
       id="paint0_linear_404_117549"
       x1="664.20099"
       y1="60.480999"
       x2="664.64001"
       y2="56.927101"
       gradientUnits="userSpaceOnUse">
      <stop
         stop-color="#F0BBA6"
         id="stop6734" />
      <stop
         offset="1"
         stop-color="#F5ADA9"
         id="stop6736" />
    </linearGradient>
    <linearGradient
       id="paint1_linear_404_117549"
       x1="684.00299"
       y1="60.0368"
       x2="686.21399"
       y2="56.900501"
       gradientUnits="userSpaceOnUse">
      <stop
         stop-color="#F0BBA6"
         id="stop6739" />
      <stop
         offset="1"
         stop-color="#F5ADA9"
         id="stop6741" />
    </linearGradient>
    <radialGradient
       id="paint2_radial_404_117549"
       cx="0"
       cy="0"
       r="1"
       gradientUnits="userSpaceOnUse"
       gradientTransform="matrix(6.74999,0,0,6.66185,579.603,117.32)">
      <stop
         stop-color="#F190BA"
         id="stop6744" />
      <stop
         offset="1"
         stop-color="white"
         id="stop6746" />
    </radialGradient>
    <radialGradient
       id="paint3_radial_404_117549"
       cx="0"
       cy="0"
       r="1"
       gradientUnits="userSpaceOnUse"
       gradientTransform="matrix(4.04999,0,0,3.99669,598.054,117.321)">
      <stop
         stop-color="#F190BA"
         id="stop6749" />
      <stop
         offset="1"
         stop-color="white"
         id="stop6751" />
    </radialGradient>
    <radialGradient
       id="paint4_radial_404_117549"
       cx="0"
       cy="0"
       r="1"
       gradientUnits="userSpaceOnUse"
       gradientTransform="matrix(4.94996,0,0,4.88553,598.505,116.877)">
      <stop
         stop-color="#F190BA"
         id="stop6754" />
      <stop
         offset="1"
         stop-color="white"
         id="stop6756" />
    </radialGradient>
    <clipPath
       id="clip0_404_117549">
      <rect
         width="930"
         height="195.395"
         fill="#ffffff"
         transform="translate(0,126.184)"
         id="rect6759"
         x="0"
         y="0" />
    </clipPath>
  </defs>
</svg>
